<?xml version="1.0" encoding="utf-8"?>
<!-- Generator: Adobe Illustrator 19.2.0, SVG Export Plug-In . SVG Version: 6.00 Build 0)  -->
<svg version="1.1" id="Livello_1" xmlns="http://www.w3.org/2000/svg" xmlns:xlink="http://www.w3.org/1999/xlink" x="0px" y="0px"
	 viewBox="0 0 960 960" style="enable-background:new 0 0 960 960;" xml:space="preserve">
<style type="text/css">
	.st0{fill-rule:evenodd;clip-rule:evenodd;fill:#FFFFFF;stroke:#1A171B;stroke-width:1.3397;stroke-miterlimit:2.6131;}
	.st1{fill-rule:evenodd;clip-rule:evenodd;fill:#E1001A;}
	.st2{fill-rule:evenodd;clip-rule:evenodd;fill:#FFFFFF;stroke:#E1001A;stroke-width:4.4658;stroke-miterlimit:2.6131;}
	.st3{fill-rule:evenodd;clip-rule:evenodd;fill:#1A171B;stroke:#1A171B;stroke-width:3.5726;stroke-miterlimit:2.6131;}
</style>
<g>
	<g>
		<path class="st0" d="M769.3,776.6c31.1-1.3,49.8-24.6,44.9-55.5l-1.1-4.7l-1.8-5.1l-2.2-4.9L523.4,210.8
			c-14.4-22-34.6-34.6-60.9-23.5c-10,5.5-17.3,13.3-23.1,22.7l-285.2,494c-10.4,19.5-14.4,40,1.5,58c12.6,13.3,28.2,14.7,45.8,14.7
			l561-0.2H769.3L769.3,776.6z"/>
		<path class="st1" d="M762.4,762.3c8.7-0.2,17.3,0.9,26.4-5.8c9.1-6.7,17.5-23.8,7.6-43.5L511,218.2c-16-28-44.2-27.3-59.5-0.7
			L166.7,711.2c-6,10.5-11.1,25.5-4.2,36.6c9.1,14.5,23.5,14.5,38.9,14.7L762.4,762.3L762.4,762.3z"/>
		<polygon class="st2" points="724.4,704.2 480.8,282.8 237.8,704.2 724.4,704.2 		"/>
		<path class="st3" d="M365.2,672.3c0-17.3-0.4-34,0-49.5c1.2-40.3,8.3-74.1,32.8-107c24.6-32.8,61.5-46.5,98.9-49.4
			c10-0.6,30.5,0.2,41.3,0.2l24.6,24.6l-24.6,24.6c-12.3,0-32.8-0.8-41.3,0c-28.2,2.7-49.7,16.9-62,33.2
			c-12.3,16.3-19.6,45.9-20.4,73.9c-0.4,14-0.2,30.9-0.2,49.4l-24.2-16.7L365.2,672.3L365.2,672.3z"/>
	</g>
</g>
</svg>
