<?xml version="1.0" encoding="utf-8"?>
<!-- Generator: Adobe Illustrator 19.2.0, SVG Export Plug-In . SVG Version: 6.00 Build 0)  -->
<svg version="1.1" id="Livello_1" xmlns="http://www.w3.org/2000/svg" xmlns:xlink="http://www.w3.org/1999/xlink" x="0px" y="0px"
	 viewBox="0 0 960 960" style="enable-background:new 0 0 960 960;" xml:space="preserve">
<style type="text/css">
	.st0{fill-rule:evenodd;clip-rule:evenodd;fill:#FFFFFF;stroke:#1A171B;stroke-width:1.3806;stroke-miterlimit:2.6131;}
	.st1{fill-rule:evenodd;clip-rule:evenodd;fill:#E1001A;stroke:#E1001A;stroke-width:4.6019;stroke-miterlimit:2.6131;}
	.st2{fill-rule:evenodd;clip-rule:evenodd;fill:#FFFFFF;stroke:#E1001A;stroke-width:1.3806;stroke-miterlimit:2.6131;}
</style>
<g>
	<g>
		<polygon class="st0" points="157,570.1 130,644.1 203.9,670.1 479.8,541.5 756.1,670.4 830,643.8 803,570.1 610.7,480 803,389.9 
			830,316.1 756.5,289.6 479.8,418.5 203.7,289.6 130,316.1 157,389.9 349,480 157,570.1 		"/>
		<polygon class="st1" points="400.2,480.1 174.3,585.9 157.9,631.1 203.1,647.3 480,517.5 757.5,647.4 802.6,631.1 786.2,586 
			559.9,480.1 786.2,374.1 802.6,329.1 757.6,312.8 480,442.7 203,312.9 157.9,329.1 174.3,374.2 400.2,480.1 		"/>
		<polygon class="st2" points="480.5,461.4 215.2,337.3 200.8,367.8 440.4,480.1 200.7,592.4 215.1,623.1 480.5,498.8 745.6,623.1 
			760,592.3 520.4,480.1 759.9,367.9 745.5,337.2 480.5,461.4 		"/>
	</g>
</g>
</svg>
