<?xml version="1.0" encoding="utf-8"?>
<!-- Generator: Adobe Illustrator 19.2.0, SVG Export Plug-In . SVG Version: 6.00 Build 0)  -->
<svg version="1.1" id="Livello_1" xmlns="http://www.w3.org/2000/svg" xmlns:xlink="http://www.w3.org/1999/xlink" x="0px" y="0px"
	 viewBox="0 0 960 960" style="enable-background:new 0 0 960 960;" xml:space="preserve">
<style type="text/css">
	.st0{opacity:1.000000e-002;fill:#FFFFFF;}
	.st1{fill-rule:evenodd;clip-rule:evenodd;fill:#FFFFFF;stroke:#1A171B;stroke-width:1.3806;stroke-miterlimit:2.6131;}
	.st2{fill-rule:evenodd;clip-rule:evenodd;fill:#E1001A;stroke:#E1001A;stroke-width:4.6019;stroke-miterlimit:2.6131;}
</style>
<rect class="st0" width="1" height="1"/>
<rect x="959" y="959" class="st0" width="1" height="1"/>
<path class="st1" d="M610.7,558.7L803,468.6l27-73.7l-73.5-26.5l-61.9,28.8L611,357.7l100.8-46.9l26.7-74.1l-73.6-25.8l-185,85.1
	l-182.2-84.7l-73.6,26.2l27.1,73.6l98.5,46.5l-83.7,39.7l-62.1-29L130,394.9l27,73.7l192,90.1l-192,90.1l-27,73.9l73.9,26.1
	l275.8-128.6l276.3,128.9l73.9-26.5l-27-73.7L610.7,558.7z M396.5,458.4l83.8-39l83.2,38.9l-83.7,39L396.5,458.4z"/>
<path class="st2" d="M559.9,558.9l226.3-106l16.4-45l-45-16.4l-63.7,29.8l-0.5-1.5l-133-62.1l134.4-63l16.6-44.6l-45.1-16.1
	l-185.9,86.5l-183.6-86.1l-45.1,16.1l16.1,45.1l132.1,62.1l-130.2,61.7l-1.1,2.9L203,391.6l-45.1,16.3l16.4,45.1l225.9,105.9
	L174.3,664.6l-16.4,45.2l45.2,16.1L480,596.2l277.5,129.9l45.1-16.3l-16.4-45.1L559.9,558.9z M295.7,425.8l144.5-68.1l-145.9-68.6
	l14.7-30.8l171.6,80.5l173-80.5l14.7,29.9l-147.7,69.5l146.3,68.6l-4.9,9.9L634.7,449l-154.4-72.5l-154.6,72.5L301,437.5
	L295.7,425.8z M614.9,458.3L480,521.4l-134.5-63L479.8,395L614.9,458.3z M745.6,701.9L480.5,577.5L215.1,701.9l-14.4-30.7
	l239.8-112.4L200.8,446.6l14.4-30.6l265.3,124.1l265-124.2l14.4,30.8L520.4,558.8L760,671.1L745.6,701.9z"/>
</svg>
