<?xml version="1.0" encoding="utf-8"?>
<!-- Generator: Adobe Illustrator 19.2.0, SVG Export Plug-In . SVG Version: 6.00 Build 0)  -->
<svg version="1.1" id="Livello_1" xmlns="http://www.w3.org/2000/svg" xmlns:xlink="http://www.w3.org/1999/xlink" x="0px" y="0px"
	 viewBox="0 0 960 960" style="enable-background:new 0 0 960 960;" xml:space="preserve">
<style type="text/css">
	.st0{opacity:1.000000e-002;fill:#FFFFFF;}
	.st1{fill-rule:evenodd;clip-rule:evenodd;fill:#FFFFFF;stroke:#1A171B;stroke-width:1.5;stroke-miterlimit:2.6131;}
	.st2{fill-rule:evenodd;clip-rule:evenodd;fill:#E1001A;stroke:#E1001A;stroke-width:5.1985;stroke-miterlimit:2.6131;}
</style>
<rect class="st0" width="1" height="1"/>
<rect x="959" y="959" class="st0" width="1" height="1"/>
<g>
	<g>
		<path class="st1" d="M568.3,129.8H389.1c-0.1,0-0.2,0.1-0.2,0.2v699.6c0,0.1,0.1,0.2,0.2,0.2h179.2c0.1,0,0.2-0.1,0.2-0.2V130.1
			C568.5,129.9,568.4,129.8,568.3,129.8L568.3,129.8z"/>
		<polygon class="st2" points="397.8,507.1 397.8,438.2 559.5,273.9 559.5,342.8 397.8,507.1 		"/>
		<polygon class="st2" points="397.8,686.5 397.8,617.6 559.5,453.3 559.5,522.2 397.8,686.5 		"/>
		<path class="st1" d="M309.4,130.1H130.2c-0.1,0-0.2,0.1-0.2,0.2v699.6c0,0.1,0.1,0.2,0.2,0.2h179.2c0.1,0,0.2-0.1,0.2-0.2V130.4
			C309.6,130.2,309.5,130.1,309.4,130.1L309.4,130.1z"/>
		<polygon class="st2" points="139.1,426.7 139.1,357.8 300.8,193.5 300.8,262.4 139.1,426.7 		"/>
		<polygon class="st2" points="139.1,597.2 139.1,528.3 300.8,364 300.8,432.9 139.1,597.2 		"/>
		<polygon class="st2" points="139.1,767.7 139.1,698.8 300.8,534.5 300.8,603.4 139.1,767.7 		"/>
		<path class="st1" d="M829.8,130.1H650.6c-0.1,0-0.2,0.1-0.2,0.2v699.6c0,0.1,0.1,0.2,0.2,0.2h179.2c0.1,0,0.2-0.1,0.2-0.2V130.4
			C830,130.2,829.9,130.1,829.8,130.1L829.8,130.1z"/>
		<polygon class="st2" points="659.5,597.2 659.5,528.3 821.2,364 821.2,432.9 659.5,597.2 		"/>
	</g>
</g>
</svg>
