<?xml version="1.0" encoding="utf-8"?>
<!-- Generator: Adobe Illustrator 19.2.0, SVG Export Plug-In . SVG Version: 6.00 Build 0)  -->
<svg version="1.1" id="Livello_1" xmlns="http://www.w3.org/2000/svg" xmlns:xlink="http://www.w3.org/1999/xlink" x="0px" y="0px"
	 viewBox="0 0 960 960" style="enable-background:new 0 0 960 960;" xml:space="preserve">
<style type="text/css">
	.st0{fill-rule:evenodd;clip-rule:evenodd;fill:#FFFFFF;stroke:#1A171B;stroke-width:1.3397;stroke-miterlimit:2.6131;}
	.st1{fill-rule:evenodd;clip-rule:evenodd;fill:#E1001A;}
	.st2{fill-rule:evenodd;clip-rule:evenodd;fill:#FFFFFF;stroke:#E1001A;stroke-width:4.4658;stroke-miterlimit:2.6131;}
	.st3{fill-rule:evenodd;clip-rule:evenodd;fill:#1A171B;stroke:#1A171B;stroke-width:3.5726;stroke-miterlimit:2.6131;}
	.st4{fill-rule:evenodd;clip-rule:evenodd;fill:#1A171B;}
	.st5{fill-rule:evenodd;clip-rule:evenodd;fill:#FFFFFF;}
	.st6{fill-rule:evenodd;clip-rule:evenodd;fill:#1A171B;stroke:#1A171B;stroke-width:1.3397;stroke-miterlimit:2.6131;}
</style>
<g>
	<g>
		<path class="st0" d="M769.3,776.6c31.1-1.3,49.8-24.6,44.9-55.5l-1.1-4.7l-1.8-5.1l-2.2-4.9L523.4,210.8
			c-14.4-22-34.6-34.6-60.9-23.5c-10,5.5-17.3,13.3-23.1,22.7l-285.2,494c-10.4,19.5-14.4,40,1.5,58c12.6,13.3,28.2,14.7,45.8,14.7
			l561-0.2H769.3L769.3,776.6z"/>
		<path class="st1" d="M762.4,762.3c8.7-0.2,17.3,0.9,26.4-5.8c9.1-6.7,17.5-23.8,7.6-43.5L511,218.2c-16-28-44.2-27.3-59.5-0.7
			L166.7,711.2c-6,10.5-11.1,25.5-4.2,36.6c9.1,14.5,23.5,14.5,38.9,14.7L762.4,762.3L762.4,762.3z"/>
		<polygon class="st2" points="724.4,704.2 480.8,282.8 237.8,704.2 724.4,704.2 		"/>
		<polygon class="st3" points="312.1,636 320.8,606.9 349.7,606.9 349.7,636 312.1,636 		"/>
		<path class="st4" d="M355.1,638.2v-37h-33.3c0.2-5.7,5.7-11.7,11.7-11.7h82.4l38.8-27.1l26.1,0.2v6.9h-23.4L429,589.1h204.1
			c5.3,0,11.7,3.4,14.7,12.1l9.5,36l0.2,0.6L355.1,638.2L355.1,638.2z"/>
		<polygon class="st5" points="361.5,630.8 361.7,601.1 413,601.1 413,630.2 361.5,630.8 		"/>
		<polygon class="st5" points="418.7,631 418.5,600.3 470,600.3 470,630.2 418.7,631 		"/>
		<polygon class="st5" points="475.6,631 475.4,600.3 528.8,600.3 528.8,630.2 475.6,631 		"/>
		<polygon class="st5" points="535,631 534.4,600.3 586.9,600.3 586.9,630.2 535,631 		"/>
		<polygon class="st5" points="591.9,631 592.1,600.3 639.2,600.3 648.7,631 591.9,631 		"/>
		<polygon class="st5" points="319.2,630.2 325.3,612.8 344.9,612 344.9,630.2 319.2,630.2 		"/>
		<path class="st6" d="M311.5,665.2c0-4.7,0-11,0-17.4l345-0.1c0,5.7,0.1,8.5,0.1,14.3c0.2,5.7-5.7,8.7-11.5,8.7l-49.8,0.1
			c0,0.2,0.2,0.2,0.2,0.2c0,6.3-5.2,11.5-11.5,11.5c-6.5,0-11.6-5.2-11.6-11.5c0,0,0,0,0-0.2l-14.4,0.2c0,6.2-5.3,11.5-11.5,11.5
			c-6.5,0-11.8-5.3-11.6-11.6H415.8c0,0.2,0.1,0.2,0.1,0.2c0,6.3-5.2,11.5-11.5,11.5c-6.5,0-11.6-5.2-11.6-11.5c0,0,0,0,0-0.2h-14.7
			c0,0.2,0.1,0.2,0.1,0.2c0,6.3-5.2,11.5-11.5,11.5c-6.5,0-11.6-5.2-11.6-11.5c0,0,0,0,0-0.2L311.5,665.2L311.5,665.2z"/>
	</g>
</g>
</svg>
