<?xml version="1.0" encoding="utf-8"?>
<!-- Generator: Adobe Illustrator 19.2.0, SVG Export Plug-In . SVG Version: 6.00 Build 0)  -->
<svg version="1.1" id="Livello_1" xmlns="http://www.w3.org/2000/svg" xmlns:xlink="http://www.w3.org/1999/xlink" x="0px" y="0px"
	 viewBox="0 0 960 960" style="enable-background:new 0 0 960 960;" xml:space="preserve">
<style type="text/css">
	.st0{fill-rule:evenodd;clip-rule:evenodd;fill:#FFFFFF;stroke:#1A171B;stroke-width:1.3397;stroke-miterlimit:2.6131;}
	.st1{fill-rule:evenodd;clip-rule:evenodd;fill:#E1001A;}
	.st2{fill-rule:evenodd;clip-rule:evenodd;fill:#FFFFFF;stroke:#E1001A;stroke-width:4.4658;stroke-miterlimit:2.6131;}
	.st3{fill-rule:evenodd;clip-rule:evenodd;fill:#1A171B;stroke:#1A171B;stroke-width:1.3397;stroke-miterlimit:2.6131;}
</style>
<g>
	<g>
		<path class="st0" d="M769.3,776.6c31.1-1.3,49.8-24.6,44.9-55.5l-1.1-4.7l-1.8-5.1l-2.2-4.9L523.4,210.8
			c-14.4-22-34.6-34.6-60.9-23.5c-10,5.5-17.3,13.3-23.1,22.7l-285.2,494c-10.4,19.5-14.4,40,1.5,58c12.6,13.3,28.2,14.7,45.8,14.7
			l561-0.2H769.3L769.3,776.6z"/>
		<path class="st1" d="M762.4,762.3c8.7-0.2,17.3,0.9,26.4-5.8c9.1-6.7,17.5-23.8,7.6-43.5L511,218.2c-16-28-44.2-27.3-59.5-0.7
			L166.7,711.2c-6,10.5-11.1,25.5-4.2,36.6c9.1,14.5,23.5,14.5,38.9,14.7L762.4,762.3L762.4,762.3z"/>
		<polygon class="st2" points="724.4,704.2 480.8,282.8 237.8,704.2 724.4,704.2 		"/>
		<polygon class="st3" points="635,683.8 597.8,593.6 630.6,593.6 680.9,683.8 635,683.8 		"/>
		<polygon class="st3" points="275.6,683.8 325.9,593.6 357.4,593.6 320.2,683.8 275.6,683.8 		"/>
		<path class="st3" d="M363.6,683.8l31-90.3h21.7c-8.5,18.7-11.9,24-20.4,41.5c-3.4,12.1,9.6,24.2,20.2,21.7l-4.2,27H363.6
			L363.6,683.8z"/>
		<polygon class="st3" points="456.5,683.8 463.9,593.6 493.7,593.6 501.1,683.8 456.5,683.8 		"/>
		<path class="st3" d="M545.7,683.8l-3.6-30.6c11.1-2.6,13.6-8.7,13.6-19.8l-14.9-39.8h23.6l26.1,90.3H545.7L545.7,683.8z"/>
		<path class="st3" d="M403.3,635.4l61.7-126.9l-5.8-26.6l-27.6,30.5c-9.3,12.9-28.6-1.5-18.1-13.7l51.5-59.6c2.7-2.3,2.7-2.5,7.7-5
			l20.8-6.6c2.5,0.2,6.6,0.6,9.1,3.1l39.4,42.8c2.5,2.5,2.5,5.4,2.5,7.7c0,12.7,0,19.5,0,32.2c0,11.4-19.9,11.4-19.9,0v-27
			l-17.4-17.6l-5.2,37.6l46.3,128.3c3.9,11.4-21,17.6-25.3,6.9l-39.9-105.9L428.8,644C420.5,659.3,399.7,646.7,403.3,635.4
			L403.3,635.4z"/>
		<path class="st3" d="M478.7,386.8c10.2,0,18.6,8.4,18.6,18.6c0,10.2-8.4,18.6-18.6,18.6c-10.2,0-18.6-8.4-18.6-18.6
			C460.1,395.1,468.5,386.8,478.7,386.8L478.7,386.8z"/>
	</g>
</g>
</svg>
