<?xml version="1.0" encoding="utf-8"?>
<!-- Generator: Adobe Illustrator 19.2.0, SVG Export Plug-In . SVG Version: 6.00 Build 0)  -->
<svg version="1.1" id="Livello_1" xmlns="http://www.w3.org/2000/svg" xmlns:xlink="http://www.w3.org/1999/xlink" x="0px" y="0px"
	 viewBox="0 0 960 960" style="enable-background:new 0 0 960 960;" xml:space="preserve">
<style type="text/css">
	.st0{fill-rule:evenodd;clip-rule:evenodd;fill:#FFFFFF;stroke:#1A171B;stroke-width:1.3397;stroke-miterlimit:2.6131;}
	.st1{fill-rule:evenodd;clip-rule:evenodd;fill:#E1001A;}
	.st2{fill-rule:evenodd;clip-rule:evenodd;fill:#FFFFFF;stroke:#E1001A;stroke-width:4.4658;stroke-miterlimit:2.6131;}
	.st3{fill-rule:evenodd;clip-rule:evenodd;fill:#1A171B;stroke:#1A171B;stroke-width:1.3397;stroke-miterlimit:2.6131;}
</style>
<g>
	<g>
		<path class="st0" d="M769.3,776.6c31.1-1.3,49.8-24.6,44.9-55.5l-1.1-4.7l-1.8-5.1l-2.2-4.9L523.4,210.8
			c-14.4-22-34.6-34.6-60.9-23.5c-10,5.5-17.3,13.3-23.1,22.7l-285.2,494c-10.4,19.5-14.4,40,1.5,58c12.6,13.3,28.2,14.7,45.8,14.7
			l561-0.2H769.3L769.3,776.6z"/>
		<path class="st1" d="M762.4,762.3c8.7-0.2,17.3,0.9,26.4-5.8c9.1-6.7,17.5-23.8,7.6-43.5L511,218.2c-16-28-44.2-27.3-59.5-0.7
			L166.7,711.2c-6,10.5-11.1,25.5-4.2,36.6c9.1,14.5,23.5,14.5,38.9,14.7L762.4,762.3L762.4,762.3z"/>
		<polygon class="st2" points="724.4,704.2 480.8,282.8 237.8,704.2 724.4,704.2 		"/>
		<path class="st3" d="M534.8,568.5l12.4,20.5c5.7-2.4,12.1-3.7,18.5-3.7c26.9,0,48.7,21.8,48.7,48.4c0,26.9-21.8,48.7-48.7,48.7
			c-22.5,0-41.7-15.5-47-36.6c-8.1,0.7-15.8,1-23.2,1.3c-15.8-2-17.8-11.1-16.1-21.2l-48.1-45l-7.7,12.8c12.8,8.7,21.2,23.5,21.2,40
			c0,26.9-21.8,48.7-48.4,48.7c-26.9,0-48.7-21.8-48.7-48.7c0-26.5,21.8-48.4,48.7-48.4c7.1,0,13.8,1.7,19.8,4.4l17.5-30.6
			l-2.4-11.1c0-4.4,1.8-14.1,10.9-14.1h20.5c4,1,5,7.2,0,8.1h-19.5c-5,3-4,7.1-0.8,17.1l-3.9,7.1l88.2,0.2l6.4-12.1
			c-2.7,0-5.4,0-8.2,0c-1.8-1.2-0.7-3.7,1.2-5c7.6-2.2,15.3-3.7,23.5-5c2-0.2,4.4,1,4.9,3c0,2.4-0.3,5.2-1.7,7.1
			c-4.2,0-6.6,0-10.6,0L534.8,568.5L534.8,568.5z"/>
		<path class="st0" d="M519,620.7c-5.4,4.9-19.5,13.8-28.7-0.3c-1-1.8-3-1.5-6.2-1.7l-46.2-44h83.8l-9.4,17l3.5,9.6l13.6-23.4
			l10.1,15.1C529.9,598.4,523.5,607.1,519,620.7L519,620.7z"/>
		<path class="st0" d="M396.4,625.1c-5.7,0.2-8.9,4.2-8.9,9.1c0,4.9,4,8.9,8.9,8.9c4.9,0,9.2-5,8.9-8.9c-0.3-3.9-1.8-5.2-1.8-5.4
			l15.8-27.2c9.7,7.4,16.5,19.7,16.5,32.6c0,22-17.8,39.8-39.8,39.8c-22,0-39.8-17.8-39.8-39.8c0-22,17.8-39.8,39.8-39.8
			c5.7,0,11.1,1.3,16,3.5L396.4,625.1L396.4,625.1z"/>
		<path class="st0" d="M574.7,636.8c-0.5,3-2.4,4.7-9.1,5l-36.8,3c0,0,7.4,26.5,36.8,28.7c22,0,39.8-17.8,39.8-39.8
			c0-22-17.8-39.8-39.8-39.8c-5.7,0-8.4,0.8-13.3,3c1.8,2.9,11.1,17.3,16.3,26.5C577.5,626.4,575.2,633.7,574.7,636.8L574.7,636.8z"
			/>
		<path class="st0" d="M528.8,620.5c3.7-9.9,7.4-14.5,15.5-20.3c0,0,8.7,14.8,13.1,22.4C547.6,622,528.8,620.6,528.8,620.5
			L528.8,620.5z"/>
		<path class="st3" d="M459.6,521.7l53-58.1c5-5,9.2-3,15.3-3c4,1,5,3,7.1,6.1l10.2,56c1,10.2,0,15.3-11.3,18.4l-43.5,18.2l23.2,53
			c1,7.1-13.3,14.3-18.3,5.1l-23.4-55c-3.1-6.1-2.3-12.5,2.9-16.6l39-18.9l-11.3-22.6l-27.6,27.5C468.7,540,453.5,529.8,459.6,521.7
			L459.6,521.7z"/>
		<path class="st3" d="M509.7,425.3c8.9,0,16.1,7.2,16.1,16.1c0,8.9-7.2,16.1-16.1,16.1c-8.9,0-16.1-7.2-16.1-16.1
			C493.6,432.5,500.8,425.3,509.7,425.3L509.7,425.3z"/>
	</g>
</g>
</svg>
