<?xml version="1.0" encoding="utf-8"?>
<!-- Generator: Adobe Illustrator 19.2.0, SVG Export Plug-In . SVG Version: 6.00 Build 0)  -->
<svg version="1.1" id="Livello_1" xmlns="http://www.w3.org/2000/svg" xmlns:xlink="http://www.w3.org/1999/xlink" x="0px" y="0px"
	 viewBox="0 0 960 960" style="enable-background:new 0 0 960 960;" xml:space="preserve">
<style type="text/css">
	.st0{fill-rule:evenodd;clip-rule:evenodd;fill:#FFFFFF;stroke:#1A171B;stroke-width:1.3397;stroke-miterlimit:2.6131;}
	.st1{fill-rule:evenodd;clip-rule:evenodd;fill:#E1001A;}
	.st2{fill-rule:evenodd;clip-rule:evenodd;fill:#FFFFFF;stroke:#E1001A;stroke-width:4.4658;stroke-miterlimit:2.6131;}
	.st3{fill-rule:evenodd;clip-rule:evenodd;fill:#1A171B;stroke:#1A171B;stroke-width:1.3397;stroke-miterlimit:2.6131;}
	.st4{fill-rule:evenodd;clip-rule:evenodd;fill:#1A171B;}
</style>
<g>
	<g>
		<path class="st0" d="M769.3,776.6c31.1-1.3,49.8-24.6,44.9-55.5l-1.1-4.7l-1.8-5.1l-2.2-4.9L523.4,210.8
			c-14.4-22-34.6-34.6-60.9-23.5c-10,5.5-17.3,13.3-23.1,22.7l-285.2,494c-10.4,19.5-14.4,40,1.5,58c12.6,13.3,28.2,14.7,45.8,14.7
			l561-0.2H769.3L769.3,776.6z"/>
		<path class="st1" d="M762.4,762.3c8.7-0.2,17.3,0.9,26.4-5.8c9.1-6.7,17.5-23.8,7.6-43.5L511,218.2c-16-28-44.2-27.3-59.5-0.7
			L166.7,711.2c-6,10.5-11.1,25.5-4.2,36.6c9.1,14.5,23.5,14.5,38.9,14.7L762.4,762.3L762.4,762.3z"/>
		<polygon class="st2" points="724.4,704.2 480.8,282.8 237.8,704.2 724.4,704.2 		"/>
		<polygon class="st3" points="266.3,686.8 376.7,493.5 690.9,686.8 266.3,686.8 		"/>
		<path class="st4" d="M556.9,567.2c-2.7,4.4-4.1,7.7-4,9.6c-0.1,1.2,1,2.4,2.4,3.3c0.9,0.6,2.6,1,3.5,0.4c1.7-0.7,4.5-3.2,7.2-7.6
			c2.4-3.9,3.4-7.5,3.2-9.4c0.1-1.2-0.8-2.9-1.7-3.4c-1.4-0.8-3.3-0.8-4.3-0.2C561.6,560.5,559.3,563.3,556.9,567.2L556.9,567.2z
			 M546.8,561c3.2-5.2,7.5-9.2,11.4-10.4c4.3-0.9,9.1-0.4,13.2,2.1c4.6,2.8,7.2,6.8,8.3,11.1c1.1,4.3-0.4,9.9-3.6,15.2
			c-3.5,5.7-7.5,9.2-11.9,10.1c-4.3,0.9-9.1,0.4-13.2-2.1c-4.6-2.8-7.4-6.4-8.1-10.4C541.8,572.3,543.3,566.7,546.8,561L546.8,561z"
			/>
		<polygon class="st4" points="515.8,566.6 505.5,559.7 582.9,512.4 593.4,518.9 515.8,566.6 		"/>
		<path class="st4" d="M533.5,504.7c-2.7,4.4-4.1,7.7-4,9.6c-0.1,1.2,1,2.4,2.4,3.3c0.9,0.6,2.6,1,3.5,0.4c1.7-0.8,4.5-3.2,7.2-7.6
			c2.4-3.9,3.4-7.5,3.2-9.4c0.1-1.2-0.8-2.9-1.7-3.4c-1.4-0.8-3.3-0.8-4.3-0.2C538.3,498,535.9,500.8,533.5,504.7L533.5,504.7z
			 M523.5,498.5c3.2-5.2,7.5-9.2,11.4-10.4c4.3-0.9,9.1-0.4,13.2,2.1c4.6,2.8,7.2,6.8,8.3,11.1c1.1,4.3-0.4,9.9-3.6,15.2
			c-3.5,5.7-7.5,9.2-11.9,10.1c-4.3,0.9-9.1,0.4-13.2-2.1c-4.6-2.8-7.4-6.4-8.1-10.4C518.4,509.8,520,504.2,523.5,498.5L523.5,498.5
			z"/>
		<path class="st4" d="M488.5,468.2c-2-1.2-4.3-2-5.8-1.7c-1.6,0.3-4.5,1.7-6.6,4.1c-3,2.6-7.1,8.2-11.9,16
			c-4.8,7.8-7.9,14-9.1,17.1c-0.7,3.4-0.6,6.6-0.2,8.1s2.1,3.2,4.1,4.4c1.5,0.9,3.8,1.7,5.3,1.4c1.6-0.3,4.2-1.2,6.4-3.7
			c3-2.6,7.6-7.9,12.4-15.7s7.9-14,8.6-17.4c0.7-3.4,0.6-6.6,0.2-8.1C491.5,471.3,490,469.1,488.5,468.2L488.5,468.2z M495.3,457.2
			c7,4.3,11.3,10.7,12.5,17.7c1.6,8.5-1.8,19.7-9.6,32.5c-7.8,12.8-16.2,20.9-24.6,23.3c-6.8,2.1-14.2,0.8-21.2-3.5
			c-7.5-4.6-12.3-11.3-13.5-18.3c-0.9-7.5,2.5-18.6,10.3-31.4c7.8-12.8,16.2-20.9,24.1-23.6C480.1,451.7,488.3,452.9,495.3,457.2
			L495.3,457.2z"/>
		<path class="st4" d="M416.6,505.3l-14.5-8.9l30-48.9l-13-7.9l6.2-10.1c10.1,3.7,13.4,5,21.3-0.1l12,7.3L416.6,505.3L416.6,505.3z"
			/>
	</g>
</g>
</svg>
