<?xml version="1.0" encoding="utf-8"?>
<!-- Generator: Adobe Illustrator 19.2.0, SVG Export Plug-In . SVG Version: 6.00 Build 0)  -->
<svg version="1.1" id="Livello_1" xmlns="http://www.w3.org/2000/svg" xmlns:xlink="http://www.w3.org/1999/xlink" x="0px" y="0px"
	 viewBox="0 0 960 960" style="enable-background:new 0 0 960 960;" xml:space="preserve">
<style type="text/css">
	.st0{fill-rule:evenodd;clip-rule:evenodd;fill:#FFFFFF;stroke:#1A171B;stroke-width:1.3397;stroke-miterlimit:2.6131;}
	.st1{fill-rule:evenodd;clip-rule:evenodd;fill:#E1001A;}
	.st2{fill-rule:evenodd;clip-rule:evenodd;fill:#FFFFFF;stroke:#E1001A;stroke-width:4.4658;stroke-miterlimit:2.6131;}
	.st3{fill-rule:evenodd;clip-rule:evenodd;fill:#1A171B;}
	.st4{fill-rule:evenodd;clip-rule:evenodd;fill:#1A171B;stroke:#1A171B;stroke-width:1.3397;stroke-miterlimit:2.6131;}
</style>
<g>
	<g>
		<path class="st0" d="M769.3,776.6c31.1-1.3,49.8-24.6,44.9-55.5l-1.1-4.7l-1.8-5.1l-2.2-4.9L523.4,210.8
			c-14.4-22-34.6-34.6-60.9-23.5c-10,5.5-17.3,13.3-23.1,22.7l-285.2,494c-10.4,19.5-14.4,40,1.5,58c12.6,13.3,28.2,14.7,45.8,14.7
			l561-0.2H769.3L769.3,776.6z"/>
		<path class="st1" d="M762.4,762.3c8.7-0.2,17.3,0.9,26.4-5.8c9.1-6.7,17.5-23.8,7.6-43.5L511,218.2c-16-28-44.2-27.3-59.5-0.7
			L166.7,711.2c-6,10.5-11.1,25.5-4.2,36.6c9.1,14.5,23.5,14.5,38.9,14.7L762.4,762.3L762.4,762.3z"/>
		<polygon class="st2" points="724.4,704.2 480.8,282.8 237.8,704.2 724.4,704.2 		"/>
		<path class="st3" d="M537.8,486.7c2.6,4.4,4.9,7.2,6.6,8c1,0.6,2.6,0.2,4-0.6c0.9-0.5,2-1.8,2-3c0.1-1.9-0.8-5.5-3.4-9.9
			c-2.4-4-5.1-6.5-6.8-7.3c-1-0.6-2.9-0.7-3.8-0.1c-1.4,0.8-2.2,2.5-2.2,3.7C534.1,479.4,535.4,482.7,537.8,486.7L537.8,486.7z
			 M527.6,492.7c-3.1-5.3-4.6-10.9-3.9-14.9c1.2-4.3,3.8-8.2,8-10.7c4.6-2.7,9.3-3.2,13.7-2.2c4.3,1,8.6,5,11.7,10.3
			c3.4,5.7,4.6,10.9,3.4,15.2c-1.2,4.3-3.9,8.2-8,10.7c-4.6,2.7-9.1,3.6-13,2.3C535.3,502.4,531,498.4,527.6,492.7L527.6,492.7z"/>
		<polygon class="st3" points="518.1,522.8 507.2,528.7 501.5,438.1 512.1,431.8 518.1,522.8 		"/>
		<path class="st3" d="M471.6,478.2c2.6,4.4,4.9,7.2,6.6,8c1,0.6,2.6,0.2,4-0.6c0.9-0.5,2-1.8,2-3c0.1-1.9-0.8-5.5-3.4-9.9
			c-2.4-4-5.1-6.5-6.8-7.3c-1-0.6-2.9-0.7-3.8-0.1c-1.4,0.8-2.2,2.5-2.2,3.7C467.9,470.9,469.2,474.2,471.6,478.2L471.6,478.2z
			 M461.4,484.2c-3.1-5.3-4.6-10.9-3.9-14.9c1.2-4.3,3.8-8.2,8-10.7c4.6-2.7,9.3-3.2,13.7-2.2c4.3,1,8.6,5,11.7,10.3
			c3.4,5.7,4.6,10.9,3.4,15.2c-1.2,4.3-3.9,8.2-8,10.7c-4.6,2.7-9.1,3.6-13,2.3C469.1,493.9,464.8,489.9,461.4,484.2L461.4,484.2z"
			/>
		<path class="st3" d="M418.3,501c-2,1.2-3.7,2.8-4.2,4.4c-0.5,1.5-0.6,4.7,0.5,7.8c0.9,3.8,4,10.1,8.6,18c4.7,7.8,8.7,13.5,10.9,16
			c2.6,2.2,5.5,3.6,7.1,3.9c1.6,0.3,3.8-0.4,5.9-1.6c1.5-0.9,3.2-2.5,3.7-4.1c0.5-1.5,0.9-4.3-0.3-7.3c-0.9-3.8-3.5-10.4-8.1-18.3
			c-4.7-7.8-8.7-13.5-11.4-15.7c-2.6-2.2-5.5-3.6-7.1-3.9C422.4,499.8,419.8,500.1,418.3,501L418.3,501z M411.8,489.9
			c7-4.2,14.7-5,21.5-2.8c8.3,2.5,16.6,10.7,24.2,23.7c7.7,12.9,10.9,24.1,9.2,32.6c-1.3,7-5.9,12.9-13,17.1
			c-7.5,4.5-15.7,5.6-22.5,3.4c-7-2.7-15.3-10.9-23-23.8c-7.7-12.9-10.9-24.1-9.7-32.3C399.8,500.7,404.7,494.1,411.8,489.9
			L411.8,489.9z"/>
		<path class="st3" d="M417.6,581.9l-14.6,8.7l-29.3-49.4l-13.1,7.8l-6-10.1c8-7.2,10.7-9.5,9.8-18.9l12.1-7.2L417.6,581.9
			L417.6,581.9z"/>
		<polygon class="st4" points="693.8,686.8 583.5,493.5 269.3,686.8 693.8,686.8 		"/>
	</g>
</g>
</svg>
