<?xml version="1.0" encoding="utf-8"?>
<!-- Generator: Adobe Illustrator 19.2.0, SVG Export Plug-In . SVG Version: 6.00 Build 0)  -->
<svg version="1.1" id="Livello_1" xmlns="http://www.w3.org/2000/svg" xmlns:xlink="http://www.w3.org/1999/xlink" x="0px" y="0px"
	 viewBox="0 0 960 960" style="enable-background:new 0 0 960 960;" xml:space="preserve">
<style type="text/css">
	.st0{fill-rule:evenodd;clip-rule:evenodd;fill:#FFFFFF;stroke:#1A171B;stroke-width:1.3397;stroke-miterlimit:2.6131;}
	.st1{fill-rule:evenodd;clip-rule:evenodd;fill:#E1001A;}
	.st2{fill-rule:evenodd;clip-rule:evenodd;fill:#FFFFFF;stroke:#E1001A;stroke-width:4.4658;stroke-miterlimit:2.6131;}
	.st3{fill-rule:evenodd;clip-rule:evenodd;fill:#1A171B;stroke:#1A171B;stroke-width:1.3397;stroke-miterlimit:2.6131;}
</style>
<g>
	<g>
		<path class="st0" d="M769.3,776.6c31.1-1.3,49.8-24.6,44.9-55.5l-1.1-4.7l-1.8-5.1l-2.2-4.9L523.4,210.8
			c-14.4-22-34.6-34.6-60.9-23.5c-10,5.5-17.3,13.3-23.1,22.7l-285.2,494c-10.4,19.5-14.4,40,1.5,58c12.6,13.3,28.2,14.7,45.8,14.7
			l561-0.2H769.3L769.3,776.6z"/>
		<path class="st1" d="M762.4,762.3c8.7-0.2,17.3,0.9,26.4-5.8c9.1-6.7,17.5-23.8,7.6-43.5L511,218.2c-16-28-44.2-27.3-59.5-0.7
			L166.7,711.2c-6,10.5-11.1,25.5-4.2,36.6c9.1,14.5,23.5,14.5,38.9,14.7L762.4,762.3L762.4,762.3z"/>
		<polygon class="st2" points="724.4,704.2 480.8,282.8 237.8,704.2 724.4,704.2 		"/>
		<polygon class="st3" points="314.1,634.8 314.1,602.4 486.9,602.4 486.9,634.8 314.1,634.8 		"/>
		<path class="st3" d="M409.9,586l3.5-18.5l26.3,5l-3.6,19.1c-0.6,3.1-3.9,3.5-7.2,2.9l-13.8-2.8C410.2,590.9,409.3,589.3,409.9,586
			L409.9,586z"/>
		<path class="st3" d="M542.5,611.3l3.5-18.5l26.5,5.1l-3.8,19.1c-0.6,3.1-3.9,3.5-7.2,2.9l-14.4-2.9
			C543,616.2,541.5,614.5,542.5,611.3L542.5,611.3z"/>
		<path class="st3" d="M407.8,561.7c-5.7-1.1-3.8-10.6,1.6-9.6L583,585.2c5.3,1,3.6,10.6-2,9.5L407.8,561.7L407.8,561.7z"/>
		<path class="st3" d="M415,547.7c-0.8-2.4-1.3-4.7-1.1-6.9l32.2,6.1c2.8-2.9,3.2-4.9,3.8-8.2l-34.2-6.5l0.6-4.3l34.3,6.6
			c0.6-3.1,0.2-6.4-1.5-9.2l-31.2-6c0.4-2.2,1-4.1,3.5-5.8c2.2-0.8,5.4-1.8,7.8-1.7c51.5-0.9,100.6,7.9,149.9,27.4
			c2.2,1.2,4.5,2.1,7.2,4.6c1.7,2.6,2.1,5.9,1.7,8l-30.8-5.9c-3.8,1.7-5.5,4.6-6.1,7.7l35.7,6.8l-1.2,4.2l-35.3-6.7
			c-0.6,3.3-1.2,6.4,2.7,9.4l31,5.9c-0.4,2.1-1.8,4.1-4.4,5.8L415,547.7L415,547.7z"/>
		<path class="st3" d="M429.2,507.1l19.6-38.3c3.9-3.7,7.7-5.4,12-5.6c36.3,1.5,71.7,8.2,106.9,20.6c4.3,1.6,6.8,5.5,9.1,10.4
			l3.6,39.5l-9.2-4l-2.9-31.5c-0.3-3.5-2.3-4.9-5.2-7.7c-32.4-10.6-65.5-17-99.5-19c-4.4,0-5.6,0.8-8.4,3.9l-14.9,30.3L429.2,507.1
			L429.2,507.1z"/>
		<path class="st0" d="M479,531.2l47.1,9c1.8,0.3,2.9,2,2.6,3.8l-2.9,15.1c-0.3,1.8-2,2.9-3.8,2.6l-47.1-9c-1.7-0.3-2.9-2-2.6-3.8
			l2.9-15.1C475.6,532,477.3,530.8,479,531.2L479,531.2z"/>
		<polygon class="st3" points="496.2,608 504.2,604.7 511.7,607.5 515.2,615.3 512.3,622.7 504.5,626.2 497.1,623.3 493.2,615.7 
			496.2,608 		"/>
		<polygon class="st3" points="506.3,648.3 510.8,646.5 514.9,648 516.8,652.3 515.2,656.4 510.9,658.3 506.8,656.8 504.7,652.6 
			506.3,648.3 		"/>
		<polygon class="st3" points="493.1,633.8 496.3,632.5 499.3,633.7 500.6,636.8 499.5,639.7 496.4,641.1 493.4,640 491.9,636.9 
			493.1,633.8 		"/>
		<polygon class="st3" points="530.7,648.9 533.9,647.6 536.9,648.7 538.2,651.8 537.1,654.8 534,656.2 531,655 529.5,652 
			530.7,648.9 		"/>
		<polygon class="st3" points="564.1,630.7 567.3,629.3 570.3,630.5 571.7,633.6 570.5,636.5 567.4,637.9 564.4,636.8 562.9,633.8 
			564.1,630.7 		"/>
		<polygon class="st3" points="612.1,646.8 615.4,645.4 618.3,646.6 619.7,649.7 618.6,652.6 615.5,654 612.5,652.9 611,649.9 
			612.1,646.8 		"/>
		<polygon class="st3" points="620.7,674.6 623.9,673.3 626.9,674.4 628.3,677.5 627.1,680.5 624.1,681.9 621.1,680.7 619.5,677.7 
			620.7,674.6 		"/>
		<polygon class="st3" points="648.6,680 651.8,678.7 654.8,679.8 656.2,682.9 655,685.9 651.9,687.3 648.9,686.1 647.4,683.1 
			648.6,680 		"/>
		<polygon class="st3" points="581.4,638.7 585.9,636.8 590,638.4 591.9,642.7 590.3,646.8 586,648.7 581.9,647.1 579.8,642.9 
			581.4,638.7 		"/>
		<polygon class="st3" points="550.7,648.2 555.1,646.4 559.3,648 561.2,652.2 559.6,656.3 555.3,658.3 551.2,656.7 549.1,652.5 
			550.7,648.2 		"/>
		<polygon class="st3" points="517,624.9 524.7,621.8 531.7,624.5 535,631.9 532.2,638.9 524.9,642.2 517.9,639.5 514.2,632.3 
			517,624.9 		"/>
		<polygon class="st3" points="585.6,659.1 592.8,656.1 599.5,658.7 602.6,665.6 600,672.3 593.1,675.4 586.4,672.9 582.9,666.1 
			585.6,659.1 		"/>
		<polygon class="st3" points="631.7,652.6 638.9,649.7 645.6,652.2 648.7,659.2 646.1,665.9 639.2,669 632.5,666.4 629,659.6 
			631.7,652.6 		"/>
		<polygon class="st3" points="542.2,627.4 547.8,625 553,627 555.4,632.5 553.4,637.7 548,640.1 542.8,638.1 540.1,632.8 
			542.2,627.4 		"/>
		<polygon class="st3" points="566.2,654.2 571.8,651.9 577,653.9 579.4,659.4 577.4,664.6 572,667 566.8,665 564.1,659.7 
			566.2,654.2 		"/>
	</g>
</g>
</svg>
