<?xml version="1.0" encoding="utf-8"?>
<!-- Generator: Adobe Illustrator 19.2.0, SVG Export Plug-In . SVG Version: 6.00 Build 0)  -->
<svg version="1.1" id="Livello_1" xmlns="http://www.w3.org/2000/svg" xmlns:xlink="http://www.w3.org/1999/xlink" x="0px" y="0px"
	 viewBox="0 0 960 960" style="enable-background:new 0 0 960 960;" xml:space="preserve">
<style type="text/css">
	.st0{fill-rule:evenodd;clip-rule:evenodd;fill:#FFFFFF;stroke:#1A171B;stroke-width:1.3397;stroke-miterlimit:2.6131;}
	.st1{fill-rule:evenodd;clip-rule:evenodd;fill:#E1001A;}
	.st2{fill-rule:evenodd;clip-rule:evenodd;fill:#FFFFFF;stroke:#E1001A;stroke-width:4.4658;stroke-miterlimit:2.6131;}
	.st3{fill-rule:evenodd;clip-rule:evenodd;fill:#1A171B;stroke:#1A171B;stroke-width:1.3397;stroke-miterlimit:2.6131;}
</style>
<g>
	<g>
		<path class="st0" d="M769.3,776.6c31.1-1.3,49.8-24.6,44.9-55.5l-1.1-4.7l-1.8-5.1l-2.2-4.9L523.4,210.8
			c-14.4-22-34.6-34.6-60.9-23.5c-10,5.5-17.3,13.3-23.1,22.7l-285.2,494c-10.4,19.5-14.4,40,1.5,58c12.6,13.3,28.2,14.7,45.8,14.7
			l561-0.2H769.3L769.3,776.6z"/>
		<path class="st1" d="M762.4,762.3c8.7-0.2,17.3,0.9,26.4-5.8c9.1-6.7,17.5-23.8,7.6-43.5L511,218.2c-16-28-44.2-27.3-59.5-0.7
			L166.7,711.2c-6,10.5-11.1,25.5-4.2,36.6c9.1,14.5,23.5,14.5,38.9,14.7L762.4,762.3L762.4,762.3z"/>
		<polygon class="st2" points="724.4,704.2 480.8,282.8 237.8,704.2 724.4,704.2 		"/>
		<path class="st3" d="M384.2,534.2l3.5-18.8l26.7,5l-3.7,19.4c-0.6,3.2-3.9,3.5-7.3,2.9l-14-2.9
			C384.5,539.2,383.5,537.5,384.2,534.2L384.2,534.2z"/>
		<path class="st3" d="M518.4,559.6l3.5-18.8l26.9,5.1l-3.9,19.3c-0.6,3.2-3.9,3.6-7.3,2.9l-14.6-3
			C518.9,564.6,517.4,562.8,518.4,559.6L518.4,559.6z"/>
		<path class="st3" d="M382.1,509.6c-5.7-1.1-3.9-10.8,1.6-9.7l175.7,33.2c5.3,1,3.7,10.7-2,9.6L382.1,509.6L382.1,509.6z"/>
		<path class="st3" d="M389.2,495.4c-0.8-2.4-1.4-4.8-1.1-7l32.6,6.2c2.8-2.9,3.2-4.9,3.8-8.3l-34.6-6.5l0.6-4.4l34.8,6.6
			c0.6-3.2,0.2-6.5-1.5-9.3l-31.6-6c0.4-2.2,1-4.1,3.6-5.9c2.2-0.8,5.5-1.8,7.9-1.8c52.2-1,101.9,7.8,151.8,27.5
			c2.2,1.2,4.5,2.1,7.3,4.7c1.8,2.6,2.2,5.9,1.7,8.1l-31.2-5.9c-3.8,1.7-5.6,4.7-6.2,7.8l36.2,6.8l-1.2,4.3l-35.8-6.8
			c-0.6,3.4-1.2,6.5,2.7,9.5l31.4,5.9c-0.4,2.2-1.8,4.2-4.4,5.9L389.2,495.4L389.2,495.4z"/>
		<path class="st3" d="M403.6,454.3l19.8-38.8c4-3.8,7.8-5.5,12.1-5.7c36.8,1.4,72.5,8.2,108.3,20.7c4.4,1.7,6.9,5.6,9.3,10.6
			l3.7,40l-9.3-4l-3-31.9c-0.4-3.5-2.3-4.9-5.3-7.8c-32.8-10.7-66.4-17-100.8-19c-4.5,0-5.7,0.8-8.5,3.9l-15,30.7L403.6,454.3
			L403.6,454.3z"/>
		<path class="st0" d="M454,478.6l47.7,9c1.8,0.3,2.9,2.1,2.6,3.8l-2.9,15.3c-0.3,1.8-2.1,2.9-3.8,2.6l-47.7-9
			c-1.8-0.3-2.9-2.1-2.6-3.8l2.9-15.3C450.6,479.4,452.3,478.2,454,478.6L454,478.6z"/>
		<path class="st3" d="M529.6,684.4c6.3-3.9,20.5-11.6,30.3-18.5c8.9-10.9,5.2-16.5,4.3-21.8c-12.9-16.3-39.2-26.3-44.9-52.7l2.6-15
			l15.7,3l-0.7,10.7c1.5,8.9,8.9,13.9,18.1,21.6c12.4,9.8,21.8,11.8,34.2,20.5c3.7,4.8,7.2,9.1,7.2,16.6
			c-1.8,13.9-1.8,17.8-17.4,35.7C563.8,684.6,545.9,684.6,529.6,684.4L529.6,684.4z"/>
		<path class="st3" d="M343,684.3c26.3-15,57.1-21.3,75.6-47.5c3-5.9,3.1-12,3-19.2c-3.7-21.4-27.4-27.9-36.2-49.2
			c-0.6-5.7-0.2-10,0.9-16.1l15.7,2.6v7.8c7.4,17.4,24.4,21.6,37.2,37.2c8.9,10.7,11.8,25.9,10,41.2c0,12.4-22.6,39.2-35.5,43.3H343
			L343,684.3z"/>
	</g>
</g>
</svg>
