<?xml version="1.0" encoding="utf-8"?>
<!-- Generator: Adobe Illustrator 19.2.0, SVG Export Plug-In . SVG Version: 6.00 Build 0)  -->
<svg version="1.1" id="Livello_1" xmlns="http://www.w3.org/2000/svg" xmlns:xlink="http://www.w3.org/1999/xlink" x="0px" y="0px"
	 viewBox="0 0 960 960" style="enable-background:new 0 0 960 960;" xml:space="preserve">
<style type="text/css">
	.st0{fill-rule:evenodd;clip-rule:evenodd;fill:#FFFFFF;stroke:#1A171B;stroke-width:1.3397;stroke-miterlimit:2.6131;}
	.st1{fill-rule:evenodd;clip-rule:evenodd;fill:#E1001A;}
	.st2{fill-rule:evenodd;clip-rule:evenodd;fill:#FFFFFF;stroke:#E1001A;stroke-width:4.4658;stroke-miterlimit:2.6131;}
	.st3{fill-rule:evenodd;clip-rule:evenodd;fill:#1A171B;stroke:#1A171B;stroke-width:1.3397;stroke-miterlimit:2.6131;}
</style>
<g>
	<g>
		<path class="st0" d="M769.3,776.6c31.1-1.3,49.8-24.6,44.9-55.5l-1.1-4.7l-1.8-5.1l-2.2-4.9L523.4,210.8
			c-14.4-22-34.6-34.6-60.9-23.5c-10,5.5-17.3,13.3-23.1,22.7l-285.2,494c-10.4,19.5-14.4,40,1.5,58c12.6,13.3,28.2,14.7,45.8,14.7
			l561-0.2H769.3L769.3,776.6z"/>
		<path class="st1" d="M762.4,762.3c8.7-0.2,17.3,0.9,26.4-5.8c9.1-6.7,17.5-23.8,7.6-43.5L511,218.2c-16-28-44.2-27.3-59.5-0.7
			L166.7,711.2c-6,10.5-11.1,25.5-4.2,36.6c9.1,14.5,23.5,14.5,38.9,14.7L762.4,762.3L762.4,762.3z"/>
		<polygon class="st2" points="724.4,704.2 480.8,282.8 237.8,704.2 724.4,704.2 		"/>
		<path class="st3" d="M430.9,674.9l-5-45.4l-1.6-15.3l4.1-12.4l-3.1-1.7l8.5-23.7l-17.3-26.6L398,578.5c-5.8,9.3-22.1-2.1-14-11.4
			l31.2-52.2c10.5-12.8,14.5-6.4,23.3-7.4l55.5,21.9c9.9,4.5,4.1,21.7-6.8,17.8l-29.1-11.8l7.6,28.1l19.4,25l-2.5,2.7l7.2,7.4
			l25.4-17.5c9.5-6,20,7.4,10.9,14.5l-34.7,22.7c-3.5,2.7-7,2.5-10.5-0.8L468,603.9l-2.5,2.3l-8.9-10.7l-5.8,13.8l-3.5-1.8l-2.9,8.3
			c-1.2,4.9-1,7.8,0.8,14.7l4.3,42.3C449.6,683.4,432.5,685.7,430.9,674.9L430.9,674.9z"/>
		<path class="st3" d="M559.5,488.4c10,0,18.1,8.2,18.1,18.1c0,2.3-0.5,5-1.4,7.3c1.8,1.4,3.6,2.3,5.4,3.6l1.4-7.3l10.9,6.3L588,521
			l11.8,6.8c3.2,2.3,0.9,6.3-2.3,5.4l-12.7-7.3l-0.5,8.2l-11.8-6.3l5.9-5.4c-2.3-0.9-4.1-1.8-5.9-2.7c-3.2,3.6-7.7,5.9-13.1,5.9
			c-10.9,0-19.1-8.2-19.1-19C540.4,496.5,548.6,488.4,559.5,488.4L559.5,488.4z"/>
		<path class="st3" d="M544.6,677l-8.7-40.5l1.2-8l6.8-24.6l-8,0.4l12.8-25.8l-5.4-20.2c-6.2,2.1-8.9,6.2-17.5,8.1l-8-2.1
			l-12.6-13.8c-7.2-6.2,1.4-16.9,7.8-10.7l11.8,11.6c11.1-5,18.6-13,32.8-19.4c5,0.4,9.9-1.4,15.9,1.4l25.2,10.7l9.1,21.5
			c3.7,8.5-8.5,11.6-12,3.3l-4.7-11.1l-9.1-4.7l-6.2,22.5l12.6,23.7l-6.2,1.4l5.2,12.8l31-9.9c8.9-3.5,13.8,8.3,5,12.8L584,630.1
			l-8.9-4.9l-7.6-22.5l-7.6,0.2l-8.7,30.4l7.6,39.6C559.9,682.3,547.9,685,544.6,677L544.6,677z"/>
		<polygon class="st3" points="596.1,603.6 595.1,581.5 619.3,573.4 632.3,590.1 596.1,603.6 		"/>
		<path class="st3" d="M364.4,572l43.3,30.7c1.2,0.9,1.5,2.6,0.7,3.8l-22,31.1c-0.9,1.2-2.6,1.5-3.8,0.6l-43.3-30.7
			c-1.2-0.9-1.5-2.6-0.7-3.8l22-31.1C361.4,571.5,363.1,571.2,364.4,572L364.4,572z"/>
		<path class="st3" d="M403.4,467.9c11.7,0,21.3,9.6,21.3,21.3c0,11.7-9.6,21.3-21.3,21.3c-11.7,0-21.3-9.6-21.3-21.3
			C382.1,477.5,391.7,467.9,403.4,467.9L403.4,467.9z"/>
	</g>
</g>
</svg>
