<?xml version="1.0" encoding="utf-8"?>
<!-- Generator: Adobe Illustrator 19.2.0, SVG Export Plug-In . SVG Version: 6.00 Build 0)  -->
<svg version="1.1" id="Livello_1" xmlns="http://www.w3.org/2000/svg" xmlns:xlink="http://www.w3.org/1999/xlink" x="0px" y="0px"
	 viewBox="0 0 960 960" style="enable-background:new 0 0 960 960;" xml:space="preserve">
<style type="text/css">
	.st0{fill-rule:evenodd;clip-rule:evenodd;fill:#FFFFFF;stroke:#1A171B;stroke-width:1.3397;stroke-miterlimit:2.6131;}
	.st1{fill-rule:evenodd;clip-rule:evenodd;fill:#E1001A;}
	.st2{fill-rule:evenodd;clip-rule:evenodd;fill:#FFFFFF;stroke:#E1001A;stroke-width:4.4658;stroke-miterlimit:2.6131;}
	.st3{fill-rule:evenodd;clip-rule:evenodd;fill:#1A171B;stroke:#1A171B;stroke-width:4.4658;stroke-miterlimit:2.6131;}
</style>
<g>
	<g>
		<path class="st0" d="M769.3,776.6c31.1-1.3,49.8-24.6,44.9-55.5l-1.1-4.7l-1.8-5.1l-2.2-4.9L523.4,210.8
			c-14.4-22-34.6-34.6-60.9-23.5c-10,5.5-17.3,13.3-23.1,22.7l-285.2,494c-10.4,19.5-14.4,40,1.5,58c12.6,13.3,28.2,14.7,45.8,14.7
			l561-0.2H769.3L769.3,776.6z"/>
		<path class="st1" d="M762.4,762.3c8.7-0.2,17.3,0.9,26.4-5.8c9.1-6.7,17.5-23.8,7.6-43.5L511,218.2c-16-28-44.2-27.3-59.5-0.7
			L166.7,711.2c-6,10.5-11.1,25.5-4.2,36.6c9.1,14.5,23.5,14.5,38.9,14.7L762.4,762.3L762.4,762.3z"/>
		<polygon class="st2" points="724.4,704.2 480.8,282.8 237.8,704.2 724.4,704.2 		"/>
		<path class="st3" d="M548.1,517.6c-15.9-22.5-38.6-36-69.1-36l10.6,24.1c1.2,7.6-3.3,9-9.8,7.8l-89.8-19l68.9-72.8
			c4.5-5.1,9.6-4.9,12.9,0.8l-0.6,27.2c26.6-3.9,75.4,6.3,103.7,49.9L548.1,517.6L548.1,517.6z"/>
		<path class="st3" d="M407.5,528.1c-11.6,25-11.9,51.4,3.4,77.9l14.6-25.2c6-4.8,9.5-1.6,11.7,4.6l29.4,91.3L369,653.4
			c-6.7-1.4-9-5.9-5.8-11.6l23.9-13.1c-16.7-21.1-32.3-68.4-8.6-114.8L407.5,528.1L407.5,528.1z"/>
		<path class="st3" d="M487.9,645c27.4-2.5,50.5-15.4,65.7-41.8l-27.1-1.2c-7.2-2.8-6.1-7.4-1.9-12.4l62.3-70l28.6,96.1
			c2.2,6.4-0.6,10.8-7.1,10.8l-23.3-14.1c-9.9,25-43.1,62.1-95.1,64.9L487.9,645L487.9,645z"/>
	</g>
</g>
</svg>
