<?xml version="1.0" encoding="utf-8"?>
<!-- Generator: Adobe Illustrator 19.2.0, SVG Export Plug-In . SVG Version: 6.00 Build 0)  -->
<svg version="1.1" id="Livello_1" xmlns="http://www.w3.org/2000/svg" xmlns:xlink="http://www.w3.org/1999/xlink" x="0px" y="0px"
	 viewBox="0 0 960 960" style="enable-background:new 0 0 960 960;" xml:space="preserve">
<style type="text/css">
	.st0{fill-rule:evenodd;clip-rule:evenodd;fill:#FFFFFF;stroke:#1A171B;stroke-width:1.3397;stroke-miterlimit:2.6131;}
	.st1{fill-rule:evenodd;clip-rule:evenodd;fill:#E1001A;}
	.st2{fill-rule:evenodd;clip-rule:evenodd;fill:#FFFFFF;stroke:#E1001A;stroke-width:4.4658;stroke-miterlimit:2.6131;}
	.st3{fill-rule:evenodd;clip-rule:evenodd;fill:#1A171B;stroke:#1A171B;stroke-width:1.3397;stroke-miterlimit:2.6131;}
</style>
<g>
	<g>
		<path class="st0" d="M769.3,776.6c31.1-1.3,49.8-24.6,44.9-55.5l-1.1-4.7l-1.8-5.1l-2.2-4.9L523.4,210.8
			c-14.4-22-34.6-34.6-60.9-23.5c-10,5.5-17.3,13.3-23.1,22.7l-285.2,494c-10.4,19.5-14.4,40,1.5,58c12.6,13.3,28.2,14.7,45.8,14.7
			l561-0.2H769.3L769.3,776.6z"/>
		<path class="st1" d="M762.4,762.3c8.7-0.2,17.3,0.9,26.4-5.8c9.1-6.7,17.5-23.8,7.6-43.5L511,218.2c-16-28-44.2-27.3-59.5-0.7
			L166.7,711.2c-6,10.5-11.1,25.5-4.2,36.6c9.1,14.5,23.5,14.5,38.9,14.7L762.4,762.3L762.4,762.3z"/>
		<polygon class="st2" points="724.4,704.2 480.8,282.8 237.8,704.2 724.4,704.2 		"/>
		<polygon class="st3" points="265.8,683.7 334.7,565.4 369.8,565.4 369.8,683.7 265.8,683.7 		"/>
		<path class="st3" d="M681.9,655.6l4.9,8.9c-5.4-2.7-11.6-5.4-17.4-5.4c-8,0-16.1,10.7-27.7,10.7c-11.6,0-17.4-10.7-29-10.7
			c-11.2,0-18.8,10.7-29.9,10.7c-12.1,0-17.4-10.7-29.5-10.7c-10.3,0-18.3,10.7-29,10.7c-10.7,0-17.9-10.7-29.5-10.7
			c-9.8,0-18.3,10.7-28.6,10.7c-12.1,0-17.9-10.7-29.9-10.7c-8.9,0-14.3,10.7-28.1,10.7c-14.3,0-20.5-10.7-29.5-10.7
			c0-2.7,0-4,0-6.3c10.3,0,17.9,9.8,29.5,9.8c9.4,0,18.3-9.8,28.1-9.8c12.5,0,18.8,9.8,29.9,9.8c9.4,0,17.9-9.8,28.6-9.8
			c12.1,0,19.2,9.8,29.5,9.8c9.8,0,18.8-9.8,29-9.8c12.1,0,17.4,9.8,29.5,9.8c11.2-0.4,19.6-9.8,29.9-9.8c10.3,0,17.4,9.8,29,9.8
			c11.6,0,19.6-9.8,27.7-9.8C673.4,652.9,677.4,654.3,681.9,655.6L681.9,655.6z"/>
		<path class="st3" d="M691.3,672.1l6.3,10.3c-6.7-2.2-17-9.4-26.8-9.4c-8.9,0-16.1,9.8-29,9.8c-10.3,0-17-9.8-27.7-9.8
			c-12.1,0-16.5,9.8-30.4,9.8c-12.5,0-17.9-9.8-29.9-9.8c-9.4,0-18.3,9.8-28.1,9.8c-12.1,0-19.2-9.8-30.8-9.8
			c-9.4,0-16.1,9.8-28.6,9.8c-9.8,0-17.4-9.8-28.6-9.8c-10.7,0-15.6,9.8-28.1,9.8c-15.6,0-20.5-9.8-30.8-9.8c0-2.2,0-3.1,0-6.3
			c12.1,0,18.8,8.9,30.8,8.9c8.5,0,17.4-8.9,28.1-8.9c11.2,0,19.2,8.9,28.6,8.9c10.3,0,18.3-8.9,28.6-8.9c13.4,0,19.6,8.9,30.8,8.9
			c9.8,0,18.8-8.9,28.1-8.9c12.1,0,18.8,8.9,29.9,8.9c12.5-0.4,19.2-8.9,30.4-8.9c9.8,0,17.4,8.9,27.7,8.9c13,0,20.1-8.9,29-8.9
			C677.4,666.8,685.5,669.9,691.3,672.1L691.3,672.1z"/>
		<path class="st3" d="M592.2,605.1c10.3,3.9,15.4,15.5,11.5,25.8c-3.9,10.3-15.5,15.4-25.8,11.5c-10.3-3.9-15.4-15.5-11.5-25.8
			C570.3,606.3,581.9,601.1,592.2,605.1L592.2,605.1z"/>
		<path class="st3" d="M431.4,543.4c10.3,3.9,15.4,15.5,11.5,25.8c-3.9,10.3-15.5,15.4-25.8,11.5c-10.3-3.9-15.4-15.5-11.5-25.8
			C409.5,544.6,421.1,539.4,431.4,543.4L431.4,543.4z"/>
		<path class="st3" d="M607.4,638c5.5-10.6,5-18.3,0.7-26.9l36.2,14.1L630,642.8L607.4,638L607.4,638z"/>
		<path class="st3" d="M445.8,576.1c5.4-8.9,6.5-16.7,1.4-26.7l129.6,49.9c-10.4,2.2-15.8,11.4-17.9,20.2L445.8,576.1L445.8,576.1z"
			/>
		<polygon class="st3" points="367.8,511.9 382.7,493 584.6,570.7 645.5,602.2 646.6,619 367.8,511.9 		"/>
		<polygon class="st3" points="578.1,561.2 562.8,526.2 526.5,512.3 516.7,537.5 510.7,535.3 520.3,510.1 483.7,496 460.1,515.8 
			437.7,507.3 476.5,485.7 567.1,521 586.5,564.5 578.1,561.2 		"/>
		<path class="st3" d="M365.1,540.5l0.4-22.6l50.6,19.6c-9.8,3.7-13.8,7.8-17.5,20.2L365.1,540.5L365.1,540.5z"/>
		<path class="st0" d="M428,552.2c5.4,2.1,8.2,8.2,6.1,13.7c-2.1,5.4-8.2,8.2-13.7,6.1c-5.4-2.1-8.2-8.2-6.1-13.7
			C416.4,552.8,422.6,550.1,428,552.2L428,552.2z"/>
		<path class="st0" d="M588.8,613.9c5.4,2.1,8.2,8.2,6.1,13.7c-2.1,5.4-8.2,8.2-13.7,6.1c-5.4-2.1-8.2-8.2-6.1-13.7
			C577.2,614.5,583.3,611.8,588.8,613.9L588.8,613.9z"/>
	</g>
</g>
</svg>
