<?xml version="1.0" encoding="utf-8"?>
<!-- Generator: Adobe Illustrator 19.2.0, SVG Export Plug-In . SVG Version: 6.00 Build 0)  -->
<svg version="1.1" id="Livello_1" xmlns="http://www.w3.org/2000/svg" xmlns:xlink="http://www.w3.org/1999/xlink" x="0px" y="0px"
	 viewBox="0 0 960 960" style="enable-background:new 0 0 960 960;" xml:space="preserve">
<style type="text/css">
	.st0{fill-rule:evenodd;clip-rule:evenodd;fill:#FFFFFF;stroke:#1A171B;stroke-width:1.3397;stroke-miterlimit:2.6131;}
	.st1{fill-rule:evenodd;clip-rule:evenodd;fill:#E1001A;}
	.st2{fill-rule:evenodd;clip-rule:evenodd;fill:#FFFFFF;stroke:#E1001A;stroke-width:4.4658;stroke-miterlimit:2.6131;}
	.st3{fill-rule:evenodd;clip-rule:evenodd;fill:#1A171B;stroke:#1A171B;stroke-width:1.3397;stroke-miterlimit:2.6131;}
</style>
<g>
	<g>
		<path class="st0" d="M769.3,776.6c31.1-1.3,49.8-24.6,44.9-55.5l-1.1-4.7l-1.8-5.1l-2.2-4.9L523.4,210.8
			c-14.4-22-34.6-34.6-60.9-23.5c-10,5.5-17.3,13.3-23.1,22.7l-285.2,494c-10.4,19.5-14.4,40,1.5,58c12.6,13.3,28.2,14.7,45.8,14.7
			l561-0.2H769.3L769.3,776.6z"/>
		<path class="st1" d="M762.4,762.3c8.7-0.2,17.3,0.9,26.4-5.8c9.1-6.7,17.5-23.8,7.6-43.5L511,218.2c-16-28-44.2-27.3-59.5-0.7
			L166.7,711.2c-6,10.5-11.1,25.5-4.2,36.6c9.1,14.5,23.5,14.5,38.9,14.7L762.4,762.3L762.4,762.3z"/>
		<polygon class="st2" points="724.4,704.2 480.8,282.8 237.8,704.2 724.4,704.2 		"/>
		<path class="st3" d="M384,663.8l0.2-22h29.3l-0.2,22.8c0,3.4-3,4.3-6.7,4.3l-16.6-0.2C385.5,668.9,383.5,667.4,384,663.8
			L384,663.8z"/>
		<path class="st3" d="M400.6,585.1c8,0,14.7,6.3,14.7,13.4c0,8.5-6.7,14.7-14.7,14.7c-7.6,0-13.4-6.3-13.4-14.7
			C387.2,591.3,393,585.1,400.6,585.1L400.6,585.1z M300.1,621.2l29.9-50.9c26.3,0,51.8,2.2,78.6,7.6c8.9,3.1,15.2,10.7,15.2,21.9
			c0,10.7-2.2,20.5-9.8,21L300.1,621.2L300.1,621.2z"/>
		<polygon class="st3" points="450.7,660 450.4,658.6 566.5,632.7 567.3,638.5 450.7,660 		"/>
		<path class="st3" d="M447.6,653.2c45.6-24.5,89.3-46.8,139.5-69.6l3.5,7.7l-142.4,63L447.6,653.2L447.6,653.2z"/>
		<polygon class="st3" points="444.6,646.2 539.8,576.3 545.3,582.3 445.3,647 444.6,646.2 		"/>
		<polygon class="st3" points="440.9,641.6 440.1,640.8 542.9,538.2 548.9,545.2 440.9,641.6 		"/>
		<polygon class="st3" points="432.4,634.6 431,634.6 523.4,458.8 533.1,464.2 432.4,634.6 		"/>
		<polygon class="st3" points="530.6,427.9 540.5,423.9 549.7,427.4 553.9,436.9 550.4,446 540.9,450.3 531.7,446.7 527,437.5 
			530.6,427.9 		"/>
		<polygon class="st3" points="558.9,555.2 568.8,551.2 577.9,554.7 582.2,564.2 578.6,573.3 569.1,577.6 560,574 555.3,564.8 
			558.9,555.2 		"/>
		<polygon class="st3" points="604.9,566.6 614.8,562.6 624,566.1 628.2,575.6 624.7,584.7 615.2,589 606,585.5 601.3,576.2 
			604.9,566.6 		"/>
		<polygon class="st3" points="584.9,618.3 594.8,614.2 603.9,617.7 608.2,627.2 604.6,636.4 595.1,640.6 586,637.1 581.2,627.8 
			584.9,618.3 		"/>
		<polygon class="st3" points="556.2,519.2 562.7,516.6 568.6,518.9 571.4,525.1 569.1,531 562.9,533.8 556.9,531.5 553.8,525.5 
			556.2,519.2 		"/>
		<path class="st3" d="M354.6,527l5.8-9.4c4.5,0,12.1,0.9,24.6,3.1c4.5,0.9,8,5.4,11.2,10.3l12.5,40.6l-11.2-2.2l-9.4-32.6
			c-1.8-3.1-3.6-4.5-7.1-6.3C364.8,527.9,358.6,527.5,354.6,527L354.6,527z"/>
		<path class="st3" d="M291.6,636.4l5.8-9.8h123.3c6.7,0,6.7,9.8,0,9.8H291.6L291.6,636.4z"/>
		<polygon class="st3" points="689.5,669 694,676.6 268.4,676.6 272.8,669 689.5,669 		"/>
	</g>
</g>
</svg>
