<?xml version="1.0" encoding="utf-8"?>
<!-- Generator: Adobe Illustrator 19.2.0, SVG Export Plug-In . SVG Version: 6.00 Build 0)  -->
<svg version="1.1" id="Livello_1" xmlns="http://www.w3.org/2000/svg" xmlns:xlink="http://www.w3.org/1999/xlink" x="0px" y="0px"
	 viewBox="0 0 960 960" style="enable-background:new 0 0 960 960;" xml:space="preserve">
<style type="text/css">
	.st0{fill-rule:evenodd;clip-rule:evenodd;fill:#FFFFFF;stroke:#1A171B;stroke-width:1.3397;stroke-miterlimit:2.6131;}
	.st1{fill-rule:evenodd;clip-rule:evenodd;fill:#E1001A;}
	.st2{fill-rule:evenodd;clip-rule:evenodd;fill:#FFFFFF;stroke:#E1001A;stroke-width:4.4658;stroke-miterlimit:2.6131;}
	.st3{fill-rule:evenodd;clip-rule:evenodd;fill:#1A171B;stroke:#1A171B;stroke-width:1.3397;stroke-miterlimit:2.6131;}
</style>
<g>
	<g>
		<path class="st0" d="M769.3,776.6c31.1-1.3,49.8-24.6,44.9-55.5l-1.1-4.7l-1.8-5.1l-2.2-4.9L523.4,210.8
			c-14.4-22-34.6-34.6-60.9-23.5c-10,5.5-17.3,13.3-23.1,22.7l-285.2,494c-10.4,19.5-14.4,40,1.5,58c12.6,13.3,28.2,14.7,45.8,14.7
			l561-0.2H769.3L769.3,776.6z"/>
		<path class="st1" d="M762.4,762.3c8.7-0.2,17.3,0.9,26.4-5.8c9.1-6.7,17.5-23.8,7.6-43.5L511,218.2c-16-28-44.2-27.3-59.5-0.7
			L166.7,711.2c-6,10.5-11.1,25.5-4.2,36.6c9.1,14.5,23.5,14.5,38.9,14.7L762.4,762.3L762.4,762.3z"/>
		<polygon class="st2" points="724.4,704.2 480.8,282.8 237.8,704.2 724.4,704.2 		"/>
		<polygon class="st3" points="261.1,690.1 472.7,322.3 484.6,349 470.8,376.1 495.7,420.6 471.2,464.2 497.3,508.3 459.3,576.3 
			495.6,642.1 532.4,642.1 554.5,678.6 693.5,678.6 700.8,690.1 261.1,690.1 		"/>
		<polygon class="st3" points="612.3,564.4 622.8,583.6 613.2,602.8 590.3,602.9 579.2,583.4 590.3,564.2 612.3,564.4 		"/>
		<polygon class="st3" points="533.4,531.8 537.8,539.1 533.7,546.3 525.1,546.3 520.9,539 525.1,531.8 533.4,531.8 		"/>
		<polygon class="st3" points="510.3,373.3 515.4,381.5 510.7,389.7 500.9,389.7 496.2,381.4 500.9,373.2 510.3,373.3 		"/>
		<polygon class="st3" points="561.3,474.6 570.3,493.9 562,513 537.7,513.1 526.6,493.6 537.8,474.4 561.3,474.6 		"/>
		<polygon class="st3" points="515.2,452.1 522.1,462.5 516.4,473.3 503.7,473.9 497.2,463.3 502.9,452.4 515.2,452.1 		"/>
		<polygon class="st3" points="564.3,554.5 571,564.7 565.5,575.2 553.2,575.7 546.8,565.4 552.4,554.9 564.3,554.5 		"/>
	</g>
</g>
</svg>
