<?xml version="1.0" encoding="utf-8"?>
<!-- Generator: Adobe Illustrator 19.2.0, SVG Export Plug-In . SVG Version: 6.00 Build 0)  -->
<svg version="1.1" id="Livello_1" xmlns="http://www.w3.org/2000/svg" xmlns:xlink="http://www.w3.org/1999/xlink" x="0px" y="0px"
	 viewBox="0 0 960 960" style="enable-background:new 0 0 960 960;" xml:space="preserve">
<style type="text/css">
	.st0{fill-rule:evenodd;clip-rule:evenodd;fill:#FFFFFF;stroke:#1A171B;stroke-width:1.3397;stroke-miterlimit:2.6131;}
	.st1{fill-rule:evenodd;clip-rule:evenodd;fill:#E1001A;}
	.st2{fill-rule:evenodd;clip-rule:evenodd;fill:#FFFFFF;stroke:#E1001A;stroke-width:4.4658;stroke-miterlimit:2.6131;}
	.st3{fill-rule:evenodd;clip-rule:evenodd;fill:#1A171B;stroke:#1A171B;stroke-width:1.3397;stroke-miterlimit:2.6131;}
</style>
<g>
	<g>
		<path class="st0" d="M769.3,776.6c31.1-1.3,49.8-24.6,44.9-55.5l-1.1-4.7l-1.8-5.1l-2.2-4.9L523.4,210.8
			c-14.4-22-34.6-34.6-60.9-23.5c-10,5.5-17.3,13.3-23.1,22.7l-285.2,494c-10.4,19.5-14.4,40,1.5,58c12.6,13.3,28.2,14.7,45.8,14.7
			l561-0.2H769.3L769.3,776.6z"/>
		<path class="st1" d="M762.4,762.3c8.7-0.2,17.3,0.9,26.4-5.8c9.1-6.7,17.5-23.8,7.6-43.5L511,218.2c-16-28-44.2-27.3-59.5-0.7
			L166.7,711.2c-6,10.5-11.1,25.5-4.2,36.6c9.1,14.5,23.5,14.5,38.9,14.7L762.4,762.3L762.4,762.3z"/>
		<polygon class="st2" points="724.4,704.2 480.8,282.8 237.8,704.2 724.4,704.2 		"/>
		<polygon class="st3" points="698.8,689.7 489.2,321.8 477.3,348.5 491.1,375.6 466.2,420.1 490.7,463.7 464.6,507.9 502.6,575.9 
			466.3,641.7 429.5,641.7 407.4,678.2 268,678.2 260.7,689.7 698.8,689.7 		"/>
		<polygon class="st3" points="346.4,563.9 336,583.2 345.6,602.3 368.5,602.5 379.2,583.9 367.2,564.6 346.4,563.9 		"/>
		<polygon class="st3" points="425.4,531.4 421,538.6 425.1,545.8 433.7,545.9 437.9,538.5 433.7,531.3 425.4,531.4 		"/>
		<polygon class="st3" points="448.4,372.8 443.4,381.1 448.1,389.2 457.8,389.3 462.6,381 457.9,372.8 448.4,372.8 		"/>
		<polygon class="st3" points="397.5,474.2 388.5,493.5 396.8,512.6 421.1,512.7 432.1,493.1 421,474 397.5,474.2 		"/>
		<polygon class="st3" points="443.6,451.6 436.7,462.1 442.3,472.9 455,473.4 461.6,462.8 455.8,452 443.6,451.6 		"/>
		<polygon class="st3" points="394.5,554.1 387.7,564.2 393.3,574.8 405.6,575.3 412,565 406.4,554.4 394.5,554.1 		"/>
	</g>
</g>
</svg>
