<?xml version="1.0" encoding="utf-8"?>
<!-- Generator: Adobe Illustrator 19.2.0, SVG Export Plug-In . SVG Version: 6.00 Build 0)  -->
<svg version="1.1" id="Livello_1" xmlns="http://www.w3.org/2000/svg" xmlns:xlink="http://www.w3.org/1999/xlink" x="0px" y="0px"
	 viewBox="0 0 960 960" style="enable-background:new 0 0 960 960;" xml:space="preserve">
<style type="text/css">
	.st0{fill-rule:evenodd;clip-rule:evenodd;fill:#FFFFFF;stroke:#1A171B;stroke-width:1.3397;stroke-miterlimit:2.6131;}
	.st1{fill-rule:evenodd;clip-rule:evenodd;fill:#E1001A;}
	.st2{fill-rule:evenodd;clip-rule:evenodd;fill:#FFFFFF;stroke:#E1001A;stroke-width:4.4658;stroke-miterlimit:2.6131;}
	.st3{fill-rule:evenodd;clip-rule:evenodd;fill:#1A171B;stroke:#1A171B;stroke-width:1.3397;stroke-miterlimit:2.6131;}
</style>
<g>
	<g>
		<path class="st0" d="M769.3,776.6c31.1-1.3,49.8-24.6,44.9-55.5l-1.1-4.7l-1.8-5.1l-2.2-4.9L523.4,210.8
			c-14.4-22-34.6-34.6-60.9-23.5c-10,5.5-17.3,13.3-23.1,22.7l-285.2,494c-10.4,19.5-14.4,40,1.5,58c12.6,13.3,28.2,14.7,45.8,14.7
			l561-0.2H769.3L769.3,776.6z"/>
		<path class="st1" d="M762.4,762.3c8.7-0.2,17.3,0.9,26.4-5.8c9.1-6.7,17.5-23.8,7.6-43.5L511,218.2c-16-28-44.2-27.3-59.5-0.7
			L166.7,711.2c-6,10.5-11.1,25.5-4.2,36.6c9.1,14.5,23.5,14.5,38.9,14.7L762.4,762.3L762.4,762.3z"/>
		<polygon class="st2" points="724.4,704.2 480.8,282.8 237.8,704.2 724.4,704.2 		"/>
		<path class="st3" d="M391.1,674.4V494.8c0-10,16-10,16,0v179.6H391.1L391.1,674.4z"/>
		<path class="st3" d="M614.1,644.6l-21.3-10c18.8-1.6,30.5-17.8,22.3-37l18.2,15.3C641.5,629.2,625.8,646.6,614.1,644.6
			L614.1,644.6z"/>
		<path class="st3" d="M560.8,620.2l-31.7-14.5c24.5-5.3,37.2-28,30.9-52l27.2,22.1C592.9,597.5,581.8,616.3,560.8,620.2
			L560.8,620.2z"/>
		<path class="st3" d="M490.7,589.4L441,566.8c37.2-0.8,60.3-48.3,44.4-74.4l42.9,34.4C536.9,559.5,519.1,581.8,490.7,589.4
			L490.7,589.4z"/>
		<path class="st3" d="M426.2,559.6l-11-63.9l56.9-12.1c4.2-0.8,4.8,5.3,1.8,6.2l-50.9,11l9.9,57.5
			C433.9,562.6,427.6,563.8,426.2,559.6L426.2,559.6z"/>
	</g>
</g>
</svg>
