<?xml version="1.0" encoding="utf-8"?>
<!-- Generator: Adobe Illustrator 19.2.0, SVG Export Plug-In . SVG Version: 6.00 Build 0)  -->
<svg version="1.1" id="Livello_1" xmlns="http://www.w3.org/2000/svg" xmlns:xlink="http://www.w3.org/1999/xlink" x="0px" y="0px"
	 viewBox="0 0 960 960" style="enable-background:new 0 0 960 960;" xml:space="preserve">
<style type="text/css">
	.st0{fill:#FFFFFF;stroke:#1A171B;stroke-width:1.3397;stroke-miterlimit:2.6131;}
	.st1{fill:#E1001A;}
	.st2{fill:#FFFFFF;stroke:#E1001A;stroke-width:4.4658;stroke-miterlimit:2.6131;}
	.st3{fill:#E1001A;stroke:#1A171B;stroke-width:0.4466;stroke-miterlimit:2.6131;}
	.st4{fill:#FFEC00;stroke:#1A171B;stroke-width:0.4466;stroke-miterlimit:2.6131;}
	.st5{fill:#1A171B;stroke:#1A171B;stroke-width:0.4466;stroke-miterlimit:2.6131;}
	.st6{fill:#FFFFFF;stroke:#1A171B;stroke-width:0.4466;stroke-miterlimit:2.6131;}
</style>
<g>
	<g>
		<path class="st0" d="M769.3,776.6c31.1-1.3,49.8-24.6,44.9-55.5l-1.1-4.7l-1.8-5.1l-2.2-4.9L523.4,210.8
			c-14.4-22-34.6-34.6-60.9-23.5c-10,5.5-17.3,13.3-23.1,22.7L154.2,704c-10.4,19.5-14.4,40,1.5,58c12.6,13.3,28.2,14.7,45.8,14.7
			l561-0.2L769.3,776.6L769.3,776.6z"/>
		<path class="st1" d="M762.4,762.3c8.7-0.2,17.3,0.9,26.4-5.8c9.1-6.7,17.5-23.8,7.6-43.5L511,218.2c-16-28-44.2-27.3-59.5-0.7
			L166.7,711.2c-6,10.5-11.1,25.5-4.2,36.6c9.1,14.5,23.5,14.5,38.9,14.7L762.4,762.3L762.4,762.3z"/>
		<polygon class="st2" points="724.4,704.2 480.8,282.8 237.8,704.2 		"/>
		<path class="st3" d="M526.2,677.5l-2.6-9l-93-46.8c4.7-6.6-4.3-17.3-10.3-24.8v-2.8l-1.7-2.8c1.7-1.7-2.3-6.8-0.8-11.3
			c7.1,8.1,11.5,14.8,23.9,19.3c1.9-2.6,4.9-5.3,3.9-13.5c4.3,2.6,3.2,5.5,6.2,9.8c0.2,4.9,1.1,10.5,6.8,15.4
			c4.1-12.6,4.9-19.3,4.5-25.7c-2.3-12-1.1-9.2,3.9-12.2c2.4-8.3,1.9-12,0-21.4c11.3,6,9.4,16.9,16.5,21.4c1.7,0,7.3-7.1,10.1-7.1
			c-0.4,7.7-1.5,13.7,1.7,23.7c4.5,1.7,3.8-2.1,8.1-5.3c0.8,9.4,2.6,23.5,3.8,26.5c4.3,6.6,3,11.5,6,13c3.4-2.8,1.9-3.9,9.4-12.2
			c1.7-7.5,1.9-15.8-2.3-26.1c-1.3-6.4-3.4-10.1-6.4-16.2c11.6,4.7,13.3,10.3,21.4,16.9l7.1-6.6c-0.4,6,0.4,10,0.4,14.5
			c1.3,4.3,0.2,6.4,6.2,9.4l9.8-5.6c-0.8,15,0.4,25.7,4.7,37.8c3,8.1,3.6,22.2-7.3,28.2c-3.2,7.3-3.9,11.1-9.2,13.7
			C542,680.9,531.3,687.1,526.2,677.5L526.2,677.5z"/>
		<path class="st4" d="M526.7,665.3l-1.5-4.9c-2.3-1.9-6.6-4.1-10.7-2.3c-3-3.2-2.6-14.8-0.6-20.8c1.9-9.8,13.5-11.1,14.3-29.1
			c9.6,12.4,14.5,24.2,14.5,40c-0.4,7.3-3.6,12.6-8.8,17.1H526.7L526.7,665.3z"/>
		<path class="st5" d="M485.1,567.6c-3.8-1.1-6.4-14.5-12.2-17.7l-0.4-57.9l-3.6-8.8c-0.6-4.1-14.5,0.9-23.3-5.1
			c-22.9-6.2-22.4-3.8-21-16.3c-11.6-0.4-22.5-4.3-20.1-12.6c0-6.6,9.4-19.5,13.9-24.2c4.3-1.7,7.9,0.2,11.5-2.1
			c-8.1-23.3,47.5-5.8,63.3,1.9c11.8-13,16.9-9.2,24.2-7.1l3.9,3c7.3-1.5,20.8,2.3,24.2,10c8.8,5.3,9,7.9,9,17.3l-4.3,5.6
			c0.9,7.5-0.2,13.3-5.3,17.3c-5.1,3.9-23.1,8.3-32.5,8.3c-9.2,0.6-25,6-27.4,18.8L485.1,567.6L485.1,567.6z"/>
		<path class="st6" d="M477.5,488.2l-4.1-9.2c2.4-0.2,6-3.9,6-3C479.4,482.3,479.4,488.2,477.5,488.2L477.5,488.2z"/>
		<path class="st6" d="M487.6,483.6c-2-3.7-0.8-6.5-1.1-9.6c1.9-0.9,1.5-3.3,5.7-2.6c3.2,2,3.9,3.9,2,6.8
			C492,479.9,489.8,481.7,487.6,483.6L487.6,483.6z"/>
		<path class="st6" d="M398.1,601.1l125,62.1c1.5,0.8,2.2,2.5,1.5,3.9l-1,1.9c-0.7,1.4-2.5,1.9-4.1,1.1l-125-62
			c-1.5-0.8-2.2-2.5-1.5-3.9l1-1.9C394.7,600.8,396.5,600.3,398.1,601.1L398.1,601.1z"/>
		<path class="st5" d="M523,659.2c4.8,2.3,9.6,6.6,7.2,11.4c-2.4,4.8-8.7,4.3-13.5,1.8c-3.7-2.4-4.5-5.1-6.6-8.7
			c0.9-1.6,1.4-2.7,2.2-4.4C512.3,659.4,518.4,656.9,523,659.2L523,659.2z"/>
		<path class="st6" d="M482.9,469.1c-1-2.2,0.1-5.6,2.5-4.3c0,1,1.9,1.9,1.9,2.5C486.3,467.3,482.4,470,482.9,469.1L482.9,469.1z"/>
		<path class="st3" d="M389.4,645.8c12.3,0.5,23.2,1.6,37.1,1.8l45.2-0.3L428.8,625c-2.2,1.4-3,3.7-5.1,5c-2.3-1-3.2-2.6-5.4-3.6
			c-3.5-5-2.9-8.7-4.1-17c-3.7,4.8-5,11.4-4.1,21.7c-1.2,1.1-2.5,3-3.7,4.1c-7.2-0.9-5.6-1.8-10.6-6l-0.4,8.8L389.4,645.8
			L389.4,645.8z"/>
	</g>
</g>
</svg>
