<?xml version="1.0" encoding="utf-8"?>
<!-- Generator: Adobe Illustrator 19.2.0, SVG Export Plug-In . SVG Version: 6.00 Build 0)  -->
<svg version="1.1" id="Livello_1" xmlns="http://www.w3.org/2000/svg" xmlns:xlink="http://www.w3.org/1999/xlink" x="0px" y="0px"
	 viewBox="0 0 960 960" style="enable-background:new 0 0 960 960;" xml:space="preserve">
<style type="text/css">
	.st0{fill:#FFFFFF;stroke:#1A171B;stroke-width:1.3397;stroke-miterlimit:2.6131;}
	.st1{fill:#E1001A;}
	.st2{fill:#FFFFFF;stroke:#E1001A;stroke-width:4.4658;stroke-miterlimit:2.6131;}
	.st3{fill:#E1001A;stroke:#1A171B;stroke-width:0.4466;stroke-miterlimit:2.6131;}
	.st4{fill:#FFEC00;stroke:#1A171B;stroke-width:0.4466;stroke-miterlimit:2.6131;}
	.st5{fill:#1A171B;stroke:#1A171B;stroke-width:0.4466;stroke-miterlimit:2.6131;}
	.st6{fill:#FFFFFF;stroke:#1A171B;stroke-width:0.4466;stroke-miterlimit:2.6131;}
	.st7{fill:#FFFFFF;stroke:#1A171B;stroke-width:1.1837;stroke-miterlimit:2.6131;}
	.st8{fill:none;stroke:#1A171B;stroke-width:7.8916;stroke-miterlimit:2.6131;}
	.st9{fill-rule:evenodd;clip-rule:evenodd;fill:#1A171B;}
</style>
<g>
	<g>
		<path class="st0" d="M769.3,613.9c31.1-1.3,49.8-24.6,44.9-55.5l-1.1-4.7l-1.8-5.1l-2.2-4.9L523.4,48.1
			c-14.4-22-34.6-34.6-60.9-23.5c-10,5.5-17.3,13.3-23.1,22.7l-285.2,494c-10.4,19.5-14.4,40,1.5,58c12.6,13.3,28.2,14.7,45.8,14.7
			l561-0.2L769.3,613.9L769.3,613.9z"/>
		<path class="st1" d="M762.4,599.6c8.7-0.2,17.3,0.9,26.4-5.8c9.1-6.7,17.5-23.8,7.6-43.5L511,55.5c-16-28-44.2-27.3-59.5-0.7
			L166.7,548.5c-6,10.5-11.1,25.5-4.2,36.6c9.1,14.5,23.5,14.5,38.9,14.7L762.4,599.6L762.4,599.6z"/>
		<polygon class="st2" points="724.4,541.5 480.8,120.1 237.8,541.5 		"/>
		<path class="st3" d="M526.2,514.8l-2.6-9l-93-46.8c4.7-6.6-4.3-17.3-10.3-24.8v-2.8l-1.7-2.8c1.7-1.7-2.3-6.8-0.8-11.3
			c7.1,8.1,11.5,14.8,23.9,19.3c1.9-2.6,4.9-5.3,3.9-13.5c4.3,2.6,3.2,5.5,6.2,9.8c0.2,4.9,1.1,10.5,6.8,15.4
			c4.1-12.6,4.9-19.3,4.5-25.7c-2.3-12-1.1-9.2,3.9-12.2c2.4-8.3,1.9-12,0-21.4c11.3,6,9.4,16.9,16.5,21.4c1.7,0,7.3-7.1,10.1-7.1
			c-0.4,7.7-1.5,13.7,1.7,23.7c4.5,1.7,3.8-2.1,8.1-5.3c0.8,9.4,2.6,23.5,3.8,26.5c4.3,6.6,3,11.5,6,13c3.4-2.8,1.9-3.9,9.4-12.2
			c1.7-7.5,1.9-15.8-2.3-26.1c-1.3-6.4-3.4-10.1-6.4-16.2c11.6,4.7,13.3,10.3,21.4,16.9l7.1-6.6c-0.4,6,0.4,10,0.4,14.5
			c1.3,4.3,0.2,6.4,6.2,9.4l9.8-5.6c-0.8,15,0.4,25.7,4.7,37.8c3,8.1,3.6,22.2-7.3,28.2c-3.2,7.3-3.9,11.1-9.2,13.7
			C542,518.2,531.3,524.4,526.2,514.8L526.2,514.8z"/>
		<path class="st4" d="M526.7,502.6l-1.5-4.9c-2.3-1.9-6.6-4.1-10.7-2.3c-3-3.2-2.6-14.8-0.6-20.8c1.9-9.8,13.5-11.1,14.3-29.1
			c9.6,12.4,14.5,24.2,14.5,40c-0.4,7.3-3.6,12.6-8.8,17.1H526.7L526.7,502.6z"/>
		<path class="st5" d="M485.1,404.9c-3.8-1.1-6.4-14.5-12.2-17.7l-0.4-57.9l-3.6-8.8c-0.6-4.1-14.5,0.9-23.3-5.1
			c-22.9-6.2-22.4-3.8-21-16.3c-11.6-0.4-22.5-4.3-20.1-12.6c0-6.6,9.4-19.5,13.9-24.2c4.3-1.7,7.9,0.2,11.5-2.1
			c-8.1-23.3,47.5-5.8,63.3,1.9c11.8-13,16.9-9.2,24.2-7.1l3.9,3c7.3-1.5,20.8,2.3,24.2,10c8.8,5.3,9,7.9,9,17.3l-4.3,5.6
			c0.9,7.5-0.2,13.3-5.3,17.3c-5.1,3.9-23.1,8.3-32.5,8.3c-9.2,0.6-25,6-27.4,18.8L485.1,404.9L485.1,404.9z"/>
		<path class="st6" d="M477.5,325.5l-4.1-9.2c2.4-0.2,6-3.9,6-3C479.4,319.6,479.4,325.5,477.5,325.5L477.5,325.5z"/>
		<path class="st6" d="M487.6,320.9c-2-3.7-0.8-6.5-1.1-9.6c1.9-0.9,1.5-3.3,5.7-2.6c3.2,2,3.9,3.9,2,6.8
			C492,317.2,489.8,319,487.6,320.9L487.6,320.9z"/>
		<path class="st6" d="M398.1,438.4l125,62.1c1.5,0.8,2.2,2.5,1.5,3.9l-1,1.9c-0.7,1.4-2.5,1.9-4.1,1.1l-125-62
			c-1.5-0.8-2.2-2.5-1.5-3.9l1-1.9C394.7,438.1,396.5,437.6,398.1,438.4L398.1,438.4z"/>
		<path class="st5" d="M523,496.5c4.8,2.3,9.6,6.6,7.2,11.4c-2.4,4.8-8.7,4.3-13.5,1.8c-3.7-2.4-4.5-5.1-6.6-8.7
			c0.9-1.6,1.4-2.7,2.2-4.4C512.3,496.7,518.4,494.2,523,496.5L523,496.5z"/>
		<path class="st6" d="M482.9,306.4c-1-2.2,0.1-5.6,2.5-4.3c0,1,1.9,1.9,1.9,2.5C486.3,304.6,482.4,307.3,482.9,306.4L482.9,306.4z"
			/>
		<path class="st3" d="M389.4,483.1c12.3,0.5,23.2,1.6,37.1,1.8l45.2-0.3l-42.9-22.3c-2.2,1.4-3,3.7-5.1,5c-2.3-1-3.2-2.6-5.4-3.6
			c-3.5-5-2.9-8.7-4.1-17c-3.7,4.8-5,11.4-4.1,21.7c-1.2,1.1-2.5,3-3.7,4.1c-7.2-0.9-5.6-1.8-10.6-6l-0.4,8.8L389.4,483.1
			L389.4,483.1z"/>
	</g>
</g>
<polygon class="st7" points="171.7,719 771.7,719 771.7,946 171.7,946 171.7,719 "/>
<path class="st8" d="M217.6,735.3h508.1c16.3,0,29.7,13.3,29.7,29.7v135.3c0,16.3-13.3,29.7-29.7,29.7H217.6
	c-16.3,0-29.7-13.3-29.7-29.7V764.9C188,748.6,201.3,735.3,217.6,735.3L217.6,735.3z"/>
<path class="st9" d="M410.1,880.6c-1.3-0.4-2.4-1.3-3.2-2.5c-0.8-1.2-1.2-2.7-1.2-4.4c0-2.2,0.8-4.2,2.3-5.8
	c1.5-1.6,3.4-2.4,5.6-2.4c2.5,0,4.6,0.9,6.1,2.6c1.5,1.8,2.3,4.1,2.3,7.2c0,4.7-1.6,8.9-4.7,12.5c-3.1,3.6-7.1,5.8-12,6.6v-2.7
	c1.6-1.8,2.8-3.6,3.6-5.3c0.8-1.7,1.2-3.5,1.2-5.3V880.6L410.1,880.6z"/>
<path class="st9" d="M393.1,863.9v17.2h-56.6c0.2-6.6,2.4-12.5,5.2-18.5c2.8-5.5,9.2-13.6,18-23.4c6.9-7.4,11.9-12.9,13.1-15.9
	c2.1-3.4,3.5-7.6,3.5-11.2c0-4-1-7.4-2.6-9.3c-2.1-2.5-5-3.6-8.6-3.6c-3.1,0-5.9,1.1-7.6,3.2c-2.2,2.3-3.5,6.6-3.5,11.3l-16.1-1.5
	c0.7-9.8,3.8-17.4,8.6-21.7c5-4.2,11.6-6.8,19.3-6.8c8.3,0,15,3,19.9,7.6c5,5.3,7.4,12.3,7.4,19.5c0,4-0.9,8.7-2.1,12.5
	c-1.4,4.2-4,8.5-6.7,12.7c-1.7,2.3-5.5,6.8-10.5,12.1c-5.2,5.3-8.8,8.9-10,10.6c-1.6,1.7-2.9,3.4-3.6,5.1H393.1L393.1,863.9z"/>
<path class="st9" d="M556.3,834.1h12.2v6.4c4.1-4.9,9.3-7.5,15-7.5c3.2,0,5.9,0.7,8.1,1.8c2.4,1.3,4.3,3.3,5.7,5.7
	c2-2.4,4.5-4.4,6.9-5.5c2.4-1.3,5.3-2,8.1-2c3.5,0,6.7,0.7,9.1,2c2.4,1.5,4.5,3.6,5.7,6.2c0.8,1.8,1.4,5.1,1.4,9.5v29.3h-13V854
	c0-4.4-0.6-7.5-1.4-8.7c-1.2-1.8-3.2-2.7-5.5-2.7c-1.8,0-3.5,0.5-5.1,1.6c-1.6,1.1-3,2.7-3.5,4.6c-0.6,1.8-1,5.1-1,9.5v21.9h-13v-25
	c0-4.4-0.2-7.5-0.6-8.6c-0.4-1.3-1.4-2.4-2.2-2.9c-1-0.7-2.6-1.1-4.1-1.1c-2,0-3.8,0.5-5.3,1.5c-1.6,1.1-2.8,2.6-3.4,4.4
	c-0.6,1.8-1,5.1-1,9.5v22.2h-13V834.1L556.3,834.1z"/>
<polygon class="st9" points="504.2,880.1 504.2,816.6 517.2,816.6 517.2,850.4 532.8,834.1 549,834.1 531.6,851.1 549.7,880.1 
	535.9,880.1 523.1,859.5 517.2,865.5 517.2,880.1 504.2,880.1 "/>
<path class="st9" d="M471.6,850.8c-1.8-2.6-4.6-4.9-8-6.2c2.7-1.1,5.1-3.2,6.6-5.4c1.5-2.3,2.2-5.1,2.2-8.1c0-4.9-1.8-9.2-5.1-12.4
	c-3.3-3-8-4.7-13.9-4.7c-6,0-10.8,1.7-14.1,4.9c-3.3,3-4.9,7.3-4.9,12.2c0,2.6,0.7,5.4,2.2,7.9c1.3,2.3,3.6,4.3,6.9,5.4v0.2
	c-3.6,1.5-6.4,3.9-8,6.9c-1.6,2.8-2.6,6.2-2.6,9.6c0,6.4,2.4,11.5,6.8,15.2c3.6,3,8.6,4.5,14.2,4.5c6.2,0,11.3-1.9,15-5.6
	c3.6-3.8,5.7-8.6,5.7-14.7C474.5,857,473.4,853.7,471.6,850.8z M448.1,826.2c1.3-1.5,3.3-2.3,5.5-2.3c2.2,0,4,0.8,5.5,2.3
	c1.3,1.5,2,3.6,2,5.8c0,2.4-0.7,4.5-2.2,6c-1.3,1.3-3.3,2.1-5.5,2.1c-2.2,0-4-0.8-5.3-2.1c-1.3-1.3-2-3.4-2-6
	C446.1,829.8,446.8,827.7,448.1,826.2z M459.9,868.5c-1.5,1.9-3.6,2.8-6.2,2.8c-2.6,0-4.7-1.1-6.4-3c-1.4-1.9-2.4-4.6-2.4-8.2
	c0,0,0,0.1,0,0.1V860c0,0,0,0.1,0,0.1c0-2.4,0.7-4.8,2.2-7.1c1.3-2.1,3.5-3.2,6.4-3.2c2.6,0,4.7,1.1,6.4,3c1.6,1.9,2.6,4.5,2.6,7.5
	C462.5,863.8,461.6,866.6,459.9,868.5z"/>
<polygon class="st9" points="681.1,878.4 681.1,818.7 661.1,818.7 691,770.1 723.3,818.7 700.8,818.7 700.8,878.4 681.1,878.4 "/>
<polygon class="st9" points="243.2,881.1 243.2,821.4 223.2,821.4 253.1,772.8 285.4,821.4 262.9,821.4 262.9,881.1 243.2,881.1 "/>
</svg>
