<?xml version="1.0" encoding="utf-8"?>
<!-- Generator: Adobe Illustrator 19.2.0, SVG Export Plug-In . SVG Version: 6.00 Build 0)  -->
<svg version="1.1" id="Livello_2" xmlns="http://www.w3.org/2000/svg" xmlns:xlink="http://www.w3.org/1999/xlink" x="0px" y="0px"
	 viewBox="0 0 960 960" style="enable-background:new 0 0 960 960;" xml:space="preserve">
<style type="text/css">
	.st0{fill-rule:evenodd;clip-rule:evenodd;fill:#C5C6C8;}
	.st1{fill:none;stroke:#1A171B;stroke-width:1.1024;stroke-miterlimit:2.6131;}
	.st2{fill-rule:evenodd;clip-rule:evenodd;fill:#9B9C9E;}
	.st3{fill-rule:evenodd;clip-rule:evenodd;fill:#FFFFFF;}
	.st4{fill-rule:evenodd;clip-rule:evenodd;fill:#1A171B;}
	.st5{display:none;}
	.st6{display:inline;}
	.st7{font-family:'ArialMT';}
	.st8{font-size:61.2551px;}
	.st9{fill-rule:evenodd;clip-rule:evenodd;fill:#FFFFFF;stroke:#1A171B;stroke-width:0.2714;stroke-miterlimit:2.6131;}
	.st10{fill-rule:evenodd;clip-rule:evenodd;fill:#E1001A;}
	.st11{fill-rule:evenodd;clip-rule:evenodd;fill:#FFFFFF;stroke:#E1001A;stroke-width:0.9047;stroke-miterlimit:2.6131;}
	.st12{fill-rule:evenodd;clip-rule:evenodd;fill:#FFFFFF;stroke:#1A171B;stroke-width:0.642;stroke-miterlimit:2.6131;}
	.st13{fill-rule:evenodd;clip-rule:evenodd;fill:#FFFFFF;stroke:#E1001A;stroke-width:2.1399;stroke-miterlimit:2.6131;}
	.st14{fill:#FFFFFF;stroke:#1A171B;stroke-width:0.642;stroke-miterlimit:2.6131;}
	.st15{fill:none;stroke:#1A171B;stroke-width:4.2799;stroke-miterlimit:2.6131;}
	.st16{fill-rule:evenodd;clip-rule:evenodd;fill:#FFFFFF;stroke:#1A171B;stroke-width:0.2707;stroke-miterlimit:2.6131;}
	.st17{fill-rule:evenodd;clip-rule:evenodd;fill:#FFFFFF;stroke:#E1001A;stroke-width:0.9022;stroke-miterlimit:2.6131;}
	.st18{fill:#FFFFFF;stroke:#1A171B;stroke-width:0.2707;stroke-miterlimit:2.6131;}
	.st19{fill:none;stroke:#1A171B;stroke-width:1.8045;stroke-miterlimit:2.6131;}
	.st20{fill:none;stroke:#000000;stroke-width:5;stroke-miterlimit:10;}
</style>
<polygon class="st0" points="180.1,249 180.1,249 240.7,249 240.7,748.8 716.6,748.8 716.6,249 777.2,249 777.2,4.7 180.1,4.7 
	180.1,249 180.1,249 180.1,249 "/>
<polygon class="st0" points="180.1,249 240.7,249 180.1,249 180.1,249 180.1,249 "/>
<path class="st1" d="M180.1,249L180.1,249h60.6v499.8h475.9V249h60.6V4.7H180.1V249 M180.1,249h60.6H180.1"/>
<polygon class="st2" points="626.6,4.7 626.6,4.3 180.1,4.3 180.1,164.2 277.5,164.2 296.6,167.8 305,171.9 312.4,177.4 
	317.9,184.7 321.6,193.9 325.3,213.4 325.3,748.8 330.8,748.8 632.1,748.8 632.1,213.8 632.1,203.1 634.6,193.9 639.4,184.7 
	645,178.5 652.3,171.9 659.7,167.8 669.2,164.5 679.9,164.2 777.2,164.2 777.2,4.7 626.6,4.7 626.6,4.7 626.6,4.7 "/>
<polygon class="st3" points="281.2,159 281.2,159 299.5,162.7 316.1,173.3 321.6,180.7 326,188.4 330.8,208.3 338.1,208.6 
	336.6,196.9 333.3,186.2 327.8,175.5 321.6,167.8 312.4,160.8 303.2,155.3 292.2,151.7 281.2,151.3 281.2,155 281.9,158.7 
	281.2,159 281.2,155.3 281.9,159 281.2,159 281.2,159 281.2,159 "/>
<polygon class="st3" points="330.8,748.8 338.1,748.8 338.1,208.6 330.8,208.6 330.8,748.8 330.8,748.8 330.8,748.8 "/>
<polygon class="st3" points="281.2,155 281.2,151.3 281.2,150.9 281.2,155 281.2,155 281.2,155 "/>
<polygon class="st3" points="281.2,159 281.2,155.3 281.2,150.9 180.1,150.9 180.1,159 281.2,159 281.2,159 280,159 281.2,159 
	281.2,159 281.2,159 "/>
<polygon class="st3" points="626.6,748.8 618.1,748.8 618.1,208.6 626.6,208.6 626.6,748.8 626.6,748.8 626.6,748.8 "/>
<polygon class="st3" points="674.7,159 676.2,150.9 777.2,150.9 777.2,159 674.7,159 674.7,159 674.7,159 "/>
<polygon class="st3" points="678,158.7 676.2,150.9 665.2,151.7 654.1,155.3 643.8,160.5 635.8,167.8 628.4,175.5 623.3,185.9 
	620,195.8 619.2,208.3 626.6,208.6 628.4,197.6 630.6,188.4 635.8,180.7 641.6,173.7 657.8,162.7 678,158.7 678,158.7 678,158.7 "/>
<polygon class="st3" points="473,190.2 483.3,190.2 483.3,520.6 473,520.6 473,190.2 473,190.2 473,190.2 "/>
<polygon class="st3" points="473,543 483.3,543 483.3,575.7 473,575.7 473,543 473,543 473,543 "/>
<polygon class="st3" points="473,654.4 483.3,654.4 483.3,686.3 473,686.3 473,654.4 473,654.4 473,654.4 "/>
<polygon class="st3" points="473,599.3 483.3,599.3 483.3,631.2 473,631.2 473,599.3 473,599.3 473,599.3 "/>
<polygon class="st3" points="473,709.5 483.3,709.5 483.3,741.5 473,741.5 473,709.5 473,709.5 473,709.5 "/>
<polygon class="st3" points="510.8,151.3 531.4,151.3 520.7,184.7 510.8,151.3 510.8,151.3 510.8,151.3 "/>
<polygon class="st3" points="575.1,151.3 596.1,151.3 586.2,184.7 575.1,151.3 575.1,151.3 575.1,151.3 "/>
<polygon class="st3" points="608.2,151.3 628.4,151.3 618.1,184.7 608.2,151.3 608.2,151.3 608.2,151.3 "/>
<polygon class="st3" points="477.8,151.3 498.7,151.3 488.8,184.7 477.8,151.3 477.8,151.3 477.8,151.3 "/>
<polygon class="st3" points="543.9,151.3 564.1,151.3 553.4,184.7 543.9,151.3 543.9,151.3 543.9,151.3 "/>
<polygon class="st3" points="551.3,404.5 551.3,441.2 582.8,298.6 551.3,298.6 551.3,327.7 568.1,327.7 551.3,404.5 551.3,404.5 
	551.3,404.5 "/>
<polygon class="st3" points="551.3,327.7 551.3,298.6 518.5,298.6 551.3,441.2 551.3,404.5 533.2,327.7 551.3,327.7 551.3,327.7 
	551.3,327.7 "/>
<polygon class="st4" points="648.6,213.8 693.4,213.8 695.3,212.3 695.3,210.5 693.4,207.9 648.6,207.9 646.8,208.6 646.8,210.5 
	646.8,212.3 648.6,213.8 648.6,213.8 648.6,213.8 "/>
<polygon class="st1" points="648.6,213.8 693.4,213.8 695.3,212.3 695.3,210.5 693.4,207.9 648.6,207.9 646.8,208.6 646.8,210.5 
	646.8,212.3 648.6,213.8 648.6,213.8 648.6,213.8 "/>
<polygon class="st4" points="671.4,199.4 668.8,199.4 667.7,202.4 668.8,204.9 671.4,204.9 672.9,204.9 674.4,202.4 671.4,199.4 
	671.4,199.4 671.4,199.4 "/>
<polygon class="st1" points="671.4,199.4 668.8,199.4 667.7,202.4 668.8,204.9 671.4,204.9 672.9,204.9 674.4,202.4 671.4,199.4 
	671.4,199.4 671.4,199.4 "/>
<text transform="matrix(1 0 0 1 239.2983 834.2236)" class="st5"><tspan x="0" y="0" class="st6 st7 st8">Dare precedenza</tspan><tspan x="-28.9" y="73.5" class="st6 st7 st8">e relativo preavviso</tspan></text>
<g>
	<path d="M287.1,844.7v-37h12.7c2.9,0,5.1,0.2,6.6,0.5c2.1,0.5,3.9,1.4,5.4,2.6c1.9,1.6,3.4,3.8,4.4,6.3c1,2.6,1.4,5.5,1.4,8.8
		c0,2.8-0.3,5.3-1,7.5c-0.7,2.2-1.5,4-2.5,5.4c-1,1.4-2.1,2.5-3.4,3.4c-1.2,0.8-2.7,1.4-4.4,1.9c-1.7,0.4-3.7,0.6-5.9,0.6H287.1z
		 M292,840.3h7.9c2.4,0,4.3-0.2,5.7-0.7c1.4-0.5,2.5-1.1,3.3-1.9c1.2-1.2,2.1-2.7,2.7-4.7c0.6-2,1-4.3,1-7.1c0-3.9-0.6-6.8-1.9-8.9
		c-1.3-2.1-2.8-3.5-4.6-4.2c-1.3-0.5-3.4-0.8-6.3-0.8H292V840.3z"/>
	<path d="M341.3,841.4c-1.7,1.4-3.3,2.4-4.9,3c-1.6,0.6-3.2,0.9-5,0.9c-2.9,0-5.2-0.7-6.8-2.2c-1.6-1.4-2.4-3.3-2.4-5.5
		c0-1.3,0.3-2.5,0.9-3.6c0.6-1.1,1.4-2,2.3-2.6c1-0.7,2.1-1.2,3.3-1.5c0.9-0.2,2.2-0.5,4-0.7c3.7-0.4,6.4-1,8.1-1.6c0-0.6,0-1,0-1.2
		c0-1.8-0.4-3.2-1.3-3.9c-1.2-1-2.9-1.5-5.2-1.5c-2.1,0-3.7,0.4-4.7,1.1c-1,0.7-1.8,2.1-2.3,4l-4.4-0.6c0.4-1.9,1.1-3.4,2-4.6
		c0.9-1.2,2.3-2.1,4-2.7s3.8-0.9,6.1-0.9c2.3,0,4.1,0.3,5.6,0.8c1.4,0.5,2.5,1.2,3.2,2c0.7,0.8,1.1,1.8,1.4,3.1
		c0.2,0.8,0.2,2.2,0.2,4.2v6.1c0,4.2,0.1,6.9,0.3,8c0.2,1.1,0.6,2.2,1.1,3.2h-4.7C341.7,843.7,341.4,842.6,341.3,841.4z
		 M340.9,831.3c-1.6,0.7-4.1,1.2-7.4,1.7c-1.9,0.3-3.2,0.6-4,0.9c-0.8,0.3-1.4,0.8-1.8,1.5c-0.4,0.6-0.6,1.4-0.6,2.2
		c0,1.2,0.5,2.2,1.4,3c0.9,0.8,2.3,1.2,4,1.2c1.7,0,3.3-0.4,4.7-1.1c1.4-0.8,2.4-1.8,3-3.1c0.5-1,0.7-2.5,0.7-4.5V831.3z"/>
	<path d="M352.4,844.7v-26.8h4.1v4.1c1-1.9,2-3.2,2.9-3.8c0.9-0.6,1.9-0.9,2.9-0.9c1.5,0,3.1,0.5,4.7,1.5l-1.6,4.2
		c-1.1-0.7-2.2-1-3.3-1c-1,0-1.9,0.3-2.7,0.9c-0.8,0.6-1.4,1.4-1.7,2.5c-0.5,1.6-0.8,3.4-0.8,5.3v14H352.4z"/>
	<path d="M388,836.1l4.7,0.6c-0.7,2.7-2.1,4.9-4.1,6.4c-2,1.5-4.6,2.3-7.7,2.3c-3.9,0-7-1.2-9.3-3.6c-2.3-2.4-3.4-5.8-3.4-10.1
		c0-4.5,1.2-8,3.5-10.5c2.3-2.5,5.3-3.7,9-3.7c3.6,0,6.5,1.2,8.8,3.7c2.3,2.4,3.4,5.9,3.4,10.3c0,0.3,0,0.7,0,1.2h-20
		c0.2,2.9,1,5.2,2.5,6.8c1.5,1.6,3.4,2.3,5.6,2.3c1.7,0,3.1-0.4,4.3-1.3C386.4,839.4,387.3,838,388,836.1z M373.1,828.7h14.9
		c-0.2-2.3-0.8-3.9-1.7-5.1c-1.4-1.7-3.3-2.6-5.6-2.6c-2.1,0-3.8,0.7-5.3,2.1C374.1,824.5,373.3,826.4,373.1,828.7z"/>
	<path d="M412.7,854.9v-37h4.1v3.5c1-1.4,2.1-2.4,3.3-3.1c1.2-0.7,2.7-1,4.5-1c2.3,0,4.3,0.6,6.1,1.8c1.7,1.2,3.1,2.8,4,5
		c0.9,2.1,1.3,4.5,1.3,7c0,2.7-0.5,5.2-1.5,7.4c-1,2.2-2.4,3.9-4.3,5c-1.9,1.2-3.8,1.8-5.9,1.8c-1.5,0-2.9-0.3-4.1-1
		c-1.2-0.6-2.2-1.4-3-2.4v13H412.7z M416.9,831.5c0,3.4,0.7,6,2.1,7.6c1.4,1.6,3.1,2.5,5.1,2.5c2,0,3.7-0.9,5.2-2.6
		c1.4-1.7,2.2-4.3,2.2-7.9c0-3.4-0.7-6-2.1-7.7c-1.4-1.7-3.1-2.5-5-2.5c-1.9,0-3.6,0.9-5.1,2.7C417.6,825.4,416.9,828,416.9,831.5z"
		/>
	<path d="M441.4,844.7v-26.8h4.1v4.1c1-1.9,2-3.2,2.9-3.8c0.9-0.6,1.9-0.9,2.9-0.9c1.5,0,3.1,0.5,4.7,1.5l-1.6,4.2
		c-1.1-0.7-2.2-1-3.3-1c-1,0-1.9,0.3-2.7,0.9c-0.8,0.6-1.4,1.4-1.7,2.5c-0.5,1.6-0.8,3.4-0.8,5.3v14H441.4z"/>
	<path d="M477,836.1l4.7,0.6c-0.7,2.7-2.1,4.9-4.1,6.4c-2,1.5-4.6,2.3-7.7,2.3c-3.9,0-7-1.2-9.3-3.6c-2.3-2.4-3.4-5.8-3.4-10.1
		c0-4.5,1.2-8,3.5-10.5c2.3-2.5,5.3-3.7,9-3.7c3.6,0,6.5,1.2,8.8,3.7c2.3,2.4,3.4,5.9,3.4,10.3c0,0.3,0,0.7,0,1.2h-20
		c0.2,2.9,1,5.2,2.5,6.8c1.5,1.6,3.4,2.3,5.6,2.3c1.7,0,3.1-0.4,4.3-1.3C475.4,839.4,476.3,838,477,836.1z M462.1,828.7H477
		c-0.2-2.3-0.8-3.9-1.7-5.1c-1.4-1.7-3.3-2.6-5.6-2.6c-2.1,0-3.8,0.7-5.3,2.1C463,824.5,462.2,826.4,462.1,828.7z"/>
	<path d="M504.8,834.9l4.5,0.6c-0.5,3.1-1.7,5.5-3.7,7.2c-2,1.7-4.5,2.6-7.4,2.6c-3.7,0-6.6-1.2-8.8-3.6c-2.2-2.4-3.3-5.8-3.3-10.3
		c0-2.9,0.5-5.4,1.4-7.6c1-2.2,2.4-3.8,4.4-4.9c2-1.1,4.1-1.6,6.4-1.6c2.9,0,5.3,0.7,7.1,2.2c1.8,1.5,3,3.6,3.6,6.3l-4.4,0.7
		c-0.4-1.8-1.2-3.2-2.2-4.1c-1.1-0.9-2.4-1.4-3.9-1.4c-2.3,0-4.1,0.8-5.6,2.5c-1.4,1.6-2.1,4.2-2.1,7.8c0,3.6,0.7,6.2,2.1,7.8
		c1.4,1.6,3.2,2.4,5.4,2.4c1.8,0,3.3-0.5,4.5-1.6C503.8,838.8,504.5,837.1,504.8,834.9z"/>
	<path d="M531.5,836.1l4.7,0.6c-0.7,2.7-2.1,4.9-4.1,6.4c-2,1.5-4.6,2.3-7.7,2.3c-3.9,0-7-1.2-9.3-3.6s-3.4-5.8-3.4-10.1
		c0-4.5,1.2-8,3.5-10.5c2.3-2.5,5.3-3.7,9-3.7c3.6,0,6.5,1.2,8.8,3.7c2.3,2.4,3.4,5.9,3.4,10.3c0,0.3,0,0.7,0,1.2h-20
		c0.2,2.9,1,5.2,2.5,6.8c1.5,1.6,3.4,2.3,5.6,2.3c1.7,0,3.1-0.4,4.3-1.3C529.9,839.4,530.8,838,531.5,836.1z M516.6,828.7h14.9
		c-0.2-2.3-0.8-3.9-1.7-5.1c-1.4-1.7-3.3-2.6-5.6-2.6c-2.1,0-3.8,0.7-5.3,2.1C517.5,824.5,516.8,826.4,516.6,828.7z"/>
	<path d="M559.3,844.7v-3.4c-1.7,2.7-4.2,4-7.5,4c-2.1,0-4.1-0.6-5.9-1.8c-1.8-1.2-3.2-2.8-4.2-4.9c-1-2.1-1.5-4.5-1.5-7.3
		c0-2.7,0.4-5.1,1.3-7.3c0.9-2.2,2.2-3.8,4-5c1.8-1.2,3.8-1.7,6-1.7c1.6,0,3.1,0.3,4.3,1c1.3,0.7,2.3,1.6,3.1,2.7v-13.3h4.5v37
		H559.3z M544.9,831.3c0,3.4,0.7,6,2.2,7.7c1.4,1.7,3.2,2.5,5.1,2.5c2,0,3.7-0.8,5.1-2.4c1.4-1.6,2.1-4.1,2.1-7.4
		c0-3.7-0.7-6.4-2.1-8.1c-1.4-1.7-3.2-2.6-5.2-2.6c-2,0-3.7,0.8-5.1,2.5C545.6,825.2,544.9,827.8,544.9,831.3z"/>
	<path d="M588.9,836.1l4.7,0.6c-0.7,2.7-2.1,4.9-4.1,6.4c-2,1.5-4.6,2.3-7.7,2.3c-3.9,0-7-1.2-9.3-3.6s-3.4-5.8-3.4-10.1
		c0-4.5,1.2-8,3.5-10.5c2.3-2.5,5.3-3.7,9-3.7c3.6,0,6.5,1.2,8.8,3.7c2.3,2.4,3.4,5.9,3.4,10.3c0,0.3,0,0.7,0,1.2h-20
		c0.2,2.9,1,5.2,2.5,6.8c1.5,1.6,3.4,2.3,5.6,2.3c1.7,0,3.1-0.4,4.3-1.3C587.3,839.4,588.2,838,588.9,836.1z M574,828.7H589
		c-0.2-2.3-0.8-3.9-1.7-5.1c-1.4-1.7-3.3-2.6-5.6-2.6c-2.1,0-3.8,0.7-5.3,2.1C575,824.5,574.2,826.4,574,828.7z"/>
	<path d="M599.3,844.7v-26.8h4.1v3.8c2-2.9,4.8-4.4,8.5-4.4c1.6,0,3.1,0.3,4.4,0.9c1.4,0.6,2.4,1.3,3,2.3c0.7,0.9,1.1,2.1,1.4,3.4
		c0.2,0.8,0.3,2.3,0.3,4.4v16.5h-4.5v-16.3c0-1.8-0.2-3.2-0.5-4.1c-0.4-0.9-1-1.6-1.9-2.2c-0.9-0.5-2-0.8-3.2-0.8
		c-1.9,0-3.6,0.6-5,1.8c-1.4,1.2-2.1,3.6-2.1,7v14.6H599.3z"/>
	<path d="M625.6,844.7V841l17-19.6c-1.9,0.1-3.6,0.2-5.1,0.2h-10.9v-3.7h21.9v3l-14.5,17l-2.8,3.1c2-0.2,3.9-0.2,5.7-0.2h12.4v3.9
		H625.6z"/>
	<path d="M671.3,841.4c-1.7,1.4-3.3,2.4-4.9,3c-1.6,0.6-3.2,0.9-5,0.9c-2.9,0-5.2-0.7-6.8-2.2c-1.6-1.4-2.4-3.3-2.4-5.5
		c0-1.3,0.3-2.5,0.9-3.6c0.6-1.1,1.4-2,2.3-2.6c1-0.7,2.1-1.2,3.3-1.5c0.9-0.2,2.2-0.5,4-0.7c3.7-0.4,6.4-1,8.1-1.6c0-0.6,0-1,0-1.2
		c0-1.8-0.4-3.2-1.3-3.9c-1.2-1-2.9-1.5-5.2-1.5c-2.1,0-3.7,0.4-4.7,1.1c-1,0.7-1.8,2.1-2.3,4l-4.4-0.6c0.4-1.9,1.1-3.4,2-4.6
		c0.9-1.2,2.3-2.1,4-2.7s3.8-0.9,6.1-0.9c2.3,0,4.1,0.3,5.6,0.8c1.4,0.5,2.5,1.2,3.2,2c0.7,0.8,1.1,1.8,1.4,3.1
		c0.2,0.8,0.2,2.2,0.2,4.2v6.1c0,4.2,0.1,6.9,0.3,8c0.2,1.1,0.6,2.2,1.1,3.2h-4.7C671.8,843.7,671.5,842.6,671.3,841.4z
		 M670.9,831.3c-1.6,0.7-4.1,1.2-7.4,1.7c-1.9,0.3-3.2,0.6-4,0.9s-1.4,0.8-1.8,1.5c-0.4,0.6-0.6,1.4-0.6,2.2c0,1.2,0.5,2.2,1.4,3
		c0.9,0.8,2.3,1.2,4,1.2c1.7,0,3.3-0.4,4.7-1.1c1.4-0.8,2.4-1.8,3-3.1c0.5-1,0.7-2.5,0.7-4.5V831.3z"/>
	<path d="M280.5,898l4.7,0.6c-0.7,2.7-2.1,4.9-4.1,6.4c-2,1.5-4.6,2.3-7.7,2.3c-3.9,0-7-1.2-9.3-3.6c-2.3-2.4-3.4-5.8-3.4-10.1
		c0-4.5,1.2-8,3.5-10.5c2.3-2.5,5.3-3.7,9-3.7c3.6,0,6.5,1.2,8.8,3.7c2.3,2.4,3.4,5.9,3.4,10.3c0,0.3,0,0.7,0,1.2h-20
		c0.2,2.9,1,5.2,2.5,6.8c1.5,1.6,3.4,2.3,5.6,2.3c1.7,0,3.1-0.4,4.3-1.3C278.8,901.3,279.8,899.9,280.5,898z M265.6,890.7h14.9
		c-0.2-2.3-0.8-3.9-1.7-5.1c-1.4-1.7-3.3-2.6-5.6-2.6c-2.1,0-3.8,0.7-5.3,2.1C266.5,886.5,265.7,888.3,265.6,890.7z"/>
	<path d="M305.1,906.6v-26.8h4.1v4.1c1-1.9,2-3.2,2.9-3.8c0.9-0.6,1.9-0.9,2.9-0.9c1.5,0,3.1,0.5,4.7,1.5l-1.6,4.2
		c-1.1-0.7-2.2-1-3.3-1c-1,0-1.9,0.3-2.7,0.9c-0.8,0.6-1.4,1.4-1.7,2.5c-0.5,1.6-0.8,3.4-0.8,5.3v14H305.1z"/>
	<path d="M340.7,898l4.7,0.6c-0.7,2.7-2.1,4.9-4.1,6.4c-2,1.5-4.6,2.3-7.7,2.3c-3.9,0-7-1.2-9.3-3.6c-2.3-2.4-3.4-5.8-3.4-10.1
		c0-4.5,1.2-8,3.5-10.5c2.3-2.5,5.3-3.7,9-3.7c3.6,0,6.5,1.2,8.8,3.7c2.3,2.4,3.4,5.9,3.4,10.3c0,0.3,0,0.7,0,1.2h-20
		c0.2,2.9,1,5.2,2.5,6.8c1.5,1.6,3.4,2.3,5.6,2.3c1.7,0,3.1-0.4,4.3-1.3C339.1,901.3,340,899.9,340.7,898z M325.8,890.7h14.9
		c-0.2-2.3-0.8-3.9-1.7-5.1c-1.4-1.7-3.3-2.6-5.6-2.6c-2.1,0-3.8,0.7-5.3,2.1C326.7,886.5,326,888.3,325.8,890.7z"/>
	<path d="M351,906.6v-37h4.5v37H351z"/>
	<path d="M380,903.3c-1.7,1.4-3.3,2.4-4.9,3c-1.6,0.6-3.2,0.9-5,0.9c-2.9,0-5.2-0.7-6.8-2.2c-1.6-1.4-2.4-3.3-2.4-5.5
		c0-1.3,0.3-2.5,0.9-3.6c0.6-1.1,1.4-2,2.3-2.6c1-0.7,2.1-1.2,3.3-1.5c0.9-0.2,2.2-0.5,4-0.7c3.7-0.4,6.4-1,8.1-1.6c0-0.6,0-1,0-1.2
		c0-1.8-0.4-3.2-1.3-3.9c-1.2-1-2.9-1.5-5.2-1.5c-2.1,0-3.7,0.4-4.7,1.1c-1,0.7-1.8,2.1-2.3,4l-4.4-0.6c0.4-1.9,1.1-3.4,2-4.6
		c0.9-1.2,2.3-2.1,4-2.7s3.8-0.9,6.1-0.9c2.3,0,4.1,0.3,5.6,0.8c1.4,0.5,2.5,1.2,3.2,2c0.7,0.8,1.1,1.8,1.4,3.1
		c0.2,0.8,0.2,2.2,0.2,4.2v6.1c0,4.2,0.1,6.9,0.3,8c0.2,1.1,0.6,2.2,1.1,3.2h-4.7C380.5,905.7,380.2,904.6,380,903.3z M379.7,893.2
		c-1.6,0.7-4.1,1.2-7.4,1.7c-1.9,0.3-3.2,0.6-4,0.9c-0.8,0.3-1.4,0.8-1.8,1.5c-0.4,0.6-0.6,1.4-0.6,2.2c0,1.2,0.5,2.2,1.4,3
		c0.9,0.8,2.3,1.2,4,1.2c1.7,0,3.3-0.4,4.7-1.1c1.4-0.8,2.4-1.8,3-3.1c0.5-1,0.7-2.5,0.7-4.5V893.2z"/>
	<path d="M401.2,902.6l0.7,4c-1.3,0.3-2.4,0.4-3.4,0.4c-1.6,0-2.9-0.3-3.8-0.8c-0.9-0.5-1.5-1.2-1.9-2.1s-0.6-2.6-0.6-5.4v-15.4
		h-3.3v-3.5h3.3v-6.6l4.5-2.7v9.4h4.6v3.5h-4.6v15.7c0,1.3,0.1,2.1,0.2,2.5c0.2,0.4,0.4,0.7,0.8,0.9c0.4,0.2,0.9,0.3,1.6,0.3
		C399.7,902.8,400.4,902.7,401.2,902.6z"/>
	<path d="M405.7,874.9v-5.2h4.5v5.2H405.7z M405.7,906.6v-26.8h4.5v26.8H405.7z"/>
	<path d="M424.5,906.6l-10.2-26.8h4.8l5.7,16c0.6,1.7,1.2,3.5,1.7,5.4c0.4-1.4,1-3.1,1.7-5.1l5.9-16.3h4.7l-10.1,26.8H424.5z"/>
	<path d="M441.2,893.3c0-5,1.4-8.6,4.1-11c2.3-2,5.1-3,8.4-3c3.7,0,6.7,1.2,9,3.6c2.3,2.4,3.5,5.7,3.5,10c0,3.4-0.5,6.2-1.6,8.1
		c-1,2-2.5,3.5-4.5,4.6c-2,1.1-4.1,1.6-6.5,1.6c-3.7,0-6.8-1.2-9.1-3.6C442.4,901.2,441.2,897.8,441.2,893.3z M445.9,893.3
		c0,3.4,0.7,6,2.2,7.7c1.5,1.7,3.4,2.6,5.6,2.6c2.3,0,4.1-0.9,5.6-2.6c1.5-1.7,2.2-4.3,2.2-7.8c0-3.3-0.8-5.8-2.3-7.5
		c-1.5-1.7-3.4-2.6-5.6-2.6c-2.3,0-4.2,0.8-5.6,2.5C446.6,887.3,445.9,889.8,445.9,893.3z"/>
	<path d="M486,916.9v-37h4.1v3.5c1-1.4,2.1-2.4,3.3-3.1c1.2-0.7,2.7-1,4.5-1c2.3,0,4.3,0.6,6.1,1.8c1.7,1.2,3.1,2.8,4,5
		c0.9,2.1,1.3,4.5,1.3,7c0,2.7-0.5,5.2-1.5,7.4c-1,2.2-2.4,3.9-4.3,5c-1.9,1.2-3.8,1.8-5.9,1.8c-1.5,0-2.9-0.3-4.1-1
		c-1.2-0.6-2.2-1.4-3-2.4v13H486z M490.1,893.4c0,3.4,0.7,6,2.1,7.6s3.1,2.5,5.1,2.5c2,0,3.7-0.9,5.2-2.6c1.4-1.7,2.2-4.3,2.2-7.9
		c0-3.4-0.7-6-2.1-7.7c-1.4-1.7-3.1-2.5-5-2.5c-1.9,0-3.6,0.9-5.1,2.7C490.8,887.3,490.1,890,490.1,893.4z"/>
	<path d="M514.6,906.6v-26.8h4.1v4.1c1-1.9,2-3.2,2.9-3.8c0.9-0.6,1.9-0.9,2.9-0.9c1.5,0,3.1,0.5,4.7,1.5l-1.6,4.2
		c-1.1-0.7-2.2-1-3.3-1c-1,0-1.9,0.3-2.7,0.9c-0.8,0.6-1.4,1.4-1.7,2.5c-0.5,1.6-0.8,3.4-0.8,5.3v14H514.6z"/>
	<path d="M550.2,898l4.7,0.6c-0.7,2.7-2.1,4.9-4.1,6.4c-2,1.5-4.6,2.3-7.7,2.3c-3.9,0-7-1.2-9.3-3.6c-2.3-2.4-3.4-5.8-3.4-10.1
		c0-4.5,1.2-8,3.5-10.5c2.3-2.5,5.3-3.7,9-3.7c3.6,0,6.5,1.2,8.8,3.7c2.3,2.4,3.4,5.9,3.4,10.3c0,0.3,0,0.7,0,1.2h-20
		c0.2,2.9,1,5.2,2.5,6.8c1.5,1.6,3.4,2.3,5.6,2.3c1.7,0,3.1-0.4,4.3-1.3C548.6,901.3,549.5,899.9,550.2,898z M535.3,890.7h14.9
		c-0.2-2.3-0.8-3.9-1.7-5.1c-1.4-1.7-3.3-2.6-5.6-2.6c-2.1,0-3.8,0.7-5.3,2.1C536.2,886.5,535.5,888.3,535.3,890.7z"/>
	<path d="M578.1,903.3c-1.7,1.4-3.3,2.4-4.9,3c-1.6,0.6-3.2,0.9-5,0.9c-2.9,0-5.2-0.7-6.8-2.2c-1.6-1.4-2.4-3.3-2.4-5.5
		c0-1.3,0.3-2.5,0.9-3.6c0.6-1.1,1.4-2,2.3-2.6c1-0.7,2.1-1.2,3.3-1.5c0.9-0.2,2.2-0.5,4-0.7c3.7-0.4,6.4-1,8.1-1.6c0-0.6,0-1,0-1.2
		c0-1.8-0.4-3.2-1.3-3.9c-1.2-1-2.9-1.5-5.2-1.5c-2.1,0-3.7,0.4-4.7,1.1c-1,0.7-1.8,2.1-2.3,4l-4.4-0.6c0.4-1.9,1.1-3.4,2-4.6
		c0.9-1.2,2.3-2.1,4-2.7c1.7-0.6,3.8-0.9,6.1-0.9c2.3,0,4.1,0.3,5.6,0.8c1.4,0.5,2.5,1.2,3.2,2c0.7,0.8,1.1,1.8,1.4,3.1
		c0.2,0.8,0.2,2.2,0.2,4.2v6.1c0,4.2,0.1,6.9,0.3,8c0.2,1.1,0.6,2.2,1.1,3.2H579C578.5,905.7,578.2,904.6,578.1,903.3z M577.7,893.2
		c-1.6,0.7-4.1,1.2-7.4,1.7c-1.9,0.3-3.2,0.6-4,0.9s-1.4,0.8-1.8,1.5c-0.4,0.6-0.6,1.4-0.6,2.2c0,1.2,0.5,2.2,1.4,3
		c0.9,0.8,2.3,1.2,4,1.2c1.7,0,3.3-0.4,4.7-1.1c1.4-0.8,2.4-1.8,3-3.1c0.5-1,0.7-2.5,0.7-4.5V893.2z"/>
	<path d="M596.7,906.6l-10.2-26.8h4.8l5.7,16c0.6,1.7,1.2,3.5,1.7,5.4c0.4-1.4,1-3.1,1.7-5.1l5.9-16.3h4.7L601,906.6H596.7z"/>
	<path d="M622.6,906.6l-10.2-26.8h4.8l5.7,16c0.6,1.7,1.2,3.5,1.7,5.4c0.4-1.4,1-3.1,1.7-5.1l5.9-16.3h4.7l-10.1,26.8H622.6z"/>
	<path d="M641,874.9v-5.2h4.5v5.2H641z M641,906.6v-26.8h4.5v26.8H641z"/>
	<path d="M650.6,898.7l4.5-0.7c0.3,1.8,1,3.2,2.1,4.1c1.2,1,2.8,1.4,4.8,1.4c2.1,0,3.6-0.4,4.6-1.3c1-0.8,1.5-1.8,1.5-3
		c0-1-0.4-1.8-1.3-2.4c-0.6-0.4-2.2-0.9-4.6-1.5c-3.3-0.8-5.6-1.6-6.9-2.2c-1.3-0.6-2.3-1.5-2.9-2.5c-0.7-1.1-1-2.3-1-3.6
		c0-1.2,0.3-2.3,0.8-3.3c0.5-1,1.3-1.9,2.2-2.5c0.7-0.5,1.7-1,2.9-1.3c1.2-0.4,2.5-0.5,3.9-0.5c2.1,0,3.9,0.3,5.5,0.9
		c1.6,0.6,2.8,1.4,3.5,2.5c0.8,1,1.3,2.4,1.6,4.1l-4.4,0.6c-0.2-1.4-0.8-2.5-1.8-3.2c-1-0.8-2.3-1.2-4.1-1.2c-2.1,0-3.6,0.3-4.5,1
		c-0.9,0.7-1.3,1.5-1.3,2.4c0,0.6,0.2,1.1,0.6,1.6c0.4,0.5,0.9,0.9,1.7,1.2c0.5,0.2,1.8,0.6,4,1.2c3.2,0.9,5.4,1.6,6.7,2.1
		c1.3,0.5,2.3,1.3,3,2.4c0.7,1,1.1,2.3,1.1,3.9c0,1.5-0.4,2.9-1.3,4.3c-0.9,1.3-2.2,2.4-3.8,3.1c-1.7,0.7-3.5,1.1-5.6,1.1
		c-3.5,0-6.1-0.7-8-2.2C652.3,903.6,651.1,901.5,650.6,898.7z"/>
	<path d="M676.5,893.3c0-5,1.4-8.6,4.1-11c2.3-2,5.1-3,8.4-3c3.7,0,6.7,1.2,9,3.6c2.3,2.4,3.5,5.7,3.5,10c0,3.4-0.5,6.2-1.6,8.1
		c-1,2-2.5,3.5-4.5,4.6c-2,1.1-4.1,1.6-6.5,1.6c-3.7,0-6.8-1.2-9.1-3.6C677.7,901.2,676.5,897.8,676.5,893.3z M681.2,893.3
		c0,3.4,0.7,6,2.2,7.7c1.5,1.7,3.4,2.6,5.6,2.6c2.3,0,4.1-0.9,5.6-2.6c1.5-1.7,2.2-4.3,2.2-7.8c0-3.3-0.8-5.8-2.3-7.5
		c-1.5-1.7-3.4-2.6-5.6-2.6c-2.3,0-4.2,0.8-5.6,2.5C681.9,887.3,681.2,889.8,681.2,893.3z"/>
</g>
<g>
	<g>
		<path class="st9" d="M773.3,228.1c6.3,0.3,10.1,5,9.1,11.2l-0.2,1l-0.4,1l-0.4,1l-57.9,100.4c-2.9,4.5-7,7-12.3,4.8
			c-2-1.1-3.5-2.7-4.7-4.6l-57.8-100.1c-2.1-3.9-2.9-8.1,0.3-11.8c2.5-2.7,5.7-3,9.3-3l113.7,0H773.3L773.3,228.1z"/>
		<path class="st10" d="M771.9,231c1.8,0,3.5-0.2,5.3,1.2c1.8,1.4,3.5,4.8,1.5,8.8l-57.8,100.2c-3.2,5.7-9,5.5-12.1,0.1l-57.7-100
			c-1.2-2.1-2.2-5.2-0.8-7.4c1.8-2.9,4.8-2.9,7.9-3L771.9,231L771.9,231z"/>
		<polygon class="st11" points="764.2,242.8 714.8,328.2 665.6,242.8 764.2,242.8 		"/>
	</g>
</g>
<g>
	<g>
		<path class="st12" d="M425.7,427.4c14.9,0.6,23.9,11.8,21.5,26.6l-0.5,2.3l-0.9,2.4l-1,2.4L307.8,698.6
			c-6.9,10.5-16.6,16.6-29.2,11.2c-4.8-2.6-8.3-6.4-11.1-10.9L130.9,462.2c-5-9.3-6.9-19.2,0.7-27.8c6-6.4,13.5-7.1,22-7.1
			l268.8,0.1H425.7L425.7,427.4z"/>
		<path class="st10" d="M422.4,434.3c4.2,0.1,8.3-0.4,12.6,2.8c4.4,3.2,8.4,11.4,3.7,20.8L301.9,695c-7.7,13.4-21.2,13.1-28.5,0.4
			L136.9,458.8c-2.9-5.1-5.3-12.2-2-17.5c4.4-7,11.2-7,18.7-7.1L422.4,434.3L422.4,434.3z"/>
		<polygon class="st13" points="404.2,462.1 287.5,664 171,462.1 404.2,462.1 		"/>
		<polygon class="st14" points="147,314 426.6,314 426.6,419.8 147,419.8 147,314 		"/>
		<path class="st15" d="M168.4,321.6h236.8c7.6,0,13.8,6.2,13.8,13.8v63.1c0,7.6-6.2,13.8-13.8,13.8H168.4
			c-7.6,0-13.8-6.2-13.8-13.8v-63.1C154.5,327.8,160.8,321.6,168.4,321.6L168.4,321.6z"/>
		<path class="st4" d="M331.4,366.3c2.6-4.2,13.4-4.1,14.9,0.8c3.8-6.1,16-4.7,16,2.7v19.7h-9v-15.6c0-1.5,0-4.6-2.8-4.6
			c-2.3,0-3.6,2.6-3.6,3.8v16.4h-9v-15.6c0-1.5,0-4.6-2.8-4.6c-2.3,0-3.6,2.6-3.6,3.8v16.4h-9c0-7.4,0-16.2,0-23.7
			c0-0.6-0.4-1.2-0.4-1.8h9L331.4,366.3L331.4,366.3z"/>
		<path class="st4" d="M204.6,377.1l8.6-1.1c0.2,2.2,1,3.9,2,5c1.2,1.1,2.8,1.7,4.3,1.7c1.5,0,3.1-0.7,4.3-1.9c1.2-1.2,2-3.1,2-5.3
			c0-2-0.6-3.8-1.7-4.9c-1.2-1.1-2.8-1.9-4.3-1.9c-1,0-2.3,0.4-3.7,0.8l0.8-7.4c2.1,0,3.8-0.4,5-1.2c1.2-1.1,2-2.6,2-4.3
			c0-1.2-0.6-2.5-1.4-3.3c-0.8-0.9-2.1-1.4-3.5-1.4c-1.4,0-2.8,0.5-3.5,1.4c-1,0.9-1.7,2.4-1.7,4l-8.2-1c0.5-2.6,1.4-4.8,2.3-6.3
			c1.2-1.5,2.9-2.9,4.9-3.6c2-0.9,4.5-1.5,6.8-1.5c4.3,0,7.8,1.5,10.3,4c2.1,2.2,3.2,4.8,3.2,7.4c0,3.7-2.3,6.9-6.9,9.2
			c2.5,0.5,4.9,1.8,6.4,3.6c1.6,1.8,2.5,4.2,2.5,6.7c0,3.7-1.5,7.2-4.4,9.7c-3,2.6-6.6,4-10.9,4c-4.2,0-7.6-1-10.3-3.3
			C206.6,384.1,205.1,380.7,204.6,377.1L204.6,377.1z M271,381.1v7.8h-31.5c0.1-3,1.4-5.7,2.9-8.3c1.5-2.5,5.1-6.2,10-10.6
			c3.8-3.4,6.6-5.9,7.3-7.2c1.2-1.6,2-3.5,2-5.1c0-1.8-0.6-3.3-1.5-4.2c-1.2-1.1-2.8-1.6-4.7-1.6c-1.7,0-3.2,0.5-4.3,1.4
			c-1.2,1.1-1.9,3-1.9,5.1l-8.9-0.7c0.3-4.4,2.1-7.9,4.7-9.7c2.8-2,6.5-3.1,10.8-3.1c4.6,0,8.3,1.3,11,3.5c2.8,2.4,4.2,5.5,4.2,8.8
			c0,1.9-0.5,3.9-1.2,5.7c-0.8,1.9-2.2,3.8-3.7,5.7c-1,1.1-3.1,3.1-5.9,5.5c-2.9,2.3-4.9,4-5.6,4.8c-0.8,0.7-1.6,1.6-2,2.3H271
			L271,381.1z M291.7,344.8c4.3,0,8,1.7,10.5,4.6c3.1,3.7,4.6,9.7,4.6,18c0,8-1.5,14.1-4.6,17.8c-2.5,3-6.3,4.4-10.5,4.4
			c-4.6,0-8.3-1.6-11.1-4.8c-2.7-3.3-4.1-9.2-4.1-17.6c0-8,1.6-14.1,4.5-17.8C283.6,346.5,287.3,344.8,291.7,344.8L291.7,344.8z
			 M291.7,351.8c-1.2,0-2.1,0.3-2.9,0.8c-0.8,0.7-1.7,2.1-2.1,3.7c-0.5,2.2-0.8,5.8-0.8,11c0,5.1,0.3,8.6,0.8,10.5
			c0.3,1.9,1.2,3.3,1.9,3.8c0.8,0.6,2,0.9,3.1,0.9c1,0,2-0.4,2.8-0.9c0.7-0.6,1.7-1.8,2.1-3.5c0.6-2.1,0.9-5.7,0.9-10.9
			c0-5.1-0.3-8.8-0.7-10.7c-0.6-1.8-1.4-3.3-2.2-3.8C293.9,352.1,292.7,351.8,291.7,351.8L291.7,351.8z"/>
	</g>
</g>
<g>
	<g>
		<path class="st16" d="M773.3,607.2c6.3,0.3,10.1,5,9.1,11.2l-0.2,1l-0.4,1l-0.4,1l-57.7,100.1c-2.9,4.4-7,7-12.3,4.7
			c-2-1.1-3.5-2.7-4.7-4.6L649,621.8c-2.1-3.9-2.9-8.1,0.3-11.7c2.5-2.7,5.7-3,9.3-3l113.3,0H773.3L773.3,607.2z"/>
		<path class="st10" d="M771.9,610.1c1.8,0,3.5-0.2,5.3,1.2c1.8,1.4,3.5,4.8,1.5,8.8l-57.7,100c-3.2,5.7-8.9,5.5-12,0.1l-57.5-99.7
			c-1.2-2.1-2.2-5.1-0.8-7.4c1.8-2.9,4.7-2.9,7.9-3L771.9,610.1L771.9,610.1z"/>
		<polygon class="st17" points="764.3,621.8 715,707 666,621.8 764.3,621.8 		"/>
		<polygon class="st18" points="655.8,559.4 773.7,559.4 773.7,604 655.8,604 655.8,559.4 		"/>
		<path class="st19" d="M664.8,562.6h99.9c3.2,0,5.8,2.6,5.8,5.8V595c0,3.2-2.6,5.8-5.8,5.8h-99.9c-3.2,0-5.8-2.6-5.8-5.8v-26.6
			C659,565.2,661.6,562.6,664.8,562.6L664.8,562.6z"/>
		<path class="st4" d="M733.6,581.4c1.1-1.8,5.6-1.7,6.3,0.3c1.6-2.6,6.8-2,6.8,1.2v8.3h-3.8v-6.6c0-0.6,0-1.9-1.2-1.9
			c-1,0-1.5,1.1-1.5,1.6v6.9h-3.8v-6.6c0-0.6,0-1.9-1.2-1.9c-1,0-1.5,1.1-1.5,1.6v6.9h-3.8c0-3.1,0-6.8,0-10c0-0.3-0.2-0.5-0.2-0.8
			h3.8L733.6,581.4L733.6,581.4z"/>
		<path class="st4" d="M680.1,586l3.6-0.5c0.1,0.9,0.4,1.7,0.8,2.1c0.5,0.5,1.2,0.7,1.8,0.7c0.6,0,1.3-0.3,1.8-0.8
			c0.5-0.5,0.8-1.3,0.8-2.2c0-0.8-0.2-1.6-0.7-2.1c-0.5-0.5-1.2-0.8-1.8-0.8c-0.4,0-1,0.2-1.6,0.3l0.3-3.1c0.9,0,1.6-0.2,2.1-0.5
			c0.5-0.5,0.8-1.1,0.8-1.8c0-0.5-0.2-1.1-0.6-1.4c-0.3-0.4-0.9-0.6-1.5-0.6c-0.6,0-1.2,0.2-1.5,0.6c-0.4,0.4-0.7,1-0.7,1.7
			l-3.5-0.4c0.2-1.1,0.6-2,1-2.6c0.5-0.6,1.2-1.2,2.1-1.5c0.8-0.4,1.9-0.6,2.9-0.6c1.8,0,3.3,0.6,4.3,1.7c0.9,0.9,1.4,2,1.4,3.1
			c0,1.5-1,2.9-2.9,3.9c1.1,0.2,2.1,0.7,2.7,1.5c0.7,0.8,1.1,1.8,1.1,2.8c0,1.6-0.6,3-1.9,4.1c-1.3,1.1-2.8,1.7-4.6,1.7
			c-1.8,0-3.2-0.4-4.3-1.4C681,588.9,680.3,587.5,680.1,586L680.1,586z M708.1,587.7v3.3h-13.3c0-1.3,0.6-2.4,1.2-3.5
			c0.6-1.1,2.1-2.6,4.2-4.5c1.6-1.4,2.8-2.5,3.1-3c0.5-0.7,0.8-1.5,0.8-2.2c0-0.7-0.2-1.4-0.6-1.8c-0.5-0.5-1.2-0.7-2-0.7
			c-0.7,0-1.4,0.2-1.8,0.6c-0.5,0.5-0.8,1.3-0.8,2.2l-3.8-0.3c0.1-1.9,0.9-3.3,2-4.1c1.2-0.8,2.7-1.3,4.5-1.3c2,0,3.5,0.6,4.6,1.5
			c1.2,1,1.8,2.3,1.8,3.7c0,0.8-0.2,1.7-0.5,2.4c-0.3,0.8-0.9,1.6-1.6,2.4c-0.4,0.5-1.3,1.3-2.5,2.3c-1.2,1-2.1,1.7-2.3,2
			c-0.3,0.3-0.7,0.7-0.8,1H708.1L708.1,587.7z M716.8,572.3c1.8,0,3.4,0.7,4.4,1.9c1.3,1.5,2,4.1,2,7.6c0,3.4-0.6,6-2,7.5
			c-1.1,1.3-2.6,1.9-4.4,1.9c-2,0-3.5-0.7-4.7-2c-1.1-1.4-1.7-3.9-1.7-7.4c0-3.4,0.7-6,1.9-7.5C713.4,573.1,715,572.3,716.8,572.3
			L716.8,572.3z M716.8,575.3c-0.5,0-0.9,0.1-1.2,0.4c-0.3,0.3-0.7,0.9-0.9,1.6c-0.2,0.9-0.3,2.4-0.3,4.6c0,2.2,0.1,3.6,0.3,4.4
			c0.1,0.8,0.5,1.4,0.8,1.6c0.3,0.2,0.8,0.4,1.3,0.4c0.4,0,0.8-0.2,1.2-0.4c0.3-0.2,0.7-0.8,0.9-1.5c0.2-0.9,0.4-2.4,0.4-4.6
			c0-2.2-0.1-3.7-0.3-4.5c-0.2-0.8-0.6-1.4-0.9-1.6C717.8,575.4,717.3,575.3,716.8,575.3L716.8,575.3z"/>
	</g>
</g>
<line class="st20" x1="401.8" y1="556.5" x2="655.8" y2="643.5"/>
</svg>
