<?xml version="1.0" encoding="utf-8"?>
<!-- Generator: Adobe Illustrator 19.2.0, SVG Export Plug-In . SVG Version: 6.00 Build 0)  -->
<svg version="1.1" id="Livello_3" xmlns="http://www.w3.org/2000/svg" xmlns:xlink="http://www.w3.org/1999/xlink" x="0px" y="0px"
	 viewBox="0 0 960 960" style="enable-background:new 0 0 960 960;" xml:space="preserve">
<style type="text/css">
	.st0{fill-rule:evenodd;clip-rule:evenodd;fill:#C5C6C8;}
	.st1{fill:none;stroke:#1A171B;stroke-width:1.1024;stroke-miterlimit:2.6131;}
	.st2{fill-rule:evenodd;clip-rule:evenodd;fill:#9B9C9E;}
	.st3{fill-rule:evenodd;clip-rule:evenodd;fill:#FFFFFF;}
	.st4{fill-rule:evenodd;clip-rule:evenodd;fill:#1A171B;}
	.st5{fill-rule:evenodd;clip-rule:evenodd;fill:#FFFFFF;stroke:#1A171B;stroke-width:0.3053;stroke-miterlimit:2.6131;}
	.st6{fill-rule:evenodd;clip-rule:evenodd;fill:#E1001A;}
	.st7{fill-rule:evenodd;clip-rule:evenodd;fill:#FFFFFF;stroke:#1A171B;stroke-width:0.663;stroke-miterlimit:2.6131;}
	.st8{fill-rule:evenodd;clip-rule:evenodd;fill:#FFFFFF;stroke:#E1001A;stroke-width:2.21;stroke-miterlimit:2.6131;}
	.st9{fill:#FFFFFF;stroke:#1A171B;stroke-width:0.663;stroke-miterlimit:2.6131;}
	.st10{fill:none;stroke:#1A171B;stroke-width:4.42;stroke-miterlimit:2.6131;}
	.st11{fill-rule:evenodd;clip-rule:evenodd;fill:#1A171B;stroke:#1A171B;stroke-width:0.663;stroke-miterlimit:2.6131;}
	.st12{fill-rule:evenodd;clip-rule:evenodd;fill:#FFFFFF;stroke:#1A171B;stroke-width:0.2844;stroke-miterlimit:2.6131;}
	.st13{fill-rule:evenodd;clip-rule:evenodd;fill:#FFFFFF;stroke:#E1001A;stroke-width:0.948;stroke-miterlimit:2.6131;}
	.st14{fill:#FFFFFF;stroke:#1A171B;stroke-width:0.2844;stroke-miterlimit:2.6131;}
	.st15{fill:none;stroke:#1A171B;stroke-width:1.8961;stroke-miterlimit:2.6131;}
	.st16{fill-rule:evenodd;clip-rule:evenodd;fill:#1A171B;stroke:#1A171B;stroke-width:0.2844;stroke-miterlimit:2.6131;}
	.st17{display:none;}
	.st18{font-family:'ArialMT';}
	.st19{font-size:53.7146px;}
	.st20{fill:none;stroke:#000000;stroke-width:5;stroke-miterlimit:10;}
</style>
<polygon class="st0" points="180.1,249 180.5,249 240.7,249 240.7,748.8 715.1,748.8 715.1,249 775.4,249 775.4,4.7 180.1,4.7 
	180.1,249 180.1,249 180.1,249 "/>
<polygon class="st0" points="180.5,249 240.7,249 180.5,249 180.5,249 180.5,249 "/>
<path class="st1" d="M180.1,249h0.4h60.3v499.8h474.4V249h60.3V4.7H180.1V249 M180.5,249h60.3H180.5"/>
<polygon class="st2" points="625.5,4.7 180.1,4.7 180.1,164.5 277.5,164.5 297.7,168.2 305,171.9 312.4,178.5 321.6,193.9 
	325.3,213.8 325.3,749.9 330.8,749.9 631,749.9 631,214.1 632.1,203.1 634.3,193.9 638.3,185.9 643.8,178.5 651.2,171.9 
	659.7,168.2 668.8,164.5 679.9,164.5 775.4,164.5 775.4,4.7 625.5,4.7 625.5,4.7 625.5,4.7 "/>
<polygon class="st3" points="496.8,364.8 503.5,360.8 503.5,376.9 505.3,388.7 507.2,395.3 509,397.9 511.5,396 513.4,389.8 
	514.9,369.9 514.5,359.3 512.7,350.1 507.5,342.4 503.5,333.6 500.5,322.5 498.7,304.2 498,283.2 499.8,254.6 503.5,235.8 
	505.7,228.8 509,227 513.4,231.8 516.7,245 520,287.6 514.5,289.5 512.7,268.5 510.8,263.7 509,261.9 507.2,263.7 505.3,269.3 
	503.5,280.3 505.3,292.4 507.2,298.6 509.7,305.6 516.3,320 520,339.1 520.7,369.9 520,401.5 518.2,415.5 515.2,423.6 512.7,428.7 
	509,430.6 507.2,429.1 504.2,426.5 500.5,414.4 498.3,392.4 496.8,364.8 496.8,364.8 496.8,364.8 "/>
<polygon class="st3" points="532.9,427.3 532.9,264.9 523.7,264.9 523.7,231.8 546.5,231.8 546.5,264.9 538.4,264.9 538.4,427.3 
	532.9,427.3 532.9,427.3 532.9,427.3 "/>
<polygon class="st3" points="563,397.5 563,430.6 566,428.7 568.5,423.6 573.3,404.5 575.9,372.1 577,329.9 575.9,287.6 
	573.3,254.6 568.5,234.3 566,228.8 563,228.1 563,261.9 566,265.6 568.5,278.4 571.5,329.2 570.3,358.9 568.5,380.6 566,392.4 
	563,397.5 563,397.5 563,397.5 "/>
<polygon class="st3" points="563,261.9 563,228.1 562.6,227 559.3,230.3 556.8,235.8 553.1,254.2 550.1,280.3 549.4,329.9 
	549.8,372.1 553.1,404.5 556.8,423.6 560.4,429.1 562.6,430.6 563,430.6 563,397.5 562.6,397.9 561.2,396 559.3,392.4 556.8,379.5 
	555.3,358.6 554.9,329.2 556.8,278.4 559.3,265.6 562.6,261.9 563,261.9 563,261.9 563,261.9 "/>
<polygon class="st3" points="593.5,318.9 593.5,353.1 595.3,351.9 597.5,350.1 600.9,340.9 603.1,320.7 604.5,290.9 602.7,252.7 
	597.9,234.3 595.7,232.1 593.5,232.1 593.5,265.6 595.3,265.6 597.2,274.8 597.9,292.4 597.5,306 595.3,315.2 593.5,318.5 
	593.5,318.9 593.5,318.9 593.5,318.9 "/>
<polygon class="st3" points="593.5,265.6 593.5,232.1 591.7,231.8 582.5,231.8 582.5,427.3 588,427.3 588,353.1 591.7,353.1 
	593.5,353.1 593.5,318.9 590.6,318.9 588,318.9 588,264.9 590.6,264.9 593.5,265.6 593.5,265.6 593.5,265.6 "/>
<polygon class="st3" points="329.6,748.8 338.1,748.8 338.1,208.6 329.6,208.6 329.6,748.8 329.6,748.8 329.6,748.8 "/>
<polygon class="st3" points="626.6,748.8 618.1,748.8 618.1,208.6 626.6,208.6 626.6,748.8 626.6,748.8 626.6,748.8 "/>
<polygon class="st3" points="674.7,159 676.2,150.9 776.1,150.9 776.1,159 674.7,159 674.7,159 674.7,159 "/>
<polygon class="st3" points="473,151.3 483.6,151.3 483.6,748.8 473,748.8 473,151.3 473,151.3 473,151.3 "/>
<polygon class="st3" points="477.8,151.3 686.1,151.3 656,158.7 632.1,178.5 477.8,178.5 477.8,151.3 477.8,151.3 477.8,151.3 "/>
<polygon class="st4" points="648.6,206.1 693.4,206.1 695.3,203.1 695.3,202.4 693.4,200.6 648.6,200.6 646.8,202.4 646.8,203.1 
	648.6,206.1 648.6,206.1 648.6,206.1 "/>
<polygon class="st1" points="648.6,206.1 693.4,206.1 695.3,203.1 695.3,202.4 693.4,200.6 648.6,200.6 646.8,202.4 646.8,203.1 
	648.6,206.1 648.6,206.1 648.6,206.1 "/>
<polygon class="st4" points="671,191.7 668.8,192.1 668.8,193.9 668.8,195.8 671,197.6 673.2,195.8 674.4,193.9 671,191.7 
	671,191.7 671,191.7 "/>
<polygon class="st1" points="671,191.7 668.8,192.1 668.8,193.9 668.8,195.8 671,197.6 673.2,195.8 674.4,193.9 671,191.7 
	671,191.7 671,191.7 "/>
<polygon class="st3" points="281.5,159 280,150.9 180.1,150.9 180.1,159 281.5,159 281.5,159 281.5,159 "/>
<polygon class="st3" points="277.5,158.7 279.3,150.9 290.3,151.7 301.4,155.3 311.3,160.8 320.1,168.2 327.5,176.7 333,186.2 
	336.6,196.9 338.1,208.6 329.3,208.6 325.3,189.5 321.6,181.1 314.6,173.7 306.9,167.5 298.1,162.7 277.5,158.7 277.5,158.7 
	277.5,158.7 "/>
<polygon class="st3" points="676.2,158.7 676.2,150.9 665.2,151.7 654.1,155.3 643.8,160.5 635.8,167.8 628.4,175.5 622.9,185.9 
	619.6,195.8 618.1,208.3 626.6,208.6 628.4,198.7 630.6,189.5 635.8,181.1 641.3,173.7 648.6,167.8 656.7,162.7 665.9,160.1 
	676.2,158.7 676.2,158.7 676.2,158.7 "/>
<g>
	<g>
		<polygon class="st5" points="682.1,360.8 642.1,321.7 642.1,263 681.3,223.8 740,223.8 778.8,263 778.7,321.7 740,360.8 
			682.1,360.8 		"/>
		<polygon class="st6" points="738.4,357 683.7,357 646,320 646,264.5 682.9,227.6 738.4,227.6 775,264.5 775,320 738.4,357 		"/>
		<path class="st3" d="M658.4,303.3c1.6,2.3,2.9,3.6,2.9,3.8c0.1,0.4,1.9,1.5,3.6,1.5c1.2,0,2.9-1.1,3.1-1.3c0.1-0.2,1.2-2,1.2-3.5
			c0-2-1.9-4.5-5.6-7c-0.2,0-0.5-0.4-0.5-0.4c-1.9-1.3-3.6-2.6-4.6-3.3c-1-0.7-2.6-2.2-2.6-2.2c-0.8-1-2.9-3.4-2.9-4.3
			c0-0.9-0.9-3.1-0.9-5c0-3.7,1.7-7.2,3.4-8.9c1.8-1.7,5.7-3.3,9.4-3.3c4.1,0,6.5,1.6,8.3,3.3c1.3,1.4,2.8,3.2,3.8,5.8
			c-2.1,1.2-3.4,1.9-6.2,3.5c-1.2-1.9-2.9-3.9-3.1-4.2c-0.4-0.4-1.9-1.7-3.2-1.7c-1,0-2.6,1.1-2.7,1.3c-0.1,0.2-1.2,2-1.2,3.5
			c0,2.4,2.7,5.8,7,8.4c0.7,0.4,2.9,1.8,2.9,1.8c2.1,1.2,5,4.2,5.5,5.4c0.4,1.1,1.7,4,1.7,6.1c0,4.5-2.8,8.2-3.8,9.6
			c-1.7,2.2-5.6,3.6-10.2,3.6c-4.1,0-7.2-2.3-8.4-3.4c-2-1.9-1.2-1.1-3.5-4.6C654.5,305.6,656.2,304.7,658.4,303.3L658.4,303.3z
			 M690.5,314.9v-37.1h-6.8v-7.4l22.1-0.1v7.4l-6.5,0.1v37.1H690.5L690.5,314.9z M711.9,291.8c0-11.3,4.1-22.8,13-22.7
			c8.9,0.1,12.8,11,12.8,22.2c0,11.2-4.3,24.3-13.3,24.3C715.4,315.6,711.9,303.1,711.9,291.8L711.9,291.8z M719.3,291.7
			c0,3.1,1.5,16.7,5.4,16.8c3.9,0.1,5.2-13.4,5.2-16.8c0-3.5-0.8-15.4-5.1-15.4C720.5,276.3,719.3,288.6,719.3,291.7L719.3,291.7z
			 M756.1,270.3c8,0,12.5,6.9,12.5,13.5c-0.1,6.6-4.3,13.3-12.5,13.2h-1.9v17.8h-8.9v-44.6H756.1L756.1,270.3z M754,277.3v12.1
			c3.2,0,6.3-2,6.3-5.8C760.3,279.9,758.1,277.3,754,277.3L754,277.3z"/>
	</g>
</g>
<g>
	<g>
		<path class="st7" d="M435.9,428.9c15.4,0.6,24.7,12.2,22.2,27.5l-0.5,2.3l-0.9,2.5l-1.1,2.4L314.2,709
			c-7.1,10.9-17.1,17.1-30.2,11.6c-5-2.7-8.6-6.6-11.4-11.3L131.5,464.9c-5.1-9.6-7.1-19.8,0.7-28.7c6.2-6.6,14-7.3,22.7-7.3
			l277.6,0.1H435.9L435.9,428.9z"/>
		<path class="st6" d="M432.5,436.1c4.3,0.1,8.6-0.5,13.1,2.9c4.5,3.3,8.6,11.8,3.8,21.5L308.1,705.3c-7.9,13.9-21.9,13.5-29.4,0.4
			l-141-244.3c-3-5.2-5.5-12.6-2.1-18.1c4.5-7.2,11.6-7.2,19.3-7.3L432.5,436.1L432.5,436.1z"/>
		<polygon class="st8" points="413.7,464.8 293.2,673.3 172.9,464.8 413.7,464.8 		"/>
		<polygon class="st9" points="148.1,311.8 436.9,311.8 436.9,421.1 148.1,421.1 148.1,311.8 		"/>
		<path class="st10" d="M170.2,319.7h244.6c7.9,0,14.3,6.4,14.3,14.3v65.1c0,7.9-6.4,14.3-14.3,14.3H170.2
			c-7.9,0-14.3-6.4-14.3-14.3V334C155.9,326.1,162.3,319.7,170.2,319.7L170.2,319.7z"/>
		<path class="st11" d="M181.1,371l5.2-0.6c0.2,1.9,0.9,3.3,1.8,4c0.9,0.8,2.3,1.3,3.9,1.3c1.8,0,3.2-0.4,3.9-1.1
			c0.9-0.8,1.4-1.7,1.4-2.7c0-0.6-0.2-1.2-0.5-1.5c-0.4-0.4-1.2-1-2-1.3c-0.7-0.2-2.1-0.8-4.3-1.1c-2.9-0.8-5-1.7-6.1-2.9
			c-1.4-1.5-2.3-3.5-2.3-5.8c0-1.5,0.4-3.1,1.1-4.2c0.7-1.1,1.8-2.3,3.2-2.9c1.4-0.8,3.2-1.1,5.2-1.1c3.2,0,5.7,1,7.3,2.5
			c1.6,1.5,2.7,3.8,2.7,6.5l-5.3,0.2c-0.2-1.3-0.7-2.5-1.4-3.1c-0.7-0.8-1.8-1.1-3.2-1.1c-1.4,0-2.9,0.4-3.6,1.1
			c-0.4,0.4-0.7,1-0.7,1.7c0,0.8,0.4,1.3,0.7,1.7c0.7,0.6,2.3,1.3,4.8,1.9c2.5,0.8,4.6,1.5,5.7,2.1c1.2,0.8,2.3,1.7,3,2.9
			c0.7,1.2,1.1,2.9,1.1,4.6c0,1.5-0.5,3.1-1.2,4.4c-0.9,1.5-2.3,2.7-3.7,3.3c-1.4,0.6-3.6,1-5.7,1c-3.2,0-5.9-1-7.7-2.5
			C182.5,376.8,181.3,374.1,181.1,371L181.1,371z M213.4,380.2v-23.8h-7.8v-4.8h21v4.8h-7.8v23.8H213.4L213.4,380.2z M228.2,366
			c0-2.7,0.4-5.4,1.1-7.3c0.5-1.3,1.4-2.7,2.5-3.8c1.1-1.1,2.3-2.1,3.4-2.7c1.6-0.8,3.6-1.1,5.7-1.1c3.9,0,7.1,1.3,9.5,4
			c2.3,2.7,3.6,6.3,3.6,10.9s-1.2,8.2-3.6,10.7c-2.3,2.7-5.5,4-9.3,4c-3.9,0-7.1-1.3-9.3-3.8c-2.3-2.5-3.6-6.1-3.6-10.7V366
			L228.2,366z M233.5,365.8c0,3.3,0.7,5.9,2,7.5c1.4,1.5,3.4,2.5,5.5,2.5c2.1,0,3.9-1,5.3-2.5c1.4-1.5,2.1-4.2,2.1-7.5
			c0-3.1-0.7-5.8-2-7.3c-1.4-1.5-3.4-2.5-5.5-2.5c-2.1,0-4.1,1-5.4,2.5c-1.4,1.5-2.1,4.2-2.1,7.5V365.8L233.5,365.8z M258.1,380.2
			v-28.6h8.6c3.2,0,5.5,0.2,6.4,0.6c1.4,0.4,2.9,1.3,3.9,2.7c1.1,1.5,1.6,3.5,1.6,5.6c0,1.7-0.4,3.3-0.9,4.4
			c-0.7,1.2-1.6,2.3-2.3,2.9c-0.9,0.8-2,1.3-2.9,1.3c-1.2,0.2-3.2,0.4-5.7,0.4h-3.4v10.7H258.1L258.1,380.2z M263.5,356.4v8.2h3
			c2.1,0,3.6-0.2,4.3-0.4c0.7-0.2,1.4-0.8,1.8-1.3c0.4-0.6,0.7-1.5,0.7-2.3c0-1-0.4-1.9-0.9-2.5c-0.5-0.8-1.4-1.3-2.3-1.3
			c-0.7-0.2-2.1-0.4-3.9-0.4H263.5L263.5,356.4z M302.4,372.5l5-0.6c0,1.3,0.5,2.5,1.1,3.1c0.7,0.8,1.6,1.2,2.5,1.2
			c0.9,0,1.8-0.4,2.5-1.2c0.7-0.8,1.1-2.1,1.1-3.5c0-1.2-0.4-2.3-0.9-3.1c-0.7-0.8-1.6-1.3-2.5-1.3c-0.5,0-1.4,0.2-2.1,0.6l0.4-4.8
			c1.3,0,2.3-0.2,3-0.8c0.7-0.8,1.1-1.7,1.1-2.9c0-0.8-0.4-1.7-0.7-2.3c-0.5-0.6-1.4-1-2.1-1c-0.7,0-1.6,0.4-2,1
			c-0.5,0.8-1.1,1.7-1.1,2.9l-4.6-0.8c0.2-1.7,0.7-3.3,1.3-4.2c0.7-1,1.6-1.9,2.7-2.5c1.1-0.6,2.5-1,3.9-1c2.5,0,4.5,1,5.9,2.7
			c1.2,1.3,2,3.1,2,4.8c0,2.5-1.4,4.6-3.9,6.1c1.4,0.4,2.9,1.2,3.7,2.3c0.9,1.2,1.4,2.9,1.4,4.4c0,2.5-0.9,4.8-2.5,6.3
			c-1.8,1.7-3.9,2.7-6.4,2.7c-2.3,0-4.5-0.8-5.9-2.1c-1.4-1.5-2.5-3.6-2.7-5.9V372.5L302.4,372.5z M340.5,375v5.2h-18
			c0-1.9,0.7-3.8,1.6-5.4c1.1-1.7,3-4.2,5.9-6.9c2.1-2.3,3.7-3.8,4.3-4.6c0.7-1.2,1.1-2.3,1.1-3.5c0-1.1-0.4-2.1-0.9-2.7
			c-0.7-0.8-1.6-1.1-2.7-1.1c-1.1,0-2.1,0.4-2.7,1c-0.7,0.8-1.1,1.9-1.1,3.3l-5-0.4c0.2-2.9,1.2-5.2,2.7-6.3
			c1.6-1.3,3.7-2.1,6.2-2.1c2.5,0,4.8,0.8,6.2,2.3c1.4,1.5,2.3,3.5,2.3,5.8c0,1.2-0.4,2.5-0.7,3.6c-0.4,1.1-1.2,2.5-2.1,3.6
			c-0.5,0.8-1.8,2.1-3.4,3.6c-1.6,1.5-2.7,2.9-3,3.3c-0.4,0.4-0.9,1-1.2,1.3H340.5L340.5,375z M352.5,351.4c2.5,0,4.6,1.2,6.1,3.1
			c1.8,2.3,2.7,6.3,2.7,11.7s-0.9,9.4-2.7,11.7c-1.4,1.9-3.6,2.9-6.1,2.9c-2.7,0-5-1.1-6.4-3.1c-1.4-2.1-2.3-6.1-2.3-11.5
			s0.9-9.4,2.5-11.7C347.7,352.6,350,351.4,352.5,351.4L352.5,351.4z M352.5,356c-0.7,0-1.4,0.2-1.8,0.6c-0.4,0.4-0.9,1.3-1.1,2.5
			c-0.4,1.3-0.5,3.8-0.5,7.1c0,3.3,0.2,5.8,0.4,6.9c0.4,1.2,0.9,2.1,1.2,2.5c0.4,0.4,1.1,0.6,1.8,0.6c0.5,0,1.2-0.2,1.6-0.6
			c0.4-0.4,0.9-1.2,1.1-2.3c0.4-1.3,0.7-3.8,0.7-7.1c0-3.3-0.2-5.8-0.5-6.9c-0.4-1.1-0.9-2.1-1.2-2.5C353.7,356.4,353,356,352.5,356
			L352.5,356z M376.2,359.5v2.9c1.6-2.3,3.7-3.5,5.9-3.5c1.2,0,2.7,0.4,3.2,0.8c0.9,0.4,1.8,1.5,2.3,2.7c0.7-1.1,2-2.1,2.7-2.5
			c1.1-0.4,2.1-1,3.2-1c1.4,0,2.9,0.6,3.6,1c0.7,0.4,2,1.9,2.3,2.9c0.4,0.8,0.5,2.5,0.5,4.2v13.2h-5.2v-11.9c0-1.9-0.2-3.5-0.5-3.8
			c-0.4-0.8-1.2-1.3-2.1-1.3c-0.7,0-1.4,0.6-2,0.8c-0.5,0.4-1.4,1.5-1.4,2.1c0,0.6-0.4,2.5-0.4,4.2v10h-5.2v-11.3
			c0-1.9-0.2-3.5-0.2-3.8c-0.2-0.6-0.5-1.1-0.9-1.3c-0.4-0.4-1.1-0.6-1.6-0.6c-0.7,0-1.8,0.6-2.1,0.8c-0.4,0.2-1.3,1.3-1.3,1.9
			c0,0.6-0.4,2.7-0.4,4.4v10h-5.2v-20.7H376.2z"/>
	</g>
</g>
<g>
	<g>
		<path class="st12" d="M776.2,608.6c6.6,0.3,10.6,5.2,9.5,11.8l-0.2,1l-0.4,1.1l-0.5,1L724,728.7c-3.1,4.7-7.3,7.3-12.9,5
			c-2.1-1.2-3.7-2.8-4.9-4.8L645.6,624c-2.2-4.1-3.1-8.5,0.3-12.3c2.7-2.8,6-3.1,9.7-3.1l119.1,0H776.2L776.2,608.6z"/>
		<path class="st6" d="M774.7,611.7c1.9,0,3.7-0.2,5.6,1.2c1.9,1.4,3.7,5.1,1.6,9.2l-60.6,105c-3.4,5.9-9.4,5.8-12.6,0.2
			l-60.5-104.8c-1.3-2.2-2.4-5.4-0.9-7.8c1.9-3.1,5-3.1,8.3-3.1L774.7,611.7L774.7,611.7z"/>
		<polygon class="st13" points="766.6,624 714.9,713.4 663.3,624 766.6,624 		"/>
		<polygon class="st14" points="652.7,558.4 776.6,558.4 776.6,605.2 652.7,605.2 652.7,558.4 		"/>
		<path class="st15" d="M662.2,561.7h104.9c3.4,0,6.1,2.8,6.1,6.1v27.9c0,3.4-2.8,6.1-6.1,6.1H662.2c-3.4,0-6.1-2.8-6.1-6.1v-27.9
			C656.1,564.5,658.8,561.7,662.2,561.7L662.2,561.7z"/>
		<path class="st16" d="M666.9,583.7l2.2-0.2c0.1,0.8,0.4,1.4,0.8,1.7c0.4,0.3,1,0.6,1.7,0.6c0.8,0,1.4-0.2,1.7-0.5
			c0.4-0.3,0.6-0.7,0.6-1.2c0-0.2-0.1-0.5-0.2-0.7c-0.2-0.2-0.5-0.4-0.8-0.6c-0.3-0.1-0.9-0.3-1.8-0.5c-1.2-0.3-2.1-0.7-2.6-1.2
			c-0.6-0.7-1-1.5-1-2.5c0-0.7,0.2-1.3,0.5-1.8c0.3-0.5,0.8-1,1.4-1.2c0.6-0.3,1.4-0.5,2.2-0.5c1.4,0,2.4,0.4,3.1,1.1
			c0.7,0.7,1.1,1.6,1.1,2.8l-2.3,0.1c-0.1-0.6-0.3-1.1-0.6-1.3c-0.3-0.3-0.8-0.5-1.4-0.5c-0.6,0-1.2,0.2-1.5,0.5
			c-0.2,0.2-0.3,0.4-0.3,0.7c0,0.3,0.2,0.6,0.3,0.7c0.3,0.2,1,0.6,2.1,0.8c1.1,0.3,2,0.7,2.4,0.9c0.5,0.3,1,0.7,1.3,1.2
			c0.3,0.5,0.5,1.2,0.5,2c0,0.7-0.2,1.3-0.5,1.9c-0.4,0.7-1,1.2-1.6,1.4c-0.6,0.2-1.5,0.4-2.4,0.4c-1.4,0-2.5-0.4-3.3-1.1
			C667.5,586.2,666.9,585.1,666.9,583.7L666.9,583.7z M680.7,587.7v-10.2h-3.4v-2.1h9v2.1H683v10.2H680.7L680.7,587.7z M687.1,581.6
			c0-1.2,0.2-2.3,0.5-3.1c0.2-0.6,0.6-1.2,1.1-1.6c0.5-0.5,1-0.9,1.5-1.2c0.7-0.3,1.5-0.5,2.4-0.5c1.7,0,3.1,0.6,4.1,1.7
			c1,1.2,1.5,2.7,1.5,4.7c0,2-0.5,3.5-1.5,4.6c-1,1.2-2.4,1.7-4,1.7c-1.7,0-3.1-0.6-4-1.6C687.6,585.2,687.1,583.7,687.1,581.6
			L687.1,581.6L687.1,581.6z M689.4,581.5c0,1.4,0.3,2.5,0.8,3.2c0.6,0.7,1.5,1.1,2.4,1.1c0.9,0,1.7-0.4,2.3-1.1
			c0.6-0.7,0.9-1.8,0.9-3.2c0-1.3-0.3-2.5-0.8-3.1c-0.6-0.7-1.5-1.1-2.4-1.1c-0.9,0-1.8,0.4-2.3,1.1
			C689.7,579.1,689.4,580.2,689.4,581.5L689.4,581.5L689.4,581.5z M699.9,587.7v-12.3h3.7c1.4,0,2.4,0.1,2.8,0.2
			c0.6,0.2,1.2,0.6,1.7,1.2c0.5,0.7,0.7,1.5,0.7,2.4c0,0.7-0.2,1.4-0.4,1.9c-0.3,0.5-0.7,1-1,1.2c-0.4,0.3-0.8,0.6-1.2,0.6
			c-0.5,0.1-1.4,0.2-2.4,0.2h-1.5v4.6H699.9L699.9,587.7z M702.2,577.5v3.5h1.3c0.9,0,1.5-0.1,1.8-0.2c0.3-0.1,0.6-0.3,0.8-0.6
			c0.2-0.2,0.3-0.7,0.3-1c0-0.4-0.2-0.8-0.4-1.1c-0.2-0.3-0.6-0.6-1-0.6c-0.3-0.1-0.9-0.2-1.7-0.2H702.2L702.2,577.5z M718.9,584.4
			l2.1-0.2c0,0.6,0.2,1.1,0.5,1.3c0.3,0.3,0.7,0.5,1.1,0.5c0.4,0,0.8-0.2,1.1-0.5c0.3-0.3,0.5-0.9,0.5-1.5c0-0.5-0.2-1-0.4-1.3
			c-0.3-0.3-0.7-0.6-1.1-0.6c-0.2,0-0.6,0.1-0.9,0.2l0.2-2.1c0.5,0,1-0.1,1.3-0.3c0.3-0.3,0.5-0.7,0.5-1.2c0-0.3-0.2-0.7-0.3-1
			c-0.2-0.2-0.6-0.4-0.9-0.4c-0.3,0-0.7,0.2-0.8,0.4c-0.2,0.3-0.5,0.7-0.5,1.2l-2-0.3c0.1-0.7,0.3-1.4,0.5-1.8
			c0.3-0.4,0.7-0.8,1.1-1.1c0.5-0.2,1.1-0.4,1.7-0.4c1.1,0,1.9,0.4,2.5,1.2c0.5,0.6,0.8,1.3,0.8,2.1c0,1.1-0.6,2-1.7,2.6
			c0.6,0.2,1.2,0.5,1.6,1c0.4,0.5,0.6,1.2,0.6,1.9c0,1.1-0.4,2.1-1.1,2.7c-0.8,0.7-1.7,1.2-2.8,1.2c-1,0-1.9-0.3-2.5-0.9
			C719.4,586.4,719,585.5,718.9,584.4L718.9,584.4L718.9,584.4z M735.3,585.5v2.2h-7.7c0-0.8,0.3-1.6,0.7-2.3c0.5-0.7,1.3-1.8,2.5-3
			c0.9-1,1.6-1.6,1.8-2c0.3-0.5,0.5-1,0.5-1.5c0-0.5-0.2-0.9-0.4-1.2c-0.3-0.3-0.7-0.5-1.1-0.5c-0.5,0-0.9,0.2-1.1,0.4
			c-0.3,0.3-0.5,0.8-0.5,1.4l-2.1-0.2c0.1-1.2,0.5-2.2,1.1-2.7c0.7-0.6,1.6-0.9,2.7-0.9c1.1,0,2.1,0.3,2.7,1c0.6,0.7,1,1.5,1,2.5
			c0,0.5-0.2,1.1-0.3,1.6c-0.2,0.5-0.5,1.1-0.9,1.6c-0.2,0.3-0.8,0.9-1.5,1.6c-0.7,0.7-1.1,1.2-1.3,1.4c-0.2,0.2-0.4,0.4-0.5,0.6
			H735.3L735.3,585.5z M740.4,575.4c1.1,0,2,0.5,2.6,1.3c0.8,1,1.1,2.7,1.1,5c0,2.3-0.4,4-1.1,5c-0.6,0.8-1.5,1.2-2.6,1.2
			c-1.1,0-2.1-0.5-2.8-1.3c-0.6-0.9-1-2.6-1-4.9c0-2.3,0.4-4,1.1-5C738.3,575.8,739.3,575.4,740.4,575.4L740.4,575.4z M740.4,577.3
			c-0.3,0-0.6,0.1-0.8,0.2c-0.2,0.2-0.4,0.6-0.5,1.1c-0.2,0.6-0.2,1.6-0.2,3c0,1.4,0.1,2.5,0.2,3c0.2,0.5,0.4,0.9,0.5,1.1
			c0.2,0.2,0.5,0.2,0.8,0.2c0.2,0,0.5-0.1,0.7-0.2c0.2-0.2,0.4-0.5,0.5-1c0.2-0.6,0.3-1.6,0.3-3c0-1.4-0.1-2.5-0.2-3
			c-0.2-0.5-0.4-0.9-0.5-1.1C740.9,577.5,740.6,577.3,740.4,577.3L740.4,577.3z M750.6,578.8v1.2c0.7-1,1.6-1.5,2.5-1.5
			c0.5,0,1.1,0.2,1.4,0.3c0.4,0.2,0.8,0.7,1,1.2c0.3-0.5,0.8-0.9,1.1-1.1c0.5-0.2,0.9-0.4,1.4-0.4c0.6,0,1.2,0.2,1.5,0.4
			c0.3,0.2,0.8,0.8,1,1.2c0.2,0.3,0.2,1.1,0.2,1.8v5.7h-2.2v-5.1c0-0.8-0.1-1.5-0.2-1.6c-0.2-0.3-0.5-0.6-0.9-0.6
			c-0.3,0-0.6,0.2-0.8,0.3c-0.2,0.2-0.6,0.7-0.6,0.9s-0.2,1.1-0.2,1.8v4.3h-2.2v-4.9c0-0.8-0.1-1.5-0.1-1.6
			c-0.1-0.2-0.2-0.5-0.4-0.6c-0.2-0.2-0.5-0.2-0.7-0.2c-0.3,0-0.8,0.2-0.9,0.3c-0.2,0.1-0.5,0.6-0.5,0.8s-0.2,1.2-0.2,1.9v4.3h-2.2
			v-8.9H750.6z"/>
	</g>
</g>
<text transform="matrix(0.9757 0 0 1 258.9429 869.7217)" class="st17 st18 st19">Preavviso di STOP</text>
<g>
	<path d="M263.9,869.7v-38.5h14.2c2.5,0,4.4,0.1,5.7,0.4c1.8,0.3,3.4,0.9,4.6,1.8c1.2,0.9,2.2,2.1,3,3.7c0.8,1.6,1.1,3.3,1.1,5.2
		c0,3.3-1,6-3,8.3c-2,2.3-5.7,3.4-11,3.4h-9.6v15.6H263.9z M268.9,849.6h9.7c3.2,0,5.5-0.6,6.8-1.8c1.3-1.2,2-2.9,2-5.2
		c0-1.6-0.4-3-1.2-4.1c-0.8-1.1-1.8-1.9-3.1-2.3c-0.8-0.2-2.4-0.3-4.6-0.3h-9.6V849.6z"/>
	<path d="M298.3,869.7v-27.9h4.1v4.2c1.1-2,2-3.3,2.9-3.9c0.9-0.6,1.9-0.9,3-0.9c1.6,0,3.1,0.5,4.7,1.5l-1.6,4.4
		c-1.1-0.7-2.3-1-3.4-1c-1,0-1.9,0.3-2.7,0.9c-0.8,0.6-1.4,1.5-1.7,2.6c-0.5,1.7-0.8,3.5-0.8,5.5v14.6H298.3z"/>
	<path d="M334.4,860.8l4.8,0.6c-0.8,2.8-2.1,5.1-4.2,6.6c-2,1.6-4.6,2.4-7.8,2.4c-4,0-7.1-1.3-9.5-3.8c-2.3-2.5-3.5-6-3.5-10.6
		c0-4.7,1.2-8.3,3.5-10.9s5.4-3.9,9.2-3.9c3.6,0,6.6,1.3,8.9,3.8c2.3,2.5,3.5,6.1,3.5,10.7c0,0.3,0,0.7,0,1.3H319
		c0.2,3.1,1,5.4,2.5,7s3.4,2.4,5.7,2.4c1.7,0,3.1-0.5,4.3-1.4S333.7,862.7,334.4,860.8z M319.2,853.1h15.2c-0.2-2.3-0.8-4.1-1.7-5.3
		c-1.5-1.8-3.4-2.7-5.7-2.7c-2.1,0-3.9,0.7-5.3,2.2C320.2,848.7,319.4,850.7,319.2,853.1z"/>
	<path d="M362.6,866.3c-1.7,1.5-3.3,2.5-4.9,3.1c-1.6,0.6-3.3,0.9-5.1,0.9c-3,0-5.3-0.7-6.9-2.2c-1.6-1.5-2.4-3.4-2.4-5.7
		c0-1.4,0.3-2.6,0.9-3.7c0.6-1.1,1.4-2,2.4-2.7s2.1-1.2,3.3-1.5c0.9-0.2,2.3-0.5,4.1-0.7c3.7-0.5,6.5-1,8.2-1.6c0-0.6,0-1.1,0-1.2
		c0-1.9-0.4-3.3-1.3-4.1c-1.2-1.1-2.9-1.6-5.2-1.6c-2.2,0-3.8,0.4-4.8,1.2c-1,0.8-1.8,2.2-2.3,4.1l-4.5-0.6c0.4-2,1.1-3.6,2-4.8
		c0.9-1.2,2.3-2.2,4.1-2.8c1.8-0.7,3.8-1,6.2-1c2.3,0,4.2,0.3,5.7,0.8c1.5,0.6,2.5,1.3,3.2,2.1c0.7,0.8,1.2,1.9,1.4,3.2
		c0.2,0.8,0.2,2.3,0.2,4.4v6.3c0,4.4,0.1,7.2,0.3,8.3s0.6,2.3,1.2,3.3h-4.8C363.1,868.7,362.8,867.6,362.6,866.3z M362.3,855.7
		c-1.7,0.7-4.2,1.3-7.5,1.8c-1.9,0.3-3.2,0.6-4,0.9c-0.8,0.4-1.4,0.9-1.8,1.5c-0.4,0.7-0.6,1.4-0.6,2.2c0,1.3,0.5,2.3,1.4,3.1
		c0.9,0.8,2.3,1.3,4.1,1.3c1.8,0,3.4-0.4,4.7-1.2s2.4-1.9,3-3.3c0.5-1.1,0.7-2.6,0.7-4.7V855.7z"/>
	<path d="M381.6,869.7l-10.3-27.9h4.9l5.8,16.7c0.6,1.8,1.2,3.7,1.7,5.6c0.4-1.5,1-3.2,1.7-5.3l6-17h4.7l-10.3,27.9H381.6z"/>
	<path d="M407.8,869.7l-10.3-27.9h4.9l5.8,16.7c0.6,1.8,1.2,3.7,1.7,5.6c0.4-1.5,1-3.2,1.7-5.3l6-17h4.7l-10.3,27.9H407.8z"/>
	<path d="M426.5,836.7v-5.4h4.6v5.4H426.5z M426.5,869.7v-27.9h4.6v27.9H426.5z"/>
	<path d="M436.3,861.4l4.6-0.7c0.3,1.9,1,3.3,2.1,4.3c1.2,1,2.8,1.5,4.9,1.5c2.1,0,3.7-0.4,4.7-1.3c1-0.9,1.5-1.9,1.5-3.1
		c0-1.1-0.5-1.9-1.4-2.5c-0.6-0.4-2.2-1-4.7-1.6c-3.4-0.9-5.7-1.6-7-2.3c-1.3-0.6-2.3-1.5-3-2.6c-0.7-1.1-1-2.4-1-3.7
		c0-1.2,0.3-2.4,0.8-3.4c0.6-1.1,1.3-1.9,2.3-2.6c0.7-0.5,1.7-1,2.9-1.4c1.2-0.4,2.6-0.6,4-0.6c2.1,0,4,0.3,5.6,0.9
		c1.6,0.6,2.8,1.5,3.6,2.6c0.8,1.1,1.3,2.5,1.6,4.3l-4.5,0.6c-0.2-1.4-0.8-2.6-1.8-3.4c-1-0.8-2.4-1.2-4.2-1.2
		c-2.1,0-3.6,0.4-4.5,1.1c-0.9,0.7-1.4,1.6-1.4,2.5c0,0.6,0.2,1.2,0.6,1.7c0.4,0.5,1,0.9,1.8,1.3c0.5,0.2,1.8,0.6,4.1,1.2
		c3.3,0.9,5.5,1.6,6.8,2.2c1.3,0.6,2.3,1.4,3,2.5c0.7,1.1,1.1,2.4,1.1,4c0,1.6-0.4,3.1-1.3,4.4c-0.9,1.4-2.2,2.5-3.9,3.2
		s-3.6,1.1-5.7,1.1c-3.5,0-6.2-0.8-8.1-2.3C438,866.6,436.8,864.4,436.3,861.4z"/>
	<path d="M462.6,855.8c0-5.2,1.4-9,4.2-11.5c2.3-2.1,5.2-3.1,8.5-3.1c3.7,0,6.8,1.3,9.2,3.8s3.6,6,3.6,10.4c0,3.6-0.5,6.4-1.6,8.5
		c-1,2.1-2.6,3.7-4.6,4.8c-2,1.1-4.2,1.7-6.6,1.7c-3.8,0-6.9-1.3-9.2-3.8C463.8,864.1,462.6,860.5,462.6,855.8z M467.3,855.8
		c0,3.6,0.8,6.2,2.3,8c1.5,1.8,3.4,2.7,5.7,2.7c2.3,0,4.2-0.9,5.7-2.7c1.5-1.8,2.3-4.5,2.3-8.2c0-3.4-0.8-6.1-2.3-7.8
		c-1.5-1.8-3.4-2.7-5.7-2.7c-2.3,0-4.2,0.9-5.7,2.6C468.1,849.6,467.3,852.2,467.3,855.8z"/>
	<path d="M525.7,869.7v-3.5c-1.7,2.8-4.3,4.1-7.6,4.1c-2.2,0-4.2-0.6-6-1.8c-1.8-1.2-3.2-2.9-4.2-5.1s-1.5-4.7-1.5-7.6
		c0-2.8,0.5-5.3,1.4-7.6c0.9-2.3,2.3-4,4.1-5.2c1.8-1.2,3.8-1.8,6.1-1.8c1.6,0,3.1,0.4,4.4,1.1s2.3,1.6,3.1,2.8v-13.8h4.6v38.5
		H525.7z M511.1,855.8c0,3.6,0.7,6.2,2.2,8c1.5,1.8,3.2,2.6,5.2,2.6c2,0,3.7-0.8,5.1-2.5c1.4-1.7,2.1-4.3,2.1-7.7
		c0-3.8-0.7-6.6-2.1-8.4c-1.4-1.8-3.2-2.7-5.3-2.7c-2,0-3.8,0.9-5.1,2.6S511.1,852.1,511.1,855.8z"/>
	<path d="M537.2,836.7v-5.4h4.6v5.4H537.2z M537.2,869.7v-27.9h4.6v27.9H537.2z"/>
	<path d="M562.3,857.4l4.7-0.4c0.2,1.9,0.7,3.5,1.5,4.7c0.8,1.2,2.1,2.2,3.8,3s3.6,1.1,5.8,1.1c1.9,0,3.6-0.3,5-0.9s2.5-1.4,3.2-2.4
		c0.7-1,1.1-2.1,1.1-3.3c0-1.2-0.3-2.3-1-3.2c-0.7-0.9-1.8-1.7-3.4-2.3c-1-0.4-3.2-1-6.7-1.9c-3.4-0.8-5.9-1.6-7.2-2.4
		c-1.8-1-3.1-2.2-4-3.6c-0.9-1.4-1.3-3-1.3-4.8c0-1.9,0.5-3.8,1.6-5.4c1.1-1.7,2.6-3,4.7-3.8s4.4-1.3,6.9-1.3c2.8,0,5.2,0.5,7.4,1.4
		s3.8,2.3,4.9,4.1c1.1,1.8,1.8,3.8,1.8,6.1l-4.8,0.4c-0.3-2.4-1.1-4.3-2.6-5.5c-1.5-1.2-3.7-1.9-6.5-1.9c-3,0-5.2,0.6-6.6,1.7
		c-1.4,1.1-2.1,2.5-2.1,4.1c0,1.4,0.5,2.5,1.5,3.4c1,0.9,3.5,1.8,7.5,2.7c4,0.9,6.8,1.8,8.3,2.5c2.2,1,3.8,2.3,4.8,3.9
		c1,1.6,1.6,3.4,1.6,5.5c0,2-0.6,4-1.7,5.8c-1.1,1.8-2.8,3.2-4.9,4.2c-2.1,1-4.6,1.5-7.2,1.5c-3.4,0-6.2-0.5-8.5-1.5
		c-2.3-1-4.1-2.5-5.4-4.6C563,862.2,562.3,859.9,562.3,857.4z"/>
	<path d="M608.5,869.7v-33.9h-12.4v-4.5h29.7v4.5h-12.4v33.9H608.5z"/>
	<path d="M628.5,851c0-6.4,1.7-11.4,5-15c3.3-3.6,7.7-5.4,12.9-5.4c3.5,0,6.6,0.8,9.4,2.5c2.8,1.7,4.9,4.1,6.4,7.1
		c1.5,3,2.2,6.5,2.2,10.3c0,3.9-0.8,7.4-2.3,10.5c-1.5,3.1-3.7,5.4-6.5,7c-2.8,1.6-5.9,2.4-9.1,2.4c-3.5,0-6.7-0.9-9.5-2.6
		c-2.8-1.7-4.9-4.1-6.3-7.2C629.2,857.6,628.5,854.4,628.5,851z M633.6,851.1c0,4.6,1.2,8.3,3.6,11c2.4,2.7,5.5,4,9.1,4
		c3.7,0,6.8-1.3,9.2-4c2.4-2.7,3.6-6.5,3.6-11.5c0-3.1-0.5-5.9-1.5-8.2c-1-2.3-2.5-4.1-4.5-5.4c-2-1.3-4.2-1.9-6.7-1.9
		c-3.5,0-6.5,1.2-9.1,3.7C634.9,841.2,633.6,845.3,633.6,851.1z"/>
	<path d="M670.8,869.7v-38.5h14.2c2.5,0,4.4,0.1,5.7,0.4c1.8,0.3,3.4,0.9,4.6,1.8c1.2,0.9,2.2,2.1,3,3.7c0.8,1.6,1.1,3.3,1.1,5.2
		c0,3.3-1,6-3,8.3s-5.7,3.4-11,3.4h-9.6v15.6H670.8z M675.7,849.6h9.7c3.2,0,5.5-0.6,6.8-1.8s2-2.9,2-5.2c0-1.6-0.4-3-1.2-4.1
		c-0.8-1.1-1.8-1.9-3.1-2.3c-0.8-0.2-2.4-0.3-4.6-0.3h-9.6V849.6z"/>
</g>
<line class="st20" x1="401.8" y1="556.5" x2="655.8" y2="643.5"/>
</svg>
