<?xml version="1.0" encoding="utf-8"?>
<!-- Generator: Adobe Illustrator 19.2.0, SVG Export Plug-In . SVG Version: 6.00 Build 0)  -->
<svg version="1.1" id="Livello_1" xmlns="http://www.w3.org/2000/svg" xmlns:xlink="http://www.w3.org/1999/xlink" x="0px" y="0px"
	 viewBox="0 0 960 960" style="enable-background:new 0 0 960 960;" xml:space="preserve">
<style type="text/css">
	.st0{fill-rule:evenodd;clip-rule:evenodd;fill:#FFFFFF;stroke:#1A171B;stroke-width:1.0814;stroke-miterlimit:2.6131;}
	.st1{fill-rule:evenodd;clip-rule:evenodd;fill:#E1001A;}
	.st2{fill-rule:evenodd;clip-rule:evenodd;fill:#FFFFFF;stroke:#E1001A;stroke-width:3.6045;stroke-miterlimit:2.6131;}
	.st3{fill:#FFFFFF;stroke:#1A171B;stroke-width:1.0814;stroke-miterlimit:2.6131;}
	.st4{fill:none;stroke:#1A171B;stroke-width:7.209;stroke-miterlimit:2.6131;}
	.st5{fill-rule:evenodd;clip-rule:evenodd;fill:#1A171B;}
</style>
<g>
	<g>
		<path class="st0" d="M713.5,336c25.1,1,40.2,19.8,36.3,44.8l-0.9,3.8l-1.5,4.1l-1.8,4L515,792.7c-11.6,17.8-27.9,27.9-49.2,18.9
			c-8.1-4.4-13.9-10.7-18.6-18.4L217,394.6c-8.4-15.7-11.6-32.3,1.2-46.8c10.1-10.7,22.8-11.9,37-11.9l452.8,0.1H713.5L713.5,336z"
			/>
		<path class="st1" d="M707.9,347.6c7,0.1,13.9-0.7,21.3,4.7c7.3,5.4,14.1,19.2,6.2,35.1L505,786.7c-12.9,22.6-35.7,22-48,0.6
			L227.1,388.8c-4.8-8.5-9-20.6-3.4-29.5c7.3-11.7,18.9-11.7,31.4-11.9L707.9,347.6L707.9,347.6z"/>
		<polygon class="st2" points="677.2,394.4 480.6,734.6 284.5,394.4 677.2,394.4 		"/>
		<polygon class="st3" points="244,145 715,145 715,323.2 244,323.2 244,145 		"/>
		<path class="st4" d="M280.1,157.8H679c12.8,0,23.3,10.5,23.3,23.3v106.2c0,12.8-10.5,23.3-23.3,23.3H280.1
			c-12.8,0-23.3-10.5-23.3-23.3V181.1C256.8,168.3,267.3,157.8,280.1,157.8L280.1,157.8z"/>
		<path class="st5" d="M554.6,233c4.4-7.2,22.5-6.9,25.1,1.3c6.4-10.2,27-7.9,27,4.6v33.2h-15.2v-26.3c0-2.6,0-7.7-4.8-7.7
			c-3.8,0-6,4.3-6,6.4v27.6h-15.2v-26.3c0-2.6,0-7.7-4.8-7.7c-3.8,0-6,4.3-6,6.4v27.6h-15.2c0-12.5,0-27.3,0-39.9c0-1-0.6-2-0.6-3.1
			H554L554.6,233L554.6,233z"/>
		<path class="st5" d="M341.1,251.2l14.4-1.9c0.4,3.8,1.8,6.6,3.3,8.4c2,1.9,4.7,2.8,7.2,2.8c2.5,0,5.3-1.3,7.2-3.2
			c2-2,3.3-5.2,3.3-9c0-3.3-1-6.5-2.9-8.2c-2-1.9-4.7-3.2-7.2-3.2c-1.8,0-3.9,0.6-6.2,1.3l1.4-12.5c3.5,0,6.4-0.6,8.4-2.1
			c2-1.9,3.3-4.4,3.3-7.3c0-2-1-4.3-2.3-5.5c-1.4-1.6-3.5-2.4-5.9-2.4c-2.3,0-4.7,0.8-5.9,2.4c-1.8,1.6-2.9,4.1-2.9,6.8l-13.9-1.7
			c0.8-4.4,2.3-8,3.9-10.6c2-2.5,4.9-4.9,8.2-6.1c3.3-1.6,7.6-2.5,11.5-2.5c7.2,0,13.1,2.5,17.4,6.8c3.5,3.8,5.5,8,5.5,12.5
			c0,6.2-3.9,11.7-11.7,15.4c4.3,0.8,8.2,3,10.7,6.1c2.7,3,4.3,7.1,4.3,11.3c0,6.3-2.5,12.1-7.4,16.4c-5.1,4.4-11.1,6.8-18.3,6.8
			c-7,0-12.9-1.7-17.4-5.5C344.4,263,341.9,257.4,341.1,251.2L341.1,251.2z M452.9,258v13.1h-53.1c0.2-5,2.3-9.6,4.9-14
			c2.5-4.3,8.6-10.4,16.8-17.8c6.4-5.7,11.1-9.9,12.3-12.1c2-2.7,3.3-5.8,3.3-8.7c0-3-1-5.5-2.5-7.1c-2-1.9-4.7-2.7-8-2.7
			c-2.9,0-5.5,0.8-7.2,2.4c-2,1.9-3.1,5-3.1,8.7l-15-1.3c0.6-7.4,3.5-13.2,8-16.4c4.7-3.3,10.9-5.2,18.1-5.2c7.8,0,14,2.2,18.5,5.8
			c4.7,4.1,7,9.3,7,14.8c0,3.2-0.8,6.6-1.9,9.6c-1.4,3.2-3.7,6.5-6.2,9.6c-1.8,1.9-5.3,5.2-9.9,9.3c-4.9,3.9-8.2,6.8-9.4,8
			c-1.4,1.3-2.7,2.7-3.3,3.9H452.9L452.9,258z M487.8,196.8c7.2,0,13.5,2.8,17.7,7.7c5.3,6.1,7.8,16.4,7.8,30.3
			c0,13.6-2.5,23.8-7.8,30c-4.3,5-10.5,7.4-17.7,7.4c-7.8,0-14-2.7-18.7-8c-4.5-5.5-6.8-15.5-6.8-29.6c0-13.6,2.7-23.8,7.6-30
			C474.2,199.7,480.4,196.8,487.8,196.8L487.8,196.8z M487.8,208.7c-2,0-3.5,0.5-4.9,1.4c-1.4,1.3-2.9,3.5-3.5,6.3
			c-0.8,3.6-1.4,9.8-1.4,18.4c0,8.7,0.6,14.5,1.4,17.7c0.6,3.2,2,5.5,3.1,6.5c1.4,0.9,3.3,1.6,5.3,1.6c1.8,0,3.3-0.6,4.7-1.6
			c1.2-0.9,2.9-3,3.5-5.8c1-3.5,1.6-9.6,1.6-18.3c0-8.7-0.6-14.8-1.2-18c-1-3-2.3-5.5-3.7-6.5C491.5,209.1,489.6,208.7,487.8,208.7
			L487.8,208.7z"/>
	</g>
</g>
</svg>
