<?xml version="1.0" encoding="utf-8"?>
<!-- Generator: Adobe Illustrator 19.2.0, SVG Export Plug-In . SVG Version: 6.00 Build 0)  -->
<svg version="1.1" id="Livello_1" xmlns="http://www.w3.org/2000/svg" xmlns:xlink="http://www.w3.org/1999/xlink" x="0px" y="0px"
	 viewBox="0 0 960 960" style="enable-background:new 0 0 960 960;" xml:space="preserve">
<style type="text/css">
	.st0{fill-rule:evenodd;clip-rule:evenodd;fill:#FFFFFF;stroke:#1A171B;stroke-width:2.121;stroke-miterlimit:2.6131;}
	.st1{fill-rule:evenodd;clip-rule:evenodd;fill:#E1001A;}
	.st2{fill-rule:evenodd;clip-rule:evenodd;fill:#FFFFFF;}
	.st3{fill-rule:evenodd;clip-rule:evenodd;fill:#E1001A;stroke:#E1001A;stroke-width:1.3597;stroke-miterlimit:2.6131;}
	.st4{fill-rule:evenodd;clip-rule:evenodd;fill:#1A171B;stroke:#1A171B;stroke-width:1.3597;stroke-miterlimit:2.6131;}
</style>
<g>
	<g>
		<path class="st0" d="M480,179.7c165.4,0,300.3,134.9,300.3,300.3c0,165.4-134.9,300.3-300.3,300.3
			c-165.4,0-300.3-134.9-300.3-300.3C179.7,314.6,314.6,179.7,480,179.7L480,179.7z"/>
		<path class="st1" d="M480,196.9c155.9,0,283.1,127.2,283.1,283.1c0,155.9-127.2,283.1-283.1,283.1
			c-155.9,0-283.1-127.2-283.1-283.1C196.9,324.1,324.1,196.9,480,196.9L480,196.9z"/>
		<path class="st2" d="M480.9,268.7c116.1,0,210.7,94.7,210.7,210.7s-94.7,210.7-210.7,210.7c-116.1,0-210.7-94.7-210.7-210.7
			S364.8,268.7,480.9,268.7L480.9,268.7z"/>
		<path class="st3" d="M576.9,615.1V453.1l28.1,7.2c9.3,2.7,13.2-4.1,9.5-9.5l-56.3-103.2l-56.3,103.2c-2,5.5,0.2,11.8,9.3,9.5
			l28.3-7.2v162.1H576.9z"/>
		<path class="st4" d="M422.9,347.5v162.1l28.1-7.1c9.3-2.7,13.2,4.1,9.5,9.5l-56.3,103.2l-56.3-103.2c-2-5.5,0.2-11.8,9.3-9.5
			l28.3,7.1V347.5H422.9z"/>
	</g>
</g>
</svg>
