<?xml version="1.0" encoding="utf-8"?>
<!-- Generator: Adobe Illustrator 19.2.0, SVG Export Plug-In . SVG Version: 6.00 Build 0)  -->
<svg version="1.1" id="Livello_1" xmlns="http://www.w3.org/2000/svg" xmlns:xlink="http://www.w3.org/1999/xlink" x="0px" y="0px"
	 viewBox="0 0 960 960" style="enable-background:new 0 0 960 960;" xml:space="preserve">
<style type="text/css">
	.st0{fill-rule:evenodd;clip-rule:evenodd;fill:#FFFFFF;stroke:#1A171B;stroke-width:1.4925;stroke-miterlimit:2.6131;}
	.st1{fill-rule:evenodd;clip-rule:evenodd;fill:#FFEC00;stroke:#1A171B;stroke-width:7.4626;stroke-miterlimit:2.6131;}
	.st2{fill:none;stroke:#1A171B;stroke-width:7.4626;stroke-miterlimit:2.6131;}
	.st3{fill-rule:evenodd;clip-rule:evenodd;fill:#1A171B;stroke:#1A171B;stroke-width:1.4925;stroke-miterlimit:2.6131;}
</style>
<g>
	<g>
		<polygon class="st0" points="479.1,145 815,480.9 480.9,815 145,479.1 479.1,145 		"/>
		<polygon class="st1" points="479.5,274.6 686,481.1 480.6,686.4 274.1,480 479.5,274.6 		"/>
		<path class="st2" d="M495.8,185l279.6,279.6c9.3,9.3,9.3,24.5,0,33.7L497.5,776.1c-9.3,9.3-24.5,9.3-33.7,0L184.2,496.6
			c-9.3-9.3-9.3-24.5,0-33.7L462,185C471.3,175.7,486.5,175.7,495.8,185L495.8,185z"/>
		<polygon class="st3" points="283.3,617.6 603.6,297.2 662,355.6 341.6,675.9 283.3,617.6 		"/>
	</g>
</g>
</svg>
