<?xml version="1.0" encoding="utf-8"?>
<!-- Generator: Adobe Illustrator 19.2.0, SVG Export Plug-In . SVG Version: 6.00 Build 0)  -->
<svg version="1.1" id="Livello_1" xmlns="http://www.w3.org/2000/svg" xmlns:xlink="http://www.w3.org/1999/xlink" x="0px" y="0px"
	 viewBox="0 0 960 960" style="enable-background:new 0 0 960 960;" xml:space="preserve">
<style type="text/css">
	.st0{fill-rule:evenodd;clip-rule:evenodd;fill:#FFFFFF;stroke:#1A171B;stroke-width:1.8295;stroke-miterlimit:2.6131;}
	.st1{fill-rule:evenodd;clip-rule:evenodd;fill:#E1001A;}
	.st2{fill-rule:evenodd;clip-rule:evenodd;fill:#FFFFFF;stroke:#FFFFFF;stroke-width:1.3605;stroke-miterlimit:2.6131;}
</style>
<g>
	<g>
		<path class="st0" d="M480,180c165.2,0,300,134.8,300,300c0,165.2-134.8,300-300,300S180,645.2,180,480
			C180,314.8,314.8,180,480,180L480,180z"/>
		<path class="st1" d="M480.9,196.3c155.9,0,283.1,127.2,283.1,283.1S636.8,762.5,480.9,762.5S197.7,635.3,197.7,479.4
			S324.9,196.3,480.9,196.3L480.9,196.3z"/>
		<path class="st1" d="M480.9,268.7c116.1,0,210.7,94.7,210.7,210.7c0,116.1-94.7,210.7-210.7,210.7
			c-116.1,0-210.7-94.7-210.7-210.7C270.1,363.3,364.8,268.7,480.9,268.7L480.9,268.7z"/>
		<path class="st2" d="M227.4,408.4h503.2c1.5,0,2.7,1.4,2.7,3v127.8c0,1.7-1.2,3-2.7,3H227.4c-1.5,0-2.7-1.4-2.7-3V411.4
			C224.6,409.7,225.8,408.4,227.4,408.4L227.4,408.4z"/>
	</g>
</g>
</svg>
