<?xml version="1.0" encoding="utf-8"?>
<!-- Generator: Adobe Illustrator 19.2.0, SVG Export Plug-In . SVG Version: 6.00 Build 0)  -->
<svg version="1.1" id="Livello_1" xmlns="http://www.w3.org/2000/svg" xmlns:xlink="http://www.w3.org/1999/xlink" x="0px" y="0px"
	 viewBox="0 0 960 960" style="enable-background:new 0 0 960 960;" xml:space="preserve">
<style type="text/css">
	.st0{fill-rule:evenodd;clip-rule:evenodd;fill:#FFFFFF;stroke:#1A171B;stroke-width:1.8295;stroke-miterlimit:2.6131;}
	.st1{fill-rule:evenodd;clip-rule:evenodd;fill:#E1001A;}
	.st2{fill-rule:evenodd;clip-rule:evenodd;fill:#FFFFFF;}
	.st3{fill-rule:evenodd;clip-rule:evenodd;fill:#1A171B;stroke:#1A171B;stroke-width:4.5324;stroke-miterlimit:2.6131;}
	.st4{fill-rule:evenodd;clip-rule:evenodd;fill:#1A171B;stroke:#1A171B;stroke-width:3.6259;stroke-miterlimit:2.6131;}
	.st5{fill-rule:evenodd;clip-rule:evenodd;fill:#FFFFFF;stroke:#FFFFFF;stroke-width:4.5324;stroke-miterlimit:2.6131;}
	.st6{fill-rule:evenodd;clip-rule:evenodd;fill:#1A171B;}
</style>
<g>
	<g>
		<path class="st0" d="M480,180c165.2,0,300,134.8,300,300c0,165.2-134.8,300-300,300S180,645.2,180,480
			C180,314.8,314.8,180,480,180L480,180z"/>
		<path class="st1" d="M480.9,196.2c155.9,0,283.1,127.2,283.1,283.1c0,155.9-127.2,283.1-283.1,283.1
			c-155.9,0-283.1-127.2-283.1-283.1C197.7,323.4,324.9,196.2,480.9,196.2L480.9,196.2z"/>
		<path class="st2" d="M480.9,268.7c116.1,0,210.7,94.7,210.7,210.7s-94.7,210.7-210.7,210.7c-116.1,0-210.7-94.7-210.7-210.7
			S364.8,268.7,480.9,268.7L480.9,268.7z"/>
		<path class="st3" d="M378.8,522.9c18.3,0,33.3,14.9,33.3,33.3c0,18.3-14.9,33.3-33.3,33.3c-18.3,0-33.3-14.9-33.3-33.3
			C345.5,537.8,360.5,522.9,378.8,522.9L378.8,522.9z"/>
		<path class="st4" d="M422.1,564.9c2.1-19.8-3.1-31.3-15-42.2l64.7,0.3L460.1,559L422.1,564.9L422.1,564.9z"/>
		<path class="st5" d="M378.8,538.5c9.7,0,17.6,7.9,17.6,17.6c0,9.7-7.9,17.6-17.6,17.6c-9.7,0-17.6-7.9-17.6-17.6
			C361.2,546.5,369.1,538.5,378.8,538.5L378.8,538.5z"/>
		<path class="st3" d="M610.3,522.9c18.3,0,33.3,14.9,33.3,33.3c0,18.3-14.9,33.3-33.3,33.3c-18.3,0-33.3-14.9-33.3-33.3
			C577,537.8,591.9,522.9,610.3,522.9L610.3,522.9z"/>
		<path class="st4" d="M505.6,558l-12.9-35.4l90.3,0.3c-13,11.7-16.8,20.3-15.2,41.8L505.6,558L505.6,558z"/>
		<path class="st5" d="M610.3,538.5c9.7,0,17.6,7.9,17.6,17.6c0,9.7-7.9,17.6-17.6,17.6c-9.7,0-17.6-7.9-17.6-17.6
			C592.7,546.5,600.6,538.5,610.3,538.5L610.3,538.5z"/>
		<path class="st6" d="M387.7,423.1l31.4-57.9h-39.8v-16.7l60.2,0.1v16.5l-32.4,58H387.7L387.7,423.1z M513.4,386.4
			c0,11.8-2.8,21.4-8.2,28c-5.4,6.4-13.5,10.2-23.3,10.2c-9.9,0-18.1-3.8-23.3-10.2c-5.2-6.4-8.4-16.5-8.4-28.5
			c0-12,3.1-21.8,8.4-28.5c5.4-6.7,13.4-10.4,23.3-10.4c9.9,0,17.5,3.5,23,10.4C510.6,364.2,513.4,374,513.4,386.4L513.4,386.4z"/>
		<path class="st6" d="M583.7,423.1v-20.5c0-3.3-0.4-5.5-1.3-6.7c-0.8-1.2-2.3-1.9-4.4-1.9c-2.6,0-4.4,0.9-5.4,2.6
			c-1,1.7-1.5,5.2-1.5,10.6v15.9h-13.4v-20.5c0-3.3-0.4-5.6-1.2-6.8c-0.8-1.2-2.3-1.8-4.3-1.8c-2.6,0-4.4,0.9-5.4,2.6
			c-1,1.7-1.5,5.2-1.5,10.6v15.9h-13.4v-37.6h13.6v6.6c1.6-2.7,3.5-4.6,5.6-5.9c2.1-1.3,4.6-1.9,7.5-1.9c3.2,0,5.8,0.6,7.8,1.8
			c2,1.2,3.5,2.9,4.4,5.3c1.5-2.4,3.4-4.2,5.6-5.3c2.2-1.2,4.8-1.8,7.8-1.8c2.4,0,4.4,0.4,6.2,1.1c1.8,0.8,3.3,1.9,4.5,3.4
			c1,1.2,1.6,2.6,2,4.2c0.4,1.6,0.6,4.2,0.6,7.7v0.8v21.5H583.7L583.7,423.1z"/>
		<path class="st2" d="M498.2,386.1c0,6.6-1.3,11.9-4.1,15.6c-2.8,3.7-6.8,5.7-11.8,5.7c-5,0-9.1-2-11.9-5.7
			c-2.8-3.8-4.3-9.2-4.3-16c0-6.7,1.5-12.1,4.3-15.9c2.8-3.8,6.8-5.8,11.9-5.8c5.1,0,8.9,2,11.7,5.8
			C496.7,373.6,498.2,379.1,498.2,386.1L498.2,386.1z"/>
		<path class="st4" d="M295.3,412.3c-1.3,3.6-2.7,7.2-3.6,11.2l37.1,36.7l15.2,0.4L295.3,412.3L295.3,412.3z"/>
		<path class="st4" d="M286.3,509.8c-1.3-10.3-2.7-21-2.7-31.7c0-2.2,0.4-4.5,0.4-6.3h60.4l114,11.6l11.2,26.4H286.3L286.3,509.8z"
			/>
		<path class="st4" d="M288.1,521c3.1,14.3,8,28.6,14.8,41.6h30c-1.3-14.3,0.9-32.6,17-41.6H288.1L288.1,521z"/>
		<path class="st4" d="M659.6,563c6.7-13,11.6-27.3,14.8-42.5h-38c14.3,12.1,17,25.5,13.4,42.5H659.6L659.6,563z"/>
		<path class="st4" d="M679.3,471.3c0,2.2,0,4.5,0,6.7c0,10.7-0.9,21.5-2.2,31.7c-14.8,0-90.8,0-186.9,0l12.1-38.5H679.3
			L679.3,471.3z"/>
		<path class="st4" d="M669.5,416.3c-1.3-4-2.7-8-4.5-12.1h-21l-47.8,55.9h40.2l25-44.3L669.5,416.3L669.5,416.3z"/>
	</g>
</g>
</svg>
