<?xml version="1.0" encoding="utf-8"?>
<!-- Generator: Adobe Illustrator 19.2.0, SVG Export Plug-In . SVG Version: 6.00 Build 0)  -->
<svg version="1.1" id="Livello_1" xmlns="http://www.w3.org/2000/svg" xmlns:xlink="http://www.w3.org/1999/xlink" x="0px" y="0px"
	 viewBox="0 0 960 960" style="enable-background:new 0 0 960 960;" xml:space="preserve">
<style type="text/css">
	.st0{fill-rule:evenodd;clip-rule:evenodd;fill:#FFFFFF;stroke:#1A171B;stroke-width:1.8295;stroke-miterlimit:2.6131;}
	.st1{fill-rule:evenodd;clip-rule:evenodd;fill:#E1001A;}
	.st2{fill-rule:evenodd;clip-rule:evenodd;fill:#FFFFFF;}
	.st3{fill-rule:evenodd;clip-rule:evenodd;fill:#1A171B;stroke:#1A171B;stroke-width:1.3597;stroke-miterlimit:2.6131;}
</style>
<g>
	<g>
		<path class="st0" d="M480,180c165.2,0,300,134.8,300,300c0,165.2-134.8,300-300,300S180,645.2,180,480
			C180,314.8,314.8,180,480,180L480,180z"/>
		<path class="st1" d="M480.9,196.2c155.9,0,283.1,127.2,283.1,283.1c0,155.9-127.2,283.1-283.1,283.1
			c-155.9,0-283.1-127.2-283.1-283.1C197.7,323.4,324.9,196.2,480.9,196.2L480.9,196.2z"/>
		<path class="st2" d="M480.9,268.7c116.1,0,210.7,94.7,210.7,210.7s-94.7,210.7-210.7,210.7c-116.1,0-210.7-94.7-210.7-210.7
			S364.8,268.7,480.9,268.7L480.9,268.7z"/>
		<path class="st3" d="M373.7,475.9c-10.5-3.4-18.6-10.3-23.9-19.9c-5.5-9.9-8.1-22.7-8.1-38.2c0-22.3,5.2-39.7,15.3-51.7
			c10.3-12.2,25-18.4,44.2-18.4c20.3,0,35.9,6.2,46.4,17.8c10.5,12,15.8,30,15.8,53.4c0,15.2-2.6,27.3-7.5,36.5
			c-5,9-12.7,16.1-23.4,20.4c13.3,2.6,23.2,9.4,29.8,19.3c6.4,10.1,9.8,24,9.8,41.6c0,24.9-5.9,43.8-17.5,56.4
			c-11.4,12.6-28.9,18.9-51.9,18.9c-20.8,0-37-6.4-48.2-18.9c-11.4-12.7-17.1-30.9-17.1-53.8c0-17.6,3.1-32.2,9.4-42.9
			C352.9,485.5,362.1,478.6,373.7,475.9L373.7,475.9z M384.7,414.7c0,10.5,2.2,19.7,5,25.7c2.9,6,7.4,11.1,12.5,11.1
			c5.7,0,10.5-4.9,13.1-10.9c2.2-5.6,4.2-15.5,4.2-27.2c0-9.9-2.2-18.7-5.2-24.2s-7.7-10.3-13.4-10.3c-4.8,0-9.4,5.1-11.8,10.7
			C386.7,395.6,384.7,404.8,384.7,414.7L384.7,414.7z M385.3,538.9c-0.6,11.4,1.5,21.4,4.2,28.1c2.9,6.9,8.3,13.3,14.2,13.3
			c6.3,0,11.8-5.2,14.5-11.2c2.9-6.2,4-15.4,4-26.4c0-11.8-0.9-21.9-4-28.8c-3.1-6.9-8.5-13.5-14.7-13.5c-5.9,0-11.2,5.8-14,12
			c-2.9,6.4-4.8,15.5-4.2,26.8V538.9L385.3,538.9z M554.1,561c8.5,0,14.5-5.8,18-17.6c3.5-11.8,5.5-31.5,5.5-59.2
			c0-30.5-2-52.6-5.5-65.6c-3.7-12.9-9.8-19.7-18.2-19.7c-8.3,0-14.5,6.4-18.4,19.3c-3.9,12.7-5.7,33.5-5.7,62.2
			c0,30,1.8,50.9,5.5,62.7c3.7,11.6,9.9,17.8,18.6,17.8H554.1L554.1,561z M553.7,612.5c-23.4,0-40.9-11.6-52.3-33.3
			c-11.4-21.9-17.3-55.4-17.3-100c0-43.1,5.9-76.2,17.5-98c11.4-22.1,28.9-33.3,51.7-33.3c23.4,0,40.9,10.9,52.3,32.8
			c11.8,21.9,17.7,54.9,17.7,98.5c0,44.6-5.9,78.1-17.5,100c-11.4,21.7-29.1,33-52.3,33L553.7,612.5L553.7,612.5z"/>
	</g>
</g>
</svg>
