<?xml version="1.0" encoding="utf-8"?>
<!-- Generator: Adobe Illustrator 19.2.0, SVG Export Plug-In . SVG Version: 6.00 Build 0)  -->
<svg version="1.1" id="Livello_1" xmlns="http://www.w3.org/2000/svg" xmlns:xlink="http://www.w3.org/1999/xlink" x="0px" y="0px"
	 viewBox="0 0 960 960" style="enable-background:new 0 0 960 960;" xml:space="preserve">
<style type="text/css">
	.st0{fill-rule:evenodd;clip-rule:evenodd;fill:#FFFFFF;stroke:#1A171B;stroke-width:1.8295;stroke-miterlimit:2.6131;}
	.st1{fill-rule:evenodd;clip-rule:evenodd;fill:#E1001A;}
	.st2{fill-rule:evenodd;clip-rule:evenodd;fill:#FFFFFF;}
	.st3{fill-rule:evenodd;clip-rule:evenodd;fill:#1A171B;stroke:#1A171B;stroke-width:1.3605;stroke-miterlimit:2.6131;}
	.st4{fill-rule:evenodd;clip-rule:evenodd;fill:#FFFFFF;stroke:#1A171B;stroke-width:1.3605;stroke-miterlimit:2.6131;}
</style>
<g>
	<g>
		<path class="st0" d="M480,180c165.2,0,300,134.8,300,300c0,165.2-134.8,300-300,300S180,645.2,180,480
			C180,314.8,314.8,180,480,180L480,180z"/>
		<path class="st1" d="M480.9,196.2c155.9,0,283.1,127.2,283.1,283.1S636.8,762.5,480.9,762.5c-155.9,0-283.1-127.2-283.1-283.1
			S324.9,196.2,480.9,196.2L480.9,196.2z"/>
		<path class="st2" d="M480.9,268.7c116.1,0,210.7,94.7,210.7,210.7c0,116.1-94.7,210.7-210.7,210.7
			c-116.1,0-210.7-94.7-210.7-210.7C270.1,363.3,364.8,268.7,480.9,268.7L480.9,268.7z"/>
		<path class="st3" d="M519,546.6L404.5,547c-30.5-4.4-32.1-50.1-1.4-56.4h89.1l-11.9-12.1c-38.2,1.9-97.7-2.5-128.2,14.8
			c-18.8,13.9-26.2,28.3-34,49.7c-2.3,2.8-10.5,5.4-10.6-5.4V388.2c-0.7-10.5,9.6-7.9,10.6-5.4c8.4,17.2,14.5,40.2,31.4,49.7
			c50.6,23.2,120.3,16.5,178.6,20.9c15.2,5.3,27,16.7,31,30.6c0.7,2.5,2.3,4,4.9,4.7h18.3c2.6,0,7-0.5,9.6-1.8
			c10.5-4.4,11.3-17.6,25.5-22.7c59.3-19,70.6,77.5,4.7,70.4c-17.1-6.7-19.7-19.5-30.7-25.8l-8.4-1.9c-8.2,0-12.4,0-19.2,0
			c-3.3,0.5-3.7,2.1-4.5,5.1C555.7,540.3,536.8,546.1,519,546.6L519,546.6z"/>
		<path class="st4" d="M407.4,529.4c-11.9-1.9-11.5-19.8,0-22.3h92.3l21.1,22.3H407.4L407.4,529.4z"/>
		<path class="st4" d="M538.9,489.3h-26.5l-10.6-12.5l24.9-0.2l4,1.2C534.9,482,536.3,482.5,538.9,489.3L538.9,489.3z"/>
		<polygon class="st1" points="327.9,286.4 671.4,629.9 632.2,669.1 288.7,325.6 327.9,286.4 		"/>
	</g>
</g>
</svg>
