<?xml version="1.0" encoding="utf-8"?>
<!-- Generator: Adobe Illustrator 19.2.0, SVG Export Plug-In . SVG Version: 6.00 Build 0)  -->
<svg version="1.1" id="Livello_1" xmlns="http://www.w3.org/2000/svg" xmlns:xlink="http://www.w3.org/1999/xlink" x="0px" y="0px"
	 viewBox="0 0 960 960" style="enable-background:new 0 0 960 960;" xml:space="preserve">
<style type="text/css">
	.st0{fill-rule:evenodd;clip-rule:evenodd;fill:#FFFFFF;stroke:#1A171B;stroke-width:1.8295;stroke-miterlimit:2.6131;}
	.st1{fill-rule:evenodd;clip-rule:evenodd;fill:#E1001A;}
	.st2{fill-rule:evenodd;clip-rule:evenodd;fill:#FFFFFF;}
	.st3{fill-rule:evenodd;clip-rule:evenodd;fill:#1A171B;stroke:#1A171B;stroke-width:1.3597;stroke-miterlimit:2.6131;}
	.st4{fill-rule:evenodd;clip-rule:evenodd;fill:#FFFFFF;stroke:#1A171B;stroke-width:1.3597;stroke-miterlimit:2.6131;}
	.st5{fill-rule:evenodd;clip-rule:evenodd;fill:#E1001A;stroke:#E1001A;stroke-width:1.3597;stroke-miterlimit:2.6131;}
	.st6{fill:none;stroke:#E1001A;stroke-width:1.3597;stroke-miterlimit:2.6131;}
</style>
<g>
	<g>
		<path class="st0" d="M480,180c165.2,0,300,134.8,300,300c0,165.2-134.8,300-300,300S180,645.2,180,480
			C180,314.8,314.8,180,480,180L480,180z"/>
		<path class="st1" d="M480.9,196.2c155.9,0,283.1,127.2,283.1,283.1c0,155.9-127.2,283.1-283.1,283.1
			c-155.9,0-283.1-127.2-283.1-283.1C197.7,323.4,324.9,196.2,480.9,196.2L480.9,196.2z"/>
		<path class="st2" d="M480.9,268.7c116.1,0,210.7,94.7,210.7,210.7s-94.7,210.7-210.7,210.7c-116.1,0-210.7-94.7-210.7-210.7
			S364.8,268.7,480.9,268.7L480.9,268.7z"/>
		<path class="st3" d="M506.8,584.3v-15.8h22.5v16.3c0,2.7-2.7,3.5-5.5,3.5l-11.8-0.2C507.8,588.3,506.8,587.1,506.8,584.3
			L506.8,584.3z"/>
		<path class="st3" d="M620.1,584.3v-15.8h22.7l-0.2,16.3c0,2.7-2.7,3.5-5.5,3.5l-12.3-0.2C621.2,588.3,619.7,587.1,620.1,584.3
			L620.1,584.3z"/>
		<path class="st3" d="M501.3,564.6c-4.8,0-4.8-8.2-0.2-8.2h148.2c4.5,0,4.7,8.2-0.2,8.2H501.3L501.3,564.6z"/>
		<path class="st3" d="M505,551.9c-1-1.8-1.8-3.7-2-5.5h27.5c1.8-2.8,1.8-4.5,1.8-7.3h-29.2l-0.2-3.7h29.3c0-2.7-0.8-5.3-2.7-7.3
			H503c0-1.8,0.2-3.5,2-5.3c1.7-1,4.2-2.3,6.2-2.7c42.4-8.8,84.2-9.3,127.9-1c2,0.7,4,1,6.7,2.7c1.8,1.8,2.7,4.5,2.7,6.3H622
			c-2.8,2-3.8,4.7-3.8,7.3h30.5l-0.3,3.7h-30.2c0,2.8,0,5.5,3.7,7.3h26.5c0,1.8-0.8,3.7-2.7,5.5H505L505,551.9z"/>
		<path class="st3" d="M510.3,516.2l10.2-34.7c2.7-3.7,5.5-5.7,9-6.5c30.2-4.5,60.4-4.5,91.4,0.2c3.8,0.7,6.5,3.5,9.2,7.2l9.2,32
			l-8.2-1.8l-7.3-25.5c-0.8-2.8-2.7-3.7-5.5-5.5c-28.3-3.7-56.7-3.7-85,0c-3.7,0.7-4.5,1.5-6.3,4.5l-7.5,27.3L510.3,516.2
			L510.3,516.2z"/>
		<path class="st4" d="M555.1,528.2h40.2c1.5,0,2.7,1.2,2.7,2.7v12.9c0,1.5-1.2,2.7-2.7,2.7h-40.2c-1.5,0-2.7-1.2-2.7-2.7v-12.9
			C552.4,529.4,553.7,528.2,555.1,528.2L555.1,528.2z"/>
		<path class="st5" d="M320.1,585.9V547h15.5c0,11.7,0,27.2,0,38.9c0,1.6-1.4,2.3-3.2,2.3c-2.3,0-5.9,0-8.5,0
			C321,588.4,320.3,587.9,320.1,585.9L320.1,585.9z"/>
		<path class="st1" d="M403.8,556.7c-1.3-4.1-5.3-7-10.1-7c-4.6,0-8.6,2.8-9.9,7h-26.9c0-3.4,0-6.8,0-9.8h-15.4v38.8
			c0,1.8,0.9,2.4,3.8,2.4c2.4,0,5.9,0,8.3,0c1.8,0,3.3-0.9,3.3-2.4c0-6.4,0-13.8,0-21.2h27.2c1.6,3.8,5.3,6.5,9.6,6.5
			c4.4,0,8.1-2.7,9.8-6.5h27.2v-7.8H403.8L403.8,556.7z M430.8,585.9v-21.3V585.9L430.8,585.9z M430.8,556.7v-9.8h15.5
			c0,11.7,0,27.1,0,38.9c0,1.5-1.5,2.2-3.3,2.2c-2.4,0-5.9,0-8.4,0c-2.8,0.1-3.7-0.4-3.8-2.2V556.7L430.8,556.7z"/>
		<path class="st6" d="M403.8,556.7c-1.3-4.1-5.3-7-10.1-7c-4.6,0-8.6,2.8-9.9,7h-26.9c0-3.4,0-6.8,0-9.8h-15.4v38.8
			c0,1.8,0.9,2.4,3.8,2.4c2.4,0,5.9,0,8.3,0c1.8,0,3.3-0.9,3.3-2.4c0-6.4,0-13.8,0-21.2h27.2c1.6,3.8,5.3,6.5,9.6,6.5
			c4.4,0,8.1-2.7,9.8-6.5h27.2v-7.8H403.8L403.8,556.7z M430.8,585.9v-21.3 M430.8,556.7v-9.8h15.5c0,11.7,0,27.1,0,38.9
			c0,1.5-1.5,2.2-3.3,2.2c-2.4,0-5.9,0-8.4,0c-2.8,0.1-3.7-0.4-3.8-2.2"/>
		<path class="st5" d="M452,585.9V547h15.5c0,11.7,0,27.2,0,38.9c0,1.6-1.4,2.3-3.2,2.3c-2.3,0-5.9,0-8.5,0
			C452.9,588.4,452.2,587.9,452,585.9L452,585.9z"/>
		<polygon class="st5" points="312.3,539.5 312.3,521.8 475.4,521.8 475.4,539.5 312.3,539.5 		"/>
		<path class="st5" d="M312.6,514V381.4c45.7-14.6,118.4-14.6,162.8,0V514H312.6L312.6,514z"/>
	</g>
</g>
</svg>
