<?xml version="1.0" encoding="utf-8"?>
<!-- Generator: Adobe Illustrator 19.2.0, SVG Export Plug-In . SVG Version: 6.00 Build 0)  -->
<svg version="1.1" id="Livello_1" xmlns="http://www.w3.org/2000/svg" xmlns:xlink="http://www.w3.org/1999/xlink" x="0px" y="0px"
	 viewBox="0 0 960 960" style="enable-background:new 0 0 960 960;" xml:space="preserve">
<style type="text/css">
	.st0{fill-rule:evenodd;clip-rule:evenodd;fill:#FFFFFF;stroke:#1A171B;stroke-width:1.8295;stroke-miterlimit:2.6131;}
	.st1{fill-rule:evenodd;clip-rule:evenodd;fill:#E1001A;}
	.st2{fill-rule:evenodd;clip-rule:evenodd;fill:#FFFFFF;}
	.st3{fill-rule:evenodd;clip-rule:evenodd;fill:#1A171B;stroke:#1A171B;stroke-width:1.3597;stroke-miterlimit:2.6131;}
</style>
<path class="st0" d="M480,180c165.2,0,300,134.8,300,300c0,165.2-134.8,300-300,300S180,645.2,180,480C180,314.8,314.8,180,480,180
	L480,180z"/>
<path class="st1" d="M480.9,196.2c155.9,0,283.1,127.2,283.1,283.1c0,155.9-127.2,283.1-283.1,283.1
	c-155.9,0-283.1-127.2-283.1-283.1C197.7,323.4,324.9,196.2,480.9,196.2L480.9,196.2z"/>
<path class="st2" d="M480.9,268.7c116.1,0,210.7,94.7,210.7,210.7s-94.7,210.7-210.7,210.7c-116.1,0-210.7-94.7-210.7-210.7
	S364.8,268.7,480.9,268.7L480.9,268.7z"/>
<path class="st3" d="M594,448.3c-8.6,0-17.2,1.8-24.9,5l-16.7-27.6l10.4-19c5.4,0,10.9,3.6,16.5,3.6c4.1-0.5,4.7-16.5-1.4-16.5
	c-9.7,0-28.3-0.2-37.5-0.2c-4.5,1.4-4.3,6.1,2,8.1c3.8,0,6.3,1.6,9.9,1.6l-10.9,19.4l-118.7-0.2l5.2-9.5c-4.3-13.6-5.6-19,1.1-23.1
	h28.5c6.8-1.1,5.4-8.4,0-9.7h-29.8c-11.1,0-14.7,12-14.7,17.9l3.2,14.9l-23.5,41.1c-8.1-3.6-17.2-5.9-26.7-5.9
	c-36.2,0-65.6,29.4-65.6,65.1c0,36.2,29.4,65.6,65.6,65.6c35.7,0,65.1-29.4,65.1-65.6c0-22.2-11.3-42.1-28.5-53.8l10.4-17.2
	l64.7,60.6c-2.3,13.6,0.5,25.8,21.7,28.5c9.9-0.5,20.3-0.9,31.2-1.8c7.2,28.5,33,49.3,63.3,49.3c36.2,0,65.6-29.4,65.6-65.6
	C659.6,477.7,630.2,448.3,594,448.3z M419.1,514.1c0,29.6-24,53.6-53.6,53.6c-29.6,0-53.6-24-53.6-53.6c0-29.6,24-53.6,53.6-53.6
	c7.7,0,14.9,1.8,21.5,4.7l-20.8,36.6c-7.7,0.2-12,5.6-12,12.2c0,6.6,5.4,12,12,12c6.6,0,12.4-6.8,12-12c-0.5-5.2-2.5-7-2.5-7.2
	l21.3-36.6C410,480.2,419.1,496.7,419.1,514.1z M485.7,494.6L421.9,434h113.3L504,491.2C498.8,489.2,490,490.3,485.7,494.6z
	 M516.2,492.6l28.9-54.3l13.6,20.3c-12.9,7.2-20.6,17.2-26.7,35.5L516.2,492.6z M565.1,468.2c0,0,11.8,19.9,17.6,30.1
	c-13.1-0.7-38.4-2.5-38.4-2.7C549.3,482.3,554.3,476.2,565.1,468.2z M593.8,567c-39.6-2.9-49.5-38.7-49.5-38.7l49.5-4.1
	c6.8-0.7,11.8-4.3,12.2-6.8c0.5-4.1,3.4-14-8.1-17.9c-7-12.4-19.4-31.9-21.9-35.7c6.6-2.9,10.2-4.1,17.9-4.1
	c29.6,0,53.6,24,53.6,53.6C647.4,543.1,623.5,567,593.8,567z"/>
</svg>
