<?xml version="1.0" encoding="utf-8"?>
<!-- Generator: Adobe Illustrator 19.2.0, SVG Export Plug-In . SVG Version: 6.00 Build 0)  -->
<svg version="1.1" id="Livello_1" xmlns="http://www.w3.org/2000/svg" xmlns:xlink="http://www.w3.org/1999/xlink" x="0px" y="0px"
	 viewBox="0 0 960 960" style="enable-background:new 0 0 960 960;" xml:space="preserve">
<style type="text/css">
	.st0{fill-rule:evenodd;clip-rule:evenodd;fill:#FFFFFF;stroke:#1A171B;stroke-width:1.8295;stroke-miterlimit:2.6131;}
	.st1{fill-rule:evenodd;clip-rule:evenodd;fill:#E1001A;}
	.st2{fill-rule:evenodd;clip-rule:evenodd;fill:#FFFFFF;}
	.st3{fill-rule:evenodd;clip-rule:evenodd;fill:#1A171B;stroke:#1A171B;stroke-width:1.3597;stroke-miterlimit:2.6131;}
	.st4{fill-rule:evenodd;clip-rule:evenodd;fill:#FFFFFF;stroke:#1A171B;stroke-width:1.3597;stroke-miterlimit:2.6131;}
</style>
<g>
	<g>
		<path class="st0" d="M480,180c165.2,0,300,134.8,300,300c0,165.2-134.8,300-300,300S180,645.2,180,480
			C180,314.8,314.8,180,480,180L480,180z"/>
		<path class="st1" d="M480.9,196.2c155.9,0,283.1,127.2,283.1,283.1c0,155.9-127.2,283.1-283.1,283.1
			c-155.9,0-283.1-127.2-283.1-283.1C197.7,323.4,324.9,196.2,480.9,196.2L480.9,196.2z"/>
		<path class="st2" d="M480.9,268.7c116.1,0,210.7,94.7,210.7,210.7s-94.7,210.7-210.7,210.7c-116.1,0-210.7-94.7-210.7-210.7
			S364.8,268.7,480.9,268.7L480.9,268.7z"/>
		<path class="st3" d="M376.2,477.8c31,0,56.3,25.3,56.3,56.3c0,31-25.3,56.3-56.3,56.3S320,565.1,320,534.1
			C320,503.1,345.2,477.8,376.2,477.8L376.2,477.8z"/>
		<path class="st3" d="M580.7,477.8c31,0,56.3,25.3,56.3,56.3c0,31-25.3,56.3-56.3,56.3c-31,0-56.3-25.3-56.3-56.3
			C524.4,503.1,549.7,477.8,580.7,477.8L580.7,477.8z"/>
		<path class="st4" d="M376.2,496.1c20.9,0,38,17.1,38,38c0,20.9-17.1,38-38,38c-20.9,0-38-17.1-38-38
			C338.2,513.2,355.3,496.1,376.2,496.1L376.2,496.1z"/>
		<path class="st4" d="M580.7,496.1c20.9,0,38,17.1,38,38c0,20.9-17.1,38-38,38c-20.9,0-38-17.1-38-38
			C542.7,513.2,559.8,496.1,580.7,496.1L580.7,496.1z"/>
		<path class="st3" d="M484,568.4l-33.4-62.9c-4.4-8.5-4.6-14.8,5-21.2l41-18.5l-32.8-24.7l-17.9,14c-1.8,2.2-6.5,3.9-11.8,4.2
			l-47.2,0.2c-14.4,0.4-13.7-21.8,0-22l41.7-0.2l53-42.4c4.4,0,10.3,1.3,13.1,4.2l38.2,58.5c5.9,6.8,6.3,17.3-1.7,20.9l-54.6,23.1
			l29.3,55C512.6,571.2,491.2,582.6,484,568.4L484,568.4z"/>
		<path class="st3" d="M435.9,420.2l-1.7-11.6l23.1-19l-3.1-17.5l-20.3,3.5c-5.7,2-4.8-2.6-4.6-6.8c1.5-17,17.7-27.7,31.9-24.9
			c14.2,2.8,20.7,16.2,22,23.4c1.3,7.2,1.7,14.9-3,17.3L435.9,420.2L435.9,420.2z"/>
	</g>
</g>
</svg>
