<?xml version="1.0" encoding="utf-8"?>
<!-- Generator: Adobe Illustrator 19.2.0, SVG Export Plug-In . SVG Version: 6.00 Build 0)  -->
<svg version="1.1" id="Livello_1" xmlns="http://www.w3.org/2000/svg" xmlns:xlink="http://www.w3.org/1999/xlink" x="0px" y="0px"
	 viewBox="0 0 960 960" style="enable-background:new 0 0 960 960;" xml:space="preserve">
<style type="text/css">
	.st0{fill-rule:evenodd;clip-rule:evenodd;fill:#FFFFFF;stroke:#1A171B;stroke-width:1.8295;stroke-miterlimit:2.6131;}
	.st1{fill-rule:evenodd;clip-rule:evenodd;fill:#E1001A;}
	.st2{fill-rule:evenodd;clip-rule:evenodd;fill:#FFFFFF;}
	.st3{fill-rule:evenodd;clip-rule:evenodd;fill:#1A171B;stroke:#1A171B;stroke-width:1.3597;stroke-miterlimit:2.6131;}
</style>
<path class="st0" d="M480,180c165.2,0,300,134.8,300,300c0,165.2-134.8,300-300,300S180,645.2,180,480C180,314.8,314.8,180,480,180
	L480,180z"/>
<path class="st1" d="M480.9,196.2c155.9,0,283.1,127.2,283.1,283.1c0,155.9-127.2,283.1-283.1,283.1
	c-155.9,0-283.1-127.2-283.1-283.1C197.7,323.4,324.9,196.2,480.9,196.2L480.9,196.2z"/>
<path class="st2" d="M480.9,268.7c116.1,0,210.7,94.7,210.7,210.7s-94.7,210.7-210.7,210.7c-116.1,0-210.7-94.7-210.7-210.7
	S364.8,268.7,480.9,268.7L480.9,268.7z"/>
<path class="st3" d="M586.7,543.2l-21.4-41.4c-3.1-4.4-3.1-9.3,0-13.6l28-27.3l-17-26.4c-7,8.4-13.2,15.9-20,24.2
	c-6.6,4.9-17.6-5.5-12.6-12.8c10.8-14.7,20.3-27.8,31.3-42.7c6.6-8.2,8.4-10.3,20.5-10.4c5.5,1.5,11.2,5.7,13.2,10.1l9.5,54.9
	l37,75.8c4,7.7-10.1,17.2-16.1,8.2l-34.6-62.4l-19.4,17.9c6.2,12.1,12.4,24.4,18.7,36.6C607.8,542.7,589.4,549.3,586.7,543.2
	L586.7,543.2z"/>
<path class="st3" d="M581.5,355.6c9.2,0,16.7,7.5,16.7,16.7c0,9.2-7.5,16.7-16.7,16.7c-9.2,0-16.7-7.5-16.7-16.7
	C564.8,363.1,572.3,355.6,581.5,355.6L581.5,355.6z"/>
<path class="st3" d="M540.1,466.1l-2-14.6l-105.6,16.2c-9.1-10.6-22.5-17.7-37-17.7c-19.7,0-37,12.6-44.5,29.9l-56,7.9l2,14.6
	l50.8-7.9c0,1.2,0,2,0,3.2c0,26,21.3,47.3,47.7,47.3c26,0,47.3-21.3,47.3-47.3c0-5.9-1.2-11.4-3.2-16.5l26.2-3.9l30.5,22.9l4.5,29.4
	l7.5-1l-8.3-56.3L540.1,466.1z M395.3,461.4c8.9,0,27,9.1,22.1,9.5c-3.4,0.4-52,8.1-51.8,7.5C371.5,468.3,382.3,461.4,395.3,461.4z
	 M395.3,533.9c-19.9,0-36.2-16.3-36.2-36.2l0.6-4.3l26.2-3.9c0.6,0-3,4.7-3,8.3c0,6.9,5.5,12.4,12.4,12.4c6.9,0,12.4-5.5,12.4-12.4
	c0-4.9-3.9-10.1-7.1-11.2l26.8-3.5c0.4,0,4.1,9.5,4.1,14.8C431.6,517.6,415.2,533.9,395.3,533.9z M477.1,475.6l15.4-2.4l2.4,16.2
	L477.1,475.6z"/>
</svg>
