<?xml version="1.0" encoding="utf-8"?>
<!-- Generator: Adobe Illustrator 19.2.0, SVG Export Plug-In . SVG Version: 6.00 Build 0)  -->
<svg version="1.1" id="Livello_1" xmlns="http://www.w3.org/2000/svg" xmlns:xlink="http://www.w3.org/1999/xlink" x="0px" y="0px"
	 viewBox="0 0 960 960" style="enable-background:new 0 0 960 960;" xml:space="preserve">
<style type="text/css">
	.st0{fill-rule:evenodd;clip-rule:evenodd;fill:#FFFFFF;stroke:#1A171B;stroke-width:1.8295;stroke-miterlimit:2.6131;}
	.st1{fill-rule:evenodd;clip-rule:evenodd;fill:#E1001A;}
	.st2{fill-rule:evenodd;clip-rule:evenodd;fill:#FFFFFF;}
	.st3{fill-rule:evenodd;clip-rule:evenodd;fill:#1A171B;stroke:#1A171B;stroke-width:3.6259;stroke-miterlimit:2.6131;}
	.st4{fill-rule:evenodd;clip-rule:evenodd;fill:#FFFFFF;stroke:#FFFFFF;stroke-width:4.5324;stroke-miterlimit:2.6131;}
</style>
<g>
	<g>
		<path class="st0" d="M480,180c165.2,0,300,134.8,300,300c0,165.2-134.8,300-300,300S180,645.2,180,480
			C180,314.8,314.8,180,480,180L480,180z"/>
		<path class="st1" d="M480.9,196.2c155.9,0,283.1,127.2,283.1,283.1c0,155.9-127.2,283.1-283.1,283.1
			c-155.9,0-283.1-127.2-283.1-283.1C197.7,323.4,324.9,196.2,480.9,196.2L480.9,196.2z"/>
		<path class="st2" d="M480.9,268.7c116.1,0,210.7,94.7,210.7,210.7s-94.7,210.7-210.7,210.7c-116.1,0-210.7-94.7-210.7-210.7
			S364.8,268.7,480.9,268.7L480.9,268.7z"/>
		<path class="st3" d="M359.8,575.7v-28.4h40.3v29.3c0,4.8-4.8,6.3-9.9,6.3l-21.2-0.3C361.6,582.9,359.8,580.8,359.8,575.7
			L359.8,575.7z"/>
		<path class="st3" d="M562.8,575.7v-28.4h40.6l-0.3,29.3c0,4.8-4.8,6.3-9.9,6.3l-22.1-0.3C564.9,582.9,562.2,580.8,562.8,575.7
			L562.8,575.7z"/>
		<path class="st3" d="M350,540.4c-8.7,0-8.7-14.6-0.3-14.6h265.6c8.1,0,8.4,14.6-0.3,14.6H350L350,540.4z"/>
		<path class="st3" d="M367,451.7l17.3-60c4.8-6.6,9.9-10.2,16.1-11.6c54.1-8.1,108.1-8.1,163.7,0.3c6.9,1.2,11.6,6.3,16.4,12.8
			l16.4,57.4l-14.6-3.3l-13.1-45.7c-1.5-5.1-4.8-6.6-9.9-9.9c-50.8-6.6-101.6-6.6-152.3,0c-6.6,1.2-8.1,2.7-11.4,8.1l-13.4,49
			L367,451.7L367,451.7z"/>
		<path class="st3" d="M363.3,518.3c-12.8,0-17.3-13.9-17.3-29.2c0-15.3,5.8-23.4,17.3-28.1c80.2-17.3,154.8-18.5,233.5-2.3
			c13,4.5,21.1,15.1,20.9,30.3c-0.2,15.3-2.3,28.1-13.9,28.8L363.3,518.3L363.3,518.3z"/>
		<path class="st4" d="M377.3,468.7c10.7,0,19.4,8.7,19.4,19.4c0,10.7-8.7,19.4-19.4,19.4c-10.7,0-19.4-8.7-19.4-19.4
			C358,477.4,366.7,468.7,377.3,468.7L377.3,468.7z"/>
		<path class="st4" d="M586.5,468.8c10.7,0,19.4,8.7,19.4,19.4c0,10.7-8.7,19.4-19.4,19.4c-10.7,0-19.4-8.7-19.4-19.4
			C567.1,477.5,575.8,468.8,586.5,468.8L586.5,468.8z"/>
	</g>
</g>
</svg>
