<?xml version="1.0" encoding="utf-8"?>
<!-- Generator: Adobe Illustrator 19.2.0, SVG Export Plug-In . SVG Version: 6.00 Build 0)  -->
<svg version="1.1" id="Livello_1" xmlns="http://www.w3.org/2000/svg" xmlns:xlink="http://www.w3.org/1999/xlink" x="0px" y="0px"
	 viewBox="0 0 960 960" style="enable-background:new 0 0 960 960;" xml:space="preserve">
<style type="text/css">
	.st0{fill-rule:evenodd;clip-rule:evenodd;fill:#FFFFFF;stroke:#1A171B;stroke-width:1.8295;stroke-miterlimit:2.6131;}
	.st1{fill-rule:evenodd;clip-rule:evenodd;fill:#E1001A;}
	.st2{fill-rule:evenodd;clip-rule:evenodd;fill:#FFFFFF;}
	.st3{fill-rule:evenodd;clip-rule:evenodd;fill:#1A171B;stroke:#1A171B;stroke-width:1.3597;stroke-miterlimit:2.6131;}
</style>
<path class="st0" d="M480,180c165.2,0,300,134.8,300,300c0,165.2-134.8,300-300,300S180,645.2,180,480C180,314.8,314.8,180,480,180
	L480,180z"/>
<path class="st1" d="M480.9,196.2c155.9,0,283.1,127.2,283.1,283.1c0,155.9-127.2,283.1-283.1,283.1
	c-155.9,0-283.1-127.2-283.1-283.1C197.7,323.4,324.9,196.2,480.9,196.2L480.9,196.2z"/>
<path class="st2" d="M480.9,268.7c116.1,0,210.7,94.7,210.7,210.7s-94.7,210.7-210.7,210.7c-116.1,0-210.7-94.7-210.7-210.7
	S364.8,268.7,480.9,268.7L480.9,268.7z"/>
<path class="st3" d="M293.1,520.2l8.3-43.2h366.3v30.8l-62.5,10c2.5-40.8-63-44.9-59.6,3.4H388.5c4.2-48.3-63-46.6-58.7-0.9H293.1
	L293.1,520.2z"/>
<path class="st3" d="M301.5,416.9l-0.2,54.2l32.7,0.2v-54.4H301.5z M325.6,461.8h-15.9v-35.7h15.9V461.8z"/>
<path class="st3" d="M667.6,462.8L657,416.9H340.5v54.2h327.3L667.6,462.8z M402.1,461.9h-50.8v-35.7l50.8-0.2V461.9z M463.7,461.9
	h-50.8v-35.7l50.8-0.2V461.9z M525.3,461.9h-50.8v-35.7l50.8-0.2V461.9z M586.9,461.9h-50.8v-35.7l50.8-0.2V461.9z M597.8,461.9
	v-35.7l50.8-0.2l8.3,35.9H597.8z"/>
<path class="st3" d="M358.9,491.1c-13.3,0-24.1,10.8-24.1,24.1c0,13.3,10.8,24.1,24.1,24.1c13.3,0,24.1-10.8,24.1-24.1
	C383.1,501.9,372.2,491.1,358.9,491.1z M358.9,526c-6,0-10.9-4.9-10.9-10.8c0-6,4.9-10.9,10.9-10.9c6,0,10.8,4.9,10.8,10.9
	C369.8,521.1,364.9,526,358.9,526z"/>
<path class="st3" d="M575.4,491.1c-13.3,0-24.1,10.8-24.1,24.1c0,13.3,10.8,24.1,24.1,24.1c13.3,0,24.1-10.8,24.1-24.1
	C599.5,501.9,588.7,491.1,575.4,491.1z M575.3,526c-6,0-10.9-4.9-10.9-10.8c0-6,4.9-10.9,10.9-10.9c6,0,10.8,4.9,10.8,10.9
	C586.2,521.1,581.3,526,575.3,526z"/>
</svg>
