<?xml version="1.0" encoding="utf-8"?>
<!-- Generator: Adobe Illustrator 19.2.0, SVG Export Plug-In . SVG Version: 6.00 Build 0)  -->
<svg version="1.1" id="Livello_1" xmlns="http://www.w3.org/2000/svg" xmlns:xlink="http://www.w3.org/1999/xlink" x="0px" y="0px"
	 viewBox="0 0 960 960" style="enable-background:new 0 0 960 960;" xml:space="preserve">
<style type="text/css">
	.st0{fill-rule:evenodd;clip-rule:evenodd;fill:#FFFFFF;stroke:#1A171B;stroke-width:1.8295;stroke-miterlimit:2.6131;}
	.st1{fill-rule:evenodd;clip-rule:evenodd;fill:#E1001A;}
	.st2{fill-rule:evenodd;clip-rule:evenodd;fill:#FFFFFF;}
	.st3{fill-rule:evenodd;clip-rule:evenodd;fill:#1A171B;stroke:#1A171B;stroke-width:1.3597;stroke-miterlimit:2.6131;}
	.st4{fill-rule:evenodd;clip-rule:evenodd;fill:#FFFFFF;stroke:#1A171B;stroke-width:1.3597;stroke-miterlimit:2.6131;}
</style>
<g>
	<g>
		<path class="st0" d="M480,180c165.2,0,300,134.8,300,300c0,165.2-134.8,300-300,300S180,645.2,180,480
			C180,314.8,314.8,180,480,180L480,180z"/>
		<path class="st1" d="M480.9,196.2c155.9,0,283.1,127.2,283.1,283.1c0,155.9-127.2,283.1-283.1,283.1
			c-155.9,0-283.1-127.2-283.1-283.1C197.7,323.4,324.9,196.2,480.9,196.2L480.9,196.2z"/>
		<path class="st2" d="M480.9,268.7c116.1,0,210.7,94.7,210.7,210.7s-94.7,210.7-210.7,210.7c-116.1,0-210.7-94.7-210.7-210.7
			S364.8,268.7,480.9,268.7L480.9,268.7z"/>
		<path class="st3" d="M304.9,537.7v-63.6l21.2-54.4h58.4v89.6h161.6c-8.8,3.2-15.3,15.3-16.2,28.5H384.6c-2.1-46.6-67.4-46.4-69,0
			H304.9L304.9,537.7z"/>
		<path class="st3" d="M581.7,509.2h53.7v13l-37.4,14.3C598.7,524.9,589.9,512.3,581.7,509.2L581.7,509.2z"/>
		<polygon class="st3" points="392,501.7 392,380.8 635.3,380.8 635.5,501.9 392,501.7 		"/>
		<polygon class="st4" points="318.9,467 332.2,431.7 375.8,431.7 375.8,467 318.9,467 		"/>
		<path class="st3" d="M350.3,509.5c15.6,0,28.3,12.7,28.3,28.3c0,15.6-12.7,28.3-28.3,28.3c-15.6,0-28.3-12.7-28.3-28.3
			C322,522.3,334.7,509.5,350.3,509.5L350.3,509.5z"/>
		<path class="st3" d="M564.2,509.5c15.6,0,28.3,12.7,28.3,28.3c0,15.6-12.7,28.3-28.3,28.3c-15.6,0-28.3-12.7-28.3-28.3
			C535.9,522.3,548.6,509.5,564.2,509.5L564.2,509.5z"/>
		<path class="st4" d="M350.3,524.3c7.5,0,13.6,6.1,13.6,13.6c0,7.5-6.1,13.6-13.6,13.6c-7.5,0-13.6-6.1-13.6-13.6
			C336.7,530.4,342.8,524.3,350.3,524.3L350.3,524.3z"/>
		<path class="st4" d="M564.2,524.3c7.5,0,13.6,6.1,13.6,13.6c0,7.5-6.1,13.6-13.6,13.6c-7.5,0-13.6-6.1-13.6-13.6
			C550.6,530.4,556.7,524.3,564.2,524.3L564.2,524.3z"/>
	</g>
</g>
</svg>
