<?xml version="1.0" encoding="utf-8"?>
<!-- Generator: Adobe Illustrator 19.2.0, SVG Export Plug-In . SVG Version: 6.00 Build 0)  -->
<svg version="1.1" id="Livello_1" xmlns="http://www.w3.org/2000/svg" xmlns:xlink="http://www.w3.org/1999/xlink" x="0px" y="0px"
	 viewBox="0 0 960 960" style="enable-background:new 0 0 960 960;" xml:space="preserve">
<style type="text/css">
	.st0{fill-rule:evenodd;clip-rule:evenodd;fill:#FFFFFF;stroke:#1A171B;stroke-width:1.8295;stroke-miterlimit:2.6131;}
	.st1{fill-rule:evenodd;clip-rule:evenodd;fill:#E1001A;}
	.st2{fill-rule:evenodd;clip-rule:evenodd;fill:#FFFFFF;}
	.st3{fill-rule:evenodd;clip-rule:evenodd;fill:#1A171B;stroke:#1A171B;stroke-width:1.3597;stroke-miterlimit:2.6131;}
	.st4{fill-rule:evenodd;clip-rule:evenodd;fill:#FFFFFF;stroke:#1A171B;stroke-width:1.3597;stroke-miterlimit:2.6131;}
</style>
<g>
	<g>
		<path class="st0" d="M480,180c165.2,0,300,134.8,300,300c0,165.2-134.8,300-300,300S180,645.2,180,480
			C180,314.8,314.8,180,480,180L480,180z"/>
		<path class="st1" d="M480.9,196.2c155.9,0,283.1,127.2,283.1,283.1c0,155.9-127.2,283.1-283.1,283.1
			c-155.9,0-283.1-127.2-283.1-283.1C197.7,323.4,324.9,196.2,480.9,196.2L480.9,196.2z"/>
		<path class="st2" d="M480.9,268.7c116.1,0,210.7,94.7,210.7,210.7s-94.7,210.7-210.7,210.7c-116.1,0-210.7-94.7-210.7-210.7
			S364.8,268.7,480.9,268.7L480.9,268.7z"/>
		<path class="st2" d="M480.5,281.6c108.8,0,197.6,88.8,197.6,197.6s-88.8,197.6-197.6,197.6C371.7,676.7,283,588,283,479.1
			S371.7,281.6,480.5,281.6L480.5,281.6z"/>
		<path class="st3" d="M347.2,515c16,0,29.1,13.1,29.1,29.1c0,16-13.1,29.1-29.1,29.1c-16,0-29.1-13.1-29.1-29.1
			C318.1,528.1,331.2,515,347.2,515L347.2,515z"/>
		<path class="st3" d="M562.6,515c16,0,29.1,13.1,29.1,29.1c0,16-13.1,29.1-29.1,29.1c-16,0-29.1-13.1-29.1-29.1
			C533.5,528.1,546.6,515,562.6,515L562.6,515z"/>
		<path class="st4" d="M347.2,530.1c7.7,0,14,6.3,14,14c0,7.7-6.3,14-14,14c-7.7,0-14-6.3-14-14
			C333.2,536.4,339.5,530.1,347.2,530.1L347.2,530.1z"/>
		<path class="st4" d="M562.6,530.1c7.7,0,14,6.3,14,14c0,7.7-6.3,14-14,14c-7.7,0-14-6.3-14-14
			C548.6,536.4,554.9,530.1,562.6,530.1L562.6,530.1z"/>
		<path class="st3" d="M383.1,543.3c-0.2-10.8-6.3-23.4-16.1-28.3h55.7v28.5L383.1,543.3L383.1,543.3z"/>
		<path class="st3" d="M487.2,543.3V515h56.6c-10,6.5-15.9,17.5-15.9,28.5L487.2,543.3L487.2,543.3z"/>
		<path class="st3" d="M654.4,383.5c14.9,28.1,23.5,59.8,23.5,93.8c0,10.4-0.4,21.3-2.3,31.3H285.8c-1.8-10-2.7-20.8-2.7-31.3
			c0-34,8.6-65.7,23.9-93.8h113.8v109.2h64.6V383.5H654.4L654.4,383.5z"/>
		<path class="st3" d="M287.2,515.9c1.8,10,4.5,19.5,7.7,28.6h15.4c0-11.8,5.4-20.9,15.4-28.6H287.2L287.2,515.9z"/>
		<path class="st3" d="M667,544.4c3.2-9.1,5.9-18.6,7.7-28.6h-94.3c7.7,4.1,16.8,16.8,16.8,28.6H667L667,544.4z"/>
	</g>
</g>
</svg>
