<?xml version="1.0" encoding="utf-8"?>
<!-- Generator: Adobe Illustrator 19.2.0, SVG Export Plug-In . SVG Version: 6.00 Build 0)  -->
<svg version="1.1" id="Livello_1" xmlns="http://www.w3.org/2000/svg" xmlns:xlink="http://www.w3.org/1999/xlink" x="0px" y="0px"
	 viewBox="0 0 960 960" style="enable-background:new 0 0 960 960;" xml:space="preserve">
<style type="text/css">
	.st0{fill-rule:evenodd;clip-rule:evenodd;fill:#FFFFFF;stroke:#1A171B;stroke-width:1.8295;stroke-miterlimit:2.6131;}
	.st1{fill-rule:evenodd;clip-rule:evenodd;fill:#E1001A;}
	.st2{fill-rule:evenodd;clip-rule:evenodd;fill:#FFFFFF;}
	.st3{fill-rule:evenodd;clip-rule:evenodd;fill:#1A171B;stroke:#1A171B;stroke-width:1.3597;stroke-miterlimit:2.6131;}
	.st4{fill-rule:evenodd;clip-rule:evenodd;fill:#FFFFFF;stroke:#1A171B;stroke-width:1.3597;stroke-miterlimit:2.6131;}
</style>
<g>
	<g>
		<path class="st0" d="M480,180c165.2,0,300,134.8,300,300c0,165.2-134.8,300-300,300S180,645.2,180,480
			C180,314.8,314.8,180,480,180L480,180z"/>
		<path class="st1" d="M480.9,196.2c155.9,0,283.1,127.2,283.1,283.1c0,155.9-127.2,283.1-283.1,283.1
			c-155.9,0-283.1-127.2-283.1-283.1C197.7,323.4,324.9,196.2,480.9,196.2L480.9,196.2z"/>
		<path class="st2" d="M480.9,268.7c116.1,0,210.7,94.7,210.7,210.7s-94.7,210.7-210.7,210.7c-116.1,0-210.7-94.7-210.7-210.7
			S364.8,268.7,480.9,268.7L480.9,268.7z"/>
		<path class="st3" d="M405.4,522.9c-4.5-6.2-8.6-10.7-15.4-14.5h87.4l4.3,14.3L405.4,522.9L405.4,522.9z"/>
		<path class="st3" d="M499.4,452.6c2.1-5.3,2.3-6.8,7.7-9.8l36.8-10.1l-9.8-22.7L503,427.1c-8.8,4.9-16.3-9.2-8.8-14.4l56.9-33
			c8.1-5.4,19.1-1.5,20.1,8.4l0.4,49.5c-1.1,8.6-4.7,9.2-11.8,10.7l-43,10.5l-12.4,51.6c-2.6,11.8-20.3,7.5-17.1-3.8L499.4,452.6
			L499.4,452.6z"/>
		<path class="st3" d="M456.8,437.9l13-13.2l-9-9c-1.3-1.3-1.3-3.4,0-4.6l1.5-1.5c1.3-1.3,3.4-1.3,4.6,0l24,24
			c1.3,1.3,1.3,3.4,0,4.6l-1.5,1.5c-1.3,1.3-3.4,1.3-4.6,0l-9-9l-16.4,16.1l15.7,53.5L347,500.4l-21-71.8h128.3L456.8,437.9
			L456.8,437.9z"/>
		<path class="st3" d="M577.9,455.8c36.9,0,66.9,30.1,66.9,66.9c0,36.9-30.1,66.9-66.9,66.9S511,559.5,511,522.7
			C511,485.8,541,455.8,577.9,455.8L577.9,455.8z"/>
		<path class="st4" d="M577.9,498.3c13.4,0,24.4,10.9,24.4,24.4c0,13.4-10.9,24.4-24.4,24.4c-13.4,0-24.4-10.9-24.4-24.4
			C553.5,509.3,564.5,498.3,577.9,498.3L577.9,498.3z"/>
		<path class="st3" d="M365.7,509c22.2,0,40.2,18.1,40.2,40.2s-18.1,40.2-40.2,40.2c-22.2,0-40.2-18.1-40.2-40.2
			S343.5,509,365.7,509L365.7,509z"/>
		<path class="st4" d="M365.7,531.7c9.7,0,17.5,7.9,17.5,17.5s-7.9,17.5-17.5,17.5c-9.7,0-17.5-7.9-17.5-17.5S356,531.7,365.7,531.7
			L365.7,531.7z"/>
		<path class="st3" d="M551.3,340.7c8.4,0,15.3,6.9,15.3,15.3c0,8.5-6.9,15.3-15.3,15.3c-8.5,0-15.3-6.9-15.3-15.3
			C536,347.5,542.9,340.7,551.3,340.7L551.3,340.7z"/>
	</g>
</g>
</svg>
