<?xml version="1.0" encoding="utf-8"?>
<!-- Generator: Adobe Illustrator 19.2.0, SVG Export Plug-In . SVG Version: 6.00 Build 0)  -->
<svg version="1.1" id="Livello_1" xmlns="http://www.w3.org/2000/svg" xmlns:xlink="http://www.w3.org/1999/xlink" x="0px" y="0px"
	 viewBox="0 0 960 960" style="enable-background:new 0 0 960 960;" xml:space="preserve">
<style type="text/css">
	.st0{fill-rule:evenodd;clip-rule:evenodd;fill:#FFFFFF;stroke:#1A171B;stroke-width:1.8295;stroke-miterlimit:2.6131;}
	.st1{fill-rule:evenodd;clip-rule:evenodd;fill:#E1001A;}
	.st2{fill-rule:evenodd;clip-rule:evenodd;fill:#FFFFFF;}
	.st3{fill-rule:evenodd;clip-rule:evenodd;fill:#1A171B;stroke:#1A171B;stroke-width:1.3597;stroke-miterlimit:2.6131;}
	.st4{fill-rule:evenodd;clip-rule:evenodd;fill:#1A171B;}
	.st5{fill:none;stroke:#1A171B;stroke-width:1.3597;stroke-miterlimit:2.6131;}
	.st6{fill-rule:evenodd;clip-rule:evenodd;fill:#ED7F00;stroke:#1A171B;stroke-width:1.3597;stroke-miterlimit:2.6131;}
</style>
<g>
	<g>
		<path class="st0" d="M480,180c165.2,0,300,134.8,300,300c0,165.2-134.8,300-300,300S180,645.2,180,480
			C180,314.8,314.8,180,480,180L480,180z"/>
		<path class="st1" d="M480.9,196.2c155.9,0,283.1,127.2,283.1,283.1c0,155.9-127.2,283.1-283.1,283.1
			c-155.9,0-283.1-127.2-283.1-283.1C197.7,323.4,324.9,196.2,480.9,196.2L480.9,196.2z"/>
		<path class="st2" d="M480.9,268.7c116.1,0,210.7,94.7,210.7,210.7s-94.7,210.7-210.7,210.7c-116.1,0-210.7-94.7-210.7-210.7
			S364.8,268.7,480.9,268.7L480.9,268.7z"/>
		<path class="st3" d="M383.9,623.7V573h20.2c0,15.3,0,35.4,0,50.7c0,2.1-1.9,3-4.2,3c-3,0-7.7,0-11,0
			C385.1,627,384.1,626.3,383.9,623.7L383.9,623.7z"/>
		<path class="st4" d="M493.1,585.6c-1.7-5.4-6.9-9.1-13.1-9.1c-6,0-11.2,3.7-12.9,9.1h-35.1c0-4.4,0-8.9,0-12.7h-20.1v50.6
			c0,2.3,1.2,3.1,5,3.1c3.1,0,7.7,0,10.8,0c2.3,0,4.2-1.2,4.2-3.1c0-8.3,0-17.9,0-27.6h35.5c2.1,5,6.9,8.5,12.5,8.5
			c5.8,0,10.6-3.5,12.7-8.5h35.5v-10.2H493.1L493.1,585.6z M528.2,623.7v-27.8V623.7L528.2,623.7z M528.2,585.6v-12.7h20.3
			c0,15.2,0,35.3,0,50.7c0,1.9-1.9,2.9-4.2,2.9c-3.1,0-7.7,0-11,0c-3.7,0.2-4.8-0.6-5-2.9V585.6L528.2,585.6z"/>
		<path class="st5" d="M493.1,585.6c-1.7-5.4-6.9-9.1-13.1-9.1c-6,0-11.2,3.7-12.9,9.1h-35.1c0-4.4,0-8.9,0-12.7h-20.1v50.6
			c0,2.3,1.2,3.1,5,3.1c3.1,0,7.7,0,10.8,0c2.3,0,4.2-1.2,4.2-3.1c0-8.3,0-17.9,0-27.6h35.5c2.1,5,6.9,8.5,12.5,8.5
			c5.8,0,10.6-3.5,12.7-8.5h35.5v-10.2H493.1L493.1,585.6z M528.2,623.7v-27.8 M528.2,585.6v-12.7h20.3c0,15.2,0,35.3,0,50.7
			c0,1.9-1.9,2.9-4.2,2.9c-3.1,0-7.7,0-11,0c-3.7,0.2-4.8-0.6-5-2.9"/>
		<path class="st3" d="M556,623.7V573h20.2c0,15.3,0,35.4,0,50.7c0,2.1-1.9,3-4.2,3c-3.1,0-7.7,0-11,0
			C557.1,627,556.2,626.3,556,623.7L556,623.7z"/>
		<polygon class="st3" points="373.8,563.1 373.8,540.2 586.4,540.2 586.4,563.1 373.8,563.1 		"/>
		<path class="st3" d="M373.6,530l0.2-180c68.7-13.8,145.7-14.3,212.6,0v180H373.6L373.6,530z"/>
		<polygon class="st6" points="396.5,508.3 396.5,370.1 563.9,370.6 563.4,508.3 396.5,508.3 		"/>
	</g>
</g>
</svg>
