<?xml version="1.0" encoding="utf-8"?>
<!-- Generator: Adobe Illustrator 19.2.0, SVG Export Plug-In . SVG Version: 6.00 Build 0)  -->
<svg version="1.1" id="Livello_1" xmlns="http://www.w3.org/2000/svg" xmlns:xlink="http://www.w3.org/1999/xlink" x="0px" y="0px"
	 viewBox="0 0 960 960" style="enable-background:new 0 0 960 960;" xml:space="preserve">
<style type="text/css">
	.st0{fill-rule:evenodd;clip-rule:evenodd;fill:#FFFFFF;stroke:#1A171B;stroke-width:1.8295;stroke-miterlimit:2.6131;}
	.st1{fill-rule:evenodd;clip-rule:evenodd;fill:#E1001A;}
	.st2{fill-rule:evenodd;clip-rule:evenodd;fill:#FFFFFF;}
	.st3{fill-rule:evenodd;clip-rule:evenodd;fill:#1A171B;stroke:#1A171B;stroke-width:1.3597;stroke-miterlimit:2.6131;}
	.st4{fill-rule:evenodd;clip-rule:evenodd;fill:#FFFFFF;stroke:#1A171B;stroke-width:1.3597;stroke-miterlimit:2.6131;}
	.st5{fill-rule:evenodd;clip-rule:evenodd;fill:#ED7F00;stroke:#ED7F00;stroke-width:1.3597;stroke-miterlimit:2.6131;}
	.st6{fill-rule:evenodd;clip-rule:evenodd;fill:#FFEC00;stroke:#FFEC00;stroke-width:1.3597;stroke-miterlimit:2.6131;}
</style>
<g>
	<g>
		<path class="st0" d="M480,180c165.2,0,300,134.8,300,300c0,165.2-134.8,300-300,300S180,645.2,180,480
			C180,314.8,314.8,180,480,180L480,180z"/>
		<path class="st1" d="M480.9,196.2c155.9,0,283.1,127.2,283.1,283.1c0,155.9-127.2,283.1-283.1,283.1
			c-155.9,0-283.1-127.2-283.1-283.1C197.7,323.4,324.9,196.2,480.9,196.2L480.9,196.2z"/>
		<path class="st2" d="M480.9,268.7c116.1,0,210.7,94.7,210.7,210.7s-94.7,210.7-210.7,210.7c-116.1,0-210.7-94.7-210.7-210.7
			S364.8,268.7,480.9,268.7L480.9,268.7z"/>
		<path class="st3" d="M397.9,635.2v-21.1h29.9v21.7c0,3.5-3.5,4.7-7.3,4.7l-15.7-0.2C399.3,640.5,397.9,639,397.9,635.2
			L397.9,635.2z"/>
		<path class="st3" d="M548.5,635.2v-21.1h30.1l-0.2,21.7c0,3.5-3.5,4.7-7.3,4.7l-16.4-0.2C550.1,640.5,548.1,639,548.5,635.2
			L548.5,635.2z"/>
		<path class="st3" d="M390.6,609.1c-6.4,0-6.4-10.9-0.2-10.9h197c6,0,6.2,10.9-0.2,10.9H390.6L390.6,609.1z"/>
		<path class="st3" d="M403.3,543.2l12.9-44.5c3.5-4.9,7.3-7.5,12-8.6c40.1-6,80.2-6,121.5,0.2c5.1,0.9,8.6,4.7,12.2,9.5l12.2,42.6
			l-10.9-2.4l-9.8-33.9c-1.1-3.8-3.5-4.9-7.3-7.3c-37.7-4.9-75.4-4.9-113,0c-4.9,0.9-6,2-8.4,6l-10,36.4L403.3,543.2L403.3,543.2z"
			/>
		<path class="st3" d="M400.5,592.6c-9.5,0-12.9-10.3-12.9-21.7c0-11.3,4.3-17.3,12.9-20.8c59.5-12.9,114.8-13.7,173.2-1.7
			c9.6,3.4,15.7,11.2,15.5,22.5c-0.1,11.3-1.7,20.8-10.3,21.4L400.5,592.6L400.5,592.6z"/>
		<path class="st4" d="M410.9,555.8c7.9,0,14.4,6.5,14.4,14.4c0,7.9-6.5,14.4-14.4,14.4c-7.9,0-14.4-6.5-14.4-14.4
			C396.6,562.3,403,555.8,410.9,555.8L410.9,555.8z"/>
		<path class="st4" d="M566.1,555.9c7.9,0,14.4,6.5,14.4,14.4c0,7.9-6.5,14.4-14.4,14.4c-7.9,0-14.4-6.5-14.4-14.4
			C551.8,562.3,558.2,555.9,566.1,555.9L566.1,555.9z"/>
		<path class="st5" d="M455.6,481.9l-87.4-89.5l64.7,25.4l-30.8-62l60.3,36.2l14.3-73.5l35,77l39.3-60.8l-9.1,48l40.6-30l-38.9,70.8
			l43.5-18.5l-66,77C496.7,480,479.3,480,455.6,481.9L455.6,481.9z"/>
		<path class="st6" d="M469.6,481.1l-35.2-50.2l24.3,6l-18.6-43.5l32.8,28.4l13.2-43.4l17,44.4l32.3-24.2l-20.2,45.9l20.2-4
			l-33.9,40.6C486.7,480.7,483.3,480.7,469.6,481.1L469.6,481.1z"/>
	</g>
</g>
</svg>
