<?xml version="1.0" encoding="utf-8"?>
<!-- Generator: Adobe Illustrator 19.2.0, SVG Export Plug-In . SVG Version: 6.00 Build 0)  -->
<svg version="1.1" id="Livello_1" xmlns="http://www.w3.org/2000/svg" xmlns:xlink="http://www.w3.org/1999/xlink" x="0px" y="0px"
	 viewBox="0 0 960 960" style="enable-background:new 0 0 960 960;" xml:space="preserve">
<style type="text/css">
	.st0{fill-rule:evenodd;clip-rule:evenodd;fill:#FFFFFF;stroke:#1A171B;stroke-width:1.8295;stroke-miterlimit:2.6131;}
	.st1{fill-rule:evenodd;clip-rule:evenodd;fill:#E1001A;}
	.st2{fill-rule:evenodd;clip-rule:evenodd;fill:#1A171B;stroke:#1A171B;stroke-width:1.3597;stroke-miterlimit:2.6131;}
	.st3{fill-rule:evenodd;clip-rule:evenodd;fill:#1A171B;}
	.st4{fill:none;stroke:#1A171B;stroke-width:1.3597;stroke-miterlimit:2.6131;}
	.st5{fill-rule:evenodd;clip-rule:evenodd;fill:#5288C1;stroke:#5288C1;stroke-width:1.3597;stroke-miterlimit:2.6131;}
	.st6{fill-rule:evenodd;clip-rule:evenodd;fill:#ED7F00;stroke:#ED7F00;stroke-width:1.3597;stroke-miterlimit:2.6131;}
</style>
<g>
	<g>
		<path class="st0" d="M480,180c165.2,0,300,134.8,300,300c0,165.2-134.8,300-300,300S180,645.2,180,480
			C180,314.8,314.8,180,480,180L480,180z"/>
		<path class="st1" d="M480.9,196.2c-155.9,0-283.1,127.2-283.1,283.1c0,155.9,127.2,283.1,283.1,283.1
			c155.9,0,283.1-127.2,283.1-283.1C764,323.4,636.8,196.2,480.9,196.2z M480.9,690.1c-116.1,0-210.7-94.7-210.7-210.7
			s94.7-210.7,210.7-210.7c116.1,0,210.7,94.7,210.7,210.7S596.9,690.1,480.9,690.1z"/>
		<path class="st2" d="M376.7,567v-53.3H398c0,16,0,37.3,0,53.3c0,2.2-2,3.2-4.5,3.2c-3.2,0-8.2,0-11.7,0
			C377.9,570.5,376.9,569.7,376.7,567L376.7,567z"/>
		<path class="st3" d="M492.2,527c-1.8-5.7-7.4-9.5-13.9-9.5c-6.3,0-11.8,3.9-13.7,9.5h-37.1c0-4.7,0-9.3,0-13.4h-21.2v53.2
			c0,2.4,1.2,3.3,5.3,3.3c3.3,0,8.2,0,11.4,0c2.4,0,4.5-1.2,4.5-3.3c0-8.7,0-18.9,0-29H465c2.2,5.3,7.3,8.9,13.3,8.9
			c6.1,0,11.2-3.7,13.5-8.9h37.6V527H492.2L492.2,527z M529.3,567v-29.2V567L529.3,567z M529.3,527v-13.4h21.4c0,16,0,37.1,0,53.4
			c0,2-2,3-4.5,3c-3.3,0-8.2,0-11.6,0c-3.9,0.2-5.1-0.6-5.3-3V527L529.3,527z"/>
		<path class="st4" d="M492.2,527c-1.8-5.7-7.4-9.5-13.9-9.5c-6.3,0-11.8,3.9-13.7,9.5h-37.1c0-4.7,0-9.3,0-13.4h-21.2v53.2
			c0,2.4,1.2,3.3,5.3,3.3c3.3,0,8.2,0,11.4,0c2.4,0,4.5-1.2,4.5-3.3c0-8.7,0-18.9,0-29H465c2.2,5.3,7.3,8.9,13.3,8.9
			c6.1,0,11.2-3.7,13.5-8.9h37.6V527H492.2L492.2,527z M529.3,567v-29.2 M529.3,527v-13.4h21.4c0,16,0,37.1,0,53.4c0,2-2,3-4.5,3
			c-3.3,0-8.2,0-11.6,0c-3.9,0.2-5.1-0.6-5.3-3"/>
		<path class="st2" d="M558.7,567v-53.3H580c0,16,0,37.3,0,53.3c0,2.2-2,3.2-4.5,3.2c-3.2,0-8.2,0-11.7,0
			C559.9,570.5,558.9,569.7,558.7,567L558.7,567z"/>
		<path class="st5" d="M442,610.2c-16-0.2-22.6-15.4-36.9-15.4c-14.3,0-26.3,13.5-36.5,15.4v-9.2c11.1-2.8,18.3-14.3,36.5-14.3
			s22.6,14.3,36.7,14.3c14.1,0,19.4-14.3,36.7-14.3s22.4,14.3,36.7,14.3c14.3,0,20.3-14.3,37.6-14.3c17.3,0,28.6,10.2,35.8,14.3v9.2
			c-6-3.2-23.5-15.4-34.6-15.4s-24.5,15.4-38.8,15.2c-14.3-0.2-25.6-15.2-36.7-15.2C467.4,594.7,458,610.3,442,610.2L442,610.2z"/>
		<path class="st5" d="M442,630.6c-16-0.2-22.6-15.4-36.9-15.4c-14.3,0-26.3,13.6-36.5,15.4v-9.2c11.1-2.8,18.3-14.3,36.5-14.3
			s22.6,14.3,36.7,14.3c14.1,0,19.4-14.3,36.7-14.3s22.4,14.3,36.7,14.3c14.3,0,20.3-14.3,37.6-14.3c17.3,0,28.6,10.2,35.8,14.3v9.2
			c-6-3.2-23.5-15.4-34.6-15.4s-24.5,15.4-38.8,15.2c-14.3-0.2-25.6-15.2-36.7-15.2C467.4,615.1,458,630.8,442,630.6L442,630.6z"/>
		<polygon class="st2" points="368.6,505.6 368.4,482.3 588.4,482.3 588.4,505.6 368.6,505.6 		"/>
		<polygon class="st2" points="368.6,468.9 368.6,448.4 588.4,448.4 588.4,468.9 368.6,468.9 		"/>
		<path class="st2" d="M478.5,306.9c-67.2,0-110,18.3-110,67.2c0,48.9,42.8,67.2,110,67.2c67.2,0,110-18.3,110-67.2
			C588.5,325.2,545.8,306.9,478.5,306.9z M570,402.4c-16.1,22-48.7,26.2-73.8,27.9c-28.3,1.2-59.7,0.8-86.2-10.2
			c-14.7-6.7-24.9-15.8-29.3-31.7c-3.5-16.7-1.7-34.2,10-47.3c15.1-15.7,38.3-20,59.2-22.4c20.6-1.8,41.8-1.8,62.3,0.6l5.6,0.7
			c22.6,4.3,46.5,10.6,56.4,33.7C580.3,369,579,388.7,570,402.4z"/>
		<path class="st6" d="M478.5,326.2c54.8,0,89.6,13.1,89.6,47.9c0,34.8-34.8,47.9-89.6,47.9c-54.8,0-89.6-13.1-89.6-47.9
			C388.9,339.3,423.7,326.2,478.5,326.2L478.5,326.2z"/>
	</g>
</g>
</svg>
