<?xml version="1.0" encoding="utf-8"?>
<!-- Generator: Adobe Illustrator 19.2.0, SVG Export Plug-In . SVG Version: 6.00 Build 0)  -->
<svg version="1.1" id="Livello_1" xmlns="http://www.w3.org/2000/svg" xmlns:xlink="http://www.w3.org/1999/xlink" x="0px" y="0px"
	 viewBox="0 0 960 960" style="enable-background:new 0 0 960 960;" xml:space="preserve">
<style type="text/css">
	.st0{fill-rule:evenodd;clip-rule:evenodd;fill:#FFFFFF;stroke:#1A171B;stroke-width:1.8295;stroke-miterlimit:2.6131;}
	.st1{fill-rule:evenodd;clip-rule:evenodd;fill:#E1001A;}
	.st2{fill-rule:evenodd;clip-rule:evenodd;fill:#FFFFFF;}
	.st3{fill-rule:evenodd;clip-rule:evenodd;fill:#1A171B;stroke:#1A171B;stroke-width:3.6259;stroke-miterlimit:2.6131;}
	.st4{fill-rule:evenodd;clip-rule:evenodd;fill:#1A171B;}
</style>
<path class="st0" d="M480,180c165.2,0,300,134.8,300,300c0,165.2-134.8,300-300,300S180,645.2,180,480C180,314.8,314.8,180,480,180
	L480,180z"/>
<path class="st1" d="M480.9,196.2c155.9,0,283.1,127.2,283.1,283.1c0,155.9-127.2,283.1-283.1,283.1
	c-155.9,0-283.1-127.2-283.1-283.1C197.7,323.4,324.9,196.2,480.9,196.2L480.9,196.2z"/>
<path class="st2" d="M480.9,268.7c116.1,0,210.7,94.7,210.7,210.7s-94.7,210.7-210.7,210.7c-116.1,0-210.7-94.7-210.7-210.7
	S364.8,268.7,480.9,268.7L480.9,268.7z"/>
<path class="st3" d="M471,598.8c-2.4,0-4.9-2.5-1.3-4.3c3.8-0.6,6.2-3.2,5.8-6c-10.2-4.5-7-14.4-1.3-18
	C496.2,563.1,495.2,598.8,471,598.8L471,598.8z"/>
<path class="st3" d="M345.6,530.8l29.6-7.4c0,44.6,42,35.7,42,9.8c0-9.8,0-9.8,0-22.3c-7.3-19.8-19.8-19.8-39.5-19.8v-34.6
	c20.7,0,30.7,3.4,39.2-17c0.4-12.8,0.4-12.8,0-26.8c-2.1-25.7-44.1-25.7-41.6,14l-29.6-7.4c0-76.9,111.1-74.4,101.3,7.4
	c0,22.3-5.3,35-22.2,47c17.1,15.5,20.3,25.1,22.2,49.7C454,612.6,345.6,606.2,345.6,530.8L345.6,530.8z"/>
<path class="st4" d="M504.4,423.4l0.1-62.4h14.3v12.2c1.5-3.8,5.6-7.4,7.4-9c2.1-1.8,4.8-3,7.7-3c2.9,0,5.8,1.2,7.6,3
	c1.9,1.8,4.1,5.2,5.6,9c1.9-4,4.2-7.1,6.4-9c2.3-1.9,5-3,8-3c4.6,0,8.6,2.5,10.8,6.4c2.2,3.9,3.8,10.8,3.8,18.1v37.6H562v-35.8
	c0-4.8-2.1-12.6-7.1-11c-5.1,1.5-7.4,11-7.4,15.6v31.3h-14.4v-35.8c0-4.8-0.8-12.2-5.7-11c-6.1,1.4-8.6,11-8.6,15.6v31.3H504.4
	L504.4,423.4z"/>
<path class="st4" d="M603.3,496.9c-4.3-8.7-11.1-13-19.9-13c-8.6,0-15.4,4.8-19.6,13.3c-4.3,8.7-6.6,21.6-6.6,38.4
	c0,17.3,2.4,30.3,6.6,38.9c4.3,8.7,10.9,13.3,19.9,13.3l-0.3-0.3c9,0,15.8-4.3,20.1-13c4.3-8.6,6.6-21.6,6.6-38.9
	C610.1,518.5,607.8,505.5,603.3,496.9z M591,561.7c-1.3,4.3-4,6.8-7.1,6.8h-0.2c-3.5,0-6-2.5-7.3-7.3c-1.3-4.3-2.2-13-2.2-25.1
	c0-11.6,1-20.3,2.4-25.4c1.3-5.2,4-7.8,7.1-7.8s5.7,3,7.3,8.1c1.3,5.2,2.1,14.3,2.1,26.4C593,548.7,592.2,556.9,591,561.7z"/>
<path class="st4" d="M503.8,536l4.9-51.9l41.9-0.2v17.3h-26.9L521,526c2.5-2.4,3.2-2.9,5.2-4.5c2.1-1.6,4.9-3,7.6-3
	c5.5,0,10.6,3,13.5,8.6c3.2,5.7,4.9,14.3,4.9,23.8c0,12.1-2.7,21.4-6.7,27.2c-4,5.7-10.6,9.5-18.7,9.5c-7.3,0-13.5-3.2-16.8-7.5
	c-4.1-4.9-6.6-11.9-6.5-16.8l17.2-5.1c0,3.5,0.9,5.2,1.9,6.8c1.1,1.9,3,3.5,4.9,3.5c2.4,0,4.4-1.4,5.5-3.8c1.1-2.5,1.9-7.5,1.9-12.5
	c0-4.8-0.8-9.2-1.9-11.7c-1.1-2.9-3-4.9-5.1-4.8c-4,0.3-6,3-7.1,7.5L503.8,536L503.8,536z"/>
<path class="st3" d="M534.9,666.3c-35.5,8.6-74.1,10.2-110,0l55-59.8L534.9,666.3L534.9,666.3z"/>
<path class="st3" d="M534.9,291l-55,57.4l-55-57.4C459.1,281.2,500.6,279.6,534.9,291L534.9,291z"/>
</svg>
