<?xml version="1.0" encoding="utf-8"?>
<!-- Generator: Adobe Illustrator 19.2.0, SVG Export Plug-In . SVG Version: 6.00 Build 0)  -->
<svg version="1.1" id="Livello_1" xmlns="http://www.w3.org/2000/svg" xmlns:xlink="http://www.w3.org/1999/xlink" x="0px" y="0px"
	 viewBox="0 0 960 960" style="enable-background:new 0 0 960 960;" xml:space="preserve">
<style type="text/css">
	.st0{fill-rule:evenodd;clip-rule:evenodd;fill:#FFFFFF;stroke:#1A171B;stroke-width:1.8295;stroke-miterlimit:2.6131;}
	.st1{fill-rule:evenodd;clip-rule:evenodd;fill:#E1001A;}
	.st2{fill-rule:evenodd;clip-rule:evenodd;fill:#1A171B;stroke:#1A171B;stroke-width:1.3597;stroke-miterlimit:2.6131;}
</style>
<path class="st0" d="M480,180c165.2,0,300,134.8,300,300c0,165.2-134.8,300-300,300S180,645.2,180,480C180,314.8,314.8,180,480,180
	L480,180z"/>
<path class="st1" d="M480.9,196.2c-155.9,0-283.1,127.2-283.1,283.1c0,155.9,127.2,283.1,283.1,283.1
	c155.9,0,283.1-127.2,283.1-283.1C764,323.4,636.8,196.2,480.9,196.2z M480.9,690.1c-116.1,0-210.7-94.7-210.7-210.7
	s94.7-210.7,210.7-210.7c116.1,0,210.7,94.7,210.7,210.7S596.9,690.1,480.9,690.1z"/>
<path class="st2" d="M575,460.7h46.3v11.2l-32.3,12.4C589.7,474.2,582.1,463.4,575,460.7L575,460.7z"/>
<polygon class="st2" points="411.4,454.3 411.4,350 621.4,350 621.5,454.5 411.4,454.3 "/>
<path class="st2" d="M405,460.7v-77.3h-50.4l-18.3,47v54.9h9.2c1.3-40,57.7-40.2,59.5,0h125.4c0.8-11.4,6.4-21.8,14-24.6H405z
	 M397.4,424.3h-49.1l11.5-30.5h37.6V424.3z"/>
<path class="st2" d="M375.4,461c-13.5,0-24.4,11-24.4,24.4c0,13.5,11,24.4,24.4,24.4c13.5,0,24.4-11,24.4-24.4
	C399.9,472,388.9,461,375.4,461z M375.5,497.2c-6.5,0-11.7-5.3-11.7-11.7c0-6.5,5.3-11.7,11.7-11.7s11.7,5.3,11.7,11.7
	C387.2,492,381.9,497.2,375.5,497.2z"/>
<path class="st2" d="M560,461c-13.5,0-24.4,11-24.4,24.4c0,13.5,11,24.4,24.4,24.4c13.5,0,24.4-11,24.4-24.4
	C584.4,472,573.4,461,560,461z M560,497.2c-6.5,0-11.7-5.3-11.7-11.7c0-6.5,5.3-11.7,11.7-11.7c6.5,0,11.7,5.3,11.7,11.7
	C571.7,492,566.4,497.2,560,497.2z"/>
<path class="st2" d="M478.2,548c-3.2-5.7-8.3-8.5-14.8-8.5c-6.4,0-11.5,3.1-14.8,8.7c-3.2,5.7-4.9,14-4.9,24.9
	c0,11.2,1.7,19.7,4.9,25.3c3.3,5.7,8.2,8.7,14.9,8.7l-0.1-0.2c6.6,0,11.9-2.8,15.1-8.5c3.2-5.6,5-14,5-25.3
	C483.4,562,481.6,553.5,478.2,548z M468.9,590c-0.9,2.8-2.8,4.4-5.3,4.4h-0.1c-2.6,0-4.5-1.6-5.5-4.7c-0.9-2.8-1.5-8.5-1.5-16.3
	c0-7.5,0.6-13.2,1.8-16.5c0.9-3.4,2.8-5.1,5.2-5.1c2.4,0,4.4,2,5.5,5.3c0.9,3.4,1.5,9.3,1.5,17.1C470.5,581.6,469.9,586.9,468.9,590
	z"/>
<path class="st2" d="M417.6,605.7v-43.2h-10.9v-11.7c5.2,0.3,10.3-3.4,12.1-10.1h10.9v65H417.6L417.6,605.7z"/>
<path class="st2" d="M496.6,606.8l0.1-44.7h10.2v8.8c1.1-2.7,4-5.3,5.3-6.4c1.5-1.3,3.5-2.1,5.5-2.1c2,0,4.2,0.9,5.4,2.1
	c1.3,1.3,2.9,3.7,4,6.4c1.3-2.9,3-5.1,4.6-6.4c1.6-1.3,3.6-2.1,5.7-2.1c3.3,0,6.1,1.8,7.7,4.6c1.6,2.8,2.7,7.7,2.7,13v26.9h-10.1
	v-25.7c0-3.5-1.5-9-5.1-7.9c-3.6,1.1-5.3,7.9-5.3,11.2v22.4h-10.3v-25.7c0-3.5-0.6-8.8-4.1-7.9c-4.4,1-6.1,7.9-6.1,11.2v22.4H496.6
	L496.6,606.8z"/>
<polygon class="st2" points="321.4,588.3 371.3,562.2 366.9,580.2 392.5,580.2 392.5,596.8 366.9,596.8 371.3,614.5 321.4,588.3 "/>
<polygon class="st2" points="638.7,588.3 588.8,614.4 593.2,596.4 567.6,596.4 567.6,579.8 593.2,579.8 588.8,562.1 638.7,588.3 "/>
</svg>
