<?xml version="1.0" encoding="utf-8"?>
<!-- Generator: Adobe Illustrator 19.2.0, SVG Export Plug-In . SVG Version: 6.00 Build 0)  -->
<svg version="1.1" id="Livello_1" xmlns="http://www.w3.org/2000/svg" xmlns:xlink="http://www.w3.org/1999/xlink" x="0px" y="0px"
	 viewBox="0 0 960 960" style="enable-background:new 0 0 960 960;" xml:space="preserve">
<style type="text/css">
	.st0{fill-rule:evenodd;clip-rule:evenodd;fill:#FFFFFF;stroke:#1A171B;stroke-width:1.8295;stroke-miterlimit:2.6131;}
	.st1{fill-rule:evenodd;clip-rule:evenodd;fill:#E1001A;}
	.st2{fill-rule:evenodd;clip-rule:evenodd;fill:#FFFFFF;}
	.st3{fill-rule:evenodd;clip-rule:evenodd;fill:#1A171B;stroke:#1A171B;stroke-width:1.3597;stroke-miterlimit:2.6131;}
</style>
<path class="st0" d="M480,180c165.2,0,300,134.8,300,300c0,165.2-134.8,300-300,300S180,645.2,180,480C180,314.8,314.8,180,480,180
	L480,180z"/>
<path class="st1" d="M480.9,196.2c155.9,0,283.1,127.2,283.1,283.1c0,155.9-127.2,283.1-283.1,283.1
	c-155.9,0-283.1-127.2-283.1-283.1C197.7,323.4,324.9,196.2,480.9,196.2L480.9,196.2z"/>
<path class="st2" d="M480.9,268.7c116.1,0,210.7,94.7,210.7,210.7s-94.7,210.7-210.7,210.7c-116.1,0-210.7-94.7-210.7-210.7
	S364.8,268.7,480.9,268.7L480.9,268.7z"/>
<path class="st3" d="M451.3,609.8c-2.6,0-5.2-2.6-1.4-4.6c4-0.6,6.6-3.4,6.2-6.4c-10.7-4.8-7.4-15.1-1.4-18.9
	C478,572.2,477,609.8,451.3,609.8L451.3,609.8z"/>
<polygon class="st3" points="351.4,595.7 416.7,399.8 351.4,399.8 351.4,358 458.5,358 458.5,412.8 398.3,595.7 351.4,595.7 "/>
<path class="st3" d="M625.9,504.4c-4.8-8.8-12.4-13.1-22.3-13.1c-9.5,0-17.1,4.8-21.9,13.4c-4.8,8.8-7.4,21.7-7.4,38.6
	c0,17.4,2.6,30.5,7.4,39.1c4.8,8.8,12.2,13.4,22.3,13.4l-0.4-0.3c10.1,0,17.7-4.3,22.4-13.1c4.8-8.6,7.4-21.7,7.4-39.1
	C633.5,526.1,630.9,513,625.9,504.4z M612.2,569.5c-1.4,4.3-4.4,6.9-7.9,6.9H604c-3.9,0-6.7-2.6-8.1-7.3c-1.4-4.3-2.5-13.1-2.5-25.2
	c0-11.6,1.1-20.4,2.6-25.5c1.4-5.3,4.2-7.8,8-7.8c3.5,0,6.4,3,8.1,8.1c1.4,5.3,2.3,14.4,2.3,26.5
	C614.5,556.4,613.6,564.7,612.2,569.5z"/>
<path class="st3" d="M549.2,504.4c-4.8-8.8-12.4-13.1-22.1-13.1c-9.5,0-17.1,4.8-21.9,13.4c-4.8,8.8-7.4,21.7-7.4,38.6
	c0,17.4,2.7,30.5,7.4,39.1c4.8,8.8,12,13.4,22.1,13.4l-0.2-0.3c10.1,0,17.7-4.3,22.4-13.1c4.8-8.6,7.4-21.7,7.4-39.1
	C557,526.1,554.3,513,549.2,504.4z M535.4,569.5c-1.4,4.3-4.2,6.9-7.8,6.9h-0.4c-3.7,0-6.7-2.6-8.1-7.3c-1.4-4.3-2.3-13.1-2.3-25.2
	c0-11.6,0.9-20.4,2.6-25.5c1.4-5.3,4.2-7.8,7.8-7.8s6.5,3,8.1,8.1c1.4,5.3,2.5,14.4,2.5,26.5C537.9,556.4,536.8,564.7,535.4,569.5z"
	/>
<path class="st3" d="M527.8,462.3c-13,0-19.5-9.2-19.5-18.6v-47.7h-10.4v-17.4h10.4v-12.6l15.6-8.2v21.2H535v17.4h-11.1v48
	c3.3,6.3,8.8,3.5,15-1.3l4.2,10.1C540.5,456.3,537.6,462.3,527.8,462.3L527.8,462.3z"/>
</svg>
