<?xml version="1.0" encoding="utf-8"?>
<!-- Generator: Adobe Illustrator 19.2.0, SVG Export Plug-In . SVG Version: 6.00 Build 0)  -->
<svg version="1.1" id="Livello_1" xmlns="http://www.w3.org/2000/svg" xmlns:xlink="http://www.w3.org/1999/xlink" x="0px" y="0px"
	 viewBox="0 0 960 960" style="enable-background:new 0 0 960 960;" xml:space="preserve">
<style type="text/css">
	.st0{fill-rule:evenodd;clip-rule:evenodd;fill:#FFFFFF;stroke:#1A171B;stroke-width:1.8295;stroke-miterlimit:2.6131;}
	.st1{fill-rule:evenodd;clip-rule:evenodd;fill:#FFFFFF;stroke:#1A171B;stroke-width:1.3371;stroke-miterlimit:2.6131;}
	.st2{fill-rule:evenodd;clip-rule:evenodd;fill:#1A171B;stroke:#1A171B;stroke-width:1.3371;stroke-miterlimit:2.6131;}
</style>
<g>
	<g>
		<path class="st0" d="M480,180c165.2,0,300,134.8,300,300c0,165.2-134.8,300-300,300S180,645.2,180,480
			C180,314.8,314.8,180,480,180L480,180z"/>
		<path class="st1" d="M480.2,196.7c156,0,283.2,127.2,283.2,283.2c0,156-127.2,283.2-283.2,283.2S197.1,635.9,197.1,479.9
			C197.1,323.9,324.3,196.7,480.2,196.7L480.2,196.7z"/>
		<path class="st2" d="M482.3,763.1L573,212.8c-28.6-9.8-59.3-15.3-91.4-15.3L391,749.1c27.9,9.1,57.9,13.9,89.3,13.9
			C480.9,763.1,481.6,763.1,482.3,763.1L482.3,763.1z"/>
	</g>
</g>
</svg>
