<?xml version="1.0" encoding="utf-8"?>
<!-- Generator: Adobe Illustrator 19.2.0, SVG Export Plug-In . SVG Version: 6.00 Build 0)  -->
<svg version="1.1" id="Livello_1" xmlns="http://www.w3.org/2000/svg" xmlns:xlink="http://www.w3.org/1999/xlink" x="0px" y="0px"
	 viewBox="0 0 960 960" style="enable-background:new 0 0 960 960;" xml:space="preserve">
<style type="text/css">
	.st0{fill-rule:evenodd;clip-rule:evenodd;fill:#FFFFFF;stroke:#1A171B;stroke-width:1.8295;stroke-miterlimit:2.6131;}
	.st1{fill-rule:evenodd;clip-rule:evenodd;fill:#FFFFFF;stroke:#1A171B;stroke-width:1.3371;stroke-miterlimit:2.6131;}
	.st2{fill-rule:evenodd;clip-rule:evenodd;fill:#1A171B;stroke:#1A171B;stroke-width:1.3371;stroke-miterlimit:2.6131;}
	.st3{fill-rule:evenodd;clip-rule:evenodd;fill:#C5C6C8;stroke:#C5C6C8;stroke-width:1.3371;stroke-miterlimit:2.6131;}
</style>
<g>
	<g>
		<path class="st0" d="M480,180c165.2,0,300,134.8,300,300c0,165.2-134.8,300-300,300S180,645.2,180,480
			C180,314.8,314.8,180,480,180L480,180z"/>
		<path class="st1" d="M480.1,196.9c156,0,283.2,127.2,283.2,283.2c0,156-127.2,283.2-283.2,283.2c-156,0-283.2-127.2-283.2-283.2
			C196.9,324.1,324.1,196.9,480.1,196.9L480.1,196.9z"/>
		<path class="st2" d="M482.2,763.2l90.7-550.3c-28.6-9.8-59.3-15.3-91.4-15.3l-90.7,551.7c27.9,9.1,57.9,13.9,89.3,13.9
			C480.8,763.2,481.5,763.2,482.2,763.2L482.2,763.2z"/>
		<path class="st3" d="M235.6,543.3v-18.6h26.7v19c0,3.2-3.6,4.1-6.8,4.1H242C237,547.9,235.6,546.5,235.6,543.3L235.6,543.3z
			 M368.3,543.3v-18.6H395v19c0,3.2-3.2,4.1-6.3,4.1h-14.9C369.7,547.9,368.3,546.5,368.3,543.3L368.3,543.3z M229.7,520.3
			c-5.9,0-5.9-9.5-0.5-9.5h173.4c5,0,5.4,9.5-0.5,9.5H229.7L229.7,520.3z M233.8,505.3c-1.4-2.3-2.3-4.1-2.3-6.3h32.2
			c2.3-3.6,2.3-5,2.3-8.6h-34.4v-4.1H266c0-3.6-1.4-6.3-3.2-9.1h-31.2c0-1.8,0-3.6,2.3-5.9c1.8-1.4,5-2.7,7.2-3.2
			c49.4-10.4,98.7-10.9,149.9-1.4c2.3,0.9,4.5,1.4,7.7,3.2c2.3,2.3,3.2,5.4,3.2,7.2H371c-3.2,2.7-5,5.4-5,9.1h35.8v4.1H366
			c0,3.6,0,6.3,4.5,8.6h31.2c0,2.3-0.9,4.1-3.2,6.3H233.8L233.8,505.3z M240.2,463.7l11.8-40.8c3.2-4.1,6.3-6.3,10.4-7.2
			c35.3-5.4,70.6-5.4,106.9,0c4.5,0.9,8.2,4.1,10.9,8.6l10.9,37.1l-9.5-2.3l-8.6-29.9c-1.4-2.7-3.2-4.1-6.8-6.3
			c-33.1-4.1-66.1-4.1-99.2,0c-4.5,0.9-5.4,1.8-7.7,5.4l-8.6,32.1L240.2,463.7L240.2,463.7z M292.7,477.2h47.1
			c1.8,0,3.2,1.8,3.2,3.6v15.4c0,1.4-1.4,2.7-3.2,2.7h-47.1c-2.3,0-3.2-1.4-3.2-2.7v-15.4C289.5,479,290.4,477.2,292.7,477.2
			L292.7,477.2z"/>
		<path class="st3" d="M569,543.3v-18.6h26.7v19c0,3.2-3.6,4.1-6.8,4.1h-13.6C570.4,547.9,569,546.5,569,543.3L569,543.3z
			 M701.7,543.3v-18.6h26.7v19c0,3.2-3.2,4.1-6.3,4.1h-14.9C703,547.9,701.7,546.5,701.7,543.3L701.7,543.3z M563.1,520.3
			c-5.9,0-5.9-9.5-0.5-9.5h173.4c5,0,5.4,9.5-0.5,9.5H563.1L563.1,520.3z M567.2,505.3c-1.4-2.3-2.3-4.1-2.3-6.3h32.2
			c2.3-3.6,2.3-5,2.3-8.6h-34.4v-4.1h34.4c0-3.6-1.4-6.3-3.2-9.1h-31.2c0-1.8,0-3.6,2.3-5.9c1.8-1.4,5-2.7,7.2-3.2
			c49.4-10.4,98.7-10.9,149.9-1.4c2.3,0.9,4.5,1.4,7.7,3.2c2.3,2.3,3.2,5.4,3.2,7.2h-30.8c-3.2,2.7-5,5.4-5,9.1h35.8v4.1h-35.8
			c0,3.6,0,6.3,4.5,8.6h31.2c0,2.3-0.9,4.1-3.2,6.3H567.2L567.2,505.3z M573.5,463.7l11.8-40.8c3.2-4.1,6.3-6.3,10.4-7.2
			c35.3-5.4,70.6-5.4,106.9,0c4.5,0.9,8.1,4.1,10.9,8.6l10.9,37.1l-9.5-2.3l-8.6-29.9c-1.4-2.7-3.2-4.1-6.8-6.3
			c-33.1-4.1-66.1-4.1-99.2,0c-4.5,0.9-5.4,1.8-7.7,5.4l-8.6,32.1L573.5,463.7L573.5,463.7z M626.1,477.2h47.1
			c1.8,0,3.2,1.8,3.2,3.6v15.4c0,1.4-1.4,2.7-3.2,2.7h-47.1c-2.3,0-3.2-1.4-3.2-2.7v-15.4C622.9,479,623.8,477.2,626.1,477.2
			L626.1,477.2z"/>
	</g>
</g>
</svg>
