<?xml version="1.0" encoding="utf-8"?>
<!-- Generator: Adobe Illustrator 19.2.0, SVG Export Plug-In . SVG Version: 6.00 Build 0)  -->
<svg version="1.1" id="Livello_1" xmlns="http://www.w3.org/2000/svg" xmlns:xlink="http://www.w3.org/1999/xlink" x="0px" y="0px"
	 viewBox="0 0 960 960" style="enable-background:new 0 0 960 960;" xml:space="preserve">
<style type="text/css">
	.st0{fill-rule:evenodd;clip-rule:evenodd;fill:#FFFFFF;stroke:#1A171B;stroke-width:1.8295;stroke-miterlimit:2.6131;}
	.st1{fill-rule:evenodd;clip-rule:evenodd;fill:#FFFFFF;stroke:#1A171B;stroke-width:1.3371;stroke-miterlimit:2.6131;}
	.st2{fill-rule:evenodd;clip-rule:evenodd;fill:#1A171B;stroke:#1A171B;stroke-width:1.3371;stroke-miterlimit:2.6131;}
	.st3{fill-rule:evenodd;clip-rule:evenodd;fill:#C5C6C8;stroke:#C5C6C8;stroke-width:1.3371;stroke-miterlimit:2.6131;}
	.st4{fill-rule:evenodd;clip-rule:evenodd;fill:#C5C6C8;}
	.st5{fill:none;stroke:#C5C6C8;stroke-width:1.3371;stroke-miterlimit:2.6131;}
</style>
<g>
	<g>
		<path class="st0" d="M480,180c165.2,0,300,134.8,300,300c0,165.2-134.8,300-300,300S180,645.2,180,480
			C180,314.8,314.8,180,480,180L480,180z"/>
		<path class="st1" d="M480,197.7c155.7,0,282.7,127,282.7,282.7c0,155.7-127,282.7-282.7,282.7s-282.7-127-282.7-282.7
			C197.2,324.7,324.3,197.7,480,197.7L480,197.7z"/>
		<path class="st2" d="M482.1,763.1l90.5-549.4c-28.6-9.7-59.2-15.3-91.2-15.3l-90.5,550.8c27.9,9,57.8,13.9,89.1,13.9
			C480.7,763.1,481.4,763.1,482.1,763.1L482.1,763.1z"/>
		<path class="st3" d="M565,587.5v-16.1h23.2v16.5c0,2.7-3.1,3.5-5.9,3.5h-11.8C566.2,591.4,565,590.2,565,587.5L565,587.5z
			 M680,587.5v-16.1h23.2v16.5c0,2.7-2.7,3.5-5.5,3.5h-13C681.2,591.4,680,590.2,680,587.5L680,587.5z M559.9,567.4
			c-5.1,0-5.1-8.2-0.4-8.2h150.4c4.3,0,4.7,8.2-0.4,8.2H559.9L559.9,567.4z M563.4,554.5c-1.2-2-2-3.5-2-5.5h27.9c2-3.1,2-4.3,2-7.5
			h-29.8V538h29.8c0-3.1-1.2-5.5-2.7-7.9h-27.1c0-1.6,0-3.1,2-5.1c1.6-1.2,4.3-2.4,6.3-2.7c42.8-9,85.6-9.4,130-1.2
			c2,0.8,3.9,1.2,6.7,2.7c2,2,2.8,4.7,2.8,6.3h-26.7c-2.7,2.4-4.3,4.7-4.3,7.9h31v3.5h-31c0,3.1,0,5.5,3.9,7.5h27.1
			c0,2-0.8,3.5-2.8,5.5H563.4L563.4,554.5z M568.9,518.4l10.2-35.3c2.8-3.5,5.5-5.5,9-6.3c30.6-4.7,61.2-4.7,92.7,0
			c3.9,0.8,7.1,3.5,9.4,7.5l9.4,32.2l-8.2-2l-7.5-25.9c-1.2-2.4-2.8-3.5-5.9-5.5c-28.7-3.5-57.3-3.5-86,0c-3.9,0.8-4.7,1.6-6.7,4.7
			l-7.5,27.9L568.9,518.4L568.9,518.4z M614.5,530.1h40.8c1.6,0,2.8,1.6,2.8,3.1v13.3c0,1.2-1.2,2.4-2.8,2.4h-40.8
			c-2,0-2.7-1.2-2.7-2.4v-13.3C611.7,531.7,612.5,530.1,614.5,530.1L614.5,530.1z"/>
		<path class="st3" d="M243.2,588.2v-39.4h15.7c0,11.9,0,27.6,0,39.4c0,1.6-1.5,2.4-3.3,2.4c-2.4,0-6,0-8.6,0
			C244.1,590.7,243.4,590.2,243.2,588.2L243.2,588.2z"/>
		<path class="st4" d="M328.2,558.6c-1.4-4.2-5.4-7.1-10.2-7.1c-4.7,0-8.7,2.9-10.1,7.1h-27.3c0-3.5,0-6.9,0-9.9H265V588
			c0,1.8,0.9,2.4,3.9,2.4c2.4,0,6,0,8.4,0c1.8,0,3.3-0.9,3.3-2.4c0-6.5,0-14,0-21.5h27.6c1.7,3.9,5.4,6.6,9.8,6.6
			c4.5,0,8.3-2.7,9.9-6.6h27.6v-8H328.2L328.2,558.6z M355.5,588.2v-21.6V588.2L355.5,588.2z M355.5,558.6v-9.9h15.8
			c0,11.9,0,27.5,0,39.5c0,1.5-1.5,2.3-3.3,2.3c-2.4,0-6,0-8.6,0c-2.9,0.2-3.8-0.4-3.9-2.3V558.6L355.5,558.6z"/>
		<path class="st5" d="M328.2,558.6c-1.4-4.2-5.4-7.1-10.2-7.1c-4.7,0-8.7,2.9-10.1,7.1h-27.3c0-3.5,0-6.9,0-9.9H265V588
			c0,1.8,0.9,2.4,3.9,2.4c2.4,0,6,0,8.4,0c1.8,0,3.3-0.9,3.3-2.4c0-6.5,0-14,0-21.5h27.6c1.7,3.9,5.4,6.6,9.8,6.6
			c4.5,0,8.3-2.7,9.9-6.6h27.6v-8H328.2L328.2,558.6z M355.5,588.2v-21.6 M355.5,558.6v-9.9h15.8c0,11.9,0,27.5,0,39.5
			c0,1.5-1.5,2.3-3.3,2.3c-2.4,0-6,0-8.6,0c-2.9,0.2-3.8-0.4-3.9-2.3"/>
		<path class="st3" d="M377.1,588.2v-39.4h15.7c0,11.9,0,27.6,0,39.4c0,1.6-1.5,2.4-3.3,2.4c-2.4,0-6,0-8.6,0
			C378,590.7,377.3,590.2,377.1,588.2L377.1,588.2z"/>
		<polygon class="st3" points="235.4,541.1 235.4,523.2 400.8,523.2 400.8,541.1 235.4,541.1 		"/>
		<path class="st3" d="M235.6,515.3V380.7c46.4-14.8,120.2-14.8,165.3,0v134.6H235.6L235.6,515.3z"/>
	</g>
</g>
</svg>
