<?xml version="1.0" encoding="utf-8"?>
<!-- Generator: Adobe Illustrator 19.2.0, SVG Export Plug-In . SVG Version: 6.00 Build 0)  -->
<svg version="1.1" id="Livello_1" xmlns="http://www.w3.org/2000/svg" xmlns:xlink="http://www.w3.org/1999/xlink" x="0px" y="0px"
	 viewBox="0 0 960 960" style="enable-background:new 0 0 960 960;" xml:space="preserve">
<style type="text/css">
	.st0{opacity:1.000000e-002;fill:#FFFFFF;}
	.st1{fill-rule:evenodd;clip-rule:evenodd;fill:#FFFFFF;stroke:#1A171B;stroke-width:1.8295;stroke-miterlimit:2.6131;}
	.st2{fill-rule:evenodd;clip-rule:evenodd;fill:#005DA2;}
	.st3{fill-rule:evenodd;clip-rule:evenodd;fill:#E1001A;}
</style>
<rect class="st0" width="1" height="1"/>
<rect x="959" y="959" class="st0" width="1" height="1"/>
<path class="st1" d="M480,180c165.2,0,300,134.8,300,300c0,165.2-134.8,300-300,300S180,645.2,180,480C180,314.8,314.8,180,480,180
	L480,180z"/>
<g>
	<path class="st2" d="M480,412.9l103-103c-29.7-18.2-64.7-28.8-102-28.8c-37.9,0-73.3,10.9-103.3,29.6L480,412.9z"/>
	<path class="st2" d="M648.2,375.2l-103,103l102,102c18.7-30,29.6-65.4,29.6-103.3C676.8,439.7,666.4,404.9,648.2,375.2z"/>
	<path class="st2" d="M480,543.5L379.3,644.1c29.7,18.1,64.5,28.6,101.7,28.6c36.7,0,71-10.2,100.4-27.8L480,543.5z"/>
	<path class="st2" d="M414.7,478.2L313,376.5c-17.6,29.4-27.8,63.7-27.8,100.4c0,37.3,10.5,72.3,28.8,102L414.7,478.2z"/>
</g>
<path class="st3" d="M480,194.3c-157.4,0-285.7,128.3-285.7,285.7c0,157.4,128.3,285.7,285.7,285.7S765.7,637.4,765.7,480
	C765.7,322.6,637.4,194.3,480,194.3z M480.9,266.7c47.8,0,92.1,15.9,127.7,42.8L480,438.1L352.2,310.3
	C387.9,283,432.6,266.7,480.9,266.7z M268.2,479.4c0-48.7,16.5-93.7,44.3-129.6l127.9,127.9L311,607.1
	C284.2,571.5,268.2,527.2,268.2,479.4z M350.2,647L480,517.2l130.5,130.5c-35.9,27.7-80.9,44.3-129.6,44.3
	C431.7,692,386.3,675.2,350.2,647z M649.9,608.1L519.5,477.7l128.9-128.9c28.2,36.1,45.1,81.5,45.1,130.6
	C693.5,527.7,677.3,572.3,649.9,608.1z"/>
</svg>
