<?xml version="1.0" encoding="utf-8"?>
<!-- Generator: Adobe Illustrator 19.2.0, SVG Export Plug-In . SVG Version: 6.00 Build 0)  -->
<svg version="1.1" id="Livello_1" xmlns="http://www.w3.org/2000/svg" xmlns:xlink="http://www.w3.org/1999/xlink" x="0px" y="0px"
	 viewBox="0 0 960 960" style="enable-background:new 0 0 960 960;" xml:space="preserve">
<style type="text/css">
	.st0{fill-rule:evenodd;clip-rule:evenodd;fill:#005EA7;}
	.st1{fill:none;stroke:#FFFFFF;stroke-width:11.816;stroke-miterlimit:2.6131;}
	.st2{fill-rule:evenodd;clip-rule:evenodd;fill:#FFFFFF;stroke:#005EA7;stroke-width:1.1816;stroke-miterlimit:2.6131;}
</style>
<g>
	<g>
		<polygon class="st0" points="180,181.7 780,181.7 780,778.3 180,778.3 180,181.7 		"/>
		<path class="st1" d="M230.8,199.3h499.3c18.3,0,33.2,14.9,33.2,33.2v496.1c0,18.3-14.9,33.2-33.2,33.2H230.8
			c-18.3,0-33.2-14.9-33.2-33.2V232.5C197.6,214.2,212.6,199.3,230.8,199.3L230.8,199.3z"/>
		<path class="st2" d="M314.3,683.5V276.2h102.8c82.1,0,173.7,1.4,219.1,64.9c21.1,35.8,23.1,82.2,11.2,127.2
			c-11.6,41.8-64.9,83.3-115.9,82.6l-114.3-0.7v133.3H314.3L314.3,683.5z M417.5,465.5V357.4H492c40.2,0,37.4,7.8,51.8,18.4
			c20.3,20.6,15.1,62.4-2.4,72.7c-10.8,6.7-10.8,17-49.4,17H417.5L417.5,465.5z"/>
	</g>
</g>
</svg>
