<?xml version="1.0" encoding="utf-8"?>
<!-- Generator: Adobe Illustrator 19.2.0, SVG Export Plug-In . SVG Version: 6.00 Build 0)  -->
<svg version="1.1" id="Livello_1" xmlns="http://www.w3.org/2000/svg" xmlns:xlink="http://www.w3.org/1999/xlink" x="0px" y="0px"
	 viewBox="0 0 960 960" style="enable-background:new 0 0 960 960;" xml:space="preserve">
<style type="text/css">
	.st0{fill-rule:evenodd;clip-rule:evenodd;fill:#005EA7;stroke:#005EA7;stroke-width:0.6638;stroke-miterlimit:2.6131;}
	.st1{fill-rule:evenodd;clip-rule:evenodd;fill:#005EA7;stroke:#FFFFFF;stroke-width:6.6377;stroke-miterlimit:2.6131;}
	.st2{fill-rule:evenodd;clip-rule:evenodd;fill:#FFFFFF;stroke:#FFFFFF;stroke-width:1.7701;stroke-miterlimit:2.6131;}
	.st3{fill:none;stroke:#1A171B;stroke-width:4.4251;stroke-miterlimit:2.6131;}
	.st4{fill:none;stroke:#1A171B;stroke-width:0.6638;stroke-miterlimit:2.6131;}
	.st5{fill-rule:evenodd;clip-rule:evenodd;fill:#1A171B;}
	.st6{fill-rule:evenodd;clip-rule:evenodd;fill:#FFFFFF;stroke:#005EA7;stroke-width:0.6638;stroke-miterlimit:2.6131;}
</style>
<g>
	<g>
		<polygon class="st0" points="311.7,143.4 647.6,143.4 647.6,680.7 311.7,680.7 311.7,143.4 		"/>
		<path class="st1" d="M347.7,154.7h263.8c14.8,0,27,13,27,29v457.5c0,15.9-12.1,29-27,29H347.7c-14.8,0-27-13-27-29V183.7
			C320.7,167.7,332.9,154.7,347.7,154.7L347.7,154.7z"/>
		<path class="st2" d="M328.4,805l-2.8-1.1l-2.8-2.7c-3.5-30.6,0-60.1-1.8-91.8l3.8-5.5c101.7-3.8,202.8,0,305.7-1.8l5.5,3.5
			c3.6,30.6,0,60.4,1.8,91.9l-3.8,5.5C532.2,806.8,431.2,803.1,328.4,805L328.4,805z"/>
		<path class="st3" d="M337.6,698.4h284.9c9.1,0,16.6,7.5,16.6,16.6v75.9c0,9.1-7.5,16.6-16.6,16.6H337.6c-9.1,0-16.6-7.5-16.6-16.6
			V715C321,705.9,328.5,698.4,337.6,698.4L337.6,698.4z"/>
		<polygon class="st4" points="311.9,689.3 648.3,689.3 648.3,816.6 311.9,816.6 311.9,689.3 		"/>
		<path class="st5" d="M533.8,752.2c3.2-5.1,16.1-4.9,17.9,0.9c4.5-7.3,19.3-5.7,19.3,3.3v23.7h-10.9v-18.8c0-1.8,0-5.5-3.4-5.5
			c-2.7,0-4.3,3.1-4.3,4.6v19.7h-10.9v-18.8c0-1.8,0-5.5-3.4-5.5c-2.7,0-4.3,3.1-4.3,4.6v19.7h-10.9c0-8.9,0-19.5,0-28.5
			c0-0.7-0.5-1.5-0.5-2.2h10.9L533.8,752.2L533.8,752.2z"/>
		<path class="st5" d="M485.7,734.7c-1.3,0-2.7,0.2-3.5,0.9c-1.1,1.1-2,2.4-2.4,4.6c-0.7,2.4-0.9,6.9-0.9,13.1
			c0,6.4,0.2,10.4,0.9,12.6c0.4,2.4,1.3,4,2.2,4.6c1.1,0.7,2.4,1.1,3.8,1.1c1.3,0,2.4-0.4,3.3-1.1c0.9-0.7,2-2,2.7-4.2
			c0.7-2.4,1.1-6.6,1.1-13.1c0-6.2-0.4-10.6-0.9-12.6c-0.9-2.2-1.8-4-2.9-4.9C488.4,735,487.1,734.7,485.7,734.7L485.7,734.7z
			 M485.7,726.3c5.3,0,9.5,2,12.6,5.3c3.8,4.4,5.8,11.9,5.8,21.7s-2,17-5.8,21.2c-3.1,3.8-7.3,5.5-12.6,5.5c-5.5,0-10-2-13.5-5.8
			c-3.1-4-4.6-11.1-4.6-21.2c0-9.5,1.8-17,5.5-21.5C476.2,728.3,480.4,726.3,485.7,726.3L485.7,726.3z"/>
		<path class="st5" d="M441.9,734.3c-1.3,0-2.7,0.2-3.5,0.9c-1.1,1.1-2,2.4-2.4,4.6c-0.7,2.4-0.9,6.9-0.9,13.1
			c0,6.4,0.2,10.4,0.9,12.6c0.4,2.4,1.3,4,2.2,4.6c1.1,0.7,2.4,1.1,3.8,1.1c1.3,0,2.4-0.4,3.3-1.1c0.9-0.7,2-2,2.7-4.2
			c0.7-2.4,1.1-6.6,1.1-13.1c0-6.2-0.4-10.6-0.9-12.6c-0.9-2.2-1.8-4-2.9-4.9C444.6,734.5,443.3,734.3,441.9,734.3L441.9,734.3z
			 M441.9,725.9c5.3,0,9.5,2,12.6,5.3c3.8,4.4,5.8,12,5.8,21.7c0,9.7-2,17-5.8,21.2c-3.1,3.8-7.3,5.5-12.6,5.5c-5.5,0-10-2-13.5-5.8
			c-3.1-4-4.6-11.1-4.6-21.2c0-9.5,1.8-17,5.5-21.5C432.4,727.9,436.6,725.9,441.9,725.9L441.9,725.9z"/>
		<path class="st5" d="M381.1,765.1l10.2-1.3c0.2,2.7,1.3,4.9,2.4,6c1.3,1.3,3.3,2,5.1,2c1.8,0,3.8-0.9,5.3-2.2
			c1.3-1.5,2.2-3.8,2.2-6.4c0-2.4-0.7-4.6-2.2-6c-1.1-1.3-3.1-2.2-4.9-2.2c-1.3,0-3.1,0.4-4.6,0.9l0.9-8.8c2.7,0,4.6-0.4,6.2-1.3
			c1.3-1.6,2.4-3.3,2.4-5.3c0-1.5-0.9-2.9-2-3.8c-0.9-1.3-2.2-1.8-4-1.8c-1.5,0-3.3,0.4-4,1.8c-1.3,0.9-2.2,2.9-2.2,4.9l-10-1.5
			c0.4-3.1,1.8-5.5,2.9-7.3c1.3-1.8,3.3-3.8,5.8-4.4c2.4-1.3,5.5-1.8,8.2-1.8c5.3,0,9.3,1.8,12.4,4.6c2.7,2.7,4,5.7,4,8.8
			c0,4.6-2.9,8.4-8.4,11.1c3.1,0.7,6,2.2,7.5,4.4c2,2.2,3.3,5.1,3.3,8.4c0,4.2-2,8.4-5.5,11.5c-3.5,3.1-8,4.9-12.8,4.9
			c-5.1,0-9.3-1.3-12.6-4C383.3,773.5,381.5,769.5,381.1,765.1L381.1,765.1z"/>
		<path class="st6" d="M402.8,637.1V540c0-27.3,22.9-44.7,44.9-44.7h30.3l-6.6-30.5c0.2-2.6,1-8,6.6-6.2l87.7,54.2l-87.7,54.6
			c-6,0.6-7-2-6.6-6l6.6-31.3h-18.5c-22.1,0-22.1,11.4-22.1,24.9v82.2H402.8L402.8,637.1z"/>
		<path class="st6" d="M389.7,417.2V188.5h59.2c42.9,0,85.8,0.2,112.7,36.4c11,20.1,12.5,46,4.8,71.5c-6.9,22.5-36,46.4-61.3,46.4
			l-56.3-0.4v74.9H389.7L389.7,417.2z M449.1,294.8v-60.7h31.5c11,0,19.6,4.4,27.1,10.4c11.5,11.2,11.3,31.1-1.2,40.8
			c-5.6,4.6-17.7,9.6-25.8,9.6H449.1L449.1,294.8z"/>
	</g>
</g>
</svg>
