<?xml version="1.0" encoding="utf-8"?>
<!-- Generator: Adobe Illustrator 19.2.0, SVG Export Plug-In . SVG Version: 6.00 Build 0)  -->
<svg version="1.1" id="Livello_1" xmlns="http://www.w3.org/2000/svg" xmlns:xlink="http://www.w3.org/1999/xlink" x="0px" y="0px"
	 viewBox="0 0 960 960" style="enable-background:new 0 0 960 960;" xml:space="preserve">
<style type="text/css">
	.st0{fill-rule:evenodd;clip-rule:evenodd;fill:#FFFFFF;stroke:#1A171B;stroke-width:0.9531;stroke-miterlimit:2.6131;}
	.st1{fill:none;stroke:#1A171B;stroke-width:9.5307;stroke-miterlimit:2.6131;}
	.st2{fill-rule:evenodd;clip-rule:evenodd;fill:#E1001A;}
	.st3{fill-rule:evenodd;clip-rule:evenodd;fill:#FFFFFF;}
	.st4{fill-rule:evenodd;clip-rule:evenodd;fill:#005EA7;}
	.st5{fill-rule:evenodd;clip-rule:evenodd;fill:#1A171B;}
</style>
<polygon class="st0" points="238.2,120 721.8,120 721.8,840 238.2,840 238.2,120 "/>
<path class="st1" d="M290.4,134.9h379.8c21.4,0,38.9,17.5,38.9,38.9V787c0,21.4-17.5,38.9-38.9,38.9H290.4
	c-21.4,0-38.9-17.5-38.9-38.9V173.8C251.5,152.4,269,134.9,290.4,134.9L290.4,134.9z"/>
<path class="st0" d="M494.6,232.8c52.1,9.3,85.8,28.2,117.5,71c18,29.1,26.5,56.1,27.6,90.2c-2.3,68.1-37.5,120.1-98.6,148.6
	c-69.2,28.5-138.7,8.7-187.9-46c-30.8-40.4-42.5-84.9-33.5-135.5c10.5-39,25.6-64.9,55.6-91.9c32-23.9,62.2-35.8,102.7-36.9
	L494.6,232.8L494.6,232.8z"/>
<path class="st2" d="M478.7,241.2c83.9,0,152.4,68.5,152.4,152.4s-68.5,152.4-152.4,152.4c-83.9,0-152.4-68.4-152.4-152.4
	S394.8,241.2,478.7,241.2L478.7,241.2z"/>
<path class="st3" d="M478.7,280.1c62.5,0,113.4,50.9,113.4,113.4c0,62.5-50.9,113.4-113.4,113.4c-62.5,0-113.4-50.9-113.4-113.4
	C365.3,331.1,416.2,280.1,478.7,280.1L478.7,280.1z"/>
<path class="st4" d="M478.8,287.8c57.5,0,104.4,46.9,104.4,104.4c0,57.5-46.9,104.4-104.4,104.4c-57.5,0-104.4-46.9-104.4-104.4
	C374.4,334.7,421.3,287.8,478.8,287.8L478.8,287.8z"/>
<polygon class="st3" points="419.5,299.4 571.6,451.5 536.8,486.3 384.7,334.2 419.5,299.4 "/>
<polygon class="st2" points="396.4,289.7 581.2,474.5 560.1,495.6 375.3,310.8 396.4,289.7 "/>
<path class="st5" d="M300.9,193.2l6.3,2.5c-1,4.4-2.6,7.7-4.8,9.9c-2.2,2.2-5.1,3.2-8.5,3.2c-4.3,0-7.8-1.8-10.5-5.5
	c-2.7-3.7-4.1-8.7-4.1-15.1c0-6.8,1.4-12,4.1-15.8c2.8-3.7,6.4-5.6,10.9-5.6c3.9,0,7.1,1.5,9.6,4.4c1.5,1.7,2.6,4.2,3.3,7.5
	l-6.4,1.9c-0.4-2.1-1.2-3.8-2.4-5c-1.2-1.2-2.7-1.8-4.4-1.8c-2.4,0-4.3,1.1-5.8,3.3c-1.5,2.2-2.2,5.7-2.2,10.5c0,5.1,0.7,8.8,2.2,11
	c1.5,2.2,3.3,3.3,5.7,3.3c1.7,0,3.2-0.7,4.4-2.1C299.5,198.4,300.4,196.2,300.9,193.2L300.9,193.2z"/>
<path class="st5" d="M311.4,188.1c0-4.2,0.5-7.6,1.5-10.4c0.7-2.1,1.7-3.9,3-5.6c1.3-1.6,2.6-2.9,4.1-3.7c2-1.1,4.3-1.6,6.9-1.6
	c4.7,0,8.5,1.9,11.3,5.6c2.8,3.7,4.3,8.9,4.3,15.5c0,6.6-1.4,11.7-4.2,15.4c-2.8,3.7-6.6,5.6-11.3,5.6c-4.8,0-8.6-1.8-11.4-5.5
	C312.8,199.7,311.4,194.6,311.4,188.1L311.4,188.1z M318.1,187.8c0,4.6,0.8,8.1,2.5,10.5c1.7,2.4,3.8,3.6,6.4,3.6
	c2.6,0,4.7-1.2,6.4-3.5c1.6-2.4,2.5-5.9,2.5-10.6c0-4.7-0.8-8.1-2.4-10.4c-1.6-2.3-3.8-3.4-6.4-3.4c-2.7,0-4.8,1.2-6.5,3.5
	C318.9,179.6,318.1,183.1,318.1,187.8L318.1,187.8z"/>
<polygon class="st5" points="347.5,208.2 347.5,167.5 357.2,167.5 363,195.3 368.7,167.5 378.4,167.5 378.4,208.2 372.4,208.2 
	372.4,176.2 366,208.2 359.8,208.2 353.5,176.2 353.5,208.2 347.5,208.2 "/>
<path class="st5" d="M384.8,167.5h6.5v22c0,3.5,0.1,5.8,0.2,6.8c0.3,1.7,0.9,3,2,4c1,1,2.5,1.5,4.3,1.5c1.8,0,3.2-0.5,4.2-1.4
	c0.9-0.9,1.5-2.1,1.7-3.5c0.2-1.4,0.3-3.7,0.3-6.9v-22.5h6.5v21.4c0,4.9-0.2,8.3-0.5,10.4c-0.3,2-1,3.7-1.9,5.1
	c-0.9,1.4-2.2,2.5-3.8,3.3c-1.6,0.8-3.6,1.2-6.2,1.2c-3.1,0-5.4-0.4-7-1.3c-1.6-0.9-2.8-2.1-3.7-3.5c-0.9-1.4-1.5-2.9-1.8-4.5
	c-0.4-2.3-0.6-5.8-0.6-10.3V167.5L384.8,167.5z"/>
<polygon class="st5" points="417.2,208.2 417.2,167.5 423.5,167.5 436.6,194.7 436.6,167.5 442.7,167.5 442.7,208.2 436.2,208.2 
	423.2,181.7 423.2,208.2 417.2,208.2 "/>
<polygon class="st5" points="449.5,208.2 449.5,167.5 473.2,167.5 473.2,174.4 456,174.4 456,183.4 472,183.4 472,190.3 456,190.3 
	456,201.3 473.9,201.3 473.9,208.2 449.5,208.2 "/>
<path class="st5" d="M491.8,167.5h11.8c2.7,0,4.7,0.3,6.1,0.8c1.9,0.7,3.5,2,4.8,3.8c1.3,1.8,2.4,4,3.1,6.6c0.7,2.6,1,5.8,1,9.6
	c0,3.3-0.3,6.2-1,8.7c-0.8,3-1.9,5.4-3.4,7.2c-1.1,1.4-2.6,2.5-4.5,3.3c-1.4,0.6-3.3,0.9-5.7,0.9h-12.2V167.5L491.8,167.5z
	 M498.2,174.4v27h4.8c1.8,0,3.1-0.1,3.9-0.4c1-0.3,1.9-0.9,2.6-1.7c0.7-0.8,1.3-2.1,1.7-3.9c0.4-1.8,0.7-4.3,0.7-7.5
	s-0.2-5.6-0.7-7.2c-0.4-1.7-1.1-3-1.8-3.9c-0.8-0.9-1.8-1.6-3-1.9c-0.9-0.3-2.7-0.4-5.3-0.4H498.2L498.2,174.4z"/>
<polygon class="st5" points="523.9,208.2 523.9,167.5 530.4,167.5 530.4,208.2 523.9,208.2 "/>
<path class="st5" d="M549,208.2v-40.7h13.6c3.4,0,5.9,0.4,7.5,1.1c1.6,0.7,2.8,2,3.7,3.9c0.9,1.9,1.4,4,1.4,6.4
	c0,3.1-0.7,5.6-2.1,7.6c-1.4,2-3.5,3.2-6.3,3.8c1.4,1,2.6,2.2,3.5,3.4c0.9,1.2,2.1,3.4,3.7,6.6l3.9,7.9h-7.7l-4.7-8.9
	c-1.7-3.2-2.8-5.2-3.4-6c-0.6-0.8-1.3-1.4-1.9-1.7c-0.7-0.3-1.8-0.5-3.3-0.5h-1.3v17H549L549,208.2z M555.5,184.7h4.8
	c3.1,0,5-0.2,5.8-0.5c0.8-0.3,1.4-0.9,1.8-1.7c0.4-0.8,0.7-1.8,0.7-3.1c0-1.4-0.3-2.5-0.9-3.3c-0.6-0.8-1.4-1.4-2.4-1.6
	c-0.5-0.1-2.1-0.1-4.7-0.1h-5V184.7L555.5,184.7z"/>
<path class="st5" d="M580,188.1c0-4.2,0.5-7.6,1.5-10.4c0.7-2.1,1.7-3.9,3-5.6c1.3-1.6,2.6-2.9,4.1-3.7c2-1.1,4.3-1.6,6.9-1.6
	c4.7,0,8.5,1.9,11.3,5.6c2.8,3.7,4.3,8.9,4.3,15.5c0,6.6-1.4,11.7-4.2,15.4c-2.8,3.7-6.6,5.6-11.3,5.6c-4.8,0-8.6-1.8-11.4-5.5
	C581.4,199.7,580,194.6,580,188.1L580,188.1z M586.7,187.8c0,4.6,0.8,8.1,2.5,10.5c1.7,2.4,3.8,3.6,6.4,3.6c2.6,0,4.7-1.2,6.4-3.5
	c1.7-2.4,2.5-5.9,2.5-10.6c0-4.7-0.8-8.1-2.4-10.4c-1.6-2.3-3.7-3.4-6.4-3.4c-2.7,0-4.8,1.2-6.5,3.5
	C587.5,179.6,586.7,183.1,586.7,187.8L586.7,187.8z"/>
<polygon class="st5" points="616.1,208.2 616.1,167.5 625.8,167.5 631.6,195.3 637.3,167.5 647,167.5 647,208.2 641,208.2 
	641,176.2 634.6,208.2 628.4,208.2 622.1,176.2 622.1,208.2 616.1,208.2 "/>
<path class="st5" d="M682.3,208.2h-7l-2.8-9.2h-12.8l-2.6,9.2h-6.9l12.5-40.7h6.8L682.3,208.2L682.3,208.2z M670.4,192.1L666,177
	l-4.3,15.1H670.4L670.4,192.1z"/>
<path class="st5" d="M366.4,593.7h10.7v6.3c1.2-2,3-3.8,5.2-5.2c2.3-1.3,4.8-2.2,7.5-2.2c4.8,0,9,2,12.4,5.7c3.3,3.8,5,9.4,5,16.2
	c0,7-1.8,12.5-5.2,16.4c-3.3,3.8-7.7,5.8-12.4,5.8c-2.3,0-4.5-0.5-6.3-1.3c-1.8-0.8-3.8-2.5-5.8-4.7v21.1h-11V593.7L366.4,593.7z
	 M377.4,614.1c0,4.7,1,8.4,2.7,10.5c1.8,2.3,4.2,3.5,6.9,3.5c2.7,0,4.8-1,6.5-3c1.7-2,2.7-5.7,2.7-10.4c0-4.5-1-8-2.7-10
	c-1.7-2.2-4-3.3-6.7-3.3c-2.7,0-5,1.2-6.7,3.2C378.4,606.8,377.4,610.1,377.4,614.1L377.4,614.1z M424.4,606.8l-10-1.3
	c1-4.2,2.8-7.5,5.5-9.5c2.7-2,6.9-3.2,12.2-3.2c4.8,0,8.5,0.7,10.9,1.8c2.3,1.2,4,2.8,5,4.5c1,1.7,1.5,5.2,1.5,10v13
	c0,3.7,0.2,6.3,0.5,8c0.3,1.7,1.3,3.7,2.5,5.7h-11c-0.3-0.7-0.8-1.8-1.2-3.2c-0.2-0.5-0.3-1-0.3-1.2c-1.8,1.7-4,3.2-6,4
	c-2.2,0.8-4.7,1.3-7,1.3c-4.3,0-7.9-1.2-10.2-3.5c-2.3-2.3-3.7-5.3-3.7-8.9c0-2.3,0.5-4.5,1.5-6.3c1-1.8,2.7-3.3,4.7-4.3
	c2-1,5-1.8,8.7-2.5c5-1,8.5-2,10.5-2.8v-1c0-2-0.5-3.7-1.5-4.5c-1-1-3-1.5-5.7-1.5c-1.8,0-3.3,0.5-4.3,1.2
	C425.9,603.4,424.9,604.9,424.4,606.8L424.4,606.8z M438.4,615.8c-1.3,0.5-3.7,1.2-6.5,1.8c-3,0.7-5,1.3-5.8,1.8c-1.3,1-2,2.5-2,4
	c0,1.5,0.5,3,1.5,4c1,1,2.7,1.7,4.3,1.7c1.8,0,3.8-0.7,5.5-1.8c1.2-1,2.2-2.3,2.5-3.8c0.3-0.8,0.5-2.7,0.5-5.3V615.8L438.4,615.8z
	 M457.5,623.5l11-1.3c0.3,2.2,1.5,4,2.8,5c1.3,1,3.5,1.7,6.2,1.7c2.8,0,5.2-0.5,6.5-1.5c1-0.7,1.5-1.8,1.5-3c0-0.8-0.3-1.7-0.8-2.2
	c-0.5-0.3-1.8-1-3.8-1.3c-9-2-14.7-3.8-17-5.5c-3.3-2.2-5-5.5-5-9.5c0-3.7,1.5-6.9,4.2-9.2c2.8-2.5,7.5-3.8,13.5-3.8
	c5.7,0,10.2,1,12.9,2.8c2.7,2,4.8,4.8,5.8,8.5l-10.4,2c-0.5-1.7-1.5-3-2.7-3.8c-1.2-1-3.2-1.5-5.5-1.5c-2.8,0-5,0.5-6.4,1.3
	c-0.7,0.5-1.2,1.3-1.2,2.2c0,0.8,0.3,1.7,1,2.2c1,0.7,4.5,1.7,10.4,3c6,1.3,10.2,3.2,12.5,5c2.3,2,3.5,4.8,3.5,8.4
	c0,3.8-1.7,7.2-4.8,9.9c-3.2,2.7-8,4.2-14.2,4.2c-5.7,0-10.4-1.2-13.5-3.5C460.6,631,458.5,627.5,457.5,623.5L457.5,623.5z
	 M502.6,623.5l11-1.3c0.3,2.2,1.5,4,2.8,5c1.3,1,3.5,1.7,6.2,1.7c2.8,0,5.2-0.5,6.5-1.5c1-0.7,1.5-1.8,1.5-3c0-0.8-0.3-1.7-0.8-2.2
	c-0.5-0.3-1.8-1-3.8-1.3c-9-2-14.7-3.8-17-5.5c-3.3-2.2-5-5.5-5-9.5c0-3.7,1.5-6.9,4.2-9.2c2.8-2.5,7.5-3.8,13.5-3.8
	c5.7,0,10.2,1,12.9,2.8c2.7,2,4.8,4.8,5.8,8.5l-10.4,2c-0.5-1.7-1.5-3-2.7-3.8c-1.2-1-3.2-1.5-5.5-1.5c-2.8,0-5,0.5-6.3,1.3
	c-0.7,0.5-1.2,1.3-1.2,2.2c0,0.8,0.3,1.7,1,2.2c1,0.7,4.5,1.7,10.4,3c6,1.3,10.2,3.2,12.5,5c2.3,2,3.5,4.8,3.5,8.4
	c0,3.8-1.7,7.2-4.8,9.9c-3.2,2.7-8,4.2-14.2,4.2c-5.7,0-10.4-1.2-13.5-3.5C505.8,631,503.6,627.5,502.6,623.5L502.6,623.5z
	 M548.7,614.1c0-3.5,1-7.2,2.7-10.5c1.7-3.5,4.3-6.4,7.7-8c3.3-1.8,7.2-2.8,11.2-2.8c6.4,0,11.7,2.2,15.7,6.2
	c4,4.2,6.2,9.5,6.2,15.9c0,6.4-2.2,11.7-6.2,15.7c-4,4.2-9.4,6.3-15.5,6.3c-3.8,0-7.7-0.8-11-2.5c-3.5-1.7-6.3-4.3-8-7.7
	c-1.7-3.3-2.7-7.7-2.7-12.4V614.1L548.7,614.1z M559.7,614.8c0,4.2,1,7.5,2.8,9.7c2,2.2,4.5,3.3,7.5,3.3c2.8,0,5.3-1.2,7.4-3.3
	c2-2.2,3-5.5,3-9.7c0-4-1-7.4-3-9.5c-2-2.3-4.5-3.5-7.4-3.5c-3,0-5.5,1.2-7.4,3.3C560.7,607.4,559.7,610.8,559.7,614.8L559.7,614.8z
	"/>
<path class="st5" d="M352.6,697l-11,2c-0.3-2-1.3-3.8-2.7-4.8c-1.3-1.2-3.2-1.8-5.3-1.8c-2.8,0-5.2,1-6.9,2.8
	c-1.7,2-2.5,5.3-2.5,9.9c0,5,0.8,8.5,2.5,10.5c1.7,2,4.2,3.2,7,3.2c2.2,0,4-0.7,5.3-1.7c1.3-1.2,2.5-3.3,3.2-6.3l11,1.3
	c-1.2,5.2-3.5,9.2-6.7,11.7c-3.2,2.7-7.7,4-13,4c-6.2,0-11.2-2-14.9-5.7c-3.7-3.8-5.5-9.4-5.5-16.2c0-7,1.8-12.5,5.5-16.4
	c3.7-3.8,8.7-5.9,15-5.9c5,0,9.2,1.2,12.2,3.3C348.9,689.1,351.3,692.7,352.6,697L352.6,697z M369.3,697.7l-10-1.3
	c1-4.2,2.8-7.5,5.5-9.5c2.7-2,6.9-3.2,12.2-3.2c4.8,0,8.5,0.7,10.9,1.8c2.3,1.2,4,2.8,5,4.5c1,1.7,1.5,5.2,1.5,10v13
	c0,3.7,0.2,6.3,0.5,8c0.3,1.7,1.3,3.7,2.5,5.7h-11c-0.3-0.7-0.8-1.8-1.2-3.2c-0.2-0.5-0.3-1-0.3-1.2c-1.8,1.7-4,3.2-6,4
	c-2.2,0.8-4.7,1.3-7,1.3c-4.3,0-7.9-1.2-10.2-3.5c-2.3-2.3-3.7-5.3-3.7-8.9c0-2.3,0.5-4.5,1.5-6.4c1-1.8,2.7-3.3,4.7-4.3
	c2-1,5-1.8,8.7-2.5c5-1,8.5-2,10.5-2.8v-1c0-2-0.5-3.7-1.5-4.5c-1-1-3-1.5-5.7-1.5c-1.8,0-3.3,0.5-4.3,1.2
	C370.8,694.3,369.8,695.8,369.3,697.7L369.3,697.7z M383.3,706.7c-1.3,0.5-3.7,1.2-6.5,1.8c-3,0.7-5,1.3-5.8,1.8c-1.3,1-2,2.5-2,4
	s0.5,3,1.5,4c1,1,2.7,1.7,4.3,1.7c1.8,0,3.8-0.7,5.5-1.8c1.2-1,2.2-2.3,2.5-3.8c0.3-0.8,0.5-2.7,0.5-5.3V706.7L383.3,706.7z
	 M417.1,726.7h-11v-42.1h10.7v6c1.7-2.7,3.2-4.7,4.5-5.5c1.3-1,3-1.5,4.7-1.5c2.3,0,4.8,0.8,7.2,2.2l-3.5,9.7
	c-1.8-1.2-3.7-1.8-5.2-1.8c-1.5,0-2.8,0.5-3.8,1.3c-1,0.8-2,2.5-2.5,4.7c-0.7,2.2-1,7-1,14.2V726.7L417.1,726.7z M448.7,726.7h-11
	v-42.1h10.7v6c1.7-2.7,3.2-4.7,4.5-5.5c1.3-1,3-1.5,4.7-1.5c2.3,0,4.8,0.8,7.2,2.2l-3.5,9.7c-1.8-1.2-3.7-1.8-5.2-1.8
	c-1.5,0-2.8,0.5-3.8,1.3c-1,0.8-2,2.5-2.5,4.7c-0.7,2.2-1,7-1,14.2V726.7L448.7,726.7z M477.6,697.7l-10-1.3c1-4.2,2.8-7.5,5.5-9.5
	c2.7-2,6.9-3.2,12.2-3.2c4.8,0,8.5,0.7,10.9,1.8c2.3,1.2,4,2.8,5,4.5c1,1.7,1.5,5.2,1.5,10v13c0,3.7,0.2,6.3,0.5,8
	c0.3,1.7,1.3,3.7,2.5,5.7h-11c-0.3-0.7-0.8-1.8-1.2-3.2c-0.2-0.5-0.3-1-0.3-1.2c-1.8,1.7-4,3.2-6,4c-2.2,0.8-4.7,1.3-7,1.3
	c-4.3,0-7.9-1.2-10.2-3.5c-2.3-2.3-3.7-5.3-3.7-8.9c0-2.3,0.5-4.5,1.5-6.4c1-1.8,2.7-3.3,4.7-4.3c2-1,5-1.8,8.7-2.5
	c5-1,8.5-2,10.5-2.8v-1c0-2-0.5-3.7-1.5-4.5c-1-1-3-1.5-5.7-1.5c-1.8,0-3.3,0.5-4.3,1.2C479.1,694.3,478.1,695.8,477.6,697.7
	L477.6,697.7z M491.6,706.7c-1.3,0.5-3.7,1.2-6.5,1.8c-3,0.7-5,1.3-5.8,1.8c-1.3,1-2,2.5-2,4s0.5,3,1.5,4c1,1,2.7,1.7,4.3,1.7
	c1.8,0,3.8-0.7,5.5-1.8c1.2-1,2.2-2.3,2.5-3.8c0.3-0.8,0.5-2.7,0.5-5.3V706.7L491.6,706.7z M514.4,726.7v-58.2h11v21.1
	c3.3-4,7.4-6,12-6c5,0,9.4,1.8,12.7,5.5c3.3,3.7,5,9.2,5,16.2c0,7.2-1.7,12.9-5,16.5c-3.3,3.8-7.5,5.9-12.2,5.9
	c-2.3,0-4.8-0.7-7-1.7c-2.3-1.2-4.3-3.2-5.8-5.5v6.2H514.4L514.4,726.7z M525.4,704.9c0,4.3,0.7,7.9,2,9.9c1.8,2.8,4.5,4.3,7.7,4.3
	c2.3,0,4.7-1,6.4-3c1.7-2,2.7-5.5,2.7-10c0-4.7-1-8.4-2.7-10.4c-1.7-2.2-4-3.3-6.7-3.3c-2.7,0-5,1.2-6.7,3.2c-1.7,2-2.7,5.3-2.7,9.5
	V704.9L525.4,704.9z M564,678.9v-10.4h11v10.4H564L564,678.9z M564,726.7v-42.1h11v42.1H564L564,726.7z M586.5,726.7v-58.2h11v58.2
	H586.5L586.5,726.7z M633.8,713.4l11,1.3c-1.3,4.3-3.8,7.7-6.9,9.7c-3,2.2-7,3.3-11.5,3.3c-7.4,0-12.9-2.5-16.4-7.2
	c-2.7-3.7-4-8.7-4-14.5c0-6.9,1.8-12.4,5.3-16.4c3.7-4,8.4-6,13.9-6c6.4,0,11.4,2.2,14.9,6.2c3.7,4,5.3,10.5,5.3,18.9h-28.4
	c0,3.3,1,6,2.7,7.7c1.7,1.7,4,2.7,6.7,2.7c1.7,0,3.3-0.5,4.5-1.3C632.2,716.9,633.2,715.4,633.8,713.4L633.8,713.4z M634.5,702
	c0-3-1-5.5-2.7-7.2c-1.7-1.7-3.7-2.5-6-2.5c-2.3,0-4.5,1-6.2,2.7c-1.7,1.7-2.3,4.2-2.3,7H634.5L634.5,702z"/>
<path class="st5" d="M406.7,795.5l4.2-0.7c0.1,1.4,0.5,2.5,1.1,3.2c0.6,0.7,1.3,1.1,2.1,1.1c0.9,0,1.6-0.4,2.2-1.3
	c0.6-0.9,0.9-2.1,0.9-3.6c0-1.4-0.3-2.5-0.9-3.4c-0.6-0.8-1.3-1.2-2.1-1.2c-0.5,0-1.2,0.1-2,0.4l0.5-4.6c1.2,0,2.1-0.3,2.7-1
	c0.6-0.7,0.9-1.6,0.9-2.8c0-1-0.2-1.8-0.7-2.4c-0.5-0.6-1.1-0.9-1.8-0.9c-0.7,0-1.4,0.3-1.9,1c-0.5,0.7-0.8,1.6-1,2.9l-4-0.9
	c0.3-1.8,0.7-3.2,1.3-4.3c0.6-1.1,1.3-1.9,2.3-2.5c1-0.6,2.1-0.9,3.4-0.9c2.1,0,3.8,0.9,5.1,2.6c1.1,1.4,1.6,3.1,1.6,4.9
	c0,2.6-1.1,4.6-3.2,6.2c1.3,0.4,2.3,1.2,3.1,2.4c0.8,1.3,1.2,2.8,1.2,4.6c0,2.6-0.7,4.8-2.2,6.6c-1.4,1.8-3.2,2.7-5.4,2.7
	c-2,0-3.7-0.8-5.1-2.3C407.7,799.9,406.9,797.9,406.7,795.5L406.7,795.5z"/>
<path class="st5" d="M432.7,803.3v-5.9h-9.2v-4.9l9.8-18.7h3.6v18.7h2.8v5h-2.8v5.9H432.7L432.7,803.3z M432.7,792.4v-10.1
	l-5.2,10.1H432.7L432.7,792.4z"/>
<path class="st5" d="M450.2,803.3v-5.9H441v-4.9l9.8-18.7h3.6v18.7h2.8v5h-2.8v5.9H450.2L450.2,803.3z M450.2,792.4v-10.1l-5.2,10.1
	H450.2L450.2,792.4z"/>
<path class="st5" d="M466.5,773.7c2.2,0,3.9,1,5.1,3.1c1.5,2.4,2.2,6.4,2.2,12c0,5.6-0.7,9.6-2.2,12c-1.2,2-2.9,3-5.1,3
	c-2.2,0-3.9-1.1-5.3-3.3c-1.3-2.2-2-6.1-2-11.8c0-5.5,0.7-9.5,2.2-12C462.6,774.7,464.3,773.7,466.5,773.7L466.5,773.7z
	 M466.5,778.4c-0.5,0-1,0.2-1.4,0.7c-0.4,0.4-0.7,1.2-1,2.3c-0.3,1.5-0.4,3.9-0.4,7.4c0,3.5,0.1,5.8,0.4,7.1c0.3,1.3,0.6,2.2,1,2.6
	c0.4,0.4,0.9,0.6,1.4,0.6c0.5,0,1-0.2,1.4-0.7c0.4-0.4,0.7-1.2,1-2.3c0.3-1.4,0.4-3.9,0.4-7.3c0-3.5-0.1-5.8-0.4-7.1
	c-0.3-1.3-0.6-2.2-1-2.6C467.5,778.6,467,778.4,466.5,778.4L466.5,778.4z"/>
<polygon class="st5" points="475.3,803.8 480.9,773.4 484.1,773.4 478.5,803.8 475.3,803.8 "/>
<path class="st5" d="M496.4,803.3h-4.3V782c-1.6,1.9-3.4,3.4-5.6,4.3v-5.1c1.1-0.5,2.3-1.4,3.7-2.7c1.3-1.3,2.2-2.9,2.7-4.7h3.5
	V803.3L496.4,803.3z"/>
<path class="st5" d="M503,796.5l4.2-0.6c0.1,1.1,0.4,1.9,0.8,2.5c0.4,0.5,1,0.8,1.7,0.8c0.9,0,1.6-0.5,2.3-1.6
	c0.6-1.1,1-3.3,1.2-6.7c-1.1,1.7-2.4,2.5-4.1,2.5c-1.8,0-3.3-0.9-4.6-2.7c-1.3-1.8-1.9-4.1-1.9-7c0-3,0.7-5.4,2-7.2
	c1.3-1.8,3.1-2.7,5.2-2.7c2.3,0,4.2,1.2,5.6,3.5c1.5,2.3,2.2,6.1,2.2,11.4c0,5.4-0.8,9.3-2.3,11.6c-1.5,2.4-3.5,3.6-6,3.6
	c-1.8,0-3.2-0.6-4.3-1.8C504,800.7,503.3,798.9,503,796.5L503,796.5z M512.7,784.2c0-1.8-0.3-3.2-1-4.2c-0.6-1-1.4-1.5-2.2-1.5
	c-0.8,0-1.5,0.4-2,1.2c-0.5,0.8-0.8,2.2-0.8,4c0,1.9,0.3,3.3,0.9,4.2c0.6,0.9,1.3,1.3,2.2,1.3c0.8,0,1.5-0.4,2.1-1.3
	C512.5,787.1,512.7,785.8,512.7,784.2L512.7,784.2z"/>
<path class="st5" d="M520.4,796.5l4.2-0.6c0.1,1.1,0.4,1.9,0.8,2.5c0.4,0.5,1,0.8,1.7,0.8c0.9,0,1.6-0.5,2.3-1.6
	c0.6-1.1,1-3.3,1.2-6.7c-1.1,1.7-2.4,2.5-4.1,2.5c-1.8,0-3.3-0.9-4.6-2.7c-1.3-1.8-1.9-4.1-1.9-7c0-3,0.7-5.4,2-7.2
	c1.4-1.8,3.1-2.7,5.2-2.7c2.3,0,4.1,1.2,5.6,3.5c1.5,2.3,2.2,6.1,2.2,11.4c0,5.4-0.8,9.3-2.3,11.6c-1.5,2.4-3.5,3.6-6,3.6
	c-1.8,0-3.2-0.6-4.3-1.8C521.4,800.7,520.7,798.9,520.4,796.5L520.4,796.5z M530.2,784.2c0-1.8-0.3-3.2-1-4.2
	c-0.6-1-1.4-1.5-2.2-1.5c-0.8,0-1.5,0.4-2,1.2c-0.5,0.8-0.8,2.2-0.8,4c0,1.9,0.3,3.3,0.9,4.2c0.6,0.9,1.3,1.3,2.1,1.3
	c0.8,0,1.5-0.4,2.1-1.3C529.9,787.1,530.2,785.8,530.2,784.2L530.2,784.2z"/>
<path class="st5" d="M546.3,803.3v-5.9h-9.2v-4.9l9.8-18.7h3.6v18.7h2.8v5h-2.8v5.9H546.3L546.3,803.3z M546.3,792.4v-10.1
	l-5.2,10.1H546.3L546.3,792.4z"/>
</svg>
