<?xml version="1.0" encoding="utf-8"?>
<!-- Generator: Adobe Illustrator 19.2.0, SVG Export Plug-In . SVG Version: 6.00 Build 0)  -->
<svg version="1.1" id="Livello_1" xmlns="http://www.w3.org/2000/svg" xmlns:xlink="http://www.w3.org/1999/xlink" x="0px" y="0px"
	 viewBox="0 0 960 960" style="enable-background:new 0 0 960 960;" xml:space="preserve">
<style type="text/css">
	.st0{fill-rule:evenodd;clip-rule:evenodd;fill:#1D1D1B;stroke:#1D1D1B;stroke-width:0.9531;stroke-miterlimit:2.6131;}
	.st1{fill-rule:evenodd;clip-rule:evenodd;fill:#FFFFFF;stroke:#1D1D1B;stroke-width:0.9531;stroke-miterlimit:2.6131;}
	.st2{fill:none;stroke:#1D1D1B;stroke-width:9.5307;stroke-miterlimit:2.6131;}
	.st3{fill-rule:evenodd;clip-rule:evenodd;fill:#E20613;}
	.st4{fill-rule:evenodd;clip-rule:evenodd;fill:#FFFFFF;}
	.st5{fill-rule:evenodd;clip-rule:evenodd;fill:#005CA8;}
	.st6{fill-rule:evenodd;clip-rule:evenodd;fill:#005CA8;stroke:#005CA8;stroke-width:0.9531;stroke-miterlimit:2.6131;}
	.st7{fill:none;stroke:#1D1D1B;stroke-width:3.1769;stroke-miterlimit:2.6131;stroke-dasharray:15.8845,15.8845;}
</style>
<g>
	<g>
		<path class="st0" d="M329.8,548.3V546h1C332.4,546.6,330.9,549.1,329.8,548.3L329.8,548.3z"/>
		<polygon class="st1" points="238.2,120 721.8,120 721.8,840 238.2,840 238.2,120 		"/>
		<path class="st2" d="M290.4,134.9h379.8c21.4,0,38.9,17.5,38.9,38.9V787c0,21.4-17.5,38.9-38.9,38.9H290.4
			c-21.4,0-38.9-17.5-38.9-38.9V173.8C251.5,152.4,269,134.9,290.4,134.9L290.4,134.9z"/>
		<path class="st1" d="M495.8,167.7c54.3,9.7,89.4,29.4,122.5,74c18.8,30.3,27.6,58.5,28.8,94c-2.4,71-39.1,125.2-102.8,154.9
			c-72.2,29.7-144.6,9.1-195.9-47.9c-32.1-42.1-44.3-88.5-34.9-141.3c10.9-40.6,26.7-67.6,57.9-95.8c33.4-24.9,64.9-37.3,107-38.5
			L495.8,167.7L495.8,167.7z"/>
		<path class="st3" d="M479.3,176.5c87.5,0,158.8,71.4,158.8,158.8c0,87.5-71.4,158.8-158.8,158.8c-87.5,0-158.8-71.4-158.8-158.8
			C320.4,247.8,391.8,176.5,479.3,176.5L479.3,176.5z"/>
		<path class="st4" d="M479.3,217.1c65.1,0,118.2,53.1,118.2,118.2s-53.1,118.2-118.2,118.2c-65.1,0-118.2-53.1-118.2-118.2
			S414.2,217.1,479.3,217.1L479.3,217.1z"/>
		<path class="st5" d="M479.4,225.1c60,0,108.9,48.9,108.9,108.9s-48.9,108.9-108.9,108.9c-60,0-108.9-48.9-108.9-108.9
			S419.4,225.1,479.4,225.1L479.4,225.1z"/>
		<polygon class="st4" points="417.6,237.1 576.1,395.7 539.8,432 381.3,273.4 417.6,237.1 		"/>
		<polygon class="st3" points="393.4,227 586.2,419.7 564.2,441.7 371.5,249 393.4,227 		"/>
		<g>
			<path class="st6" d="M369.4,576.8c-7.5-1.3-15.7-1-22.8-1v28.2c7.5-0.1,14.7,0.4,21.7-1c6.9-2.5,9.6-7.4,9.7-14.1
				C378.1,582.2,374.5,579.2,369.4,576.8z"/>
			<path class="st6" d="M410.7,543.6h-96.4c-9.7,0-17.6,7.9-17.6,17.6v96.4c0,9.7,7.9,17.6,17.6,17.6h96.4c9.7,0,17.6-7.9,17.6-17.6
				v-96.4C428.3,551.5,420.4,543.6,410.7,543.6z M402.1,593.5c-1,9.5-6.7,17.4-14.9,22.6c-11.5,6.9-26.9,5.5-40.7,5.7V661h-22.5V558
				l22.5-0.1c17.9-0.1,32.4,0.2,45,9C398.8,573.4,403.5,583.3,402.1,593.5z"/>
		</g>
		<path class="st6" d="M645,543.5h-96.4c-9.7,0-17.6,7.9-17.6,17.6v96.4c0,9.7,7.9,17.6,17.6,17.6H645c9.7,0,17.6-7.9,17.6-17.6
			v-96.4C662.6,551.4,654.7,543.5,645,543.5z M574.1,659.9c-18.7-8.4-27.1-30.5-18.7-49.2c3.7-8.3,10.2-14.6,17.9-18.3l0.4,10.4
			c-4.2,2.8-7.7,6.8-9.9,11.7c-6.3,14.1,0,30.7,14.1,37c14.1,6.3,30.7,0,37.1-14.1c0.2-0.3,0.3-0.7,0.4-1l5.6,9.3
			C611.2,661.2,591.2,667.6,574.1,659.9z M628.6,650.8h-0.4l-19-33.2h-31l-1.3-44.1c-0.1-0.1-0.3-0.3-0.4-0.4
			c-0.9-0.9-1.7-2-2.1-3.2c-0.6-1.4-1-3-1-4.6c0-6.3,5.1-11.4,11.4-11.4s11.4,5.1,11.4,11.4c0,6-4.7,10.9-10.6,11.3l1.5,15.6h20.7
			l0,8.3l-19.5,0l1,8.5l25.9,0.1L632,639l7.9-4.8l3.9,7.1L628.6,650.8z"/>
		<line class="st7" x1="293.9" y1="727.5" x2="662.4" y2="727.5"/>
		<line class="st7" x1="293.9" y1="773.6" x2="662.4" y2="773.6"/>
	</g>
</g>
</svg>
