<?xml version="1.0" encoding="utf-8"?>
<!-- Generator: Adobe Illustrator 19.2.0, SVG Export Plug-In . SVG Version: 6.00 Build 0)  -->
<svg version="1.1" id="Livello_1" xmlns="http://www.w3.org/2000/svg" xmlns:xlink="http://www.w3.org/1999/xlink" x="0px" y="0px"
	 viewBox="0 0 960 960" style="enable-background:new 0 0 960 960;" xml:space="preserve">
<style type="text/css">
	.st0{fill-rule:evenodd;clip-rule:evenodd;fill:#FFFFFF;stroke:#1A171B;stroke-width:1.8027;stroke-miterlimit:2.6131;}
	.st1{fill-rule:evenodd;clip-rule:evenodd;fill:#005DA2;}
	.st2{fill-rule:evenodd;clip-rule:evenodd;fill:#FFFFFF;stroke:#FFFFFF;stroke-width:1.3529;stroke-miterlimit:2.6131;}
</style>
<g>
	<g>
		<path class="st0" d="M480,180c165.2,0,300,134.8,300,300c0,165.2-134.8,300-300,300S180,645.2,180,480
			C180,314.8,314.8,180,480,180L480,180z"/>
		<path class="st1" d="M480.9,196.3c155.9,0,283.1,127.2,283.1,283.1c0,155.9-127.2,283.1-283.1,283.1S197.7,635.3,197.7,479.4
			C197.7,323.4,324.9,196.3,480.9,196.3L480.9,196.3z"/>
		<path class="st2" d="M238.8,478.3l217.9-127.4c7.8-0.3,14.3,0,14.3,12.6l-17.4,74.9l267.3,0.5l-0.2,76.8l-264.1-0.2l14.4,77.4
			c0,13-7.1,13-14.2,13L238.8,478.3L238.8,478.3z"/>
	</g>
</g>
</svg>
