<?xml version="1.0" encoding="utf-8"?>
<!-- Generator: Adobe Illustrator 19.2.0, SVG Export Plug-In . SVG Version: 6.00 Build 0)  -->
<svg version="1.1" id="Livello_1" xmlns="http://www.w3.org/2000/svg" xmlns:xlink="http://www.w3.org/1999/xlink" x="0px" y="0px"
	 viewBox="0 0 960 960" style="enable-background:new 0 0 960 960;" xml:space="preserve">
<style type="text/css">
	.st0{fill-rule:evenodd;clip-rule:evenodd;fill:#FFFFFF;stroke:#1A171B;stroke-width:1.8027;stroke-miterlimit:2.6131;}
	.st1{fill-rule:evenodd;clip-rule:evenodd;fill:#005EA7;}
	.st2{fill-rule:evenodd;clip-rule:evenodd;fill:#FFFFFF;}
</style>
<g>
	<g>
		<path class="st0" d="M480,180c165.2,0,300,134.8,300,300c0,165.2-134.8,300-300,300S180,645.2,180,480
			C180,314.8,314.8,180,480,180L480,180z"/>
		<path class="st1" d="M480.9,196.3c155.9,0,283.1,127.2,283.1,283.1c0,155.9-127.2,283.1-283.1,283.1S197.7,635.3,197.7,479.4
			C197.7,323.4,324.9,196.3,480.9,196.3L480.9,196.3z"/>
		<path class="st2" d="M215.3,424l141.8,145.3c6.6,1.3,12.5-2.6,14.4-9.8l3.3-59.5c47.6-0.7,71.6,15.7,75.8,49.1c0,2,0,3.9,0,5.9
			v132.8h60.1V554.9c0-1.3,0-2.6,0-3.6c3.6-34.7,27.6-51.7,76.2-51.4l3.3,59.9c1.6,6.9,7.6,10.8,14.4,9.5l141.5-144.9l-195-54.6
			c-6.6,2.3-10.2,8.2-8.2,14.7l26.6,53.7c-35.1,3.9-66.6,17.3-88.6,39.6c-21.7-22.6-53.5-36.3-89-39.9l26.9-53.7
			c2-6.5-2-12.4-8.5-14.4L215.3,424L215.3,424z"/>
	</g>
</g>
</svg>
