<?xml version="1.0" encoding="utf-8"?>
<!-- Generator: Adobe Illustrator 19.2.0, SVG Export Plug-In . SVG Version: 6.00 Build 0)  -->
<svg version="1.1" id="Livello_1" xmlns="http://www.w3.org/2000/svg" xmlns:xlink="http://www.w3.org/1999/xlink" x="0px" y="0px"
	 viewBox="0 0 960 960" style="enable-background:new 0 0 960 960;" xml:space="preserve">
<style type="text/css">
	.st0{fill-rule:evenodd;clip-rule:evenodd;fill:#FFFFFF;stroke:#1A171B;stroke-width:1.8027;stroke-miterlimit:2.6131;}
	.st1{fill-rule:evenodd;clip-rule:evenodd;fill:#005DA2;}
	.st2{fill-rule:evenodd;clip-rule:evenodd;fill:#FFFFFF;stroke:#FFFFFF;stroke-width:1.3529;stroke-miterlimit:2.6131;}
</style>
<g>
	<g>
		<path class="st0" d="M480,180c165.2,0,300,134.8,300,300c0,165.2-134.8,300-300,300S180,645.2,180,480
			C180,314.8,314.8,180,480,180L480,180z"/>
		<path class="st1" d="M480.9,196.2c155.9,0,283.1,127.2,283.1,283.1c0,155.9-127.2,283.1-283.1,283.1S197.7,635.3,197.7,479.4
			C197.7,323.4,324.9,196.2,480.9,196.2L480.9,196.2z"/>
		<path class="st2" d="M531.3,231.5L433,399.8c-0.3,6.5,4,10.3,9.6,10.9l59.1-11.1L501.5,541c-32.9-28.3-70.8-27.8-98.8-28.8
			L413,452c0.3-6.5-3.4-9-10.6-9l-164.9,98.3l164.9,98.5c7.2,0.3,10.9-1.8,10.6-9.3l-8.9-60.3c69,1.1,96.9,42.1,97.5,69.5l0.2,75.5
			l59.1,0.1l-0.1-315.5l59,11c8.4,1.6,10.6-6.5,10-10.9L531.3,231.5L531.3,231.5z"/>
	</g>
</g>
</svg>
