<?xml version="1.0" encoding="utf-8"?>
<!-- Generator: Adobe Illustrator 19.2.0, SVG Export Plug-In . SVG Version: 6.00 Build 0)  -->
<svg version="1.1" id="Livello_1" xmlns="http://www.w3.org/2000/svg" xmlns:xlink="http://www.w3.org/1999/xlink" x="0px" y="0px"
	 viewBox="0 0 960 960" style="enable-background:new 0 0 960 960;" xml:space="preserve">
<style type="text/css">
	.st0{fill-rule:evenodd;clip-rule:evenodd;fill:#FFFFFF;stroke:#1A171B;stroke-width:1.8027;stroke-miterlimit:2.6131;}
	.st1{fill-rule:evenodd;clip-rule:evenodd;fill:#005EA7;}
	.st2{fill-rule:evenodd;clip-rule:evenodd;fill:#FFFFFF;}
</style>
<g>
	<g>
		<path class="st0" d="M480,180c165.2,0,300,134.8,300,300c0,165.2-134.8,300-300,300S180,645.2,180,480
			C180,314.8,314.8,180,480,180L480,180z"/>
		<path class="st1" d="M480.9,196.3c155.9,0,283.1,127.2,283.1,283.1c0,155.9-127.2,283.1-283.1,283.1
			c-155.9,0-283.1-127.2-283.1-283.1C197.7,323.4,324.9,196.3,480.9,196.3L480.9,196.3z"/>
		<path class="st2" d="M588,573.6c9.3,0,17.2-6.6,21.9-19.5c3.1-13.2,6.2-37,6.2-69.7c0-33.6-3.1-59.7-6.2-75
			c-5.7-14.9-13.4-23.1-22.6-23.1c-9.8,0-18,7.8-21.6,21.9c-3.9,14.9-6.9,39.7-6.9,73.3c0,34.1,3.1,59.4,6.2,72.1
			c4.4,13.4,11.8,20,22.4,20H588L588,573.6z M588.5,628.7c-27.5,0-49.4-13.2-61.8-37.3c-11.8-24.4-19.8-62.1-19.8-111.5
			c0-48,6.7-85.2,19.8-109.8c13.1-25.1,33.7-38.5,59.5-38.5c26.8,0,47.9,12.4,60.5,37.8c13.6,24.8,20.3,61.6,20.3,110.6
			c0,49.4-7.5,87.2-19.8,111.5c-12.4,24.6-30.6,37.3-57.9,37.3H588.5L588.5,628.7z"/>
		<path class="st2" d="M304.5,553.9l43.5-9.7c0,58.7,61.8,47,61.8,12.9c0-12.9,0-12.9,0-29.4c-10.8-26.1-29.1-26.1-58.2-26.1v-45.5
			c30.5,0,45.2,4.5,57.6-22.4c0.6-16.9,0.6-16.9,0-35.3c-3-33.8-64.9-33.8-61.2,18.4l-43.5-9.7c0-101.3,163.5-98.1,149.1,9.7
			c0,29.4-7.8,46-32.7,62c25.2,20.4,29.9,33.1,32.7,65.4C464.2,661.7,304.5,653.2,304.5,553.9L304.5,553.9z"/>
	</g>
</g>
</svg>
