<?xml version="1.0" encoding="utf-8"?>
<!-- Generator: Adobe Illustrator 19.2.0, SVG Export Plug-In . SVG Version: 6.00 Build 0)  -->
<svg version="1.1" id="Livello_1" xmlns="http://www.w3.org/2000/svg" xmlns:xlink="http://www.w3.org/1999/xlink" x="0px" y="0px"
	 viewBox="0 0 960 960" style="enable-background:new 0 0 960 960;" xml:space="preserve">
<style type="text/css">
	.st0{fill-rule:evenodd;clip-rule:evenodd;fill:#FFFFFF;stroke:#1A171B;stroke-width:1.8027;stroke-miterlimit:2.6131;}
	.st1{fill-rule:evenodd;clip-rule:evenodd;fill:#005EA7;}
	.st2{fill-rule:evenodd;clip-rule:evenodd;fill:#FFFFFF;}
	.st3{fill-rule:evenodd;clip-rule:evenodd;fill:#E1001A;}
</style>
<g>
	<g>
		<path class="st0" d="M480,180c165.2,0,300,134.8,300,300c0,165.2-134.8,300-300,300S180,645.2,180,480
			C180,314.8,314.8,180,480,180L480,180z"/>
		<path class="st1" d="M480.9,196.2c155.9,0,283.1,127.2,283.1,283.1c0,155.9-127.2,283.1-283.1,283.1
			c-155.9,0-283.1-127.2-283.1-283.1C197.7,323.4,324.9,196.2,480.9,196.2L480.9,196.2z"/>
		<path class="st2" d="M588.6,573.9c9.3,0,17.3-6.6,21.9-19.5c3.1-13.2,6.2-37.1,6.2-69.7c0-33.6-3.1-59.7-6.2-75.1
			c-5.7-14.9-13.4-23.2-22.7-23.2c-9.8,0-18,7.8-21.6,21.9c-3.9,14.9-7,39.7-7,73.4c0,34.1,3.1,59.5,6.2,72.2
			c4.4,13.4,11.8,20,22.4,20H588.6L588.6,573.9z M589.1,629c-27.6,0-49.5-13.2-61.8-37.3c-11.9-24.4-19.8-62.2-19.8-111.6
			c0-48,6.7-85.3,19.8-109.9c13.1-25.1,33.7-38.5,59.5-38.5c26.8,0,47.9,12.4,60.5,37.8c13.7,24.9,20.4,61.7,20.4,110.7
			c0,49.5-7.5,87.3-19.8,111.6c-12.4,24.6-30.7,37.3-58,37.3H589.1L589.1,629z"/>
		<path class="st2" d="M304.9,554.2l43.6-9.7c0,58.8,61.9,47.1,61.9,13c0-13,0-13,0-29.4c-10.8-26.2-29.1-26.2-58.3-26.2v-45.6
			c30.5,0,45.2,4.5,57.7-22.4c0.6-16.9,0.6-16.9,0-35.4c-3.1-33.9-64.9-33.9-61.3,18.4l-43.6-9.7c0-101.4,163.7-98.1,149.2,9.7
			c0,29.4-7.8,46.1-32.7,62c25.2,20.4,30,33.1,32.7,65.5C464.6,662.1,304.9,653.6,304.9,554.2L304.9,554.2z"/>
		<path class="st3" d="M650.6,253c10.8,8.3,20.6,16.6,29.9,25.9c9.8,9.8,19.1,20.3,27,31L311.4,705.9c-10.8-7.8-22-17.9-31.8-27.7
			c-9.3-9.3-17.2-18.7-25.1-29l396-396L650.6,253z"/>
	</g>
</g>
</svg>
