<?xml version="1.0" encoding="utf-8"?>
<!-- Generator: Adobe Illustrator 19.2.0, SVG Export Plug-In . SVG Version: 6.00 Build 0)  -->
<svg version="1.1" id="Livello_1" xmlns="http://www.w3.org/2000/svg" xmlns:xlink="http://www.w3.org/1999/xlink" x="0px" y="0px"
	 viewBox="0 0 960 960" style="enable-background:new 0 0 960 960;" xml:space="preserve">
<style type="text/css">
	.st0{fill-rule:evenodd;clip-rule:evenodd;fill:#FFFFFF;stroke:#1A171B;stroke-width:1.8027;stroke-miterlimit:2.6131;}
	.st1{fill-rule:evenodd;clip-rule:evenodd;fill:#005EA7;}
	.st2{fill-rule:evenodd;clip-rule:evenodd;fill:#FFFFFF;}
	.st3{fill-rule:evenodd;clip-rule:evenodd;fill:#1A171B;}
</style>
<path class="st0" d="M480,180c165.2,0,300,134.8,300,300c0,165.2-134.8,300-300,300S180,645.2,180,480C180,314.8,314.8,180,480,180
	L480,180z"/>
<path class="st1" d="M480,194.3c157.4,0,285.7,128.3,285.7,285.7c0,157.4-128.4,285.7-285.7,285.7S194.3,637.4,194.3,480
	C194.3,322.6,322.6,194.3,480,194.3L480,194.3z"/>
<path class="st2" d="M511,708.5c-32.6-3.4-66.5,5.6-97.4-7.7c-13.8-7.7-26.3-18.9-33.9-31.5c-1-0.9-1-1.9-2.3-2.8
	c-5.9-9.9-12.8-20.1-17.1-32.4c-19.4-47-23.7-96.1-25-144.6c0-55.9,3.3-112.2,21.1-166.3c0.3-2.2,2.3-4,2.3-6.5
	c8.2-18.5,16.8-36.5,32.9-50.7c4.6-2.5,8.2-6.5,14.2-8.7l1-0.9c23.7-9.3,46.7-6.5,73.4-6.8c26.7-0.3,64.9,2.8,82,24.1
	c4.3,4,7.6,7.7,11.5,12.1c2.3,3.7,4.6,6.5,6.9,10.2c1.3,0.9,1.3,2.8,2.6,4c35.2,60.9,42.5,137.2,40.2,206.4
	c-1.6,43.9-4.9,85.9-18.1,128.6c-10.2,28.1-23.4,53.8-51.7,68c-12.8,5.6-27.3,5.3-41.1,5.3L511,708.5L511,708.5z"/>
<path class="st3" d="M507.2,690.1c-28.3-3.1-57.8,5.1-84.6-7.2c-12-7.1-22.9-17.4-29.5-29.2c-0.9-0.9-0.9-1.7-2-2.6
	c-5.1-9.1-11.2-18.6-14.9-30c-16.9-43.5-20.6-88.9-21.7-133.8c0-51.8,2.9-103.8,18.3-153.8c0.3-2,2-3.7,2-6
	c7.2-17.2,14.6-33.7,28.6-46.9c4-2.3,7.1-6,12.3-8l0.9-0.9c20.6-8.6,42.6-4.6,65.5-5.1c22.9-0.6,54.6,1.4,69.5,21.2
	c3.7,3.7,6.6,7.1,10,11.2c2,3.4,4,6,6,9.4c1.1,0.9,1.1,2.6,2.3,3.7c30.6,56.3,36.9,127,34.9,191c-1.4,40.6-4.3,79.5-15.7,119
	c-8.9,26-20.3,49.8-44.9,62.9c-11.2,5.1-23.7,4.9-35.7,4.9L507.2,690.1L507.2,690.1z M449.7,448.1h-1.4c-0.9-1.4-1.1-2.3-2-4
	c0-1.1-1.1-1.4-2-2.6c-7.1-3.4-15.2-0.9-22.6-1.7c-1.7,0-2.9,0.9-4,2c-1.1,1.7-2.3,3.1-3.1,6c-2.9,0.3-4.9,0-8,0.3l-1.1-1.1
	c0-0.9-0.6-1.7-0.9-2.9c-1.1-1.1-2.3-3.4-4.9-4.3h-16.3l-1.4-0.9c0.3-13.7,1.1-27.7,3.4-42l0.6-0.3h18.9c1.7-0.6,3.4-0.9,4.6-2
	c0.3-0.9,1.4-2.6,2.3-3.7l0.3-1.4c2.6-0.6,4.9-0.6,7.7-0.6l1.4,0.9c0,1.1,0.9,1.1,1.4,2.3l1.4,2c6.3,4,16.3,1.7,24.6,2
	c1.1-1.1,2.6-1.1,3.7-2.6c0.9-0.9,1.1-2.9,2.3-4.6c2.9-0.3,5.1,0,8.3,0l1.1,2c0.6,1.1,1.7,2.6,2.9,3.7c0.6,0.3,1.7,1.1,3.4,1.4
	l16.3,0.6l0.3,0.3c-1.1,13.4-2.9,27.7-3.1,41.2l-0.9,1.7h-13.2c-2.9,0-5.7,0-8,0.9c-0.9,0.3-1.1,1.1-2.3,2.3c-0.9,1.7-2,3.1-2.9,5.1
	c-1.7,0-4,0-6,0H449.7L449.7,448.1z M408.5,510.8l-1.7-0.9c-0.3-2-1.4-3.7-2.3-5.1c-6.3-4-15.2-1.7-22.6-2.6
	c-2-12.6,0-25.4-0.9-38.6l0.9-1.4l18.3-0.9c1.1-0.3,2.9-2,4.3-3.7c0.3-0.3,0.3-1.4,0.9-2.3l0.9-0.9c2.3-0.3,4.6,0,7.4-0.3l1.7,2.3
	c0.3,1.1,1.4,2.6,2.6,3.7c0.9,0.3,1.7,1.1,3.7,1.4l21.4-0.3c1.1-1.1,2.3-2.3,3.1-3.7c0.9-0.3,1.1-1.7,1.4-3.4c2.9,0,6.9-0.9,9.7,0.9
	c0,1.1,0.9,1.1,1.1,2.3l1.1,2c0.9,1.1,2.3,1.1,3.7,2c6,1.1,12.6,0,19.4,0.9l0.3,0.3l1.4,38.6l-1.4,0.9c-7.1,0.3-14.6-0.9-21.2,1.7
	c-1.7,1.4-2.3,4.3-4.3,6.6c-2.3,0-5.1,0.9-8.3-0.3c-0.3-2-1.7-3.7-2.9-5.1l-0.9-0.9c-6.6-3.1-14.6-0.9-22-1.7l-2.6,0.9
	c-1.1,0.6-2.3,1.1-3.4,2.9c-0.3,1.1-0.9,2.9-1.7,4.3c-2.3,0.9-4.3,0-6.6,0.6H408.5L408.5,510.8z M458.6,575.4l-0.9-0.3
	c0-0.9-0.3-1.7-0.3-2.6c-0.9-1.1-2-3.1-3.7-4.3c-7.1-2.9-15.4-1.7-22.9-1.7c-2.9,1.7-4.9,4.6-6,8l-0.9,0.6c-2.3,0-4.3,0-6.6,0
	l-1.7-1.4c0-0.6-0.3-1.1-0.9-2.3c-0.9-2-2.9-4-5.1-4.9h-21.4c-3.1-13.7-4.9-27.7-5.1-42c6-0.9,12.3,0.6,18.6-1.1
	c1.4-0.3,2.6-1.1,3.7-2.9c0.9-0.6,1.1-2.6,2-4.3c2.9,0,5.1,0,8,0l1.1,1.1l0.9,2c0.3,1.1,1.7,2.6,3.4,4c6.9,1.7,14,0,20.6,1.1
	c2.9,0,4.3-3.1,6.9-4.3c0-1.1,0.3-2.9,1.1-3.7c2.3-0.3,5.1,0,7.4-0.3l1.7,1.1c0.9,2,2.3,4,5.1,6c6.9,2,14.9,0,22.9,1.1
	c0.6,14,3.4,27.4,5.7,41.7c-3.1,0.9-5.7,0-9.4,0.3c-4,0-6.3,0-9.2,0l-1.4,0.9c-1.7,0.9-4,3.1-4.9,5.7l-0.3,1.4
	c-2.6,0.9-4.6,0.9-7.4,0.9H458.6L458.6,575.4z M436.8,625.2c-0.9-0.6-1.7,0-2.9-0.6c-0.9-0.9-0.9-2.3-2-4c-0.6-0.6-0.9-1.1-2-2.3
	c-7.2-2.9-16-1.1-23.7-1.1c-1.4,0-1.7,1.4-3.7,1.1c-3.1-8.9-8-19.4-9.2-29.5h16.3l2.9-1.4c1.1-1.7,2-2.9,3.1-5.1l0.9-0.6
	c2.3-0.9,4.6,0,7.4-0.3c2.3,2,3.1,5.4,7.1,6.6c6.3,0.9,13.4,0.9,20.3,0.6c2-0.9,3.1-2.3,5.1-4c0-1.1,0.9-2.3,1.7-3.7
	c2.6-0.3,6.3-0.3,9.2,0.9c0.3,2,1.1,3.1,3.1,5.1c0.9,0.6,1.7,0.9,3.1,1.7h20c1.4,0,1.4-1.7,3.4-1.7c0,0.9,0,2,0.9,2.6
	c0,1.4,1.1,3.4,1.4,5.7l7.1,20.9l-0.3,0.3l-15.4,0.3c-2,0.9-2.9,1.7-4.3,2.9c-0.6,1.7-1.4,2.9-1.7,4.3c-2.3,1.7-6,0.6-8.9,0.9
	l-1.4-0.9c0.3-1.1-0.9-1.7-0.9-3.1l-1.4-2c-6.6-3.4-15.4-1.1-22.9-2l-2.9,1.4l-0.9,0.6l-0.6,0.9c-0.9,1.1-1.7,3.1-2.6,5.1
	c-1.4,0.6-3.1,0-5.1,0L436.8,625.2L436.8,625.2z M467.7,661.2l-0.6-0.3c0-0.9-0.3-1.7-0.6-2.6c-0.9-2-2.9-3.1-4.9-4.3l-16.3-0.3
	l-1.4,0.6c-1.4,0.6-2.6,1.4-3.7,2.9c-0.3,0-0.3,1.1-1.1,2.3l-1.7,0.6c-8.3-4-18.6-12.3-23.4-21.4c4.9-0.9,10,0.3,14.9-1.1
	c1.1-1.4,2.3-1.7,3.1-3.1c0.3-1.4,1.1-1.7,1.4-3.7c2.6-0.3,4.9,0,7.7-0.3l2,0.6c0,1.4,0.9,1.4,1.1,2.9c0.9,1.7,3.1,2.9,4.9,4h19.4
	c1.1,0,2.3-1.7,4-2.3c1.7-1.1,1.7-3.7,3.1-4.9c2.3-0.3,5.4-0.3,8.3,0c0.9,0,0.9,1.1,1.7,2.3c0.3,1.4,1.1,2.6,2.9,3.7
	c7.1,2.3,15.7,2,23.7,0.9c1.1-0.6,2.9-2.6,4.3-3.1c4,5.7,9.1,11.7,14.3,16.9l-0.3,0.9l-0.9,1.1c-5.1,0.9-11.2,0-16.3,0.6l-2.9,1.1
	c-2,1.4-2.3,4-4,6c-1.4,0-4,0.3-5.7,0.3c-0.6-0.3-0.9-1.7-0.9-2.9c-0.9-1.1-2-2.3-4-4c-5.1-1.4-11.1,0-17.2-0.6
	c-2,0.3-3.1,1.1-5.1,3.1c0,0.6-1.1,1.1-1.1,2.3v1.1l-0.9,0.6C470.6,661.5,469.4,660.9,467.7,661.2L467.7,661.2z M417.4,382.9
	c-1.7-0.3-2.9,0-4.6-0.3c-2.3-3.7-3.4-6.9-8.3-8l-14.6-0.3l-0.9-0.9c1.4-8.3,3.4-17.4,6.6-26.6l0.9-0.9c6.9,2,14,0.6,20.9,0.9
	c1.4,0,2.3-0.9,4.3-1.7c0.9-0.6,1.1-1.1,2.3-2.3c0.9-0.9,0.9-2,1.7-3.4c2.3,0,4.6,0,7.4,0l1.7,0.6l0.3,1.7c0.3,1.1,2,2.3,3.1,3.4
	c0.9,0.9,2,1.4,3.7,1.7h17.7c2,0,3.7-1.7,5.1-2.9l0.9-0.9c0.9-0.3,1.1-1.7,1.4-3.4l0.3-0.3c3.1,0,5.4-0.6,8.6,0
	c0.9,0.3,0.9,1.4,1.7,2.3c0,1.1,1.7,1.4,2,2.9l0.9,0.6c5.2,2.9,11.4,0.9,16.9,1.7c0.9,0.3,1.7,0,2.9,0.3c-3.1,8.9-6,18.3-8.6,27.4
	c-7.1-0.3-14,0-21.4,0l-1.7,0.6c-1.1,0.3-1.7,1.4-2.9,2.3c-1.1,1.1-1.7,2.9-2,4.3l-0.9,0.9c-2.3,0.3-4.6,0-7.4,0l-1.1-0.9
	c0-1.4-0.9-2-1.7-3.4c-0.9-1.1-1.1-0.9-2.3-2.6c-0.6-0.3-1.7-0.3-2.9-1.1l-21.4,0.9c-0.9,0-1.1,1.7-2.3,2l-0.9,0.9
	c-1.1,0.6-1.1,2.6-2,4.3l-1.1,0.3C418.8,382.9,418,382.9,417.4,382.9L417.4,382.9z M426.8,333.5l-0.9-0.6l-0.9-0.3
	c0-0.9-0.3-1.7-0.9-2.9c-0.3-1.1-1.4-2.3-2.6-3.1c-4.9-2.3-10.3-1.1-15.4-1.4c0.3-1.4,0.3-2,1.1-3.7c6-7.2,12.3-17.2,22.6-18.6
	c0,0.9,0.9,1.1,1.1,2.3c0.3,1.1,1.1,2.3,2.9,3.7c6.3,2,12.3,0.3,18.6,1.1l2-0.9l1.7-1.1l0.6-0.9c0.9-0.3,0.6-2.3,1.7-3.1l1.7-0.9
	c0.6,0,1.4,0,2.3,0l1.4,0.9l0.9,2l1.1,1.4l0.9,0.9c0.3,0.9,1.4,0.9,2.6,1.1h17.7c1.4-0.3,3.1-2,4-3.4v-0.9l1.1-1.4
	c1.7-0.6,3.4,0,5.1-0.6l1.7,0.9c0.3,2,1.7,3.1,3.4,5.1c6,1.1,12,0.3,18,0.9l0.3,1.4c-0.6,2-2.6,3.7-4.3,6c-1.1,2-3.1,3.7-4,6
	c-1.1,2-2.6,4-4,6c-0.6,0-1.1-1.1-2-2c-0.6-0.9-2.3-1.1-3.4-2c-7.1,0-15.2-1.7-23.2,1.1l-1.4,1.7c-0.6,1.1-1.1,2.3-2,4.3
	c-2.3,1.1-6,0.3-9.2,0.3c-0.6-2.3-1.4-4-3.4-5.7c-0.6-0.6-1.4-1.4-3.4-1.7l-21.4,0.3c-0.9,0.9-1.1,0.9-2.3,2c-0.9,0.9-1.4,2.6-2,3.7
	l-0.9,1.4C432,333.5,429.1,332.9,426.8,333.5L426.8,333.5z M542.9,617.4c0.9-6-3.1-11.4-4.6-17.7l-0.6-1.7l-0.9-0.9l-0.9-1.1
	c-1.4-1.1-3.4-1.4-6-2l-0.3-0.3c-0.3-0.9-0.3-1.7,0-2.9c0.9-0.3,1.1-0.9,2.3-2c0.6-0.9,1.1-1.1,1.7-2.3c0-5.7-2.3-11.4-3.1-17.2
	l-0.9-2c0-0.9-1.1-1.1-2-2.3c-1.1-0.9-3.4-1.1-5.1-1.7l-0.9-0.6c0-1.7-0.3-2.6-0.3-4.6c1.1-0.3,2.3-2,4-3.4c2-6.3-1.1-12.3-1.1-19.2
	c-1.7-0.9-1.4-3.1-2.9-4c-1.1-0.3-2.9-0.9-3.7-1.4c-0.3-0.9-0.3-1.7,0-2.6c1.1-0.6,2.6-1.4,3.7-2.3c3.1-6,0.3-13.1,1.1-19.7
	c-0.9-1.7-0.9-2.9-2.9-4.6c-0.9-0.6-2.3-1.1-4.3-2c0-0.6,0-1.1,0-2.3l1.1-1.1l2-1.7c3.1-6,1.1-13.7,2-20.3c-0.3-1.7-1.1-2-2-3.4
	c-1.1-0.6-2.3-1.4-3.4-2c-0.6-0.9-0.6-2.6-0.6-3.7l1.7-0.9l1.4-1.1c4-5.4,2.9-14.3,2.9-21.4l-0.3-1.4c-0.9-1.7-3.4-3.4-4.9-4.6
	c-0.3-0.6,0-1.1-0.3-2.3c1.4-2,4.3-2.9,5.4-5.4c0.3-6.9,2-14,0-20.9c-1.1-1.4-3.1-2-4-3.4c0-0.9,0-2.6,0.3-3.7
	c0.6-0.3,2-0.6,3.7-1.1c0.9-0.9,1.1-2,2.3-2.3c0.9-0.9,1.4-1.7,1.7-3.7c0.9-4.6,2.3-9.4,3.1-14.6c0-1.7-0.9-2-1.7-4
	c-0.6-1.1-2.3-2-3.4-2.9v-0.6c0-0.9,0-2,0.9-2.6c1.1-0.3,2.3-0.3,4.3-1.1l0.9-0.9l0.9-0.9c0.6-0.6,0.6-3.1,2-4.3
	c0.6-6,4.6-10.6,3.4-15.7c1.1-0.9,2,0.3,3.1,0l2,0.3c3.7,2.9,6.3,6.3,9.1,10.3c29.7,77.8,30.6,167.3,8.3,247.9c-1.1,1.7-2.3,4-3.4,6
	c-2.6,3.1-3.7,4.3-5.7,6.3c-0.9,0.6-2.3,0.9-3.1,2H542.9L542.9,617.4z M462.6,677.5c-9.2-0.9-18.6,0.3-27.5-2.9l-10.3-5.1
	c-1.1,0-1.1-0.9-2.9-1.1c-12.6-10.3-20.6-23.2-27.7-36.6v-1.1c2-0.3,3.1,0,5.1,0l1.7,0.9l0.3,1.4c8,7.1,13.2,17.7,23.4,25.5
	c4,3.1,9.2,6,14.3,8c0,1.1,1.1,1.1,1.1,2.9l2,1.4c0.9,0.9,1.7,1.1,3.1,2l16.3-0.3l2-0.9c1.7-2,2.9-2.9,3.4-5.1
	c1.4-0.9,2.3,0,4.3-0.3l1.1,1.1l0.3,0.9c0.9,0.6,0.9,1.4,2,2.6c5.7,3.1,13.2,1.1,20,1.7l0.9-0.6c1.7-0.6,3.4-2.6,4.6-5.4
	c1.1-0.9,4,0,6-0.3c1.7,1.1,2,3.1,3.7,4.6c0.6,0.6,1.4,0.9,3.4,1.7l15.4,0.3c2-0.3,3.1-1.1,4.9-3.1c0.3-0.9,1.1-1.1,1.4-2.9
	c0.6-3.1,0.9-5.7-0.6-9.4c-0.6-1.1,1.1-1.4,1.4-3.1c0.6-0.9,0.9-1.7,2-2.9c1.7,0,2.9,0,5.1,0l1.7-1.1l1.4-1.1
	c2.9-5.7,5.1-12.9,6.3-19.2c-0.3-2-1.4-3.1-2.6-5.1l0.3-0.3c0-0.9,1.1-0.9,2.3-1.1C585,570.5,581,501,577.8,442.7
	c-3.7-32.6-8.3-68.9-24.6-97.8c-1.1-2.3-3.1-4.9-5.7-7.1c-2.3-0.9-2.3-2-3.7-2l-0.6-1.1c2.6-5.1-1.4-11.4-3.1-17.2v-0.9
	c-0.9-0.6-1.1-2-2-3.4l-0.9-0.9c-2-1.4-5.4-2-8.3-1.4c0-1.4-1.1-2-2.3-3.4c0-3.4,1.1-6.6,0.3-10.3c-0.3-2.3-1.1-3.4-3.1-5.1
	c-6.3-2-12.3-0.3-18.6-1.1c-0.9,0.6-2.9,0.9-3.7,1.7l-1.1,1.4c-0.3,1.1-0.9,2.9-1.4,3.7l-1.7,0.3c-1.4,0-3.1,0-5.1,0
	c0-1.1-0.3-1.4-0.9-2.9c-0.3-0.6-0.9-1.4-2-2.3c-0.6-0.9-1.4-1.1-3.1-2l-16.6,0.6l-1.7,0.3c-0.6,0.9-0.9,1.1-2,2
	c-0.3,1.1-1.1,2-1.7,3.4l-0.3,0.9c-1.7,0.6-2.9,0-4.3,0c-1.1-1.4-1.7-3.4-2.9-5.1c-5.4-3.4-13.4-1.1-19.7-2l-2.9,0.9
	c-0.9,0.3-2,2-2.9,3.1c-0.3,1.1-1.4,1.1-3.1,2c-10,2.9-17.2,11.2-24.3,19.4c0,1.1-0.6,1.1-1.1,2.9l-0.9,0.9
	c-1.1,1.4-1.4,3.4-3.1,5.1c-0.9,0.3-2,1.1-3.1,1.4l-1.1,0.9c-1.1,1.1-1.1,4-2.3,5.1c-1.7,0.3-2.9,0.3-4.6,0.3l-0.3-0.3
	c4-12,8.3-22.3,15.4-30.9c4.9-8.9,14-15.4,22.6-20c6.9-2.3,13.7-2.3,20.6-2.3c34.3,3.1,76.9-10.9,100.1,20.3
	c38,48,46.3,122.1,47.5,185c-1.1,43.8-3.1,86.9-15.4,129.3c-4,13.7-8.9,26.6-16.3,37.7c-4.3,7.7-12.3,16.6-20.6,20.9l-0.9,0.9
	c-25.5,7.1-51.2,2-76.6,3.7L462.6,677.5L462.6,677.5z M532.6,334.3l-0.9-0.6l-0.9-0.9l-4.3-12.6l0.3-0.9l1.7,1.7
	c0.3,0.3,1.1,0.3,2.3,1.1l2-0.9l0.9-2c0-1.1-1.1-2-0.9-3.1h0.9c2.3,4,3.1,9.2,5.1,14.3v1.1l-0.9,0.6
	C536.9,332.9,534.9,334.3,532.6,334.3L532.6,334.3z M516.6,343.2c-2-1.1-4-2.3-6-4.3c2.9-6,6-11.7,10.3-16.9l0.9,0.3
	c2.6,5.4,3.7,13.4,8,17.2c-2.9-0.6-5.4-1.7-8.9-0.6C518.9,339.5,518.3,341.8,516.6,343.2L516.6,343.2z M497.2,382.7l-1.1-0.3
	c2-12.9,6.3-26.3,12.3-37.5c2,0.3,3.4,3.1,6,4c0.3,2.9-0.9,5.1-2,8c0,0.9,0,1.4,0,2.3c0.9,3.1,2.3,4.9,4.6,6.9v0.6
	c-0.3,0.9-0.3,1.7-0.6,2.6c-0.9,0.3-2,0.9-3.7,1.1c-0.9,0.9-1.1,1.1-2.3,2.3c-1.1,2.9-1.7,6-2.9,9.2
	C504.6,383.8,500.9,382.4,497.2,382.7L497.2,382.7z M490.9,448.1l-0.9-0.3c-1.1-19.2,0-39.7,5.7-57.8l1.4-1.1c2.3,0,4.9,0,7.4,0
	c0.6,0.6,1.4,2,1.4,2.9l0.6,2c0.9,1.4,3.7,2.9,4.9,4.3c0,1.7-0.3,2.9-1.1,4.3c-0.9,0.6-2,0.9-3.1,1.4c-0.9,0-1.7,1.4-2.9,2
	c0,0.6-1.1,1.1-1.1,2.6l-0.9,18l0.9,1.4l2,2c0.9,0.6,2.3,0.9,3.1,2l1.1,1.7l-1.1,1.4h-0.9c-1.1,0-1.1,0.9-2.3,1.7l-1.7,1.4
	c-0.3,0.9-1.1,1.4-1.1,2.9c0,2-0.3,4-0.9,6.9C498,448.7,494.3,447.9,490.9,448.1L490.9,448.1z M499.2,510.2c-2.3-0.3-4.3,0-7.1,0
	l-1.1-1.1c-0.9-18.3-2.9-36.3-0.9-54.9h11.2c0.9,1.1,0,3.1,0.3,4.3c0.9,2,1.7,2.9,3.1,4c0.6,0.9,2,0.9,3.4,1.7
	c0.6,0.3,0.3,2,0.3,3.4c-1.7,0.9-3.1,1.7-4.9,2.9c-0.3,0.9-1.1,1.4-1.4,3.1l-0.9,15.2l0.3,2c0.9,2,1.7,3.1,3.7,4.9
	c1.1,0.3,2.3,0.3,3.4,1.1l0.9,0.3v2c-0.9,1.4-2.9,1.7-4.3,3.1c0,0.9-0.9,1.4-1.1,2.9c0,1.1,0,2.3,0,4l-2.6,1.1
	C500.9,510.2,500.3,510.2,499.2,510.2L499.2,510.2z M501.2,575.7l-0.9-0.3c-4.3-19.2-7.1-38.9-8.3-58.3c3.1-1.1,7.1,0,10.6-0.9
	l1.4,1.7c0,1.4,0,4,0.6,5.7c1.7,2.6,3.7,4,6.9,4.9c0,0.3,0.3,1.1,0,2c-0.3,0.9-1.4,0.9-2.9,1.1l-1.4,1.7c-0.9,0.3-0.9,2-1.7,2.3
	c0,6.3,0.9,13.4,2.9,20c0.9,0.6,1.1,1.4,2.3,2.6c0.9,0.9,2.9,0.9,4.6,1.7c0.3,1.1,0.3,2.3,1.1,4.3l-0.6,0.9c-0.3,0.3-1.1,1.4-2.3,2
	c-1.7,2.3-1.1,5.4-1.1,8.3L501.2,575.7L501.2,575.7z M514.6,618.6l-0.9-1.1c-4.6-11.2-9.1-22.6-11.4-34.9v-0.9c3.7,0,6.9-0.3,10.3,0
	l2,1.1c0.6,1.7,0.6,4,1.7,6c0.3,0.9,1.1,1.1,2.3,2.6c1.1,0.6,3.7,1.1,5.1,2.3c0,0.9,0,1.1,0,2.3c-0.3,1.1-1.4,2.6-2.9,3.7
	c-0.6,1.4-0.6,4-0.3,6c0.3,1.7,2.3,4.6,2,7.7c-2.3,1.1-4.9,4-7.2,5.1H514.6L514.6,618.6z M542.9,644.6v-1.7l-1.1-2l-1.7-0.3
	c-1.1,0.3-2,0.3-2.9,1.1c-0.3,0.3-0.3,1.4-2,2l-0.3-0.9c0-2.9,1.1-6,2.9-8.6c0.3-2,0.6-4,2.3-6l0.9-0.6c1.4-0.3,4,0.9,6,1.4l0.6,1.4
	C546.4,635.4,545.2,640.9,542.9,644.6L542.9,644.6z M528.9,641.4c-4.6-5.4-7.4-10-11.2-16v-0.9c1.7-2,4.6-3.4,6.9-5.4
	c1.4,1.4,2.9,3.4,6,4.3c2.6,0,6-0.9,8.3-1.1l-1.7,0.9l-0.6,0.6c-1.7,2-2,5.4-3.7,8c-0.3,2.9-2,6-3.1,9.2L528.9,641.4L528.9,641.4z
	 M392.2,624.6h-0.9c-6-12.6-11.2-28.6-13.4-42.9c1.1-0.9,2.3,0,4-0.3c1.1,0.3,1.1,2,2,3.1c5.1,7.4,6.6,20.6,10.6,29.7
	c1.7,2.9,2.9,6.3,4.6,9.4l-0.6,0.9C396.5,624.6,394.5,624.6,392.2,624.6L392.2,624.6z M375.9,575.1c-4.3-18.9-6.3-38.3-7.4-57.8
	l1.1-1.1c0.9,0,2,0,3.1,0l1.7,1.7c4.3,17.4,5.4,38,7.4,57.2C380.2,575.1,377.9,575.1,375.9,575.1L375.9,575.1z M370.8,510.8
	c-1.1-0.6-1.7,0-2.9-0.6c-1.1-18.3-0.6-36.6-0.3-55.2c1.1-0.9,2-0.6,3.1-0.9l1.7,1.1c0.3,1.7,2.3,3.1,3.1,5.1l0.3,45.2
	c-1.1,1.4-1.1,3.4-2.9,4.6C372.5,510.2,371.7,511.1,370.8,510.8L370.8,510.8z M368.8,448.1c-0.3-18.6,2-38.9,4.9-58.3
	c0.9-0.9,2.6-0.3,4.3-0.9l0.9,1.1c0,17.2-2.9,33.5-2.9,50.9c-0.9,0.9-1.1,1.1-2,2.6c-0.9,1.1-1.1,2.6-2.3,4.3
	C370.8,448.1,369.7,447.9,368.8,448.1L368.8,448.1z M375.7,382.7l-0.9-0.3c2-14,4.9-27.5,9.4-42.3l0.9-0.6c2,0,4,0,6,0l0.9,1.4
	c-0.6,2-1.7,3.1-2,5.1c-2.9,10-5.7,19.4-8,30.3c-0.9,0.3-0.9,1.1-2,2.3c-0.9,1.1-0.9,3.1-2,4C377.1,382.7,376.8,382.7,375.7,382.7
	L375.7,382.7z M524.6,361.2c-0.9-0.9,0.3-2-0.3-3.1c-0.9-0.9-1.4-1.1-2.6-2h-1.1l-1.7,1.7l-0.3,1.4h-1.1c0-0.9,0.9-1.4,0.3-2.9
	c1.1-0.3,0-2,1.1-2.3c1.4-0.9,2.9,0.9,4,0l0.9-0.9c0.9-1.1,0.6-3.1-0.3-4.3c-0.9-0.3-1.7-1.1-2-2l0.3-2l0.9-0.9c2-1.1,5.1,0,6.9,1.7
	l0.3,0.9c0,2.3-1.1,4.6-1.7,6.6c-0.6,2.6-1.4,4.6-2.3,7.2L524.6,361.2L524.6,361.2z M517.8,392.1l-0.3-1.4c-0.9-0.9-0.9-1.1-2.3-1.7
	h-1.7c-1.1,0.6-0.9,2-2,2l-0.3-1.1c0-0.9,0.6-0.9,1.4-2c0.9-3.4-0.3-7.4,2-11.2c0,0.9,0.6,2,0.9,3.1l1.4,1.1c0.9,0,2-0.3,2.6-0.6
	c0.9-0.6,1.1-2,1.4-3.7h0.9l0.9,0.9l-4,14.6H517.8L517.8,392.1z M508.3,425.6l-0.9-1.1l0.6-14l2-1.4v1.4l0.3,0.9
	c0.9,1.1,1.1,1.1,2.3,2c0.9-0.3,2-0.3,2.9-1.1l1.1-1.1l-1.1,13.7c-0.9-0.9,0-1.4-0.3-2.3l-1.7-2l-1.7-0.3l-1.4,0.6
	c-0.9,0.6-0.9,1.7-1.1,2.9C509.2,423.8,509.2,424.7,508.3,425.6L508.3,425.6z M507.5,458.2l-1.1-2c1.1-4.3,0-9.4,1.1-14.3l0.9-0.3
	l0.3,1.4c0.9,1.1,1.7,2,2.9,2.9h0.9c1.1-0.6,1.4-0.9,2.9-1.7l-0.6,12.9v-0.9c-0.3-0.9-0.3-2-1.1-2.9c-0.9-0.9-2-0.9-3.4-0.9
	l-1.7,1.7c0,1.1,0,2.3,0,3.4L507.5,458.2L507.5,458.2z M508.3,490.8c-0.9-0.3-1.1-1.1-1.7-2v-12c0.9-0.9,0-2,0.9-2.3h0.9l0.3,1.4
	l1.7,2l1.4,0.6c1.4,0,2-1.7,3.4-1.7c0,2.9,0.3,6-0.6,9.7l-1.4-1.1c-0.9,0-1.7,0-2.9,0.3l-0.9,0.9c-0.3,1.1-0.3,2.3-0.3,4.3H508.3
	L508.3,490.8z M510.3,521.4c-2-4-1.1-9.4-0.9-14.6v1.4l1.7,2l1.4,0.6l2-0.9l0.9-1.7c0-1.1,0-1.4,0-2.6l1.1-0.6
	c1.1,4.9,0.9,10.3,0.9,15.4h-0.9c0-0.6,0-2-1.1-2.3l-1.7-0.9c-0.6,0-2,0-2.3,0.9C510.3,518.5,511.2,520.2,510.3,521.4L510.3,521.4z
	 M513.5,553.7l-0.9-0.6c-0.3-5.1-2-10.3-1.4-15.4l0.6-0.9c0.6,1.1,0.6,2.9,1.7,4l2,1.1l1.4-0.3c0.6-0.9,1.7-1.1,1.7-2.9l0.9,0.6
	l0.9,12.6c-0.6-0.9-0.9-0.9-1.4-2c-0.3-0.9-1.4-0.9-2.3-1.1l-2,0.3l-1.1,2C513.5,551.9,514.6,552.2,513.5,553.7L513.5,553.7z
	 M521.5,586.8l-0.9-0.6c-0.9-2.6-0.9-4.6,0.3-6.9c0-0.9-0.3-2-0.6-2.9l-1.7-0.9c-0.9-0.3-0.9-1.1-1.1-2.3v-1.7
	c1.1,0,2.3,0.9,3.4,0.9l1.7-1.1c0.3-0.3,0.3-1.1,1.1-2h0.9c2,3.7,2.9,9.4,4,14.3l-0.9,1.1c0-1.1-0.9-1.4-1.1-2.6l-2-0.6l-1.7,0.6
	c-0.6,0.3-0.6,1.4-1.1,2.6C521.8,585.4,522.3,586.5,521.5,586.8L521.5,586.8z M530.9,618.3c-0.9-0.3-1.1-0.9-1.4-2.3
	c0.3-1.7,1.1-1.7,1.4-3.7l-0.3-1.4l-0.9-0.9c-0.9,0-1.7-0.9-2.9-0.9c-0.3-1.7-1.1-2.9-1.1-4.3c0.9,0.3,1.1,1.1,2.3,1.4
	c0.9,0,2-0.3,2.9-1.1c0.9-0.9,0-3.1,0.6-5.1l1.4,0.3l5.1,14c0,0.9-0.3,2-1.1,2.3C535.8,617.4,532.9,618,530.9,618.3L530.9,618.3z
	 M513.5,667.5V666l1.7-0.6l1.1-1.4l-0.6-1.7c-0.3-0.9-1.1-1.1-2.3-1.1l-0.9-0.9v-0.9l1.7-1.1h10.3v2.6c0,0.6,0.3,2,1.1,2.6l1.7,0.9
	c0.6-0.3,2-0.3,2.3-1.1l0.9,0.3c0.3,0.9-0.6,2-0.9,3.1C524.9,668,518.9,666.6,513.5,667.5L513.5,667.5z M482,667.5
	c-0.9,0-2.3,0-3.4,0V666l1.4-0.6l1.1-2l-0.3-1.4c-0.9-0.6-2.3-0.6-3.1-1.7l0.3-1.4l15.7-0.6l1.4,2.6c-1.1,0-1.4,0.6-2.9,1.4L492,664
	c0.3,0.9,1.7,1.1,2.3,2v0.6C490.9,668,486.6,667.2,482,667.5L482,667.5z M450.6,667.5c-1.4-0.3-3.1,0-5.1,0l-1.1-1.4
	c-0.9-1.7,0-3.1-0.3-5.1c0.3-0.6,0.6-1.7,1.7-2.6l15.7,0.6l0.3,1.4c-0.9,0.9-2,0.6-3.1,1.1l-1.1,1.7c0.3,1.1,0.9,1.1,2,2.3h1.4
	l0.6,0.9l-0.9,0.9C457.4,667.5,454.3,667.2,450.6,667.5L450.6,667.5z M492.9,632.6c-0.9,0-2-0.9-2-2l2-0.9c0.9,0,0.9-1.1,1.1-2.3
	v-0.9c-0.9-1.1-2.3-1.1-3.7-2.3c0.6-1.1,0.6-1.7,1.7-2.3l17.4,0.3l-0.3,1.4l-0.9,0.9c-0.9,0.9-1.1,1.1-2,2.6c0,0.6,0.3,2,1.1,2.6
	c0.9,0.9,2.6,0,4,0.6c0,1.1-1.1,1.4-2,2L492.9,632.6L492.9,632.6z M456.6,632.9c-1.7-0.6-4,0-6-0.3l-2-2c0.6-0.3,2-0.3,2.9-1.1
	l0.9-1.7l-0.9-2c-1.1,0-1.7-0.6-2.9-1.4l0.9-1.7c6-1.4,11.2,0,17.4-0.6c0.6,0.3,1.7,0.3,2,1.1v1.4l-1.4,0.9c-0.6,0.3-0.6,2-0.6,3.1
	c0.3,1.1,0.9,1.1,1.7,2v1.1l-0.9,0.9C464.6,632.9,460.6,632.6,456.6,632.9L456.6,632.9z M420.5,632.9c-2.9-0.6-6.6,0-9.7-0.3l-1.4-2
	l1.1-1.1c0.3-0.9,0-1.7,0.3-2.9c-0.3-0.9-1.1-0.9-2.3-2c-0.3,0-1.7,0-2-0.9l0.9-0.6c5.1-1.7,11.7-0.6,17.7-0.9l2.6,1.4
	c0,0.9-1.4,0.9-2,1.4c-0.6,0.6-1.4,1.1-1.7,2.6l0.9,1.7c0.3,0.3,2,0.3,2.9,1.1l-0.6,1.1C425.7,632.9,422.8,631.7,420.5,632.9
	L420.5,632.9z M475.7,582.8c-1.1,0-2,0-2-1.4l1.1-0.9c0.9-0.9,1.1-1.1,1.7-2.9l-0.9-1.4c-0.3-0.6-1.1-0.9-2-1.7v-1.4
	c5.7-1.4,12.3,0,18.3-0.6c1.1,0,2,1.1,2,2.9c-0.9,0-2.3,0-3.7,0.9l-0.6,0.9l-0.6,0.6c0,0.9,0.6,2,0.9,2.9c0.3,0.3,1.7,0.3,2.9,1.1
	v0.9C486.9,583.7,481.7,582.5,475.7,582.8L475.7,582.8z M435.1,582.8c-1.1-0.6-2.9,0.9-3.7-1.1c0-1.1,1.7-0.3,2-1.4l0.9-1.7
	c0-0.9-0.3-2-0.9-2.9c-0.3-0.3-1.4-0.3-2.3-1.1l0.3-1.1c0.6-0.3,1.7-0.3,2.6-0.9h15.4c0.9,0,3.1,0.9,2,2.6c-1.1,0.3-1.1,0.3-2.3,1.4
	l-0.6,1.1l0.9,1.7c0.3,0.3,1.1,1.1,2,2.3l-1.1,1.1H435.1L435.1,582.8z M395.4,582.8c-1.1,0-2.3,0-3.4,0l-0.6-2l1.7-1.1v-1.1
	c0-0.9,0-2-0.9-2.3c-0.9-0.6-1.1-1.1-2.3-1.7l-0.6-0.9l0.9-0.6c6-0.6,11.4,0,18-0.6l1.4,1.1c0,1.4-1.1,1.4-2.3,1.7
	c-0.9,0.3-0.9,1.7-1.1,2.9l0.3,0.6c0,1.4,2,1.7,2.3,2.9l-0.3,0.9L395.4,582.8L395.4,582.8z M466.6,518.2l-1.1-1.7l0.6-0.3
	c0.9,0,1.4-1.1,2.3-2v-0.9c-0.6-1.1-0.9-1.4-1.4-2.6l-2-0.6l0.6-1.1c0.3-0.3,1.4-0.3,2-0.9h16.3l1.1,0.9l-0.9,1.1h-1.4l-1.7,0.9
	l-1.1,2c0.3,0.9,0.3,2,1.1,2.3c0.3,1.1,2.9,0.6,3.1,1.7l-0.3,0.3l-1.7,0.9H466.6L466.6,518.2z M424.8,518.2c-0.9,0-2,0-2-1.7
	c1.1-0.3,1.4-0.6,2.3-1.1l0.9-1.1c0-0.9-0.3-1.1-0.9-2.3c-0.9-0.6-1.1-1.1-2.3-1.7l0.3-1.4c5.7-1.4,12-0.6,18-0.6l1.4,0.9
	c0,1.1-1.1,1.1-2,2l-0.6,2c0,0.9,0.3,2,0.6,2.3l1.7,1.1l-0.3,0.9C436.8,518.2,430.3,518.2,424.8,518.2L424.8,518.2z M392,518.5
	c-2.9-0.3-5.7,0-8.9-0.3l-1.1-0.9c0-1.4,1.1-1.1,2-2.3c0.3-0.9,0-1.7,0.3-2.9c-0.9-0.3-1.1-1.4-2.3-2v-2h18.3l0.9,2
	c-1.4,0-1.7,0.9-2.9,1.1l-0.9,2l0.9,1.7c0.3,0.9,1.1,1.1,2,1.4v0.9l-0.9,0.9c-2,0.3-4,0-6.9,0L392,518.5L392,518.5z M464.9,456.2
	l-1.1-1.7c0.9-0.3,2.3-1.1,3.1-2.6c0-0.9-0.3-2-1.1-2.9c0-0.3-1.7,0-2-1.1V447c0-0.9,1.1-0.9,2.3-1.1h15.2l1.7,0.9l-0.9,1.4h-1.4
	c-0.9,0.9-1.1,1.1-2,2.9c0,1.1,0.9,1.1,1.1,2.3c1.1,0,1.4,0.9,2.9,0.9l0.3,0.9l-0.9,0.3C476.6,456.2,470.6,455.9,464.9,456.2
	L464.9,456.2z M428.8,456.2c-1.7-0.9-4,0-6-0.3l-1.1-1.4l0.9-0.3c0.3,0,1.4-1.1,2.3-2v-0.9c-0.6-1.1-0.9-1.4-2-2.6l-1.7-0.9l0.6-0.9
	c5.1-1.7,12.3-0.9,18.6-0.9l0.9,0.9v0.9c-0.6,0.9-1.1,0.9-2,2l-0.3,0.6c0,0.9,0.3,2,0.6,2.9c0.6,0,1.7,0.6,1.7,2
	C438,456.4,433.1,455.3,428.8,456.2L428.8,456.2z M383.9,456.2l-2-0.3l-0.3-0.6c-0.6-1.4,1.1-2,1.4-3.4c0-1.7-2-2.9-1.1-5.1
	c4.3-1.4,10.3,0,15.4-0.6l1.7,2h-1.7c-0.3,0.9-1.1,1.1-1.7,2.9l0.6,1.4c0.9,0.9,1.1,1.4,2.3,2l-0.3,0.9
	C393.4,456.4,388.5,455.3,383.9,456.2L383.9,456.2z M473.7,390.7c-1.1-0.9-2.9,0.3-3.4-0.9V389c1.1,0,1.1-1.1,2.3-1.4
	c0.9-0.9,0-2.6,0-3.7c-0.3-0.9-1.7-0.9-2.9-1.1l0.9-2c6,0,12.6-0.9,18.6,0.3l0.6,0.9c-0.9,0.9-2,0.9-3.7,1.1l-0.9,0.9
	c-0.3,0.9-0.3,2.3,0,3.7c0.9,0.3,1.4,1.1,2.9,1.4v0.9l-0.3,0.3L473.7,390.7L473.7,390.7z M429.1,390.7l-1.1-1.1c0-0.9,1.7-0.6,2-1.7
	l1.1-1.7c-0.3-0.6-0.3-1.7-1.1-2.3c-0.3-0.9-2-0.3-2.3-1.4l0.3-0.9l0.3-0.9c6-0.3,12-0.3,18,0l1.4,1.1c0,1.7-1.4,0.9-2,2l-0.6,1.7
	c0.3,0.6,0.3,2,1.1,2.3l1.1,1.7l-0.9,0.6L429.1,390.7L429.1,390.7z M395.4,390.7c-2.9-0.9-5.1,0-8-0.6l-0.3-1.1l2-1.1l0.3-2
	c-0.3-1.1-0.3-2-1.4-3.1l0.3-1.7l0.3-0.3l16.3,0.3l0.6,1.7h-0.9c-0.9,0.9-2,1.1-2.3,2c0,1.1,0.3,1.4,0.3,2.9c0.9,0.6,1.7,1.1,2.9,2
	C402.2,391,398.5,389.8,395.4,390.7L395.4,390.7z M505.2,304.3l-0.6-0.6c0.9-0.6,2-0.6,2.9-1.4l0.6-0.6c0-0.9-0.6-1.7-0.6-2.9
	c-0.3-0.3-1.4-0.3-2.9-0.9l-0.3-0.9l0.9-0.6l14.6-0.6l1.7,0.9c0.3,0.3,0.9,1.7,0.9,2.9l-0.6,0.9l-2-0.6l-1.4,0.6l-0.9,0.6
	c-0.6,0.9,0,1.7-0.6,2.9l-0.3,0.3H505.2L505.2,304.3z M474.6,304.9c-0.9-0.6-2.3,0-3.7-0.6l-0.6-0.6l1.4-0.6l1.1-2
	c-0.3-0.6-0.3-2-1.1-2.3c-0.9,0-1.1-0.9-2.3-0.9v-1.1c4.9-1.7,10.3,0,15.4-0.9l1.7,2c-1.4,0-1.7,0.6-2.9,1.7c0,0.9,0,1.1,0.3,2.3
	l2,1.7l-0.3,0.3L474.6,304.9L474.6,304.9z M437.4,304.9l-0.6-0.6l-0.9-0.6c-0.6-1.7-0.9-4,0-6l0.9-0.9l1.4-0.9l14.3,0.9l0.6,0.9
	c-0.6,0.9-1.7,0.3-2.6,0.3c-0.3,0.6-1.4,0.9-2,2.6l0.9,1.4l0.9,1.1c0.3,0,1.1,0,2.3,0.9l-0.9,0.3L437.4,304.9L437.4,304.9z
	 M484.6,340.9l-1.7-1.1c0.3-0.9,2-0.3,2.3-1.1l0.9-1.7c0-1.1,0-2.3-0.9-2.6c-0.3-0.6-1.4-0.6-2.3-1.7l0.3-0.9c5.7-1.4,14-1.1,20,0v2
	l-2,0.6c-0.9,0.3-0.9,2-0.9,3.4c0,0.9,2,1.1,2,2.3C497.2,341.8,490.3,340.6,484.6,340.9L484.6,340.9z M445.4,340.9
	c-1.1-0.3-3.1,0-4.3-1.1c0.3-0.9,2-0.3,2.9-2l0.3-0.9c0-1.1-0.3-2.3-1.1-2.6c-0.6-0.6-0.9-0.9-2-1.7v-0.9c5.1-1.4,12,0,17.7-0.9
	l2.6,1.7c-0.9,1.1-2.9,1.1-2.9,2.3c0,1.4,0,2.9,0.9,3.7c0.3,0.3,2,0.9,1.1,2.3H445.4L445.4,340.9z M400.2,340.9l-1.1-1.1
	c0-0.9,1.1-0.9,2-0.9c0.6-0.9,1.1-1.1,1.4-2.3c0-0.9,0-2-1.1-2.9c0-0.9,0.3-2,1.1-2.3l14.3-0.6l2,1.7c0,0.9-1.1,0.9-2,1.1l-1.1,2
	c0,0.9,0,2,0.9,2.3c0.3,0.9,1.1,0.6,2,1.7l-0.9,1.1H400.2L400.2,340.9z"/>
<path class="st3" d="M529.8,559.4c-9.2-52.3-8-106.4-5.1-160.1l0.9-0.3h0.6c5.7,3.1,6.9,11.4,10,18.3c8,34,10,68.3,6.9,103.2
	c-1.7,12.9-4,26.3-9.7,35.7c-0.3,0.9-1.1,2.6-2.3,2.9L529.8,559.4L529.8,559.4z"/>
</svg>
