<?xml version="1.0" encoding="utf-8"?>
<!-- Generator: Adobe Illustrator 19.2.0, SVG Export Plug-In . SVG Version: 6.00 Build 0)  -->
<svg version="1.1" id="Livello_1" xmlns="http://www.w3.org/2000/svg" xmlns:xlink="http://www.w3.org/1999/xlink" x="0px" y="0px"
	 viewBox="0 0 960 960" style="enable-background:new 0 0 960 960;" xml:space="preserve">
<style type="text/css">
	.st0{fill-rule:evenodd;clip-rule:evenodd;fill:#FFFFFF;stroke:#1A171B;stroke-width:1.8027;stroke-miterlimit:2.6131;}
	.st1{fill-rule:evenodd;clip-rule:evenodd;fill:#005EA7;}
	.st2{fill-rule:evenodd;clip-rule:evenodd;fill:#FFFFFF;}
</style>
<g>
	<g>
		<path class="st0" d="M480,180c165.2,0,300,134.8,300,300c0,165.2-134.8,300-300,300S180,645.2,180,480
			C180,314.8,314.8,180,480,180L480,180z"/>
		<path class="st1" d="M480.9,196.3c155.9,0,283.1,127.2,283.1,283.1c0,155.9-127.2,283.1-283.1,283.1S197.7,635.3,197.7,479.4
			C197.7,323.4,324.9,196.3,480.9,196.3L480.9,196.3z"/>
		<path class="st2" d="M356.7,659.5l101.5-209.7l-12-45.7l-46.3,52.2c-15.6,21.7-45.7-2.6-28.2-23c28.8-33.4,57.7-66.8,86.5-100.2
			c4.5-3.9,4.5-4.2,13-8.4c12.3-4.2,18.8-7.1,32.4-11c5.8-1.9,13,1.9,18.2,7.5c23.3,25,42.1,45.4,65.8,70.3
			c4.2,4.2,4.2,8.4,4.2,12.3c0,21.4,0,32.7,0,54.1c0,19.1-33.4,19.1-33.4,0v-45.4L529.2,383l-8.8,63.2l77.8,215.5
			c6.5,19.1-31.8,31.8-39.5,13.9l-68.7-189.3l-92.7,185.7C383.3,697.7,350.6,678.6,356.7,659.5L356.7,659.5z"/>
		<path class="st2" d="M481.1,245.4c17.2,0,31.2,14,31.2,31.2c0,17.2-14,31.3-31.2,31.3c-17.2,0-31.3-14-31.3-31.3
			C449.9,259.4,463.9,245.4,481.1,245.4L481.1,245.4z"/>
	</g>
</g>
</svg>
