<?xml version="1.0" encoding="utf-8"?>
<!-- Generator: Adobe Illustrator 19.2.0, SVG Export Plug-In . SVG Version: 6.00 Build 0)  -->
<svg version="1.1" id="Livello_1" xmlns="http://www.w3.org/2000/svg" xmlns:xlink="http://www.w3.org/1999/xlink" x="0px" y="0px"
	 viewBox="0 0 960 960" style="enable-background:new 0 0 960 960;" xml:space="preserve">
<style type="text/css">
	.st0{fill-rule:evenodd;clip-rule:evenodd;fill:#FFFFFF;stroke:#1A171B;stroke-width:1.8027;stroke-miterlimit:2.6131;}
	.st1{fill-rule:evenodd;clip-rule:evenodd;fill:#005EA7;}
	.st2{fill-rule:evenodd;clip-rule:evenodd;fill:#FFFFFF;}
</style>
<g>
	<g>
		<path class="st0" d="M480,180c165.2,0,300,134.8,300,300c0,165.2-134.8,300-300,300S180,645.2,180,480
			C180,314.8,314.8,180,480,180L480,180z"/>
		<path class="st1" d="M480.9,196.3c155.9,0,283.1,127.2,283.1,283.1c0,155.9-127.2,283.1-283.1,283.1
			c-155.9,0-283.1-127.2-283.1-283.1C197.7,323.4,324.9,196.3,480.9,196.3L480.9,196.3z"/>
		<path class="st2" d="M561.2,496.5c6-16.5,12.1-24.5,26-34.2c0,0,14.3,24.9,22.3,37.7C592.8,499.3,561.2,496.7,561.2,496.5
			L561.2,496.5z M638.7,523.8c-0.9,3.3-7.1,7.9-15.4,8.8l-62,5.1c0,0,12.1,45.2,62,48.8c37.3,0,67.3-30,67.3-67.5
			c0-37.3-30-67.1-67.3-67.1c-9.7,0-14.3,1.1-22.1,4.9c2.6,4.9,18.5,29.3,27.1,45C642.9,506.2,638.9,519,638.7,523.8L638.7,523.8z
			 M336.8,504c-9.5,0.7-15,7.5-15,16.1c0,7.9,7.1,14.6,15,14.6c8.2,0,15.7-8.2,15.2-14.6c-0.7-6.8-3.1-8.8-3.1-9l26.9-46.6
			c16.5,12.6,27.4,33.1,27.4,55.6c0,36.9-30.2,66.9-67.3,66.9c-37.1,0-67.1-30-67.1-66.9c0-37.1,30-67.7,67.1-67.7
			c10.1,0,19.2,2.4,27.1,6.2L336.8,504L336.8,504z M510.5,491c-6.8-2.2-17.9-0.9-22.9,4.6l-80.3-76.8h142.3L510.5,491L510.5,491z
			 M570.9,408.7l21.2,34.9c9.5-4,20.5-6.4,31.3-6.4c45.7,0,82.5,36.8,82.5,81.9c0,45.2-36.8,82.5-82.5,82.5c-38,0-70.2-26-79.4-62
			c-13.7,1.3-26.9,2-39.3,2.2c-27.1-3.3-30.2-18.8-27.4-35.7l-81.2-75.9l-13,21.6c21.2,14.3,35.7,39.3,35.7,67.3
			c0,45.2-37.3,82.5-82.1,82.5c-45.7,0-82.3-37.3-82.3-82.5c0-45,36.6-81.9,82.3-81.9c12.1,0,23.6,2.9,34,7.3l29.1-51.9l-3.8-18.8
			c0-7.3,4.6-22.3,18.3-22.3H452c7.1,1.5,8.6,11,0,12.4h-35.7c-8.8,5.1-6.8,11.7-1.5,28.7l-6.4,12.4l149.2,0.4l13.5-24.7
			c-4.2,0-7.5-2-12.4-2c-7.9-2.6-8.2-8.8-2.4-10.8c11.7,0,34.9,0.9,47,0.9c7.5,0,7.3,19.9,1.5,20.7c-6.8,0-13.7-4.9-20.5-4.9
			L570.9,408.7L570.9,408.7z M525.7,492.5l36.2-67.7l17,25.4c-15.7,8.8-25.6,21.6-33.3,44.4L525.7,492.5L525.7,492.5z"/>
	</g>
</g>
</svg>
