<?xml version="1.0" encoding="utf-8"?>
<!-- Generator: Adobe Illustrator 19.2.0, SVG Export Plug-In . SVG Version: 6.00 Build 0)  -->
<svg version="1.1" id="Livello_1" xmlns="http://www.w3.org/2000/svg" xmlns:xlink="http://www.w3.org/1999/xlink" x="0px" y="0px"
	 viewBox="0 0 960 960" style="enable-background:new 0 0 960 960;" xml:space="preserve">
<style type="text/css">
	.st0{fill-rule:evenodd;clip-rule:evenodd;fill:#FFFFFF;stroke:#1A171B;stroke-width:1.8027;stroke-miterlimit:2.6131;}
	.st1{fill-rule:evenodd;clip-rule:evenodd;fill:#005EA7;}
	.st2{fill-rule:evenodd;clip-rule:evenodd;fill:#FFFFFF;}
	.st3{fill-rule:evenodd;clip-rule:evenodd;fill:#E1001A;}
</style>
<g>
	<g>
		<path class="st0" d="M480,180c165.2,0,300,134.8,300,300c0,165.2-134.8,300-300,300S180,645.2,180,480
			C180,314.8,314.8,180,480,180L480,180z"/>
		<path class="st1" d="M480.9,196.2c155.9,0,283.1,127.2,283.1,283.1c0,155.9-127.2,283.1-283.1,283.1S197.7,635.3,197.7,479.4
			C197.7,323.4,324.9,196.2,480.9,196.2L480.9,196.2z"/>
		<path class="st2" d="M561.8,496.7c6-16.6,12.1-24.5,26.1-34.2c0,0,14.4,25,22.3,37.8C593.4,499.6,561.8,496.9,561.8,496.7
			L561.8,496.7z M639.3,524.1c-0.9,3.3-7.1,8-15.5,8.8l-62.1,5.1c0,0,12.1,45.3,62.1,48.8c37.3,0,67.4-30,67.4-67.6
			c0-37.3-30-67.1-67.4-67.1c-9.7,0-14.4,1.1-22.1,4.9c2.7,4.9,18.5,29.4,27.2,45.1C643.5,506.4,639.5,519.2,639.3,524.1
			L639.3,524.1z M337.2,504.2c-9.5,0.7-15,7.5-15,16.1c0,8,7.1,14.6,15,14.6c8.2,0,15.7-8.2,15.2-14.6c-0.7-6.8-3.1-8.8-3.1-9.1
			l26.9-46.6c16.6,12.6,27.4,33.1,27.4,55.7c0,36.9-30.3,66.9-67.4,66.9s-67.1-30-67.1-66.9c0-37.1,30-67.8,67.1-67.8
			c10.2,0,19.2,2.4,27.2,6.2L337.2,504.2L337.2,504.2z M511,491.2c-6.8-2.2-17.9-0.9-23,4.6L407.6,419h142.4L511,491.2L511,491.2z
			 M571.5,408.8l21.2,34.9c9.5-4,20.5-6.4,31.4-6.4c45.7,0,82.6,36.9,82.6,81.9c0,45.3-36.9,82.6-82.6,82.6
			c-38,0-70.2-26.1-79.5-62.1c-13.7,1.3-26.9,2-39.3,2.2c-27.2-3.3-30.3-18.8-27.4-35.8l-81.3-76l-13,21.6
			c21.2,14.4,35.8,39.3,35.8,67.4c0,45.3-37.3,82.6-82.2,82.6c-45.7,0-82.4-37.3-82.4-82.6c0-45.1,36.7-81.9,82.4-81.9
			c12.1,0,23.6,2.9,34,7.3l29.2-51.9l-3.8-18.8c0-7.3,4.6-22.3,18.3-22.3h37.5c7.1,1.5,8.6,11,0,12.4h-35.8
			c-8.8,5.1-6.8,11.7-1.5,28.7l-6.4,12.4l149.3,0.4l13.5-24.7c-4.2,0-7.5-2-12.4-2c-7.9-2.6-8.2-8.8-2.4-10.8
			c11.7,0,34.9,0.9,47,0.9c7.5,0,7.3,19.9,1.5,20.8c-6.8,0-13.7-4.9-20.5-4.9L571.5,408.8L571.5,408.8z M526.2,492.7l36.2-67.8
			l17,25.4c-15.7,8.8-25.6,21.6-33.3,44.4L526.2,492.7L526.2,492.7z"/>
		<path class="st3" d="M650.6,253c10.8,8.3,20.6,16.6,29.9,25.9c9.8,9.8,19.1,20.3,27,31L311.4,705.9c-10.8-7.8-22-17.9-31.8-27.7
			c-9.3-9.3-17.2-18.7-25.1-29l396-396L650.6,253z"/>
	</g>
</g>
</svg>
