<?xml version="1.0" encoding="utf-8"?>
<!-- Generator: Adobe Illustrator 19.2.0, SVG Export Plug-In . SVG Version: 6.00 Build 0)  -->
<svg version="1.1" id="Livello_1" xmlns="http://www.w3.org/2000/svg" xmlns:xlink="http://www.w3.org/1999/xlink" x="0px" y="0px"
	 viewBox="0 0 960 960" style="enable-background:new 0 0 960 960;" xml:space="preserve">
<style type="text/css">
	.st0{fill-rule:evenodd;clip-rule:evenodd;fill:#FFFFFF;stroke:#1A171B;stroke-width:1.8027;stroke-miterlimit:2.6131;}
	.st1{fill-rule:evenodd;clip-rule:evenodd;fill:#005EA7;}
	.st2{fill-rule:evenodd;clip-rule:evenodd;fill:#FFFFFF;}
</style>
<g>
	<path class="st0" d="M480,180c165.2,0,300,134.8,300,300c0,165.2-134.8,300-300,300S180,645.2,180,480C180,314.8,314.8,180,480,180
		L480,180z"/>
	<path class="st1" d="M480.9,196.3c155.9,0,283.1,127.2,283.1,283.1c0,155.9-127.2,283.1-283.1,283.1S197.7,635.3,197.7,479.4
		C197.7,323.4,324.9,196.3,480.9,196.3L480.9,196.3z"/>
	<path class="st2" d="M427.3,453.4l44.3-91.6l-5.2-20l-20.3,22.8c-6.8,9.5-20-1.1-12.3-10.1c12.6-14.6,25.2-29.2,37.8-43.8
		c2-1.7,2-1.8,5.7-3.7c5.4-1.8,8.2-3.1,14.2-4.8c2.5-0.8,5.7,0.9,7.9,3.3c10.2,10.9,18.4,19.8,28.8,30.7c1.8,1.8,1.8,3.7,1.8,5.4
		c0,9.3,0,14.3,0,23.7c0,8.4-14.6,8.4-14.6,0v-19.8l-12.7-12.9l-3.8,27.6l34,94.2c2.8,8.4-13.9,13.9-17.3,6.1l-30-82.7L445,458.9
		C439,470.1,424.7,461.7,427.3,453.4L427.3,453.4z"/>
	<path class="st2" d="M481.7,272.4c7.5,0,13.7,6.1,13.7,13.7c0,7.5-6.1,13.7-13.7,13.7c-7.5,0-13.7-6.1-13.7-13.7
		C468.1,278.5,474.2,272.4,481.7,272.4L481.7,272.4z"/>
	<path class="st2" d="M521.1,629.1c3-8.4,6.2-12.4,13.2-17.4c0,0,7.3,12.7,11.3,19.2C537.1,630.5,521.1,629.2,521.1,629.1
		L521.1,629.1z M560.4,642.9c-0.4,1.7-3.6,4-7.8,4.5l-31.5,2.6c0,0,6.2,23,31.5,24.8c18.9,0,34.2-15.2,34.2-34.3
		c0-18.9-15.2-34.1-34.2-34.1c-4.9,0-7.3,0.6-11.2,2.5c1.3,2.5,9.4,14.9,13.8,22.9C562.5,634,560.5,640.5,560.4,642.9L560.4,642.9z
		 M407.2,632.9c-4.8,0.3-7.6,3.8-7.6,8.2c0,4,3.6,7.4,7.6,7.4c4.1,0,8-4.1,7.7-7.4c-0.3-3.5-1.6-4.5-1.6-4.6l13.7-23.6
		c8.4,6.4,13.9,16.8,13.9,28.2c0,18.7-15.3,33.9-34.2,33.9c-18.8,0-34-15.2-34-33.9c0-18.8,15.2-34.4,34-34.4
		c5.2,0,9.7,1.2,13.8,3.1L407.2,632.9L407.2,632.9z M495.3,626.3c-3.5-1.1-9.1-0.4-11.6,2.4l-40.8-39h72.2L495.3,626.3L495.3,626.3z
		 M526,584.5l10.7,17.7c4.8-2,10.4-3.2,15.9-3.2c23.2,0,41.9,18.7,41.9,41.6c0,23-18.7,41.9-41.9,41.9c-19.3,0-35.6-13.2-40.3-31.5
		c-6.9,0.7-13.7,1-19.9,1.1c-13.8-1.7-15.3-9.5-13.9-18.1l-41.2-38.5l-6.6,11c10.7,7.3,18.1,19.9,18.1,34.2
		c0,23-18.9,41.9-41.7,41.9c-23.2,0-41.8-18.9-41.8-41.9c0-22.9,18.6-41.6,41.8-41.6c6.2,0,12,1.5,17.2,3.7l14.8-26.3l-1.9-9.5
		c0-3.7,2.4-11.3,9.3-11.3h19c3.6,0.8,4.4,5.6,0,6.3h-18.1c-4.5,2.6-3.5,5.9-0.8,14.6l-3.3,6.3l75.7,0.2l6.8-12.5
		c-2.1,0-3.8-1-6.3-1c-4-1.3-4.1-4.5-1.2-5.5c5.9,0,17.7,0.4,23.9,0.4c3.8,0,3.7,10.1,0.8,10.5c-3.5,0-6.9-2.5-10.4-2.5L526,584.5
		L526,584.5z M503.1,627l18.4-34.4l8.6,12.9c-8,4.5-13,11-16.9,22.5L503.1,627L503.1,627z"/>
</g>
</svg>
