<?xml version="1.0" encoding="utf-8"?>
<!-- Generator: Adobe Illustrator 19.2.0, SVG Export Plug-In . SVG Version: 6.00 Build 0)  -->
<svg version="1.1" id="Livello_1" xmlns="http://www.w3.org/2000/svg" xmlns:xlink="http://www.w3.org/1999/xlink" x="0px" y="0px"
	 viewBox="0 0 960 960" style="enable-background:new 0 0 960 960;" xml:space="preserve">
<style type="text/css">
	.st0{fill-rule:evenodd;clip-rule:evenodd;fill:#FFFFFF;stroke:#1A171B;stroke-width:1.8027;stroke-miterlimit:2.6131;}
	.st1{fill-rule:evenodd;clip-rule:evenodd;fill:#005EA7;}
	.st2{fill-rule:evenodd;clip-rule:evenodd;fill:#FFFFFF;}
	.st3{fill-rule:evenodd;clip-rule:evenodd;fill:#E1001A;}
</style>
<g>
	<g>
		<path class="st0" d="M480,180c165.2,0,300,134.8,300,300c0,165.2-134.8,300-300,300S180,645.2,180,480
			C180,314.8,314.8,180,480,180L480,180z"/>
		<path class="st1" d="M480.9,196.3c155.9,0,283.1,127.2,283.1,283.1c0,155.9-127.2,283.1-283.1,283.1S197.7,635.3,197.7,479.4
			C197.7,323.4,324.9,196.3,480.9,196.3L480.9,196.3z"/>
		<path class="st2" d="M274.2,570l46.4-95.8l-5.5-20.9l-21.2,23.9c-7.1,9.9-20.9-1.2-12.9-10.5c13.2-15.3,26.4-30.5,39.6-45.8
			c2.1-1.8,2.1-1.9,5.9-3.9c5.6-1.9,8.6-3.3,14.8-5c2.7-0.9,5.9,0.9,8.3,3.4c10.7,11.4,19.3,20.7,30.1,32.1c1.9,1.9,1.9,3.9,1.9,5.6
			c0,9.8,0,15,0,24.7c0,8.7-15.3,8.7-15.3,0v-20.7L353,443.6l-4,28.9l35.6,98.5c3,8.7-14.5,14.5-18.1,6.4l-31.4-86.5l-42.4,84.9
			C286.3,587.5,271.4,578.7,274.2,570L274.2,570z"/>
		<path class="st2" d="M331,380.7c7.9,0,14.3,6.4,14.3,14.3c0,7.9-6.4,14.3-14.3,14.3c-7.9,0-14.3-6.4-14.3-14.3
			C316.7,387.1,323.2,380.7,331,380.7L331,380.7z"/>
		<path class="st2" d="M667,489.9c3-8.4,6.2-12.4,13.2-17.4c0,0,7.3,12.7,11.3,19.2C683,491.4,667,490,667,489.9L667,489.9z
			 M706.3,503.8c-0.4,1.7-3.6,4-7.8,4.5l-31.5,2.6c0,0,6.2,23,31.5,24.8c18.9,0,34.2-15.2,34.2-34.3c0-18.9-15.2-34.1-34.2-34.1
			c-4.9,0-7.3,0.6-11.2,2.5c1.3,2.5,9.4,14.9,13.8,22.9C708.4,494.9,706.4,501.4,706.3,503.8L706.3,503.8z M552.9,493.7
			c-4.8,0.3-7.6,3.8-7.6,8.2c0,4,3.6,7.4,7.6,7.4c4.2,0,8-4.1,7.7-7.4c-0.3-3.5-1.6-4.5-1.6-4.6l13.7-23.7
			c8.4,6.4,13.9,16.8,13.9,28.3c0,18.7-15.4,34-34.2,34c-18.8,0-34.1-15.2-34.1-34c0-18.8,15.3-34.4,34.1-34.4
			c5.2,0,9.8,1.2,13.8,3.1L552.9,493.7L552.9,493.7z M641.2,487.1c-3.5-1.1-9.1-0.4-11.7,2.4l-40.8-39H661L641.2,487.1L641.2,487.1z
			 M671.9,445.3l10.8,17.7c4.8-2,10.4-3.3,15.9-3.3c23.2,0,41.9,18.7,41.9,41.6c0,23-18.7,41.9-41.9,41.9
			c-19.3,0-35.7-13.2-40.4-31.5c-6.9,0.7-13.7,1-20,1.1c-13.8-1.7-15.4-9.5-13.9-18.2l-41.3-38.6l-6.6,11
			c10.8,7.3,18.2,20,18.2,34.2c0,23-18.9,41.9-41.7,41.9c-23.2,0-41.8-18.9-41.8-41.9c0-22.9,18.6-41.6,41.8-41.6
			c6.2,0,12,1.5,17.3,3.7l14.8-26.3l-1.9-9.5c0-3.7,2.4-11.3,9.3-11.3h19.1c3.6,0.8,4.4,5.6,0,6.3h-18.2c-4.5,2.6-3.5,5.9-0.8,14.6
			l-3.3,6.3l75.8,0.2l6.8-12.6c-2.1,0-3.8-1-6.3-1c-4-1.3-4.2-4.5-1.2-5.5c5.9,0,17.7,0.5,23.9,0.5c3.8,0,3.7,10.1,0.8,10.5
			c-3.5,0-6.9-2.5-10.4-2.5L671.9,445.3L671.9,445.3z M648.9,487.9l18.4-34.4l8.6,12.9c-8,4.5-13,11-16.9,22.5L648.9,487.9
			L648.9,487.9z"/>
		<polygon class="st2" points="471.5,190.2 490.5,190.2 490.5,769.8 471.5,769.8 471.5,190.2 		"/>
		<path class="st3" d="M650.6,253c10.8,8.3,20.6,16.6,29.9,25.9c9.8,9.8,19.1,20.3,27,31L311.4,705.9c-10.8-7.8-22-17.9-31.8-27.7
			c-9.3-9.3-17.2-18.7-25.1-29l396-396L650.6,253z"/>
	</g>
</g>
</svg>
