<?xml version="1.0" encoding="utf-8"?>
<!-- Generator: Adobe Illustrator 19.2.0, SVG Export Plug-In . SVG Version: 6.00 Build 0)  -->
<svg version="1.1" id="Livello_1" xmlns="http://www.w3.org/2000/svg" xmlns:xlink="http://www.w3.org/1999/xlink" x="0px" y="0px"
	 viewBox="0 0 960 960" style="enable-background:new 0 0 960 960;" xml:space="preserve">
<style type="text/css">
	.st0{fill-rule:evenodd;clip-rule:evenodd;fill:#FFFFFF;stroke:#1A171B;stroke-width:1.8027;stroke-miterlimit:2.6131;}
	.st1{fill-rule:evenodd;clip-rule:evenodd;fill:#005EA7;}
	.st2{fill-rule:evenodd;clip-rule:evenodd;fill:#FFFFFF;}
	.st3{fill-rule:evenodd;clip-rule:evenodd;fill:#E1001A;}
</style>
<g>
	<g>
		<path class="st0" d="M480,180c165.2,0,300,134.8,300,300c0,165.2-134.8,300-300,300S180,645.2,180,480
			C180,314.8,314.8,180,480,180L480,180z"/>
		<path class="st1" d="M480.9,196.2c155.9,0,283.1,127.2,283.1,283.1c0,155.9-127.2,283.1-283.1,283.1
			c-155.9,0-283.1-127.2-283.1-283.1C197.7,323.4,324.9,196.2,480.9,196.2L480.9,196.2z"/>
		<path class="st2" d="M427.8,453.5l44.4-91.7l-5.2-20l-20.3,22.8c-6.8,9.5-20-1.1-12.3-10.1c12.6-14.6,25.2-29.2,37.9-43.8
			c2-1.7,2-1.8,5.7-3.7c5.4-1.8,8.2-3.1,14.2-4.8c2.6-0.8,5.7,0.9,7.9,3.3c10.2,10.9,18.4,19.8,28.8,30.8c1.8,1.8,1.8,3.7,1.8,5.4
			c0,9.4,0,14.3,0,23.7c0,8.4-14.6,8.4-14.6,0v-19.8l-12.8-12.9l-3.8,27.6l34,94.3c2.8,8.4-13.9,13.9-17.3,6.1L486,377.8l-40.5,81.2
			C439.4,470.3,425.1,461.9,427.8,453.5L427.8,453.5z"/>
		<path class="st2" d="M482.2,272.4c7.5,0,13.7,6.1,13.7,13.7c0,7.5-6.1,13.7-13.7,13.7c-7.5,0-13.7-6.1-13.7-13.7
			C468.5,278.6,474.7,272.4,482.2,272.4L482.2,272.4z"/>
		<path class="st2" d="M521.6,629.4c3-8.4,6.2-12.4,13.2-17.4c0,0,7.3,12.7,11.3,19.2C537.6,630.9,521.6,629.5,521.6,629.4
			L521.6,629.4z M561,643.3c-0.4,1.7-3.6,4-7.8,4.5l-31.5,2.6c0,0,6.2,23,31.5,24.8c18.9,0,34.2-15.2,34.2-34.3
			c0-18.9-15.2-34.1-34.2-34.1c-4.9,0-7.3,0.6-11.2,2.5c1.3,2.5,9.4,14.9,13.8,22.9C563.1,634.3,561.1,640.8,561,643.3L561,643.3z
			 M407.6,633.2c-4.8,0.3-7.6,3.8-7.6,8.2c0,4,3.6,7.4,7.6,7.4c4.1,0,8-4.2,7.7-7.4c-0.3-3.5-1.6-4.5-1.6-4.6l13.7-23.7
			c8.4,6.4,13.9,16.8,13.9,28.2c0,18.7-15.4,34-34.2,34c-18.8,0-34.1-15.3-34.1-34c0-18.8,15.2-34.4,34.1-34.4
			c5.2,0,9.8,1.2,13.8,3.1L407.6,633.2L407.6,633.2z M495.8,626.6c-3.5-1.1-9.1-0.4-11.7,2.4l-40.8-39h72.3L495.8,626.6L495.8,626.6
			z M526.5,584.8l10.8,17.7c4.8-2,10.4-3.2,15.9-3.2c23.2,0,41.9,18.7,41.9,41.6c0,23-18.7,41.9-41.9,41.9
			c-19.3,0-35.6-13.2-40.4-31.5c-7,0.7-13.7,1-20,1.1c-13.8-1.7-15.4-9.5-13.9-18.2l-41.3-38.6l-6.6,11c10.8,7.3,18.2,20,18.2,34.2
			c0,23-18.9,41.9-41.7,41.9c-23.2,0-41.8-18.9-41.8-41.9c0-22.9,18.6-41.6,41.8-41.6c6.2,0,12,1.5,17.3,3.7l14.8-26.3l-1.9-9.5
			c0-3.7,2.4-11.3,9.3-11.3h19.1c3.6,0.8,4.4,5.6,0,6.3H448c-4.5,2.6-3.5,5.9-0.8,14.6l-3.3,6.3l75.8,0.2l6.8-12.6
			c-2.1,0-3.8-1-6.3-1c-4-1.3-4.1-4.5-1.2-5.5c5.9,0,17.7,0.4,23.9,0.4c3.8,0,3.7,10.1,0.8,10.5c-3.5,0-6.9-2.5-10.4-2.5
			L526.5,584.8L526.5,584.8z M503.6,627.4L522,593l8.6,12.9c-8,4.5-13,11-16.9,22.5L503.6,627.4L503.6,627.4z"/>
		<path class="st3" d="M650.6,253c10.8,8.3,20.6,16.6,29.9,25.9c9.8,9.8,19.1,20.3,27,31L311.4,705.9c-10.8-7.8-22-17.9-31.8-27.7
			c-9.3-9.3-17.2-18.7-25.1-29l396-396L650.6,253z"/>
	</g>
</g>
</svg>
