<?xml version="1.0" encoding="utf-8"?>
<!-- Generator: Adobe Illustrator 19.2.0, SVG Export Plug-In . SVG Version: 6.00 Build 0)  -->
<svg version="1.1" id="Livello_1" xmlns="http://www.w3.org/2000/svg" xmlns:xlink="http://www.w3.org/1999/xlink" x="0px" y="0px"
	 viewBox="0 0 960 960" style="enable-background:new 0 0 960 960;" xml:space="preserve">
<style type="text/css">
	.st0{fill-rule:evenodd;clip-rule:evenodd;fill:#FFFFFF;stroke:#1A171B;stroke-width:1.8027;stroke-miterlimit:2.6131;}
	.st1{fill-rule:evenodd;clip-rule:evenodd;fill:#005EA7;}
	.st2{fill-rule:evenodd;clip-rule:evenodd;fill:#FFFFFF;}
</style>
<g>
	<g>
		<path class="st0" d="M480,180c165.2,0,300,134.8,300,300c0,165.2-134.8,300-300,300S180,645.2,180,480
			C180,314.8,314.8,180,480,180L480,180z"/>
		<path class="st1" d="M480.9,196.3c155.9,0,283.1,127.2,283.1,283.1c0,155.9-127.2,283.1-283.1,283.1
			c-155.9,0-283.1-127.2-283.1-283.1C197.7,323.4,324.9,196.3,480.9,196.3L480.9,196.3z"/>
		<path class="st2" d="M406.3,662.1l-1.2-5.5c0-4.9,10.5-7.2,11.9-13.8c0-4.9,1.8-10.3-0.2-20.1c-12.7-25.1-22.2-53.8-30-81.7
			c-13.3,2.9-22.4,4.5-38.6,8.6c-9,3.7-8.6,20.5-8.2,33.3c6.4,5.3,10.7,8.2,17.7,8.4c1.6,0,4.3,2.9,7.8,2.9c2.9,0,6-2.3,8.6-3.1
			l4.7,3.3c3.5,6.2,5.5,9.5,8.6,17.5l-7.2,3.5c-6.2,0-7.8-4.7-14.2-8.2c-4.9,0-10.1,0-16.6,0c-5.7-10.7-23.8-6-27.7-16
			c0.4-17.3-1.4-27.1,0.6-39.6c1.8-6.4-0.6-10.1,13.8-17.3c11.3-7,25.1-12.5,39.4-20.3c-10.9-13.1-1.4-30.8-9.4-48.9
			c-6.4-4.7-4.9-8-12.9-14.6c-9.7-9.7-9.7-27.3-16.2-43.5l-4.9-4.9l-4.7,3.5c-1.8,6.2-4.9,12.7-9.9,19.3c1.9,7.8,1.9,8,0,14.6
			c-8.6,5.5-24.6,2.9-26.5-4.1c0.2-17,6.4-27.9,0-56.1l12.1-16c1.4-5.3-0.4-9-3.3-16.4c1,0,3.1-1.4,3.3-1.4
			c6.2,3.3,13.6,7.8,18.9,12.5c9.6-6.6,11.7-5.7,23-5.7c27.5,8,47.2,30.2,68.2,52.8c-6.4,8-11.9,14.8-9.9,27.9
			c1.8,11.9,9.7,11.1,22.4,12.9c-6.6,4.1-8.8,8-9.4,18.9l46.4,78c-8.2,0-16.6,1.2-25.5-0.8l-14.6-5.7c-8.8,26.9,3.9,62.2,11.1,90.6
			c0.6,2.9,4.5,7-2.3,13.8c-1.8,1.8-0.2,3.9,0.2,7.2c2.9,3.1,3.7,10.9,1.2,14.6C426.2,662.1,414.3,662.1,406.3,662.1L406.3,662.1z"
			/>
		<path class="st2" d="M473.1,662.1l1-6.2c4.7-7.6,13.1-8.2,13.4-13.1c0.2-4.9,6.2-11.5,11.9-15.2c9.4-15,14.8-33.1,23.2-50.9
			c-1.6-10.3-15.2-21.6-11.3-43.7c-4.9-0.2-11.3,1.4-17.9,2.7c2.5-5.3,2.7-8.4,1.2-14l-27.5-53.2c12.7-8.2,31.2-14.6,45.8-24.2
			c24.2-1.9,49.1-1.2,68.4,15.4c8.4-3.3,18.9-2.7,28.5-2.7c37,6,38.4,50.9,46.4,90c10.9,18.5,20.5,22,34.9,26.3
			c-24.4,7.2-33.9,2.9-50.1-8.2c-30.2-29.4-14.8-82.4-32.5-88.5c-8.4-2.9-13.8-6.2-20.1-2.1c3.5,9.7,5.5,20.5,4.1,31.6
			c-3.5,13.1-8.4,22-18.1,33.5c2.9,6.6,13.6,16.8,17,28.8c0,11.5-0.8,21.2,1,34.1c0,6.6,7.6,6.6,6.2,14.4c-0.8,8.8,6.6,1.2,13.1,2.7
			c0,4.9,10.5,14,11.9,22.2c-19.5,0-25.5,0.6-40.3-15c-3.1-9.9-5.3-18.3-7.6-29.2c-3.7-14.4-18.1-26.7-24.2-34.1
			c0,0-2.1,0.6-2.7,1.4c-6.8,9.7-8.2,17.2-8.4,32.7c-19.1,14-21.2,33.9-39,50.1c0,3.5,3.9,9.9,0.8,14.6
			C494,662.1,482.7,662.1,473.1,662.1L473.1,662.1z"/>
		<path class="st2" d="M468.8,536.6l-41.3-71.1c-3.1-6.2-3.3-9.9,2.1-14.8l49.9-29.4l-18.1-25.7l-33.5,39.4
			c-7.8,7.8-23.2-2.3-17.5-13.8l59.8-77.4c8.4-6.8,24.6-4.7,28.1,3.1l22.2,71.9c-0.4,7.2-3.5,13.6-9.7,16.8l-55,29.2l31.2,59.8
			C491.5,533.1,476.8,545.2,468.8,536.6L468.8,536.6z"/>
		<path class="st2" d="M462.7,296.8c11.7,0,21.3,9.5,21.3,21.3c0,11.7-9.5,21.3-21.3,21.3c-11.7,0-21.3-9.6-21.3-21.3
			C441.4,306.3,451,296.8,462.7,296.8L462.7,296.8z"/>
	</g>
</g>
</svg>
