<?xml version="1.0" encoding="utf-8"?>
<!-- Generator: Adobe Illustrator 19.2.0, SVG Export Plug-In . SVG Version: 6.00 Build 0)  -->
<svg version="1.1" id="Livello_1" xmlns="http://www.w3.org/2000/svg" xmlns:xlink="http://www.w3.org/1999/xlink" x="0px" y="0px"
	 viewBox="0 0 960 960" style="enable-background:new 0 0 960 960;" xml:space="preserve">
<style type="text/css">
	.st0{fill-rule:evenodd;clip-rule:evenodd;fill:#FFFFFF;stroke:#1A171B;stroke-width:1.8027;stroke-miterlimit:2.6131;}
	.st1{fill-rule:evenodd;clip-rule:evenodd;fill:#E1001A;}
	.st2{fill-rule:evenodd;clip-rule:evenodd;fill:#FFFFFF;}
	.st3{fill-rule:evenodd;clip-rule:evenodd;fill:#1A171B;stroke:#1A171B;stroke-width:1.3597;stroke-miterlimit:2.6131;}
	.st4{fill-rule:evenodd;clip-rule:evenodd;fill:#1A171B;}
</style>
<g>
	<g>
		<path class="st0" d="M480,180c165.2,0,300,134.8,300,300c0,165.2-134.8,300-300,300S180,645.2,180,480
			C180,314.8,314.8,180,480,180L480,180z"/>
		<path class="st1" d="M480.9,196.2c155.9,0,283.1,127.2,283.1,283.1c0,155.9-127.2,283.1-283.1,283.1
			c-155.9,0-283.1-127.2-283.1-283.1C197.7,323.4,324.9,196.2,480.9,196.2L480.9,196.2z"/>
		<path class="st2" d="M480.9,268.7c116.1,0,210.7,94.7,210.7,210.7s-94.7,210.7-210.7,210.7c-116.1,0-210.7-94.7-210.7-210.7
			S364.8,268.7,480.9,268.7L480.9,268.7z"/>
		<path class="st3" d="M337.4,453.1H627c13.7,0,25,11.3,25,25.2s-11.2,25.2-25,25.2H337.4c-13.7,0-25-11.3-25-25.2
			S323.7,453.1,337.4,453.1L337.4,453.1z"/>
		<path class="st4" d="M352.8,364.9v48.5h5.1c3.7,0,6.3-1.5,7.7-4.6c1.4-3.1,2.1-9.6,2.1-19.6c0-10-0.7-16.5-2.1-19.6
			c-1.4-3.1-4-4.6-7.7-4.6H352.8L352.8,364.9z M340.8,354.2h18.6c7.3,0,12.4,2.6,15.3,7.8c2.9,5.2,4.4,14.3,4.4,27.4
			c0,13-1.5,22.1-4.4,27.3c-3,5.2-8.1,7.8-15.3,7.8h-18.6V354.2L340.8,354.2z M406.5,425.5c-2.6,0-5-0.4-7.3-1.3
			c-2.3-0.9-4.1-2-5.4-3.5c-2.3-2.5-4-6.1-5-10.9c-1-4.8-1.5-11.8-1.5-21.3c0-7.3,0.3-13,0.9-17.1c0.6-4.1,1.6-7.4,3-10
			c1.4-2.6,3.4-4.6,6-6c2.6-1.4,5.7-2.1,9.2-2.1c2.7,0,5.2,0.4,7.4,1.3c2.2,0.9,4.1,2.1,5.5,3.6c2.2,2.4,3.8,5.8,4.8,10.2
			c1,4.3,1.4,10.7,1.4,19.2c0,8.8-0.3,15.3-0.9,19.4c-0.6,4.1-1.6,7.5-3.1,10.2c-1.4,2.6-3.4,4.6-6,6.1
			C412.9,424.8,409.9,425.5,406.5,425.5L406.5,425.5z M399.2,389.2c0,10.3,0.5,17.2,1.6,20.4c1,3.3,2.9,5,5.6,5
			c2.8,0,4.7-1.6,5.8-4.8c1.1-3.2,1.6-10.3,1.6-21.3c0-9.8-0.5-16.2-1.6-19.4c-1-3.2-2.9-4.8-5.7-4.8c-2.8,0-4.7,1.6-5.7,4.9
			C399.7,372.4,399.2,379,399.2,389.2L399.2,389.2z M471.6,387.5v35.6c-3.8,0.9-7,1.5-9.6,1.8c-2.6,0.4-5,0.6-7.2,0.6
			c-3.4,0-6.4-0.4-8.7-1.2c-2.4-0.8-4.3-2-5.8-3.6c-2.3-2.5-4-6.1-4.9-10.7c-1-4.6-1.4-12.1-1.4-22.3c0-7.1,0.3-12.6,0.9-16.5
			c0.6-3.9,1.6-7.2,3-9.8c1.5-2.7,3.5-4.7,6.1-6.1c2.6-1.3,5.9-2,9.7-2c5.9,0,10.3,1.8,13.4,5.5c3.1,3.7,4.6,9,4.6,16v1.1h-11.6V375
			c0-4-0.6-6.9-1.7-8.8c-1.1-1.9-2.8-2.9-5.1-2.9c-2.9,0-4.9,1.6-6,4.8c-1.1,3.2-1.6,10.2-1.6,21.1c0,11.5,0.7,18.7,2,21.6
			c1.3,3,3.8,4.5,7.4,4.5c0.8,0,1.7-0.1,2.6-0.2c0.9-0.1,2-0.4,3.3-0.8v-15.7h-6.5v-11H471.6L471.6,387.5z M493.7,398h12l-5.8-30.4
			L493.7,398L493.7,398z M510.9,424.4l-3-15.6h-16.4l-3,15.6h-11.9l15.9-70.2h15l15.7,70.2H510.9L510.9,424.4z M529.2,424.4v-70.2
			H545l10.8,36.4c1.3,4.3,2.4,8.4,3.4,12.4c1,4,1.8,8,2.5,11.9c-0.3-3-0.5-6.2-0.7-9.5c-0.1-3.4-0.2-7-0.2-10.8l-0.7-40.4h10.9v70.2
			h-15.5L544.2,386c-0.8-2.9-1.7-6.4-2.7-10.4c-1-4-2-8.5-3-13.3c0.3,4.4,0.5,8.3,0.7,11.7c0.1,3.4,0.2,6.2,0.3,8.6l0.7,41.8H529.2
			L529.2,424.4z M593.8,398h12l-5.8-30.4L593.8,398L593.8,398z M611.1,424.4l-3-15.6h-16.4l-3,15.6h-11.9l15.9-70.2h15l15.7,70.2
			H611.1L611.1,424.4z"/>
		<path class="st4" d="M364.3,542.2v48.5h4.9c3.6,0,6-1.5,7.4-4.6c1.4-3.1,2-9.6,2-19.6c0-10-0.7-16.5-2-19.6
			c-1.3-3.1-3.8-4.6-7.4-4.6H364.3L364.3,542.2z M352.9,531.6h17.8c6.9,0,11.8,2.6,14.6,7.8c2.8,5.2,4.2,14.3,4.2,27.3
			c0,13-1.4,22.1-4.2,27.3c-2.8,5.2-7.7,7.8-14.6,7.8h-17.8V531.6L352.9,531.6z M415.6,602.8c-2.5,0-4.8-0.4-6.9-1.3
			c-2.2-0.9-3.9-2-5.2-3.5c-2.2-2.5-3.8-6.1-4.8-10.9c-1-4.8-1.4-11.8-1.4-21.2c0-7.3,0.3-13,0.9-17.1c0.6-4.1,1.5-7.4,2.9-10
			c1.3-2.6,3.2-4.6,5.7-6c2.5-1.4,5.4-2.1,8.8-2.1c2.6,0,4.9,0.4,7.1,1.3c2.1,0.9,3.9,2.1,5.3,3.6c2.1,2.4,3.6,5.8,4.5,10.1
			c0.9,4.3,1.4,10.7,1.4,19.2c0,8.8-0.3,15.3-0.9,19.4c-0.6,4.1-1.6,7.5-3,10.2c-1.3,2.6-3.2,4.6-5.7,6.1
			C421.8,602.1,418.9,602.8,415.6,602.8L415.6,602.8z M408.7,566.5c0,10.3,0.5,17.1,1.5,20.4c1,3.3,2.8,4.9,5.4,4.9
			c2.7,0,4.5-1.6,5.5-4.8c1-3.2,1.5-10.3,1.5-21.3c0-9.7-0.5-16.2-1.5-19.4c-1-3.2-2.8-4.8-5.4-4.8c-2.6,0-4.5,1.6-5.5,4.9
			C409.2,549.7,408.7,556.4,408.7,566.5L408.7,566.5z M479.3,531.6v43.9c0,9.8-1.4,16.8-4.3,21c-2.8,4.2-7.5,6.3-14.1,6.3
			c-6.3,0-10.9-2.1-13.9-6.2c-3-4.1-4.5-10.5-4.5-19.1v-46h11.2v42.1c0,8,0.5,13.1,1.6,15.3c1,2.2,2.9,3.2,5.7,3.2
			c2.7,0,4.5-1.2,5.5-3.6c1-2.4,1.5-7.4,1.5-14.9v-42.1H479.3L479.3,531.6z M501.1,575.3h11.5l-5.6-30.4L501.1,575.3L501.1,575.3z
			 M517.5,601.7l-2.9-15.6H499l-2.9,15.6h-11.3l15.2-70.1h14.4l15,70.1H517.5L517.5,601.7z M535,601.7v-70.1h15.1l10.3,36.4
			c1.2,4.3,2.3,8.4,3.2,12.4c0.9,4,1.7,8,2.4,11.9c-0.3-3-0.5-6.2-0.6-9.5c-0.1-3.4-0.2-7-0.2-10.8l-0.7-40.4H575v70.1h-14.8
			l-10.9-38.4c-0.8-2.9-1.7-6.3-2.6-10.4c-0.9-4-1.9-8.5-2.9-13.3c0.3,4.4,0.5,8.3,0.6,11.7c0.1,3.4,0.2,6.2,0.2,8.6l0.6,41.8H535
			L535,601.7z M584.5,601.7v-70.1h29.1v10.8h-17.8v16.7h16.3v10.8h-16.3v20.4h18.4v11.3H584.5L584.5,601.7z"/>
	</g>
</g>
</svg>
