<?xml version="1.0" encoding="utf-8"?>
<!-- Generator: Adobe Illustrator 19.2.0, SVG Export Plug-In . SVG Version: 6.00 Build 0)  -->
<svg version="1.1" id="Livello_1" xmlns="http://www.w3.org/2000/svg" xmlns:xlink="http://www.w3.org/1999/xlink" x="0px" y="0px"
	 viewBox="0 0 960 960" style="enable-background:new 0 0 960 960;" xml:space="preserve">
<style type="text/css">
	.st0{fill-rule:evenodd;clip-rule:evenodd;fill:#FFFFFF;stroke:#1A171B;stroke-width:1.8027;stroke-miterlimit:2.6131;}
	.st1{fill-rule:evenodd;clip-rule:evenodd;fill:#E1001A;}
	.st2{fill-rule:evenodd;clip-rule:evenodd;fill:#FFFFFF;}
	.st3{fill-rule:evenodd;clip-rule:evenodd;fill:#1A171B;stroke:#1A171B;stroke-width:1.3597;stroke-miterlimit:2.6131;}
	.st4{fill-rule:evenodd;clip-rule:evenodd;fill:#1A171B;}
</style>
<g>
	<g>
		<path class="st0" d="M480,180c165.2,0,300,134.8,300,300c0,165.2-134.8,300-300,300S180,645.2,180,480
			C180,314.8,314.8,180,480,180L480,180z"/>
		<path class="st1" d="M480.9,196.2c155.9,0,283.1,127.2,283.1,283.1c0,155.9-127.2,283.1-283.1,283.1
			c-155.9,0-283.1-127.2-283.1-283.1C197.7,323.4,324.9,196.2,480.9,196.2L480.9,196.2z"/>
		<path class="st2" d="M480.9,268.7c116.1,0,210.7,94.7,210.7,210.7s-94.7,210.7-210.7,210.7c-116.1,0-210.7-94.7-210.7-210.7
			S364.8,268.7,480.9,268.7L480.9,268.7z"/>
		<path class="st3" d="M337.9,454.1h289.5c13.7,0,25,11.2,25,24.8s-11.2,24.8-25,24.8H337.9c-13.7,0-25-11.2-25-24.8
			S324.2,454.1,337.9,454.1L337.9,454.1z"/>
		<path class="st4" d="M441.4,399.3H453l-5.6-30.6L441.4,399.3L441.4,399.3z M457.9,425.9l-2.9-15.7h-15.7l-2.9,15.7h-11.4
			l15.2-70.7h14.4l15,70.7H457.9L457.9,425.9z M475.4,425.9v-70.7h11.4v58.3h16.5v12.5H475.4L475.4,425.9z M513.6,425.9v-59.1h-12.3
			v-11.6h36.3v11.6h-12.4v59.1H513.6L513.6,425.9z"/>
		<path class="st4" d="M374.9,531.3c6.9,0,11.7,1.5,14.3,4.5c2.6,3,4,8.3,4,15.9c0,3.5-0.4,6.6-1.1,9.4c-0.7,2.7-1.7,4.9-3.1,6.5
			c-1.3,1.6-2.9,2.7-4.6,3.4c-1.8,0.7-4.7,1-8.7,1h-0.7h-7v27.2h-12.8v-67.8H374.9L374.9,531.3z M367.8,542v19h4
			c3.5,0,5.9-0.7,7.1-2.1c1.2-1.4,1.8-3.9,1.8-7.6c0-3.5-0.6-6-1.7-7.3c-1.1-1.3-3.1-2-6.1-2H367.8L367.8,542z M419.3,600.2
			c-2.7,0-5.2-0.4-7.5-1.2c-2.3-0.8-4.2-2-5.6-3.4c-2.4-2.4-4.1-5.9-5.2-10.5c-1-4.6-1.6-11.4-1.6-20.5c0-7,0.3-12.6,0.9-16.5
			c0.6-4,1.7-7.2,3.1-9.7c1.4-2.5,3.5-4.4,6.2-5.8c2.7-1.3,5.9-2,9.5-2c2.8,0,5.4,0.4,7.7,1.3c2.3,0.8,4.2,2,5.7,3.5
			c2.3,2.4,3.9,5.6,4.9,9.8c1,4.2,1.5,10.4,1.5,18.5c0,8.5-0.3,14.8-0.9,18.7c-0.6,4-1.7,7.2-3.2,9.9c-1.4,2.5-3.5,4.5-6.2,5.9
			C425.9,599.5,422.8,600.2,419.3,600.2L419.3,600.2z M411.7,565.1c0,10,0.5,16.6,1.6,19.8c1.1,3.2,3,4.8,5.8,4.8
			c2.9,0,4.9-1.5,6-4.6c1.1-3.1,1.6-10,1.6-20.6c0-9.4-0.5-15.7-1.6-18.7c-1.1-3.1-3-4.6-5.9-4.6c-2.9,0-4.9,1.6-6,4.7
			C412.2,548.9,411.7,555.3,411.7,565.1L411.7,565.1z M448.6,599.2v-67.8h12.3v55.9h17.9v12H448.6L448.6,599.2z M485.1,599.2v-67.8
			h12v67.8H485.1L485.1,599.2z M502.6,599.2v-11.7l24.2-45.2h-23.1v-10.9h35.3v12.1L515.2,588h24.7v11.1H502.6L502.6,599.2z
			 M545.3,599.2v-67.8h11.9v67.8H545.3L545.3,599.2z M581.1,573.6h12.5l-6.1-29.4L581.1,573.6L581.1,573.6z M599,599.2l-3.1-15.1
			h-17l-3.1,15.1h-12.3l16.5-67.8h15.6l16.3,67.8H599L599,599.2z"/>
	</g>
</g>
</svg>
