<?xml version="1.0" encoding="utf-8"?>
<!-- Generator: Adobe Illustrator 19.2.0, SVG Export Plug-In . SVG Version: 6.00 Build 0)  -->
<svg version="1.1" id="Livello_1" xmlns="http://www.w3.org/2000/svg" xmlns:xlink="http://www.w3.org/1999/xlink" x="0px" y="0px"
	 viewBox="0 0 960 960" style="enable-background:new 0 0 960 960;" xml:space="preserve">
<style type="text/css">
	.st0{fill-rule:evenodd;clip-rule:evenodd;fill:#FFFFFF;stroke:#1A171B;stroke-width:1.8027;stroke-miterlimit:2.6131;}
	.st1{fill-rule:evenodd;clip-rule:evenodd;fill:#E1001A;}
	.st2{fill-rule:evenodd;clip-rule:evenodd;fill:#FFFFFF;}
	.st3{fill-rule:evenodd;clip-rule:evenodd;fill:#1A171B;stroke:#1A171B;stroke-width:1.3597;stroke-miterlimit:2.6131;}
	.st4{fill-rule:evenodd;clip-rule:evenodd;fill:#1A171B;}
</style>
<g>
	<g>
		<path class="st0" d="M480,180c165.2,0,300,134.8,300,300c0,165.2-134.8,300-300,300S180,645.2,180,480
			C180,314.8,314.8,180,480,180L480,180z"/>
		<path class="st1" d="M480.9,196.2c155.9,0,283.1,127.2,283.1,283.1c0,155.9-127.2,283.1-283.1,283.1
			c-155.9,0-283.1-127.2-283.1-283.1C197.7,323.4,324.9,196.2,480.9,196.2L480.9,196.2z"/>
		<path class="st2" d="M480.9,268.7c116.1,0,210.7,94.7,210.7,210.7s-94.7,210.7-210.7,210.7c-116.1,0-210.7-94.7-210.7-210.7
			S364.8,268.7,480.9,268.7L480.9,268.7z"/>
		<path class="st3" d="M336.8,453.9h289.8c13.7,0,25,11.2,25,24.8c0,13.7-11.2,24.8-25,24.8H336.8c-13.7,0-25-11.2-25-24.8
			C311.8,465.1,323.1,453.9,336.8,453.9L336.8,453.9z"/>
		<path class="st4" d="M439.8,399.3h11.5l-5.6-30.7L439.8,399.3L439.8,399.3z M456.3,425.9l-2.9-15.7h-15.7l-2.9,15.7h-11.4
			l15.3-70.8h14.4l15,70.8H456.3L456.3,425.9z M473.8,425.9v-70.8h11.4v58.3h16.5v12.5H473.8L473.8,425.9z M512,425.9v-59.2h-12.3
			v-11.6H536v11.6h-12.4v59.2H512L512,425.9z"/>
		<path class="st4" d="M328.5,578.2H340v1.8c0,3.5,0.5,6,1.4,7.5c0.9,1.5,2.5,2.2,4.7,2.2c1.7,0,3.1-0.7,4.1-2
			c1-1.3,1.5-3.2,1.5-5.4c0-3.2-2.4-6.8-7.2-10.7c-0.3-0.2-0.6-0.4-0.7-0.5c-2.5-2.1-4.5-3.7-6-5s-2.6-2.4-3.3-3.3
			c-2-2.3-3.3-4.4-4.1-6.4c-0.7-2-1.1-4.5-1.1-7.4c0-5.7,1.5-10.2,4.6-13.6c3.1-3.4,7.2-5,12.5-5c5.4,0,9.5,1.6,12.2,4.7
			c2.7,3.1,4.1,7.8,4.1,13.9v1.8h-11.2v-0.4c0-3.2-0.5-5.6-1.4-7.2c-0.9-1.6-2.3-2.4-4.1-2.4c-1.7,0-3,0.6-4,1.9
			c-1,1.3-1.5,3-1.5,5.1c0,3.7,3.1,7.8,9.4,12.5c1.6,1.2,2.9,2.2,3.7,2.9c3.5,2.8,6,5.5,7.4,8.1c1.4,2.6,2.1,5.7,2.1,9.3
			c0,6.6-1.5,11.5-4.6,14.9c-3.1,3.3-7.6,5-13.7,5c-5.7,0-9.8-1.6-12.5-4.8s-4-8.1-4-14.9c0-0.2,0-0.6,0-1.1
			C328.5,578.9,328.5,578.5,328.5,578.2L328.5,578.2z M379.8,599.1v-56.6h-12.3v-11.1h36.3v11.1h-12.4v56.6H379.8L379.8,599.1z
			 M416.9,573.6h11.5l-5.6-29.3L416.9,573.6L416.9,573.6z M433.4,599.1l-2.9-15.1h-15.7l-2.9,15.1h-11.3l15.2-67.7h14.4l15,67.7
			H433.4L433.4,599.1z M446.2,599.1v-11.7l22.3-45.2h-21.3v-10.9h32.6v12.1l-22,44.6h22.8v11.1H446.2L446.2,599.1z M485.6,599.1
			v-67.7h11v67.7H485.6L485.6,599.1z M523.9,600.2c-2.5,0-4.8-0.4-7-1.2c-2.2-0.8-3.9-2-5.2-3.4c-2.2-2.4-3.8-5.9-4.8-10.5
			c-1-4.6-1.5-11.4-1.5-20.5c0-7,0.3-12.5,0.9-16.5c0.6-4,1.6-7.2,2.9-9.6c1.3-2.5,3.2-4.4,5.7-5.8c2.5-1.3,5.4-2,8.8-2
			c2.6,0,4.9,0.4,7.1,1.3c2.2,0.8,3.9,2,5.3,3.5c2.1,2.3,3.6,5.6,4.5,9.8c0.9,4.2,1.4,10.4,1.4,18.5c0,8.5-0.3,14.8-0.9,18.7
			c-0.6,4-1.6,7.2-3,9.8c-1.3,2.5-3.2,4.5-5.7,5.9C530,599.5,527.1,600.2,523.9,600.2L523.9,600.2z M516.8,565.1
			c0,10,0.5,16.6,1.5,19.7c1,3.2,2.8,4.8,5.4,4.8c2.7,0,4.5-1.5,5.5-4.6c1-3.1,1.5-10,1.5-20.6c0-9.4-0.5-15.7-1.5-18.7
			c-1-3.1-2.8-4.6-5.4-4.6c-2.6,0-4.5,1.6-5.5,4.7C517.3,548.9,516.8,555.3,516.8,565.1L516.8,565.1z M550.9,599.1v-67.7H566
			l10.3,35.2c1.2,4.1,2.3,8.1,3.2,12c0.9,3.9,1.7,7.7,2.4,11.5c-0.3-2.9-0.5-6-0.6-9.2c-0.1-3.2-0.2-6.7-0.2-10.5l-0.7-39h10.4v67.7
			h-14.8L565.2,562c-0.8-2.8-1.7-6.1-2.6-10c-0.9-3.9-1.9-8.2-2.9-12.9c0.3,4.3,0.5,8.1,0.6,11.3c0.1,3.2,0.2,6,0.3,8.3l0.6,40.4
			H550.9L550.9,599.1z M600.5,599.1v-67.7h29.2v10.5h-17.8V558h16.4v10.4h-16.4v19.8h18.5v10.9H600.5L600.5,599.1z"/>
	</g>
</g>
</svg>
