<?xml version="1.0" encoding="utf-8"?>
<!-- Generator: Adobe Illustrator 19.2.0, SVG Export Plug-In . SVG Version: 6.00 Build 0)  -->
<svg version="1.1" id="Livello_1" xmlns="http://www.w3.org/2000/svg" xmlns:xlink="http://www.w3.org/1999/xlink" x="0px" y="0px"
	 viewBox="0 0 960 960" style="enable-background:new 0 0 960 960;" xml:space="preserve">
<style type="text/css">
	.st0{fill:#FFFFFF;stroke:#1A171B;stroke-width:1.1838;stroke-miterlimit:2.6131;}
	.st1{fill:none;stroke:#1A171B;stroke-width:7.8917;stroke-miterlimit:2.6131;}
	.st2{fill-rule:evenodd;clip-rule:evenodd;fill:#1A171B;}
</style>
<g>
	<polygon class="st0" points="98.3,503.5 698.3,503.5 698.3,730.5 98.3,730.5 98.3,503.5 	"/>
	<path class="st1" d="M144.3,519.8h508.1c16.3,0,29.7,13.3,29.7,29.7v135.3c0,16.3-13.3,29.7-29.7,29.7H144.3
		c-16.3,0-29.7-13.3-29.7-29.7V549.4C114.6,533.1,128,519.8,144.3,519.8L144.3,519.8z"/>
	<path class="st2" d="M309.8,665.3c-1.3-0.4-2.4-1.2-3.2-2.4c-0.8-1.2-1.2-2.6-1.2-4.2c0-2.2,0.8-4,2.3-5.6c1.5-1.5,3.4-2.3,5.6-2.3
		c2.5,0,4.6,0.9,6.1,2.6c1.5,1.7,2.3,4,2.3,7c0,4.6-1.6,8.7-4.7,12.2c-3.1,3.5-7.1,5.6-12,6.4v-2.6c1.6-1.8,2.8-3.5,3.6-5.2
		c0.8-1.7,1.2-3.4,1.2-5.2V665.3L309.8,665.3z"/>
	<path class="st2" d="M238.8,638.4l16.8-2.4c0.5,4.9,2,8.5,3.9,10.8c2.3,2.4,5.5,3.7,8.4,3.7c3,0,6.1-1.6,8.4-4.1
		c2.3-2.6,3.9-6.7,3.9-11.6c0-4.3-1.1-8.3-3.4-10.6c-2.3-2.4-5.5-4.1-8.4-4.1c-2,0-4.5,0.8-7.3,1.6l1.6-16.1c4.1,0,7.5-0.8,9.8-2.6
		c2.3-2.4,3.9-5.7,3.9-9.4c0-2.6-1.1-5.5-2.7-7.1c-1.6-2-4.1-3.1-6.8-3.1c-2.7,0-5.5,1-6.8,3.1c-2,2-3.4,5.3-3.4,8.7l-16.1-2.2
		c0.9-5.7,2.7-10.4,4.5-13.6c2.3-3.3,5.7-6.3,9.5-7.9c3.9-2,8.9-3.3,13.4-3.3c8.4,0,15.2,3.3,20.2,8.7c4.1,4.9,6.4,10.4,6.4,16.1
		c0,7.9-4.5,15-13.6,19.9c5,1,9.5,3.9,12.5,7.9c3.2,3.9,5,9.2,5,14.6c0,8.1-3,15.7-8.6,21.2c-5.9,5.7-12.9,8.7-21.4,8.7
		c-8.2,0-15-2.2-20.2-7.1C242.7,653.6,239.7,646.3,238.8,638.4L238.8,638.4z"/>
	<path class="st2" d="M479.8,618.4h12.8v6.4c4.3-4.9,9.7-7.5,15.7-7.5c3.3,0,6.2,0.7,8.4,1.8c2.5,1.3,4.5,3.3,6,5.7
		c2.1-2.4,4.7-4.4,7.2-5.5c2.5-1.3,5.6-2,8.4-2c3.7,0,7,0.7,9.5,2c2.5,1.5,4.7,3.6,6,6.2c0.8,1.8,1.4,5.1,1.4,9.5v29.3h-13.6v-26.1
		c0-4.4-0.6-7.5-1.4-8.8c-1.2-1.8-3.3-2.7-5.8-2.7c-1.9,0-3.7,0.6-5.4,1.6c-1.6,1.1-3.1,2.7-3.7,4.6c-0.6,1.8-1,5.1-1,9.5v21.9
		h-13.6v-25c0-4.4-0.2-7.5-0.6-8.6c-0.4-1.3-1.4-2.4-2.3-2.9c-1-0.7-2.7-1.1-4.3-1.1c-2.1,0-3.9,0.6-5.6,1.5
		c-1.6,1.1-2.9,2.6-3.5,4.4c-0.6,1.8-1,5.1-1,9.5v22.2h-13.6V618.4L479.8,618.4z"/>
	<polygon class="st2" points="425.4,664.3 425.4,600.9 439,600.9 439,634.6 455.3,618.4 472.2,618.4 454.1,635.4 473,664.3 
		458.6,664.3 445.2,643.8 439,649.8 439,664.3 425.4,664.3 	"/>
	<path class="st2" d="M382.8,636.3c-2.1-2.6-5.1-4.7-9.1-6c3.1-1.1,5.8-3.1,7.4-5.3s2.5-4.9,2.5-7.8c0-4.7-2.1-8.9-5.8-12
		c-3.7-2.9-9.1-4.6-15.7-4.6c-6.8,0-12.2,1.6-15.9,4.7c-3.7,2.9-5.6,7.1-5.6,11.8c0,2.5,0.8,5.3,2.5,7.7c1.4,2.2,4.1,4.2,7.8,5.3
		v0.2c-4.1,1.5-7.2,3.8-9.1,6.7c-1.9,2.7-2.9,6-2.9,9.3c0,6.2,2.7,11.1,7.6,14.8c4.1,2.9,9.7,4.4,16.1,4.4c7,0,12.8-1.8,16.9-5.5
		c4.1-3.6,6.4-8.4,6.4-14.2C386.1,642.3,384.9,639,382.8,636.3z M356.2,612.6c1.4-1.5,3.7-2.2,6.2-2.2c2.5,0,4.5,0.7,6.2,2.2
		c1.4,1.5,2.3,3.5,2.3,5.7c0,2.4-0.8,4.4-2.5,5.8c-1.4,1.3-3.7,2-6.2,2c-2.5,0-4.5-0.7-6-2c-1.4-1.3-2.3-3.3-2.3-5.8
		C354,616,354.8,614,356.2,612.6z M369.6,653.6c-1.6,1.8-4.1,2.7-7,2.7c-2.9,0-5.4-1.1-7.2-2.9c-1.6-1.8-2.7-4.5-2.7-7.9
		c0,0,0,0.1,0,0.1v-0.2c0,0,0,0.1,0,0.1c0-2.3,0.8-4.7,2.5-6.8c1.4-2,3.9-3.1,7.2-3.1c2.9,0,5.4,1.1,7.2,2.9
		c1.9,1.8,2.9,4.4,2.9,7.3C372.5,649,371.5,651.8,369.6,653.6z"/>
</g>
<g>
	<polygon class="st0" points="98.3,235.5 698.3,235.5 698.3,462.5 98.3,462.5 98.3,235.5 	"/>
	<path class="st1" d="M144.3,251.8h508.1c16.3,0,29.7,13.3,29.7,29.7v135.3c0,16.3-13.3,29.7-29.7,29.7H144.3
		c-16.3,0-29.7-13.3-29.7-29.7V281.4C114.6,265.1,128,251.8,144.3,251.8L144.3,251.8z"/>
	<path class="st2" d="M494,347.6c5.7-9.1,28.7-8.8,32,1.6c8.1-13,34.4-10.1,34.4,5.9v42.3h-19.4v-33.5c0-3.3,0-9.8-6.1-9.8
		c-4.9,0-7.7,5.5-7.7,8.1v35.2h-19.4v-33.5c0-3.3,0-9.8-6.1-9.8c-4.9,0-7.7,5.5-7.7,8.1v35.2h-19.4c0-15.9,0-34.8,0-50.8
		c0-1.3-0.8-2.6-0.8-3.9h19.4L494,347.6L494,347.6z"/>
	<path class="st2" d="M222,370.8l18.4-2.4c0.5,4.8,2.2,8.4,4.2,10.6c2.5,2.4,6,3.6,9.2,3.6c3.2,0,6.7-1.6,9.2-4
		c2.5-2.6,4.2-6.6,4.2-11.4c0-4.2-1.2-8.2-3.7-10.4c-2.5-2.4-6-4-9.2-4c-2.2,0-5,0.8-8,1.6l1.7-15.9c4.5,0,8.2-0.8,10.7-2.6
		c2.5-2.4,4.2-5.6,4.2-9.2c0-2.6-1.2-5.4-3-7c-1.7-2-4.5-3-7.5-3c-3,0-6,1-7.5,3c-2.2,2-3.7,5.2-3.7,8.6l-17.6-2.2
		c1-5.6,3-10.2,5-13.5c2.5-3.2,6.2-6.2,10.4-7.8c4.2-2,9.7-3.2,14.7-3.2c9.2,0,16.6,3.2,22.1,8.6c4.5,4.8,7,10.2,7,15.9
		c0,7.8-5,14.9-14.9,19.7c5.5,1,10.4,3.8,13.7,7.8c3.5,3.8,5.5,9,5.5,14.5c0,8-3.2,15.5-9.4,20.9c-6.5,5.6-14.2,8.6-23.4,8.6
		c-8.9,0-16.4-2.2-22.1-7C226.3,385.9,223,378.6,222,370.8L222,370.8z M364.4,379.4v16.7h-67.6c0.2-6.4,3-12.3,6.2-17.9
		c3.2-5.4,10.9-13.3,21.4-22.7c8.2-7.2,14.2-12.7,15.7-15.5c2.5-3.4,4.2-7.4,4.2-11c0-3.8-1.2-7-3.2-9c-2.5-2.4-6-3.4-10.2-3.4
		c-3.7,0-7,1-9.2,3c-2.5,2.4-4,6.4-4,11l-19.1-1.6c0.7-9.4,4.5-16.9,10.2-20.9c6-4.2,13.9-6.6,23.1-6.6c9.9,0,17.9,2.8,23.6,7.4
		c6,5.2,8.9,11.8,8.9,18.9c0,4-1,8.4-2.5,12.3c-1.7,4-4.7,8.2-7.9,12.2c-2.2,2.4-6.7,6.6-12.7,11.8c-6.2,5-10.4,8.6-11.9,10.2
		c-1.7,1.6-3.5,3.4-4.2,5H364.4L364.4,379.4z M408.9,301.5c9.2,0,17.1,3.6,22.6,9.8c6.7,7.8,9.9,20.9,9.9,38.6
		c0,17.3-3.2,30.3-9.9,38.2c-5.5,6.4-13.4,9.4-22.6,9.4c-9.9,0-17.9-3.4-23.9-10.2c-5.7-7-8.7-19.7-8.7-37.7
		c0-17.3,3.5-30.3,9.7-38.2C391.5,305.1,399.5,301.5,408.9,301.5L408.9,301.5z M408.9,316.6c-2.5,0-4.5,0.6-6.2,1.8
		c-1.7,1.6-3.7,4.4-4.5,8c-1,4.6-1.7,12.4-1.7,23.5c0,11,0.7,18.5,1.7,22.5c0.7,4,2.5,7,4,8.2c1.7,1.2,4.2,2,6.7,2
		c2.2,0,4.2-0.8,6-2c1.5-1.2,3.7-3.8,4.5-7.4c1.2-4.4,2-12.2,2-23.3c0-11-0.7-18.9-1.5-22.9c-1.2-3.8-3-7-4.7-8.2
		C413.6,317.2,411.1,316.6,408.9,316.6L408.9,316.6z"/>
</g>
<g>
	<path d="M861.1,387.4h-17l-6.8-17.6h-30.9l-6.4,17.6h-16.6l30.1-77.3h16.5L861.1,387.4z M832.4,356.8l-10.7-28.7l-10.4,28.7H832.4z
		"/>
</g>
<g>
	<path d="M791.6,579.9h30.9c6.1,0,10.7,0.3,13.7,0.8s5.7,1.6,8.1,3.2s4.4,3.8,5.9,6.5s2.4,5.7,2.4,9c0,3.6-1,6.9-2.9,10
		s-4.6,5.3-7.9,6.8c4.7,1.4,8.3,3.7,10.9,7s3.8,7.2,3.8,11.7c0,3.5-0.8,6.9-2.5,10.3s-3.9,6-6.7,8c-2.8,2-6.3,3.2-10.5,3.7
		c-2.6,0.3-8.9,0.5-18.8,0.5h-26.3V579.9z M807.3,592.8v17.9h10.2c6.1,0,9.9-0.1,11.3-0.3c2.7-0.3,4.8-1.2,6.3-2.8s2.3-3.5,2.3-6
		c0-2.4-0.7-4.3-2-5.8s-3.3-2.4-5.9-2.7c-1.5-0.2-6-0.3-13.3-0.3H807.3z M807.3,623.5v20.7h14.4c5.6,0,9.2-0.2,10.7-0.5
		c2.3-0.4,4.2-1.5,5.7-3.1c1.5-1.6,2.2-3.8,2.2-6.6c0-2.3-0.6-4.3-1.7-5.9c-1.1-1.6-2.8-2.8-4.9-3.5c-2.1-0.7-6.7-1.1-13.8-1.1
		H807.3z"/>
</g>
</svg>
