<?xml version="1.0" encoding="utf-8"?>
<!-- Generator: Adobe Illustrator 19.2.0, SVG Export Plug-In . SVG Version: 6.00 Build 0)  -->
<svg version="1.1" id="Livello_1" xmlns="http://www.w3.org/2000/svg" xmlns:xlink="http://www.w3.org/1999/xlink" x="0px" y="0px"
	 viewBox="0 0 960 960" style="enable-background:new 0 0 960 960;" xml:space="preserve">
<style type="text/css">
	.st0{opacity:1.000000e-002;fill:#FFFFFF;}
	.st1{fill:#FFFFFF;stroke:#1A171B;stroke-width:1.1838;stroke-miterlimit:2.6131;}
	.st2{fill:none;stroke:#1A171B;stroke-width:7.8917;stroke-miterlimit:2.6131;}
	.st3{fill-rule:evenodd;clip-rule:evenodd;fill:#1A171B;}
</style>
<rect class="st0" width="1" height="1"/>
<rect x="959" y="959" class="st0" width="1" height="1"/>
<g>
	<polygon class="st1" points="180,366.5 780,366.5 780,593.5 180,593.5 180,366.5 	"/>
	<path class="st2" d="M225.9,382.8h508.1c16.3,0,29.7,13.3,29.7,29.7v135.3c0,16.3-13.3,29.7-29.7,29.7H225.9
		c-16.3,0-29.7-13.3-29.7-29.7V412.4C196.3,396.1,209.6,382.8,225.9,382.8L225.9,382.8z"/>
	<path class="st3" d="M575.7,478.6c5.7-9.1,28.7-8.8,32,1.6c8.1-13,34.4-10.1,34.4,5.9v42.3h-19.4v-33.5c0-3.3,0-9.8-6.1-9.8
		c-4.9,0-7.7,5.5-7.7,8.1v35.2h-19.4v-33.5c0-3.3,0-9.8-6.1-9.8c-4.9,0-7.7,5.5-7.7,8.1v35.2h-19.4c0-15.9,0-34.8,0-50.8
		c0-1.3-0.8-2.6-0.8-3.9h19.4L575.7,478.6L575.7,478.6z"/>
	<path class="st3" d="M303.7,501.8l18.4-2.4c0.5,4.8,2.2,8.4,4.2,10.6c2.5,2.4,6,3.6,9.2,3.6c3.2,0,6.7-1.6,9.2-4
		c2.5-2.6,4.2-6.6,4.2-11.4c0-4.2-1.2-8.2-3.7-10.4c-2.5-2.4-6-4-9.2-4c-2.2,0-5,0.8-8,1.6l1.7-15.9c4.5,0,8.2-0.8,10.7-2.6
		c2.5-2.4,4.2-5.6,4.2-9.2c0-2.6-1.2-5.4-3-7c-1.7-2-4.5-3-7.5-3c-3,0-6,1-7.5,3c-2.2,2-3.7,5.2-3.7,8.6l-17.6-2.2
		c1-5.6,3-10.2,5-13.5c2.5-3.2,6.2-6.2,10.4-7.8c4.2-2,9.7-3.2,14.7-3.2c9.2,0,16.6,3.2,22.1,8.6c4.5,4.8,7,10.2,7,15.9
		c0,7.8-5,14.9-14.9,19.7c5.5,1,10.4,3.8,13.7,7.8c3.5,3.8,5.5,9,5.5,14.5c0,8-3.2,15.5-9.4,20.9c-6.5,5.6-14.2,8.6-23.4,8.6
		c-8.9,0-16.4-2.2-22.1-7C307.9,516.9,304.7,509.6,303.7,501.8L303.7,501.8z M446.1,510.4v16.7h-67.6c0.2-6.4,3-12.3,6.2-17.9
		c3.2-5.4,10.9-13.3,21.4-22.7c8.2-7.2,14.2-12.7,15.7-15.5c2.5-3.4,4.2-7.4,4.2-11c0-3.8-1.2-7-3.2-9c-2.5-2.4-6-3.4-10.2-3.4
		c-3.7,0-7,1-9.2,3c-2.5,2.4-4,6.4-4,11l-19.1-1.6c0.7-9.4,4.5-16.9,10.2-20.9c6-4.2,13.9-6.6,23.1-6.6c9.9,0,17.9,2.8,23.6,7.4
		c6,5.2,8.9,11.8,8.9,18.9c0,4-1,8.4-2.5,12.3c-1.7,4-4.7,8.2-7.9,12.2c-2.2,2.4-6.7,6.6-12.7,11.8c-6.2,5-10.4,8.6-11.9,10.2
		c-1.7,1.6-3.5,3.4-4.2,5H446.1L446.1,510.4z M490.6,432.5c9.2,0,17.1,3.6,22.6,9.8c6.7,7.8,9.9,20.9,9.9,38.6
		c0,17.3-3.2,30.3-9.9,38.2c-5.5,6.4-13.4,9.4-22.6,9.4c-9.9,0-17.9-3.4-23.9-10.2c-5.7-7-8.7-19.7-8.7-37.7
		c0-17.3,3.5-30.3,9.7-38.2C473.2,436.1,481.1,432.5,490.6,432.5L490.6,432.5z M490.6,447.6c-2.5,0-4.5,0.6-6.2,1.8
		c-1.7,1.6-3.7,4.4-4.5,8c-1,4.6-1.7,12.4-1.7,23.5c0,11,0.7,18.5,1.7,22.5c0.7,4,2.5,7,4,8.2c1.7,1.2,4.2,2,6.7,2
		c2.2,0,4.2-0.8,6-2c1.5-1.2,3.7-3.8,4.5-7.4c1.2-4.4,2-12.2,2-23.3c0-11-0.7-18.9-1.5-22.9c-1.2-3.8-3-7-4.7-8.2
		C495.3,448.2,492.8,447.6,490.6,447.6L490.6,447.6z"/>
</g>
</svg>
