<?xml version="1.0" encoding="utf-8"?>
<!-- Generator: Adobe Illustrator 19.2.0, SVG Export Plug-In . SVG Version: 6.00 Build 0)  -->
<svg version="1.1" id="Livello_1" xmlns="http://www.w3.org/2000/svg" xmlns:xlink="http://www.w3.org/1999/xlink" x="0px" y="0px"
	 viewBox="0 0 960 960" style="enable-background:new 0 0 960 960;" xml:space="preserve">
<style type="text/css">
	.st0{fill:#FFFFFF;stroke:#1A171B;stroke-width:1.1837;stroke-miterlimit:2.6131;}
	.st1{fill:none;stroke:#1A171B;stroke-width:7.8916;stroke-miterlimit:2.6131;}
	.st2{fill-rule:evenodd;clip-rule:evenodd;fill:#1A171B;}
</style>
<polygon class="st0" points="98.3,503.5 698.3,503.5 698.3,730.5 98.3,730.5 98.3,503.5 "/>
<path class="st1" d="M144.3,519.8h508.1c16.3,0,29.7,13.3,29.7,29.7v135.3c0,16.3-13.3,29.7-29.7,29.7H144.3
	c-16.3,0-29.7-13.3-29.7-29.7V549.4C114.6,533.1,128,519.8,144.3,519.8L144.3,519.8z"/>
<path class="st2" d="M336.7,665c-1.3-0.4-2.4-1.3-3.2-2.5c-0.8-1.2-1.2-2.7-1.2-4.4c0-2.2,0.8-4.2,2.3-5.8c1.5-1.6,3.4-2.4,5.6-2.4
	c2.5,0,4.6,0.9,6.1,2.6c1.5,1.8,2.3,4.1,2.3,7.2c0,4.7-1.6,8.9-4.7,12.5c-3.1,3.6-7.1,5.8-12,6.6v-2.7c1.6-1.8,2.8-3.6,3.6-5.3
	c0.8-1.7,1.2-3.5,1.2-5.3V665L336.7,665z"/>
<path class="st2" d="M319.7,648.4v17.2h-56.6c0.2-6.6,2.4-12.5,5.2-18.5c2.8-5.5,9.2-13.6,18-23.4c6.9-7.4,11.9-12.9,13.1-15.9
	c2.1-3.4,3.5-7.6,3.5-11.2c0-4-1-7.4-2.6-9.3c-2.1-2.5-5-3.6-8.6-3.6c-3.1,0-5.9,1.1-7.6,3.2c-2.2,2.3-3.5,6.6-3.5,11.3l-16.1-1.5
	c0.7-9.8,3.8-17.4,8.6-21.7c5-4.2,11.6-6.8,19.3-6.8c8.3,0,15,3,19.9,7.6c5,5.3,7.4,12.3,7.4,19.5c0,4-0.9,8.7-2.1,12.5
	c-1.4,4.2-4,8.5-6.7,12.7c-1.7,2.3-5.5,6.8-10.5,12.1c-5.2,5.3-8.8,8.9-10,10.6c-1.6,1.7-2.9,3.4-3.6,5.1H319.7L319.7,648.4z"/>
<path class="st2" d="M482.9,618.6h12.2v6.4c4.1-4.9,9.3-7.5,15-7.5c3.2,0,5.9,0.7,8.1,1.8c2.4,1.3,4.3,3.3,5.7,5.7
	c2-2.4,4.5-4.4,6.9-5.5c2.4-1.3,5.3-2,8.1-2c3.5,0,6.7,0.7,9.1,2c2.4,1.5,4.5,3.6,5.7,6.2c0.8,1.8,1.4,5.1,1.4,9.5v29.3h-13v-26.1
	c0-4.4-0.6-7.5-1.4-8.7c-1.2-1.8-3.2-2.7-5.5-2.7c-1.8,0-3.5,0.5-5.1,1.6c-1.6,1.1-3,2.7-3.5,4.6c-0.6,1.8-1,5.1-1,9.5v21.9h-13v-25
	c0-4.4-0.2-7.5-0.6-8.6c-0.4-1.3-1.4-2.4-2.2-2.9c-1-0.7-2.6-1.1-4.1-1.1c-2,0-3.8,0.5-5.3,1.5c-1.6,1.1-2.8,2.6-3.4,4.4
	c-0.6,1.8-1,5.1-1,9.5v22.2h-13V618.6L482.9,618.6z"/>
<polygon class="st2" points="430.9,664.6 430.9,601.1 443.9,601.1 443.9,634.8 459.4,618.6 475.6,618.6 458.3,635.6 476.4,664.6 
	462.6,664.6 449.8,644 443.9,650 443.9,664.6 430.9,664.6 "/>
<path class="st2" d="M398.3,635.3c-1.8-2.6-4.6-4.9-8-6.2c2.7-1.1,5.1-3.2,6.6-5.4c1.5-2.3,2.2-5.1,2.2-8.1c0-4.9-1.8-9.2-5.1-12.4
	c-3.3-3-8-4.7-13.9-4.7c-6,0-10.8,1.7-14.1,4.9c-3.3,3-4.9,7.3-4.9,12.2c0,2.6,0.7,5.4,2.2,7.9c1.3,2.3,3.6,4.3,6.9,5.4v0.2
	c-3.6,1.5-6.4,3.9-8,6.9c-1.6,2.8-2.6,6.2-2.6,9.6c0,6.4,2.4,11.5,6.8,15.2c3.6,3,8.6,4.5,14.2,4.5c6.2,0,11.3-1.9,15-5.6
	c3.6-3.8,5.7-8.6,5.7-14.7C401.2,641.5,400.1,638.2,398.3,635.3z M374.7,610.7c1.3-1.5,3.3-2.3,5.5-2.3c2.2,0,4,0.8,5.5,2.3
	c1.3,1.5,2,3.6,2,5.8c0,2.4-0.7,4.5-2.2,6c-1.3,1.3-3.3,2.1-5.5,2.1c-2.2,0-4-0.8-5.3-2.1c-1.3-1.3-2-3.4-2-6
	C372.7,614.3,373.4,612.2,374.7,610.7z M386.6,653c-1.5,1.9-3.6,2.8-6.2,2.8c-2.6,0-4.7-1.1-6.4-3c-1.4-1.9-2.4-4.6-2.4-8.2
	c0,0,0,0.1,0,0.1v-0.2c0,0,0,0.1,0,0.1c0-2.4,0.7-4.8,2.2-7.1c1.3-2.1,3.5-3.2,6.4-3.2c2.6,0,4.7,1.1,6.4,3c1.6,1.9,2.6,4.5,2.6,7.5
	C389.1,648.3,388.2,651.1,386.6,653z"/>
<polygon class="st2" points="607.7,662.9 607.7,603.2 587.7,603.2 617.6,554.6 649.9,603.2 627.5,603.2 627.5,662.9 607.7,662.9 "/>
<polygon class="st2" points="169.8,665.6 169.8,605.9 149.8,605.9 179.7,557.3 212,605.9 189.6,605.9 189.6,665.6 169.8,665.6 "/>
<g>
	<polygon class="st0" points="98.3,235.5 698.3,235.5 698.3,462.5 98.3,462.5 98.3,235.5 	"/>
	<path class="st1" d="M144.3,251.8h508.1c16.3,0,29.7,13.3,29.7,29.7v135.3c0,16.3-13.3,29.7-29.7,29.7H144.3
		c-16.3,0-29.7-13.3-29.7-29.7V281.4C114.6,265.1,128,251.8,144.3,251.8L144.3,251.8z"/>
	<path class="st2" d="M501.7,351.4c4.8-8.4,24.2-8.1,26.9,1.5c6.8-12,29-9.3,29,5.4v39h-16.4v-30.9c0-3,0-9-5.1-9
		c-4.1,0-6.5,5.1-6.5,7.5v32.4h-16.4v-30.9c0-3,0-9-5.1-9c-4.1,0-6.5,5.1-6.5,7.5v32.4h-16.4c0-14.7,0-32.1,0-46.9
		c0-1.2-0.7-2.4-0.7-3.6H501L501.7,351.4L501.7,351.4z"/>
	<polygon class="st2" points="607.7,394.9 607.7,335.2 587.7,335.2 617.6,286.6 649.9,335.2 627.5,335.2 627.5,394.9 607.7,394.9 	
		"/>
	<polygon class="st2" points="169.8,397.6 169.8,337.9 149.8,337.9 179.7,289.3 212,337.9 189.6,337.9 189.6,397.6 169.8,397.6 	"/>
	<path class="st2" d="M256.4,368.2l16.8-2.1c0.3,4.5,1.8,8.2,3.9,10.4c2.1,2.1,5.2,3.5,8.4,3.5c3.1,0,6.3-1.3,8.7-4
		c2.4-2.7,3.7-6.6,3.7-11.4c0-4.5-1-8.2-3.1-10.9c-2.1-2.7-5-4-8.1-4c-1.8,0-4.5,0.5-7.1,1.3l1.6-14.1c4.2,0,7.9-0.8,10-2.9
		c2.4-2.1,3.7-5.1,3.7-8.8c0-2.9-1.1-5.6-2.6-7.2c-1.6-1.9-4.2-2.9-6.8-2.9c-2.6,0-5.2,1.1-7.1,3.2c-1.8,2.1-3.1,5.3-3.4,9
		l-16.3-2.7c1-5.6,2.6-10.4,4.7-13.6c2.1-3.2,5.5-6.1,9.2-8c3.9-1.9,8.4-2.9,13.1-2.9c8.4,0,15.2,2.9,20.2,8.5
		c4.2,4.3,6.3,9.6,6.3,15.2c0,8-4.5,14.6-13.1,19.4c5.2,1.1,9.4,3.7,12.6,7.4c3.1,4,4.7,9,4.7,14.6c0,8-2.9,15.2-8.7,20.7
		c-5.8,5.8-13.1,8.8-21.8,8.8c-7.9,0-15-2.4-20.2-7.2c-5.2-4.8-8.7-11.4-9.2-19.1V368.2L256.4,368.2z"/>
	<path class="st2" d="M448.6,310c-4.7-6.4-11.8-9.8-20.7-9.8c-8.9,0-16,3.2-21,9.6c-5.8,7.4-8.9,20.2-8.9,37.8
		c0,17.6,2.9,30.1,8.1,37c5.2,6.9,12.9,10.4,21.8,10.4c8.9,0,16-3.2,20.7-9.3c6-7.4,9.2-20.2,9.2-37.8
		C457.8,330.2,454.7,317.5,448.6,310z M437.6,370.7c-1,3.5-2.6,6.1-4.2,7.4c-1.6,1.1-3.4,1.9-5.5,1.9c-2.1,0-4.5-0.8-6-2.1
		c-1.6-1.1-2.9-4-3.9-8c-1-3.7-1.6-11.4-1.6-22.1c0-10.6,0.8-18.6,1.8-23.1c0.8-3.5,2.4-6.1,3.9-7.4c1.6-1.3,3.7-2.1,5.8-2.1
		c2.1,0,4.2,0.8,5.8,2.1c1.6,1.3,3.1,4.3,4.2,8.2c1,4,1.6,11.7,1.6,22.3C439.5,358.4,438.7,366.4,437.6,370.7z"/>
	<path class="st2" d="M382.8,352.3c-2.6-3.7-6.6-6.9-11.5-8.8c3.9-1.6,7.3-4.5,9.4-7.7c2.1-3.2,3.1-7.2,3.1-11.4
		c0-6.9-2.6-13-7.3-17.6c-4.7-4.3-11.5-6.6-19.9-6.6c-8.7,0-15.5,2.4-20.2,6.9c-4.7,4.3-7.1,10.4-7.1,17.3c0,3.7,1,7.7,3.1,11.2
		c1.8,3.2,5.2,6.1,10,7.7v0.3c-5.2,2.1-9.2,5.6-11.5,9.8c-2.4,4-3.7,8.8-3.7,13.6c0,9,3.4,16.2,9.7,21.5c5.2,4.3,12.3,6.4,20.5,6.4
		c8.9,0,16.3-2.7,21.5-8c5.2-5.3,8.1-12.2,8.1-20.7C387,361.1,385.4,356.3,382.8,352.3z M348.9,317.2c1.8-2.1,4.7-3.2,7.9-3.2
		s5.8,1.1,7.9,3.2c1.8,2.1,2.9,5.1,2.9,8.2c0,3.5-1,6.4-3.1,8.5c-1.8,1.9-4.7,2.9-7.9,2.9s-5.8-1.1-7.6-2.9
		c-1.8-1.9-2.9-4.8-2.9-8.5C346.1,322.3,347.1,319.3,348.9,317.2z M366,377c-2.1,2.7-5.2,4-8.9,4s-6.8-1.6-9.2-4.3
		c-2.1-2.6-3.4-6.6-3.4-11.6c0,0,0,0.1,0,0.1v-0.3c0,0,0,0.1,0,0.1c0-3.4,1.1-6.8,3.1-10c1.8-2.9,5-4.5,9.2-4.5
		c3.7,0,6.8,1.6,9.2,4.3c2.4,2.7,3.7,6.4,3.7,10.6C369.7,370.4,368.4,374.4,366,377z"/>
</g>
<g>
	<path d="M861.1,387.4h-17l-6.8-17.6h-30.9l-6.4,17.6h-16.6l30.1-77.3h16.5L861.1,387.4z M832.4,356.8l-10.7-28.7l-10.4,28.7H832.4z
		"/>
</g>
<g>
	<path d="M791.6,579.9h30.9c6.1,0,10.7,0.3,13.7,0.8s5.7,1.6,8.1,3.2s4.4,3.8,5.9,6.5s2.4,5.7,2.4,9c0,3.6-1,6.9-2.9,10
		s-4.6,5.3-7.9,6.8c4.7,1.4,8.3,3.7,10.9,7s3.8,7.2,3.8,11.7c0,3.5-0.8,6.9-2.5,10.3s-3.9,6-6.7,8c-2.8,2-6.3,3.2-10.5,3.7
		c-2.6,0.3-8.9,0.5-18.8,0.5h-26.3V579.9z M807.3,592.8v17.9h10.2c6.1,0,9.9-0.1,11.3-0.3c2.7-0.3,4.8-1.2,6.3-2.8s2.3-3.5,2.3-6
		c0-2.4-0.7-4.3-2-5.8s-3.3-2.4-5.9-2.7c-1.5-0.2-6-0.3-13.3-0.3H807.3z M807.3,623.5v20.7h14.4c5.6,0,9.2-0.2,10.7-0.5
		c2.3-0.4,4.2-1.5,5.7-3.1c1.5-1.6,2.2-3.8,2.2-6.6c0-2.3-0.6-4.3-1.7-5.9c-1.1-1.6-2.8-2.8-4.9-3.5c-2.1-0.7-6.7-1.1-13.8-1.1
		H807.3z"/>
</g>
</svg>
