<?xml version="1.0" encoding="utf-8"?>
<!-- Generator: Adobe Illustrator 19.2.0, SVG Export Plug-In . SVG Version: 6.00 Build 0)  -->
<svg version="1.1" id="Livello_1" xmlns="http://www.w3.org/2000/svg" xmlns:xlink="http://www.w3.org/1999/xlink" x="0px" y="0px"
	 viewBox="0 0 960 960" style="enable-background:new 0 0 960 960;" xml:space="preserve">
<style type="text/css">
	.st0{opacity:1.000000e-002;fill:#FFFFFF;}
	.st1{fill:#FFFFFF;stroke:#1A171B;stroke-width:1.2748;stroke-miterlimit:2.6131;}
	.st2{fill:none;stroke:#1A171B;stroke-width:8.4987;stroke-miterlimit:2.6131;}
	.st3{fill-rule:evenodd;clip-rule:evenodd;fill:#1A171B;}
</style>
<rect class="st0" width="1" height="1"/>
<rect x="959" y="959" class="st0" width="1" height="1"/>
<polygon class="st1" points="780,338.8 180,338.8 180,621.2 780,621.2 780,338.8 "/>
<path class="st2" d="M238.5,359.4h483.1c22.4,0,40.8,18.4,40.8,40.8v160.4c0,22.4-18.4,40.8-40.8,40.8H238.5
	c-22.4,0-40.8-18.4-40.8-40.8V400.3C197.7,377.8,216.1,359.4,238.5,359.4L238.5,359.4z"/>
<path class="st3" d="M559.5,514.9V534H479c0.7-7.1,3.4-14.2,7.5-20.3c4.4-6.5,13.3-15.1,26.3-25.5c10.2-8.6,17.1-14.5,19.1-17.5
	c3.4-4.3,5.1-8.6,5.1-12.6c0-4.6-1.4-8.3-4.1-10.8c-2.7-2.5-7.2-3.7-11.9-3.7c-4.8,0-9.2,1.2-11.9,3.7c-2.7,2.5-4.8,6.8-4.8,12.3
	l-22.5-1.8c1.4-11.1,5.8-19.1,12.6-24c7.2-4.9,16.4-7.4,27-7.4c11.6,0,21.2,3.1,28,8.6c6.8,5.5,10.2,12.9,10.2,21.5
	c0,4.6-1,9.2-3.1,13.5c-2.1,4.3-5.1,9.2-9.2,13.8c-2.7,3.1-8.2,7.7-15.4,13.5c-7.5,5.8-12.3,9.8-14,11.7c-2,1.8-3.8,4-4.8,5.8H559.5
	L559.5,514.9z"/>
<path class="st3" d="M640,494.6v-68.3h-19.8l-50.5,68.6v17.5h47.8V534H640v-21.5h15v-17.9H640z M617.5,494.6h-26.6l26.6-35.7V494.6z
	"/>
<polygon class="st3" points="417.6,497.7 417.6,477.4 453.3,477.4 453.3,497.7 417.6,497.7 "/>
<path class="st3" d="M372,437.6c-6.1-7.4-15.4-11.4-27-11.4c-11.6,0-20.8,3.7-27.3,11.1c-7.5,8.6-11.6,23.4-11.6,43.7
	c0,20.3,3.8,34.8,10.6,42.8c6.8,8,16.7,12,28.3,12c11.6,0,20.8-3.7,27-10.8c7.8-8.6,11.9-23.4,11.9-43.7
	C384,461,379.9,446.3,372,437.6z M357.7,507.8c-1.4,4-3.4,7.1-5.5,8.6c-2,1.2-4.4,2.2-7.2,2.2c-2.7,0-5.8-0.9-7.8-2.5
	c-2-1.2-3.8-4.6-5.1-9.2c-1.4-4.3-2-13.2-2-25.5c0-12.3,1-21.5,2.4-26.8c1-4,3.1-7.1,5.1-8.6c2-1.5,4.8-2.5,7.5-2.5
	c2.7,0,5.5,0.9,7.5,2.5c2,1.5,4.1,4.9,5.5,9.5c1.4,4.6,2,13.5,2,25.9C360.1,493.7,359.1,502.9,357.7,507.8z"/>
</svg>
