<?xml version="1.0" encoding="utf-8"?>
<!-- Generator: Adobe Illustrator 19.2.0, SVG Export Plug-In . SVG Version: 6.00 Build 0)  -->
<svg version="1.1" id="Livello_1" xmlns="http://www.w3.org/2000/svg" xmlns:xlink="http://www.w3.org/1999/xlink" x="0px" y="0px"
	 viewBox="0 0 960 960" style="enable-background:new 0 0 960 960;" xml:space="preserve">
<style type="text/css">
	.st0{opacity:1.000000e-002;fill:#FFFFFF;}
	.st1{fill:#FFFFFF;stroke:#1A171B;stroke-width:1.2748;stroke-miterlimit:2.6131;}
	.st2{fill:none;stroke:#1A171B;stroke-width:8.4987;stroke-miterlimit:2.6131;}
	.st3{fill-rule:evenodd;clip-rule:evenodd;fill:#1A171B;}
</style>
<rect class="st0" width="1" height="1"/>
<rect x="959" y="959" class="st0" width="1" height="1"/>
<polygon class="st1" points="780,338.8 180,338.8 180,621.2 780,621.2 780,338.8 "/>
<path class="st2" d="M238.5,359.4h483.1c22.4,0,40.8,18.4,40.8,40.8v160.4c0,22.4-18.4,40.8-40.8,40.8H238.5
	c-22.4,0-40.8-18.4-40.8-40.8V400.3C197.7,377.8,216.1,359.4,238.5,359.4L238.5,359.4z"/>
<path class="st3" d="M527.7,533H512v-79.3c-5.7,6.9-12.8,12.6-20.4,15.7v-18.9c3.8-1.6,8.3-5,13.1-10.1c4.8-5,8.3-11,10.2-17.6h12.8
	V533L527.7,533z"/>
<path class="st3" d="M322.8,513.1l10.5-1.7c0.2,3.7,1.1,6.7,2.5,8.5c1.3,1.7,3.3,2.8,5.2,2.8c2,0,3.9-1.1,5.4-3.3
	c1.5-2.2,2.3-5.4,2.3-9.3c0-3.7-0.7-6.7-2-8.9c-1.3-2.2-3.1-3.3-5.1-3.3c-1.1,0-2.8,0.4-4.4,1.1l1-11.5c2.6,0,4.9-0.6,6.2-2.4
	c1.5-1.7,2.3-4.1,2.3-7.2c0-2.4-0.7-4.6-1.6-5.9c-1-1.5-2.6-2.4-4.3-2.4c-1.6,0-3.3,0.9-4.4,2.6c-1.1,1.7-2,4.3-2.1,7.4l-10.2-2.2
	c0.7-4.6,1.6-8.5,2.9-11.1c1.3-2.6,3.4-5,5.7-6.5c2.5-1.5,5.2-2.4,8.2-2.4c5.2,0,9.5,2.4,12.6,6.9c2.6,3.5,3.9,7.8,3.9,12.4
	c0,6.5-2.8,11.9-8.2,15.8c3.3,0.9,5.9,3,7.9,6.1c2,3.3,2.9,7.4,2.9,11.9c0,6.5-1.8,12.4-5.4,16.9c-3.6,4.8-8.2,7.2-13.6,7.2
	c-4.9,0-9.3-2-12.6-5.9c-3.3-3.9-5.4-9.3-5.7-15.6V513.1L322.8,513.1z"/>
<path class="st3" d="M245.7,444.2v-19.5h54.2v15.1c-4.5,5.7-9.3,14.5-13.8,25.2c-4.8,11-8.3,23-10.7,34.9
	c-2.4,12.3-3.6,23.6-3.6,33.1h-15.7c0-15.1,2.6-30.5,7.1-46.3c4.5-15.7,10.7-29.9,18.1-42.5H245.7L245.7,444.2z"/>
<path class="st3" d="M708.4,465.6c-2.9-5.2-7.4-8-12.9-8c-5.6,0-10,2.6-13.1,7.8c-3.6,6.1-5.6,16.5-5.6,30.8
	c0,14.3,1.8,24.5,5.1,30.2c3.3,5.6,8,8.5,13.6,8.5c5.6,0,10-2.6,12.9-7.6c3.8-6.1,5.7-16.5,5.7-30.8
	C714.1,482.1,712.2,471.7,708.4,465.6z M701.5,515.1c-0.7,2.8-1.6,5-2.6,6.1c-1,0.9-2.1,1.5-3.4,1.5c-1.3,0-2.8-0.7-3.8-1.7
	c-1-0.9-1.8-3.3-2.5-6.5c-0.7-3-1-9.3-1-18c0-8.7,0.5-15.2,1.1-18.9c0.5-2.8,1.5-5,2.5-6.1c1-1.1,2.3-1.7,3.6-1.7
	c1.3,0,2.6,0.7,3.6,1.7c1,1.1,2,3.5,2.6,6.7c0.7,3.3,1,9.5,1,18.2C702.7,505.1,702.2,511.6,701.5,515.1z"/>
<path class="st3" d="M664.2,465.6c-2.9-5.2-7.4-8-12.9-8c-5.6,0-10,2.6-13.1,7.8c-3.6,6.1-5.6,16.5-5.6,30.8
	c0,14.3,1.8,24.5,5.1,30.2c3.3,5.6,8,8.5,13.6,8.5c5.6,0,10-2.6,12.9-7.6c3.8-6.1,5.7-16.5,5.7-30.8
	C669.9,482.1,667.9,471.7,664.2,465.6z M657.3,515.1c-0.7,2.8-1.6,5-2.6,6.1c-1,0.9-2.1,1.5-3.4,1.5c-1.3,0-2.8-0.7-3.8-1.7
	c-1-0.9-1.8-3.3-2.5-6.5c-0.7-3-1-9.3-1-18c0-8.7,0.5-15.2,1.1-18.9c0.5-2.8,1.5-5,2.5-6.1c1-1.1,2.3-1.7,3.6-1.7
	c1.3,0,2.6,0.7,3.6,1.7c1,1.1,2,3.5,2.6,6.7c0.7,3.3,1,9.5,1,18.2C658.4,505.1,657.9,511.6,657.3,515.1z"/>
<path class="st3" d="M597.6,435.7c-5.2-8.5-12.4-12.9-20.7-12.9c-7.6,0-14.3,3.5-19,10.4c-4.7,6.6-7.4,15.7-7.4,26.8
	c0,10.7,2.4,19.5,7.1,26.1c4.5,6.3,10.2,9.8,16.6,9.8c5.9,0,11.2-3.1,15-9.1c-0.5,12.6-2.1,21.1-4.3,24.9c-2.1,3.8-5,5.7-8.3,5.7
	c-2.4,0-4.8-0.9-6.2-2.8c-1.4-1.9-2.6-5-2.9-9.1l-15.2,2.2c1,9.1,3.8,16.4,7.6,20.8c3.8,4.4,9.3,6.6,15.5,6.6
	c8.8,0,16.2-4.4,21.9-13.2c5.5-8.8,8.3-23.3,8.3-43.4C605.6,458.7,602.8,444.2,597.6,435.7z M588.1,462.1c0,6-1.2,10.7-3.3,13.8
	c-1.9,3.2-4.8,4.7-7.6,4.7c-3.1,0-5.9-1.9-7.8-5c-1.9-3.1-3.1-8.5-3.1-15.4c0-6.9,1-12,2.9-15.1c1.9-3.2,4.3-4.7,7.1-4.7
	c3.1,0,5.9,1.9,8.3,5.7c2.4,3.8,3.6,9.1,3.6,15.7V462.1z"/>
<polygon class="st3" points="439.9,512.2 439.9,498.9 466.1,498.9 466.1,512.2 439.9,512.2 "/>
<path class="st3" d="M398.6,465.6c-2.9-5.2-7.4-8-12.9-8c-5.6,0-10,2.6-13.1,7.8c-3.6,6.1-5.6,16.5-5.6,30.8
	c0,14.3,1.8,24.5,5.1,30.2c3.3,5.6,8,8.5,13.6,8.5c5.6,0,10-2.6,12.9-7.6c3.8-6.1,5.7-16.5,5.7-30.8
	C404.4,482.1,402.4,471.7,398.6,465.6z M391.7,515.1c-0.7,2.8-1.6,5-2.6,6.1c-1,0.9-2.1,1.5-3.4,1.5c-1.3,0-2.8-0.7-3.8-1.7
	c-1-0.9-1.8-3.3-2.5-6.5c-0.7-3-1-9.3-1-18c0-8.7,0.5-15.2,1.1-18.9c0.5-2.8,1.5-5,2.5-6.1c1-1.1,2.3-1.7,3.6-1.7
	c1.3,0,2.6,0.7,3.6,1.7c1,1.1,2,3.5,2.6,6.7c0.7,3.3,1,9.5,1,18.2C392.9,505.1,392.4,511.6,391.7,515.1z"/>
<path class="st3" d="M608.4,535.9c-1.3-0.4-2.3-1.1-3-2.1c-0.7-1.1-1.1-2.3-1.1-3.7c0-1.9,0.7-3.5,2.2-4.9c1.5-1.4,3.2-2,5.3-2
	c2.4,0,4.4,0.8,5.8,2.3c1.4,1.5,2.1,3.5,2.1,6.1c0,4.1-1.5,7.6-4.4,10.7c-3,3.1-6.7,5-11.4,5.7v-2.3c1.5-1.5,2.7-3.1,3.4-4.6
	c0.8-1.5,1.1-3,1.1-4.5V535.9L608.4,535.9z"/>
<path class="st3" d="M295.6,535.9c-1.3-0.4-2.3-1.1-3-2.1c-0.7-1.1-1.1-2.3-1.1-3.7c0-1.9,0.7-3.5,2.2-4.9c1.5-1.4,3.2-2,5.3-2
	c2.4,0,4.4,0.8,5.8,2.3c1.4,1.5,2.2,3.5,2.2,6.1c0,4.1-1.5,7.6-4.4,10.7c-3,3.1-6.7,5-11.4,5.7v-2.3c1.5-1.5,2.7-3.1,3.4-4.6
	c0.8-1.5,1.1-3,1.1-4.5V535.9L295.6,535.9z"/>
</svg>
