<?xml version="1.0" encoding="utf-8"?>
<!-- Generator: Adobe Illustrator 19.2.0, SVG Export Plug-In . SVG Version: 6.00 Build 0)  -->
<svg version="1.1" id="Livello_1" xmlns="http://www.w3.org/2000/svg" xmlns:xlink="http://www.w3.org/1999/xlink" x="0px" y="0px"
	 viewBox="0 0 960 960" style="enable-background:new 0 0 960 960;" xml:space="preserve">
<style type="text/css">
	.st0{opacity:1.000000e-002;fill:#FFFFFF;}
	.st1{fill:#FFFFFF;stroke:#1A171B;stroke-width:1.1838;stroke-miterlimit:2.6131;}
	.st2{fill-rule:evenodd;clip-rule:evenodd;fill:#1A171B;}
	.st3{fill:none;stroke:#1A171B;stroke-width:7.8917;stroke-miterlimit:2.6131;}
</style>
<rect class="st0" width="1" height="1"/>
<rect x="959" y="959" class="st0" width="1" height="1"/>
<polygon class="st1" points="180,348.9 780,348.9 780,611.1 180,611.1 180,348.9 "/>
<path class="st2" d="M632.7,523.5c-1.1-0.3-1.9-1-2.5-2c-0.6-1-0.9-2.1-0.9-3.5c0-1.8,0.6-3.3,1.8-4.6c1.2-1.3,2.6-1.9,4.3-1.9
	c2,0,3.6,0.7,4.7,2.1c1.2,1.4,1.8,3.3,1.8,5.7c0,3.8-1.2,7.1-3.6,10c-2.4,2.9-5.5,4.6-9.3,5.3v-2.1c1.2-1.4,2.2-2.8,2.8-4.2
	c0.6-1.4,0.9-2.8,0.9-4.2V523.5L632.7,523.5z"/>
<path class="st2" d="M376.3,523.3c-1.1-0.3-1.9-1-2.5-2c-0.6-1-0.9-2.1-0.9-3.5c0-1.8,0.6-3.3,1.8-4.6c1.2-1.3,2.6-1.9,4.3-1.9
	c2,0,3.6,0.7,4.7,2.1c1.2,1.4,1.8,3.3,1.8,5.7c0,3.8-1.2,7.1-3.6,10c-2.4,2.9-5.5,4.6-9.3,5.3v-2.1c1.2-1.4,2.2-2.8,2.8-4.2
	c0.6-1.4,0.9-2.8,0.9-4.2V523.3L376.3,523.3z"/>
<polygon class="st2" points="252.9,534 252.9,470.7 233.6,470.7 233.4,454.7 252.9,454.5 252.9,430 266.3,430 266.3,454.5 
	285.4,454.5 285.4,470.5 266.7,470.5 266.7,534 252.9,534 "/>
<path class="st3" d="M230.1,368.1h498.9c18.6,0,33.8,15.2,33.8,33.8v156.7c0,18.6-15.2,33.8-33.8,33.8H230.1
	c-18.6,0-33.8-15.2-33.8-33.8V401.8C196.3,383.3,211.5,368.1,230.1,368.1L230.1,368.1z"/>
<path class="st2" d="M579.5,508.6v14h-41c0.3-5.2,1.7-10.4,3.8-14.9c2.3-4.7,6.8-11.1,13.4-18.7c5.2-6.3,8.7-10.6,9.7-12.9
	c1.7-3.2,2.6-6.3,2.6-9.3c0-3.4-0.7-6.1-2.1-7.9c-1.4-1.8-3.6-2.7-6.1-2.7c-2.4,0-4.7,0.9-6.1,2.7c-1.4,1.8-2.4,5-2.4,9l-11.5-1.4
	c0.7-8.1,2.9-14,6.4-17.6c3.6-3.6,8.3-5.4,13.7-5.4c5.9,0,10.8,2.3,14.2,6.3c3.5,4.1,5.2,9.5,5.2,15.8c0,3.4-0.5,6.8-1.6,9.9
	c-1,3.2-2.6,6.8-4.7,10.2c-1.4,2.3-4.2,5.6-7.8,9.9c-3.8,4.3-6.2,7.2-7.1,8.6c-1,1.4-1.9,2.9-2.4,4.3H579.5L579.5,508.6z"/>
<polygon class="st2" points="490.3,500.5 490.3,486.9 513.2,486.9 513.2,500.5 490.3,500.5 "/>
<path class="st2" d="M720.3,469.3c-2.6-4.1-6.5-6.4-11.4-6.4c-4.9,0-8.8,2.1-11.6,6.2c-3.2,4.8-4.9,13.1-4.9,24.4
	c0,11.3,1.6,19.4,4.5,23.9c2.9,4.5,7.1,6.7,12,6.7c4.9,0,8.8-2.1,11.4-6c3.3-4.8,5.1-13.1,5.1-24.4
	C725.4,482.4,723.6,474.1,720.3,469.3z M714.2,508.5c-0.6,2.2-1.4,4-2.3,4.8c-0.9,0.7-1.9,1.2-3,1.2c-1.2,0-2.5-0.5-3.3-1.4
	c-0.9-0.7-1.6-2.6-2.2-5.2c-0.6-2.4-0.9-7.4-0.9-14.3c0-6.9,0.4-12,1-15c0.4-2.2,1.3-4,2.2-4.8c0.9-0.9,2-1.4,3.2-1.4
	c1.2,0,2.3,0.5,3.2,1.4c0.9,0.9,1.7,2.7,2.3,5.3c0.6,2.6,0.9,7.6,0.9,14.4C715.2,500.6,714.8,505.7,714.2,508.5z"/>
<path class="st2" d="M681.2,469.3c-2.6-4.1-6.5-6.4-11.4-6.4c-4.9,0-8.8,2.1-11.6,6.2c-3.2,4.8-4.9,13.1-4.9,24.4
	c0,11.3,1.6,19.4,4.5,23.9c2.9,4.5,7.1,6.7,12,6.7c4.9,0,8.8-2.1,11.4-6c3.3-4.8,5.1-13.1,5.1-24.4
	C686.3,482.4,684.5,474.1,681.2,469.3z M675.1,508.5c-0.6,2.2-1.4,4-2.3,4.8c-0.9,0.7-1.9,1.2-3,1.2c-1.2,0-2.5-0.5-3.3-1.4
	c-0.9-0.7-1.6-2.6-2.2-5.2c-0.6-2.4-0.9-7.4-0.9-14.3c0-6.9,0.4-12,1-15c0.4-2.2,1.3-4,2.2-4.8c0.9-0.9,2-1.4,3.2-1.4
	c1.2,0,2.3,0.5,3.2,1.4c0.9,0.9,1.7,2.7,2.3,5.3c0.6,2.6,0.9,7.6,0.9,14.4C676.1,500.6,675.7,505.7,675.1,508.5z"/>
<path class="st2" d="M620.3,452c-3.1-5.4-7.8-8.3-13.7-8.3c-5.9,0-10.6,2.7-13.9,8.1c-3.8,6.3-5.9,17.1-5.9,32
	c0,14.9,1.9,25.5,5.4,31.4c3.5,5.9,8.5,8.8,14.4,8.8c5.9,0,10.6-2.7,13.7-7.9c4-6.3,6.1-17.1,6.1-32
	C626.4,469.1,624.3,458.3,620.3,452z M613,503.4c-0.7,2.9-1.7,5.2-2.8,6.3c-1,0.9-2.3,1.6-3.6,1.6c-1.4,0-2.9-0.7-4-1.8
	c-1-0.9-1.9-3.4-2.6-6.8c-0.7-3.2-1-9.7-1-18.7c0-9,0.5-15.8,1.2-19.6c0.5-2.9,1.6-5.2,2.6-6.3c1-1.1,2.4-1.8,3.8-1.8
	c1.4,0,2.8,0.7,3.8,1.8c1,1.1,2.1,3.6,2.8,7c0.7,3.4,1,9.9,1,19C614.2,493,613.7,499.8,613,503.4z"/>
<path class="st2" d="M462,468.9c-2.6-4.1-6.5-6.4-11.4-6.4c-4.9,0-8.8,2.1-11.6,6.2c-3.2,4.8-4.9,13.1-4.9,24.4
	c0,11.3,1.6,19.4,4.5,23.9c2.9,4.5,7.1,6.7,12,6.7c4.9,0,8.8-2.1,11.4-6c3.3-4.8,5.1-13.1,5.1-24.4
	C467.1,481.9,465.4,473.7,462,468.9z M455.9,508.1c-0.6,2.2-1.4,4-2.3,4.8c-0.9,0.7-1.9,1.2-3,1.2c-1.2,0-2.5-0.5-3.3-1.4
	c-0.9-0.7-1.6-2.6-2.2-5.2c-0.6-2.4-0.9-7.4-0.9-14.3c0-6.9,0.4-12,1-15c0.4-2.2,1.3-4,2.2-4.8c0.9-0.9,2-1.4,3.2-1.4
	c1.2,0,2.3,0.5,3.2,1.4c0.9,0.9,1.7,2.7,2.3,5.3c0.6,2.6,0.9,7.6,0.9,14.4C457,500.2,456.5,505.3,455.9,508.1z"/>
<path class="st2" d="M422.9,468.9c-2.6-4.1-6.5-6.4-11.4-6.4c-4.9,0-8.8,2.1-11.6,6.2c-3.2,4.8-4.9,13.1-4.9,24.4
	c0,11.3,1.6,19.4,4.5,23.9c2.9,4.5,7.1,6.7,12,6.7c4.9,0,8.8-2.1,11.4-6c3.3-4.8,5.1-13.1,5.1-24.4
	C428,481.9,426.3,473.7,422.9,468.9z M416.9,508.1c-0.6,2.2-1.5,4-2.3,4.8c-0.9,0.7-1.9,1.2-3,1.2c-1.2,0-2.5-0.5-3.3-1.4
	c-0.9-0.7-1.6-2.6-2.2-5.2c-0.6-2.4-0.9-7.4-0.9-14.3c0-6.9,0.4-12,1-15c0.4-2.2,1.3-4,2.2-4.8c0.9-0.9,2-1.4,3.2-1.4
	c1.2,0,2.3,0.5,3.2,1.4c0.9,0.9,1.7,2.7,2.3,5.3c0.6,2.6,0.9,7.6,0.9,14.4C417.9,500.2,417.4,505.3,416.9,508.1z"/>
<path class="st2" d="M368.2,487.8c-1.7-3.2-4.3-5.9-7.6-7.4c2.6-1.4,4.9-3.8,6.2-6.5c1.4-2.7,2.1-6.1,2.1-9.7
	c0-5.9-1.7-11.1-4.9-14.9c-3.1-3.6-7.6-5.6-13.2-5.6c-5.7,0-10.2,2-13.4,5.9c-3.1,3.6-4.7,8.8-4.7,14.7c0,3.2,0.7,6.5,2.1,9.5
	c1.2,2.7,3.5,5.2,6.6,6.5v0.2c-3.5,1.8-6.1,4.7-7.6,8.3c-1.6,3.4-2.4,7.4-2.4,11.5c0,7.7,2.3,13.8,6.4,18.3
	c3.5,3.6,8.2,5.4,13.5,5.4c5.9,0,10.8-2.3,14.2-6.8c3.5-4.5,5.4-10.4,5.4-17.6C370.9,495.3,369.9,491.2,368.2,487.8z M345.8,458
	c1.2-1.8,3.1-2.7,5.2-2.7c2.1,0,3.8,0.9,5.2,2.7c1.2,1.8,1.9,4.3,1.9,7c0,2.9-0.7,5.4-2.1,7.2c-1.2,1.6-3.1,2.5-5.2,2.5
	s-3.8-0.9-5-2.5c-1.2-1.6-1.9-4.1-1.9-7.2C343.9,462.3,344.6,459.8,345.8,458z M357.1,508.8c-1.4,2.3-3.5,3.4-5.9,3.4
	c-2.4,0-4.5-1.4-6.1-3.6c-1.4-2.2-2.2-5.6-2.3-9.8c0,0,0,0.1,0,0.1v-0.2c0,0,0,0.1,0,0.1c0-2.9,0.7-5.8,2.1-8.5
	c1.2-2.5,3.3-3.8,6.1-3.8c2.4,0,4.5,1.4,6.1,3.6c1.6,2.3,2.4,5.4,2.4,9C359.5,503.2,358.6,506.5,357.1,508.8z"/>
</svg>
