<?xml version="1.0" encoding="utf-8"?>
<!-- Generator: Adobe Illustrator 19.2.0, SVG Export Plug-In . SVG Version: 6.00 Build 0)  -->
<svg version="1.1" id="Livello_1" xmlns="http://www.w3.org/2000/svg" xmlns:xlink="http://www.w3.org/1999/xlink" x="0px" y="0px"
	 viewBox="0 0 960 960" style="enable-background:new 0 0 960 960;" xml:space="preserve">
<style type="text/css">
	.st0{opacity:1.000000e-002;fill:#FFFFFF;}
	.st1{fill:#FFFFFF;stroke:#1A171B;stroke-width:1.1838;stroke-miterlimit:2.6131;}
	.st2{fill-rule:evenodd;clip-rule:evenodd;fill:#1A171B;}
	.st3{fill:none;stroke:#1A171B;stroke-width:7.8917;stroke-miterlimit:2.6131;}
</style>
<rect class="st0" width="1" height="1"/>
<rect x="959" y="959" class="st0" width="1" height="1"/>
<polygon class="st1" points="180,348.9 780,348.9 780,611.1 180,611.1 180,348.9 "/>
<path class="st2" d="M634.1,523.5c-1-0.3-1.9-1-2.4-2c-0.6-1-0.9-2.1-0.9-3.5c0-1.8,0.6-3.3,1.8-4.6c1.2-1.3,2.6-1.9,4.3-1.9
	c2,0,3.5,0.7,4.7,2.1c1.2,1.4,1.7,3.3,1.7,5.7c0,3.8-1.2,7.1-3.6,10c-2.4,2.9-5.4,4.6-9.2,5.3v-2.1c1.2-1.4,2.2-2.8,2.8-4.2
	c0.6-1.4,0.9-2.8,0.9-4.2V523.5L634.1,523.5z"/>
<path class="st2" d="M381.2,523.3c-1-0.3-1.9-1-2.4-2c-0.6-1-0.9-2.1-0.9-3.5c0-1.8,0.6-3.3,1.7-4.6c1.2-1.3,2.6-1.9,4.3-1.9
	c2,0,3.5,0.7,4.7,2.1c1.2,1.4,1.7,3.3,1.7,5.7c0,3.8-1.2,7.1-3.6,10c-2.4,2.9-5.4,4.6-9.2,5.3v-2.1c1.2-1.4,2.2-2.8,2.8-4.2
	c0.6-1.4,0.9-2.8,0.9-4.2V523.3L381.2,523.3z"/>
<path class="st3" d="M230.1,368.1h498.9c18.6,0,33.8,15.2,33.8,33.8v156.7c0,18.6-15.2,33.8-33.8,33.8H230.1
	c-18.6,0-33.8-15.2-33.8-33.8V401.8C196.3,383.3,211.5,368.1,230.1,368.1L230.1,368.1z"/>
<path class="st2" d="M581.6,508.6v14h-40.4c0.3-5.2,1.7-10.4,3.8-14.9c2.2-4.7,6.7-11.1,13.2-18.7c5.1-6.3,8.6-10.6,9.6-12.9
	c1.7-3.2,2.6-6.3,2.6-9.2c0-3.4-0.7-6.1-2.1-7.9c-1.4-1.8-3.6-2.7-6-2.7c-2.4,0-4.6,0.9-6,2.7c-1.4,1.8-2.4,5-2.4,9l-11.3-1.4
	c0.7-8.1,2.9-14,6.3-17.6c3.6-3.6,8.2-5.4,13.5-5.4c5.8,0,10.6,2.3,14,6.3c3.4,4.1,5.1,9.5,5.1,15.8c0,3.4-0.5,6.8-1.5,9.9
	c-1,3.2-2.6,6.8-4.6,10.2c-1.4,2.3-4.1,5.6-7.7,9.9c-3.8,4.3-6.2,7.2-7,8.6c-1,1.4-1.9,2.9-2.4,4.3H581.6L581.6,508.6z"/>
<polygon class="st2" points="493.5,500.5 493.5,486.9 516.1,486.9 516.1,500.5 493.5,500.5 "/>
<path class="st2" d="M720.3,469.3c-2.6-4.1-6.4-6.4-11.3-6.4c-4.9,0-8.7,2.1-11.4,6.2c-3.1,4.8-4.9,13.1-4.9,24.4
	c0,11.3,1.6,19.4,4.4,23.9c2.9,4.5,7,6.7,11.8,6.7c4.8,0,8.7-2.1,11.3-6c3.3-4.8,5-13.1,5-24.4C725.3,482.4,723.6,474.1,720.3,469.3
	z M714.3,508.5c-0.6,2.2-1.4,4-2.3,4.8c-0.9,0.7-1.9,1.2-3,1.2c-1.1,0-2.4-0.5-3.3-1.4c-0.9-0.7-1.6-2.6-2.1-5.2
	c-0.6-2.4-0.9-7.4-0.9-14.3c0-6.9,0.4-12,1-15c0.4-2.2,1.3-4,2.1-4.8c0.9-0.9,2-1.4,3.1-1.4c1.1,0,2.3,0.5,3.1,1.4
	c0.9,0.9,1.7,2.8,2.3,5.3s0.9,7.6,0.9,14.4C715.3,500.6,714.9,505.7,714.3,508.5z"/>
<path class="st2" d="M681.8,469.3c-2.6-4.1-6.4-6.4-11.3-6.4c-4.9,0-8.7,2.1-11.4,6.2c-3.1,4.8-4.9,13.1-4.9,24.4
	c0,11.3,1.6,19.4,4.4,23.9c2.9,4.5,7,6.7,11.8,6.7c4.8,0,8.7-2.1,11.3-6c3.3-4.8,5-13.1,5-24.4C686.7,482.4,685,474.1,681.8,469.3z
	 M675.8,508.5c-0.6,2.2-1.4,4-2.3,4.8c-0.9,0.7-1.9,1.2-3,1.2c-1.1,0-2.4-0.5-3.3-1.4c-0.9-0.7-1.6-2.6-2.1-5.2
	c-0.6-2.4-0.9-7.4-0.9-14.3c0-6.9,0.4-12,1-15c0.4-2.2,1.3-4,2.1-4.8c0.9-0.9,2-1.4,3.1-1.4c1.1,0,2.3,0.5,3.1,1.4
	c0.9,0.9,1.7,2.8,2.3,5.3c0.6,2.6,0.9,7.6,0.9,14.4C676.8,500.6,676.3,505.7,675.8,508.5z"/>
<path class="st2" d="M621.8,452c-3.1-5.4-7.7-8.3-13.5-8.3c-5.8,0-10.4,2.7-13.7,8.1c-3.8,6.3-5.8,17.1-5.8,32
	c0,14.9,1.9,25.5,5.3,31.4c3.4,5.9,8.4,8.8,14.2,8.8c5.8,0,10.4-2.7,13.5-7.9c3.9-6.3,6-17.1,6-32
	C627.8,469.1,625.7,458.3,621.8,452z M614.6,503.4c-0.7,2.9-1.7,5.2-2.7,6.3c-1,0.9-2.2,1.6-3.6,1.6c-1.4,0-2.9-0.7-3.9-1.8
	c-1-0.9-1.9-3.4-2.6-6.8c-0.7-3.2-1-9.7-1-18.7c0-9,0.5-15.8,1.2-19.6c0.5-2.9,1.5-5.2,2.6-6.3c1-1.1,2.4-1.8,3.8-1.8
	c1.4,0,2.7,0.7,3.8,1.8c1,1.1,2.1,3.6,2.7,7c0.7,3.4,1,9.9,1,19C615.8,493,615.3,499.8,614.6,503.4z"/>
<path class="st2" d="M465.9,468.9c-2.6-4.1-6.4-6.4-11.3-6.4c-4.9,0-8.7,2.1-11.4,6.2c-3.1,4.8-4.9,13.1-4.9,24.4
	c0,11.3,1.6,19.4,4.4,23.9c2.9,4.5,7,6.7,11.8,6.7c4.9,0,8.7-2.1,11.3-6c3.3-4.8,5-13.1,5-24.4C470.9,481.9,469.1,473.7,465.9,468.9
	z M459.9,508.1c-0.6,2.2-1.4,4-2.3,4.8c-0.9,0.7-1.9,1.2-3,1.2c-1.1,0-2.4-0.5-3.3-1.4c-0.9-0.7-1.6-2.6-2.1-5.2
	c-0.6-2.4-0.9-7.4-0.9-14.3c0-6.9,0.4-12,1-15c0.4-2.2,1.3-4,2.1-4.8c0.9-0.9,2-1.4,3.1-1.4c1.1,0,2.3,0.5,3.1,1.4
	c0.9,0.9,1.7,2.7,2.3,5.3c0.6,2.6,0.9,7.6,0.9,14.4C460.9,500.2,460.4,505.3,459.9,508.1z"/>
<path class="st2" d="M427.3,468.9c-2.6-4.1-6.4-6.4-11.3-6.4c-4.9,0-8.7,2.1-11.4,6.2c-3.1,4.8-4.9,13.1-4.9,24.4
	c0,11.3,1.6,19.4,4.4,23.9c2.9,4.5,7,6.7,11.8,6.7c4.9,0,8.7-2.1,11.3-6c3.3-4.8,5-13.1,5-24.4C432.3,481.9,430.6,473.7,427.3,468.9
	z M421.3,508.1c-0.6,2.2-1.4,4-2.3,4.8c-0.9,0.7-1.9,1.2-3,1.2c-1.1,0-2.4-0.5-3.3-1.4c-0.9-0.7-1.6-2.6-2.1-5.2
	c-0.6-2.4-0.9-7.4-0.9-14.3c0-6.9,0.4-12,1-15c0.4-2.2,1.3-4,2.1-4.8c0.9-0.9,2-1.4,3.1-1.4c1.1,0,2.3,0.5,3.1,1.4
	c0.9,0.9,1.7,2.7,2.3,5.3c0.6,2.6,0.9,7.6,0.9,14.4C422.3,500.2,421.9,505.3,421.3,508.1z"/>
<path class="st2" d="M373.2,487.8c-1.7-3.2-4.3-5.9-7.5-7.4c2.6-1.4,4.8-3.8,6.2-6.5c1.4-2.7,2.1-6.1,2.1-9.7
	c0-5.9-1.7-11.1-4.8-14.9c-3.1-3.6-7.5-5.6-13-5.6c-5.6,0-10.1,2-13.2,5.9c-3.1,3.6-4.6,8.8-4.6,14.7c0,3.2,0.7,6.5,2.1,9.5
	c1.2,2.7,3.4,5.2,6.5,6.5v0.2c-3.4,1.8-6,4.7-7.5,8.3c-1.5,3.4-2.4,7.4-2.4,11.5c0,7.7,2.2,13.8,6.3,18.3c3.4,3.6,8,5.4,13.3,5.4
	c5.8,0,10.6-2.3,14-6.8c3.4-4.5,5.3-10.4,5.3-17.6C375.9,495.3,374.9,491.2,373.2,487.8z M351.1,458c1.2-1.8,3.1-2.7,5.1-2.7
	c2.1,0,3.8,0.9,5.1,2.7c1.2,1.8,1.9,4.3,1.9,7c0,2.9-0.7,5.4-2.1,7.2c-1.2,1.6-3.1,2.5-5.1,2.5c-2.1,0-3.8-0.9-5-2.5
	c-1.2-1.6-1.9-4.1-1.9-7.2C349.2,462.3,349.9,459.8,351.1,458z M362.2,508.8c-1.4,2.3-3.4,3.4-5.8,3.4c-2.4,0-4.4-1.4-6-3.6
	c-1.4-2.2-2.2-5.6-2.2-9.8c0,0,0,0.1,0,0.1v-0.2c0,0,0,0.1,0,0.1c0-2.9,0.7-5.8,2-8.5c1.2-2.5,3.3-3.8,6-3.8c2.4,0,4.4,1.4,6,3.6
	c1.5,2.3,2.4,5.4,2.4,9C364.6,503.2,363.8,506.5,362.2,508.8z"/>
<polygon class="st2" points="241.1,529.7 231.3,518.6 284.8,458 275,446.9 286.4,434 307.5,458 306,481.8 294.6,469.1 241.1,529.7 
	"/>
<polygon class="st2" points="297.9,529.7 307.7,518.6 254.2,458 264,446.9 252.7,434 231.5,458 233.1,481.8 244.4,469.1 
	297.9,529.7 "/>
</svg>
