<?xml version="1.0" encoding="utf-8"?>
<!-- Generator: Adobe Illustrator 19.2.0, SVG Export Plug-In . SVG Version: 6.00 Build 0)  -->
<svg version="1.1" id="Livello_1" xmlns="http://www.w3.org/2000/svg" xmlns:xlink="http://www.w3.org/1999/xlink" x="0px" y="0px"
	 viewBox="0 0 960 960" style="enable-background:new 0 0 960 960;" xml:space="preserve">
<style type="text/css">
	.st0{opacity:1.000000e-002;fill:#FFFFFF;}
	.st1{fill:#FFFFFF;stroke:#1A171B;stroke-width:1.2748;stroke-miterlimit:2.6131;}
	.st2{fill:none;stroke:#1A171B;stroke-width:8.4987;stroke-miterlimit:2.6131;}
	.st3{fill-rule:evenodd;clip-rule:evenodd;fill:#1A171B;stroke:#1A171B;stroke-width:2.1247;stroke-miterlimit:2.6131;}
	.st4{fill-rule:evenodd;clip-rule:evenodd;fill:#1A171B;stroke:#1A171B;stroke-width:1.2748;stroke-miterlimit:2.6131;}
</style>
<rect class="st0" width="1" height="1"/>
<rect x="959" y="959" class="st0" width="1" height="1"/>
<polygon class="st1" points="780,338.8 180,338.8 180,621.2 780,621.2 780,338.8 "/>
<path class="st2" d="M238.5,359.4h483.1c22.4,0,40.8,18.4,40.8,40.8v160.4c0,22.4-18.4,40.8-40.8,40.8H238.5
	c-22.4,0-40.8-18.4-40.8-40.8V400.3C197.7,377.8,216.1,359.4,238.5,359.4L238.5,359.4z"/>
<path class="st3" d="M419.5,528.9V506h97.1c-11.8,6-13.1,14-14.6,22.9H419.5L419.5,528.9z"/>
<path class="st3" d="M551.8,528.9c0-7.8-3.9-18.2-13.1-22.9h34.2c-8.4,3.1-14.8,15.1-15,22.9H551.8L551.8,528.9z"/>
<path class="st3" d="M608.1,528.9c-0.2-9.1-5.8-19.6-13.3-22.9H665v12l-27.9,10.9H608.1L608.1,528.9z"/>
<polygon class="st3" points="419.5,499.8 419.7,486.2 357.8,486.2 358,413 665.2,413 665.2,499.8 419.5,499.8 "/>
<path class="st3" d="M351.8,492.2v-50.1h-45.5l-14.8,40.9v45.8h7.5c1.5-35.1,48.8-33.1,50.1,0c3,0,5.4,0,7.3,0
	c3-34.9,48.5-33.6,49.8,0h7.5v-36.7H351.8z M346,475.6h-45.5l9-24.5H346V475.6z"/>
<path class="st4" d="M381.2,507.5c-11.4,0-20.6,9.6-20.6,21.4c0,11.8,9.3,21.4,20.6,21.4c11.4,0,20.6-9.6,20.6-21.4
	C401.8,517.1,392.6,507.5,381.2,507.5z M381.2,538c-4.9,0-8.9-4.1-8.9-9.2c0-5.1,4-9.2,8.9-9.2c4.9,0,8.9,4.1,8.9,9.2
	C390,533.9,386.1,538,381.2,538z"/>
<path class="st4" d="M526.8,507.5c-11.4,0-20.6,9.6-20.6,21.4c0,11.8,9.3,21.4,20.6,21.4s20.6-9.6,20.6-21.4
	C547.4,517.1,538.2,507.5,526.8,507.5z M526.8,538c-4.9,0-8.9-4.1-8.9-9.2c0-5.1,4-9.2,8.9-9.2s8.9,4.1,8.9,9.2
	C535.6,533.9,531.7,538,526.8,538z"/>
<path class="st4" d="M582.7,507.5c-11.4,0-20.6,9.6-20.6,21.4c0,11.8,9.3,21.4,20.6,21.4c11.4,0,20.6-9.6,20.6-21.4
	C603.3,517.1,594.1,507.5,582.7,507.5z M582.7,538c-4.9,0-8.9-4.1-8.9-9.2c0-5.1,4-9.2,8.9-9.2c4.9,0,8.9,4.1,8.9,9.2
	C591.6,533.9,587.6,538,582.7,538z"/>
<path class="st4" d="M323.8,507.5c-11.4,0-20.6,9.6-20.6,21.4c0,11.8,9.3,21.4,20.6,21.4c11.4,0,20.6-9.6,20.6-21.4
	C344.4,517.1,335.2,507.5,323.8,507.5z M323.8,538c-4.9,0-8.9-4.1-8.9-9.2c0-5.1,4-9.2,8.9-9.2c4.9,0,8.9,4.1,8.9,9.2
	C332.7,533.9,328.7,538,323.8,538z"/>
</svg>
