<?xml version="1.0" encoding="utf-8"?>
<!-- Generator: Adobe Illustrator 19.2.0, SVG Export Plug-In . SVG Version: 6.00 Build 0)  -->
<svg version="1.1" id="Livello_1" xmlns="http://www.w3.org/2000/svg" xmlns:xlink="http://www.w3.org/1999/xlink" x="0px" y="0px"
	 viewBox="0 0 960 960" style="enable-background:new 0 0 960 960;" xml:space="preserve">
<style type="text/css">
	.st0{opacity:1.000000e-002;fill:#FFFFFF;}
	.st1{fill:#FFFFFF;stroke:#1A171B;stroke-width:1.2748;stroke-miterlimit:2.6131;}
	.st2{fill:none;stroke:#1A171B;stroke-width:8.4987;stroke-miterlimit:2.6131;}
	.st3{fill-rule:evenodd;clip-rule:evenodd;fill:#1A171B;stroke:#1A171B;stroke-width:2.1247;stroke-miterlimit:2.6131;}
	.st4{fill-rule:evenodd;clip-rule:evenodd;fill:#1A171B;stroke:#1A171B;stroke-width:1.2748;stroke-miterlimit:2.6131;}
	.st5{fill-rule:evenodd;clip-rule:evenodd;fill:#1A171B;}
</style>
<rect class="st0" width="1" height="1"/>
<rect x="959" y="959" class="st0" width="1" height="1"/>
<polygon class="st1" points="780,338.8 180,338.8 180,621.2 780,621.2 780,338.8 "/>
<path class="st2" d="M238.5,359.4h483.1c22.4,0,40.8,18.4,40.8,40.8v160.4c0,22.4-18.4,40.8-40.8,40.8H238.5
	c-22.4,0-40.8-18.4-40.8-40.8V400.3C197.7,377.8,216.1,359.4,238.5,359.4L238.5,359.4z"/>
<path class="st3" d="M510.9,552.4v-39.5h108v39.5H610c0-39.5-61.2-40.7-61.2,0H510.9L510.9,552.4z"/>
<path class="st3" d="M337.2,552.4v-39.5h109.4v39.5h-39.5c-0.2-40.9-61.4-40.9-61.2,0H337.2L337.2,552.4z"/>
<path class="st3" d="M275.3,465.1l3.1,39.1h12.2v-30.6h10.1v68.5h-10.1v-29.2h-11.3l3.3,39.5h45.9v-87.5L275.3,465.1z M319.8,542.1
	h-10.1v-68.5h10.1V542.1z"/>
<path class="st3" d="M455.6,464.9v87.5H502v-87.5H455.6z M474.2,542.1l-10.1,0.2v-68.7h10.1V542.1z M483.1,542.1v-68.5h10.4
	l0.2,68.2L483.1,542.1z"/>
<path class="st3" d="M678.9,512.9h-12v29.2h-11.8v-68.5l11.8,0.2v30.4h11.3l-3.3-39.3l-47.3-0.2v87.8h54.6L678.9,512.9z
	 M646.7,542.1h-10.4v-68.7h10.4V542.1z"/>
<path class="st3" d="M337.2,464.6v39.5h109.4v-39.5H337.2z M388.3,495.5h-42.4v-21.9h42.4V495.5z M438,495.5h-41v-21.9h41V495.5z"/>
<path class="st3" d="M618.7,464.6H510.9v39.5h108L618.7,464.6z M560.3,495.5h-40.7v-21.9h40.7V495.5z M610.2,495.5h-40.9v-21.9h40.9
	V495.5z"/>
<path class="st4" d="M376.8,527.5c13.7,0,24.8,11.1,24.8,24.8c0,13.7-11.1,24.8-24.8,24.8c-13.7,0-24.8-11.1-24.8-24.8
	C352,538.7,363.1,527.5,376.8,527.5L376.8,527.5z M376.8,542.7c5.3,0,9.7,4.3,9.7,9.7c0,5.3-4.3,9.7-9.7,9.7c-5.3,0-9.7-4.3-9.7-9.7
	C367.1,547,371.5,542.7,376.8,542.7L376.8,542.7z"/>
<path class="st4" d="M579.6,542.7c5.3,0,9.7,4.3,9.7,9.7c0,5.3-4.3,9.7-9.7,9.7c-5.3,0-9.7-4.3-9.7-9.7
	C569.9,547,574.3,542.7,579.6,542.7L579.6,542.7z M579.6,527.5c13.7,0,24.8,11.1,24.8,24.8c0,13.7-11.1,24.8-24.8,24.8
	c-13.7,0-24.8-11.1-24.8-24.8C554.8,538.7,565.9,527.5,579.6,527.5L579.6,527.5z"/>
<path class="st5" d="M374.9,420.6l10.3,1.7c-1.3,3.7-3.4,6.6-6.3,8.5c-2.9,2-6.4,2.9-10.7,2.9c-6.8,0-11.8-2.2-15.1-6.6
	c-2.6-3.5-3.9-7.9-3.9-13.3c0-6.4,1.7-11.4,5.1-15c3.4-3.6,7.7-5.4,12.9-5.4c5.8,0,10.4,1.9,13.8,5.7c3.4,3.8,5,9.6,4.8,17.4h-25.9
	c0.1,3,0.9,5.4,2.5,7c1.6,1.7,3.6,2.5,6,2.5c1.6,0,3-0.4,4.1-1.3C373.5,423.9,374.4,422.5,374.9,420.6L374.9,420.6z M375.5,410.3
	c-0.1-3-0.8-5.2-2.3-6.7c-1.5-1.5-3.3-2.3-5.4-2.3c-2.3,0-4.1,0.8-5.6,2.4c-1.5,1.6-2.2,3.8-2.2,6.6H375.5L375.5,410.3z"/>
<path class="st5" d="M428.3,405.7l-10.2,1.8c-0.3-2-1.1-3.5-2.3-4.5c-1.2-1-2.8-1.5-4.7-1.5c-2.6,0-4.6,0.9-6.2,2.6
	c-1.5,1.8-2.3,4.7-2.3,8.8c0,4.6,0.8,7.8,2.3,9.7c1.6,1.9,3.6,2.8,6.3,2.8c2,0,3.6-0.5,4.8-1.6c1.3-1.1,2.1-3,2.7-5.7l10.2,1.7
	c-1.1,4.6-3.1,8.1-6.1,10.4c-3,2.3-7,3.5-12,3.5c-5.7,0-10.3-1.8-13.7-5.3c-3.4-3.6-5.1-8.5-5.1-14.8c0-6.3,1.7-11.3,5.1-14.8
	c3.4-3.6,8-5.3,13.9-5.3c4.8,0,8.6,1,11.4,3C425.1,398.5,427.1,401.6,428.3,405.7L428.3,405.7z"/>
<path class="st5" d="M470.3,405.7l-10.2,1.8c-0.3-2-1.1-3.5-2.3-4.5c-1.2-1-2.8-1.5-4.7-1.5c-2.6,0-4.6,0.9-6.2,2.6
	c-1.5,1.8-2.3,4.7-2.3,8.8c0,4.6,0.8,7.8,2.3,9.7c1.6,1.9,3.6,2.8,6.3,2.8c2,0,3.6-0.5,4.8-1.6c1.3-1.1,2.1-3,2.7-5.7l10.2,1.7
	c-1.1,4.6-3.1,8.1-6.1,10.4c-3,2.3-7,3.5-12,3.5c-5.7,0-10.3-1.8-13.7-5.3c-3.4-3.6-5.1-8.5-5.1-14.8c0-6.3,1.7-11.3,5.1-14.8
	c3.4-3.6,8-5.3,13.9-5.3c4.8,0,8.6,1,11.4,3C467,398.5,469.1,401.6,470.3,405.7L470.3,405.7z"/>
<path class="st5" d="M500.8,420.6l10.3,1.7c-1.3,3.7-3.4,6.6-6.3,8.5c-2.9,2-6.4,2.9-10.7,2.9c-6.8,0-11.8-2.2-15.1-6.6
	c-2.6-3.5-3.9-7.9-3.9-13.3c0-6.4,1.7-11.4,5.1-15c3.4-3.6,7.7-5.4,12.9-5.4c5.8,0,10.4,1.9,13.8,5.7c3.4,3.8,5,9.6,4.8,17.4h-25.9
	c0.1,3,0.9,5.4,2.5,7c1.6,1.7,3.6,2.5,6,2.5c1.6,0,3-0.4,4.1-1.3C499.4,423.9,500.2,422.5,500.8,420.6L500.8,420.6z M501.4,410.3
	c-0.1-3-0.8-5.2-2.3-6.7c-1.5-1.5-3.3-2.3-5.4-2.3c-2.3,0-4.1,0.8-5.6,2.4c-1.5,1.6-2.2,3.8-2.2,6.6H501.4L501.4,410.3z"/>
<path class="st5" d="M538,394.3v8.1h-7.1V418c0,3.1,0.1,5,0.2,5.5c0.1,0.5,0.4,0.9,0.9,1.3c0.5,0.3,1.1,0.5,1.7,0.5
	c1,0,2.4-0.3,4.2-1l0.9,7.9c-2.4,1-5.1,1.5-8.2,1.5c-1.9,0-3.5-0.3-5-0.9c-1.5-0.6-2.6-1.4-3.3-2.4c-0.7-1-1.2-2.3-1.5-4
	c-0.2-1.2-0.3-3.6-0.3-7.2v-16.8h-4.8v-8.1h4.8v-7.7l10.4-5.9v13.6H538L538,394.3z"/>
<path class="st5" d="M563.1,394.3v8.1h-7.1V418c0,3.1,0.1,5,0.2,5.5c0.1,0.5,0.4,0.9,0.9,1.3c0.5,0.3,1.1,0.5,1.7,0.5
	c1,0,2.4-0.3,4.2-1l0.9,7.9c-2.4,1-5.1,1.5-8.2,1.5c-1.9,0-3.6-0.3-5-0.9c-1.5-0.6-2.6-1.4-3.3-2.4c-0.7-1-1.2-2.3-1.5-4
	c-0.2-1.2-0.3-3.6-0.3-7.2v-16.8h-4.8v-8.1h4.8v-7.7l10.4-5.9v13.6H563.1L563.1,394.3z"/>
<path class="st5" d="M567.9,413c0-3.4,0.9-6.7,2.5-9.8c1.7-3.2,4.1-5.6,7.2-7.2c3.1-1.7,6.6-2.5,10.4-2.5c5.9,0,10.8,1.9,14.6,5.7
	c3.8,3.8,5.7,8.6,5.7,14.3c0,5.8-1.9,10.6-5.7,14.5c-3.8,3.8-8.6,5.7-14.4,5.7c-3.6,0-7-0.8-10.3-2.4c-3.3-1.6-5.7-3.9-7.4-7
	C568.8,421.2,567.9,417.5,567.9,413L567.9,413z M578.5,413.6c0,3.8,0.9,6.7,2.8,8.8c1.8,2,4.1,3,6.8,3c2.7,0,5-1,6.8-3
	c1.8-2,2.8-5,2.8-8.8c0-3.8-0.9-6.7-2.8-8.7c-1.8-2-4.1-3-6.8-3c-2.7,0-5,1-6.8,3C579.5,406.8,578.5,409.8,578.5,413.6L578.5,413.6z
	"/>
</svg>
