<?xml version="1.0" encoding="utf-8"?>
<!-- Generator: Adobe Illustrator 19.2.0, SVG Export Plug-In . SVG Version: 6.00 Build 0)  -->
<svg version="1.1" id="Livello_1" xmlns="http://www.w3.org/2000/svg" xmlns:xlink="http://www.w3.org/1999/xlink" x="0px" y="0px"
	 viewBox="0 0 960 960" style="enable-background:new 0 0 960 960;" xml:space="preserve">
<style type="text/css">
	.st0{fill:#FFFFFF;stroke:#1A171B;stroke-width:1.1681;stroke-miterlimit:2.6131;}
	.st1{fill:none;stroke:#1A171B;stroke-width:3.8936;stroke-miterlimit:2.6131;}
	.st2{fill-rule:evenodd;clip-rule:evenodd;fill:#1A171B;stroke:#1A171B;stroke-width:1.1681;stroke-miterlimit:2.6131;}
</style>
<g>
	<polygon class="st0" points="242.6,632.5 717.4,632.5 717.4,840 242.6,840 242.6,632.5 	"/>
	<path class="st1" d="M282.2,647.6H677c14.7,0,26.7,12,26.7,26.7v124.1c0,14.7-12,26.7-26.7,26.7H282.2c-14.7,0-26.7-12-26.7-26.7
		V674.4C255.4,659.7,267.5,647.6,282.2,647.6L282.2,647.6z"/>
	<polygon class="st2" points="377.3,803.5 314.2,737 378.3,670.5 405.2,670.5 355.1,724.3 443.8,724.3 443.8,749.4 355.1,749.4 
		407.5,803.5 377.3,803.5 	"/>
	<polygon class="st2" points="582.7,803.5 645.8,737 581.7,670.5 554.8,670.5 604.9,724.3 516.2,724.3 516.2,749.4 604.9,749.4 
		552.5,803.5 582.7,803.5 	"/>
</g>
<g>
	<polygon class="st0" points="450.3,120 450.3,594.9 242.7,594.9 242.7,120 450.3,120 	"/>
	<path class="st1" d="M435.1,159.6v394.8c0,14.7-12,26.7-26.7,26.7H284.3c-14.7,0-26.7-12-26.7-26.7V159.6c0-14.7,12-26.7,26.7-26.7
		h124.1C423.1,132.9,435.1,144.9,435.1,159.6L435.1,159.6z"/>
	<polygon class="st2" points="279.3,254.7 345.7,191.6 412.2,255.8 412.2,282.6 358.5,232.6 358.5,321.2 333.3,321.2 333.3,232.6 
		279.3,285 279.3,254.7 	"/>
	<polygon class="st2" points="279.3,460.1 345.7,523.3 412.2,459.1 412.2,432.3 358.5,482.3 358.5,393.7 333.3,393.7 333.3,482.3 
		279.3,429.9 279.3,460.1 	"/>
</g>
<g>
	<path d="M555,197.3h-17l-6.8-17.6h-30.9l-6.4,17.6h-16.6l30.1-77.3h16.5L555,197.3z M526.3,166.7L515.6,138l-10.4,28.7H526.3z"/>
</g>
<g>
	<path d="M652.7,529.9h30.9c6.1,0,10.7,0.3,13.7,0.8s5.7,1.6,8.1,3.2s4.4,3.8,5.9,6.5s2.4,5.7,2.4,9c0,3.6-1,6.9-2.9,10
		s-4.6,5.3-7.9,6.8c4.7,1.4,8.3,3.7,10.9,7s3.8,7.2,3.8,11.7c0,3.5-0.8,6.9-2.5,10.3s-3.9,6-6.7,8c-2.8,2-6.3,3.2-10.5,3.7
		c-2.6,0.3-8.9,0.5-18.8,0.5h-26.3V529.9z M668.3,542.7v17.9h10.2c6.1,0,9.9-0.1,11.3-0.3c2.7-0.3,4.8-1.2,6.3-2.8s2.3-3.5,2.3-6
		c0-2.4-0.7-4.3-2-5.8s-3.3-2.4-5.9-2.7c-1.5-0.2-6-0.3-13.3-0.3H668.3z M668.3,573.5v20.7h14.4c5.6,0,9.2-0.2,10.7-0.5
		c2.3-0.4,4.2-1.5,5.7-3.1c1.5-1.6,2.2-3.8,2.2-6.6c0-2.3-0.6-4.3-1.7-5.9c-1.1-1.6-2.8-2.8-4.9-3.5c-2.1-0.7-6.7-1.1-13.8-1.1
		H668.3z"/>
</g>
</svg>
