<?xml version="1.0" encoding="utf-8"?>
<!-- Generator: Adobe Illustrator 19.2.0, SVG Export Plug-In . SVG Version: 6.00 Build 0)  -->
<svg version="1.1" id="Livello_1" xmlns="http://www.w3.org/2000/svg" xmlns:xlink="http://www.w3.org/1999/xlink" x="0px" y="0px"
	 viewBox="0 0 960 960" style="enable-background:new 0 0 960 960;" xml:space="preserve">
<style type="text/css">
	.st0{opacity:1.000000e-002;fill:#FFFFFF;}
	.st1{fill-rule:evenodd;clip-rule:evenodd;fill:#C5C6C8;}
	.st2{fill-rule:evenodd;clip-rule:evenodd;fill:#C5C6C8;stroke:#FFFFFF;stroke-width:11.816;stroke-miterlimit:2.6131;}
	.st3{fill-rule:evenodd;clip-rule:evenodd;fill:#FFFFFF;stroke:#9B9C9E;stroke-width:1.1816;stroke-miterlimit:2.6131;}
	.st4{fill-rule:evenodd;clip-rule:evenodd;fill:#1A171B;stroke:#1A171B;stroke-width:1.1816;stroke-miterlimit:2.6131;}
	.st5{fill-rule:evenodd;clip-rule:evenodd;fill:#FFFFFF;stroke:#1A171B;stroke-width:1.1816;stroke-miterlimit:2.6131;}
</style>
<rect class="st0" width="1" height="1"/>
<rect x="959" y="959" class="st0" width="1" height="1"/>
<polygon class="st1" points="180,181.7 780,181.7 780,778.3 180,778.3 180,181.7 "/>
<path class="st2" d="M230.8,199.3h499.3c18.3,0,33.2,14.9,33.2,33.2v496.1c0,18.3-14.9,33.2-33.2,33.2H230.8
	c-18.3,0-33.2-14.9-33.2-33.2V232.5C197.6,214.2,212.6,199.3,230.8,199.3L230.8,199.3z"/>
<path class="st3" d="M249.5,724.9l201.8-274.8c3.8-5.3,7.8-10.8,10.5-15.8c11.8-20.6,20.6-41.6,20.6-76l1.5-15.5l12.2-16.1h139.2
	c0,34.3,0.8,74-5,107.6c-1,5.8-2.5,12.3-3.5,17.8l-62.9,272.8H249.5L249.5,724.9z"/>
<path class="st4" d="M616.2,430.9l-15.3-0.3c5-18.3,7-32.3,8.5-49.1h15.3C623,399.5,620.5,415.3,616.2,430.9L616.2,430.9z"/>
<path class="st4" d="M595.9,430.9l-15-0.5c4.8-17.3,6.8-32.1,8.3-48.9h15.3C603.4,399,600.6,415.6,595.9,430.9L595.9,430.9z"/>
<path class="st4" d="M575.5,430.9l-15.3-0.8c5.3-17.8,7-31.8,8.5-48.6H584C582.2,399.5,580.5,415.3,575.5,430.9L575.5,430.9z"/>
<path class="st4" d="M554.6,430.9l-15.5-0.3c7.3-16.8,7.8-32.3,9.3-49.1h15.3C562.4,397.8,559.6,415.3,554.6,430.9L554.6,430.9z"/>
<path class="st4" d="M534,430.9l-16-0.3c5.5-17,9.3-31.8,10-49.1h15.3C542.8,399,540,415.3,534,430.9L534,430.9z"/>
<path class="st4" d="M512.4,430.9l-16.3-0.3c6-16.5,9.8-32.3,11.3-49.1h15.3C522.2,398.8,517.4,415.3,512.4,430.9L512.4,430.9z"/>
<path class="st4" d="M488.8,430.9l-17.8-0.3c9-17,14.5-32.3,16-49.1h15.3C500.6,399.5,495.6,418.6,488.8,430.9L488.8,430.9z"/>
<path class="st4" d="M635.1,324.2l-65.8-0.1l3.2-77c0-18.6-32.3-18.6-32.3,0l3.2,76.9l-47.3-0.1L482.1,341l0.3,17.7H620l15.3-17.7
	L635.1,324.2z M617.9,354H487.2l-0.2-11.2l11.2-14l45.2,0.1l0.1,3.5c0,16.8,25.3,17,25.3,0l0.1-3.4l61.3,0.1l0.2,10.4L617.9,354z"/>
<path class="st5" d="M544.8,247.5c0.9-12.6,21.9-12.3,22.8,0l-3.6,84.4c-1.4,8.5-9.2,11.6-14.8,4.1l-0.7-4.1L544.8,247.5
	L544.8,247.5z"/>
</svg>
