<?xml version="1.0" encoding="utf-8"?>
<!-- Generator: Adobe Illustrator 19.2.0, SVG Export Plug-In . SVG Version: 6.00 Build 0)  -->
<svg version="1.1" id="Livello_1" xmlns="http://www.w3.org/2000/svg" xmlns:xlink="http://www.w3.org/1999/xlink" x="0px" y="0px"
	 viewBox="0 0 960 960" style="enable-background:new 0 0 960 960;" xml:space="preserve">
<style type="text/css">
	.st0{opacity:1.000000e-002;fill:#FFFFFF;}
	.st1{fill-rule:evenodd;clip-rule:evenodd;fill:#E1001A;}
	.st2{fill-rule:evenodd;clip-rule:evenodd;fill:#E1001A;stroke:#FFFFFF;stroke-width:11.816;stroke-miterlimit:2.6131;}
	.st3{fill-rule:evenodd;clip-rule:evenodd;fill:#FFFFFF;}
</style>
<rect class="st0" width="1" height="1"/>
<rect x="959" y="959" class="st0" width="1" height="1"/>
<polygon class="st1" points="180,181.7 780,181.7 780,778.3 180,778.3 180,181.7 "/>
<path class="st2" d="M230.8,199.3h499.3c18.3,0,33.2,14.9,33.2,33.2v496.1c0,18.3-14.9,33.2-33.2,33.2H230.8
	c-18.3,0-33.2-14.9-33.2-33.2V232.5C197.6,214.2,212.6,199.3,230.8,199.3L230.8,199.3z"/>
<path class="st3" d="M553.2,527.9c-15.5,0.4-31.1-0.6-46.5-0.7l-70.8-1l-15.5-51.9l11.5-53.1c23.7-2.3,47.5-5,71.2-6.8
	c15-1.1,30.5-2,45.8-2.5c35.8-1.5,72.3-4.4,108.4-4l73.2,0.8l4.2,108.4c-24.4,2.3-48.6,5.4-72.9,6.8
	C625.8,526,589.2,527,553.2,527.9L553.2,527.9z M538.4,510.5c-7.2-27.9-8.7-49-2.9-78.1l-31-12.5c-5.6,35.9-4.3,69.9,3.7,100.1
	L538.4,510.5L538.4,510.5z M591,414.9l0.5,12.8l-40.8,2.5L518,419.4L591,414.9L591,414.9z M594.9,522.3l-0.5-12.8l-40.9,0.5
	L521.7,523L594.9,522.3L594.9,522.3z M596.1,415l57.4-0.6l-13.7,11.9l-43.3,0.7L596.1,415L596.1,415z M600.1,521.7l57.3-3.7
	l-14.5-10.9l-43.2,2.4L600.1,521.7L600.1,521.7z M647.6,433.2c5.5-4.5,15.2-8.8,21.4-13.7c10.1,29.7,11.4,65.2,3.8,94.4
	c-6.3-3.2-16.2-8.4-22.7-12.6C654.7,485.7,653.2,445,647.6,433.2L647.6,433.2z"/>
<polygon class="st3" points="492,570 495,567.7 569.3,634.3 557.4,646.9 492,570 "/>
<polygon class="st3" points="520.8,663.1 480.6,574.7 483.2,573.2 533.7,656.8 520.8,663.1 "/>
<polygon class="st3" points="570.5,603 479.1,551.3 480.9,548.7 576.3,589.6 570.5,603 "/>
<polygon class="st3" points="344.3,320 358,314.2 395.6,421 392.3,422.3 344.3,320 "/>
<polygon class="st3" points="414.5,422.5 430.4,306.4 443.8,309.4 418,423 414.5,422.5 "/>
<polygon class="st3" points="402.4,416.2 384.7,299.3 399.9,297.8 405.4,415.5 402.4,416.2 "/>
<path class="st3" d="M435.1,533.8l-6.6-0.4c-22.9,21.3-52.3,38.4-86.6,50.4l-3.6-33.2c28.4-8.5,47-19.8,68.1-39.3l-27.2-48.8
	l14.4-8.8c-11.7-19.4-22.5-38-34.1-57.6c-11.6-19.6-26.9-40.6-40.4-61.1l-93.7,54.7l33.8,64.9c16.4,31.3,36.5,62.8,54.6,93.8
	c7.6,13.1,16.4,26.8,23.8,39.2c12.1,20.1,26.3,39.8,39.5,59.6l52.2-14.8l38.5-38.1L435.1,533.8L435.1,533.8z M296.7,510l11-6.4
	l21.5,34.8l5.9,33.9L296.7,510L296.7,510z M294.4,505.3l-27.5-50.4l17,6.5l21,37.8L294.4,505.3L294.4,505.3z M386.6,451.6
	l-30.9-48.9l-2.1,18l22.5,37L386.6,451.6L386.6,451.6z M286.2,451.4c-6.6-2.7-15-9.3-22.2-12.4c21.4-22.8,52.1-40.7,81.5-47.8
	c0.1,7.1,0.2,18.2-0.4,26C329.2,420.4,294,440.9,286.2,451.4L286.2,451.4z"/>
</svg>
