<?xml version="1.0" encoding="utf-8"?>
<!-- Generator: Adobe Illustrator 19.2.0, SVG Export Plug-In . SVG Version: 6.00 Build 0)  -->
<svg version="1.1" id="Livello_1" xmlns="http://www.w3.org/2000/svg" xmlns:xlink="http://www.w3.org/1999/xlink" x="0px" y="0px"
	 viewBox="0 0 960 960" style="enable-background:new 0 0 960 960;" xml:space="preserve">
<style type="text/css">
	.st0{opacity:1.000000e-002;fill:#FFFFFF;}
	.st1{fill:#FFFFFF;stroke:#1A171B;stroke-width:1.1838;stroke-miterlimit:2.6131;}
	.st2{fill:none;stroke:#1A171B;stroke-width:7.8917;stroke-miterlimit:2.6131;}
	.st3{fill-rule:evenodd;clip-rule:evenodd;fill:#1A171B;stroke:#1A171B;stroke-width:3.1567;stroke-miterlimit:2.6131;}
	.st4{fill-rule:evenodd;clip-rule:evenodd;fill:#1A171B;stroke:#1A171B;stroke-width:1.1838;stroke-miterlimit:2.6131;}
</style>
<rect class="st0" width="1" height="1"/>
<rect x="959" y="959" class="st0" width="1" height="1"/>
<polygon class="st1" points="180,366.5 780,366.5 780,593.5 180,593.5 180,366.5 "/>
<path class="st2" d="M225.9,382.8h508.1c16.3,0,29.7,13.3,29.7,29.7v135.3c0,16.3-13.3,29.7-29.7,29.7H225.9
	c-16.3,0-29.7-13.3-29.7-29.7V412.4C196.3,396.1,209.6,382.8,225.9,382.8L225.9,382.8z"/>
<path class="st3" d="M270,512.5l-9.7-14.8l9.6-17.3c2.9,0,8.8,0,12.6,0c7.4-5,0-9.9,0-15l2.4-5c4.7,0,4.1,0,9.9,0l2.4,5
	c0,5.8-7.3,9.8-2.4,15c9.5,0,16.9,0,27.4,0c2.7,0,2.4,0.1,4.9-2.6c14.8,0,29.8,0,44.8,0c2.4,2.6,2.4,2.6,4.9,2.6v32.1H270L270,512.5
	z"/>
<path class="st3" d="M286.2,455.9c-0.3,0,1.7-8.4,3.5-13.3c1.1-3.3,7.9-9.8,9.1-14.5c3-12,9.1-20.7,22.7-18.2
	c6.2,1,7.9,7.5,14.9,9.3c5,1.3,11-4.1,17-4.1c7.2-0.1,7.1,8.4,14.1,8.4c4.4,0,8.8-4.4,11-4.4c14.1,0,15.3,15.6,11.1,22.2
	c-1.8,2.7-6.9,4.8-10.5,4.8c-5.2,0-8.8-8-13.3-4.4c-5,4.1-8.7,7.2-16.1,5.3c-4.4-1.1-7.7-7.8-12.4-7.1l-5.3,0.9
	c-4.2,4.2-12.7,8.8-18.6,6.2c-7.2-3.1-13.7-7.3-17.6,3.5l-1.9,5.3H286.2L286.2,455.9z"/>
<path class="st4" d="M250.4,537.6v-7.7h9.8c0-3,0-9.3,0-13.1h120.8v-39.1h45.5v7.3h-24.9v17.6c2.8,0,8.8,0,12.3,0v22.7h-24.7v4.3
	h44.3v7.7h-20.5c2.5,1.3,4.4,4,4.4,7.1c0,4.3-3.7,7.9-7.9,7.9c-4.4,0-8.1-3.6-8.1-7.9c0-3,1.8-5.8,4.4-7.2l-17.1,0.1h0.3
	c0,8.3-6.8,14.9-14.9,14.9c-8.3,0-14.9-6.6-14.9-14.9l0,0h-7.6l0,0c0,8.3-6.6,14.9-14.9,14.9c-8.1,0-14.9-6.6-14.9-14.9l0,0h-7.3
	c0,8.3-6.8,14.9-14.9,14.9c-8.3,0-14.9-6.6-14.9-14.6h-14.1c2.5,1.3,4.3,4,4.3,6.8c0,4.3-3.8,8.1-8.1,8.1c-4.3,0-8.1-3.8-8.1-8.1
	c0-2.8,1.8-5.5,4.3-6.8H250.4L250.4,537.6z"/>
<path class="st3" d="M543.8,512.5l-9.7-14.8l9.6-17.3c2.9,0,8.8,0,12.7,0c7.4-5,0-9.9,0-15l2.4-5c4.7,0,4.1,0,9.9,0l2.4,5
	c0,5.8-7.3,9.8-2.4,15c9.5,0,16.9,0,27.4,0c2.7,0,2.4,0.1,4.9-2.6c14.8,0,29.8,0,44.8,0c2.4,2.6,2.4,2.6,4.9,2.6v32.1H543.8
	L543.8,512.5z"/>
<path class="st3" d="M560,455.9c-0.3,0,1.7-8.4,3.5-13.3c1.1-3.3,7.9-9.8,9.1-14.5c3-12,9.1-20.7,22.7-18.2c6.2,1,7.9,7.5,14.9,9.3
	c5,1.3,11-4.1,17-4.1c7.2-0.1,7.1,8.4,14.1,8.4c4.4,0,8.8-4.4,11-4.4c14.1,0,15.3,15.6,11.1,22.2c-1.8,2.7-6.9,4.8-10.5,4.8
	c-5.2,0-8.8-8-13.3-4.4c-5,4.1-8.7,7.2-16.1,5.3c-4.4-1.1-7.7-7.8-12.4-7.1l-5.3,0.9c-4.2,4.2-12.7,8.8-18.6,6.2
	c-7.2-3.1-13.7-7.3-17.6,3.5l-1.9,5.3H560L560,455.9z"/>
<path class="st4" d="M524.3,537.6v-7.7h9.8c0-3,0-9.3,0-13.1h120.8v-39.1h45.5v7.3h-24.9v17.6c2.8,0,8.8,0,12.3,0v22.7h-24.7v4.3
	h44.3v7.7h-20.5c2.5,1.3,4.4,4,4.4,7.1c0,4.3-3.7,7.9-7.9,7.9c-4.4,0-8.1-3.6-8.1-7.9c0-3,1.8-5.8,4.4-7.2l-17.1,0.1h0.3
	c0,8.3-6.8,14.9-14.9,14.9c-8.3,0-14.9-6.6-14.9-14.9l0,0h-7.6l0,0c0,8.3-6.6,14.9-14.9,14.9c-8.1,0-14.9-6.6-14.9-14.9l0,0h-7.3
	c0,8.3-6.8,14.9-14.9,14.9c-8.3,0-14.9-6.6-14.9-14.6h-14.1c2.5,1.3,4.3,4,4.3,6.8c0,4.3-3.8,8.1-8.1,8.1c-4.3,0-8.1-3.8-8.1-8.1
	c0-2.8,1.8-5.5,4.3-6.8H524.3L524.3,537.6z"/>
</svg>
