<?xml version="1.0" encoding="utf-8"?>
<!-- Generator: Adobe Illustrator 19.2.0, SVG Export Plug-In . SVG Version: 6.00 Build 0)  -->
<svg version="1.1" id="Livello_1" xmlns="http://www.w3.org/2000/svg" xmlns:xlink="http://www.w3.org/1999/xlink" x="0px" y="0px"
	 viewBox="0 0 960 960" style="enable-background:new 0 0 960 960;" xml:space="preserve">
<style type="text/css">
	.st0{opacity:1.000000e-002;fill:#FFFFFF;}
	.st1{fill:#FFFFFF;stroke:#1A171B;stroke-width:1.1838;stroke-miterlimit:2.6131;}
	.st2{fill:none;stroke:#1A171B;stroke-width:7.8917;stroke-miterlimit:2.6131;}
	.st3{fill-rule:evenodd;clip-rule:evenodd;fill:#1A171B;stroke:#1A171B;stroke-width:1.1838;stroke-miterlimit:2.6131;}
</style>
<rect class="st0" width="1" height="1"/>
<rect x="959" y="959" class="st0" width="1" height="1"/>
<g>
	<polygon class="st1" points="180,366.5 780,366.5 780,593.5 180,593.5 180,366.5 	"/>
	<path class="st2" d="M225.9,382.8h508.1c16.3,0,29.7,13.3,29.7,29.7v135.3c0,16.3-13.3,29.7-29.7,29.7H225.9
		c-16.3,0-29.7-13.3-29.7-29.7V412.4C196.3,396.1,209.6,382.8,225.9,382.8L225.9,382.8z"/>
	<polygon class="st3" points="330.4,450.8 326.3,435.3 332.7,433.5 335,442.5 340.9,432.7 352.1,439.2 345.7,450.6 357.1,447.6 
		358.8,453.9 340.9,458.7 330.4,477 354.1,477 365.4,465.7 370.1,470.4 363.4,476.7 375,477 375,489.9 361.8,489.9 370.1,498.6 
		365.4,503.2 352.5,489.9 329.4,489.9 341.2,510 358.9,514.7 357.4,521.3 345.8,518.1 352.6,529.6 341.2,536.1 335.2,525.9 
		332.7,535.4 326.4,533.4 330.4,517.6 318.6,497.2 308,515.7 312.8,533.6 306.3,535.4 303.4,523.8 296.7,535.4 285.3,528.8 
		291.2,518.5 281.8,521.1 280.3,514.7 296.1,510.2 307.8,489.9 286.8,489.9 273.5,503.2 268.8,498.6 277.1,489.9 263.9,489.9 
		263.9,477 275.8,477 268.8,470 273.8,465.4 285.4,477 306.8,477 296.2,458.2 280.8,454.1 282.4,447.5 291.2,449.9 285.8,440 
		297,433.3 303.7,444.8 306.8,433.3 313.1,435.2 308.3,453.1 318.6,471.2 330.4,450.8 	"/>
	<polygon class="st3" points="599.3,511.8 599.3,483.8 694.8,483.8 694.6,511.8 599.3,511.8 	"/>
	<path class="st3" d="M694.8,541.4l-0.2-23H592.9v-85.5h-59.3l-34.3,50.8l-0.2,44.4h10c3.2-37.8,41-31.2,45.9-27.9
		c4.9,3.4,23,11.5,16.2,41H694.8z M509.1,484l29.6-44.4h47.5V484H509.1z"/>
	<path class="st3" d="M540.9,517.3c-6.7,0-12.1,5.5-12.1,12.1c0,6.7,5.5,12.1,12.1,12.1c6.7,0,12.1-5.5,12.1-12.1
		C553,522.7,547.6,517.3,540.9,517.3L540.9,517.3z M540.9,504c14,0,25.4,11.4,25.4,25.4c0,14-11.4,25.4-25.4,25.4
		s-25.4-11.4-25.4-25.4C515.6,515.4,526.9,504,540.9,504L540.9,504z"/>
	<path class="st3" d="M548.4,426.8l3.5-14c1.7-7.2,13.9-8.2,16,0l3.5,14H548.4L548.4,426.8z"/>
	<path class="st3" d="M466.1,551.1l-36.7-27.3c8.1-7,23.9-31.2,11.5-55.7l36.3,22.2C490.9,513.2,480.5,540.3,466.1,551.1
		L466.1,551.1z"/>
	<path class="st3" d="M473.5,551.3c16.7-14.9,20.2-44.5,10.6-61l-38.2-23.1h6.6l38.6,22.9c2.6,6.6,5.6,17.5,4.3,28.2
		c-1.7,15.1-7.5,27.6-15.5,32.7L473.5,551.3L473.5,551.3z"/>
</g>
</svg>
