<?xml version="1.0" encoding="utf-8"?>
<!-- Generator: Adobe Illustrator 19.2.0, SVG Export Plug-In . SVG Version: 6.00 Build 0)  -->
<svg version="1.1" id="Livello_1" xmlns="http://www.w3.org/2000/svg" xmlns:xlink="http://www.w3.org/1999/xlink" x="0px" y="0px"
	 viewBox="0 0 960 960" style="enable-background:new 0 0 960 960;" xml:space="preserve">
<style type="text/css">
	.st0{opacity:1.000000e-002;fill:#FFFFFF;}
	.st1{fill:#FFFFFF;stroke:#1A171B;stroke-width:1.1838;stroke-miterlimit:2.6131;}
	.st2{fill:none;stroke:#1A171B;stroke-width:7.8917;stroke-miterlimit:2.6131;}
	.st3{fill-rule:evenodd;clip-rule:evenodd;fill:#5288C1;stroke:#5288C1;stroke-width:1.1838;stroke-miterlimit:2.6131;}
</style>
<rect class="st0" width="1" height="1"/>
<rect x="959" y="959" class="st0" width="1" height="1"/>
<g>
	<g>
		<polygon class="st1" points="180,366.5 780,366.5 780,593.5 180,593.5 180,366.5 		"/>
		<path class="st2" d="M225.9,382.8h508.1c16.3,0,29.7,13.3,29.7,29.7v135.3c0,16.3-13.3,29.7-29.7,29.7H225.9
			c-16.3,0-29.7-13.3-29.7-29.7V412.4C196.3,396.1,209.6,382.8,225.9,382.8L225.9,382.8z"/>
		<path class="st3" d="M238.2,447.1l0.2-16.2c26.7,0,80,16,120.2,16c40.1,0,79.6-16.2,119.7-16.2c40.1,0,80,16.2,120.2,16.2
			s87.8-16,119.7-16v16c-21.4,0-79.8,16-120,16c-40.1,0-79.8-16-120-16c-40.1,0-79.8,16-120,16C318.2,462.9,260.1,446.9,238.2,447.1
			L238.2,447.1z"/>
		<path class="st3" d="M238.6,479.2l0.2-16.2c26.7,0,80,16,120.2,16c40.1,0,79.6-16.2,119.7-16.2c40.1,0,80,16.2,120.2,16.2
			c40.1,0,87.8-16,119.7-16v16c-21.4,0-79.8,16-120,16c-40.1,0-79.8-16-120-16c-40.1,0-79.8,16-120,16
			C318.6,495,260.5,479,238.6,479.2L238.6,479.2z"/>
		<path class="st3" d="M238.6,511.1l0.2-16.2c26.7,0,80,16,120.2,16c40.1,0,79.6-16.2,119.7-16.2c40.1,0,80,16.2,120.2,16.2
			c40.1,0,87.8-16,119.7-16v16c-21.4,0-79.8,16-120,16c-40.1,0-79.8-16-120-16c-40.1,0-79.8,16-120,16
			C318.6,526.9,260.5,510.9,238.6,511.1L238.6,511.1z"/>
	</g>
</g>
</svg>
