<?xml version="1.0" encoding="utf-8"?>
<!-- Generator: Adobe Illustrator 19.2.0, SVG Export Plug-In . SVG Version: 6.00 Build 0)  -->
<svg version="1.1" id="Livello_1" xmlns="http://www.w3.org/2000/svg" xmlns:xlink="http://www.w3.org/1999/xlink" x="0px" y="0px"
	 viewBox="0 0 960 960" style="enable-background:new 0 0 960 960;" xml:space="preserve">
<style type="text/css">
	.st0{opacity:1.000000e-002;fill:#FFFFFF;}
	.st1{fill-rule:evenodd;clip-rule:evenodd;fill:#FFFFFF;stroke:#1A171B;stroke-width:1.1815;stroke-miterlimit:2.6131;}
	.st2{fill:none;stroke:#1A171B;stroke-width:11.8147;stroke-miterlimit:2.6131;}
	.st3{fill-rule:evenodd;clip-rule:evenodd;fill:#1A171B;stroke:#1A171B;stroke-width:3.1506;stroke-miterlimit:2.6131;}
	.st4{fill-rule:evenodd;clip-rule:evenodd;fill:#E1001A;}
	.st5{fill-rule:evenodd;clip-rule:evenodd;fill:#FFFFFF;stroke:#FFFFFF;stroke-width:3.9382;stroke-miterlimit:2.6131;}
	.st6{fill-rule:evenodd;clip-rule:evenodd;fill:#FFFFFF;}
</style>
<rect class="st0" width="1" height="1"/>
<rect x="959" y="959" class="st0" width="1" height="1"/>
<polygon class="st1" points="180,181.7 780,181.7 780,778.3 180,778.3 180,181.7 "/>
<path class="st2" d="M230.8,199.3h499.3c18.3,0,33.2,14.9,33.2,33.2v496.1c0,18.3-14.9,33.2-33.2,33.2H230.8
	c-18.3,0-33.2-14.9-33.2-33.2V232.5C197.6,214.2,212.6,199.3,230.8,199.3L230.8,199.3z"/>
<path class="st3" d="M537.9,307.4v-10.5h16.6v10.9c0,1.8-2,2.3-4,2.3l-8.7-0.1C538.6,310.1,537.9,309.3,537.9,307.4L537.9,307.4z"/>
<path class="st3" d="M621.3,307.4v-10.5h16.7l-0.1,10.9c0,1.8-2,2.3-4,2.3l-9.1-0.1C622.1,310.1,621,309.3,621.3,307.4L621.3,307.4z
	"/>
<path class="st3" d="M533.8,294.3c-3.6,0-3.6-5.4-0.1-5.4h109.1c3.3,0,3.4,5.4-0.1,5.4H533.8L533.8,294.3z"/>
<g>
	<path class="st3" d="M642.1,277.3l0.1-2.4h-21.8c0-1.8,0.2-3.5,2.3-4.9h19.4c0-1.2-0.6-3-2-4.2c-2-1.1-3.4-1.3-4.9-1.8
		c-32.2-5.6-63-5.2-94.1,0.7c-1.5,0.2-3.3,1.1-4.5,1.8c-1.4,1.2-1.5,2.3-1.5,3.5h19.6c1.4,1.3,2,3.1,2,4.9h-21.6l0.1,2.4h21.5
		c0,1.9,0,3-1.4,4.9h-20.2c0.1,1.2,0.7,2.4,1.5,3.7h103.6c1.4-1.2,2-2.4,2-3.7h-19.5c-2.7-1.2-2.2-3-2.2-4.9H642.1z"/>
	<path class="st3" d="M552.6,242c1.4-2,2-2.6,4.7-3c20.9-2.4,41.7-2.4,62.6,0c2.1,1.2,3.4,1.8,4,3.7l5.4,17l6,1.2l-6.7-21.3
		c-2-2.4-3.9-4.3-6.8-4.8c-22.8-3.1-45-3.1-67.2-0.1c-2.6,0.6-4.7,1.9-6.6,4.3l-7.5,23.1l6.6-1.9L552.6,242z"/>
</g>
<path class="st4" d="M535.1,269.9c-0.2,3-0.2,7.6,0.1,12.4h20.3c1.4-1.9,1.4-3.1,1.4-5v-2.4c0-1.8-0.6-3.6-2-5H535.1L535.1,269.9z"
	/>
<path class="st4" d="M642,269.9c0.2,3,0.2,7.6,0,12.4h-20.3c-1.4-1.9-1.6-3.1-1.6-5v-2.4c0-1.8,0.8-3.6,2.2-5H642L642,269.9z"/>
<path class="st5" d="M573.5,270.1h29.6c1.1,0,2,0.8,2,1.8v8.6c0,1-0.9,1.8-2,1.8h-29.6c-1.1,0-2-0.8-2-1.8v-8.6
	C571.5,270.9,572.4,270.1,573.5,270.1L573.5,270.1z"/>
<path class="st6" d="M602.9,313.9c-1.4,0-0.9,0-1.2,0c-32-5.5-62.8-4.8-93.7,0.6c0,0-0.1,0.2-1.5,0.2c0,0,0.6-1.7,0.6-1.8l7.8-23.9
	c1.9-2.4,4-3.7,6.6-4.3c22.1-3,44.3-3,67,0.1c2.8,0.5,4.8,2.4,6.7,4.8l6.7,21.2L602.9,313.9L602.9,313.9z"/>
<path class="st3" d="M504.5,357.3v-10.5h16.6v10.9c0,1.8-2,2.3-4,2.3l-8.7-0.1C505.3,359.9,504.5,359.2,504.5,357.3L504.5,357.3z"/>
<path class="st3" d="M587.9,357.3v-10.5h16.7l-0.1,10.9c0,1.8-2,2.3-4,2.3l-9.1-0.1C588.8,359.9,587.7,359.2,587.9,357.3
	L587.9,357.3z"/>
<path class="st3" d="M500.5,344.2c-3.6,0-3.6-5.4-0.1-5.4h109.1c3.3,0,3.4,5.4-0.1,5.4H500.5L500.5,344.2z"/>
<path class="st3" d="M503.2,335.8c-0.7-1.2-1.4-2.4-1.5-3.7H522c1.3-1.9,1.3-3,1.3-4.9h-21.5l-0.1-2.4h21.6c0-1.8-0.6-3.6-2-4.9
	h-19.6c0-1.2,0.1-2.3,1.5-3.6c1.2-0.7,3.1-1.6,4.5-1.8c31.2-5.9,62-6.2,94.1-0.7c1.5,0.4,2.9,0.7,4.9,1.8c1.4,1.2,2,3,2,4.2h-19.4
	c-2.1,1.3-2.3,3.1-2.3,4.9h21.8l-0.1,2.4H587c0,1.9-0.5,3.7,2.2,4.9h19.5c0,1.2-0.6,2.4-2,3.7H503.2L503.2,335.8z"/>
<path class="st3" d="M507.1,312l7.5-23.1c2-2.4,4-3.8,6.6-4.3c22.2-3,44.4-3,67.2,0.1c2.8,0.4,4.8,2.3,6.8,4.8l6.7,21.3l-6-1.2
	l-5.4-17c-0.6-1.9-2-2.4-4-3.7c-20.9-2.4-41.7-2.4-62.6,0c-2.7,0.4-3.3,1-4.7,3l-5.5,18.2L507.1,312L507.1,312z"/>
<path class="st4" d="M501.7,319.8c-0.2,3-0.2,7.6,0.1,12.4h20.3c1.4-1.9,1.4-3.1,1.4-5v-2.4c0-1.8-0.6-3.6-2-5H501.7L501.7,319.8z"
	/>
<path class="st4" d="M608.7,319.8c0.2,3,0.2,7.6-0.1,12.4h-20.3c-1.4-1.9-1.6-3.1-1.6-5v-2.4c0-1.8,0.8-3.6,2.2-5H608.7L608.7,319.8
	z"/>
<path class="st5" d="M540.1,320h29.6c1.1,0,2,0.8,2,1.8v8.6c0,1-0.9,1.8-2,1.8h-29.6c-1.1,0-2-0.8-2-1.8v-8.6
	C538.1,320.8,539,320,540.1,320L540.1,320z"/>
<path class="st6" d="M581.6,370.6c-1.5,0-1,0.1-1.4-0.1c-35.7-6.2-70.1-5.4-104.6,0.7c0,0-0.2,0.2-1.7,0.3c0,0,0.6-1.9,0.6-2.1
	l8.7-26.7c2.2-2.7,4.5-4.2,7.3-4.8c24.7-3.3,49.4-3.3,74.7,0.1c3.1,0.5,5.4,2.6,7.5,5.3l7.5,23.7L581.6,370.6L581.6,370.6z"/>
<path class="st3" d="M471.9,419v-11.8h18.5v12.1c0,2-2.2,2.6-4.5,2.6l-9.7-0.1C472.7,421.9,471.9,421.1,471.9,419L471.9,419z"/>
<path class="st3" d="M564.9,419v-11.8h18.6l-0.1,12.1c0,2-2.2,2.6-4.5,2.6l-10.1-0.1C565.9,421.9,564.7,421.1,564.9,419L564.9,419z"
	/>
<path class="st3" d="M467.4,404.4c-4,0-4-6.1-0.1-6.1H589c3.7,0,3.8,6.1-0.1,6.1H467.4L467.4,404.4z"/>
<path class="st3" d="M470.4,395c-0.8-1.4-1.5-2.7-1.6-4.1h22.6c1.5-2.1,1.5-3.3,1.5-5.4h-24l-0.1-2.7h24.1c0-2-0.7-4-2.2-5.4h-21.9
	c0-1.4,0.1-2.6,1.6-4c1.4-0.7,3.4-1.7,5.1-2c34.8-6.6,69.1-6.9,105-0.7c1.6,0.5,3.3,0.7,5.5,2c1.5,1.4,2.2,3.3,2.2,4.7h-21.6
	c-2.3,1.5-2.6,3.5-2.6,5.4h24.4l-0.1,2.7h-24.2c0,2.1-0.5,4.1,2.5,5.4h21.8c0,1.4-0.7,2.7-2.2,4.1H470.4L470.4,395z"/>
<path class="st3" d="M474.8,368.5l8.4-25.8c2.2-2.7,4.5-4.2,7.4-4.8c24.8-3.3,49.6-3.3,75,0.1c3.1,0.5,5.3,2.6,7.5,5.3l7.5,23.8
	l-6.7-1.4l-6-18.9c-0.7-2.1-2.2-2.7-4.5-4.1c-23.3-2.7-46.6-2.7-69.8,0c-3,0.5-3.7,1.1-5.2,3.3l-6.2,20.3L474.8,368.5L474.8,368.5z"
	/>
<path class="st4" d="M468.8,377.1c-0.2,3.3-0.2,8.5,0.1,13.9h22.7c1.6-2.2,1.6-3.4,1.6-5.6v-2.7c0-2-0.7-4-2.3-5.6H468.8
	L468.8,377.1z"/>
<path class="st4" d="M588.1,377.1c0.2,3.3,0.2,8.5-0.1,13.9h-22.7c-1.6-2.2-1.7-3.4-1.7-5.6v-2.7c0-2,0.9-4,2.4-5.6H588.1
	L588.1,377.1z"/>
<path class="st5" d="M511.6,377.3h33c1.2,0,2.2,0.9,2.2,2v9.6c0,1.1-1,2-2.2,2h-33c-1.2,0-2.2-0.9-2.2-2v-9.6
	C509.4,378.2,510.4,377.3,511.6,377.3L511.6,377.3z"/>
<path class="st3" d="M401.4,307.4v-10.5h16.6v10.9c0,1.8-2,2.3-4,2.3l-8.7-0.1C402.1,310.1,401.4,309.3,401.4,307.4L401.4,307.4z"/>
<path class="st3" d="M484.7,307.4v-10.5h16.7l-0.1,10.9c0,1.8-2,2.3-4.1,2.3l-9.1-0.1C485.6,310.1,484.5,309.3,484.7,307.4
	L484.7,307.4z"/>
<path class="st3" d="M397.3,294.3c-3.6,0-3.6-5.4-0.1-5.4h109.1c3.3,0,3.4,5.4-0.1,5.4H397.3L397.3,294.3z"/>
<path class="st3" d="M400,285.9c-0.7-1.2-1.4-2.4-1.5-3.7h20.2c1.4-1.9,1.4-3,1.4-4.9h-21.5l-0.1-2.4h21.6c0-1.8-0.6-3.5-2-4.9
	h-19.6c0-1.2,0.1-2.3,1.5-3.5c1.2-0.7,3.1-1.6,4.5-1.8c31.2-5.9,62-6.2,94.1-0.7c1.5,0.4,2.9,0.7,4.9,1.8c1.3,1.2,2,3,2,4.2h-19.4
	c-2.1,1.3-2.3,3.1-2.3,4.9h21.8l-0.1,2.4h-21.7c0,1.9-0.5,3.7,2.2,4.9h19.5c0,1.2-0.6,2.4-2,3.7H400L400,285.9z"/>
<path class="st3" d="M403.9,262.1l7.5-23.1c2-2.4,4-3.8,6.6-4.3c22.2-3,44.4-3,67.2,0.1c2.8,0.4,4.8,2.3,6.8,4.8l6.7,21.3l-6-1.2
	l-5.4-17c-0.6-1.9-2-2.4-4-3.7c-20.9-2.4-41.7-2.4-62.6,0c-2.7,0.4-3.3,1-4.7,3l-5.5,18.2L403.9,262.1L403.9,262.1z"/>
<path class="st4" d="M398.5,269.9c-0.2,3-0.2,7.6,0.1,12.4h20.3c1.4-1.9,1.4-3.1,1.4-5v-2.4c0-1.8-0.6-3.6-2-5H398.5L398.5,269.9z"
	/>
<path class="st4" d="M505.5,269.9c0.2,3,0.2,7.6-0.1,12.4h-20.3c-1.4-1.9-1.6-3.1-1.6-5v-2.4c0-1.8,0.8-3.6,2.2-5H505.5L505.5,269.9
	z"/>
<path class="st5" d="M436.9,270.1h29.6c1.1,0,2,0.8,2,1.8v8.6c0,1-0.9,1.8-2,1.8h-29.6c-1.1,0-2-0.8-2-1.8v-8.6
	C434.9,270.9,435.8,270.1,436.9,270.1L436.9,270.1z"/>
<path class="st6" d="M466.3,313.9c-1.4,0-0.9,0-1.2,0c-32-5.5-62.8-4.8-93.7,0.6c0,0-0.2,0.2-1.5,0.2c0,0,0.6-1.7,0.6-1.8l7.8-23.9
	c1.9-2.4,4-3.7,6.6-4.3c22.1-3,44.3-3,67,0.1c2.8,0.5,4.8,2.4,6.7,4.8l6.7,21.2L466.3,313.9L466.3,313.9z"/>
<path class="st3" d="M368,357.3v-10.5h16.6v10.9c0,1.8-2,2.3-4,2.3l-8.7-0.1C368.8,359.9,368,359.2,368,357.3L368,357.3z"/>
<path class="st3" d="M451.4,357.3v-10.5h16.7l-0.1,10.9c0,1.8-2,2.3-4,2.3l-9.1-0.1C452.2,359.9,451.1,359.2,451.4,357.3
	L451.4,357.3z"/>
<path class="st3" d="M364,344.2c-3.6,0-3.6-5.4-0.1-5.4h109.1c3.3,0,3.4,5.4-0.1,5.4H364L364,344.2z"/>
<path class="st3" d="M366.7,335.8c-0.7-1.2-1.3-2.4-1.5-3.7h20.2c1.3-1.9,1.3-3,1.3-4.9h-21.5l-0.1-2.4h21.6c0-1.8-0.6-3.6-2-4.9
	h-19.6c0-1.2,0.1-2.3,1.5-3.6c1.2-0.7,3.1-1.6,4.5-1.8c31.2-5.9,62-6.2,94.1-0.7c1.5,0.4,2.9,0.7,4.9,1.8c1.4,1.2,2,3,2,4.2h-19.4
	c-2.1,1.3-2.3,3.1-2.3,4.9h21.8l-0.1,2.4h-21.7c0,1.9-0.5,3.7,2.2,4.9h19.5c0,1.2-0.6,2.4-2,3.7H366.7L366.7,335.8z"/>
<path class="st3" d="M370.6,312l7.5-23.1c2-2.4,4-3.8,6.6-4.3c22.2-3,44.4-3,67.2,0.1c2.8,0.4,4.8,2.3,6.7,4.8l6.7,21.3l-6-1.2
	l-5.4-17c-0.6-1.9-2-2.4-4.1-3.7c-20.9-2.4-41.7-2.4-62.6,0c-2.7,0.4-3.3,1-4.7,3l-5.5,18.2L370.6,312L370.6,312z"/>
<path class="st4" d="M365.2,319.8c-0.2,3-0.2,7.6,0.1,12.4h20.3c1.4-1.9,1.4-3.1,1.4-5v-2.4c0-1.8-0.6-3.6-2-5H365.2L365.2,319.8z"
	/>
<path class="st4" d="M472.2,319.8c0.2,3,0.2,7.6-0.1,12.4h-20.3c-1.4-1.9-1.6-3.1-1.6-5v-2.4c0-1.8,0.8-3.6,2.2-5H472.2L472.2,319.8
	z"/>
<path class="st5" d="M403.6,320h29.6c1.1,0,2,0.8,2,1.8v8.6c0,1-0.9,1.8-2,1.8h-29.6c-1.1,0-2-0.8-2-1.8v-8.6
	C401.6,320.8,402.5,320,403.6,320L403.6,320z"/>
<path class="st6" d="M429.3,370.6c-1.5,0-1,0.1-1.4-0.1c-35.7-6.2-70.1-5.4-104.6,0.7c0,0-0.2,0.2-1.7,0.3c0,0,0.6-1.9,0.6-2.1
	l8.7-26.7c2.2-2.7,4.5-4.2,7.3-4.8c24.7-3.3,49.4-3.3,74.7,0.1c3.1,0.5,5.4,2.6,7.5,5.3l7.5,23.7L429.3,370.6L429.3,370.6z"/>
<path class="st3" d="M319.6,419v-11.8h18.5v12.1c0,2-2.2,2.6-4.5,2.6l-9.7-0.1C320.4,421.9,319.6,421.1,319.6,419L319.6,419z"/>
<path class="st3" d="M412.6,419v-11.8h18.6l-0.1,12.1c0,2-2.2,2.6-4.5,2.6l-10.1-0.1C413.6,421.9,412.3,421.1,412.6,419L412.6,419z"
	/>
<path class="st3" d="M315.1,404.4c-4,0-4-6.1-0.1-6.1h121.7c3.7,0,3.8,6.1-0.1,6.1H315.1L315.1,404.4z"/>
<path class="st3" d="M318.1,395c-0.8-1.4-1.5-2.7-1.6-4.1H339c1.5-2.1,1.5-3.3,1.5-5.4h-24l-0.1-2.7h24.1c0-2-0.7-4-2.2-5.4h-21.9
	c0-1.4,0.1-2.6,1.6-4c1.4-0.7,3.4-1.7,5.1-2c34.8-6.6,69.1-6.9,105-0.7c1.6,0.5,3.3,0.7,5.5,2c1.5,1.4,2.2,3.3,2.2,4.7h-21.6
	c-2.3,1.5-2.6,3.5-2.6,5.4H436l-0.1,2.7h-24.2c0,2.1-0.5,4.1,2.5,5.4h21.8c0,1.4-0.7,2.7-2.2,4.1H318.1L318.1,395z"/>
<path class="st3" d="M322.5,368.5l8.4-25.8c2.2-2.7,4.5-4.2,7.4-4.8c24.8-3.3,49.6-3.3,75,0.1c3.2,0.5,5.3,2.6,7.5,5.3l7.5,23.8
	l-6.7-1.4l-6-18.9c-0.7-2.1-2.2-2.7-4.5-4.1c-23.3-2.7-46.6-2.7-69.8,0c-3,0.5-3.7,1.1-5.2,3.3l-6.2,20.3L322.5,368.5L322.5,368.5z"
	/>
<path class="st4" d="M316.4,377.1c-0.2,3.3-0.2,8.5,0.1,13.9h22.7c1.6-2.2,1.6-3.4,1.6-5.6v-2.7c0-2-0.7-4-2.3-5.6H316.4
	L316.4,377.1z"/>
<path class="st4" d="M435.8,377.1c0.2,3.3,0.2,8.5-0.1,13.9H413c-1.6-2.2-1.7-3.4-1.7-5.6v-2.7c0-2,0.9-4,2.4-5.6H435.8L435.8,377.1
	z"/>
<path class="st5" d="M359.3,377.3h33c1.2,0,2.2,0.9,2.2,2v9.6c0,1.1-1,2-2.2,2h-33c-1.2,0-2.2-0.9-2.2-2v-9.6
	C357.1,378.2,358.1,377.3,359.3,377.3L359.3,377.3z"/>
<path class="st6" d="M595.5,432.7c-2.1,0-1.3,0.1-1.9-0.1c-48.8-8.4-95.7-7.3-142.9,1c0,0-0.2,0.3-2.3,0.4c0,0,0.9-2.5,0.9-2.8
	l11.9-36.5c3-3.7,6.1-5.7,10-6.5c33.7-4.6,67.5-4.6,102.1,0.1c4.3,0.7,7.3,3.6,10.3,7.2l10.3,32.4L595.5,432.7L595.5,432.7z"/>
<path class="st3" d="M445.7,498.9v-16.1h25.3v16.6c0,2.7-3,3.6-6.2,3.6l-13.3-0.2C446.8,502.9,445.7,501.7,445.7,498.9L445.7,498.9z
	"/>
<path class="st3" d="M572.7,498.9v-16.1h25.4l-0.2,16.6c0,2.7-3,3.6-6.2,3.6l-13.8-0.2C574.1,502.9,572.4,501.7,572.7,498.9
	L572.7,498.9z"/>
<path class="st3" d="M439.5,478.9c-5.4,0-5.4-8.3-0.2-8.3h166.3c5,0,5.2,8.3-0.2,8.3H439.5L439.5,478.9z"/>
<path class="st3" d="M443.6,466c-1.1-1.9-2.1-3.7-2.2-5.6h30.9c2.1-2.9,2.1-4.6,2.1-7.4h-32.7l-0.2-3.7h32.9c0-2.7-0.9-5.4-3-7.4
	h-29.9c0-1.9,0.2-3.6,2.2-5.4c1.9-1,4.7-2.4,6.9-2.7c47.5-9,94.5-9.5,143.5-1c2.2,0.7,4.5,1,7.5,2.7c2.1,1.9,3,4.6,3,6.4h-29.5
	c-3.2,2-3.6,4.7-3.6,7.4h33.3l-0.2,3.7h-33.1c0,2.9-0.7,5.6,3.4,7.4h29.7c0,1.9-0.9,3.7-3,5.6H443.6L443.6,466z"/>
<path class="st3" d="M449.6,429.8l11.4-35.2c3-3.7,6.2-5.8,10.1-6.6c33.9-4.6,67.7-4.6,102.5,0.2c4.3,0.7,7.3,3.6,10.3,7.3
	l10.3,32.5l-9.2-1.9l-8.2-25.9c-0.9-2.9-3-3.7-6.2-5.6c-31.8-3.7-63.6-3.7-95.4,0c-4.1,0.7-5.1,1.5-7.1,4.6l-8.4,27.7L449.6,429.8
	L449.6,429.8z"/>
<path class="st4" d="M441.4,441.6c-0.3,4.5-0.3,11.6,0.1,18.9h31c2.1-2.9,2.1-4.7,2.1-7.6v-3.7c0-2.8-1-5.5-3.1-7.6H441.4
	L441.4,441.6z"/>
<path class="st4" d="M604.4,441.6c0.3,4.5,0.3,11.6-0.1,18.9h-31c-2.1-2.9-2.4-4.7-2.4-7.6v-3.7c0-2.8,1.2-5.5,3.3-7.6H604.4
	L604.4,441.6z"/>
<path class="st5" d="M499.9,442h45.1c1.7,0,3,1.2,3,2.8v13.1c0,1.5-1.4,2.8-3,2.8h-45.1c-1.7,0-3-1.2-3-2.8v-13.1
	C496.9,443.2,498.2,442,499.9,442L499.9,442z"/>
<path class="st6" d="M625.7,508.2c-2.3,0-1.4,0.1-2-0.1c-53.1-9.2-104.1-8-155.4,1.1c0,0-0.3,0.3-2.5,0.4c0,0,0.9-2.8,0.9-3.1
	l12.9-39.6c3.2-4,6.7-6.2,10.9-7.1c36.6-5,73.4-5,111,0.2c4.7,0.8,8,3.9,11.2,7.9l11.2,35.2L625.7,508.2L625.7,508.2z"/>
<path class="st3" d="M462.7,580.1v-17.5h27.5v18c0,2.9-3.3,3.9-6.7,3.9l-14.4-0.2C464,584.5,462.7,583.2,462.7,580.1L462.7,580.1z"
	/>
<path class="st3" d="M600.9,580.1v-17.5h27.7l-0.2,18c0,2.9-3.3,3.9-6.7,3.9l-15.1-0.2C602.4,584.5,600.5,583.2,600.9,580.1
	L600.9,580.1z"/>
<path class="st3" d="M456,558.4c-5.9,0-5.9-9-0.2-9h180.8c5.5,0,5.7,9-0.2,9H456L456,558.4z"/>
<path class="st3" d="M460.5,544.4c-1.2-2-2.2-4-2.4-6.1h33.6c2.2-3.1,2.2-5,2.2-8.1h-35.6l-0.2-4h35.8c0-2.9-1-5.9-3.3-8.1h-32.5
	c0-2,0.2-3.9,2.4-5.9c2-1.1,5.1-2.6,7.5-2.9c51.7-9.8,102.7-10.3,156-1.1c2.4,0.7,4.9,1.1,8.1,2.9c2.2,2,3.3,5,3.3,7h-32.1
	c-3.5,2.2-3.9,5.2-3.9,8.1h36.2l-0.2,4h-36c0,3.1-0.8,6.1,3.7,8.1h32.3c0,2-1,4-3.3,6.1H460.5L460.5,544.4z"/>
<path class="st3" d="M467,505.1l12.4-38.3c3.3-4,6.7-6.3,11-7.2c36.8-5,73.6-5,111.5,0.2c4.7,0.7,7.9,3.9,11.2,7.9l11.2,35.3l-10-2
	l-8.9-28.1c-1-3.1-3.3-4-6.7-6.1c-34.6-4-69.2-4-103.7,0c-4.5,0.7-5.5,1.7-7.7,5l-9.2,30.2L467,505.1L467,505.1z"/>
<path class="st4" d="M458.1,517.9c-0.3,4.9-0.3,12.6,0.1,20.6h33.7c2.3-3.2,2.3-5.1,2.3-8.3v-4.1c0-3-1-6-3.4-8.3H458.1L458.1,517.9
	z"/>
<path class="st4" d="M635.4,517.9c0.3,4.9,0.3,12.6-0.1,20.6h-33.7c-2.3-3.2-2.6-5.1-2.6-8.3v-4.1c0-3,1.3-6,3.6-8.3H635.4
	L635.4,517.9z"/>
<path class="st5" d="M521.7,518.2h49.1c1.8,0,3.3,1.3,3.3,3v14.2c0,1.7-1.5,3-3.3,3h-49.1c-1.8,0-3.3-1.3-3.3-3v-14.2
	C518.4,519.6,519.9,518.2,521.7,518.2L521.7,518.2z"/>
<path class="st6" d="M668.6,584.6c-2.3,0-1.4,0.1-2-0.1c-53.1-9.2-104.1-8-155.4,1.1c0,0-0.3,0.3-2.5,0.4c0,0,0.9-2.8,0.9-3.1
	l12.9-39.6c3.2-4,6.7-6.2,10.9-7.1c36.6-5,73.4-5,111,0.1c4.7,0.8,8,3.9,11.2,7.9l11.2,35.2L668.6,584.6L668.6,584.6z"/>
<path class="st3" d="M505.6,656.5v-17.5H533v18c0,2.9-3.3,3.9-6.7,3.9l-14.4-0.2C506.8,660.9,505.6,659.7,505.6,656.5L505.6,656.5z"
	/>
<path class="st3" d="M643.8,656.5v-17.5h27.7l-0.2,18c0,2.9-3.3,3.9-6.7,3.9l-15.1-0.2C645.2,660.9,643.4,659.7,643.8,656.5
	L643.8,656.5z"/>
<path class="st3" d="M498.9,634.8c-5.9,0-5.9-9-0.2-9h180.8c5.5,0,5.7,9-0.2,9H498.9L498.9,634.8z"/>
<path class="st3" d="M503.3,620.8c-1.2-2-2.2-4-2.4-6.1h33.6c2.2-3.1,2.2-5,2.2-8.1h-35.6l-0.2-4h35.8c0-2.9-1-5.9-3.3-8.1h-32.5
	c0-2,0.2-3.9,2.4-5.9c2-1.1,5.1-2.6,7.5-2.9c51.7-9.8,102.7-10.3,156-1.1c2.4,0.7,4.9,1.1,8.1,2.9c2.2,2,3.3,5,3.3,7h-32.1
	c-3.5,2.2-3.9,5.1-3.9,8.1h36.2l-0.2,4h-36c0,3.1-0.8,6.1,3.7,8.1h32.3c0,2-1,4-3.3,6.1H503.3L503.3,620.8z"/>
<path class="st3" d="M509.8,581.5l12.4-38.3c3.3-4,6.7-6.3,11-7.2c36.8-5,73.6-5,111.5,0.2c4.7,0.7,7.9,3.9,11.2,7.9l11.2,35.3
	l-10-2l-8.9-28.1c-1-3.1-3.3-4-6.7-6.1c-34.6-4-69.2-4-103.7,0c-4.5,0.7-5.5,1.7-7.7,5l-9.2,30.2L509.8,581.5L509.8,581.5z"/>
<path class="st4" d="M500.9,594.3c-0.3,4.9-0.3,12.6,0.1,20.6h33.7c2.3-3.2,2.3-5.1,2.3-8.3v-4.1c0-3-1-6-3.4-8.3H500.9L500.9,594.3
	z"/>
<path class="st4" d="M678.2,594.3c0.3,4.9,0.3,12.6-0.1,20.6h-33.7c-2.3-3.2-2.6-5.1-2.6-8.3v-4.1c0-3,1.3-6,3.6-8.3H678.2
	L678.2,594.3z"/>
<path class="st5" d="M564.6,594.7h49.1c1.8,0,3.3,1.3,3.3,3v14.2c0,1.7-1.5,3-3.3,3h-49.1c-1.8,0-3.3-1.3-3.3-3v-14.2
	C561.3,596,562.7,594.7,564.6,594.7L564.6,594.7z"/>
<path class="st6" d="M718.5,644.2c-2.3,0-1.5,0.1-2.1-0.1c-53.8-9.3-105.6-8.1-157.6,1.1c0,0-0.3,0.3-2.6,0.4c0,0,0.9-2.8,0.9-3.1
	l13.1-40.2c3.3-4,6.8-6.3,11.1-7.2c37.2-5,74.4-5,112.6,0.2c4.7,0.8,8.1,4,11.3,8l11.3,35.7L718.5,644.2L718.5,644.2z"/>
<path class="st3" d="M553.1,717.2v-17.7H581v18.3c0,3-3.3,3.9-6.8,3.9l-14.6-0.2C554.4,721.7,553.1,720.4,553.1,717.2L553.1,717.2z"
	/>
<path class="st3" d="M693.3,717.2v-17.7h28.1l-0.2,18.3c0,3-3.3,3.9-6.8,3.9l-15.3-0.2C694.8,721.7,692.9,720.4,693.3,717.2
	L693.3,717.2z"/>
<path class="st3" d="M546.3,695.2c-6,0-6-9.1-0.2-9.1h183.4c5.6,0,5.8,9.1-0.2,9.1H546.3L546.3,695.2z"/>
<path class="st3" d="M550.9,681c-1.2-2.1-2.3-4.1-2.5-6.2h34.1c2.3-3.2,2.3-5,2.3-8.2h-36.1l-0.2-4.1h36.3c0-3-1-6-3.3-8.2h-33
	c0-2.1,0.2-3.9,2.5-6c2.1-1.1,5.2-2.6,7.6-3c52.4-9.9,104.2-10.4,158.3-1.1c2.5,0.7,5,1.1,8.3,3c2.3,2.1,3.3,5,3.3,7.1h-32.6
	c-3.5,2.2-3.9,5.2-3.9,8.2h36.7l-0.2,4.1h-36.5c0,3.2-0.8,6.2,3.7,8.2h32.8c0,2.1-1,4.1-3.3,6.2H550.9L550.9,681z"/>
<path class="st3" d="M557.5,641l12.6-38.8c3.3-4.1,6.8-6.3,11.1-7.3c37.3-5,74.7-5,113.1,0.2c4.7,0.7,8,3.9,11.3,8L717,639
	l-10.1-2.1l-9.1-28.6c-1-3.2-3.3-4.1-6.8-6.2c-35.1-4.1-70.2-4.1-105.2,0c-4.5,0.7-5.6,1.7-7.8,5l-9.3,30.6L557.5,641L557.5,641z"/>
<path class="st4" d="M548.4,654.1c-0.3,5-0.3,12.8,0.1,20.9h34.2c2.4-3.2,2.4-5.1,2.4-8.4v-4.1c0-3.1-1.1-6.1-3.4-8.4H548.4
	L548.4,654.1z"/>
<path class="st4" d="M728.3,654.1c0.3,5,0.3,12.8-0.1,20.9H694c-2.4-3.2-2.6-5.1-2.6-8.4v-4.1c0-3.1,1.3-6.1,3.7-8.4H728.3
	L728.3,654.1z"/>
<path class="st5" d="M613,654.4h49.8c1.8,0,3.4,1.4,3.4,3v14.4c0,1.7-1.5,3-3.4,3H613c-1.8,0-3.4-1.4-3.4-3v-14.4
	C609.6,655.8,611.1,654.4,613,654.4L613,654.4z"/>
<path class="st6" d="M407.6,430.7c-2.1,0-1.3,0.1-1.9-0.1c-48.8-8.4-95.7-7.3-142.9,1c0,0-0.2,0.3-2.3,0.4c0,0,0.9-2.5,0.9-2.8
	l11.9-36.5c3-3.7,6.2-5.7,10-6.5c33.7-4.6,67.5-4.6,102.1,0.1c4.3,0.7,7.3,3.6,10.3,7.3l10.3,32.4L407.6,430.7L407.6,430.7z"/>
<path class="st3" d="M257.7,496.8v-16.1h25.3v16.6c0,2.7-3,3.6-6.2,3.6l-13.3-0.2C258.8,500.9,257.7,499.7,257.7,496.8L257.7,496.8z
	"/>
<path class="st3" d="M384.8,496.8v-16.1h25.4l-0.2,16.6c0,2.7-3,3.6-6.2,3.6l-13.8-0.2C386.1,500.9,384.4,499.7,384.8,496.8
	L384.8,496.8z"/>
<path class="st3" d="M251.5,476.9c-5.4,0-5.4-8.3-0.2-8.3h166.3c5.1,0,5.2,8.3-0.2,8.3H251.5L251.5,476.9z"/>
<path class="st3" d="M255.6,464c-1.1-1.9-2.1-3.7-2.2-5.6h30.9c2.1-2.9,2.1-4.6,2.1-7.4h-32.7l-0.2-3.7h32.9c0-2.7-0.9-5.4-3-7.4
	h-29.9c0-1.9,0.2-3.6,2.2-5.4c1.9-1,4.7-2.4,6.9-2.7c47.5-9,94.5-9.5,143.5-1c2.2,0.7,4.5,1,7.5,2.7c2.1,1.9,3,4.6,3,6.4h-29.6
	c-3.2,2-3.6,4.7-3.6,7.4h33.3l-0.2,3.7h-33.1c0,2.9-0.7,5.6,3.4,7.4h29.7c0,1.9-0.9,3.7-3,5.6H255.6L255.6,464z"/>
<path class="st3" d="M261.6,427.8l11.4-35.2c3-3.7,6.2-5.8,10.1-6.6c33.9-4.6,67.7-4.6,102.5,0.2c4.3,0.7,7.3,3.6,10.3,7.3
	l10.3,32.5l-9.2-1.9l-8.2-25.9c-0.9-2.9-3-3.7-6.2-5.6c-31.8-3.7-63.6-3.7-95.4,0c-4.1,0.7-5.1,1.5-7.1,4.6l-8.4,27.7L261.6,427.8
	L261.6,427.8z"/>
<path class="st4" d="M253.4,439.6c-0.3,4.5-0.3,11.6,0.1,18.9h31c2.1-2.9,2.1-4.7,2.1-7.6v-3.7c0-2.8-1-5.5-3.1-7.6H253.4
	L253.4,439.6z"/>
<path class="st4" d="M416.4,439.6c0.3,4.5,0.3,11.6-0.1,18.9h-31c-2.1-2.9-2.4-4.7-2.4-7.6v-3.7c0-2.8,1.2-5.5,3.3-7.6H416.4
	L416.4,439.6z"/>
<path class="st5" d="M311.9,439.9h45.1c1.7,0,3,1.2,3,2.8v13.1c0,1.5-1.4,2.8-3,2.8h-45.1c-1.7,0-3-1.2-3-2.8v-13.1
	C308.9,441.2,310.3,439.9,311.9,439.9L311.9,439.9z"/>
<path class="st6" d="M400.9,507c-2.3,0-1.4,0.1-2-0.1c-53.1-9.2-104.1-8-155.4,1.1c0,0-0.3,0.3-2.5,0.4c0,0,0.9-2.8,0.9-3.1
	l12.9-39.6c3.2-4,6.7-6.2,10.9-7.1c36.6-5,73.4-5,111,0.2c4.7,0.8,8,3.9,11.2,7.9l11.2,35.2L400.9,507L400.9,507z"/>
<path class="st3" d="M238,578.9v-17.5h27.5v18c0,2.9-3.3,3.9-6.7,3.9l-14.4-0.2C239.2,583.3,238,582,238,578.9L238,578.9z"/>
<path class="st3" d="M376.2,578.9v-17.5h27.7l-0.2,18c0,2.9-3.3,3.9-6.7,3.9l-15.1-0.2C377.6,583.3,375.8,582,376.2,578.9
	L376.2,578.9z"/>
<path class="st3" d="M231.3,557.2c-5.9,0-5.9-9-0.2-9h180.8c5.5,0,5.7,9-0.2,9H231.3L231.3,557.2z"/>
<path class="st3" d="M235.7,543.2c-1.2-2-2.2-4-2.4-6.1h33.6c2.2-3.1,2.2-5,2.2-8.1h-35.6l-0.2-4h35.8c0-2.9-1-5.9-3.3-8.1h-32.5
	c0-2,0.2-3.9,2.4-5.9c2-1.1,5.1-2.6,7.5-2.9c51.7-9.7,102.7-10.3,156-1.1c2.4,0.7,4.9,1.1,8.1,2.9c2.2,2,3.3,5,3.3,7h-32.1
	c-3.5,2.2-3.9,5.2-3.9,8.1h36.2l-0.2,4h-36c0,3.1-0.8,6.1,3.7,8.1h32.3c0,2-1,4-3.3,6.1H235.7L235.7,543.2z"/>
<path class="st3" d="M242.2,503.8l12.4-38.3c3.3-4,6.7-6.3,11-7.2c36.8-5,73.6-5,111.5,0.2c4.7,0.7,7.9,3.9,11.2,7.9l11.2,35.3
	l-10-2l-9-28.1c-1-3.1-3.3-4-6.7-6.1c-34.6-4-69.2-4-103.7,0c-4.5,0.7-5.5,1.7-7.7,5l-9.2,30.2L242.2,503.8L242.2,503.8z"/>
<path class="st4" d="M233.3,516.7c-0.3,4.9-0.3,12.6,0.1,20.6h33.7c2.3-3.2,2.3-5.1,2.3-8.3V525c0-3-1-6-3.4-8.3H233.3L233.3,516.7z
	"/>
<path class="st4" d="M410.6,516.7c0.3,4.9,0.3,12.6-0.1,20.6h-33.7c-2.3-3.2-2.6-5.1-2.6-8.3V525c0-3,1.3-6,3.6-8.3H410.6
	L410.6,516.7z"/>
<path class="st5" d="M297,517h49.1c1.8,0,3.3,1.3,3.3,3v14.2c0,1.7-1.5,3-3.3,3H297c-1.8,0-3.3-1.3-3.3-3V520
	C293.6,518.4,295.1,517,297,517L297,517z"/>
<path class="st6" d="M422.6,584.6c-2.3,0-1.4,0.1-2-0.1c-53.1-9.2-104.1-8-155.4,1.1c0,0-0.3,0.3-2.5,0.4c0,0,0.9-2.8,0.9-3.1
	l12.9-39.6c3.2-4,6.7-6.2,10.9-7.1c36.6-5,73.4-5,111,0.2c4.7,0.8,8,3.9,11.2,7.9l11.2,35.2L422.6,584.6L422.6,584.6z"/>
<path class="st3" d="M259.6,656.5v-17.5h27.5v18c0,2.9-3.3,3.9-6.7,3.9l-14.4-0.2C260.8,660.9,259.6,659.7,259.6,656.5L259.6,656.5z
	"/>
<path class="st3" d="M397.8,656.5v-17.5h27.7l-0.2,18c0,2.9-3.3,3.9-6.7,3.9l-15.1-0.2C399.2,660.9,397.4,659.7,397.8,656.5
	L397.8,656.5z"/>
<path class="st3" d="M252.9,634.8c-5.9,0-5.9-9-0.2-9h180.8c5.5,0,5.7,9-0.2,9H252.9L252.9,634.8z"/>
<path class="st3" d="M257.4,620.8c-1.2-2-2.2-4-2.4-6.1h33.6c2.2-3.1,2.2-5,2.2-8.1h-35.6l-0.2-4h35.8c0-2.9-1-5.9-3.3-8.1h-32.5
	c0-2,0.2-3.9,2.4-5.9c2-1.1,5.1-2.6,7.5-2.9c51.7-9.7,102.7-10.3,156-1.1c2.4,0.7,4.9,1.1,8.1,2.9c2.2,2,3.3,5,3.3,7h-32.1
	c-3.5,2.2-3.9,5.1-3.9,8.1h36.2l-0.2,4h-36c0,3.1-0.8,6.1,3.7,8.1h32.3c0,2-1,4-3.3,6.1H257.4L257.4,620.8z"/>
<path class="st3" d="M263.9,581.5l12.4-38.3c3.3-4,6.7-6.3,11-7.2c36.8-5,73.6-5,111.5,0.2c4.7,0.7,7.9,3.9,11.2,7.9l11.2,35.3
	l-10-2l-9-28.1c-1-3.1-3.3-4-6.7-6.1c-34.6-4-69.2-4-103.7,0c-4.5,0.7-5.5,1.7-7.7,5l-9.1,30.2L263.9,581.5L263.9,581.5z"/>
<path class="st4" d="M254.9,594.3c-0.3,4.9-0.3,12.6,0.1,20.6h33.7c2.3-3.2,2.3-5.1,2.3-8.3v-4.1c0-3-1-6-3.4-8.3H254.9L254.9,594.3
	z"/>
<path class="st4" d="M432.2,594.3c0.3,4.9,0.3,12.6-0.1,20.6h-33.7c-2.3-3.2-2.6-5.1-2.6-8.3v-4.1c0-3,1.3-6,3.6-8.3H432.2
	L432.2,594.3z"/>
<path class="st5" d="M318.6,594.7h49.1c1.8,0,3.3,1.3,3.3,3v14.2c0,1.6-1.5,3-3.3,3h-49.1c-1.8,0-3.3-1.4-3.3-3v-14.2
	C315.3,596,316.8,594.7,318.6,594.7L318.6,594.7z"/>
<path class="st6" d="M451.5,644.2c-2.3,0-1.5,0.1-2.1-0.1c-53.8-9.3-105.6-8.1-157.6,1.1c0,0-0.3,0.3-2.6,0.4c0,0,0.9-2.8,0.9-3.1
	l13.1-40.2c3.3-4,6.8-6.3,11.1-7.2c37.2-5,74.4-5,112.6,0.2c4.7,0.8,8.1,4,11.3,8l11.3,35.7L451.5,644.2L451.5,644.2z"/>
<path class="st3" d="M286.1,717.2v-17.7H314v18.3c0,3-3.3,3.9-6.8,3.9l-14.6-0.2C287.4,721.6,286.1,720.3,286.1,717.2L286.1,717.2z"
	/>
<path class="st3" d="M426.3,717.2v-17.7h28.1l-0.2,18.3c0,3-3.3,3.9-6.8,3.9l-15.3-0.2C427.8,721.6,425.9,720.3,426.3,717.2
	L426.3,717.2z"/>
<path class="st3" d="M279.3,695.1c-6,0-6-9.1-0.2-9.1h183.4c5.6,0,5.8,9.1-0.2,9.1H279.3L279.3,695.1z"/>
<path class="st3" d="M283.8,681c-1.2-2.1-2.3-4.1-2.5-6.2h34.1c2.3-3.2,2.3-5,2.3-8.2h-36.1l-0.2-4.1h36.3c0-3-1-6-3.3-8.2h-33
	c0-2.1,0.2-3.9,2.5-6c2.1-1.1,5.2-2.6,7.6-3c52.4-9.9,104.2-10.5,158.3-1.1c2.5,0.7,5,1.1,8.3,3c2.3,2.1,3.3,5,3.3,7.1h-32.6
	c-3.5,2.2-3.9,5.2-3.9,8.2h36.7l-0.2,4.1h-36.5c0,3.2-0.8,6.2,3.7,8.2h32.8c0,2.1-1,4.1-3.3,6.2H283.8L283.8,681z"/>
<path class="st3" d="M290.5,641l12.6-38.8c3.3-4.1,6.8-6.3,11.1-7.3c37.4-5,74.7-5,113.1,0.2c4.7,0.7,8,3.9,11.3,8L450,639
	l-10.1-2.1l-9.1-28.6c-1-3.2-3.3-4.1-6.8-6.2c-35.1-4.1-70.2-4.1-105.2,0c-4.5,0.7-5.6,1.7-7.8,5l-9.3,30.6L290.5,641L290.5,641z"/>
<path class="st4" d="M281.4,654.1c-0.3,5-0.3,12.8,0.1,20.9h34.2c2.4-3.2,2.4-5.1,2.4-8.4v-4.1c0-3.1-1-6.1-3.4-8.4H281.4
	L281.4,654.1z"/>
<path class="st4" d="M461.2,654.1c0.4,5,0.4,12.8-0.1,20.9h-34.2c-2.4-3.2-2.6-5.1-2.6-8.4v-4.1c0-3.1,1.3-6.1,3.7-8.4H461.2
	L461.2,654.1z"/>
<path class="st5" d="M346,654.4h49.8c1.8,0,3.4,1.4,3.4,3v14.4c0,1.7-1.5,3-3.4,3H346c-1.8,0-3.4-1.4-3.4-3v-14.4
	C342.6,655.8,344.1,654.4,346,654.4L346,654.4z"/>
</svg>
