<?xml version="1.0" encoding="utf-8"?>
<!-- Generator: Adobe Illustrator 19.2.0, SVG Export Plug-In . SVG Version: 6.00 Build 0)  -->
<svg version="1.1" id="Livello_1" xmlns="http://www.w3.org/2000/svg" xmlns:xlink="http://www.w3.org/1999/xlink" x="0px" y="0px"
	 viewBox="0 0 960 960" style="enable-background:new 0 0 960 960;" xml:space="preserve">
<style type="text/css">
	.st0{opacity:1.000000e-002;fill:#FFFFFF;}
	.st1{fill:#FFFFFF;stroke:#1A171B;stroke-width:1.1838;stroke-miterlimit:2.6131;}
	.st2{fill:none;stroke:#1A171B;stroke-width:7.8917;stroke-miterlimit:2.6131;}
	.st3{fill-rule:evenodd;clip-rule:evenodd;fill:#1A171B;stroke:#1A171B;stroke-width:1.1838;stroke-miterlimit:2.6131;}
</style>
<rect class="st0" width="1" height="1"/>
<rect x="959" y="959" class="st0" width="1" height="1"/>
<g>
	<g>
		<polygon class="st1" points="180,366.5 780,366.5 780,593.5 180,593.5 180,366.5 		"/>
		<path class="st2" d="M225.9,382.8h508.1c16.3,0,29.7,13.3,29.7,29.7v135.3c0,16.3-13.3,29.7-29.7,29.7H225.9
			c-16.3,0-29.7-13.3-29.7-29.7V412.4C196.3,396.1,209.6,382.8,225.9,382.8L225.9,382.8z"/>
		<path class="st3" d="M377.8,474.4c-7.8,3-12.8,3.2-20.7,3.2H290l75.8-77.8l18.2,17.6c11.1,10.7,14.8,19.9,12.4,29.9l-7.9-8
			c-14.6-7.7-31,10.5-20.9,24.8L377.8,474.4L377.8,474.4z"/>
		<path class="st3" d="M519.6,485.2l-67.6-0.2l23.4-15.5l44.2,0.2V485.2L519.6,485.2z M579.5,484.9l-46.6,0.2
			c-11.6,0-11.6-15.7-0.2-15.7h25.8l-1.9-18.3c0-16.3,27.3-15.2,27.5,0L579.5,484.9L579.5,484.9z M586.4,469.5h30.1l21.5,15.5
			l-53.7,0.2L586.4,469.5L586.4,469.5z"/>
		<path class="st3" d="M387.5,447.3l73,73c3.8,3.8,3.8,9.9,0,13.7c-3.8,3.8-9.9,3.8-13.7,0l-73-73c-3.8-3.8-3.8-9.9,0-13.7
			C377.6,443.5,383.8,443.5,387.5,447.3L387.5,447.3z"/>
		<path class="st3" d="M638,518.6c4.4,0,8,3.6,8,8c0,4.4-3.6,8-8,8c-4.4,0-8-3.6-8-8C630,522.2,633.6,518.6,638,518.6L638,518.6z"/>
		<path class="st3" d="M457,506.4l-11.3-11.3c2.5-0.6,4.1-0.5,6.8-0.5c61.6,0,123.8,0.1,185.5,0.1c17.6,0,32,14.4,32,32
			c0,17.6-14.4,32-32,32c-61.6,0-123.8-0.1-185.5-0.1c-17.6,0-32-14.4-32-32c0-2.6,0.3-5.1,0.8-7.6l11.8,11.8
			c1.9,8.9,9.9,15.5,19.3,15.5c10.8,0,19.7-8.9,19.7-19.7C472.2,517.2,464.8,508.8,457,506.4L457,506.4z M638,507
			c10.8,0,19.7,8.9,19.7,19.7c0,10.8-8.9,19.7-19.7,19.7c-10.8,0-19.7-8.9-19.7-19.7C618.3,515.9,627.2,507,638,507L638,507z"/>
		<path class="st3" d="M569.9,414.8c5.8,0,10.6,4.8,10.6,10.6c0,5.8-4.8,10.6-10.6,10.6c-5.8,0-10.6-4.8-10.6-10.6
			C559.3,419.6,564,414.8,569.9,414.8L569.9,414.8z"/>
	</g>
</g>
</svg>
