<?xml version="1.0" encoding="utf-8"?>
<!-- Generator: Adobe Illustrator 19.2.0, SVG Export Plug-In . SVG Version: 6.00 Build 0)  -->
<svg version="1.1" id="Livello_1" xmlns="http://www.w3.org/2000/svg" xmlns:xlink="http://www.w3.org/1999/xlink" x="0px" y="0px"
	 viewBox="0 0 960 960" style="enable-background:new 0 0 960 960;" xml:space="preserve">
<style type="text/css">
	.st0{opacity:1.000000e-002;fill:#FFFFFF;}
	.st1{fill-rule:evenodd;clip-rule:evenodd;fill:#005EA7;}
	.st2{fill-rule:evenodd;clip-rule:evenodd;fill:#005EA7;stroke:#FFFFFF;stroke-width:7.8917;stroke-miterlimit:2.6131;}
	.st3{fill-rule:evenodd;clip-rule:evenodd;fill:#FFFFFF;}
</style>
<rect class="st0" width="1" height="1"/>
<rect x="959" y="959" class="st0" width="1" height="1"/>
<g>
	<g>
		<polygon class="st1" points="180,366.5 780,366.5 780,593.5 180,593.5 180,366.5 		"/>
		<path class="st2" d="M225.9,382.8h508.1c16.3,0,29.7,13.3,29.7,29.7v135.3c0,16.3-13.3,29.7-29.7,29.7H225.9
			c-16.3,0-29.7-13.3-29.7-29.7V412.4C196.3,396.1,209.6,382.8,225.9,382.8L225.9,382.8z"/>
		<polygon class="st3" points="607.2,432.2 601.3,410.4 610.5,407.8 613.8,420.5 622,406.6 638,415.8 628.8,432 645,427.8 
			647.4,436.7 622,443.5 607.2,469.3 640.8,469.3 656.8,453.4 663.3,459.9 653.9,468.8 670.4,469.3 670.4,487.6 651.6,487.6 
			663.3,499.8 656.8,506.4 638.4,487.6 605.8,487.6 622.5,516.1 647.6,522.6 645.5,532 629.1,527.6 638.7,543.8 622.5,552.9 
			614,538.6 610.5,552 601.6,549.2 607.2,526.9 590.5,498 575.5,524 582.3,549.4 573.2,552 568.9,535.5 559.5,552 543.3,542.6 
			551.8,528 538.4,531.8 536.3,522.6 558.6,516.3 575.3,487.6 545.5,487.6 526.7,506.4 520.1,499.8 531.8,487.6 513,487.6 
			513,469.3 530,469.3 520.1,459.5 527.1,452.9 543.6,469.3 573.9,469.3 558.8,442.8 537,436.9 539.3,427.5 551.8,431 544,416.9 
			560,407.6 569.4,423.8 573.9,407.6 582.8,410.1 576,435.5 590.5,461.1 607.2,432.2 		"/>
		<polygon class="st3" points="381.2,432.2 375.3,410.4 384.5,407.8 387.8,420.5 396,406.6 412,415.8 402.8,432 419,427.8 
			421.4,436.7 396,443.5 381.2,469.3 414.8,469.3 430.7,453.4 437.3,459.9 427.9,468.8 444.4,469.3 444.4,487.6 425.6,487.6 
			437.3,499.8 430.7,506.4 412.4,487.6 379.8,487.6 396.5,516.1 421.6,522.6 419.5,532 403,527.6 412.7,543.8 396.5,552.9 
			388,538.6 384.5,552 375.6,549.2 381.2,526.9 364.5,498 349.5,524 356.3,549.4 347.1,552 342.9,535.5 333.5,552 317.3,542.6 
			325.8,528 312.4,531.8 310.3,522.6 332.6,516.3 349.3,487.6 319.4,487.6 300.6,506.4 294.1,499.8 305.8,487.6 287,487.6 
			287,469.3 303.9,469.3 294.1,459.5 301.1,452.9 317.6,469.3 347.8,469.3 332.8,442.8 311,436.9 313.3,427.5 325.8,431 318,416.9 
			334,407.6 343.4,423.8 347.8,407.6 356.8,410.1 350,435.5 364.5,461.1 381.2,432.2 		"/>
	</g>
</g>
</svg>
