<?xml version="1.0" encoding="utf-8"?>
<!-- Generator: Adobe Illustrator 19.2.0, SVG Export Plug-In . SVG Version: 6.00 Build 0)  -->
<svg version="1.1" id="Livello_1" xmlns="http://www.w3.org/2000/svg" xmlns:xlink="http://www.w3.org/1999/xlink" x="0px" y="0px"
	 viewBox="0 0 960 960" style="enable-background:new 0 0 960 960;" xml:space="preserve">
<style type="text/css">
	.st0{opacity:1.000000e-002;fill:#FFFFFF;}
	.st1{fill:#FFFFFF;stroke:#1A171B;stroke-width:1.1838;stroke-miterlimit:2.6131;}
	.st2{fill:none;stroke:#1A171B;stroke-width:7.8917;stroke-miterlimit:2.6131;}
	.st3{fill-rule:evenodd;clip-rule:evenodd;fill:#1A171B;stroke:#1A171B;stroke-width:1.1838;stroke-miterlimit:2.6131;}
	.st4{fill-rule:evenodd;clip-rule:evenodd;fill:#C5C6C8;stroke:#C5C6C8;stroke-width:1.1838;stroke-miterlimit:2.6131;}
</style>
<rect class="st0" width="1" height="1"/>
<rect x="959" y="959" class="st0" width="1" height="1"/>
<g>
	<g>
		<polygon class="st1" points="180,366.5 780,366.5 780,593.5 180,593.5 180,366.5 		"/>
		<path class="st2" d="M225.9,382.8h508.1c16.3,0,29.7,13.3,29.7,29.7v135.3c0,16.3-13.3,29.7-29.7,29.7H225.9
			c-16.3,0-29.7-13.3-29.7-29.7V412.4C196.3,396.1,209.6,382.8,225.9,382.8L225.9,382.8z"/>
		<polygon class="st3" points="378.6,418.7 385.1,424.7 372.2,436.7 365.8,430.6 378.6,418.7 		"/>
		<polygon class="st3" points="358,437.9 364.5,443.9 338.8,467.8 332.3,461.8 358,437.9 		"/>
		<polygon class="st3" points="305.2,487 311.7,493 289.8,513.4 283.4,507.3 305.2,487 		"/>
		<polygon class="st3" points="261.5,527.7 268,533.7 248.6,551.7 242.2,545.7 261.5,527.7 		"/>
		<polygon class="st3" points="297.5,513.4 304,519.4 280.8,540.9 274.3,534.9 297.5,513.4 		"/>
		<polygon class="st3" points="346.4,467.8 352.9,473.8 334.9,490.6 328.4,484.6 346.4,467.8 		"/>
		<polygon class="st3" points="377.3,439 383.8,445.1 373.5,454.7 367,448.6 377.3,439 		"/>
		<polygon class="st3" points="388.9,447.4 395.4,453.5 369.7,477.4 363.2,471.4 388.9,447.4 		"/>
		<polygon class="st3" points="350.3,483.4 356.7,489.4 343.9,501.4 337.4,495.4 350.3,483.4 		"/>
		<polygon class="st3" points="328.4,503.8 334.9,509.8 311.7,531.4 305.2,525.3 328.4,503.8 		"/>
		<polygon class="st3" points="369.6,484.6 376.1,490.6 359.4,506.2 352.9,500.1 369.6,484.6 		"/>
		<polygon class="st3" points="329.7,521.8 336.1,527.8 304,557.7 297.5,551.7 329.7,521.8 		"/>
		<polygon class="st3" points="416,460.6 422.5,466.6 413.4,475 407,469 416,460.6 		"/>
		<polygon class="st3" points="396.7,478.6 403.1,484.6 381.3,505 374.8,498.9 396.7,478.6 		"/>
		<polygon class="st3" points="356.7,515.7 363.2,521.8 341.3,542.1 334.9,536.1 356.7,515.7 		"/>
		<polygon class="st3" points="414.6,481 421.1,487.1 401.9,505 395.4,498.9 414.6,481 		"/>
		<polygon class="st3" points="379.9,513.4 386.4,519.4 371,533.7 364.5,527.7 379.9,513.4 		"/>
		<polygon class="st3" points="403,511 409.5,517 388.9,536.2 382.4,530.2 403,511 		"/>
		<polygon class="st3" points="441.7,475 448.2,481 430.1,497.8 423.6,491.8 441.7,475 		"/>
		<polygon class="st3" points="428.8,506.2 435.3,512.2 418.5,527.8 412.1,521.8 428.8,506.2 		"/>
		<polygon class="st3" points="400.5,532.5 407,538.6 392.8,551.7 386.4,545.7 400.5,532.5 		"/>
		<polygon class="st3" points="430.1,524.1 436.6,530.2 414.7,550.5 408.2,544.5 430.1,524.1 		"/>
		<polygon class="st3" points="466.1,490.6 472.6,496.7 452,515.8 445.5,509.8 466.1,490.6 		"/>
		<polygon class="st3" points="480.3,496.6 486.8,502.6 479.1,509.8 472.6,503.8 480.3,496.6 		"/>
		<polygon class="st3" points="454.5,520.6 461,526.6 445.6,540.9 439.1,534.9 454.5,520.6 		"/>
		<polygon class="st3" points="484.2,512.2 490.6,518.2 471.3,536.2 464.8,530.2 484.2,512.2 		"/>
		<polygon class="st3" points="453.3,540.9 459.7,547 449.4,556.6 443,550.5 453.3,540.9 		"/>
		<polygon class="st3" points="512.5,505 519,511 506.1,523 499.7,516.9 512.5,505 		"/>
		<polygon class="st3" points="484.2,531.4 490.6,537.4 470,556.6 463.6,550.5 484.2,531.4 		"/>
		<path class="st4" d="M397.8,399.4h346.4v130.1c-26.8-2.5-43-15-51-32.6c-29.7,32.6-96.8,30.1-120.9,0c-48.3,10.1-83.3-5-99.2-34.8
			C446.3,464.5,397.8,452,397.8,399.4L397.8,399.4z"/>
	</g>
</g>
</svg>
