<?xml version="1.0" encoding="utf-8"?>
<!-- Generator: Adobe Illustrator 19.2.0, SVG Export Plug-In . SVG Version: 6.00 Build 0)  -->
<svg version="1.1" id="Livello_1" xmlns="http://www.w3.org/2000/svg" xmlns:xlink="http://www.w3.org/1999/xlink" x="0px" y="0px"
	 viewBox="0 0 960 960" style="enable-background:new 0 0 960 960;" xml:space="preserve">
<style type="text/css">
	.st0{opacity:1.000000e-002;fill:#FFFFFF;}
	.st1{fill:#FFFFFF;stroke:#1A171B;stroke-width:1.2748;stroke-miterlimit:2.6131;}
	.st2{fill:none;stroke:#1A171B;stroke-width:8.4987;stroke-miterlimit:2.6131;}
	.st3{fill-rule:evenodd;clip-rule:evenodd;fill:#1A171B;stroke:#1A171B;stroke-width:1.2748;stroke-miterlimit:2.6131;}
	.st4{fill-rule:evenodd;clip-rule:evenodd;fill:#FFFFFF;stroke:#FFFFFF;stroke-width:1.2748;stroke-miterlimit:2.6131;}
	.st5{fill-rule:evenodd;clip-rule:evenodd;fill:#FFFFFF;stroke:#1A171B;stroke-width:1.2748;stroke-miterlimit:2.6131;}
</style>
<rect class="st0" width="1" height="1"/>
<rect x="959" y="959" class="st0" width="1" height="1"/>
<g>
	<g>
		<polygon class="st1" points="780,338.8 180,338.8 180,621.2 780,621.2 780,338.8 		"/>
		<path class="st2" d="M238.5,359.4h483.1c22.4,0,40.8,18.4,40.8,40.8v160.4c0,22.4-18.4,40.8-40.8,40.8H238.5
			c-22.4,0-40.8-18.4-40.8-40.8V400.3C197.7,377.8,216.1,359.4,238.5,359.4L238.5,359.4z"/>
		<path class="st3" d="M494.2,486.3c-10.5-2-20.7,5-22.6,15.6c-2,10.5,5,20.7,15.6,22.6c10.5,2,20.7-5,22.6-15.6
			C511.7,498.5,504.7,488.3,494.2,486.3L494.2,486.3z"/>
		<path class="st3" d="M658.8,516.8c-10.5-1.9-20.7,5-22.6,15.6c-1.9,10.5,5,20.7,15.6,22.6c10.5,1.9,20.7-5,22.6-15.6
			C676.3,529,669.4,518.8,658.8,516.8L658.8,516.8z"/>
		<path class="st3" d="M464.9,505.8c0.9-11.6,5.1-17.7,13.1-22.6l-37.2-6.7l2.9,22L464.9,505.8L464.9,505.8z"/>
		<path class="st3" d="M630.2,536.6c0-10.1,3-17.1,12.4-22.9l-132.7-24.5c7.5,7.1,7.3,17.5,4.6,25.8L630.2,536.6L630.2,536.6z"/>
		<polygon class="st3" points="727.5,523.1 724.7,499.8 518,461.7 451.5,456.8 442.1,470.2 727.5,523.1 		"/>
		<polygon class="st3" points="528.1,457.1 558.6,435.9 595.7,442.8 591.1,468.6 597.2,469.8 602,444.1 639.5,451 648.9,479.4 
			671.9,483.7 650.7,446.1 557.6,429.4 519.6,455.6 528.1,457.1 		"/>
		<path class="st3" d="M715.2,548.1l11.2-18.9l-51.9-9.4c6.2,8.1,7.5,13.4,4.3,25.6L715.2,548.1L715.2,548.1z"/>
		<path class="st4" d="M657.2,525.8c-5.6-1-11,2.7-12,8.2c-1,5.6,2.7,11,8.2,12c5.6,1,11-2.7,12-8.2
			C666.4,532.3,662.7,526.9,657.2,525.8L657.2,525.8z"/>
		<path class="st4" d="M492.5,495.3c-5.6-1-10.9,2.7-12,8.2c-1,5.6,2.7,11,8.2,12c5.6,1,11-2.7,12-8.2
			C501.8,501.7,498.1,496.4,492.5,495.3L492.5,495.3z"/>
		<path class="st3" d="M232.2,535.9v-23.2h68.7c-7.2,3.9-12.1,14.4-11.4,23.2H232.2L232.2,535.9z"/>
		<path class="st3" d="M347.6,535.9c0-9.1-4.2-18.3-10.9-23.2c11.1,0,34.1,0,46.7,0v11.8L347.6,535.9L347.6,535.9z"/>
		<polygon class="st3" points="232.2,505.1 232.2,483.3 383.3,483.3 383.3,505.1 232.2,505.1 		"/>
		<path class="st3" d="M430.5,494.6L410,419l-41.3,58h-14.4l31.1-41.8l-48,41.8h-19l84.7-70.3c4.4-2.8,8.6-1.6,10.4,4.2l22.3,85.2
			L430.5,494.6L430.5,494.6z"/>
		<path class="st3" d="M318.4,512.3c12.1,0,22,9.9,22,22.1c0,12.1-9.9,22.1-22,22.1c-12.1,0-22.1-9.9-22.1-22.1
			C296.3,522.2,306.2,512.3,318.4,512.3L318.4,512.3z"/>
		<path class="st5" d="M318.4,525c5.1,0,9.3,4.2,9.3,9.3c0,5.1-4.2,9.3-9.3,9.3c-5.1,0-9.3-4.2-9.3-9.3
			C309.1,529.2,313.2,525,318.4,525L318.4,525z"/>
	</g>
</g>
</svg>
