<?xml version="1.0" encoding="utf-8"?>
<!-- Generator: Adobe Illustrator 19.2.0, SVG Export Plug-In . SVG Version: 6.00 Build 0)  -->
<svg version="1.1" id="Livello_1" xmlns="http://www.w3.org/2000/svg" xmlns:xlink="http://www.w3.org/1999/xlink" x="0px" y="0px"
	 viewBox="0 0 960 960" style="enable-background:new 0 0 960 960;" xml:space="preserve">
<style type="text/css">
	.st0{fill:#FFFFFF;stroke:#1A171B;stroke-width:1.1837;stroke-miterlimit:2.6131;}
	.st1{fill:none;stroke:#1A171B;stroke-width:7.8916;stroke-miterlimit:2.6131;}
	.st2{fill-rule:evenodd;clip-rule:evenodd;fill:#1A171B;}
</style>
<polygon class="st0" points="98.3,503.5 698.3,503.5 698.3,730.5 98.3,730.5 98.3,503.5 "/>
<path class="st1" d="M144.3,519.8h508.1c16.3,0,29.7,13.3,29.7,29.7v135.3c0,16.3-13.3,29.7-29.7,29.7H144.3
	c-16.3,0-29.7-13.3-29.7-29.7V549.4C114.6,533.1,128,519.8,144.3,519.8L144.3,519.8z"/>
<path class="st2" d="M148.8,635.3l14.8-1.9c0.2,4,1.6,7.3,3.5,9.1c1.8,1.9,4.6,3,7.4,3c2.8,0,5.5-1.2,7.6-3.5
	c2.1-2.3,3.2-5.9,3.2-10.1c0-4-0.9-7.3-2.8-9.6c-1.8-2.3-4.4-3.5-7.2-3.5c-1.6,0-3.9,0.5-6.2,1.2l1.4-12.4c3.7,0,6.9-0.7,8.8-2.6
	c2.1-1.9,3.2-4.5,3.2-7.7c0-2.6-0.9-4.9-2.3-6.3c-1.4-1.6-3.7-2.6-6-2.6c-2.3,0-4.6,0.9-6.2,2.8c-1.6,1.9-2.8,4.7-3,8l-14.3-2.3
	c0.9-4.9,2.3-9.1,4.2-11.9c1.9-2.8,4.9-5.4,8.1-7c3.5-1.6,7.4-2.6,11.6-2.6c7.4,0,13.4,2.6,17.8,7.5c3.7,3.7,5.5,8.4,5.5,13.4
	c0,7-3.9,12.9-11.6,17.1c4.6,0.9,8.3,3.3,11.1,6.6c2.8,3.5,4.2,8,4.2,12.9c0,7-2.5,13.4-7.6,18.3c-5.1,5.2-11.6,7.7-19.2,7.7
	c-6.9,0-13.2-2.1-17.8-6.3c-4.6-4.2-7.6-10.1-8.1-16.9V635.3L148.8,635.3z M272.9,598.3v12.2h-10.6v24.1c0,4.7,0.2,7.7,0.2,8.4
	c0,0.7,0.7,1.4,1.2,1.9c0.7,0.5,1.8,0.7,2.8,0.7c1.4,0,3.5-0.5,6.2-1.4l1.2,12.2c-3.5,1.4-7.6,2.3-12,2.3c-2.8,0-5.3-0.5-7.4-1.4
	c-2.3-0.9-3.9-2.1-4.9-3.5c-0.9-1.4-1.8-3.7-2.1-6.3c-0.2-1.6-0.5-5.4-0.5-11v-26h-7.4v-12.2h7.4V587l15.3-9.4v20.6H272.9
	L272.9,598.3z M279.4,626.8c0-4.9,1.4-10.1,3.7-14.8c2.3-4.9,6-8.9,10.6-11.2c4.6-2.6,9.9-4,15.5-4c8.8,0,16.2,3,21.7,8.7
	c5.5,5.9,8.6,13.4,8.6,22.3c0,8.9-3,16.4-8.6,22c-5.5,5.9-12.9,8.9-21.5,8.9c-5.3,0-10.6-1.2-15.3-3.5c-4.9-2.3-8.8-6.1-11.1-10.8
	c-2.3-4.7-3.7-10.8-3.7-17.3V626.8L279.4,626.8z M294.7,627.8c0,5.9,1.4,10.5,3.9,13.6c2.8,3,6.2,4.7,10.4,4.7
	c3.9,0,7.4-1.6,10.2-4.7c2.8-3,4.2-7.7,4.2-13.6c0-5.6-1.4-10.3-4.2-13.4c-2.8-3.3-6.2-4.9-10.2-4.9c-4.2,0-7.6,1.6-10.2,4.7
	C296,617.5,294.7,622.2,294.7,627.8L294.7,627.8z M367,657.3h-15.3v-59h14.8v8.4c2.3-3.7,4.4-6.6,6.2-7.7c1.9-1.4,4.2-2.1,6.5-2.1
	c3.2,0,6.7,1.2,9.9,3l-4.9,13.6c-2.5-1.6-5.1-2.6-7.2-2.6c-2.1,0-3.9,0.7-5.3,1.9c-1.4,1.2-2.8,3.5-3.5,6.6c-0.9,3-1.4,9.8-1.4,19.9
	V657.3L367,657.3z M448.2,657.3h-15.3v-30c0-6.1-0.5-10.3-0.9-12.2c-0.7-1.9-1.9-3.5-3.2-4.5c-1.4-0.9-3.5-1.6-5.5-1.6
	c-2.5,0-5.1,0.7-6.9,2.1c-2.1,1.4-3.7,3.7-4.4,6.1c-0.7,2.3-1.2,7-1.2,13.6v26.5h-15.3v-59h14.8v8.9c4.9-6.8,11.3-10.3,18.7-10.3
	c3.2,0,6.2,0.7,9,1.9c2.8,1.2,4.9,2.8,6.2,4.7c1.4,1.9,2.5,4.2,3,6.6c0.5,2.3,0.9,6.1,0.9,10.8V657.3L448.2,657.3z M475.7,616.5
	l-13.9-1.9c1.4-5.9,3.9-10.5,7.6-13.4c3.7-2.8,9.5-4.5,16.9-4.5c6.7,0,11.8,0.9,15,2.6c3.2,1.6,5.5,4,6.9,6.3
	c1.4,2.3,2.1,7.3,2.1,14.1v18.3c0,5.2,0.2,8.9,0.7,11.2c0.5,2.3,1.8,5.2,3.5,8h-15.3c-0.5-0.9-1.2-2.6-1.6-4.5
	c-0.2-0.7-0.5-1.4-0.5-1.6c-2.5,2.3-5.5,4.5-8.3,5.6c-3,1.2-6.5,1.9-9.7,1.9c-6,0-10.9-1.6-14.1-4.9c-3.2-3.3-5.1-7.5-5.1-12.4
	c0-3.3,0.7-6.3,2.1-8.9c1.4-2.6,3.7-4.7,6.5-6.1c2.8-1.4,6.9-2.6,12-3.5c6.9-1.4,11.8-2.8,14.6-4v-1.4c0-2.8-0.7-5.2-2.1-6.3
	c-1.4-1.4-4.2-2.1-7.9-2.1c-2.5,0-4.6,0.7-6,1.6C477.8,611.8,476.4,614,475.7,616.5L475.7,616.5z M495.1,629.2
	c-1.9,0.7-5.1,1.6-9,2.6c-4.2,0.9-6.9,1.9-8.1,2.6c-1.8,1.4-2.8,3.5-2.8,5.6c0,2.1,0.7,4.2,2.1,5.6c1.4,1.4,3.7,2.3,6,2.3
	c2.5,0,5.3-0.9,7.6-2.6c1.6-1.4,3-3.3,3.5-5.4c0.5-1.2,0.7-3.8,0.7-7.5V629.2L495.1,629.2z M579.3,657.3H564v-30
	c0-6.1-0.5-10.3-0.9-12.2c-0.7-1.9-1.8-3.5-3.2-4.5c-1.4-0.9-3.5-1.6-5.5-1.6c-2.5,0-5.1,0.7-6.9,2.1c-2.1,1.4-3.7,3.7-4.4,6.1
	c-0.7,2.3-1.2,7-1.2,13.6v26.5h-15.3v-59h14.8v8.9c4.9-6.8,11.3-10.3,18.7-10.3c3.2,0,6.2,0.7,9,1.9c2.8,1.2,4.9,2.8,6.2,4.7
	c1.4,1.9,2.5,4.2,3,6.6c0.5,2.3,0.9,6.1,0.9,10.8V657.3L579.3,657.3z M622.5,598.3v12.2h-10.6v24.1c0,4.7,0.2,7.7,0.2,8.4
	c0,0.7,0.7,1.4,1.2,1.9c0.7,0.5,1.8,0.7,2.8,0.7c1.4,0,3.5-0.5,6.2-1.4l1.2,12.2c-3.5,1.4-7.6,2.3-12,2.3c-2.8,0-5.3-0.5-7.4-1.4
	c-2.3-0.9-3.9-2.1-4.9-3.5c-0.9-1.4-1.9-3.7-2.1-6.3c-0.2-1.6-0.5-5.4-0.5-11v-26h-7.4v-12.2h7.4V587l15.3-9.4v20.6H622.5
	L622.5,598.3z M632.7,590.3v-14.5h15.3v14.5H632.7L632.7,590.3z M632.7,657.3v-59h15.3v59H632.7L632.7,657.3z"/>
<polygon class="st0" points="98.3,235.5 698.3,235.5 698.3,462.5 98.3,462.5 98.3,235.5 "/>
<path class="st1" d="M144.3,251.8h508.1c16.3,0,29.7,13.3,29.7,29.7v135.3c0,16.3-13.3,29.7-29.7,29.7H144.3
	c-16.3,0-29.7-13.3-29.7-29.7V281.4C114.6,265.1,128,251.8,144.3,251.8L144.3,251.8z"/>
<path class="st2" d="M201.9,328.5V341h-11.1v24.8c0,4.8,0.2,8,0.2,8.7c0,0.7,0.7,1.4,1.2,1.9c0.7,0.5,1.9,0.7,2.9,0.7
	c1.4,0,3.6-0.5,6.5-1.4l1.2,12.5c-3.6,1.4-8,2.4-12.5,2.4c-2.9,0-5.5-0.5-7.7-1.4c-2.4-1-4.1-2.2-5.1-3.6c-1-1.4-1.9-3.9-2.2-6.5
	c-0.2-1.7-0.5-5.5-0.5-11.3V341h-7.7v-12.5h7.7v-11.6l15.9-9.6v21.2H201.9L201.9,328.5z M208.7,357.9c0-5.1,1.4-10.4,3.9-15.2
	c2.4-5.1,6.3-9.2,11.1-11.6c4.8-2.7,10.4-4.1,16.2-4.1c9.2,0,16.9,3.1,22.7,8.9c5.8,6,8.9,13.7,8.9,22.9s-3.1,16.9-8.9,22.7
	c-5.8,6-13.5,9.2-22.4,9.2c-5.5,0-11.1-1.2-15.9-3.6c-5.1-2.4-9.2-6.3-11.6-11.1c-2.4-4.8-3.9-11.1-3.9-17.8V357.9L208.7,357.9z
	 M224.6,358.9c0,6,1.4,10.8,4.1,14c2.9,3.1,6.5,4.8,10.8,4.8c4.1,0,7.7-1.7,10.6-4.8c2.9-3.1,4.3-8,4.3-14c0-5.8-1.4-10.6-4.3-13.7
	c-2.9-3.4-6.5-5.1-10.6-5.1c-4.3,0-8,1.7-10.6,4.8C226,348.3,224.6,353.1,224.6,358.9L224.6,358.9z M300,389.3h-15.9v-60.7h15.4v8.7
	c2.4-3.9,4.6-6.7,6.5-8c1.9-1.4,4.3-2.2,6.7-2.2c3.4,0,7,1.2,10.4,3.1l-5.1,14c-2.7-1.7-5.3-2.7-7.5-2.7c-2.2,0-4.1,0.7-5.5,1.9
	c-1.4,1.2-2.9,3.6-3.6,6.7c-1,3.1-1.4,10.1-1.4,20.5V389.3L300,389.3z M384.6,389.3h-15.9v-30.9c0-6.3-0.5-10.6-1-12.5
	c-0.7-1.9-1.9-3.6-3.4-4.6c-1.4-1-3.6-1.7-5.8-1.7c-2.7,0-5.3,0.7-7.2,2.2c-2.2,1.4-3.9,3.9-4.6,6.3c-0.7,2.4-1.2,7.2-1.2,14v27.2
	h-15.9v-60.7h15.4v9.2c5.1-7,11.8-10.6,19.5-10.6c3.4,0,6.5,0.7,9.4,1.9c2.9,1.2,5.1,2.9,6.5,4.8c1.4,1.9,2.7,4.3,3.1,6.7
	c0.5,2.4,1,6.3,1,11.1V389.3L384.6,389.3z M413.3,347.3l-14.5-1.9c1.4-6,4.1-10.8,8-13.7c3.9-2.9,9.9-4.6,17.6-4.6
	c7,0,12.3,1,15.7,2.7c3.4,1.7,5.8,4.1,7.2,6.5c1.4,2.4,2.2,7.5,2.2,14.5v18.8c0,5.3,0.2,9.2,0.7,11.6c0.5,2.4,1.9,5.3,3.6,8.2h-15.9
	c-0.5-1-1.2-2.7-1.7-4.6c-0.2-0.7-0.5-1.4-0.5-1.7c-2.7,2.4-5.8,4.6-8.7,5.8c-3.1,1.2-6.7,1.9-10.1,1.9c-6.3,0-11.3-1.7-14.7-5.1
	c-3.4-3.4-5.3-7.7-5.3-12.8c0-3.4,0.7-6.5,2.2-9.2c1.4-2.7,3.9-4.8,6.7-6.3c2.9-1.4,7.2-2.7,12.5-3.6c7.2-1.4,12.3-2.9,15.2-4.1
	v-1.4c0-2.9-0.7-5.3-2.2-6.5c-1.4-1.4-4.3-2.2-8.2-2.2c-2.6,0-4.8,0.7-6.3,1.7C415.5,342.5,414,344.7,413.3,347.3L413.3,347.3z
	 M433.5,360.3c-1.9,0.7-5.3,1.7-9.4,2.7c-4.3,1-7.2,1.9-8.4,2.7c-1.9,1.4-2.9,3.6-2.9,5.8c0,2.2,0.7,4.3,2.2,5.8
	c1.4,1.4,3.9,2.4,6.3,2.4c2.7,0,5.5-1,8-2.7c1.7-1.4,3.1-3.4,3.6-5.5c0.5-1.2,0.7-3.9,0.7-7.7V360.3L433.5,360.3z M521.3,389.3
	h-15.9v-30.9c0-6.3-0.5-10.6-1-12.5c-0.7-1.9-1.9-3.6-3.4-4.6c-1.4-1-3.6-1.7-5.8-1.7c-2.6,0-5.3,0.7-7.2,2.2
	c-2.2,1.4-3.9,3.9-4.6,6.3c-0.7,2.4-1.2,7.2-1.2,14v27.2h-15.9v-60.7h15.4v9.2c5.1-7,11.8-10.6,19.5-10.6c3.4,0,6.5,0.7,9.4,1.9
	c2.9,1.2,5.1,2.9,6.5,4.8c1.5,1.9,2.7,4.3,3.1,6.7c0.5,2.4,1,6.3,1,11.1V389.3L521.3,389.3z M566.4,328.5V341h-11.1v24.8
	c0,4.8,0.2,8,0.2,8.7c0,0.7,0.7,1.4,1.2,1.9c0.7,0.5,1.9,0.7,2.9,0.7c1.4,0,3.6-0.5,6.5-1.4l1.2,12.5c-3.6,1.4-8,2.4-12.5,2.4
	c-2.9,0-5.5-0.5-7.7-1.4c-2.4-1-4.1-2.2-5.1-3.6c-1-1.4-1.9-3.9-2.2-6.5c-0.2-1.7-0.5-5.5-0.5-11.3V341h-7.7v-12.5h7.7v-11.6
	l15.9-9.6v21.2H566.4L566.4,328.5z M612.6,370l15.9,1.9c-1.9,6.3-5.5,11.1-9.9,14c-4.3,3.1-10.1,4.8-16.6,4.8
	c-10.6,0-18.6-3.6-23.6-10.4c-3.9-5.3-5.8-12.5-5.8-21c0-9.9,2.6-17.8,7.7-23.6c5.3-5.8,12.1-8.7,20-8.7c9.2,0,16.4,3.1,21.5,8.9
	c5.3,5.8,7.7,15.2,7.7,27.2h-41c0,4.8,1.4,8.7,3.9,11.1c2.4,2.4,5.8,3.9,9.6,3.9c2.4,0,4.8-0.7,6.5-1.9
	C610.2,375,611.7,372.9,612.6,370L612.6,370z M613.6,353.6c0-4.3-1.4-8-3.9-10.4c-2.4-2.4-5.3-3.6-8.7-3.6c-3.4,0-6.5,1.4-8.9,3.9
	c-2.4,2.4-3.4,6-3.4,10.1H613.6L613.6,353.6z"/>
<g>
	<path d="M861.1,387.4h-17l-6.8-17.6h-30.9l-6.4,17.6h-16.6l30.1-77.3h16.5L861.1,387.4z M832.4,356.8l-10.7-28.7l-10.4,28.7H832.4z
		"/>
</g>
<g>
	<path d="M791.6,579.9h30.9c6.1,0,10.7,0.3,13.7,0.8s5.7,1.6,8.1,3.2s4.4,3.8,5.9,6.5s2.4,5.7,2.4,9c0,3.6-1,6.9-2.9,10
		s-4.6,5.3-7.9,6.8c4.7,1.4,8.3,3.7,10.9,7s3.8,7.2,3.8,11.7c0,3.5-0.8,6.9-2.5,10.3s-3.9,6-6.7,8c-2.8,2-6.3,3.2-10.5,3.7
		c-2.6,0.3-8.9,0.5-18.8,0.5h-26.3V579.9z M807.3,592.8v17.9h10.2c6.1,0,9.9-0.1,11.3-0.3c2.7-0.3,4.8-1.2,6.3-2.8s2.3-3.5,2.3-6
		c0-2.4-0.7-4.3-2-5.8s-3.3-2.4-5.9-2.7c-1.5-0.2-6-0.3-13.3-0.3H807.3z M807.3,623.5v20.7h14.4c5.6,0,9.2-0.2,10.7-0.5
		c2.3-0.4,4.2-1.5,5.7-3.1c1.5-1.6,2.2-3.8,2.2-6.6c0-2.3-0.6-4.3-1.7-5.9c-1.1-1.6-2.8-2.8-4.9-3.5c-2.1-0.7-6.7-1.1-13.8-1.1
		H807.3z"/>
</g>
</svg>
