<?xml version="1.0" encoding="utf-8"?>
<!-- Generator: Adobe Illustrator 19.2.0, SVG Export Plug-In . SVG Version: 6.00 Build 0)  -->
<svg version="1.1" id="Livello_1" xmlns="http://www.w3.org/2000/svg" xmlns:xlink="http://www.w3.org/1999/xlink" x="0px" y="0px"
	 viewBox="0 0 960 960" style="enable-background:new 0 0 960 960;" xml:space="preserve">
<style type="text/css">
	.st0{opacity:1.000000e-002;fill:#FFFFFF;}
	.st1{fill:#FFFFFF;stroke:#1A171B;stroke-width:1.1837;stroke-miterlimit:2.6131;}
	.st2{fill:none;stroke:#1A171B;stroke-width:7.8916;stroke-miterlimit:2.6131;}
	.st3{fill-rule:evenodd;clip-rule:evenodd;fill:#1A171B;}
</style>
<rect class="st0" width="1" height="1"/>
<rect x="959" y="959" class="st0" width="1" height="1"/>
<polygon class="st1" points="180,366.5 780,366.5 780,593.5 180,593.5 180,366.5 "/>
<path class="st2" d="M225.9,382.8h508.1c16.3,0,29.7,13.3,29.7,29.7v135.3c0,16.3-13.3,29.7-29.7,29.7H225.9
	c-16.3,0-29.7-13.3-29.7-29.7V412.4C196.3,396.1,209.6,382.8,225.9,382.8L225.9,382.8z"/>
<path class="st3" d="M230.4,498.3l14.8-1.9c0.2,4,1.6,7.3,3.5,9.1c1.8,1.9,4.6,3,7.4,3c2.8,0,5.5-1.2,7.6-3.5
	c2.1-2.3,3.2-5.9,3.2-10.1c0-4-0.9-7.3-2.8-9.6c-1.8-2.3-4.4-3.5-7.2-3.5c-1.6,0-3.9,0.5-6.2,1.2l1.4-12.4c3.7,0,6.9-0.7,8.8-2.6
	c2.1-1.9,3.2-4.5,3.2-7.7c0-2.6-0.9-4.9-2.3-6.3c-1.4-1.6-3.7-2.6-6-2.6c-2.3,0-4.6,0.9-6.2,2.8c-1.6,1.9-2.8,4.7-3,8l-14.3-2.3
	c0.9-4.9,2.3-9.1,4.2-11.9c1.9-2.8,4.9-5.4,8.1-7c3.5-1.6,7.4-2.6,11.6-2.6c7.4,0,13.4,2.6,17.8,7.5c3.7,3.7,5.5,8.4,5.5,13.4
	c0,7-3.9,12.9-11.6,17.1c4.6,0.9,8.3,3.3,11.1,6.6c2.8,3.5,4.2,8,4.2,12.9c0,7-2.5,13.4-7.6,18.3c-5.1,5.2-11.6,7.7-19.2,7.7
	c-6.9,0-13.2-2.1-17.8-6.3c-4.6-4.2-7.6-10.1-8.1-16.9V498.3L230.4,498.3z M354.6,461.3v12.2h-10.6v24.1c0,4.7,0.2,7.7,0.2,8.4
	c0,0.7,0.7,1.4,1.2,1.9c0.7,0.5,1.8,0.7,2.8,0.7c1.4,0,3.5-0.5,6.2-1.4l1.2,12.2c-3.5,1.4-7.6,2.3-12,2.3c-2.8,0-5.3-0.5-7.4-1.4
	c-2.3-0.9-3.9-2.1-4.9-3.5c-0.9-1.4-1.8-3.7-2.1-6.3c-0.2-1.6-0.5-5.4-0.5-11v-26h-7.4v-12.2h7.4V450l15.3-9.4v20.6H354.6
	L354.6,461.3z M361.1,489.8c0-4.9,1.4-10.1,3.7-14.8c2.3-4.9,6-8.9,10.6-11.2c4.6-2.6,9.9-4,15.5-4c8.8,0,16.2,3,21.7,8.7
	c5.5,5.9,8.6,13.4,8.6,22.3c0,8.9-3,16.4-8.6,22c-5.5,5.9-12.9,8.9-21.5,8.9c-5.3,0-10.6-1.2-15.3-3.5c-4.9-2.3-8.8-6.1-11.1-10.8
	c-2.3-4.7-3.7-10.8-3.7-17.3V489.8L361.1,489.8z M376.3,490.8c0,5.9,1.4,10.5,3.9,13.6c2.8,3,6.2,4.7,10.4,4.7
	c3.9,0,7.4-1.6,10.2-4.7c2.8-3,4.2-7.7,4.2-13.6c0-5.6-1.4-10.3-4.2-13.4c-2.8-3.3-6.2-4.9-10.2-4.9c-4.2,0-7.6,1.6-10.2,4.7
	C377.7,480.5,376.3,485.2,376.3,490.8L376.3,490.8z M448.7,520.3h-15.3v-59h14.8v8.4c2.3-3.7,4.4-6.6,6.2-7.7
	c1.9-1.4,4.2-2.1,6.5-2.1c3.2,0,6.7,1.2,9.9,3l-4.9,13.6c-2.5-1.6-5.1-2.6-7.2-2.6c-2.1,0-3.9,0.7-5.3,1.9c-1.4,1.2-2.8,3.5-3.5,6.6
	c-0.9,3-1.4,9.8-1.4,19.9V520.3L448.7,520.3z M529.8,520.3h-15.3v-30c0-6.1-0.5-10.3-0.9-12.2c-0.7-1.9-1.9-3.5-3.2-4.5
	c-1.4-0.9-3.5-1.6-5.5-1.6c-2.5,0-5.1,0.7-6.9,2.1c-2.1,1.4-3.7,3.7-4.4,6.1c-0.7,2.3-1.2,7-1.2,13.6v26.5h-15.3v-59h14.8v8.9
	c4.9-6.8,11.3-10.3,18.7-10.3c3.2,0,6.2,0.7,9,1.9c2.8,1.2,4.9,2.8,6.2,4.7c1.4,1.9,2.5,4.2,3,6.6c0.5,2.3,0.9,6.1,0.9,10.8V520.3
	L529.8,520.3z M557.3,479.5l-13.9-1.9c1.4-5.9,3.9-10.5,7.6-13.4c3.7-2.8,9.5-4.5,16.9-4.5c6.7,0,11.8,0.9,15,2.6
	c3.2,1.6,5.5,4,6.9,6.3c1.4,2.3,2.1,7.3,2.1,14.1v18.3c0,5.2,0.2,8.9,0.7,11.2c0.5,2.3,1.8,5.2,3.5,8h-15.3
	c-0.5-0.9-1.2-2.6-1.6-4.5c-0.2-0.7-0.5-1.4-0.5-1.6c-2.5,2.3-5.5,4.5-8.3,5.6c-3,1.2-6.5,1.9-9.7,1.9c-6,0-10.9-1.6-14.1-4.9
	c-3.2-3.3-5.1-7.5-5.1-12.4c0-3.3,0.7-6.3,2.1-8.9c1.4-2.6,3.7-4.7,6.5-6.1c2.8-1.4,6.9-2.6,12-3.5c6.9-1.4,11.8-2.8,14.6-4v-1.4
	c0-2.8-0.7-5.2-2.1-6.3c-1.4-1.4-4.2-2.1-7.9-2.1c-2.5,0-4.6,0.7-6,1.6C559.4,474.8,558,477,557.3,479.5L557.3,479.5z M576.8,492.2
	c-1.9,0.7-5.1,1.6-9,2.6c-4.2,0.9-6.9,1.9-8.1,2.6c-1.8,1.4-2.8,3.5-2.8,5.6c0,2.1,0.7,4.2,2.1,5.6c1.4,1.4,3.7,2.3,6,2.3
	c2.5,0,5.3-0.9,7.6-2.6c1.6-1.4,3-3.3,3.5-5.4c0.5-1.2,0.7-3.8,0.7-7.5V492.2L576.8,492.2z M660.9,520.3h-15.3v-30
	c0-6.1-0.5-10.3-0.9-12.2c-0.7-1.9-1.8-3.5-3.2-4.5c-1.4-0.9-3.5-1.6-5.5-1.6c-2.5,0-5.1,0.7-6.9,2.1c-2.1,1.4-3.7,3.7-4.4,6.1
	c-0.7,2.3-1.2,7-1.2,13.6v26.5h-15.3v-59H623v8.9c4.9-6.8,11.3-10.3,18.7-10.3c3.2,0,6.2,0.7,9,1.9c2.8,1.2,4.9,2.8,6.2,4.7
	c1.4,1.9,2.5,4.2,3,6.6c0.5,2.3,0.9,6.1,0.9,10.8V520.3L660.9,520.3z M704.1,461.3v12.2h-10.6v24.1c0,4.7,0.2,7.7,0.2,8.4
	c0,0.7,0.7,1.4,1.2,1.9c0.7,0.5,1.8,0.7,2.8,0.7c1.4,0,3.5-0.5,6.2-1.4l1.2,12.2c-3.5,1.4-7.6,2.3-12,2.3c-2.8,0-5.3-0.5-7.4-1.4
	c-2.3-0.9-3.9-2.1-4.9-3.5c-0.9-1.4-1.9-3.7-2.1-6.3c-0.2-1.6-0.5-5.4-0.5-11v-26h-7.4v-12.2h7.4V450l15.3-9.4v20.6H704.1
	L704.1,461.3z M714.3,453.3v-14.5h15.3v14.5H714.3L714.3,453.3z M714.3,520.3v-59h15.3v59H714.3L714.3,520.3z"/>
</svg>
