<?xml version="1.0" encoding="utf-8"?>
<!-- Generator: Adobe Illustrator 19.2.0, SVG Export Plug-In . SVG Version: 6.00 Build 0)  -->
<svg version="1.1" id="Livello_1" xmlns="http://www.w3.org/2000/svg" xmlns:xlink="http://www.w3.org/1999/xlink" x="0px" y="0px"
	 viewBox="0 0 960 960" style="enable-background:new 0 0 960 960;" xml:space="preserve">
<style type="text/css">
	.st0{fill-rule:evenodd;clip-rule:evenodd;fill:#FFFFFF;stroke:#1A171B;stroke-width:1.1815;stroke-miterlimit:2.6131;}
	.st1{fill:none;stroke:#1A171B;stroke-width:11.8147;stroke-miterlimit:2.6131;}
	.st2{fill-rule:evenodd;clip-rule:evenodd;fill:#1A171B;stroke:#1A171B;stroke-width:1.1815;stroke-miterlimit:2.6131;}
</style>
<g>
	<g>
		<polygon class="st0" points="180,181.7 780,181.7 780,778.3 180,778.3 180,181.7 		"/>
		<path class="st1" d="M230.8,199.3h499.3c18.3,0,33.2,14.9,33.2,33.2v496.1c0,18.3-14.9,33.2-33.2,33.2H230.8
			c-18.3,0-33.2-14.9-33.2-33.2V232.5C197.6,214.2,212.6,199.3,230.8,199.3L230.8,199.3z"/>
		<path class="st2" d="M286.9,616.4v12.4h-10.9v24.5c0,4.7,0.2,7.8,0.2,8.6c0,0.7,0.7,1.4,1.2,1.9c0.7,0.5,1.9,0.7,2.9,0.7
			c1.4,0,3.6-0.5,6.4-1.4l1.2,12.4c-3.6,1.4-7.8,2.4-12.4,2.4c-2.8,0-5.5-0.5-7.6-1.4c-2.4-1-4-2.1-5-3.6c-0.9-1.4-1.9-3.8-2.1-6.4
			c-0.2-1.7-0.5-5.5-0.5-11.2v-26.4h-7.6v-12.4h7.6V605l15.7-9.5v20.9H286.9L286.9,616.4z M293.5,645.4c0-5,1.4-10.2,3.8-15
			c2.4-5,6.2-9,10.9-11.4c4.8-2.6,10.2-4,15.9-4c9,0,16.6,3.1,22.3,8.8c5.7,5.9,8.8,13.5,8.8,22.6c0,9-3.1,16.6-8.8,22.3
			c-5.7,5.9-13.3,9-22.1,9c-5.5,0-10.9-1.2-15.7-3.6c-5-2.4-9-6.2-11.4-10.9c-2.4-4.8-3.8-10.9-3.8-17.6V645.4L293.5,645.4z
			 M309.2,646.4c0,5.9,1.4,10.7,4,13.8c2.8,3.1,6.4,4.8,10.7,4.8c4,0,7.6-1.7,10.5-4.8c2.8-3.1,4.3-7.8,4.3-13.8
			c0-5.7-1.4-10.5-4.3-13.5c-2.9-3.3-6.4-5-10.5-5c-4.3,0-7.8,1.7-10.5,4.8C310.6,635.9,309.2,640.7,309.2,646.4L309.2,646.4z
			 M367.9,676.3v-59.9h15.2v8.6c2.4-3.8,4.5-6.7,6.4-7.8c1.9-1.4,4.3-2.1,6.7-2.1c3.3,0,6.9,1.2,10.2,3.1l-5,13.8
			c-2.6-1.7-5.2-2.6-7.4-2.6c-2.1,0-4,0.7-5.5,1.9c-1.4,1.2-2.8,3.6-3.6,6.7c-1,3.1-1.4,10-1.4,20.2v18.3H367.9z M467,676.3h-15.7
			v-30.4c0-6.2-0.5-10.5-0.9-12.4c-0.7-1.9-1.9-3.6-3.3-4.5c-1.4-1-3.6-1.7-5.7-1.7c-2.6,0-5.2,0.7-7.1,2.1
			c-2.1,1.4-3.8,3.8-4.5,6.2c-0.7,2.4-1.2,7.1-1.2,13.8v26.9h-15.7v-59.9H428v9c5-6.9,11.6-10.5,19.2-10.5c3.3,0,6.4,0.7,9.3,1.9
			c2.9,1.2,5,2.9,6.4,4.7c1.4,1.9,2.6,4.3,3.1,6.7c0.5,2.4,1,6.2,1,10.9V676.3L467,676.3z M495.3,635l-14.3-1.9
			c1.4-5.9,4-10.7,7.8-13.5c3.8-2.9,9.7-4.5,17.3-4.5c6.9,0,12.1,1,15.4,2.6c3.3,1.7,5.7,4,7.1,6.4c1.4,2.4,2.1,7.4,2.1,14.3v18.5
			c0,5.2,0.2,9,0.7,11.4c0.5,2.4,1.9,5.2,3.6,8.1h-15.7c-0.5-1-1.2-2.6-1.7-4.5c-0.2-0.7-0.5-1.4-0.5-1.7c-2.6,2.4-5.7,4.5-8.6,5.7
			c-3.1,1.2-6.7,1.9-10,1.9c-6.2,0-11.2-1.7-14.5-5c-3.3-3.3-5.2-7.6-5.2-12.6c0-3.3,0.7-6.4,2.1-9c1.4-2.6,3.8-4.8,6.7-6.2
			c2.9-1.4,7.1-2.6,12.4-3.6c7.1-1.4,12.1-2.9,15-4v-1.4c0-2.9-0.7-5.2-2.1-6.4c-1.4-1.4-4.3-2.1-8.1-2.1c-2.6,0-4.8,0.7-6.2,1.7
			C497.4,630.2,496,632.4,495.3,635L495.3,635z M515.2,647.8c-1.9,0.7-5.2,1.7-9.3,2.6c-4.3,1-7.1,1.9-8.3,2.6
			c-1.9,1.4-2.9,3.6-2.9,5.7c0,2.1,0.7,4.3,2.1,5.7c1.4,1.4,3.8,2.4,6.2,2.4c2.6,0,5.5-1,7.8-2.6c1.7-1.4,3.1-3.3,3.6-5.5
			c0.5-1.2,0.7-3.8,0.7-7.6V647.8L515.2,647.8z M601.7,676.3h-15.7v-30.4c0-6.2-0.5-10.5-1-12.4c-0.7-1.9-1.9-3.6-3.3-4.5
			c-1.4-1-3.6-1.7-5.7-1.7c-2.6,0-5.2,0.7-7.1,2.1c-2.1,1.4-3.8,3.8-4.5,6.2c-0.7,2.4-1.2,7.1-1.2,13.8v26.9h-15.7v-59.9h15.2v9
			c5-6.9,11.6-10.5,19.3-10.5c3.3,0,6.4,0.7,9.3,1.9c2.9,1.2,5,2.9,6.4,4.7c1.4,1.9,2.6,4.3,3.1,6.7c0.5,2.4,1,6.2,1,10.9V676.3
			L601.7,676.3z M646.2,616.4v12.4h-10.9v24.5c0,4.7,0.2,7.8,0.2,8.6c0,0.7,0.7,1.4,1.2,1.9c0.7,0.5,1.9,0.7,2.9,0.7
			c1.4,0,3.6-0.5,6.4-1.4l1.2,12.4c-3.6,1.4-7.8,2.4-12.4,2.4c-2.9,0-5.5-0.5-7.6-1.4c-2.4-1-4-2.1-5-3.6c-1-1.4-1.9-3.8-2.1-6.4
			c-0.2-1.7-0.5-5.5-0.5-11.2v-26.4H612v-12.4h7.6V605l15.7-9.5v20.9H646.2L646.2,616.4z M691.8,657.3l15.7,1.9
			c-1.9,6.2-5.5,10.9-9.7,13.8c-4.3,3.1-10,4.8-16.4,4.8c-10.5,0-18.3-3.6-23.3-10.2c-3.8-5.2-5.7-12.4-5.7-20.7
			c0-9.7,2.6-17.6,7.6-23.3c5.2-5.7,11.9-8.6,19.7-8.6c9,0,16.2,3.1,21.1,8.8c5.2,5.7,7.6,15,7.6,26.9h-40.4c0,4.8,1.4,8.6,3.8,10.9
			c2.4,2.4,5.7,3.8,9.5,3.8c2.4,0,4.8-0.7,6.4-1.9C689.4,662.3,690.9,660.2,691.8,657.3L691.8,657.3z M692.8,641.2
			c0-4.3-1.4-7.8-3.8-10.2c-2.4-2.4-5.2-3.6-8.6-3.6c-3.3,0-6.4,1.4-8.8,3.8c-2.4,2.4-3.3,5.9-3.3,10H692.8L692.8,641.2z"/>
		<path class="st2" d="M503.9,533.7h-47.7v-182l-38.3,0.7l0.7-39.7c20.9,1.4,42.6-1.4,46.2-31.8h39V533.7L503.9,533.7z"/>
		<path class="st2" d="M551.1,300.6c5.5,0,10.6,5.1,10.6,10.6s-5.1,10.6-10.6,10.6s-10.6-5.1-10.6-10.6S545.6,300.6,551.1,300.6
			L551.1,300.6z M551.1,281.3c16.1,0,29.9,13.8,29.9,29.9c0,16.1-13.8,29.9-29.9,29.9c-16.1,0-29.9-13.8-29.9-29.9
			C521.2,295.1,535,281.3,551.1,281.3L551.1,281.3z"/>
	</g>
</g>
</svg>
