<?xml version="1.0" encoding="utf-8"?>
<!-- Generator: Adobe Illustrator 19.2.0, SVG Export Plug-In . SVG Version: 6.00 Build 0)  -->
<svg version="1.1" id="Livello_1" xmlns="http://www.w3.org/2000/svg" xmlns:xlink="http://www.w3.org/1999/xlink" x="0px" y="0px"
	 viewBox="0 0 960 960" style="enable-background:new 0 0 960 960;" xml:space="preserve">
<style type="text/css">
	.st0{opacity:1.000000e-002;fill:#FFFFFF;}
	.st1{fill-rule:evenodd;clip-rule:evenodd;fill:#FFFFFF;stroke:#1A171B;stroke-width:1.1815;stroke-miterlimit:2.6131;}
	.st2{fill:none;stroke:#1A171B;stroke-width:11.8147;stroke-miterlimit:2.6131;}
	.st3{fill-rule:evenodd;clip-rule:evenodd;fill:#1A171B;stroke:#1A171B;stroke-width:1.1815;stroke-miterlimit:2.6131;}
	.st4{fill-rule:evenodd;clip-rule:evenodd;fill:#FFFFFF;stroke:#FFFFFF;stroke-width:1.1815;stroke-miterlimit:2.6131;}
	.st5{fill-rule:evenodd;clip-rule:evenodd;fill:#1A171B;}
</style>
<rect class="st0" width="1" height="1"/>
<rect x="959" y="959" class="st0" width="1" height="1"/>
<g>
	<g>
		<polygon class="st1" points="180,181.7 780,181.7 780,778.3 180,778.3 180,181.7 		"/>
		<path class="st2" d="M230.8,199.3h499.3c18.3,0,33.2,14.9,33.2,33.2v496.1c0,18.3-14.9,33.2-33.2,33.2H230.8
			c-18.3,0-33.2-14.9-33.2-33.2V232.5C197.6,214.2,212.6,199.3,230.8,199.3L230.8,199.3z"/>
		<path class="st3" d="M427,678l-0.2-38.6h-97.3v-38.6l44.1-72.5h83.9V648l38-0.2c-1.8,4.3-0.7,7.3-0.9,10.2l0.2,20H427L427,678z"/>
		<path class="st3" d="M580.3,677.5l0.2-20c0-3.4-0.5-6.6-1.8-9.8l50.7,0.2v14.6L580.3,677.5L580.3,677.5z"/>
		<path class="st3" d="M465.2,639.3V528.2h164.1v111.2h-53c-19.6-31.1-62.3-29.6-78.2,0H465.2L465.2,639.3z"/>
		<polygon class="st4" points="341.1,600.7 377.9,539.3 447.9,539.3 448.2,600.7 341.1,600.7 		"/>
		<path class="st3" d="M537.7,643.3c-9.5,0-17.3,7.8-17.3,17.3c0,9.5,7.8,17.3,17.3,17.3c9.5,0,17.3-7.8,17.3-17.3
			C555,651.1,547.2,643.3,537.7,643.3L537.7,643.3z M537.7,624.4c20,0,36.3,16.2,36.3,36.3c0,20-16.2,36.3-36.3,36.3
			c-20,0-36.3-16.2-36.3-36.3C501.4,640.6,517.6,624.4,537.7,624.4L537.7,624.4z"/>
		<path class="st3" d="M400.2,521l4.5-18c2.3-9.2,17.8-10.6,20.5,0l4.5,18H400.2L400.2,521z"/>
		<polygon class="st3" points="419.5,647.6 311.7,647.6 311.7,666.6 419.5,666.6 419.5,647.6 		"/>
		<polygon class="st3" points="411.2,673.9 419.6,673.9 419.6,687 423.1,696.2 414.8,696.2 411.2,687 411.2,673.9 		"/>
		<polygon class="st3" points="320.4,673.9 312,673.9 312,687 308.4,696.2 316.8,696.2 320.4,687 320.4,673.9 		"/>
		<polygon class="st3" points="394.6,673.9 403,673.9 403,687 405.1,696.2 396.7,696.2 394.6,687 394.6,673.9 		"/>
		<polygon class="st3" points="337,673.9 328.6,673.9 328.6,687 326.5,696.2 334.9,696.2 337,687 337,673.9 		"/>
		<polygon class="st3" points="378.3,673.9 386.7,673.9 386.7,687 386.7,696.2 378.3,696.2 378.3,687 378.3,673.9 		"/>
		<polygon class="st3" points="361.5,673.9 369.9,673.9 369.9,687 369.9,696.2 361.5,696.2 361.5,687 361.5,673.9 		"/>
		<polygon class="st3" points="345.1,673.9 353.5,673.9 353.5,687 353.5,696.2 345.1,696.2 345.1,687 345.1,673.9 		"/>
		<path class="st5" d="M288,322.2v-60.5h11.3v50.3h28.3v10.1H288L288,322.2z M361.9,322.2v-6.5c-1.4,2.3-3.5,4.2-5.8,5.4
			c-2.3,1.4-4.8,2.1-7.4,2.1c-2.6,0-5.1-0.7-7.2-1.9c-2.1-1.2-3.7-3.1-4.5-5.4c-1-2.3-1.4-5.6-1.4-9.8v-28h10.6v20.3
			c0,6.1,0.2,10,0.5,11.4c0.3,1.4,1.1,2.4,2.1,3.1c1,0.7,2.4,1.2,4,1.2c1.8,0,3.5-0.5,5-1.6c1.4-1,2.6-2.4,3.1-4
			c0.5-1.6,0.8-5.6,0.8-11.9v-18.5h10.6v44H361.9L361.9,322.2z M420,322.2h-10.6v-22.4c0-4.5-0.3-7.7-0.6-9.1
			c-0.5-1.4-1.3-2.6-2.2-3.3c-1-0.7-2.4-1.2-3.9-1.2c-1.8,0-3.5,0.5-4.8,1.6c-1.5,1-2.6,2.8-3.1,4.5c-0.5,1.7-0.8,5.2-0.8,10.1v19.7
			h-10.6v-44h10.3v6.6c3.4-5.1,7.9-7.7,13-7.7c2.3,0,4.3,0.5,6.3,1.4c1.9,0.9,3.4,2.1,4.3,3.5c1,1.4,1.8,3.1,2.1,4.9
			c0.3,1.7,0.6,4.5,0.6,8V322.2L420,322.2z M472.9,306.2v-11.5h21.2v11.5H472.9L472.9,306.2z M558,322.2l-19.5-60.8h11.9l14,45.1
			l13.8-45.1h12.1l-20.3,60.8H558L558,322.2z M615.6,308.3l10.6,1.4c-1.3,4.5-3.7,8-6.6,10.1c-2.9,2.3-6.8,3.5-11.1,3.5
			c-7.1,0-12.4-2.6-15.8-7.5c-2.6-3.8-3.9-9.1-3.9-15.2c0-7.2,1.8-12.9,5.1-17.1c3.5-4.2,8-6.3,13.4-6.3c6.1,0,10.9,2.3,14.3,6.5
			c3.5,4.2,5.1,11,5.1,19.7h-27.3c0,3.5,1,6.3,2.6,8c1.6,1.7,3.9,2.8,6.4,2.8c1.6,0,3.2-0.5,4.3-1.4
			C614,311.9,614.9,310.4,615.6,308.3L615.6,308.3z M616.2,296.4c0-3.1-1-5.8-2.6-7.5c-1.6-1.7-3.5-2.6-5.8-2.6c-2.3,0-4.3,1-6,2.8
			c-1.6,1.7-2.2,4.4-2.2,7.3H616.2L616.2,296.4z M671.9,322.2h-10.6v-22.4c0-4.5-0.3-7.7-0.6-9.1c-0.5-1.4-1.3-2.6-2.3-3.3
			c-1-0.7-2.4-1.2-3.9-1.2c-1.8,0-3.5,0.5-4.8,1.6c-1.4,1-2.6,2.8-3.1,4.5c-0.5,1.7-0.8,5.2-0.8,10.1v19.7h-10.6v-44h10.3v6.6
			c3.4-5.1,7.9-7.7,13-7.7c2.2,0,4.3,0.5,6.3,1.4c1.9,0.9,3.4,2.1,4.3,3.5c1,1.4,1.8,3.1,2.1,4.9c0.3,1.7,0.6,4.5,0.6,8V322.2
			L671.9,322.2z"/>
		<path class="st5" d="M329,404.2v9.5h-31.9c0.4-3.2,1.6-6.7,3.2-9.8c1.6-3.1,5.1-7.9,10.2-13c3.9-4.3,6.7-7.1,7.5-9.1
			c1.2-2.4,2-3.9,2-6.3c0-2.4-0.4-4.3-1.6-5.5c-1.2-1.6-2.8-2-4.7-2c-2,0-3.5,0.4-4.7,2c-1.2,1.2-2,3.5-2,6.3l-8.7-0.8
			c0.4-5.5,2.4-9.8,4.7-12.6c3.1-2.4,6.7-3.5,10.6-3.5c4.7,0,8.7,1.2,11,4.7c2.8,2.8,4.3,6.3,4.3,10.2c0,2.8-0.4,5.1-1.2,7.1
			c-0.8,2.4-2.4,5.1-3.9,7.1c-0.8,1.6-3.2,3.9-5.9,7.1c-3.2,2.8-4.7,5.1-5.5,5.9c-0.8,0.8-1.6,2-2,2.8H329L329,404.2z"/>
		<path class="st5" d="M357.4,413.6h-9.1v-39.4c-3.1,3.9-7.1,6.7-11.4,7.9v-9.1c2.4-0.8,4.7-2.4,7.5-5.1c2.8-2.4,4.7-5.5,5.9-8.7
			h7.1V413.6L357.4,413.6z"/>
		<path class="st5" d="M396.4,372.3c3.6,0,6.2,1.5,8,4.4c2.4,3.3,3.6,8.9,3.6,16.6c0,8-1.2,13.3-3.6,16.9c-1.8,2.4-4.4,3.8-8,3.8
			s-6.2-1.5-8.3-4.4c-2.1-3.3-3.3-8.6-3.3-16.3c0-8,1.2-13.3,3.6-16.9C390.1,373.7,392.8,372.3,396.4,372.3L396.4,372.3z
			 M396.4,378.8c-0.9,0-1.5,0.3-2.1,1.2c-0.6,0.6-1.5,1.5-1.8,3c-0.3,2.1-0.6,5.6-0.6,10.4c0,4.7,0.3,8.3,0.6,9.8
			c0.3,2.1,0.9,3,1.5,3.6c0.6,0.3,1.5,0.9,2.4,0.9c0.9,0,1.5-0.6,2.1-0.9c0.6-0.6,1.2-1.5,1.8-3.3c0.3-1.8,0.6-5.3,0.6-10.1
			c0-4.7-0.3-8-0.6-10.1c-0.3-1.8-0.9-2.7-1.5-3.3C398.1,379.1,397.2,378.8,396.4,378.8L396.4,378.8z M423.6,372.3
			c3.6,0,6.2,1.5,8,4.4c2.4,3.3,3.6,8.9,3.6,16.6c0,8-1.2,13.3-3.6,16.9c-1.8,2.4-4.4,3.8-8,3.8c-3.3,0-6.2-1.5-8.3-4.4
			c-2.1-3.3-3.3-8.6-3.3-16.3c0-8,1.2-13.3,3.6-16.9C417.4,373.7,420.3,372.3,423.6,372.3L423.6,372.3z M423.6,378.8
			c-0.9,0-1.5,0.3-2.1,1.2c-0.6,0.6-1.2,1.5-1.5,3c-0.6,2.1-0.9,5.6-0.9,10.4c0,4.7,0.3,8.3,0.6,9.8c0.6,2.1,0.9,3,1.5,3.6
			c0.6,0.3,1.5,0.9,2.4,0.9c0.9,0,1.5-0.6,2.1-0.9c0.6-0.6,1.2-1.5,1.8-3.3c0.3-1.8,0.6-5.3,0.6-10.1c0-4.7,0-8-0.6-10.1
			c-0.3-1.8-0.9-2.7-1.5-3.3C425.4,379.1,424.5,378.8,423.6,378.8L423.6,378.8z"/>
		<path class="st5" d="M624.8,372.3c3.6,0,6.2,1.5,8,4.4c2.4,3.3,3.6,8.9,3.6,16.6c0,8-1.2,13.3-3.6,16.9c-1.8,2.4-4.4,3.8-8,3.8
			c-3.6,0-6.2-1.5-8.3-4.4c-2.1-3.3-3.3-8.6-3.3-16.3c0-8,1.2-13.3,3.6-16.9C618.6,373.7,621.2,372.3,624.8,372.3L624.8,372.3z
			 M624.8,378.8c-0.9,0-1.5,0.3-2.1,1.2c-0.6,0.6-1.5,1.5-1.8,3c-0.3,2.1-0.6,5.6-0.6,10.4c0,4.7,0.3,8.3,0.6,9.8
			c0.3,2.1,0.9,3,1.5,3.6c0.6,0.3,1.5,0.9,2.4,0.9s1.5-0.6,2.1-0.9c0.6-0.6,1.2-1.5,1.8-3.3c0.3-1.8,0.6-5.3,0.6-10.1
			c0-4.7-0.3-8-0.6-10.1c-0.3-1.8-0.9-2.7-1.5-3.3C626.5,379.1,625.7,378.8,624.8,378.8L624.8,378.8z M652,372.3
			c3.6,0,6.2,1.5,8,4.4c2.4,3.3,3.6,8.9,3.6,16.6c0,8-1.2,13.3-3.6,16.9c-1.8,2.4-4.4,3.8-8,3.8c-3.3,0-6.2-1.5-8.3-4.4
			c-2.1-3.3-3.3-8.6-3.3-16.3c0-8,1.2-13.3,3.6-16.9C645.8,373.7,648.8,372.3,652,372.3L652,372.3z M652,378.8
			c-0.9,0-1.5,0.3-2.1,1.2c-0.6,0.6-1.2,1.5-1.5,3c-0.6,2.1-0.9,5.6-0.9,10.4c0,4.7,0.3,8.3,0.6,9.8c0.6,2.1,0.9,3,1.5,3.6
			c0.6,0.3,1.5,0.9,2.4,0.9c0.9,0,1.5-0.6,2.1-0.9c0.6-0.6,1.2-1.5,1.8-3.3c0.3-1.8,0.6-5.3,0.6-10.1c0-4.7,0-8-0.6-10.1
			c-0.3-1.8-0.9-2.7-1.5-3.3C653.8,379.1,652.9,378.8,652,378.8L652,378.8z"/>
		<polygon class="st5" points="480.2,399.4 480.2,389.6 498,389.6 498,399.4 480.2,399.4 		"/>
		<path class="st5" d="M573.2,413.6v-10.2h-18.9v-9.5l19.7-34.7h7.9v34.7h5.9v9.5h-5.9v10.2H573.2L573.2,413.6z M573.2,393.9v-18.1
			l-10.6,18.1H573.2L573.2,393.9z"/>
		<path class="st5" d="M598.6,413.5c-0.9-0.3-1.6-0.8-2.1-1.6c-0.5-0.8-0.8-1.7-0.8-2.8c0-1.4,0.5-2.6,1.5-3.6c1-1,2.2-1.5,3.6-1.5
			c1.6,0,3,0.6,3.9,1.7c1,1.1,1.5,2.6,1.5,4.5c0,3-1,5.6-3,7.9c-2,2.3-4.6,3.6-7.8,4.2v-1.7c1-1.1,1.8-2.3,2.3-3.4
			c0.5-1.1,0.8-2.2,0.8-3.3V413.5L598.6,413.5z"/>
		<path class="st5" d="M370.6,413.5c-0.9-0.3-1.6-0.8-2.1-1.6c-0.5-0.8-0.8-1.7-0.8-2.8c0-1.4,0.5-2.6,1.5-3.6c1-1,2.2-1.5,3.6-1.5
			c1.7,0,3,0.6,3.9,1.7c1,1.1,1.5,2.6,1.5,4.5c0,3-1,5.6-3,7.9c-2,2.3-4.6,3.6-7.8,4.2v-1.7c1-1.1,1.8-2.3,2.3-3.4
			c0.5-1.1,0.8-2.2,0.8-3.3V413.5L370.6,413.5z"/>
	</g>
</g>
</svg>
