<?xml version="1.0" encoding="utf-8"?>
<!-- Generator: Adobe Illustrator 19.2.0, SVG Export Plug-In . SVG Version: 6.00 Build 0)  -->
<svg version="1.1" id="Livello_1" xmlns="http://www.w3.org/2000/svg" xmlns:xlink="http://www.w3.org/1999/xlink" x="0px" y="0px"
	 viewBox="0 0 960 960" style="enable-background:new 0 0 960 960;" xml:space="preserve">
<style type="text/css">
	.st0{fill-rule:evenodd;clip-rule:evenodd;fill:#FFFFFF;stroke:#1A171B;stroke-width:0.6426;stroke-miterlimit:2.6131;}
	.st1{fill:none;stroke:#1A171B;stroke-width:6.4264;stroke-miterlimit:2.6131;}
	.st2{fill-rule:evenodd;clip-rule:evenodd;fill:#1A171B;stroke:#1A171B;stroke-width:0.6426;stroke-miterlimit:2.6131;}
</style>
<g>
	<g>
		<polygon class="st0" points="476.2,515.4 802.5,515.4 802.5,840 476.2,840 476.2,515.4 		"/>
		<path class="st1" d="M503.8,525h271.6c9.9,0,18.1,8.1,18.1,18.1v269.9c0,9.9-8.1,18.1-18.1,18.1H503.8c-9.9,0-18.1-8.1-18.1-18.1
			V543.1C485.8,533.1,493.9,525,503.8,525L503.8,525z"/>
		<path class="st2" d="M586.1,811.8v-83.3c0-60.9,45.3-105.9,106.2-106l82.6-0.1l-0.2,47.3h-82.4c-35.3,0-58.9,25.6-58.9,58.9v83.4
			L586.1,811.8L586.1,811.8z"/>
		<polygon class="st2" points="505.2,561.9 524.7,542.4 615.2,632.9 595.7,652.4 505.2,561.9 		"/>
		<polygon class="st0" points="476.2,120 802.6,120 802.6,444.6 476.2,444.6 476.2,120 		"/>
		<path class="st1" d="M503.9,129.6h271.6c9.9,0,18.1,8.1,18.1,18.1v269.9c0,9.9-8.1,18.1-18.1,18.1H503.9
			c-9.9,0-18.1-8.1-18.1-18.1V147.6C485.8,137.7,493.9,129.6,503.9,129.6L503.9,129.6z"/>
		<path class="st2" d="M605,415.7v-74.3c0-54.9,40.9-95.6,95.8-95.7l73.9-0.1l-0.1,42.6h-73.8c-31.8,0-53.2,23.1-53.2,53.2v74.5
			L605,415.7L605,415.7z"/>
		<polygon class="st2" points="504.3,279.5 504.3,254.7 604.4,254.7 604.4,279.5 504.3,279.5 		"/>
		<polygon class="st2" points="613.3,148.2 638.1,148.2 638.1,246 613.3,246 613.3,148.2 		"/>
		<polygon class="st0" points="79.1,515.4 405.4,515.4 405.4,840 79.1,840 79.1,515.4 		"/>
		<path class="st1" d="M106.7,525h271.6c9.9,0,18.1,8.1,18.1,18.1v269.9c0,9.9-8.1,18.1-18.1,18.1H106.7c-9.9,0-18.1-8.1-18.1-18.1
			V543.1C88.7,533.2,96.8,525,106.7,525L106.7,525z"/>
		<polygon class="st2" points="107.2,657.5 107.2,632.7 205.5,632.7 205.5,657.5 107.2,657.5 		"/>
		<polygon class="st2" points="280,726.6 280,701.8 377.4,701.8 377.4,726.6 280,726.6 		"/>
		<polygon class="st2" points="221.4,811.9 263.9,811.9 263.9,543.3 221.4,543.3 221.4,811.9 		"/>
	</g>
</g>
<g>
	<path d="M899.5,565.6l15.1,4.8c-2.3,8.4-6.2,14.7-11.6,18.8c-5.4,4.1-12.2,6.1-20.5,6.1c-10.3,0-18.7-3.5-25.3-10.5
		c-6.6-7-9.9-16.6-9.9-28.8c0-12.9,3.3-22.9,10-30s15.4-10.7,26.2-10.7c9.5,0,17.1,2.8,23,8.4c3.5,3.3,6.2,8.1,7.9,14.2l-15.5,3.7
		c-0.9-4-2.8-7.2-5.7-9.5s-6.4-3.5-10.6-3.5c-5.7,0-10.4,2.1-13.9,6.2c-3.6,4.1-5.4,10.8-5.4,20c0,9.8,1.8,16.7,5.3,20.9
		c3.5,4.1,8.1,6.2,13.7,6.2c4.1,0,7.7-1.3,10.7-4C896,575.4,898.2,571.3,899.5,565.6z"/>
</g>
<g>
	<path d="M156.6,481.7h-17l-6.8-17.6H102l-6.4,17.6H79l30.1-77.3h16.5L156.6,481.7z M127.9,451.1l-10.7-28.7l-10.4,28.7H127.9z"/>
</g>
<g>
	<path d="M850.2,119.4h30.9c6.1,0,10.7,0.3,13.7,0.8s5.7,1.6,8.1,3.2s4.4,3.8,5.9,6.5s2.4,5.7,2.4,9c0,3.6-1,6.9-2.9,10
		s-4.6,5.3-7.9,6.8c4.7,1.4,8.3,3.7,10.9,7s3.8,7.2,3.8,11.7c0,3.5-0.8,6.9-2.5,10.3s-3.9,6-6.7,8c-2.8,2-6.3,3.2-10.5,3.7
		c-2.6,0.3-8.9,0.5-18.8,0.5h-26.3V119.4z M865.9,132.3v17.9h10.2c6.1,0,9.9-0.1,11.3-0.3c2.7-0.3,4.8-1.2,6.3-2.8s2.3-3.5,2.3-6
		c0-2.4-0.7-4.3-2-5.8s-3.3-2.4-5.9-2.7c-1.5-0.2-6-0.3-13.3-0.3H865.9z M865.9,163.1v20.7h14.4c5.6,0,9.2-0.2,10.7-0.5
		c2.3-0.4,4.2-1.5,5.7-3.1c1.5-1.6,2.2-3.8,2.2-6.6c0-2.3-0.6-4.3-1.7-5.9c-1.1-1.6-2.8-2.8-4.9-3.5c-2.1-0.7-6.7-1.1-13.8-1.1
		H865.9z"/>
</g>
</svg>
