<?xml version="1.0" encoding="utf-8"?>
<!-- Generator: Adobe Illustrator 19.2.0, SVG Export Plug-In . SVG Version: 6.00 Build 0)  -->
<svg version="1.1" id="Livello_1" xmlns="http://www.w3.org/2000/svg" xmlns:xlink="http://www.w3.org/1999/xlink" x="0px" y="0px"
	 viewBox="0 0 960 960" style="enable-background:new 0 0 960 960;" xml:space="preserve">
<style type="text/css">
	.st0{fill-rule:evenodd;clip-rule:evenodd;fill:#FFFFFF;stroke:#1A171B;stroke-width:0.9532;stroke-miterlimit:2.6131;}
	.st1{fill:none;stroke:#1A171B;stroke-width:9.532;stroke-miterlimit:2.6131;}
	.st2{fill-rule:evenodd;clip-rule:evenodd;fill:#0063A6;}
	.st3{fill-rule:evenodd;clip-rule:evenodd;fill:#E1001A;}
	.st4{fill-rule:evenodd;clip-rule:evenodd;fill:#1A171B;stroke:#1A171B;stroke-width:0.9532;stroke-miterlimit:2.6131;}
	.st5{fill-rule:evenodd;clip-rule:evenodd;fill:#1A171B;}
	.st6{fill-rule:evenodd;clip-rule:evenodd;fill:none;stroke:#1A171B;stroke-width:1.7788;stroke-miterlimit:2.6131;}
</style>
<polygon class="st0" points="238.2,120 721.8,120 721.8,840 238.2,840 238.2,120 "/>
<path class="st1" d="M290.4,134.9h379.8c21.4,0,38.9,17.5,38.9,38.9V787c0,21.4-17.5,38.9-38.9,38.9H290.4
	c-21.4,0-38.9-17.5-38.9-38.9V173.8C251.6,152.4,269,134.9,290.4,134.9L290.4,134.9z"/>
<g>
	<path class="st2" d="M565.3,363.3c9.2-14.8,14.6-32.2,14.6-50.8c0-53-43.3-96.3-96.3-96.3c-18.6,0-36,5.3-50.8,14.6L565.3,363.3z"
		/>
	<path class="st2" d="M400.9,263.1c-8.7,14.5-13.7,31.3-13.7,49.4c0,53,43.3,96.3,96.3,96.3c18,0,34.9-5,49.4-13.7L400.9,263.1z"/>
</g>
<path class="st3" d="M483.5,173.2c-77.4,0-140.5,63.1-140.5,140.5c0,77.4,63.1,140.5,140.5,140.5c77.4,0,140.5-63.1,140.5-140.5
	C624,236.3,560.9,173.2,483.5,173.2z M378.9,313.7c0-24,8.1-46.1,21.8-63.7l146.5,146.5c-17.7,13.6-39.8,21.8-63.7,21.8
	C425.9,418.3,378.9,371.3,378.9,313.7z M566.6,377L420.2,230.6c17.6-13.4,39.5-21.4,63.3-21.4c57.6,0,104.6,47,104.6,104.6
	C588.1,337.5,580.1,359.4,566.6,377z"/>
<path class="st4" d="M563.8,778.3l0.2-15c0-2.6-0.3-4.9-1.4-7.3l38.1,0.2V767L563.8,778.3L563.8,778.3z"/>
<path class="st4" d="M477.5,749.6v-83.5h123.2v83.5h-39.8c-14.7-23.4-46.8-22.2-58.7,0H477.5L477.5,749.6z"/>
<path class="st4" d="M500.2,755.9l-28.5,0.2v-89.9h-63l-33.1,54.4v29h73l0.2,29h50.9l-0.2-15C499.6,761.4,498.8,759.2,500.2,755.9z
	 M384.3,720.6l27.6-46.1h52.6l0.2,46.1H384.3z"/>
<path class="st4" d="M531.8,752.6c-7.1,0-13,5.9-13,13c0,7.1,5.9,13,13,13c7.1,0,13-5.9,13-13C544.8,758.5,539,752.6,531.8,752.6
	L531.8,752.6z M531.8,738.4c15,0,27.2,12.2,27.2,27.2c0,15-12.2,27.2-27.2,27.2c-15,0-27.2-12.2-27.2-27.2
	C504.6,750.6,516.8,738.4,531.8,738.4L531.8,738.4z"/>
<path class="st4" d="M428.6,660.8l3.4-13.5c1.7-6.9,13.4-8,15.4,0l3.4,13.5H428.6L428.6,660.8z"/>
<polygon class="st4" points="443.1,755.8 362.2,755.8 362.2,770.1 443.1,770.1 443.1,755.8 "/>
<polygon class="st4" points="436.9,775.6 443.2,775.6 443.2,785.4 445.9,792.3 439.6,792.3 436.9,785.4 436.9,775.6 "/>
<polygon class="st4" points="368.7,775.6 362.4,775.6 362.4,785.4 359.7,792.3 366,792.3 368.7,785.4 368.7,775.6 "/>
<polygon class="st4" points="424.4,775.6 430.7,775.6 430.7,785.4 432.3,792.3 426,792.3 424.4,785.4 424.4,775.6 "/>
<polygon class="st4" points="381.2,775.6 374.9,775.6 374.9,785.4 373.3,792.3 379.6,792.3 381.2,785.4 381.2,775.6 "/>
<polygon class="st4" points="412.2,775.6 418.5,775.6 418.5,785.4 418.5,792.3 412.2,792.3 412.2,785.4 412.2,775.6 "/>
<polygon class="st4" points="399.6,775.6 405.9,775.6 405.9,785.4 405.9,792.3 399.6,792.3 399.6,785.4 399.6,775.6 "/>
<polygon class="st4" points="387.3,775.6 393.6,775.6 393.6,785.4 393.6,792.3 387.3,792.3 387.3,785.4 387.3,775.6 "/>
<path class="st5" d="M330.4,547.4v-47.2h8.8v39.3h22.1v7.9H330.4L330.4,547.4z M388,547.4v-5c-1.1,1.8-2.8,3.3-4.5,4.2
	c-1.8,1.1-3.8,1.6-5.8,1.6c-2,0-4-0.5-5.6-1.5c-1.6-1-2.9-2.5-3.5-4.2c-0.8-1.8-1.1-4.4-1.1-7.6v-21.8h8.3v15.8
	c0,4.8,0.1,7.8,0.4,8.9c0.3,1.1,0.9,1.9,1.6,2.5c0.8,0.5,1.9,1,3.1,1c1.4,0,2.8-0.4,3.9-1.2c1.1-0.8,2-1.9,2.4-3.1
	c0.4-1.2,0.6-4.4,0.6-9.3v-14.5h8.3v34.4H388L388,547.4z M433.3,547.4H425V530c0-3.5-0.3-6-0.5-7.1c-0.4-1.1-1-2-1.8-2.6
	c-0.8-0.5-1.9-1-3-1c-1.4,0-2.8,0.4-3.8,1.2c-1.1,0.8-2,2.2-2.4,3.5c-0.4,1.4-0.6,4.1-0.6,7.9v15.4h-8.3v-34.4h8v5.2
	c2.6-4,6.1-6,10.2-6c1.8,0,3.4,0.4,4.9,1.1c1.5,0.7,2.6,1.6,3.4,2.7c0.8,1.1,1.4,2.5,1.6,3.8c0.3,1.4,0.5,3.5,0.5,6.3V547.4
	L433.3,547.4z M474.6,534.9v-9h16.6v9H474.6L474.6,534.9z M541,547.4L525.8,500h9.3l10.9,35.2l10.8-35.2h9.4l-15.8,47.4H541
	L541,547.4z M585.9,536.5l8.3,1.1c-1,3.5-2.9,6.3-5.1,7.9c-2.3,1.8-5.3,2.7-8.7,2.7c-5.5,0-9.7-2-12.3-5.9c-2-3-3-7.1-3-11.9
	c0-5.6,1.4-10.1,4-13.4c2.8-3.3,6.3-4.9,10.4-4.9c4.8,0,8.5,1.8,11.2,5c2.8,3.3,4,8.6,4,15.4h-21.3c0,2.7,0.7,4.9,2,6.3
	c1.3,1.4,3,2.2,5,2.2c1.3,0,2.5-0.4,3.4-1.1C584.7,539.4,585.4,538.1,585.9,536.5L585.9,536.5z M586.4,527.2c0-2.5-0.8-4.5-2-5.9
	c-1.3-1.4-2.8-2-4.5-2c-1.8,0-3.4,0.8-4.6,2.2c-1.3,1.4-1.8,3.4-1.8,5.7H586.4L586.4,527.2z M629.8,547.4h-8.3V530
	c0-3.5-0.3-6-0.5-7.1c-0.4-1.1-1-2-1.8-2.6c-0.8-0.5-1.9-1-3-1c-1.4,0-2.8,0.4-3.8,1.2c-1.1,0.8-2,2.2-2.4,3.5
	c-0.4,1.4-0.6,4.1-0.6,7.9v15.4h-8.3v-34.4h8v5.2c2.6-4,6.1-6,10.2-6c1.8,0,3.4,0.4,4.9,1.1c1.5,0.7,2.6,1.6,3.4,2.7
	c0.7,1.1,1.4,2.5,1.6,3.8c0.3,1.4,0.5,3.5,0.5,6.3V547.4L629.8,547.4z"/>
<path class="st5" d="M362.3,611.3v7.4h-24.9c0.3-2.5,1.2-5.2,2.5-7.7c1.2-2.5,4-6.1,8-10.1c3.1-3.4,5.2-5.5,5.8-7.1
	c0.9-1.8,1.5-3.1,1.5-4.9c0-1.8-0.3-3.4-1.2-4.3c-0.9-1.2-2.2-1.5-3.7-1.5c-1.5,0-2.8,0.3-3.7,1.5c-0.9,0.9-1.5,2.8-1.5,4.9
	l-6.8-0.6c0.3-4.3,1.8-7.7,3.7-9.8c2.5-1.8,5.2-2.8,8.3-2.8c3.7,0,6.8,0.9,8.6,3.7c2.2,2.2,3.4,4.9,3.4,8c0,2.2-0.3,4-0.9,5.5
	c-0.6,1.8-1.8,4-3.1,5.5c-0.6,1.2-2.5,3.1-4.6,5.5c-2.5,2.2-3.7,4-4.3,4.6c-0.6,0.6-1.2,1.5-1.5,2.2H362.3L362.3,611.3z"/>
<path class="st5" d="M384.4,618.7h-7.1V588c-2.5,3.1-5.5,5.2-8.9,6.1V587c1.8-0.6,3.7-1.8,5.8-4c2.2-1.8,3.7-4.3,4.6-6.8h5.5V618.7
	L384.4,618.7z"/>
<path class="st5" d="M414.9,586.4c2.8,0,4.9,1.2,6.2,3.5c1.8,2.5,2.8,6.9,2.8,12.9c0,6.2-0.9,10.4-2.8,13.2c-1.4,1.8-3.5,3-6.2,3
	c-2.8,0-4.9-1.2-6.5-3.5c-1.6-2.5-2.5-6.7-2.5-12.7c0-6.2,0.9-10.4,2.8-13.2C410,587.6,412.1,586.4,414.9,586.4L414.9,586.4z
	 M414.9,591.5c-0.7,0-1.2,0.2-1.6,0.9c-0.5,0.5-1.2,1.2-1.4,2.3c-0.2,1.6-0.5,4.4-0.5,8.1c0,3.7,0.2,6.5,0.5,7.6
	c0.2,1.6,0.7,2.3,1.2,2.8c0.5,0.2,1.2,0.7,1.8,0.7c0.7,0,1.2-0.5,1.6-0.7c0.5-0.5,0.9-1.2,1.4-2.5c0.2-1.4,0.5-4.2,0.5-7.9
	c0-3.7-0.2-6.2-0.5-7.9c-0.2-1.4-0.7-2.1-1.2-2.5C416.2,591.7,415.6,591.5,414.9,591.5L414.9,591.5z M436.1,586.4
	c2.8,0,4.9,1.2,6.2,3.5c1.8,2.5,2.8,6.9,2.8,12.9c0,6.2-0.9,10.4-2.8,13.2c-1.4,1.8-3.5,3-6.2,3c-2.5,0-4.9-1.2-6.5-3.5
	c-1.6-2.5-2.5-6.7-2.5-12.7c0-6.2,0.9-10.4,2.8-13.2C431.3,587.6,433.6,586.4,436.1,586.4L436.1,586.4z M436.1,591.5
	c-0.7,0-1.2,0.2-1.6,0.9c-0.5,0.5-0.9,1.2-1.2,2.3c-0.5,1.6-0.7,4.4-0.7,8.1c0,3.7,0.2,6.5,0.5,7.6c0.5,1.6,0.7,2.3,1.2,2.8
	c0.5,0.2,1.2,0.7,1.8,0.7c0.7,0,1.2-0.5,1.6-0.7c0.5-0.5,0.9-1.2,1.4-2.5c0.2-1.4,0.5-4.2,0.5-7.9c0-3.7,0-6.2-0.5-7.9
	c-0.2-1.4-0.7-2.1-1.2-2.5C437.5,591.7,436.8,591.5,436.1,591.5L436.1,591.5z"/>
<path class="st5" d="M593.1,586.4c2.8,0,4.9,1.2,6.2,3.5c1.8,2.5,2.8,6.9,2.8,12.9c0,6.2-0.9,10.4-2.8,13.2c-1.4,1.8-3.5,3-6.2,3
	c-2.8,0-4.9-1.2-6.5-3.5c-1.6-2.5-2.5-6.7-2.5-12.7c0-6.2,0.9-10.4,2.8-13.2C588.2,587.6,590.3,586.4,593.1,586.4L593.1,586.4z
	 M593.1,591.5c-0.7,0-1.2,0.2-1.6,0.9c-0.5,0.5-1.2,1.2-1.4,2.3c-0.2,1.6-0.5,4.4-0.5,8.1c0,3.7,0.2,6.5,0.5,7.6
	c0.2,1.6,0.7,2.3,1.2,2.8c0.5,0.2,1.2,0.7,1.8,0.7c0.7,0,1.2-0.5,1.6-0.7c0.5-0.5,0.9-1.2,1.4-2.5c0.2-1.4,0.5-4.2,0.5-7.9
	c0-3.7-0.2-6.2-0.5-7.9c-0.2-1.4-0.7-2.1-1.2-2.5C594.5,591.7,593.8,591.5,593.1,591.5L593.1,591.5z M614.3,586.4
	c2.8,0,4.9,1.2,6.2,3.5c1.8,2.5,2.8,6.9,2.8,12.9c0,6.2-0.9,10.4-2.8,13.2c-1.4,1.8-3.5,3-6.2,3c-2.5,0-4.8-1.2-6.5-3.5
	c-1.6-2.5-2.5-6.7-2.5-12.7c0-6.2,0.9-10.4,2.8-13.2C609.5,587.6,611.8,586.4,614.3,586.4L614.3,586.4z M614.3,591.5
	c-0.7,0-1.2,0.2-1.6,0.9c-0.5,0.5-0.9,1.2-1.2,2.3c-0.5,1.6-0.7,4.4-0.7,8.1c0,3.7,0.2,6.5,0.5,7.6c0.5,1.6,0.7,2.3,1.2,2.8
	c0.5,0.2,1.2,0.7,1.8,0.7c0.7,0,1.2-0.5,1.6-0.7c0.5-0.5,0.9-1.2,1.4-2.5c0.2-1.4,0.5-4.2,0.5-7.9c0-3.7,0-6.2-0.5-7.9
	c-0.2-1.4-0.7-2.1-1.2-2.5C615.7,591.7,615,591.5,614.3,591.5L614.3,591.5z"/>
<polygon class="st5" points="480.3,607.6 480.3,600 494.1,600 494.1,607.6 480.3,607.6 "/>
<path class="st5" d="M552.8,618.7v-8h-14.7v-7.4l15.4-27h6.1v27h4.6v7.4h-4.6v8H552.8L552.8,618.7z M552.8,603.3v-14.1l-8.3,14.1
	H552.8L552.8,603.3z"/>
<path class="st5" d="M572.7,618.6c-0.7-0.2-1.2-0.6-1.6-1.2c-0.4-0.6-0.6-1.3-0.6-2.2c0-1.1,0.4-2,1.2-2.8c0.8-0.8,1.7-1.2,2.8-1.2
	c1.3,0,2.3,0.4,3.1,1.3c0.8,0.9,1.1,2,1.1,3.5c0,2.3-0.8,4.4-2.4,6.2c-1.6,1.8-3.6,2.8-6.1,3.2v-1.3c0.8-0.9,1.4-1.8,1.8-2.6
	c0.4-0.9,0.6-1.7,0.6-2.6V618.6L572.7,618.6z"/>
<path class="st5" d="M394.8,618.6c-0.7-0.2-1.2-0.6-1.6-1.2c-0.4-0.6-0.6-1.3-0.6-2.2c0-1.1,0.4-2,1.2-2.8c0.8-0.8,1.7-1.2,2.8-1.2
	c1.3,0,2.3,0.4,3.1,1.3c0.8,0.9,1.1,2,1.1,3.5c0,2.3-0.8,4.4-2.4,6.2c-1.6,1.8-3.6,2.8-6.1,3.2v-1.3c0.8-0.9,1.4-1.8,1.8-2.6
	c0.4-0.9,0.6-1.7,0.6-2.6V618.6L394.8,618.6z"/>
<path class="st6" d="M483.5,166.2c81.3,0,147.5,66.3,147.5,147.5c0,81.3-66.3,147.5-147.5,147.5c-81.3,0-147.5-66.3-147.5-147.5
	C336,232.4,402.2,166.2,483.5,166.2L483.5,166.2z"/>
</svg>
