<?xml version="1.0" encoding="utf-8"?>
<!-- Generator: Adobe Illustrator 19.2.0, SVG Export Plug-In . SVG Version: 6.00 Build 0)  -->
<svg version="1.1" id="Livello_1" xmlns="http://www.w3.org/2000/svg" xmlns:xlink="http://www.w3.org/1999/xlink" x="0px" y="0px"
	 viewBox="0 0 960 960" style="enable-background:new 0 0 960 960;" xml:space="preserve">
<style type="text/css">
	.st0{fill-rule:evenodd;clip-rule:evenodd;fill:#FFFFFF;stroke:#1A171B;stroke-width:0.9532;stroke-miterlimit:2.6131;}
	.st1{fill:none;stroke:#1A171B;stroke-width:9.5321;stroke-miterlimit:2.6131;}
	.st2{fill-rule:evenodd;clip-rule:evenodd;fill:#005EA7;}
	.st3{fill-rule:evenodd;clip-rule:evenodd;fill:#1A171B;stroke:#1A171B;stroke-width:2.5419;stroke-miterlimit:2.6131;}
	.st4{fill-rule:evenodd;clip-rule:evenodd;fill:#FFFFFF;stroke:#FFFFFF;stroke-width:2.5419;stroke-miterlimit:2.6131;}
	.st5{fill-rule:evenodd;clip-rule:evenodd;fill:#1A171B;stroke:#1A171B;stroke-width:0.9532;stroke-miterlimit:2.6131;}
	.st6{fill-rule:evenodd;clip-rule:evenodd;fill:#FFFFFF;stroke:#005EA7;stroke-width:0.9532;stroke-miterlimit:2.6131;}
</style>
<g>
	<g>
		<polygon class="st0" points="238.2,120 721.8,120 721.8,840 238.2,840 238.2,120 		"/>
		<path class="st1" d="M290.4,134.9h379.8c21.4,0,38.9,17.5,38.9,38.9V787c0,21.4-17.5,38.9-38.9,38.9H290.4
			c-21.4,0-38.9-17.5-38.9-38.9V173.8C251.6,152.4,269,134.9,290.4,134.9L290.4,134.9z"/>
		<path class="st0" d="M498.2,189.6c47.9,8.6,78.9,25.9,108,65.2c16.6,26.7,24.3,51.6,25.4,82.9c-2.1,62.6-34.5,110.4-90.6,136.6
			c-63.6,26.2-127.5,8-172.7-42.2c-28.3-37.2-39-78.1-30.7-124.6c9.6-35.8,23.5-59.6,51.1-84.5c29.4-21.9,57.2-32.9,94.4-34
			L498.2,189.6L498.2,189.6z"/>
		<path class="st2" d="M483.6,197.3c77.2,0,140.1,62.9,140.1,140.1s-62.9,140.1-140.1,140.1s-140.1-62.9-140.1-140.1
			S406.4,197.3,483.6,197.3L483.6,197.3z"/>
		<path class="st3" d="M622.8,729.1v-54.4l-18.1-46.5h-49.9v76.6H416.6c7.5,2.8,13.1,13.1,13.9,24.3h124.2
			c1.8-39.8,57.6-39.7,58.9,0H622.8L622.8,729.1z"/>
		<path class="st3" d="M386.3,704.7h-45.9v11.1l32,12.2C371.7,718.1,379.2,707.4,386.3,704.7L386.3,704.7z"/>
		<polygon class="st3" points="548.3,698.4 548.3,595 340.4,595 340.2,698.5 548.3,698.4 		"/>
		<polygon class="st4" points="610.9,668.7 599.4,638.5 562.2,638.5 562.2,668.7 610.9,668.7 		"/>
		<path class="st5" d="M584,705c-13.3,0-24.2,10.9-24.2,24.2c0,13.3,10.9,24.2,24.2,24.2c13.3,0,24.2-10.9,24.2-24.2
			C608.2,715.9,597.3,705,584,705L584,705z"/>
		<path class="st5" d="M401.2,705c-13.3,0-24.2,10.9-24.2,24.2c0,13.3,10.9,24.2,24.2,24.2c13.3,0,24.2-10.9,24.2-24.2
			C425.4,715.9,414.5,705,401.2,705L401.2,705z"/>
		<path class="st0" d="M584,717.6c-6.4,0-11.6,5.2-11.6,11.6c0,6.4,5.2,11.6,11.6,11.6c6.4,0,11.6-5.2,11.6-11.6
			C595.6,722.9,590.4,717.6,584,717.6L584,717.6z"/>
		<path class="st0" d="M401.2,717.6c-6.4,0-11.6,5.2-11.6,11.6c0,6.4,5.2,11.6,11.6,11.6c6.4,0,11.6-5.2,11.6-11.6
			C412.8,722.9,407.6,717.6,401.2,717.6L401.2,717.6z"/>
		<path class="st6" d="M583.8,280.7l-80.2,82.4c-4.2,0.9-7.5-1.2-8.6-5.1l-1.9-34.2c-28.3-0.2-39.7,10.6-41,31.7l0,75.4l-36.3-0.1
			l0-75.2c-0.1-40,30.6-62.8,67.8-66.8l-15.3-30.5c-1.2-4,0.9-7.3,4.8-8.5L583.8,280.7L583.8,280.7z"/>
	</g>
</g>
</svg>
