<?xml version="1.0" encoding="utf-8"?>
<!-- Generator: Adobe Illustrator 19.2.0, SVG Export Plug-In . SVG Version: 6.00 Build 0)  -->
<svg version="1.1" id="Livello_1" xmlns="http://www.w3.org/2000/svg" xmlns:xlink="http://www.w3.org/1999/xlink" x="0px" y="0px"
	 viewBox="0 0 960 960" style="enable-background:new 0 0 960 960;" xml:space="preserve">
<style type="text/css">
	.st0{fill-rule:evenodd;clip-rule:evenodd;fill:#FFFFFF;stroke:#1A171B;stroke-width:0.9532;stroke-miterlimit:2.6131;}
	.st1{fill:none;stroke:#1A171B;stroke-width:9.532;stroke-miterlimit:2.6131;}
	.st2{fill-rule:evenodd;clip-rule:evenodd;fill:#E1001A;}
	.st3{fill-rule:evenodd;clip-rule:evenodd;fill:#FFFFFF;}
	.st4{fill-rule:evenodd;clip-rule:evenodd;fill:#1A171B;stroke:#1A171B;stroke-width:0.9532;stroke-miterlimit:2.6131;}
	.st5{fill-rule:evenodd;clip-rule:evenodd;fill:#FFFFFF;stroke:#FFFFFF;stroke-width:0.9532;stroke-miterlimit:2.6131;}
	.st6{fill-rule:evenodd;clip-rule:evenodd;fill:none;stroke:#1A171B;stroke-width:1.7788;stroke-miterlimit:2.6131;}
</style>
<g>
	<g>
		<polygon class="st0" points="238.2,120 721.8,120 721.8,840 238.2,840 238.2,120 		"/>
		<path class="st1" d="M290.4,134.9h379.8c21.4,0,38.9,17.5,38.9,38.9V787c0,21.4-17.5,38.9-38.9,38.9H290.4
			c-21.4,0-38.9-17.5-38.9-38.9V173.8C251.6,152.4,269,134.9,290.4,134.9L290.4,134.9z"/>
		<path class="st2" d="M483.4,174.3c77.2,0,140.1,62.9,140.1,140.1c0,77.2-62.9,140.1-140.1,140.1s-140.1-62.9-140.1-140.1
			C343.3,237.3,406.2,174.3,483.4,174.3L483.4,174.3z"/>
		<path class="st3" d="M483.4,210.2c57.4,0,104.3,46.8,104.3,104.3c0,57.4-46.8,104.3-104.3,104.3c-57.4,0-104.3-46.8-104.3-104.3
			C379.1,257,425.9,210.2,483.4,210.2L483.4,210.2z"/>
		<path class="st4" d="M338.8,777.9v-33.3l11.1-29.7h34.2v36.3h46.5v26.7h-5.7c-1-24.4-35.2-25.4-37.5,0c-1.5,0-3.2,0-5.5,0
			c-1-24.1-36.5-25.5-37.6,0H338.8L338.8,777.9z"/>
		<path class="st4" d="M435.1,777.9v-16.6h73c-8.9,4.4-9.9,10.2-11,16.6H435.1L435.1,777.9z"/>
		<path class="st4" d="M534.6,777.9c0-5.7-2.9-13.2-9.9-16.6h25.7c-6.3,2.3-11.1,11-11.3,16.6H534.6L534.6,777.9z"/>
		<path class="st4" d="M576.9,777.9c-0.2-6.6-4.4-14.2-10-16.6h52.8v8.7l-21,7.9H576.9L576.9,777.9z"/>
		<polygon class="st4" points="435.1,756.7 435.2,746.9 388.7,746.9 388.9,693.7 619.9,693.7 619.9,756.7 435.1,756.7 		"/>
		<polygon class="st5" points="345.6,739.1 352.4,721.3 379.8,721.3 379.8,739.1 345.6,739.1 		"/>
		<path class="st4" d="M406.3,762.3c8.5,0,15.5,7,15.5,15.5c0,8.5-7,15.5-15.5,15.5c-8.5,0-15.5-7-15.5-15.5
			C390.8,769.3,397.8,762.3,406.3,762.3L406.3,762.3z"/>
		<path class="st4" d="M515.8,762.3c8.5,0,15.5,7,15.5,15.5c0,8.5-7,15.5-15.5,15.5c-8.5,0-15.5-7-15.5-15.5
			C500.3,769.3,507.2,762.3,515.8,762.3L515.8,762.3z"/>
		<path class="st4" d="M557.8,762.3c8.5,0,15.5,7,15.5,15.5c0,8.5-7,15.5-15.5,15.5c-8.5,0-15.5-7-15.5-15.5
			C542.3,769.3,549.3,762.3,557.8,762.3L557.8,762.3z"/>
		<path class="st4" d="M363.2,762.3c8.5,0,15.5,7,15.5,15.5c0,8.5-7,15.5-15.5,15.5c-8.5,0-15.5-7-15.5-15.5
			C347.6,769.3,354.6,762.3,363.2,762.3L363.2,762.3z"/>
		<path class="st0" d="M406.3,771.1c3.7,0,6.7,3,6.7,6.7c0,3.7-3,6.7-6.7,6.7c-3.7,0-6.7-3-6.7-6.7
			C399.6,774.1,402.6,771.1,406.3,771.1L406.3,771.1z"/>
		<path class="st0" d="M515.8,771.1c3.7,0,6.7,3,6.7,6.7c0,3.7-3,6.7-6.7,6.7c-3.7,0-6.7-3-6.7-6.7
			C509.1,774.1,512.1,771.1,515.8,771.1L515.8,771.1z"/>
		<path class="st0" d="M557.8,771.1c3.7,0,6.7,3,6.7,6.7c0,3.7-3,6.7-6.7,6.7c-3.7,0-6.7-3-6.7-6.7
			C551.2,774.1,554.2,771.1,557.8,771.1L557.8,771.1z"/>
		<path class="st0" d="M363.2,771.1c3.7,0,6.7,3,6.7,6.7c0,3.7-3,6.7-6.7,6.7c-3.7,0-6.7-3-6.7-6.7
			C356.5,774.1,359.5,771.1,363.2,771.1L363.2,771.1z"/>
		<path class="st4" d="M347,582.5l7-19.1h22.8v19.1H347L347,582.5z M620.5,604.8v15h-26.6c0-6-4.5-13-8.3-15H620.5L620.5,604.8z
			 M620.5,536.2v64.9H385.6v-64.9h128.6v57.9H536v-57.9H620.5L620.5,536.2z M363.6,604.8c8,0,14.8,6.8,14.8,15
			c0,8.3-6.8,15.3-14.8,15.3c-8.5,0-15.5-7-15.5-15.3C348,611.6,355,604.8,363.6,604.8L363.6,604.8z M475.1,604.8
			c7.8,0,15.3,6.8,15.3,15c0,8.3-7.5,15.3-15.3,15.3c-8.3,0-14.8-7-14.8-15.3C460.3,611.6,466.8,604.8,475.1,604.8L475.1,604.8z
			 M575.6,604.8c8.3,0,15,6.8,15,15c0,8.3-6.8,15.3-15,15.3c-8.3,0-15-7-15-15.3C560.6,611.6,567.4,604.8,575.6,604.8L575.6,604.8z
			 M363.6,612.6c4,0,7,3.5,7,7.3c0,4.3-3,7.5-7,7.5c-4,0-7.8-3.3-7.8-7.5C355.8,616.1,359.5,612.6,363.6,612.6L363.6,612.6z
			 M475.1,612.6c4,0,7.3,3.5,7.3,7.3c0,4.3-3.3,7.5-7.3,7.5c-3.8,0-7.3-3.3-7.3-7.5C467.8,616.1,471.4,612.6,475.1,612.6
			L475.1,612.6z M575.6,612.6c4,0,7.3,3.3,7.3,7.3c0,4-3.3,7.5-7.3,7.5c-4,0-7-3.5-7-7.5C568.6,615.9,571.6,612.6,575.6,612.6
			L575.6,612.6z M493.4,619.9c0-6-3-12.8-8.3-15h29.1v15H493.4L493.4,619.9z M536,619.9v-15h29.8c-5.3,3-8.8,9-8.8,15H536L536,619.9
			z M382.4,619.9c-1.3-25.3-36.9-24.8-37.6,0h-5.5v-34.1l11-29.1h31.6l-0.3,48.1l83-0.3c-4.3,3.8-7.8,9.3-7.8,15.3H382.4
			L382.4,619.9z"/>
		<path class="st6" d="M483.5,166.2c81.3,0,147.5,66.3,147.5,147.5c0,81.3-66.3,147.5-147.5,147.5c-81.3,0-147.5-66.3-147.5-147.5
			C336,232.4,402.2,166.2,483.5,166.2L483.5,166.2z"/>
	</g>
</g>
</svg>
