<?xml version="1.0" encoding="utf-8"?>
<!-- Generator: Adobe Illustrator 19.2.0, SVG Export Plug-In . SVG Version: 6.00 Build 0)  -->
<svg version="1.1" id="Livello_1" xmlns="http://www.w3.org/2000/svg" xmlns:xlink="http://www.w3.org/1999/xlink" x="0px" y="0px"
	 viewBox="0 0 960 960" style="enable-background:new 0 0 960 960;" xml:space="preserve">
<style type="text/css">
	.st0{fill-rule:evenodd;clip-rule:evenodd;fill:#005EA7;stroke:#005EA7;stroke-width:6.8394;stroke-miterlimit:2.6131;}
	.st1{fill:none;stroke:#FFFFFF;stroke-width:8.5493;stroke-miterlimit:2.6131;}
	.st2{fill-rule:evenodd;clip-rule:evenodd;fill:#FFFFFF;stroke:#005EA7;stroke-width:6.8394;stroke-miterlimit:2.6131;}
	.st3{fill-rule:evenodd;clip-rule:evenodd;fill:#1A171B;}
</style>
<g>
	<g>
		<polygon class="st0" points="58.9,626 899.4,626 899.4,840 58.9,840 58.9,626 		"/>
		<path class="st1" d="M94.9,637.3h768.9c13.6,0,24.7,11.1,24.7,24.7v142.2c0,13.6-11.1,24.7-24.7,24.7H94.9
			c-13.6,0-24.7-11.1-24.7-24.7V662C70.3,648.4,81.4,637.3,94.9,637.3L94.9,637.3z"/>
		<path class="st2" d="M88,697.6h653.2l-11.1-42.4c-2.3-4.5,4.5-11.3,11.1-6.8l135.9,84.7l-135.9,84.7c-4.5,4.5-13.4-2.3-11.1-8.8
			l11.1-40.1H88V697.6L88,697.6z"/>
		<polygon class="st0" points="899.4,225.3 58.9,225.3 58.9,439.3 899.4,439.3 899.4,225.3 		"/>
		<path class="st1" d="M863.4,236.6H94.5c-13.6,0-24.7,11.1-24.7,24.7v142.2c0,13.6,11.1,24.7,24.7,24.7h768.9
			c13.6,0,24.7-11.1,24.7-24.7V261.3C888.1,247.7,877,236.6,863.4,236.6L863.4,236.6z"/>
		<path class="st2" d="M870.3,296.9H217.2l11.1-42.4c2.3-4.5-4.5-11.3-11.1-6.8L81.3,332.5l135.9,84.7c4.5,4.5,13.4-2.3,11.1-8.8
			l-11.1-40.1h653.2V296.9L870.3,296.9z"/>
		<path class="st3" d="M898.8,186.9h-14.7l-5.8-15.2h-26.8l-5.5,15.2h-14.3l26.1-66.9H872L898.8,186.9L898.8,186.9z M873.9,160.5
			l-9.2-24.8l-9,24.8H873.9L873.9,160.5z"/>
		<path class="st3" d="M845,519.3h26.8c5.3,0,9.3,0.2,11.9,0.7c2.6,0.4,4.9,1.4,7,2.8c2.1,1.4,3.8,3.3,5.1,5.6
			c1.4,2.3,2.1,4.9,2.1,7.8c0,3.1-0.8,6-2.5,8.6c-1.7,2.6-4,4.6-6.9,5.9c4.1,1.2,7.2,3.2,9.4,6.1c2.2,2.9,3.3,6.2,3.3,10.1
			c0,3-0.7,6-2.1,8.9c-1.4,2.9-3.3,5.2-5.8,6.9c-2.4,1.7-5.5,2.8-9.1,3.2c-2.2,0.2-7.7,0.4-16.3,0.4H845V519.3L845,519.3z
			 M858.5,530.5V546h8.9c5.3,0,8.5-0.1,9.8-0.2c2.3-0.3,4.1-1.1,5.5-2.4s2-3.1,2-5.2c0-2.1-0.6-3.8-1.7-5.1
			c-1.2-1.3-2.9-2.1-5.1-2.3c-1.3-0.2-5.2-0.2-11.6-0.2H858.5L858.5,530.5z M858.5,557.1V575H871c4.9,0,8-0.1,9.3-0.4
			c2-0.4,3.6-1.3,4.9-2.7c1.3-1.4,1.9-3.3,1.9-5.7c0-2-0.5-3.7-1.5-5.1c-1-1.4-2.4-2.4-4.2-3.1c-1.8-0.6-5.8-1-12-1H858.5
			L858.5,557.1z"/>
	</g>
</g>
</svg>
