<?xml version="1.0" encoding="utf-8"?>
<!-- Generator: Adobe Illustrator 19.2.0, SVG Export Plug-In . SVG Version: 6.00 Build 0)  -->
<svg version="1.1" id="Livello_1" xmlns="http://www.w3.org/2000/svg" xmlns:xlink="http://www.w3.org/1999/xlink" x="0px" y="0px"
	 viewBox="0 0 960 960" style="enable-background:new 0 0 960 960;" xml:space="preserve">
<style type="text/css">
	.st0{opacity:1.000000e-002;fill:#FFFFFF;enable-background:new    ;}
	.st1{fill:#CECFD1;stroke:#1A171B;stroke-width:0.9914;stroke-miterlimit:2.6131;}
	.st2{fill:none;stroke:#1A171B;stroke-width:0.9914;stroke-miterlimit:2.6131;}
	.st3{fill:#BBBCBE;stroke:#1A171B;stroke-width:0.9914;stroke-miterlimit:2.6131;}
	.st4{fill:#FFEC00;stroke:#1A171B;stroke-width:0.9914;stroke-miterlimit:2.6131;}
	.st5{fill:#E1001A;stroke:#1A171B;stroke-width:0.9914;stroke-miterlimit:2.6131;}
	.st6{fill:#008F36;stroke:#1A171B;stroke-width:0.9914;stroke-miterlimit:2.6131;}
	.st7{fill:#9B9B9D;stroke:#1A171B;stroke-width:0.8922;stroke-miterlimit:2.6131;}
	.st8{display:none;fill:#9B9B9D;stroke:#1A171B;stroke-width:0.8922;stroke-miterlimit:2.6131;}
</style>
<rect class="st0" width="1" height="1"/>
<rect x="959" y="959" class="st0" width="1" height="1"/>
<g>
	<g>
		<polygon class="st1" points="363.7,175.2 596.4,175.2 596.4,794.8 363.7,794.8 		"/>
		<polygon class="st2" points="363.7,382 596.4,382 596.4,587.8 363.7,587.8 		"/>
		<path class="st3" d="M367.5,146.9h225c8.1,0,14.7,6.3,14.7,14v0.1c0,7.7-6.6,14-14.7,14h-225c-8.1,0-14.7-6.3-14.7-14v-0.1
			C352.8,153.2,359.4,146.9,367.5,146.9L367.5,146.9z"/>
		<path class="st3" d="M367.5,794.8h225c8.1,0,14.7,6.5,14.7,14.5v0.1c0,8-6.6,14.5-14.7,14.5h-225c-8.1,0-14.7-6.5-14.7-14.5v-0.1
			C352.8,801.4,359.4,794.8,367.5,794.8L367.5,794.8z"/>
		<path class="st1" d="M383.1,146.9c35.6,0,18.3-26.9,47.4-26.9H534c31.2,0,14,26.9,45.2,26.9H383.1L383.1,146.9z"/>
		<path class="st1" d="M424,823.9h115.3c2.9,0,5.4,2.4,5.4,5.4v5.4c0,2.9-2.4,5.4-5.4,5.4H424c-3,0-5.4-2.4-5.4-5.4v-5.4
			C418.6,826.3,421,823.9,424,823.9L424,823.9z"/>
		<path class="st1" d="M363.7,354.8c-24.9,0-50.6-70.2-105.6-104.5c-11.4-7.1-21.6-23.6-24.7-38.8l130.4-19.4L363.7,354.8
			L363.7,354.8z"/>
		<path class="st1" d="M363.7,562.9c-24.9,0-50.6-70.2-105.6-104.5c-11.4-7.1-21.6-23.6-24.7-38.8l130.4-19.4L363.7,562.9
			L363.7,562.9z"/>
		<path class="st1" d="M363.7,768.9c-24.9,0-50.6-70.2-105.6-104.5c-11.4-7.1-21.6-23.6-24.7-38.8l130.4-19.4L363.7,768.9
			L363.7,768.9z"/>
		<path class="st1" d="M596.3,768.9c24.9,0,50.6-70.2,105.6-104.5c11.4-7.1,21.6-23.6,24.7-38.8l-130.4-19.4v162.7H596.3z"/>
		<path class="st1" d="M596.3,562.9c24.9,0,50.6-70.2,105.6-104.5c11.4-7.1,21.6-23.6,24.7-38.8l-130.4-19.4v162.7H596.3z"/>
		<path class="st1" d="M596.3,354.8c24.9,0,50.6-70.2,105.6-104.5c11.4-7.1,21.6-23.6,24.7-38.8l-130.4-19.4v162.7H596.3z"/>
		<path class="st4" d="M479.2,398.2c48.1,0,87.3,39.2,87.3,87.2c0,48.1-39.2,87.3-87.3,87.3S392,533.5,392,485.4
			C391.9,437.4,431.1,398.2,479.2,398.2L479.2,398.2z"/>
		<path class="st5" d="M479.2,191.4c48.1,0,87.3,39.2,87.3,87.3s-39.2,87.2-87.3,87.2S392,326.7,392,278.7
			C391.9,230.6,431.1,191.4,479.2,191.4L479.2,191.4z"/>
		<path class="st6" d="M479.2,603.8c48.1,0,87.3,39.2,87.3,87.3s-39.2,87.2-87.3,87.2S392,739.1,392,691.1
			C391.9,643,431.1,603.8,479.2,603.8L479.2,603.8z"/>
		<path class="st7" d="M479.2,398.2c48.1,0,87.3,39.2,87.3,87.2c0,48.1-39.2,87.3-87.3,87.3S392,533.5,392,485.4
			C391.9,437.4,431.1,398.2,479.2,398.2L479.2,398.2z"/>
		<path class="st8" d="M479.2,191.4c48.1,0,87.3,39.2,87.3,87.3s-39.2,87.2-87.3,87.2S392,326.7,392,278.7
			C391.9,230.6,431.1,191.4,479.2,191.4L479.2,191.4z"/>
		<path class="st7" d="M479.2,603.8c48.1,0,87.3,39.2,87.3,87.3s-39.2,87.2-87.3,87.2S392,739.1,392,691.1
			C391.9,643,431.1,603.8,479.2,603.8L479.2,603.8z"/>
	</g>
</g>
</svg>
