<?xml version="1.0" encoding="utf-8"?>
<!-- Generator: Adobe Illustrator 19.2.0, SVG Export Plug-In . SVG Version: 6.00 Build 0)  -->
<svg version="1.1" id="Livello_1" xmlns="http://www.w3.org/2000/svg" xmlns:xlink="http://www.w3.org/1999/xlink" x="0px" y="0px"
	 viewBox="0 0 960 960" style="enable-background:new 0 0 960 960;" xml:space="preserve">
<style type="text/css">
	.st0{fill:#FFFFFF;stroke:#1A171B;stroke-width:2.872;stroke-miterlimit:2.6131;}
	.st1{fill-rule:evenodd;clip-rule:evenodd;fill:#1A171B;stroke:#1A171B;stroke-width:0.8616;stroke-miterlimit:2.6131;}
	.st2{fill-rule:evenodd;clip-rule:evenodd;fill:#E1001A;stroke:#E1001A;stroke-width:0.8616;stroke-miterlimit:2.6131;}
	.st3{fill-rule:evenodd;clip-rule:evenodd;fill:#FFEC00;stroke:#FFEC00;stroke-width:0.8616;stroke-miterlimit:2.6131;}
	.st4{fill-rule:evenodd;clip-rule:evenodd;fill:#008F36;stroke:#008F36;stroke-width:0.8616;stroke-miterlimit:2.6131;}
	.st5{fill:none;stroke:#1A171B;stroke-width:0.8616;stroke-miterlimit:2.6131;}
</style>
<g>
	<g>
		<polygon class="st0" points="666.9,169.8 915,169.8 915,790.2 666.9,790.2 666.9,169.8 		"/>
		<polygon class="st0" points="356,169.8 604,169.8 604,790.2 356,790.2 356,169.8 		"/>
		<polygon class="st0" points="45,169.8 293.1,169.8 293.1,790.2 45,790.2 45,169.8 		"/>
		<path class="st1" d="M791.2,199c45.3,0,82.3,37,82.3,82.3c0,45.3-37,82.3-82.3,82.3c-45.3,0-82.3-37-82.3-82.3
			C708.9,236,745.8,199,791.2,199L791.2,199z"/>
		<polygon class="st2" points="780.9,270.6 812.3,239.1 843.4,270.4 856.6,257.3 811.8,212.6 767.4,257 780.9,270.6 		"/>
		<polygon class="st2" points="756,335 739.4,306.3 768,289.9 761.1,277.9 720.1,301.5 743.6,342.2 756,335 		"/>
		<polygon class="st2" points="822.6,264.3 801.2,264.3 801.2,313.9 763.5,303.8 759.2,319.7 801.2,330.9 801.2,348.7 822.6,348.7 
			822.6,264.3 		"/>
		<path class="st1" d="M790.8,397.7c45.3,0,82.3,37,82.3,82.3c0,45.3-37,82.3-82.3,82.3c-45.3,0-82.3-37-82.3-82.3
			C708.5,434.7,745.4,397.7,790.8,397.7L790.8,397.7z"/>
		<polygon class="st3" points="780.5,469.3 811.9,437.9 843,469.1 856.2,456 811.4,411.3 767,455.7 780.5,469.3 		"/>
		<polygon class="st3" points="755.6,533.7 739,505 767.6,488.6 760.7,476.6 719.8,500.3 743.2,540.9 755.6,533.7 		"/>
		<polygon class="st3" points="822.2,463.1 800.8,463.1 800.8,512.6 763.1,502.5 758.8,518.4 800.8,529.6 800.8,547.4 822.2,547.4 
			822.2,463.1 		"/>
		<path class="st1" d="M791,599.5c45.4,0,82.5,37,82.5,82.5s-37,82.5-82.5,82.5s-82.5-37-82.5-82.5S745.5,599.5,791,599.5L791,599.5
			z"/>
		<polygon class="st4" points="780.7,671.2 812.2,639.7 843.4,671 856.6,657.9 811.6,613 767.1,657.6 780.7,671.2 		"/>
		<polygon class="st4" points="755.7,735.8 739.1,707 767.7,690.6 760.8,678.5 719.8,702.2 743.3,743 755.7,735.8 		"/>
		<polygon class="st4" points="822.5,664.9 801,664.9 801,714.6 763.2,704.5 758.9,720.4 801,731.7 801,749.5 822.5,749.5 
			822.5,664.9 		"/>
		<path class="st5" d="M791.1,397.7c45.4,0,82.4,37,82.4,82.4c0,45.4-37,82.4-82.4,82.4c-45.4,0-82.4-37-82.4-82.4
			C708.7,434.7,745.7,397.7,791.1,397.7L791.1,397.7z"/>
		<path class="st5" d="M791.1,198.5c45.5,0,82.7,37.1,82.7,82.7s-37.1,82.7-82.7,82.7c-45.5,0-82.7-37.1-82.7-82.7
			S745.5,198.5,791.1,198.5L791.1,198.5z"/>
		<path class="st5" d="M791.1,598.8c45.5,0,82.7,37.1,82.7,82.7c0,45.5-37.1,82.7-82.7,82.7c-45.5,0-82.7-37.1-82.7-82.7
			C708.4,635.9,745.5,598.8,791.1,598.8L791.1,598.8z"/>
		<path class="st1" d="M562,281.7c0-45.3-37-82.3-82.3-82.3s-82.3,37-82.3,82.3c0,45.3,37,82.3,82.3,82.3S562,327,562,281.7
			L562,281.7z"/>
		<polygon class="st2" points="469.9,232.6 483.3,219.4 545.4,281.5 483.4,343.7 470,330.4 518.9,281.6 469.9,232.6 		"/>
		<polygon class="st2" points="492.9,271.1 492.9,291.6 415.7,291.6 415.7,271.1 492.9,271.1 		"/>
		<path class="st1" d="M562,480.4c0-45.3-37-82.3-82.3-82.3s-82.3,37-82.3,82.3c0,45.3,37,82.3,82.3,82.3S562,525.8,562,480.4
			L562,480.4z"/>
		<polygon class="st3" points="469.9,431.4 483.3,418.1 545.4,480.2 483.4,542.4 470,529.2 518.9,480.3 469.9,431.4 		"/>
		<polygon class="st3" points="492.9,469.9 492.9,490.4 415.7,490.4 415.7,469.9 492.9,469.9 		"/>
		<path class="st1" d="M562.4,682.4c0-45.4-37-82.5-82.5-82.5s-82.5,37-82.5,82.5s37,82.5,82.5,82.5S562.4,727.8,562.4,682.4
			L562.4,682.4z"/>
		<polygon class="st4" points="470.1,633.2 483.5,619.9 545.8,682.2 483.6,744.5 470.2,731.2 519.2,682.3 470.1,633.2 		"/>
		<polygon class="st4" points="493.2,671.8 493.2,692.3 415.7,692.3 415.7,671.8 493.2,671.8 		"/>
		<path class="st5" d="M480.1,397.7c45.4,0,82.4,37,82.4,82.4c0,45.4-37,82.4-82.4,82.4s-82.4-37-82.4-82.4
			C397.7,434.7,434.7,397.7,480.1,397.7L480.1,397.7z"/>
		<path class="st5" d="M480.1,198.5c45.5,0,82.7,37.1,82.7,82.7s-37.1,82.7-82.7,82.7s-82.7-37.1-82.7-82.7S434.6,198.5,480.1,198.5
			L480.1,198.5z"/>
		<path class="st5" d="M480.1,598.8c45.5,0,82.7,37.1,82.7,82.7c0,45.5-37.1,82.7-82.7,82.7s-82.7-37.1-82.7-82.7
			C397.4,635.9,434.6,598.8,480.1,598.8L480.1,598.8z"/>
		<path class="st1" d="M169.4,199.2c-45.3,0-82.3,37-82.3,82.3c0,45.3,37,82.3,82.3,82.3c45.3,0,82.3-37,82.3-82.3
			C251.7,236.2,214.7,199.2,169.4,199.2L169.4,199.2z"/>
		<polygon class="st2" points="120.5,291.1 107.2,277.8 169.4,215.7 231.5,277.7 218.3,291 169.5,242.2 120.5,291.1 		"/>
		<polygon class="st2" points="159,268.1 179.5,268.1 179.5,345.4 159,345.4 159,268.1 		"/>
		<path class="st1" d="M169.4,398c-45.3,0-82.3,37-82.3,82.3c0,45.3,37,82.3,82.3,82.3c45.3,0,82.3-37,82.3-82.3
			C251.7,435,214.7,398,169.4,398L169.4,398z"/>
		<polygon class="st3" points="120.5,490 107.2,476.6 169.4,414.5 231.5,476.5 218.3,489.9 169.5,441 120.5,490 		"/>
		<polygon class="st3" points="159,467 179.5,467 179.5,544.2 159,544.2 159,467 		"/>
		<path class="st1" d="M169.3,599.7c-45.4,0-82.4,37-82.4,82.4c0,45.4,37,82.4,82.4,82.4c45.4,0,82.4-37,82.4-82.4
			C251.7,636.7,214.7,599.7,169.3,599.7L169.3,599.7z"/>
		<polygon class="st4" points="120.1,691.9 106.9,678.6 169.1,616.3 231.4,678.5 218.1,691.8 169.2,642.9 120.1,691.9 		"/>
		<polygon class="st4" points="158.7,668.9 179.2,668.9 179.2,746.2 158.7,746.2 158.7,668.9 		"/>
		<path class="st5" d="M169.2,397.7c45.4,0,82.4,37,82.4,82.4c0,45.4-37,82.4-82.4,82.4c-45.4,0-82.4-37-82.4-82.4
			C86.7,434.7,123.8,397.7,169.2,397.7L169.2,397.7z"/>
		<path class="st5" d="M169.2,198.5c45.5,0,82.7,37.1,82.7,82.7s-37.1,82.7-82.7,82.7c-45.5,0-82.7-37.1-82.7-82.7
			S123.6,198.5,169.2,198.5L169.2,198.5z"/>
		<path class="st5" d="M169.2,598.8c45.5,0,82.7,37.1,82.7,82.7c0,45.5-37.1,82.7-82.7,82.7c-45.5,0-82.7-37.1-82.7-82.7
			C86.5,635.9,123.6,598.8,169.2,598.8L169.2,598.8z"/>
	</g>
</g>
</svg>
