<?xml version="1.0" encoding="utf-8"?>
<!-- Generator: Adobe Illustrator 19.2.0, SVG Export Plug-In . SVG Version: 6.00 Build 0)  -->
<svg version="1.1" id="Livello_1" xmlns="http://www.w3.org/2000/svg" xmlns:xlink="http://www.w3.org/1999/xlink" x="0px" y="0px"
	 viewBox="0 0 960 960" style="enable-background:new 0 0 960 960;" xml:space="preserve">
<style type="text/css">
	.st0{fill:#FFFFFF;stroke:#1A171B;stroke-width:3.3043;stroke-miterlimit:2.6131;}
	.st1{fill:none;stroke:#1A171B;stroke-width:0.9913;stroke-miterlimit:2.6131;}
	.st2{fill-rule:evenodd;clip-rule:evenodd;fill:#1A171B;stroke:#1A171B;stroke-width:0.9913;stroke-miterlimit:2.6131;}
	.st3{fill-rule:evenodd;clip-rule:evenodd;fill:#FFFFFF;stroke:#FFFFFF;stroke-width:0.9913;stroke-miterlimit:2.6131;}
	.st4{fill-rule:evenodd;clip-rule:evenodd;fill:#FFEC00;stroke:#FFEC00;stroke-width:0.9913;stroke-miterlimit:2.6131;}
</style>
<g>
	<g>
		<polygon class="st0" points="336.7,120.3 624.6,120.3 624.6,840.3 336.7,840.3 336.7,120.3 		"/>
		<path class="st1" d="M480.8,384.7c52.7,0,95.7,43,95.7,95.7c0,52.7-43,95.7-95.7,95.7c-52.7,0-95.7-43-95.7-95.7
			C385.1,427.7,428.1,384.7,480.8,384.7L480.8,384.7z"/>
		<path class="st1" d="M480.8,153.5c52.9,0,96,43.1,96,96c0,52.9-43.1,96-96,96c-52.9,0-96-43.1-96-96
			C384.8,196.6,427.9,153.5,480.8,153.5L480.8,153.5z"/>
		<path class="st1" d="M480.8,618.1c52.9,0,96,43.1,96,96c0,52.9-43.1,96-96,96c-52.9,0-96-43.1-96-96
			C384.8,661.2,427.9,618.1,480.8,618.1L480.8,618.1z"/>
		<path class="st2" d="M480.4,154.2c52.6,0,95.4,42.9,95.4,95.4c0,52.6-42.9,95.4-95.4,95.4c-52.6,0-95.4-42.9-95.4-95.4
			C385,197,427.9,154.2,480.4,154.2L480.4,154.2z"/>
		<polygon class="st3" points="397.1,233.7 564,233.7 564,267.5 397.1,267.5 397.1,233.7 		"/>
		<path class="st2" d="M576.8,714.3c0,52.9-43.1,96-96,96c-52.9,0-96-43.1-96-96c0-52.9,43.1-96,96-96
			C533.7,618.2,576.8,661.4,576.8,714.3L576.8,714.3z"/>
		<polygon class="st3" points="497,630.3 497,798.2 462.9,798.2 462.9,630.3 497,630.3 		"/>
		<path class="st2" d="M575.9,480.1c0,52.6-42.9,95.4-95.4,95.4c-52.6,0-95.4-42.9-95.4-95.4c0-52.6,42.9-95.4,95.4-95.4
			C533,384.6,575.9,427.5,575.9,480.1L575.9,480.1z"/>
		<polygon class="st4" points="413,525.6 480.4,406.4 548,525.6 413,525.6 		"/>
	</g>
</g>
</svg>
