<?xml version="1.0" encoding="utf-8"?>
<!-- Generator: Adobe Illustrator 19.2.0, SVG Export Plug-In . SVG Version: 6.00 Build 0)  -->
<svg version="1.1" id="Livello_1" xmlns="http://www.w3.org/2000/svg" xmlns:xlink="http://www.w3.org/1999/xlink" x="0px" y="0px"
	 viewBox="0 0 960 960" style="enable-background:new 0 0 960 960;" xml:space="preserve">
<style type="text/css">
	.st0{fill:#FFFFFF;stroke:#1A171B;stroke-width:3.3043;stroke-miterlimit:2.6131;}
	.st1{fill:none;stroke:#1A171B;stroke-width:0.9913;stroke-miterlimit:2.6131;}
	.st2{fill-rule:evenodd;clip-rule:evenodd;fill:#1A171B;stroke:#1A171B;stroke-width:0.9913;stroke-miterlimit:2.6131;}
	.st3{fill-rule:evenodd;clip-rule:evenodd;fill:#E1001A;stroke:#E1001A;stroke-width:0.9913;stroke-miterlimit:2.6131;}
	.st4{fill-rule:evenodd;clip-rule:evenodd;fill:#FFEC00;stroke:#FFEC00;stroke-width:0.9913;stroke-miterlimit:2.6131;}
	.st5{fill-rule:evenodd;clip-rule:evenodd;fill:#008F36;stroke:#008F36;stroke-width:0.9913;stroke-miterlimit:2.6131;}
</style>
<g>
	<g>
		<polygon class="st0" points="336,120 624,120 624,840 336,840 336,120 		"/>
		<path class="st1" d="M480.2,384.5c52.7,0,95.7,43,95.7,95.7c0,52.7-43,95.7-95.7,95.7c-52.7,0-95.7-43-95.7-95.7
			C384.5,427.5,427.5,384.5,480.2,384.5L480.2,384.5z"/>
		<path class="st1" d="M480.2,153.2c52.9,0,96,43.1,96,96c0,52.9-43.1,96-96,96c-52.9,0-96-43.1-96-96
			C384.2,196.3,427.3,153.2,480.2,153.2L480.2,153.2z"/>
		<path class="st1" d="M480.2,617.9c52.9,0,96,43.1,96,96c0,52.9-43.1,96-96,96c-52.9,0-96-43.1-96-96
			C384.2,661,427.3,617.9,480.2,617.9L480.2,617.9z"/>
		<path class="st2" d="M479.7,153.7c52.6,0,95.5,42.9,95.5,95.5c0,52.6-42.9,95.5-95.5,95.5s-95.5-42.9-95.5-95.5
			C384.3,196.6,427.2,153.7,479.7,153.7L479.7,153.7z"/>
		<path class="st3" d="M463.5,321.3v-97.5l-2.7,8.1v21.4c0,7-9.2,6.8-9.2,0v-29.5c0-8.1-0.3-25.5,18.4-25.2h20
			c18.4,0,18.4,17.1,18.4,25.2v29.8c0,6.8-9.5,6.8-9.5,0v-21.9l-2.7-7.9v97.5c0,7.6-14.4,8.1-14.4,0l0.3-68h-4.3v68
			C477.8,329.4,463.5,329.4,463.5,321.3L463.5,321.3z"/>
		<path class="st3" d="M479.7,171.9c5.6,0,10.1,4.5,10.1,10.1c0,5.6-4.5,10.1-10.1,10.1c-5.6,0-10.1-4.5-10.1-10.1
			C469.6,176.4,474.2,171.9,479.7,171.9L479.7,171.9z"/>
		<path class="st2" d="M479.7,384.4c52.6,0,95.5,42.9,95.5,95.5c0,52.6-42.9,95.5-95.5,95.5s-95.5-42.9-95.5-95.5
			C384.3,427.3,427.2,384.4,479.7,384.4L479.7,384.4z"/>
		<path class="st4" d="M463.5,552v-97.5l-2.7,8.1V484c0,7-9.2,6.8-9.2,0v-29.5c0-8.1-0.3-25.5,18.4-25.2h20
			c18.4,0,18.4,17.1,18.4,25.2v29.8c0,6.8-9.5,6.8-9.5,0v-21.9l-2.7-7.9V552c0,7.6-14.4,8.1-14.4,0l0.3-68h-4.3v68
			C477.8,560.1,463.5,560.1,463.5,552L463.5,552z"/>
		<path class="st4" d="M479.7,402.6c5.6,0,10.1,4.5,10.1,10.1c0,5.6-4.5,10.1-10.1,10.1c-5.6,0-10.1-4.5-10.1-10.1
			C469.6,407.1,474.2,402.6,479.7,402.6L479.7,402.6z"/>
		<path class="st2" d="M480.1,618.4c52.7,0,95.7,43,95.7,95.7c0,52.7-43,95.7-95.7,95.7c-52.7,0-95.7-43-95.7-95.7
			C384.4,661.3,427.4,618.4,480.1,618.4L480.1,618.4z"/>
		<path class="st5" d="M438.9,781.9l34.1-74.3l-4.2-16.1l-16.4,18.4c-5.5,7.7-16.1-0.9-10-8.1c10.2-11.8,20.4-23.6,30.6-35.4
			c1.6-1.4,1.6-1.5,4.6-3c4.3-1.5,8.7-3,13.2-4.5c1.5,0.1,1.5,0.1,3,1.6c8.2,8.8,16.6,17.6,24.9,26.4c1.5,1.5,1.5,3,1.5,4.3
			c0,7.6,0,11.6,0,19.1c0,6.8-11.8,6.8-11.8,0v-16L498,684.1l-3.1,22.3l27.5,76.1c1.8,6.8-10.1,11.6-14,4.9L483.7,721l-31.4,65.3
			C447.4,795.4,436.7,788.7,438.9,781.9L438.9,781.9z"/>
		<path class="st5" d="M481.1,635.5c6.1,0,11,5,11,11s-5,11-11,11s-11-5-11-11S475,635.5,481.1,635.5L481.1,635.5z"/>
	</g>
</g>
</svg>
