<?xml version="1.0" encoding="utf-8"?>
<!-- Generator: Adobe Illustrator 19.2.0, SVG Export Plug-In . SVG Version: 6.00 Build 0)  -->
<svg version="1.1" id="Livello_1" xmlns="http://www.w3.org/2000/svg" xmlns:xlink="http://www.w3.org/1999/xlink" x="0px" y="0px"
	 viewBox="0 0 960 960" style="enable-background:new 0 0 960 960;" xml:space="preserve">
<style type="text/css">
	.st0{fill:#FFFFFF;stroke:#1A171B;stroke-width:3.3047;stroke-miterlimit:2.6131;}
	.st1{fill:none;stroke:#1A171B;stroke-width:0.9914;stroke-miterlimit:2.6131;}
	.st2{fill-rule:evenodd;clip-rule:evenodd;fill:#1A171B;stroke:#1A171B;stroke-width:0.9914;stroke-miterlimit:2.6131;}
	.st3{fill-rule:evenodd;clip-rule:evenodd;fill:#E1001A;stroke:#E1001A;stroke-width:0.9914;stroke-miterlimit:2.6131;}
	.st4{fill-rule:evenodd;clip-rule:evenodd;fill:#FFEC00;stroke:#FFEC00;stroke-width:0.9914;stroke-miterlimit:2.6131;}
	.st5{fill-rule:evenodd;clip-rule:evenodd;fill:#008F36;stroke:#008F36;stroke-width:0.9914;stroke-miterlimit:2.6131;}
</style>
<g>
	<g>
		<polygon class="st0" points="336,120 624,120 624,840 336,840 336,120 		"/>
		<path class="st1" d="M480.2,384.5c52.7,0,95.7,43,95.7,95.7c0,52.7-43,95.7-95.7,95.7s-95.7-43-95.7-95.7
			C384.5,427.5,427.5,384.5,480.2,384.5L480.2,384.5z"/>
		<path class="st1" d="M480.2,153.2c52.9,0,96,43.1,96,96c0,52.9-43.1,96-96,96c-52.9,0-96-43.1-96-96
			C384.2,196.3,427.3,153.2,480.2,153.2L480.2,153.2z"/>
		<path class="st1" d="M480.2,617.9c52.9,0,96,43.1,96,96c0,52.9-43.1,96-96,96c-52.9,0-96-43.1-96-96
			C384.2,661,427.3,617.9,480.2,617.9L480.2,617.9z"/>
		<path class="st2" d="M575.1,249.8c0-52.6-42.9-95.5-95.5-95.5c-52.6,0-95.5,42.9-95.5,95.5s42.9,95.5,95.5,95.5
			C532.2,345.3,575.1,302.4,575.1,249.8L575.1,249.8z"/>
		<path class="st3" d="M510.6,225.3l7.2,11.9c3.2-1.4,7-2.2,10.7-2.2c15.6,0,28.2,12.6,28.2,28c0,15.5-12.6,28.2-28.2,28.2
			c-13,0-24-8.9-27.2-21.2c-4.7,0.5-9.2,0.7-13.4,0.8c-9.3-1.1-10.3-6.4-9.4-12.2l-27.8-26l-4.5,7.4c7.2,4.9,12.2,13.4,12.2,23
			c0,15.5-12.7,28.2-28.1,28.2c-15.6,0-28.1-12.8-28.1-28.2c0-15.4,12.5-28,28.1-28c4.1,0,8.1,1,11.6,2.5l10-17.7l-1.3-6.4
			c0-2.5,1.6-7.6,6.3-7.6H470c2.4,0.5,2.9,3.8,0,4.2h-12.2c-3,1.7-2.3,4-0.5,9.8l-2.2,4.2l51,0.2l4.6-8.4c-1.4,0-2.6-0.7-4.2-0.7
			c-2.7-0.9-2.8-3-0.8-3.7c4,0,11.9,0.3,16.1,0.3c2.6,0,2.5,6.8,0.5,7.1c-2.3,0-4.7-1.7-7-1.7L510.6,225.3L510.6,225.3z
			 M489.9,253.5c-2.3-0.8-6.1-0.3-7.8,1.6l-27.5-26.3h48.7L489.9,253.5L489.9,253.5z M495.2,254l12.4-23.2l5.8,8.7
			c-5.4,3-8.8,7.4-11.4,15.2L495.2,254L495.2,254z M430.6,257.9c-3.2,0.2-5.1,2.6-5.1,5.5c0,2.7,2.4,5,5.1,5c2.8,0,5.4-2.8,5.2-5
			c-0.2-2.3-1.1-3-1.1-3.1l9.2-15.9c5.7,4.3,9.4,11.3,9.4,19c0,12.6-10.3,22.9-23,22.9c-12.7,0-22.9-10.3-22.9-22.9
			c0-12.7,10.3-23.2,22.9-23.2c3.5,0,6.6,0.8,9.3,2.1L430.6,257.9L430.6,257.9z M533.8,264.7c-0.3,1.1-2.4,2.7-5.3,3l-21.2,1.7
			c0,0,4.2,15.5,21.2,16.7c12.8,0,23-10.3,23-23.1c0-12.7-10.3-22.9-23-22.9c-3.3,0-4.9,0.4-7.5,1.7c0.9,1.7,6.3,10,9.3,15.4
			C535.2,258.7,533.9,263.1,533.8,264.7L533.8,264.7z M507.3,255.4c2-5.7,4.2-8.4,8.9-11.7c0,0,4.9,8.5,7.6,12.9
			C518.1,256.3,507.3,255.4,507.3,255.4L507.3,255.4z"/>
		<path class="st2" d="M575.1,480.4c0-52.6-42.9-95.5-95.5-95.5c-52.6,0-95.5,42.9-95.5,95.5c0,52.6,42.9,95.5,95.5,95.5
			C532.2,575.9,575.1,533,575.1,480.4L575.1,480.4z"/>
		<path class="st4" d="M510.6,455.9l7.2,11.9c3.2-1.4,7-2.2,10.7-2.2c15.6,0,28.2,12.6,28.2,28c0,15.5-12.6,28.2-28.2,28.2
			c-13,0-24-8.9-27.2-21.2c-4.7,0.5-9.2,0.7-13.4,0.8c-9.3-1.1-10.3-6.4-9.4-12.2l-27.8-26l-4.5,7.4c7.2,4.9,12.2,13.4,12.2,23
			c0,15.5-12.7,28.2-28.1,28.2c-15.6,0-28.1-12.7-28.1-28.2c0-15.4,12.5-28,28.1-28c4.1,0,8.1,1,11.6,2.5l10-17.7l-1.3-6.4
			c0-2.5,1.6-7.6,6.3-7.6H470c2.4,0.5,2.9,3.8,0,4.2h-12.2c-3,1.7-2.3,4-0.5,9.8l-2.2,4.2l51,0.2l4.6-8.5c-1.4,0-2.6-0.7-4.2-0.7
			c-2.7-0.9-2.8-3-0.8-3.7c4,0,11.9,0.3,16.1,0.3c2.6,0,2.5,6.8,0.5,7.1c-2.3,0-4.7-1.7-7-1.7L510.6,455.9L510.6,455.9z
			 M489.9,484.1c-2.3-0.8-6.1-0.3-7.8,1.6l-27.5-26.3h48.7L489.9,484.1L489.9,484.1z M495.2,484.6l12.4-23.2l5.8,8.7
			c-5.4,3-8.8,7.4-11.4,15.2L495.2,484.6L495.2,484.6z M430.6,488.5c-3.2,0.2-5.1,2.6-5.1,5.5c0,2.7,2.4,5,5.1,5
			c2.8,0,5.4-2.8,5.2-5c-0.2-2.3-1.1-3-1.1-3.1l9.2-15.9c5.7,4.3,9.4,11.3,9.4,19c0,12.6-10.3,22.9-23,22.9
			c-12.7,0-22.9-10.3-22.9-22.9c0-12.7,10.3-23.2,22.9-23.2c3.5,0,6.6,0.8,9.3,2.1L430.6,488.5L430.6,488.5z M533.8,495.3
			c-0.3,1.1-2.4,2.7-5.3,3l-21.2,1.7c0,0,4.2,15.5,21.2,16.7c12.8,0,23-10.3,23-23.1c0-12.8-10.3-22.9-23-22.9
			c-3.3,0-4.9,0.4-7.5,1.7c0.9,1.7,6.3,10,9.3,15.4C535.2,489.3,533.9,493.7,533.8,495.3L533.8,495.3z M507.3,486
			c2-5.7,4.2-8.4,8.9-11.7c0,0,4.9,8.5,7.6,12.9C518.1,487,507.3,486,507.3,486L507.3,486z"/>
		<path class="st2" d="M576.4,714.3c0-52.9-43.2-96.1-96.1-96.1c-52.9,0-96.1,43.2-96.1,96.1s43.2,96.1,96.1,96.1
			C533.2,810.4,576.4,767.2,576.4,714.3L576.4,714.3z"/>
		<path class="st5" d="M511.4,689.6l7.3,12c3.3-1.4,7.1-2.2,10.8-2.2c15.7,0,28.4,12.7,28.4,28.2c0,15.6-12.7,28.4-28.4,28.4
			c-13.1,0-24.1-9-27.3-21.3c-4.7,0.5-9.3,0.7-13.5,0.8c-9.3-1.1-10.4-6.5-9.4-12.3L451.3,697l-4.5,7.4c7.3,4.9,12.3,13.5,12.3,23.2
			c0,15.6-12.8,28.4-28.2,28.4c-15.7,0-28.3-12.8-28.3-28.4c0-15.5,12.6-28.2,28.3-28.2c4.2,0,8.1,1,11.7,2.5l10-17.8l-1.3-6.5
			c0-2.5,1.6-7.7,6.3-7.7h12.9c2.4,0.5,3,3.8,0,4.3h-12.3c-3,1.7-2.4,4-0.5,9.9l-2.2,4.3l51.3,0.2l4.6-8.5c-1.4,0-2.6-0.7-4.3-0.7
			c-2.7-0.9-2.8-3-0.8-3.7c4,0,12,0.3,16.2,0.3c2.6,0,2.5,6.8,0.5,7.1c-2.4,0-4.7-1.7-7.1-1.7L511.4,689.6L511.4,689.6z M490.6,718
			c-2.4-0.8-6.2-0.3-7.9,1.6l-27.6-26.4h49L490.6,718L490.6,718z M495.9,718.5l12.5-23.3l5.8,8.7c-5.4,3-8.8,7.4-11.5,15.3
			L495.9,718.5L495.9,718.5z M430.9,722.5c-3.3,0.2-5.2,2.6-5.2,5.5c0,2.7,2.4,5,5.2,5c2.8,0,5.4-2.8,5.2-5c-0.2-2.4-1.1-3-1.1-3.1
			l9.3-16c5.7,4.3,9.4,11.4,9.4,19.1c0,12.7-10.4,23-23.2,23s-23.1-10.3-23.1-23c0-12.8,10.3-23.3,23.1-23.3c3.5,0,6.6,0.8,9.3,2.1
			L430.9,722.5L430.9,722.5z M534.8,729.3c-0.3,1.1-2.4,2.7-5.3,3l-21.3,1.7c0,0,4.2,15.6,21.3,16.8c12.8,0,23.2-10.3,23.2-23.2
			c0-12.8-10.3-23.1-23.2-23.1c-3.3,0-4.9,0.4-7.6,1.7c0.9,1.7,6.4,10.1,9.3,15.5C536.2,723.2,534.8,727.6,534.8,729.3L534.8,729.3z
			 M508.1,719.9c2-5.7,4.2-8.4,9-11.8c0,0,4.9,8.6,7.7,13C519,720.9,508.1,719.9,508.1,719.9L508.1,719.9z"/>
	</g>
</g>
</svg>
