<?xml version="1.0" encoding="utf-8"?>
<!-- Generator: Adobe Illustrator 19.2.0, SVG Export Plug-In . SVG Version: 6.00 Build 0)  -->
<svg version="1.1" id="Livello_1" xmlns="http://www.w3.org/2000/svg" xmlns:xlink="http://www.w3.org/1999/xlink" x="0px" y="0px"
	 viewBox="0 0 960 960" style="enable-background:new 0 0 960 960;" xml:space="preserve">
<style type="text/css">
	.st0{fill-rule:evenodd;clip-rule:evenodd;fill:#1A171B;stroke:#1A171B;stroke-width:0.9204;stroke-miterlimit:2.6131;}
	.st1{fill-rule:evenodd;clip-rule:evenodd;fill:#FFEC00;stroke:#FFEC00;stroke-width:0.9204;stroke-miterlimit:2.6131;}
	.st2{fill-rule:evenodd;clip-rule:evenodd;fill:#008F36;stroke:#008F36;stroke-width:0.9204;stroke-miterlimit:2.6131;}
	.st3{fill-rule:evenodd;clip-rule:evenodd;fill:#E1001A;stroke:#E1001A;stroke-width:0.9204;stroke-miterlimit:2.6131;}
	.st4{fill:none;stroke:#1A171B;stroke-width:3.0681;stroke-miterlimit:2.6131;}
	.st5{fill:none;stroke:#1A171B;stroke-width:0.9204;stroke-miterlimit:2.6131;}
	.st6{fill-rule:evenodd;clip-rule:evenodd;fill:#D8D9DA;stroke:#C5C6C8;stroke-width:0.9204;stroke-miterlimit:2.6131;}
	.st7{fill-rule:evenodd;clip-rule:evenodd;fill:#FFFFFF;stroke:#1A171B;stroke-width:0.9204;stroke-miterlimit:2.6131;}
	.st8{fill-rule:evenodd;clip-rule:evenodd;fill:#868789;stroke:#1A171B;stroke-width:0.9204;stroke-miterlimit:2.6131;}
	.st9{fill:none;stroke:#1A171B;stroke-width:0.9204;stroke-miterlimit:2.6131;stroke-dasharray:4.6021,4.6021;}
	.st10{fill-rule:evenodd;clip-rule:evenodd;fill:#1A171B;}
</style>
<g>
	<g>
		<path class="st0" d="M694.3,190.6c-48.8,0-88.6,39.8-88.6,88.6c0,48.8,39.8,88.6,88.6,88.6c48.8,0,88.6-39.8,88.6-88.6
			C782.9,230.4,743.1,190.6,694.3,190.6L694.3,190.6z"/>
		<polygon class="st1" points="724.1,233.1 744.3,233.2 744.3,327.8 649.8,327.9 649.7,307.7 724.1,307.7 724.1,233.1 		"/>
		<polygon class="st1" points="712.3,280 696.7,295.6 637.9,236.8 653.5,221.2 712.3,280 		"/>
		<path class="st0" d="M391.4,278.9c0,48.8,39.8,88.7,88.7,88.7c48.8,0,88.7-39.8,88.7-88.7c0-48.8-39.8-88.7-88.7-88.7
			C431.2,190.3,391.4,230.1,391.4,278.9L391.4,278.9z"/>
		<polygon class="st2" points="531.7,267.3 546,281.7 479,348.7 412,281.8 426.3,267.4 478.9,320.1 531.7,267.3 		"/>
		<polygon class="st2" points="490.2,292.1 468.1,292.1 468.1,208.9 490.2,208.9 490.2,292.1 		"/>
		<path class="st0" d="M351.3,279.9c0-48.9-39.9-88.9-88.9-88.9s-88.9,39.9-88.9,88.9c0,48.9,39.9,88.9,88.9,88.9
			S351.3,328.9,351.3,279.9L351.3,279.9z"/>
		<polygon class="st3" points="255.7,255.9 240.1,271.6 203.4,234.9 219,219.2 255.7,255.9 		"/>
		<polygon class="st3" points="284.3,270.4 268.6,254.7 305.3,218 321,233.7 284.3,270.4 		"/>
		<polygon class="st3" points="320.6,321 305,336.7 268.3,300 284,284.3 320.6,321 		"/>
		<polygon class="st3" points="219.2,335.5 203.5,319.8 240.2,283.1 255.9,298.8 219.2,335.5 		"/>
		<polygon class="st4" points="814.1,145.5 814.1,412.9 145.6,412.9 145.6,145.5 814.1,145.5 		"/>
		<path class="st5" d="M568.5,279.3c0,48.9-39.9,88.8-88.8,88.8c-48.9,0-88.8-39.9-88.8-88.8c0-48.9,39.9-88.8,88.8-88.8
			C528.6,190.5,568.5,230.4,568.5,279.3L568.5,279.3z"/>
		<path class="st5" d="M783.3,279.3c0,49.1-40,89.1-89.1,89.1c-49.1,0-89.1-40-89.1-89.1c0-49.1,40-89.1,89.1-89.1
			C743.2,190.2,783.3,230.3,783.3,279.3L783.3,279.3z"/>
		<path class="st5" d="M351.8,279.3c0,49.1-40,89.1-89.1,89.1c-49.1,0-89.1-40-89.1-89.1c0-49.1,40-89.1,89.1-89.1
			C311.8,190.2,351.8,230.3,351.8,279.3L351.8,279.3z"/>
		<polygon class="st6" points="905.7,802.6 905.7,547 59.9,547 59.9,802.6 69.5,802.6 69.5,568 894.4,568 894.4,802.6 905.7,802.6 
					"/>
		<polygon class="st7" points="902.1,798.5 902.1,542.9 56.3,542.9 56.3,798.5 65.9,798.5 65.9,563.9 890.8,563.9 890.8,798.5 
			902.1,798.5 		"/>
		<polygon class="st0" points="656.2,581.7 493.2,581.7 493.2,504.1 656.2,504.1 656.2,581.7 		"/>
		<polygon class="st0" points="470.3,581.7 307.3,581.7 307.3,504.1 470.3,504.1 470.3,581.7 		"/>
		<polygon class="st7" points="489.5,578.4 652.9,578.4 652.9,500.8 489.5,500.8 489.5,578.4 		"/>
		<polygon class="st7" points="303.6,578.4 467,578.4 467,500.8 303.6,500.8 303.6,578.4 		"/>
		<path class="st0" d="M437,520.4c-9.9,0-17.9,8-17.9,17.9c0,9.9,8,17.9,17.9,17.9s17.9-8,17.9-17.9
			C454.9,528.5,446.9,520.4,437,520.4L437,520.4z"/>
		<polygon class="st1" points="443.1,529 447.1,529 447.1,548.2 428,548.2 428,544.1 443.1,544.1 443.1,529 		"/>
		<polygon class="st1" points="440.7,538.5 437.5,541.7 425.6,529.8 428.8,526.6 440.7,538.5 		"/>
		<path class="st0" d="M553.9,538.3c0,9.9,8,17.9,17.9,17.9c9.9,0,17.9-8,17.9-17.9c0-9.9-8-17.9-17.9-17.9
			C561.9,520.4,553.9,528.4,553.9,538.3L553.9,538.3z"/>
		<polygon class="st2" points="582.2,535.9 585.1,538.8 571.6,552.4 558,538.8 560.9,535.9 571.5,546.6 582.2,535.9 		"/>
		<polygon class="st2" points="573.8,540.9 569.4,540.9 569.4,524.1 573.8,524.1 573.8,540.9 		"/>
		<polygon class="st8" points="633.5,814.4 915,814.4 915,798.3 839.5,798.3 839.5,804.9 324.9,804.9 325,804.9 120.6,804.9 
			120.6,798.5 45,798.5 45,814.6 633.5,814.6 633.5,814.4 		"/>
		<polygon class="st5" points="494.3,568.7 648,568.7 648,510.5 494.3,510.5 494.3,568.7 		"/>
		<polygon class="st5" points="308.5,568.7 462.3,568.7 462.3,510.5 308.5,510.5 308.5,568.7 		"/>
		<polygon class="st0" points="814.8,581.7 706.5,581.7 706.5,504.1 814.8,504.1 814.8,581.7 		"/>
		<polygon class="st0" points="258.4,581.7 150.1,581.7 150.1,504.1 258.4,504.1 258.4,581.7 		"/>
		<polygon class="st5" points="545.1,568.7 597.3,568.7 597.3,510.5 545.1,510.5 545.1,568.7 		"/>
		<polygon class="st5" points="359.2,568.7 411.4,568.7 411.4,510.5 359.2,510.5 359.2,568.7 		"/>
		<polygon class="st7" points="811.3,578.2 703,578.2 703,500.6 811.3,500.6 811.3,578.2 		"/>
		<polygon class="st7" points="255,578.2 146.6,578.2 146.6,500.6 255,500.6 255,578.2 		"/>
		<polygon class="st5" points="756.9,568.5 708.6,568.5 708.6,510.3 756.9,510.3 756.9,568.5 		"/>
		<polygon class="st5" points="200.6,568.5 152.2,568.5 152.2,510.3 200.6,510.3 200.6,568.5 		"/>
		<polygon class="st5" points="806.1,568.5 757.1,568.5 757.1,510.3 806.1,510.3 806.1,568.5 		"/>
		<polygon class="st5" points="249.7,568.5 200.7,568.5 200.7,510.3 249.7,510.3 249.7,568.5 		"/>
		<path class="st0" d="M194.6,538.5c0-10-8.2-18.2-18.2-18.2c-10,0-18.2,8.2-18.2,18.2c0,10,8.2,18.2,18.2,18.2
			C186.5,556.6,194.6,548.5,194.6,538.5L194.6,538.5z"/>
		<polygon class="st3" points="175.1,533.6 171.9,536.8 164.4,529.3 167.6,526.1 175.1,533.6 		"/>
		<polygon class="st3" points="180.9,536.5 177.7,533.3 185.2,525.8 188.4,529 180.9,536.5 		"/>
		<polygon class="st3" points="188.4,546.9 185.2,550.1 177.7,542.6 180.9,539.4 188.4,546.9 		"/>
		<polygon class="st3" points="167.6,549.8 164.4,546.6 171.9,539.1 175.1,542.3 167.6,549.8 		"/>
		<path class="st0" d="M763.8,538.3c0,9.9,8,17.9,17.9,17.9c9.9,0,17.9-8,17.9-17.9c0-9.9-8-17.9-17.9-17.9
			C771.8,520.4,763.8,528.4,763.8,538.3L763.8,538.3z"/>
		<polygon class="st2" points="792.1,535.9 795,538.8 781.5,552.4 767.9,538.8 770.8,535.9 781.4,546.6 792.1,535.9 		"/>
		<polygon class="st2" points="783.7,540.9 779.3,540.9 779.3,524.1 783.7,524.1 783.7,540.9 		"/>
		<polygon class="st0" points="285.2,799.8 299.3,799.8 299.3,804.7 285.2,804.7 285.2,799.8 		"/>
		<polygon class="st0" points="470.9,799.8 485.1,799.8 485.1,804.7 470.9,804.7 470.9,799.8 		"/>
		<polygon class="st0" points="657.8,799.8 672,799.8 672,804.7 657.8,804.7 657.8,799.8 		"/>
		<line class="st9" x1="201.5" y1="584.3" x2="201.5" y2="804.6"/>
		<line class="st9" x1="386.4" y1="584.3" x2="386.4" y2="804.6"/>
		<line class="st9" x1="571.8" y1="584.3" x2="571.8" y2="804.6"/>
		<line class="st9" x1="756.7" y1="584.3" x2="756.7" y2="804.6"/>
		<path class="st10" d="M123.9,212.5h-14.7l-5.9-15.2H76.5L71,212.5H56.6l26.1-67.1h14.3L123.9,212.5L123.9,212.5z M99,185.9
			l-9.2-24.9l-9.1,24.9H99L99,185.9z"/>
		<path class="st10" d="M844.8,450.2h26.8c5.3,0,9.3,0.2,11.9,0.7c2.6,0.4,4.9,1.4,7,2.8c2.1,1.4,3.8,3.3,5.1,5.6
			c1.4,2.3,2.1,4.9,2.1,7.8c0,3.1-0.8,6-2.5,8.6c-1.7,2.6-4,4.6-6.9,5.9c4.1,1.2,7.2,3.2,9.4,6.1c2.2,2.9,3.3,6.2,3.3,10.1
			c0,3-0.7,6-2.1,8.9c-1.4,2.9-3.4,5.2-5.8,6.9c-2.5,1.7-5.5,2.8-9.1,3.2c-2.2,0.2-7.7,0.4-16.3,0.5h-22.8V450.2L844.8,450.2z
			 M858.3,461.3v15.5h8.9c5.3,0,8.6-0.1,9.8-0.2c2.3-0.3,4.1-1.1,5.5-2.4c1.3-1.3,2-3.1,2-5.2c0-2.1-0.6-3.8-1.7-5.1
			c-1.2-1.3-2.9-2.1-5.1-2.3c-1.3-0.2-5.2-0.2-11.6-0.2H858.3L858.3,461.3z M858.3,488v17.9h12.5c4.9,0,8-0.1,9.3-0.4
			c2-0.4,3.7-1.3,4.9-2.7c1.3-1.4,1.9-3.3,1.9-5.7c0-2-0.5-3.7-1.5-5.1c-1-1.4-2.4-2.4-4.2-3.1c-1.8-0.6-5.9-1-12-1H858.3L858.3,488
			z"/>
	</g>
</g>
</svg>
