<?xml version="1.0" encoding="utf-8"?>
<!-- Generator: Adobe Illustrator 19.2.0, SVG Export Plug-In . SVG Version: 6.00 Build 0)  -->
<svg version="1.1" id="Livello_1" xmlns="http://www.w3.org/2000/svg" xmlns:xlink="http://www.w3.org/1999/xlink" x="0px" y="0px"
	 viewBox="0 0 960 960" style="enable-background:new 0 0 960 960;" xml:space="preserve">
<style type="text/css">
	.st0{fill-rule:evenodd;clip-rule:evenodd;fill:#FFEC00;stroke:#1A171B;stroke-width:1.4496;stroke-miterlimit:2.6131;}
	.st1{fill:none;stroke:#1A171B;stroke-width:1.0872;stroke-miterlimit:2.6131;}
	.st2{fill-rule:evenodd;clip-rule:evenodd;fill:#1A171B;stroke:#1A171B;stroke-width:1.0872;stroke-miterlimit:2.6131;}
	.st3{fill-rule:evenodd;clip-rule:evenodd;fill:#FFEC00;stroke:#FFEC00;stroke-width:1.0872;stroke-miterlimit:2.6131;}
	.st4{fill-rule:evenodd;clip-rule:evenodd;fill:#1A171B;}
</style>
<g>
	<g>
		<path class="st0" d="M430,120c58,0,105.3,47.3,105.3,105.3c0,58-47.3,105.3-105.3,105.3c-58,0-105.3-47.3-105.3-105.3
			C324.7,167.3,372,120,430,120L430,120z"/>
		<path class="st1" d="M429.5,373.3c57.8,0,104.9,47.1,104.9,104.9c0,57.8-47.1,104.9-104.9,104.9c-57.8,0-104.9-47.1-104.9-104.9
			C324.6,420.4,371.7,373.3,429.5,373.3L429.5,373.3z"/>
		<path class="st2" d="M429,373.1c57.6,0,104.6,47,104.6,104.6c0,57.6-47,104.6-104.6,104.6c-57.6,0-104.6-47-104.6-104.6
			C324.4,420.1,371.4,373.1,429,373.1L429,373.1z"/>
		<path class="st3" d="M383.8,551.9l37.3-81.2l-4.6-17.6l-17.9,20.1c-6,8.4-17.6-1-10.9-8.9c11.1-12.9,22.3-25.8,33.4-38.7
			c1.8-1.5,1.8-1.6,5-3.3c4.8-1.6,9.5-3.3,14.4-4.9c1.6,0.1,1.6,0.1,3.3,1.8c9,9.6,18.1,19.3,27.3,28.9c1.6,1.6,1.6,3.3,1.6,4.8
			c0,8.3,0,12.6,0,20.9c0,7.4-12.9,7.4-12.9,0v-17.5l-11.3-11.4l-3.4,24.4l30,83.2c2,7.4-11,12.6-15.3,5.4l-27-72.6l-34.3,71.5
			C393.2,566.7,381.5,559.3,383.8,551.9L383.8,551.9z"/>
		<path class="st3" d="M430,391.8c6.6,0,12.1,5.4,12.1,12.1S436.6,416,430,416c-6.6,0-12.1-5.4-12.1-12.1S423.3,391.8,430,391.8
			L430,391.8z"/>
		<path class="st1" d="M429.5,629.2c58,0,105.3,47.3,105.3,105.3c0,58-47.3,105.3-105.3,105.3c-58,0-105.3-47.3-105.3-105.3
			C324.2,676.5,371.5,629.2,429.5,629.2L429.5,629.2z"/>
		<path class="st2" d="M533.6,735.1c0-57.8-47.1-104.9-104.9-104.9s-104.9,47.1-104.9,104.9c0,57.8,47.1,104.9,104.9,104.9
			S533.6,792.9,533.6,735.1L533.6,735.1z"/>
		<path class="st3" d="M462.7,708.3l8,13.1c3.6-1.5,7.7-2.4,11.8-2.4c17.2,0,31,13.8,31,30.7c0,17-13.8,31-31,31
			c-14.3,0-26.4-9.8-29.8-23.3c-5.1,0.5-10.1,0.7-14.7,0.8c-10.2-1.2-11.4-7-10.3-13.4l-30.5-28.5l-4.9,8.1
			c8,5.4,13.4,14.8,13.4,25.3c0,17-14,31-30.8,31c-17.2,0-30.9-14-30.9-31c0-16.9,13.8-30.7,30.9-30.7c4.6,0,8.9,1.1,12.8,2.7
			l10.9-19.5l-1.4-7c0-2.7,1.7-8.4,6.9-8.4h14.1c2.7,0.6,3.2,4.1,0,4.6h-13.4c-3.3,1.9-2.6,4.4-0.6,10.8l-2.4,4.6l56,0.2l5.1-9.3
			c-1.6,0-2.8-0.7-4.6-0.7c-3-1-3.1-3.3-0.9-4.1c4.4,0,13.1,0.3,17.6,0.3c2.8,0,2.7,7.5,0.6,7.8c-2.6,0-5.1-1.8-7.7-1.8L462.7,708.3
			L462.7,708.3z M440,739.2c-2.6-0.8-6.7-0.3-8.6,1.7l-30.2-28.8h53.4L440,739.2L440,739.2z M445.7,739.8l13.6-25.4l6.4,9.5
			c-5.9,3.3-9.6,8.1-12.5,16.7L445.7,739.8L445.7,739.8z M374.8,744.1c-3.6,0.2-5.6,2.8-5.6,6c0,3,2.7,5.5,5.6,5.5
			c3.1,0,5.9-3.1,5.7-5.5c-0.2-2.6-1.2-3.3-1.2-3.4l10.1-17.5c6.2,4.7,10.3,12.4,10.3,20.9c0,13.8-11.4,25.1-25.3,25.1
			c-13.9,0-25.2-11.3-25.2-25.1c0-13.9,11.3-25.4,25.2-25.4c3.8,0,7.2,0.9,10.2,2.3L374.8,744.1L374.8,744.1z M488.2,751.5
			c-0.3,1.2-2.7,3-5.8,3.3l-23.3,1.9c0,0,4.6,17,23.3,18.3c14,0,25.3-11.3,25.3-25.4c0-14-11.3-25.2-25.3-25.2
			c-3.6,0-5.4,0.4-8.3,1.8c1,1.8,7,11,10.2,16.9C489.7,744.9,488.2,749.7,488.2,751.5L488.2,751.5z M459.1,741.3
			c2.2-6.2,4.6-9.2,9.8-12.8c0,0,5.4,9.4,8.4,14.2C470.9,742.3,459.1,741.3,459.1,741.3L459.1,741.3z"/>
		<path class="st4" d="M636.2,257.4h-14.2l-5.7-14.7h-25.9l-5.3,14.7h-13.9l25.3-64.9h13.8L636.2,257.4L636.2,257.4z M612.1,231.8
			l-8.9-24.1l-8.8,24.1H612.1L612.1,231.8z"/>
		<path class="st4" d="M575.4,447.1h25.9c5.1,0,9,0.2,11.5,0.6c2.5,0.4,4.8,1.3,6.8,2.7c2,1.4,3.6,3.2,5,5.4c1.3,2.3,2,4.8,2,7.6
			c0,3-0.8,5.8-2.4,8.4c-1.6,2.5-3.9,4.4-6.7,5.7c3.9,1.1,7,3.1,9.1,5.9c2.1,2.8,3.2,6,3.2,9.8c0,2.9-0.7,5.8-2,8.6
			c-1.4,2.8-3.2,5-5.6,6.7c-2.4,1.7-5.3,2.7-8.8,3.1c-2.2,0.2-7.4,0.4-15.8,0.4h-22.1V447.1L575.4,447.1z M588.5,457.9v15h8.6
			c5.1,0,8.3-0.1,9.5-0.2c2.2-0.3,4-1,5.3-2.3c1.3-1.3,1.9-3,1.9-5.1c0-2-0.5-3.6-1.6-4.9c-1.1-1.3-2.8-2-4.9-2.3
			c-1.3-0.1-5-0.2-11.2-0.2H588.5L588.5,457.9z M588.5,483.7V501h12.1c4.7,0,7.7-0.1,9-0.4c2-0.3,3.5-1.2,4.8-2.6
			c1.2-1.4,1.8-3.2,1.8-5.5c0-1.9-0.5-3.6-1.4-4.9c-0.9-1.4-2.3-2.4-4.1-3c-1.8-0.6-5.7-0.9-11.6-0.9H588.5L588.5,483.7z"/>
		<path class="st4" d="M614.6,744.9l12.7,4c-1.9,7.1-5.2,12.3-9.7,15.8c-4.5,3.4-10.3,5.1-17.2,5.1c-8.6,0-15.7-2.9-21.2-8.8
			c-5.5-5.9-8.3-13.9-8.3-24.1c0-10.8,2.8-19.2,8.4-25.2c5.6-6,12.9-9,22-9c7.9,0,14.4,2.3,19.3,7c3,2.8,5.2,6.7,6.6,11.9l-13,3.1
			c-0.8-3.4-2.4-6-4.8-8c-2.4-1.9-5.4-2.9-8.9-2.9c-4.8,0-8.7,1.7-11.7,5.2c-3,3.4-4.5,9-4.5,16.8c0,8.2,1.5,14,4.4,17.5
			c2.9,3.5,6.8,5.2,11.5,5.2c3.5,0,6.5-1.1,9-3.3C611.7,753.2,613.5,749.7,614.6,744.9L614.6,744.9z"/>
	</g>
</g>
</svg>
