<?xml version="1.0" encoding="utf-8"?>
<!-- Generator: Adobe Illustrator 19.2.0, SVG Export Plug-In . SVG Version: 6.00 Build 0)  -->
<svg version="1.1" id="Livello_1" xmlns="http://www.w3.org/2000/svg" xmlns:xlink="http://www.w3.org/1999/xlink" x="0px" y="0px"
	 viewBox="0 0 960 960" style="enable-background:new 0 0 960 960;" xml:space="preserve">
<style type="text/css">
	.st0{fill:#FFFFFF;stroke:#1A171B;stroke-width:3.3043;stroke-miterlimit:2.6131;}
	.st1{fill:none;stroke:#1A171B;stroke-width:0.9913;stroke-miterlimit:2.6131;}
	.st2{fill-rule:evenodd;clip-rule:evenodd;fill:#1A171B;stroke:#1A171B;stroke-width:0.9913;stroke-miterlimit:2.6131;}
	.st3{fill-rule:evenodd;clip-rule:evenodd;fill:#FFFFFF;}
</style>
<g>
	<g>
		<polygon class="st0" points="336,120 624,120 624,840 336,840 336,120 		"/>
		<path class="st1" d="M480.2,384.5c52.7,0,95.7,43,95.7,95.7c0,52.7-43,95.7-95.7,95.7c-52.7,0-95.7-43-95.7-95.7
			C384.5,427.5,427.5,384.5,480.2,384.5L480.2,384.5z"/>
		<path class="st1" d="M480.2,617.9c52.9,0,96,43.1,96,96c0,52.9-43.1,96-96,96c-52.9,0-96-43.1-96-96
			C384.2,661,427.3,617.9,480.2,617.9L480.2,617.9z"/>
		<path class="st1" d="M479.8,153c52.9,0,96,43.1,96,96c0,52.9-43.1,96-96,96c-52.9,0-96-43.1-96-96C383.9,196.1,427,153,479.8,153
			L479.8,153z"/>
		<path class="st2" d="M384.3,249.1c0,52.6,42.9,95.5,95.5,95.5c52.6,0,95.5-42.9,95.5-95.5c0-52.6-42.9-95.5-95.5-95.5
			C427.2,153.6,384.3,196.5,384.3,249.1L384.3,249.1z"/>
		<path class="st3" d="M425.2,273.9l14-2.1c0.2,4.6,1.5,8.3,3.2,10.7c1.9,2.5,4.3,4,6.8,4c2.8,0,5.3-1.8,7.2-4.9
			c2.1-3.1,3.2-8.3,3.2-15c0-6.1-1.1-11.4-3-14.4c-1.9-3.1-4.7-4.9-7.9-4.9c-3.8,0-7.7,2.8-10.6,8l-11.3-2.5l7.2-56.5h37v19h-26.4
			l-2.3,18.4c3-2.5,6.4-3.7,9.6-3.7c6.2,0,11.7,3.4,15.9,9.8c4.3,6.8,6.6,15.7,6.6,26.1c0,8.6-1.9,16.9-5.3,23.6
			c-4.7,9.2-11.5,14.1-20,14.1c-6.6,0-12.1-2.8-16.4-8C428.6,290.5,425.9,283.1,425.2,273.9L425.2,273.9z M506.9,194.4
			c7.2,0,13,4,16.8,11.4c4.9,8.6,7.4,23.3,7.4,43.6c0,20.3-2.6,35-7.4,43.6c-3.8,7.1-9.6,10.7-16.8,10.7c-7.2,0-13.4-4-17.6-12
			c-4.3-8-6.6-22.4-6.6-42.7c0-20.3,2.6-35,7.2-43.6C493.9,198.1,499.6,194.4,506.9,194.4L506.9,194.4z M506.9,211.6
			c-1.7,0-3.4,0.9-4.7,2.5c-1.3,1.5-2.6,4.6-3.2,8.6c-0.9,5.2-1.5,14.4-1.5,26.7c0,12.3,0.4,21.2,1.3,25.5c0.9,4.6,1.9,8,3.2,9.2
			c1.3,1.5,3.2,2.5,4.9,2.5c1.7,0,3.2-0.9,4.5-2.1c1.3-1.5,2.5-4.6,3.4-8.6c0.8-4.9,1.5-14.1,1.5-26.4c0-12.3-0.4-21.2-1.3-25.8
			c-0.9-4.6-2.1-8-3.4-9.5C510.3,212.5,508.6,211.6,506.9,211.6L506.9,211.6z"/>
		<path class="st2" d="M384.3,479.7c0,52.6,42.9,95.5,95.5,95.5c52.6,0,95.5-42.9,95.5-95.5c0-52.6-42.9-95.5-95.5-95.5
			C427.2,384.2,384.3,427.1,384.3,479.7L384.3,479.7z"/>
		<path class="st3" d="M454.4,532.5V511h-29.1v-17.5L456,425h12v68.2h9.1V511h-9.1v21.5H454.4L454.4,532.5z M454.4,493.2v-35.6
			l-16.2,35.6H454.4L454.4,493.2z M507.5,425c7.1,0,12.7,4,16.4,11.4c4.8,8.6,7.3,23.3,7.3,43.6c0,20.3-2.5,35-7.3,43.6
			c-3.7,7.1-9.3,10.7-16.4,10.7c-7.1,0-13.1-4-17.2-12c-4.2-8-6.4-22.4-6.4-42.7c0-20.3,2.5-35,7.1-43.6
			C494.9,428.7,500.5,425,507.5,425L507.5,425z M507.5,442.2c-1.7,0-3.3,0.9-4.6,2.5c-1.2,1.5-2.5,4.6-3.1,8.6
			c-0.8,5.2-1.5,14.4-1.5,26.7c0,12.3,0.4,21.2,1.2,25.5c0.8,4.6,1.9,8,3.1,9.2c1.2,1.5,3.1,2.5,4.8,2.5c1.7,0,3.1-0.9,4.4-2.1
			c1.2-1.5,2.5-4.6,3.3-8.6c0.8-4.9,1.5-14.1,1.5-26.4c0-12.3-0.4-21.2-1.2-25.8c-0.8-4.6-2.1-8-3.3-9.5
			C510.8,443.1,509.2,442.2,507.5,442.2L507.5,442.2z"/>
		<path class="st2" d="M384.5,713.8c0,52.7,43,95.7,95.7,95.7c52.7,0,95.7-43,95.7-95.7c0-52.7-43-95.7-95.7-95.7
			C427.5,618.1,384.5,661.1,384.5,713.8L384.5,713.8z"/>
		<path class="st3" d="M426.7,737.8l13.7-2.5c0.2,5.4,1.4,9.9,3.1,12.1c1.7,2.5,4.3,4.2,6.8,4.2c2.7,0,5.2-1.7,7.2-4.8
			c1.9-3.1,2.9-7.6,2.9-13.2c0-5.4-0.8-9.6-2.5-12.7c-1.7-3.1-4.1-4.8-6.6-4.8c-1.5,0-3.7,0.6-5.8,1.7l1.4-16.6
			c3.3,0,6.4-0.8,8.1-3.4c1.7-2.5,2.9-5.9,2.9-10.1c0-3.7-0.8-6.8-2.1-8.5c-1.4-2.3-3.5-3.4-5.6-3.4c-2.1,0-4.3,1.1-5.6,3.7
			c-1.5,2.5-2.7,6.2-2.9,10.4l-13.1-3.1c0.8-6.5,2.1-12.1,3.9-15.8c1.7-3.7,4.4-7,7.3-9.3c3.3-2.3,7-3.4,10.6-3.4
			c7,0,12.4,3.4,16.4,9.9c3.5,5.1,5.2,11.3,5.2,17.8c0,9.3-3.7,17.2-10.6,22.8c4.3,1.1,7.5,4.2,10.2,8.5c2.5,4.8,3.7,10.7,3.7,17.2
			c0,9.3-2.3,17.8-7,24.2c-4.6,6.8-10.6,10.1-17.6,10.1c-6.6,0-12.2-2.5-16.4-8.2c-4.3-5.6-7.2-13.5-7.5-22.5V737.8L426.7,737.8z
			 M508.5,658.4c7.3,0,13.1,3.9,16.8,11.6c5,8.7,7.5,23.7,7.5,44c0,20.6-2.5,35.5-7.5,44.2c-3.7,7-9.5,10.7-16.8,10.7
			c-7.2,0-13.3-3.9-17.6-12.1c-4.3-7.9-6.6-22.5-6.6-43.1c0-20.6,2.5-35.2,7.2-44C495.5,662,501.3,658.4,508.5,658.4L508.5,658.4z
			 M508.5,675.8c-1.5,0-3.3,0.8-4.6,2.5c-1.3,1.4-2.5,4.5-3.1,8.5c-1,5.4-1.5,14.7-1.5,27.1c0,12.4,0.4,21.4,1.2,25.9
			c1,4.5,1.9,7.9,3.3,9.3c1.4,1.4,3.3,2.5,4.8,2.5c1.7,0,3.3-1.1,4.4-2.3c1.4-1.7,2.7-4.8,3.5-8.7c1-5.1,1.5-14.4,1.5-26.8
			c0-12.4-0.4-21.4-1.4-25.9c-0.8-4.8-2.1-8.2-3.3-9.6C511.9,676.7,510.2,675.8,508.5,675.8L508.5,675.8z"/>
	</g>
</g>
</svg>
