<?xml version="1.0" encoding="utf-8"?>
<!-- Generator: Adobe Illustrator 19.2.0, SVG Export Plug-In . SVG Version: 6.00 Build 0)  -->
<svg version="1.1" id="Livello_1" xmlns="http://www.w3.org/2000/svg" xmlns:xlink="http://www.w3.org/1999/xlink" x="0px" y="0px"
	 viewBox="0 0 960 960" style="enable-background:new 0 0 960 960;" xml:space="preserve">
<style type="text/css">
	.st0{fill-rule:evenodd;clip-rule:evenodd;fill:#C5C6C8;stroke:#C5C6C8;stroke-width:4.7063;stroke-miterlimit:2.6131;}
	.st1{fill-rule:evenodd;clip-rule:evenodd;fill:#1A171B;stroke:#1A171B;stroke-width:4.7063;stroke-miterlimit:2.6131;}
	.st2{fill-rule:evenodd;clip-rule:evenodd;fill:#FFFFFF;stroke:#1A171B;stroke-width:4.7063;stroke-miterlimit:2.6131;}
	.st3{fill-rule:evenodd;clip-rule:evenodd;fill:#E1001A;stroke:#1A171B;stroke-width:4.7063;stroke-miterlimit:2.6131;}
	.st4{fill-rule:evenodd;clip-rule:evenodd;fill:#6C1B1B;stroke:#1A171B;stroke-width:4.7063;stroke-miterlimit:2.6131;}
</style>
<g>
	<g>
		<polygon class="st0" points="465.4,140.1 534.1,140.1 534.1,840 465.4,840 465.4,140.1 		"/>
		<path class="st1" d="M259.3,216.5c103.1,0,187.1,84.1,187.1,187.1s-84.1,187.1-187.1,187.1S72.1,506.7,72.1,403.6
			S156.2,216.5,259.3,216.5L259.3,216.5z"/>
		<path class="st1" d="M700.7,216.5c103.1,0,187.1,84.1,187.1,187.1s-84.1,187.1-187.1,187.1c-103.1,0-187.1-84.1-187.1-187.1
			S597.7,216.5,700.7,216.5L700.7,216.5z"/>
		<path class="st2" d="M166.5,405.8h185.4c0-0.7,0.1-1.4,0.1-2.1c0-51-41.7-92.7-92.7-92.7c-51,0-92.7,41.7-92.7,92.7
			C166.5,404.4,166.5,405.1,166.5,405.8L166.5,405.8z"/>
		<path class="st2" d="M608,405.8h185.4c0-0.7,0.1-1.4,0.1-2.1c0-51-41.7-92.7-92.7-92.7c-51,0-92.7,41.7-92.7,92.7
			C608,404.4,608,405.1,608,405.8L608,405.8z"/>
		<path class="st1" d="M259.3,328.9c42.4,0,77,34.6,77,77c0,42.4-34.6,77-77,77c-42.4,0-77-34.6-77-77
			C182.3,363.5,216.9,328.9,259.3,328.9L259.3,328.9z"/>
		<path class="st1" d="M700.8,328.9c42.4,0,77,34.6,77,77c0,42.4-34.6,77-77,77c-42.4,0-77-34.6-77-77
			C623.8,363.5,658.3,328.9,700.8,328.9L700.8,328.9z"/>
		<path class="st3" d="M259.3,338c37.4,0,67.9,30.5,67.9,67.9c0,37.4-30.5,67.9-67.9,67.9c-37.4,0-67.9-30.5-67.9-67.9
			C191.3,368.5,221.9,338,259.3,338L259.3,338z"/>
		<path class="st4" d="M700.8,338c37.4,0,67.9,30.5,67.9,67.9c0,37.4-30.5,67.9-67.9,67.9c-37.4,0-67.9-30.5-67.9-67.9
			C632.8,368.5,663.3,338,700.8,338L700.8,338z"/>
		<polygon class="st2" points="445.3,120 514,120 514,840 445.3,840 445.3,120 		"/>
	</g>
</g>
</svg>
