<?xml version="1.0" encoding="utf-8"?>
<!-- Generator: Adobe Illustrator 19.2.0, SVG Export Plug-In . SVG Version: 6.00 Build 0)  -->
<svg version="1.1" id="Livello_1" xmlns="http://www.w3.org/2000/svg" xmlns:xlink="http://www.w3.org/1999/xlink" x="0px" y="0px"
	 viewBox="0 0 960 960" style="enable-background:new 0 0 960 960;" xml:space="preserve">
<style type="text/css">
	.st0{fill-rule:evenodd;clip-rule:evenodd;fill:#005EA7;}
	.st1{fill:none;stroke:#FFFFFF;stroke-width:11.8156;stroke-miterlimit:2.6131;}
	
		.st2{fill-rule:evenodd;clip-rule:evenodd;fill:#FFEC00;stroke:#FFEC00;stroke-width:1.9693;stroke-linejoin:round;stroke-miterlimit:2.6131;}
	.st3{fill-rule:evenodd;clip-rule:evenodd;fill:#FFFFFF;}
	.st4{fill:none;stroke:#FFFFFF;stroke-width:0.3939;stroke-linecap:round;stroke-linejoin:round;stroke-miterlimit:2.6131;}
</style>
<g>
	<g>
		<polygon class="st0" points="180,181.7 780,181.7 780,778.3 180,778.3 180,181.7 		"/>
		<path class="st1" d="M230.8,199.3h499.3c18.3,0,33.2,14.9,33.2,33.2v496.1c0,18.3-14.9,33.2-33.2,33.2H230.8
			c-18.3,0-33.2-14.9-33.2-33.2V232.5C197.6,214.2,212.6,199.3,230.8,199.3L230.8,199.3z"/>
		<polygon class="st2" points="588.9,267.6 595,289.3 617.4,290.3 598.7,302.8 604.8,324.6 586.8,310.6 568,323.1 575.8,301.9 
			558.1,287.8 580.7,288.8 588.9,267.6 		"/>
		<polygon class="st2" points="450.6,261.2 473.1,261.2 480.1,239.9 487.1,261.2 509.7,261.2 491.5,274.8 498.4,296.3 480.1,283 
			461.8,296.3 468.8,274.8 450.6,261.2 		"/>
		<polygon class="st2" points="239.9,472.6 262.5,472.7 269.6,451.4 276.5,472.8 299.1,472.9 280.8,486.3 287.6,507.9 269.4,494.5 
			251,507.7 258.1,486.2 239.9,472.6 		"/>
		<polygon class="st2" points="662.7,472.3 685.3,472.6 692.6,451.3 699.3,472.8 721.9,473.1 703.4,486.4 710.1,508 692,494.5 
			673.5,507.5 680.7,486.1 662.7,472.3 		"/>
		<polygon class="st2" points="346.4,291.4 369,291.3 375.8,269.9 382.9,291.2 405.5,291 387.4,304.7 394.5,326.2 376.1,313 
			357.9,326.4 364.7,304.8 346.4,291.4 		"/>
		<polygon class="st2" points="279.5,402 286.3,380.5 268.1,367.4 290.5,367.2 297.4,345.6 304.8,367.2 327.4,367 309.2,380.4 
			316.3,401.9 297.9,388.8 279.5,402 		"/>
		<polygon class="st2" points="282.3,615 288.6,593.4 270.1,580.6 292.5,579.9 298.9,558.2 306.8,579.6 329.4,578.9 311.5,592.7 
			319.1,614.1 300.4,601.3 282.3,615 		"/>
		<polygon class="st2" points="345,655.3 367.6,655.3 374.6,634 381.5,655.3 404.2,655.3 385.9,668.8 392.9,690.4 374.6,677.1 
			356.3,690.4 363.2,668.8 345,655.3 		"/>
		<polygon class="st2" points="450.6,683.5 473.1,683.5 480.1,662.2 487.1,683.5 509.7,683.5 491.5,697 498.4,718.6 480.1,705.3 
			461.8,718.6 468.8,697 450.6,683.5 		"/>
		<polygon class="st2" points="558.6,655.5 581.2,655.5 588.2,634.2 595.2,655.5 617.8,655.5 599.5,669.1 606.5,690.6 588.2,677.3 
			569.9,690.6 576.9,669.1 558.6,655.5 		"/>
		<polygon class="st2" points="645.9,614.3 652.7,592.8 634.4,579.7 656.9,579.4 663.6,557.8 671.1,579.3 693.8,579.1 675.6,592.6 
			682.8,614.1 664.3,601 645.9,614.3 		"/>
		<polygon class="st2" points="682.3,401.6 663.7,388.9 645.9,402.6 652.1,381.1 633.4,368.3 656.1,367.4 662.5,345.7 670.1,366.9 
			692.7,366.2 674.9,380.1 682.3,401.6 		"/>
		<polygon class="st3" points="377.8,510.1 377.8,461.1 387.7,461.1 387.7,510.1 377.8,510.1 		"/>
		<polygon class="st3" points="408.2,510.1 408.2,469.4 393.6,469.4 393.6,461.1 432.6,461.1 432.6,469.4 418.1,469.4 418.1,510.1 
			408.2,510.1 		"/>
		<path class="st3" d="M478.1,510.1h-10.8l-4.3-11.1h-19.6l-4,11.1h-10.5l19.1-49h10.5L478.1,510.1L478.1,510.1z M459.9,490.7
			l-6.8-18.2l-6.6,18.2H459.9L459.9,490.7z"/>
		<polygon class="st3" points="483.6,510.1 483.6,461.5 493.5,461.5 493.5,501.8 518.1,501.8 518.1,510.1 483.6,510.1 		"/>
		<polygon class="st3" points="524.9,510.1 524.9,461.1 534.8,461.1 534.8,510.1 524.9,510.1 		"/>
		<path class="st3" d="M588.5,510.1h-10.8l-4.3-11.1h-19.6l-4,11.1h-10.5l19.1-49h10.5L588.5,510.1L588.5,510.1z M570.2,490.7
			l-6.8-18.2l-6.6,18.2H570.2L570.2,490.7z"/>
		<polygon class="st4" points="377.8,510.1 377.8,461.1 387.7,461.1 387.7,510.1 377.8,510.1 		"/>
		<polygon class="st4" points="408.2,510.1 408.2,469.4 393.6,469.4 393.6,461.1 432.6,461.1 432.6,469.4 418.1,469.4 418.1,510.1 
			408.2,510.1 		"/>
		<path class="st4" d="M478.1,510.1h-10.8l-4.3-11.1h-19.6l-4,11.1h-10.5l19.1-49h10.5L478.1,510.1L478.1,510.1z M459.9,490.7
			l-6.8-18.2l-6.6,18.2H459.9L459.9,490.7z"/>
		<polygon class="st4" points="483.6,510.1 483.6,461.5 493.5,461.5 493.5,501.8 518.1,501.8 518.1,510.1 483.6,510.1 		"/>
		<polygon class="st4" points="524.9,510.1 524.9,461.1 534.8,461.1 534.8,510.1 524.9,510.1 		"/>
		<path class="st4" d="M588.5,510.1h-10.8l-4.3-11.1h-19.6l-4,11.1h-10.5l19.1-49h10.5L588.5,510.1L588.5,510.1z M570.2,490.7
			l-6.8-18.2l-6.6,18.2H570.2L570.2,490.7z"/>
	</g>
</g>
</svg>
