<?xml version="1.0" encoding="utf-8"?>
<!-- Generator: Adobe Illustrator 19.2.0, SVG Export Plug-In . SVG Version: 6.00 Build 0)  -->
<svg version="1.1" id="Livello_1" xmlns="http://www.w3.org/2000/svg" xmlns:xlink="http://www.w3.org/1999/xlink" x="0px" y="0px"
	 viewBox="0 0 960 960" style="enable-background:new 0 0 960 960;" xml:space="preserve">
<style type="text/css">
	.st0{fill-rule:evenodd;clip-rule:evenodd;fill:#005EA7;}
	.st1{fill:none;stroke:#FFFFFF;stroke-width:8.8012;stroke-miterlimit:2.6131;}
	
		.st2{fill-rule:evenodd;clip-rule:evenodd;fill:#FFEC00;stroke:#FFEC00;stroke-width:1.4669;stroke-linejoin:round;stroke-miterlimit:2.6131;}
	.st3{fill-rule:evenodd;clip-rule:evenodd;fill:#FFFFFF;}
	.st4{fill:none;stroke:#FFFFFF;stroke-width:0.2934;stroke-linecap:round;stroke-linejoin:round;stroke-miterlimit:2.6131;}
	.st5{fill-rule:evenodd;clip-rule:evenodd;fill:#FFFFFF;stroke:#1A171B;stroke-width:0.8801;stroke-miterlimit:2.6131;}
	.st6{fill:none;stroke:#1A171B;stroke-width:5.8675;stroke-miterlimit:2.6131;}
	.st7{fill-rule:evenodd;clip-rule:evenodd;fill:#1A171B;}
</style>
<g>
	<g>
		<polygon class="st0" points="256.3,180 703.2,180 703.2,624.5 256.3,624.5 256.3,180 		"/>
		<path class="st1" d="M294.1,193.1h371.9c13.6,0,24.7,11.1,24.7,24.7v369.5c0,13.6-11.1,24.7-24.7,24.7H294.1
			c-13.6,0-24.7-11.1-24.7-24.7V217.9C269.4,204.3,280.6,193.1,294.1,193.1L294.1,193.1z"/>
		<polygon class="st2" points="560.9,244 565.4,260.2 582.1,260.9 568.2,270.2 572.7,286.4 559.3,276 545.3,285.4 551.1,269.6 
			537.9,259.1 554.8,259.8 560.9,244 		"/>
		<polygon class="st2" points="457.8,239.3 474.6,239.3 479.9,223.4 485,239.3 501.9,239.3 488.3,249.4 493.5,265.4 479.9,255.5 
			466.2,265.4 471.4,249.4 457.8,239.3 		"/>
		<polygon class="st2" points="300.9,396.7 317.8,396.8 323.1,380.9 328.2,396.8 345,396.9 331.4,407 336.5,423 322.9,413.1 
			309.2,422.9 314.5,406.9 300.9,396.7 		"/>
		<polygon class="st2" points="615.8,396.5 632.7,396.7 638.1,380.9 643.1,396.8 659.9,397.1 646.2,407 651.1,423.1 637.6,413 
			623.9,422.7 629.3,406.7 615.8,396.5 		"/>
		<polygon class="st2" points="380.2,261.8 397,261.6 402.1,245.7 407.4,261.6 424.3,261.5 410.7,271.6 416,287.6 402.4,277.8 
			388.8,287.8 393.9,271.8 380.2,261.8 		"/>
		<polygon class="st2" points="330.4,344.2 335.5,328.1 321.9,318.3 338.6,318.2 343.7,302.1 349.2,318.2 366.1,318.1 352.5,328.1 
			357.8,344.1 344.1,334.3 330.4,344.2 		"/>
		<polygon class="st2" points="332.5,502.8 337.2,486.7 323.4,477.2 340.1,476.7 344.8,460.5 350.7,476.4 367.6,475.9 354.3,486.2 
			359.9,502.1 346,492.6 332.5,502.8 		"/>
		<polygon class="st2" points="379.2,532.8 396,532.8 401.2,516.9 406.4,532.8 423.3,532.8 409.6,542.9 414.8,558.9 401.2,549 
			387.6,558.9 392.8,542.9 379.2,532.8 		"/>
		<polygon class="st2" points="457.8,553.8 474.6,553.8 479.9,537.9 485,553.8 501.9,553.8 488.3,563.9 493.5,579.9 479.9,570 
			466.2,579.9 471.4,563.9 457.8,553.8 		"/>
		<polygon class="st2" points="538.3,533 555.1,533 560.3,517.1 565.5,533 582.4,533 568.8,543.1 574,559.1 560.3,549.2 
			546.7,559.1 551.9,543.1 538.3,533 		"/>
		<polygon class="st2" points="603.4,502.3 608.4,486.2 594.8,476.5 611.5,476.3 616.5,460.2 622.1,476.2 639,476.1 625.4,486.1 
			630.8,502.1 617,492.3 603.4,502.3 		"/>
		<polygon class="st2" points="630.5,343.8 616.5,334.4 603.3,344.6 607.9,328.5 594,319.1 610.9,318.4 615.7,302.2 621.4,318 
			638.2,317.5 624.9,327.9 630.5,343.8 		"/>
		<polygon class="st3" points="379.2,424.5 379.2,387.9 404.2,387.9 404.2,394.1 386.6,394.1 386.6,402.8 401.8,402.8 401.8,408.9 
			386.6,408.9 386.6,424.5 379.2,424.5 		"/>
		<path class="st3" d="M410.3,424.5v-36.5h15.5c3.9,0,6.7,0.3,8.5,1c1.8,0.7,3.2,1.8,4.2,3.5c1.1,1.7,1.6,3.6,1.6,5.8
			c0,2.7-0.8,5-2.4,6.8c-1.6,1.8-4,2.9-7.2,3.4c1.6,0.9,2.9,2,4,3.1c1,1.1,2.4,3.1,4.2,5.9l4.5,7.1h-8.8l-5.3-7.9
			c-1.9-2.8-3.2-4.6-3.9-5.4c-0.7-0.7-1.4-1.2-2.2-1.5c-0.8-0.3-2-0.4-3.7-0.4h-1.5v15.2H410.3L410.3,424.5z M417.7,403.4h5.4
			c3.5,0,5.7-0.1,6.6-0.4c0.9-0.3,1.6-0.8,2.1-1.5c0.5-0.7,0.7-1.6,0.7-2.7c0-1.2-0.3-2.2-1-3c-0.7-0.8-1.6-1.2-2.8-1.4
			c-0.6-0.1-2.4-0.1-5.4-0.1h-5.7V403.4L417.7,403.4z"/>
		<path class="st3" d="M480.1,424.5h-8l-3.2-8.3h-14.6l-3,8.3h-7.8l14.2-36.5h7.8L480.1,424.5L480.1,424.5z M466.5,410l-5-13.6
			l-4.9,13.6H466.5L466.5,410z"/>
		<polygon class="st3" points="484,424.5 484,387.9 491.2,387.9 506.1,412.3 506.1,387.9 513,387.9 513,424.5 505.6,424.5 
			490.9,400.7 490.9,424.5 484,424.5 		"/>
		<path class="st3" d="M544.2,411l7.1,2.3c-1.1,4-2.9,6.9-5.5,8.9c-2.5,1.9-5.8,2.9-9.7,2.9c-4.8,0-8.8-1.7-12-5
			c-3.1-3.3-4.7-7.8-4.7-13.6c0-6.1,1.6-10.8,4.7-14.2c3.1-3.4,7.3-5,12.4-5c4.5,0,8.1,1.3,10.9,4c1.7,1.6,2.9,3.8,3.7,6.7l-7.3,1.7
			c-0.4-1.9-1.3-3.4-2.7-4.5c-1.4-1.1-3-1.6-5-1.6c-2.7,0-4.9,1-6.6,2.9c-1.7,1.9-2.5,5.1-2.5,9.4c0,4.6,0.8,7.9,2.5,9.9
			c1.7,2,3.8,2.9,6.5,2.9c2,0,3.6-0.6,5.1-1.9C542.5,415.7,543.5,413.7,544.2,411L544.2,411z"/>
		<polygon class="st3" points="557.6,424.5 557.6,387.9 584.7,387.9 584.7,394.1 565,394.1 565,402.2 583.3,402.2 583.3,408.4 
			565,408.4 565,418.3 585.4,418.3 585.4,424.5 557.6,424.5 		"/>
		<polygon class="st4" points="379.2,424.5 379.2,387.9 404.2,387.9 404.2,394.1 386.6,394.1 386.6,402.8 401.8,402.8 401.8,408.9 
			386.6,408.9 386.6,424.5 379.2,424.5 		"/>
		<path class="st4" d="M410.3,424.5v-36.5h15.5c3.9,0,6.7,0.3,8.5,1c1.8,0.7,3.2,1.8,4.2,3.5c1.1,1.7,1.6,3.6,1.6,5.8
			c0,2.7-0.8,5-2.4,6.8c-1.6,1.8-4,2.9-7.2,3.4c1.6,0.9,2.9,2,4,3.1c1,1.1,2.4,3.1,4.2,5.9l4.5,7.1h-8.8l-5.3-7.9
			c-1.9-2.8-3.2-4.6-3.9-5.4c-0.7-0.7-1.4-1.2-2.2-1.5c-0.8-0.3-2-0.4-3.7-0.4h-1.5v15.2H410.3L410.3,424.5z M417.7,403.4h5.4
			c3.5,0,5.7-0.1,6.6-0.4c0.9-0.3,1.6-0.8,2.1-1.5c0.5-0.7,0.7-1.6,0.7-2.7c0-1.2-0.3-2.2-1-3c-0.7-0.8-1.6-1.2-2.8-1.4
			c-0.6-0.1-2.4-0.1-5.4-0.1h-5.7V403.4L417.7,403.4z"/>
		<path class="st4" d="M480.1,424.5h-8l-3.2-8.3h-14.6l-3,8.3h-7.8l14.2-36.5h7.8L480.1,424.5L480.1,424.5z M466.5,410l-5-13.6
			l-4.9,13.6H466.5L466.5,410z"/>
		<polygon class="st4" points="484,424.5 484,387.9 491.2,387.9 506.1,412.3 506.1,387.9 513,387.9 513,424.5 505.6,424.5 
			490.9,400.7 490.9,424.5 484,424.5 		"/>
		<path class="st4" d="M544.2,411l7.1,2.3c-1.1,4-2.9,6.9-5.5,8.9c-2.5,1.9-5.8,2.9-9.7,2.9c-4.8,0-8.8-1.7-12-5
			c-3.1-3.3-4.7-7.8-4.7-13.6c0-6.1,1.6-10.8,4.7-14.2c3.1-3.4,7.3-5,12.4-5c4.5,0,8.1,1.3,10.9,4c1.7,1.6,2.9,3.8,3.7,6.7l-7.3,1.7
			c-0.4-1.9-1.3-3.4-2.7-4.5c-1.4-1.1-3-1.6-5-1.6c-2.7,0-4.9,1-6.6,2.9c-1.7,1.9-2.5,5.1-2.5,9.4c0,4.6,0.8,7.9,2.5,9.9
			c1.7,2,3.8,2.9,6.5,2.9c2,0,3.6-0.6,5.1-1.9C542.5,415.7,543.5,413.7,544.2,411L544.2,411z"/>
		<polygon class="st4" points="557.6,424.5 557.6,387.9 584.7,387.9 584.7,394.1 565,394.1 565,402.2 583.3,402.2 583.3,408.4 
			565,408.4 565,418.3 585.4,418.3 585.4,424.5 557.6,424.5 		"/>
		<polygon class="st5" points="257.3,635.8 703.7,635.8 703.7,780 257.3,780 257.3,635.8 		"/>
		<path class="st6" d="M291.5,646.1h378.1c12.1,0,22.1,8.5,22.1,18.8v86c0,10.4-9.9,18.8-22.1,18.8H291.5
			c-12.1,0-22.1-8.5-22.1-18.8v-86C269.4,654.6,279.4,646.1,291.5,646.1L291.5,646.1z"/>
		<path class="st7" d="M507.4,705.5h8.9v5.2c3-4.2,7.1-6.2,11.3-6.2c2.3,0,4.8,0.7,6.1,1.3c1.7,1.2,3.5,2.7,4.5,4.9
			c1.3-2.2,3.3-3.8,5-4.5c2-1,4.2-1.7,6.2-1.7c2.7,0,5,0.7,6.8,1.7c1.7,1,3.5,3,4.5,5.1c0.6,1.4,1,4.2,1,7.5v23.5h-10v-21.1
			c0-3.5-0.3-6.2-1-6.9c-0.7-1.3-2.3-2.3-4-2.3c-1.4,0-2.7,0.7-3.8,1.3c-1.4,0.7-2.5,2.5-2.7,3.8c-0.3,1.4-0.7,4.2-0.7,7.5v17.8
			h-9.8v-20.1c0-3.5-0.4-6.2-0.4-6.8c-0.3-1.2-1-2.2-1.6-2.5c-0.7-0.7-2-1-3.2-1c-1.3,0-3,0.7-4,1.3c-1,0.7-2,2.2-2.3,3.5
			c-0.4,1.3-0.7,4.5-0.7,7.8v17.8h-10V705.5L507.4,705.5z"/>
		<polygon class="st7" points="468.6,742.3 468.6,691.5 478.6,691.5 478.6,718.8 489.8,705.5 501.7,705.5 489.1,719.2 502.4,742.3 
			492.1,742.3 482.6,726 478.6,730.7 478.6,742.3 468.6,742.3 		"/>
		<path class="st7" d="M424.2,742.4h-13.4v-49.8h-12.2v-11c9.5-0.4,12.6-2.8,14-8.9h11.6V742.4L424.2,742.4z"/>
	</g>
</g>
</svg>
