<?xml version="1.0" encoding="utf-8"?>
<!-- Generator: Adobe Illustrator 19.2.0, SVG Export Plug-In . SVG Version: 6.00 Build 0)  -->
<svg version="1.1" id="Livello_1" xmlns="http://www.w3.org/2000/svg" xmlns:xlink="http://www.w3.org/1999/xlink" x="0px" y="0px"
	 viewBox="0 0 960 960" style="enable-background:new 0 0 960 960;" xml:space="preserve">
<style type="text/css">
	.st0{fill:#FFFFFF;stroke:#1A171B;stroke-width:1.0641;stroke-miterlimit:2.6131;}
	.st1{fill-rule:evenodd;clip-rule:evenodd;fill:#1A171B;stroke:#1A171B;stroke-width:1.0641;stroke-miterlimit:2.6131;}
	.st2{fill:none;stroke:#1A171B;stroke-width:3.547;stroke-miterlimit:2.6131;}
	.st3{fill-rule:evenodd;clip-rule:evenodd;fill:#FFFFFF;stroke:#FFFFFF;stroke-width:1.0641;stroke-miterlimit:2.6131;}
	.st4{fill-rule:evenodd;clip-rule:evenodd;fill:#E1001A;}
	.st5{fill-rule:evenodd;clip-rule:evenodd;fill:#FFFFFF;stroke:#1A171B;stroke-width:1.0641;stroke-miterlimit:2.6131;}
	.st6{fill:none;stroke:#1A171B;stroke-width:1.0557;stroke-miterlimit:2.6131;}
	.st7{fill:none;stroke:#1A171B;stroke-width:1.1271;stroke-miterlimit:2.6131;}
	.st8{fill:none;stroke:#1A171B;stroke-width:1.1257;stroke-miterlimit:2.6131;}
	.st9{fill-rule:evenodd;clip-rule:evenodd;fill:#1A171B;stroke:#1A171B;stroke-width:2.1213;stroke-miterlimit:2.6131;}
	.st10{fill:none;stroke:#1A171B;stroke-width:7.0939;stroke-miterlimit:2.6131;}
	.st11{fill-rule:evenodd;clip-rule:evenodd;fill:#005EA7;}
	.st12{fill-rule:evenodd;clip-rule:evenodd;fill:#FFFFFF;}
	.st13{fill-rule:evenodd;clip-rule:evenodd;fill:#1A171B;}
	.st14{fill:none;stroke:#FFFFFF;stroke-width:3.547;stroke-miterlimit:2.6131;}
</style>
<g>
	<g>
		<polygon class="st0" points="45,184.5 915,184.5 915,775.5 45,775.5 45,184.5 		"/>
		<path class="st1" d="M262.7,451.9l51.4,88.1c0.2,3.4-2.1,5.4-5,5.7l-30.9-5.8l0.1,74.1c17.2-14.8,37.1-14.5,51.7-15.1l-5.4-31.6
			c-0.2-3.4,1.8-4.7,5.5-4.7l86.4,51.4l-86.3,51.6c-3.7,0.2-5.7-1-5.5-4.9l4.7-31.6c-36.1,0.6-50.7,22.1-51,36.4l-0.1,39.6
			l-30.9,0.1l0-165.2l-30.9,5.8c-4.4,0.8-5.5-3.4-5.2-5.7L262.7,451.9L262.7,451.9z"/>
		<path class="st2" d="M780.8,620.5h62c6.2,0,11.3,5.1,11.3,11.3v62c0,6.2-5.1,11.3-11.3,11.3h-62c-6.2,0-11.3-5.1-11.3-11.3v-62
			C769.5,625.6,774.5,620.5,780.8,620.5L780.8,620.5z"/>
		<path class="st1" d="M804.2,676.8c2.1,0.1,3.3,0.8,4.2,1.3c6.2,3.7,17.6,5.3,24.4,5.3l15.6,0c0,1.4-0.9,2.1-2.3,2h-65.7
			c-4.9,0-5.3-6.6-5.2-8.6H804.2L804.2,676.8z"/>
		<path class="st1" d="M832.8,680.6c-9.4-0.3-20.8-5.7-24.3-10.4c-1.9-2.3-3.3-4-5.3-4h-26l1.5-8.9h24.9c2.9,0.1,3.3,2.9,4.7,5.3
			c3.3,5.8,14.3,15.6,24.6,15.6h15.6l0,2.4H832.8L832.8,680.6z"/>
		<path class="st1" d="M832.8,677.1c-14.8-1.6-23.4-18.7-24.7-22.7c-0.7-2.4-1.8-3-3.8-3.5h-24.2c0,0,1.9-2.7,4.7-2.7l4.5-5.8h-3.1
			l1.9-2.2l23.6,0.1l-2.1,2.2l-1.2,0l2.3,12.9c0.8,3.9,12.3,20.1,22.1,20.1l13.9,0c1.2,0,1.8,0.6,1.8,1.7H832.8L832.8,677.1z"/>
		<path class="st3" d="M808.6,651.9c-1-2.3-2.7-3.6-5.1-3.6l3.8-5.1L808.6,651.9L808.6,651.9z"/>
		<polygon class="st3" points="786.8,648.3 791.2,642.5 805.9,642.4 801.2,648.4 786.8,648.3 		"/>
		<path class="st4" d="M815.9,648.3l4-14.5c0.8-2.9,4.1-5.1,7.2-5.1h19.4l-3.8,13.9c-0.9,3.4-3.8,5.8-7.2,5.8H815.9L815.9,648.3z
			 M822,634.5c0.7-2.3,2.9-3.6,5.3-3.6h16.2l-3.1,11.6c-0.6,2.5-2.9,3.6-5,3.6H819L822,634.5L822,634.5z"/>
		<path class="st4" d="M829.7,644.7l1-3.7h-4.5l-1,3.7h-4.5l2.6-9.4c0.6-2.2,2.2-3.1,4.3-3.1l14.4,0l-1.2,3.9l-3.5,0l2.2,5
			c-0.6,2.3-1.9,3.4-4.2,3.5H829.7L829.7,644.7z M830.8,640.9l1-3.6h-4.6l0.4-1.2h4.6l1.9,4.9L830.8,640.9L830.8,640.9z"/>
		<path class="st1" d="M803.2,671c1.4,0,2.5,1.1,2.5,2.5c0,1.4-1.1,2.5-2.5,2.5c-1.4,0-2.5-1.1-2.5-2.5
			C800.8,672.1,801.9,671,803.2,671L803.2,671z"/>
		<path class="st1" d="M780.2,671c1.4,0,2.5,1.1,2.5,2.5c0,1.4-1.1,2.5-2.5,2.5c-1.4,0-2.5-1.1-2.5-2.5
			C777.7,672.1,778.9,671,780.2,671L780.2,671z"/>
		<path class="st5" d="M802.1,677.5c0.8,0,1.5,0.7,1.5,1.5c0,0.8-0.7,1.5-1.5,1.5c-0.8,0-1.5-0.7-1.5-1.5
			C800.7,678.1,801.3,677.5,802.1,677.5L802.1,677.5z"/>
		<path class="st5" d="M779.1,677.5c0.8,0,1.5,0.7,1.5,1.5c0,0.8-0.7,1.5-1.5,1.5c-0.8,0-1.5-0.7-1.5-1.5
			C777.6,678.1,778.3,677.5,779.1,677.5L779.1,677.5z"/>
		<path class="st6" d="M809.9,504.3c22.5,0,40.9,18.4,40.9,40.9c0,22.5-18.4,40.9-40.9,40.9c-22.5,0-40.9-18.4-40.9-40.9
			C769,522.7,787.3,504.3,809.9,504.3L809.9,504.3z"/>
		<path class="st7" d="M810.2,511.6c18.7,0,33.9,15.2,33.9,33.9c0,18.7-15.2,33.9-33.9,33.9c-18.7,0-33.9-15.2-33.9-33.9
			C776.3,526.9,791.5,511.6,810.2,511.6L810.2,511.6z"/>
		<path class="st8" d="M809.9,518.2c14.9,0,27.1,12.2,27.1,27.1c0,14.9-12.2,27.1-27.1,27.1c-14.9,0-27.1-12.2-27.1-27.1
			C782.8,530.4,795,518.2,809.9,518.2L809.9,518.2z"/>
		<path class="st9" d="M809.9,531c7.8,0,14.2,6.4,14.2,14.2c0,7.8-6.4,14.2-14.2,14.2c-7.8,0-14.2-6.4-14.2-14.2
			C795.6,537.4,802,531,809.9,531L809.9,531z"/>
		<path class="st10" d="M97.3,199.1h765.4c20.8,0,37.7,17.3,37.7,37.7V723c0,20.4-17.3,37.7-37.7,37.7H97.3
			c-20.4,0-37.7-16.8-37.7-37.7V236.8C59.6,215.9,76.5,199.1,97.3,199.1L97.3,199.1z"/>
		<polygon class="st11" points="106.2,245.6 420.4,245.6 420.4,405.7 106.2,405.7 106.2,245.6 		"/>
		<path class="st12" d="M243.4,297.2l7.7-0.8c0.5,2.6,1.4,4.5,2.8,5.7c1.4,1.2,3.3,1.8,5.7,1.8c2.5,0,4.5-0.5,5.7-1.6
			c1.3-1.1,1.9-2.3,1.9-3.8c0-0.9-0.3-1.7-0.8-2.4c-0.5-0.7-1.5-1.2-2.8-1.7c-0.9-0.3-3-0.9-6.3-1.7c-4.2-1-7.2-2.3-8.9-3.9
			c-2.4-2.1-3.6-4.8-3.6-7.9c0-2,0.6-3.8,1.7-5.6c1.1-1.7,2.8-3,4.9-4c2.1-0.9,4.7-1.4,7.7-1.4c4.9,0,8.6,1.1,11.1,3.2
			c2.5,2.2,3.8,5,3.9,8.6l-7.9,0.3c-0.3-2-1.1-3.5-2.2-4.3c-1.1-0.9-2.8-1.3-5-1.3c-2.3,0-4.1,0.5-5.4,1.4c-0.8,0.6-1.3,1.4-1.3,2.4
			c0,0.9,0.4,1.7,1.2,2.4c1,0.8,3.4,1.7,7.3,2.6c3.8,0.9,6.7,1.8,8.5,2.8c1.8,1,3.3,2.3,4.3,4c1,1.7,1.6,3.8,1.6,6.2
			c0,2.2-0.6,4.3-1.9,6.3c-1.2,2-3,3.4-5.3,4.4c-2.3,1-5.1,1.4-8.5,1.4c-4.9,0-8.7-1.1-11.4-3.4
			C245.5,304.9,243.9,301.6,243.4,297.2L243.4,297.2z"/>
		<path class="st12" d="M280.2,290.7c0-4,0.6-7.3,1.8-10c0.9-2,2.1-3.8,3.6-5.4c1.5-1.6,3.2-2.7,5.1-3.5c2.4-1,5.2-1.5,8.4-1.5
			c5.8,0,10.4,1.8,13.8,5.4c3.5,3.6,5.2,8.5,5.2,14.9c0,6.3-1.7,11.2-5.2,14.8c-3.4,3.6-8,5.3-13.7,5.3c-5.8,0-10.4-1.8-13.9-5.3
			C281.9,301.8,280.2,296.9,280.2,290.7L280.2,290.7z M288.4,290.4c0,4.4,1,7.8,3.1,10.1c2,2.3,4.6,3.4,7.8,3.4
			c3.1,0,5.7-1.1,7.7-3.4c2-2.3,3-5.7,3-10.2c0-4.5-1-7.8-2.9-10c-2-2.2-4.6-3.3-7.8-3.3c-3.3,0-5.9,1.1-7.9,3.3
			C289.4,282.6,288.4,285.9,288.4,290.4L288.4,290.4z"/>
		<path class="st12" d="M324.3,309.9v-39H341c4.2,0,7.2,0.4,9.1,1.1c1.9,0.7,3.4,1.9,4.5,3.7c1.1,1.8,1.7,3.8,1.7,6.2
			c0,2.9-0.9,5.4-2.6,7.3c-1.7,1.9-4.3,3.1-7.7,3.6c1.7,1,3.1,2.1,4.2,3.3c1.1,1.2,2.6,3.3,4.5,6.3l4.8,7.6H350l-5.7-8.5
			c-2-3-3.4-4.9-4.2-5.7c-0.7-0.8-1.5-1.3-2.4-1.6c-0.8-0.3-2.2-0.4-4-0.4h-1.6v16.3H324.3L324.3,309.9z M332.2,287.4h5.8
			c3.8,0,6.2-0.2,7.1-0.5c0.9-0.3,1.7-0.9,2.2-1.7c0.5-0.8,0.8-1.8,0.8-2.9c0-1.3-0.4-2.4-1.1-3.2c-0.7-0.8-1.7-1.3-3-1.5
			c-0.6-0.1-2.6-0.1-5.8-0.1h-6.2V287.4L332.2,287.4z"/>
		<path class="st12" d="M399,309.9h-8.6l-3.4-8.9h-15.6l-3.2,8.9h-8.4l15.2-39h8.3L399,309.9L399,309.9z M384.5,294.5l-5.4-14.5
			l-5.3,14.5H384.5L384.5,294.5z"/>
		<polygon class="st12" points="167.4,381.3 167.4,342.5 175,342.5 190.8,368.4 190.8,342.5 198,342.5 198,381.3 190.2,381.3 
			174.6,356 174.6,381.3 167.4,381.3 		"/>
		<path class="st12" d="M241.1,381.3h-8.5l-3.4-8.8h-15.4l-3.2,8.8h-8.3l15-38.8h8.2L241.1,381.3L241.1,381.3z M226.7,366l-5.3-14.4
			l-5.2,14.4H226.7L226.7,366z"/>
		<path class="st12" d="M245.2,381.3v-38.8h12.5c4.7,0,7.8,0.2,9.3,0.6c2.2,0.6,4.1,1.8,5.6,3.8c1.5,2,2.2,4.5,2.2,7.6
			c0,2.4-0.4,4.4-1.3,6c-0.9,1.6-2,2.9-3.3,3.8c-1.3,0.9-2.7,1.5-4,1.8c-1.9,0.4-4.6,0.6-8.1,0.6H253v14.6H245.2L245.2,381.3z
			 M253,349.1v11h4.3c3.1,0,5.1-0.2,6.2-0.6c1-0.4,1.8-1,2.4-1.9c0.6-0.9,0.9-1.9,0.9-3c0-1.4-0.4-2.6-1.2-3.5
			c-0.8-0.9-1.9-1.5-3.1-1.7c-0.9-0.2-2.8-0.3-5.6-0.3H253L253,349.1z"/>
		<path class="st12" d="M279.6,362.2c0-4,0.6-7.3,1.8-10c0.9-2,2.1-3.8,3.6-5.3c1.5-1.6,3.2-2.7,5-3.5c2.4-1,5.2-1.5,8.3-1.5
			c5.7,0,10.2,1.8,13.7,5.3c3.4,3.5,5.1,8.5,5.1,14.8c0,6.3-1.7,11.2-5.1,14.7c-3.4,3.5-7.9,5.3-13.6,5.3c-5.7,0-10.3-1.8-13.7-5.3
			C281.3,373.2,279.6,368.3,279.6,362.2L279.6,362.2z M287.6,361.9c0,4.4,1,7.7,3,10c2,2.3,4.6,3.4,7.7,3.4c3.1,0,5.7-1.1,7.6-3.4
			c2-2.2,3-5.6,3-10.1c0-4.4-1-7.8-2.9-10c-1.9-2.2-4.5-3.3-7.7-3.3c-3.2,0-5.8,1.1-7.8,3.3C288.6,354.1,287.6,357.4,287.6,361.9
			L287.6,361.9z"/>
		<polygon class="st12" points="323.3,381.3 323.3,342.8 331.1,342.8 331.1,374.8 350.5,374.8 350.5,381.3 323.3,381.3 		"/>
		<polygon class="st12" points="355.8,381.3 355.8,342.5 363.6,342.5 363.6,381.3 355.8,381.3 		"/>
		<path class="st13" d="M561.6,545.9l-9.5,1.7c-0.3-1.9-1-3.3-2.2-4.3c-1.1-1-2.6-1.4-4.4-1.4c-2.4,0-4.3,0.8-5.7,2.5
			c-1.4,1.7-2.1,4.4-2.1,8.3c0,4.3,0.7,7.4,2.2,9.1c1.4,1.8,3.4,2.7,5.8,2.7c1.8,0,3.3-0.5,4.5-1.6c1.2-1,2-2.8,2.5-5.4l9.5,1.6
			c-1,4.3-2.9,7.6-5.7,9.8c-2.8,2.2-6.5,3.3-11.2,3.3c-5.3,0-9.6-1.7-12.7-5c-3.2-3.4-4.7-8-4.7-14c0-6,1.6-10.7,4.8-14
			c3.2-3.4,7.5-5,12.9-5c4.4,0,8,1,10.6,2.9C558.5,539.1,560.4,542,561.6,545.9L561.6,545.9z"/>
		<path class="st13" d="M589.9,560l9.6,1.6c-1.2,3.5-3.2,6.2-5.9,8c-2.7,1.8-6,2.8-10,2.8c-6.3,0-11-2.1-14-6.2
			c-2.4-3.3-3.6-7.5-3.6-12.5c0-6,1.6-10.8,4.7-14.2c3.1-3.4,7.1-5.1,12-5.1c5.4,0,9.7,1.8,12.8,5.4c3.1,3.6,4.6,9,4.5,16.4h-24.1
			c0.1,2.9,0.8,5.1,2.3,6.7c1.5,1.6,3.3,2.4,5.6,2.4c1.5,0,2.8-0.4,3.8-1.2C588.6,563.1,589.4,561.8,589.9,560L589.9,560z
			 M590.5,550.3c-0.1-2.8-0.8-4.9-2.2-6.4c-1.4-1.5-3-2.2-5-2.2c-2.1,0-3.8,0.8-5.2,2.3c-1.4,1.5-2,3.6-2,6.2H590.5L590.5,550.3z"/>
		<path class="st13" d="M641,571.6h-9.6V553c0-3.9-0.2-6.5-0.6-7.6c-0.4-1.1-1.1-2-2-2.7c-0.9-0.6-2-1-3.3-1c-1.7,0-3.2,0.5-4.5,1.4
			c-1.3,0.9-2.2,2.1-2.7,3.6c-0.5,1.5-0.7,4.3-0.7,8.4v16.5h-9.6v-36.4h8.9v5.3c3.2-4.1,7.2-6.2,12-6.2c2.1,0,4.1,0.4,5.8,1.1
			c1.8,0.8,3.1,1.7,4,2.9c0.9,1.2,1.5,2.5,1.9,4c0.4,1.5,0.5,3.7,0.5,6.5V571.6L641,571.6z"/>
		<path class="st13" d="M667.4,535.2v7.7h-6.6v14.7c0,3,0.1,4.7,0.2,5.2c0.1,0.5,0.4,0.9,0.9,1.2c0.4,0.3,1,0.5,1.6,0.5
			c0.9,0,2.2-0.3,3.9-0.9l0.8,7.5c-2.2,1-4.8,1.4-7.6,1.4c-1.7,0-3.3-0.3-4.7-0.9c-1.4-0.6-2.4-1.3-3.1-2.3
			c-0.7-0.9-1.1-2.2-1.4-3.8c-0.2-1.1-0.3-3.4-0.3-6.8v-15.9h-4.4v-7.7h4.4v-7.2l9.7-5.6v12.9H667.4L667.4,535.2z"/>
		<path class="st13" d="M683.3,571.6h-9.6v-36.4h8.9v5.2c1.5-2.4,2.9-4.1,4.1-4.8c1.2-0.8,2.6-1.2,4.2-1.2c2.2,0,4.3,0.6,6.3,1.8
			l-3,8.4c-1.6-1-3.1-1.6-4.5-1.6c-1.4,0-2.5,0.4-3.4,1.1c-0.9,0.7-1.7,2.1-2.2,4c-0.5,1.9-0.8,6-0.8,12.2V571.6L683.3,571.6z"/>
		<path class="st13" d="M699.2,552.9c0-3.2,0.8-6.3,2.4-9.3c1.6-3,3.8-5.3,6.7-6.8c2.9-1.6,6.1-2.4,9.7-2.4c5.5,0,10,1.8,13.5,5.4
			c3.5,3.6,5.3,8.1,5.3,13.6c0,5.5-1.8,10.1-5.3,13.7c-3.6,3.6-8,5.4-13.4,5.4c-3.3,0-6.5-0.7-9.5-2.3c-3-1.5-5.3-3.7-6.9-6.6
			C700,560.6,699.2,557,699.2,552.9L699.2,552.9z M709,553.4c0,3.6,0.9,6.4,2.6,8.3c1.7,1.9,3.8,2.9,6.3,2.9c2.5,0,4.6-1,6.3-2.9
			c1.7-1.9,2.6-4.7,2.6-8.4c0-3.6-0.9-6.3-2.6-8.2c-1.7-1.9-3.8-2.9-6.3-2.9c-2.5,0-4.6,1-6.3,2.9C709.9,547,709,549.8,709,553.4
			L709,553.4z"/>
		<path class="st13" d="M465.7,671.6l9.5-1.4c0.4,1.8,1.2,3.2,2.5,4.2c1.2,0.9,2.9,1.4,5.2,1.4c2.4,0,4.3-0.4,5.5-1.4
			c0.8-0.6,1.2-1.5,1.2-2.5c0-0.7-0.2-1.3-0.7-1.8c-0.5-0.4-1.5-0.9-3.1-1.2c-7.6-1.7-12.4-3.2-14.5-4.6c-2.8-1.9-4.2-4.6-4.2-8
			c0-3.1,1.2-5.7,3.7-7.8c2.4-2.1,6.2-3.2,11.3-3.2c4.9,0,8.5,0.8,10.9,2.4c2.4,1.6,4,3.9,4.9,7.1l-8.9,1.6
			c-0.4-1.4-1.1-2.5-2.2-3.2c-1.1-0.7-2.6-1.1-4.5-1.1c-2.5,0-4.3,0.3-5.3,1c-0.7,0.5-1.1,1.1-1.1,1.9c0,0.7,0.3,1.2,0.9,1.7
			c0.8,0.6,3.8,1.5,8.8,2.7c5,1.1,8.5,2.5,10.5,4.2c2,1.7,3,4,3,7c0,3.3-1.4,6.1-4.1,8.4c-2.7,2.3-6.8,3.5-12.1,3.5
			c-4.9,0-8.7-1-11.5-3C468.4,677.7,466.5,675,465.7,671.6L465.7,671.6z"/>
		<path class="st13" d="M523.5,646.1v7.5H517V668c0,2.9,0.1,4.6,0.2,5.1c0.1,0.5,0.4,0.9,0.8,1.2c0.4,0.3,1,0.5,1.6,0.5
			c0.9,0,2.1-0.3,3.8-0.9l0.8,7.3c-2.2,0.9-4.7,1.4-7.5,1.4c-1.7,0-3.2-0.3-4.6-0.8c-1.4-0.6-2.4-1.3-3-2.2
			c-0.6-0.9-1.1-2.1-1.3-3.7c-0.2-1.1-0.3-3.3-0.3-6.6v-15.5h-4.3v-7.5h4.3v-7.1l9.5-5.5v12.6H523.5L523.5,646.1z"/>
		<path class="st13" d="M537.1,657l-8.6-1.5c1-3.4,2.6-6,5-7.6c2.4-1.6,5.8-2.5,10.5-2.5c4.2,0,7.3,0.5,9.4,1.5c2,1,3.5,2.3,4.3,3.8
			c0.8,1.5,1.3,4.3,1.3,8.4l-0.1,11c0,3.1,0.1,5.4,0.5,6.9c0.3,1.5,0.9,3.1,1.7,4.8h-9.3c-0.2-0.6-0.5-1.6-0.9-2.8
			c-0.1-0.6-0.3-0.9-0.3-1.1c-1.6,1.6-3.3,2.7-5.2,3.5c-1.8,0.8-3.8,1.2-5.9,1.2c-3.7,0-6.6-1-8.7-3c-2.1-2-3.2-4.5-3.2-7.6
			c0-2,0.5-3.8,1.4-5.4c1-1.6,2.3-2.8,4-3.6c1.7-0.8,4.2-1.6,7.5-2.2c4.4-0.8,7.5-1.6,9.1-2.3v-0.9c0-1.8-0.4-3.1-1.3-3.9
			c-0.9-0.8-2.6-1.2-5.1-1.2c-1.7,0-3,0.3-3.9,1C538.4,654.2,537.6,655.4,537.1,657L537.1,657z M549.7,664.7
			c-1.2,0.4-3.1,0.9-5.7,1.4c-2.6,0.6-4.3,1.1-5.1,1.6c-1.2,0.9-1.8,2-1.8,3.3c0,1.3,0.5,2.5,1.5,3.4c1,1,2.2,1.4,3.8,1.4
			c1.7,0,3.3-0.6,4.9-1.7c1.1-0.8,1.9-1.9,2.2-3.1c0.3-0.8,0.4-2.3,0.4-4.6V664.7L549.7,664.7z"/>
		<path class="st13" d="M564.4,681.8v-7.4l13.3-15.3c2.2-2.5,3.8-4.3,4.9-5.3c-1.1,0.1-2.5,0.1-4.3,0.1l-12.6,0.1v-7.8h29.4v6.7
			l-13.6,15.7l-4.8,5.2c2.6-0.2,4.2-0.2,4.9-0.2h14.6v8.3H564.4L564.4,681.8z"/>
		<path class="st13" d="M602.5,641.3v-8.7h9.4v8.7H602.5L602.5,641.3z M602.5,681.8v-35.6h9.4v35.6H602.5L602.5,681.8z"/>
		<path class="st13" d="M619.5,663.4c0-3.1,0.8-6.2,2.3-9.1c1.5-2.9,3.7-5.2,6.6-6.7c2.8-1.5,6-2.3,9.5-2.3c5.4,0,9.8,1.8,13.2,5.3
			c3.4,3.5,5.2,7.9,5.2,13.3c0,5.4-1.7,9.8-5.2,13.4c-3.5,3.6-7.9,5.3-13.1,5.3c-3.3,0-6.4-0.7-9.3-2.2c-3-1.5-5.2-3.6-6.8-6.5
			C620.2,671,619.5,667.5,619.5,663.4L619.5,663.4z M629.1,664c0,3.5,0.8,6.2,2.5,8.1c1.7,1.9,3.7,2.8,6.2,2.8
			c2.5,0,4.5-0.9,6.2-2.8c1.7-1.9,2.5-4.6,2.5-8.2c0-3.5-0.8-6.2-2.5-8c-1.7-1.9-3.7-2.8-6.2-2.8c-2.5,0-4.5,0.9-6.2,2.8
			C630,657.7,629.1,660.4,629.1,664L629.1,664z"/>
		<path class="st13" d="M696,681.8h-9.4v-18.2c0-3.8-0.2-6.3-0.6-7.5c-0.4-1.1-1.1-2-2-2.6c-0.9-0.6-2-0.9-3.3-0.9
			c-1.6,0-3.1,0.4-4.4,1.3c-1.3,0.9-2.2,2.1-2.7,3.6c-0.5,1.5-0.7,4.2-0.7,8.2v16.1h-9.4v-35.6h8.7v5.2c3.1-4,7-6,11.7-6
			c2.1,0,4,0.4,5.7,1.1c1.7,0.8,3,1.7,3.9,2.9c0.9,1.2,1.5,2.5,1.8,4c0.4,1.5,0.5,3.6,0.5,6.3V681.8L696,681.8z"/>
		<path class="st13" d="M726.2,670.4l9.4,1.6c-1.2,3.4-3.1,6.1-5.7,7.9c-2.6,1.8-5.9,2.7-9.8,2.7c-6.2,0-10.8-2-13.7-6.1
			c-2.3-3.2-3.5-7.3-3.5-12.3c0-5.9,1.5-10.5,4.6-13.9c3.1-3.3,7-5,11.7-5c5.3,0,9.5,1.8,12.5,5.3c3.1,3.5,4.5,8.9,4.4,16.1h-23.6
			c0.1,2.8,0.8,5,2.3,6.5c1.5,1.6,3.3,2.3,5.4,2.3c1.5,0,2.7-0.4,3.7-1.2C724.9,673.5,725.7,672.2,726.2,670.4L726.2,670.4z
			 M726.7,660.9c-0.1-2.7-0.8-4.8-2.1-6.2c-1.3-1.4-3-2.1-4.9-2.1c-2.1,0-3.8,0.8-5.1,2.3c-1.3,1.5-2,3.5-2,6.1H726.7L726.7,660.9z"
			/>
		<path class="st12" d="M154.3,296.2l3.3-0.4c0.2,1.8,0.7,3.1,0.9,4c0.7,0.7,1.6,1.1,2.4,1.1c1.3,0,2-0.4,2.7-0.9
			c0.2-0.9,0.9-1.8,0.9-2.7c0-0.9-0.2-1.1-0.7-1.6c-0.2-0.7-0.4-0.9-1.1-1.6c-0.2-0.2-0.9-0.4-2.4-1.1c-1.8-0.4-2.9-1.6-3.8-2.4
			c-0.9-1.8-1.3-3.5-1.3-5.8c0-1.3,0.2-2.7,0.7-3.8c0.4-1.3,1.3-2,2-2.9c0.7-0.7,2-0.9,3.1-0.9c2,0,3.8,0.7,4.7,2.2
			c1.1,1.8,1.6,3.8,1.6,6.2l-3.3,0.2c-0.2-1.3-0.2-2.4-0.9-3.1c-0.2-0.4-1.1-0.9-2-0.9c-0.9,0-1.8,0.4-2.2,0.9
			c-0.2,0.7-0.4,1.1-0.4,1.8c0,0.9,0.2,1.3,0.4,1.8c0.4,0.4,1.6,1.1,3.1,1.8c1.6,0.7,2.9,1.3,3.5,2c0.4,0.7,1.3,1.6,1.8,2.9
			c0.4,0.9,0.7,2.4,0.7,4.2c0,1.3-0.4,3.1-0.9,4.2c-0.4,1.3-1.3,2.7-2.2,3.1c-1.1,0.7-2,0.9-3.5,0.9c-2.2,0-3.8-0.7-4.9-2.2
			C155.4,301.5,154.5,299.5,154.3,296.2L154.3,296.2z"/>
		<path class="st12" d="M139.2,296.2l3.1-0.4c0.2,1.8,0.4,3.1,1.3,4c0.2,0.7,1.1,1.1,2.2,1.1c1.1,0,2-0.4,2.4-0.9
			c0.7-0.9,0.7-1.8,0.7-2.7c0-0.9,0-1.1-0.2-1.6c-0.2-0.7-0.7-0.9-1.3-1.6c-0.2-0.2-1.1-0.4-2.7-1.1c-1.3-0.4-2.9-1.6-3.3-2.4
			c-1.1-1.8-1.6-3.5-1.6-5.8c0-1.3,0.2-2.7,0.7-3.8c0.4-1.3,1.1-2,2-2.9c1.1-0.7,2-0.9,3.3-0.9c2,0,3.3,0.7,4.4,2.2
			c1.1,1.8,1.6,3.8,1.8,6.2l-3.3,0.2c-0.2-1.3-0.4-2.4-0.7-3.1c-0.9-0.4-1.3-0.9-2.2-0.9c-1.1,0-1.8,0.4-2.2,0.9
			c-0.2,0.7-0.4,1.1-0.4,1.8c0,0.9,0.2,1.3,0.4,1.8c0.2,0.4,1.1,1.1,2.9,1.8c1.6,0.7,2.7,1.3,3.3,2c1.1,0.7,1.6,1.6,2,2.9
			c0.2,0.9,0.7,2.4,0.7,4.2c0,1.3-0.4,3.1-0.9,4.2c-0.4,1.3-1.1,2.7-2.2,3.1c-0.9,0.7-2.2,0.9-3.5,0.9c-2,0-3.5-0.7-4.7-2.2
			C140.1,301.5,139.4,299.5,139.2,296.2L139.2,296.2z"/>
		<path class="st14" d="M141.4,265.2h55.3c7,0,12.8,5.7,12.8,12.8v26.5c0,7-5.7,12.8-12.8,12.8h-55.3c-7,0-12.8-5.7-12.8-12.8v-26.5
			C128.6,270.9,134.4,265.2,141.4,265.2L141.4,265.2z"/>
		<path class="st12" d="M172.7,297.9l3.1-0.6c0.1,1.3,0.4,2.3,0.8,3c0.4,0.7,0.9,1,1.6,1c0.7,0,1.2-0.4,1.6-1.3
			c0.4-0.8,0.7-1.9,0.7-3.4c0-1.3-0.2-2.4-0.6-3.2c-0.4-0.8-1-1.2-1.6-1.2c-0.4,0-0.9,0.1-1.5,0.4l0.3-4.3c0.9,0,1.5-0.3,2-0.9
			c0.4-0.7,0.7-1.5,0.7-2.6c0-0.9-0.2-1.7-0.5-2.2c-0.3-0.6-0.8-0.8-1.3-0.8c-0.5,0-1,0.3-1.4,0.9c-0.4,0.6-0.6,1.5-0.7,2.8
			l-2.9-0.8c0.2-1.7,0.5-3,0.9-4c0.4-1,1-1.8,1.7-2.4c0.7-0.6,1.6-0.9,2.5-0.9c1.6,0,2.8,0.8,3.7,2.5c0.8,1.4,1.2,2.9,1.2,4.6
			c0,2.4-0.8,4.4-2.4,5.8c0.9,0.3,1.7,1.1,2.3,2.3c0.6,1.2,0.8,2.6,0.8,4.3c0,2.4-0.5,4.5-1.6,6.2c-1.1,1.7-2.4,2.6-4,2.6
			c-1.5,0-2.7-0.7-3.7-2.2C173.4,302.2,172.8,300.3,172.7,297.9L172.7,297.9z"/>
		<path class="st12" d="M196.3,300.4v4.9h-11.1c0.1-1.9,0.5-3.6,1.1-5.3c0.6-1.7,1.8-3.9,3.6-6.6c1.4-2.2,2.3-3.7,2.6-4.5
			c0.4-1.1,0.7-2.2,0.7-3.2c0-1.2-0.2-2.1-0.6-2.7c-0.4-0.6-0.9-1-1.6-1c-0.7,0-1.2,0.3-1.6,1c-0.4,0.7-0.6,1.8-0.7,3.3l-3.2-0.5
			c0.2-2.9,0.8-5,1.8-6.3c1-1.3,2.2-1.9,3.7-1.9c1.6,0,2.9,0.7,3.8,2.2c0.9,1.5,1.4,3.3,1.4,5.5c0,1.2-0.1,2.4-0.4,3.6
			c-0.3,1.1-0.7,2.3-1.3,3.5c-0.4,0.8-1.1,2-2.1,3.5c-1,1.5-1.6,2.6-1.9,3.1c-0.3,0.5-0.5,1-0.6,1.5H196.3L196.3,300.4z"/>
	</g>
</g>
</svg>
