<?xml version="1.0" encoding="utf-8"?>
<!-- Generator: Adobe Illustrator 19.2.0, SVG Export Plug-In . SVG Version: 6.00 Build 0)  -->
<svg version="1.1" id="Livello_1" xmlns="http://www.w3.org/2000/svg" xmlns:xlink="http://www.w3.org/1999/xlink" x="0px" y="0px"
	 viewBox="0 0 960 960" style="enable-background:new 0 0 960 960;" xml:space="preserve">
<style type="text/css">
	.st0{fill:#FFFFFF;stroke:#1A171B;stroke-width:1.0603;stroke-miterlimit:2.61;}
	.st1{fill:#005EA7;}
	.st2{fill:#E1001A;}
	.st3{fill:none;stroke:#1A171B;stroke-width:0.7975;stroke-miterlimit:2.61;}
	.st4{fill:none;stroke:#1A171B;stroke-width:0.8519;stroke-miterlimit:2.61;}
	.st5{fill:#1A171B;stroke:#1A171B;stroke-width:1.6131;stroke-miterlimit:2.61;}
	.st6{fill:none;stroke:#1A171B;stroke-width:7.0959;stroke-miterlimit:2.61;}
	.st7{fill:#1A171B;}
	.st8{fill:none;stroke:#1A171B;stroke-width:0.9969;stroke-miterlimit:2.61;}
</style>
<g>
	<polygon class="st0" points="45,158.3 915,158.3 915,801.7 45,801.7 45,158.3 	"/>
	<path class="st1" d="M164.4,517.2h-48.8c-4.9,0-8.8,4-8.9,8.9v48.8c0,4.9,4,8.8,8.9,8.9h48.8c4.9,0,8.8-4,8.9-8.9v-48.8
		C173.2,521.2,169.2,517.3,164.4,517.2z M141.3,528.8h5.6V523h9.2v5.7h5.7v9.2h-5.7v5.7H147v-5.7h-5.6L141.3,528.8z M139.1,548.4
		c0.9,0.5,0.9,0.9,0,1.4l-10.8,2.9c-1.4,0.4-2.4,0.7-3.4,0.3l-3.9-2.1c-0.9-0.5-0.3-1.1,1-1.4l10.5-3.1c1.2-0.4,2.4-0.2,3.4,0.5
		L139.1,548.4z M119,560.7L116,562v-10.5c0-5,1.2-5.9,2.5-6.6l14.9-3.9c0.7-0.2,2.2,0.5,2.2,3.1l-16.5,4.7V560.7L119,560.7z
		 M142.7,570.8l-22.4-12v-6.5l5.2,2.6l15.3-4.3c2.2-0.5,2.2-0.5,3.5,0.5l13.1,7.1l-11.8,3.1c-2.2,0.9-2.5,1.7-3,3.9L142.7,570.8
		L142.7,570.8z M162.6,560.3v11.2l-2.6,0.6v-4.5l-13.1,3.4v4.8l-2.6,0.9v-10c0-1.8,0-3.5,2.6-4.1l14.5-3.9
		C162.7,558.5,162.7,559.3,162.6,560.3L162.6,560.3z"/>
	<polygon class="st2" points="148.2,542.3 148.2,536.5 142.6,536.5 142.6,530 148.3,530 148.2,524.3 154.8,524.3 154.8,530 
		160.5,530 160.5,536.5 154.7,536.5 154.8,542.3 148.2,542.3 	"/>
	<path class="st3" d="M825.2,519.2c17.1,0,31,13.9,31,31s-13.9,31-31,31c-17.1,0-31-13.9-31-31C794.2,533,808.1,519.2,825.2,519.2
		L825.2,519.2z"/>
	<path class="st4" d="M825.5,524.7c14.2,0,25.7,11.5,25.7,25.7s-11.5,25.7-25.7,25.7s-25.7-11.5-25.7-25.7S811.2,524.7,825.5,524.7
		L825.5,524.7L825.5,524.7z"/>
	<path class="st4" d="M825.3,529.7c11.4,0,20.6,9.2,20.6,20.6c0,11.4-9.2,20.6-20.6,20.6c-11.4,0-20.6-9.2-20.6-20.6
		C804.7,538.9,813.9,529.7,825.3,529.7L825.3,529.7L825.3,529.7z"/>
	<path class="st5" d="M825.2,539.4c6,0,10.8,4.8,10.8,10.8s-4.8,10.8-10.8,10.8c-6,0-10.8-4.8-10.8-10.8
		C814.4,544.2,819.2,539.4,825.2,539.4L825.2,539.4L825.2,539.4z"/>
	<path class="st6" d="M97.3,173h765.4c20.8,0,37.7,17.8,37.7,37.7v538.5c0,19.9-17.8,37.7-37.7,37.7H97.3
		c-19.9,0-37.7-16.9-37.7-37.7V210.7C59.6,189.8,76.5,173,97.3,173L97.3,173L97.3,173z"/>
	<path class="st7" d="M672,547.3l-5.7,1c-0.1-1-0.6-1.9-1.3-2.5c-0.7-0.6-1.7-0.9-2.6-0.9c-1.3-0.1-2.6,0.5-3.4,1.4
		c-0.8,1-1.3,2.6-1.3,5s0.4,4.2,1.3,5.4c0.8,1.1,2.1,1.7,3.4,1.6c1,0.1,2-0.3,2.7-0.9c0.8-0.9,1.3-2,1.5-3.2l5.6,1
		c-0.4,2.3-1.6,4.4-3.4,5.9c-1.9,1.4-4.3,2.1-6.7,2c-2.8,0.1-5.6-1-7.6-3c-1.9-2-2.8-4.8-2.8-8.3c0-3.6,0.9-6.4,2.8-8.4
		c2-2,4.8-3.1,7.7-3c2.2-0.1,4.5,0.5,6.3,1.7C670.3,543.5,671.4,545.3,672,547.3L672,547.3L672,547.3z"/>
	<path class="st7" d="M689,555.8l5.7,1c-0.6,1.9-1.9,3.6-3.5,4.8c-1.8,1.1-3.9,1.7-6,1.6c-3.8,0-6.6-1.2-8.4-3.7
		c-1.5-2.2-2.3-4.8-2.2-7.5c0-3.6,0.9-6.5,2.8-8.5c1.8-2,4.4-3.1,7.2-3.1c2.9-0.2,5.7,1,7.7,3.2c1.9,2.1,2.8,5.4,2.7,9.8h-14.3
		c-0.1,1.5,0.4,2.9,1.4,4c0.9,1,2.1,1.5,3.4,1.4c0.8,0,1.6-0.2,2.3-0.7C688.3,557.4,688.8,556.6,689,555.8L689,555.8L689,555.8z
		 M689.3,550c0.1-1.4-0.4-2.7-1.3-3.8c-1.6-1.7-4.2-1.7-5.9-0.1c-0.1,0.1-0.1,0.1-0.2,0.2c-0.8,1-1.3,2.4-1.2,3.7L689.3,550
		L689.3,550z"/>
	<path class="st7" d="M719.5,562.7h-5.7v-11.1c0.1-1.5,0-3-0.4-4.5c-0.2-0.7-0.6-1.2-1.2-1.6c-0.6-0.4-1.3-0.6-2-0.5
		c-1,0-1.9,0.3-2.7,0.8c-0.8,0.5-1.3,1.3-1.6,2.2c-0.4,1.6-0.5,3.3-0.5,5v9.9h-5.8V541h5.3v3.2c2.4-3.3,6.9-4.6,10.7-3
		c0.9,0.4,1.7,1,2.4,1.7c0.5,0.7,0.9,1.6,1.1,2.4c0.3,1.3,0.4,2.6,0.4,3.9V562.7L719.5,562.7L719.5,562.7z"/>
	<path class="st7" d="M735.4,540.9v4.6h-3.9v8.8c0,1,0,2.1,0.1,3.1c0.1,0.3,0.3,0.6,0.5,0.7c0.3,0.2,0.6,0.3,1,0.3
		c0.8-0.1,1.6-0.2,2.4-0.5l0.5,4.4c-1.4,0.6-3,0.9-4.5,0.9c-1,0-1.9-0.2-2.8-0.5c-0.7-0.3-1.3-0.7-1.8-1.4c-0.4-0.7-0.7-1.5-0.8-2.3
		c-0.2-1.4-0.2-2.7-0.2-4.1v-9.4h-2.6v-4.6h2.6v-4.3l5.8-3.4v7.7H735.4L735.4,540.9z"/>
	<path class="st7" d="M744.9,562.7h-5.8V541h5.3v3.1c0.6-1.1,1.4-2.1,2.4-2.9c0.7-0.5,1.6-0.7,2.4-0.7c1.3,0,2.7,0.4,3.8,1.1l-1.8,5
		c-0.8-0.6-1.7-0.9-2.7-0.9c-0.7,0-1.5,0.2-2.1,0.6c-0.7,0.7-1.2,1.5-1.4,2.4c-0.4,2.4-0.6,4.9-0.5,7.3v6.7l0,0L744.9,562.7z"/>
	<path class="st7" d="M754.3,551.5c0-1.9,0.5-3.8,1.5-5.5c0.9-1.7,2.3-3.1,4-4.1c1.8-1,3.8-1.5,5.8-1.4c3-0.1,5.9,1,8.1,3.2
		c2.1,2.1,3.3,5.1,3.2,8.1c0.1,3-1.1,6-3.2,8.2c-2.1,2.2-5,3.4-8.1,3.3c-2,0-3.9-0.5-5.7-1.4c-1.8-0.9-3.2-2.3-4.2-4
		C754.7,555.8,754.2,553.6,754.3,551.5L754.3,551.5L754.3,551.5z M760.2,551.8c-0.1,1.8,0.4,3.6,1.5,5c1.8,2.1,5,2.3,7,0.5
		c0.2-0.2,0.3-0.3,0.5-0.5c1.1-1.4,1.7-3.2,1.5-5c0.1-1.8-0.4-3.5-1.5-4.9c-1.8-2.1-5-2.3-7-0.5c-0.2,0.2-0.3,0.3-0.5,0.5
		C760.6,548.3,760.1,550.1,760.2,551.8L760.2,551.8L760.2,551.8z"/>
	<path class="st7" d="M504.7,627.5l11.4,23.1c-8.8,0.9-17.3,3.4-25.2,7.5v-72.5c1.5-15,11.9-22.3,32.7-22.1l1.4,25.7
		c0.5,2.8,3.2,4.6,6,4.1c0,0,0.1,0,0.1,0l60.7-62.4l-83.6-23.6c-2.8,1-4.3,3.5-3.5,6.3l11.4,23.1c-15,1.7-28.6,7.4-38.1,17
		c-9.3-9.7-22.9-15.7-38.2-17.2l11.5-23.1c0.8-2.8-0.8-5.3-3.6-6.2l-83.6,23.4l60.9,62.5c2.8,0.5,5.3-1.1,6.2-4.3l1.5-25.6
		c20.4-0.3,30.7,6.8,32.5,21.1v73.3c-7.8-4.1-16.4-6.6-25.2-7.4l-0.2,0.5c1.7,8.8,1.3,17.8-1.2,26.4c16.5,1.1,24.9,8.1,26.6,21v39.1
		h25.6v-38.1c1.5-15,11.9-22.3,32.7-22.1l1.4,25.7c0.5,2.8,3.2,4.6,6,4.1c0,0,0.1,0,0.1,0l60.7-62.4L508.3,621
		C505.4,622.2,503.8,624.7,504.7,627.5z"/>
	<path class="st2" d="M385.6,614.7c-26.1,0-47.3,21.2-47.3,47.3s21.2,47.3,47.3,47.3c26.1,0,47.3-21.2,47.3-47.3
		C432.8,635.9,411.7,614.7,385.6,614.7z M424.1,672.4h-77.9c-0.3,0-0.5-0.2-0.5-0.4c0,0,0-0.1,0-0.1v-21.3c-0.1-0.2,0.1-0.5,0.4-0.5
		c0,0,0.1,0,0.1,0H424c0.3,0,0.5,0.2,0.5,0.4c0,0,0,0.1,0,0.1v21.3C424.5,672.1,424.3,672.3,424.1,672.4
		C424.1,672.4,424,672.4,424.1,672.4L424.1,672.4z"/>
	<polygon class="st1" points="154.3,260.5 148,277.5 160.5,277.5 	"/>
	<polygon class="st1" points="172.8,336.6 168.3,349 177.4,349 	"/>
	<path class="st1" d="M177.1,401.1c-2.5-0.1-4.9,0.9-6.6,2.8c-1.7,1.9-2.5,4.7-2.5,8.5s0.9,6.6,2.6,8.5c1.7,1.9,4.1,3,6.6,2.9
		c2.5,0.1,4.9-1,6.5-2.9c1.7-1.9,2.5-4.8,2.5-8.6s-0.8-6.6-2.4-8.5C182.1,401.9,179.7,400.9,177.1,401.1z"/>
	<path class="st1" d="M327.8,334.1c-2.5-0.1-4.9,0.9-6.6,2.8c-1.7,1.9-2.5,4.7-2.5,8.5c0,3.8,0.9,6.6,2.6,8.5c1.7,1.9,4.1,3,6.6,2.9
		c2.5,0.1,4.9-1,6.5-2.9c1.7-1.9,2.5-4.8,2.5-8.6s-0.8-6.6-2.4-8.5C332.7,334.9,330.3,333.9,327.8,334.1z"/>
	<path class="st1" d="M334.5,268.6c1.1-0.3,2-1,2.6-1.9c0.6-1,1-2.2,0.9-3.4c0.1-1.4-0.4-2.7-1.3-3.7c-0.9-1-2.1-1.6-3.4-1.8
		l-6.7-0.2h-7.2v11.6h6.8C330.7,269.1,333.5,268.9,334.5,268.6z"/>
	<path class="st1" d="M212.7,341.2c0.4-0.7,0.7-1.6,0.6-2.4c0-1-0.3-2-0.9-2.7c-0.7-0.7-1.6-1.2-2.5-1.3h-10.1v8.4h4.9
		c2,0.1,4,0,6-0.4C211.6,342.5,212.3,341.9,212.7,341.2z"/>
	<polygon class="st1" points="385.8,277.5 398.3,277.5 391.9,260.5 	"/>
	<path class="st1" d="M106.4,219.5V461h331.7V219.5H106.4z M355.9,249.8h9.2v45.7h-9.2V249.8z M310.2,249.8h19.4
		c4.9,0,8.4,0.4,10.6,1.3c2.2,0.8,4.1,2.3,5.3,4.3c1.3,2.1,2,4.6,2,7.2c0.1,3.1-0.9,6.2-3,8.5c-2,2.3-5.1,3.6-9.1,4.2
		c1.8,1,3.5,2.3,5,3.8c2,2.3,3.7,4.8,5.3,7.4l5.6,8.9h-11.1l-6.7-10c-1.5-2.3-3.1-4.6-4.9-6.7c-0.8-0.8-1.7-1.4-2.7-1.7
		c-1.5-0.4-3.1-0.6-4.6-0.5h-1.9v19.1h-9.2V249.8z M343.7,345.5c0,5.3-1.5,9.5-4.3,12.5c-2.9,3-6.8,4.5-11.6,4.5
		c-4.9,0-8.8-1.5-11.7-4.5c-2.9-3-4.4-7.2-4.4-12.4c-0.1-2.9,0.4-5.8,1.5-8.5c0.8-1.7,1.8-3.2,3.1-4.5c1.2-1.3,2.7-2.3,4.3-3
		c2.3-0.9,4.7-1.3,7.2-1.3c4.9,0,8.8,1.5,11.7,4.5C342.3,335.8,343.8,340.1,343.7,345.5L343.7,345.5z M267.8,249.8h36.3v7.7h-13.5
		v38h-9.2v-37.9h-13.6V249.8z M306.6,328.9V362h-6.7v-33L306.6,328.9L306.6,328.9z M182.4,249.8h9.2v24.7c-0.1,2.5,0.1,5.1,0.4,7.6
		c0.3,1.8,1.3,3.4,2.8,4.5c1.8,1.2,3.9,1.8,6.1,1.7c2.6,0,4.6-0.5,5.9-1.6c1.2-1,2.1-2.4,2.4-3.9c0.3-2.6,0.4-5.2,0.4-7.8v-25.3h9.2
		v24c0,5.5-0.2,9.4-0.7,11.6c-0.4,2.1-1.4,4.1-2.7,5.7c-1.5,1.6-3.3,2.9-5.3,3.7c-2.8,1-5.8,1.5-8.8,1.4c-4.4,0-7.7-0.5-10-1.5
		c-2.1-0.9-3.9-2.2-5.3-3.9c-1.3-1.5-2.2-3.2-2.6-5.1c-0.7-3.8-1-7.7-0.9-11.6L182.4,249.8L182.4,249.8z M132.7,334.5v-5.6H159v5.6
		h-9.9V362h-6.7v-27.5H132.7z M169.4,328.9h7l13.2,33.1h-7.3l-2.9-7.5h-13.2l-2.7,7.5h-7.1L169.4,328.9z M149.5,249.8h9.8l18.3,45.7
		h-10.1l-4-10.3h-18.3l-3.8,10.4h-9.7L149.5,249.8z M158.9,401.5h-9.8V429h-6.7v-27.5h-9.7v-5.6H159L158.9,401.5L158.9,401.5z
		 M188.7,425c-2.9,3-6.8,4.5-11.6,4.5c-4.8,0-8.7-1.5-11.7-4.5c-2.9-3-4.4-7.2-4.4-12.4c-0.1-2.9,0.4-5.8,1.5-8.5
		c0.8-1.7,1.8-3.2,3.1-4.5c1.2-1.3,2.7-2.3,4.3-3c2.3-0.9,4.7-1.3,7.2-1.3c4.9,0,8.8,1.5,11.7,4.5c2.9,3,4.3,7.2,4.3,12.6
		C193.2,417.8,191.7,422.1,188.7,425L188.7,425z M221.7,429h-23.2v-32.8h6.7v27.2h16.6L221.7,429L221.7,429z M214.8,362l-4.8-7.2
		c-1.1-1.7-2.3-3.3-3.5-4.9c-0.5-0.6-1.2-1.1-2-1.4c-1.1-0.3-2.2-0.4-3.4-0.4h-1.4V362h-6.7v-33h14c2.6-0.1,5.2,0.2,7.7,0.9
		c1.6,0.6,2.9,1.7,3.8,3.2c1,1.6,1.5,3.4,1.4,5.3c0.1,2.3-0.7,4.5-2.2,6.2c-1.7,1.8-4.1,2.9-6.5,3.1c1.3,0.8,2.5,1.7,3.5,2.8
		c1.4,1.7,2.7,3.5,3.8,5.3l4.1,6.4h-8L214.8,362z M222.2,328.9h7.3l8.3,24.5l8.1-24.5h7.1L241,362h-7.2L222.2,328.9z M258.2,429
		h-6.2v-26l-6.5,26h-6.4l-6.4-26v26h-6.2v-33.1h10l6,22.6l5.9-22.6h10.1V429L258.2,429z M262.8,362h-6.7v-33h6.7V362L262.8,362z
		 M261,289.5c-1.5,2.3-3.6,4.1-6.2,5.1c-3.2,1.2-6.6,1.8-10,1.6c-5.8,0-10.2-1.3-13.3-4c-3.1-2.7-4.8-6.5-5.3-11.6l9-0.9
		c0.5,3,1.6,5.2,3.3,6.6c1.9,1.5,4.3,2.2,6.7,2.1c3,0,5.3-0.6,6.7-1.9c1.4-1,2.2-2.7,2.3-4.4c0-1-0.3-2-1-2.7c-0.9-1-2.1-1.6-3.4-2
		c-1.1-0.4-3.5-1-7.4-2c-3.9-1-8.4-2.7-10.4-4.5c-4.5-3.9-5.4-10.6-2.1-15.6c1.4-2.1,3.4-3.7,5.7-4.6c2.9-1.1,5.9-1.6,9-1.5
		c5.7,0,10.1,1.3,13,3.8c2.9,2.5,4.5,6.2,4.5,10.1l-9.2,0.4c-0.4-2.4-1.3-4.1-2.5-5.1c-1.3-1-3.3-1.5-5.8-1.5
		c-2.2-0.1-4.5,0.4-6.3,1.6c-0.9,0.6-1.5,1.7-1.5,2.8c0,1.1,0.5,2.1,1.4,2.8c1.1,1,4,2,8.5,3.1c3.4,0.7,6.8,1.8,10,3.3
		c2.1,1.1,3.8,2.7,5.1,4.6c1.3,2.2,1.9,4.7,1.8,7.3c0,2.6-0.7,5.2-2.2,7.4L261,289.5z M290,429H265v-33.1h24.5v5.6h-17.8v7.3h16.6
		v5.5h-16.6v9h18.5v5.5L290,429z M288.2,361.4c-2.3,0.9-4.7,1.3-7.2,1.2c-4.2,0-7.4-1-9.6-2.9s-3.6-4.7-4-8.4l6.5-0.6
		c0.2,1.8,1,3.5,2.4,4.8c1.4,1.1,3.1,1.6,4.8,1.5c1.7,0.1,3.5-0.3,4.9-1.4c1-0.8,1.6-1.9,1.6-3.2c0-0.7-0.2-1.4-0.7-2
		c-0.6-0.7-1.5-1.2-2.4-1.4l-5.3-1.5c-3.6-0.9-6.1-2-7.5-3.3c-3.4-2.8-4.1-7.7-1.6-11.4c1-1.5,2.5-2.7,4.2-3.4
		c2.1-0.8,4.3-1.2,6.5-1.2c4.2,0,7.3,0.9,9.3,2.7c2.1,1.8,3.3,4.5,3.3,7.3l-6.7,0.3c-0.1-1.4-0.8-2.7-1.8-3.6
		c-1.3-0.8-2.8-1.2-4.3-1.1c-1.6-0.1-3.2,0.3-4.5,1.2c-0.7,0.5-1.1,1.2-1.1,2.1c0,0.8,0.4,1.5,1,2c0.8,0.7,2.9,1.4,6.2,2.2
		c2.5,0.5,4.9,1.3,7.2,2.4c1.5,0.8,2.7,1.9,3.6,3.4c0.9,1.6,1.4,3.4,1.4,5.3c0,1.9-0.5,3.8-1.5,5.3c-1,1.7-2.5,3.1-4.3,3.9
		L288.2,361.4z M319.6,429H293v-6l17.4-21.5H295v-5.6h24.2v5.3l-18.1,22.3H320v5.5L319.6,429z M347.8,429h-26.6v-6l17.4-21.5h-15.4
		v-5.6h24.2v5.3l-18.1,22.3h18.8v5.5L347.8,429z M378.3,425c-2.9,3-6.8,4.5-11.6,4.5c-4.8,0-8.7-1.5-11.7-4.5
		c-2.9-3-4.3-7.2-4.3-12.4c-0.1-2.9,0.4-5.8,1.5-8.5c0.8-1.7,1.8-3.2,3.1-4.5c1.2-1.3,2.7-2.3,4.3-3c2.3-0.9,4.7-1.3,7.2-1.3
		c4.9,0,8.8,1.5,11.7,4.5c2.9,3,4.4,7.2,4.4,12.6c0.2,5.4-1.2,9.7-4.1,12.7L378.3,425z M404.8,295.5l-3.6-10.3h-18.2l-3.8,10.4h-9.8
		l17.9-45.8h9.8l18.3,45.7h-10.1H404.8z"/>
	<path class="st1" d="M367.1,401.1c-2.5-0.1-5,0.9-6.7,2.8c-1.7,1.9-2.5,4.7-2.5,8.5c0,3.7,0.9,6.6,2.6,8.5c1.7,1.9,4.1,3,6.6,2.9
		c2.5,0.1,4.9-1,6.5-2.9c1.7-1.9,2.5-4.8,2.5-8.6s-0.8-6.6-2.4-8.5C372,401.9,369.6,400.9,367.1,401.1z"/>
	<path class="st1" d="M726.9,403.4c-0.9-0.8-1.9-1.3-3.1-1.5c-1.8-0.3-3.6-0.3-5.4-0.3h-3v21.9h5c1.4,0.1,2.7,0,4.1-0.3
		c1-0.2,1.9-0.7,2.7-1.4c0.8-0.9,1.4-2,1.7-3.2c0.5-2,0.7-4,0.6-6.1c0.1-2-0.1-4-0.6-5.9C728.5,405.5,727.8,404.3,726.9,403.4z"/>
	<path class="st1" d="M637.6,268.4c1-0.3,1.9-1,2.5-1.9c0.6-1,0.9-2.2,0.9-3.4c0.1-1.3-0.4-2.7-1.2-3.7c-0.9-1-2.1-1.6-3.4-1.8
		l-6.5-0.2h-7v11.6h6.6C633.9,268.9,636.5,268.8,637.6,268.4z"/>
	<path class="st1" d="M715.6,342.5c0.8-0.2,1.4-0.7,1.9-1.4c0.4-0.7,0.7-1.6,0.6-2.4c0-1-0.3-2-0.9-2.7c-0.7-0.7-1.6-1.2-2.5-1.3
		h-10.1v8.4h4.9C711.6,343.2,713.6,343,715.6,342.5z"/>
	<polygon class="st1" points="750.5,415.9 759.5,415.9 755,403.6 	"/>
	<polygon class="st1" points="739.8,349 748.9,349 744.3,336.6 	"/>
	<path class="st1" d="M812.8,334.1c-2.5-0.1-4.9,0.9-6.6,2.8c-1.6,1.9-2.5,4.7-2.5,8.5c0,3.8,0.9,6.6,2.6,8.5
		c3.3,3.6,8.9,3.9,12.5,0.6c0.2-0.2,0.4-0.4,0.6-0.6c1.7-1.9,2.5-4.8,2.5-8.6s-0.8-6.6-2.4-8.5C817.8,334.9,815.3,333.9,812.8,334.1
		z"/>
	<path class="st1" d="M783,336.5c-0.9-0.8-1.9-1.3-3.1-1.5c-1.8-0.3-3.6-0.3-5.4-0.3h-3v21.9h4.9c1.4,0.1,2.7,0,4.1-0.3
		c1-0.2,1.9-0.7,2.7-1.4c0.8-0.9,1.4-2,1.7-3.2c0.5-2,0.7-4,0.6-6.1c0.1-2-0.1-4-0.6-5.9C784.5,338.5,783.9,337.4,783,336.5z"/>
	<path class="st1" d="M522.1,219.5V461h331.7V219.5H522.1z M792.4,345.9c0.1,2.4-0.3,4.8-1,7.1c-0.7,2.2-1.9,4.2-3.5,5.8
		c-1.3,1.2-3,2.1-4.7,2.6c-1.9,0.5-3.9,0.8-5.9,0.7h-12.6V329h12.2c2.1-0.1,4.2,0.1,6.3,0.6c1.9,0.6,3.6,1.6,5,3.1
		c1.4,1.5,2.5,3.4,3.2,5.3C792.1,340.6,792.4,343.2,792.4,345.9z M754.6,249.6h35v7.7h-13v37.9h-8.9v-37.8h-13.1V249.6L754.6,249.6z
		 M740.5,279.3c-0.9-0.9-2-1.6-3.2-2c-1-0.4-3.4-1-7.2-2c-3.7-1-8.2-2.7-10.1-4.5c-5-4.4-5.5-12.1-1.1-17.1c1.2-1.4,2.7-2.5,4.4-3.2
		c2.8-1.1,5.7-1.6,8.7-1.5c5.5,0,9.7,1.3,12.5,3.8c2.8,2.6,4.4,6.2,4.4,10.1l-8.9,0.4c-0.4-2.4-1.2-4.1-2.4-5.1
		c-1.3-1-3.2-1.5-5.6-1.5c-2.1-0.1-4.3,0.4-6.1,1.6c-0.9,0.6-1.5,1.7-1.4,2.8c0,1.1,0.5,2.1,1.4,2.8c1.1,1,3.8,2,8.2,3.1
		c3.3,0.7,6.5,1.8,9.6,3.3c2,1.1,3.7,2.7,4.9,4.6c1.2,2.2,1.8,4.7,1.7,7.2c0,2.6-0.7,5.1-2.1,7.3c-1.4,2.3-3.5,4.1-6,5.1
		c-3.1,1.2-6.3,1.7-9.6,1.6c-5.6,0-9.8-1.3-12.9-4c-3-2.7-4.8-6.6-5.3-11.7l8.7-0.9c0.5,3,1.5,5.2,3.2,6.6c1.8,1.5,4.1,2.2,6.4,2.1
		c2.9,0,5-0.6,6.4-1.9c1.4-1.1,2.2-2.7,2.2-4.4C741.3,280.9,741,280,740.5,279.3z M675.7,249.6h32.6v7.7h-23.7v10.1h22.1v7.7h-22.1
		v12.4h24.7v7.7h-33.5V249.6z M658.3,249.6h8.9v45.7h-8.9V249.6z M608.3,257.3h-13.1v37.9h-8.9v-37.8h-13.1v-7.7h35L608.3,257.3
		L608.3,257.3z M614.1,249.6h18.8c4.7,0,8.1,0.4,10.2,1.3c2.2,0.8,4,2.4,5.2,4.4c1.3,2.2,1.9,4.6,1.9,7.2c0.1,3.1-0.9,6.1-2.9,8.5
		c-1.9,2.3-4.9,3.6-8.7,4.2c1.8,1,3.4,2.3,4.8,3.8c1.9,2.3,3.6,4.8,5.1,7.4l5.3,8.9h-10.7l-6.4-10c-1.4-2.3-3-4.6-4.7-6.7
		c-0.7-0.8-1.7-1.5-2.7-1.9c-1.4-0.4-2.9-0.6-4.4-0.5H623v19h-8.9L614.1,249.6L614.1,249.6z M641.5,426.9
		c-6.2,4.1-14.3,3.3-19.6-1.9c-2.8-3-4.3-7.1-4.3-12.3s1.4-9.5,4.3-12.9c2.9-3.1,7-4.7,11.2-4.5c3.6-0.1,7.2,1.2,9.9,3.6
		c1.6,1.7,2.8,3.8,3.4,6.1l-6.6,1.5c-0.6-3.3-3.6-5.7-7-5.5c-2.3-0.1-4.5,0.9-6,2.6c-1.5,1.8-2.3,4.6-2.3,8.5c0,3.9,0.8,6.9,2.3,9
		c1.5,1.7,3.6,2.7,5.9,2.6c1.7,0,3.4-0.6,4.6-1.7c1.4-1.5,2.4-3.3,2.7-5.3l6.4,2.1C645.5,422.5,643.8,425.2,641.5,426.9L641.5,426.9
		z M658.6,429h-6.7v-33.1h6.7V429z M663.1,336.2c1.4-2.7,3.6-4.8,6.3-6.2c2.5-1.2,5.2-1.7,7.9-1.6c4.1,0,7.3,0.8,9.6,2.5
		c2.3,1.8,3.9,4.3,4.4,7.2l-6.6,1.3c-0.4-1.5-1.3-2.9-2.6-3.8c-1.4-1-3.1-1.5-4.8-1.5c-2.6-0.1-5.2,0.9-7,2.8
		c-1.8,1.9-2.6,4.6-2.5,8.2c0,3.9,0.9,6.9,2.6,8.8c1.7,2,4.3,3,6.9,2.9c1.4,0,2.8-0.3,4.2-0.8c1.3-0.5,2.5-1.2,3.6-2v-4.2h-7.6v-5.5
		h14.4v13.1c-1.8,1.6-3.8,2.8-6.1,3.5c-2.6,1-5.3,1.5-8.1,1.5c-3.2,0.1-6.3-0.7-9.1-2.2c-2.5-1.4-4.6-3.6-5.8-6.3
		c-1.3-2.7-1.9-5.8-1.9-8.8C660.9,342.2,661.6,339,663.1,336.2z M680.6,429h-7.2l-11.8-33.1h7.3l8.3,24.5l8.1-24.5h7.1L680.6,429z
		 M702.3,429h-6.7v-33.1h6.7V429L702.3,429z M704.7,348.2V362H698v-33h14c2.6-0.1,5.2,0.2,7.7,0.9c1.6,0.6,2.9,1.7,3.8,3.2
		c1,1.6,1.5,3.4,1.5,5.3c0.1,2.3-0.7,4.5-2.2,6.2c-1.7,1.8-4.1,2.9-6.5,3.1c1.3,0.8,2.6,1.7,3.6,2.8c1.4,1.7,2.7,3.5,3.8,5.3
		l4.1,6.4h-8L715,355c-1.1-1.7-2.3-3.3-3.5-4.9c-0.6-0.6-1.2-1.1-2-1.4c-1.1-0.3-2.2-0.4-3.4-0.4h-1.4L704.7,348.2z M735.3,419.8
		c-0.7,2.2-1.9,4.2-3.5,5.8c-1.3,1.2-3,2.1-4.7,2.6c-1.9,0.5-3.9,0.8-5.9,0.7h-12.5v-33.1h12.2c2.1-0.1,4.2,0.1,6.3,0.6
		c1.9,0.6,3.6,1.6,5,3.1c1.4,1.5,2.5,3.4,3.2,5.3c0.8,2.5,1.1,5.2,1.1,7.8C736.4,415.2,736.1,417.5,735.3,419.8L735.3,419.8z
		 M735,362H728l12.9-33.1h7.1l13.2,33.1h-7.3l-2.9-7.5h-13.1L735,362z M764.6,429l-2.9-7.5h-13.2l-2.7,7.5h-7.1l12.9-33.1h7.1
		l13.2,33.1H764.6z M798.8,429h-23.3v-32.8h6.7v27.2h16.6V429L798.8,429z M828.7,429h-25.1v-33.1h24.5v5.6h-17.9v7.3h16.6v5.5h-16.6
		v9h18.5V429L828.7,429z M824.4,358.1c-2.9,3-6.8,4.5-11.6,4.5c-4.8,0-8.7-1.5-11.7-4.5c-2.9-3-4.4-7.2-4.4-12.4
		c-0.1-2.9,0.4-5.8,1.5-8.5c0.8-1.7,1.8-3.2,3.1-4.5c1.2-1.3,2.7-2.3,4.3-3c2.3-0.9,4.7-1.3,7.2-1.3c4.9,0,8.8,1.5,11.7,4.5
		c2.9,3,4.4,7.2,4.3,12.6C828.8,350.9,827.3,355.1,824.4,358.1z M828.8,295.3h-33.5v-45.7h32.6v7.7h-23.7v10.1h22.1v7.7h-22.1v12.4
		h24.6L828.8,295.3L828.8,295.3z"/>
	<path class="st7" d="M187.3,551.6c0-1.9,0.4-3.8,1.3-5.5c0.8-1.7,2-3.1,3.6-4.1c1.6-1,3.4-1.5,5.3-1.5c2.8-0.1,5.5,1.1,7.3,3.2
		c2,2.2,3,5.1,2.9,8.1c0.1,3-0.9,5.8-2.9,8.1c-1.8,2.1-4.5,3.2-7.3,3.2c-1.8,0-3.6-0.5-5.2-1.4c-1.6-0.9-2.9-2.2-3.7-3.9
		c-0.9-2-1.3-4.2-1.3-6.3l0,0L187.3,551.6z M192.6,551.9c-0.1,1.7,0.4,3.5,1.4,4.9c1.5,1.9,4.2,2.3,6.1,0.8c0.3-0.2,0.6-0.5,0.8-0.8
		c1-1.5,1.5-3.2,1.4-5c0.1-1.7-0.4-3.5-1.4-4.9c-1.5-1.9-4.2-2.3-6.1-0.8c-0.3,0.2-0.6,0.5-0.8,0.8C193,548.3,192.5,550,192.6,551.9
		L192.6,551.9L192.6,551.9z"/>
	<path class="st7" d="M209.9,556.6l5.3-0.9c0.2,2.1,2.1,3.6,4.2,3.4c0,0,0,0,0.1,0c1.1,0.1,2.2-0.2,3.1-0.8c0.5-0.4,0.7-0.9,0.7-1.5
		c0-0.4-0.1-0.8-0.4-1.1c-0.5-0.4-1.1-0.6-1.7-0.7c-4.2-1-6.9-2-8-2.8c-1.6-1.1-2.4-3-2.4-4.9c-0.1-1.7,0.6-3.4,1.8-4.6
		c1.3-1.3,3.4-1.9,6.3-1.9c2.7,0,4.7,0.5,6,1.4c1.4,1.1,2.3,2.6,2.7,4.3l-4.9,1c-0.2-0.8-0.6-1.4-1.2-1.9c-0.8-0.5-1.6-0.7-2.5-0.6
		c-1-0.1-2.1,0.1-3,0.6c-0.4,0.3-0.6,0.7-0.6,1.2c0,0.4,0.2,0.8,0.5,1c0.5,0.4,2.1,0.9,4.9,1.6c2.8,0.7,4.7,1.6,5.8,2.5
		c1.1,1.1,1.7,2.7,1.6,4.3c0,1.9-0.8,3.8-2.3,5.1c-1.5,1.4-3.7,2.1-6.7,2.1c-2.3,0.1-4.5-0.5-6.3-1.8
		C211.3,560.2,210.2,558.4,209.9,556.6L209.9,556.6L209.9,556.6z"/>
	<path class="st7" d="M232.8,541.2h4.9v3.2c0.6-1.1,1.5-2,2.5-2.6c1.1-0.7,2.3-1,3.6-1c2.3,0,4.4,1.1,5.8,2.9
		c1.6,1.9,2.4,4.7,2.4,8.2c0,3.5-0.8,6.3-2.4,8.4c-1.4,1.9-3.6,3-5.9,3c-1,0-2.1-0.2-3-0.7c-1.1-0.6-2-1.5-2.8-2.4v10.9h-5.3v-29.7
		l0,0H232.8z M237.9,551.6c0,2.4,0.5,4.2,1.4,5.3c0.7,1.1,1.9,1.7,3.2,1.7c1.2,0,2.3-0.6,3-1.6c0.8-1.1,1.2-2.8,1.2-5.3
		c0-2.3-0.5-3.9-1.3-5.1c-0.7-1-1.8-1.6-3.1-1.6c-1.3,0-2.4,0.6-3.2,1.6C238.2,548.1,237.7,549.8,237.9,551.6L237.9,551.6
		L237.9,551.6z"/>
	<path class="st7" d="M267.6,555.9l5.2,0.9c-0.5,1.9-1.6,3.6-3.2,4.8c-1.6,1.1-3.5,1.7-5.4,1.6c-3.4,0-6-1.2-7.6-3.7
		c-1.4-2.2-2.1-4.8-2-7.4c0-3.6,0.8-6.4,2.5-8.4c1.6-2,4-3.1,6.5-3c2.7-0.1,5.3,1.1,7,3.2c1.7,2.1,2.5,5.3,2.4,9.7h-13
		c0,1.4,0.4,2.8,1.3,3.9c0.7,0.9,1.8,1.5,3,1.4c0.8,0,1.5-0.2,2.1-0.7C267,557.5,267.5,556.7,267.6,555.9L267.6,555.9L267.6,555.9z
		 M267.8,550.1c0.1-1.4-0.3-2.7-1.2-3.8c-0.7-0.8-1.7-1.3-2.7-1.3c-1.1,0-2.1,0.5-2.8,1.4c-0.8,1.1-1.2,2.4-1.1,3.7H267.8
		L267.8,550.1z"/>
	<path class="st7" d="M295.5,562.7h-4.9v-3.2c-0.7,1.1-1.7,2.1-2.8,2.7c-1,0.6-2.2,0.9-3.4,0.9c-2.3,0-4.4-1.1-5.8-3
		c-1.6-2-2.4-4.8-2.4-8.3c0-3.6,0.8-6.3,2.4-8.3c1.4-1.8,3.7-2.9,6-2.8c2.3,0,4.4,1.1,5.7,3v-10.8h5.3V562.7L295.5,562.7
		L295.5,562.7z M281.5,551.4c-0.1,1.7,0.2,3.4,0.9,5c0.6,1.4,2,2.3,3.5,2.3c1.2,0,2.4-0.6,3.1-1.6c0.9-1.5,1.4-3.2,1.3-5
		c0-2.4-0.5-4.3-1.3-5.3c-1.2-1.7-3.6-2.2-5.3-1c-0.4,0.3-0.7,0.6-1,1C281.9,548.1,281.4,549.8,281.5,551.4L281.5,551.4L281.5,551.4
		z"/>
	<path class="st7" d="M304.5,547.7l-4.7-0.9c0.4-1.8,1.3-3.4,2.7-4.6c1.3-1,3.3-1.5,5.8-1.5c1.8-0.1,3.5,0.2,5.2,0.9
		c1,0.5,1.9,1.3,2.4,2.3c0.5,0.9,0.7,2.6,0.7,5.1v6.6c0,1.4,0.1,2.8,0.3,4.2c0.2,1,0.5,2,0.9,2.9h-5.2l-0.5-1.7l-0.2-0.6
		c-0.8,0.9-1.8,1.6-2.9,2.2c-1,0.5-2.1,0.7-3.3,0.7c-1.8,0.1-3.5-0.6-4.8-1.8c-1.2-1.2-1.8-2.9-1.7-4.5c0-1.1,0.3-2.3,0.8-3.3
		c0.5-0.9,1.3-1.7,2.3-2.2c1.3-0.6,2.7-1.1,4.2-1.4c1.7-0.3,3.4-0.7,5.1-1.4v-0.5c0.1-0.9-0.2-1.7-0.7-2.4c-0.8-0.6-1.8-0.8-2.8-0.7
		c-0.8,0-1.5,0.2-2.2,0.6C305.3,546.2,304.8,546.9,304.5,547.7L304.5,547.7L304.5,547.7z M311.5,552.3l-3.2,0.9
		c-1,0.2-1.9,0.5-2.8,1c-0.6,0.5-1,1.2-1,2c0,0.8,0.3,1.5,0.8,2.1c0.5,0.6,1.3,0.9,2.1,0.9c1,0,2-0.4,2.7-1c0.6-0.5,1.1-1.1,1.3-1.9
		c0.2-0.9,0.2-1.9,0.2-2.8L311.5,552.3L311.5,552.3L311.5,552.3z"/>
	<polygon class="st7" points="321.8,562.7 321.8,532.9 326.9,532.9 326.9,562.7 321.8,562.7 	"/>
	<path class="st7" d="M343.8,555.9l5.2,0.9c-0.5,1.9-1.6,3.6-3.2,4.8c-1.6,1.1-3.5,1.7-5.4,1.6c-3.4,0-6-1.2-7.6-3.7
		c-1.4-2.2-2.1-4.8-2-7.4c0-3.6,0.8-6.4,2.5-8.4c1.6-2,4-3.1,6.5-3c2.7-0.1,5.3,1.1,7,3.2c1.7,2.1,2.5,5.3,2.4,9.7h-13.1
		c0,1.4,0.4,2.8,1.3,3.9c0.7,0.9,1.8,1.5,3,1.4c0.8,0,1.5-0.2,2.1-0.7C343.2,557.5,343.6,556.7,343.8,555.9L343.8,555.9L343.8,555.9
		z M344.1,550.1c0.1-1.4-0.3-2.7-1.2-3.8c-1.2-1.5-3.5-1.7-5-0.5c-0.2,0.2-0.4,0.4-0.6,0.6c-0.8,1.1-1.2,2.4-1.1,3.7H344.1
		L344.1,550.1z"/>
	<path class="st7" d="M643.9,687.1l-5.1-12.7h3.5l2.4,6.4l0.7,2.2l0.4-1.1l0.4-1.1l2.4-6.4h3.4l-5.1,12.7H643.9L643.9,687.1z"/>
	<path class="st7" d="M654.1,672.7v-3.1h3.4v3.1H654.1z M654.1,687.1v-12.7h3.4v12.7H654.1z"/>
	<path class="st7" d="M663.3,678.3l-3.1-0.5c0.2-1.1,0.9-2,1.7-2.7c1.1-0.7,2.4-1,3.7-0.9c1.1-0.1,2.3,0.1,3.4,0.5
		c0.6,0.3,1.2,0.8,1.5,1.4c0.4,1,0.5,2,0.5,3v3.9c0,0.8,0,1.6,0.2,2.4c0.1,0.6,0.3,1.2,0.6,1.7h-3.4l-0.4-1v-0.4
		c-0.5,0.5-1.1,1-1.8,1.3c-0.7,0.3-1.4,0.4-2.1,0.5c-1.1,0.1-2.2-0.3-3.1-1.1c-0.7-0.7-1.1-1.7-1.1-2.7c0-0.7,0.2-1.3,0.5-1.9
		c0.3-0.6,0.9-1,1.4-1.3c0.8-0.4,1.7-0.7,2.6-0.8c1.1-0.2,2.2-0.4,3.3-0.8v-0.4c0.1-0.5-0.1-1-0.5-1.4c-0.5-0.3-1.2-0.5-1.8-0.5
		c-1-0.1-2,0.6-2.2,1.6l0,0H663.3z M667.8,681l-2.1,0.5c-0.6,0.1-1.2,0.3-1.8,0.5c-0.4,0.3-0.6,0.7-0.6,1.2c0,0.5,0.2,0.9,0.5,1.2
		c0.4,0.4,0.8,0.6,1.4,0.5c0.6,0,1.2-0.2,1.7-0.6c0.4-0.3,0.7-0.6,0.8-1.1c0.1-0.5,0.1-1.1,0.1-1.6V681L667.8,681L667.8,681z"/>
	<path class="st7" d="M707.5,677.6v-4.8h12.9v11.3c-1.6,1.4-3.4,2.4-5.4,3.1c-2.3,0.9-4.8,1.3-7.3,1.4c-2.8,0.1-5.6-0.6-8.2-1.9
		c-2.2-1.2-4-3.1-5.2-5.3c-1.2-2.3-1.7-4.9-1.7-7.5c-0.1-2.7,0.6-5.5,1.9-7.9c1.3-2.3,3.3-4.1,5.7-5.3c2.2-1,4.6-1.5,7.1-1.4
		c3.7,0,6.6,0.7,8.6,2.2c2.1,1.5,3.5,3.7,4,6.2l-6,1.1c-0.4-1.3-1.2-2.5-2.4-3.3c-1.3-0.8-2.8-1.3-4.3-1.2c-2.3-0.1-4.6,0.7-6.3,2.4
		c-1.6,1.6-2.3,3.9-2.3,7.1c0.1,3.1,0.8,5.7,2.4,7.6c1.6,1.7,3.8,2.6,6.2,2.5c1.3,0,2.6-0.3,3.8-0.7c1.2-0.4,2.3-1,3.3-1.7v-3.6
		L707.5,677.6L707.5,677.6z"/>
	<path class="st7" d="M738.3,681.5l5.7,0.9c-0.6,1.8-1.8,3.4-3.4,4.5c-1.8,1.1-3.8,1.6-5.9,1.5c-3.7,0-6.5-1.2-8.2-3.5
		c-1.5-2.1-2.2-4.5-2.1-7.1c0-3.4,0.9-6,2.8-8c1.8-1.9,4.4-3,7.1-2.9c2.8-0.1,5.6,0.9,7.5,3c1.9,2,2.7,5.1,2.6,9.2H730
		c0,1.4,0.4,2.7,1.4,3.7c0.9,0.9,2,1.4,3.3,1.4c0.8,0,1.6-0.2,2.3-0.7c0.7-0.6,1.2-1.4,1.4-2.3l0,0V681.5z M738.6,675.9
		c0.1-1.3-0.4-2.6-1.3-3.6c-1.7-1.7-4.4-1.6-6,0c0,0,0,0,0,0c-0.8,1-1.3,2.2-1.2,3.5H738.6z"/>
	<path class="st7" d="M748.4,667.4h5.3v2.8c1.6-2.1,4.1-3.3,6.7-3.3c1.3,0,2.5,0.2,3.6,0.8c1.1,0.6,1.9,1.4,2.5,2.4
		c0.9-1,1.9-1.8,3.1-2.4c1.1-0.5,2.3-0.8,3.5-0.8c1.4,0,2.8,0.3,4,0.9c1.1,0.6,2,1.6,2.4,2.7c0.5,1.4,0.6,2.8,0.5,4.3V688h-5.7
		v-11.8c0-2.1-0.2-3.4-0.5-4c-0.5-0.8-1.5-1.3-2.4-1.2c-0.8,0-1.6,0.3-2.3,0.7c-0.7,0.5-1.3,1.2-1.5,2.1c-0.4,1.4-0.5,2.8-0.5,4.3
		v9.9h-5.7v-11.2c0.1-1.3,0-2.6-0.3-3.9c-0.2-0.5-0.5-1-0.9-1.3c-0.5-0.3-1.1-0.5-1.7-0.5c-0.8,0-1.6,0.2-2.4,0.6
		c-0.7,0.5-1.3,1.2-1.5,2c-0.4,1.4-0.5,2.8-0.5,4.3v10h-5.7L748.4,667.4L748.4,667.4L748.4,667.4z"/>
	<path class="st7" d="M784.4,677.4c0-1.8,0.5-3.6,1.4-5.3c0.9-1.7,2.3-3,4-3.9c1.8-0.9,3.7-1.4,5.7-1.4c3-0.1,5.8,1,8,3
		c2,2,3.2,4.8,3.1,7.6c0.1,2.9-1.1,5.7-3.2,7.7c-2.1,2-4.9,3.2-7.9,3.1c-1.9,0-3.9-0.4-5.6-1.3c-1.7-0.8-3.1-2.1-4.1-3.7
		C784.8,681.4,784.3,679.4,784.4,677.4L784.4,677.4L784.4,677.4z M790.2,677.7c-0.1,1.7,0.4,3.4,1.5,4.7c1.9,2.1,5.1,2.2,7.2,0.3
		c0.1-0.1,0.2-0.2,0.3-0.3c1.1-1.3,1.6-3,1.5-4.7c0.1-1.7-0.4-3.3-1.5-4.6c-1.9-2.1-5.1-2.2-7.2-0.3c-0.1,0.1-0.2,0.2-0.3,0.3
		C790.6,674.3,790.1,676,790.2,677.7L790.2,677.7L790.2,677.7z"/>
	<path class="st7" d="M830.5,688h-5.7v-10.5c0.1-1.5,0-2.9-0.4-4.3c-0.2-0.6-0.6-1.2-1.2-1.5c-0.6-0.4-1.3-0.6-2-0.5
		c-0.9,0-1.9,0.3-2.6,0.8c-0.8,0.5-1.3,1.2-1.6,2.1c-0.4,1.5-0.5,3.1-0.5,4.7v9.3h-5.7v-20.6h5.3v3c1.7-2.2,4.3-3.5,7.1-3.4
		c1.2,0,2.3,0.2,3.4,0.6c0.9,0.3,1.7,0.9,2.4,1.6c0.5,0.7,0.9,1.4,1.1,2.3c0.3,1.2,0.4,2.4,0.4,3.6V688L830.5,688L830.5,688z"/>
	<path class="st7" d="M840.6,673.7l-5.2-0.9c0.4-1.8,1.5-3.4,3-4.4c1.5-1,3.5-1.4,6.3-1.4c1.9-0.1,3.9,0.2,5.7,0.9
		c1.1,0.4,2,1.2,2.6,2.2c0.5,0.9,0.7,2.5,0.7,4.9v6.3c0,1.3,0.1,2.7,0.3,4c0.2,0.9,0.5,1.9,1,2.7h-5.6l-0.5-1.6l-0.2-0.6
		c-0.9,0.8-1.9,1.5-3.1,2c-1.1,0.4-2.3,0.7-3.5,0.6c-1.9,0.1-3.8-0.5-5.3-1.7c-2.4-2.1-2.7-5.7-0.6-8.1c0.5-0.6,1.2-1.1,2-1.5
		c1.5-0.6,3-1,4.5-1.3c1.9-0.3,3.7-0.7,5.5-1.4v-0.5c0.1-0.8-0.2-1.7-0.8-2.3c-0.9-0.5-2-0.8-3.1-0.6c-0.8-0.1-1.6,0.1-2.4,0.5
		c-0.7,0.5-1.1,1.2-1.4,2l0,0L840.6,673.7z M848.2,678.1l-3.4,0.8c-1.1,0.1-2.1,0.5-3.1,0.9c-0.7,0.4-1.1,1.1-1.1,1.9
		c0,0.8,0.3,1.5,0.9,2c0.6,0.6,1.4,0.9,2.3,0.8c1,0,2.1-0.4,2.9-1c0.6-0.4,1.1-1.1,1.4-1.8c0.2-0.9,0.2-1.7,0.2-2.6V678.1
		L848.2,678.1L848.2,678.1z"/>
	<path class="st8" d="M385.6,609.9c28.7,0,52,23.3,52,52c0,28.7-23.3,52-52,52s-52-23.3-52-52C333.6,633.2,356.9,609.9,385.6,609.9
		L385.6,609.9z"/>
</g>
</svg>
