<?xml version="1.0" encoding="utf-8"?>
<!-- Generator: Adobe Illustrator 19.2.0, SVG Export Plug-In . SVG Version: 6.00 Build 0)  -->
<svg version="1.1" id="Livello_1" xmlns="http://www.w3.org/2000/svg" xmlns:xlink="http://www.w3.org/1999/xlink" x="0px" y="0px"
	 viewBox="0 0 960 960" style="enable-background:new 0 0 960 960;" xml:space="preserve">
<style type="text/css">
	.st0{fill:#FFFFFF;stroke:#1A171B;stroke-width:1.0654;stroke-miterlimit:2.6131;}
	.st1{fill:none;stroke:#1A171B;stroke-width:7.1028;stroke-miterlimit:2.6131;}
	.st2{fill-rule:evenodd;clip-rule:evenodd;fill:#005EA7;stroke:#005EA7;stroke-width:1.0654;stroke-miterlimit:2.6131;}
	.st3{fill-rule:evenodd;clip-rule:evenodd;fill:#1A171B;stroke:#1A171B;stroke-width:1.0654;stroke-miterlimit:2.6131;}
	.st4{fill-rule:evenodd;clip-rule:evenodd;fill:#FFFFFF;}
	.st5{fill:none;stroke:#FFFFFF;stroke-width:3.5514;stroke-miterlimit:2.6131;}
	.st6{fill:none;stroke:#1A171B;stroke-width:0.5219;stroke-miterlimit:2.6131;}
	.st7{fill:none;stroke:#1A171B;stroke-width:0.5574;stroke-miterlimit:2.6131;}
	.st8{fill:none;stroke:#1A171B;stroke-width:0.5569;stroke-miterlimit:2.6131;}
	.st9{fill-rule:evenodd;clip-rule:evenodd;fill:#1A171B;stroke:#1A171B;stroke-width:1.0491;stroke-miterlimit:2.6131;}
	.st10{fill-rule:evenodd;clip-rule:evenodd;fill:#008E43;stroke:#008E43;stroke-width:1.0654;stroke-miterlimit:2.6131;}
	.st11{fill-rule:evenodd;clip-rule:evenodd;fill:#1A171B;}
	.st12{fill-rule:evenodd;clip-rule:evenodd;fill:#008E43;stroke:#008E43;stroke-width:3.5514;stroke-miterlimit:2.6131;}
</style>
<g>
	<g>
		<polygon class="st0" points="45,198.5 915,198.5 915,761.5 45,761.5 45,198.5 		"/>
		<path class="st1" d="M96.6,212.9h766.7c20.6,0,37.2,18.2,37.2,37.2v459.6c0,19-18.2,37.2-37.2,37.2H96.6
			c-19,0-37.2-16.6-37.2-37.2V250.1C59.4,229.5,76.1,212.9,96.6,212.9L96.6,212.9z"/>
		<polygon class="st2" points="868.4,513.5 612.5,513.5 612.5,649.3 868.4,649.3 868.4,513.5 		"/>
		<path class="st3" d="M418.4,584.4l-21,0.2h-24.3l3.1,16.6c0,2.6-1.7,2.6-3.1,2.8l-47.3-27.8l47.3-27.6c1.8-0.2,2.8,0,3.1,2.6
			l-3.1,16.6h29.3c3.9-25.2,24.1-45.3,49.4-48.8v-31.1l-16.6,3.1c-2.6-0.2-2.8-1.3-2.6-3.1l27.6-47.3l27.8,47.3
			c-0.2,1.3-0.2,3.1-2.8,3.1l-16.6-3.1v31.1c24.9,3.7,44.6,23.6,48.6,48.6h30.8l-3.1-16.6c0.4-2.6,1.3-2.6,3.1-2.6l47.3,27.6
			l-47.3,28c-1.3-0.4-3.1-0.4-3.1-3.1l3.1-16.6h-30.6c-3.3,25.4-23.4,45.7-48.8,49.7v60.6h-16.6l-0.2-60.6v-15.8l8.3-0.2
			c23,0,41.6-18.6,41.6-41.6c0-23-18.6-41.6-41.6-41.6c-23,0-41.6,18.6-41.6,41.6V584.4L418.4,584.4z"/>
		<path class="st4" d="M651.8,552.7c-0.7-1.3-1.7-2.2-2.9-3c-1.2-0.7-3.2-1.4-5.8-2.1c-2.6-0.7-4.3-1.3-4.9-2
			c-0.5-0.5-0.8-1.1-0.8-1.8c0-0.8,0.3-1.4,0.9-1.8c0.9-0.7,2.1-1.1,3.7-1.1c1.5,0,2.6,0.3,3.4,1c0.8,0.7,1.2,1.7,1.5,3.2l5.4-0.3
			c-0.1-2.7-1-4.8-2.6-6.5c-1.7-1.6-4.2-2.4-7.5-2.4c-2,0-3.8,0.3-5.2,1c-1.4,0.7-2.5,1.7-3.3,3c-0.8,1.3-1.1,2.7-1.1,4.2
			c0,2.3,0.8,4.3,2.4,5.9c1.2,1.1,3.2,2.1,6,2.9c2.2,0.6,3.7,1,4.3,1.3c0.9,0.4,1.6,0.8,1.9,1.3c0.4,0.5,0.6,1.1,0.6,1.8
			c0,1.1-0.4,2-1.3,2.8c-0.9,0.8-2.2,1.2-3.9,1.2c-1.6,0-2.9-0.5-3.9-1.4c-1-0.9-1.6-2.3-1.9-4.3l-5.2,0.6c0.3,3.3,1.4,5.8,3.2,7.5
			c1.8,1.7,4.4,2.6,7.7,2.6c2.3,0,4.2-0.4,5.8-1.1c1.5-0.7,2.7-1.8,3.6-3.3c0.8-1.5,1.3-3,1.3-4.7
			C652.8,555.5,652.5,553.9,651.8,552.7z"/>
		<polygon class="st4" points="657.3,565.9 657.3,560.3 662.4,560.3 662.4,565.9 657.3,565.9 		"/>
		<polygon class="st4" points="678.1,565.9 678.1,536.8 683.5,536.8 683.5,560.9 696.8,560.9 696.8,565.9 678.1,565.9 		"/>
		<path class="st4" d="M724.6,565.9h-5.8l-2.3-6.7h-10.6l-2.2,6.7h-5.7l10.3-29.3h5.7L724.6,565.9L724.6,565.9z M714.7,554.3
			l-3.7-10.9l-3.6,10.9H714.7L714.7,554.3z"/>
		<polygon class="st4" points="725.1,565.9 725.1,560.6 739.1,541.6 726.7,541.6 726.7,536.6 746.1,536.6 746.1,541.2 731.6,560.9 
			746.7,560.9 746.7,565.9 725.1,565.9 		"/>
		<polygon class="st4" points="747.8,565.9 747.8,560.6 761.7,541.6 749.4,541.6 749.4,536.6 768.8,536.6 768.8,541.2 754.3,560.9 
			769.4,560.9 769.4,565.9 747.8,565.9 		"/>
		<path class="st4" d="M796.7,565.9h-5.8l-2.3-6.7h-10.6l-2.2,6.7H770l10.3-29.3h5.7L796.7,565.9L796.7,565.9z M786.8,554.3
			l-3.7-10.9l-3.6,10.9H786.8L786.8,554.3z"/>
		<path class="st4" d="M799.5,565.9v-29.3h11.3c2.8,0,4.9,0.3,6.2,0.8c1.3,0.5,2.3,1.5,3.1,2.8c0.8,1.3,1.2,2.9,1.2,4.6
			c0,2.2-0.6,4-1.8,5.4c-1.2,1.4-2.9,2.3-5.3,2.7c1.2,0.7,2.1,1.6,2.9,2.5c0.8,0.9,1.8,2.5,3,4.7l3.2,5.7H817l-3.9-6.4
			c-1.4-2.3-2.3-3.7-2.8-4.3c-0.5-0.6-1-1-1.6-1.2c-0.6-0.2-1.5-0.3-2.7-0.3h-1.1v12.2H799.5L799.5,565.9z M804.9,549h4
			c2.6,0,4.2-0.1,4.8-0.4c0.6-0.2,1.1-0.7,1.5-1.2c0.4-0.6,0.5-1.3,0.5-2.2c0-1-0.2-1.8-0.7-2.4c-0.5-0.6-1.2-1-2-1.2
			c-0.4-0.1-1.7-0.1-3.9-0.1h-4.2V549L804.9,549z"/>
		<path class="st4" d="M825.2,551.4c0-3,0.4-5.5,1.2-7.5c0.6-1.5,1.4-2.8,2.5-4c1-1.2,2.2-2.1,3.4-2.6c1.7-0.8,3.6-1.2,5.7-1.2
			c3.9,0,7,1.3,9.4,4c2.4,2.7,3.5,6.4,3.5,11.2c0,4.7-1.2,8.4-3.5,11.1c-2.3,2.7-5.4,4-9.3,4c-3.9,0-7.1-1.3-9.4-4
			C826.4,559.7,825.2,556.1,825.2,551.4L825.2,551.4z M830.7,551.2c0,3.3,0.7,5.8,2.1,7.5c1.4,1.7,3.2,2.6,5.3,2.6
			c2.1,0,3.9-0.8,5.3-2.5c1.4-1.7,2.1-4.2,2.1-7.6c0-3.4-0.7-5.9-2-7.5c-1.3-1.6-3.1-2.5-5.3-2.5c-2.2,0-4,0.8-5.3,2.5
			C831.4,545.3,830.7,547.8,830.7,551.2L830.7,551.2z"/>
		<polygon class="st4" points="721.8,625.8 721.8,596.1 741.3,596.1 741.3,601.1 727.6,601.1 727.6,608.1 739.4,608.1 739.4,613.1 
			727.6,613.1 727.6,625.8 721.8,625.8 		"/>
		<path class="st4" d="M744.9,611.1c0-3,0.4-5.6,1.3-7.6c0.7-1.5,1.5-2.9,2.6-4.1c1.1-1.2,2.3-2.1,3.7-2.7c1.8-0.8,3.8-1.2,6.1-1.2
			c4.2,0,7.5,1.4,10,4.1c2.5,2.7,3.8,6.5,3.8,11.3c0,4.8-1.3,8.5-3.7,11.3c-2.5,2.7-5.8,4.1-10,4.1c-4.2,0-7.6-1.3-10.1-4
			C746.1,619.5,744.9,615.8,744.9,611.1L744.9,611.1z M750.8,610.9c0,3.4,0.7,5.9,2.2,7.7c1.5,1.7,3.4,2.6,5.7,2.6
			c2.3,0,4.2-0.9,5.6-2.6c1.5-1.7,2.2-4.3,2.2-7.8c0-3.4-0.7-5.9-2.1-7.6c-1.4-1.7-3.3-2.5-5.7-2.5c-2.4,0-4.3,0.9-5.7,2.5
			C751.5,604.9,750.8,607.5,750.8,610.9L750.8,610.9z"/>
		<path class="st4" d="M776.9,625.8v-29.7H789c3,0,5.2,0.3,6.6,0.8c1.4,0.5,2.5,1.5,3.3,2.8c0.8,1.4,1.2,2.9,1.2,4.7
			c0,2.2-0.6,4.1-1.9,5.5c-1.3,1.4-3.1,2.4-5.6,2.7c1.2,0.8,2.3,1.6,3.1,2.5c0.8,0.9,1.9,2.5,3.3,4.8l3.5,5.8h-6.9l-4.1-6.5
			c-1.5-2.3-2.5-3.8-3-4.4c-0.5-0.6-1.1-1-1.7-1.2c-0.6-0.2-1.6-0.3-2.9-0.3h-1.2v12.4H776.9L776.9,625.8z M782.7,608.6h4.2
			c2.8,0,4.5-0.1,5.2-0.4c0.7-0.2,1.2-0.7,1.6-1.3c0.4-0.6,0.6-1.3,0.6-2.2c0-1-0.3-1.8-0.8-2.4c-0.5-0.6-1.2-1-2.2-1.2
			c-0.5-0.1-1.9-0.1-4.2-0.1h-4.5V608.6L782.7,608.6z"/>
		<polygon class="st4" points="805.7,625.8 805.7,596.3 811.5,596.3 811.5,620.8 825.7,620.8 825.7,625.8 805.7,625.8 		"/>
		<polygon class="st4" points="829.7,625.8 829.7,596.1 835.4,596.1 835.4,625.8 829.7,625.8 		"/>
		<polygon class="st4" points="840.8,606.6 839.8,601.1 839.8,596.1 845.7,596.1 845.7,601.1 844.8,606.6 840.8,606.6 		"/>
		<path class="st4" d="M660.7,613.4l2.9-0.4c0.2,1.4,0.6,2.5,0.8,3.3c0.6,0.5,1.3,0.9,2.1,0.9c1.2,0,1.7-0.4,2.3-0.7
			c0.2-0.7,0.8-1.4,0.8-2.2s-0.2-0.9-0.6-1.3c-0.2-0.5-0.4-0.7-1-1.3c-0.2-0.2-0.8-0.4-2.1-0.9c-1.5-0.4-2.5-1.3-3.3-2
			c-0.8-1.4-1.2-2.9-1.2-4.7c0-1.1,0.2-2.2,0.6-3.1c0.4-1.1,1.2-1.6,1.7-2.4c0.6-0.5,1.7-0.7,2.7-0.7c1.7,0,3.3,0.5,4,1.8
			c1,1.4,1.3,3.1,1.3,5.1L669,605c-0.2-1.1-0.2-2-0.8-2.5c-0.2-0.4-1-0.7-1.7-0.7c-0.8,0-1.5,0.4-1.9,0.7c-0.2,0.5-0.4,0.9-0.4,1.4
			c0,0.7,0.2,1.1,0.4,1.4c0.4,0.4,1.3,0.9,2.7,1.4c1.3,0.5,2.5,1.1,3.1,1.6c0.4,0.5,1.2,1.3,1.5,2.3c0.4,0.7,0.6,2,0.6,3.4
			c0,1.1-0.4,2.5-0.8,3.4c-0.4,1.1-1.2,2.2-1.9,2.5c-1,0.5-1.7,0.7-3.1,0.7c-1.9,0-3.3-0.5-4.2-1.8
			C661.7,617.7,660.9,616.1,660.7,613.4L660.7,613.4z"/>
		<path class="st4" d="M647.6,613.4l2.7-0.4c0.2,1.4,0.4,2.5,1.2,3.3c0.2,0.5,1,0.9,1.9,0.9s1.7-0.4,2.1-0.7
			c0.6-0.7,0.6-1.4,0.6-2.2s0-0.9-0.2-1.3c-0.2-0.5-0.6-0.7-1.2-1.3c-0.2-0.2-1-0.4-2.3-0.9c-1.2-0.4-2.5-1.3-2.9-2
			c-1-1.4-1.3-2.9-1.3-4.7c0-1.1,0.2-2.2,0.6-3.1c0.4-1.1,1-1.6,1.7-2.4c1-0.5,1.7-0.7,2.9-0.7c1.7,0,2.9,0.5,3.8,1.8
			c1,1.4,1.3,3.1,1.5,5.1l-2.9,0.2c-0.2-1.1-0.4-2-0.6-2.5c-0.8-0.4-1.2-0.7-1.9-0.7c-1,0-1.5,0.4-1.9,0.7c-0.2,0.5-0.4,0.9-0.4,1.4
			c0,0.7,0.2,1.1,0.4,1.4c0.2,0.4,1,0.9,2.5,1.4c1.3,0.5,2.3,1.1,2.9,1.6c1,0.5,1.3,1.3,1.7,2.3c0.2,0.7,0.6,2,0.6,3.4
			c0,1.1-0.4,2.5-0.8,3.4c-0.4,1.1-1,2.2-1.9,2.5c-0.8,0.5-1.9,0.7-3.1,0.7c-1.7,0-3.1-0.5-4-1.8
			C648.4,617.7,647.8,616.1,647.6,613.4L647.6,613.4z"/>
		<path class="st5" d="M647.5,588.1h45c5.7,0,10.4,4.7,10.4,10.4v21.6c0,5.7-4.7,10.4-10.4,10.4h-45c-5.7,0-10.4-4.7-10.4-10.4
			v-21.6C637.1,592.8,641.8,588.1,647.5,588.1L647.5,588.1z"/>
		<path class="st6" d="M113.6,667c11.1,0,20.2,9.1,20.2,20.2c0,11.1-9.1,20.2-20.2,20.2c-11.1,0-20.2-9.1-20.2-20.2
			C93.4,676.1,102.5,667,113.6,667L113.6,667z"/>
		<path class="st7" d="M113.8,670.6c9.2,0,16.8,7.5,16.8,16.8c0,9.2-7.5,16.8-16.8,16.8c-9.2,0-16.8-7.5-16.8-16.8
			C97,678.1,104.5,670.6,113.8,670.6L113.8,670.6z"/>
		<path class="st8" d="M113.6,673.9c7.4,0,13.4,6,13.4,13.4c0,7.4-6,13.4-13.4,13.4c-7.4,0-13.4-6-13.4-13.4
			C100.3,679.9,106.3,673.9,113.6,673.9L113.6,673.9z"/>
		<path class="st9" d="M113.6,680.2c3.9,0,7,3.2,7,7c0,3.9-3.2,7-7,7c-3.9,0-7-3.2-7-7C106.6,683.3,109.7,680.2,113.6,680.2
			L113.6,680.2z"/>
		<polygon class="st10" points="251.7,245.3 706,245.3 706,422.2 251.7,422.2 251.7,245.3 		"/>
		<path class="st11" d="M164.9,686l-3.9,0.7c-0.1-0.8-0.4-1.4-0.9-1.8c-0.5-0.4-1.1-0.6-1.8-0.6c-1,0-1.8,0.3-2.4,1
			c-0.6,0.7-0.9,1.8-0.9,3.4c0,1.8,0.3,3,0.9,3.8c0.6,0.7,1.4,1.1,2.4,1.1c0.8,0,1.4-0.2,1.8-0.6c0.5-0.4,0.8-1.2,1-2.2l3.9,0.7
			c-0.4,1.8-1.2,3.1-2.3,4c-1.1,0.9-2.7,1.4-4.6,1.4c-2.2,0-3.9-0.7-5.2-2.1c-1.3-1.4-2-3.3-2-5.7c0-2.5,0.7-4.4,2-5.8
			c1.3-1.4,3.1-2.1,5.3-2.1c1.8,0,3.3,0.4,4.3,1.2C163.6,683.2,164.4,684.4,164.9,686L164.9,686z"/>
		<path class="st11" d="M176.5,691.8l3.9,0.7c-0.5,1.5-1.3,2.5-2.4,3.3c-1.1,0.8-2.5,1.1-4.1,1.1c-2.6,0-4.5-0.8-5.8-2.5
			c-1-1.4-1.5-3.1-1.5-5.1c0-2.5,0.6-4.4,1.9-5.8c1.3-1.4,2.9-2.1,4.9-2.1c2.2,0,4,0.7,5.3,2.2c1.3,1.5,1.9,3.7,1.8,6.8h-9.9
			c0,1.2,0.3,2.1,1,2.7c0.6,0.7,1.4,1,2.3,1c0.6,0,1.1-0.2,1.6-0.5C176,693.1,176.3,692.6,176.5,691.8L176.5,691.8z M176.8,687.8
			c0-1.1-0.3-2-0.9-2.6c-0.6-0.6-1.2-0.9-2.1-0.9c-0.9,0-1.6,0.3-2.1,0.9c-0.6,0.6-0.8,1.5-0.8,2.6H176.8L176.8,687.8z"/>
		<path class="st11" d="M197.5,696.6h-4v-7.6c0-1.6-0.1-2.7-0.3-3.1c-0.2-0.5-0.4-0.8-0.8-1.1c-0.4-0.3-0.8-0.4-1.4-0.4
			c-0.7,0-1.3,0.2-1.8,0.6c-0.5,0.4-0.9,0.9-1.1,1.5c-0.2,0.6-0.3,1.8-0.3,3.4v6.8h-4v-15h3.7v2.2c1.3-1.7,3-2.5,4.9-2.5
			c0.9,0,1.7,0.2,2.4,0.5c0.7,0.3,1.3,0.7,1.6,1.2c0.4,0.5,0.6,1,0.8,1.7c0.1,0.6,0.2,1.5,0.2,2.7V696.6L197.5,696.6z"/>
		<path class="st11" d="M208.4,681.6v3.2h-2.7v6c0,1.2,0,1.9,0.1,2.1c0.1,0.2,0.2,0.4,0.4,0.5c0.2,0.1,0.4,0.2,0.7,0.2
			c0.4,0,0.9-0.1,1.6-0.4l0.3,3.1c-0.9,0.4-2,0.6-3.1,0.6c-0.7,0-1.4-0.1-1.9-0.4c-0.6-0.2-1-0.6-1.3-0.9c-0.3-0.4-0.5-0.9-0.6-1.5
			c-0.1-0.5-0.1-1.4-0.1-2.8v-6.5h-1.8v-3.2h1.8v-3l4-2.3v5.3H208.4L208.4,681.6z"/>
		<path class="st11" d="M214.9,696.6h-4v-15h3.7v2.1c0.6-1,1.2-1.7,1.7-2c0.5-0.3,1.1-0.5,1.7-0.5c0.9,0,1.8,0.3,2.6,0.8l-1.2,3.4
			c-0.7-0.4-1.3-0.6-1.9-0.6c-0.6,0-1,0.1-1.4,0.5c-0.4,0.3-0.7,0.9-0.9,1.7c-0.2,0.8-0.3,2.5-0.3,5V696.6L214.9,696.6z"/>
		<path class="st11" d="M221.4,688.9c0-1.3,0.3-2.6,1-3.8c0.6-1.2,1.6-2.2,2.8-2.8c1.2-0.7,2.5-1,4-1c2.3,0,4.1,0.7,5.6,2.2
			c1.4,1.5,2.2,3.3,2.2,5.6c0,2.3-0.7,4.1-2.2,5.6c-1.5,1.5-3.3,2.2-5.5,2.2c-1.4,0-2.7-0.3-3.9-0.9c-1.2-0.6-2.2-1.5-2.8-2.7
			C221.8,692.1,221.4,690.6,221.4,688.9L221.4,688.9z M225.5,689.1c0,1.5,0.3,2.6,1.1,3.4c0.7,0.8,1.6,1.2,2.6,1.2
			c1,0,1.9-0.4,2.6-1.2c0.7-0.8,1.1-1.9,1.1-3.4c0-1.5-0.4-2.6-1.1-3.4c-0.7-0.8-1.6-1.2-2.6-1.2c-1,0-1.9,0.4-2.6,1.2
			C225.9,686.5,225.5,687.6,225.5,689.1L225.5,689.1z"/>
		<path class="st4" d="M679.8,615.3l3.1-0.5c0.1,0.8,0.3,1.5,0.6,1.9c0.3,0.4,0.7,0.6,1.3,0.6c0.7,0,1.2-0.4,1.7-1.2
			c0.5-0.8,0.8-2.5,0.9-5.1c-0.8,1.3-1.8,1.9-3,1.9c-1.3,0-2.5-0.7-3.4-2c-1-1.4-1.4-3.1-1.4-5.3c0-2.3,0.5-4.1,1.5-5.5
			c1-1.4,2.3-2.1,3.9-2.1c1.7,0,3.1,0.9,4.2,2.6c1.1,1.8,1.6,4.6,1.6,8.7c0,4.1-0.6,7-1.7,8.9c-1.1,1.8-2.6,2.7-4.5,2.7
			c-1.3,0-2.4-0.5-3.2-1.4C680.6,618.5,680,617.1,679.8,615.3L679.8,615.3z M687.1,605.9c0-1.4-0.2-2.5-0.7-3.2
			c-0.5-0.8-1-1.2-1.7-1.2c-0.6,0-1.1,0.3-1.5,0.9c-0.4,0.6-0.6,1.7-0.6,3.1c0,1.4,0.2,2.5,0.6,3.2c0.4,0.7,1,1,1.6,1
			c0.6,0,1.1-0.3,1.6-1C686.9,608.1,687.1,607.1,687.1,605.9L687.1,605.9z"/>
		<path class="st4" d="M306.8,272.3v8.3h-6.7v15.9c0,3.2,0.1,5.1,0.2,5.6c0.1,0.5,0.4,1,0.9,1.3c0.5,0.3,1,0.5,1.6,0.5
			c0.9,0,2.2-0.3,3.9-1l0.8,8.1c-2.3,1-4.8,1.6-7.7,1.6c-1.8,0-3.3-0.3-4.8-0.9c-1.4-0.6-2.4-1.5-3.1-2.5c-0.7-1-1.1-2.4-1.4-4.1
			c-0.2-1.2-0.3-3.7-0.3-7.4v-17.2h-4.5v-8.3h4.5v-7.8l9.8-6.1v13.9H306.8L306.8,272.3z"/>
		<path class="st4" d="M320.9,284.4l-8.9-1.7c1-3.8,2.7-6.6,5.1-8.5c2.4-1.8,6.1-2.8,10.9-2.8c4.4,0,7.6,0.6,9.8,1.7
			c2.1,1.1,3.6,2.5,4.5,4.2c0.9,1.7,1.3,4.8,1.3,9.3l-0.1,12.2c0,3.5,0.2,6,0.5,7.7c0.3,1.6,0.9,3.4,1.8,5.3H336
			c-0.2-0.7-0.6-1.7-0.9-3.1c-0.2-0.6-0.3-1-0.3-1.2c-1.7,1.7-3.5,3-5.4,3.9c-1.9,0.9-3.9,1.3-6.1,1.3c-3.8,0-6.8-1.1-9-3.3
			c-2.2-2.2-3.3-5-3.3-8.4c0-2.2,0.5-4.2,1.5-6c1-1.8,2.4-3.1,4.2-4c1.8-0.9,4.4-1.7,7.8-2.4c4.6-0.9,7.7-1.8,9.5-2.6v-1
			c0-2-0.5-3.4-1.4-4.3c-0.9-0.8-2.7-1.3-5.3-1.3c-1.7,0-3.1,0.4-4.1,1.1C322.3,281.3,321.5,282.5,320.9,284.4L320.9,284.4z
			 M334,292.8c-1.2,0.4-3.2,1-6,1.6c-2.7,0.6-4.5,1.2-5.3,1.8c-1.3,1-1.9,2.2-1.9,3.7c0,1.5,0.5,2.7,1.5,3.8c1,1.1,2.3,1.6,3.9,1.6
			c1.8,0,3.4-0.6,5.1-1.9c1.2-0.9,2-2.1,2.3-3.5c0.3-0.9,0.4-2.6,0.4-5.1V292.8L334,292.8z"/>
		<path class="st4" d="M386.9,311.8h-9.8v-20.1c0-4.3-0.2-7-0.6-8.3c-0.4-1.2-1.1-2.2-2-2.9c-0.9-0.7-2.1-1-3.4-1
			c-1.7,0-3.2,0.5-4.6,1.5c-1.3,1-2.3,2.3-2.8,3.9c-0.5,1.6-0.7,4.7-0.7,9.1v17.9h-9.8v-39.4h9.1v5.8c3.2-4.5,7.3-6.7,12.2-6.7
			c2.2,0,4.1,0.4,5.9,1.2c1.8,0.8,3.1,1.9,4.1,3.2c0.9,1.3,1.6,2.8,1.9,4.4c0.4,1.6,0.5,4,0.5,7V311.8L386.9,311.8z"/>
		<path class="st4" d="M395.9,314.4l11.2,1.4c0.2,1.4,0.6,2.3,1.3,2.9c0.9,0.7,2.4,1.1,4.4,1.1c2.6,0,4.5-0.4,5.7-1.2
			c0.9-0.5,1.5-1.4,1.9-2.6c0.3-0.9,0.5-2.5,0.5-4.8v-5.8c-2.9,4.3-6.6,6.4-11.1,6.4c-5,0-8.9-2.2-11.8-6.7
			c-2.3-3.6-3.4-7.9-3.4-13.2c0-6.6,1.5-11.7,4.5-15.2c3-3.5,6.7-5.2,11.1-5.2c4.6,0,8.3,2.1,11.3,6.4v-5.5h9.1v35.4
			c0,4.7-0.4,8.1-1.1,10.4c-0.7,2.3-1.7,4.1-3,5.4c-1.3,1.3-3,2.3-5.2,3.1c-2.2,0.7-4.9,1.1-8.2,1.1c-6.3,0-10.7-1.2-13.3-3.4
			c-2.6-2.3-3.9-5.2-3.9-8.7C395.8,315.3,395.9,314.9,395.9,314.4L395.9,314.4z M404.6,291.2c0,4.2,0.8,7.2,2.3,9.2
			c1.5,1.9,3.4,2.9,5.6,2.9c2.4,0,4.4-1,6.1-3c1.6-2,2.5-4.9,2.5-8.9c0-4.1-0.8-7.1-2.4-9.1c-1.6-2-3.6-3-6-3c-2.4,0-4.3,1-5.8,2.9
			C405.4,284.3,404.6,287.2,404.6,291.2L404.6,291.2z"/>
		<path class="st4" d="M461.7,299.2l9.8,1.7c-1.3,3.8-3.2,6.7-5.9,8.7c-2.7,2-6.1,3-10.1,3c-6.4,0-11.2-2.2-14.3-6.7
			c-2.4-3.6-3.7-8.1-3.7-13.6c0-6.5,1.6-11.7,4.8-15.4c3.2-3.7,7.2-5.6,12.1-5.6c5.5,0,9.8,1.9,13,5.8c3.2,3.9,4.7,9.8,4.6,17.8
			h-24.5c0.1,3.1,0.9,5.5,2.4,7.2c1.5,1.7,3.4,2.6,5.6,2.6c1.5,0,2.8-0.4,3.9-1.3C460.4,302.6,461.2,301.2,461.7,299.2L461.7,299.2z
			 M462.3,288.7c-0.1-3-0.8-5.3-2.2-6.9c-1.4-1.6-3.1-2.4-5.1-2.4c-2.1,0-3.9,0.8-5.3,2.5c-1.4,1.6-2.1,3.9-2.1,6.8H462.3
			L462.3,288.7z"/>
		<path class="st4" d="M513.6,311.8h-9.8v-20.1c0-4.3-0.2-7-0.6-8.3c-0.4-1.2-1.1-2.2-2-2.9c-0.9-0.7-2.1-1-3.4-1
			c-1.7,0-3.2,0.5-4.6,1.5c-1.3,1-2.3,2.3-2.8,3.9c-0.5,1.6-0.7,4.7-0.7,9.1v17.9h-9.8v-39.4h9.1v5.8c3.2-4.5,7.3-6.7,12.2-6.7
			c2.2,0,4.1,0.4,5.9,1.2c1.8,0.8,3.1,1.9,4.1,3.2c0.9,1.3,1.6,2.8,1.9,4.4c0.4,1.6,0.5,4,0.5,7V311.8L513.6,311.8z"/>
		<path class="st4" d="M519.6,311.8v-8.1l13.8-17c2.3-2.8,4-4.7,5-5.9c-1.1,0.1-2.6,0.1-4.5,0.1l-13.1,0.1v-8.6h30.6v7.4l-14.1,17.4
			l-5,5.8c2.7-0.2,4.4-0.3,5.1-0.3h15.1v9.2H519.6L519.6,311.8z"/>
		<path class="st4" d="M559.1,267v-9.7h9.8v9.7H559.1L559.1,267z M559.1,311.8v-39.4h9.8v39.4H559.1L559.1,311.8z"/>
		<path class="st4" d="M586.3,284.4l-8.9-1.7c1-3.8,2.7-6.6,5.1-8.5c2.4-1.8,6.1-2.8,10.9-2.8c4.4,0,7.6,0.6,9.8,1.7
			c2.1,1.1,3.6,2.5,4.5,4.2c0.9,1.7,1.3,4.8,1.3,9.3l-0.1,12.2c0,3.5,0.2,6,0.5,7.7c0.3,1.6,0.9,3.4,1.8,5.3h-9.7
			c-0.2-0.7-0.6-1.7-0.9-3.1c-0.1-0.6-0.3-1-0.3-1.2c-1.7,1.7-3.5,3-5.4,3.9c-1.9,0.9-3.9,1.3-6.1,1.3c-3.8,0-6.8-1.1-9-3.3
			c-2.2-2.2-3.3-5-3.3-8.4c0-2.2,0.5-4.2,1.5-6c1-1.8,2.4-3.1,4.2-4c1.8-0.9,4.4-1.7,7.8-2.4c4.6-0.9,7.7-1.8,9.5-2.6v-1
			c0-2-0.5-3.4-1.4-4.3c-0.9-0.8-2.7-1.3-5.3-1.3c-1.7,0-3.1,0.4-4.1,1.1C587.7,281.3,586.9,282.5,586.3,284.4L586.3,284.4z
			 M599.3,292.8c-1.2,0.4-3.2,1-6,1.6c-2.7,0.6-4.5,1.2-5.3,1.8c-1.3,1-1.9,2.2-1.9,3.7c0,1.5,0.5,2.7,1.5,3.8
			c1,1.1,2.3,1.6,3.9,1.6c1.8,0,3.4-0.6,5.1-1.9c1.2-0.9,2-2.1,2.3-3.5c0.3-0.9,0.4-2.6,0.4-5.1V292.8L599.3,292.8z"/>
		<polygon class="st4" points="618.6,311.8 618.6,257.3 628.4,257.3 628.4,311.8 618.6,311.8 		"/>
		<path class="st4" d="M659.8,299.2l9.7,1.7c-1.3,3.8-3.2,6.7-5.9,8.7c-2.7,2-6.1,3-10.1,3c-6.4,0-11.2-2.2-14.3-6.7
			c-2.4-3.6-3.7-8.1-3.7-13.6c0-6.5,1.6-11.7,4.8-15.4c3.2-3.7,7.2-5.6,12.1-5.6c5.5,0,9.8,1.9,13,5.8c3.2,3.9,4.7,9.8,4.6,17.8
			h-24.5c0.1,3.1,0.9,5.5,2.4,7.2c1.5,1.7,3.4,2.6,5.6,2.6c1.5,0,2.8-0.4,3.9-1.3C658.5,302.6,659.3,301.2,659.8,299.2L659.8,299.2z
			 M660.4,288.7c-0.1-3-0.8-5.3-2.2-6.9c-1.4-1.6-3.1-2.4-5.1-2.4c-2.1,0-3.9,0.8-5.3,2.5c-1.4,1.6-2.1,3.9-2.1,6.8H660.4
			L660.4,288.7z"/>
		<path class="st4" d="M276.7,365.3l-6.4-1.2c0.7-2.6,2-4.6,3.7-5.8c1.8-1.3,4.4-1.9,7.9-1.9c3.2,0,5.5,0.4,7.1,1.1
			c1.5,0.8,2.6,1.7,3.3,2.9c0.6,1.2,0.9,3.3,0.9,6.4l-0.1,8.4c0,2.4,0.1,4.2,0.3,5.3c0.2,1.1,0.7,2.4,1.3,3.6h-7
			c-0.2-0.5-0.4-1.2-0.7-2.1c-0.1-0.4-0.2-0.7-0.3-0.9c-1.2,1.2-2.5,2.1-3.9,2.7c-1.4,0.6-2.9,0.9-4.4,0.9c-2.8,0-4.9-0.8-6.5-2.3
			c-1.6-1.5-2.4-3.4-2.4-5.8c0-1.5,0.4-2.9,1.1-4.1c0.7-1.2,1.7-2.1,3-2.8c1.3-0.6,3.2-1.2,5.7-1.7c3.3-0.6,5.6-1.2,6.9-1.8v-0.7
			c0-1.4-0.3-2.4-1-3c-0.7-0.6-1.9-0.9-3.8-0.9c-1.3,0-2.3,0.3-3,0.8C277.7,363.1,277.2,364,276.7,365.3L276.7,365.3z M286.2,371.1
			c-0.9,0.3-2.3,0.7-4.3,1.1c-2,0.4-3.3,0.8-3.9,1.2c-0.9,0.7-1.4,1.5-1.4,2.5c0,1,0.4,1.9,1.1,2.6c0.7,0.7,1.7,1.1,2.8,1.1
			c1.3,0,2.5-0.4,3.7-1.3c0.9-0.6,1.4-1.4,1.7-2.4c0.2-0.6,0.3-1.8,0.3-3.5V371.1L286.2,371.1z"/>
		<path class="st4" d="M317.9,384.2v-4.1c-1,1.5-2.3,2.6-3.9,3.4c-1.6,0.8-3.3,1.2-5,1.2c-1.8,0-3.4-0.4-4.9-1.2
			c-1.4-0.8-2.5-1.9-3.1-3.4c-0.6-1.5-1-3.5-1-6V357h7.1v12.5c0,3.8,0.1,6.2,0.4,7c0.3,0.9,0.7,1.5,1.4,2c0.7,0.5,1.6,0.8,2.6,0.8
			c1.2,0,2.3-0.3,3.3-1c1-0.7,1.6-1.5,2-2.5c0.4-1,0.5-3.5,0.5-7.3V357h7.1v27.2H317.9L317.9,384.2z"/>
		<path class="st4" d="M344.2,357v5.7h-4.9v11c0,2.2,0,3.5,0.1,3.9c0.1,0.4,0.3,0.7,0.6,0.9c0.3,0.2,0.7,0.4,1.2,0.4
			c0.7,0,1.6-0.2,2.9-0.7l0.6,5.6c-1.7,0.7-3.5,1.1-5.6,1.1c-1.3,0-2.4-0.2-3.5-0.6c-1-0.4-1.8-1-2.3-1.7c-0.5-0.7-0.8-1.6-1-2.8
			c-0.1-0.8-0.2-2.5-0.2-5.1v-11.9h-3.3V357h3.3v-5.4l7.1-4.2v9.6H344.2L344.2,357z"/>
		<path class="st4" d="M347.4,370.2c0-2.4,0.6-4.7,1.7-6.9c1.2-2.2,2.8-3.9,4.9-5.1c2.1-1.2,4.5-1.8,7.1-1.8c4.1,0,7.4,1.3,10,4
			c2.6,2.7,3.9,6.1,3.9,10.1c0,4.1-1.3,7.5-3.9,10.2c-2.6,2.7-5.9,4.1-9.9,4.1c-2.5,0-4.8-0.6-7-1.7c-2.2-1.1-3.9-2.8-5.1-5
			C348,376,347.4,373.3,347.4,370.2L347.4,370.2z M354.7,370.6c0,2.7,0.6,4.8,1.9,6.2c1.3,1.4,2.8,2.2,4.7,2.2
			c1.9,0,3.4-0.7,4.7-2.2c1.3-1.4,1.9-3.5,1.9-6.3c0-2.7-0.6-4.7-1.9-6.1c-1.3-1.4-2.8-2.2-4.7-2.2c-1.9,0-3.4,0.7-4.7,2.2
			C355.4,365.8,354.7,367.9,354.7,370.6L354.7,370.6z"/>
		<path class="st4" d="M378.2,376.4l7.1-1.1c0.3,1.4,0.9,2.5,1.8,3.2c0.9,0.7,2.2,1.1,3.9,1.1c1.8,0,3.2-0.3,4.1-1
			c0.6-0.5,0.9-1.1,0.9-1.9c0-0.6-0.2-1-0.5-1.4c-0.4-0.3-1.1-0.7-2.4-0.9c-5.7-1.3-9.4-2.4-10.9-3.5c-2.1-1.5-3.2-3.5-3.2-6.1
			c0-2.4,0.9-4.3,2.8-5.9c1.8-1.6,4.7-2.4,8.5-2.4c3.7,0,6.4,0.6,8.2,1.8c1.8,1.2,3,3,3.7,5.4l-6.7,1.2c-0.3-1.1-0.8-1.9-1.6-2.4
			c-0.8-0.6-1.9-0.8-3.4-0.8c-1.9,0-3.2,0.3-4,0.8c-0.5,0.4-0.8,0.9-0.8,1.5c0,0.5,0.2,0.9,0.7,1.3c0.6,0.5,2.8,1.2,6.6,2
			c3.8,0.9,6.4,1.9,7.9,3.2c1.5,1.3,2.2,3.1,2.2,5.4c0,2.5-1,4.6-3.1,6.4c-2.1,1.8-5.1,2.7-9.1,2.7c-3.7,0-6.6-0.8-8.7-2.3
			C380.3,381,378.9,379,378.2,376.4L378.2,376.4z"/>
		<path class="st4" d="M421.8,357v5.7H417v11c0,2.2,0,3.5,0.1,3.9c0.1,0.4,0.3,0.7,0.6,0.9c0.3,0.2,0.7,0.4,1.2,0.4
			c0.7,0,1.6-0.2,2.9-0.7l0.6,5.6c-1.7,0.7-3.5,1.1-5.6,1.1c-1.3,0-2.4-0.2-3.5-0.6c-1-0.4-1.8-1-2.3-1.7c-0.5-0.7-0.8-1.6-1-2.8
			c-0.1-0.8-0.2-2.5-0.2-5.1v-11.9h-3.3V357h3.3v-5.4l7.1-4.2v9.6H421.8L421.8,357z"/>
		<path class="st4" d="M433.6,384.2h-7.1V357h6.6v3.9c1.1-1.8,2.1-3,3-3.6c0.9-0.6,1.9-0.9,3.1-0.9c1.6,0,3.2,0.5,4.7,1.4l-2.2,6.3
			c-1.2-0.8-2.3-1.2-3.3-1.2c-1,0-1.8,0.3-2.5,0.8c-0.7,0.6-1.2,1.6-1.6,3c-0.4,1.5-0.6,4.5-0.6,9.1V384.2L433.6,384.2z"/>
		<path class="st4" d="M452.2,365.3l-6.4-1.2c0.7-2.6,2-4.6,3.7-5.8c1.8-1.3,4.4-1.9,7.9-1.9c3.2,0,5.5,0.4,7.1,1.1
			c1.5,0.8,2.6,1.7,3.3,2.9c0.6,1.2,0.9,3.3,0.9,6.4l-0.1,8.4c0,2.4,0.1,4.2,0.3,5.3c0.2,1.1,0.7,2.4,1.3,3.6h-7
			c-0.2-0.5-0.4-1.2-0.7-2.1c-0.1-0.4-0.2-0.7-0.3-0.9c-1.2,1.2-2.5,2.1-3.9,2.7c-1.4,0.6-2.9,0.9-4.4,0.9c-2.8,0-4.9-0.8-6.5-2.3
			c-1.6-1.5-2.4-3.4-2.4-5.8c0-1.5,0.4-2.9,1.1-4.1c0.7-1.2,1.7-2.1,3-2.8c1.3-0.6,3.2-1.2,5.7-1.7c3.3-0.6,5.6-1.2,6.9-1.8v-0.7
			c0-1.4-0.3-2.4-1-3c-0.7-0.6-1.9-0.9-3.8-0.9c-1.3,0-2.3,0.3-3,0.8C453.2,363.1,452.7,364,452.2,365.3L452.2,365.3z M461.7,371.1
			c-0.9,0.3-2.3,0.7-4.3,1.1c-2,0.4-3.3,0.8-3.9,1.2c-0.9,0.7-1.4,1.5-1.4,2.5c0,1,0.4,1.9,1.1,2.6c0.7,0.7,1.7,1.1,2.8,1.1
			c1.3,0,2.5-0.4,3.7-1.3c0.9-0.6,1.4-1.4,1.7-2.4c0.2-0.6,0.3-1.8,0.3-3.5V371.1L461.7,371.1z"/>
		<path class="st4" d="M500.3,384.2h-6.6v-4c-1.1,1.6-2.4,2.7-3.9,3.5c-1.5,0.8-3,1.1-4.5,1.1c-3.1,0-5.7-1.3-7.9-3.8
			c-2.2-2.5-3.3-6-3.3-10.5c0-4.6,1.1-8.1,3.2-10.5c2.1-2.4,4.9-3.6,8.1-3.6c3,0,5.6,1.3,7.8,3.8v-13.5h7.1V384.2L500.3,384.2z
			 M481.4,370c0,2.9,0.4,5,1.2,6.3c1.1,1.9,2.7,2.8,4.8,2.8c1.6,0,3-0.7,4.2-2.1c1.1-1.4,1.7-3.5,1.7-6.3c0-3.1-0.6-5.4-1.7-6.8
			c-1.1-1.4-2.5-2.1-4.3-2.1c-1.7,0-3.1,0.7-4.2,2C481.9,365.3,481.4,367.3,481.4,370L481.4,370z"/>
		<path class="st4" d="M522.9,375.5l7.1,1.2c-0.9,2.6-2.3,4.6-4.3,6c-2,1.4-4.4,2.1-7.4,2.1c-4.7,0-8.1-1.5-10.4-4.6
			c-1.8-2.5-2.7-5.6-2.7-9.4c0-4.5,1.2-8,3.5-10.6c2.3-2.6,5.3-3.8,8.8-3.8c4,0,7.1,1.3,9.5,4c2.3,2.7,3.4,6.8,3.3,12.3h-17.8
			c0.1,2.1,0.6,3.8,1.7,5c1.1,1.2,2.5,1.8,4.1,1.8c1.1,0,2-0.3,2.8-0.9C521.9,377.9,522.5,376.9,522.9,375.5L522.9,375.5z
			 M523.3,368.3c-0.1-2.1-0.6-3.7-1.6-4.8c-1-1.1-2.2-1.6-3.7-1.6c-1.6,0-2.8,0.6-3.8,1.7c-1,1.1-1.5,2.7-1.5,4.7H523.3L523.3,368.3
			z"/>
		<polygon class="st12" points="554.5,337.2 615.9,337.2 615.9,398.2 554.5,398.2 554.5,337.2 		"/>
		<path class="st5" d="M604,394.1l-18.6,2.4l-18.6-2.4c-6.3-1.8-6.3-1.8-7.7-8.8l-2.8-17.4l2.8-17.8c1.4-6.9,1.4-6.9,7.7-8.4
			l18.6-2.8l18.6,2.8c6,1.4,6,1.4,7.7,8.4l2.5,17.8l-2.5,17.4C609.9,391.9,609.9,391.9,604,394.1L604,394.1z"/>
		<path class="st4" d="M585.4,382.9h-4.1l-1.7-7H572l-1.6,7h-4.1l7.3-30.3h4.2L585.4,382.9L585.4,382.9z M578.4,370.9l-2.7-11.1
			l-2.6,11.1H578.4L578.4,370.9z"/>
		<path class="st4" d="M603.3,383.1h-4.9v-21.8c-1.8,1.9-4,3.5-6.4,4.3v-5.2c1.2-0.4,2.6-1.4,4.1-2.8c1.5-1.4,2.6-3,3.2-4.8h4V383.1
			L603.3,383.1z"/>
		<polygon class="st12" points="626.9,337.2 688.3,337.2 688.3,398.2 626.9,398.2 626.9,337.2 		"/>
		<path class="st5" d="M676.4,394.1l-18.6,2.4l-18.6-2.4c-6.3-1.8-6.3-1.8-7.7-8.8l-2.8-17.4l2.8-17.8c1.4-6.9,1.4-6.9,7.7-8.4
			l18.6-2.8l18.6,2.8c6,1.4,6,1.4,7.7,8.4l2.5,17.8l-2.5,17.4C682.4,391.9,682.4,391.9,676.4,394.1L676.4,394.1z"/>
		<path class="st4" d="M657.8,384h-4.1l-1.7-7h-7.6l-1.6,7h-4.1l7.3-30.3h4.2L657.8,384L657.8,384z M650.8,372l-2.6-11.1l-2.6,11.1
			H650.8L650.8,372z"/>
		<path class="st4" d="M660.4,375.9l4.4-0.7c0.1,1.5,0.5,2.7,1.1,3.5c0.6,0.8,1.4,1.2,2.2,1.2c0.9,0,1.7-0.5,2.4-1.4
			c0.6-1,1-2.2,1-3.9c0-1.5-0.3-2.8-0.9-3.7c-0.6-0.9-1.4-1.4-2.3-1.4c-0.6,0-1.3,0.1-2.1,0.5l0.5-5c1.2,0,2.2-0.3,2.8-1.1
			c0.7-0.8,1-1.8,1-3c0-1.1-0.2-1.9-0.7-2.6c-0.5-0.6-1.1-1-1.9-1c-0.8,0-1.5,0.4-2,1.1c-0.6,0.7-0.9,1.8-1,3.2l-4.2-1
			c0.3-1.9,0.7-3.5,1.3-4.6c0.6-1.2,1.4-2.1,2.5-2.7c1.1-0.7,2.2-1,3.6-1c2.2,0,4,1,5.4,2.9c1.1,1.6,1.7,3.3,1.7,5.3
			c0,2.8-1.1,5-3.4,6.7c1.4,0.4,2.5,1.3,3.3,2.6c0.8,1.4,1.2,3,1.2,5c0,2.8-0.8,5.2-2.3,7.2c-1.5,2-3.4,3-5.7,3
			c-2.2,0-3.9-0.8-5.4-2.5C661.4,380.8,660.6,378.6,660.4,375.9L660.4,375.9z"/>
		<path class="st11" d="M104.2,509.4v-7.9c-0.5,0.7-1.2,1.3-1.9,1.7c-0.8,0.4-1.6,0.6-2.5,0.6c-1.7,0-3.1-0.7-4.2-2
			c-1.3-1.6-2-3.7-2-6.4c0-2.5,0.6-4.5,1.8-5.9c1.2-1.4,2.8-2.1,4.6-2.1c1,0,1.9,0.2,2.6,0.7c0.7,0.4,1.4,1.1,2,2v-2.3h3.7v21.8
			H104.2L104.2,509.4z M104.3,495.3c0-1.6-0.3-2.8-0.9-3.6c-0.6-0.8-1.4-1.2-2.4-1.2c-1,0-1.8,0.4-2.4,1.2c-0.7,0.8-1,2.1-1,3.8
			c0,1.7,0.3,3,0.9,3.7c0.6,0.8,1.4,1.2,2.3,1.2c0.9,0,1.7-0.4,2.4-1.3C104,498.3,104.3,497,104.3,495.3L104.3,495.3z"/>
		<path class="st11" d="M122,503.4V501c-0.6,0.8-1.3,1.5-2.2,2c-0.9,0.5-1.8,0.7-2.8,0.7c-1,0-1.9-0.2-2.7-0.7
			c-0.8-0.5-1.4-1.1-1.7-2c-0.4-0.8-0.5-2-0.5-3.5v-10h4v7.2c0,2.2,0.1,3.6,0.2,4.1c0.1,0.5,0.4,0.9,0.8,1.2
			c0.4,0.3,0.9,0.4,1.5,0.4c0.7,0,1.3-0.2,1.8-0.6c0.5-0.4,0.9-0.9,1.1-1.5c0.2-0.6,0.3-2,0.3-4.3v-6.6h4v15.8H122L122,503.4z"/>
		<path class="st11" d="M132.9,492.5l-3.6-0.7c0.4-1.5,1.1-2.6,2.1-3.4c1-0.7,2.5-1.1,4.4-1.1c1.8,0,3.1,0.2,4,0.7
			c0.9,0.4,1.5,1,1.8,1.7c0.4,0.7,0.5,1.9,0.5,3.7l0,4.9c0,1.4,0.1,2.4,0.2,3.1c0.1,0.7,0.4,1.4,0.7,2.1h-4
			c-0.1-0.3-0.2-0.7-0.4-1.2c-0.1-0.3-0.1-0.4-0.1-0.5c-0.7,0.7-1.4,1.2-2.2,1.6c-0.8,0.3-1.6,0.5-2.5,0.5c-1.6,0-2.8-0.4-3.7-1.3
			c-0.9-0.9-1.3-2-1.3-3.3c0-0.9,0.2-1.7,0.6-2.4c0.4-0.7,1-1.2,1.7-1.6c0.7-0.4,1.8-0.7,3.2-1c1.9-0.4,3.2-0.7,3.9-1v-0.4
			c0-0.8-0.2-1.4-0.6-1.7c-0.4-0.3-1.1-0.5-2.1-0.5c-0.7,0-1.3,0.1-1.7,0.4C133.4,491.2,133.1,491.7,132.9,492.5L132.9,492.5z
			 M138.2,495.8c-0.5,0.2-1.3,0.4-2.4,0.6c-1.1,0.3-1.8,0.5-2.2,0.7c-0.5,0.4-0.8,0.9-0.8,1.5c0,0.6,0.2,1.1,0.6,1.5
			c0.4,0.4,0.9,0.6,1.6,0.6c0.7,0,1.4-0.3,2.1-0.7c0.5-0.4,0.8-0.8,0.9-1.4c0.1-0.4,0.2-1,0.2-2V495.8L138.2,495.8z"/>
		<path class="st11" d="M149.9,503.4h-4v-15.8h3.7v2.2c0.6-1.1,1.2-1.8,1.7-2.1c0.5-0.3,1.1-0.5,1.7-0.5c0.9,0,1.8,0.3,2.6,0.8
			l-1.2,3.6c-0.7-0.4-1.3-0.7-1.9-0.7c-0.6,0-1,0.2-1.4,0.5c-0.4,0.3-0.7,0.9-0.9,1.7c-0.2,0.8-0.3,2.6-0.3,5.3V503.4L149.9,503.4z"
			/>
		<path class="st11" d="M164.3,487.6v3.3h-2.7v6.4c0,1.3,0,2,0.1,2.2c0.1,0.2,0.2,0.4,0.4,0.5c0.2,0.1,0.4,0.2,0.7,0.2
			c0.4,0,0.9-0.1,1.6-0.4l0.3,3.2c-0.9,0.4-2,0.6-3.2,0.6c-0.7,0-1.4-0.1-1.9-0.4c-0.6-0.3-1-0.6-1.3-1c-0.3-0.4-0.5-0.9-0.6-1.6
			c-0.1-0.5-0.1-1.5-0.1-2.9V491h-1.8v-3.3h1.8v-3.1l4-2.4v5.6H164.3L164.3,487.6z"/>
		<path class="st11" d="M167.1,485.5v-3.9h4v3.9H167.1L167.1,485.5z M167.1,503.4v-15.8h4v15.8H167.1L167.1,503.4z"/>
		<path class="st11" d="M183.9,498.4l4,0.7c-0.5,1.5-1.3,2.7-2.4,3.5c-1.1,0.8-2.5,1.2-4.1,1.2c-2.6,0-4.6-0.9-5.8-2.7
			c-1-1.4-1.5-3.2-1.5-5.4c0-2.6,0.7-4.7,2-6.1c1.3-1.5,3-2.2,5-2.2c2.2,0,4,0.8,5.3,2.3c1.3,1.6,1.9,3.9,1.9,7.1h-10
			c0,1.2,0.3,2.2,1,2.9c0.6,0.7,1.4,1,2.3,1c0.6,0,1.1-0.2,1.6-0.5C183.3,499.8,183.7,499.2,183.9,498.4L183.9,498.4z M184.1,494.2
			c0-1.2-0.3-2.1-0.9-2.8c-0.6-0.6-1.3-0.9-2.1-0.9c-0.9,0-1.6,0.3-2.2,1c-0.6,0.7-0.8,1.6-0.8,2.7H184.1L184.1,494.2z"/>
		<path class="st11" d="M195.1,503.4h-4v-15.8h3.7v2.2c0.6-1.1,1.2-1.8,1.7-2.1c0.5-0.3,1.1-0.5,1.7-0.5c0.9,0,1.8,0.3,2.6,0.8
			l-1.2,3.6c-0.7-0.4-1.3-0.7-1.9-0.7c-0.6,0-1,0.2-1.4,0.5c-0.4,0.3-0.7,0.9-0.9,1.7c-0.2,0.8-0.3,2.6-0.3,5.3V503.4L195.1,503.4z"
			/>
		<path class="st11" d="M211.4,498.4l4,0.7c-0.5,1.5-1.3,2.7-2.4,3.5c-1.1,0.8-2.5,1.2-4.1,1.2c-2.6,0-4.6-0.9-5.8-2.7
			c-1-1.4-1.5-3.2-1.5-5.4c0-2.6,0.7-4.7,2-6.1c1.3-1.5,3-2.2,5-2.2c2.2,0,4,0.8,5.3,2.3c1.3,1.6,1.9,3.9,1.9,7.1h-10
			c0,1.2,0.3,2.2,1,2.9c0.6,0.7,1.4,1,2.3,1c0.6,0,1.1-0.2,1.6-0.5C210.8,499.8,211.2,499.2,211.4,498.4L211.4,498.4z M211.6,494.2
			c0-1.2-0.3-2.1-0.9-2.8c-0.6-0.6-1.3-0.9-2.1-0.9c-0.9,0-1.6,0.3-2.2,1c-0.6,0.7-0.8,1.6-0.8,2.7H211.6L211.6,494.2z"/>
		<polygon class="st11" points="92.1,560.5 92.1,526.4 102.5,526.4 108.6,549.7 114.8,526.4 125.1,526.4 125.1,560.5 118.7,560.5 
			118.7,533.6 111.9,560.5 105.3,560.5 98.5,533.6 98.5,560.5 92.1,560.5 		"/>
		<path class="st11" d="M136.8,543.3l-5.9-1.1c0.7-2.4,1.8-4.2,3.4-5.3c1.6-1.1,4.1-1.7,7.3-1.7c2.9,0,5.1,0.4,6.5,1
			c1.4,0.7,2.4,1.6,3,2.6c0.6,1.1,0.9,3,0.9,5.9l-0.1,7.6c0,2.2,0.1,3.8,0.3,4.8c0.2,1,0.6,2.1,1.2,3.3h-6.5
			c-0.2-0.4-0.4-1.1-0.6-1.9c-0.1-0.4-0.2-0.6-0.2-0.8c-1.1,1.1-2.3,1.9-3.6,2.5c-1.3,0.5-2.6,0.8-4.1,0.8c-2.5,0-4.6-0.7-6-2.1
			c-1.5-1.4-2.2-3.1-2.2-5.3c0-1.4,0.3-2.6,1-3.7c0.7-1.1,1.6-1.9,2.8-2.5c1.2-0.6,2.9-1.1,5.2-1.5c3.1-0.6,5.2-1.1,6.4-1.6v-0.7
			c0-1.3-0.3-2.2-0.9-2.7c-0.6-0.5-1.8-0.8-3.5-0.8c-1.2,0-2.1,0.2-2.7,0.7C137.7,541.4,137.2,542.2,136.8,543.3L136.8,543.3z
			 M145.6,548.6c-0.8,0.3-2.2,0.6-4,1c-1.8,0.4-3,0.8-3.6,1.1c-0.9,0.6-1.3,1.4-1.3,2.3c0,0.9,0.3,1.7,1,2.4c0.7,0.7,1.6,1,2.6,1
			c1.2,0,2.3-0.4,3.4-1.2c0.8-0.6,1.3-1.3,1.6-2.2c0.2-0.6,0.3-1.6,0.3-3.2V548.6L145.6,548.6z"/>
		<path class="st11" d="M155.8,560.5v-5.1l9.3-10.6c1.5-1.7,2.6-3,3.4-3.7c-0.8,0-1.8,0.1-3,0.1l-8.7,0v-5.4h20.5v4.6l-9.5,10.9
			l-3.3,3.6c1.8-0.1,2.9-0.2,3.4-0.2h10.1v5.8H155.8L155.8,560.5z"/>
		<path class="st11" d="M179.7,560.5v-5.1l9.3-10.6c1.5-1.7,2.6-3,3.4-3.7c-0.8,0-1.8,0.1-3,0.1l-8.7,0v-5.4H201v4.6l-9.5,10.9
			l-3.3,3.6c1.8-0.1,2.9-0.2,3.4-0.2h10.1v5.8H179.7L179.7,560.5z"/>
		<path class="st11" d="M206.2,532.4v-6.1h6.5v6.1H206.2L206.2,532.4z M206.2,560.5v-24.7h6.5v24.7H206.2L206.2,560.5z"/>
		<path class="st11" d="M241.9,560.5h-6.5v-12.6c0-2.7-0.1-4.4-0.4-5.2c-0.3-0.8-0.7-1.4-1.4-1.8c-0.6-0.4-1.4-0.7-2.3-0.7
			c-1.1,0-2.2,0.3-3.1,0.9c-0.9,0.6-1.5,1.4-1.9,2.5c-0.3,1-0.5,2.9-0.5,5.7v11.2h-6.5v-24.7h6.1v3.6c2.2-2.8,4.9-4.2,8.2-4.2
			c1.4,0,2.8,0.3,4,0.8c1.2,0.5,2.1,1.2,2.7,2c0.6,0.8,1,1.7,1.3,2.8c0.2,1,0.4,2.5,0.4,4.4V560.5L241.9,560.5z"/>
		<path class="st11" d="M248.6,532.4v-6.1h6.5v6.1H248.6L248.6,532.4z M248.6,560.5v-24.7h6.5v24.7H248.6L248.6,560.5z"/>
		<path class="st11" d="M95.2,618.6h11.6c2.3,0,4,0.1,5.1,0.3c1.1,0.2,2.1,0.6,3,1.3c0.9,0.6,1.6,1.5,2.2,2.6
			c0.6,1.1,0.9,2.3,0.9,3.6c0,1.4-0.4,2.8-1.1,4c-0.7,1.2-1.7,2.1-3,2.7c1.8,0.5,3.1,1.5,4.1,2.8c1,1.3,1.4,2.9,1.4,4.6
			c0,1.4-0.3,2.8-0.9,4.1c-0.6,1.3-1.4,2.4-2.5,3.2c-1.1,0.8-2.4,1.3-3.9,1.5c-1,0.1-3.3,0.2-7,0.2h-9.8V618.6L95.2,618.6z
			 M101,623.7v7.1h3.8c2.3,0,3.7,0,4.2-0.1c1-0.1,1.8-0.5,2.4-1.1c0.6-0.6,0.9-1.4,0.9-2.4c0-0.9-0.2-1.7-0.7-2.3
			c-0.5-0.6-1.2-0.9-2.2-1.1c-0.6-0.1-2.2-0.1-5-0.1H101L101,623.7z M101,635.9v8.2h5.4c2.1,0,3.4-0.1,4-0.2
			c0.9-0.2,1.6-0.6,2.1-1.2c0.5-0.7,0.8-1.5,0.8-2.6c0-0.9-0.2-1.7-0.6-2.3c-0.4-0.6-1-1.1-1.8-1.4c-0.8-0.3-2.5-0.4-5.2-0.4H101
			L101,635.9z"/>
		<path class="st11" d="M123.2,634.2c0-3.1,0.4-5.8,1.3-7.9c0.7-1.6,1.6-3,2.7-4.2c1.1-1.2,2.4-2.2,3.7-2.8c1.8-0.8,3.9-1.2,6.2-1.2
			c4.3,0,7.7,1.4,10.2,4.2c2.6,2.8,3.8,6.7,3.8,11.7c0,5-1.3,8.8-3.8,11.6c-2.5,2.8-5.9,4.2-10.2,4.2c-4.3,0-7.7-1.4-10.3-4.2
			C124.4,642.9,123.2,639,123.2,634.2L123.2,634.2z M129.2,634c0,3.5,0.8,6.1,2.3,7.9c1.5,1.8,3.4,2.7,5.8,2.7
			c2.3,0,4.2-0.9,5.7-2.7c1.5-1.8,2.2-4.4,2.2-8c0-3.5-0.7-6.1-2.2-7.9c-1.5-1.7-3.4-2.6-5.8-2.6c-2.4,0-4.3,0.9-5.8,2.6
			C129.9,627.8,129.2,630.4,129.2,634L129.2,634z"/>
		<polygon class="st11" points="155.9,649.3 155.9,618.9 161.8,618.9 161.8,644.1 176.3,644.1 176.3,649.3 155.9,649.3 		"/>
		<path class="st11" d="M179.3,634.2c0-3.1,0.4-5.8,1.3-7.9c0.7-1.6,1.6-3,2.7-4.2c1.1-1.2,2.4-2.2,3.7-2.8c1.8-0.8,3.9-1.2,6.2-1.2
			c4.3,0,7.7,1.4,10.2,4.2c2.6,2.8,3.8,6.7,3.8,11.7c0,5-1.3,8.8-3.8,11.6c-2.5,2.8-5.9,4.2-10.2,4.2c-4.3,0-7.7-1.4-10.3-4.2
			C180.5,642.9,179.3,639,179.3,634.2L179.3,634.2z M185.3,634c0,3.5,0.8,6.1,2.3,7.9c1.5,1.8,3.4,2.7,5.8,2.7
			c2.3,0,4.2-0.9,5.7-2.7c1.5-1.8,2.2-4.4,2.2-8c0-3.5-0.7-6.1-2.2-7.9c-1.5-1.7-3.4-2.6-5.8-2.6c-2.4,0-4.3,0.9-5.8,2.6
			C186,627.8,185.3,630.4,185.3,634L185.3,634z"/>
		<path class="st11" d="M225.3,638v-5.2h12.6v12.2c-1.2,1.3-3,2.4-5.3,3.3c-2.3,1-4.7,1.4-7,1.4c-3,0-5.7-0.7-7.9-2
			c-2.2-1.4-3.9-3.3-5.1-5.8c-1.1-2.5-1.7-5.2-1.7-8.2c0-3.2,0.6-6,1.9-8.5c1.3-2.5,3.1-4.4,5.5-5.7c1.9-1,4.2-1.5,6.9-1.5
			c3.6,0,6.4,0.8,8.4,2.4c2,1.6,3.3,3.8,3.9,6.6l-5.8,1.2c-0.4-1.5-1.2-2.7-2.3-3.6c-1.1-0.9-2.5-1.3-4.2-1.3
			c-2.6,0-4.6,0.9-6.1,2.6c-1.5,1.7-2.3,4.3-2.3,7.6c0,3.6,0.8,6.4,2.3,8.2c1.5,1.8,3.5,2.7,6,2.7c1.2,0,2.4-0.3,3.7-0.8
			c1.2-0.5,2.3-1.1,3.2-1.8V638H225.3L225.3,638z"/>
		<polygon class="st11" points="243.3,649.3 243.3,618.6 249,618.6 260.8,639.1 260.8,618.6 266.3,618.6 266.3,649.3 260.4,649.3 
			248.7,629.3 248.7,649.3 243.3,649.3 		"/>
		<path class="st11" d="M298.5,649.3h-6.4l-2.5-7h-11.6l-2.4,7h-6.2l11.3-30.7h6.2L298.5,649.3L298.5,649.3z M287.7,637.2l-4-11.4
			l-3.9,11.4H287.7L287.7,637.2z"/>
	</g>
</g>
</svg>
