<?xml version="1.0" encoding="utf-8"?>
<!-- Generator: Adobe Illustrator 19.2.0, SVG Export Plug-In . SVG Version: 6.00 Build 0)  -->
<svg version="1.1" id="Livello_1" xmlns="http://www.w3.org/2000/svg" xmlns:xlink="http://www.w3.org/1999/xlink" x="0px" y="0px"
	 viewBox="0 0 960 960" style="enable-background:new 0 0 960 960;" xml:space="preserve">
<style type="text/css">
	.st0{fill:#FFFFFF;stroke:#1A171B;stroke-width:1.0644;stroke-miterlimit:2.6131;}
	.st1{fill:none;stroke:#1A171B;stroke-width:7.0962;stroke-miterlimit:2.6131;}
	.st2{fill-rule:evenodd;clip-rule:evenodd;fill:#005EA7;}
	.st3{fill-rule:evenodd;clip-rule:evenodd;fill:#008E43;}
	.st4{fill-rule:evenodd;clip-rule:evenodd;fill:#1A171B;}
	.st5{fill:none;stroke:#FFFFFF;stroke-width:3.5481;stroke-miterlimit:2.6131;}
	.st6{fill-rule:evenodd;clip-rule:evenodd;fill:#FFFFFF;}
	.st7{fill:none;stroke:#1A171B;stroke-width:0.6741;stroke-miterlimit:2.6131;}
	.st8{fill:none;stroke:#1A171B;stroke-width:0.72;stroke-miterlimit:2.6131;}
	.st9{fill:none;stroke:#1A171B;stroke-width:0.719;stroke-miterlimit:2.6131;}
	.st10{fill-rule:evenodd;clip-rule:evenodd;fill:#1A171B;stroke:#1A171B;stroke-width:1.3552;stroke-miterlimit:2.6131;}
	.st11{fill-rule:evenodd;clip-rule:evenodd;fill:#FFFFFF;stroke:#1A171B;stroke-width:1.0644;stroke-miterlimit:2.6131;}
	.st12{fill-rule:evenodd;clip-rule:evenodd;fill:#E1001A;}
	.st13{fill-rule:evenodd;clip-rule:evenodd;fill:#FFFFFF;stroke:#FFFFFF;stroke-width:1.0644;stroke-miterlimit:2.6131;}
	.st14{fill:none;stroke:#FFFFFF;stroke-width:0.3548;stroke-miterlimit:2.6131;}
	.st15{fill-rule:evenodd;clip-rule:evenodd;fill:#FFFFFF;stroke:#FFFFFF;stroke-width:0.3548;stroke-miterlimit:2.6131;}
</style>
<g>
	<g>
		<polygon class="st0" points="45,137.5 915,137.5 915,822.5 45,822.5 45,137.5 		"/>
		<path class="st1" d="M82.7,148h794.6c14.9,0,27.2,13.6,27.2,27.2v609.3c0,13.8-13.6,27.4-27.2,27.4H82.7
			c-13.6,0-27.2-12.3-27.2-27.4V175.2C55.5,160.4,67.8,148,82.7,148L82.7,148z"/>
		<polygon class="st2" points="540.8,188.8 864,188.8 864,286.5 540.8,286.5 540.8,188.8 		"/>
		<polygon class="st3" points="96.3,581.2 456.4,581.2 456.4,771.2 96.3,771.2 96.3,581.2 		"/>
		<path class="st4" d="M702.6,465l-54.1,92.7c-0.2,3.6,2.2,5.6,5.3,6l32.5-6.1l-0.2,131.3c-18.1-15.6-39-15.3-54.4-15.8l5.7-33.2
			c0.2-3.6-1.9-5-5.8-5l-90.8,54.1l90.8,54.2c3.9,0.2,6-1,5.8-5.1l-4.9-33.2c38,0.6,53.4,23.2,53.7,38.3l0.1,28.2l32.5,0.1l0-213.7
			l32.5,6c4.6,0.9,5.8-3.6,5.5-6L702.6,465L702.6,465z"/>
		<polygon class="st3" points="118.8,604.5 178.8,604.5 178.8,664.4 118.8,664.4 118.8,604.5 		"/>
		<path class="st5" d="M167.2,660.3l-18.2,2.4l-18.2-2.4c-6.2-1.7-6.2-1.7-7.5-8.6l-2.8-17.1l2.8-17.5c1.4-6.8,1.4-6.8,7.5-8.2
			l18.2-2.8l18.2,2.8c5.8,1.4,5.8,1.4,7.5,8.2l2.4,17.5l-2.4,17.1C173,658.2,173,658.2,167.2,660.3L167.2,660.3z"/>
		<path class="st6" d="M142.9,645.9h-3.2l-1.3-5.2h-5.9l-1.2,5.2H128l5.7-22.4h3.3L142.9,645.9L142.9,645.9z M137.4,637l-2.1-8.2
			l-2,8.2H137.4L137.4,637z"/>
		<path class="st7" d="M586.9,380.4c14.4,0,26.1,11.7,26.1,26.1c0,14.4-11.7,26.1-26.1,26.1c-14.4,0-26.1-11.7-26.1-26.1
			C560.7,392.2,572.5,380.4,586.9,380.4L586.9,380.4z"/>
		<path class="st8" d="M587.1,385.1c11.9,0,21.7,9.7,21.7,21.7c0,11.9-9.7,21.7-21.7,21.7c-11.9,0-21.7-9.7-21.7-21.7
			C565.4,394.8,575.1,385.1,587.1,385.1L587.1,385.1z"/>
		<path class="st9" d="M586.9,389.3c9.5,0,17.3,7.8,17.3,17.3s-7.8,17.3-17.3,17.3c-9.5,0-17.3-7.8-17.3-17.3
			S577.4,389.3,586.9,389.3L586.9,389.3z"/>
		<path class="st10" d="M586.9,397.5c5,0,9.1,4.1,9.1,9.1c0,5-4.1,9.1-9.1,9.1c-5,0-9.1-4.1-9.1-9.1
			C577.8,401.5,581.8,397.5,586.9,397.5L586.9,397.5z"/>
		<path class="st4" d="M710.7,401.9l-7.3,1.3c-0.2-1.5-0.8-2.6-1.7-3.3c-0.9-0.7-2-1.1-3.4-1.1c-1.9,0-3.3,0.6-4.4,1.9
			c-1.1,1.3-1.6,3.4-1.6,6.4c0,3.3,0.6,5.7,1.7,7c1.1,1.4,2.6,2.1,4.5,2.1c1.4,0,2.6-0.4,3.5-1.2c0.9-0.8,1.5-2.2,1.9-4.1l7.3,1.2
			c-0.8,3.3-2.2,5.9-4.4,7.6c-2.1,1.7-5,2.6-8.6,2.6c-4.1,0-7.4-1.3-9.8-3.9c-2.4-2.6-3.7-6.2-3.7-10.7c0-4.6,1.2-8.2,3.7-10.8
			c2.4-2.6,5.8-3.9,9.9-3.9c3.4,0,6.1,0.7,8.1,2.2C708.4,396.6,709.8,398.9,710.7,401.9L710.7,401.9z"/>
		<path class="st4" d="M732.5,412.7l7.4,1.2c-1,2.7-2.4,4.8-4.5,6.2c-2,1.4-4.6,2.1-7.7,2.1c-4.9,0-8.5-1.6-10.8-4.8
			c-1.8-2.5-2.8-5.8-2.8-9.6c0-4.6,1.2-8.3,3.6-10.9c2.4-2.6,5.5-3.9,9.2-3.9c4.2,0,7.5,1.4,9.9,4.1c2.4,2.8,3.6,7,3.5,12.6h-18.6
			c0.1,2.2,0.7,3.9,1.8,5.1c1.1,1.2,2.6,1.8,4.3,1.8c1.2,0,2.1-0.3,2.9-0.9C731.5,415.1,732.1,414.1,732.5,412.7L732.5,412.7z
			 M732.9,405.2c-0.1-2.1-0.6-3.8-1.7-4.9c-1.1-1.1-2.3-1.7-3.8-1.7c-1.6,0-2.9,0.6-4,1.8c-1.1,1.2-1.6,2.8-1.6,4.8H732.9
			L732.9,405.2z"/>
		<path class="st4" d="M771.8,421.6h-7.4v-14.3c0-3-0.2-5-0.5-5.9c-0.3-0.9-0.8-1.6-1.5-2.1c-0.7-0.5-1.6-0.7-2.6-0.7
			c-1.3,0-2.4,0.4-3.5,1.1c-1,0.7-1.7,1.6-2.1,2.8c-0.4,1.2-0.6,3.3-0.6,6.4v12.7h-7.4v-28h6.9v4.1c2.4-3.2,5.5-4.8,9.2-4.8
			c1.6,0,3.1,0.3,4.5,0.9c1.4,0.6,2.4,1.3,3.1,2.3c0.7,0.9,1.2,2,1.4,3.1c0.3,1.2,0.4,2.8,0.4,5V421.6L771.8,421.6z"/>
		<path class="st4" d="M792.1,393.6v5.9h-5.1v11.3c0,2.3,0,3.6,0.1,4c0.1,0.4,0.3,0.7,0.7,0.9c0.3,0.2,0.8,0.4,1.2,0.4
			c0.7,0,1.7-0.2,3-0.7l0.6,5.7c-1.7,0.7-3.7,1.1-5.9,1.1c-1.3,0-2.5-0.2-3.6-0.7c-1.1-0.4-1.9-1-2.4-1.7c-0.5-0.7-0.8-1.7-1-2.9
			c-0.1-0.9-0.2-2.6-0.2-5.2v-12.2h-3.4v-5.9h3.4V388l7.4-4.3v9.9H792.1L792.1,393.6z"/>
		<path class="st4" d="M804.4,421.6H797v-28h6.9v4c1.2-1.9,2.2-3.1,3.2-3.7c0.9-0.6,2-0.9,3.2-0.9c1.7,0,3.3,0.5,4.9,1.4l-2.3,6.5
			c-1.2-0.8-2.4-1.2-3.5-1.2c-1,0-1.9,0.3-2.6,0.9c-0.7,0.6-1.3,1.6-1.7,3.1c-0.4,1.5-0.6,4.6-0.6,9.4V421.6L804.4,421.6z"/>
		<path class="st4" d="M816.6,407.2c0-2.5,0.6-4.8,1.8-7.1c1.2-2.3,2.9-4.1,5.2-5.3c2.2-1.2,4.7-1.8,7.4-1.8c4.2,0,7.7,1.4,10.4,4.1
			c2.7,2.8,4.1,6.2,4.1,10.4c0,4.2-1.4,7.7-4.1,10.5c-2.7,2.8-6.2,4.2-10.3,4.2c-2.6,0-5-0.6-7.3-1.7c-2.3-1.2-4.1-2.9-5.3-5.1
			C817.2,413.1,816.6,410.4,816.6,407.2L816.6,407.2z M824.2,407.6c0,2.8,0.7,4.9,2,6.4c1.3,1.5,2.9,2.2,4.9,2.2s3.6-0.7,4.9-2.2
			c1.3-1.5,2-3.6,2-6.4c0-2.7-0.7-4.9-2-6.3c-1.3-1.5-2.9-2.2-4.9-2.2s-3.6,0.7-4.9,2.2C824.8,402.7,824.2,404.8,824.2,407.6
			L824.2,407.6z"/>
		<path class="st6" d="M702,581.4c26.3,0,47.7,21.4,47.7,47.7c0,26.3-21.4,47.7-47.7,47.7c-26.3,0-47.7-21.4-47.7-47.7
			C654.3,602.8,675.7,581.4,702,581.4L702,581.4z"/>
		<path class="st11" d="M706.6,584.2c14.6,2.6,24.1,7.9,33,19.9c5.1,8.2,7.4,15.7,7.7,25.3c-0.6,19.1-10.5,33.7-27.7,41.7
			c-19.4,8-38.9,2.4-52.7-12.9c-8.6-11.3-11.9-23.8-9.4-38c2.9-10.9,7.2-18.2,15.6-25.8c9-6.7,17.5-10,28.8-10.4L706.6,584.2
			L706.6,584.2z"/>
		<path class="st12" d="M702.3,588.7c22.3,0,40.5,18.2,40.5,40.5c0,22.3-18.2,40.5-40.5,40.5c-22.3,0-40.5-18.2-40.5-40.5
			C661.8,606.8,680,588.7,702.3,588.7L702.3,588.7z"/>
		<path class="st12" d="M702.3,599c16.6,0,30.1,13.5,30.1,30.1c0,16.6-13.5,30.1-30.1,30.1c-16.6,0-30.1-13.5-30.1-30.1
			C672.2,612.6,685.7,599,702.3,599L702.3,599z"/>
		<path class="st13" d="M668.6,619h66.7c0.2,0,0.4,0.2,0.4,0.4v18.3c0,0.2-0.2,0.4-0.4,0.4h-66.7c-0.2,0-0.4-0.2-0.4-0.4v-18.3
			C668.2,619.2,668.4,619,668.6,619L668.6,619z"/>
		<path class="st6" d="M705.7,586.6c14,2.5,23.1,7.6,31.6,19.1c4.9,7.8,7.1,15.1,7.4,24.2c-0.6,18.3-10.1,32.3-26.5,40
			c-18.6,7.7-37.3,2.3-50.5-12.4c-8.3-10.9-11.4-22.8-9-36.5c2.8-10.5,6.9-17.4,14.9-24.7c8.6-6.4,16.7-9.6,27.6-9.9L705.7,586.6
			L705.7,586.6z"/>
		<path class="st12" d="M701.4,588.9c22.6,0,41,18.4,41,41c0,22.6-18.4,41-41,41c-22.6,0-41-18.4-41-41
			C660.4,607.3,678.8,588.9,701.4,588.9L701.4,588.9z"/>
		<path class="st6" d="M701.4,599.4c16.8,0,30.5,13.7,30.5,30.5s-13.7,30.5-30.5,30.5c-16.8,0-30.5-13.7-30.5-30.5
			S684.6,599.4,701.4,599.4L701.4,599.4z"/>
		<path class="st4" d="M675.9,638.3v-9.2l3.1-7.9h8.5v13h23.4c-1.3,0.5-2.2,2.2-2.3,4.1h-21c-0.3-6.7-9.8-6.7-10,0H675.9
			L675.9,638.3z"/>
		<path class="st4" d="M716,634.2h7.8v1.9l-5.4,2.1C718.4,636.5,717.2,634.6,716,634.2L716,634.2z"/>
		<polygon class="st4" points="688.5,633.1 688.5,615.6 723.7,615.6 723.8,633.1 688.5,633.1 		"/>
		<polygon class="st6" points="677.9,628.1 679.9,623 686.2,623 686.2,628.1 677.9,628.1 		"/>
		<path class="st4" d="M682.5,634.2c2.3,0,4.1,1.8,4.1,4.1c0,2.3-1.8,4.1-4.1,4.1c-2.3,0-4.1-1.8-4.1-4.1
			C678.4,636.1,680.2,634.2,682.5,634.2L682.5,634.2z"/>
		<path class="st4" d="M713.4,634.2c2.3,0,4.1,1.8,4.1,4.1c0,2.3-1.8,4.1-4.1,4.1c-2.3,0-4.1-1.8-4.1-4.1
			C709.3,636.1,711.2,634.2,713.4,634.2L713.4,634.2z"/>
		<path class="st6" d="M682.5,636.4c1.1,0,2,0.9,2,2c0,1.1-0.9,2-2,2c-1.1,0-2-0.9-2-2C680.5,637.3,681.4,636.4,682.5,636.4
			L682.5,636.4z"/>
		<path class="st6" d="M713.4,636.4c1.1,0,2,0.9,2,2c0,1.1-0.9,2-2,2c-1.1,0-2-0.9-2-2C711.5,637.3,712.4,636.4,713.4,636.4
			L713.4,636.4z"/>
		<path class="st6" d="M569.2,257.5v-39.6h13c4.9,0,8.1,0.2,9.6,0.6c2.3,0.6,4.2,1.9,5.8,3.9c1.5,2,2.3,4.6,2.3,7.7
			c0,2.4-0.4,4.5-1.3,6.1c-0.9,1.7-2,3-3.4,3.9c-1.4,0.9-2.8,1.6-4.2,1.9c-1.9,0.4-4.7,0.6-8.4,0.6h-5.3v14.9H569.2L569.2,257.5z
			 M577.2,224.6v11.2h4.4c3.2,0,5.3-0.2,6.4-0.6c1.1-0.4,1.9-1.1,2.5-1.9c0.6-0.9,0.9-1.9,0.9-3.1c0-1.4-0.4-2.6-1.3-3.6
			c-0.8-0.9-1.9-1.5-3.2-1.8c-1-0.2-2.9-0.3-5.8-0.3H577.2L577.2,224.6z"/>
		<polygon class="st6" points="606.4,257.5 606.4,217.9 636.1,217.9 636.1,224.6 614.5,224.6 614.5,233.4 634.6,233.4 634.6,240 
			614.5,240 614.5,250.8 636.9,250.8 636.9,257.5 606.4,257.5 		"/>
		<path class="st6" d="M641.7,244.6l7.9-0.8c0.5,2.6,1.4,4.5,2.9,5.8c1.4,1.2,3.4,1.8,5.8,1.8c2.6,0,4.6-0.5,5.9-1.6
			c1.3-1.1,2-2.4,2-3.8c0-0.9-0.3-1.7-0.8-2.4c-0.5-0.7-1.5-1.2-2.9-1.7c-0.9-0.3-3.1-0.9-6.5-1.7c-4.3-1.1-7.4-2.4-9.1-3.9
			c-2.5-2.2-3.7-4.8-3.7-8c0-2,0.6-3.9,1.7-5.7c1.2-1.8,2.8-3.1,5-4c2.2-0.9,4.8-1.4,7.9-1.4c5,0,8.8,1.1,11.3,3.3
			c2.5,2.2,3.9,5.1,4,8.7l-8.1,0.3c-0.3-2-1.1-3.5-2.2-4.4c-1.1-0.9-2.8-1.3-5.1-1.3c-2.3,0-4.2,0.5-5.5,1.4
			c-0.9,0.6-1.3,1.4-1.3,2.5c0,0.9,0.4,1.7,1.2,2.4c1,0.8,3.5,1.7,7.4,2.6c3.9,0.9,6.8,1.9,8.7,2.9c1.9,1,3.4,2.3,4.4,4
			c1.1,1.7,1.6,3.8,1.6,6.3c0,2.3-0.6,4.4-1.9,6.4c-1.3,2-3.1,3.5-5.4,4.4c-2.3,1-5.2,1.4-8.7,1.4c-5.1,0-8.9-1.2-11.7-3.5
			C643.8,252.4,642.2,249,641.7,244.6L641.7,244.6z"/>
		<path class="st6" d="M706.6,242.9l7.8,2.5c-1.2,4.3-3.2,7.5-6,9.6c-2.8,2.1-6.3,3.1-10.6,3.1c-5.3,0-9.7-1.8-13.1-5.4
			c-3.4-3.6-5.1-8.5-5.1-14.7c0-6.6,1.7-11.7,5.2-15.4c3.4-3.6,8-5.5,13.6-5.5c4.9,0,8.9,1.4,11.9,4.3c1.8,1.7,3.2,4.1,4.1,7.3
			l-8,1.9c-0.5-2.1-1.4-3.7-3-4.9c-1.5-1.2-3.3-1.8-5.5-1.8c-3,0-5.4,1.1-7.2,3.2c-1.8,2.1-2.8,5.5-2.8,10.2c0,5,0.9,8.6,2.7,10.7
			c1.8,2.1,4.2,3.2,7.1,3.2c2.2,0,4-0.7,5.5-2C704.8,248,705.9,245.8,706.6,242.9L706.6,242.9z"/>
		<path class="st6" d="M757.4,257.5h-8.8l-3.5-9h-16l-3.3,9h-8.6l15.6-39.6h8.5L757.4,257.5L757.4,257.5z M742.5,241.8l-5.5-14.7
			l-5.4,14.7H742.5L742.5,241.8z"/>
		<path class="st6" d="M761.7,257.5v-39.6h17c4.3,0,7.4,0.4,9.3,1.1c1.9,0.7,3.5,2,4.7,3.8c1.2,1.8,1.7,3.9,1.7,6.2
			c0,3-0.9,5.4-2.6,7.4c-1.8,1.9-4.4,3.2-7.9,3.7c1.8,1,3.2,2.1,4.3,3.3c1.1,1.2,2.7,3.3,4.6,6.4l4.9,7.7H788l-5.8-8.6
			c-2.1-3.1-3.5-5-4.3-5.8c-0.8-0.8-1.6-1.3-2.4-1.7c-0.9-0.3-2.2-0.4-4.1-0.4h-1.6v16.5H761.7L761.7,257.5z M769.8,234.6h6
			c3.9,0,6.3-0.2,7.3-0.5c1-0.3,1.7-0.9,2.3-1.7c0.5-0.8,0.8-1.8,0.8-3c0-1.3-0.4-2.4-1.1-3.2c-0.7-0.8-1.7-1.3-3-1.6
			c-0.6-0.1-2.6-0.1-5.9-0.1h-6.3V234.6L769.8,234.6z"/>
		<path class="st6" d="M838.1,257.5h-8.8l-3.5-9h-16l-3.3,9h-8.6l15.6-39.6h8.5L838.1,257.5L838.1,257.5z M823.2,241.8l-5.5-14.7
			l-5.4,14.7H823.2L823.2,241.8z"/>
		<path class="st4" d="M596.3,357.2h-8.4l-3.3-8.7h-15.3l-3.2,8.7h-8.2l14.9-38.2h8.2L596.3,357.2L596.3,357.2z M582.1,342.1
			l-5.3-14.2l-5.2,14.2H582.1L582.1,342.1z"/>
		<polygon class="st4" points="606.2,357.2 592.5,319 600.9,319 610.5,347.3 619.9,319 628.1,319 614.4,357.2 606.2,357.2 		"/>
		<polygon class="st4" points="632,357.2 632,319 660.4,319 660.4,325.5 639.7,325.5 639.7,333.9 658.9,333.9 658.9,340.4 
			639.7,340.4 639.7,350.8 661.1,350.8 661.1,357.2 632,357.2 		"/>
		<polygon class="st4" points="664.3,357.2 664.3,350.3 684.4,325.5 666.6,325.5 666.6,319 694.6,319 694.6,325 673.6,350.8 
			695.4,350.8 695.4,357.2 664.3,357.2 		"/>
		<polygon class="st4" points="697,357.2 697,350.3 717,325.5 699.2,325.5 699.2,319 727.2,319 727.2,325 706.3,350.8 728,350.8 
			728,357.2 697,357.2 		"/>
		<path class="st4" d="M767.4,357.2H759l-3.3-8.7h-15.3l-3.2,8.7H729l14.9-38.2h8.2L767.4,357.2L767.4,357.2z M753.2,342.1
			l-5.3-14.2l-5.2,14.2H753.2L753.2,342.1z"/>
		<polygon class="st4" points="771.5,357.2 771.5,319 779,319 794.7,344.5 794.7,319 801.9,319 801.9,357.2 794.1,357.2 
			778.7,332.3 778.7,357.2 771.5,357.2 		"/>
		<path class="st4" d="M808.5,338.3c0-3.9,0.6-7.2,1.7-9.8c0.9-1.9,2.1-3.7,3.6-5.2c1.5-1.5,3.2-2.7,4.9-3.4c2.4-1,5.1-1.5,8.2-1.5
			c5.6,0,10.1,1.7,13.5,5.2c3.4,3.5,5.1,8.3,5.1,14.6c0,6.2-1.7,11-5,14.5c-3.4,3.5-7.8,5.2-13.4,5.2c-5.7,0-10.2-1.7-13.6-5.2
			C810.1,349.2,808.5,344.4,808.5,338.3L808.5,338.3z M816.4,338.1c0,4.3,1,7.6,3,9.8c2,2.2,4.5,3.3,7.6,3.3c3.1,0,5.6-1.1,7.6-3.3
			c2-2.2,3-5.5,3-10c0-4.4-1-7.6-2.9-9.8c-1.9-2.2-4.5-3.2-7.7-3.2c-3.2,0-5.7,1.1-7.7,3.3C817.4,330.4,816.4,333.7,816.4,338.1
			L816.4,338.1z"/>
		<path class="st6" d="M203.1,654.8v-36.7h15.6c3.9,0,6.8,0.3,8.6,1c1.8,0.7,3.2,1.8,4.3,3.5c1.1,1.7,1.6,3.6,1.6,5.8
			c0,2.8-0.8,5-2.4,6.8c-1.6,1.8-4,2.9-7.3,3.4c1.6,0.9,2.9,2,4,3.1c1,1.1,2.4,3.1,4.2,6l4.5,7.2h-8.9l-5.4-8
			c-1.9-2.9-3.2-4.7-3.9-5.4c-0.7-0.7-1.4-1.2-2.2-1.5c-0.8-0.3-2-0.4-3.7-0.4h-1.5v15.3H203.1L203.1,654.8z M210.5,633.6h5.5
			c3.6,0,5.8-0.1,6.7-0.4c0.9-0.3,1.6-0.8,2.1-1.6c0.5-0.7,0.8-1.7,0.8-2.8c0-1.2-0.3-2.2-1-3c-0.7-0.8-1.6-1.2-2.8-1.4
			c-0.6-0.1-2.4-0.1-5.4-0.1h-5.8V633.6L210.5,633.6z"/>
		<path class="st6" d="M238.6,636.7c0-3.7,0.6-6.9,1.7-9.4c0.8-1.9,2-3.5,3.4-5c1.4-1.5,3-2.6,4.7-3.3c2.3-1,4.9-1.5,7.9-1.5
			c5.4,0,9.7,1.7,13,5c3.3,3.4,4.9,8,4.9,14c0,5.9-1.6,10.6-4.8,13.9c-3.2,3.3-7.5,5-12.9,5c-5.5,0-9.8-1.7-13-5
			C240.2,647.1,238.6,642.5,238.6,636.7L238.6,636.7z M246.3,636.4c0,4.2,1,7.3,2.9,9.5c1.9,2.1,4.4,3.2,7.3,3.2
			c3,0,5.4-1.1,7.3-3.2c1.9-2.1,2.8-5.3,2.8-9.6c0-4.2-0.9-7.4-2.8-9.4c-1.8-2.1-4.3-3.1-7.4-3.1c-3.1,0-5.5,1.1-7.4,3.1
			C247.2,629,246.3,632.2,246.3,636.4L246.3,636.4z"/>
		<polygon class="st6" points="280,654.8 280,618.1 291.1,618.1 297.7,643.1 304.3,618.1 315.4,618.1 315.4,654.8 308.6,654.8 
			308.6,625.9 301.3,654.8 294.1,654.8 286.8,625.9 286.8,654.8 280,654.8 		"/>
		<path class="st6" d="M356,654.8h-8.1l-3.2-8.3H330l-3,8.3h-7.9l14.3-36.7h7.8L356,654.8L356,654.8z M342.3,640.3l-5.1-13.6
			l-5,13.6H342.3L342.3,640.3z"/>
		<path class="st14" d="M203.1,654.8v-36.7h15.6c3.9,0,6.8,0.3,8.6,1c1.8,0.7,3.2,1.8,4.3,3.5c1.1,1.7,1.6,3.6,1.6,5.8
			c0,2.8-0.8,5-2.4,6.8c-1.6,1.8-4,2.9-7.3,3.4c1.6,0.9,2.9,2,4,3.1c1,1.1,2.4,3.1,4.2,6l4.5,7.2h-8.9l-5.4-8
			c-1.9-2.9-3.2-4.7-3.9-5.4c-0.7-0.7-1.4-1.2-2.2-1.5c-0.8-0.3-2-0.4-3.7-0.4h-1.5v15.3H203.1L203.1,654.8z M210.5,633.6h5.5
			c3.6,0,5.8-0.1,6.7-0.4c0.9-0.3,1.6-0.8,2.1-1.6c0.5-0.7,0.8-1.7,0.8-2.8c0-1.2-0.3-2.2-1-3c-0.7-0.8-1.6-1.2-2.8-1.4
			c-0.6-0.1-2.4-0.1-5.4-0.1h-5.8V633.6L210.5,633.6z"/>
		<path class="st14" d="M238.6,636.7c0-3.7,0.6-6.9,1.7-9.4c0.8-1.9,2-3.5,3.4-5c1.4-1.5,3-2.6,4.7-3.3c2.3-1,4.9-1.5,7.9-1.5
			c5.4,0,9.7,1.7,13,5c3.3,3.4,4.9,8,4.9,14c0,5.9-1.6,10.6-4.8,13.9c-3.2,3.3-7.5,5-12.9,5c-5.5,0-9.8-1.7-13-5
			C240.2,647.1,238.6,642.5,238.6,636.7L238.6,636.7z M246.3,636.4c0,4.2,1,7.3,2.9,9.5c1.9,2.1,4.4,3.2,7.3,3.2
			c3,0,5.4-1.1,7.3-3.2c1.9-2.1,2.8-5.3,2.8-9.6c0-4.2-0.9-7.4-2.8-9.4c-1.8-2.1-4.3-3.1-7.4-3.1c-3.1,0-5.5,1.1-7.4,3.1
			C247.2,629,246.3,632.2,246.3,636.4L246.3,636.4z"/>
		<polygon class="st14" points="280,654.8 280,618.1 291.1,618.1 297.7,643.1 304.3,618.1 315.4,618.1 315.4,654.8 308.6,654.8 
			308.6,625.9 301.3,654.8 294.1,654.8 286.8,625.9 286.8,654.8 280,654.8 		"/>
		<path class="st14" d="M356,654.8h-8.1l-3.2-8.3H330l-3,8.3h-7.9l14.3-36.7h7.8L356,654.8L356,654.8z M342.3,640.3l-5.1-13.6
			l-5,13.6H342.3L342.3,640.3z"/>
		<polygon class="st6" points="202.9,735.6 202.9,698.6 210.2,698.6 210.2,729.3 228.3,729.3 228.3,735.6 202.9,735.6 		"/>
		<polygon class="st6" points="233.4,711.5 232.1,704.6 232.1,698.3 239.6,698.3 239.6,704.6 238.5,711.5 233.4,711.5 		"/>
		<path class="st6" d="M277.9,735.6H270l-3.1-8.5h-14.4l-3,8.5h-7.7l14-37.3h7.7L277.9,735.6L277.9,735.6z M264.5,720.8l-5-13.9
			l-4.9,13.9H264.5L264.5,720.8z"/>
		<path class="st6" d="M310.8,730.8c1.8,1.3,3.7,2.4,5.8,3.2l-2.7,5.3c-1.1-0.3-2.2-0.8-3.2-1.4c-0.2-0.1-1.8-1.2-4.8-3.3
			c-2.4,1.1-5,1.6-7.8,1.6c-5.5,0-9.9-1.7-13-5.1c-3.1-3.4-4.7-8.1-4.7-14.2c0-6.1,1.6-10.8,4.7-14.2c3.1-3.4,7.4-5.1,12.8-5.1
			c5.3,0,9.6,1.7,12.7,5.1c3.1,3.4,4.7,8.1,4.7,14.2c0,3.2-0.4,6.1-1.3,8.5C313.3,727.3,312.2,729.1,310.8,730.8L310.8,730.8z
			 M304.9,726.6c0.9-1.1,1.6-2.5,2.1-4.1c0.5-1.6,0.7-3.5,0.7-5.5c0-4.3-0.9-7.5-2.8-9.7c-1.8-2.1-4.2-3.2-7.2-3.2
			c-3,0-5.4,1.1-7.2,3.2c-1.8,2.1-2.8,5.4-2.8,9.6c0,4.4,0.9,7.6,2.8,9.8c1.8,2.2,4.2,3.2,7,3.2c1,0,2-0.2,3-0.5
			c-1.5-1-3-1.8-4.5-2.3l2-4.3C300.5,723.6,302.8,724.9,304.9,726.6L304.9,726.6z"/>
		<path class="st6" d="M320.9,698.3h7.3v20.2c0,3.2,0.1,5.3,0.3,6.2c0.3,1.5,1.1,2.8,2.2,3.7c1.2,0.9,2.8,1.4,4.8,1.4
			c2.1,0,3.6-0.4,4.7-1.3c1-0.9,1.7-1.9,1.9-3.2c0.2-1.3,0.3-3.4,0.3-6.3v-20.6h7.3v19.6c0,4.5-0.2,7.6-0.6,9.5
			c-0.4,1.9-1.1,3.4-2.2,4.7c-1.1,1.3-2.5,2.3-4.2,3c-1.8,0.8-4.1,1.1-6.9,1.1c-3.4,0-6-0.4-7.8-1.2c-1.8-0.8-3.2-1.9-4.2-3.2
			c-1-1.3-1.7-2.7-2-4.1c-0.5-2.1-0.7-5.3-0.7-9.5V698.3L320.9,698.3z"/>
		<polygon class="st6" points="357,735.6 357,698.3 364.3,698.3 364.3,735.6 357,735.6 		"/>
		<polygon class="st6" points="371.5,735.6 371.5,698.6 378.7,698.6 378.7,729.3 396.8,729.3 396.8,735.6 371.5,735.6 		"/>
		<path class="st6" d="M434.5,735.6h-7.9l-3.1-8.5H409l-3,8.5h-7.7l14-37.3h7.7L434.5,735.6L434.5,735.6z M421.1,720.8l-5-13.9
			l-4.9,13.9H421.1L421.1,720.8z"/>
		<polygon class="st14" points="202.9,735.6 202.9,698.6 210.2,698.6 210.2,729.3 228.3,729.3 228.3,735.6 202.9,735.6 		"/>
		<polygon class="st14" points="233.4,711.5 232.1,704.6 232.1,698.3 239.6,698.3 239.6,704.6 238.5,711.5 233.4,711.5 		"/>
		<path class="st14" d="M277.9,735.6H270l-3.1-8.5h-14.4l-3,8.5h-7.7l14-37.3h7.7L277.9,735.6L277.9,735.6z M264.5,720.8l-5-13.9
			l-4.9,13.9H264.5L264.5,720.8z"/>
		<path class="st14" d="M310.8,730.8c1.8,1.3,3.7,2.4,5.8,3.2l-2.7,5.3c-1.1-0.3-2.2-0.8-3.2-1.4c-0.2-0.1-1.8-1.2-4.8-3.3
			c-2.4,1.1-5,1.6-7.8,1.6c-5.5,0-9.9-1.7-13-5.1c-3.1-3.4-4.7-8.1-4.7-14.2c0-6.1,1.6-10.8,4.7-14.2c3.1-3.4,7.4-5.1,12.8-5.1
			c5.3,0,9.6,1.7,12.7,5.1c3.1,3.4,4.7,8.1,4.7,14.2c0,3.2-0.4,6.1-1.3,8.5C313.3,727.3,312.2,729.1,310.8,730.8L310.8,730.8z
			 M304.9,726.6c0.9-1.1,1.6-2.5,2.1-4.1c0.5-1.6,0.7-3.5,0.7-5.5c0-4.3-0.9-7.5-2.8-9.7c-1.8-2.1-4.2-3.2-7.2-3.2
			c-3,0-5.4,1.1-7.2,3.2c-1.8,2.1-2.8,5.4-2.8,9.6c0,4.4,0.9,7.6,2.8,9.8c1.8,2.2,4.2,3.2,7,3.2c1,0,2-0.2,3-0.5
			c-1.5-1-3-1.8-4.5-2.3l2-4.3C300.5,723.6,302.8,724.9,304.9,726.6L304.9,726.6z"/>
		<path class="st14" d="M320.9,698.3h7.3v20.2c0,3.2,0.1,5.3,0.3,6.2c0.3,1.5,1.1,2.8,2.2,3.7c1.2,0.9,2.8,1.4,4.8,1.4
			c2.1,0,3.6-0.4,4.7-1.3c1-0.9,1.7-1.9,1.9-3.2c0.2-1.3,0.3-3.4,0.3-6.3v-20.6h7.3v19.6c0,4.5-0.2,7.6-0.6,9.5
			c-0.4,1.9-1.1,3.4-2.2,4.7c-1.1,1.3-2.5,2.3-4.2,3c-1.8,0.8-4.1,1.1-6.9,1.1c-3.4,0-6-0.4-7.8-1.2c-1.8-0.8-3.2-1.9-4.2-3.2
			c-1-1.3-1.7-2.7-2-4.1c-0.5-2.1-0.7-5.3-0.7-9.5V698.3L320.9,698.3z"/>
		<polygon class="st14" points="357,735.6 357,698.3 364.3,698.3 364.3,735.6 357,735.6 		"/>
		<polygon class="st14" points="371.5,735.6 371.5,698.6 378.7,698.6 378.7,729.3 396.8,729.3 396.8,735.6 371.5,735.6 		"/>
		<path class="st14" d="M434.5,735.6h-7.9l-3.1-8.5H409l-3,8.5h-7.7l14-37.3h7.7L434.5,735.6L434.5,735.6z M421.1,720.8l-5-13.9
			l-4.9,13.9H421.1L421.1,720.8z"/>
		<path class="st6" d="M156.4,642v4.1h-10.6c0.1-1.5,0.5-3,1-4.4c0.6-1.4,1.7-3.2,3.4-5.5c1.4-1.8,2.2-3.1,2.5-3.8
			c0.4-0.9,0.6-1.8,0.6-2.7c0-1-0.2-1.7-0.5-2.3c-0.4-0.5-0.9-0.8-1.5-0.8c-0.6,0-1.1,0.3-1.5,0.8c-0.4,0.6-0.6,1.5-0.6,2.8l-3-0.4
			c0.2-2.4,0.7-4.2,1.7-5.2c0.9-1.1,2.1-1.6,3.6-1.6c1.6,0,2.8,0.6,3.7,1.8c0.9,1.2,1.3,2.7,1.3,4.6c0,1-0.1,2-0.4,2.9
			c-0.3,0.9-0.7,1.9-1.2,2.9c-0.4,0.7-1,1.7-2,2.9c-1,1.3-1.6,2.1-1.8,2.5c-0.3,0.4-0.5,0.8-0.6,1.2H156.4L156.4,642z"/>
		<path class="st6" d="M164.4,646.1v-4.6h-6.5v-3.9l6.9-14.6h2.5v14.6h2v3.9h-2v4.6H164.4L164.4,646.1z M164.4,637.6v-7.8l-3.6,7.8
			H164.4L164.4,637.6z"/>
		<polygon class="st15" points="377.2,633 400.3,633 400.3,638.7 377.2,638.7 377.2,633 		"/>
	</g>
</g>
</svg>
