<?xml version="1.0" encoding="utf-8"?>
<!-- Generator: Adobe Illustrator 19.2.0, SVG Export Plug-In . SVG Version: 6.00 Build 0)  -->
<svg version="1.1" id="Livello_1" xmlns="http://www.w3.org/2000/svg" xmlns:xlink="http://www.w3.org/1999/xlink" x="0px" y="0px"
	 viewBox="0 0 960 960" style="enable-background:new 0 0 960 960;" xml:space="preserve">
<style type="text/css">
	.st0{fill-rule:evenodd;clip-rule:evenodd;fill:#005EA7;stroke:#005EA7;stroke-width:1.0623;stroke-miterlimit:2.6131;}
	.st1{fill-rule:evenodd;clip-rule:evenodd;fill:#916740;stroke:#FFFFFF;stroke-width:5.3116;stroke-miterlimit:2.6131;}
	.st2{fill-rule:evenodd;clip-rule:evenodd;fill:#FFFFFF;}
	.st3{fill-rule:evenodd;clip-rule:evenodd;fill:#FFFFFF;stroke:#FFFFFF;stroke-width:2.4787;stroke-miterlimit:2.6131;}
	.st4{fill-rule:evenodd;clip-rule:evenodd;fill:#E1001A;}
	.st5{fill-rule:evenodd;clip-rule:evenodd;fill:#FFFFFF;stroke:#E1001A;stroke-width:3.5411;stroke-miterlimit:2.6131;}
	.st6{fill-rule:evenodd;clip-rule:evenodd;fill:#1A171B;}
	.st7{fill:none;stroke:#FFFFFF;stroke-width:7.0821;stroke-miterlimit:2.6131;}
</style>
<g>
	<g>
		<polygon class="st0" points="45,240.8 915,240.8 915,719.2 45,719.2 45,240.8 		"/>
		<polygon class="st1" points="96.8,548.5 330.9,548.5 330.9,668.1 96.8,668.1 96.8,548.5 		"/>
		<path class="st2" d="M481.7,375.3l-39.6,67.1c0,3.1,1.9,4.3,4.3,4.7l23.3-4.7v164.4c-13.2-10.9-27.9-10.9-39.2-11.2l3.5-24
			c0.4-2.7-1.2-3.9-3.5-3.9l-66.3,39.2l66.3,39.6c2.3,0,3.5-0.8,3.5-3.9l-3.1-24c27.5,0.8,38.8,17.1,38.8,27.9v21.7h23.7v-33.5
			l186.4-88l6.2,23.3c0.8,3.5,4.1,2.7,5.6,1.7l44-64.2l-77.6-7c-2.3,1.2-3.1,3.1-2.3,5.2l14,19.8c-156.1,73.5-131.1,61.5-176.3,82.8
			V442.4l23.7,4.7c3.1,0.4,4.3-2.3,3.9-4.7L481.7,375.3L481.7,375.3z"/>
		<path class="st3" d="M664.3,615.9c6.5-0.3,10.4-5.1,9.4-11.6l-0.2-1l-0.4-1.1l-0.5-1L613,497.8c-3-4.6-7.2-7.2-12.7-4.9
			c-2.1,1.1-3.6,2.8-4.8,4.7l-59.5,103.1c-2.2,4.1-3,8.4,0.3,12.1c2.6,2.8,5.9,3.1,9.6,3.1l117.1,0H664.3L664.3,615.9z"/>
		<path class="st4" d="M662.8,612.9c1.8,0,3.6,0.2,5.5-1.2c1.9-1.4,3.6-5,1.6-9.1l-59.6-103.3c-3.3-5.8-9.2-5.7-12.4-0.1l-59.5,103
			c-1.3,2.2-2.3,5.3-0.9,7.6c1.9,3,4.9,3,8.1,3.1L662.8,612.9L662.8,612.9z"/>
		<polygon class="st5" points="654.9,600.8 604.1,512.8 553.4,600.8 654.9,600.8 		"/>
		<path class="st6" d="M579.5,581.6l-3.2-4.9l3.2-5.7c1,0,2.9,0,4.2,0c2.4-1.6,0-3.2,0-4.9l0.8-1.6c1.6,0,1.4,0,3.2,0l0.8,1.6
			c0,1.9-2.4,3.2-0.8,4.9c3.1,0,5.6,0,9,0c0.9,0,0.8,0,1.6-0.8c4.9,0,9.8,0,14.7,0c0.8,0.8,0.8,0.8,1.6,0.8v10.6H579.5L579.5,581.6z
			"/>
		<path class="st6" d="M584.8,563c-0.1,0,0.6-2.8,1.1-4.4c0.4-1.1,2.6-3.2,3-4.8c1-4,3-6.8,7.5-6c2,0.3,2.6,2.5,4.9,3.1
			c1.6,0.4,3.6-1.3,5.6-1.3c2.4,0,2.3,2.8,4.6,2.8c1.4,0,2.9-1.4,3.6-1.4c4.6,0,5,5.1,3.7,7.3c-0.6,0.9-2.3,1.6-3.4,1.6
			c-1.7,0-2.9-2.6-4.4-1.4c-1.6,1.3-2.8,2.4-5.3,1.7c-1.4-0.4-2.5-2.6-4.1-2.3l-1.7,0.3c-1.4,1.4-4.2,2.9-6.1,2
			c-2.4-1-4.5-2.4-5.8,1.1l-0.6,1.7H584.8L584.8,563z"/>
		<path class="st6" d="M573.1,589.8v-2.5h3.2c0-1,0-3.1,0-4.3H616v-12.8H631v2.4h-8.2v5.8c0.9,0,2.9,0,4.1,0v7.5h-8.1v1.4h14.6v2.5
			h-6.7c0.8,0.4,1.5,1.3,1.5,2.3c0,1.4-1.2,2.6-2.6,2.6c-1.4,0-2.6-1.2-2.6-2.6c0-1,0.6-1.9,1.4-2.4l-5.6,0h0.1
			c0,2.7-2.2,4.9-4.9,4.9c-2.7,0-4.9-2.2-4.9-4.9l0,0h-2.5l0,0c0,2.7-2.2,4.9-4.9,4.9c-2.7,0-4.9-2.2-4.9-4.9l0,0h-2.4
			c0,2.7-2.2,4.9-4.9,4.9c-2.7,0-4.9-2.2-4.9-4.8h-4.6c0.8,0.4,1.4,1.3,1.4,2.2c0,1.4-1.2,2.7-2.7,2.7c-1.4,0-2.7-1.2-2.7-2.7
			c0-0.9,0.6-1.8,1.4-2.2H573.1L573.1,589.8z"/>
		<path class="st7" d="M76.2,251.2h808.7c11.4,0,20.4,10.3,20.4,20.6v416.6c0,10.1-10.3,20.6-20.4,20.6H76.2
			c-10.3,0-20.6-9.1-20.6-20.6V271.8C55.7,260.3,64.8,251.2,76.2,251.2L76.2,251.2z"/>
		<path class="st2" d="M229,339.6v-46.9h15.3c5.8,0,9.6,0.2,11.3,0.7c2.7,0.7,5,2.2,6.8,4.6c1.8,2.4,2.7,5.4,2.7,9.1
			c0,2.9-0.5,5.3-1.6,7.3c-1.1,2-2.4,3.5-4,4.6c-1.6,1.1-3.3,1.9-4.9,2.2c-2.3,0.4-5.6,0.7-9.9,0.7h-6.2v17.7H229L229,339.6z
			 M238.5,300.7V314h5.2c3.8,0,6.3-0.2,7.5-0.7c1.3-0.5,2.3-1.3,3-2.3c0.7-1,1.1-2.3,1.1-3.6c0-1.7-0.5-3.1-1.5-4.2
			c-1-1.1-2.3-1.8-3.8-2.1c-1.1-0.2-3.4-0.3-6.8-0.3H238.5L238.5,300.7z"/>
		<path class="st2" d="M271,316.5c0-4.8,0.7-8.8,2.2-12c1.1-2.4,2.5-4.5,4.4-6.4c1.9-1.9,3.9-3.3,6.1-4.2c2.9-1.2,6.3-1.9,10.2-1.9
			c6.9,0,12.5,2.1,16.7,6.4c4.2,4.3,6.3,10.2,6.3,17.9c0,7.6-2.1,13.5-6.2,17.8c-4.1,4.3-9.7,6.4-16.6,6.4c-7,0-12.6-2.1-16.7-6.4
			C273,329.8,271,323.9,271,316.5L271,316.5z M280.8,316.2c0,5.3,1.2,9.3,3.7,12.1c2.5,2.7,5.6,4.1,9.4,4.1c3.8,0,6.9-1.4,9.3-4.1
			c2.4-2.7,3.6-6.8,3.6-12.2c0-5.4-1.2-9.4-3.5-12c-2.4-2.6-5.5-4-9.4-4c-3.9,0-7.1,1.3-9.5,4C282,306.7,280.8,310.8,280.8,316.2
			L280.8,316.2z"/>
		<path class="st2" d="M324.2,339.6v-46.9h20c5,0,8.7,0.4,11,1.3c2.3,0.8,4.1,2.3,5.5,4.5c1.4,2.2,2.1,4.6,2.1,7.4
			c0,3.5-1,6.4-3.1,8.7c-2.1,2.3-5.2,3.7-9.3,4.3c2.1,1.2,3.8,2.5,5.1,3.9c1.3,1.4,3.1,4,5.4,7.6l5.8,9.2h-11.4l-6.9-10.2
			c-2.4-3.6-4.1-5.9-5-6.9c-0.9-1-1.9-1.6-2.9-2c-1-0.3-2.6-0.5-4.8-0.5h-1.9v19.6H324.2L324.2,339.6z M333.7,312.6h7
			c4.6,0,7.4-0.2,8.6-0.6c1.1-0.4,2-1,2.7-2c0.6-0.9,1-2.1,1-3.5c0-1.6-0.4-2.9-1.3-3.8c-0.8-1-2-1.6-3.6-1.8
			c-0.8-0.1-3.1-0.2-6.9-0.2h-7.4V312.6L333.7,312.6z"/>
		<polygon class="st2" points="382.3,339.6 382.3,300.7 368.3,300.7 368.3,292.7 405.8,292.7 405.8,300.7 391.8,300.7 391.8,339.6 
			382.3,339.6 		"/>
		<path class="st2" d="M408.8,316.5c0-4.8,0.7-8.8,2.2-12c1.1-2.4,2.5-4.5,4.4-6.4c1.9-1.9,3.9-3.3,6.1-4.2
			c2.9-1.2,6.3-1.9,10.2-1.9c6.9,0,12.5,2.1,16.7,6.4c4.2,4.3,6.3,10.2,6.3,17.9c0,7.6-2.1,13.5-6.2,17.8c-4.1,4.3-9.7,6.4-16.6,6.4
			c-7,0-12.6-2.1-16.7-6.4C410.9,329.8,408.8,323.9,408.8,316.5L408.8,316.5z M418.6,316.2c0,5.3,1.2,9.3,3.7,12.1
			c2.5,2.7,5.6,4.1,9.4,4.1c3.8,0,6.9-1.4,9.3-4.1c2.4-2.7,3.6-6.8,3.6-12.2c0-5.4-1.2-9.4-3.5-12c-2.4-2.6-5.5-4-9.4-4
			c-3.9,0-7.1,1.3-9.5,4C419.8,306.7,418.6,310.8,418.6,316.2L418.6,316.2z"/>
		<polygon class="st2" points="490.9,339.6 490.9,300.7 476.9,300.7 476.9,292.7 514.3,292.7 514.3,300.7 500.4,300.7 500.4,339.6 
			490.9,339.6 		"/>
		<path class="st2" d="M517.4,316.5c0-4.8,0.7-8.8,2.2-12c1.1-2.4,2.5-4.5,4.4-6.4c1.9-1.9,3.9-3.3,6.1-4.2
			c2.9-1.2,6.3-1.9,10.2-1.9c6.9,0,12.5,2.1,16.7,6.4c4.2,4.3,6.3,10.2,6.3,17.9c0,7.6-2.1,13.5-6.2,17.8c-4.1,4.3-9.7,6.4-16.6,6.4
			c-7,0-12.6-2.1-16.7-6.4C519.4,329.8,517.4,323.9,517.4,316.5L517.4,316.5z M527.2,316.2c0,5.3,1.2,9.3,3.7,12.1
			c2.5,2.7,5.6,4.1,9.4,4.1c3.8,0,6.9-1.4,9.3-4.1c2.4-2.7,3.6-6.8,3.6-12.2c0-5.4-1.2-9.4-3.5-12c-2.4-2.6-5.5-4-9.4-4
			c-3.9,0-7.1,1.3-9.5,4C528.4,306.7,527.2,310.8,527.2,316.2L527.2,316.2z"/>
		<path class="st2" d="M570.5,339.6v-46.9h20c5,0,8.7,0.4,11,1.3c2.3,0.8,4.1,2.3,5.5,4.5c1.4,2.2,2.1,4.6,2.1,7.4
			c0,3.5-1,6.4-3.1,8.7c-2.1,2.3-5.2,3.7-9.3,4.3c2.1,1.2,3.8,2.5,5.1,3.9c1.3,1.4,3.1,4,5.4,7.6l5.8,9.2h-11.4l-6.9-10.2
			c-2.4-3.6-4.1-5.9-5-6.9c-0.9-1-1.9-1.6-2.9-2c-1-0.3-2.6-0.5-4.8-0.5h-1.9v19.6H570.5L570.5,339.6z M580.1,312.6h7
			c4.6,0,7.4-0.2,8.6-0.6c1.1-0.4,2-1,2.7-2c0.6-0.9,1-2.1,1-3.5c0-1.6-0.4-2.9-1.3-3.8c-0.8-1-2-1.6-3.6-1.8
			c-0.8-0.1-3.1-0.2-6.9-0.2h-7.4V312.6L580.1,312.6z"/>
		<path class="st2" d="M618.1,339.6v-46.9h20c5,0,8.7,0.4,11,1.3c2.3,0.8,4.1,2.3,5.5,4.5c1.4,2.2,2.1,4.6,2.1,7.4
			c0,3.5-1,6.4-3.1,8.7c-2.1,2.3-5.2,3.7-9.3,4.3c2.1,1.2,3.8,2.5,5.1,3.9c1.3,1.4,3.1,4,5.4,7.6l5.8,9.2h-11.4l-6.9-10.2
			c-2.4-3.6-4.1-5.9-5-6.9c-0.9-1-1.9-1.6-2.9-2c-1-0.3-2.6-0.5-4.8-0.5h-1.9v19.6H618.1L618.1,339.6z M627.6,312.6h7
			c4.6,0,7.4-0.2,8.6-0.6c1.1-0.4,2-1,2.7-2c0.6-0.9,1-2.1,1-3.5c0-1.6-0.4-2.9-1.3-3.8c-0.8-1-2-1.6-3.6-1.8
			c-0.8-0.1-3.1-0.2-6.9-0.2h-7.4V312.6L627.6,312.6z"/>
		<polygon class="st2" points="665.6,339.6 665.6,292.7 700.5,292.7 700.5,300.7 675.1,300.7 675.1,311.1 698.8,311.1 698.8,319 
			675.1,319 675.1,331.7 701.4,331.7 701.4,339.6 665.6,339.6 		"/>
		<path class="st2" d="M707.1,324.4l9.3-0.9c0.5,3.1,1.7,5.4,3.4,6.8c1.7,1.4,4,2.2,6.9,2.2c3.1,0,5.4-0.6,6.9-1.9
			c1.6-1.3,2.3-2.8,2.3-4.5c0-1.1-0.3-2.1-1-2.8c-0.6-0.8-1.8-1.5-3.4-2c-1.1-0.4-3.7-1.1-7.6-2.1c-5.1-1.3-8.7-2.8-10.7-4.6
			c-2.9-2.6-4.3-5.7-4.3-9.4c0-2.4,0.7-4.6,2-6.7c1.4-2.1,3.3-3.7,5.9-4.7c2.6-1.1,5.7-1.6,9.3-1.6c5.9,0,10.4,1.3,13.4,3.9
			c3,2.6,4.6,6,4.7,10.3l-9.5,0.4c-0.4-2.4-1.3-4.1-2.6-5.2c-1.3-1.1-3.3-1.6-6-1.6c-2.8,0-4.9,0.6-6.5,1.7c-1,0.7-1.5,1.7-1.5,2.9
			c0,1.1,0.5,2.1,1.4,2.9c1.2,1,4.1,2.1,8.7,3.1c4.6,1.1,8.1,2.2,10.3,3.4c2.2,1.2,3.9,2.8,5.2,4.8c1.3,2,1.9,4.5,1.9,7.5
			c0,2.7-0.7,5.2-2.3,7.5c-1.5,2.3-3.6,4.1-6.4,5.2c-2.7,1.1-6.2,1.7-10.3,1.7c-6,0-10.5-1.4-13.7-4.1
			C709.6,333.6,707.7,329.6,707.1,324.4L707.1,324.4z"/>
		<path class="st2" d="M614.7,441.6l5.9-0.6c0.3,2.1,1.1,3.6,2.1,4.6c1.1,1,2.5,1.5,4.4,1.5c1.9,0,3.4-0.4,4.4-1.3
			c1-0.9,1.5-1.9,1.5-3c0-0.8-0.2-1.4-0.6-1.9c-0.4-0.5-1.1-1-2.2-1.4c-0.7-0.3-2.3-0.7-4.8-1.4c-3.2-0.8-5.5-1.9-6.8-3.1
			c-1.8-1.7-2.7-3.9-2.7-6.4c0-1.6,0.4-3.1,1.3-4.5c0.9-1.4,2.1-2.5,3.7-3.2c1.6-0.7,3.6-1.1,5.9-1.1c3.8,0,6.6,0.9,8.5,2.6
			c1.9,1.7,2.9,4.1,3,7l-6,0.3c-0.3-1.6-0.8-2.8-1.7-3.5c-0.8-0.7-2.1-1.1-3.8-1.1c-1.8,0-3.1,0.4-4.1,1.1c-0.6,0.5-1,1.1-1,2
			c0,0.8,0.3,1.4,0.9,1.9c0.8,0.7,2.6,1.4,5.5,2.1c2.9,0.7,5.1,1.5,6.5,2.3c1.4,0.8,2.5,1.9,3.3,3.2c0.8,1.4,1.2,3,1.2,5
			c0,1.8-0.5,3.5-1.4,5.1c-1,1.6-2.3,2.8-4,3.5c-1.7,0.8-3.9,1.2-6.5,1.2c-3.8,0-6.7-0.9-8.7-2.8
			C616.3,447.9,615.1,445.2,614.7,441.6L614.7,441.6z"/>
		<polygon class="st2" points="644,451.9 644,445.9 649.7,445.9 649.7,451.9 644,451.9 		"/>
		<path class="st2" d="M681.1,440.3V435h13v12.6c-1.3,1.3-3.1,2.4-5.5,3.4c-2.4,1-4.8,1.5-7.3,1.5c-3.1,0-5.8-0.7-8.2-2.1
			c-2.3-1.4-4.1-3.4-5.2-6c-1.2-2.6-1.7-5.4-1.7-8.4c0-3.3,0.6-6.2,2-8.8c1.3-2.6,3.2-4.5,5.7-5.9c1.9-1.1,4.3-1.6,7.1-1.6
			c3.7,0,6.6,0.8,8.7,2.5c2.1,1.7,3.4,3.9,4,6.8l-6,1.2c-0.4-1.6-1.2-2.8-2.4-3.7c-1.2-0.9-2.6-1.3-4.3-1.3c-2.6,0-4.7,0.9-6.3,2.7
			c-1.6,1.8-2.3,4.4-2.3,7.9c0,3.7,0.8,6.6,2.4,8.5c1.6,1.9,3.6,2.8,6.2,2.8c1.3,0,2.5-0.3,3.8-0.8c1.3-0.5,2.4-1.2,3.3-1.9v-4
			H681.1L681.1,440.3z"/>
		<polygon class="st2" points="699.4,451.9 699.4,420.3 705.4,420.3 705.4,451.9 699.4,451.9 		"/>
		<path class="st2" d="M710,436.3c0-3.2,0.5-5.9,1.4-8.1c0.7-1.6,1.6-3.1,2.8-4.3c1.2-1.3,2.5-2.2,3.9-2.8c1.9-0.8,4-1.3,6.4-1.3
			c4.4,0,7.9,1.4,10.5,4.3c2.6,2.9,4,6.9,4,12.1c0,5.1-1.3,9.1-3.9,12c-2.6,2.9-6.1,4.3-10.5,4.3c-4.4,0-8-1.4-10.6-4.3
			C711.3,445.3,710,441.3,710,436.3L710,436.3z M716.2,436.1c0,3.6,0.8,6.3,2.3,8.1c1.6,1.8,3.5,2.8,5.9,2.8c2.4,0,4.4-0.9,5.9-2.8
			c1.5-1.8,2.3-4.6,2.3-8.3c0-3.6-0.7-6.3-2.2-8.1c-1.5-1.8-3.5-2.7-6-2.7c-2.5,0-4.5,0.9-6,2.7
			C716.9,429.7,716.2,432.4,716.2,436.1L716.2,436.1z"/>
		<polygon class="st2" points="751.2,451.9 740.5,420.3 747.1,420.3 754.6,443.7 761.9,420.3 768.3,420.3 757.6,451.9 751.2,451.9 
					"/>
		<path class="st2" d="M795.2,451.9h-6.6l-2.6-7.2h-11.9l-2.5,7.2h-6.4l11.6-31.6h6.4L795.2,451.9L795.2,451.9z M784.1,439.4
			l-4.1-11.7l-4,11.7H784.1L784.1,439.4z"/>
		<polygon class="st2" points="798.4,451.9 798.4,420.3 804.3,420.3 816.5,441.4 816.5,420.3 822.1,420.3 822.1,451.9 816,451.9 
			804,431.3 804,451.9 798.4,451.9 		"/>
		<polygon class="st2" points="828.5,451.9 828.5,420.3 834.4,420.3 846.6,441.4 846.6,420.3 852.2,420.3 852.2,451.9 846.1,451.9 
			834.1,431.3 834.1,451.9 828.5,451.9 		"/>
		<polygon class="st2" points="858.3,451.9 858.3,420.3 864.3,420.3 864.3,451.9 858.3,451.9 		"/>
		<path class="st2" d="M139.2,594.5h-6.2v-12.1c0-2.6-0.1-4.2-0.4-5c-0.3-0.7-0.7-1.3-1.3-1.8c-0.6-0.4-1.3-0.6-2.1-0.6
			c-1.1,0-2,0.3-2.9,0.9c-0.8,0.6-1.4,1.4-1.7,2.4c-0.3,1-0.5,2.8-0.5,5.5v10.8H118v-23.8h5.7v3.5c2-2.7,4.6-4,7.7-4
			c1.4,0,2.6,0.3,3.7,0.7c1.1,0.5,2,1.1,2.6,1.9c0.6,0.8,1,1.7,1.2,2.6c0.2,1,0.3,2.4,0.3,4.2V594.5L139.2,594.5z"/>
		<path class="st2" d="M160.8,594.5v-3.6c-0.9,1.3-2,2.3-3.3,3c-1.4,0.7-2.8,1.1-4.4,1.1c-1.6,0-3-0.4-4.2-1c-1.2-0.7-2.1-1.7-2.7-3
			c-0.6-1.3-0.8-3-0.8-5.3v-15h6.2v10.9c0,3.3,0.1,5.4,0.3,6.2c0.2,0.7,0.6,1.3,1.2,1.8c0.6,0.4,1.4,0.7,2.3,0.7
			c1.1,0,2-0.3,2.8-0.9c0.8-0.6,1.4-1.3,1.7-2.2c0.3-0.9,0.5-3,0.5-6.4v-10h6.2v23.8H160.8L160.8,594.5z"/>
		<path class="st2" d="M178.8,594.5h-6.2v-23.8h5.7v3.4c1-1.6,1.9-2.7,2.6-3.2c0.8-0.5,1.7-0.8,2.7-0.8c1.4,0,2.8,0.4,4.1,1.2
			l-1.9,5.5c-1-0.7-2-1-2.9-1c-0.9,0-1.6,0.2-2.2,0.7c-0.6,0.5-1.1,1.4-1.4,2.6c-0.3,1.3-0.5,3.9-0.5,8V594.5L178.8,594.5z"/>
		<path class="st2" d="M195,577.9l-5.6-1c0.6-2.3,1.7-4,3.2-5.1c1.5-1.1,3.8-1.7,6.8-1.7c2.8,0,4.8,0.3,6.1,1
			c1.3,0.7,2.3,1.5,2.8,2.5c0.5,1,0.8,2.9,0.8,5.6l-0.1,7.3c0,2.1,0.1,3.6,0.3,4.6c0.2,1,0.6,2.1,1.1,3.2h-6.1
			c-0.2-0.4-0.4-1-0.6-1.9c-0.1-0.4-0.2-0.6-0.2-0.7c-1.1,1-2.2,1.8-3.4,2.4c-1.2,0.5-2.5,0.8-3.8,0.8c-2.4,0-4.3-0.7-5.7-2
			c-1.4-1.3-2.1-3-2.1-5c0-1.3,0.3-2.5,0.9-3.6c0.6-1.1,1.5-1.9,2.6-2.4c1.1-0.6,2.8-1,4.9-1.5c2.9-0.6,4.9-1.1,6-1.5v-0.6
			c0-1.2-0.3-2.1-0.9-2.6c-0.6-0.5-1.7-0.8-3.3-0.8c-1.1,0-2,0.2-2.6,0.7C195.9,576,195.4,576.8,195,577.9L195,577.9z M203.3,583
			c-0.8,0.3-2,0.6-3.8,1c-1.7,0.4-2.8,0.7-3.4,1.1c-0.8,0.6-1.2,1.3-1.2,2.2c0,0.9,0.3,1.6,1,2.3c0.6,0.6,1.5,1,2.5,1
			c1.1,0,2.2-0.4,3.2-1.1c0.7-0.6,1.2-1.3,1.5-2.1c0.2-0.5,0.2-1.6,0.2-3.1V583L203.3,583z"/>
		<path class="st2" d="M214.8,596l7,0.9c0.1,0.8,0.4,1.4,0.8,1.7c0.6,0.5,1.5,0.7,2.8,0.7c1.6,0,2.8-0.2,3.6-0.7
			c0.5-0.3,1-0.9,1.2-1.6c0.2-0.5,0.3-1.5,0.3-2.9v-3.5c-1.8,2.6-4.2,3.9-7,3.9c-3.1,0-5.6-1.3-7.4-4c-1.4-2.1-2.1-4.8-2.1-8
			c0-4,0.9-7,2.8-9.1c1.9-2.1,4.2-3.2,7-3.2c2.9,0,5.3,1.3,7.1,3.9v-3.3h5.8V592c0,2.8-0.2,4.9-0.7,6.3c-0.4,1.4-1.1,2.5-1.9,3.3
			c-0.8,0.8-1.9,1.4-3.3,1.9c-1.4,0.4-3.1,0.7-5.2,0.7c-4,0-6.8-0.7-8.4-2.1c-1.7-1.4-2.5-3.1-2.5-5.2
			C214.8,596.6,214.8,596.3,214.8,596L214.8,596z M220.3,582.1c0,2.5,0.5,4.4,1.4,5.5c1,1.2,2.1,1.8,3.5,1.8c1.5,0,2.8-0.6,3.8-1.8
			c1-1.2,1.6-3,1.6-5.3c0-2.5-0.5-4.3-1.5-5.5c-1-1.2-2.2-1.8-3.8-1.8c-1.5,0-2.7,0.6-3.7,1.8C220.8,577.9,220.3,579.7,220.3,582.1
			L220.3,582.1z"/>
		<path class="st2" d="M249,561.6v12.1c2-2.4,4.4-3.6,7.1-3.6c1.4,0,2.7,0.3,3.8,0.8c1.1,0.5,2,1.2,2.6,2.1c0.6,0.8,1,1.8,1.2,2.8
			c0.2,1,0.3,2.6,0.3,4.7v14h-6.2v-12.6c0-2.5-0.1-4.1-0.4-4.7c-0.2-0.7-0.7-1.2-1.2-1.6c-0.6-0.4-1.3-0.6-2.2-0.6
			c-1,0-1.9,0.3-2.7,0.8c-0.8,0.5-1.4,1.3-1.8,2.3c-0.4,1-0.6,2.5-0.6,4.5v11.9h-6.2v-32.8H249L249,561.6z"/>
		<path class="st2" d="M283.8,586.9l6.1,1c-0.8,2.3-2,4-3.7,5.2c-1.7,1.2-3.8,1.8-6.4,1.8c-4.1,0-7-1.3-9-4.1
			c-1.5-2.2-2.3-4.9-2.3-8.2c0-3.9,1-7,3-9.3c2-2.2,4.6-3.4,7.7-3.4c3.5,0,6.2,1.2,8.2,3.5c2,2.3,3,5.9,2.9,10.7h-15.4
			c0,1.9,0.5,3.3,1.5,4.4c1,1,2.1,1.6,3.6,1.6c1,0,1.8-0.3,2.4-0.8C283,588.9,283.5,588.1,283.8,586.9L283.8,586.9z M284.1,580.5
			c0-1.8-0.5-3.2-1.4-4.2c-0.9-0.9-1.9-1.4-3.2-1.4c-1.3,0-2.5,0.5-3.3,1.5c-0.9,1-1.3,2.4-1.3,4.1H284.1L284.1,580.5z"/>
		<path class="st2" d="M116.5,634.8l6.3-0.6c0.4,2.2,1.1,3.8,2.3,4.8c1.2,1,2.7,1.5,4.7,1.5c2.1,0,3.7-0.5,4.7-1.4
			c1.1-0.9,1.6-2,1.6-3.2c0-0.8-0.2-1.4-0.7-2c-0.4-0.6-1.2-1-2.3-1.4c-0.8-0.3-2.5-0.7-5.2-1.4c-3.5-0.9-5.9-2-7.3-3.2
			c-2-1.8-3-4-3-6.6c0-1.7,0.5-3.2,1.4-4.7c0.9-1.5,2.3-2.6,4-3.3c1.8-0.8,3.9-1.1,6.3-1.1c4.1,0,7.1,0.9,9.1,2.7
			c2,1.8,3.1,4.2,3.2,7.2l-6.5,0.3c-0.3-1.7-0.9-2.9-1.8-3.6c-0.9-0.7-2.3-1.1-4.1-1.1c-1.9,0-3.4,0.4-4.4,1.2c-0.7,0.5-1,1.2-1,2
			c0,0.8,0.3,1.4,1,2c0.8,0.7,2.8,1.4,6,2.2c3.2,0.8,5.5,1.6,7,2.4c1.5,0.8,2.7,1.9,3.6,3.3c0.9,1.4,1.3,3.2,1.3,5.2
			c0,1.9-0.5,3.6-1.5,5.3c-1,1.6-2.5,2.9-4.4,3.7c-1.9,0.8-4.2,1.2-7,1.2c-4.1,0-7.2-1-9.4-2.9C118.2,641.2,116.9,638.5,116.5,634.8
			L116.5,634.8z"/>
		<path class="st2" d="M147.9,621.7h5.8v3.5c0.7-1.2,1.8-2.2,3-2.9c1.3-0.7,2.7-1.1,4.2-1.1c2.7,0,5,1.1,6.9,3.3
			c1.9,2.2,2.8,5.2,2.8,9.1c0,4-1,7.1-2.9,9.3c-1.9,2.2-4.2,3.3-6.9,3.3c-1.3,0-2.5-0.3-3.5-0.8c-1-0.5-2.1-1.4-3.3-2.7v12h-6.2
			V621.7L147.9,621.7z M154,633.2c0,2.7,0.5,4.6,1.6,5.9c1,1.3,2.3,1.9,3.8,1.9c1.4,0,2.6-0.6,3.6-1.8c1-1.2,1.4-3.1,1.4-5.8
			c0-2.5-0.5-4.3-1.5-5.6c-1-1.2-2.2-1.8-3.6-1.8c-1.5,0-2.8,0.6-3.8,1.8C154.5,629.1,154,630.8,154,633.2L154,633.2z"/>
		<path class="st2" d="M189.1,637.9l6.2,1c-0.8,2.3-2,4-3.8,5.2c-1.7,1.2-3.8,1.8-6.4,1.8c-4.1,0-7.1-1.3-9-4.1
			c-1.5-2.2-2.3-4.9-2.3-8.2c0-3.9,1-7,3-9.3c2-2.2,4.6-3.4,7.7-3.4c3.5,0,6.2,1.2,8.2,3.5c2,2.3,3,5.9,2.9,10.7h-15.5
			c0,1.9,0.5,3.3,1.5,4.3c1,1,2.1,1.6,3.6,1.6c1,0,1.8-0.3,2.4-0.8C188.3,640,188.8,639.1,189.1,637.9L189.1,637.9z M189.5,631.5
			c0-1.8-0.5-3.2-1.4-4.2c-0.9-0.9-2-1.4-3.2-1.4c-1.3,0-2.5,0.5-3.3,1.5c-0.9,1-1.3,2.4-1.3,4.1H189.5L189.5,631.5z"/>
		<path class="st2" d="M206.6,645.5h-6.2v-23.8h5.7v3.4c1-1.6,1.9-2.7,2.6-3.2c0.8-0.5,1.7-0.8,2.7-0.8c1.4,0,2.8,0.4,4.1,1.2
			l-1.9,5.5c-1-0.7-2-1-2.9-1c-0.9,0-1.6,0.2-2.2,0.7c-0.6,0.5-1.1,1.4-1.4,2.6c-0.3,1.3-0.5,3.9-0.5,8V645.5L206.6,645.5z"/>
		<path class="st2" d="M222.8,628.9l-5.6-1c0.6-2.3,1.7-4,3.3-5.1c1.5-1.1,3.8-1.7,6.9-1.7c2.8,0,4.8,0.3,6.2,1
			c1.3,0.7,2.3,1.5,2.8,2.5c0.5,1,0.8,2.9,0.8,5.6l-0.1,7.3c0,2.1,0.1,3.6,0.3,4.6c0.2,1,0.6,2.1,1.1,3.2h-6.1
			c-0.2-0.4-0.4-1-0.6-1.9c-0.1-0.4-0.2-0.6-0.2-0.7c-1.1,1-2.2,1.8-3.4,2.4c-1.2,0.5-2.5,0.8-3.8,0.8c-2.4,0-4.3-0.7-5.7-2
			c-1.4-1.3-2.1-3-2.1-5c0-1.3,0.3-2.5,0.9-3.6c0.6-1.1,1.5-1.9,2.6-2.4c1.1-0.6,2.8-1,4.9-1.5c2.9-0.6,4.9-1.1,6-1.5v-0.6
			c0-1.2-0.3-2.1-0.9-2.6c-0.6-0.5-1.7-0.8-3.3-0.8c-1.1,0-2,0.2-2.6,0.7C223.7,627.1,223.2,627.8,222.8,628.9L222.8,628.9z
			 M231,634c-0.8,0.3-2,0.6-3.8,1c-1.7,0.4-2.8,0.7-3.4,1.1c-0.8,0.6-1.2,1.3-1.2,2.2c0,0.9,0.3,1.6,1,2.3c0.6,0.6,1.5,1,2.5,1
			c1.1,0,2.2-0.4,3.2-1.1c0.8-0.6,1.2-1.3,1.5-2.1c0.2-0.5,0.2-1.6,0.2-3.1V634L231,634z"/>
		<path class="st2" d="M264.4,645.5h-6.2v-12.1c0-2.6-0.1-4.2-0.4-5c-0.3-0.7-0.7-1.3-1.3-1.8c-0.6-0.4-1.3-0.6-2.1-0.6
			c-1.1,0-2,0.3-2.9,0.9c-0.8,0.6-1.4,1.4-1.7,2.4c-0.3,1-0.5,2.8-0.5,5.5v10.8h-6.2v-23.8h5.7v3.5c2-2.7,4.6-4,7.7-4
			c1.4,0,2.6,0.3,3.7,0.8c1.1,0.5,2,1.1,2.6,1.9c0.6,0.8,1,1.7,1.2,2.6c0.2,1,0.3,2.4,0.3,4.2V645.5L264.4,645.5z"/>
		<path class="st2" d="M268.2,645.5v-4.9l8.8-10.2c1.4-1.7,2.5-2.9,3.2-3.6c-0.7,0-1.7,0.1-2.8,0.1l-8.2,0v-5.2h19.3v4.5l-8.9,10.5
			l-3.1,3.5c1.7-0.1,2.8-0.2,3.2-0.2h9.6v5.5H268.2L268.2,645.5z"/>
		<path class="st2" d="M297.8,628.9l-5.6-1c0.6-2.3,1.7-4,3.2-5.1c1.5-1.1,3.8-1.7,6.9-1.7c2.8,0,4.8,0.3,6.2,1
			c1.3,0.7,2.3,1.5,2.8,2.5c0.5,1,0.8,2.9,0.8,5.6l-0.1,7.3c0,2.1,0.1,3.6,0.3,4.6c0.2,1,0.6,2.1,1.1,3.2h-6.1
			c-0.2-0.4-0.4-1-0.6-1.9c-0.1-0.4-0.2-0.6-0.2-0.7c-1.1,1-2.2,1.8-3.4,2.4c-1.2,0.5-2.5,0.8-3.8,0.8c-2.4,0-4.3-0.7-5.7-2
			c-1.4-1.3-2.1-3-2.1-5c0-1.3,0.3-2.5,0.9-3.6c0.6-1.1,1.5-1.9,2.6-2.4c1.1-0.6,2.8-1,4.9-1.5c2.9-0.6,4.9-1.1,6-1.5v-0.6
			c0-1.2-0.3-2.1-0.9-2.6c-0.6-0.5-1.7-0.8-3.3-0.8c-1.1,0-2,0.2-2.6,0.7C298.7,627.1,298.2,627.8,297.8,628.9L297.8,628.9z
			 M306.1,634c-0.8,0.3-2,0.6-3.8,1c-1.7,0.4-2.8,0.7-3.4,1.1c-0.8,0.6-1.2,1.3-1.2,2.2c0,0.9,0.3,1.6,1,2.3c0.6,0.6,1.5,1,2.5,1
			c1.1,0,2.2-0.4,3.2-1.1c0.8-0.6,1.2-1.3,1.5-2.1c0.2-0.5,0.2-1.6,0.2-3.1V634L306.1,634z"/>
	</g>
</g>
</svg>
