<?xml version="1.0" encoding="utf-8"?>
<!-- Generator: Adobe Illustrator 19.2.0, SVG Export Plug-In . SVG Version: 6.00 Build 0)  -->
<svg version="1.1" id="Livello_1" xmlns="http://www.w3.org/2000/svg" xmlns:xlink="http://www.w3.org/1999/xlink" x="0px" y="0px"
	 viewBox="0 0 960 960" style="enable-background:new 0 0 960 960;" xml:space="preserve">
<style type="text/css">
	.st0{fill-rule:evenodd;clip-rule:evenodd;fill:#005EA7;stroke:#005EA7;stroke-width:1.0696;stroke-miterlimit:2.6131;}
	.st1{fill-rule:evenodd;clip-rule:evenodd;fill:#FFFFFF;}
	.st2{fill:none;stroke:#FFFFFF;stroke-width:7.1309;stroke-miterlimit:2.6131;}
</style>
<g>
	<g>
		<polygon class="st0" points="45,190.3 915,190.3 915,769.7 45,769.7 45,190.3 		"/>
		<path class="st1" d="M699.9,499l55.8,95.3c0.1,3.4,0,6.2-5.5,6.2l-33.5-6.2l0.1,115.6l-33.6-0.1l-0.1-115.6l-33.3,6.3
			c-5.7,0-5.7-3.1-5.7-6.2L699.9,499L699.9,499z"/>
		<path class="st1" d="M119.7,567l76.3,78.4c4,0.9,7.1-1.1,8.1-4.8l1.8-32.5c26.9-0.2,37.8,10,39,30.1l0,71.7l34.5-0.1l0-71.5
			c0.1-38.1-29.1-59.8-64.5-63.5l14.6-29c1.1-3.8-0.8-7-4.5-8.1L119.7,567L119.7,567z"/>
		<path class="st2" d="M101.6,205.7h758c23.6,0,42.9,19.3,42.9,42.9V713c0,23.6-19.3,42.9-42.9,42.9h-758
			c-23.6,0-42.9-19.3-42.9-42.9V248.6C58.7,225,78,205.7,101.6,205.7L101.6,205.7z"/>
		<path class="st1" d="M133.7,434.9h18.1c3.6,0,6.3,0.2,8,0.5c1.8,0.3,3.3,1.1,4.7,2.1c1.4,1.1,2.5,2.5,3.5,4.3
			c0.9,1.8,1.4,3.8,1.4,6.1c0,2.4-0.6,4.7-1.7,6.7c-1.1,2-2.7,3.6-4.6,4.6c2.7,0.9,4.9,2.5,6.4,4.7c1.5,2.2,2.2,4.8,2.2,7.8
			c0,2.4-0.5,4.7-1.4,6.9c-1,2.2-2.3,4-3.9,5.4c-1.7,1.3-3.7,2.2-6.1,2.5c-1.5,0.2-5.2,0.3-11,0.3h-15.4V434.9L133.7,434.9z
			 M142.9,443.5v12h6c3.6,0,5.8-0.1,6.6-0.2c1.6-0.2,2.8-0.8,3.7-1.9c0.9-1,1.3-2.4,1.3-4.1c0-1.6-0.4-2.9-1.1-3.9
			c-0.8-1-1.9-1.6-3.4-1.8c-0.9-0.1-3.5-0.2-7.8-0.2H142.9L142.9,443.5z M142.9,464.2v13.9h8.4c3.3,0,5.4-0.1,6.3-0.3
			c1.4-0.3,2.5-1,3.3-2.1c0.9-1.1,1.3-2.6,1.3-4.4c0-1.6-0.3-2.9-1-4c-0.7-1.1-1.6-1.9-2.9-2.4c-1.2-0.5-3.9-0.7-8.1-0.7H142.9
			L142.9,464.2z"/>
		<path class="st1" d="M220.1,486.9h-9.9l-3.9-11.8h-18.1l-3.7,11.8h-9.7l17.6-52h9.7L220.1,486.9L220.1,486.9z M203.3,466.3
			l-6.2-19.3l-6.1,19.3H203.3L203.3,466.3z"/>
		<path class="st1" d="M225,486.9v-52h19.2c4.8,0,8.3,0.5,10.5,1.4c2.2,0.9,4,2.6,5.3,5c1.3,2.4,2,5.1,2,8.2c0,3.9-1,7.1-3,9.7
			c-2,2.5-5,4.1-9,4.8c2,1.3,3.6,2.8,4.9,4.4c1.3,1.6,3,4.4,5.2,8.4l5.5,10.1h-10.9l-6.6-11.3c-2.3-4-3.9-6.6-4.8-7.6
			c-0.9-1.1-1.8-1.8-2.7-2.2c-1-0.4-2.5-0.6-4.6-0.6h-1.8v21.7H225L225,486.9z M234.1,456.9h6.8c4.4,0,7.1-0.2,8.2-0.6
			c1.1-0.4,1.9-1.2,2.6-2.2c0.6-1,0.9-2.3,0.9-3.9c0-1.8-0.4-3.2-1.2-4.2c-0.8-1.1-2-1.8-3.4-2c-0.7-0.1-3-0.2-6.7-0.2h-7.1V456.9
			L234.1,456.9z"/>
		<polygon class="st1" points="270.3,486.9 270.3,434.9 279.4,434.9 279.4,486.9 270.3,486.9 		"/>
		<path class="st1" d="M549.5,364.6v-50.1h14.7c5.6,0,9.2,0.3,10.9,0.8c2.6,0.7,4.8,2.4,6.5,4.9c1.8,2.5,2.6,5.8,2.6,9.8
			c0,3.1-0.5,5.7-1.5,7.8c-1,2.1-2.3,3.7-3.8,4.9c-1.5,1.2-3.1,2-4.7,2.4c-2.2,0.5-5.3,0.7-9.5,0.7h-6v18.9H549.5L549.5,364.6z
			 M558.6,322.9v14.2h5c3.6,0,6-0.3,7.2-0.8c1.2-0.5,2.2-1.3,2.9-2.5c0.7-1.1,1-2.4,1-3.9c0-1.8-0.5-3.3-1.5-4.5
			c-1-1.2-2.2-1.9-3.7-2.2c-1.1-0.2-3.3-0.3-6.6-0.3H558.6L558.6,322.9z"/>
		<polygon class="st1" points="591.7,364.6 591.7,314.5 625.3,314.5 625.3,322.9 600.8,322.9 600.8,334 623.6,334 623.6,342.5 
			600.8,342.5 600.8,356.1 626.1,356.1 626.1,364.6 591.7,364.6 		"/>
		<path class="st1" d="M631.6,348.3l8.9-1c0.5,3.3,1.6,5.7,3.3,7.3c1.6,1.5,3.8,2.3,6.6,2.3c2.9,0,5.2-0.7,6.7-2.1
			c1.5-1.4,2.2-3,2.2-4.8c0-1.2-0.3-2.2-0.9-3c-0.6-0.8-1.7-1.6-3.3-2.2c-1.1-0.4-3.5-1.1-7.3-2.2c-4.9-1.3-8.3-3-10.3-5
			c-2.8-2.8-4.2-6.1-4.2-10.1c0-2.6,0.7-4.9,2-7.2c1.3-2.2,3.2-3.9,5.7-5.1c2.5-1.2,5.4-1.7,8.9-1.7c5.7,0,10,1.4,12.8,4.1
			c2.9,2.8,4.4,6.4,4.5,11.1l-9.1,0.4c-0.4-2.6-1.2-4.4-2.5-5.6c-1.3-1.1-3.2-1.7-5.8-1.7c-2.7,0-4.7,0.6-6.2,1.8
			c-1,0.8-1.5,1.8-1.5,3.1c0,1.2,0.4,2.2,1.4,3c1.2,1.1,4,2.2,8.4,3.4c4.5,1.2,7.7,2.4,9.9,3.6c2.1,1.2,3.8,2.9,5,5.1
			c1.2,2.2,1.8,4.8,1.8,8c0,2.9-0.7,5.6-2.2,8.1c-1.4,2.5-3.5,4.4-6.1,5.6c-2.6,1.2-5.9,1.8-9.9,1.8c-5.7,0-10.1-1.5-13.2-4.4
			C634,358.2,632.2,353.9,631.6,348.3L631.6,348.3z"/>
		<path class="st1" d="M705.1,346.2l8.9,3.1c-1.4,5.5-3.6,9.5-6.8,12.2c-3.2,2.7-7.2,4-12,4c-6,0-11-2.3-14.8-6.8
			c-3.9-4.6-5.8-10.8-5.8-18.7c0-8.3,1.9-14.8,5.8-19.4c3.9-4.6,9-6.9,15.4-6.9c5.5,0,10,1.8,13.5,5.4c2.1,2.1,3.6,5.2,4.6,9.2
			l-9.1,2.4c-0.5-2.6-1.6-4.7-3.4-6.2c-1.7-1.5-3.8-2.3-6.2-2.3c-3.4,0-6.1,1.3-8.2,4c-2.1,2.7-3.1,7-3.1,13c0,6.3,1,10.9,3.1,13.5
			c2.1,2.7,4.7,4,8,4c2.4,0,4.5-0.9,6.3-2.6C703.1,352.5,704.3,349.8,705.1,346.2L705.1,346.2z"/>
		<path class="st1" d="M762.7,364.6h-10l-4-11.4h-18.1l-3.7,11.4h-9.7l17.6-50.1h9.7L762.7,364.6L762.7,364.6z M745.8,344.8
			l-6.2-18.6l-6.1,18.6H745.8L745.8,344.8z"/>
		<path class="st1" d="M767.5,364.6v-50.1h19.3c4.8,0,8.4,0.5,10.6,1.4c2.2,0.9,4,2.5,5.3,4.8c1.3,2.3,2,4.9,2,7.9
			c0,3.8-1,6.9-3,9.3c-2,2.4-5,4-9,4.6c2,1.3,3.6,2.7,4.9,4.2c1.3,1.5,3,4.2,5.2,8.1l5.5,9.8h-10.9l-6.6-10.9
			c-2.4-3.9-4-6.3-4.8-7.4c-0.9-1-1.8-1.7-2.8-2.1c-1-0.4-2.5-0.6-4.6-0.6h-1.8v20.9H767.5L767.5,364.6z M776.7,335.6h6.8
			c4.4,0,7.1-0.2,8.2-0.6c1.1-0.4,1.9-1.1,2.6-2.1c0.6-1,0.9-2.3,0.9-3.8c0-1.7-0.4-3-1.2-4.1c-0.8-1-2-1.7-3.4-2
			c-0.7-0.1-3-0.2-6.7-0.2h-7.1V335.6L776.7,335.6z"/>
		<path class="st1" d="M854.1,364.6h-10l-4-11.4H822l-3.7,11.4h-9.7l17.6-50.1h9.7L854.1,364.6L854.1,364.6z M837.2,344.8l-6.2-18.6
			l-6.1,18.6H837.2L837.2,344.8z"/>
		<polygon class="st1" points="465.2,645.7 496,645.7 496,709.8 465.2,709.8 465.2,645.7 		"/>
		<polygon class="st1" points="465.2,514.1 496,514.1 496,578.2 465.2,578.2 465.2,514.1 		"/>
		<polygon class="st1" points="465.2,383 496,383 496,447 465.2,447 465.2,383 		"/>
		<polygon class="st1" points="465.2,251.4 496,251.4 496,315.4 465.2,315.4 465.2,251.4 		"/>
	</g>
</g>
</svg>
