<?xml version="1.0" encoding="utf-8"?>
<!-- Generator: Adobe Illustrator 19.2.0, SVG Export Plug-In . SVG Version: 6.00 Build 0)  -->
<svg version="1.1" id="Livello_1" xmlns="http://www.w3.org/2000/svg" xmlns:xlink="http://www.w3.org/1999/xlink" x="0px" y="0px"
	 viewBox="0 0 960 960" style="enable-background:new 0 0 960 960;" xml:space="preserve">
<style type="text/css">
	.st0{fill:#FFFFFF;stroke:#1A171B;stroke-width:0.9044;stroke-miterlimit:2.6131;}
	.st1{fill:none;stroke:#1A171B;stroke-width:6.0293;stroke-miterlimit:2.6131;}
	.st2{fill-rule:evenodd;clip-rule:evenodd;fill:#005EA7;}
	.st3{fill-rule:evenodd;clip-rule:evenodd;fill:#1A171B;}
	.st4{fill:none;stroke:#1A171B;stroke-width:0.6008;stroke-miterlimit:2.6131;}
	.st5{fill:none;stroke:#1A171B;stroke-width:0.6419;stroke-miterlimit:2.6131;}
	.st6{fill:none;stroke:#1A171B;stroke-width:0.641;stroke-miterlimit:2.6131;}
	.st7{fill-rule:evenodd;clip-rule:evenodd;fill:#1A171B;stroke:#1A171B;stroke-width:1.2075;stroke-miterlimit:2.6131;}
	.st8{fill-rule:evenodd;clip-rule:evenodd;fill:#916740;}
	.st9{fill-rule:evenodd;clip-rule:evenodd;fill:#FFFFFF;}
	.st10{fill:none;stroke:#FFFFFF;stroke-width:3.0147;stroke-miterlimit:2.6131;}
</style>
<g>
	<g>
		<polygon class="st0" points="45,233.3 915,233.3 915,726.7 45,726.7 45,233.3 		"/>
		<path class="st1" d="M74.7,241.8h810.4c11.9,0,21.4,10.3,21.4,21.2v433.8c0,10.9-10.3,21.2-21.4,21.2H74.7
			c-10.9,0-21.2-9.5-21.2-21.2V263C53.5,251.1,62.8,241.8,74.7,241.8L74.7,241.8z"/>
		<polygon class="st2" points="358.6,277.7 601.6,277.7 601.6,358.5 358.6,358.5 358.6,277.7 		"/>
		<path class="st3" d="M480.5,576.3l27.7,47.4c0.1,1.7,0,3.1-2.7,3.1l-16.6-3.1l0,57.4l-16.7,0l0-57.4l-16.6,3.1
			c-2.8,0-2.8-1.5-2.8-3.1L480.5,576.3L480.5,576.3z"/>
		<path class="st3" d="M859.2,608.7l-38.6,39.7c-2,0.4-3.6-0.6-4.1-2.4l-0.9-16.4c-13.6-0.1-19.1,5.1-19.7,15.3l0,36.3l-17.5,0
			l0-36.2c0-19.3,14.7-30.3,32.6-32.2l-7.4-14.7c-0.6-1.9,0.4-3.5,2.3-4.1L859.2,608.7L859.2,608.7z"/>
		<path class="st3" d="M99.6,608.7l38.6,39.7c2,0.4,3.6-0.6,4.1-2.4l0.9-16.4c13.6-0.1,19.1,5.1,19.7,15.3l0,36.3l17.5,0l0-36.2
			c0-19.3-14.7-30.3-32.6-32.2l7.4-14.7c0.6-1.9-0.4-3.5-2.3-4.1L99.6,608.7L99.6,608.7z"/>
		<path class="st4" d="M853.3,293.7c12.8,0,23.3,10.5,23.3,23.3c0,12.8-10.5,23.3-23.3,23.3c-12.8,0-23.3-10.5-23.3-23.3
			C830,304.2,840.5,293.7,853.3,293.7L853.3,293.7z"/>
		<path class="st5" d="M853.5,297.9c10.6,0,19.3,8.7,19.3,19.3c0,10.6-8.7,19.3-19.3,19.3c-10.6,0-19.3-8.7-19.3-19.3
			C834.2,306.5,842.9,297.9,853.5,297.9L853.5,297.9z"/>
		<path class="st6" d="M853.4,301.6c8.5,0,15.4,6.9,15.4,15.4c0,8.5-6.9,15.4-15.4,15.4c-8.5,0-15.4-6.9-15.4-15.4
			C837.9,308.5,844.9,301.6,853.4,301.6L853.4,301.6z"/>
		<path class="st7" d="M853.3,308.9c4.5,0,8.1,3.6,8.1,8.1c0,4.5-3.6,8.1-8.1,8.1s-8.1-3.6-8.1-8.1
			C845.2,312.5,848.9,308.9,853.3,308.9L853.3,308.9z"/>
		<path class="st3" d="M690.6,314.7l-5.7,1.1c-0.2-1.3-0.6-2.2-1.3-2.9c-0.7-0.6-1.5-1-2.6-1c-1.4,0-2.6,0.6-3.4,1.7
			c-0.8,1.1-1.3,3-1.3,5.6c0,2.9,0.4,4.9,1.3,6.1c0.9,1.2,2,1.8,3.5,1.8c1.1,0,2-0.3,2.7-1c0.7-0.7,1.2-1.9,1.5-3.6l5.6,1.1
			c-0.6,2.9-1.7,5.1-3.4,6.6c-1.7,1.5-3.9,2.2-6.7,2.2c-3.2,0-5.7-1.1-7.6-3.4c-1.9-2.2-2.8-5.4-2.8-9.3c0-4,0.9-7.1,2.8-9.4
			c1.9-2.2,4.4-3.4,7.7-3.4c2.6,0,4.7,0.6,6.3,1.9C688.8,310.1,689.9,312.1,690.6,314.7L690.6,314.7z"/>
		<path class="st3" d="M707.5,324.1l5.7,1.1c-0.7,2.4-1.9,4.1-3.5,5.4c-1.6,1.2-3.6,1.8-5.9,1.8c-3.8,0-6.6-1.4-8.4-4.1
			c-1.4-2.2-2.1-5-2.1-8.4c0-4,0.9-7.2,2.8-9.5c1.9-2.3,4.2-3.4,7.1-3.4c3.2,0,5.8,1.2,7.6,3.6c1.9,2.4,2.7,6.1,2.7,11h-14.4
			c0,1.9,0.5,3.4,1.4,4.5c0.9,1.1,2,1.6,3.3,1.6c0.9,0,1.7-0.3,2.3-0.8C706.7,326.2,707.2,325.3,707.5,324.1L707.5,324.1z
			 M707.8,317.6c0-1.9-0.5-3.3-1.3-4.3c-0.8-1-1.8-1.5-3-1.5c-1.3,0-2.3,0.5-3.1,1.5c-0.8,1-1.2,2.4-1.2,4.2H707.8L707.8,317.6z"/>
		<path class="st3" d="M737.9,331.8h-5.7v-12.4c0-2.6-0.1-4.3-0.4-5.1c-0.2-0.8-0.6-1.4-1.2-1.8c-0.5-0.4-1.2-0.6-2-0.6
			c-1,0-1.9,0.3-2.7,0.9c-0.8,0.6-1.3,1.4-1.6,2.4c-0.3,1-0.4,2.9-0.4,5.6v11h-5.7v-24.3h5.3v3.6c1.9-2.8,4.3-4.1,7.1-4.1
			c1.3,0,2.4,0.3,3.5,0.8c1,0.5,1.8,1.2,2.4,2c0.5,0.8,0.9,1.7,1.1,2.7c0.2,1,0.3,2.4,0.3,4.3V331.8L737.9,331.8z"/>
		<path class="st3" d="M753.6,307.5v5.1h-3.9v9.8c0,2,0,3.1,0.1,3.5c0.1,0.3,0.2,0.6,0.5,0.8c0.3,0.2,0.6,0.3,1,0.3
			c0.5,0,1.3-0.2,2.3-0.6l0.5,5c-1.3,0.6-2.8,1-4.5,1c-1,0-2-0.2-2.8-0.6c-0.8-0.4-1.4-0.9-1.8-1.5c-0.4-0.6-0.7-1.5-0.8-2.5
			c-0.1-0.7-0.2-2.3-0.2-4.5v-10.6h-2.6v-5.1h2.6v-4.8l5.7-3.8v8.6H753.6L753.6,307.5z"/>
		<path class="st3" d="M763.1,331.8h-5.7v-24.3h5.3v3.5c0.9-1.6,1.7-2.7,2.5-3.2c0.7-0.5,1.6-0.8,2.5-0.8c1.3,0,2.6,0.4,3.8,1.2
			l-1.8,5.6c-1-0.7-1.9-1-2.7-1c-0.8,0-1.5,0.2-2,0.7c-0.6,0.5-1,1.4-1.3,2.7c-0.3,1.3-0.5,4-0.5,8.2V331.8L763.1,331.8z"/>
		<path class="st3" d="M772.5,319.3c0-2.1,0.5-4.2,1.4-6.2c0.9-2,2.3-3.5,4-4.6c1.7-1.1,3.6-1.6,5.8-1.6c3.3,0,6,1.2,8.1,3.6
			c2.1,2.4,3.1,5.4,3.1,9.1c0,3.7-1.1,6.7-3.2,9.2c-2.1,2.4-4.8,3.6-8,3.6c-2,0-3.9-0.5-5.7-1.5c-1.8-1-3.2-2.5-4.1-4.4
			C773,324.5,772.5,322.1,772.5,319.3L772.5,319.3z M778.4,319.7c0,2.4,0.5,4.3,1.5,5.5c1,1.3,2.3,1.9,3.8,1.9
			c1.5,0,2.7-0.6,3.8-1.9c1-1.3,1.5-3.1,1.5-5.6c0-2.4-0.5-4.2-1.5-5.5c-1-1.3-2.3-1.9-3.8-1.9c-1.5,0-2.8,0.6-3.8,1.9
			C778.9,315.4,778.4,317.3,778.4,319.7L778.4,319.7z"/>
		<polygon class="st2" points="82.6,277.7 308.1,277.7 308.1,358.5 82.6,358.5 82.6,277.7 		"/>
		<polygon class="st8" points="358.6,414.3 601.6,414.3 601.6,495 358.6,495 358.6,414.3 		"/>
		<polygon class="st3" points="322.5,277.7 344.1,277.7 344.1,325.4 322.5,325.4 322.5,277.7 		"/>
		<polygon class="st3" points="322.5,366.6 344.1,366.6 344.1,414.3 322.5,414.3 322.5,366.6 		"/>
		<polygon class="st3" points="322.5,544.5 344.1,544.5 344.1,592.2 322.5,592.2 322.5,544.5 		"/>
		<polygon class="st3" points="322.5,455.7 344.1,455.7 344.1,503.3 322.5,503.3 322.5,455.7 		"/>
		<polygon class="st3" points="322.5,633.6 344.1,633.6 344.1,681.2 322.5,681.2 322.5,633.6 		"/>
		<polygon class="st3" points="616.1,277.7 637.7,277.7 637.7,325.4 616.1,325.4 616.1,277.7 		"/>
		<polygon class="st3" points="616.1,366.6 637.7,366.6 637.7,414.3 616.1,414.3 616.1,366.6 		"/>
		<polygon class="st3" points="616.1,544.5 637.7,544.5 637.7,592.2 616.1,592.2 616.1,544.5 		"/>
		<polygon class="st3" points="616.1,455.7 637.7,455.7 637.7,503.3 616.1,503.3 616.1,455.7 		"/>
		<polygon class="st3" points="616.1,633.6 637.7,633.6 637.7,681.2 616.1,681.2 616.1,633.6 		"/>
		<polygon class="st3" points="85.6,484.1 85.6,453 94.9,453 100.5,474.3 106,453 115.3,453 115.3,484.1 109.5,484.1 109.5,459.7 
			103.4,484.1 97.5,484.1 91.4,459.7 91.4,484.1 85.6,484.1 		"/>
		<path class="st3" d="M125.8,468.5l-5.3-1c0.6-2.2,1.6-3.8,3.1-4.8c1.5-1,3.7-1.6,6.5-1.6c2.6,0,4.6,0.3,5.9,1
			c1.3,0.6,2.2,1.4,2.7,2.4c0.5,1,0.8,2.7,0.8,5.3l-0.1,7c0,2,0.1,3.4,0.3,4.4c0.2,0.9,0.5,1.9,1.1,3H135c-0.2-0.4-0.3-1-0.6-1.8
			c-0.1-0.4-0.2-0.6-0.2-0.7c-1,1-2.1,1.7-3.2,2.2c-1.1,0.5-2.4,0.7-3.7,0.7c-2.3,0-4.1-0.6-5.4-1.9c-1.3-1.3-2-2.9-2-4.8
			c0-1.3,0.3-2.4,0.9-3.4c0.6-1,1.4-1.8,2.5-2.3c1.1-0.5,2.6-1,4.7-1.4c2.7-0.5,4.7-1,5.7-1.5v-0.6c0-1.2-0.3-2-0.8-2.5
			c-0.6-0.5-1.6-0.7-3.2-0.7c-1.1,0-1.9,0.2-2.5,0.6C126.7,466.7,126.2,467.4,125.8,468.5L125.8,468.5z M133.7,473.3
			c-0.8,0.3-1.9,0.6-3.6,0.9c-1.6,0.4-2.7,0.7-3.2,1c-0.8,0.6-1.2,1.3-1.2,2.1c0,0.8,0.3,1.6,0.9,2.2c0.6,0.6,1.4,0.9,2.3,0.9
			c1.1,0,2.1-0.4,3-1.1c0.7-0.5,1.2-1.2,1.4-2c0.2-0.5,0.2-1.5,0.2-2.9V473.3L133.7,473.3z"/>
		<path class="st3" d="M151,484.1h-5.9v-22.5h5.5v3.2c0.9-1.5,1.8-2.5,2.5-3c0.8-0.5,1.6-0.7,2.5-0.7c1.3,0,2.6,0.4,3.9,1.1
			l-1.8,5.2c-1-0.6-1.9-1-2.8-1c-0.8,0-1.5,0.2-2.1,0.7c-0.6,0.5-1,1.3-1.4,2.5s-0.5,3.7-0.5,7.6V484.1L151,484.1z"/>
		<path class="st3" d="M166.4,468.5l-5.3-1c0.6-2.2,1.6-3.8,3.1-4.8c1.5-1,3.7-1.6,6.5-1.6c2.6,0,4.6,0.3,5.9,1
			c1.3,0.6,2.2,1.4,2.7,2.4c0.5,1,0.8,2.7,0.8,5.3l-0.1,7c0,2,0.1,3.4,0.3,4.4c0.2,0.9,0.5,1.9,1.1,3h-5.8c-0.2-0.4-0.3-1-0.6-1.8
			c-0.1-0.4-0.2-0.6-0.2-0.7c-1,1-2.1,1.7-3.2,2.2c-1.1,0.5-2.4,0.7-3.7,0.7c-2.3,0-4.1-0.6-5.4-1.9c-1.3-1.3-2-2.9-2-4.8
			c0-1.3,0.3-2.4,0.9-3.4c0.6-1,1.4-1.8,2.5-2.3c1.1-0.5,2.6-1,4.7-1.4c2.7-0.5,4.7-1,5.7-1.5v-0.6c0-1.2-0.3-2-0.8-2.5
			c-0.6-0.5-1.6-0.7-3.2-0.7c-1.1,0-1.9,0.2-2.5,0.6C167.3,466.7,166.8,467.4,166.4,468.5L166.4,468.5z M174.3,473.3
			c-0.8,0.3-1.9,0.6-3.6,0.9c-1.6,0.4-2.7,0.7-3.2,1c-0.8,0.6-1.2,1.3-1.2,2.1c0,0.8,0.3,1.6,0.9,2.2c0.6,0.6,1.4,0.9,2.3,0.9
			c1.1,0,2.1-0.4,3-1.1c0.7-0.5,1.2-1.2,1.4-2c0.2-0.5,0.2-1.5,0.2-2.9V473.3L174.3,473.3z"/>
		<path class="st3" d="M185.9,458.6V453h5.9v5.5H185.9L185.9,458.6z M185.9,484.1v-22.5h5.9v22.5H185.9L185.9,484.1z"/>
		<path class="st3" d="M218.1,484.1h-5.9v-11.5c0-2.4-0.1-4-0.4-4.7c-0.2-0.7-0.7-1.3-1.2-1.7c-0.6-0.4-1.2-0.6-2-0.6
			c-1,0-1.9,0.3-2.7,0.8c-0.8,0.6-1.4,1.3-1.7,2.3c-0.3,0.9-0.4,2.7-0.4,5.2v10.2h-5.9v-22.5h5.5v3.3c1.9-2.5,4.4-3.8,7.3-3.8
			c1.3,0,2.5,0.2,3.6,0.7c1.1,0.5,1.9,1.1,2.4,1.8c0.6,0.7,0.9,1.6,1.2,2.5c0.2,0.9,0.3,2.3,0.3,4V484.1L218.1,484.1z"/>
		<path class="st3" d="M224.1,458.6V453h5.9v5.5H224.1L224.1,458.6z M224.1,484.1v-22.5h5.9v22.5H224.1L224.1,484.1z"/>
		<path class="st3" d="M89.6,442.5L84.1,429h3.7l2.5,6.9l0.7,2.3c0.2-0.6,0.3-1,0.4-1.2c0.1-0.4,0.2-0.8,0.4-1.1l2.6-6.9h3.7
			l-5.4,13.5H89.6L89.6,442.5z"/>
		<path class="st3" d="M100.3,427.2v-3.3h3.6v3.3H100.3L100.3,427.2z M100.3,442.5V429h3.6v13.5H100.3L100.3,442.5z"/>
		<path class="st3" d="M110.2,433.2l-3.2-0.6c0.4-1.3,1-2.3,1.9-2.9c0.9-0.6,2.2-0.9,4-0.9c1.6,0,2.8,0.2,3.6,0.6
			c0.8,0.4,1.3,0.9,1.6,1.4c0.3,0.6,0.5,1.6,0.5,3.2l0,4.2c0,1.2,0.1,2.1,0.2,2.6c0.1,0.6,0.3,1.2,0.6,1.8h-3.5
			c-0.1-0.2-0.2-0.6-0.3-1.1c-0.1-0.2-0.1-0.4-0.1-0.4c-0.6,0.6-1.3,1-2,1.3c-0.7,0.3-1.4,0.4-2.2,0.4c-1.4,0-2.5-0.4-3.3-1.1
			c-0.8-0.8-1.2-1.7-1.2-2.9c0-0.8,0.2-1.4,0.5-2c0.4-0.6,0.9-1.1,1.5-1.4c0.7-0.3,1.6-0.6,2.8-0.8c1.7-0.3,2.8-0.6,3.5-0.9v-0.4
			c0-0.7-0.2-1.2-0.5-1.5c-0.3-0.3-1-0.4-1.9-0.4c-0.6,0-1.1,0.1-1.5,0.4C110.7,432.1,110.4,432.5,110.2,433.2L110.2,433.2z
			 M115,436.1c-0.5,0.2-1.2,0.3-2.2,0.5c-1,0.2-1.6,0.4-1.9,0.6c-0.5,0.3-0.7,0.7-0.7,1.3c0,0.5,0.2,0.9,0.6,1.3
			c0.4,0.4,0.8,0.5,1.4,0.5c0.6,0,1.3-0.2,1.8-0.6c0.4-0.3,0.7-0.7,0.9-1.2c0.1-0.3,0.1-0.9,0.1-1.7V436.1L115,436.1z"/>
		<polygon class="st3" points="122,442.5 122,423.9 125.6,423.9 125.6,442.5 122,442.5 		"/>
		<path class="st3" d="M137.1,438.2l3.6,0.6c-0.5,1.3-1.2,2.3-2.2,3c-1,0.7-2.2,1-3.7,1c-2.3,0-4.1-0.8-5.2-2.3
			c-0.9-1.2-1.3-2.8-1.3-4.6c0-2.2,0.6-4,1.8-5.3c1.2-1.3,2.6-1.9,4.4-1.9c2,0,3.6,0.7,4.8,2c1.2,1.3,1.7,3.4,1.7,6.1h-8.9
			c0,1.1,0.3,1.9,0.9,2.5c0.6,0.6,1.2,0.9,2.1,0.9c0.6,0,1-0.2,1.4-0.5C136.6,439.4,136.9,438.9,137.1,438.2L137.1,438.2z
			 M137.3,434.6c0-1-0.3-1.8-0.8-2.4c-0.5-0.5-1.1-0.8-1.9-0.8c-0.8,0-1.4,0.3-1.9,0.9c-0.5,0.6-0.8,1.3-0.8,2.3H137.3L137.3,434.6z
			"/>
		<path class="st3" d="M707.6,471l-5.9-14.7h4.1l2.8,7.5l0.8,2.5c0.2-0.6,0.4-1.1,0.4-1.3c0.1-0.4,0.3-0.8,0.4-1.2l2.8-7.5h4
			l-5.8,14.7H707.6L707.6,471z"/>
		<path class="st3" d="M719.3,454.3v-3.6h3.9v3.6H719.3L719.3,454.3z M719.3,471v-14.7h3.9V471H719.3L719.3,471z"/>
		<path class="st3" d="M730.1,460.8l-3.5-0.6c0.4-1.4,1.1-2.5,2-3.2c1-0.7,2.4-1,4.3-1c1.7,0,3,0.2,3.9,0.6c0.8,0.4,1.4,0.9,1.8,1.6
			c0.3,0.6,0.5,1.8,0.5,3.5l0,4.5c0,1.3,0.1,2.2,0.2,2.9c0.1,0.6,0.4,1.3,0.7,2h-3.8c-0.1-0.3-0.2-0.6-0.4-1.1
			c-0.1-0.2-0.1-0.4-0.1-0.5c-0.7,0.6-1.4,1.1-2.1,1.5c-0.8,0.3-1.6,0.5-2.4,0.5c-1.5,0-2.7-0.4-3.6-1.2c-0.9-0.8-1.3-1.9-1.3-3.1
			c0-0.8,0.2-1.6,0.6-2.2c0.4-0.7,1-1.1,1.7-1.5c0.7-0.3,1.7-0.6,3.1-0.9c1.8-0.3,3.1-0.7,3.8-1V461c0-0.8-0.2-1.3-0.6-1.6
			c-0.4-0.3-1.1-0.5-2.1-0.5c-0.7,0-1.2,0.1-1.6,0.4C730.7,459.6,730.3,460.1,730.1,460.8L730.1,460.8z M735.3,464
			c-0.5,0.2-1.3,0.4-2.4,0.6c-1.1,0.2-1.8,0.5-2.1,0.7c-0.5,0.4-0.8,0.8-0.8,1.4c0,0.5,0.2,1,0.6,1.4c0.4,0.4,0.9,0.6,1.5,0.6
			c0.7,0,1.4-0.2,2-0.7c0.5-0.3,0.8-0.8,0.9-1.3c0.1-0.3,0.2-1,0.2-1.9V464L735.3,464z"/>
		<path class="st3" d="M773.4,459.8l6.4,1.9c-1,3.3-2.6,5.8-4.9,7.4c-2.3,1.6-5.2,2.4-8.7,2.4c-4.4,0-7.9-1.4-10.8-4.1
			c-2.8-2.8-4.2-6.6-4.2-11.3c0-5.1,1.4-9,4.2-11.8c2.8-2.8,6.5-4.2,11.1-4.2c4,0,7.3,1.1,9.8,3.3c1.5,1.3,2.6,3.2,3.4,5.6l-6.6,1.5
			c-0.4-1.6-1.2-2.8-2.4-3.7c-1.2-0.9-2.7-1.4-4.5-1.4c-2.4,0-4.4,0.8-5.9,2.4c-1.5,1.6-2.3,4.2-2.3,7.9c0,3.9,0.7,6.6,2.2,8.2
			c1.5,1.6,3.4,2.5,5.8,2.5c1.8,0,3.3-0.5,4.6-1.6C771.9,463.7,772.8,462,773.4,459.8L773.4,459.8z"/>
		<path class="st3" d="M785.4,445.9v-5.4h6.3v5.4H785.4L785.4,445.9z M785.4,471v-22.1h6.3V471H785.4L785.4,471z"/>
		<path class="st3" d="M819.9,471h-6.3v-11.3c0-2.4-0.1-3.9-0.4-4.6c-0.3-0.7-0.7-1.2-1.3-1.6c-0.6-0.4-1.3-0.6-2.2-0.6
			c-1.1,0-2.1,0.3-2.9,0.8c-0.9,0.6-1.5,1.3-1.8,2.2c-0.3,0.9-0.5,2.6-0.5,5.1v10h-6.3v-22.1h5.8v3.2c2.1-2.5,4.7-3.7,7.9-3.7
			c1.4,0,2.7,0.2,3.8,0.7c1.1,0.5,2,1.1,2.6,1.8c0.6,0.7,1,1.5,1.2,2.5c0.2,0.9,0.4,2.2,0.4,3.9V471L819.9,471z"/>
		<path class="st3" d="M837.2,448.9v4.7h-4.3v8.9c0,1.8,0,2.9,0.1,3.2c0.1,0.3,0.3,0.5,0.6,0.7c0.3,0.2,0.7,0.3,1.1,0.3
			c0.6,0,1.4-0.2,2.5-0.6l0.5,4.5c-1.5,0.6-3.1,0.9-5,0.9c-1.1,0-2.2-0.2-3.1-0.5c-0.9-0.4-1.6-0.8-2-1.4c-0.4-0.6-0.7-1.3-0.9-2.3
			c-0.1-0.7-0.2-2.1-0.2-4.1v-9.6h-2.9v-4.7h2.9v-4.4l6.3-3.4v7.8H837.2L837.2,448.9z"/>
		<path class="st3" d="M841.5,445.9v-5.4h6.3v5.4H841.5L841.5,445.9z M841.5,471v-22.1h6.3V471H841.5L841.5,471z"/>
		<path class="st3" d="M859,455.7l-5.7-1c0.6-2.1,1.7-3.7,3.3-4.7c1.6-1,3.9-1.5,7-1.5c2.8,0,4.9,0.3,6.3,0.9
			c1.4,0.6,2.3,1.4,2.9,2.4c0.6,1,0.8,2.7,0.8,5.2l-0.1,6.8c0,1.9,0.1,3.4,0.3,4.3c0.2,0.9,0.6,1.9,1.1,3h-6.2
			c-0.2-0.4-0.4-1-0.6-1.7c-0.1-0.3-0.2-0.6-0.2-0.7c-1.1,1-2.2,1.7-3.5,2.2c-1.2,0.5-2.5,0.7-3.9,0.7c-2.4,0-4.4-0.6-5.8-1.8
			c-1.4-1.2-2.1-2.8-2.1-4.7c0-1.2,0.3-2.4,1-3.3c0.6-1,1.5-1.7,2.7-2.2c1.2-0.5,2.8-1,5-1.4c2.9-0.5,5-1,6.1-1.4V456
			c0-1.1-0.3-1.9-0.9-2.4c-0.6-0.5-1.7-0.7-3.4-0.7c-1.1,0-2,0.2-2.6,0.6C859.9,453.9,859.4,454.6,859,455.7L859,455.7z
			 M867.4,460.4c-0.8,0.2-2.1,0.5-3.8,0.9c-1.7,0.3-2.9,0.7-3.4,1c-0.8,0.5-1.2,1.2-1.2,2.1c0,0.8,0.3,1.5,1,2.1
			c0.7,0.6,1.5,0.9,2.5,0.9c1.1,0,2.2-0.3,3.3-1c0.8-0.5,1.3-1.2,1.5-1.9c0.2-0.5,0.2-1.4,0.2-2.8V460.4L867.4,460.4z"/>
		<polygon class="st9" points="384.6,470.4 384.6,444.5 375,444.5 375,439.2 400.8,439.2 400.8,444.5 391.2,444.5 391.2,470.4 
			384.6,470.4 		"/>
		<path class="st9" d="M415.3,463.2l6.2,1c-0.8,2.2-2.1,3.8-3.8,5c-1.7,1.1-3.9,1.7-6.5,1.7c-4.1,0-7.1-1.3-9.1-3.8
			c-1.6-2.1-2.3-4.7-2.3-7.8c0-3.7,1-6.7,3.1-8.8c2-2.1,4.6-3.2,7.7-3.2c3.5,0,6.3,1.1,8.3,3.3c2,2.2,3,5.6,2.9,10.2h-15.6
			c0,1.8,0.5,3.2,1.5,4.1c1,1,2.2,1.5,3.6,1.5c1,0,1.8-0.3,2.5-0.8C414.5,465.2,415,464.4,415.3,463.2L415.3,463.2z M415.7,457.2
			c0-1.7-0.5-3-1.4-3.9c-0.9-0.9-2-1.4-3.2-1.4c-1.4,0-2.5,0.5-3.4,1.4c-0.9,0.9-1.3,2.2-1.3,3.9H415.7L415.7,457.2z"/>
		<path class="st9" d="M432.9,470.4h-6.2v-22.6h5.8v3.2c1-1.5,1.9-2.5,2.7-3c0.8-0.5,1.7-0.7,2.7-0.7c1.4,0,2.8,0.4,4.1,1.1
			l-1.9,5.2c-1-0.6-2-1-2.9-1c-0.9,0-1.6,0.2-2.2,0.7c-0.6,0.5-1.1,1.3-1.4,2.5c-0.3,1.2-0.5,3.7-0.5,7.6V470.4L432.9,470.4z"/>
		<path class="st9" d="M444.2,447.8h5.8v3.1c2.1-2.4,4.5-3.6,7.4-3.6c1.5,0,2.8,0.3,3.9,0.9c1.1,0.6,2,1.5,2.7,2.7
			c1-1.2,2.2-2.1,3.3-2.7c1.2-0.6,2.5-0.9,3.8-0.9c1.7,0,3.2,0.3,4.4,1c1.2,0.7,2.1,1.7,2.7,3c0.4,1,0.6,2.5,0.6,4.7v14.4h-6.2
			v-12.9c0-2.2-0.2-3.7-0.6-4.3c-0.6-0.8-1.5-1.3-2.7-1.3c-0.9,0-1.7,0.3-2.5,0.8c-0.8,0.5-1.3,1.3-1.7,2.2c-0.3,1-0.5,2.5-0.5,4.7
			v10.8h-6.2V458c0-2.2-0.1-3.6-0.3-4.3c-0.2-0.6-0.6-1.1-1-1.4c-0.5-0.3-1.1-0.5-1.9-0.5c-1,0-1.8,0.2-2.6,0.7
			c-0.8,0.5-1.3,1.2-1.7,2.1c-0.3,0.9-0.5,2.5-0.5,4.7v11h-6.2V447.8L444.2,447.8z"/>
		<path class="st9" d="M485.1,444.8v-5.5h6.2v5.5H485.1L485.1,444.8z M485.1,470.4v-22.6h6.2v22.6H485.1L485.1,470.4z"/>
		<path class="st9" d="M519.2,470.4h-6.2v-11.5c0-2.4-0.1-4-0.4-4.7c-0.3-0.7-0.7-1.3-1.3-1.7c-0.6-0.4-1.3-0.6-2.2-0.6
			c-1.1,0-2.1,0.3-2.9,0.9c-0.9,0.6-1.4,1.3-1.8,2.3c-0.3,0.9-0.5,2.7-0.5,5.2v10.2h-6.2v-22.6h5.8v3.3c2.1-2.6,4.7-3.8,7.8-3.8
			c1.4,0,2.6,0.2,3.8,0.7c1.1,0.5,2,1.1,2.6,1.8c0.6,0.7,1,1.6,1.2,2.5c0.2,0.9,0.3,2.3,0.3,4V470.4L519.2,470.4z"/>
		<path class="st9" d="M525.5,444.8v-5.5h6.2v5.5H525.5L525.5,444.8z M525.5,470.4v-22.6h6.2v22.6H525.5L525.5,470.4z"/>
		<polygon class="st9" points="538.1,470.4 538.1,439.2 544.4,439.2 544.4,470.4 538.1,470.4 		"/>
		<polygon class="st9" points="550.8,470.4 550.8,439.2 557,439.2 557,470.4 550.8,470.4 		"/>
		<path class="st9" d="M562,458.8c0-2,0.5-3.9,1.5-5.8c1-1.9,2.5-3.3,4.3-4.2c1.9-1,4-1.5,6.3-1.5c3.6,0,6.5,1.1,8.8,3.3
			c2.3,2.2,3.4,5,3.4,8.4c0,3.4-1.1,6.2-3.4,8.5c-2.3,2.3-5.2,3.4-8.7,3.4c-2.2,0-4.2-0.5-6.2-1.4c-2-0.9-3.5-2.3-4.5-4.1
			C562.5,463.6,562,461.4,562,458.8L562,458.8z M568.4,459.1c0,2.2,0.6,4,1.7,5.1c1.1,1.2,2.5,1.8,4.1,1.8c1.6,0,3-0.6,4.1-1.8
			c1.1-1.2,1.7-2.9,1.7-5.2c0-2.2-0.6-3.9-1.7-5.1c-1.1-1.2-2.5-1.8-4.1-1.8c-1.6,0-3,0.6-4.1,1.8
			C568.9,455.2,568.4,456.9,568.4,459.1L568.4,459.1z"/>
		<path class="st9" d="M448.4,324.5l6-0.6c0.4,2.2,1.1,3.8,2.2,4.8c1.1,1,2.6,1.5,4.5,1.5c2,0,3.5-0.5,4.5-1.4c1-0.9,1.5-2,1.5-3.2
			c0-0.8-0.2-1.5-0.6-2c-0.4-0.6-1.2-1-2.2-1.4c-0.7-0.3-2.4-0.8-5-1.5c-3.3-0.9-5.6-2-7-3.3c-1.9-1.8-2.8-4.1-2.8-6.7
			c0-1.7,0.4-3.3,1.3-4.8c0.9-1.5,2.2-2.6,3.8-3.4c1.7-0.8,3.7-1.2,6-1.2c3.9,0,6.7,0.9,8.7,2.7c1.9,1.8,3,4.3,3.1,7.3l-6.2,0.3
			c-0.3-1.7-0.8-2.9-1.7-3.7c-0.9-0.8-2.2-1.1-3.9-1.1c-1.8,0-3.2,0.4-4.2,1.2c-0.7,0.5-1,1.2-1,2.1c0,0.8,0.3,1.5,0.9,2
			c0.8,0.7,2.7,1.5,5.7,2.2c3,0.8,5.2,1.6,6.7,2.4c1.4,0.8,2.6,2,3.4,3.4c0.8,1.4,1.2,3.2,1.2,5.3c0,1.9-0.5,3.7-1.5,5.4
			c-1,1.7-2.4,2.9-4.1,3.7c-1.8,0.8-4,1.2-6.7,1.2c-3.9,0-6.9-1-8.9-2.9C450.1,331,448.8,328.2,448.4,324.5L448.4,324.5z"/>
		<path class="st9" d="M482.9,318.5l-5.3-1c0.6-2.3,1.6-4.1,3.1-5.2c1.5-1.1,3.6-1.7,6.5-1.7c2.6,0,4.6,0.3,5.9,1
			c1.3,0.7,2.2,1.5,2.7,2.6c0.5,1,0.8,2.9,0.8,5.7l-0.1,7.4c0,2.1,0.1,3.7,0.3,4.7c0.2,1,0.5,2.1,1.1,3.2H492
			c-0.1-0.4-0.3-1.1-0.6-1.9c-0.1-0.4-0.2-0.6-0.2-0.8c-1,1.1-2.1,1.9-3.2,2.4c-1.1,0.5-2.4,0.8-3.7,0.8c-2.3,0-4.1-0.7-5.4-2
			c-1.3-1.3-2-3.1-2-5.1c0-1.4,0.3-2.6,0.9-3.6c0.6-1.1,1.4-1.9,2.5-2.5c1.1-0.6,2.6-1.1,4.7-1.5c2.7-0.6,4.7-1.1,5.7-1.6v-0.6
			c0-1.2-0.3-2.1-0.8-2.6c-0.6-0.5-1.6-0.8-3.2-0.8c-1.1,0-1.9,0.2-2.5,0.7C483.8,316.6,483.3,317.4,482.9,318.5L482.9,318.5z
			 M490.8,323.7c-0.7,0.3-1.9,0.6-3.6,1c-1.6,0.4-2.7,0.8-3.2,1.1c-0.8,0.6-1.1,1.3-1.1,2.2c0,0.9,0.3,1.7,0.9,2.3
			c0.6,0.7,1.4,1,2.3,1c1.1,0,2.1-0.4,3-1.1c0.7-0.6,1.2-1.3,1.4-2.1c0.2-0.5,0.2-1.6,0.2-3.1V323.7L490.8,323.7z"/>
		<polygon class="st9" points="502.4,335.3 502.4,302 508.2,302 508.2,335.3 502.4,335.3 		"/>
		<path class="st9" d="M518.7,318.5l-5.3-1c0.6-2.3,1.6-4.1,3.1-5.2c1.5-1.1,3.6-1.7,6.5-1.7c2.6,0,4.6,0.3,5.9,1
			c1.3,0.7,2.2,1.5,2.7,2.6c0.5,1,0.8,2.9,0.8,5.7l-0.1,7.4c0,2.1,0.1,3.7,0.3,4.7c0.2,1,0.5,2.1,1.1,3.2h-5.8
			c-0.1-0.4-0.3-1.1-0.6-1.9c-0.1-0.4-0.2-0.6-0.2-0.8c-1,1.1-2.1,1.9-3.2,2.4c-1.1,0.5-2.4,0.8-3.7,0.8c-2.3,0-4.1-0.7-5.4-2
			c-1.3-1.3-2-3.1-2-5.1c0-1.4,0.3-2.6,0.9-3.6c0.6-1.1,1.4-1.9,2.5-2.5c1.1-0.6,2.6-1.1,4.7-1.5c2.7-0.6,4.6-1.1,5.7-1.6v-0.6
			c0-1.2-0.3-2.1-0.8-2.6c-0.6-0.5-1.6-0.8-3.2-0.8c-1.1,0-1.9,0.2-2.4,0.7C519.5,316.6,519,317.4,518.7,318.5L518.7,318.5z
			 M526.5,323.7c-0.7,0.3-1.9,0.6-3.6,1c-1.6,0.4-2.7,0.8-3.2,1.1c-0.8,0.6-1.1,1.3-1.1,2.2c0,0.9,0.3,1.7,0.9,2.3
			c0.6,0.7,1.4,1,2.3,1c1.1,0,2.1-0.4,3-1.1c0.7-0.6,1.2-1.3,1.4-2.1c0.2-0.5,0.2-1.6,0.2-3.1V323.7L526.5,323.7z"/>
		<path class="st9" d="M543.7,335.3h-5.9v-24.1h5.5v3.4c0.9-1.6,1.8-2.7,2.5-3.2c0.7-0.5,1.6-0.8,2.5-0.8c1.3,0,2.6,0.4,3.9,1.2
			l-1.8,5.6c-1-0.7-1.9-1-2.8-1c-0.8,0-1.5,0.2-2.1,0.7c-0.6,0.5-1,1.4-1.3,2.7c-0.3,1.3-0.5,4-0.5,8.1V335.3L543.7,335.3z"/>
		<path class="st9" d="M554.8,307.9V302h5.9v5.9H554.8L554.8,307.9z M554.8,335.3v-24.1h5.9v24.1H554.8L554.8,335.3z"/>
		<path class="st9" d="M571.1,318.5l-5.3-1c0.6-2.3,1.6-4.1,3.1-5.2c1.5-1.1,3.6-1.7,6.5-1.7c2.6,0,4.6,0.3,5.9,1
			c1.3,0.7,2.2,1.5,2.7,2.6c0.5,1,0.8,2.9,0.8,5.7l-0.1,7.4c0,2.1,0.1,3.7,0.3,4.7c0.2,1,0.5,2.1,1.1,3.2h-5.8
			c-0.1-0.4-0.3-1.1-0.6-1.9c-0.1-0.4-0.2-0.6-0.2-0.8c-1,1.1-2.1,1.9-3.2,2.4c-1.1,0.5-2.4,0.8-3.7,0.8c-2.3,0-4.1-0.7-5.4-2
			c-1.3-1.3-2-3.1-2-5.1c0-1.4,0.3-2.6,0.9-3.6c0.6-1.1,1.4-1.9,2.5-2.5c1.1-0.6,2.6-1.1,4.7-1.5c2.7-0.6,4.6-1.1,5.7-1.6v-0.6
			c0-1.2-0.3-2.1-0.8-2.6c-0.6-0.5-1.6-0.8-3.2-0.8c-1.1,0-1.9,0.2-2.4,0.7C571.9,316.6,571.4,317.4,571.1,318.5L571.1,318.5z
			 M578.9,323.7c-0.7,0.3-1.9,0.6-3.6,1c-1.6,0.4-2.7,0.8-3.2,1.1c-0.8,0.6-1.2,1.3-1.2,2.2c0,0.9,0.3,1.7,0.9,2.3
			c0.6,0.7,1.4,1,2.3,1c1.1,0,2.1-0.4,3-1.1c0.7-0.6,1.2-1.3,1.4-2.1c0.2-0.5,0.2-1.6,0.2-3.1V323.7L578.9,323.7z"/>
		<polygon class="st9" points="118.9,338.7 118.9,303.4 106.4,303.4 106.4,296.3 139.9,296.3 139.9,303.4 127.4,303.4 127.4,338.7 
			118.9,338.7 		"/>
		<polygon class="st9" points="145.4,338.7 145.4,296.3 176.6,296.3 176.6,303.4 153.9,303.4 153.9,312.9 175.1,312.9 175.1,320 
			153.9,320 153.9,331.6 177.4,331.6 177.4,338.7 145.4,338.7 		"/>
		<path class="st9" d="M184.7,338.7v-42.5h17.9c4.5,0,7.8,0.4,9.8,1.1c2,0.8,3.7,2.1,4.9,4.1c1.2,2,1.8,4.2,1.8,6.7
			c0,3.2-0.9,5.8-2.8,7.9c-1.9,2.1-4.6,3.4-8.3,3.9c1.8,1.1,3.4,2.3,4.6,3.6c1.2,1.3,2.8,3.6,4.8,6.9l5.2,8.3h-10.2l-6.1-9.2
			c-2.2-3.3-3.7-5.4-4.5-6.2c-0.8-0.9-1.7-1.4-2.6-1.8c-0.9-0.3-2.3-0.5-4.3-0.5h-1.7v17.7H184.7L184.7,338.7z M193.2,314.2h6.3
			c4.1,0,6.6-0.2,7.6-0.5c1-0.3,1.8-0.9,2.4-1.8c0.6-0.9,0.9-1.9,0.9-3.2c0-1.4-0.4-2.6-1.1-3.5c-0.8-0.9-1.8-1.4-3.2-1.7
			c-0.7-0.1-2.8-0.1-6.2-0.1h-6.6V314.2L193.2,314.2z"/>
		<polygon class="st9" points="227.2,338.7 227.2,296.3 235.5,296.3 252.7,324.6 252.7,296.3 260.6,296.3 260.6,338.7 252.1,338.7 
			235.1,311 235.1,338.7 227.2,338.7 		"/>
		<polygon class="st9" points="269.3,338.7 269.3,296.3 277.9,296.3 277.9,338.7 269.3,338.7 		"/>
		<path class="st9" d="M396.7,321.3l2.8-0.3c0.2,1.3,0.6,2.2,0.7,2.8c0.6,0.5,1.3,0.8,2.1,0.8c1.1,0,1.7-0.3,2.2-0.6
			c0.2-0.6,0.7-1.3,0.7-1.9c0-0.6-0.2-0.8-0.6-1.1c-0.2-0.5-0.4-0.6-0.9-1.1c-0.2-0.2-0.7-0.3-2.1-0.8c-1.5-0.3-2.4-1.1-3.2-1.7
			c-0.7-1.3-1.1-2.5-1.1-4.1c0-0.9,0.2-1.9,0.6-2.7c0.4-0.9,1.1-1.4,1.7-2.1c0.6-0.5,1.7-0.6,2.6-0.6c1.7,0,3.2,0.5,3.9,1.6
			c0.9,1.3,1.3,2.7,1.3,4.4l-2.8,0.2c-0.2-0.9-0.2-1.7-0.7-2.2c-0.2-0.3-0.9-0.6-1.7-0.6s-1.5,0.3-1.9,0.6c-0.2,0.5-0.4,0.8-0.4,1.3
			c0,0.6,0.2,0.9,0.4,1.3c0.4,0.3,1.3,0.8,2.6,1.3c1.3,0.5,2.4,0.9,3,1.4c0.4,0.5,1.1,1.1,1.5,2.1c0.4,0.6,0.6,1.7,0.6,3
			c0,1-0.4,2.2-0.7,3c-0.4,0.9-1.1,1.9-1.9,2.2c-0.9,0.5-1.7,0.6-3,0.6c-1.9,0-3.2-0.5-4.1-1.6C397.7,325.1,396.9,323.6,396.7,321.3
			L396.7,321.3z"/>
		<path class="st9" d="M384,321.3l2.6-0.3c0.2,1.3,0.4,2.2,1.1,2.8c0.2,0.5,0.9,0.8,1.9,0.8c0.9,0,1.7-0.3,2.1-0.6
			c0.6-0.6,0.6-1.3,0.6-1.9c0-0.6,0-0.8-0.2-1.1c-0.2-0.5-0.6-0.6-1.1-1.1c-0.2-0.2-0.9-0.3-2.2-0.8c-1.1-0.3-2.4-1.1-2.8-1.7
			c-0.9-1.3-1.3-2.5-1.3-4.1c0-0.9,0.2-1.9,0.6-2.7c0.4-0.9,0.9-1.4,1.7-2.1c0.9-0.5,1.7-0.6,2.8-0.6c1.7,0,2.8,0.5,3.7,1.6
			c0.9,1.3,1.3,2.7,1.5,4.4l-2.8,0.2c-0.2-0.9-0.4-1.7-0.6-2.2c-0.7-0.3-1.1-0.6-1.9-0.6c-0.9,0-1.5,0.3-1.9,0.6
			c-0.2,0.5-0.4,0.8-0.4,1.3c0,0.6,0.2,0.9,0.4,1.3c0.2,0.3,0.9,0.8,2.4,1.3c1.3,0.5,2.2,0.9,2.8,1.4c0.9,0.5,1.3,1.1,1.7,2.1
			c0.2,0.6,0.6,1.7,0.6,3c0,1-0.4,2.2-0.7,3c-0.4,0.9-0.9,1.9-1.9,2.2c-0.7,0.5-1.9,0.6-3,0.6c-1.7,0-3-0.5-3.9-1.6
			C384.8,325.1,384.2,323.6,384,321.3L384,321.3z"/>
		<path class="st10" d="M385.4,299.1h39.4c5,0,9.1,4.1,9.1,9.1v18.9c0,5-4.1,9.1-9.1,9.1h-39.4c-5,0-9.1-4.1-9.1-9.1v-18.9
			C376.3,303.2,380.4,299.1,385.4,299.1L385.4,299.1z"/>
		<path class="st9" d="M419.3,328v-4h-6.5v-3.3l6.9-12.6h2.6v12.6h2v3.4h-2v4H419.3L419.3,328z M419.3,320.7v-6.8l-3.7,6.8H419.3
			L419.3,320.7z"/>
	</g>
</g>
</svg>
