<?xml version="1.0" encoding="utf-8"?>
<!-- Generator: Adobe Illustrator 19.2.0, SVG Export Plug-In . SVG Version: 6.00 Build 0)  -->
<svg version="1.1" id="Livello_1" xmlns="http://www.w3.org/2000/svg" xmlns:xlink="http://www.w3.org/1999/xlink" x="0px" y="0px"
	 viewBox="0 0 960 960" style="enable-background:new 0 0 960 960;" xml:space="preserve">
<style type="text/css">
	.st0{fill-rule:evenodd;clip-rule:evenodd;fill:#008E43;stroke:#008E43;stroke-width:1.2128;stroke-miterlimit:2.6131;}
	.st1{fill-rule:evenodd;clip-rule:evenodd;fill:#FFFFFF;}
	.st2{fill-rule:evenodd;clip-rule:evenodd;fill:#1A171B;stroke:#1A171B;stroke-width:3.2341;stroke-miterlimit:2.6131;}
	.st3{fill:none;stroke:#FFFFFF;stroke-width:8.0853;stroke-miterlimit:2.6131;}
	.st4{fill-rule:evenodd;clip-rule:evenodd;fill:#005EA7;}
	.st5{fill-rule:evenodd;clip-rule:evenodd;fill:#1A171B;}
	.st6{fill:none;stroke:#FFFFFF;stroke-width:4.0427;stroke-miterlimit:2.6131;}
</style>
<g>
	<g>
		<polygon class="st0" points="52.9,120 907.1,120 907.1,840 52.9,840 52.9,120 		"/>
		<path class="st1" d="M480.1,532.9l60.1,102.8c0.2,3.7,0,6.7-6,6.7l-36.1-6.7l0.1,124.7l-36.3-0.1l-0.1-124.7l-35.9,6.8
			c-6.1,0-6.1-3.4-6.1-6.7L480.1,532.9L480.1,532.9z"/>
		<polygon class="st1" points="210.3,368.6 749.2,368.6 749.2,478.4 210.3,478.4 210.3,368.6 		"/>
		<path class="st2" d="M258.5,426.6l0.7-5.2l29.7-16.4c0.1-8.1-0.6-18.2,5.2-24.4c6,5.9,5.2,16.3,5.2,24.4l29.7,16.3l0.8,5.2
			l-26-5.1l-4.5,0l-3,30.4l8.2,7.4l0,3.8l-8.8-6l-1.5,7.4l-1.5-7.4l-8.9,6l0-3.7l8.2-7.4l-3-30.5l-4.5,0.1L258.5,426.6L258.5,426.6z
			"/>
		<path class="st3" d="M101.4,133.7h756.8c19.4,0,35.2,17,35.2,34.8v623c0,18.2-17,34.4-35.2,34.4H101.4c-17.8,0-34.8-15-34.8-34.4
			v-623C66.6,149.1,82,133.7,101.4,133.7L101.4,133.7z"/>
		<polygon class="st4" points="210.2,203.6 749.2,203.6 749.2,313.4 210.2,313.4 210.2,203.6 		"/>
		<path class="st1" d="M411,293.8v-68.3h20.6c7.8,0,12.9,0.3,15.3,1c3.6,1,6.7,3.2,9.2,6.7c2.5,3.4,3.7,7.9,3.7,13.3
			c0,4.2-0.7,7.7-2.1,10.6c-1.4,2.9-3.2,5.1-5.4,6.7c-2.2,1.6-4.4,2.7-6.6,3.2c-3.1,0.6-7.5,1-13.3,1h-8.4v25.8H411L411,293.8z
			 M423.8,237.1v19.4h7c5.1,0,8.5-0.4,10.2-1.1c1.7-0.7,3-1.8,4-3.4c1-1.5,1.5-3.3,1.5-5.3c0-2.5-0.7-4.5-2-6.2
			c-1.3-1.6-3.1-2.6-5.2-3c-1.5-0.3-4.6-0.5-9.2-0.5H423.8L423.8,237.1z"/>
		<path class="st1" d="M521,293.8h-14l-5.5-15.5h-25.4l-5.2,15.5h-13.6l24.8-68.3h13.6L521,293.8L521,293.8z M497.4,266.8l-8.8-25.4
			l-8.6,25.4H497.4L497.4,266.8z"/>
		<polygon class="st1" points="537.4,293.8 514.7,225.5 528.6,225.5 544.7,276.1 560.3,225.5 573.9,225.5 551.1,293.8 537.4,293.8 
					"/>
		<polygon class="st1" points="580.1,293.8 580.1,225.5 592.9,225.5 592.9,293.8 580.1,293.8 		"/>
		<path class="st1" d="M662.5,293.8h-14l-5.6-15.5h-25.4l-5.2,15.5h-13.6l24.8-68.3H637L662.5,293.8L662.5,293.8z M638.9,266.8
			l-8.8-25.4l-8.6,25.4H638.9L638.9,266.8z"/>
		<polygon class="st5" points="354.6,447.9 354.6,393.2 371.1,393.2 381,430.5 390.8,393.2 407.4,393.2 407.4,447.9 397.1,447.9 
			397.1,404.9 386.3,447.9 375.7,447.9 364.9,404.9 364.9,447.9 354.6,447.9 		"/>
		<path class="st5" d="M426.1,420.4l-9.5-1.7c1.1-3.8,2.9-6.7,5.5-8.5c2.6-1.8,6.5-2.8,11.6-2.8c4.7,0,8.2,0.6,10.4,1.7
			c2.3,1.1,3.9,2.5,4.8,4.2c0.9,1.7,1.4,4.8,1.4,9.4l-0.1,12.2c0,3.5,0.2,6,0.5,7.7c0.3,1.6,1,3.4,1.9,5.3h-10.4
			c-0.3-0.7-0.6-1.7-1-3.1c-0.2-0.6-0.3-1-0.4-1.2c-1.8,1.7-3.7,3-5.7,3.9c-2,0.9-4.2,1.3-6.5,1.3c-4.1,0-7.3-1.1-9.6-3.3
			c-2.4-2.2-3.5-5-3.5-8.4c0-2.2,0.5-4.2,1.6-6c1.1-1.8,2.6-3.1,4.5-4c1.9-0.9,4.7-1.7,8.3-2.4c4.9-0.9,8.3-1.8,10.2-2.6v-1
			c0-2-0.5-3.4-1.5-4.3c-1-0.9-2.9-1.3-5.6-1.3c-1.9,0-3.3,0.4-4.4,1.1C427.6,417.2,426.7,418.5,426.1,420.4L426.1,420.4z
			 M440.1,428.9c-1.3,0.4-3.5,1-6.4,1.6c-2.9,0.6-4.8,1.2-5.7,1.8c-1.4,1-2,2.2-2,3.7c0,1.5,0.5,2.7,1.6,3.8
			c1.1,1.1,2.5,1.6,4.2,1.6c1.9,0,3.7-0.6,5.4-1.9c1.3-0.9,2.1-2.1,2.5-3.5c0.3-0.9,0.4-2.6,0.4-5.1V428.9L440.1,428.9z"/>
		<polygon class="st5" points="460.7,447.9 460.7,393.2 471.2,393.2 471.2,447.9 460.7,447.9 		"/>
		<path class="st5" d="M481.6,408.3h9.8v5.8c1.3-2,3-3.6,5.1-4.8c2.2-1.2,4.6-1.9,7.2-1.9c4.6,0,8.5,1.8,11.7,5.4
			c3.2,3.6,4.8,8.6,4.8,15.1c0,6.6-1.6,11.7-4.8,15.4c-3.2,3.7-7.1,5.5-11.7,5.5c-2.2,0-4.2-0.4-6-1.3c-1.8-0.9-3.6-2.4-5.6-4.5
			v19.9h-10.5V408.3L481.6,408.3z M492,427.4c0,4.4,0.9,7.7,2.6,9.8c1.8,2.1,3.9,3.2,6.4,3.2c2.4,0,4.5-1,6.1-2.9
			c1.6-1.9,2.4-5.2,2.4-9.6c0-4.2-0.8-7.2-2.5-9.2c-1.7-2-3.7-3-6.2-3c-2.6,0-4.7,1-6.4,3C492.8,420.6,492,423.5,492,427.4
			L492,427.4z"/>
		<path class="st5" d="M551.4,435.3l10.4,1.7c-1.3,3.8-3.5,6.7-6.4,8.7c-2.9,2-6.5,3-10.9,3c-6.9,0-12-2.2-15.3-6.7
			c-2.6-3.6-3.9-8.2-3.9-13.6c0-6.6,1.7-11.7,5.2-15.4c3.4-3.7,7.8-5.6,13-5.6c5.9,0,10.5,1.9,13.9,5.8c3.4,3.9,5,9.8,4.9,17.9
			h-26.2c0.1,3.1,0.9,5.5,2.5,7.2c1.6,1.7,3.6,2.6,6,2.6c1.6,0,3-0.4,4.1-1.3C550,438.7,550.9,437.3,551.4,435.3L551.4,435.3z
			 M552,424.7c-0.1-3-0.9-5.3-2.3-6.9c-1.5-1.6-3.3-2.4-5.4-2.4c-2.3,0-4.2,0.8-5.7,2.5c-1.5,1.7-2.2,3.9-2.2,6.8H552L552,424.7z"/>
		<path class="st5" d="M606.9,447.9h-10.5v-20.2c0-4.3-0.2-7-0.7-8.3c-0.4-1.2-1.2-2.2-2.2-2.9c-1-0.7-2.2-1-3.6-1
			c-1.8,0-3.4,0.5-4.9,1.5c-1.4,1-2.4,2.3-3,4c-0.5,1.6-0.8,4.7-0.8,9.1v17.9h-10.5v-39.6h9.7v5.8c3.5-4.5,7.8-6.7,13-6.7
			c2.3,0,4.4,0.4,6.3,1.2c1.9,0.8,3.4,1.9,4.3,3.2c1,1.3,1.7,2.8,2.1,4.4c0.4,1.6,0.6,4,0.6,7V447.9L606.9,447.9z"/>
		<path class="st5" d="M613.9,436.6l10.5-1.6c0.4,2,1.3,3.6,2.7,4.6c1.4,1.1,3.3,1.6,5.7,1.6c2.7,0,4.7-0.5,6.1-1.5
			c0.9-0.7,1.4-1.6,1.4-2.8c0-0.8-0.3-1.5-0.8-2c-0.5-0.5-1.7-1-3.5-1.4c-8.4-1.9-13.8-3.6-16.1-5.1c-3.1-2.1-4.7-5.1-4.7-8.9
			c0-3.4,1.3-6.3,4.1-8.6c2.7-2.3,6.9-3.5,12.6-3.5c5.4,0,9.5,0.9,12.1,2.6c2.6,1.8,4.4,4.4,5.4,7.8l-9.9,1.8
			c-0.4-1.5-1.2-2.7-2.4-3.5c-1.2-0.8-2.9-1.2-5-1.2c-2.8,0-4.7,0.4-5.9,1.2c-0.8,0.5-1.2,1.3-1.2,2.1c0,0.7,0.3,1.4,1,1.9
			c0.9,0.7,4.2,1.7,9.8,3c5.6,1.3,9.5,2.8,11.7,4.7c2.2,1.9,3.3,4.5,3.3,7.8c0,3.6-1.5,6.8-4.6,9.4c-3,2.6-7.5,3.9-13.4,3.9
			c-5.4,0-9.7-1.1-12.8-3.3C616.9,443.3,614.9,440.3,613.9,436.6L613.9,436.6z"/>
		<path class="st5" d="M667.8,420.4l-9.5-1.7c1.1-3.8,2.9-6.7,5.5-8.5c2.6-1.8,6.5-2.8,11.6-2.8c4.7,0,8.2,0.6,10.4,1.7
			c2.3,1.1,3.9,2.5,4.8,4.2c0.9,1.7,1.4,4.8,1.4,9.4l-0.1,12.2c0,3.5,0.2,6,0.5,7.7c0.3,1.6,1,3.4,1.9,5.3H684
			c-0.3-0.7-0.6-1.7-1-3.1c-0.2-0.6-0.3-1-0.4-1.2c-1.8,1.7-3.7,3-5.7,3.9c-2,0.9-4.2,1.3-6.5,1.3c-4.1,0-7.3-1.1-9.6-3.3
			c-2.4-2.2-3.5-5-3.5-8.4c0-2.2,0.5-4.2,1.6-6c1.1-1.8,2.6-3.1,4.5-4c1.9-0.9,4.7-1.7,8.3-2.4c4.9-0.9,8.3-1.8,10.2-2.6v-1
			c0-2-0.5-3.4-1.5-4.3c-1-0.9-2.9-1.3-5.6-1.3c-1.9,0-3.3,0.4-4.4,1.1C669.3,417.2,668.5,418.5,667.8,420.4L667.8,420.4z
			 M681.8,428.9c-1.3,0.4-3.5,1-6.4,1.6c-2.9,0.6-4.8,1.2-5.7,1.8c-1.4,1-2,2.2-2,3.7c0,1.5,0.5,2.7,1.6,3.8
			c1.1,1.1,2.5,1.6,4.2,1.6c1.9,0,3.7-0.6,5.4-1.9c1.3-0.9,2.1-2.1,2.5-3.5c0.3-0.9,0.4-2.6,0.4-5.1V428.9L681.8,428.9z"/>
		<path class="st1" d="M292.6,266.2l4.2-0.6c0.3,2.5,0.8,4.4,1.1,5.6c0.8,0.9,2,1.6,3.1,1.6c1.7,0,2.5-0.6,3.4-1.3
			c0.3-1.3,1.1-2.5,1.1-3.8c0-1.3-0.3-1.6-0.8-2.2c-0.3-0.9-0.6-1.3-1.4-2.2c-0.3-0.3-1.1-0.6-3.1-1.6c-2.3-0.6-3.7-2.2-4.8-3.4
			c-1.1-2.5-1.7-5-1.7-8.2c0-1.9,0.3-3.8,0.8-5.3c0.6-1.9,1.7-2.8,2.5-4.1c0.8-0.9,2.5-1.3,3.9-1.3c2.5,0,4.8,0.9,5.9,3.1
			c1.4,2.5,2,5.3,2,8.8l-4.2,0.3c-0.3-1.9-0.3-3.4-1.1-4.4c-0.3-0.6-1.4-1.2-2.5-1.2c-1.1,0-2.3,0.6-2.8,1.2
			c-0.3,0.9-0.6,1.6-0.6,2.5c0,1.3,0.3,1.9,0.6,2.5c0.6,0.6,2,1.6,3.9,2.5c2,0.9,3.7,1.9,4.5,2.8c0.6,0.9,1.7,2.2,2.3,4.1
			c0.6,1.3,0.8,3.4,0.8,6c0,1.9-0.6,4.4-1.1,6c-0.6,1.9-1.7,3.8-2.8,4.4c-1.4,0.9-2.5,1.3-4.5,1.3c-2.8,0-4.8-0.9-6.2-3.1
			C294,273.7,292.9,270.9,292.6,266.2L292.6,266.2z"/>
		<path class="st1" d="M273.4,266.2l3.9-0.6c0.3,2.5,0.6,4.4,1.7,5.6c0.3,0.9,1.4,1.6,2.8,1.6c1.4,0,2.5-0.6,3.1-1.3
			c0.8-1.3,0.8-2.5,0.8-3.8c0-1.3,0-1.6-0.3-2.2c-0.3-0.9-0.8-1.3-1.7-2.2c-0.3-0.3-1.4-0.6-3.4-1.6c-1.7-0.6-3.7-2.2-4.2-3.4
			c-1.4-2.5-2-5-2-8.2c0-1.9,0.3-3.8,0.8-5.3c0.6-1.9,1.4-2.8,2.5-4.1c1.4-0.9,2.5-1.3,4.2-1.3c2.5,0,4.2,0.9,5.6,3.1
			c1.4,2.5,2,5.3,2.3,8.8l-4.2,0.3c-0.3-1.9-0.6-3.4-0.8-4.4c-1.1-0.6-1.7-1.2-2.8-1.2c-1.4,0-2.3,0.6-2.8,1.2
			c-0.3,0.9-0.6,1.6-0.6,2.5c0,1.3,0.3,1.9,0.6,2.5c0.3,0.6,1.4,1.6,3.7,2.5c2,0.9,3.4,1.9,4.2,2.8c1.4,0.9,2,2.2,2.5,4.1
			c0.3,1.3,0.8,3.4,0.8,6c0,1.9-0.6,4.4-1.1,6c-0.6,1.9-1.4,3.8-2.8,4.4c-1.1,0.9-2.8,1.3-4.5,1.3c-2.5,0-4.5-0.9-5.9-3.1
			C274.5,273.7,273.7,270.9,273.4,266.2L273.4,266.2z"/>
		<path class="st6" d="M276.1,222.9h70.3c8.9,0,16.2,7.8,16.2,17.4v36.2c0,9.6-7.3,17.4-16.2,17.4h-70.3c-8.9,0-16.2-7.8-16.2-17.4
			v-36.2C259.9,230.7,267.2,222.9,276.1,222.9L276.1,222.9z"/>
		<path class="st1" d="M316.4,267.7l3.9-0.9c0.1,1.8,0.5,3.3,1,4.2c0.5,1,1.2,1.5,2,1.5c0.8,0,1.5-0.6,2.1-1.8
			c0.6-1.2,0.9-2.7,0.9-4.7c0-1.9-0.3-3.4-0.8-4.5c-0.5-1.1-1.2-1.7-2-1.7c-0.5,0-1.1,0.2-1.9,0.6l0.4-6.1c1.1,0,1.9-0.4,2.5-1.3
			c0.6-0.9,0.9-2.2,0.9-3.7c0-1.3-0.2-2.4-0.6-3.2c-0.4-0.8-1-1.2-1.7-1.2c-0.7,0-1.3,0.4-1.8,1.3c-0.5,0.9-0.8,2.2-0.9,3.9
			l-3.7-1.2c0.3-2.4,0.7-4.3,1.2-5.7c0.5-1.4,1.3-2.5,2.2-3.3c0.9-0.8,2-1.2,3.1-1.2c2,0,3.6,1.2,4.8,3.5c1,1.9,1.5,4.1,1.5,6.5
			c0,3.4-1,6.2-3,8.2c1.2,0.5,2.2,1.6,2.9,3.2c0.7,1.7,1.1,3.7,1.1,6.1c0,3.4-0.7,6.4-2,8.8c-1.4,2.4-3,3.6-5.1,3.6
			c-1.9,0-3.5-1-4.8-3C317.3,273.6,316.6,271,316.4,267.7L316.4,267.7z"/>
		<path class="st1" d="M333,268l4-0.8c0.1,1.7,0.5,3,1,4c0.6,1,1.2,1.5,2,1.5c0.8,0,1.6-0.6,2.1-1.9c0.6-1.3,0.9-3.2,0.9-5.8
			c0-2.4-0.3-4.2-0.9-5.4c-0.6-1.2-1.3-1.8-2.3-1.8c-1.2,0-2.2,1-3.1,2.9l-3.3-0.9l2.1-20.3h10.7v7h-7.6l-0.6,6.6
			c0.9-0.8,1.8-1.3,2.8-1.3c1.8,0,3.3,1.2,4.6,3.6c1.2,2.4,1.9,5.6,1.9,9.4c0,3.2-0.5,6.1-1.5,8.6c-1.4,3.4-3.3,5.2-5.7,5.2
			c-1.9,0-3.5-1-4.8-2.9C334,273.9,333.2,271.3,333,268L333,268z"/>
	</g>
</g>
</svg>
