<?xml version="1.0" encoding="utf-8"?>
<!-- Generator: Adobe Illustrator 19.2.0, SVG Export Plug-In . SVG Version: 6.00 Build 0)  -->
<svg version="1.1" id="Livello_1" xmlns="http://www.w3.org/2000/svg" xmlns:xlink="http://www.w3.org/1999/xlink" x="0px" y="0px"
	 viewBox="0 0 960 960" style="enable-background:new 0 0 960 960;" xml:space="preserve">
<style type="text/css">
	.st0{fill:#FFFFFF;stroke:#1A171B;stroke-width:1.221;stroke-miterlimit:2.6131;}
	.st1{fill:none;stroke:#1A171B;stroke-width:8.1403;stroke-miterlimit:2.6131;}
	.st2{fill-rule:evenodd;clip-rule:evenodd;fill:#1A171B;stroke:#1A171B;stroke-width:1.221;stroke-miterlimit:2.6131;}
	.st3{fill:none;stroke:#1A171B;stroke-width:3.246;stroke-miterlimit:2.6131;}
	.st4{fill:none;stroke:#1A171B;stroke-width:2.7785;stroke-miterlimit:2.6131;}
	.st5{fill:none;stroke:#1A171B;stroke-width:3.0526;stroke-miterlimit:2.6131;}
	.st6{fill-rule:evenodd;clip-rule:evenodd;fill:#1A171B;stroke:#1A171B;stroke-width:2.991;stroke-miterlimit:2.6131;}
	.st7{fill-rule:evenodd;clip-rule:evenodd;fill:#1A171B;}
	.st8{fill:none;stroke:#1A171B;stroke-width:0.407;stroke-miterlimit:2.6131;}
</style>
<g>
	<g>
		<polygon class="st0" points="915,158.3 45,158.3 45,801.7 915,801.7 915,158.3 		"/>
		<path class="st1" d="M859.6,174.3H100.9c-22.2,0-40,18.3-40,39.5v532c0,21.4,18.3,39.7,40,39.7h758.7c21.2,0,39.5-17.8,39.5-39.7
			v-532C899.1,191.5,881.8,174.3,859.6,174.3L859.6,174.3z"/>
		<path class="st2" d="M516.4,559.2l-6,69.7l88.3-21c3-3,12.2,3,9.4,9.1L479.8,744.9L352,617c-3.1-6.1,3-12.2,9.3-9.1l88.2,21.1
			l-6.2-69.9L516.4,559.2L516.4,559.2z"/>
		<path class="st3" d="M479.8,396.4c30.5,0,55.4,24.9,55.4,55.4c0,30.5-24.9,55.4-55.4,55.4c-30.5,0-55.4-24.9-55.4-55.4
			C424.5,421.3,449.3,396.4,479.8,396.4L479.8,396.4z"/>
		<path class="st4" d="M480.3,406.3c25.3,0,45.9,20.6,45.9,45.9c0,25.3-20.6,45.9-45.9,45.9c-25.3,0-45.9-20.6-45.9-45.9
			C434.3,426.9,455,406.3,480.3,406.3L480.3,406.3z"/>
		<path class="st5" d="M479.9,415.2c20.2,0,36.6,16.5,36.6,36.6c0,20.2-16.5,36.6-36.6,36.6c-20.2,0-36.6-16.5-36.6-36.6
			C443.2,431.6,459.7,415.2,479.9,415.2L479.9,415.2z"/>
		<path class="st6" d="M479.8,431.7c11.1,0,20.1,9,20.1,20.1c0,11.1-9,20.1-20.1,20.1c-11.1,0-20.1-9-20.1-20.1
			C459.7,440.7,468.8,431.7,479.8,431.7L479.8,431.7z"/>
		<polygon class="st7" points="236.3,329.6 236.3,236.2 264.3,236.2 281.2,299.9 297.8,236.2 325.9,236.2 325.9,329.6 308.5,329.6 
			308.5,256.1 290.1,329.6 272,329.6 253.7,256.1 253.7,329.6 236.3,329.6 		"/>
		<polygon class="st7" points="344,329.6 344,236.2 362.7,236.2 362.7,329.6 344,329.6 		"/>
		<polygon class="st7" points="381.1,329.6 381.1,237 399.8,237 399.8,313.9 446.4,313.9 446.4,329.6 381.1,329.6 		"/>
		<path class="st7" d="M543.5,329.6h-20.4l-8.1-21.2h-37.1l-7.6,21.2h-19.9l36.2-93.4h19.8L543.5,329.6L543.5,329.6z M509,292.7
			L496.2,258l-12.5,34.7H509L509,292.7z"/>
		<polygon class="st7" points="553.6,329.6 553.6,236.2 571.8,236.2 609.8,298.6 609.8,236.2 627.2,236.2 627.2,329.6 608.4,329.6 
			571,268.7 571,329.6 553.6,329.6 		"/>
		<path class="st7" d="M643.2,283.5c0-9.5,1.4-17.5,4.2-24c2.1-4.7,5-9,8.6-12.8c3.6-3.8,7.6-6.6,12-8.4c5.8-2.5,12.4-3.7,20-3.7
			c13.7,0,24.6,4.3,32.8,12.8c8.2,8.5,12.3,20.4,12.3,35.6c0,15.1-4.1,26.9-12.2,35.4c-8.1,8.5-19,12.8-32.7,12.8
			c-13.8,0-24.8-4.2-32.9-12.7C647.3,310,643.2,298.4,643.2,283.5L643.2,283.5z M662.5,282.9c0,10.6,2.4,18.6,7.3,24.1
			c4.9,5.5,11,8.2,18.5,8.2c7.5,0,13.6-2.7,18.4-8.1c4.8-5.4,7.2-13.5,7.2-24.4c0-10.7-2.3-18.7-7-24c-4.7-5.3-10.9-7.9-18.6-7.9
			c-7.7,0-14,2.7-18.7,8C664.9,264.1,662.5,272.1,662.5,282.9L662.5,282.9z"/>
		<polygon class="st8" points="236.3,329.6 236.3,236.2 264.3,236.2 281.2,299.9 297.8,236.2 325.9,236.2 325.9,329.6 308.5,329.6 
			308.5,256.1 290.1,329.6 272,329.6 253.7,256.1 253.7,329.6 236.3,329.6 		"/>
		<polygon class="st8" points="344,329.6 344,236.2 362.7,236.2 362.7,329.6 344,329.6 		"/>
		<polygon class="st8" points="381.1,329.6 381.1,237 399.8,237 399.8,313.9 446.4,313.9 446.4,329.6 381.1,329.6 		"/>
		<path class="st8" d="M543.5,329.6h-20.4l-8.1-21.2h-37.1l-7.6,21.2h-19.9l36.2-93.4h19.8L543.5,329.6L543.5,329.6z M509,292.7
			L496.2,258l-12.5,34.7H509L509,292.7z"/>
		<polygon class="st8" points="553.6,329.6 553.6,236.2 571.8,236.2 609.8,298.6 609.8,236.2 627.2,236.2 627.2,329.6 608.4,329.6 
			571,268.7 571,329.6 553.6,329.6 		"/>
		<path class="st8" d="M643.2,283.5c0-9.5,1.4-17.5,4.2-24c2.1-4.7,5-9,8.6-12.8c3.6-3.8,7.6-6.6,12-8.4c5.8-2.5,12.4-3.7,20-3.7
			c13.7,0,24.6,4.3,32.8,12.8c8.2,8.5,12.3,20.4,12.3,35.6c0,15.1-4.1,26.9-12.2,35.4c-8.1,8.5-19,12.8-32.7,12.8
			c-13.8,0-24.8-4.2-32.9-12.7C647.3,310,643.2,298.4,643.2,283.5L643.2,283.5z M662.5,282.9c0,10.6,2.4,18.6,7.3,24.1
			c4.9,5.5,11,8.2,18.5,8.2c7.5,0,13.6-2.7,18.4-8.1c4.8-5.4,7.2-13.5,7.2-24.4c0-10.7-2.3-18.7-7-24c-4.7-5.3-10.9-7.9-18.6-7.9
			c-7.7,0-14,2.7-18.7,8C664.9,264.1,662.5,272.1,662.5,282.9L662.5,282.9z"/>
	</g>
</g>
</svg>
