<?xml version="1.0" encoding="utf-8"?>
<!-- Generator: Adobe Illustrator 19.2.0, SVG Export Plug-In . SVG Version: 6.00 Build 0)  -->
<svg version="1.1" id="Livello_1" xmlns="http://www.w3.org/2000/svg" xmlns:xlink="http://www.w3.org/1999/xlink" x="0px" y="0px"
	 viewBox="0 0 960 960" style="enable-background:new 0 0 960 960;" xml:space="preserve">
<style type="text/css">
	.st0{fill-rule:evenodd;clip-rule:evenodd;fill:#008E43;stroke:#008E43;stroke-width:0.8347;stroke-miterlimit:2.6131;}
	.st1{fill-rule:evenodd;clip-rule:evenodd;fill:#FFFFFF;stroke:#FFFFFF;stroke-width:0.8347;stroke-miterlimit:2.6131;}
	.st2{fill-rule:evenodd;clip-rule:evenodd;fill:#008E43;}
	.st3{fill:none;stroke:#FFFFFF;stroke-width:3.6168;stroke-miterlimit:2.6131;}
	.st4{fill-rule:evenodd;clip-rule:evenodd;fill:#FFFFFF;}
	.st5{fill-rule:evenodd;clip-rule:evenodd;fill:#1A171B;stroke:#1A171B;stroke-width:2.2257;stroke-miterlimit:2.6131;}
	.st6{fill-rule:evenodd;clip-rule:evenodd;fill:#1A171B;}
	.st7{fill:none;stroke:#FFFFFF;stroke-width:5.5644;stroke-miterlimit:2.6131;}
</style>
<g>
	<g>
		<polygon class="st0" points="186.1,120 773.9,120 773.9,840 186.1,840 186.1,120 		"/>
		<path class="st1" d="M502.6,665.7l-3.8,44.9l56.8-13.5c2-2,7.8,1.9,6,5.9l-82.6,82.3l-82.3-82.3c-2-3.9,1.9-7.8,6-5.9l56.7,13.6
			l-4-45L502.6,665.7L502.6,665.7z"/>
		<polygon class="st2" points="246.4,427 322,427 322,502 246.4,502 246.4,427 		"/>
		<polygon class="st2" points="246.4,301.2 322,301.2 322,376.3 246.4,376.3 246.4,301.2 		"/>
		<polygon class="st2" points="246.4,174.3 322,174.3 322,249.3 246.4,249.3 246.4,174.3 		"/>
		<path class="st3" d="M307.3,496.9l-22.9,3l-22.9-3c-7.8-2.2-7.8-2.2-9.5-10.8l-3.5-21.4l3.5-21.9c1.7-8.5,1.7-8.5,9.5-10.3
			l22.9-3.4l22.9,3.4c7.3,1.7,7.3,1.7,9.5,10.3l3,21.9l-3,21.4C314.6,494.3,314.6,494.3,307.3,496.9L307.3,496.9z"/>
		<path class="st3" d="M307.3,371.1l-22.9,3l-22.9-3c-7.8-2.2-7.8-2.2-9.5-10.8l-3.5-21.4l3.5-21.9c1.7-8.5,1.7-8.5,9.5-10.3
			l22.9-3.4l22.9,3.4c7.3,1.7,7.3,1.7,9.5,10.3l3,21.9l-3,21.4C314.6,368.5,314.6,368.5,307.3,371.1L307.3,371.1z"/>
		<path class="st3" d="M307.3,244.2l-22.9,3l-22.9-3c-7.8-2.2-7.8-2.2-9.5-10.8l-3.5-21.4l3.5-21.9c1.7-8.5,1.7-8.5,9.5-10.3
			l22.9-3.4l22.9,3.4c7.3,1.7,7.3,1.7,9.5,10.3l3,21.9l-3,21.4C314.6,241.6,314.6,241.6,307.3,244.2L307.3,244.2z"/>
		<path class="st4" d="M284.5,483.2h-5.1l-2.1-8.6H268l-2,8.6h-5l9-37.2h5.2L284.5,483.2L284.5,483.2z M275.9,468.4l-3.3-13.7
			l-3.2,13.7H275.9L275.9,468.4z"/>
		<path class="st4" d="M284.5,357.4h-5.1l-2.1-8.6H268l-2,8.6h-5l9-37.2h5.2L284.5,357.4L284.5,357.4z M275.9,342.7l-3.3-13.7
			l-3.2,13.7H275.9L275.9,342.7z"/>
		<path class="st4" d="M284.5,230.5h-5.1l-2.1-8.6H268l-2,8.6h-5l9-37.2h5.2L284.5,230.5L284.5,230.5z M275.9,215.7l-3.3-13.7
			l-3.2,13.7H275.9L275.9,215.7z"/>
		<path class="st4" d="M371,470.2l6.5,2.9c-1,5.1-2.6,8.9-4.9,11.4c-2.3,2.5-5.2,3.7-8.8,3.7c-4.4,0-8-2.1-10.8-6.4
			c-2.8-4.2-4.2-10-4.2-17.4c0-7.8,1.4-13.8,4.3-18.1c2.8-4.3,6.6-6.5,11.2-6.5c4,0,7.3,1.7,9.8,5.1c1.5,2,2.6,4.9,3.4,8.6l-6.6,2.2
			c-0.4-2.4-1.2-4.3-2.4-5.7c-1.2-1.4-2.7-2.1-4.5-2.1c-2.4,0-4.4,1.2-6,3.7c-1.5,2.5-2.3,6.5-2.3,12.1c0,5.9,0.7,10.1,2.3,12.6
			c1.5,2.5,3.4,3.8,5.8,3.8c1.8,0,3.3-0.8,4.6-2.4C369.6,476.1,370.5,473.6,371,470.2L371,470.2z M381.9,464.3c0-4.8,0.5-8.8,1.5-12
			c0.8-2.4,1.8-4.5,3.1-6.4c1.3-1.9,2.7-3.3,4.3-4.2c2.1-1.2,4.4-1.9,7.1-1.9c4.9,0,8.8,2.1,11.7,6.4c2.9,4.3,4.4,10.2,4.4,17.8
			c0,7.5-1.5,13.4-4.4,17.7c-2.9,4.3-6.8,6.4-11.6,6.4c-4.9,0-8.8-2.1-11.7-6.4C383.3,477.5,381.9,471.7,381.9,464.3L381.9,464.3z
			 M388.7,463.9c0,5.3,0.9,9.3,2.6,12c1.7,2.7,3.9,4.1,6.6,4.1c2.7,0,4.8-1.3,6.5-4.1c1.7-2.7,2.6-6.8,2.6-12.2
			c0-5.4-0.8-9.3-2.5-12c-1.7-2.6-3.9-3.9-6.6-3.9c-2.8,0-5,1.3-6.6,4C389.6,454.6,388.7,458.6,388.7,463.9L388.7,463.9z M419,487.3
			v-46.7h10l6,31.9l5.9-31.9h10v46.7h-6.2v-36.8l-6.6,36.8h-6.4l-6.5-36.8v36.8H419L419,487.3z M456.1,464.3c0-4.8,0.5-8.8,1.5-12
			c0.8-2.4,1.8-4.5,3.1-6.4c1.3-1.9,2.7-3.3,4.3-4.2c2.1-1.2,4.4-1.9,7.1-1.9c4.9,0,8.8,2.1,11.7,6.4c2.9,4.3,4.4,10.2,4.4,17.8
			c0,7.5-1.5,13.4-4.4,17.7c-2.9,4.3-6.8,6.4-11.6,6.4c-4.9,0-8.8-2.1-11.7-6.4C457.6,477.5,456.1,471.7,456.1,464.3L456.1,464.3z
			 M463,463.9c0,5.3,0.9,9.3,2.6,12c1.7,2.7,3.9,4.1,6.6,4.1c2.7,0,4.8-1.3,6.5-4.1c1.7-2.7,2.6-6.8,2.6-12.2c0-5.4-0.8-9.3-2.5-12
			c-1.7-2.6-3.9-3.9-6.6-3.9c-2.8,0-5,1.3-6.6,4C463.9,454.6,463,458.6,463,463.9L463,463.9z M493.3,468.3v-9h9.7v9H493.3
			L493.3,468.3z M529.9,470.2l6.5,2.9c-1,5.1-2.6,8.9-4.9,11.4c-2.3,2.5-5.2,3.7-8.8,3.7c-4.4,0-8-2.1-10.8-6.4
			c-2.8-4.2-4.2-10-4.2-17.4c0-7.8,1.4-13.8,4.3-18.1c2.8-4.3,6.6-6.5,11.2-6.5c4,0,7.3,1.7,9.8,5.1c1.5,2,2.6,4.9,3.4,8.6l-6.6,2.2
			c-0.4-2.4-1.2-4.3-2.4-5.7c-1.2-1.4-2.7-2.1-4.5-2.1c-2.4,0-4.4,1.2-6,3.7c-1.5,2.5-2.3,6.5-2.3,12.1c0,5.9,0.7,10.1,2.3,12.6
			c1.5,2.5,3.4,3.8,5.8,3.8c1.8,0,3.3-0.8,4.6-2.4C528.4,476.1,529.3,473.6,529.9,470.2L529.9,470.2z M542,487.3v-46.7h6.7V459h13.1
			v-18.4h6.7v46.7h-6.7v-20.4h-13.1v20.4H542L542,487.3z M575.1,487.3v-46.7h6.7v46.7H575.1L575.1,487.3z M617.9,487.3h-7.3
			l-2.9-10.6h-13.2l-2.7,10.6h-7.1l12.9-46.7h7L617.9,487.3L617.9,487.3z M605.6,468.9l-4.6-17.3l-4.5,17.3H605.6L605.6,468.9z
			 M619.7,472.1l6.5-0.9c0.4,3.1,1.2,5.4,2.4,6.8c1.2,1.4,2.8,2.2,4.8,2.2c2.1,0,3.8-0.6,4.8-1.9c1.1-1.3,1.6-2.8,1.6-4.5
			c0-1.1-0.2-2-0.7-2.8c-0.5-0.8-1.2-1.5-2.4-2c-0.8-0.4-2.6-1.1-5.3-2c-3.6-1.3-6.1-2.8-7.5-4.6c-2-2.6-3-5.7-3-9.4
			c0-2.4,0.5-4.6,1.4-6.7c1-2.1,2.3-3.6,4.1-4.7c1.8-1.1,4-1.6,6.5-1.6c4.2,0,7.3,1.3,9.4,3.9c2.1,2.6,3.2,6,3.3,10.3l-6.7,0.4
			c-0.3-2.4-0.9-4.1-1.8-5.2c-0.9-1.1-2.3-1.6-4.2-1.6c-1.9,0-3.5,0.6-4.5,1.7c-0.7,0.7-1.1,1.7-1.1,2.9c0,1.1,0.3,2.1,1,2.8
			c0.8,1,2.9,2,6.1,3.1c3.2,1.1,5.6,2.2,7.2,3.4c1.6,1.2,2.8,2.7,3.6,4.8c0.9,2,1.3,4.5,1.3,7.4c0,2.7-0.5,5.2-1.6,7.5
			c-1.1,2.3-2.5,4.1-4.5,5.2c-1.9,1.1-4.3,1.7-7.2,1.7c-4.2,0-7.4-1.4-9.6-4.1C621.5,481.3,620.2,477.4,619.7,472.1L619.7,472.1z
			 M650.5,472.1l6.5-0.9c0.4,3.1,1.2,5.4,2.4,6.8c1.2,1.4,2.8,2.2,4.8,2.2c2.1,0,3.8-0.6,4.8-1.9c1.1-1.3,1.6-2.8,1.6-4.5
			c0-1.1-0.2-2-0.7-2.8c-0.5-0.8-1.2-1.5-2.4-2c-0.8-0.4-2.6-1.1-5.3-2c-3.6-1.3-6.1-2.8-7.5-4.6c-2-2.6-3-5.7-3-9.4
			c0-2.4,0.5-4.6,1.4-6.7c1-2.1,2.3-3.6,4.1-4.7c1.8-1.1,4-1.6,6.5-1.6c4.2,0,7.3,1.3,9.4,3.9c2.1,2.6,3.2,6,3.3,10.3l-6.7,0.4
			c-0.3-2.4-0.9-4.1-1.8-5.2c-0.9-1.1-2.3-1.6-4.2-1.6c-1.9,0-3.5,0.6-4.5,1.7c-0.7,0.7-1.1,1.7-1.1,2.9c0,1.1,0.3,2.1,1,2.8
			c0.8,1,2.9,2,6.1,3.1c3.2,1.1,5.6,2.2,7.2,3.4c1.6,1.2,2.8,2.7,3.6,4.8c0.9,2,1.3,4.5,1.3,7.4c0,2.7-0.5,5.2-1.6,7.5
			c-1.1,2.3-2.5,4.1-4.5,5.2c-1.9,1.1-4.3,1.7-7.2,1.7c-4.2,0-7.4-1.4-9.6-4.1C652.3,481.3,650.9,477.4,650.5,472.1L650.5,472.1z
			 M681.6,464.3c0-4.8,0.5-8.8,1.5-12c0.8-2.4,1.8-4.5,3.1-6.4c1.3-1.9,2.7-3.3,4.3-4.2c2.1-1.2,4.4-1.9,7.1-1.9
			c4.9,0,8.8,2.1,11.7,6.4c2.9,4.3,4.4,10.2,4.4,17.8c0,7.5-1.5,13.4-4.4,17.7c-2.9,4.3-6.8,6.4-11.6,6.4c-4.9,0-8.8-2.1-11.7-6.4
			C683,477.5,681.6,471.7,681.6,464.3L681.6,464.3z M688.5,463.9c0,5.3,0.9,9.3,2.6,12c1.7,2.7,3.9,4.1,6.6,4.1
			c2.7,0,4.8-1.3,6.5-4.1c1.7-2.7,2.6-6.8,2.6-12.2c0-5.4-0.8-9.3-2.5-12c-1.7-2.6-3.9-3.9-6.6-3.9c-2.8,0-5,1.3-6.6,4
			C689.3,454.6,688.5,458.6,688.5,463.9L688.5,463.9z"/>
		<polygon class="st4" points="364.6,362.1 346.5,313.5 357.6,313.5 370.3,349.5 382.7,313.5 393.5,313.5 375.4,362.1 364.6,362.1 
					"/>
		<path class="st4" d="M439,362.1h-11.1l-4.4-11.1h-20.2l-4.2,11.1h-10.8l19.7-48.6h10.8L439,362.1L439,362.1z M420.2,342.9l-7-18.1
			l-6.8,18.1H420.2L420.2,342.9z"/>
		<path class="st4" d="M444.4,362.1v-48.6h21.5c5.4,0,9.3,0.4,11.7,1.3c2.4,0.9,4.4,2.4,5.9,4.7c1.5,2.2,2.2,4.8,2.2,7.7
			c0,3.6-1.1,6.7-3.3,9.1c-2.2,2.4-5.6,3.9-10,4.5c2.2,1.2,4,2.6,5.5,4.1c1.4,1.5,3.4,4.1,5.8,7.9l6.2,9.5h-12.2l-7.4-10.6
			c-2.6-3.8-4.4-6.2-5.4-7.1c-1-1-2-1.7-3.1-2c-1.1-0.4-2.8-0.5-5.1-0.5h-2.1v20.3H444.4L444.4,362.1z M454.6,334.1h7.5
			c4.9,0,7.9-0.2,9.2-0.6c1.2-0.4,2.2-1.1,2.9-2.1c0.7-1,1-2.2,1-3.6c0-1.6-0.5-3-1.4-4c-0.9-1-2.2-1.6-3.8-1.9
			c-0.8-0.1-3.3-0.2-7.4-0.2h-7.9V334.1L454.6,334.1z"/>
		<polygon class="st4" points="495.3,362.1 495.3,313.5 532.7,313.5 532.7,321.7 505.4,321.7 505.4,332.5 530.8,332.5 530.8,340.7 
			505.4,340.7 505.4,353.9 533.6,353.9 533.6,362.1 495.3,362.1 		"/>
		<path class="st4" d="M539.7,346.3l9.9-0.9c0.6,3.2,1.8,5.6,3.6,7.1c1.8,1.5,4.3,2.3,7.4,2.3c3.3,0,5.8-0.7,7.4-2
			c1.7-1.3,2.5-2.9,2.5-4.7c0-1.2-0.4-2.1-1.1-2.9c-0.7-0.8-1.9-1.5-3.7-2.1c-1.2-0.4-3.9-1.1-8.2-2.1c-5.5-1.3-9.3-2.9-11.5-4.8
			c-3.1-2.7-4.6-5.9-4.6-9.8c0-2.5,0.7-4.8,2.2-7c1.5-2.2,3.6-3.8,6.3-4.9c2.8-1.1,6.1-1.7,9.9-1.7c6.3,0,11.1,1.3,14.3,4
			c3.2,2.7,4.9,6.3,5,10.7l-10.2,0.4c-0.4-2.5-1.4-4.3-2.8-5.4c-1.4-1.1-3.6-1.6-6.4-1.6c-3,0-5.3,0.6-7,1.8c-1.1,0.7-1.6,1.8-1.6,3
			c0,1.2,0.5,2.1,1.5,3c1.3,1,4.4,2.1,9.4,3.2c5,1.1,8.6,2.3,11,3.5c2.4,1.2,4.2,2.9,5.6,4.9c1.3,2.1,2,4.7,2,7.7
			c0,2.8-0.8,5.4-2.4,7.8c-1.6,2.4-3.9,4.2-6.8,5.4c-2.9,1.2-6.6,1.8-11,1.8c-6.4,0-11.3-1.4-14.7-4.3
			C542.4,355.9,540.4,351.8,539.7,346.3L539.7,346.3z"/>
		<polygon class="st4" points="589.3,362.1 589.3,313.5 626.7,313.5 626.7,321.7 599.5,321.7 599.5,332.5 624.8,332.5 624.8,340.7 
			599.5,340.7 599.5,353.9 627.7,353.9 627.7,362.1 589.3,362.1 		"/>
		<polygon class="st4" points="363,234.4 363,194 348.1,194 348.1,185.7 388.2,185.7 388.2,194 373.2,194 373.2,234.4 363,234.4 		
			"/>
		<path class="st4" d="M391.4,210.4c0-5,0.8-9.1,2.3-12.5c1.2-2.5,2.7-4.7,4.7-6.7c2-2,4.2-3.4,6.5-4.4c3.1-1.3,6.8-1.9,10.9-1.9
			c7.4,0,13.4,2.2,17.8,6.7c4.5,4.4,6.7,10.6,6.7,18.5c0,7.9-2.2,14-6.7,18.4c-4.4,4.4-10.3,6.6-17.8,6.6c-7.5,0-13.5-2.2-17.9-6.6
			C393.6,224.2,391.4,218.1,391.4,210.4L391.4,210.4z M401.9,210c0,5.5,1.3,9.7,4,12.5c2.6,2.8,6,4.3,10.1,4.3c4.1,0,7.4-1.4,10-4.2
			c2.6-2.8,3.9-7,3.9-12.7c0-5.6-1.3-9.7-3.8-12.5c-2.5-2.7-5.9-4.1-10.1-4.1c-4.2,0-7.6,1.4-10.2,4.2
			C403.2,200.2,401.9,204.4,401.9,210L401.9,210z"/>
		<path class="st4" d="M448.4,234.4v-48.6h21.5c5.4,0,9.3,0.4,11.7,1.3c2.4,0.9,4.4,2.4,5.9,4.7c1.5,2.2,2.2,4.8,2.2,7.7
			c0,3.6-1.1,6.7-3.3,9.1c-2.2,2.4-5.6,3.9-10,4.5c2.2,1.2,4,2.6,5.5,4.1c1.4,1.5,3.4,4.1,5.8,7.9l6.2,9.5h-12.2l-7.4-10.6
			c-2.6-3.8-4.4-6.2-5.4-7.1c-1-1-2-1.7-3.1-2c-1.1-0.4-2.8-0.5-5.1-0.5h-2.1v20.3H448.4L448.4,234.4z M458.6,206.3h7.5
			c4.9,0,7.9-0.2,9.2-0.6c1.2-0.4,2.2-1.1,2.9-2.1c0.7-1,1-2.2,1-3.6c0-1.6-0.5-3-1.4-4c-0.9-1-2.2-1.6-3.8-1.9
			c-0.8-0.1-3.3-0.2-7.4-0.2h-7.9V206.3L458.6,206.3z"/>
		<polygon class="st4" points="498.9,234.4 498.9,185.7 509.1,185.7 509.1,234.4 498.9,234.4 		"/>
		<polygon class="st4" points="518.9,234.4 518.9,185.7 528.8,185.7 549.5,218.2 549.5,185.7 559,185.7 559,234.4 548.7,234.4 
			528.4,202.6 528.4,234.4 518.9,234.4 		"/>
		<path class="st4" d="M567.6,210.4c0-5,0.8-9.1,2.3-12.5c1.2-2.5,2.7-4.7,4.7-6.7c2-2,4.2-3.4,6.5-4.4c3.1-1.3,6.8-1.9,10.9-1.9
			c7.4,0,13.4,2.2,17.8,6.7c4.5,4.4,6.7,10.6,6.7,18.5c0,7.9-2.2,14-6.6,18.4c-4.4,4.4-10.4,6.6-17.8,6.6c-7.5,0-13.5-2.2-17.9-6.6
			C569.9,224.2,567.6,218.1,567.6,210.4L567.6,210.4z M578.1,210c0,5.5,1.3,9.7,4,12.5c2.6,2.8,6,4.3,10.1,4.3c4.1,0,7.4-1.4,10-4.2
			c2.6-2.8,3.9-7,3.9-12.7c0-5.6-1.3-9.7-3.8-12.5c-2.5-2.7-5.9-4.1-10.1-4.1c-4.2,0-7.6,1.4-10.2,4.2
			C579.4,200.2,578.1,204.4,578.1,210L578.1,210z"/>
		<polygon class="st4" points="246.6,546.6 715,546.6 715,622.2 246.6,622.2 246.6,546.6 		"/>
		<path class="st5" d="M272.2,586.5l0.5-3.6l20.4-11.3c0-5.6-0.4-12.5,3.6-16.8c4.1,4.1,3.6,11.2,3.6,16.8l20.4,11.2l0.5,3.6
			l-17.9-3.5l-3.1,0l-2,20.9l5.6,5.1l0,2.6l-6.1-4.1l-1.1,5.1l-1-5.1l-6.1,4.1V609l5.6-5.1l-2-21l-3.1,0.1L272.2,586.5L272.2,586.5z
			"/>
		<polygon class="st6" points="353.5,603.5 353.5,565.9 364.9,565.9 371.7,591.5 378.4,565.9 389.8,565.9 389.8,603.5 382.8,603.5 
			382.8,573.9 375.3,603.5 368,603.5 360.6,573.9 360.6,603.5 353.5,603.5 		"/>
		<path class="st6" d="M402.7,584.6l-6.5-1.2c0.7-2.6,2-4.6,3.8-5.8c1.8-1.3,4.5-1.9,8-1.9c3.2,0,5.6,0.4,7.2,1.1
			c1.6,0.8,2.7,1.7,3.3,2.9c0.6,1.2,1,3.3,1,6.4l-0.1,8.4c0,2.4,0.1,4.2,0.4,5.3c0.2,1.1,0.7,2.4,1.3,3.6h-7.1
			c-0.2-0.5-0.4-1.2-0.7-2.1c-0.1-0.4-0.2-0.7-0.3-0.8c-1.2,1.2-2.5,2.1-3.9,2.7c-1.4,0.6-2.9,0.9-4.5,0.9c-2.8,0-5-0.8-6.6-2.3
			c-1.6-1.5-2.4-3.4-2.4-5.8c0-1.5,0.4-2.9,1.1-4.1c0.7-1.2,1.8-2.1,3.1-2.8c1.3-0.6,3.2-1.2,5.7-1.7c3.4-0.6,5.7-1.2,7-1.8V585
			c0-1.4-0.3-2.4-1-3c-0.7-0.6-2-0.9-3.9-0.9c-1.3,0-2.3,0.3-3,0.8C403.7,582.4,403.1,583.3,402.7,584.6L402.7,584.6z M412.3,590.4
			c-0.9,0.3-2.4,0.7-4.4,1.1c-2,0.4-3.3,0.8-3.9,1.2c-0.9,0.7-1.4,1.5-1.4,2.5c0,1,0.4,1.9,1.1,2.6c0.8,0.7,1.7,1.1,2.9,1.1
			c1.3,0,2.5-0.4,3.7-1.3c0.9-0.6,1.4-1.4,1.7-2.4c0.2-0.6,0.3-1.8,0.3-3.5V590.4L412.3,590.4z"/>
		<polygon class="st6" points="426.5,603.5 426.5,565.9 433.7,565.9 433.7,603.5 426.5,603.5 		"/>
		<path class="st6" d="M440.9,576.3h6.7v4c0.9-1.4,2-2.5,3.5-3.3c1.5-0.9,3.1-1.3,5-1.3c3.2,0,5.8,1.2,8,3.7
			c2.2,2.5,3.3,5.9,3.3,10.4c0,4.5-1.1,8.1-3.3,10.6c-2.2,2.5-4.9,3.8-8.1,3.8c-1.5,0-2.9-0.3-4.1-0.9c-1.2-0.6-2.5-1.6-3.9-3.1
			v13.7h-7.2V576.3L440.9,576.3z M448,589.4c0,3.1,0.6,5.3,1.8,6.8c1.2,1.5,2.7,2.2,4.4,2.2c1.7,0,3.1-0.7,4.2-2
			c1.1-1.3,1.7-3.5,1.7-6.6c0-2.9-0.6-5-1.7-6.4c-1.1-1.4-2.6-2.1-4.3-2.1c-1.8,0-3.2,0.7-4.4,2C448.6,584.7,448,586.8,448,589.4
			L448,589.4z"/>
		<path class="st6" d="M489,594.8l7.2,1.2c-0.9,2.6-2.4,4.6-4.4,6c-2,1.4-4.5,2.1-7.5,2.1c-4.7,0-8.2-1.5-10.5-4.6
			c-1.8-2.5-2.7-5.6-2.7-9.4c0-4.5,1.2-8.1,3.5-10.6c2.4-2.6,5.3-3.8,8.9-3.8c4.1,0,7.2,1.3,9.6,4c2.3,2.7,3.5,6.8,3.4,12.3h-18.1
			c0.1,2.1,0.6,3.8,1.7,5c1.1,1.2,2.5,1.8,4.2,1.8c1.1,0,2.1-0.3,2.8-0.9C488,597.2,488.6,596.2,489,594.8L489,594.8z M489.4,587.6
			c-0.1-2.1-0.6-3.7-1.6-4.8c-1-1.1-2.3-1.6-3.7-1.6c-1.6,0-2.9,0.6-3.9,1.7c-1,1.1-1.5,2.7-1.5,4.7H489.4L489.4,587.6z"/>
		<path class="st6" d="M527.2,603.5H520v-13.9c0-2.9-0.2-4.8-0.5-5.7c-0.3-0.9-0.8-1.5-1.5-2c-0.7-0.5-1.5-0.7-2.5-0.7
			c-1.3,0-2.4,0.3-3.4,1c-1,0.7-1.7,1.6-2,2.7c-0.4,1.1-0.6,3.2-0.6,6.3v12.3h-7.2v-27.2h6.7v4c2.4-3.1,5.4-4.6,9-4.6
			c1.6,0,3,0.3,4.4,0.9c1.3,0.6,2.3,1.3,3,2.2c0.7,0.9,1.1,1.9,1.4,3c0.3,1.1,0.4,2.7,0.4,4.8V603.5L527.2,603.5z"/>
		<path class="st6" d="M531.9,595.7l7.2-1.1c0.3,1.4,0.9,2.5,1.9,3.2c0.9,0.7,2.2,1.1,3.9,1.1c1.9,0,3.3-0.3,4.2-1
			c0.6-0.5,1-1.1,1-1.9c0-0.6-0.2-1-0.5-1.4c-0.4-0.3-1.2-0.7-2.4-0.9c-5.8-1.3-9.5-2.4-11.1-3.5c-2.2-1.5-3.2-3.5-3.2-6.1
			c0-2.4,0.9-4.3,2.8-5.9c1.9-1.6,4.8-2.4,8.7-2.4c3.7,0,6.5,0.6,8.3,1.8c1.8,1.2,3.1,3,3.7,5.4l-6.8,1.3c-0.3-1.1-0.8-1.9-1.7-2.4
			c-0.8-0.6-2-0.8-3.5-0.8c-1.9,0-3.3,0.3-4.1,0.8c-0.5,0.4-0.8,0.9-0.8,1.5c0,0.5,0.2,0.9,0.7,1.3c0.6,0.5,2.9,1.2,6.7,2
			c3.8,0.9,6.5,1.9,8,3.2c1.5,1.3,2.3,3.1,2.3,5.4c0,2.5-1,4.6-3.1,6.4c-2.1,1.8-5.2,2.7-9.3,2.7c-3.7,0-6.6-0.8-8.8-2.3
			C534,600.4,532.6,598.3,531.9,595.7L531.9,595.7z"/>
		<path class="st6" d="M569.1,584.6l-6.5-1.2c0.7-2.6,2-4.6,3.8-5.8c1.8-1.3,4.5-1.9,8-1.9c3.2,0,5.6,0.4,7.2,1.1
			c1.6,0.8,2.7,1.7,3.3,2.9c0.6,1.2,1,3.3,1,6.4l-0.1,8.4c0,2.4,0.1,4.2,0.4,5.3c0.2,1.1,0.7,2.4,1.3,3.6h-7.1
			c-0.2-0.5-0.4-1.2-0.7-2.1c-0.1-0.4-0.2-0.7-0.3-0.8c-1.2,1.2-2.5,2.1-3.9,2.7c-1.4,0.6-2.9,0.9-4.5,0.9c-2.8,0-5-0.8-6.6-2.3
			c-1.6-1.5-2.4-3.4-2.4-5.8c0-1.5,0.4-2.9,1.1-4.1c0.7-1.2,1.8-2.1,3.1-2.8c1.3-0.6,3.2-1.2,5.7-1.7c3.4-0.6,5.7-1.2,7-1.8V585
			c0-1.4-0.3-2.4-1-3c-0.7-0.6-2-0.9-3.9-0.9c-1.3,0-2.3,0.3-3,0.8C570.1,582.4,569.5,583.3,569.1,584.6L569.1,584.6z M578.7,590.4
			c-0.9,0.3-2.4,0.7-4.4,1.1c-2,0.4-3.3,0.8-3.9,1.2c-0.9,0.7-1.4,1.5-1.4,2.5c0,1,0.4,1.9,1.1,2.6c0.8,0.7,1.7,1.1,2.9,1.1
			c1.3,0,2.5-0.4,3.7-1.3c0.9-0.6,1.4-1.4,1.7-2.4c0.2-0.6,0.3-1.8,0.3-3.5V590.4L578.7,590.4z"/>
		<path class="st7" d="M219.5,129.5h520.8c13.3,0,24.2,11.7,24.2,23.9v653.3c0,12.5-11.7,23.6-24.2,23.6H219.5
			c-12.2,0-23.9-10.3-23.9-23.6V153.4C195.5,140,206.1,129.5,219.5,129.5L219.5,129.5z"/>
		<path class="st4" d="M300.8,230.6v-7.5h-11.6v-6.3l12.3-23.7h4.6v23.6h3.5v6.3h-3.5v7.5H300.8L300.8,230.6z M300.8,216.8v-12.7
			l-6.5,12.7H300.8L300.8,216.8z"/>
		<path class="st4" d="M294.9,337.5c-1.4-0.8-2.5-1.9-3.1-3.2c-0.6-1.4-1-2.9-1-4.5c0-2.8,0.7-5.1,2.2-6.9c1.5-1.8,3.6-2.7,6.4-2.7
			c2.7,0,4.8,0.9,6.3,2.7c1.5,1.8,2.3,4.1,2.3,6.9c0,1.7-0.3,3.3-1,4.6c-0.7,1.3-1.7,2.4-2.9,3.1c1.6,0.8,2.8,2,3.6,3.6
			c0.8,1.6,1.2,3.4,1.2,5.5c0,3.4-0.8,6.2-2.5,8.4c-1.7,2.2-3.9,3.2-6.7,3.2c-2.6,0-4.8-0.9-6.5-2.7c-2-2.1-3.1-5-3.1-8.6
			c0-2,0.4-3.9,1.2-5.5C292,339.7,293.3,338.4,294.9,337.5L294.9,337.5z M296.1,330.3c0,1.4,0.3,2.5,0.9,3.3
			c0.6,0.8,1.4,1.2,2.5,1.2c1,0,1.9-0.4,2.5-1.2c0.6-0.8,0.9-1.9,0.9-3.3c0-1.3-0.3-2.4-0.9-3.2c-0.6-0.8-1.4-1.2-2.5-1.2
			c-1.1,0-1.9,0.4-2.5,1.2C296.4,327.9,296.1,329,296.1,330.3L296.1,330.3z M295.5,346.3c0,2,0.4,3.5,1.2,4.6
			c0.8,1.1,1.7,1.6,2.9,1.6c1.1,0,2.1-0.5,2.8-1.6c0.7-1.1,1.1-2.6,1.1-4.6c0-1.7-0.4-3.1-1.1-4.2c-0.8-1.1-1.7-1.6-2.9-1.6
			c-1.3,0-2.3,0.6-3,1.8C295.9,343.6,295.5,344.9,295.5,346.3L295.5,346.3z"/>
		<path class="st4" d="M290,474.1l5.3-0.8c0.1,1.4,0.5,2.4,1,3.1c0.5,0.7,1.3,1,2.2,1c1.1,0,2.1-0.7,2.9-2c0.8-1.4,1.3-4.2,1.5-8.4
			c-1.4,2.1-3.1,3.1-5.2,3.1c-2.3,0-4.2-1.1-5.8-3.4c-1.6-2.3-2.5-5.2-2.5-8.8c0-3.8,0.9-6.8,2.6-9.1c1.7-2.3,3.9-3.5,6.6-3.5
			c2.9,0,5.3,1.5,7.2,4.4c1.9,2.9,2.8,7.7,2.8,14.4c0,6.8-1,11.7-2.9,14.7c-1.9,3-4.5,4.5-7.6,4.5c-2.2,0-4.1-0.8-5.4-2.3
			C291.3,479.5,290.4,477.2,290,474.1L290,474.1z M302.4,458.5c0-2.3-0.4-4.1-1.2-5.4c-0.8-1.3-1.8-1.9-2.8-1.9
			c-1,0-1.9,0.5-2.5,1.6c-0.7,1-1,2.7-1,5.1c0,2.4,0.4,4.2,1.1,5.3c0.7,1.1,1.6,1.7,2.7,1.7c1.1,0,1.9-0.5,2.7-1.6
			C302.1,462.2,302.4,460.6,302.4,458.5L302.4,458.5z"/>
	</g>
</g>
</svg>
