<?xml version="1.0" encoding="utf-8"?>
<!-- Generator: Adobe Illustrator 19.2.0, SVG Export Plug-In . SVG Version: 6.00 Build 0)  -->
<svg version="1.1" id="Livello_1" xmlns="http://www.w3.org/2000/svg" xmlns:xlink="http://www.w3.org/1999/xlink" x="0px" y="0px"
	 viewBox="0 0 960 960" style="enable-background:new 0 0 960 960;" xml:space="preserve">
<style type="text/css">
	.st0{fill-rule:evenodd;clip-rule:evenodd;fill:#005EA7;stroke:#005EA7;stroke-width:0.9533;stroke-miterlimit:2.6131;}
	.st1{fill-rule:evenodd;clip-rule:evenodd;fill:#FFFFFF;stroke:#FFFFFF;stroke-width:0.9533;stroke-miterlimit:2.6131;}
	.st2{fill-rule:evenodd;clip-rule:evenodd;fill:#FFFFFF;}
	.st3{fill:none;stroke:#FFFFFF;stroke-width:6.3552;stroke-miterlimit:2.6131;}
</style>
<g>
	<g>
		<polygon class="st0" points="45,205.7 915,205.7 915,754.3 45,754.3 45,205.7 		"/>
		<path class="st1" d="M229.2,590.5l-3.4,39.4l50-11.9c1.7-1.7,6.9,1.7,5.3,5.2l-72.6,72.4l-72.4-72.4c-1.7-3.4,1.7-6.9,5.3-5.2
			l49.9,12l-3.5-39.6L229.2,590.5L229.2,590.5z"/>
		<path class="st1" d="M773.1,590.5l-3.4,39.4l50-11.9c1.7-1.7,6.9,1.7,5.3,5.2l-72.6,72.4L680,623.3c-1.7-3.4,1.7-6.9,5.3-5.2
			l49.9,12l-3.5-39.6L773.1,590.5L773.1,590.5z"/>
		<path class="st2" d="M251.1,293h31.3c6.2,0,10.8,0.2,13.9,0.8c3,0.5,5.8,1.5,8.2,3.1c2.4,1.6,4.4,3.7,6,6.3
			c1.6,2.6,2.4,5.6,2.4,8.9c0,3.6-1,6.8-3,9.8c-2,3-4.7,5.2-8,6.7c4.8,1.3,8.4,3.6,11,6.9c2.6,3.3,3.8,7.1,3.8,11.5
			c0,3.5-0.8,6.8-2.5,10.1c-1.7,3.3-3.9,5.9-6.8,7.8c-2.9,1.9-6.4,3.1-10.6,3.6c-2.6,0.3-9,0.4-19.1,0.5h-26.7V293L251.1,293z
			 M266.9,305.6v17.6h10.4c6.2,0,10-0.1,11.5-0.3c2.7-0.3,4.8-1.2,6.4-2.7c1.5-1.5,2.3-3.5,2.3-5.9c0-2.4-0.7-4.3-2-5.7
			c-1.3-1.5-3.3-2.4-6-2.7c-1.6-0.2-6.1-0.3-13.5-0.3H266.9L266.9,305.6z M266.9,335.8v20.3h14.6c5.7,0,9.3-0.1,10.9-0.5
			c2.4-0.4,4.3-1.4,5.7-3c1.5-1.6,2.2-3.8,2.2-6.5c0-2.3-0.6-4.2-1.7-5.8c-1.1-1.6-2.8-2.8-4.9-3.5c-2.2-0.7-6.8-1.1-14-1.1H266.9
			L266.9,335.8z"/>
		<path class="st2" d="M330.1,368.9V293h33.3c8.4,0,14.4,0.7,18.2,2.1c3.8,1.4,6.8,3.8,9.1,7.3c2.3,3.5,3.4,7.5,3.4,12
			c0,5.7-1.7,10.4-5.2,14.1c-3.4,3.7-8.6,6-15.5,7c3.4,1.9,6.3,4.1,8.5,6.4c2.2,2.3,5.2,6.4,9,12.3l9.6,14.8h-18.9l-11.4-16.5
			c-4.1-5.9-6.8-9.6-8.3-11.2c-1.5-1.5-3.1-2.6-4.8-3.2c-1.7-0.6-4.3-0.8-8-0.8h-3.2v31.7H330.1L330.1,368.9z M345.9,325.1h11.7
			c7.6,0,12.3-0.3,14.2-0.9c1.9-0.6,3.4-1.7,4.4-3.2c1.1-1.5,1.6-3.4,1.6-5.7c0-2.6-0.7-4.6-2.1-6.2c-1.4-1.6-3.4-2.6-6-3
			c-1.3-0.2-5.1-0.2-11.5-0.2h-12.3V325.1L345.9,325.1z"/>
		<polygon class="st2" points="408.6,368.9 408.6,293 424.4,293 424.4,368.9 408.6,368.9 		"/>
		<polygon class="st2" points="439.6,368.9 439.6,293 455,293 487.1,343.7 487.1,293 501.8,293 501.8,368.9 485.9,368.9 
			454.3,319.4 454.3,368.9 439.6,368.9 		"/>
		<path class="st2" d="M518.4,293h28.9c6.5,0,11.5,0.5,14.9,1.5c4.6,1.3,8.5,3.6,11.8,7c3.3,3.3,5.8,7.4,7.5,12.3
			c1.7,4.9,2.6,10.8,2.6,18c0,6.2-0.8,11.6-2.4,16.2c-1.9,5.5-4.7,10-8.4,13.4c-2.7,2.6-6.4,4.6-11.1,6.1c-3.5,1.1-8.1,1.6-14,1.6
			h-29.7V293L518.4,293z M534.2,305.9v50.3H546c4.4,0,7.6-0.2,9.6-0.7c2.6-0.6,4.7-1.7,6.4-3.1c1.7-1.5,3.1-3.9,4.1-7.3
			c1.1-3.4,1.6-8,1.6-13.9c0-5.9-0.5-10.4-1.6-13.5c-1.1-3.1-2.6-5.6-4.5-7.4c-1.9-1.8-4.4-3-7.3-3.6c-2.2-0.5-6.5-0.7-13-0.7H534.2
			L534.2,305.9z"/>
		<polygon class="st2" points="597,368.9 597,293 612.8,293 612.8,368.9 597,368.9 		"/>
		<path class="st2" d="M623.9,344.2l15.4-1.5c0.9,5,2.8,8.7,5.6,11.1c2.8,2.3,6.6,3.5,11.5,3.5c5.1,0,8.9-1,11.5-3.1
			c2.6-2.1,3.9-4.5,3.9-7.3c0-1.8-0.5-3.3-1.6-4.6c-1.1-1.3-3-2.4-5.7-3.3c-1.8-0.6-6.1-1.7-12.7-3.3c-8.5-2-14.4-4.5-17.8-7.5
			c-4.8-4.2-7.2-9.3-7.2-15.3c0-3.9,1.1-7.5,3.4-10.9c2.3-3.4,5.5-5.9,9.8-7.7c4.3-1.7,9.4-2.6,15.4-2.6c9.8,0,17.2,2.1,22.2,6.3
			c5,4.2,7.6,9.8,7.8,16.7l-15.8,0.7c-0.7-3.9-2.1-6.7-4.4-8.4c-2.2-1.7-5.6-2.6-10-2.6c-4.6,0-8.2,0.9-10.8,2.7
			c-1.7,1.2-2.5,2.7-2.5,4.7c0,1.8,0.8,3.3,2.4,4.6c2,1.6,6.8,3.3,14.5,5.1c7.7,1.8,13.4,3.6,17.1,5.5c3.7,1.9,6.6,4.5,8.7,7.7
			c2.1,3.3,3.1,7.3,3.1,12.1c0,4.3-1.2,8.4-3.7,12.2c-2.5,3.8-6,6.6-10.6,8.5c-4.6,1.9-10.2,2.8-17,2.8c-9.9,0-17.5-2.2-22.8-6.6
			C628.1,359.2,624.9,352.7,623.9,344.2L623.9,344.2z"/>
		<polygon class="st2" points="700.4,368.9 700.4,293 716.2,293 716.2,368.9 700.4,368.9 		"/>
		<polygon class="st2" points="246.1,508.7 246.1,445.6 222.9,445.6 222.9,432.8 285.1,432.8 285.1,445.6 261.9,445.6 261.9,508.7 
			246.1,508.7 		"/>
		<path class="st2" d="M357.9,508.7h-17.2l-6.8-17.3h-31.3l-6.5,17.3h-16.8l30.5-75.9h16.7L357.9,508.7L357.9,508.7z M328.7,478.7
			l-10.8-28.2l-10.6,28.2H328.7L328.7,478.7z"/>
		<path class="st2" d="M366.3,508.7v-75.9h33.3c8.4,0,14.4,0.7,18.2,2.1c3.8,1.4,6.8,3.8,9.1,7.3c2.3,3.5,3.4,7.5,3.4,12
			c0,5.7-1.7,10.4-5.2,14.1c-3.4,3.7-8.6,6-15.5,7c3.4,1.9,6.3,4.1,8.5,6.4c2.2,2.3,5.2,6.4,9,12.3l9.6,14.8h-18.9l-11.4-16.5
			c-4.1-5.9-6.8-9.6-8.3-11.2c-1.5-1.5-3.1-2.6-4.8-3.2c-1.7-0.6-4.3-0.8-8-0.8h-3.2v31.7H366.3L366.3,508.7z M382.1,464.9h11.7
			c7.6,0,12.3-0.3,14.2-0.9c1.9-0.6,3.4-1.7,4.4-3.2c1.1-1.5,1.6-3.4,1.6-5.7c0-2.6-0.7-4.6-2.1-6.2c-1.4-1.6-3.4-2.6-6-3
			c-1.3-0.2-5.1-0.2-11.5-0.2h-12.3V464.9L382.1,464.9z"/>
		<path class="st2" d="M515.9,508.7h-17.2l-6.8-17.3h-31.3l-6.5,17.3h-16.8l30.5-75.9h16.7L515.9,508.7L515.9,508.7z M486.7,478.7
			l-10.8-28.2l-10.6,28.2H486.7L486.7,478.7z"/>
		<polygon class="st2" points="524.4,508.7 524.4,432.8 539.8,432.8 571.8,483.5 571.8,432.8 586.5,432.8 586.5,508.7 570.6,508.7 
			539.1,459.2 539.1,508.7 524.4,508.7 		"/>
		<polygon class="st2" points="620.8,508.7 620.8,445.6 597.6,445.6 597.6,432.8 659.8,432.8 659.8,445.6 636.7,445.6 636.7,508.7 
			620.8,508.7 		"/>
		<path class="st2" d="M664.9,471.2c0-7.7,1.2-14.2,3.6-19.5c1.8-3.9,4.2-7.3,7.3-10.4c3.1-3.1,6.5-5.3,10.1-6.8
			c4.9-2,10.5-3,16.9-3c11.5,0,20.8,3.5,27.7,10.4c6.9,6.9,10.4,16.6,10.4,28.9c0,12.3-3.4,21.9-10.3,28.8
			c-6.9,6.9-16.1,10.4-27.6,10.4c-11.7,0-20.9-3.4-27.8-10.3C668.3,492.8,664.9,483.3,664.9,471.2L664.9,471.2z M681.2,470.7
			c0,8.6,2.1,15.1,6.1,19.6c4.1,4.4,9.3,6.6,15.6,6.6c6.3,0,11.5-2.2,15.5-6.6c4-4.4,6.1-11,6.1-19.8c0-8.7-2-15.2-5.9-19.5
			c-3.9-4.3-9.2-6.4-15.7-6.4c-6.5,0-11.8,2.2-15.8,6.5C683.2,455.4,681.2,461.9,681.2,470.7L681.2,470.7z"/>
		<path class="st3" d="M98.6,220.3h763.9c22.3,0,40.6,18.3,40.6,40.6v439.9c0,22.3-18.3,40.6-40.6,40.6H98.6
			C76.3,741.3,58,723,58,700.7V260.8C58,238.5,76.3,220.3,98.6,220.3L98.6,220.3z"/>
	</g>
</g>
</svg>
