<?xml version="1.0" encoding="utf-8"?>
<!-- Generator: Adobe Illustrator 19.2.0, SVG Export Plug-In . SVG Version: 6.00 Build 0)  -->
<svg version="1.1" id="Livello_1" xmlns="http://www.w3.org/2000/svg" xmlns:xlink="http://www.w3.org/1999/xlink" x="0px" y="0px"
	 viewBox="0 0 960 960" style="enable-background:new 0 0 960 960;" xml:space="preserve">
<style type="text/css">
	.st0{fill:#FFFFFF;stroke:#1A171B;stroke-width:1.221;stroke-miterlimit:2.6131;}
	.st1{fill:none;stroke:#1A171B;stroke-width:8.1403;stroke-miterlimit:2.6131;}
	.st2{fill-rule:evenodd;clip-rule:evenodd;fill:#1A171B;stroke:#1A171B;stroke-width:1.221;stroke-miterlimit:2.6131;}
	.st3{fill-rule:evenodd;clip-rule:evenodd;fill:#1A171B;}
	.st4{fill:none;stroke:#1A171B;stroke-width:0.407;stroke-miterlimit:2.6131;}
</style>
<g>
	<g>
		<polygon class="st0" points="915,130.4 45,130.4 45,829.6 915,829.6 915,130.4 		"/>
		<path class="st1" d="M859.6,146.3H100.9c-22.2,0-40,18.3-40,39.5v587.9c0,21.4,18.3,39.7,40,39.7h758.7
			c21.2,0,39.5-17.8,39.5-39.7V185.8C899.1,163.6,881.8,146.3,859.6,146.3L859.6,146.3z"/>
		<path class="st2" d="M733.1,608.1l37.2,44.2l39.3-63.9c0-3.6,8.9-5.3,10.8-0.1L820.3,738l-149.4,0c-5.3-1.8-5.3-8.9,0.1-10.8
			l63.9-39.2l-44.5-37.2L733.1,608.1L733.1,608.1z"/>
		<path class="st3" d="M449.5,239.7h42.1c8.3,0,14.6,0.3,18.7,1.1c4.1,0.7,7.8,2.2,11,4.4c3.2,2.2,5.9,5.2,8.1,8.9
			c2.2,3.7,3.2,7.8,3.2,12.4c0,5-1.3,9.5-4,13.7c-2.7,4.2-6.3,7.3-10.8,9.3c6.4,1.9,11.4,5.1,14.8,9.6c3.5,4.5,5.2,9.9,5.2,16
			c0,4.8-1.1,9.5-3.3,14.1c-2.2,4.5-5.3,8.2-9.1,10.9c-3.9,2.7-8.6,4.4-14.3,5c-3.5,0.4-12.1,0.6-25.7,0.7h-35.9V239.7L449.5,239.7z
			 M470.8,257.4v24.5h13.9c8.3,0,13.4-0.1,15.5-0.4c3.6-0.4,6.5-1.7,8.6-3.8c2.1-2.1,3.1-4.9,3.1-8.3c0-3.3-0.9-6-2.7-8
			c-1.8-2.1-4.5-3.3-8-3.7c-2.1-0.2-8.2-0.4-18.2-0.4H470.8L470.8,257.4z M470.8,299.6v28.4h19.7c7.7,0,12.5-0.2,14.6-0.6
			c3.2-0.6,5.7-2,7.7-4.2c2-2.2,3-5.3,3-9c0-3.2-0.8-5.9-2.3-8.1c-1.5-2.2-3.8-3.9-6.7-4.9c-2.9-1-9.2-1.5-18.9-1.5H470.8
			L470.8,299.6z"/>
		<path class="st3" d="M650.9,345.8h-23.2l-9.2-24.1h-42.1l-8.7,24.1h-22.6l41.1-106.1h22.5L650.9,345.8L650.9,345.8z M611.7,303.8
			l-14.5-39.4l-14.2,39.4H611.7L611.7,303.8z"/>
		<path class="st3" d="M662.2,345.8V239.7H707c11.3,0,19.4,1,24.5,2.9c5.1,1.9,9.2,5.3,12.3,10.2c3.1,4.9,4.6,10.5,4.6,16.7
			c0,8-2.3,14.5-7,19.7c-4.6,5.2-11.6,8.5-20.9,9.8c4.6,2.7,8.4,5.7,11.4,8.9c3,3.2,7,9,12.1,17.2l12.9,20.7h-25.5l-15.4-23.1
			c-5.5-8.3-9.2-13.4-11.2-15.6c-2-2.2-4.2-3.6-6.4-4.4c-2.3-0.8-5.8-1.2-10.7-1.2h-4.3v44.3H662.2L662.2,345.8z M683.5,284.6h15.7
			c10.2,0,16.6-0.4,19.1-1.3c2.5-0.9,4.5-2.4,6-4.5c1.4-2.1,2.2-4.8,2.2-8c0-3.6-1-6.5-2.8-8.6c-1.9-2.2-4.6-3.6-8-4.2
			c-1.7-0.2-6.9-0.3-15.5-0.3h-16.6V284.6L683.5,284.6z"/>
		<polygon class="st3" points="767.8,345.8 767.8,239.7 789.1,239.7 789.1,345.8 767.8,345.8 		"/>
		<path class="st4" d="M449.5,239.7h42.1c8.3,0,14.6,0.3,18.7,1.1c4.1,0.7,7.8,2.2,11,4.4c3.2,2.2,5.9,5.2,8.1,8.9
			c2.2,3.7,3.2,7.8,3.2,12.4c0,5-1.3,9.5-4,13.7c-2.7,4.2-6.3,7.3-10.8,9.3c6.4,1.9,11.4,5.1,14.8,9.6c3.5,4.5,5.2,9.9,5.2,16
			c0,4.8-1.1,9.5-3.3,14.1c-2.2,4.5-5.3,8.2-9.1,10.9c-3.9,2.7-8.6,4.4-14.3,5c-3.5,0.4-12.1,0.6-25.7,0.7h-35.9V239.7L449.5,239.7z
			 M470.8,257.4v24.5h13.9c8.3,0,13.4-0.1,15.5-0.4c3.6-0.4,6.5-1.7,8.6-3.8c2.1-2.1,3.1-4.9,3.1-8.3c0-3.3-0.9-6-2.7-8
			c-1.8-2.1-4.5-3.3-8-3.7c-2.1-0.2-8.2-0.4-18.2-0.4H470.8L470.8,257.4z M470.8,299.6v28.4h19.7c7.7,0,12.5-0.2,14.6-0.6
			c3.2-0.6,5.7-2,7.7-4.2c2-2.2,3-5.3,3-9c0-3.2-0.8-5.9-2.3-8.1c-1.5-2.2-3.8-3.9-6.7-4.9c-2.9-1-9.2-1.5-18.9-1.5H470.8
			L470.8,299.6z"/>
		<path class="st4" d="M650.9,345.8h-23.2l-9.2-24.1h-42.1l-8.7,24.1h-22.6l41.1-106.1h22.5L650.9,345.8L650.9,345.8z M611.7,303.8
			l-14.5-39.4l-14.2,39.4H611.7L611.7,303.8z"/>
		<path class="st4" d="M662.2,345.8V239.7H707c11.3,0,19.4,1,24.5,2.9c5.1,1.9,9.2,5.3,12.3,10.2c3.1,4.9,4.6,10.5,4.6,16.7
			c0,8-2.3,14.5-7,19.7c-4.6,5.2-11.6,8.5-20.9,9.8c4.6,2.7,8.4,5.7,11.4,8.9c3,3.2,7,9,12.1,17.2l12.9,20.7h-25.5l-15.4-23.1
			c-5.5-8.3-9.2-13.4-11.2-15.6c-2-2.2-4.2-3.6-6.4-4.4c-2.3-0.8-5.8-1.2-10.7-1.2h-4.3v44.3H662.2L662.2,345.8z M683.5,284.6h15.7
			c10.2,0,16.6-0.4,19.1-1.3c2.5-0.9,4.5-2.4,6-4.5c1.4-2.1,2.2-4.8,2.2-8c0-3.6-1-6.5-2.8-8.6c-1.9-2.2-4.6-3.6-8-4.2
			c-1.7-0.2-6.9-0.3-15.5-0.3h-16.6V284.6L683.5,284.6z"/>
		<polygon class="st4" points="767.8,345.8 767.8,239.7 789.1,239.7 789.1,345.8 767.8,345.8 		"/>
		<path class="st3" d="M148.7,520.7v-67.9h21.9c8.3,0,13.7,0.3,16.2,1c3.9,1,7.1,3.2,9.7,6.6c2.6,3.4,3.9,7.8,3.9,13.2
			c0,4.2-0.8,7.7-2.3,10.5c-1.5,2.8-3.4,5.1-5.7,6.7c-2.3,1.6-4.7,2.7-7.1,3.2c-3.3,0.7-8,1-14.1,1h-8.9v25.6H148.7L148.7,520.7z
			 M162.3,464.3v19.3h7.4c5.4,0,9-0.3,10.8-1.1c1.8-0.7,3.2-1.8,4.3-3.3c1-1.5,1.5-3.3,1.5-5.3c0-2.5-0.7-4.5-2.2-6.1
			c-1.4-1.6-3.3-2.6-5.5-3c-1.6-0.3-4.9-0.5-9.8-0.5H162.3L162.3,464.3z"/>
		<path class="st3" d="M208.5,495.4c0-4.3,1.1-8.5,3.2-12.6c2.1-4,5.1-7.1,9-9.3c3.9-2.1,8.2-3.2,13-3.2c7.4,0,13.5,2.4,18.2,7.3
			c4.7,4.8,7.1,10.9,7.1,18.3c0,7.4-2.4,13.6-7.1,18.5c-4.8,4.9-10.8,7.3-18,7.3c-4.5,0-8.8-1-12.8-3.1c-4.1-2-7.2-5-9.3-9
			C209.5,505.8,208.5,501.1,208.5,495.4L208.5,495.4z M221.7,496.1c0,4.9,1.1,8.6,3.5,11.2c2.3,2.6,5.1,3.9,8.5,3.9
			c3.4,0,6.2-1.3,8.5-3.9c2.3-2.6,3.4-6.4,3.4-11.3c0-4.8-1.1-8.5-3.4-11.1c-2.3-2.6-5.1-3.9-8.5-3.9c-3.4,0-6.2,1.3-8.5,3.9
			C222.9,487.5,221.7,491.2,221.7,496.1L221.7,496.1z"/>
		<path class="st3" d="M267.9,523.9l14.8,1.8c0.3,1.7,0.8,2.9,1.7,3.6c1.2,0.9,3.2,1.4,5.8,1.4c3.4,0,5.9-0.5,7.6-1.5
			c1.1-0.7,2-1.8,2.6-3.3c0.4-1.1,0.6-3.1,0.6-6v-7.2c-3.9,5.3-8.8,8-14.6,8c-6.6,0-11.8-2.8-15.6-8.4c-3-4.4-4.5-9.9-4.5-16.5
			c0-8.3,2-14.5,5.9-18.9c3.9-4.3,8.8-6.5,14.7-6.5c6,0,11,2.7,15,8v-6.9h12.1v44.2c0,5.8-0.5,10.1-1.4,13c-0.9,2.9-2.3,5.1-4,6.8
			c-1.7,1.6-4,2.9-6.9,3.8c-2.9,0.9-6.5,1.4-10.9,1.4c-8.3,0-14.2-1.4-17.6-4.3c-3.5-2.9-5.2-6.5-5.2-10.9
			C267.8,525.1,267.8,524.6,267.9,523.9L267.9,523.9z M279.4,495.1c0,5.2,1,9.1,3,11.5c2,2.4,4.5,3.6,7.4,3.6c3.2,0,5.8-1.2,8-3.7
			c2.2-2.5,3.3-6.2,3.3-11.1c0-5.1-1.1-8.9-3.1-11.3c-2.1-2.5-4.7-3.7-7.9-3.7c-3.1,0-5.7,1.2-7.7,3.6
			C280.4,486.4,279.4,490.1,279.4,495.1L279.4,495.1z"/>
		<path class="st3" d="M325.5,523.9l14.8,1.8c0.3,1.7,0.8,2.9,1.7,3.6c1.2,0.9,3.2,1.4,5.8,1.4c3.4,0,5.9-0.5,7.6-1.5
			c1.1-0.7,2-1.8,2.6-3.3c0.4-1.1,0.6-3.1,0.6-6v-7.2c-3.9,5.3-8.8,8-14.6,8c-6.6,0-11.8-2.8-15.6-8.4c-3-4.4-4.5-9.9-4.5-16.5
			c0-8.3,2-14.5,5.9-18.9c3.9-4.3,8.8-6.5,14.7-6.5c6,0,11,2.7,15,8v-6.9h12.1v44.2c0,5.8-0.5,10.1-1.4,13c-0.9,2.9-2.3,5.1-4,6.8
			c-1.7,1.6-4,2.9-6.9,3.8c-2.9,0.9-6.5,1.4-10.9,1.4c-8.3,0-14.2-1.4-17.6-4.3c-3.5-2.9-5.2-6.5-5.2-10.9
			C325.4,525.1,325.5,524.6,325.5,523.9L325.5,523.9z M337,495.1c0,5.2,1,9.1,3,11.5c2,2.4,4.5,3.6,7.4,3.6c3.2,0,5.8-1.2,8-3.7
			c2.2-2.5,3.3-6.2,3.3-11.1c0-5.1-1.1-8.9-3.1-11.3c-2.1-2.5-4.7-3.7-7.9-3.7c-3.1,0-5.7,1.2-7.7,3.6
			C338,486.4,337,490.1,337,495.1L337,495.1z"/>
		<path class="st3" d="M384.3,464.8v-12.1h12.9v12.1H384.3L384.3,464.8z M384.3,520.7v-49.2h12.9v49.2H384.3L384.3,520.7z"/>
		<path class="st3" d="M407.5,495.4c0-4.3,1.1-8.5,3.2-12.6c2.1-4,5.1-7.1,9-9.3c3.9-2.1,8.2-3.2,13-3.2c7.4,0,13.5,2.4,18.2,7.3
			c4.7,4.8,7.1,10.9,7.1,18.3c0,7.4-2.4,13.6-7.1,18.5c-4.8,4.9-10.8,7.3-18,7.3c-4.5,0-8.8-1-12.8-3.1c-4.1-2-7.2-5-9.3-9
			C408.6,505.8,407.5,501.1,407.5,495.4L407.5,495.4z M420.8,496.1c0,4.9,1.1,8.6,3.5,11.2c2.3,2.6,5.1,3.9,8.5,3.9
			c3.4,0,6.2-1.3,8.5-3.9c2.3-2.6,3.4-6.4,3.4-11.3c0-4.8-1.2-8.5-3.4-11.1c-2.3-2.6-5.1-3.9-8.5-3.9c-3.4,0-6.2,1.3-8.5,3.9
			C421.9,487.5,420.8,491.2,420.8,496.1L420.8,496.1z"/>
		<polygon class="st3" points="494.5,520.7 494.5,452.8 540.8,452.8 540.8,464.3 508.2,464.3 508.2,480.3 536.3,480.3 536.3,491.8 
			508.2,491.8 508.2,520.7 494.5,520.7 		"/>
		<path class="st3" d="M551.4,520.7v-49.2h12v7c2.1-3.3,3.9-5.5,5.5-6.5c1.7-1,3.5-1.6,5.6-1.6c3,0,5.8,0.8,8.5,2.5l-4,11.3
			c-2.2-1.4-4.2-2.1-6.1-2.1c-1.8,0-3.4,0.5-4.6,1.5c-1.3,1-2.2,2.8-3,5.4c-0.7,2.6-1.1,8.1-1.1,16.5v15.2H551.4z"/>
		<path class="st3" d="M598.3,486.5l-11.7-2.1c1.3-4.8,3.6-8.3,6.8-10.6c3.2-2.3,8-3.4,14.4-3.4c5.8,0,10.1,0.7,12.9,2.1
			c2.8,1.4,4.8,3.1,6,5.2c1.1,2.1,1.7,6,1.7,11.7l-0.1,15.2c0,4.3,0.2,7.5,0.6,9.6c0.4,2,1.2,4.3,2.3,6.6h-12.8
			c-0.3-0.9-0.8-2.1-1.2-3.8c-0.2-0.8-0.4-1.3-0.5-1.5c-2.2,2.2-4.6,3.8-7.1,4.9c-2.5,1.1-5.2,1.6-8.1,1.6c-5,0-9-1.4-11.9-4.1
			c-2.9-2.7-4.4-6.2-4.4-10.4c0-2.8,0.7-5.2,2-7.4c1.3-2.2,3.2-3.8,5.5-5c2.4-1.2,5.8-2.2,10.3-3c6-1.1,10.2-2.2,12.6-3.2v-1.3
			c0-2.5-0.6-4.3-1.8-5.4c-1.2-1.1-3.5-1.6-7-1.6c-2.3,0-4.1,0.5-5.4,1.4C600.1,482.6,599.1,484.2,598.3,486.5L598.3,486.5z
			 M615.6,497.1c-1.7,0.6-4.3,1.2-7.9,2c-3.6,0.8-5.9,1.5-7,2.3c-1.7,1.2-2.5,2.7-2.5,4.6c0,1.8,0.7,3.4,2,4.7c1.4,1.3,3.1,2,5.2,2
			c2.3,0,4.6-0.8,6.7-2.3c1.6-1.2,2.6-2.6,3.1-4.3c0.3-1.1,0.5-3.2,0.5-6.3V497.1L615.6,497.1z"/>
		<path class="st3" d="M685.5,520.7h-12.9v-25.1c0-5.3-0.3-8.7-0.8-10.3c-0.5-1.5-1.5-2.8-2.7-3.6c-1.2-0.9-2.7-1.3-4.5-1.3
			c-2.2,0-4.3,0.6-6,1.8c-1.8,1.2-3,2.9-3.7,4.9c-0.7,2-1,5.8-1,11.3v22.3H641v-49.2h12v7.2c4.3-5.6,9.6-8.4,16.1-8.4
			c2.8,0,5.5,0.5,7.8,1.6c2.4,1,4.2,2.4,5.4,4c1.2,1.6,2.1,3.4,2.5,5.5c0.5,2,0.7,4.9,0.7,8.7V520.7L685.5,520.7z"/>
		<path class="st3" d="M741.3,486l-12.8,2.3c-0.4-2.6-1.4-4.5-2.9-5.8c-1.5-1.3-3.5-1.9-5.9-1.9c-3.2,0-5.8,1.1-7.7,3.4
			c-1.9,2.2-2.9,6-2.9,11.2c0,5.8,1,10,2.9,12.4c1.9,2.4,4.6,3.6,7.8,3.6c2.5,0,4.5-0.7,6-2.1c1.6-1.4,2.7-3.8,3.3-7.2L742,504
			c-1.3,5.9-3.9,10.3-7.6,13.3c-3.7,3-8.7,4.5-15.1,4.5c-7.1,0-12.9-2.3-17.1-6.8c-4.3-4.5-6.4-10.8-6.4-18.9c0-8.1,2.1-14.4,6.4-19
			c4.3-4.5,10-6.8,17.3-6.8c6,0,10.7,1.3,14.2,3.9C737.3,476.8,739.8,480.8,741.3,486L741.3,486z"/>
		<path class="st3" d="M748.1,495.4c0-4.3,1.1-8.5,3.2-12.6c2.1-4,5.1-7.1,9-9.3c3.9-2.1,8.2-3.2,13-3.2c7.4,0,13.5,2.4,18.2,7.3
			c4.7,4.8,7.1,10.9,7.1,18.3c0,7.4-2.4,13.6-7.1,18.5c-4.8,4.9-10.8,7.3-18,7.3c-4.5,0-8.8-1-12.8-3.1c-4.1-2-7.2-5-9.3-9
			C749.2,505.8,748.1,501.1,748.1,495.4L748.1,495.4z M761.4,496.1c0,4.9,1.1,8.6,3.5,11.2c2.3,2.6,5.1,3.9,8.5,3.9
			c3.4,0,6.2-1.3,8.5-3.9c2.3-2.6,3.4-6.4,3.4-11.3c0-4.8-1.1-8.5-3.4-11.1c-2.3-2.6-5.1-3.9-8.5-3.9c-3.4,0-6.2,1.3-8.5,3.9
			C762.5,487.5,761.4,491.2,761.4,496.1L761.4,496.1z"/>
		<path class="st4" d="M148.7,520.7v-67.9h21.9c8.3,0,13.7,0.3,16.2,1c3.9,1,7.1,3.2,9.7,6.6c2.6,3.4,3.9,7.8,3.9,13.2
			c0,4.2-0.8,7.7-2.3,10.5c-1.5,2.8-3.4,5.1-5.7,6.7c-2.3,1.6-4.7,2.7-7.1,3.2c-3.3,0.7-8,1-14.1,1h-8.9v25.6H148.7L148.7,520.7z
			 M162.3,464.3v19.3h7.4c5.4,0,9-0.3,10.8-1.1c1.8-0.7,3.2-1.8,4.3-3.3c1-1.5,1.5-3.3,1.5-5.3c0-2.5-0.7-4.5-2.2-6.1
			c-1.4-1.6-3.3-2.6-5.5-3c-1.6-0.3-4.9-0.5-9.8-0.5H162.3L162.3,464.3z"/>
		<path class="st4" d="M208.5,495.4c0-4.3,1.1-8.5,3.2-12.6c2.1-4,5.1-7.1,9-9.3c3.9-2.1,8.2-3.2,13-3.2c7.4,0,13.5,2.4,18.2,7.3
			c4.7,4.8,7.1,10.9,7.1,18.3c0,7.4-2.4,13.6-7.1,18.5c-4.8,4.9-10.8,7.3-18,7.3c-4.5,0-8.8-1-12.8-3.1c-4.1-2-7.2-5-9.3-9
			C209.5,505.8,208.5,501.1,208.5,495.4L208.5,495.4z M221.7,496.1c0,4.9,1.1,8.6,3.5,11.2c2.3,2.6,5.1,3.9,8.5,3.9
			c3.4,0,6.2-1.3,8.5-3.9c2.3-2.6,3.4-6.4,3.4-11.3c0-4.8-1.1-8.5-3.4-11.1c-2.3-2.6-5.1-3.9-8.5-3.9c-3.4,0-6.2,1.3-8.5,3.9
			C222.9,487.5,221.7,491.2,221.7,496.1L221.7,496.1z"/>
		<path class="st4" d="M267.9,523.9l14.8,1.8c0.3,1.7,0.8,2.9,1.7,3.6c1.2,0.9,3.2,1.4,5.8,1.4c3.4,0,5.9-0.5,7.6-1.5
			c1.1-0.7,2-1.8,2.6-3.3c0.4-1.1,0.6-3.1,0.6-6v-7.2c-3.9,5.3-8.8,8-14.6,8c-6.6,0-11.8-2.8-15.6-8.4c-3-4.4-4.5-9.9-4.5-16.5
			c0-8.3,2-14.5,5.9-18.9c3.9-4.3,8.8-6.5,14.7-6.5c6,0,11,2.7,15,8v-6.9h12.1v44.2c0,5.8-0.5,10.1-1.4,13c-0.9,2.9-2.3,5.1-4,6.8
			c-1.7,1.6-4,2.9-6.9,3.8c-2.9,0.9-6.5,1.4-10.9,1.4c-8.3,0-14.2-1.4-17.6-4.3c-3.5-2.9-5.2-6.5-5.2-10.9
			C267.8,525.1,267.8,524.6,267.9,523.9L267.9,523.9z M279.4,495.1c0,5.2,1,9.1,3,11.5c2,2.4,4.5,3.6,7.4,3.6c3.2,0,5.8-1.2,8-3.7
			c2.2-2.5,3.3-6.2,3.3-11.1c0-5.1-1.1-8.9-3.1-11.3c-2.1-2.5-4.7-3.7-7.9-3.7c-3.1,0-5.7,1.2-7.7,3.6
			C280.4,486.4,279.4,490.1,279.4,495.1L279.4,495.1z"/>
		<path class="st4" d="M325.5,523.9l14.8,1.8c0.3,1.7,0.8,2.9,1.7,3.6c1.2,0.9,3.2,1.4,5.8,1.4c3.4,0,5.9-0.5,7.6-1.5
			c1.1-0.7,2-1.8,2.6-3.3c0.4-1.1,0.6-3.1,0.6-6v-7.2c-3.9,5.3-8.8,8-14.6,8c-6.6,0-11.8-2.8-15.6-8.4c-3-4.4-4.5-9.9-4.5-16.5
			c0-8.3,2-14.5,5.9-18.9c3.9-4.3,8.8-6.5,14.7-6.5c6,0,11,2.7,15,8v-6.9h12.1v44.2c0,5.8-0.5,10.1-1.4,13c-0.9,2.9-2.3,5.1-4,6.8
			c-1.7,1.6-4,2.9-6.9,3.8c-2.9,0.9-6.5,1.4-10.9,1.4c-8.3,0-14.2-1.4-17.6-4.3c-3.5-2.9-5.2-6.5-5.2-10.9
			C325.4,525.1,325.5,524.6,325.5,523.9L325.5,523.9z M337,495.1c0,5.2,1,9.1,3,11.5c2,2.4,4.5,3.6,7.4,3.6c3.2,0,5.8-1.2,8-3.7
			c2.2-2.5,3.3-6.2,3.3-11.1c0-5.1-1.1-8.9-3.1-11.3c-2.1-2.5-4.7-3.7-7.9-3.7c-3.1,0-5.7,1.2-7.7,3.6
			C338,486.4,337,490.1,337,495.1L337,495.1z"/>
		<path class="st4" d="M384.3,464.8v-12.1h12.9v12.1H384.3L384.3,464.8z M384.3,520.7v-49.2h12.9v49.2H384.3L384.3,520.7z"/>
		<path class="st4" d="M407.5,495.4c0-4.3,1.1-8.5,3.2-12.6c2.1-4,5.1-7.1,9-9.3c3.9-2.1,8.2-3.2,13-3.2c7.4,0,13.5,2.4,18.2,7.3
			c4.7,4.8,7.1,10.9,7.1,18.3c0,7.4-2.4,13.6-7.1,18.5c-4.8,4.9-10.8,7.3-18,7.3c-4.5,0-8.8-1-12.8-3.1c-4.1-2-7.2-5-9.3-9
			C408.6,505.8,407.5,501.1,407.5,495.4L407.5,495.4z M420.8,496.1c0,4.9,1.1,8.6,3.5,11.2c2.3,2.6,5.1,3.9,8.5,3.9
			c3.4,0,6.2-1.3,8.5-3.9c2.3-2.6,3.4-6.4,3.4-11.3c0-4.8-1.2-8.5-3.4-11.1c-2.3-2.6-5.1-3.9-8.5-3.9c-3.4,0-6.2,1.3-8.5,3.9
			C421.9,487.5,420.8,491.2,420.8,496.1L420.8,496.1z"/>
		<polygon class="st4" points="494.5,520.7 494.5,452.8 540.8,452.8 540.8,464.3 508.2,464.3 508.2,480.3 536.3,480.3 536.3,491.8 
			508.2,491.8 508.2,520.7 494.5,520.7 		"/>
		<path class="st4" d="M598.3,486.5l-11.7-2.1c1.3-4.8,3.6-8.3,6.8-10.6c3.2-2.3,8-3.4,14.4-3.4c5.8,0,10.1,0.7,12.9,2.1
			c2.8,1.4,4.8,3.1,6,5.2c1.1,2.1,1.7,6,1.7,11.7l-0.1,15.2c0,4.3,0.2,7.5,0.6,9.6c0.4,2,1.2,4.3,2.3,6.6h-12.8
			c-0.3-0.9-0.8-2.1-1.2-3.8c-0.2-0.8-0.4-1.3-0.5-1.5c-2.2,2.2-4.6,3.8-7.1,4.9c-2.5,1.1-5.2,1.6-8.1,1.6c-5,0-9-1.4-11.9-4.1
			c-2.9-2.7-4.4-6.2-4.4-10.4c0-2.8,0.7-5.2,2-7.4c1.3-2.2,3.2-3.8,5.5-5c2.4-1.2,5.8-2.2,10.3-3c6-1.1,10.2-2.2,12.6-3.2v-1.3
			c0-2.5-0.6-4.3-1.8-5.4c-1.2-1.1-3.5-1.6-7-1.6c-2.3,0-4.1,0.5-5.4,1.4C600.1,482.6,599.1,484.2,598.3,486.5L598.3,486.5z
			 M615.6,497.1c-1.7,0.6-4.3,1.2-7.9,2c-3.6,0.8-5.9,1.5-7,2.3c-1.7,1.2-2.5,2.7-2.5,4.6c0,1.8,0.7,3.4,2,4.7c1.4,1.3,3.1,2,5.2,2
			c2.3,0,4.6-0.8,6.7-2.3c1.6-1.2,2.6-2.6,3.1-4.3c0.3-1.1,0.5-3.2,0.5-6.3V497.1L615.6,497.1z"/>
		<path class="st4" d="M685.5,520.7h-12.9v-25.1c0-5.3-0.3-8.7-0.8-10.3c-0.5-1.5-1.5-2.8-2.7-3.6c-1.2-0.9-2.7-1.3-4.5-1.3
			c-2.2,0-4.3,0.6-6,1.8c-1.8,1.2-3,2.9-3.7,4.9c-0.7,2-1,5.8-1,11.3v22.3H641v-49.2h12v7.2c4.3-5.6,9.6-8.4,16.1-8.4
			c2.8,0,5.5,0.5,7.8,1.6c2.4,1,4.2,2.4,5.4,4c1.2,1.6,2.1,3.4,2.5,5.5c0.5,2,0.7,4.9,0.7,8.7V520.7L685.5,520.7z"/>
		<path class="st4" d="M741.3,486l-12.8,2.3c-0.4-2.6-1.4-4.5-2.9-5.8c-1.5-1.3-3.5-1.9-5.9-1.9c-3.2,0-5.8,1.1-7.7,3.4
			c-1.9,2.2-2.9,6-2.9,11.2c0,5.8,1,10,2.9,12.4c1.9,2.4,4.6,3.6,7.8,3.6c2.5,0,4.5-0.7,6-2.1c1.6-1.4,2.7-3.8,3.3-7.2L742,504
			c-1.3,5.9-3.9,10.3-7.6,13.3c-3.7,3-8.7,4.5-15.1,4.5c-7.1,0-12.9-2.3-17.1-6.8c-4.3-4.5-6.4-10.8-6.4-18.9c0-8.1,2.1-14.4,6.4-19
			c4.3-4.5,10-6.8,17.3-6.8c6,0,10.7,1.3,14.2,3.9C737.3,476.8,739.8,480.8,741.3,486L741.3,486z"/>
		<path class="st4" d="M748.1,495.4c0-4.3,1.1-8.5,3.2-12.6c2.1-4,5.1-7.1,9-9.3c3.9-2.1,8.2-3.2,13-3.2c7.4,0,13.5,2.4,18.2,7.3
			c4.7,4.8,7.1,10.9,7.1,18.3c0,7.4-2.4,13.6-7.1,18.5c-4.8,4.9-10.8,7.3-18,7.3c-4.5,0-8.8-1-12.8-3.1c-4.1-2-7.2-5-9.3-9
			C749.2,505.8,748.1,501.1,748.1,495.4L748.1,495.4z M761.4,496.1c0,4.9,1.1,8.6,3.5,11.2c2.3,2.6,5.1,3.9,8.5,3.9
			c3.4,0,6.2-1.3,8.5-3.9c2.3-2.6,3.4-6.4,3.4-11.3c0-4.8-1.1-8.5-3.4-11.1c-2.3-2.6-5.1-3.9-8.5-3.9c-3.4,0-6.2,1.3-8.5,3.9
			C762.5,487.5,761.4,491.2,761.4,496.1L761.4,496.1z"/>
	</g>
</g>
</svg>
