<?xml version="1.0" encoding="utf-8"?>
<!-- Generator: Adobe Illustrator 19.2.0, SVG Export Plug-In . SVG Version: 6.00 Build 0)  -->
<svg version="1.1" id="Livello_1" xmlns="http://www.w3.org/2000/svg" xmlns:xlink="http://www.w3.org/1999/xlink" x="0px" y="0px"
	 viewBox="0 0 960 960" style="enable-background:new 0 0 960 960;" xml:space="preserve">
<style type="text/css">
	.st0{fill-rule:evenodd;clip-rule:evenodd;fill:#008E43;stroke:#008E43;stroke-width:0.7144;stroke-miterlimit:2.6131;}
	.st1{fill-rule:evenodd;clip-rule:evenodd;fill:#FFFFFF;stroke:#FFFFFF;stroke-width:0.7144;stroke-miterlimit:2.6131;}
	.st2{fill-rule:evenodd;clip-rule:evenodd;fill:#005EA7;}
	.st3{fill-rule:evenodd;clip-rule:evenodd;fill:#FFFFFF;}
	.st4{fill:none;stroke:#FFFFFF;stroke-width:2.3814;stroke-miterlimit:2.6131;}
	.st5{fill-rule:evenodd;clip-rule:evenodd;fill:#1A171B;}
	.st6{fill:none;stroke:#1A171B;stroke-width:0.7144;stroke-miterlimit:2.6131;}
	.st7{fill-rule:evenodd;clip-rule:evenodd;fill:#008E43;}
	.st8{fill:none;stroke:#FFFFFF;stroke-width:3.0958;stroke-miterlimit:2.6131;}
	.st9{fill-rule:evenodd;clip-rule:evenodd;fill:#1A171B;stroke:#1A171B;stroke-width:1.9051;stroke-miterlimit:2.6131;}
	.st10{fill-rule:evenodd;clip-rule:evenodd;fill:#FFFFFF;stroke:#1A171B;stroke-width:0.7144;stroke-miterlimit:2.6131;}
	.st11{fill:none;stroke:#FFFFFF;stroke-width:4.7627;stroke-miterlimit:2.6131;}
</style>
<g>
	<g>
		<polygon class="st0" points="228.4,120 731.6,120 731.6,840 228.4,840 228.4,120 		"/>
		<path class="st1" d="M494.4,724.1L492,753l36.7-8.7c1.3-1.3,5,1.3,3.9,3.8l-53.3,53.1l-53.1-53.1c-1.3-2.5,1.3-5,3.9-3.8l36.6,8.8
			l-2.6-29L494.4,724.1L494.4,724.1z"/>
		<polygon class="st2" points="295.3,182.7 663.8,182.7 663.8,247.4 295.3,247.4 295.3,182.7 		"/>
		<path class="st3" d="M407.7,235.6v-40.2h12.8c4.8,0,8,0.2,9.5,0.6c2.3,0.6,4.2,1.9,5.7,3.9c1.5,2,2.3,4.6,2.3,7.8
			c0,2.5-0.4,4.6-1.3,6.2c-0.9,1.7-2,3-3.3,4c-1.3,1-2.7,1.6-4.1,1.9c-1.9,0.4-4.7,0.6-8.3,0.6h-5.2v15.2H407.7L407.7,235.6z
			 M415.6,202.2v11.4h4.4c3.1,0,5.2-0.2,6.3-0.6c1.1-0.4,1.9-1.1,2.5-2c0.6-0.9,0.9-1.9,0.9-3.1c0-1.5-0.4-2.7-1.3-3.6
			c-0.8-0.9-1.9-1.5-3.2-1.8c-1-0.2-2.9-0.3-5.7-0.3H415.6L415.6,202.2z"/>
		<path class="st3" d="M475.9,235.6h-8.7l-3.4-9.1H448l-3.2,9.1h-8.4l15.4-40.2h8.4L475.9,235.6L475.9,235.6z M461.2,219.7
			l-5.4-14.9l-5.3,14.9H461.2L461.2,219.7z"/>
		<polygon class="st3" points="486.1,235.6 472,195.3 480.6,195.3 490.6,225.1 500.2,195.3 508.7,195.3 494.6,235.6 486.1,235.6 		
			"/>
		<polygon class="st3" points="512.5,235.6 512.5,195.3 520.5,195.3 520.5,235.6 512.5,235.6 		"/>
		<path class="st3" d="M563.6,235.6h-8.7l-3.4-9.1h-15.8l-3.2,9.1H524l15.4-40.2h8.4L563.6,235.6L563.6,235.6z M549,219.7l-5.4-14.9
			l-5.3,14.9H549L549,219.7z"/>
		<path class="st4" d="M322.2,193.8h44.5c5.6,0,10.3,4.6,10.3,10.3v21.3c0,5.6-4.6,10.3-10.3,10.3h-44.5c-5.6,0-10.3-4.6-10.3-10.3
			v-21.3C312,198.4,316.6,193.8,322.2,193.8L322.2,193.8z"/>
		<path class="st3" d="M320.5,219.3l2.5-0.4c0.2,1.5,0.4,2.6,1.1,3.3c0.2,0.6,0.9,0.9,1.8,0.9c0.9,0,1.6-0.4,2-0.7
			c0.5-0.7,0.5-1.5,0.5-2.2c0-0.7,0-0.9-0.2-1.3c-0.2-0.6-0.5-0.7-1.1-1.3c-0.2-0.2-0.9-0.4-2.1-0.9c-1.1-0.4-2.3-1.3-2.7-2
			c-0.9-1.5-1.2-3-1.2-4.8c0-1.1,0.2-2.2,0.5-3.1c0.4-1.1,0.9-1.7,1.6-2.4c0.9-0.6,1.6-0.7,2.7-0.7c1.6,0,2.7,0.6,3.6,1.8
			c0.9,1.5,1.2,3.1,1.4,5.2l-2.7,0.2c-0.2-1.1-0.4-2-0.5-2.6c-0.7-0.4-1.1-0.7-1.8-0.7c-0.9,0-1.4,0.4-1.8,0.7
			c-0.2,0.6-0.4,0.9-0.4,1.5c0,0.7,0.2,1.1,0.4,1.5c0.2,0.4,0.9,0.9,2.3,1.5c1.2,0.6,2.1,1.1,2.7,1.7c0.9,0.6,1.2,1.3,1.6,2.4
			c0.2,0.7,0.5,2,0.5,3.5c0,1.1-0.4,2.6-0.7,3.5c-0.4,1.1-0.9,2.2-1.8,2.6c-0.7,0.6-1.8,0.7-2.9,0.7c-1.6,0-2.9-0.6-3.7-1.8
			C321.2,223.7,320.7,222.1,320.5,219.3L320.5,219.3z"/>
		<path class="st3" d="M332.6,219.3l2.7-0.4c0.2,1.5,0.5,2.6,0.7,3.3c0.5,0.6,1.2,0.9,2,0.9c1.1,0,1.6-0.4,2.1-0.7
			c0.2-0.7,0.7-1.5,0.7-2.2c0-0.7-0.2-0.9-0.5-1.3c-0.2-0.6-0.4-0.7-0.9-1.3c-0.2-0.2-0.7-0.4-2-0.9c-1.4-0.4-2.3-1.3-3-2
			c-0.7-1.5-1.1-3-1.1-4.8c0-1.1,0.2-2.2,0.5-3.1c0.4-1.1,1.1-1.7,1.6-2.4c0.5-0.6,1.6-0.7,2.5-0.7c1.6,0,3,0.6,3.7,1.8
			c0.9,1.5,1.2,3.1,1.2,5.2l-2.7,0.2c-0.2-1.1-0.2-2-0.7-2.6c-0.2-0.4-0.9-0.7-1.6-0.7c-0.7,0-1.4,0.4-1.8,0.7
			c-0.2,0.6-0.4,0.9-0.4,1.5c0,0.7,0.2,1.1,0.4,1.5c0.4,0.4,1.2,0.9,2.5,1.5c1.2,0.6,2.3,1.1,2.9,1.7c0.4,0.6,1.1,1.3,1.4,2.4
			c0.4,0.7,0.5,2,0.5,3.5c0,1.1-0.4,2.6-0.7,3.5c-0.4,1.1-1.1,2.2-1.8,2.6c-0.9,0.6-1.6,0.7-2.9,0.7c-1.8,0-3-0.6-3.9-1.8
			C333.5,223.7,332.8,222.1,332.6,219.3L332.6,219.3z"/>
		<path class="st3" d="M347.7,220.2l2.5-0.5c0.1,1.1,0.3,1.9,0.6,2.5c0.3,0.6,0.8,0.9,1.3,0.9c0.5,0,1-0.3,1.3-1
			c0.4-0.7,0.5-1.6,0.5-2.8c0-1.1-0.2-2-0.5-2.6c-0.3-0.7-0.8-1-1.3-1c-0.3,0-0.7,0.1-1.2,0.3l0.3-3.6c0.7,0,1.2-0.2,1.6-0.8
			c0.4-0.6,0.5-1.3,0.5-2.2c0-0.8-0.1-1.4-0.4-1.9c-0.3-0.5-0.6-0.7-1.1-0.7c-0.4,0-0.8,0.3-1.1,0.8c-0.3,0.5-0.5,1.3-0.6,2.3
			l-2.4-0.7c0.2-1.4,0.4-2.5,0.7-3.3c0.3-0.8,0.8-1.5,1.4-2c0.6-0.5,1.3-0.7,2-0.7c1.3,0,2.3,0.7,3,2.1c0.6,1.1,0.9,2.4,0.9,3.8
			c0,2-0.6,3.6-1.9,4.8c0.8,0.3,1.4,0.9,1.8,1.9c0.5,1,0.7,2.2,0.7,3.6c0,2-0.4,3.7-1.3,5.2c-0.9,1.4-1.9,2.1-3.2,2.1
			c-1.2,0-2.2-0.6-3-1.8C348.3,223.7,347.8,222.1,347.7,220.2L347.7,220.2z"/>
		<path class="st3" d="M358.2,220.4l2.6-0.5c0.1,1,0.3,1.8,0.6,2.4c0.4,0.6,0.8,0.9,1.2,0.9c0.5,0,1-0.4,1.4-1.1
			c0.4-0.8,0.6-1.9,0.6-3.4c0-1.4-0.2-2.5-0.6-3.2c-0.4-0.7-0.8-1.1-1.4-1.1c-0.7,0-1.4,0.6-2,1.7l-2.1-0.5l1.3-12h6.8v4.1h-4.8
			l-0.4,3.9c0.6-0.5,1.2-0.7,1.8-0.7c1.1,0,2.1,0.7,2.9,2.1c0.8,1.4,1.2,3.3,1.2,5.5c0,1.9-0.3,3.6-1,5.1c-0.9,2-2.1,3-3.6,3
			c-1.2,0-2.2-0.6-3-1.7C358.8,223.8,358.4,222.3,358.2,220.4L358.2,220.4z"/>
		<polygon class="st3" points="295.3,283.6 663.8,283.6 663.8,348.3 295.3,348.3 295.3,283.6 		"/>
		<polygon class="st5" points="529.7,335.3 529.7,316.4 523,316.4 523,312.6 541,312.6 541,316.4 534.3,316.4 534.3,335.3 
			529.7,335.3 		"/>
		<path class="st5" d="M543.4,316.6v-4h4.4v4H543.4L543.4,316.6z M543.4,335.3v-16.5h4.4v16.5H543.4L543.4,335.3z"/>
		<path class="st5" d="M566.6,323.7l-4.3,0.8c-0.1-0.9-0.5-1.5-1-1.9c-0.5-0.4-1.2-0.7-2-0.7c-1.1,0-2,0.4-2.6,1.1
			c-0.6,0.8-1,2-1,3.8c0,2,0.3,3.3,1,4.1c0.7,0.8,1.5,1.2,2.6,1.2c0.8,0,1.5-0.2,2-0.7c0.5-0.5,0.9-1.3,1.1-2.4l4.3,0.7
			c-0.4,2-1.3,3.5-2.6,4.5c-1.3,1-3,1.5-5.1,1.5c-2.4,0-4.3-0.8-5.8-2.3c-1.4-1.5-2.2-3.6-2.2-6.3c0-2.7,0.7-4.8,2.2-6.4
			c1.4-1.5,3.4-2.3,5.8-2.3c2,0,3.6,0.4,4.8,1.3C565.3,320.6,566.1,321.9,566.6,323.7L566.6,323.7z"/>
		<path class="st5" d="M569.9,316.6v-4h4.4v4H569.9L569.9,316.6z M569.9,335.3v-16.5h4.4v16.5H569.9L569.9,335.3z"/>
		<path class="st5" d="M593.8,335.3h-4.4v-8.4c0-1.8-0.1-2.9-0.3-3.5c-0.2-0.5-0.5-0.9-0.9-1.2c-0.4-0.3-0.9-0.4-1.5-0.4
			c-0.8,0-1.4,0.2-2,0.6c-0.6,0.4-1,1-1.2,1.6c-0.2,0.7-0.3,1.9-0.3,3.8v7.5h-4.4v-16.5h4.1v2.4c1.4-1.9,3.3-2.8,5.4-2.8
			c1,0,1.8,0.2,2.6,0.5c0.8,0.4,1.4,0.8,1.8,1.3c0.4,0.5,0.7,1.1,0.9,1.8c0.2,0.7,0.2,1.7,0.2,2.9V335.3L593.8,335.3z"/>
		<path class="st5" d="M607.8,330.1l4.4,0.7c-0.6,1.6-1.4,2.8-2.7,3.6c-1.2,0.8-2.7,1.3-4.5,1.3c-2.9,0-5-0.9-6.4-2.8
			c-1.1-1.5-1.6-3.4-1.6-5.7c0-2.7,0.7-4.9,2.1-6.4c1.4-1.5,3.2-2.3,5.4-2.3c2.5,0,4.4,0.8,5.8,2.4c1.4,1.6,2.1,4.1,2,7.4h-10.9
			c0,1.3,0.4,2.3,1.1,3c0.7,0.7,1.5,1.1,2.5,1.1c0.7,0,1.3-0.2,1.7-0.6C607.2,331.5,607.5,330.9,607.8,330.1L607.8,330.1z
			 M608,325.7c0-1.3-0.4-2.2-1-2.9c-0.6-0.7-1.4-1-2.3-1c-1,0-1.7,0.4-2.4,1c-0.6,0.7-0.9,1.6-0.9,2.8H608L608,325.7z"/>
		<path class="st5" d="M614.4,330.6l4.4-0.7c0.2,0.8,0.6,1.5,1.1,1.9c0.6,0.4,1.4,0.7,2.4,0.7c1.1,0,2-0.2,2.5-0.6
			c0.4-0.3,0.6-0.7,0.6-1.2c0-0.3-0.1-0.6-0.3-0.8c-0.2-0.2-0.7-0.4-1.5-0.6c-3.5-0.8-5.7-1.5-6.7-2.1c-1.3-0.9-2-2.1-2-3.7
			c0-1.4,0.6-2.6,1.7-3.6c1.1-1,2.9-1.5,5.2-1.5c2.3,0,3.9,0.4,5,1.1c1.1,0.7,1.8,1.8,2.3,3.3l-4.1,0.8c-0.2-0.6-0.5-1.1-1-1.5
			c-0.5-0.3-1.2-0.5-2.1-0.5c-1.2,0-2,0.2-2.5,0.5c-0.3,0.2-0.5,0.5-0.5,0.9c0,0.3,0.1,0.6,0.4,0.8c0.4,0.3,1.8,0.7,4.1,1.2
			c2.3,0.5,3.9,1.2,4.9,1.9c0.9,0.8,1.4,1.9,1.4,3.2c0,1.5-0.6,2.8-1.9,3.9c-1.3,1.1-3.1,1.6-5.6,1.6c-2.2,0-4-0.5-5.3-1.4
			C615.6,333.4,614.8,332.2,614.4,330.6L614.4,330.6z"/>
		<path class="st5" d="M643.1,330.1l4.4,0.7c-0.6,1.6-1.4,2.8-2.6,3.6c-1.2,0.8-2.7,1.3-4.5,1.3c-2.9,0-5-0.9-6.4-2.8
			c-1.1-1.5-1.6-3.4-1.6-5.7c0-2.7,0.7-4.9,2.1-6.4c1.4-1.5,3.2-2.3,5.4-2.3c2.5,0,4.4,0.8,5.8,2.4c1.4,1.6,2.1,4.1,2,7.4h-10.9
			c0,1.3,0.4,2.3,1.1,3c0.7,0.7,1.5,1.1,2.5,1.1c0.7,0,1.3-0.2,1.7-0.6C642.5,331.5,642.9,330.9,643.1,330.1L643.1,330.1z
			 M643.4,325.7c0-1.3-0.4-2.2-1-2.9c-0.6-0.7-1.4-1-2.3-1c-1,0-1.7,0.4-2.4,1c-0.6,0.7-0.9,1.6-0.9,2.8H643.4L643.4,325.7z"/>
		<polygon class="st5" points="311.5,335.1 311.5,295.3 322.8,295.3 329.6,322.4 336.3,295.3 347.7,295.3 347.7,335.1 340.6,335.1 
			340.6,303.7 333.2,335.1 325.9,335.1 318.5,303.7 318.5,335.1 311.5,335.1 		"/>
		<polygon class="st5" points="355,335.1 355,295.3 362.5,295.3 362.5,335.1 355,335.1 		"/>
		<polygon class="st5" points="370,335.1 370,295.6 377.5,295.6 377.5,328.4 396.4,328.4 396.4,335.1 370,335.1 		"/>
		<path class="st5" d="M435.6,335.1h-8.2l-3.3-9h-15l-3.1,9h-8l14.6-39.8h8L435.6,335.1L435.6,335.1z M421.6,319.3l-5.2-14.8
			l-5.1,14.8H421.6L421.6,319.3z"/>
		<polygon class="st5" points="439.7,335.1 439.7,295.3 447,295.3 462.4,321.8 462.4,295.3 469.4,295.3 469.4,335.1 461.8,335.1 
			446.7,309.1 446.7,335.1 439.7,335.1 		"/>
		<path class="st5" d="M475.9,315.4c0-4.1,0.6-7.5,1.7-10.2c0.9-2,2-3.8,3.5-5.5c1.5-1.6,3.1-2.8,4.8-3.6c2.3-1.1,5-1.6,8.1-1.6
			c5.5,0,9.9,1.8,13.3,5.5c3.3,3.6,5,8.7,5,15.2c0,6.4-1.7,11.5-4.9,15.1c-3.3,3.6-7.7,5.4-13.2,5.4c-5.6,0-10-1.8-13.3-5.4
			C477.5,326.7,475.9,321.7,475.9,315.4L475.9,315.4z M483.7,315.1c0,4.5,1,7.9,2.9,10.3c2,2.3,4.5,3.5,7.5,3.5c3,0,5.5-1.1,7.4-3.5
			c1.9-2.3,2.9-5.8,2.9-10.4c0-4.6-0.9-8-2.8-10.2c-1.9-2.2-4.4-3.4-7.5-3.4c-3.1,0-5.6,1.1-7.6,3.4
			C484.6,307.1,483.7,310.6,483.7,315.1L483.7,315.1z"/>
		<polygon class="st6" points="311.5,335.1 311.5,295.3 322.8,295.3 329.6,322.4 336.3,295.3 347.7,295.3 347.7,335.1 340.6,335.1 
			340.6,303.7 333.2,335.1 325.9,335.1 318.5,303.7 318.5,335.1 311.5,335.1 		"/>
		<polygon class="st6" points="355,335.1 355,295.3 362.5,295.3 362.5,335.1 355,335.1 		"/>
		<polygon class="st6" points="370,335.1 370,295.6 377.5,295.6 377.5,328.4 396.4,328.4 396.4,335.1 370,335.1 		"/>
		<path class="st6" d="M435.6,335.1h-8.2l-3.3-9h-15l-3.1,9h-8l14.6-39.8h8L435.6,335.1L435.6,335.1z M421.6,319.3l-5.2-14.8
			l-5.1,14.8H421.6L421.6,319.3z"/>
		<polygon class="st6" points="439.7,335.1 439.7,295.3 447,295.3 462.4,321.8 462.4,295.3 469.4,295.3 469.4,335.1 461.8,335.1 
			446.7,309.1 446.7,335.1 439.7,335.1 		"/>
		<path class="st6" d="M475.9,315.4c0-4.1,0.6-7.5,1.7-10.2c0.9-2,2-3.8,3.5-5.5c1.5-1.6,3.1-2.8,4.8-3.6c2.3-1.1,5-1.6,8.1-1.6
			c5.5,0,9.9,1.8,13.3,5.5c3.3,3.6,5,8.7,5,15.2c0,6.4-1.7,11.5-4.9,15.1c-3.3,3.6-7.7,5.4-13.2,5.4c-5.6,0-10-1.8-13.3-5.4
			C477.5,326.7,475.9,321.7,475.9,315.4L475.9,315.4z M483.7,315.1c0,4.5,1,7.9,2.9,10.3c2,2.3,4.5,3.5,7.5,3.5c3,0,5.5-1.1,7.4-3.5
			c1.9-2.3,2.9-5.8,2.9-10.4c0-4.6-0.9-8-2.8-10.2c-1.9-2.2-4.4-3.4-7.5-3.4c-3.1,0-5.6,1.1-7.6,3.4
			C484.6,307.1,483.7,310.6,483.7,315.1L483.7,315.1z"/>
		<polygon class="st7" points="295.2,380.9 359.8,380.9 359.8,445.1 295.2,445.1 295.2,380.9 		"/>
		<path class="st8" d="M347.3,440.7l-19.6,2.5l-19.6-2.5c-6.6-1.9-6.6-1.9-8.1-9.2l-3-18.4l3-18.7c1.5-7.3,1.5-7.3,8.1-8.8l19.6-2.9
			l19.6,2.9c6.3,1.5,6.3,1.5,8.1,8.8l2.6,18.7l-2.6,18.4C353.5,438.5,353.5,438.5,347.3,440.7L347.3,440.7z"/>
		<path class="st3" d="M327.7,429h-4.4l-1.8-7.3h-8l-1.7,7.3h-4.3l7.7-31.9h4.4L327.7,429L327.7,429z M320.3,416.4l-2.8-11.7
			l-2.7,11.7H320.3L320.3,416.4z"/>
		<path class="st3" d="M346.5,429.1h-5.2v-22.9c-1.9,2-4.2,3.6-6.7,4.6v-5.5c1.3-0.5,2.7-1.5,4.3-2.9c1.6-1.5,2.7-3.2,3.4-5.1h4.2
			V429.1L346.5,429.1z"/>
		<path class="st3" d="M384.9,392.5h15.7c3.1,0,5.4,0.1,7,0.4c1.5,0.3,2.9,0.8,4.1,1.6c1.2,0.8,2.2,1.9,3,3.3c0.8,1.4,1.2,3,1.2,4.7
			c0,1.9-0.5,3.6-1.5,5.2c-1,1.6-2.3,2.7-4,3.5c2.4,0.7,4.2,1.9,5.5,3.6c1.3,1.7,1.9,3.7,1.9,6c0,1.8-0.4,3.6-1.2,5.3
			c-0.8,1.7-2,3.1-3.4,4.1c-1.4,1-3.2,1.7-5.3,1.9c-1.3,0.1-4.5,0.2-9.6,0.3h-13.4V392.5L384.9,392.5z M392.8,399.2v9.2h5.2
			c3.1,0,5,0,5.8-0.1c1.4-0.2,2.4-0.6,3.2-1.4c0.8-0.8,1.2-1.8,1.2-3.1c0-1.2-0.3-2.2-1-3c-0.7-0.8-1.7-1.2-3-1.4
			c-0.8-0.1-3.1-0.1-6.8-0.1H392.8L392.8,399.2z M392.8,415.1v10.7h7.3c2.9,0,4.7-0.1,5.5-0.2c1.2-0.2,2.1-0.8,2.9-1.6
			c0.7-0.8,1.1-2,1.1-3.4c0-1.2-0.3-2.2-0.9-3.1c-0.6-0.8-1.4-1.5-2.5-1.8c-1.1-0.4-3.4-0.6-7-0.6H392.8L392.8,415.1z"/>
		<path class="st3" d="M422.9,412.8c0-4.1,0.6-7.5,1.8-10.3c0.9-2,2.1-3.9,3.7-5.5c1.5-1.6,3.2-2.8,5.1-3.6c2.5-1.1,5.3-1.6,8.5-1.6
			c5.8,0,10.4,1.8,13.9,5.5c3.5,3.6,5.2,8.7,5.2,15.2c0,6.5-1.7,11.5-5.2,15.2c-3.5,3.6-8.1,5.5-13.8,5.5c-5.9,0-10.5-1.8-14-5.4
			C424.7,424.1,422.9,419.1,422.9,412.8L422.9,412.8z M431.1,412.5c0,4.5,1,8,3.1,10.3c2.1,2.3,4.7,3.5,7.8,3.5
			c3.2,0,5.8-1.2,7.8-3.5c2-2.3,3-5.8,3-10.4c0-4.6-1-8-3-10.3c-2-2.3-4.6-3.4-7.9-3.4c-3.3,0-5.9,1.1-7.9,3.4
			C432.1,404.5,431.1,407.9,431.1,412.5L431.1,412.5z"/>
		<polygon class="st3" points="467.5,432.5 467.5,392.9 475.5,392.9 475.5,425.8 495.2,425.8 495.2,432.5 467.5,432.5 		"/>
		<path class="st3" d="M499.3,412.8c0-4.1,0.6-7.5,1.8-10.3c0.9-2,2.1-3.9,3.7-5.5c1.5-1.6,3.2-2.8,5.1-3.6c2.5-1.1,5.3-1.6,8.5-1.6
			c5.8,0,10.4,1.8,13.9,5.5c3.5,3.6,5.2,8.7,5.2,15.2c0,6.5-1.7,11.5-5.2,15.2c-3.5,3.6-8.1,5.5-13.8,5.5c-5.9,0-10.5-1.8-14-5.4
			C501,424.1,499.3,419.1,499.3,412.8L499.3,412.8z M507.5,412.5c0,4.5,1,8,3.1,10.3c2.1,2.3,4.7,3.5,7.8,3.5c3.2,0,5.8-1.2,7.8-3.5
			c2-2.3,3-5.8,3-10.4c0-4.6-1-8-3-10.3c-2-2.3-4.6-3.4-7.9-3.4c-3.3,0-5.9,1.1-7.9,3.4C508.5,404.5,507.5,407.9,507.5,412.5
			L507.5,412.5z"/>
		<path class="st3" d="M562,417.8v-6.7h17.1V427c-1.7,1.6-4.1,3.1-7.2,4.3c-3.2,1.2-6.4,1.9-9.6,1.9c-4.1,0-7.7-0.9-10.8-2.6
			c-3.1-1.8-5.4-4.3-6.9-7.5c-1.5-3.3-2.3-6.8-2.3-10.7c0-4.2,0.9-7.9,2.6-11.1c1.7-3.2,4.2-5.7,7.5-7.4c2.5-1.3,5.7-2,9.4-2
			c4.9,0,8.7,1,11.4,3.1c2.7,2.1,4.5,5,5.3,8.6l-7.9,1.5c-0.6-2-1.6-3.5-3.1-4.7c-1.5-1.1-3.4-1.7-5.7-1.7c-3.5,0-6.2,1.1-8.3,3.4
			c-2.1,2.2-3.1,5.6-3.1,10c0,4.7,1,8.3,3.1,10.7c2.1,2.4,4.8,3.6,8.2,3.6c1.7,0,3.3-0.3,5-1c1.7-0.7,3.1-1.5,4.3-2.4v-5.1H562
			L562,417.8z"/>
		<polygon class="st3" points="586.5,432.5 586.5,392.5 594.2,392.5 610.3,419.2 610.3,392.5 617.7,392.5 617.7,432.5 609.7,432.5 
			593.9,406.5 593.9,432.5 586.5,432.5 		"/>
		<path class="st3" d="M661.6,432.5h-8.7l-3.4-9.1h-15.7l-3.2,9.1h-8.4l15.3-40h8.4L661.6,432.5L661.6,432.5z M646.9,416.7
			l-5.4-14.8l-5.3,14.8H646.9L646.9,416.7z"/>
		<polygon class="st3" points="295.3,477.6 664,477.6 664,542.3 295.3,542.3 295.3,477.6 		"/>
		<path class="st9" d="M317.2,511.8l0.4-3.1l17.5-9.6c0-4.8-0.3-10.7,3.1-14.4c3.5,3.5,3.1,9.6,3.1,14.4l17.5,9.6l0.5,3l-15.3-3
			l-2.6,0l-1.7,17.9l4.8,4.4l0,2.2l-5.2-3.5l-0.9,4.3l-0.9-4.4l-5.2,3.5V531l4.8-4.4l-1.8-18l-2.6,0.1L317.2,511.8L317.2,511.8z"/>
		<polygon class="st5" points="393.8,524.5 393.8,492.3 400.4,492.3 400.4,519.1 416.8,519.1 416.8,524.5 393.8,524.5 		"/>
		<path class="st5" d="M421.4,497.8v-5.8h6.2v5.8H421.4L421.4,497.8z M421.4,524.5V501h6.2v23.5H421.4L421.4,524.5z"/>
		<path class="st5" d="M455.5,524.5h-6.2v-12c0-2.5-0.1-4.2-0.4-4.9c-0.3-0.7-0.7-1.3-1.3-1.7c-0.6-0.4-1.3-0.6-2.2-0.6
			c-1.1,0-2.1,0.3-2.9,0.9c-0.9,0.6-1.4,1.4-1.8,2.3c-0.3,1-0.5,2.8-0.5,5.4v10.6H434V501h5.8v3.5c2.1-2.7,4.7-4,7.8-4
			c1.4,0,2.6,0.2,3.8,0.7c1.1,0.5,2,1.1,2.6,1.9c0.6,0.8,1,1.6,1.2,2.6c0.2,1,0.3,2.4,0.3,4.2V524.5L455.5,524.5z"/>
		<path class="st5" d="M466.5,508.2l-5.7-1c0.6-2.3,1.7-4,3.3-5c1.6-1.1,3.9-1.6,6.9-1.6c2.8,0,4.9,0.3,6.2,1
			c1.4,0.7,2.3,1.5,2.9,2.5c0.6,1,0.8,2.9,0.8,5.6l-0.1,7.3c0,2.1,0.1,3.6,0.3,4.6c0.2,1,0.6,2,1.1,3.1h-6.2c-0.2-0.4-0.4-1-0.6-1.8
			c-0.1-0.4-0.2-0.6-0.2-0.7c-1.1,1-2.2,1.8-3.4,2.3c-1.2,0.5-2.5,0.8-3.9,0.8c-2.4,0-4.3-0.7-5.7-2c-1.4-1.3-2.1-3-2.1-5
			c0-1.3,0.3-2.5,1-3.5c0.6-1,1.5-1.8,2.7-2.4c1.1-0.6,2.8-1,5-1.5c2.9-0.5,4.9-1.1,6.1-1.5v-0.6c0-1.2-0.3-2-0.9-2.6
			c-0.6-0.5-1.7-0.8-3.4-0.8c-1.1,0-2,0.2-2.6,0.7C467.4,506.3,466.9,507.1,466.5,508.2L466.5,508.2z M474.9,513.2
			c-0.8,0.3-2.1,0.6-3.8,1c-1.7,0.4-2.9,0.7-3.4,1.1c-0.8,0.6-1.2,1.3-1.2,2.2c0,0.9,0.3,1.6,1,2.3c0.7,0.6,1.5,0.9,2.5,0.9
			c1.1,0,2.2-0.4,3.2-1.1c0.8-0.6,1.3-1.2,1.5-2.1c0.2-0.5,0.2-1.5,0.2-3V513.2L474.9,513.2z"/>
		<path class="st5" d="M498,501v5h-4.3v9.5c0,1.9,0,3,0.1,3.4c0.1,0.3,0.3,0.6,0.6,0.8c0.3,0.2,0.6,0.3,1.1,0.3
			c0.6,0,1.4-0.2,2.5-0.6l0.5,4.8c-1.5,0.6-3.1,0.9-4.9,0.9c-1.1,0-2.1-0.2-3-0.6c-0.9-0.4-1.6-0.9-2-1.5c-0.4-0.6-0.7-1.4-0.9-2.4
			c-0.1-0.7-0.2-2.2-0.2-4.4V506h-2.9v-5h2.9v-4.7l6.3-3.6v8.3H498L498,501z"/>
		<path class="st5" d="M516,517l6.2,1c-0.8,2.3-2.1,4-3.8,5.2c-1.7,1.2-3.9,1.8-6.5,1.8c-4.1,0-7.1-1.3-9.1-4
			c-1.6-2.1-2.3-4.8-2.3-8.1c0-3.9,1-7,3.1-9.2c2-2.2,4.6-3.3,7.7-3.3c3.5,0,6.3,1.2,8.3,3.5c2,2.3,3,5.8,2.9,10.6h-15.6
			c0,1.8,0.5,3.3,1.5,4.3c1,1,2.2,1.5,3.6,1.5c1,0,1.8-0.3,2.5-0.8C515.1,519.1,515.6,518.2,516,517L516,517z M516.3,510.8
			c0-1.8-0.5-3.2-1.4-4.1c-0.9-0.9-2-1.4-3.2-1.4c-1.4,0-2.5,0.5-3.4,1.5c-0.9,1-1.3,2.3-1.3,4H516.3L516.3,510.8z"/>
		<path class="st10" d="M486.4,569.9c21.2,3.8,35,11.5,47.9,29c7.4,11.9,10.8,22.9,11.3,36.8c-0.9,27.8-15.3,49-40.2,60.6
			c-28.2,11.6-56.6,3.6-76.7-18.8c-12.6-16.5-17.3-34.7-13.6-55.3c4.3-15.9,10.4-26.5,22.7-37.5c13.1-9.7,25.4-14.6,41.9-15.1
			L486.4,569.9L486.4,569.9z"/>
		<path class="st2" d="M479.9,573.3c34.2,0,62.2,27.9,62.2,62.2c0,34.2-27.9,62.2-62.2,62.2c-34.2,0-62.2-27.9-62.2-62.2
			C417.8,601.2,445.7,573.3,479.9,573.3L479.9,573.3z"/>
		<path class="st3" d="M503.5,656.2c2,0,3.8-1.4,4.8-4.3c0.7-2.9,1.4-8.1,1.4-15.3c0-7.4-0.7-13.1-1.4-16.5c-1.2-3.3-2.9-5.1-5-5.1
			c-2.1,0-4,1.7-4.7,4.8c-0.8,3.3-1.5,8.7-1.5,16.1c0,7.5,0.7,13.1,1.4,15.8c1,2.9,2.6,4.4,4.9,4.4H503.5L503.5,656.2z M503.6,668.3
			c-6,0-10.9-2.9-13.6-8.2c-2.6-5.3-4.4-13.6-4.4-24.5c0-10.5,1.5-18.7,4.4-24.1c2.9-5.5,7.4-8.4,13.1-8.4c5.9,0,10.5,2.7,13.3,8.3
			c3,5.5,4.5,13.5,4.5,24.3c0,10.9-1.6,19.2-4.4,24.5c-2.7,5.4-6.7,8.2-12.7,8.2H503.6L503.6,668.3z"/>
		<path class="st3" d="M440.6,652.4l10.3-1.3c0.2,2.5,0.9,4.3,2,5.5c1.1,1.2,2.4,1.8,4.1,1.8c2.2,0,4.1-1.2,5.7-3.5
			c1.6-2.3,2.5-7.2,2.9-14.6c-2.7,3.6-5.9,5.4-9.9,5.4c-4.4,0-8.2-2-11.4-5.9c-3.2-3.9-4.8-9-4.8-15.2c0-6.6,1.7-11.9,5-15.9
			c3.3-4,7.6-6,12.8-6c5.6,0,10.2,2.5,13.8,7.6c3.6,5.1,5.4,13.3,5.4,24.9c0,11.8-1.9,20.3-5.6,25.5c-3.8,5.2-8.6,7.8-14.7,7.8
			c-4.2,0-7.7-1.4-10.5-4.1C443.1,661.6,441.3,657.7,440.6,652.4L440.6,652.4z M464.7,625.5c0-4-0.8-7.1-2.4-9.3
			c-1.6-2.2-3.4-3.3-5.5-3.3c-2,0-3.6,0.9-4.9,2.7c-1.3,1.8-2,4.7-2,8.8c0,4.2,0.7,7.3,2.1,9.2c1.4,2,3.2,2.9,5.3,2.9
			c2,0,3.8-0.9,5.2-2.8C464,631.9,464.7,629.1,464.7,625.5L464.7,625.5z"/>
		<path class="st11" d="M257,128.1h445.8c11.4,0,20.7,10,20.7,20.5v662.8c0,10.7-10,20.2-20.7,20.2H257c-10.5,0-20.5-8.8-20.5-20.2
			V148.6C236.5,137.1,245.6,128.1,257,128.1L257,128.1z"/>
	</g>
</g>
</svg>
