<?xml version="1.0" encoding="utf-8"?>
<!-- Generator: Adobe Illustrator 19.2.0, SVG Export Plug-In . SVG Version: 6.00 Build 0)  -->
<svg version="1.1" id="Livello_1" xmlns="http://www.w3.org/2000/svg" xmlns:xlink="http://www.w3.org/1999/xlink" x="0px" y="0px"
	 viewBox="0 0 960 960" style="enable-background:new 0 0 960 960;" xml:space="preserve">
<style type="text/css">
	.st0{fill-rule:evenodd;clip-rule:evenodd;fill:#FFFFFF;stroke:#1A171B;stroke-width:0.985;stroke-miterlimit:2.6131;}
	.st1{fill-rule:evenodd;clip-rule:evenodd;fill:#005EA7;stroke:#005EA7;stroke-width:0.985;stroke-miterlimit:2.6131;}
	.st2{fill-rule:evenodd;clip-rule:evenodd;fill:#005EA7;stroke:#FFFFFF;stroke-width:6.5667;stroke-miterlimit:2.6131;}
	.st3{fill-rule:evenodd;clip-rule:evenodd;fill:#E1001A;stroke:#E1001A;stroke-width:0.3283;stroke-miterlimit:2.6131;}
	.st4{fill:none;stroke:#1A171B;stroke-width:6.5667;stroke-miterlimit:2.6131;}
	.st5{fill-rule:evenodd;clip-rule:evenodd;fill:#FFFFFF;}
	.st6{fill-rule:evenodd;clip-rule:evenodd;fill:#1A171B;}
</style>
<g>
	<g>
		<polygon class="st0" points="881.1,120 78.9,120 78.9,374.9 881.1,374.9 881.1,120 		"/>
		<polygon class="st1" points="78.9,374.9 881.1,374.9 881.1,840 78.9,840 78.9,374.9 		"/>
		<path class="st2" d="M118.7,385.7h723.6c16.5,0,30.2,14.2,30.2,30.2v384c0,16-14.5,30.2-30.2,30.2H118.7c-15.5,0-30-13.2-30-30.2
			V416C88.8,399.2,102.2,385.7,118.7,385.7L118.7,385.7z"/>
		<path class="st3" d="M811.6,128.8h40c10.3,0,21.2,9.3,21.2,21.2v22.7L152,365.9h-42.6c-11.4,0-21.7-10.8-21.7-21.2v-22
			L811.6,128.8L811.6,128.8z"/>
		<path class="st4" d="M851.4,128.8H109.2c-10.8,0-21.7,11.1-21.7,21.2v194.7c0,10.6,10.3,21.4,21.7,21.4h742.2
			c11.4,0,21.4-9.6,21.4-21.4V150C872.8,138.1,862,128.8,851.4,128.8L851.4,128.8z"/>
		<path class="st5" d="M141,491.1l11.2-1.3c0.7,4.4,2,7.6,4.1,9.7c2.1,2,4.8,3.1,8.3,3.1c3.7,0,6.5-0.9,8.4-2.8
			c1.9-1.8,2.8-4,2.8-6.4c0-1.6-0.4-2.9-1.2-4c-0.8-1.1-2.2-2.1-4.1-2.9c-1.3-0.6-4.4-1.5-9.2-2.9c-6.2-1.8-10.5-4-13-6.6
			c-3.5-3.7-5.3-8.1-5.3-13.4c0-3.4,0.8-6.6,2.5-9.5c1.6-2.9,4-5.2,7.1-6.7c3.1-1.5,6.8-2.3,11.2-2.3c7.2,0,12.5,1.8,16.2,5.5
			c3.6,3.7,5.5,8.6,5.7,14.7l-11.5,0.6c-0.5-3.4-1.6-5.9-3.2-7.4c-1.6-1.5-4-2.2-7.3-2.2c-3.3,0-6,0.8-7.9,2.4
			c-1.2,1-1.8,2.4-1.8,4.1c0,1.6,0.6,2.9,1.7,4c1.4,1.4,5,2.9,10.6,4.5c5.6,1.6,9.7,3.1,12.4,4.8c2.7,1.7,4.8,3.9,6.3,6.8
			c1.5,2.9,2.3,6.4,2.3,10.6c0,3.8-0.9,7.4-2.7,10.7c-1.8,3.3-4.4,5.8-7.7,7.4c-3.3,1.6-7.5,2.4-12.4,2.4c-7.2,0-12.7-1.9-16.6-5.8
			C144,504.3,141.7,498.6,141,491.1L141,491.1z"/>
		<polygon class="st5" points="196.9,512.8 196.9,500 207.8,500 207.8,512.8 196.9,512.8 		"/>
		<path class="st5" d="M277.7,488.3l11.1,4.1c-1.7,7.3-4.6,12.7-8.5,16.2c-4,3.5-9,5.3-15.1,5.3c-7.6,0-13.8-3-18.7-9.1
			c-4.9-6-7.3-14.3-7.3-24.8c0-11.1,2.5-19.7,7.4-25.8c4.9-6.1,11.3-9.2,19.3-9.2c7,0,12.6,2.4,17,7.2c2.6,2.8,4.5,6.9,5.8,12.3
			l-11.4,3.2c-0.7-3.5-2.1-6.2-4.2-8.2c-2.1-2-4.7-3-7.8-3c-4.2,0-7.7,1.8-10.3,5.3c-2.6,3.5-3.9,9.3-3.9,17.2
			c0,8.4,1.3,14.4,3.9,18c2.6,3.6,6,5.4,10.1,5.4c3.1,0,5.7-1.1,7.9-3.4C275.2,496.8,276.8,493.2,277.7,488.3L277.7,488.3z"/>
		<polygon class="st5" points="298.8,512.8 298.8,446.2 341,446.2 341,457.5 310.3,457.5 310.3,472.2 338.9,472.2 338.9,483.4 
			310.3,483.4 310.3,501.6 342.1,501.6 342.1,512.8 298.8,512.8 		"/>
		<path class="st5" d="M348.9,491.1l11.2-1.3c0.7,4.4,2,7.6,4.1,9.7c2.1,2,4.8,3.1,8.3,3.1c3.7,0,6.5-0.9,8.4-2.8
			c1.9-1.8,2.8-4,2.8-6.4c0-1.6-0.4-2.9-1.2-4c-0.8-1.1-2.2-2.1-4.1-2.9c-1.3-0.6-4.4-1.5-9.2-2.9c-6.2-1.8-10.5-4-13-6.6
			c-3.5-3.7-5.3-8.1-5.3-13.4c0-3.4,0.8-6.6,2.5-9.5c1.6-2.9,4-5.2,7.1-6.7c3.1-1.5,6.8-2.3,11.2-2.3c7.2,0,12.5,1.8,16.2,5.5
			c3.6,3.7,5.5,8.6,5.7,14.7l-11.5,0.6c-0.5-3.4-1.6-5.9-3.2-7.4c-1.6-1.5-4-2.2-7.3-2.2c-3.3,0-6,0.8-7.9,2.4
			c-1.2,1-1.8,2.4-1.8,4.1c0,1.6,0.6,2.9,1.7,4c1.4,1.4,5,2.9,10.6,4.5c5.6,1.6,9.7,3.1,12.4,4.8c2.7,1.7,4.8,3.9,6.3,6.8
			c1.5,2.9,2.3,6.4,2.3,10.6c0,3.8-0.9,7.4-2.7,10.7c-1.8,3.3-4.4,5.8-7.7,7.4c-3.3,1.6-7.5,2.4-12.4,2.4c-7.2,0-12.7-1.9-16.6-5.8
			C352,504.3,349.7,498.6,348.9,491.1L348.9,491.1z"/>
		<path class="st5" d="M456.4,512.8h-12.5l-5-15.1h-22.8l-4.7,15.1h-12.2l22.2-66.6h12.2L456.4,512.8L456.4,512.8z M435.2,486.5
			l-7.9-24.7l-7.7,24.7H435.2L435.2,486.5z"/>
		<path class="st5" d="M462.5,512.8v-66.6h24.2c6.1,0,10.5,0.6,13.3,1.8c2.8,1.2,5,3.3,6.6,6.4c1.7,3.1,2.5,6.6,2.5,10.5
			c0,5-1.3,9.1-3.8,12.4c-2.5,3.2-6.3,5.3-11.3,6.1c2.5,1.7,4.6,3.6,6.2,5.6c1.6,2,3.8,5.6,6.5,10.8l7,13H500l-8.3-14.5
			c-3-5.2-5-8.4-6.1-9.8c-1.1-1.3-2.2-2.3-3.5-2.8c-1.2-0.5-3.1-0.7-5.8-0.7H474v27.8H462.5L462.5,512.8z M474,474.4h8.5
			c5.5,0,9-0.3,10.4-0.8c1.4-0.5,2.4-1.5,3.2-2.8c0.8-1.3,1.2-3,1.2-5c0-2.2-0.5-4-1.5-5.4c-1-1.4-2.5-2.2-4.3-2.6
			c-0.9-0.1-3.7-0.2-8.4-0.2h-9V474.4L474,474.4z"/>
		<polygon class="st5" points="520,512.8 520,446.2 562.2,446.2 562.2,457.5 531.5,457.5 531.5,472.2 560.1,472.2 560.1,483.4 
			531.5,483.4 531.5,501.6 563.3,501.6 563.3,512.8 520,512.8 		"/>
		<path class="st5" d="M570.7,479.9c0-6.8,0.9-12.5,2.6-17.1c1.3-3.4,3.1-6.4,5.3-9.1c2.2-2.7,4.7-4.7,7.4-6
			c3.6-1.8,7.6-2.6,12.3-2.6c8.4,0,15.1,3,20.2,9.1c5,6.1,7.6,14.5,7.6,25.4c0,10.8-2.5,19.2-7.5,25.2c-5,6.1-11.7,9.1-20.1,9.1
			c-8.5,0-15.2-3-20.2-9.1C573.2,498.8,570.7,490.5,570.7,479.9L570.7,479.9z M582.6,479.5c0,7.5,1.5,13.3,4.5,17.1
			c3,3.9,6.8,5.8,11.4,5.8c4.6,0,8.4-1.9,11.3-5.8c2.9-3.9,4.4-9.6,4.4-17.4c0-7.6-1.4-13.3-4.3-17.1c-2.9-3.8-6.7-5.6-11.4-5.6
			c-4.7,0-8.6,1.9-11.5,5.7C584.1,466.1,582.6,471.8,582.6,479.5L582.6,479.5z"/>
		<polygon class="st5" points="144.6,634.2 144.6,567.6 187.9,567.6 187.9,578.9 157.4,578.9 157.4,594.6 183.7,594.6 183.7,605.9 
			157.4,605.9 157.4,634.2 144.6,634.2 		"/>
		<path class="st5" d="M198.5,634.2v-66.6h26.9c6.8,0,11.7,0.6,14.7,1.8c3.1,1.2,5.5,3.3,7.4,6.4c1.8,3.1,2.8,6.6,2.8,10.5
			c0,5-1.4,9.1-4.2,12.4c-2.8,3.2-7,5.3-12.5,6.1c2.8,1.7,5,3.6,6.8,5.6c1.8,2,4.2,5.6,7.3,10.8l7.7,13h-15.3l-9.2-14.5
			c-3.3-5.2-5.5-8.4-6.7-9.8c-1.2-1.3-2.5-2.3-3.8-2.8c-1.4-0.5-3.5-0.7-6.4-0.7h-2.6v27.8H198.5L198.5,634.2z M211.3,595.7h9.4
			c6.1,0,9.9-0.3,11.5-0.8c1.5-0.5,2.7-1.5,3.6-2.8c0.9-1.3,1.3-3,1.3-5c0-2.2-0.6-4-1.7-5.4c-1.1-1.4-2.7-2.2-4.8-2.6
			c-1-0.1-4.1-0.2-9.3-0.2h-9.9V595.7L211.3,595.7z"/>
		<path class="st5" d="M259.6,601.3c0-6.8,1-12.5,2.9-17.1c1.4-3.4,3.4-6.4,5.9-9.1c2.5-2.7,5.2-4.7,8.2-6c3.9-1.8,8.5-2.6,13.6-2.6
			c9.3,0,16.8,3,22.4,9.1c5.6,6.1,8.4,14.5,8.4,25.4c0,10.8-2.8,19.2-8.3,25.2c-5.5,6.1-13,9.1-22.2,9.1c-9.4,0-16.9-3-22.4-9.1
			C262.4,620.2,259.6,611.9,259.6,601.3L259.6,601.3z M272.8,600.8c0,7.5,1.7,13.3,5,17.1c3.3,3.9,7.5,5.8,12.6,5.8
			c5.1,0,9.3-1.9,12.5-5.8c3.3-3.9,4.9-9.6,4.9-17.4c0-7.6-1.6-13.3-4.8-17.1c-3.2-3.7-7.4-5.6-12.7-5.6c-5.3,0-9.5,1.9-12.7,5.7
			C274.4,587.4,272.8,593.2,272.8,600.8L272.8,600.8z"/>
		<path class="st5" d="M327.7,612.5l12.4-1.3c0.7,4.4,2.3,7.6,4.5,9.7c2.3,2,5.4,3.1,9.2,3.1c4.1,0,7.2-0.9,9.3-2.8
			c2.1-1.8,3.1-4,3.1-6.4c0-1.6-0.4-2.9-1.3-4c-0.9-1.1-2.4-2.1-4.6-2.9c-1.5-0.6-4.9-1.5-10.2-2.9c-6.8-1.8-11.6-4-14.4-6.6
			c-3.9-3.7-5.8-8.1-5.8-13.4c0-3.4,0.9-6.6,2.7-9.5c1.8-2.9,4.5-5.2,7.9-6.7c3.4-1.5,7.6-2.3,12.4-2.3c7.9,0,13.9,1.8,17.9,5.5
			c4,3.7,6.1,8.6,6.3,14.7l-12.8,0.6c-0.5-3.4-1.7-5.9-3.5-7.4c-1.8-1.5-4.5-2.2-8.1-2.2c-3.7,0-6.6,0.8-8.7,2.4c-1.4,1-2,2.4-2,4.1
			c0,1.6,0.6,2.9,1.9,4c1.6,1.4,5.5,2.9,11.7,4.4c6.2,1.5,10.8,3.1,13.8,4.8c3,1.7,5.3,3.9,7,6.8c1.7,2.9,2.5,6.4,2.5,10.6
			c0,3.8-1,7.4-3,10.7c-2,3.3-4.9,5.8-8.5,7.4c-3.7,1.6-8.3,2.4-13.8,2.4c-8,0-14.1-1.9-18.4-5.8C331.1,625.6,328.5,620,327.7,612.5
			L327.7,612.5z"/>
		<polygon class="st5" points="389.4,634.2 389.4,567.6 402.2,567.6 402.2,634.2 389.4,634.2 		"/>
		<polygon class="st5" points="414.5,634.2 414.5,567.6 426.9,567.6 452.8,612.1 452.8,567.6 464.7,567.6 464.7,634.2 451.8,634.2 
			426.4,590.7 426.4,634.2 414.5,634.2 		"/>
		<path class="st5" d="M475.6,601.3c0-6.8,1-12.5,2.9-17.1c1.4-3.4,3.4-6.4,5.9-9.1c2.5-2.7,5.2-4.7,8.2-6c3.9-1.8,8.5-2.6,13.6-2.6
			c9.3,0,16.8,3,22.4,9.1c5.6,6.1,8.4,14.5,8.4,25.4c0,10.8-2.8,19.2-8.3,25.2c-5.5,6.1-13,9.1-22.2,9.1c-9.4,0-16.9-3-22.4-9.1
			C478.3,620.2,475.6,611.9,475.6,601.3L475.6,601.3z M488.7,600.8c0,7.5,1.7,13.3,5,17.1c3.3,3.9,7.5,5.8,12.6,5.8
			c5.1,0,9.3-1.9,12.5-5.8c3.3-3.9,4.9-9.6,4.9-17.4c0-7.6-1.6-13.3-4.8-17.1c-3.2-3.7-7.4-5.6-12.7-5.6c-5.3,0-9.5,1.9-12.7,5.7
			C490.3,587.4,488.7,593.2,488.7,600.8L488.7,600.8z"/>
		<polygon class="st5" points="547,634.2 547,567.6 559.4,567.6 585.3,612.1 585.3,567.6 597.1,567.6 597.1,634.2 584.3,634.2 
			558.8,590.7 558.8,634.2 547,634.2 		"/>
		<polygon class="st5" points="610.6,634.2 610.6,567.6 657.5,567.6 657.5,578.9 623.4,578.9 623.4,593.6 655.1,593.6 655.1,604.8 
			623.4,604.8 623.4,622.9 658.7,622.9 658.7,634.2 610.6,634.2 		"/>
		<polygon class="st5" points="146.1,769 146.1,686.7 161.3,686.7 192.9,741.7 192.9,686.7 207.4,686.7 207.4,769 191.7,769 
			160.6,715.3 160.6,769 146.1,769 		"/>
		<path class="st5" d="M293.5,769h-17l-6.7-18.7h-30.9l-6.4,18.7H216l30.1-82.2h16.5L293.5,769L293.5,769z M264.7,736.4l-10.6-30.5
			l-10.4,30.5H264.7L264.7,736.4z"/>
		<path class="st5" d="M301.7,769v-82.2h25c9.5,0,15.7,0.4,18.5,1.2c4.4,1.2,8.1,3.9,11.1,8c3,4.1,4.5,9.5,4.5,16
			c0,5.1-0.9,9.3-2.6,12.7c-1.7,3.4-3.9,6.1-6.6,8.1c-2.6,2-5.3,3.3-8.1,3.9c-3.7,0.8-9.1,1.2-16.2,1.2h-10.2v31H301.7L301.7,769z
			 M317.3,700.7V724h8.5c6.1,0,10.3-0.4,12.3-1.3c2.1-0.9,3.7-2.2,4.9-4c1.2-1.8,1.8-4,1.8-6.4c0-3-0.8-5.5-2.5-7.4
			c-1.6-1.9-3.7-3.2-6.3-3.6c-1.9-0.4-5.6-0.6-11.2-0.6H317.3L317.3,700.7z"/>
		<path class="st5" d="M370.5,728.4c0-8.4,1.2-15.4,3.5-21.1c1.8-4.2,4.2-7.9,7.2-11.3c3-3.3,6.4-5.8,10-7.4
			c4.8-2.2,10.4-3.3,16.7-3.3c11.4,0,20.5,3.8,27.3,11.3c6.8,7.5,10.2,18,10.2,31.4c0,13.3-3.4,23.7-10.2,31.2
			c-6.8,7.5-15.8,11.2-27.2,11.2c-11.5,0-20.6-3.7-27.4-11.2C373.9,751.7,370.5,741.4,370.5,728.4L370.5,728.4z M386.6,727.8
			c0,9.3,2,16.4,6.1,21.2c4,4.8,9.2,7.2,15.4,7.2c6.2,0,11.3-2.4,15.3-7.2c4-4.8,6-11.9,6-21.4c0-9.4-1.9-16.4-5.8-21.1
			c-3.9-4.6-9-7-15.5-7c-6.4,0-11.6,2.4-15.6,7C388.5,711.3,386.6,718.3,386.6,727.8L386.6,727.8z"/>
		<polygon class="st5" points="458,769 458,687.4 473.6,687.4 473.6,755.1 512.4,755.1 512.4,769 458,769 		"/>
		<polygon class="st5" points="523,769 523,686.7 538.6,686.7 538.6,769 523,769 		"/>
		<path class="st5" d="M776,456v-12.5h46v9.8c-3.8,3.7-7.7,9.1-11.6,16.1c-3.9,7-6.9,14.4-9,22.3c-2.1,7.9-3.1,14.9-3,21.1h-13
			c0.2-9.7,2.2-19.6,6-29.7c3.8-10.1,8.8-19.1,15.2-27.1H776L776,456z"/>
		<path class="st5" d="M771.6,583.2l-11.8,1.4c-0.3-2.6-1-4.5-2.3-5.7c-1.2-1.2-2.8-1.8-4.8-1.8c-2.6,0-4.7,1.2-6.5,3.7
			c-1.8,2.4-2.9,7.6-3.4,15.3c3.1-3.8,6.8-5.7,11.4-5.7c5.1,0,9.5,2.1,13.1,6.2c3.6,4.1,5.5,9.4,5.5,15.9c0,6.9-1.9,12.4-5.7,16.6
			c-3.8,4.2-8.7,6.2-14.7,6.2c-6.4,0-11.7-2.6-15.9-7.9c-4.1-5.3-6.2-14-6.2-26c0-12.4,2.2-21.3,6.5-26.7c4.3-5.5,9.9-8.2,16.8-8.2
			c4.8,0,8.8,1.4,12,4.3C768.7,573.6,770.7,577.8,771.6,583.2L771.6,583.2z M743.9,611.4c0,4.2,0.9,7.4,2.7,9.7
			c1.8,2.3,3.9,3.4,6.3,3.4c2.3,0,4.1-0.9,5.7-2.8c1.5-1.9,2.3-4.9,2.3-9.2c0-4.4-0.8-7.6-2.4-9.6c-1.6-2-3.7-3.1-6.1-3.1
			c-2.3,0-4.3,1-5.9,2.9C744.7,604.8,743.9,607.6,743.9,611.4L743.9,611.4z"/>
		<path class="st5" d="M779.2,616.3l11.8-1.5c0.4,3.2,1.4,5.6,3.1,7.3c1.6,1.7,3.7,2.5,6,2.5c2.5,0,4.6-1,6.4-3
			c1.7-2,2.6-4.7,2.6-8.2c0-3.3-0.8-5.8-2.5-7.7c-1.6-1.9-3.7-2.9-6-2.9c-1.6,0-3.4,0.3-5.6,1l1.4-10.5c3.3,0.1,5.8-0.7,7.6-2.3
			c1.7-1.6,2.6-3.8,2.6-6.4c0-2.3-0.6-4.1-1.9-5.4c-1.3-1.4-3-2-5.1-2c-2.1,0-3.9,0.8-5.3,2.3c-1.5,1.5-2.4,3.8-2.7,6.7l-11.3-2
			c0.8-4.1,2-7.4,3.5-9.8c1.6-2.4,3.8-4.4,6.6-5.7c2.8-1.4,6-2.1,9.5-2.1c6,0,10.8,2,14.4,6.1c3,3.3,4.5,7.1,4.5,11.2
			c0,5.9-3.1,10.6-9.2,14.2c3.7,0.8,6.6,2.7,8.8,5.6c2.2,2.9,3.3,6.4,3.3,10.4c0,5.9-2,11-6.1,15.1c-4.1,4.2-9.2,6.2-15.3,6.2
			c-5.8,0-10.6-1.8-14.3-5.3C782,626.5,779.8,622,779.2,616.3L779.2,616.3z"/>
		<path class="st5" d="M701,769h-13.4v-59.3c-4.9,5.4-10.7,9.4-17.3,11.9v-14.3c3.5-1.3,7.3-3.9,11.4-7.6c4.1-3.8,6.9-8.1,8.4-13.1
			H701V769L701,769z"/>
		<path class="st5" d="M721.4,750l13-1.7c0.3,3.1,1.2,5.4,2.5,6.9c1.3,1.5,3.1,2.2,5.3,2.2c2.8,0,5.1-1.5,7.1-4.5
			c2-3,3.2-9.2,3.7-18.6c-3.4,4.6-7.6,6.9-12.6,6.9c-5.5,0-10.3-2.5-14.3-7.5c-4-5-6-11.5-6-19.4c0-8.3,2.1-15,6.3-20.1
			c4.2-5.1,9.6-7.6,16.1-7.6c7.1,0,12.9,3.2,17.5,9.7c4.5,6.4,6.8,17,6.8,31.8c0,15-2.4,25.8-7.1,32.5c-4.7,6.6-10.9,10-18.5,10
			c-5.5,0-9.9-1.7-13.3-5.1C724.5,761.9,722.3,756.8,721.4,750L721.4,750z M751.7,715.6c0-5.1-1-9-3-11.8c-2-2.8-4.3-4.2-6.9-4.2
			c-2.5,0-4.5,1.1-6.2,3.4c-1.6,2.3-2.5,6.1-2.5,11.3c0,5.3,0.9,9.2,2.7,11.7c1.8,2.5,4,3.7,6.7,3.7c2.6,0,4.8-1.2,6.5-3.6
			C750.9,723.8,751.7,720.3,751.7,715.6L751.7,715.6z"/>
		<path class="st5" d="M798.1,686.6c6.8,0,12.1,2.9,15.9,8.5c4.5,6.7,6.8,17.8,6.8,33.4c0,15.5-2.3,26.7-6.9,33.5
			c-3.8,5.6-9.1,8.4-15.9,8.4c-6.8,0-12.3-3.1-16.5-9.2c-4.2-6.1-6.3-17.1-6.3-32.8c0-15.5,2.3-26.6,6.9-33.4
			C786.1,689.4,791.3,686.6,798.1,686.6L798.1,686.6z M798.1,699.6c-1.6,0-3.1,0.6-4.3,1.8c-1.3,1.2-2.3,3.4-3,6.5
			c-0.9,4.1-1.4,10.9-1.4,20.5c0,9.6,0.4,16.2,1.2,19.8c0.8,3.6,1.9,6,3.1,7.2c1.3,1.2,2.7,1.8,4.3,1.8c1.6,0,3.1-0.6,4.4-1.8
			c1.3-1.2,2.3-3.4,3-6.5c0.9-4,1.4-10.9,1.4-20.5c0-9.6-0.4-16.2-1.2-19.9c-0.8-3.6-1.9-6-3.1-7.2
			C801.2,700.2,799.7,699.6,798.1,699.6L798.1,699.6z"/>
		<polygon class="st6" points="120.2,293.8 120.2,201.5 138.3,201.5 149.1,264.5 159.8,201.5 177.8,201.5 177.8,293.8 166.7,293.8 
			166.7,221.1 154.8,293.8 143.2,293.8 131.4,221.1 131.4,293.8 120.2,293.8 		"/>
		<path class="st6" d="M187.4,248.2c0-9.4,0.9-17.3,2.7-23.7c1.4-4.7,3.2-8.9,5.6-12.7c2.3-3.7,4.9-6.5,7.7-8.3
			c3.7-2.4,8-3.7,12.9-3.7c8.8,0,15.8,4.2,21.1,12.7c5.3,8.4,7.9,20.2,7.9,35.2c0,14.9-2.6,26.6-7.9,35c-5.2,8.4-12.2,12.6-21,12.6
			c-8.9,0-15.9-4.2-21.2-12.5C190,274.4,187.4,262.9,187.4,248.2L187.4,248.2z M199.8,247.6c0,10.4,1.6,18.4,4.7,23.8
			c3.1,5.4,7.1,8.1,11.9,8.1c4.8,0,8.7-2.7,11.8-8c3.1-5.4,4.6-13.4,4.6-24.1c0-10.6-1.5-18.5-4.5-23.7c-3-5.2-7-7.8-11.9-7.8
			c-5,0-9,2.6-12,7.9C201.3,229,199.8,237,199.8,247.6L199.8,247.6z"/>
		<polygon class="st6" points="254.8,293.8 254.8,201.5 266.5,201.5 290.9,263.1 290.9,201.5 302.1,201.5 302.1,293.8 290,293.8 
			266,233.6 266,293.8 254.8,293.8 		"/>
		<polygon class="st6" points="328.2,293.8 328.2,217.1 310.5,217.1 310.5,201.5 357.9,201.5 357.9,217.1 340.3,217.1 340.3,293.8 
			328.2,293.8 		"/>
		<polygon class="st6" points="365.7,293.8 365.7,201.5 410,201.5 410,217.1 377.8,217.1 377.8,237.6 407.7,237.6 407.7,253.1 
			377.8,253.1 377.8,278.2 411.1,278.2 411.1,293.8 365.7,293.8 		"/>
		<path class="st6" d="M459.5,259.9l11.7,5.7c-1.8,10.1-4.8,17.6-8.9,22.5c-4.2,4.9-9.4,7.3-15.9,7.3c-7.9,0-14.4-4.2-19.5-12.5
			c-5.1-8.4-7.7-19.8-7.7-34.3c0-15.4,2.6-27.3,7.7-35.8c5.1-8.5,11.9-12.7,20.2-12.7c7.3,0,13.2,3.3,17.8,10
			c2.7,3.9,4.7,9.6,6.1,17l-11.9,4.4c-0.7-4.8-2.2-8.6-4.4-11.3c-2.2-2.8-5-4.1-8.2-4.1c-4.4,0-8,2.4-10.8,7.4
			c-2.7,4.9-4.1,12.9-4.1,23.9c0,11.7,1.3,20,4.1,24.9c2.7,5,6.2,7.4,10.6,7.4c3.2,0,6-1.6,8.3-4.7
			C456.8,271.6,458.5,266.6,459.5,259.9L459.5,259.9z"/>
		<path class="st6" d="M479.1,248.2c0-9.4,0.9-17.3,2.7-23.7c1.4-4.7,3.2-8.9,5.6-12.7c2.3-3.7,4.9-6.5,7.7-8.3
			c3.7-2.4,8-3.7,12.9-3.7c8.8,0,15.8,4.2,21.1,12.7c5.3,8.4,7.9,20.2,7.9,35.2c0,14.9-2.6,26.6-7.9,35c-5.2,8.4-12.2,12.6-21,12.6
			c-8.9,0-15.9-4.2-21.2-12.5C481.7,274.4,479.1,262.9,479.1,248.2L479.1,248.2z M491.5,247.6c0,10.4,1.6,18.4,4.7,23.8
			c3.1,5.4,7.1,8.1,11.9,8.1c4.8,0,8.7-2.7,11.8-8c3.1-5.4,4.6-13.4,4.6-24.1c0-10.6-1.5-18.5-4.5-23.7c-3-5.2-7-7.8-11.9-7.8
			c-5,0-9,2.6-12,7.9C493,229,491.5,237,491.5,247.6L491.5,247.6z"/>
		<polygon class="st6" points="546.2,293.8 546.2,201.5 564.2,201.5 575,264.5 585.7,201.5 603.8,201.5 603.8,293.8 592.6,293.8 
			592.6,221.1 580.8,293.8 569.2,293.8 557.3,221.1 557.3,293.8 546.2,293.8 		"/>
		<path class="st6" d="M615.8,293.8v-92.3h19.3c7.3,0,12.1,0.5,14.3,1.4c3.4,1.4,6.3,4.4,8.6,9c2.3,4.6,3.5,10.6,3.5,18
			c0,5.7-0.7,10.4-2,14.3c-1.3,3.9-3,6.9-5.1,9.1c-2,2.2-4.1,3.7-6.2,4.4c-2.9,0.9-7,1.3-12.5,1.3h-7.8v34.8H615.8L615.8,293.8z
			 M627.8,217.1v26.2h6.6c4.8,0,7.9-0.5,9.5-1.4c1.6-1,2.8-2.5,3.8-4.5c0.9-2.1,1.4-4.4,1.4-7.2c0-3.4-0.6-6.1-1.9-8.3
			c-1.3-2.2-2.9-3.5-4.8-4.1c-1.4-0.4-4.3-0.6-8.7-0.6H627.8L627.8,217.1z"/>
		<path class="st6" d="M719,293.8h-13.1l-5.2-21h-23.8l-4.9,21h-12.8l23.2-92.3h12.7L719,293.8L719,293.8z M696.8,257.3l-8.2-34.3
			l-8.1,34.3H696.8L696.8,257.3z"/>
		<polygon class="st6" points="732.6,293.8 732.6,217.1 714.9,217.1 714.9,201.5 762.3,201.5 762.3,217.1 744.6,217.1 744.6,293.8 
			732.6,293.8 		"/>
		<path class="st6" d="M770.1,293.8v-92.3h25.4c6.4,0,11,0.8,13.9,2.5c2.9,1.7,5.2,4.6,6.9,8.8c1.7,4.3,2.6,9.1,2.6,14.5
			c0,6.9-1.3,12.7-3.9,17.2c-2.6,4.5-6.6,7.3-11.8,8.5c2.6,2.4,4.8,4.9,6.5,7.8c1.7,2.8,4,7.8,6.8,15l7.3,18h-14.4l-8.7-20.1
			c-3.1-7.2-5.2-11.7-6.4-13.6c-1.1-1.9-2.3-3.1-3.6-3.8c-1.3-0.7-3.3-1-6.1-1h-2.4v38.5H770.1L770.1,293.8z M782.2,240.5h8.9
			c5.8,0,9.4-0.4,10.8-1.1c1.4-0.8,2.6-2.1,3.4-3.9c0.8-1.9,1.2-4.1,1.2-6.9c0-3.1-0.5-5.6-1.6-7.5c-1.1-1.9-2.6-3.1-4.5-3.6
			c-1-0.2-3.9-0.3-8.8-0.3h-9.4V240.5L782.2,240.5z"/>
		<polygon class="st6" points="829.9,293.8 829.9,201.5 841.9,201.5 841.9,293.8 829.9,293.8 		"/>
	</g>
</g>
</svg>
