<?xml version="1.0" encoding="utf-8"?>
<!-- Generator: Adobe Illustrator 19.2.0, SVG Export Plug-In . SVG Version: 6.00 Build 0)  -->
<svg version="1.1" id="Livello_1" xmlns="http://www.w3.org/2000/svg" xmlns:xlink="http://www.w3.org/1999/xlink" x="0px" y="0px"
	 viewBox="0 0 960 960" style="enable-background:new 0 0 960 960;" xml:space="preserve">
<style type="text/css">
	.st0{opacity:1.000000e-002;fill:#FFFFFF;}
	.st1{fill:#FFFFFF;stroke:#1D1D1B;stroke-width:0.4865;stroke-miterlimit:2.6131;}
	.st2{fill:none;stroke:#1D1D1B;stroke-width:0.4865;stroke-miterlimit:2.6131;}
	.st3{fill-rule:evenodd;clip-rule:evenodd;fill:#1D1D1B;}
	.st4{fill:none;stroke:#1D1D1B;stroke-width:4.8649;stroke-miterlimit:2.6131;}
	.st5{fill-rule:evenodd;clip-rule:evenodd;fill:#FFFFFF;stroke:#1D1D1B;stroke-width:0.4865;stroke-miterlimit:2.6131;}
	.st6{fill-rule:evenodd;clip-rule:evenodd;fill:#005CA8;}
	.st7{fill-rule:evenodd;clip-rule:evenodd;fill:#FFFFFF;}
	.st8{fill-rule:evenodd;clip-rule:evenodd;fill:#005CA8;stroke:#005CA8;stroke-width:0.4865;stroke-miterlimit:2.6131;}
	.st9{fill:#FFFFFF;}
</style>
<rect class="st0" width="1" height="1"/>
<rect x="959" y="959" class="st0" width="1" height="1"/>
<polygon class="st1" points="311.7,464.9 648.3,464.9 648.3,840 311.7,840 311.7,464.9 "/>
<path class="st2" d="M362.5,601.7H407c4.5,0,8.1,3.7,8.1,8.1v44.5c0,4.5-3.7,8.1-8.1,8.1h-44.5c-4.5,0-8.1-3.7-8.1-8.1v-44.5
	C354.4,605.4,358,601.7,362.5,601.7L362.5,601.7z"/>
<path class="st3" d="M353,656.4c-0.2-0.3,0.4-0.5,0.4-0.2L353,656.4L353,656.4z"/>
<path class="st3" d="M381.3,656.8V652h16.5v-2.4h-13.3l14.8-22.8c3.3-0.1,3.3,2.3,3.3,4.3v25.7H381.3L381.3,656.8z"/>
<path class="st3" d="M381.3,649.6l0.2-7.8l-0.3-0.2l-3.6,4.4c-1.2,0.8-2.8,1.2-4,0.4l-9.7-4c-3.6-1.2-1.2-7.6,2.4-6l7.6,3.2
	l7.4-10.2c1.2-1.7,2.7-2.6,5.1-2.6h9.7L381.3,649.6L381.3,649.6z"/>
<polygon class="st3" points="382.5,618.2 385.4,615.4 397.8,615.4 397.8,616.2 382.5,618.2 "/>
<polygon class="st3" points="385.3,614.2 383.3,607.4 397.8,612.2 397.8,614.2 385.3,614.2 "/>
<path class="st3" d="M385.3,619l12.3-1.7c0.1,0.4,0.2,0.8,0.2,1.3c0,3.4-2.8,6.2-6.2,6.2C388.3,624.8,385.6,622.3,385.3,619
	L385.3,619z"/>
<path class="st2" d="M361.1,678.2h45.6c4.6,0,8.3,3.7,8.3,8.3v45.6c0,4.6-3.7,8.3-8.3,8.3h-45.6c-4.6,0-8.3-3.7-8.3-8.3v-45.6
	C352.8,682,356.5,678.2,361.1,678.2L361.1,678.2z"/>
<path class="st3" d="M358.5,729.2l6.4-20.2l1.1-12.3c0.9-4.1,5.3-4.7,7.9-2.2l8.3,10c1.6,1.9-1.3,4.2-2.9,2.5l-5-5.8l-3.5,8.7
	l5.6,6.9c0.6,0.7,1.3,2,0.7,3.7l-3.1,9.6c-1.2,2.7-5.1,1.5-4.3-1.2l3-9.2l-4.5-5.7l-5.4,16C361.7,733.1,358,731.5,358.5,729.2
	L358.5,729.2z"/>
<polygon class="st3" points="399.7,730.1 382.2,709.3 383.9,707.9 400.1,727.1 403.5,724.3 404.8,725.9 399.7,730.1 "/>
<polygon class="st3" points="400.3,724.7 388.4,710.4 397.8,702.5 409.8,716.7 400.3,724.7 "/>
<path class="st3" d="M388.2,729.8c-1.4-1.6-1.2-4.1,0.5-5.5c1.6-1.4,4.1-1.1,5.4,0.5c1.4,1.7,1.2,4.1-0.5,5.5
	C392.1,731.6,389.6,731.4,388.2,729.8L388.2,729.8z M389.5,728.7c-0.7-0.9-0.6-2.3,0.3-3c0.9-0.8,2.3-0.6,3,0.3
	c0.8,0.9,0.7,2.3-0.2,3C391.7,729.7,390.3,729.6,389.5,728.7L389.5,728.7z"/>
<path class="st3" d="M372,685.7c1.8,0,3.2,1.4,3.2,3.2c0,1.7-1.4,3.2-3.2,3.2c-1.7,0-3.2-1.4-3.2-3.2
	C368.8,687.1,370.2,685.7,372,685.7L372,685.7z"/>
<polygon class="st1" points="311.7,120 648.3,120 648.3,464.9 311.7,464.9 311.7,120 "/>
<path class="st4" d="M331.8,470.8h296.3c8.1,0,14.4,6.8,14.4,14.3v334.7c0,7.5-6.8,14.3-14.4,14.3H331.8c-7.5,0-14.3-6.3-14.3-14.3
	V485C317.5,476.9,323.7,470.8,331.8,470.8L331.8,470.8z"/>
<path class="st4" d="M331.8,125.8h296.3c8.1,0,14.4,6.6,14.4,14.3v304.5c0,7.6-6.6,14.3-14.4,14.3H331.8c-7.6,0-14.3-6.3-14.3-14.3
	V140.1C317.5,132,323.7,125.8,331.8,125.8L331.8,125.8z"/>
<path class="st5" d="M488,270.4c25.5,4.6,42.1,13.8,57.7,34.8c8.8,14.3,13,27.5,13.6,44.2c-1.1,33.4-18.4,58.9-48.4,72.9
	c-34,14-68.1,4.3-92.2-22.5c-15.1-19.8-20.8-41.7-16.4-66.5c5.1-19.1,12.6-31.8,27.3-45.1c15.7-11.7,30.5-17.6,50.4-18.1L488,270.4
	L488,270.4z"/>
<path class="st6" d="M480.2,275.9c40.4,0,73.4,33,73.4,73.4c0,40.4-33,73.4-73.4,73.4c-40.4,0-73.4-33-73.4-73.4
	C406.8,308.9,439.8,275.9,480.2,275.9L480.2,275.9z"/>
<path class="st7" d="M449.1,394.7l25.9-53.2l-3-11.4l-11.6,13c-3.9,5.4-11.4-0.6-7-5.7c7.2-8.3,14.4-16.6,21.6-25
	c1.1-1,1.1-1.1,3.2-2.1c3.1-1.1,6.1-2.1,9.3-3.2c1.1,0.1,1.1,0.1,2.1,1.1c5.8,6.2,11.7,12.4,17.6,18.7c1,1.1,1,2.1,1,3.1
	c0,5.3,0,8.2,0,13.5c0,4.8-8.3,4.8-8.3,0v-11.3l-7.3-7.4l-2.2,15.8l19.4,53.7c1.6,4.8-7.9,7.9-9.9,3.5l-17.1-47.2l-24.2,47.2
	C455.1,404.3,447.5,399.5,449.1,394.7L449.1,394.7z"/>
<path class="st7" d="M480.6,290.6c4.3,0,7.8,3.5,7.8,7.8c0,4.3-3.5,7.8-7.8,7.8c-4.3,0-7.8-3.5-7.8-7.8
	C472.8,294.1,476.3,290.6,480.6,290.6L480.6,290.6z"/>
<path class="st3" d="M454.6,193.3h-5.9l-2.4-8.5h-10.8l-2.2,8.5h-5.8l10.5-37.5h5.8L454.6,193.3L454.6,193.3z M444.6,178.5
	l-3.7-13.9l-3.6,13.9H444.6L444.6,178.5z"/>
<path class="st3" d="M457.5,193.3v-37.5H469c2.9,0,5,0.3,6.3,1c1.3,0.7,2.4,1.9,3.1,3.6c0.8,1.7,1.2,3.7,1.2,5.9
	c0,2.8-0.6,5.1-1.8,7c-1.2,1.8-3,3-5.3,3.5c1.2,1,2.2,2,2.9,3.2c0.8,1.1,1.8,3.2,3.1,6.1l3.3,7.3h-6.5l-3.9-8.2
	c-1.4-2.9-2.4-4.8-2.9-5.5c-0.5-0.8-1.1-1.3-1.6-1.6c-0.6-0.3-1.5-0.4-2.7-0.4H463v15.7H457.5L457.5,193.3z M463,171.6h4
	c2.6,0,4.3-0.1,4.9-0.5c0.6-0.3,1.2-0.8,1.5-1.6c0.4-0.8,0.6-1.7,0.6-2.8c0-1.3-0.2-2.3-0.7-3.1c-0.5-0.8-1.2-1.3-2.1-1.5
	c-0.4-0.1-1.8-0.1-4-0.1H463V171.6L463,171.6z"/>
<polygon class="st3" points="484.8,193.3 484.8,155.8 504.8,155.8 504.8,162.1 490.2,162.1 490.2,170.4 503.8,170.4 503.8,176.8 
	490.2,176.8 490.2,187 505.3,187 505.3,193.3 484.8,193.3 "/>
<path class="st3" d="M534.3,193.3h-5.9l-2.4-8.5h-10.8l-2.2,8.5h-5.8l10.5-37.5h5.8L534.3,193.3L534.3,193.3z M524.2,178.5
	l-3.7-13.9l-3.6,13.9H524.2L524.2,178.5z"/>
<path class="st3" d="M378.9,246v-37.5h8.7c3.3,0,5.5,0.2,6.5,0.6c1.5,0.6,2.8,1.8,3.9,3.7c1,1.9,1.6,4.3,1.6,7.3
	c0,2.3-0.3,4.2-0.9,5.8c-0.6,1.6-1.4,2.8-2.3,3.7c-0.9,0.9-1.9,1.5-2.8,1.8c-1.3,0.4-3.2,0.5-5.7,0.5h-3.6V246H378.9L378.9,246z
	 M384.3,214.8v10.6h3c2.2,0,3.6-0.2,4.3-0.6c0.7-0.4,1.3-1,1.7-1.8c0.4-0.8,0.6-1.8,0.6-2.9c0-1.4-0.3-2.5-0.9-3.4
	c-0.6-0.9-1.3-1.4-2.2-1.7c-0.7-0.2-2-0.3-3.9-0.3H384.3L384.3,214.8z"/>
<polygon class="st3" points="404.1,246 404.1,208.5 424.1,208.5 424.1,214.8 409.5,214.8 409.5,223.1 423.1,223.1 423.1,229.5 
	409.5,229.5 409.5,239.7 424.6,239.7 424.6,246 404.1,246 "/>
<path class="st3" d="M429.2,208.5h10c2.2,0,4,0.2,5.1,0.7c1.6,0.6,2.9,1.8,4.1,3.5c1.1,1.7,2,3.7,2.6,6.1c0.6,2.4,0.9,5.4,0.9,8.9
	c0,3.1-0.3,5.7-0.8,8c-0.7,2.7-1.6,4.9-2.9,6.6c-0.9,1.3-2.2,2.3-3.8,3c-1.2,0.5-2.8,0.8-4.8,0.8h-10.3V208.5L429.2,208.5z
	 M434.7,214.8v24.8h4.1c1.5,0,2.6-0.1,3.3-0.4c0.9-0.3,1.6-0.8,2.2-1.6c0.6-0.7,1.1-1.9,1.4-3.6c0.4-1.7,0.6-4,0.6-6.9
	c0-2.9-0.2-5.1-0.6-6.7c-0.4-1.6-0.9-2.8-1.5-3.6c-0.7-0.9-1.5-1.5-2.5-1.8c-0.8-0.2-2.3-0.4-4.5-0.4H434.7L434.7,214.8z"/>
<path class="st3" d="M455.4,227.5c0-3.8,0.4-7,1.2-9.6c0.6-1.9,1.5-3.6,2.5-5.1c1.1-1.5,2.2-2.6,3.5-3.4c1.7-1,3.6-1.5,5.8-1.5
	c4,0,7.2,1.7,9.6,5.1c2.4,3.4,3.6,8.2,3.6,14.3c0,6.1-1.2,10.8-3.6,14.2c-2.4,3.4-5.5,5.1-9.5,5.1c-4,0-7.2-1.7-9.6-5.1
	C456.6,238.1,455.4,233.4,455.4,227.5L455.4,227.5z M461,227.2c0,4.2,0.7,7.5,2.1,9.7c1.4,2.2,3.2,3.3,5.4,3.3c2.2,0,4-1.1,5.4-3.3
	c1.4-2.2,2.1-5.4,2.1-9.8c0-4.3-0.7-7.5-2-9.6c-1.4-2.1-3.2-3.2-5.4-3.2c-2.3,0-4.1,1.1-5.4,3.2C461.7,219.7,461,222.9,461,227.2
	L461,227.2z"/>
<polygon class="st3" points="485.9,246 485.9,208.5 491.2,208.5 502.2,233.5 502.2,208.5 507.3,208.5 507.3,246 501.8,246 
	491,221.5 491,246 485.9,246 "/>
<path class="st3" d="M537.4,246h-5.9l-2.4-8.5h-10.8l-2.2,8.5h-5.8l10.5-37.5h5.8L537.4,246L537.4,246z M527.4,231.2l-3.7-13.9
	l-3.6,13.9H527.4L527.4,231.2z"/>
<polygon class="st3" points="540.5,246 540.5,208.8 545.9,208.8 545.9,239.7 559.5,239.7 559.5,246 540.5,246 "/>
<polygon class="st3" points="563.4,246 563.4,208.5 583.4,208.5 583.4,214.8 568.8,214.8 568.8,223.1 582.4,223.1 582.4,229.5 
	568.8,229.5 568.8,239.7 583.9,239.7 583.9,246 563.4,246 "/>
<polygon class="st3" points="353.4,512.9 353.4,500.8 358.9,500.8 358.9,502.8 354.9,502.8 354.9,505.5 358.6,505.5 358.6,507.6 
	354.9,507.6 354.9,510.9 359,510.9 359,512.9 353.4,512.9 "/>
<path class="st3" d="M364.9,508.5l1.4,0.8c-0.2,1.3-0.6,2.3-1.1,3c-0.5,0.6-1.2,1-1.9,1c-1,0-1.8-0.5-2.4-1.6
	c-0.6-1.1-0.9-2.6-0.9-4.5c0-2,0.3-3.6,0.9-4.7c0.6-1.1,1.5-1.7,2.5-1.7c0.9,0,1.6,0.4,2.2,1.3c0.3,0.5,0.6,1.3,0.7,2.2l-1.5,0.6
	c-0.1-0.6-0.3-1.1-0.5-1.5c-0.3-0.4-0.6-0.5-1-0.5c-0.5,0-1,0.3-1.3,1c-0.3,0.6-0.5,1.7-0.5,3.1c0,1.5,0.2,2.6,0.5,3.3
	c0.3,0.7,0.8,1,1.3,1c0.4,0,0.7-0.2,1-0.6C364.6,510,364.8,509.3,364.9,508.5L364.9,508.5z"/>
<path class="st3" d="M372.3,508.5l1.4,0.8c-0.2,1.3-0.6,2.3-1.1,3c-0.5,0.6-1.2,1-1.9,1c-1,0-1.8-0.5-2.4-1.6
	c-0.6-1.1-0.9-2.6-0.9-4.5c0-2,0.3-3.6,0.9-4.7c0.6-1.1,1.5-1.7,2.5-1.7c0.9,0,1.6,0.4,2.2,1.3c0.3,0.5,0.6,1.3,0.7,2.2l-1.5,0.6
	c-0.1-0.6-0.3-1.1-0.5-1.5c-0.3-0.4-0.6-0.5-1-0.5c-0.5,0-1,0.3-1.3,1c-0.3,0.6-0.5,1.7-0.5,3.1c0,1.5,0.2,2.6,0.5,3.3
	c0.3,0.7,0.8,1,1.3,1c0.4,0,0.7-0.2,1-0.6C372,510,372.2,509.3,372.3,508.5L372.3,508.5z"/>
<polygon class="st3" points="375,512.9 375,500.8 380.4,500.8 380.4,502.8 376.5,502.8 376.5,505.5 380.1,505.5 380.1,507.6 
	376.5,507.6 376.5,510.9 380.6,510.9 380.6,512.9 375,512.9 "/>
<polygon class="st3" points="383.5,512.9 383.5,502.8 381.3,502.8 381.3,500.8 387.1,500.8 387.1,502.8 384.9,502.8 384.9,512.9 
	383.5,512.9 "/>
<polygon class="st3" points="389.7,512.9 389.7,502.8 387.5,502.8 387.5,500.8 393.3,500.8 393.3,502.8 391.2,502.8 391.2,512.9 
	389.7,512.9 "/>
<path class="st3" d="M393.8,506.9c0-1.2,0.1-2.3,0.3-3.1c0.2-0.6,0.4-1.2,0.7-1.7c0.3-0.5,0.6-0.9,0.9-1.1c0.5-0.3,1-0.5,1.6-0.5
	c1.1,0,1.9,0.6,2.6,1.7c0.6,1.1,1,2.6,1,4.6c0,2-0.3,3.5-1,4.6c-0.6,1.1-1.5,1.7-2.6,1.7c-1.1,0-2-0.5-2.6-1.6
	C394.1,510.4,393.8,508.9,393.8,506.9L393.8,506.9z M395.3,506.8c0,1.4,0.2,2.4,0.6,3.1c0.4,0.7,0.9,1.1,1.5,1.1
	c0.6,0,1.1-0.3,1.4-1.1c0.4-0.7,0.6-1.8,0.6-3.2c0-1.4-0.2-2.4-0.5-3.1c-0.4-0.7-0.9-1-1.5-1c-0.6,0-1.1,0.3-1.5,1
	C395.5,504.4,395.3,505.4,395.3,506.8L395.3,506.8z"/>
<path class="st3" d="M402.3,506.5v-2.3h1.4v2.3H402.3L402.3,506.5z M402.3,512.9v-2.3h1.4v2.3H402.3L402.3,512.9z"/>
<polygon class="st3" points="430.4,533.6 430.4,532.2 433,532.2 433,533.6 430.4,533.6 "/>
<path class="st3" d="M438.9,537.1l-2.7-11.6h1l1.8,8.4c0.1,0.7,0.3,1.3,0.4,1.9c0.1-0.6,0.2-1.3,0.4-1.9l1.9-8.4h1l-2.8,11.6H438.9
	L438.9,537.1z"/>
<polygon class="st3" points="443.5,537.1 443.5,525.5 448.6,525.5 448.6,526.9 444.4,526.9 444.4,530.4 448.3,530.4 448.3,531.8 
	444.4,531.8 444.4,535.7 448.7,535.7 448.7,537.1 443.5,537.1 "/>
<polygon class="st3" points="450.2,537.1 450.2,525.5 451.1,525.5 451.1,537.1 450.2,537.1 "/>
<path class="st3" d="M457.8,533l0.9,0.4c-0.2,1.3-0.6,2.2-1.1,2.9c-0.5,0.7-1.1,1-1.9,1c-0.8,0-1.4-0.3-1.9-0.8
	c-0.5-0.5-0.8-1.2-1.1-2.2c-0.2-1-0.4-2-0.4-3.1c0-1.2,0.1-2.3,0.4-3.1c0.3-0.9,0.7-1.6,1.2-2c0.5-0.5,1.1-0.7,1.7-0.7
	c0.7,0,1.3,0.3,1.8,0.9c0.5,0.6,0.8,1.4,1,2.5l-0.9,0.4c-0.2-0.8-0.4-1.5-0.7-1.8c-0.3-0.4-0.7-0.6-1.2-0.6c-0.5,0-1,0.2-1.4,0.6
	c-0.4,0.4-0.6,1-0.8,1.7c-0.1,0.7-0.2,1.5-0.2,2.2c0,1,0.1,1.8,0.3,2.6c0.2,0.7,0.4,1.3,0.8,1.6c0.4,0.4,0.8,0.5,1.2,0.5
	c0.5,0,1-0.2,1.3-0.7C457.5,534.7,457.7,534,457.8,533L457.8,533z"/>
<path class="st3" d="M459.6,531.5c0-1.9,0.3-3.4,0.9-4.5c0.6-1.1,1.4-1.6,2.4-1.6c0.7,0,1.2,0.3,1.8,0.8c0.5,0.5,0.9,1.2,1.2,2.1
	c0.3,0.9,0.4,1.9,0.4,3.1c0,1.2-0.1,2.2-0.4,3.1c-0.3,0.9-0.7,1.6-1.2,2.1c-0.5,0.5-1.1,0.7-1.7,0.7c-0.7,0-1.3-0.3-1.8-0.8
	c-0.5-0.5-0.9-1.2-1.2-2.2C459.8,533.4,459.6,532.5,459.6,531.5L459.6,531.5z M460.6,531.5c0,1.4,0.2,2.5,0.7,3.3
	c0.5,0.8,1,1.2,1.7,1.2c0.7,0,1.3-0.4,1.7-1.2c0.5-0.8,0.7-2,0.7-3.4c0-0.9-0.1-1.8-0.3-2.5c-0.2-0.7-0.5-1.2-0.9-1.6
	c-0.4-0.4-0.8-0.6-1.3-0.6c-0.7,0-1.2,0.4-1.7,1.1C460.8,528.5,460.6,529.7,460.6,531.5L460.6,531.5z"/>
<polygon class="st3" points="467.6,537.1 467.6,525.5 468.5,525.5 468.5,535.7 472,535.7 472,537.1 467.6,537.1 "/>
<polygon class="st3" points="473.3,537.1 473.3,525.5 474.2,525.5 474.2,537.1 473.3,537.1 "/>
<path class="st3" d="M477.8,537.1l2.7-11.6h1l2.9,11.6h-1.1l-0.8-3.5h-3l-0.8,3.5H477.8L477.8,537.1z M479.9,532.3h2.4l-0.7-3.2
	c-0.2-1-0.4-1.8-0.5-2.4c-0.1,0.7-0.2,1.5-0.4,2.2L479.9,532.3L479.9,532.3z"/>
<path class="st3" d="M489.8,525.5h0.9v6.7c0,1.2-0.1,2.1-0.2,2.8c-0.2,0.7-0.5,1.2-0.9,1.7c-0.4,0.4-1,0.6-1.7,0.6
	c-0.7,0-1.2-0.2-1.6-0.6c-0.4-0.4-0.7-0.9-0.9-1.6c-0.2-0.7-0.3-1.7-0.3-2.9v-6.7h0.9v6.7c0,1,0.1,1.7,0.2,2.2
	c0.1,0.5,0.3,0.8,0.6,1.1c0.3,0.3,0.6,0.4,1,0.4c0.7,0,1.2-0.3,1.5-0.8c0.3-0.5,0.4-1.5,0.4-2.9V525.5L489.8,525.5z"/>
<polygon class="st3" points="494.1,537.1 494.1,526.9 491.8,526.9 491.8,525.5 497.4,525.5 497.4,526.9 495.1,526.9 495.1,537.1 
	494.1,537.1 "/>
<path class="st3" d="M497.9,531.5c0-1.9,0.3-3.4,0.9-4.5c0.6-1.1,1.4-1.6,2.4-1.6c0.7,0,1.2,0.3,1.8,0.8c0.5,0.5,0.9,1.2,1.2,2.1
	c0.3,0.9,0.4,1.9,0.4,3.1c0,1.2-0.1,2.2-0.4,3.1c-0.3,0.9-0.7,1.6-1.2,2.1c-0.5,0.5-1.1,0.7-1.7,0.7c-0.7,0-1.3-0.3-1.8-0.8
	c-0.5-0.5-0.9-1.2-1.2-2.2C498,533.4,497.9,532.5,497.9,531.5L497.9,531.5z M498.9,531.5c0,1.4,0.2,2.5,0.7,3.3
	c0.5,0.8,1,1.2,1.7,1.2c0.7,0,1.3-0.4,1.7-1.2c0.5-0.8,0.7-2,0.7-3.4c0-0.9-0.1-1.8-0.3-2.5c-0.2-0.7-0.5-1.2-0.9-1.6
	c-0.4-0.4-0.8-0.6-1.3-0.6c-0.7,0-1.2,0.4-1.7,1.1C499.1,528.5,498.9,529.7,498.9,531.5L498.9,531.5z"/>
<path class="st3" d="M505.9,537.1v-11.6h3.1c0.6,0,1.1,0.1,1.4,0.3c0.3,0.2,0.6,0.6,0.8,1.1c0.2,0.5,0.3,1.1,0.3,1.7
	c0,0.8-0.2,1.5-0.5,2.1c-0.3,0.6-0.8,0.9-1.5,1.1c0.2,0.2,0.4,0.4,0.6,0.6c0.3,0.4,0.5,0.9,0.8,1.5l1.2,3.1h-1.2l-0.9-2.4
	c-0.3-0.7-0.5-1.2-0.7-1.6c-0.2-0.4-0.3-0.6-0.5-0.8c-0.1-0.1-0.3-0.2-0.4-0.3c-0.1,0-0.3-0.1-0.5-0.1h-1.1v5.1H505.9L505.9,537.1z
	 M506.8,530.6h2c0.4,0,0.8-0.1,1-0.2c0.2-0.1,0.4-0.4,0.5-0.7c0.1-0.3,0.2-0.7,0.2-1c0-0.5-0.1-1-0.4-1.3c-0.2-0.4-0.6-0.5-1.2-0.5
	h-2.2V530.6L506.8,530.6z"/>
<polygon class="st3" points="513.2,537.1 513.2,525.5 514.1,525.5 514.1,537.1 513.2,537.1 "/>
<path class="st3" d="M515.2,537.1v-1.4l3.6-7.4c0.3-0.5,0.5-1,0.7-1.4h-3.9v-1.4h5.1v1.4l-4,8l-0.4,0.8h4.5v1.4H515.2L515.2,537.1z"
	/>
<path class="st3" d="M521.2,537.1v-1.4l3.6-7.4c0.3-0.5,0.5-1,0.7-1.4h-3.9v-1.4h5.1v1.4l-4,8l-0.4,0.8h4.5v1.4H521.2L521.2,537.1z"
	/>
<path class="st3" d="M527,537.1l2.7-11.6h1l2.9,11.6h-1.1l-0.8-3.5h-3l-0.8,3.5H527L527,537.1z M529.1,532.3h2.4l-0.7-3.2
	c-0.2-1-0.4-1.8-0.5-2.4c-0.1,0.7-0.2,1.5-0.4,2.2L529.1,532.3L529.1,532.3z"/>
<polygon class="st3" points="535.5,537.1 535.5,526.9 533.1,526.9 533.1,525.5 538.8,525.5 538.8,526.9 536.4,526.9 536.4,537.1 
	535.5,537.1 "/>
<polygon class="st3" points="539.9,537.1 539.9,525.5 540.8,525.5 540.8,537.1 539.9,537.1 "/>
<path class="st3" d="M544.4,537.1l2.7-11.6h1l2.9,11.6H550l-0.8-3.5h-3l-0.8,3.5H544.4L544.4,537.1z M546.5,532.3h2.4l-0.7-3.2
	c-0.2-1-0.4-1.8-0.5-2.4c-0.1,0.7-0.2,1.5-0.4,2.2L546.5,532.3L546.5,532.3z"/>
<path class="st3" d="M554.2,533.4l0.9-0.1c0,0.6,0.1,1.1,0.3,1.4c0.2,0.4,0.4,0.7,0.7,0.9c0.3,0.2,0.7,0.3,1.1,0.3
	c0.4,0,0.7-0.1,0.9-0.3c0.3-0.2,0.5-0.4,0.6-0.7c0.1-0.3,0.2-0.6,0.2-1c0-0.4-0.1-0.7-0.2-0.9c-0.1-0.3-0.3-0.5-0.6-0.7
	c-0.2-0.1-0.6-0.3-1.3-0.6c-0.6-0.3-1.1-0.5-1.4-0.7c-0.3-0.3-0.6-0.6-0.8-1.1c-0.2-0.4-0.2-0.9-0.2-1.4c0-0.6,0.1-1.1,0.3-1.6
	c0.2-0.5,0.5-0.9,0.9-1.2c0.4-0.3,0.8-0.4,1.3-0.4c0.5,0,1,0.1,1.4,0.4c0.4,0.3,0.7,0.7,0.9,1.2c0.2,0.5,0.3,1.1,0.3,1.8l-0.9,0.1
	c-0.1-0.7-0.2-1.3-0.5-1.7c-0.3-0.4-0.7-0.6-1.2-0.6c-0.6,0-1,0.2-1.2,0.5c-0.3,0.3-0.4,0.7-0.4,1.2c0,0.4,0.1,0.8,0.3,1
	c0.2,0.3,0.6,0.5,1.4,0.8c0.8,0.3,1.3,0.5,1.6,0.7c0.4,0.3,0.7,0.7,0.9,1.2c0.2,0.5,0.3,1,0.3,1.6c0,0.6-0.1,1.2-0.3,1.7
	c-0.2,0.5-0.5,1-0.9,1.3c-0.4,0.3-0.9,0.5-1.4,0.5c-0.6,0-1.2-0.2-1.6-0.5c-0.4-0.3-0.8-0.8-1-1.4
	C554.4,534.8,554.2,534.1,554.2,533.4L554.2,533.4z"/>
<polygon class="st3" points="561.2,537.1 561.2,525.5 566.3,525.5 566.3,526.9 562.1,526.9 562.1,530.4 566,530.4 566,531.8 
	562.1,531.8 562.1,535.7 566.4,535.7 566.4,537.1 561.2,537.1 "/>
<path class="st3" d="M567.7,537.1v-11.6h3.1c0.6,0,1.1,0.1,1.4,0.3c0.3,0.2,0.6,0.6,0.8,1.1c0.2,0.5,0.3,1.1,0.3,1.7
	c0,0.8-0.2,1.5-0.5,2.1c-0.3,0.6-0.8,0.9-1.5,1.1c0.2,0.2,0.4,0.4,0.6,0.6c0.3,0.4,0.5,0.9,0.8,1.5l1.2,3.1h-1.2l-0.9-2.4
	c-0.3-0.7-0.5-1.2-0.7-1.6c-0.2-0.4-0.3-0.6-0.5-0.8c-0.1-0.1-0.3-0.2-0.4-0.3c-0.1,0-0.3-0.1-0.5-0.1h-1.1v5.1H567.7L567.7,537.1z
	 M568.7,530.6h2c0.4,0,0.8-0.1,1-0.2c0.2-0.1,0.4-0.4,0.5-0.7c0.1-0.3,0.2-0.7,0.2-1c0-0.5-0.1-1-0.4-1.3c-0.2-0.4-0.6-0.5-1.2-0.5
	h-2.2V530.6L568.7,530.6z"/>
<path class="st3" d="M576.7,537.1l-2.7-11.6h1l1.8,8.4c0.1,0.7,0.3,1.3,0.4,1.9c0.1-0.6,0.2-1.3,0.4-1.9l1.9-8.4h1l-2.8,11.6H576.7
	L576.7,537.1z"/>
<polygon class="st3" points="581.4,537.1 581.4,525.5 582.4,525.5 582.4,537.1 581.4,537.1 "/>
<path class="st3" d="M583.5,537.1v-1.4l3.6-7.4c0.3-0.5,0.5-1,0.7-1.4h-3.9v-1.4h5.1v1.4l-4,8l-0.4,0.8h4.5v1.4H583.5L583.5,537.1z"
	/>
<polygon class="st3" points="590.2,537.1 590.2,525.5 591.2,525.5 591.2,537.1 590.2,537.1 "/>
<path class="st3" d="M592.5,531.5c0-1.9,0.3-3.4,0.9-4.5c0.6-1.1,1.4-1.6,2.4-1.6c0.7,0,1.2,0.3,1.8,0.8c0.5,0.5,0.9,1.2,1.2,2.1
	c0.3,0.9,0.4,1.9,0.4,3.1c0,1.2-0.1,2.2-0.4,3.1c-0.3,0.9-0.7,1.6-1.2,2.1c-0.5,0.5-1.1,0.7-1.7,0.7c-0.7,0-1.3-0.3-1.8-0.8
	c-0.5-0.5-0.9-1.2-1.2-2.2C592.7,533.4,592.5,532.5,592.5,531.5L592.5,531.5z M593.5,531.5c0,1.4,0.2,2.5,0.7,3.3
	c0.5,0.8,1,1.2,1.7,1.2c0.7,0,1.3-0.4,1.7-1.2c0.5-0.8,0.7-2,0.7-3.4c0-0.9-0.1-1.8-0.3-2.5c-0.2-0.7-0.5-1.2-0.9-1.6
	c-0.4-0.4-0.8-0.6-1.3-0.6c-0.7,0-1.2,0.4-1.7,1.1C593.7,528.5,593.5,529.7,593.5,531.5L593.5,531.5z"/>
<path class="st3" d="M430.8,555.1v-11.6h2.4c0.6,0,1,0.1,1.3,0.2c0.4,0.1,0.8,0.4,1,0.8c0.4,0.5,0.7,1.2,0.8,2
	c0.2,0.8,0.3,1.7,0.3,2.7c0,0.9-0.1,1.7-0.2,2.3c-0.1,0.7-0.3,1.2-0.5,1.7c-0.2,0.4-0.4,0.8-0.6,1c-0.2,0.3-0.5,0.4-0.8,0.6
	c-0.3,0.1-0.7,0.2-1.1,0.2H430.8L430.8,555.1z M431.8,553.7h1.5c0.5,0,0.8-0.1,1.1-0.2c0.3-0.1,0.5-0.3,0.6-0.6
	c0.2-0.4,0.4-0.8,0.5-1.5c0.1-0.6,0.2-1.4,0.2-2.2c0-1.2-0.1-2.1-0.4-2.8c-0.2-0.7-0.5-1.1-0.9-1.3c-0.3-0.2-0.7-0.2-1.2-0.2h-1.5
	V553.7L431.8,553.7z"/>
<polygon class="st3" points="438.1,555.1 438.1,543.6 439,543.6 439,555.1 438.1,555.1 "/>
<path class="st3" d="M443.4,555.1v-11.6h2.7c0.5,0,0.8,0,1.1,0.1c0.3,0.1,0.6,0.3,0.9,0.5c0.2,0.3,0.4,0.6,0.6,1.1
	c0.1,0.5,0.2,1,0.2,1.6c0,1-0.2,1.8-0.6,2.5c-0.4,0.7-1.1,1-2.1,1h-1.8v4.7H443.4L443.4,555.1z M444.4,549.1h1.8
	c0.6,0,1-0.2,1.3-0.5c0.3-0.4,0.4-0.9,0.4-1.6c0-0.5-0.1-0.9-0.2-1.2c-0.1-0.3-0.3-0.6-0.6-0.7c-0.2-0.1-0.4-0.1-0.9-0.1h-1.8V549.1
	L444.4,549.1z"/>
<polygon class="st3" points="450.1,555.1 450.1,543.6 455.2,543.6 455.2,544.9 451,544.9 451,548.5 454.9,548.5 454.9,549.8 
	451,549.8 451,553.7 455.3,553.7 455.3,555.1 450.1,555.1 "/>
<path class="st3" d="M456.6,555.1v-11.6h3.1c0.6,0,1.1,0.1,1.4,0.3c0.3,0.2,0.6,0.6,0.8,1.1c0.2,0.5,0.3,1.1,0.3,1.7
	c0,0.8-0.2,1.5-0.5,2.1c-0.3,0.6-0.8,0.9-1.5,1.1c0.2,0.2,0.4,0.4,0.6,0.6c0.3,0.4,0.5,0.9,0.8,1.5l1.2,3.1h-1.2l-0.9-2.4
	c-0.3-0.7-0.5-1.2-0.7-1.6c-0.2-0.4-0.3-0.6-0.5-0.8c-0.1-0.1-0.3-0.2-0.4-0.3c-0.1,0-0.3-0.1-0.5-0.1h-1.1v5.1H456.6L456.6,555.1z
	 M457.6,548.7h2c0.4,0,0.8-0.1,1-0.2c0.2-0.1,0.4-0.4,0.5-0.7c0.1-0.3,0.2-0.7,0.2-1c0-0.5-0.1-1-0.4-1.3c-0.2-0.4-0.6-0.5-1.2-0.5
	h-2.2V548.7L457.6,548.7z"/>
<path class="st3" d="M463.4,551.4l0.9-0.1c0,0.6,0.1,1.1,0.3,1.4c0.2,0.4,0.4,0.7,0.7,0.9c0.3,0.2,0.7,0.3,1.1,0.3
	c0.4,0,0.7-0.1,0.9-0.3c0.3-0.2,0.5-0.4,0.6-0.7c0.1-0.3,0.2-0.6,0.2-1c0-0.4-0.1-0.7-0.2-0.9c-0.1-0.3-0.3-0.5-0.6-0.7
	c-0.2-0.1-0.6-0.3-1.3-0.6c-0.6-0.3-1.1-0.5-1.4-0.7c-0.3-0.3-0.6-0.6-0.8-1.1c-0.2-0.4-0.2-0.9-0.2-1.4c0-0.6,0.1-1.1,0.3-1.6
	c0.2-0.5,0.5-0.9,0.9-1.2c0.4-0.3,0.8-0.4,1.3-0.4c0.5,0,1,0.1,1.4,0.4c0.4,0.3,0.7,0.7,0.9,1.2c0.2,0.5,0.3,1.1,0.3,1.8l-0.9,0.1
	c0-0.7-0.2-1.3-0.5-1.7c-0.3-0.4-0.7-0.6-1.2-0.6c-0.6,0-1,0.2-1.2,0.5c-0.3,0.3-0.4,0.7-0.4,1.2c0,0.4,0.1,0.8,0.3,1
	c0.2,0.3,0.7,0.5,1.4,0.8c0.8,0.3,1.3,0.5,1.6,0.7c0.4,0.3,0.7,0.7,0.9,1.2c0.2,0.5,0.3,1,0.3,1.6c0,0.6-0.1,1.2-0.3,1.7
	c-0.2,0.5-0.5,1-0.9,1.3c-0.4,0.3-0.9,0.5-1.4,0.5c-0.6,0-1.2-0.2-1.6-0.5c-0.4-0.3-0.8-0.8-1-1.4
	C463.6,552.9,463.5,552.2,463.4,551.4L463.4,551.4z"/>
<path class="st3" d="M470.1,549.5c0-1.9,0.3-3.4,0.9-4.5c0.6-1.1,1.4-1.6,2.4-1.6c0.7,0,1.2,0.3,1.8,0.8c0.5,0.5,0.9,1.2,1.2,2.1
	c0.3,0.9,0.4,1.9,0.4,3.1c0,1.2-0.1,2.2-0.4,3.1c-0.3,0.9-0.7,1.6-1.2,2.1c-0.5,0.5-1.1,0.7-1.7,0.7c-0.7,0-1.3-0.3-1.8-0.8
	c-0.5-0.5-0.9-1.2-1.2-2.2C470.2,551.5,470.1,550.5,470.1,549.5L470.1,549.5z M471,549.5c0,1.4,0.2,2.5,0.7,3.3
	c0.5,0.8,1,1.2,1.7,1.2c0.7,0,1.3-0.4,1.7-1.2c0.5-0.8,0.7-2,0.7-3.4c0-0.9-0.1-1.8-0.3-2.5c-0.2-0.7-0.5-1.2-0.9-1.6
	c-0.4-0.4-0.8-0.6-1.3-0.6c-0.7,0-1.2,0.4-1.7,1.1C471.3,546.5,471,547.8,471,549.5L471,549.5z"/>
<polygon class="st3" points="478,555.1 478,543.6 479,543.6 482.7,552.6 482.7,543.6 483.6,543.6 483.6,555.1 482.6,555.1 
	478.9,546 478.9,555.1 478,555.1 "/>
<polygon class="st3" points="485.2,555.1 485.2,543.6 490.3,543.6 490.3,544.9 486.1,544.9 486.1,548.5 490,548.5 490,549.8 
	486.1,549.8 486.1,553.7 490.5,553.7 490.5,555.1 485.2,555.1 "/>
<polygon class="st3" points="494.7,555.1 494.7,543.6 495.6,543.6 495.6,555.1 494.7,555.1 "/>
<polygon class="st3" points="497.2,555.1 497.2,543.6 498.2,543.6 501.9,552.6 501.9,543.6 502.8,543.6 502.8,555.1 501.9,555.1 
	498.1,546 498.1,555.1 497.2,555.1 "/>
<path class="st3" d="M506.4,555.1l-2.7-11.6h1l1.8,8.4c0.1,0.7,0.3,1.3,0.4,1.9c0.1-0.6,0.2-1.3,0.4-1.9l1.9-8.4h1l-2.8,11.6H506.4
	L506.4,555.1z"/>
<path class="st3" d="M509.5,555.1l2.7-11.6h1l2.9,11.6H515l-0.8-3.5h-3l-0.8,3.5H509.5L509.5,555.1z M511.5,550.4h2.4l-0.7-3.2
	c-0.2-1-0.4-1.8-0.5-2.4c-0.1,0.7-0.2,1.5-0.4,2.2L511.5,550.4L511.5,550.4z"/>
<polygon class="st3" points="516.8,555.1 516.8,543.6 517.7,543.6 517.7,553.7 521.2,553.7 521.2,555.1 516.8,555.1 "/>
<polygon class="st3" points="522.5,555.1 522.5,543.6 523.4,543.6 523.4,555.1 522.5,555.1 "/>
<path class="st3" d="M525.1,555.1v-11.6h2.4c0.5,0,1,0.1,1.3,0.2c0.4,0.1,0.8,0.4,1,0.8c0.4,0.5,0.7,1.2,0.8,2
	c0.2,0.8,0.3,1.7,0.3,2.7c0,0.9-0.1,1.7-0.2,2.3c-0.1,0.7-0.3,1.2-0.5,1.7c-0.2,0.4-0.4,0.8-0.6,1c-0.2,0.3-0.5,0.4-0.8,0.6
	c-0.3,0.1-0.7,0.2-1.1,0.2H525.1L525.1,555.1z M526,553.7h1.5c0.5,0,0.8-0.1,1.1-0.2c0.3-0.1,0.5-0.3,0.6-0.6
	c0.2-0.4,0.4-0.8,0.5-1.5c0.1-0.6,0.2-1.4,0.2-2.2c0-1.2-0.1-2.1-0.4-2.8c-0.2-0.7-0.5-1.1-0.9-1.3c-0.3-0.2-0.7-0.2-1.2-0.2H526
	V553.7L526,553.7z"/>
<polygon class="st3" points="532.2,555.1 532.2,543.6 537.4,543.6 537.4,544.9 533.2,544.9 533.2,548.5 537.1,548.5 537.1,549.8 
	533.2,549.8 533.2,553.7 537.5,553.7 537.5,555.1 532.2,555.1 "/>
<polygon class="st3" points="430.5,610.3 430.5,608.9 433.2,608.9 433.2,610.3 430.5,610.3 "/>
<path class="st3" d="M436.9,613.8v-11.6h2.6c0.5,0,0.8,0,1.1,0.1c0.3,0.1,0.6,0.3,0.9,0.5c0.2,0.3,0.4,0.6,0.6,1.1
	c0.1,0.5,0.2,1,0.2,1.6c0,1-0.2,1.8-0.6,2.5c-0.4,0.7-1.1,1-2,1h-1.8v4.7H436.9L436.9,613.8z M437.8,607.7h1.8c0.6,0,1-0.2,1.3-0.5
	c0.2-0.4,0.4-0.9,0.4-1.6c0-0.5-0.1-0.9-0.2-1.2c-0.1-0.3-0.3-0.6-0.6-0.7c-0.2-0.1-0.4-0.1-0.9-0.1h-1.8V607.7L437.8,607.7z"/>
<path class="st3" d="M443.1,608.2c0-1.9,0.3-3.4,0.9-4.5c0.6-1.1,1.4-1.6,2.4-1.6c0.6,0,1.2,0.3,1.7,0.8c0.5,0.5,0.9,1.2,1.2,2.1
	s0.4,1.9,0.4,3.1c0,1.2-0.1,2.2-0.4,3.1c-0.3,0.9-0.7,1.6-1.2,2.1c-0.5,0.5-1.1,0.7-1.7,0.7c-0.7,0-1.2-0.3-1.8-0.8
	c-0.5-0.5-0.9-1.2-1.2-2.2C443.2,610.1,443.1,609.2,443.1,608.2L443.1,608.2z M444.1,608.2c0,1.4,0.2,2.5,0.7,3.3
	c0.5,0.8,1,1.2,1.7,1.2c0.7,0,1.3-0.4,1.7-1.2c0.4-0.8,0.7-2,0.7-3.4c0-0.9-0.1-1.8-0.3-2.5c-0.2-0.7-0.5-1.2-0.8-1.6
	c-0.4-0.4-0.8-0.6-1.2-0.6c-0.7,0-1.2,0.4-1.7,1.1C444.3,605.2,444.1,606.4,444.1,608.2L444.1,608.2z"/>
<polygon class="st3" points="450.9,613.8 450.9,602.2 451.8,602.2 451.8,612.4 455.3,612.4 455.3,613.8 450.9,613.8 "/>
<polygon class="st3" points="456.5,613.8 456.5,602.2 457.4,602.2 457.4,613.8 456.5,613.8 "/>
<path class="st3" d="M458.5,613.8v-1.4l3.6-7.4c0.3-0.5,0.5-1,0.7-1.4h-3.9v-1.4h5v1.4l-3.9,8l-0.4,0.8h4.4v1.4H458.5L458.5,613.8z"
	/>
<polygon class="st3" points="465.2,613.8 465.2,602.2 466.1,602.2 466.1,613.8 465.2,613.8 "/>
<path class="st3" d="M466.9,613.8l2.7-11.6h1l2.8,11.6h-1l-0.8-3.5h-2.9l-0.8,3.5H466.9L466.9,613.8z M468.9,609h2.4l-0.7-3.2
	c-0.2-1-0.4-1.8-0.5-2.4c-0.1,0.7-0.2,1.5-0.4,2.2L468.9,609L468.9,609z"/>
<path class="st3" d="M474.3,613.8v-1.6h1v1.6c0,0.6-0.1,1.1-0.2,1.4c-0.1,0.4-0.3,0.6-0.6,0.8l-0.2-0.6c0.2-0.1,0.3-0.3,0.4-0.6
	c0.1-0.3,0.1-0.6,0.1-1.1H474.3L474.3,613.8z"/>
<path class="st3" d="M478.8,613.8l2.7-11.6h1l2.8,11.6h-1l-0.8-3.5h-2.9l-0.8,3.5H478.8L478.8,613.8z M480.8,609h2.4l-0.7-3.2
	c-0.2-1-0.4-1.8-0.5-2.4c-0.1,0.7-0.2,1.5-0.4,2.2L480.8,609L480.8,609z"/>
<path class="st3" d="M486.1,613.8v-11.6h1.4l1.6,8.2c0.2,0.8,0.3,1.3,0.3,1.7c0.1-0.4,0.2-1,0.4-1.9l1.7-8h1.2v11.6h-0.9v-9.7
	l-2,9.7h-0.8l-2-9.8v9.8H486.1L486.1,613.8z"/>
<path class="st3" d="M494.1,613.8v-11.6h2.6c0.5,0,1,0.1,1.3,0.3c0.3,0.2,0.6,0.6,0.8,1.1c0.2,0.5,0.3,1,0.3,1.5
	c0,0.5-0.1,1-0.2,1.4c-0.2,0.4-0.4,0.8-0.7,1.1c0.4,0.2,0.7,0.6,1,1c0.2,0.5,0.3,1.1,0.3,1.8c0,0.5-0.1,1-0.2,1.5
	c-0.1,0.5-0.3,0.8-0.5,1.1c-0.2,0.3-0.5,0.4-0.8,0.6c-0.3,0.1-0.7,0.2-1.1,0.2H494.1L494.1,613.8z M495.1,607.1h1.5
	c0.4,0,0.7,0,0.9-0.1c0.2-0.1,0.4-0.3,0.5-0.6c0.1-0.3,0.2-0.6,0.2-1c0-0.4-0.1-0.7-0.2-1c-0.1-0.3-0.3-0.5-0.5-0.6
	c-0.2-0.1-0.6-0.2-1.1-0.2h-1.4V607.1L495.1,607.1z M495.1,612.4h1.7c0.3,0,0.5,0,0.6-0.1c0.2-0.1,0.4-0.2,0.5-0.3
	c0.1-0.1,0.3-0.4,0.3-0.6c0.1-0.3,0.1-0.6,0.1-1c0-0.4-0.1-0.8-0.2-1.1c-0.1-0.3-0.3-0.5-0.6-0.7c-0.2-0.1-0.6-0.2-1-0.2h-1.6V612.4
	L495.1,612.4z"/>
<path class="st3" d="M505.2,602.2h0.9v6.7c0,1.2-0.1,2.1-0.2,2.8c-0.2,0.7-0.4,1.2-0.9,1.7s-1,0.6-1.6,0.6c-0.7,0-1.2-0.2-1.6-0.6
	c-0.4-0.4-0.7-0.9-0.9-1.6c-0.2-0.7-0.3-1.7-0.3-2.9v-6.7h0.9v6.7c0,1,0.1,1.7,0.2,2.2c0.1,0.5,0.3,0.8,0.6,1.1
	c0.3,0.3,0.6,0.4,1,0.4c0.7,0,1.2-0.3,1.4-0.8c0.3-0.5,0.4-1.5,0.4-2.9V602.2L505.2,602.2z"/>
<polygon class="st3" points="507.6,613.8 507.6,602.2 508.6,602.2 508.6,612.4 512,612.4 512,613.8 507.6,613.8 "/>
<path class="st3" d="M512.3,613.8l2.7-11.6h1l2.9,11.6h-1.1l-0.8-3.5h-2.9l-0.8,3.5H512.3L512.3,613.8z M514.3,609h2.4l-0.7-3.2
	c-0.2-1-0.4-1.8-0.5-2.4c-0.1,0.7-0.2,1.5-0.4,2.2L514.3,609L514.3,609z"/>
<polygon class="st3" points="519.6,613.8 519.6,602.2 520.5,602.2 524.2,611.3 524.2,602.2 525,602.2 525,613.8 524.1,613.8 
	520.4,604.7 520.4,613.8 519.6,613.8 "/>
<path class="st3" d="M526,613.8v-1.4l3.6-7.4c0.3-0.5,0.5-1,0.7-1.4h-3.9v-1.4h5v1.4l-3.9,8l-0.4,0.8h4.4v1.4H526L526,613.8z"/>
<polygon class="st3" points="532.5,613.8 532.5,602.2 537.6,602.2 537.6,603.6 533.5,603.6 533.5,607.1 537.3,607.1 537.3,608.5 
	533.5,608.5 533.5,612.4 537.7,612.4 537.7,613.8 532.5,613.8 "/>
<path class="st3" d="M539.1,613.8v-1.6h1v1.6c0,0.6-0.1,1.1-0.2,1.4c-0.1,0.4-0.3,0.6-0.6,0.8l-0.2-0.6c0.2-0.1,0.3-0.3,0.4-0.6
	c0.1-0.3,0.1-0.6,0.1-1.1H539.1L539.1,613.8z"/>
<path class="st3" d="M433,631.8l-2.7-11.6h1l1.8,8.4c0.1,0.7,0.3,1.3,0.4,1.9c0.1-0.6,0.2-1.3,0.4-1.9l1.9-8.4h0.9l-2.7,11.6H433
	L433,631.8z"/>
<polygon class="st3" points="437.6,631.8 437.6,620.3 438.5,620.3 438.5,631.8 437.6,631.8 "/>
<path class="st3" d="M443.4,627.3v-1.4l2.9,0v4.3c-0.5,0.6-0.9,1-1.4,1.4c-0.5,0.3-1,0.5-1.5,0.5c-0.7,0-1.3-0.2-1.9-0.7
	c-0.6-0.5-1-1.2-1.3-2.1c-0.3-0.9-0.4-1.9-0.4-3.1c0-1.1,0.1-2.2,0.4-3.1c0.3-1,0.7-1.7,1.2-2.2c0.5-0.5,1.1-0.7,1.8-0.7
	c0.5,0,1,0.1,1.4,0.4c0.4,0.3,0.7,0.6,1,1.1c0.2,0.5,0.4,1.1,0.5,1.9l-0.8,0.4c-0.1-0.6-0.2-1.1-0.4-1.4c-0.2-0.3-0.4-0.6-0.7-0.8
	c-0.3-0.2-0.6-0.3-1-0.3c-0.4,0-0.8,0.1-1.1,0.3c-0.3,0.2-0.6,0.5-0.7,0.8c-0.2,0.3-0.3,0.7-0.4,1.1c-0.2,0.7-0.3,1.5-0.3,2.3
	c0,1,0.1,1.9,0.3,2.6c0.2,0.7,0.5,1.2,0.9,1.5c0.4,0.3,0.8,0.5,1.3,0.5c0.4,0,0.8-0.1,1.2-0.4c0.4-0.3,0.7-0.5,0.9-0.8v-2.2H443.4
	L443.4,627.3z"/>
<polygon class="st3" points="447.9,631.8 447.9,620.3 448.8,620.3 448.8,631.8 447.9,631.8 "/>
<polygon class="st3" points="450.4,631.8 450.4,620.3 451.3,620.3 451.3,630.5 454.7,630.5 454.7,631.8 450.4,631.8 "/>
<polygon class="st3" points="456,631.8 456,620.3 456.9,620.3 456.9,631.8 456,631.8 "/>
<path class="st3" d="M461.2,631.8v-11.6h2.4c0.5,0,1,0.1,1.2,0.2c0.4,0.2,0.7,0.4,1,0.8c0.4,0.5,0.6,1.2,0.8,2
	c0.2,0.8,0.3,1.7,0.3,2.7c0,0.9-0.1,1.7-0.2,2.3c-0.1,0.7-0.3,1.2-0.5,1.7c-0.2,0.4-0.4,0.8-0.6,1c-0.2,0.3-0.5,0.5-0.8,0.6
	c-0.3,0.1-0.7,0.2-1.1,0.2H461.2L461.2,631.8z M462.2,630.5h1.5c0.5,0,0.8-0.1,1.1-0.2c0.3-0.1,0.5-0.3,0.6-0.6
	c0.2-0.4,0.4-0.8,0.5-1.5c0.1-0.6,0.2-1.4,0.2-2.2c0-1.2-0.1-2.1-0.4-2.8c-0.2-0.7-0.5-1.1-0.9-1.3c-0.2-0.2-0.6-0.2-1.2-0.2h-1.5
	V630.5L462.2,630.5z"/>
<polygon class="st3" points="468.3,631.8 468.3,620.3 473.3,620.3 473.3,621.6 469.2,621.6 469.2,625.2 473,625.2 473,626.5 
	469.2,626.5 469.2,630.5 473.5,630.5 473.5,631.8 468.3,631.8 "/>
<polygon class="st3" points="474.7,631.8 474.7,620.3 475.6,620.3 475.6,630.5 479,630.5 479,631.8 474.7,631.8 "/>
<polygon class="st3" points="482.9,631.8 482.9,620.3 487.6,620.3 487.6,621.6 483.8,621.6 483.8,625.2 487.1,625.2 487.1,626.6 
	483.8,626.6 483.8,631.8 482.9,631.8 "/>
<path class="st3" d="M493.3,620.3h0.9v6.7c0,1.2-0.1,2.1-0.2,2.8c-0.2,0.7-0.4,1.2-0.9,1.7c-0.4,0.4-1,0.6-1.6,0.6
	c-0.7,0-1.2-0.2-1.6-0.6c-0.4-0.4-0.7-0.9-0.9-1.6c-0.2-0.7-0.3-1.7-0.3-2.9v-6.7h0.9v6.7c0,1,0.1,1.7,0.2,2.2
	c0.1,0.5,0.3,0.8,0.6,1.1c0.3,0.3,0.6,0.4,1,0.4c0.7,0,1.2-0.3,1.4-0.8c0.3-0.5,0.4-1.5,0.4-2.9V620.3L493.3,620.3z"/>
<path class="st3" d="M495.5,626.2c0-1.9,0.3-3.4,0.9-4.5c0.6-1.1,1.4-1.6,2.4-1.6c0.6,0,1.2,0.3,1.7,0.8c0.5,0.5,0.9,1.2,1.2,2.1
	c0.3,0.9,0.4,1.9,0.4,3.1c0,1.2-0.1,2.2-0.4,3.1c-0.3,0.9-0.7,1.6-1.2,2.1c-0.5,0.5-1.1,0.7-1.7,0.7c-0.7,0-1.2-0.3-1.8-0.8
	c-0.5-0.5-0.9-1.2-1.2-2.2C495.7,628.2,495.5,627.2,495.5,626.2L495.5,626.2z M496.5,626.2c0,1.4,0.2,2.5,0.7,3.3
	c0.5,0.8,1,1.2,1.7,1.2c0.7,0,1.3-0.4,1.7-1.2c0.4-0.8,0.7-2,0.7-3.4c0-0.9-0.1-1.8-0.3-2.5c-0.2-0.7-0.5-1.2-0.8-1.6
	c-0.4-0.4-0.8-0.6-1.2-0.6c-0.7,0-1.2,0.4-1.7,1.1C496.7,623.2,496.5,624.5,496.5,626.2L496.5,626.2z"/>
<path class="st3" d="M508.3,627.8l0.9,0.4c-0.2,1.3-0.5,2.2-1,2.9c-0.5,0.7-1.1,1-1.8,1c-0.8,0-1.4-0.3-1.8-0.8
	c-0.5-0.5-0.8-1.2-1.1-2.2c-0.2-1-0.4-2-0.4-3.1c0-1.2,0.1-2.3,0.4-3.1c0.3-0.9,0.7-1.6,1.2-2c0.5-0.5,1.1-0.7,1.7-0.7
	c0.7,0,1.3,0.3,1.8,0.9c0.5,0.6,0.8,1.4,1,2.5l-0.9,0.4c-0.2-0.8-0.4-1.5-0.7-1.8c-0.3-0.4-0.7-0.6-1.2-0.6c-0.5,0-1,0.2-1.3,0.6
	c-0.4,0.4-0.6,1-0.8,1.7c-0.1,0.7-0.2,1.5-0.2,2.2c0,1,0.1,1.8,0.3,2.6c0.2,0.7,0.4,1.3,0.8,1.6c0.4,0.4,0.8,0.5,1.2,0.5
	c0.5,0,1-0.2,1.3-0.7C508,629.5,508.2,628.7,508.3,627.8L508.3,627.8z"/>
<path class="st3" d="M510.1,626.2c0-1.9,0.3-3.4,0.9-4.5c0.6-1.1,1.4-1.6,2.4-1.6c0.6,0,1.2,0.3,1.7,0.8c0.5,0.5,0.9,1.2,1.2,2.1
	c0.3,0.9,0.4,1.9,0.4,3.1c0,1.2-0.1,2.2-0.4,3.1c-0.3,0.9-0.7,1.6-1.2,2.1c-0.5,0.5-1.1,0.7-1.7,0.7c-0.7,0-1.2-0.3-1.8-0.8
	c-0.5-0.5-0.9-1.2-1.2-2.2C510.2,628.2,510.1,627.2,510.1,626.2L510.1,626.2z M511.1,626.2c0,1.4,0.2,2.5,0.7,3.3
	c0.5,0.8,1,1.2,1.7,1.2c0.7,0,1.3-0.4,1.7-1.2c0.4-0.8,0.7-2,0.7-3.4c0-0.9-0.1-1.8-0.3-2.5c-0.2-0.7-0.5-1.2-0.8-1.6
	c-0.4-0.4-0.8-0.6-1.2-0.6c-0.7,0-1.2,0.4-1.7,1.1C511.3,623.2,511.1,624.5,511.1,626.2L511.1,626.2z"/>
<path class="st3" d="M432.5,653.2c-0.5-1-0.9-2.1-1.2-3.5c-0.3-1.3-0.5-2.7-0.5-4.1c0-1.2,0.1-2.4,0.4-3.6c0.3-1.3,0.7-2.7,1.3-4
	h0.6c-0.4,1.1-0.6,1.9-0.8,2.3c-0.2,0.7-0.3,1.5-0.5,2.3c-0.1,1-0.2,2-0.2,3c0,2.5,0.5,5.1,1.4,7.6H432.5L432.5,653.2z"/>
<path class="st3" d="M433.8,647.3l0.8-0.2c0,0.6,0.2,1,0.4,1.3c0.2,0.3,0.5,0.4,0.9,0.4c0.4,0,0.7-0.1,0.9-0.4
	c0.2-0.3,0.3-0.6,0.3-0.9c0-0.3-0.1-0.6-0.3-0.8c-0.1-0.1-0.4-0.3-0.9-0.5c-0.6-0.3-1.1-0.5-1.3-0.7c-0.2-0.2-0.4-0.5-0.6-0.8
	c-0.1-0.3-0.2-0.7-0.2-1.1c0-0.4,0.1-0.7,0.2-1c0.1-0.3,0.2-0.6,0.4-0.8c0.1-0.2,0.3-0.3,0.5-0.4c0.2-0.1,0.5-0.2,0.7-0.2
	c0.4,0,0.7,0.1,1,0.3c0.3,0.2,0.5,0.4,0.7,0.8c0.1,0.3,0.2,0.8,0.3,1.3l-0.8,0.2c0-0.4-0.1-0.8-0.3-1c-0.2-0.2-0.4-0.4-0.8-0.4
	c-0.4,0-0.7,0.1-0.8,0.3c-0.2,0.2-0.3,0.5-0.3,0.8c0,0.2,0,0.3,0.1,0.5c0.1,0.2,0.2,0.3,0.3,0.4c0.1,0.1,0.3,0.2,0.8,0.4
	c0.6,0.3,1,0.5,1.3,0.7c0.2,0.2,0.4,0.4,0.6,0.7c0.1,0.3,0.2,0.7,0.2,1.2c0,0.5-0.1,0.9-0.2,1.3c-0.2,0.4-0.4,0.7-0.7,1
	c-0.3,0.2-0.7,0.3-1.1,0.3c-0.7,0-1.2-0.2-1.5-0.7C434.1,648.9,433.8,648.2,433.8,647.3L433.8,647.3z"/>
<path class="st3" d="M438.6,645.7c0-1.5,0.3-2.7,0.8-3.4c0.4-0.6,1-0.9,1.6-0.9c0.7,0,1.3,0.4,1.7,1.1c0.4,0.8,0.7,1.8,0.7,3.1
	c0,1.1-0.1,1.9-0.3,2.5c-0.2,0.6-0.5,1.1-0.8,1.4c-0.4,0.3-0.8,0.5-1.2,0.5c-0.7,0-1.3-0.4-1.7-1.1
	C438.9,648.2,438.6,647.1,438.6,645.7L438.6,645.7z M439.5,645.7c0,1.1,0.1,1.9,0.4,2.4c0.3,0.5,0.6,0.8,1.1,0.8
	c0.4,0,0.8-0.3,1.1-0.8c0.3-0.5,0.4-1.4,0.4-2.5c0-1-0.1-1.8-0.4-2.4c-0.3-0.5-0.6-0.8-1.1-0.8c-0.4,0-0.8,0.3-1.1,0.8
	C439.7,643.8,439.5,644.6,439.5,645.7L439.5,645.7z"/>
<polygon class="st3" points="444.3,649.8 444.3,638.3 445.2,638.3 445.2,649.8 444.3,649.8 "/>
<path class="st3" d="M446.2,645.7c0-1.5,0.3-2.7,0.8-3.4c0.4-0.6,1-0.9,1.6-0.9c0.7,0,1.3,0.4,1.7,1.1c0.4,0.8,0.7,1.8,0.7,3.1
	c0,1.1-0.1,1.9-0.3,2.5c-0.2,0.6-0.5,1.1-0.8,1.4c-0.4,0.3-0.8,0.5-1.2,0.5c-0.7,0-1.3-0.4-1.7-1.1
	C446.4,648.2,446.2,647.1,446.2,645.7L446.2,645.7z M447.1,645.7c0,1.1,0.1,1.9,0.4,2.4c0.3,0.5,0.6,0.8,1.1,0.8
	c0.4,0,0.8-0.3,1.1-0.8c0.3-0.5,0.4-1.4,0.4-2.5c0-1-0.1-1.8-0.4-2.4c-0.3-0.5-0.6-0.8-1.1-0.8c-0.4,0-0.8,0.3-1.1,0.8
	C447.2,643.8,447.1,644.6,447.1,645.7L447.1,645.7z"/>
<path class="st3" d="M454.6,639.9v-1.6h0.9v1.6H454.6L454.6,639.9z M454.6,649.8v-8.4h0.9v8.4H454.6L454.6,649.8z"/>
<path class="st3" d="M456.8,649.8v-8.4h0.8v1.2c0.4-0.9,0.9-1.4,1.6-1.4c0.3,0,0.6,0.1,0.8,0.3c0.3,0.2,0.4,0.4,0.6,0.7
	c0.1,0.3,0.2,0.6,0.3,1c0,0.3,0,0.7,0,1.4v5.1H460v-5.1c0-0.6,0-1-0.1-1.3c-0.1-0.3-0.2-0.5-0.4-0.7c-0.2-0.2-0.4-0.3-0.6-0.3
	c-0.4,0-0.7,0.2-0.9,0.6c-0.3,0.4-0.4,1.1-0.4,2.2v4.6H456.8L456.8,649.8z"/>
<path class="st3" d="M464.6,647.3l0.8-0.2c0,0.6,0.2,1,0.4,1.3c0.2,0.3,0.5,0.4,0.9,0.4c0.4,0,0.7-0.1,0.9-0.4
	c0.2-0.3,0.3-0.6,0.3-0.9c0-0.3-0.1-0.6-0.3-0.8c-0.1-0.1-0.4-0.3-0.9-0.5c-0.6-0.3-1.1-0.5-1.3-0.7c-0.2-0.2-0.4-0.5-0.6-0.8
	c-0.1-0.3-0.2-0.7-0.2-1.1c0-0.4,0.1-0.7,0.2-1c0.1-0.3,0.2-0.6,0.4-0.8c0.1-0.2,0.3-0.3,0.5-0.4c0.2-0.1,0.5-0.2,0.7-0.2
	c0.4,0,0.7,0.1,1,0.3c0.3,0.2,0.5,0.4,0.7,0.8c0.1,0.3,0.2,0.8,0.3,1.3l-0.8,0.2c0-0.4-0.1-0.8-0.3-1c-0.2-0.2-0.4-0.4-0.8-0.4
	c-0.4,0-0.7,0.1-0.8,0.3c-0.2,0.2-0.3,0.5-0.3,0.8c0,0.2,0,0.3,0.1,0.5c0.1,0.2,0.2,0.3,0.3,0.4c0.1,0.1,0.3,0.2,0.8,0.4
	c0.6,0.3,1,0.5,1.3,0.7c0.2,0.2,0.4,0.4,0.6,0.7c0.1,0.3,0.2,0.7,0.2,1.2c0,0.5-0.1,0.9-0.2,1.3c-0.2,0.4-0.4,0.7-0.7,1
	c-0.3,0.2-0.7,0.3-1.1,0.3c-0.7,0-1.2-0.2-1.5-0.7C464.9,648.9,464.6,648.2,464.6,647.3L464.6,647.3z"/>
<path class="st3" d="M473.2,647.1l0.9,0.2c-0.1,0.9-0.4,1.5-0.8,2c-0.4,0.5-0.9,0.7-1.4,0.7c-0.7,0-1.3-0.4-1.8-1.1
	c-0.4-0.8-0.6-1.8-0.6-3.2c0-1.4,0.2-2.5,0.7-3.3c0.4-0.8,1-1.2,1.7-1.2c0.7,0,1.2,0.4,1.7,1.1c0.4,0.8,0.6,1.8,0.6,3.2
	c0,0.1,0,0.2,0,0.4h-3.8c0,0.9,0.2,1.6,0.5,2.1c0.3,0.5,0.6,0.7,1.1,0.7c0.3,0,0.6-0.1,0.8-0.4C472.9,648.2,473.1,647.7,473.2,647.1
	L473.2,647.1z M470.4,644.9h2.8c0-0.7-0.1-1.2-0.3-1.6c-0.3-0.5-0.6-0.8-1.1-0.8c-0.4,0-0.7,0.2-1,0.7
	C470.6,643.5,470.4,644.1,470.4,644.9L470.4,644.9z"/>
<path class="st3" d="M475.2,649.8v-8.4h0.8v1.3c0.2-0.6,0.4-1,0.5-1.2c0.2-0.2,0.3-0.3,0.5-0.3c0.3,0,0.6,0.2,0.9,0.5l-0.3,1.3
	c-0.2-0.2-0.4-0.3-0.6-0.3c-0.2,0-0.4,0.1-0.5,0.3c-0.1,0.2-0.3,0.4-0.3,0.8c-0.1,0.5-0.1,1.1-0.1,1.7v4.4H475.2L475.2,649.8z"/>
<path class="st3" d="M479.8,649.8l-1.9-8.4h0.9l1.1,5c0.1,0.5,0.2,1.1,0.3,1.7c0.1-0.4,0.2-1,0.3-1.6l1.1-5.1h0.9l-1.9,8.4H479.8
	L479.8,649.8z"/>
<path class="st3" d="M483.3,639.9v-1.6h0.9v1.6H483.3L483.3,639.9z M483.3,649.8v-8.4h0.9v8.4H483.3L483.3,649.8z"/>
<path class="st3" d="M485,649.8v-1.2l3.2-6.1c-0.4,0-0.7,0-1,0h-2.1v-1.1h4.1v0.9l-2.7,5.3l-0.5,1c0.4,0,0.7-0.1,1.1-0.1h2.3v1.2
	H485L485,649.8z"/>
<path class="st3" d="M490.3,639.9v-1.6h0.9v1.6H490.3L490.3,639.9z M490.3,649.8v-8.4h0.9v8.4H490.3L490.3,649.8z"/>
<path class="st3" d="M492.1,645.7c0-1.5,0.3-2.7,0.8-3.4c0.4-0.6,1-0.9,1.6-0.9c0.7,0,1.3,0.4,1.7,1.1c0.4,0.8,0.7,1.8,0.7,3.1
	c0,1.1-0.1,1.9-0.3,2.5c-0.2,0.6-0.5,1.1-0.8,1.4c-0.4,0.3-0.8,0.5-1.2,0.5c-0.7,0-1.3-0.4-1.7-1.1
	C492.3,648.2,492.1,647.1,492.1,645.7L492.1,645.7z M493,645.7c0,1.1,0.1,1.9,0.4,2.4c0.3,0.5,0.6,0.8,1.1,0.8
	c0.4,0,0.8-0.3,1.1-0.8c0.3-0.5,0.4-1.4,0.4-2.5c0-1-0.1-1.8-0.4-2.4c-0.3-0.5-0.6-0.8-1.1-0.8c-0.4,0-0.8,0.3-1.1,0.8
	C493.1,643.8,493,644.6,493,645.7L493,645.7z"/>
<path class="st3" d="M503.8,649.8v-1.2c-0.4,0.9-0.9,1.4-1.6,1.4c-0.3,0-0.6-0.1-0.8-0.3c-0.3-0.2-0.4-0.4-0.6-0.7
	c-0.1-0.3-0.2-0.6-0.3-1.1c0-0.3-0.1-0.7-0.1-1.3v-5.2h0.9v4.6c0,0.7,0,1.2,0.1,1.5c0.1,0.4,0.2,0.7,0.3,0.9
	c0.2,0.2,0.4,0.3,0.6,0.3c0.3,0,0.5-0.1,0.7-0.3c0.2-0.2,0.4-0.5,0.5-0.9c0.1-0.4,0.1-0.9,0.1-1.6v-4.5h0.9v8.4H503.8L503.8,649.8z"
	/>
<path class="st3" d="M505.9,649.8v-8.4h0.8v1.3c0.2-0.6,0.4-1,0.5-1.2c0.2-0.2,0.3-0.3,0.5-0.3c0.3,0,0.6,0.2,0.9,0.5l-0.3,1.3
	c-0.2-0.2-0.4-0.3-0.6-0.3c-0.2,0-0.4,0.1-0.5,0.3c-0.1,0.2-0.3,0.4-0.3,0.8c-0.1,0.5-0.1,1.1-0.1,1.7v4.4H505.9L505.9,649.8z"/>
<path class="st3" d="M509,650.5l0.8,0.2c0,0.4,0.1,0.7,0.3,0.9c0.2,0.3,0.5,0.4,0.9,0.4c0.4,0,0.7-0.1,0.9-0.4
	c0.2-0.3,0.4-0.6,0.4-1.1c0-0.3,0.1-0.9,0.1-1.8c-0.4,0.7-0.8,1.1-1.4,1.1c-0.7,0-1.2-0.4-1.6-1.2c-0.4-0.8-0.6-1.8-0.6-3
	c0-0.8,0.1-1.5,0.3-2.2c0.2-0.7,0.4-1.2,0.8-1.6c0.3-0.4,0.7-0.5,1.2-0.5c0.6,0,1.1,0.4,1.5,1.2v-1h0.8v7.2c0,1.3-0.1,2.2-0.2,2.8
	c-0.2,0.5-0.4,1-0.8,1.3c-0.3,0.3-0.8,0.5-1.3,0.5c-0.6,0-1.1-0.2-1.5-0.7C509.2,652.1,509,651.4,509,650.5L509,650.5z M509.7,645.5
	c0,1.1,0.1,1.9,0.4,2.4c0.3,0.5,0.6,0.8,1,0.8c0.4,0,0.7-0.3,1-0.8c0.3-0.5,0.4-1.3,0.4-2.4c0-1-0.1-1.8-0.4-2.3
	c-0.3-0.5-0.6-0.8-1-0.8c-0.4,0-0.7,0.3-1,0.8C509.9,643.7,509.7,644.5,509.7,645.5L509.7,645.5z"/>
<path class="st3" d="M518,647.1l0.9,0.2c-0.1,0.9-0.4,1.5-0.8,2c-0.4,0.5-0.9,0.7-1.4,0.7c-0.7,0-1.3-0.4-1.8-1.1
	c-0.4-0.8-0.6-1.8-0.6-3.2c0-1.4,0.2-2.5,0.7-3.3c0.4-0.8,1-1.2,1.7-1.2c0.7,0,1.2,0.4,1.7,1.1c0.4,0.8,0.6,1.8,0.6,3.2
	c0,0.1,0,0.2,0,0.4h-3.8c0,0.9,0.2,1.6,0.5,2.1c0.3,0.5,0.6,0.7,1.1,0.7c0.3,0,0.6-0.1,0.8-0.4C517.7,648.2,517.9,647.7,518,647.1
	L518,647.1z M515.2,644.9h2.8c0-0.7-0.1-1.2-0.3-1.6c-0.3-0.5-0.6-0.8-1.1-0.8c-0.4,0-0.7,0.2-1,0.7
	C515.4,643.5,515.3,644.1,515.2,644.9L515.2,644.9z"/>
<path class="st3" d="M520,649.8v-8.4h0.8v1.2c0.4-0.9,0.9-1.4,1.6-1.4c0.3,0,0.6,0.1,0.8,0.3c0.3,0.2,0.4,0.4,0.6,0.7
	c0.1,0.3,0.2,0.6,0.3,1c0,0.3,0,0.7,0,1.4v5.1h-0.9v-5.1c0-0.6,0-1-0.1-1.3c-0.1-0.3-0.2-0.5-0.4-0.7c-0.2-0.2-0.4-0.3-0.6-0.3
	c-0.4,0-0.7,0.2-0.9,0.6c-0.3,0.4-0.4,1.1-0.4,2.2v4.6H520L520,649.8z"/>
<path class="st3" d="M527.3,648.6l0.1,1.3c-0.2,0.1-0.5,0.1-0.6,0.1c-0.3,0-0.5-0.1-0.7-0.2c-0.2-0.2-0.3-0.4-0.4-0.6
	c-0.1-0.3-0.1-0.8-0.1-1.7v-4.8h-0.6v-1.1h0.6v-2.1l0.9-0.9v2.9h0.9v1.1h-0.9v4.9c0,0.4,0,0.7,0,0.8c0,0.1,0.1,0.2,0.1,0.3
	c0.1,0.1,0.2,0.1,0.3,0.1C527,648.6,527.1,648.6,527.3,648.6L527.3,648.6z"/>
<path class="st3" d="M531.6,647.1l0.9,0.2c-0.1,0.9-0.4,1.5-0.8,2c-0.4,0.5-0.9,0.7-1.4,0.7c-0.7,0-1.3-0.4-1.8-1.1
	c-0.4-0.8-0.6-1.8-0.6-3.2c0-1.4,0.2-2.5,0.7-3.3c0.4-0.8,1-1.2,1.7-1.2c0.7,0,1.2,0.4,1.7,1.1c0.4,0.8,0.6,1.8,0.6,3.2
	c0,0.1,0,0.2,0,0.4h-3.8c0,0.9,0.2,1.6,0.5,2.1c0.3,0.5,0.6,0.7,1.1,0.7c0.3,0,0.6-0.1,0.8-0.4C531.2,648.2,531.4,647.7,531.6,647.1
	L531.6,647.1z M528.8,644.9h2.8c0-0.7-0.1-1.2-0.3-1.6c-0.3-0.5-0.6-0.8-1.1-0.8c-0.4,0-0.7,0.2-1,0.7
	C528.9,643.5,528.8,644.1,528.8,644.9L528.8,644.9z"/>
<path class="st3" d="M539.5,649.8v-1.1c-0.3,0.8-0.8,1.2-1.4,1.2c-0.4,0-0.8-0.2-1.1-0.6c-0.3-0.4-0.6-0.9-0.8-1.5
	c-0.2-0.7-0.3-1.4-0.3-2.3c0-0.8,0.1-1.6,0.3-2.3c0.2-0.7,0.4-1.2,0.8-1.6c0.3-0.4,0.7-0.5,1.1-0.5c0.3,0,0.6,0.1,0.8,0.3
	c0.2,0.2,0.4,0.5,0.6,0.8v-4.1h0.8v11.6H539.5L539.5,649.8z M536.8,645.7c0,1.1,0.1,1.9,0.4,2.4c0.3,0.5,0.6,0.8,1,0.8
	c0.4,0,0.7-0.3,1-0.8c0.3-0.5,0.4-1.3,0.4-2.3c0-1.1-0.1-2-0.4-2.5c-0.3-0.5-0.6-0.8-1-0.8c-0.4,0-0.7,0.3-1,0.8
	C536.9,643.7,536.8,644.6,536.8,645.7L536.8,645.7z"/>
<path class="st3" d="M541.6,639.9v-1.6h0.9v1.6H541.6L541.6,639.9z M541.6,649.8v-8.4h0.9v8.4H541.6L541.6,649.8z"/>
<path class="st3" d="M549.9,647.1l0.9,0.2c-0.1,0.9-0.4,1.5-0.8,2c-0.4,0.5-0.9,0.7-1.4,0.7c-0.7,0-1.3-0.4-1.8-1.1
	c-0.4-0.8-0.6-1.8-0.6-3.2c0-1.4,0.2-2.5,0.7-3.3c0.4-0.8,1-1.2,1.7-1.2c0.7,0,1.2,0.4,1.7,1.1c0.4,0.8,0.6,1.8,0.6,3.2
	c0,0.1,0,0.2,0,0.4h-3.8c0,0.9,0.2,1.6,0.5,2.1c0.3,0.5,0.6,0.7,1.1,0.7c0.3,0,0.6-0.1,0.8-0.4C549.6,648.2,549.8,647.7,549.9,647.1
	L549.9,647.1z M547.1,644.9h2.8c0-0.7-0.1-1.2-0.3-1.6c-0.3-0.5-0.6-0.8-1.1-0.8c-0.4,0-0.7,0.2-1,0.7
	C547.3,643.5,547.2,644.1,547.1,644.9L547.1,644.9z"/>
<path class="st3" d="M551.9,649.8v-8.4h0.8v1.2c0.2-0.4,0.4-0.7,0.6-1c0.3-0.3,0.6-0.4,0.9-0.4c0.4,0,0.7,0.1,0.9,0.4
	c0.2,0.3,0.4,0.6,0.5,1.1c0.4-1,0.9-1.5,1.6-1.5c0.5,0,0.9,0.2,1.2,0.7c0.3,0.5,0.4,1.2,0.4,2.1v5.7h-0.8v-5.3c0-0.6,0-1-0.1-1.2
	c-0.1-0.2-0.2-0.5-0.3-0.6c-0.1-0.2-0.3-0.2-0.5-0.2c-0.4,0-0.6,0.2-0.9,0.6c-0.2,0.4-0.4,1-0.4,1.9v4.9h-0.9v-5.4
	c0-0.6-0.1-1.1-0.2-1.4c-0.1-0.3-0.4-0.5-0.7-0.5c-0.2,0-0.5,0.1-0.7,0.3c-0.2,0.2-0.4,0.5-0.4,0.9c-0.1,0.4-0.1,1-0.1,1.8v4.3
	H551.9L551.9,649.8z"/>
<path class="st3" d="M563.4,647.1l0.9,0.2c-0.1,0.9-0.4,1.5-0.8,2c-0.4,0.5-0.9,0.7-1.4,0.7c-0.7,0-1.3-0.4-1.8-1.1
	c-0.4-0.8-0.6-1.8-0.6-3.2c0-1.4,0.2-2.5,0.7-3.3c0.4-0.8,1-1.2,1.7-1.2c0.7,0,1.2,0.4,1.7,1.1c0.4,0.8,0.6,1.8,0.6,3.2
	c0,0.1,0,0.2,0,0.4h-3.8c0,0.9,0.2,1.6,0.5,2.1c0.3,0.5,0.6,0.7,1.1,0.7c0.3,0,0.6-0.1,0.8-0.4C563.1,648.2,563.3,647.7,563.4,647.1
	L563.4,647.1z M560.6,644.9h2.8c0-0.7-0.1-1.2-0.3-1.6c-0.3-0.5-0.6-0.8-1.1-0.8c-0.4,0-0.7,0.2-1,0.7
	C560.8,643.5,560.7,644.1,560.6,644.9L560.6,644.9z"/>
<path class="st3" d="M565.4,649.8v-8.4h0.8v1.3c0.2-0.6,0.4-1,0.5-1.2c0.2-0.2,0.3-0.3,0.5-0.3c0.3,0,0.6,0.2,0.9,0.5l-0.3,1.3
	c-0.2-0.2-0.4-0.3-0.6-0.3c-0.2,0-0.4,0.1-0.5,0.3c-0.1,0.2-0.3,0.4-0.3,0.8c-0.1,0.5-0.1,1.1-0.1,1.7v4.4H565.4L565.4,649.8z"/>
<path class="st3" d="M568.5,650.5l0.8,0.2c0,0.4,0.1,0.7,0.3,0.9c0.2,0.3,0.5,0.4,0.9,0.4c0.4,0,0.7-0.1,0.9-0.4
	c0.2-0.3,0.4-0.6,0.4-1.1c0-0.3,0.1-0.9,0.1-1.8c-0.4,0.7-0.8,1.1-1.4,1.1c-0.7,0-1.2-0.4-1.6-1.2c-0.4-0.8-0.6-1.8-0.6-3
	c0-0.8,0.1-1.5,0.3-2.2c0.2-0.7,0.4-1.2,0.8-1.6c0.3-0.4,0.7-0.5,1.2-0.5c0.6,0,1.1,0.4,1.5,1.2v-1h0.8v7.2c0,1.3-0.1,2.2-0.2,2.8
	c-0.2,0.5-0.4,1-0.8,1.3c-0.3,0.3-0.8,0.5-1.3,0.5c-0.6,0-1.1-0.2-1.5-0.7C568.6,652.1,568.5,651.4,568.5,650.5L568.5,650.5z
	 M569.2,645.5c0,1.1,0.1,1.9,0.4,2.4c0.3,0.5,0.6,0.8,1,0.8c0.4,0,0.7-0.3,1-0.8c0.3-0.5,0.4-1.3,0.4-2.4c0-1-0.1-1.8-0.4-2.3
	c-0.3-0.5-0.6-0.8-1-0.8c-0.4,0-0.7,0.3-1,0.8C569.3,643.7,569.2,644.5,569.2,645.5L569.2,645.5z"/>
<path class="st3" d="M577.5,647.1l0.9,0.2c-0.1,0.9-0.4,1.5-0.8,2c-0.4,0.5-0.9,0.7-1.4,0.7c-0.7,0-1.3-0.4-1.8-1.1
	c-0.4-0.8-0.6-1.8-0.6-3.2c0-1.4,0.2-2.5,0.7-3.3c0.4-0.8,1-1.2,1.7-1.2c0.7,0,1.2,0.4,1.7,1.1c0.4,0.8,0.6,1.8,0.6,3.2
	c0,0.1,0,0.2,0,0.4h-3.8c0,0.9,0.2,1.6,0.5,2.1c0.3,0.5,0.6,0.7,1.1,0.7c0.3,0,0.6-0.1,0.8-0.4C577.2,648.2,577.3,647.7,577.5,647.1
	L577.5,647.1z M574.7,644.9h2.8c0-0.7-0.1-1.2-0.3-1.6c-0.3-0.5-0.6-0.8-1.1-0.8c-0.4,0-0.7,0.2-1,0.7
	C574.9,643.5,574.7,644.1,574.7,644.9L574.7,644.9z"/>
<path class="st3" d="M579.4,649.8v-8.4h0.8v1.2c0.4-0.9,0.9-1.4,1.6-1.4c0.3,0,0.6,0.1,0.8,0.3c0.3,0.2,0.4,0.4,0.6,0.7
	c0.1,0.3,0.2,0.6,0.3,1c0,0.3,0,0.7,0,1.4v5.1h-0.9v-5.1c0-0.6,0-1-0.1-1.3c-0.1-0.3-0.2-0.5-0.4-0.7c-0.2-0.2-0.4-0.3-0.6-0.3
	c-0.4,0-0.7,0.2-0.9,0.6c-0.3,0.4-0.4,1.1-0.4,2.2v4.6H579.4L579.4,649.8z"/>
<path class="st3" d="M584.4,649.8v-1.2l3.2-6.1c-0.4,0-0.7,0-1,0h-2.1v-1.1h4.1v0.9l-2.7,5.3l-0.5,1c0.4,0,0.7-0.1,1.1-0.1h2.3v1.2
	H584.4L584.4,649.8z"/>
<path class="st3" d="M593,648.8c-0.3,0.4-0.6,0.8-0.9,0.9c-0.3,0.2-0.6,0.3-0.9,0.3c-0.6,0-1-0.2-1.3-0.7c-0.3-0.4-0.4-1-0.4-1.7
	c0-0.4,0.1-0.8,0.2-1.1c0.1-0.3,0.3-0.6,0.4-0.8c0.2-0.2,0.4-0.4,0.6-0.5c0.2-0.1,0.4-0.1,0.8-0.2c0.7-0.1,1.2-0.3,1.5-0.5
	c0-0.2,0-0.3,0-0.4c0-0.6-0.1-1-0.2-1.2c-0.2-0.3-0.5-0.5-1-0.5c-0.4,0-0.7,0.1-0.9,0.3c-0.2,0.2-0.3,0.6-0.4,1.2l-0.8-0.2
	c0.1-0.6,0.2-1.1,0.4-1.4c0.2-0.4,0.4-0.6,0.8-0.8c0.3-0.2,0.7-0.3,1.1-0.3c0.4,0,0.8,0.1,1,0.3c0.3,0.2,0.5,0.4,0.6,0.6
	c0.1,0.3,0.2,0.6,0.3,1c0,0.2,0,0.7,0,1.3v1.9c0,1.3,0,2.2,0.1,2.5c0,0.3,0.1,0.7,0.2,1h-0.9C593.1,649.6,593,649.2,593,648.8
	L593,648.8z M592.9,645.6c-0.3,0.2-0.8,0.4-1.4,0.5c-0.4,0.1-0.6,0.2-0.7,0.3c-0.1,0.1-0.3,0.3-0.3,0.5c-0.1,0.2-0.1,0.4-0.1,0.7
	c0,0.4,0.1,0.7,0.3,0.9c0.2,0.3,0.4,0.4,0.8,0.4c0.3,0,0.6-0.1,0.9-0.4c0.3-0.2,0.4-0.6,0.6-1c0.1-0.3,0.1-0.8,0.1-1.4V645.6
	L592.9,645.6z"/>
<path class="st3" d="M595.7,653.2h-0.6c0.9-2.5,1.4-5,1.4-7.6c0-1-0.1-2-0.2-2.9c-0.1-0.8-0.3-1.5-0.5-2.3c-0.1-0.5-0.4-1.3-0.8-2.4
	h0.6c0.6,1.3,1,2.6,1.3,4c0.2,1.1,0.4,2.3,0.4,3.6c0,1.4-0.2,2.8-0.5,4.1C596.5,651.1,596.1,652.3,595.7,653.2L595.7,653.2z"/>
<polygon class="st3" points="430.4,686.5 430.4,685.1 433,685.1 433,686.5 430.4,686.5 "/>
<path class="st3" d="M438.7,690l-2.7-11.6h1l1.8,8.4c0.1,0.7,0.3,1.3,0.4,1.9c0.1-0.6,0.2-1.3,0.4-1.9l1.9-8.4h0.9l-2.7,11.6H438.7
	L438.7,690z"/>
<polygon class="st3" points="443.2,690 443.2,678.4 448.3,678.4 448.3,679.8 444.2,679.8 444.2,683.3 448,683.3 448,684.7 
	444.2,684.7 444.2,688.6 448.4,688.6 448.4,690 443.2,690 "/>
<polygon class="st3" points="449.9,690 449.9,678.4 450.8,678.4 450.8,690 449.9,690 "/>
<path class="st3" d="M457.4,685.9l0.9,0.4c-0.2,1.3-0.5,2.2-1,2.9c-0.5,0.7-1.1,1-1.8,1c-0.8,0-1.4-0.3-1.8-0.8
	c-0.5-0.5-0.8-1.2-1.1-2.2c-0.2-1-0.4-2-0.4-3.1c0-1.2,0.1-2.3,0.4-3.1c0.3-0.9,0.7-1.6,1.2-2c0.5-0.5,1.1-0.7,1.7-0.7
	c0.7,0,1.3,0.3,1.8,0.9c0.5,0.6,0.8,1.4,1,2.5l-0.9,0.4c-0.2-0.8-0.4-1.5-0.7-1.8c-0.3-0.4-0.7-0.6-1.2-0.6c-0.5,0-1,0.2-1.3,0.6
	c-0.4,0.4-0.6,1-0.8,1.7c-0.1,0.7-0.2,1.5-0.2,2.2c0,1,0.1,1.8,0.3,2.6c0.2,0.7,0.4,1.3,0.8,1.6c0.4,0.4,0.8,0.5,1.2,0.5
	c0.5,0,1-0.2,1.3-0.7C457,687.7,457.3,686.9,457.4,685.9L457.4,685.9z"/>
<path class="st3" d="M459.2,684.4c0-1.9,0.3-3.4,0.9-4.5c0.6-1.1,1.4-1.6,2.4-1.6c0.6,0,1.2,0.3,1.7,0.8c0.5,0.5,0.9,1.2,1.2,2.1
	s0.4,1.9,0.4,3.1c0,1.2-0.1,2.2-0.4,3.1c-0.3,0.9-0.7,1.6-1.2,2.1c-0.5,0.5-1.1,0.7-1.7,0.7c-0.7,0-1.2-0.3-1.8-0.8
	c-0.5-0.5-0.9-1.2-1.2-2.2C459.3,686.3,459.2,685.4,459.2,684.4L459.2,684.4z M460.1,684.4c0,1.4,0.2,2.5,0.7,3.3
	c0.5,0.8,1,1.2,1.7,1.2c0.7,0,1.3-0.4,1.7-1.2c0.4-0.8,0.7-2,0.7-3.4c0-0.9-0.1-1.8-0.3-2.5c-0.2-0.7-0.5-1.2-0.8-1.6
	c-0.4-0.4-0.8-0.6-1.2-0.6c-0.7,0-1.2,0.4-1.7,1.1C460.3,681.4,460.1,682.7,460.1,684.4L460.1,684.4z"/>
<polygon class="st3" points="467,690 467,678.4 467.9,678.4 467.9,688.6 471.3,688.6 471.3,690 467,690 "/>
<polygon class="st3" points="472.6,690 472.6,678.4 473.5,678.4 473.5,690 472.6,690 "/>
<path class="st3" d="M477.8,690v-11.6h1.4l1.6,8.2c0.2,0.8,0.3,1.3,0.3,1.7c0.1-0.4,0.2-1,0.4-1.9l1.7-8h1.2V690h-0.9v-9.7l-2,9.7
	h-0.8l-2-9.8v9.8H477.8L477.8,690z"/>
<polygon class="st3" points="485.9,690 485.9,678.4 491,678.4 491,679.8 486.8,679.8 486.8,683.3 490.7,683.3 490.7,684.7 
	486.8,684.7 486.8,688.6 491.1,688.6 491.1,690 485.9,690 "/>
<path class="st3" d="M492.4,690v-11.6h3.1c0.6,0,1.1,0.1,1.4,0.3c0.3,0.2,0.6,0.6,0.8,1.1c0.2,0.5,0.3,1.1,0.3,1.7
	c0,0.8-0.2,1.5-0.5,2.1c-0.3,0.6-0.8,0.9-1.5,1.1c0.2,0.2,0.4,0.4,0.6,0.6c0.3,0.4,0.5,0.9,0.8,1.5l1.2,3.1h-1.2l-0.9-2.4
	c-0.3-0.7-0.5-1.2-0.7-1.6c-0.2-0.4-0.3-0.6-0.5-0.8c-0.1-0.1-0.3-0.3-0.4-0.3c-0.1,0-0.3-0.1-0.5-0.1h-1.1v5.1H492.4L492.4,690z
	 M493.3,683.5h2c0.4,0,0.8-0.1,1-0.2c0.2-0.1,0.4-0.4,0.5-0.7c0.1-0.3,0.2-0.7,0.2-1c0-0.5-0.1-1-0.4-1.3c-0.2-0.4-0.6-0.5-1.1-0.5
	h-2.2V683.5L493.3,683.5z"/>
<path class="st3" d="M504.4,685.9l0.9,0.4c-0.2,1.3-0.5,2.2-1,2.9c-0.5,0.7-1.1,1-1.8,1c-0.8,0-1.4-0.3-1.8-0.8
	c-0.5-0.5-0.8-1.2-1.1-2.2c-0.2-1-0.4-2-0.4-3.1c0-1.2,0.1-2.3,0.4-3.1c0.3-0.9,0.7-1.6,1.2-2c0.5-0.5,1.1-0.7,1.7-0.7
	c0.7,0,1.3,0.3,1.8,0.9c0.5,0.6,0.8,1.4,1,2.5l-0.9,0.4c-0.2-0.8-0.4-1.5-0.7-1.8c-0.3-0.4-0.7-0.6-1.2-0.6c-0.5,0-1,0.2-1.3,0.6
	c-0.4,0.4-0.6,1-0.8,1.7c-0.1,0.7-0.2,1.5-0.2,2.2c0,1,0.1,1.8,0.3,2.6c0.2,0.7,0.4,1.3,0.8,1.6c0.4,0.4,0.8,0.5,1.2,0.5
	c0.5,0,1-0.2,1.3-0.7C504,687.7,504.2,686.9,504.4,685.9L504.4,685.9z"/>
<polygon class="st3" points="506.6,690 506.6,678.4 507.5,678.4 507.5,690 506.6,690 "/>
<path class="st3" d="M511.1,690l2.7-11.6h1l2.8,11.6h-1.1l-0.8-3.5h-2.9L512,690H511.1L511.1,690z M513.1,685.3h2.4l-0.7-3.2
	c-0.2-1-0.4-1.8-0.5-2.4c-0.1,0.7-0.2,1.5-0.4,2.2L513.1,685.3L513.1,685.3z"/>
<path class="st3" d="M522.9,678.4h0.9v6.7c0,1.2-0.1,2.1-0.2,2.8c-0.2,0.7-0.4,1.2-0.9,1.7c-0.4,0.4-1,0.6-1.6,0.6
	c-0.7,0-1.2-0.2-1.6-0.6c-0.4-0.4-0.7-0.9-0.9-1.6c-0.2-0.7-0.3-1.7-0.3-2.9v-6.7h0.9v6.7c0,1,0.1,1.7,0.2,2.2
	c0.1,0.5,0.3,0.8,0.6,1.1c0.3,0.3,0.6,0.4,1,0.4c0.7,0,1.2-0.3,1.4-0.8c0.3-0.5,0.4-1.5,0.4-2.9V678.4L522.9,678.4z"/>
<polygon class="st3" points="527.1,690 527.1,679.8 524.8,679.8 524.8,678.4 530.3,678.4 530.3,679.8 528,679.8 528,690 527.1,690 
	"/>
<path class="st3" d="M530.8,684.4c0-1.9,0.3-3.4,0.9-4.5c0.6-1.1,1.4-1.6,2.4-1.6c0.6,0,1.2,0.3,1.7,0.8c0.5,0.5,0.9,1.2,1.2,2.1
	c0.3,0.9,0.4,1.9,0.4,3.1c0,1.2-0.1,2.2-0.4,3.1c-0.3,0.9-0.7,1.6-1.2,2.1c-0.5,0.5-1.1,0.7-1.7,0.7c-0.7,0-1.2-0.3-1.8-0.8
	c-0.5-0.5-0.9-1.2-1.2-2.2C531,686.3,530.8,685.4,530.8,684.4L530.8,684.4z M531.8,684.4c0,1.4,0.2,2.5,0.7,3.3
	c0.5,0.8,1,1.2,1.7,1.2c0.7,0,1.3-0.4,1.7-1.2c0.4-0.8,0.7-2,0.7-3.4c0-0.9-0.1-1.8-0.3-2.5c-0.2-0.7-0.5-1.2-0.8-1.6
	c-0.4-0.4-0.8-0.6-1.2-0.6c-0.7,0-1.2,0.4-1.7,1.1C532,681.4,531.8,682.7,531.8,684.4L531.8,684.4z"/>
<path class="st3" d="M538.7,690v-11.6h3.1c0.6,0,1.1,0.1,1.4,0.3c0.3,0.2,0.6,0.6,0.8,1.1c0.2,0.5,0.3,1.1,0.3,1.7
	c0,0.8-0.2,1.5-0.5,2.1c-0.3,0.6-0.8,0.9-1.5,1.1c0.2,0.2,0.4,0.4,0.6,0.6c0.3,0.4,0.5,0.9,0.8,1.5l1.2,3.1h-1.2l-0.9-2.4
	c-0.3-0.7-0.5-1.2-0.7-1.6c-0.2-0.4-0.3-0.6-0.5-0.8c-0.1-0.1-0.3-0.3-0.4-0.3c-0.1,0-0.3-0.1-0.5-0.1h-1.1v5.1H538.7L538.7,690z
	 M539.6,683.5h2c0.4,0,0.8-0.1,1-0.2c0.2-0.1,0.4-0.4,0.5-0.7c0.1-0.3,0.2-0.7,0.2-1c0-0.5-0.1-1-0.4-1.3c-0.2-0.4-0.6-0.5-1.1-0.5
	h-2.2V683.5L539.6,683.5z"/>
<polygon class="st3" points="545.8,690 545.8,678.4 546.8,678.4 546.8,690 545.8,690 "/>
<path class="st3" d="M547.8,690v-1.4l3.6-7.4c0.3-0.5,0.5-1,0.7-1.4h-3.9v-1.4h5v1.4l-3.9,8l-0.4,0.8h4.4v1.4H547.8L547.8,690z"/>
<path class="st3" d="M553.8,690v-1.4l3.6-7.4c0.3-0.5,0.5-1,0.7-1.4h-3.9v-1.4h5v1.4l-3.9,8l-0.4,0.8h4.4v1.4H553.8L553.8,690z"/>
<path class="st3" d="M559.5,690l2.7-11.6h1L566,690h-1l-0.8-3.5h-2.9l-0.8,3.5H559.5L559.5,690z M561.5,685.3h2.4l-0.7-3.2
	c-0.2-1-0.4-1.8-0.5-2.4c-0.1,0.7-0.2,1.5-0.4,2.2L561.5,685.3L561.5,685.3z"/>
<polygon class="st3" points="567.8,690 567.8,679.8 565.5,679.8 565.5,678.4 571,678.4 571,679.8 568.7,679.8 568.7,690 567.8,690 
	"/>
<polygon class="st3" points="572.1,690 572.1,678.4 573,678.4 573,690 572.1,690 "/>
<path class="st3" d="M430.4,703.8c0-1.5,0.3-2.7,0.8-3.4c0.4-0.6,1-0.9,1.6-0.9c0.7,0,1.3,0.4,1.7,1.1c0.4,0.8,0.7,1.8,0.7,3.1
	c0,1.1-0.1,1.9-0.3,2.5c-0.2,0.6-0.5,1.1-0.8,1.4c-0.4,0.3-0.8,0.5-1.2,0.5c-0.7,0-1.3-0.4-1.7-1.1
	C430.6,706.3,430.4,705.3,430.4,703.8L430.4,703.8z M431.3,703.8c0,1.1,0.1,1.9,0.4,2.4c0.3,0.5,0.6,0.8,1.1,0.8
	c0.4,0,0.8-0.3,1.1-0.8c0.3-0.5,0.4-1.4,0.4-2.5c0-1-0.1-1.8-0.4-2.4c-0.3-0.5-0.6-0.8-1.1-0.8c-0.4,0-0.8,0.3-1.1,0.8
	C431.4,702,431.3,702.8,431.3,703.8L431.3,703.8z"/>
<path class="st3" d="M436.1,708v-8.4h0.8v1.3c0.2-0.6,0.4-1,0.5-1.2c0.2-0.2,0.3-0.3,0.5-0.3c0.3,0,0.6,0.2,0.9,0.5l-0.3,1.3
	c-0.2-0.2-0.4-0.3-0.6-0.3c-0.2,0-0.4,0.1-0.5,0.3c-0.1,0.2-0.3,0.4-0.3,0.8c-0.1,0.5-0.1,1.1-0.1,1.7v4.4H436.1L436.1,708z"/>
<path class="st3" d="M442.6,707c-0.3,0.4-0.6,0.8-0.9,0.9c-0.3,0.2-0.6,0.3-0.9,0.3c-0.6,0-1-0.2-1.3-0.7c-0.3-0.4-0.4-1-0.4-1.7
	c0-0.4,0.1-0.8,0.2-1.1c0.1-0.3,0.3-0.6,0.4-0.8c0.2-0.2,0.4-0.4,0.6-0.5c0.2-0.1,0.4-0.1,0.8-0.2c0.7-0.1,1.2-0.3,1.5-0.5
	c0-0.2,0-0.3,0-0.4c0-0.6-0.1-1-0.2-1.2c-0.2-0.3-0.5-0.5-1-0.5c-0.4,0-0.7,0.1-0.9,0.3c-0.2,0.2-0.3,0.6-0.4,1.2l-0.8-0.2
	c0.1-0.6,0.2-1.1,0.4-1.4c0.2-0.4,0.4-0.6,0.8-0.8c0.3-0.2,0.7-0.3,1.1-0.3c0.4,0,0.8,0.1,1,0.3c0.3,0.2,0.5,0.4,0.6,0.6
	c0.1,0.3,0.2,0.6,0.3,1c0,0.2,0,0.7,0,1.3v1.9c0,1.3,0,2.2,0.1,2.5c0,0.3,0.1,0.7,0.2,1h-0.9C442.7,707.7,442.7,707.4,442.6,707
	L442.6,707z M442.6,703.8c-0.3,0.2-0.8,0.4-1.4,0.5c-0.4,0.1-0.6,0.2-0.7,0.3c-0.1,0.1-0.3,0.3-0.3,0.5c-0.1,0.2-0.1,0.4-0.1,0.7
	c0,0.4,0.1,0.7,0.3,0.9c0.2,0.3,0.4,0.4,0.8,0.4c0.3,0,0.6-0.1,0.9-0.4c0.3-0.2,0.4-0.6,0.6-1c0.1-0.3,0.1-0.8,0.1-1.4V703.8
	L442.6,703.8z"/>
<path class="st3" d="M444.7,708v-8.4h0.8v1.3c0.2-0.6,0.4-1,0.5-1.2c0.2-0.2,0.3-0.3,0.5-0.3c0.3,0,0.6,0.2,0.9,0.5l-0.3,1.3
	c-0.2-0.2-0.4-0.3-0.6-0.3c-0.2,0-0.4,0.1-0.5,0.3c-0.1,0.2-0.3,0.4-0.3,0.8c-0.1,0.5-0.1,1.1-0.1,1.7v4.4H444.7L444.7,708z"/>
<path class="st3" d="M448,698.1v-1.6h0.9v1.6H448L448,698.1z M448,708v-8.4h0.9v8.4H448L448,708z"/>
<path class="st3" d="M449.8,703.8c0-1.5,0.3-2.7,0.8-3.4c0.4-0.6,1-0.9,1.6-0.9c0.7,0,1.3,0.4,1.7,1.1c0.4,0.8,0.7,1.8,0.7,3.1
	c0,1.1-0.1,1.9-0.3,2.5c-0.2,0.6-0.5,1.1-0.8,1.4c-0.4,0.3-0.8,0.5-1.2,0.5c-0.7,0-1.3-0.4-1.7-1.1
	C450,706.3,449.8,705.3,449.8,703.8L449.8,703.8z M450.7,703.8c0,1.1,0.1,1.9,0.4,2.4c0.3,0.5,0.6,0.8,1.1,0.8
	c0.4,0,0.8-0.3,1.1-0.8c0.3-0.5,0.4-1.4,0.4-2.5c0-1-0.1-1.8-0.4-2.4c-0.3-0.5-0.6-0.8-1.1-0.8c-0.4,0-0.8,0.3-1.1,0.8
	C450.8,702,450.7,702.8,450.7,703.8L450.7,703.8z"/>
<path class="st3" d="M469.3,708h-0.9v-9c-0.2,0.3-0.5,0.7-0.8,1c-0.3,0.3-0.6,0.6-0.9,0.7v-1.4c0.5-0.4,0.9-0.8,1.3-1.4
	c0.4-0.5,0.6-1,0.8-1.5h0.5V708L469.3,708z"/>
<path class="st3" d="M474.3,708v-2.8h-3V704l3.2-7.5h0.7v7.5h0.9v1.3h-0.9v2.8H474.3L474.3,708z M474.3,704v-5.2l-2.2,5.2H474.3
	L474.3,704z"/>
<path class="st3" d="M477.4,708v-1.6h1v1.6c0,0.6-0.1,1.1-0.2,1.4c-0.1,0.4-0.3,0.6-0.6,0.8l-0.2-0.6c0.2-0.1,0.3-0.3,0.4-0.6
	c0.1-0.3,0.1-0.6,0.1-1.1H477.4L477.4,708z"/>
<path class="st3" d="M479.6,702.3c0-1.4,0.1-2.5,0.3-3.3c0.2-0.8,0.4-1.5,0.8-1.9c0.3-0.5,0.8-0.7,1.3-0.7c0.4,0,0.7,0.1,1,0.4
	c0.3,0.2,0.5,0.6,0.7,1.1c0.2,0.5,0.3,1,0.4,1.7c0.1,0.7,0.2,1.6,0.2,2.7c0,1.4-0.1,2.4-0.3,3.3c-0.2,0.8-0.4,1.5-0.8,1.9
	c-0.3,0.5-0.8,0.7-1.3,0.7c-0.7,0-1.2-0.4-1.6-1.2C479.9,706.1,479.6,704.5,479.6,702.3L479.6,702.3z M480.5,702.3
	c0,1.9,0.1,3.2,0.4,3.8c0.3,0.6,0.6,0.9,1,0.9c0.4,0,0.7-0.3,1-0.9c0.3-0.6,0.4-1.9,0.4-3.8c0-1.9-0.1-3.2-0.4-3.8
	c-0.3-0.6-0.6-0.9-1-0.9c-0.4,0-0.7,0.3-0.9,0.8C480.7,699.1,480.5,700.4,480.5,702.3L480.5,702.3z"/>
<path class="st3" d="M485,702.3c0-1.4,0.1-2.5,0.3-3.3c0.2-0.8,0.4-1.5,0.8-1.9c0.3-0.5,0.8-0.7,1.3-0.7c0.4,0,0.7,0.1,1,0.4
	c0.3,0.2,0.5,0.6,0.7,1.1c0.2,0.5,0.3,1,0.4,1.7c0.1,0.7,0.2,1.6,0.2,2.7c0,1.4-0.1,2.4-0.3,3.3c-0.2,0.8-0.4,1.5-0.8,1.9
	c-0.3,0.5-0.8,0.7-1.3,0.7c-0.7,0-1.2-0.4-1.6-1.2C485.3,706.1,485,704.5,485,702.3L485,702.3z M485.9,702.3c0,1.9,0.1,3.2,0.4,3.8
	c0.3,0.6,0.6,0.9,1,0.9c0.4,0,0.7-0.3,1-0.9c0.3-0.6,0.4-1.9,0.4-3.8c0-1.9-0.1-3.2-0.4-3.8c-0.3-0.6-0.6-0.9-1-0.9
	c-0.4,0-0.7,0.3-0.9,0.8C486.1,699.1,485.9,700.4,485.9,702.3L485.9,702.3z"/>
<polygon class="st3" points="493,704.6 493,703.1 495.7,703.1 495.7,704.6 493,704.6 "/>
<path class="st3" d="M502.3,708h-0.9v-9c-0.2,0.3-0.5,0.7-0.8,1c-0.3,0.3-0.6,0.6-0.9,0.7v-1.4c0.5-0.4,0.9-0.8,1.3-1.4
	c0.4-0.5,0.6-1,0.8-1.5h0.5V708L502.3,708z"/>
<path class="st3" d="M508.9,699.3l-0.8,0.1c-0.1-0.6-0.2-1-0.3-1.2c-0.2-0.4-0.5-0.6-0.9-0.6c-0.3,0-0.5,0.1-0.7,0.4
	c-0.3,0.3-0.5,0.8-0.6,1.4c-0.2,0.6-0.2,1.5-0.2,2.7c0.2-0.5,0.5-0.9,0.8-1.2c0.3-0.3,0.6-0.4,0.9-0.4c0.6,0,1.1,0.3,1.5,1
	c0.4,0.7,0.6,1.6,0.6,2.7c0,0.7-0.1,1.4-0.3,2c-0.2,0.6-0.4,1.1-0.8,1.4c-0.3,0.3-0.7,0.5-1.1,0.5c-0.7,0-1.3-0.4-1.7-1.3
	c-0.5-0.9-0.7-2.3-0.7-4.3c0-2.2,0.2-3.9,0.7-4.9c0.4-0.9,1-1.3,1.8-1.3c0.5,0,1,0.3,1.3,0.8C508.6,697.7,508.9,698.4,508.9,699.3
	L508.9,699.3z M505.4,704.3c0,0.5,0.1,1,0.2,1.4c0.1,0.4,0.3,0.8,0.5,1c0.2,0.2,0.5,0.4,0.7,0.4c0.4,0,0.7-0.2,0.9-0.7
	c0.3-0.5,0.4-1.1,0.4-2c0-0.8-0.1-1.4-0.4-1.9c-0.3-0.5-0.6-0.7-1-0.7c-0.4,0-0.7,0.2-1,0.7C505.6,702.9,505.4,703.5,505.4,704.3
	L505.4,704.3z"/>
<path class="st3" d="M510.4,708v-1.6h1v1.6c0,0.6-0.1,1.1-0.2,1.4c-0.1,0.4-0.3,0.6-0.6,0.8l-0.2-0.6c0.2-0.1,0.3-0.3,0.4-0.6
	c0.1-0.3,0.1-0.6,0.1-1.1H510.4L510.4,708z"/>
<path class="st3" d="M512.6,702.3c0-1.4,0.1-2.5,0.3-3.3c0.2-0.8,0.4-1.5,0.8-1.9c0.3-0.5,0.8-0.7,1.3-0.7c0.4,0,0.7,0.1,1,0.4
	c0.3,0.2,0.5,0.6,0.7,1.1c0.2,0.5,0.3,1,0.4,1.7c0.1,0.7,0.2,1.6,0.2,2.7c0,1.4-0.1,2.4-0.3,3.3c-0.2,0.8-0.4,1.5-0.8,1.9
	c-0.3,0.5-0.8,0.7-1.3,0.7c-0.7,0-1.2-0.4-1.6-1.2C512.8,706.1,512.6,704.5,512.6,702.3L512.6,702.3z M513.5,702.3
	c0,1.9,0.1,3.2,0.4,3.8c0.3,0.6,0.6,0.9,1,0.9c0.4,0,0.7-0.3,1-0.9c0.3-0.6,0.4-1.9,0.4-3.8c0-1.9-0.1-3.2-0.4-3.8
	c-0.3-0.6-0.6-0.9-1-0.9c-0.4,0-0.7,0.3-0.9,0.8C513.6,699.1,513.5,700.4,513.5,702.3L513.5,702.3z"/>
<path class="st3" d="M518,702.3c0-1.4,0.1-2.5,0.3-3.3c0.2-0.8,0.4-1.5,0.8-1.9c0.3-0.5,0.8-0.7,1.3-0.7c0.4,0,0.7,0.1,1,0.4
	c0.3,0.2,0.5,0.6,0.7,1.1c0.2,0.5,0.3,1,0.4,1.7c0.1,0.7,0.2,1.6,0.2,2.7c0,1.4-0.1,2.4-0.3,3.3c-0.2,0.8-0.4,1.5-0.8,1.9
	c-0.3,0.5-0.8,0.7-1.3,0.7c-0.7,0-1.2-0.4-1.6-1.2C518.2,706.1,518,704.5,518,702.3L518,702.3z M518.9,702.3c0,1.9,0.1,3.2,0.4,3.8
	c0.3,0.6,0.6,0.9,1,0.9c0.4,0,0.7-0.3,1-0.9c0.3-0.6,0.4-1.9,0.4-3.8c0-1.9-0.1-3.2-0.4-3.8c-0.3-0.6-0.6-0.9-1-0.9
	c-0.4,0-0.7,0.3-0.9,0.8C519,699.1,518.9,700.4,518.9,702.3L518.9,702.3z"/>
<path class="st3" d="M472.8,724.7v1.4h-4.6c0-0.3,0-0.7,0.1-1c0.1-0.5,0.3-1,0.6-1.5c0.3-0.5,0.6-1.1,1.1-1.7c0.8-1,1.3-1.8,1.5-2.4
	c0.3-0.6,0.4-1.2,0.4-1.7c0-0.6-0.1-1-0.4-1.4c-0.2-0.4-0.6-0.6-0.9-0.6c-0.4,0-0.7,0.2-1,0.6c-0.2,0.4-0.4,1-0.4,1.7l-0.9-0.1
	c0.1-1.1,0.3-1.9,0.7-2.5c0.4-0.6,0.9-0.9,1.6-0.9c0.7,0,1.2,0.3,1.6,0.9c0.4,0.6,0.6,1.4,0.6,2.3c0,0.5-0.1,0.9-0.2,1.4
	c-0.1,0.4-0.3,0.9-0.6,1.4c-0.3,0.5-0.7,1.2-1.3,2c-0.5,0.7-0.8,1.2-1,1.5c-0.1,0.3-0.3,0.5-0.4,0.8H472.8L472.8,724.7z"/>
<path class="st3" d="M476.4,726.1v-2.8h-3V722l3.2-7.5h0.7v7.5h0.9v1.3h-0.9v2.8H476.4L476.4,726.1z M476.4,722v-5.2l-2.2,5.2H476.4
	L476.4,722z"/>
<path class="st3" d="M479.6,726.1v-1.6h1v1.6c0,0.6-0.1,1.1-0.2,1.4c-0.1,0.4-0.3,0.6-0.6,0.8l-0.2-0.6c0.2-0.1,0.3-0.3,0.4-0.6
	c0.1-0.3,0.1-0.6,0.1-1.1H479.6L479.6,726.1z"/>
<path class="st3" d="M481.8,720.4c0-1.4,0.1-2.5,0.3-3.3c0.2-0.8,0.4-1.5,0.8-1.9c0.3-0.5,0.8-0.7,1.3-0.7c0.4,0,0.7,0.1,1,0.4
	c0.3,0.2,0.5,0.6,0.7,1.1c0.2,0.5,0.3,1,0.4,1.7c0.1,0.7,0.2,1.6,0.2,2.7c0,1.4-0.1,2.4-0.3,3.3c-0.2,0.8-0.4,1.5-0.8,1.9
	c-0.3,0.5-0.8,0.7-1.3,0.7c-0.7,0-1.2-0.4-1.6-1.2C482,724.1,481.8,722.5,481.8,720.4L481.8,720.4z M482.7,720.4
	c0,1.9,0.1,3.2,0.4,3.8c0.3,0.6,0.6,0.9,1,0.9c0.4,0,0.7-0.3,1-0.9c0.3-0.6,0.4-1.9,0.4-3.8c0-1.9-0.1-3.2-0.4-3.8
	c-0.3-0.6-0.6-0.9-1-0.9c-0.4,0-0.7,0.3-0.9,0.8C482.8,717.2,482.7,718.5,482.7,720.4L482.7,720.4z"/>
<path class="st3" d="M487.2,720.4c0-1.4,0.1-2.5,0.3-3.3c0.2-0.8,0.4-1.5,0.8-1.9c0.3-0.5,0.8-0.7,1.3-0.7c0.4,0,0.7,0.1,1,0.4
	c0.3,0.2,0.5,0.6,0.7,1.1c0.2,0.5,0.3,1,0.4,1.7c0.1,0.7,0.2,1.6,0.2,2.7c0,1.4-0.1,2.4-0.3,3.3c-0.2,0.8-0.4,1.5-0.8,1.9
	c-0.3,0.5-0.8,0.7-1.3,0.7c-0.7,0-1.2-0.4-1.6-1.2C487.4,724.1,487.2,722.5,487.2,720.4L487.2,720.4z M488.1,720.4
	c0,1.9,0.1,3.2,0.4,3.8c0.3,0.6,0.6,0.9,1,0.9c0.4,0,0.7-0.3,1-0.9c0.3-0.6,0.4-1.9,0.4-3.8c0-1.9-0.1-3.2-0.4-3.8
	c-0.3-0.6-0.6-0.9-1-0.9c-0.4,0-0.7,0.3-0.9,0.8C488.2,717.2,488.1,718.5,488.1,720.4L488.1,720.4z"/>
<polygon class="st3" points="495.2,722.6 495.2,721.2 497.9,721.2 497.9,722.6 495.2,722.6 "/>
<path class="st3" d="M501.3,720.4c0-1.4,0.1-2.5,0.3-3.3c0.2-0.8,0.4-1.5,0.8-1.9c0.3-0.5,0.8-0.7,1.3-0.7c0.4,0,0.7,0.1,1,0.4
	c0.3,0.2,0.5,0.6,0.7,1.1c0.2,0.5,0.3,1,0.4,1.7c0.1,0.7,0.2,1.6,0.2,2.7c0,1.4-0.1,2.4-0.3,3.3c-0.2,0.8-0.4,1.5-0.8,1.9
	c-0.3,0.5-0.8,0.7-1.3,0.7c-0.7,0-1.2-0.4-1.6-1.2C501.5,724.1,501.3,722.5,501.3,720.4L501.3,720.4z M502.1,720.4
	c0,1.9,0.1,3.2,0.4,3.8c0.3,0.6,0.6,0.9,1,0.9c0.4,0,0.7-0.3,1-0.9c0.3-0.6,0.4-1.9,0.4-3.8c0-1.9-0.1-3.2-0.4-3.8
	c-0.3-0.6-0.6-0.9-1-0.9c-0.4,0-0.7,0.3-0.9,0.8C502.3,717.2,502.1,718.5,502.1,720.4L502.1,720.4z"/>
<path class="st3" d="M506.8,723.4l0.8-0.1c0.1,0.6,0.2,1.1,0.4,1.4c0.2,0.3,0.4,0.4,0.8,0.4c0.3,0,0.5-0.1,0.7-0.3
	c0.2-0.2,0.4-0.5,0.5-0.8c0.1-0.3,0.2-0.8,0.3-1.4c0.1-0.6,0.1-1.1,0.1-1.7c0-0.1,0-0.2,0-0.3c-0.2,0.4-0.4,0.8-0.7,1.1
	c-0.3,0.3-0.6,0.4-1,0.4c-0.6,0-1.1-0.3-1.5-1c-0.4-0.7-0.6-1.6-0.6-2.7c0-1.2,0.2-2.1,0.6-2.8c0.4-0.7,0.9-1.1,1.6-1.1
	c0.5,0,0.9,0.2,1.2,0.6c0.4,0.4,0.7,1,0.9,1.7c0.2,0.7,0.3,1.8,0.3,3.3c0,1.5-0.1,2.7-0.3,3.5c-0.2,0.9-0.5,1.5-0.9,2
	c-0.4,0.5-0.8,0.7-1.3,0.7c-0.5,0-1-0.3-1.3-0.8C507.1,725,506.9,724.3,506.8,723.4L506.8,723.4z M510.3,718.3
	c0-0.8-0.1-1.5-0.4-1.9c-0.3-0.5-0.6-0.7-0.9-0.7c-0.4,0-0.7,0.3-1,0.8c-0.3,0.5-0.4,1.2-0.4,2c0,0.7,0.1,1.3,0.4,1.8
	c0.3,0.5,0.6,0.7,1,0.7c0.4,0,0.7-0.2,1-0.7C510.2,719.7,510.3,719.1,510.3,718.3L510.3,718.3z"/>
<path class="st3" d="M512.5,726.1v-1.6h1v1.6c0,0.6-0.1,1.1-0.2,1.4c-0.1,0.4-0.3,0.6-0.6,0.8l-0.2-0.6c0.2-0.1,0.3-0.3,0.4-0.6
	c0.1-0.3,0.1-0.6,0.1-1.1H512.5L512.5,726.1z"/>
<path class="st3" d="M514.8,720.4c0-1.4,0.1-2.5,0.3-3.3c0.2-0.8,0.4-1.5,0.8-1.9c0.3-0.5,0.8-0.7,1.3-0.7c0.4,0,0.7,0.1,1,0.4
	c0.3,0.2,0.5,0.6,0.7,1.1c0.2,0.5,0.3,1,0.4,1.7c0.1,0.7,0.2,1.6,0.2,2.7c0,1.4-0.1,2.4-0.3,3.3c-0.2,0.8-0.4,1.5-0.8,1.9
	c-0.3,0.5-0.8,0.7-1.3,0.7c-0.7,0-1.2-0.4-1.6-1.2C515,724.1,514.8,722.5,514.8,720.4L514.8,720.4z M515.7,720.4
	c0,1.9,0.1,3.2,0.4,3.8c0.3,0.6,0.6,0.9,1,0.9c0.4,0,0.7-0.3,1-0.9c0.3-0.6,0.4-1.9,0.4-3.8c0-1.9-0.1-3.2-0.4-3.8
	c-0.3-0.6-0.6-0.9-1-0.9c-0.4,0-0.7,0.3-0.9,0.8C515.8,717.2,515.7,718.5,515.7,720.4L515.7,720.4z"/>
<path class="st3" d="M520.2,720.4c0-1.4,0.1-2.5,0.3-3.3c0.2-0.8,0.4-1.5,0.8-1.9c0.3-0.5,0.8-0.7,1.3-0.7c0.4,0,0.7,0.1,1,0.4
	c0.3,0.2,0.5,0.6,0.7,1.1c0.2,0.5,0.3,1,0.4,1.7c0.1,0.7,0.2,1.6,0.2,2.7c0,1.4-0.1,2.4-0.3,3.3c-0.2,0.8-0.4,1.5-0.8,1.9
	c-0.3,0.5-0.8,0.7-1.3,0.7c-0.7,0-1.2-0.4-1.6-1.2C520.4,724.1,520.2,722.5,520.2,720.4L520.2,720.4z M521.1,720.4
	c0,1.9,0.1,3.2,0.4,3.8c0.3,0.6,0.6,0.9,1,0.9c0.4,0,0.7-0.3,1-0.9c0.3-0.6,0.4-1.9,0.4-3.8c0-1.9-0.1-3.2-0.4-3.8
	c-0.3-0.6-0.6-0.9-1-0.9c-0.4,0-0.7,0.3-0.9,0.8C521.2,717.2,521.1,718.5,521.1,720.4L521.1,720.4z"/>
<polygon class="st3" points="430.5,755.5 430.5,754 433.2,754 433.2,755.5 430.5,755.5 "/>
<path class="st3" d="M436.1,758.9l2.7-11.6h1l2.8,11.6h-1.1l-0.8-3.5h-2.9l-0.8,3.5H436.1L436.1,758.9z M438.1,754.2h2.4l-0.7-3.2
	c-0.2-1-0.4-1.8-0.5-2.4c-0.1,0.7-0.2,1.5-0.4,2.2L438.1,754.2L438.1,754.2z"/>
<path class="st3" d="M448,747.4h0.9v6.7c0,1.2-0.1,2.1-0.2,2.8c-0.2,0.7-0.4,1.2-0.9,1.7c-0.4,0.4-1,0.6-1.6,0.6
	c-0.7,0-1.2-0.2-1.6-0.6c-0.4-0.4-0.7-0.9-0.9-1.6c-0.2-0.7-0.3-1.7-0.3-2.9v-6.7h0.9v6.7c0,1,0.1,1.7,0.2,2.2
	c0.1,0.5,0.3,0.8,0.6,1.1c0.3,0.3,0.6,0.4,1,0.4c0.7,0,1.2-0.3,1.4-0.8c0.3-0.5,0.4-1.5,0.4-2.9V747.4L448,747.4z"/>
<polygon class="st3" points="452.2,758.9 452.2,748.7 449.9,748.7 449.9,747.4 455.4,747.4 455.4,748.7 453.1,748.7 453.1,758.9 
	452.2,758.9 "/>
<path class="st3" d="M455.9,753.3c0-1.9,0.3-3.4,0.9-4.5c0.6-1.1,1.4-1.6,2.4-1.6c0.6,0,1.2,0.3,1.7,0.8c0.5,0.5,0.9,1.2,1.2,2.1
	c0.3,0.9,0.4,1.9,0.4,3.1c0,1.2-0.1,2.2-0.4,3.1c-0.3,0.9-0.7,1.6-1.2,2.1c-0.5,0.5-1.1,0.7-1.7,0.7c-0.7,0-1.2-0.3-1.8-0.8
	c-0.5-0.5-0.9-1.2-1.2-2.2C456,755.3,455.9,754.3,455.9,753.3L455.9,753.3z M456.8,753.3c0,1.4,0.2,2.5,0.7,3.3
	c0.5,0.8,1,1.2,1.7,1.2c0.7,0,1.3-0.4,1.7-1.2c0.4-0.8,0.7-2,0.7-3.4c0-0.9-0.1-1.8-0.3-2.5c-0.2-0.7-0.5-1.2-0.8-1.6
	c-0.4-0.4-0.8-0.6-1.2-0.6c-0.7,0-1.2,0.4-1.7,1.1C457.1,750.3,456.8,751.6,456.8,753.3L456.8,753.3z"/>
<polygon class="st3" points="466.5,758.9 466.5,747.4 471.5,747.4 471.5,748.7 467.4,748.7 467.4,752.3 471.2,752.3 471.2,753.6 
	467.4,753.6 467.4,757.6 471.7,757.6 471.7,758.9 466.5,758.9 "/>
<path class="st3" d="M475.6,758.9v-11.6h1.4l1.6,8.2c0.2,0.8,0.3,1.3,0.3,1.7c0.1-0.4,0.2-1,0.4-1.9l1.7-8h1.2v11.6h-0.9v-9.7
	l-2,9.7h-0.8l-2-9.8v9.8H475.6L475.6,758.9z"/>
<path class="st3" d="M483.4,753.3c0-1.9,0.3-3.4,0.9-4.5c0.6-1.1,1.4-1.6,2.4-1.6c0.6,0,1.2,0.3,1.7,0.8c0.5,0.5,0.9,1.2,1.2,2.1
	c0.3,0.9,0.4,1.9,0.4,3.1c0,1.2-0.1,2.2-0.4,3.1c-0.3,0.9-0.7,1.6-1.2,2.1c-0.5,0.5-1.1,0.7-1.7,0.7c-0.7,0-1.2-0.3-1.8-0.8
	c-0.5-0.5-0.9-1.2-1.2-2.2C483.6,755.3,483.4,754.3,483.4,753.3L483.4,753.3z M484.4,753.3c0,1.4,0.2,2.5,0.7,3.3
	c0.5,0.8,1,1.2,1.7,1.2c0.7,0,1.3-0.4,1.7-1.2c0.4-0.8,0.7-2,0.7-3.4c0-0.9-0.1-1.8-0.3-2.5c-0.2-0.7-0.5-1.2-0.8-1.6
	c-0.4-0.4-0.8-0.6-1.2-0.6c-0.7,0-1.2,0.4-1.7,1.1C484.6,750.3,484.4,751.6,484.4,753.3L484.4,753.3z"/>
<polygon class="st3" points="493.1,758.9 493.1,748.7 490.8,748.7 490.8,747.4 496.3,747.4 496.3,748.7 494,748.7 494,758.9 
	493.1,758.9 "/>
<path class="st3" d="M496.8,753.3c0-1.9,0.3-3.4,0.9-4.5c0.6-1.1,1.4-1.6,2.4-1.6c0.6,0,1.2,0.3,1.7,0.8c0.5,0.5,0.9,1.2,1.2,2.1
	c0.3,0.9,0.4,1.9,0.4,3.1c0,1.2-0.1,2.2-0.4,3.1c-0.3,0.9-0.7,1.6-1.2,2.1c-0.5,0.5-1.1,0.7-1.7,0.7c-0.7,0-1.2-0.3-1.8-0.8
	c-0.5-0.5-0.9-1.2-1.2-2.2C496.9,755.3,496.8,754.3,496.8,753.3L496.8,753.3z M497.7,753.3c0,1.4,0.2,2.5,0.7,3.3
	c0.5,0.8,1,1.2,1.7,1.2c0.7,0,1.3-0.4,1.7-1.2c0.4-0.8,0.7-2,0.7-3.4c0-0.9-0.1-1.8-0.3-2.5c-0.2-0.7-0.5-1.2-0.8-1.6
	c-0.4-0.4-0.8-0.6-1.2-0.6c-0.7,0-1.2,0.4-1.7,1.1C498,750.3,497.7,751.6,497.7,753.3L497.7,753.3z"/>
<path class="st3" d="M506.6,758.9l-2.7-11.6h1l1.8,8.4c0.1,0.7,0.3,1.3,0.4,1.9c0.1-0.6,0.2-1.3,0.4-1.9l1.9-8.4h0.9l-2.7,11.6
	H506.6L506.6,758.9z"/>
<polygon class="st3" points="511.1,758.9 511.1,747.4 516.2,747.4 516.2,748.7 512,748.7 512,752.3 515.9,752.3 515.9,753.6 
	512,753.6 512,757.6 516.3,757.6 516.3,758.9 511.1,758.9 "/>
<polygon class="st3" points="517.7,758.9 517.7,747.4 518.7,747.4 518.7,758.9 517.7,758.9 "/>
<path class="st3" d="M525.3,754.9l0.9,0.4c-0.2,1.3-0.5,2.2-1,2.9c-0.5,0.7-1.1,1-1.8,1c-0.8,0-1.4-0.3-1.8-0.8
	c-0.5-0.5-0.8-1.2-1.1-2.2c-0.2-1-0.4-2-0.4-3.1c0-1.2,0.1-2.3,0.4-3.1c0.3-0.9,0.7-1.6,1.2-2c0.5-0.5,1.1-0.7,1.7-0.7
	c0.7,0,1.3,0.3,1.8,0.9c0.5,0.6,0.8,1.4,1,2.5l-0.9,0.4c-0.2-0.8-0.4-1.5-0.7-1.8c-0.3-0.4-0.7-0.6-1.2-0.6c-0.5,0-1,0.2-1.3,0.6
	c-0.4,0.4-0.6,1-0.8,1.7c-0.1,0.7-0.2,1.5-0.2,2.2c0,1,0.1,1.8,0.3,2.6c0.2,0.7,0.4,1.3,0.8,1.6c0.4,0.4,0.8,0.5,1.2,0.5
	c0.5,0,1-0.2,1.3-0.7C524.9,756.6,525.1,755.8,525.3,754.9L525.3,754.9z"/>
<path class="st3" d="M527,753.3c0-1.9,0.3-3.4,0.9-4.5c0.6-1.1,1.4-1.6,2.4-1.6c0.6,0,1.2,0.3,1.7,0.8c0.5,0.5,0.9,1.2,1.2,2.1
	c0.3,0.9,0.4,1.9,0.4,3.1c0,1.2-0.1,2.2-0.4,3.1c-0.3,0.9-0.7,1.6-1.2,2.1c-0.5,0.5-1.1,0.7-1.7,0.7c-0.7,0-1.2-0.3-1.8-0.8
	c-0.5-0.5-0.9-1.2-1.2-2.2C527.2,755.3,527,754.3,527,753.3L527,753.3z M528,753.3c0,1.4,0.2,2.5,0.7,3.3c0.5,0.8,1,1.2,1.7,1.2
	c0.7,0,1.3-0.4,1.7-1.2c0.4-0.8,0.7-2,0.7-3.4c0-0.9-0.1-1.8-0.3-2.5c-0.2-0.7-0.5-1.2-0.8-1.6c-0.4-0.4-0.8-0.6-1.2-0.6
	c-0.7,0-1.2,0.4-1.7,1.1C528.2,750.3,528,751.6,528,753.3L528,753.3z"/>
<polygon class="st3" points="534.8,758.9 534.8,747.4 535.8,747.4 535.8,757.6 539.2,757.6 539.2,758.9 534.8,758.9 "/>
<polygon class="st3" points="540.4,758.9 540.4,747.4 541.4,747.4 541.4,758.9 540.4,758.9 "/>
<path class="st3" d="M545.7,758.9v-11.6h3.1c0.6,0,1.1,0.1,1.4,0.3c0.3,0.2,0.6,0.6,0.8,1.1c0.2,0.5,0.3,1.1,0.3,1.7
	c0,0.8-0.2,1.5-0.5,2.1c-0.3,0.6-0.8,0.9-1.5,1.1c0.2,0.2,0.4,0.4,0.6,0.6c0.3,0.4,0.5,0.9,0.8,1.5l1.2,3.1h-1.2l-0.9-2.4
	c-0.3-0.7-0.5-1.2-0.7-1.6c-0.2-0.4-0.3-0.6-0.5-0.8c-0.1-0.1-0.3-0.3-0.4-0.3c-0.1,0-0.3-0.1-0.5-0.1h-1.1v5.1H545.7L545.7,758.9z
	 M546.6,752.5h2c0.4,0,0.8-0.1,1-0.2c0.2-0.1,0.4-0.4,0.5-0.7c0.1-0.3,0.2-0.7,0.2-1c0-0.5-0.1-1-0.4-1.3c-0.2-0.4-0.6-0.5-1.1-0.5
	h-2.2V752.5L546.6,752.5z"/>
<polygon class="st3" points="552.7,758.9 552.7,747.4 557.8,747.4 557.8,748.7 553.6,748.7 553.6,752.3 557.5,752.3 557.5,753.6 
	553.6,753.6 553.6,757.6 557.9,757.6 557.9,758.9 552.7,758.9 "/>
<path class="st3" d="M558.9,755.2l0.9-0.1c0,0.6,0.1,1.1,0.3,1.4c0.1,0.4,0.4,0.7,0.7,0.9c0.3,0.2,0.7,0.3,1.1,0.3
	c0.4,0,0.7-0.1,0.9-0.3c0.3-0.2,0.5-0.4,0.6-0.7c0.1-0.3,0.2-0.6,0.2-1c0-0.4-0.1-0.7-0.2-1c-0.1-0.3-0.3-0.5-0.6-0.7
	c-0.2-0.1-0.6-0.3-1.2-0.6c-0.6-0.3-1.1-0.5-1.3-0.7c-0.3-0.3-0.6-0.6-0.7-1.1c-0.2-0.4-0.2-0.9-0.2-1.4c0-0.6,0.1-1.1,0.3-1.6
	c0.2-0.5,0.5-0.9,0.9-1.2c0.4-0.3,0.8-0.4,1.3-0.4c0.5,0,1,0.1,1.4,0.4c0.4,0.3,0.7,0.7,0.9,1.2c0.2,0.5,0.3,1.1,0.3,1.8l-0.9,0.1
	c0-0.7-0.2-1.3-0.5-1.7c-0.3-0.4-0.7-0.6-1.2-0.6c-0.6,0-1,0.2-1.2,0.5c-0.3,0.3-0.4,0.7-0.4,1.2c0,0.4,0.1,0.8,0.3,1
	c0.2,0.3,0.6,0.5,1.4,0.8c0.8,0.3,1.3,0.5,1.5,0.7c0.4,0.3,0.7,0.7,0.9,1.2c0.2,0.5,0.3,1,0.3,1.6c0,0.6-0.1,1.2-0.3,1.7
	c-0.2,0.5-0.5,1-0.9,1.3c-0.4,0.3-0.8,0.5-1.3,0.5c-0.6,0-1.2-0.1-1.6-0.5c-0.4-0.3-0.8-0.8-1-1.4C559,756.7,558.9,756,558.9,755.2
	L558.9,755.2z"/>
<polygon class="st3" points="565.8,758.9 565.8,747.4 566.7,747.4 566.7,758.9 565.8,758.9 "/>
<path class="st3" d="M568.4,758.9v-11.6h2.4c0.5,0,1,0.1,1.2,0.2c0.4,0.1,0.7,0.4,1,0.8c0.4,0.5,0.6,1.2,0.8,2
	c0.2,0.8,0.3,1.7,0.3,2.7c0,0.9-0.1,1.7-0.2,2.3c-0.1,0.7-0.3,1.2-0.5,1.7c-0.2,0.4-0.4,0.8-0.6,1c-0.2,0.3-0.5,0.4-0.8,0.6
	c-0.3,0.1-0.7,0.2-1.1,0.2H568.4L568.4,758.9z M569.3,757.6h1.5c0.5,0,0.8-0.1,1.1-0.2c0.3-0.1,0.5-0.3,0.6-0.6
	c0.2-0.4,0.4-0.9,0.5-1.5c0.1-0.6,0.2-1.4,0.2-2.2c0-1.2-0.1-2.1-0.4-2.8c-0.2-0.7-0.5-1.1-0.9-1.3c-0.2-0.2-0.6-0.2-1.2-0.2h-1.5
	V757.6L569.3,757.6z"/>
<polygon class="st3" points="575.4,758.9 575.4,747.4 580.4,747.4 580.4,748.7 576.3,748.7 576.3,752.3 580.2,752.3 580.2,753.6 
	576.3,753.6 576.3,757.6 580.6,757.6 580.6,758.9 575.4,758.9 "/>
<polygon class="st3" points="581.9,758.9 581.9,747.4 582.8,747.4 586.5,756.4 586.5,747.4 587.3,747.4 587.3,758.9 586.4,758.9 
	582.7,749.8 582.7,758.9 581.9,758.9 "/>
<polygon class="st3" points="590.7,758.9 590.7,748.7 588.4,748.7 588.4,747.4 593.9,747.4 593.9,748.7 591.6,748.7 591.6,758.9 
	590.7,758.9 "/>
<polygon class="st3" points="595,758.9 595,747.4 595.9,747.4 595.9,758.9 595,758.9 "/>
<path class="st3" d="M430.2,776.9l2.7-11.6h1l2.8,11.6h-1.1l-0.8-3.5h-2.9l-0.8,3.5H430.2L430.2,776.9z M432.2,772.2h2.4l-0.7-3.2
	c-0.2-1-0.4-1.8-0.5-2.4c-0.1,0.7-0.2,1.5-0.4,2.2L432.2,772.2L432.2,772.2z"/>
<path class="st3" d="M442,765.4h0.9v6.7c0,1.2-0.1,2.1-0.2,2.8c-0.2,0.7-0.4,1.2-0.9,1.7c-0.4,0.4-1,0.6-1.6,0.6
	c-0.7,0-1.2-0.2-1.6-0.6c-0.4-0.4-0.7-0.9-0.9-1.6c-0.2-0.7-0.3-1.7-0.3-2.9v-6.7h0.9v6.7c0,1,0.1,1.7,0.2,2.2
	c0.1,0.5,0.3,0.8,0.6,1.1c0.3,0.3,0.6,0.4,1,0.4c0.7,0,1.2-0.3,1.4-0.8c0.3-0.5,0.4-1.5,0.4-2.9V765.4L442,765.4z"/>
<polygon class="st3" points="446.2,776.9 446.2,766.8 443.9,766.8 443.9,765.4 449.5,765.4 449.5,766.8 447.2,766.8 447.2,776.9 
	446.2,776.9 "/>
<path class="st3" d="M450,771.3c0-1.9,0.3-3.4,0.9-4.5c0.6-1.1,1.4-1.6,2.4-1.6c0.6,0,1.2,0.3,1.7,0.8c0.5,0.5,0.9,1.2,1.2,2.1
	c0.3,0.9,0.4,1.9,0.4,3.1c0,1.2-0.1,2.2-0.4,3.1c-0.3,0.9-0.7,1.6-1.2,2.1c-0.5,0.5-1.1,0.7-1.7,0.7c-0.7,0-1.2-0.3-1.8-0.8
	c-0.5-0.5-0.9-1.2-1.2-2.2C450.1,773.3,450,772.3,450,771.3L450,771.3z M450.9,771.3c0,1.4,0.2,2.5,0.7,3.3c0.5,0.8,1,1.2,1.7,1.2
	c0.7,0,1.3-0.4,1.7-1.2c0.4-0.8,0.7-2,0.7-3.4c0-0.9-0.1-1.8-0.3-2.5c-0.2-0.7-0.5-1.2-0.8-1.6c-0.4-0.4-0.8-0.6-1.2-0.6
	c-0.7,0-1.2,0.4-1.7,1.1C451.1,768.4,450.9,769.6,450.9,771.3L450.9,771.3z"/>
<path class="st3" d="M457.8,776.9v-11.6h3.1c0.6,0,1.1,0.1,1.4,0.3c0.3,0.2,0.6,0.6,0.8,1.1c0.2,0.5,0.3,1.1,0.3,1.7
	c0,0.8-0.2,1.5-0.5,2.1c-0.3,0.6-0.8,0.9-1.5,1.1c0.2,0.2,0.4,0.4,0.6,0.6c0.3,0.4,0.5,0.9,0.8,1.5l1.2,3.1h-1.2l-0.9-2.4
	c-0.3-0.7-0.5-1.2-0.7-1.6c-0.2-0.4-0.3-0.6-0.5-0.8c-0.1-0.1-0.3-0.2-0.4-0.3c-0.1,0-0.3-0.1-0.5-0.1h-1.1v5.1H457.8L457.8,776.9z
	 M458.7,770.5h2c0.4,0,0.8-0.1,1-0.2c0.2-0.1,0.4-0.4,0.5-0.7c0.1-0.3,0.2-0.7,0.2-1c0-0.5-0.1-1-0.4-1.3c-0.2-0.4-0.6-0.5-1.1-0.5
	h-2.2V770.5L458.7,770.5z"/>
<polygon class="st3" points="465,776.9 465,765.4 465.9,765.4 465.9,776.9 465,776.9 "/>
<path class="st3" d="M467,776.9v-1.4l3.6-7.4c0.3-0.5,0.5-1,0.7-1.4h-3.9v-1.4h5v1.4l-3.9,8l-0.4,0.8h4.4v1.4H467L467,776.9z"/>
<path class="st3" d="M472.9,776.9v-1.4l3.6-7.4c0.3-0.5,0.5-1,0.7-1.4h-3.9v-1.4h5v1.4l-3.9,8l-0.4,0.8h4.4v1.4H472.9L472.9,776.9z"
	/>
<path class="st3" d="M478.6,776.9l2.7-11.6h1l2.8,11.6h-1l-0.8-3.5h-2.9l-0.8,3.5H478.6L478.6,776.9z M480.6,772.2h2.4l-0.7-3.2
	c-0.2-1-0.4-1.8-0.5-2.4c-0.1,0.7-0.2,1.5-0.4,2.2L480.6,772.2L480.6,772.2z"/>
<polygon class="st3" points="486.9,776.9 486.9,766.8 484.6,766.8 484.6,765.4 490.2,765.4 490.2,766.8 487.9,766.8 487.9,776.9 
	486.9,776.9 "/>
<polygon class="st3" points="491.3,776.9 491.3,765.4 492.2,765.4 492.2,776.9 491.3,776.9 "/>
<path class="st3" d="M493.9,776.9v-1.6h1v1.6c0,0.6-0.1,1.1-0.2,1.4c-0.1,0.4-0.3,0.6-0.6,0.8l-0.2-0.6c0.2-0.1,0.3-0.3,0.4-0.6
	c0.1-0.3,0.1-0.6,0.1-1.1H493.9L493.9,776.9z"/>
<path class="st3" d="M498.9,773.2l0.9-0.1c0,0.6,0.1,1.1,0.3,1.4c0.1,0.4,0.4,0.7,0.7,0.9c0.3,0.2,0.7,0.3,1.1,0.3
	c0.4,0,0.7-0.1,0.9-0.3c0.3-0.2,0.5-0.4,0.6-0.7c0.1-0.3,0.2-0.6,0.2-1c0-0.4-0.1-0.7-0.2-0.9c-0.1-0.3-0.3-0.5-0.6-0.7
	c-0.2-0.1-0.6-0.3-1.2-0.6c-0.6-0.3-1.1-0.5-1.3-0.7c-0.3-0.3-0.6-0.6-0.7-1.1c-0.2-0.4-0.2-0.9-0.2-1.4c0-0.6,0.1-1.1,0.3-1.6
	c0.2-0.5,0.5-0.9,0.9-1.2c0.4-0.3,0.8-0.4,1.3-0.4c0.5,0,1,0.1,1.4,0.4c0.4,0.3,0.7,0.7,0.9,1.2c0.2,0.5,0.3,1.1,0.3,1.8l-0.9,0.1
	c0-0.7-0.2-1.3-0.5-1.7c-0.3-0.4-0.7-0.6-1.2-0.6c-0.6,0-1,0.2-1.2,0.5c-0.3,0.3-0.4,0.7-0.4,1.2c0,0.4,0.1,0.8,0.3,1
	c0.2,0.3,0.6,0.5,1.4,0.8c0.8,0.3,1.3,0.5,1.5,0.7c0.4,0.3,0.7,0.7,0.9,1.2c0.2,0.5,0.3,1,0.3,1.6c0,0.6-0.1,1.2-0.3,1.7
	c-0.2,0.5-0.5,1-0.9,1.3c-0.4,0.3-0.8,0.5-1.3,0.5c-0.6,0-1.2-0.2-1.6-0.5c-0.4-0.3-0.8-0.8-1-1.4C499,774.7,498.9,774,498.9,773.2
	L498.9,773.2z"/>
<path class="st3" d="M505.4,771.3c0-1.9,0.3-3.4,0.9-4.5c0.6-1.1,1.4-1.6,2.4-1.6c0.6,0,1.2,0.3,1.7,0.8c0.5,0.5,0.9,1.2,1.2,2.1
	c0.3,0.9,0.4,1.9,0.4,3.1c0,1.2-0.1,2.2-0.4,3.1c-0.3,0.9-0.7,1.6-1.2,2.1c-0.5,0.5-1.1,0.7-1.7,0.7c-0.7,0-1.2-0.3-1.8-0.8
	c-0.5-0.5-0.9-1.2-1.2-2.2C505.5,773.3,505.4,772.3,505.4,771.3L505.4,771.3z M506.4,771.3c0,1.4,0.2,2.5,0.7,3.3
	c0.5,0.8,1,1.2,1.7,1.2c0.7,0,1.3-0.4,1.7-1.2c0.4-0.8,0.7-2,0.7-3.4c0-0.9-0.1-1.8-0.3-2.5c-0.2-0.7-0.5-1.2-0.8-1.6
	c-0.4-0.4-0.8-0.6-1.2-0.6c-0.7,0-1.2,0.4-1.7,1.1C506.6,768.4,506.4,769.6,506.4,771.3L506.4,771.3z"/>
<polygon class="st3" points="513.2,776.9 513.2,765.4 514.1,765.4 514.1,775.6 517.6,775.6 517.6,776.9 513.2,776.9 "/>
<path class="st3" d="M518.4,771.3c0-1.9,0.3-3.4,0.9-4.5c0.6-1.1,1.4-1.6,2.4-1.6c0.6,0,1.2,0.3,1.7,0.8c0.5,0.5,0.9,1.2,1.2,2.1
	c0.3,0.9,0.4,1.9,0.4,3.1c0,1.2-0.1,2.2-0.4,3.1c-0.3,0.9-0.7,1.6-1.2,2.1c-0.5,0.5-1.1,0.7-1.7,0.7c-0.7,0-1.2-0.3-1.8-0.8
	c-0.5-0.5-0.9-1.2-1.2-2.2C518.5,773.3,518.4,772.3,518.4,771.3L518.4,771.3z M519.3,771.3c0,1.4,0.2,2.5,0.7,3.3
	c0.5,0.8,1,1.2,1.7,1.2c0.7,0,1.3-0.4,1.7-1.2c0.4-0.8,0.7-2,0.7-3.4c0-0.9-0.1-1.8-0.3-2.5c-0.2-0.7-0.5-1.2-0.8-1.6
	c-0.4-0.4-0.8-0.6-1.2-0.6c-0.7,0-1.2,0.4-1.7,1.1C519.6,768.4,519.3,769.6,519.3,771.3L519.3,771.3z"/>
<path class="st3" d="M528.9,776.9v-11.6h2.6c0.5,0,0.8,0,1.1,0.1c0.3,0.1,0.6,0.3,0.9,0.5c0.2,0.3,0.4,0.6,0.6,1.1
	c0.1,0.5,0.2,1,0.2,1.6c0,1-0.2,1.8-0.6,2.5c-0.4,0.7-1.1,1-2,1h-1.8v4.7H528.9L528.9,776.9z M529.9,770.9h1.8c0.6,0,1-0.2,1.3-0.5
	c0.3-0.4,0.4-0.9,0.4-1.6c0-0.5-0.1-0.9-0.2-1.2c-0.1-0.3-0.3-0.6-0.6-0.7c-0.2-0.1-0.4-0.1-0.9-0.1h-1.8V770.9L529.9,770.9z"/>
<polygon class="st3" points="535.4,776.9 535.4,765.4 540.5,765.4 540.5,766.8 536.4,766.8 536.4,770.3 540.2,770.3 540.2,771.7 
	536.4,771.7 536.4,775.6 540.6,775.6 540.6,776.9 535.4,776.9 "/>
<path class="st3" d="M541.9,776.9v-11.6h3.1c0.6,0,1.1,0.1,1.4,0.3c0.3,0.2,0.6,0.6,0.8,1.1c0.2,0.5,0.3,1.1,0.3,1.7
	c0,0.8-0.2,1.5-0.5,2.1c-0.3,0.6-0.8,0.9-1.5,1.1c0.2,0.2,0.4,0.4,0.6,0.6c0.3,0.4,0.5,0.9,0.8,1.5l1.2,3.1h-1.2l-0.9-2.4
	c-0.3-0.7-0.5-1.2-0.7-1.6c-0.2-0.4-0.3-0.6-0.5-0.8c-0.1-0.1-0.3-0.2-0.4-0.3c-0.1,0-0.3-0.1-0.5-0.1h-1.1v5.1H541.9L541.9,776.9z
	 M542.8,770.5h2c0.4,0,0.8-0.1,1-0.2c0.2-0.1,0.4-0.4,0.5-0.7c0.1-0.3,0.2-0.7,0.2-1c0-0.5-0.1-1-0.4-1.3c-0.2-0.4-0.6-0.5-1.1-0.5
	h-2.2V770.5L542.8,770.5z"/>
<path class="st3" d="M550.9,776.9l2.7-11.6h1l2.8,11.6h-1.1l-0.8-3.5h-2.9l-0.8,3.5H550.9L550.9,776.9z M552.9,772.2h2.4l-0.7-3.2
	c-0.2-1-0.4-1.8-0.5-2.4c-0.1,0.7-0.2,1.5-0.4,2.2L552.9,772.2L552.9,772.2z"/>
<path class="st3" d="M563.1,772.9l0.9,0.4c-0.2,1.3-0.5,2.2-1,2.9c-0.5,0.7-1.1,1-1.8,1c-0.8,0-1.4-0.3-1.8-0.8
	c-0.5-0.5-0.8-1.2-1.1-2.2c-0.2-1-0.4-2-0.4-3.1c0-1.2,0.1-2.3,0.4-3.1c0.3-0.9,0.7-1.6,1.2-2c0.5-0.5,1.1-0.7,1.7-0.7
	c0.7,0,1.3,0.3,1.8,0.9c0.5,0.6,0.8,1.4,1,2.5l-0.9,0.4c-0.2-0.8-0.4-1.5-0.7-1.8c-0.3-0.4-0.7-0.6-1.2-0.6c-0.5,0-1,0.2-1.3,0.6
	c-0.4,0.4-0.6,1-0.8,1.7c-0.1,0.7-0.2,1.5-0.2,2.2c0,1,0.1,1.8,0.3,2.6c0.2,0.7,0.4,1.3,0.8,1.6c0.4,0.4,0.8,0.5,1.2,0.5
	c0.5,0,1-0.2,1.3-0.7C562.7,774.6,562.9,773.9,563.1,772.9L563.1,772.9z"/>
<path class="st3" d="M570.1,772.9l0.9,0.4c-0.2,1.3-0.5,2.2-1,2.9c-0.5,0.7-1.1,1-1.8,1c-0.8,0-1.4-0.3-1.8-0.8
	c-0.5-0.5-0.8-1.2-1.1-2.2c-0.2-1-0.4-2-0.4-3.1c0-1.2,0.1-2.3,0.4-3.1c0.3-0.9,0.7-1.6,1.2-2c0.5-0.5,1.1-0.7,1.7-0.7
	c0.7,0,1.3,0.3,1.8,0.9c0.5,0.6,0.8,1.4,1,2.5l-0.9,0.4c-0.2-0.8-0.4-1.5-0.7-1.8c-0.3-0.4-0.7-0.6-1.2-0.6c-0.5,0-1,0.2-1.3,0.6
	c-0.4,0.4-0.6,1-0.8,1.7c-0.1,0.7-0.2,1.5-0.2,2.2c0,1,0.1,1.8,0.3,2.6c0.2,0.7,0.4,1.3,0.8,1.6c0.4,0.4,0.8,0.5,1.2,0.5
	c0.5,0,1-0.2,1.3-0.7C569.7,774.6,570,773.9,570.1,772.9L570.1,772.9z"/>
<polygon class="st3" points="572.2,776.9 572.2,765.4 577.2,765.4 577.2,766.8 573.1,766.8 573.1,770.3 576.9,770.3 576.9,771.7 
	573.1,771.7 573.1,775.6 577.4,775.6 577.4,776.9 572.2,776.9 "/>
<path class="st3" d="M578.6,776.9v-11.6h2.4c0.5,0,1,0.1,1.2,0.2c0.4,0.1,0.7,0.4,1,0.8c0.4,0.5,0.6,1.2,0.8,2
	c0.2,0.8,0.3,1.7,0.3,2.7c0,0.9-0.1,1.7-0.2,2.3c-0.1,0.7-0.3,1.2-0.5,1.7c-0.2,0.4-0.4,0.8-0.6,1c-0.2,0.3-0.5,0.4-0.8,0.6
	c-0.3,0.1-0.7,0.2-1.1,0.2H578.6L578.6,776.9z M579.5,775.6h1.5c0.5,0,0.8-0.1,1.1-0.2c0.3-0.1,0.5-0.3,0.6-0.6
	c0.2-0.4,0.4-0.8,0.5-1.5c0.1-0.6,0.2-1.4,0.2-2.2c0-1.2-0.1-2.1-0.4-2.8c-0.2-0.7-0.5-1.1-0.9-1.3c-0.2-0.2-0.6-0.2-1.2-0.2h-1.5
	V775.6L579.5,775.6z"/>
<polygon class="st3" points="585.7,776.9 585.7,765.4 590.7,765.4 590.7,766.8 586.6,766.8 586.6,770.3 590.4,770.3 590.4,771.7 
	586.6,771.7 586.6,775.6 590.9,775.6 590.9,776.9 585.7,776.9 "/>
<path class="st3" d="M592.1,776.9v-11.6h3.1c0.6,0,1.1,0.1,1.4,0.3c0.3,0.2,0.6,0.6,0.8,1.1c0.2,0.5,0.3,1.1,0.3,1.7
	c0,0.8-0.2,1.5-0.5,2.1c-0.3,0.6-0.8,0.9-1.5,1.1c0.2,0.2,0.4,0.4,0.6,0.6c0.3,0.4,0.5,0.9,0.8,1.5l1.2,3.1h-1.2l-0.9-2.4
	c-0.3-0.7-0.5-1.2-0.7-1.6c-0.2-0.4-0.3-0.6-0.5-0.8c-0.1-0.1-0.3-0.2-0.4-0.3c-0.1,0-0.3-0.1-0.5-0.1h-1.1v5.1H592.1L592.1,776.9z
	 M593.1,770.5h2c0.4,0,0.8-0.1,1-0.2c0.2-0.1,0.4-0.4,0.5-0.7c0.1-0.3,0.2-0.7,0.2-1c0-0.5-0.1-1-0.4-1.3c-0.2-0.4-0.6-0.5-1.1-0.5
	h-2.2V770.5L593.1,770.5z"/>
<polygon class="st3" points="599.2,776.9 599.2,765.4 604.2,765.4 604.2,766.8 600.1,766.8 600.1,770.3 603.9,770.3 603.9,771.7 
	600.1,771.7 600.1,775.6 604.4,775.6 604.4,776.9 599.2,776.9 "/>
<path class="st3" d="M430.2,795l2.7-11.6h1l2.8,11.6h-1.1l-0.8-3.5h-2.9l-0.8,3.5H430.2L430.2,795z M432.2,790.2h2.4l-0.7-3.2
	c-0.2-1-0.4-1.8-0.5-2.4c-0.1,0.7-0.2,1.5-0.4,2.2L432.2,790.2L432.2,790.2z"/>
<path class="st3" d="M445.1,790.9l0.9,0.4c-0.2,1.3-0.5,2.2-1,2.9c-0.5,0.7-1.1,1-1.8,1c-0.8,0-1.4-0.3-1.8-0.8
	c-0.5-0.5-0.8-1.2-1.1-2.2c-0.2-1-0.4-2-0.4-3.1c0-1.2,0.1-2.3,0.4-3.1c0.3-0.9,0.7-1.6,1.2-2c0.5-0.5,1.1-0.7,1.7-0.7
	c0.7,0,1.3,0.3,1.8,0.9c0.5,0.6,0.8,1.4,1,2.5l-0.9,0.4c-0.2-0.8-0.4-1.5-0.7-1.8c-0.3-0.4-0.7-0.6-1.2-0.6c-0.5,0-1,0.2-1.3,0.6
	c-0.4,0.4-0.6,1-0.8,1.7c-0.1,0.7-0.2,1.5-0.2,2.2c0,1,0.1,1.8,0.3,2.6c0.2,0.7,0.4,1.3,0.8,1.6c0.4,0.4,0.8,0.5,1.2,0.5
	c0.5,0,1-0.2,1.3-0.7C444.7,792.6,445,791.9,445.1,790.9L445.1,790.9z"/>
<path class="st3" d="M446.9,789.4c0-1.9,0.3-3.4,0.9-4.5c0.6-1.1,1.4-1.6,2.4-1.6c0.6,0,1.2,0.3,1.7,0.8c0.5,0.5,0.9,1.2,1.2,2.1
	s0.4,1.9,0.4,3.1c0,1.2-0.1,2.2-0.4,3.1c-0.3,0.9-0.7,1.6-1.2,2.1c-0.5,0.5-1.1,0.7-1.7,0.7c-0.7,0-1.2-0.3-1.8-0.8
	c-0.5-0.5-0.9-1.2-1.2-2.2C447,791.3,446.9,790.4,446.9,789.4L446.9,789.4z M447.8,789.4c0,1.4,0.2,2.5,0.7,3.3
	c0.5,0.8,1,1.2,1.7,1.2c0.7,0,1.3-0.4,1.7-1.2c0.4-0.8,0.7-2,0.7-3.4c0-0.9-0.1-1.8-0.3-2.5c-0.2-0.7-0.5-1.2-0.8-1.6
	c-0.4-0.4-0.8-0.6-1.2-0.6c-0.7,0-1.2,0.4-1.7,1.1C448.1,786.4,447.8,787.6,447.8,789.4L447.8,789.4z"/>
<path class="st3" d="M454.8,795v-11.6h3.1c0.6,0,1.1,0.1,1.4,0.3c0.3,0.2,0.6,0.6,0.8,1.1c0.2,0.5,0.3,1.1,0.3,1.7
	c0,0.8-0.2,1.5-0.5,2.1c-0.3,0.6-0.8,0.9-1.5,1.1c0.2,0.2,0.4,0.4,0.6,0.6c0.3,0.4,0.5,0.9,0.8,1.5l1.2,3.1h-1.2l-0.9-2.4
	c-0.3-0.7-0.5-1.2-0.7-1.6c-0.2-0.4-0.3-0.6-0.5-0.8c-0.1-0.1-0.3-0.3-0.4-0.3c-0.1,0-0.3-0.1-0.5-0.1h-1.1v5.1H454.8L454.8,795z
	 M455.7,788.5h2c0.4,0,0.8-0.1,1-0.2c0.2-0.1,0.4-0.4,0.5-0.7c0.1-0.3,0.2-0.7,0.2-1c0-0.5-0.1-1-0.4-1.3c-0.2-0.4-0.6-0.5-1.1-0.5
	h-2.2V788.5L455.7,788.5z"/>
<polygon class="st3" points="463.4,795 463.4,784.8 461.1,784.8 461.1,783.4 466.6,783.4 466.6,784.8 464.3,784.8 464.3,795 
	463.4,795 "/>
<polygon class="st3" points="467.7,795 467.7,783.4 468.6,783.4 468.6,795 467.7,795 "/>
<polygon class="st3" points="470.2,795 470.2,783.4 471.1,783.4 471.1,793.6 474.5,793.6 474.5,795 470.2,795 "/>
<polygon class="st3" points="475.8,795 475.8,783.4 476.7,783.4 476.7,795 475.8,795 "/>
<polygon class="st3" points="481.1,795 481.1,783.4 486.1,783.4 486.1,784.8 482,784.8 482,788.3 485.8,788.3 485.8,789.7 
	482,789.7 482,793.6 486.2,793.6 486.2,795 481.1,795 "/>
<path class="st3" d="M487.5,795v-11.6h2.4c0.5,0,1,0.1,1.2,0.2c0.4,0.2,0.7,0.4,1,0.8c0.4,0.5,0.6,1.2,0.8,2
	c0.2,0.8,0.3,1.7,0.3,2.7c0,0.9-0.1,1.7-0.2,2.3c-0.1,0.7-0.3,1.2-0.5,1.7c-0.2,0.4-0.4,0.8-0.6,1c-0.2,0.3-0.5,0.4-0.8,0.6
	c-0.3,0.1-0.7,0.2-1.1,0.2H487.5L487.5,795z M488.4,793.6h1.5c0.5,0,0.8-0.1,1.1-0.2c0.3-0.1,0.5-0.3,0.6-0.6
	c0.2-0.4,0.4-0.8,0.5-1.5c0.1-0.6,0.2-1.4,0.2-2.2c0-1.2-0.1-2.1-0.4-2.8c-0.2-0.7-0.5-1.1-0.9-1.3c-0.2-0.2-0.6-0.2-1.2-0.2h-1.5
	V793.6L488.4,793.6z"/>
<path class="st3" d="M496.5,795l2.7-11.6h1L503,795h-1.1l-0.8-3.5h-2.9l-0.8,3.5H496.5L496.5,795z M498.5,790.2h2.4l-0.7-3.2
	c-0.2-1-0.4-1.8-0.5-2.4c-0.1,0.7-0.2,1.5-0.4,2.2L498.5,790.2L498.5,790.2z"/>
<path class="st3" d="M508.3,783.4h0.9v6.7c0,1.2-0.1,2.1-0.2,2.8c-0.2,0.7-0.4,1.2-0.9,1.7c-0.4,0.4-1,0.6-1.6,0.6
	c-0.7,0-1.2-0.2-1.6-0.6c-0.4-0.4-0.7-0.9-0.9-1.6c-0.2-0.7-0.3-1.7-0.3-2.9v-6.7h0.9v6.7c0,1,0.1,1.7,0.2,2.2
	c0.1,0.5,0.3,0.8,0.6,1.1c0.3,0.3,0.6,0.4,1,0.4c0.7,0,1.2-0.3,1.4-0.8c0.3-0.5,0.4-1.5,0.4-2.9V783.4L508.3,783.4z"/>
<polygon class="st3" points="512.5,795 512.5,784.8 510.2,784.8 510.2,783.4 515.7,783.4 515.7,784.8 513.4,784.8 513.4,795 
	512.5,795 "/>
<path class="st3" d="M516.2,789.4c0-1.9,0.3-3.4,0.9-4.5c0.6-1.1,1.4-1.6,2.4-1.6c0.6,0,1.2,0.3,1.7,0.8c0.5,0.5,0.9,1.2,1.2,2.1
	c0.3,0.9,0.4,1.9,0.4,3.1c0,1.2-0.1,2.2-0.4,3.1c-0.3,0.9-0.7,1.6-1.2,2.1c-0.5,0.5-1.1,0.7-1.7,0.7c-0.7,0-1.2-0.3-1.8-0.8
	c-0.5-0.5-0.9-1.2-1.2-2.2C516.4,791.3,516.2,790.4,516.2,789.4L516.2,789.4z M517.2,789.4c0,1.4,0.2,2.5,0.7,3.3
	c0.5,0.8,1,1.2,1.7,1.2c0.7,0,1.3-0.4,1.7-1.2s0.7-2,0.7-3.4c0-0.9-0.1-1.8-0.3-2.5c-0.2-0.7-0.5-1.2-0.8-1.6
	c-0.4-0.4-0.8-0.6-1.2-0.6c-0.7,0-1.2,0.4-1.7,1.1C517.4,786.4,517.2,787.6,517.2,789.4L517.2,789.4z"/>
<path class="st3" d="M524.1,795v-11.6h3.1c0.6,0,1.1,0.1,1.4,0.3c0.3,0.2,0.6,0.6,0.8,1.1c0.2,0.5,0.3,1.1,0.3,1.7
	c0,0.8-0.2,1.5-0.5,2.1c-0.3,0.6-0.8,0.9-1.5,1.1c0.2,0.2,0.4,0.4,0.6,0.6c0.3,0.4,0.5,0.9,0.8,1.5l1.2,3.1h-1.2l-0.9-2.4
	c-0.3-0.7-0.5-1.2-0.7-1.6c-0.2-0.4-0.3-0.6-0.5-0.8c-0.1-0.1-0.3-0.3-0.4-0.3c-0.1,0-0.3-0.1-0.5-0.1H525v5.1H524.1L524.1,795z
	 M525,788.5h2c0.4,0,0.8-0.1,1-0.2c0.2-0.1,0.4-0.4,0.5-0.7c0.1-0.3,0.2-0.7,0.2-1c0-0.5-0.1-1-0.4-1.3c-0.2-0.4-0.6-0.5-1.1-0.5
	H525V788.5L525,788.5z"/>
<polygon class="st3" points="531.2,795 531.2,783.4 532.2,783.4 532.2,795 531.2,795 "/>
<path class="st3" d="M533.8,795v-11.6h1.4l1.6,8.2c0.2,0.8,0.3,1.3,0.3,1.7c0.1-0.4,0.2-1,0.4-1.9l1.7-8h1.2V795h-0.9v-9.7l-2,9.7
	h-0.8l-2-9.8v9.8H533.8L533.8,795z"/>
<polygon class="st3" points="541.9,795 541.9,783.4 546.9,783.4 546.9,784.8 542.8,784.8 542.8,788.3 546.7,788.3 546.7,789.7 
	542.8,789.7 542.8,793.6 547.1,793.6 547.1,795 541.9,795 "/>
<path class="st3" d="M548.1,791.3l0.9-0.1c0,0.6,0.1,1.1,0.3,1.4c0.1,0.4,0.4,0.7,0.7,0.9c0.3,0.2,0.7,0.3,1.1,0.3
	c0.4,0,0.7-0.1,0.9-0.3c0.3-0.2,0.5-0.4,0.6-0.7c0.1-0.3,0.2-0.6,0.2-1c0-0.4-0.1-0.7-0.2-1c-0.1-0.3-0.3-0.5-0.6-0.7
	c-0.2-0.1-0.6-0.3-1.2-0.6c-0.6-0.3-1.1-0.5-1.3-0.7c-0.3-0.3-0.6-0.6-0.7-1.1c-0.2-0.4-0.2-0.9-0.2-1.4c0-0.6,0.1-1.1,0.3-1.6
	c0.2-0.5,0.5-0.9,0.9-1.2c0.4-0.3,0.8-0.4,1.3-0.4c0.5,0,1,0.1,1.4,0.4c0.4,0.3,0.7,0.7,0.9,1.2c0.2,0.5,0.3,1.1,0.3,1.8l-0.9,0.1
	c0-0.7-0.2-1.3-0.5-1.7c-0.3-0.4-0.7-0.6-1.2-0.6c-0.6,0-1,0.2-1.2,0.5c-0.3,0.3-0.4,0.7-0.4,1.2c0,0.4,0.1,0.8,0.3,1
	c0.2,0.3,0.6,0.5,1.4,0.8c0.8,0.3,1.3,0.5,1.5,0.7c0.4,0.3,0.7,0.7,0.9,1.2c0.2,0.5,0.3,1,0.3,1.6c0,0.6-0.1,1.2-0.3,1.7
	c-0.2,0.5-0.5,1-0.9,1.3c-0.4,0.3-0.8,0.5-1.3,0.5c-0.6,0-1.2-0.2-1.6-0.5c-0.4-0.3-0.8-0.8-1-1.4
	C548.2,792.7,548.1,792,548.1,791.3L548.1,791.3z"/>
<path class="st3" d="M554.5,791.3l0.9-0.1c0,0.6,0.1,1.1,0.3,1.4c0.1,0.4,0.4,0.7,0.7,0.9c0.3,0.2,0.7,0.3,1.1,0.3
	c0.4,0,0.7-0.1,0.9-0.3c0.3-0.2,0.5-0.4,0.6-0.7c0.1-0.3,0.2-0.6,0.2-1c0-0.4-0.1-0.7-0.2-1c-0.1-0.3-0.3-0.5-0.6-0.7
	c-0.2-0.1-0.6-0.3-1.2-0.6c-0.6-0.3-1.1-0.5-1.3-0.7c-0.3-0.3-0.6-0.6-0.7-1.1c-0.2-0.4-0.2-0.9-0.2-1.4c0-0.6,0.1-1.1,0.3-1.6
	c0.2-0.5,0.5-0.9,0.9-1.2c0.4-0.3,0.8-0.4,1.3-0.4c0.5,0,1,0.1,1.4,0.4c0.4,0.3,0.7,0.7,0.9,1.2c0.2,0.5,0.3,1.1,0.3,1.8l-0.9,0.1
	c0-0.7-0.2-1.3-0.5-1.7c-0.3-0.4-0.7-0.6-1.2-0.6c-0.6,0-1,0.2-1.2,0.5c-0.3,0.3-0.4,0.7-0.4,1.2c0,0.4,0.1,0.8,0.3,1
	c0.2,0.3,0.6,0.5,1.4,0.8c0.7,0.3,1.3,0.5,1.5,0.7c0.4,0.3,0.7,0.7,0.9,1.2c0.2,0.5,0.3,1,0.3,1.6c0,0.6-0.1,1.2-0.3,1.7
	c-0.2,0.5-0.5,1-0.9,1.3c-0.4,0.3-0.8,0.5-1.3,0.5c-0.6,0-1.2-0.2-1.6-0.5c-0.4-0.3-0.8-0.8-1-1.4
	C554.7,792.7,554.6,792,554.5,791.3L554.5,791.3z"/>
<polygon class="st3" points="561.4,795 561.4,783.4 566.4,783.4 566.4,784.8 562.3,784.8 562.3,788.3 566.1,788.3 566.1,789.7 
	562.3,789.7 562.3,793.6 566.6,793.6 566.6,795 561.4,795 "/>
<g>
	<path class="st8" d="M361.5,524.9h45.4c4.6,0,8.3,3.7,8.3,8.3v45.4c0,4.6-3.7,8.3-8.3,8.3h-45.4c-4.6,0-8.3-3.7-8.3-8.3v-45.4
		C353.2,528.6,356.9,524.9,361.5,524.9L361.5,524.9z"/>
	<g>
		<path class="st9" d="M391.7,569.1c-3,6.6-10.8,9.6-17.5,6.6c-6.6-3-9.6-10.8-6.6-17.5c1-2.3,2.7-4.2,4.7-5.5l-0.2-4.9
			c-3.6,1.7-6.7,4.7-8.4,8.6c-4,8.8,0,19.2,8.8,23.2c8.1,3.6,17.5,0.6,22.1-6.7l-2.6-4.4C391.8,568.8,391.7,568.9,391.7,569.1z"/>
		<path class="st9" d="M403.4,567.6l-3.7,2.3l-7.9-14.1l-12.2,0l-0.5-4l9.2,0l0-3.9h-9.8l-0.7-7.4c2.8-0.2,5-2.5,5-5.3
			c0-3-2.4-5.4-5.4-5.4c-3,0-5.4,2.4-5.4,5.4c0,0.8,0.2,1.5,0.5,2.2c0.2,0.6,0.6,1.1,1,1.5c0.1,0.1,0.1,0.1,0.2,0.2l0.6,20.8H389
			l9,15.6h0.2l7.1-4.5L403.4,567.6z"/>
	</g>
</g>
</svg>
