<?xml version="1.0" encoding="utf-8"?>
<!-- Generator: Adobe Illustrator 19.2.0, SVG Export Plug-In . SVG Version: 6.00 Build 0)  -->
<svg version="1.1" id="Livello_1" xmlns="http://www.w3.org/2000/svg" xmlns:xlink="http://www.w3.org/1999/xlink" x="0px" y="0px"
	 viewBox="0 0 960 960" style="enable-background:new 0 0 960 960;" xml:space="preserve">
<style type="text/css">
	.st0{fill:#FFFFFF;stroke:#1D1D1B;stroke-width:0.4865;stroke-miterlimit:2.6131;}
	.st1{fill:none;stroke:#1D1D1B;stroke-width:0.4865;stroke-miterlimit:2.6131;}
	.st2{fill-rule:evenodd;clip-rule:evenodd;fill:#1D1D1B;}
	.st3{fill:none;stroke:#1D1D1B;stroke-width:4.8649;stroke-miterlimit:2.6131;}
	.st4{fill-rule:evenodd;clip-rule:evenodd;fill:#FFFFFF;stroke:#1D1D1B;stroke-width:0.4865;stroke-miterlimit:2.6131;}
	.st5{fill-rule:evenodd;clip-rule:evenodd;fill:#E20613;}
	.st6{fill-rule:evenodd;clip-rule:evenodd;fill:#FFFFFF;}
	.st7{fill-rule:evenodd;clip-rule:evenodd;fill:#005CA8;stroke:#005CA8;stroke-width:0.4865;stroke-miterlimit:2.6131;}
	.st8{fill:#FFFFFF;}
</style>
<g>
	<g>
		<polygon class="st0" points="311.7,120 648.3,120 648.3,464.9 311.7,464.9 311.7,120 		"/>
		<polygon class="st0" points="311.7,464.9 648.3,464.9 648.3,840 311.7,840 311.7,464.9 		"/>
		<path class="st1" d="M362.3,664.8h44.5c4.5,0,8.1,3.7,8.1,8.1v44.5c0,4.5-3.7,8.1-8.1,8.1h-44.5c-4.5,0-8.1-3.7-8.1-8.1v-44.5
			C354.2,668.4,357.9,664.8,362.3,664.8L362.3,664.8z"/>
		<path class="st2" d="M352.9,719.4c-0.2-0.3,0.4-0.5,0.4-0.2L352.9,719.4L352.9,719.4z"/>
		<path class="st2" d="M381.2,719.9v-4.8h16.5v-2.4h-13.3l14.8-22.8c3.3-0.1,3.3,2.3,3.3,4.3v25.7H381.2L381.2,719.9z"/>
		<path class="st2" d="M381.2,712.7l0.2-7.8l-0.3-0.2l-3.6,4.4c-1.2,0.8-2.8,1.2-4,0.4l-9.7-4c-3.6-1.2-1.2-7.6,2.4-6l7.6,3.2
			l7.4-10.2c1.2-1.7,2.7-2.6,5.1-2.6h9.7L381.2,712.7L381.2,712.7z"/>
		<polygon class="st2" points="382.4,681.3 385.2,678.5 397.7,678.5 397.7,679.3 382.4,681.3 		"/>
		<polygon class="st2" points="385.2,677.3 383.2,670.5 397.7,675.3 397.7,677.3 385.2,677.3 		"/>
		<path class="st2" d="M385.2,682.1l12.3-1.7c0.1,0.4,0.2,0.8,0.2,1.3c0,3.4-2.8,6.2-6.2,6.2C388.1,687.9,385.4,685.4,385.2,682.1
			L385.2,682.1z"/>
		<path class="st1" d="M361,741.3h45.6c4.6,0,8.3,3.7,8.3,8.3v45.6c0,4.6-3.7,8.3-8.3,8.3H361c-4.6,0-8.3-3.7-8.3-8.3v-45.6
			C352.6,745.1,356.4,741.3,361,741.3L361,741.3z"/>
		<path class="st2" d="M358.3,792.3l6.4-20.2l1.1-12.3c0.9-4.1,5.3-4.7,7.9-2.2l8.3,10c1.6,1.9-1.3,4.2-2.9,2.5l-5-5.8l-3.5,8.7
			l5.6,6.9c0.6,0.7,1.3,2,0.7,3.7l-3.1,9.6c-1.2,2.7-5.1,1.5-4.3-1.2l3-9.2l-4.5-5.7l-5.4,16C361.5,796.2,357.9,794.6,358.3,792.3
			L358.3,792.3z"/>
		<polygon class="st2" points="399.7,793.2 382.2,772.4 383.9,771 400.1,790.2 403.5,787.3 404.8,789 399.7,793.2 		"/>
		<polygon class="st2" points="400.3,787.7 388.4,773.5 397.8,765.6 409.8,779.8 400.3,787.7 		"/>
		<path class="st2" d="M388.2,792.9c-1.4-1.6-1.2-4.1,0.5-5.5c1.6-1.4,4.1-1.1,5.4,0.5c1.4,1.7,1.2,4.1-0.5,5.5
			C392.1,794.7,389.6,794.5,388.2,792.9L388.2,792.9z M389.5,791.8c-0.7-0.9-0.6-2.3,0.3-3c0.9-0.8,2.3-0.6,3,0.3
			c0.8,0.9,0.7,2.3-0.2,3C391.7,792.8,390.3,792.7,389.5,791.8L389.5,791.8z"/>
		<path class="st2" d="M371.8,748.8c1.7,0,3.2,1.4,3.2,3.2c0,1.7-1.4,3.2-3.2,3.2c-1.8,0-3.2-1.4-3.2-3.2
			C368.6,750.2,370,748.8,371.8,748.8L371.8,748.8z"/>
		<path class="st3" d="M331.8,470.8h296.3c8.1,0,14.4,6.8,14.4,14.3v334.7c0,7.5-6.8,14.3-14.4,14.3H331.8
			c-7.5,0-14.3-6.3-14.3-14.3V485C317.5,476.9,323.7,470.8,331.8,470.8L331.8,470.8z"/>
		<path class="st3" d="M331.8,125.8h296.3c8.1,0,14.4,6.6,14.4,14.3v304.5c0,7.6-6.6,14.3-14.4,14.3H331.8
			c-7.6,0-14.3-6.3-14.3-14.3V140.1C317.5,132,323.7,125.8,331.8,125.8L331.8,125.8z"/>
		<polygon class="st2" points="439.1,193.3 439.1,186.5 450.4,162.1 440.4,162.1 440.4,155.8 456.1,155.8 456.1,161.7 444.3,187 
			456.5,187 456.5,193.3 439.1,193.3 		"/>
		<path class="st2" d="M458,174.8c0-3.8,0.3-7,1-9.6c0.5-1.9,1.2-3.6,2-5.1c0.8-1.5,1.8-2.6,2.8-3.4c1.3-1,2.9-1.5,4.6-1.5
			c3.2,0,5.7,1.7,7.6,5.1c1.9,3.4,2.8,8.2,2.8,14.3c0,6.1-0.9,10.8-2.8,14.2c-1.9,3.4-4.4,5.1-7.5,5.1c-3.2,0-5.7-1.7-7.6-5.1
			C459,185.4,458,180.7,458,174.8L458,174.8z M462.5,174.5c0,4.2,0.6,7.5,1.7,9.7c1.1,2.2,2.5,3.3,4.3,3.3c1.7,0,3.1-1.1,4.2-3.3
			c1.1-2.2,1.7-5.4,1.7-9.8c0-4.3-0.5-7.5-1.6-9.6c-1.1-2.1-2.5-3.2-4.3-3.2c-1.8,0-3.2,1.1-4.3,3.2
			C463,167,462.5,170.2,462.5,174.5L462.5,174.5z"/>
		<polygon class="st2" points="481.9,193.3 481.9,155.8 486.1,155.8 494.8,180.8 494.8,155.8 498.9,155.8 498.9,193.3 494.5,193.3 
			485.9,168.8 485.9,193.3 481.9,193.3 		"/>
		<path class="st2" d="M522.4,193.3h-4.7l-1.9-8.5h-8.6l-1.8,8.5h-4.6l8.3-37.5h4.6L522.4,193.3L522.4,193.3z M514.4,178.5
			l-2.9-13.9l-2.9,13.9H514.4L514.4,178.5z"/>
		<polygon class="st2" points="342.4,246 342.4,214.8 336,214.8 336,208.5 353,208.5 353,214.8 346.7,214.8 346.7,246 342.4,246 		
			"/>
		<path class="st2" d="M355.5,246v-37.5h9.1c2.3,0,3.9,0.3,5,1c1,0.7,1.9,1.9,2.5,3.6c0.6,1.7,0.9,3.7,0.9,5.9c0,2.8-0.5,5.1-1.4,7
			c-0.9,1.8-2.4,3-4.2,3.5c0.9,1,1.7,2,2.3,3.2c0.6,1.1,1.4,3.2,2.5,6.1l2.6,7.3h-5.2l-3.1-8.2c-1.1-2.9-1.9-4.8-2.3-5.5
			c-0.4-0.8-0.8-1.3-1.3-1.6c-0.5-0.3-1.2-0.4-2.2-0.4h-0.9V246H355.5L355.5,246z M359.8,224.3h3.2c2.1,0,3.4-0.1,3.9-0.5
			c0.5-0.3,0.9-0.8,1.2-1.6c0.3-0.8,0.4-1.7,0.4-2.8c0-1.3-0.2-2.3-0.6-3.1c-0.4-0.8-0.9-1.3-1.6-1.5c-0.3-0.1-1.4-0.1-3.2-0.1h-3.4
			V224.3L359.8,224.3z"/>
		<path class="st2" d="M396,246h-4.7l-1.9-8.5h-8.6l-1.8,8.5h-4.6l8.3-37.5h4.6L396,246L396,246z M388.1,231.2l-2.9-13.9l-2.9,13.9
			H388.1L388.1,231.2z"/>
		<polygon class="st2" points="398,246 398,208.5 412.7,208.5 412.7,214.8 402.3,214.8 402.3,223.7 411.3,223.7 411.3,230.1 
			402.3,230.1 402.3,246 398,246 		"/>
		<polygon class="st2" points="415.9,246 415.9,208.5 430.6,208.5 430.6,214.8 420.3,214.8 420.3,223.7 429.2,223.7 429.2,230.1 
			420.3,230.1 420.3,246 415.9,246 		"/>
		<polygon class="st2" points="433.7,246 433.7,208.5 438,208.5 438,246 433.7,246 		"/>
		<path class="st2" d="M455.5,232.2l4.2,2.3c-0.6,4.1-1.7,7.1-3.2,9.1c-1.5,2-3.4,3-5.7,3c-2.8,0-5.2-1.7-7-5.1
			c-1.8-3.4-2.7-8.1-2.7-14c0-6.2,0.9-11.1,2.8-14.6c1.8-3.4,4.3-5.2,7.3-5.2c2.6,0,4.7,1.4,6.4,4.1c1,1.6,1.7,3.9,2.2,6.9l-4.3,1.8
			c-0.2-1.9-0.8-3.5-1.6-4.6c-0.8-1.1-1.8-1.7-2.9-1.7c-1.6,0-2.9,1-3.9,3c-1,2-1.5,5.2-1.5,9.7c0,4.7,0.5,8.1,1.5,10.1
			c1,2,2.2,3,3.8,3c1.2,0,2.1-0.6,3-1.9C454.6,237,455.2,234.9,455.5,232.2L455.5,232.2z"/>
		<path class="st2" d="M462.2,227.5c0-3.8,0.3-7,1-9.6c0.5-1.9,1.2-3.6,2-5.1c0.8-1.5,1.8-2.6,2.8-3.4c1.3-1,2.9-1.5,4.6-1.5
			c3.2,0,5.7,1.7,7.6,5.1c1.9,3.4,2.8,8.2,2.8,14.3c0,6.1-0.9,10.8-2.8,14.2c-1.9,3.4-4.4,5.1-7.5,5.1c-3.2,0-5.7-1.7-7.6-5.1
			C463.1,238.1,462.2,233.4,462.2,227.5L462.2,227.5z M466.7,227.2c0,4.2,0.6,7.5,1.7,9.7c1.1,2.2,2.5,3.3,4.3,3.3
			c1.7,0,3.1-1.1,4.2-3.3c1.1-2.2,1.7-5.4,1.7-9.8c0-4.3-0.5-7.5-1.6-9.6c-1.1-2.1-2.5-3.2-4.3-3.2c-1.8,0-3.2,1.1-4.3,3.2
			C467.2,219.7,466.7,222.9,466.7,227.2L466.7,227.2z"/>
		<polygon class="st2" points="494.4,246 494.4,208.8 498.7,208.8 498.7,239.7 509.4,239.7 509.4,246 494.4,246 		"/>
		<polygon class="st2" points="512,246 512,208.5 516.4,208.5 516.4,246 512,246 		"/>
		<polygon class="st2" points="520.1,246 520.1,208.5 526.6,208.5 530.4,234.1 534.3,208.5 540.8,208.5 540.8,246 536.7,246 
			536.7,216.5 532.5,246 528.3,246 524.1,216.5 524.1,246 520.1,246 		"/>
		<polygon class="st2" points="544.6,246 544.6,208.5 548.9,208.5 548.9,246 544.6,246 		"/>
		<polygon class="st2" points="557.5,246 557.5,214.8 551.2,214.8 551.2,208.5 568.2,208.5 568.2,214.8 561.8,214.8 561.8,246 
			557.5,246 		"/>
		<path class="st2" d="M587.7,246H583l-1.9-8.5h-8.6l-1.8,8.5h-4.6l8.3-37.5h4.6L587.7,246L587.7,246z M579.7,231.2l-2.9-13.9
			l-2.9,13.9H579.7L579.7,231.2z"/>
		<polygon class="st2" points="592.3,246 592.3,214.8 585.9,214.8 585.9,208.5 602.9,208.5 602.9,214.8 596.6,214.8 596.6,246 
			592.3,246 		"/>
		<path class="st2" d="M604,227.5c0-3.8,0.3-7,1-9.6c0.5-1.9,1.2-3.6,2-5.1c0.8-1.5,1.8-2.6,2.8-3.4c1.3-1,2.9-1.5,4.6-1.5
			c3.2,0,5.7,1.7,7.6,5.1c1.9,3.4,2.8,8.2,2.8,14.3c0,6.1-0.9,10.8-2.8,14.2c-1.9,3.4-4.4,5.1-7.5,5.1c-3.2,0-5.7-1.7-7.6-5.1
			C604.9,238.1,604,233.4,604,227.5L604,227.5z M608.4,227.2c0,4.2,0.6,7.5,1.7,9.7c1.1,2.2,2.5,3.3,4.3,3.3c1.7,0,3.1-1.1,4.2-3.3
			c1.1-2.2,1.7-5.4,1.7-9.8c0-4.3-0.5-7.5-1.6-9.6c-1.1-2.1-2.5-3.2-4.3-3.2c-1.8,0-3.2,1.1-4.3,3.2
			C609,219.7,608.4,222.9,608.4,227.2L608.4,227.2z"/>
		<polygon class="st2" points="353.4,576 353.4,563.9 358.9,563.9 358.9,565.9 354.9,565.9 354.9,568.6 358.6,568.6 358.6,570.7 
			354.9,570.7 354.9,574 359,574 359,576 353.4,576 		"/>
		<path class="st2" d="M364.9,571.5l1.4,0.8c-0.2,1.3-0.6,2.3-1.1,3c-0.5,0.6-1.2,1-1.9,1c-1,0-1.8-0.6-2.4-1.6
			c-0.6-1.1-0.9-2.6-0.9-4.5c0-2,0.3-3.6,0.9-4.7c0.6-1.1,1.5-1.7,2.5-1.7c0.9,0,1.6,0.4,2.2,1.3c0.3,0.5,0.6,1.3,0.7,2.2l-1.5,0.6
			c-0.1-0.6-0.3-1.1-0.5-1.5c-0.3-0.4-0.6-0.5-1-0.5c-0.5,0-1,0.3-1.3,1c-0.3,0.6-0.5,1.7-0.5,3.1c0,1.5,0.2,2.6,0.5,3.3
			c0.3,0.7,0.8,1,1.3,1c0.4,0,0.7-0.2,1-0.6C364.6,573.1,364.8,572.4,364.9,571.5L364.9,571.5z"/>
		<path class="st2" d="M372.3,571.5l1.4,0.8c-0.2,1.3-0.6,2.3-1.1,3c-0.5,0.6-1.2,1-1.9,1c-1,0-1.8-0.6-2.4-1.6
			c-0.6-1.1-0.9-2.6-0.9-4.5c0-2,0.3-3.6,0.9-4.7c0.6-1.1,1.5-1.7,2.5-1.7c0.9,0,1.6,0.4,2.2,1.3c0.3,0.5,0.6,1.3,0.7,2.2l-1.5,0.6
			c-0.1-0.6-0.3-1.1-0.5-1.5c-0.3-0.4-0.6-0.5-1-0.5c-0.5,0-1,0.3-1.3,1c-0.3,0.6-0.5,1.7-0.5,3.1c0,1.5,0.2,2.6,0.5,3.3
			c0.3,0.7,0.8,1,1.3,1c0.4,0,0.7-0.2,1-0.6C372,573.1,372.2,572.4,372.3,571.5L372.3,571.5z"/>
		<polygon class="st2" points="375,576 375,563.9 380.4,563.9 380.4,565.9 376.5,565.9 376.5,568.6 380.1,568.6 380.1,570.7 
			376.5,570.7 376.5,574 380.6,574 380.6,576 375,576 		"/>
		<polygon class="st2" points="383.5,576 383.5,565.9 381.3,565.9 381.3,563.9 387.1,563.9 387.1,565.9 384.9,565.9 384.9,576 
			383.5,576 		"/>
		<polygon class="st2" points="389.7,576 389.7,565.9 387.5,565.9 387.5,563.9 393.3,563.9 393.3,565.9 391.2,565.9 391.2,576 
			389.7,576 		"/>
		<path class="st2" d="M393.8,570c0-1.2,0.1-2.3,0.3-3.1c0.2-0.6,0.4-1.2,0.7-1.7c0.3-0.5,0.6-0.9,0.9-1.1c0.5-0.3,1-0.5,1.6-0.5
			c1.1,0,1.9,0.6,2.6,1.7c0.6,1.1,1,2.6,1,4.6c0,2-0.3,3.5-1,4.6c-0.6,1.1-1.5,1.7-2.6,1.7c-1.1,0-2-0.6-2.6-1.6
			C394.1,573.5,393.8,571.9,393.8,570L393.8,570z M395.3,569.9c0,1.4,0.2,2.4,0.6,3.1c0.4,0.7,0.9,1.1,1.5,1.1
			c0.6,0,1.1-0.3,1.4-1.1c0.4-0.7,0.6-1.8,0.6-3.2c0-1.4-0.2-2.4-0.5-3.1c-0.4-0.7-0.9-1-1.5-1c-0.6,0-1.1,0.3-1.5,1
			C395.5,567.5,395.3,568.5,395.3,569.9L395.3,569.9z"/>
		<path class="st2" d="M402.3,569.5v-2.3h1.4v2.3H402.3L402.3,569.5z M402.3,576v-2.3h1.4v2.3H402.3L402.3,576z"/>
		<path class="st2" d="M353.4,501.6h2.7c0.6,0,1.1,0.1,1.4,0.2c0.4,0.2,0.8,0.6,1.1,1.1c0.3,0.5,0.5,1.2,0.7,2
			c0.2,0.8,0.2,1.7,0.2,2.9c0,1-0.1,1.9-0.2,2.6c-0.2,0.9-0.4,1.6-0.8,2.1c-0.3,0.4-0.6,0.7-1,1c-0.3,0.2-0.8,0.3-1.3,0.3h-2.8
			V501.6L353.4,501.6z M354.9,503.7v8h1.1c0.4,0,0.7,0,0.9-0.1c0.2-0.1,0.4-0.3,0.6-0.5c0.2-0.2,0.3-0.6,0.4-1.2
			c0.1-0.5,0.2-1.3,0.2-2.2c0-0.9-0.1-1.7-0.2-2.2c-0.1-0.5-0.2-0.9-0.4-1.2c-0.2-0.3-0.4-0.5-0.7-0.6c-0.2-0.1-0.6-0.1-1.2-0.1
			H354.9L354.9,503.7z"/>
		<polygon class="st2" points="360.8,513.7 360.8,501.6 362.2,501.6 362.2,513.7 360.8,513.7 		"/>
		<polygon class="st2" points="365.5,513.7 362.9,501.6 364.5,501.6 366.4,510.6 368.1,501.6 369.7,501.6 367.1,513.7 365.5,513.7 
					"/>
		<polygon class="st2" points="370.4,513.7 370.4,501.6 371.9,501.6 371.9,513.7 370.4,513.7 		"/>
		<polygon class="st2" points="373.3,513.7 373.3,501.6 378.7,501.6 378.7,503.7 374.8,503.7 374.8,506.3 378.4,506.3 378.4,508.4 
			374.8,508.4 374.8,511.7 378.9,511.7 378.9,513.7 373.3,513.7 		"/>
		<polygon class="st2" points="381.8,513.7 381.8,503.7 379.6,503.7 379.6,501.6 385.4,501.6 385.4,503.7 383.2,503.7 383.2,513.7 
			381.8,513.7 		"/>
		<path class="st2" d="M385.9,507.7c0-1.2,0.1-2.3,0.3-3.1c0.2-0.6,0.4-1.2,0.7-1.7c0.3-0.5,0.6-0.9,0.9-1.1c0.5-0.3,1-0.5,1.6-0.5
			c1.1,0,1.9,0.6,2.6,1.7c0.6,1.1,1,2.7,1,4.6c0,2-0.3,3.5-1,4.6c-0.6,1.1-1.5,1.7-2.6,1.7c-1.1,0-2-0.5-2.6-1.6
			C386.2,511.2,385.9,509.7,385.9,507.7L385.9,507.7z M387.4,507.7c0,1.4,0.2,2.4,0.6,3.1c0.4,0.7,0.9,1.1,1.5,1.1
			c0.6,0,1.1-0.4,1.4-1.1c0.4-0.7,0.6-1.8,0.6-3.2c0-1.4-0.2-2.4-0.5-3.1c-0.4-0.7-0.9-1-1.5-1c-0.6,0-1.1,0.3-1.5,1
			C387.6,505.2,387.4,506.3,387.4,507.7L387.4,507.7z"/>
		<path class="st2" d="M396.9,501.6h2.7c0.6,0,1.1,0.1,1.4,0.2c0.4,0.2,0.8,0.6,1.1,1.1c0.3,0.5,0.5,1.2,0.7,2
			c0.2,0.8,0.2,1.7,0.2,2.9c0,1-0.1,1.9-0.2,2.6c-0.2,0.9-0.4,1.6-0.8,2.1c-0.3,0.4-0.6,0.7-1,1c-0.3,0.2-0.8,0.3-1.3,0.3h-2.8
			V501.6L396.9,501.6z M398.4,503.7v8h1.1c0.4,0,0.7,0,0.9-0.1c0.2-0.1,0.4-0.3,0.6-0.5c0.2-0.2,0.3-0.6,0.4-1.2
			c0.1-0.5,0.2-1.3,0.2-2.2c0-0.9-0.1-1.7-0.2-2.2c-0.1-0.5-0.2-0.9-0.4-1.2c-0.2-0.3-0.4-0.5-0.7-0.6c-0.2-0.1-0.6-0.1-1.2-0.1
			H398.4L398.4,503.7z"/>
		<polygon class="st2" points="404.3,513.7 404.3,501.6 405.7,501.6 405.7,513.7 404.3,513.7 		"/>
		<polygon class="st2" points="411.6,513.7 411.6,503.7 409.5,503.7 409.5,501.6 415.3,501.6 415.3,503.7 413.1,503.7 413.1,513.7 
			411.6,513.7 		"/>
		<path class="st2" d="M416.2,513.7v-12.1h3.1c0.8,0,1.3,0.1,1.7,0.3c0.4,0.2,0.6,0.6,0.9,1.2c0.2,0.6,0.3,1.2,0.3,1.9
			c0,0.9-0.2,1.7-0.5,2.3c-0.3,0.6-0.8,1-1.4,1.1c0.3,0.3,0.6,0.7,0.8,1c0.2,0.4,0.5,1,0.8,2l0.9,2.4H421l-1.1-2.6
			c-0.4-0.9-0.6-1.5-0.8-1.8c-0.1-0.2-0.3-0.4-0.4-0.5c-0.2-0.1-0.4-0.1-0.7-0.1h-0.3v5.1H416.2L416.2,513.7z M417.7,506.7h1.1
			c0.7,0,1.2,0,1.3-0.1c0.2-0.1,0.3-0.3,0.4-0.5c0.1-0.2,0.2-0.5,0.2-0.9c0-0.4-0.1-0.7-0.2-1c-0.1-0.3-0.3-0.4-0.6-0.5
			c-0.1,0-0.5,0-1.1,0h-1.2V506.7L417.7,506.7z"/>
		<path class="st2" d="M430.2,513.7h-1.6l-0.6-2.8H425l-0.6,2.8h-1.6l2.8-12.1h1.6L430.2,513.7L430.2,513.7z M427.5,508.9l-1-4.5
			l-1,4.5H427.5L427.5,508.9z"/>
		<polygon class="st2" points="431,513.7 431,501.6 432.4,501.6 435.4,509.7 435.4,501.6 436.8,501.6 436.8,513.7 435.3,513.7 
			432.4,505.8 432.4,513.7 431,513.7 		"/>
		<path class="st2" d="M438,509.8l1.4-0.2c0.1,0.8,0.3,1.4,0.5,1.8c0.3,0.4,0.6,0.6,1.1,0.6c0.5,0,0.8-0.2,1.1-0.5
			c0.2-0.3,0.4-0.7,0.4-1.2c0-0.3-0.1-0.5-0.2-0.7c-0.1-0.2-0.3-0.4-0.5-0.5c-0.2-0.1-0.6-0.3-1.2-0.5c-0.8-0.3-1.3-0.7-1.7-1.2
			c-0.5-0.7-0.7-1.5-0.7-2.4c0-0.6,0.1-1.2,0.3-1.7c0.2-0.5,0.5-0.9,0.9-1.2c0.4-0.3,0.9-0.4,1.4-0.4c0.9,0,1.6,0.3,2.1,1
			c0.5,0.7,0.7,1.6,0.7,2.7l-1.5,0.1c-0.1-0.6-0.2-1.1-0.4-1.3c-0.2-0.3-0.5-0.4-0.9-0.4c-0.4,0-0.8,0.1-1,0.4
			c-0.2,0.2-0.2,0.4-0.2,0.8c0,0.3,0.1,0.5,0.2,0.7c0.2,0.3,0.6,0.5,1.4,0.8c0.7,0.3,1.2,0.6,1.6,0.9c0.3,0.3,0.6,0.7,0.8,1.2
			c0.2,0.5,0.3,1.2,0.3,1.9c0,0.7-0.1,1.3-0.3,2c-0.2,0.6-0.6,1.1-1,1.4c-0.4,0.3-1,0.4-1.6,0.4c-0.9,0-1.6-0.4-2.1-1.1
			C438.4,512.2,438.1,511.1,438,509.8L438,509.8z"/>
		<polygon class="st2" points="445.1,513.7 445.1,501.6 446.6,501.6 446.6,513.7 445.1,513.7 		"/>
		<polygon class="st2" points="449.6,513.7 449.6,503.7 447.5,503.7 447.5,501.6 453.3,501.6 453.3,503.7 451.1,503.7 451.1,513.7 
			449.6,513.7 		"/>
		<path class="st2" d="M453.7,507.7c0-1.2,0.1-2.3,0.3-3.1c0.2-0.6,0.4-1.2,0.7-1.7c0.3-0.5,0.6-0.9,0.9-1.1c0.5-0.3,1-0.5,1.6-0.5
			c1.1,0,1.9,0.6,2.6,1.7c0.6,1.1,1,2.7,1,4.6c0,2-0.3,3.5-1,4.6c-0.6,1.1-1.5,1.7-2.6,1.7c-1.1,0-2-0.5-2.6-1.6
			C454.1,511.2,453.7,509.7,453.7,507.7L453.7,507.7z M455.3,507.7c0,1.4,0.2,2.4,0.6,3.1c0.4,0.7,0.9,1.1,1.5,1.1
			c0.6,0,1.1-0.4,1.4-1.1c0.4-0.7,0.6-1.8,0.6-3.2c0-1.4-0.2-2.4-0.6-3.1c-0.4-0.7-0.9-1-1.5-1c-0.6,0-1.1,0.3-1.5,1
			C455.5,505.2,455.3,506.3,455.3,507.7L455.3,507.7z"/>
		<path class="st2" d="M471.4,513.7h-1.6l-0.6-2.8h-2.9l-0.6,2.8h-1.6l2.8-12.1h1.6L471.4,513.7L471.4,513.7z M468.7,508.9l-1-4.5
			l-1,4.5H468.7L468.7,508.9z"/>
		<path class="st2" d="M472.5,507.3v-2.3h1.4v2.3H472.5L472.5,507.3z M472.5,513.7v-2.3h1.4v2.3H472.5L472.5,513.7z"/>
		<polygon class="st2" points="430.2,596.7 430.2,595.3 432.9,595.3 432.9,596.7 430.2,596.7 		"/>
		<path class="st2" d="M438.7,600.2l-2.7-11.6h1l1.8,8.4c0.1,0.7,0.3,1.3,0.4,1.9c0.1-0.6,0.2-1.3,0.4-1.9l1.9-8.4h1l-2.8,11.6
			H438.7L438.7,600.2z"/>
		<polygon class="st2" points="443.3,600.2 443.3,588.6 448.4,588.6 448.4,590 444.2,590 444.2,593.5 448.2,593.5 448.2,594.9 
			444.2,594.9 444.2,598.8 448.6,598.8 448.6,600.2 443.3,600.2 		"/>
		<polygon class="st2" points="450,600.2 450,588.6 451,588.6 451,600.2 450,600.2 		"/>
		<path class="st2" d="M457.7,596.1l0.9,0.4c-0.2,1.3-0.6,2.2-1.1,2.9c-0.5,0.7-1.1,1-1.9,1c-0.8,0-1.4-0.3-1.9-0.8
			c-0.5-0.5-0.8-1.2-1.1-2.2c-0.2-1-0.4-2-0.4-3.1c0-1.2,0.1-2.3,0.4-3.1c0.3-0.9,0.7-1.6,1.2-2c0.5-0.5,1.1-0.7,1.7-0.7
			c0.7,0,1.3,0.3,1.8,0.9c0.5,0.6,0.8,1.4,1,2.5l-0.9,0.4c-0.2-0.8-0.4-1.5-0.7-1.8c-0.3-0.4-0.7-0.6-1.2-0.6c-0.5,0-1,0.2-1.4,0.6
			c-0.4,0.4-0.6,1-0.8,1.7c-0.1,0.7-0.2,1.5-0.2,2.2c0,1,0.1,1.8,0.3,2.6c0.2,0.7,0.4,1.3,0.8,1.6c0.4,0.4,0.8,0.5,1.2,0.5
			c0.5,0,1-0.2,1.3-0.7C457.3,597.8,457.5,597.1,457.7,596.1L457.7,596.1z"/>
		<path class="st2" d="M459.5,594.5c0-1.9,0.3-3.4,0.9-4.5c0.6-1.1,1.4-1.6,2.4-1.6c0.7,0,1.2,0.3,1.8,0.8c0.5,0.5,0.9,1.2,1.2,2.1
			c0.3,0.9,0.4,1.9,0.4,3.1c0,1.2-0.1,2.2-0.4,3.1c-0.3,0.9-0.7,1.6-1.2,2.1c-0.5,0.5-1.1,0.7-1.7,0.7c-0.7,0-1.3-0.3-1.8-0.8
			c-0.5-0.5-0.9-1.2-1.2-2.2C459.6,596.5,459.5,595.5,459.5,594.5L459.5,594.5z M460.4,594.6c0,1.4,0.2,2.5,0.7,3.3
			c0.5,0.8,1,1.2,1.7,1.2c0.7,0,1.3-0.4,1.7-1.2c0.5-0.8,0.7-2,0.7-3.4c0-0.9-0.1-1.8-0.3-2.5c-0.2-0.7-0.5-1.2-0.9-1.6
			c-0.4-0.4-0.8-0.6-1.3-0.6c-0.7,0-1.2,0.4-1.7,1.1C460.7,591.6,460.4,592.8,460.4,594.6L460.4,594.6z"/>
		<polygon class="st2" points="467.4,600.2 467.4,588.6 468.3,588.6 468.3,598.8 471.8,598.8 471.8,600.2 467.4,600.2 		"/>
		<polygon class="st2" points="473.1,600.2 473.1,588.6 474,588.6 474,600.2 473.1,600.2 		"/>
		<path class="st2" d="M477.7,600.2l2.7-11.6h1l2.9,11.6h-1.1l-0.8-3.5h-3l-0.8,3.5H477.7L477.7,600.2z M479.7,595.4h2.4l-0.7-3.2
			c-0.2-1-0.4-1.8-0.5-2.4c-0.1,0.7-0.2,1.5-0.4,2.2L479.7,595.4L479.7,595.4z"/>
		<path class="st2" d="M489.7,588.6h0.9v6.7c0,1.2-0.1,2.1-0.2,2.8c-0.2,0.7-0.5,1.2-0.9,1.7c-0.4,0.4-1,0.6-1.7,0.6
			c-0.7,0-1.2-0.2-1.6-0.6c-0.4-0.4-0.7-0.9-0.9-1.6c-0.2-0.7-0.3-1.7-0.3-2.9v-6.7h0.9v6.7c0,1,0.1,1.7,0.2,2.2
			c0.1,0.5,0.3,0.8,0.6,1.1c0.3,0.3,0.6,0.4,1,0.4c0.7,0,1.2-0.3,1.5-0.8c0.3-0.5,0.4-1.5,0.4-2.9V588.6L489.7,588.6z"/>
		<polygon class="st2" points="494,600.2 494,590 491.6,590 491.6,588.6 497.2,588.6 497.2,590 494.9,590 494.9,600.2 494,600.2 		
			"/>
		<path class="st2" d="M497.7,594.5c0-1.9,0.3-3.4,0.9-4.5c0.6-1.1,1.4-1.6,2.4-1.6c0.7,0,1.2,0.3,1.8,0.8c0.5,0.5,0.9,1.2,1.2,2.1
			c0.3,0.9,0.4,1.9,0.4,3.1c0,1.2-0.1,2.2-0.4,3.1c-0.3,0.9-0.7,1.6-1.2,2.1c-0.5,0.5-1.1,0.7-1.7,0.7c-0.7,0-1.3-0.3-1.8-0.8
			c-0.5-0.5-0.9-1.2-1.2-2.2C497.9,596.5,497.7,595.5,497.7,594.5L497.7,594.5z M498.7,594.6c0,1.4,0.2,2.5,0.7,3.3
			c0.5,0.8,1,1.2,1.7,1.2c0.7,0,1.3-0.4,1.7-1.2c0.5-0.8,0.7-2,0.7-3.4c0-0.9-0.1-1.8-0.3-2.5c-0.2-0.7-0.5-1.2-0.9-1.6
			c-0.4-0.4-0.8-0.6-1.3-0.6c-0.7,0-1.2,0.4-1.7,1.1C498.9,591.6,498.7,592.8,498.7,594.6L498.7,594.6z"/>
		<path class="st2" d="M505.7,600.2v-11.6h3.1c0.6,0,1.1,0.1,1.4,0.3c0.3,0.2,0.6,0.6,0.8,1.1c0.2,0.5,0.3,1.1,0.3,1.7
			c0,0.8-0.2,1.5-0.5,2.1c-0.3,0.6-0.8,0.9-1.5,1.1c0.2,0.2,0.4,0.4,0.6,0.6c0.3,0.4,0.5,0.9,0.8,1.5l1.2,3.1h-1.2l-0.9-2.4
			c-0.3-0.7-0.5-1.2-0.7-1.6c-0.2-0.4-0.3-0.6-0.5-0.8c-0.1-0.1-0.3-0.2-0.4-0.3c-0.1,0-0.3-0.1-0.5-0.1h-1.1v5.1H505.7L505.7,600.2
			z M506.7,593.7h2c0.4,0,0.8-0.1,1-0.2c0.2-0.1,0.4-0.4,0.5-0.7c0.1-0.3,0.2-0.7,0.2-1c0-0.5-0.1-1-0.4-1.3
			c-0.2-0.4-0.6-0.5-1.2-0.5h-2.2V593.7L506.7,593.7z"/>
		<polygon class="st2" points="513,600.2 513,588.6 513.9,588.6 513.9,600.2 513,600.2 		"/>
		<path class="st2" d="M515,600.2v-1.4l3.6-7.4c0.3-0.5,0.5-1,0.7-1.4h-3.9v-1.4h5.1v1.4l-4,8l-0.4,0.8h4.5v1.4H515L515,600.2z"/>
		<path class="st2" d="M521.1,600.2v-1.4l3.6-7.4c0.3-0.5,0.5-1,0.7-1.4h-3.9v-1.4h5.1v1.4l-4,8l-0.4,0.8h4.5v1.4H521.1L521.1,600.2
			z"/>
		<path class="st2" d="M526.9,600.2l2.7-11.6h1l2.9,11.6h-1.1l-0.8-3.5h-3l-0.8,3.5H526.9L526.9,600.2z M528.9,595.4h2.4l-0.7-3.2
			c-0.2-1-0.4-1.8-0.5-2.4c-0.1,0.7-0.2,1.5-0.4,2.2L528.9,595.4L528.9,595.4z"/>
		<polygon class="st2" points="535.3,600.2 535.3,590 533,590 533,588.6 538.6,588.6 538.6,590 536.3,590 536.3,600.2 535.3,600.2 
					"/>
		<polygon class="st2" points="539.7,600.2 539.7,588.6 540.6,588.6 540.6,600.2 539.7,600.2 		"/>
		<path class="st2" d="M544.3,600.2l2.7-11.6h1l2.9,11.6h-1.1l-0.8-3.5h-3l-0.8,3.5H544.3L544.3,600.2z M546.3,595.4h2.4l-0.7-3.2
			c-0.2-1-0.4-1.8-0.5-2.4c-0.1,0.7-0.2,1.5-0.4,2.2L546.3,595.4L546.3,595.4z"/>
		<path class="st2" d="M554.1,596.5l0.9-0.1c0,0.6,0.1,1.1,0.3,1.4c0.2,0.4,0.4,0.7,0.7,0.9c0.3,0.2,0.7,0.3,1.1,0.3
			c0.4,0,0.7-0.1,0.9-0.3c0.3-0.2,0.5-0.4,0.6-0.7c0.1-0.3,0.2-0.6,0.2-1c0-0.4-0.1-0.7-0.2-0.9c-0.1-0.3-0.3-0.5-0.6-0.7
			c-0.2-0.1-0.6-0.3-1.3-0.6c-0.6-0.3-1.1-0.5-1.4-0.7c-0.3-0.3-0.6-0.6-0.8-1.1c-0.2-0.4-0.2-0.9-0.2-1.4c0-0.6,0.1-1.1,0.3-1.6
			c0.2-0.5,0.5-0.9,0.9-1.2c0.4-0.3,0.8-0.4,1.3-0.4c0.5,0,1,0.1,1.4,0.4c0.4,0.3,0.7,0.7,0.9,1.2c0.2,0.5,0.3,1.1,0.3,1.8l-0.9,0.1
			c-0.1-0.7-0.2-1.3-0.5-1.7c-0.3-0.4-0.7-0.6-1.2-0.6c-0.6,0-1,0.2-1.2,0.5c-0.3,0.3-0.4,0.7-0.4,1.2c0,0.4,0.1,0.8,0.3,1
			c0.2,0.3,0.7,0.5,1.4,0.8c0.8,0.3,1.3,0.5,1.6,0.7c0.4,0.3,0.7,0.7,0.9,1.2c0.2,0.5,0.3,1,0.3,1.6c0,0.6-0.1,1.2-0.3,1.7
			c-0.2,0.5-0.5,1-0.9,1.3c-0.4,0.3-0.9,0.5-1.4,0.5c-0.6,0-1.2-0.2-1.6-0.5c-0.4-0.3-0.8-0.8-1-1.4
			C554.2,597.9,554.1,597.2,554.1,596.5L554.1,596.5z"/>
		<polygon class="st2" points="561,600.2 561,588.6 566.1,588.6 566.1,590 561.9,590 561.9,593.5 565.8,593.5 565.8,594.9 
			561.9,594.9 561.9,598.8 566.3,598.8 566.3,600.2 561,600.2 		"/>
		<path class="st2" d="M567.6,600.2v-11.6h3.1c0.6,0,1.1,0.1,1.4,0.3c0.3,0.2,0.6,0.6,0.8,1.1c0.2,0.5,0.3,1.1,0.3,1.7
			c0,0.8-0.2,1.5-0.5,2.1c-0.3,0.6-0.8,0.9-1.5,1.1c0.2,0.2,0.4,0.4,0.6,0.6c0.3,0.4,0.5,0.9,0.8,1.5l1.2,3.1h-1.2l-0.9-2.4
			c-0.3-0.7-0.5-1.2-0.7-1.6c-0.2-0.4-0.3-0.6-0.5-0.8c-0.1-0.1-0.3-0.2-0.4-0.3c-0.1,0-0.3-0.1-0.5-0.1h-1.1v5.1H567.6L567.6,600.2
			z M568.5,593.7h2c0.4,0,0.8-0.1,1-0.2c0.2-0.1,0.4-0.4,0.5-0.7c0.1-0.3,0.2-0.7,0.2-1c0-0.5-0.1-1-0.4-1.3
			c-0.2-0.4-0.6-0.5-1.2-0.5h-2.2V593.7L568.5,593.7z"/>
		<path class="st2" d="M576.5,600.2l-2.7-11.6h1l1.8,8.4c0.1,0.7,0.3,1.3,0.4,1.9c0.1-0.6,0.2-1.3,0.4-1.9l1.9-8.4h1l-2.8,11.6
			H576.5L576.5,600.2z"/>
		<polygon class="st2" points="581.3,600.2 581.3,588.6 582.2,588.6 582.2,600.2 581.3,600.2 		"/>
		<path class="st2" d="M583.3,600.2v-1.4l3.6-7.4c0.3-0.5,0.5-1,0.7-1.4h-3.9v-1.4h5.1v1.4l-4,8l-0.4,0.8h4.5v1.4H583.3L583.3,600.2
			z"/>
		<polygon class="st2" points="590.1,600.2 590.1,588.6 591,588.6 591,600.2 590.1,600.2 		"/>
		<path class="st2" d="M592.4,594.5c0-1.9,0.3-3.4,0.9-4.5c0.6-1.1,1.4-1.6,2.4-1.6c0.7,0,1.2,0.3,1.8,0.8c0.5,0.5,0.9,1.2,1.2,2.1
			c0.3,0.9,0.4,1.9,0.4,3.1c0,1.2-0.1,2.2-0.4,3.1c-0.3,0.9-0.7,1.6-1.2,2.1c-0.5,0.5-1.1,0.7-1.7,0.7c-0.7,0-1.3-0.3-1.8-0.8
			c-0.5-0.5-0.9-1.2-1.2-2.2C592.5,596.5,592.4,595.5,592.4,594.5L592.4,594.5z M593.3,594.6c0,1.4,0.2,2.5,0.7,3.3
			c0.5,0.8,1,1.2,1.7,1.2c0.7,0,1.3-0.4,1.7-1.2c0.5-0.8,0.7-2,0.7-3.4c0-0.9-0.1-1.8-0.3-2.5c-0.2-0.7-0.5-1.2-0.9-1.6
			c-0.4-0.4-0.8-0.6-1.3-0.6c-0.7,0-1.2,0.4-1.7,1.1C593.6,591.6,593.3,592.8,593.3,594.6L593.3,594.6z"/>
		<path class="st2" d="M430.7,618.2v-11.6h2.4c0.5,0,1,0.1,1.3,0.2c0.4,0.2,0.8,0.4,1,0.8c0.4,0.5,0.7,1.2,0.8,2
			c0.2,0.8,0.3,1.7,0.3,2.7c0,0.9-0.1,1.7-0.2,2.3c-0.1,0.7-0.3,1.2-0.5,1.7c-0.2,0.4-0.4,0.8-0.6,1c-0.2,0.3-0.5,0.4-0.8,0.6
			c-0.3,0.1-0.7,0.2-1.1,0.2H430.7L430.7,618.2z M431.6,616.8h1.5c0.5,0,0.8-0.1,1.1-0.2c0.3-0.1,0.5-0.3,0.6-0.6
			c0.2-0.4,0.4-0.8,0.5-1.5c0.1-0.6,0.2-1.4,0.2-2.2c0-1.2-0.1-2.1-0.4-2.8c-0.2-0.7-0.5-1.1-0.9-1.3c-0.2-0.2-0.7-0.2-1.2-0.2h-1.5
			V616.8L431.6,616.8z"/>
		<polygon class="st2" points="437.9,618.2 437.9,606.6 438.9,606.6 438.9,618.2 437.9,618.2 		"/>
		<path class="st2" d="M443.3,618.2v-11.6h2.7c0.5,0,0.8,0,1.1,0.1c0.3,0.1,0.6,0.3,0.9,0.5c0.2,0.3,0.4,0.6,0.6,1.1
			c0.1,0.5,0.2,1,0.2,1.6c0,1-0.2,1.8-0.6,2.5c-0.4,0.7-1.1,1-2.1,1h-1.8v4.7H443.3L443.3,618.2z M444.2,612.1h1.8
			c0.6,0,1-0.2,1.3-0.5c0.3-0.4,0.4-0.9,0.4-1.6c0-0.5-0.1-0.9-0.2-1.2c-0.2-0.3-0.3-0.6-0.6-0.7c-0.2-0.1-0.4-0.1-0.9-0.1h-1.8
			V612.1L444.2,612.1z"/>
		<polygon class="st2" points="449.9,618.2 449.9,606.6 455,606.6 455,608 450.8,608 450.8,611.5 454.7,611.5 454.7,612.9 
			450.8,612.9 450.8,616.8 455.2,616.8 455.2,618.2 449.9,618.2 		"/>
		<path class="st2" d="M456.5,618.2v-11.6h3.1c0.6,0,1.1,0.1,1.4,0.3c0.3,0.2,0.6,0.6,0.8,1.1c0.2,0.5,0.3,1.1,0.3,1.7
			c0,0.8-0.2,1.5-0.5,2.1c-0.3,0.6-0.8,0.9-1.5,1.1c0.2,0.2,0.4,0.4,0.6,0.6c0.3,0.4,0.5,0.9,0.8,1.5l1.2,3.1h-1.2l-0.9-2.4
			c-0.3-0.7-0.5-1.2-0.7-1.6c-0.2-0.4-0.3-0.6-0.5-0.8c-0.1-0.1-0.3-0.3-0.4-0.3c-0.1,0-0.3-0.1-0.5-0.1h-1.1v5.1H456.5L456.5,618.2
			z M457.4,611.7h2c0.4,0,0.8-0.1,1-0.2c0.2-0.1,0.4-0.4,0.5-0.7c0.1-0.3,0.2-0.7,0.2-1c0-0.5-0.1-1-0.4-1.3
			c-0.2-0.4-0.6-0.5-1.2-0.5h-2.2V611.7L457.4,611.7z"/>
		<path class="st2" d="M463.3,614.5l0.9-0.1c0,0.6,0.1,1.1,0.3,1.4c0.2,0.4,0.4,0.7,0.7,0.9c0.3,0.2,0.7,0.3,1.1,0.3
			c0.4,0,0.7-0.1,0.9-0.3c0.3-0.2,0.5-0.4,0.6-0.7c0.1-0.3,0.2-0.6,0.2-1c0-0.4-0.1-0.7-0.2-1c-0.1-0.3-0.3-0.5-0.6-0.7
			c-0.2-0.1-0.6-0.3-1.3-0.6c-0.6-0.3-1.1-0.5-1.4-0.7c-0.3-0.3-0.6-0.6-0.8-1.1c-0.2-0.4-0.2-0.9-0.2-1.4c0-0.6,0.1-1.1,0.3-1.6
			c0.2-0.5,0.5-0.9,0.9-1.2c0.4-0.3,0.8-0.4,1.3-0.4c0.5,0,1,0.1,1.4,0.4c0.4,0.3,0.7,0.7,0.9,1.2c0.2,0.5,0.3,1.1,0.3,1.8l-0.9,0.1
			c0-0.7-0.2-1.3-0.5-1.7c-0.3-0.4-0.7-0.6-1.2-0.6c-0.6,0-1,0.2-1.2,0.5c-0.3,0.3-0.4,0.7-0.4,1.2c0,0.4,0.1,0.8,0.3,1
			c0.2,0.3,0.6,0.5,1.4,0.8c0.8,0.3,1.3,0.5,1.6,0.7c0.4,0.3,0.7,0.7,0.9,1.2c0.2,0.5,0.3,1,0.3,1.6c0,0.6-0.1,1.2-0.3,1.7
			c-0.2,0.5-0.5,1-0.9,1.3c-0.4,0.3-0.9,0.5-1.4,0.5c-0.6,0-1.2-0.2-1.6-0.5c-0.4-0.3-0.8-0.8-1-1.4
			C463.4,615.9,463.3,615.3,463.3,614.5L463.3,614.5z"/>
		<path class="st2" d="M469.9,612.6c0-1.9,0.3-3.4,0.9-4.5c0.6-1.1,1.4-1.6,2.4-1.6c0.7,0,1.2,0.3,1.8,0.8c0.5,0.5,0.9,1.2,1.2,2.1
			c0.3,0.9,0.4,1.9,0.4,3.1c0,1.2-0.1,2.2-0.4,3.1c-0.3,0.9-0.7,1.6-1.2,2.1c-0.5,0.5-1.1,0.7-1.7,0.7c-0.7,0-1.3-0.3-1.8-0.8
			c-0.5-0.5-0.9-1.2-1.2-2.2C470,614.5,469.9,613.6,469.9,612.6L469.9,612.6z M470.9,612.6c0,1.4,0.2,2.5,0.7,3.3
			c0.5,0.8,1,1.2,1.7,1.2c0.7,0,1.3-0.4,1.7-1.2c0.5-0.8,0.7-2,0.7-3.4c0-0.9-0.1-1.8-0.3-2.5c-0.2-0.7-0.5-1.2-0.9-1.6
			c-0.4-0.4-0.8-0.6-1.3-0.6c-0.7,0-1.2,0.4-1.7,1.1C471.1,609.6,470.9,610.9,470.9,612.6L470.9,612.6z"/>
		<polygon class="st2" points="477.9,618.2 477.9,606.6 478.8,606.6 482.5,615.7 482.5,606.6 483.4,606.6 483.4,618.2 482.5,618.2 
			478.8,609.1 478.8,618.2 477.9,618.2 		"/>
		<polygon class="st2" points="485,618.2 485,606.6 490.1,606.6 490.1,608 486,608 486,611.5 489.9,611.5 489.9,612.9 486,612.9 
			486,616.8 490.3,616.8 490.3,618.2 485,618.2 		"/>
		<polygon class="st2" points="494.5,618.2 494.5,606.6 495.4,606.6 495.4,618.2 494.5,618.2 		"/>
		<polygon class="st2" points="497.1,618.2 497.1,606.6 498,606.6 501.8,615.7 501.8,606.6 502.7,606.6 502.7,618.2 501.7,618.2 
			498,609.1 498,618.2 497.1,618.2 		"/>
		<path class="st2" d="M506.3,618.2l-2.7-11.6h1l1.8,8.4c0.1,0.7,0.3,1.3,0.4,1.9c0.1-0.6,0.2-1.3,0.4-1.9l1.9-8.4h1l-2.8,11.6
			H506.3L506.3,618.2z"/>
		<path class="st2" d="M509.3,618.2l2.7-11.6h1l2.9,11.6h-1.1l-0.8-3.5h-3l-0.8,3.5H509.3L509.3,618.2z M511.4,613.4h2.4l-0.7-3.2
			c-0.2-1-0.4-1.8-0.5-2.4c-0.1,0.7-0.2,1.5-0.4,2.2L511.4,613.4L511.4,613.4z"/>
		<polygon class="st2" points="516.6,618.2 516.6,606.6 517.6,606.6 517.6,616.8 521.1,616.8 521.1,618.2 516.6,618.2 		"/>
		<polygon class="st2" points="522.3,618.2 522.3,606.6 523.3,606.6 523.3,618.2 522.3,618.2 		"/>
		<path class="st2" d="M524.9,618.2v-11.6h2.4c0.5,0,1,0.1,1.3,0.2c0.4,0.2,0.8,0.4,1,0.8c0.4,0.5,0.7,1.2,0.8,2
			c0.2,0.8,0.3,1.7,0.3,2.7c0,0.9-0.1,1.7-0.2,2.3c-0.1,0.7-0.3,1.2-0.5,1.7c-0.2,0.4-0.4,0.8-0.6,1c-0.2,0.3-0.5,0.4-0.8,0.6
			c-0.3,0.1-0.7,0.2-1.1,0.2H524.9L524.9,618.2z M525.9,616.8h1.5c0.5,0,0.8-0.1,1.1-0.2c0.3-0.1,0.5-0.3,0.6-0.6
			c0.2-0.4,0.4-0.8,0.5-1.5c0.1-0.6,0.2-1.4,0.2-2.2c0-1.2-0.1-2.1-0.4-2.8c-0.2-0.7-0.5-1.1-0.9-1.3c-0.3-0.2-0.7-0.2-1.2-0.2h-1.5
			V616.8L525.9,616.8z"/>
		<polygon class="st2" points="532.1,618.2 532.1,606.6 537.2,606.6 537.2,608 533,608 533,611.5 536.9,611.5 536.9,612.9 
			533,612.9 533,616.8 537.4,616.8 537.4,618.2 532.1,618.2 		"/>
		<polygon class="st2" points="430.4,673.4 430.4,672 433,672 433,673.4 430.4,673.4 		"/>
		<path class="st2" d="M436.7,676.9v-11.6h2.6c0.5,0,0.8,0,1.1,0.1c0.3,0.1,0.6,0.3,0.9,0.5c0.2,0.3,0.4,0.6,0.6,1.1
			c0.1,0.5,0.2,1,0.2,1.6c0,1-0.2,1.8-0.6,2.5c-0.4,0.7-1.1,1-2,1h-1.8v4.7H436.7L436.7,676.9z M437.7,670.8h1.8
			c0.6,0,1-0.2,1.3-0.6c0.2-0.4,0.4-0.9,0.4-1.6c0-0.5-0.1-0.9-0.2-1.2c-0.1-0.3-0.3-0.6-0.6-0.7c-0.2-0.1-0.4-0.1-0.9-0.1h-1.8
			V670.8L437.7,670.8z"/>
		<path class="st2" d="M442.9,671.2c0-1.9,0.3-3.4,0.9-4.5c0.6-1.1,1.4-1.6,2.4-1.6c0.6,0,1.2,0.3,1.7,0.8c0.5,0.5,0.9,1.2,1.2,2.1
			c0.3,0.9,0.4,1.9,0.4,3.1c0,1.2-0.1,2.2-0.4,3.1c-0.3,0.9-0.7,1.6-1.2,2.1c-0.5,0.5-1.1,0.7-1.7,0.7c-0.7,0-1.2-0.3-1.8-0.8
			c-0.5-0.5-0.9-1.2-1.2-2.2C443.1,673.2,442.9,672.3,442.9,671.2L442.9,671.2z M443.9,671.3c0,1.4,0.2,2.5,0.7,3.3
			c0.5,0.8,1,1.2,1.7,1.2c0.7,0,1.3-0.4,1.7-1.2c0.4-0.8,0.7-2,0.7-3.4c0-0.9-0.1-1.8-0.3-2.5c-0.2-0.7-0.5-1.2-0.8-1.6
			c-0.4-0.4-0.8-0.6-1.2-0.6c-0.7,0-1.2,0.4-1.7,1.1C444.1,668.3,443.9,669.5,443.9,671.3L443.9,671.3z"/>
		<polygon class="st2" points="450.8,676.9 450.8,665.3 451.7,665.3 451.7,675.5 455.1,675.5 455.1,676.9 450.8,676.9 		"/>
		<polygon class="st2" points="456.4,676.9 456.4,665.3 457.3,665.3 457.3,676.9 456.4,676.9 		"/>
		<path class="st2" d="M458.3,676.9v-1.4l3.6-7.4c0.3-0.5,0.5-1,0.7-1.4h-3.9v-1.4h5v1.4l-3.9,8l-0.4,0.8h4.4v1.4H458.3L458.3,676.9
			z"/>
		<polygon class="st2" points="465,676.9 465,665.3 465.9,665.3 465.9,676.9 465,676.9 		"/>
		<path class="st2" d="M466.8,676.9l2.7-11.6h1l2.8,11.6h-1.1l-0.8-3.5h-2.9l-0.8,3.5H466.8L466.8,676.9z M468.8,672.1h2.4l-0.7-3.2
			c-0.2-1-0.4-1.8-0.5-2.4c-0.1,0.7-0.2,1.5-0.4,2.2L468.8,672.1L468.8,672.1z"/>
		<path class="st2" d="M474.1,676.9v-1.6h1v1.6c0,0.6-0.1,1.1-0.2,1.4c-0.1,0.4-0.3,0.6-0.6,0.8l-0.2-0.6c0.2-0.1,0.3-0.3,0.4-0.6
			c0.1-0.3,0.1-0.6,0.1-1.1H474.1L474.1,676.9z"/>
		<path class="st2" d="M478.7,676.9l2.7-11.6h1l2.8,11.6h-1.1l-0.8-3.5h-2.9l-0.8,3.5H478.7L478.7,676.9z M480.7,672.1h2.4l-0.7-3.2
			c-0.2-1-0.4-1.8-0.5-2.4c-0.1,0.7-0.2,1.5-0.4,2.2L480.7,672.1L480.7,672.1z"/>
		<path class="st2" d="M485.9,676.9v-11.6h1.4l1.6,8.2c0.2,0.8,0.3,1.3,0.3,1.7c0.1-0.4,0.2-1,0.4-1.9l1.7-8h1.2v11.6h-0.9v-9.7
			l-2,9.7h-0.8l-2-9.8v9.8H485.9L485.9,676.9z"/>
		<path class="st2" d="M494,676.9v-11.6h2.6c0.5,0,1,0.1,1.3,0.3c0.3,0.2,0.6,0.6,0.8,1.1c0.2,0.5,0.3,1,0.3,1.5
			c0,0.5-0.1,1-0.2,1.4c-0.2,0.4-0.4,0.8-0.7,1.1c0.4,0.2,0.7,0.6,1,1c0.2,0.5,0.3,1.1,0.3,1.8c0,0.5-0.1,1-0.2,1.5
			c-0.1,0.5-0.3,0.8-0.5,1.1c-0.2,0.3-0.5,0.4-0.8,0.6c-0.3,0.1-0.7,0.2-1.1,0.2H494L494,676.9z M494.9,670.2h1.5
			c0.4,0,0.7,0,0.9-0.1c0.2-0.1,0.4-0.3,0.5-0.6c0.1-0.3,0.2-0.6,0.2-1c0-0.4-0.1-0.7-0.2-1c-0.1-0.3-0.3-0.5-0.5-0.6
			c-0.2-0.1-0.6-0.2-1.1-0.2h-1.4V670.2L494.9,670.2z M494.9,675.5h1.7c0.3,0,0.5,0,0.6-0.1c0.2-0.1,0.4-0.2,0.5-0.3
			c0.1-0.1,0.3-0.4,0.4-0.6c0.1-0.3,0.1-0.6,0.1-1c0-0.4-0.1-0.8-0.2-1.1c-0.1-0.3-0.3-0.5-0.6-0.7c-0.2-0.1-0.6-0.2-1-0.2h-1.6
			V675.5L494.9,675.5z"/>
		<path class="st2" d="M505.1,665.3h0.9v6.7c0,1.2-0.1,2.1-0.2,2.8c-0.2,0.7-0.4,1.2-0.9,1.7c-0.4,0.4-1,0.6-1.6,0.6
			c-0.7,0-1.2-0.2-1.6-0.6c-0.4-0.4-0.7-0.9-0.9-1.6c-0.2-0.7-0.3-1.7-0.3-2.9v-6.7h0.9v6.7c0,1,0.1,1.7,0.2,2.2
			c0.1,0.5,0.3,0.8,0.6,1.1c0.3,0.3,0.6,0.4,1,0.4c0.7,0,1.2-0.3,1.4-0.8c0.3-0.5,0.4-1.5,0.4-2.9V665.3L505.1,665.3z"/>
		<polygon class="st2" points="507.5,676.9 507.5,665.3 508.4,665.3 508.4,675.5 511.8,675.5 511.8,676.9 507.5,676.9 		"/>
		<path class="st2" d="M512.2,676.9l2.7-11.6h1l2.8,11.6h-1l-0.8-3.5h-2.9l-0.8,3.5H512.2L512.2,676.9z M514.2,672.1h2.4l-0.7-3.2
			c-0.2-1-0.4-1.8-0.5-2.4c-0.1,0.7-0.2,1.5-0.4,2.2L514.2,672.1L514.2,672.1z"/>
		<polygon class="st2" points="519.4,676.9 519.4,665.3 520.3,665.3 524,674.4 524,665.3 524.9,665.3 524.9,676.9 523.9,676.9 
			520.3,667.8 520.3,676.9 519.4,676.9 		"/>
		<path class="st2" d="M525.9,676.9v-1.4l3.6-7.4c0.3-0.5,0.5-1,0.7-1.4h-3.9v-1.4h5v1.4l-3.9,8l-0.4,0.8h4.4v1.4H525.9L525.9,676.9
			z"/>
		<polygon class="st2" points="532.4,676.9 532.4,665.3 537.4,665.3 537.4,666.7 533.3,666.7 533.3,670.2 537.2,670.2 537.2,671.6 
			533.3,671.6 533.3,675.5 537.6,675.5 537.6,676.9 532.4,676.9 		"/>
		<path class="st2" d="M539,676.9v-1.6h1v1.6c0,0.6-0.1,1.1-0.2,1.4c-0.1,0.4-0.3,0.6-0.6,0.8l-0.2-0.6c0.2-0.1,0.3-0.3,0.4-0.6
			c0.1-0.3,0.1-0.6,0.1-1.1H539L539,676.9z"/>
		<path class="st2" d="M432.8,694.9l-2.7-11.6h1l1.8,8.4c0.1,0.7,0.3,1.3,0.4,1.9c0.1-0.6,0.2-1.3,0.4-1.9l1.9-8.4h0.9l-2.7,11.6
			H432.8L432.8,694.9z"/>
		<polygon class="st2" points="437.4,694.9 437.4,683.3 438.4,683.3 438.4,694.9 437.4,694.9 		"/>
		<path class="st2" d="M443.2,690.4V689l2.9,0v4.3c-0.5,0.6-0.9,1-1.4,1.4c-0.5,0.3-1,0.5-1.5,0.5c-0.7,0-1.3-0.2-1.9-0.7
			c-0.6-0.5-1-1.2-1.3-2.1c-0.3-0.9-0.4-1.9-0.4-3.1c0-1.1,0.1-2.2,0.4-3.1c0.3-1,0.7-1.7,1.2-2.2c0.5-0.5,1.1-0.7,1.8-0.7
			c0.5,0,1,0.1,1.4,0.4c0.4,0.3,0.7,0.6,1,1.1c0.2,0.5,0.4,1.1,0.5,1.9l-0.8,0.4c-0.1-0.6-0.2-1.1-0.4-1.4c-0.2-0.3-0.4-0.6-0.7-0.8
			c-0.3-0.2-0.6-0.3-1-0.3c-0.4,0-0.8,0.1-1.1,0.3c-0.3,0.2-0.6,0.5-0.7,0.8c-0.2,0.3-0.3,0.7-0.4,1.1c-0.2,0.7-0.3,1.5-0.3,2.3
			c0,1,0.1,1.9,0.3,2.6c0.2,0.7,0.5,1.2,0.9,1.5c0.4,0.3,0.8,0.5,1.3,0.5c0.4,0,0.8-0.1,1.2-0.4c0.4-0.3,0.7-0.5,0.9-0.8v-2.2H443.2
			L443.2,690.4z"/>
		<polygon class="st2" points="447.7,694.9 447.7,683.3 448.6,683.3 448.6,694.9 447.7,694.9 		"/>
		<polygon class="st2" points="450.2,694.9 450.2,683.3 451.1,683.3 451.1,693.5 454.6,693.5 454.6,694.9 450.2,694.9 		"/>
		<polygon class="st2" points="455.8,694.9 455.8,683.3 456.7,683.3 456.7,694.9 455.8,694.9 		"/>
		<path class="st2" d="M461.1,694.9v-11.6h2.4c0.5,0,1,0.1,1.2,0.2c0.4,0.2,0.7,0.4,1,0.8c0.4,0.5,0.6,1.2,0.8,2
			c0.2,0.8,0.3,1.7,0.3,2.7c0,0.9-0.1,1.7-0.2,2.3c-0.1,0.7-0.3,1.2-0.5,1.7c-0.2,0.4-0.4,0.8-0.6,1c-0.2,0.3-0.5,0.4-0.8,0.6
			c-0.3,0.1-0.7,0.2-1.1,0.2H461.1L461.1,694.9z M462,693.5h1.5c0.5,0,0.8-0.1,1.1-0.2c0.3-0.1,0.5-0.3,0.6-0.6
			c0.2-0.4,0.4-0.9,0.5-1.5c0.1-0.6,0.2-1.4,0.2-2.2c0-1.2-0.1-2.1-0.4-2.8c-0.2-0.7-0.5-1.1-0.9-1.3c-0.2-0.2-0.6-0.2-1.2-0.2H462
			V693.5L462,693.5z"/>
		<polygon class="st2" points="468.1,694.9 468.1,683.3 473.1,683.3 473.1,684.7 469,684.7 469,688.2 472.9,688.2 472.9,689.6 
			469,689.6 469,693.5 473.3,693.5 473.3,694.9 468.1,694.9 		"/>
		<polygon class="st2" points="474.5,694.9 474.5,683.3 475.5,683.3 475.5,693.5 478.9,693.5 478.9,694.9 474.5,694.9 		"/>
		<polygon class="st2" points="482.7,694.9 482.7,683.3 487.4,683.3 487.4,684.7 483.6,684.7 483.6,688.3 486.9,688.3 486.9,689.6 
			483.6,689.6 483.6,694.9 482.7,694.9 		"/>
		<path class="st2" d="M493.2,683.3h0.9v6.7c0,1.2-0.1,2.1-0.2,2.8c-0.2,0.7-0.4,1.2-0.9,1.7c-0.4,0.4-1,0.6-1.6,0.6
			c-0.7,0-1.2-0.2-1.6-0.6c-0.4-0.4-0.7-0.9-0.9-1.6c-0.2-0.7-0.3-1.7-0.3-2.9v-6.7h0.9v6.7c0,1,0.1,1.7,0.2,2.2
			c0.1,0.5,0.3,0.8,0.6,1.1c0.3,0.3,0.6,0.4,1,0.4c0.7,0,1.2-0.3,1.4-0.8c0.3-0.5,0.4-1.5,0.4-2.9V683.3L493.2,683.3z"/>
		<path class="st2" d="M495.4,689.3c0-1.9,0.3-3.4,0.9-4.5c0.6-1.1,1.4-1.6,2.4-1.6c0.6,0,1.2,0.3,1.7,0.8c0.5,0.5,0.9,1.2,1.2,2.1
			c0.3,0.9,0.4,1.9,0.4,3.1c0,1.2-0.1,2.2-0.4,3.1c-0.3,0.9-0.7,1.6-1.2,2.1c-0.5,0.5-1.1,0.7-1.7,0.7c-0.7,0-1.2-0.3-1.8-0.8
			c-0.5-0.5-0.9-1.2-1.2-2.2C495.5,691.2,495.4,690.3,495.4,689.3L495.4,689.3z M496.3,689.3c0,1.4,0.2,2.5,0.7,3.3
			c0.5,0.8,1,1.2,1.7,1.2c0.7,0,1.3-0.4,1.7-1.2c0.4-0.8,0.7-2,0.7-3.4c0-0.9-0.1-1.8-0.3-2.5c-0.2-0.7-0.5-1.2-0.8-1.6
			c-0.4-0.4-0.8-0.6-1.2-0.6c-0.7,0-1.2,0.4-1.7,1.1C496.5,686.3,496.3,687.6,496.3,689.3L496.3,689.3z"/>
		<path class="st2" d="M508.2,690.8l0.9,0.4c-0.2,1.3-0.5,2.2-1,2.9c-0.5,0.7-1.1,1-1.8,1c-0.8,0-1.4-0.3-1.8-0.8
			c-0.5-0.5-0.8-1.2-1.1-2.2c-0.2-1-0.4-2-0.4-3.1c0-1.2,0.1-2.3,0.4-3.1c0.3-0.9,0.7-1.6,1.2-2c0.5-0.5,1.1-0.7,1.7-0.7
			c0.7,0,1.3,0.3,1.8,0.9c0.5,0.6,0.8,1.4,1,2.5l-0.9,0.4c-0.2-0.8-0.4-1.5-0.7-1.8c-0.3-0.4-0.7-0.6-1.2-0.6c-0.5,0-1,0.2-1.3,0.6
			c-0.4,0.4-0.6,1-0.8,1.7c-0.1,0.7-0.2,1.5-0.2,2.2c0,1,0.1,1.8,0.3,2.6c0.2,0.7,0.4,1.3,0.8,1.6c0.4,0.4,0.8,0.5,1.2,0.5
			c0.5,0,1-0.2,1.3-0.7C507.8,692.5,508,691.8,508.2,690.8L508.2,690.8z"/>
		<path class="st2" d="M509.9,689.3c0-1.9,0.3-3.4,0.9-4.5c0.6-1.1,1.4-1.6,2.4-1.6c0.6,0,1.2,0.3,1.7,0.8c0.5,0.5,0.9,1.2,1.2,2.1
			c0.3,0.9,0.4,1.9,0.4,3.1c0,1.2-0.1,2.2-0.4,3.1c-0.3,0.9-0.7,1.6-1.2,2.1c-0.5,0.5-1.1,0.7-1.7,0.7c-0.7,0-1.2-0.3-1.8-0.8
			c-0.5-0.5-0.9-1.2-1.2-2.2C510.1,691.2,509.9,690.3,509.9,689.3L509.9,689.3z M510.9,689.3c0,1.4,0.2,2.5,0.7,3.3
			c0.5,0.8,1,1.2,1.7,1.2c0.7,0,1.3-0.4,1.7-1.2c0.4-0.8,0.7-2,0.7-3.4c0-0.9-0.1-1.8-0.3-2.5c-0.2-0.7-0.5-1.2-0.8-1.6
			c-0.4-0.4-0.8-0.6-1.2-0.6c-0.7,0-1.2,0.4-1.7,1.1C511.1,686.3,510.9,687.6,510.9,689.3L510.9,689.3z"/>
		<path class="st2" d="M432.3,716.3c-0.5-1-0.9-2.1-1.2-3.5c-0.3-1.3-0.5-2.7-0.5-4.1c0-1.2,0.1-2.4,0.4-3.6c0.3-1.3,0.7-2.7,1.3-4
			h0.6c-0.4,1.1-0.6,1.9-0.8,2.3c-0.2,0.7-0.3,1.5-0.5,2.3c-0.1,1-0.2,2-0.2,3c0,2.5,0.5,5.1,1.4,7.6H432.3L432.3,716.3z"/>
		<path class="st2" d="M433.6,710.4l0.8-0.2c0,0.6,0.2,1,0.4,1.3c0.2,0.3,0.5,0.4,0.9,0.4c0.4,0,0.7-0.1,0.9-0.4
			c0.2-0.3,0.3-0.6,0.3-0.9c0-0.3-0.1-0.6-0.3-0.8c-0.1-0.1-0.4-0.3-0.9-0.5c-0.6-0.3-1.1-0.5-1.3-0.7c-0.2-0.2-0.4-0.5-0.6-0.8
			c-0.1-0.3-0.2-0.7-0.2-1.1c0-0.4,0.1-0.7,0.2-1c0.1-0.3,0.2-0.6,0.4-0.8c0.1-0.2,0.3-0.3,0.5-0.4c0.2-0.1,0.5-0.2,0.7-0.2
			c0.4,0,0.7,0.1,1,0.3c0.3,0.2,0.5,0.4,0.7,0.8c0.1,0.3,0.2,0.8,0.3,1.3l-0.8,0.2c0-0.4-0.1-0.8-0.3-1c-0.2-0.2-0.4-0.4-0.8-0.4
			c-0.4,0-0.7,0.1-0.8,0.3c-0.2,0.2-0.3,0.5-0.3,0.8c0,0.2,0,0.3,0.1,0.5c0.1,0.2,0.2,0.3,0.3,0.4c0.1,0.1,0.3,0.2,0.8,0.4
			c0.6,0.3,1,0.5,1.3,0.7c0.2,0.2,0.4,0.4,0.6,0.7c0.1,0.3,0.2,0.7,0.2,1.2c0,0.5-0.1,0.9-0.2,1.3c-0.2,0.4-0.4,0.7-0.7,1
			c-0.3,0.2-0.7,0.3-1.1,0.3c-0.7,0-1.2-0.2-1.5-0.7C433.9,712,433.7,711.3,433.6,710.4L433.6,710.4z"/>
		<path class="st2" d="M438.5,708.7c0-1.5,0.3-2.7,0.8-3.4c0.4-0.6,1-0.9,1.6-0.9c0.7,0,1.3,0.4,1.7,1.1c0.4,0.8,0.7,1.8,0.7,3.1
			c0,1.1-0.1,1.9-0.3,2.5c-0.2,0.6-0.5,1.1-0.8,1.4c-0.4,0.3-0.8,0.5-1.2,0.5c-0.7,0-1.3-0.4-1.7-1.1
			C438.7,711.2,438.5,710.2,438.5,708.7L438.5,708.7z M439.4,708.7c0,1.1,0.1,1.9,0.4,2.4c0.3,0.5,0.6,0.8,1.1,0.8
			c0.4,0,0.8-0.3,1.1-0.8c0.3-0.5,0.4-1.4,0.4-2.5c0-1-0.1-1.8-0.4-2.4c-0.3-0.5-0.6-0.8-1.1-0.8c-0.4,0-0.8,0.3-1.1,0.8
			C439.5,706.9,439.4,707.7,439.4,708.7L439.4,708.7z"/>
		<polygon class="st2" points="444.2,712.9 444.2,701.4 445,701.4 445,712.9 444.2,712.9 		"/>
		<path class="st2" d="M446,708.7c0-1.5,0.3-2.7,0.8-3.4c0.4-0.6,1-0.9,1.6-0.9c0.7,0,1.3,0.4,1.7,1.1c0.4,0.8,0.7,1.8,0.7,3.1
			c0,1.1-0.1,1.9-0.3,2.5c-0.2,0.6-0.5,1.1-0.8,1.4c-0.4,0.3-0.8,0.5-1.2,0.5c-0.7,0-1.3-0.4-1.7-1.1
			C446.3,711.2,446,710.2,446,708.7L446,708.7z M446.9,708.7c0,1.1,0.1,1.9,0.4,2.4c0.3,0.5,0.6,0.8,1.1,0.8c0.4,0,0.8-0.3,1.1-0.8
			c0.3-0.5,0.4-1.4,0.4-2.5c0-1-0.1-1.8-0.4-2.4c-0.3-0.5-0.6-0.8-1.1-0.8c-0.4,0-0.8,0.3-1.1,0.8
			C447.1,706.9,446.9,707.7,446.9,708.7L446.9,708.7z"/>
		<path class="st2" d="M454.5,703v-1.6h0.9v1.6H454.5L454.5,703z M454.5,712.9v-8.4h0.9v8.4H454.5L454.5,712.9z"/>
		<path class="st2" d="M456.6,712.9v-8.4h0.8v1.2c0.4-0.9,0.9-1.4,1.6-1.4c0.3,0,0.6,0.1,0.8,0.3c0.3,0.2,0.4,0.4,0.6,0.7
			c0.1,0.3,0.2,0.6,0.3,1c0,0.3,0,0.7,0,1.4v5.1h-0.9v-5.1c0-0.6,0-1-0.1-1.3c-0.1-0.3-0.2-0.5-0.4-0.7c-0.2-0.2-0.4-0.3-0.6-0.3
			c-0.4,0-0.7,0.2-0.9,0.6c-0.3,0.4-0.4,1.1-0.4,2.2v4.6H456.6L456.6,712.9z"/>
		<path class="st2" d="M464.4,710.4l0.8-0.2c0,0.6,0.2,1,0.4,1.3c0.2,0.3,0.5,0.4,0.9,0.4c0.4,0,0.7-0.1,0.9-0.4
			c0.2-0.3,0.3-0.6,0.3-0.9c0-0.3-0.1-0.6-0.3-0.8c-0.1-0.1-0.4-0.3-0.9-0.5c-0.6-0.3-1.1-0.5-1.3-0.7c-0.2-0.2-0.4-0.5-0.6-0.8
			c-0.1-0.3-0.2-0.7-0.2-1.1c0-0.4,0.1-0.7,0.2-1c0.1-0.3,0.2-0.6,0.4-0.8c0.1-0.2,0.3-0.3,0.5-0.4c0.2-0.1,0.5-0.2,0.7-0.2
			c0.4,0,0.7,0.1,1,0.3c0.3,0.2,0.5,0.4,0.7,0.8c0.1,0.3,0.2,0.8,0.3,1.3l-0.8,0.2c0-0.4-0.1-0.8-0.3-1c-0.2-0.2-0.4-0.4-0.8-0.4
			c-0.4,0-0.7,0.1-0.8,0.3c-0.2,0.2-0.3,0.5-0.3,0.8c0,0.2,0,0.3,0.1,0.5c0.1,0.2,0.2,0.3,0.3,0.4c0.1,0.1,0.3,0.2,0.8,0.4
			c0.6,0.3,1,0.5,1.3,0.7c0.2,0.2,0.4,0.4,0.6,0.7c0.1,0.3,0.2,0.7,0.2,1.2c0,0.5-0.1,0.9-0.2,1.3c-0.2,0.4-0.4,0.7-0.7,1
			c-0.3,0.2-0.7,0.3-1.1,0.3c-0.7,0-1.2-0.2-1.5-0.7C464.7,712,464.5,711.3,464.4,710.4L464.4,710.4z"/>
		<path class="st2" d="M473,710.2l0.9,0.2c-0.1,0.9-0.4,1.5-0.8,2c-0.4,0.5-0.9,0.7-1.4,0.7c-0.7,0-1.3-0.4-1.8-1.1
			c-0.4-0.8-0.6-1.8-0.6-3.2c0-1.4,0.2-2.5,0.7-3.3c0.4-0.8,1-1.2,1.7-1.2c0.7,0,1.2,0.4,1.7,1.1c0.4,0.8,0.6,1.8,0.6,3.2
			c0,0.1,0,0.2,0,0.4h-3.8c0,0.9,0.2,1.6,0.5,2.1c0.3,0.5,0.6,0.7,1.1,0.7c0.3,0,0.6-0.1,0.8-0.4C472.7,711.3,472.9,710.8,473,710.2
			L473,710.2z M470.2,707.9h2.8c0-0.7-0.1-1.2-0.3-1.6c-0.3-0.5-0.6-0.8-1.1-0.8c-0.4,0-0.7,0.2-1,0.7
			C470.4,706.6,470.3,707.2,470.2,707.9L470.2,707.9z"/>
		<path class="st2" d="M475,712.9v-8.4h0.8v1.3c0.2-0.6,0.4-1,0.5-1.2c0.2-0.2,0.3-0.3,0.5-0.3c0.3,0,0.6,0.2,0.9,0.5l-0.3,1.3
			c-0.2-0.2-0.4-0.3-0.6-0.3c-0.2,0-0.4,0.1-0.5,0.3c-0.1,0.2-0.3,0.4-0.3,0.8c-0.1,0.5-0.1,1.1-0.1,1.7v4.4H475L475,712.9z"/>
		<path class="st2" d="M479.6,712.9l-1.9-8.4h0.9l1.1,5c0.1,0.5,0.2,1.1,0.3,1.7c0.1-0.4,0.2-1,0.3-1.6l1.1-5.1h0.9l-1.9,8.4H479.6
			L479.6,712.9z"/>
		<path class="st2" d="M483.1,703v-1.6h0.9v1.6H483.1L483.1,703z M483.1,712.9v-8.4h0.9v8.4H483.1L483.1,712.9z"/>
		<path class="st2" d="M484.8,712.9v-1.2l3.2-6.1c-0.4,0-0.7,0-1,0H485v-1.1h4.1v0.9l-2.7,5.3l-0.5,1c0.4,0,0.7-0.1,1.1-0.1h2.3v1.2
			H484.8L484.8,712.9z"/>
		<path class="st2" d="M490.1,703v-1.6h0.9v1.6H490.1L490.1,703z M490.1,712.9v-8.4h0.9v8.4H490.1L490.1,712.9z"/>
		<path class="st2" d="M492,708.7c0-1.5,0.3-2.7,0.8-3.4c0.4-0.6,1-0.9,1.6-0.9c0.7,0,1.3,0.4,1.7,1.1c0.4,0.8,0.7,1.8,0.7,3.1
			c0,1.1-0.1,1.9-0.3,2.5c-0.2,0.6-0.5,1.1-0.8,1.4c-0.4,0.3-0.8,0.5-1.2,0.5c-0.7,0-1.3-0.4-1.7-1.1
			C492.2,711.2,492,710.2,492,708.7L492,708.7z M492.8,708.7c0,1.1,0.1,1.9,0.4,2.4c0.3,0.5,0.6,0.8,1.1,0.8c0.4,0,0.8-0.3,1.1-0.8
			c0.3-0.5,0.4-1.4,0.4-2.5c0-1-0.1-1.8-0.4-2.4c-0.3-0.5-0.6-0.8-1.1-0.8c-0.4,0-0.8,0.3-1.1,0.8
			C493,706.9,492.8,707.7,492.8,708.7L492.8,708.7z"/>
		<path class="st2" d="M503.7,712.9v-1.2c-0.4,0.9-0.9,1.4-1.6,1.4c-0.3,0-0.6-0.1-0.8-0.3c-0.3-0.2-0.4-0.4-0.6-0.7
			c-0.1-0.3-0.2-0.6-0.3-1.1c0-0.3-0.1-0.7-0.1-1.3v-5.2h0.9v4.6c0,0.7,0,1.2,0.1,1.5c0.1,0.4,0.2,0.7,0.3,0.9
			c0.2,0.2,0.4,0.3,0.6,0.3c0.3,0,0.5-0.1,0.7-0.3c0.2-0.2,0.4-0.5,0.5-0.9c0.1-0.4,0.1-0.9,0.1-1.6v-4.5h0.9v8.4H503.7L503.7,712.9
			z"/>
		<path class="st2" d="M505.8,712.9v-8.4h0.8v1.3c0.2-0.6,0.4-1,0.5-1.2c0.2-0.2,0.3-0.3,0.5-0.3c0.3,0,0.6,0.2,0.9,0.5l-0.3,1.3
			c-0.2-0.2-0.4-0.3-0.6-0.3c-0.2,0-0.4,0.1-0.5,0.3c-0.1,0.2-0.3,0.4-0.3,0.8c-0.1,0.5-0.1,1.1-0.1,1.7v4.4H505.8L505.8,712.9z"/>
		<path class="st2" d="M508.9,713.6l0.8,0.2c0,0.4,0.1,0.7,0.3,0.9c0.2,0.3,0.5,0.4,0.9,0.4c0.4,0,0.7-0.1,0.9-0.4
			c0.2-0.3,0.4-0.6,0.4-1.1c0-0.3,0.1-0.9,0.1-1.8c-0.4,0.7-0.8,1.1-1.4,1.1c-0.7,0-1.2-0.4-1.6-1.2c-0.4-0.8-0.6-1.8-0.6-3
			c0-0.8,0.1-1.5,0.3-2.2c0.2-0.7,0.4-1.2,0.8-1.6c0.3-0.4,0.7-0.6,1.2-0.6c0.6,0,1.1,0.4,1.5,1.2v-1h0.8v7.2c0,1.3-0.1,2.2-0.2,2.8
			c-0.2,0.5-0.4,1-0.8,1.3c-0.3,0.3-0.8,0.5-1.3,0.5c-0.6,0-1.1-0.2-1.5-0.7C509,715.2,508.9,714.5,508.9,713.6L508.9,713.6z
			 M509.6,708.6c0,1.1,0.1,1.9,0.4,2.4c0.3,0.5,0.6,0.8,1,0.8c0.4,0,0.7-0.3,1-0.8c0.3-0.5,0.4-1.3,0.4-2.4c0-1-0.1-1.8-0.4-2.3
			c-0.3-0.5-0.6-0.8-1-0.8c-0.4,0-0.7,0.3-1,0.8C509.7,706.8,509.6,707.6,509.6,708.6L509.6,708.6z"/>
		<path class="st2" d="M517.9,710.2l0.9,0.2c-0.1,0.9-0.4,1.5-0.8,2c-0.4,0.5-0.9,0.7-1.4,0.7c-0.7,0-1.3-0.4-1.8-1.1
			c-0.4-0.8-0.6-1.8-0.6-3.2c0-1.4,0.2-2.5,0.7-3.3c0.4-0.8,1-1.2,1.7-1.2c0.7,0,1.2,0.4,1.7,1.1c0.4,0.8,0.6,1.8,0.6,3.2
			c0,0.1,0,0.2,0,0.4H515c0,0.9,0.2,1.6,0.5,2.1c0.3,0.5,0.6,0.7,1.1,0.7c0.3,0,0.6-0.1,0.8-0.4
			C517.6,711.3,517.7,710.8,517.9,710.2L517.9,710.2z M515.1,707.9h2.8c0-0.7-0.1-1.2-0.3-1.6c-0.3-0.5-0.6-0.8-1.1-0.8
			c-0.4,0-0.7,0.2-1,0.7C515.3,706.6,515.1,707.2,515.1,707.9L515.1,707.9z"/>
		<path class="st2" d="M519.8,712.9v-8.4h0.8v1.2c0.4-0.9,0.9-1.4,1.6-1.4c0.3,0,0.6,0.1,0.8,0.3c0.3,0.2,0.4,0.4,0.6,0.7
			c0.1,0.3,0.2,0.6,0.3,1c0,0.3,0,0.7,0,1.4v5.1h-0.9v-5.1c0-0.6,0-1-0.1-1.3c-0.1-0.3-0.2-0.5-0.4-0.7c-0.2-0.2-0.4-0.3-0.6-0.3
			c-0.4,0-0.7,0.2-0.9,0.6c-0.3,0.4-0.4,1.1-0.4,2.2v4.6H519.8L519.8,712.9z"/>
		<path class="st2" d="M527.1,711.7l0.1,1.3c-0.2,0.1-0.5,0.1-0.6,0.1c-0.3,0-0.6-0.1-0.7-0.2c-0.2-0.2-0.3-0.4-0.4-0.6
			c-0.1-0.3-0.1-0.8-0.1-1.7v-4.8h-0.6v-1.1h0.6v-2.1l0.8-0.8v2.9h0.9v1.1h-0.9v4.9c0,0.4,0,0.7,0,0.8c0,0.1,0.1,0.2,0.1,0.3
			c0.1,0.1,0.2,0.1,0.3,0.1C526.8,711.7,526.9,711.7,527.1,711.7L527.1,711.7z"/>
		<path class="st2" d="M531.4,710.2l0.9,0.2c-0.1,0.9-0.4,1.5-0.8,2c-0.4,0.5-0.9,0.7-1.4,0.7c-0.7,0-1.3-0.4-1.8-1.1
			c-0.4-0.8-0.6-1.8-0.6-3.2c0-1.4,0.2-2.5,0.7-3.3c0.4-0.8,1-1.2,1.7-1.2c0.7,0,1.2,0.4,1.7,1.1c0.4,0.8,0.6,1.8,0.6,3.2
			c0,0.1,0,0.2,0,0.4h-3.8c0,0.9,0.2,1.6,0.5,2.1s0.6,0.7,1.1,0.7c0.3,0,0.6-0.1,0.8-0.4C531.1,711.3,531.3,710.8,531.4,710.2
			L531.4,710.2z M528.6,707.9h2.8c0-0.7-0.1-1.2-0.3-1.6c-0.3-0.5-0.6-0.8-1.1-0.8c-0.4,0-0.7,0.2-1,0.7
			C528.8,706.6,528.6,707.2,528.6,707.9L528.6,707.9z"/>
		<path class="st2" d="M539.3,712.9v-1.1c-0.3,0.8-0.8,1.2-1.4,1.2c-0.4,0-0.8-0.2-1.1-0.6c-0.3-0.4-0.6-0.9-0.8-1.5
			c-0.2-0.7-0.3-1.4-0.3-2.3c0-0.8,0.1-1.6,0.3-2.3c0.2-0.7,0.4-1.2,0.8-1.6c0.3-0.4,0.7-0.5,1.1-0.5c0.3,0,0.6,0.1,0.8,0.3
			c0.2,0.2,0.4,0.5,0.6,0.8v-4.1h0.8v11.6H539.3L539.3,712.9z M536.6,708.7c0,1.1,0.1,1.9,0.4,2.4c0.3,0.5,0.6,0.8,1,0.8
			c0.4,0,0.7-0.3,1-0.8c0.3-0.5,0.4-1.3,0.4-2.3c0-1.1-0.1-2-0.4-2.5c-0.3-0.5-0.6-0.8-1-0.8c-0.4,0-0.7,0.3-1,0.8
			C536.7,706.8,536.6,707.6,536.6,708.7L536.6,708.7z"/>
		<path class="st2" d="M541.5,703v-1.6h0.9v1.6H541.5L541.5,703z M541.5,712.9v-8.4h0.9v8.4H541.5L541.5,712.9z"/>
		<path class="st2" d="M549.8,710.2l0.9,0.2c-0.1,0.9-0.4,1.5-0.8,2c-0.4,0.5-0.9,0.7-1.4,0.7c-0.7,0-1.3-0.4-1.8-1.1
			c-0.4-0.8-0.6-1.8-0.6-3.2c0-1.4,0.2-2.5,0.7-3.3c0.4-0.8,1-1.2,1.7-1.2c0.7,0,1.2,0.4,1.7,1.1c0.4,0.8,0.6,1.8,0.6,3.2
			c0,0.1,0,0.2,0,0.4h-3.8c0,0.9,0.2,1.6,0.5,2.1c0.3,0.5,0.6,0.7,1.1,0.7c0.3,0,0.6-0.1,0.8-0.4
			C549.5,711.3,549.6,710.8,549.8,710.2L549.8,710.2z M547,707.9h2.8c0-0.7-0.1-1.2-0.3-1.6c-0.3-0.5-0.6-0.8-1.1-0.8
			c-0.4,0-0.7,0.2-1,0.7C547.1,706.6,547,707.2,547,707.9L547,707.9z"/>
		<path class="st2" d="M551.7,712.9v-8.4h0.8v1.2c0.2-0.4,0.4-0.7,0.6-1c0.3-0.3,0.6-0.4,0.9-0.4c0.4,0,0.7,0.1,0.9,0.4
			c0.2,0.3,0.4,0.6,0.5,1.1c0.4-1,0.9-1.5,1.6-1.5c0.5,0,0.9,0.2,1.2,0.7c0.3,0.5,0.4,1.2,0.4,2.1v5.7h-0.8v-5.3c0-0.6,0-1-0.1-1.2
			c-0.1-0.2-0.2-0.5-0.3-0.6c-0.1-0.2-0.3-0.2-0.5-0.2c-0.4,0-0.6,0.2-0.9,0.6c-0.2,0.4-0.4,1-0.4,1.9v4.9h-0.9v-5.4
			c0-0.6-0.1-1.1-0.2-1.4c-0.1-0.3-0.4-0.5-0.7-0.5c-0.2,0-0.5,0.1-0.7,0.3c-0.2,0.2-0.4,0.5-0.4,0.9c-0.1,0.4-0.1,1-0.1,1.8v4.3
			H551.7L551.7,712.9z"/>
		<path class="st2" d="M563.3,710.2l0.9,0.2c-0.1,0.9-0.4,1.5-0.8,2c-0.4,0.5-0.9,0.7-1.4,0.7c-0.7,0-1.3-0.4-1.8-1.1
			c-0.4-0.8-0.6-1.8-0.6-3.2c0-1.4,0.2-2.5,0.7-3.3c0.4-0.8,1-1.2,1.7-1.2c0.7,0,1.2,0.4,1.6,1.1c0.4,0.8,0.6,1.8,0.6,3.2
			c0,0.1,0,0.2,0,0.4h-3.8c0,0.9,0.2,1.6,0.5,2.1c0.3,0.5,0.6,0.7,1.1,0.7c0.3,0,0.6-0.1,0.8-0.4C563,711.3,563.1,710.8,563.3,710.2
			L563.3,710.2z M560.5,707.9h2.8c0-0.7-0.1-1.2-0.3-1.6c-0.3-0.5-0.6-0.8-1.1-0.8c-0.4,0-0.7,0.2-1,0.7
			C560.6,706.6,560.5,707.2,560.5,707.9L560.5,707.9z"/>
		<path class="st2" d="M565.2,712.9v-8.4h0.8v1.3c0.2-0.6,0.4-1,0.5-1.2c0.2-0.2,0.3-0.3,0.5-0.3c0.3,0,0.6,0.2,0.9,0.5l-0.3,1.3
			c-0.2-0.2-0.4-0.3-0.6-0.3c-0.2,0-0.4,0.1-0.5,0.3c-0.1,0.2-0.3,0.4-0.3,0.8c-0.1,0.5-0.1,1.1-0.1,1.7v4.4H565.2L565.2,712.9z"/>
		<path class="st2" d="M568.3,713.6l0.8,0.2c0,0.4,0.1,0.7,0.3,0.9c0.2,0.3,0.5,0.4,0.9,0.4c0.4,0,0.7-0.1,0.9-0.4
			c0.2-0.3,0.4-0.6,0.4-1.1c0-0.3,0.1-0.9,0.1-1.8c-0.4,0.7-0.8,1.1-1.4,1.1c-0.7,0-1.2-0.4-1.6-1.2c-0.4-0.8-0.6-1.8-0.6-3
			c0-0.8,0.1-1.5,0.3-2.2c0.2-0.7,0.4-1.2,0.8-1.6c0.3-0.4,0.7-0.6,1.2-0.6c0.6,0,1.1,0.4,1.5,1.2v-1h0.8v7.2c0,1.3-0.1,2.2-0.2,2.8
			c-0.2,0.5-0.4,1-0.8,1.3c-0.3,0.3-0.8,0.5-1.3,0.5c-0.6,0-1.1-0.2-1.5-0.7C568.5,715.2,568.3,714.5,568.3,713.6L568.3,713.6z
			 M569,708.6c0,1.1,0.1,1.9,0.4,2.4c0.3,0.5,0.6,0.8,1,0.8c0.4,0,0.7-0.3,1-0.8c0.3-0.5,0.4-1.3,0.4-2.4c0-1-0.1-1.8-0.4-2.3
			c-0.3-0.5-0.6-0.8-1-0.8c-0.4,0-0.7,0.3-1,0.8C569.1,706.8,569,707.6,569,708.6L569,708.6z"/>
		<path class="st2" d="M577.3,710.2l0.9,0.2c-0.1,0.9-0.4,1.5-0.8,2c-0.4,0.5-0.9,0.7-1.4,0.7c-0.7,0-1.3-0.4-1.8-1.1
			c-0.4-0.8-0.6-1.8-0.6-3.2c0-1.4,0.2-2.5,0.7-3.3c0.4-0.8,1-1.2,1.7-1.2c0.7,0,1.2,0.4,1.6,1.1c0.4,0.8,0.6,1.8,0.6,3.2
			c0,0.1,0,0.2,0,0.4h-3.8c0,0.9,0.2,1.6,0.5,2.1c0.3,0.5,0.6,0.7,1.1,0.7c0.3,0,0.6-0.1,0.8-0.4C577,711.3,577.2,710.8,577.3,710.2
			L577.3,710.2z M574.5,707.9h2.8c0-0.7-0.1-1.2-0.3-1.6c-0.3-0.5-0.6-0.8-1.1-0.8c-0.4,0-0.7,0.2-1,0.7
			C574.7,706.6,574.5,707.2,574.5,707.9L574.5,707.9z"/>
		<path class="st2" d="M579.3,712.9v-8.4h0.8v1.2c0.4-0.9,0.9-1.4,1.6-1.4c0.3,0,0.6,0.1,0.8,0.3c0.3,0.2,0.4,0.4,0.6,0.7
			c0.1,0.3,0.2,0.6,0.3,1c0,0.3,0,0.7,0,1.4v5.1h-0.9v-5.1c0-0.6,0-1-0.1-1.3c-0.1-0.3-0.2-0.5-0.4-0.7c-0.2-0.2-0.4-0.3-0.6-0.3
			c-0.4,0-0.7,0.2-0.9,0.6c-0.3,0.4-0.4,1.1-0.4,2.2v4.6H579.3L579.3,712.9z"/>
		<path class="st2" d="M584.2,712.9v-1.2l3.2-6.1c-0.4,0-0.7,0-1,0h-2.1v-1.1h4.1v0.9l-2.7,5.3l-0.5,1c0.4,0,0.7-0.1,1.1-0.1h2.3
			v1.2H584.2L584.2,712.9z"/>
		<path class="st2" d="M592.8,711.9c-0.3,0.4-0.6,0.8-0.9,0.9c-0.3,0.2-0.6,0.3-0.9,0.3c-0.6,0-1-0.2-1.3-0.7
			c-0.3-0.4-0.4-1-0.4-1.7c0-0.4,0.1-0.8,0.2-1.1c0.1-0.3,0.3-0.6,0.4-0.8c0.2-0.2,0.4-0.4,0.6-0.5c0.2-0.1,0.4-0.1,0.8-0.2
			c0.7-0.1,1.2-0.3,1.5-0.5c0-0.2,0-0.3,0-0.4c0-0.6-0.1-1-0.2-1.2c-0.2-0.3-0.5-0.5-1-0.5c-0.4,0-0.7,0.1-0.9,0.3
			c-0.2,0.2-0.3,0.6-0.4,1.2l-0.8-0.2c0.1-0.6,0.2-1.1,0.4-1.4c0.2-0.4,0.4-0.6,0.8-0.8c0.3-0.2,0.7-0.3,1.1-0.3
			c0.4,0,0.8,0.1,1,0.3c0.3,0.2,0.5,0.4,0.6,0.6c0.1,0.3,0.2,0.6,0.3,1c0,0.2,0,0.7,0,1.3v1.9c0,1.3,0,2.2,0.1,2.5
			c0,0.3,0.1,0.7,0.2,1H593C592.9,712.6,592.9,712.3,592.8,711.9L592.8,711.9z M592.8,708.7c-0.3,0.2-0.8,0.4-1.4,0.5
			c-0.4,0.1-0.6,0.2-0.7,0.3c-0.1,0.1-0.3,0.3-0.3,0.5c-0.1,0.2-0.1,0.4-0.1,0.7c0,0.4,0.1,0.7,0.3,0.9c0.2,0.2,0.4,0.4,0.8,0.4
			c0.3,0,0.6-0.1,0.9-0.4c0.3-0.2,0.4-0.6,0.6-1c0.1-0.3,0.1-0.8,0.1-1.4V708.7L592.8,708.7z"/>
		<path class="st2" d="M595.5,716.3h-0.6c0.9-2.5,1.4-5,1.4-7.6c0-1-0.1-2-0.2-2.9c-0.1-0.8-0.3-1.5-0.5-2.3
			c-0.1-0.5-0.4-1.3-0.8-2.4h0.6c0.6,1.3,1,2.6,1.3,4c0.2,1.1,0.4,2.3,0.4,3.6c0,1.4-0.2,2.8-0.5,4.1
			C596.4,714.2,596,715.3,595.5,716.3L595.5,716.3z"/>
		<polygon class="st2" points="430.2,749.6 430.2,748.2 432.8,748.2 432.8,749.6 430.2,749.6 		"/>
		<path class="st2" d="M438.6,753.1l-2.7-11.6h1l1.8,8.4c0.1,0.7,0.3,1.3,0.4,1.9c0.1-0.6,0.2-1.3,0.4-1.9l1.9-8.4h0.9l-2.7,11.6
			H438.6L438.6,753.1z"/>
		<polygon class="st2" points="443.1,753.1 443.1,741.5 448.1,741.5 448.1,742.9 444,742.9 444,746.4 447.9,746.4 447.9,747.8 
			444,747.8 444,751.7 448.3,751.7 448.3,753.1 443.1,753.1 		"/>
		<polygon class="st2" points="449.7,753.1 449.7,741.5 450.6,741.5 450.6,753.1 449.7,753.1 		"/>
		<path class="st2" d="M457.2,749l0.9,0.4c-0.2,1.3-0.5,2.2-1,2.9c-0.5,0.7-1.1,1-1.8,1c-0.8,0-1.4-0.3-1.8-0.8
			c-0.5-0.5-0.8-1.2-1.1-2.2c-0.2-1-0.4-2-0.4-3.1c0-1.2,0.1-2.3,0.4-3.1c0.3-0.9,0.7-1.6,1.2-2c0.5-0.5,1.1-0.7,1.7-0.7
			c0.7,0,1.3,0.3,1.8,0.9c0.5,0.6,0.8,1.4,1,2.5l-0.9,0.4c-0.2-0.8-0.4-1.5-0.7-1.8c-0.3-0.4-0.7-0.6-1.2-0.6c-0.5,0-1,0.2-1.3,0.6
			c-0.4,0.4-0.6,1-0.8,1.7c-0.1,0.7-0.2,1.5-0.2,2.2c0,1,0.1,1.8,0.3,2.6c0.2,0.7,0.4,1.3,0.8,1.6c0.4,0.4,0.8,0.5,1.2,0.5
			c0.5,0,1-0.2,1.3-0.7C456.9,750.7,457.1,750,457.2,749L457.2,749z"/>
		<path class="st2" d="M459,747.5c0-1.9,0.3-3.4,0.9-4.5c0.6-1.1,1.4-1.6,2.4-1.6c0.6,0,1.2,0.3,1.7,0.8c0.5,0.5,0.9,1.2,1.2,2.1
			c0.3,0.9,0.4,1.9,0.4,3.1c0,1.2-0.1,2.2-0.4,3.1c-0.3,0.9-0.7,1.6-1.2,2.1c-0.5,0.5-1.1,0.7-1.7,0.7c-0.7,0-1.2-0.3-1.8-0.8
			c-0.5-0.5-0.9-1.2-1.2-2.2C459.1,749.4,459,748.5,459,747.5L459,747.5z M459.9,747.5c0,1.4,0.2,2.5,0.7,3.3c0.5,0.8,1,1.2,1.7,1.2
			c0.7,0,1.3-0.4,1.7-1.2c0.4-0.8,0.7-2,0.7-3.4c0-0.9-0.1-1.8-0.3-2.5c-0.2-0.7-0.5-1.2-0.8-1.6c-0.4-0.4-0.8-0.6-1.2-0.6
			c-0.7,0-1.2,0.4-1.7,1.1C460.2,744.5,459.9,745.7,459.9,747.5L459.9,747.5z"/>
		<polygon class="st2" points="466.8,753.1 466.8,741.5 467.7,741.5 467.7,751.7 471.1,751.7 471.1,753.1 466.8,753.1 		"/>
		<polygon class="st2" points="472.4,753.1 472.4,741.5 473.3,741.5 473.3,753.1 472.4,753.1 		"/>
		<path class="st2" d="M477.6,753.1v-11.6h1.4l1.6,8.2c0.2,0.8,0.3,1.3,0.3,1.7c0.1-0.4,0.2-1,0.4-1.9l1.7-8h1.2v11.6h-0.9v-9.7
			l-2,9.7h-0.8l-2-9.8v9.8H477.6L477.6,753.1z"/>
		<polygon class="st2" points="485.8,753.1 485.8,741.5 490.8,741.5 490.8,742.9 486.7,742.9 486.7,746.4 490.5,746.4 490.5,747.8 
			486.7,747.8 486.7,751.7 491,751.7 491,753.1 485.8,753.1 		"/>
		<path class="st2" d="M492.2,753.1v-11.6h3.1c0.6,0,1.1,0.1,1.4,0.3c0.3,0.2,0.6,0.6,0.8,1.1c0.2,0.5,0.3,1.1,0.3,1.7
			c0,0.8-0.2,1.5-0.5,2.1c-0.3,0.6-0.8,0.9-1.5,1.1c0.2,0.2,0.4,0.4,0.6,0.6c0.3,0.4,0.5,0.9,0.8,1.5l1.2,3.1h-1.2l-0.9-2.4
			c-0.3-0.7-0.5-1.2-0.7-1.6c-0.2-0.4-0.3-0.6-0.5-0.8c-0.1-0.1-0.3-0.3-0.4-0.3c-0.1,0-0.3-0.1-0.5-0.1h-1.1v5.1H492.2L492.2,753.1
			z M493.2,746.6h2c0.4,0,0.8-0.1,1-0.2c0.2-0.1,0.4-0.4,0.5-0.7c0.1-0.3,0.2-0.7,0.2-1c0-0.5-0.1-1-0.4-1.3
			c-0.2-0.4-0.6-0.5-1.1-0.5h-2.2V746.6L493.2,746.6z"/>
		<path class="st2" d="M504.2,749l0.9,0.4c-0.2,1.3-0.5,2.2-1,2.9c-0.5,0.7-1.1,1-1.8,1c-0.8,0-1.4-0.3-1.8-0.8
			c-0.5-0.5-0.8-1.2-1.1-2.2c-0.2-1-0.4-2-0.4-3.1c0-1.2,0.1-2.3,0.4-3.1c0.3-0.9,0.7-1.6,1.2-2c0.5-0.5,1.1-0.7,1.7-0.7
			c0.7,0,1.3,0.3,1.8,0.9c0.5,0.6,0.8,1.4,1,2.5l-0.9,0.4c-0.2-0.8-0.4-1.5-0.7-1.8c-0.3-0.4-0.7-0.6-1.2-0.6c-0.5,0-1,0.2-1.3,0.6
			c-0.4,0.4-0.6,1-0.8,1.7c-0.1,0.7-0.2,1.5-0.2,2.2c0,1,0.1,1.8,0.3,2.6c0.2,0.7,0.4,1.3,0.8,1.6c0.4,0.4,0.8,0.5,1.2,0.5
			c0.5,0,1-0.2,1.3-0.7C503.8,750.7,504.1,750,504.2,749L504.2,749z"/>
		<polygon class="st2" points="506.4,753.1 506.4,741.5 507.3,741.5 507.3,753.1 506.4,753.1 		"/>
		<path class="st2" d="M510.9,753.1l2.7-11.6h1l2.8,11.6h-1l-0.8-3.5h-2.9l-0.8,3.5H510.9L510.9,753.1z M512.9,748.3h2.4l-0.7-3.2
			c-0.2-1-0.4-1.8-0.5-2.4c-0.1,0.7-0.2,1.5-0.4,2.2L512.9,748.3L512.9,748.3z"/>
		<path class="st2" d="M522.7,741.5h0.9v6.7c0,1.2-0.1,2.1-0.2,2.8c-0.2,0.7-0.4,1.2-0.9,1.7c-0.4,0.4-1,0.6-1.6,0.6
			c-0.7,0-1.2-0.2-1.6-0.6c-0.4-0.4-0.7-0.9-0.9-1.6c-0.2-0.7-0.3-1.7-0.3-2.9v-6.7h0.9v6.7c0,1,0.1,1.7,0.2,2.2
			c0.1,0.5,0.3,0.8,0.6,1.1c0.3,0.3,0.6,0.4,1,0.4c0.7,0,1.2-0.3,1.4-0.8c0.3-0.5,0.4-1.5,0.4-2.9V741.5L522.7,741.5z"/>
		<polygon class="st2" points="526.9,753.1 526.9,742.9 524.7,742.9 524.7,741.5 530.2,741.5 530.2,742.9 527.9,742.9 527.9,753.1 
			526.9,753.1 		"/>
		<path class="st2" d="M530.7,747.5c0-1.9,0.3-3.4,0.9-4.5c0.6-1.1,1.4-1.6,2.4-1.6c0.6,0,1.2,0.3,1.7,0.8c0.5,0.5,0.9,1.2,1.2,2.1
			c0.3,0.9,0.4,1.9,0.4,3.1c0,1.2-0.1,2.2-0.4,3.1c-0.3,0.9-0.7,1.6-1.2,2.1c-0.5,0.5-1.1,0.7-1.7,0.7c-0.7,0-1.2-0.3-1.8-0.8
			c-0.5-0.5-0.9-1.2-1.2-2.2C530.8,749.4,530.7,748.5,530.7,747.5L530.7,747.5z M531.6,747.5c0,1.4,0.2,2.5,0.7,3.3
			c0.5,0.8,1,1.2,1.7,1.2c0.7,0,1.3-0.4,1.7-1.2c0.4-0.8,0.7-2,0.7-3.4c0-0.9-0.1-1.8-0.3-2.5c-0.2-0.7-0.5-1.2-0.8-1.6
			c-0.4-0.4-0.8-0.6-1.2-0.6c-0.7,0-1.2,0.4-1.7,1.1C531.8,744.5,531.6,745.7,531.6,747.5L531.6,747.5z"/>
		<path class="st2" d="M538.5,753.1v-11.6h3.1c0.6,0,1.1,0.1,1.4,0.3c0.3,0.2,0.6,0.6,0.8,1.1c0.2,0.5,0.3,1.1,0.3,1.7
			c0,0.8-0.2,1.5-0.5,2.1c-0.3,0.6-0.8,0.9-1.5,1.1c0.2,0.2,0.4,0.4,0.6,0.6c0.3,0.4,0.5,0.9,0.8,1.5l1.2,3.1h-1.2l-0.9-2.4
			c-0.3-0.7-0.5-1.2-0.7-1.6c-0.2-0.4-0.3-0.6-0.5-0.8c-0.1-0.1-0.3-0.3-0.4-0.3c-0.1,0-0.3-0.1-0.5-0.1h-1.1v5.1H538.5L538.5,753.1
			z M539.4,746.6h2c0.4,0,0.8-0.1,1-0.2c0.2-0.1,0.4-0.4,0.5-0.7c0.1-0.3,0.2-0.7,0.2-1c0-0.5-0.1-1-0.4-1.3
			c-0.2-0.4-0.6-0.5-1.1-0.5h-2.2V746.6L539.4,746.6z"/>
		<polygon class="st2" points="545.7,753.1 545.7,741.5 546.6,741.5 546.6,753.1 545.7,753.1 		"/>
		<path class="st2" d="M547.7,753.1v-1.4l3.6-7.4c0.3-0.5,0.5-1,0.7-1.4h-3.9v-1.4h5v1.4l-3.9,8l-0.4,0.8h4.4v1.4H547.7L547.7,753.1
			z"/>
		<path class="st2" d="M553.6,753.1v-1.4l3.6-7.4c0.3-0.5,0.5-1,0.7-1.4H554v-1.4h5v1.4l-3.9,8l-0.4,0.8h4.4v1.4H553.6L553.6,753.1z
			"/>
		<path class="st2" d="M559.3,753.1l2.7-11.6h1l2.9,11.6h-1.1l-0.8-3.5h-2.9l-0.8,3.5H559.3L559.3,753.1z M561.3,748.3h2.4l-0.7-3.2
			c-0.2-1-0.4-1.8-0.5-2.4c-0.1,0.7-0.2,1.5-0.4,2.2L561.3,748.3L561.3,748.3z"/>
		<polygon class="st2" points="567.6,753.1 567.6,742.9 565.3,742.9 565.3,741.5 570.9,741.5 570.9,742.9 568.6,742.9 568.6,753.1 
			567.6,753.1 		"/>
		<polygon class="st2" points="572,753.1 572,741.5 572.9,741.5 572.9,753.1 572,753.1 		"/>
		<path class="st2" d="M430.2,766.9c0-1.5,0.3-2.7,0.8-3.4c0.4-0.6,1-0.9,1.6-0.9c0.7,0,1.3,0.4,1.7,1.1c0.4,0.8,0.7,1.8,0.7,3.1
			c0,1.1-0.1,1.9-0.3,2.5c-0.2,0.6-0.5,1.1-0.8,1.4c-0.4,0.3-0.8,0.5-1.2,0.5c-0.7,0-1.3-0.4-1.7-1.1
			C430.4,769.4,430.2,768.3,430.2,766.9L430.2,766.9z M431.1,766.9c0,1.1,0.1,1.9,0.4,2.4c0.3,0.5,0.6,0.8,1.1,0.8
			c0.4,0,0.8-0.3,1.1-0.8c0.3-0.5,0.4-1.4,0.4-2.4c0-1-0.1-1.8-0.4-2.4c-0.3-0.5-0.6-0.8-1.1-0.8c-0.4,0-0.8,0.3-1.1,0.8
			C431.2,765.1,431.1,765.9,431.1,766.9L431.1,766.9z"/>
		<path class="st2" d="M435.9,771.1v-8.4h0.8v1.3c0.2-0.6,0.4-1,0.5-1.2c0.2-0.2,0.3-0.3,0.5-0.3c0.3,0,0.6,0.2,0.9,0.5l-0.3,1.3
			c-0.2-0.2-0.4-0.3-0.6-0.3c-0.2,0-0.4,0.1-0.5,0.3c-0.1,0.2-0.3,0.4-0.3,0.8c-0.1,0.5-0.1,1.1-0.1,1.7v4.4H435.9L435.9,771.1z"/>
		<path class="st2" d="M442.5,770.1c-0.3,0.4-0.6,0.8-0.9,0.9c-0.3,0.2-0.6,0.3-0.9,0.3c-0.6,0-1-0.2-1.3-0.7
			c-0.3-0.4-0.4-1-0.4-1.7c0-0.4,0.1-0.8,0.2-1.1c0.1-0.3,0.3-0.6,0.4-0.8c0.2-0.2,0.4-0.4,0.6-0.5c0.2-0.1,0.4-0.1,0.8-0.2
			c0.7-0.1,1.2-0.3,1.5-0.5c0-0.2,0-0.3,0-0.4c0-0.6-0.1-1-0.2-1.2c-0.2-0.3-0.5-0.5-1-0.5c-0.4,0-0.7,0.1-0.9,0.3
			c-0.2,0.2-0.3,0.6-0.4,1.2l-0.8-0.2c0.1-0.6,0.2-1.1,0.4-1.4c0.2-0.4,0.4-0.6,0.8-0.8c0.3-0.2,0.7-0.3,1.1-0.3
			c0.4,0,0.8,0.1,1,0.3c0.3,0.2,0.5,0.4,0.6,0.6c0.1,0.3,0.2,0.6,0.3,1c0,0.2,0,0.7,0,1.3v1.9c0,1.3,0,2.2,0.1,2.5
			c0,0.3,0.1,0.7,0.2,1h-0.9C442.5,770.8,442.5,770.5,442.5,770.1L442.5,770.1z M442.4,766.9c-0.3,0.2-0.8,0.4-1.4,0.5
			c-0.4,0.1-0.6,0.2-0.7,0.3c-0.1,0.1-0.3,0.3-0.3,0.5c-0.1,0.2-0.1,0.4-0.1,0.7c0,0.4,0.1,0.7,0.3,0.9c0.2,0.3,0.4,0.4,0.8,0.4
			c0.3,0,0.6-0.1,0.9-0.4c0.3-0.2,0.4-0.6,0.6-1c0.1-0.3,0.1-0.8,0.1-1.4V766.9L442.4,766.9z"/>
		<path class="st2" d="M444.6,771.1v-8.4h0.8v1.3c0.2-0.6,0.4-1,0.5-1.2c0.2-0.2,0.3-0.3,0.5-0.3c0.3,0,0.6,0.2,0.9,0.5l-0.3,1.3
			c-0.2-0.2-0.4-0.3-0.6-0.3c-0.2,0-0.4,0.1-0.5,0.3c-0.1,0.2-0.3,0.4-0.3,0.8c-0.1,0.5-0.1,1.1-0.1,1.7v4.4H444.6L444.6,771.1z"/>
		<path class="st2" d="M447.8,761.2v-1.6h0.9v1.6H447.8L447.8,761.2z M447.8,771.1v-8.4h0.9v8.4H447.8L447.8,771.1z"/>
		<path class="st2" d="M449.7,766.9c0-1.5,0.3-2.7,0.8-3.4c0.4-0.6,1-0.9,1.6-0.9c0.7,0,1.3,0.4,1.7,1.1c0.4,0.8,0.7,1.8,0.7,3.1
			c0,1.1-0.1,1.9-0.3,2.5c-0.2,0.6-0.5,1.1-0.8,1.4c-0.4,0.3-0.8,0.5-1.2,0.5c-0.7,0-1.3-0.4-1.7-1.1
			C449.9,769.4,449.7,768.3,449.7,766.9L449.7,766.9z M450.5,766.9c0,1.1,0.1,1.9,0.4,2.4c0.3,0.5,0.6,0.8,1.1,0.8
			c0.4,0,0.8-0.3,1.1-0.8c0.3-0.5,0.4-1.4,0.4-2.4c0-1-0.1-1.8-0.4-2.4c-0.3-0.5-0.6-0.8-1.1-0.8c-0.4,0-0.8,0.3-1.1,0.8
			C450.7,765.1,450.5,765.9,450.5,766.9L450.5,766.9z"/>
		<path class="st2" d="M469.2,771.1h-0.9v-9c-0.2,0.3-0.5,0.7-0.8,1c-0.3,0.3-0.6,0.6-0.9,0.7v-1.4c0.5-0.4,0.9-0.8,1.3-1.4
			c0.4-0.5,0.6-1,0.8-1.5h0.6V771.1L469.2,771.1z"/>
		<path class="st2" d="M474.1,771.1v-2.8h-3V767l3.2-7.5h0.7v7.5h0.9v1.3H475v2.8H474.1L474.1,771.1z M474.1,767v-5.2l-2.2,5.2
			H474.1L474.1,767z"/>
		<path class="st2" d="M477.2,771.1v-1.6h1v1.6c0,0.6-0.1,1.1-0.2,1.4c-0.1,0.4-0.3,0.6-0.6,0.8l-0.2-0.6c0.2-0.1,0.3-0.3,0.4-0.6
			c0.1-0.3,0.1-0.6,0.1-1.1H477.2L477.2,771.1z"/>
		<path class="st2" d="M479.5,765.4c0-1.4,0.1-2.5,0.3-3.3c0.2-0.8,0.4-1.5,0.8-1.9c0.3-0.5,0.8-0.7,1.3-0.7c0.4,0,0.7,0.1,1,0.4
			c0.3,0.2,0.5,0.6,0.7,1.1c0.2,0.5,0.3,1,0.4,1.7c0.1,0.7,0.2,1.6,0.2,2.7c0,1.4-0.1,2.4-0.3,3.3s-0.4,1.5-0.8,1.9
			c-0.3,0.5-0.8,0.7-1.3,0.7c-0.7,0-1.2-0.4-1.6-1.2C479.7,769.2,479.5,767.6,479.5,765.4L479.5,765.4z M480.3,765.4
			c0,1.9,0.1,3.2,0.4,3.8c0.3,0.6,0.6,0.9,1,0.9c0.4,0,0.7-0.3,1-0.9c0.3-0.6,0.4-1.9,0.4-3.8c0-1.9-0.1-3.2-0.4-3.8
			c-0.3-0.6-0.6-0.9-1-0.9c-0.4,0-0.7,0.3-0.9,0.8C480.5,762.2,480.3,763.5,480.3,765.4L480.3,765.4z"/>
		<path class="st2" d="M484.9,765.4c0-1.4,0.1-2.5,0.3-3.3c0.2-0.8,0.4-1.5,0.8-1.9c0.3-0.5,0.8-0.7,1.3-0.7c0.4,0,0.7,0.1,1,0.4
			c0.3,0.2,0.5,0.6,0.7,1.1c0.2,0.5,0.3,1,0.4,1.7c0.1,0.7,0.2,1.6,0.2,2.7c0,1.4-0.1,2.4-0.3,3.3c-0.2,0.8-0.4,1.5-0.8,1.9
			c-0.3,0.5-0.8,0.7-1.3,0.7c-0.7,0-1.2-0.4-1.6-1.2C485.1,769.2,484.9,767.6,484.9,765.4L484.9,765.4z M485.8,765.4
			c0,1.9,0.1,3.2,0.4,3.8c0.3,0.6,0.6,0.9,1,0.9c0.4,0,0.7-0.3,1-0.9c0.3-0.6,0.4-1.9,0.4-3.8c0-1.9-0.1-3.2-0.4-3.8
			c-0.3-0.6-0.6-0.9-1-0.9c-0.4,0-0.7,0.3-0.9,0.8C485.9,762.2,485.8,763.5,485.8,765.4L485.8,765.4z"/>
		<polygon class="st2" points="492.9,767.6 492.9,766.2 495.5,766.2 495.5,767.6 492.9,767.6 		"/>
		<path class="st2" d="M502.1,771.1h-0.9v-9c-0.2,0.3-0.5,0.7-0.8,1c-0.3,0.3-0.6,0.6-0.9,0.7v-1.4c0.5-0.4,0.9-0.8,1.3-1.4
			c0.4-0.5,0.6-1,0.8-1.5h0.5V771.1L502.1,771.1z"/>
		<path class="st2" d="M508.8,762.4l-0.8,0.1c-0.1-0.6-0.2-1-0.3-1.2c-0.2-0.4-0.5-0.6-0.9-0.6c-0.3,0-0.5,0.1-0.7,0.4
			c-0.3,0.3-0.5,0.8-0.6,1.4c-0.2,0.6-0.2,1.5-0.2,2.7c0.2-0.5,0.5-0.9,0.8-1.2c0.3-0.2,0.6-0.4,0.9-0.4c0.6,0,1.1,0.3,1.5,1
			c0.4,0.7,0.6,1.6,0.6,2.7c0,0.7-0.1,1.4-0.3,2c-0.2,0.6-0.4,1.1-0.8,1.4c-0.3,0.3-0.7,0.5-1.1,0.5c-0.7,0-1.3-0.4-1.7-1.3
			c-0.5-0.9-0.7-2.3-0.7-4.3c0-2.2,0.2-3.9,0.7-4.9c0.4-0.9,1-1.3,1.8-1.3c0.5,0,1,0.3,1.3,0.8C508.5,760.8,508.7,761.5,508.8,762.4
			L508.8,762.4z M505.3,767.4c0,0.5,0.1,1,0.2,1.4c0.1,0.4,0.3,0.8,0.5,1c0.2,0.2,0.5,0.4,0.7,0.4c0.4,0,0.7-0.2,0.9-0.7
			c0.3-0.5,0.4-1.1,0.4-2c0-0.8-0.1-1.4-0.4-1.9c-0.3-0.5-0.6-0.7-1-0.7c-0.4,0-0.7,0.2-1,0.7C505.4,766,505.3,766.6,505.3,767.4
			L505.3,767.4z"/>
		<path class="st2" d="M510.2,771.1v-1.6h1v1.6c0,0.6-0.1,1.1-0.2,1.4c-0.1,0.4-0.3,0.6-0.6,0.8l-0.2-0.6c0.2-0.1,0.3-0.3,0.4-0.6
			c0.1-0.3,0.1-0.6,0.1-1.1H510.2L510.2,771.1z"/>
		<path class="st2" d="M512.4,765.4c0-1.4,0.1-2.5,0.3-3.3c0.2-0.8,0.4-1.5,0.8-1.9c0.3-0.5,0.8-0.7,1.3-0.7c0.4,0,0.7,0.1,1,0.4
			c0.3,0.2,0.5,0.6,0.7,1.1c0.2,0.5,0.3,1,0.4,1.7c0.1,0.7,0.2,1.6,0.2,2.7c0,1.4-0.1,2.4-0.3,3.3c-0.2,0.8-0.4,1.5-0.8,1.9
			c-0.3,0.5-0.8,0.7-1.3,0.7c-0.7,0-1.2-0.4-1.6-1.2C512.7,769.2,512.4,767.6,512.4,765.4L512.4,765.4z M513.3,765.4
			c0,1.9,0.1,3.2,0.4,3.8c0.3,0.6,0.6,0.9,1,0.9c0.4,0,0.7-0.3,1-0.9c0.3-0.6,0.4-1.9,0.4-3.8c0-1.9-0.1-3.2-0.4-3.8
			c-0.3-0.6-0.6-0.9-1-0.9c-0.4,0-0.7,0.3-0.9,0.8C513.5,762.2,513.3,763.5,513.3,765.4L513.3,765.4z"/>
		<path class="st2" d="M517.8,765.4c0-1.4,0.1-2.5,0.3-3.3c0.2-0.8,0.4-1.5,0.8-1.9c0.3-0.5,0.8-0.7,1.3-0.7c0.4,0,0.7,0.1,1,0.4
			c0.3,0.2,0.5,0.6,0.7,1.1c0.2,0.5,0.3,1,0.4,1.7c0.1,0.7,0.2,1.6,0.2,2.7c0,1.4-0.1,2.4-0.3,3.3s-0.4,1.5-0.8,1.9
			c-0.3,0.5-0.8,0.7-1.3,0.7c-0.7,0-1.2-0.4-1.6-1.2C518.1,769.2,517.8,767.6,517.8,765.4L517.8,765.4z M518.7,765.4
			c0,1.9,0.1,3.2,0.4,3.8c0.3,0.6,0.6,0.9,1,0.9c0.4,0,0.7-0.3,1-0.9c0.3-0.6,0.4-1.9,0.4-3.8c0-1.9-0.1-3.2-0.4-3.8
			c-0.3-0.6-0.6-0.9-1-0.9c-0.4,0-0.7,0.3-0.9,0.8C518.9,762.2,518.7,763.5,518.7,765.4L518.7,765.4z"/>
		<path class="st2" d="M472.6,787.8v1.4H468c0-0.3,0-0.7,0.1-1c0.1-0.5,0.3-1,0.6-1.5c0.3-0.5,0.6-1.1,1.1-1.7
			c0.8-1,1.3-1.8,1.5-2.4c0.3-0.6,0.4-1.2,0.4-1.7c0-0.6-0.1-1-0.4-1.4c-0.2-0.4-0.6-0.6-0.9-0.6c-0.4,0-0.7,0.2-1,0.6
			c-0.2,0.4-0.4,1-0.4,1.7l-0.9-0.1c0.1-1.1,0.3-1.9,0.7-2.5c0.4-0.6,0.9-0.9,1.6-0.9c0.7,0,1.2,0.3,1.6,0.9
			c0.4,0.6,0.6,1.4,0.6,2.3c0,0.5-0.1,0.9-0.2,1.4c-0.1,0.4-0.3,0.9-0.6,1.4c-0.3,0.5-0.7,1.2-1.3,2c-0.5,0.7-0.8,1.2-1,1.5
			c-0.1,0.3-0.3,0.5-0.4,0.8H472.6L472.6,787.8z"/>
		<path class="st2" d="M476.3,789.1v-2.8h-3v-1.3l3.2-7.5h0.7v7.5h0.9v1.3h-0.9v2.8H476.3L476.3,789.1z M476.3,785.1v-5.2l-2.2,5.2
			H476.3L476.3,785.1z"/>
		<path class="st2" d="M479.4,789.1v-1.6h1v1.6c0,0.6-0.1,1.1-0.2,1.4c-0.1,0.4-0.3,0.6-0.6,0.8l-0.2-0.6c0.2-0.1,0.3-0.3,0.4-0.6
			c0.1-0.3,0.1-0.6,0.1-1.1H479.4L479.4,789.1z"/>
		<path class="st2" d="M481.6,783.4c0-1.4,0.1-2.5,0.3-3.3c0.2-0.8,0.4-1.5,0.8-1.9c0.3-0.5,0.8-0.7,1.3-0.7c0.4,0,0.7,0.1,1,0.4
			c0.3,0.2,0.5,0.6,0.7,1.1c0.2,0.5,0.3,1,0.4,1.7c0.1,0.7,0.2,1.6,0.2,2.7c0,1.4-0.1,2.4-0.3,3.3c-0.2,0.8-0.4,1.5-0.8,1.9
			c-0.3,0.5-0.8,0.7-1.3,0.7c-0.7,0-1.2-0.4-1.6-1.2C481.9,787.2,481.6,785.6,481.6,783.4L481.6,783.4z M482.5,783.4
			c0,1.9,0.1,3.2,0.4,3.8c0.3,0.6,0.6,0.9,1,0.9c0.4,0,0.7-0.3,1-0.9c0.3-0.6,0.4-1.9,0.4-3.8c0-1.9-0.1-3.2-0.4-3.8
			c-0.3-0.6-0.6-0.9-1-0.9c-0.4,0-0.7,0.3-0.9,0.8C482.7,780.2,482.5,781.5,482.5,783.4L482.5,783.4z"/>
		<path class="st2" d="M487.1,783.4c0-1.4,0.1-2.5,0.3-3.3c0.2-0.8,0.4-1.5,0.8-1.9c0.3-0.5,0.8-0.7,1.3-0.7c0.4,0,0.7,0.1,1,0.4
			c0.3,0.2,0.5,0.6,0.7,1.1c0.2,0.5,0.3,1,0.4,1.7c0.1,0.7,0.2,1.6,0.2,2.7c0,1.4-0.1,2.4-0.3,3.3s-0.4,1.5-0.8,1.9
			c-0.3,0.5-0.8,0.7-1.3,0.7c-0.7,0-1.2-0.4-1.6-1.2C487.3,787.2,487.1,785.6,487.1,783.4L487.1,783.4z M487.9,783.4
			c0,1.9,0.1,3.2,0.4,3.8c0.3,0.6,0.6,0.9,1,0.9c0.4,0,0.7-0.3,1-0.9c0.3-0.6,0.4-1.9,0.4-3.8c0-1.9-0.1-3.2-0.4-3.8
			c-0.3-0.6-0.6-0.9-1-0.9c-0.4,0-0.7,0.3-0.9,0.8C488.1,780.2,487.9,781.5,487.9,783.4L487.9,783.4z"/>
		<polygon class="st2" points="495.1,785.7 495.1,784.2 497.7,784.2 497.7,785.7 495.1,785.7 		"/>
		<path class="st2" d="M501.1,783.4c0-1.4,0.1-2.5,0.3-3.3c0.2-0.8,0.4-1.5,0.8-1.9c0.3-0.5,0.8-0.7,1.3-0.7c0.4,0,0.7,0.1,1,0.4
			c0.3,0.2,0.5,0.6,0.7,1.1c0.2,0.5,0.3,1,0.4,1.7c0.1,0.7,0.2,1.6,0.2,2.7c0,1.4-0.1,2.4-0.3,3.3c-0.2,0.8-0.4,1.5-0.8,1.9
			c-0.3,0.5-0.8,0.7-1.3,0.7c-0.7,0-1.2-0.4-1.6-1.2C501.3,787.2,501.1,785.6,501.1,783.4L501.1,783.4z M502,783.4
			c0,1.9,0.1,3.2,0.4,3.8c0.3,0.6,0.6,0.9,1,0.9c0.4,0,0.7-0.3,1-0.9c0.3-0.6,0.4-1.9,0.4-3.8c0-1.9-0.1-3.2-0.4-3.8
			c-0.3-0.6-0.6-0.9-1-0.9c-0.4,0-0.7,0.3-0.9,0.8C502.1,780.2,502,781.5,502,783.4L502,783.4z"/>
		<path class="st2" d="M506.6,786.5l0.8-0.1c0.1,0.6,0.2,1.1,0.4,1.4c0.2,0.3,0.4,0.4,0.8,0.4c0.3,0,0.5-0.1,0.7-0.3
			c0.2-0.2,0.4-0.5,0.5-0.8c0.1-0.3,0.2-0.8,0.3-1.4c0.1-0.6,0.1-1.1,0.1-1.7c0-0.1,0-0.2,0-0.3c-0.2,0.4-0.4,0.8-0.7,1.1
			c-0.3,0.3-0.6,0.4-1,0.4c-0.6,0-1.1-0.3-1.5-1c-0.4-0.7-0.6-1.6-0.6-2.7c0-1.2,0.2-2.1,0.6-2.8c0.4-0.7,0.9-1.1,1.6-1.1
			c0.5,0,0.9,0.2,1.2,0.6c0.4,0.4,0.7,1,0.9,1.7c0.2,0.7,0.3,1.8,0.3,3.3c0,1.5-0.1,2.7-0.3,3.5c-0.2,0.9-0.5,1.5-0.9,2
			c-0.4,0.5-0.8,0.7-1.3,0.7c-0.5,0-1-0.3-1.3-0.8C506.9,788.1,506.7,787.4,506.6,786.5L506.6,786.5z M510.1,781.4
			c0-0.8-0.1-1.5-0.4-1.9c-0.3-0.5-0.6-0.7-0.9-0.7c-0.4,0-0.7,0.3-1,0.8c-0.3,0.5-0.4,1.2-0.4,2c0,0.7,0.1,1.3,0.4,1.8
			c0.3,0.5,0.6,0.7,1,0.7c0.4,0,0.7-0.2,1-0.7C510,782.8,510.1,782.2,510.1,781.4L510.1,781.4z"/>
		<path class="st2" d="M512.4,789.1v-1.6h1v1.6c0,0.6-0.1,1.1-0.2,1.4c-0.1,0.4-0.3,0.6-0.6,0.8l-0.2-0.6c0.2-0.1,0.3-0.3,0.4-0.6
			c0.1-0.3,0.1-0.6,0.1-1.1H512.4L512.4,789.1z"/>
		<path class="st2" d="M514.6,783.4c0-1.4,0.1-2.5,0.3-3.3c0.2-0.8,0.4-1.5,0.8-1.9c0.3-0.5,0.8-0.7,1.3-0.7c0.4,0,0.7,0.1,1,0.4
			c0.3,0.2,0.5,0.6,0.7,1.1c0.2,0.5,0.3,1,0.4,1.7c0.1,0.7,0.2,1.6,0.2,2.7c0,1.4-0.1,2.4-0.3,3.3c-0.2,0.8-0.4,1.5-0.8,1.9
			c-0.3,0.5-0.8,0.7-1.3,0.7c-0.7,0-1.2-0.4-1.6-1.2C514.8,787.2,514.6,785.6,514.6,783.4L514.6,783.4z M515.5,783.4
			c0,1.9,0.1,3.2,0.4,3.8c0.3,0.6,0.6,0.9,1,0.9c0.4,0,0.7-0.3,1-0.9c0.3-0.6,0.4-1.9,0.4-3.8c0-1.9-0.1-3.2-0.4-3.8
			c-0.3-0.6-0.6-0.9-1-0.9c-0.4,0-0.7,0.3-0.9,0.8C515.6,780.2,515.5,781.5,515.5,783.4L515.5,783.4z"/>
		<path class="st2" d="M520,783.4c0-1.4,0.1-2.5,0.3-3.3c0.2-0.8,0.4-1.5,0.8-1.9c0.3-0.5,0.8-0.7,1.3-0.7c0.4,0,0.7,0.1,1,0.4
			c0.3,0.2,0.5,0.6,0.7,1.1c0.2,0.5,0.3,1,0.4,1.7c0.1,0.7,0.2,1.6,0.2,2.7c0,1.4-0.1,2.4-0.3,3.3c-0.2,0.8-0.4,1.5-0.8,1.9
			c-0.3,0.5-0.8,0.7-1.3,0.7c-0.7,0-1.2-0.4-1.6-1.2C520.2,787.2,520,785.6,520,783.4L520,783.4z M520.9,783.4
			c0,1.9,0.1,3.2,0.4,3.8c0.3,0.6,0.6,0.9,1,0.9s0.7-0.3,1-0.9c0.3-0.6,0.4-1.9,0.4-3.8c0-1.9-0.1-3.2-0.4-3.8
			c-0.3-0.6-0.6-0.9-1-0.9c-0.4,0-0.7,0.3-0.9,0.8C521,780.2,520.9,781.5,520.9,783.4L520.9,783.4z"/>
		<polygon class="st2" points="430.4,529.9 430.4,528.5 433,528.5 433,529.9 430.4,529.9 		"/>
		<path class="st2" d="M436,533.4l2.7-11.6h1l2.8,11.6h-1.1l-0.8-3.5h-2.9l-0.8,3.5H436L436,533.4z M438,528.6h2.4l-0.7-3.2
			c-0.2-1-0.4-1.8-0.5-2.4c-0.1,0.7-0.2,1.5-0.4,2.2L438,528.6L438,528.6z"/>
		<path class="st2" d="M447.8,521.8h0.9v6.7c0,1.2-0.1,2.1-0.2,2.8c-0.2,0.7-0.4,1.2-0.9,1.7c-0.4,0.4-1,0.6-1.6,0.6
			c-0.7,0-1.2-0.2-1.6-0.6c-0.4-0.4-0.7-0.9-0.9-1.6c-0.2-0.7-0.3-1.7-0.3-2.9v-6.7h0.9v6.7c0,1,0.1,1.7,0.2,2.2
			c0.1,0.5,0.3,0.8,0.6,1.1c0.3,0.3,0.6,0.4,1,0.4c0.7,0,1.2-0.3,1.4-0.8c0.3-0.5,0.4-1.5,0.4-2.9V521.8L447.8,521.8z"/>
		<polygon class="st2" points="452,533.4 452,523.2 449.7,523.2 449.7,521.8 455.2,521.8 455.2,523.2 452.9,523.2 452.9,533.4 
			452,533.4 		"/>
		<path class="st2" d="M455.7,527.7c0-1.9,0.3-3.4,0.9-4.5c0.6-1.1,1.4-1.6,2.4-1.6c0.6,0,1.2,0.3,1.7,0.8c0.5,0.5,0.9,1.2,1.2,2.1
			c0.3,0.9,0.4,1.9,0.4,3.1c0,1.2-0.1,2.2-0.4,3.1c-0.3,0.9-0.7,1.6-1.2,2.1c-0.5,0.5-1.1,0.7-1.7,0.7c-0.7,0-1.2-0.3-1.8-0.8
			c-0.5-0.5-0.9-1.2-1.2-2.2C455.9,529.7,455.7,528.7,455.7,527.7L455.7,527.7z M456.7,527.7c0,1.4,0.2,2.5,0.7,3.3
			c0.5,0.8,1,1.2,1.7,1.2c0.7,0,1.3-0.4,1.7-1.2c0.4-0.8,0.7-2,0.7-3.4c0-0.9-0.1-1.8-0.3-2.5c-0.2-0.7-0.5-1.2-0.8-1.6
			c-0.4-0.4-0.8-0.6-1.2-0.6c-0.7,0-1.2,0.4-1.7,1.1C456.9,524.8,456.7,526,456.7,527.7L456.7,527.7z"/>
		<path class="st2" d="M465.6,533.4l-2.7-11.6h1l1.8,8.4c0.1,0.7,0.3,1.3,0.4,1.9c0.1-0.6,0.2-1.3,0.4-1.9l1.9-8.4h0.9l-2.7,11.6
			H465.6L465.6,533.4z"/>
		<polygon class="st2" points="470.1,533.4 470.1,521.8 475.1,521.8 475.1,523.2 471,523.2 471,526.7 474.8,526.7 474.8,528.1 
			471,528.1 471,532 475.3,532 475.3,533.4 470.1,533.4 		"/>
		<polygon class="st2" points="476.7,533.4 476.7,521.8 477.6,521.8 477.6,533.4 476.7,533.4 		"/>
		<path class="st2" d="M484.2,529.3l0.9,0.4c-0.2,1.3-0.5,2.2-1,2.9c-0.5,0.7-1.1,1-1.8,1c-0.8,0-1.4-0.3-1.8-0.8
			c-0.5-0.5-0.8-1.2-1.1-2.2c-0.2-1-0.4-2-0.4-3.1c0-1.2,0.1-2.3,0.4-3.1c0.3-0.9,0.7-1.6,1.2-2c0.5-0.5,1.1-0.7,1.7-0.7
			c0.7,0,1.3,0.3,1.8,0.9c0.5,0.6,0.8,1.4,1,2.5l-0.9,0.4c-0.2-0.8-0.4-1.5-0.7-1.8c-0.3-0.4-0.7-0.6-1.2-0.6c-0.5,0-1,0.2-1.3,0.6
			c-0.4,0.4-0.6,1-0.8,1.7c-0.1,0.7-0.2,1.5-0.2,2.2c0,1,0.1,1.8,0.3,2.6c0.2,0.7,0.4,1.3,0.8,1.6c0.4,0.4,0.8,0.5,1.2,0.5
			c0.5,0,1-0.2,1.3-0.7C483.8,531,484.1,530.3,484.2,529.3L484.2,529.3z"/>
		<path class="st2" d="M486,527.7c0-1.9,0.3-3.4,0.9-4.5c0.6-1.1,1.4-1.6,2.4-1.6c0.6,0,1.2,0.3,1.7,0.8c0.5,0.5,0.9,1.2,1.2,2.1
			c0.3,0.9,0.4,1.9,0.4,3.1c0,1.2-0.1,2.2-0.4,3.1c-0.3,0.9-0.7,1.6-1.2,2.1c-0.5,0.5-1.1,0.7-1.7,0.7c-0.7,0-1.2-0.3-1.8-0.8
			c-0.5-0.5-0.9-1.2-1.2-2.2C486.1,529.7,486,528.7,486,527.7L486,527.7z M486.9,527.7c0,1.4,0.2,2.5,0.7,3.3c0.5,0.8,1,1.2,1.7,1.2
			c0.7,0,1.3-0.4,1.7-1.2c0.4-0.8,0.7-2,0.7-3.4c0-0.9-0.1-1.8-0.3-2.5c-0.2-0.7-0.5-1.2-0.8-1.6c-0.4-0.4-0.8-0.6-1.2-0.6
			c-0.7,0-1.2,0.4-1.7,1.1C487.2,524.8,486.9,526,486.9,527.7L486.9,527.7z"/>
		<polygon class="st2" points="493.8,533.4 493.8,521.8 494.7,521.8 494.7,532 498.1,532 498.1,533.4 493.8,533.4 		"/>
		<polygon class="st2" points="499.4,533.4 499.4,521.8 500.3,521.8 500.3,533.4 499.4,533.4 		"/>
		<polygon class="st2" points="504.6,533.4 504.6,521.8 505.6,521.8 509.2,530.9 509.2,521.8 510.1,521.8 510.1,533.4 509.2,533.4 
			505.5,524.3 505.5,533.4 504.6,533.4 		"/>
		<path class="st2" d="M511.4,527.7c0-1.9,0.3-3.4,0.9-4.5c0.6-1.1,1.4-1.6,2.4-1.6c0.6,0,1.2,0.3,1.7,0.8c0.5,0.5,0.9,1.2,1.2,2.1
			s0.4,1.9,0.4,3.1c0,1.2-0.1,2.2-0.4,3.1c-0.3,0.9-0.7,1.6-1.2,2.1c-0.5,0.5-1.1,0.7-1.7,0.7c-0.7,0-1.2-0.3-1.8-0.8
			c-0.5-0.5-0.9-1.2-1.2-2.2C511.5,529.7,511.4,528.7,511.4,527.7L511.4,527.7z M512.3,527.7c0,1.4,0.2,2.5,0.7,3.3
			c0.5,0.8,1,1.2,1.7,1.2c0.7,0,1.3-0.4,1.7-1.2c0.4-0.8,0.7-2,0.7-3.4c0-0.9-0.1-1.8-0.3-2.5c-0.2-0.7-0.5-1.2-0.8-1.6
			c-0.4-0.4-0.8-0.6-1.2-0.6c-0.7,0-1.2,0.4-1.7,1.1C512.6,524.8,512.3,526,512.3,527.7L512.3,527.7z"/>
		<polygon class="st2" points="519.2,533.4 519.2,521.8 520.2,521.8 523.8,530.9 523.8,521.8 524.7,521.8 524.7,533.4 523.8,533.4 
			520.1,524.3 520.1,533.4 519.2,533.4 		"/>
		<path class="st2" d="M528.2,533.4l2.7-11.6h1l2.8,11.6h-1l-0.8-3.5h-2.9l-0.8,3.5H528.2L528.2,533.4z M530.2,528.6h2.4l-0.7-3.2
			c-0.2-1-0.4-1.8-0.5-2.4c-0.1,0.7-0.2,1.5-0.4,2.2L530.2,528.6L530.2,528.6z"/>
		<path class="st2" d="M540,521.8h0.9v6.7c0,1.2-0.1,2.1-0.2,2.8c-0.2,0.7-0.4,1.2-0.9,1.7c-0.4,0.4-1,0.6-1.6,0.6
			c-0.7,0-1.2-0.2-1.6-0.6c-0.4-0.4-0.7-0.9-0.9-1.6c-0.2-0.7-0.3-1.7-0.3-2.9v-6.7h0.9v6.7c0,1,0.1,1.7,0.2,2.2
			c0.1,0.5,0.3,0.8,0.6,1.1c0.3,0.3,0.6,0.4,1,0.4c0.7,0,1.2-0.3,1.4-0.8c0.3-0.5,0.4-1.5,0.4-2.9V521.8L540,521.8z"/>
		<polygon class="st2" points="544.2,533.4 544.2,523.2 541.9,523.2 541.9,521.8 547.4,521.8 547.4,523.2 545.1,523.2 545.1,533.4 
			544.2,533.4 		"/>
		<path class="st2" d="M547.9,527.7c0-1.9,0.3-3.4,0.9-4.5c0.6-1.1,1.4-1.6,2.4-1.6c0.6,0,1.2,0.3,1.7,0.8c0.5,0.5,0.9,1.2,1.2,2.1
			c0.3,0.9,0.4,1.9,0.4,3.1c0,1.2-0.1,2.2-0.4,3.1c-0.3,0.9-0.7,1.6-1.2,2.1c-0.5,0.5-1.1,0.7-1.7,0.7c-0.7,0-1.2-0.3-1.8-0.8
			c-0.5-0.5-0.9-1.2-1.2-2.2C548.1,529.7,547.9,528.7,547.9,527.7L547.9,527.7z M548.9,527.7c0,1.4,0.2,2.5,0.7,3.3
			c0.5,0.8,1,1.2,1.7,1.2c0.7,0,1.3-0.4,1.7-1.2c0.4-0.8,0.7-2,0.7-3.4c0-0.9-0.1-1.8-0.3-2.5c-0.2-0.7-0.5-1.2-0.8-1.6
			c-0.4-0.4-0.8-0.6-1.2-0.6c-0.7,0-1.2,0.4-1.7,1.1C549.1,524.8,548.9,526,548.9,527.7L548.9,527.7z"/>
		<path class="st2" d="M555.8,533.4v-11.6h3.1c0.6,0,1.1,0.1,1.4,0.3c0.3,0.2,0.6,0.6,0.8,1.1c0.2,0.5,0.3,1.1,0.3,1.7
			c0,0.8-0.2,1.5-0.5,2.1c-0.3,0.6-0.8,0.9-1.5,1.1c0.2,0.2,0.4,0.4,0.6,0.6c0.3,0.4,0.5,0.9,0.8,1.5l1.2,3.1h-1.2l-0.9-2.4
			c-0.3-0.7-0.5-1.2-0.7-1.6c-0.2-0.4-0.3-0.6-0.5-0.8c-0.1-0.1-0.3-0.2-0.4-0.3c-0.1,0-0.3-0.1-0.5-0.1h-1.1v5.1H555.8L555.8,533.4
			z M556.7,526.9h2c0.4,0,0.8-0.1,1-0.2c0.2-0.1,0.4-0.4,0.5-0.7c0.1-0.3,0.2-0.7,0.2-1c0-0.5-0.1-1-0.4-1.3
			c-0.2-0.4-0.6-0.5-1.1-0.5h-2.2V526.9L556.7,526.9z"/>
		<polygon class="st2" points="563,533.4 563,521.8 563.9,521.8 563.9,533.4 563,533.4 		"/>
		<path class="st2" d="M564.9,533.4v-1.4l3.6-7.4c0.3-0.5,0.5-1,0.7-1.4h-3.9v-1.4h5v1.4l-3.9,8L566,532h4.4v1.4H564.9L564.9,533.4z
			"/>
		<path class="st2" d="M570.9,533.4v-1.4l3.6-7.4c0.3-0.5,0.5-1,0.7-1.4h-3.9v-1.4h5v1.4l-3.9,8l-0.4,0.8h4.4v1.4H570.9L570.9,533.4
			z"/>
		<path class="st2" d="M576.6,533.4l2.7-11.6h1l2.8,11.6h-1l-0.8-3.5h-2.9l-0.8,3.5H576.6L576.6,533.4z M578.6,528.6h2.4l-0.7-3.2
			c-0.2-1-0.4-1.8-0.5-2.4c-0.1,0.7-0.2,1.5-0.4,2.2L578.6,528.6L578.6,528.6z"/>
		<polygon class="st2" points="584.9,533.4 584.9,523.2 582.6,523.2 582.6,521.8 588.1,521.8 588.1,523.2 585.8,523.2 585.8,533.4 
			584.9,533.4 		"/>
		<polygon class="st2" points="589.2,533.4 589.2,521.8 590.2,521.8 590.2,533.4 589.2,533.4 		"/>
		<polygon class="st2" points="430.4,547.9 430.4,546.5 433,546.5 433,547.9 430.4,547.9 		"/>
		<path class="st2" d="M436.7,551.4v-11.6h1.4l1.6,8.2c0.2,0.8,0.3,1.3,0.3,1.7c0.1-0.4,0.2-1,0.4-1.9l1.7-8h1.2v11.6h-0.9v-9.7
			l-2,9.7h-0.8l-2-9.8v9.8H436.7L436.7,551.4z"/>
		<path class="st2" d="M444.6,545.8c0-1.9,0.3-3.4,0.9-4.5c0.6-1.1,1.4-1.6,2.4-1.6c0.6,0,1.2,0.3,1.7,0.8c0.5,0.5,0.9,1.2,1.2,2.1
			c0.3,0.9,0.4,1.9,0.4,3.1c0,1.2-0.1,2.2-0.4,3.1c-0.3,0.9-0.7,1.6-1.2,2.1c-0.5,0.5-1.1,0.7-1.7,0.7c-0.7,0-1.2-0.3-1.8-0.8
			c-0.5-0.5-0.9-1.2-1.2-2.2C444.7,547.7,444.6,546.8,444.6,545.8L444.6,545.8z M445.5,545.8c0,1.4,0.2,2.5,0.7,3.3
			c0.5,0.8,1,1.2,1.7,1.2c0.7,0,1.3-0.4,1.7-1.2c0.4-0.8,0.7-2,0.7-3.4c0-0.9-0.1-1.8-0.3-2.5c-0.2-0.7-0.5-1.2-0.8-1.6
			c-0.4-0.4-0.8-0.6-1.2-0.6c-0.7,0-1.2,0.4-1.7,1.1C445.7,542.8,445.5,544,445.5,545.8L445.5,545.8z"/>
		<polygon class="st2" points="454.2,551.4 454.2,541.2 451.9,541.2 451.9,539.8 457.4,539.8 457.4,541.2 455.1,541.2 455.1,551.4 
			454.2,551.4 		"/>
		<path class="st2" d="M457.9,545.8c0-1.9,0.3-3.4,0.9-4.5c0.6-1.1,1.4-1.6,2.4-1.6c0.6,0,1.2,0.3,1.7,0.8c0.5,0.5,0.9,1.2,1.2,2.1
			c0.3,0.9,0.4,1.9,0.4,3.1c0,1.2-0.1,2.2-0.4,3.1c-0.3,0.9-0.7,1.6-1.2,2.1c-0.5,0.5-1.1,0.7-1.7,0.7c-0.7,0-1.2-0.3-1.8-0.8
			c-0.5-0.5-0.9-1.2-1.2-2.2C458,547.7,457.9,546.8,457.9,545.8L457.9,545.8z M458.8,545.8c0,1.4,0.2,2.5,0.7,3.3
			c0.5,0.8,1,1.2,1.7,1.2c0.7,0,1.3-0.4,1.7-1.2c0.4-0.8,0.7-2,0.7-3.4c0-0.9-0.1-1.8-0.3-2.5c-0.2-0.7-0.5-1.2-0.8-1.6
			c-0.4-0.4-0.8-0.6-1.2-0.6c-0.7,0-1.2,0.4-1.7,1.1C459.1,542.8,458.8,544,458.8,545.8L458.8,545.8z"/>
		<path class="st2" d="M467.7,551.4l-2.7-11.6h1l1.8,8.4c0.1,0.7,0.3,1.3,0.4,1.9c0.1-0.6,0.2-1.3,0.4-1.9l1.9-8.4h0.9l-2.7,11.6
			H467.7L467.7,551.4z"/>
		<polygon class="st2" points="472.2,551.4 472.2,539.8 477.3,539.8 477.3,541.2 473.2,541.2 473.2,544.7 477,544.7 477,546.1 
			473.2,546.1 473.2,550 477.4,550 477.4,551.4 472.2,551.4 		"/>
		<polygon class="st2" points="478.9,551.4 478.9,539.8 479.8,539.8 479.8,551.4 478.9,551.4 		"/>
		<path class="st2" d="M486.4,547.3l0.9,0.4c-0.2,1.3-0.5,2.2-1,2.9c-0.5,0.7-1.1,1-1.8,1c-0.8,0-1.4-0.3-1.8-0.8
			c-0.5-0.5-0.8-1.2-1.1-2.2c-0.2-1-0.4-2-0.4-3.1c0-1.2,0.1-2.3,0.4-3.1c0.3-0.9,0.7-1.6,1.2-2c0.5-0.5,1.1-0.7,1.7-0.7
			c0.7,0,1.3,0.3,1.8,0.9c0.5,0.6,0.8,1.4,1,2.5l-0.9,0.4c-0.2-0.8-0.4-1.5-0.7-1.8c-0.3-0.4-0.7-0.6-1.2-0.6c-0.5,0-1,0.2-1.3,0.6
			c-0.4,0.4-0.6,1-0.8,1.7c-0.1,0.7-0.2,1.5-0.2,2.2c0,1,0.1,1.8,0.3,2.6c0.2,0.7,0.4,1.3,0.8,1.6c0.4,0.4,0.8,0.5,1.2,0.5
			c0.5,0,1-0.2,1.3-0.7C486,549,486.2,548.3,486.4,547.3L486.4,547.3z"/>
		<path class="st2" d="M488.1,545.8c0-1.9,0.3-3.4,0.9-4.5c0.6-1.1,1.4-1.6,2.4-1.6c0.6,0,1.2,0.3,1.7,0.8c0.5,0.5,0.9,1.2,1.2,2.1
			c0.3,0.9,0.4,1.9,0.4,3.1c0,1.2-0.1,2.2-0.4,3.1c-0.3,0.9-0.7,1.6-1.2,2.1c-0.5,0.5-1.1,0.7-1.7,0.7c-0.7,0-1.2-0.3-1.8-0.8
			c-0.5-0.5-0.9-1.2-1.2-2.2C488.3,547.7,488.1,546.8,488.1,545.8L488.1,545.8z M489.1,545.8c0,1.4,0.2,2.5,0.7,3.3
			c0.5,0.8,1,1.2,1.7,1.2c0.7,0,1.3-0.4,1.7-1.2c0.4-0.8,0.7-2,0.7-3.4c0-0.9-0.1-1.8-0.3-2.5c-0.2-0.7-0.5-1.2-0.8-1.6
			c-0.4-0.4-0.8-0.6-1.2-0.6c-0.7,0-1.2,0.4-1.7,1.1C489.3,542.8,489.1,544,489.1,545.8L489.1,545.8z"/>
		<polygon class="st2" points="495.9,551.4 495.9,539.8 496.9,539.8 496.9,550 500.3,550 500.3,551.4 495.9,551.4 		"/>
		<polygon class="st2" points="501.5,551.4 501.5,539.8 502.5,539.8 502.5,551.4 501.5,551.4 		"/>
		<polygon class="st2" points="506.8,551.4 506.8,539.8 507.7,539.8 511.4,548.9 511.4,539.8 512.3,539.8 512.3,551.4 511.3,551.4 
			507.7,542.3 507.7,551.4 506.8,551.4 		"/>
		<path class="st2" d="M513.5,545.8c0-1.9,0.3-3.4,0.9-4.5c0.6-1.1,1.4-1.6,2.4-1.6c0.6,0,1.2,0.3,1.7,0.8c0.5,0.5,0.9,1.2,1.2,2.1
			c0.3,0.9,0.4,1.9,0.4,3.1c0,1.2-0.1,2.2-0.4,3.1c-0.3,0.9-0.7,1.6-1.2,2.1c-0.5,0.5-1.1,0.7-1.7,0.7c-0.7,0-1.2-0.3-1.8-0.8
			c-0.5-0.5-0.9-1.2-1.2-2.2C513.7,547.7,513.5,546.8,513.5,545.8L513.5,545.8z M514.5,545.8c0,1.4,0.2,2.5,0.7,3.3
			c0.5,0.8,1,1.2,1.7,1.2c0.7,0,1.3-0.4,1.7-1.2c0.4-0.8,0.7-2,0.7-3.4c0-0.9-0.1-1.8-0.3-2.5c-0.2-0.7-0.5-1.2-0.8-1.6
			c-0.4-0.4-0.8-0.6-1.2-0.6c-0.7,0-1.2,0.4-1.7,1.1C514.7,542.8,514.5,544,514.5,545.8L514.5,545.8z"/>
		<polygon class="st2" points="521.4,551.4 521.4,539.8 522.3,539.8 526,548.9 526,539.8 526.9,539.8 526.9,551.4 525.9,551.4 
			522.3,542.3 522.3,551.4 521.4,551.4 		"/>
		<path class="st2" d="M530.3,551.4l2.7-11.6h1l2.8,11.6h-1l-0.8-3.5h-2.9l-0.8,3.5H530.3L530.3,551.4z M532.3,546.6h2.4l-0.7-3.2
			c-0.2-1-0.4-1.8-0.5-2.4c-0.1,0.7-0.2,1.5-0.4,2.2L532.3,546.6L532.3,546.6z"/>
		<path class="st2" d="M542.2,539.8h0.9v6.7c0,1.2-0.1,2.1-0.2,2.8c-0.2,0.7-0.4,1.2-0.9,1.7c-0.4,0.4-1,0.6-1.6,0.6
			c-0.7,0-1.2-0.2-1.6-0.6c-0.4-0.4-0.7-0.9-0.9-1.6c-0.2-0.7-0.3-1.7-0.3-2.9v-6.7h0.9v6.7c0,1,0.1,1.7,0.2,2.2
			c0.1,0.5,0.3,0.8,0.6,1.1c0.3,0.3,0.6,0.4,1,0.4c0.7,0,1.2-0.3,1.4-0.8c0.3-0.5,0.4-1.5,0.4-2.9V539.8L542.2,539.8z"/>
		<polygon class="st2" points="546.4,551.4 546.4,541.2 544.1,541.2 544.1,539.8 549.6,539.8 549.6,541.2 547.3,541.2 547.3,551.4 
			546.4,551.4 		"/>
		<path class="st2" d="M550.1,545.8c0-1.9,0.3-3.4,0.9-4.5c0.6-1.1,1.4-1.6,2.4-1.6c0.6,0,1.2,0.3,1.7,0.8c0.5,0.5,0.9,1.2,1.2,2.1
			c0.3,0.9,0.4,1.9,0.4,3.1c0,1.2-0.1,2.2-0.4,3.1c-0.3,0.9-0.7,1.6-1.2,2.1c-0.5,0.5-1.1,0.7-1.7,0.7c-0.7,0-1.2-0.3-1.8-0.8
			c-0.5-0.5-0.9-1.2-1.2-2.2C550.2,547.7,550.1,546.8,550.1,545.8L550.1,545.8z M551,545.8c0,1.4,0.2,2.5,0.7,3.3
			c0.5,0.8,1,1.2,1.7,1.2c0.7,0,1.3-0.4,1.7-1.2c0.4-0.8,0.7-2,0.7-3.4c0-0.9-0.1-1.8-0.3-2.5c-0.2-0.7-0.5-1.2-0.8-1.6
			c-0.4-0.4-0.8-0.6-1.2-0.6c-0.7,0-1.2,0.4-1.7,1.1C551.3,542.8,551,544,551,545.8L551,545.8z"/>
		<path class="st2" d="M557.9,551.4v-11.6h3.1c0.6,0,1.1,0.1,1.4,0.3c0.3,0.2,0.6,0.6,0.8,1.1c0.2,0.5,0.3,1.1,0.3,1.7
			c0,0.8-0.2,1.5-0.5,2.1c-0.3,0.6-0.8,0.9-1.5,1.1c0.2,0.2,0.4,0.4,0.6,0.6c0.3,0.4,0.5,0.9,0.8,1.5l1.2,3.1h-1.2L562,549
			c-0.3-0.7-0.5-1.2-0.7-1.6c-0.2-0.4-0.3-0.6-0.5-0.8c-0.1-0.1-0.3-0.3-0.4-0.3c-0.1,0-0.3-0.1-0.5-0.1h-1.1v5.1H557.9L557.9,551.4
			z M558.9,544.9h2c0.4,0,0.8-0.1,1-0.2c0.2-0.1,0.4-0.4,0.5-0.7c0.1-0.3,0.2-0.7,0.2-1c0-0.5-0.1-1-0.4-1.3
			c-0.2-0.4-0.6-0.5-1.1-0.5h-2.2V544.9L558.9,544.9z"/>
		<polygon class="st2" points="565.1,551.4 565.1,539.8 566,539.8 566,551.4 565.1,551.4 		"/>
		<path class="st2" d="M567.1,551.4V550l3.6-7.4c0.3-0.5,0.5-1,0.7-1.4h-3.9v-1.4h5v1.4l-3.9,8l-0.4,0.8h4.4v1.4H567.1L567.1,551.4z
			"/>
		<path class="st2" d="M573,551.4V550l3.6-7.4c0.3-0.5,0.5-1,0.7-1.4h-3.9v-1.4h5v1.4l-3.9,8l-0.4,0.8h4.4v1.4H573L573,551.4z"/>
		<path class="st2" d="M578.8,551.4l2.7-11.6h1l2.9,11.6h-1.1l-0.8-3.5h-2.9l-0.8,3.5H578.8L578.8,551.4z M580.8,546.6h2.4l-0.7-3.2
			c-0.2-1-0.4-1.8-0.5-2.4c-0.1,0.7-0.2,1.5-0.4,2.2L580.8,546.6L580.8,546.6z"/>
		<polygon class="st2" points="587.1,551.4 587.1,541.2 584.8,541.2 584.8,539.8 590.3,539.8 590.3,541.2 588,541.2 588,551.4 
			587.1,551.4 		"/>
		<polygon class="st2" points="591.4,551.4 591.4,539.8 592.3,539.8 592.3,551.4 591.4,551.4 		"/>
		<path class="st4" d="M488.4,270.2c25.5,4.6,42.1,13.8,57.6,34.8c8.8,14.3,13,27.5,13.6,44.2c-1.1,33.4-18.4,58.9-48.4,72.9
			c-34,14-68.1,4.3-92.2-22.5c-15.1-19.8-20.8-41.7-16.4-66.5c5.1-19.1,12.6-31.8,27.3-45.1c15.7-11.7,30.5-17.5,50.4-18.1
			L488.4,270.2L488.4,270.2z"/>
		<path class="st5" d="M480.5,275.9c40.4,0,73.3,32.9,73.3,73.3c0,40.4-32.9,73.3-73.3,73.3c-40.4,0-73.3-32.9-73.3-73.3
			C407.3,308.8,440.2,275.9,480.5,275.9L480.5,275.9z"/>
		<path class="st6" d="M480.5,294.7c30,0,54.5,24.5,54.5,54.5c0,30-24.5,54.5-54.5,54.5c-30,0-54.5-24.5-54.5-54.5
			C426,319.2,450.5,294.7,480.5,294.7L480.5,294.7z"/>
		<g>
			<path class="st7" d="M360.9,588.2h45.4c4.6,0,8.3,3.7,8.3,8.3V642c0,4.6-3.7,8.3-8.3,8.3h-45.4c-4.6,0-8.3-3.7-8.3-8.3v-45.4
				C352.6,592,356.3,588.2,360.9,588.2L360.9,588.2z"/>
			<g>
				<path class="st8" d="M391.1,632.5c-3,6.6-10.8,9.6-17.5,6.6c-6.6-3-9.6-10.8-6.6-17.5c1-2.3,2.7-4.2,4.7-5.5l-0.2-4.9
					c-3.6,1.7-6.7,4.7-8.4,8.6c-4,8.8,0,19.2,8.8,23.2c8.1,3.6,17.5,0.6,22.1-6.7l-2.6-4.4C391.2,632.1,391.2,632.3,391.1,632.5z"/>
				<path class="st8" d="M402.9,631l-3.7,2.3l-7.9-14.1l-12.2,0l-0.5-4l9.2,0l0-3.9h-9.8l-0.7-7.4c2.8-0.2,5-2.5,5-5.3
					c0-3-2.4-5.4-5.4-5.4c-3,0-5.4,2.4-5.4,5.4c0,0.8,0.2,1.5,0.5,2.2c0.2,0.6,0.6,1.1,1,1.5c0.1,0.1,0.1,0.1,0.2,0.2l0.6,20.8h14.6
					l9,15.6h0.2l7.1-4.5L402.9,631z"/>
			</g>
		</g>
	</g>
</g>
</svg>
