<?xml version="1.0" encoding="utf-8"?>
<!-- Generator: Adobe Illustrator 19.2.0, SVG Export Plug-In . SVG Version: 6.00 Build 0)  -->
<svg version="1.1" id="Livello_1" xmlns="http://www.w3.org/2000/svg" xmlns:xlink="http://www.w3.org/1999/xlink" x="0px" y="0px"
	 viewBox="0 0 960 960" style="enable-background:new 0 0 960 960;" xml:space="preserve">
<style type="text/css">
	.st0{fill-rule:evenodd;clip-rule:evenodd;fill:#005EA7;stroke:#005EA7;stroke-width:0.6522;stroke-miterlimit:2.6131;}
	.st1{fill-rule:evenodd;clip-rule:evenodd;fill:#005EA7;stroke:#FFFFFF;stroke-width:4.3478;stroke-miterlimit:2.6131;}
	.st2{fill-rule:evenodd;clip-rule:evenodd;fill:#008E43;stroke:#008E43;stroke-width:2.1739;stroke-miterlimit:2.6131;}
	.st3{fill-rule:evenodd;clip-rule:evenodd;fill:#FFFFFF;stroke:#FFFFFF;stroke-width:2.1739;stroke-miterlimit:2.6131;}
	.st4{fill-rule:evenodd;clip-rule:evenodd;fill:#FFFFFF;}
	.st5{fill-rule:evenodd;clip-rule:evenodd;fill:#FFFFFF;stroke:#1A171B;stroke-width:0.6522;stroke-miterlimit:2.6131;}
	.st6{fill-rule:evenodd;clip-rule:evenodd;fill:#005EA7;}
	.st7{fill-rule:evenodd;clip-rule:evenodd;fill:#1A171B;}
</style>
<g>
	<g>
		<polygon class="st0" points="247.8,120 712.2,120 712.2,840 247.8,840 247.8,120 		"/>
		<path class="st1" d="M282.4,129.3h396.1c14.6,0,26.1,12.4,26.1,26.1v650c0,13.9-12.2,26.1-26.1,26.1H282.4
			c-13.7,0-26.1-11.5-26.1-26.1v-650C256.3,141.1,268,129.3,282.4,129.3L282.4,129.3z"/>
		<polygon class="st2" points="299.8,308 660.7,308 660.7,427.6 299.8,427.6 299.8,308 		"/>
		<polygon class="st3" points="299.8,485 660.7,485 660.7,604.6 299.8,604.6 299.8,485 		"/>
		<polygon class="st3" points="299.8,662.2 660.7,662.2 660.7,781.5 299.8,781.5 299.8,662.2 		"/>
		<path class="st4" d="M311.2,224.8l11.5-1.2c0.7,4.1,2.1,7.1,4.2,9.1c2.1,1.9,5,2.9,8.6,2.9c3.8,0,6.7-0.9,8.6-2.6
			c1.9-1.7,2.9-3.7,2.9-6c0-1.5-0.4-2.7-1.2-3.8c-0.8-1-2.2-1.9-4.3-2.7c-1.4-0.5-4.6-1.4-9.5-2.7c-6.4-1.7-10.8-3.7-13.4-6.2
			c-3.6-3.4-5.4-7.6-5.4-12.5c0-3.2,0.8-6.1,2.5-8.9c1.7-2.8,4.1-4.9,7.3-6.3c3.2-1.4,7-2.2,11.5-2.2c7.4,0,12.9,1.7,16.6,5.1
			c3.7,3.4,5.7,8,5.9,13.7l-11.8,0.6c-0.5-3.2-1.6-5.5-3.3-6.9c-1.7-1.4-4.2-2.1-7.5-2.1c-3.4,0-6.1,0.7-8.1,2.2
			c-1.3,1-1.9,2.2-1.9,3.9c0,1.5,0.6,2.7,1.8,3.8c1.5,1.3,5.1,2.7,10.9,4.2c5.8,1.4,10,2.9,12.8,4.5c2.8,1.6,4.9,3.7,6.5,6.3
			c1.6,2.7,2.3,6,2.3,9.9c0,3.6-0.9,6.9-2.8,10c-1.9,3.1-4.5,5.4-7.9,6.9c-3.4,1.5-7.7,2.3-12.8,2.3c-7.4,0-13.1-1.8-17.1-5.5
			C314.4,237,312,231.7,311.2,224.8L311.2,224.8z"/>
		<polygon class="st4" points="382.1,245 382.1,193.3 364.7,193.3 364.7,182.7 411.3,182.7 411.3,193.3 394,193.3 394,245 
			382.1,245 		"/>
		<polygon class="st4" points="419,245 419,182.7 462.5,182.7 462.5,193.3 430.9,193.3 430.9,207.1 460.3,207.1 460.3,217.6 
			430.9,217.6 430.9,234.5 463.6,234.5 463.6,245 419,245 		"/>
		<polygon class="st4" points="474,245 474,183.3 485.9,183.3 485.9,234.5 515.3,234.5 515.3,245 474,245 		"/>
		<polygon class="st4" points="532.7,245 511.7,182.7 524.6,182.7 539.4,228.8 553.8,182.7 566.3,182.7 545.3,245 532.7,245 		"/>
		<polygon class="st4" points="572,245 572,182.7 583.9,182.7 583.9,245 572,245 		"/>
		<path class="st4" d="M592.8,214.3c0-6.3,0.9-11.7,2.7-16c1.3-3.2,3.2-6,5.5-8.5c2.3-2.5,4.8-4.4,7.6-5.6c3.7-1.7,7.9-2.5,12.7-2.5
			c8.7,0,15.6,2.8,20.8,8.5c5.2,5.7,7.8,13.6,7.8,23.7c0,10.1-2.6,17.9-7.7,23.6c-5.2,5.7-12,8.5-20.6,8.5c-8.7,0-15.7-2.8-20.8-8.5
			C595.4,231.9,592.8,224.2,592.8,214.3L592.8,214.3z M605,213.8c0,7,1.5,12.4,4.6,16c3.1,3.6,7,5.5,11.7,5.5
			c4.7,0,8.6-1.8,11.6-5.4c3-3.6,4.5-9,4.5-16.2c0-7.1-1.5-12.5-4.4-16c-3-3.5-6.9-5.3-11.8-5.3c-4.9,0-8.8,1.8-11.8,5.3
			C606.5,201.3,605,206.7,605,213.8L605,213.8z"/>
		<path class="st4" d="M323,338.1l-4.8-0.9c0.5-1.9,1.5-3.4,2.8-4.3c1.3-0.9,3.3-1.4,5.9-1.4c2.4,0,4.1,0.3,5.3,0.8
			c1.1,0.6,2,1.3,2.4,2.1c0.5,0.9,0.7,2.4,0.7,4.7l-0.1,6.2c0,1.8,0.1,3,0.3,3.9c0.2,0.8,0.5,1.7,0.9,2.7h-5.2
			c-0.1-0.4-0.3-0.9-0.5-1.6c-0.1-0.3-0.1-0.5-0.2-0.6c-0.9,0.9-1.9,1.5-2.9,2c-1,0.4-2.1,0.7-3.3,0.7c-2.1,0-3.7-0.6-4.9-1.7
			c-1.2-1.1-1.8-2.5-1.8-4.2c0-1.1,0.3-2.1,0.8-3c0.5-0.9,1.3-1.6,2.3-2c1-0.5,2.4-0.9,4.2-1.2c2.5-0.5,4.2-0.9,5.1-1.3v-0.5
			c0-1-0.2-1.7-0.7-2.2c-0.5-0.4-1.4-0.6-2.8-0.6c-0.9,0-1.7,0.2-2.2,0.6C323.8,336.5,323.3,337.2,323,338.1L323,338.1z
			 M330.1,342.4c-0.7,0.2-1.7,0.5-3.2,0.8c-1.5,0.3-2.4,0.6-2.9,0.9c-0.7,0.5-1,1.1-1,1.9c0,0.7,0.3,1.4,0.8,1.9
			c0.6,0.5,1.2,0.8,2.1,0.8c1,0,1.9-0.3,2.7-0.9c0.6-0.5,1.1-1.1,1.3-1.8c0.1-0.4,0.2-1.3,0.2-2.6V342.4L330.1,342.4z"/>
		<path class="st4" d="M340.3,332h4.9v2.9c0.6-1,1.5-1.8,2.6-2.4c1.1-0.6,2.3-0.9,3.6-0.9c2.3,0,4.3,0.9,5.9,2.7
			c1.6,1.8,2.4,4.3,2.4,7.6c0,3.3-0.8,5.9-2.4,7.8c-1.6,1.8-3.6,2.8-5.9,2.8c-1.1,0-2.1-0.2-3-0.7c-0.9-0.4-1.8-1.2-2.8-2.3v10.1
			h-5.3V332L340.3,332z M345.5,341.6c0,2.2,0.4,3.9,1.3,5c0.9,1.1,2,1.6,3.2,1.6c1.2,0,2.2-0.5,3.1-1.5c0.8-1,1.2-2.6,1.2-4.8
			c0-2.1-0.4-3.6-1.3-4.7c-0.8-1-1.9-1.5-3.1-1.5c-1.3,0-2.4,0.5-3.2,1.5C345.9,338.2,345.5,339.7,345.5,341.6L345.5,341.6z"/>
		<path class="st4" d="M375.5,345.6l5.3,0.9c-0.7,1.9-1.7,3.4-3.2,4.4c-1.5,1-3.3,1.5-5.5,1.5c-3.5,0-6-1.1-7.7-3.4
			c-1.3-1.8-2-4.1-2-6.9c0-3.3,0.9-5.9,2.6-7.8c1.7-1.9,3.9-2.8,6.6-2.8c3,0,5.3,1,7,2.9c1.7,2,2.5,5,2.5,9h-13.2
			c0,1.6,0.5,2.8,1.3,3.6c0.8,0.9,1.8,1.3,3,1.3c0.8,0,1.5-0.2,2.1-0.7C374.8,347.3,375.2,346.6,375.5,345.6L375.5,345.6z
			 M375.8,340.3c0-1.5-0.4-2.7-1.2-3.5c-0.8-0.8-1.7-1.2-2.7-1.2c-1.2,0-2.1,0.4-2.9,1.3c-0.7,0.8-1.1,2-1.1,3.4H375.8L375.8,340.3z
			"/>
		<path class="st4" d="M390.4,352h-5.3V332h4.9v2.8c0.8-1.3,1.6-2.2,2.3-2.6c0.7-0.4,1.4-0.6,2.3-0.6c1.2,0,2.4,0.3,3.5,1l-1.6,4.6
			c-0.9-0.6-1.7-0.9-2.5-0.9c-0.7,0-1.4,0.2-1.9,0.6c-0.5,0.4-0.9,1.1-1.2,2.2c-0.3,1.1-0.4,3.3-0.4,6.7V352L390.4,352z"/>
		<path class="st4" d="M409.5,332v4.2h-3.6v8c0,1.6,0,2.6,0.1,2.8c0.1,0.3,0.2,0.5,0.5,0.7c0.2,0.2,0.5,0.3,0.9,0.3
			c0.5,0,1.2-0.2,2.1-0.5l0.4,4.1c-1.2,0.5-2.6,0.8-4.2,0.8c-0.9,0-1.8-0.2-2.6-0.5c-0.8-0.3-1.3-0.7-1.7-1.2
			c-0.4-0.5-0.6-1.2-0.7-2.1c-0.1-0.6-0.2-1.9-0.2-3.7v-8.7h-2.4V332h2.4v-4l5.3-3.1v7H409.5L409.5,332z"/>
		<path class="st4" d="M411.9,341.7c0-1.8,0.4-3.4,1.3-5.1c0.9-1.6,2.1-2.9,3.7-3.7c1.6-0.9,3.4-1.3,5.3-1.3c3,0,5.5,1,7.4,2.9
			c1.9,2,2.9,4.4,2.9,7.4c0,3-1,5.5-2.9,7.5c-1.9,2-4.4,3-7.4,3c-1.8,0-3.6-0.4-5.2-1.2c-1.7-0.8-2.9-2-3.8-3.6
			C412.3,345.9,411.9,344,411.9,341.7L411.9,341.7z M417.3,342c0,2,0.5,3.5,1.4,4.5c0.9,1.1,2.1,1.6,3.5,1.6s2.5-0.5,3.5-1.6
			c0.9-1.1,1.4-2.6,1.4-4.6c0-1.9-0.5-3.5-1.4-4.5c-0.9-1.1-2.1-1.6-3.5-1.6s-2.5,0.5-3.5,1.6C417.8,338.5,417.3,340,417.3,342
			L417.3,342z"/>
		<path class="st4" d="M528.5,341.5c0-1.8,0.4-3.4,1.3-5.1c0.9-1.6,2.1-2.9,3.7-3.8c1.6-0.9,3.4-1.3,5.3-1.3c3,0,5.5,1,7.4,2.9
			c1.9,2,2.9,4.4,2.9,7.4c0,3-1,5.5-2.9,7.5c-1.9,2-4.4,3-7.4,3c-1.8,0-3.6-0.4-5.2-1.2c-1.7-0.8-2.9-2-3.8-3.6
			C528.9,345.7,528.5,343.8,528.5,341.5L528.5,341.5z M533.9,341.8c0,2,0.5,3.5,1.4,4.5c0.9,1.1,2.1,1.6,3.5,1.6
			c1.4,0,2.5-0.5,3.5-1.6c0.9-1.1,1.4-2.6,1.4-4.6c0-1.9-0.5-3.5-1.4-4.5c-0.9-1.1-2.1-1.6-3.5-1.6c-1.4,0-2.5,0.5-3.5,1.6
			C534.4,338.3,533.9,339.8,533.9,341.8L533.9,341.8z"/>
		<path class="st4" d="M566.4,351.7v-3c-0.7,1.1-1.7,1.9-2.9,2.5c-1.2,0.6-2.4,0.9-3.8,0.9c-1.3,0-2.5-0.3-3.6-0.9
			c-1.1-0.6-1.8-1.4-2.3-2.5c-0.5-1.1-0.7-2.5-0.7-4.4v-12.6h5.3v9.2c0,2.8,0.1,4.5,0.3,5.2c0.2,0.6,0.5,1.1,1.1,1.5
			c0.5,0.4,1.2,0.6,2,0.6c0.9,0,1.7-0.2,2.4-0.7c0.7-0.5,1.2-1.1,1.5-1.8c0.3-0.7,0.4-2.5,0.4-5.4v-8.4h5.3v19.9H566.4L566.4,351.7z
			"/>
		<path class="st4" d="M582.2,351.7l-8-19.9h5.5l3.8,10.2l1.1,3.4c0.3-0.9,0.5-1.4,0.5-1.7c0.2-0.6,0.4-1.1,0.6-1.7l3.8-10.2h5.4
			l-7.9,19.9H582.2L582.2,351.7z"/>
		<path class="st4" d="M609.7,345.4l5.3,0.9c-0.7,1.9-1.7,3.4-3.2,4.4c-1.5,1-3.3,1.5-5.5,1.5c-3.5,0-6-1.1-7.7-3.4
			c-1.3-1.8-2-4.1-2-6.9c0-3.3,0.9-5.9,2.6-7.8c1.7-1.9,3.9-2.8,6.6-2.8c3,0,5.3,1,7,2.9c1.7,2,2.5,5,2.5,9H602
			c0,1.6,0.5,2.8,1.3,3.6c0.8,0.9,1.8,1.3,3,1.3c0.8,0,1.5-0.2,2.1-0.7C608.9,347.1,609.4,346.4,609.7,345.4L609.7,345.4z
			 M610,340.1c0-1.5-0.4-2.7-1.2-3.5c-0.7-0.8-1.7-1.2-2.7-1.2c-1.2,0-2.1,0.4-2.9,1.3c-0.7,0.8-1.1,2-1.1,3.4H610L610,340.1z"/>
		<path class="st4" d="M624.6,351.7h-5.3v-19.9h4.9v2.8c0.8-1.3,1.6-2.2,2.3-2.6c0.7-0.4,1.4-0.6,2.3-0.6c1.2,0,2.4,0.3,3.5,1
			l-1.6,4.6c-0.9-0.6-1.7-0.9-2.5-0.9c-0.7,0-1.4,0.2-1.9,0.6c-0.5,0.4-0.9,1.1-1.2,2.2c-0.3,1.1-0.4,3.3-0.4,6.7V351.7L624.6,351.7
			z"/>
		<path class="st4" d="M643.6,331.8v4.2H640v8c0,1.6,0,2.6,0.1,2.8c0.1,0.3,0.2,0.5,0.5,0.7c0.2,0.2,0.5,0.3,0.9,0.3
			c0.5,0,1.2-0.2,2.1-0.5l0.5,4.1c-1.2,0.5-2.6,0.8-4.2,0.8c-0.9,0-1.8-0.2-2.6-0.5c-0.8-0.3-1.3-0.7-1.7-1.2
			c-0.4-0.5-0.6-1.2-0.7-2.1c-0.1-0.6-0.2-1.9-0.2-3.7V336h-2.4v-4.2h2.4v-4l5.3-3.1v7H643.6L643.6,331.8z"/>
		<path class="st4" d="M317.8,394.7c0-1.8,0.4-3.4,1.3-5.1c0.9-1.6,2.1-2.9,3.7-3.8c1.6-0.9,3.4-1.3,5.3-1.3c3,0,5.5,1,7.4,2.9
			c1.9,2,2.9,4.4,2.9,7.4c0,3-1,5.5-2.9,7.5c-1.9,2-4.4,3-7.4,3c-1.8,0-3.6-0.4-5.2-1.2c-1.7-0.8-2.9-2-3.8-3.6
			C318.3,399,317.8,397,317.8,394.7L317.8,394.7z M323.3,395c0,2,0.5,3.5,1.4,4.5c0.9,1.1,2.1,1.6,3.5,1.6c1.4,0,2.5-0.5,3.5-1.6
			c0.9-1.1,1.4-2.6,1.4-4.6c0-1.9-0.5-3.5-1.4-4.5c-0.9-1.1-2.1-1.6-3.5-1.6c-1.4,0-2.5,0.5-3.5,1.6
			C323.7,391.5,323.3,393,323.3,395L323.3,395z"/>
		<path class="st4" d="M342.4,385.1h4.9v2.9c0.6-1,1.5-1.8,2.6-2.4c1.1-0.6,2.3-0.9,3.6-0.9c2.3,0,4.3,0.9,5.9,2.7
			c1.6,1.8,2.4,4.3,2.4,7.6c0,3.3-0.8,5.9-2.4,7.8c-1.6,1.8-3.6,2.8-5.9,2.8c-1.1,0-2.1-0.2-3-0.7c-0.9-0.4-1.8-1.2-2.8-2.3v10.1
			h-5.3V385.1L342.4,385.1z M347.6,394.7c0,2.2,0.4,3.9,1.3,5c0.9,1.1,2,1.6,3.2,1.6c1.2,0,2.2-0.5,3.1-1.5c0.8-1,1.2-2.6,1.2-4.8
			c0-2.1-0.4-3.6-1.3-4.7c-0.8-1-1.9-1.5-3.1-1.5c-1.3,0-2.4,0.5-3.2,1.5C348.1,391.3,347.6,392.7,347.6,394.7L347.6,394.7z"/>
		<path class="st4" d="M377.6,398.7l5.3,0.9c-0.7,1.9-1.7,3.4-3.2,4.4c-1.5,1-3.3,1.5-5.5,1.5c-3.5,0-6-1.1-7.7-3.4
			c-1.3-1.8-2-4.1-2-6.9c0-3.3,0.9-5.9,2.6-7.8c1.7-1.9,3.9-2.8,6.6-2.8c3,0,5.3,1,7,2.9c1.7,2,2.5,5,2.5,9h-13.2
			c0,1.6,0.5,2.8,1.3,3.6c0.8,0.9,1.8,1.3,3,1.3c0.8,0,1.5-0.2,2.1-0.7C376.9,400.4,377.3,399.7,377.6,398.7L377.6,398.7z
			 M377.9,393.3c0-1.5-0.4-2.7-1.2-3.5c-0.8-0.8-1.7-1.2-2.7-1.2c-1.2,0-2.1,0.4-2.9,1.3c-0.7,0.8-1.1,2-1.1,3.4H377.9L377.9,393.3z
			"/>
		<path class="st4" d="M405.6,405h-5.3v-10.2c0-2.2-0.1-3.5-0.3-4.2c-0.2-0.6-0.6-1.1-1.1-1.5c-0.5-0.3-1.1-0.5-1.8-0.5
			c-0.9,0-1.7,0.2-2.5,0.8c-0.7,0.5-1.2,1.2-1.5,2c-0.3,0.8-0.4,2.4-0.4,4.6v9h-5.3v-19.9h4.9v2.9c1.7-2.3,3.9-3.4,6.6-3.4
			c1.2,0,2.2,0.2,3.2,0.6c1,0.4,1.7,1,2.2,1.6c0.5,0.7,0.8,1.4,1,2.2c0.2,0.8,0.3,2,0.3,3.5V405L405.6,405z"/>
		<path class="st4" d="M494.7,406.1l6,0.7c0.1,0.7,0.3,1.2,0.7,1.4c0.5,0.4,1.3,0.6,2.4,0.6c1.4,0,2.4-0.2,3.1-0.6
			c0.5-0.3,0.8-0.7,1.1-1.3c0.2-0.4,0.2-1.2,0.2-2.4v-2.9c-1.6,2.2-3.6,3.2-6,3.2c-2.7,0-4.8-1.1-6.4-3.4c-1.2-1.8-1.8-4-1.8-6.7
			c0-3.3,0.8-5.9,2.4-7.7c1.6-1.8,3.6-2.6,6-2.6c2.5,0,4.5,1.1,6.1,3.3v-2.8h4.9v17.9c0,2.4-0.2,4.1-0.6,5.3
			c-0.4,1.2-0.9,2.1-1.6,2.7c-0.7,0.7-1.6,1.2-2.8,1.6c-1.2,0.4-2.7,0.6-4.4,0.6c-3.4,0-5.8-0.6-7.2-1.7c-1.4-1.2-2.1-2.6-2.1-4.4
			C494.6,406.6,494.7,406.3,494.7,406.1L494.7,406.1z M499.4,394.4c0,2.1,0.4,3.7,1.2,4.6c0.8,1,1.8,1.5,3,1.5
			c1.3,0,2.4-0.5,3.3-1.5c0.9-1,1.3-2.5,1.3-4.5c0-2.1-0.4-3.6-1.3-4.6c-0.8-1-1.9-1.5-3.2-1.5c-1.3,0-2.3,0.5-3.1,1.5
			C499.8,390.9,499.4,392.4,499.4,394.4L499.4,394.4z"/>
		<path class="st4" d="M530.2,398.4l5.3,0.9c-0.7,1.9-1.7,3.4-3.2,4.4c-1.5,1-3.3,1.5-5.5,1.5c-3.5,0-6-1.1-7.7-3.4
			c-1.3-1.8-2-4.1-2-6.9c0-3.3,0.9-5.9,2.6-7.8c1.7-1.9,3.9-2.8,6.6-2.8c3,0,5.3,1,7,2.9c1.7,2,2.5,5,2.5,9h-13.2
			c0,1.6,0.5,2.8,1.3,3.6c0.8,0.9,1.8,1.3,3,1.3c0.8,0,1.5-0.2,2.1-0.7C529.5,400.2,529.9,399.4,530.2,398.4L530.2,398.4z
			 M530.5,393.1c0-1.5-0.4-2.7-1.2-3.5c-0.7-0.8-1.7-1.2-2.7-1.2c-1.2,0-2.1,0.4-2.9,1.3c-0.7,0.8-1.1,2-1.1,3.4H530.5L530.5,393.1z
			"/>
		<path class="st4" d="M538.8,394.5c0-1.8,0.4-3.4,1.3-5.1c0.9-1.6,2.1-2.9,3.7-3.8c1.6-0.9,3.4-1.3,5.3-1.3c3,0,5.5,1,7.4,2.9
			c1.9,2,2.9,4.4,2.9,7.4c0,3-1,5.5-2.9,7.5c-1.9,2-4.4,3-7.4,3c-1.8,0-3.6-0.4-5.2-1.2c-1.7-0.8-2.9-2-3.8-3.6
			C539.3,398.8,538.8,396.8,538.8,394.5L538.8,394.5z M544.2,394.8c0,2,0.5,3.5,1.4,4.5c0.9,1.1,2.1,1.6,3.5,1.6
			c1.4,0,2.5-0.5,3.5-1.6c0.9-1.1,1.4-2.6,1.4-4.6c0-1.9-0.5-3.5-1.4-4.5c-0.9-1.1-2.1-1.6-3.5-1.6c-1.4,0-2.5,0.5-3.5,1.6
			C544.7,391.3,544.2,392.8,544.2,394.8L544.2,394.8z"/>
		<path class="st4" d="M561.2,384.8h2.9v-1.5c0-1.7,0.2-2.9,0.5-3.8c0.4-0.8,1-1.5,2-2c1-0.5,2.2-0.8,3.6-0.8c1.5,0,3,0.2,4.4,0.7
			l-0.7,3.7c-0.8-0.2-1.6-0.3-2.4-0.3c-0.8,0-1.3,0.2-1.6,0.5c-0.3,0.4-0.5,1-0.5,2.1v1.4h3.9v4.1h-3.9v15.8h-5.3V389h-2.9V384.8
			L561.2,384.8z"/>
		<path class="st4" d="M574,384.8h2.9v-1.5c0-1.7,0.2-2.9,0.5-3.8c0.4-0.8,1-1.5,2-2c1-0.5,2.2-0.8,3.6-0.8c1.5,0,3,0.2,4.4,0.7
			l-0.7,3.7c-0.8-0.2-1.6-0.3-2.4-0.3c-0.8,0-1.3,0.2-1.6,0.5c-0.3,0.4-0.5,1-0.5,2.1v1.4h3.9v4.1h-3.9v15.8H577V389H574V384.8
			L574,384.8z"/>
		<path class="st4" d="M607.3,404.8H602v-10.2c0-2.2-0.1-3.5-0.3-4.2c-0.2-0.6-0.6-1.1-1.1-1.5c-0.5-0.3-1.1-0.5-1.8-0.5
			c-0.9,0-1.7,0.3-2.5,0.8c-0.7,0.5-1.2,1.2-1.5,2c-0.3,0.8-0.4,2.4-0.4,4.6v9h-5.3v-19.9h4.9v2.9c1.7-2.3,3.9-3.4,6.6-3.4
			c1.2,0,2.2,0.2,3.2,0.6c1,0.4,1.7,1,2.2,1.6c0.5,0.7,0.8,1.4,1,2.2c0.2,0.8,0.3,2,0.3,3.5V404.8L607.3,404.8z"/>
		<path class="st4" d="M624.2,398.4l5.3,0.9c-0.7,1.9-1.7,3.4-3.2,4.4c-1.5,1-3.3,1.5-5.5,1.5c-3.5,0-6-1.1-7.7-3.4
			c-1.3-1.8-2-4.1-2-6.9c0-3.3,0.9-5.9,2.6-7.8c1.7-1.9,3.9-2.8,6.6-2.8c3,0,5.3,1,7,2.9c1.7,2,2.5,5,2.5,9h-13.2
			c0,1.6,0.5,2.8,1.3,3.6c0.8,0.9,1.8,1.3,3,1.3c0.8,0,1.5-0.2,2.1-0.7C623.5,400.2,623.9,399.4,624.2,398.4L624.2,398.4z
			 M624.5,393.1c0-1.5-0.4-2.7-1.2-3.5c-0.7-0.8-1.7-1.2-2.7-1.2c-1.2,0-2.1,0.4-2.9,1.3c-0.7,0.8-1.1,2-1.1,3.4H624.5L624.5,393.1z
			"/>
		<path class="st4" d="M643.2,384.8v4.2h-3.6v8c0,1.6,0,2.6,0.1,2.8c0.1,0.3,0.2,0.5,0.5,0.7c0.2,0.2,0.5,0.3,0.9,0.3
			c0.5,0,1.2-0.2,2.1-0.5l0.4,4.1c-1.2,0.5-2.6,0.8-4.2,0.8c-0.9,0-1.8-0.2-2.6-0.5c-0.8-0.3-1.3-0.7-1.7-1.2
			c-0.4-0.5-0.6-1.2-0.7-2.1c-0.1-0.6-0.2-1.9-0.2-3.7V389h-2.4v-4.2h2.4v-4l5.3-3.1v7H643.2L643.2,384.8z"/>
		<path class="st4" d="M553.5,375.7h5.2v5.2h-5.2V375.7L553.5,375.7z M539.3,375.7h5.2v5.2h-5.2V375.7L539.3,375.7z"/>
		<path class="st5" d="M484.9,492.8c16.5,2.9,27.1,8.9,37.1,22.4c5.7,9.2,8.4,17.7,8.7,28.5c-0.7,21.5-11.9,38-31.2,47
			c-21.9,9-43.8,2.8-59.4-14.5c-9.7-12.8-13.4-26.8-10.6-42.8c3.3-12.3,8.1-20.5,17.6-29c10.1-7.5,19.7-11.3,32.5-11.7L484.9,492.8
			L484.9,492.8z"/>
		<path class="st6" d="M479.7,497.1c25.6,0,46.4,20.8,46.4,46.4c0,25.6-20.8,46.4-46.4,46.4c-25.6,0-46.4-20.8-46.4-46.4
			C433.3,518,454.2,497.1,479.7,497.1L479.7,497.1z"/>
		<path class="st4" d="M484.1,581.5c-5.4-0.6-11,0.9-16.2-1.3c-2.3-1.3-4.4-3.1-5.6-5.2c-0.2-0.2-0.2-0.3-0.4-0.5
			c-1-1.6-2.1-3.3-2.8-5.4c-3.2-7.8-3.9-15.9-4.1-24c0-9.3,0.5-18.6,3.5-27.6c0.1-0.4,0.4-0.7,0.4-1.1c1.4-3.1,2.8-6,5.5-8.4
			c0.8-0.4,1.4-1.1,2.3-1.4l0.2-0.2c3.9-1.5,7.8-1.1,12.2-1.1c4.4-0.1,10.8,0.5,13.6,4c0.7,0.7,1.3,1.3,1.9,2
			c0.4,0.6,0.8,1.1,1.1,1.7c0.2,0.2,0.2,0.5,0.4,0.7c5.8,10.1,7,22.8,6.7,34.2c-0.3,7.3-0.8,14.2-3,21.3c-1.7,4.7-3.9,8.9-8.6,11.3
			c-2.1,0.9-4.5,0.9-6.8,0.9L484.1,581.5L484.1,581.5z"/>
		<path class="st7" d="M483.5,578.5c-4.7-0.5-9.6,0.9-14-1.2c-2-1.2-3.8-2.9-4.9-4.8c-0.1-0.1-0.1-0.3-0.3-0.4
			c-0.9-1.5-1.8-3.1-2.5-5c-2.8-7.2-3.4-14.7-3.6-22.2c0-8.6,0.5-17.2,3-25.5c0-0.3,0.3-0.6,0.3-1c1.2-2.8,2.4-5.6,4.7-7.8
			c0.7-0.4,1.2-1,2-1.3l0.1-0.1c3.4-1.4,7.1-0.8,10.9-0.9c3.8-0.1,9.1,0.2,11.5,3.5c0.6,0.6,1.1,1.2,1.7,1.9c0.3,0.6,0.7,1,1,1.6
			c0.2,0.1,0.2,0.4,0.4,0.6c5.1,9.3,6.1,21.1,5.8,31.7c-0.2,6.7-0.7,13.2-2.6,19.7c-1.5,4.3-3.4,8.3-7.4,10.4
			c-1.9,0.9-3.9,0.8-5.9,0.8L483.5,578.5L483.5,578.5z M474,538.3h-0.2c-0.1-0.2-0.2-0.4-0.3-0.7c0-0.2-0.2-0.2-0.3-0.4
			c-1.2-0.6-2.5-0.1-3.7-0.3c-0.3,0-0.5,0.1-0.7,0.3c-0.2,0.3-0.4,0.5-0.5,1c-0.5,0-0.8,0-1.3,0l-0.2-0.2c0-0.1-0.1-0.3-0.1-0.5
			c-0.2-0.2-0.4-0.6-0.8-0.7H463l-0.2-0.1c0-2.3,0.2-4.6,0.6-7l0.1,0h3.1c0.3-0.1,0.6-0.1,0.8-0.3c0-0.1,0.2-0.4,0.4-0.6l0-0.2
			c0.4-0.1,0.8-0.1,1.3-0.1l0.2,0.1c0,0.2,0.1,0.2,0.2,0.4l0.2,0.3c1,0.7,2.7,0.3,4.1,0.3c0.2-0.2,0.4-0.2,0.6-0.4
			c0.1-0.1,0.2-0.5,0.4-0.8c0.5-0.1,0.9,0,1.4,0l0.2,0.3c0.1,0.2,0.3,0.4,0.5,0.6c0.1,0,0.3,0.2,0.6,0.2l2.7,0.1l0,0
			c-0.2,2.2-0.5,4.6-0.5,6.8l-0.1,0.3h-2.2c-0.5,0-0.9,0-1.3,0.1c-0.1,0-0.2,0.2-0.4,0.4c-0.1,0.3-0.3,0.5-0.5,0.9c-0.3,0-0.7,0-1,0
			H474L474,538.3z M467.2,548.7l-0.3-0.1c0-0.3-0.2-0.6-0.4-0.9c-1-0.7-2.5-0.3-3.7-0.4c-0.3-2.1,0-4.2-0.1-6.4l0.1-0.2l3-0.1
			c0.2,0,0.5-0.3,0.7-0.6c0,0,0-0.2,0.1-0.4l0.1-0.1c0.4,0,0.8,0,1.2,0l0.3,0.4c0,0.2,0.2,0.4,0.4,0.6c0.1,0,0.3,0.2,0.6,0.2l3.6,0
			c0.2-0.2,0.4-0.4,0.5-0.6c0.1,0,0.2-0.3,0.2-0.6c0.5,0,1.1-0.1,1.6,0.1c0,0.2,0.1,0.2,0.2,0.4l0.2,0.3c0.1,0.2,0.4,0.2,0.6,0.3
			c1,0.2,2.1,0,3.2,0.1l0,0l0.2,6.4l-0.2,0.1c-1.2,0-2.4-0.1-3.5,0.3c-0.3,0.2-0.4,0.7-0.7,1.1c-0.4,0-0.9,0.1-1.4,0
			c0-0.3-0.3-0.6-0.5-0.9l-0.1-0.1c-1.1-0.5-2.4-0.1-3.7-0.3l-0.4,0.1c-0.2,0.1-0.4,0.2-0.6,0.5c0,0.2-0.1,0.5-0.3,0.7
			c-0.4,0.1-0.7,0-1.1,0.1H467.2L467.2,548.7z M475.5,559.4l-0.1,0c0-0.1,0-0.3,0-0.4c-0.1-0.2-0.3-0.5-0.6-0.7
			c-1.2-0.5-2.6-0.3-3.8-0.3c-0.5,0.3-0.8,0.8-1,1.3l-0.1,0.1c-0.4,0-0.7,0-1.1,0l-0.3-0.2c0-0.1,0-0.2-0.1-0.4
			c-0.1-0.3-0.5-0.7-0.9-0.8h-3.6c-0.5-2.3-0.8-4.6-0.9-7c1-0.1,2,0.1,3.1-0.2c0.2,0,0.4-0.2,0.6-0.5c0.1-0.1,0.2-0.4,0.3-0.7
			c0.5,0,0.9,0,1.3,0l0.2,0.2l0.1,0.3c0,0.2,0.3,0.4,0.6,0.7c1.1,0.3,2.3,0,3.4,0.2c0.5,0,0.7-0.5,1.1-0.7c0-0.2,0-0.5,0.2-0.6
			c0.4,0,0.9,0,1.2,0l0.3,0.2c0.1,0.3,0.4,0.7,0.9,1c1.1,0.3,2.5,0,3.8,0.2c0.1,2.3,0.6,4.6,0.9,6.9c-0.5,0.1-0.9,0-1.6,0
			c-0.7,0-1,0-1.5,0l-0.2,0.1c-0.3,0.1-0.7,0.5-0.8,0.9l0,0.2c-0.4,0.1-0.8,0.1-1.2,0.1H475.5L475.5,559.4z M471.9,567.7
			c-0.1-0.1-0.3,0-0.5-0.1c-0.1-0.1-0.1-0.4-0.3-0.7c-0.1-0.1-0.1-0.2-0.3-0.4c-1.2-0.5-2.7-0.2-3.9-0.2c-0.2,0-0.3,0.2-0.6,0.2
			c-0.5-1.5-1.3-3.2-1.5-4.9h2.7l0.5-0.2c0.2-0.3,0.3-0.5,0.5-0.9l0.1-0.1c0.4-0.1,0.8,0,1.2-0.1c0.4,0.3,0.5,0.9,1.2,1.1
			c1,0.1,2.2,0.1,3.4,0.1c0.3-0.1,0.5-0.4,0.9-0.7c0-0.2,0.1-0.4,0.3-0.6c0.4,0,1,0,1.5,0.1c0,0.3,0.2,0.5,0.5,0.9
			c0.1,0.1,0.3,0.1,0.5,0.3h3.3c0.2,0,0.2-0.3,0.6-0.3c0,0.1,0,0.3,0.1,0.4c0,0.2,0.2,0.6,0.2,0.9l1.2,3.5l0,0.1l-2.6,0
			c-0.3,0.1-0.5,0.3-0.7,0.5c-0.1,0.3-0.2,0.5-0.3,0.7c-0.4,0.3-1,0.1-1.5,0.1l-0.2-0.1c0-0.2-0.1-0.3-0.1-0.5l-0.2-0.3
			c-1.1-0.6-2.6-0.2-3.8-0.3l-0.5,0.2l-0.1,0.1l-0.1,0.1c-0.1,0.2-0.3,0.5-0.4,0.9C472.6,567.7,472.3,567.6,471.9,567.7L471.9,567.7
			L471.9,567.7z M477,573.7L477,573.7c-0.1-0.2-0.1-0.3-0.2-0.5c-0.1-0.3-0.5-0.5-0.8-0.7l-2.7,0l-0.2,0.1c-0.2,0.1-0.4,0.2-0.6,0.5
			c0,0,0,0.2-0.2,0.4l-0.3,0.1c-1.4-0.7-3.1-2-3.9-3.6c0.8-0.1,1.7,0,2.5-0.2c0.2-0.2,0.4-0.3,0.5-0.5c0-0.2,0.2-0.3,0.2-0.6
			c0.4-0.1,0.8,0,1.3-0.1l0.3,0.1c0,0.2,0.1,0.2,0.2,0.5c0.1,0.3,0.5,0.5,0.8,0.7h3.2c0.2,0,0.4-0.3,0.7-0.4
			c0.3-0.2,0.3-0.6,0.5-0.8c0.4-0.1,0.9-0.1,1.4,0c0.1,0,0.1,0.2,0.3,0.4c0,0.2,0.2,0.4,0.5,0.6c1.2,0.4,2.6,0.3,3.9,0.1
			c0.2-0.1,0.5-0.4,0.7-0.5c0.7,0.9,1.5,1.9,2.4,2.8l0,0.1l-0.1,0.2c-0.9,0.1-1.8,0-2.7,0.1l-0.5,0.2c-0.3,0.2-0.4,0.7-0.7,1
			c-0.2,0-0.7,0-0.9,0c-0.1,0-0.1-0.3-0.1-0.5c-0.1-0.2-0.3-0.4-0.7-0.7c-0.9-0.2-1.8,0-2.8-0.1c-0.3,0-0.5,0.2-0.9,0.5
			c0,0.1-0.2,0.2-0.2,0.4v0.2l-0.1,0.1C477.5,573.7,477.3,573.6,477,573.7L477,573.7z M468.6,527.5c-0.3,0-0.5,0-0.8,0
			c-0.4-0.6-0.6-1.1-1.4-1.3l-2.4,0l-0.1-0.1c0.2-1.4,0.6-2.9,1.1-4.4l0.1-0.1c1.1,0.3,2.3,0.1,3.5,0.1c0.2,0,0.4-0.1,0.7-0.3
			c0.1-0.1,0.2-0.2,0.4-0.4c0.1-0.1,0.1-0.3,0.3-0.6c0.4,0,0.8,0,1.2,0l0.3,0.1l0,0.3c0,0.2,0.3,0.4,0.5,0.6
			c0.1,0.1,0.3,0.2,0.6,0.3h2.9c0.3,0,0.6-0.3,0.9-0.5l0.1-0.1c0.1,0,0.2-0.3,0.2-0.6l0,0c0.5,0,0.9-0.1,1.4,0
			c0.1,0,0.1,0.2,0.3,0.4c0,0.2,0.3,0.2,0.3,0.5l0.1,0.1c0.9,0.5,1.9,0.1,2.8,0.3c0.1,0.1,0.3,0,0.5,0.1c-0.5,1.5-1,3-1.4,4.5
			c-1.2,0-2.3,0-3.6,0l-0.3,0.1c-0.2,0.1-0.3,0.2-0.5,0.4c-0.2,0.2-0.3,0.5-0.3,0.7l-0.1,0.1c-0.4,0-0.8,0-1.2,0l-0.2-0.1
			c0-0.2-0.1-0.3-0.3-0.6c-0.1-0.2-0.2-0.1-0.4-0.4c-0.1,0-0.3,0-0.5-0.2l-3.6,0.1c-0.1,0-0.2,0.3-0.4,0.3l-0.1,0.1
			c-0.2,0.1-0.2,0.4-0.3,0.7l-0.2,0C468.9,527.5,468.7,527.5,468.6,527.5L468.6,527.5z M470.2,519.3l-0.1-0.1l-0.1,0
			c0-0.1,0-0.3-0.1-0.5c0-0.2-0.2-0.4-0.4-0.5c-0.8-0.4-1.7-0.2-2.6-0.2c0-0.2,0-0.3,0.2-0.6c1-1.2,2-2.8,3.7-3.1
			c0,0.1,0.1,0.2,0.2,0.4c0,0.2,0.2,0.4,0.5,0.6c1,0.3,2,0,3.1,0.2l0.3-0.1l0.3-0.2l0.1-0.1c0.1,0,0.1-0.4,0.3-0.5l0.3-0.1
			c0.1,0,0.2,0,0.4,0l0.2,0.1l0.1,0.3l0.2,0.2l0.1,0.1c0,0.1,0.2,0.1,0.4,0.2h2.9c0.2,0,0.5-0.3,0.7-0.6v-0.1l0.2-0.2
			c0.3-0.1,0.6,0,0.9-0.1l0.3,0.1c0,0.3,0.3,0.5,0.6,0.9c1,0.2,2,0,3,0.1l0,0.2c-0.1,0.3-0.4,0.6-0.7,1c-0.2,0.3-0.5,0.6-0.7,1
			c-0.2,0.3-0.4,0.7-0.7,1c-0.1,0-0.2-0.2-0.3-0.3c-0.1-0.1-0.4-0.2-0.6-0.3c-1.2,0-2.5-0.3-3.8,0.2l-0.2,0.3
			c-0.1,0.2-0.2,0.4-0.3,0.7c-0.4,0.2-1,0-1.5,0c-0.1-0.4-0.2-0.7-0.6-0.9c-0.1-0.1-0.2-0.2-0.6-0.3l-3.6,0
			c-0.1,0.1-0.2,0.1-0.4,0.3c-0.1,0.1-0.2,0.4-0.3,0.6l-0.1,0.2C471.1,519.3,470.6,519.2,470.2,519.3L470.2,519.3z M489.4,566.4
			c0.1-1-0.5-1.9-0.8-2.9l-0.1-0.3l-0.1-0.1l-0.1-0.2c-0.2-0.2-0.6-0.2-1-0.3l0,0c0-0.1,0-0.3,0-0.5c0.1,0,0.2-0.1,0.4-0.3
			c0.1-0.1,0.2-0.2,0.3-0.4c0-0.9-0.4-1.9-0.5-2.8l-0.1-0.3c0-0.1-0.2-0.2-0.3-0.4c-0.2-0.1-0.6-0.2-0.9-0.3l-0.1-0.1
			c0-0.3,0-0.4,0-0.8c0.2,0,0.4-0.3,0.7-0.6c0.3-1-0.2-2-0.2-3.2c-0.3-0.1-0.2-0.5-0.5-0.7c-0.2,0-0.5-0.1-0.6-0.2
			c0-0.1,0-0.3,0-0.4c0.2-0.1,0.4-0.2,0.6-0.4c0.5-1,0-2.2,0.2-3.3c-0.1-0.3-0.1-0.5-0.5-0.8c-0.1-0.1-0.4-0.2-0.7-0.3
			c0-0.1,0-0.2,0-0.4l0.2-0.2l0.3-0.3c0.5-1,0.2-2.3,0.3-3.4c0-0.3-0.2-0.3-0.3-0.6c-0.2-0.1-0.4-0.2-0.6-0.3
			c-0.1-0.1-0.1-0.4-0.1-0.6l0.3-0.1l0.2-0.2c0.7-0.9,0.5-2.4,0.5-3.6l0-0.2c-0.1-0.3-0.6-0.6-0.8-0.8c0-0.1,0-0.2,0-0.4
			c0.2-0.3,0.7-0.5,0.9-0.9c0-1.1,0.3-2.3,0-3.5c-0.2-0.2-0.5-0.3-0.7-0.6c0-0.1,0-0.4,0-0.6c0.1,0,0.3-0.1,0.6-0.2
			c0.1-0.1,0.2-0.3,0.4-0.4c0.1-0.1,0.2-0.3,0.3-0.6c0.1-0.8,0.4-1.6,0.5-2.4c0-0.3-0.1-0.3-0.3-0.7c-0.1-0.2-0.4-0.3-0.6-0.5v-0.1
			c0-0.1,0-0.3,0.1-0.4c0.2,0,0.4,0,0.7-0.2l0.1-0.1l0.1-0.1c0.1-0.1,0.1-0.5,0.3-0.7c0.1-1,0.8-1.8,0.6-2.6c0.2-0.1,0.3,0,0.5,0
			l0.3,0c0.6,0.5,1,1,1.5,1.7c4.9,12.9,5.1,27.7,1.4,41.1c-0.2,0.3-0.4,0.7-0.6,1c-0.4,0.5-0.6,0.7-0.9,1c-0.1,0.1-0.4,0.1-0.5,0.3
			H489.4L489.4,566.4z M476.1,576.4c-1.5-0.1-3.1,0-4.6-0.5l-1.7-0.9c-0.2,0-0.2-0.1-0.5-0.2c-2.1-1.7-3.4-3.8-4.6-6.1v-0.2
			c0.3-0.1,0.5,0,0.9,0l0.3,0.1l0,0.2c1.3,1.2,2.2,2.9,3.9,4.2c0.7,0.5,1.5,1,2.4,1.3c0,0.2,0.2,0.2,0.2,0.5l0.3,0.2
			c0.1,0.1,0.3,0.2,0.5,0.3l2.7,0l0.3-0.1c0.3-0.3,0.5-0.5,0.6-0.9c0.2-0.1,0.4,0,0.7,0l0.2,0.2l0,0.1c0.1,0.1,0.1,0.2,0.3,0.4
			c0.9,0.5,2.2,0.2,3.3,0.3l0.1-0.1c0.3-0.1,0.6-0.4,0.8-0.9c0.2-0.1,0.7,0,1,0c0.3,0.2,0.3,0.5,0.6,0.8c0.1,0.1,0.2,0.1,0.6,0.3
			l2.6,0c0.3,0,0.5-0.2,0.8-0.5c0-0.1,0.2-0.2,0.2-0.5c0.1-0.5,0.1-0.9-0.1-1.6c-0.1-0.2,0.2-0.2,0.2-0.5c0.1-0.1,0.1-0.3,0.3-0.5
			c0.3,0,0.5,0,0.9,0l0.3-0.2l0.2-0.2c0.5-0.9,0.9-2.1,1-3.2c0-0.3-0.2-0.5-0.4-0.9l0,0c0-0.1,0.2-0.1,0.4-0.2
			c5.4-8.7,4.7-20.2,4.2-29.9c-0.6-5.4-1.4-11.4-4.1-16.2c-0.2-0.4-0.5-0.8-0.9-1.2c-0.4-0.1-0.4-0.3-0.6-0.3l-0.1-0.2
			c0.4-0.9-0.2-1.9-0.5-2.8v-0.1c-0.1-0.1-0.2-0.3-0.3-0.6l-0.1-0.1c-0.3-0.2-0.9-0.3-1.4-0.2c0-0.2-0.2-0.3-0.4-0.6
			c0-0.6,0.2-1.1,0-1.7c0-0.4-0.2-0.6-0.5-0.9c-1-0.3-2,0-3.1-0.2c-0.1,0.1-0.5,0.1-0.6,0.3l-0.2,0.2c0,0.2-0.1,0.5-0.2,0.6l-0.3,0
			c-0.2,0-0.5,0-0.9,0c0-0.2,0-0.2-0.1-0.5c0-0.1-0.1-0.2-0.3-0.4c-0.1-0.1-0.2-0.2-0.5-0.3l-2.8,0.1l-0.3,0
			c-0.1,0.1-0.1,0.2-0.3,0.3c0,0.2-0.2,0.3-0.3,0.6l0,0.1c-0.3,0.1-0.5,0-0.7,0c-0.2-0.2-0.3-0.6-0.5-0.9c-0.9-0.6-2.2-0.2-3.3-0.3
			l-0.5,0.1c-0.1,0-0.3,0.3-0.5,0.5c0,0.2-0.2,0.2-0.5,0.3c-1.7,0.5-2.8,1.8-4,3.2c0,0.2-0.1,0.2-0.2,0.5l-0.1,0.1
			c-0.2,0.2-0.2,0.6-0.5,0.9c-0.1,0-0.3,0.2-0.5,0.2l-0.2,0.1c-0.2,0.2-0.2,0.7-0.4,0.9c-0.3,0-0.5,0-0.8,0l0,0
			c0.7-2,1.4-3.7,2.6-5.1c0.8-1.5,2.3-2.6,3.7-3.3c1.1-0.4,2.3-0.4,3.4-0.4c5.7,0.5,12.8-1.8,16.6,3.4c6.3,8,7.7,20.2,7.9,30.7
			c-0.2,7.3-0.5,14.4-2.6,21.4c-0.7,2.3-1.5,4.4-2.7,6.3c-0.7,1.3-2,2.7-3.4,3.5l-0.1,0.1c-4.2,1.2-8.5,0.3-12.7,0.6L476.1,576.4
			L476.1,576.4z M487.7,519.5l-0.1-0.1l-0.1-0.1l-0.7-2.1l0-0.1l0.3,0.3c0,0,0.2,0,0.4,0.2l0.3-0.1l0.1-0.3c0-0.2-0.2-0.3-0.1-0.5
			h0.1c0.4,0.7,0.5,1.5,0.9,2.4v0.2l-0.1,0.1C488.5,519.2,488.1,519.5,487.7,519.5L487.7,519.5z M485.1,520.9
			c-0.3-0.2-0.7-0.4-1-0.7c0.5-1,1-1.9,1.7-2.8l0.1,0c0.4,0.9,0.6,2.2,1.3,2.8c-0.5-0.1-0.9-0.3-1.5-0.1
			C485.5,520.3,485.4,520.7,485.1,520.9L485.1,520.9z M481.9,527.5l-0.2-0.1c0.3-2.1,1-4.4,2-6.2c0.3,0,0.6,0.5,1,0.7
			c0,0.5-0.1,0.9-0.3,1.3c0,0.1,0,0.2,0,0.4c0.1,0.5,0.4,0.8,0.8,1.1v0.1c0,0.1,0,0.3-0.1,0.4c-0.1,0-0.3,0.1-0.6,0.2
			c-0.1,0.1-0.2,0.2-0.4,0.4c-0.2,0.5-0.3,1-0.5,1.5C483.1,527.7,482.5,527.4,481.9,527.5L481.9,527.5z M480.8,538.3l-0.1,0
			c-0.2-3.2,0-6.6,0.9-9.6l0.2-0.2c0.4,0,0.8,0,1.2,0c0.1,0.1,0.2,0.3,0.2,0.5l0.1,0.3c0.1,0.2,0.6,0.5,0.8,0.7c0,0.3,0,0.5-0.2,0.7
			c-0.1,0.1-0.3,0.1-0.5,0.2c-0.1,0-0.3,0.2-0.5,0.3c0,0.1-0.2,0.2-0.2,0.4l-0.1,3l0.1,0.2l0.3,0.3c0.1,0.1,0.4,0.1,0.5,0.3l0.2,0.3
			l-0.2,0.2h-0.1c-0.2,0-0.2,0.1-0.4,0.3l-0.3,0.2c0,0.1-0.2,0.2-0.2,0.5c0,0.3,0,0.7-0.1,1.1C482,538.4,481.4,538.3,480.8,538.3
			L480.8,538.3z M482.2,548.6c-0.4,0-0.7,0-1.2,0l-0.2-0.2c-0.1-3-0.5-6-0.1-9.1h1.9c0.1,0.2,0,0.5,0,0.7c0.1,0.3,0.3,0.5,0.5,0.7
			c0.1,0.1,0.3,0.1,0.6,0.3c0.1,0,0,0.3,0,0.6c-0.3,0.1-0.5,0.3-0.8,0.5c0,0.1-0.2,0.2-0.2,0.5l-0.1,2.5l0,0.3
			c0.1,0.3,0.3,0.5,0.6,0.8c0.2,0,0.4,0,0.6,0.2l0.1,0v0.3c-0.1,0.2-0.5,0.3-0.7,0.5c0,0.1-0.1,0.2-0.2,0.5c0,0.2,0,0.4,0,0.7
			l-0.4,0.2C482.5,548.6,482.4,548.6,482.2,548.6L482.2,548.6z M482.5,559.5l-0.1,0c-0.7-3.2-1.2-6.4-1.4-9.7c0.5-0.2,1.2,0,1.8-0.1
			l0.2,0.3c0,0.2,0,0.7,0.1,0.9c0.3,0.4,0.6,0.7,1.1,0.8c0,0,0,0.2,0,0.3c0,0.1-0.2,0.1-0.5,0.2l-0.2,0.3c-0.1,0-0.1,0.3-0.3,0.4
			c0,1,0.1,2.2,0.5,3.3c0.1,0.1,0.2,0.2,0.4,0.4c0.1,0.1,0.5,0.1,0.8,0.3c0,0.2,0,0.4,0.2,0.7l-0.1,0.1c0,0-0.2,0.2-0.4,0.3
			c-0.3,0.4-0.2,0.9-0.2,1.4L482.5,559.5L482.5,559.5z M484.8,566.6l-0.1-0.2c-0.8-1.8-1.5-3.7-1.9-5.8v-0.1c0.6,0,1.1-0.1,1.7,0
			l0.3,0.2c0.1,0.3,0.1,0.7,0.3,1c0,0.1,0.2,0.2,0.4,0.4c0.2,0.1,0.6,0.2,0.9,0.4c0,0.1,0,0.2,0,0.4c0,0.2-0.2,0.4-0.5,0.6
			c-0.1,0.2-0.1,0.7,0,1c0,0.3,0.4,0.8,0.3,1.3c-0.4,0.2-0.8,0.7-1.2,0.9H484.8L484.8,566.6z M489.4,570.9v-0.3l-0.2-0.3l-0.3,0
			c-0.2,0-0.3,0-0.5,0.2c0,0,0,0.2-0.3,0.3l0-0.1c0-0.5,0.2-1,0.5-1.4c0-0.3,0.1-0.7,0.4-1l0.1-0.1c0.2,0,0.7,0.1,1,0.2l0.1,0.2
			C490,569.4,489.8,570.3,489.4,570.9L489.4,570.9z M487.1,570.4c-0.8-0.9-1.2-1.7-1.8-2.7v-0.1c0.3-0.3,0.8-0.6,1.1-0.9
			c0.2,0.2,0.5,0.6,1,0.7c0.4,0,1-0.1,1.4-0.2l-0.3,0.1l-0.1,0.1c-0.3,0.3-0.3,0.9-0.6,1.3c0,0.5-0.3,1-0.5,1.5L487.1,570.4
			L487.1,570.4z M464.5,567.6h-0.1c-1-2.1-1.9-4.7-2.2-7.1c0.2-0.1,0.4,0,0.7-0.1c0.2,0.1,0.2,0.3,0.3,0.5c0.9,1.2,1.1,3.4,1.8,4.9
			c0.3,0.5,0.5,1,0.8,1.6l-0.1,0.1C465.2,567.6,464.8,567.6,464.5,567.6L464.5,567.6z M461.8,559.4c-0.7-3.1-1-6.4-1.2-9.6l0.2-0.2
			c0.1,0,0.3,0,0.5,0l0.3,0.3c0.7,2.9,0.9,6.3,1.2,9.5C462.5,559.4,462.1,559.4,461.8,559.4L461.8,559.4z M460.9,548.7
			c-0.2-0.1-0.3,0-0.5-0.1c-0.2-3-0.1-6.1,0-9.2c0.2-0.1,0.3-0.1,0.5-0.1l0.3,0.2c0,0.3,0.4,0.5,0.5,0.9l0,7.5
			c-0.2,0.2-0.2,0.6-0.5,0.8C461.2,548.6,461,548.8,460.9,548.7L460.9,548.7z M460.6,538.3c0-3.1,0.3-6.4,0.8-9.7
			c0.1-0.1,0.4,0,0.7-0.1l0.1,0.2c0,2.8-0.5,5.5-0.5,8.4c-0.1,0.1-0.2,0.2-0.3,0.4c-0.1,0.2-0.2,0.4-0.4,0.7
			C460.9,538.3,460.7,538.3,460.6,538.3L460.6,538.3z M461.7,527.5l-0.1-0.1c0.3-2.3,0.8-4.5,1.6-7l0.1-0.1c0.3,0,0.7,0,1,0l0.1,0.2
			c-0.1,0.3-0.3,0.5-0.3,0.9c-0.5,1.7-0.9,3.2-1.3,5c-0.1,0-0.1,0.2-0.3,0.4c-0.1,0.2-0.1,0.5-0.3,0.7
			C461.9,527.5,461.9,527.5,461.7,527.5L461.7,527.5z M486.4,523.9c-0.1-0.1,0-0.3,0-0.5c-0.1-0.1-0.2-0.2-0.4-0.3h-0.2l-0.3,0.3
			l0,0.2h-0.2c0-0.1,0.1-0.2,0-0.5c0.2,0,0-0.3,0.2-0.4c0.2-0.1,0.5,0.1,0.7,0l0.1-0.1c0.1-0.2,0.1-0.5,0-0.7
			c-0.1,0-0.3-0.2-0.3-0.3l0-0.3l0.1-0.1c0.3-0.2,0.9,0,1.1,0.3l0,0.1c0,0.4-0.2,0.8-0.3,1.1c-0.1,0.4-0.2,0.8-0.4,1.2L486.4,523.9
			L486.4,523.9z M485.3,529l0-0.2c-0.1-0.1-0.1-0.2-0.4-0.3h-0.3c-0.2,0.1-0.1,0.3-0.3,0.3l0-0.2c0-0.1,0.1-0.1,0.2-0.3
			c0.1-0.6-0.1-1.2,0.3-1.8c0,0.1,0.1,0.3,0.1,0.5l0.2,0.2c0.1,0,0.3,0,0.4-0.1c0.1-0.1,0.2-0.3,0.2-0.6h0.1l0.1,0.1l-0.7,2.4H485.3
			L485.3,529z M483.7,534.6l-0.1-0.2l0.1-2.3l0.3-0.2v0.2l0,0.1c0.1,0.2,0.2,0.2,0.4,0.3c0.1,0,0.3,0,0.5-0.2l0.2-0.2l-0.2,2.3
			c-0.1-0.1,0-0.2,0-0.4l-0.3-0.3l-0.3,0l-0.2,0.1c-0.1,0.1-0.1,0.3-0.2,0.5C483.9,534.3,483.9,534.5,483.7,534.6L483.7,534.6z
			 M483.6,540l-0.2-0.3c0.2-0.7,0-1.6,0.2-2.4l0.1,0l0,0.2c0.1,0.2,0.3,0.3,0.5,0.5h0.1c0.2-0.1,0.2-0.1,0.5-0.3l-0.1,2.1v-0.1
			c0-0.1,0-0.3-0.2-0.5c-0.1-0.1-0.3-0.1-0.6-0.1l-0.3,0.3c0,0.2,0,0.4,0,0.6L483.6,540L483.6,540z M483.7,545.4
			c-0.1,0-0.2-0.2-0.3-0.3v-2c0.1-0.1,0-0.3,0.1-0.4h0.1l0,0.2l0.3,0.3l0.2,0.1c0.2,0,0.3-0.3,0.6-0.3c0,0.5,0,1-0.1,1.6l-0.2-0.2
			c-0.1,0-0.3,0-0.5,0l-0.1,0.1c0,0.2,0,0.4,0,0.7H483.7L483.7,545.4z M484,550.5c-0.3-0.7-0.2-1.6-0.1-2.4v0.2l0.3,0.3l0.2,0.1
			l0.3-0.1l0.1-0.3c0-0.2,0-0.2,0-0.4l0.2-0.1c0.2,0.8,0.1,1.7,0.1,2.6h-0.1c0-0.1,0-0.3-0.2-0.4l-0.3-0.1c-0.1,0-0.3,0-0.4,0.1
			C484,550,484.2,550.3,484,550.5L484,550.5z M484.6,555.8l-0.1-0.1c-0.1-0.9-0.3-1.7-0.2-2.6l0.1-0.1c0.1,0.2,0.1,0.5,0.3,0.7
			l0.3,0.2l0.2,0c0.1-0.1,0.3-0.2,0.3-0.5l0.1,0.1l0.1,2.1c-0.1-0.1-0.1-0.1-0.2-0.3c0-0.1-0.2-0.1-0.4-0.2l-0.3,0l-0.2,0.3
			C484.6,555.6,484.8,555.6,484.6,555.8L484.6,555.8z M485.9,561.3l-0.1-0.1c-0.1-0.4-0.1-0.8,0-1.1c0-0.1,0-0.3-0.1-0.5l-0.3-0.1
			c-0.1,0-0.1-0.2-0.2-0.4v-0.3c0.2,0,0.4,0.1,0.6,0.1l0.3-0.2c0,0,0-0.2,0.2-0.3h0.1c0.3,0.6,0.5,1.6,0.7,2.4l-0.1,0.2
			c0-0.2-0.1-0.2-0.2-0.4l-0.3-0.1l-0.3,0.1c-0.1,0-0.1,0.2-0.2,0.4C485.9,561.1,486,561.3,485.9,561.3L485.9,561.3z M487.5,566.6
			c-0.1,0-0.2-0.1-0.2-0.4c0-0.3,0.2-0.3,0.2-0.6l0-0.2l-0.1-0.1c-0.1,0-0.3-0.1-0.5-0.1c0-0.3-0.2-0.5-0.2-0.7
			c0.1,0,0.2,0.2,0.4,0.2c0.1,0,0.3,0,0.5-0.2c0.1-0.1,0-0.5,0.1-0.9l0.2,0l0.9,2.3c0,0.1,0,0.3-0.2,0.4
			C488.3,566.4,487.8,566.5,487.5,566.6L487.5,566.6z M484.6,574.7v-0.2l0.3-0.1l0.2-0.2l-0.1-0.3c0-0.1-0.2-0.2-0.4-0.2l-0.1-0.1
			v-0.1l0.3-0.2h1.7v0.4c0,0.1,0,0.3,0.2,0.4l0.3,0.1c0.1,0,0.3,0,0.4-0.2l0.1,0c0,0.1-0.1,0.3-0.1,0.5
			C486.5,574.8,485.5,574.6,484.6,574.7L484.6,574.7z M479.4,574.7c-0.1,0-0.4,0-0.6,0v-0.2l0.2-0.1l0.2-0.3l0-0.2
			c-0.1-0.1-0.4-0.1-0.5-0.3l0-0.2l2.6-0.1l0.2,0.4c-0.2,0-0.2,0.1-0.5,0.2l0,0.3c0,0.1,0.3,0.2,0.4,0.3v0.1
			C480.8,574.8,480.1,574.7,479.4,574.7L479.4,574.7z M474.1,574.7c-0.2,0-0.5,0-0.9,0l-0.2-0.2c-0.1-0.3,0-0.5,0-0.9
			c0-0.1,0.1-0.3,0.3-0.4l2.6,0.1l0,0.2c-0.1,0.1-0.3,0.1-0.5,0.2l-0.2,0.3c0,0.2,0.1,0.2,0.3,0.4h0.2l0.1,0.1l-0.1,0.1
			C475.3,574.7,474.7,574.7,474.1,574.7L474.1,574.7z M481.2,568.9c-0.1,0-0.3-0.1-0.3-0.3l0.3-0.1c0.1,0,0.1-0.2,0.2-0.4v-0.1
			c-0.1-0.2-0.4-0.2-0.6-0.4c0.1-0.2,0.1-0.3,0.3-0.4l2.9,0l0,0.2l-0.1,0.1c-0.1,0.1-0.2,0.2-0.3,0.4c0,0.1,0,0.3,0.2,0.4
			c0.1,0.1,0.4,0,0.7,0.1c0,0.2-0.2,0.2-0.3,0.3L481.2,568.9L481.2,568.9z M475.1,569c-0.3-0.1-0.7,0-1,0l-0.3-0.3
			c0.1-0.1,0.3-0.1,0.5-0.2l0.1-0.3l-0.1-0.3c-0.2,0-0.3-0.1-0.5-0.2l0.1-0.3c1-0.2,1.8,0,2.9-0.1c0.1,0,0.3,0,0.3,0.2v0.2l-0.2,0.1
			c-0.1,0-0.1,0.3-0.1,0.5c0,0.2,0.1,0.2,0.3,0.3v0.2l-0.1,0.1C476.5,569,475.8,568.9,475.1,569L475.1,569z M469.2,569
			c-0.5-0.1-1.1,0-1.6,0l-0.2-0.3l0.2-0.2c0-0.1,0-0.3,0-0.5c0-0.1-0.2-0.1-0.4-0.3c0,0-0.3,0-0.3-0.1l0.1-0.1
			c0.9-0.3,1.9-0.1,2.9-0.1l0.4,0.2c0,0.1-0.2,0.1-0.3,0.2c-0.1,0.1-0.2,0.2-0.3,0.4l0.1,0.3c0,0,0.3,0,0.5,0.2l-0.1,0.2
			C470,569,469.5,568.8,469.2,569L469.2,569z M478.3,560.7c-0.2,0-0.3,0-0.3-0.2l0.2-0.1c0.1-0.1,0.2-0.2,0.3-0.5l-0.1-0.2
			c0-0.1-0.2-0.1-0.3-0.3v-0.2c0.9-0.2,2,0,3-0.1c0.2,0,0.3,0.2,0.3,0.5c-0.1,0-0.4,0-0.6,0.1l-0.1,0.1l-0.1,0.1
			c0,0.1,0.1,0.3,0.1,0.5c0,0,0.3,0,0.5,0.2v0.1C480.2,560.8,479.3,560.6,478.3,560.7L478.3,560.7z M471.6,560.7
			c-0.2-0.1-0.5,0.1-0.6-0.2c0-0.2,0.3-0.1,0.3-0.2l0.1-0.3c0-0.1,0-0.3-0.1-0.5c0,0-0.2,0-0.4-0.2l0-0.2c0.1,0,0.3,0,0.4-0.1h2.6
			c0.1,0,0.5,0.1,0.3,0.4c-0.2,0-0.2,0-0.4,0.2l-0.1,0.2l0.1,0.3c0,0,0.2,0.2,0.3,0.4l-0.2,0.2H471.6L471.6,560.7z M465,560.7
			c-0.2,0-0.4,0-0.6,0l-0.1-0.3l0.3-0.2V560c0-0.1,0-0.3-0.1-0.4c-0.1-0.1-0.2-0.2-0.4-0.3l-0.1-0.1l0.1-0.1c1-0.1,1.9,0,3-0.1
			l0.2,0.2c0,0.2-0.2,0.2-0.4,0.3c-0.1,0-0.1,0.3-0.2,0.5l0,0.1c0,0.2,0.3,0.3,0.4,0.5l0,0.1L465,560.7L465,560.7z M476.8,550
			l-0.2-0.3l0.1,0c0.1,0,0.2-0.2,0.4-0.3v-0.1c-0.1-0.2-0.1-0.2-0.2-0.4l-0.3-0.1l0.1-0.2c0,0,0.2,0,0.3-0.1h2.7l0.2,0.1l-0.1,0.2
			h-0.2l-0.3,0.1l-0.2,0.3c0,0.1,0,0.3,0.2,0.4c0,0.2,0.5,0.1,0.5,0.3l0,0l-0.3,0.1H476.8L476.8,550z M469.9,550
			c-0.1,0-0.3,0-0.3-0.3c0.2,0,0.2-0.1,0.4-0.2l0.1-0.2c0-0.1,0-0.2-0.1-0.4c-0.1-0.1-0.2-0.2-0.4-0.3l0-0.2c0.9-0.2,2-0.1,3-0.1
			l0.2,0.1c0,0.2-0.2,0.2-0.3,0.3l-0.1,0.3c0,0.1,0,0.3,0.1,0.4l0.3,0.2l0,0.1C471.9,550,470.8,550,469.9,550L469.9,550z M464.4,550
			c-0.5-0.1-0.9,0-1.5-0.1l-0.2-0.1c0-0.2,0.2-0.2,0.3-0.4c0-0.1,0-0.3,0-0.5c-0.1,0-0.2-0.2-0.4-0.3v-0.3h3l0.1,0.3
			c-0.2,0-0.3,0.1-0.5,0.2l-0.1,0.3l0.1,0.3c0,0.1,0.2,0.2,0.3,0.2v0.1l-0.1,0.1C465.3,550,465,550,464.4,550L464.4,550L464.4,550z
			 M476.5,539.7l-0.2-0.3c0.1,0,0.4-0.2,0.5-0.4c0-0.1,0-0.3-0.2-0.5c0,0-0.3,0-0.3-0.2v-0.1c0-0.1,0.2-0.1,0.4-0.2h2.5l0.3,0.1
			l-0.1,0.2h-0.2c-0.1,0.1-0.2,0.2-0.3,0.5c0,0.2,0.1,0.2,0.2,0.4c0.2,0,0.2,0.1,0.5,0.1l0,0.1l-0.1,0
			C478.4,539.7,477.5,539.6,476.5,539.7L476.5,539.7z M470.5,539.7c-0.3-0.1-0.7,0-1,0l-0.2-0.2l0.1,0c0,0,0.2-0.2,0.4-0.3v-0.1
			c-0.1-0.2-0.1-0.2-0.3-0.4l-0.3-0.1l0.1-0.1c0.9-0.3,2-0.1,3.1-0.1l0.1,0.1v0.1c-0.1,0.1-0.2,0.1-0.3,0.3l0,0.1
			c0,0.1,0,0.3,0.1,0.5c0.1,0,0.3,0.1,0.3,0.3C472,539.7,471.2,539.5,470.5,539.7L470.5,539.7z M463.1,539.7l-0.3,0l0-0.1
			c-0.1-0.2,0.2-0.3,0.2-0.6c0-0.3-0.3-0.5-0.2-0.9c0.7-0.2,1.7,0,2.6-0.1l0.3,0.3h-0.3c0,0.1-0.2,0.2-0.3,0.5l0.1,0.2
			c0.1,0.1,0.2,0.2,0.4,0.3l0,0.1C464.7,539.7,463.8,539.5,463.1,539.7L463.1,539.7z M478,528.8c-0.2-0.1-0.5,0-0.6-0.1v-0.1
			c0.2,0,0.2-0.2,0.4-0.2c0.1-0.1,0-0.4,0-0.6c0-0.1-0.3-0.1-0.5-0.2l0.1-0.3c1,0,2.1-0.1,3.1,0l0.1,0.1c-0.1,0.1-0.3,0.1-0.6,0.2
			l-0.1,0.1c0,0.1,0,0.4,0,0.6c0.1,0,0.2,0.2,0.5,0.2v0.1l0,0L478,528.8L478,528.8z M470.6,528.8l-0.2-0.2c0-0.1,0.3-0.1,0.3-0.3
			l0.2-0.3c0-0.1,0-0.3-0.2-0.4c0-0.1-0.3,0-0.4-0.2l0-0.1l0-0.1c1,0,2,0,3,0l0.2,0.2c0,0.3-0.2,0.1-0.3,0.3l-0.1,0.3
			c0,0.1,0,0.3,0.2,0.4l0.2,0.3l-0.1,0.1L470.6,528.8L470.6,528.8z M465,528.8c-0.5-0.1-0.9,0-1.3-0.1l0-0.2l0.3-0.2l0-0.3
			c0-0.2,0-0.3-0.2-0.5l0-0.3l0,0l2.7,0l0.1,0.3h-0.1c-0.1,0.1-0.3,0.2-0.4,0.3c0,0.2,0,0.2,0,0.5c0.1,0.1,0.3,0.2,0.5,0.3
			C466.1,528.9,465.5,528.7,465,528.8L465,528.8z M483.2,514.5L483.2,514.5c0-0.2,0.2-0.2,0.4-0.3l0.1-0.1c0-0.1-0.1-0.3-0.1-0.5
			c0,0-0.2,0-0.5-0.1l0-0.1l0.1-0.1l2.4-0.1l0.3,0.1c0,0,0.1,0.3,0.1,0.5l-0.1,0.1l-0.3-0.1l-0.2,0.1l-0.1,0.1
			c-0.1,0.1,0,0.3-0.1,0.5l0,0H483.2L483.2,514.5z M478.1,514.6c-0.1-0.1-0.4,0-0.6-0.1l-0.1-0.1l0.2-0.1l0.2-0.3
			c0-0.1,0-0.3-0.2-0.4c-0.1,0-0.2-0.1-0.4-0.1v-0.2c0.8-0.3,1.7,0,2.6-0.1l0.3,0.3c-0.2,0-0.3,0.1-0.5,0.3c0,0.1,0,0.2,0,0.4
			l0.3,0.3l0,0L478.1,514.6L478.1,514.6z M472,514.6L472,514.6l-0.2-0.2c-0.1-0.3-0.1-0.7,0-1l0.1-0.1l0.2-0.1l2.4,0.1l0.1,0.1
			c-0.1,0.1-0.3,0-0.4,0c0,0.1-0.2,0.1-0.3,0.4l0.1,0.2l0.1,0.2c0,0,0.2,0,0.4,0.1l-0.1,0L472,514.6L472,514.6z M479.8,520.6
			l-0.3-0.2c0-0.1,0.3,0,0.4-0.2l0.1-0.3c0-0.2,0-0.4-0.1-0.4c0-0.1-0.2-0.1-0.4-0.3l0-0.1c0.9-0.2,2.3-0.2,3.3,0v0.3l-0.3,0.1
			c-0.1,0-0.1,0.3-0.1,0.6c0,0.1,0.3,0.2,0.3,0.4C481.9,520.7,480.7,520.5,479.8,520.6L479.8,520.6z M473.3,520.6
			c-0.2,0-0.5,0-0.7-0.2c0-0.1,0.3,0,0.5-0.3l0-0.1c0-0.2,0-0.4-0.2-0.4c-0.1-0.1-0.1-0.1-0.3-0.3V519c0.9-0.2,2,0,2.9-0.1l0.4,0.3
			c-0.1,0.2-0.5,0.2-0.5,0.4c0,0.2,0,0.5,0.1,0.6c0,0,0.3,0.1,0.2,0.4H473.3L473.3,520.6z M465.8,520.6l-0.2-0.2
			c0-0.1,0.2-0.1,0.3-0.1c0.1-0.1,0.2-0.2,0.2-0.4c0-0.1,0-0.3-0.2-0.5c0-0.1,0-0.3,0.2-0.4l2.4-0.1l0.3,0.3c0,0.1-0.2,0.1-0.3,0.2
			l-0.2,0.3c0,0.1,0,0.3,0.1,0.4c0,0.1,0.2,0.1,0.3,0.3l-0.1,0.2H465.8L465.8,520.6z"/>
		<path class="st7" d="M487.3,556.8c-1.5-8.7-1.3-17.6-0.9-26.6l0.1,0h0.1c0.9,0.5,1.1,1.9,1.7,3c1.3,5.6,1.7,11.3,1.1,17.1
			c-0.3,2.1-0.7,4.4-1.6,5.9c0,0.1-0.2,0.4-0.4,0.5L487.3,556.8L487.3,556.8z"/>
	</g>
</g>
</svg>
