<?xml version="1.0" encoding="utf-8"?>
<!-- Generator: Adobe Illustrator 19.2.0, SVG Export Plug-In . SVG Version: 6.00 Build 0)  -->
<svg version="1.1" id="Livello_1" xmlns="http://www.w3.org/2000/svg" xmlns:xlink="http://www.w3.org/1999/xlink" x="0px" y="0px"
	 viewBox="0 0 960 960" style="enable-background:new 0 0 960 960;" xml:space="preserve">
<style type="text/css">
	.st0{fill-rule:evenodd;clip-rule:evenodd;fill:#005EA7;stroke:#005EA7;stroke-width:0.6522;stroke-miterlimit:2.6131;}
	.st1{fill-rule:evenodd;clip-rule:evenodd;fill:#005EA7;stroke:#FFFFFF;stroke-width:4.3478;stroke-miterlimit:2.6131;}
	.st2{fill-rule:evenodd;clip-rule:evenodd;fill:#E1001A;stroke:#E1001A;stroke-width:2.1739;stroke-miterlimit:2.6131;}
	.st3{fill-rule:evenodd;clip-rule:evenodd;fill:#FFFFFF;stroke:#FFFFFF;stroke-width:2.1739;stroke-miterlimit:2.6131;}
	.st4{fill-rule:evenodd;clip-rule:evenodd;fill:#FFFFFF;}
	.st5{fill-rule:evenodd;clip-rule:evenodd;fill:#1A171B;}
	.st6{fill-rule:evenodd;clip-rule:evenodd;fill:#1A171B;stroke:#1A171B;stroke-width:0.6522;stroke-miterlimit:2.6131;}
	.st7{fill-rule:evenodd;clip-rule:evenodd;fill:#FFFFFF;stroke:#FFFFFF;stroke-width:0.6522;stroke-miterlimit:2.6131;}
</style>
<g>
	<g>
		<polygon class="st0" points="247.8,120 712.2,120 712.2,840 247.8,840 247.8,120 		"/>
		<path class="st1" d="M282.4,129.3h396.1c14.6,0,26.1,12.4,26.1,26.1v650c0,13.9-12.2,26.1-26.1,26.1H282.4
			c-13.7,0-26.1-11.5-26.1-26.1v-650C256.3,141.1,268,129.3,282.4,129.3L282.4,129.3z"/>
		<polygon class="st2" points="299.8,308 660.7,308 660.7,427.6 299.8,427.6 299.8,308 		"/>
		<polygon class="st3" points="299.8,662 660.7,662 660.7,781.5 299.8,781.5 299.8,662 		"/>
		<polygon class="st3" points="299.8,485 660.7,485 660.7,604.6 299.8,604.6 299.8,485 		"/>
		<path class="st4" d="M311.2,224.8l11.5-1.2c0.7,4.1,2.1,7.1,4.2,9.1c2.1,1.9,5,2.9,8.6,2.9c3.8,0,6.7-0.9,8.6-2.6
			c1.9-1.7,2.9-3.7,2.9-6c0-1.5-0.4-2.7-1.2-3.8c-0.8-1-2.2-1.9-4.3-2.7c-1.4-0.5-4.6-1.4-9.5-2.7c-6.4-1.7-10.8-3.7-13.4-6.2
			c-3.6-3.4-5.4-7.6-5.4-12.5c0-3.2,0.8-6.1,2.5-8.9c1.7-2.8,4.1-4.9,7.3-6.3c3.2-1.4,7-2.2,11.5-2.2c7.4,0,12.9,1.7,16.6,5.1
			c3.7,3.4,5.7,8,5.9,13.7l-11.8,0.6c-0.5-3.2-1.6-5.5-3.3-6.9c-1.7-1.4-4.2-2.1-7.5-2.1c-3.4,0-6.1,0.7-8.1,2.2
			c-1.3,1-1.9,2.2-1.9,3.9c0,1.5,0.6,2.7,1.8,3.8c1.5,1.3,5.1,2.7,10.9,4.2c5.8,1.4,10,2.9,12.8,4.5c2.8,1.6,4.9,3.7,6.5,6.3
			c1.6,2.7,2.3,6,2.3,9.9c0,3.6-0.9,6.9-2.8,10c-1.9,3.1-4.5,5.4-7.9,6.9c-3.4,1.5-7.7,2.3-12.8,2.3c-7.4,0-13.1-1.8-17.1-5.5
			C314.4,237,312,231.7,311.2,224.8L311.2,224.8z"/>
		<polygon class="st4" points="382.1,245 382.1,193.3 364.7,193.3 364.7,182.7 411.3,182.7 411.3,193.3 394,193.3 394,245 
			382.1,245 		"/>
		<polygon class="st4" points="419,245 419,182.7 462.5,182.7 462.5,193.3 430.9,193.3 430.9,207.1 460.3,207.1 460.3,217.6 
			430.9,217.6 430.9,234.5 463.6,234.5 463.6,245 419,245 		"/>
		<polygon class="st4" points="474,245 474,183.3 485.9,183.3 485.9,234.5 515.3,234.5 515.3,245 474,245 		"/>
		<polygon class="st4" points="532.7,245 511.7,182.7 524.6,182.7 539.4,228.8 553.8,182.7 566.3,182.7 545.3,245 532.7,245 		"/>
		<polygon class="st4" points="572,245 572,182.7 583.9,182.7 583.9,245 572,245 		"/>
		<path class="st4" d="M592.8,214.3c0-6.3,0.9-11.7,2.7-16c1.3-3.2,3.2-6,5.5-8.5c2.3-2.5,4.8-4.4,7.6-5.6c3.7-1.7,7.9-2.5,12.7-2.5
			c8.7,0,15.6,2.8,20.8,8.5c5.2,5.7,7.8,13.6,7.8,23.7c0,10.1-2.6,17.9-7.7,23.6c-5.2,5.7-12,8.5-20.6,8.5c-8.7,0-15.7-2.8-20.8-8.5
			C595.4,231.9,592.8,224.2,592.8,214.3L592.8,214.3z M605,213.8c0,7,1.5,12.4,4.6,16c3.1,3.6,7,5.5,11.7,5.5
			c4.7,0,8.6-1.8,11.6-5.4c3-3.6,4.5-9,4.5-16.2c0-7.1-1.5-12.5-4.4-16c-3-3.5-6.9-5.3-11.8-5.3c-4.9,0-8.8,1.8-11.8,5.3
			C606.5,201.3,605,206.7,605,213.8L605,213.8z"/>
		<path class="st4" d="M324.2,337.9l-4.6,0.9c-0.2-1-0.5-1.8-1.1-2.3c-0.6-0.5-1.3-0.8-2.1-0.8c-1.2,0-2.1,0.5-2.8,1.4
			c-0.7,0.9-1,2.4-1,4.6c0,2.4,0.4,4,1.1,5c0.7,1,1.7,1.5,2.8,1.5c0.9,0,1.6-0.3,2.2-0.9c0.6-0.6,1-1.6,1.2-2.9l4.6,0.9
			c-0.5,2.4-1.4,4.2-2.8,5.4c-1.4,1.2-3.2,1.8-5.5,1.8c-2.6,0-4.7-0.9-6.2-2.8c-1.5-1.8-2.3-4.4-2.3-7.6c0-3.3,0.8-5.9,2.3-7.7
			c1.5-1.8,3.6-2.8,6.3-2.8c2.2,0,3.9,0.5,5.1,1.6C322.7,334.2,323.6,335.8,324.2,337.9L324.2,337.9z"/>
		<path class="st4" d="M332.4,324.4v10.1c1.5-2,3.3-3,5.4-3c1.1,0,2,0.2,2.9,0.7c0.9,0.4,1.5,1,2,1.7c0.4,0.7,0.7,1.5,0.9,2.3
			c0.2,0.8,0.2,2.2,0.2,4V352h-4.7v-10.5c0-2.1-0.1-3.4-0.3-4c-0.2-0.6-0.5-1-0.9-1.3c-0.4-0.3-1-0.5-1.7-0.5
			c-0.8,0-1.5,0.2-2.1,0.6c-0.6,0.4-1.1,1.1-1.3,1.9c-0.3,0.9-0.4,2.1-0.4,3.8v10h-4.7v-27.5H332.4L332.4,324.4z"/>
		<path class="st4" d="M348.6,329.3v-4.9h4.7v4.9H348.6L348.6,329.3z M348.6,352V332h4.7V352H348.6L348.6,352z"/>
		<path class="st4" d="M369.8,352v-3c-0.7,1.1-1.5,1.9-2.5,2.5c-1.1,0.6-2.2,0.9-3.3,0.9c-1.2,0-2.3-0.3-3.2-0.9
			c-0.9-0.6-1.6-1.4-2.1-2.5c-0.4-1.1-0.6-2.5-0.6-4.4V332h4.7v9.2c0,2.8,0.1,4.5,0.3,5.2c0.2,0.6,0.5,1.1,0.9,1.5
			c0.5,0.4,1,0.6,1.7,0.6c0.8,0,1.5-0.2,2.2-0.7c0.6-0.5,1.1-1.1,1.3-1.8c0.2-0.7,0.4-2.5,0.4-5.4V332h4.7V352H369.8L369.8,352z"/>
		<path class="st4" d="M377.3,346.3l4.7-0.8c0.2,1,0.6,1.8,1.2,2.3c0.6,0.5,1.5,0.8,2.6,0.8c1.2,0,2.1-0.3,2.7-0.8
			c0.4-0.3,0.6-0.8,0.6-1.4c0-0.4-0.1-0.7-0.3-1c-0.2-0.3-0.8-0.5-1.6-0.7c-3.8-0.9-6.2-1.8-7.2-2.6c-1.4-1.1-2.1-2.6-2.1-4.5
			c0-1.7,0.6-3.2,1.8-4.4c1.2-1.2,3.1-1.8,5.6-1.8c2.4,0,4.2,0.4,5.4,1.3c1.2,0.9,2,2.2,2.4,3.9l-4.4,0.9c-0.2-0.8-0.5-1.4-1.1-1.8
			c-0.5-0.4-1.3-0.6-2.3-0.6c-1.2,0-2.1,0.2-2.7,0.6c-0.4,0.3-0.5,0.6-0.5,1.1c0,0.4,0.2,0.7,0.5,1c0.4,0.4,1.9,0.8,4.4,1.5
			c2.5,0.6,4.2,1.4,5.2,2.3c1,0.9,1.5,2.3,1.5,3.9c0,1.8-0.7,3.4-2,4.7c-1.4,1.3-3.4,2-6,2c-2.4,0-4.3-0.5-5.7-1.7
			C378.7,349.7,377.8,348.2,377.3,346.3L377.3,346.3z"/>
		<path class="st4" d="M396.9,341.7c0-1.8,0.4-3.4,1.1-5.1c0.8-1.6,1.9-2.9,3.3-3.7c1.4-0.9,3-1.3,4.7-1.3c2.7,0,4.9,1,6.6,2.9
			c1.7,2,2.6,4.4,2.6,7.4c0,3-0.9,5.5-2.6,7.5c-1.7,2-3.9,3-6.5,3c-1.6,0-3.2-0.4-4.6-1.2c-1.5-0.8-2.6-2-3.4-3.6
			C397.3,345.9,396.9,344,396.9,341.7L396.9,341.7z M401.7,342c0,2,0.4,3.5,1.3,4.5c0.8,1.1,1.9,1.6,3.1,1.6c1.2,0,2.2-0.5,3.1-1.6
			c0.8-1.1,1.2-2.6,1.2-4.6c0-1.9-0.4-3.5-1.2-4.5c-0.8-1.1-1.9-1.6-3.1-1.6c-1.2,0-2.3,0.5-3.1,1.6
			C402.1,338.5,401.7,340,401.7,342L401.7,342z"/>
		<path class="st5" d="M306.7,674.6h2.6v-1.5c0-1.7,0.2-2.9,0.5-3.8c0.3-0.8,0.9-1.5,1.7-2c0.9-0.5,1.9-0.8,3.2-0.8
			c1.3,0,2.6,0.2,3.9,0.7l-0.6,3.7c-0.7-0.2-1.5-0.3-2.2-0.3c-0.7,0-1.2,0.2-1.5,0.5c-0.3,0.4-0.4,1-0.4,2.1v1.4h3.5v4.1H314v15.8
			h-4.7v-15.8h-2.6V674.6L306.7,674.6z"/>
		<path class="st5" d="M320.1,671.9V667h4.7v4.9H320.1L320.1,671.9z M320.1,694.6v-19.9h4.7v19.9H320.1L320.1,694.6z"/>
		<path class="st5" d="M345.7,694.6h-4.7v-10.2c0-2.2-0.1-3.5-0.3-4.2c-0.2-0.6-0.5-1.1-1-1.5c-0.4-0.3-1-0.5-1.6-0.5
			c-0.8,0-1.5,0.2-2.2,0.7c-0.6,0.5-1.1,1.2-1.3,2c-0.2,0.8-0.4,2.4-0.4,4.6v9h-4.7v-19.9h4.3v2.9c1.5-2.3,3.5-3.4,5.8-3.4
			c1,0,2,0.2,2.8,0.6c0.9,0.4,1.5,1,1.9,1.6c0.4,0.7,0.7,1.4,0.9,2.2c0.2,0.8,0.3,2,0.3,3.5V694.6L345.7,694.6z"/>
		<path class="st5" d="M349.4,684.3c0-1.8,0.4-3.4,1.1-5.1c0.8-1.6,1.9-2.9,3.3-3.8c1.4-0.9,3-1.3,4.7-1.3c2.7,0,4.9,1,6.6,2.9
			c1.7,2,2.6,4.4,2.6,7.4c0,3-0.9,5.5-2.6,7.5c-1.7,2-3.9,3-6.5,3c-1.6,0-3.2-0.4-4.6-1.2c-1.5-0.8-2.6-2-3.4-3.6
			C349.8,688.5,349.4,686.6,349.4,684.3L349.4,684.3z M354.2,684.6c0,2,0.4,3.5,1.3,4.5c0.8,1,1.9,1.6,3.1,1.6
			c1.2,0,2.2-0.5,3.1-1.6c0.8-1.1,1.2-2.6,1.2-4.6c0-1.9-0.4-3.5-1.2-4.5c-0.8-1.1-1.9-1.6-3.1-1.6c-1.2,0-2.3,0.5-3.1,1.6
			C354.6,681.1,354.2,682.6,354.2,684.6L354.2,684.6z"/>
		<path class="st5" d="M384.4,680.7l-4.3-0.9c0.5-1.9,1.3-3.4,2.5-4.3c1.2-0.9,2.9-1.4,5.2-1.4c2.1,0,3.6,0.3,4.7,0.8
			c1,0.6,1.7,1.3,2.2,2.1c0.4,0.9,0.6,2.4,0.6,4.7l-0.1,6.2c0,1.8,0.1,3,0.2,3.9c0.1,0.8,0.4,1.7,0.8,2.7h-4.6
			c-0.1-0.4-0.3-0.9-0.4-1.6c-0.1-0.3-0.1-0.5-0.2-0.6c-0.8,0.9-1.7,1.5-2.6,2c-0.9,0.4-1.9,0.7-2.9,0.7c-1.8,0-3.3-0.6-4.3-1.7
			c-1.1-1.1-1.6-2.5-1.6-4.2c0-1.1,0.2-2.1,0.7-3c0.5-0.9,1.2-1.6,2-2c0.9-0.5,2.1-0.9,3.7-1.2c2.2-0.5,3.7-0.9,4.5-1.3V681
			c0-1-0.2-1.7-0.7-2.2c-0.4-0.4-1.3-0.6-2.5-0.6c-0.8,0-1.5,0.2-2,0.6C385,679.1,384.7,679.8,384.4,680.7L384.4,680.7z M390.6,685
			c-0.6,0.2-1.5,0.5-2.9,0.8c-1.3,0.3-2.1,0.6-2.6,0.9c-0.6,0.5-0.9,1.1-0.9,1.9c0,0.7,0.2,1.4,0.7,1.9c0.5,0.5,1.1,0.8,1.9,0.8
			c0.8,0,1.7-0.3,2.4-0.9c0.6-0.5,0.9-1.1,1.1-1.7c0.1-0.5,0.2-1.3,0.2-2.6V685L390.6,685z"/>
		<path class="st4" d="M549.3,331.8h2.8v-1.5c0-1.7,0.2-2.9,0.5-3.8c0.3-0.8,0.9-1.5,1.8-2c0.9-0.5,2-0.8,3.4-0.8
			c1.4,0,2.8,0.2,4.2,0.7l-0.7,3.7c-0.8-0.2-1.6-0.3-2.3-0.3c-0.7,0-1.2,0.2-1.5,0.5c-0.3,0.4-0.5,1-0.5,2.1v1.4h3.7v4.1h-3.7v15.8
			h-5v-15.8h-2.8V331.8L549.3,331.8z"/>
		<path class="st4" d="M574.4,345.4l4.9,0.9c-0.6,1.9-1.6,3.4-3,4.4c-1.4,1-3.1,1.5-5.1,1.5c-3.3,0-5.7-1.1-7.2-3.4
			c-1.2-1.8-1.9-4.1-1.9-6.9c0-3.3,0.8-5.9,2.4-7.8c1.6-1.9,3.7-2.8,6.2-2.8c2.8,0,5,1,6.6,2.9c1.6,2,2.4,5,2.3,9h-12.4
			c0,1.6,0.4,2.8,1.2,3.6c0.8,0.9,1.7,1.3,2.9,1.3c0.8,0,1.4-0.2,2-0.7C573.7,347.1,574.1,346.4,574.4,345.4L574.4,345.4z
			 M574.7,340.1c0-1.5-0.4-2.7-1.1-3.5c-0.7-0.8-1.6-1.2-2.6-1.2c-1.1,0-2,0.4-2.7,1.3c-0.7,0.8-1.1,2-1,3.4H574.7L574.7,340.1z"/>
		<path class="st4" d="M588.4,351.7h-5v-19.9h4.6v2.8c0.8-1.3,1.5-2.2,2.1-2.6c0.6-0.4,1.3-0.6,2.1-0.6c1.1,0,2.2,0.3,3.3,1
			l-1.5,4.6c-0.8-0.6-1.6-0.9-2.3-0.9c-0.7,0-1.3,0.2-1.8,0.6c-0.5,0.4-0.9,1.1-1.1,2.2c-0.3,1.1-0.4,3.3-0.4,6.7V351.7L588.4,351.7
			z"/>
		<path class="st4" d="M597.3,331.8h4.6v2.7c1.6-2.1,3.6-3.2,5.8-3.2c1.2,0,2.2,0.3,3.1,0.8c0.9,0.5,1.6,1.3,2.2,2.4
			c0.8-1.1,1.7-1.9,2.7-2.4c1-0.5,2-0.8,3.1-0.8c1.4,0,2.5,0.3,3.5,0.9c1,0.6,1.7,1.5,2.1,2.6c0.3,0.9,0.5,2.2,0.5,4.1v12.8h-5
			v-11.4c0-2-0.2-3.3-0.5-3.8c-0.5-0.8-1.2-1.1-2.1-1.1c-0.7,0-1.4,0.2-2,0.7c-0.6,0.4-1,1.1-1.3,2c-0.3,0.9-0.4,2.2-0.4,4.1v9.6h-5
			v-10.9c0-1.9-0.1-3.2-0.3-3.8c-0.2-0.6-0.5-1-0.8-1.3c-0.4-0.3-0.9-0.4-1.5-0.4c-0.8,0-1.5,0.2-2.1,0.7c-0.6,0.4-1.1,1.1-1.3,1.9
			c-0.3,0.8-0.4,2.2-0.4,4.1v9.7h-5V331.8L597.3,331.8z"/>
		<path class="st4" d="M640.7,345.4l4.9,0.9c-0.6,1.9-1.6,3.4-3,4.4c-1.4,1-3.1,1.5-5.1,1.5c-3.3,0-5.7-1.1-7.2-3.4
			c-1.2-1.8-1.9-4.1-1.9-6.9c0-3.3,0.8-5.9,2.4-7.8c1.6-1.9,3.7-2.8,6.2-2.8c2.8,0,5,1,6.6,2.9c1.6,2,2.4,5,2.3,9h-12.4
			c0,1.6,0.4,2.8,1.2,3.6c0.8,0.9,1.7,1.3,2.9,1.3c0.8,0,1.4-0.2,2-0.7C640,347.1,640.4,346.4,640.7,345.4L640.7,345.4z M641,340.1
			c0-1.5-0.4-2.7-1.1-3.5c-0.7-0.8-1.6-1.2-2.6-1.2c-1.1,0-2,0.4-2.7,1.3c-0.7,0.8-1.1,2-1,3.4H641L641,340.1z"/>
		<polygon class="st4" points="649.9,334 649,328.9 649,324.2 654.4,324.2 654.4,328.9 653.6,334 649.9,334 		"/>
		<path class="st5" d="M523.4,671.7v-4.9h5v4.9H523.4L523.4,671.7z M528.3,674.4v19.3c0,2.5-0.2,4.3-0.5,5.4c-0.3,1-0.9,1.9-1.8,2.5
			c-0.9,0.6-2,0.9-3.4,0.9c-0.5,0-1-0.1-1.6-0.1c-0.6-0.1-1.2-0.2-1.8-0.4l0.9-4.5c0.2,0,0.5,0.1,0.7,0.1c0.2,0,0.4,0,0.6,0
			c0.5,0,0.9-0.1,1.2-0.3c0.3-0.2,0.5-0.5,0.6-0.8c0.1-0.3,0.2-1.3,0.2-2.9v-19H528.3L528.3,674.4z"/>
		<path class="st5" d="M545.9,694.3v-3c-0.7,1.1-1.6,1.9-2.7,2.5c-1.1,0.6-2.3,0.9-3.5,0.9c-1.3,0-2.4-0.3-3.4-0.9
			c-1-0.6-1.7-1.4-2.2-2.5c-0.4-1.1-0.7-2.5-0.7-4.4v-12.6h5v9.2c0,2.8,0.1,4.5,0.3,5.2c0.2,0.6,0.5,1.1,1,1.5
			c0.5,0.4,1.1,0.6,1.8,0.6c0.8,0,1.6-0.2,2.3-0.7c0.7-0.5,1.1-1.1,1.4-1.8c0.2-0.7,0.4-2.5,0.4-5.4v-8.4h5v19.9H545.9L545.9,694.3z
			"/>
		<path class="st5" d="M553.9,688.7l5-0.8c0.2,1,0.6,1.8,1.3,2.3c0.6,0.5,1.5,0.8,2.7,0.8c1.3,0,2.2-0.2,2.9-0.8
			c0.4-0.3,0.7-0.8,0.7-1.4c0-0.4-0.1-0.7-0.4-1c-0.2-0.2-0.8-0.5-1.7-0.7c-4-0.9-6.5-1.8-7.6-2.6c-1.5-1.1-2.2-2.6-2.2-4.5
			c0-1.7,0.6-3.2,1.9-4.4c1.3-1.2,3.3-1.8,6-1.8c2.6,0,4.5,0.4,5.7,1.3c1.2,0.9,2.1,2.2,2.6,4l-4.7,0.9c-0.2-0.8-0.6-1.4-1.1-1.8
			c-0.6-0.4-1.4-0.6-2.4-0.6c-1.3,0-2.2,0.2-2.8,0.6c-0.4,0.3-0.6,0.6-0.6,1.1c0,0.4,0.2,0.7,0.5,1c0.4,0.4,2,0.8,4.6,1.5
			c2.6,0.6,4.5,1.4,5.5,2.3c1,0.9,1.6,2.3,1.6,3.9c0,1.8-0.7,3.4-2.2,4.7c-1.4,1.3-3.6,2-6.4,2c-2.6,0-4.6-0.6-6.1-1.7
			C555.3,692,554.3,690.5,553.9,688.7L553.9,688.7z"/>
		<path class="st5" d="M588,701.9v-10c-0.6,0.9-1.5,1.6-2.4,2.1c-1,0.5-2,0.8-3.1,0.8c-2.1,0-3.9-0.9-5.3-2.6
			c-1.6-2-2.4-4.7-2.4-8.1c0-3.2,0.8-5.7,2.3-7.5c1.5-1.8,3.4-2.7,5.7-2.7c1.2,0,2.3,0.3,3.2,0.8c0.9,0.6,1.7,1.4,2.4,2.6v-3h4.6
			v27.5H588L588,701.9z M588.1,684.1c0-2-0.4-3.6-1.2-4.6c-0.8-1-1.8-1.5-2.9-1.5c-1.2,0-2.2,0.5-3,1.5c-0.8,1-1.2,2.6-1.2,4.8
			c0,2.2,0.4,3.8,1.2,4.7c0.8,1,1.7,1.5,2.9,1.5c1.1,0,2.1-0.5,3-1.6C587.7,687.9,588.1,686.3,588.1,684.1L588.1,684.1z"/>
		<path class="st5" d="M610.1,694.3v-3c-0.7,1.1-1.6,1.9-2.7,2.5c-1.1,0.6-2.3,0.9-3.5,0.9c-1.3,0-2.4-0.3-3.4-0.9
			c-1-0.6-1.7-1.4-2.2-2.5c-0.4-1.1-0.7-2.5-0.7-4.4v-12.6h5v9.2c0,2.8,0.1,4.5,0.3,5.2c0.2,0.6,0.5,1.1,1,1.5
			c0.5,0.4,1.1,0.6,1.8,0.6c0.8,0,1.6-0.2,2.3-0.7c0.7-0.5,1.1-1.1,1.4-1.8c0.2-0.7,0.4-2.5,0.4-5.4v-8.4h5v19.9H610.1L610.1,694.3z
			"/>
		<polygon class="st5" points="619.8,676.6 618.9,671.5 618.9,666.8 624.3,666.8 624.3,671.5 623.5,676.6 619.8,676.6 		"/>
		<path class="st5" d="M632.2,680.5l-4.5-0.9c0.5-1.9,1.4-3.4,2.6-4.3c1.2-0.9,3.1-1.4,5.5-1.4c2.2,0,3.9,0.3,4.9,0.8
			c1.1,0.6,1.8,1.3,2.3,2.1c0.4,0.9,0.7,2.4,0.7,4.7l-0.1,6.2c0,1.8,0.1,3,0.2,3.9c0.2,0.8,0.5,1.7,0.9,2.7h-4.9
			c-0.1-0.4-0.3-0.9-0.5-1.6c-0.1-0.3-0.1-0.5-0.2-0.6c-0.8,0.9-1.8,1.5-2.7,2c-1,0.4-2,0.7-3.1,0.7c-1.9,0-3.5-0.6-4.6-1.7
			c-1.1-1.1-1.7-2.5-1.7-4.2c0-1.1,0.3-2.1,0.8-3c0.5-0.9,1.2-1.6,2.1-2c0.9-0.5,2.2-0.9,3.9-1.2c2.3-0.5,3.9-0.9,4.8-1.3v-0.5
			c0-1-0.2-1.7-0.7-2.2c-0.5-0.4-1.4-0.6-2.7-0.6c-0.9,0-1.6,0.2-2.1,0.6C632.9,678.9,632.5,679.6,632.2,680.5L632.2,680.5z
			 M638.8,684.8c-0.6,0.2-1.6,0.5-3,0.8c-1.4,0.3-2.3,0.6-2.7,0.9c-0.6,0.5-1,1.1-1,1.9c0,0.7,0.3,1.4,0.8,1.9
			c0.5,0.5,1.2,0.8,2,0.8c0.9,0,1.7-0.3,2.6-0.9c0.6-0.5,1-1.1,1.2-1.7c0.1-0.5,0.2-1.3,0.2-2.6V684.8L638.8,684.8z"/>
		<polygon class="st5" points="648.6,676.6 647.6,671.5 647.6,666.8 653,666.8 653,671.5 652.2,676.6 648.6,676.6 		"/>
		<path class="st4" d="M324,391l-4.5,0.9c-0.2-1-0.5-1.8-1-2.3c-0.5-0.5-1.2-0.8-2.1-0.8c-1.1,0-2.1,0.5-2.7,1.4
			c-0.7,0.9-1,2.4-1,4.6c0,2.4,0.3,4,1,5c0.7,1,1.6,1.5,2.8,1.5c0.9,0,1.6-0.3,2.1-0.9c0.6-0.6,0.9-1.6,1.2-2.9l4.5,0.9
			c-0.5,2.4-1.4,4.2-2.7,5.4c-1.3,1.2-3.1,1.8-5.3,1.8c-2.5,0-4.6-0.9-6.1-2.8c-1.5-1.8-2.3-4.4-2.3-7.6c0-3.3,0.8-5.9,2.3-7.7
			c1.5-1.8,3.6-2.8,6.1-2.8c2.1,0,3.8,0.5,5,1.6C322.6,387.2,323.5,388.8,324,391L324,391z"/>
		<polygon class="st4" points="327.5,405 327.5,377.5 332.1,377.5 332.1,405 327.5,405 		"/>
		<path class="st4" d="M335.7,394.7c0-1.8,0.4-3.4,1.1-5.1c0.8-1.6,1.8-2.9,3.2-3.8c1.4-0.9,2.9-1.3,4.6-1.3c2.6,0,4.8,1,6.4,2.9
			c1.7,2,2.5,4.4,2.5,7.4c0,3-0.8,5.5-2.5,7.5c-1.7,2-3.8,3-6.4,3c-1.6,0-3.1-0.4-4.5-1.2c-1.4-0.8-2.5-2-3.3-3.6
			C336.1,399,335.7,397,335.7,394.7L335.7,394.7z M340.4,395c0,2,0.4,3.5,1.2,4.5c0.8,1.1,1.8,1.6,3,1.6c1.2,0,2.2-0.5,3-1.6
			c0.8-1.1,1.2-2.6,1.2-4.6c0-1.9-0.4-3.5-1.2-4.5c-0.8-1.1-1.8-1.6-3-1.6c-1.2,0-2.2,0.5-3,1.6C340.8,391.5,340.4,393,340.4,395
			L340.4,395z"/>
		<path class="st4" d="M355.6,399.3l4.6-0.8c0.2,1,0.6,1.8,1.2,2.3c0.6,0.5,1.4,0.8,2.5,0.8c1.2,0,2.1-0.3,2.7-0.8
			c0.4-0.3,0.6-0.8,0.6-1.4c0-0.4-0.1-0.7-0.3-1c-0.2-0.3-0.7-0.5-1.5-0.7c-3.7-0.9-6-1.8-7-2.6c-1.4-1.1-2.1-2.6-2.1-4.5
			c0-1.7,0.6-3.2,1.8-4.4c1.2-1.2,3-1.8,5.5-1.8c2.4,0,4.1,0.4,5.3,1.3c1.2,0.9,1.9,2.2,2.4,3.9l-4.3,0.9c-0.2-0.8-0.5-1.4-1.1-1.8
			c-0.5-0.4-1.3-0.6-2.2-0.6c-1.2,0-2.1,0.2-2.6,0.6c-0.3,0.3-0.5,0.6-0.5,1.1c0,0.4,0.2,0.7,0.5,1c0.4,0.4,1.8,0.8,4.3,1.5
			c2.4,0.6,4.1,1.4,5.1,2.3c1,0.9,1.4,2.2,1.4,3.9c0,1.8-0.7,3.4-2,4.7c-1.3,1.3-3.3,2-5.9,2c-2.4,0-4.2-0.6-5.6-1.7
			C356.9,402.7,356,401.2,355.6,399.3L355.6,399.3z"/>
		<path class="st4" d="M385.8,398.7l4.6,0.9c-0.6,1.9-1.5,3.4-2.8,4.4c-1.3,1-2.9,1.5-4.8,1.5c-3,0-5.2-1.1-6.7-3.4
			c-1.1-1.8-1.7-4.1-1.7-6.9c0-3.3,0.8-5.9,2.3-7.8c1.5-1.9,3.4-2.8,5.7-2.8c2.6,0,4.6,1,6.1,2.9c1.5,2,2.2,5,2.1,9h-11.5
			c0,1.6,0.4,2.8,1.1,3.6c0.7,0.9,1.6,1.3,2.6,1.3c0.7,0,1.3-0.2,1.8-0.7C385.2,400.4,385.6,399.7,385.8,398.7L385.8,398.7z
			 M386.1,393.3c0-1.5-0.4-2.7-1-3.5c-0.7-0.8-1.4-1.2-2.4-1.2c-1,0-1.8,0.4-2.5,1.3c-0.7,0.8-1,2-1,3.4H386.1L386.1,393.3z"/>
		<path class="st4" d="M410.3,405H406v-2.9c-0.7,1.1-1.5,2-2.5,2.5c-1,0.6-1.9,0.8-2.9,0.8c-2,0-3.7-0.9-5.1-2.8
			c-1.4-1.8-2.1-4.4-2.1-7.7c0-3.4,0.7-6,2.1-7.7c1.4-1.8,3.1-2.6,5.2-2.6c1.9,0,3.6,0.9,5,2.8v-9.9h4.6V405L410.3,405z M398,394.6
			c0,2.1,0.3,3.7,0.8,4.6c0.7,1.4,1.8,2.1,3.1,2.1c1.1,0,2-0.5,2.7-1.6c0.7-1,1.1-2.6,1.1-4.6c0-2.3-0.4-3.9-1.1-4.9
			c-0.7-1-1.6-1.5-2.8-1.5c-1.1,0-2,0.5-2.7,1.5C398.4,391.1,398,392.6,398,394.6L398,394.6z"/>
		<path class="st5" d="M312.3,720.1l-4.2-0.9c0.5-1.9,1.3-3.4,2.4-4.3c1.1-0.9,2.8-1.4,5.1-1.4c2,0,3.6,0.3,4.6,0.8
			c1,0.6,1.7,1.3,2.1,2.1c0.4,0.9,0.6,2.4,0.6,4.7l-0.1,6.2c0,1.8,0.1,3,0.2,3.9c0.1,0.8,0.4,1.7,0.8,2.7h-4.5
			c-0.1-0.4-0.3-0.9-0.4-1.6c-0.1-0.3-0.1-0.5-0.2-0.6c-0.8,0.9-1.6,1.5-2.5,2c-0.9,0.4-1.8,0.7-2.9,0.7c-1.8,0-3.2-0.6-4.2-1.7
			c-1-1.1-1.5-2.5-1.5-4.2c0-1.1,0.2-2.1,0.7-3c0.5-0.9,1.1-1.6,2-2c0.8-0.5,2.1-0.9,3.6-1.2c2.1-0.5,3.6-0.9,4.4-1.3v-0.5
			c0-1-0.2-1.7-0.7-2.2c-0.4-0.4-1.3-0.6-2.5-0.6c-0.8,0-1.5,0.2-1.9,0.6C313,718.5,312.6,719.1,312.3,720.1L312.3,720.1z
			 M318.5,724.3c-0.6,0.2-1.5,0.5-2.8,0.8c-1.3,0.3-2.1,0.6-2.5,0.9c-0.6,0.5-0.9,1.1-0.9,1.9c0,0.7,0.2,1.4,0.7,1.9
			c0.5,0.5,1.1,0.8,1.8,0.8c0.8,0,1.6-0.3,2.4-0.9c0.6-0.5,0.9-1.1,1.1-1.8c0.1-0.4,0.2-1.3,0.2-2.6V724.3L318.5,724.3z"/>
		<path class="st5" d="M325.9,728.2l4.6-0.8c0.2,1,0.6,1.8,1.2,2.3c0.6,0.5,1.4,0.8,2.5,0.8c1.2,0,2.1-0.3,2.7-0.8
			c0.4-0.3,0.6-0.8,0.6-1.4c0-0.4-0.1-0.7-0.3-1c-0.2-0.3-0.7-0.5-1.5-0.7c-3.7-0.9-6-1.8-7-2.6c-1.4-1.1-2.1-2.6-2.1-4.5
			c0-1.7,0.6-3.2,1.8-4.4c1.2-1.2,3-1.8,5.5-1.8c2.4,0,4.1,0.5,5.3,1.3c1.2,0.9,1.9,2.2,2.4,3.9l-4.3,0.9c-0.2-0.8-0.5-1.4-1.1-1.8
			c-0.5-0.4-1.3-0.6-2.2-0.6c-1.2,0-2.1,0.2-2.6,0.6c-0.3,0.3-0.5,0.6-0.5,1.1c0,0.4,0.2,0.7,0.5,1c0.4,0.4,1.8,0.8,4.3,1.5
			c2.4,0.6,4.1,1.4,5.1,2.3c1,0.9,1.4,2.2,1.4,3.9c0,1.8-0.7,3.4-2,4.7c-1.3,1.3-3.3,2-5.9,2c-2.4,0-4.2-0.6-5.6-1.7
			C327.2,731.6,326.3,730.1,325.9,728.2L325.9,728.2z"/>
		<path class="st5" d="M353.4,714h2.5v-1.5c0-1.7,0.2-2.9,0.5-3.8c0.3-0.8,0.9-1.5,1.7-2c0.8-0.5,1.9-0.8,3.2-0.8
			c1.3,0,2.6,0.2,3.8,0.7l-0.6,3.7c-0.7-0.2-1.4-0.3-2.1-0.3c-0.7,0-1.1,0.2-1.4,0.5c-0.3,0.4-0.4,1-0.4,2.1v1.4h3.4v4.1h-3.4v15.8
			h-4.6v-15.8h-2.5V714L353.4,714z"/>
		<path class="st5" d="M369.9,720.1l-4.2-0.9c0.5-1.9,1.3-3.4,2.4-4.3c1.1-0.9,2.8-1.4,5.1-1.4c2.1,0,3.6,0.3,4.6,0.8
			c1,0.6,1.7,1.3,2.1,2.1c0.4,0.9,0.6,2.4,0.6,4.7l-0.1,6.2c0,1.8,0.1,3,0.2,3.9c0.1,0.8,0.4,1.7,0.8,2.7H377
			c-0.1-0.4-0.3-0.9-0.4-1.6c-0.1-0.3-0.1-0.5-0.2-0.6c-0.8,0.9-1.6,1.5-2.5,2c-0.9,0.4-1.8,0.7-2.9,0.7c-1.8,0-3.2-0.6-4.2-1.7
			c-1-1.1-1.5-2.5-1.5-4.2c0-1.1,0.2-2.1,0.7-3c0.5-0.9,1.1-1.6,2-2c0.8-0.5,2.1-0.9,3.6-1.2c2.1-0.5,3.6-0.9,4.4-1.3v-0.5
			c0-1-0.2-1.7-0.7-2.2c-0.4-0.4-1.3-0.6-2.5-0.6c-0.8,0-1.5,0.2-1.9,0.6C370.6,718.5,370.2,719.1,369.9,720.1L369.9,720.1z
			 M376.1,724.3c-0.6,0.2-1.5,0.5-2.8,0.8c-1.3,0.3-2.1,0.6-2.5,0.9c-0.6,0.5-0.9,1.1-0.9,1.9c0,0.7,0.2,1.4,0.7,1.9
			c0.5,0.5,1.1,0.8,1.8,0.8c0.8,0,1.6-0.3,2.4-0.9c0.6-0.5,0.9-1.1,1.1-1.8c0.1-0.4,0.2-1.3,0.2-2.6V724.3L376.1,724.3z"/>
		<path class="st5" d="M389.5,733.9h-4.6V714h4.3v2.8c0.7-1.3,1.4-2.2,2-2.6c0.6-0.4,1.2-0.6,2-0.6c1,0,2.1,0.3,3,1l-1.4,4.6
			c-0.8-0.6-1.5-0.9-2.2-0.9c-0.6,0-1.2,0.2-1.6,0.6c-0.5,0.4-0.8,1.1-1.1,2.2c-0.3,1.1-0.4,3.3-0.4,6.7V733.9L389.5,733.9z"/>
		<path class="st5" d="M410.8,720.1l-4.2-0.9c0.5-1.9,1.3-3.4,2.4-4.3c1.1-0.9,2.8-1.4,5.1-1.4c2,0,3.6,0.3,4.6,0.8
			c1,0.6,1.7,1.3,2.1,2.1c0.4,0.9,0.6,2.4,0.6,4.7l-0.1,6.2c0,1.8,0.1,3,0.2,3.9c0.1,0.8,0.4,1.7,0.8,2.7h-4.5
			c-0.1-0.4-0.3-0.9-0.4-1.6c-0.1-0.3-0.1-0.5-0.2-0.6c-0.8,0.9-1.6,1.5-2.5,2c-0.9,0.4-1.8,0.7-2.9,0.7c-1.8,0-3.2-0.6-4.2-1.7
			c-1-1.1-1.5-2.5-1.5-4.2c0-1.1,0.2-2.1,0.7-3c0.5-0.9,1.1-1.6,2-2c0.8-0.5,2.1-0.9,3.6-1.2c2.1-0.5,3.6-0.9,4.4-1.3v-0.5
			c0-1-0.2-1.7-0.7-2.2c-0.4-0.4-1.3-0.6-2.5-0.6c-0.8,0-1.5,0.2-1.9,0.6C411.5,718.5,411.1,719.1,410.8,720.1L410.8,720.1z
			 M416.9,724.3c-0.6,0.2-1.5,0.5-2.8,0.8c-1.3,0.3-2.1,0.6-2.5,0.9c-0.6,0.5-0.9,1.1-0.9,1.9c0,0.7,0.2,1.4,0.7,1.9
			c0.5,0.5,1.1,0.8,1.8,0.8c0.8,0,1.6-0.3,2.4-0.9c0.6-0.5,0.9-1.1,1.1-1.8c0.1-0.4,0.2-1.3,0.2-2.6V724.3L416.9,724.3z"/>
		<path class="st5" d="M424.3,728.2l4.6-0.8c0.2,1,0.6,1.8,1.2,2.3c0.6,0.5,1.4,0.8,2.5,0.8c1.2,0,2.1-0.3,2.7-0.8
			c0.4-0.3,0.6-0.8,0.6-1.4c0-0.4-0.1-0.7-0.3-1c-0.2-0.3-0.7-0.5-1.5-0.7c-3.7-0.9-6-1.8-7-2.6c-1.4-1.1-2.1-2.6-2.1-4.5
			c0-1.7,0.6-3.2,1.8-4.4c1.2-1.2,3-1.8,5.5-1.8c2.4,0,4.1,0.5,5.3,1.3c1.2,0.9,1.9,2.2,2.4,3.9l-4.3,0.9c-0.2-0.8-0.5-1.4-1.1-1.8
			c-0.5-0.4-1.3-0.6-2.2-0.6c-1.2,0-2.1,0.2-2.6,0.6c-0.3,0.3-0.5,0.6-0.5,1.1c0,0.4,0.2,0.7,0.5,1c0.4,0.4,1.8,0.8,4.3,1.5
			c2.4,0.6,4.1,1.4,5.1,2.3c1,0.9,1.4,2.2,1.4,3.9c0,1.8-0.7,3.4-2,4.7c-1.3,1.3-3.3,2-5.9,2c-2.4,0-4.2-0.6-5.6-1.7
			C425.7,731.6,424.8,730.1,424.3,728.2L424.3,728.2z"/>
		<path class="st4" d="M445.1,406.1l5.5,0.7c0.1,0.7,0.3,1.2,0.6,1.4c0.5,0.4,1.2,0.6,2.2,0.6c1.3,0,2.2-0.2,2.8-0.6
			c0.4-0.3,0.7-0.7,1-1.3c0.1-0.4,0.2-1.2,0.2-2.4v-2.9c-1.4,2.2-3.3,3.2-5.5,3.2c-2.5,0-4.4-1.1-5.8-3.4c-1.1-1.8-1.7-4-1.7-6.7
			c0-3.3,0.7-5.9,2.2-7.7c1.5-1.8,3.3-2.6,5.5-2.6c2.3,0,4.1,1.1,5.6,3.3v-2.8h4.5v17.9c0,2.4-0.2,4.1-0.5,5.3
			c-0.4,1.2-0.9,2.1-1.5,2.7c-0.6,0.7-1.5,1.2-2.6,1.6c-1.1,0.4-2.4,0.6-4.1,0.6c-3.1,0-5.3-0.6-6.6-1.7c-1.3-1.2-1.9-2.6-1.9-4.4
			C445.1,406.6,445.1,406.3,445.1,406.1L445.1,406.1z M449.5,394.4c0,2.1,0.4,3.7,1.1,4.6c0.8,1,1.7,1.5,2.8,1.5
			c1.2,0,2.2-0.5,3-1.5c0.8-1,1.2-2.5,1.2-4.5c0-2.1-0.4-3.6-1.2-4.6c-0.8-1-1.8-1.5-3-1.5c-1.2,0-2.1,0.5-2.9,1.5
			C449.8,390.9,449.5,392.4,449.5,394.4L449.5,394.4z"/>
		<path class="st4" d="M477.7,398.4l4.8,0.9c-0.6,1.9-1.6,3.4-2.9,4.4c-1.3,1-3,1.5-5,1.5c-3.2,0-5.5-1.1-7.1-3.4
			c-1.2-1.8-1.8-4.1-1.8-6.9c0-3.3,0.8-5.9,2.4-7.8c1.6-1.9,3.6-2.8,6-2.8c2.7,0,4.9,1,6.4,2.9c1.6,2,2.3,5,2.3,9h-12.1
			c0,1.6,0.4,2.8,1.2,3.6c0.7,0.9,1.7,1.3,2.8,1.3c0.8,0,1.4-0.2,1.9-0.7C477.1,400.2,477.5,399.4,477.7,398.4L477.7,398.4z
			 M478,393.1c0-1.5-0.4-2.7-1.1-3.5c-0.7-0.8-1.5-1.2-2.5-1.2c-1.1,0-1.9,0.4-2.6,1.3c-0.7,0.8-1,2-1,3.4H478L478,393.1z"/>
		<path class="st4" d="M485,399.1l4.9-0.8c0.2,1,0.6,1.8,1.3,2.3c0.6,0.5,1.5,0.8,2.7,0.8c1.3,0,2.2-0.3,2.8-0.8
			c0.4-0.3,0.6-0.8,0.6-1.4c0-0.4-0.1-0.7-0.3-1c-0.2-0.3-0.8-0.5-1.6-0.7c-3.9-0.9-6.4-1.8-7.4-2.6c-1.4-1.1-2.2-2.6-2.2-4.5
			c0-1.7,0.6-3.2,1.9-4.4c1.3-1.2,3.2-1.8,5.8-1.8c2.5,0,4.4,0.4,5.6,1.3c1.2,0.9,2.1,2.2,2.5,3.9l-4.6,0.9
			c-0.2-0.8-0.6-1.4-1.1-1.8c-0.5-0.4-1.3-0.6-2.3-0.6c-1.3,0-2.2,0.2-2.7,0.6c-0.4,0.3-0.5,0.6-0.5,1.1c0,0.4,0.2,0.7,0.5,1
			c0.4,0.4,1.9,0.8,4.5,1.5c2.6,0.6,4.4,1.4,5.4,2.3c1,0.9,1.5,2.3,1.5,3.9c0,1.8-0.7,3.4-2.1,4.7c-1.4,1.3-3.5,2-6.2,2
			c-2.5,0-4.5-0.6-5.9-1.7C486.4,402.5,485.5,401,485,399.1L485,399.1z"/>
		<path class="st4" d="M522.3,390.7l-4.8,0.9c-0.2-1-0.5-1.8-1.1-2.3c-0.6-0.5-1.3-0.8-2.2-0.8c-1.2,0-2.2,0.5-2.9,1.4
			c-0.7,0.9-1.1,2.4-1.1,4.6c0,2.4,0.4,4,1.1,5c0.7,1,1.7,1.5,2.9,1.5c0.9,0,1.7-0.3,2.3-0.9c0.6-0.6,1-1.6,1.2-2.9l4.8,0.9
			c-0.5,2.4-1.4,4.2-2.8,5.4c-1.4,1.2-3.3,1.8-5.6,1.8c-2.7,0-4.8-0.9-6.4-2.8c-1.6-1.8-2.4-4.4-2.4-7.6c0-3.3,0.8-5.9,2.4-7.7
			c1.6-1.8,3.8-2.8,6.5-2.8c2.2,0,4,0.5,5.3,1.6C520.8,387,521.7,388.6,522.3,390.7L522.3,390.7z"/>
		<path class="st4" d="M530.8,377.2v10.1c1.6-2,3.4-3,5.6-3c1.1,0,2.1,0.2,3,0.7c0.9,0.4,1.6,1,2,1.7c0.5,0.7,0.8,1.5,0.9,2.3
			c0.2,0.8,0.3,2.2,0.3,4v11.7h-4.8v-10.5c0-2.1-0.1-3.4-0.3-4c-0.2-0.6-0.5-1-1-1.3c-0.5-0.3-1-0.5-1.7-0.5c-0.8,0-1.5,0.2-2.2,0.6
			c-0.6,0.4-1.1,1.1-1.4,1.9c-0.3,0.9-0.4,2.1-0.4,3.8v10h-4.8v-27.5H530.8L530.8,377.2z"/>
		<polygon class="st4" points="547.5,404.8 547.5,377.2 552.4,377.2 552.4,404.8 547.5,404.8 		"/>
		<path class="st4" d="M556.2,394.5c0-1.8,0.4-3.4,1.2-5.1c0.8-1.6,1.9-2.9,3.4-3.8c1.5-0.9,3.1-1.3,4.9-1.3c2.8,0,5,1,6.8,2.9
			c1.8,2,2.7,4.4,2.7,7.4c0,3-0.9,5.5-2.7,7.5c-1.8,2-4,3-6.7,3c-1.7,0-3.3-0.4-4.8-1.2c-1.5-0.8-2.7-2-3.5-3.6
			C556.6,398.8,556.2,396.8,556.2,394.5L556.2,394.5z M561.2,394.8c0,2,0.4,3.5,1.3,4.5c0.9,1.1,1.9,1.6,3.2,1.6
			c1.3,0,2.3-0.5,3.2-1.6c0.9-1.1,1.3-2.6,1.3-4.6c0-1.9-0.4-3.5-1.3-4.5c-0.9-1.1-1.9-1.6-3.2-1.6c-1.3,0-2.3,0.5-3.2,1.6
			C561.6,391.3,561.2,392.8,561.2,394.8L561.2,394.8z"/>
		<path class="st4" d="M577.2,399.1l4.9-0.8c0.2,1,0.6,1.8,1.3,2.3c0.6,0.5,1.5,0.8,2.7,0.8c1.3,0,2.2-0.3,2.8-0.8
			c0.4-0.3,0.6-0.8,0.6-1.4c0-0.4-0.1-0.7-0.3-1c-0.2-0.3-0.8-0.5-1.6-0.7c-3.9-0.9-6.4-1.8-7.4-2.6c-1.4-1.1-2.2-2.6-2.2-4.5
			c0-1.7,0.6-3.2,1.9-4.4c1.3-1.2,3.2-1.8,5.8-1.8c2.5,0,4.4,0.4,5.6,1.3c1.2,0.9,2.1,2.2,2.5,3.9l-4.6,0.9
			c-0.2-0.8-0.6-1.4-1.1-1.8c-0.5-0.4-1.3-0.6-2.3-0.6c-1.3,0-2.2,0.2-2.7,0.6c-0.4,0.3-0.5,0.6-0.5,1.1c0,0.4,0.2,0.7,0.5,1
			c0.4,0.4,1.9,0.8,4.5,1.5c2.6,0.6,4.4,1.4,5.4,2.3c1,0.9,1.5,2.3,1.5,3.9c0,1.8-0.7,3.4-2.1,4.7c-1.4,1.3-3.5,2-6.2,2
			c-2.5,0-4.5-0.6-5.9-1.7C578.6,402.5,577.6,401,577.2,399.1L577.2,399.1z"/>
		<path class="st4" d="M596.8,399.1l4.9-0.8c0.2,1,0.6,1.8,1.3,2.3c0.6,0.5,1.5,0.8,2.7,0.8c1.3,0,2.2-0.3,2.8-0.8
			c0.4-0.3,0.6-0.8,0.6-1.4c0-0.4-0.1-0.7-0.3-1c-0.2-0.3-0.8-0.5-1.6-0.7c-3.9-0.9-6.4-1.8-7.4-2.6c-1.4-1.1-2.2-2.6-2.2-4.5
			c0-1.7,0.6-3.2,1.9-4.4c1.3-1.2,3.2-1.8,5.8-1.8c2.5,0,4.4,0.4,5.6,1.3c1.2,0.9,2.1,2.2,2.5,3.9l-4.6,0.9
			c-0.2-0.8-0.6-1.4-1.1-1.8c-0.5-0.4-1.3-0.6-2.3-0.6c-1.3,0-2.2,0.2-2.7,0.6c-0.4,0.3-0.5,0.6-0.5,1.1c0,0.4,0.2,0.7,0.5,1
			c0.4,0.4,1.9,0.8,4.5,1.5c2.6,0.6,4.4,1.4,5.4,2.3c1,0.9,1.5,2.3,1.5,3.9c0,1.8-0.7,3.4-2.1,4.7c-1.4,1.3-3.5,2-6.2,2
			c-2.5,0-4.5-0.6-5.9-1.7C598.2,402.5,597.2,401,596.8,399.1L596.8,399.1z"/>
		<path class="st4" d="M628.7,398.4l4.8,0.9c-0.6,1.9-1.6,3.4-2.9,4.4c-1.3,1-3,1.5-5,1.5c-3.2,0-5.5-1.1-7.1-3.4
			c-1.2-1.8-1.8-4.1-1.8-6.9c0-3.3,0.8-5.9,2.4-7.8c1.6-1.9,3.6-2.8,6-2.8c2.7,0,4.9,1,6.4,2.9c1.6,2,2.3,5,2.3,9h-12.1
			c0,1.6,0.4,2.8,1.2,3.6c0.7,0.9,1.7,1.3,2.8,1.3c0.8,0,1.4-0.2,1.9-0.7C628,400.2,628.4,399.4,628.7,398.4L628.7,398.4z
			 M629,393.1c0-1.5-0.4-2.7-1.1-3.5c-0.7-0.8-1.5-1.2-2.5-1.2c-1.1,0-1.9,0.4-2.6,1.3c-0.7,0.8-1,2-1,3.4H629L629,393.1z"/>
		<path class="st4" d="M654.3,404.8h-4.8v-10.2c0-2.2-0.1-3.5-0.3-4.2c-0.2-0.6-0.5-1.1-1-1.5c-0.5-0.3-1-0.5-1.7-0.5
			c-0.8,0-1.6,0.3-2.3,0.8c-0.7,0.5-1.1,1.2-1.4,2c-0.2,0.8-0.4,2.4-0.4,4.6v9h-4.8v-19.9h4.5v2.9c1.6-2.3,3.6-3.4,6-3.4
			c1.1,0,2,0.2,2.9,0.6c0.9,0.4,1.6,1,2,1.6c0.5,0.7,0.8,1.4,0.9,2.2c0.2,0.8,0.3,2,0.3,3.5V404.8L654.3,404.8z"/>
		<path class="st5" d="M514.1,733.7v-27.5h4.8v9.9c1.5-1.9,3.3-2.8,5.3-2.8c2.2,0,4.1,0.9,5.5,2.6c1.5,1.8,2.2,4.3,2.2,7.6
			c0,3.4-0.7,6-2.2,7.9c-1.5,1.8-3.3,2.8-5.4,2.8c-1,0-2.1-0.3-3.1-0.9c-1-0.6-1.9-1.4-2.6-2.5v2.9H514.1L514.1,733.7z M518.9,723.3
			c0,2.1,0.3,3.6,0.9,4.6c0.8,1.4,2,2.1,3.3,2.1c1.1,0,2-0.5,2.7-1.5c0.8-1,1.1-2.6,1.1-4.7c0-2.3-0.4-3.9-1.1-4.9
			c-0.8-1-1.7-1.5-2.9-1.5c-1.2,0-2.1,0.5-2.9,1.5C519.3,719.8,518.9,721.3,518.9,723.3L518.9,723.3z"/>
		<path class="st5" d="M535.8,711v-4.9h4.8v4.9H535.8L535.8,711z M535.8,733.7v-19.9h4.8v19.9H535.8L535.8,733.7z"/>
		<path class="st5" d="M543.9,728l4.9-0.8c0.2,1,0.6,1.8,1.3,2.3c0.6,0.5,1.5,0.8,2.7,0.8c1.3,0,2.2-0.3,2.8-0.8
			c0.4-0.3,0.6-0.8,0.6-1.4c0-0.4-0.1-0.7-0.3-1c-0.2-0.3-0.8-0.5-1.6-0.7c-3.9-0.9-6.4-1.8-7.4-2.6c-1.4-1.1-2.2-2.6-2.2-4.5
			c0-1.7,0.6-3.2,1.9-4.4c1.3-1.2,3.2-1.8,5.8-1.8c2.5,0,4.4,0.4,5.6,1.3c1.2,0.9,2.1,2.2,2.5,3.9l-4.6,0.9
			c-0.2-0.8-0.6-1.4-1.1-1.8c-0.5-0.4-1.3-0.6-2.3-0.6c-1.3,0-2.2,0.2-2.7,0.6c-0.4,0.3-0.5,0.6-0.5,1.1c0,0.4,0.2,0.7,0.5,1
			c0.4,0.4,1.9,0.8,4.5,1.5c2.6,0.6,4.4,1.4,5.4,2.3c1,0.9,1.5,2.2,1.5,3.9c0,1.8-0.7,3.4-2.1,4.7c-1.4,1.3-3.5,2-6.2,2
			c-2.5,0-4.5-0.6-5.9-1.7C545.3,731.4,544.4,729.9,543.9,728L543.9,728z"/>
		<path class="st5" d="M591.7,733.7h-4.8v-10.2c0-2.2-0.1-3.5-0.3-4.2c-0.2-0.6-0.5-1.1-1-1.5c-0.5-0.3-1-0.5-1.7-0.5
			c-0.8,0-1.6,0.2-2.3,0.7c-0.7,0.5-1.1,1.2-1.4,2c-0.2,0.8-0.4,2.4-0.4,4.6v9H575v-19.9h4.5v2.9c1.6-2.3,3.6-3.4,6-3.4
			c1.1,0,2,0.2,2.9,0.6c0.9,0.4,1.6,1,2,1.6c0.5,0.7,0.8,1.4,0.9,2.2c0.2,0.8,0.3,2,0.3,3.5V733.7L591.7,733.7z"/>
		<path class="st5" d="M600.2,719.8l-4.4-0.9c0.5-1.9,1.3-3.4,2.5-4.3c1.2-0.9,3-1.4,5.4-1.4c2.2,0,3.8,0.3,4.8,0.8
			c1,0.6,1.8,1.3,2.2,2.1c0.4,0.9,0.6,2.4,0.6,4.7l-0.1,6.2c0,1.8,0.1,3,0.2,3.9c0.2,0.8,0.4,1.7,0.9,2.7h-4.8
			c-0.1-0.4-0.3-0.9-0.5-1.6c-0.1-0.3-0.1-0.5-0.2-0.6c-0.8,0.9-1.7,1.5-2.7,2c-0.9,0.4-1.9,0.7-3,0.7c-1.9,0-3.4-0.6-4.4-1.7
			c-1.1-1.1-1.6-2.5-1.6-4.2c0-1.1,0.2-2.1,0.7-3c0.5-0.9,1.2-1.6,2.1-2c0.9-0.5,2.2-0.9,3.9-1.2c2.3-0.5,3.8-0.9,4.7-1.3v-0.5
			c0-1-0.2-1.7-0.7-2.2c-0.5-0.4-1.3-0.6-2.6-0.6c-0.9,0-1.5,0.2-2,0.6C600.9,718.3,600.5,718.9,600.2,719.8L600.2,719.8z
			 M606.7,724.1c-0.6,0.2-1.6,0.5-2.9,0.8c-1.3,0.3-2.2,0.6-2.6,0.9c-0.6,0.5-0.9,1.1-0.9,1.9c0,0.7,0.3,1.4,0.8,1.9
			c0.5,0.5,1.1,0.8,1.9,0.8c0.9,0,1.7-0.3,2.5-0.9c0.6-0.5,1-1.1,1.2-1.7c0.1-0.5,0.2-1.3,0.2-2.6V724.1L606.7,724.1z"/>
		<path class="st5" d="M632.2,719.6l-4.8,0.9c-0.2-1-0.5-1.8-1.1-2.3c-0.6-0.5-1.3-0.8-2.2-0.8c-1.2,0-2.2,0.5-2.9,1.4
			c-0.7,0.9-1.1,2.4-1.1,4.6c0,2.4,0.4,4,1.1,5c0.7,1,1.7,1.5,2.9,1.5c0.9,0,1.7-0.3,2.3-0.9c0.6-0.6,1-1.6,1.2-2.9l4.8,0.9
			c-0.5,2.4-1.4,4.2-2.8,5.4c-1.4,1.2-3.3,1.8-5.6,1.8c-2.7,0-4.8-0.9-6.4-2.8c-1.6-1.8-2.4-4.4-2.4-7.6c0-3.3,0.8-5.9,2.4-7.7
			c1.6-1.8,3.8-2.8,6.5-2.8c2.2,0,4,0.5,5.3,1.6C630.6,715.9,631.6,717.5,632.2,719.6L632.2,719.6z"/>
		<path class="st5" d="M640.6,706.2v10.1c1.6-2,3.4-3,5.6-3c1.1,0,2.1,0.2,3,0.7c0.9,0.4,1.6,1,2,1.7c0.5,0.7,0.8,1.5,0.9,2.3
			c0.2,0.8,0.3,2.2,0.3,4v11.7h-4.8v-10.5c0-2.1-0.1-3.4-0.3-4c-0.2-0.6-0.5-1-1-1.3c-0.5-0.3-1-0.5-1.7-0.5c-0.8,0-1.5,0.2-2.2,0.6
			c-0.6,0.4-1.1,1.1-1.4,1.9c-0.3,0.9-0.4,2.1-0.4,3.8v10h-4.8v-27.5H640.6L640.6,706.2z"/>
		<path class="st5" d="M414.8,586.3c-5.5-0.6-11.3,1-16.5-1.4c-2.3-1.4-4.5-3.4-5.7-5.6c-0.2-0.2-0.2-0.3-0.4-0.5
			c-1-1.8-2.2-3.6-2.9-5.8c-3.3-8.4-4-17.2-4.2-25.9c0-10,0.6-20.1,3.6-29.7c0.1-0.4,0.4-0.7,0.4-1.2c1.4-3.3,2.8-6.5,5.6-9.1
			c0.8-0.4,1.4-1.2,2.4-1.5l0.2-0.2c4-1.7,7.9-1.2,12.4-1.2c4.5-0.1,11,0.5,13.9,4.3c0.7,0.7,1.3,1.4,2,2.2c0.4,0.7,0.8,1.2,1.2,1.8
			c0.2,0.2,0.2,0.5,0.4,0.7c6,10.9,7.2,24.5,6.8,36.9c-0.3,7.8-0.8,15.4-3.1,23c-1.7,5-4,9.6-8.8,12.2c-2.2,1-4.6,0.9-7,0.9
			L414.8,586.3L414.8,586.3z"/>
		<path class="st4" d="M415.3,587.8c-5.7-0.6-11.6,1-17-1.4c-2.4-1.4-4.6-3.5-5.9-5.9c-0.2-0.2-0.2-0.3-0.4-0.5c-1-1.8-2.2-3.7-3-6
			c-3.4-8.8-4.1-17.9-4.4-26.9c0-10.4,0.6-20.9,3.7-31c0.1-0.4,0.4-0.7,0.4-1.2c1.4-3.5,2.9-6.8,5.8-9.4c0.8-0.5,1.4-1.2,2.5-1.6
			l0.2-0.2c4.1-1.7,8.6-0.9,13.2-1c4.6-0.1,11,0.3,14,4.3c0.7,0.7,1.3,1.4,2,2.2c0.4,0.7,0.8,1.2,1.2,1.9c0.2,0.2,0.2,0.5,0.5,0.7
			c6.2,11.3,7.4,25.6,7,38.5c-0.3,8.2-0.9,16-3.2,23.9c-1.8,5.2-4.1,10-9,12.7c-2.2,1-4.8,1-7.2,1L415.3,587.8L415.3,587.8z
			 M403.7,539.1h-0.3c-0.2-0.3-0.2-0.5-0.4-0.8c0-0.2-0.2-0.3-0.4-0.5c-1.4-0.7-3.1-0.2-4.5-0.3c-0.3,0-0.6,0.2-0.8,0.4
			c-0.2,0.3-0.5,0.6-0.6,1.2c-0.6,0.1-1,0-1.6,0.1l-0.2-0.2c0-0.2-0.1-0.3-0.2-0.6c-0.2-0.2-0.5-0.7-1-0.9h-3.3l-0.3-0.2
			c0.1-2.8,0.2-5.6,0.7-8.5l0.1-0.1h3.8c0.3-0.1,0.7-0.2,0.9-0.4c0.1-0.2,0.3-0.5,0.5-0.7l0.1-0.3c0.5-0.1,1-0.1,1.6-0.1l0.3,0.2
			c0,0.2,0.2,0.2,0.3,0.5l0.3,0.4c1.3,0.8,3.3,0.3,4.9,0.4c0.2-0.2,0.5-0.2,0.7-0.5c0.2-0.2,0.2-0.6,0.5-0.9c0.6-0.1,1,0,1.7,0
			l0.2,0.4c0.1,0.2,0.3,0.5,0.6,0.7c0.1,0.1,0.3,0.2,0.7,0.3l3.3,0.1l0.1,0.1c-0.2,2.7-0.6,5.6-0.6,8.3l-0.2,0.3h-2.6
			c-0.6,0-1.2,0-1.6,0.2c-0.2,0.1-0.2,0.2-0.5,0.5c-0.2,0.3-0.4,0.6-0.6,1c-0.3,0-0.8,0-1.2,0H403.7L403.7,539.1z M395.4,551.7
			l-0.3-0.2c-0.1-0.4-0.3-0.7-0.5-1c-1.3-0.8-3.1-0.3-4.5-0.5c-0.4-2.5,0-5.1-0.2-7.8l0.2-0.3l3.7-0.2c0.2-0.1,0.6-0.4,0.9-0.7
			c0.1-0.1,0.1-0.3,0.2-0.5l0.2-0.2c0.5-0.1,0.9,0,1.5-0.1l0.3,0.5c0.1,0.2,0.3,0.5,0.5,0.7c0.2,0.1,0.3,0.2,0.7,0.3l4.3-0.1
			c0.2-0.2,0.5-0.5,0.6-0.7c0.2-0.1,0.2-0.3,0.3-0.7c0.6,0,1.4-0.2,2,0.2c0,0.2,0.2,0.2,0.2,0.5l0.2,0.4c0.2,0.2,0.5,0.2,0.7,0.4
			c1.2,0.2,2.5,0,3.9,0.2l0.1,0.1l0.3,7.8l-0.3,0.2c-1.4,0.1-2.9-0.2-4.3,0.3c-0.3,0.3-0.5,0.9-0.9,1.3c-0.5,0-1,0.2-1.7-0.1
			c-0.1-0.4-0.3-0.7-0.6-1l-0.2-0.2c-1.3-0.6-2.9-0.2-4.4-0.3l-0.5,0.2c-0.2,0.1-0.5,0.2-0.7,0.6c-0.1,0.2-0.2,0.6-0.3,0.9
			c-0.5,0.2-0.9,0-1.3,0.1H395.4L395.4,551.7z M405.5,564.7l-0.2-0.1c0-0.2-0.1-0.3-0.1-0.5c-0.2-0.2-0.4-0.6-0.7-0.9
			c-1.4-0.6-3.1-0.3-4.6-0.3c-0.6,0.3-1,0.9-1.2,1.6l-0.2,0.1c-0.5,0-0.9,0-1.3,0l-0.3-0.3c0-0.1-0.1-0.2-0.2-0.5
			c-0.2-0.4-0.6-0.8-1-1h-4.3c-0.6-2.8-1-5.6-1-8.5c1.2-0.2,2.5,0.1,3.7-0.2c0.3-0.1,0.5-0.2,0.7-0.6c0.2-0.1,0.2-0.5,0.4-0.9
			c0.6,0,1,0,1.6,0l0.2,0.2l0.2,0.4c0.1,0.2,0.3,0.5,0.7,0.8c1.4,0.3,2.8,0,4.1,0.2c0.6,0,0.9-0.6,1.4-0.9c0-0.2,0.1-0.6,0.2-0.7
			c0.5-0.1,1,0,1.5-0.1l0.3,0.2c0.2,0.4,0.5,0.8,1,1.2c1.4,0.4,3,0,4.6,0.2c0.1,2.8,0.7,5.5,1.2,8.4c-0.6,0.2-1.2,0-1.9,0.1
			c-0.8,0-1.3,0-1.8,0l-0.3,0.2c-0.3,0.2-0.8,0.6-1,1.2l-0.1,0.3c-0.5,0.2-0.9,0.2-1.5,0.2H405.5L405.5,564.7z M401.1,574.8
			c-0.2-0.1-0.3,0-0.6-0.1c-0.2-0.2-0.2-0.5-0.4-0.8c-0.1-0.1-0.2-0.2-0.4-0.5c-1.4-0.6-3.2-0.2-4.8-0.2c-0.3,0-0.3,0.3-0.7,0.2
			c-0.6-1.8-1.6-3.9-1.8-5.9h3.3l0.6-0.3c0.2-0.3,0.4-0.6,0.6-1l0.2-0.1c0.5-0.2,0.9,0,1.5-0.1c0.5,0.4,0.6,1.1,1.4,1.3
			c1.3,0.2,2.7,0.2,4.1,0.1c0.4-0.2,0.6-0.5,1-0.8c0-0.2,0.2-0.5,0.3-0.7c0.5-0.1,1.3-0.1,1.8,0.2c0.1,0.4,0.2,0.6,0.6,1
			c0.2,0.1,0.3,0.2,0.6,0.3h4c0.3,0,0.3-0.3,0.7-0.3c0,0.2,0,0.4,0.2,0.5c0,0.3,0.2,0.7,0.3,1.1l1.4,4.2l-0.1,0.1L412,573
			c-0.4,0.2-0.6,0.3-0.9,0.6c-0.1,0.3-0.3,0.6-0.3,0.9c-0.5,0.3-1.2,0.1-1.8,0.2l-0.3-0.2c0.1-0.2-0.2-0.3-0.2-0.6l-0.3-0.4
			c-1.3-0.7-3.1-0.2-4.6-0.4l-0.6,0.3l-0.2,0.1l-0.1,0.2c-0.2,0.2-0.3,0.6-0.5,1c-0.3,0.1-0.6,0-1,0L401.1,574.8L401.1,574.8z
			 M407.3,582l-0.1-0.1c0-0.2-0.1-0.3-0.1-0.5c-0.2-0.4-0.6-0.6-1-0.9l-3.3-0.1l-0.3,0.1c-0.3,0.1-0.5,0.3-0.7,0.6
			c-0.1,0-0.1,0.2-0.2,0.5l-0.3,0.1c-1.7-0.8-3.7-2.5-4.7-4.3c1-0.2,2,0.1,3-0.2c0.2-0.3,0.5-0.3,0.6-0.6c0.1-0.3,0.2-0.3,0.3-0.7
			c0.5-0.1,1,0,1.6-0.1l0.4,0.1c0,0.3,0.2,0.3,0.2,0.6c0.2,0.3,0.6,0.6,1,0.8h3.9c0.2,0,0.5-0.3,0.8-0.5c0.3-0.2,0.3-0.7,0.6-1
			c0.5-0.1,1.1-0.1,1.7,0c0.2,0,0.2,0.2,0.3,0.5c0.1,0.3,0.2,0.5,0.6,0.7c1.4,0.5,3.2,0.4,4.8,0.2c0.2-0.1,0.6-0.5,0.9-0.6
			c0.8,1.2,1.8,2.4,2.9,3.4l-0.1,0.2l-0.2,0.2c-1,0.2-2.2,0-3.3,0.1l-0.6,0.2c-0.4,0.3-0.5,0.8-0.8,1.2c-0.3,0-0.8,0.1-1.2,0.1
			c-0.1-0.1-0.2-0.3-0.2-0.6c-0.2-0.2-0.4-0.5-0.8-0.8c-1-0.3-2.2,0-3.5-0.1c-0.4,0.1-0.6,0.2-1,0.6c0,0.1-0.2,0.2-0.2,0.5v0.2
			l-0.2,0.1C407.9,582.1,407.7,582,407.3,582L407.3,582z M397.2,526c-0.3-0.1-0.6,0-0.9-0.1c-0.5-0.7-0.7-1.4-1.7-1.6l-2.9-0.1
			l-0.2-0.2c0.3-1.7,0.7-3.5,1.3-5.4l0.2-0.2c1.4,0.4,2.8,0.1,4.2,0.2c0.3,0,0.5-0.2,0.9-0.3c0.2-0.1,0.2-0.2,0.5-0.5
			c0.2-0.2,0.2-0.4,0.3-0.7c0.5,0,0.9,0,1.5,0l0.3,0.1l0.1,0.3c0.1,0.2,0.4,0.5,0.6,0.7c0.2,0.2,0.4,0.3,0.7,0.3h3.6
			c0.4,0,0.7-0.3,1-0.6l0.2-0.2c0.2-0.1,0.2-0.3,0.3-0.7l0.1-0.1c0.6,0,1.1-0.1,1.7,0c0.2,0.1,0.2,0.3,0.3,0.5
			c0,0.2,0.3,0.3,0.4,0.6l0.2,0.1c1,0.6,2.3,0.2,3.4,0.3c0.2,0.1,0.3,0,0.6,0.1c-0.6,1.8-1.2,3.7-1.7,5.5c-1.4-0.1-2.8,0-4.3,0
			l-0.3,0.1c-0.2,0.1-0.3,0.3-0.6,0.5c-0.2,0.2-0.3,0.6-0.4,0.9l-0.2,0.2c-0.5,0.1-0.9,0-1.5,0l-0.2-0.2c0-0.3-0.2-0.4-0.3-0.7
			c-0.2-0.2-0.2-0.2-0.5-0.5c-0.1-0.1-0.3-0.1-0.6-0.2l-4.3,0.2c-0.2,0-0.2,0.3-0.5,0.4l-0.2,0.2c-0.2,0.1-0.2,0.5-0.4,0.9l-0.2,0.1
			C397.5,526,397.3,526,397.2,526L397.2,526z M399.1,516l-0.2-0.1l-0.2-0.1c0-0.2-0.1-0.3-0.2-0.6c-0.1-0.2-0.3-0.5-0.5-0.6
			c-1-0.5-2.1-0.2-3.1-0.3c0.1-0.3,0.1-0.4,0.2-0.7c1.2-1.4,2.5-3.5,4.5-3.7c0,0.2,0.2,0.2,0.2,0.5c0.1,0.2,0.2,0.5,0.6,0.7
			c1.3,0.4,2.5,0.1,3.7,0.2l0.4-0.2l0.3-0.2l0.1-0.2c0.2-0.1,0.1-0.5,0.3-0.6l0.3-0.2c0.1,0,0.3,0,0.5,0l0.3,0.2l0.2,0.4l0.2,0.3
			l0.2,0.2c0.1,0.2,0.3,0.2,0.5,0.2h3.6c0.3-0.1,0.6-0.4,0.8-0.7v-0.2l0.2-0.3c0.3-0.1,0.7,0,1-0.1l0.3,0.2c0.1,0.4,0.3,0.6,0.7,1
			c1.2,0.2,2.4,0.1,3.6,0.2l0.1,0.3c-0.1,0.4-0.5,0.7-0.9,1.2c-0.2,0.4-0.6,0.7-0.8,1.2c-0.2,0.4-0.5,0.8-0.8,1.2
			c-0.1,0-0.2-0.2-0.4-0.4c-0.1-0.2-0.5-0.2-0.7-0.4c-1.4,0-3.1-0.3-4.7,0.2l-0.3,0.3c-0.1,0.2-0.2,0.5-0.4,0.9
			c-0.5,0.2-1.2,0.1-1.8,0.1c-0.1-0.5-0.3-0.8-0.7-1.1c-0.1-0.1-0.3-0.3-0.7-0.3l-4.3,0.1c-0.2,0.2-0.2,0.2-0.5,0.4
			c-0.2,0.2-0.3,0.5-0.4,0.7l-0.2,0.3C400.1,516,399.5,515.9,399.1,516L399.1,516z M422.4,573.2c0.2-1.2-0.6-2.3-0.9-3.6l-0.1-0.3
			l-0.2-0.2l-0.2-0.2c-0.3-0.2-0.7-0.3-1.2-0.4l-0.1-0.1c-0.1-0.2-0.1-0.3,0-0.6c0.2-0.1,0.2-0.2,0.5-0.4c0.1-0.2,0.2-0.2,0.3-0.5
			c0-1.2-0.5-2.3-0.6-3.5l-0.2-0.4c0-0.2-0.2-0.2-0.4-0.5c-0.2-0.2-0.7-0.2-1-0.3l-0.2-0.1c0-0.3-0.1-0.5-0.1-0.9
			c0.2-0.1,0.5-0.4,0.8-0.7c0.4-1.3-0.2-2.5-0.2-3.9c-0.3-0.2-0.3-0.6-0.6-0.8c-0.2-0.1-0.6-0.2-0.7-0.3c-0.1-0.2-0.1-0.3,0-0.5
			c0.2-0.1,0.5-0.3,0.7-0.5c0.6-1.2,0.1-2.6,0.2-4c-0.2-0.3-0.2-0.6-0.6-0.9c-0.2-0.1-0.5-0.2-0.9-0.4c0-0.1,0-0.2,0-0.5l0.2-0.2
			l0.4-0.3c0.6-1.2,0.2-2.8,0.4-4.1c-0.1-0.3-0.2-0.4-0.4-0.7c-0.2-0.1-0.5-0.3-0.7-0.4c-0.1-0.2-0.1-0.5-0.1-0.7l0.3-0.2l0.3-0.2
			c0.8-1.1,0.6-2.9,0.6-4.3l-0.1-0.3c-0.2-0.3-0.7-0.7-1-0.9c-0.1-0.1,0-0.2-0.1-0.5c0.3-0.4,0.9-0.6,1.1-1.1c0.1-1.4,0.4-2.8,0-4.2
			c-0.2-0.3-0.6-0.4-0.8-0.7c0-0.2,0-0.5,0.1-0.7c0.1-0.1,0.4-0.1,0.7-0.2c0.2-0.2,0.2-0.4,0.5-0.5c0.2-0.2,0.3-0.3,0.3-0.7
			c0.2-0.9,0.5-1.9,0.6-2.9c0-0.3-0.2-0.4-0.3-0.8c-0.1-0.2-0.5-0.4-0.7-0.6v-0.1c0-0.2,0-0.4,0.2-0.5c0.2-0.1,0.5-0.1,0.9-0.2
			l0.2-0.2l0.2-0.2c0.1-0.1,0.1-0.6,0.4-0.9c0.1-1.2,0.9-2.1,0.7-3.2c0.2-0.2,0.4,0.1,0.6,0l0.4,0.1c0.7,0.6,1.3,1.3,1.8,2.1
			c6,15.7,6.2,33.7,1.7,49.9c-0.2,0.3-0.5,0.8-0.7,1.2c-0.5,0.6-0.7,0.9-1.2,1.3c-0.2,0.1-0.5,0.2-0.6,0.4H422.4L422.4,573.2z
			 M406.3,585.3c-1.8-0.2-3.7,0.1-5.5-0.6l-2.1-1c-0.2,0-0.2-0.2-0.6-0.2c-2.5-2.1-4.1-4.7-5.6-7.4v-0.2c0.4-0.1,0.6,0,1,0l0.3,0.2
			l0.1,0.3c1.6,1.4,2.6,3.6,4.7,5.1c0.8,0.6,1.8,1.2,2.9,1.6c0,0.2,0.2,0.2,0.2,0.6l0.4,0.3c0.2,0.2,0.3,0.2,0.6,0.4l3.3-0.1
			l0.4-0.2c0.3-0.4,0.6-0.6,0.7-1c0.3-0.2,0.5,0,0.9-0.1l0.2,0.2l0.1,0.2c0.2,0.1,0.2,0.3,0.4,0.5c1.2,0.6,2.6,0.2,4,0.3l0.2-0.1
			c0.3-0.1,0.7-0.5,0.9-1.1c0.2-0.2,0.8,0,1.2-0.1c0.3,0.2,0.4,0.6,0.7,0.9c0.1,0.1,0.3,0.2,0.7,0.3l3.1,0.1c0.4-0.1,0.6-0.2,1-0.6
			c0.1-0.2,0.2-0.2,0.3-0.6c0.1-0.6,0.2-1.1-0.1-1.9c-0.1-0.2,0.2-0.3,0.3-0.6c0.1-0.2,0.2-0.3,0.4-0.6c0.3,0,0.6,0,1,0l0.3-0.2
			l0.3-0.2c0.6-1.2,1-2.6,1.3-3.9c-0.1-0.4-0.3-0.6-0.5-1l0.1-0.1c0-0.2,0.2-0.2,0.5-0.2c6.5-10.6,5.7-24.6,5.1-36.3
			c-0.7-6.6-1.7-13.9-5-19.7c-0.2-0.5-0.6-1-1.2-1.4c-0.5-0.2-0.5-0.4-0.7-0.4l-0.1-0.2c0.5-1-0.3-2.3-0.6-3.5v-0.2
			c-0.2-0.1-0.2-0.4-0.4-0.7l-0.2-0.2c-0.4-0.3-1.1-0.4-1.7-0.3c0-0.3-0.2-0.4-0.5-0.7c0-0.7,0.2-1.3,0.1-2.1
			c-0.1-0.5-0.2-0.7-0.6-1c-1.3-0.4-2.5-0.1-3.7-0.2c-0.2,0.1-0.6,0.2-0.7,0.3l-0.2,0.3c-0.1,0.2-0.2,0.6-0.3,0.7l-0.3,0.1
			c-0.3,0-0.6,0-1,0c0-0.2-0.1-0.3-0.2-0.6c-0.1-0.1-0.2-0.3-0.4-0.5c-0.1-0.2-0.3-0.2-0.6-0.4l-3.3,0.1l-0.3,0.1
			c-0.1,0.2-0.2,0.2-0.4,0.4c-0.1,0.2-0.2,0.4-0.3,0.7l-0.1,0.2c-0.3,0.1-0.6,0-0.9,0c-0.2-0.3-0.3-0.7-0.6-1
			c-1.1-0.7-2.7-0.2-4-0.4l-0.6,0.2c-0.2,0.1-0.4,0.4-0.6,0.6c-0.1,0.2-0.3,0.2-0.6,0.4c-2,0.6-3.5,2.2-4.9,3.9
			c0,0.2-0.1,0.2-0.2,0.6l-0.2,0.2c-0.2,0.3-0.3,0.7-0.6,1c-0.2,0.1-0.4,0.2-0.6,0.3l-0.2,0.2c-0.2,0.2-0.2,0.8-0.5,1
			c-0.3,0.1-0.6,0.1-0.9,0.1l-0.1-0.1c0.8-2.4,1.7-4.5,3.1-6.2c1-1.8,2.8-3.1,4.5-4c1.4-0.5,2.8-0.5,4.1-0.5
			c6.9,0.6,15.5-2.2,20.1,4.1c7.7,9.7,9.3,24.6,9.6,37.2c-0.2,8.8-0.6,17.5-3.1,26c-0.8,2.8-1.8,5.4-3.3,7.6
			c-0.9,1.6-2.5,3.3-4.1,4.2l-0.2,0.2c-5.1,1.4-10.3,0.4-15.4,0.7L406.3,585.3L406.3,585.3z M420.4,516.2l-0.2-0.1l-0.2-0.2
			l-0.9-2.5l0.1-0.2l0.3,0.3c0.1,0.1,0.2,0.1,0.5,0.2l0.4-0.2l0.2-0.4c0-0.2-0.2-0.4-0.2-0.6h0.2c0.5,0.8,0.6,1.8,1,2.9v0.2
			l-0.2,0.1C421.2,515.9,420.8,516.2,420.4,516.2L420.4,516.2z M417.2,518c-0.4-0.2-0.8-0.5-1.2-0.9c0.6-1.2,1.2-2.4,2.1-3.4
			l0.2,0.1c0.5,1.1,0.7,2.7,1.6,3.5c-0.6-0.1-1.1-0.3-1.8-0.1C417.6,517.3,417.5,517.7,417.2,518L417.2,518z M413.2,525.9l-0.2-0.1
			c0.4-2.6,1.3-5.3,2.5-7.5c0.4,0.1,0.7,0.6,1.2,0.8c0.1,0.6-0.2,1-0.4,1.6c0,0.2,0,0.3,0,0.5c0.2,0.6,0.5,1,0.9,1.4v0.1
			c-0.1,0.2-0.1,0.3-0.1,0.5c-0.2,0.1-0.4,0.2-0.7,0.2c-0.2,0.2-0.2,0.2-0.5,0.5c-0.2,0.6-0.3,1.2-0.6,1.8
			C414.7,526.2,414,525.9,413.2,525.9L413.2,525.9z M412,539.1l-0.2-0.1c-0.2-3.9,0-8,1.2-11.6l0.3-0.2c0.5,0,1,0,1.5,0
			c0.1,0.1,0.3,0.4,0.3,0.6l0.1,0.4c0.2,0.3,0.7,0.6,1,0.9c0,0.3-0.1,0.6-0.2,0.9c-0.2,0.1-0.4,0.2-0.6,0.3c-0.2,0-0.3,0.3-0.6,0.4
			c0,0.1-0.2,0.2-0.2,0.5l-0.2,3.6l0.2,0.3l0.4,0.4c0.2,0.1,0.5,0.2,0.6,0.4l0.2,0.3l-0.2,0.3h-0.2c-0.2,0-0.2,0.2-0.5,0.3l-0.3,0.3
			c-0.1,0.2-0.2,0.3-0.2,0.6c0,0.4-0.1,0.8-0.2,1.4C413.4,539.2,412.7,539.1,412,539.1L412,539.1z M413.6,551.6
			c-0.5-0.1-0.9,0-1.4,0l-0.2-0.2c-0.2-3.7-0.6-7.3-0.2-11.1h2.2c0.2,0.2,0,0.6,0.1,0.9c0.2,0.4,0.3,0.6,0.6,0.8
			c0.1,0.2,0.4,0.2,0.7,0.3c0.1,0.1,0.1,0.4,0.1,0.7c-0.3,0.2-0.6,0.3-1,0.6c-0.1,0.2-0.2,0.3-0.3,0.6l-0.2,3.1l0.1,0.4
			c0.2,0.4,0.3,0.6,0.7,1c0.2,0.1,0.5,0.1,0.7,0.2l0.2,0.1v0.4c-0.2,0.3-0.6,0.3-0.9,0.6c0,0.2-0.2,0.3-0.2,0.6c0,0.2,0,0.5,0,0.8
			l-0.5,0.2C414,551.6,413.9,551.6,413.6,551.6L413.6,551.6z M414,564.8l-0.2-0.1c-0.9-3.9-1.4-7.8-1.7-11.7c0.6-0.2,1.4,0,2.1-0.2
			l0.3,0.3c0,0.3,0,0.8,0.1,1.1c0.3,0.5,0.7,0.8,1.4,1c0,0.1,0.1,0.2,0,0.4c-0.1,0.2-0.3,0.2-0.6,0.2l-0.3,0.3
			c-0.2,0.1-0.2,0.4-0.3,0.5c0,1.3,0.2,2.7,0.6,4c0.2,0.1,0.2,0.3,0.5,0.5c0.2,0.2,0.6,0.2,0.9,0.3c0.1,0.2,0.1,0.5,0.2,0.9
			l-0.1,0.2c-0.1,0.1-0.2,0.3-0.5,0.4c-0.3,0.5-0.2,1.1-0.2,1.7L414,564.8L414,564.8z M416.7,573.4l-0.2-0.2c-0.9-2.2-1.8-4.5-2.3-7
			V566c0.7,0,1.4-0.1,2.1,0l0.4,0.2c0.1,0.3,0.1,0.8,0.3,1.2c0.1,0.2,0.2,0.2,0.5,0.5c0.2,0.1,0.7,0.2,1,0.5c0,0.2,0,0.2,0,0.5
			c-0.1,0.2-0.3,0.5-0.6,0.7c-0.1,0.3-0.1,0.8-0.1,1.2c0.1,0.3,0.5,0.9,0.4,1.6c-0.5,0.2-1,0.8-1.4,1H416.7L416.7,573.4z
			 M422.4,578.7v-0.3l-0.2-0.4l-0.3-0.1c-0.2,0.1-0.4,0.1-0.6,0.2c-0.1,0.1-0.1,0.3-0.4,0.4l-0.1-0.2c0-0.6,0.2-1.2,0.6-1.7
			c0.1-0.4,0.1-0.8,0.5-1.2l0.2-0.1c0.3-0.1,0.8,0.2,1.2,0.3l0.1,0.3C423.1,576.8,422.9,577.9,422.4,578.7L422.4,578.7z M419.6,578
			c-0.9-1.1-1.5-2-2.2-3.2v-0.2c0.3-0.4,0.9-0.7,1.4-1.1c0.3,0.3,0.6,0.7,1.2,0.9c0.5,0,1.2-0.2,1.7-0.2l-0.3,0.2l-0.1,0.1
			c-0.3,0.4-0.4,1.1-0.7,1.6c-0.1,0.6-0.4,1.2-0.6,1.8L419.6,578L419.6,578z M392.1,574.6h-0.2c-1.2-2.5-2.2-5.8-2.7-8.6
			c0.2-0.2,0.5,0,0.8-0.1c0.2,0.1,0.2,0.4,0.4,0.6c1,1.5,1.3,4.1,2.1,6c0.3,0.6,0.6,1.3,0.9,1.9l-0.1,0.2
			C393,574.6,392.6,574.6,392.1,574.6L392.1,574.6z M388.8,564.7c-0.9-3.8-1.3-7.7-1.5-11.6l0.2-0.2c0.2,0,0.4,0,0.6,0l0.3,0.3
			c0.9,3.5,1.1,7.7,1.5,11.5C389.7,564.7,389.2,564.7,388.8,564.7L388.8,564.7z M387.8,551.7c-0.2-0.1-0.3,0-0.6-0.1
			c-0.2-3.7-0.1-7.4-0.1-11.1c0.2-0.2,0.4-0.1,0.6-0.2l0.3,0.2c0.1,0.3,0.5,0.6,0.6,1l0.1,9.1c-0.2,0.3-0.2,0.7-0.6,0.9
			C388.1,551.6,388,551.8,387.8,551.7L387.8,551.7z M387.4,539.1c-0.1-3.7,0.4-7.8,1-11.7c0.2-0.2,0.5-0.1,0.9-0.2l0.2,0.2
			c0,3.5-0.6,6.7-0.6,10.2c-0.2,0.2-0.2,0.2-0.4,0.5c-0.2,0.2-0.2,0.5-0.5,0.9C387.8,539.1,387.6,539.1,387.4,539.1L387.4,539.1z
			 M388.8,525.9l-0.2-0.1c0.4-2.8,1-5.5,1.9-8.5l0.2-0.1c0.4,0,0.8,0,1.2,0l0.2,0.3c-0.1,0.4-0.3,0.6-0.4,1c-0.6,2-1.2,3.9-1.6,6.1
			c-0.2,0.1-0.2,0.2-0.4,0.5c-0.2,0.2-0.2,0.6-0.4,0.8C389.1,525.9,389,525.9,388.8,525.9L388.8,525.9z M418.8,521.6
			c-0.2-0.2,0.1-0.4-0.1-0.6c-0.2-0.2-0.3-0.2-0.5-0.4H418l-0.3,0.3l-0.1,0.3h-0.2c0-0.2,0.2-0.3,0.1-0.6c0.2-0.1,0-0.4,0.2-0.5
			c0.3-0.2,0.6,0.2,0.8,0l0.2-0.2c0.2-0.2,0.1-0.6-0.1-0.9c-0.2-0.1-0.3-0.2-0.4-0.4l0.1-0.4l0.2-0.2c0.4-0.2,1,0,1.4,0.3l0.1,0.2
			c0,0.5-0.2,0.9-0.3,1.3c-0.1,0.5-0.3,0.9-0.5,1.4L418.8,521.6L418.8,521.6z M417.4,527.9l-0.1-0.3c-0.2-0.2-0.2-0.2-0.5-0.3h-0.3
			c-0.2,0.1-0.2,0.4-0.4,0.4l-0.1-0.2c0-0.2,0.1-0.2,0.3-0.4c0.2-0.7-0.1-1.5,0.4-2.2c0,0.2,0.1,0.4,0.2,0.6l0.3,0.2
			c0.2,0,0.4-0.1,0.5-0.1c0.2-0.1,0.2-0.4,0.3-0.7h0.2l0.2,0.2l-0.8,2.9H417.4L417.4,527.9z M415.5,534.6l-0.2-0.2l0.1-2.8l0.4-0.3
			v0.3l0.1,0.2c0.2,0.2,0.2,0.2,0.5,0.4c0.2-0.1,0.4-0.1,0.6-0.2l0.2-0.2l-0.2,2.8c-0.2-0.2,0-0.3-0.1-0.5l-0.3-0.4l-0.3-0.1
			l-0.3,0.1c-0.2,0.1-0.2,0.3-0.2,0.6C415.7,534.2,415.7,534.4,415.5,534.6L415.5,534.6z M415.3,541.1l-0.2-0.4
			c0.2-0.9,0-1.9,0.2-2.9l0.2-0.1l0.1,0.3c0.2,0.2,0.3,0.4,0.6,0.6h0.2c0.2-0.1,0.3-0.2,0.6-0.3l-0.1,2.6v-0.2
			c-0.1-0.2-0.1-0.4-0.2-0.6c-0.2-0.2-0.4-0.2-0.7-0.2l-0.3,0.3c0,0.2,0,0.5,0,0.7L415.3,541.1L415.3,541.1z M415.5,547.7
			c-0.2-0.1-0.2-0.2-0.3-0.4v-2.4c0.2-0.2,0-0.4,0.2-0.5h0.2l0.1,0.3l0.3,0.4l0.3,0.1c0.3,0,0.4-0.3,0.7-0.3c0,0.6,0.1,1.2-0.1,2
			l-0.3-0.2c-0.2,0-0.3,0-0.6,0.1l-0.2,0.2c-0.1,0.2-0.1,0.5-0.1,0.9H415.5L415.5,547.7z M415.9,553.9c-0.4-0.8-0.2-1.9-0.2-2.9v0.3
			l0.3,0.4l0.3,0.1l0.4-0.2l0.2-0.3c0-0.2,0-0.3,0-0.5l0.2-0.1c0.2,1,0.2,2.1,0.2,3.1h-0.2c0-0.1,0-0.4-0.2-0.5l-0.3-0.2
			c-0.1,0-0.4,0-0.5,0.2C415.9,553.3,416.1,553.6,415.9,553.9L415.9,553.9z M416.5,560.4l-0.2-0.1c-0.1-1-0.4-2.1-0.3-3.1l0.1-0.2
			c0.1,0.2,0.1,0.6,0.3,0.8l0.4,0.2l0.3-0.1c0.1-0.2,0.3-0.2,0.3-0.6l0.2,0.1l0.2,2.5c-0.1-0.2-0.2-0.2-0.3-0.4
			c-0.1-0.2-0.3-0.2-0.5-0.2l-0.4,0.1l-0.2,0.4C416.5,560,416.7,560.1,416.5,560.4L416.5,560.4z M418.1,567.1l-0.2-0.1
			c-0.2-0.5-0.2-0.9,0.1-1.4c0-0.2-0.1-0.4-0.1-0.6l-0.3-0.2c-0.2-0.1-0.2-0.2-0.2-0.5V564c0.2,0,0.5,0.2,0.7,0.2l0.3-0.2
			c0.1-0.1,0.1-0.2,0.2-0.4h0.2c0.4,0.7,0.6,1.9,0.8,2.9l-0.2,0.2c0-0.2-0.2-0.3-0.2-0.5l-0.4-0.1l-0.3,0.1
			c-0.1,0.1-0.1,0.3-0.2,0.5C418.2,566.8,418.3,567,418.1,567.1L418.1,567.1z M420,573.4c-0.2-0.1-0.2-0.2-0.3-0.5
			c0.1-0.3,0.2-0.3,0.3-0.7l-0.1-0.3l-0.2-0.2c-0.2,0-0.3-0.2-0.6-0.2c-0.1-0.3-0.2-0.6-0.2-0.9c0.2,0.1,0.2,0.2,0.5,0.3
			c0.2,0,0.4-0.1,0.6-0.2c0.2-0.2,0-0.6,0.1-1l0.3,0.1l1,2.8c0,0.2-0.1,0.4-0.2,0.5C421,573.2,420.4,573.3,420,573.4L420,573.4z
			 M416.5,583.3V583l0.3-0.1l0.2-0.3l-0.1-0.3c-0.1-0.2-0.2-0.2-0.5-0.2l-0.2-0.2v-0.2l0.3-0.2h2.1v0.5c0,0.1,0.1,0.4,0.2,0.5
			l0.3,0.2c0.1-0.1,0.4-0.1,0.5-0.2l0.2,0.1c0.1,0.2-0.1,0.4-0.2,0.6C418.8,583.4,417.6,583.1,416.5,583.3L416.5,583.3z
			 M410.2,583.3c-0.2,0-0.5,0-0.7,0V583l0.3-0.1l0.2-0.4l-0.1-0.3c-0.2-0.1-0.5-0.1-0.6-0.3l0.1-0.3l3.2-0.1l0.3,0.5
			c-0.2,0-0.3,0.1-0.6,0.3l-0.1,0.3c0.1,0.2,0.3,0.2,0.5,0.4v0.1C412,583.4,411.1,583.2,410.2,583.3L410.2,583.3z M403.9,583.3
			c-0.3-0.1-0.6,0-1,0l-0.2-0.3c-0.2-0.3,0-0.6-0.1-1c0.1-0.1,0.1-0.3,0.3-0.5l3.2,0.1l0.1,0.3c-0.2,0.2-0.4,0.1-0.6,0.2l-0.2,0.3
			c0.1,0.2,0.2,0.2,0.4,0.5h0.3l0.1,0.2l-0.2,0.2C405.2,583.3,404.6,583.2,403.9,583.3L403.9,583.3z M412.4,576.3
			c-0.2,0-0.4-0.2-0.4-0.4l0.4-0.2c0.2,0,0.2-0.2,0.2-0.5v-0.2c-0.2-0.2-0.5-0.2-0.7-0.5c0.1-0.2,0.1-0.3,0.3-0.5l3.5,0.1l-0.1,0.3
			l-0.2,0.2c-0.2,0.2-0.2,0.2-0.4,0.5c0,0.1,0.1,0.4,0.2,0.5c0.2,0.2,0.5,0,0.8,0.1c0,0.2-0.2,0.3-0.4,0.4L412.4,576.3L412.4,576.3z
			 M405.1,576.3c-0.3-0.1-0.8,0-1.2-0.1l-0.4-0.4c0.1-0.1,0.4-0.1,0.6-0.2l0.2-0.3l-0.2-0.4c-0.2,0-0.3-0.1-0.6-0.3l0.2-0.3
			c1.2-0.3,2.2,0,3.5-0.1c0.1,0.1,0.3,0.1,0.4,0.2v0.3l-0.3,0.2c-0.1,0.1-0.1,0.4-0.1,0.6c0.1,0.2,0.2,0.2,0.3,0.4v0.2l-0.2,0.2
			C406.7,576.3,405.9,576.3,405.1,576.3L405.1,576.3z M397.8,576.3c-0.6-0.1-1.3,0-2-0.1l-0.3-0.4l0.2-0.2c0.1-0.2,0-0.3,0.1-0.6
			c-0.1-0.2-0.2-0.2-0.5-0.4c-0.1,0-0.3,0-0.4-0.2l0.2-0.1c1-0.3,2.4-0.1,3.6-0.2l0.5,0.3c0,0.2-0.3,0.2-0.4,0.3
			c-0.1,0.1-0.3,0.2-0.3,0.5l0.2,0.3c0.1,0.1,0.4,0.1,0.6,0.2l-0.1,0.2C398.8,576.3,398.3,576.1,397.8,576.3L397.8,576.3z
			 M408.9,566.2c-0.2,0-0.4,0-0.4-0.3l0.2-0.2c0.2-0.2,0.2-0.2,0.3-0.6l-0.2-0.3c-0.1-0.1-0.2-0.2-0.4-0.3v-0.3
			c1.1-0.3,2.5,0,3.7-0.1c0.2,0,0.4,0.2,0.4,0.6c-0.2,0-0.5,0-0.7,0.2l-0.1,0.2l-0.1,0.1c0,0.2,0.1,0.4,0.2,0.6
			c0.1,0.1,0.3,0.1,0.6,0.2v0.2C411.2,566.4,410.1,566.2,408.9,566.2L408.9,566.2z M400.7,566.2c-0.2-0.1-0.6,0.2-0.7-0.2
			c0-0.2,0.3-0.1,0.4-0.3l0.2-0.3c0-0.2-0.1-0.4-0.2-0.6c-0.1-0.1-0.3-0.1-0.5-0.2l0.1-0.2c0.1-0.1,0.3-0.1,0.5-0.2h3.1
			c0.2,0,0.6,0.2,0.4,0.5c-0.2,0.1-0.2,0.1-0.5,0.3l-0.1,0.2l0.2,0.3c0.1,0.1,0.2,0.2,0.4,0.5l-0.2,0.2H400.7L400.7,566.2z
			 M392.7,566.2c-0.2,0-0.5,0-0.7,0l-0.1-0.4l0.3-0.2v-0.2c0-0.2,0-0.4-0.2-0.5c-0.2-0.1-0.2-0.2-0.5-0.3l-0.1-0.2l0.2-0.1
			c1.2-0.1,2.3,0,3.6-0.1l0.3,0.2c0,0.3-0.2,0.3-0.5,0.3c-0.2,0.1-0.2,0.3-0.2,0.6l0.1,0.1c0,0.3,0.4,0.3,0.5,0.6l-0.1,0.2
			L392.7,566.2L392.7,566.2z M407.1,553.2l-0.2-0.3l0.1-0.1c0.2,0,0.3-0.2,0.5-0.4v-0.2c-0.1-0.2-0.2-0.3-0.3-0.5l-0.4-0.1l0.1-0.2
			c0.1-0.1,0.3-0.1,0.4-0.2h3.3l0.2,0.2l-0.2,0.2h-0.3l-0.3,0.2l-0.2,0.4c0.1,0.2,0.1,0.4,0.2,0.5c0.1,0.2,0.6,0.1,0.6,0.3l-0.1,0.1
			l-0.3,0.2H407.1L407.1,553.2z M398.7,553.2c-0.2,0-0.4,0-0.4-0.3c0.2-0.1,0.3-0.1,0.5-0.2l0.2-0.2c0-0.2-0.1-0.2-0.2-0.5
			c-0.2-0.1-0.2-0.2-0.5-0.3l0.1-0.3c1.2-0.3,2.4-0.1,3.6-0.1l0.3,0.2c0,0.2-0.2,0.2-0.4,0.4l-0.1,0.4c0,0.2,0.1,0.4,0.1,0.5
			l0.3,0.2l-0.1,0.2C401.1,553.2,399.8,553.2,398.7,553.2L398.7,553.2z M392.1,553.3c-0.6-0.1-1.2,0-1.8-0.1l-0.2-0.2
			c0-0.3,0.2-0.2,0.4-0.5c0.1-0.2,0-0.3,0.1-0.6c-0.2-0.1-0.2-0.3-0.5-0.4v-0.4h3.7l0.2,0.4c-0.3,0-0.3,0.2-0.6,0.2l-0.2,0.4
			l0.2,0.3c0.1,0.2,0.2,0.2,0.4,0.3v0.2l-0.2,0.2c-0.4,0.1-0.8,0-1.4,0L392.1,553.3L392.1,553.3z M406.7,540.7l-0.2-0.3
			c0.2-0.1,0.5-0.2,0.6-0.5c0-0.2-0.1-0.4-0.2-0.6c0-0.1-0.3,0-0.4-0.2v-0.2c0-0.2,0.2-0.2,0.5-0.2h3.1l0.3,0.2l-0.2,0.3h-0.3
			c-0.2,0.2-0.2,0.2-0.4,0.6c0,0.2,0.2,0.2,0.2,0.5c0.2,0,0.3,0.2,0.6,0.2l0.1,0.2l-0.2,0.1C409.1,540.7,407.9,540.7,406.7,540.7
			L406.7,540.7z M399.5,540.7c-0.3-0.2-0.8,0-1.2-0.1l-0.2-0.3l0.2-0.1c0.1,0,0.3-0.2,0.5-0.4v-0.2c-0.1-0.2-0.2-0.3-0.4-0.5
			l-0.3-0.2l0.1-0.2c1-0.3,2.5-0.2,3.7-0.2l0.2,0.2v0.2c-0.1,0.2-0.2,0.2-0.4,0.4l-0.1,0.1c0,0.2,0.1,0.4,0.1,0.6
			c0.1,0,0.3,0.1,0.3,0.4C401.3,540.8,400.3,540.6,399.5,540.7L399.5,540.7z M390.4,540.7l-0.4-0.1l-0.1-0.1
			c-0.1-0.3,0.2-0.4,0.3-0.7c0-0.3-0.4-0.6-0.2-1c0.9-0.3,2.1,0,3.1-0.1l0.3,0.4h-0.3c-0.1,0.2-0.2,0.2-0.3,0.6l0.1,0.3
			c0.2,0.2,0.2,0.3,0.5,0.4l-0.1,0.2C392.3,540.8,391.4,540.6,390.4,540.7L390.4,540.7z M408.5,527.6c-0.2-0.2-0.6,0.1-0.7-0.2v-0.2
			c0.2,0,0.2-0.2,0.5-0.3c0.2-0.2,0-0.5,0-0.7c-0.1-0.2-0.3-0.2-0.6-0.2l0.2-0.4c1.2,0,2.5-0.2,3.7,0.1l0.1,0.2
			c-0.2,0.2-0.4,0.2-0.7,0.2l-0.2,0.2c-0.1,0.2-0.1,0.5,0,0.7c0.2,0.1,0.3,0.2,0.6,0.3v0.2l-0.1,0.1L408.5,527.6L408.5,527.6z
			 M399.5,527.6l-0.2-0.2c0-0.2,0.3-0.1,0.4-0.3l0.2-0.3c-0.1-0.1-0.1-0.3-0.2-0.5c-0.1-0.2-0.4-0.1-0.5-0.3l0.1-0.2l0.1-0.2
			c1.2-0.1,2.4-0.1,3.6,0l0.3,0.2c0,0.3-0.3,0.2-0.4,0.4l-0.1,0.3c0.1,0.1,0.1,0.4,0.2,0.5l0.2,0.3l-0.2,0.1L399.5,527.6
			L399.5,527.6z M392.7,527.6c-0.6-0.2-1,0-1.6-0.1l-0.1-0.2l0.4-0.2l0.1-0.4c-0.1-0.2-0.1-0.4-0.3-0.6l0.1-0.3l0.1-0.1l3.3,0.1
			l0.1,0.3h-0.2c-0.2,0.2-0.4,0.2-0.5,0.4c0,0.2,0.1,0.3,0.1,0.6c0.2,0.1,0.3,0.2,0.6,0.4C394.1,527.6,393.4,527.4,392.7,527.6
			L392.7,527.6z M414.9,510.2l-0.1-0.1c0.2-0.1,0.4-0.1,0.6-0.3l0.1-0.1c0-0.2-0.1-0.3-0.1-0.6c-0.1-0.1-0.3-0.1-0.6-0.2l-0.1-0.2
			l0.2-0.1l2.9-0.1l0.3,0.2c0.1,0.1,0.2,0.3,0.2,0.6l-0.1,0.2l-0.4-0.1l-0.3,0.1l-0.2,0.1c-0.1,0.2,0,0.3-0.1,0.6l-0.1,0.1H414.9
			L414.9,510.2z M408.7,510.3c-0.2-0.1-0.5,0-0.7-0.1l-0.1-0.1l0.3-0.1l0.2-0.4c-0.1-0.1-0.1-0.4-0.2-0.5c-0.2,0-0.2-0.2-0.5-0.2
			v-0.2c1-0.3,2.1,0,3.1-0.2l0.3,0.4c-0.3,0-0.3,0.1-0.6,0.3c0,0.2,0,0.2,0.1,0.5l0.4,0.3l-0.1,0.1L408.7,510.3L408.7,510.3z
			 M401.2,510.3l-0.1-0.1l-0.2-0.1c-0.1-0.3-0.2-0.8,0-1.2l0.2-0.2l0.3-0.2l2.9,0.2l0.1,0.2c-0.1,0.2-0.3,0.1-0.5,0.1
			c-0.1,0.1-0.3,0.2-0.4,0.5l0.2,0.3l0.2,0.2c0.1,0,0.2,0,0.5,0.2l-0.2,0.1L401.2,510.3L401.2,510.3z M410.7,517.5l-0.3-0.2
			c0.1-0.2,0.4-0.1,0.5-0.2l0.2-0.3c0-0.2,0-0.5-0.2-0.5c-0.1-0.1-0.3-0.1-0.5-0.3l0.1-0.2c1.2-0.3,2.8-0.2,4,0v0.4l-0.4,0.1
			c-0.2,0.1-0.2,0.4-0.2,0.7c0,0.2,0.4,0.2,0.4,0.5C413.2,517.7,411.9,517.5,410.7,517.5L410.7,517.5z M402.8,517.5
			c-0.2-0.1-0.6,0-0.9-0.2c0.1-0.2,0.4-0.1,0.6-0.4l0.1-0.2c0-0.2-0.1-0.5-0.2-0.5c-0.1-0.1-0.2-0.2-0.4-0.3v-0.2
			c1-0.3,2.4,0,3.6-0.2l0.5,0.3c-0.2,0.2-0.6,0.2-0.6,0.5c0,0.3,0,0.6,0.2,0.7c0.1,0.1,0.4,0.2,0.2,0.5H402.8L402.8,517.5z
			 M393.7,517.5l-0.2-0.2c0-0.2,0.2-0.2,0.4-0.2c0.1-0.2,0.2-0.2,0.3-0.5c0-0.2,0-0.4-0.2-0.6c0-0.2,0.1-0.4,0.2-0.5l2.9-0.1
			l0.4,0.3c0,0.2-0.2,0.2-0.4,0.2l-0.2,0.4c0,0.2,0,0.4,0.2,0.5c0.1,0.2,0.2,0.1,0.4,0.3l-0.2,0.2H393.7L393.7,517.5z"/>
		<path class="st4" d="M419.8,561.5c-1.8-10.5-1.6-21.4-1-32.2l0.2-0.1h0.1c1.2,0.6,1.4,2.3,2,3.7c1.6,6.8,2,13.8,1.4,20.8
			c-0.3,2.6-0.8,5.3-2,7.2c-0.1,0.2-0.2,0.5-0.5,0.6L419.8,561.5L419.8,561.5z"/>
		<path class="st6" d="M551.4,584.9c-6.2,0.4-13.3-0.6-16.5-6.2l-1.2-2c1.7,0,4.4-1,5.4,0.9l2.6,2.4l1.4-0.6c-0.1-1.2-1.5-1.7-2-2.7
			l5.6,0.6c0.8,1.1,1.7,2.9,3.8,2.6c0.9-1.2-0.9-2-1.5-3c1.1-0.4,4.4-1,5.4,0.4l2.6,2.4l1.7-0.4c-0.2-1.3-1.5-1.5-1.9-2.6
			c0.2-0.5,1.1-0.5,1.2-1.2l-0.2-0.8c-0.8-0.7-2.7,0.3-3-1.2l-1.1-4l1.5-0.9l-0.2-1.2l-2-0.2l-1.1-5.2l2-0.4l0.2-1.2
			c-0.5-0.6-1.7-0.3-2.4-0.4l-0.8-5.5c0.6-0.7,1.5,0.2,2.1-0.7c0.2-0.5,0.2-1.2-0.2-1.5l-2-0.2l-0.4-6.7c1.1-0.3,3.3-0.1,2.7-2
			c-0.5-0.5-1.6,0-2.4-0.4l0.3-5.8c0.7,0.1,1.8-0.2,2.2-0.9l-0.5-1.1h-1.7c-0.9-1.5,0.2-3.7,0-5.5c0.6-0.8,2.1,0.4,2.6-1
			c0-1.5-1.3-1.1-2-1.5l0.7-5c1-0.7,2.1,0.2,3-0.9l0.1-1.2c-0.4-0.8-2,0.4-2.4-0.8l2-4.4l2.8-0.3l0.3-1.6c-0.4-0.5-1.3,0-2-0.2
			l0.8-2.3c-0.2-0.7-1.1-0.9-1.9-0.5l-2.3,2.9l-4.5-0.4l0.9-1.5l-0.2-0.8c-0.3-0.5-1.6-0.5-1.8,0.1l-2.7,2.7h-3.9l0.6-2.8
			c-0.3-0.5-1.4-0.5-2,0.2l-2,2.6h-4c0.4-2.8,2.8-4.8,5.1-6.4c7-2.4,15.3-1.5,23-0.5c0.3,0.6,1.3,1.3,2.5,1.6l-0.3,0.3
			c7.1,7.7,10.1,20.2,10.8,31.6c0,14.3,0.9,31.8-9.1,42.6c-3.4,2.8-8.8,2.3-13.4,2.3H551.4L551.4,584.9z"/>
		<path class="st6" d="M532.5,574.4l-1.7-4.4c1.2-1,3,0,4.7-0.4l1.6,4.4C535.8,574.9,534,574,532.5,574.4L532.5,574.4z"/>
		<path class="st6" d="M539.9,574.4l-2.1-4.5c1.8-0.5,3.5,0,5.3-0.3l1.8,4.5c-1.4,0.6-2.9,0-4.5,0.3H539.9L539.9,574.4z"/>
		<path class="st6" d="M547.5,574.4l-1.7-4.4c1.4-1,3.4,0,5.2-0.4c0.9,1.2,1,2.9,1.9,4.5c-1.3,0.6-3.4,0-5.1,0.3H547.5L547.5,574.4z
			"/>
		<path class="st7" d="M562.7,572.4l-0.8-0.5c1.6-0.3,2.8-1.8,3.6-3.2c4.2-15.2,4.2-32.1-1.8-46.8c-0.5-1.1-1.9-2.3-3.4-1.9l0.1-0.6
			c0.6-0.7,2.3-0.7,3.2-0.2c7,11.7,6.4,27.7,5.1,41.1c-1.1,4-0.9,10.8-5.6,12H562.7L562.7,572.4z"/>
		<polygon class="st6" points="537.4,567.6 536.5,562.4 541.8,562.4 542.6,567.4 537.4,567.6 		"/>
		<path class="st6" d="M530,567.4l-1.1-4.7c1.6-0.6,3.2,0,4.9-0.3l1.1,4.6c-1.2,0.9-3,0.2-4.5,0.4H530L530,567.4z"/>
		<path class="st6" d="M545.1,567.4l-1.1-4.7c1.8-0.6,3.5,0,5.3-0.3l1,5H545.1L545.1,567.4z"/>
		<path class="st6" d="M528.5,560.3l-0.5-5.7h4.8c0.8,1.4,0.4,3.5,0.8,5.3C532.3,560.7,530.3,560,528.5,560.3L528.5,560.3z"/>
		<path class="st6" d="M535.8,560.3l-0.5-5.5c1.8-0.5,3.6,0,5.5-0.2l0.6,5.4L535.8,560.3L535.8,560.3z"/>
		<polygon class="st6" points="543.8,560.3 543.1,554.8 548.5,554.6 549.1,560.3 543.8,560.3 		"/>
		<path class="st7" d="M560.2,560.3l-1.2-23.2l0.4-6.4c4.1,5.6,3.3,14.6,3.3,21.7L560.2,560.3L560.2,560.3z"/>
		<path class="st6" d="M527.6,552.3l-0.1-6.7l5-0.2l0.4,6.4C531.5,552.8,529.5,551.9,527.6,552.3L527.6,552.3z"/>
		<path class="st6" d="M535.1,552.3l-0.2-6.4c1.5-1,3.5,0,5.5-0.4l0.2,6.4c-1.5,0.9-3.5,0-5.2,0.4H535.1L535.1,552.3z"/>
		<path class="st6" d="M542.9,552.3l-0.3-6.4c1.6-0.8,3.8-0.2,5.6-0.4l0.2,6.7L542.9,552.3L542.9,552.3z"/>
		<path class="st6" d="M527.5,543.5l0.1-5.5c1.5-0.5,3.4,0,5.1-0.2v5.5L527.5,543.5L527.5,543.5z"/>
		<path class="st6" d="M534.9,543.4v-5.3c1.5-0.7,3.5-0.4,5.3-0.5c0.9,1.6,0,3.7,0.2,5.6L534.9,543.4L534.9,543.4z"/>
		<path class="st6" d="M542.6,543.4l0.2-5.3c1.5-0.9,3.6,0,5.5-0.4c0.2,2-0.7,4.1,0.3,5c-1.5,1.3-3.4,0.4-5.4,0.7H542.6L542.6,543.4
			z"/>
		<path class="st6" d="M529.6,535.6l-1.7-0.2l0.3-5.3c1.5-0.5,3.2,0,4.9-0.2l-0.4,5.5L529.6,535.6L529.6,535.6z"/>
		<polygon class="st6" points="535.1,535.6 535.8,529.9 541.1,529.9 540.6,535.5 535.1,535.6 		"/>
		<path class="st6" d="M542.9,535.5l0.4-5.2c1.5-0.8,3.8-0.2,5.6-0.4l-0.3,5.2c-1.5,0.9-3.5,0.2-5.3,0.4H542.9L542.9,535.5z"/>
		<polygon class="st6" points="528.8,527.8 529.8,522.5 534.5,522.3 533.4,527.8 528.8,527.8 		"/>
		<polygon class="st6" points="538.8,527.8 536,527.6 536.9,522.5 542.4,522.3 541.4,527.6 538.8,527.8 		"/>
		<path class="st6" d="M544.1,527.8c-0.6-1.3,0.4-3.4,0.5-5.1c1.5-0.8,3.5-0.1,5.3-0.4l-0.7,5.3L544.1,527.8L544.1,527.8z"/>
		<path class="st6" d="M530.4,520.3l1.7-4.9h4.4l-1.2,4.5c-1.2,0.8-2.9,0.1-4.5,0.4H530.4L530.4,520.3z"/>
		<polygon class="st6" points="545.4,520.3 547.1,515.4 552.2,515.4 550.8,520.2 545.4,520.3 		"/>
		<path class="st6" d="M537.6,520.2l1.3-4.4c1.5-1,3.5,0,5.5-0.4l-1.6,4.7H537.6L537.6,520.2z"/>
		<polygon class="st5" points="415.1,776.3 415.1,753.2 406.5,753.2 406.5,748.5 429.6,748.5 429.6,753.2 421,753.2 421,776.3 
			415.1,776.3 		"/>
		<path class="st5" d="M433.4,776.3v-27.8h12.3c3.1,0,5.4,0.3,6.8,0.8c1.4,0.5,2.5,1.4,3.4,2.7c0.8,1.3,1.3,2.7,1.3,4.4
			c0,2.1-0.6,3.8-1.9,5.2c-1.3,1.4-3.2,2.2-5.7,2.6c1.3,0.7,2.3,1.5,3.1,2.3c0.8,0.8,1.9,2.4,3.3,4.5l3.5,5.4h-7l-4.2-6.1
			c-1.5-2.2-2.5-3.5-3.1-4.1c-0.6-0.6-1.1-0.9-1.8-1.2c-0.6-0.2-1.6-0.3-3-0.3h-1.2v11.6H433.4L433.4,776.3z M439.3,760.3h4.3
			c2.8,0,4.6-0.1,5.3-0.3c0.7-0.2,1.2-0.6,1.6-1.2c0.4-0.6,0.6-1.3,0.6-2.1c0-0.9-0.3-1.7-0.8-2.3c-0.5-0.6-1.3-0.9-2.2-1.1
			c-0.5-0.1-1.9-0.1-4.3-0.1h-4.6V760.3L439.3,760.3z"/>
		<path class="st5" d="M488.8,776.3h-6.4l-2.5-6.3h-11.6l-2.4,6.3h-6.2l11.3-27.8h6.2L488.8,776.3L488.8,776.3z M478,765.3l-4-10.3
			l-3.9,10.3H478L478,765.3z"/>
		<polygon class="st5" points="491.9,776.3 491.9,748.5 511.8,748.5 511.8,753.2 497.8,753.2 497.8,759.8 509.9,759.8 509.9,764.5 
			497.8,764.5 497.8,776.3 491.9,776.3 		"/>
		<path class="st5" d="M515.5,762.6c0-2.8,0.4-5.2,1.3-7.1c0.7-1.4,1.6-2.7,2.7-3.8c1.1-1.1,2.4-2,3.7-2.5c1.8-0.7,3.9-1.1,6.3-1.1
			c4.3,0,7.7,1.3,10.3,3.8c2.6,2.5,3.9,6.1,3.9,10.6c0,4.5-1.3,8-3.8,10.5c-2.5,2.5-6,3.8-10.2,3.8c-4.3,0-7.7-1.3-10.3-3.8
			C516.8,770.5,515.5,767,515.5,762.6L515.5,762.6z M521.5,762.4c0,3.1,0.8,5.5,2.3,7.2c1.5,1.6,3.4,2.4,5.8,2.4
			c2.3,0,4.2-0.8,5.7-2.4c1.5-1.6,2.2-4,2.2-7.3c0-3.2-0.7-5.6-2.2-7.1c-1.5-1.6-3.4-2.3-5.8-2.3c-2.4,0-4.4,0.8-5.8,2.4
			C522.3,756.8,521.5,759.2,521.5,762.4L521.5,762.4z"/>
		<polygon class="st5" points="548,776.3 548,748.5 553.9,748.5 553.9,776.3 548,776.3 		"/>
	</g>
</g>
</svg>
