<?xml version="1.0" encoding="utf-8"?>
<!-- Generator: Adobe Illustrator 19.2.0, SVG Export Plug-In . SVG Version: 6.00 Build 0)  -->
<svg version="1.1" id="Livello_1" xmlns="http://www.w3.org/2000/svg" xmlns:xlink="http://www.w3.org/1999/xlink" x="0px" y="0px"
	 viewBox="0 0 960 960" style="enable-background:new 0 0 960 960;" xml:space="preserve">
<style type="text/css">
	.st0{opacity:1.000000e-002;fill:#FFFFFF;}
	.st1{fill-rule:evenodd;clip-rule:evenodd;fill:#005EA7;stroke:#005EA7;stroke-width:0.6187;stroke-miterlimit:2.6131;}
	.st2{fill-rule:evenodd;clip-rule:evenodd;fill:#005EA7;stroke:#FFFFFF;stroke-width:4.1249;stroke-miterlimit:2.6131;}
	.st3{fill-rule:evenodd;clip-rule:evenodd;fill:#FFFFFF;stroke:#FFFFFF;stroke-width:0.6187;stroke-miterlimit:2.6131;}
	.st4{fill-rule:evenodd;clip-rule:evenodd;fill:#FFFFFF;stroke:#1A171B;stroke-width:0.6187;stroke-miterlimit:2.6131;}
	.st5{fill-rule:evenodd;clip-rule:evenodd;fill:#E1001A;}
	.st6{fill-rule:evenodd;clip-rule:evenodd;fill:#FFFFFF;}
	.st7{fill-rule:evenodd;clip-rule:evenodd;fill:#008E43;}
	.st8{fill-rule:evenodd;clip-rule:evenodd;fill:#FFFFFF;stroke:#1A171B;stroke-width:0.2062;stroke-miterlimit:2.6131;}
	.st9{fill-rule:evenodd;clip-rule:evenodd;fill:#1A171B;}
	.st10{fill-rule:evenodd;clip-rule:evenodd;fill:#005EA7;}
	.st11{fill-rule:evenodd;clip-rule:evenodd;fill:#E1001A;stroke:#E1001A;stroke-width:0.6187;stroke-miterlimit:2.6131;}
</style>
<rect class="st0" width="1" height="1"/>
<rect x="959" y="959" class="st0" width="1" height="1"/>
<g>
	<g>
		<polygon class="st1" points="267.3,120 692.7,120 692.7,840 267.3,840 267.3,120 		"/>
		<path class="st2" d="M300.1,128.9h360.7c13.8,0,24.7,11.6,24.7,24.7v653.6c0,13.4-11.3,24.8-24.7,24.8H300.1
			c-13.2,0-24.7-10.9-24.7-24.8V153.6C275.3,140,286.4,128.9,300.1,128.9L300.1,128.9z"/>
		<polygon class="st3" points="308.5,682 650.9,682 650.9,787.2 308.5,787.2 308.5,682 		"/>
		<polygon class="st3" points="308.5,244.6 650.9,244.6 650.9,349.8 308.5,349.8 308.5,244.6 		"/>
		<polygon class="st3" points="308.5,390.4 650.9,390.4 650.9,495.6 308.5,495.6 308.5,390.4 		"/>
		<polygon class="st3" points="308.5,536.2 650.9,536.2 650.9,641.4 308.5,641.4 308.5,536.2 		"/>
		<path class="st4" d="M381.8,255.6c13.5,2.4,22.2,7.3,30.5,18.4c4.7,7.5,6.9,14.5,7.2,23.4c-0.6,17.6-9.7,31.1-25.6,38.5
			c-17.9,7.4-36,2.3-48.7-11.9c-8-10.5-11-22-8.7-35.1c2.7-10.1,6.6-16.8,14.4-23.8c8.3-6.2,16.1-9.3,26.6-9.6L381.8,255.6
			L381.8,255.6z"/>
		<path class="st5" d="M377.8,258.9c20.9,0,38,17.1,38,38c0,20.9-17.1,38-38,38c-20.9,0-38-17.1-38-38
			C339.8,276,356.9,258.9,377.8,258.9L377.8,258.9z"/>
		<path class="st6" d="M377.8,268.6c15.6,0,28.3,12.7,28.3,28.3c0,15.6-12.7,28.3-28.3,28.3c-15.6,0-28.3-12.7-28.3-28.3
			C349.5,281.3,362.2,268.6,377.8,268.6L377.8,268.6z"/>
		<path class="st4" d="M381.8,693c13.5,2.4,22.2,7.3,30.5,18.4c4.7,7.5,6.9,14.5,7.2,23.4c-0.6,17.6-9.7,31.1-25.6,38.5
			c-17.9,7.4-36,2.3-48.7-11.9c-8-10.5-11-22-8.7-35.1c2.7-10.1,6.6-16.8,14.4-23.8c8.3-6.2,16.1-9.3,26.6-9.6L381.8,693L381.8,693z
			"/>
		<path class="st5" d="M377.8,696.4c20.9,0,38,17.1,38,38c0,20.9-17.1,38-38,38c-20.9,0-38-17.1-38-38
			C339.8,713.4,356.9,696.4,377.8,696.4L377.8,696.4z"/>
		<path class="st6" d="M377.8,706.1c15.6,0,28.3,12.7,28.3,28.3c0,15.6-12.7,28.3-28.3,28.3c-15.6,0-28.3-12.7-28.3-28.3
			C349.5,718.8,362.2,706.1,377.8,706.1L377.8,706.1z"/>
		<path class="st4" d="M381.8,547c13.5,2.4,22.2,7.3,30.5,18.4c4.7,7.5,6.9,14.5,7.2,23.4c-0.6,17.6-9.7,31.1-25.6,38.5
			c-17.9,7.4-36,2.3-48.7-11.9c-8-10.5-11-22-8.7-35.1c2.7-10.1,6.6-16.8,14.4-23.8c8.3-6.2,16.1-9.3,26.6-9.6L381.8,547L381.8,547z
			"/>
		<path class="st5" d="M377.8,550.3c20.9,0,38,17.1,38,38c0,20.9-17.1,38-38,38c-20.9,0-38-17.1-38-38
			C339.8,567.4,356.9,550.3,377.8,550.3L377.8,550.3z"/>
		<path class="st6" d="M377.8,560.1c15.6,0,28.3,12.7,28.3,28.3c0,15.6-12.7,28.3-28.3,28.3c-15.6,0-28.3-12.7-28.3-28.3
			C349.5,572.8,362.2,560.1,377.8,560.1L377.8,560.1z"/>
		<path class="st4" d="M381.8,401.4c13.5,2.4,22.2,7.3,30.5,18.4c4.7,7.5,6.9,14.5,7.2,23.4c-0.6,17.6-9.7,31.1-25.6,38.5
			c-17.9,7.4-36,2.3-48.7-11.9c-8-10.5-11-22-8.7-35.1c2.7-10.1,6.6-16.8,14.4-23.8c8.3-6.2,16.1-9.3,26.6-9.6L381.8,401.4
			L381.8,401.4z"/>
		<path class="st5" d="M377.8,404.7c20.9,0,38,17.1,38,38s-17.1,38-38,38c-20.9,0-38-17.1-38-38S356.9,404.7,377.8,404.7
			L377.8,404.7z"/>
		<path class="st6" d="M377.8,414.5c15.6,0,28.3,12.7,28.3,28.3c0,15.6-12.7,28.3-28.3,28.3c-15.6,0-28.3-12.7-28.3-28.3
			C349.5,427.2,362.2,414.5,377.8,414.5L377.8,414.5z"/>
		<polygon class="st6" points="625.3,170.9 601.9,170.9 601.9,213.4 625.3,213.4 625.3,170.9 		"/>
		<polygon class="st5" points="648.7,170.9 625.3,170.9 625.3,213.4 648.7,213.4 648.7,170.9 		"/>
		<polygon class="st7" points="601.9,170.9 578.5,170.9 578.5,213.4 601.9,213.4 601.9,170.9 		"/>
		<polygon class="st6" points="397.4,203.7 397.4,162.3 405.8,162.3 405.8,203.7 397.4,203.7 		"/>
		<polygon class="st6" points="423.1,203.7 423.1,169.3 410.8,169.3 410.8,162.3 443.7,162.3 443.7,169.3 431.5,169.3 431.5,203.7 
			423.1,203.7 		"/>
		<path class="st6" d="M482.2,203.7h-9.1l-3.6-9.4h-16.6l-3.4,9.4h-8.9l16.1-41.4h8.8L482.2,203.7L482.2,203.7z M466.8,187.3
			l-5.7-15.4l-5.6,15.4H466.8L466.8,187.3z"/>
		<polygon class="st6" points="486.9,203.7 486.9,162.6 495.2,162.6 495.2,196.8 516,196.8 516,203.7 486.9,203.7 		"/>
		<polygon class="st6" points="521.8,203.7 521.8,162.3 530.1,162.3 530.1,203.7 521.8,203.7 		"/>
		<path class="st6" d="M575.5,203.7h-9.1l-3.6-9.4h-16.6l-3.4,9.4h-8.9l16.1-41.4h8.8L575.5,203.7L575.5,203.7z M560.1,187.3
			l-5.7-15.4l-5.6,15.4H560.1L560.1,187.3z"/>
		<path class="st8" d="M345.8,203.7c19.8,0,35.9-9.7,35.9-21.5c0-11.9-16.1-21.5-35.9-21.5c-19.8,0-35.9,9.7-35.9,21.5
			C309.9,194.1,326,203.7,345.8,203.7L345.8,203.7z"/>
		<path class="st4" d="M349.2,199.2c9.7-0.9,32.9-7,26.9-21.3c-9.3-14.5-34.3-14.7-48.7-9.3c-11.2,4.9-18.8,14.3-6.7,23.6
			C329.5,197.9,338.8,199.5,349.2,199.2L349.2,199.2z"/>
		<path class="st9" d="M354.5,193.8v0.6h-16.9v-0.6h1.1c0.9,0,1.7-0.1,2.3-0.4c0.4-0.2,0.7-0.4,1-0.8c0.2-0.3,0.3-1,0.3-2.2v-15.7
			c0-1.2-0.1-2-0.3-2.3c-0.2-0.3-0.5-0.6-1.1-0.8c-0.5-0.2-1.3-0.3-2.2-0.3h-1.1v-0.7h16.9v0.7h-1.1c-0.9,0-1.7,0.1-2.3,0.4
			c-0.4,0.2-0.7,0.4-1,0.8c-0.2,0.3-0.3,1-0.3,2.2v15.7c0,1.2,0.1,2,0.3,2.3c0.2,0.3,0.5,0.6,1.1,0.8c0.5,0.2,1.3,0.3,2.2,0.3H354.5
			L354.5,193.8z"/>
		<path class="st10" d="M513.9,624.3h48c6.4,0,11.7-5.3,11.7-11.7v-48c0-6.4-5.3-11.7-11.7-11.7h-48c-6.4,0-11.7,5.3-11.7,11.7v48
			C502.2,619,507.4,624.3,513.9,624.3L513.9,624.3z"/>
		<path class="st7" d="M515.3,770.5h48c6.4,0,11.7-5.3,11.7-11.7v-48c0-6.4-5.3-11.7-11.7-11.7h-48c-6.4,0-11.7,5.3-11.7,11.7v48
			C503.6,765.2,508.9,770.5,515.3,770.5L515.3,770.5z"/>
		<polygon class="st9" points="581.9,431.9 581.9,421.4 589.2,421.4 589.2,431.9 593.6,431.9 593.6,439.2 604.2,448.8 608.1,448.8 
			608.1,453.6 614.4,453.6 614.4,441.4 620.2,441.4 620.2,453.6 624.6,453.6 624.6,479.2 453.9,479.2 453.9,471.3 453.9,453.6 
			453.9,446.6 458.8,446.6 458.8,453.6 463.1,453.6 463.1,441.8 469.9,441.8 469.9,444.9 472.8,444.9 472.8,448.3 475.7,448.3 
			475.7,439.2 478.7,439.2 478.7,431.9 483.5,431.9 483.5,423.6 490.3,423.6 490.3,431.9 490.3,443.1 492.7,443.1 492.7,448.3 
			499.5,448.3 501.4,444.9 508.2,443.1 510.7,443.1 510.7,435.3 512.6,435.3 512.6,423.2 517,423.2 517,417.5 523.3,417.5 
			523.3,424.9 528.1,425.8 528.1,412.3 533.9,412.8 533.9,435.8 537.3,435.8 537.3,444 542.2,437.5 543.1,437.5 543.1,419.7 
			549.4,419.7 549.4,437.5 549.9,437.5 549.9,448.8 554.3,448.8 554.3,441.8 559.6,441.8 559.6,448.8 564,448.8 564,428 573.2,428 
			573.2,431.9 581.9,431.9 		"/>
		<polygon class="st9" points="581.9,285.2 581.9,274.8 589.2,274.8 589.2,285.2 593.6,285.2 593.6,292.6 604.2,302.1 608.1,302.1 
			608.1,306.9 614.4,306.9 614.4,294.8 620.2,294.8 620.2,306.9 624.6,306.9 624.6,332.5 453.9,332.5 453.9,324.7 453.9,306.9 
			453.9,300 458.8,300 458.8,306.9 463.1,306.9 463.1,295.2 469.9,295.2 469.9,298.2 472.8,298.2 472.8,301.7 475.7,301.7 
			475.7,292.6 478.7,292.6 478.7,285.2 483.5,285.2 483.5,277 490.3,277 490.3,285.2 490.3,296.5 492.7,296.5 492.7,301.7 
			499.5,301.7 501.4,298.2 508.2,296.5 510.7,296.5 510.7,288.7 512.6,288.7 512.6,276.5 517,276.5 517,270.9 523.3,270.9 
			523.3,278.3 528.1,279.1 528.1,265.7 533.9,266.1 533.9,289.1 537.3,289.1 537.3,297.4 542.2,290.9 543.1,290.9 543.1,273.1 
			549.4,273.1 549.4,290.9 549.9,290.9 549.9,302.1 554.3,302.1 554.3,295.2 559.6,295.2 559.6,302.1 564,302.1 564,281.3 
			573.2,281.3 573.2,285.2 581.9,285.2 		"/>
		<polygon class="st11" points="584.8,410.6 615.5,410.6 493.7,489.4 463.3,489.4 584.8,410.6 		"/>
		<path class="st9" d="M365.8,749.3H362v-21c-1.4,1.9-3,3.3-4.9,4.2v-5c1-0.5,2.1-1.4,3.2-2.7c1.2-1.3,2-2.9,2.4-4.6h3.1V749.3
			L365.8,749.3z"/>
		<path class="st9" d="M371.4,741.5l3.7-0.6c0.1,1.4,0.4,2.4,1,3.1c0.5,0.7,1.1,1.1,1.9,1.1c0.8,0,1.4-0.4,2-1.3
			c0.5-0.9,0.8-2,0.8-3.5c0-1.4-0.3-2.5-0.8-3.3c-0.5-0.8-1.1-1.2-1.9-1.2c-0.5,0-1.1,0.1-1.7,0.4l0.4-4.5c1,0,1.8-0.3,2.4-1
			c0.5-0.7,0.8-1.6,0.8-2.8c0-1-0.2-1.8-0.6-2.3c-0.4-0.6-0.9-0.9-1.6-0.9c-0.7,0-1.2,0.3-1.7,1c-0.5,0.7-0.7,1.6-0.8,2.9l-3.5-0.9
			c0.2-1.8,0.6-3.2,1.1-4.2c0.5-1,1.2-1.9,2.1-2.5c0.9-0.6,1.9-0.9,3-0.9c1.9,0,3.4,0.9,4.5,2.6c0.9,1.4,1.4,3,1.4,4.8
			c0,2.5-1,4.6-2.9,6.1c1.1,0.4,2,1.2,2.7,2.4c0.7,1.2,1,2.7,1,4.5c0,2.5-0.6,4.7-1.9,6.5c-1.3,1.8-2.9,2.7-4.7,2.7
			c-1.8,0-3.3-0.8-4.5-2.3C372.2,746,371.5,744,371.4,741.5L371.4,741.5z"/>
		<path class="st9" d="M393.3,720.1c1.9,0,3.4,1,4.5,3c1.3,2.4,1.9,6.3,1.9,11.8c0,5.5-0.7,9.4-1.9,11.8c-1.1,2-2.6,3-4.5,3
			c-1.9,0-3.5-1.1-4.7-3.3c-1.2-2.2-1.8-6-1.8-11.6c0-5.5,0.7-9.4,1.9-11.8C389.9,721.1,391.4,720.1,393.3,720.1L393.3,720.1z
			 M393.3,724.7c-0.5,0-0.9,0.2-1.2,0.6c-0.4,0.4-0.6,1.2-0.8,2.3c-0.3,1.4-0.4,3.9-0.4,7.3c0,3.4,0.1,5.7,0.4,7
			c0.2,1.3,0.5,2.1,0.9,2.5c0.4,0.4,0.8,0.6,1.2,0.6c0.5,0,0.9-0.2,1.2-0.6c0.4-0.4,0.6-1.2,0.8-2.3c0.3-1.4,0.4-3.8,0.4-7.2
			c0-3.4-0.1-5.7-0.4-7c-0.2-1.3-0.5-2.1-0.9-2.6C394.2,724.9,393.8,724.7,393.3,724.7L393.3,724.7z"/>
		<path class="st9" d="M366.4,603.2h-3.8v-21c-1.4,1.9-3,3.3-4.9,4.2v-5c1-0.5,2.1-1.4,3.2-2.7c1.2-1.3,2-2.9,2.4-4.6h3.1V603.2
			L366.4,603.2z"/>
		<path class="st9" d="M380.3,603.2h-3.8v-21c-1.4,1.9-3,3.3-4.9,4.2v-5c1-0.5,2.1-1.4,3.2-2.7c1.2-1.3,2-2.9,2.4-4.6h3.1V603.2
			L380.3,603.2z"/>
		<path class="st9" d="M392.4,574.1c1.9,0,3.4,1,4.5,3c1.3,2.4,1.9,6.3,1.9,11.8c0,5.5-0.7,9.4-1.9,11.8c-1.1,2-2.6,3-4.5,3
			c-1.9,0-3.5-1.1-4.7-3.3c-1.2-2.2-1.8-6-1.8-11.6c0-5.5,0.6-9.4,1.9-11.8C389,575.1,390.5,574.1,392.4,574.1L392.4,574.1z
			 M392.4,578.7c-0.5,0-0.9,0.2-1.2,0.6c-0.4,0.4-0.6,1.2-0.8,2.3c-0.3,1.4-0.4,3.9-0.4,7.3c0,3.4,0.1,5.7,0.4,7
			c0.2,1.3,0.5,2.1,0.9,2.5c0.4,0.4,0.8,0.6,1.2,0.6c0.5,0,0.9-0.2,1.2-0.6c0.4-0.4,0.6-1.2,0.8-2.3c0.3-1.4,0.4-3.8,0.4-7.2
			c0-3.4-0.1-5.7-0.4-7c-0.2-1.3-0.5-2.1-0.9-2.6C393.3,578.9,392.9,578.7,392.4,578.7L392.4,578.7z"/>
		<path class="st9" d="M362.3,451.1l4-0.6c0.1,1.1,0.4,1.9,0.8,2.4c0.4,0.5,1,0.8,1.6,0.8c0.9,0,1.6-0.5,2.2-1.6
			c0.6-1.1,1-3.2,1.2-6.6c-1,1.6-2.3,2.4-3.9,2.4c-1.7,0-3.2-0.9-4.4-2.6c-1.2-1.8-1.9-4.1-1.9-6.9c0-2.9,0.7-5.3,2-7.1
			c1.3-1.8,3-2.7,5-2.7c2.2,0,4,1.1,5.4,3.4c1.4,2.3,2.1,6,2.1,11.2c0,5.3-0.7,9.1-2.2,11.5c-1.5,2.3-3.4,3.5-5.7,3.5
			c-1.7,0-3.1-0.6-4.1-1.8C363.2,455.3,362.6,453.5,362.3,451.1L362.3,451.1z M371.6,439c0-1.8-0.3-3.2-0.9-4.2
			c-0.6-1-1.3-1.5-2.1-1.5c-0.8,0-1.4,0.4-1.9,1.2c-0.5,0.8-0.8,2.1-0.8,4c0,1.9,0.3,3.3,0.8,4.1c0.5,0.9,1.2,1.3,2.1,1.3
			c0.8,0,1.5-0.4,2-1.3C371.4,441.8,371.6,440.6,371.6,439L371.6,439z"/>
		<path class="st9" d="M386,428.7c2.1,0,3.7,1,4.9,3c1.4,2.4,2.1,6.3,2.1,11.8c0,5.5-0.7,9.4-2.1,11.8c-1.2,2-2.8,3-4.9,3
			c-2.1,0-3.8-1.1-5.1-3.3c-1.3-2.2-1.9-6-1.9-11.6c0-5.5,0.7-9.4,2.1-11.8C382.3,429.7,383.9,428.7,386,428.7L386,428.7z
			 M386,433.3c-0.5,0-0.9,0.2-1.3,0.6c-0.4,0.4-0.7,1.2-0.9,2.3c-0.3,1.4-0.4,3.9-0.4,7.3c0,3.4,0.1,5.7,0.4,7
			c0.3,1.3,0.6,2.1,1,2.5c0.4,0.4,0.8,0.6,1.3,0.6c0.5,0,1-0.2,1.3-0.6c0.4-0.4,0.7-1.2,0.9-2.3c0.3-1.4,0.4-3.8,0.4-7.2
			c0-3.4-0.1-5.7-0.4-7c-0.3-1.3-0.6-2.1-1-2.6C386.9,433.5,386.5,433.3,386,433.3L386,433.3z"/>
		<path class="st9" d="M362.9,304.5l4.1-0.6c0.1,1.3,0.5,2.2,1,3c0.6,0.7,1.2,1.1,2,1.1c0.9,0,1.6-0.5,2.2-1.4
			c0.6-0.9,0.9-2.4,0.9-4.3c0-1.8-0.3-3.1-0.9-4c-0.6-0.9-1.4-1.3-2.3-1.3c-1.2,0-2.3,0.7-3.2,2.1l-3.4-0.7l2.1-15.1h11v5.2h-7.8
			l-0.7,4.9c0.9-0.6,1.9-0.9,2.8-0.9c1.8,0,3.4,0.9,4.7,2.7c1.3,1.8,1.9,4.1,1.9,7c0,2.4-0.5,4.5-1.5,6.4c-1.4,2.6-3.4,3.8-5.9,3.8
			c-2,0-3.6-0.7-4.9-2.2C363.9,308.9,363.1,307,362.9,304.5L362.9,304.5z"/>
		<path class="st9" d="M386.6,282.9c2.1,0,3.7,1,4.9,3c1.4,2.4,2.1,6.3,2.1,11.8c0,5.5-0.7,9.4-2.1,11.8c-1.2,2-2.8,3-4.9,3
			c-2.1,0-3.8-1.1-5.1-3.3c-1.3-2.2-1.9-6-1.9-11.6c0-5.5,0.7-9.4,2.1-11.8C382.9,283.9,384.5,282.9,386.6,282.9L386.6,282.9z
			 M386.6,287.5c-0.5,0-0.9,0.2-1.3,0.6c-0.4,0.4-0.7,1.2-0.9,2.3c-0.3,1.4-0.4,3.9-0.4,7.3c0,3.4,0.1,5.7,0.4,7
			c0.3,1.3,0.6,2.1,1,2.5c0.4,0.4,0.8,0.6,1.3,0.6c0.5,0,1-0.2,1.3-0.6c0.4-0.4,0.7-1.2,0.9-2.3c0.3-1.4,0.4-3.8,0.4-7.2
			c0-3.4-0.1-5.7-0.4-7c-0.3-1.3-0.6-2.1-1-2.6C387.5,287.7,387.1,287.5,386.6,287.5L386.6,287.5z"/>
		<polygon class="st6" points="515.4,583.4 515.4,580.1 509.1,580.1 509.1,577.6 567.6,577.6 567.5,580.1 560.8,580.1 560.9,583.4 
			558.2,583.4 556.8,580.1 519.4,580.1 518.1,583.4 515.4,583.4 		"/>
		<path class="st6" d="M535.9,575.6H525l5.8-15.7h6L535.9,575.6L535.9,575.6z M522.2,583.3h13.3l-1.7,33.2h-23.7L522.2,583.3
			L522.2,583.3z"/>
		<path class="st6" d="M551.2,575.6h-10.9l-0.8-15.7h6L551.2,575.6L551.2,575.6z M540.7,583.3H554l12.1,33.2h-23.7L540.7,583.3
			L540.7,583.3z"/>
		<polygon class="st6" points="515.4,729.8 515.4,726.6 509.1,726.6 509.1,724 567.6,724 567.5,726.6 560.8,726.6 560.9,729.8 
			558.2,729.8 556.8,726.6 519.4,726.6 518.1,729.8 515.4,729.8 		"/>
		<path class="st6" d="M535.9,722H525l5.8-15.7h6L535.9,722L535.9,722z M522.2,729.7h13.3l-1.7,33.2h-23.7L522.2,729.7L522.2,729.7z
			"/>
		<path class="st6" d="M551.2,722h-10.9l-0.8-15.7h6L551.2,722L551.2,722z M540.7,729.7H554l12.1,33.2h-23.7L540.7,729.7
			L540.7,729.7z"/>
	</g>
</g>
</svg>
