<?xml version="1.0" encoding="utf-8"?>
<!-- Generator: Adobe Illustrator 19.2.0, SVG Export Plug-In . SVG Version: 6.00 Build 0)  -->
<svg version="1.1" id="Livello_1" xmlns="http://www.w3.org/2000/svg" xmlns:xlink="http://www.w3.org/1999/xlink" x="0px" y="0px"
	 viewBox="0 0 960 960" style="enable-background:new 0 0 960 960;" xml:space="preserve">
<style type="text/css">
	.st0{fill-rule:evenodd;clip-rule:evenodd;fill:#005EA7;stroke:#FFFFFF;stroke-width:0.8114;stroke-miterlimit:2.6131;}
	.st1{fill-rule:evenodd;clip-rule:evenodd;fill:#FFFFFF;stroke:#FFFFFF;stroke-width:0.8114;stroke-miterlimit:2.6131;}
	.st2{fill-rule:evenodd;clip-rule:evenodd;fill:#005EA7;}
	.st3{fill-rule:evenodd;clip-rule:evenodd;fill:#FFFFFF;}
	.st4{fill:none;stroke:#FFFFFF;stroke-width:5.4093;stroke-miterlimit:2.6131;}
	.st5{fill-rule:evenodd;clip-rule:evenodd;fill:#1A171B;}
</style>
<g>
	<g>
		<path class="st0" d="M737.4,498.9c11.2,0.4,22.1,1.9,31.6,8.6l135.2,74.3c14.6,8.8,14,19.5,0.4,29.4l-135.9,76.4
			c-8.6,4.3-17.6,7.9-27.3,8.4H211.7V498.9H737.4L737.4,498.9z"/>
		<path class="st1" d="M220.3,507.7h516.8c10.6,0.2,20,1.9,27.6,7.1L900,589.3c8.8,5,9.2,8.5,0,14.6l-135.3,76.4
			c-8,4.3-16.1,8-27.6,7.1H220.3V507.7L220.3,507.7z"/>
		<path class="st2" d="M262.4,516.3h441.4c21.9,0,32.3,1.3,40.3,7.9l89.5,72.5l-89.5,74.6c-7.8,6.5-17.4,7.4-40.3,7.4H262.4
			c-18.1,0-33-14.9-33-33.4v-95.6C229.3,531.2,244.1,516.3,262.4,516.3L262.4,516.3z"/>
		<path class="st3" d="M355.1,560.2h15.2c3,0,5.3,0.2,6.7,0.7c1.5,0.5,2.8,1.4,4,2.9c1.2,1.5,2.1,3.5,2.9,6c0.8,2.5,1.2,5.3,1.2,8.3
			c0,3.3-0.5,6.4-1.4,9.2c-1,2.8-2.3,4.9-3.9,6.3c2.3,1.3,4.1,3.4,5.3,6.5c1.2,3.1,1.9,6.6,1.9,10.8c0,3.2-0.4,6.4-1.2,9.5
			c-0.8,3.1-1.9,5.5-3.3,7.3c-1.4,1.8-3.1,3-5.1,3.4c-1.3,0.2-4.4,0.4-9.3,0.5h-12.9V560.2L355.1,560.2z M362.8,572.1v16.5h5
			c3,0,4.8-0.1,5.6-0.2c1.3-0.3,2.3-1.1,3.1-2.5c0.8-1.4,1.1-3.3,1.1-5.6c0-2.2-0.3-4-1-5.4c-0.7-1.4-1.6-2.2-2.9-2.5
			c-0.8-0.2-2.9-0.2-6.6-0.2H362.8L362.8,572.1z M362.8,600.5v19.1h7.1c2.8,0,4.5-0.1,5.3-0.4c1.1-0.4,2.1-1.3,2.8-2.8
			c0.7-1.5,1.1-3.5,1.1-6.1c0-2.1-0.3-4-0.8-5.4c-0.6-1.5-1.4-2.6-2.4-3.3c-1-0.7-3.3-1-6.8-1H362.8L362.8,600.5z"/>
		<path class="st3" d="M391.9,596.3c0-7.3,0.6-13.4,1.7-18.3c0.9-3.6,2-6.9,3.5-9.8c1.5-2.9,3.1-5,4.9-6.4c2.4-1.9,5.1-2.8,8.2-2.8
			c5.6,0,10.1,3.3,13.4,9.8c3.4,6.5,5,15.6,5,27.2c0,11.5-1.7,20.5-5,27.1c-3.3,6.5-7.8,9.8-13.4,9.8c-5.7,0-10.1-3.2-13.5-9.7
			C393.5,616.6,391.9,607.7,391.9,596.3L391.9,596.3z M399.8,595.9c0,8.1,1,14.2,3,18.4c2,4.2,4.5,6.2,7.6,6.2
			c3.1,0,5.6-2.1,7.5-6.2c2-4.1,2.9-10.3,2.9-18.6c0-8.2-1-14.3-2.9-18.3c-1.9-4-4.4-6-7.6-6c-3.2,0-5.7,2-7.7,6.1
			C400.8,581.5,399.8,587.6,399.8,595.9L399.8,595.9z"/>
		<path class="st3" d="M434.7,631.6v-71.4h16.2c4.1,0,7,0.6,8.8,1.9c1.8,1.3,3.3,3.6,4.4,6.8c1.1,3.3,1.7,7,1.7,11.2
			c0,5.3-0.8,9.8-2.5,13.3c-1.7,3.5-4.2,5.7-7.5,6.6c1.7,1.8,3,3.8,4.1,6c1.1,2.2,2.5,6,4.4,11.6l4.6,13.9h-9.2l-5.5-15.5
			c-2-5.6-3.3-9-4-10.5c-0.7-1.4-1.5-2.4-2.3-3c-0.8-0.5-2.1-0.8-3.9-0.8h-1.5v29.8H434.7L434.7,631.6z M442.4,590.4h5.7
			c3.7,0,6-0.3,6.9-0.9c0.9-0.6,1.6-1.6,2.1-3c0.5-1.4,0.8-3.2,0.8-5.3c0-2.4-0.3-4.3-1-5.8c-0.7-1.5-1.6-2.4-2.9-2.8
			c-0.6-0.2-2.5-0.2-5.6-0.2h-6V590.4L442.4,590.4z"/>
		<path class="st3" d="M490.7,605.4v-12h16.5v28.4c-1.6,2.9-3.9,5.5-7,7.7c-3.1,2.2-6.1,3.3-9.3,3.3c-4,0-7.4-1.6-10.4-4.7
			c-3-3.1-5.2-7.6-6.7-13.4c-1.5-5.8-2.2-12.2-2.2-19c0-7.4,0.8-14,2.5-19.8c1.7-5.8,4.1-10.2,7.3-13.3c2.4-2.4,5.5-3.6,9.1-3.6
			c4.7,0,8.4,1.9,11,5.6c2.7,3.7,4.4,8.9,5.1,15.4l-7.6,2.7c-0.5-3.5-1.5-6.3-3-8.3c-1.5-2-3.3-3-5.5-3c-3.3,0-6,2-8,6
			c-2,4-3,9.9-3,17.8c0,8.5,1,14.8,3,19.1c2,4.2,4.6,6.3,7.9,6.3c1.6,0,3.2-0.6,4.8-1.8c1.6-1.2,3-2.6,4.2-4.3v-9.1H490.7
			L490.7,605.4z"/>
		<path class="st3" d="M512.8,596.3c0-7.3,0.6-13.4,1.7-18.3c0.9-3.6,2-6.9,3.5-9.8c1.5-2.9,3.1-5,4.9-6.4c2.4-1.9,5.1-2.8,8.2-2.8
			c5.6,0,10.1,3.3,13.4,9.8c3.4,6.5,5,15.6,5,27.2c0,11.5-1.7,20.5-5,27.1c-3.3,6.5-7.8,9.8-13.4,9.8c-5.7,0-10.1-3.2-13.5-9.7
			C514.4,616.6,512.8,607.7,512.8,596.3L512.8,596.3z M520.7,595.9c0,8.1,1,14.2,3,18.4c2,4.2,4.5,6.2,7.6,6.2
			c3.1,0,5.6-2.1,7.5-6.2c2-4.1,2.9-10.3,2.9-18.6c0-8.2-1-14.3-2.9-18.3c-1.9-4-4.4-6-7.6-6c-3.2,0-5.7,2-7.7,6.1
			C521.7,581.5,520.7,587.6,520.7,595.9L520.7,595.9z"/>
		<path class="st3" d="M553.7,608.4l7.5-1.4c0.4,4.7,1.4,8.2,2.7,10.4c1.4,2.2,3.2,3.3,5.6,3.3c2.5,0,4.3-1,5.6-3
			c1.3-2,1.9-4.3,1.9-6.9c0-1.7-0.3-3.1-0.8-4.3c-0.5-1.2-1.4-2.2-2.8-3.1c-0.9-0.6-2.9-1.6-6.1-3.1c-4.1-1.9-7-4.3-8.6-7.1
			c-2.3-3.9-3.5-8.7-3.5-14.4c0-3.6,0.6-7,1.6-10.2c1.1-3.2,2.7-5.6,4.7-7.2c2.1-1.6,4.6-2.5,7.5-2.5c4.8,0,8.4,2,10.8,5.9
			c2.4,3.9,3.7,9.2,3.8,15.7l-7.7,0.6c-0.3-3.7-1-6.3-2.1-7.9c-1.1-1.6-2.7-2.4-4.9-2.4c-2.2,0-4,0.8-5.2,2.6
			c-0.8,1.1-1.2,2.6-1.2,4.4c0,1.7,0.4,3.1,1.1,4.3c1,1.5,3.3,3.1,7.1,4.8c3.7,1.7,6.5,3.4,8.3,5.1c1.8,1.8,3.2,4.2,4.2,7.3
			c1,3.1,1.5,6.9,1.5,11.4c0,4.1-0.6,7.9-1.8,11.5c-1.2,3.6-2.9,6.2-5.1,8c-2.2,1.7-5,2.6-8.3,2.6c-4.8,0-8.5-2.1-11.1-6.2
			C555.7,622.4,554.2,616.4,553.7,608.4L553.7,608.4z"/>
		<path class="st3" d="M589.5,596.3c0-7.3,0.6-13.4,1.7-18.3c0.9-3.6,2-6.9,3.5-9.8c1.5-2.9,3.1-5,4.9-6.4c2.4-1.9,5.1-2.8,8.2-2.8
			c5.6,0,10.1,3.3,13.4,9.8c3.4,6.5,5,15.6,5,27.2c0,11.5-1.7,20.5-5,27.1c-3.3,6.5-7.8,9.8-13.4,9.8c-5.7,0-10.1-3.2-13.5-9.7
			C591.1,616.6,589.5,607.7,589.5,596.3L589.5,596.3z M597.4,595.9c0,8.1,1,14.2,3,18.4c2,4.2,4.5,6.2,7.6,6.2
			c3.1,0,5.6-2.1,7.5-6.2c2-4.1,2.9-10.3,2.9-18.6c0-8.2-1-14.3-2.9-18.3c-1.9-4-4.4-6-7.6-6c-3.2,0-5.7,2-7.7,6.1
			C598.3,581.5,597.4,587.6,597.4,595.9L597.4,595.9z"/>
		<polygon class="st3" points="632.5,631.6 632.5,560.8 640.2,560.8 640.2,619.6 659.3,619.6 659.3,631.6 632.5,631.6 		"/>
		<polygon class="st3" points="664.7,631.6 664.7,560.2 692.9,560.2 692.9,572.3 672.4,572.3 672.4,588.1 691.5,588.1 691.5,600.1 
			672.4,600.1 672.4,619.6 693.6,619.6 693.6,631.6 664.7,631.6 		"/>
		<path class="st3" d="M259.6,600.5l3.5-0.6c0.2,2,0.6,3.4,1.3,4.3c0.6,0.9,1.5,1.4,2.6,1.4c1.2,0,2-0.4,2.6-1.2
			c0.6-0.8,0.9-1.8,0.9-2.8c0-0.7-0.1-1.3-0.4-1.8c-0.2-0.5-0.7-0.9-1.3-1.3c-0.4-0.2-1.4-0.7-2.9-1.3c-1.9-0.8-3.3-1.8-4-2.9
			c-1.1-1.6-1.6-3.6-1.6-5.9c0-1.5,0.3-2.9,0.8-4.2c0.5-1.3,1.2-2.3,2.2-3c1-0.7,2.1-1,3.5-1c2.2,0,3.9,0.8,5,2.4
			c1.1,1.6,1.7,3.8,1.8,6.5l-3.6,0.3c-0.2-1.5-0.5-2.6-1-3.3c-0.5-0.7-1.3-1-2.3-1c-1,0-1.9,0.4-2.4,1.1c-0.4,0.5-0.6,1.1-0.6,1.8
			c0,0.7,0.2,1.3,0.5,1.8c0.4,0.6,1.5,1.3,3.3,2c1.7,0.7,3,1.4,3.9,2.1c0.8,0.7,1.5,1.7,2,3c0.5,1.3,0.7,2.8,0.7,4.7
			c0,1.7-0.3,3.3-0.8,4.8c-0.6,1.5-1.4,2.6-2.4,3.3c-1,0.7-2.3,1.1-3.9,1.1c-2.2,0-4-0.9-5.2-2.6
			C260.6,606.3,259.9,603.8,259.6,600.5L259.6,600.5z"/>
		<path class="st3" d="M276.1,600.5l3.5-0.6c0.2,2,0.6,3.4,1.3,4.3c0.6,0.9,1.5,1.4,2.6,1.4c1.1,0,2-0.4,2.6-1.2
			c0.6-0.8,0.9-1.8,0.9-2.8c0-0.7-0.1-1.3-0.4-1.8c-0.2-0.5-0.7-0.9-1.3-1.3c-0.4-0.2-1.4-0.7-2.9-1.3c-1.9-0.8-3.3-1.8-4-2.9
			c-1.1-1.6-1.6-3.6-1.6-5.9c0-1.5,0.3-2.9,0.8-4.2c0.5-1.3,1.2-2.3,2.2-3c1-0.7,2.1-1,3.5-1c2.2,0,3.9,0.8,5,2.4
			c1.1,1.6,1.7,3.8,1.8,6.5l-3.6,0.3c-0.2-1.5-0.5-2.6-1-3.3c-0.5-0.7-1.3-1-2.3-1c-1,0-1.9,0.4-2.4,1.1c-0.4,0.5-0.6,1.1-0.6,1.8
			c0,0.7,0.2,1.3,0.5,1.8c0.4,0.6,1.5,1.3,3.3,2c1.7,0.7,3,1.4,3.9,2.1c0.8,0.7,1.5,1.7,2,3c0.5,1.3,0.7,2.8,0.7,4.7
			c0,1.7-0.3,3.3-0.8,4.8c-0.6,1.5-1.4,2.6-2.4,3.3c-1,0.7-2.3,1.1-3.9,1.1c-2.2,0-4-0.9-5.2-2.6
			C277.1,606.3,276.4,603.8,276.1,600.5L276.1,600.5z"/>
		<path class="st3" d="M308.3,610.1h-3.4v-21.4c-1.2,1.9-2.7,3.4-4.4,4.3v-5.1c0.9-0.5,1.8-1.4,2.9-2.7c1-1.4,1.8-2.9,2.1-4.7h2.8
			V610.1L308.3,610.1z"/>
		<path class="st3" d="M319.1,580.4c1.7,0,3.1,1,4,3.1c1.1,2.4,1.7,6.4,1.7,12c0,5.6-0.6,9.6-1.7,12.1c-1,2-2.3,3-4,3
			c-1.7,0-3.1-1.1-4.2-3.3c-1.1-2.2-1.6-6.2-1.6-11.8c0-5.6,0.6-9.6,1.7-12C316.1,581.5,317.4,580.4,319.1,580.4L319.1,580.4z
			 M319.1,585.1c-0.4,0-0.8,0.2-1.1,0.7c-0.3,0.4-0.6,1.2-0.8,2.4c-0.2,1.5-0.3,3.9-0.3,7.4c0,3.5,0.1,5.8,0.3,7.1
			c0.2,1.3,0.5,2.2,0.8,2.6c0.3,0.4,0.7,0.6,1.1,0.6c0.4,0,0.8-0.2,1.1-0.7c0.3-0.4,0.6-1.2,0.7-2.3c0.2-1.5,0.4-3.9,0.4-7.4
			c0-3.5-0.1-5.9-0.3-7.2c-0.2-1.3-0.5-2.2-0.8-2.6C319.9,585.4,319.5,585.1,319.1,585.1L319.1,585.1z"/>
		<path class="st4" d="M261.8,566.8h59.8c7.6,0,13.8,6.2,13.8,13.8v28.6c0,7.6-6.2,13.8-13.8,13.8h-59.8c-7.6,0-13.8-6.2-13.8-13.8
			v-28.6C248,573,254.2,566.8,261.8,566.8L261.8,566.8z"/>
		<path class="st3" d="M724.9,621.9v-10.1h-13.2v-8.4l14-32h5.2v31.9h4v8.5h-4v10.1H724.9L724.9,621.9z M724.9,603.3v-17.2
			l-7.4,17.2H724.9L724.9,603.3z"/>
		<path class="st3" d="M743.1,594.8c-1.6-1.1-2.8-2.5-3.5-4.3c-0.7-1.8-1.1-3.9-1.1-6.1c0-3.7,0.8-6.9,2.5-9.3
			c1.7-2.4,4.1-3.7,7.2-3.7c3.1,0,5.5,1.2,7.1,3.7c1.7,2.4,2.5,5.6,2.5,9.3c0,2.3-0.4,4.4-1.2,6.2c-0.8,1.8-1.9,3.2-3.3,4.2
			c1.8,1.1,3.2,2.8,4.1,4.9c0.9,2.1,1.4,4.6,1.4,7.4c0,4.7-0.9,8.4-2.9,11.3c-1.9,2.9-4.4,4.4-7.6,4.4c-2.9,0-5.4-1.2-7.3-3.6
			c-2.3-2.8-3.5-6.7-3.5-11.7c0-2.7,0.4-5.2,1.3-7.5C739.9,597.8,741.3,596,743.1,594.8L743.1,594.8z M744.4,585.1
			c0,1.9,0.3,3.4,1,4.5c0.7,1.1,1.6,1.6,2.8,1.6c1.2,0,2.1-0.5,2.8-1.6c0.7-1.1,1.1-2.6,1.1-4.5c0-1.8-0.3-3.3-1-4.3
			c-0.7-1.1-1.6-1.6-2.8-1.6c-1.2,0-2.1,0.5-2.8,1.6C744.8,581.8,744.4,583.3,744.4,585.1L744.4,585.1z M743.9,606.6
			c0,2.7,0.4,4.7,1.3,6.2c0.9,1.5,2,2.2,3.3,2.2c1.3,0,2.3-0.7,3.2-2.1c0.8-1.4,1.3-3.5,1.3-6.2c0-2.4-0.4-4.3-1.3-5.7
			c-0.8-1.4-1.9-2.1-3.2-2.1c-1.5,0-2.6,0.8-3.4,2.4C744.2,603,743.9,604.7,743.9,606.6L743.9,606.6z"/>
		<path class="st0" d="M222.6,264c-11.2,0.4-22.1,1.9-31.6,8.6L55.8,346.9c-14.6,8.8-14,19.5-0.4,29.4l135.9,76.4
			c8.6,4.3,17.6,7.9,27.3,8.4h529.8V264H222.6L222.6,264z"/>
		<path class="st1" d="M739.7,272.8H222.9c-10.6,0.2-20,1.9-27.6,7.1L60,354.4c-8.8,5-9.2,8.5,0,14.6l135.3,76.4
			c8,4.3,16.1,8,27.6,7.1h516.8V272.8L739.7,272.8z"/>
		<path class="st2" d="M697.6,281.4H256.2c-21.9,0-32.3,1.3-40.3,7.9l-89.5,72.4l89.5,74.6c7.8,6.5,17.4,7.4,40.3,7.4h441.4
			c18.1,0,33-14.9,33-33.4v-95.6C730.7,296.3,715.9,281.4,697.6,281.4L697.6,281.4z"/>
		<path class="st3" d="M198.1,325.3h15.2c3,0,5.3,0.2,6.7,0.7c1.5,0.5,2.8,1.4,4,2.9c1.2,1.5,2.1,3.5,2.9,6c0.8,2.5,1.2,5.3,1.2,8.3
			c0,3.3-0.5,6.4-1.4,9.2c-1,2.8-2.3,4.9-3.9,6.3c2.3,1.3,4.1,3.4,5.3,6.5c1.2,3.1,1.9,6.6,1.9,10.8c0,3.2-0.4,6.4-1.2,9.5
			c-0.8,3.1-1.9,5.5-3.3,7.3c-1.4,1.8-3.1,3-5.1,3.4c-1.3,0.2-4.4,0.4-9.3,0.5h-12.9V325.3L198.1,325.3z M205.8,337.2v16.5h5
			c3,0,4.8-0.1,5.6-0.2c1.3-0.3,2.3-1.1,3.1-2.5s1.1-3.3,1.1-5.6c0-2.2-0.3-4-1-5.4c-0.7-1.4-1.6-2.2-2.9-2.5
			c-0.8-0.2-2.9-0.2-6.6-0.2H205.8L205.8,337.2z M205.8,365.6v19.1h7.1c2.8,0,4.5-0.1,5.3-0.4c1.1-0.4,2.1-1.3,2.8-2.8
			c0.7-1.5,1.1-3.5,1.1-6.1c0-2.1-0.3-4-0.8-5.4c-0.6-1.5-1.4-2.6-2.4-3.3c-1-0.7-3.3-1-6.8-1H205.8L205.8,365.6z"/>
		<path class="st3" d="M234.9,361.4c0-7.3,0.6-13.4,1.7-18.3c0.9-3.6,2-6.9,3.5-9.8c1.5-2.9,3.1-5,4.9-6.4c2.4-1.9,5.1-2.8,8.2-2.8
			c5.6,0,10.1,3.3,13.4,9.8c3.4,6.5,5,15.6,5,27.2c0,11.5-1.7,20.5-5,27c-3.3,6.5-7.8,9.8-13.4,9.8c-5.7,0-10.1-3.2-13.5-9.7
			C236.6,381.7,234.9,372.8,234.9,361.4L234.9,361.4z M242.8,361c0,8.1,1,14.2,3,18.4c2,4.2,4.5,6.2,7.6,6.2c3.1,0,5.6-2.1,7.5-6.2
			c2-4.1,2.9-10.3,2.9-18.6c0-8.2-1-14.3-2.9-18.3c-1.9-4-4.4-6-7.6-6c-3.2,0-5.7,2-7.7,6.1C243.8,346.6,242.8,352.7,242.8,361
			L242.8,361z"/>
		<path class="st3" d="M277.8,396.7v-71.4h16.2c4.1,0,7,0.6,8.8,1.9c1.8,1.3,3.3,3.6,4.4,6.8c1.1,3.3,1.7,7,1.7,11.2
			c0,5.4-0.8,9.8-2.5,13.3c-1.7,3.5-4.2,5.7-7.5,6.6c1.7,1.8,3,3.8,4.1,6c1.1,2.2,2.5,6,4.4,11.6l4.6,13.9h-9.2l-5.5-15.5
			c-2-5.6-3.3-9-4-10.5c-0.7-1.4-1.5-2.4-2.3-3c-0.8-0.5-2.1-0.8-3.9-0.8h-1.5v29.8H277.8L277.8,396.7z M285.4,355.5h5.7
			c3.7,0,6-0.3,6.9-0.9c0.9-0.6,1.6-1.6,2.1-3c0.5-1.4,0.8-3.2,0.8-5.4c0-2.4-0.3-4.3-1-5.8c-0.7-1.5-1.6-2.4-2.9-2.8
			c-0.6-0.1-2.5-0.2-5.6-0.2h-6V355.5L285.4,355.5z"/>
		<path class="st3" d="M333.7,370.4v-12h16.5v28.4c-1.6,2.9-3.9,5.5-7,7.7c-3.1,2.2-6.1,3.3-9.3,3.3c-4,0-7.4-1.6-10.4-4.7
			c-3-3.1-5.2-7.6-6.7-13.4c-1.5-5.8-2.2-12.2-2.2-19c0-7.4,0.8-14,2.5-19.8c1.7-5.8,4.1-10.2,7.3-13.3c2.4-2.4,5.5-3.6,9.1-3.6
			c4.7,0,8.4,1.9,11,5.6c2.7,3.7,4.4,8.9,5.1,15.4l-7.6,2.7c-0.5-3.5-1.5-6.3-3-8.3c-1.5-2-3.3-3-5.5-3c-3.4,0-6,2-8,6
			c-2,4-3,9.9-3,17.8c0,8.5,1,14.8,3,19.1c2,4.2,4.6,6.3,7.9,6.3c1.6,0,3.2-0.6,4.8-1.8c1.6-1.2,3-2.6,4.2-4.3v-9.1H333.7
			L333.7,370.4z"/>
		<path class="st3" d="M355.8,361.4c0-7.3,0.6-13.4,1.7-18.3c0.9-3.6,2-6.9,3.5-9.8c1.5-2.9,3.1-5,4.9-6.4c2.4-1.9,5.1-2.8,8.2-2.8
			c5.6,0,10.1,3.3,13.4,9.8c3.4,6.5,5,15.6,5,27.2c0,11.5-1.7,20.5-5,27c-3.3,6.5-7.8,9.8-13.4,9.8c-5.7,0-10.1-3.2-13.5-9.7
			C357.4,381.7,355.8,372.8,355.8,361.4L355.8,361.4z M363.7,361c0,8.1,1,14.2,3,18.4c2,4.2,4.5,6.2,7.6,6.2c3.1,0,5.6-2.1,7.5-6.2
			c2-4.1,2.9-10.3,2.9-18.6c0-8.2-1-14.3-2.9-18.3c-1.9-4-4.4-6-7.6-6c-3.2,0-5.7,2-7.7,6.1C364.7,346.6,363.7,352.7,363.7,361
			L363.7,361z"/>
		<path class="st3" d="M396.7,373.5l7.5-1.4c0.4,4.7,1.4,8.2,2.7,10.4c1.4,2.2,3.2,3.3,5.6,3.3c2.5,0,4.3-1,5.6-3
			c1.3-2,1.9-4.3,1.9-6.9c0-1.7-0.3-3.1-0.8-4.3c-0.5-1.2-1.4-2.2-2.8-3.1c-0.9-0.6-2.9-1.6-6.1-3.1c-4.1-1.9-7-4.3-8.7-7.1
			c-2.3-3.9-3.5-8.7-3.5-14.4c0-3.6,0.5-7,1.6-10.2c1.1-3.2,2.7-5.6,4.7-7.2c2.1-1.6,4.6-2.5,7.5-2.5c4.8,0,8.4,2,10.8,5.9
			c2.4,3.9,3.7,9.2,3.8,15.7l-7.7,0.6c-0.3-3.7-1-6.3-2.1-7.9c-1.1-1.6-2.7-2.4-4.9-2.4c-2.2,0-4,0.8-5.2,2.6
			c-0.8,1.1-1.2,2.6-1.2,4.4c0,1.7,0.4,3.1,1.1,4.3c1,1.5,3.3,3.1,7.1,4.8c3.7,1.7,6.5,3.4,8.3,5.1c1.8,1.8,3.2,4.2,4.2,7.3
			c1,3.1,1.5,6.9,1.5,11.4c0,4.1-0.6,7.9-1.8,11.5c-1.2,3.6-2.9,6.2-5.1,8c-2.2,1.7-5,2.6-8.3,2.6c-4.8,0-8.5-2.1-11.1-6.2
			C398.7,387.5,397.2,381.4,396.7,373.5L396.7,373.5z"/>
		<path class="st3" d="M432.5,361.4c0-7.3,0.6-13.4,1.7-18.3c0.9-3.6,2-6.9,3.5-9.8c1.5-2.9,3.1-5,4.9-6.4c2.4-1.9,5.1-2.8,8.2-2.8
			c5.6,0,10.1,3.3,13.4,9.8c3.4,6.5,5,15.6,5,27.2c0,11.5-1.7,20.5-5,27c-3.3,6.5-7.8,9.8-13.4,9.8c-5.7,0-10.1-3.2-13.5-9.7
			C434.1,381.7,432.5,372.8,432.5,361.4L432.5,361.4z M440.4,361c0,8.1,1,14.2,3,18.4c2,4.2,4.5,6.2,7.6,6.2c3.1,0,5.6-2.1,7.5-6.2
			c2-4.1,2.9-10.3,2.9-18.6c0-8.2-1-14.3-2.9-18.3c-1.9-4-4.4-6-7.6-6c-3.2,0-5.7,2-7.7,6.1C441.3,346.6,440.4,352.7,440.4,361
			L440.4,361z"/>
		<polygon class="st3" points="475.5,396.7 475.5,325.9 483.2,325.9 483.2,384.6 502.3,384.6 502.3,396.7 475.5,396.7 		"/>
		<polygon class="st3" points="507.7,396.7 507.7,325.3 535.9,325.3 535.9,337.4 515.4,337.4 515.4,353.2 534.5,353.2 534.5,365.2 
			515.4,365.2 515.4,384.6 536.6,384.6 536.6,396.7 507.7,396.7 		"/>
		<path class="st3" d="M635.4,365.6l3.5-0.6c0.2,2,0.6,3.4,1.3,4.3c0.6,0.9,1.5,1.4,2.6,1.4c1.1,0,2-0.4,2.6-1.2
			c0.6-0.8,0.9-1.8,0.9-2.9c0-0.7-0.1-1.3-0.4-1.8c-0.2-0.5-0.7-0.9-1.3-1.3c-0.4-0.2-1.4-0.7-2.9-1.3c-1.9-0.8-3.3-1.8-4-2.9
			c-1.1-1.6-1.6-3.6-1.6-5.9c0-1.5,0.3-2.9,0.8-4.2c0.5-1.3,1.2-2.3,2.2-3c1-0.7,2.1-1,3.5-1c2.2,0,3.9,0.8,5,2.4
			c1.1,1.6,1.7,3.8,1.8,6.5l-3.6,0.3c-0.2-1.5-0.5-2.6-1-3.3c-0.5-0.7-1.3-1-2.3-1c-1,0-1.9,0.4-2.4,1.1c-0.4,0.5-0.6,1.1-0.6,1.8
			c0,0.7,0.2,1.3,0.5,1.8c0.4,0.6,1.5,1.3,3.3,2c1.7,0.7,3,1.4,3.9,2.1c0.8,0.7,1.5,1.7,2,3c0.5,1.3,0.7,2.8,0.7,4.7
			c0,1.7-0.3,3.3-0.8,4.8c-0.6,1.5-1.4,2.6-2.4,3.3c-1,0.7-2.3,1.1-3.9,1.1c-2.2,0-4-0.9-5.2-2.6
			C636.4,371.4,635.6,368.9,635.4,365.6L635.4,365.6z"/>
		<path class="st3" d="M651.9,365.6l3.5-0.6c0.2,2,0.6,3.4,1.3,4.3c0.6,0.9,1.5,1.4,2.6,1.4c1.1,0,2-0.4,2.6-1.2
			c0.6-0.8,0.9-1.8,0.9-2.9c0-0.7-0.1-1.3-0.4-1.8c-0.2-0.5-0.7-0.9-1.3-1.3c-0.4-0.2-1.4-0.7-2.9-1.3c-1.9-0.8-3.3-1.8-4-2.9
			c-1.1-1.6-1.6-3.6-1.6-5.9c0-1.5,0.3-2.9,0.8-4.2c0.5-1.3,1.2-2.3,2.2-3c1-0.7,2.1-1,3.5-1c2.2,0,3.9,0.8,5,2.4
			c1.1,1.6,1.7,3.8,1.8,6.5l-3.6,0.3c-0.2-1.5-0.5-2.6-1-3.3c-0.5-0.7-1.3-1-2.3-1c-1,0-1.9,0.4-2.4,1.1c-0.4,0.5-0.6,1.1-0.6,1.8
			c0,0.7,0.2,1.3,0.5,1.8c0.4,0.6,1.5,1.3,3.3,2c1.7,0.7,3,1.4,3.9,2.1c0.8,0.7,1.5,1.7,2,3c0.5,1.3,0.7,2.8,0.7,4.7
			c0,1.7-0.3,3.3-0.8,4.8c-0.6,1.5-1.4,2.6-2.4,3.3c-1,0.7-2.3,1.1-3.9,1.1c-2.2,0-4-0.9-5.2-2.6
			C652.8,371.4,652.1,368.9,651.9,365.6L651.9,365.6z"/>
		<path class="st3" d="M684.1,375.2h-3.4v-21.4c-1.2,1.9-2.7,3.4-4.4,4.3V353c0.9-0.5,1.8-1.4,2.9-2.7c1-1.4,1.7-2.9,2.1-4.7h2.8
			V375.2L684.1,375.2z"/>
		<path class="st3" d="M694.9,345.5c1.7,0,3.1,1,4,3.1c1.1,2.4,1.7,6.4,1.7,12c0,5.6-0.6,9.6-1.7,12.1c-1,2-2.3,3-4,3
			c-1.7,0-3.1-1.1-4.2-3.3c-1.1-2.2-1.6-6.2-1.6-11.8c0-5.6,0.6-9.6,1.7-12C691.8,346.5,693.2,345.5,694.9,345.5L694.9,345.5z
			 M694.9,350.2c-0.4,0-0.8,0.2-1.1,0.7c-0.3,0.4-0.6,1.2-0.7,2.4c-0.2,1.5-0.4,3.9-0.4,7.4c0,3.5,0.1,5.8,0.3,7.1
			c0.2,1.3,0.5,2.2,0.8,2.6c0.3,0.4,0.7,0.6,1.1,0.6c0.4,0,0.8-0.2,1.1-0.7c0.3-0.4,0.6-1.2,0.7-2.3c0.2-1.5,0.4-3.9,0.4-7.4
			c0-3.5-0.1-5.8-0.3-7.2c-0.2-1.3-0.5-2.2-0.8-2.6C695.7,350.4,695.3,350.2,694.9,350.2L694.9,350.2z"/>
		<path class="st4" d="M637.6,331.8h59.8c7.6,0,13.8,6.2,13.8,13.8v28.6c0,7.6-6.2,13.8-13.8,13.8h-59.8c-7.6,0-13.8-6.2-13.8-13.8
			v-28.6C623.8,338,630,331.8,637.6,331.8L637.6,331.8z"/>
		<path class="st3" d="M567.9,387v-10.1h-13.2v-8.4l14-32h5.2v31.9h4v8.5h-4V387H567.9L567.9,387z M567.9,368.4v-17.2l-7.4,17.2
			H567.9L567.9,368.4z"/>
		<path class="st3" d="M586.2,359.9c-1.6-1.1-2.8-2.5-3.5-4.3c-0.7-1.8-1.1-3.9-1.1-6.1c0-3.7,0.8-6.9,2.5-9.3
			c1.7-2.4,4.1-3.7,7.2-3.7c3.1,0,5.5,1.2,7.1,3.7c1.7,2.4,2.5,5.6,2.5,9.3c0,2.3-0.4,4.4-1.2,6.2c-0.8,1.8-1.9,3.2-3.3,4.2
			c1.8,1.1,3.2,2.8,4.1,4.9c0.9,2.1,1.4,4.6,1.4,7.4c0,4.6-1,8.4-2.9,11.3c-1.9,2.9-4.4,4.4-7.6,4.4c-2.9,0-5.4-1.2-7.3-3.6
			c-2.3-2.8-3.5-6.7-3.5-11.7c0-2.7,0.4-5.2,1.3-7.5C582.9,362.9,584.3,361.1,586.2,359.9L586.2,359.9z M587.4,350.2
			c0,1.9,0.3,3.4,1,4.5c0.7,1.1,1.6,1.6,2.8,1.6c1.2,0,2.1-0.5,2.8-1.6c0.7-1.1,1.1-2.6,1.1-4.5c0-1.8-0.3-3.3-1-4.3
			c-0.7-1.1-1.6-1.6-2.8-1.6c-1.2,0-2.1,0.6-2.8,1.6C587.8,346.9,587.4,348.4,587.4,350.2L587.4,350.2z M586.9,371.7
			c0,2.7,0.4,4.7,1.3,6.2c0.9,1.5,2,2.2,3.3,2.2c1.3,0,2.3-0.7,3.2-2.1c0.8-1.4,1.3-3.5,1.3-6.2c0-2.4-0.4-4.3-1.3-5.7
			c-0.9-1.4-1.9-2.1-3.2-2.1c-1.5,0-2.6,0.8-3.4,2.4C587.2,368.1,586.9,369.8,586.9,371.7L586.9,371.7z"/>
		<path class="st5" d="M841.3,395.2h-14.2l-5.6-14.7h-25.8l-5.3,14.7h-13.8l25.1-64.5h13.8L841.3,395.2L841.3,395.2z M817.4,369.7
			l-8.9-24l-8.7,24H817.4L817.4,369.7z"/>
		<path class="st5" d="M129.8,565.7h25.8c5.1,0,8.9,0.2,11.4,0.6c2.5,0.4,4.7,1.3,6.7,2.7c2,1.4,3.6,3.1,4.9,5.4
			c1.3,2.2,2,4.8,2,7.5c0,3-0.8,5.8-2.4,8.3c-1.6,2.5-3.8,4.4-6.6,5.7c3.9,1.1,7,3.1,9.1,5.8c2.1,2.8,3.2,6,3.2,9.7
			c0,2.9-0.7,5.8-2,8.6c-1.4,2.8-3.2,5-5.6,6.6c-2.4,1.7-5.3,2.7-8.7,3.1c-2.2,0.2-7.4,0.4-15.7,0.4h-22V565.7L129.8,565.7z
			 M142.8,576.4v14.9h8.5c5.1,0,8.2-0.1,9.5-0.2c2.2-0.3,4-1,5.3-2.3c1.3-1.3,1.9-3,1.9-5.1c0-2-0.5-3.6-1.6-4.9
			c-1.1-1.2-2.7-2-4.9-2.3c-1.3-0.2-5-0.2-11.1-0.2H142.8L142.8,576.4z M142.8,602.1v17.3h12c4.7,0,7.7-0.1,8.9-0.4
			c1.9-0.3,3.5-1.2,4.7-2.6c1.2-1.4,1.8-3.2,1.8-5.5c0-1.9-0.5-3.6-1.4-4.9c-0.9-1.3-2.3-2.3-4.1-3c-1.8-0.6-5.6-0.9-11.6-0.9H142.8
			L142.8,602.1z"/>
	</g>
</g>
</svg>
