<?xml version="1.0" encoding="utf-8"?>
<!-- Generator: Adobe Illustrator 19.2.0, SVG Export Plug-In . SVG Version: 6.00 Build 0)  -->
<svg version="1.1" id="Livello_1" xmlns="http://www.w3.org/2000/svg" xmlns:xlink="http://www.w3.org/1999/xlink" x="0px" y="0px"
	 viewBox="0 0 960 960" style="enable-background:new 0 0 960 960;" xml:space="preserve">
<style type="text/css">
	.st0{fill-rule:evenodd;clip-rule:evenodd;fill:#008E43;stroke:#008E43;stroke-width:5.4695;stroke-miterlimit:2.6131;}
	.st1{fill:none;stroke:#FFFFFF;stroke-width:16.4084;stroke-miterlimit:2.6131;}
	.st2{fill-rule:evenodd;clip-rule:evenodd;fill:#FFFFFF;stroke:#FFFFFF;stroke-width:5.4695;stroke-miterlimit:2.6131;}
</style>
<g>
	<g>
		<polygon class="st0" points="180,180 780,180 780,780 180,780 180,180 		"/>
		<path class="st1" d="M663.6,738.9l-181.9,23.7l-181.9-23.7c-61.7-17.4-61.7-17.4-75.3-86.1l-27.5-171.4l27.5-174.9
			c13.6-68.3,13.6-68.3,75.3-82.2l181.9-27.5l181.9,27.5c58.2,13.9,58.2,13.9,75.3,82.2l24,174.9l-24,171.4
			C721.8,718,721.8,718,663.6,738.9L663.6,738.9z"/>
		<path class="st2" d="M603.6,531.7l28.9-4.3c0.4,9.2,3.1,16.6,6.6,21.6c3.9,4.9,8.7,8,14,8c5.7,0,10.9-3.7,14.9-9.9
			c4.4-6.2,6.6-16.6,6.6-30.2c0-12.3-2.2-22.8-6.1-29c-3.9-6.2-9.6-9.9-16.2-9.9c-7.9,0-15.7,5.5-21.9,16l-23.2-4.9l14.9-113.4H698
			v38.2h-54.2l-4.8,37c6.1-4.9,13.1-7.4,19.7-7.4c12.7,0,24.1,6.8,32.8,19.7c8.7,13.6,13.6,31.4,13.6,52.4
			c0,17.3-3.9,33.9-10.9,47.4c-9.6,18.5-23.6,28.3-41.1,28.3c-13.6,0-24.9-5.5-33.7-16C610.6,564.9,604.9,550.1,603.6,531.7
			L603.6,531.7z"/>
		<path class="st2" d="M585.2,549.5v38.2H482c0.9-14.2,4.4-28.3,9.6-40.7c5.7-12.9,17.1-30.2,33.7-51.2c13.1-17.3,21.9-29,24.5-35.1
			c4.4-8.6,6.6-17.3,6.6-25.3c0-9.2-1.7-16.6-5.2-21.6c-3.5-4.9-9.2-7.4-15.3-7.4c-6.1,0-11.8,2.5-15.3,7.4
			c-3.5,4.9-6.1,13.6-6.1,24.6l-28.9-3.7c1.8-22.2,7.4-38.2,16.2-48.1c9.2-9.9,21-14.8,34.5-14.8c14.9,0,27.1,6.2,35.9,17.3
			c8.7,11.1,13.1,25.9,13.1,43.1c0,9.2-1.3,18.5-3.9,27.1c-2.6,8.6-6.6,18.5-11.8,27.7c-3.5,6.2-10.5,15.4-19.7,27.1
			c-9.6,11.7-15.7,19.7-17.9,23.4c-2.6,3.7-4.8,8-6.1,11.7H585.2L585.2,549.5z"/>
		<path class="st2" d="M399.5,594.6H369l-12.6-51.6h-55.7l-11.8,51.6h-30.1l53.7-224.3h30.9L399.5,594.6L399.5,594.6z M347.8,505.7
			l-19.5-82.5l-19.1,82.5H347.8L347.8,505.7z"/>
	</g>
</g>
</svg>
