<?xml version="1.0" encoding="utf-8"?>
<!-- Generator: Adobe Illustrator 19.2.0, SVG Export Plug-In . SVG Version: 6.00 Build 0)  -->
<svg version="1.1" id="Livello_1" xmlns="http://www.w3.org/2000/svg" xmlns:xlink="http://www.w3.org/1999/xlink" x="0px" y="0px"
	 viewBox="0 0 960 960" style="enable-background:new 0 0 960 960;" xml:space="preserve">
<style type="text/css">
	.st0{fill:#FFFFFF;stroke:#1A171B;stroke-width:1.6393;stroke-miterlimit:2.6131;}
	.st1{fill:none;stroke:#1A171B;stroke-width:10.9289;stroke-miterlimit:2.6131;}
	.st2{fill-rule:evenodd;clip-rule:evenodd;fill:#1A171B;}
</style>
<g>
	<g>
		<polygon class="st0" points="180,318.5 780,318.5 780,641.5 180,641.5 180,318.5 		"/>
		<path class="st1" d="M233.6,333.3h494c22.4,0,40.4,18.6,40.4,40.4v214.2c0,21.9-18.6,40.4-40.4,40.4h-494
			c-21.3,0-40.4-18-40.4-40.4V373.7C193.1,351.3,211.7,333.3,233.6,333.3L233.6,333.3z"/>
		<path class="st2" d="M247.9,510.9l21.9-3.4c1.3,11.7,4,20.2,8,25.6c4,5.4,9.4,8.2,16.3,8.2c7.2,0,12.7-2.4,16.4-7.3
			c3.7-4.8,5.5-10.5,5.5-17c0-4.2-0.8-7.7-2.3-10.6c-1.5-3-4.2-5.5-8.1-7.6c-2.6-1.5-8.6-4-18-7.7c-12.1-4.7-20.5-10.5-25.4-17.4
			c-6.9-9.7-10.3-21.5-10.3-35.4c0-9,1.6-17.4,4.8-25.2c3.2-7.8,7.9-13.7,13.9-17.8c6.1-4.1,13.4-6.1,21.9-6.1
			c14,0,24.5,4.8,31.6,14.5c7.1,9.7,10.8,22.6,11.1,38.9l-22.5,1.6c-1-9.1-3-15.6-6.2-19.5c-3.2-4-7.9-5.9-14.2-5.9
			c-6.5,0-11.7,2.1-15.4,6.4c-2.4,2.7-3.6,6.4-3.6,10.9c0,4.2,1.1,7.8,3.3,10.7c2.8,3.8,9.7,7.7,20.7,11.8c11,4.1,19,8.3,24.3,12.7
			c5.2,4.4,9.3,10.3,12.3,17.9c3,7.6,4.4,16.9,4.4,28.1c0,10.1-1.8,19.6-5.3,28.3c-3.6,8.8-8.6,15.4-15.1,19.7
			c-6.5,4.3-14.6,6.4-24.3,6.4c-14.1,0-24.9-5.1-32.5-15.4C253.9,545.6,249.4,530.6,247.9,510.9L247.9,510.9z"/>
		<path class="st2" d="M428.8,503.5l21.8,10.9c-3.3,19.2-8.9,33.5-16.7,42.9c-7.8,9.3-17.6,14-29.6,14c-14.8,0-27-8-36.5-24
			c-9.5-16-14.3-37.9-14.3-65.6c0-29.3,4.8-52.1,14.4-68.4c9.6-16.2,22.2-24.3,37.8-24.3c13.6,0,24.7,6.4,33.2,19.1
			c5.1,7.5,8.9,18.3,11.4,32.5L428,449c-1.3-9.1-4-16.4-8.3-21.7c-4.2-5.3-9.3-7.9-15.2-7.9c-8.3,0-15,4.7-20.1,14.1
			c-5.1,9.4-7.7,24.5-7.7,45.5c0,22.3,2.5,38.2,7.6,47.6c5.1,9.5,11.7,14.2,19.7,14.2c6,0,11.1-3,15.4-9
			C423.8,525.8,426.9,516.4,428.8,503.5L428.8,503.5z"/>
		<path class="st2" d="M577.8,568.8H551V449.7h-35v-24.6c19.1-6,34.4-16.9,39.3-36.1h22.4V568.8L577.8,568.8z M619.3,526.7l26.2-3.8
			c0,7.6,1.6,14.2,3.3,15.8c2.7,2.2,7.6,4.9,11.5,4.9c4.9,0,9.8-4.4,13.1-9.8c3.3-5.5,6.6-20.2,7.6-40.4
			c-6.6,9.3-15.8,14.2-25.7,14.2c-9.8,0-19.7-6.6-26.8-15.8c-7.1-10.4-12-25.1-12-41.5c0-18,4.9-33.9,12-44.8
			c7.1-9.8,18.6-16.4,31.7-16.4c14.2,0,26.2,7.7,34.4,21.3c8.7,14.2,14.2,38.3,14.2,69.4c0,32.8-4.9,56.8-14.2,71
			c-9.3,14.2-22.4,21.3-37.2,21.3c-10.4,0-19.7-3.8-25.1-10.4c-6-7.6-13.1-19.7-13.1-33.9V526.7L619.3,526.7z M678.9,452.4
			c0-9.8-2.2-19.7-5.5-25.1c-3.3-5.5-9.3-9.8-14.2-9.8c-4.4,0-9.8,2.7-12,7.1c-2.7,4.4-4.9,14.8-4.9,25.7c0,10.4,2.2,19.7,4.9,23.5
			c3.3,4.9,8.2,8.7,13.1,8.7c4.9,0,9.8-2.7,13.1-7.1C677.3,471,678.9,461.7,678.9,452.4L678.9,452.4z"/>
	</g>
</g>
</svg>
