<?xml version="1.0" encoding="utf-8"?>
<!-- Generator: Adobe Illustrator 19.2.0, SVG Export Plug-In . SVG Version: 6.00 Build 0)  -->
<svg version="1.1" id="Livello_1" xmlns="http://www.w3.org/2000/svg" xmlns:xlink="http://www.w3.org/1999/xlink" x="0px" y="0px"
	 viewBox="0 0 960 960" style="enable-background:new 0 0 960 960;" xml:space="preserve">
<style type="text/css">
	.st0{fill:#FFFFFF;stroke:#1A171B;stroke-width:10.0587;stroke-miterlimit:2.6131;}
	.st1{fill-rule:evenodd;clip-rule:evenodd;fill:#1A171B;}
</style>
<g>
	<g>
		<path class="st0" d="M273.3,197.8h413.4c41.5,0,75.5,34,75.5,75.5v413.4c0,41.5-34,75.5-75.5,75.5H273.3
			c-41.5,0-75.5-34-75.5-75.5V273.3C197.8,231.8,231.8,197.8,273.3,197.8L273.3,197.8z"/>
		<path class="st1" d="M463.7,588H284.6c2-17.5,8.3-34,18.7-49.4c10.4-15.4,29.9-33.6,58.5-54.6c17.5-12.8,28.7-22.6,33.6-29.3
			c4.9-6.7,7.4-13,7.4-19c0-6.5-2.5-12-7.3-16.6c-4.9-4.6-11-6.9-18.3-6.9c-7.7,0-13.9,2.4-18.7,7.1c-4.8,4.7-8.1,13.1-9.8,25.1
			l-59.8-4.8c2.3-16.6,6.7-29.6,12.9-39c6.3-9.3,15.1-16.5,26.5-21.4c11.4-5,27.1-7.5,47.3-7.5c21,0,37.3,2.4,49,7.1
			c11.7,4.8,20.9,12,27.5,21.8c6.7,9.9,10.1,20.8,10.1,33c0,13-3.8,25.4-11.5,37.1c-7.7,11.8-21.6,24.8-41.8,38.9
			c-12.1,8.2-20.1,14-24.1,17.3c-4.1,3.3-8.9,7.6-14.3,12.9h93.2V588L463.7,588z M591.8,548.2H483.1v-48.6l108.8-127.9h52v130.7h27
			v45.9h-27V588h-52V548.2L591.8,548.2z M591.8,502.4v-66.8l-57.5,66.8H591.8L591.8,502.4z"/>
	</g>
</g>
</svg>
