<?xml version="1.0" encoding="utf-8"?>
<!-- Generator: Adobe Illustrator 19.2.0, SVG Export Plug-In . SVG Version: 6.00 Build 0)  -->
<svg version="1.1" id="Livello_1" xmlns="http://www.w3.org/2000/svg" xmlns:xlink="http://www.w3.org/1999/xlink" x="0px" y="0px"
	 viewBox="0 0 960 960" style="enable-background:new 0 0 960 960;" xml:space="preserve">
<style type="text/css">
	.st0{fill-rule:evenodd;clip-rule:evenodd;fill:#FFFFFF;stroke:#1A171B;stroke-width:0.8753;stroke-miterlimit:2.6131;}
	.st1{fill-rule:evenodd;clip-rule:evenodd;fill:#FFFFFF;stroke:#1A171B;stroke-width:5.835;stroke-miterlimit:2.6131;}
	.st2{fill-rule:evenodd;clip-rule:evenodd;fill:#008E43;stroke:#008E43;stroke-width:0.8753;stroke-miterlimit:2.6131;}
	.st3{fill:none;stroke:#FFFFFF;stroke-width:5.835;stroke-miterlimit:2.6131;}
	.st4{fill-rule:evenodd;clip-rule:evenodd;fill:#FFFFFF;}
	.st5{fill-rule:evenodd;clip-rule:evenodd;fill:#1A171B;}
</style>
<g>
	<g>
		<polygon class="st0" points="307.9,349 45,349 45,611 307.9,611 307.9,349 		"/>
		<path class="st1" d="M277.5,358H75.9c-10.8,0-22.2,12-22.2,21.6v200.4c0,10.8,10.5,22.2,22.2,22.2h201.6
			c11.4,0,21.9-10.2,21.9-22.2V379.6C299.4,367.7,288,358,277.5,358L277.5,358z"/>
		<polygon class="st2" points="915,349 307.9,349 307.9,611 915,611 915,349 		"/>
		<path class="st3" d="M884.7,358H338.8c-10.8,0-22.2,12-22.2,21.6v200.4c0,10.8,10.5,22.2,22.2,22.2h545.9
			c11.4,0,21.9-10.2,21.9-22.2V379.6C906.5,367.7,895.2,358,884.7,358L884.7,358z"/>
		<path class="st4" d="M346.5,514.1v-68.4h19.7c7.5,0,12.3,0.4,14.6,1c3.5,1,6.4,3.3,8.8,6.7c2.4,3.4,3.5,7.9,3.5,13.3
			c0,4.2-0.7,7.7-2,10.6c-1.4,2.9-3.1,5.1-5.2,6.8c-2.1,1.6-4.2,2.7-6.4,3.2c-2.9,0.7-7.2,1-12.7,1h-8v25.8H346.5L346.5,514.1z
			 M358.8,457.3v19.4h6.7c4.8,0,8.1-0.4,9.7-1.1c1.6-0.7,2.9-1.8,3.8-3.4c0.9-1.5,1.4-3.3,1.4-5.3c0-2.5-0.7-4.5-2-6.2
			c-1.3-1.6-2.9-2.6-4.9-3c-1.5-0.3-4.4-0.5-8.8-0.5H358.8L358.8,457.3z"/>
		<polygon class="st4" points="402.7,514.1 402.7,445.7 415,445.7 415,514.1 402.7,514.1 		"/>
		<path class="st4" d="M481.5,514.1h-13.4l-5.3-15.5h-24.3l-5,15.5h-13l23.7-68.4h13L481.5,514.1L481.5,514.1z M458.9,487.1
			l-8.4-25.4l-8.2,25.4H458.9L458.9,487.1z"/>
		<path class="st4" d="M526.9,489l11.9,4.2c-1.8,7.5-4.9,13-9.1,16.6c-4.2,3.6-9.6,5.4-16.1,5.4c-8.1,0-14.7-3.1-19.9-9.3
			c-5.2-6.2-7.8-14.7-7.8-25.5c0-11.4,2.6-20.2,7.8-26.5c5.2-6.3,12.1-9.4,20.6-9.4c7.4,0,13.5,2.5,18.1,7.4
			c2.8,2.9,4.8,7.1,6.2,12.6l-12.2,3.3c-0.7-3.6-2.2-6.4-4.5-8.4c-2.3-2.1-5.1-3.1-8.3-3.1c-4.5,0-8.2,1.8-11,5.5
			c-2.8,3.6-4.2,9.5-4.2,17.7c0,8.7,1.4,14.8,4.1,18.5c2.8,3.7,6.4,5.5,10.8,5.5c3.3,0,6.1-1.2,8.4-3.5
			C524.2,497.7,525.9,494,526.9,489L526.9,489z"/>
		<polygon class="st4" points="549.3,514.1 549.3,445.7 594.4,445.7 594.4,457.3 561.6,457.3 561.6,472.5 592.1,472.5 592.1,484 
			561.6,484 561.6,502.6 595.5,502.6 595.5,514.1 549.3,514.1 		"/>
		<polygon class="st4" points="606.1,514.1 606.1,445.7 618,445.7 642.9,491.4 642.9,445.7 654.3,445.7 654.3,514.1 642,514.1 
			617.5,469.5 617.5,514.1 606.1,514.1 		"/>
		<polygon class="st4" points="662,514.1 662,501.7 693.9,457.3 665.6,457.3 665.6,445.7 710.1,445.7 710.1,456.4 676.8,502.6 
			711.4,502.6 711.4,514.1 662,514.1 		"/>
		<path class="st4" d="M773.9,514.1h-13.4l-5.3-15.5H731l-5,15.5h-13l23.7-68.4h13L773.9,514.1L773.9,514.1z M751.3,487.1l-8.4-25.4
			l-8.2,25.4H751.3L751.3,487.1z"/>
		<path class="st4" d="M852.1,514.1v-13.8h-33.2v-11.5l35.2-43.5h13v43.4h10.1v11.5h-10.1v13.8H852.1L852.1,514.1z M852.1,488.8
			v-23.4l-18.6,23.4H852.1L852.1,488.8z"/>
		<path class="st5" d="M101.2,504.8l19.7-2c0.6,4.5,2.2,8.1,5,10.7c2.8,2.7,6,4,9.6,4c4.1,0,7.6-1.7,10.5-5.1
			c2.9-3.4,4.3-8.5,4.3-15.4c0-6.4-1.4-11.2-4.3-14.4c-2.8-3.2-6.5-4.8-11.1-4.8c-5.7,0-10.8,2.6-15.3,7.7l-16.1-2.4l10.2-54.4h52.4
			v18.8h-37.4l-3.1,17.8c4.4-2.2,8.9-3.4,13.5-3.4c8.8,0,16.2,3.2,22.3,9.7c6.1,6.5,9.2,14.9,9.2,25.2c0,8.6-2.5,16.3-7.4,23
			c-6.7,9.2-16,13.8-28,13.8c-9.5,0-17.3-2.6-23.3-7.8C105.9,520.6,102.3,513.6,101.2,504.8L101.2,504.8z"/>
		<path class="st5" d="M220,531.7v-21h-42.3v-17.6l44.8-66.4h16.6v66.4h12.8v17.6h-12.8v21H220L220,531.7z M220,493.1v-35.8
			l-23.7,35.8H220L220,493.1z"/>
	</g>
</g>
</svg>
