<?xml version="1.0" encoding="utf-8"?>
<!-- Generator: Adobe Illustrator 19.2.0, SVG Export Plug-In . SVG Version: 6.00 Build 0)  -->
<svg version="1.1" id="Livello_1" xmlns="http://www.w3.org/2000/svg" xmlns:xlink="http://www.w3.org/1999/xlink" x="0px" y="0px"
	 viewBox="0 0 960 960" style="enable-background:new 0 0 960 960;" xml:space="preserve">
<style type="text/css">
	.st0{fill-rule:evenodd;clip-rule:evenodd;fill:#005EA7;stroke:#005EA7;stroke-width:1.0684;stroke-miterlimit:2.6131;}
	.st1{fill:none;stroke:#FFFFFF;stroke-width:7.1224;stroke-miterlimit:2.6131;}
	.st2{fill-rule:evenodd;clip-rule:evenodd;fill:#FFFFFF;}
	.st3{fill-rule:evenodd;clip-rule:evenodd;fill:#E1001A;stroke:#E1001A;stroke-width:0.3561;stroke-miterlimit:2.6131;}
</style>
<g>
	<g>
		<polygon class="st0" points="915,203.5 45,203.5 45,480 915,480 915,203.5 		"/>
		<path class="st1" d="M882.8,213.1h-805c-11.8,0-23.5,12-23.5,23v211.2c0,11.5,11.2,23.2,23.5,23.2h805c12.3,0,23.2-10.4,23.2-23.2
			V236C906,223.1,894.3,213.1,882.8,213.1L882.8,213.1z"/>
		<path class="st2" d="M160.5,389.2v-93.4H190c11.2,0,18.5,0.5,21.8,1.4c5.2,1.4,9.6,4.4,13.1,9.1c3.5,4.7,5.3,10.8,5.3,18.2
			c0,5.7-1,10.6-3.1,14.5c-2,3.9-4.6,7-7.7,9.2c-3.1,2.2-6.3,3.7-9.5,4.4c-4.4,0.9-10.7,1.3-19.1,1.3h-12v35.2H160.5L160.5,389.2z
			 M178.9,311.6v26.5h10c7.2,0,12.1-0.5,14.5-1.5c2.4-1,4.3-2.5,5.7-4.6c1.4-2.1,2.1-4.5,2.1-7.3c0-3.4-1-6.2-2.9-8.4
			c-1.9-2.2-4.4-3.6-7.4-4.1c-2.2-0.4-6.6-0.6-13.2-0.6H178.9L178.9,311.6z"/>
		<polygon class="st2" points="244.7,389.2 244.7,295.8 263.1,295.8 263.1,389.2 244.7,389.2 		"/>
		<polygon class="st2" points="280.6,389.2 280.6,295.8 348.1,295.8 348.1,311.6 299,311.6 299,332.3 344.7,332.3 344.7,348 
			299,348 299,373.4 349.8,373.4 349.8,389.2 280.6,389.2 		"/>
		<polygon class="st2" points="365.2,389.2 365.2,295.8 392.7,295.8 409.2,359.5 425.5,295.8 453.1,295.8 453.1,389.2 436,389.2 
			436,315.7 417.9,389.2 400.2,389.2 382.2,315.7 382.2,389.2 365.2,389.2 		"/>
		<path class="st2" d="M467.6,343c0-9.5,1.4-17.5,4.2-24c2.1-4.7,4.9-9,8.5-12.8c3.6-3.8,7.5-6.6,11.8-8.4
			c5.7-2.5,12.2-3.7,19.6-3.7c13.4,0,24.1,4.3,32.2,12.8c8.1,8.5,12.1,20.4,12.1,35.6c0,15.1-4,26.9-12,35.4
			c-8,8.5-18.7,12.8-32,12.8c-13.5,0-24.3-4.2-32.3-12.7C471.6,369.6,467.6,357.9,467.6,343L467.6,343z M486.5,342.4
			c0,10.6,2.4,18.6,7.1,24c4.8,5.5,10.8,8.2,18.1,8.2c7.3,0,13.3-2.7,18-8.1c4.7-5.4,7-13.5,7-24.3c0-10.7-2.3-18.7-6.8-24
			c-4.6-5.3-10.7-7.9-18.2-7.9c-7.6,0-13.7,2.7-18.3,8C488.8,323.6,486.5,331.7,486.5,342.4L486.5,342.4z"/>
		<polygon class="st2" points="570.4,389.2 570.4,295.8 588.3,295.8 625.5,358.1 625.5,295.8 642.6,295.8 642.6,389.2 624.2,389.2 
			587.5,328.3 587.5,389.2 570.4,389.2 		"/>
		<polygon class="st2" points="682.5,389.2 682.5,311.6 655.5,311.6 655.5,295.8 727.8,295.8 727.8,311.6 700.9,311.6 700.9,389.2 
			682.5,389.2 		"/>
		<polygon class="st2" points="739.7,389.2 739.7,295.8 807.2,295.8 807.2,311.6 758.1,311.6 758.1,332.3 803.7,332.3 803.7,348 
			758.1,348 758.1,373.4 808.9,373.4 808.9,389.2 739.7,389.2 		"/>
		<polygon class="st0" points="915,480 45,480 45,756.5 915,756.5 915,480 		"/>
		<path class="st3" d="M839.6,489.5h43.4c11.2,0,23,10.1,23,23v24.6L124.3,746.7H78.1c-12.3,0-23.5-11.8-23.5-23v-23.8L839.6,489.5
			L839.6,489.5z"/>
		<path class="st1" d="M882.8,489.5h-805c-11.8,0-23.5,12-23.5,23v211.2c0,11.5,11.2,23.3,23.5,23.3h805c12.3,0,23.2-10.4,23.2-23.3
			V512.5C906,499.6,894.3,489.5,882.8,489.5L882.8,489.5z"/>
		<polygon class="st2" points="108.9,665.4 108.9,572.8 126.8,572.8 126.8,649.7 171.2,649.7 171.2,665.4 108.9,665.4 		"/>
		<path class="st2" d="M180.3,619.3c0-9.5,1.3-17.5,4-24c2-4.7,4.8-9,8.2-12.8c3.5-3.8,7.3-6.6,11.4-8.4c5.5-2.5,11.9-3.7,19.1-3.7
			c13,0,23.5,4.3,31.3,12.8c7.8,8.5,11.7,20.4,11.7,35.6c0,15.1-3.9,26.9-11.7,35.4c-7.8,8.5-18.1,12.8-31.1,12.8
			c-13.2,0-23.6-4.2-31.4-12.7C184.2,645.8,180.3,634.1,180.3,619.3L180.3,619.3z M198.7,618.7c0,10.6,2.3,18.6,6.9,24
			c4.6,5.5,10.5,8.2,17.6,8.2c7.1,0,13-2.7,17.5-8.1c4.6-5.4,6.8-13.5,6.8-24.3c0-10.7-2.2-18.7-6.7-24c-4.5-5.3-10.4-7.9-17.7-7.9
			c-7.4,0-13.3,2.7-17.8,8C201,599.9,198.7,607.9,198.7,618.7L198.7,618.7z"/>
		<polygon class="st2" points="279.9,665.4 279.9,572 306.6,572 322.7,635.7 338.5,572 365.3,572 365.3,665.4 348.7,665.4 
			348.7,591.9 331.2,665.4 314,665.4 296.4,591.9 296.4,665.4 279.9,665.4 		"/>
		<path class="st2" d="M383.1,572h35.4c7,0,12.2,0.3,15.7,0.9c3.4,0.6,6.5,1.9,9.2,3.8c2.7,2,5,4.5,6.8,7.8
			c1.8,3.2,2.7,6.9,2.7,10.9c0,4.4-1.1,8.4-3.3,12c-2.2,3.7-5.3,6.4-9.1,8.2c5.4,1.7,9.5,4.5,12.4,8.5c2.9,4,4.3,8.7,4.3,14.1
			c0,4.2-0.9,8.4-2.8,12.4c-1.9,4-4.4,7.2-7.7,9.6c-3.2,2.4-7.2,3.9-12,4.4c-3,0.3-10.2,0.5-21.5,0.6h-30.1V572L383.1,572z
			 M401,587.6v21.6h11.7c7,0,11.3-0.1,13-0.3c3-0.4,5.5-1.5,7.2-3.3c1.7-1.8,2.6-4.3,2.6-7.3c0-2.9-0.7-5.2-2.2-7
			c-1.5-1.8-3.8-2.9-6.7-3.3c-1.8-0.2-6.9-0.3-15.3-0.3H401L401,587.6z M401,624.7v25h16.5c6.5,0,10.5-0.2,12.3-0.6
			c2.7-0.5,4.8-1.8,6.5-3.7c1.7-2,2.5-4.6,2.5-7.9c0-2.8-0.7-5.2-1.9-7.1c-1.3-2-3.1-3.4-5.6-4.3c-2.4-0.9-7.7-1.3-15.8-1.3H401
			L401,624.7z"/>
		<path class="st2" d="M552.1,665.4h-19.4l-7.7-21.2h-35.4l-7.3,21.2h-19l34.5-93.4h18.9L552.1,665.4L552.1,665.4z M519.2,628.5
			L507,593.8l-11.9,34.7H519.2L519.2,628.5z"/>
		<path class="st2" d="M561.6,665.4V572h37.6c9.5,0,16.3,0.9,20.6,2.5c4.3,1.7,7.7,4.7,10.3,8.9c2.6,4.3,3.9,9.2,3.9,14.7
			c0,7-2,12.8-5.9,17.4c-3.9,4.5-9.7,7.4-17.5,8.6c3.9,2.4,7.1,5,9.6,7.8c2.5,2.8,5.9,7.9,10.2,15.2l10.8,18.2h-21.4l-12.9-20.3
			c-4.6-7.3-7.7-11.8-9.4-13.7c-1.7-1.9-3.5-3.2-5.4-3.9c-1.9-0.7-4.9-1-9-1h-3.6v39H561.6L561.6,665.4z M579.5,611.5h13.2
			c8.6,0,13.9-0.4,16.1-1.1c2.1-0.8,3.8-2.1,5-4c1.2-1.9,1.8-4.2,1.8-7c0-3.2-0.8-5.7-2.4-7.6c-1.6-1.9-3.8-3.2-6.7-3.7
			c-1.4-0.2-5.8-0.3-13-0.3h-13.9V611.5L579.5,611.5z"/>
		<path class="st2" d="M650.7,572h32.7c7.4,0,13,0.6,16.8,1.8c5.2,1.6,9.6,4.5,13.3,8.6c3.7,4.1,6.5,9.1,8.5,15.1
			c1.9,6,2.9,13.3,2.9,22.1c0,7.7-0.9,14.3-2.7,19.9c-2.2,6.8-5.4,12.3-9.5,16.5c-3.1,3.2-7.3,5.7-12.5,7.5c-3.9,1.3-9.2,2-15.8,2
			h-33.6V572L650.7,572z M668.6,587.8v61.8h13.3c5,0,8.6-0.3,10.8-0.9c2.9-0.8,5.3-2,7.2-3.9c1.9-1.8,3.5-4.8,4.7-9
			c1.2-4.2,1.8-9.9,1.8-17.1c0-7.2-0.6-12.7-1.8-16.6c-1.2-3.9-2.9-6.9-5.1-9c-2.2-2.2-4.9-3.6-8.3-4.4c-2.5-0.6-7.4-0.9-14.7-0.9
			H668.6L668.6,587.8z"/>
		<polygon class="st2" points="739.5,665.4 739.5,572 757.3,572 757.3,665.4 739.5,665.4 		"/>
		<path class="st2" d="M854.2,665.4h-19.4l-7.7-21.2h-35.4l-7.3,21.2h-18.9l34.5-93.4h18.9L854.2,665.4L854.2,665.4z M821.3,628.5
			l-12.2-34.7l-11.9,34.7H821.3L821.3,628.5z"/>
	</g>
</g>
</svg>
