<?xml version="1.0" encoding="utf-8"?>
<!-- Generator: Adobe Illustrator 19.2.0, SVG Export Plug-In . SVG Version: 6.00 Build 0)  -->
<svg version="1.1" id="Livello_1" xmlns="http://www.w3.org/2000/svg" xmlns:xlink="http://www.w3.org/1999/xlink" x="0px" y="0px"
	 viewBox="0 0 960 960" style="enable-background:new 0 0 960 960;" xml:space="preserve">
<style type="text/css">
	.st0{fill:#FFFFFF;stroke:#1A171B;stroke-width:0.9137;stroke-miterlimit:2.6131;}
	.st1{fill:none;stroke:#1A171B;stroke-width:9.1371;stroke-miterlimit:2.6131;}
	.st2{fill-rule:evenodd;clip-rule:evenodd;fill:#1A171B;}
	.st3{fill-rule:evenodd;clip-rule:evenodd;fill:#1A171B;stroke:#1A171B;stroke-width:0.9137;stroke-miterlimit:2.6131;}
	.st4{fill-rule:evenodd;clip-rule:evenodd;fill:#FFFFFF;stroke:#FFFFFF;stroke-width:0.9137;stroke-miterlimit:2.6131;}
	.st5{fill-rule:evenodd;clip-rule:evenodd;fill:#FFFFFF;stroke:#1A171B;stroke-width:0.9137;stroke-miterlimit:2.6131;}
</style>
<g>
	<g>
		<polygon class="st0" points="252.1,120 707.9,120 707.9,840 252.1,840 252.1,120 		"/>
		<path class="st1" d="M300.9,134h358.2c20.3,0,36.4,16.6,36.4,36.7v619.4c0,20.1-16.3,36.7-36.4,36.7H300.9
			c-20.1,0-36.4-16.3-36.4-36.7V170.6C264.5,150.3,280.5,134,300.9,134L300.9,134z"/>
		<path class="st1" d="M352.7,177.5h254.8c23.8,0,43.3,19.5,43.3,43.3v254.6c0,23.8-19.5,43.3-43.3,43.3H352.7
			c-23.8,0-43.3-19.5-43.3-43.3V220.8C309.4,197,328.9,177.5,352.7,177.5L352.7,177.5z"/>
		<path class="st2" d="M613.5,669.1L493,735.8c-4.3,0.2-7.9,0-7.9-6.6l7.8-40.1l-146.1,0.1l0.1-40.3l146.1-0.1l-8-39.9
			c0-6.8,3.9-6.8,7.9-6.8L613.5,669.1L613.5,669.1z"/>
		<path class="st3" d="M450.1,405.9c8.3,0.5,13,3,16.8,5.1c24.7,14.6,69.6,21,96.5,21.2l62-0.2c0.2,5.6-3.4,8.1-9,7.8h-260
			c-19.5,0-20.8-26.2-20.5-33.9H450.1L450.1,405.9z"/>
		<path class="st3" d="M563.2,420.6c-37.4-1.2-82.4-22.5-96.2-41.3c-7.6-9-12.9-15.7-21.2-15.9H343l6.1-35.2h98.5
			c11.3,0.3,13,11.5,18.5,21.2c12.9,22.9,56.7,61.6,97.3,61.6h62l-0.2,9.6H563.2L563.2,420.6z"/>
		<path class="st3" d="M563.2,407.1c-58.7-6.4-92.8-74.2-97.9-90.1c-2.9-9.5-7.3-12-15.2-13.7h-95.7c0,0,7.5-10.5,18.5-10.5l17.9-23
			h-12.4l7.6-8.8l93.6,0.3l-8.3,8.6l-4.6-0.2l9.1,51.1c3.2,15.4,48.6,79.4,87.4,79.4l54.9,0.2c4.9,0.2,7.1,2.2,7.1,6.6H563.2
			L563.2,407.1z"/>
		<path class="st4" d="M467.6,307.2c-3.9-9-10.8-14.4-20.1-14.2l15.1-20.1L467.6,307.2L467.6,307.2z"/>
		<polygon class="st4" points="381.1,293 398.5,269.8 456.6,269.6 438.1,293.1 381.1,293 		"/>
		<path class="st3" d="M446.2,382.9c5.4,0,9.8,4.4,9.8,9.8c0,5.4-4.4,9.8-9.8,9.8c-5.4,0-9.8-4.4-9.8-9.8
			C436.3,387.3,440.8,382.9,446.2,382.9L446.2,382.9z"/>
		<path class="st3" d="M355,382.9c5.4,0,9.8,4.4,9.8,9.8c0,5.4-4.4,9.8-9.8,9.8c-5.4,0-9.8-4.4-9.8-9.8
			C345.2,387.3,349.6,382.9,355,382.9L355,382.9z"/>
		<path class="st5" d="M441.9,408.4c3.3,0,5.9,2.7,5.9,5.9c0,3.3-2.7,5.9-5.9,5.9c-3.3,0-5.9-2.7-5.9-5.9
			C435.9,411.1,438.6,408.4,441.9,408.4L441.9,408.4z"/>
		<path class="st5" d="M350.7,408.4c3.3,0,5.9,2.7,5.9,5.9c0,3.3-2.7,5.9-5.9,5.9c-3.3,0-5.9-2.7-5.9-5.9
			C344.8,411.1,347.4,408.4,350.7,408.4L350.7,408.4z"/>
	</g>
</g>
</svg>
