<?xml version="1.0" encoding="utf-8"?>
<!-- Generator: Adobe Illustrator 19.2.0, SVG Export Plug-In . SVG Version: 6.00 Build 0)  -->
<svg version="1.1" id="Livello_1" xmlns="http://www.w3.org/2000/svg" xmlns:xlink="http://www.w3.org/1999/xlink" x="0px" y="0px"
	 viewBox="0 0 960 960" style="enable-background:new 0 0 960 960;" xml:space="preserve">
<style type="text/css">
	.st0{fill:#FFFFFF;stroke:#1A171B;stroke-width:0.9137;stroke-miterlimit:2.6131;}
	.st1{fill:none;stroke:#1A171B;stroke-width:9.1371;stroke-miterlimit:2.6131;}
	.st2{fill-rule:evenodd;clip-rule:evenodd;fill:#1A171B;}
	.st3{fill-rule:evenodd;clip-rule:evenodd;fill:#1A171B;stroke:#1A171B;stroke-width:0.9137;stroke-miterlimit:2.6131;}
</style>
<g>
	<g>
		<polygon class="st0" points="252.1,120 707.9,120 707.9,840 252.1,840 252.1,120 		"/>
		<path class="st1" d="M300.9,134h358.2c20.3,0,36.4,16.6,36.4,36.7v619.4c0,20.1-16.3,36.7-36.4,36.7H300.9
			c-20.1,0-36.4-16.3-36.4-36.7V170.6C264.4,150.3,280.5,134,300.9,134L300.9,134z"/>
		<path class="st1" d="M352.7,177.5h254.8c23.8,0,43.3,19.5,43.3,43.3v254.6c0,23.8-19.5,43.3-43.3,43.3H352.7
			c-23.8,0-43.3-19.5-43.3-43.3V220.8C309.4,197,328.9,177.5,352.7,177.5L352.7,177.5z"/>
		<path class="st2" d="M613.8,668.8l-120.5,66.8c-4.3,0.2-7.9,0-7.9-6.6l7.8-40.1L347.1,689l0.1-40.3l146.1-0.1l-8-39.9
			c0-6.8,3.9-6.8,7.9-6.8L613.8,668.8L613.8,668.8z"/>
		<path class="st3" d="M302.6,478.3c-1-1.5,2-2.6,2-1L302.6,478.3L302.6,478.3z"/>
		<path class="st3" d="M459.7,481v-26.9h91.6v-13.3h-73.7l82.1-126.7C578,313.5,578,326.8,578,338v143H459.7L459.7,481z"/>
		<path class="st3" d="M459.7,440.8l1.4-43.4l-1.9-1.4l-19.7,24.5c-6.6,4.4-15.5,6.8-22.3,2.4l-53.6-22.5
			c-20.1-6.6-6.6-42.4,13.4-33.4l42.4,17.7l40.9-56.7c6.8-9.4,15-14.6,28.4-14.6h53.6L459.7,440.8L459.7,440.8z"/>
		<polygon class="st3" points="466.4,266.5 482.4,250.8 551.3,250.8 551.3,255.3 466.4,266.5 		"/>
		<polygon class="st3" points="482,244.2 470.8,206.2 551.3,233 551.3,244.2 482,244.2 		"/>
		<path class="st3" d="M482,271.1l68.4-9.4c0.5,2.4,0.9,4.6,0.9,7c0,19.1-15.5,34.6-34.6,34.6C498.2,303.3,483.2,289.2,482,271.1
			L482,271.1z"/>
	</g>
</g>
</svg>
