<?xml version="1.0" encoding="utf-8"?>
<!-- Generator: Adobe Illustrator 19.2.0, SVG Export Plug-In . SVG Version: 6.00 Build 0)  -->
<svg version="1.1" id="Livello_1" xmlns="http://www.w3.org/2000/svg" xmlns:xlink="http://www.w3.org/1999/xlink" x="0px" y="0px"
	 viewBox="0 0 960 960" style="enable-background:new 0 0 960 960;" xml:space="preserve">
<style type="text/css">
	.st0{fill:#FFFFFF;stroke:#1A171B;stroke-width:0.9137;stroke-miterlimit:2.6131;}
	.st1{fill:none;stroke:#1A171B;stroke-width:9.1371;stroke-miterlimit:2.6131;}
	.st2{fill-rule:evenodd;clip-rule:evenodd;fill:#005EA7;}
	.st3{fill-rule:evenodd;clip-rule:evenodd;fill:#FFFFFF;}
	.st4{fill-rule:evenodd;clip-rule:evenodd;fill:#E1001A;}
	.st5{fill-rule:evenodd;clip-rule:evenodd;fill:#1A171B;}
</style>
<g>
	<g>
		<polygon class="st0" points="252.1,120 707.9,120 707.9,840 252.1,840 252.1,120 		"/>
		<path class="st1" d="M300.9,134h358.2c20.3,0,36.4,16.6,36.4,36.7v619.4c0,20.1-16.3,36.7-36.4,36.7H300.9
			c-20.1,0-36.4-16.3-36.4-36.7V170.6C264.5,150.3,280.5,134,300.9,134L300.9,134z"/>
		<path class="st2" d="M355,177.6h250.1c25.1,0,45.7,20.6,45.7,45.7v250.1c0,25.1-20.6,45.7-45.7,45.7H355
			c-25.1,0-45.7-20.6-45.7-45.7V223.3C309.3,198.2,329.9,177.6,355,177.6L355,177.6z"/>
		<path class="st3" d="M502.8,483.1l-0.2-51.4c0.1-9.4,0-18.3,13.3-20.7l74.2-19.8c6.7-2.2,6.6,2.3,6.6,6.9l-0.1,57.5l-13.5,3.5
			l0.2-23l-67.4,17.8l0.2,24.6L502.8,483.1L502.8,483.1z"/>
		<path class="st3" d="M379.5,391.1l-0.1-33.6l26.7,13.7l78.7-22.5c11.1-2.1,11.1-2.1,17.9,2.3l67.2,36.3l-60.5,15.8
			c-11.3,4.7-12.9,8.8-15.2,20l0.1,29L379.5,391.1L379.5,391.1z"/>
		<path class="st3" d="M357,407l0-53.8c0.2-25.4,6.2-30,13.2-33.9l76.4-20c3.9-1,11.1,2.3,11,15.8l-84.8,24.3l-0.1,60.6L357,407
			L357,407z"/>
		<path class="st3" d="M402.9,360.6L383,349.7c-4.4-2.2-1.3-5.5,5.3-7.6l53.9-15.7c5-1.2,8.7-2.2,17.6,2.3l16,8.6
			c4.6,2.3,4.4,4.6,0,6.8L420.3,359C413.3,360.8,408,362.5,402.9,360.6L402.9,360.6z"/>
		<polygon class="st3" points="515.9,312.7 516.1,283.5 487.1,283.7 487.2,236.6 516.1,236.6 515.9,207.4 563.1,207.4 563.2,236.6 
			592.4,236.8 592.4,283.7 563.2,283.5 563,312.7 515.9,312.7 		"/>
		<polygon class="st4" points="522.8,306.1 522.6,276.9 493.8,277.1 493.7,243.4 522.9,243.3 522.7,214.3 556.4,214.2 556.5,243.2 
			585.5,243.4 585.3,277 556.3,276.8 556.4,306 522.8,306.1 		"/>
		<path class="st5" d="M346.2,668.8l120.5,66.8c4.3,0.2,7.9,0,7.9-6.6l-7.8-40.1l146.1,0.1l-0.1-40.3l-146.1-0.1l8-39.9
			c0-6.8-3.9-6.8-7.9-6.8L346.2,668.8L346.2,668.8z"/>
	</g>
</g>
</svg>
