<?xml version="1.0" encoding="utf-8"?>
<!-- Generator: Adobe Illustrator 19.2.0, SVG Export Plug-In . SVG Version: 6.00 Build 0)  -->
<svg version="1.1" id="Livello_1" xmlns="http://www.w3.org/2000/svg" xmlns:xlink="http://www.w3.org/1999/xlink" x="0px" y="0px"
	 viewBox="0 0 960 960" style="enable-background:new 0 0 960 960;" xml:space="preserve">
<style type="text/css">
	.st0{fill:#FFFFFF;stroke:#1A171B;stroke-width:0.831;stroke-miterlimit:2.6131;}
	.st1{fill:none;stroke:#1A171B;stroke-width:5.5402;stroke-miterlimit:2.6131;}
	.st2{fill-rule:evenodd;clip-rule:evenodd;fill:#916740;stroke:#916740;stroke-width:0.831;stroke-miterlimit:2.6131;}
	.st3{fill-rule:evenodd;clip-rule:evenodd;fill:#FFFFFF;stroke:#916740;stroke-width:0.831;stroke-miterlimit:2.6131;}
	.st4{fill-rule:evenodd;clip-rule:evenodd;fill:#5288C1;}
	.st5{fill:none;stroke:#FFFFFF;stroke-width:5.5402;stroke-miterlimit:2.6131;}
	.st6{fill-rule:evenodd;clip-rule:evenodd;fill:#1A171B;}
</style>
<g>
	<g>
		<polygon class="st0" points="180,479.9 780,479.9 780,684.8 180,684.8 180,479.9 		"/>
		<path class="st1" d="M221.3,494.3h516.9c15,0,27.1,11.9,27.1,26.9V643c0,14.7-12.5,27.1-27.1,27.1H221.3
			c-14.1,0-26.3-12.2-26.3-27.1V521.1C195,505.9,206.9,494.3,221.3,494.3L221.3,494.3z"/>
		<polygon class="st2" points="180,275.2 780,275.2 780,480.1 180,480.1 180,275.2 		"/>
		<path class="st3" d="M479.8,411.3c-38.4,0.2-74.8,25.9-112.7,26.3c-37.9,0.4-58-26.3-110.7-26.3l-8.9,0.1l0.2-92.4l8.9,0.1
			c58.1,0,72.1,26.5,111.7,26.3c37.5-0.2,73.4-26.3,111.8-26.4c38.4-0.2,72.3,26.7,111,26.5c39.3,0,63.1-26.3,114.1-26.5l8.4,0.1
			l0.3,92.4l-9.1-0.1c-51.1-0.1-75,25.9-113.9,26.3C552.6,437.9,518.2,410.9,479.8,411.3L479.8,411.3z"/>
		<path class="st4" d="M479.4,402.6c-38.6,0-72.7,26.1-111.3,26.1c-38.6,0-58.5-26.3-111.7-26.3l0.2-19.2
			c51.5,0.4,71.4,26.7,111.4,26.5c37.7-0.4,73.1-26.4,111.8-26.4c38.6,0,72.3,26.5,111,26.5c39.6,0,63.1-26.2,114.1-26.5l-0.2,19.2
			c-51.1-0.1-74.8,26.3-113.9,26.3C552.2,428.9,518,402.6,479.4,402.6L479.4,402.6z"/>
		<path class="st4" d="M479.4,374.8c-38.6,0-72.7,26.1-111.3,26.1c-38.6,0-63.2-26.2-111.7-26.3l0.2-19.2
			c51.1,0.1,72.8,26.7,111.4,26.5c38.6,0,73.1-26.4,111.8-26.4c38.6,0,72.3,26.5,111,26.5c39.6,0,64.9-26.5,114.1-26.5l-0.2,19.2
			c-44.5-1.8-74.8,26.3-113.9,26.3C552.2,401.1,518,374.8,479.4,374.8L479.4,374.8z"/>
		<path class="st4" d="M479.4,346.9c-38.6,0-72.7,26.1-111.3,26.1c-38.6,0-58.5-26.3-111.7-26.3l0.2-19.2
			c58.1,0,71.6,26.5,111.4,26.5c37.7,0,73.1-26.4,111.8-26.4c38.6,0,72.3,26.5,111,26.5c39.6,0,63.1-26.3,114.1-26.5l-0.2,19.2
			c-51.1-0.1-74.8,26.3-113.9,26.3C552.2,373.3,518,346.9,479.4,346.9L479.4,346.9z"/>
		<path class="st5" d="M221.3,290.1h516.9c15,0,27.1,11.4,27.1,26.3v122.2c0,14.4-12.5,27.1-27.1,27.1H221.3
			c-14.1,0-26.3-12.5-26.3-27.1V316.4C195,301.2,206.9,290.1,221.3,290.1L221.3,290.1z"/>
		<path class="st6" d="M268,598.8h3.3v-1.7c0-1.9,0.2-3.3,0.6-4.3c0.4-0.9,1.1-1.7,2.2-2.3c1.1-0.6,2.5-0.9,4.1-0.9
			c1.7,0,3.4,0.3,5,0.8l-0.8,4.2c-1-0.2-1.9-0.3-2.7-0.3c-0.9,0-1.5,0.2-1.9,0.6c-0.4,0.4-0.6,1.2-0.6,2.3v1.6h4.5v4.7h-4.5v17.9h-6
			v-17.9H268V598.8L268,598.8z"/>
		<path class="st6" d="M285.2,595.8v-5.5h6v5.5H285.2L285.2,595.8z M285.2,621.4v-22.6h6v22.6H285.2L285.2,621.4z"/>
		<path class="st6" d="M312.2,621.4V618c-0.8,1.2-1.9,2.2-3.2,2.9c-1.3,0.7-2.8,1-4.2,1c-1.5,0-2.9-0.3-4.1-1
			c-1.2-0.7-2.1-1.6-2.6-2.8c-0.5-1.2-0.8-2.9-0.8-5v-14.3h6v10.4c0,3.2,0.1,5.1,0.3,5.8c0.2,0.7,0.6,1.3,1.2,1.7
			c0.6,0.4,1.3,0.6,2.2,0.6c1,0,1.9-0.3,2.7-0.8c0.8-0.6,1.4-1.3,1.7-2.1c0.3-0.8,0.5-2.9,0.5-6.1v-9.5h6v22.6H312.2L312.2,621.4z"
			/>
		<path class="st6" d="M323.5,598.8h5.5v3.1c2-2.4,4.3-3.6,7-3.6c1.4,0,2.7,0.3,3.8,0.9c1.1,0.6,1.9,1.5,2.6,2.7
			c1-1.2,2.1-2.1,3.2-2.7c1.1-0.6,2.4-0.9,3.7-0.9c1.7,0,3.1,0.3,4.2,1c1.1,0.7,2,1.7,2.6,3c0.4,1,0.6,2.5,0.6,4.7v14.4h-6v-12.9
			c0-2.2-0.2-3.7-0.6-4.3c-0.6-0.9-1.4-1.3-2.5-1.3c-0.8,0-1.6,0.3-2.4,0.8c-0.7,0.5-1.3,1.3-1.6,2.2c-0.3,1-0.5,2.5-0.5,4.7v10.9
			h-6V609c0-2.2-0.1-3.6-0.3-4.3c-0.2-0.6-0.5-1.1-1-1.4c-0.4-0.3-1.1-0.5-1.8-0.5c-0.9,0-1.8,0.2-2.5,0.7c-0.7,0.5-1.3,1.2-1.6,2.2
			c-0.3,0.9-0.5,2.5-0.5,4.7v11h-6V598.8L323.5,598.8z"/>
		<path class="st6" d="M375.7,614.2l6,1c-0.8,2.2-2,3.9-3.6,5c-1.6,1.1-3.7,1.7-6.2,1.7c-3.9,0-6.8-1.3-8.7-3.8
			c-1.5-2.1-2.2-4.7-2.2-7.8c0-3.7,1-6.7,2.9-8.8c2-2.1,4.4-3.2,7.4-3.2c3.4,0,6,1.1,8,3.3c1.9,2.2,2.9,5.6,2.8,10.2h-15
			c0,1.8,0.5,3.2,1.4,4.1c0.9,1,2.1,1.5,3.5,1.5c0.9,0,1.7-0.3,2.4-0.8C374.9,616.2,375.4,615.4,375.7,614.2L375.7,614.2z
			 M376.1,608.2c0-1.7-0.5-3-1.3-3.9c-0.8-0.9-1.9-1.3-3.1-1.3c-1.3,0-2.4,0.5-3.2,1.4c-0.8,0.9-1.3,2.2-1.3,3.9H376.1L376.1,608.2z
			"/>
		<path class="st6" d="M502.6,621.1h-19.3l-7.7-20h-35.1l-7.2,20h-18.8l34.2-87.9h18.8L502.6,621.1L502.6,621.1z M469.9,586.4
			l-12.1-32.6l-11.9,32.6H469.9L469.9,586.4z"/>
		<path class="st6" d="M528,621.1h-16.8v-63.7h15.6v9c2.7-4.3,5.1-7.1,7.2-8.5c2.1-1.3,4.6-2,7.3-2c3.8,0,7.5,1.1,11.1,3.2
			l-5.2,14.7c-2.8-1.8-5.5-2.7-7.9-2.7c-2.4,0-4.4,0.6-6,1.9c-1.7,1.3-2.9,3.6-3.9,7c-0.9,3.4-1.4,10.5-1.4,21.3V621.1L528,621.1z"
			/>
		<path class="st6" d="M617.5,621.1h-16.8v-32.5c0-6.9-0.4-11.3-1.1-13.3c-0.7-2-1.9-3.6-3.5-4.7c-1.6-1.1-3.6-1.7-5.8-1.7
			c-2.9,0-5.5,0.8-7.9,2.4c-2.3,1.6-3.9,3.7-4.8,6.4c-0.9,2.6-1.3,7.5-1.3,14.6v28.8h-16.8v-63.7h15.6v9.4
			c5.6-7.2,12.6-10.8,21-10.8c3.7,0,7.1,0.7,10.2,2c3.1,1.3,5.4,3,7,5.1c1.6,2.1,2.7,4.4,3.3,7.1c0.6,2.6,0.9,6.4,0.9,11.3V621.1
			L617.5,621.1z"/>
		<path class="st6" d="M630.7,588.4c0-5.6,1.4-11,4.1-16.3c2.8-5.2,6.7-9.2,11.7-12c5.1-2.8,10.7-4.2,16.9-4.2
			c9.6,0,17.5,3.1,23.7,9.4c6.2,6.3,9.2,14.2,9.2,23.7c0,9.6-3.1,17.6-9.3,23.9c-6.2,6.3-14,9.5-23.5,9.5c-5.8,0-11.4-1.3-16.7-3.9
			c-5.3-2.6-9.3-6.5-12.1-11.6C632.1,601.9,630.7,595.7,630.7,588.4L630.7,588.4z M648,589.3c0,6.3,1.5,11.2,4.5,14.5
			c3,3.4,6.7,5,11.1,5c4.4,0,8.1-1.7,11.1-5c3-3.4,4.5-8.2,4.5-14.6c0-6.2-1.5-11-4.5-14.4c-3-3.4-6.7-5-11.1-5
			c-4.4,0-8.1,1.7-11.1,5C649.5,578.1,648,583,648,589.3L648,589.3z"/>
	</g>
</g>
</svg>
