<?xml version="1.0" encoding="utf-8"?>
<!-- Generator: Adobe Illustrator 19.2.0, SVG Export Plug-In . SVG Version: 6.00 Build 0)  -->
<svg version="1.1" id="Livello_1" xmlns="http://www.w3.org/2000/svg" xmlns:xlink="http://www.w3.org/1999/xlink" x="0px" y="0px"
	 viewBox="0 0 960 960" style="enable-background:new 0 0 960 960;" xml:space="preserve">
<style type="text/css">
	.st0{fill-rule:evenodd;clip-rule:evenodd;fill:#916740;stroke:#916740;stroke-width:0.961;stroke-miterlimit:2.6131;}
	.st1{fill-rule:evenodd;clip-rule:evenodd;fill:#FFFFFF;stroke:#1A171B;stroke-width:0.961;stroke-miterlimit:2.6131;}
	.st2{fill:none;stroke:#FFFFFF;stroke-width:6.4065;stroke-miterlimit:2.6131;}
	.st3{fill-rule:evenodd;clip-rule:evenodd;fill:#FFFFFF;stroke:#1A171B;stroke-width:6.4065;stroke-miterlimit:2.6131;}
	.st4{fill-rule:evenodd;clip-rule:evenodd;fill:#1A171B;}
	.st5{fill-rule:evenodd;clip-rule:evenodd;fill:#FFFFFF;stroke:#FFFFFF;stroke-width:0.961;stroke-miterlimit:2.6131;}
	.st6{fill-rule:evenodd;clip-rule:evenodd;fill:#1A171B;stroke:#1A171B;stroke-width:0.961;stroke-miterlimit:2.6131;}
	.st7{fill-rule:evenodd;clip-rule:evenodd;fill:#1A171B;stroke:#FFFFFF;stroke-width:0.961;stroke-miterlimit:2.6131;}
</style>
<g>
	<g>
		<polygon class="st0" points="45,177.2 915,177.2 915,622.7 45,622.7 45,177.2 		"/>
		<polygon class="st1" points="914.6,623.1 45,623.1 45,782.8 914.6,782.8 914.6,623.1 		"/>
		<path class="st2" d="M88.1,189h784.8c18.2,0,32.8,16,32.8,32.8v357.5c0,17.1-16,32.8-32.8,32.8H88.1c-16.4,0-32.4-14.3-32.4-32.8
			V221.8C55.7,203.6,70.3,189,88.1,189L88.1,189z"/>
		<path class="st3" d="M882.6,632.4H77.8c-11.8,0-23.5,12.1-23.5,23.2V750c0,11.4,11,23.2,23.5,23.2h804.8
			c12.1,0,23.2-10.3,23.2-23.2v-94.4C905.7,642.7,894,632.4,882.6,632.4L882.6,632.4z"/>
		<path class="st4" d="M414.6,726.5h-9.2v-34.9c-3.4,3.2-7.3,5.5-11.9,7v-8.4c2.4-0.8,5-2.3,7.8-4.5c2.8-2.2,4.7-4.8,5.8-7.7h7.5
			V726.5L414.6,726.5z"/>
		<path class="st4" d="M428.5,714l9.2-0.9c0.3,2.1,1,3.7,2.3,4.9c1.3,1.2,2.8,1.8,4.4,1.8c1.9,0,3.6-0.8,4.9-2.4
			c1.3-1.6,2-3.9,2-7.1c0-3-0.7-5.2-2-6.7c-1.3-1.5-3-2.2-5.2-2.2c-2.6,0-5,1.2-7.1,3.5l-7.5-1.1l4.7-25.1h24.3v8.7h-17.4l-1.4,8.2
			c2.1-1,4.1-1.6,6.3-1.6c4.1,0,7.5,1.5,10.4,4.5c2.8,3,4.3,6.9,4.3,11.6c0,4-1.1,7.5-3.4,10.6c-3.1,4.3-7.5,6.4-13,6.4
			c-4.4,0-8-1.2-10.8-3.6C430.7,721.3,429,718.1,428.5,714L428.5,714z"/>
		<path class="st4" d="M481.2,678c4.7,0,8.3,1.7,10.9,5c3.1,3.9,4.7,10.5,4.7,19.7c0,9.1-1.6,15.7-4.7,19.7
			c-2.6,3.3-6.2,4.9-10.9,4.9c-4.7,0-8.4-1.8-11.3-5.4c-2.9-3.6-4.3-10-4.3-19.3c0-9.1,1.6-15.6,4.7-19.6
			C472.9,679.6,476.5,678,481.2,678L481.2,678z M481.2,685.6c-1.1,0-2.1,0.4-3,1.1c-0.9,0.7-1.6,2-2,3.8c-0.6,2.4-0.9,6.4-0.9,12.1
			c0,5.7,0.3,9.6,0.8,11.7c0.6,2.1,1.3,3.5,2.1,4.2c0.9,0.7,1.9,1.1,3,1.1c1.1,0,2.1-0.4,3-1.1c0.9-0.7,1.6-2,2-3.8
			c0.6-2.4,1-6.4,1-12.1c0-5.7-0.3-9.6-0.9-11.7c-0.6-2.1-1.3-3.5-2.1-4.2C483.3,686,482.3,685.6,481.2,685.6L481.2,685.6z"/>
		<path class="st4" d="M522.8,691.5h8.5v4.8c3-3.7,6.7-5.6,10.8-5.6c2.2,0,4.2,0.5,5.8,1.4c1.6,0.9,3,2.3,4,4.2
			c1.5-1.9,3.2-3.3,4.9-4.2c1.8-0.9,3.7-1.4,5.7-1.4c2.5,0,4.7,0.5,6.5,1.6c1.8,1,3.1,2.6,4,4.6c0.6,1.5,0.9,3.9,0.9,7.3v22.4h-9.2
			v-20c0-3.5-0.3-5.7-1-6.7c-0.8-1.3-2.2-2-3.9-2c-1.3,0-2.5,0.4-3.6,1.2c-1.1,0.8-1.9,1.9-2.4,3.5c-0.5,1.5-0.8,3.9-0.8,7.2v16.8
			h-9.2v-19.2c0-3.4-0.2-5.6-0.5-6.6c-0.3-1-0.8-1.7-1.5-2.2c-0.7-0.5-1.6-0.7-2.8-0.7c-1.4,0-2.7,0.4-3.8,1.2
			c-1.1,0.8-2,1.9-2.4,3.3c-0.5,1.5-0.7,3.8-0.7,7.2v17h-9.2V691.5L522.8,691.5z"/>
		<polygon class="st5" points="121.6,253.9 413.9,253.9 413.9,546.1 121.6,546.1 121.6,253.9 		"/>
		<polygon class="st5" points="546.1,253.9 838.4,253.9 838.4,546.1 546.1,546.1 546.1,253.9 		"/>
		<path class="st6" d="M217.4,517.2c-14.4-3.3-24.3-12.9-22.4-27.9l51.6-96.1c-23.6,12.8-36.8,20.3-58.8,25.3l-0.3-8.9l0.3-0.6
			c51.1-12.6,61.6-72.8,108.8-71c5.6,1.9,17,9.5,15.1,20.8l-62.2,118.7c-2,3.9-2,5.7,1.9,5.7c30.7-14.4,61.9-39.8,84.8-62.2v18.8
			l-58.5,52.7C257.2,509.6,240,517.2,217.4,517.2L217.4,517.2z"/>
		<path class="st6" d="M321,283.7c15.6,0,28.3,8.5,28.3,18.8c0,10.4-12.7,18.8-28.3,18.8c-15.6,0-28.3-8.5-28.3-18.8
			C292.7,292.1,305.4,283.7,321,283.7L321,283.7z"/>
		<path class="st7" d="M717.4,490.7l-0.2-50.3c0.1-9.2,0-17.9,13-20.3l72.6-19.4c6.5-2.1,6.5,2.2,6.5,6.7l-0.1,56.3l-13.2,3.4
			l0.2-22.6L730.3,462l0.2,24.1L717.4,490.7L717.4,490.7z"/>
		<path class="st7" d="M596.7,400.6l-0.1-32.9l26.1,13.4l77-22c10.9-2.1,10.9-2.1,17.5,2.3l65.7,35.5l-59.2,15.5
			c-11.1,4.6-12.6,8.6-14.8,19.6l0.1,28.4L596.7,400.6L596.7,400.6z"/>
		<path class="st7" d="M574.7,416.2l0-52.6c0.2-24.9,6.1-29.4,12.9-33.2l74.8-19.5c3.8-1,10.8,2.2,10.8,15.4l-83,23.8l-0.1,59.3
			L574.7,416.2L574.7,416.2z"/>
		<path class="st7" d="M619.6,370.7L600.2,360c-4.3-2.2-1.3-5.4,5.2-7.5l52.7-15.3c4.9-1.1,8.5-2.1,17.2,2.3L691,348
			c4.5,2.2,4.3,4.5,0,6.7l-54.2,14.5C629.8,370.9,624.6,372.6,619.6,370.7L619.6,370.7z"/>
	</g>
</g>
</svg>
