<?xml version="1.0" encoding="utf-8"?>
<!-- Generator: Adobe Illustrator 19.2.0, SVG Export Plug-In . SVG Version: 6.00 Build 0)  -->
<svg version="1.1" id="Livello_1" xmlns="http://www.w3.org/2000/svg" xmlns:xlink="http://www.w3.org/1999/xlink" x="0px" y="0px"
	 viewBox="0 0 960 960" style="enable-background:new 0 0 960 960;" xml:space="preserve">
<style type="text/css">
	.st0{fill-rule:evenodd;clip-rule:evenodd;fill:#005EA7;}
	.st1{fill:none;stroke:#FFFFFF;stroke-width:11.816;stroke-miterlimit:2.6131;}
	.st2{fill-rule:evenodd;clip-rule:evenodd;fill:#FFFFFF;}
	.st3{fill-rule:evenodd;clip-rule:evenodd;fill:#1A171B;}
</style>
<g>
	<g>
		<polygon class="st0" points="180,181.6 780,181.6 780,778.4 180,778.4 180,181.6 		"/>
		<path class="st1" d="M230.8,199.3h499.3c18.3,0,33.2,14.9,33.2,33.2v496.1c0,18.3-14.9,33.2-33.2,33.2H230.8
			c-18.3,0-33.2-14.9-33.2-33.2V232.5C197.6,214.2,212.6,199.3,230.8,199.3L230.8,199.3z"/>
		<polygon class="st2" points="723.4,690.1 480.3,269.5 237.8,690.1 723.4,690.1 		"/>
		<polygon class="st3" points="634.2,669.7 597.1,579.6 629.9,579.6 680,669.7 634.2,669.7 		"/>
		<polygon class="st3" points="275.6,669.7 325.7,579.6 357.2,579.6 320.1,669.7 275.6,669.7 		"/>
		<path class="st3" d="M363.4,669.7l30.9-90.1H416c-8.5,18.7-11.9,23.9-20.4,41.5c-3.4,12.1,9.6,24.1,20.2,21.7l-4.1,27H363.4
			L363.4,669.7z"/>
		<polygon class="st3" points="456.1,669.7 463.5,579.6 493.3,579.6 500.6,669.7 456.1,669.7 		"/>
		<path class="st3" d="M545.1,669.7l-3.6-30.5c11.1-2.6,13.6-8.7,13.6-19.8l-14.9-39.8h23.6l26,90.1H545.1L545.1,669.7z"/>
		<path class="st3" d="M403,621.3l61.6-126.7l-5.8-26.6l-27.5,30.4c-9.2,12.9-28.5-1.5-18.1-13.7l51.4-59.5c2.7-2.3,2.7-2.5,7.7-5
			l20.8-6.5c2.5,0.2,6.5,0.6,9,3.1l39.3,42.7c2.5,2.5,2.5,5.4,2.5,7.7c0,12.7,0,19.4,0,32.2c0,11.4-19.8,11.4-19.8,0v-27L506.8,455
			l-5.2,37.5l46.2,128c3.9,11.4-21,17.5-25.2,6.9l-39.9-105.7L428.4,630C420.2,645.2,399.4,632.7,403,621.3L403,621.3z"/>
		<path class="st3" d="M478.3,373.3c10.2,0,18.6,8.3,18.6,18.6c0,10.2-8.3,18.6-18.6,18.6c-10.2,0-18.6-8.3-18.6-18.6
			C459.7,381.6,468.1,373.3,478.3,373.3L478.3,373.3z"/>
	</g>
</g>
</svg>
