<?xml version="1.0" encoding="utf-8"?>
<!-- Generator: Adobe Illustrator 19.2.0, SVG Export Plug-In . SVG Version: 6.00 Build 0)  -->
<svg version="1.1" id="Livello_1" xmlns="http://www.w3.org/2000/svg" xmlns:xlink="http://www.w3.org/1999/xlink" x="0px" y="0px"
	 viewBox="0 0 960 960" style="enable-background:new 0 0 960 960;" xml:space="preserve">
<style type="text/css">
	.st0{fill-rule:evenodd;clip-rule:evenodd;fill:#005EA7;}
	.st1{fill:none;stroke:#FFFFFF;stroke-width:11.816;stroke-miterlimit:2.6131;}
	.st2{fill-rule:evenodd;clip-rule:evenodd;fill:#FFFFFF;stroke:#FFFFFF;stroke-width:1.1816;stroke-miterlimit:2.6131;}
	.st3{fill-rule:evenodd;clip-rule:evenodd;fill:#FFFFFF;}
	.st4{fill-rule:evenodd;clip-rule:evenodd;fill:#E1001A;stroke:#E1001A;stroke-width:1.1816;stroke-miterlimit:2.6131;}
</style>
<g>
	<g>
		<polygon class="st0" points="180,181.6 780,181.6 780,778.4 180,778.4 180,181.6 		"/>
		<path class="st1" d="M230.8,199.3h499.3c18.3,0,33.2,14.9,33.2,33.2v496.1c0,18.3-14.9,33.2-33.2,33.2H230.8
			c-18.3,0-33.2-14.9-33.2-33.2V232.5C197.6,214.2,212.6,199.3,230.8,199.3L230.8,199.3z"/>
		<polygon class="st2" points="319.5,351.4 319.5,243 639.2,243 639.2,351.4 319.5,351.4 		"/>
		<polygon class="st3" points="425.5,243.1 533.9,243.1 533.9,713.6 425.5,713.6 425.5,243.1 		"/>
		<polygon class="st4" points="329.4,342.4 329.4,252.2 629.6,252.2 629.6,342.4 329.4,342.4 		"/>
	</g>
</g>
</svg>
