<?xml version="1.0" encoding="utf-8"?>
<!-- Generator: Adobe Illustrator 19.2.0, SVG Export Plug-In . SVG Version: 6.00 Build 0)  -->
<svg version="1.1" id="Livello_1" xmlns="http://www.w3.org/2000/svg" xmlns:xlink="http://www.w3.org/1999/xlink" x="0px" y="0px"
	 viewBox="0 0 960 960" style="enable-background:new 0 0 960 960;" xml:space="preserve">
<style type="text/css">
	.st0{fill-rule:evenodd;clip-rule:evenodd;fill:#005EA7;}
	.st1{fill:none;stroke:#FFFFFF;stroke-width:11.816;stroke-miterlimit:2.6131;}
	.st2{fill-rule:evenodd;clip-rule:evenodd;fill:#FFFFFF;stroke:#FFFFFF;stroke-width:1.1816;stroke-miterlimit:2.6131;}
	.st3{fill-rule:evenodd;clip-rule:evenodd;fill:#FFFFFF;}
	.st4{fill-rule:evenodd;clip-rule:evenodd;fill:#E1001A;stroke:#E1001A;stroke-width:1.1816;stroke-miterlimit:2.6131;}
</style>
<g>
	<g>
		<polygon class="st0" points="180,181.6 780,181.6 780,778.4 180,778.4 180,181.6 		"/>
		<path class="st1" d="M230.8,199.3h499.3c18.3,0,33.2,14.9,33.2,33.2v496.1c0,18.3-14.9,33.2-33.2,33.2H230.8
			c-18.3,0-33.2-14.9-33.2-33.2V232.5C197.6,214.2,212.6,199.3,230.8,199.3L230.8,199.3z"/>
		<polygon class="st2" points="606.3,320.7 714.7,320.7 714.7,640.4 606.3,640.4 606.3,320.7 		"/>
		<polygon class="st3" points="715,426.7 715,535.1 246.8,535.1 246.8,426.7 715,426.7 		"/>
		<polygon class="st3" points="243.9,245.9 351.5,245.9 351.5,716.4 243.9,716.4 243.9,245.9 		"/>
		<polygon class="st4" points="615.3,330.5 705.5,330.5 705.5,630.8 615.3,630.8 615.3,330.5 		"/>
	</g>
</g>
</svg>
