<?xml version="1.0" encoding="utf-8"?>
<!-- Generator: Adobe Illustrator 19.2.0, SVG Export Plug-In . SVG Version: 6.00 Build 0)  -->
<svg version="1.1" id="Livello_1" xmlns="http://www.w3.org/2000/svg" xmlns:xlink="http://www.w3.org/1999/xlink" x="0px" y="0px"
	 viewBox="0 0 960 960" style="enable-background:new 0 0 960 960;" xml:space="preserve">
<style type="text/css">
	.st0{fill-rule:evenodd;clip-rule:evenodd;fill:#005EA7;}
	.st1{fill-rule:evenodd;clip-rule:evenodd;fill:#FFFFFF;}
	.st2{fill:none;stroke:#FFFFFF;stroke-width:11.816;stroke-miterlimit:2.6131;}
</style>
<g>
	<g>
		<polygon class="st0" points="180,181.6 780,181.6 780,778.4 180,778.4 180,181.6 		"/>
		<path class="st1" d="M461.7,405.1l-55.6,5.8c-1.3-10.9-4.9-18.9-10.6-24.1c-5.7-5.2-13.2-7.8-22.3-7.8c-12.1,0-22.3,5.2-30.8,15.6
			c-8.4,10.3-13.6,31.9-15.8,64.6c14.4-16,32.1-24.1,53.3-24.1c24,0,44.5,8.7,61.6,26.1c17.1,17.3,25.7,39.7,25.7,67.2
			c0,29.2-9,52.5-27,70.1c-17.9,17.6-41.1,26.4-69.3,26.4c-30.2,0-55.1-11.1-74.5-33.5c-19.5-22.3-29.2-58.9-29.2-109.8
			c0-52.2,10.1-89.8,30.4-112.8c20.3-23.1,46.7-34.6,79.1-34.6c22.7,0,41.6,6.1,56.5,18.2C448.1,364.4,457.6,382,461.7,405.1
			L461.7,405.1z M331.6,524.1c0,17.7,4.3,31.4,12.8,41c8.6,9.7,18.4,14.5,29.4,14.5c10.7,0,19.5-4,26.6-11.9
			c7.1-7.9,10.6-20.9,10.6-38.8c0-18.5-3.8-32.1-11.4-40.7c-7.6-8.6-17.1-12.9-28.6-12.9c-11,0-20.4,4.1-28,12.3
			C335.3,495.9,331.6,508.1,331.6,524.1L331.6,524.1z"/>
		<path class="st1" d="M596.8,334.1c29.1,0,51.7,9.9,68.1,29.6c19.5,23.3,29.2,61.9,29.2,115.9c0,53.8-9.8,92.5-29.4,116.1
			c-16.2,19.4-38.8,29.1-67.9,29.1s-52.6-10.6-70.4-32c-17.9-21.3-26.8-59.3-26.8-113.9c0-53.6,9.8-92.2,29.4-115.7
			C545.2,343.9,567.8,334.1,596.8,334.1L596.8,334.1z M596.8,379.4c-6.9,0-13.1,2.1-18.5,6.3c-5.4,4.2-9.7,11.8-12.7,22.7
			c-3.9,14.1-5.9,37.9-5.9,71.3c0,33.4,1.8,56.4,5.3,68.8c3.6,12.5,8,20.8,13.4,25c5.4,4.1,11.6,6.2,18.5,6.2c7,0,13.2-2.1,18.6-6.4
			c5.4-4.2,9.7-11.7,12.7-22.6c3.9-14,5.9-37.7,5.9-71.1c0-33.4-1.8-56.3-5.3-68.9c-3.6-12.5-8-20.8-13.4-25.1
			C609.9,381.5,603.8,379.4,596.8,379.4L596.8,379.4z"/>
		<path class="st2" d="M230.8,199.3h499.3c18.3,0,33.2,14.9,33.2,33.2v496.1c0,18.3-14.9,33.2-33.2,33.2H230.8
			c-18.3,0-33.2-14.9-33.2-33.2V232.5C197.6,214.2,212.6,199.3,230.8,199.3L230.8,199.3z"/>
	</g>
</g>
</svg>
