<?xml version="1.0" encoding="utf-8"?>
<!-- Generator: Adobe Illustrator 19.2.0, SVG Export Plug-In . SVG Version: 6.00 Build 0)  -->
<svg version="1.1" id="Livello_1" xmlns="http://www.w3.org/2000/svg" xmlns:xlink="http://www.w3.org/1999/xlink" x="0px" y="0px"
	 viewBox="0 0 960 960" style="enable-background:new 0 0 960 960;" xml:space="preserve">
<style type="text/css">
	.st0{fill-rule:evenodd;clip-rule:evenodd;fill:#005EA7;}
	.st1{fill-rule:evenodd;clip-rule:evenodd;fill:#FFFFFF;stroke:#005EA7;stroke-width:1.1816;stroke-miterlimit:2.6131;}
	.st2{fill-rule:evenodd;clip-rule:evenodd;fill:#E1001A;stroke:#E1001A;stroke-width:1.1816;stroke-miterlimit:2.6131;}
	.st3{fill:none;stroke:#FFFFFF;stroke-width:11.816;stroke-miterlimit:2.6131;}
</style>
<g>
	<g>
		<polygon class="st0" points="180,181.6 780,181.6 780,778.4 180,778.4 180,181.6 		"/>
		<path class="st1" d="M288.1,640.8v-44.9h63.3v46.3c0,7.6-7.5,9.9-15.5,9.9l-33.3-0.5C290.9,652.1,288.1,648.8,288.1,640.8
			L288.1,640.8z"/>
		<path class="st1" d="M606.9,640.8v-44.9h63.8l-0.5,46.3c0,7.6-7.5,9.9-15.5,9.9l-34.7-0.5C610.2,652.1,605.9,648.8,606.9,640.8
			L606.9,640.8z"/>
		<path class="st1" d="M272.6,585c-13.6,0-13.6-23.2-0.5-23.2h417.1c12.7,0,13.1,23.2-0.5,23.2H272.6L272.6,585z"/>
		<path class="st1" d="M299.4,444.7l27.2-95c7.5-10.4,15.5-16.1,25.3-18.4c84.9-12.8,169.8-12.8,257.1,0.5
			c10.8,1.9,18.3,9.9,25.8,20.3l25.8,90.7l-23-5.2L617,365.3c-2.3-8-7.5-10.4-15.5-15.6c-79.8-10.4-159.5-10.4-239.3,0
			c-10.3,1.9-12.7,4.3-17.8,12.8L323.3,440L299.4,444.7L299.4,444.7z"/>
		<path class="st1" d="M293.5,550.7c-19.9,0-27.1-22.3-27.1-46.2c0-24.6,9.2-36.9,27.1-44.6c126.4-27.3,243.3-29.6,367.1-3.5
			c20.2,6.9,32.8,23.5,32.5,48.1c0,23.9-3.1,44.2-21.8,45.4L293.5,550.7L293.5,550.7z M315.7,471.8c16.8,0,30.6,13.5,30.6,30.4
			c0,16.9-13.8,30.8-30.6,30.8c-16.8,0-30.6-13.9-30.6-30.8C285.1,485.2,298.8,471.8,315.7,471.8L315.7,471.8z M644.2,471.8
			c16.8,0,30.6,13.9,30.6,30.8c0,16.5-13.8,30.8-30.6,30.8c-16.4,0-30.2-14.2-30.2-30.8C614,485.6,627.7,471.8,644.2,471.8
			L644.2,471.8z"/>
		<path class="st2" d="M675.6,198.6h54c7.1,0,13.4,1.6,18.9,5.1l10.2,10.2c3.2,5.1,4.7,11,4.7,17.7v52L286.8,760.3h-55.9
			c-18.9,0-33.1-13.4-33.1-33.1V676L675.6,198.6L675.6,198.6z"/>
		<path class="st3" d="M230.8,199.3h499.3c18.3,0,33.2,14.9,33.2,33.2v496.1c0,18.3-14.9,33.2-33.2,33.2H230.8
			c-18.3,0-33.2-14.9-33.2-33.2V232.5C197.6,214.2,212.6,199.3,230.8,199.3L230.8,199.3z"/>
		<path class="st3" d="M230.4,199.3h499.3c18.3,0,33.2,14.9,33.2,33.2v496.1c0,18.3-14.9,33.2-33.2,33.2H230.4
			c-18.3,0-33.2-14.9-33.2-33.2V232.5C197.2,214.2,212.2,199.3,230.4,199.3L230.4,199.3z"/>
	</g>
</g>
</svg>
