<?xml version="1.0" encoding="utf-8"?>
<!-- Generator: Adobe Illustrator 19.2.0, SVG Export Plug-In . SVG Version: 6.00 Build 0)  -->
<svg version="1.1" id="Livello_1" xmlns="http://www.w3.org/2000/svg" xmlns:xlink="http://www.w3.org/1999/xlink" x="0px" y="0px"
	 viewBox="0 0 960 960" style="enable-background:new 0 0 960 960;" xml:space="preserve">
<style type="text/css">
	.st0{fill-rule:evenodd;clip-rule:evenodd;fill:#008E43;}
	.st1{fill-rule:evenodd;clip-rule:evenodd;fill:#FFFFFF;stroke:#FFFFFF;stroke-width:1.1816;stroke-miterlimit:2.6131;}
	.st2{fill:none;stroke:#FFFFFF;stroke-width:11.816;stroke-miterlimit:2.6131;}
</style>
<g>
	<g>
		<polygon class="st0" points="180,181.6 780,181.6 780,778.4 180,778.4 180,181.6 		"/>
		<path class="st1" d="M663,583.4c-24.8-76.8-97.3-133.1-181.6-133.1s-157.2,56.3-182,133.1h-42.1V383.7h446.6v199.7H663L663,583.4z
			"/>
		<path class="st2" d="M230.8,199.3h499.3c18.3,0,33.2,14.9,33.2,33.2v496.1c0,18.3-14.9,33.2-33.2,33.2H230.8
			c-18.3,0-33.2-14.9-33.2-33.2V232.5C197.6,214.2,212.6,199.3,230.8,199.3L230.8,199.3z"/>
	</g>
</g>
</svg>
