<?xml version="1.0" encoding="utf-8"?>
<!-- Generator: Adobe Illustrator 19.2.0, SVG Export Plug-In . SVG Version: 6.00 Build 0)  -->
<svg version="1.1" id="Livello_1" xmlns="http://www.w3.org/2000/svg" xmlns:xlink="http://www.w3.org/1999/xlink" x="0px" y="0px"
	 viewBox="0 0 960 960" style="enable-background:new 0 0 960 960;" xml:space="preserve">
<style type="text/css">
	.st0{fill:#FFFFFF;stroke:#1A171B;stroke-width:0.8671;stroke-miterlimit:2.6131;}
	.st1{fill:none;stroke:#1A171B;stroke-width:8.6705;stroke-miterlimit:2.6131;}
	.st2{fill-rule:evenodd;clip-rule:evenodd;fill:#FFFFFF;stroke:#1A171B;stroke-width:0.8671;stroke-miterlimit:2.6131;}
	.st3{fill-rule:evenodd;clip-rule:evenodd;fill:#005EA7;}
	.st4{fill-rule:evenodd;clip-rule:evenodd;fill:#FFFFFF;}
	.st5{fill-rule:evenodd;clip-rule:evenodd;fill:#1A171B;}
	.st6{fill-rule:evenodd;clip-rule:evenodd;fill:#E1001A;}
</style>
<g>
	<g>
		<polygon class="st0" points="180,172.6 780,172.6 780,787.4 180,787.4 180,172.6 		"/>
		<path class="st1" d="M215.8,183h528c14.4,0,25.7,11.8,25.7,25.4v542.8c0,13.6-11.9,25.4-25.7,25.4h-528
			c-13.6,0-25.4-11.3-25.4-25.4V208.5C190.4,194,201.4,183,215.8,183L215.8,183z"/>
		<path class="st2" d="M494.2,440.7c45.5,8.1,75,24.7,102.8,62.1c15.8,25.4,23.1,49.1,24.2,78.8c-2,59.5-32.8,105-86.2,130
			c-60.5,24.9-121.3,7.6-164.3-40.2c-27-35.4-37.1-74.3-29.2-118.5c9.2-34.1,22.4-56.7,48.6-80.4c28-20.9,54.4-31.3,89.8-32.3
			L494.2,440.7L494.2,440.7z"/>
		<path class="st3" d="M480.3,450.5c72,0,130.8,58.8,130.8,130.8c0,72-58.8,130.8-130.8,130.8c-72,0-130.8-58.8-130.8-130.8
			C349.5,509.2,408.3,450.5,480.3,450.5L480.3,450.5z"/>
		<path class="st4" d="M424.8,665.8l46.3-95.2l-5.4-20.4l-20.7,23.3c-6.9,9.7-20.4-1.2-12.6-10.3c12.9-14.9,25.8-29.8,38.6-44.7
			c2-1.7,2-1.9,5.8-3.8c5.5-1.9,11-3.8,16.6-5.6c1.9,0.1,1.9,0.1,3.8,2c10.4,11.1,21,22.3,31.5,33.4c1.9,1.9,1.9,3.8,1.9,5.5
			c0,9.5,0,14.6,0,24.2c0,8.5-14.9,8.5-14.9,0v-20.3l-13-13.2l-3.9,28.2l34.7,96.2c2.9,8.5-14.2,14.2-17.7,6.2l-30.7-84.5
			l-43.4,84.5C435.7,682.9,422.1,674.3,424.8,665.8L424.8,665.8z"/>
		<path class="st4" d="M481.4,479.3c7.7,0,14,6.3,14,14c0,7.7-6.3,14-14,14c-7.7,0-14-6.3-14-14
			C467.4,485.6,473.7,479.3,481.4,479.3L481.4,479.3z"/>
		<path class="st5" d="M434.8,303.3h-10.6l-4.2-15.2h-19.2l-4,15.2h-10.3l18.8-66.9h10.3L434.8,303.3L434.8,303.3z M416.9,276.8
			l-6.6-24.8l-6.5,24.8H416.9L416.9,276.8z"/>
		<path class="st5" d="M439.9,303.3v-66.9h20.5c5.1,0,8.9,0.6,11.2,1.8c2.3,1.2,4.2,3.3,5.6,6.4c1.4,3.1,2.1,6.6,2.1,10.5
			c0,5-1.1,9.2-3.2,12.4c-2.1,3.3-5.3,5.3-9.5,6.2c2.1,1.7,3.8,3.6,5.2,5.6c1.4,2,3.2,5.7,5.5,10.8l5.9,13h-11.6l-7-14.6
			c-2.5-5.2-4.2-8.5-5.1-9.8c-0.9-1.4-1.9-2.3-2.9-2.8c-1-0.5-2.7-0.7-4.9-0.7h-2v27.9H439.9L439.9,303.3z M449.7,264.7h7.2
			c4.7,0,7.6-0.3,8.7-0.8c1.2-0.5,2.1-1.5,2.7-2.8c0.6-1.3,1-3,1-5c0-2.3-0.4-4.1-1.3-5.4c-0.9-1.4-2.1-2.3-3.7-2.6
			c-0.8-0.1-3.1-0.2-7.1-0.2h-7.6V264.7L449.7,264.7z"/>
		<polygon class="st5" points="488.5,303.3 488.5,236.4 524.2,236.4 524.2,247.7 498.2,247.7 498.2,262.5 522.4,262.5 522.4,273.8 
			498.2,273.8 498.2,292 525.1,292 525.1,303.3 488.5,303.3 		"/>
		<path class="st5" d="M576.7,303.3h-10.6l-4.2-15.2h-19.2l-4,15.2h-10.3l18.7-66.9h10.3L576.7,303.3L576.7,303.3z M558.9,276.8
			l-6.6-24.8l-6.5,24.8H558.9L558.9,276.8z"/>
		<path class="st5" d="M299.8,397.2v-66.9h15.6c5.9,0,9.8,0.3,11.6,1c2.8,1,5.1,3.2,6.9,6.5c1.9,3.4,2.8,7.7,2.8,13
			c0,4.1-0.5,7.6-1.6,10.4c-1.1,2.8-2.4,5-4.1,6.6c-1.6,1.6-3.3,2.6-5,3.2c-2.3,0.6-5.7,1-10.1,1h-6.3v25.2H299.8L299.8,397.2z
			 M309.5,341.6v19h5.3c3.8,0,6.4-0.3,7.7-1c1.3-0.7,2.3-1.8,3-3.3c0.7-1.5,1.1-3.2,1.1-5.2c0-2.4-0.5-4.4-1.5-6
			c-1-1.6-2.3-2.6-3.9-3c-1.2-0.3-3.5-0.5-7-0.5H309.5L309.5,341.6z"/>
		<polygon class="st5" points="344.7,397.2 344.7,330.3 380.3,330.3 380.3,341.6 354.4,341.6 354.4,356.5 378.5,356.5 378.5,367.7 
			354.4,367.7 354.4,385.9 381.3,385.9 381.3,397.2 344.7,397.2 		"/>
		<path class="st5" d="M389.5,330.3h17.8c4,0,7,0.4,9.2,1.3c2.8,1.2,5.2,3.2,7.3,6.2c2,2.9,3.6,6.6,4.6,10.8c1,4.3,1.6,9.5,1.6,15.8
			c0,5.5-0.5,10.2-1.5,14.2c-1.2,4.9-2.9,8.8-5.2,11.8c-1.7,2.3-4,4.1-6.8,5.3c-2.1,0.9-5,1.4-8.6,1.4h-18.3V330.3L389.5,330.3z
			 M399.2,341.6v44.3h7.3c2.7,0,4.7-0.2,5.9-0.6c1.6-0.5,2.9-1.5,3.9-2.8c1-1.3,1.9-3.5,2.5-6.5c0.7-3,1-7.1,1-12.3
			c0-5.2-0.3-9.1-1-11.9c-0.7-2.8-1.6-4.9-2.8-6.5c-1.2-1.6-2.7-2.6-4.5-3.1c-1.4-0.4-4-0.6-8-0.6H399.2L399.2,341.6z"/>
		<path class="st5" d="M436.1,364.2c0-6.8,0.7-12.5,2.2-17.2c1.1-3.4,2.6-6.5,4.5-9.2c1.9-2.7,4-4.7,6.2-6c3-1.8,6.5-2.6,10.4-2.6
			c7.1,0,12.8,3.1,17,9.2c4.3,6.1,6.4,14.6,6.4,25.5c0,10.8-2.1,19.2-6.3,25.3c-4.2,6.1-9.9,9.1-16.9,9.1c-7.2,0-12.9-3-17.1-9.1
			C438.2,383.2,436.1,374.8,436.1,364.2L436.1,364.2z M446.1,363.7c0,7.6,1.3,13.3,3.8,17.2c2.5,3.9,5.7,5.9,9.6,5.9
			c3.9,0,7.1-1.9,9.5-5.8c2.5-3.9,3.7-9.7,3.7-17.4c0-7.7-1.2-13.4-3.6-17.2c-2.4-3.8-5.6-5.6-9.6-5.6c-4,0-7.2,1.9-9.7,5.7
			C447.3,350.3,446.1,356,446.1,363.7L446.1,363.7z"/>
		<polygon class="st5" points="490.5,397.2 490.5,330.3 499.9,330.3 519.7,375 519.7,330.3 528.7,330.3 528.7,397.2 518.9,397.2 
			499.5,353.6 499.5,397.2 490.5,397.2 		"/>
		<path class="st5" d="M582.4,397.2h-10.6l-4.2-15.2h-19.2l-4,15.2h-10.3l18.8-66.9h10.3L582.4,397.2L582.4,397.2z M564.5,370.7
			l-6.6-24.8l-6.5,24.8H564.5L564.5,370.7z"/>
		<polygon class="st5" points="587.8,397.2 587.8,330.9 597.5,330.9 597.5,385.9 621.7,385.9 621.7,397.2 587.8,397.2 		"/>
		<polygon class="st5" points="628.6,397.2 628.6,330.3 664.3,330.3 664.3,341.6 638.3,341.6 638.3,356.5 662.5,356.5 662.5,367.7 
			638.3,367.7 638.3,385.9 665.2,385.9 665.2,397.2 628.6,397.2 		"/>
		<polygon class="st6" points="627.4,423.2 714.4,423.2 321.4,740.3 234.6,740.3 627.4,423.2 		"/>
	</g>
</g>
</svg>
