<?xml version="1.0" encoding="utf-8"?>
<!-- Generator: Adobe Illustrator 19.2.0, SVG Export Plug-In . SVG Version: 6.00 Build 0)  -->
<svg version="1.1" id="Livello_1" xmlns="http://www.w3.org/2000/svg" xmlns:xlink="http://www.w3.org/1999/xlink" x="0px" y="0px"
	 viewBox="0 0 960 960" style="enable-background:new 0 0 960 960;" xml:space="preserve">
<style type="text/css">
	.st0{fill:#FFFFFF;stroke:#1A171B;stroke-width:0.8671;stroke-miterlimit:2.6131;}
	.st1{fill:none;stroke:#1A171B;stroke-width:8.6705;stroke-miterlimit:2.6131;}
	.st2{fill-rule:evenodd;clip-rule:evenodd;fill:#1A171B;}
	.st3{fill-rule:evenodd;clip-rule:evenodd;fill:#FFFFFF;stroke:#1A171B;stroke-width:0.8671;stroke-miterlimit:2.6131;}
	.st4{fill-rule:evenodd;clip-rule:evenodd;fill:#E1001A;}
	.st5{fill-rule:evenodd;clip-rule:evenodd;fill:#FFFFFF;}
	.st6{fill-rule:evenodd;clip-rule:evenodd;fill:#E1001A;stroke:#FFFFFF;stroke-width:8.6705;stroke-miterlimit:2.6131;}
</style>
<g>
	<g>
		<polygon class="st0" points="180,172.6 780,172.6 780,787.4 180,787.4 180,172.6 		"/>
		<path class="st1" d="M215.8,183h528c14.4,0,25.7,11.8,25.7,25.4v542.8c0,13.6-11.9,25.4-25.7,25.4h-528
			c-13.6,0-25.4-11.3-25.4-25.4V208.5C190.4,194,201.4,183,215.8,183L215.8,183z"/>
		<polygon class="st2" points="407.1,303 407.1,290.8 427.2,247.4 409.4,247.4 409.4,236.1 437.3,236.1 437.3,246.6 416.4,291.7 
			438.1,291.7 438.1,303 407.1,303 		"/>
		<path class="st2" d="M440.9,270c0-6.8,0.6-12.5,1.7-17.2c0.9-3.4,2.1-6.5,3.6-9.2c1.5-2.7,3.1-4.7,4.9-6c2.4-1.8,5.1-2.6,8.2-2.6
			c5.6,0,10.1,3.1,13.5,9.2c3.4,6.1,5.1,14.6,5.1,25.5c0,10.8-1.7,19.2-5,25.3c-3.3,6.1-7.8,9.1-13.4,9.1c-5.7,0-10.2-3-13.5-9.1
			C442.5,289,440.9,280.6,440.9,270L440.9,270z M448.8,269.5c0,7.6,1,13.3,3,17.2c2,3.9,4.5,5.9,7.6,5.9c3.1,0,5.6-1.9,7.6-5.8
			c2-3.9,2.9-9.7,2.9-17.4c0-7.7-1-13.4-2.9-17.2c-1.9-3.8-4.5-5.6-7.6-5.6c-3.2,0-5.7,1.9-7.7,5.7
			C449.8,256.1,448.8,261.8,448.8,269.5L448.8,269.5z"/>
		<polygon class="st2" points="483.3,303 483.3,236.1 490.8,236.1 506.5,280.8 506.5,236.1 513.6,236.1 513.6,303 505.9,303 
			490.5,259.4 490.5,303 483.3,303 		"/>
		<path class="st2" d="M555.5,303h-8.4l-3.3-15.2h-15.2l-3.1,15.2h-8.2l14.9-66.9h8.1L555.5,303L555.5,303z M541.4,276.5l-5.3-24.8
			l-5.2,24.8H541.4L541.4,276.5z"/>
		<polygon class="st2" points="234.7,396.9 234.7,341.3 223.4,341.3 223.4,330 253.7,330 253.7,341.3 242.4,341.3 242.4,396.9 
			234.7,396.9 		"/>
		<path class="st2" d="M258.1,396.9V330h16.2c4.1,0,7,0.6,8.9,1.8c1.8,1.2,3.3,3.3,4.4,6.4c1.1,3.1,1.7,6.6,1.7,10.5
			c0,5-0.8,9.2-2.5,12.4c-1.7,3.3-4.2,5.3-7.5,6.2c1.7,1.7,3,3.6,4.1,5.6c1.1,2,2.5,5.7,4.4,10.9l4.7,13h-9.2l-5.6-14.6
			c-2-5.2-3.3-8.5-4.1-9.8c-0.7-1.4-1.5-2.3-2.3-2.8c-0.8-0.5-2.1-0.7-3.9-0.7h-1.6v27.9H258.1L258.1,396.9z M265.8,358.3h5.7
			c3.7,0,6-0.3,6.9-0.8c0.9-0.5,1.6-1.5,2.2-2.8c0.5-1.3,0.8-3,0.8-5c0-2.3-0.3-4.1-1-5.4c-0.7-1.4-1.7-2.3-2.9-2.6
			c-0.6-0.1-2.5-0.2-5.6-0.2h-6V358.3L265.8,358.3z"/>
		<path class="st2" d="M330.4,396.9H322l-3.3-15.2h-15.2l-3.1,15.2h-8.2l14.9-66.9h8.1L330.4,396.9L330.4,396.9z M316.2,370.4
			l-5.3-24.8l-5.1,24.8H316.2L316.2,370.4z"/>
		<polygon class="st2" points="333.9,396.9 333.9,330 360,330 360,341.3 341.6,341.3 341.6,357.2 357.5,357.2 357.5,368.5 
			341.6,368.5 341.6,396.9 333.9,396.9 		"/>
		<polygon class="st2" points="365.8,396.9 365.8,330 392,330 392,341.3 373.5,341.3 373.5,357.2 389.5,357.2 389.5,368.5 
			373.5,368.5 373.5,396.9 365.8,396.9 		"/>
		<polygon class="st2" points="397.5,396.9 397.5,330 405.2,330 405.2,396.9 397.5,396.9 		"/>
		<path class="st2" d="M436.4,372.3l7.5,4.1c-1.1,7.3-3,12.7-5.7,16.3c-2.7,3.5-6,5.3-10.1,5.3c-5.1,0-9.2-3-12.5-9.1
			c-3.3-6.1-4.9-14.4-4.9-24.9c0-11.1,1.6-19.8,4.9-25.9c3.3-6.1,7.6-9.2,12.9-9.2c4.7,0,8.5,2.4,11.4,7.3c1.7,2.8,3,7,3.9,12.3
			l-7.6,3.2c-0.4-3.5-1.4-6.2-2.8-8.2c-1.4-2-3.2-3-5.2-3c-2.8,0-5.1,1.8-6.9,5.3c-1.8,3.5-2.6,9.3-2.6,17.3
			c0,8.5,0.9,14.5,2.6,18.1c1.7,3.6,4,5.4,6.8,5.4c2.1,0,3.8-1.1,5.3-3.4C434.7,380.8,435.7,377.2,436.4,372.3L436.4,372.3z"/>
		<path class="st2" d="M448.3,363.9c0-6.8,0.6-12.5,1.7-17.2c0.9-3.4,2.1-6.5,3.6-9.2c1.5-2.7,3.1-4.7,4.9-6
			c2.4-1.8,5.1-2.6,8.2-2.6c5.6,0,10.1,3.1,13.5,9.2c3.4,6.1,5.1,14.6,5.1,25.5c0,10.8-1.7,19.2-5,25.3c-3.3,6.1-7.8,9.1-13.4,9.1
			c-5.7,0-10.2-3-13.5-9.1C450,382.9,448.3,374.5,448.3,363.9L448.3,363.9z M456.2,363.4c0,7.6,1,13.3,3,17.2c2,3.9,4.5,5.9,7.6,5.9
			c3.1,0,5.6-1.9,7.6-5.8c2-3.9,2.9-9.7,2.9-17.4c0-7.7-1-13.4-2.9-17.2c-1.9-3.8-4.5-5.7-7.6-5.7c-3.2,0-5.7,1.9-7.7,5.7
			C457.2,350,456.2,355.7,456.2,363.4L456.2,363.4z"/>
		<polygon class="st2" points="505.6,396.9 505.6,330.6 513.3,330.6 513.3,385.6 532.4,385.6 532.4,396.9 505.6,396.9 		"/>
		<polygon class="st2" points="537.1,396.9 537.1,330 544.8,330 544.8,396.9 537.1,396.9 		"/>
		<polygon class="st2" points="551.4,396.9 551.4,330 563,330 569.9,375.6 576.7,330 588.3,330 588.3,396.9 581.1,396.9 
			581.1,344.3 573.6,396.9 566.1,396.9 558.6,344.3 558.6,396.9 551.4,396.9 		"/>
		<polygon class="st2" points="595.1,396.9 595.1,330 602.8,330 602.8,396.9 595.1,396.9 		"/>
		<polygon class="st2" points="618.1,396.9 618.1,341.3 606.8,341.3 606.8,330 637.1,330 637.1,341.3 625.8,341.3 625.8,396.9 
			618.1,396.9 		"/>
		<path class="st2" d="M672,396.9h-8.4l-3.3-15.2H645l-3.1,15.2h-8.2l14.9-66.9h8.1L672,396.9L672,396.9z M657.8,370.4l-5.3-24.8
			l-5.2,24.8H657.8L657.8,370.4z"/>
		<polygon class="st2" points="680.1,396.9 680.1,341.3 668.8,341.3 668.8,330 699.1,330 699.1,341.3 687.8,341.3 687.8,396.9 
			680.1,396.9 		"/>
		<path class="st2" d="M700.9,363.9c0-6.8,0.6-12.5,1.7-17.2c0.9-3.4,2.1-6.5,3.6-9.2c1.5-2.7,3.1-4.7,4.9-6
			c2.4-1.8,5.1-2.6,8.2-2.6c5.6,0,10.1,3.1,13.5,9.2c3.4,6.1,5.1,14.6,5.1,25.5c0,10.8-1.7,19.2-5,25.3c-3.3,6.1-7.8,9.1-13.4,9.1
			c-5.7,0-10.2-3-13.5-9.1C702.6,382.9,700.9,374.5,700.9,363.9L700.9,363.9z M708.9,363.4c0,7.6,1,13.3,3,17.2
			c2,3.9,4.5,5.9,7.6,5.9c3.1,0,5.6-1.9,7.6-5.8c2-3.9,3-9.7,3-17.4c0-7.7-1-13.4-2.9-17.2c-1.9-3.8-4.5-5.7-7.6-5.7
			c-3.2,0-5.7,1.9-7.7,5.7C709.8,350,708.9,355.7,708.9,363.4L708.9,363.4z"/>
		<path class="st3" d="M495,440.4c45.5,8.1,75,24.7,102.7,62c15.8,25.4,23.1,49.1,24.2,78.8c-2,59.5-32.8,105-86.2,129.9
			c-60.5,24.9-121.3,7.6-164.3-40.2c-27-35.3-37.1-74.2-29.2-118.5c9.2-34.1,22.4-56.7,48.6-80.4c28-20.9,54.4-31.3,89.8-32.3
			L495,440.4L495,440.4z"/>
		<path class="st4" d="M480.9,450.5c71.9,0,130.6,58.7,130.6,130.6s-58.7,130.6-130.6,130.6c-71.9,0-130.6-58.7-130.6-130.6
			S409,450.5,480.9,450.5L480.9,450.5z"/>
		<path class="st5" d="M480.9,483.9c53.5,0,97.2,43.7,97.2,97.2c0,53.5-43.7,97.2-97.2,97.2c-53.5,0-97.2-43.7-97.2-97.2
			C383.7,527.6,427.4,483.9,480.9,483.9L480.9,483.9z"/>
		<polygon class="st6" points="631.2,422.6 719.9,422.6 319.3,739.7 230.9,739.7 631.2,422.6 		"/>
	</g>
</g>
</svg>
