<?xml version="1.0" encoding="utf-8"?>
<!-- Generator: Adobe Illustrator 19.2.0, SVG Export Plug-In . SVG Version: 6.00 Build 0)  -->
<svg version="1.1" id="Livello_1" xmlns="http://www.w3.org/2000/svg" xmlns:xlink="http://www.w3.org/1999/xlink" x="0px" y="0px"
	 viewBox="0 0 960 960" style="enable-background:new 0 0 960 960;" xml:space="preserve">
<style type="text/css">
	.st0{fill:#FFFFFF;stroke:#1A171B;stroke-width:0.8997;stroke-miterlimit:2.6131;}
	.st1{fill:none;stroke:#1A171B;stroke-width:8.9969;stroke-miterlimit:2.6131;}
	.st2{fill-rule:evenodd;clip-rule:evenodd;fill:#1A171B;}
	.st3{fill-rule:evenodd;clip-rule:evenodd;fill:#C5C6C8;}
</style>
<g>
	<g>
		<polygon class="st0" points="45,145.5 915,145.5 915,814.5 45,814.5 45,145.5 		"/>
		<path class="st1" d="M97.2,160.2h765.3c21,0,37.8,17.7,37.8,37.5v564.4c0,19.2-18.3,37.2-37.8,37.2H97.2
			c-19.2,0-37.5-16.8-37.5-37.2V197.6C59.7,176.4,76.2,160.2,97.2,160.2L97.2,160.2z"/>
		<path class="st2" d="M351.8,601.3v156.2h-28.2V601.3h-0.3V601H203.6l5.4,28.2c0,4.8-1.8,4.8-5.4,4.8l-80.4-46.8l80.4-47.4
			c3,0,5.4,0,5.4,4.8l-5.4,28.2h119.7V397.7c0-27.6,22.5-50.1,50.1-50.1h213.2c27.6,0,50.1,22.5,50.1,50.1v153.5
			c0,27.6-22.5,50.1-50.1,50.1H373.4H351.8L351.8,601.3z M351.8,524.8L351.8,524.8v48h233.9c9.6,0,22.5-12.9,22.5-22.5V398.6
			c0-12.6-9.9-22.5-22.5-22.5H374.3c-12.6,0-22.5,9.9-22.5,22.5V524.8L351.8,524.8z"/>
		<polygon class="st3" points="101.1,423.8 289.1,423.8 289.1,525.1 101.1,525.1 101.1,423.8 		"/>
		<polygon class="st3" points="386.3,423.8 574.3,423.8 574.3,525.1 386.3,525.1 386.3,423.8 		"/>
		<polygon class="st3" points="573.7,757.9 573.7,649 385.7,649 385.7,757.9 573.7,757.9 		"/>
		<polygon class="st3" points="289.1,757.9 289.1,649 101.1,649 101.1,757.9 289.1,757.9 		"/>
		<polygon class="st3" points="858.9,757.9 858.9,423.8 671.5,423.8 671.5,757.9 858.9,757.9 		"/>
		<polygon class="st3" points="386.3,201.5 573.7,201.5 573.7,299.6 386.3,299.6 386.3,201.5 		"/>
		<polygon class="st3" points="670.9,201.5 858.9,201.5 858.9,299.6 670.9,299.6 670.9,201.5 		"/>
		<polygon class="st3" points="101.1,201.8 289.1,201.8 289.1,299.9 101.1,299.9 101.1,201.8 		"/>
	</g>
</g>
</svg>
