<?xml version="1.0" encoding="utf-8"?>
<!-- Generator: Adobe Illustrator 19.2.0, SVG Export Plug-In . SVG Version: 6.00 Build 0)  -->
<svg version="1.1" id="Livello_1" xmlns="http://www.w3.org/2000/svg" xmlns:xlink="http://www.w3.org/1999/xlink" x="0px" y="0px"
	 viewBox="0 0 960 960" style="enable-background:new 0 0 960 960;" xml:space="preserve">
<style type="text/css">
	.st0{fill-rule:evenodd;clip-rule:evenodd;fill:#005EA7;}
	.st1{fill:none;stroke:#FFFFFF;stroke-width:11.816;stroke-miterlimit:2.6131;}
	.st2{fill-rule:evenodd;clip-rule:evenodd;fill:#FFFFFF;}
</style>
<g>
	<g>
		<polygon class="st0" points="180,181.6 780,181.6 780,778.4 180,778.4 180,181.6 		"/>
		<path class="st1" d="M230.8,199.3h499.3c18.3,0,33.2,14.9,33.2,33.2v496.1c0,18.3-14.9,33.2-33.2,33.2H230.8
			c-18.3,0-33.2-14.9-33.2-33.2V232.5C197.6,214.2,212.6,199.3,230.8,199.3L230.8,199.3z"/>
		<path class="st2" d="M464.7,375.6h-87.2l46-130.2h47.9L464.7,375.6L464.7,375.6z M355.1,439.5h106.4l-13.8,274.8H258.4
			L355.1,439.5L355.1,439.5z"/>
		<path class="st2" d="M586.5,375.6h-87.2l-6.5-130.2h47.9L586.5,375.6L586.5,375.6z M502.6,439.5H609l96.9,274.8H516.7L502.6,439.5
			L502.6,439.5z"/>
		<path class="st2" d="M220.9,439.8c-1.8-3.6,1.5-8.6,5.4-7.7l34.9,8c0-22.7,18.8-50.7,42.6-50.7h334.1c24.4,0,32.5,22.4,40.2,40.8
			l25,76.6h-23.8l-22.9-66.5c-5.7-10.7-8.9-29.8-26.5-29.5H314.2c-15.2-0.3-25.6,14.9-26.5,29.2l40.2-8c4.5-0.9,6.9,4.8,4.8,7.7
			l-58.1,96.3L220.9,439.8L220.9,439.8z"/>
	</g>
</g>
</svg>
