<?xml version="1.0" encoding="utf-8"?>
<!-- Generator: Adobe Illustrator 19.2.0, SVG Export Plug-In . SVG Version: 6.00 Build 0)  -->
<svg version="1.1" id="Livello_1" xmlns="http://www.w3.org/2000/svg" xmlns:xlink="http://www.w3.org/1999/xlink" x="0px" y="0px"
	 viewBox="0 0 960 960" style="enable-background:new 0 0 960 960;" xml:space="preserve">
<style type="text/css">
	.st0{fill-rule:evenodd;clip-rule:evenodd;fill:#005EA7;stroke:#172982;stroke-width:0.9137;stroke-miterlimit:2.6131;}
	.st1{fill:none;stroke:#FFFFFF;stroke-width:9.1371;stroke-miterlimit:2.6131;}
	.st2{fill-rule:evenodd;clip-rule:evenodd;fill:#FFFFFF;}
</style>
<g>
	<g>
		<polygon class="st0" points="252.1,120 707.9,120 707.9,840 252.1,840 252.1,120 		"/>
		<path class="st1" d="M300.9,134h358.2c20.3,0,36.4,16.6,36.4,36.7v619.4c0,20.1-16.3,36.7-36.4,36.7H300.9
			c-20.1,0-36.4-16.3-36.4-36.7V170.6C264.5,150.3,280.5,134,300.9,134L300.9,134z"/>
		<polygon class="st2" points="327.1,681.7 370.4,681.7 370.4,795.3 327.1,795.3 327.1,681.7 		"/>
		<polygon class="st2" points="327.1,164.8 370.4,164.8 370.4,278.4 327.1,278.4 327.1,164.8 		"/>
		<path class="st2" d="M399.6,164.2l43.9-0.6v87.1L631.7,360c0,302.7,0-70.7,0,239.7l-17.1,9.7l-171.5,99v86.8h-43.6V742v-36.2
			v-28.3l188.5-108.7c0-65.8,0-113,0-177.9l-188.5-109v-19.5v-25.6V164.2L399.6,164.2z"/>
		<polygon class="st2" points="370.4,566.8 327.1,566.8 327.1,622.9 370.4,622.9 370.4,566.8 		"/>
		<polygon class="st2" points="327.1,452.6 370.4,452.6 370.4,507.7 327.1,507.7 327.1,452.6 		"/>
		<polygon class="st2" points="327.1,337.5 370.4,337.5 370.4,392.6 327.1,392.6 327.1,337.5 		"/>
	</g>
</g>
</svg>
