<?xml version="1.0" encoding="utf-8"?>
<!-- Generator: Adobe Illustrator 19.2.0, SVG Export Plug-In . SVG Version: 6.00 Build 0)  -->
<svg version="1.1" id="Livello_1" xmlns="http://www.w3.org/2000/svg" xmlns:xlink="http://www.w3.org/1999/xlink" x="0px" y="0px"
	 viewBox="0 0 960 960" style="enable-background:new 0 0 960 960;" xml:space="preserve">
<style type="text/css">
	.st0{fill-rule:evenodd;clip-rule:evenodd;fill:#005EA7;}
	.st1{fill:none;stroke:#FFFFFF;stroke-width:11.816;stroke-miterlimit:2.6131;}
	.st2{fill-rule:evenodd;clip-rule:evenodd;fill:#FFFFFF;}
	.st3{fill-rule:evenodd;clip-rule:evenodd;fill:#E1001A;}
	.st4{fill-rule:evenodd;clip-rule:evenodd;fill:#1A171B;}
</style>
<g>
	<g>
		<polygon class="st0" points="180,181.7 780,181.7 780,778.3 180,778.3 180,181.7 		"/>
		<path class="st1" d="M230.8,199.3h499.3c18.3,0,33.2,14.9,33.2,33.2v496.1c0,18.3-14.9,33.2-33.2,33.2H230.8
			c-18.3,0-33.2-14.9-33.2-33.2V232.5C197.6,214.2,212.6,199.3,230.8,199.3L230.8,199.3z"/>
		<path class="st2" d="M622.7,261.3l79,130.3c0.2,4.7,0,8.5-7.8,8.5l-47.4-8.4l0,309.1l-47.6-0.1l0-309.1l-47.2,8.6
			c-8,0-8-4.2-8.1-8.5L622.7,261.3L622.7,261.3z"/>
		<path class="st2" d="M335.9,261.3l79,130.3c0.2,4.7,0,8.5-7.8,8.5l-47.4-8.4l0,309.1l-47.6-0.1l0-309.1l-47.2,8.6
			c-8,0-8-4.2-8.1-8.5L335.9,261.3L335.9,261.3z"/>
		<path class="st2" d="M346.7,450.4c28.4,5.1,46.9,15.4,64.2,38.8c9.9,15.9,14.5,30.7,15.1,49.3c-1.3,37.2-20.5,65.6-53.9,81.2
			c-37.8,15.6-75.8,4.8-102.7-25.1c-16.8-22.1-23.2-46.4-18.3-74.1c5.7-21.3,14-35.4,30.4-50.2c17.5-13,34-19.5,56.1-20.2
			L346.7,450.4L346.7,450.4z"/>
		<path class="st3" d="M338,455.8c45.3,0,82.2,36.9,82.2,82.2c0,45.3-36.9,82.2-82.2,82.2c-45.3,0-82.2-36.9-82.2-82.2
			C255.9,492.8,292.8,455.8,338,455.8L338,455.8z"/>
		<path class="st2" d="M338,476.9c33.7,0,61.2,27.5,61.2,61.2c0,33.7-27.5,61.2-61.2,61.2c-33.7,0-61.2-27.5-61.2-61.2
			C276.9,504.3,304.4,476.9,338,476.9L338,476.9z"/>
		<path class="st4" d="M287,556.5v-18.5l6.2-15.8h17v26H357c-2.6,0.9-4.4,4.4-4.7,8.3h-42.2c-0.6-13.5-19.6-13.5-20,0H287L287,556.5
			z"/>
		<path class="st4" d="M367.3,548.3h15.6v3.8l-10.9,4.2C372.2,552.8,369.7,549.1,367.3,548.3L367.3,548.3z"/>
		<polygon class="st4" points="312.3,546.1 312.3,511 382.9,511 382.9,546.2 312.3,546.1 		"/>
		<polygon class="st2" points="291,536 294.9,525.8 307.5,525.8 307.5,536 291,536 		"/>
		<path class="st4" d="M300.1,548.4c4.5,0,8.2,3.7,8.2,8.2c0,4.5-3.7,8.2-8.2,8.2c-4.5,0-8.2-3.7-8.2-8.2
			C291.9,552.1,295.6,548.4,300.1,548.4L300.1,548.4z"/>
		<path class="st4" d="M362.2,548.4c4.5,0,8.2,3.7,8.2,8.2c0,4.5-3.7,8.2-8.2,8.2c-4.5,0-8.2-3.7-8.2-8.2
			C354,552.1,357.7,548.4,362.2,548.4L362.2,548.4z"/>
		<path class="st2" d="M300.2,552.6c2.2,0,3.9,1.8,3.9,3.9c0,2.2-1.8,3.9-3.9,3.9c-2.2,0-3.9-1.8-3.9-3.9
			C296.2,554.4,298,552.6,300.2,552.6L300.2,552.6z"/>
		<path class="st2" d="M362.2,552.6c2.2,0,3.9,1.8,3.9,3.9c0,2.2-1.8,3.9-3.9,3.9c-2.2,0-3.9-1.8-3.9-3.9
			C358.3,554.4,360.1,552.6,362.2,552.6L362.2,552.6z"/>
	</g>
</g>
</svg>
