<?xml version="1.0" encoding="utf-8"?>
<!-- Generator: Adobe Illustrator 19.2.0, SVG Export Plug-In . SVG Version: 6.00 Build 0)  -->
<svg version="1.1" id="Livello_1" xmlns="http://www.w3.org/2000/svg" xmlns:xlink="http://www.w3.org/1999/xlink" x="0px" y="0px"
	 viewBox="0 0 960 960" style="enable-background:new 0 0 960 960;" xml:space="preserve">
<style type="text/css">
	.st0{fill-rule:evenodd;clip-rule:evenodd;fill:#008E43;}
	.st1{fill:none;stroke:#FFFFFF;stroke-width:11.7939;stroke-miterlimit:2.6131;}
	.st2{fill-rule:evenodd;clip-rule:evenodd;fill:#FFFFFF;}
	.st3{fill-rule:evenodd;clip-rule:evenodd;fill:#005EA7;}
</style>
<polygon class="st0" points="45,182.6 915,182.6 915,777.4 45,777.4 45,182.6 "/>
<path class="st1" d="M95.3,199.5h769.4c18.9,0,33.4,14.9,33.4,33.4v494.2c0,19.3-14.9,33.4-33.4,33.4H95.3
	c-18.5,0-33.4-13.8-33.4-33.4V232.9C61.9,214,76.5,199.5,95.3,199.5L95.3,199.5z"/>
<path class="st2" d="M760.7,260.7l76.6,131c0.2,4.7,0,8.6-7.6,8.6l-46-8.5l0,310.8l-46.2-0.1l0-310.8l-45.8,8.7
	c-7.8,0-7.8-4.3-7.8-8.6L760.7,260.7L760.7,260.7z"/>
<path class="st2" d="M274.3,488.4c-14.9-20.1-30.6-30.6-52.7-36.5l0-60.1l46,8.5c7.6,0,7.8-3.9,7.6-8.6l-76.6-131l-76.7,131.1
	c0,4.3,0,8.6,7.8,8.6l45.8-8.7l0,61c-11.2,3.3-21.4,8.8-31.9,16.6c-16.6,14.9-24.9,29.2-30.7,50.7c-5,27.9,1.4,52.5,18.5,74.8
	c12.7,14,27.8,23.9,44.1,28.9l0,78.9l46.2,0.1l0-78.1c4.5-1.1,9-2.6,13.5-4.5c33.8-15.7,53.2-44.4,54.5-82
	C289,519.3,284.3,504.4,274.3,488.4z"/>
<path class="st2" d="M555,488.4c-14.9-20.1-30.6-30.6-52.7-36.5l0-60.1l46,8.5c7.6,0,7.8-3.9,7.6-8.6l-76.6-131l-76.7,131.1
	c0,4.3,0,8.6,7.8,8.6l45.8-8.7l0,61c-11.2,3.3-21.4,8.8-31.9,16.6c-16.6,14.9-24.9,29.2-30.7,50.7c-5,27.9,1.4,52.5,18.5,74.8
	c12.7,14,27.8,23.9,44.1,28.9l0,78.9l46.2,0.1l0-78.1c4.5-1.1,9-2.6,13.5-4.5c33.8-15.7,53.2-44.4,54.5-82
	C569.6,519.3,565,504.4,555,488.4z"/>
<g>
	<path class="st3" d="M238.1,513.1c-1.5-1.2-3.1-1.8-5-1.8c-1.9,0-3.5,0.6-5,1.8c-1.5,1.2-2.6,3.3-3.4,6.4c-1.1,4-1.6,10.8-1.6,20.2
		c0,9.5,0.5,16,1.4,19.5c1,3.6,2.2,5.9,3.6,7.1c1.5,1.2,3.1,1.8,5,1.8c1.9,0,3.6-0.6,5-1.8c1.5-1.2,2.6-3.3,3.4-6.4
		c1.1-4,1.6-10.7,1.6-20.2c0-9.5-0.5-16-1.4-19.6C240.8,516.7,239.6,514.3,238.1,513.1z"/>
	<path class="st3" d="M200.3,455.4c-45.4,0-82.4,37-82.4,82.4c0,45.4,37,82.5,82.4,82.5c45.4,0,82.4-37,82.4-82.5
		C282.8,492.4,245.7,455.4,200.3,455.4z M188.7,571.3c-5.5,6.5-12.6,9.8-21.4,9.8c-6.3,0-11.4-1.7-15.3-5c-3.9-3.4-6.4-8.4-7.5-15.1
		l15-1.7c0.4,3.1,1.3,5.3,2.9,6.8c1.5,1.5,3.6,2.2,6.1,2.2c3.2,0,5.9-1.5,8.2-4.4c2.3-2.9,3.7-9,4.3-18.3c-3.9,4.5-8.8,6.8-14.6,6.8
		c-6.4,0-11.9-2.5-16.5-7.4c-4.6-4.9-6.9-11.3-6.9-19.2c0-8.2,2.4-14.8,7.3-19.8c4.9-5,11.1-7.5,18.6-7.5c8.2,0,14.9,3.2,20.2,9.5
		c5.3,6.3,7.9,16.8,7.9,31.3C196.9,554.1,194.2,564.7,188.7,571.3z M251.5,572.8c-4.4,5.5-10.5,8.3-18.3,8.3c-7.8,0-14.2-3-19-9.1
		c-4.8-6-7.2-16.8-7.2-32.3c0-15.2,2.7-26.2,7.9-32.9c4.4-5.5,10.5-8.3,18.3-8.3c7.9,0,14,2.8,18.4,8.4c5.3,6.6,7.9,17.6,7.9,32.9
		C259.4,555.1,256.7,566.1,251.5,572.8z"/>
	<path class="st3" d="M168.1,511.3c-2.9,0-5.3,1.1-7.1,3.4c-1.9,2.3-2.8,6-2.8,11.1c0,5.2,1,9.1,3.1,11.5c2,2.4,4.6,3.7,7.7,3.7
		c3,0,5.5-1.2,7.5-3.5c2.1-2.4,3.1-5.8,3.1-10.4c0-5-1.1-8.9-3.4-11.6C173.8,512.7,171.1,511.3,168.1,511.3z"/>
</g>
<g>
	<path class="st3" d="M517.3,513.2c-1.5-1.2-3.1-1.8-5-1.8c-1.9,0-3.5,0.6-5,1.8c-1.5,1.2-2.6,3.3-3.4,6.4c-1.1,4-1.6,10.7-1.6,20.2
		c0,9.5,0.5,16,1.4,19.5c1,3.6,2.2,5.9,3.6,7.1c1.5,1.2,3.1,1.8,5,1.8c1.9,0,3.6-0.6,5-1.8c1.5-1.2,2.6-3.3,3.4-6.4
		c1.1-4,1.6-10.7,1.6-20.2c0-9.5-0.5-16-1.4-19.6C519.9,516.8,518.7,514.4,517.3,513.2z"/>
	<path class="st3" d="M451.3,538.6c-3,0-5.5,1.2-7.5,3.5c-2.1,2.3-3.1,5.8-3.1,10.4c0,5,1.1,8.9,3.5,11.7c2.3,2.8,5,4.1,7.9,4.1
		c2.9,0,5.3-1.1,7.2-3.4c1.9-2.2,2.9-5.9,2.9-11c0-5.3-1-9.1-3.1-11.6C457,539.9,454.4,538.6,451.3,538.6z"/>
	<path class="st3" d="M481,455.4c-45.4,0-82.4,37-82.4,82.4c0,45.4,37,82.5,82.4,82.5c45.4,0,82.4-37,82.4-82.5
		C563.4,492.4,526.4,455.4,481,455.4z M470,573.6c-4.8,5-11.1,7.5-18.7,7.5c-8.1,0-14.9-3.2-20.1-9.5c-5.2-6.3-7.9-16.7-7.9-31.2
		c0-14.8,2.7-25.5,8.2-32c5.5-6.6,12.6-9.8,21.4-9.8c6.1,0,11.2,1.7,15.2,5.2c4,3.4,6.6,8.4,7.7,15l-15,1.7
		c-0.4-3.1-1.3-5.4-2.9-6.9c-1.5-1.5-3.6-2.2-6-2.2c-3.3,0-6,1.5-8.3,4.4c-2.3,2.9-3.7,9.1-4.3,18.4c3.9-4.6,8.7-6.8,14.4-6.8
		c6.5,0,12,2.5,16.6,7.4c4.6,4.9,6.9,11.3,6.9,19.1C477.3,562,474.8,568.6,470,573.6z M530.6,572.8c-4.4,5.5-10.5,8.3-18.3,8.3
		c-7.9,0-14.2-3-19-9.1c-4.8-6-7.2-16.8-7.2-32.3c0-15.2,2.7-26.2,7.9-32.9c4.4-5.5,10.5-8.3,18.3-8.3c7.8,0,14,2.8,18.4,8.4
		c5.3,6.6,7.9,17.6,7.9,32.9C538.5,555.1,535.9,566.1,530.6,572.8z"/>
</g>
</svg>
