<?xml version="1.0" encoding="utf-8"?>
<!-- Generator: Adobe Illustrator 19.2.0, SVG Export Plug-In . SVG Version: 6.00 Build 0)  -->
<svg version="1.1" id="Livello_1" xmlns="http://www.w3.org/2000/svg" xmlns:xlink="http://www.w3.org/1999/xlink" x="0px" y="0px"
	 viewBox="0 0 960 960" style="enable-background:new 0 0 960 960;" xml:space="preserve">
<style type="text/css">
	.st0{fill:#FFFFFF;stroke:#1A171B;stroke-width:1.1816;stroke-miterlimit:2.6131;}
	.st1{fill:none;stroke:#1A171B;stroke-width:11.816;stroke-miterlimit:2.6131;}
	.st2{fill-rule:evenodd;clip-rule:evenodd;fill:#1A171B;}
	.st3{fill-rule:evenodd;clip-rule:evenodd;fill:#FFFFFF;stroke:#1A171B;stroke-width:0.3939;stroke-miterlimit:2.6131;}
	.st4{fill-rule:evenodd;clip-rule:evenodd;fill:#005EA7;}
	.st5{fill-rule:evenodd;clip-rule:evenodd;fill:#FFFFFF;}
	.st6{fill-rule:evenodd;clip-rule:evenodd;fill:#FFEC00;stroke:#1A171B;stroke-width:2.3632;stroke-miterlimit:2.6131;}
</style>
<g>
	<g>
		<polygon class="st0" points="180,181.6 780,181.6 780,778.4 180,778.4 180,181.6 		"/>
		<path class="st1" d="M230.8,199.3h499.3c18.3,0,33.2,14.9,33.2,33.2v496.1c0,18.3-14.9,33.2-33.2,33.2H230.8
			c-18.3,0-33.2-14.9-33.2-33.2V232.5C197.6,214.2,212.6,199.3,230.8,199.3L230.8,199.3z"/>
		<path class="st2" d="M628.2,259.7L705,391c0.2,4.7,0,8.6-7.6,8.6l-46.1-8.5l0,311.4l-46.3-0.1l0-311.4l-45.9,8.7
			c-7.8,0-7.8-4.3-7.8-8.6L628.2,259.7L628.2,259.7z"/>
		<path class="st2" d="M340.4,702.8l-76.8-131.4c-0.2-4.7,0-8.6,7.6-8.6l46.1,8.5l0-311.7l46.3,0.1l0,311.7l45.9-8.7
			c7.8,0,7.8,4.3,7.8,8.6L340.4,702.8L340.4,702.8z"/>
		<path class="st3" d="M329.6,513.8c-28.9-5.1-47.6-15.6-65.1-39.3c-10-16.1-14.7-31-15.3-49.9c1.3-37.6,20.8-66.4,54.7-82.2
			c38.4-15.8,76.9-4.8,104.2,25.4c17.1,22.4,23.5,47,18.5,75c-5.8,21.6-14.2,35.9-30.8,50.8c-17.7,13.2-34.5,19.8-56.9,20.4
			L329.6,513.8L329.6,513.8z"/>
		<path class="st4" d="M338.7,507.6c-45.5,0-82.7-37.1-82.7-82.7c0-45.5,37.1-82.7,82.7-82.7c45.5,0,82.7,37.1,82.7,82.7
			C421.4,470.4,384.2,507.6,338.7,507.6L338.7,507.6z"/>
		<path class="st5" d="M331.5,438.8v-31.1h16.1v31.1H331.5L331.5,438.8z M351,438.8v-14.2h37.8v14.2h-3c0-14.2-21.7-14.6-21.7,0H351
			L351,438.8z M392.2,438.8v-31.1h16.5l1.5,14.2H406v-10.9l-4.1-0.4v24.3h4.1v-10.5h4.1l1.1,14.2H392.2L392.2,438.8z M270.5,438.8
			l-1.1-14.2h3.7v10.5h3.7v-24.3h-3.7V422H269l-1.1-14.2h18.7v31.1H270.5L270.5,438.8z M289.6,438.8v-14.2h38.5v14.2h-13.8
			c-0.4-14.6-21.7-14.6-21.7,0H289.6L289.6,438.8z M279.9,435.1v-24.3h3.7v24.3H279.9L279.9,435.1z M334.5,435.1v-24.3h3.4v24.3
			H334.5L334.5,435.1z M341.3,435.1v-24.3h3.4l0.4,24.3H341.3L341.3,435.1z M395.2,435.1v-24.3h3.4v24.3H395.2L395.2,435.1z
			 M289.6,422v-14.2h38.5V422H289.6L289.6,422z M351,422v-14.2h37.8V422H351L351,422z M292.6,418.6v-7.9h15v7.9H292.6L292.6,418.6z
			 M311,418.6v-7.9h14.2v7.9H311L311,418.6z M354,410.8h14.2v7.9H354V410.8L354,410.8z M371.6,418.6v-7.9h14.2v7.9H371.6
			L371.6,418.6z M303.5,430.2c4.9,0,9,3.7,9,8.2c0,5.2-4.1,9-9,9c-4.9,0-8.6-3.7-8.6-9C294.9,434,298.6,430.2,303.5,430.2
			L303.5,430.2z M303.5,435.1c2.2,0,3.7,1.9,3.7,3.4c0,1.9-1.5,3.7-3.7,3.7c-1.9,0-3-1.9-3-3.7C300.5,437,301.6,435.1,303.5,435.1
			L303.5,435.1z M375,435.1c1.9,0,3.4,1.9,3.4,3.4c0,1.9-1.5,3.7-3.4,3.7c-1.9,0-3-1.9-3-3.7C372,437,373.1,435.1,375,435.1
			L375,435.1z M375,430.2c4.9,0,9,3.7,9,8.2c0,5.2-4.1,9-9,9c-4.9,0-8.6-3.7-8.6-9C366.4,434,370.1,430.2,375,430.2L375,430.2z"/>
		<polygon class="st6" points="503.3,703.9 471.7,703.9 471.7,261.2 503.3,261.2 503.3,703.9 		"/>
	</g>
</g>
</svg>
