<?xml version="1.0" encoding="utf-8"?>
<!-- Generator: Adobe Illustrator 19.2.0, SVG Export Plug-In . SVG Version: 6.00 Build 0)  -->
<svg version="1.1" id="Livello_1" xmlns="http://www.w3.org/2000/svg" xmlns:xlink="http://www.w3.org/1999/xlink" x="0px" y="0px"
	 viewBox="0 0 960 960" style="enable-background:new 0 0 960 960;" xml:space="preserve">
<style type="text/css">
	.st0{fill-rule:evenodd;clip-rule:evenodd;fill:#FFFFFF;stroke:#1A171B;stroke-width:1.1794;stroke-miterlimit:2.6131;}
	.st1{fill:none;stroke:#1A171B;stroke-width:11.7939;stroke-miterlimit:2.6131;}
	.st2{fill-rule:evenodd;clip-rule:evenodd;fill:#1A171B;}
	.st3{fill-rule:evenodd;clip-rule:evenodd;fill:#FFFFFF;stroke:#1A171B;stroke-width:0.3931;stroke-miterlimit:2.6131;}
	.st4{fill-rule:evenodd;clip-rule:evenodd;fill:#005EA7;}
	.st5{fill-rule:evenodd;clip-rule:evenodd;fill:#FFFFFF;}
	.st6{fill-rule:evenodd;clip-rule:evenodd;fill:#FFEC00;stroke:#1A171B;stroke-width:2.3588;stroke-miterlimit:2.6131;}
</style>
<g>
	<g>
		<polygon class="st0" points="45,182.6 915,182.6 915,777.4 45,777.4 45,182.6 		"/>
		<path class="st1" d="M95.3,199.5h769.4c18.9,0,33.4,14.9,33.4,33.4v494.2c0,19.3-14.9,33.4-33.4,33.4H95.3
			c-18.5,0-33.4-13.8-33.4-33.4V232.9C61.9,214,76.5,199.5,95.3,199.5L95.3,199.5z"/>
		<path class="st2" d="M198.6,260.7l76.6,131c0.2,4.7,0,8.6-7.6,8.6l-46-8.5l0,310.8l-46.2-0.1l0-310.8l-45.8,8.7
			c-7.8,0-7.8-4.3-7.8-8.6L198.6,260.7L198.6,260.7z"/>
		<path class="st2" d="M473.9,260.7l76.6,131c0.2,4.7,0,8.6-7.6,8.6l-46-8.5l0,310.8l-46.2-0.1l0-310.8l-45.8,8.7
			c-7.8,0-7.8-4.3-7.8-8.6L473.9,260.7L473.9,260.7z"/>
		<path class="st2" d="M761.1,260.3l76.7,131.1c0.2,4.7,0,8.6-7.6,8.6l-46-8.5l0,311.1l-46.2-0.1l0-311.1l-45.8,8.7
			c-7.8,0-7.8-4.3-7.8-8.6L761.1,260.3L761.1,260.3z"/>
		<path class="st3" d="M771.9,449c28.8,5.1,47.5,15.6,65,39.2c10,16.1,14.6,31,15.3,49.8c-1.3,37.6-20.8,66.3-54.5,82
			c-38.3,15.7-76.8,4.8-104-25.4c-17.1-22.3-23.5-46.9-18.5-74.8c5.8-21.5,14.2-35.8,30.7-50.7c17.7-13.2,34.4-19.7,56.8-20.4
			L771.9,449L771.9,449z"/>
		<path class="st4" d="M762.8,455.2c45.5,0,82.5,37.1,82.5,82.5c0,45.5-37.1,82.5-82.5,82.5c-45.4,0-82.5-37.1-82.5-82.5
			C680.3,492.3,717.4,455.2,762.8,455.2L762.8,455.2z"/>
		<path class="st5" d="M755.4,548.6v-31h16.1v31H755.4L755.4,548.6z M774.8,548.6v-14.2h37.7v14.2h-3c0-14.2-21.7-14.6-21.7,0H774.8
			L774.8,548.6z M815.9,548.6v-31h16.4l1.5,14.2h-4.1V521l-4.1-0.4v24.3h4.1v-10.5h4.1l1.1,14.2H815.9L815.9,548.6z M694.5,548.6
			l-1.1-14.2h3.7v10.5h3.7v-24.3h-3.7v11.2H693l-1.1-14.2h18.7v31H694.5L694.5,548.6z M713.5,548.6v-14.2H752v14.2h-13.8
			c-0.4-14.6-21.7-14.6-21.7,0H713.5L713.5,548.6z M703.8,544.9v-24.3h3.7v24.3H703.8L703.8,544.9z M758.4,544.9v-24.3h3.4v24.3
			H758.4L758.4,544.9z M765.1,544.9v-24.3h3.4l0.4,24.3H765.1L765.1,544.9z M818.9,544.9v-24.3h3.4v24.3H818.9L818.9,544.9z
			 M713.5,531.8v-14.2H752v14.2H713.5L713.5,531.8z M774.8,531.8v-14.2h37.7v14.2H774.8L774.8,531.8z M716.5,528.4v-7.8h14.9v7.8
			H716.5L716.5,528.4z M734.8,528.4v-7.8H749v7.8H734.8L734.8,528.4z M777.8,520.6H792v7.8h-14.2V520.6L777.8,520.6z M795.4,528.4
			v-7.8h14.2v7.8H795.4L795.4,528.4z M727.4,540c4.9,0,9,3.7,9,8.2c0,5.2-4.1,9-9,9c-4.9,0-8.6-3.7-8.6-9
			C718.8,543.7,722.5,540,727.4,540L727.4,540z M727.4,544.9c2.2,0,3.7,1.9,3.7,3.4c0,1.9-1.5,3.7-3.7,3.7c-1.9,0-3-1.9-3-3.7
			C724.4,546.7,725.5,544.9,727.4,544.9L727.4,544.9z M798.7,544.9c1.9,0,3.4,1.9,3.4,3.4c0,1.9-1.5,3.7-3.4,3.7c-1.9,0-3-1.9-3-3.7
			C795.7,546.7,796.9,544.9,798.7,544.9L798.7,544.9z M798.7,540c4.9,0,9,3.7,9,8.2c0,5.2-4.1,9-9,9c-4.9,0-8.6-3.7-8.6-9
			C790.1,543.7,793.9,540,798.7,540L798.7,540z"/>
		<polygon class="st6" points="598.5,259.3 630,259.3 630,701.1 598.5,701.1 598.5,259.3 		"/>
	</g>
</g>
</svg>
