<?xml version="1.0" encoding="utf-8"?>
<!-- Generator: Adobe Illustrator 19.2.0, SVG Export Plug-In . SVG Version: 6.00 Build 0)  -->
<svg version="1.1" id="Livello_1" xmlns="http://www.w3.org/2000/svg" xmlns:xlink="http://www.w3.org/1999/xlink" x="0px" y="0px"
	 viewBox="0 0 960 960" style="enable-background:new 0 0 960 960;" xml:space="preserve">
<style type="text/css">
	.st0{fill-rule:evenodd;clip-rule:evenodd;fill:#005EA7;}
	.st1{fill:none;stroke:#FFFFFF;stroke-width:11.816;stroke-miterlimit:2.6131;}
	.st2{fill-rule:evenodd;clip-rule:evenodd;fill:#FFFFFF;}
</style>
<g>
	<g>
		<polygon class="st0" points="180,181.6 780,181.6 780,778.4 180,778.4 180,181.6 		"/>
		<path class="st1" d="M230.8,199.3h499.3c18.3,0,33.2,14.9,33.2,33.2v496.1c0,18.3-14.9,33.2-33.2,33.2H230.8
			c-18.3,0-33.2-14.9-33.2-33.2V232.5C197.6,214.2,212.6,199.3,230.8,199.3L230.8,199.3z"/>
		<path class="st2" d="M335.6,258.7l78.9,130.4c0.2,4.7,0,8.5-7.8,8.5l-47.4-7.5l0.8,309l-48.3-0.1l0-309.9l-47.1,8.6
			c-8,0-8-4.3-8-8.5L335.6,258.7L335.6,258.7z"/>
		<path class="st2" d="M670.4,699.1h-48.7c-7.1-40.2-25.6-55.7-63.9-76.2L500.2,591l-16,43.9c-3.8,6.3-7.6,4.2-11.4,2.1l-77.2-131.2
			l156.1-0.8c4.4,2.4,7.6,4.2,3.8,10.5l-31.5,35.8l58.7,32.6c59,30.8,75.3,54.7,87.8,101.7V699.1L670.4,699.1z"/>
	</g>
</g>
</svg>
