<?xml version="1.0" encoding="utf-8"?>
<!-- Generator: Adobe Illustrator 19.2.0, SVG Export Plug-In . SVG Version: 6.00 Build 0)  -->
<svg version="1.1" id="Livello_1" xmlns="http://www.w3.org/2000/svg" xmlns:xlink="http://www.w3.org/1999/xlink" x="0px" y="0px"
	 viewBox="0 0 960 960" style="enable-background:new 0 0 960 960;" xml:space="preserve">
<style type="text/css">
	.st0{fill-rule:evenodd;clip-rule:evenodd;fill:#008E43;}
	.st1{fill:none;stroke:#FFFFFF;stroke-width:11.7939;stroke-miterlimit:2.6131;}
	.st2{fill-rule:evenodd;clip-rule:evenodd;fill:#FFFFFF;}
</style>
<g>
	<g>
		<polygon class="st0" points="45,182.6 915,182.6 915,777.4 45,777.4 45,182.6 		"/>
		<path class="st1" d="M95.3,199.5h769.4c18.9,0,33.4,14.9,33.4,33.4v494.2c0,19.3-14.9,33.4-33.4,33.4H95.3
			c-18.5,0-33.4-13.8-33.4-33.4V232.9C61.9,214,76.5,199.5,95.3,199.5L95.3,199.5z"/>
		<path class="st2" d="M197.8,261.6l76.1,130.1c0.2,4.6,0,8.5-7.5,8.5l-45.7-8.4l0,308.6l-45.9-0.1l0-308.6l-45.5,8.6
			c-7.7,0-7.7-4.2-7.8-8.5L197.8,261.6L197.8,261.6z"/>
		<path class="st2" d="M478.3,261.6l76.1,130.1c0.2,4.6,0,8.5-7.5,8.5l-45.7-8.4l0,308.6l-45.9-0.1l0-308.6l-45.5,8.6
			c-7.7,0-7.7-4.2-7.8-8.5L478.3,261.6L478.3,261.6z"/>
		<path class="st2" d="M760.4,261.3l76.1,130.1c0,4.7,0,8.4-7.3,8.4l-46.2-8.4v107.8c1.8,64.5-11,90.2-45.6,124l-133.8,77.4
			l-22.8-39.6l115.1-66.3c37.2-28.3,42.5-51.7,41.4-96.8V391.3l-45.6,8.4c-7.3,0-7.3-4.2-7.3-8.4L760.4,261.3L760.4,261.3z"/>
	</g>
</g>
</svg>
