<?xml version="1.0" encoding="utf-8"?>
<!-- Generator: Adobe Illustrator 19.2.0, SVG Export Plug-In . SVG Version: 6.00 Build 0)  -->
<svg version="1.1" id="Livello_1" xmlns="http://www.w3.org/2000/svg" xmlns:xlink="http://www.w3.org/1999/xlink" x="0px" y="0px"
	 viewBox="0 0 960 960" style="enable-background:new 0 0 960 960;" xml:space="preserve">
<style type="text/css">
	.st0{fill-rule:evenodd;clip-rule:evenodd;fill:#FFFFFF;stroke:#1A171B;stroke-width:0.9532;stroke-miterlimit:2.6131;}
	.st1{fill-rule:evenodd;clip-rule:evenodd;fill:#FFFFFF;stroke:#1A171B;stroke-width:9.5321;stroke-miterlimit:2.6131;}
	.st2{fill-rule:evenodd;clip-rule:evenodd;fill:#1A171B;stroke:#1A171B;stroke-width:0.9532;stroke-miterlimit:2.6131;}
</style>
<g>
	<g>
		<polygon class="st0" points="238.2,120 721.8,120 721.8,840 238.2,840 238.2,120 		"/>
		<path class="st1" d="M290.1,135h379.8c21.4,0,38.9,17.5,38.9,38.9v613.2c0,21.4-17.5,38.9-38.9,38.9H290.1
			c-21.4,0-38.9-17.5-38.9-38.9V173.9C251.2,152.5,268.7,135,290.1,135L290.1,135z"/>
		<path class="st2" d="M592.4,245.6L491.7,349.1c-5.3,1.1-9.4-1.5-10.7-6.4l-2.3-42.9c-35.6-0.3-52.5,13.3-54.2,39.8l0,94.7
			l-42.9-0.1l0-94.5c-0.1-50.3,38.5-79,85.1-83.9l-19.3-38.4c-1.5-5.1,1.1-9.2,6-10.7L592.4,245.6L592.4,245.6z"/>
		<path class="st2" d="M620.5,777.9v-33L609.4,715h-34.6v36.2h-46.4v26.7h5.7c1.3-24.2,35.3-25.4,37.8,0c1.3,0,2.9,0,5.4,0
			c1-23.8,36.5-25.4,37.5,0H620.5L620.5,777.9z M524.2,777.9v-16.5h-73.1c8.9,4.4,9.8,10.5,10.8,16.5H524.2L524.2,777.9z
			 M424.8,777.9c0-5.7,2.5-13.3,9.8-16.5h-25.7c6.7,2.5,10.8,10.8,11.4,16.5H424.8L424.8,777.9z M382.2,777.9
			c0.3-6.4,4.8-14,10.5-16.5h-53.1v8.6l21,7.9H382.2L382.2,777.9z M524.2,756.9l-0.6-9.9h47V694h-231v62.9H524.2L524.2,756.9z
			 M613.8,739.1l-7-17.5h-27.3v17.5H613.8L613.8,739.1z M552.8,762.6c-8.6,0-15.6,6.7-15.6,15.3c0,8.6,7,15.6,15.6,15.6
			c8.6,0,15.6-7,15.6-15.6C568.4,769.3,561.4,762.6,552.8,762.6L552.8,762.6z M443.5,762.6c-8.9,0-15.6,6.7-15.6,15.3
			c0,8.6,6.7,15.6,15.6,15.6c8.6,0,15.6-7,15.6-15.6C459.1,769.3,452.1,762.6,443.5,762.6L443.5,762.6z M401.3,762.6
			c-8.3,0-15.3,6.7-15.3,15.3c0,8.6,7,15.6,15.3,15.6c8.3,0,15.9-7,15.9-15.6C417.2,769.3,409.5,762.6,401.3,762.6L401.3,762.6z
			 M596,762.6c-8.3,0-15.3,6.7-15.3,15.3c0,8.6,7,15.6,15.3,15.6c8.6,0,15.9-7,15.9-15.6C611.9,769.3,604.6,762.6,596,762.6
			L596,762.6z M552.8,771.2c-3.2,0-6.4,3.2-6.4,6.7c0,3.5,3.2,6.4,6.4,6.4c4.1,0,6.7-2.9,6.7-6.4C559.5,774.4,557,771.2,552.8,771.2
			L552.8,771.2z M443.5,771.2c-3.5,0-6.7,3.2-6.7,6.7c0,3.5,3.2,6.4,6.7,6.4c4.1,0,6.7-2.9,6.7-6.4
			C450.2,774.4,447.7,771.2,443.5,771.2L443.5,771.2z M401.3,771.2c-3.5,0-6.4,3.2-6.4,6.7c0,3.5,2.9,6.4,6.4,6.4c3.8,0,7-2.9,7-6.4
			C408.3,774.4,405.1,771.2,401.3,771.2L401.3,771.2z M596,771.2c-3.5,0-6.7,3.2-6.7,6.7c0,3.5,3.2,6.4,6.7,6.4
			c3.8,0,6.7-2.9,6.7-6.4C602.7,774.4,599.9,771.2,596,771.2L596,771.2z"/>
		<path class="st2" d="M612.7,582.5l-7-19.1h-22.8v19.1H612.7L612.7,582.5z M339.2,604.8v15h26.6c0-6,4.5-13,8.3-15H339.2
			L339.2,604.8z M339.2,536.2v64.9h234.9v-64.9H445.5v57.9h-21.8v-57.9H339.2L339.2,536.2z M596.1,604.8c-8,0-14.8,6.8-14.8,15
			s6.8,15.3,14.8,15.3c8.5,0,15.5-7,15.5-15.3S604.7,604.8,596.1,604.8L596.1,604.8z M484.6,604.8c-7.8,0-15.3,6.8-15.3,15
			s7.5,15.3,15.3,15.3c8.3,0,14.8-7,14.8-15.3S492.9,604.8,484.6,604.8L484.6,604.8z M384.1,604.8c-8.3,0-15,6.8-15,15
			s6.8,15.3,15,15.3c8.3,0,15-7,15-15.3S392.3,604.8,384.1,604.8L384.1,604.8z M596.1,612.6c-4,0-7,3.5-7,7.3c0,4.3,3,7.5,7,7.5
			c4,0,7.8-3.3,7.8-7.5C603.9,616.1,600.2,612.6,596.1,612.6L596.1,612.6z M484.6,612.6c-4,0-7.3,3.5-7.3,7.3c0,4.3,3.3,7.5,7.3,7.5
			c3.8,0,7.3-3.3,7.3-7.5C491.9,616.1,488.3,612.6,484.6,612.6L484.6,612.6z M384.1,612.6c-4,0-7.3,3.3-7.3,7.3c0,4,3.3,7.5,7.3,7.5
			c4,0,7-3.5,7-7.5C391.1,615.9,388.1,612.6,384.1,612.6L384.1,612.6z M466.3,619.9c0-6,3-12.8,8.3-15h-29.1v15H466.3L466.3,619.9z
			 M423.7,619.9v-15h-29.8c5.3,3,8.8,9,8.8,15H423.7L423.7,619.9z M577.3,619.9c1.3-25.3,36.9-24.8,37.6,0h5.5v-34.1l-11-29.1h-31.6
			l0.2,48.1l-83-0.3c4.3,3.8,7.8,9.3,7.8,15.3H577.3L577.3,619.9z"/>
	</g>
</g>
</svg>
