<?xml version="1.0" encoding="utf-8"?>
<!-- Generator: Adobe Illustrator 19.2.0, SVG Export Plug-In . SVG Version: 6.00 Build 0)  -->
<svg version="1.1" id="Livello_1" xmlns="http://www.w3.org/2000/svg" xmlns:xlink="http://www.w3.org/1999/xlink" x="0px" y="0px"
	 viewBox="0 0 960 960" style="enable-background:new 0 0 960 960;" xml:space="preserve">
<style type="text/css">
	.st0{fill-rule:evenodd;clip-rule:evenodd;fill:#FFEC00;stroke:#1A171B;stroke-width:0.9532;stroke-miterlimit:2.6131;}
	.st1{fill:none;stroke:#1A171B;stroke-width:9.5321;stroke-miterlimit:2.6131;}
	.st2{fill-rule:evenodd;clip-rule:evenodd;fill:#1A171B;stroke:#1A171B;stroke-width:0.9532;stroke-miterlimit:2.6131;}
	.st3{fill-rule:evenodd;clip-rule:evenodd;fill:#1A171B;stroke:#1A171B;stroke-width:2.5419;stroke-miterlimit:2.6131;}
</style>
<g>
	<g>
		<polygon class="st0" points="238.2,120 721.8,120 721.8,840 238.2,840 238.2,120 		"/>
		<path class="st1" d="M290.1,135h379.8c21.4,0,38.9,17.5,38.9,38.9v613.2c0,21.4-17.5,38.9-38.9,38.9H290.1
			c-21.4,0-38.9-17.5-38.9-38.9V173.9C251.2,152.5,268.7,135,290.1,135L290.1,135z"/>
		<path class="st2" d="M621.7,317.8l-127.9,70.9c-4.6,0.2-8.4,0-8.4-7l8.3-42.6l-155,0.1l0.1-42.7l155-0.1l-8.4-42.3
			c0-7.2,4.2-7.2,8.4-7.2L621.7,317.8L621.7,317.8z"/>
		<path class="st3" d="M622.9,729.6v-54.6l-18.4-46.4h-49.9v76.6H416.7c7.3,2.5,13,13,13.7,24.5h124.2c1.9-40,57.8-40,59.1,0H622.9
			L622.9,729.6z M386.2,705.1h-45.8v11.1l31.8,12.1C371.6,718.4,379.2,707.6,386.2,705.1L386.2,705.1z M548.3,698.4V595.2H340.5
			l-0.3,103.6L548.3,698.4L548.3,698.4z M610.8,668.9L599.4,639h-37.2v29.9H610.8L610.8,668.9z M583.8,705.4
			c-13,0-24.2,10.8-24.2,24.1c0,13.3,11.1,24.1,24.2,24.1c13.3,0,24.5-10.8,24.5-24.1C608.3,716.2,597.2,705.4,583.8,705.4
			L583.8,705.4z M401.1,705.4c-13.3,0-24.1,10.8-24.1,24.1c0,13.3,10.8,24.1,24.1,24.1c13,0,24.1-10.8,24.1-24.1
			C425.3,716.2,414.2,705.4,401.1,705.4L401.1,705.4z M583.8,717.8c-6.4,0-11.8,5.4-11.8,11.8c0,6.4,5.4,11.8,11.8,11.8
			c6.7,0,11.8-5.4,11.8-11.8C595.6,723.2,590.5,717.8,583.8,717.8L583.8,717.8z M401.1,717.8c-6.4,0-11.8,5.4-11.8,11.8
			c0,6.4,5.4,11.8,11.8,11.8c6.4,0,11.4-5.4,11.4-11.8C412.6,723.2,407.5,717.8,401.1,717.8L401.1,717.8z"/>
	</g>
</g>
</svg>
