<?xml version="1.0" encoding="utf-8"?>
<!-- Generator: Adobe Illustrator 19.2.0, SVG Export Plug-In . SVG Version: 6.00 Build 0)  -->
<svg version="1.1" id="Livello_1" xmlns="http://www.w3.org/2000/svg" xmlns:xlink="http://www.w3.org/1999/xlink" x="0px" y="0px"
	 viewBox="0 0 960 960" style="enable-background:new 0 0 960 960;" xml:space="preserve">
<style type="text/css">
	.st0{fill-rule:evenodd;clip-rule:evenodd;fill:#005EA7;}
	.st1{fill:none;stroke:#FFFFFF;stroke-width:9.1371;stroke-miterlimit:2.6131;}
	.st2{fill-rule:evenodd;clip-rule:evenodd;fill:#FFFFFF;stroke:#FFFFFF;stroke-width:0.9137;stroke-miterlimit:2.6131;}
	.st3{fill-rule:evenodd;clip-rule:evenodd;fill:#008E41;}
</style>
<g>
	<g>
		<polygon class="st0" points="252.1,120 707.9,120 707.9,840 252.1,840 252.1,120 		"/>
		<path class="st1" d="M300.9,134h358.2c20.3,0,36.4,16.6,36.4,36.7v619.4c0,20.1-16.3,36.7-36.4,36.7H300.9
			c-20.1,0-36.4-16.3-36.4-36.7V170.6C264.4,150.3,280.5,134,300.9,134L300.9,134z"/>
		<polygon class="st2" points="312.8,180.3 646.9,180.3 646.9,514.4 312.8,514.4 312.8,180.3 		"/>
		<path class="st3" d="M405.4,475.9v-137h-18.2l0.2-118.6h170.5l-0.5,118.6h-18.2v4.8c2.5,0,7.3,0,7.6,0
			c12.2,1.5,24.2,2.9,24.2,31.8v75.8c0,13.9,22.9,15.3,23,0.2l-23-182.4h-7.4v-18.2h12.2c4.5-0.2,9,4.5,10.5,10.5l24.1,190.1
			c0.3,35.1-56.1,35.1-56.1-0.2V377c0-7.6,0-15.6-7.6-16.7h-7.6v115.5H405.4L405.4,475.9z M414.5,238.6H530c5.1,0,9.1,4,9.1,9.1V310
			c0,5.1-4,9.1-9.1,9.1H414.5c-5.1,0-9.1-4-9.1-9.1v-62.2C405.4,242.6,409.4,238.6,414.5,238.6L414.5,238.6z"/>
	</g>
</g>
</svg>
