<?xml version="1.0" encoding="utf-8"?>
<!-- Generator: Adobe Illustrator 19.2.0, SVG Export Plug-In . SVG Version: 6.00 Build 0)  -->
<svg version="1.1" id="Livello_1" xmlns="http://www.w3.org/2000/svg" xmlns:xlink="http://www.w3.org/1999/xlink" x="0px" y="0px"
	 viewBox="0 0 960 960" style="enable-background:new 0 0 960 960;" xml:space="preserve">
<style type="text/css">
	.st0{fill-rule:evenodd;clip-rule:evenodd;fill:#005EA7;}
	.st1{fill:none;stroke:#FFFFFF;stroke-width:9.1371;stroke-miterlimit:2.6131;}
	.st2{fill-rule:evenodd;clip-rule:evenodd;fill:#FFFFFF;stroke:#FFFFFF;stroke-width:0.9137;stroke-miterlimit:2.6131;}
	.st3{fill-rule:evenodd;clip-rule:evenodd;fill:#1A171B;}
	.st4{fill-rule:evenodd;clip-rule:evenodd;fill:#FFFFFF;}
</style>
<g>
	<g>
		<polygon class="st0" points="252.1,120 707.9,120 707.9,840 252.1,840 252.1,120 		"/>
		<path class="st1" d="M300.9,134h358.2c20.3,0,36.4,16.6,36.4,36.7v619.4c0,20.1-16.3,36.7-36.4,36.7H300.9
			c-20.1,0-36.4-16.3-36.4-36.7V170.6C264.4,150.3,280.5,134,300.9,134L300.9,134z"/>
		<polygon class="st2" points="312.8,180.3 646.9,180.3 646.9,514.4 312.8,514.4 312.8,180.3 		"/>
		<path class="st3" d="M333.8,378L336,346h282.5v22.8l-46.3,7.4c1.8-30.2-46.8-33.3-44.2,2.5H401.7c3.1-35.8-46.8-34.6-43.5-0.7
			H333.8L333.8,378z"/>
		<polygon class="st3" points="370.4,341.6 370.4,301.5 610.5,301.5 618.3,335.5 618.5,341.6 370.4,341.6 		"/>
		<polygon class="st4" points="378.8,334.8 378.8,308.4 417.6,308.2 417.6,334.8 378.8,334.8 		"/>
		<polygon class="st4" points="425.8,334.8 425.8,308.4 464.5,308.2 464.5,334.8 425.8,334.8 		"/>
		<polygon class="st4" points="472.7,334.8 472.7,308.4 511.5,308.2 511.5,334.8 472.7,334.8 		"/>
		<polygon class="st4" points="519.7,334.8 519.7,308.4 558.4,308.2 558.4,334.8 519.7,334.8 		"/>
		<polygon class="st4" points="566.5,334.8 566.5,308.4 604.2,308.2 610.3,334.8 566.5,334.8 		"/>
		<path class="st3" d="M379.8,356.5c9.8,0,17.9,8,17.9,17.9c0,9.9-8,17.9-17.9,17.9c-9.8,0-17.9-8-17.9-17.9
			C361.9,364.5,369.9,356.5,379.8,356.5L379.8,356.5z"/>
		<path class="st3" d="M549.9,356.5c9.9,0,17.9,8,17.9,17.9c0,9.9-8,17.9-17.9,17.9c-9.8,0-17.9-8-17.9-17.9
			C532.1,364.5,540.1,356.5,549.9,356.5L549.9,356.5z"/>
		<path class="st4" d="M379.8,366.3c4.4,0,8,3.6,8,8c0,4.4-3.6,8-8,8c-4.4,0-8-3.6-8-8C371.7,369.9,375.3,366.3,379.8,366.3
			L379.8,366.3z"/>
		<path class="st4" d="M549.9,366.3c4.4,0,8,3.6,8,8c0,4.4-3.6,8-8,8c-4.4,0-8-3.6-8-8C541.8,369.9,545.5,366.3,549.9,366.3
			L549.9,366.3z"/>
		<path class="st3" d="M336,341.6l1.1-40.2h26.7v40.3L336,341.6L336,341.6z M342.3,334.8l0.9-26.5h14.4v26.5H342.3L342.3,334.8z"/>
	</g>
</g>
</svg>
