<?xml version="1.0" encoding="utf-8"?>
<!-- Generator: Adobe Illustrator 19.2.0, SVG Export Plug-In . SVG Version: 6.00 Build 0)  -->
<svg version="1.1" id="Livello_1" xmlns="http://www.w3.org/2000/svg" xmlns:xlink="http://www.w3.org/1999/xlink" x="0px" y="0px"
	 viewBox="0 0 960 960" style="enable-background:new 0 0 960 960;" xml:space="preserve">
<style type="text/css">
	.st0{fill-rule:evenodd;clip-rule:evenodd;fill:#916740;}
	.st1{fill-rule:evenodd;clip-rule:evenodd;fill:#916740;stroke:#FFFFFF;stroke-width:9.1371;stroke-miterlimit:2.6131;}
	.st2{fill-rule:evenodd;clip-rule:evenodd;fill:#FFFFFF;stroke:#FFFFFF;stroke-width:0.9137;stroke-miterlimit:2.6131;}
	.st3{fill-rule:evenodd;clip-rule:evenodd;fill:#008E43;}
	.st4{fill-rule:evenodd;clip-rule:evenodd;fill:#1A171B;}
</style>
<g>
	<g>
		<polygon class="st0" points="252.1,120 707.9,120 707.9,840 252.1,840 252.1,120 		"/>
		<path class="st1" d="M300.9,134h358.2c20.3,0,36.4,16.6,36.4,36.7v619.4c0,20.1-16.3,36.7-36.4,36.7H300.9
			c-20.1,0-36.4-16.3-36.4-36.7V170.6C264.4,150.3,280.5,134,300.9,134L300.9,134z"/>
		<polygon class="st2" points="312.8,180.3 646.9,180.3 646.9,514.4 312.8,514.4 312.8,180.3 		"/>
		<path class="st3" d="M407.8,243.1c-6.3,27.6-17.1,49.5-41.5,72.1c10,0.2,18.9-4.7,29.5-12.5c-5.6,16.7-23.6,24.6-36.7,32.8
			c3.2,1.6,7.2,1.6,10.6,1.4c-1.4,5.4-9.3,9.8-15.8,13.3c8.8,1.5,16.8-1.6,23.6-4.5c-7.2,6.5-15.1,12.7-24.6,18.9
			c2.1,0.4,5.3,1.2,7.4,1.6c-6.8,5.6-18.5,8.7-27.1,13.2c21.1,2.5,38.3-5.8,54.7-18.3c-8,15.6-27.1,27.9-46.8,31.9
			c2.6,2,6.3,2.6,10.2,2.8c-7.5,5.7-16,8-26.7,10c4.9,2.1,11,3,17.4,1.9c0,1.6-1,3.4-2.1,4.7c10.8-0.2,22.2-3.3,30-9
			c0.3,2.9-1.4,4.3-2.3,7.2c7.9-1.2,13-6.8,17.2-11.2c0,2.7,1.3,4.8,1.3,7.4c-2.6,3-7.1,6.1-12.3,7c1.1,1.7,4.1,3.1,8.5,3.8
			c-8.2,2.9-19.5,4.9-33.5,3.4c1.1,2.3,2.5,3.6,4.3,4.9c-7.2,0.4-14.6-1.5-24.5-5.1c2.3,3.3,5,8.7,7.3,12c-2.3,0.5-3.2-0.1-5.4-0.1
			c8.6,7.4,32.4,8.8,40.8,6.5c-0.7,1.6-1.1,2.1-2,3.3c10.5-2.2,20.3-6.2,30.1-12.1c-12.2,12.9-36.1,21.3-64.9,19.7
			c12.8,9.4,38.5,10.8,62,4.3l-1.8,16.9h26.2l-1.8-16.9c23.5,6.5,49.2,5.2,62-4.3c-28.7,1.7-52.6-6.8-64.9-19.7
			c9.7,5.9,19.6,9.9,30.1,12.1c-1-1.2-1.4-1.7-2-3.3c8.3,2.3,32.1,0.8,40.8-6.5c-2.2,0-3.1,0.6-5.4,0.1c2.3-3.3,5-8.7,7.3-12
			c-9.9,3.7-17.3,5.5-24.5,5.1c1.7-1.3,3.2-2.5,4.3-4.9c-14.1,1.5-25.3-0.5-33.5-3.4c4.4-0.7,7.4-2,8.5-3.8c-5.1-0.9-9.6-3.9-12.3-7
			c0-2.6,1.3-4.7,1.3-7.4c4.2,4.4,9.3,10,17.2,11.2c-0.8-2.8-2.6-4.2-2.3-7.2c7.8,5.6,19.3,8.7,30,9c-1.1-1.3-2-3.1-2.1-4.7
			c6.4,1.1,12.5,0.2,17.4-1.9c-10.7-2-19.2-4.3-26.7-10c3.9-0.2,7.6-0.9,10.2-2.8c-19.7-4-38.9-16.3-46.8-31.9
			c16.5,12.5,33.6,20.8,54.7,18.3c-8.6-4.5-20.3-7.6-27.1-13.2c2.1-0.4,5.3-1.2,7.4-1.6c-9.5-6.2-17.4-12.4-24.6-18.9
			c6.9,2.9,14.9,6,23.6,4.5c-6.5-3.5-14.4-7.9-15.8-13.3c3.3,0.2,7.4,0.2,10.6-1.4c-13.1-8.2-31.1-16.1-36.7-32.8
			c10.6,7.9,19.5,12.8,29.5,12.5C424.9,292.7,414.2,270.7,407.8,243.1L407.8,243.1z"/>
		<polygon class="st4" points="502.2,346.4 568.9,302.8 635.6,346.4 635.6,361.7 568.9,318.1 502.2,361.7 502.2,346.4 		"/>
		<path class="st4" d="M512.1,363.1l56.8-37.1l56.8,37.1v105.6H512.1V363.1L512.1,363.1z M545.2,404.7h47.4v57.6h-47.4V404.7
			L545.2,404.7z"/>
	</g>
</g>
</svg>
