<?xml version="1.0" encoding="utf-8"?>
<!-- Generator: Adobe Illustrator 19.2.0, SVG Export Plug-In . SVG Version: 6.00 Build 0)  -->
<svg version="1.1" id="Livello_1" xmlns="http://www.w3.org/2000/svg" xmlns:xlink="http://www.w3.org/1999/xlink" x="0px" y="0px"
	 viewBox="0 0 960 960" style="enable-background:new 0 0 960 960;" xml:space="preserve">
<style type="text/css">
	.st0{fill-rule:evenodd;clip-rule:evenodd;fill:#916740;}
	.st1{fill-rule:evenodd;clip-rule:evenodd;fill:#916740;stroke:#FFFFFF;stroke-width:9.1371;stroke-miterlimit:2.6131;}
	.st2{fill-rule:evenodd;clip-rule:evenodd;fill:#FFFFFF;stroke:#FFFFFF;stroke-width:0.9137;stroke-miterlimit:2.6131;}
	.st3{fill-rule:evenodd;clip-rule:evenodd;fill:#1A171B;stroke:#1A171B;stroke-width:0.9137;stroke-miterlimit:2.6131;}
</style>
<g>
	<g>
		<polygon class="st0" points="252.1,120 707.9,120 707.9,840 252.1,840 252.1,120 		"/>
		<path class="st1" d="M300.9,134h358.2c20.3,0,36.4,16.6,36.4,36.7v619.4c0,20.1-16.3,36.7-36.4,36.7H300.9
			c-20.1,0-36.4-16.3-36.4-36.7V170.6C264.4,150.3,280.5,134,300.9,134L300.9,134z"/>
		<polygon class="st2" points="312.8,180.3 646.9,180.3 646.9,514.4 312.8,514.4 312.8,180.3 		"/>
		<polygon class="st3" points="339.1,358.9 619.8,358.9 619.8,370.9 339.1,370.9 339.1,358.9 		"/>
		<path class="st3" d="M339.1,338.9h55.2v12h-55.2V338.9L339.1,338.9z M564.6,338.9h55.2v12h-55.2V338.9L564.6,338.9z"/>
		<path class="st3" d="M513.7,313.9l9,39.6h11.9l-9-39.6h37.9v-27.6H395.4v27.6h38.2l-9,39.6h11.9l9-39.6H513.7L513.7,313.9z
			 M431.3,376.4l-8.7,38.5h-11.9l8.7-38.5H431.3L431.3,376.4z M527.8,376.4l8.7,38.5h11.9l-8.7-38.5H527.8L527.8,376.4z"/>
	</g>
</g>
</svg>
