<?xml version="1.0" encoding="utf-8"?>
<!-- Generator: Adobe Illustrator 19.2.0, SVG Export Plug-In . SVG Version: 6.00 Build 0)  -->
<svg version="1.1" id="Livello_1" xmlns="http://www.w3.org/2000/svg" xmlns:xlink="http://www.w3.org/1999/xlink" x="0px" y="0px"
	 viewBox="0 0 960 960" style="enable-background:new 0 0 960 960;" xml:space="preserve">
<style type="text/css">
	.st0{fill-rule:evenodd;clip-rule:evenodd;fill:#916740;}
	.st1{fill:none;stroke:#FFFFFF;stroke-width:9.1371;stroke-miterlimit:2.6131;}
	.st2{fill-rule:evenodd;clip-rule:evenodd;fill:#FFFFFF;stroke:#FFFFFF;stroke-width:0.9137;stroke-miterlimit:2.6131;}
	.st3{fill-rule:evenodd;clip-rule:evenodd;fill:#1A171B;}
	.st4{fill-rule:evenodd;clip-rule:evenodd;fill:#1A171B;stroke:#1A171B;stroke-width:1.5228;stroke-miterlimit:2.6131;}
	.st5{fill-rule:evenodd;clip-rule:evenodd;fill:#FFFFFF;stroke:#FFFFFF;stroke-width:1.5228;stroke-miterlimit:2.6131;}
	.st6{fill-rule:evenodd;clip-rule:evenodd;fill:#1A171B;stroke:#1A171B;stroke-width:0.9137;stroke-miterlimit:2.6131;}
</style>
<g>
	<g>
		<polygon class="st0" points="252.1,120 707.9,120 707.9,840 252.1,840 252.1,120 		"/>
		<path class="st1" d="M300.9,134h358.2c20.3,0,36.4,16.6,36.4,36.7v619.4c0,20.1-16.3,36.7-36.4,36.7H300.9
			c-20.1,0-36.4-16.3-36.4-36.7V170.6C264.4,150.3,280.5,134,300.9,134L300.9,134z"/>
		<polygon class="st2" points="312.8,180.3 646.9,180.3 646.9,514.4 312.8,514.4 312.8,180.3 		"/>
		<polygon class="st3" points="438.3,335.4 396.7,335.4 480.1,238.3 563.3,335.4 522.4,335.4 480.4,286.2 438.3,335.4 		"/>
		<polygon class="st3" points="470.6,211.7 461.4,211.7 479.7,233 498,211.7 489,211.7 479.8,222.5 470.6,211.7 		"/>
		<path class="st4" d="M358.3,462.5l0.3-7.6l28.2,0l-1.8-36.4l32.5,0.1l0,36.4l32.5,0.1l0-36.4l118.5,0l-5.9,43.9l-40,0.1
			c-2.1-26.8-44-26.9-45.8-0.1L358.3,462.5L358.3,462.5z"/>
		<polygon class="st4" points="385,412.1 396.4,365 564.5,365 568.4,412.1 449.9,412.1 449.8,371 417.4,370.9 417.5,412.1 
			385,412.1 		"/>
		<polygon class="st5" points="499.5,405.5 499.6,370.9 558.1,370.9 561.4,405.6 499.5,405.5 		"/>
		<path class="st6" d="M499.6,456.7c4.8,0,8.7,3.9,8.7,8.7c0,4.8-3.9,8.7-8.7,8.7c-4.8,0-8.7-3.9-8.7-8.7
			C490.8,460.6,494.8,456.7,499.6,456.7L499.6,456.7z M499.6,448.3c9.5,0,17.2,7.7,17.2,17.2s-7.7,17.2-17.2,17.2
			c-9.5,0-17.2-7.7-17.2-17.2S490.1,448.3,499.6,448.3L499.6,448.3z"/>
	</g>
</g>
</svg>
