<?xml version="1.0" encoding="utf-8"?>
<!-- Generator: Adobe Illustrator 19.2.0, SVG Export Plug-In . SVG Version: 6.00 Build 0)  -->
<svg version="1.1" id="Livello_1" xmlns="http://www.w3.org/2000/svg" xmlns:xlink="http://www.w3.org/1999/xlink" x="0px" y="0px"
	 viewBox="0 0 960 960" style="enable-background:new 0 0 960 960;" xml:space="preserve">
<style type="text/css">
	.st0{fill-rule:evenodd;clip-rule:evenodd;fill:#008E43;}
	.st1{fill:none;stroke:#FFFFFF;stroke-width:9.1371;stroke-miterlimit:2.6131;}
	.st2{fill-rule:evenodd;clip-rule:evenodd;fill:#FFFFFF;stroke:#FFFFFF;stroke-width:0.9137;stroke-miterlimit:2.6131;}
	.st3{fill-rule:evenodd;clip-rule:evenodd;fill:#1A171B;}
	.st4{fill-rule:evenodd;clip-rule:evenodd;fill:#FFFFFF;}
</style>
<g>
	<g>
		<polygon class="st0" points="252.1,120 707.9,120 707.9,840 252.1,840 252.1,120 		"/>
		<path class="st1" d="M300.9,134h358.2c20.3,0,36.4,16.6,36.4,36.7v619.4c0,20.1-16.3,36.7-36.4,36.7H300.9
			c-20.1,0-36.4-16.3-36.4-36.7V170.6C264.4,150.3,280.5,134,300.9,134L300.9,134z"/>
		<polygon class="st2" points="312.8,180.3 646.9,180.3 646.9,514.4 312.8,514.4 312.8,180.3 		"/>
		<path class="st3" d="M373.2,332h-14.3v-50.7h13.3v7.2c2.3-3.4,4.3-5.7,6.1-6.7c1.8-1.1,3.9-1.6,6.2-1.6c3.3,0,6.4,0.8,9.4,2.5
			l-4.4,11.7c-2.4-1.5-4.6-2.2-6.7-2.2c-2,0-3.7,0.5-5.1,1.5c-1.4,1-2.5,2.9-3.3,5.6c-0.8,2.7-1.2,8.4-1.2,17V332L373.2,332z
			 M410.7,296.8l-13-2.2c1.5-4.9,4-8.5,7.5-10.9c3.6-2.4,8.9-3.5,15.9-3.5c6.4,0,11.1,0.7,14.3,2.1c3.1,1.4,5.3,3.2,6.6,5.4
			c1.3,2.2,2,6.2,1.9,12l-0.2,15.7c0,4.4,0.2,7.7,0.7,9.9c0.5,2.1,1.3,4.4,2.6,6.8h-14.1c-0.4-0.9-0.8-2.2-1.4-4
			c-0.2-0.8-0.4-1.3-0.5-1.6c-2.4,2.2-5,3.9-7.8,5c-2.8,1.1-5.7,1.7-8.9,1.7c-5.6,0-9.9-1.4-13.1-4.2c-3.2-2.8-4.8-6.4-4.8-10.8
			c0-2.9,0.7-5.4,2.2-7.7c1.5-2.2,3.5-4,6.1-5.1c2.6-1.2,6.4-2.2,11.4-3.1c6.7-1.2,11.3-2.3,13.9-3.3v-1.3c0-2.6-0.7-4.4-2-5.5
			c-1.3-1.1-3.9-1.6-7.7-1.6c-2.6,0-4.5,0.5-6,1.4C412.8,292.8,411.6,294.4,410.7,296.8L410.7,296.8z M429.9,307.7
			c-1.8,0.6-4.7,1.3-8.7,2.1c-4,0.8-6.6,1.5-7.8,2.3c-1.9,1.2-2.8,2.8-2.8,4.7c0,1.9,0.8,3.5,2.2,4.9c1.5,1.4,3.4,2.1,5.7,2.1
			c2.6,0,5-0.8,7.4-2.4c1.7-1.2,2.8-2.7,3.4-4.4c0.4-1.1,0.6-3.3,0.6-6.5V307.7L429.9,307.7z M507.5,332h-13.3v-7.4
			c-2.2,2.9-4.8,5.1-7.8,6.5c-3,1.4-6,2.1-9.1,2.1c-6.2,0-11.5-2.3-16-7c-4.4-4.7-6.6-11.2-6.6-19.6c0-8.6,2.2-15.1,6.5-19.6
			c4.3-4.5,9.8-6.7,16.3-6.7c6,0,11.2,2.4,15.7,7.1V262h14.3V332L507.5,332z M469.4,305.6c0,5.4,0.8,9.3,2.4,11.7
			c2.3,3.5,5.5,5.2,9.6,5.2c3.3,0,6.1-1.3,8.4-3.9c2.3-2.6,3.5-6.6,3.5-11.8c0-5.8-1.1-10-3.4-12.6c-2.2-2.6-5.1-3.8-8.6-3.8
			c-3.4,0-6.2,1.3-8.5,3.8C470.5,296.8,469.4,300.5,469.4,305.6L469.4,305.6z M521.6,332v-50.7h14.3V332H521.6L521.6,332z
			 M547.2,305.9c0-4.4,1.2-8.8,3.5-12.9c2.3-4.2,5.7-7.3,9.9-9.5c4.3-2.2,9.1-3.3,14.4-3.3c8.2,0,14.9,2.5,20.1,7.5
			c5.2,5,7.8,11.3,7.8,18.9c0,7.7-2.6,14-7.9,19.1c-5.3,5.1-11.9,7.6-19.9,7.6c-5,0-9.7-1-14.2-3.1c-4.5-2.1-7.9-5.2-10.3-9.2
			C548.4,316.7,547.2,311.8,547.2,305.9L547.2,305.9z M561.9,306.7c0,5,1.3,8.9,3.8,11.6c2.5,2.7,5.7,4,9.4,4c3.7,0,6.9-1.3,9.4-4
			c2.5-2.7,3.8-6.6,3.8-11.7c0-5-1.3-8.8-3.8-11.5c-2.5-2.7-5.6-4-9.4-4c-3.7,0-6.9,1.3-9.4,4C563.2,297.8,561.9,301.6,561.9,306.7
			L561.9,306.7z M339.2,415V365h10.2v26.5l12-12.7h12.6L360.8,392l14.1,23h-11l-9.7-16.2l-4.8,4.7V415H339.2L339.2,415z M381.1,415
			V365h10.8v19.7h21.1V365h10.8V415h-10.8v-21.8h-21.1V415H381.1L381.1,415z M430.6,415v-7.5l14.5-15.6c2.4-2.5,4.1-4.3,5.3-5.4
			c-1.2,0.1-2.7,0.1-4.7,0.1l-13.6,0.1v-7.9H464v6.8l-14.8,15.9l-5.2,5.3c2.8-0.2,4.6-0.2,5.3-0.2h15.8v8.4H430.6L430.6,415z
			 M487.9,403.4l11.5-1c0.3,1.9,1,3.3,2.2,4.2c1.2,0.9,2.7,1.4,4.7,1.4c2.5,0,4.5-0.9,6.3-2.7c1.7-1.8,2.8-5.6,3.3-11.3
			c-3,2.8-6.8,4.2-11.2,4.2c-4.9,0-9.1-1.5-12.7-4.5c-3.6-3-5.3-7-5.3-11.8c0-5.1,1.9-9.2,5.6-12.3c3.7-3.1,8.5-4.7,14.3-4.7
			c6.3,0,11.5,2,15.5,5.9c4,3.9,6.1,10.4,6.1,19.3c0,9.1-2.1,15.7-6.3,19.8c-4.2,4-9.7,6.1-16.5,6.1c-4.9,0-8.8-1-11.8-3.1
			C490.7,410.6,488.8,407.5,487.9,403.4L487.9,403.4z M514.9,382.5c0-3.1-0.9-5.5-2.6-7.2c-1.8-1.7-3.8-2.6-6.1-2.6
			c-2.2,0-4,0.7-5.5,2.1c-1.5,1.4-2.2,3.7-2.2,6.9c0,3.2,0.8,5.6,2.4,7.1c1.6,1.5,3.6,2.3,5.9,2.3c2.3,0,4.2-0.7,5.8-2.2
			C514.1,387.4,514.9,385.3,514.9,382.5L514.9,382.5z M554.3,364.8c6,0,10.7,1.7,14.1,5.2c4,4.1,6.1,10.9,6.1,20.3
			c0,9.4-2,16.2-6.1,20.4c-3.4,3.4-8.1,5.1-14.1,5.1c-6,0-10.9-1.9-14.6-5.6c-3.7-3.7-5.6-10.4-5.6-20c0-9.4,2-16.2,6.1-20.3
			C543.6,366.5,548.3,364.8,554.3,364.8L554.3,364.8z M554.3,372.7c-1.4,0-2.7,0.4-3.9,1.1c-1.1,0.7-2,2.1-2.6,4
			c-0.8,2.5-1.2,6.6-1.2,12.5c0,5.9,0.4,9.9,1.1,12.1c0.7,2.2,1.7,3.7,2.8,4.4c1.1,0.7,2.4,1.1,3.8,1.1c1.4,0,2.7-0.4,3.9-1.1
			c1.1-0.7,2-2.1,2.6-4c0.8-2.5,1.2-6.6,1.2-12.5c0-5.9-0.4-9.9-1.1-12.1c-0.7-2.2-1.7-3.7-2.8-4.4
			C557,373.1,555.8,372.7,554.3,372.7L554.3,372.7z M600.8,364.8c6,0,10.7,1.7,14.1,5.2c4,4.1,6.1,10.9,6.1,20.3
			c0,9.4-2,16.2-6.1,20.4c-3.4,3.4-8.1,5.1-14.1,5.1c-6,0-10.9-1.9-14.6-5.6c-3.7-3.7-5.6-10.4-5.6-20c0-9.4,2-16.2,6.1-20.3
			C590.1,366.5,594.8,364.8,600.8,364.8L600.8,364.8z M600.8,372.7c-1.4,0-2.7,0.4-3.9,1.1c-1.1,0.7-2,2.1-2.6,4
			c-0.8,2.5-1.2,6.6-1.2,12.5c0,5.9,0.4,9.9,1.1,12.1c0.7,2.2,1.7,3.7,2.8,4.4c1.1,0.7,2.4,1.1,3.8,1.1c1.4,0,2.7-0.4,3.9-1.1
			c1.1-0.7,2-2.1,2.6-4c0.8-2.5,1.2-6.6,1.2-12.5c0-5.9-0.4-9.9-1.1-12.1c-0.7-2.2-1.7-3.7-2.8-4.4
			C603.5,373.1,602.2,372.7,600.8,372.7L600.8,372.7z"/>
		<path class="st4" d="M464.8,673.4l29.7-76.3h18.1l31.9,79.6h-19.6l-6.7-17.5H489l-6.4,17.5h-19.2h-18.1l-11.6-17.3l-1.4-2.1
			l-1.3-1.9l-1.2-1.7l-1.1-1.5l-1-1.3l-0.8-1.1l-0.7-0.9l-0.6-0.6l-0.5-0.5l-0.5-0.5l-0.5-0.4l-0.5-0.4l-0.5-0.3l-0.5-0.3l-0.5-0.3
			l-0.5-0.2l-0.6-0.2l-0.7-0.2l-0.8-0.1l-0.9-0.1l-1-0.1l-1.1-0.1l-1.2,0l-1.3,0h-1.9v32.2h-18v-79.6h34l1.5,0l1.5,0l1.4,0l1.4,0.1
			l1.3,0.1l1.3,0.1l1.2,0.1l1.2,0.1l1.1,0.1l1.1,0.2l1,0.2l1,0.2l0.9,0.2l0.9,0.2l0.8,0.2l0.8,0.3l1.4,0.6l1.4,0.7l1.3,0.8l1.2,0.9
			l1.2,1l1.1,1.1l1,1.3l0.9,1.4l0.8,1.4l0.7,1.5l0.6,1.5l0.5,1.6l0.4,1.6l0.3,1.7l0.2,1.7l0.1,1.8l0,1.1l-0.1,1.1l-0.1,1.1l-0.1,1.1
			l-0.2,1l-0.2,1l-0.3,1l-0.3,1l-0.4,0.9l-0.4,0.9l-0.4,0.9l-0.5,0.9l-0.5,0.8l-0.6,0.8l-0.6,0.8l-0.7,0.8l-0.7,0.7l-0.7,0.7
			l-0.8,0.7l-0.8,0.6l-0.9,0.6l-0.9,0.6l-0.9,0.5l-1,0.5l-1,0.4l-1.1,0.4l-1.1,0.4l-1.1,0.3l-1.2,0.3l-0.7,0.1l1,0.7l1.1,0.8
			l1.1,0.8l1,0.9l0.9,0.9l0.9,0.9l0.9,1l1,1.2l1,1.3l1.1,1.5l1.2,1.7l1.2,1.8l1.3,2l1.4,2.2L464.8,673.4L464.8,673.4z M412.1,629.8
			h10.3l1.4,0l1.3,0l1.2,0l1.2,0l1.1,0l1,0l1,0l0.9-0.1l0.8-0.1l0.8-0.1l0.7-0.1l0.6-0.1l0.5-0.1l0.5-0.1l0.4-0.1l0.3-0.1l0.6-0.2
			l0.6-0.3l0.5-0.3l0.5-0.3l0.4-0.4l0.4-0.4l0.4-0.4l0.4-0.5l0.3-0.5l0.3-0.5l0.2-0.6l0.2-0.6l0.2-0.7l0.1-0.7l0.1-0.7l0-0.8l0-0.9
			l-0.1-0.8l-0.1-0.8l-0.2-0.7l-0.3-0.7l-0.3-0.6l-0.4-0.6l-0.4-0.5l-0.5-0.5l-0.5-0.4l-0.6-0.4l-0.6-0.3l-0.7-0.3l-0.7-0.3L435,613
			l-0.8-0.2l-0.5-0.1l-0.8,0l-1,0l-1.3,0l-1.5,0l-1.8,0l-2,0H423h-10.9V629.8L412.1,629.8z M512.3,643.8l-8.9-23.9l-8.7,23.9H512.3
			L512.3,643.8z M549.3,676.8v-79.6h18v79.6H549.3L549.3,676.8z M301.5,728.3l0-1.2l0.1-1.1l0.1-1.1l0.2-1.1l0.2-1l0.3-1l0.3-1
			l0.4-0.9l0.4-0.9l0.5-0.9l0.5-0.8l0.6-0.8l0.6-0.7l0.7-0.7l0.7-0.7l0.8-0.6l1.3-0.9l1.4-0.8l1.5-0.7l1.5-0.5l1.6-0.4l1.7-0.3
			l1.7-0.2l1.8-0.1l2,0.1l1.9,0.2l1.8,0.4l1.7,0.5l1.6,0.7l1.5,0.8l1.5,1l1.4,1.1l1.2,1.3l1.1,1.4l0.9,1.5l0.7,1.6l0.6,1.7l0.4,1.8
			l0.2,1.9l0.1,2l0,1.6l-0.1,1.5l-0.2,1.5l-0.3,1.4l-0.3,1.3l-0.4,1.2l-0.5,1.1l-0.6,1.1l-0.6,1l-0.7,0.9l-0.8,0.9l-0.8,0.8
			l-0.9,0.7l-0.9,0.7l-1,0.6l-1.1,0.6l-1.1,0.5l-1.1,0.4l-1.2,0.4l-1.2,0.3l-1.2,0.2l-1.2,0.2l-1.2,0.1l-1.3,0l-2-0.1l-1.9-0.2
			l-1.8-0.4l-1.7-0.5l-1.6-0.7l-1.6-0.8l-1.5-1l-1.4-1.1l-1.2-1.3l-1.1-1.4l-0.9-1.5l-0.7-1.7l-0.6-1.8l-0.4-1.9l-0.2-2L301.5,728.3
			L301.5,728.3z M310.4,728.3l0,1.5l0.1,1.4l0.2,1.2l0.3,1.1l0.4,1l0.5,0.9l0.6,0.8l0.6,0.7l0.7,0.7l0.8,0.6l0.8,0.5l0.8,0.4
			l0.9,0.3l0.9,0.2l1,0.1l1,0l1,0l1-0.1l0.9-0.2l0.9-0.3l0.8-0.4l0.8-0.5l0.8-0.6l0.7-0.7l0.6-0.7l0.6-0.8l0.5-0.9l0.4-1l0.3-1.2
			l0.2-1.3l0.1-1.4l0-1.5l0-1.4l-0.1-1.3l-0.2-1.2l-0.3-1.1l-0.4-1l-0.5-0.9l-0.6-0.8l-0.6-0.7l-0.7-0.7l-0.8-0.6l-0.8-0.5l-0.8-0.4
			l-0.9-0.3l-0.9-0.2l-1-0.1l-1,0l-1.1,0l-1,0.1l-0.9,0.2l-0.9,0.3l-0.8,0.4l-0.8,0.5l-0.8,0.6l-0.7,0.7l-0.6,0.7l-0.6,0.8l-0.5,0.9
			l-0.4,1l-0.3,1.1l-0.2,1.2l-0.1,1.4L310.4,728.3L310.4,728.3z M352,710.5v2.9l0.3-0.3l1.4-1l1.6-0.8l1.7-0.7l1.8-0.5l1.9-0.3
			l2-0.1l0.9,0l0.9,0.1l0.9,0.1l0.8,0.1l0.8,0.2l0.8,0.2l0.8,0.2l0.8,0.3l0.7,0.3l0.7,0.3l0.7,0.4l0.6,0.4l0.6,0.4l0.5,0.4l0.5,0.5
			l0.4,0.5l0.4,0.5l0.4,0.5l0.3,0.5l0.3,0.6l0.3,0.6l0.2,0.6l0.2,0.6l0.2,0.7l0.1,0.5l0.1,0.6l0.1,0.6l0.1,0.7l0,0.7l0,0.8l0,0.9
			l0,1v21.6h-8.8v-21.4l0-0.8l0-0.7l-0.1-0.7l-0.1-0.6l-0.1-0.6l-0.1-0.5l-0.1-0.4l-0.1-0.4l-0.2-0.3l-0.2-0.3l-0.2-0.3l-0.2-0.3
			l-0.3-0.3l-0.3-0.2l-0.3-0.2l-0.4-0.2l-0.4-0.2l-0.4-0.2l-0.4-0.2l-0.5-0.1l-0.5-0.1l-0.5-0.1l-0.5,0l-0.6,0l-0.9,0l-0.9,0.1
			l-0.8,0.2l-0.8,0.2l-0.8,0.3l-0.7,0.4l-0.7,0.4l-0.6,0.5l-0.6,0.5l-0.5,0.6l-0.4,0.7l-0.4,0.9l-0.3,1l-0.2,1.2l-0.1,1.3l0,1.5
			v19.3h-8.7v-35.6H352L352,710.5z M397.6,746.8l-1.2-0.1l-1.1-0.2l-1.1-0.3l-1.1-0.3l-1.1-0.4l-1-0.5l-1-0.5l-1-0.6l-0.9-0.7
			l-0.9-0.7l-0.8-0.8l-0.8-0.9l-0.7-0.9l-0.6-1l-0.6-1l-0.5-1.1l-0.4-1.1l-0.4-1.1l-0.3-1.2l-0.2-1.2l-0.2-1.3l-0.1-1.3l0-1.3l0-1.3
			l0.1-1.3l0.2-1.2l0.2-1.2l0.3-1.2l0.3-1.1l0.4-1.1l0.5-1.1l0.5-1.1l0.6-1l0.7-0.9l0.7-0.9l0.8-0.8l0.9-0.7l0.9-0.7l1-0.6l1-0.5
			l1-0.5l1.1-0.4l1.1-0.3l1.1-0.3l1.2-0.2l1.2-0.1l1.2,0l0.9,0l0.9,0.1l0.9,0.1l0.8,0.2l0.8,0.2l0.8,0.2l0.8,0.3l0.7,0.3l0.7,0.4
			l0.7,0.4l0.6,0.4l0.6,0.4v-14.8h8.7v48.3H408v-2.3l-1.3,0.9l-1.4,0.8l-1.5,0.6l-1.6,0.4l-1.7,0.3l-1.8,0.1L397.6,746.8
			L397.6,746.8z M390.5,728.3l0,1.5l0.1,1.4l0.2,1.2l0.3,1.1l0.4,1l0.5,0.9l0.5,0.8l0.6,0.7l0.7,0.7l0.7,0.6l0.7,0.5l0.8,0.4
			l0.8,0.3l0.8,0.2l0.9,0.1l0.9,0l0.9,0l0.9-0.1l0.8-0.2l0.8-0.3l0.7-0.4l0.7-0.5l0.7-0.5l0.7-0.6l0.6-0.7l0.5-0.8l0.4-0.9l0.4-1
			l0.3-1.1l0.2-1.2l0.1-1.3l0-1.4l0-1.6l-0.1-1.5l-0.2-1.3l-0.3-1.2l-0.4-1.1l-0.5-1l-0.5-0.8l-0.6-0.7l-0.7-0.7l-0.7-0.6l-0.7-0.5
			l-0.8-0.4l-0.8-0.3L401,717l-0.9-0.1l-0.9,0l-0.9,0l-0.9,0.1l-0.8,0.2l-0.8,0.3l-0.7,0.4l-0.7,0.5l-0.7,0.5l-0.6,0.6l-0.6,0.7
			l-0.5,0.8l-0.4,0.9l-0.4,1l-0.3,1.2l-0.2,1.3l-0.1,1.4L390.5,728.3L390.5,728.3z M436.6,746.9l-1,0l-1.6,0l-1.5-0.1l-1.4-0.2
			l-1.3-0.3l-1.2-0.4l-1.2-0.5l-1.1-0.6l-1-0.7l-0.9-0.8l-0.8-0.8l-0.6-0.9l-0.5-1l-0.4-1l-0.3-1.1l-0.2-1.1l-0.1-1.1l0-0.7l0.1-0.7
			l0.1-0.7l0.2-0.6l0.2-0.6l0.2-0.6l0.3-0.6l0.3-0.6l0.4-0.6l0.4-0.5l0.4-0.5l0.4-0.5l0.5-0.4l0.5-0.4l0.5-0.4l0.5-0.4l0.6-0.3
			l0.6-0.3l0.6-0.3l0.6-0.3l0.6-0.2l0.6-0.2l0.7-0.2l0.7-0.2l0.5-0.1l0.6-0.1l0.6-0.1l0.7-0.1l0.7-0.1l0.8-0.1l0.9-0.1l0.9-0.1
			l1.8-0.2l1.7-0.2l1.6-0.2l1.4-0.2l1.3-0.2l1.2-0.2l1.1-0.3l0.1,0v0l0-0.2l0-0.1v-0.1v-0.1l0-0.8l-0.1-0.7l-0.1-0.6l-0.2-0.5
			l-0.2-0.4l-0.2-0.4l-0.3-0.3l-0.3-0.3l-0.5-0.4l-0.6-0.3l-0.7-0.3l-0.8-0.2l-0.8-0.2L442,717l-1-0.1l-1.1,0l-1,0l-0.9,0.1L437,717
			l-0.8,0.1l-0.7,0.2l-0.6,0.2l-0.5,0.2L434,718l-0.4,0.3l-0.4,0.4l-0.4,0.4l-0.3,0.5l-0.3,0.6l-0.3,0.6l-0.3,0.7l-0.6,1.8l-8.5-1
			l0.6-2.2l0.3-0.9l0.3-0.8l0.4-0.8l0.4-0.8l0.4-0.7l0.5-0.7l0.5-0.6l0.6-0.6l0.6-0.6l0.7-0.5l0.7-0.5l0.8-0.4l0.8-0.4l0.9-0.4
			l0.9-0.3l1-0.3l1-0.2l1.1-0.2l1.1-0.2l1.1-0.1l1.2-0.1l1.2-0.1l1.2,0l1.2,0l1.1,0l1.1,0.1l1,0.1l1,0.1l0.9,0.2l0.9,0.2l0.8,0.3
			l0.8,0.3l0.7,0.3l0.7,0.3l0.6,0.3l0.6,0.4l0.5,0.4l0.5,0.4l0.4,0.4l0.4,0.5l0.4,0.5l0.3,0.5l0.3,0.5l0.3,0.6l0.2,0.6l0.2,0.6
			l0.2,0.6l0.1,0.5l0.1,0.5l0.1,0.6l0,0.6l0,0.7l0,0.8l0,0.8l0,0.9v7.5l0,1.9l0,1.7l0,1.5l0,1.3l0.1,1.1l0.1,0.9l0.1,0.7l0.1,0.5
			l0.1,0.5l0.1,0.5l0.1,0.5l0.2,0.5l0.2,0.4l0.2,0.4l0.2,0.4l1.3,2.3h-9.5l-0.6-1.1l-0.2-0.5l-0.2-0.5l-0.2-0.6l-0.1-0.5l-0.2,0.2
			l-0.9,0.6l-0.9,0.5l-0.9,0.5l-0.9,0.4l-0.9,0.4l-0.9,0.3l-0.9,0.3l-0.9,0.2l-0.9,0.2l-0.9,0.2l-0.9,0.1l-0.9,0.1L436.6,746.9
			L436.6,746.9z M446,730.3l-1.3,0.3l-1.4,0.3l-1.5,0.3l-1.6,0.2l-1.7,0.2l-0.9,0.1l-0.8,0.1l-0.8,0.1l-0.7,0.1l-0.6,0.1l-0.5,0.1
			l-0.5,0.1l-0.4,0.1l-0.3,0.1l-0.3,0.2l-0.3,0.2l-0.3,0.2l-0.2,0.2l-0.2,0.2l-0.2,0.2l-0.2,0.2l-0.2,0.2l-0.1,0.2l-0.1,0.2L431,735
			l-0.1,0.2l0,0.2l0,0.3l0,0.3l0,0.4l0.1,0.4l0.1,0.4l0.1,0.3l0.2,0.3l0.2,0.3l0.3,0.3l0.3,0.3l0.4,0.3l0.5,0.2l0.5,0.2l0.6,0.2
			l0.6,0.1l0.7,0.1l0.8,0.1l0.8,0l0.8,0l0.8-0.1l0.8-0.1l0.8-0.1l0.7-0.2l0.7-0.2l0.7-0.3l0.6-0.3l0.6-0.3l0.6-0.4l0.5-0.4l0.5-0.4
			l0.4-0.4l0.4-0.5l0.3-0.5l0.3-0.5l0.2-0.4l0.2-0.5l0.2-0.5l0.1-0.6l0.1-0.7l0.1-0.7l0-0.8l0-0.9v-0.4l-0.4,0.1L446,730.3
			L446,730.3z M499.1,732.4l0.4-0.9l8.6-21h9.1l-15.1,35.6h-7.5l-15.2-35.6h9.3l8.3,20.6l0.3,0.8l0.3,0.8l0.3,0.8l0.3,0.8l0,0.1
			l0.1-0.4l0.3-0.8L499.1,732.4L499.1,732.4z M552.5,739.1l-0.7,1.1l-0.8,1l-0.9,1l-1,0.9l-1.1,0.8l-1.2,0.7l-1.2,0.6l-1.3,0.5
			l-1.4,0.4l-1.5,0.3l-1.5,0.2l-1.6,0.1l-1.7,0l-2.1-0.1l-2-0.2l-1.9-0.4l-1.8-0.5l-1.7-0.7l-1.6-0.8l-1.5-1l-1.4-1.1l-1.2-1.3
			l-1.1-1.4l-0.9-1.5l-0.7-1.6l-0.6-1.7l-0.4-1.9l-0.2-2l-0.1-2.1l0.1-2.1l0.2-2l0.4-1.9l0.6-1.8l0.7-1.7l0.9-1.6l1.1-1.4l1.2-1.3
			l1.4-1.2l1.4-1l1.5-0.9l1.6-0.7l1.7-0.5l1.8-0.4l1.9-0.2l2-0.1l1.9,0.1l1.8,0.2l1.8,0.4l1.7,0.5l1.6,0.7l1.5,0.8l1.4,1l1.3,1.1
			l1.2,1.3l1,1.4l0.9,1.5l0.7,1.7l0.6,1.8l0.4,1.9l0.2,2l0.1,2.1v0.2v0.2l0,0.2l0,0.2l0,0.2l0,0.2l0,0.2l0,1.4h-27.6l0.2,1.1
			l0.3,1.1l0.4,1l0.4,0.9l0.5,0.8l0.6,0.7l0.7,0.7l0.7,0.6l0.8,0.5l0.8,0.4l0.8,0.4l0.9,0.3l0.9,0.2l1,0.1l1,0l0.8,0l0.7-0.1
			l0.7-0.1l0.7-0.2l0.6-0.2l0.6-0.2l0.6-0.3l0.5-0.3l0.5-0.4l0.5-0.4l0.5-0.5l0.4-0.5l0.4-0.6l0.4-0.7l0.4-0.7l0.7-1.6l8.9,1
			l-0.9,2.7l-0.5,1.3L552.5,739.1L552.5,739.1z M544.6,721.9l-0.3-0.7l-0.3-0.6l-0.4-0.5l-0.4-0.5l-0.7-0.7l-0.7-0.6l-0.8-0.5
			l-0.8-0.4l-0.9-0.3l-0.9-0.2l-1-0.1l-1.1,0l-1,0l-0.9,0.1l-0.9,0.2l-0.8,0.3l-0.8,0.3l-0.7,0.4l-0.7,0.5l-0.7,0.5l-0.6,0.6
			l-0.5,0.6l-0.5,0.7l-0.4,0.7l-0.3,0.8l-0.3,0.8l-0.1,0.6h18l-0.1-0.5l-0.2-0.8L544.6,721.9L544.6,721.9z M570.5,710.7l0.6-0.3
			l0.6-0.2l0.6-0.2l0.6-0.1l0.6-0.1l0.6-0.1l0.6,0l0.9,0l0.9,0.1l0.9,0.2l0.9,0.2l0.9,0.3l0.9,0.3l0.9,0.4l1.9,1l-3.1,7.5l-1.7-0.9
			l-0.5-0.2l-0.5-0.2l-0.5-0.1l-0.5-0.1l-0.5-0.1l-0.5,0l-0.5,0l-0.4,0l-0.4,0l-0.4,0.1l-0.4,0.1l-0.4,0.1l-0.4,0.2l-0.4,0.2
			l-0.3,0.2l-0.3,0.2l-0.3,0.3l-0.3,0.3l-0.2,0.3l-0.2,0.3l-0.2,0.3l-0.2,0.4l-0.2,0.4l-0.2,0.7l-0.2,0.7l-0.2,0.7l-0.1,0.8
			l-0.1,0.8l-0.1,0.8l0,0.8l0,0.8v18.6h-8.7v-35.6h8.1v2.5l0.5-0.6l0.5-0.5l0.6-0.5l0.6-0.4L570.5,710.7L570.5,710.7z M597.5,746.8
			l-1.2-0.1l-1.1-0.2l-1.1-0.3L593,746l-1.1-0.4l-1-0.5l-1-0.5l-1-0.6l-0.9-0.7l-0.9-0.7l-0.8-0.8l-0.8-0.9l-0.7-0.9l-0.6-1l-0.6-1
			l-0.5-1.1l-0.4-1.1l-0.4-1.1l-0.3-1.2l-0.2-1.2l-0.2-1.3l-0.1-1.3l0-1.3l0-1.3l0.1-1.3l0.2-1.2l0.2-1.2l0.3-1.2l0.3-1.1l0.4-1.1
			l0.5-1.1l0.5-1.1l0.6-1l0.7-0.9l0.7-0.9l0.8-0.8l0.9-0.7l0.9-0.7l1-0.6l1-0.5l1-0.5l1.1-0.4l1.1-0.3l1.1-0.3l1.2-0.2l1.2-0.1
			l1.2,0l0.9,0l0.9,0.1l0.9,0.1l0.8,0.2l0.8,0.2l0.8,0.2l0.8,0.3l0.7,0.3l0.7,0.4l0.7,0.4l0.6,0.4l0.6,0.4v-14.8h8.7v48.3h-8.3v-2.3
			l-1.3,0.9l-1.4,0.8l-1.5,0.6l-1.6,0.4l-1.7,0.3l-1.8,0.1L597.5,746.8L597.5,746.8z M590.3,728.3l0,1.5l0.1,1.4l0.2,1.2l0.3,1.1
			l0.4,1l0.5,0.9l0.5,0.8l0.6,0.7l0.7,0.7l0.7,0.6l0.7,0.5l0.8,0.4l0.8,0.3l0.8,0.2l0.9,0.1l0.9,0l0.9,0l0.9-0.1l0.8-0.2l0.8-0.3
			l0.7-0.4l0.7-0.5l0.7-0.5l0.7-0.6l0.6-0.7l0.5-0.8l0.4-0.9l0.4-1l0.3-1.1l0.2-1.2l0.1-1.3l0-1.4l0-1.6l-0.1-1.5l-0.2-1.3l-0.3-1.2
			l-0.4-1.1l-0.5-1l-0.5-0.8l-0.6-0.7l-0.7-0.7l-0.7-0.6l-0.7-0.5l-0.8-0.4l-0.8-0.3l-0.8-0.2l-0.9-0.1l-0.9,0l-0.9,0l-0.9,0.1
			l-0.8,0.2l-0.8,0.3l-0.7,0.4l-0.7,0.5l-0.7,0.5l-0.6,0.6l-0.6,0.7l-0.5,0.8l-0.4,0.9l-0.4,1l-0.3,1.2l-0.2,1.3l-0.1,1.4
			L590.3,728.3L590.3,728.3z M656.4,739.1l-0.7,1.1l-0.8,1l-0.9,1l-1,0.9l-1.1,0.8l-1.2,0.7l-1.2,0.6l-1.3,0.5l-1.4,0.4l-1.5,0.3
			l-1.5,0.2l-1.6,0.1l-1.7,0l-2.1-0.1l-2-0.2l-1.9-0.4l-1.8-0.5l-1.7-0.7l-1.6-0.8l-1.5-1l-1.3-1.1l-1.2-1.3l-1.1-1.4l-0.9-1.5
			l-0.7-1.6l-0.6-1.7l-0.4-1.9l-0.2-2l-0.1-2.1l0.1-2.1l0.2-2l0.4-1.9l0.6-1.8l0.7-1.7l0.9-1.6l1.1-1.4l1.2-1.3l1.4-1.2l1.4-1
			l1.5-0.9l1.6-0.7l1.7-0.5l1.8-0.4l1.9-0.2l2-0.1l1.9,0.1l1.8,0.2l1.8,0.4l1.7,0.5l1.6,0.7l1.5,0.8l1.4,1l1.3,1.1l1.2,1.3l1,1.4
			l0.9,1.5l0.7,1.7l0.6,1.8l0.4,1.9l0.2,2l0.1,2.1v0.2l0,0.2v0.2l0,0.2l0,0.2l0,0.2l0,0.2l0,1.4h-27.6l0.2,1.1l0.3,1.1l0.4,1
			l0.4,0.9l0.5,0.8l0.6,0.7l0.7,0.7l0.7,0.6l0.8,0.5l0.8,0.4l0.8,0.4l0.9,0.3l0.9,0.2l1,0.1l1.1,0l0.8,0l0.7-0.1l0.7-0.1l0.7-0.2
			l0.6-0.2l0.6-0.2l0.6-0.3l0.5-0.3l0.5-0.4l0.5-0.4l0.5-0.5l0.4-0.5l0.4-0.6l0.4-0.7l0.4-0.7l0.7-1.6l8.9,1l-0.9,2.7l-0.5,1.3
			L656.4,739.1L656.4,739.1z M648.5,721.9l-0.3-0.7l-0.3-0.6l-0.4-0.5l-0.4-0.5l-0.7-0.7l-0.7-0.6l-0.8-0.5l-0.8-0.4l-0.9-0.3
			l-0.9-0.2l-1-0.1l-1.1,0l-1,0l-0.9,0.1l-0.9,0.2l-0.8,0.3l-0.8,0.3l-0.7,0.4l-0.7,0.5l-0.7,0.5l-0.6,0.6l-0.5,0.6l-0.5,0.7
			l-0.4,0.7l-0.3,0.8l-0.3,0.8l-0.1,0.6h18l-0.1-0.5l-0.2-0.8L648.5,721.9L648.5,721.9z"/>
		<path class="st4" d="M395.2,675.6v-77.2h32.8c8.3,0,14.2,0.7,18,2.1c3.7,1.4,6.7,3.8,9,7.4c2.2,3.6,3.4,7.6,3.4,12.2
			c0,5.8-1.7,10.6-5.1,14.4c-3.4,3.8-8.5,6.1-15.3,7.1c3.4,2,6.2,4.1,8.4,6.5c2.2,2.4,5.1,6.5,8.9,12.5l9.4,15.1H446l-11.3-16.8
			c-4-6-6.7-9.8-8.2-11.3c-1.5-1.6-3-2.6-4.7-3.2c-1.7-0.6-4.3-0.9-7.9-0.9h-3.1v32.2H395.2L395.2,675.6z M410.8,631h11.5
			c7.5,0,12.2-0.3,14-0.9c1.9-0.6,3.3-1.7,4.4-3.3c1-1.5,1.6-3.5,1.6-5.8c0-2.6-0.7-4.7-2.1-6.3c-1.4-1.6-3.3-2.6-5.9-3
			c-1.3-0.2-5-0.3-11.4-0.3h-12.2V631L410.8,631z M542.7,675.6h-17L519,658h-30.9l-6.4,17.5h-16.5l30.1-77.2h16.5L542.7,675.6
			L542.7,675.6z M514,645l-10.6-28.7L492.9,645H514L514,645z M550.5,675.6v-77.2h15.6v77.2H550.5L550.5,675.6z M302.7,728.3
			c0-6.1,1.9-10.7,5.8-13.7c3.2-2.5,7.1-3.7,11.7-3.7c5.1,0,9.3,1.5,12.6,4.5c3.3,3,4.9,7.1,4.9,12.4c0,4.3-0.7,7.6-2.2,10.1
			c-1.4,2.4-3.5,4.4-6.3,5.7c-2.8,1.4-5.8,2-9,2c-5.2,0-9.4-1.5-12.7-4.5C304.3,738.2,302.7,733.9,302.7,728.3L302.7,728.3z
			 M309.2,728.3c0,4.3,1,7.4,3.1,9.6c2.1,2.1,4.7,3.2,7.9,3.2c3.1,0,5.8-1.1,7.8-3.2c2.1-2.1,3.1-5.4,3.1-9.7c0-4.1-1-7.2-3.1-9.3
			c-2.1-2.1-4.7-3.2-7.8-3.2c-3.2,0-5.8,1.1-7.9,3.2C310.3,720.9,309.2,724.1,309.2,728.3L309.2,728.3z M345.1,744.9v-33.2h5.7v4.7
			c2.7-3.6,6.7-5.5,11.9-5.5c2.3,0,4.3,0.4,6.2,1.1c1.9,0.7,3.3,1.7,4.2,2.8c0.9,1.2,1.6,2.5,2,4.2c0.2,1,0.3,2.9,0.3,5.5v20.4H369
			v-20.2c0-2.3-0.2-4-0.7-5.1c-0.5-1.1-1.4-2-2.6-2.7c-1.3-0.7-2.7-1-4.4-1c-2.7,0-5,0.8-7,2.3c-2,1.5-2.9,4.4-2.9,8.7v18.1H345.1
			L345.1,744.9z M409.2,744.9v-4.2c-2.4,3.3-5.8,4.9-10.4,4.9c-3,0-5.7-0.7-8.2-2.2c-2.5-1.5-4.4-3.5-5.8-6.1c-1.4-2.6-2-5.6-2-9
			c0-3.3,0.6-6.3,1.9-9c1.2-2.7,3.1-4.8,5.6-6.2c2.5-1.4,5.3-2.2,8.3-2.2c2.2,0,4.2,0.4,6,1.3c1.8,0.8,3.2,1.9,4.3,3.3v-16.4h6.3
			v45.8H409.2L409.2,744.9z M389.3,728.3c0,4.3,1,7.4,3,9.5c2,2.1,4.4,3.2,7.1,3.2c2.8,0,5.1-1,7-3c1.9-2,2.9-5.1,2.9-9.2
			c0-4.5-1-7.9-2.9-10c-2-2.1-4.4-3.2-7.3-3.2c-2.8,0-5.2,1-7,3.1C390.2,720.7,389.3,723.9,389.3,728.3L389.3,728.3z M449.4,740.8
			c-2.3,1.8-4.6,3-6.8,3.8c-2.2,0.7-4.5,1.1-7,1.1c-4.1,0-7.2-0.9-9.4-2.7c-2.2-1.8-3.3-4.1-3.3-6.8c0-1.6,0.4-3.1,1.2-4.5
			c0.8-1.3,1.9-2.4,3.3-3.2c1.4-0.8,2.9-1.4,4.6-1.9c1.2-0.3,3.1-0.6,5.6-0.8c5.1-0.5,8.9-1.2,11.3-1.9c0-0.8,0-1.3,0-1.5
			c0-2.3-0.6-3.9-1.8-4.8c-1.6-1.3-4-1.9-7.2-1.9c-3,0-5.2,0.5-6.6,1.4c-1.4,0.9-2.5,2.6-3.1,4.9l-6.2-0.8c0.6-2.3,1.5-4.3,2.8-5.7
			s3.2-2.6,5.6-3.4c2.4-0.8,5.3-1.2,8.5-1.2c3.2,0,5.8,0.3,7.8,1c2,0.7,3.5,1.5,4.4,2.5c0.9,1,1.6,2.3,2,3.8c0.2,1,0.3,2.7,0.3,5.2
			v7.5c0,5.2,0.1,8.5,0.4,9.9c0.3,1.4,0.8,2.7,1.6,4h-6.6C450,743.8,449.5,742.4,449.4,740.8L449.4,740.8z M448.8,728.2
			c-2.3,0.8-5.7,1.5-10.3,2.1c-2.6,0.3-4.5,0.7-5.5,1.1c-1.1,0.4-1.9,1-2.5,1.8c-0.6,0.8-0.9,1.7-0.9,2.7c0,1.5,0.6,2.8,1.9,3.8
			c1.3,1,3.1,1.5,5.6,1.5c2.4,0,4.6-0.5,6.5-1.4c1.9-1,3.3-2.3,4.2-3.9c0.7-1.3,1-3.1,1-5.6V728.2L448.8,728.2z M495.4,744.9
			l-14.2-33.2h6.7l8,19.9c0.9,2.1,1.7,4.4,2.4,6.7c0.6-1.7,1.3-3.8,2.3-6.3l8.3-20.3h6.5l-14.1,33.2H495.4L495.4,744.9z
			 M546.5,734.2l6.5,0.7c-1,3.4-2.9,6-5.7,7.9c-2.8,1.9-6.3,2.8-10.7,2.8c-5.5,0-9.8-1.5-13-4.5c-3.2-3-4.8-7.2-4.8-12.6
			c0-5.6,1.6-9.9,4.8-13c3.2-3.1,7.4-4.6,12.6-4.6c5,0,9.1,1.5,12.2,4.5c3.2,3,4.7,7.3,4.7,12.8c0,0.3,0,0.8,0,1.5h-27.8
			c0.2,3.6,1.4,6.4,3.5,8.4c2.1,1.9,4.7,2.9,7.8,2.9c2.3,0,4.3-0.5,5.9-1.6C544.2,738.3,545.5,736.6,546.5,734.2L546.5,734.2z
			 M525.7,725.1h20.8c-0.3-2.8-1.1-4.9-2.4-6.3c-2-2.2-4.6-3.2-7.8-3.2c-2.9,0-5.3,0.9-7.3,2.6C527,719.9,526,722.2,525.7,725.1
			L525.7,725.1z M560.9,744.9v-33.2h5.7v5c1.4-2.4,2.8-3.9,4-4.7c1.2-0.7,2.6-1.1,4.1-1.1c2.1,0,4.3,0.6,6.5,1.8L579,718
			c-1.5-0.8-3.1-1.2-4.6-1.2c-1.4,0-2.6,0.4-3.7,1.1c-1.1,0.7-1.9,1.8-2.3,3.1c-0.7,2-1.1,4.2-1.1,6.6v17.4H560.9L560.9,744.9z
			 M609.1,744.9v-4.2c-2.4,3.3-5.8,4.9-10.4,4.9c-3,0-5.7-0.7-8.2-2.2c-2.5-1.5-4.4-3.5-5.8-6.1c-1.4-2.6-2-5.6-2-9
			c0-3.3,0.6-6.3,1.9-9c1.2-2.7,3.1-4.8,5.6-6.2c2.5-1.4,5.3-2.2,8.3-2.2c2.2,0,4.2,0.4,6,1.3c1.8,0.8,3.2,1.9,4.3,3.3v-16.4h6.3
			v45.8H609.1L609.1,744.9z M589.1,728.3c0,4.3,1,7.4,3,9.5c2,2.1,4.4,3.2,7.1,3.2c2.8,0,5.1-1,7-3c1.9-2,2.9-5.1,2.9-9.2
			c0-4.5-1-7.9-2.9-10c-2-2.1-4.4-3.2-7.3-3.2c-2.8,0-5.2,1-7,3.1C590.1,720.7,589.1,723.9,589.1,728.3L589.1,728.3z M650.4,734.2
			l6.5,0.7c-1,3.4-2.9,6-5.7,7.9c-2.8,1.9-6.4,2.8-10.7,2.8c-5.5,0-9.8-1.5-13-4.5c-3.2-3-4.8-7.2-4.8-12.6c0-5.6,1.6-9.9,4.8-13
			c3.2-3.1,7.4-4.6,12.6-4.6c5,0,9.1,1.5,12.2,4.5c3.2,3,4.8,7.3,4.8,12.8c0,0.3,0,0.8,0,1.5h-27.8c0.2,3.6,1.4,6.4,3.5,8.4
			c2.1,1.9,4.7,2.9,7.8,2.9c2.3,0,4.3-0.5,5.9-1.6C648.1,738.3,649.4,736.6,650.4,734.2L650.4,734.2z M629.7,725.1h20.8
			c-0.3-2.8-1.1-4.9-2.4-6.3c-2-2.2-4.6-3.2-7.8-3.2c-2.9,0-5.3,0.9-7.3,2.6C631,719.9,629.9,722.2,629.7,725.1L629.7,725.1z"/>
		<path class="st3" d="M528.7,261c4.5,0,8.1,3.7,8.1,8.1c0,4.5-3.7,8.1-8.1,8.1c-4.5,0-8.1-3.7-8.1-8.1
			C520.6,264.7,524.2,261,528.7,261L528.7,261z"/>
	</g>
</g>
</svg>
