<?xml version="1.0" encoding="utf-8"?>
<!-- Generator: Adobe Illustrator 19.2.0, SVG Export Plug-In . SVG Version: 6.00 Build 0)  -->
<svg version="1.1" id="Livello_1" xmlns="http://www.w3.org/2000/svg" xmlns:xlink="http://www.w3.org/1999/xlink" x="0px" y="0px"
	 viewBox="0 0 960 960" style="enable-background:new 0 0 960 960;" xml:space="preserve">
<style type="text/css">
	.st0{fill-rule:evenodd;clip-rule:evenodd;fill:#005EA7;}
	.st1{fill:none;stroke:#FFFFFF;stroke-width:9.1371;stroke-miterlimit:2.6131;}
	.st2{fill-rule:evenodd;clip-rule:evenodd;fill:#FFFFFF;}
	.st3{fill-rule:evenodd;clip-rule:evenodd;fill:#1A171B;}
</style>
<g>
	<g>
		<polygon class="st0" points="252.1,120 707.9,120 707.9,840 252.1,840 252.1,120 		"/>
		<path class="st1" d="M300.9,134h358.2c20.3,0,36.4,16.6,36.4,36.7v619.4c0,20.1-16.3,36.7-36.4,36.7H300.9
			c-20.1,0-36.4-16.3-36.4-36.7V170.6C264.4,150.3,280.5,134,300.9,134L300.9,134z"/>
		<polygon class="st2" points="313.7,181.2 648.1,181.2 648.1,515.5 313.7,515.5 313.7,181.2 		"/>
		<path class="st3" d="M511.7,456.9l-0.2-62c0.1-11.3-0.1-22,16-25l89.6-23.9c8.1-2.6,8,2.7,8,8.3l-0.1,69.4l-16.3,4.2l0.2-27.8
			l-81.3,21.5l0.2,29.7L511.7,456.9L511.7,456.9z"/>
		<path class="st3" d="M362.9,345.9l-0.1-40.6l32.2,16.5l95-27.2c13.4-2.6,13.4-2.6,21.6,2.8l81.1,43.8l-73.1,19.1
			c-13.6,5.7-15.5,10.6-18.3,24.2l0.2,35L362.9,345.9L362.9,345.9z"/>
		<path class="st3" d="M335.8,365.1l0-64.9c0.2-30.7,7.5-36.2,15.9-40.9l92.3-24.1c4.7-1.2,13.4,2.8,13.3,19l-102.4,29.4l-0.1,73.1
			L335.8,365.1L335.8,365.1z"/>
		<path class="st3" d="M391.2,309l-24-13.1c-5.3-2.7-1.6-6.6,6.5-9.2l65-18.9c6-1.4,10.5-2.6,21.2,2.8l19.3,10.4
			c5.5,2.7,5.3,5.6-0.1,8.2l-66.9,17.9C403.7,309.3,397.3,311.3,391.2,309L391.2,309z"/>
	</g>
</g>
</svg>
