<?xml version="1.0" encoding="utf-8"?>
<!-- Generator: Adobe Illustrator 19.2.0, SVG Export Plug-In . SVG Version: 6.00 Build 0)  -->
<svg version="1.1" id="Livello_1" xmlns="http://www.w3.org/2000/svg" xmlns:xlink="http://www.w3.org/1999/xlink" x="0px" y="0px"
	 viewBox="0 0 960 960" style="enable-background:new 0 0 960 960;" xml:space="preserve">
<style type="text/css">
	.st0{fill-rule:evenodd;clip-rule:evenodd;fill:#005EA7;}
	.st1{fill:none;stroke:#FFFFFF;stroke-width:9.1371;stroke-miterlimit:2.6131;}
	.st2{fill-rule:evenodd;clip-rule:evenodd;fill:#FFFFFF;stroke:#FFFFFF;stroke-width:0.9137;stroke-miterlimit:2.6131;}
	.st3{fill-rule:evenodd;clip-rule:evenodd;fill:#1A171B;}
</style>
<g>
	<g>
		<polygon class="st0" points="252.1,120 707.9,120 707.9,840 252.1,840 252.1,120 		"/>
		<path class="st1" d="M300.9,134h358.2c20.3,0,36.4,16.6,36.4,36.7v619.4c0,20.1-16.3,36.7-36.4,36.7H300.9
			c-20.1,0-36.4-16.3-36.4-36.7V170.6C264.4,150.3,280.5,134,300.9,134L300.9,134z"/>
		<polygon class="st2" points="312.8,180.3 646.9,180.3 646.9,514.4 312.8,514.4 312.8,180.3 		"/>
		<path class="st3" d="M384.7,443.6c-20.4,0-38.4-14-38.4-36.3h266.5c0,22.1-20.4,36.3-38.6,36.4L384.7,443.6L384.7,443.6z"/>
		<path class="st3" d="M439.2,395.3c-20.2-0.2-32.4-10.2-32.4-30.4V244h133.2v121c0,20.2-10,30.2-32.2,30.4H439.2L439.2,395.3z"/>
		<path class="st3" d="M552.1,316.5v-18h16.2c4,0,6-2,6-6c0-8,0-16,0-24.2c0-4-2-6-6-6.2l-16.2,0.2V244h22.2c10.2,0,18,10.2,18,18.2
			v36.3c0,10-7.9,18-18,18H552.1L552.1,316.5z"/>
	</g>
</g>
</svg>
