<?xml version="1.0" encoding="utf-8"?>
<!-- Generator: Adobe Illustrator 19.2.0, SVG Export Plug-In . SVG Version: 6.00 Build 0)  -->
<svg version="1.1" id="Livello_1" xmlns="http://www.w3.org/2000/svg" xmlns:xlink="http://www.w3.org/1999/xlink" x="0px" y="0px"
	 viewBox="0 0 960 960" style="enable-background:new 0 0 960 960;" xml:space="preserve">
<style type="text/css">
	.st0{fill:#FFFFFF;stroke:#1A171B;stroke-width:0.9137;stroke-miterlimit:2.6131;}
	.st1{fill:none;stroke:#1A171B;stroke-width:9.1371;stroke-miterlimit:2.6131;}
	.st2{fill-rule:evenodd;clip-rule:evenodd;fill:#1A171B;}
	.st3{fill-rule:evenodd;clip-rule:evenodd;fill:#FFFFFF;}
	.st4{fill-rule:evenodd;clip-rule:evenodd;fill:#005EA7;stroke:#005EA7;stroke-width:0.9137;stroke-miterlimit:2.6131;}
	.st5{fill-rule:evenodd;clip-rule:evenodd;fill:#FFFFFF;stroke:#005EA7;stroke-width:0.9137;stroke-miterlimit:2.6131;}
	.st6{fill:none;stroke:#1A171B;stroke-width:3.0457;stroke-miterlimit:2.6131;}
	.st7{fill-rule:evenodd;clip-rule:evenodd;fill:#E1001A;stroke:#E1001A;stroke-width:3.0457;stroke-miterlimit:2.6131;}
</style>
<g>
	<g>
		<polygon class="st0" points="238.5,120 721.5,120 721.5,840 238.5,840 238.5,120 		"/>
		<path class="st1" d="M287.3,134h385.4c20.3,0,36.4,16.6,36.4,36.7v619.4c0,20.1-16.3,36.7-36.4,36.7H287.3
			c-20.1,0-36.4-16.3-36.4-36.7V170.6C250.9,150.3,266.9,134,287.3,134L287.3,134z"/>
		<polygon class="st2" points="395.1,685.1 395.1,642.8 417.5,642.8 417.5,685.1 395.1,685.1 		"/>
		<path class="st2" d="M421.8,685.1V666h52.1v19.1h-4.3c0-19.1-29.5-19.6-29.5,0H421.8L421.8,685.1z"/>
		<polygon class="st2" points="478.1,685.1 478.1,642.7 500.9,642.8 502.5,661.8 497.1,661.8 497.1,647.1 491.4,647 491.4,680.1 
			497.1,680.1 497.1,666 502.9,666 504.5,685.1 478.1,685.1 		"/>
		<polygon class="st2" points="311.6,685.1 310.1,666 315.5,666 315.5,680.1 320.4,680.1 320.4,647 315.5,647 315.5,661.8 
			309.6,661.8 308.1,642.9 333.8,642.8 333.8,685.1 311.6,685.1 		"/>
		<path class="st2" d="M338,685.1V666h52.8v19.1h-19.1c-0.1-19.8-29.6-19.8-29.5,0H338L338,685.1z"/>
		<polygon class="st3" points="324.7,680.1 324.7,647 329.6,647 329.6,680.1 324.7,680.1 		"/>
		<polygon class="st3" points="399.2,680.2 399.2,647 404.1,647 404.1,680.1 399.2,680.2 		"/>
		<polygon class="st3" points="408.4,680.1 408.4,647 413.4,647 413.5,680 408.4,680.1 		"/>
		<polygon class="st3" points="482.3,680.1 482.3,646.9 487.3,646.9 487.3,680.1 482.3,680.1 		"/>
		<polygon class="st2" points="338,661.8 338,642.7 390.8,642.7 390.8,661.8 338,661.8 		"/>
		<polygon class="st2" points="421.8,661.8 421.8,642.7 473.8,642.7 473.9,661.8 421.8,661.8 		"/>
		<polygon class="st3" points="342.2,657.6 342.2,647 362.6,647 362.6,657.6 342.2,657.6 		"/>
		<polygon class="st3" points="366.8,657.6 366.8,647 386.6,647 386.6,657.6 366.8,657.6 		"/>
		<polygon class="st3" points="426,647 445.6,647 445.6,657.6 426,657.6 426,647 		"/>
		<polygon class="st3" points="449.9,657.6 449.9,647 469.7,647 469.7,657.6 449.9,657.6 		"/>
		<path class="st2" d="M357.1,673.1c6.6,0,12,5.4,12,12c0,6.6-5.4,12-12,12c-6.6,0-12-5.4-12-12
			C345.1,678.4,350.5,673.1,357.1,673.1L357.1,673.1z M357.1,680.3c2.6,0,4.7,2.1,4.7,4.7s-2.1,4.7-4.7,4.7c-2.6,0-4.7-2.1-4.7-4.7
			S354.5,680.3,357.1,680.3L357.1,680.3z"/>
		<path class="st2" d="M454.9,680.3c2.6,0,4.7,2.1,4.7,4.7s-2.1,4.7-4.7,4.7c-2.6,0-4.7-2.1-4.7-4.7S452.4,680.3,454.9,680.3
			L454.9,680.3z M454.9,673.1c6.6,0,12,5.4,12,12c0,6.6-5.4,12-12,12c-6.6,0-12-5.4-12-12C443,678.4,448.3,673.1,454.9,673.1
			L454.9,673.1z"/>
		<path class="st4" d="M319.4,168.4h177.1c17.8,0,32.3,14.6,32.3,32.3v177.1c0,17.8-14.6,32.3-32.3,32.3H319.4
			c-17.8,0-32.3-14.6-32.3-32.3V200.7C287,182.9,301.6,168.4,319.4,168.4L319.4,168.4z"/>
		<path class="st5" d="M337.3,384.1V194.8l41.3-0.2c32.9-0.2,59.6,0.4,82.8,16.6c13.1,12,21.8,30.1,19.3,48.8
			c-1.9,17.4-12.4,32-27.4,41.5c-21,12.6-49.5,10-74.7,10.4v72.2H337.3L337.3,384.1z M378.6,279.3v-51.7c13,0,28.1-0.6,41.9,1.8
			c9.5,4.4,16,10,15.9,22.3c-0.1,12.3-5.1,21.2-17.8,25.9C405.6,280,392.3,279.1,378.6,279.3L378.6,279.3z"/>
		<path class="st6" d="M319.1,546.8h177.1c17.8,0,32.3,14.6,32.3,32.3v177.1c0,17.8-14.6,32.3-32.3,32.3H319.1
			c-17.8,0-32.3-14.6-32.3-32.3V579.1C286.7,561.4,301.3,546.8,319.1,546.8L319.1,546.8z"/>
		<polygon class="st2" points="589,262.8 557.6,262.8 557.6,317.1 589,317.1 589,348.9 643.8,348.9 643.8,317.1 675.6,317.1 
			675.6,262.8 643.8,262.8 643.8,231 589,231 589,262.8 		"/>
		<path class="st7" d="M618.5,551.7c20.3,0,36.8,16.5,36.8,36.8c0,20.3-16.5,36.8-36.8,36.8c-20.3,0-36.8-16.5-36.8-36.8
			C581.7,568.2,598.2,551.7,618.5,551.7L618.5,551.7z"/>
		<path class="st3" d="M612.3,586.3c-2.1-1.1-3.6-2.6-4.5-4.5c-1-1.9-1.4-4-1.4-6.3c0-3.9,1.1-7.1,3.3-9.7c2.2-2.5,5.3-3.8,9.3-3.8
			c4,0,7.1,1.3,9.3,3.8c2.2,2.5,3.3,5.8,3.3,9.7c0,2.4-0.5,4.6-1.5,6.5c-1,1.9-2.4,3.3-4.3,4.3c2.3,1.2,4.1,2.9,5.3,5.1
			c1.2,2.2,1.8,4.8,1.8,7.7c0,4.8-1.2,8.7-3.7,11.8s-5.8,4.5-9.9,4.5c-3.8,0-7-1.2-9.5-3.7c-3-3-4.5-7-4.5-12.1
			c0-2.8,0.6-5.4,1.7-7.8C608.1,589.4,609.8,587.6,612.3,586.3L612.3,586.3z M613.9,576.2c0,2,0.5,3.6,1.4,4.7
			c0.9,1.1,2.1,1.7,3.6,1.7c1.5,0,2.7-0.6,3.7-1.7c0.9-1.1,1.4-2.7,1.4-4.7c0-1.9-0.5-3.4-1.4-4.5c-0.9-1.1-2.1-1.7-3.6-1.7
			c-1.5,0-2.8,0.6-3.7,1.7C614.4,572.8,613.9,574.3,613.9,576.2L613.9,576.2z M613.2,598.6c0,2.8,0.6,4.9,1.7,6.5
			c1.1,1.5,2.6,2.3,4.3,2.3c1.7,0,3-0.7,4.1-2.2c1.1-1.5,1.6-3.6,1.6-6.4c0-2.4-0.6-4.4-1.7-5.9c-1.1-1.5-2.5-2.2-4.2-2.2
			c-2,0-3.4,0.9-4.4,2.5C613.7,594.8,613.2,596.6,613.2,598.6L613.2,598.6z"/>
		<path class="st7" d="M618.5,710.6c20.3,0,36.8,16.5,36.8,36.8c0,20.3-16.5,36.8-36.8,36.8c-20.3,0-36.8-16.5-36.8-36.8
			C581.7,727.2,598.2,710.6,618.5,710.6L618.5,710.6z"/>
		<path class="st3" d="M604.7,771.2v-9.7H590v-8.1l15.6-30.7h5.8v30.7h4.5v8.2h-4.5v9.7H604.7L604.7,771.2z M604.7,753.4v-16.5
			l-8.2,16.5H604.7L604.7,753.4z"/>
		<path class="st3" d="M619.2,758.8l6.9-0.9c0.2,2.1,0.8,3.7,1.7,5c1,1.2,2.1,1.8,3.3,1.8c1.4,0,2.7-0.8,3.7-2.4
			c1-1.6,1.5-3.9,1.5-7.1c0-3-0.5-5.2-1.5-6.7c-1-1.5-2.3-2.2-3.9-2.2c-2,0-3.7,1.2-5.3,3.5l-5.6-1.1l3.5-25.2h18.2v8.7h-13
			l-1.1,8.2c1.5-1,3.1-1.6,4.7-1.6c3.1,0,5.6,1.5,7.8,4.5c2.1,3,3.2,6.9,3.2,11.7c0,4-0.9,7.5-2.6,10.6c-2.3,4.3-5.6,6.4-9.7,6.4
			c-3.3,0-6-1.2-8.1-3.6C620.8,766.1,619.6,762.9,619.2,758.8L619.2,758.8z"/>
	</g>
</g>
</svg>
