<?xml version="1.0" encoding="utf-8"?>
<!-- Generator: Adobe Illustrator 19.2.0, SVG Export Plug-In . SVG Version: 6.00 Build 0)  -->
<svg version="1.1" id="Livello_1" xmlns="http://www.w3.org/2000/svg" xmlns:xlink="http://www.w3.org/1999/xlink" x="0px" y="0px"
	 viewBox="0 0 960 960" style="enable-background:new 0 0 960 960;" xml:space="preserve">
<style type="text/css">
	.st0{fill:#FFFFFF;stroke:#1A171B;stroke-width:0.9137;stroke-miterlimit:2.6131;}
	.st1{fill:none;stroke:#1A171B;stroke-width:9.1371;stroke-miterlimit:2.6131;}
	.st2{fill-rule:evenodd;clip-rule:evenodd;fill:#1A171B;stroke:#1A171B;stroke-width:2.4366;stroke-miterlimit:2.6131;}
	.st3{fill-rule:evenodd;clip-rule:evenodd;fill:#1A171B;}
	.st4{fill-rule:evenodd;clip-rule:evenodd;fill:#FFFFFF;}
	.st5{fill-rule:evenodd;clip-rule:evenodd;fill:#1A171B;stroke:#1A171B;stroke-width:0.9137;stroke-miterlimit:2.6131;}
	.st6{fill-rule:evenodd;clip-rule:evenodd;fill:#005EA7;stroke:#005EA7;stroke-width:0.9137;stroke-miterlimit:2.6131;}
	.st7{fill-rule:evenodd;clip-rule:evenodd;fill:#FFFFFF;stroke:#005EA7;stroke-width:0.9137;stroke-miterlimit:2.6131;}
	.st8{fill:none;stroke:#1A171B;stroke-width:3.0457;stroke-miterlimit:2.6131;}
	.st9{fill-rule:evenodd;clip-rule:evenodd;fill:#FFEC00;stroke:#FFEC00;stroke-width:3.0457;stroke-miterlimit:2.6131;}
</style>
<g>
	<g>
		<polygon class="st0" points="238.5,120 721.5,120 721.5,840 238.5,840 238.5,120 		"/>
		<path class="st1" d="M287.3,134h385.4c20.3,0,36.4,16.6,36.4,36.7v619.4c0,20.1-16.3,36.7-36.4,36.7H287.3
			c-20.1,0-36.4-16.3-36.4-36.7V170.6C250.9,150.3,266.9,134,287.3,134L287.3,134z"/>
		<polygon class="st2" points="299.5,667.8 304.9,649.7 322.9,649.7 322.9,667.8 299.5,667.8 		"/>
		<path class="st3" d="M326.3,669.2v-23.1h-20.7c0.1-3.6,3.6-7.3,7.3-7.3h51.3l24.2-16.9l16.3,0.1v4.3h-14.6l-17.8,12.2h127.1
			c3.3,0,7.3,2.1,9.1,7.5l5.9,22.4l0.1,0.4L326.3,669.2L326.3,669.2z"/>
		<polygon class="st4" points="330.2,664.6 330.4,646.1 362.3,646.1 362.3,664.2 330.2,664.6 		"/>
		<polygon class="st4" points="365.9,664.7 365.8,645.6 397.8,645.6 397.8,664.2 365.9,664.7 		"/>
		<polygon class="st4" points="401.3,664.7 401.2,645.6 434.5,645.6 434.5,664.2 401.3,664.7 		"/>
		<polygon class="st4" points="438.3,664.7 437.9,645.6 470.6,645.6 470.6,664.2 438.3,664.7 		"/>
		<polygon class="st4" points="473.7,664.7 473.9,645.6 503.2,645.6 509.1,664.7 473.7,664.7 		"/>
		<polygon class="st4" points="303.9,664.2 307.7,653.4 319.9,652.9 319.9,664.2 303.9,664.2 		"/>
		<path class="st5" d="M299.1,686c0-2.9,0-6.9,0-10.8l214.9-0.1c0,3.6,0.1,5.3,0.1,8.9c0.1,3.6-3.6,5.4-7.2,5.4l-31,0.1
			c0,0.1,0.1,0.1,0.1,0.1c0,3.9-3.2,7.2-7.2,7.2c-4,0-7.2-3.2-7.2-7.2c0,0,0,0,0-0.1l-9,0.1c0,3.8-3.3,7.2-7.2,7.2
			c-4,0-7.3-3.3-7.2-7.2h-74.2c0,0.1,0.1,0.1,0.1,0.1c0,3.9-3.2,7.2-7.2,7.2c-4,0-7.2-3.2-7.2-7.2c0,0,0,0,0-0.1h-9.2
			c0,0.1,0.1,0.1,0.1,0.1c0,3.9-3.2,7.2-7.2,7.2c-4,0-7.2-3.2-7.2-7.2c0,0,0,0,0-0.1L299.1,686L299.1,686z"/>
		<path class="st6" d="M319.4,168.4h177.1c17.8,0,32.3,14.6,32.3,32.3v177.1c0,17.8-14.6,32.3-32.3,32.3H319.4
			c-17.8,0-32.3-14.6-32.3-32.3V200.7C287,182.9,301.6,168.4,319.4,168.4L319.4,168.4z"/>
		<path class="st7" d="M337.3,384.1V194.8l41.3-0.2c32.9-0.2,59.6,0.4,82.8,16.6c13.1,12,21.8,30.1,19.3,48.8
			c-1.9,17.4-12.4,32-27.4,41.5c-21,12.6-49.5,10-74.7,10.4v72.2H337.3L337.3,384.1z M378.6,279.3v-51.7c13,0,28.1-0.6,41.9,1.8
			c9.5,4.4,16,10,15.9,22.3c-0.1,12.3-5.1,21.2-17.8,25.9C405.6,280,392.3,279.1,378.6,279.3L378.6,279.3z"/>
		<path class="st8" d="M319.1,546.8h177.1c17.8,0,32.3,14.6,32.3,32.3v177.1c0,17.8-14.6,32.3-32.3,32.3H319.1
			c-17.8,0-32.3-14.6-32.3-32.3V579.1C286.7,561.4,301.3,546.8,319.1,546.8L319.1,546.8z"/>
		<polygon class="st3" points="589,262.8 557.6,262.8 557.6,317.1 589,317.1 589,348.9 643.8,348.9 643.8,317.1 675.6,317.1 
			675.6,262.8 643.8,262.8 643.8,231 589,231 589,262.8 		"/>
		<path class="st9" d="M623.3,549.3c20.3,0,36.8,16.5,36.8,36.8c0,20.3-16.5,36.8-36.8,36.8c-20.3,0-36.8-16.5-36.8-36.8
			C586.5,565.8,603.1,549.3,623.3,549.3L623.3,549.3z"/>
		<path class="st3" d="M610.1,598.5l7.8-1.2c0.3,2.5,0.9,4.4,2,5.7c1.1,1.3,2.4,2,3.9,2c1.7,0,3.1-0.8,4.2-2.4
			c1.1-1.6,1.7-3.7,1.7-6.3c0-2.5-0.5-4.5-1.6-6c-1.1-1.5-2.4-2.2-4-2.2c-1,0-2.3,0.2-3.7,0.7l0.9-8.2c2.2,0.1,3.8-0.5,5-1.8
			c1.1-1.3,1.7-2.9,1.7-5c0-1.8-0.4-3.2-1.3-4.2c-0.8-1-2-1.6-3.4-1.6c-1.4,0-2.6,0.6-3.5,1.8c-1,1.2-1.6,2.9-1.8,5.2l-7.4-1.6
			c0.5-3.2,1.3-5.7,2.3-7.6c1-1.9,2.5-3.4,4.4-4.4c1.9-1.1,3.9-1.6,6.3-1.6c4,0,7.1,1.6,9.5,4.7c2,2.6,2.9,5.5,2.9,8.7
			c0,4.6-2,8.2-6,11c2.4,0.6,4.3,2.1,5.8,4.3c1.4,2.2,2.2,4.9,2.2,8.1c0,4.6-1.4,8.5-4,11.7c-2.7,3.2-6,4.8-10.1,4.8
			c-3.8,0-6.9-1.4-9.5-4.1C612,606.4,610.5,602.9,610.1,598.5L610.1,598.5z"/>
		<path class="st9" d="M623.3,713c20.3,0,36.8,16.5,36.8,36.8c0,20.3-16.5,36.8-36.8,36.8c-20.3,0-36.8-16.5-36.8-36.8
			C586.5,729.6,603.1,713,623.3,713L623.3,713z"/>
		<path class="st9" d="M623.3,631.3c20.3,0,36.8,16.5,36.8,36.8c0,20.3-16.5,36.8-36.8,36.8c-20.3,0-36.8-16.5-36.8-36.8
			C586.5,647.9,603.1,631.3,623.3,631.3L623.3,631.3z"/>
		<path class="st3" d="M621.8,737.1l-6.7,1c-0.2-1.8-0.6-3.2-1.3-4.1c-0.7-0.9-1.6-1.3-2.7-1.3c-1.4,0-2.7,0.9-3.7,2.6
			c-1,1.8-1.6,5.4-1.9,11c1.7-2.7,3.8-4.1,6.4-4.1c2.9,0,5.3,1.5,7.4,4.4c2,2.9,3.1,6.7,3.1,11.4c0,5-1.1,8.9-3.2,11.9
			c-2.1,3-4.9,4.5-8.3,4.5c-3.6,0-6.6-1.9-8.9-5.7c-2.3-3.8-3.5-10-3.5-18.7c0-8.9,1.2-15.2,3.6-19.2c2.4-3.9,5.6-5.9,9.5-5.9
			c2.7,0,5,1,6.8,3.1C620.1,730.2,621.3,733.2,621.8,737.1L621.8,737.1z M606.1,757.4c0,3,0.5,5.3,1.5,7c1,1.6,2.2,2.5,3.5,2.5
			c1.3,0,2.3-0.7,3.2-2c0.9-1.3,1.3-3.5,1.3-6.6c0-3.1-0.5-5.4-1.4-6.9c-0.9-1.5-2.1-2.2-3.4-2.2c-1.3,0-2.4,0.7-3.4,2.1
			C606.6,752.6,606.1,754.6,606.1,757.4L606.1,757.4z"/>
		<path class="st3" d="M649.6,737.1l-6.7,1c-0.2-1.8-0.6-3.2-1.3-4.1c-0.7-0.9-1.6-1.3-2.7-1.3c-1.4,0-2.7,0.9-3.7,2.6
			c-1,1.8-1.6,5.4-1.9,11c1.7-2.7,3.8-4.1,6.4-4.1c2.9,0,5.3,1.5,7.4,4.4c2,2.9,3.1,6.7,3.1,11.4c0,5-1.1,8.9-3.2,11.9
			c-2.2,3-4.9,4.5-8.3,4.5c-3.6,0-6.6-1.9-8.9-5.7c-2.3-3.8-3.5-10-3.5-18.7c0-8.9,1.2-15.2,3.6-19.2c2.4-3.9,5.6-5.9,9.5-5.9
			c2.7,0,5,1,6.8,3.1C648,730.2,649.1,733.2,649.6,737.1L649.6,737.1z M634,757.4c0,3,0.5,5.3,1.5,7c1,1.6,2.2,2.5,3.5,2.5
			c1.3,0,2.3-0.7,3.2-2c0.9-1.3,1.3-3.5,1.3-6.6c0-3.1-0.5-5.4-1.4-6.9c-0.9-1.5-2.1-2.2-3.4-2.2c-1.3,0-2.4,0.7-3.4,2.1
			C634.5,752.6,634,754.6,634,757.4L634,757.4z"/>
		<path class="st3" d="M598.5,679.5l6.9-0.9c0.2,2.1,0.8,3.7,1.7,5c1,1.2,2.1,1.8,3.3,1.8c1.4,0,2.7-0.8,3.7-2.4
			c1-1.6,1.5-3.9,1.5-7.1c0-3-0.5-5.2-1.5-6.7c-1-1.5-2.3-2.2-3.9-2.2c-2,0-3.7,1.2-5.3,3.5l-5.6-1.1l3.5-25.2h18.2v8.7h-13
			l-1.1,8.2c1.5-1,3.1-1.6,4.7-1.6c3.1,0,5.6,1.5,7.8,4.5c2.1,3,3.2,6.9,3.2,11.6c0,4-0.9,7.5-2.6,10.7c-2.3,4.3-5.6,6.4-9.7,6.4
			c-3.3,0-6-1.2-8.1-3.6C600.2,686.8,598.9,683.6,598.5,679.5L598.5,679.5z"/>
		<path class="st3" d="M643.9,692H637V657c-2.5,3.2-5.5,5.5-8.9,7v-8.4c1.8-0.8,3.7-2.3,5.8-4.5c2.1-2.2,3.6-4.8,4.3-7.7h5.6V692
			L643.9,692z"/>
	</g>
</g>
</svg>
