<?xml version="1.0" encoding="utf-8"?>
<!-- Generator: Adobe Illustrator 19.2.0, SVG Export Plug-In . SVG Version: 6.00 Build 0)  -->
<svg version="1.1" id="Livello_1" xmlns="http://www.w3.org/2000/svg" xmlns:xlink="http://www.w3.org/1999/xlink" x="0px" y="0px"
	 viewBox="0 0 960 960" style="enable-background:new 0 0 960 960;" xml:space="preserve">
<style type="text/css">
	.st0{fill-rule:evenodd;clip-rule:evenodd;fill:#916740;stroke:#916740;stroke-width:0.9137;stroke-miterlimit:2.6131;}
	.st1{fill-rule:evenodd;clip-rule:evenodd;fill:#FFFFFF;stroke:#FFFFFF;stroke-width:3.0457;stroke-miterlimit:2.6131;}
	.st2{fill-rule:evenodd;clip-rule:evenodd;fill:#1A171B;}
	.st3{fill-rule:evenodd;clip-rule:evenodd;fill:#005EA7;stroke:#FFFFFF;stroke-width:3.0457;stroke-miterlimit:2.6131;}
	.st4{fill-rule:evenodd;clip-rule:evenodd;fill:#FFFFFF;stroke:#005EA7;stroke-width:0.9137;stroke-miterlimit:2.6131;}
	.st5{fill-rule:evenodd;clip-rule:evenodd;fill:#FFFFFF;}
	.st6{fill:none;stroke:#FFFFFF;stroke-width:9.1371;stroke-miterlimit:2.6131;}
</style>
<g>
	<g>
		<polygon class="st0" points="238.5,120 721.5,120 721.5,840 238.5,840 238.5,120 		"/>
		<path class="st1" d="M316,542.9h177.2c17.8,0,32.4,14.6,32.4,32.4v177.2c0,17.8-14.6,32.4-32.4,32.4H316
			c-17.8,0-32.4-14.6-32.4-32.4V575.3C283.6,557.5,298.1,542.9,316,542.9L316,542.9z"/>
		<path class="st2" d="M374.4,586.9c0,0.1,0,0.2,0,0.3c0,7.3-6,13.3-13.3,13.3c-7.3,0-13.3-6-13.3-13.3c0-0.1,0-0.2,0-0.3H374.4
			L374.4,586.9z"/>
		<path class="st2" d="M392.3,600.8l6.3,2.8c2.4,1.1,5,1.7,5.2,4.4l3.3,37.8c0.2,2.6-1.7,5-4.4,5.2l-13.5,1.2
			c-2.6,0.2-3.4,0.3-3.7-2.3l-4.1-43C381,601.9,388.5,599.1,392.3,600.8L392.3,600.8z"/>
		<path class="st2" d="M361.1,570.3c7.3,0,13.3,6,13.3,13.3c0,0.3,0,0.6,0,0.8h-15v0h-21.6v-3.3h10.3
			C348.1,571.6,353.8,570.3,361.1,570.3L361.1,570.3z"/>
		<polygon class="st2" points="317.7,673.7 323.5,673.7 323.5,750.2 317.7,750.2 317.7,673.7 		"/>
		<path class="st2" d="M369.9,602.9c3.2-0.6,6.7,0.4,7.2,5.1l4.8,49.6l12.3,44.9l20.3,36.2c2.4,4.3,0.9,9.7-3.4,12.1
			c-4.3,2.4-9.7,0.9-12.1-3.4l-22.3-39.7l-10.1-32.5L352,744.8c-1,4.8-5.7,7.8-10.5,6.8c-4.8-1-7.8-5.7-6.8-10.5l16.7-79.2l0.9-4.6
			l-2.9-15.6l-21.3,24.8c-2.7,3.2-7.6,3.6-10.7,0.8c-3.2-2.7-3.6-7.6-0.8-10.7l41.4-48.9C360.8,605.2,366.7,603.5,369.9,602.9
			L369.9,602.9z"/>
		<path class="st2" d="M449.5,602.2c-0.1,0-0.2,0-0.3,0c-7.5,0-13.7-5.7-13.7-12.8s6.1-12.8,13.7-12.8c0.1,0,0.2,0,0.3,0V602.2
			L449.5,602.2z"/>
		<path class="st2" d="M453,601.5v-24.2c14.3,0,26,10.9,26,24.2H453L453,601.5z"/>
		<path class="st2" d="M470.2,633.2l16.9,68l-10.2,0l14.6,41.5c1.3,3.7-0.7,7.7-4.3,9c-3.7,1.3-7.7-0.7-9-4.3l-16.2-46.2l-6.3,0
			l-9.9,45.3c-0.8,3.8-4.6,6.2-8.4,5.4c-3.8-0.8-6.2-4.6-5.4-8.4l9.2-42.2l-9.5,0l9.6-64.8l-21,24.6c-2.2,2.6-6.1,2.9-8.6,0.7
			c-2.6-2.2-2.9-6.1-0.7-8.6l36.3-42.4c0.8-1,1.9-1.6,3.1-1.9c2.4-1.6,5-2.7,7.1-2.9c2.1-0.6,4.5,0,6.1,1.6l31.6,32.7l0.1,16.9
			c0,4.3-2.1,8.1-6.3,7.8c-3.4-0.2-6.3-2.2-6.3-5.5l0-14.6L470.2,633.2L470.2,633.2z"/>
		<path class="st3" d="M321.8,168.4h177.1c17.8,0,32.3,14.6,32.3,32.3v177.1c0,17.8-14.6,32.3-32.3,32.3H321.8
			c-17.8,0-32.3-14.6-32.3-32.3V200.7C289.5,182.9,304,168.4,321.8,168.4L321.8,168.4z"/>
		<path class="st4" d="M339.7,384.1V194.8l41.3-0.2c32.9-0.2,59.6,0.4,82.8,16.6c13.1,12,21.8,30.1,19.3,48.8
			c-1.9,17.4-12.4,32-27.4,41.5c-21,12.6-49.5,10-74.7,10.4v72.2H339.7L339.7,384.1z M381,279.3v-51.7c13,0,28.1-0.6,41.9,1.8
			c9.5,4.4,16,10,15.9,22.3c-0.1,12.3-5.1,21.2-17.8,25.9C408,280,394.7,279.1,381,279.3L381,279.3z"/>
		<polygon class="st5" points="591.4,262.8 560.1,262.8 560.1,317.1 591.4,317.1 591.4,348.9 646.2,348.9 646.2,317.1 678,317.1 
			678,262.8 646.2,262.8 646.2,231 591.4,231 591.4,262.8 		"/>
		<path class="st6" d="M287.3,134h385.4c20.3,0,36.4,16.6,36.4,36.7v619.4c0,20.1-16.3,36.7-36.4,36.7H287.3
			c-20.1,0-36.4-16.3-36.4-36.7V170.6C250.9,150.3,266.9,134,287.3,134L287.3,134z"/>
		<polygon class="st5" points="561.1,550 673.2,550 673.2,568.3 561.1,568.3 561.1,550 		"/>
		<polygon class="st5" points="561.1,639.7 673.2,639.7 673.2,658.1 561.1,658.1 561.1,639.7 		"/>
		<polygon class="st5" points="561.1,729.5 673.2,729.5 673.2,747.8 561.1,747.8 561.1,729.5 		"/>
		<polygon class="st5" points="561.1,579.9 673.2,579.9 673.2,598.2 561.1,598.2 561.1,579.9 		"/>
		<polygon class="st5" points="561.1,669.7 673.2,669.7 673.2,688 561.1,688 561.1,669.7 		"/>
		<polygon class="st5" points="561.1,759.4 673.2,759.4 673.2,777.7 561.1,777.7 561.1,759.4 		"/>
		<polygon class="st5" points="561.1,609.8 673.2,609.8 673.2,628.1 561.1,628.1 561.1,609.8 		"/>
		<polygon class="st5" points="561.1,699.6 673.2,699.6 673.2,717.9 561.1,717.9 561.1,699.6 		"/>
	</g>
</g>
</svg>
