<?xml version="1.0" encoding="utf-8"?>
<!-- Generator: Adobe Illustrator 19.2.0, SVG Export Plug-In . SVG Version: 6.00 Build 0)  -->
<svg version="1.1" id="Livello_1" xmlns="http://www.w3.org/2000/svg" xmlns:xlink="http://www.w3.org/1999/xlink" x="0px" y="0px"
	 viewBox="0 0 960 960" style="enable-background:new 0 0 960 960;" xml:space="preserve">
<style type="text/css">
	.st0{fill-rule:evenodd;clip-rule:evenodd;fill:#005EA7;}
	.st1{fill:none;stroke:#FFFFFF;stroke-width:9.1371;stroke-miterlimit:2.6131;}
	.st2{fill-rule:evenodd;clip-rule:evenodd;fill:#FFFFFF;stroke:#FFFFFF;stroke-width:0.9137;stroke-miterlimit:2.6131;}
	.st3{fill-rule:evenodd;clip-rule:evenodd;fill:#1A171B;}
	.st4{fill-rule:evenodd;clip-rule:evenodd;fill:#FFFFFF;}
</style>
<g>
	<g>
		<polygon class="st0" points="252.1,120 707.9,120 707.9,840 252.1,840 252.1,120 		"/>
		<path class="st1" d="M300.9,134h358.2c20.3,0,36.4,16.6,36.4,36.7v619.4c0,20.1-16.3,36.7-36.4,36.7H300.9
			c-20.1,0-36.4-16.3-36.4-36.7V170.6C264.4,150.3,280.5,134,300.9,134L300.9,134z"/>
		<polygon class="st2" points="312.8,180.3 646.9,180.3 646.9,514.4 312.8,514.4 312.8,180.3 		"/>
		<path class="st3" d="M389.3,386.1c1.7,1.8,2.7,4.1,2.7,6.7c0,5.4-4.4,9.7-9.7,9.7c-5.4,0-9.7-4.4-9.7-9.7c0-2.5,1-4.9,2.6-6.7
			c-11.7,0-22.9,0-33.7,0v-10.3h277.3v10.3c-10.7,0-21.9,0-33.5,0c1.6,1.8,2.5,4.1,2.5,6.6c0,5.4-4.4,9.7-9.7,9.7
			c-5.4,0-9.7-4.4-9.7-9.7c0-2.5,1-4.9,2.6-6.6c-5,0-10,0-15,0c1.7,1.8,2.7,4.1,2.7,6.7c0,5.4-4.4,9.7-9.7,9.7
			c-5.4,0-9.7-4.4-9.7-9.7c0-2.5,1-4.9,2.6-6.7c-40.4,0-83.2,0-123.3,0c1.7,1.8,2.7,4.1,2.7,6.7c0,5.4-4.4,9.7-9.7,9.7
			c-5.4,0-9.7-4.4-9.7-9.7c0-2.5,1-4.9,2.6-6.7C399.3,386.1,394.3,386.1,389.3,386.1L389.3,386.1z"/>
		<path class="st3" d="M341.5,370.9v-69.7c0-6,0.2-10,8.5-10h259.6c9.2,0,9.2,5.2,9.2,10v69.7H341.5L341.5,370.9z"/>
		<path class="st4" d="M563.2,366l-0.1-19.4c0-3.6,0-6.9,5-7.8l28.1-7.5c2.5-0.8,2.5,0.9,2.5,2.6l0,21.8l-5.1,1.3l0.1-8.7l-25.5,6.7
			l0.1,9.3L563.2,366L563.2,366z"/>
		<path class="st4" d="M516.6,331.2l0-12.7l10.1,5.2l29.8-8.5c4.2-0.8,4.2-0.8,6.8,0.9l25.4,13.7l-22.9,6c-4.3,1.8-4.9,3.3-5.7,7.6
			l0.1,11L516.6,331.2L516.6,331.2z"/>
		<path class="st4" d="M508.1,337.2l0-20.3c0.1-9.6,2.3-11.3,5-12.8l28.9-7.5c1.5-0.4,4.2,0.9,4.2,6l-32.1,9.2l0,22.9L508.1,337.2
			L508.1,337.2z"/>
		<path class="st4" d="M525.5,319.6l-7.5-4.1c-1.7-0.9-0.5-2.1,2-2.9l20.4-5.9c1.9-0.4,3.3-0.8,6.6,0.9l6,3.3c1.7,0.9,1.7,1.8,0,2.6
			l-21,5.6C529.4,319.7,527.4,320.4,525.5,319.6L525.5,319.6z"/>
		<path class="st4" d="M377,345.5c-5,0-9,4.1-9,9c0,5,4.1,9,9,9c5,0,9-4.1,9-9C386.1,349.5,382,345.5,377,345.5L377,345.5z"/>
		<path class="st4" d="M455,345.5c-5,0-9,4.1-9,9c0,5,4.1,9,9,9c5,0,9-4.1,9-9C464.1,349.5,460,345.5,455,345.5L455,345.5z"/>
		<path class="st4" d="M365.3,356.9c-0.6-5.4,0.8-8.5,4.1-11.5l-17.6,0.1l3.2,9.8L365.3,356.9L365.3,356.9z"/>
		<path class="st4" d="M443.6,356.9c-0.9-4.6-0.1-8.1,3.7-11.5l-62.9,0c4,2.6,4.8,7.4,4.3,11.4L443.6,356.9L443.6,356.9z"/>
		<polygon class="st4" points="487,342.5 483.7,332.1 385.8,332.2 355,335.6 351.8,342.5 487,342.5 		"/>
		<polygon class="st4" points="390.1,329.2 402.3,316.9 419.8,316.9 419.9,329.2 422.8,329.2 422.8,317 440.6,317 447.3,329.2 
			458.2,329.2 445.3,313.8 401.3,314 386,329.2 390.1,329.2 		"/>
		<path class="st4" d="M483.5,355l3.5-9.6l-24.6,0.1c3.5,3.2,4.6,5.5,4.1,11.4L483.5,355L483.5,355z"/>
		<path class="st3" d="M455,349.7c-2.6,0-4.8,2.2-4.8,4.8c0,2.6,2.2,4.8,4.8,4.8c2.6,0,4.8-2.2,4.8-4.8
			C459.8,351.9,457.6,349.7,455,349.7L455,349.7z"/>
		<path class="st3" d="M377,349.7c-2.6,0-4.8,2.2-4.8,4.8c0,2.6,2.2,4.8,4.8,4.8c2.6,0,4.8-2.2,4.8-4.8
			C381.8,351.9,379.7,349.7,377,349.7L377,349.7z"/>
		<path class="st3" d="M334.9,394.6v-27.1c-3.7,3.4-6.1,8.2-6.1,13.5C328.8,386.4,331.2,391.2,334.9,394.6L334.9,394.6z"/>
		<path class="st3" d="M625.6,394.1v-26c3.6,3.3,5.8,7.9,5.8,13C631.4,386.2,629.1,390.8,625.6,394.1L625.6,394.1z"/>
	</g>
</g>
</svg>
