<?xml version="1.0" encoding="utf-8"?>
<!-- Generator: Adobe Illustrator 19.2.0, SVG Export Plug-In . SVG Version: 6.00 Build 0)  -->
<svg version="1.1" id="Livello_1" xmlns="http://www.w3.org/2000/svg" xmlns:xlink="http://www.w3.org/1999/xlink" x="0px" y="0px"
	 viewBox="0 0 960 960" style="enable-background:new 0 0 960 960;" xml:space="preserve">
<style type="text/css">
	.st0{fill-rule:evenodd;clip-rule:evenodd;fill:#ED7F00;}
	.st1{fill:none;stroke:#1A171B;stroke-width:8.2184;stroke-miterlimit:2.6131;}
	.st2{fill-rule:evenodd;clip-rule:evenodd;fill:#1A171B;}
</style>
<g>
	<g>
		<polygon class="st0" points="180,267.8 780,267.8 780,692.2 180,692.2 180,267.8 		"/>
		<path class="st1" d="M214.6,279.5h530.8c12.9,0,22.9,10.5,22.9,22.9v354.9c0,13.1-10.5,23.1-22.9,23.1H214.6
			c-12.5,0-22.9-9.5-22.9-23.1V302.4C191.7,289.6,201.7,279.5,214.6,279.5L214.6,279.5z"/>
		<polygon class="st2" points="298.6,564.4 298.6,425 253,425 253,396.6 375.1,396.6 375.1,425 329.6,425 329.6,564.4 298.6,564.4 
					"/>
		<path class="st2" d="M517.7,564.4H484l-13.4-38.1h-61.4l-12.7,38.1h-32.9l59.8-167.8h32.8L517.7,564.4L517.7,564.4z M460.6,498
			l-21.2-62.3L418.7,498H460.6L460.6,498z"/>
		<polygon class="st2" points="518.5,564.4 571,476.9 523.5,396.6 559.7,396.6 590.5,450.5 620.7,396.6 656.6,396.6 608.8,478.1 
			661.3,564.4 623.9,564.4 589.9,506.4 555.7,564.4 518.5,564.4 		"/>
		<polygon class="st2" points="676.3,564.4 676.3,396.6 707.3,396.6 707.3,564.4 676.3,564.4 		"/>
	</g>
</g>
</svg>
