<?xml version="1.0" encoding="utf-8"?>
<!-- Generator: Adobe Illustrator 19.2.0, SVG Export Plug-In . SVG Version: 6.00 Build 0)  -->
<svg version="1.1" id="Livello_1" xmlns="http://www.w3.org/2000/svg" xmlns:xlink="http://www.w3.org/1999/xlink" x="0px" y="0px"
	 viewBox="0 0 960 960" style="enable-background:new 0 0 960 960;" xml:space="preserve">
<style type="text/css">
	.st0{fill-rule:evenodd;clip-rule:evenodd;fill:#005EA7;}
	.st1{fill:none;stroke:#FFFFFF;stroke-width:9.1371;stroke-miterlimit:2.6131;}
	.st2{fill-rule:evenodd;clip-rule:evenodd;fill:#FFFFFF;stroke:#FFFFFF;stroke-width:0.9137;stroke-miterlimit:2.6131;}
	.st3{fill-rule:evenodd;clip-rule:evenodd;fill:#1A171B;stroke:#1A171B;stroke-width:0.9137;stroke-miterlimit:2.6131;}
	.st4{fill-rule:evenodd;clip-rule:evenodd;fill:#1A171B;stroke:#1A171B;stroke-width:1.5228;stroke-miterlimit:2.6131;}
</style>
<g>
	<g>
		<polygon class="st0" points="252.1,120 707.9,120 707.9,840 252.1,840 252.1,120 		"/>
		<path class="st1" d="M300.9,134h358.2c20.3,0,36.4,16.6,36.4,36.7v619.4c0,20.1-16.3,36.7-36.4,36.7H300.9
			c-20.1,0-36.4-16.3-36.4-36.7V170.6C264.4,150.3,280.5,134,300.9,134L300.9,134z"/>
		<polygon class="st2" points="312.8,180.3 646.9,180.3 646.9,514.4 312.8,514.4 312.8,180.3 		"/>
		<polygon class="st3" points="478.6,447.9 451.3,404.6 468.4,404.6 468.4,365.6 489.4,365.6 489.4,404.6 506.1,404.6 478.6,447.9 
					"/>
		<path class="st3" d="M513.1,431.9c-0.2,19.1-15.3,34.2-34.4,34.2c-18.6,0-33.7-15.1-33.9-34.2h-93.9v45.5h257.8v-45.5H513.1
			L513.1,431.9z"/>
		<path class="st4" d="M346.5,348.7v-54.3l34.9-48.5h54.1l-0.1,102.8l-32.1,0.1c-0.6-32.6-47.9-33.2-48.7,0L346.5,348.7L346.5,348.7
			z M353.9,294.4l31.7-41.7l43.6-0.1v41.8H353.9L353.9,294.4z"/>
		<path class="st4" d="M443.5,349.2v-111h-73.8l11.6-21.6h90.6l39,17h95.5l7.1,57.3H496.7l0.1,7.8h115.8l-9,50.4h-43.8
			c-1-33.5-49-31.7-49,0.1H443.5L443.5,349.2z M452.6,340.1v-93.9h35v93.9H452.6L452.6,340.1z M532.7,281.8v-35.6h64.7l4.3,35.9
			L532.7,281.8L532.7,281.8z"/>
		<path class="st3" d="M535.2,340.3c4.8,0,8.6,3.9,8.6,8.6c0,4.8-3.9,8.6-8.6,8.6c-4.8,0-8.7-3.9-8.7-8.6
			C526.5,344.2,530.4,340.3,535.2,340.3L535.2,340.3z M535.2,329.9c10.5,0,19,8.5,19,19c0,10.5-8.5,19-19,19c-10.5,0-19-8.5-19-19
			C516.2,338.4,524.7,329.9,535.2,329.9L535.2,329.9z"/>
		<path class="st3" d="M379.2,340.3c4.8,0,8.6,3.9,8.6,8.6c0,4.8-3.9,8.6-8.6,8.6c-4.8,0-8.6-3.9-8.6-8.6
			C370.5,344.2,374.4,340.3,379.2,340.3L379.2,340.3z M379.2,329.9c10.5,0,19,8.5,19,19c0,10.5-8.5,19-19,19c-10.5,0-19-8.5-19-19
			C360.2,338.4,368.7,329.9,379.2,329.9L379.2,329.9z"/>
	</g>
</g>
</svg>
