<?xml version="1.0" encoding="utf-8"?>
<!-- Generator: Adobe Illustrator 19.2.0, SVG Export Plug-In . SVG Version: 6.00 Build 0)  -->
<svg version="1.1" id="Livello_1" xmlns="http://www.w3.org/2000/svg" xmlns:xlink="http://www.w3.org/1999/xlink" x="0px" y="0px"
	 viewBox="0 0 960 960" style="enable-background:new 0 0 960 960;" xml:space="preserve">
<style type="text/css">
	.st0{fill-rule:evenodd;clip-rule:evenodd;fill:#FFFFFF;stroke:#1A171B;stroke-width:1.3397;stroke-miterlimit:2.6131;}
	.st1{fill-rule:evenodd;clip-rule:evenodd;fill:#E1001A;}
	.st2{fill-rule:evenodd;clip-rule:evenodd;fill:#FFEC00;stroke:#E1001A;stroke-width:4.4658;stroke-miterlimit:2.6131;}
	.st3{fill-rule:evenodd;clip-rule:evenodd;fill:#1A171B;}
</style>
<g>
	<g>
		<path class="st0" d="M769.3,776.6c31.1-1.3,49.8-24.6,44.9-55.5l-1.1-4.7l-1.8-5.1l-2.2-4.9L523.4,210.8
			c-14.4-22-34.6-34.6-60.9-23.5c-10,5.5-17.3,13.3-23.1,22.7l-285.2,494c-10.4,19.5-14.4,40,1.5,58c12.6,13.3,28.2,14.7,45.8,14.7
			l561-0.2H769.3L769.3,776.6z"/>
		<path class="st1" d="M762.4,762.3c8.7-0.2,17.3,0.9,26.4-5.8c9.1-6.7,17.5-23.8,7.6-43.5L511,218.2c-16-28-44.2-27.3-59.5-0.7
			L166.7,711.2c-6,10.5-11.1,25.5-4.2,36.6c9.1,14.5,23.5,14.5,38.9,14.7L762.4,762.3L762.4,762.3z"/>
		<polygon class="st2" points="724.4,704.2 480.8,282.8 237.8,704.2 724.4,704.2 		"/>
		<path class="st3" d="M480.9,683.8c3.4-8.9,11.6-18.2,27.9-16.3c-0.6-10.4,7.6-19.3,17.1-17.6c3.6-7.8,6.1-10,14.2-12.5L479,585.1
			l-3.4,1.3c5.3,5.5,12.5,13.8,8.7,23.9l-37.3,65.8c-12.7,19.7-34.9,1.7-26.7-12.9l31.1-56.5l-32.8-48.1v50l-19.1,65.8
			c-6.8,18.6-33,9.3-27.9-6.6l16.3-59.5v-63.1l2.5-11c3.4-4,6.8-6.3,11.2-11.6c0-2.1-2.1-3-3.8-4.2c-1.5-2.1-2.1-5.3-4-7.8
			c-3.8-2.8-7.2-5.9-11.9-10.2c-4.9-5.5,0.6-12.7,6.6-8.5c2.5,1.5,7.6,6.3,10.8,9.1l8.5-38.9c2.3-6.6,4.4-10.4,12.1-11.4l59.9,0.2
			c5.3,1.5,10.4,3.2,12.7,7.2l20.1,33c1.9,7,2.7,6.8,0.8,14.2l-32.2,66.5c20.3,18.8,46.1,40.9,69,59.7c16.5-23.3,44.9-11.6,53.6,5.3
			c17.4,0,24.8,11,22.6,21.2c8,4,4,0.2,8.5,7.6c11,0,19.9,9.9,23.1,18.2H480.9L480.9,683.8z M446.7,542.1L478,529l-14,27.5
			L446.7,542.1L446.7,542.1z M423.6,498.7l5.3-22h18.4L423.6,498.7L423.6,498.7z M530.9,443.3c12.1,0,21.8,9.7,21.8,21.8
			c0,12.1-9.7,21.8-21.8,21.8c-12.1,0-21.8-9.7-21.8-21.8C509.1,453,518.8,443.3,530.9,443.3L530.9,443.3z"/>
	</g>
</g>
</svg>
