<?xml version="1.0" encoding="utf-8"?>
<!-- Generator: Adobe Illustrator 19.2.0, SVG Export Plug-In . SVG Version: 6.00 Build 0)  -->
<svg version="1.1" id="Livello_1" xmlns="http://www.w3.org/2000/svg" xmlns:xlink="http://www.w3.org/1999/xlink" x="0px" y="0px"
	 viewBox="0 0 960 960" style="enable-background:new 0 0 960 960;" xml:space="preserve">
<style type="text/css">
	.st0{fill:none;stroke:#1A171B;stroke-width:3.9748;stroke-miterlimit:2.6131;}
	.st1{fill-rule:evenodd;clip-rule:evenodd;fill:#9B9C9E;}
	.st2{fill-rule:evenodd;clip-rule:evenodd;fill:#C5C6C8;}
	.st3{fill-rule:evenodd;clip-rule:evenodd;fill:#FFFFFF;stroke:#1A171B;stroke-width:1.9874;stroke-miterlimit:2.6131;}
	.st4{fill-rule:evenodd;clip-rule:evenodd;fill:#E1001A;stroke:#E1001A;stroke-width:1.1924;stroke-miterlimit:2.6131;}
</style>
<g>
	<g>
		<polygon class="st0" points="225.1,310.7 251.5,310.7 251.5,676.6 225.1,676.6 225.1,310.7 		"/>
		<polygon class="st1" points="45,676.6 915,676.6 915,705 45,705 45,676.6 		"/>
		<polygon class="st0" points="708.7,310.7 735.1,310.7 735.1,676.6 708.7,676.6 708.7,310.7 		"/>
		<polygon class="st2" points="735.1,342 741.6,342 741.6,673.3 735.1,673.3 735.1,342 		"/>
		<polygon class="st2" points="251.5,342 258,342 258,673.3 251.5,673.3 251.5,342 		"/>
		<polygon class="st3" points="168.4,255 794.3,255 794.3,342 168.4,342 168.4,255 		"/>
		<polygon class="st4" points="254.5,255 168.8,255 168.8,340.4 254.5,255 		"/>
		<polygon class="st4" points="411.9,255 321.8,255 234.6,341.8 324.8,341.8 411.9,255 		"/>
		<polygon class="st4" points="569.4,255 479.3,255 392.1,341.8 482.3,341.8 569.4,255 		"/>
		<polygon class="st4" points="727.1,255 636.9,255 549.8,341.8 640,341.8 727.1,255 		"/>
		<polygon class="st4" points="794.2,255.4 794.2,341.8 707.5,341.8 794.2,255.4 		"/>
	</g>
</g>
</svg>
