<?xml version="1.0" encoding="utf-8"?>
<!-- Generator: Adobe Illustrator 19.2.0, SVG Export Plug-In . SVG Version: 6.00 Build 0)  -->
<svg version="1.1" id="Livello_1" xmlns="http://www.w3.org/2000/svg" xmlns:xlink="http://www.w3.org/1999/xlink" x="0px" y="0px"
	 viewBox="0 0 960 960" style="enable-background:new 0 0 960 960;" xml:space="preserve">
<style type="text/css">
	.st0{fill:#FFFFFF;stroke:#1A171B;stroke-width:1.9713;stroke-miterlimit:2.6131;}
	.st1{fill-rule:evenodd;clip-rule:evenodd;fill:#E1001A;}
	.st2{fill-rule:evenodd;clip-rule:evenodd;fill:#FFFFFF;stroke:#1A171B;stroke-width:1.1828;stroke-miterlimit:2.6131;}
	.st3{fill-rule:evenodd;clip-rule:evenodd;fill:#005EA7;}
	.st4{fill-rule:evenodd;clip-rule:evenodd;fill:#FFFFFF;}
</style>
<g>
	<g>
		<polygon class="st0" points="120,120.3 839.7,120.3 839.7,840 120,840 120,120.3 		"/>
		<polygon class="st1" points="539,839.7 637.6,839.7 480.7,682.5 323.5,839.7 422.1,839.7 480.7,781.1 539,839.7 		"/>
		<polygon class="st1" points="736.2,839.7 834.3,839.7 480.7,485.9 126.9,839.7 224.9,839.7 480.7,583.9 736.2,839.7 		"/>
		<polygon class="st1" points="840,746.8 840,648.5 480.7,288.9 120.3,649.1 120.3,747.7 480.7,387.2 840,746.8 		"/>
		<polygon class="st1" points="705.7,120 607.1,120 840,352.9 840,254.3 705.7,120 		"/>
		<polygon class="st1" points="508.7,120 452.4,120 120.3,452.1 120.3,550.5 480.7,190.3 840,549.9 840,451.3 508.7,120 		"/>
		<polygon class="st1" points="354.1,120 255.5,120 120.3,255.2 120.3,353.5 354.1,120 		"/>
		<path class="st2" d="M501.2,271.1c67.1,12,110.6,36.4,151.5,91.5c23.3,37.5,34.1,72.4,35.6,116.2c-3,87.7-48.4,154.9-127.1,191.6
			c-89.2,36.7-178.9,11.2-242.2-59.3c-39.8-52.1-54.7-109.5-43.1-174.7c13.5-50.2,33-83.6,71.6-118.5
			c41.3-30.7,80.2-46.1,132.4-47.6L501.2,271.1L501.2,271.1z"/>
		<path class="st3" d="M480.7,281.9c108.2,0,196.5,88.2,196.5,196.5c0,108.2-88.3,196.4-196.5,196.4s-196.5-88.3-196.5-196.4
			C284.3,370.2,372.5,281.9,480.7,281.9L480.7,281.9z"/>
		<path class="st4" d="M600,599.9l-169.4-44.4c-4-3.7-7-7-0.8-13.2l45.3-28.2L344.1,382.7l37.8-37.6l129.5,129.7l30.9-45
			c6.3-6.4,9.9-2.9,13.4,0.6L600,599.9L600,599.9z"/>
	</g>
</g>
</svg>
