<?xml version="1.0" encoding="utf-8"?>
<!-- Generator: Adobe Illustrator 19.2.0, SVG Export Plug-In . SVG Version: 6.00 Build 0)  -->
<svg version="1.1" id="Livello_1" xmlns="http://www.w3.org/2000/svg" xmlns:xlink="http://www.w3.org/1999/xlink" x="0px" y="0px"
	 viewBox="0 0 960 960" style="enable-background:new 0 0 960 960;" xml:space="preserve">
<style type="text/css">
	.st0{fill:#FFFFFF;stroke:#1A171B;stroke-width:0.8294;stroke-miterlimit:2.6131;}
	.st1{fill-rule:evenodd;clip-rule:evenodd;fill:#FFEC00;stroke:#1A171B;stroke-width:0.8294;stroke-miterlimit:2.6131;}
	.st2{fill-rule:evenodd;clip-rule:evenodd;fill:#FFFFFF;stroke:#1A171B;stroke-width:0.8294;stroke-miterlimit:2.6131;}
	.st3{fill-rule:evenodd;clip-rule:evenodd;fill:#E1001A;}
	.st4{fill-rule:evenodd;clip-rule:evenodd;fill:#FFEC00;stroke:#E1001A;stroke-width:2.7645;stroke-miterlimit:2.6131;}
	.st5{fill-rule:evenodd;clip-rule:evenodd;fill:#1A171B;}
	.st6{fill-rule:evenodd;clip-rule:evenodd;fill:#FFEC00;stroke:#1A171B;stroke-width:8.2936;stroke-miterlimit:2.6131;}
	.st7{fill:none;stroke:#1A171B;stroke-width:6.3584;stroke-miterlimit:2.6131;}
	.st8{fill-rule:evenodd;clip-rule:evenodd;fill:#E1001A;stroke:#1A171B;stroke-width:0.8294;stroke-miterlimit:2.6131;}
	.st9{fill-rule:evenodd;clip-rule:evenodd;fill:#ED7F00;stroke:#1A171B;stroke-width:0.8294;stroke-miterlimit:2.6131;}
</style>
<g>
	<g>
		<polygon class="st0" points="479.9,608.3 915,608.3 915,803.2 479.9,803.2 479.9,608.3 		"/>
		<polygon class="st0" points="479.9,156.8 915,156.8 915,608.3 479.9,608.3 479.9,156.8 		"/>
		<polygon class="st1" points="480.1,156.8 45,156.8 45,803.2 480.1,803.2 480.1,156.8 		"/>
		<path class="st2" d="M855.9,570.9c17-0.7,27.2-13.4,24.5-30.2l-0.6-2.6l-1-2.8l-1.2-2.7L721.8,262.5c-7.8-12-18.8-18.8-33.2-12.8
			c-5.5,3-9.4,7.2-12.6,12.4L520.6,531.3c-5.7,10.6-7.8,21.8,0.8,31.6c6.8,7.2,15.4,8,25,8l305.7-0.1H855.9L855.9,570.9z"/>
		<path class="st3" d="M852.1,563.1c4.8-0.1,9.4,0.5,14.4-3.2c5-3.7,9.5-13,4.2-23.7L715.1,266.5c-8.7-15.3-24.1-14.9-32.4-0.4
			L527.4,535.2c-3.3,5.7-6,13.9-2.3,19.9c5,7.9,12.8,7.9,21.2,8L852.1,563.1L852.1,563.1z"/>
		<polygon class="st4" points="831.4,531.4 698.6,301.7 566.2,531.4 831.4,531.4 		"/>
		<path class="st5" d="M698.7,520.3c1.8-4.8,6.3-9.9,15.2-8.9c-0.3-5.7,4.2-10.5,9.3-9.6c2-4.3,3.3-5.4,7.7-6.8l-33.3-28.5l-1.8,0.7
			c2.9,3,6.8,7.5,4.7,13l-20.3,35.9c-6.9,10.7-19,0.9-14.5-7l17-30.8l-17.9-26.2v27.2l-10.4,35.9c-3.7,10.2-18,5.1-15.2-3.6
			l8.9-32.4v-34.4l1.4-6c1.8-2.2,3.7-3.5,6.1-6.3c0-1.2-1.2-1.6-2.1-2.3c-0.8-1.2-1.2-2.9-2.2-4.3c-2.1-1.5-3.9-3.2-6.5-5.5
			c-2.7-3,0.3-6.9,3.6-4.6c1.4,0.8,4.2,3.5,5.9,5l4.6-21.2c1.3-3.6,2.4-5.7,6.6-6.2l32.6,0.1c2.9,0.8,5.7,1.7,6.9,3.9l11,18
			c1,3.8,1.5,3.7,0.5,7.7l-17.5,36.2c11.1,10.3,25.1,22.3,37.6,32.5c9-12.7,24.5-6.3,29.2,2.9c9.5,0,13.5,6,12.3,11.5
			c4.4,2.2,2.2,0.1,4.6,4.2c6,0,10.8,5.4,12.6,9.9H698.7L698.7,520.3z M680,443.1l17.1-7.2l-7.6,15L680,443.1L680,443.1z
			 M667.4,419.4l2.9-12h10L667.4,419.4L667.4,419.4z M725.9,389.2c6.6,0,11.9,5.3,11.9,11.9c0,6.6-5.3,11.9-11.9,11.9
			c-6.6,0-11.9-5.3-11.9-11.9C714,394.5,719.4,389.2,725.9,389.2L725.9,389.2z"/>
		<path class="st6" d="M435.1,169.8h-345c-18.8,0-33.7,16-33.7,33.7V757c0,17.7,16,33.7,33.7,33.7h345c17.7,0,33.7-14.9,33.7-33.7
			V203.5C468.8,184.7,453.9,169.8,435.1,169.8L435.1,169.8z"/>
		<path class="st7" d="M524.9,621.3h345c18.8,0,33.7,17.4,33.7,33.7v102c0,16.3-17.4,33.7-33.7,33.7h-345
			c-16.3,0-33.7-14.9-33.7-33.7V655C491.2,636.2,506.1,621.3,524.9,621.3L524.9,621.3z"/>
		<path class="st7" d="M524.9,169.8h345c18.8,0,33.7,16.9,33.7,33.7v358.6c0,16.9-16.9,33.7-33.7,33.7h-345
			c-16.9,0-33.7-14.9-33.7-33.7V203.5C491.2,184.7,506.1,169.8,524.9,169.8L524.9,169.8z"/>
		<path class="st5" d="M262.3,488.3l-65.8,37c-0.6,1.7-1.7,3.3,1.7,5.5l21.6,7.7l-40.1,78.5c-3.3,5.8-5.5,11.3-5.5,18.2v29.3v97
			h22.7V642.8c-0.6-8.3,2.5-14.1,5.8-20.2l37-72.4l17.7,14.4c3.3,2.2,4.4,0,5-1.1V488.3L262.3,488.3z"/>
		<path class="st5" d="M404.9,233.1l-38.2,65c0,1.9,0,3.9,3.9,3.9l22.7-3.9v463.6H416V298.1l22.7,3.9c3.9,0,3.9-2.2,3.9-3.9
			L404.9,233.1L404.9,233.1z"/>
		<path class="st5" d="M308.2,233.1l-38.1,65c0,1.9,0,3.9,3.9,3.9l22.7-3.9v463.6h22.7V298.1l22.7,3.9c3.9,0,3.9-2.2,3.9-3.9
			L308.2,233.1L308.2,233.1z"/>
		<polygon class="st8" points="218.3,199.1 249.9,199.1 249.9,329.6 113.3,630.1 113.3,761.7 81.8,761.7 81.8,625.1 218.3,324.4 
			218.3,199.1 		"/>
		<path class="st9" d="M550.5,199.1c15.6,0,28.3,12.7,28.3,28.3c0,15.6-12.7,28.3-28.3,28.3c-15.6,0-28.3-12.7-28.3-28.3
			C522.2,211.9,534.9,199.1,550.5,199.1L550.5,199.1z"/>
		<path class="st9" d="M843.3,199.1c15.6,0,28.3,12.7,28.3,28.3c0,15.6-12.7,28.3-28.3,28.3c-15.6,0-28.3-12.7-28.3-28.3
			C814.9,211.9,827.7,199.1,843.3,199.1L843.3,199.1z"/>
		<path class="st5" d="M756.2,694.6h12v6.2c4-5,9.5-7.5,15-7.5c3.2,0,6.5,0.7,8.2,1.7c2.2,1.2,4.7,3.2,6,5.7c1.7-2.5,4.5-4.5,7-5.5
			c2.7-1.2,5.5-2,8.2-2c3.5,0,6.7,0.7,9,2c2.2,1.5,4.7,4,6,6.5c1,1.7,1.5,5,1.5,9.2v29.2h-13.5v-26.2c0-4.2-0.3-7.7-1.2-8.5
			c-1-1.7-3.2-3-5.5-3c-1.7,0-3.7,1-5,1.7c-2,0.7-3.2,3-3.7,4.7c-0.5,1.5-1,5-1,9.2v22h-13.2v-24.9c0-4.2-0.5-7.5-0.5-8.5
			c-0.2-1.2-1.2-2.5-2.2-3c-0.7-0.7-2.7-1.2-4-1.2c-2,0-4.2,1-5.5,1.7c-1.5,0.7-2.7,2.5-3.2,4.2c-0.5,1.7-1,5.5-1,9.7v22h-13.2
			V694.6L756.2,694.6z"/>
		<path class="st5" d="M712.1,681.5c-2,0-4.3,0.3-5.1,1.4c-1.1,0.8-2.8,3.3-3.1,6.1c-1.1,3.3-1.7,9.4-1.7,17.1
			c0,8,0.6,14.1,1.1,16.9c0.9,2.8,2.6,5.3,3.7,6.1c0.9,1.1,3.1,1.4,5.1,1.4c1.4,0,3.7-0.3,4.5-1.4c1.1-0.8,2.8-2.8,3.1-5.5
			c1.1-3.3,2.3-9.4,2.3-17.4c0-7.7-0.6-13.8-1.7-16.9c-0.9-2.8-2.6-5-3.7-6.1C715.8,682.4,713.5,681.5,712.1,681.5L712.1,681.5z
			 M712.1,670.2c7.4,0,13.6,2.8,17.6,7.5c5.4,5.5,8,15.5,8,28.5c0,13.3-2.6,22.9-8,28.8c-4,4.7-10.2,6.9-17.6,6.9
			c-8,0-14.5-2.8-18.8-7.5c-4.3-5.3-6.8-14.9-6.8-28.2c0-13,2.6-22.9,7.4-28.5C697.9,673,704.7,670.2,712.1,670.2L712.1,670.2z
			 M651.5,681.5c-2,0-4,0.3-5.1,1.4c-1.1,0.8-2.6,3.3-3.1,6.1c-1.1,3.3-1.7,9.4-1.7,17.1c0,8,0.6,14.1,1.1,16.9
			c1.1,2.8,2.6,5.3,3.7,6.1c1.1,1.1,3.1,1.4,5.1,1.4c1.7,0,3.7-0.3,4.8-1.4c0.9-0.8,2.6-2.8,3.1-5.5c0.9-3.3,2-9.4,2-17.4
			c0-7.7-0.6-13.8-1.4-16.9c-1.1-2.8-2.8-5-3.7-6.1C655.2,682.4,653.2,681.5,651.5,681.5L651.5,681.5z M651.5,670.2
			c7.4,0,13.6,2.8,17.9,7.5c5.1,5.5,7.7,15.5,7.7,28.5c0,13.3-2.6,22.9-7.7,28.8c-4.3,4.7-10.5,6.9-17.9,6.9
			c-7.7,0-14.5-2.8-18.8-7.5c-4-5.3-6.8-14.9-6.8-28.2c0-13,2.8-22.9,7.4-28.5C637.6,673,644.4,670.2,651.5,670.2L651.5,670.2z
			 M565.7,722.2l14.5-1.4c0,2.8,1.7,5.5,3.7,6.9c2,1.9,4.5,2.8,7.4,2.8c3.1,0,6.3-0.8,8.2-2.8c2-1.9,3.7-5.5,3.7-9.7
			c0-3.9-1.1-7.5-3.1-9.4c-2.3-1.9-5.7-3.3-9.4-3.3c-4.3,0-8.5,1.9-11.9,5.3l-11.7-1.4l8-37.6h40.1v12.7h-29.3l-2.6,12.2
			c3.1-1.4,7.4-2.5,10.5-2.5c6.8,0,13.1,2.5,17.6,6.6c4.8,4.1,7.4,10.2,7.4,16.9c0,5.5-2.3,10.8-5.7,15.5
			c-5.4,5.5-12.5,8.8-21.6,8.8c-7.1,0-13.4-1.9-17.6-5.2C569.4,733.5,566.3,728.3,565.7,722.2L565.7,722.2z"/>
	</g>
</g>
</svg>
