<?xml version="1.0" encoding="utf-8"?>
<!-- Generator: Adobe Illustrator 19.2.0, SVG Export Plug-In . SVG Version: 6.00 Build 0)  -->
<svg version="1.1" id="Livello_1" xmlns="http://www.w3.org/2000/svg" xmlns:xlink="http://www.w3.org/1999/xlink" x="0px" y="0px"
	 viewBox="0 0 960 960" style="enable-background:new 0 0 960 960;" xml:space="preserve">
<style type="text/css">
	.st0{fill-rule:evenodd;clip-rule:evenodd;fill:#C5C6C8;}
	.st1{fill-rule:evenodd;clip-rule:evenodd;fill:#FFFFFF;stroke:#1A171B;stroke-width:4.3828;stroke-miterlimit:2.6131;}
	.st2{fill-rule:evenodd;clip-rule:evenodd;fill:#E1001A;}
	.st3{fill-rule:evenodd;clip-rule:evenodd;fill:#008E43;}
</style>
<g>
	<g>
		<g>
			<polygon class="st0" points="260.3,361.3 270.8,361.3 270.8,780.9 260.3,780.9 260.3,361.3 			"/>
			<polygon class="st1" points="203.2,338.2 262,338.2 262,786.1 203.2,786.1 203.2,338.2 			"/>
			<path class="st1" d="M233.2,173.9c103.7,0,188.2,84.5,188.2,188.2c0,103.7-84.5,188.2-188.2,188.2S45,465.7,45,362.1
				C45,258.4,129.5,173.9,233.2,173.9L233.2,173.9z"/>
			<path class="st2" d="M233.2,185.7c97.2,0,176.4,79.2,176.4,176.4c0,97.2-79.2,176.4-176.4,176.4S56.8,459.2,56.8,362.1
				C56.8,264.9,136.1,185.7,233.2,185.7L233.2,185.7z"/>
		</g>
		<g>
			<polygon class="st0" points="753.9,361.3 764.4,361.3 764.4,780.9 753.9,780.9 753.9,361.3 			"/>
			<polygon class="st1" points="696.8,338.2 755.5,338.2 755.5,786.1 696.8,786.1 696.8,338.2 			"/>
			<path class="st1" d="M726.8,173.9c103.7,0,188.2,84.5,188.2,188.2c0,103.7-84.5,188.2-188.2,188.2s-188.2-84.5-188.2-188.2
				C538.6,258.4,623.1,173.9,726.8,173.9L726.8,173.9z"/>
			<path class="st3" d="M726.8,185.7c97.2,0,176.4,79.2,176.4,176.4c0,97.2-79.2,176.4-176.4,176.4c-97.2,0-176.4-79.2-176.4-176.4
				C550.4,264.9,629.6,185.7,726.8,185.7L726.8,185.7z"/>
		</g>
	</g>
</g>
</svg>
