<?xml version="1.0" encoding="utf-8"?>
<!-- Generator: Adobe Illustrator 19.2.0, SVG Export Plug-In . SVG Version: 6.00 Build 0)  -->
<svg version="1.1" id="Livello_1" xmlns="http://www.w3.org/2000/svg" xmlns:xlink="http://www.w3.org/1999/xlink" x="0px" y="0px"
	 viewBox="0 0 960 960" style="enable-background:new 0 0 960 960;" xml:space="preserve">
<style type="text/css">
	.st0{fill-rule:evenodd;clip-rule:evenodd;fill:#FFEC00;stroke:#1A171B;stroke-width:0.9667;stroke-miterlimit:2.6131;}
	.st1{fill-rule:evenodd;clip-rule:evenodd;fill:#1A171B;}
	.st2{fill-rule:evenodd;clip-rule:evenodd;fill:#FFFFFF;}
	.st3{fill-rule:evenodd;clip-rule:evenodd;fill:#E1001A;}
	.st4{fill-rule:evenodd;clip-rule:evenodd;fill:#1A171B;stroke:#1A171B;stroke-width:0.9667;stroke-miterlimit:2.6131;}
	.st5{fill-rule:evenodd;clip-rule:evenodd;fill:#FFFFFF;stroke:#1A171B;stroke-width:0.9667;stroke-miterlimit:2.6131;}
	.st6{fill:none;stroke:#1A171B;stroke-width:9.6667;stroke-miterlimit:2.6131;}
</style>
<g>
	<g>
		<polygon class="st0" points="45,145 915,145 915,815 45,815 45,145 		"/>
		<path class="st1" d="M480.6,287.5l-56.4,95.4c0,3.9,2.3,6.4,6.1,6.4l33.2-6.4c0,284.8,0,183.3,0,383.4h33.2v-80.9L615,617.1V475.3
			L496.8,407c0-18.7,0,0.6,0-24.2l33.5,6.4c4.8,0.6,5.8-3.9,5.8-6.4L480.6,287.5L480.6,287.5z M496.4,442.8v206.9l87.6-50.6V493.4
			L496.4,442.8L496.4,442.8z"/>
		<path class="st2" d="M486.8,482.5c20.5,3.7,33.8,11.1,46.3,28c7.1,11.5,10.4,22.1,10.9,35.6c-0.9,26.8-14.8,47.4-38.9,58.6
			c-27.3,11.2-54.7,3.4-74.1-18.1c-12.2-15.9-16.7-33.5-13.2-53.4c4.1-15.4,10.1-25.6,21.9-36.2c12.6-9.4,24.5-14.1,40.5-14.6
			L486.8,482.5L486.8,482.5z"/>
		<path class="st3" d="M480.8,486.5c32.6,0,59.2,26.6,59.2,59.2S513.4,605,480.8,605c-32.6,0-59.2-26.6-59.2-59.2
			S448.2,486.5,480.8,486.5L480.8,486.5z"/>
		<path class="st2" d="M480.8,501.7c24.3,0,44.1,19.8,44.1,44.1c0,24.3-19.8,44.1-44.1,44.1c-24.3,0-44.1-19.8-44.1-44.1
			C436.7,521.5,456.5,501.7,480.8,501.7L480.8,501.7z"/>
		<path class="st4" d="M474.6,573c-0.5,0-1.1-0.5-0.3-1c0.8-0.1,1.4-0.7,1.3-1.3c-2.2-1-1.5-3.2-0.3-4
			C480.2,565.2,480,573,474.6,573L474.6,573z"/>
		<polygon class="st4" points="453.7,570.1 467.3,529.1 453.7,529.1 453.7,520.4 476.1,520.4 476.1,531.8 463.5,570.1 453.7,570.1 
					"/>
		<path class="st4" d="M506.5,570.1c-2.1,0-3.7-1-4.7-2.8c-1-1.8-1.6-4.5-1.6-8.2c0-3.5,0.6-6.2,1.6-8.1c1-1.8,2.6-2.8,4.6-2.8
			c2.1,0,3.7,0.9,4.7,2.7c1,1.8,1.6,4.5,1.6,8.1c0,3.6-0.6,6.4-1.6,8.2C510.2,569.2,508.6,570.1,506.5,570.1L506.5,570.1
			L506.5,570.1z"/>
		<path class="st5" d="M506.6,566.1c0.7,0,1.4-0.5,1.7-1.4c0.3-1,0.5-2.7,0.5-5.1c0-2.5-0.2-4.4-0.5-5.5c-0.4-1.1-1-1.7-1.7-1.7
			c-0.8,0-1.4,0.5-1.7,1.6c-0.3,1.1-0.6,2.9-0.6,5.3c0,2.5,0.2,4.4,0.5,5.3C505.1,565.5,505.7,566.1,506.6,566.1L506.6,566.1
			L506.6,566.1z"/>
		<path class="st4" d="M490.5,570.1c-2.1,0-3.6-1-4.6-2.8c-1-1.8-1.6-4.5-1.6-8.2c0-3.5,0.6-6.2,1.6-8.1c1-1.8,2.6-2.8,4.6-2.8
			c2,0,3.6,0.9,4.6,2.7c1.1,1.8,1.6,4.5,1.6,8.1c0,3.6-0.6,6.4-1.6,8.2C494.1,569.2,492.6,570.1,490.5,570.1L490.5,570.1
			L490.5,570.1z"/>
		<path class="st5" d="M490.6,566.1c0.7,0,1.3-0.5,1.6-1.4c0.3-1,0.5-2.7,0.5-5.1c0-2.5-0.2-4.4-0.5-5.5c-0.3-1.1-1-1.7-1.7-1.7
			c-0.7,0-1.3,0.5-1.6,1.6c-0.4,1.1-0.6,2.9-0.6,5.3c0,2.5,0.2,4.4,0.5,5.3C489.1,565.5,489.7,566.1,490.6,566.1L490.6,566.1
			L490.6,566.1z"/>
		<path class="st4" d="M490.6,542.2c-2.7,0-4.1-1.9-4.1-3.9v-10h-2.2v-3.6h2.2V522l3.3-1.7v4.4h2.3v3.6h-2.3v10
			c0.7,1.3,1.8,0.7,3.1-0.3l0.9,2.1C493.3,540.9,492.6,542.2,490.6,542.2L490.6,542.2z"/>
		<path class="st6" d="M86.6,158.9h788.8c15.1,0,27.4,15.5,27.4,27.4v587.4c0,11.6-15.1,27.7-27.4,27.7H86.6
			c-12.2,0-27.4-12.2-27.4-27.7V186.3C59.2,170.8,71.4,158.9,86.6,158.9L86.6,158.9z"/>
		<polygon class="st1" points="323.4,259.8 323.4,195.5 336.6,195.5 336.6,248.8 369.7,248.8 369.7,259.8 323.4,259.8 		"/>
		<path class="st1" d="M379.1,195h13.3v35.1c0,5.6,0.2,9.2,0.5,10.8c0.6,2.7,1.9,4.8,4.1,6.4c2.1,1.6,5.1,2.4,8.8,2.4
			c3.8,0,6.6-0.8,8.5-2.3c1.9-1.5,3.1-3.4,3.4-5.6c0.4-2.2,0.6-5.9,0.6-11V195h13.3v34c0,7.8-0.4,13.3-1.1,16.5
			c-0.7,3.2-2,5.9-4,8.1c-1.9,2.2-4.5,4-7.7,5.3c-3.2,1.3-7.5,2-12.7,2c-6.3,0-11-0.7-14.3-2.1c-3.2-1.4-5.8-3.3-7.7-5.6
			c-1.9-2.3-3.1-4.7-3.7-7.2c-0.9-3.7-1.3-9.2-1.3-16.4V195L379.1,195z"/>
		<path class="st1" d="M487.6,235.9l12.9,4c-2,7.1-5.3,12.3-9.8,15.8c-4.6,3.4-10.4,5.1-17.5,5.1c-8.7,0-15.9-2.9-21.5-8.8
			c-5.6-5.9-8.4-13.9-8.4-24.1c0-10.8,2.8-19.2,8.5-25.1c5.7-6,13.1-8.9,22.3-8.9c8,0,14.6,2.3,19.6,7c3,2.8,5.2,6.7,6.7,11.9
			l-13.2,3.1c-0.8-3.4-2.4-6-4.9-8c-2.5-1.9-5.5-2.9-9-2.9c-4.9,0-8.8,1.7-11.9,5.2c-3,3.4-4.6,9-4.6,16.7c0,8.2,1.5,14,4.5,17.5
			c3,3.5,6.9,5.2,11.7,5.2c3.5,0,6.6-1.1,9.1-3.3C484.7,244.2,486.5,240.7,487.6,235.9L487.6,235.9z"/>
		<path class="st1" d="M554,235.9l12.9,4c-2,7.1-5.3,12.3-9.8,15.8c-4.6,3.4-10.4,5.1-17.5,5.1c-8.7,0-15.9-2.9-21.5-8.8
			c-5.6-5.9-8.4-13.9-8.4-24.1c0-10.8,2.8-19.2,8.5-25.1c5.7-6,13.1-8.9,22.3-8.9c8,0,14.6,2.3,19.6,7c3,2.8,5.2,6.7,6.7,11.9
			l-13.2,3.1c-0.8-3.4-2.4-6-4.9-8c-2.5-1.9-5.5-2.9-9-2.9c-4.9,0-8.8,1.7-11.9,5.2c-3,3.4-4.5,9-4.5,16.7c0,8.2,1.5,14,4.5,17.5
			c3,3.5,6.9,5.2,11.7,5.2c3.5,0,6.6-1.1,9.1-3.3C551,244.2,552.8,240.7,554,235.9L554,235.9z"/>
		<path class="st1" d="M637.5,259.8h-14.5l-5.7-14.7H591l-5.4,14.7h-14.1l25.6-64.8h14L637.5,259.8L637.5,259.8z M613.1,234.1
			l-9.1-24l-8.9,24H613.1L613.1,234.1z"/>
		<polygon class="st1" points="206.7,453.4 206.7,413.9 212,413.9 212,446.7 225.3,446.7 225.3,453.4 206.7,453.4 		"/>
		<path class="st1" d="M252.9,453.4h-5.8l-2.3-9.1h-10.6l-2.2,9.1h-5.7l10.3-39.8h5.6L252.9,453.4L252.9,453.4z M243.1,437.7
			l-3.6-14.8l-3.6,14.8H243.1L243.1,437.7z"/>
		<polygon class="st1" points="266.1,453.4 266.1,413.9 271.4,413.9 271.4,446.7 284.7,446.7 284.7,453.4 266.1,453.4 		"/>
		<polygon class="st1" points="288.3,453.4 288.3,413.6 293.7,413.6 293.7,453.4 288.3,453.4 		"/>
		<polygon class="st1" points="298.7,453.4 298.7,413.6 306.6,413.6 311.4,440.8 316.2,413.6 324.2,413.6 324.2,453.4 319.2,453.4 
			319.2,422.1 314,453.4 308.8,453.4 303.6,422.1 303.6,453.4 298.7,453.4 		"/>
		<path class="st1" d="M353.3,453.4h-5.8l-2.3-9.1h-10.6l-2.2,9.1h-5.7l10.3-39.8h5.6L353.3,453.4L353.3,453.4z M343.5,437.7
			l-3.6-14.8l-3.6,14.8H343.5L343.5,437.7z"/>
		<polygon class="st1" points="206.7,684.8 206.7,645.3 212,645.3 212,678.1 225.3,678.1 225.3,684.8 206.7,684.8 		"/>
		<polygon class="st1" points="229.1,684.8 229.1,644.9 248.6,644.9 248.6,651.7 234.4,651.7 234.4,660.5 247.7,660.5 247.7,667.2 
			234.4,667.2 234.4,678.1 249.1,678.1 249.1,684.8 229.1,684.8 		"/>
		<path class="st1" d="M263.9,684.8v-39.8h8.5c3.2,0,5.4,0.2,6.3,0.6c1.5,0.6,2.8,1.9,3.8,3.9c1,2,1.5,4.6,1.5,7.8
			c0,2.4-0.3,4.5-0.9,6.2c-0.6,1.7-1.3,3-2.2,3.9c-0.9,0.9-1.8,1.6-2.8,1.9c-1.3,0.4-3.1,0.6-5.5,0.6h-3.5v15H263.9L263.9,684.8z
			 M269.3,651.7V663h2.9c2.1,0,3.5-0.2,4.2-0.6c0.7-0.4,1.3-1.1,1.7-2c0.4-0.9,0.6-1.9,0.6-3.1c0-1.5-0.3-2.6-0.8-3.6
			c-0.6-0.9-1.3-1.5-2.1-1.8c-0.6-0.2-1.9-0.3-3.8-0.3H269.3L269.3,651.7z"/>
		<polygon class="st1" points="288.4,684.8 288.4,644.9 293.7,644.9 293.7,684.8 288.4,684.8 		"/>
		<path class="st1" d="M322.6,684.8h-5.8l-2.3-9.1h-10.6l-2.2,9.1h-5.7l10.3-39.8h5.6L322.6,684.8L322.6,684.8z M312.8,669
			l-3.6-14.8l-3.6,14.8H312.8L312.8,669z"/>
		<path class="st1" d="M324.1,671.8l5.2-0.8c0.3,2.6,0.9,4.6,1.9,5.8c1,1.2,2.2,1.8,3.9,1.8c1.7,0,3-0.6,3.9-1.7
			c0.9-1.1,1.3-2.4,1.3-3.8c0-0.9-0.2-1.7-0.6-2.4c-0.4-0.7-1-1.2-1.9-1.7c-0.6-0.3-2-0.9-4.3-1.7c-2.9-1.1-4.9-2.4-6-3.9
			c-1.6-2.2-2.4-4.9-2.4-8c0-2,0.4-3.9,1.1-5.7c0.8-1.8,1.9-3.1,3.3-4c1.4-0.9,3.2-1.4,5.2-1.4c3.3,0,5.8,1.1,7.5,3.3
			c1.7,2.2,2.6,5.1,2.6,8.8l-5.3,0.3c-0.2-2-0.7-3.5-1.5-4.4c-0.7-0.9-1.9-1.3-3.4-1.3c-1.5,0-2.8,0.5-3.6,1.4
			c-0.6,0.6-0.8,1.4-0.8,2.5c0,0.9,0.3,1.8,0.8,2.4c0.7,0.9,2.3,1.7,4.9,2.7c2.6,0.9,4.5,1.9,5.8,2.9c1.2,1,2.2,2.3,2.9,4.1
			c0.7,1.7,1.1,3.8,1.1,6.3c0,2.3-0.4,4.4-1.3,6.4c-0.8,2-2,3.5-3.6,4.4c-1.5,1-3.5,1.5-5.7,1.5c-3.3,0-5.9-1.2-7.7-3.5
			C325.5,679.7,324.4,676.3,324.1,671.8L324.1,671.8z"/>
		<polygon class="st1" points="355.9,684.8 355.9,651.7 348.1,651.7 348.1,644.9 369.1,644.9 369.1,651.7 361.3,651.7 361.3,684.8 
			355.9,684.8 		"/>
		<path class="st1" d="M372.5,684.8v-39.8h11.2c2.8,0,4.9,0.4,6.1,1.1c1.3,0.7,2.3,2,3.1,3.8c0.8,1.8,1.1,3.9,1.1,6.3
			c0,3-0.6,5.5-1.7,7.4c-1.2,1.9-2.9,3.2-5.2,3.7c1.2,1,2.1,2.1,2.9,3.3c0.7,1.2,1.8,3.4,3,6.5l3.2,7.8h-6.4l-3.9-8.7
			c-1.4-3.1-2.3-5-2.8-5.9c-0.5-0.8-1-1.4-1.6-1.7c-0.6-0.3-1.5-0.4-2.7-0.4h-1.1v16.6H372.5L372.5,684.8z M377.9,661.8h3.9
			c2.6,0,4.2-0.2,4.8-0.5c0.6-0.3,1.1-0.9,1.5-1.7c0.4-0.8,0.5-1.8,0.5-3c0-1.3-0.2-2.4-0.7-3.2c-0.5-0.8-1.1-1.3-2-1.6
			c-0.4-0.1-1.7-0.1-3.9-0.1h-4.2V661.8L377.9,661.8z"/>
		<polygon class="st1" points="399.2,684.8 399.2,644.9 418.7,644.9 418.7,651.7 404.5,651.7 404.5,660.5 417.7,660.5 417.7,667.2 
			404.5,667.2 404.5,678.1 419.2,678.1 419.2,684.8 399.2,684.8 		"/>
		<path class="st1" d="M685,440.5l5.2-0.8c0.3,2.6,0.9,4.6,1.9,5.8c1,1.2,2.2,1.8,3.9,1.8c1.7,0,3-0.5,3.9-1.6
			c0.9-1.1,1.3-2.4,1.3-3.8c0-0.9-0.2-1.7-0.6-2.4c-0.4-0.7-1-1.2-1.9-1.7c-0.6-0.3-2-0.9-4.3-1.7c-2.9-1.1-4.9-2.4-6-3.9
			c-1.6-2.2-2.4-4.9-2.4-8c0-2,0.4-3.9,1.1-5.7c0.8-1.8,1.9-3.1,3.3-4c1.4-0.9,3.2-1.4,5.2-1.4c3.3,0,5.8,1.1,7.5,3.3
			c1.7,2.2,2.6,5.1,2.6,8.8l-5.3,0.4c-0.2-2-0.7-3.5-1.5-4.4c-0.7-0.9-1.9-1.3-3.4-1.3c-1.5,0-2.8,0.5-3.6,1.4
			c-0.6,0.6-0.8,1.4-0.8,2.5c0,0.9,0.3,1.8,0.8,2.4c0.7,0.9,2.3,1.7,4.9,2.7c2.6,0.9,4.5,1.9,5.8,2.9c1.2,1,2.2,2.3,2.9,4.1
			c0.7,1.7,1.1,3.8,1.1,6.3c0,2.3-0.4,4.4-1.3,6.4c-0.8,2-2,3.5-3.6,4.4c-1.5,1-3.5,1.5-5.7,1.5c-3.3,0-5.9-1.2-7.7-3.5
			C686.4,448.3,685.3,444.9,685,440.5L685,440.5z"/>
		<polygon class="st1" points="710.9,453.4 710.9,445.8 716,445.8 716,453.4 710.9,453.4 		"/>
		<polygon class="st1" points="731.4,453.4 731.4,413.6 739.3,413.6 744.1,440.8 748.9,413.6 756.9,413.6 756.9,453.4 751.9,453.4 
			751.9,422.1 746.7,453.4 741.5,453.4 736.3,422.1 736.3,453.4 731.4,453.4 		"/>
		<path class="st1" d="M786,453.4h-5.8l-2.3-9.1h-10.6l-2.2,9.1h-5.7l10.3-39.8h5.6L786,453.4L786,453.4z M776.1,437.7l-3.6-14.8
			l-3.6,14.8H776.1L776.1,437.7z"/>
		<path class="st1" d="M788.8,453.4v-39.8H800c2.8,0,4.9,0.4,6.1,1.1c1.3,0.7,2.3,2,3.1,3.8c0.8,1.8,1.1,3.9,1.1,6.3
			c0,3-0.6,5.5-1.7,7.4c-1.2,1.9-2.9,3.2-5.2,3.7c1.2,1,2.1,2.1,2.9,3.4c0.7,1.2,1.8,3.4,3,6.5l3.2,7.8h-6.4l-3.9-8.7
			c-1.4-3.1-2.3-5-2.8-5.9c-0.5-0.8-1-1.4-1.6-1.7c-0.6-0.3-1.5-0.4-2.7-0.4h-1.1v16.6H788.8L788.8,453.4z M794.1,430.4h3.9
			c2.6,0,4.2-0.2,4.8-0.5c0.6-0.3,1.1-0.9,1.5-1.7c0.4-0.8,0.5-1.8,0.5-3c0-1.3-0.2-2.4-0.7-3.2c-0.5-0.8-1.1-1.3-2-1.6
			c-0.4-0.1-1.7-0.1-3.9-0.1h-4.2V430.4L794.1,430.4z"/>
		<path class="st1" d="M832.3,438.8l5.2,2.5c-0.8,4.4-2.1,7.6-4,9.7c-1.8,2.1-4.2,3.2-7,3.2c-3.5,0-6.4-1.8-8.6-5.4
			c-2.3-3.6-3.4-8.6-3.4-14.8c0-6.6,1.1-11.8,3.4-15.5c2.3-3.7,5.2-5.5,9-5.5c3.2,0,5.8,1.4,7.9,4.3c1.2,1.7,2.1,4.1,2.7,7.3
			l-5.3,1.9c-0.3-2.1-1-3.7-2-4.9c-1-1.2-2.2-1.8-3.6-1.8c-2,0-3.5,1.1-4.8,3.2c-1.2,2.1-1.8,5.5-1.8,10.3c0,5,0.6,8.6,1.8,10.8
			c1.2,2.1,2.8,3.2,4.7,3.2c1.4,0,2.6-0.7,3.7-2C831.1,443.8,831.9,441.7,832.3,438.8L832.3,438.8z"/>
		<path class="st1" d="M841,433.7c0-4.1,0.4-7.5,1.2-10.2c0.6-2,1.4-3.9,2.5-5.5c1-1.6,2.2-2.8,3.4-3.6c1.6-1.1,3.5-1.6,5.7-1.6
			c3.9,0,7,1.8,9.3,5.5c2.3,3.6,3.5,8.7,3.5,15.2c0,6.4-1.2,11.5-3.5,15.1c-2.3,3.6-5.4,5.4-9.3,5.4c-3.9,0-7-1.8-9.4-5.4
			C842.1,445.1,841,440.1,841,433.7L841,433.7z M846.4,433.5c0,4.5,0.7,7.9,2.1,10.3c1.4,2.3,3.1,3.5,5.3,3.5c2.1,0,3.9-1.1,5.2-3.5
			c1.4-2.3,2-5.8,2-10.4c0-4.6-0.7-8-2-10.2c-1.3-2.2-3.1-3.4-5.3-3.4c-2.2,0-4,1.1-5.3,3.4C847.1,425.5,846.4,428.9,846.4,433.5
			L846.4,433.5z"/>
		<path class="st1" d="M672.8,524v-38.8h8.7c3.3,0,5.5,0.2,6.5,0.6c1.5,0.6,2.8,1.8,3.9,3.8c1,1.9,1.6,4.5,1.6,7.5
			c0,2.4-0.3,4.4-0.9,6c-0.6,1.6-1.4,2.9-2.3,3.8c-0.9,0.9-1.9,1.5-2.8,1.8c-1.3,0.4-3.2,0.6-5.6,0.6h-3.5V524H672.8L672.8,524z
			 M678.3,491.8v11h3c2.1,0,3.6-0.2,4.3-0.6c0.7-0.4,1.3-1,1.7-1.9c0.4-0.9,0.6-1.9,0.6-3c0-1.4-0.3-2.6-0.9-3.5
			c-0.6-0.9-1.3-1.5-2.2-1.7c-0.7-0.2-2-0.3-3.9-0.3H678.3L678.3,491.8z"/>
		<polygon class="st1" points="697.7,524 697.7,485.2 703.2,485.2 703.2,524 697.7,524 		"/>
		<path class="st1" d="M707,511.4l5.3-0.8c0.3,2.6,1,4.4,1.9,5.6c1,1.2,2.3,1.8,3.9,1.8c1.7,0,3.1-0.5,4-1.6
			c0.9-1.1,1.3-2.3,1.3-3.7c0-0.9-0.2-1.7-0.6-2.3c-0.4-0.7-1-1.2-2-1.7c-0.6-0.3-2.1-0.9-4.3-1.7c-2.9-1-5-2.3-6.1-3.8
			c-1.7-2.1-2.5-4.7-2.5-7.8c0-2,0.4-3.8,1.2-5.5c0.8-1.7,1.9-3,3.4-3.9c1.5-0.9,3.2-1.3,5.3-1.3c3.4,0,5.9,1.1,7.6,3.2
			c1.7,2.1,2.6,5,2.7,8.5l-5.4,0.3c-0.2-2-0.7-3.4-1.5-4.3c-0.8-0.9-1.9-1.3-3.4-1.3c-1.6,0-2.8,0.5-3.7,1.4
			c-0.6,0.6-0.9,1.4-0.9,2.4c0,0.9,0.3,1.7,0.8,2.4c0.7,0.8,2.3,1.7,5,2.6c2.6,0.9,4.6,1.8,5.9,2.8c1.3,1,2.3,2.3,3,3.9
			c0.7,1.7,1.1,3.7,1.1,6.2c0,2.2-0.4,4.3-1.3,6.2c-0.9,1.9-2.1,3.4-3.6,4.3c-1.6,0.9-3.5,1.4-5.9,1.4c-3.4,0-6-1.1-7.8-3.4
			C708.4,519,707.3,515.7,707,511.4L707,511.4z"/>
		<polygon class="st1" points="739.5,524 739.5,491.8 731.5,491.8 731.5,485.2 752.9,485.2 752.9,491.8 744.9,491.8 744.9,524 
			739.5,524 		"/>
		<path class="st1" d="M754.6,504.8c0-4,0.4-7.3,1.2-9.9c0.6-2,1.4-3.7,2.5-5.3c1.1-1.6,2.2-2.7,3.5-3.5c1.7-1,3.6-1.5,5.8-1.5
			c4,0,7.1,1.8,9.5,5.3c2.4,3.5,3.6,8.5,3.6,14.8c0,6.3-1.2,11.1-3.5,14.7c-2.4,3.5-5.5,5.3-9.5,5.3c-4,0-7.2-1.8-9.5-5.3
			C755.8,515.9,754.6,511,754.6,504.8L754.6,504.8z M760.2,504.6c0,4.4,0.7,7.7,2.1,10c1.4,2.3,3.2,3.4,5.4,3.4
			c2.2,0,3.9-1.1,5.3-3.4c1.4-2.3,2.1-5.6,2.1-10.1c0-4.4-0.7-7.7-2-9.9c-1.4-2.2-3.2-3.3-5.4-3.3c-2.2,0-4,1.1-5.4,3.3
			C760.9,496.8,760.2,500.1,760.2,504.6L760.2,504.6z"/>
		<polygon class="st1" points="784.8,524 784.8,485.2 790.2,485.2 790.2,524 784.8,524 		"/>
		<polygon class="st1" points="795.4,524 795.4,485.2 815.3,485.2 815.3,491.8 800.8,491.8 800.8,500.4 814.3,500.4 814.3,506.9 
			800.8,506.9 800.8,517.5 815.8,517.5 815.8,524 795.4,524 		"/>
		<path class="st1" d="M819.1,511.4l5.3-0.8c0.3,2.6,1,4.4,1.9,5.6c1,1.2,2.3,1.8,3.9,1.8c1.7,0,3.1-0.5,4-1.6
			c0.9-1.1,1.3-2.3,1.3-3.7c0-0.9-0.2-1.7-0.6-2.3c-0.4-0.7-1-1.2-2-1.7c-0.6-0.3-2.1-0.9-4.3-1.7c-2.9-1-5-2.3-6.1-3.8
			c-1.7-2.1-2.5-4.7-2.5-7.8c0-2,0.4-3.8,1.2-5.5c0.8-1.7,1.9-3,3.4-3.9c1.5-0.9,3.2-1.3,5.3-1.3c3.4,0,5.9,1.1,7.6,3.2
			c1.7,2.1,2.6,5,2.7,8.5l-5.4,0.3c-0.2-2-0.7-3.4-1.5-4.3c-0.8-0.9-1.9-1.3-3.4-1.3c-1.6,0-2.8,0.5-3.7,1.4
			c-0.6,0.6-0.9,1.4-0.9,2.4c0,0.9,0.3,1.7,0.8,2.4c0.7,0.8,2.3,1.7,5,2.6c2.6,0.9,4.6,1.8,5.9,2.8c1.3,1,2.3,2.3,3,3.9
			c0.7,1.7,1.1,3.7,1.1,6.2c0,2.2-0.4,4.3-1.3,6.2c-0.9,1.9-2.1,3.4-3.6,4.3c-1.6,0.9-3.5,1.4-5.9,1.4c-3.4,0-6-1.1-7.8-3.4
			C820.5,519,819.4,515.7,819.1,511.4L819.1,511.4z"/>
		<polygon class="st1" points="845.5,524 845.5,485.2 865.4,485.2 865.4,491.8 850.9,491.8 850.9,500.4 864.4,500.4 864.4,506.9 
			850.9,506.9 850.9,517.5 866,517.5 866,524 845.5,524 		"/>
		<path class="st1" d="M635.7,684.8v-39.8h8.5c3.2,0,5.4,0.2,6.3,0.6c1.5,0.6,2.8,1.9,3.8,3.9c1,2,1.5,4.6,1.5,7.8
			c0,2.4-0.3,4.5-0.9,6.2c-0.6,1.7-1.3,3-2.2,3.9c-0.9,0.9-1.8,1.6-2.8,1.9c-1.3,0.4-3.1,0.6-5.5,0.6h-3.5v15H635.7L635.7,684.8z
			 M641.1,651.7V663h2.9c2.1,0,3.5-0.2,4.2-0.6c0.7-0.4,1.3-1.1,1.7-2c0.4-0.9,0.6-1.9,0.6-3.1c0-1.5-0.3-2.6-0.8-3.6
			c-0.6-0.9-1.3-1.5-2.1-1.8c-0.6-0.2-1.9-0.3-3.8-0.3H641.1L641.1,651.7z"/>
		<path class="st1" d="M659.3,665.1c0-4.1,0.4-7.5,1.2-10.2c0.6-2,1.4-3.9,2.5-5.5c1-1.6,2.2-2.8,3.4-3.6c1.6-1.1,3.5-1.6,5.7-1.6
			c3.9,0,7,1.8,9.3,5.5c2.3,3.6,3.5,8.7,3.5,15.2c0,6.4-1.2,11.5-3.5,15.1c-2.3,3.6-5.4,5.4-9.3,5.4c-3.9,0-7.1-1.8-9.4-5.4
			C660.4,676.4,659.3,671.4,659.3,665.1L659.3,665.1z M664.7,664.8c0,4.5,0.7,7.9,2.1,10.3c1.4,2.3,3.1,3.5,5.3,3.5
			c2.1,0,3.9-1.1,5.2-3.5c1.4-2.3,2-5.8,2-10.4c0-4.6-0.7-8-2-10.2c-1.3-2.2-3.1-3.4-5.3-3.4c-2.2,0-4,1.1-5.3,3.4
			C665.4,656.8,664.7,660.2,664.7,664.8L664.7,664.8z"/>
		<polygon class="st1" points="689.1,684.8 689.1,644.9 694.3,644.9 705.1,671.5 705.1,644.9 710,644.9 710,684.8 704.7,684.8 
			694,658.8 694,684.8 689.1,684.8 		"/>
		<polygon class="st1" points="721.6,684.8 721.6,651.7 713.8,651.7 713.8,644.9 734.7,644.9 734.7,651.7 726.9,651.7 726.9,684.8 
			721.6,684.8 		"/>
		<polygon class="st1" points="738.2,684.8 738.2,644.9 757.8,644.9 757.8,651.7 743.5,651.7 743.5,660.5 756.8,660.5 756.8,667.2 
			743.5,667.2 743.5,678.1 758.3,678.1 758.3,684.8 738.2,684.8 		"/>
		<path class="st1" d="M762.8,684.8v-39.8h8.6c3.2,0,5.4,0.2,6.3,0.6c1.5,0.6,2.8,1.9,3.8,3.9c1,2,1.5,4.6,1.5,7.8
			c0,2.4-0.3,4.5-0.9,6.2c-0.6,1.7-1.3,3-2.2,3.9c-0.9,0.9-1.8,1.6-2.8,1.9c-1.3,0.4-3.1,0.6-5.5,0.6h-3.5v15H762.8L762.8,684.8z
			 M768.1,651.7V663h2.9c2.1,0,3.5-0.2,4.2-0.6c0.7-0.4,1.3-1.1,1.7-2c0.4-0.9,0.6-1.9,0.6-3.1c0-1.5-0.3-2.6-0.8-3.6
			c-0.6-0.9-1.3-1.5-2.1-1.8c-0.6-0.2-1.9-0.3-3.8-0.3H768.1L768.1,651.7z"/>
		<polygon class="st1" points="787.4,684.8 787.4,644.9 807,644.9 807,651.7 792.7,651.7 792.7,660.5 806,660.5 806,667.2 
			792.7,667.2 792.7,678.1 807.5,678.1 807.5,684.8 787.4,684.8 		"/>
		<polygon class="st1" points="817.9,684.8 817.9,651.7 810.1,651.7 810.1,644.9 831.1,644.9 831.1,651.7 823.3,651.7 823.3,684.8 
			817.9,684.8 		"/>
		<path class="st1" d="M834.5,684.8v-39.8h11.2c2.8,0,4.9,0.4,6.1,1.1c1.3,0.7,2.3,2,3.1,3.8c0.8,1.8,1.1,3.9,1.1,6.3
			c0,3-0.6,5.5-1.7,7.4c-1.2,1.9-2.9,3.2-5.2,3.7c1.2,1,2.1,2.1,2.9,3.3c0.8,1.2,1.8,3.4,3,6.5l3.2,7.8h-6.4l-3.9-8.7
			c-1.4-3.1-2.3-5-2.8-5.9c-0.5-0.8-1-1.4-1.6-1.7c-0.6-0.3-1.5-0.4-2.7-0.4h-1.1v16.6H834.5L834.5,684.8z M839.9,661.8h3.9
			c2.6,0,4.2-0.2,4.8-0.5c0.6-0.3,1.1-0.9,1.5-1.7c0.4-0.8,0.5-1.8,0.5-3c0-1.3-0.2-2.4-0.7-3.2c-0.5-0.8-1.1-1.3-2-1.6
			c-0.4-0.1-1.7-0.1-3.9-0.1h-4.2V661.8L839.9,661.8z"/>
		<polygon class="st1" points="861,684.8 861,644.9 866.3,644.9 866.3,684.8 861,684.8 		"/>
	</g>
</g>
</svg>
