<?xml version="1.0" encoding="utf-8"?>
<!-- Generator: Adobe Illustrator 19.2.0, SVG Export Plug-In . SVG Version: 6.00 Build 0)  -->
<svg version="1.1" id="Livello_1" xmlns="http://www.w3.org/2000/svg" xmlns:xlink="http://www.w3.org/1999/xlink" x="0px" y="0px"
	 viewBox="0 0 960 960" style="enable-background:new 0 0 960 960;" xml:space="preserve">
<style type="text/css">
	.st0{fill-rule:evenodd;clip-rule:evenodd;fill:#FFEC00;stroke:#1A171B;stroke-width:0.9532;stroke-miterlimit:2.6131;}
	.st1{fill-rule:evenodd;clip-rule:evenodd;fill:#FFFFFF;stroke:#1A171B;stroke-width:0.9532;stroke-miterlimit:2.6131;}
	.st2{fill-rule:evenodd;clip-rule:evenodd;fill:#005EA7;}
	.st3{fill-rule:evenodd;clip-rule:evenodd;fill:#FFFFFF;stroke:#FFFFFF;stroke-width:0.9532;stroke-miterlimit:2.6131;}
	.st4{fill:none;stroke:#1A171B;stroke-width:9.5321;stroke-miterlimit:2.6131;}
	.st5{fill-rule:evenodd;clip-rule:evenodd;fill:#1A171B;stroke:#1A171B;stroke-width:0.9532;stroke-miterlimit:2.6131;}
</style>
<g>
	<g>
		<polygon class="st0" points="238.2,120 721.8,120 721.8,840 238.2,840 238.2,120 		"/>
		<path class="st1" d="M498.1,189.7c47.9,8.6,78.9,25.9,108,65.2c16.6,26.7,24.3,51.6,25.4,82.9c-2.1,62.6-34.5,110.4-90.6,136.6
			c-63.6,26.2-127.5,8-172.7-42.2c-28.3-37.2-39-78.1-30.7-124.6c9.6-35.8,23.5-59.6,51.1-84.5c29.4-21.9,57.2-32.9,94.4-34
			L498.1,189.7L498.1,189.7z"/>
		<path class="st2" d="M483.5,197.4c77.2,0,140.1,62.9,140.1,140.1s-62.9,140.1-140.1,140.1c-77.2,0-140.1-62.9-140.1-140.1
			S406.4,197.4,483.5,197.4L483.5,197.4z"/>
		<path class="st3" d="M480.1,229.9l54,97.5c0.1,3.5,0,6.4-5.3,6.4l-32.4-6.3l0.1,118.2l-32.6-0.1l-0.1-118.2l-32.3,6.4
			c-5.5,0-5.5-3.2-5.5-6.4L480.1,229.9L480.1,229.9z"/>
		<path class="st4" d="M290.1,135h379.8c21.4,0,38.9,17.5,38.9,38.9v613.2c0,21.4-17.5,38.9-38.9,38.9H290.1
			c-21.4,0-38.9-17.5-38.9-38.9V173.9C251.2,152.5,268.7,135,290.1,135L290.1,135z"/>
		<path class="st5" d="M339.2,777.9v-33l11.1-29.9h34.6v36.2h46.4v26.7h-5.7c-1.3-24.2-35.3-25.4-37.8,0c-1.3,0-2.9,0-5.4,0
			c-1-23.8-36.5-25.4-37.5,0H339.2L339.2,777.9z M435.5,777.9v-16.5h73.1c-8.9,4.4-9.8,10.5-10.8,16.5H435.5L435.5,777.9z
			 M534.9,777.9c0-5.7-2.5-13.3-9.9-16.5h25.7c-6.7,2.5-10.8,10.8-11.4,16.5H534.9L534.9,777.9z M577.5,777.9
			c-0.3-6.4-4.8-14-10.5-16.5h53.1v8.6l-21,7.9H577.5L577.5,777.9z M435.5,756.9l0.6-9.9h-47V694h231v62.9H435.5L435.5,756.9z
			 M345.9,739.1l7-17.5h27.3v17.5H345.9L345.9,739.1z M406.9,762.6c8.6,0,15.6,6.7,15.6,15.3c0,8.6-7,15.6-15.6,15.6
			c-8.6,0-15.6-7-15.6-15.6C391.3,769.3,398.3,762.6,406.9,762.6L406.9,762.6z M516.2,762.6c8.9,0,15.6,6.7,15.6,15.3
			c0,8.6-6.7,15.6-15.6,15.6c-8.6,0-15.6-7-15.6-15.6C500.6,769.3,507.6,762.6,516.2,762.6L516.2,762.6z M558.4,762.6
			c8.3,0,15.3,6.7,15.3,15.3c0,8.6-7,15.6-15.3,15.6c-8.3,0-15.9-7-15.9-15.6C542.5,769.3,550.2,762.6,558.4,762.6L558.4,762.6z
			 M363.6,762.6c8.3,0,15.3,6.7,15.3,15.3c0,8.6-7,15.6-15.3,15.6c-8.6,0-15.9-7-15.9-15.6C347.8,769.3,355.1,762.6,363.6,762.6
			L363.6,762.6z M406.9,771.2c3.2,0,6.4,3.2,6.4,6.7c0,3.5-3.2,6.4-6.4,6.4c-4.1,0-6.7-2.9-6.7-6.4
			C400.2,774.4,402.7,771.2,406.9,771.2L406.9,771.2z M516.2,771.2c3.5,0,6.7,3.2,6.7,6.7c0,3.5-3.2,6.4-6.7,6.4
			c-4.1,0-6.7-2.9-6.7-6.4C509.5,774.4,512,771.2,516.2,771.2L516.2,771.2z M558.4,771.2c3.5,0,6.4,3.2,6.4,6.7
			c0,3.5-2.9,6.4-6.4,6.4c-3.8,0-7-2.9-7-6.4C551.4,774.4,554.6,771.2,558.4,771.2L558.4,771.2z M363.6,771.2c3.5,0,6.7,3.2,6.7,6.7
			c0,3.5-3.2,6.4-6.7,6.4c-3.8,0-6.7-2.9-6.7-6.4C357,774.4,359.8,771.2,363.6,771.2L363.6,771.2z"/>
		<path class="st5" d="M347,582.5l7-19.1h22.8v19.1H347L347,582.5z M620.5,604.8v15h-26.6c0-6-4.5-13-8.3-15H620.5L620.5,604.8z
			 M620.5,536.2v64.9H385.6v-64.9h128.6v57.9H536v-57.9H620.5L620.5,536.2z M363.6,604.8c8,0,14.8,6.8,14.8,15s-6.8,15.3-14.8,15.3
			c-8.5,0-15.5-7-15.5-15.3S355,604.8,363.6,604.8L363.6,604.8z M475.1,604.8c7.8,0,15.3,6.8,15.3,15s-7.5,15.3-15.3,15.3
			c-8.3,0-14.8-7-14.8-15.3S466.8,604.8,475.1,604.8L475.1,604.8z M575.6,604.8c8.3,0,15,6.8,15,15s-6.8,15.3-15,15.3
			c-8.3,0-15-7-15-15.3S567.4,604.8,575.6,604.8L575.6,604.8z M363.6,612.6c4,0,7,3.5,7,7.3c0,4.3-3,7.5-7,7.5s-7.8-3.3-7.8-7.5
			C355.8,616.1,359.5,612.6,363.6,612.6L363.6,612.6z M475.1,612.6c4,0,7.3,3.5,7.3,7.3c0,4.3-3.3,7.5-7.3,7.5
			c-3.8,0-7.3-3.3-7.3-7.5C467.8,616.1,471.4,612.6,475.1,612.6L475.1,612.6z M575.6,612.6c4,0,7.3,3.3,7.3,7.3c0,4-3.3,7.5-7.3,7.5
			c-4,0-7-3.5-7-7.5C568.6,615.9,571.6,612.6,575.6,612.6L575.6,612.6z M493.4,619.9c0-6-3-12.8-8.3-15h29.1v15H493.4L493.4,619.9z
			 M536,619.9v-15h29.8c-5.3,3-8.8,9-8.8,15H536L536,619.9z M382.4,619.9c-1.3-25.3-36.9-24.8-37.6,0h-5.5v-34.1l11-29.1h31.6
			l-0.3,48.1l83-0.3c-4.3,3.8-7.8,9.3-7.8,15.3H382.4L382.4,619.9z"/>
	</g>
</g>
</svg>
