<?xml version="1.0" encoding="utf-8"?>
<!-- Generator: Adobe Illustrator 19.2.0, SVG Export Plug-In . SVG Version: 6.00 Build 0)  -->
<svg version="1.1" id="Livello_1" xmlns="http://www.w3.org/2000/svg" xmlns:xlink="http://www.w3.org/1999/xlink" x="0px" y="0px"
	 viewBox="0 0 960 960" style="enable-background:new 0 0 960 960;" xml:space="preserve">
<style type="text/css">
	.st0{fill-rule:evenodd;clip-rule:evenodd;fill:#FFEC00;stroke:#1A171B;stroke-width:0.9239;stroke-miterlimit:2.6131;}
	.st1{fill-rule:evenodd;clip-rule:evenodd;fill:#FFEC00;stroke:#1A171B;stroke-width:9.2387;stroke-miterlimit:2.6131;}
	.st2{fill-rule:evenodd;clip-rule:evenodd;fill:#1A171B;}
	.st3{fill-rule:evenodd;clip-rule:evenodd;fill:#E1001A;stroke:#1A171B;stroke-width:0.9239;stroke-miterlimit:2.6131;}
</style>
<g>
	<g>
		<polygon class="st0" points="237.6,120 722.4,120 722.4,840 237.6,840 237.6,120 		"/>
		<path class="st1" d="M287.8,134.5h384.3c20.9,0,37.6,17.9,37.6,37.6v616.5c0,19.7-17.9,37.6-37.6,37.6H287.8
			c-19.7,0-37.6-16.6-37.6-37.6V172C250.3,151.1,266.9,134.5,287.8,134.5L287.8,134.5z"/>
		<path class="st2" d="M441.2,488.3l73.3,41.3c0.6,1.8,1.8,3.7-1.9,6.2l-24,8.6l44.7,87.5c3.7,6.5,6.2,12.6,6.2,20.3v32.6v108.1
			h-25.3V660.5c0.6-9.2-2.8-15.7-6.5-22.5l-41.3-80.7l-19.7,16c-3.7,2.5-4.9,0-5.5-1.2V488.3L441.2,488.3z"/>
		<path class="st2" d="M355,204.1l42.5,72.4c0,2.2,0,4.3-4.3,4.3l-25.3-4.3v516.4h-25.3V276.4l-25.3,4.3c-4.3,0-4.3-2.5-4.3-4.3
			L355,204.1L355,204.1z"/>
		<polygon class="st3" points="489.2,166.5 454.1,166.5 454.1,311.9 615.2,646.3 615.2,792.9 650.3,792.9 650.3,640.8 489.2,306 
			489.2,166.5 		"/>
	</g>
</g>
</svg>
