<?xml version="1.0" encoding="utf-8"?>
<!-- Generator: Adobe Illustrator 19.2.0, SVG Export Plug-In . SVG Version: 6.00 Build 0)  -->
<svg version="1.1" id="Livello_1" xmlns="http://www.w3.org/2000/svg" xmlns:xlink="http://www.w3.org/1999/xlink" x="0px" y="0px"
	 viewBox="0 0 960 960" style="enable-background:new 0 0 960 960;" xml:space="preserve">
<style type="text/css">
	.st0{fill-rule:evenodd;clip-rule:evenodd;fill:#FFEC00;stroke:#1A171B;stroke-width:0.9239;stroke-miterlimit:2.6131;}
	.st1{fill-rule:evenodd;clip-rule:evenodd;fill:#FFEC00;stroke:#1A171B;stroke-width:9.2387;stroke-miterlimit:2.6131;}
	.st2{fill-rule:evenodd;clip-rule:evenodd;fill:#1A171B;}
	.st3{fill-rule:evenodd;clip-rule:evenodd;fill:#E1001A;stroke:#1A171B;stroke-width:0.9239;stroke-miterlimit:2.6131;}
</style>
<g>
	<g>
		<polygon class="st0" points="722.4,120 237.6,120 237.6,840 722.4,840 722.4,120 		"/>
		<path class="st1" d="M672.2,134.5H287.8c-20.9,0-37.6,17.9-37.6,37.6v616.5c0,19.7,17.9,37.6,37.6,37.6h384.3
			c19.7,0,37.6-16.6,37.6-37.6V172C709.7,151.1,693.1,134.5,672.2,134.5L672.2,134.5z"/>
		<path class="st2" d="M479.7,489.2l-73.3,41.3c-0.6,1.9-1.8,3.7,1.8,6.2l24,8.6l-44.7,87.5c-3.7,6.5-6.2,12.6-6.2,20.3v32.6v108.1
			h25.3V661.4c-0.6-9.2,2.8-15.7,6.5-22.5l41.3-80.7l19.7,16c3.7,2.5,4.9,0,5.5-1.2V489.2L479.7,489.2z"/>
		<path class="st2" d="M638.6,205l-42.5,72.4c0,2.2,0,4.3,4.3,4.3l25.3-4.3v516.4h25.2V277.4l25.3,4.3c4.3,0,4.3-2.5,4.3-4.3
			L638.6,205L638.6,205z"/>
		<path class="st2" d="M530.8,205l-42.5,72.4c0,2.2,0,4.3,4.3,4.3l25.3-4.3v516.4h25.2V277.4l25.3,4.3c4.3,0,4.3-2.5,4.3-4.3
			L530.8,205L530.8,205z"/>
		<polygon class="st3" points="430.7,167.1 465.8,167.1 465.8,312.5 313.7,647.2 313.7,793.8 278.6,793.8 278.6,641.7 430.7,306.6 
			430.7,167.1 		"/>
	</g>
</g>
</svg>
