<?xml version="1.0" encoding="utf-8"?>
<!-- Generator: Adobe Illustrator 19.2.0, SVG Export Plug-In . SVG Version: 6.00 Build 0)  -->
<svg version="1.1" id="Livello_1" xmlns="http://www.w3.org/2000/svg" xmlns:xlink="http://www.w3.org/1999/xlink" x="0px" y="0px"
	 viewBox="0 0 960 960" style="enable-background:new 0 0 960 960;" xml:space="preserve">
<style type="text/css">
	.st0{fill-rule:evenodd;clip-rule:evenodd;fill:#FFEC00;stroke:#1A171B;stroke-width:0.9239;stroke-miterlimit:2.6131;}
	.st1{fill-rule:evenodd;clip-rule:evenodd;fill:#1A171B;}
	.st2{fill-rule:evenodd;clip-rule:evenodd;fill:#1A171B;stroke:#1A171B;stroke-width:0.9239;stroke-miterlimit:2.6131;}
	.st3{fill:none;stroke:#1A171B;stroke-width:9.2387;stroke-miterlimit:2.6131;}
</style>
<g>
	<g>
		<polygon class="st0" points="237.6,120 722.4,120 722.4,840 237.6,840 237.6,120 		"/>
		<path class="st1" d="M523.5,787.6v-35.7h15.3c0,10.7,0,24.9,0,35.7c0,1.5-1.4,2.1-3.2,2.1c-2.3,0-5.9,0-8.3,0
			C524.4,789.9,523.7,789.4,523.5,787.6L523.5,787.6z"/>
		<path class="st1" d="M606.1,760.8c-1.3-3.8-5.3-6.4-9.9-6.4c-4.5,0-8.5,2.6-9.8,6.4h-26.6c0-3.1,0-6.2,0-9h-15.2v35.6
			c0,1.6,0.9,2.2,3.8,2.2c2.3,0,5.8,0,8.2,0c1.8,0,3.2-0.8,3.2-2.2c0-5.8,0-12.6,0-19.4h26.9c1.6,3.5,5.3,6,9.5,6c4.4,0,8-2.4,9.6-6
			h26.9v-7.2H606.1L606.1,760.8z M632.7,787.6V768V787.6L632.7,787.6z M632.7,760.8v-9h15.3c0,10.7,0,24.9,0,35.7c0,1.4-1.5,2-3.2,2
			c-2.3,0-5.8,0-8.3,0c-2.8,0.1-3.7-0.4-3.8-2V760.8L632.7,760.8z"/>
		<path class="st1" d="M653.7,787.6v-35.7H669c0,10.7,0,24.9,0,35.7c0,1.5-1.4,2.1-3.2,2.1c-2.3,0-5.9,0-8.3,0
			C654.6,789.9,653.9,789.4,653.7,787.6L653.7,787.6z"/>
		<polygon class="st1" points="515.9,745 515.9,728.8 676.8,728.8 676.8,745 515.9,745 		"/>
		<path class="st1" d="M516.1,721.6V599.9c45.1-13.4,116.8-13.4,160.7,0v121.7H516.1L516.1,721.6z"/>
		<path class="st2" d="M292.8,546.5V531h22.1v16.1c0,2.6-2.6,3.3-5.3,3.3l-11.7-0.2C293.9,550.5,292.8,549.3,292.8,546.5
			L292.8,546.5z M403.8,546.5V531h22.1v16.1c0,2.6-2.6,3.3-5.4,3.3l-12.2-0.2C404.8,550.5,403.5,549.3,403.8,546.5L403.8,546.5z
			 M287.5,527.4c-4.8,0-4.8-8.1-0.2-8.1h145.2c4.3,0,4.4,8.1-0.3,8.1H287.5L287.5,527.4z M291.1,515c-1-2-1.8-3.6-2-5.4H316
			c1.8-3,1.8-4.4,1.8-7.3h-28.5l-0.2-3.6h28.7c0-2.6-0.7-5.1-2.5-7.3h-26.2c0-1.6,0.2-3.3,2-5.1c1.6-1.2,4.1-2.3,6.1-2.6
			c41.4-8.7,82.4-9.2,125.1-1c2,0.7,4,1,6.6,2.5c1.8,2,2.6,4.6,2.6,6.3h-25.9c-2.8,2.1-3.8,4.6-3.8,7.3h29.8l-0.2,3.6h-29.7
			c0,2.8,0,5.4,3.6,7.3h26c0,1.8-0.8,3.5-2.6,5.4H291.1L291.1,515z M296.4,480.1l9.9-34.1c2.6-3.5,5.4-5.4,8.9-6.3
			c29.3-4.4,59-4.4,89.3,0c3.8,0.8,6.4,3.5,9.1,7.3l9.1,31.3l-8.2-1.8l-7.1-25c-0.8-2.6-2.6-3.5-5.4-5.4c-27.7-3.5-55.4-3.5-83.2,0
			c-3.5,0.7-4.3,1.5-6.1,4.5l-7.4,26.9L296.4,480.1L296.4,480.1z M340.4,491.6h39.2c1.5,0,2.6,1.3,2.6,2.8V507
			c0,1.5-1.2,2.6-2.6,2.6h-39.2c-1.6,0-2.8-1.2-2.8-2.6v-12.5C337.6,493,338.7,491.6,340.4,491.6L340.4,491.6z"/>
		<path class="st2" d="M533.6,546.5V531h22.1v16.1c0,2.6-2.6,3.3-5.3,3.3l-11.7-0.2C534.7,550.5,533.6,549.3,533.6,546.5
			L533.6,546.5z M644.6,546.5V531h22.1v16.1c0,2.6-2.6,3.3-5.4,3.3l-12.2-0.2C645.6,550.5,644.3,549.3,644.6,546.5L644.6,546.5z
			 M528.3,527.4c-4.8,0-4.8-8.1-0.2-8.1h145.2c4.3,0,4.4,8.1-0.3,8.1H528.3L528.3,527.4z M531.9,515c-1-2-1.8-3.6-2-5.4h26.9
			c1.8-3,1.8-4.4,1.8-7.3h-28.5l-0.2-3.6h28.7c0-2.6-0.7-5.1-2.5-7.3H530c0-1.6,0.2-3.3,2-5.1c1.6-1.2,4.1-2.3,6.1-2.6
			c41.4-8.7,82.4-9.2,125.1-1c2,0.7,4,1,6.6,2.5c1.8,2,2.6,4.6,2.6,6.3h-25.9c-2.8,2.1-3.8,4.6-3.8,7.3h29.8l-0.2,3.6h-29.7
			c0,2.8,0,5.4,3.6,7.3h26c0,1.8-0.8,3.5-2.6,5.4H531.9L531.9,515z M537.2,480.1l9.9-34.1c2.6-3.5,5.4-5.4,8.9-6.3
			c29.3-4.4,59-4.4,89.3,0c3.8,0.8,6.4,3.5,9.1,7.3l9.1,31.3l-8.2-1.8l-7.1-25c-0.8-2.6-2.6-3.5-5.4-5.4c-27.7-3.5-55.4-3.5-83.2,0
			c-3.5,0.7-4.3,1.5-6.1,4.5l-7.4,26.9L537.2,480.1L537.2,480.1z M581.2,491.6h39.2c1.5,0,2.6,1.3,2.6,2.8V507
			c0,1.5-1.2,2.6-2.6,2.6h-39.2c-1.6,0-2.8-1.2-2.8-2.6v-12.5C578.4,493,579.6,491.6,581.2,491.6L581.2,491.6z"/>
		<path class="st2" d="M360.3,178l57.1,97.7c0.2,3.5,0,6.4-5.7,6.4l-34.3-6.3l0.1,118.4l-34.4-0.1l-0.1-118.4l-34.1,6.5
			c-5.8,0-5.8-3.2-5.8-6.4L360.3,178L360.3,178z"/>
		<path class="st2" d="M601.5,178l57.1,97.7c0.2,3.5,0,6.4-5.7,6.4l-34.3-6.3l0.1,118.4l-34.4-0.1l-0.1-118.4l-34.1,6.5
			c-5.8,0-5.8-3.2-5.8-6.4L601.5,178L601.5,178z"/>
		<path class="st3" d="M287.8,134.5h384.3c20.9,0,37.6,17.9,37.6,37.6v616.5c0,19.7-17.9,37.6-37.6,37.6H287.8
			c-19.7,0-37.6-16.6-37.6-37.6V172C250.3,151.1,266.9,134.5,287.8,134.5L287.8,134.5z"/>
	</g>
</g>
</svg>
