<?xml version="1.0" encoding="utf-8"?>
<!-- Generator: Adobe Illustrator 19.2.0, SVG Export Plug-In . SVG Version: 6.00 Build 0)  -->
<svg version="1.1" id="Livello_1" xmlns="http://www.w3.org/2000/svg" xmlns:xlink="http://www.w3.org/1999/xlink" x="0px" y="0px"
	 viewBox="0 0 960 960" style="enable-background:new 0 0 960 960;" xml:space="preserve">
<style type="text/css">
	.st0{fill-rule:evenodd;clip-rule:evenodd;fill:#C5C6C8;}
	.st1{fill-rule:evenodd;clip-rule:evenodd;fill:#9B9C9E;}
	.st2{fill-rule:evenodd;clip-rule:evenodd;fill:#FFFFFF;stroke:#1A171B;stroke-width:0.9637;stroke-miterlimit:2.6131;}
	.st3{fill-rule:evenodd;clip-rule:evenodd;fill:#3D3D3F;stroke:#1A171B;stroke-width:0.9637;stroke-miterlimit:2.6131;}
	.st4{fill-rule:evenodd;clip-rule:evenodd;fill:#E1001A;}
	.st5{fill-rule:evenodd;clip-rule:evenodd;fill:#FFFFFF;}
</style>
<g>
	<g>
		<polygon class="st0" points="694.8,367 625.3,367 625.3,805 694.8,805 694.8,367 		"/>
		<path class="st0" d="M625.3,202.5c-0.5-4,1.5-5.5,4.9-7.7l55.3-32.2c4.9-3.2,9.5-0.7,9.3,4.2v202.2l-69.5,40.9V202.5L625.3,202.5z
			"/>
		<polygon class="st1" points="775.9,791 531,791 531,804.7 775.9,804.7 775.9,791 		"/>
		<polygon class="st2" points="688.5,358.4 618.9,358.4 618.9,791.3 688.5,791.3 688.5,358.4 		"/>
		<path class="st3" d="M618.9,195.8c-0.5-3.9,1.5-5.4,4.9-7.6l55.3-31.8c4.9-3.2,9.5-0.7,9.3,4.2v199.8l-69.5,40.4V195.8
			L618.9,195.8z"/>
		<polygon class="st4" points="667.9,194.6 639.7,194.6 639.7,307.2 667.9,307.2 667.9,194.6 		"/>
		<polygon class="st0" points="278.1,369.6 347.7,369.6 347.7,805 278.1,805 278.1,369.6 		"/>
		<path class="st0" d="M347.7,206.1c0.5-3.9-1.5-5.4-4.9-7.6l-55.3-32c-5.9-2.2-9.1,1.7-9.3,6.6v198.5l69.5,40.6V206.1L347.7,206.1z
			"/>
		<polygon class="st1" points="184.1,792.2 429,792.2 429,805 184.1,805 184.1,792.2 		"/>
		<polygon class="st2" points="271.5,359.4 341.1,359.4 341.1,792.3 271.5,792.3 271.5,359.4 		"/>
		<path class="st3" d="M341.1,196.8c0.5-3.9-1.5-5.4-4.9-7.6l-55.3-31.8c-5.9-2.2-9.1,1.7-9.3,6.6v197.3l69.5,40.4V196.8
			L341.1,196.8z"/>
		<polygon class="st5" points="320.2,194.6 292.1,194.6 292.1,307.2 320.2,307.2 320.2,194.6 		"/>
	</g>
</g>
</svg>
