<?xml version="1.0" encoding="utf-8"?>
<!-- Generator: Adobe Illustrator 19.2.0, SVG Export Plug-In . SVG Version: 6.00 Build 0)  -->
<svg version="1.1" id="Livello_1" xmlns="http://www.w3.org/2000/svg" xmlns:xlink="http://www.w3.org/1999/xlink" x="0px" y="0px"
	 viewBox="0 0 960 960" style="enable-background:new 0 0 960 960;" xml:space="preserve">
<style type="text/css">
	.st0{opacity:1.000000e-002;fill:#FFFFFF;}
	.st1{fill-rule:evenodd;clip-rule:evenodd;fill:#3D3D3F;}
	.st2{fill-rule:evenodd;clip-rule:evenodd;fill:#FFEC00;}
	.st3{fill-rule:evenodd;clip-rule:evenodd;fill:#9B9C9E;}
	.st4{fill:none;stroke:#1A171B;stroke-width:0.5166;stroke-miterlimit:2.6131;}
</style>
<rect class="st0" width="1" height="1"/>
<rect x="959" y="959" class="st0" width="1" height="1"/>
<g>
	<g>
		<polygon class="st1" points="467.1,832.6 491.7,832.6 491.7,706.9 467.1,706.9 467.1,832.6 		"/>
		<polygon class="st2" points="467.1,706.9 491.7,706.9 491.7,589.6 467.1,589.6 467.1,706.9 		"/>
		<polygon class="st1" points="467.1,589.6 491.7,589.6 491.7,472.3 467.1,472.3 467.1,589.6 		"/>
		<polygon class="st1" points="467.1,354.7 491.7,354.7 491.7,237.4 467.1,237.4 467.1,354.7 		"/>
		<polygon class="st2" points="467.1,472.2 491.7,472.2 491.7,354.9 467.1,354.9 467.1,472.2 		"/>
		<polygon class="st2" points="467.1,237.4 491.7,237.4 491.7,120.2 467.1,120.2 467.1,237.4 		"/>
		<polygon class="st3" points="381.2,832.6 578.8,832.6 578.8,840 381.2,840 381.2,832.6 		"/>
		<polygon class="st4" points="467.1,120 491.7,120 491.7,832.6 467.1,832.6 467.1,120 		"/>
	</g>
</g>
</svg>
