<?xml version="1.0" encoding="utf-8"?>
<!-- Generator: Adobe Illustrator 19.2.0, SVG Export Plug-In . SVG Version: 6.00 Build 0)  -->
<svg version="1.1" id="Livello_1" xmlns="http://www.w3.org/2000/svg" xmlns:xlink="http://www.w3.org/1999/xlink" x="0px" y="0px"
	 viewBox="0 0 960 960" style="enable-background:new 0 0 960 960;" xml:space="preserve">
<style type="text/css">
	.st0{fill-rule:evenodd;clip-rule:evenodd;fill:#C5C6C8;}
	.st1{fill-rule:evenodd;clip-rule:evenodd;fill:#FFFFFF;stroke:#1A171B;stroke-width:2.597;stroke-miterlimit:2.6131;}
	.st2{fill-rule:evenodd;clip-rule:evenodd;fill:#1A171B;stroke:#1A171B;stroke-width:1.2985;stroke-miterlimit:2.6131;}
	.st3{fill-rule:evenodd;clip-rule:evenodd;fill:#FFFFFF;}
	.st4{fill-rule:evenodd;clip-rule:evenodd;fill:#1A171B;}
	.st5{fill-rule:evenodd;clip-rule:evenodd;fill:#9B9C9E;}
</style>
<g>
	<g>
		<polygon class="st0" points="729.4,419.5 736.9,419.5 736.9,676.1 729.4,676.1 729.4,419.5 		"/>
		<polygon class="st1" points="698.7,418 729.4,418 729.4,678.3 698.7,678.3 698.7,418 		"/>
		<polygon class="st2" points="146.5,268.5 814,268.5 814,424.6 146.5,424.6 146.5,268.5 		"/>
		<polygon class="st0" points="252.8,419.5 260.3,419.5 260.3,676.1 252.8,676.1 252.8,419.5 		"/>
		<polygon class="st1" points="222.1,418 252.8,418 252.8,678.3 222.1,678.3 222.1,418 		"/>
		<polygon class="st3" points="326,424.6 326,268.5 225.5,268.5 146.8,347.7 223.9,424.6 326,424.6 		"/>
		<polygon class="st4" points="349.4,268.5 427.8,347.7 350.9,424.6 300.3,424.6 223.2,347.7 301.8,268.5 349.4,268.5 		"/>
		<polygon class="st3" points="495.8,424.6 495.8,268.5 397.9,268.5 319.2,347.7 396.4,424.6 495.8,424.6 		"/>
		<polygon class="st4" points="520.3,268.5 598.7,347.7 521.8,424.6 471.2,424.6 394,347.7 472.7,268.5 520.3,268.5 		"/>
		<polygon class="st3" points="666.7,424.6 666.7,268.5 566.2,268.5 487.5,347.7 564.7,424.6 666.7,424.6 		"/>
		<polygon class="st4" points="690.1,268.5 768.5,347.7 691.7,424.6 641.3,424.6 564.4,347.7 642.6,268.5 690.1,268.5 		"/>
		<polygon class="st3" points="736.6,424.6 659.5,347.7 738.1,268.5 814,268.5 814,424.6 736.6,424.6 		"/>
		<polygon class="st4" points="814.2,270 814.2,268.5 814,268.5 814,424.6 814.2,424.6 814.2,423 739.2,347.7 814.2,270 		"/>
		<polygon class="st5" points="45,677.2 915,677.2 915,691.5 45,691.5 45,677.2 		"/>
	</g>
</g>
</svg>
