<?xml version="1.0" encoding="utf-8"?>
<!-- Generator: Adobe Illustrator 19.2.0, SVG Export Plug-In . SVG Version: 6.00 Build 0)  -->
<svg version="1.1" id="Livello_1" xmlns="http://www.w3.org/2000/svg" xmlns:xlink="http://www.w3.org/1999/xlink" x="0px" y="0px"
	 viewBox="0 0 960 960" style="enable-background:new 0 0 960 960;" xml:space="preserve">
<style type="text/css">
	.st0{fill-rule:evenodd;clip-rule:evenodd;fill:#C5C6C8;}
	.st1{fill-rule:evenodd;clip-rule:evenodd;fill:#FFFFFF;stroke:#1A171B;stroke-width:2.5;stroke-miterlimit:2.6131;}
	.st2{fill-rule:evenodd;clip-rule:evenodd;fill:#1A171B;stroke:#1A171B;stroke-width:1.25;stroke-miterlimit:2.6131;}
	.st3{fill-rule:evenodd;clip-rule:evenodd;fill:#FFFFFF;}
	.st4{fill-rule:evenodd;clip-rule:evenodd;fill:#1A171B;}
	.st5{fill-rule:evenodd;clip-rule:evenodd;fill:#9B9C9E;}
</style>
<g>
	<g>
		<polygon class="st0" points="182.4,432.9 190.6,432.9 190.6,689.9 182.4,689.9 182.4,432.9 		"/>
		<polygon class="st0" points="801.7,432.9 809.9,432.9 809.9,689.9 801.7,689.9 801.7,432.9 		"/>
		<polygon class="st1" points="149,408.6 182.4,408.6 182.4,692.4 149,692.4 149,408.6 		"/>
		<polygon class="st1" points="768.2,408.6 801.7,408.6 801.7,692.4 768.2,692.4 768.2,408.6 		"/>
		<polygon class="st2" points="45,254.1 915,254.1 915,454.6 45,454.6 45,254.1 		"/>
		<polygon class="st3" points="814.7,254.1 915,354.4 814.7,454.6 740.5,454.6 740.5,254.1 814.7,254.1 		"/>
		<polygon class="st4" points="740.2,253.9 840.5,354.2 740.2,454.4 640,354.2 740.2,253.9 		"/>
		<polygon class="st3" points="647.5,254.1 747.8,354.4 647.5,454.6 573,454.6 573,254.1 647.5,254.1 		"/>
		<polygon class="st4" points="573,253.9 673.3,354.2 573,454.4 472.7,354.2 573,253.9 		"/>
		<polygon class="st3" points="145.3,254.1 220.3,254.1 220.3,454.6 145.3,454.6 45,354.4 145.3,254.1 		"/>
		<polygon class="st4" points="220,253.9 320.3,354.2 220,454.4 119.7,354.2 220,253.9 		"/>
		<polygon class="st3" points="313.7,254.1 387,254.1 387,454.6 313.7,454.6 213.5,354.4 313.7,254.1 		"/>
		<polygon class="st4" points="387.2,253.9 487.5,354.2 387.2,454.4 287,354.2 387.2,253.9 		"/>
		<polygon class="st3" points="479.7,253.9 580,354.2 479.7,454.4 379.5,354.2 479.7,253.9 		"/>
		<polygon class="st5" points="45,691.6 915,691.6 915,706.1 45,706.1 45,691.6 		"/>
	</g>
</g>
</svg>
