<?xml version="1.0" encoding="utf-8"?>
<!-- Generator: Adobe Illustrator 19.2.0, SVG Export Plug-In . SVG Version: 6.00 Build 0)  -->
<svg version="1.1" id="Livello_1" xmlns="http://www.w3.org/2000/svg" xmlns:xlink="http://www.w3.org/1999/xlink" x="0px" y="0px"
	 viewBox="0 0 960 960" style="enable-background:new 0 0 960 960;" xml:space="preserve">
<style type="text/css">
	.st0{fill-rule:evenodd;clip-rule:evenodd;fill:#FFEC00;stroke:#1A171B;stroke-width:1.0006;stroke-miterlimit:2.6131;}
	.st1{fill-rule:evenodd;clip-rule:evenodd;fill:#1A171B;stroke:#1A171B;stroke-width:1.0006;stroke-miterlimit:2.6131;}
	.st2{fill-rule:evenodd;clip-rule:evenodd;fill:#FFEC00;}
	.st3{fill-rule:evenodd;clip-rule:evenodd;fill:#1A171B;}
</style>
<g>
	<g>
		<path class="st0" d="M265.2,357.3c-14.8,0.6-26.9,2.7-39.6,10.3L59.1,459.3c-18.9,11.8-18.6,26.6-0.3,38.7l166.7,94.3
			c9.8,5.9,23.1,10.1,34.6,10.3H915V357.3H265.2L265.2,357.3z"/>
		<path class="st1" d="M902.9,369.5H265.6c-13.1,0.2-24.6,2.4-34,8.8L64.8,470.1c-10.9,6.2-11.3,10.5,0,18l166.8,94.2
			c9.8,5.4,19.8,9.9,34,8.8h637.3V369.5L902.9,369.5z"/>
		<path class="st2" d="M851.1,380.1H306.7c-26.9,0-39.9,1.5-49.7,9.7l-110.4,89.3l110.4,92c9.6,8,21.5,9.1,49.7,9.1h544.4
			c22.3,0,40.7-18.4,40.7-41.1V421.2C891.8,398.5,873.6,380.1,851.1,380.1L851.1,380.1z"/>
		<polygon class="st3" points="426.9,521.4 426.9,436.8 444.1,436.8 480,493.3 480,436.8 496.4,436.8 496.4,521.4 478.7,521.4 
			443.3,466.2 443.3,521.4 426.9,521.4 		"/>
		<path class="st3" d="M511.1,489.9c0-5.4,1.4-10.6,4.1-15.6c2.8-5,6.7-8.9,11.7-11.5c5-2.7,10.7-4,16.9-4c9.6,0,17.5,3,23.6,9
			c6.1,6,9.2,13.6,9.2,22.8c0,9.3-3.1,16.9-9.3,23c-6.2,6.1-14,9.1-23.4,9.1c-5.8,0-11.4-1.3-16.6-3.8c-5.3-2.5-9.3-6.3-12.1-11.2
			C512.5,502.9,511.1,496.9,511.1,489.9L511.1,489.9z M528.3,490.7c0,6.1,1.5,10.7,4.5,14c3,3.2,6.7,4.8,11.1,4.8
			c4.4,0,8.1-1.6,11-4.8c3-3.2,4.5-7.9,4.5-14.1c0-6-1.5-10.6-4.5-13.8c-3-3.2-6.6-4.8-11-4.8c-4.4,0-8.1,1.6-11.1,4.8
			C529.8,480,528.3,484.7,528.3,490.7L528.3,490.7z"/>
		<path class="st3" d="M605.9,521.4h-16.8v-61.3h15.6v8.7c2.7-4.1,5.1-6.8,7.2-8.1c2.1-1.3,4.6-2,7.3-2c3.8,0,7.5,1,11.1,3.1
			l-5.2,14.1c-2.8-1.8-5.4-2.6-7.9-2.6c-2.4,0-4.3,0.6-6,1.9c-1.7,1.2-2.9,3.5-3.9,6.8c-0.9,3.3-1.4,10.1-1.4,20.5V521.4
			L605.9,521.4z"/>
		<path class="st3" d="M695.6,521.4H680v-9c-2.6,3.5-5.7,6.1-9.2,7.8c-3.5,1.7-7.1,2.6-10.7,2.6c-7.3,0-13.5-2.8-18.8-8.5
			c-5.2-5.7-7.8-13.6-7.8-23.7c0-10.4,2.5-18.3,7.6-23.7c5.1-5.4,11.5-8.1,19.2-8.1c7.1,0,13.2,2.9,18.4,8.5v-30.5h16.8V521.4
			L695.6,521.4z M650.8,489.4c0,6.5,0.9,11.3,2.8,14.2c2.7,4.2,6.5,6.3,11.3,6.3c3.9,0,7.2-1.6,9.9-4.8c2.7-3.2,4.1-7.9,4.1-14.2
			c0-7-1.3-12.1-3.9-15.2c-2.6-3.1-6-4.6-10.1-4.6c-4,0-7.3,1.5-10,4.6C652.2,478.8,650.8,483.3,650.8,489.4L650.8,489.4z"/>
	</g>
</g>
</svg>
