<?xml version="1.0" encoding="utf-8"?>
<!-- Generator: Adobe Illustrator 19.2.0, SVG Export Plug-In . SVG Version: 6.00 Build 0)  -->
<svg version="1.1" id="Livello_1" xmlns="http://www.w3.org/2000/svg" xmlns:xlink="http://www.w3.org/1999/xlink" x="0px" y="0px"
	 viewBox="0 0 960 960" style="enable-background:new 0 0 960 960;" xml:space="preserve">
<style type="text/css">
	.st0{fill-rule:evenodd;clip-rule:evenodd;fill:#C5C6C8;stroke:#1A171B;stroke-width:2.2023;stroke-miterlimit:2.6131;}
	.st1{fill-rule:evenodd;clip-rule:evenodd;fill:#FFFFFF;stroke:#1A171B;stroke-width:2.2023;stroke-miterlimit:2.6131;}
	.st2{fill-rule:evenodd;clip-rule:evenodd;fill:#FFEC00;stroke:#1A171B;stroke-width:2.2023;stroke-miterlimit:2.6131;}
	.st3{fill-rule:evenodd;clip-rule:evenodd;fill:#FFFFFF;stroke:#1A171B;stroke-width:0.6607;stroke-miterlimit:2.6131;}
	.st4{fill-rule:evenodd;clip-rule:evenodd;fill:#005EA7;}
	.st5{fill-rule:evenodd;clip-rule:evenodd;fill:#FFFFFF;}
</style>
<g>
	<g>
		<path class="st0" d="M479.8,840c49.2,0,125.2-29.3,133.3-81.3v-60.2l-94.1-112.4h-77.1l-94.9,101.2v71.5
			C354.7,810.3,430.6,840,479.8,840L479.8,840z"/>
		<path class="st0" d="M480.6,782c49.2,0,124.4-32.3,132.5-84.3c-0.6-13.8-3.6-28.1-8-41.6l-86.1-253.3h-77.1l-87.1,253.3
			c-7,22.3-8,21.9-7,41.6C350.7,754.7,431.4,782,480.6,782L480.6,782z"/>
		<path class="st1" d="M480.4,656.1L480.4,656.1c8.3,0,15.1-6.8,15.1-15.1V236.6c0-8.3-6.8-15.1-15.1-15.1
			c-8.3,0-15.1,6.8-15.1,15.1v404.5C465.3,649.4,472.1,656.1,480.4,656.1L480.4,656.1z"/>
		<path class="st2" d="M415.8,338.4c12.2,11.6,24.9,22.7,65,22.7s52.8-10.4,64.4-22.7v199.5c-11.6,12.6-26.3,26.3-64.2,26.3
			c-37.9,0-55.8-14.1-65.2-26.3V338.4L415.8,338.4z"/>
		<path class="st3" d="M491.3,120.4c33.7,6,55.5,18.2,76,45.9c11.7,18.8,17.1,36.3,17.9,58.3c-1.5,44-24.3,77.6-63.7,96.1
			c-44.7,18.4-89.7,5.6-121.4-29.7c-19.9-26.1-27.4-54.9-21.6-87.6c6.8-25.2,16.5-41.9,35.9-59.4c20.7-15.4,40.2-23.1,66.4-23.9
			L491.3,120.4L491.3,120.4z"/>
		<path class="st4" d="M481,125.8c54.2,0,98.5,44.2,98.5,98.5s-44.2,98.5-98.5,98.5s-98.5-44.2-98.5-98.5S426.8,125.8,481,125.8
			L481,125.8z"/>
		<path class="st5" d="M540.8,285.2L455.9,263c-2-1.8-3.5-3.5-0.4-6.6l22.7-14.1l-65.6-65.9l18.9-18.8l64.9,65l15.5-22.6
			c3.2-3.2,4.9-1.4,6.7,0.3L540.8,285.2L540.8,285.2z"/>
	</g>
</g>
</svg>
