<?xml version="1.0" encoding="utf-8"?>
<!-- Generator: Adobe Illustrator 19.2.0, SVG Export Plug-In . SVG Version: 6.00 Build 0)  -->
<svg version="1.1" id="Livello_1" xmlns="http://www.w3.org/2000/svg" xmlns:xlink="http://www.w3.org/1999/xlink" x="0px" y="0px"
	 viewBox="0 0 960 960" style="enable-background:new 0 0 960 960;" xml:space="preserve">
<style type="text/css">
	.st0{fill-rule:evenodd;clip-rule:evenodd;fill:#C5C6C8;}
	.st1{fill-rule:evenodd;clip-rule:evenodd;fill:#FFFFFF;stroke:#1A171B;stroke-width:1.8527;stroke-miterlimit:2.6131;}
	.st2{fill-rule:evenodd;clip-rule:evenodd;fill:#E1001A;stroke:#1A171B;stroke-width:1.8527;stroke-miterlimit:2.6131;}
	.st3{fill:none;stroke:#868789;stroke-width:0.5558;stroke-miterlimit:2.6131;stroke-dasharray:5.5581,2.779;}
	.st4{fill-rule:evenodd;clip-rule:evenodd;fill:#1A171B;}
	.st5{fill-rule:evenodd;clip-rule:evenodd;fill:#E1001A;}
</style>
<g>
	<g>
		<path class="st0" d="M485.3,344.3L485.3,344.3c6.2,0,11.3,0.8,11.3,1.8v478c0,15.9-12.9,16.1-15.5,15.9c-6.2-0.6-7.1-3.5-7.1-4.5
			V346.1C474,345.1,479.1,344.3,485.3,344.3L485.3,344.3z"/>
		<path class="st1" d="M480,341.9L480,341.9c7,0,12.7,3.6,12.7,7.9v476.4c0,6.7-2.9,13.3-12.7,13.3c-9.8,0-12.7-6.6-12.7-13.3V349.8
			C467.3,345.4,473,341.9,480,341.9L480,341.9z"/>
		<path class="st1" d="M480,120c69.7,0,126.5,56.8,126.5,126.5c0,69.7-56.8,126.5-126.5,126.5s-126.5-56.8-126.5-126.5
			C353.5,176.8,410.3,120,480,120L480,120z"/>
		<path class="st2" d="M480,161.9c46.6,0,84.6,38,84.6,84.6s-38,84.6-84.6,84.6c-46.6,0-84.6-38-84.6-84.6S433.4,161.9,480,161.9
			L480,161.9z"/>
		<path class="st3" d="M480,152.8c48.6,0,88.7,37.3,93.3,84.8l23.4-1.1c-5.1-59.8-55.6-107.1-116.7-107.1
			c-61.2,0-111.6,47.3-116.7,107.2l23.4,1.1C391.2,190.2,431.4,152.8,480,152.8L480,152.8z"/>
		<path class="st3" d="M586.1,257.2c-5.4,53.7-51,95.9-106.1,95.9c-55.2,0-100.8-42.3-106.1-96.1l-11.7,0.5
			c5.6,60,56.4,107.2,117.8,107.2c61.4,0,112.1-47.2,117.8-107.1L586.1,257.2L586.1,257.2z"/>
		<path class="st3" d="M568.9,256.4C564,301.1,526,336,480,336c-46,0-84.1-35-88.9-79.7l-7.7,0.4c5.1,48.8,46.5,87,96.6,87
			c50.1,0,91.5-38.2,96.6-86.9L568.9,256.4L568.9,256.4z"/>
		<path class="st4" d="M472.3,275.5c-0.8-0.4-1.5-1.1-2.1-1.3c0-0.1,0-0.1,0-0.1c-0.1,0-0.1,0-0.1,0c0-0.3,0.1-0.6,0.1-1
			c0.9-0.3,2.2-0.5,2.1-1.6c-2,0.3-4.4,0.8-6.4,0.8c-2.5-1.1-4.7-2.7-7-3.9c-0.1-0.2-0.1-0.2-0.3-0.3c0-0.1,0-0.1,0-0.2
			c-0.7-0.2-1.9-1.6-2.3-2.2c0-0.9,0.6-1.9,1-2.8c0.1-3,0.4-2.3,3.4-2.4c0.1-0.1,0.2-0.2,0.3-0.3c0-0.4,0-0.8,0-1.1
			c0.9,0.1,1,0.2,1.2,0.2c-0.2-0.5-1-1.2-1.4-1.5c-1.2-1.5-1.4-1.6-1.4-1.7c-0.1,0-0.1,0-0.1,0c-2.5-3.6-5.9-8.2-4.1-12.8
			c1.1-0.6,2.6,2.8,3,3.5c0.1,0,0.2,0,0.3,0c0-1.6-0.2-2.1-1.3-3c-1.4-2.1-1.2-6-1.2-8.3c0.3-1.4,0.6-2.8,0.9-4.1
			c1.1-2.1,2-3.6,3.4-5.5c0.2,0,0.4,0,0.6,0c0.2,0.4,0.3,0.7,0.4,1.3c0.7-0.2,0.7-0.8,0.9-1.4c0.2-0.3,0.4-0.6,0.6-0.9
			c0.5-1.4,2.7-4.8,4.4-4.8c0.6,0.9-0.2,1.5-0.1,2.4c0.6,0,1.8-1.5,2.3-2c2.2-1.4,4.3-3.5,7.2-2.8c0.3,1-0.4,1.1,0.9,1.6
			c0,1.9-2.2,2.9-3.5,3.9c0,0.1,0,0.1,0,0.2c1.3-0.1,1.2-0.2,2,1.3c0.8,0,0.8,0,1.8-0.1c0.9-1.8-0.1-2,2.5-2c0.1,0,0.3,0.1,0.4,0.2
			c0.6,1.7,0.2,1.6,2.1,1.9c0.9-0.3,0.8-1.2,1.6-1.6c1,0.2,1,0.2,2.2,0.6c0,0.6,0.1,1.3,0.1,1.9c1.4,0.7,1.7,1.1,2.7-0.5
			c0-2.1-3.5-1.9-4.4-3.3c-1.6-0.7-1.7-0.3-2.2-2c-0.6-0.4-0.7-0.9-0.7-1.5c0.7-0.5,1.3-0.3,1.9-1.3c0.6-0.2,1.1,0,1.7,0.3
			c0.5,0,1,0,1.4,0.1c1.2,0.8,2.5,1.5,3.8,2.3c0.6,0.5,2.1,1.2,3,1.2c0.8-0.5,1.8,1.3,2.6,1.8c0.4,0,0.4-0.1,0.8,0.3
			c0.2,0.8,0.8,1.7,1,2.6c1.1,0.1,1.2,0.1,1.8,1.1c0.5,0.3,0.5,0.3,1.3,0.4c0.6,1.2,0.6,1.8,1.7,2.8c0.3,1.7,0.9,3.1,1.6,4.8
			c0,0.7-0.3,1.2,0.1,1.9c0,1.7-1.5,3.3-1.4,5.1c0.8,0.2,1.2,0,1.9,0c0.8,2,0.5,3.5,0.4,5.7c-0.8,1-0.9,1.9-1.2,3.2
			c-0.5,1-0.8,1.3-0.9,2.5c-0.6,1.3-0.6,1.3-0.9,1.6c-1,0.7-1.1,0.6-1.3,1.8c-0.2,0.2-1.8,1.4-1.9,1.6c0,0.6,0,1,0.2,1.6
			c0.3,0,0.7,0.1,1.1,0.1c2.1-0.1,2.4-0.4,2.7,1.8c0.3,1.1,0.5,1.7,1.1,2.7c0,2-4.1,3.6-5.6,5.1c-1.6,1-1.6,1-2.5,1.8
			c-2.6,0.5-5.8-0.2-8.4-0.4c0,0.1,0,0.2,0,0.3c0.9,0.6,1.7,1.1,2.8,1.6c0.5,0.8-1.7,1.5-2.1,1.7c-0.3,0-0.6,0-0.8,0
			c-0.4-0.6-1.1-1.2-1.7-1.3c-0.9-1.4-2.5-2.5-3.9-3.3c-0.2,0-0.3,0-0.4,0c-1.6,1-1.8-0.1-3.2,0.1c-0.8,0.4-0.9,0.6-1.1,0.6
			c-0.4,1.2-1.4,1.3-2.3,2.1c-0.2,0.8-0.6,0.9-1.2,1.2C473.4,275.5,473.8,275.5,472.3,275.5L472.3,275.5z"/>
		<path class="st5" d="M472.2,275c-0.3-0.2-0.7-0.4-1-0.6c0-0.1,0-0.3,0-0.4c0.1-0.1,0.2-0.1,0.3-0.1c0-1,0.3-0.9,1.2-1.5
			c0.9-0.1,0.9-0.2,1.3-1c0.8-0.3,1.3-0.5,2.2-0.4c0,0.1,0,0.2,0,0.3c-1.5,0.5-2.5,2.3-4,2.6c0,0.1,0,0.1,0.1,0.2
			c0.5,0.1,0.9,0.1,0.9,0.9C472.9,275.1,472.5,275,472.2,275L472.2,275z"/>
		<path class="st5" d="M488.9,274.5c-0.1-0.1-0.2-0.1-0.4-0.1c0-0.1,0-0.3,0-0.4c0.4-0.2,0.5-0.3,1.1-0.2c0,0.3-0.1,0.5-0.3,0.7
			C489.2,274.5,489.1,274.5,488.9,274.5L488.9,274.5z"/>
		<path class="st5" d="M488,273.2c-0.7-0.5-2.4-1.7-2.6-2.4c0.5,0,0.8,0.1,1.4,0.3c0,0,0,0.1,0,0.1c0.4,0.2,0.9,0.4,1.3,0.7
			c0,0.4,0.2,0.8,0.1,1.2C488.2,273.2,488.1,273.2,488,273.2L488,273.2z"/>
		<path class="st5" d="M466,272c-2.3-0.9-4.3-2.5-6.4-3.6c-0.3-0.3-0.7-0.6-1-0.6c-0.2-0.4-0.6-0.6-0.9-0.8c-0.3-0.4-0.3-0.4-0.4-1
			c0.3,0,0.5,0.2,0.8,0.3c0.1-0.2,0.1-0.4,0.2-0.6c0.1,0,0.2-0.1,0.4-0.1c0.1,0.5-0.1,1,0.6,1.2c0-0.4,0-0.8,0.1-1.1
			c0.9-0.3,0.9-0.4,0.9-1.3c-0.5-0.5-0.9-1.1-1.4-1c-0.1,0.2-0.1,0.4-0.1,0.7c-0.2,0.4-1.4,2.3-1.9,1.8c0.2-1.3,1-2.5,1-3.8
			c1.6,0.4,3,1.5,4.5,2.3c0.6,0.9,2.1,1.3,2.9,2.3c0,0,0.1,0,0.1,0.1c0,0.1-0.1,0.1-0.1,0.2c-1.1,0.1-0.9-0.2-1.7-0.7
			c0-0.1,0-0.1,0-0.1c-0.8-0.5-1.9-1.3-2.6-1.4c-0.1,0.9-0.6,2.2-1.5,2.5c0,0,0,0.1,0,0.2c0.6,0.2,1.2,0.9,1.9,0.8
			c0.1-0.2,0.1-0.2,0.1-0.4c-0.5,0-0.7,0-1-0.2c0-0.2,0-0.4,0-0.6c0.3-0.1,0.1-0.2,0.7-0.2c0,0.1,0.1,0.2,0.1,0.3c0.1,0,0.2,0,0.3,0
			c0.3-0.5,0.3-0.5,0.3-0.7c-0.2,0-0.4-0.1-0.6-0.1c0-0.2,0-0.3,0-0.4c0.5-0.5,0.7-0.3,1.1,0.3c0.2,0,0.2-0.1,0.6-0.1
			c-0.1,0.6-0.7,2-1.3,2.3c0,0.1,0,0.2,0,0.4c0.3,0.1,0.3,0.2,0.7,0.2c0.4-1.2,0.7-0.6,2.1-0.7c0,1-0.2,1.9-0.2,2.2
			c1.3-0.1,3-4.2,3,0.2c-0.1,0.2-0.1,0.2-0.1,0.5c0.8-0.1,1.2-0.1,1.8-0.6c0-0.5-0.2-2.1-0.4-2.4c-0.9-0.4-1.7-0.1-2.6-0.2
			c-0.1,0.7-0.3,1.1-1,1.2c0-0.7-0.2-1,0.3-1.4c0-0.1,0-0.2,0-0.4c-0.1,0-0.1,0-0.2,0c0-0.1,0.1-0.1,0.2-0.2
			c3.2,0.6,6.8-0.9,10.1-1.1c0,0.1,0,0.1,0,0.2c-0.8,0.2-0.6,1.1-1.3,1.4c0-0.2-0.1-0.5-0.1-0.7c-0.2,0-0.4,0-0.7,0.1
			c-0.1,0.9,0.9,2-0.4,2.7c-0.9,0-0.9-1.7-0.8-2.3c-1.7-0.8,0.2,2.1-0.4,2.7c0,0.1,0,0.2,0,0.3c0.8-0.1,2.4-0.6,2.8-0.6
			c-0.1-0.5-0.2-0.6-0.2-1c0.1,0,0.2,0,0.2,0c0.6,0.6,1.1,0.9,2,0.4c0.4,0,0.9-0.1,1.3-0.1c0-0.3,0-0.5,0-0.8
			c0.3-0.2,0.6-0.3,1.1-0.1c0.1,0.7,0.2,0.8,0.2,0.9c-1.4,0.6-1.4,0.6-4,1.5C472.6,270.9,468.9,272,466,272L466,272z"/>
		<path class="st5" d="M494.1,271.4c-3.3-0.2-6.9-0.5-9.8-1.7c0-0.1,0-0.3,0-0.4c1.3-1.7-0.7-2.7-0.8-4c3.8-0.1,7.9,2,11.7,1.3
			c0.7-0.6,1.6-1.2,3-2.4c1.5-1,3-2.7,4.9-2.8c0.2,1.1,0.9,2.1,0.8,3.2c-1.2,0-2-1.1-3.1-1.2c0.2,1,0.4,1.9,0.4,3
			c-0.7-0.2-1.3-1.3-1.5-1.9c-0.6-0.1-0.5,0-0.7,0.5c0.4,0.1,0.9,0.3,0.8,0.9c-1.1-0.1-1.6-0.5-2.5,0c0,0.1,0,0.1,0,0.2
			c0.7,0.3,1.6,1,1.5,2c-0.5-0.1-0.5-0.1-1.1-0.3c0,0.1-0.1,0.1-0.1,0.2c-0.5-0.7-0.9-0.9-1.6-1c-0.1,0.8,0.4,2.1,0.4,3.2
			c0.4-0.1,0.6,0,0.6-0.5c-0.1-0.1-0.2-0.2-0.2-0.2c0-0.1,0-0.3,0.1-0.4c0.4-0.2,0.5-0.5,1.1-0.4c0,0.1,0.1,0.2,0.1,0.3
			c0.5,0,1.5-0.6,1.5-1.2c-0.6-0.3-0.9-0.6-0.9-1.2c1.4,0.1,1.9,0.9,3.3-0.1c0-0.8-0.3-1.3,0.9-1.3c0.1,0.1,0.2,0.2,0.3,0.3
			c0.4-0.1,0.6-0.4,1.1-0.4c0.1,1.2-2.2,2.4-3.1,2.9c-0.6,0.7-1.5,1.2-2.3,1.6c-0.7,0.6-1.7,1.2-2.3,1.8
			C495.9,271.4,495.9,271.4,494.1,271.4L494.1,271.4z"/>
		<path class="st4" d="M494.8,270.8c-0.1,0-0.1-0.1-0.2-0.1c0-0.2,0-0.2,0.1-0.7c-0.1-0.9-0.3-1.8-0.4-2.5c0.3,0,0.6,0,0.9,0
			c0.1,2.8,0.2,2.9,0.2,3.3C495.2,270.7,495,270.7,494.8,270.8L494.8,270.8z"/>
		<path class="st4" d="M492.4,270.6c-0.5-0.1-1.1-0.2-1.6-0.3c0-0.3,0-0.5,0-0.8c-0.5-0.1-0.5-0.1-1.1-0.1c-0.1,0.1-0.1,0.1-0.2,0.7
			c-0.6,0-0.6,0-0.8-0.1c0-0.4,0.3-0.6,0.6-0.9c0.3-0.7,0.7-1.9,1.5-2.1c0.1,0.8,0.5,2.4,1.1,3.1c0.4,0,0.4,0,0.5-0.1
			c0.1-0.7,0.1-1.5,0.2-2.2c-0.1-0.3-0.2-0.3-0.1-0.6c0.6,0.1,0.6,0.1,0.8,0.2c-0.1,1-0.2,1.6-0.2,2.7c0.2,0.1,0.8,0.2,0.9-0.2
			c0.1,0,0.2,0,0.3,0C494.1,271,493.3,270.6,492.4,270.6L492.4,270.6z"/>
		<path class="st5" d="M480.8,270.5c-0.2-0.1-0.3-0.1-0.4-0.1c0-0.1,0-0.2,0-0.3c0.6-0.8,0.6-0.8,0.9-1c0.8-1.5-0.9-3.1-0.7-4.3
			c0.9,0.1,1.3,0.1,2.2,0.7c0,0,0,0.1,0,0.1c1.1,0.5,1.2,1.9,1.2,3.1c-0.5,0.3-0.6,0.3-1.1,0.3C482.4,269.5,481.6,270.3,480.8,270.5
			L480.8,270.5z"/>
		<path class="st4" d="M469.7,270.4c0-1.1-0.1-2-0.5-2.9c0.8-0.2,1.2-0.4,1.9,0.1c0,0.4,0.1,0.7,0.1,1.1
			C472.3,270,470.7,270.3,469.7,270.4L469.7,270.4z"/>
		<path class="st5" d="M468,270.2c-0.2-0.4-0.2-0.7-0.1-0.9c0.2,0,0.3,0,0.5,0.1c0.1,0.3,0.1,0.3,0.1,0.7
			C468.4,270.2,468.2,270.2,468,270.2L468,270.2z"/>
		<path class="st4" d="M487.6,269.9c-0.1-0.1-0.2-0.1-0.3-0.1c-0.1-0.4,0.1-0.4,0.3-0.7c0.2-0.6,0.2-0.6,0.2-1.9c-0.3,0-0.6,0-0.8,0
			c0-0.1-0.1-0.3-0.1-0.4c-0.1,0-0.2,0-0.2,0c-0.5,0.8-0.6,1.7-0.7,2.6c-0.6,0-0.6,0-0.9-0.1c0.3-0.5,0.3-0.5,0.7-2.1
			c0-0.6-0.1-0.7,0-0.9c0.1,0,0.3,0,0.4,0c0.4,0.4,0.6,0.4,1.3,0.3c0.6,0.1,1.3,0.3,1.9,0.4c0,0.2,0,0.4,0,0.6c-0.1,0-0.2,0-0.3-0.1
			c0-0.1-0.1-0.1-0.1-0.2c-0.9,0-0.9,1.6-0.9,2.4c0.1,0.1,0.1,0.1,0.2,0.4C488.1,270,487.8,269.9,487.6,269.9L487.6,269.9z"/>
		<path class="st5" d="M470.4,269.9c-0.1,0-0.1,0-0.1,0c0-0.3,0-0.6,0.1-0.9c0.1,0,0.3,0,0.4,0C471.1,269.5,471.1,269.8,470.4,269.9
			L470.4,269.9z"/>
		<path class="st5" d="M490.1,269c0-0.2,0-0.4,0-0.6c0.4,0,0.4,0,0.5,0.1c0,0.2,0,0.3,0,0.5C490.4,269,490.2,269,490.1,269
			L490.1,269z"/>
		<path class="st5" d="M467.8,268.7c-0.2-0.3-0.1-0.4-0.1-0.7c0.3,0,0.3,0,0.5,0.1c0,0.2,0,0.4,0,0.5
			C468.1,268.7,467.9,268.7,467.8,268.7L467.8,268.7z"/>
		<path class="st5" d="M476.1,268.7c-1-0.7-1.1-2.5,0.2-2.5c0.2,0.1,0.4,0.2,0.6,0.3c0-0.1,0-0.3,0-0.4c-0.2-0.1-0.5-0.2-0.7-0.4
			c0-0.1,0-0.2,0-0.3c0.6-0.1,1.2-0.1,1.9-0.1c0.3,0.3-0.3,2.2-0.5,2.6C476.9,268.1,476.9,268.7,476.1,268.7L476.1,268.7z"/>
		<path class="st5" d="M496.6,268.6c-0.2-0.2-0.1-0.5-0.1-0.8c0.5,0,0.5,0.1,0.5,0.6C496.9,268.6,496.9,268.6,496.6,268.6
			L496.6,268.6z"/>
		<path class="st5" d="M470.1,268.4c-0.3-0.3-0.1-0.6,0-0.8c0.5,0,0.4,0.2,0.4,0.7C470.4,268.4,470.4,268.4,470.1,268.4L470.1,268.4
			z"/>
		<path class="st5" d="M480.4,268.3c-0.1,0-0.2,0-0.2,0c-0.5-1-1.6-2-1.5-3c0.7,0,1.2-0.1,1.8,0.3c0.1,0.7,0.3,1.9,0.1,2.7
			C480.5,268.3,480.5,268.3,480.4,268.3L480.4,268.3z"/>
		<path class="st5" d="M463.2,267.5c-0.1-0.7,0.1-0.8,0.7-0.9c0,0.4,0.1,0.5-0.2,0.9C463.5,267.5,463.4,267.5,463.2,267.5
			L463.2,267.5z"/>
		<path class="st5" d="M466.3,266.5c-1.1-0.5-1.9-1.2-2.8-1.8c-0.9-1.1-0.8-2.5-0.3-3.6c0-0.6-0.3-0.9-0.3-1.3
			c1,0.2,1.2,0.6,1.9,1.5c1.4,1.2,2.9,2,4.6,3c0.6,0.6,0.5,1.2-0.2,1.9C468.3,266.5,467.1,266.4,466.3,266.5L466.3,266.5z"/>
		<path class="st5" d="M494.2,266.2c-1.6-0.1-2.8,0.1-2.8-1.6c1.2-1.5,3.6-1.3,4-3.5c0.8-1,1.3-1.9,2.7-2.1c-0.3,0.9-0.2,1,0.1,1.9
			c-0.1,1.9-0.1,1.9-0.2,2.6C497.3,264.6,495.6,266.2,494.2,266.2L494.2,266.2z"/>
		<path class="st5" d="M470.1,266c-0.2-0.2-0.1-0.3-0.1-0.6c0.4-0.4,0.6-0.3,1.1,0c0,0.1,0,0.3,0,0.4C470.4,266,470.4,266,470.1,266
			L470.1,266z"/>
		<path class="st5" d="M473.2,265.4c-1.1-0.2-2.1-1.3-3.1-1.7c-0.1-0.4-1.7-1.4-1.9-1.5c-0.2,0-0.5,0-0.7,0c0-0.1,0-0.1-0.1-0.2
			c-0.8,0.1-0.8,0.1-1.2,0.2c0-0.1,0-0.2,0-0.3c-0.1,0-0.3,0-0.4-0.1c0-0.1,0-0.1,0-0.2c-0.1,0-0.2,0-0.2,0c-0.3-0.4-0.9-1.1-1-1.5
			c-0.6-0.3-1.2-1.5-1.3-2.1c0.3,0,0.6,0,0.9,0.1c-0.1,0.2-0.1,0.4-0.2,0.6c0.4,0.7,0.7,1.5,1.5,2c0.8,0.1,0.8,0.1,1,0.3
			c0,0,0,0.1,0,0.2c0.3,0.1,0.3,0.1,0.9,0.1c0-0.1,0.1-0.1,0.1-0.2c0.1,0,0.2,0,0.3,0c0.7,1.2,2.4,2.2,3.6,3.1
			c0.3,0.1,0.5,0.1,0.8,0.2c0-0.2,0-0.4,0.1-0.6c0.1,0,0.2,0,0.3,0c0.4,0.6,1.4,0.8,1.5,1.6C473.8,265.4,473.6,265.4,473.2,265.4
			L473.2,265.4z"/>
		<path class="st5" d="M475.7,265c-0.4-0.3-1.2-0.6-1.9-1c0-0.1,0-0.1,0-0.1c-0.1,0-0.1,0-0.1,0c-0.2-0.5-0.4-0.8-0.4-1.2
			c1.3,0.2,2.4,0.6,3.4,1.7C476.6,265.1,476.3,264.9,475.7,265L475.7,265z"/>
		<path class="st5" d="M501.5,265c-0.1-0.1-0.1-0.1-0.1-0.7c0.2,0,0.3,0,0.5,0.1C502.1,264.8,502,265,501.5,265L501.5,265z"/>
		<path class="st5" d="M459.4,264.9c-0.1,0-0.2-0.1-0.3-0.1c0-0.8-0.1-0.7,0.6-0.8c0,0.4-0.1,0.6-0.2,0.9
			C459.5,264.9,459.4,264.9,459.4,264.9L459.4,264.9z"/>
		<path class="st5" d="M482.8,264.8c-1.3-0.9-1.1-1.1-2.4-0.7c-1,0.1-2,0.6-2.8,0.6c-0.4-0.3-0.4-0.3-1.2-1.3
			c-1.3-0.9-4.8-2.6-5.9-1.4c-2-0.3-4-4.7-4-6.4c0.3-0.3,0.4-0.3,0.9-0.3c0.7,1.4,1.6,0.9,0.5,2.8c0,0.1,0.1,0.3,0.1,0.4
			c0.7,0.3,1.2,1.1,2.3,1.3c0.4-0.3,0.6-0.7,1.1-1.1c0.7,0.1,1.5,0.4,2.1,1c-0.1,0.5-0.1,1.1-0.2,1.7c0.7,0.4,1.7,0.7,2.6,0.7
			c1-1,0.5-2.5,2.9-1.2c0.4,1.8,0.2,1.7,2,1.8c1.8-0.2,0.8-0.3,1.6-1.9c1.4-0.3,1.4-0.3,2.2-0.4c0.8,1.9,0.8,1.7,2.9,1
			c0.6-0.6,0.1-1.4,0.3-2.1c1.8-0.9,1.5-1.4,2.9,0.1c0.9,0.1,1.8-0.7,2.5-1.4c-0.6-1.7-1.6-1.5,0.6-3.1c0.2,0,0.3,0,0.5,0
			c0,0.1,0,0.2,0,0.3c-0.8,1-0.8,0.9-0.7,2.3c-0.1,0.3-0.1,0.3-0.3,1.1c-1.8,2.5-1.8,2.5-2.2,2.9c-0.8,0-1.2-0.2-1.9-0.1
			c-1.3,0.7-2.8,1.2-4,2.1C484,264.5,484.1,264.7,482.8,264.8L482.8,264.8z"/>
		<path class="st5" d="M484.9,264.7c0.1-1.1,1.4-1.9,2.4-1.8C487.1,264.2,486,264.5,484.9,264.7L484.9,264.7z"/>
		<path class="st5" d="M488.2,264.2c-0.1,0-0.1-0.1-0.2-0.1c-0.1-0.8,0.2-1.5,1.1-1C489.1,263.9,488.8,264.1,488.2,264.2
			L488.2,264.2z"/>
		<path class="st5" d="M462,263.6c-1-0.6-1.8-1.1-2.8-1.5c0-0.1-0.1-0.3-0.1-0.4c-0.2,0-0.4-0.1-0.6-0.1c0-0.1,0-0.2,0-0.3
			c1.3-0.1,2.3-0.2,3.7-0.1c0,0.8,0.1,1.6,0.1,2.4C462.3,263.6,462.1,263.6,462,263.6L462,263.6z"/>
		<path class="st5" d="M490.1,263.3c-0.6-0.6,1.8-2,2.1-2.3c0.6-1,1.2-1.7,1.7-2.7c0-1,0-1,0.1-1.5c0.2,0,0.3,0,0.5,0
			c1-1,2.9-5,4.3-5.2c0,0.1,0,0.3,0,0.4c-1,1.5-2.8,2.9-3.1,4.8c-0.3,0.1-0.5,0.8-0.7,1.2c-0.7,0.9-2,2-1.9,3.2
			c0.4,0.1,0.4,0.1,0.5,0.2c0,0.1,0,0.2,0,0.3C492.1,261.9,491.6,263.3,490.1,263.3L490.1,263.3z"/>
		<path class="st5" d="M498.6,263.1c0-1,0-1.6,0.2-2.5c0.3-0.1,2.1-0.1,2.5,0.1c0,0.2,0,0.4,0.1,0.6
			C500.8,262.1,499.5,262.9,498.6,263.1L498.6,263.1z"/>
		<path class="st5" d="M488.9,262.4c-0.1,0-0.1-0.1-0.2-0.1c0-0.1,0-0.2,0-0.2c0.3-0.2,0.5-0.3,1-0.3c0.1,0.1,0.1,0.1,0.1,0.3
			C489.4,262.4,489.2,262.4,488.9,262.4L488.9,262.4z"/>
		<path class="st5" d="M480.8,262c-0.5-0.1-1.1-0.1-1.6-0.1c0-0.1,0-0.2,0-0.3c0.6-0.3,1.4-0.2,2.2-0.2c0.1,0.1,0.1,0.1,0.1,0.4
			C481,262,481,262,480.8,262L480.8,262z"/>
		<path class="st5" d="M473.7,261.1c-0.1,0-0.2,0-0.3,0c0-0.1,0-0.2,0.1-0.3c0.2-0.1,0.2-0.1,2.5-0.1
			C475.7,261.5,474.5,261.1,473.7,261.1L473.7,261.1z"/>
		<path class="st5" d="M479.3,261c-0.1,0-0.2-0.1-0.3-0.1c0-0.1,0-0.2,0-0.3c0.2-0.1,0.2-0.1,2.4-0.1
			C481.6,261.3,479.9,261,479.3,261L479.3,261z"/>
		<path class="st5" d="M485,261c0-0.2-0.1-0.3-0.1-0.5c0.8,0,1.5,0,2.3,0.1C487,261.3,485.5,261,485,261L485,261z"/>
		<path class="st5" d="M493.8,261c-0.1-0.7,0.7-1.3,1.4-1.5C495.1,259.9,494.2,261,493.8,261L493.8,261z"/>
		<path class="st5" d="M466.8,260.3c-0.4-0.4-0.4-0.6-0.5-0.9c0.5,0,1,0.2,0.9,0.9C467.1,260.3,467,260.3,466.8,260.3L466.8,260.3z"
			/>
		<path class="st5" d="M473.7,260.3c0-0.1,0-0.3,0.1-0.4c0.2-0.1,0.2-0.1,12.9-0.1c0.1,0,0.3,0.1,0.4,0.1c-0.3,0.6-2.2,0.4-2.6,0.3
			C480.8,260.2,477.3,260.3,473.7,260.3L473.7,260.3z"/>
		<path class="st5" d="M469.8,259.5c-0.1,0-0.2,0-0.2,0c0-0.2,0-0.3,0.1-0.5c0.2,0,0.3,0,0.5,0C470.2,259.5,470.1,259.4,469.8,259.5
			L469.8,259.5z"/>
		<path class="st5" d="M476.1,259.5c-1.4-0.1-1.4-0.1-2.6,0c0-0.2-0.1-0.4-0.1-0.5c13.2-0.1,13.2-0.1,13.7-0.1
			c0,0.5-0.4,0.4-0.8,0.5C477.7,259.5,477.7,259.5,476.1,259.5L476.1,259.5z"/>
		<path class="st5" d="M468.6,258.7c0-0.1-0.1-0.3-0.1-0.4c0.5,0,0.5,0,2.3,0.1C470.9,258.9,468.8,258.7,468.6,258.7L468.6,258.7z"
			/>
		<path class="st5" d="M472.2,258.7c-0.1,0-0.2-0.1-0.4-0.1c0-0.1,0-0.2,0-0.3c5.5-0.4,11.3-0.2,17-0.2c0.1,0.4-0.4,0.4-0.7,0.4
			C476.9,258.6,475.4,258.7,472.2,258.7L472.2,258.7z"/>
		<path class="st5" d="M490.5,258.6c-0.3-0.1-0.5-0.1-0.8-0.2c0-0.1,0-0.2,0-0.3c0.8,0,1.6,0,2.4,0.1
			C492.2,258.6,490.8,258.5,490.5,258.6L490.5,258.6z"/>
		<path class="st5" d="M496.9,258.3c-0.2,0-0.4-0.1-0.6-0.1c0-0.4,0.1-0.4,0.3-0.8c0.1,0,0.3,0,0.4,0c0.2,0.3,0.3,0.5,0.5,0.8
			C497.2,258.3,497,258.3,496.9,258.3L496.9,258.3z"/>
		<path class="st5" d="M465.6,258.3c-0.6-1.3-1.5-2.5-2.3-3.6c-0.1,0-0.1,0-0.1,0c-0.2-0.4-0.3-0.5-0.2-0.9c0.1,0,0.2,0,0.4,0
			c0.6,0.8,0.6,0.8,1.2,1.5c0.5,0.8,0.7,1.5,1.6,2.1c0,0.2,0,0.4,0,0.6C466,258.2,465.8,258.2,465.6,258.3L465.6,258.3z"/>
		<path class="st5" d="M471.3,258c-0.9,0-1.9-0.1-2.8-0.1c0-0.2,0-0.4,0-0.6c3.1,0,6.3,0.1,9.5,0c4.6,0.1,9.3-0.1,14-0.1
			c0.1,0.1,0.1,0.1,0.1,0.5C485.1,257.7,478.1,257.8,471.3,258L471.3,258z"/>
		<path class="st5" d="M499.6,257.5c0-0.1,0-0.2,0-0.3c1.2-1.8,1.3-2.9,3.3-3.4c-0.4,1.3-1.4,1.5-2.1,2.5c0,0.2,0.1,0.3,0.1,0.6
			C500.5,257.1,500,257.5,499.6,257.5L499.6,257.5z"/>
		<path class="st5" d="M461.3,257.4c-0.6-1.1-1.4-2.1-1.9-3c-0.7-2.2-2.4-4.2-2.8-6.5c-0.3-0.8-0.3-0.8-0.3-1c-0.1,0-0.1,0-0.1,0
			c0.5,2.8,1.9,5.4,3.2,8.1c0,0.1,0,0.1,0,0.2c-0.1,0-0.2,0-0.2,0c-2.6-3.5-4.2-6.5-3.5-10.7c0.2,0,0.3,0,0.5,0
			c0.1,0.2,0.3,0.3,1.5,2.3c0.7,2,1.9,3.9,2.5,6.1c0.6,0.8,0.6,2.5,1.2,3.6c0.1,0.4,0.2,0.7,0.2,1.2
			C461.4,257.4,461.3,257.4,461.3,257.4L461.3,257.4z"/>
		<path class="st5" d="M468.9,257.1c0-0.3,0-0.3,0.1-0.4c1.9-0.2,4.6-0.3,6.7,0c0,0.1,0,0.2,0,0.3
			C472.5,257.1,472.5,257.1,468.9,257.1L468.9,257.1z"/>
		<path class="st5" d="M479.5,257.1c-0.9-0.1-1-0.2-1.4-0.3c0-0.1,0-0.1,0-0.2c1.5-0.1,3-0.1,4.6-0.1
			C482.4,257.1,480.1,257.1,479.5,257.1L479.5,257.1z"/>
		<path class="st5" d="M497.2,257.1c-0.3-0.3-0.2-0.4-0.2-0.6c0.1,0,0.2,0,0.4,0c0.1,0.2,0.3,0.2,0.2,0.6
			C497.5,257.1,497.4,257.1,497.2,257.1L497.2,257.1z"/>
		<path class="st5" d="M499,257c0-0.4,0.2-0.7,0.3-1.3c-0.1-0.5-0.1-0.7-0.1-1c0.1-0.1,0.2-0.2,0.4-0.3c0-0.5-0.1-0.9-0.1-1.3
			c0.1-0.1,0.1-0.1,0.6-0.1c0.1-1-1-1.5-0.4-2.5c1-0.4,0.3-1.1-0.1-1.6c0-0.3,0-0.6,0-0.9c0.6,0,1.1,0.4,1.6,0.4
			c0.7-0.7,0.3-0.9,1.3-1.5c0.9-1.6,1.3,0.9,1.5,1.6c1.5,0.5-0.3,2.9-0.9,3.6c-0.3,1.2-0.4,1.5-1.6,1.8c-0.1-0.8,0.3-1.5,1-1.8
			c0-0.1,0-0.2,0-0.3c-0.1,0-0.2-0.1-0.3-0.1c0-0.9,0.3-1.4,1.2-1.6c0-0.1,0-0.1,0-0.1c0.2-0.1,0.2-0.1,0.3-0.3c-0.1,0-0.2,0-0.2,0
			c0,0,0,0.1,0,0.1c-0.4,0.3-0.6,0.4-1,0.4c0-0.4,0-0.4,0.4-2.3c-0.1,0-0.1,0-0.2,0.1c0,0.1-0.1,0.2-0.1,0.3c-0.1,0-0.2,0-0.4,0
			c0-0.1,0-0.1,0-0.2c-0.1,0-0.1,0-0.1,0c0.2,1,0.3,2.1-0.3,3.1c-0.1,0-0.1,0-0.2,0c-0.4-0.4-1.1-2.1-1.1-2.5
			c-0.1,0-0.2-0.1-0.3-0.1c0.5,1,0.8,2,1.4,3.1c0,1.1-0.3,1.6-0.9,2.6c-0.1,0-0.1,0-0.2,0c-0.1-0.2-0.2-0.4-0.3-0.6
			c-0.1,0-0.1,0-0.1,0c0.1,0.4,0.2,0.8,0.3,1.2C500.1,255.7,499.7,256.7,499,257L499,257z"/>
		<path class="st5" d="M485.6,256.9c-0.2,0-0.4,0-0.7,0c0-0.1,0-0.2,0.1-0.3c1.6-0.5,4.8-0.2,6.7-0.2c0,0.1-0.1,0.3-0.1,0.4
			C489.5,256.9,487.6,256.9,485.6,256.9L485.6,256.9z"/>
		<path class="st5" d="M476.3,256.4c-0.6-0.1-1.2-0.1-1.3-0.7c3.5-0.1,6.8-0.1,10.3-0.1c0.1,0,0.3,0.1,0.4,0.1
			c-0.3,0.8-2.4,0.7-2.9,0.7C478.3,256.4,477.9,256.4,476.3,256.4L476.3,256.4z"/>
		<path class="st5" d="M470.6,256.3c-0.5,0-2.2,0.2-2.2-0.4c0.3-0.3,4.8-0.1,5.6-0.1c0,0.1,0,0.2,0,0.3
			C472.8,256.2,471.7,256.2,470.6,256.3L470.6,256.3z"/>
		<path class="st5" d="M497.9,256.3c-0.1,0-0.2-0.1-0.2-0.1c0-0.2,0-0.4,0-0.6c0.1,0,0.2,0,0.3,0c0.1,0.2,0.1,0.2,0.1,0.7
			C498,256.3,498,256.3,497.9,256.3L497.9,256.3z"/>
		<path class="st5" d="M486.7,256.2c0-0.2,0-0.3,0-0.5c0.9-0.1,0.9-0.1,5.4-0.1c0,0.1,0,0.3-0.1,0.4
			C491.9,256,491.9,256,486.7,256.2L486.7,256.2z"/>
		<path class="st5" d="M462.4,256.1c-0.1-0.1-0.1-0.1-0.5-0.3c0-0.2,0-0.3,0-0.5c0.2-0.1,0.2-0.1,0.4-0.1c0.2,0.3,0.3,0.3,0.2,0.9
			C462.5,256.1,462.5,256.1,462.4,256.1L462.4,256.1z"/>
		<path class="st5" d="M469.8,255.6c-0.7-0.5-1.6,0.1-2.4-0.3c0-0.1,0-0.2,0-0.2c4-0.1,4-0.1,6.9-0.1c0,0.2,0,0.2-0.1,0.3
			C472.8,255.5,471.1,255.6,469.8,255.6L469.8,255.6z"/>
		<path class="st5" d="M475.2,255.5c-0.1-0.1-0.1-0.1-0.1-0.4c0.6-0.6,4.3-0.3,5.2-0.3c0-0.1,0-0.2,0-0.2c-1.6,0.1-3,0-4.5,0
			c-0.1-0.5,0-0.5,0.3-0.7c2.1-0.1,2.1-0.1,8.5,0c0.1,0.2,0.3,0.3,0.2,0.6c-1.4,0.1-2.9,0.2-4.3,0c0,0,0,0.1,0,0.2
			c1.4,0.4,3.2-0.2,4.8,0.2c0.1,0.1,0.1,0.1,0,0.5C482,255.4,478.6,255.4,475.2,255.5L475.2,255.5z"/>
		<path class="st5" d="M486.4,255.3c-0.3-0.2-0.2-0.2-0.3-0.4c2.3,0,4.6-0.3,6.9-0.1c0,0.1-0.1,0.2-0.1,0.3c-0.1,0-0.3,0.1-0.4,0.1
			C490.5,255.3,488.4,255.3,486.4,255.3L486.4,255.3z"/>
		<path class="st5" d="M466.5,254.7c-0.2,0-0.3,0-0.4,0c0-0.1,0-0.3,0-0.4c1.8-0.1,3.7-0.1,5.6,0c0,0.3,0,0.3-0.1,0.4
			C469.9,254.6,468.2,254.6,466.5,254.7L466.5,254.7z"/>
		<path class="st5" d="M473.2,254.7c-0.1,0-0.3,0-0.4,0c0-0.4,0-0.4,0.2-0.5c0.7,0,1.4,0,2.2,0c-0.1,0.1-0.2,0.3-0.2,0.4
			C474.4,254.6,473.8,254.6,473.2,254.7L473.2,254.7z"/>
		<path class="st5" d="M464.8,254.4c-0.3-2.6,0-5.4,0.1-7.9c-0.1,0-0.1,0-0.1,0c-0.1,2.5-0.2,6.7-0.3,7.3c-0.1,0-0.2,0-0.4,0
			c-0.8-2-0.5-4.7-0.3-6.7c0.2-0.6,0.2-2,0.8-2.4c0.3-0.8,0.3-0.8,0.8-1.6c0.1,0,0.2,0,0.3,0c1,3.7,0.4,7.6-0.3,11.3
			C465.1,254.4,465,254.4,464.8,254.4L464.8,254.4z"/>
		<path class="st5" d="M485.6,254.4c-0.1-0.1-0.1-0.1-0.1-0.4c1,0,1.9,0,2.9,0c0,0,0,0.1,0,0.2c0.2,0.1,0.2,0.1,0.2,0.2
			C487.6,254.4,486.6,254.4,485.6,254.4L485.6,254.4z"/>
		<path class="st5" d="M489.2,254.4c-0.1,0-0.2,0-0.4,0c0-0.1,0-0.3,0.1-0.4c1.8-0.1,3.9-0.4,5.8,0c0,0.1,0,0.2,0,0.3
			C492.5,254.4,492.5,254.4,489.2,254.4L489.2,254.4z"/>
		<path class="st5" d="M466.3,253.8c0-0.1,0-0.3,0-0.4c1.9,0,3.7,0,5.6,0c0,0.1-0.1,0.2-0.1,0.3
			C470.8,253.8,470.8,253.8,466.3,253.8L466.3,253.8z"/>
		<path class="st5" d="M473.9,253.7c0-0.1,0-0.2,0.1-0.3c0.4-0.1,0.4-0.1,1.8,0C475.5,253.9,474.4,253.7,473.9,253.7L473.9,253.7z"
			/>
		<path class="st5" d="M485.4,253.7c-0.2,0-0.4-0.1-0.5-0.1c0-0.1,0-0.3,0.1-0.4c0.1,0,0.2,0,0.4,0c0-0.1,0-0.1-0.1-0.2
			c-1-0.1-1-0.1-1.1-0.3c0.1-0.6,1.4-0.4,1.9-0.2c0,0.1,0,0.2,0,0.3c-0.2,0-0.3,0.1-0.5,0.1c0,0.1,0,0.1,0,0.2
			c0.5,0,1.1-0.1,1.6,0.2c0,0.1,0,0.1,0,0.2C486.6,253.6,486,253.6,485.4,253.7L485.4,253.7z"/>
		<path class="st5" d="M493.6,253.6c-1.6,0-3.1,0-4.7,0c0-0.1,0-0.2,0-0.4c4.3-0.1,4.3-0.1,6.1-0.1
			C494.9,253.8,494.1,253.6,493.6,253.6L493.6,253.6z"/>
		<path class="st5" d="M476.5,253.6c0-0.2,0.1-0.3,0.1-0.4c1.8-0.6,5.3-0.2,7.4-0.1c0.1,0.1,0.1,0.1,0,0.6
			C481.5,253.6,479,253.6,476.5,253.6L476.5,253.6z"/>
		<path class="st5" d="M496.1,253.3c-0.6-1.2-1.8-1.5-1.9-2.9c-0.3,0-0.2-0.2-0.4-0.3c0-0.2,0-0.4,0-0.5c0.5-0.1,0.5-0.1,1.1-0.1
			c1.4-1,1.9,0.5,1.9,1.8c-0.6,0.6-2.1-1.1-2.1-1.4c-0.1,0-0.2,0-0.2,0c0,0.1,0.1,0.2,0.1,0.4c0.3,0.1,0.4,0.5,0.8,0.9
			c0.8,0.4,1.1,0.6,1.4,1.6c-0.1,0.2-0.3,0.4-0.4,0.5C496.3,253.3,496.2,253.3,496.1,253.3L496.1,253.3z"/>
		<path class="st5" d="M466.5,253c-0.1,0-0.1,0-0.1,0c0-0.1,0-0.2,0.1-0.3c0.8-0.1,2.1-0.3,2.9,0.2C469.1,253.1,467,253,466.5,253
			L466.5,253z"/>
		<path class="st5" d="M470.3,252.9c0-0.1,0-0.2,0-0.3c0.4-0.2,1.4-0.1,1.9-0.1C472.2,253.3,470.7,252.9,470.3,252.9L470.3,252.9z"
			/>
		<path class="st5" d="M475.7,252.9c-0.2,0-0.4,0-0.7,0c0.1-0.6,0.9-0.4,1.4-0.4C476.4,253,476,252.9,475.7,252.9L475.7,252.9z"/>
		<path class="st5" d="M492.3,252.9c-0.4,0-0.8-0.1-1.2-0.1c0-0.3,0-0.3,0.2-0.4c0.8-0.1,2.4-0.3,3.2,0c0,0.1,0,0.2,0,0.3
			C493.7,252.8,493,252.8,492.3,252.9L492.3,252.9z"/>
		<path class="st5" d="M488.9,252.8c-0.1,0-0.2,0-0.2,0c0-0.2,0-0.3,0-0.5c0.6,0,1.1,0,1.7,0c0.1,0.1,0.1,0.1,0.1,0.4
			C489.9,252.7,489.4,252.8,488.9,252.8L488.9,252.8z"/>
		<path class="st5" d="M462,252.7c-0.1-1,0.5-1.9,0.8-2.8c0.1,0,0.2,0,0.4,0c0.1,0.5-0.6,2.3-0.9,2.8
			C462.1,252.7,462,252.7,462,252.7L462,252.7z"/>
		<path class="st5" d="M473.3,252.7c-0.1-1.1,0.5-2.4,0.9-3.4c0.3-1.8,1.4-3.4,1.3-5.1c-1.7-1.4-3.6-2.5-5.2-3.7c-0.2,0-0.3,0-0.4,0
			c-0.2-0.9-1.1-0.7-1.1-1.5c2.8-0.4,5.6,0.1,8.5-0.3c0-0.1,0.1-0.1,0.2-0.1c0.8-2.5,1.5-5.2,2.5-7.7c0.1,0,0.2,0,0.3-0.1
			c0.5,0.9,1.1,2.7,1.4,3.9c0.1,0,0.1,0,0.2,0.1c0.2,1.2,0.7,2.5,1.1,3.8c2.6,0.7,6.3-0.8,8.7,0.3c0,0.1,0,0.1,0,0.2
			c-1.9,1.7-4.3,3.4-6.4,4.9c-0.6,0.8,0.4,2.4,0.7,3.3c0.2,1.6,1.7,3.4,1.5,5c-0.1,0-0.3,0-0.4,0c-1.4-0.9-4.7-3.3-6.5-4.5
			c-0.7,0-2,1-2.4,1.5c-1.7,1.2-2.4,1.8-4.2,3C473.8,252.6,473.6,252.7,473.3,252.7L473.3,252.7z"/>
		<path class="st5" d="M477.3,252.7c-0.1,0-0.1,0-0.2,0c0-0.2,0.1-0.3,0.1-0.4c0.6-0.4,5.3-0.5,6.1-0.2
			C483.5,253.1,482.8,252.7,477.3,252.7L477.3,252.7z"/>
		<path class="st5" d="M461.3,252.5c-0.1-1.8,0.8-3.4,1.6-4.9c0.1,0,0.2,0,0.3,0c0,1-0.4,1.9-0.9,2.8
			C462.1,250.8,461.9,252.5,461.3,252.5L461.3,252.5z"/>
		<path class="st5" d="M467.6,252.1c-0.3,0-0.6,0-1,0c0-0.1,0-0.2,0.1-0.3c0.6-0.1,1.3-0.3,2,0c0,0.1,0,0.1,0,0.2
			C468.3,252.1,467.9,252.1,467.6,252.1L467.6,252.1z"/>
		<path class="st5" d="M471.1,252.1c-0.1,0-0.2,0-0.3,0c0-0.1,0-0.2,0.1-0.3c0.2-0.1,0.2-0.1,1.5,0c0,0.1,0,0.2,0,0.3
			C472.2,252,472.2,252,471.1,252.1L471.1,252.1z"/>
		<path class="st5" d="M476.1,252c0-0.1,0-0.2,0-0.2c0.2-0.1,0.2-0.1,0.8-0.2c0,0.1,0,0.2-0.1,0.3C476.5,252,476.3,252,476.1,252
			L476.1,252z"/>
		<path class="st5" d="M483.8,252c-0.1,0-0.2-0.1-0.3-0.1c0-0.1,0-0.2,0-0.3c0.4,0,0.9,0,1.3,0c0,0.1-0.1,0.2-0.1,0.3
			C484.4,252,484.4,252,483.8,252L483.8,252z"/>
		<path class="st5" d="M497.3,252c0-1.1,0.7-1.7,0.7-2.6c0.1,0,0.2,0,0.3,0.1c0,0.2,0,0.4,0.1,0.7c0.1,0,0.2,0.1,0.3,0.2
			C498.4,251.1,498.1,251.5,497.3,252L497.3,252z"/>
		<path class="st5" d="M488.8,251.9c-0.1,0-0.2,0-0.4,0c0-0.1,0-0.2,0-0.3c0.5,0,1,0,1.5,0.1C489.8,252,489.1,251.9,488.8,251.9
			L488.8,251.9z"/>
		<path class="st5" d="M492.1,251.9c-0.1,0-0.2,0-0.2,0c0.2-0.6,1.4-0.4,2-0.4c0,0.1,0,0.2,0.1,0.3
			C493.3,251.8,492.7,251.8,492.1,251.9L492.1,251.9z"/>
		<path class="st5" d="M469.4,251.8c-0.1-0.1-0.3-0.1-0.4-0.2c0-0.2-0.1-0.3-0.1-0.5c0.5,0,1,0,1.4,0
			C470.3,251.8,470,251.8,469.4,251.8L469.4,251.8z"/>
		<path class="st5" d="M478.3,251.8c-0.1,0-0.2-0.1-0.3-0.1c0-0.3,0-0.3,0.1-0.4c1.1-0.2,3.6-0.5,4.6,0.1c0,0.1,0,0.2,0,0.3
			C482.5,251.7,482.5,251.7,478.3,251.8L478.3,251.8z"/>
		<path class="st5" d="M490.7,251.7c-0.4-0.3-0.4-0.3-0.4-0.6c0.4,0,0.9,0,1.3,0c0,0.1,0,0.2,0,0.3
			C491.2,251.6,491,251.7,490.7,251.7L490.7,251.7z"/>
		<path class="st5" d="M467.3,251.4c-0.1,0-0.2,0-0.4,0c0-0.1,0-0.2,0.1-0.3c0.3,0,0.7,0,1,0c0,0.1,0,0.2,0,0.3
			C467.8,251.4,467.8,251.4,467.3,251.4L467.3,251.4z"/>
		<path class="st5" d="M471.3,251.3c0-0.1,0-0.2,0-0.3c0.2,0,1.5-0.3,1.5,0.2C472.6,251.4,471.6,251.3,471.3,251.3L471.3,251.3z"/>
		<path class="st5" d="M483.2,251.2c-0.1,0-0.2-0.1-0.3-0.1c0-0.1,0-0.2,0-0.3c0.2,0,0.9-0.2,0.9,0.3
			C483.7,251.3,483.4,251.2,483.2,251.2L483.2,251.2z"/>
		<path class="st5" d="M492.5,251.2c-0.1,0-0.1,0-0.1,0c0.1-0.7,0.7-0.7,1.2-0.4c0,0.1-0.1,0.2-0.1,0.3
			C493.2,251.1,492.9,251.2,492.5,251.2L492.5,251.2z"/>
		<path class="st5" d="M488.2,251.1c-0.1,0-0.1,0-0.1,0c0-0.1,0-0.2,0-0.4c0.4-0.1,0.8-0.3,1.2,0c0,0.1,0,0.2,0,0.3
			C488.9,251.1,488.5,251.1,488.2,251.1L488.2,251.1z"/>
		<path class="st5" d="M468.7,251c-0.1-0.1-0.3-0.2-0.4-0.3c0-0.1,0-0.3,0-0.4c0.8,0,1.6-0.1,2.5-0.1c0.1,0.1,0.1,0.1,0.1,0.5
			C470.5,251.2,469.2,251,468.7,251L468.7,251z"/>
		<path class="st5" d="M479,250.9c-0.1,0-0.2,0-0.3,0c0-0.2,0-0.3,0-0.5c0.5-0.3,2.7-0.3,3.2,0c0,0.2,0,0.3,0,0.5
			C480.9,250.9,479.9,250.9,479,250.9L479,250.9z"/>
		<path class="st5" d="M489.9,250.8c-0.1-0.1-0.2-0.1-0.2-0.1c0-0.2,0-0.3,0-0.5c0.8,0,1.6,0,2.4,0c0,0.2,0,0.3,0,0.5
			C491.3,250.8,490.6,250.8,489.9,250.8L489.9,250.8z"/>
		<path class="st5" d="M472,250.5c-0.1,0-0.2-0.1-0.3-0.1c0-0.1,0-0.2,0-0.2c0.4,0,0.9-0.1,1.3-0.1c0,0.1-0.1,0.2-0.1,0.3
			C472.5,250.5,472.5,250.5,472,250.5L472,250.5z"/>
		<path class="st5" d="M497.1,250.4c-0.3-1.2-0.8-2.4-0.8-3.6c0.3-0.9,0.6-1.6,0.7-2.5c0.1,0,0.1,0,0.2,0c0,1.2-0.2,2.5-0.2,3.9
			c0.1,0.1,0.2,0.2,0.3,0.3c0.3,0,0.4-0.1,0.9-0.1C498.2,249,497.7,250.3,497.1,250.4L497.1,250.4z"/>
		<path class="st5" d="M487.7,250.3c0-0.1,0-0.3,0-0.4c0.3,0,0.7,0,1.1,0C488.6,250.4,488.1,250.3,487.7,250.3L487.7,250.3z"/>
		<path class="st5" d="M468,250.1c-1.3-1.2,2.7-0.7,3.4-0.6c0,0.1,0,0.2,0,0.4C471.1,250.2,468.5,250.1,468,250.1L468,250.1z"/>
		<path class="st5" d="M479.6,249.9c-0.1,0-0.2,0-0.2,0c0-0.1,0-0.3,0.1-0.4c0.5-0.1,1-0.3,1.6,0c0,0.1,0,0.2,0,0.4
			C480.8,249.9,480.8,249.9,479.6,249.9L479.6,249.9z"/>
		<path class="st5" d="M489.2,249.9c-0.1,0-0.1,0-0.1,0c0-0.2,0-0.4,0-0.5c1-0.3,2.4-0.2,3.6,0c0,0.1,0,0.2,0,0.3
			C491.7,250.1,490.2,249.9,489.2,249.9L489.2,249.9z"/>
		<path class="st5" d="M472.3,249.6c0-0.1,0-0.1,0-0.2c0.3-0.2,0.4-0.2,0.9-0.2c0,0.1-0.1,0.3-0.1,0.4
			C472.9,249.6,472.6,249.6,472.3,249.6L472.3,249.6z"/>
		<path class="st5" d="M487.6,249.5c0-0.1,0-0.2,0-0.3c0.3,0,0.5-0.1,0.8,0.1c0,0.1-0.1,0.1-0.1,0.2
			C488,249.5,487.8,249.5,487.6,249.5L487.6,249.5z"/>
		<path class="st5" d="M468,249.2c-0.2,0-0.3-0.1-0.5-0.1c0.1-0.8,0.1-0.5,0.8-0.7c1,0,2.8-0.2,3.8,0.1c0,0.3-0.2,0.5-0.4,0.7
			C470.4,249.2,469.2,249.2,468,249.2L468,249.2z"/>
		<path class="st5" d="M488.6,249c-0.3-0.3-0.2-0.4-0.2-0.6c1.6,0,3.1,0,4.7,0c-0.1,0.4-0.1,0.4-0.2,0.6
			C492.4,249,492.4,249,488.6,249L488.6,249z"/>
		<path class="st5" d="M472.8,248.8c0-0.1,0-0.3,0-0.4c0.2,0,0.4,0,0.6,0c0,0.1,0,0.2,0,0.3C473.2,248.8,473.2,248.8,472.8,248.8
			L472.8,248.8z"/>
		<path class="st5" d="M466.7,248.7c-0.1,0-0.1,0-0.2,0c0-0.5,0.1-0.7,0.2-1.2c0.1,0,0.2,0,0.3,0c-0.1,0.4-0.2,0.8-0.2,1.2
			C466.8,248.7,466.7,248.7,466.7,248.7L466.7,248.7z"/>
		<path class="st5" d="M494.9,248.7c0-0.1,0-0.3,0-0.4c0.3-0.1,0.3-0.1,0.7-0.1c0,0.1-0.1,0.3-0.1,0.4
			C495.3,248.7,495.1,248.7,494.9,248.7L494.9,248.7z"/>
		<path class="st5" d="M460,248.7c-0.2-0.2-0.4-0.3-0.7-0.4c0-0.1,0-0.2,0-0.3c0.1-0.2,0.3-0.3,0.4-0.5c0.1,0,0.2,0,0.3,0
			c0.1,0.4,0.3,0.7,0.3,1.2C460.2,248.7,460.1,248.7,460,248.7L460,248.7z"/>
		<path class="st5" d="M460.9,248.2c-0.4-0.9-0.5-1.8-0.5-2.7c0.3-0.3,1.1-0.1,1.6-0.1c0.4,0.3,0.4,1.4,0.4,2.1
			C462,247.9,461.3,248.2,460.9,248.2L460.9,248.2z"/>
		<path class="st5" d="M467.6,248.3c0-0.2,0-0.4,0-0.5c1.5-0.5,3.3-0.3,5.1-0.2c0.2,0.2,0.1,0.3,0,0.6
			C470.9,248.2,469.2,248.2,467.6,248.3L467.6,248.3z"/>
		<path class="st5" d="M488,248.1c-0.1-0.1-0.2-0.2-0.3-0.3c0.1-0.6,1.5-0.4,2.1-0.4c0-0.1,0-0.1,0-0.1c-1.9,0-1.9,0-2.5-0.1
			c-0.1-0.1-0.1-0.1-0.2-0.6c0.2-0.1,0.3-0.1,0.4-0.3c-0.4,0.1-0.4,0.1-0.8,0.1c-0.1-0.3-0.1-0.3-0.1-0.5c0.4-0.4,6.3-0.3,6.8-0.3
			c0.2,0.1,0.2,0.2,0.3,0.6c-0.3,0.3-5.3,0.2-5.9,0.2c0,0,0,0.1,0,0.1c0.9,0,5.4-0.2,5.9,0.1c0,0.1,0,0.2,0,0.4
			c-0.6,0.4-3,0.3-3.7,0.3c0,0,0,0.1,0,0.1c1.9,0,1.9,0,3.3,0c0.1,0.1,0.1,0.1,0.1,0.4C493,248.3,488.8,248.1,488,248.1L488,248.1z"
			/>
		<path class="st5" d="M504.4,248.1c-0.5-0.4-0.2-1.4-0.2-1.9c0.1,0,0.2,0,0.3,0c0-0.1,0-0.1,0-0.1c-0.5,0-0.6-0.1-0.9-0.3
			c-0.1-1,0.6-1.4,0.8-2.3c-0.1,0-0.1,0-0.1,0c-0.1,0.1-0.2,0.3-0.3,0.4c-0.1,0-0.3,0-0.4,0.1c-0.1,0.7,0,1.3-0.8,1.3
			c-0.1-2,0.4-2.3,2.3-2.5c0.7,0.5,0,1.4,0.1,2.2c0.2,0,0.4,0.1,0.6,0.1c0,0.9-0.6,1.1-0.9,1.9c0.2,0,0.3,0,0.5,0.1
			C505.8,247.9,505,248.1,504.4,248.1L504.4,248.1z"/>
		<path class="st5" d="M494.9,247.7c-0.1-1-0.3-1.3-0.3-1.9c0.4-0.3,0.4-0.4,1-0.4C496,246.1,495.7,247.2,494.9,247.7L494.9,247.7z"
			/>
		<path class="st5" d="M498.7,247.5c-0.3-0.1-0.6-0.3-0.9-0.4c0-0.9,0.1-1.6,0.4-2.4c-0.1-0.1-0.3-0.2-0.4-0.2
			c0-0.2,0.2-0.4,0.2-0.6c-0.6-0.1-0.5-0.4-0.5-0.8c0.7,0,1.5-0.2,2.2,0.1c0,0.5,0,0.5-0.1,0.7c-0.2,0-0.5,0-0.7-0.1
			c0,0,0,0.1,0,0.1c0.2,0,0.4,0.1,0.6,0.1c0,0.1,0,0.2,0,0.3c-0.3,0-0.5,0.1-0.8,0.2c0,0,0,0.1,0,0.1c0.3,0,0.5-0.1,0.9,0.1
			c0,0.4-0.3,0.7-0.5,1.1C499.3,246.4,499.4,247.4,498.7,247.5L498.7,247.5z"/>
		<path class="st5" d="M501,247.4c-0.3-0.6,0-2.5,0.3-2.9c0.1,0,0.2,0,0.4,0c0,1.1,0,1.9-0.5,3C501.1,247.4,501,247.4,501,247.4
			L501,247.4z"/>
		<path class="st5" d="M468,247.3c-0.1,0-0.2,0-0.3,0c0-0.4,0-0.4,0.1-0.6c1.1-0.1,4.8-0.4,5.4,0c0,0.1,0,0.3,0,0.4
			C472.4,247.6,468.1,247.3,468,247.3L468,247.3z"/>
		<path class="st5" d="M499.9,247.4c-0.2-0.4-0.2-1,0-1.3c0.1,0,0.3,0,0.4,0c0,0.4,0.1,0.9-0.1,1.3
			C500.1,247.3,500,247.3,499.9,247.4L499.9,247.4z"/>
		<path class="st5" d="M466.5,247c0-0.1,0-0.3,0-0.4c0.2-0.2,0.2-0.1,0.6-0.2c0,0.1,0,0.3,0,0.4C466.9,246.9,466.9,246.9,466.5,247
			L466.5,247z"/>
		<path class="st5" d="M468.2,246.4c-0.1-0.1-0.2-0.1-0.3-0.1c0-0.3,0-0.3,0.1-0.5c1.7,0,3.5-0.1,5.2-0.1c0-0.1,0-0.1,0-0.2
			c-2,0-4.2,0.2-6.1-0.1c0-0.2-0.1-0.4-0.1-0.6c2.4,0,4.9-0.1,7.3-0.1c0.1,0.7-0.3,0.7-0.9,0.8c0,0,0,0.1,0,0.2c0.1,0,0.3,0,0.4,0.1
			c0,0.5-0.1,0.5-0.6,0.6C471.6,246.4,469.9,246.4,468.2,246.4L468.2,246.4z"/>
		<path class="st5" d="M462.7,245.7c0-0.1,0-0.3,0-0.4c0.3-0.2,0.2-0.2,0.6-0.2c0.2,0.2,0.2,0.2,0.2,0.3
			C463.1,245.7,462.9,245.7,462.7,245.7L462.7,245.7z"/>
		<path class="st5" d="M496.2,245.5c-0.2-0.7-0.4-1.3-0.5-1.9c-0.1,0-0.2,0.1-0.2,0.1c0-0.2,0-0.4,0-0.6c0.2,0,0.3,0,0.5,0
			c0,0.1,0,0.2,0.1,0.4c0.4,0,0.4,0,0.8,0c0.1,0.4,0.2,0.6-0.1,1C496.6,244.9,496.8,245.4,496.2,245.5L496.2,245.5z"/>
		<path class="st5" d="M487.2,245.4c-1-0.1-1-0.1-1.2-0.2c0-0.2,0-0.3,0-0.5c1.1,0,2.2-0.1,3.3-0.1c0-0.1,0-0.1,0-0.2c-1,0-2,0-3,0
			c0-0.1,0-0.2,0-0.3c1.2-0.8,3.2-0.5,4.6-0.5c0-0.1,0-0.1,0-0.1c-0.9,0-1.7-0.1-2.5-0.1c0-0.1,0-0.1,0-0.2c0.8-0.5,5.4-0.8,5.9-0.3
			c0,0.3,0,0.3-0.1,0.4c-0.9,0-1.9,0.1-2.8,0.1c0,0.1,0,0.1,0.1,0.2c1.9,0.1,1.9,0.1,2.4,0.2c0,0.1-0.1,0.3-0.1,0.4
			c-0.5,0.3-2.4,0.1-2.9,0.1c0,0,0,0.1,0,0.2c0.9,0,1.8,0,2.8,0.1c0,0.2,0,0.3,0,0.5C492,245.7,488.8,245.4,487.2,245.4L487.2,245.4
			z"/>
		<path class="st5" d="M461.7,244.9c-0.1-0.1-0.1-0.1-0.9-0.2c0-0.1,0-0.2,0-0.3c1,0,1.9,0,2.9,0.1c0,0.1,0,0.1-0.1,0.2
			C463.3,244.9,463.3,244.9,461.7,244.9L461.7,244.9z"/>
		<path class="st5" d="M494.6,245c0-0.2-0.1-0.4-0.1-0.5c0.4-0.3,0.4-0.3,0.5-0.4c0.2,0,0.3,0,0.5,0.1c0,0.2,0,0.4,0,0.6
			C494.9,244.9,494.9,244.9,494.6,245L494.6,245z"/>
		<path class="st5" d="M468.9,244.6c-1.4-0.1-1.4-0.1-1.7-0.2c0-0.2,0-0.4,0-0.7c0.7,0.4,1.8-0.2,2.7,0.2c0-0.1,0-0.1,0-0.1
			c-1-0.5-2.9,0.5-3.1-0.9c1.1,0,4-0.5,4.9,0.5c-0.4,0.4-1.2,0.3-1.7,0.3c0,0,0,0.1,0,0.2c1.3,0,2.7-0.2,3.9,0.5
			C473.6,244.7,469.9,244.6,468.9,244.6L468.9,244.6z"/>
		<path class="st5" d="M460.9,244.1c-0.1-0.1-0.1-0.1-0.1-0.5c1.1,0,2.2,0,3.4,0c-0.1,0.3-0.1,0.3-0.2,0.4
			C462.8,244,461.8,244.1,460.9,244.1L460.9,244.1z"/>
		<path class="st5" d="M458.9,243.7c0-2,0.1-3.3,0.6-5.2c0-0.8,0.4-1.1,0.5-1.7c0.1,0,0.2,0,0.3,0.1c0,0.7-0.1,0.8-0.2,1.2
			c0.1,0.1,0.2,0.1,0.3,0.2c0,0.4-0.3,0.5-0.6,0.7c-0.3,1.6-0.3,1.6-0.4,2c0,0.8-0.1,2-0.3,2.7C459.1,243.6,459,243.6,458.9,243.7
			L458.9,243.7z"/>
		<path class="st5" d="M501.9,243.6c-0.1-0.2-0.1-0.4-0.2-0.5c-0.2,0-0.4-0.1-0.5-0.1c0-0.4,0-0.4,0.1-1.2c0.3-0.1,0.6-0.2,0.7-0.4
			c0.2,0,0.3,0,0.5,0c0,0.3-0.2,0.5-0.5,0.6c0,0.6,0.3,0.8,0.3,1.5C502.2,243.6,502.2,243.6,501.9,243.6L501.9,243.6z"/>
		<path class="st5" d="M461.3,243.2c-0.2,0-0.3,0-0.4,0c0-0.1,0-0.2,0.1-0.3c1.1-0.3,2.4-0.2,3.6-0.2c0,0.1-0.1,0.3-0.1,0.4
			C463.6,243.2,463.6,243.2,461.3,243.2L461.3,243.2z"/>
		<path class="st5" d="M488.2,243.1c-0.3-0.2-0.3-0.2-0.3-0.4c0.3-0.2,0.2-0.2,0.6-0.1c0,0.1,0,0.2,0,0.3
			C488.4,242.9,488.3,243,488.2,243.1L488.2,243.1z"/>
		<path class="st5" d="M471.8,243c-0.1,0-0.2,0-0.2,0c0-0.1,0-0.2,0-0.2c0.2,0,0.5,0,0.7,0c0,0.1,0,0.2-0.1,0.3
			C472.1,243,471.9,243,471.8,243L471.8,243z"/>
		<path class="st5" d="M497.7,242.9c-0.1,0-0.1-0.1-0.2-0.1c0-0.1,0-0.2,0-0.3c0.8,0,1.6,0,2.4,0
			C499.4,243.2,498.5,242.9,497.7,242.9L497.7,242.9z"/>
		<path class="st5" d="M466.4,242.7c-0.1,0-0.2-0.1-0.3-0.1c0-0.2,0-0.3,0-0.5c0.1,0,0.2-0.1,0.3-0.1c0-0.1,0-0.1,0-0.1
			c-0.1,0-0.3-0.1-0.4-0.1c-0.1-0.1-0.1-0.1,0-0.4c0.4,0,0.7-0.1,1,0.3c-0.1,0.1-0.2,0.1-0.3,0.2c0,0,0,0.1,0,0.1
			c1,0,1.6-0.1,2.6,0.4C469.3,243,466.8,242.7,466.4,242.7L466.4,242.7z"/>
		<path class="st5" d="M491.1,242.6c-0.2,0-0.3,0-0.5,0c0-0.1,0-0.2,0-0.3c1.2-0.5,2.2-0.4,3.6-0.4c0.1,0.2,0.2,0.2,0.2,0.6
			C494,242.8,491.6,242.6,491.1,242.6L491.1,242.6z"/>
		<path class="st5" d="M464.6,242.5c-0.2-0.1-0.2-0.1-2.2-0.1c0-0.1,0-0.3,0.1-0.4c1-0.1,2-0.1,3.1-0.1
			C465.3,242.4,465.1,242.5,464.6,242.5L464.6,242.5z"/>
		<path class="st5" d="M500.5,242.5c-1-0.6-1.3-1.6-1.3-2.6c-0.1,0-0.3-0.1-0.4-0.1c-0.7-1.5-0.2-1.7,0-2.9c-0.1,0-0.1,0-0.1,0
			c-0.1,0.3-0.4,1-0.8,0.6c-0.6-2,0.1-2.8,0.9-4.3c-0.8,0.3-1,2.2-1.6,2.5c-0.7-1.7-1.1-2.4-0.1-3.9c0-0.5-0.1-0.9,0.1-1.3
			c0.1,0,0.3,0,0.4,0c0.7,1.1,0.4,1.6-0.4,2.6c0,0.4,0,0.4,0.1,0.6c0.9-0.2,0.9-1.2,2.2-1.3c-0.3,0.9,0,1.9-0.5,2.8
			c-0.2,0.3-0.5,0.4-0.6,0.8c0.2,0,0.3,0,0.5,0c0.6,0.8-0.6,1.8-0.1,2.6c0.6,0.1,0.6,0.1,0.8,0.2c0,0.6-0.1,1.4,0.1,2
			c0.4-0.1,0.4-0.1,0.9,0c0,0.9,0,0.9-0.1,1.5C500.6,242.5,500.5,242.5,500.5,242.5L500.5,242.5z"/>
		<path class="st5" d="M469.8,242.3c-0.1,0-0.1-0.1-0.2-0.1c0-0.1,0-0.2,0-0.3c0.5,0,1.1,0,1.6,0
			C471.3,242.6,470.2,242.3,469.8,242.3L469.8,242.3z"/>
		<path class="st5" d="M461.3,242.2c-0.3-0.3,0.1-0.9,0.2-1.2c0.1,0,0.2-0.1,0.4-0.1C462.1,241.7,462.2,242,461.3,242.2L461.3,242.2
			z"/>
		<path class="st5" d="M489.1,242.2c0.1-0.8,0.6-0.5,1.3-0.5C490.2,242.2,489.6,242.1,489.1,242.2L489.1,242.2z"/>
		<path class="st5" d="M494.9,242.1c0-0.1,0-0.3,0-0.4c1,0,2.1,0,3.1,0c0.1,0.2,0.1,0.2,0.1,0.3
			C497.8,242.1,497.8,242.1,494.9,242.1L494.9,242.1z"/>
		<path class="st5" d="M460.1,241.7c0.1-0.6,0.1-0.6,1-3.4c0.6-1.4,3.6-8.5,5.7-8.2c-0.3,2.7-1.5,4.7-3.1,7.1
			c-0.1,0-0.2,0.1-0.3,0.1c0-0.2,0-0.4,0-0.5c1.2-2.3,1.2-2.3,2.2-4.5c-0.1,0-0.2,0-0.2,0c-1.6,3.2-3.3,6.2-5.1,9.3
			C460.3,241.6,460.2,241.6,460.1,241.7L460.1,241.7z"/>
		<path class="st5" d="M492.7,241.7c0.1-0.8,2-1,1.5,0C493.7,241.6,493.2,241.6,492.7,241.7L492.7,241.7z"/>
		<path class="st5" d="M463.5,241.5c-0.3,0-0.6-0.1-0.9-0.1c0-0.1,0-0.2,0-0.2c1-0.1,1.9-0.1,3,0c0,0.1,0,0.1,0,0.2
			C465.2,241.7,463.8,241.5,463.5,241.5L463.5,241.5z"/>
		<path class="st5" d="M468.6,241.5c-0.4-0.1-0.8-0.1-1.1-0.1c0-0.1,0-0.2-0.1-0.3c0.7,0,2-0.3,2.7,0.1
			C470,241.7,469,241.5,468.6,241.5L468.6,241.5z"/>
		<path class="st5" d="M490.4,241.3c-0.1,0-0.2-0.1-0.3-0.1c0-0.1,0-0.2,0-0.3c0.6,0,1.4-0.2,2.1,0c0,0.1,0,0.1,0,0.2
			C491.5,241.3,491.5,241.3,490.4,241.3L490.4,241.3z"/>
		<path class="st5" d="M495.2,241.3c-0.1,0-0.2,0-0.3,0c0-0.1,0-0.2,0-0.3c0.9,0,1.9,0,2.8,0c0,0.1,0,0.2,0,0.3
			C496.9,241.4,495.9,241.3,495.2,241.3L495.2,241.3z"/>
		<path class="st5" d="M457.8,241c-0.4-0.8,0-3.7,0-4.6c0.6-2.7,1.2-4.8,1.2-5.2c-0.1,0-0.1,0-0.1,0c-1,3.2-1.4,6.1-1.8,9.5
			c-0.1,0-0.1,0.1-0.2,0.2c-0.4-2.5-0.4-4.2-0.1-6.6c0.3-1.1,0.6-2.1,0.9-3.2c0.4-0.8,2.2-4.3,3.1-4.1c0.3,4.5-2.3,9.3-2.8,13.8
			C458,240.9,457.9,240.9,457.8,241L457.8,241z"/>
		<path class="st5" d="M463.7,240.8c-0.4,0-0.8,0-1.1,0c0-0.1,0-0.3,0.1-0.4c2.1-0.1,4.1-0.1,6.2,0c0.1,0.1,0.1,0.1,0.1,0.4
			C467.2,240.8,465.4,240.8,463.7,240.8L463.7,240.8z"/>
		<path class="st5" d="M493.7,240.7c-0.2-0.1-0.2-0.1-2.4-0.1c0-0.2,0-0.3,0.1-0.5c1.7,0,4.7-0.4,6.3,0c0,0.1,0,0.2,0,0.3
			c-1,0.2-2,0.1-3,0.1C494,240.1,494,240.7,493.7,240.7L493.7,240.7z"/>
		<path class="st5" d="M462.9,239.9c-0.1,0-0.1,0-0.2,0c0.1-0.7,0.6-0.4,5.1-0.4c0,0.1-0.1,0.2-0.1,0.3
			C467.1,239.9,467.1,239.9,462.9,239.9L462.9,239.9z"/>
		<path class="st5" d="M503.2,239.9c-0.3-0.6,0.1-1.4,0.2-1.9c-0.1,0-0.1,0-0.1,0c0,0.1-0.1,0.1-0.1,0.2c-0.1,0-0.2,0-0.3,0
			c-0.6-1,0.1-2,0.6-2.7c-0.4,0.3-0.6,0.7-1.1,0.7c-0.4-1.6-0.4-1.6-0.5-2.3c0.4-1.2,0.4-1.2,0.5-1.5c-0.1,0-0.1,0-0.1,0
			c-0.2,0.4-0.3,0.6-0.7,0.8c-0.3-0.9-0.8-1.7-0.8-2.5c0.1,0,0.2,0,0.4,0c0,0.1,0,0.1,0.1,0.2c0.1,0,0.2,0.1,0.4,0.1
			c-0.8-1.1-0.7-0.9-0.4-2.2c0.7,0.2,0.6,1,0.7,1.8c0.2,0,0.5,0,0.7,0c0.1,0.3,0.1,0.3,0.3,1.2c0.7,1.1,0,2.2,0,3.5
			c0.4-0.1,0.5-0.4,0.7-0.8c0.1,0,0.2,0,0.4,0.1c0.2,0.5,0.3,0.7,0.3,1.4c-0.4,0.8-1.5,1.5,0,1.6
			C504.2,237.9,503.5,239.8,503.2,239.9L503.2,239.9z"/>
		<path class="st5" d="M494,239.7c-0.5,0-1,0-1.5,0c0-0.1,0-0.2,0-0.4c1.4-0.1,1.4-0.1,1.8-0.2c0,0,0,0.1,0,0.1c1,0,2.1,0,3.1,0.1
			c0,0.1-0.1,0.2-0.1,0.3C496.1,239.8,495,239.7,494,239.7L494,239.7z"/>
		<path class="st5" d="M502.3,239.6c-0.5-0.6-1.5-0.7-0.8-1.5c0-0.2,0-0.3,0-0.5c-0.6-0.6-2.4-1.1-1.6-2.2c0.2,0,0.4,0,0.6,0
			c0-0.2-0.1-0.4-0.1-0.5c-0.1,0-0.1,0-0.1,0c-0.2-0.4-1.2-0.8-0.5-1.4c0.6,0.4,1.1,0.8,1.8,1.3c0,0,0,0.1,0,0.1
			c0.3,0.1,0.7,1.2,0.7,1.7c-0.2,0.1-0.2,0.1-0.3,0.2c-0.4-0.3-0.8-0.7-1.2-0.7c0,0,0,0.1,0,0.1c0.1,0,0.3,0.1,0.4,0.2
			c0,0,0,0.1,0,0.1c0.6,0.3,1,1.3,1.5,1.4C502.6,238.3,503,239.5,502.3,239.6L502.3,239.6z"/>
		<path class="st5" d="M463.6,239.2c-0.1-0.1-0.1-0.1-0.3-0.1c0-0.1,0-0.2,0.1-0.3c0.3-0.2,0.3-0.2,0.7-0.2c0-0.1,0-0.2,0-0.2
			c-0.1,0-0.1,0-0.2,0c0-0.2,0-0.3,0-0.4c0.5-0.1,1.6-0.1,2.1-0.2c0.3,0.1,1.6,0,8.2,0.1c-0.2,0.3-1.9,0.1-2.2,0.1
			c-0.1,0-0.1,0.1-0.2,0.2c-2.5,0-4.9,0.1-7.3,0.1c-0.1,0-0.2,0.1-0.3,0.1c0,0.1,0.1,0.1,0.1,0.2c0.8,0,1.5,0.1,2.3,0.2
			c0,0.1-0.1,0.2-0.1,0.3C465.8,239.2,464.4,239.2,463.6,239.2L463.6,239.2z"/>
		<path class="st5" d="M493.7,238.9c-0.1,0-0.2,0-0.2,0c0-0.1,0-0.2,0-0.4c0.8-0.3,2.4-0.1,3.4-0.1c0,0.1,0,0.2,0,0.4
			C496.3,239,494.2,238.9,493.7,238.9L493.7,238.9z"/>
		<path class="st5" d="M495.2,238c-0.5,0-1-0.1-1.5-0.1c0-0.1,0-0.2,0-0.2c0.5-0.3,1.9-0.1,2.6-0.1c0,0,0,0.1,0,0.1c0,0,0.1,0,0.2,0
			c0,0.1-0.1,0.1-0.1,0.2C495.9,237.9,495.5,238,495.2,238L495.2,238z"/>
		<path class="st5" d="M485.8,238c-0.1,0-0.1,0-0.1,0c0-0.1,0-0.2,0-0.2c0.5,0,0.5,0,0.7,0.1C486,238,486,238,485.8,238L485.8,238z"
			/>
		<path class="st5" d="M476.1,237.9c-0.3-0.2-0.3-0.2-0.4-0.3c0.3,0,0.6,0,1,0c-0.1,0.1-0.2,0.2-0.2,0.3
			C476.3,237.9,476.2,237.9,476.1,237.9L476.1,237.9z"/>
		<path class="st5" d="M489.2,237.9c0-0.1,0-0.2,0-0.2c0.1,0,0.3,0,0.4,0c0-0.1,0-0.1,0-0.1c0.1,0,0.1,0,0.2,0c0,0.1,0,0.1,0.1,0.2
			c0.2,0,0.4,0,0.6,0c0,0.1,0,0.1,0,0.2C490.1,237.9,489.7,237.9,489.2,237.9L489.2,237.9z"/>
		<path class="st5" d="M464.6,237.6c0-0.4,0-0.4,0.2-0.5c1.9-0.2,4.8-0.5,6.6,0.1c0,0.3,0,0.3-0.1,0.4
			C469,237.5,466.8,237.5,464.6,237.6L464.6,237.6z"/>
		<path class="st5" d="M475.4,237.3c-1.3,0-2.3-0.1-3.4-0.4c0-0.1,0-0.2,0-0.2c0.9-0.1,4-0.4,4.7,0c0,0.1,0,0.3,0,0.5
			C476.3,237.4,475.8,237.3,475.4,237.3L475.4,237.3z"/>
		<path class="st5" d="M488.4,237.3c-0.1,0-0.2,0-0.2,0c0-0.1,0-0.2,0-0.2c0.8-0.4,1.7-0.2,2.6-0.3c1,0,4-0.2,4.9,0.2
			c0,0.1,0,0.2,0,0.3C493.2,237.4,490.8,237.3,488.4,237.3L488.4,237.3z"/>
		<path class="st5" d="M483.8,237.2c-0.1-0.1-0.2-0.1-0.3-0.1c0-0.1,0-0.3,0-0.4c0.3-0.3,3.2-0.2,3.9-0.2
			C487.3,237.4,484.5,237.2,483.8,237.2L483.8,237.2z"/>
		<path class="st5" d="M460.3,236.7c-0.1,0-0.1-0.1-0.2-0.1c0.1-0.7,0.3-1,0.5-1.5c0.1,0,0.2,0,0.3,0.1
			C460.9,235.5,460.7,236.6,460.3,236.7L460.3,236.7z"/>
		<path class="st5" d="M466.9,236.7c-0.6,0-1.3,0-1.9,0c0-0.1,0.1-0.2,0.1-0.4c0.9-0.2,1.9-0.2,3,0c0,0.1,0,0.2,0,0.3
			C467.7,236.6,467.3,236.6,466.9,236.7L466.9,236.7z"/>
		<path class="st5" d="M496.6,236.6c0-0.1,0-0.2-0.1-0.3c-1-0.5-2.6-1-2.5-2.1c0.1,0,0.2,0,0.3,0c0.4,0.6,1.2,0.8,1.9,1.2
			c0.4,0.5,0.4,0.5,0.6,0.6c0,0.2,0,0.4-0.1,0.6C496.7,236.6,496.7,236.6,496.6,236.6L496.6,236.6z"/>
		<path class="st5" d="M470.7,236.4c-0.9-0.1-1.7-0.2-2.5-0.4c0-0.1,0-0.2,0-0.2c8.2-0.1,8.2-0.1,8.5-0.1c0,0.2,0,0.4,0,0.5
			C471.5,236.3,471.2,236.4,470.7,236.4L470.7,236.4z"/>
		<path class="st5" d="M492.6,236.4c-0.5,0-1-0.1-1.4-0.1c0-0.1,0-0.2,0-0.2c1-0.1,2.4-0.3,3.4,0
			C494.1,236.5,493.1,236.4,492.6,236.4L492.6,236.4z"/>
		<path class="st5" d="M483.6,236.2c-0.1,0-0.1-0.1-0.2-0.1c0-0.1,0-0.3,0-0.4c0-0.1,0.1-0.1,0.2-0.1c7,0,7,0,7.4,0
			c-0.8,0.6-1.5,0.5-2.4,0.6C486.9,236.2,485.3,236.2,483.6,236.2L483.6,236.2z"/>
		<path class="st5" d="M465.9,235.9c-0.1,0-0.2,0-0.2,0c0.1-0.7,1-0.4,1.7-0.4c0,0.1,0,0.2,0,0.4
			C466.9,235.8,466.4,235.8,465.9,235.9L465.9,235.9z"/>
		<path class="st5" d="M468.3,235.6c-0.1-0.1-0.1-0.1-0.3-0.2c0.1-0.2,0.1-0.4,0.2-0.6c0.4-0.1,0.4-0.1,8.2-0.1
			c0.1,0,0.2,0.1,0.4,0.1c0,0.2,0,0.3,0,0.5c-0.1,0-0.1,0.1-0.2,0.1C473.9,235.5,471.1,235.6,468.3,235.6L468.3,235.6z"/>
		<path class="st5" d="M493,235.6c0-0.1-0.1-0.3-0.1-0.4c0.2,0,0.4,0,0.6,0.1c0,0.1,0,0.2,0.1,0.3
			C493.4,235.5,493.2,235.5,493,235.6L493,235.6z"/>
		<path class="st5" d="M483.5,235.3c-0.1,0-0.1,0-0.2,0c0-0.2,0-0.4,0-0.5c0.3-0.3,8.1-0.1,8.5-0.1c0.1,0,0.1,0.1,0.2,0.1
			c0,0.4,0,0.4-0.1,0.5C491,235.3,491,235.3,483.5,235.3L483.5,235.3z"/>
		<path class="st5" d="M461,235c-0.1,0-0.2-0.1-0.3-0.1c0-0.2,0-0.3,0.1-0.4c0.1,0,0.3,0,0.4,0C461.2,234.6,461.3,234.9,461,235
			L461,235z"/>
		<path class="st5" d="M466.3,235c-0.1,0-0.2,0-0.2,0c0-0.1,0-0.3,0.1-0.4c0.6,0,1.1,0,1.7,0C467.8,235.3,466.8,235,466.3,235
			L466.3,235z"/>
		<path class="st5" d="M495.8,234.8c-0.3-0.1-0.3-0.1-0.9-0.3c-0.5-0.4-1-1.4-1-2c0.5,0.1,1,0.5,1.7,0.8c0,0,0,0.1,0,0.2
			c0.5,0.2,0.6,0.7,0.6,1.3C496.1,234.8,496,234.8,495.8,234.8L495.8,234.8z"/>
		<path class="st5" d="M492.5,234.7c0-0.1-0.1-0.2-0.1-0.3c0.5,0,0.5,0,0.7,0.2c0,0.1,0,0.1,0,0.2
			C492.8,234.7,492.6,234.7,492.5,234.7L492.5,234.7z"/>
		<path class="st5" d="M468.9,234.5c-0.1,0-0.2,0-0.2,0c0-0.2,0.1-0.3,0.1-0.5c0.3-0.1,0.3-0.1,0.9-0.2c2.4,0,4.8,0,7.2,0
			c0.1,0.4,0.1,0.4,0,0.6C474.2,234.5,471.5,234.5,468.9,234.5L468.9,234.5z"/>
		<path class="st5" d="M483.4,234.4c-0.2-0.2-0.1-0.3-0.1-0.6c4.3-0.1,4.3-0.1,7.9-0.1c0.3,0.2,0.3,0.2,0.2,0.6
			C488.7,234.4,486.1,234.4,483.4,234.4L483.4,234.4z"/>
		<path class="st5" d="M501.2,234.3c-0.5-0.3-0.9-0.7-1.5-1c-0.1-0.3-0.1-0.7-0.2-1c-0.3-0.1-0.7-0.3-1-0.4c0-0.2,0-0.3,0.1-0.4
			c0.1,0,0.1,0,0.2-0.1c0-0.1,0-0.2,0-0.3c-0.7-0.4-1.6-1.7-0.8-2.1c0.1-2.1,1-3.3,2.3-0.9c0.4-0.1,0.4-0.1,0.8,0
			c0,0.5-0.2,1.1-0.4,1.7c-0.8-0.2-1.1-1.4-1.3-1.9c-0.1,0-0.1,0-0.2,0c0.1,0.5,0.1,0.5,0.1,0.9c-0.2,0-0.2,0-0.6-0.2
			c0,0.1,0.1,0.1,0.1,0.2c1,0.7,1.4,1.2,1.6,2.6c-0.4,0.1-1-0.4-1.2-0.5c0,0,0,0.1,0,0.1c1.3,0.8,1.9,1.7,2.4,3.2
			C501.4,234.2,501.3,234.2,501.2,234.3L501.2,234.3z"/>
		<path class="st5" d="M466.5,234.2c0-0.1,0-0.3-0.1-0.4c0.6-0.1,1.3-0.2,2,0.1C468.5,234.3,466.8,234.2,466.5,234.2L466.5,234.2z"
			/>
		<path class="st5" d="M492,233.9c-0.1,0-0.1,0-0.2,0c0-0.1,0-0.2,0.1-0.3c0.5,0,0.9,0.1,1.4,0.1c0,0.1-0.1,0.1-0.1,0.2
			C492.8,233.9,492.4,233.9,492,233.9L492,233.9z"/>
		<path class="st5" d="M469.5,233.7c0-0.2,0-0.3,0-0.4c0.1-0.1,0.2-0.2,0.3-0.3c2.3,0,4.7,0,7,0c0,0.4,0,0.4-0.1,0.6
			C474.4,233.6,471.9,233.6,469.5,233.7L469.5,233.7z"/>
		<path class="st5" d="M483.8,233.5c-0.2,0-0.4-0.1-0.6-0.1c0-0.2,0-0.3,0-0.5c0.1-0.1,0.1-0.1,3.9-0.2c1,0,2.1,0,3.1,0.1
			c0.3,0.2,0.3,0.1,0.5,0.6c-0.1,0-0.1,0.1-0.2,0.1C488.3,233.5,486,233.5,483.8,233.5L483.8,233.5z"/>
		<path class="st5" d="M468,233.4c-0.6-0.1-0.6-0.1-1.1,0c0-0.2,0-0.4,0-0.5c0.7,0,1.4,0,2.2,0.1c-0.1,0.1-0.2,0.3-0.2,0.4
			C468.6,233.3,468.3,233.4,468,233.4L468,233.4z"/>
		<path class="st5" d="M477.6,233.2c0-0.1,0-0.3,0-0.4c0.2,0,0.4,0,0.6,0c0,0.1,0,0.2,0,0.3C477.9,233.2,477.8,233.2,477.6,233.2
			L477.6,233.2z"/>
		<path class="st5" d="M482.3,233.2c-0.2,0-0.3,0-0.4,0c0-0.1,0-0.2,0-0.4c0.2,0,0.5,0,0.7,0.1c0,0.1-0.1,0.2-0.1,0.3
			C482.5,233.1,482.4,233.2,482.3,233.2L482.3,233.2z"/>
		<path class="st5" d="M491.3,233.1c0,0-0.1-0.1-0.1-0.1c0-0.1,0-0.2,0-0.3c0.7,0,1.3,0,1.9,0c0,0.1-0.1,0.3-0.1,0.4
			C492.4,233.1,491.9,233.1,491.3,233.1L491.3,233.1z"/>
		<path class="st5" d="M460.4,233c0-0.2,0-0.3,0-0.5c1.2-1.9,2.6-4,3.3-6.1c-0.1,0-0.1,0-0.2,0c-0.3,0.6-0.4,0.7-1.1,2.3
			c-0.1,0-0.2,0-0.3,0c0-1.6,1.2-3.2,1.8-4.5c0.9-0.9,1.9-3.4,3.3-3.4c0.5,0.5-0.5,2.8-0.9,3.4c-0.4,1.8-1.8,3-2.5,4.6
			C463.5,229.1,461,233,460.4,233L460.4,233z"/>
		<path class="st5" d="M495.2,232.9c-0.7-0.3-0.7-0.3-1-0.5c0-0.1,0-0.3,0-0.4c0.1,0,0.1-0.1,0.2-0.1c0.2-1-0.5-2.4,0.8-2.5
			c0,0,0,0.1,0,0.1c1.1,0.6,1.1,0.4,1.1,1.9c0.1,0,0.2,0.1,0.4,0.1c0,0.5-0.2,0.9-0.5,1.4c-0.6,0-0.8-1.9-0.8-2.4
			c-0.1,0-0.2,0-0.2,0c0.4,2.1,0.4,2.1,0.4,2.4C495.3,232.9,495.2,232.9,495.2,232.9L495.2,232.9z"/>
		<path class="st5" d="M470.4,232.7c0-0.1,0-0.2,0-0.3c0.1-0.1,0.3-0.2,0.4-0.3c2,0,4.1,0,6.1,0c0,0.2,0,0.4-0.2,0.6
			C474.6,232.7,472.5,232.7,470.4,232.7L470.4,232.7z"/>
		<path class="st5" d="M467.7,232.6c-0.2,0-0.4-0.1-0.6-0.1c0.1-0.7,2-0.3,2.7-0.3C469.9,232.8,467.8,232.6,467.7,232.6L467.7,232.6
			z"/>
		<path class="st5" d="M483.2,232.6c-0.1,0-0.1,0-0.1,0c0-0.1,0-0.3,0.1-0.4c1.5-0.5,4.6-0.2,6.4-0.1c0.2,0.2,0.4,0.2,0.4,0.6
			C487.6,232.5,485.4,232.6,483.2,232.6L483.2,232.6z"/>
		<path class="st5" d="M477.7,232.4c-0.1,0-0.1,0-0.1,0c0-0.1,0-0.2,0.1-0.3c0.3,0,0.5,0,0.8,0c0,0.1,0,0.2,0,0.3
			C478.1,232.4,477.9,232.4,477.7,232.4L477.7,232.4z"/>
		<path class="st5" d="M481.7,232.3c0-0.1,0-0.2-0.1-0.3c0.3,0,0.5-0.2,0.9,0.1c0,0.1,0,0.2,0,0.3
			C482.2,232.3,482,232.3,481.7,232.3L481.7,232.3z"/>
		<path class="st5" d="M490.6,232.3c-0.1,0-0.2,0-0.3,0c0-0.1,0-0.3,0.1-0.4c0.8,0,1.7,0,2.5,0c0,0.1,0,0.2,0,0.3
			C492.1,232.3,491.3,232.3,490.6,232.3L490.6,232.3z"/>
		<path class="st5" d="M471.4,231.9c0.1-0.9,0.7-0.7,1.5-0.8c1.4,0,2.7,0,4.1,0c0,0.2,0,0.3-0.1,0.6
			C475.6,231.8,475.6,231.8,471.4,231.9L471.4,231.9z"/>
		<path class="st5" d="M483.8,231.7c-0.3,0-0.5-0.1-0.8-0.1c0-0.2,0-0.4,0-0.6c1.6,0,4.3-0.4,5.8,0.2c0,0.1-0.1,0.2-0.1,0.3
			C488.5,231.7,488.5,231.7,483.8,231.7L483.8,231.7z"/>
		<path class="st5" d="M467.4,231.7c0-0.3,0-0.3,0.1-0.4c1.3-0.1,1.3-0.1,3.2-0.1C470.8,231.9,470.3,231.7,467.4,231.7L467.4,231.7z
			"/>
		<path class="st5" d="M481.7,231.6c-0.1,0-0.2-0.1-0.3-0.1c0-0.1,0-0.2,0-0.3c0.3-0.1,0.3-0.1,0.9-0.1c0.1,0.1,0.1,0.1,0.2,0.2
			C482.3,231.4,481.9,231.6,481.7,231.6L481.7,231.6z"/>
		<path class="st5" d="M477.6,231.5c0-0.1,0-0.2,0-0.3c0.3-0.1,0.6-0.1,1.1,0C478.8,231.7,477.8,231.5,477.6,231.5L477.6,231.5z"/>
		<path class="st5" d="M489.5,231.4c-0.1,0-0.1,0-0.1,0c0-0.1,0-0.2,0-0.4c1.3,0,2.6,0,4,0c0,0.1-0.1,0.2-0.1,0.3
			C493.1,231.4,493.1,231.4,489.5,231.4L489.5,231.4z"/>
		<path class="st5" d="M463.7,231.4c0.1-1.5,1.5-2.9,2-4.3c0.4-0.5,0.8-1.1,1.2-1.6c1.2-1.3,0.7-1.1,2.2-1.6c0,1.7-0.8,3.9-1.8,5.3
			c-0.5,0-0.9,0-1.4,0.1c0.3-1.5,1.8-3,2.5-4.3c-0.8,0.2-2.9,3.9-3.3,5c-0.3,0.4-0.6,0.9-0.9,1.4C464,231.4,463.9,231.4,463.7,231.4
			L463.7,231.4z"/>
		<path class="st4" d="M459.1,231c0-0.4,0-0.4,0.2-0.8c0,0,0.1,0,0.2,0c0,0.3-0.2,0.4-0.2,0.8C459.2,231,459.2,231,459.1,231
			L459.1,231z"/>
		<path class="st5" d="M467.8,230.9c-0.1-0.1-0.1-0.1-0.1-0.3c1.2-0.3,2.9-0.1,4.2-0.2c0,0.1,0,0.2-0.1,0.3
			C471,231.1,468.8,230.9,467.8,230.9L467.8,230.9z"/>
		<path class="st5" d="M472.9,230.8c0-0.1,0-0.2,0-0.3c0.6-0.6,3.1-0.4,4-0.4c0.1,0.1,0.2,0.1,0.2,0.5
			C476.8,230.9,473.4,230.8,472.9,230.8L472.9,230.8z"/>
		<path class="st5" d="M477.8,230.8c0-0.1,0-0.2,0-0.3c0.4,0,0.7,0,1.1,0c0,0.1,0,0.1,0,0.2C478.6,230.8,478.1,230.8,477.8,230.8
			L477.8,230.8z"/>
		<path class="st5" d="M481.3,230.8c-0.1,0-0.1-0.1-0.2-0.1c0-0.1,0-0.2,0-0.3c0.5,0,0.9,0,1.4,0.1c-0.1,0.1-0.1,0.2-0.2,0.3
			C481.9,230.8,481.6,230.8,481.3,230.8L481.3,230.8z"/>
		<path class="st5" d="M483,230.8c-0.2-0.3-0.1-0.3,0-0.6c1.2,0,3.2-0.4,4.3,0.2c0,0.1,0,0.2,0,0.3
			C487.1,230.8,487.1,230.8,483,230.8L483,230.8z"/>
		<path class="st5" d="M489.1,230.7c-0.2,0-0.5-0.1-0.7-0.1c0-0.1,0-0.2,0-0.2c2.4-0.1,2.4-0.1,5-0.1c0.1,0.1,0.1,0.1,0.2,0.2
			C493.2,230.8,489.7,230.7,489.1,230.7L489.1,230.7z"/>
		<path class="st5" d="M468.1,230.1c0-0.1-0.1-0.3-0.1-0.4c1.4-0.3,3.7-0.1,5.2-0.1c0,0.3,0,0.3-0.2,0.4
			C471.4,230.1,469.7,230.1,468.1,230.1L468.1,230.1z"/>
		<path class="st5" d="M474.7,229.9c-0.1,0-0.2,0-0.3,0c0.5-0.9,1.7-0.6,2.7-0.6c0,0.4,0,0.4-0.2,0.6
			C476.3,229.9,476.3,229.9,474.7,229.9L474.7,229.9z"/>
		<path class="st5" d="M477.8,229.9c-0.1,0-0.1,0-0.1,0c0-0.1,0-0.2,0.1-0.3c0.2-0.1,0.2-0.1,1.5,0c0,0.1-0.1,0.2-0.1,0.3
			C478.7,229.9,478.3,229.9,477.8,229.9L477.8,229.9z"/>
		<path class="st5" d="M481.1,229.9c-0.1,0-0.2,0-0.3,0c0-0.1,0-0.2,0-0.4c0.5,0,1,0,1.5,0c0,0.1,0,0.2,0,0.3
			C481.8,229.9,481.8,229.9,481.1,229.9L481.1,229.9z"/>
		<path class="st5" d="M488.3,229.9c-0.5-0.1-1.3,0-1.3-0.5c0.8,0,4.5-0.4,5.2,0.1c-0.1,0.1-0.1,0.2-0.2,0.3
			C488.9,229.9,488.7,229.9,488.3,229.9L488.3,229.9z"/>
		<path class="st5" d="M483.2,229.9c-0.1-0.1-0.2-0.1-0.3-0.2c0-0.1-0.1-0.3-0.1-0.4c1,0,1.9-0.2,2.9,0.2c0,0.1-0.1,0.2-0.1,0.3
			C484.8,229.8,484,229.9,483.2,229.9L483.2,229.9z"/>
		<path class="st5" d="M496.5,229.4c-0.1-0.2-0.2-0.4-0.4-0.5c-1.2-0.1-3.1-0.7-3.4-1.8c0.3,0,0.5,0.2,0.9,0.4
			c1.4,0.1,2.2,0.4,3.6,1c0,0.4,0,0.5-0.3,0.9C496.8,229.4,496.6,229.4,496.5,229.4L496.5,229.4z"/>
		<path class="st5" d="M472.4,229.3c-1.2,0-2.5-0.1-3.7-0.1c0-0.1,0-0.2,0-0.3c2.2,0,4.3,0,6.5,0c0,0.1-0.1,0.1-0.1,0.2
			C474.1,229.2,474.1,229.2,472.4,229.3L472.4,229.3z"/>
		<path class="st5" d="M477.8,229.1c-0.1,0-0.1,0-0.2,0c0-0.1,0-0.2,0-0.3c1.4-0.1,1.4-0.1,1.8-0.1c0,0.1,0,0.2,0,0.3
			C478.9,229.1,478.3,229.1,477.8,229.1L477.8,229.1z"/>
		<path class="st5" d="M480.5,229.1c0-0.1,0-0.2,0.1-0.3c1-0.1,1-0.1,1.7,0c0,0.1,0,0.2,0,0.3C481.7,229,481.1,229.1,480.5,229.1
			L480.5,229.1z"/>
		<path class="st5" d="M485.1,229c0-0.1,0-0.3-0.1-0.4c2,0,4.1,0,6.1,0c0,0.1,0,0.2,0,0.4C489.2,229,487.1,229,485.1,229L485.1,229z
			"/>
		<path class="st5" d="M491.9,228.8c-0.4-0.3-0.3-0.4-0.4-0.8c0.1,0,0.2,0,0.4,0c0.1,0.3,0.2,0.4,0.2,0.8
			C492,228.8,491.9,228.8,491.9,228.8L491.9,228.8z"/>
		<path class="st5" d="M468.7,228.4c0-0.1,0-0.3-0.1-0.4c7.1-0.1,14.1-0.2,21.2-0.3c0.4,0,0.8,0.1,1.2,0.1c0,0.3,0,0.3-0.1,0.4
			C483.5,228.5,476,228.4,468.7,228.4L468.7,228.4z"/>
		<path class="st5" d="M496.3,227.8c-0.7-0.2-2.4-0.4-2.8-0.6c-0.1-1.4-0.6-1.2-1.6-2.1c0-0.3,0-0.6,0-0.9c0.7-0.3,0.5-0.9,0.4-1.5
			c0.1-0.5,0.3-0.7,0.4-1c0.6,0,0.6,0,1.6,0.1c0,0,0,0.1,0,0.2c1.5-0.1,1.5,0.8,1.9,2.1c0.1,0,0.1,0,0.2,0c0.7-0.6,0.7,0,0.8,0.6
			c0.7,0.1,0.6,0.8,0.6,1.5c0.2,0.7,0.2,0.8-0.3,1.3c-0.1,0-0.2,0-0.3,0c0-0.8,0-1.6,0-2.3c-0.1,0-0.1,0-0.2,0c0,0.5-0.1,1-0.1,1.5
			c-0.1,0-0.3,0-0.4,0.1c-0.6-0.9-1.2-1.6-1.3-1.9c-0.1-1.1-0.1-1.4-0.2-2.1c-0.1,0-0.1,0-0.2,0c0,0.5,0,1-0.1,1.5
			c-1.1-0.3-1-1-1.1-1.8c-0.3,0.1-0.5,0-0.7,0c0.2,0.8,0.8,1.7,1.6,2.2c0,0.1,0.2,0.4,0.5,0.4c0,0.1,0,0.3,0.1,0.5
			c-0.1,0-0.1,0-0.2,0.1c0,0,0,0.1,0,0.2c0.8,0.3,1.9,0.9,1.8,2C496.7,227.8,496.5,227.8,496.3,227.8L496.3,227.8z"/>
		<path class="st5" d="M469.2,227.5c0-0.1,0-0.2-0.1-0.3c0.6-0.1,1.2-0.3,1.7,0.1C470.5,227.7,469.5,227.5,469.2,227.5L469.2,227.5z
			"/>
		<path class="st5" d="M471.1,227.6c0-0.1,0-0.2,0.1-0.3c0.1-0.1,0.3-0.1,0.4-0.1c5.9-0.1,11.7-0.2,17.6-0.2c0.5,0,1,0.1,1.5,0.1
			c0,0.1-0.1,0.2-0.1,0.3C490.5,227.5,490.5,227.5,471.1,227.6L471.1,227.6z"/>
		<path class="st5" d="M471,226.9c-0.5-0.2-0.8-0.6-0.8-1.1c0.7-0.6,1.6-1.4,2.4-1.5c0.1,0.5,0.1,1.1,0.2,1.6
			C472.4,226.4,471.5,226.9,471,226.9L471,226.9z"/>
		<path class="st5" d="M473.4,226.9c-0.2-0.1-0.3-0.1-0.4-0.1c0-0.1,0-0.2,0-0.3c0.2-0.1,0.2-0.1,0.6-0.2c4.5,0,9.2-0.4,13.7,0
			c0,0.1,0,0.2,0,0.3c-0.3,0.1-0.3,0.1-1.8,0.2C478.8,226.7,477.8,226.8,473.4,226.9L473.4,226.9z"/>
		<path class="st5" d="M489.2,226.7c0.1-0.8,0.6-0.5,1.4-0.4c0,0.1-0.1,0.2-0.1,0.3C489.9,226.6,489.9,226.6,489.2,226.7
			L489.2,226.7z"/>
		<path class="st5" d="M473.6,225.9c-0.1,0-0.2,0-0.2,0c0-0.1,0-0.2,0-0.3c4.3-0.1,8.6-0.2,13-0.2c0,0.1-0.1,0.2-0.1,0.3
			C486.2,225.8,486.2,225.8,473.6,225.9L473.6,225.9z"/>
		<path class="st4" d="M494.3,225.6c-0.8-0.2-0.8-0.2-1.1-0.3c0-0.1,0-0.1,0-0.1c0.5,0.2,0.5,0.2,1.3,0.3c0,0,0,0.1,0,0.1
			C494.5,225.6,494.4,225.6,494.3,225.6L494.3,225.6z"/>
		<path class="st5" d="M473.4,225.1c-0.1,0-0.1,0-0.1,0c0-0.1,0-0.2,0-0.4c0.5,0,1.9-0.3,2.4,0C475.6,225.5,473.9,225.1,473.4,225.1
			L473.4,225.1z"/>
		<path class="st5" d="M479.9,225.1c-0.5,0-1,0-1.4,0c0-0.2,0-0.3,0-0.5c0.6,0,2-0.2,2.5,0.1c-0.1,0.1-0.2,0.2-0.2,0.3
			C480.5,225.1,480.2,225.1,479.9,225.1L479.9,225.1z"/>
		<path class="st5" d="M490.9,225.1c-0.7-0.1-0.9-0.7-1-1.2c1-0.8-0.3-1.3,0.3-2.2c0.7,0,1.6,0.7,1.9-0.5c0.1,0,0.2,0,0.3,0
			c-0.1,0.6-0.1,1.1-0.4,1.6c-0.4,0-0.6-0.1-0.9-0.2c0.3,0.4,0.6,0.5,0.6,1.2c-0.3,0-0.5,0.1-0.7,0.1c0,0,0,0.1,0,0.2
			c0.4,0.2,0.3,0.4,0.4,1C491.2,225.1,491.2,225.1,490.9,225.1L490.9,225.1z"/>
		<path class="st5" d="M484,225c0-0.1,0-0.2,0-0.3c0.8,0,1.6,0,2.4-0.1c0,0.3,0,0.3-0.1,0.4C485.5,225,484.8,225,484,225L484,225z"
			/>
		<path class="st5" d="M469.8,225c0-0.1,0-0.2,0-0.3c1.8-1.4,4-2.8,6-4c0-0.1,0-0.1,0-0.2c-1.7,0.8-3.5,1.8-4.8,3
			c-0.6,0.3-0.6,0.3-0.9,0.3c0.2-1.1,3.6-3.1,4.6-3.7c0.8-0.2,1.4-0.2,2.3-0.2C477.9,221,471,224.8,469.8,225L469.8,225z"/>
		<path class="st5" d="M474.2,224.3c0-0.1,0-0.2,0.1-0.3c0.3-0.2,0.4-0.1,0.9-0.1c0,0.1,0,0.2,0,0.3
			C474.8,224.3,474.5,224.3,474.2,224.3L474.2,224.3z"/>
		<path class="st5" d="M478.8,224.3c0,0-0.1-0.1-0.1-0.1c0-0.1,0-0.2,0-0.3c0.7,0,1.4-0.1,2.1-0.1
			C480.8,224.5,479.2,224.2,478.8,224.3L478.8,224.3z"/>
		<path class="st5" d="M484.4,224.2c0-0.1,0-0.2-0.1-0.3c0.5,0,1.1,0,1.6,0c0,0.1-0.1,0.2-0.1,0.3
			C485.6,224.2,485.6,224.2,484.4,224.2L484.4,224.2z"/>
		<path class="st5" d="M478.8,223.5c0-0.1,0-0.2,0-0.3c0.6,0,1.1,0,1.7,0c0.1,0.1,0.1,0.1,0.1,0.3
			C480,223.4,479.4,223.5,478.8,223.5L478.8,223.5z"/>
		<path class="st5" d="M489.1,223.3c0-0.2-0.1-0.4-0.1-0.6c-0.7,0-1.3-0.1-2-0.1c-0.1-0.2-0.1-0.2-0.1-0.5c2.1-0.7,2.5-1.3,2.7,1.2
			C489.4,223.3,489.2,223.3,489.1,223.3L489.1,223.3z"/>
		<path class="st5" d="M469.5,223.2c-0.1,0-0.2,0-0.2,0c0-0.2,0-0.3,0-0.4c0.2-0.2,0.2-0.2,3.6-2.6c0.4-0.2,1.8-0.9,1.9-1.3
			c-1,0.3-2.4,1.3-3.3,1.8c0,0.1,0,0.1,0,0.2c-0.7,0.5-1.1,0.8-1.9,1c0-0.4,0.1-0.5,0.3-0.8c1.7-1,4.2-3.1,6.3-2.7
			c0,0.1,0.1,0.1,0.1,0.2c-0.4,1.3-1.4,1.5-2.7,1.8c-0.4,0.3-0.4,0.3-1,0.6C472,221.5,470.4,223,469.5,223.2L469.5,223.2z"/>
		<path class="st5" d="M486.1,221.9c-0.1-0.2-0.1-0.5-0.1-0.7c-0.4,0-0.8-0.1-1.3-0.1c0-0.1-0.1-0.1-0.1-0.2
			c1.5-0.2,2.3-0.8,3.7,0.2C488.3,221.8,486.5,221.9,486.1,221.9L486.1,221.9z"/>
		<path class="st5" d="M489.5,221.3c-0.3-0.5-0.5-1-0.8-1.5c-0.1,0-0.1,0-0.2,0c0.1,0.3,0.3,0.5,0.2,1c-0.9-0.2-0.9-0.2-1.5-0.5
			c-0.4-0.6-1.1-1.6-1.7-1.7c0,0,0,0.1,0,0.1c0,0,0.1,0,0.1,0c0.1,0.2,0.4,0.5,0.7,0.9c0,0,0,0.1,0,0.1c-0.8,0-1.7-0.5-2.5-0.6
			c0,0.1,0,0.1,0.1,0.2c0.7,0.2,1.3,0.5,2,0.7c-0.1,0.9-1.5,0.5-2.1,0.8c0-0.3-0.1-0.5-0.1-0.8c-0.2-0.1-0.4-0.2-0.7-0.3
			c-0.9-1.7,0.9-0.8,1.5-1.2c0-0.2-0.1-0.4-0.1-0.6c0.7-0.1,1.6,0.3,2.2,0.7c0.6,0,0.6-0.4,1.2,0.1c-0.1,0.4-0.1,0.4,0,0.8
			c0.1,0,0.2,0,0.3,0.1c-0.1-0.2-0.2-0.4-0.2-0.6c0.8,0.1,1.9,1.2,1.9,2.2C489.8,221.2,489.7,221.3,489.5,221.3L489.5,221.3z"/>
		<path class="st5" d="M490.7,221c-0.1,0-0.1,0-0.1,0c0-0.2,0-0.4,0-0.6c0.1,0,0.2,0,0.3,0c0.1,0.2,0.2,0.3,0.1,0.7
			C490.9,221,490.8,221,490.7,221L490.7,221z"/>
	</g>
</g>
</svg>
