<?xml version="1.0" encoding="utf-8"?>
<!-- Generator: Adobe Illustrator 19.2.0, SVG Export Plug-In . SVG Version: 6.00 Build 0)  -->
<svg version="1.1" id="Livello_1" xmlns="http://www.w3.org/2000/svg" xmlns:xlink="http://www.w3.org/1999/xlink" x="0px" y="0px"
	 viewBox="0 0 960 960" style="enable-background:new 0 0 960 960;" xml:space="preserve">
<style type="text/css">
	.st0{fill-rule:evenodd;clip-rule:evenodd;fill:#FFFFFF;stroke:#1A171B;stroke-width:0.7618;stroke-miterlimit:2.6131;}
	.st1{fill-rule:evenodd;clip-rule:evenodd;fill:#E1001A;}
	.st2{fill-rule:evenodd;clip-rule:evenodd;fill:#FFFFFF;}
	.st3{fill-rule:evenodd;clip-rule:evenodd;fill:#1A171B;}
</style>
<g>
	<g>
		<path class="st0" d="M688,120.6c49.3,8.8,81.3,26.7,111.3,67.2c17.1,27.6,25.1,53.2,26.2,85.4c-2.2,64.5-35.5,113.8-93.4,140.8
			c-65.6,27-131.4,8.3-178-43.5c-29.2-38.3-40.2-80.5-31.7-128.4c9.9-36.9,24.2-61.5,52.6-87.1c30.3-22.6,59-33.9,97.3-35L688,120.6
			L688,120.6z"/>
		<path class="st1" d="M672.9,132.5c77.4,0,140.5,63.1,140.5,140.5c0,77.4-63.1,140.5-140.5,140.5c-77.4,0-140.5-63.1-140.5-140.5
			C532.3,195.6,595.5,132.5,672.9,132.5L672.9,132.5z"/>
		<path class="st2" d="M672.9,168.5c57.6,0,104.6,47,104.6,104.6c0,57.6-47,104.6-104.6,104.6c-57.6,0-104.6-47-104.6-104.6
			C568.3,215.4,615.3,168.5,672.9,168.5L672.9,168.5z"/>
		<path class="st3" d="M666.6,240l-17.9,2.5c-0.4-4.7-1.6-8.2-3.4-10.5c-1.8-2.3-4.2-3.4-7.2-3.4c-3.9,0-7.2,2.3-9.9,6.8
			c-2.7,4.5-4.4,13.9-5.1,28.1c4.6-7,10.3-10.5,17.2-10.5c7.7,0,14.4,3.8,19.9,11.3c5.5,7.5,8.3,17.3,8.3,29.2
			c0,12.7-2.9,22.8-8.7,30.5c-5.8,7.7-13.3,11.5-22.4,11.5c-9.8,0-17.8-4.9-24.1-14.6c-6.3-9.7-9.4-25.6-9.4-47.8
			c0-22.7,3.3-39,9.8-49.1c6.5-10,15.1-15,25.5-15c7.3,0,13.4,2.6,18.2,7.9C662.2,222.4,665.3,230,666.6,240L666.6,240z
			 M624.6,291.8c0,7.7,1.4,13.7,4.2,17.9c2.8,4.2,5.9,6.3,9.5,6.3c3.4,0,6.3-1.7,8.6-5.1c2.3-3.4,3.4-9.1,3.4-16.9
			c0-8-1.2-13.9-3.7-17.7c-2.5-3.8-5.5-5.6-9.2-5.6c-3.6,0-6.6,1.8-9,5.4C625.8,279.5,624.6,284.8,624.6,291.8L624.6,291.8z
			 M710.2,209.2c9.4,0,16.7,4.3,22,12.8c6.3,10.1,9.4,26.9,9.4,50.4c0,23.4-3.2,40.3-9.5,50.5c-5.2,8.4-12.5,12.7-21.9,12.7
			c-9.4,0-17-4.6-22.7-13.9c-5.8-9.3-8.6-25.8-8.6-49.5c0-23.3,3.2-40.1,9.5-50.3C693.6,213.4,700.9,209.2,710.2,209.2L710.2,209.2z
			 M710.2,228.9c-2.2,0-4.2,0.9-6,2.7c-1.8,1.8-3.1,5.1-4.1,9.8c-1.3,6.1-1.9,16.5-1.9,31c0,14.5,0.6,24.5,1.7,29.9
			c1.1,5.4,2.6,9,4.3,10.8c1.7,1.8,3.7,2.7,6,2.7c2.2,0,4.3-0.9,6-2.7c1.8-1.8,3.1-5.1,4.1-9.9c1.3-6.1,1.9-16.4,1.9-30.9
			c0-14.5-0.6-24.5-1.7-29.9c-1.1-5.4-2.6-9.1-4.3-10.9C714.5,229.8,712.5,228.9,710.2,228.9L710.2,228.9z"/>
	</g>
	<g>
		<path class="st0" d="M302.9,534.2c49.3,8.8,81.3,26.7,111.3,67.2c17.1,27.6,25.1,53.2,26.2,85.4c-2.2,64.5-35.5,113.8-93.4,140.8
			c-65.6,27-131.4,8.3-178-43.5c-29.2-38.3-40.2-80.5-31.7-128.4c9.9-36.9,24.2-61.5,52.6-87.1c30.3-22.6,59-33.9,97.3-35
			L302.9,534.2L302.9,534.2z"/>
		<path class="st1" d="M287.8,546.2c77.4,0,140.5,63.1,140.5,140.5c0,77.4-63.1,140.5-140.5,140.5c-77.4,0-140.5-63.1-140.5-140.5
			C147.3,609.3,210.4,546.2,287.8,546.2L287.8,546.2z"/>
		<path class="st2" d="M287.8,582.1c57.6,0,104.6,47,104.6,104.6c0,57.6-47,104.6-104.6,104.6c-57.6,0-104.6-47-104.6-104.6
			C183.2,629.1,230.2,582.1,287.8,582.1L287.8,582.1z"/>
		<path class="st3" d="M235.7,682.1c-4.8-2.6-8.3-6.1-10.5-10.7c-2.2-4.5-3.3-9.5-3.3-14.9c0-9.3,2.5-16.9,7.5-22.9
			c5-6,12.2-9,21.5-9c9.2,0,16.3,3,21.4,9c5.1,6,7.6,13.6,7.6,22.9c0,5.7-1.2,10.9-3.5,15.3c-2.3,4.5-5.6,7.9-9.8,10.2
			c5.4,2.8,9.4,6.8,12.2,12.1c2.8,5.3,4.2,11.4,4.2,18.3c0,11.4-2.9,20.7-8.5,27.9c-5.7,7.2-13.3,10.7-22.7,10.7
			c-8.8,0-16.1-3-21.9-8.9c-6.9-7-10.4-16.5-10.4-28.7c0-6.7,1.3-12.8,3.9-18.4C226,689.5,230.1,685.1,235.7,682.1L235.7,682.1z
			 M239.5,658.2c0,4.7,1,8.4,3.1,11c2.1,2.7,4.9,4,8.4,4c3.5,0,6.3-1.3,8.4-4c2.1-2.7,3.2-6.4,3.2-11.1c0-4.5-1-8-3.1-10.7
			c-2.1-2.7-4.8-4-8.3-4c-3.6,0-6.4,1.4-8.5,4.1C240.6,650.2,239.5,653.7,239.5,658.2L239.5,658.2z M237.8,711.2
			c0,6.5,1.3,11.6,3.9,15.3c2.6,3.7,5.9,5.5,9.8,5.5c3.8,0,7-1.8,9.5-5.3c2.5-3.5,3.8-8.6,3.8-15.2c0-5.8-1.3-10.5-3.8-14
			c-2.5-3.5-5.8-5.3-9.7-5.3c-4.5,0-7.9,2-10.1,6C238.9,702.2,237.8,706.6,237.8,711.2L237.8,711.2z M326.2,624.6
			c9.4,0,16.7,4.3,22,12.8c6.3,10.1,9.4,26.9,9.4,50.4c0,23.4-3.2,40.3-9.5,50.5c-5.2,8.4-12.5,12.7-21.9,12.7
			c-9.4,0-17-4.6-22.7-13.9c-5.8-9.3-8.6-25.8-8.6-49.5c0-23.3,3.2-40.1,9.5-50.3C309.6,628.8,316.9,624.6,326.2,624.6L326.2,624.6z
			 M326.2,644.3c-2.2,0-4.2,0.9-6,2.7c-1.8,1.8-3.1,5.1-4.1,9.8c-1.3,6.1-1.9,16.5-1.9,31c0,14.5,0.6,24.5,1.7,29.9
			c1.1,5.4,2.6,9,4.3,10.8c1.7,1.8,3.7,2.7,6,2.7c2.2,0,4.3-0.9,6-2.7c1.8-1.8,3.1-5.1,4.1-9.9c1.3-6.1,1.9-16.4,1.9-30.9
			c0-14.5-0.6-24.5-1.7-29.9c-1.1-5.4-2.6-9.1-4.3-10.9C330.5,645.2,328.5,644.3,326.2,644.3L326.2,644.3z"/>
	</g>
	<g>
		<path class="st0" d="M688,534.2c49.3,8.8,81.3,26.7,111.3,67.2c17.1,27.6,25.1,53.2,26.2,85.4c-2.2,64.5-35.5,113.8-93.4,140.8
			c-65.6,27-131.4,8.3-178-43.5c-29.2-38.3-40.2-80.5-31.7-128.4c9.9-36.9,24.2-61.5,52.6-87.1c30.3-22.6,59-33.9,97.3-35L688,534.2
			L688,534.2z"/>
		<path class="st1" d="M672.9,546.2c77.4,0,140.5,63.1,140.5,140.5c0,77.4-63.1,140.5-140.5,140.5c-77.4,0-140.5-63.1-140.5-140.5
			C532.3,609.3,595.5,546.2,672.9,546.2L672.9,546.2z"/>
		<path class="st2" d="M672.9,582.1c57.6,0,104.6,47,104.6,104.6c0,57.6-47,104.6-104.6,104.6c-57.6,0-104.6-47-104.6-104.6
			C568.3,629.1,615.3,582.1,672.9,582.1L672.9,582.1z"/>
		<path class="st3" d="M624.5,748.7h-15.8v-89.4c-5.8,8.1-12.6,14.1-20.5,18v-21.5c4.1-2,8.6-5.9,13.5-11.5
			c4.9-5.7,8.2-12.3,10-19.8h12.9V748.7L624.5,748.7z M664.7,624.4c8,0,14.3,4.3,18.8,12.8c5.4,10.1,8.1,26.9,8.1,50.4
			c0,23.4-2.7,40.3-8.1,50.5c-4.5,8.4-10.7,12.7-18.7,12.7c-8,0-14.5-4.6-19.5-13.9c-4.9-9.3-7.4-25.8-7.4-49.5
			c0-23.3,2.7-40.1,8.1-50.3C650.4,628.6,656.7,624.4,664.7,624.4L664.7,624.4z M664.7,644c-1.9,0-3.6,0.9-5.1,2.7
			c-1.5,1.8-2.7,5.1-3.5,9.8c-1.1,6.1-1.6,16.5-1.6,31c0,14.5,0.5,24.5,1.5,29.9c1,5.4,2.2,9,3.7,10.8c1.5,1.8,3.2,2.7,5.1,2.7
			c1.9,0,3.6-0.9,5.1-2.7c1.5-1.8,2.7-5.1,3.5-9.9c1.1-6.1,1.6-16.4,1.6-30.9c0-14.5-0.5-24.5-1.5-29.9c-1-5.4-2.2-9.1-3.7-10.9
			C668.3,644.9,666.6,644,664.7,644L664.7,644z M728.9,624.4c8,0,14.3,4.3,18.8,12.8c5.4,10.1,8.1,26.9,8.1,50.4
			c0,23.4-2.7,40.3-8.1,50.5c-4.5,8.4-10.7,12.7-18.7,12.7c-8,0-14.5-4.6-19.5-13.9c-4.9-9.3-7.4-25.8-7.4-49.5
			c0-23.3,2.7-40.1,8.1-50.3C714.7,628.6,720.9,624.4,728.9,624.4L728.9,624.4z M728.9,644c-1.9,0-3.6,0.9-5.1,2.7
			c-1.5,1.8-2.7,5.1-3.5,9.8c-1.1,6.1-1.6,16.5-1.6,31c0,14.5,0.5,24.5,1.5,29.9c1,5.4,2.2,9,3.7,10.8c1.5,1.8,3.2,2.7,5.1,2.7
			c1.9,0,3.6-0.9,5.1-2.7c1.5-1.8,2.7-5.1,3.5-9.9c1.1-6.1,1.6-16.4,1.6-30.9c0-14.5-0.5-24.5-1.5-29.9c-1-5.4-2.2-9.1-3.7-10.9
			C732.6,644.9,730.9,644,728.9,644L728.9,644z"/>
	</g>
</g>
</svg>
