<?xml version="1.0" encoding="utf-8"?>
<!-- Generator: Adobe Illustrator 19.2.0, SVG Export Plug-In . SVG Version: 6.00 Build 0)  -->
<svg version="1.1" id="Livello_1" xmlns="http://www.w3.org/2000/svg" xmlns:xlink="http://www.w3.org/1999/xlink" x="0px" y="0px"
	 viewBox="0 0 960 960" style="enable-background:new 0 0 960 960;" xml:space="preserve">
<style type="text/css">
	.st0{fill-rule:evenodd;clip-rule:evenodd;fill:#ED7F00;stroke:#E1001A;stroke-width:1.1131;stroke-miterlimit:2.6131;}
	.st1{fill-rule:evenodd;clip-rule:evenodd;fill:#1A171B;}
</style>
<g>
	<g>
		<polygon class="st0" points="194.8,271.4 766.3,271.4 766.3,693.1 194.8,693.1 194.8,271.4 		"/>
		<path class="st1" d="M761,276v193.9H199.4V276H761L761,276z M761,488.9v193.9H199.4V488.9H761L761,488.9z M780,256.6v446.8H180
			V256.6H780L780,256.6z"/>
		<path class="st1" d="M360.6,648.3H336v-84.1h-30.7v-20.6c16.9-1.7,30.4-5.7,35.5-19.9h19.9V648.3L360.6,648.3z M476.8,625.6v22.6
			h-84.1c0-8.4,3.7-16.6,7.8-23.3c4.7-7.1,14.5-17.9,27.4-30.1c10.1-9.1,17.6-16.6,19.9-19.9c3.4-4.4,4.7-9.8,4.7-14.9
			c0-5.1-1.7-9.1-4.1-11.5c-3.4-3-7.4-5.1-12.5-5.1c-4.7,0-10.1,1.7-12.5,4.1c-3,3-4.7,8.4-4.7,14.2l-23.3-1.7
			c0.7-12.5,6.1-22.3,12.5-27.4c7.4-5.4,17.2-9.1,29-9.1c11.5,0,22.6,3.4,29,9.8c6.4,6.4,10.8,15.2,10.8,25c0,5.1-2,11.1-3.4,15.9
			c-1.4,4.7-6.1,10.8-10.1,15.9c-2.4,2.7-8.4,9.1-15.5,15.5c-7.4,6.4-12.8,12.8-14.2,14.2c-1.4,1.3-4.1,4.1-5.7,5.7H476.8
			L476.8,625.6z M532.2,523.6c11.8,0,21.6,5.1,28.4,13.2c8.1,9.8,12.5,27.4,12.5,50.7s-4.4,40.9-12.5,50.7
			c-6.8,8.1-16.6,12.5-28.4,12.5c-12.2,0-23.3-5.1-29.7-13.2c-6.8-8.8-10.8-26.7-10.8-50s4.1-40.9,11.5-50.7
			C509.6,528.7,520.7,523.6,532.2,523.6L532.2,523.6z M532.2,543.5c-3,0-6.8,1-8.1,2.4c-1.3,1.4-4.1,6.4-5.1,10.8
			c-1.3,6.1-2.4,16.6-2.4,30.7c0,14.2,0.7,25.3,1.7,30.1c1.4,5.1,4.4,9.5,5.7,10.8c1.3,1.3,5.1,2.4,8.1,2.4c2.7,0,6.4-0.7,7.8-2.4
			c1.4-1.4,3.7-5.4,4.7-10.1c1-5.7,3.4-16.5,3.4-30.7c0-14.2-1-25-2.4-29.7c-1.4-4.7-4.4-9.5-5.7-10.8
			C538.6,545.2,534.9,543.5,532.2,543.5L532.2,543.5z M587.9,614.8l23.3-2.4c0,5.7,2.7,10.8,5.1,13.2c3.4,3,7.4,5.1,11.5,5.1
			c4.1,0,8.8-2,11.8-5.1c3-3,4.7-9.1,4.7-14.9c0-5.1-1.7-10.1-4.1-13.2c-3-3.4-7.4-5.7-11.5-5.7c-2.7,0-6.8,0.7-10.1,2.4l1.7-20.9
			c5.7,0,11.1-0.7,14.2-3c3.4-3,5.1-7.4,5.1-12.5c0-3.4-1.3-7.8-3.4-10.1c-2-2.7-6.8-4.1-10.1-4.1c-3.4,0-7.8,1.7-9.1,4.1
			c-2.4,3-5.1,7.4-5.1,12.5l-21.6-3.4c1-7.4,3.4-14.2,6.1-18.2c3-4.1,7.4-8.4,12.5-10.8c4.4-2.4,11.5-4.1,18.2-4.1
			c11.5,0,20.6,4.4,27.4,11.5c5.4,6.1,9.1,13.5,9.1,20.9c0,10.8-6.8,19.9-18.2,26.7c6.4,1.4,13.2,5.1,17.2,9.8
			c4.1,5.1,6.8,12.5,6.8,19.2c0,10.8-4.1,20.9-11.5,27.4c-8.1,7.4-18.2,11.5-30.1,11.5c-10.8,0-20.9-3.4-27.4-9.1
			c-6.8-6.4-12.5-15.9-12.5-25.7V614.8L587.9,614.8z"/>
		<path class="st1" d="M392.9,403l23.9-2.9c0.8,6.1,2.8,10.7,6.2,14c3.3,3.2,7.4,4.9,12.1,4.9c5.1,0,9.4-2,12.9-5.8
			c3.5-3.9,5.2-9.1,5.2-15.6c0-6.2-1.7-11.1-5-14.8c-3.3-3.7-7.4-5.5-12.2-5.5c-3.2,0-6.9,0.6-11.4,1.8l2.7-20.1
			c6.7,0.1,11.8-1.3,15.3-4.4c3.5-3.1,5.3-7.2,5.3-12.3c0-4.4-1.3-7.8-3.9-10.4c-2.6-2.6-6-3.9-10.3-3.9c-4.2,0-7.8,1.5-10.8,4.4
			c-3,2.9-4.8,7.2-5.5,12.8l-22.8-3.8c1.6-7.8,4-14.1,7.2-18.7c3.2-4.7,7.7-8.3,13.4-11c5.7-2.7,12.1-4,19.2-4
			c12.2,0,21.9,3.9,29.2,11.6c6,6.3,9.1,13.5,9.1,21.5c0,11.3-6.2,20.4-18.6,27.1c7.4,1.6,13.3,5.1,17.7,10.7
			c4.4,5.5,6.6,12.2,6.6,20c0,11.3-4.1,21-12.4,28.9c-8.3,8-18.6,12-30.9,12c-11.7,0-21.3-3.4-29-10.1
			C398.5,422.6,394.1,413.9,392.9,403L392.9,403z"/>
		<path class="st1" d="M493,403l23.9-2.9c0.8,6.1,2.8,10.7,6.2,14c3.3,3.2,7.4,4.9,12.1,4.9c5.1,0,9.4-2,12.9-5.8
			c3.5-3.9,5.2-9.1,5.2-15.6c0-6.2-1.7-11.1-5-14.8c-3.3-3.7-7.4-5.5-12.2-5.5c-3.2,0-6.9,0.6-11.4,1.8l2.7-20.1
			c6.7,0.1,11.8-1.3,15.3-4.4c3.5-3.1,5.3-7.2,5.3-12.3c0-4.4-1.3-7.8-3.9-10.4c-2.6-2.6-6-3.9-10.3-3.9c-4.2,0-7.8,1.5-10.8,4.4
			c-3,2.9-4.8,7.2-5.5,12.8l-22.8-3.8c1.6-7.8,4-14.1,7.2-18.7c3.2-4.7,7.7-8.3,13.4-11c5.7-2.7,12.1-4,19.2-4
			c12.2,0,21.9,3.9,29.2,11.6c6,6.3,9.1,13.5,9.1,21.5c0,11.3-6.2,20.4-18.6,27.1c7.4,1.6,13.3,5.1,17.7,10.7
			c4.4,5.5,6.6,12.2,6.6,20c0,11.3-4.1,21-12.4,28.9c-8.3,8-18.6,12-30.9,12c-11.7,0-21.4-3.4-29-10.1
			C498.7,422.6,494.3,413.9,493,403L493,403z"/>
	</g>
</g>
</svg>
