<?xml version="1.0" encoding="utf-8"?>
<!-- Generator: Adobe Illustrator 19.2.0, SVG Export Plug-In . SVG Version: 6.00 Build 0)  -->
<svg version="1.1" id="Livello_1" xmlns="http://www.w3.org/2000/svg" xmlns:xlink="http://www.w3.org/1999/xlink" x="0px" y="0px"
	 viewBox="0 0 960 960" style="enable-background:new 0 0 960 960;" xml:space="preserve">
<style type="text/css">
	.st0{opacity:1.000000e-002;fill:#FFFFFF;}
	.st1{fill-rule:evenodd;clip-rule:evenodd;fill:#FFEC00;}
	.st2{fill-rule:evenodd;clip-rule:evenodd;fill:#E1001A;}
	.st3{fill:none;stroke:#1A171B;stroke-width:0.8984;stroke-miterlimit:2.6131;}
</style>
<rect class="st0" width="1" height="1"/>
<rect x="959" y="959" class="st0" width="1" height="1"/>
<g>
	<g>
		<polygon class="st1" points="180,393.4 780,393.4 780,566.6 180,566.6 180,393.4 		"/>
		<polygon class="st2" points="382.5,393.4 283.2,393.4 180.3,566.2 180.3,566.4 279.8,566.4 382.5,393.4 		"/>
		<polygon class="st2" points="581.3,393.4 481.9,393.4 379,566.4 478.4,566.4 581.3,393.4 		"/>
		<polygon class="st2" points="779.7,393.4 680.4,393.4 577.5,566.4 676.8,566.4 779.7,393.4 		"/>
		<polygon class="st3" points="180,393.4 780,393.4 780,566.6 180,566.6 180,393.4 		"/>
	</g>
</g>
</svg>
