<?xml version="1.0" encoding="utf-8"?>
<!-- Generator: Adobe Illustrator 19.2.0, SVG Export Plug-In . SVG Version: 6.00 Build 0)  -->
<svg version="1.1" id="Livello_1" xmlns="http://www.w3.org/2000/svg" xmlns:xlink="http://www.w3.org/1999/xlink" x="0px" y="0px"
	 viewBox="0 0 960 960" style="enable-background:new 0 0 960 960;" xml:space="preserve">
<style type="text/css">
	.st0{fill:#FFFFFF;stroke:#1A171B;stroke-width:10.0587;stroke-miterlimit:2.6131;}
	.st1{fill-rule:evenodd;clip-rule:evenodd;fill:#E1001A;}
	.st2{fill-rule:evenodd;clip-rule:evenodd;fill:#1A171B;}
</style>
<g>
	<g>
		<path class="st0" d="M273.3,197.8h413.4c41.5,0,75.5,34,75.5,75.5v413.4c0,41.5-34,75.5-75.5,75.5H273.3
			c-41.5,0-75.5-34-75.5-75.5V273.3C197.8,231.8,231.8,197.8,273.3,197.8L273.3,197.8z"/>
		<path class="st1" d="M256.5,501.3c36.5-25.4,64.8-20.7,105.6-22.3c20.5-0.8,38.5-13.4,54.5-29.1c-11.4,44-47.4,61.1-60.6,68.9
			c-30.8,10-60.3-5.9-99.5,25C256.5,529.7,256.5,515.5,256.5,501.3L256.5,501.3z"/>
		<path class="st1" d="M256.5,588c27-18.6,53.5-12.9,80.3-23.9c26.8-11,25.6-35.5,61.3-42.9c-8,9.8-13.4,16.5-19.4,28.2
			c-14.4,28.5-30.4,38-46.8,48.8c-16.5,10.8-51.1,8.1-75.4,24.7C256.5,611.3,256.5,599.7,256.5,588L256.5,588z"/>
		<path class="st1" d="M256.5,633.1c13.1-15.3,44.3-12.6,70.2-23.6c25.9-10.9,41.4-30.1,56.1-40.7c-32.4,80.5-73.8,76.9-126.3,90.7
			C256.5,650.8,256.5,641.9,256.5,633.1L256.5,633.1z"/>
		<path class="st1" d="M256.5,553c23.9-17.1,32.3-18.2,49.3-20.3c17-2.1,46.4,3.4,58.6-10.6c-16.7,31.8-33.9,35.8-50,40.6
			c-16.1,4.8-32-0.2-58,16.4C256.5,570.4,256.5,561.7,256.5,553L256.5,553z"/>
		<polygon class="st2" points="466.3,449.5 594.8,400.8 672.6,605.7 544.1,654.5 466.3,449.5 		"/>
		<path class="st2" d="M496.3,334.9L496.3,334.9c35.3-13.4,75.2,4.5,88.6,39.9l4.2,11.2l-128.5,48.8l-4.2-11.1
			C443,388.2,460.9,348.3,496.3,334.9L496.3,334.9z"/>
		<path class="st2" d="M678.2,620.6l9.4,24.8c3.5,9.1,0.2,22.6-12.7,27.5l-88.1,33.4c-12.9,4.9-24.3-3-27.8-12.2l-9.4-24.8
			L678.2,620.6L678.2,620.6z"/>
		<path class="st2" d="M427.2,295.6c33.3,0.3,67.6,3.8,111.3,21.9c-27.2-0.4-42.1,2.3-54.8,7.1L437.8,342
			c-11.9,4.5-20.5,2.5-24.4-10.3l-6-19.5C404.8,303.8,419.7,295.5,427.2,295.6L427.2,295.6z"/>
		<path class="st2" d="M604.1,291.4c-39.8,4.9-85.3-37.3-149.6-6.4c50.3-3.6,119.5,41.5,147.2,37.6c23.6-3.3,47.3-4.5,72.5-9.9
			l-12.6-28.4L604.1,291.4L604.1,291.4z"/>
	</g>
</g>
</svg>
