<?xml version="1.0" encoding="utf-8"?>
<!-- Generator: Adobe Illustrator 19.2.0, SVG Export Plug-In . SVG Version: 6.00 Build 0)  -->
<svg version="1.1" id="Livello_1" xmlns="http://www.w3.org/2000/svg" xmlns:xlink="http://www.w3.org/1999/xlink" x="0px" y="0px"
	 viewBox="0 0 960 960" style="enable-background:new 0 0 960 960;" xml:space="preserve">
<style type="text/css">
	.st0{fill:#FFFFFF;stroke:#1A171B;stroke-width:10.0587;stroke-miterlimit:2.6131;}
	
		.st1{fill-rule:evenodd;clip-rule:evenodd;fill:#FFFFFF;stroke:#1A171B;stroke-width:0.9966;stroke-linecap:square;stroke-miterlimit:2.6131;}
	
		.st2{fill-rule:evenodd;clip-rule:evenodd;fill:#3D3D3F;stroke:#1A171B;stroke-width:0.9966;stroke-linecap:square;stroke-miterlimit:2.6131;}
	.st3{fill:none;stroke:#1A171B;stroke-width:0.9966;stroke-linecap:square;stroke-miterlimit:2.6131;}
	.st4{fill:none;stroke:#1A171B;stroke-width:3.322;stroke-miterlimit:2.6131;}
</style>
<g>
	<g>
		<path class="st0" d="M273.3,197.8h413.4c41.5,0,75.5,34,75.5,75.5v413.4c0,41.5-34,75.5-75.5,75.5H273.3
			c-41.5,0-75.5-34-75.5-75.5V273.3C197.8,231.8,231.8,197.8,273.3,197.8L273.3,197.8z"/>
		<path class="st1" d="M480.7,280.9c1,0,1.8,0.5,1.8,1.1c0,0.6-0.8,1.1-1.8,1.1c-1,0-1.8-0.5-1.8-1.1
			C478.8,281.4,479.7,280.9,480.7,280.9L480.7,280.9z"/>
		<path class="st2" d="M440,452.8c2.2,2.7,6.6,4.6,12,6.2l56.2,0.7l0.7-6.2c-0.9-11.4-0.7-22.2-1.8-33.5c-0.1-1.2-2.4-3.9-2.4-5.1
			c-0.2-2.6,0-5.3-0.1-7.8c0.9-3.7,1.3-7.5,2.7-10.8c0.2-0.6,1,1.5,1,2.3c0,2.9-0.5,5.9-0.5,8.9c0,1.6-0.2,2.9,0.6,5
			c6.2-1.7,10.8-1.3,19.6,3.1c0.7-8.6,1.5-17.1,0.7-25.9c-1.8-11.2-3.8-22.4-5.6-33.5c-0.5-6.6-1.6-12.6-6.8-14.8
			c-3.8-1.2-7-1.7-11.2-3.9c-4.3-2.2-12-8.6-15.3-9.2l-0.4-1.8l-18.3,1.1c-2.4,1.3-4,3.9-7.3,4c-3.3,0.1-6.2-1-9.5-2.9l-15.6-18.6
			l-17.2,2.8c8.3,16.4,17,33.2,24.8,48.5c2.4,14.2,4.8,28.5,7.3,42.7c0.1,0.7,1.3,2,1.3,2.9c0,2.6,0,4.4-0.4,6.8
			c-1.8,0.9-2.9,4.3-3.4,5.3c-4.6,9.9-8.1,21.3-11.1,32.3C439.5,452.5,439.6,452.2,440,452.8L440,452.8z"/>
		<polygon class="st1" points="465.9,305.2 494.9,305.2 498.6,311.3 462.1,311.3 465.9,305.2 		"/>
		<path class="st1" d="M465.9,305.2h29c0.1-12.3-4.6-22.9-14.2-22.6C471.1,282.8,465.9,293,465.9,305.2L465.9,305.2z"/>
		<path class="st1" d="M484,296.2c0.9,0.9,1.5,2.2,1.5,3.7c0,1.5-0.6,2.8-1.5,3.8v1.8c0,0.5-0.4,0.9-0.9,0.9h-4.9
			c-0.5,0-0.9-0.4-0.9-0.9v-2.3c-0.7-0.9-1.2-2.1-1.2-3.3c0-1.3,0.5-2.4,1.2-3.3v-1.8c0-0.5,0.4-0.9,0.9-0.9h4.9
			c0.5,0,0.9,0.4,0.9,0.9V296.2L484,296.2z"/>
		<path class="st2" d="M462.1,311.3h36.5c1.5,2-1.8,2-4.6,2.9c-8.2,1-19.4,0.9-27.3,0C464.2,313.6,460.8,313.4,462.1,311.3
			L462.1,311.3z"/>
		<path class="st2" d="M466.5,311.3c-0.2,4.6,1.6,6.6,2.3,8.4c1.5,3.3,1.2,5.1,2.3,7.7c1.5,3.1,6.1,5.4,9.7,5.4
			c3.5-0.6,7.5-4.5,10-8.6c1.7-5,2.6-5.4,2.3-12.8L466.5,311.3L466.5,311.3z"/>
		<path class="st1" d="M493,312.7c0.4,4.9-1.2,7.2-2,9.8c-0.6,2-1.6,3.4-2.8,5.3c-3.1,4.3-5.7,4.3-6.2,4.4c-3.9,0.9-6.4-1-8.4-2.4
			c-2.1-1.5-2.8-4.6-2.8-4.6c-0.7-3.7-2.1-6.2-3.1-8.4c-0.5-1.1-0.7-3.9-0.7-4.5c0,0,3.3,0,3.4,0c1,0,0.9,1.8,3.2,1.8
			c2.3,0,2.4-1.8,5.4-1.8c2.9,0,3.2,2.1,5.6,2.1c2.4,0,2.6-1.6,3.5-1.6C489.4,312.5,493,312.5,493,312.7L493,312.7z"/>
		<path class="st3" d="M479.3,311.4c0.1,2.4-0.4,3.5-0.7,5.4c-0.9,1.2-2,1.5-1.8,2.6c0.1,1.1,0.4,1.5,2.1,1.5c1.7,0,2,0.4,2.8-0.7"
			/>
		<path class="st3" d="M484.2,324.5c-3.3-1.1-5.7-1-9.3,0"/>
		<path class="st3" d="M481.8,326.5c-1,0-3.5,0.6-4.3,0.2v-0.2h-0.4"/>
		<path class="st1" d="M471,327.2c0,3.3-1.6,7.7-1.1,11.1c1.3,9.3,5,17,9.5,24.4c3.4-4.9,6.2-10,8.9-17.2c2.1-6,2-13.6,1-19.1
			c-2.2,3.7-5.6,6.1-9.7,6.2C475.5,332.2,473.6,330.6,471,327.2L471,327.2z"/>
		<path class="st3" d="M470.5,331.8c2,3.4,3.7,6.7,8.3,7.8l1-0.2l8.2,6.8"/>
		<path class="st3" d="M471.5,345.3l8.2-5.7c4.4-2,9.3-5.4,10-9.8"/>
		<path class="st2" d="M475.8,342.1c0.9,1.7,2.9,3.8,2.7,5.4c-0.6,2.9-2.1,5.5-2.6,9l3.7,6.5l4.5-7.3c-1.2-3.1-2-5.6-2.6-8.3
			c-0.4-1.7,1-3.7,1.5-5.4l-3.4-2.6L475.8,342.1L475.8,342.1z"/>
		<polygon class="st1" points="456.7,407.4 471.3,408.5 470.9,414.9 456.2,413.8 456.7,407.4 		"/>
		<polygon class="st1" points="473,407.3 482,407.3 482,415.9 473,415.9 473,407.3 		"/>
		<polygon class="st1" points="483.6,408.8 503,408.7 503.1,415.1 483.7,415.3 483.6,408.8 		"/>
		<path class="st2" d="M508.7,456.4c-19.9,1.8-38.9,0.5-60.3-1.6c3.5,48.2,9.7,96.3,14.3,144.5c10.5,0,21-0.1,31.5-0.1
			c0.6-1.1,1.1-2.6,1.2-3.8C501.6,549.3,504.3,502.6,508.7,456.4L508.7,456.4z"/>
		<path class="st2" d="M509.8,614.7c-1.5,0.9-4,0.6-6.1,0.7c-1.6,0-3.5,0.2-5.3,0c-2.6-0.2-5.3-1.8-7.9-2.1
			c-6.4-0.5-13-0.4-19.6-0.4c-1.8,0-4-0.4-5.9-0.2c-2,0.1-4,1.1-5.9,1.2c-2.9,0.1-6.4,1-9.4,1c-2.1,0-4.4-0.1-6.7-0.9
			c-0.1-1.1,0.1-3.8,0.6-5.1c0.6-2.1,3.4-2.9,7.1-3.3c7.7-1.3,9.7-6.8,15-7.3c8.4-0.9,17.6-2.7,26.3-0.6c4.6,1,6.5,6.7,10.8,7.8
			c3.7,1,5.9,1,6.8,4.4C509.9,611.1,509.8,613,509.8,614.7L509.8,614.7z"/>
		<path class="st1" d="M419.7,312.2c4.6,3.3,13.6,0.7,19.3-2.4l-3.2-40.6l-1.7-2.2c-3.9,1.6-7.2,1.5-10.4,0c-0.4-0.2-2,1.2-1.8,3.1
			L419.7,312.2L419.7,312.2z"/>
		<path class="st1" d="M423.8,269.4c3.4,0.9,6,0.9,9.9,0c-0.4-2.1,0.1-3.3,1.1-5.3c2.9-4.6,5.7-7.5,3.9-20.9
			c0.1-3.5-3.7-3.5-3.4-1.2c0.2,2.6,0,4,0,6.5c0,0.7-0.7,2.4-0.7,4c0-1.5,0.7-3.1,0.7-4c0.2-7.2-1.7-13.6-2.4-18.5
			c-0.1-1.5-1.6-1.7-1.6-1.5c0,0.4,1.2,8.8,2,15.2c-1-6.7-1.5-11-1.8-13.9c-0.1-2.8-2.9-4.4-2.8-2.4c0.5,3.2,2,8.8,2,15.5
			c0,0-1.1-12.1-1.7-14.7c-0.2-1.6-0.5-1.8-1.7-1.8c-1.2,0-1.8,2.4-1.3,2.4c0,0,1.3,0.2,1.3,1.1c0.2,3.7,1,10.4,1.3,15.8
			c3.4,9.9,2.1,16.3,2.1,16.3c0.9-5,0-9.7-2.1-16.3c-0.6-1.8-1-12.5-1.2-15.8c-2-3.1-2.6,0.7-2.6,0.7l-0.9,13.7
			C423.1,252.9,420.5,260.1,423.8,269.4L423.8,269.4z"/>
		<path class="st1" d="M520.4,454.1c0.2-3.3-6.1-3.5-8.1-1.6c-1.2,1.2-3.5,2.4-4,5.7l-1.2,14.7c4.5-6.1,3.8-4.4,5.5-9.9
			c1.1-3.7-1.8,6.6-5.5,9.9l-1,11C513.1,475,519.3,464.9,520.4,454.1L520.4,454.1z"/>
		<path class="st1" d="M507.2,417.1c0.6-2,0.5-3.9,1.7-4.9c5.7-1.6,13.9,0,19.3,3.9c-1.5,12.3-4.3,26.8-6.7,39
			c-4.5,0.5-8.7-1.6-12.6-1.2L507.2,417.1L507.2,417.1z"/>
		<path class="st4" d="M252.2,527.5h134.2l35.2-98.7 M538.7,428.8l35.7,98.7h133.5 M707.8,679h-78.9l21.2,59.1 M310.4,738.1
			l21.4-59.1h-79.6"/>
	</g>
</g>
</svg>
