<?xml version="1.0" encoding="utf-8"?>
<!-- Generator: Adobe Illustrator 19.2.0, SVG Export Plug-In . SVG Version: 6.00 Build 0)  -->
<svg version="1.1" id="Livello_1" xmlns="http://www.w3.org/2000/svg" xmlns:xlink="http://www.w3.org/1999/xlink" x="0px" y="0px"
	 viewBox="0 0 960 960" style="enable-background:new 0 0 960 960;" xml:space="preserve">
<style type="text/css">
	.st0{fill:#FFFFFF;stroke:#1A171B;stroke-width:10.0587;stroke-miterlimit:2.6131;}
	.st1{fill:none;stroke:#1A171B;stroke-width:3.322;stroke-miterlimit:2.6131;}
	.st2{fill-rule:evenodd;clip-rule:evenodd;fill:#FFFFFF;stroke:#1A171B;stroke-width:0.9966;stroke-miterlimit:2.6131;}
	.st3{fill-rule:evenodd;clip-rule:evenodd;fill:#3D3D3F;stroke:#1A171B;stroke-width:0.9966;stroke-miterlimit:2.6131;}
	.st4{fill:none;stroke:#1A171B;stroke-width:0.9966;stroke-miterlimit:2.6131;}
</style>
<g>
	<g>
		<path class="st0" d="M273.3,197.8h413.4c41.5,0,75.5,34,75.5,75.5v413.4c0,41.5-34,75.5-75.5,75.5H273.3
			c-41.5,0-75.5-34-75.5-75.5V273.3C197.8,231.8,231.8,197.8,273.3,197.8L273.3,197.8z"/>
		<path class="st1" d="M227.7,526.6l86.6-18.9l-84.7-101.2 M402.8,368.7l104.6,96.6l67.7-15 M729.6,571l-84.4,21.8l91.5,84.9
			 M500.8,731.1l-69.4-83.2l-122.5,31.5"/>
		<path class="st2" d="M452.2,231.2c1.4,0,2.5,0.6,2.5,1.3c0,0.7-1.1,1.3-2.5,1.3s-2.5-0.6-2.5-1.3
			C449.6,231.8,450.8,231.2,452.2,231.2L452.2,231.2z"/>
		<path class="st3" d="M452.4,522.9c5.8,1.5,11.6,6,17.5,4.6c4.5,5.7,12.7,5.4,19.2,8.2c0.8,2.6,1.1,5.8,0.4,8.7l-7.3,4.2l-1.7-1.1
			l-1.7,1.2c-2.4,2.8-4.5,4.5-7.3,6.5c-4.2,2-8.1,3.4-13.5,3c-4.4-0.5-5.8-3.4-2.5-7c3.7-3.2,7-6.1,9.9-9.5l-0.1-6.1h-4.9l-0.8-1.6
			c-4.9,1.3-8.7,1.9-13.1,2.1c-3.7-0.1-6.7-0.4-9.5-1.2c-3.2-2.1-5.4-5.2,1.5-7.7C443.4,526.4,448.2,525.5,452.4,522.9L452.4,522.9z
			"/>
		<path class="st3" d="M485.9,405.4c0.1,43.1,2.5,86,3.2,128.4c0.1,1.5-0.1,2.4-0.7,3.7c-11.9-4.4-24.2-8.9-36-13.1
			c-0.1-3.6-0.1-6.7-0.5-10.3c-5.4-37.8-16.4-75.4-21.3-113.5C430.3,398.1,485.9,403.8,485.9,405.4L485.9,405.4z"/>
		<path class="st3" d="M426.8,309.2c-9.4,2.1-16.7,4.1-24.6,7.3c-1.2,0.4-2.2,1.9-3.4,2.4c-2.1,1.1-7.3,4.5-6.7,2.8
			c3.4-8.7-0.3-19-7.1-21.4c-0.8-0.3,2.1-0.3,3.7-0.5c1.6-0.3,4.4-1.1,6.5-1.6c2.1-0.5,6.5-3.2,8.5-3.7c2-0.5,4.1-2.4,6.5-3
			c2.4-0.7,4.6-0.8,7.1-2.1c2.5-1.3,7.7-6.1,9.4-7c1.2-0.5,5.4-3,10.4-4.5L436,276l27.6-1.1c4.8,3.6,7.8,6,13.1,9.3
			c5.3,3.3,10.2,6.9,13.5,14c9.8,7.7,18.3,16.5,28.3,24.1c0.1,0.1,1.7,0.3,2.8,0.9c-6.1,3.8-10.1,10.7-9.8,19.6
			c-0.1-0.1-2-1.6-2.1-1.6c-7-4.5-14.4-8.3-20.5-12.6c-4.2,5.3-7,18.3-7.1,23.8c-0.9,1.9-1.1,3.6-1.5,5.3c0,1.3,0,2.6,0,4.1
			c5.7,6.1,12.6,23.3,15.1,37.4c0.5,1.9-0.1,3-1.5,3.8c-3,1.7-6.6,3.4-10.3,4c-17.5-0.7-34.1-2.4-50.9-4.5c-3.6-1.2-6.1-1.9-8.5-3.8
			c-1.7-0.8-1.7-1.3-1.6-2.8c2.4-11.4,5-22.5,9.7-33.7c0.1-0.5,0.3-1.1,0.5-1.6c0-2.1,0.4-4.2,0.3-6.2c0-2.9-1.2-4.2-1.7-6.7
			C428.9,337.3,426.8,323.3,426.8,309.2L426.8,309.2z"/>
		<path class="st2" d="M437.1,356.5v6.3c-0.9-0.5-2-1.2-2.8-1.9c0-2.1,0.4-4.1,0.4-6.1C435.5,355.5,436.3,356.1,437.1,356.5
			L437.1,356.5z"/>
		<path class="st2" d="M438.9,364.6v-8.9c2.1,1.5,4.4,2.6,6.7,3.3v8.6C443.3,366.9,441,365.9,438.9,364.6L438.9,364.6z"/>
		<path class="st2" d="M447.5,366.4v-6.1c11.5,2.6,24.1,1.2,31.4-4.4c0,2-0.3,4-0.3,6.1C471.3,367.8,458.4,368.6,447.5,366.4
			L447.5,366.4z"/>
		<path class="st2" d="M385.1,300.2l-32.9,13.5c-1.2,0.9-1.7,2.6-1.6,4.2c1.2,4.6,2.1,7.9,3,10.5c0.9,2.5,2.1,3,3.3,3.3l35.1-9.7
			C394.9,312.8,392.5,303.9,385.1,300.2L385.1,300.2z"/>
		<path class="st2" d="M354,316.6c-5.5,1.2-10.2-0.9-16.7,0.5c-4.5,0.5-4.9,2.9-8.4,4.7c-0.4,0.3-0.3,1.1,0,1.7
			c-4.5,2.3-12,4.3-11.3,6c0.6,1.7,2.8,1.9,15.5-1.8c-12.6,3.8-15.8,2.6-15.2,5.4c0.5,2.7,5.5,1.5,17.5-2.1
			c-12,3.6-15.3,3.7-14.2,5.5c1.1,1.8,5.3,0.8,16.3-2.3c-11,2.9-11.6,3.1-10.7,4.6c0.9,1.5,1.5,0.5,5.3-0.1c3.8-0.6,11-2.6,16.2-5.3
			c2.2-1.7,3.1-3.5,8.5-4.6C357.3,325,356.7,319.8,354,316.6L354,316.6z"/>
		<path class="st4" d="M347.9,324.1c-1.7,1.1-3.8,2-6.5,1.2c-2-0.3-2.9-2.2-4.8-2.6c-1.5,0.9-2.8,2.3-4.6,2.5
			c-2.2,0.5-3.2-0.5-3.6-2.5"/>
		<path class="st2" d="M549.4,347.3c2-0.1,4.9,1.5,7.4,1.9c3.8,0.3,7.5,0.1,11,1.3c3.4,1.2,7,3.4,9.7,6.1c1.1,1.5-1.1,2.8-2.1,2.8
			c2,1.7,5.2,3,6,5c-1.1,1.2,1.7,3.6-10.6-3c8.9,4.6,12.2,5.3,10.8,7.3c-1.3,2-4.1-0.3-13-4c-0.1,0,11.4,4.5,10.8,5.8
			c0,0,0.3,1.2-1.6,1.2c0,0-1.1,0-10.7-4.5c8.1,3.7,9.9,4,8.7,5.7c-0.8,0.8-2.5,0.1-4.4-0.3c-2.5-1.2-4.8-1.6-6.9-2.4
			c-4.6-1.3-9.9-2.6-13-6.1c-3.8-2.9-5-4.9-8.1-8.2L549.4,347.3L549.4,347.3z"/>
		<path class="st2" d="M519.4,324.8c0.1,0.1,1.7-2.5,4-1.1c10.1,7,19.7,14.9,29.6,22.6c-0.3,0.1,0.7,1.5,0.5,1.5
			c-6.3,1.7-8.5,6.2-5.8,13c-1.1,0.5-2.1,0.3-3.6-0.4c-11.1-5.4-22-11-32.4-16.8c0-0.5-0.3,2-0.1-2
			C511.7,335.4,513.1,330,519.4,324.8L519.4,324.8z"/>
		<path class="st4" d="M558.4,357.5c1.2,0.7,2.4,1.7,3.8,2c1.9-0.3,2.9-1.9,4.5-2.6c1.3-0.4,2.5-0.1,3.8,0.3l4.5,2.1"/>
		<path class="st2" d="M452.8,257.8c5.2-0.3,9.1,0.9,14.2,1.9c0.5-11-2.1-24.2-11.5-25.9c-2.3-0.1-4.5-0.3-6.7-0.4
			c-9.7,0.3-15.6,13.4-17.7,24.2C436.7,259.4,441.7,259.5,452.8,257.8L452.8,257.8z"/>
		<path class="st2" d="M431.1,257.5c7.4,2.6,15.1,1.2,21.4,0.3c5.2-0.4,9.9,1.3,14.4,1.7c0.9,2.6,2,5.3,3,7.9
			c-12.7-4.5-31.2,3-43.1-3.8C426.9,261,429.4,259.5,431.1,257.5L431.1,257.5z"/>
		<path class="st2" d="M434.4,246.4l5.3,1.3l-0.7,2.5c0.9,0.9,1.3,2.6,0.9,4.2c-0.5,2-1.9,3.3-3.3,3.6l-0.7,2.1l-5.3-1.6
			C431.8,254.1,432.8,250.4,434.4,246.4L434.4,246.4z"/>
		<path class="st2" d="M435.8,266.4c10.8,0.5,14.7-1.1,26.7-0.5c2.2,0.7-0.8,4.8-2.1,6.7c-0.3,0.3-4.9,0.5-3.7,0.9
			c2.1-0.5,3.6-0.9,5.3-0.7c0.8,0.1,0.4,1.7,0.7,2.6c0.5,1.5,3,2.4,2.4,3.8c-3.4,7-8.9,13.8-13.6,20c-3,4.6-4.6,6.5-11,12.6
			c-1.3-8.6-1.5-13.4-0.8-19.7c0.7-2.5,1.7-4.8,3.4-6.3c2.9-2.1,8.3-1.7,11-7.1c-5.6,4.4-8.6,4.2-13.4,4.8c-1.9-0.4-2,0-2.4-1.3
			c-0.3-0.8,0-1.7-0.1-2.4c-0.1-0.5-0.9-0.8-1.1-1.2c-0.1-0.3-0.3-1.2,0-1.2c1.2-0.1,2.2,0.1,4.1,0.4c2.3,0.7-1.9-1.2-2.6-1.3
			c-0.8-0.3-2,0.4-2.6-0.3c-0.4-0.7,1.6-1.9,1.1-2.2c-0.8-0.7-1.6,0.1-2.9,0.1c-1.2,0-1.6-1.2-1.1-2.2
			C433.9,270.1,434.7,268.5,435.8,266.4L435.8,266.4z"/>
		<path class="st3" d="M435.6,266.5c11.8,0.8,24.9-2.5,34.4,1.1c0.5,0-0.3,1.7-0.7,1.9c-1.9,0.4-4,0.8-5.8,0.8c0,0-3.2,3.3,1.7,6.5
			c-0.1,0.1-0.1,1.1-1.3,0.5c-2.5-1.3-3.6-3.6-3.7-4.6c0,0,3-4.1,2.2-5.3c-0.3-0.3-1.7-0.4-2.2-0.1c-0.9,0.4-1.9,2.2-2.2,2.2
			c-0.4,0,0.7-1.3,0.5-1.6c0-0.3-1.6-0.4-1.6-0.4c-1.6,0.9-2.4,2.5-4.2,4.2h-2.4c0.4-1.3,1.1-2,1.3-3.8c-2.6-0.4-6.3-0.4-8.6,0.3
			c-1.6,0.7-1.9,0.9-3.2,0.8C438.5,268.8,437.7,267.6,435.6,266.5L435.6,266.5z"/>
		<path class="st4" d="M444.6,285c2.4,2.6,3.4,10.1,5.8,15.3"/>
		<path class="st4" d="M439.6,293.8c7.7-6.2,16.1-7.4,23.9-16.8"/>
		<path class="st3" d="M442.8,291.5l4-2.5l1.5,4.5c-0.7,1.1-1.5,1.7-2,3.4c-0.3,2.2,0.3,5.6,0.5,8.5l-6.5,7l-0.7-7.1
			c1.5-3.2,3.7-6.3,4.4-9.3C444.1,294.4,443.2,293,442.8,291.5L442.8,291.5z"/>
	</g>
</g>
</svg>
