<?xml version="1.0" encoding="utf-8"?>
<!-- Generator: Adobe Illustrator 19.2.0, SVG Export Plug-In . SVG Version: 6.00 Build 0)  -->
<svg version="1.1" id="Livello_1" xmlns="http://www.w3.org/2000/svg" xmlns:xlink="http://www.w3.org/1999/xlink" x="0px" y="0px"
	 viewBox="0 0 960 960" style="enable-background:new 0 0 960 960;" xml:space="preserve">
<style type="text/css">
	.st0{fill:#CED0D1;}
	.st1{fill:none;stroke:#FFFFFF;stroke-width:11.9751;stroke-miterlimit:2.6131;}
	.st2{fill:#FBE918;}
	.st3{fill:#E2E3E4;}
	.st4{fill:none;stroke:#1A171B;stroke-width:5.9875;}
	.st5{fill-rule:evenodd;clip-rule:evenodd;fill:#1A171B;stroke:#1A171B;stroke-width:1.2933;stroke-miterlimit:2.6131;}
	.st6{fill:#FFFFFF;stroke:#58585A;stroke-width:5.9875;stroke-miterlimit:2.6131;}
	.st7{fill:#1A171B;stroke:#1A171B;stroke-width:5.9875;}
	.st8{fill:#FFFFFF;}
	.st9{fill:#58585A;}
</style>
<g>
	<rect x="113.3" y="308.6" class="st0" width="733.5" height="531.4"/>
	<line class="st1" x1="832" y1="308.8" x2="832" y2="827.5"/>
	<line class="st1" x1="837.8" y1="827.3" x2="530.9" y2="827.3"/>
	<line class="st1" x1="126.7" y1="840" x2="126.7" y2="311.6"/>
	<path class="st2" d="M277.2,735.8l0-69.1 M277.2,803l0-63.2 M277.3,458.3l0-93.9l-12,0l0,13.3l-20.2-23.2l-21,8l36.9,42.1l4.9,4.7
		l-0.6,36.1l-86.7-93.5l-15.4,14.2l100.4,108.3l2.3,2.4l-0.6,35.8L155.2,393.9l-1.9,1.7l0-34.6l-12,0l0,45.7l0,3.1l0.1,65.6
		l-1.8,1.7l1.8-1.7l0.1,68l0,0l0,2.9l0.1,70.1l0,0l0,3.8l0,64.2l0,0l0,3.2l0.1,70.9l0,0v3l0.1,72.5l6.8,0l1.2,1.1l1-1.1l3.1,0v-0.7
		h57.5h5l0,0h49v0.7h12v-0.7h247.7v0.7h12V305.6h-12v515.7H277.2l0-13.4 M277.3,525.5l0-63.8 M277.3,594.7l0-64.9 M277.2,661.9
		l0-63.3 M153.7,809.9l0,5.7l0-41.7l46,47.4h-37.5h7.4L153.7,809.9z M155,462.8l-1.6,1.5l0-41.6l110.7,119.4l1.9,1l-0.6,38.7
		L155,462.8z M263.9,611l1.4,2l0,36L155.4,530.5l-1.9,1.8l0-40.4L263.9,611z M264.2,678.7l1-0.9l0,45.1L155,604l-1.5,1.4l0-46.1
		L264.2,678.7z M263.9,752.2l1.4-1.3l0,39.2L155.4,671.7l-1.8,1.7l0-40.1L263.9,752.2z M155.2,745.4l-1.6,1.6l0-46.4l110.7,119.3
		l1-0.9v2.3h-36.6l0.1-0.1L155.2,745.4z"/>
	<rect x="113.3" y="120" class="st3" width="733.5" height="188.6"/>
	<rect x="150.7" y="293.6" class="st3" width="118.3" height="67.4"/>
	<line class="st4" x1="113.3" y1="308.6" x2="150.7" y2="308.6"/>
	<line class="st4" x1="150.7" y1="305.6" x2="150.7" y2="361"/>
	<line class="st4" x1="147.3" y1="361" x2="271.6" y2="361"/>
	<line class="st4" x1="268.9" y1="361" x2="268.9" y2="308.6"/>
	<line class="st4" x1="265.9" y1="308.6" x2="846.7" y2="308.6"/>
	<line class="st4" x1="148.4" y1="361.9" x2="142" y2="310.1"/>
	<line class="st4" x1="271.6" y1="362.5" x2="278.1" y2="308.6"/>
	<path class="st5" d="M343.8,297.2h52.7c1.4,0,2.5-1.1,2.5-2.3v-1.8c0-1.3-1.1-2.3-2.5-2.3h-52.7c-1.4,0-2.5,1.1-2.5,2.3v1.8
		C341.3,296.1,342.4,297.2,343.8,297.2L343.8,297.2z"/>
	<path class="st5" d="M370.3,280.5c-1.9,0-3.5,1.6-3.5,3.5c0,1.9,1.6,3.5,3.5,3.5c1.9,0,3.5-1.6,3.5-3.5
		C373.8,282,372.2,280.5,370.3,280.5L370.3,280.5z"/>
	<path class="st6" d="M492.7,389.1c-19.6-35.6-47-37.1-47-37.1h-41.4h-41.4c0,0-27.3,1.5-47,37.1c-24,43.4-24,69.2-24,69.2v286v13.4
		v11c0,0,15.3,10.7,36.9,15c21,4.1,75.3,4,75.3,4s54.3,0.1,75.3-4c21.6-4.2,36.9-15,36.9-15v-11v-13.4v-286
		C516.7,458.3,516.7,432.5,492.7,389.1z"/>
	<path class="st6" d="M777.1,389.1c-19.6-35.6-47-37.1-47-37.1h-41.4h-41.4c0,0-27.3,1.5-47,37.1c-24,43.4-24,69.2-24,69.2v286v13.4
		v11c0,0,15.3,10.7,36.9,15c21,4.1,75.3,4,75.3,4s54.3,0.1,75.3-4c21.6-4.2,36.9-15,36.9-15v-11v-13.4v-286
		C801.1,458.3,801.1,432.5,777.1,389.1z"/>
	<line class="st7" x1="209.4" y1="359" x2="209.4" y2="338"/>
	<polyline class="st8" points="181.8,338 237.6,338 209.7,305.6 	"/>
	<g>
		<rect x="401.4" y="368.5" class="st9" width="6" height="81.6"/>
		<rect x="401.4" y="720.2" class="st9" width="6" height="42.7"/>
		<path class="st9" d="M311.2,692.4c0.6,0.6,14.8,14.6,30.9,18.3c12.3,2.8,42.7,3.1,56,3.1c3.6,0,5.9,0,6.3,0c0.4,0,2.8,0,6.3,0
			c13.3,0,43.7-0.3,56-3.1c16.1-3.6,30.3-17.7,30.9-18.3l-4.2-4.2c-0.1,0.1-13.5,13.4-28,16.7c-14.9,3.4-60.5,2.9-60.9,2.9l0,3l0-3
			c-0.5,0-46,0.5-60.9-2.9c-14.4-3.3-27.9-16.5-28-16.7L311.2,692.4z"/>
		<path class="st9" d="M376.5,683.6c13,0,26.9-0.2,28-0.2c1,0,14.9,0.2,28,0.2c6.8,0,13.3-0.1,17.7-0.2c13.3-0.5,25-6,25.5-6.3
			l-2.6-5.4c-0.1,0.1-11.1,5.2-23.1,5.7c-12.6,0.5-45.1,0-45.4,0l0,3l0-3c-0.3,0-32.8,0.5-45.4,0c-12.1-0.5-23-5.6-23.1-5.7
			l-2.6,5.4c0.5,0.2,12.2,5.8,25.5,6.3C363.1,683.5,369.7,683.6,376.5,683.6z"/>
		<path class="st9" d="M306.9,747.4l-4.9,3.4c0.5,0.7,11.8,17.1,29.9,19.3c14.6,1.8,57.5,2.1,70.6,2.1v0c0.2,0,1,0,1.9,0
			c1,0,1.7,0,1.9,0v0c13.1,0,56-0.3,70.6-2.1c18.1-2.2,29.4-18.6,29.9-19.3l-4.9-3.4c-0.1,0.1-10.3,14.8-25.7,16.7
			c-14.9,1.8-62,2-71.8,2.1c-9.8,0-56.9-0.2-71.8-2.1C317.2,762.2,307,747.5,306.9,747.4z"/>
		<path class="st9" d="M516.7,584h-5.5c0-10.7,0-23.4,0-38.9l-0.1-52.5c0-0.2,0.1-5.9,0.3-13.6l4.9-3.7l-1.8-2.4l0.8-2.9
			c-0.1,0-1.4-0.4-3.6-0.9c0.3-12,0.8-25.3,1.3-31.1l-6-0.6c-0.5,5.8-1,18.4-1.3,30.1c-10.3-2.6-27.4-6.7-42.7-9.6
			c-18.3-3.5-56.9-3.4-58.6-3.4l0,0c-1.7,0-40.3,0-58.6,3.4c-15.3,2.9-32.4,7-42.7,9.6c-0.3-11.7-0.8-24.4-1.3-30.1l-6,0.6
			c0.5,5.8,1,19.1,1.3,31.1c-2.2,0.6-3.5,0.9-3.6,0.9l0.8,2.9l-1.8,2.4l4.9,3.7c0.2,7.7,0.3,13.4,0.3,13.6l-0.1,52.6
			c0,15.5,0,28.2,0,38.8h-5.5v6h5.4c0,42.5,0,48.1,0.1,69.2c0,8.2-0.3,20.9-0.7,34.7l-4.4,3.5l3.7,4.7l0.5-0.4
			c-1.1,29.6-2.6,60.9-2.6,61.4l6,0.3c0-0.5,1.7-35.5,2.8-66.5l29.3-23l-1.8-2.4l3,0.2c0-0.6,4.2-64.5,4.3-87.8
			c0.1-41.2-1.1-71.1-1.5-79.4c5.9-1.7,22.2-6.1,32-7.1c12.3-1.2,35.8-1.5,36.4-1.5c0.5,0,24.1,0.3,36.4,1.5c9.8,1,26.1,5.4,32,7.1
			c-0.4,8.3-1.6,38.2-1.5,79.4c0,23.3,4.2,87.1,4.3,87.8l3-0.2l-1.8,2.4l29.3,23c1.1,31,2.8,66,2.8,66.5l6-0.3
			c0-0.5-1.6-31.8-2.6-61.4l0.5,0.4l3.7-4.7l-4.4-3.5c-0.5-13.8-0.8-26.5-0.7-34.7c0.1-21.2,0.2-26.8,0.1-69.2h5.4V584z
			 M505.2,545.1c0,15.5,0,28.3,0,38.9h-28v0c-0.1-42.8,1.2-73.5,1.6-80l26.5-20.3c-0.1,5-0.2,8.4-0.2,8.9L505.2,545.1z M303.5,483.7
			L330,504c0.3,6.6,1.6,37.2,1.6,80v0h-28c0-10.6,0-23.3,0-38.8l0.1-52.7C303.7,492.1,303.6,488.6,303.5,483.7z M303.7,659.2
			c-0.1-21.2-0.2-26.8-0.1-69.2h27.9c-0.5,24.2-3.5,71.6-4.1,80l-24.3,19.1C303.5,677.3,303.7,666.5,303.7,659.2z M404.4,490.1l0,3
			L404.4,490.1c-1,0-24.3,0.3-37,1.5c-10.9,1.1-28.7,6-33.9,7.5L303.4,476c0-0.8,0-1.5-0.1-2.3c10.1-2.5,27.8-6.9,43.7-9.9
			c17.7-3.4,57-3.3,57.4-3.3l0-3l0,3c0.3-0.1,39.7,0,57.4,3.3c15.8,3,33.6,7.3,43.6,9.9c0,0.8,0,1.5-0.1,2.3l-30.2,23.1
			c-5.2-1.5-23-6.5-33.9-7.5C428.7,490.4,405.4,490.1,404.4,490.1z M505.1,659.2c0,7.3,0.2,18,0.6,29.9l-24.3-19.1
			c-0.5-8.4-3.5-55.8-4.1-80h27.9C505.3,632.5,505.3,638.1,505.1,659.2z"/>
		<path class="st9" d="M480.2,773.5l-1.2,0.2c-13.8,2.1-13.8,2.1-47.9,2.6l-26.6,0.4l-26.7-0.4c-34.1-0.5-34.1-0.5-47.9-2.6
			l-1.2-0.2c-13.2-2-22.8-12.4-22.9-12.5l-4.4,4c0.4,0.5,11.1,12.1,26.4,14.5l1.2,0.2c14.2,2.2,14.2,2.2,48.7,2.6l23.9,0.3v0.1
			l2.8,0l2.8,0v-0.1l23.9-0.3c34.5-0.5,34.5-0.5,48.7-2.6l1.2-0.2c15.3-2.4,26-14,26.4-14.5l-4.4-4C503,761,493.5,771.4,480.2,773.5
			z"/>
		<path class="st9" d="M356.1,359.6c13.6-1.6,48-1.6,48.3-1.6l40.9,0c0.2,0,19,1.6,29.8,16.8l9.7-7c-14.2-19.8-37.7-21.7-39.1-21.8
			h-41.4c-1.4,0-35.5,0-49.7,1.7c-16.1,1.9-35.2,25.4-37.3,28.1l9.4,7.4C333.6,374.7,347.6,360.6,356.1,359.6z"/>
	</g>
	<g>
		<rect x="685.8" y="368.5" class="st9" width="6" height="81.6"/>
		<rect x="685.8" y="720.2" class="st9" width="6" height="42.7"/>
		<path class="st9" d="M595.6,692.4c0.6,0.6,14.8,14.6,30.9,18.3c12.3,2.8,42.5,3.1,55.9,3.1c3.6,0,6,0,6.4,0c0.5,0,2.8,0,6.4,0
			c13.3,0,43.6-0.3,55.9-3.1c16.1-3.6,30.3-17.7,30.9-18.3l-4.2-4.2c-0.1,0.1-13.5,13.4-28,16.7c-15,3.4-60.5,2.9-60.9,2.9l0,3l0-3
			c-0.4,0-46,0.5-60.9-2.9c-14.4-3.3-27.9-16.5-28-16.7L595.6,692.4z"/>
		<path class="st9" d="M660.9,683.5c13,0,26.9-0.2,28-0.2c1,0,14.9,0.2,27.9,0.2c6.8,0,13.3-0.1,17.7-0.2c13.3-0.5,25-6,25.5-6.3
			l-2.6-5.4c-0.1,0.1-11.1,5.2-23.1,5.7c-12.6,0.5-45,0-45.4,0l0,3l0-3c-0.3,0-32.8,0.5-45.4,0c-12.1-0.5-23-5.6-23.1-5.7l-2.6,5.4
			c0.5,0.2,12.2,5.8,25.5,6.3C647.5,683.5,654.1,683.5,660.9,683.5z"/>
		<path class="st9" d="M591.3,747.4l-4.9,3.4c0.5,0.7,11.8,17.1,29.9,19.3c14.6,1.8,57.5,2.1,70.6,2.1v0c0.2,0,1,0,1.9,0
			c1,0,1.7,0,1.9,0v0c13.1,0,56-0.3,70.6-2.1c18.1-2.2,29.4-18.6,29.9-19.3l-4.9-3.4c-0.1,0.1-10.3,14.8-25.7,16.7
			c-14.9,1.8-62,2-71.8,2.1c-9.8,0-56.9-0.2-71.8-2.1C601.6,762.2,591.4,747.5,591.3,747.4z"/>
		<path class="st9" d="M801.1,584h-5.5c0-10.7,0-23.4,0-38.9l-0.1-52.5c0-0.2,0.1-5.9,0.3-13.6l4.9-3.7l-1.8-2.4l0.8-2.9
			c-0.1,0-1.4-0.4-3.6-0.9c0.3-12,0.8-25.3,1.3-31.1l-6-0.6c-0.5,5.7-1,18.4-1.3,30.1c-10.3-2.6-27.4-6.7-42.7-9.6
			c-18.3-3.5-57-3.4-58.6-3.4l0,0c-1.6,0.1-40.3,0-58.6,3.4c-15.3,2.9-32.4,7-42.7,9.6c-0.3-11.7-0.8-24.4-1.3-30.1l-6,0.6
			c0.5,5.8,1,19.1,1.3,31.1c-2.2,0.6-3.5,0.9-3.6,0.9l0.8,2.9l-1.8,2.4l4.9,3.7c0.2,7.7,0.3,13.4,0.3,13.6l-0.1,52.7
			c0,15.5,0,28.1,0,38.7h-5.4v6h5.4c0,42.5,0,48.1,0.1,69.2c0,8.2-0.3,20.9-0.7,34.7l-4.4,3.5l3.7,4.7l0.5-0.4
			c-1.1,29.6-2.6,60.9-2.6,61.4l6,0.3c0-0.5,1.8-35.5,2.8-66.5l29.3-23l-1.8-2.4l3,0.2c0-0.6,4.2-64.5,4.3-87.8
			c0.1-41.2-1.1-71.1-1.5-79.4c5.9-1.7,22.2-6.1,32-7.1c12.3-1.2,35.9-1.5,36.4-1.5c0.5,0,24,0.3,36.4,1.5c9.8,1,26.1,5.4,32,7.1
			c-0.4,8.3-1.6,38.2-1.5,79.4c0,23.3,4.2,87.1,4.3,87.8l3-0.2l-1.8,2.4l29.3,23c1.1,31,2.8,66,2.8,66.5l6-0.3
			c0-0.5-1.6-31.8-2.6-61.4l0.5,0.4l3.7-4.7l-4.4-3.5c-0.5-13.8-0.8-26.5-0.7-34.7c0.1-21.2,0.2-26.8,0.1-69.2h5.4V584z
			 M789.6,545.1c0,15.5,0,28.3,0,38.9h-28v0c-0.1-42.8,1.2-73.5,1.6-80l26.5-20.3c-0.1,5-0.2,8.4-0.2,8.9L789.6,545.1z M587.9,483.7
			l26.5,20.3c0.3,6.6,1.6,37.2,1.6,80v0h-28c0-10.6,0-23.3,0-38.7l0.1-52.7C588.1,492.1,588,488.6,587.9,483.7z M588.1,659.2
			c-0.1-21.2-0.2-26.8-0.1-69.2h27.9c-0.5,24.2-3.5,71.6-4.1,80l-24.3,19.1C587.9,677.3,588.1,666.5,588.1,659.2z M688.8,490.1l0,3
			L688.8,490.1c-1,0-24.3,0.3-37,1.5c-10.9,1.1-28.7,6-33.9,7.5L587.8,476c0-0.8,0-1.5-0.1-2.3c10.1-2.5,27.8-6.9,43.7-9.9
			c17.7-3.3,57-3.3,57.4-3.3l0-3l0,3c0.5,0,39.7,0,57.4,3.3c15.8,3,33.6,7.3,43.6,9.9c0,0.8,0,1.6-0.1,2.3l-30.2,23.1
			c-5.2-1.5-23-6.5-33.9-7.5C713.1,490.4,689.8,490.1,688.8,490.1z M789.5,659.2c0,7.3,0.2,18,0.6,29.9l-24.3-19.1
			c-0.5-8.4-3.5-55.8-4.1-80h27.9C789.7,632.5,789.7,638.1,789.5,659.2z"/>
		<path class="st9" d="M764.6,773.4l-1.2,0.2c-13.8,2.1-13.8,2.1-47.9,2.6l-26.6,0.4l-26.7-0.4c-34.1-0.5-34.1-0.5-47.9-2.6
			l-1.2-0.2c-13.2-2-22.8-12.4-22.9-12.5l-4.4,4c0.4,0.5,11.1,12.1,26.4,14.4l1.2,0.2c14.2,2.2,14.2,2.2,48.8,2.6l24,0.3v0.1l2.8,0
			l2.8,0v-0.1l23.9-0.3c34.5-0.5,34.5-0.5,48.7-2.6l1.2-0.2c15.3-2.3,26-14,26.4-14.4l-4.4-4C787.4,761,777.8,771.4,764.6,773.4z"/>
		<path class="st9" d="M641.9,359.6c13.6-1.6,48-1.6,48.3-1.6l40.9,0c0.2,0,19,1.6,29.8,16.8l9.7-7C756.5,348,733,346.1,731.6,346
			h-41.4c-1.4,0-35.5,0-49.7,1.7c-16.1,1.9-35.2,25.4-37.3,28.1l9.4,7.4C619.5,374.7,633.5,360.6,641.9,359.6z"/>
	</g>
</g>
</svg>
