<?xml version="1.0" encoding="utf-8"?>
<!-- Generator: Adobe Illustrator 19.2.0, SVG Export Plug-In . SVG Version: 6.00 Build 0)  -->
<svg version="1.1" id="Livello_1" xmlns="http://www.w3.org/2000/svg" xmlns:xlink="http://www.w3.org/1999/xlink" x="0px" y="0px"
	 viewBox="0 0 960 960" style="enable-background:new 0 0 960 960;" xml:space="preserve">
<style type="text/css">
	.st0{fill-rule:evenodd;clip-rule:evenodd;fill:#CECFD1;}
	.st1{fill-rule:evenodd;clip-rule:evenodd;fill:#FFFFFF;}
</style>
<g>
	<g>
		<polygon class="st0" points="45.1,314.5 915,314.5 915,645.5 45.1,645.5 45.1,314.5 		"/>
		<polygon class="st1" points="45.1,615.2 915,615.2 915,629.7 45.1,629.7 45.1,615.2 		"/>
		<polygon class="st1" points="45.1,330.1 915,330.1 915,344.6 45.1,344.6 45.1,330.1 		"/>
		<polygon class="st1" points="527.4,472.2 600,472.2 600,486.6 527.4,486.6 527.4,472.2 		"/>
		<polygon class="st1" points="359.9,472.2 432.5,472.2 432.5,486.6 359.9,486.6 359.9,472.2 		"/>
		<polygon class="st1" points="192.2,472.2 264.8,472.2 264.8,486.6 192.2,486.6 192.2,472.2 		"/>
		<polygon class="st1" points="45,486.6 45,472.2 97.2,472.2 97.2,486.6 45,486.6 		"/>
		<polygon class="st1" points="695.1,472.2 767.7,472.2 767.7,486.6 695.1,486.6 695.1,472.2 		"/>
		<polygon class="st1" points="915,472.2 915,486.6 862.6,486.6 862.6,472.2 915,472.2 		"/>
	</g>
</g>
</svg>
