<?xml version="1.0" encoding="utf-8"?>
<!-- Generator: Adobe Illustrator 19.2.0, SVG Export Plug-In . SVG Version: 6.00 Build 0)  -->
<svg version="1.1" id="Livello_1" xmlns="http://www.w3.org/2000/svg" xmlns:xlink="http://www.w3.org/1999/xlink" x="0px" y="0px"
	 viewBox="0 0 960 960" style="enable-background:new 0 0 960 960;" xml:space="preserve">
<style type="text/css">
	.st0{fill-rule:evenodd;clip-rule:evenodd;fill:#CECFD1;}
	.st1{fill-rule:evenodd;clip-rule:evenodd;fill:#FFFFFF;}
</style>
<g>
	<g>
		<path class="st0" d="M45,417.5h238.8c28.7,0,43-16.6,43-43.4V211.5h307.8v162.5c0,27.9,12.9,43.5,43.7,43.5H915v331.1H45V417.5
			L45,417.5z"/>
		<polygon class="st1" points="604.5,417 604.6,211.5 619,211.5 619,417 604.5,417 		"/>
		<polygon class="st1" points="342.4,417 342.4,211.5 356.9,211.5 356.9,417 342.4,417 		"/>
		<polygon class="st1" points="358.2,433.1 389.7,433.1 389.7,447.5 358.2,447.5 358.2,433.1 		"/>
		<polygon class="st1" points="518.3,433.1 549.8,433.1 549.8,447.5 518.3,447.5 518.3,433.1 		"/>
		<polygon class="st1" points="411.4,433.1 442.8,433.1 442.8,447.5 411.4,447.5 411.4,433.1 		"/>
		<polygon class="st1" points="571.5,433.1 603,433.1 603,447.5 571.5,447.5 571.5,433.1 		"/>
		<polygon class="st1" points="304.9,433.1 336.4,433.1 336.4,447.5 304.9,447.5 304.9,433.1 		"/>
		<polygon class="st1" points="464.8,433.1 496.2,433.1 496.2,447.5 464.7,447.5 464.8,433.1 		"/>
		<polygon class="st1" points="624.9,433.1 656.3,433.1 656.3,447.5 624.9,447.5 624.9,433.1 		"/>
		<polygon class="st1" points="45,718.2 915,718.2 915,732.7 45,732.7 45,718.2 		"/>
		<polygon class="st1" points="430.9,575.2 533.5,575.2 533.5,589.6 430.9,589.6 430.9,575.2 		"/>
		<polygon class="st1" points="575.2,575.2 677.8,575.2 677.8,589.6 575.2,589.6 575.2,575.2 		"/>
		<polygon class="st1" points="286.6,575.2 389.2,575.2 389.2,589.6 286.6,589.6 286.6,575.2 		"/>
		<polygon class="st1" points="142.3,575.2 244.9,575.2 244.9,589.6 142.3,589.6 142.3,575.2 		"/>
		<polygon class="st1" points="45,589.6 45,575.2 100.5,575.2 100.5,589.6 45,589.6 		"/>
		<polygon class="st1" points="719.6,575.2 822.2,575.2 822.2,589.6 719.6,589.6 719.6,575.2 		"/>
		<polygon class="st1" points="863.9,575.2 915,575.2 915,589.6 863.9,589.6 863.9,575.2 		"/>
		<path class="st1" d="M45,433.1h238.6v14.4H45V433.1L45,433.1z M678.2,433.1H915v14.4H678.2V433.1L678.2,433.1z"/>
	</g>
</g>
</svg>
