<?xml version="1.0" encoding="utf-8"?>
<!-- Generator: Adobe Illustrator 19.2.0, SVG Export Plug-In . SVG Version: 6.00 Build 0)  -->
<svg version="1.1" id="Livello_1" xmlns="http://www.w3.org/2000/svg" xmlns:xlink="http://www.w3.org/1999/xlink" x="0px" y="0px"
	 viewBox="0 0 960 960" style="enable-background:new 0 0 960 960;" xml:space="preserve">
<style type="text/css">
	.st0{fill-rule:evenodd;clip-rule:evenodd;fill:#E2E3E4;}
	.st1{fill-rule:evenodd;clip-rule:evenodd;fill:#CECFD1;}
	.st2{fill-rule:evenodd;clip-rule:evenodd;fill:#FFFFFF;}
</style>
<g>
	<g>
		<polygon class="st0" points="563.7,328.7 563.7,328.8 839.3,328.8 839.3,613.2 563.7,613.2 563.7,840 396.5,840 396.5,631.3 
			396.3,631.3 396.3,631.2 120.7,631.2 120.7,346.8 396.3,346.8 396.3,120 563.5,120 563.5,328.7 563.7,328.7 		"/>
		<path class="st1" d="M391.3,370.1H121v237.7h270.5c16.2-0.1,28.5,12.5,28.5,27.7V840h120.4l0.1-221.3c0-17.7,12.6-28.8,29.2-28.8
			h269.7V352.2h-271c-13.9,0-27.8-10.9-27.8-29.2V120.1H420.1v222C420,357.1,406.6,370.1,391.3,370.1L391.3,370.1z"/>
		<polygon class="st2" points="551.4,471.6 839.3,471.6 839.3,475.1 551.4,475.1 551.4,471.6 		"/>
		<polygon class="st2" points="408.9,489.5 121,489.5 121,493 408.9,493 408.9,489.5 		"/>
		<polygon class="st2" points="551.4,466.3 839.2,466.3 839.2,469.8 551.4,469.8 551.4,466.3 		"/>
		<polygon class="st2" points="408.9,484.3 121.1,484.3 121.1,487.8 408.9,487.8 408.9,484.3 		"/>
		<polygon class="st2" points="551.4,411.2 572.1,411.2 572.1,414.8 551.4,414.8 551.4,411.2 		"/>
		<polygon class="st2" points="408.8,429.2 388.1,429.2 388.1,432.7 408.8,432.7 408.8,429.2 		"/>
		<polygon class="st2" points="551.4,526.8 572.1,526.8 572.1,530.3 551.4,530.3 551.4,526.8 		"/>
		<polygon class="st2" points="408.8,544.8 388.1,544.8 388.1,548.3 408.8,548.3 408.8,544.8 		"/>
		<polygon class="st2" points="589.5,411.2 610.3,411.2 610.3,414.8 589.5,414.8 589.5,411.2 		"/>
		<polygon class="st2" points="370.7,429.2 350,429.2 350,432.7 370.7,432.7 370.7,429.2 		"/>
		<polygon class="st2" points="589.5,526.8 610.3,526.8 610.3,530.3 589.5,530.3 589.5,526.8 		"/>
		<polygon class="st2" points="370.7,544.8 350,544.8 350,548.3 370.7,548.3 370.7,544.8 		"/>
		<polygon class="st2" points="627.7,411.2 648.4,411.2 648.4,414.8 627.7,414.8 627.7,411.2 		"/>
		<polygon class="st2" points="332.6,429.2 311.8,429.2 311.8,432.7 332.6,432.7 332.6,429.2 		"/>
		<polygon class="st2" points="627.7,526.8 648.4,526.8 648.4,530.3 627.7,530.3 627.7,526.8 		"/>
		<polygon class="st2" points="332.6,544.8 311.8,544.8 311.8,548.3 332.6,548.3 332.6,544.8 		"/>
		<polygon class="st2" points="665.8,411.2 686.5,411.2 686.5,414.8 665.8,414.8 665.8,411.2 		"/>
		<polygon class="st2" points="294.4,429.2 273.7,429.2 273.7,432.7 294.4,432.7 294.4,429.2 		"/>
		<polygon class="st2" points="665.8,526.8 686.5,526.8 686.5,530.3 665.8,530.3 665.8,526.8 		"/>
		<polygon class="st2" points="294.4,544.8 273.7,544.8 273.7,548.3 294.4,548.3 294.4,544.8 		"/>
		<polygon class="st2" points="703.9,411.2 724.7,411.2 724.7,414.8 703.9,414.8 703.9,411.2 		"/>
		<polygon class="st2" points="256.3,429.2 235.6,429.2 235.6,432.7 256.3,432.7 256.3,429.2 		"/>
		<polygon class="st2" points="703.9,526.8 724.7,526.8 724.7,530.3 703.9,530.3 703.9,526.8 		"/>
		<polygon class="st2" points="256.3,544.8 235.6,544.8 235.6,548.3 256.3,548.3 256.3,544.8 		"/>
		<polygon class="st2" points="780.2,411.2 800.9,411.2 800.9,414.8 780.2,414.8 780.2,411.2 		"/>
		<polygon class="st2" points="180,429.2 159.3,429.2 159.3,432.7 180,432.7 180,429.2 		"/>
		<polygon class="st2" points="780.2,526.8 800.9,526.8 800.9,530.3 780.2,530.3 780.2,526.8 		"/>
		<polygon class="st2" points="180,544.8 159.3,544.8 159.3,548.3 180,548.3 180,544.8 		"/>
		<polygon class="st2" points="742.1,411.2 762.8,411.2 762.8,414.8 742.1,414.8 742.1,411.2 		"/>
		<polygon class="st2" points="218.2,429.2 197.4,429.2 197.4,432.7 218.2,432.7 218.2,429.2 		"/>
		<polygon class="st2" points="742.1,526.8 762.8,526.8 762.8,530.3 742.1,530.3 742.1,526.8 		"/>
		<polygon class="st2" points="218.2,544.8 197.4,544.8 197.4,548.3 218.2,548.3 218.2,544.8 		"/>
		<polygon class="st2" points="818.3,411.2 839.1,411.2 839.1,414.8 818.3,414.8 818.3,411.2 		"/>
		<polygon class="st2" points="141.9,429.2 121.2,429.2 121.2,432.7 141.9,432.7 141.9,429.2 		"/>
		<polygon class="st2" points="818.3,526.8 839.1,526.8 839.1,530.3 818.3,530.3 818.3,526.8 		"/>
		<polygon class="st2" points="141.9,544.8 121.2,544.8 121.2,548.3 141.9,548.3 141.9,544.8 		"/>
		<polygon class="st2" points="418.4,429.3 428.6,428.7 428.8,432.1 418.6,432.6 418.4,429.3 		"/>
		<polygon class="st2" points="437.9,427.7 448,425.9 448.5,429.3 438.4,431 437.9,427.7 		"/>
		<polygon class="st2" points="456.4,424.4 466.5,422.7 467.1,426 457,427.8 456.4,424.4 		"/>
		<polygon class="st2" points="475,421.2 485.1,419.4 485.6,422.8 475.6,424.5 475,421.2 		"/>
		<polygon class="st2" points="512.1,414.7 522.2,413 522.7,416.3 512.7,418.1 512.1,414.7 		"/>
		<polygon class="st2" points="493.5,418 503.6,416.2 504.2,419.6 494.1,421.3 493.5,418 		"/>
		<polygon class="st2" points="531.3,412.1 541.5,411.4 541.8,414.7 531.6,415.4 531.3,412.1 		"/>
		<polygon class="st2" points="418.4,486.8 428.6,486.3 428.8,489.6 418.6,490.2 418.4,486.8 		"/>
		<polygon class="st2" points="437.9,485.2 448,483.5 448.5,486.8 438.4,488.6 437.9,485.2 		"/>
		<polygon class="st2" points="456.4,482 466.5,480.2 467.1,483.6 457,485.3 456.4,482 		"/>
		<polygon class="st2" points="475,478.8 485.1,477 485.6,480.3 475.6,482.1 475,478.8 		"/>
		<polygon class="st2" points="512.1,472.3 522.2,470.5 522.7,473.9 512.7,475.6 512.1,472.3 		"/>
		<polygon class="st2" points="493.5,475.5 503.6,473.8 504.2,477.1 494.1,478.9 493.5,475.5 		"/>
		<polygon class="st2" points="531.3,469.6 541.5,468.9 541.8,472.2 531.6,473 531.3,469.6 		"/>
		<polygon class="st2" points="418.4,544.9 428.6,544.3 428.8,547.7 418.6,548.2 418.4,544.9 		"/>
		<polygon class="st2" points="437.9,543.3 448,541.5 448.5,544.9 438.4,546.6 437.9,543.3 		"/>
		<polygon class="st2" points="456.4,540 466.5,538.3 467.1,541.6 457,543.4 456.4,540 		"/>
		<polygon class="st2" points="475,536.8 485.1,535 485.6,538.4 475.6,540.1 475,536.8 		"/>
		<polygon class="st2" points="512.1,530.3 522.2,528.6 522.7,531.9 512.7,533.7 512.1,530.3 		"/>
		<polygon class="st2" points="493.5,533.6 503.6,531.8 504.2,535.1 494.1,536.9 493.5,533.6 		"/>
		<polygon class="st2" points="531.3,527.7 541.5,526.9 541.8,530.3 531.6,531 531.3,527.7 		"/>
		<polygon class="st2" points="481,352.2 481,120.1 484.4,120.1 484.4,351.5 481,352.2 		"/>
		<polygon class="st2" points="475.9,352.2 475.9,120.1 479.3,120.1 479.3,352.2 475.9,352.2 		"/>
		<path class="st2" d="M418.1,352.4l66.3-13.5v12.7l-91,18.5v-0.4C404.5,369.3,414,362.2,418.1,352.4L418.1,352.4z"/>
		<polygon class="st2" points="479.4,607.8 479.4,840 476,840 476,608.4 479.4,607.8 		"/>
		<polygon class="st2" points="484.4,607.8 484.4,840 481.1,840 481.1,607.8 484.4,607.8 		"/>
		<path class="st2" d="M542.2,607.5L476,621v-12.7l83.2-16.9C551.4,594.1,545.2,600,542.2,607.5L542.2,607.5z M566.4,589.9l0.6-0.1
			v0.1C566.8,589.9,566.6,589.9,566.4,589.9L566.4,589.9z"/>
	</g>
</g>
</svg>
