<?xml version="1.0" encoding="utf-8"?>
<!-- Generator: Adobe Illustrator 19.2.0, SVG Export Plug-In . SVG Version: 6.00 Build 0)  -->
<svg version="1.1" id="Livello_1" xmlns="http://www.w3.org/2000/svg" xmlns:xlink="http://www.w3.org/1999/xlink" x="0px" y="0px"
	 viewBox="0 0 960 960" style="enable-background:new 0 0 960 960;" xml:space="preserve">
<style type="text/css">
	.st0{fill-rule:evenodd;clip-rule:evenodd;fill:#E2E3E4;}
	.st1{fill-rule:evenodd;clip-rule:evenodd;fill:#CECFD1;}
	.st2{fill-rule:evenodd;clip-rule:evenodd;fill:#FFFFFF;}
	.st3{fill-rule:evenodd;clip-rule:evenodd;fill:#FFEC00;}
</style>
<g>
	<g>
		<polygon class="st0" points="874.5,120 874.5,839.7 85.5,839.7 85.5,120 874.5,120 		"/>
		<polygon class="st1" points="851.1,120 851.1,839.7 108.9,839.7 108.9,120 851.1,120 		"/>
		<polygon class="st2" points="478.8,482.5 478.8,839.7 474,839.7 474,482.5 478.8,482.5 		"/>
		<polygon class="st2" points="478.8,120 478.8,519.5 474,519.5 474,120 478.8,120 		"/>
		<polygon class="st2" points="486.1,482.5 486.1,839.6 481.3,839.6 481.3,482.5 486.1,482.5 		"/>
		<polygon class="st2" points="486.1,120 486.1,519.4 481.3,519.4 481.3,120 486.1,120 		"/>
		<polygon class="st2" points="715.7,120 715.7,839.7 710.9,839.7 710.9,120 715.7,120 		"/>
		<polygon class="st2" points="244.5,120 244.5,839.7 249.3,839.7 249.3,120 244.5,120 		"/>
		<polygon class="st3" points="727.8,120 727.8,839.7 720.5,839.7 720.5,120 727.8,120 		"/>
		<polygon class="st3" points="232.4,120 232.4,839.7 239.7,839.7 239.7,120 232.4,120 		"/>
		<polygon class="st2" points="601,495 601,519.9 596.2,519.9 596.2,495 601,495 		"/>
		<polygon class="st2" points="601,540.7 601,565.6 596.2,565.6 596.2,540.7 601,540.7 		"/>
		<polygon class="st2" points="601,586.5 601,611.3 596.2,611.3 596.2,586.5 601,586.5 		"/>
		<polygon class="st2" points="601,632.2 601,657.1 596.2,657.1 596.2,632.2 601,632.2 		"/>
		<polygon class="st2" points="601,678 601,702.8 596.2,702.8 596.2,678 601,678 		"/>
		<polygon class="st2" points="601,769.4 601,794.3 596.2,794.3 596.2,769.4 601,769.4 		"/>
		<polygon class="st2" points="601,723.7 601,748.5 596.2,748.5 596.2,723.7 601,723.7 		"/>
		<polygon class="st2" points="601,815.1 601,840 596.2,840 596.2,815.1 601,815.1 		"/>
		<polygon class="st2" points="601,174.9 601,199.7 596.2,199.7 596.2,174.9 601,174.9 		"/>
		<polygon class="st2" points="601,129.1 601,154 596.2,154 596.2,129.1 601,129.1 		"/>
		<polygon class="st2" points="601,220.6 601,245.4 596.2,245.4 596.2,220.6 601,220.6 		"/>
		<polygon class="st2" points="601,266.3 601,291.2 596.2,291.2 596.2,266.3 601,266.3 		"/>
		<polygon class="st2" points="601,312.1 601,336.9 596.2,336.9 596.2,312.1 601,312.1 		"/>
		<polygon class="st2" points="601,357.8 601,382.7 596.2,382.7 596.2,357.8 601,357.8 		"/>
		<polygon class="st2" points="601,449.3 601,474.1 596.2,474.1 596.2,449.3 601,449.3 		"/>
		<polygon class="st2" points="601,403.5 601,428.4 596.2,428.4 596.2,403.5 601,403.5 		"/>
		<polygon class="st2" points="359,495 359,519.9 363.8,519.9 363.8,495 359,495 		"/>
		<polygon class="st2" points="359,540.7 359,565.6 363.8,565.6 363.8,540.7 359,540.7 		"/>
		<polygon class="st2" points="359,586.5 359,611.3 363.8,611.3 363.8,586.5 359,586.5 		"/>
		<polygon class="st2" points="359,632.2 359,657.1 363.8,657.1 363.8,632.2 359,632.2 		"/>
		<polygon class="st2" points="359,678 359,702.8 363.8,702.8 363.8,678 359,678 		"/>
		<polygon class="st2" points="359,769.4 359,794.3 363.8,794.3 363.8,769.4 359,769.4 		"/>
		<polygon class="st2" points="359,723.7 359,748.5 363.8,748.5 363.8,723.7 359,723.7 		"/>
		<polygon class="st2" points="359,815.1 359,840 363.8,840 363.8,815.1 359,815.1 		"/>
		<polygon class="st2" points="359,174.9 359,199.7 363.8,199.7 363.8,174.9 359,174.9 		"/>
		<polygon class="st2" points="359,129.1 359,154 363.8,154 363.8,129.1 359,129.1 		"/>
		<polygon class="st2" points="359,220.6 359,245.4 363.8,245.4 363.8,220.6 359,220.6 		"/>
		<polygon class="st2" points="359,266.3 359,291.2 363.8,291.2 363.8,266.3 359,266.3 		"/>
		<polygon class="st2" points="359,312.1 359,336.9 363.8,336.9 363.8,312.1 359,312.1 		"/>
		<polygon class="st2" points="359,357.8 359,382.7 363.8,382.7 363.8,357.8 359,357.8 		"/>
		<polygon class="st2" points="359,449.3 359,474.1 363.8,474.1 363.8,449.3 359,449.3 		"/>
		<polygon class="st2" points="359,403.5 359,428.4 363.8,428.4 363.8,403.5 359,403.5 		"/>
		<path class="st3" d="M754.6,543.8h9.5c1.9,0,3.3,0.2,4.2,0.7c0.9,0.4,1.7,1.4,2.5,2.7c0.7,1.4,1.3,3.2,1.8,5.6
			c0.5,2.3,0.7,4.9,0.7,7.8c0,3.1-0.3,6-0.9,8.6c-0.6,2.6-1.4,4.6-2.4,5.9c1.4,1.2,2.5,3.2,3.3,6c0.8,2.9,1.2,6.2,1.2,10
			c0,3-0.2,6-0.7,8.8c-0.5,2.8-1.2,5.1-2,6.9c-0.9,1.7-1.9,2.8-3.2,3.2c-0.8,0.2-2.7,0.4-5.8,0.4h-8V543.8L754.6,543.8z
			 M759.3,554.9v15.4h3.1c1.9,0,3-0.1,3.5-0.2c0.8-0.3,1.5-1.1,1.9-2.4c0.5-1.3,0.7-3.1,0.7-5.2c0-2.1-0.2-3.7-0.6-5
			c-0.4-1.3-1-2.1-1.8-2.3c-0.5-0.2-1.8-0.2-4.1-0.2H759.3L759.3,554.9z M759.3,581.4v17.8h4.4c1.7,0,2.8-0.1,3.3-0.4
			c0.7-0.4,1.3-1.3,1.7-2.7c0.4-1.4,0.7-3.3,0.7-5.7c0-2-0.2-3.7-0.5-5.1c-0.3-1.4-0.8-2.4-1.5-3.1c-0.7-0.6-2.1-0.9-4.2-0.9H759.3
			L759.3,581.4z M780.5,543.8h4.8v36.1c0,5.7,0.1,12.7,0.2,14.4c0.2,2.7,0.7,4.9,1.5,6.6c0.8,1.7,1.8,2.5,3.1,2.5
			c0.3,0,0.7-0.1,0.9-0.1c0.9-0.3,1.6-1,2.1-2.2c0.7-1.6,1.1-3.5,1.2-5.7c0.1-2.3,0.2-9.3,0.2-14.6v-36.8h4.8v35
			c0,8-0.1,13.6-0.4,17c-0.3,3.3-0.7,6.1-1.4,8.4c-0.7,2.3-1.6,4.1-2.8,5.4c-1.2,1.4-2.7,2-4.5,2c-2.3,0-4-0.7-5.1-2.2
			c-1.2-1.5-2.1-3.4-2.8-5.7c-0.7-2.3-1.1-4.8-1.3-7.4c-0.3-3.8-0.5-9.4-0.5-16.9V543.8L780.5,543.8z M806.3,597.7l3.9-6.6
			c0.3,4.4,0.8,5.9,1.7,8c0.9,2,2,3.1,3.5,3.1c1.5,0,2.7-0.9,3.5-2.8c0.8-1.8,0.8-5.9,0.8-8.3c0-1.6-0.2-2.9-0.5-4
			c-0.3-1.1-0.9-2.1-1.7-2.9c-0.6-0.6-1.8-1.5-3.8-2.9c-2.6-1.8-4.4-4-5.4-6.6c-1.4-3.7-2.2-8.1-2.2-13.4c0-3.4,0.3-6.6,1-9.5
			c0.7-2.9,1.7-5.2,3-6.7c1.3-1.5,2.8-2.3,4.7-2.3c3,0,5.2,1.8,6.7,5.5c1.5,3.7,0.8,1.9,2,7.8l-4.8,4.6c-0.2-3.4-0.3-4-0.9-5.5
			c-0.7-1.5-1.7-2.2-3-2.2c-1.4,0-2.5,0.8-3.3,2.4c-0.5,1-0.8,3.4-0.8,5.1c0,1.6,0.2,2.9,0.7,4c0.6,1.4,2.1,2.9,4.4,4.5
			c2.3,1.5,4,3.1,5.2,4.8c1.1,1.7,2,3.9,2.6,6.8c0.6,2.9,0.9,6.4,0.9,10.6c0,3.8-0.4,7.4-1.1,10.7c-0.8,3.3-1.8,5.8-3.2,7.4
			c-1.4,1.6-3.1,2.4-5.1,2.4c-3,0-5.3-1.9-6.9-5.8C806.4,601.8,806.8,601.3,806.3,597.7L806.3,597.7z"/>
		<path class="st3" d="M205.6,521.3h-9.5c-1.9,0-3.3-0.2-4.2-0.7c-0.9-0.4-1.7-1.3-2.5-2.7c-0.7-1.4-1.3-3.2-1.8-5.6
			c-0.5-2.3-0.7-4.9-0.7-7.8c0-3.1,0.3-6,0.9-8.6c0.6-2.6,1.4-4.6,2.4-5.9c-1.4-1.2-2.5-3.2-3.3-6c-0.8-2.9-1.2-6.2-1.2-10
			c0-3,0.2-6,0.7-8.8c0.5-2.9,1.2-5.1,2.1-6.9c0.9-1.7,1.9-2.8,3.2-3.2c0.8-0.2,2.7-0.4,5.8-0.4h8V521.3L205.6,521.3z M200.9,510.2
			v-15.4h-3.1c-1.9,0-3,0.1-3.5,0.2c-0.8,0.3-1.5,1.1-1.9,2.4c-0.5,1.3-0.7,3.1-0.7,5.2c0,2.1,0.2,3.7,0.6,5c0.4,1.3,1,2.1,1.8,2.3
			c0.5,0.2,1.8,0.2,4.1,0.2H200.9L200.9,510.2z M200.9,483.7v-17.8h-4.4c-1.7,0-2.8,0.1-3.3,0.4c-0.7,0.4-1.3,1.3-1.7,2.7
			c-0.4,1.4-0.7,3.3-0.7,5.7c0,2,0.2,3.7,0.5,5.1c0.3,1.4,0.8,2.4,1.5,3.1c0.7,0.6,2.1,0.9,4.2,0.9H200.9L200.9,483.7z M179.7,521.3
			H175v-36.1c0-5.7-0.1-12.7-0.2-14.4c-0.2-2.7-0.7-4.9-1.5-6.6c-0.8-1.7-1.8-2.5-3.1-2.5c-0.3,0-0.7,0-1,0.1
			c-0.9,0.3-1.6,1-2.1,2.2c-0.7,1.6-1.1,3.5-1.2,5.7c-0.1,2.3-0.2,9.3-0.2,14.6v36.8h-4.8v-35c0-8,0.1-13.6,0.4-16.9
			c0.3-3.3,0.7-6.1,1.4-8.4c0.7-2.3,1.6-4.1,2.8-5.4c1.2-1.3,2.7-2,4.5-2c2.3,0,4,0.7,5.1,2.2c1.2,1.5,2.1,3.4,2.8,5.7
			c0.7,2.3,1.1,4.8,1.3,7.4c0.3,3.8,0.5,9.4,0.5,16.9V521.3L179.7,521.3z M153.9,467.4L150,474c-0.3-4.4-0.8-5.9-1.7-8
			c-0.9-2-2-3.1-3.5-3.1c-1.5,0-2.7,0.9-3.5,2.8c-0.8,1.8-0.8,5.9-0.8,8.3c0,1.6,0.2,2.9,0.5,4c0.3,1.1,0.9,2.1,1.7,2.9
			c0.6,0.6,1.8,1.5,3.8,2.9c2.6,1.8,4.4,4,5.4,6.6c1.4,3.7,2.2,8.1,2.2,13.4c0,3.4-0.3,6.6-1,9.5c-0.7,2.9-1.7,5.2-3,6.7
			c-1.3,1.5-2.8,2.3-4.6,2.3c-3,0-5.2-1.8-6.7-5.5c-1.5-3.7-0.8-1.9-2-7.8l4.8-4.6c0.2,3.4,0.3,4,0.9,5.5c0.7,1.5,1.7,2.2,3,2.2
			c1.4,0,2.5-0.8,3.3-2.4c0.5-1,0.8-3.4,0.8-5.1c0-1.6-0.2-2.9-0.7-4c-0.6-1.4-2.1-2.9-4.4-4.5c-2.3-1.5-4-3.1-5.2-4.8
			c-1.1-1.7-2-3.9-2.6-6.8c-0.6-2.9-0.9-6.4-0.9-10.6c0-3.8,0.4-7.4,1.1-10.7c0.8-3.3,1.8-5.8,3.2-7.4c1.4-1.6,3.1-2.4,5.1-2.4
			c3,0,5.3,1.9,6.9,5.8C153.8,463.3,153.4,463.8,153.9,467.4L153.9,467.4z"/>
	</g>
</g>
</svg>
