<?xml version="1.0" encoding="utf-8"?>
<!-- Generator: Adobe Illustrator 19.2.0, SVG Export Plug-In . SVG Version: 6.00 Build 0)  -->
<svg version="1.1" id="Livello_1" xmlns="http://www.w3.org/2000/svg" xmlns:xlink="http://www.w3.org/1999/xlink" x="0px" y="0px"
	 viewBox="0 0 960 960" style="enable-background:new 0 0 960 960;" xml:space="preserve">
<style type="text/css">
	.st0{fill-rule:evenodd;clip-rule:evenodd;fill:#CECFD1;}
	.st1{fill-rule:evenodd;clip-rule:evenodd;fill:#FFFFFF;}
	.st2{fill-rule:evenodd;clip-rule:evenodd;fill:#1A171B;}
</style>
<g>
	<g>
		<path class="st0" d="M45,315.6h870v164.9H488.6l-51,88.7L385,644.4H184.3l93.4-134c9.1-13.1,1.2-29.8-18.8-29.9H45V315.6L45,315.6
			z"/>
		<path class="st0" d="M611.4,316c0.4,0,0.7,0,1.1,0v164.5c-0.4,0-0.7,0-1.1,0c-71.8,0-135.6,35.4-174.9,89.7l-154.5-63.6
			C347.9,392.9,471,316,611.4,316L611.4,316z"/>
		<polygon class="st1" points="45,321.3 914.9,321.3 914.9,326.1 45,326.1 45,321.3 		"/>
		<polygon class="st1" points="607.3,395.7 629.5,395.7 629.5,400.4 607.3,400.4 607.3,395.7 		"/>
		<polygon class="st1" points="648.1,395.7 670.3,395.7 670.3,400.4 648.1,400.4 648.1,395.7 		"/>
		<polygon class="st1" points="688.9,395.7 711.1,395.7 711.1,400.4 688.9,400.4 688.9,395.7 		"/>
		<polygon class="st1" points="729.7,395.7 751.9,395.7 751.9,400.4 729.7,400.4 729.7,395.7 		"/>
		<polygon class="st1" points="770.5,395.7 792.6,395.7 792.6,400.4 770.5,400.4 770.5,395.7 		"/>
		<polygon class="st1" points="852,395.7 874.2,395.7 874.2,400.4 852,400.4 852,395.7 		"/>
		<polygon class="st1" points="811.3,395.7 833.4,395.7 833.4,400.4 811.3,400.4 811.3,395.7 		"/>
		<polygon class="st1" points="892.8,395.7 915,395.7 915,400.4 892.8,400.4 892.8,395.7 		"/>
		<polygon class="st1" points="285.3,638.9 298,620.8 301.9,623.5 289.2,641.6 285.3,638.9 		"/>
		<polygon class="st1" points="332,572.1 344.8,553.9 348.7,556.7 335.9,574.8 332,572.1 		"/>
		<polygon class="st1" points="308.7,605.5 321.4,587.3 325.3,590.1 312.5,608.2 308.7,605.5 		"/>
		<polygon class="st1" points="355.4,538.7 368.2,520.5 372,523.3 359.3,541.4 355.4,538.7 		"/>
		<path class="st1" d="M611.4,321.3c0.4,0,0.7,0,1.1,0v4.9c-0.4,0-0.7,0-1.1,0c-16.5,0-32.7,1.1-48.7,3.2l-0.6-4.8
			C578.3,322.4,594.7,321.3,611.4,321.3L611.4,321.3z M295.2,495.2c3-4.7,6.1-9.3,9.3-13.8l4,2.8c-3.1,4.5-6.2,9-9.1,13.6
			L295.2,495.2L295.2,495.2z M314,468.4c3.4-4.4,6.8-8.7,10.4-12.9l3.7,3.1c-3.5,4.2-6.9,8.4-10.3,12.8L314,468.4L314,468.4z
			 M335,443.4c3.7-4.1,7.6-8.1,11.5-12l3.4,3.4c-3.9,3.9-7.6,7.8-11.3,11.9L335,443.4L335,443.4z M358.1,420.3
			c4.1-3.7,8.2-7.4,12.5-11l3.1,3.7c-4.2,3.5-8.3,7.1-12.3,10.8L358.1,420.3L358.1,420.3z M383.1,399.2c4.4-3.4,8.8-6.7,13.4-9.9
			l2.8,4c-4.5,3.1-8.9,6.4-13.2,9.7L383.1,399.2L383.1,399.2z M409.8,380.4c4.7-3,9.4-5.9,14.2-8.7l2.4,4.2c-4.7,2.7-9.4,5.6-14,8.5
			L409.8,380.4L409.8,380.4z M438,364c4.9-2.6,9.9-5,14.9-7.4l2.1,4.4c-5,2.3-9.9,4.8-14.7,7.3L438,364L438,364z M467.6,350
			c5.1-2.1,10.3-4.2,15.5-6.1l1.7,4.6c-5.1,1.9-10.2,3.9-15.3,6L467.6,350L467.6,350z M498.3,338.8c5.3-1.7,10.6-3.2,16-4.7l1.3,4.7
			c-5.3,1.4-10.5,3-15.8,4.6L498.3,338.8L498.3,338.8z M529.9,330.3c5.4-1.2,10.8-2.3,16.3-3.3l0.8,4.8c-5.4,1-10.8,2-16.1,3.2
			L529.9,330.3L529.9,330.3z"/>
		<path class="st1" d="M381.5,503c5.6-6.7,11.5-13.1,17.7-19.3l3.5,3.5c-6.1,6.1-11.9,12.4-17.4,19L381.5,503L381.5,503z M418.5,466
			c6.7-5.6,13.6-10.9,20.8-16l2.8,4.1c-7,4.9-13.8,10.2-20.4,15.7L418.5,466L418.5,466z M461.3,435.9c7.5-4.4,15.3-8.4,23.2-12.1
			l2.1,4.5c-7.8,3.7-15.4,7.6-22.8,11.9L461.3,435.9L461.3,435.9z M508.8,413.7c8.2-3,16.5-5.6,25-7.9l1.3,4.8
			c-8.3,2.2-16.5,4.8-24.6,7.7L508.8,413.7L508.8,413.7z M559.4,400.1c8.5-1.5,17.2-2.6,26-3.4l0.4,4.8c-8.6,0.7-17.2,2-25.6,3.5
			L559.4,400.1L559.4,400.1z"/>
		<path class="st1" d="M45,469.9h205.6c12.8,0.3,24.5,0.1,34.2,10.2c9.6,10.1,9.5,22.8,2.8,33.9l-3.8-2.6c4.9-10,6.1-18-2.1-27.5
			c-8.2-9.5-20.3-9.2-31.1-9.3H45V469.9L45,469.9z M612.2,469.6l302.7,0.3v4.7l-302.7-0.3V469.6L612.2,469.6z"/>
		<path class="st1" d="M372.6,644.4l60.3-86.1l0.2,0.1c41.4-53.7,105.4-88.7,178.3-88.7c0.4,0,0.7,0,1.1,0v5c-0.4,0-0.7,0-1.1,0
			c-71.3,0-134.1,33.7-174.6,86.2l0,0l-58.4,83.4H372.6L372.6,644.4z"/>
		<polygon class="st1" points="190.6,644.4 283.9,511 287.8,513.7 196.4,644.4 190.6,644.4 		"/>
		<polygon class="st2" points="626.8,359.8 667.6,359.8 667.6,361.8 626.8,361.8 626.8,359.8 		"/>
		<polygon class="st2" points="634.9,367.9 615.3,360.8 634.9,353.7 634.2,351.8 609.6,360.8 634.2,369.8 634.9,367.9 		"/>
		<polygon class="st2" points="650.8,436 610,436 610,434 650.8,434 650.8,436 		"/>
		<polygon class="st2" points="642.7,427.9 662.3,435.1 642.7,442.2 643.4,444 667.9,435 643.4,426.1 642.7,427.9 		"/>
	</g>
</g>
</svg>
