<?xml version="1.0" encoding="utf-8"?>
<!-- Generator: Adobe Illustrator 19.2.0, SVG Export Plug-In . SVG Version: 6.00 Build 0)  -->
<svg version="1.1" id="Livello_1" xmlns="http://www.w3.org/2000/svg" xmlns:xlink="http://www.w3.org/1999/xlink" x="0px" y="0px"
	 viewBox="0 0 960 960" style="enable-background:new 0 0 960 960;" xml:space="preserve">
<style type="text/css">
	.st0{fill-rule:evenodd;clip-rule:evenodd;fill:#E2E3E4;stroke:#E2E3E4;stroke-width:1.065;stroke-miterlimit:2.6131;}
	.st1{fill-rule:evenodd;clip-rule:evenodd;fill:#CECFD1;}
	.st2{fill-rule:evenodd;clip-rule:evenodd;fill:#FFFFFF;}
	.st3{fill-rule:evenodd;clip-rule:evenodd;fill:#1A171B;stroke:#1A171B;stroke-width:1.065;stroke-miterlimit:2.6131;}
</style>
<g>
	<g>
		<path class="st0" d="M192.7,356.6l0.2-0.2l58,0.2v483.2h458.8V356.4h57.8V120H192.7V356.6L192.7,356.6z M192.9,356.6h58H192.9
			L192.9,356.6z"/>
		<path class="st1" d="M192.6,120v154.6H286c28.4,0,46.5,20.5,46.5,47.5V840h4.9h290.7V322.4c0-27.2,17.9-47.7,46.5-47.7h93V120
			L192.6,120L192.6,120z"/>
		<path class="st2" d="M499.1,467.4l5.5-3.7c0.3,12.6,1,21.7,2,27.6c1,5.8,2.4,8.8,4.1,8.8c1.8,0,3.2-2.6,4.1-7.9
			c0.9-5.2,1.4-11.3,1.4-18.3c0-4.5-0.2-8.3-0.6-11.4c-0.4-3.2-1.1-5.9-2-8.2c-0.7-1.6-2.2-4.3-4.6-8.3c-3.1-5.1-5.2-11.4-6.4-18.8
			c-1.7-10.4-2.6-23.2-2.6-38.2c0-9.7,0.4-18.7,1.2-27.1c0.8-8.4,2-14.8,3.5-19.2c1.5-4.4,3.4-6.6,5.5-6.6c3.5,0,6.2,5.2,8,15.6
			c1.8,10.5,2.7,24.4,2.8,41.9l-5.7,1.7c-0.2-9.8-0.8-16.8-1.6-21c-0.8-4.3-2-6.4-3.6-6.4c-1.7,0-3,2.3-3.9,6.8
			c-0.6,2.9-0.9,6.8-0.9,11.8c0,4.5,0.3,8.4,0.8,11.5c0.7,4.1,2.5,8.3,5.2,12.7c2.8,4.4,4.8,9,6.1,13.7c1.3,4.7,2.4,11.1,3.1,19.3
			c0.7,8.2,1.1,18.3,1.1,30.2c0,10.9-0.4,21.1-1.3,30.5c-0.9,9.5-2.2,16.6-3.8,21.2c-1.6,4.6-3.7,6.9-6.1,6.9
			c-3.6,0-6.3-5.5-8.2-16.6C500.6,504.8,499.4,488.6,499.1,467.4L499.1,467.4z"/>
		<polygon class="st2" points="533.1,529.1 533.1,371.4 524.8,371.4 524.8,339.3 547.2,339.3 547.2,371.4 538.8,371.4 538.8,529.1 
			533.1,529.1 		"/>
		<path class="st2" d="M549,435.4c0-19.4,0.4-35.6,1.3-48.7c0.6-9.6,1.5-18.3,2.6-26c1.1-7.6,2.3-13.3,3.6-17.1
			c1.8-5,3.8-7.5,6.1-7.5c4.2,0,7.5,8.7,10,26c2.5,17.3,3.7,41.5,3.7,72.4c0,30.7-1.2,54.6-3.7,71.9c-2.5,17.3-5.8,25.9-9.9,25.9
			c-4.2,0-7.5-8.6-10-25.8C550.2,489.3,549,465.6,549,435.4L549,435.4z M554.9,434.1c0,21.5,0.7,37.8,2.2,48.9
			c1.5,11.1,3.3,16.6,5.6,16.6c2.3,0,4.1-5.5,5.6-16.5c1.5-11,2.2-27.5,2.2-49.5c0-21.7-0.7-38-2.1-48.7c-1.4-10.7-3.3-16-5.6-16
			c-2.3,0-4.2,5.4-5.7,16.3C555.6,395.9,554.9,412.2,554.9,434.1L554.9,434.1z"/>
		<path class="st2" d="M580.8,529.1V339.3h9.1c3.5,0,5.7,1,6.8,2.9c1.6,2.8,3,9,4.1,18.6c1.1,9.5,1.6,21.9,1.6,36.9
			c0,11.7-0.3,21.5-0.9,29.4c-0.6,8-1.4,14.2-2.4,18.7c-1,4.5-2,7.5-2.9,9c-1.4,1.8-3.3,2.7-5.9,2.7h-3.7v71.6H580.8L580.8,529.1z
			 M586.5,371.4v53.8h3.1c2.2,0,3.7-1,4.5-3c0.8-2,1.3-5.1,1.8-9.3c0.4-4.2,0.6-9.1,0.6-14.8c0-6.9-0.3-12.6-0.9-17.1
			c-0.6-4.5-1.4-7.3-2.3-8.4c-0.7-0.9-2.1-1.3-4.1-1.3H586.5L586.5,371.4z"/>
		<polygon class="st2" points="337.4,839.8 345.1,839.8 345.1,317.2 337.4,317.2 337.4,839.8 		"/>
		<polygon class="st2" points="623.6,839.8 615.9,839.8 615.9,317.2 623.6,317.2 623.6,839.8 		"/>
		<polygon class="st2" points="670.4,269.3 671.6,261.6 767.6,261.6 767.6,269.3 670.4,269.3 		"/>
		<polygon class="st2" points="475.5,261.8 485.8,261.8 485.8,839.8 475.5,839.8 475.5,261.8 		"/>
		<polygon class="st2" points="480.2,261.8 681.6,261.8 652.5,269 629,287.9 480.2,287.9 480.2,261.8 		"/>
		<path class="st3" d="M645.1,314.7h43.4c1.1,0,2-0.9,2-1.9v-1.4c0-1.1-0.9-1.9-2-1.9h-43.4c-1.1,0-2,0.9-2,1.9v1.4
			C643,313.8,643.9,314.7,645.1,314.7L645.1,314.7z"/>
		<path class="st3" d="M666.9,300.9c-1.6,0-2.9,1.3-2.9,2.9c0,1.6,1.3,2.9,2.9,2.9c1.6,0,2.9-1.3,2.9-2.9
			C669.8,302.2,668.5,300.9,666.9,300.9L666.9,300.9z"/>
		<polygon class="st2" points="290.6,269.3 289.5,261.6 192.4,261.6 192.4,269.3 290.6,269.3 		"/>
		<path class="st2" d="M286,269l2.1-7.4c30.5,0,56.8,25.1,56.8,55.9h-7.7C337.2,290.9,315.5,269.3,286,269L286,269z"/>
		<path class="st2" d="M672.3,269l-0.5-7.4c-30.5,0-55.7,24.7-55.7,55.4l7.7,0.5C623.9,290.9,644.8,270.2,672.3,269L672.3,269z"/>
	</g>
</g>
</svg>
