<?xml version="1.0" encoding="utf-8"?>
<!-- Generator: Adobe Illustrator 19.2.0, SVG Export Plug-In . SVG Version: 6.00 Build 0)  -->
<svg version="1.1" id="Livello_1" xmlns="http://www.w3.org/2000/svg" xmlns:xlink="http://www.w3.org/1999/xlink" x="0px" y="0px"
	 viewBox="0 0 960 960" style="enable-background:new 0 0 960 960;" xml:space="preserve">
<style type="text/css">
	.st0{fill-rule:evenodd;clip-rule:evenodd;fill:#E2E3E4;stroke:#E2E3E4;stroke-width:1.0654;stroke-miterlimit:2.6131;}
	.st1{fill-rule:evenodd;clip-rule:evenodd;fill:#CECFD1;}
	.st2{fill-rule:evenodd;clip-rule:evenodd;fill:#FFFFFF;}
	.st3{fill-rule:evenodd;clip-rule:evenodd;fill:#1A171B;stroke:#1A171B;stroke-width:1.0654;stroke-miterlimit:2.6131;}
</style>
<g>
	<g>
		<path class="st0" d="M191.7,356.7l0.2-0.2l58.2,0.2V840h459.9V356.4h58V120H191.7V356.7L191.7,356.7z M192,356.7h58.2H192
			L192,356.7z"/>
		<path class="st1" d="M191.7,120v154.4h93.6c28.4,0,46.6,20.5,46.6,47.5v518h4.9h291.4V322.2c0-27.3,17.9-47.8,46.6-47.8h93.4V120
			L191.7,120L191.7,120z"/>
		<path class="st2" d="M290,268.8l-1.2-7.2c30.5,0,55.4,24.9,55.4,55.7l-7.5-0.2c0-26.6-21.9-47.7-48.2-47.7L290,268.8L290,268.8z
			 M290,269.3l-1.2-7.7h-97.1v7.7H290L290,269.3z M336.9,840h7.7V317.3h-7.7V840L336.9,840z"/>
		<polygon class="st2" points="623.1,840 615.5,840 615.5,317.3 623.1,317.3 623.1,840 		"/>
		<polygon class="st2" points="670.4,269.3 671.1,261.6 768.3,261.6 768.3,269.3 670.4,269.3 		"/>
		<path class="st2" d="M672.8,268.8l-1.4-7.2c-30.5,0-55.7,24.7-55.7,55.4l7.2,0.5C623.6,290.7,646,270.2,672.8,268.8L672.8,268.8z"
			/>
		<polygon class="st2" points="475,298.9 485.2,298.9 485.2,618.5 475,618.5 475,298.9 		"/>
		<polygon class="st2" points="475,640.8 485.2,640.8 485.2,671.8 475,671.8 475,640.8 		"/>
		<polygon class="st2" points="475,747.8 485.2,747.8 485.2,778.7 475,778.7 475,747.8 		"/>
		<polygon class="st2" points="475,694.4 485.2,694.4 485.2,725.4 475,725.4 475,694.4 		"/>
		<polygon class="st2" points="475,801.3 485.2,801.3 485.2,832.3 475,832.3 475,801.3 		"/>
		<polygon class="st2" points="511,261.9 531.3,261.9 521.1,295.2 511,261.9 		"/>
		<polygon class="st2" points="573.9,261.9 594.2,261.9 584,295.2 573.9,261.9 		"/>
		<polygon class="st2" points="605.4,261.9 625.6,261.9 615.5,295.2 605.4,261.9 		"/>
		<polygon class="st2" points="479.6,261.9 499.8,261.9 489.7,295.2 479.6,261.9 		"/>
		<polygon class="st2" points="542.5,261.9 562.7,261.9 552.6,295.2 542.5,261.9 		"/>
		<path class="st2" d="M519,404.2h62.2l-31,137.4L519,404.2L519,404.2z M567,432.4l-16.8,74.1l-16.8-74.1H567L567,432.4z"/>
		<path class="st3" d="M644.4,322.4h43.5c1.1,0,2-0.9,2-1.9V319c0-1.1-0.9-1.9-2-1.9h-43.5c-1.1,0-2,0.9-2,1.9v1.4
			C642.3,321.6,643.2,322.4,644.4,322.4L644.4,322.4z"/>
		<path class="st3" d="M666.2,308.7c-1.6,0-2.9,1.3-2.9,2.9c0,1.6,1.3,2.9,2.9,2.9c1.6,0,2.9-1.3,2.9-2.9
			C669.1,310,667.8,308.7,666.2,308.7L666.2,308.7z"/>
	</g>
</g>
</svg>
