<?xml version="1.0" encoding="utf-8"?>
<!-- Generator: Adobe Illustrator 19.2.0, SVG Export Plug-In . SVG Version: 6.00 Build 0)  -->
<svg version="1.1" id="Livello_1" xmlns="http://www.w3.org/2000/svg" xmlns:xlink="http://www.w3.org/1999/xlink" x="0px" y="0px"
	 viewBox="0 0 960 960" style="enable-background:new 0 0 960 960;" xml:space="preserve">
<style type="text/css">
	.st0{fill-rule:evenodd;clip-rule:evenodd;fill:#CECFD1;}
	.st1{fill-rule:evenodd;clip-rule:evenodd;fill:#FFFFFF;}
</style>
<g>
	<g>
		<polygon class="st0" points="163.9,120 796.1,120 796.1,840 163.9,840 163.9,120 		"/>
		<polygon class="st1" points="341.5,172.4 618.5,172.4 618.5,231.3 341.5,231.3 341.5,172.4 		"/>
		<polygon class="st1" points="341.5,506.2 618.5,506.2 618.5,565.2 341.5,565.2 341.5,506.2 		"/>
		<polygon class="st1" points="341.5,283.5 618.5,283.5 618.5,342.5 341.5,342.5 341.5,283.5 		"/>
		<polygon class="st1" points="341.5,394.8 618.5,394.8 618.5,453.8 341.5,453.8 341.5,394.8 		"/>
		<polygon class="st1" points="341.5,617.5 618.5,617.5 618.5,676.5 341.5,676.5 341.5,617.5 		"/>
		<polygon class="st1" points="341.5,728.6 618.5,728.6 618.5,787.6 341.5,787.6 341.5,728.6 		"/>
	</g>
</g>
</svg>
