<?xml version="1.0" encoding="utf-8"?>
<!-- Generator: Adobe Illustrator 19.2.0, SVG Export Plug-In . SVG Version: 6.00 Build 0)  -->
<svg version="1.1" id="Livello_1" xmlns="http://www.w3.org/2000/svg" xmlns:xlink="http://www.w3.org/1999/xlink" x="0px" y="0px"
	 viewBox="0 0 960 960" style="enable-background:new 0 0 960 960;" xml:space="preserve">
<style type="text/css">
	.st0{fill-rule:evenodd;clip-rule:evenodd;fill:#CECFD1;}
	.st1{fill-rule:evenodd;clip-rule:evenodd;fill:#FFFFFF;}
</style>
<g>
	<g>
		<polygon class="st0" points="93.1,120 866.9,120 866.9,840 93.1,840 93.1,120 		"/>
		<polygon class="st1" points="518.3,172.4 484,231.3 765.6,231.3 799.9,172.4 518.3,172.4 		"/>
		<polygon class="st1" points="324.3,506.2 290,565.2 571.6,565.2 605.9,506.2 324.3,506.2 		"/>
		<polygon class="st1" points="453.9,283.5 419.6,342.5 701,342.5 735.3,283.5 453.9,283.5 		"/>
		<polygon class="st1" points="389.1,394.8 354.8,453.8 636.2,453.8 670.5,394.8 389.1,394.8 		"/>
		<polygon class="st1" points="259.9,617.5 225.6,676.5 507,676.5 541.3,617.5 259.9,617.5 		"/>
		<polygon class="st1" points="195.1,728.6 161,787.6 442.4,787.6 476.5,728.6 195.1,728.6 		"/>
	</g>
</g>
</svg>
