<?xml version="1.0" encoding="utf-8"?>
<!-- Generator: Adobe Illustrator 19.2.0, SVG Export Plug-In . SVG Version: 6.00 Build 0)  -->
<svg version="1.1" id="Livello_1" xmlns="http://www.w3.org/2000/svg" xmlns:xlink="http://www.w3.org/1999/xlink" x="0px" y="0px"
	 viewBox="0 0 960 960" style="enable-background:new 0 0 960 960;" xml:space="preserve">
<style type="text/css">
	.st0{fill-rule:evenodd;clip-rule:evenodd;fill:#CECFD1;}
	.st1{fill-rule:evenodd;clip-rule:evenodd;fill:#FFFFFF;}
</style>
<g>
	<g>
		<path class="st0" d="M728.3,269.5h70.2v420.8H495.1c-52.2-0.2-60.7,20.6-77.9,52.5L360.8,840H177.2l58.5-100.5
			c7.1-8.9,37.1-39.5-11.5-49.2h-62.7V269.5h313.9c35.5-0.6,39.3-13.3,57.3-41.4L595.4,120h183.4l-62.9,108.3
			C697.9,261.6,709.8,267.3,728.3,269.5L728.3,269.5z"/>
		<polygon class="st1" points="628.3,303.8 608.9,337.1 642.6,337.1 662,303.8 628.3,303.8 		"/>
		<polygon class="st1" points="499.2,303.8 479.8,337.1 513.5,337.1 532.9,303.8 499.2,303.8 		"/>
		<polygon class="st1" points="591.4,367.5 572,400.8 605.5,400.8 624.8,367.5 591.4,367.5 		"/>
		<polygon class="st1" points="462.2,367.5 442.9,400.8 476.4,400.8 495.7,367.5 462.2,367.5 		"/>
		<polygon class="st1" points="554.4,431.3 535.1,464.6 568.6,464.6 587.9,431.3 554.4,431.3 		"/>
		<polygon class="st1" points="425.3,431.3 406,464.6 439.4,464.6 458.8,431.3 425.3,431.3 		"/>
		<polygon class="st1" points="517.3,495 498,528.3 531.4,528.3 550.8,495 517.3,495 		"/>
		<polygon class="st1" points="388.2,495 368.8,528.3 402.3,528.3 421.7,495 388.2,495 		"/>
		<polygon class="st1" points="480.2,558.8 460.8,592.1 494.5,592.1 513.9,558.8 480.2,558.8 		"/>
		<polygon class="st1" points="351.1,558.8 331.7,592.1 365.4,592.1 384.8,558.8 351.1,558.8 		"/>
		<polygon class="st1" points="443.1,622.5 423.7,655.8 457.4,655.8 476.8,622.5 443.1,622.5 		"/>
		<polygon class="st1" points="314,622.5 294.6,655.8 328.3,655.8 347.7,622.5 314,622.5 		"/>
	</g>
</g>
</svg>
