<?xml version="1.0" encoding="utf-8"?>
<!-- Generator: Adobe Illustrator 19.2.0, SVG Export Plug-In . SVG Version: 6.00 Build 0)  -->
<svg version="1.1" id="Livello_1" xmlns="http://www.w3.org/2000/svg" xmlns:xlink="http://www.w3.org/1999/xlink" x="0px" y="0px"
	 viewBox="0 0 960 960" style="enable-background:new 0 0 960 960;" xml:space="preserve">
<style type="text/css">
	.st0{fill-rule:evenodd;clip-rule:evenodd;fill:#CECFD1;}
	.st1{fill-rule:evenodd;clip-rule:evenodd;fill:#FFFFFF;}
</style>
<g>
	<g>
		<polygon class="st0" points="102.2,120 857.8,120 857.8,840 102.2,840 102.2,120 		"/>
		<path class="st1" d="M278.7,599.8l53.2-10.4c1.5,22.9,6,41.1,13.5,54.4c7.5,13.5,16.1,20.2,25.8,20.2c11.2,0,20.6-8.7,28.3-25.9
			c7.7-17.3,11.6-43.4,11.6-78.2c0-32.5-3.8-57-11.5-73.4c-7.7-16.3-17.6-24.5-29.9-24.5c-15.3,0-29.1,13-41.2,38.8l-43.3-12
			l27.4-276.5h141.2v95.2H353l-8.4,90.3c11.9-11.4,24.1-17.1,36.5-17.1c23.7,0,43.8,16.5,60.2,49.2c16.5,32.9,24.7,75.6,24.7,128
			c0,43.7-6.6,82.8-19.9,117c-18.2,46.9-43.3,70.3-75.4,70.3c-25.7,0-46.7-13.1-62.9-39.5C291.5,679.7,281.8,644.3,278.7,599.8
			L278.7,599.8z"/>
		<path class="st1" d="M584.5,203c27,0,48.1,18.4,63.3,55.2c18.1,43.4,27.2,115.5,27.2,216.3c0,100.4-9.1,172.7-27.4,216.7
			c-15,36.2-36.1,54.3-63.1,54.3c-27,0-48.9-19.8-65.5-59.6c-16.6-39.7-24.9-110.6-24.9-212.5c0-100.1,9.1-172.1,27.4-216
			C536.5,221.1,557.5,203,584.5,203L584.5,203z M584.5,287.4c-6.4,0-12.2,4-17.3,11.8c-5.1,7.9-9,22-11.8,42.3
			c-3.6,26.3-5.5,70.6-5.5,133s1.7,105.1,4.9,128.4c3.3,23.4,7.5,38.8,12.5,46.6c5.1,7.7,10.8,11.6,17.2,11.6
			c6.5,0,12.3-4,17.3-11.9c5.1-7.8,9-21.9,11.8-42.2c3.6-26.1,5.5-70.3,5.5-132.6s-1.7-105.1-4.9-128.5
			c-3.3-23.3-7.5-38.8-12.5-46.8C596.7,291.4,591,287.4,584.5,287.4L584.5,287.4z"/>
	</g>
</g>
</svg>
