<?xml version="1.0" encoding="utf-8"?>
<!-- Generator: Adobe Illustrator 19.2.0, SVG Export Plug-In . SVG Version: 6.00 Build 0)  -->
<svg version="1.1" id="Livello_1" xmlns="http://www.w3.org/2000/svg" xmlns:xlink="http://www.w3.org/1999/xlink" x="0px" y="0px"
	 viewBox="0 0 960 960" style="enable-background:new 0 0 960 960;" xml:space="preserve">
<style type="text/css">
	.st0{fill-rule:evenodd;clip-rule:evenodd;fill:#CECFD1;}
	.st1{fill-rule:evenodd;clip-rule:evenodd;fill:#FFFFFF;}
</style>
<g>
	<g>
		<polygon class="st0" points="617,120 617,840 343,840 343,120 617,120 		"/>
		<polygon class="st1" points="604,120 604,840 593.4,840 593.4,120 604,120 		"/>
		<polygon class="st1" points="366.8,120 366.8,840 356.2,840 356.2,120 366.8,120 		"/>
		<polygon class="st1" points="494.4,200.6 494.4,840 483.8,840 483.8,200.6 494.4,200.6 		"/>
		<polygon class="st1" points="477.4,647.1 477.4,722.7 466.8,722.7 466.8,647.1 477.4,647.1 		"/>
		<polygon class="st1" points="477.4,508.3 477.4,583.9 466.8,583.9 466.8,508.3 477.4,508.3 		"/>
		<polygon class="st1" points="477.4,369.6 477.4,445.3 466.8,445.3 466.8,369.6 477.4,369.6 		"/>
		<polygon class="st1" points="477.4,230.8 477.4,306.5 466.8,306.5 466.8,230.8 477.4,230.8 		"/>
		<polygon class="st1" points="477.4,120 477.4,167.6 466.8,167.6 466.8,120 477.4,120 		"/>
		<polygon class="st1" points="477.4,840 466.8,840 466.8,785.7 477.4,785.7 477.4,840 		"/>
		<polygon class="st1" points="503.5,540.2 516.8,540.2 543.6,611.6 570.4,540.2 583.7,540.2 550.2,629.2 583.7,718.1 570.5,718.1 
			543.6,646.8 516.8,718.1 503.5,718.1 537,629.2 503.5,540.2 		"/>
		<path class="st1" d="M507.4,631.8h3.1c0.8,0,1.5-1.1,1.9-3.4c0.4-2.3,0.6-5.8,0.6-10.5c0-4.6-0.2-8-0.6-10.3
			c-0.4-2.3-1-3.4-1.9-3.4h-3V631.8L507.4,631.8z M503.1,682v-94.4h7.9c2.1,0,3.7,2.5,4.8,7.6c1.1,5.1,1.6,12.4,1.6,21.9
			c0,10-0.5,17.7-1.6,23.1c-1.1,5.4-2.6,8.1-4.7,8.1h-3.8V682H503.1L503.1,682z M575.2,682v-94.4h3.8v78.8h7.1V682H575.2L575.2,682z
			"/>
		<polygon class="st1" points="484.9,200.6 604.1,200.6 604.1,219.6 484.9,219.6 484.9,200.6 		"/>
	</g>
</g>
</svg>
