<?xml version="1.0" encoding="utf-8"?>
<!-- Generator: Adobe Illustrator 19.2.0, SVG Export Plug-In . SVG Version: 6.00 Build 0)  -->
<svg version="1.1" id="Livello_1" xmlns="http://www.w3.org/2000/svg" xmlns:xlink="http://www.w3.org/1999/xlink" x="0px" y="0px"
	 viewBox="0 0 960 960" style="enable-background:new 0 0 960 960;" xml:space="preserve">
<style type="text/css">
	.st0{fill-rule:evenodd;clip-rule:evenodd;fill:#CECFD1;}
	.st1{fill:none;stroke:#FFFFFF;stroke-width:3.0847;stroke-miterlimit:2.6131;}
	.st2{fill-rule:evenodd;clip-rule:evenodd;fill:#E4E5E6;stroke:#1A171B;stroke-width:3.0847;stroke-miterlimit:2.6131;}
	.st3{fill-rule:evenodd;clip-rule:evenodd;fill:#FFFFFF;}
</style>
<g>
	<g>
		<polygon class="st0" points="107.9,120 852.1,120 852.1,840 107.9,840 107.9,120 		"/>
		<path class="st1" d="M246.9,221.4h509.2C385.3,291.6,280.2,559.5,205,722.4V263.2C205,240.2,223.8,221.4,246.9,221.4L246.9,221.4z
			"/>
		<path class="st2" d="M251.7,227.7h242.4c21.9,0,36,17.9,37.3,39.7c0.4,7.1,1.2,24.9-32.1,45.5C415.9,364.6,358,430.5,298.1,519.6
			c-15,22.3-24.8,33.9-40,33.5c-23.4-0.5-46.1-20.3-46.1-54.1V267.5C212,245.6,229.9,227.7,251.7,227.7L251.7,227.7z"/>
		<path class="st3" d="M589.6,221.4l-29.4,31.5l24.1,22.1c-5,2.3-9.9,4.6-14.8,7l-31.1-28.3l30.4-32.3H589.6L589.6,221.4z"/>
		<path class="st3" d="M612.3,262.9l-15.9-14.5l25.5-27.1h134.2C702.9,231.4,655.2,245.6,612.3,262.9L612.3,262.9z"/>
		<path class="st3" d="M282,564.8l-45,20.6L205,553.9v20.7l28.6,28.1l0.3-0.3l0.2,0.4l36.1-16.5C273.9,579.2,277.9,572,282,564.8
			L282,564.8z"/>
		<path class="st3" d="M205,609.1l23.2,25.6l21.3-7.8c-16.7,34-31.1,66.5-44.5,95.5V609.1L205,609.1z"/>
	</g>
</g>
</svg>
