<?xml version="1.0" encoding="utf-8"?>
<!-- Generator: Adobe Illustrator 19.2.0, SVG Export Plug-In . SVG Version: 6.00 Build 0)  -->
<svg version="1.1" id="Livello_1" xmlns="http://www.w3.org/2000/svg" xmlns:xlink="http://www.w3.org/1999/xlink" x="0px" y="0px"
	 viewBox="0 0 960 960" style="enable-background:new 0 0 960 960;" xml:space="preserve">
<style type="text/css">
	.st0{fill-rule:evenodd;clip-rule:evenodd;fill:#CECFD1;}
	.st1{fill-rule:evenodd;clip-rule:evenodd;fill:#FFFFFF;}
	.st2{fill-rule:evenodd;clip-rule:evenodd;fill:#1A171B;}
</style>
<g>
	<g>
		<polygon class="st0" points="245.3,840 245.3,120 714.7,120 714.7,840 245.3,840 		"/>
		<polygon class="st1" points="257.5,840 257.5,120 267.6,120 267.6,840 257.5,840 		"/>
		<polygon class="st1" points="692.3,840 692.3,120 702.5,120 702.5,840 692.3,840 		"/>
		<polygon class="st2" points="481.5,177.8 481.5,235.2 478.8,235.2 478.8,177.8 481.5,177.8 		"/>
		<polygon class="st2" points="470.2,189.2 480.2,161.7 490.2,189.2 492.8,188.2 480.2,153.7 467.6,188.2 470.2,189.2 		"/>
		<polygon class="st2" points="478.7,747.5 478.7,804.8 481.5,804.8 481.5,747.5 478.7,747.5 		"/>
		<polygon class="st2" points="490.1,758.8 480,731.3 470,758.8 467.5,757.9 480.1,723.3 492.7,757.8 490.1,758.8 		"/>
		<polygon class="st1" points="294.2,663.1 666.3,663.1 666.3,688.7 294.2,688.7 294.2,663.1 		"/>
		<polygon class="st1" points="294.2,270.4 666.3,270.4 666.3,365.3 294.2,365.3 294.2,270.4 		"/>
		<polygon class="st1" points="294.2,380.1 666.3,380.1 666.3,453.9 294.2,453.9 294.2,380.1 		"/>
		<polygon class="st1" points="294.2,484.7 666.3,484.7 666.3,548.2 294.2,548.2 294.2,484.7 		"/>
		<polygon class="st1" points="294.2,577.7 666.3,577.7 666.3,627.8 294.2,627.8 294.2,577.7 		"/>
	</g>
</g>
</svg>
