<?xml version="1.0" encoding="utf-8"?>
<!-- Generator: Adobe Illustrator 19.2.0, SVG Export Plug-In . SVG Version: 6.00 Build 0)  -->
<svg version="1.1" id="Livello_1" xmlns="http://www.w3.org/2000/svg" xmlns:xlink="http://www.w3.org/1999/xlink" x="0px" y="0px"
	 viewBox="0 0 960 960" style="enable-background:new 0 0 960 960;" xml:space="preserve">
<style type="text/css">
	.st0{fill-rule:evenodd;clip-rule:evenodd;fill:#CECFD1;}
	.st1{fill-rule:evenodd;clip-rule:evenodd;fill:#FFFFFF;}
	.st2{fill-rule:evenodd;clip-rule:evenodd;fill:#1A171B;}
	.st3{fill-rule:evenodd;clip-rule:evenodd;fill:#FFEC00;}
</style>
<g>
	<g>
		<polygon class="st0" points="45,332.3 915,332.3 915,642.8 45,642.8 45,332.3 		"/>
		<polygon class="st0" points="407,332.3 552.9,332.3 552.9,642.8 407,642.8 407,332.3 		"/>
		<polygon class="st1" points="45,343.2 915,343.2 915,352.2 45,352.2 45,343.2 		"/>
		<polygon class="st1" points="45,622.5 915,622.5 915,631.6 45,631.6 45,622.5 		"/>
		<polygon class="st2" points="291.1,598.4 407.2,583.3 407.2,627.7 291.1,642.8 291.1,598.4 		"/>
		<polygon class="st3" points="291.1,554.1 407.2,538.9 407.2,583.3 291.1,598.4 291.1,554.1 		"/>
		<polygon class="st2" points="291.1,509.7 407.2,494.6 407.2,538.9 291.1,554 291.1,509.7 		"/>
		<polygon class="st3" points="291.1,465.3 407.2,450.2 407.2,494.5 291.1,509.7 291.1,465.3 		"/>
		<polygon class="st2" points="291.1,420.9 407.2,405.8 407.2,450.1 291.1,465.3 291.1,420.9 		"/>
		<polygon class="st3" points="291.1,376.7 407.2,361.5 407.2,405.9 291.1,421 291.1,376.7 		"/>
		<polygon class="st2" points="291.1,332.3 407.2,317.2 407.2,361.5 291.1,376.6 291.1,332.3 		"/>
		<polygon class="st2" points="407.3,317.2 552.9,317.2 552.9,361.5 407.3,361.5 407.3,317.2 		"/>
		<polygon class="st3" points="407.3,361.5 552.9,361.5 552.9,405.9 407.3,405.9 407.3,361.5 		"/>
		<polygon class="st2" points="407.3,405.8 552.9,405.8 552.9,450.1 407.3,450.1 407.3,405.8 		"/>
		<polygon class="st3" points="407.3,450.2 552.9,450.2 552.9,494.5 407.3,494.5 407.3,450.2 		"/>
		<polygon class="st2" points="407.3,494.6 552.9,494.6 552.9,538.9 407.3,538.9 407.3,494.6 		"/>
		<polygon class="st3" points="407.3,538.9 552.9,538.9 552.9,583.3 407.3,583.3 407.3,538.9 		"/>
		<polygon class="st2" points="407.3,583.3 552.9,583.3 552.9,627.7 407.3,627.7 407.3,583.3 		"/>
		<polygon class="st2" points="552.8,583.3 669,598.4 669,642.8 552.8,627.7 552.8,583.3 		"/>
		<polygon class="st3" points="552.8,538.9 669,554.1 669,598.4 552.8,583.3 552.8,538.9 		"/>
		<polygon class="st2" points="552.8,494.6 669,509.7 669,554 552.8,538.9 552.8,494.6 		"/>
		<polygon class="st3" points="552.8,450.2 669,465.3 669,509.7 552.8,494.5 552.8,450.2 		"/>
		<polygon class="st2" points="552.8,405.8 669,420.9 669,465.3 552.8,450.1 552.8,405.8 		"/>
		<polygon class="st3" points="552.8,361.5 669,376.7 669,421 552.8,405.9 552.8,361.5 		"/>
		<polygon class="st2" points="552.8,317.2 669,332.3 669,376.6 552.8,361.5 552.8,317.2 		"/>
	</g>
</g>
</svg>
