<?xml version="1.0" encoding="utf-8"?>
<!-- Generator: Adobe Illustrator 19.2.0, SVG Export Plug-In . SVG Version: 6.00 Build 0)  -->
<svg version="1.1" id="Livello_1" xmlns="http://www.w3.org/2000/svg" xmlns:xlink="http://www.w3.org/1999/xlink" x="0px" y="0px"
	 viewBox="0 0 960 960" style="enable-background:new 0 0 960 960;" xml:space="preserve">
<style type="text/css">
	.st0{fill-rule:evenodd;clip-rule:evenodd;fill:#CECFD1;}
	.st1{fill-rule:evenodd;clip-rule:evenodd;fill:#FFFFFF;}
</style>
<g>
	<g>
		<polygon class="st0" points="45,455.4 915,455.4 915,542.1 45,542.1 45,455.4 		"/>
		<polygon class="st0" points="45,417.9 915,417.9 915,505.3 45,505.3 45,417.9 		"/>
		<polygon class="st1" points="45,422.1 915,422.1 915,425.9 45,425.9 45,422.1 		"/>
		<polygon class="st1" points="92.1,459.2 113.4,459.2 113.4,463 92.1,463 92.1,459.2 		"/>
		<polygon class="st1" points="868,500.5 846.6,500.5 846.6,496.7 868,496.7 868,500.5 		"/>
		<polygon class="st1" points="45.1,459.2 64.2,459.2 64.2,463 45.1,463 45.1,459.2 		"/>
		<polygon class="st1" points="915,500.5 895.9,500.5 895.9,496.7 915,496.7 915,500.5 		"/>
		<polygon class="st1" points="141.3,496.7 162.6,496.7 162.6,500.5 141.3,500.5 141.3,496.7 		"/>
		<polygon class="st1" points="818.8,463 797.5,463 797.5,459.2 818.8,459.2 818.8,463 		"/>
		<polygon class="st1" points="769.7,463 748.4,463 748.4,459.2 769.7,459.2 769.7,463 		"/>
		<polygon class="st1" points="190.5,496.7 211.8,496.7 211.8,500.5 190.5,500.5 190.5,496.7 		"/>
		<polygon class="st1" points="720.5,463 699.2,463 699.2,459.2 720.5,459.2 720.5,463 		"/>
		<polygon class="st1" points="92.1,496.7 113.4,496.7 113.4,500.5 92.1,500.5 92.1,496.7 		"/>
		<polygon class="st1" points="868,463 846.6,463 846.6,459.2 868,459.2 868,463 		"/>
		<polygon class="st1" points="45.1,496.7 64.2,496.7 64.2,500.5 45.1,500.5 45.1,496.7 		"/>
		<polygon class="st1" points="915,463 895.9,463 895.9,459.2 915,459.2 915,463 		"/>
		<polygon class="st1" points="239.7,496.7 261,496.7 261,500.5 239.7,500.5 239.7,496.7 		"/>
		<polygon class="st1" points="45,534.1 915,534.1 915,537.9 45,537.9 45,535.8 45,534.1 		"/>
		<polygon class="st1" points="130.4,459.6 147.8,459.6 147.8,463.4 130.4,463.4 130.4,459.6 		"/>
		<polygon class="st1" points="829.7,500.2 812.3,500.2 812.3,496.4 829.7,496.4 829.7,500.2 		"/>
		<polygon class="st1" points="175.9,459.6 193.3,459.6 193.3,463.4 175.9,463.4 175.9,459.6 		"/>
		<polygon class="st1" points="784.2,500.2 766.8,500.2 766.8,496.4 784.2,496.4 784.2,500.2 		"/>
		<polygon class="st1" points="153.1,459.6 170.5,459.6 170.5,463.4 153.1,463.4 153.1,459.6 		"/>
		<polygon class="st1" points="806.9,500.2 789.5,500.2 789.5,496.4 806.9,496.4 806.9,500.2 		"/>
		<polygon class="st1" points="198.6,459.6 216,459.6 216,463.4 198.6,463.4 198.6,459.6 		"/>
		<polygon class="st1" points="761.4,500.2 744,500.2 744,496.4 761.4,496.4 761.4,500.2 		"/>
		<polygon class="st1" points="221.4,459.6 238.8,459.6 238.8,463.4 221.4,463.4 221.4,459.6 		"/>
		<polygon class="st1" points="738.7,500.2 721.3,500.2 721.3,496.4 738.7,496.4 738.7,500.2 		"/>
		<polygon class="st1" points="627.9,496.6 712.5,496.6 712.5,500.4 626.3,500.5 302.1,463.2 247.6,463.2 247.6,459.4 295.9,459.4 
			303.6,459.4 627.9,496.6 		"/>
	</g>
</g>
</svg>
