<?xml version="1.0" encoding="utf-8"?>
<!-- Generator: Adobe Illustrator 19.2.0, SVG Export Plug-In . SVG Version: 6.00 Build 0)  -->
<svg version="1.1" id="Livello_1" xmlns="http://www.w3.org/2000/svg" xmlns:xlink="http://www.w3.org/1999/xlink" x="0px" y="0px"
	 viewBox="0 0 960 960" style="enable-background:new 0 0 960 960;" xml:space="preserve">
<style type="text/css">
	.st0{fill-rule:evenodd;clip-rule:evenodd;fill:#CECFD1;}
	.st1{fill-rule:evenodd;clip-rule:evenodd;fill:#FFFFFF;}
	.st2{fill-rule:evenodd;clip-rule:evenodd;fill:#E2E3E4;}
	.st3{fill-rule:evenodd;clip-rule:evenodd;fill:#FFFFFF;stroke:#FFFFFF;stroke-width:0.4158;stroke-miterlimit:2.6131;}
	.st4{fill-rule:evenodd;clip-rule:evenodd;fill:#1A171B;}
</style>
<g>
	<g>
		<polygon class="st0" points="45,244.1 915,244.1 915,715.9 45,715.9 45,244.1 		"/>
		<polygon class="st1" points="702.5,409.9 915,409.9 915,414.6 702.5,414.6 702.5,409.9 		"/>
		<polygon class="st1" points="45,386.8 399.2,386.8 399.2,391.5 45,391.5 45,386.8 		"/>
		<polygon class="st1" points="45,432.4 399.2,432.4 399.2,437.1 45,437.1 45,432.4 		"/>
		<polygon class="st1" points="45,703.8 914.8,703.8 914.8,708.5 45,708.5 45,703.8 		"/>
		<polygon class="st1" points="702.5,489.6 914.8,489.6 914.8,494.4 702.5,494.4 702.5,489.6 		"/>
		<polygon class="st1" points="45,499.3 399.3,499.3 399.3,504.1 45,504.1 45,499.3 		"/>
		<polygon class="st1" points="702.5,497.7 914.8,497.7 914.8,502.4 702.5,502.4 702.5,497.7 		"/>
		<polygon class="st1" points="45,507.4 399.3,507.4 399.3,512.1 45,512.1 45,507.4 		"/>
		<polygon class="st1" points="45,251.6 915,251.6 915,256.4 45,256.4 45,251.6 		"/>
		<polygon class="st1" points="574.7,327.5 599.2,328.2 599,333 574.5,332.3 574.7,327.5 		"/>
		<polygon class="st1" points="619.7,328.8 644.2,329.5 644.1,334.3 619.6,333.6 619.7,328.8 		"/>
		<polygon class="st1" points="304.3,319.9 328.8,320.6 328.7,325.3 304.1,324.6 304.3,319.9 		"/>
		<polygon class="st1" points="664.8,330.1 689.3,330.8 689.2,335.5 664.7,334.9 664.8,330.1 		"/>
		<polygon class="st1" points="349.4,321.2 373.9,321.8 373.7,326.6 349.2,325.9 349.4,321.2 		"/>
		<polygon class="st1" points="709.8,330.8 734.4,330.8 734.4,335.5 709.8,335.5 709.8,330.8 		"/>
		<polygon class="st1" points="168.4,319.5 193,319.5 193,324.3 168.4,324.3 168.4,319.5 		"/>
		<polygon class="st1" points="45,319.5 57.7,319.5 57.7,324.3 45,324.3 45,319.5 		"/>
		<polygon class="st1" points="394.4,322.4 419,323.1 418.8,327.9 394.3,327.2 394.4,322.4 		"/>
		<polygon class="st1" points="754.9,330.8 779.5,330.8 779.5,335.5 754.9,335.5 754.9,330.8 		"/>
		<polygon class="st1" points="213.5,319.5 238.1,319.5 238.1,324.3 213.5,324.3 213.5,319.5 		"/>
		<polygon class="st1" points="78.3,319.5 102.8,319.5 102.8,324.3 78.3,324.3 78.3,319.5 		"/>
		<polygon class="st1" points="439.5,323.7 464,324.4 463.9,329.2 439.4,328.5 439.5,323.7 		"/>
		<polygon class="st1" points="845.1,330.8 869.6,330.8 869.6,335.5 845.1,335.5 845.1,330.8 		"/>
		<polygon class="st1" points="529.7,326.3 554.2,327 554,331.7 529.5,331 529.7,326.3 		"/>
		<polygon class="st1" points="800,330.8 824.6,330.8 824.6,335.5 800,335.5 800,330.8 		"/>
		<polygon class="st1" points="258.6,319.5 283.2,319.5 283.2,324.3 258.6,324.3 258.6,319.5 		"/>
		<polygon class="st1" points="123.4,319.5 147.9,319.5 147.9,324.3 123.4,324.3 123.4,319.5 		"/>
		<polygon class="st1" points="484.6,325 509.1,325.7 509,330.4 484.5,329.7 484.6,325 		"/>
		<polygon class="st1" points="890.2,330.8 914.7,330.8 914.7,335.5 890.2,335.5 890.2,330.8 		"/>
		<polygon class="st1" points="574.5,570.9 599.1,570.9 599.1,575.7 574.5,575.7 574.5,570.9 		"/>
		<polygon class="st1" points="259,570.9 283.5,570.9 283.5,575.7 259,575.7 259,570.9 		"/>
		<polygon class="st1" points="619.6,570.9 644.2,570.9 644.2,575.7 619.6,575.7 619.6,570.9 		"/>
		<polygon class="st1" points="304.1,570.9 328.6,570.9 328.6,575.7 304.1,575.7 304.1,570.9 		"/>
		<polygon class="st1" points="664.7,570.9 689.3,570.9 689.3,575.7 664.7,575.7 664.7,570.9 		"/>
		<polygon class="st1" points="349.2,570.9 373.7,570.9 373.7,575.7 349.2,575.7 349.2,570.9 		"/>
		<polygon class="st1" points="45,570.9 58.1,570.9 58.1,575.7 45,575.7 45,570.9 		"/>
		<polygon class="st1" points="709.8,570.9 734.4,570.9 734.4,575.7 709.8,575.7 709.8,570.9 		"/>
		<polygon class="st1" points="394.3,570.9 418.8,570.9 418.8,575.7 394.3,575.7 394.3,570.9 		"/>
		<polygon class="st1" points="78.7,570.9 103.2,570.9 103.2,575.7 78.7,575.7 78.7,570.9 		"/>
		<polygon class="st1" points="754.9,570.9 779.5,570.9 779.5,575.7 754.9,575.7 754.9,570.9 		"/>
		<polygon class="st1" points="439.4,570.9 463.9,570.9 463.9,575.7 439.4,575.7 439.4,570.9 		"/>
		<polygon class="st1" points="123.8,570.9 148.3,570.9 148.3,575.7 123.8,575.7 123.8,570.9 		"/>
		<polygon class="st1" points="845.1,570.9 869.6,570.9 869.6,575.7 845.1,575.7 845.1,570.9 		"/>
		<polygon class="st1" points="529.5,570.9 554.1,570.9 554.1,575.7 529.5,575.7 529.5,570.9 		"/>
		<polygon class="st1" points="214,570.9 238.5,570.9 238.5,575.7 214,575.7 214,570.9 		"/>
		<polygon class="st1" points="800,570.9 824.6,570.9 824.6,575.7 800,575.7 800,570.9 		"/>
		<polygon class="st1" points="484.5,570.9 509,570.9 509,575.7 484.5,575.7 484.5,570.9 		"/>
		<polygon class="st1" points="168.9,570.9 193.4,570.9 193.4,575.7 168.9,575.7 168.9,570.9 		"/>
		<polygon class="st1" points="890.2,570.9 914.7,570.9 914.7,575.7 890.2,575.7 890.2,570.9 		"/>
		<polygon class="st1" points="574.5,637.3 599.1,637.3 599.1,642.1 574.5,642.1 574.5,637.3 		"/>
		<polygon class="st1" points="259,637.3 283.5,637.3 283.5,642.1 259,642.1 259,637.3 		"/>
		<polygon class="st1" points="619.6,637.3 644.2,637.3 644.2,642.1 619.6,642.1 619.6,637.3 		"/>
		<polygon class="st1" points="304.1,637.3 328.6,637.3 328.6,642.1 304.1,642.1 304.1,637.3 		"/>
		<polygon class="st1" points="664.7,637.3 689.3,637.3 689.3,642.1 664.7,642.1 664.7,637.3 		"/>
		<polygon class="st1" points="349.2,637.3 373.7,637.3 373.7,642.1 349.2,642.1 349.2,637.3 		"/>
		<polygon class="st1" points="45,637.3 58.1,637.3 58.1,642.1 45,642.1 45,637.3 		"/>
		<polygon class="st1" points="709.8,637.3 734.4,637.3 734.4,642.1 709.8,642.1 709.8,637.3 		"/>
		<polygon class="st1" points="394.3,637.3 418.8,637.3 418.8,642.1 394.3,642.1 394.3,637.3 		"/>
		<polygon class="st1" points="78.7,637.3 103.2,637.3 103.2,642.1 78.7,642.1 78.7,637.3 		"/>
		<polygon class="st1" points="754.9,637.3 779.5,637.3 779.5,642.1 754.9,642.1 754.9,637.3 		"/>
		<polygon class="st1" points="439.4,637.3 463.9,637.3 463.9,642.1 439.4,642.1 439.4,637.3 		"/>
		<polygon class="st1" points="123.8,637.3 148.3,637.3 148.3,642.1 123.8,642.1 123.8,637.3 		"/>
		<polygon class="st1" points="845.1,637.3 869.6,637.3 869.6,642.1 845.1,642.1 845.1,637.3 		"/>
		<polygon class="st1" points="529.5,637.3 554.1,637.3 554.1,642.1 529.5,642.1 529.5,637.3 		"/>
		<polygon class="st1" points="214,637.3 238.5,637.3 238.5,642.1 214,642.1 214,637.3 		"/>
		<polygon class="st1" points="800,637.3 824.6,637.3 824.6,642.1 800,642.1 800,637.3 		"/>
		<polygon class="st1" points="484.5,637.3 509,637.3 509,642.1 484.5,642.1 484.5,637.3 		"/>
		<polygon class="st1" points="168.9,637.3 193.4,637.3 193.4,642.1 168.9,642.1 168.9,637.3 		"/>
		<polygon class="st1" points="890.2,637.3 914.7,637.3 914.7,642.1 890.2,642.1 890.2,637.3 		"/>
		<path class="st2" d="M45.1,395.5h198.2c14.8,0,24.8,4.8,24.8,16.6c0,11.8-9.8,16.6-24.9,16.6h-198V395.5L45.1,395.5z"/>
		<polygon class="st1" points="397.9,386.9 702.5,409.9 702.5,414.6 397.7,437.2 396.9,432.5 611.7,416.8 616.8,412.2 611.5,407.4 
			397.7,391.3 397.9,386.9 		"/>
		<polygon class="st3" points="598.7,409.7 600.9,412.2 598.8,414.6 585.2,415.5 588,412.2 584.9,408.7 598.7,409.7 		"/>
		<polygon class="st3" points="559,406.9 563.7,412.2 559.4,417.2 545.6,418.2 550.8,412.2 545.2,405.9 559,406.9 		"/>
		<polygon class="st3" points="519.3,404 526.5,412.2 519.7,420 506,421 513.6,412.2 505.5,402.9 519.3,404 		"/>
		<polygon class="st3" points="479.6,401.1 489.4,412.2 480.1,422.9 466.3,423.9 476.5,412.2 465.8,400 479.6,401.1 		"/>
		<polygon class="st3" points="439.9,398.2 452.2,412.2 440.4,425.7 426.7,426.7 439.3,412.2 426.1,397.1 439.9,398.2 		"/>
		<polygon class="st3" points="400.4,395.5 415,412.2 400.7,428.6 387.8,428.6 402.2,412.2 387.5,395.5 400.4,395.5 		"/>
		<polygon class="st3" points="363.2,395.5 377.9,412.2 363.6,428.6 350.7,428.6 365,412.2 350.3,395.5 363.2,395.5 		"/>
		<polygon class="st3" points="326,395.5 340.7,412.2 326.4,428.6 313.5,428.6 327.8,412.2 313.1,395.5 326,395.5 		"/>
		<path class="st3" d="M286.8,395.5l14.7,16.8l-14.3,16.4h-13.5c3.1-4.7,4.7-9.4,4.7-16.4c0-7.2-1.7-12-5-16.8H286.8L286.8,395.5z"
			/>
		<polygon class="st1" points="399.1,499.3 703.8,489.4 703.8,494.1 399.2,504.1 399.1,499.3 		"/>
		<polygon class="st1" points="399.3,507.4 703.8,497.4 703.8,502.2 399.5,512.1 399.3,507.4 		"/>
		<polygon class="st4" points="194.9,286.8 249.7,286.8 249.7,289.4 194.9,289.4 194.9,286.8 		"/>
		<polygon class="st4" points="205.7,297.7 179.4,288 205.7,278.5 204.8,276 171.8,288.1 204.8,300.1 205.7,297.7 		"/>
		<polygon class="st4" points="818.5,538.6 763.6,538.6 763.6,541.2 818.5,541.2 818.5,538.6 		"/>
		<polygon class="st4" points="807.6,549.4 833.9,539.8 807.6,530.2 808.5,527.8 841.6,539.9 808.6,551.9 807.6,549.4 		"/>
		<polygon class="st4" points="818.5,671.3 763.6,671.3 763.6,673.9 818.5,673.9 818.5,671.3 		"/>
		<polygon class="st4" points="807.6,682.1 833.9,672.5 807.6,662.9 808.5,660.5 841.6,672.6 808.6,684.6 807.6,682.1 		"/>
		<polygon class="st4" points="194.9,467.8 249.7,467.8 249.7,470.4 194.9,470.4 194.9,467.8 		"/>
		<polygon class="st4" points="205.7,478.6 179.4,469 205.7,459.5 204.8,457 171.8,469.1 204.8,481.1 205.7,478.6 		"/>
		<polygon class="st4" points="195.3,357 250.2,357 250.2,354.4 195.3,354.4 195.3,357 		"/>
		<polygon class="st4" points="206.2,346.2 179.9,355.8 206.2,365.4 205.3,367.8 172.3,355.7 205.3,343.7 206.2,346.2 		"/>
		<polygon class="st4" points="818,607.5 763.1,607.5 763.1,604.8 818,604.8 818,607.5 		"/>
		<polygon class="st4" points="807.1,596.6 833.4,606.3 807.1,615.8 808,618.2 841.1,606.2 808.1,594.1 807.1,596.6 		"/>
	</g>
</g>
</svg>
