<?xml version="1.0" encoding="utf-8"?>
<!-- Generator: Adobe Illustrator 19.2.0, SVG Export Plug-In . SVG Version: 6.00 Build 0)  -->
<svg version="1.1" id="Livello_1" xmlns="http://www.w3.org/2000/svg" xmlns:xlink="http://www.w3.org/1999/xlink" x="0px" y="0px"
	 viewBox="0 0 960 960" style="enable-background:new 0 0 960 960;" xml:space="preserve">
<style type="text/css">
	.st0{fill-rule:evenodd;clip-rule:evenodd;fill:#E2E3E4;stroke:#E2E3E4;stroke-width:0.3789;stroke-miterlimit:2.6131;}
	.st1{fill-rule:evenodd;clip-rule:evenodd;fill:#CECFD1;}
	.st2{fill-rule:evenodd;clip-rule:evenodd;fill:#FFFFFF;}
	.st3{fill-rule:evenodd;clip-rule:evenodd;fill:#3D3D3F;}
	.st4{fill:none;stroke:#B0B2B3;stroke-width:0.1263;stroke-miterlimit:2.6131;}
</style>
<g>
	<g>
		<polygon class="st0" points="340.8,340.5 120.9,340.5 120.9,619.3 340.8,619.3 340.8,840 619.1,840 619.1,619.3 839.2,619.3 
			839.2,340.5 619.1,340.5 619.1,120.1 340.8,120.1 340.8,340.5 		"/>
		<path class="st1" d="M364.2,120.1v220.5c0,16.2-7.5,23.4-23.4,23.4h-220v231.5h220c14.9,0,23.4,8.9,23.4,23.8V840h231.4V619.3
			c0-15,8.1-23.8,23.5-23.8h220V364h-220c-15.8,0-23.5-7.2-23.5-23.4V120.1H364.2L364.2,120.1z"/>
		<polygon class="st2" points="474.4,674.4 478.1,674.4 478.1,840 474.4,840 474.4,674.4 		"/>
		<polygon class="st2" points="673.7,485.3 673.7,481.6 839.1,481.6 839.1,485.3 673.7,485.3 		"/>
		<polygon class="st2" points="286.4,474.2 286.4,477.9 120.8,477.9 120.8,474.2 286.4,474.2 		"/>
		<polygon class="st2" points="485.5,285.6 481.8,285.6 481.8,120 485.5,120 485.5,285.6 		"/>
		<polygon class="st2" points="417.7,687 421.3,687 421.3,703.8 417.7,703.8 417.7,687 		"/>
		<polygon class="st2" points="686.4,542.2 686.4,538.5 703.2,538.5 703.2,542.2 686.4,542.2 		"/>
		<polygon class="st2" points="273.8,417.4 273.8,421.1 257,421.1 257,417.4 273.8,417.4 		"/>
		<polygon class="st2" points="542.4,273 538.7,273 538.7,256.2 542.4,256.2 542.4,273 		"/>
		<polygon class="st2" points="417.7,757 421.3,757 421.3,773.8 417.7,773.8 417.7,757 		"/>
		<polygon class="st2" points="756.3,542.2 756.3,538.5 773.1,538.5 773.1,542.2 756.3,542.2 		"/>
		<polygon class="st2" points="203.8,417.4 203.8,421.1 186.9,421.1 186.9,417.4 203.8,417.4 		"/>
		<polygon class="st2" points="542.3,203.1 538.6,203.1 538.6,186.3 542.3,186.3 542.3,203.1 		"/>
		<polygon class="st2" points="417.7,827.5 421.3,827.5 421.3,839.9 417.7,839.9 417.7,827.5 		"/>
		<polygon class="st2" points="826.8,542.2 826.8,538.5 839.2,538.5 839.2,542.2 826.8,542.2 		"/>
		<polygon class="st2" points="133.3,417.4 133.3,421.1 120.9,421.1 120.9,417.4 133.3,417.4 		"/>
		<polygon class="st2" points="542.3,132.6 538.6,132.6 538.6,120.2 542.3,120.2 542.3,132.6 		"/>
		<polygon class="st2" points="417.7,722 421.3,722 421.3,738.9 417.7,738.9 417.7,722 		"/>
		<polygon class="st2" points="721.3,542.2 721.3,538.5 738.1,538.5 738.1,542.2 721.3,542.2 		"/>
		<polygon class="st2" points="238.8,417.4 238.8,421.1 221.9,421.1 221.9,417.4 238.8,417.4 		"/>
		<polygon class="st2" points="542.3,238.1 538.6,238.1 538.6,221.2 542.3,221.2 542.3,238.1 		"/>
		<polygon class="st2" points="417.7,792.3 421.3,792.3 421.3,809.2 417.7,809.2 417.7,792.3 		"/>
		<polygon class="st2" points="791.6,542.2 791.6,538.5 808.4,538.5 808.4,542.2 791.6,542.2 		"/>
		<polygon class="st2" points="168.5,417.4 168.5,421.1 151.6,421.1 151.6,417.4 168.5,417.4 		"/>
		<polygon class="st2" points="542.3,167.8 538.6,167.8 538.6,150.9 542.3,150.9 542.3,167.8 		"/>
		<polygon class="st2" points="481.6,674.4 485.3,674.4 485.3,840 481.6,840 481.6,674.4 		"/>
		<polygon class="st2" points="673.7,478 673.7,474.3 839.1,474.3 839.1,478 673.7,478 		"/>
		<polygon class="st2" points="286.4,481.5 286.4,485.2 120.8,485.2 120.8,481.5 286.4,481.5 		"/>
		<polygon class="st2" points="478.4,285.6 474.7,285.6 474.7,120 478.4,120 478.4,285.6 		"/>
		<polygon class="st2" points="538.5,674.4 542.2,674.4 542.2,840 538.5,840 538.5,674.4 		"/>
		<polygon class="st2" points="673.7,421.1 673.7,417.4 839.1,417.4 839.1,421.1 673.7,421.1 		"/>
		<polygon class="st2" points="286.4,538.4 286.4,542.1 120.8,542.1 120.8,538.4 286.4,538.4 		"/>
		<polygon class="st2" points="421.5,285.6 417.8,285.6 417.8,120 421.5,120 421.5,285.6 		"/>
		<polygon class="st2" points="595.6,674.4 474.3,674.4 474.3,687.1 595.6,687.1 595.6,674.4 		"/>
		<polygon class="st2" points="673.7,363.9 673.7,485.4 686.3,485.4 686.3,363.9 673.7,363.9 		"/>
		<polygon class="st2" points="286.5,595.4 286.5,474.2 273.8,474.2 273.8,595.4 286.5,595.4 		"/>
		<polygon class="st2" points="364.3,285.7 485.5,285.7 485.5,273 364.3,273 364.3,285.7 		"/>
		<polygon class="st2" points="370.6,607.7 380.5,607.7 380.5,657.2 370.6,657.2 370.6,607.7 		"/>
		<polygon class="st2" points="389.6,607.7 399.6,607.7 399.6,657.2 389.6,657.2 389.6,607.7 		"/>
		<polygon class="st2" points="408.7,607.7 418.6,607.7 418.6,657.2 408.7,657.2 408.7,607.7 		"/>
		<polygon class="st2" points="427.6,607.7 437.5,607.7 437.5,657.2 427.6,657.2 427.6,607.7 		"/>
		<polygon class="st2" points="446.6,607.7 456.6,607.7 456.6,657.2 446.6,657.2 446.6,607.7 		"/>
		<polygon class="st2" points="465.7,607.7 475.6,607.7 475.6,657.2 465.7,657.2 465.7,607.7 		"/>
		<polygon class="st2" points="484.6,607.7 494.6,607.7 494.6,657.2 484.6,657.2 484.6,607.7 		"/>
		<polygon class="st2" points="541.6,607.7 551.6,607.7 551.6,657.2 541.6,657.2 541.6,607.7 		"/>
		<polygon class="st2" points="503.5,607.7 513.5,607.7 513.5,657.2 503.5,657.2 503.5,607.7 		"/>
		<polygon class="st2" points="560.5,607.7 570.5,607.7 570.5,657.2 560.5,657.2 560.5,607.7 		"/>
		<polygon class="st2" points="522.6,607.7 532.5,607.7 532.5,657.2 522.6,657.2 522.6,607.7 		"/>
		<polygon class="st2" points="579.6,607.7 589.6,607.7 589.6,657.2 579.6,657.2 579.6,607.7 		"/>
		<polygon class="st2" points="303.3,589 303.3,579 352.8,579 352.8,589 303.3,589 		"/>
		<polygon class="st2" points="303.3,569.9 303.3,559.9 352.8,559.9 352.8,569.9 303.3,569.9 		"/>
		<polygon class="st2" points="303.3,550.9 303.3,540.9 352.8,540.9 352.8,550.9 303.3,550.9 		"/>
		<polygon class="st2" points="303.3,531.9 303.3,522 352.8,522 352.8,531.9 303.3,531.9 		"/>
		<polygon class="st2" points="303.3,512.9 303.3,502.9 352.8,502.9 352.8,512.9 303.3,512.9 		"/>
		<polygon class="st2" points="303.3,493.9 303.3,483.9 352.8,483.9 352.8,493.9 303.3,493.9 		"/>
		<polygon class="st2" points="303.3,474.9 303.3,465 352.8,465 352.8,474.9 303.3,474.9 		"/>
		<polygon class="st2" points="303.3,417.9 303.3,407.9 352.8,407.9 352.8,417.9 303.3,417.9 		"/>
		<polygon class="st2" points="303.3,456 303.3,446 352.8,446 352.8,456 303.3,456 		"/>
		<polygon class="st2" points="303.3,399 303.3,389 352.8,389 352.8,399 303.3,399 		"/>
		<polygon class="st2" points="303.3,436.9 303.3,427 352.8,427 352.8,436.9 303.3,436.9 		"/>
		<polygon class="st2" points="303.3,379.9 303.3,370 352.8,370 352.8,379.9 303.3,379.9 		"/>
		<polygon class="st2" points="607.4,589 607.4,579 656.9,579 656.9,589 607.4,589 		"/>
		<polygon class="st2" points="607.4,569.9 607.4,559.9 656.9,559.9 656.9,569.9 607.4,569.9 		"/>
		<polygon class="st2" points="607.4,550.9 607.4,540.9 656.9,540.9 656.9,550.9 607.4,550.9 		"/>
		<polygon class="st2" points="607.4,531.9 607.4,522 656.9,522 656.9,531.9 607.4,531.9 		"/>
		<polygon class="st2" points="607.4,512.9 607.4,502.9 656.9,502.9 656.9,512.9 607.4,512.9 		"/>
		<polygon class="st2" points="607.4,493.9 607.4,483.9 656.9,483.9 656.9,493.9 607.4,493.9 		"/>
		<polygon class="st2" points="607.4,474.9 607.4,465 656.9,465 656.9,474.9 607.4,474.9 		"/>
		<polygon class="st2" points="607.4,417.9 607.4,407.9 656.9,407.9 656.9,417.9 607.4,417.9 		"/>
		<polygon class="st2" points="607.4,456 607.4,446 656.9,446 656.9,456 607.4,456 		"/>
		<polygon class="st2" points="607.4,399 607.4,389 656.9,389 656.9,399 607.4,399 		"/>
		<polygon class="st2" points="607.4,436.9 607.4,427 656.9,427 656.9,436.9 607.4,436.9 		"/>
		<polygon class="st2" points="607.4,379.9 607.4,370 656.9,370 656.9,379.9 607.4,379.9 		"/>
		<polygon class="st2" points="370.6,302.9 380.5,302.9 380.5,352.5 370.6,352.5 370.6,302.9 		"/>
		<polygon class="st2" points="389.6,302.9 399.6,302.9 399.6,352.5 389.6,352.5 389.6,302.9 		"/>
		<polygon class="st2" points="408.7,302.9 418.6,302.9 418.6,352.5 408.7,352.5 408.7,302.9 		"/>
		<polygon class="st2" points="427.6,302.9 437.5,302.9 437.5,352.5 427.6,352.5 427.6,302.9 		"/>
		<polygon class="st2" points="446.6,302.9 456.6,302.9 456.6,352.5 446.6,352.5 446.6,302.9 		"/>
		<polygon class="st2" points="465.7,302.9 475.6,302.9 475.6,352.5 465.7,352.5 465.7,302.9 		"/>
		<polygon class="st2" points="484.6,302.9 494.6,302.9 494.6,352.5 484.6,352.5 484.6,302.9 		"/>
		<polygon class="st2" points="541.6,302.9 551.6,302.9 551.6,352.5 541.6,352.5 541.6,302.9 		"/>
		<polygon class="st2" points="503.5,302.9 513.5,302.9 513.5,352.5 503.5,352.5 503.5,302.9 		"/>
		<polygon class="st2" points="560.5,302.9 570.5,302.9 570.5,352.5 560.5,352.5 560.5,302.9 		"/>
		<polygon class="st2" points="522.6,302.9 532.5,302.9 532.5,352.5 522.6,352.5 522.6,302.9 		"/>
		<polygon class="st2" points="579.6,302.9 589.6,302.9 589.6,352.5 579.6,352.5 579.6,302.9 		"/>
		<path class="st3" d="M352.4,348.7c2.1,0,3.8,1.7,3.8,3.8c0,2.1-1.7,3.8-3.8,3.8c-2.1,0-3.8-1.7-3.8-3.8
			C348.6,350.4,350.3,348.7,352.4,348.7L352.4,348.7z"/>
		<path class="st3" d="M607.3,348.8c2.1,0,3.8,1.7,3.8,3.8c0,2.1-1.7,3.8-3.8,3.8c-2.1,0-3.8-1.7-3.8-3.8
			C603.5,350.5,605.2,348.8,607.3,348.8L607.3,348.8z"/>
		<path class="st3" d="M607.3,603.8c2.1,0,3.8,1.7,3.8,3.8c0,2.1-1.7,3.8-3.8,3.8c-2.1,0-3.8-1.7-3.8-3.8
			C603.5,605.6,605.2,603.8,607.3,603.8L607.3,603.8z"/>
		<path class="st3" d="M352.4,603.8c2.1,0,3.8,1.7,3.8,3.8c0,2.1-1.7,3.8-3.8,3.8c-2.1,0-3.8-1.7-3.8-3.8
			C348.6,605.6,350.3,603.8,352.4,603.8L352.4,603.8z"/>
		<path class="st2" d="M582.9,482.8l-0.7-3.8c0.8-0.1,1.6-0.2,2.5-0.5c4.4-0.5,7-0.7,10.8-0.8v3.8
			C591.8,481.7,587.3,482.2,582.9,482.8L582.9,482.8z M573.9,480.8l0.7,3.5c-3.7,1-7.3,2.3-10.7,3.6l-1.3-3.6
			C566.3,483,570.1,481.8,573.9,480.8L573.9,480.8z M554.9,487.5l1.3,3.6c-3.3,1.5-6.7,3.2-9.9,5l-2-3.3
			C547.6,490.9,551.2,489,554.9,487.5L554.9,487.5z M537,497.1l2,3.3c-3,2.1-6,4.2-8.9,6.3l-2.4-3
			C530.7,501.5,533.8,499.2,537,497.1L537,497.1z M521.1,509.3l2.4,2.8c-2.8,2.5-5.4,5.1-8,7.6l-2.8-2.3
			C515.4,514.6,518.2,511.9,521.1,509.3L521.1,509.3z M507.2,523.6l2.7,2.3c-2.4,2.9-4.7,5.9-6.9,8.9l-3-1.7
			C502.1,529.9,504.6,526.7,507.2,523.6L507.2,523.6z M495.4,540l2.9,1.7c-2.1,3.3-3.9,6.7-5.5,10l-3.2-1.2
			C491.3,547.1,493.3,543.5,495.4,540L495.4,540z M486,558.3l3.3,1.2c-1.5,3.7-2.8,7.4-3.8,11.1l-3.7-0.7
			C483,565.9,484.4,562.1,486,558.3L486,558.3z M479.9,578l3.7,0.7c-1,5.8-1.6,11.7-1.6,16.9H478l0.3-6.5
			C478.7,585.1,479.2,581.7,479.9,578L479.9,578z"/>
		<path class="st2" d="M583.2,476.5l-0.7,3.8c0.8,0.1,1.6,0.2,2.5,0.5c4.4,0.5,7,0.7,10.9,0.8v-3.8
			C592.1,477.6,587.6,477.1,583.2,476.5L583.2,476.5z M574.2,478.5l0.7-3.5c-3.7-1-7.3-2.3-10.7-3.6l-1.3,3.6
			C566.5,476.3,570.4,477.5,574.2,478.5L574.2,478.5z M555.1,471.8l1.3-3.6c-3.3-1.5-6.7-3.2-9.9-5l-2,3.3
			C547.8,468.5,551.4,470.3,555.1,471.8L555.1,471.8z M537.2,462.2l2-3.3c-3-2.1-6-4.2-8.9-6.3l-2.4,3
			C530.9,457.8,534,460.1,537.2,462.2L537.2,462.2z M521.3,450l2.4-2.8c-2.8-2.5-5.4-5.1-8-7.6l-2.8,2.3
			C515.6,444.7,518.4,447.5,521.3,450L521.3,450z M507.5,435.7l2.7-2.3c-2.4-2.9-4.7-5.9-6.9-8.9l-3,1.7
			C502.4,429.4,504.8,432.6,507.5,435.7L507.5,435.7z M495.7,419.3l2.9-1.7c-2.1-3.3-3.9-6.7-5.5-10l-3.2,1.2
			C491.5,412.2,493.5,415.8,495.7,419.3L495.7,419.3z M486.2,401.1l3.3-1.2c-1.5-3.7-2.8-7.4-3.8-11.1l-3.7,0.7
			C483.2,393.4,484.6,397.2,486.2,401.1L486.2,401.1z M480.1,381.3l3.7-0.7c-1-5.8-1.6-11.7-1.6-16.9h-3.9l0.3,6.5
			C478.9,374.2,479.4,377.6,480.1,381.3L480.1,381.3z"/>
		<path class="st2" d="M376.9,476.5l0.7,3.8c-0.8,0.1-1.6,0.2-2.5,0.5c-4.4,0.5-7,0.7-10.9,0.8v-3.8
			C368,477.6,372.5,477.1,376.9,476.5L376.9,476.5z M385.9,478.5l-0.7-3.5c3.7-1,7.3-2.3,10.7-3.6l1.3,3.6
			C393.5,476.3,389.7,477.5,385.9,478.5L385.9,478.5z M405,471.8l-1.3-3.6c3.3-1.5,6.7-3.2,9.9-5l2,3.3
			C412.2,468.5,408.7,470.3,405,471.8L405,471.8z M422.8,462.2l-2-3.3c3-2.1,6-4.2,8.9-6.3l2.4,3
			C429.2,457.8,426.1,460.1,422.8,462.2L422.8,462.2z M438.8,450l-2.4-2.8c2.8-2.5,5.4-5.1,8-7.6l2.8,2.3
			C444.4,444.7,441.7,447.5,438.8,450L438.8,450z M452.6,435.7l-2.7-2.3c2.4-2.9,4.7-5.9,6.9-8.9l3,1.7
			C457.7,429.4,455.3,432.6,452.6,435.7L452.6,435.7z M464.4,419.3l-2.9-1.7c2.1-3.3,3.9-6.7,5.5-10l3.2,1.2
			C468.6,412.2,466.6,415.8,464.4,419.3L464.4,419.3z M473.9,401.1l-3.3-1.2c1.5-3.7,2.8-7.4,3.8-11.1l3.7,0.7
			C476.9,393.4,475.5,397.2,473.9,401.1L473.9,401.1z M480,381.3l-3.7-0.7c1-5.8,1.6-11.7,1.6-16.9h3.9l-0.3,6.5
			C481.1,374.2,480.7,377.6,480,381.3L480,381.3z"/>
		<path class="st2" d="M376.9,482.8l0.7-3.8c-0.8-0.1-1.6-0.2-2.5-0.5c-4.4-0.5-7-0.7-10.9-0.8v3.8
			C368,481.7,372.5,482.2,376.9,482.8L376.9,482.8z M385.9,480.8l-0.7,3.5c3.7,1,7.3,2.3,10.7,3.6l1.3-3.6
			C393.5,483,389.7,481.8,385.9,480.8L385.9,480.8z M405,487.5l-1.3,3.6c3.3,1.5,6.7,3.2,9.9,5l2-3.3
			C412.2,490.9,408.7,489,405,487.5L405,487.5z M422.8,497.1l-2,3.3c3,2.1,6,4.2,8.9,6.3l2.4-3C429.2,501.5,426.1,499.2,422.8,497.1
			L422.8,497.1z M438.8,509.3l-2.4,2.8c2.8,2.5,5.4,5.1,8,7.6l2.8-2.3C444.4,514.6,441.7,511.9,438.8,509.3L438.8,509.3z
			 M452.6,523.6l-2.7,2.3c2.4,2.9,4.7,5.9,6.9,8.9l3-1.7C457.7,529.9,455.3,526.7,452.6,523.6L452.6,523.6z M464.4,540l-2.9,1.7
			c2.1,3.3,3.9,6.7,5.5,10l3.2-1.2C468.6,547.1,466.6,543.5,464.4,540L464.4,540z M473.9,558.3l-3.3,1.2c1.5,3.7,2.8,7.4,3.8,11.1
			l3.7-0.7C476.9,565.9,475.5,562.1,473.9,558.3L473.9,558.3z M480,578l-3.7,0.7c1,5.8,1.6,11.7,1.6,16.9h3.9l-0.3-6.5
			C481.1,585.1,480.7,581.7,480,578L480,578z"/>
		<path class="st4" d="M364.2,120.1v220.5c0,16.2-7.5,23.3-23.4,23.3h-220 M120.8,595.5h220c14.9,0,23.4,8.9,23.4,23.8V840
			 M595.6,840V619.3c0-15,8.1-23.8,23.5-23.8h220 M839.2,364h-220c-15.8,0-23.5-7.2-23.5-23.4V120.1"/>
		<path class="st4" d="M340.8,120.1l-0.1,220.3H120.8 M120.8,619.3h220V840 M619.2,840V619.3h220 M839.2,340.5H619.1V120.1"/>
	</g>
</g>
</svg>
