<?xml version="1.0" encoding="utf-8"?>
<!-- Generator: Adobe Illustrator 19.2.0, SVG Export Plug-In . SVG Version: 6.00 Build 0)  -->
<svg version="1.1" id="Livello_1" xmlns="http://www.w3.org/2000/svg" xmlns:xlink="http://www.w3.org/1999/xlink" x="0px" y="0px"
	 viewBox="0 0 960 960" style="enable-background:new 0 0 960 960;" xml:space="preserve">
<style type="text/css">
	.st0{fill-rule:evenodd;clip-rule:evenodd;fill:#E2E3E4;}
	.st1{fill-rule:evenodd;clip-rule:evenodd;fill:#CECFD1;}
	.st2{fill-rule:evenodd;clip-rule:evenodd;fill:#FFFFFF;}
	.st3{fill-rule:evenodd;clip-rule:evenodd;fill:#1A171B;}
</style>
<g>
	<g>
		<polygon class="st0" points="254.8,416.1 324.1,416.2 324.1,802.8 635.8,802.8 635.8,416.1 705.2,416.1 705.2,311.3 254.8,311.3 
			254.8,416.1 		"/>
		<path class="st1" d="M597.3,311.4v-0.1H254.8v68.6h85c12.6,0,20.6,9.1,20.6,21.1v401.8h2.2h236.9V401.1c0-12.1,7.9-21.2,20.6-21.2
			h85v-68.5H597.3L597.3,311.4z"/>
		<polygon class="st2" points="362.4,802.8 365.8,802.8 365.8,398.8 362.4,398.8 362.4,802.8 		"/>
		<polygon class="st2" points="597.5,802.8 594.1,802.8 594.1,398.8 597.5,398.8 597.5,802.8 		"/>
		<polygon class="st2" points="618.3,377.5 618.8,374.1 705.2,374.1 705.2,377.5 618.3,377.5 		"/>
		<polygon class="st2" points="481,374.2 484.3,374.2 484.3,802.8 481,802.8 481,374.2 		"/>
		<polygon class="st2" points="475.6,374.2 478.9,374.2 478.9,802.8 475.6,802.8 475.6,374.2 		"/>
		<polygon class="st2" points="475.9,374.2 623.2,374.2 610.3,377.4 599.9,383.8 475.9,383.8 475.9,374.2 		"/>
		<polygon class="st2" points="341.7,377.5 341.1,374.1 254.8,374.1 254.8,377.5 341.7,377.5 		"/>
		<path class="st2" d="M339.7,377.4l0.9-3.3c13.5,0,25.2,11.2,25.2,24.8h-3.4C362.4,387.1,352.8,377.5,339.7,377.4L339.7,377.4z"/>
		<path class="st2" d="M619.1,377.4l-0.2-3.3c-13.5,0-24.7,10.9-24.7,24.6l3.4,0.2C597.6,387.1,606.9,377.9,619.1,377.4L619.1,377.4
			z"/>
		<polygon class="st2" points="503,508.5 503,468.1 495.7,461.3 495.7,453.1 490.9,467 495.7,481 495.7,472.9 500.2,477.2 
			500.2,508.5 503,508.5 		"/>
		<polygon class="st2" points="540.5,508.5 540.5,475 544.1,475 539,453.1 534.1,474.9 537.7,474.9 537.6,508.5 540.5,508.5 		"/>
		<polygon class="st2" points="575.4,508.5 575.4,494 575.3,475 571.7,475 576.8,453.1 581.7,474.9 578.1,474.9 578.1,491.4 
			582.6,487.1 582.6,479 587.5,492.9 582.6,506.9 582.6,498.7 578.2,503.3 578.2,508.5 575.4,508.5 		"/>
		<polygon class="st2" points="503,604.3 503,563.9 495.7,557 495.7,548.9 490.9,562.8 495.7,576.8 495.7,568.7 500.2,573 
			500.2,604.3 503,604.3 		"/>
		<polygon class="st2" points="540.5,604.3 540.5,570.8 544.1,570.8 539,548.9 534.1,570.7 537.7,570.7 537.6,604.3 540.5,604.3 		
			"/>
		<polygon class="st2" points="575.4,604.3 575.4,589.8 575.3,570.8 571.7,570.8 576.8,548.9 581.7,570.7 578.1,570.7 578.1,587.2 
			582.6,582.9 582.6,574.8 587.5,588.7 582.6,602.6 582.6,594.5 578.2,599.1 578.2,604.3 575.4,604.3 		"/>
		<polygon class="st2" points="503,700.1 503,659.7 495.7,652.8 495.7,644.7 490.9,658.6 495.7,672.6 495.7,664.5 500.2,668.8 
			500.2,700.1 503,700.1 		"/>
		<polygon class="st2" points="540.5,700.1 540.5,666.6 544.1,666.6 539,644.7 534.1,666.5 537.7,666.5 537.6,700.1 540.5,700.1 		
			"/>
		<polygon class="st2" points="575.4,700.1 575.4,685.5 575.3,666.6 571.7,666.6 576.8,644.7 581.7,666.5 578.1,666.5 578.1,683 
			582.6,678.7 582.6,670.5 587.5,684.4 582.6,698.4 582.6,690.3 578.2,694.9 578.2,700.1 575.4,700.1 		"/>
		<polygon class="st2" points="503,795.8 503,755.5 495.7,748.6 495.7,740.5 490.9,754.4 495.7,768.4 495.7,760.2 500.2,764.6 
			500.2,795.8 503,795.8 		"/>
		<polygon class="st2" points="540.5,795.8 540.5,762.3 544.1,762.3 539,740.5 534.1,762.3 537.7,762.3 537.6,795.8 540.5,795.8 		
			"/>
		<polygon class="st2" points="575.4,795.8 575.4,781.3 575.3,762.3 571.7,762.3 576.8,740.5 581.7,762.3 578.1,762.3 578.1,778.7 
			582.6,774.4 582.6,766.3 587.5,780.2 582.6,794.2 582.6,786.1 578.2,790.7 578.2,795.8 575.4,795.8 		"/>
		<polygon class="st0" points="705.2,240.1 635.9,240 635.9,120 324.2,120 324.2,240.1 254.8,240.1 254.8,344.9 705.2,344.9 
			705.2,240.1 		"/>
		<path class="st1" d="M362.7,344.8v0.1h342.4v-68.6h-85c-12.6,0-20.6-9.1-20.6-21.1V120H360.5v135.2c0,12.1-7.9,21.2-20.6,21.2h-85
			v68.5H362.7L362.7,344.8z"/>
		<polygon class="st2" points="594.2,120 594.2,257.5 597.6,257.5 597.6,120 594.2,120 		"/>
		<polygon class="st2" points="365.9,120 365.9,257.5 362.5,257.5 362.5,120 365.9,120 		"/>
		<polygon class="st2" points="341.7,278.7 341.2,282.1 254.8,282.1 254.8,278.7 341.7,278.7 		"/>
		<polygon class="st2" points="403.6,282 400.3,282 400.3,120 403.6,120 403.6,282 		"/>
		<polygon class="st2" points="441.3,282 438,282 438,120 441.3,120 441.3,282 		"/>
		<polygon class="st2" points="479,282 475.7,282 475.7,120 479,120 479,282 		"/>
		<polygon class="st2" points="484.4,282 481.1,282 481.1,120 484.4,120 484.4,282 		"/>
		<polygon class="st2" points="484.1,282 336.8,282 349.7,278.8 360.1,272.4 484.1,272.4 484.1,282 		"/>
		<polygon class="st2" points="597.9,329.7 597.9,326.4 705.2,326.4 705.2,329.7 597.9,329.7 		"/>
		<polygon class="st2" points="597.9,329.4 597.9,265.2 601.1,272.2 607.5,277.6 607.5,329.4 597.9,329.4 		"/>
		<polygon class="st2" points="618.3,278.7 618.9,282.1 705.2,282.1 705.2,278.7 618.3,278.7 		"/>
		<path class="st2" d="M620.3,278.8l-0.9,3.3c-13.5,0-25.2-11.2-25.2-24.8h3.4C597.6,269.1,607.2,278.7,620.3,278.8L620.3,278.8z"/>
		<path class="st2" d="M340.9,278.8l0.2,3.3c13.5,0,24.7-10.9,24.7-24.6l-3.4-0.2C362.4,269.1,353.1,278.3,340.9,278.8L340.9,278.8z
			"/>
		<polygon class="st2" points="457,147.9 457,188.3 464.3,195.2 464.3,203.3 469.1,189.4 464.3,175.4 464.3,183.5 459.8,179.2 
			459.8,147.9 457,147.9 		"/>
		<polygon class="st2" points="419.5,147.9 419.5,181.4 415.9,181.4 421,203.3 425.9,181.5 422.3,181.5 422.4,147.9 419.5,147.9 		
			"/>
		<polygon class="st2" points="384.6,147.9 384.6,162.4 384.7,181.4 388.3,181.4 383.2,203.3 378.3,181.5 381.9,181.5 381.9,165 
			377.4,169.3 377.4,177.4 372.5,163.5 377.4,149.6 377.4,157.7 381.8,153.1 381.8,147.9 384.6,147.9 		"/>
		<polygon class="st2" points="362.1,326.4 362.1,329.7 254.8,329.7 254.8,326.4 362.1,326.4 		"/>
		<polygon class="st2" points="362.1,326.6 362.1,390.8 358.9,383.9 352.5,378.5 352.5,326.6 362.1,326.6 		"/>
		<polygon class="st2" points="400.3,776.2 400.3,765.5 403.6,765.5 403.6,776.2 400.3,776.2 		"/>
		<polygon class="st2" points="400.3,756.5 400.3,745.8 403.6,745.8 403.6,756.5 400.3,756.5 		"/>
		<polygon class="st2" points="400.3,736.7 400.3,726 403.6,726 403.6,736.7 400.3,736.7 		"/>
		<polygon class="st2" points="400.3,717 400.3,706.3 403.6,706.3 403.6,717 400.3,717 		"/>
		<polygon class="st2" points="400.3,697.3 400.3,686.6 403.6,686.6 403.6,697.3 400.3,697.3 		"/>
		<polygon class="st2" points="400.3,657.9 400.3,647.2 403.6,647.2 403.6,657.9 400.3,657.9 		"/>
		<polygon class="st2" points="400.3,677.6 400.3,666.9 403.6,666.9 403.6,677.6 400.3,677.6 		"/>
		<polygon class="st2" points="400.3,795.9 400.3,785.2 403.6,785.2 403.6,795.9 400.3,795.9 		"/>
		<polygon class="st2" points="438,776.2 438,765.5 441.2,765.5 441.2,776.2 438,776.2 		"/>
		<polygon class="st2" points="438,756.5 438,745.7 441.2,745.7 441.2,756.5 438,756.5 		"/>
		<polygon class="st2" points="438,736.7 438,726 441.2,726 441.2,736.7 438,736.7 		"/>
		<polygon class="st2" points="438,717 438,706.3 441.2,706.3 441.2,717 438,717 		"/>
		<polygon class="st2" points="438,697.3 438,686.6 441.2,686.6 441.2,697.3 438,697.3 		"/>
		<polygon class="st2" points="438,657.9 438,647.2 441.2,647.2 441.2,657.9 438,657.9 		"/>
		<polygon class="st2" points="438,677.6 438,666.9 441.2,666.9 441.2,677.6 438,677.6 		"/>
		<polygon class="st2" points="438,795.9 438,785.2 441.2,785.2 441.2,795.9 438,795.9 		"/>
		<polygon class="st2" points="437.9,519.9 437.9,509.2 441.2,509.2 441.2,519.9 437.9,519.9 		"/>
		<polygon class="st2" points="437.9,500.2 437.9,489.4 441.2,489.4 441.2,500.2 437.9,500.2 		"/>
		<polygon class="st2" points="437.9,480.4 437.9,469.7 441.2,469.7 441.2,480.4 437.9,480.4 		"/>
		<polygon class="st2" points="437.9,460.7 437.9,450 441.2,450 441.2,460.7 437.9,460.7 		"/>
		<polygon class="st2" points="437.9,441 437.9,430.3 441.2,430.3 441.2,441 437.9,441 		"/>
		<polygon class="st2" points="437.9,401.6 437.9,390.9 441.2,390.9 441.2,401.6 437.9,401.6 		"/>
		<polygon class="st2" points="437.9,421.3 437.9,410.6 441.2,410.6 441.2,421.3 437.9,421.3 		"/>
		<polygon class="st2" points="437.9,638.2 437.9,627.4 441.2,627.4 441.2,638.2 437.9,638.2 		"/>
		<polygon class="st2" points="437.9,618.4 437.9,607.7 441.2,607.7 441.2,618.4 437.9,618.4 		"/>
		<polygon class="st2" points="437.9,598.7 437.9,588 441.2,588 441.2,598.7 437.9,598.7 		"/>
		<polygon class="st2" points="437.9,579 437.9,568.3 441.2,568.3 441.2,579 437.9,579 		"/>
		<polygon class="st2" points="437.9,539.6 437.9,528.9 441.2,528.9 441.2,539.6 437.9,539.6 		"/>
		<polygon class="st2" points="437.9,559.3 437.9,548.6 441.2,548.6 441.2,559.3 437.9,559.3 		"/>
		<polygon class="st2" points="400.3,519.9 400.3,509.2 403.6,509.2 403.6,519.9 400.3,519.9 		"/>
		<polygon class="st2" points="400.3,500.2 400.3,489.4 403.6,489.4 403.6,500.2 400.3,500.2 		"/>
		<polygon class="st2" points="400.3,480.4 400.3,469.7 403.6,469.7 403.6,480.4 400.3,480.4 		"/>
		<polygon class="st2" points="400.3,460.7 400.3,450 403.6,450 403.6,460.7 400.3,460.7 		"/>
		<polygon class="st2" points="400.3,441 400.3,430.3 403.6,430.3 403.6,441 400.3,441 		"/>
		<polygon class="st2" points="400.3,401.6 400.3,390.9 403.6,390.9 403.6,401.6 400.3,401.6 		"/>
		<polygon class="st2" points="400.3,421.3 400.3,410.6 403.6,410.6 403.6,421.3 400.3,421.3 		"/>
		<polygon class="st2" points="400.3,638.2 400.3,627.4 403.6,627.4 403.6,638.2 400.3,638.2 		"/>
		<polygon class="st2" points="400.3,618.4 400.3,607.7 403.6,607.7 403.6,618.4 400.3,618.4 		"/>
		<polygon class="st2" points="400.3,598.7 400.3,588 403.6,588 403.6,598.7 400.3,598.7 		"/>
		<polygon class="st2" points="400.3,579 400.3,568.3 403.6,568.3 403.6,579 400.3,579 		"/>
		<polygon class="st2" points="400.3,539.6 400.3,528.9 403.6,528.9 403.6,539.6 400.3,539.6 		"/>
		<polygon class="st2" points="400.3,559.3 400.3,548.6 403.6,548.6 403.6,559.3 400.3,559.3 		"/>
		<polygon class="st2" points="556.4,743.6 556.4,732.8 559.7,732.8 559.7,743.6 556.4,743.6 		"/>
		<polygon class="st2" points="556.4,723.8 556.4,713.1 559.7,713.1 559.7,723.8 556.4,723.8 		"/>
		<polygon class="st2" points="556.4,704.1 556.4,693.4 559.7,693.4 559.7,704.1 556.4,704.1 		"/>
		<polygon class="st2" points="556.4,684.4 556.4,673.7 559.7,673.7 559.7,684.4 556.4,684.4 		"/>
		<polygon class="st2" points="556.4,664.7 556.4,654 559.7,654 559.7,664.7 556.4,664.7 		"/>
		<polygon class="st2" points="556.4,625.3 556.4,614.5 559.7,614.5 559.7,625.3 556.4,625.3 		"/>
		<polygon class="st2" points="556.4,645 556.4,634.3 559.7,634.3 559.7,645 556.4,645 		"/>
		<polygon class="st2" points="556.5,802.8 556.5,792.1 559.8,792.1 559.8,802.8 556.5,802.8 		"/>
		<polygon class="st2" points="556.5,783 556.5,772.3 559.8,772.3 559.8,783 556.5,783 		"/>
		<polygon class="st2" points="556.5,763.3 556.5,752.6 559.8,752.6 559.8,763.3 556.5,763.3 		"/>
		<polygon class="st2" points="556.4,374.2 559.7,374.2 559.7,605.4 556.4,605.4 556.4,374.2 		"/>
		<polygon class="st2" points="518.7,743.6 518.7,732.8 522,732.8 522,743.6 518.7,743.6 		"/>
		<polygon class="st2" points="518.7,723.8 518.7,713.1 522,713.1 522,723.8 518.7,723.8 		"/>
		<polygon class="st2" points="518.7,704.1 518.7,693.4 522,693.4 522,704.1 518.7,704.1 		"/>
		<polygon class="st2" points="518.7,684.4 518.7,673.7 522,673.7 522,684.4 518.7,684.4 		"/>
		<polygon class="st2" points="518.7,664.7 518.7,654 522,654 522,664.7 518.7,664.7 		"/>
		<polygon class="st2" points="518.7,625.3 518.7,614.5 522,614.5 522,625.3 518.7,625.3 		"/>
		<polygon class="st2" points="518.7,645 518.7,634.3 522,634.3 522,645 518.7,645 		"/>
		<polygon class="st2" points="518.7,802.7 518.7,792 522,792 522,802.7 518.7,802.7 		"/>
		<polygon class="st2" points="518.7,763.3 518.7,752.5 522,752.5 522,763.3 518.7,763.3 		"/>
		<polygon class="st2" points="518.7,783 518.7,772.2 522,772.2 522,783 518.7,783 		"/>
		<polygon class="st2" points="518.7,374.2 522,374.2 522,605.4 518.7,605.4 518.7,374.2 		"/>
		<polygon class="st2" points="522.1,136.4 522.1,147.1 518.8,147.1 518.8,136.4 522.1,136.4 		"/>
		<polygon class="st2" points="522.1,156.1 522.1,166.8 518.8,166.8 518.8,156.1 522.1,156.1 		"/>
		<polygon class="st2" points="522.1,175.8 522.1,186.5 518.8,186.5 518.8,175.8 522.1,175.8 		"/>
		<polygon class="st2" points="522.1,195.5 522.1,206.2 518.8,206.2 518.8,195.5 522.1,195.5 		"/>
		<polygon class="st2" points="522.1,215.3 522.1,226 518.8,226 518.8,215.3 522.1,215.3 		"/>
		<polygon class="st2" points="522.1,254.7 522.1,265.4 518.8,265.4 518.8,254.7 522.1,254.7 		"/>
		<polygon class="st2" points="522.1,235 522.1,245.7 518.8,245.7 518.8,235 522.1,235 		"/>
		<polygon class="st2" points="522.1,120 522.1,127.4 518.8,127.4 518.8,120 522.1,120 		"/>
		<polygon class="st2" points="559.7,136.4 559.7,147.1 556.4,147.1 556.4,136.4 559.7,136.4 		"/>
		<polygon class="st2" points="559.7,156.1 559.7,166.8 556.4,166.8 556.4,156.1 559.7,156.1 		"/>
		<polygon class="st2" points="559.7,175.8 559.7,186.5 556.4,186.5 556.4,175.8 559.7,175.8 		"/>
		<polygon class="st2" points="559.7,195.5 559.7,206.2 556.4,206.2 556.4,195.5 559.7,195.5 		"/>
		<polygon class="st2" points="559.7,215.3 559.7,226 556.4,226 556.4,215.3 559.7,215.3 		"/>
		<polygon class="st2" points="559.7,254.7 559.7,265.4 556.4,265.4 556.4,254.7 559.7,254.7 		"/>
		<polygon class="st2" points="559.7,235 559.7,245.7 556.4,245.7 556.4,235 559.7,235 		"/>
		<polygon class="st2" points="559.7,120 559.7,127.4 556.4,127.4 556.4,120 559.7,120 		"/>
		<path class="st3" d="M514.9,839.6h-5.6l-2.2-5.8h-10.2l-2.1,5.8h-5.5l9.9-25.5h5.4L514.9,839.6L514.9,839.6z M505.4,829.5
			l-3.5-9.5l-3.4,9.5H505.4L505.4,829.5z"/>
		<path class="st3" d="M529.2,814.1h10.2c2,0,3.5,0.1,4.5,0.3c1,0.2,1.9,0.5,2.7,1c0.8,0.5,1.4,1.2,2,2.1c0.5,0.9,0.8,1.9,0.8,3
			c0,1.2-0.3,2.3-1,3.3c-0.6,1-1.5,1.7-2.6,2.2c1.5,0.5,2.7,1.2,3.6,2.3c0.8,1.1,1.3,2.4,1.3,3.8c0,1.2-0.3,2.3-0.8,3.4
			c-0.5,1.1-1.3,2-2.2,2.6c-0.9,0.7-2.1,1.1-3.5,1.2c-0.9,0.1-2.9,0.1-6.2,0.2h-8.7V814.1L529.2,814.1z M534.3,818.3v5.9h3.4
			c2,0,3.3,0,3.7-0.1c0.9-0.1,1.6-0.4,2.1-0.9c0.5-0.5,0.8-1.2,0.8-2c0-0.8-0.2-1.4-0.6-1.9c-0.4-0.5-1.1-0.8-1.9-0.9
			c-0.5-0.1-2-0.1-4.4-0.1H534.3L534.3,818.3z M534.3,828.5v6.8h4.8c1.9,0,3,0,3.5-0.2c0.8-0.1,1.4-0.5,1.9-1
			c0.5-0.5,0.7-1.3,0.7-2.2c0-0.8-0.2-1.4-0.6-1.9c-0.4-0.5-0.9-0.9-1.6-1.2c-0.7-0.2-2.2-0.4-4.6-0.4H534.3L534.3,828.5z"/>
		<path class="st3" d="M583.1,830.2l5,1.6c-0.8,2.8-2,4.9-3.8,6.2c-1.8,1.3-4,2-6.8,2c-3.4,0-6.2-1.2-8.3-3.5
			c-2.2-2.3-3.3-5.5-3.3-9.5c0-4.2,1.1-7.5,3.3-9.9c2.2-2.3,5.1-3.5,8.6-3.5c3.1,0,5.7,0.9,7.6,2.8c1.2,1.1,2,2.7,2.6,4.7l-5.1,1.2
			c-0.3-1.3-0.9-2.4-1.9-3.1c-1-0.8-2.1-1.1-3.5-1.1c-1.9,0-3.4,0.7-4.6,2c-1.2,1.4-1.8,3.6-1.8,6.6c0,3.2,0.6,5.5,1.7,6.9
			c1.2,1.4,2.7,2.1,4.5,2.1c1.4,0,2.5-0.4,3.5-1.3C581.9,833.4,582.6,832.1,583.1,830.2L583.1,830.2z"/>
	</g>
</g>
</svg>
