<?xml version="1.0" encoding="utf-8"?>
<!-- Generator: Adobe Illustrator 19.2.0, SVG Export Plug-In . SVG Version: 6.00 Build 0)  -->
<svg version="1.1" id="Livello_1" xmlns="http://www.w3.org/2000/svg" xmlns:xlink="http://www.w3.org/1999/xlink" x="0px" y="0px"
	 viewBox="0 0 960 960" style="enable-background:new 0 0 960 960;" xml:space="preserve">
<style type="text/css">
	.st0{fill-rule:evenodd;clip-rule:evenodd;fill:#CECFD1;}
	.st1{fill-rule:evenodd;clip-rule:evenodd;fill:#FFFFFF;stroke:#FFFFFF;stroke-width:0.1481;stroke-miterlimit:2.6131;}
	.st2{fill-rule:evenodd;clip-rule:evenodd;fill:#FFEC00;stroke:#FFEC00;stroke-width:0.1481;stroke-miterlimit:2.6131;}
</style>
<g>
	<g>
		<polygon class="st0" points="45,279.2 914.9,279.2 914.9,680.8 45,680.8 45,279.2 		"/>
		<polygon class="st1" points="401.4,471.9 915,471.9 915,477.2 401.4,477.2 401.4,471.9 		"/>
		<polygon class="st1" points="45,350.2 258.1,350.2 258.1,355.5 45,355.5 45,350.2 		"/>
		<polygon class="st1" points="663.3,350.2 914.9,350.2 914.9,355.5 663.3,355.5 663.3,350.2 		"/>
		<polygon class="st1" points="401.4,604.1 915,604.1 915,609.4 401.4,609.4 401.4,604.1 		"/>
		<polygon class="st1" points="401.4,482.4 433,482.4 433,487.7 401.4,487.7 401.4,482.4 		"/>
		<polygon class="st1" points="457,482.4 488.5,482.4 488.5,487.7 457,487.7 457,482.4 		"/>
		<polygon class="st1" points="60.7,471.9 92.2,471.9 92.2,477.2 60.7,477.2 60.7,471.9 		"/>
		<polygon class="st1" points="623,482.4 654.5,482.4 654.5,487.7 623,487.7 623,482.4 		"/>
		<polygon class="st1" points="226.7,471.9 258.2,471.9 258.2,477.2 226.7,477.2 226.7,471.9 		"/>
		<polygon class="st1" points="789,482.4 820.5,482.4 820.5,487.7 789,487.7 789,482.4 		"/>
		<polygon class="st1" points="512.3,482.4 543.8,482.4 543.8,487.7 512.3,487.7 512.3,482.4 		"/>
		<polygon class="st1" points="116,471.9 147.5,471.9 147.5,477.2 116,477.2 116,471.9 		"/>
		<polygon class="st1" points="678.3,482.4 709.8,482.4 709.8,487.7 678.3,487.7 678.3,482.4 		"/>
		<polygon class="st1" points="844.3,482.4 875.8,482.4 875.8,487.7 844.3,487.7 844.3,482.4 		"/>
		<polygon class="st1" points="567.7,482.4 599.3,482.4 599.3,487.7 567.7,487.7 567.7,482.4 		"/>
		<polygon class="st1" points="171.4,471.9 202.9,471.9 202.9,477.2 171.4,477.2 171.4,471.9 		"/>
		<polygon class="st1" points="733.7,482.4 765.3,482.4 765.3,487.7 733.7,487.7 733.7,482.4 		"/>
		<polygon class="st1" points="899.7,482.4 915,482.4 915,487.7 899.7,487.7 899.7,482.4 		"/>
		<polygon class="st1" points="401.3,673 401.3,609.4 406.6,609.4 406.6,673 401.3,673 		"/>
		<polygon class="st1" points="592.2,673 592.2,609.4 597.5,609.4 597.5,673 592.2,673 		"/>
		<polygon class="st1" points="663.3,350.2 663.3,286.6 668.6,286.6 668.6,350.2 663.3,350.2 		"/>
		<polygon class="st1" points="252.8,350.2 252.8,286.6 258.1,286.6 258.1,350.2 252.8,350.2 		"/>
		<polygon class="st1" points="61.9,350.2 61.9,286.6 67.2,286.6 67.2,350.2 61.9,350.2 		"/>
		<polygon class="st1" points="854.3,350.2 854.3,286.6 859.6,286.6 859.6,350.2 854.3,350.2 		"/>
		<polygon class="st1" points="783.2,673 783.2,609.4 788.5,609.4 788.5,673 783.2,673 		"/>
		<polygon class="st1" points="45,482.4 258.1,482.4 258.1,487.7 45,487.7 45,482.4 		"/>
		<polygon class="st2" points="405.9,344.2 463.4,286.6 529.2,346.9 595.1,286.6 652.7,344.2 652.7,287 657.2,287 657.2,355.6 
			594.8,293 529.2,353 463.6,293 401.3,355.6 401.3,287 405.9,287 405.9,344.2 		"/>
		<polygon class="st2" points="45.1,654.3 45.1,647.6 64.4,666.8 130,606.8 195.7,666.8 258.1,604.1 258.1,672.7 253.6,672.7 
			253.6,615.5 196,673.2 130,612.9 64.2,673.2 45.1,654.3 		"/>
		<polygon class="st1" points="288.8,648.3 370.6,648.3 370.6,663.8 288.8,663.8 288.8,648.3 		"/>
		<polygon class="st1" points="288.8,392.1 370.6,392.1 370.6,407.6 288.8,407.6 288.8,392.1 		"/>
		<polygon class="st1" points="288.8,520.5 370.6,520.5 370.6,536 288.8,536 288.8,520.5 		"/>
		<polygon class="st1" points="288.8,584.7 370.6,584.7 370.6,600.1 288.8,600.1 288.8,584.7 		"/>
		<polygon class="st1" points="288.8,328 370.6,328 370.6,343.4 288.8,343.4 288.8,328 		"/>
		<polygon class="st1" points="288.8,456.3 370.6,456.3 370.6,471.8 288.8,471.8 288.8,456.3 		"/>
		<polygon class="st1" points="288.8,616.6 370.6,616.6 370.6,632.1 288.8,632.1 288.8,616.6 		"/>
		<polygon class="st1" points="288.8,359.9 370.6,359.9 370.6,375.4 288.8,375.4 288.8,359.9 		"/>
		<polygon class="st1" points="288.8,488.3 370.6,488.3 370.6,503.7 288.8,503.7 288.8,488.3 		"/>
		<polygon class="st1" points="288.8,552.4 370.6,552.4 370.6,567.9 288.8,567.9 288.8,552.4 		"/>
		<polygon class="st1" points="288.8,295.7 370.6,295.7 370.6,311.2 288.8,311.2 288.8,295.7 		"/>
		<polygon class="st1" points="288.8,424.1 370.6,424.1 370.6,439.6 288.8,439.6 288.8,424.1 		"/>
	</g>
</g>
</svg>
