<?xml version="1.0" encoding="utf-8"?>
<!-- Generator: Adobe Illustrator 19.2.0, SVG Export Plug-In . SVG Version: 6.00 Build 0)  -->
<svg version="1.1" id="Livello_1" xmlns="http://www.w3.org/2000/svg" xmlns:xlink="http://www.w3.org/1999/xlink" x="0px" y="0px"
	 viewBox="0 0 960 960" style="enable-background:new 0 0 960 960;" xml:space="preserve">
<style type="text/css">
	.st0{fill-rule:evenodd;clip-rule:evenodd;fill:#E2E3E4;}
	.st1{fill-rule:evenodd;clip-rule:evenodd;fill:#CECFD1;}
	.st2{fill-rule:evenodd;clip-rule:evenodd;fill:#FFEC00;stroke:#FFEC00;stroke-width:0.1178;stroke-miterlimit:2.6131;}
	.st3{fill-rule:evenodd;clip-rule:evenodd;fill:#FFEC00;}
	.st4{fill:none;stroke:#B0B2B3;stroke-width:0.1178;stroke-miterlimit:2.6131;}
	.st5{fill-rule:evenodd;clip-rule:evenodd;fill:#FFFFFF;stroke:#FFFFFF;stroke-width:0.1178;stroke-miterlimit:2.6131;}
</style>
<g>
	<g>
		<polygon class="st0" points="915,365.3 45,365.3 45,594.7 915,594.7 915,365.3 		"/>
		<polygon class="st1" points="45,576.9 914.6,576.9 914.6,383.1 45,383.1 45,576.9 		"/>
		<polygon class="st2" points="101.4,530.6 144.5,569.3 185.7,532.1 227.1,569.3 268.2,532.1 309.4,569.3 352.4,530.6 352.4,573.5 
			349.1,573.5 349.1,537.9 309.4,573.7 268.2,536.5 227.1,573.7 185.7,536.5 144.5,573.7 104.7,537.9 104.7,573.5 101.4,573.5 
			101.4,530.6 		"/>
		<polygon class="st2" points="382.1,533.9 382.1,530.6 399.7,530.6 399.7,533.9 382.1,533.9 		"/>
		<polygon class="st2" points="441.3,533.9 441.3,530.6 458.9,530.6 458.9,533.9 441.3,533.9 		"/>
		<polygon class="st2" points="500.6,533.9 500.6,530.6 518.2,530.6 518.2,533.9 500.6,533.9 		"/>
		<polygon class="st2" points="471.1,533.9 471.1,530.6 488.7,530.6 488.7,533.9 471.1,533.9 		"/>
		<polygon class="st2" points="530.4,533.9 530.4,530.6 548,530.6 548,533.9 530.4,533.9 		"/>
		<polygon class="st2" points="559.9,533.9 559.9,530.6 577.5,530.6 577.5,533.9 559.9,533.9 		"/>
		<polygon class="st2" points="589.7,533.9 589.7,530.6 607.3,530.6 607.3,533.9 589.7,533.9 		"/>
		<polygon class="st2" points="411.7,533.9 411.7,530.6 429.3,530.6 429.3,533.9 411.7,533.9 		"/>
		<polygon class="st2" points="352.3,533.9 352.3,530.6 369.9,530.6 369.9,533.9 352.3,533.9 		"/>
		<polygon class="st2" points="607.5,530.4 650.6,569 691.8,531.8 733.2,569 774.3,531.8 815.5,569 858.5,530.4 858.5,573.3 
			855.2,573.3 855.2,537.7 815.5,573.5 774.3,536.3 733.2,573.5 691.8,536.3 650.6,573.5 610.7,537.7 610.7,573.3 607.5,573.3 
			607.5,530.4 		"/>
		<path class="st3" d="M466.6,542.2v3.8c0,0.8-0.1,1.3-0.3,1.7c-0.2,0.4-0.6,0.7-1.2,1c-0.6,0.3-1.4,0.5-2.4,0.7
			c-1,0.2-2.1,0.3-3.3,0.3c-1.3,0-2.6-0.1-3.7-0.4c-1.1-0.2-1.9-0.6-2.5-1c-0.5,0.6-1.4,1-2.6,1.3c-1.2,0.3-2.6,0.5-4.3,0.5
			c-1.3,0-2.5-0.1-3.8-0.3c-1.2-0.2-2.2-0.5-2.9-0.8c-0.7-0.3-1.2-0.8-1.4-1.3c-0.1-0.3-0.2-1.1-0.2-2.3v-3.2L466.6,542.2
			L466.6,542.2z M461.8,544.1h-6.6v1.3c0,0.7,0,1.2,0.1,1.4c0.1,0.3,0.5,0.6,1,0.8c0.6,0.2,1.3,0.3,2.2,0.3c0.9,0,1.6-0.1,2.1-0.2
			c0.5-0.2,0.9-0.4,1-0.7c0.1-0.2,0.1-0.7,0.1-1.6V544.1L461.8,544.1z M450.5,544.1h-7.6v1.8c0,0.7,0.1,1.1,0.2,1.3
			c0.2,0.3,0.5,0.5,1.1,0.7c0.6,0.2,1.4,0.3,2.4,0.3c0.9,0,1.6-0.1,2.2-0.2c0.6-0.1,1-0.3,1.3-0.6c0.3-0.3,0.4-0.8,0.4-1.7V544.1
			L450.5,544.1z"/>
		<path class="st3" d="M466.6,551.8v1.9h-15.4c-2.4,0-4,0-4.8,0.1c-1.2,0.1-2.1,0.3-2.8,0.6c-0.7,0.3-1.1,0.7-1.1,1.3
			c0,0.5,0.3,1,1,1.2c0.7,0.3,1.5,0.4,2.5,0.5c1,0.1,2.6,0.1,4.8,0.1h15.7v1.9h-14.9c-3.4,0-5.8-0.1-7.2-0.2
			c-1.4-0.1-2.6-0.3-3.6-0.6c-1-0.3-1.7-0.7-2.3-1.1c-0.6-0.5-0.9-1.1-0.9-1.8c0-0.9,0.3-1.6,0.9-2.1c0.6-0.5,1.4-0.8,2.4-1.1
			c1-0.3,2.1-0.5,3.2-0.5c1.6-0.1,4-0.2,7.2-0.2L466.6,551.8L466.6,551.8z"/>
		<path class="st3" d="M447.4,560.9l0.5,1.9c-1.9,0.1-3.3,0.3-4.1,0.7c-0.9,0.3-1.3,0.8-1.3,1.4c0,0.6,0.4,1.1,1.2,1.4
			c0.8,0.3,1.7,0.5,2.7,0.5c0.7,0,1.2-0.1,1.7-0.2c0.5-0.1,0.9-0.4,1.2-0.7c0.2-0.2,0.6-0.7,1.2-1.5c0.8-1,1.7-1.8,2.8-2.2
			c1.6-0.6,3.5-0.9,5.7-0.9c1.4,0,2.8,0.1,4.1,0.4c1.3,0.3,2.2,0.7,2.9,1.2c0.7,0.5,1,1.1,1,1.9c0,1.2-0.8,2.1-2.3,2.7
			c-1.6,0.6-3.7,0.9-6.3,1l-0.3-1.9c1.5-0.1,2.5-0.3,3.2-0.5c0.6-0.3,1-0.7,1-1.2c0-0.6-0.3-1-1-1.3c-0.4-0.2-1-0.3-1.8-0.3
			c-0.7,0-1.3,0.1-1.7,0.3c-0.6,0.2-1.2,0.8-1.9,1.8c-0.7,0.9-1.3,1.6-2,2.1c-0.7,0.4-1.7,0.8-2.9,1.1c-1.2,0.3-2.7,0.4-4.5,0.4
			c-1.6,0-3.2-0.2-4.6-0.5c-1.4-0.3-2.5-0.7-3.2-1.3c-0.7-0.6-1-1.2-1-2.1c0-1.2,0.8-2.1,2.5-2.8
			C441.8,561.4,444.2,561.1,447.4,560.9L447.4,560.9z"/>
		<line class="st4" x1="45" y1="594.7" x2="915" y2="594.7"/>
		<line class="st4" x1="45" y1="365.3" x2="915" y2="365.3"/>
		<polygon class="st5" points="45,481.9 914.6,481.9 914.6,478.1 45,478.1 45,481.9 		"/>
	</g>
</g>
</svg>
