<?xml version="1.0" encoding="utf-8"?>
<!-- Generator: Adobe Illustrator 19.2.0, SVG Export Plug-In . SVG Version: 6.00 Build 0)  -->
<svg version="1.1" id="Livello_1" xmlns="http://www.w3.org/2000/svg" xmlns:xlink="http://www.w3.org/1999/xlink" x="0px" y="0px"
	 viewBox="0 0 960 960" style="enable-background:new 0 0 960 960;" xml:space="preserve">
<style type="text/css">
	.st0{fill-rule:evenodd;clip-rule:evenodd;fill:#E2E3E4;}
	.st1{fill-rule:evenodd;clip-rule:evenodd;fill:#CECFD1;}
	.st2{fill-rule:evenodd;clip-rule:evenodd;fill:#FFFFFF;}
</style>
<g>
	<g>
		<polygon class="st0" points="357.3,500.2 343,500.3 343,839.9 616.8,839.9 616.8,500.2 608.8,500.2 608.8,408.1 357.3,408.1 
			357.3,500.2 		"/>
		<path class="st1" d="M583,408.2L583,408.2l-225.7-0.1l0,60.2h-0.5c11,0,18.1,8,18.1,18.5v353h1.9H585V487c0-10.6,7-18.6,18.1-18.6
			h5.7v-60.1H583L583,408.2z"/>
		<polygon class="st2" points="376.7,839.9 379.7,839.9 379.7,485 376.7,485 376.7,839.9 		"/>
		<polygon class="st2" points="583.3,839.9 580.3,839.9 580.3,485 583.3,485 583.3,839.9 		"/>
		<polygon class="st2" points="480.8,463.4 483.7,463.4 483.7,839.9 480.8,839.9 480.8,463.4 		"/>
		<polygon class="st2" points="476.2,463.4 479.1,463.4 479.1,839.9 476.2,839.9 476.2,463.4 		"/>
		<polygon class="st2" points="500.2,636.1 500.2,601.6 493.8,595.7 493.8,588.7 489.6,600.6 493.8,612.6 493.8,605.6 497.7,609.4 
			497.7,636.1 500.2,636.1 		"/>
		<polygon class="st2" points="533.2,636.1 533.2,607.4 536.3,607.4 531.9,588.7 527.6,607.4 530.7,607.4 530.6,636.1 533.2,636.1 
					"/>
		<polygon class="st2" points="563.8,636.1 563.8,623.7 563.7,607.4 560.6,607.4 565,588.7 569.3,607.4 566.2,607.4 566.2,621.5 
			570.2,617.8 570.2,610.8 574.4,622.7 570.2,634.7 570.2,627.8 566.3,631.7 566.3,636.1 563.8,636.1 		"/>
		<polygon class="st2" points="500.2,800 500.2,765.5 493.8,759.6 493.8,752.6 489.6,764.5 493.8,776.5 493.8,769.5 497.7,773.3 
			497.7,800 500.2,800 		"/>
		<polygon class="st2" points="533.2,800 533.2,771.3 536.3,771.3 531.9,752.6 527.6,771.3 530.7,771.3 530.6,800 533.2,800 		"/>
		<polygon class="st2" points="563.8,800 563.8,787.6 563.7,771.3 560.6,771.3 565,752.6 569.3,771.3 566.2,771.3 566.2,785.4 
			570.2,781.7 570.2,774.8 574.4,786.6 570.2,798.6 570.2,791.7 566.3,795.6 566.3,800 563.8,800 		"/>
		<polygon class="st2" points="410,806.5 410,797 412.9,797 412.9,806.5 410,806.5 		"/>
		<polygon class="st2" points="410,823.7 410,814.3 412.9,814.3 412.9,823.7 410,823.7 		"/>
		<polygon class="st2" points="410,789.1 410,779.7 412.9,779.7 412.9,789.1 410,789.1 		"/>
		<polygon class="st2" points="410,771.8 410,762.4 412.9,762.4 412.9,771.8 410,771.8 		"/>
		<polygon class="st2" points="410,754.5 410,745.1 412.9,745.1 412.9,754.5 410,754.5 		"/>
		<polygon class="st2" points="410,737.2 410,727.7 412.9,727.7 412.9,737.2 410,737.2 		"/>
		<polygon class="st2" points="410,702.5 410,693.1 412.9,693.1 412.9,702.5 410,702.5 		"/>
		<polygon class="st2" points="410,719.8 410,710.4 412.9,710.4 412.9,719.8 410,719.8 		"/>
		<polygon class="st2" points="410,840 410,831.6 412.9,831.6 412.9,840 410,840 		"/>
		<polygon class="st2" points="443.1,806.4 443.1,797 445.9,797 445.9,806.4 443.1,806.4 		"/>
		<polygon class="st2" points="443.1,823.7 443.1,814.3 445.9,814.3 445.9,823.7 443.1,823.7 		"/>
		<polygon class="st2" points="443.1,789.1 443.1,779.7 445.9,779.7 445.9,789.1 443.1,789.1 		"/>
		<polygon class="st2" points="443.1,771.8 443.1,762.4 445.9,762.4 445.9,771.8 443.1,771.8 		"/>
		<polygon class="st2" points="443.1,754.5 443.1,745.1 445.9,745.1 445.9,754.5 443.1,754.5 		"/>
		<polygon class="st2" points="443.1,737.2 443.1,727.7 445.9,727.7 445.9,737.2 443.1,737.2 		"/>
		<polygon class="st2" points="443.1,702.5 443.1,693.1 445.9,693.1 445.9,702.5 443.1,702.5 		"/>
		<polygon class="st2" points="443.1,719.8 443.1,710.4 445.9,710.4 445.9,719.8 443.1,719.8 		"/>
		<polygon class="st2" points="443.1,840 443.1,831.6 445.9,831.6 445.9,840 443.1,840 		"/>
		<polygon class="st2" points="443.1,685.2 443.1,675.8 445.9,675.8 445.9,685.2 443.1,685.2 		"/>
		<polygon class="st2" points="443.1,667.9 443.1,658.5 445.9,658.5 445.9,667.9 443.1,667.9 		"/>
		<polygon class="st2" points="443.1,650.5 443.1,641.1 445.9,641.1 445.9,650.5 443.1,650.5 		"/>
		<polygon class="st2" points="443.1,633.2 443.1,623.8 445.9,623.8 445.9,633.2 443.1,633.2 		"/>
		<polygon class="st2" points="443.1,598.6 443.1,589.2 445.9,589.2 445.9,598.6 443.1,598.6 		"/>
		<polygon class="st2" points="443.1,615.9 443.1,606.5 445.9,606.5 445.9,615.9 443.1,615.9 		"/>
		<polygon class="st2" points="410,685.2 410,675.8 412.9,675.8 412.9,685.2 410,685.2 		"/>
		<polygon class="st2" points="410,667.9 410,658.5 412.9,658.5 412.9,667.9 410,667.9 		"/>
		<polygon class="st2" points="410,650.5 410,641.1 412.9,641.1 412.9,650.5 410,650.5 		"/>
		<polygon class="st2" points="410,633.2 410,623.8 412.9,623.8 412.9,633.2 410,633.2 		"/>
		<polygon class="st2" points="410,598.6 410,589.2 412.9,589.2 412.9,598.6 410,598.6 		"/>
		<polygon class="st2" points="410,615.9 410,606.5 412.9,606.5 412.9,615.9 410,615.9 		"/>
		<polygon class="st2" points="547.2,787.9 547.2,778.5 550,778.5 550,787.9 547.2,787.9 		"/>
		<polygon class="st2" points="547.2,770.5 547.2,761.1 550,761.1 550,770.5 547.2,770.5 		"/>
		<polygon class="st2" points="547.2,753.2 547.2,743.8 550,743.8 550,753.2 547.2,753.2 		"/>
		<polygon class="st2" points="547.2,735.9 547.2,726.5 550,726.5 550,735.9 547.2,735.9 		"/>
		<polygon class="st2" points="547.2,718.6 547.2,709.2 550,709.2 550,718.6 547.2,718.6 		"/>
		<polygon class="st2" points="547.2,683.9 547.2,674.5 550,674.5 550,683.9 547.2,683.9 		"/>
		<polygon class="st2" points="547.2,701.3 547.2,691.8 550,691.8 550,701.3 547.2,701.3 		"/>
		<polygon class="st2" points="547.2,839.9 547.2,830.5 550.1,830.5 550.1,839.9 547.2,839.9 		"/>
		<polygon class="st2" points="547.2,822.6 547.2,813.1 550.1,813.1 550.1,822.6 547.2,822.6 		"/>
		<polygon class="st2" points="547.2,805.2 547.2,795.8 550.1,795.8 550.1,805.2 547.2,805.2 		"/>
		<polygon class="st2" points="514,787.9 514,778.5 516.9,778.5 516.9,787.9 514,787.9 		"/>
		<polygon class="st2" points="514,770.5 514,761.1 516.9,761.1 516.9,770.5 514,770.5 		"/>
		<polygon class="st2" points="514,753.2 514,743.8 516.9,743.8 516.9,753.2 514,753.2 		"/>
		<polygon class="st2" points="514,735.9 514,726.5 516.9,726.5 516.9,735.9 514,735.9 		"/>
		<polygon class="st2" points="514,718.6 514,709.2 516.9,709.2 516.9,718.6 514,718.6 		"/>
		<polygon class="st2" points="514,683.9 514,674.5 516.9,674.5 516.9,683.9 514,683.9 		"/>
		<polygon class="st2" points="514,701.3 514,691.8 516.9,691.8 516.9,701.3 514,701.3 		"/>
		<polygon class="st2" points="514,839.8 514,830.4 516.9,830.4 516.9,839.8 514,839.8 		"/>
		<polygon class="st2" points="514,805.2 514,795.8 516.9,795.8 516.9,805.2 514,805.2 		"/>
		<polygon class="st2" points="514,822.5 514,813.1 516.9,813.1 516.9,822.5 514,822.5 		"/>
		<polygon class="st0" points="282.2,247.8 343,247.9 343,587.5 616.8,587.5 616.8,247.8 677.8,247.8 677.8,155.7 282.2,155.7 
			282.2,247.8 		"/>
		<path class="st1" d="M282.2,120v96h74.6c11,0,18.1,8,18.1,18.5v353h1.9H585V234.5c0-10.6,7-18.6,18.1-18.6h74.7v-95.9L282.2,120
			L282.2,120z"/>
		<polygon class="st2" points="376.7,587.5 379.7,587.5 379.7,232.6 376.7,232.6 376.7,587.5 		"/>
		<polygon class="st2" points="583.3,587.5 580.3,587.5 580.3,232.6 583.3,232.6 583.3,587.5 		"/>
		<polygon class="st2" points="601.5,213.9 601.9,210.9 677.8,210.9 677.8,213.9 601.5,213.9 		"/>
		<polygon class="st2" points="480.8,211 483.7,211 483.7,587.5 480.8,587.5 480.8,211 		"/>
		<polygon class="st2" points="476.2,211 479.1,211 479.1,587.5 476.2,587.5 476.2,211 		"/>
		<polygon class="st2" points="476.4,211 605.8,211 594.5,213.8 585.3,219.4 476.4,219.4 476.4,211 		"/>
		<polygon class="st2" points="358.5,213.9 358,210.9 282.2,210.9 282.2,213.9 358.5,213.9 		"/>
		<path class="st2" d="M356.7,213.8l0.8-2.9c11.9,0,22.1,9.8,22.1,21.8h-3C376.7,222.3,368.3,213.9,356.7,213.8L356.7,213.8z"/>
		<path class="st2" d="M602.2,213.8l-0.2-2.9c-11.9,0-21.7,9.6-21.7,21.6l3,0.2C583.3,222.3,591.5,214.2,602.2,213.8L602.2,213.8z"
			/>
		<polygon class="st2" points="500.2,308.3 500.2,273.8 493.8,267.9 493.8,260.9 489.6,272.8 493.8,284.8 493.8,277.8 497.7,281.6 
			497.7,308.3 500.2,308.3 		"/>
		<polygon class="st2" points="533.2,308.3 533.2,279.6 536.3,279.6 531.9,260.9 527.6,279.6 530.7,279.6 530.6,308.3 533.2,308.3 
					"/>
		<polygon class="st2" points="563.8,308.3 563.8,295.9 563.7,279.6 560.6,279.6 565,260.9 569.3,279.6 566.2,279.6 566.2,293.7 
			570.2,290 570.2,283.1 574.4,294.9 570.2,306.9 570.2,300 566.3,303.9 566.3,308.3 563.8,308.3 		"/>
		<polygon class="st2" points="500.2,472.2 500.2,437.7 493.8,431.8 493.8,424.8 489.6,436.7 493.8,448.7 493.8,441.7 497.7,445.5 
			497.7,472.2 500.2,472.2 		"/>
		<polygon class="st2" points="533.2,472.2 533.2,443.5 536.3,443.5 531.9,424.8 527.6,443.5 530.7,443.5 530.6,472.2 533.2,472.2 
					"/>
		<polygon class="st2" points="563.8,472.2 563.8,459.8 563.7,443.5 560.6,443.5 565,424.8 569.3,443.5 566.2,443.5 566.2,457.6 
			570.2,453.9 570.2,447 574.4,458.8 570.2,470.8 570.2,463.9 566.3,467.8 566.3,472.2 563.8,472.2 		"/>
		<polygon class="st2" points="410,564.1 410,554.7 412.9,554.7 412.9,564.1 410,564.1 		"/>
		<polygon class="st2" points="410,546.8 410,537.4 412.9,537.4 412.9,546.8 410,546.8 		"/>
		<polygon class="st2" points="410,529.5 410,520 412.9,520 412.9,529.5 410,529.5 		"/>
		<polygon class="st2" points="410,512.1 410,502.7 412.9,502.7 412.9,512.1 410,512.1 		"/>
		<polygon class="st2" points="410,494.8 410,485.4 412.9,485.4 412.9,494.8 410,494.8 		"/>
		<polygon class="st2" points="410,460.2 410,450.8 412.9,450.8 412.9,460.2 410,460.2 		"/>
		<polygon class="st2" points="410,477.5 410,468.1 412.9,468.1 412.9,477.5 410,477.5 		"/>
		<polygon class="st2" points="443.1,564.1 443.1,554.7 445.9,554.7 445.9,564.1 443.1,564.1 		"/>
		<polygon class="st2" points="443.1,546.8 443.1,537.4 445.9,537.4 445.9,546.8 443.1,546.8 		"/>
		<polygon class="st2" points="443.1,529.5 443.1,520 445.9,520 445.9,529.5 443.1,529.5 		"/>
		<polygon class="st2" points="443.1,512.1 443.1,502.7 445.9,502.7 445.9,512.1 443.1,512.1 		"/>
		<polygon class="st2" points="443.1,494.8 443.1,485.4 445.9,485.4 445.9,494.8 443.1,494.8 		"/>
		<polygon class="st2" points="443.1,460.2 443.1,450.8 445.9,450.8 445.9,460.2 443.1,460.2 		"/>
		<polygon class="st2" points="443.1,477.5 443.1,468.1 445.9,468.1 445.9,477.5 443.1,477.5 		"/>
		<polygon class="st2" points="443.1,338.9 443.1,329.5 445.9,329.5 445.9,338.9 443.1,338.9 		"/>
		<polygon class="st2" points="443.1,321.6 443.1,312.2 445.9,312.2 445.9,321.6 443.1,321.6 		"/>
		<polygon class="st2" points="443.1,304.3 443.1,294.9 445.9,294.9 445.9,304.3 443.1,304.3 		"/>
		<polygon class="st2" points="443.1,287 443.1,277.5 445.9,277.5 445.9,287 443.1,287 		"/>
		<polygon class="st2" points="443.1,269.6 443.1,260.2 445.9,260.2 445.9,269.6 443.1,269.6 		"/>
		<polygon class="st2" points="443.1,235 443.1,225.6 445.9,225.6 445.9,235 443.1,235 		"/>
		<polygon class="st2" points="443.1,252.3 443.1,242.9 445.9,242.9 445.9,252.3 443.1,252.3 		"/>
		<polygon class="st2" points="443.1,442.8 443.1,433.4 445.9,433.4 445.9,442.8 443.1,442.8 		"/>
		<polygon class="st2" points="443.1,425.5 443.1,416.1 445.9,416.1 445.9,425.5 443.1,425.5 		"/>
		<polygon class="st2" points="443.1,408.2 443.1,398.8 445.9,398.8 445.9,408.2 443.1,408.2 		"/>
		<polygon class="st2" points="443.1,390.9 443.1,381.5 445.9,381.5 445.9,390.9 443.1,390.9 		"/>
		<polygon class="st2" points="443.1,356.2 443.1,346.8 445.9,346.8 445.9,356.2 443.1,356.2 		"/>
		<polygon class="st2" points="443.1,373.5 443.1,364.1 445.9,364.1 445.9,373.5 443.1,373.5 		"/>
		<polygon class="st2" points="410,338.9 410,329.5 412.9,329.5 412.9,338.9 410,338.9 		"/>
		<polygon class="st2" points="410,321.6 410,312.2 412.9,312.2 412.9,321.6 410,321.6 		"/>
		<polygon class="st2" points="410,304.3 410,294.9 412.9,294.9 412.9,304.3 410,304.3 		"/>
		<polygon class="st2" points="410,287 410,277.5 412.9,277.5 412.9,287 410,287 		"/>
		<polygon class="st2" points="410,269.6 410,260.2 412.9,260.2 412.9,269.6 410,269.6 		"/>
		<polygon class="st2" points="410,235 410,225.6 412.9,225.6 412.9,235 410,235 		"/>
		<polygon class="st2" points="410,252.3 410,242.9 412.9,242.9 412.9,252.3 410,252.3 		"/>
		<polygon class="st2" points="410,442.8 410,433.4 412.9,433.4 412.9,442.8 410,442.8 		"/>
		<polygon class="st2" points="410,425.5 410,416.1 412.9,416.1 412.9,425.5 410,425.5 		"/>
		<polygon class="st2" points="410,408.2 410,398.8 412.9,398.8 412.9,408.2 410,408.2 		"/>
		<polygon class="st2" points="410,390.9 410,381.5 412.9,381.5 412.9,390.9 410,390.9 		"/>
		<polygon class="st2" points="410,356.2 410,346.8 412.9,346.8 412.9,356.2 410,356.2 		"/>
		<polygon class="st2" points="410,373.5 410,364.1 412.9,364.1 412.9,373.5 410,373.5 		"/>
		<polygon class="st2" points="547.2,631.9 547.2,622.5 550,622.5 550,631.9 547.2,631.9 		"/>
		<polygon class="st2" points="547.2,614.6 547.2,605.2 550,605.2 550,614.6 547.2,614.6 		"/>
		<polygon class="st2" points="547.2,597.3 547.2,587.9 550,587.9 550,597.3 547.2,597.3 		"/>
		<polygon class="st2" points="547.2,580 547.2,570.6 550,570.6 550,580 547.2,580 		"/>
		<polygon class="st2" points="547.2,562.6 547.2,553.2 550,553.2 550,562.6 547.2,562.6 		"/>
		<polygon class="st2" points="547.2,528 547.2,518.6 550,518.6 550,528 547.2,528 		"/>
		<polygon class="st2" points="547.2,545.3 547.2,535.9 550,535.9 550,545.3 547.2,545.3 		"/>
		<polygon class="st2" points="547.2,666.6 547.2,657.2 550.1,657.2 550.1,666.6 547.2,666.6 		"/>
		<polygon class="st2" points="547.2,649.3 547.2,639.9 550.1,639.9 550.1,649.3 547.2,649.3 		"/>
		<polygon class="st2" points="547.1,213.8 550,213.8 550,510.5 547.1,510.5 547.1,213.8 		"/>
		<polygon class="st2" points="514,631.9 514,622.5 516.9,622.5 516.9,631.9 514,631.9 		"/>
		<polygon class="st2" points="514,614.6 514,605.2 516.9,605.2 516.9,614.6 514,614.6 		"/>
		<polygon class="st2" points="514,597.3 514,587.9 516.9,587.9 516.9,597.3 514,597.3 		"/>
		<polygon class="st2" points="514,580 514,570.6 516.9,570.6 516.9,580 514,580 		"/>
		<polygon class="st2" points="514,562.6 514,553.2 516.9,553.2 516.9,562.6 514,562.6 		"/>
		<polygon class="st2" points="514,528 514,518.6 516.9,518.6 516.9,528 514,528 		"/>
		<polygon class="st2" points="514,545.3 514,535.9 516.9,535.9 516.9,545.3 514,545.3 		"/>
		<polygon class="st2" points="514,649.2 514,639.8 516.9,639.8 516.9,649.2 514,649.2 		"/>
		<polygon class="st2" points="514,666.6 514,657.1 516.9,657.1 516.9,666.6 514,666.6 		"/>
		<polygon class="st2" points="514,214.9 516.9,214.9 516.9,510.5 514,510.5 514,214.9 		"/>
		<polygon class="st2" points="443.1,581.3 443.1,571.9 445.9,571.9 445.9,581.3 443.1,581.3 		"/>
		<polygon class="st2" points="410,581.3 410,571.9 412.9,571.9 412.9,581.3 410,581.3 		"/>
	</g>
</g>
</svg>
