<?xml version="1.0" encoding="utf-8"?>
<!-- Generator: Adobe Illustrator 19.2.0, SVG Export Plug-In . SVG Version: 6.00 Build 0)  -->
<svg version="1.1" id="Livello_1" xmlns="http://www.w3.org/2000/svg" xmlns:xlink="http://www.w3.org/1999/xlink" x="0px" y="0px"
	 viewBox="0 0 960 960" style="enable-background:new 0 0 960 960;" xml:space="preserve">
<style type="text/css">
	.st0{fill-rule:evenodd;clip-rule:evenodd;fill:#CECFD1;}
	.st1{fill-rule:evenodd;clip-rule:evenodd;fill:#FFFFFF;}
	.st2{fill-rule:evenodd;clip-rule:evenodd;fill:#FFFFFF;stroke:#1A171B;stroke-width:0.4295;stroke-miterlimit:2.6131;}
	.st3{fill-rule:evenodd;clip-rule:evenodd;fill:#E1001A;}
	.st4{fill-rule:evenodd;clip-rule:evenodd;fill:#FFFFFF;stroke:#FFFFFF;stroke-width:0.4295;stroke-miterlimit:2.6131;}
</style>
<g>
	<g>
		<path class="st0" d="M45.1,406.1h81.6c6.5,0,9.4-2.7,9.4-9.5V222.4h80.4v174.2c0,5.9,3.2,9.5,9.5,9.5h146.2c6.6,0,9.5-2.5,9.5-9.5
			V222.4h80.4v174.1c0,6.5,2.6,9.6,9.5,9.6H915v147.8H471.6c-7,0-9.5,2.9-9.5,9.5v174.2h-80.4V563.4c0-6.2-3.4-9.5-9.5-9.4H226
			c-6.6,0-9.5,2.9-9.5,9.5v174.2h-80.4V563.4c0-6.6-3.6-9.5-9.5-9.5H45.1V406.1L45.1,406.1z"/>
		<polygon class="st1" points="143.4,475.3 157.5,475.3 157.5,479 143.4,479 143.4,475.3 		"/>
		<polygon class="st1" points="169.3,475.3 183.3,475.3 183.3,479 169.3,479 169.3,475.3 		"/>
		<polygon class="st1" points="195.1,475.3 209.1,475.3 209.1,479 195.1,479 195.1,475.3 		"/>
		<polygon class="st1" points="45.1,480.9 915,480.9 915,484.7 45.1,484.7 45.1,480.9 		"/>
		<polygon class="st1" points="657,442.6 675.6,442.6 675.6,446.4 657,446.4 657,442.6 		"/>
		<polygon class="st1" points="691.2,442.6 709.8,442.6 709.8,446.4 691.2,446.4 691.2,442.6 		"/>
		<polygon class="st1" points="725.4,442.6 744,442.6 744,446.4 725.4,446.4 725.4,442.6 		"/>
		<polygon class="st1" points="759.6,442.6 778.1,442.6 778.1,446.4 759.6,446.4 759.6,442.6 		"/>
		<polygon class="st1" points="793.7,442.6 812.3,442.6 812.3,446.4 793.7,446.4 793.7,442.6 		"/>
		<polygon class="st1" points="862.1,442.6 880.6,442.6 880.6,446.4 862.1,446.4 862.1,442.6 		"/>
		<polygon class="st1" points="827.9,442.6 846.5,442.6 846.5,446.4 827.9,446.4 827.9,442.6 		"/>
		<polygon class="st1" points="896.2,442.6 914.8,442.6 914.8,446.4 896.2,446.4 896.2,442.6 		"/>
		<polygon class="st1" points="417.9,442.6 436.5,442.6 436.5,446.4 417.9,446.4 417.9,442.6 		"/>
		<polygon class="st1" points="486.3,442.6 504.8,442.6 504.8,446.4 486.3,446.4 486.3,442.6 		"/>
		<polygon class="st1" points="520.4,442.6 539,442.6 539,446.4 520.4,446.4 520.4,442.6 		"/>
		<polygon class="st1" points="554.6,442.6 573.2,442.6 573.2,446.4 554.6,446.4 554.6,442.6 		"/>
		<polygon class="st1" points="622.9,442.6 641.5,442.6 641.5,446.4 622.9,446.4 622.9,442.6 		"/>
		<polygon class="st1" points="588.8,442.6 607.3,442.6 607.3,446.4 588.8,446.4 588.8,442.6 		"/>
		<polygon class="st1" points="178.7,442.6 197.3,442.6 197.3,446.4 178.7,446.4 178.7,442.6 		"/>
		<polygon class="st1" points="212.9,442.6 231.4,442.6 231.4,446.4 212.9,446.4 212.9,442.6 		"/>
		<polygon class="st1" points="458.5,442.6 477.1,442.6 477.1,446.4 458.5,446.4 458.5,442.6 		"/>
		<polygon class="st1" points="247,442.6 265.6,442.6 265.6,446.4 247,446.4 247,442.6 		"/>
		<polygon class="st1" points="281.2,442.6 299.8,442.6 299.8,446.4 281.2,446.4 281.2,442.6 		"/>
		<polygon class="st1" points="315.4,442.6 334,442.6 334,446.4 315.4,446.4 315.4,442.6 		"/>
		<polygon class="st1" points="383.7,442.6 402.3,442.6 402.3,446.4 383.7,446.4 383.7,442.6 		"/>
		<polygon class="st1" points="349.6,442.6 368.1,442.6 368.1,446.4 349.6,446.4 349.6,442.6 		"/>
		<polygon class="st1" points="45,442.6 60.7,442.6 60.7,446.4 45,446.4 45,442.6 		"/>
		<polygon class="st1" points="76.3,442.6 94.8,442.6 94.8,446.4 76.3,446.4 76.3,442.6 		"/>
		<polygon class="st1" points="144.6,442.6 163.2,442.6 163.2,446.4 144.6,446.4 144.6,442.6 		"/>
		<polygon class="st1" points="110.4,442.6 129,442.6 129,446.4 110.4,446.4 110.4,442.6 		"/>
		<polygon class="st1" points="657,513.6 675.6,513.6 675.6,517.4 657,517.4 657,513.6 		"/>
		<polygon class="st1" points="691.2,513.6 709.8,513.6 709.8,517.4 691.2,517.4 691.2,513.6 		"/>
		<polygon class="st1" points="725.4,513.6 744,513.6 744,517.4 725.4,517.4 725.4,513.6 		"/>
		<polygon class="st1" points="759.6,513.6 778.1,513.6 778.1,517.4 759.6,517.4 759.6,513.6 		"/>
		<polygon class="st1" points="793.7,513.6 812.3,513.6 812.3,517.4 793.7,517.4 793.7,513.6 		"/>
		<polygon class="st1" points="862.1,513.6 880.6,513.6 880.6,517.4 862.1,517.4 862.1,513.6 		"/>
		<polygon class="st1" points="827.9,513.6 846.5,513.6 846.5,517.4 827.9,517.4 827.9,513.6 		"/>
		<polygon class="st1" points="896.2,513.6 914.8,513.6 914.8,517.4 896.2,517.4 896.2,513.6 		"/>
		<polygon class="st1" points="417.9,513.6 436.5,513.6 436.5,517.4 417.9,517.4 417.9,513.6 		"/>
		<polygon class="st1" points="452.1,513.6 470.7,513.6 470.7,517.4 452.1,517.4 452.1,513.6 		"/>
		<polygon class="st1" points="486.3,513.6 504.8,513.6 504.8,517.4 486.3,517.4 486.3,513.6 		"/>
		<polygon class="st1" points="520.4,513.6 539,513.6 539,517.4 520.4,517.4 520.4,513.6 		"/>
		<polygon class="st1" points="554.6,513.6 573.2,513.6 573.2,517.4 554.6,517.4 554.6,513.6 		"/>
		<polygon class="st1" points="622.9,513.6 641.5,513.6 641.5,517.4 622.9,517.4 622.9,513.6 		"/>
		<polygon class="st1" points="588.8,513.6 607.3,513.6 607.3,517.4 588.8,517.4 588.8,513.6 		"/>
		<polygon class="st1" points="178.7,513.6 197.3,513.6 197.3,517.4 178.7,517.4 178.7,513.6 		"/>
		<polygon class="st1" points="212.9,513.6 231.4,513.6 231.4,517.4 212.9,517.4 212.9,513.6 		"/>
		<polygon class="st1" points="247,513.6 265.6,513.6 265.6,517.4 247,517.4 247,513.6 		"/>
		<polygon class="st1" points="281.2,513.6 299.8,513.6 299.8,517.4 281.2,517.4 281.2,513.6 		"/>
		<polygon class="st1" points="315.4,513.6 334,513.6 334,517.4 315.4,517.4 315.4,513.6 		"/>
		<polygon class="st1" points="383.7,513.6 402.3,513.6 402.3,517.4 383.7,517.4 383.7,513.6 		"/>
		<polygon class="st1" points="349.6,513.6 368.1,513.6 368.1,517.4 349.6,517.4 349.6,513.6 		"/>
		<polygon class="st1" points="45,513.6 60.7,513.6 60.7,517.4 45,517.4 45,513.6 		"/>
		<polygon class="st1" points="76.3,513.6 94.8,513.6 94.8,517.4 76.3,517.4 76.3,513.6 		"/>
		<polygon class="st1" points="144.6,513.6 163.2,513.6 163.2,517.4 144.6,517.4 144.6,513.6 		"/>
		<polygon class="st1" points="110.4,513.6 129,513.6 129,517.4 110.4,517.4 110.4,513.6 		"/>
		<polygon class="st1" points="875.4,432.5 843.6,432.5 802.9,432.6 802.9,436.9 771.3,430.8 802.7,424.8 802.7,429.2 840.2,429.2 
			832.7,423.7 818.5,423.7 839.7,417.8 864.1,423.7 849.9,423.7 857.9,429.1 875.4,429.1 875.4,432.5 		"/>
		<polygon class="st1" points="600.5,432.5 568.6,432.5 527.9,432.6 527.9,436.9 496.4,430.8 527.8,424.8 527.8,429.2 565.2,429.2 
			557.7,423.7 543.5,423.7 564.7,417.8 589.2,423.7 575,423.7 583,429.1 600.5,429.1 600.5,432.5 		"/>
		<polygon class="st1" points="345.5,432.5 313.7,432.5 273,432.6 273,436.9 241.4,430.8 272.8,424.8 272.8,429.2 310.3,429.2 
			302.8,423.7 288.6,423.7 309.8,417.8 334.2,423.7 320,423.7 328,429.1 345.5,429.1 345.5,432.5 		"/>
		<polygon class="st1" points="345.5,456.2 313.7,456.2 273,456.1 273,451.7 241.4,457.9 272.8,463.8 272.8,459.5 310.3,459.5 
			302.8,465 288.6,465 309.8,470.8 334.2,465 320,465 328,459.6 345.5,459.6 345.5,456.2 		"/>
		<path class="st1" d="M45.1,475.2h86v3.8h-86V475.2L45.1,475.2z M221.5,475.2h693.1v3.8H221.5V475.2L221.5,475.2z"/>
		<path class="st1" d="M208.8,737.6V561.3h3.8v176.3H208.8L208.8,737.6z M208.8,398.9V222.4l3.8,0v176.5H208.8L208.8,398.9z"/>
		<path class="st1" d="M454.4,737.6V561.3h3.8v176.3H454.4L454.4,737.6z M454.4,398.9V222.4l3.8,0v176.5H454.4L454.4,398.9z"/>
		<path class="st1" d="M140.1,737.6V561.3h3.8v176.3H140.1L140.1,737.6z M140.1,398.9V222.4l3.8,0v176.5H140.1L140.1,398.9z"/>
		<path class="st1" d="M385.8,737.6V561.3h3.8v176.3H385.8L385.8,737.6z M385.8,398.9V222.4l3.8,0v176.5H385.8L385.8,398.9z"/>
		<path class="st1" d="M208.8,398.4c0,0.3,0,0.6,0,0.9c0,7.9,6.5,14.4,14.4,14.4c0.3,0,0.6,0,0.9,0v-3.7c-0.3,0-0.6,0-0.9,0
			c-5.9,0-10.7-4.8-10.7-10.7c0-0.3,0-0.6,0-0.9H208.8L208.8,398.4z"/>
		<path class="st1" d="M454.5,398.4c0,0.3,0,0.6,0,0.9c0,7.9,6.5,14.4,14.4,14.4c0.3,0,0.6,0,0.9,0v-3.7c-0.3,0-0.6,0-0.9,0
			c-5.9,0-10.7-4.8-10.7-10.7c0-0.3,0-0.6,0-0.9H454.5L454.5,398.4z"/>
		<path class="st1" d="M208.8,561.8c0-0.3-0.1-0.7-0.1-1c0-7.9,6.5-14.4,14.5-14.4c0.3,0,0.6,0,0.9,0v3.7c-0.3,0-0.5,0-0.8,0
			c-5.9,0-10.7,4.8-10.7,10.6c0,0.3,0,0.6,0,0.9L208.8,561.8L208.8,561.8z"/>
		<path class="st1" d="M454.5,561.7c0-0.3,0-0.6,0-0.9c0-7.9,6.5-14.4,14.4-14.4c0.3,0,0.6,0,0.9,0v3.7c-0.3,0-0.6,0-0.9,0
			c-5.9,0-10.7,4.8-10.7,10.7c0,0.3,0,0.6,0,0.9H454.5L454.5,561.7z"/>
		<path class="st1" d="M143.9,398.4c0,0.3,0,0.6,0,0.9c0,7.9-6.5,14.4-14.4,14.4c-0.3,0-0.6,0-0.9,0v-3.7c0.3,0,0.6,0,0.9,0
			c5.9,0,10.7-4.8,10.7-10.7c0-0.3,0-0.6,0-0.9H143.9L143.9,398.4z"/>
		<path class="st1" d="M389.5,398.4c0,0.3,0,0.6,0,0.9c0,7.9-6.5,14.4-14.4,14.4c-0.3,0-0.6,0-0.9,0v-3.7c0.3,0,0.6,0,0.9,0
			c5.9,0,10.7-4.8,10.7-10.7c0-0.3,0-0.6,0-0.9H389.5L389.5,398.4z"/>
		<path class="st1" d="M143.9,561.7c0-0.3,0-0.6,0-0.9c0-7.9-6.5-14.4-14.4-14.4c-0.3,0-0.6,0-0.9,0v3.7c0.3,0,0.6,0,0.9,0
			c5.9,0,10.7,4.8,10.7,10.7c0,0.3,0,0.6,0,0.9H143.9L143.9,561.7z"/>
		<path class="st1" d="M389.5,561.7c0-0.3,0-0.6,0-0.9c0-7.9-6.5-14.4-14.4-14.4c-0.3,0-0.6,0-0.9,0l0,3.8c0.3,0,0.5,0,0.8,0
			c5.9,0,10.7,4.7,10.7,10.6c0,0.3,0,0.6,0,0.9H389.5L389.5,561.7z"/>
		<path class="st1" d="M45.1,409.9h83.9v3.8H45.1V409.9L45.1,409.9z M223.6,409.9h150.9v3.8H223.6V409.9L223.6,409.9z M469.5,409.9
			l445.5,0v3.8H469.5V409.9L469.5,409.9z"/>
		<path class="st1" d="M45.1,546.3h83.9v3.8H45.1V546.3L45.1,546.3z M223.6,546.3h150.9v3.8H223.6V546.3L223.6,546.3z M469.5,546.3
			H915v3.8H469.5V546.3L469.5,546.3z"/>
		<path class="st2" d="M357.5,563.7c5.3,0.9,8.7,2.8,11.9,7.2c1.8,2.9,2.7,5.7,2.8,9.1c-0.2,6.9-3.8,12.1-9.9,15
			c-7,2.9-14,0.9-19-4.6c-3.1-4.1-4.3-8.6-3.4-13.7c1.1-3.9,2.6-6.5,5.6-9.3c3.2-2.4,6.3-3.6,10.4-3.7L357.5,563.7L357.5,563.7z"/>
		<path class="st3" d="M355.9,564.5c8.5,0,15.4,6.9,15.4,15.4c0,8.5-6.9,15.4-15.4,15.4c-8.5,0-15.4-6.9-15.4-15.4
			C340.6,571.4,347.5,564.5,355.9,564.5L355.9,564.5z"/>
		<path class="st3" d="M355.9,568.4c6.3,0,11.4,5.1,11.4,11.4c0,6.3-5.1,11.4-11.4,11.4c-6.3,0-11.4-5.1-11.4-11.4
			C344.5,573.6,349.6,568.4,355.9,568.4L355.9,568.4z"/>
		<path class="st4" d="M342.2,576h27.3c0.1,0,0.1,0.1,0.1,0.2v6.9c0,0.1-0.1,0.2-0.1,0.2h-27.3c-0.1,0-0.1-0.1-0.1-0.2v-6.9
			C342,576.1,342.1,576,342.2,576L342.2,576z"/>
		<polygon class="st1" points="875.5,454 794.4,454 785.5,462.9 771.5,462.9 795.2,469.7 818.5,462.9 804.4,462.9 810.4,457.1 
			875.5,457.2 875.5,454 		"/>
		<polygon class="st1" points="849.3,456.3 849.3,460.9 844.6,460.9 844.6,465.1 861.6,465.1 861.6,460.9 856.9,460.9 856.9,456.3 
			849.3,456.3 		"/>
		<polygon class="st1" points="600.6,454 519.4,454 510.6,462.9 496.6,462.9 520.3,469.7 543.5,462.9 529.5,462.9 535.5,457.1 
			600.6,457.2 600.6,454 		"/>
		<polygon class="st1" points="574.4,456.3 574.4,460.9 569.7,460.9 569.7,465.1 586.7,465.1 586.7,460.9 582,460.9 582,456.3 
			574.4,456.3 		"/>
	</g>
</g>
</svg>
