<?xml version="1.0" encoding="utf-8"?>
<!-- Generator: Adobe Illustrator 19.2.0, SVG Export Plug-In . SVG Version: 6.00 Build 0)  -->
<svg version="1.1" id="Livello_1" xmlns="http://www.w3.org/2000/svg" xmlns:xlink="http://www.w3.org/1999/xlink" x="0px" y="0px"
	 viewBox="0 0 960 960" style="enable-background:new 0 0 960 960;" xml:space="preserve">
<style type="text/css">
	.st0{fill-rule:evenodd;clip-rule:evenodd;fill:#CECFD1;}
	.st1{fill-rule:evenodd;clip-rule:evenodd;fill:#FFFFFF;}
</style>
<g>
	<g>
		<polygon class="st0" points="45.3,189.5 914.8,189.5 914.8,770.5 45.3,770.5 45.3,189.5 		"/>
		<polygon class="st1" points="915,614.8 915,628 862.7,628 862.7,614.8 915,614.8 		"/>
		<polygon class="st1" points="695.2,614.8 767.8,614.8 767.8,628 695.2,628 695.2,614.8 		"/>
		<polygon class="st1" points="45.3,628 45.3,614.8 97.5,614.8 97.5,628 45.3,628 		"/>
		<polygon class="st1" points="192.3,614.8 264.9,614.8 264.9,628 192.3,628 192.3,614.8 		"/>
		<polygon class="st1" points="359.9,614.8 432.5,614.8 432.5,628 359.9,628 359.9,614.8 		"/>
		<polygon class="st1" points="527.6,614.8 600.2,614.8 600.2,628 527.6,628 527.6,614.8 		"/>
		<polygon class="st1" points="45.3,486.3 914.8,486.3 914.8,499.3 45.3,499.3 45.3,486.3 		"/>
		<polygon class="st1" points="45.3,743.4 914.8,743.4 914.8,756.4 45.3,756.4 45.3,743.4 		"/>
		<polygon class="st1" points="45.5,460.5 915,460.5 915,473.5 45.5,473.5 45.5,460.5 		"/>
		<polygon class="st1" points="45.5,203.7 915,203.7 915,216.8 45.5,216.8 45.5,203.7 		"/>
		<polygon class="st1" points="527.2,332 599.8,332 599.8,345 527.2,345 527.2,332 		"/>
		<polygon class="st1" points="359.7,332 432.3,332 432.3,345 359.7,345 359.7,332 		"/>
		<polygon class="st1" points="192.1,332 264.7,332 264.7,345 192.1,345 192.1,332 		"/>
		<polygon class="st1" points="45,345 45,332 97.1,332 97.1,345 45,345 		"/>
		<polygon class="st1" points="694.8,332 767.4,332 767.4,345 694.8,345 694.8,332 		"/>
		<polygon class="st1" points="914.6,332 914.6,345 862.3,345 862.3,332 914.6,332 		"/>
	</g>
</g>
</svg>
