<?xml version="1.0" encoding="utf-8"?>
<!-- Generator: Adobe Illustrator 19.2.0, SVG Export Plug-In . SVG Version: 6.00 Build 0)  -->
<svg version="1.1" id="Livello_1" xmlns="http://www.w3.org/2000/svg" xmlns:xlink="http://www.w3.org/1999/xlink" x="0px" y="0px"
	 viewBox="0 0 960 960" style="enable-background:new 0 0 960 960;" xml:space="preserve">
<style type="text/css">
	.st0{fill-rule:evenodd;clip-rule:evenodd;fill:#CECFD1;}
	.st1{fill-rule:evenodd;clip-rule:evenodd;fill:#FFFFFF;}
</style>
<g>
	<g>
		<polygon class="st0" points="45.3,170.3 914,170.3 914,789.7 45.3,789.7 45.3,170.3 		"/>
		<polygon class="st1" points="914.2,580.7 914.2,591 861.9,591 861.9,580.7 914.2,580.7 		"/>
		<polygon class="st1" points="694.6,580.7 767.2,580.7 767.2,591 694.6,591 694.6,580.7 		"/>
		<polygon class="st1" points="45.3,591 45.3,580.7 97.4,580.7 97.4,591 45.3,591 		"/>
		<polygon class="st1" points="192.2,580.7 264.7,580.7 264.7,591 192.2,591 192.2,580.7 		"/>
		<polygon class="st1" points="359.7,580.7 432.2,580.7 432.2,591 359.7,591 359.7,580.7 		"/>
		<polygon class="st1" points="527.2,580.7 599.7,580.7 599.7,591 527.2,591 527.2,580.7 		"/>
		<polygon class="st1" points="914.3,672.5 914.3,682.8 862,682.8 862,672.5 914.3,672.5 		"/>
		<polygon class="st1" points="694.7,672.5 767.2,672.5 767.2,682.8 694.7,682.8 694.7,672.5 		"/>
		<polygon class="st1" points="45.4,682.8 45.4,672.5 97.5,672.5 97.5,682.8 45.4,682.8 		"/>
		<polygon class="st1" points="192.2,672.5 264.8,672.5 264.8,682.8 192.2,682.8 192.2,672.5 		"/>
		<polygon class="st1" points="359.7,672.5 432.3,672.5 432.3,682.8 359.7,682.8 359.7,672.5 		"/>
		<polygon class="st1" points="527.2,672.5 599.7,672.5 599.7,682.8 527.2,682.8 527.2,672.5 		"/>
		<polygon class="st1" points="46.3,764.4 915,764.4 915,777.4 46.3,777.4 46.3,764.4 		"/>
		<polygon class="st1" points="45.5,183.1 914.2,183.1 914.2,196.1 45.5,196.1 45.5,183.1 		"/>
		<polygon class="st1" points="526.8,367.9 599.3,367.9 599.3,377.8 526.8,377.8 526.8,367.9 		"/>
		<polygon class="st1" points="359.5,367.9 432,367.9 432,377.8 359.5,377.8 359.5,367.9 		"/>
		<polygon class="st1" points="192,367.9 264.5,367.9 264.5,377.8 192,377.8 192,367.9 		"/>
		<polygon class="st1" points="45,377.8 45,367.9 97.1,367.9 97.1,377.8 45,377.8 		"/>
		<polygon class="st1" points="694.2,367.9 766.8,367.9 766.8,377.8 694.2,377.8 694.2,367.9 		"/>
		<polygon class="st1" points="913.8,367.9 913.8,377.8 861.5,377.8 861.5,367.9 913.8,367.9 		"/>
		<polygon class="st1" points="526.8,276.9 599.3,276.9 599.3,286.8 526.8,286.8 526.8,276.9 		"/>
		<polygon class="st1" points="359.5,276.9 432.1,276.9 432.1,286.8 359.5,286.8 359.5,276.9 		"/>
		<polygon class="st1" points="192,276.9 264.6,276.9 264.6,286.8 192,286.8 192,276.9 		"/>
		<polygon class="st1" points="45.1,286.8 45.1,276.9 97.2,276.9 97.2,286.8 45.1,286.8 		"/>
		<polygon class="st1" points="694.3,276.9 766.8,276.9 766.8,286.8 694.3,286.8 694.3,276.9 		"/>
		<polygon class="st1" points="913.9,276.9 913.9,286.8 861.6,286.8 861.6,276.9 913.9,276.9 		"/>
		<polygon class="st1" points="45.7,460.6 914.4,460.6 914.4,473.2 45.7,473.2 45.7,460.6 		"/>
		<polygon class="st1" points="45.7,484.4 914.4,484.4 914.4,497 45.7,497 45.7,484.4 		"/>
	</g>
</g>
</svg>
