<?xml version="1.0" encoding="utf-8"?>
<!-- Generator: Adobe Illustrator 19.2.0, SVG Export Plug-In . SVG Version: 6.00 Build 0)  -->
<svg version="1.1" id="Livello_1" xmlns="http://www.w3.org/2000/svg" xmlns:xlink="http://www.w3.org/1999/xlink" x="0px" y="0px"
	 viewBox="0 0 960 960" style="enable-background:new 0 0 960 960;" xml:space="preserve">
<style type="text/css">
	.st0{fill-rule:evenodd;clip-rule:evenodd;fill:#CECFD1;}
	.st1{fill-rule:evenodd;clip-rule:evenodd;fill:#FFFFFF;}
	.st2{fill-rule:evenodd;clip-rule:evenodd;fill:#1A171B;}
</style>
<g>
	<g>
		<polygon class="st0" points="45.9,275.1 914.8,275.1 914.8,684.9 45.9,684.9 45.9,275.1 		"/>
		<polygon class="st1" points="915,534.8 915,551.1 862.7,551.1 862.7,534.8 915,534.8 		"/>
		<polygon class="st1" points="695.4,534.8 767.9,534.8 767.9,551.1 695.4,551.1 695.4,534.8 		"/>
		<polygon class="st1" points="45.9,551.1 45.9,534.8 98,534.8 98,551.1 45.9,551.1 		"/>
		<polygon class="st1" points="192.8,534.8 265.3,534.8 265.3,551.1 192.8,551.1 192.8,534.8 		"/>
		<polygon class="st1" points="360.3,534.8 432.9,534.8 432.9,551.1 360.3,551.1 360.3,534.8 		"/>
		<polygon class="st1" points="527.8,534.8 600.4,534.8 600.4,551.1 527.8,551.1 527.8,534.8 		"/>
		<polygon class="st1" points="914.1,410.5 914.1,426.8 861.8,426.8 861.8,410.5 914.1,410.5 		"/>
		<polygon class="st1" points="694.5,410.5 767,410.5 767,426.8 694.5,426.8 694.5,410.5 		"/>
		<polygon class="st1" points="45,426.8 45,410.5 97.1,410.5 97.1,426.8 45,426.8 		"/>
		<polygon class="st1" points="191.9,410.5 264.4,410.5 264.4,426.8 191.9,426.8 191.9,410.5 		"/>
		<polygon class="st1" points="359.4,410.5 432,410.5 432,426.8 359.4,426.8 359.4,410.5 		"/>
		<polygon class="st1" points="526.9,410.5 599.5,410.5 599.5,426.8 526.9,426.8 526.9,410.5 		"/>
		<polygon class="st1" points="45.9,659.1 914.8,659.1 914.8,672.1 45.9,672.1 45.9,659.1 		"/>
		<polygon class="st1" points="46.1,289.5 915,289.5 915,304.5 46.1,304.5 46.1,289.5 		"/>
		<path class="st2" d="M133.3,633.3H121l-4.9-12.8H93.6L89,633.3h-12l21.9-56.2h12L133.3,633.3L133.3,633.3z M112.4,611.1l-7.7-20.9
			l-7.6,20.9H112.4L112.4,611.1z"/>
		<path class="st2" d="M79,452.7h22.5c4.4,0,7.8,0.2,10,0.6c2.2,0.4,4.1,1.1,5.9,2.3c1.7,1.2,3.2,2.7,4.3,4.7
			c1.2,1.9,1.7,4.1,1.7,6.6c0,2.6-0.7,5-2.1,7.2c-1.4,2.2-3.3,3.8-5.8,4.9c3.4,1,6.1,2.7,7.9,5.1c1.8,2.4,2.8,5.2,2.8,8.5
			c0,2.6-0.6,5-1.8,7.5c-1.2,2.4-2.8,4.3-4.9,5.8c-2.1,1.4-4.6,2.3-7.6,2.7c-1.9,0.2-6.4,0.3-13.7,0.4H79V452.7L79,452.7z
			 M90.3,462.1v13h7.4c4.4,0,7.2-0.1,8.2-0.2c1.9-0.2,3.5-0.9,4.6-2c1.1-1.1,1.7-2.6,1.7-4.4c0-1.7-0.5-3.2-1.4-4.2
			c-1-1.1-2.4-1.7-4.3-2c-1.1-0.1-4.4-0.2-9.7-0.2H90.3L90.3,462.1z M90.3,484.4v15h10.5c4.1,0,6.7-0.1,7.8-0.3
			c1.7-0.3,3.1-1.1,4.1-2.2c1.1-1.2,1.6-2.8,1.6-4.8c0-1.7-0.4-3.1-1.2-4.3c-0.8-1.2-2-2-3.5-2.6c-1.5-0.5-4.9-0.8-10.1-0.8H90.3
			L90.3,484.4z"/>
		<path class="st2" d="M113.3,363.6l11,3.5c-1.7,6.1-4.5,10.7-8.4,13.7c-3.9,3-8.9,4.5-14.9,4.5c-7.5,0-13.6-2.6-18.4-7.6
			c-4.8-5.1-7.2-12.1-7.2-20.9c0-9.4,2.4-16.6,7.2-21.8c4.8-5.2,11.2-7.8,19-7.8c6.9,0,12.5,2,16.7,6.1c2.6,2.4,4.5,5.8,5.8,10.3
			l-11.2,2.7c-0.7-2.9-2-5.2-4.2-6.9c-2.1-1.7-4.7-2.5-7.7-2.5c-4.2,0-7.6,1.5-10.1,4.5c-2.6,3-3.9,7.8-3.9,14.5
			c0,7.1,1.3,12.2,3.8,15.2c2.6,3,5.9,4.5,10,4.5c3,0,5.6-1,7.8-2.9C110.8,370.7,112.4,367.7,113.3,363.6L113.3,363.6z"/>
	</g>
</g>
</svg>
