<?xml version="1.0" encoding="utf-8"?>
<!-- Generator: Adobe Illustrator 19.2.0, SVG Export Plug-In . SVG Version: 6.00 Build 0)  -->
<svg version="1.1" id="Livello_1" xmlns="http://www.w3.org/2000/svg" xmlns:xlink="http://www.w3.org/1999/xlink" x="0px" y="0px"
	 viewBox="0 0 960 960" style="enable-background:new 0 0 960 960;" xml:space="preserve">
<style type="text/css">
	.st0{fill-rule:evenodd;clip-rule:evenodd;fill:#CECFD1;}
	.st1{fill-rule:evenodd;clip-rule:evenodd;fill:#FFFFFF;}
	.st2{fill-rule:evenodd;clip-rule:evenodd;fill:#609F6F;stroke:#1A171B;stroke-width:1.0594;stroke-miterlimit:2.6131;}
	.st3{fill-rule:evenodd;clip-rule:evenodd;fill:#006A32;}
	.st4{fill-rule:evenodd;clip-rule:evenodd;fill:#00552F;}
	.st5{fill-rule:evenodd;clip-rule:evenodd;fill:#1A171B;}
</style>
<g>
	<g>
		<polygon class="st0" points="45.3,202 914,202 914,758 45.3,758 45.3,202 		"/>
		<polygon class="st1" points="914.2,608.5 914.2,622.6 861.9,622.6 861.9,608.5 914.2,608.5 		"/>
		<polygon class="st1" points="694.6,608.5 767.2,608.5 767.2,622.6 694.6,622.6 694.6,608.5 		"/>
		<polygon class="st1" points="45.3,622.6 45.3,608.5 97.4,608.5 97.4,622.6 45.3,622.6 		"/>
		<polygon class="st1" points="192.2,608.5 264.7,608.5 264.7,622.6 192.2,622.6 192.2,608.5 		"/>
		<polygon class="st1" points="359.7,608.5 432.2,608.5 432.2,622.6 359.7,622.6 359.7,608.5 		"/>
		<polygon class="st1" points="527.2,608.5 599.7,608.5 599.7,622.6 527.2,622.6 527.2,608.5 		"/>
		<polygon class="st1" points="46.3,731.8 915,731.8 915,744.8 46.3,744.8 46.3,731.8 		"/>
		<polygon class="st1" points="45.5,215.1 914.2,215.1 914.2,228 45.5,228 45.5,215.1 		"/>
		<polygon class="st1" points="526.8,338.1 599.3,338.1 599.3,352.5 526.8,352.5 526.8,338.1 		"/>
		<polygon class="st1" points="359.5,338.1 432,338.1 432,352.5 359.5,352.5 359.5,338.1 		"/>
		<polygon class="st1" points="192,338.1 264.5,338.1 264.5,352.5 192,352.5 192,338.1 		"/>
		<polygon class="st1" points="45,352.5 45,338.1 97.1,338.1 97.1,352.5 45,352.5 		"/>
		<polygon class="st1" points="694.2,338.1 766.8,338.1 766.8,352.5 694.2,352.5 694.2,338.1 		"/>
		<polygon class="st1" points="913.8,338.1 913.8,352.5 861.5,352.5 861.5,338.1 913.8,338.1 		"/>
		<polygon class="st2" points="45.3,460.8 914,460.8 914,500 45.3,500 45.3,460.8 		"/>
		<path class="st3" d="M63.1,481.4c4.8,1,10,2.2,15,3.4c8.9-0.4,14-2.1,22.9-3.9c1.5,1.3,3,2.7,4.6,4c-1.3,1.5-2.6,3-4,4.6
			c-6.1,0.9-12,1.9-17.9,3c-9.6-0.9-16.6-1.5-25.7-4.6c0.5-1.2,0.3-2.5,0.7-3.6C59,483.5,62.6,482.4,63.1,481.4L63.1,481.4z"/>
		<path class="st3" d="M307.3,481.4c4.8,1,10,2.2,15,3.4c8.9-0.4,14-2.1,22.9-3.9c1.5,1.3,3,2.7,4.6,4c-1.3,1.5-2.6,3-4,4.6
			c-6.1,0.9-12,1.9-17.9,3c-9.6-0.9-16.6-1.5-25.7-4.6c0.5-1.2,0.3-2.5,0.7-3.6C303.2,483.5,306.9,482.4,307.3,481.4L307.3,481.4z"
			/>
		<path class="st3" d="M549,481.4c4.8,1,10,2.2,15,3.4c8.9-0.4,14-2.1,22.9-3.9c1.5,1.3,3,2.7,4.6,4c-1.3,1.5-2.6,3-4,4.6
			c-6.1,0.9-12,1.9-17.9,3c-9.6-0.9-16.6-1.5-25.7-4.6c0.5-1.2,0.3-2.5,0.7-3.6C544.8,483.5,548.5,482.4,549,481.4L549,481.4z"/>
		<path class="st3" d="M795.8,480.5c4.8,1,10,2.2,15,3.4c8.9-0.4,14-2.1,22.9-3.9c1.5,1.3,3,2.7,4.6,4c-1.3,1.5-2.6,3-4,4.6
			c-6.1,0.9-12,1.9-17.9,3c-9.6-0.9-16.6-1.5-25.7-4.6c0.5-1.2,0.3-2.5,0.7-3.6C791.7,482.6,795.3,481.5,795.8,480.5L795.8,480.5z"
			/>
		<path class="st3" d="M131.9,477.7c2.5-0.9,5-1.8,7.5-2.8c4.6,0.4,8.5,1.3,13.2,2.8c0.8-1.1,1.5-2.2,2.4-3.3
			c-0.7-1.2-1.4-2.4-2.1-3.8c-3.2-0.7-6.2-1.6-9.3-2.4c-5,0.7-8.6,1.2-13.3,3.8C130.8,473.9,131.4,475.8,131.9,477.7L131.9,477.7z"
			/>
		<path class="st3" d="M376.1,477.7c2.5-0.9,5-1.8,7.5-2.8c4.6,0.4,8.5,1.3,13.2,2.8c0.8-1.1,1.5-2.2,2.4-3.3
			c-0.7-1.2-1.4-2.4-2.1-3.8c-3.2-0.7-6.2-1.6-9.3-2.4c-5,0.7-8.6,1.2-13.3,3.8C375.1,473.9,375.6,475.8,376.1,477.7L376.1,477.7z"
			/>
		<path class="st3" d="M617.7,477.7c2.5-0.9,5-1.8,7.5-2.8c4.6,0.4,8.5,1.3,13.2,2.8c0.8-1.1,1.5-2.2,2.4-3.3
			c-0.7-1.2-1.4-2.4-2.1-3.8c-3.2-0.7-6.2-1.6-9.3-2.4c-5,0.7-8.6,1.2-13.3,3.8C616.7,473.9,617.2,475.8,617.7,477.7L617.7,477.7z"
			/>
		<path class="st3" d="M864.5,476.6c2.5-0.9,5-1.8,7.5-2.8c4.6,0.4,8.5,1.3,13.2,2.8c0.8-1.1,1.5-2.2,2.4-3.3
			c-0.7-1.2-1.4-2.4-2.1-3.8c-3.2-0.7-6.2-1.6-9.3-2.4c-5,0.7-8.6,1.2-13.3,3.8C863.5,472.8,864,474.8,864.5,476.6L864.5,476.6z"/>
		<path class="st4" d="M130.8,487.5c-2-2.6-2.3-5.3-5.3-8.4c-1.2,0.3-2.3,0.7-3.6,1c-0.3,1.1-0.6,2.3-1,3.5c1.6,2.1,3.1,4.2,4.6,6.3
			C135.7,495.3,131.3,490.6,130.8,487.5L130.8,487.5z"/>
		<path class="st4" d="M375,487.5c-2-2.6-2.3-5.3-5.3-8.4c-1.2,0.3-2.4,0.7-3.6,1c-0.3,1.1-0.6,2.3-1,3.5c1.6,2.1,3.1,4.2,4.6,6.3
			C379.9,495.3,375.6,490.6,375,487.5L375,487.5z"/>
		<path class="st4" d="M616.6,487.5c-2-2.6-2.3-5.3-5.3-8.4c-1.2,0.3-2.4,0.7-3.6,1c-0.3,1.1-0.6,2.3-1,3.5c1.6,2.1,3.1,4.2,4.6,6.3
			C621.5,495.3,617.2,490.6,616.6,487.5L616.6,487.5z"/>
		<path class="st4" d="M863.5,486.4c-2-2.6-2.3-5.3-5.3-8.4c-1.2,0.3-2.4,0.7-3.6,1c-0.3,1.1-0.6,2.3-1,3.5c1.6,2.1,3.1,4.2,4.6,6.3
			C868.4,494.2,864,489.5,863.5,486.4L863.5,486.4z"/>
		<path class="st3" d="M191.2,479.6c-7.7-1.3-8.2-0.1-9,5c1.3,2.8,5,6.7,9.1,8.5C204,491.7,196.3,482.4,191.2,479.6L191.2,479.6z"/>
		<path class="st3" d="M435.4,479.6c-7.7-1.3-8.2-0.1-9,5c1.3,2.8,5,6.7,9.1,8.5C448.2,491.7,440.5,482.4,435.4,479.6L435.4,479.6z"
			/>
		<path class="st3" d="M677.1,479.6c-7.7-1.3-8.2-0.1-9,5c1.3,2.8,5,6.7,9.1,8.5C689.9,491.7,682.2,482.4,677.1,479.6L677.1,479.6z"
			/>
		<path class="st3" d="M276.7,478.5c7.7-1.3,8.2-0.1,9,5c-1.3,2.8-5,6.7-9.1,8.5C263.9,490.6,271.6,481.3,276.7,478.5L276.7,478.5z"
			/>
		<path class="st3" d="M520.5,478.5c7.7-1.3,8.2-0.1,9,5c-1.3,2.8-5,6.7-9.1,8.5C507.7,490.6,515.4,481.3,520.5,478.5L520.5,478.5z"
			/>
		<path class="st3" d="M762.3,478.5c7.7-1.3,8.2-0.1,9,5c-1.3,2.8-5,6.7-9.1,8.5C749.5,490.6,757.2,481.3,762.3,478.5L762.3,478.5z"
			/>
		<path class="st3" d="M205,468.3c-8.2-0.1-11.3,1-12.1,6c1.3,2.8,11.3,4.2,15.3,6C221,478.9,210.1,471.1,205,468.3L205,468.3z"/>
		<path class="st3" d="M449.3,468.3c-8.2-0.1-11.3,1-12.1,6c1.3,2.8,11.3,4.2,15.3,6C465.2,478.9,454.4,471.1,449.3,468.3
			L449.3,468.3z"/>
		<path class="st3" d="M690.7,468.3c-8.2-0.1-11.3,1-12.1,6c1.3,2.8,11.3,4.2,15.3,6C706.6,478.9,695.8,471.1,690.7,468.3
			L690.7,468.3z"/>
		<path class="st3" d="M262.8,467.2c8.2-0.1,11.3,1,12.1,6c-1.3,2.8-11.3,4.2-15.3,6C246.9,477.8,257.7,470,262.8,467.2L262.8,467.2
			z"/>
		<path class="st3" d="M506.9,467.2c8.2-0.1,11.3,1,12.1,6c-1.3,2.8-11.3,4.2-15.3,6C490.9,477.8,501.8,470,506.9,467.2L506.9,467.2
			z"/>
		<path class="st3" d="M748.5,467.2c8.2-0.1,11.3,1,12.1,6c-1.3,2.8-11.3,4.2-15.3,6C732.6,477.8,743.4,470,748.5,467.2L748.5,467.2
			z"/>
		<path class="st4" d="M223.8,483.7c-3.5,0.3-9.3,0.4-13.2,0.7c-4.1,0.2-6.4,1.8-6.8,4.3c1.3,2.8,9.9,4.1,14,5.9
			C224.7,493.2,228.9,486.5,223.8,483.7L223.8,483.7z"/>
		<path class="st4" d="M467.8,483.7c-3.5,0.3-9.3,0.4-13.2,0.7c-4.1,0.2-6.4,1.8-6.8,4.3c1.3,2.8,9.9,4.1,14,5.9
			C468.7,493.2,472.9,486.5,467.8,483.7L467.8,483.7z"/>
		<path class="st4" d="M709.4,483.7c-3.5,0.3-9.3,0.4-13.2,0.7c-4.1,0.2-6.4,1.8-6.8,4.3c1.3,2.8,9.9,4.1,14,5.9
			C710.3,493.2,714.5,486.5,709.4,483.7L709.4,483.7z"/>
		<path class="st3" d="M244.1,482.8c3.5,0.3,9.3,0.4,13.2,0.7c4.1,0.2,6.4,1.8,6.8,4.3c-1.3,2.8-9.9,4.1-14,5.9
			C243.2,492.3,239,485.6,244.1,482.8L244.1,482.8z"/>
		<path class="st3" d="M488.1,482.8c3.5,0.3,9.3,0.4,13.2,0.7c4.1,0.2,6.4,1.8,6.8,4.3c-1.3,2.8-9.9,4.1-14,5.9
			C487.2,492.3,483,485.6,488.1,482.8L488.1,482.8z"/>
		<path class="st3" d="M729.9,482.8c3.5,0.3,9.3,0.4,13.2,0.7c4.1,0.2,6.4,1.8,6.8,4.3c-1.3,2.8-9.9,4.1-14,5.9
			C729.1,492.3,724.8,485.6,729.9,482.8L729.9,482.8z"/>
		<path class="st3" d="M162.1,475.9c-2,2-4.7,4.1-6.8,6.2c-4.9,1.7-8.6,2.5-14.1,3.1c-0.2,1.5-0.3,2.9-0.6,4.4
			c1.4,0.9,2.7,1.9,4.2,2.9c3.6-0.7,8.7-3.7,12.3-4.2c1.1-0.7,2.3-1.6,3.2-2.2c2.6-1.8,5.8-3.8,8.3-7.2
			C166.9,477.1,163.6,477.5,162.1,475.9L162.1,475.9z"/>
		<path class="st3" d="M406.1,475.9c-2,2-4.7,4.1-6.8,6.2c-4.9,1.7-8.6,2.5-14.1,3.1c-0.2,1.5-0.3,2.9-0.6,4.4
			c1.4,0.9,2.7,1.9,4.2,2.9c3.6-0.7,8.7-3.7,12.3-4.2c1.1-0.7,2.3-1.6,3.2-2.2c2.6-1.8,5.8-3.8,8.3-7.2
			C410.9,477.1,407.7,477.5,406.1,475.9L406.1,475.9z"/>
		<path class="st3" d="M647.8,475.9c-2,2-4.7,4.1-6.8,6.2c-4.9,1.7-8.6,2.5-14.1,3.1c-0.2,1.5-0.3,2.9-0.6,4.4
			c1.4,0.9,2.7,1.9,4.2,2.9c3.6-0.7,8.7-3.7,12.3-4.2c1.1-0.7,2.3-1.6,3.2-2.2c2.6-1.8,5.8-3.8,8.3-7.2
			C652.5,477.1,649.3,477.5,647.8,475.9L647.8,475.9z"/>
		<path class="st3" d="M894.8,474.8c-2,2-4.7,4.1-6.8,6.2c-4.9,1.7-8.6,2.5-14.1,3.1c-0.2,1.5-0.3,2.9-0.6,4.4
			c1.4,0.9,2.7,1.9,4.2,2.9c3.6-0.7,8.7-3.7,12.3-4.2c1.1-0.7,2.3-1.6,3.2-2.2c2.6-1.8,5.8-3.8,8.3-7.2
			C899.5,476,896.3,476.4,894.8,474.8L894.8,474.8z"/>
		<path class="st3" d="M65.2,469.6c7.2,2.5,10.9,2.4,18.5,0c2.4,3.5,2.3,2.4,0.3,6.3c-2.8,0.7-5.6,1.4-8.3,2.2
			c-4.4-0.7-5.7,0.4-9.9-1.9C63.6,475.1,64.7,471.2,65.2,469.6L65.2,469.6z"/>
		<path class="st3" d="M309.4,469.6c7.2,2.5,10.9,2.4,18.5,0c2.4,3.5,2.3,2.4,0.3,6.3c-2.8,0.7-5.6,1.4-8.3,2.2
			c-4.4-0.7-5.7,0.4-9.9-1.9C307.8,475.1,308.9,471.2,309.4,469.6L309.4,469.6z"/>
		<path class="st3" d="M551,469.6c7.2,2.5,10.9,2.4,18.5,0c2.4,3.5,2.3,2.4,0.3,6.3c-2.8,0.7-5.6,1.4-8.3,2.2
			c-4.4-0.7-5.7,0.4-9.9-1.9C549.4,475.1,550.5,471.2,551,469.6L551,469.6z"/>
		<path class="st3" d="M797.8,468.5c7.2,2.5,10.9,2.4,18.5,0c2.4,3.5,2.3,2.4,0.3,6.3c-2.8,0.7-5.6,1.4-8.3,2.2
			c-4.4-0.7-5.7,0.4-9.9-1.9C796.2,474,797.4,470.1,797.8,468.5L797.8,468.5z"/>
		<path class="st5" d="M82.4,378.7h19.6c3.9,0,6.8,0.2,8.7,0.5c1.9,0.3,3.6,1,5.1,2c1.5,1,2.8,2.4,3.8,4.1c1,1.7,1.5,3.6,1.5,5.7
			c0,2.3-0.6,4.4-1.9,6.3c-1.2,1.9-2.9,3.4-5,4.3c3,0.9,5.3,2.4,6.9,4.5c1.6,2.1,2.4,4.6,2.4,7.4c0,2.2-0.5,4.4-1.6,6.5
			c-1,2.1-2.5,3.8-4.3,5.1c-1.8,1.3-4,2-6.7,2.3c-1.6,0.2-5.6,0.3-12,0.3H82.4V378.7L82.4,378.7z M92.4,386.8v11.4h6.5
			c3.9,0,6.3-0.1,7.2-0.2c1.7-0.2,3-0.8,4-1.8c1-1,1.5-2.3,1.5-3.8c0-1.5-0.4-2.8-1.2-3.7c-0.8-1-2.1-1.5-3.7-1.7
			c-1-0.1-3.8-0.2-8.5-0.2H92.4L92.4,386.8z M92.4,406.4v13.1h9.2c3.6,0,5.8-0.1,6.8-0.3c1.5-0.3,2.7-0.9,3.6-2
			c0.9-1,1.4-2.4,1.4-4.2c0-1.5-0.4-2.7-1.1-3.8c-0.7-1-1.8-1.8-3.1-2.3c-1.4-0.5-4.3-0.7-8.8-0.7H92.4L92.4,406.4z"/>
		<path class="st5" d="M82.1,526.7h19.6c3.9,0,6.8,0.2,8.7,0.5c1.9,0.3,3.6,1,5.1,2c1.5,1,2.8,2.4,3.8,4.1c1,1.7,1.5,3.6,1.5,5.7
			c0,2.3-0.6,4.4-1.9,6.3c-1.2,1.9-2.9,3.4-5,4.3c3,0.9,5.3,2.4,6.9,4.5c1.6,2.1,2.4,4.6,2.4,7.4c0,2.2-0.5,4.4-1.6,6.5
			c-1,2.1-2.5,3.8-4.3,5.1c-1.8,1.3-4,2-6.7,2.3c-1.6,0.2-5.6,0.3-12,0.3H82.1V526.7L82.1,526.7z M92,534.9v11.4h6.5
			c3.9,0,6.3-0.1,7.2-0.2c1.7-0.2,3-0.8,4-1.8c1-1,1.5-2.3,1.5-3.8c0-1.5-0.4-2.8-1.2-3.7c-0.8-0.9-2.1-1.5-3.7-1.7
			c-1-0.1-3.8-0.2-8.5-0.2H92L92,534.9z M92,554.4v13.1h9.2c3.6,0,5.9-0.1,6.8-0.3c1.5-0.3,2.7-0.9,3.6-2c0.9-1,1.4-2.4,1.4-4.2
			c0-1.5-0.4-2.7-1.1-3.8c-0.7-1-1.8-1.8-3.1-2.3c-1.4-0.5-4.3-0.7-8.8-0.7H92L92,554.4z"/>
		<path class="st5" d="M127.6,304.5h-10.8l-4.3-11.2H92.9l-4,11.2H78.3l19.1-49.2h10.5L127.6,304.5L127.6,304.5z M109.3,285.1
			l-6.8-18.2l-6.6,18.2H109.3L109.3,285.1z"/>
		<path class="st5" d="M129.1,699h-10.7l-4.2-11.2H94.7l-4,11.2H80.3l18.9-49.2h10.4L129.1,699L129.1,699z M111,679.6l-6.7-18.2
			l-6.6,18.2H111L111,679.6z"/>
	</g>
</g>
</svg>
