<?xml version="1.0" encoding="utf-8"?>
<!-- Generator: Adobe Illustrator 19.2.0, SVG Export Plug-In . SVG Version: 6.00 Build 0)  -->
<svg version="1.1" id="Livello_1" xmlns="http://www.w3.org/2000/svg" xmlns:xlink="http://www.w3.org/1999/xlink" x="0px" y="0px"
	 viewBox="0 0 960 960" style="enable-background:new 0 0 960 960;" xml:space="preserve">
<style type="text/css">
	.st0{fill:#FFFFFF;}
	.st1{fill:none;stroke:#1A171B;stroke-width:1.061;stroke-miterlimit:2.6131;}
	.st2{fill-rule:evenodd;clip-rule:evenodd;fill:#CECFD1;}
	.st3{fill:none;stroke:#1A171B;stroke-width:3.5366;stroke-miterlimit:2.6131;}
	.st4{fill-rule:evenodd;clip-rule:evenodd;fill:#FFFFFF;}
	.st5{fill-rule:evenodd;clip-rule:evenodd;fill:#1A171B;}
</style>
<polygon class="st0" points="914.2,329 45,329 45,292.9 623.9,292.9 623.7,229.9 880,229.9 880.2,292.9 914.2,292.9 "/>
<polygon class="st0" points="914.2,631.5 45,631.5 45,667.6 623.9,667.6 623.7,730.6 880,730.6 880.2,667.6 914.2,667.6 "/>
<g>
	<g>
		<path class="st1" d="M915,324.4h-33.6c-21.4,0-31.5-10.3-31.5-31.5v-63"/>
		<path class="st1" d="M915,635.8h-33.6c-21.4,0-31.5,10.3-31.5,31.5v63"/>
		<path class="st2" d="M914.2,635.8V324.4h-32.7c-21.4,0-31.5-10.3-31.5-31.5v-63.2H654.5v63.2c0,21.2-10.1,31.5-31.5,31.5H45v311.4
			h577.9c21.4,0,31.5,10.3,31.5,31.5l0.2,63h195.3v-63c0-21.2,10.1-31.5,31.5-31.5H914.2L914.2,635.8z"/>
		<path class="st3" d="M45,667.3h577.9v63 M45,292.9h577.9v-63.2 M881.2,730.4v-63H915 M881.2,229.6v63.2H915"/>
		<polygon class="st4" points="456.3,571.8 562,571.8 580,590.9 601.2,590.9 564.8,603.7 528.3,590.9 549.5,590.9 537.3,579 
			456.3,579.2 456.3,571.8 		"/>
		<polygon class="st4" points="289.7,571.8 395.4,571.8 413.3,590.9 434.6,590.9 398.2,603.7 361.6,590.9 382.9,590.9 370.6,579 
			289.7,579.2 289.7,571.8 		"/>
		<polygon class="st4" points="122.7,571.8 228.3,571.8 246.3,590.9 267.6,590.9 231.2,603.7 194.6,590.9 215.9,590.9 203.6,579 
			122.7,579.2 122.7,571.8 		"/>
		<polygon class="st4" points="456.3,389.3 562,389.3 580,370.1 601.2,370.1 564.8,357.3 528.3,370.1 549.5,370.1 537.3,382.1 
			456.3,381.9 456.3,389.3 		"/>
		<polygon class="st4" points="289.7,389.3 395.4,389.3 413.3,370.1 434.6,370.1 398.2,357.3 361.6,370.1 382.9,370.1 370.6,382.1 
			289.7,381.9 289.7,389.3 		"/>
		<polygon class="st4" points="122.7,389.3 228.3,389.3 246.3,370.1 267.6,370.1 231.2,357.3 194.6,370.1 215.9,370.1 203.6,382.1 
			122.7,381.9 122.7,389.3 		"/>
		<polygon class="st4" points="654.5,421.8 303.3,421.8 303.3,434.6 654.5,434.6 654.5,421.8 		"/>
		<polygon class="st4" points="245.2,421.8 185.9,421.8 185.9,434.6 245.2,434.6 245.2,421.8 		"/>
		<polygon class="st4" points="127.8,422 68.5,422 68.5,434.8 127.8,434.8 127.8,422 		"/>
		<polygon class="st4" points="654.5,526 303.3,526 303.3,538.8 654.5,538.8 654.5,526 		"/>
		<polygon class="st4" points="245.2,526 185.9,526 185.9,538.8 245.2,538.8 245.2,526 		"/>
		<polygon class="st4" points="127.8,526.2 68.5,526.2 68.5,539 127.8,539 127.8,526.2 		"/>
		<polygon class="st4" points="565.2,480.5 580,496 601.2,496 564.8,508.7 528.3,496 549.5,496 537.3,484.2 456.3,484.2 
			456.3,476.8 456.6,476.8 456.6,476.6 537.5,476.6 549.7,465.1 528.5,465.1 564.8,452.3 601.2,465.1 580,465.1 565.2,480.5 		"/>
		<polygon class="st4" points="398.6,480.5 413.3,496 434.6,496 398.2,508.7 361.6,496 382.9,496 370.6,484.2 289.7,484.2 
			289.7,476.8 289.9,476.8 289.9,476.6 370.8,476.6 383.1,465.1 361.8,465.1 398.2,452.3 434.6,465.1 413.3,465.1 398.6,480.5 		"/>
		<polygon class="st4" points="231.6,480.5 246.3,496 267.6,496 231.2,508.7 194.6,496 215.9,496 203.6,484.2 122.7,484.2 
			122.7,476.8 122.9,476.8 122.9,476.6 203.8,476.6 216.1,465.1 194.8,465.1 231.2,452.3 267.6,465.1 246.3,465.1 231.6,480.5 		"/>
		<polygon class="st4" points="622.9,297 654.5,297 654.5,664 622.9,664 622.9,297 		"/>
		<path class="st1" d="M45,635.8h577.9c21.4,0,31.5,10.3,31.5,31.5v63"/>
		<path class="st1" d="M45,324.4h577.9c21.4,0,31.5-10.3,31.5-31.5v-63"/>
		<path class="st5" d="M107.8,393.8h-9.3l-3.7-9.6H78l-3.5,9.6h-9l16.4-42.2h9L107.8,393.8L107.8,393.8z M92.1,377.1l-5.8-15.7
			l-5.7,15.7H92.1L92.1,377.1z"/>
		<path class="st5" d="M70.2,459.8h16.9c3.3,0,5.8,0.1,7.5,0.4c1.6,0.3,3.1,0.9,4.4,1.7c1.3,0.9,2.4,2.1,3.2,3.5
			c0.9,1.5,1.3,3.1,1.3,4.9c0,2-0.5,3.8-1.6,5.4c-1.1,1.7-2.5,2.9-4.3,3.7c2.6,0.7,4.5,2,5.9,3.8c1.4,1.8,2.1,3.9,2.1,6.4
			c0,1.9-0.4,3.8-1.3,5.6c-0.9,1.8-2.1,3.3-3.7,4.3c-1.5,1.1-3.4,1.8-5.7,2c-1.4,0.1-4.8,0.2-10.3,0.3H70.2V459.8L70.2,459.8z
			 M78.7,466.9v9.8h5.6c3.3,0,5.4-0.1,6.2-0.1c1.5-0.2,2.6-0.7,3.4-1.5c0.8-0.8,1.2-1.9,1.2-3.3c0-1.3-0.4-2.4-1.1-3.2
			c-0.7-0.8-1.8-1.3-3.2-1.5c-0.8-0.1-3.3-0.1-7.3-0.1H78.7L78.7,466.9z M78.7,483.6v11.3h7.9c3.1,0,5-0.1,5.8-0.3
			c1.3-0.2,2.3-0.8,3.1-1.7c0.8-0.9,1.2-2.1,1.2-3.6c0-1.3-0.3-2.3-0.9-3.2c-0.6-0.9-1.5-1.5-2.7-1.9c-1.2-0.4-3.7-0.6-7.6-0.6H78.7
			L78.7,483.6z"/>
		<path class="st5" d="M98.9,594.5l8.3,2.6c-1.3,4.6-3.4,8-6.3,10.3c-2.9,2.2-6.7,3.3-11.2,3.3c-5.6,0-10.2-1.9-13.8-5.7
			c-3.6-3.8-5.4-9.1-5.4-15.7c0-7,1.8-12.5,5.4-16.4c3.6-3.9,8.4-5.8,14.3-5.8c5.2,0,9.4,1.5,12.6,4.6c1.9,1.8,3.4,4.4,4.3,7.8
			l-8.4,2c-0.5-2.2-1.5-3.9-3.1-5.2c-1.6-1.3-3.5-1.9-5.8-1.9c-3.1,0-5.7,1.1-7.6,3.4c-1.9,2.2-2.9,5.9-2.9,10.9
			c0,5.3,1,9.1,2.9,11.4c1.9,2.3,4.4,3.4,7.5,3.4c2.3,0,4.2-0.7,5.8-2.2C97,599.9,98.2,597.6,98.9,594.5L98.9,594.5z"/>
	</g>
</g>
</svg>
