<?xml version="1.0" encoding="utf-8"?>
<!-- Generator: Adobe Illustrator 19.2.0, SVG Export Plug-In . SVG Version: 6.00 Build 0)  -->
<svg version="1.1" id="Livello_1" xmlns="http://www.w3.org/2000/svg" xmlns:xlink="http://www.w3.org/1999/xlink" x="0px" y="0px"
	 viewBox="0 0 960 960" style="enable-background:new 0 0 960 960;" xml:space="preserve">
<style type="text/css">
	.st0{fill:#FFFFFF;}
	.st1{fill:none;stroke:#1A171B;stroke-width:1.061;stroke-miterlimit:2.6131;}
	.st2{fill-rule:evenodd;clip-rule:evenodd;fill:#CECFD1;}
	.st3{fill:none;stroke:#1A171B;stroke-width:3.5366;stroke-miterlimit:2.6131;}
	.st4{fill-rule:evenodd;clip-rule:evenodd;fill:#FFFFFF;}
	.st5{fill-rule:evenodd;clip-rule:evenodd;fill:#1A171B;}
</style>
<polygon class="st0" points="914.2,329 45,329 45,292.9 623.9,292.9 623.7,229.9 880,229.9 880.2,292.9 914.2,292.9 "/>
<polygon class="st0" points="914.2,631.5 45,631.5 45,667.6 623.9,667.6 623.7,730.6 880,730.6 880.2,667.6 914.2,667.6 "/>
<g>
	<g>
		<path class="st1" d="M915,324.4h-33.6c-21.4,0-31.5-10.3-31.5-31.5v-63"/>
		<path class="st1" d="M915,635.8h-33.6c-21.4,0-31.5,10.3-31.5,31.5v63"/>
		<path class="st2" d="M914.2,635.8V324.4h-32.7c-21.4,0-31.5-10.3-31.5-31.5v-63.2H654.5v63.2c0,21.2-10.1,31.5-31.5,31.5H45v311.4
			h577.9c21.4,0,31.5,10.3,31.5,31.5l0.2,63h195.3v-63c0-21.2,10.1-31.5,31.5-31.5H914.2L914.2,635.8z"/>
		<path class="st3" d="M45,667.3h577.9v63 M45,292.9h577.9v-63.2 M881.2,730.4v-63H915 M881.2,229.6v63.2H915"/>
		<path class="st1" d="M45,324.4h577.9c21.4,0,31.5-10.3,31.5-31.5v-63"/>
		<polygon class="st4" points="654.5,587.4 347.8,587.4 347.8,596.1 654.5,596.1 654.5,587.4 		"/>
		<polygon class="st4" points="304.5,587.4 246.9,587.4 246.9,596.1 304.5,596.1 304.5,587.4 		"/>
		<polygon class="st4" points="203.6,587.4 146,587.4 146,596.1 203.6,596.1 203.6,587.4 		"/>
		<polygon class="st4" points="102.7,587.4 45.1,587.4 45.1,596.1 102.7,596.1 102.7,587.4 		"/>
		<polygon class="st4" points="654.5,538.4 347.8,538.4 347.8,547 654.5,547 654.5,538.4 		"/>
		<polygon class="st4" points="304.5,538.4 246.9,538.4 246.9,547 304.5,547 304.5,538.4 		"/>
		<polygon class="st4" points="203.6,538.4 146,538.4 146,547 203.6,547 203.6,538.4 		"/>
		<polygon class="st4" points="102.7,538.4 45.1,538.4 45.1,547 102.7,547 102.7,538.4 		"/>
		<polygon class="st4" points="654.5,489.8 347.8,489.8 347.8,498.4 654.5,498.4 654.5,489.8 		"/>
		<polygon class="st4" points="654.5,475 45,475 45,483.6 654.5,483.6 654.5,475 		"/>
		<polygon class="st4" points="622.9,475.2 654.5,475.2 654.5,665.4 622.9,665.4 622.9,475.2 		"/>
		<path class="st1" d="M45,635.8h577.9c21.4,0,31.5,10.3,31.5,31.5v63"/>
		<polygon class="st4" points="502.4,530.4 583.5,530.4 597.3,515.8 613.6,515.8 585.7,506.1 557.6,515.8 573.9,515.8 565,524.9 
			502.4,524.7 502.4,530.4 		"/>
		<polygon class="st4" points="237.2,530.4 318.2,530.4 332,515.8 348.3,515.8 320.4,506.1 292.4,515.8 308.7,515.8 299.7,524.9 
			237.2,524.7 237.2,530.4 		"/>
		<polygon class="st4" points="370.2,530.4 451.3,530.4 465.1,515.8 481.4,515.8 453.5,506.1 425.4,515.8 441.7,515.8 432.8,524.9 
			370.2,524.7 370.2,530.4 		"/>
		<polygon class="st4" points="104.9,530.4 186,530.4 199.8,515.8 216.1,515.8 188.2,506.1 160.1,515.8 176.4,515.8 167.5,524.9 
			104.9,524.7 104.9,530.4 		"/>
		<polygon class="st4" points="502.4,575.7 531.6,575.7 569.7,575.8 569.7,583 613.6,572.8 569.9,563 569.9,570.2 536.8,570.2 
			545.4,561.1 561.7,561.1 533.8,551.4 505.7,561.1 522,561.1 512.6,570.2 502.4,570 502.4,575.7 		"/>
		<polygon class="st4" points="237.2,575.7 266.3,575.7 304.4,575.8 304.4,583 348.3,572.8 304.6,563 304.6,570.2 271.5,570.2 
			280.1,561.1 296.4,561.1 268.5,551.4 240.5,561.1 256.8,561.1 247.4,570.2 237.2,570 237.2,575.7 		"/>
		<polygon class="st4" points="370.2,575.7 399.4,575.7 437.5,575.8 437.5,583 481.4,572.8 437.6,563 437.6,570.2 404.6,570.2 
			413.2,561.1 429.5,561.1 401.6,551.4 373.5,561.1 389.8,561.1 380.4,570.2 370.2,570 370.2,575.7 		"/>
		<polygon class="st4" points="104.9,575.7 134.1,575.7 172.2,575.8 172.2,583 216.1,572.8 172.4,563 172.4,570.2 139.3,570.2 
			147.9,561.1 164.2,561.1 136.3,551.4 108.2,561.1 124.5,561.1 115.1,570.2 104.9,570 104.9,575.7 		"/>
		<polygon class="st4" points="502.4,607.2 531.6,607.2 569.7,607 569.7,599.8 613.6,610 569.9,619.9 569.9,612.7 536.8,612.7 
			545.4,621.8 561.7,621.8 533.8,631.5 505.7,621.8 522,621.8 512.6,612.7 502.4,612.8 502.4,607.2 		"/>
		<polygon class="st4" points="237.2,607.2 266.3,607.2 304.4,607 304.4,599.8 348.3,610 304.6,619.9 304.6,612.7 271.5,612.7 
			280.1,621.8 296.4,621.8 268.5,631.5 240.5,621.8 256.8,621.8 247.4,612.7 237.2,612.8 237.2,607.2 		"/>
		<polygon class="st4" points="370.2,607.2 399.4,607.2 437.5,607 437.5,599.8 481.4,610 437.6,619.9 437.6,612.7 404.6,612.7 
			413.2,621.8 429.5,621.8 401.6,631.5 373.5,621.8 389.8,621.8 380.4,612.7 370.2,612.8 370.2,607.2 		"/>
		<polygon class="st4" points="104.9,607.2 134.1,607.2 172.2,607 172.2,599.8 216.1,610 172.4,619.9 172.4,612.7 139.3,612.7 
			147.9,621.8 164.2,621.8 136.3,631.5 108.2,621.8 124.5,621.8 115.1,612.7 104.9,612.8 104.9,607.2 		"/>
		<path class="st5" d="M83.9,532.4h-6.8l-2.7-7H62.1l-2.5,7h-6.6l12-30.8h6.6L83.9,532.4L83.9,532.4z M72.4,520.2l-4.3-11.5
			L64,520.2H72.4L72.4,520.2z"/>
		<path class="st5" d="M55.9,552h12.3c2.4,0,4.3,0.1,5.5,0.3c1.2,0.2,2.3,0.6,3.2,1.3c0.9,0.6,1.7,1.5,2.4,2.6
			c0.6,1.1,0.9,2.3,0.9,3.6c0,1.4-0.4,2.8-1.2,4c-0.8,1.2-1.8,2.1-3.2,2.7c1.9,0.5,3.3,1.5,4.3,2.8c1,1.3,1.5,2.9,1.5,4.7
			c0,1.4-0.3,2.8-1,4.1c-0.7,1.3-1.5,2.4-2.7,3.2c-1.1,0.8-2.5,1.3-4.2,1.5c-1,0.1-3.5,0.2-7.5,0.2H55.9V552L55.9,552z M62.1,557.1
			v7.1h4.1c2.4,0,3.9,0,4.5-0.1c1.1-0.1,1.9-0.5,2.5-1.1c0.6-0.6,0.9-1.4,0.9-2.4c0-1-0.3-1.7-0.8-2.3c-0.5-0.6-1.3-1-2.3-1.1
			c-0.6-0.1-2.4-0.1-5.3-0.1H62.1L62.1,557.1z M62.1,569.4v8.2h5.8c2.2,0,3.7-0.1,4.3-0.2c0.9-0.2,1.7-0.6,2.3-1.2
			c0.6-0.7,0.9-1.5,0.9-2.6c0-0.9-0.2-1.7-0.7-2.4c-0.5-0.6-1.1-1.1-1.9-1.4c-0.8-0.3-2.7-0.4-5.5-0.4H62.1L62.1,569.4z"/>
		<path class="st5" d="M74.7,620.6l6,1.9c-0.9,3.4-2.5,5.9-4.6,7.5c-2.1,1.6-4.9,2.5-8.2,2.5c-4.1,0-7.5-1.4-10.1-4.2
			c-2.6-2.8-4-6.6-4-11.5c0-5.1,1.3-9.1,4-12c2.6-2.8,6.1-4.3,10.5-4.3c3.8,0,6.8,1.1,9.2,3.3c1.4,1.3,2.5,3.2,3.2,5.7l-6.2,1.5
			c-0.4-1.6-1.1-2.9-2.3-3.8c-1.2-0.9-2.6-1.4-4.2-1.4c-2.3,0-4.1,0.8-5.6,2.5c-1.4,1.6-2.1,4.3-2.1,8c0,3.9,0.7,6.7,2.1,8.3
			c1.4,1.7,3.2,2.5,5.5,2.5c1.7,0,3.1-0.5,4.3-1.6C73.3,624.5,74.1,622.8,74.7,620.6L74.7,620.6z"/>
	</g>
</g>
</svg>
