<?xml version="1.0" encoding="utf-8"?>
<!-- Generator: Adobe Illustrator 19.2.0, SVG Export Plug-In . SVG Version: 6.00 Build 0)  -->
<svg version="1.1" id="Livello_1" xmlns="http://www.w3.org/2000/svg" xmlns:xlink="http://www.w3.org/1999/xlink" x="0px" y="0px"
	 viewBox="0 0 960 960" style="enable-background:new 0 0 960 960;" xml:space="preserve">
<style type="text/css">
	.st0{fill:#FFFFFF;}
	.st1{fill:none;stroke:#1A171B;stroke-width:1.061;stroke-miterlimit:2.6131;}
	.st2{fill-rule:evenodd;clip-rule:evenodd;fill:#CECFD1;}
	.st3{fill:none;stroke:#1A171B;stroke-width:3.5366;stroke-miterlimit:2.6131;}
	.st4{fill-rule:evenodd;clip-rule:evenodd;fill:#FFFFFF;}
	.st5{fill-rule:evenodd;clip-rule:evenodd;fill:#E1001A;stroke:#070E0C;stroke-width:0.3537;stroke-miterlimit:2.6131;}
	.st6{fill-rule:evenodd;clip-rule:evenodd;fill:#FFFFFF;stroke:#070E0C;stroke-width:0.3537;stroke-miterlimit:2.6131;}
	.st7{fill:none;stroke:#070E0C;stroke-width:0.3537;stroke-miterlimit:2.6131;}
</style>
<polygon class="st0" points="914.2,329 45,329 45,292.9 623.9,292.9 623.7,229.9 880,229.9 880.2,292.9 914.2,292.9 "/>
<polygon class="st0" points="914.2,631.5 45,631.5 45,667.6 623.9,667.6 623.7,730.6 880,730.6 880.2,667.6 914.2,667.6 "/>
<g>
	<g>
		<path class="st1" d="M915,324.4h-33.6c-21.4,0-31.5-10.3-31.5-31.5v-63"/>
		<path class="st1" d="M915,635.8h-33.6c-21.4,0-31.5,10.3-31.5,31.5v63"/>
		<path class="st2" d="M914.2,635.8V324.4h-32.7c-21.4,0-31.5-10.3-31.5-31.5v-63.2H654.5v63.2c0,21.2-10.1,31.5-31.5,31.5H45v311.4
			h577.9c21.4,0,31.5,10.3,31.5,31.5l0.2,63h195.3v-63c0-21.2,10.1-31.5,31.5-31.5H914.2L914.2,635.8z"/>
		<path class="st3" d="M45,667.3h577.9v63 M45,292.9h577.9v-63.2 M881.2,730.4v-63H915 M881.2,229.6v63.2H915"/>
		<path class="st1" d="M45,324.4h577.9c21.4,0,31.5-10.3,31.5-31.5v-63"/>
		<polygon class="st4" points="654.5,587.4 347.8,587.4 347.8,596.1 654.5,596.1 654.5,587.4 		"/>
		<polygon class="st4" points="304.5,587.4 246.9,587.4 246.9,596.1 304.5,596.1 304.5,587.4 		"/>
		<polygon class="st4" points="203.6,587.4 146,587.4 146,596.1 203.6,596.1 203.6,587.4 		"/>
		<polygon class="st4" points="102.7,587.4 45.1,587.4 45.1,596.1 102.7,596.1 102.7,587.4 		"/>
		<polygon class="st4" points="654.5,538.4 347.8,538.4 347.8,547 654.5,547 654.5,538.4 		"/>
		<polygon class="st4" points="304.5,538.4 246.9,538.4 246.9,547 304.5,547 304.5,538.4 		"/>
		<polygon class="st4" points="203.6,538.4 146,538.4 146,547 203.6,547 203.6,538.4 		"/>
		<polygon class="st4" points="102.7,538.4 45.1,538.4 45.1,547 102.7,547 102.7,538.4 		"/>
		<polygon class="st4" points="654.5,489.8 347.8,489.8 347.8,498.4 654.5,498.4 654.5,489.8 		"/>
		<polygon class="st4" points="654.5,475 45,475 45,483.6 654.5,483.6 654.5,475 		"/>
		<polygon class="st4" points="622.9,475.2 654.5,475.2 654.5,667.3 622.9,667.3 622.9,475.2 		"/>
		<path class="st5" d="M531.2,600.8l24-2.5h31.4l25.5,3.3c2.3,0.2,4.1,2.2,4.1,3.8c0,7.2,0,14.4,0,21.7c0,1.6-2.3,3.7-4.1,3.8
			l-25.4,2.7h-31.6l-23.9-2.3c-1.9-0.2-4.1-1.7-4.1-3.8v-22.9C527,602.5,528.8,601,531.2,600.8L531.2,600.8z"/>
		<path class="st6" d="M581.7,600.7l8.9,1.2c3.5,9.5,3.2,18,0,28.2l-8.9,1.1C583.9,621.1,584.1,611.2,581.7,600.7L581.7,600.7z"/>
		<polygon class="st6" points="543.9,603.9 549.4,605.6 549.4,626.6 543.9,628.4 543.9,603.9 		"/>
		<path class="st6" d="M530.2,610.2h-1.4c-0.4,0-0.7,0.2-0.7,0.4v10.9c0,0.2,0.3,0.4,0.7,0.4h1.4c0.4,0,0.7-0.2,0.7-0.4v-10.9
			C531,610.3,530.6,610.2,530.2,610.2L530.2,610.2z"/>
		<line class="st7" x1="552.6" y1="601.7" x2="578.3" y2="601.8"/>
		<line class="st7" x1="559.6" y1="615.8" x2="578.3" y2="615.9"/>
		<line class="st7" x1="552.6" y1="630.1" x2="578.3" y2="630.2"/>
		<line class="st7" x1="595.4" y1="603.1" x2="611.1" y2="605.3"/>
		<line class="st7" x1="595.4" y1="628.8" x2="611.1" y2="626.9"/>
		<path class="st1" d="M45,635.8h577.9c21.4,0,31.5,10.3,31.5,31.5v63"/>
	</g>
</g>
</svg>
