<?xml version="1.0" encoding="utf-8"?>
<!-- Generator: Adobe Illustrator 19.2.0, SVG Export Plug-In . SVG Version: 6.00 Build 0)  -->
<svg version="1.1" id="Livello_1" xmlns="http://www.w3.org/2000/svg" xmlns:xlink="http://www.w3.org/1999/xlink" x="0px" y="0px"
	 viewBox="0 0 960 960" style="enable-background:new 0 0 960 960;" xml:space="preserve">
<style type="text/css">
	.st0{fill:#FFFFFF;}
	.st1{fill-rule:evenodd;clip-rule:evenodd;fill:#CECFD1;}
	.st2{fill-rule:evenodd;clip-rule:evenodd;fill:#FFFFFF;}
	.st3{fill:none;stroke:#1A171B;stroke-width:1.061;stroke-miterlimit:2.6131;}
	.st4{fill:none;stroke:#1A171B;stroke-width:3.5366;stroke-miterlimit:2.6131;}
	.st5{fill-rule:evenodd;clip-rule:evenodd;fill:#3D3D3F;stroke:#070E0C;stroke-width:0.3537;stroke-miterlimit:2.6131;}
	.st6{fill-rule:evenodd;clip-rule:evenodd;fill:#FFFFFF;stroke:#070E0C;stroke-width:0.3537;stroke-miterlimit:2.6131;}
	.st7{fill:none;stroke:#FFFFFF;stroke-width:0.3537;stroke-miterlimit:2.6131;}
</style>
<polygon class="st0" points="914.2,329 45,329 45,292.9 623.9,292.9 623.7,229.9 880,229.9 880.2,292.9 914.2,292.9 "/>
<polygon class="st0" points="914.2,631.5 45,631.5 45,667.6 623.9,667.6 623.7,730.6 880,730.6 880.2,667.6 914.2,667.6 "/>
<g>
	<g>
		<path class="st1" d="M914.2,635.8V324.4h-32.7c-21.4,0-31.5-10.3-31.5-31.5v-63.2H654.5v63.2c0,21.2-10.1,31.5-31.5,31.5H45v311.4
			h577.9c21.4,0,33.1,10.3,33.1,31.5l-0.6,63h194.5v-63c0-21.2,10.1-31.5,31.5-31.5H914.2L914.2,635.8z"/>
		<polygon class="st2" points="654.6,563.2 347.9,563.2 347.9,571.8 654.6,571.8 654.6,563.2 		"/>
		<polygon class="st2" points="304.7,563.2 247.1,563.2 247.1,571.8 304.7,571.8 304.7,563.2 		"/>
		<polygon class="st2" points="203.8,563.2 146.2,563.2 146.2,571.8 203.8,571.8 203.8,563.2 		"/>
		<polygon class="st2" points="102.8,563.2 45.3,563.2 45.3,571.8 102.8,571.8 102.8,563.2 		"/>
		<polygon class="st2" points="654.6,490 347.9,490 347.9,498.6 654.6,498.6 654.6,490 		"/>
		<polygon class="st2" points="654.6,475.1 45.2,475.1 45.2,483.8 654.6,483.8 654.6,475.1 		"/>
		<polygon class="st2" points="623.1,475.3 654.6,475.3 654.6,667.5 623.1,667.5 623.1,475.3 		"/>
		<polygon class="st2" points="476.4,534.4 561.3,534.6 561.3,543.7 616.7,530.9 561.5,518.4 561.5,527.5 476.4,527.3 476.4,534.4 
					"/>
		<polygon class="st2" points="91.5,534.4 176.4,534.6 176.4,543.7 231.7,530.9 176.6,518.4 176.6,527.5 91.5,527.3 91.5,534.4 		
			"/>
		<polygon class="st2" points="284.3,534.4 369.2,534.6 369.2,543.7 424.5,530.9 369.4,518.4 369.4,527.5 284.3,527.3 284.3,534.4 
					"/>
		<path class="st3" d="M915,324.4h-33.6c-21.4,0-31.5-10.3-31.5-31.5v-63"/>
		<path class="st3" d="M915,635.8h-33.6c-21.4,0-31.5,10.3-31.5,31.5v63"/>
		<path class="st4" d="M45,667.3h577.9v63 M45,292.9h577.9v-63.2 M881.2,730.4v-63H915 M881.2,229.6v63.2H915"/>
		<path class="st3" d="M45,324.4h577.9c21.4,0,31.5-10.3,31.5-31.5v-63"/>
		<path class="st3" d="M46.4,635.8h577.9c21.4,0,31.5,10.3,31.5,31.5v63"/>
		<polygon class="st2" points="91.8,593.4 128.5,593.4 176.5,593.2 176.5,584 231.8,597 176.7,609.6 176.7,600.4 135,600.4 
			145.9,612 166.4,612 131.3,624.4 96,612 116.5,612 104.6,600.4 91.8,600.6 91.8,593.4 		"/>
		<polygon class="st2" points="476.5,593.9 513.2,593.9 561.2,593.7 561.2,584.5 616.5,597.5 561.4,610.1 561.4,600.9 519.7,600.9 
			530.6,612.5 551.1,612.5 516,624.9 480.6,612.5 501.2,612.5 489.3,600.9 476.5,601.1 476.5,593.9 		"/>
		<polygon class="st2" points="284.8,594 321.6,594 369.5,593.8 369.5,584.6 424.8,597.6 369.7,610.2 369.7,601 328.1,601 
			338.9,612.6 359.5,612.6 324.3,625 289,612.6 309.5,612.6 297.7,601 284.8,601.2 284.8,594 		"/>
		<path class="st5" d="M122.1,585.6l29.4-3.1h38.3l31.2,4c2.9,0.2,5.1,2.7,5.1,4.6c0,8.8,0,17.6,0,26.5c0,2-2.9,4.5-5.1,4.6l-31,3.3
			h-38.6l-29.2-2.8c-2.3-0.2-5.1-2.1-5.1-4.6v-28C117,587.7,119.3,585.8,122.1,585.6L122.1,585.6z"/>
		<path class="st6" d="M183.8,585.5l10.9,1.5c4.3,11.6,3.9,22,0,34.4l-10.9,1.4C186.5,610.4,186.8,598.4,183.8,585.5L183.8,585.5z"
			/>
		<polygon class="st6" points="137.7,589.4 144.3,591.4 144.3,617.2 137.7,619.4 137.7,589.4 		"/>
		<path class="st6" d="M120.9,597.1h-1.7c-0.5,0-0.9,0.2-0.9,0.4v13.3c0,0.2,0.4,0.4,0.9,0.4h1.7c0.5,0,0.9-0.2,0.9-0.4v-13.3
			C121.9,597.3,121.4,597.1,120.9,597.1L120.9,597.1z"/>
		<line class="st7" x1="148.2" y1="586.7" x2="179.7" y2="586.8"/>
		<line class="st7" x1="156.8" y1="603.9" x2="179.7" y2="604"/>
		<line class="st7" x1="148.2" y1="621.5" x2="179.7" y2="621.6"/>
		<line class="st7" x1="200.6" y1="588.4" x2="219.8" y2="591.1"/>
		<line class="st7" x1="200.6" y1="619.9" x2="219.8" y2="617.6"/>
	</g>
</g>
</svg>
