<?xml version="1.0" encoding="utf-8"?>
<!-- Generator: Adobe Illustrator 19.2.0, SVG Export Plug-In . SVG Version: 6.00 Build 0)  -->
<svg version="1.1" id="Livello_1" xmlns="http://www.w3.org/2000/svg" xmlns:xlink="http://www.w3.org/1999/xlink" x="0px" y="0px"
	 viewBox="0 0 960 960" style="enable-background:new 0 0 960 960;" xml:space="preserve">
<style type="text/css">
	.st0{fill:#FFFFFF;}
	.st1{fill-rule:evenodd;clip-rule:evenodd;fill:#CECFD1;}
	.st2{fill-rule:evenodd;clip-rule:evenodd;fill:#FFFFFF;}
	.st3{fill:none;stroke:#1A171B;stroke-width:1.061;stroke-miterlimit:2.6131;}
	.st4{fill:none;stroke:#1A171B;stroke-width:3.5366;stroke-miterlimit:2.6131;}
	.st5{fill-rule:evenodd;clip-rule:evenodd;fill:#009DDF;stroke:#1A171B;stroke-width:0.3537;stroke-miterlimit:2.6131;}
	.st6{fill-rule:evenodd;clip-rule:evenodd;fill:#FFFFFF;stroke:#1A171B;stroke-width:0.3537;stroke-miterlimit:2.6131;}
	.st7{fill:none;stroke:#1A171B;stroke-width:0.3537;stroke-miterlimit:2.6131;}
</style>
<polygon class="st0" points="914.2,329 45,329 45,292.9 623.9,292.9 623.7,229.9 880,229.9 880.2,292.9 914.2,292.9 "/>
<polygon class="st0" points="914.2,631.5 45,631.5 45,667.6 623.9,667.6 623.7,730.6 880,730.6 880.2,667.6 914.2,667.6 "/>
<g>
	<g>
		<path class="st1" d="M914.2,635.8V324.4h-32.7c-21.4,0-31.5-10.3-31.5-31.5v-63.2H654.5v63.2c0,21.2-10.1,31.5-31.5,31.5H45v311.4
			h577.9c21.4,0,31.5,10.3,31.5,31.5l0.2,63h195.3v-63c0-21.2,10.1-31.5,31.5-31.5H914.2L914.2,635.8z"/>
		<polygon class="st2" points="654.6,563.2 347.9,563.2 347.9,571.8 654.6,571.8 654.6,563.2 		"/>
		<polygon class="st2" points="304.7,563.2 247.1,563.2 247.1,571.8 304.7,571.8 304.7,563.2 		"/>
		<polygon class="st2" points="203.8,563.2 146.2,563.2 146.2,571.8 203.8,571.8 203.8,563.2 		"/>
		<polygon class="st2" points="102.8,563.2 45.3,563.2 45.3,571.8 102.8,571.8 102.8,563.2 		"/>
		<polygon class="st2" points="654.6,490 347.9,490 347.9,498.6 654.6,498.6 654.6,490 		"/>
		<polygon class="st2" points="654.6,475.1 45.2,475.1 45.2,483.8 654.6,483.8 654.6,475.1 		"/>
		<polygon class="st2" points="623.1,475.3 654.6,475.3 654.6,667.5 623.1,667.5 623.1,475.3 		"/>
		<polygon class="st2" points="476.4,541.5 513.2,541.5 561.3,541.7 561.3,550.8 616.7,537.9 561.5,525.4 561.5,534.5 519.7,534.5 
			530.6,523.1 551.2,523.1 516,510.8 480.6,523.1 501.2,523.1 489.3,534.5 476.4,534.3 476.4,541.5 		"/>
		<polygon class="st2" points="91.5,541.5 128.3,541.5 176.4,541.7 176.4,550.8 231.7,537.9 176.6,525.4 176.6,534.5 134.8,534.5 
			145.7,523.1 166.3,523.1 131.1,510.8 95.7,523.1 116.2,523.1 104.4,534.5 91.5,534.3 91.5,541.5 		"/>
		<polygon class="st2" points="284.3,541.5 321.1,541.5 369.2,541.7 369.2,550.8 424.5,537.9 369.4,525.4 369.4,534.5 327.6,534.5 
			338.5,523.1 359.1,523.1 323.9,510.8 288.5,523.1 309,523.1 297.2,534.5 284.3,534.3 284.3,541.5 		"/>
		<path class="st2" d="M476.4,607l84.8,0.2v9.1l55.4-12.9L561.5,591v9.1c-39.5,0-46.3,0.4-85-0.2V607L476.4,607z"/>
		<path class="st2" d="M91.5,607l84.8,0.2v9.1l55.4-12.9L176.6,591v9.1c-39.5,0-46.3,0.4-85-0.2V607L91.5,607z"/>
		<path class="st2" d="M284.3,607l84.8,0.2v9.1l55.4-12.9L369.4,591v9.1c-39.5,0-46.3,0.4-85-0.2V607L284.3,607z"/>
		<path class="st3" d="M915,324.4h-33.6c-21.4,0-31.5-10.3-31.5-31.5v-63"/>
		<path class="st3" d="M915,635.8h-33.6c-21.4,0-31.5,10.3-31.5,31.5v63"/>
		<path class="st4" d="M45,667.3h577.9v63 M45,292.9h577.9v-63.2 M881.2,730.4v-63H915 M881.2,229.6v63.2H915"/>
		<path class="st3" d="M45,324.4h577.9c21.4,0,31.5-10.3,31.5-31.5v-63"/>
		<path class="st3" d="M45,635.8h577.9c21.4,0,31.5,10.3,31.5,31.5v63"/>
		<path class="st5" d="M464.3,584.4l29.4-3.2h38.3l31.2,4.2c2.9,0.3,5.1,2.8,5.1,4.8c0,9.2,0,18.3,0,27.6c0,2-2.9,4.7-5.1,4.8
			l-31,3.4h-38.6l-29.2-2.9c-2.3-0.3-5.1-2.2-5.1-4.8v-29.1C459.2,586.6,461.4,584.7,464.3,584.4L464.3,584.4z"/>
		<path class="st6" d="M526,584.3l10.9,1.6c4.3,12.1,3.9,23,0,35.9l-10.9,1.4C528.7,610.3,528.9,597.8,526,584.3L526,584.3z"/>
		<polygon class="st6" points="479.8,588.4 486.5,590.5 486.5,617.4 479.8,619.7 479.8,588.4 		"/>
		<path class="st6" d="M463.1,596.4h-1.7c-0.5,0-0.9,0.2-0.9,0.5v13.9c0,0.2,0.4,0.5,0.9,0.5h1.7c0.5,0,0.9-0.2,0.9-0.5v-13.9
			C464,596.6,463.6,596.4,463.1,596.4L463.1,596.4z"/>
		<line class="st7" x1="490.4" y1="585.6" x2="521.8" y2="585.7"/>
		<line class="st7" x1="498.9" y1="603.5" x2="521.8" y2="603.6"/>
		<line class="st7" x1="490.4" y1="621.8" x2="521.8" y2="622"/>
		<line class="st7" x1="542.7" y1="587.4" x2="561.9" y2="590.2"/>
		<line class="st7" x1="542.7" y1="620.2" x2="561.9" y2="617.8"/>
	</g>
</g>
</svg>
