<?xml version="1.0" encoding="utf-8"?>
<!-- Generator: Adobe Illustrator 19.2.0, SVG Export Plug-In . SVG Version: 6.00 Build 0)  -->
<svg version="1.1" id="Livello_1" xmlns="http://www.w3.org/2000/svg" xmlns:xlink="http://www.w3.org/1999/xlink" x="0px" y="0px"
	 viewBox="0 0 960 960" style="enable-background:new 0 0 960 960;" xml:space="preserve">
<style type="text/css">
	.st0{fill:#FFFFFF;}
	.st1{fill-rule:evenodd;clip-rule:evenodd;fill:#CECFD1;}
	.st2{fill-rule:evenodd;clip-rule:evenodd;fill:#FFFFFF;}
	.st3{fill:none;stroke:#1A171B;stroke-width:1.061;stroke-miterlimit:2.6131;}
	.st4{fill:none;stroke:#1A171B;stroke-width:3.5366;stroke-miterlimit:2.6131;}
	.st5{fill-rule:evenodd;clip-rule:evenodd;fill:#3D3D3F;stroke:#070E0C;stroke-width:0.3537;stroke-miterlimit:2.6131;}
	.st6{fill-rule:evenodd;clip-rule:evenodd;fill:#FFFFFF;stroke:#070E0C;stroke-width:0.3537;stroke-miterlimit:2.6131;}
	.st7{fill:none;stroke:#FFFFFF;stroke-width:0.3537;stroke-miterlimit:2.6131;}
</style>
<polygon class="st0" points="914.2,329 45,329 45,292.9 623.9,292.9 623.7,229.9 880,229.9 880.2,292.9 914.2,292.9 "/>
<polygon class="st0" points="914.2,631.5 45,631.5 45,667.6 623.9,667.6 623.7,730.6 880,730.6 880.2,667.6 914.2,667.6 "/>
<g>
	<g>
		<path class="st1" d="M914.2,635.8V324.4h-32.7c-21.4,0-31.5-10.3-31.5-31.5v-63.2H654.5v63.2c0,21.2-10.1,31.5-31.5,31.5H45v311.4
			h577.9c21.4,0,33.2,10.3,33.2,31.5l-0.5,63h194.2v-63c0-21.2,10.1-31.5,31.5-31.5H914.2L914.2,635.8z"/>
		<polygon class="st2" points="654.6,563.2 347.9,563.2 347.9,571.8 654.6,571.8 654.6,563.2 		"/>
		<polygon class="st2" points="304.7,563.2 247.1,563.2 247.1,571.8 304.7,571.8 304.7,563.2 		"/>
		<polygon class="st2" points="203.8,563.2 146.2,563.2 146.2,571.8 203.8,571.8 203.8,563.2 		"/>
		<polygon class="st2" points="102.8,563.2 45.3,563.2 45.3,571.8 102.8,571.8 102.8,563.2 		"/>
		<polygon class="st2" points="654.6,490 347.9,490 347.9,498.6 654.6,498.6 654.6,490 		"/>
		<polygon class="st2" points="654.6,475.1 45.2,475.1 45.2,483.8 654.6,483.8 654.6,475.1 		"/>
		<polygon class="st2" points="623.1,475.3 654.6,475.3 654.6,667.5 623.1,667.5 623.1,475.3 		"/>
		<path class="st3" d="M915,324.4h-33.6c-21.4,0-31.5-10.3-31.5-31.5v-63"/>
		<path class="st3" d="M915,635.8h-33.6c-21.4,0-31.5,10.3-31.5,31.5v63"/>
		<path class="st4" d="M45,667.3h577.9v63 M45,292.9h577.9v-63.2 M881.2,730.4v-63H915 M881.2,229.6v63.2H915"/>
		<path class="st3" d="M45,324.4h577.9c21.4,0,31.5-10.3,31.5-31.5v-63"/>
		<path class="st3" d="M46.4,635.8h577.9c21.4,0,31.5,10.3,31.5,31.5v63"/>
		<polygon class="st2" points="88.3,620.3 190.9,620.3 208.3,601.1 229,601.1 193.7,588.3 158.1,601.1 178.8,601.1 166.9,613.1 
			88.3,612.9 88.3,620.3 		"/>
		<polygon class="st2" points="473.6,620.3 576.2,620.3 593.6,601 614.2,601 578.9,588.2 543.4,601 564.1,601 552.2,613 
			473.6,612.8 473.6,620.3 		"/>
		<polygon class="st2" points="281.1,619.3 383.7,619.3 401.1,600.1 421.8,600.1 386.5,587.3 351,600.1 371.6,600.1 359.7,612.1 
			281.1,611.9 281.1,619.3 		"/>
		<polygon class="st2" points="88,547.8 190.6,547.8 208.1,528.6 228.7,528.6 193.4,515.8 157.9,528.6 178.5,528.6 166.6,540.6 
			88,540.4 88,547.8 		"/>
		<polygon class="st2" points="473.3,547.8 575.9,547.8 593.3,528.6 614,528.6 578.7,515.8 543.2,528.6 563.8,528.6 551.9,540.6 
			473.3,540.4 473.3,547.8 		"/>
		<polygon class="st2" points="280.9,546.9 383.4,546.9 400.9,527.7 421.5,527.7 386.2,514.8 350.7,527.7 371.3,527.7 359.4,539.6 
			280.9,539.4 280.9,546.9 		"/>
		<path class="st5" d="M113.3,588.8l29.4-3.1H181l31.2,4c2.9,0.2,5.1,2.7,5.1,4.6c0,8.8,0,17.6,0,26.5c0,2-2.9,4.5-5.1,4.6l-31,3.3
			h-38.6l-29.2-2.8c-2.3-0.2-5.1-2.1-5.1-4.6v-28C108.2,590.8,110.4,589,113.3,588.8L113.3,588.8z"/>
		<path class="st6" d="M175,588.6l10.9,1.5c4.3,11.6,3.9,22,0,34.4L175,626C177.7,613.6,178,601.6,175,588.6L175,588.6z"/>
		<polygon class="st6" points="128.9,592.5 135.5,594.6 135.5,620.4 128.9,622.6 128.9,592.5 		"/>
		<path class="st6" d="M112.1,600.2h-1.7c-0.5,0-0.9,0.2-0.9,0.4V614c0,0.2,0.4,0.4,0.9,0.4h1.7c0.5,0,0.9-0.2,0.9-0.4v-13.3
			C113,600.4,112.6,600.2,112.1,600.2L112.1,600.2z"/>
		<line class="st7" x1="139.4" y1="589.9" x2="170.8" y2="590"/>
		<line class="st7" x1="148" y1="607.1" x2="170.8" y2="607.2"/>
		<line class="st7" x1="139.4" y1="624.6" x2="170.8" y2="624.8"/>
		<line class="st7" x1="191.7" y1="591.6" x2="211" y2="594.3"/>
		<line class="st7" x1="191.7" y1="623.1" x2="211" y2="620.7"/>
	</g>
</g>
</svg>
