<?xml version="1.0" encoding="utf-8"?>
<!-- Generator: Adobe Illustrator 19.2.0, SVG Export Plug-In . SVG Version: 6.00 Build 0)  -->
<svg version="1.1" id="Livello_1" xmlns="http://www.w3.org/2000/svg" xmlns:xlink="http://www.w3.org/1999/xlink" x="0px" y="0px"
	 viewBox="0 0 960 960" style="enable-background:new 0 0 960 960;" xml:space="preserve">
<style type="text/css">
	.st0{fill:#FFFFFF;}
	.st1{fill-rule:evenodd;clip-rule:evenodd;fill:#CECFD1;}
	.st2{fill-rule:evenodd;clip-rule:evenodd;fill:#FFFFFF;}
	.st3{fill:none;stroke:#1A171B;stroke-width:1.061;stroke-miterlimit:2.6131;}
	.st4{fill:none;stroke:#1A171B;stroke-width:3.5366;stroke-miterlimit:2.6131;}
	.st5{fill-rule:evenodd;clip-rule:evenodd;fill:#1A171B;}
	.st6{fill-rule:evenodd;clip-rule:evenodd;fill:#009DDF;stroke:#1A171B;stroke-width:0.3537;stroke-miterlimit:2.6131;}
	.st7{fill-rule:evenodd;clip-rule:evenodd;fill:#FFFFFF;stroke:#1A171B;stroke-width:0.3537;stroke-miterlimit:2.6131;}
	.st8{fill:none;stroke:#1A171B;stroke-width:0.3537;stroke-miterlimit:2.6131;}
	.st9{fill-rule:evenodd;clip-rule:evenodd;fill:#E1001A;stroke:#070E0C;stroke-width:0.3537;stroke-miterlimit:2.6131;}
	.st10{fill-rule:evenodd;clip-rule:evenodd;fill:#FFFFFF;stroke:#070E0C;stroke-width:0.3537;stroke-miterlimit:2.6131;}
	.st11{fill:none;stroke:#070E0C;stroke-width:0.3537;stroke-miterlimit:2.6131;}
</style>
<polygon class="st0" points="914.2,329 45,329 45,292.9 623.9,292.9 623.7,229.9 880,229.9 880.2,292.9 914.2,292.9 "/>
<polygon class="st0" points="914.2,631.5 45,631.5 45,667.6 623.9,667.6 623.7,730.6 880,730.6 880.2,667.6 914.2,667.6 "/>
<g>
	<g>
		<path class="st1" d="M914.2,635.8V324.4h-32.7c-21.4,0-31.5-10.3-31.5-31.5v-63.2H654.5v63.2c0,21.2-10.1,31.5-31.5,31.5H45v311.4
			h577.9c21.4,0,32.8,10.3,32.8,31.5l-0.1,63h194.3v-63c0-21.2,10.1-31.5,31.5-31.5H914.2L914.2,635.8z"/>
		<polygon class="st2" points="654.6,563.2 347.9,563.2 347.9,571.8 654.6,571.8 654.6,563.2 		"/>
		<polygon class="st2" points="304.7,563.2 247.1,563.2 247.1,571.8 304.7,571.8 304.7,563.2 		"/>
		<polygon class="st2" points="203.8,563.2 146.2,563.2 146.2,571.8 203.8,571.8 203.8,563.2 		"/>
		<polygon class="st2" points="102.8,563.2 45.3,563.2 45.3,571.8 102.8,571.8 102.8,563.2 		"/>
		<polygon class="st2" points="654.6,490 347.9,490 347.9,498.6 654.6,498.6 654.6,490 		"/>
		<polygon class="st2" points="654.6,475.1 45.2,475.1 45.2,483.8 654.6,483.8 654.6,475.1 		"/>
		<polygon class="st2" points="623.1,475.3 654.6,475.3 654.6,667.5 623.1,667.5 623.1,475.3 		"/>
		<polygon class="st2" points="476.4,534.4 561.3,534.6 561.3,543.7 616.7,530.9 561.5,518.4 561.5,527.5 476.4,527.3 476.4,534.4 
					"/>
		<polygon class="st2" points="91.5,534.4 176.4,534.6 176.4,543.7 231.7,530.9 176.6,518.4 176.6,527.5 91.5,527.3 91.5,534.4 		
			"/>
		<polygon class="st2" points="284.3,534.4 369.2,534.6 369.2,543.7 424.5,530.9 369.4,518.4 369.4,527.5 284.3,527.3 284.3,534.4 
					"/>
		<path class="st3" d="M915,324.4h-33.6c-21.4,0-31.5-10.3-31.5-31.5v-63"/>
		<path class="st3" d="M915,635.8h-33.6c-21.4,0-31.5,10.3-31.5,31.5v63"/>
		<path class="st4" d="M45,667.3h577.9v63 M45,292.9h577.9v-63.2 M881.2,730.4v-63H915 M881.2,229.6v63.2H915"/>
		<path class="st3" d="M45,324.4h577.9c21.4,0,31.5-10.3,31.5-31.5v-63"/>
		<path class="st3" d="M46.4,635.8h577.9c21.4,0,31.5,10.3,31.5,31.5v63"/>
		<polygon class="st2" points="91.2,588.2 193.7,588.2 211.2,607.3 231.8,607.3 196.5,620.1 161,607.3 181.6,607.3 169.7,595.4 
			91.2,595.6 91.2,588.2 		"/>
		<polygon class="st2" points="476.5,588.2 579,588.2 596.5,607.4 617.1,607.4 581.8,620.1 546.3,607.4 566.9,607.4 555,595.4 
			476.5,595.6 476.5,588.2 		"/>
		<polygon class="st2" points="284,588.9 386.6,588.9 404,608 424.6,608 389.3,620.8 353.8,608 374.5,608 362.6,596.1 284,596.3 
			284,588.9 		"/>
		<path class="st5" d="M403.1,463.9h-9.3l-3.7-9.6h-16.9l-3.5,9.6h-9l16.4-42.2h9L403.1,463.9L403.1,463.9z M387.4,447.2l-5.8-15.7
			l-5.7,15.7H387.4L387.4,447.2z"/>
		<path class="st5" d="M366.3,680.3h15.6c3.5,0,6.2,0.3,8,0.8c2.5,0.7,4.6,2,6.4,3.9c1.8,1.9,3.1,4.1,4,6.8c0.9,2.7,1.4,6,1.4,10
			c0,3.5-0.4,6.5-1.3,9c-1.1,3.1-2.6,5.5-4.5,7.4c-1.5,1.4-3.5,2.6-6,3.4c-1.9,0.6-4.4,0.9-7.5,0.9h-16V680.3L366.3,680.3z
			 M374.8,687.5v27.9h6.4c2.4,0,4.1-0.1,5.2-0.4c1.4-0.3,2.5-0.9,3.4-1.8c0.9-0.8,1.6-2.2,2.2-4.1c0.6-1.9,0.9-4.5,0.9-7.7
			c0-3.3-0.3-5.8-0.9-7.5c-0.6-1.7-1.4-3.1-2.4-4.1c-1-1-2.4-1.6-4-2c-1.2-0.3-3.5-0.4-7-0.4H374.8L374.8,687.5z"/>
		<path class="st6" d="M333.4,511.4l29.4-3.2H401l31.2,4.2c2.9,0.3,5.1,2.8,5.1,4.8c0,9.2,0,18.3,0,27.6c0,2-2.9,4.7-5.1,4.8
			l-31,3.4h-38.6l-29.2-2.9c-2.3-0.3-5.1-2.2-5.1-4.8v-29.1C328.3,513.6,330.5,511.7,333.4,511.4L333.4,511.4z"/>
		<path class="st7" d="M395.1,511.3l10.9,1.6c4.3,12.1,3.9,23,0,35.9l-10.9,1.5C397.8,537.3,398.1,524.8,395.1,511.3L395.1,511.3z"
			/>
		<polygon class="st7" points="349,515.4 355.6,517.5 355.6,544.4 349,546.7 349,515.4 		"/>
		<path class="st7" d="M332.2,523.4h-1.7c-0.5,0-0.9,0.2-0.9,0.5v13.9c0,0.2,0.4,0.5,0.9,0.5h1.7c0.5,0,0.9-0.2,0.9-0.5v-13.9
			C333.1,523.6,332.7,523.4,332.2,523.4L332.2,523.4z"/>
		<line class="st8" x1="359.5" y1="512.6" x2="390.9" y2="512.7"/>
		<line class="st8" x1="368.1" y1="530.5" x2="390.9" y2="530.6"/>
		<line class="st8" x1="359.5" y1="548.8" x2="390.9" y2="549"/>
		<line class="st8" x1="411.8" y1="514.4" x2="431.1" y2="517.1"/>
		<line class="st8" x1="411.8" y1="547.2" x2="431.1" y2="544.7"/>
		<path class="st9" d="M333.6,585.6l29.4-3.1h38.3l31.2,4c2.9,0.2,5.1,2.7,5.1,4.6c0,8.8,0,17.6,0,26.5c0,2-2.9,4.5-5.1,4.6l-31,3.3
			h-38.6l-29.2-2.8c-2.3-0.2-5.1-2.1-5.1-4.6v-28C328.5,587.7,330.7,585.8,333.6,585.6L333.6,585.6z"/>
		<path class="st10" d="M395.3,585.5l10.9,1.5c4.3,11.6,3.9,22,0,34.4l-10.9,1.4C398,610.4,398.2,598.4,395.3,585.5L395.3,585.5z"/>
		<polygon class="st10" points="349.1,589.4 355.8,591.4 355.8,617.2 349.1,619.4 349.1,589.4 		"/>
		<path class="st10" d="M332.4,597.1h-1.7c-0.5,0-0.9,0.2-0.9,0.4v13.3c0,0.2,0.4,0.4,0.9,0.4h1.7c0.5,0,0.9-0.2,0.9-0.4v-13.3
			C333.3,597.3,332.9,597.1,332.4,597.1L332.4,597.1z"/>
		<line class="st11" x1="359.7" y1="586.7" x2="391.1" y2="586.8"/>
		<line class="st11" x1="368.2" y1="603.9" x2="391.1" y2="604"/>
		<line class="st11" x1="359.7" y1="621.5" x2="391.1" y2="621.6"/>
		<line class="st11" x1="412" y1="588.4" x2="431.2" y2="591.1"/>
		<line class="st11" x1="412" y1="619.9" x2="431.2" y2="617.6"/>
	</g>
</g>
</svg>
