<?xml version="1.0" encoding="utf-8"?>
<!-- Generator: Adobe Illustrator 19.2.0, SVG Export Plug-In . SVG Version: 6.00 Build 0)  -->
<svg version="1.1" id="Livello_1" xmlns="http://www.w3.org/2000/svg" xmlns:xlink="http://www.w3.org/1999/xlink" x="0px" y="0px"
	 viewBox="0 0 960 960" style="enable-background:new 0 0 960 960;" xml:space="preserve">
<style type="text/css">
	.st0{fill:#FFFFFF;}
	.st1{fill-rule:evenodd;clip-rule:evenodd;fill:#CECFD1;}
	.st2{fill-rule:evenodd;clip-rule:evenodd;fill:#FFFFFF;}
	.st3{fill:none;stroke:#1A171B;stroke-width:1.061;stroke-miterlimit:2.6131;}
	.st4{fill:none;stroke:#1A171B;stroke-width:3.5366;stroke-miterlimit:2.6131;}
	.st5{fill-rule:evenodd;clip-rule:evenodd;fill:#1A171B;}
	.st6{fill-rule:evenodd;clip-rule:evenodd;fill:#009DDF;stroke:#1A171B;stroke-width:0.3537;stroke-miterlimit:2.6131;}
	.st7{fill-rule:evenodd;clip-rule:evenodd;fill:#FFFFFF;stroke:#1A171B;stroke-width:0.3537;stroke-miterlimit:2.6131;}
	.st8{fill:none;stroke:#1A171B;stroke-width:0.3537;stroke-miterlimit:2.6131;}
	.st9{fill-rule:evenodd;clip-rule:evenodd;fill:#E1001A;stroke:#070E0C;stroke-width:0.3537;stroke-miterlimit:2.6131;}
	.st10{fill-rule:evenodd;clip-rule:evenodd;fill:#FFFFFF;stroke:#070E0C;stroke-width:0.3537;stroke-miterlimit:2.6131;}
	.st11{fill:none;stroke:#070E0C;stroke-width:0.3537;stroke-miterlimit:2.6131;}
</style>
<polygon class="st0" points="914.2,329 45,329 45,292.9 623.9,292.9 623.7,229.9 880,229.9 880.2,292.9 914.2,292.9 "/>
<polygon class="st0" points="914.2,631.5 45,631.5 45,667.6 623.9,667.6 623.7,730.6 880,730.6 880.2,667.6 914.2,667.6 "/>
<g>
	<g>
		<path class="st1" d="M914.2,635.8V324.4h-32.7c-21.4,0-31.5-10.3-31.5-31.5v-63.2H654.5v63.2c0,21.2-10.1,31.5-31.5,31.5H45v311.4
			h577.9c21.4,0,32.8,10.3,32.8,31.5l0.2,63h194v-63c0-21.2,10.1-31.5,31.5-31.5H914.2L914.2,635.8z"/>
		<polygon class="st2" points="304.7,563.2 247.1,563.2 247.1,571.8 304.7,571.8 304.7,563.2 		"/>
		<polygon class="st2" points="203.8,563.2 146.2,563.2 146.2,571.8 203.8,571.8 203.8,563.2 		"/>
		<polygon class="st2" points="102.8,563.2 45.3,563.2 45.3,571.8 102.8,571.8 102.8,563.2 		"/>
		<polygon class="st2" points="654.6,490 347.9,490 347.9,498.6 654.6,498.6 654.6,490 		"/>
		<polygon class="st2" points="653.2,564.1 346.5,564.1 346.5,572.7 653.2,572.7 653.2,564.1 		"/>
		<polygon class="st2" points="654.6,475.1 45.2,475.1 45.2,483.8 654.6,483.8 654.6,475.1 		"/>
		<polygon class="st2" points="623.1,475.3 654.6,475.3 654.6,667.5 623.1,667.5 623.1,475.3 		"/>
		<path class="st3" d="M915,324.4h-33.6c-21.4,0-31.5-10.3-31.5-31.5v-63"/>
		<path class="st3" d="M915,635.8h-33.6c-21.4,0-31.5,10.3-31.5,31.5v63"/>
		<path class="st4" d="M45,667.3h577.9v63 M45,292.9h577.9v-63.2 M881.2,730.4v-63H915 M881.2,229.6v63.2H915"/>
		<path class="st3" d="M45,324.4h577.9c21.4,0,31.5-10.3,31.5-31.5v-63"/>
		<path class="st3" d="M46.4,635.8h577.9c21.4,0,31.5,10.3,31.5,31.5v63"/>
		<path class="st5" d="M581.6,462h-9.3l-3.7-9.6h-16.9l-3.5,9.6h-9l16.4-42.2h9L581.6,462L581.6,462z M565.9,445.4l-5.8-15.7
			l-5.7,15.7H565.9L565.9,445.4z"/>
		<polygon class="st5" points="551.9,722.8 551.9,681 560.4,681 560.4,715.7 581.6,715.7 581.6,722.8 551.9,722.8 		"/>
		<path class="st6" d="M502.1,511.4l29.4-3.2h38.3l31.2,4.2c2.9,0.3,5.1,2.8,5.1,4.8c0,9.2,0,18.3,0,27.6c0,2-2.9,4.7-5.1,4.8
			l-31,3.4h-38.6l-29.2-2.9c-2.3-0.3-5.1-2.2-5.1-4.8v-29.1C497.1,513.6,499.3,511.7,502.1,511.4L502.1,511.4z"/>
		<path class="st7" d="M563.8,511.3l10.9,1.6c4.3,12.1,3.9,23,0,35.9l-10.9,1.5C566.5,537.3,566.8,524.8,563.8,511.3L563.8,511.3z"
			/>
		<polygon class="st7" points="517.7,515.4 524.3,517.5 524.3,544.4 517.7,546.7 517.7,515.4 		"/>
		<path class="st7" d="M501,523.4h-1.7c-0.5,0-0.9,0.2-0.9,0.5v13.9c0,0.2,0.4,0.5,0.9,0.5h1.7c0.5,0,0.9-0.2,0.9-0.5v-13.9
			C501.9,523.6,501.5,523.4,501,523.4L501,523.4z"/>
		<line class="st8" x1="528.2" y1="512.6" x2="559.7" y2="512.7"/>
		<line class="st8" x1="536.8" y1="530.5" x2="559.7" y2="530.6"/>
		<line class="st8" x1="528.2" y1="548.8" x2="559.7" y2="549"/>
		<line class="st8" x1="580.6" y1="514.4" x2="599.8" y2="517.1"/>
		<line class="st8" x1="580.6" y1="547.2" x2="599.8" y2="544.7"/>
		<path class="st9" d="M502.3,585.6l29.4-3.1H570l31.2,4c2.9,0.2,5.1,2.7,5.1,4.6c0,8.8,0,17.6,0,26.5c0,2-2.9,4.5-5.1,4.6l-31,3.3
			h-38.6l-29.2-2.8c-2.3-0.2-5.1-2.1-5.1-4.6v-28C497.2,587.7,499.4,585.8,502.3,585.6L502.3,585.6z"/>
		<path class="st10" d="M564,585.5l10.9,1.5c4.3,11.6,3.9,22,0,34.4l-10.9,1.4C566.7,610.4,567,598.4,564,585.5L564,585.5z"/>
		<polygon class="st10" points="517.9,589.4 524.5,591.4 524.5,617.2 517.9,619.4 517.9,589.4 		"/>
		<path class="st10" d="M501.1,597.1h-1.7c-0.5,0-0.9,0.2-0.9,0.4v13.3c0,0.2,0.4,0.4,0.9,0.4h1.7c0.5,0,0.9-0.2,0.9-0.4v-13.3
			C502,597.3,501.6,597.1,501.1,597.1L501.1,597.1z"/>
		<line class="st11" x1="528.4" y1="586.7" x2="559.8" y2="586.8"/>
		<line class="st11" x1="537" y1="603.9" x2="559.8" y2="604"/>
		<line class="st11" x1="528.4" y1="621.5" x2="559.8" y2="621.6"/>
		<line class="st11" x1="580.8" y1="588.4" x2="600" y2="591.1"/>
		<line class="st11" x1="580.8" y1="619.9" x2="600" y2="617.6"/>
	</g>
</g>
</svg>
