<?xml version="1.0" encoding="utf-8"?>
<!-- Generator: Adobe Illustrator 19.2.0, SVG Export Plug-In . SVG Version: 6.00 Build 0)  -->
<svg version="1.1" id="Livello_1" xmlns="http://www.w3.org/2000/svg" xmlns:xlink="http://www.w3.org/1999/xlink" x="0px" y="0px"
	 viewBox="0 0 960 960" style="enable-background:new 0 0 960 960;" xml:space="preserve">
<style type="text/css">
	.st0{fill:#FFFFFF;}
	.st1{fill:none;stroke:#1A171B;stroke-width:1.061;stroke-miterlimit:2.6131;}
	.st2{fill-rule:evenodd;clip-rule:evenodd;fill:#CECFD1;}
	.st3{fill:none;stroke:#1A171B;stroke-width:3.5366;stroke-miterlimit:2.6131;}
	.st4{fill-rule:evenodd;clip-rule:evenodd;fill:#FFFFFF;}
	.st5{fill-rule:evenodd;clip-rule:evenodd;fill:#009DDF;stroke:#1A171B;stroke-width:0.3537;stroke-miterlimit:2.6131;}
	.st6{fill-rule:evenodd;clip-rule:evenodd;fill:#FFFFFF;stroke:#1A171B;stroke-width:0.3537;stroke-miterlimit:2.6131;}
	.st7{fill:none;stroke:#1A171B;stroke-width:0.3537;stroke-miterlimit:2.6131;}
	.st8{fill-rule:evenodd;clip-rule:evenodd;fill:#E1001A;stroke:#070E0C;stroke-width:0.3537;stroke-miterlimit:2.6131;}
	.st9{fill-rule:evenodd;clip-rule:evenodd;fill:#FFFFFF;stroke:#070E0C;stroke-width:0.3537;stroke-miterlimit:2.6131;}
	.st10{fill:none;stroke:#070E0C;stroke-width:0.3537;stroke-miterlimit:2.6131;}
	.st11{fill-rule:evenodd;clip-rule:evenodd;fill:#1A171B;}
</style>
<polygon class="st0" points="914.2,329 45,329 45,292.9 623.9,292.9 623.7,229.9 880,229.9 880.2,292.9 914.2,292.9 "/>
<polygon class="st0" points="914.2,631.5 45,631.5 45,667.6 623.9,667.6 623.7,730.6 880,730.6 880.2,667.6 914.2,667.6 "/>
<g>
	<g>
		<path class="st1" d="M915,324.4h-33.6c-21.4,0-31.5-10.3-31.5-31.5v-63"/>
		<path class="st1" d="M915,635.8h-33.6c-21.4,0-31.5,10.3-31.5,31.5v63"/>
		<path class="st2" d="M914.2,635.8V324.4h-32.7c-21.4,0-31.5-10.3-31.5-31.5v-63.2H654.5v63.2c0,21.2-10.1,31.5-31.5,31.5H45v311.4
			h577.9c21.4,0,31.5,10.3,31.5,31.5l0.2,63h195.3v-63c0-21.2,10.1-31.5,31.5-31.5H914.2L914.2,635.8z"/>
		<path class="st3" d="M45,667.3h577.9v63 M45,292.9h577.9v-63.2 M881.2,730.4v-63H915 M881.2,229.6v63.2H915"/>
		<path class="st1" d="M45,324.4h577.9c21.4,0,31.5-10.3,31.5-31.5v-63"/>
		<polygon class="st4" points="654.5,587.4 347.8,587.4 347.8,596.1 654.5,596.1 654.5,587.4 		"/>
		<polygon class="st4" points="304.5,587.4 246.9,587.4 246.9,596.1 304.5,596.1 304.5,587.4 		"/>
		<polygon class="st4" points="203.6,587.4 146,587.4 146,596.1 203.6,596.1 203.6,587.4 		"/>
		<polygon class="st4" points="102.7,587.4 45.1,587.4 45.1,596.1 102.7,596.1 102.7,587.4 		"/>
		<polygon class="st4" points="654.5,538.4 347.8,538.4 347.8,547 654.5,547 654.5,538.4 		"/>
		<polygon class="st4" points="304.5,538.4 246.9,538.4 246.9,547 304.5,547 304.5,538.4 		"/>
		<polygon class="st4" points="203.6,538.4 146,538.4 146,547 203.6,547 203.6,538.4 		"/>
		<polygon class="st4" points="102.7,538.4 45.1,538.4 45.1,547 102.7,547 102.7,538.4 		"/>
		<polygon class="st4" points="654.5,489.8 347.8,489.8 347.8,498.4 654.5,498.4 654.5,489.8 		"/>
		<polygon class="st4" points="654.5,475 45,475 45,483.6 654.5,483.6 654.5,475 		"/>
		<polygon class="st4" points="622.9,475.2 654.5,475.2 654.5,663.5 622.9,663.5 622.9,475.2 		"/>
		<path class="st1" d="M45,635.8h577.9c21.4,0,31.5,10.3,31.5,31.5v63"/>
		<polygon class="st4" points="488.4,530.4 569.4,530.4 583.2,515.8 599.6,515.8 571.6,506.1 543.6,515.8 559.9,515.8 550.9,524.9 
			488.4,524.7 488.4,530.4 		"/>
		<polygon class="st4" points="209,530.4 290.1,530.4 303.9,515.8 320.2,515.8 292.3,506.1 264.2,515.8 280.5,515.8 271.6,524.9 
			209,524.7 209,530.4 		"/>
		<polygon class="st4" points="349.1,530.4 430.2,530.4 444,515.8 460.3,515.8 432.4,506.1 404.3,515.8 420.6,515.8 411.7,524.9 
			349.1,524.7 349.1,530.4 		"/>
		<polygon class="st4" points="69.8,530.4 150.8,530.4 164.6,515.8 180.9,515.8 153,506.1 125,515.8 141.3,515.8 132.3,524.9 
			69.8,524.7 69.8,530.4 		"/>
		<polygon class="st4" points="489.2,579.7 570.2,579.7 584,565.1 600.3,565.1 572.4,555.4 544.4,565.1 560.7,565.1 551.7,574.2 
			489.2,574 489.2,579.7 		"/>
		<polygon class="st4" points="209.8,579.7 290.9,579.7 304.7,565.1 321,565.1 293.1,555.4 265,565.1 281.3,565.1 272.4,574.2 
			209.8,574 209.8,579.7 		"/>
		<polygon class="st4" points="349.9,579.7 431,579.7 444.8,565.1 461.1,565.1 433.2,555.4 405.1,565.1 421.4,565.1 412.5,574.2 
			349.9,574 349.9,579.7 		"/>
		<polygon class="st4" points="69.2,579.7 150.2,579.7 164,565.1 180.3,565.1 152.4,555.4 124.4,565.1 140.7,565.1 131.7,574.2 
			69.2,574 69.2,579.7 		"/>
		<polygon class="st4" points="488.4,607.2 517.6,607.2 555.7,607 555.7,599.8 599.6,610 555.8,619.9 555.8,612.7 522.7,612.7 
			531.3,621.8 547.7,621.8 519.7,631.5 491.7,621.8 508,621.8 498.6,612.7 488.4,612.8 488.4,607.2 		"/>
		<polygon class="st4" points="209,607.2 238.2,607.2 276.3,607 276.3,599.8 320.2,610 276.5,619.9 276.5,612.7 243.4,612.7 
			252,621.8 268.3,621.8 240.4,631.5 212.3,621.8 228.6,621.8 219.2,612.7 209,612.8 209,607.2 		"/>
		<polygon class="st4" points="349.1,607.2 378.3,607.2 416.4,607 416.4,599.8 460.3,610 416.5,619.9 416.5,612.7 383.5,612.7 
			392.1,621.8 408.4,621.8 380.5,631.5 352.4,621.8 368.7,621.8 359.3,612.7 349.1,612.8 349.1,607.2 		"/>
		<polygon class="st4" points="69.8,607.2 98.9,607.2 137,607 137,599.8 180.9,610 137.2,619.9 137.2,612.7 104.1,612.7 
			112.7,621.8 129,621.8 101.1,631.5 73.1,621.8 89.4,621.8 80,612.7 69.8,612.8 69.8,607.2 		"/>
		<path class="st5" d="M352,503.1l24-2.5h31.4l25.5,3.3c2.3,0.2,4.1,2.2,4.1,3.8c0,7.2,0,14.4,0,21.7c0,1.6-2.3,3.7-4.1,3.8
			l-25.4,2.7h-31.6l-23.9-2.3c-1.9-0.2-4.1-1.7-4.1-3.8v-22.9C347.8,504.8,349.6,503.3,352,503.1L352,503.1z"/>
		<path class="st6" d="M402.5,503l8.9,1.2c3.5,9.5,3.2,18,0,28.2l-8.9,1.1C404.7,523.4,404.9,513.5,402.5,503L402.5,503z"/>
		<polygon class="st6" points="364.7,506.2 370.2,507.9 370.2,529 364.7,530.8 364.7,506.2 		"/>
		<path class="st6" d="M351,512.5h-1.4c-0.4,0-0.7,0.2-0.7,0.4v10.9c0,0.2,0.3,0.4,0.7,0.4h1.4c0.4,0,0.7-0.2,0.7-0.4v-10.9
			C351.8,512.6,351.4,512.5,351,512.5L351,512.5z"/>
		<line class="st7" x1="373.4" y1="504" x2="399.1" y2="504.1"/>
		<line class="st7" x1="380.4" y1="518.1" x2="399.1" y2="518.2"/>
		<line class="st7" x1="373.4" y1="532.4" x2="399.1" y2="532.6"/>
		<line class="st7" x1="416.2" y1="505.4" x2="432" y2="507.6"/>
		<line class="st7" x1="416.2" y1="531.1" x2="432" y2="529.2"/>
		<path class="st8" d="M351.7,552.3l24-2.5h31.4l25.5,3.3c2.3,0.2,4.1,2.2,4.1,3.8c0,7.2,0,14.4,0,21.7c0,1.6-2.3,3.7-4.1,3.8
			l-25.4,2.7h-31.6l-23.9-2.3c-1.9-0.2-4.1-1.7-4.1-3.8v-22.9C347.6,554,349.4,552.5,351.7,552.3L351.7,552.3z"/>
		<path class="st9" d="M402.2,552.2l8.9,1.2c3.5,9.5,3.2,18,0,28.2l-8.9,1.1C404.4,572.6,404.7,562.8,402.2,552.2L402.2,552.2z"/>
		<polygon class="st9" points="364.5,555.4 369.9,557.1 369.9,578.2 364.5,580 364.5,555.4 		"/>
		<path class="st9" d="M350.7,561.7h-1.4c-0.4,0-0.7,0.2-0.7,0.4v10.9c0,0.2,0.3,0.4,0.7,0.4h1.4c0.4,0,0.7-0.2,0.7-0.4V562
			C351.5,561.8,351.2,561.7,350.7,561.7L350.7,561.7z"/>
		<line class="st10" x1="373.1" y1="553.2" x2="398.8" y2="553.3"/>
		<line class="st10" x1="380.1" y1="567.3" x2="398.8" y2="567.4"/>
		<line class="st10" x1="373.1" y1="581.7" x2="398.8" y2="581.8"/>
		<line class="st10" x1="415.9" y1="554.6" x2="431.7" y2="556.8"/>
		<line class="st10" x1="415.9" y1="580.4" x2="431.7" y2="578.5"/>
		<polygon class="st11" points="379,466.4 379,424.2 387.5,424.2 387.5,440.8 404.2,440.8 404.2,424.2 412.7,424.2 412.7,466.4 
			404.2,466.4 404.2,447.9 387.5,447.9 387.5,466.4 379,466.4 		"/>
		<polygon class="st11" points="379.5,719.4 379.5,677.2 387.8,677.2 405,705.4 405,677.2 413,677.2 413,719.4 404.4,719.4 
			387.4,691.9 387.4,719.4 379.5,719.4 		"/>
	</g>
</g>
</svg>
