<?xml version="1.0" encoding="utf-8"?>
<!-- Generator: Adobe Illustrator 19.2.0, SVG Export Plug-In . SVG Version: 6.00 Build 0)  -->
<svg version="1.1" id="Livello_1" xmlns="http://www.w3.org/2000/svg" xmlns:xlink="http://www.w3.org/1999/xlink" x="0px" y="0px"
	 viewBox="0 0 960 960" style="enable-background:new 0 0 960 960;" xml:space="preserve">
<style type="text/css">
	.st0{fill:none;stroke:#1A171B;stroke-width:4.6572;stroke-linecap:square;stroke-miterlimit:2.6131;}
	.st1{fill-rule:evenodd;clip-rule:evenodd;fill:#3D3D3F;stroke:#1A171B;stroke-width:1.3972;stroke-miterlimit:2.6131;}
	.st2{fill-rule:evenodd;clip-rule:evenodd;fill:#FFFFFF;stroke:#1A171B;stroke-width:1.3972;stroke-miterlimit:2.6131;}
	.st3{fill-rule:evenodd;clip-rule:evenodd;fill:#E1001A;}
	.st4{fill-rule:evenodd;clip-rule:evenodd;fill:#FFFFFF;stroke:#FFFFFF;stroke-width:1.3972;stroke-miterlimit:2.6131;}
	.st5{fill-rule:evenodd;clip-rule:evenodd;fill:#FFFFFF;}
	.st6{fill-rule:evenodd;clip-rule:evenodd;fill:#CECFD1;}
	.st7{fill:none;stroke:#1A171B;stroke-width:4.6572;stroke-miterlimit:2.6131;}
	.st8{fill-rule:evenodd;clip-rule:evenodd;fill:#1A171B;stroke:#1A171B;stroke-width:1.3972;stroke-miterlimit:2.6131;}
	.st9{fill:none;stroke:#FFFFFF;stroke-width:1.8629;stroke-miterlimit:2.6131;}
	.st10{fill:none;stroke:#1A171B;stroke-width:1.3972;stroke-miterlimit:2.6131;}
	
		.st11{fill:none;stroke:#1A171B;stroke-width:4.6572;stroke-linecap:square;stroke-miterlimit:2.6131;stroke-dasharray:23.286,23.286;}
	.st12{fill-rule:evenodd;clip-rule:evenodd;fill:#1A171B;}
</style>
<g>
	<g>
		<path class="st0" d="M152.7,615c1.4-17.8,13.9-31,32.8-32.1"/>
		<polygon class="st1" points="208.5,583.8 184.7,577.1 184.7,590.4 208.5,583.8 		"/>
		<path class="st2" d="M156.2,631.2c14.7,2.6,24.2,8,33.2,20c5.1,8.2,7.5,15.9,7.8,25.5c-0.7,19.2-10.6,33.9-27.9,42
			c-19.6,8.1-39.2,2.5-53.1-13c-8.7-11.4-12-24-9.5-38.3c3-11,7.2-18.3,15.7-26c9-6.7,17.6-10.1,29-10.4L156.2,631.2L156.2,631.2z"
			/>
		<path class="st3" d="M151.7,633.6c23.7,0,43,19.3,43,43c0,23.7-19.3,43-43,43c-23.7,0-43-19.3-43-43
			C108.7,652.9,128,633.6,151.7,633.6L151.7,633.6z"/>
		<path class="st3" d="M151.7,644.6c17.6,0,32,14.4,32,32c0,17.6-14.4,32-32,32c-17.6,0-32-14.4-32-32
			C119.7,659,134.1,644.6,151.7,644.6L151.7,644.6z"/>
		<path class="st4" d="M113.2,665.8h76.5c0.2,0,0.4,0.2,0.4,0.5v19.4c0,0.3-0.2,0.5-0.4,0.5h-76.5c-0.2,0-0.4-0.2-0.4-0.5v-19.4
			C112.8,666,112.9,665.8,113.2,665.8L113.2,665.8z"/>
		<polygon class="st5" points="684.7,802.9 273.2,802.9 273.2,555.8 45.5,555.8 45.5,274.8 914,274.8 914,555.8 684.7,555.8 
			684.7,802.9 		"/>
		<polygon class="st5" points="684.3,157.1 272.7,157.1 272.7,238.6 45,238.6 45,519.6 913.6,519.6 913.6,238.6 684.3,238.6 
			684.3,157.1 		"/>
		<path class="st6" d="M662.2,802.9l-365.2,0V565.8c-1.7-21-13-31.5-42.2-32H46.4V296.5H915v237.3H705.3c-29,0-43.5,9.8-43.7,32
			L662.2,802.9L662.2,802.9z"/>
		<path class="st6" d="M662.2,157.1H297v71.4c-1.7,21-13,31.5-42.2,32H46.4v237.3H915V260.4H705.3c-29,0-43.5-9.8-43.7-32
			L662.2,157.1L662.2,157.1z"/>
		<path class="st7" d="M273.4,802.9V555.8H45.5 M914,555.8H684.1v247.1"/>
		<path class="st7" d="M273.4,157.1v81.4H45.5 M914,238.5H684.1v-81.4"/>
		<path class="st8" d="M509.4,722.6c-1.9-12.9-4.6-30.6-4.8-49.5c0-15.1,0-30.2,0-45.5c1.4-19.9,0.8-35.8,5.6-51
			c0.8-3,5-10.1,10.2-10.1h38.5c6.2,0,7.9,7.9,8.5,10.1c3.7,15.3,5.2,31.2,5.2,50.8v45.9c0,17.9-1.9,35.8-4.4,49.3
			c-0.8,3.8-1.5,10.3-9.6,10.3h-38.9C509,732.9,510.1,727.9,509.4,722.6L509.4,722.6z"/>
		<path class="st2" d="M514.2,630.8l-2.6-16.7c18.4-6.6,34.7-6,54.3,0l-2.4,16.7C543.9,626.6,534.5,626.2,514.2,630.8L514.2,630.8z"
			/>
		<path class="st2" d="M515.1,701.5l3.5-10.3c13.9,2.6,27.3,2.6,40.4,0.2l3.7,10.1C547.3,704.3,530.9,703.9,515.1,701.5L515.1,701.5
			z"/>
		<line class="st9" x1="511.1" y1="685.2" x2="511.3" y2="637.2"/>
		<line class="st9" x1="565.9" y1="685.2" x2="566.1" y2="637.2"/>
		<path class="st5" d="M473.6,533.6l220.8,0.1c-14.5,0-27.5,9.5-31.9,22.5H484.2v246.7h-10.6V533.6L473.6,533.6z"/>
		<path class="st5" d="M484.6,533.6l-220.8,0.1c14.5,0,27.5,9.5,31.9,22.5h178.3v246.7h10.6V533.6L484.6,533.6z"/>
		<path class="st10" d="M295.9,802.9l0.4-237.1c0-22-14.9-32-44.3-32H45.7 M914,533.8H704.4c-29.1,0-42.5,9.7-42.6,32l-0.1,237.1"/>
		<path class="st10" d="M295.5,157.1l0.8,71.4c0,22-14.9,32-44.3,32H45.7 M914,260.4H704.4c-29.1,0-42.5-9.7-42.6-32l-0.1-71.4"/>
		<path class="st11" d="M534.8,547.5c-20.6-130-116.7-224.1-257.5-232.3"/>
		<polygon class="st1" points="236.4,315.9 273.1,307.5 273.1,324.4 236.4,315.9 		"/>
		<polygon class="st12" points="223.9,578.4 296.5,578.4 296.5,586.1 223.9,586.1 223.9,578.4 		"/>
		<polygon class="st12" points="253.6,579.8 266.8,579.8 266.8,593.1 253.6,593.1 253.6,579.8 		"/>
	</g>
</g>
</svg>
