<?xml version="1.0" encoding="utf-8"?>
<!-- Generator: Adobe Illustrator 19.2.0, SVG Export Plug-In . SVG Version: 6.00 Build 0)  -->
<svg version="1.1" id="Livello_1" xmlns="http://www.w3.org/2000/svg" xmlns:xlink="http://www.w3.org/1999/xlink" x="0px" y="0px"
	 viewBox="0 0 960 960" style="enable-background:new 0 0 960 960;" xml:space="preserve">
<style type="text/css">
	.st0{fill-rule:evenodd;clip-rule:evenodd;fill:#FFFFFF;}
	.st1{fill-rule:evenodd;clip-rule:evenodd;fill:#CECFD1;}
	.st2{fill:none;stroke:#1A171B;stroke-width:1.4036;stroke-miterlimit:2.6131;}
	.st3{fill:none;stroke:#1A171B;stroke-width:4.6787;stroke-miterlimit:2.6131;}
	.st4{fill-rule:evenodd;clip-rule:evenodd;fill:#FFEC00;stroke:#1A171B;stroke-width:1.4036;stroke-miterlimit:2.6131;}
	.st5{fill-rule:evenodd;clip-rule:evenodd;fill:#FFFFFF;stroke:#1A171B;stroke-width:1.4036;stroke-miterlimit:2.6131;}
	.st6{fill:none;stroke:#1A171B;stroke-width:1.8715;stroke-miterlimit:2.6131;}
	.st7{fill-rule:evenodd;clip-rule:evenodd;fill:#00A6E2;stroke:#1A171B;stroke-width:1.4036;stroke-miterlimit:2.6131;}
	.st8{fill-rule:evenodd;clip-rule:evenodd;fill:#1A171B;}
</style>
<rect x="45.2" y="183.4" class="st0" width="869.8" height="24.4"/>
<path class="st0" d="M809.4,776.4H488.9L342.1,523c-16.7-26-16.9-36.6-51.3-38.3l-245.5,0.2v-25.4H915v25.4l-230.2-0.2
	c-5.8,3.3-10.3,12.9,2.4,34.5l149.2,257.3H809.4z"/>
<g>
	<g>
		<path class="st1" d="M809.4,776.3H515L356.2,500c-16.7-25.9-30.9-36.6-65.3-38.3l-245.4,0.2V206.5H915v255.4l-230.2-0.2
			c-25.4,2.4-40.3,30.9-27.6,52.4L809.4,776.3L809.4,776.3z"/>
		<path class="st2" d="M514.5,776.1L355.7,499.7c-16.7-25.9-30.9-36.6-65.3-38.3L45,461.6 M45,206.3h869.5 M914.5,461.6l-230.2-0.2
			c-25.4,2.4-40.3,30.9-27.6,52.4l152.2,262.2"/>
		<line class="st3" x1="45.3" y1="183.7" x2="915" y2="183.7"/>
		<path class="st3" d="M915,484.7H690.2c-8.8,0-15.1,10.1-11.4,19.5l157.1,272.1"/>
		<path class="st3" d="M488.5,776.3L342.6,522.8c-17.7-27.2-24.1-38.3-64-38.1H45.3"/>
		<polygon class="st0" points="45.3,327.4 915,327.4 915,339.2 249.3,339.2 45.3,339.2 45.3,327.4 		"/>
		<path class="st0" d="M668.6,776.1H655L455.4,429.9c-49.9-73.6-120.3-90.7-194.7-90.7l18.8-10.3c69.5,0,138.2,22.8,185.3,93.8
			L668.6,776.1L668.6,776.1z"/>
		<path class="st0" d="M704.5,328.9l7.5,10.3c-82.4,0-128.1,14-161.7,51.9c-33.7,37.9-46.5,82.2-0.4,180.9l-6.4,9.4
			c-53.5-107.1-38.1-150.9-1.8-196.5C577.9,339.2,645.5,328.9,704.5,328.9L704.5,328.9z"/>
		<polygon class="st0" points="445.8,405.9 508,331.8 543.5,332.7 463.1,428.6 445.8,405.9 		"/>
		<polygon class="st0" points="478.2,453.4 580.5,331.6 646.8,328.9 603.3,347.6 574.6,361.6 544.6,389.9 525,420.7 514.8,453.2 
			521.5,535.5 478.2,453.4 		"/>
		<polygon class="st0" points="416,378.2 404.6,369.1 436.8,330.9 471.4,332.7 427.1,385.7 416,378.2 		"/>
		<polygon class="st0" points="361.4,349.6 325.5,339.2 361.8,332.5 397.5,333.5 380,354.2 361.4,349.6 		"/>
		<path class="st4" d="M817.6,305.5c-13.4,2-31.7,4.8-51.2,5c-15.6,0-31.3,0-47.1,0c-20.6-1.4-37-0.8-52.9-5.8
			c-3.1-0.8-10.5-5.2-10.5-10.6v-39.9c0-6.4,8.2-8.2,10.5-8.8c15.8-3.8,32.3-5.4,52.7-5.4h47.5c18.5,0,37,2,51,4.6
			c3.9,0.8,10.7,1.6,10.7,10v40.3C828.3,305.9,823.2,304.7,817.6,305.5L817.6,305.5z"/>
		<path class="st5" d="M726.5,300.5l-17.3,2.7c-6.8-19-6.2-36,0-56.2l17.3,2.5C722.1,269.7,721.7,279.4,726.5,300.5L726.5,300.5z"/>
		<path class="st5" d="M799.7,299.5l-10.7-3.6c2.7-14.3,2.7-28.3,0.2-41.8l10.5-3.8C802.6,266.2,802.1,283.1,799.7,299.5
			L799.7,299.5z"/>
		<line class="st6" x1="782.8" y1="303.7" x2="733" y2="303.5"/>
		<line class="st6" x1="782.8" y1="246.9" x2="733" y2="246.7"/>
		<path class="st7" d="M124.1,370.5c13.4-2,31.7-4.8,51.2-5c15.6,0,31.3,0,47.1,0c20.6,1.4,37,0.8,52.9,5.8
			c3.1,0.8,10.5,5.2,10.5,10.6v39.9c0,6.4-8.2,8.2-10.5,8.8c-15.8,3.8-32.3,5.4-52.7,5.4h-47.5c-18.5,0-37-2-51-4.6
			c-3.9-0.8-10.7-1.6-10.7-10V381C113.4,370.1,118.6,371.2,124.1,370.5L124.1,370.5z"/>
		<path class="st5" d="M219.2,375.4l17.3-2.7c6.8,19,6.2,36,0,56.2l-17.3-2.5C223.5,406.2,223.9,396.5,219.2,375.4L219.2,375.4z"/>
		<path class="st5" d="M145.9,376.4l10.7,3.6c-2.7,14.3-2.7,28.3-0.2,41.8l-10.5,3.8C143.1,409.7,143.5,392.8,145.9,376.4
			L145.9,376.4z"/>
		<line class="st6" x1="162.8" y1="372.2" x2="212.6" y2="372.4"/>
		<line class="st6" x1="162.8" y1="429" x2="212.6" y2="429.2"/>
		<path class="st8" d="M733.2,364.8h22.2c4.4,0,7.7,0.2,9.9,0.6c2.2,0.4,4.1,1.1,5.8,2.3c1.7,1.2,3.1,2.7,4.3,4.6
			c1.1,1.9,1.7,4.1,1.7,6.5c0,2.6-0.7,5-2.1,7.2c-1.4,2.2-3.3,3.8-5.7,4.9c3.4,1,6,2.7,7.8,5c1.8,2.4,2.7,5.2,2.7,8.4
			c0,2.5-0.6,5-1.8,7.4c-1.2,2.4-2.8,4.3-4.8,5.7c-2,1.4-4.5,2.3-7.5,2.6c-1.9,0.2-6.4,0.3-13.5,0.4h-18.9V364.8L733.2,364.8z
			 M744.4,374.1v12.9h7.4c4.4,0,7.1-0.1,8.2-0.2c1.9-0.2,3.4-0.9,4.5-2c1.1-1.1,1.6-2.6,1.6-4.4c0-1.7-0.5-3.1-1.4-4.2
			c-1-1.1-2.4-1.7-4.2-1.9c-1.1-0.1-4.3-0.2-9.6-0.2H744.4L744.4,374.1z M744.4,396.2V411h10.4c4.1,0,6.6-0.1,7.7-0.3
			c1.7-0.3,3-1,4.1-2.2c1-1.2,1.6-2.8,1.6-4.7c0-1.7-0.4-3.1-1.2-4.2c-0.8-1.2-2-2-3.5-2.6c-1.5-0.5-4.9-0.8-10-0.8H744.4
			L744.4,396.2z"/>
		<path class="st8" d="M201.3,288.1l10.9,3.4c-1.7,6.1-4.4,10.6-8.3,13.5c-3.9,2.9-8.8,4.4-14.8,4.4c-7.4,0-13.5-2.5-18.2-7.6
			c-4.8-5.1-7.1-12-7.1-20.7c0-9.3,2.4-16.4,7.2-21.6c4.8-5.1,11.1-7.7,18.9-7.7c6.8,0,12.3,2,16.6,6c2.5,2.4,4.4,5.8,5.7,10.2
			l-11.1,2.7c-0.6-2.9-2-5.2-4.1-6.8c-2.1-1.7-4.6-2.5-7.6-2.5c-4.1,0-7.5,1.5-10,4.4c-2.6,3-3.8,7.7-3.8,14.4c0,7,1.3,12,3.8,15
			c2.5,3,5.8,4.5,9.9,4.5c3,0,5.6-0.9,7.7-2.8C198.8,295.2,200.4,292.2,201.3,288.1L201.3,288.1z"/>
	</g>
</g>
</svg>
