<?xml version="1.0" encoding="utf-8"?>
<!-- Generator: Adobe Illustrator 19.2.0, SVG Export Plug-In . SVG Version: 6.00 Build 0)  -->
<svg version="1.1" id="Livello_1" xmlns="http://www.w3.org/2000/svg" xmlns:xlink="http://www.w3.org/1999/xlink" x="0px" y="0px"
	 viewBox="0 0 960 960" style="enable-background:new 0 0 960 960;" xml:space="preserve">
<style type="text/css">
	.st0{fill-rule:evenodd;clip-rule:evenodd;fill:#FFFFFF;}
	.st1{fill-rule:evenodd;clip-rule:evenodd;fill:#CECFD1;}
	.st2{fill:none;stroke:#1A171B;stroke-width:1.4036;stroke-miterlimit:2.6131;}
	.st3{fill:none;stroke:#1A171B;stroke-width:4.6787;stroke-miterlimit:2.6131;}
	.st4{fill-rule:evenodd;clip-rule:evenodd;fill:#E43417;stroke:#1A171B;stroke-width:1.4036;stroke-miterlimit:2.6131;}
	.st5{fill-rule:evenodd;clip-rule:evenodd;fill:#FFFFFF;stroke:#1A171B;stroke-width:1.4036;stroke-miterlimit:2.6131;}
	.st6{fill:none;stroke:#1A171B;stroke-width:1.8715;stroke-miterlimit:2.6131;}
	.st7{fill-rule:evenodd;clip-rule:evenodd;fill:#FFEC00;stroke:#1A171B;stroke-width:1.4036;stroke-miterlimit:2.6131;}
	.st8{fill-rule:evenodd;clip-rule:evenodd;fill:#1A171B;}
</style>
<rect x="45.2" y="183.4" class="st0" width="869.8" height="24.4"/>
<path class="st0" d="M809.4,776.4H488.9L342.1,523c-16.7-26-16.9-36.6-51.3-38.3l-245.5,0.2v-25.4H915v25.4l-230.2-0.2
	c-5.8,3.3-10.3,12.9,2.4,34.5l149.2,257.3H809.4z"/>
<g>
	<g>
		<path class="st1" d="M809.4,776.3H515L356.2,500c-16.7-25.9-30.9-36.6-65.3-38.3l-245.4,0.2V206.5H915v255.4l-230.2-0.2
			c-25.4,2.4-40.3,30.9-27.6,52.4L809.4,776.3L809.4,776.3z"/>
		<path class="st2" d="M514.5,776.1L355.8,499.7c-16.7-25.9-30.9-36.6-65.3-38.3L45,461.6 M45,206.3h869.5 M914.5,461.6l-230.2-0.2
			c-25.4,2.4-40.3,30.9-27.6,52.4l152.2,262.2"/>
		<line class="st3" x1="45.3" y1="183.7" x2="915" y2="183.7"/>
		<path class="st3" d="M915,484.7H690.2c-8.8,0-15.1,10.1-11.4,19.5l157.1,272.1"/>
		<path class="st3" d="M488.5,776.3L342.6,522.8c-17.7-27.2-24.1-38.3-64-38.1H45.3"/>
		<polygon class="st0" points="45.3,327.4 915,327.4 915,339.2 249.3,339.2 45.3,339.2 45.3,327.4 		"/>
		<path class="st0" d="M668.6,776.1H655L455.4,429.9c-49.9-73.6-120.3-90.7-194.7-90.7l18.8-10.3c69.5,0,138.2,22.8,185.3,93.8
			L668.6,776.1L668.6,776.1z"/>
		<path class="st0" d="M704.5,328.9l7.5,10.3c-82.4,0-128.1,14-161.7,51.9c-33.7,37.9-46.5,82.2-0.4,180.9l-6.4,9.4
			c-53.5-107.1-38.1-150.9-1.8-196.5C577.9,339.2,645.5,328.9,704.5,328.9L704.5,328.9z"/>
		<polygon class="st0" points="445.8,405.9 508,331.8 543.5,332.7 463.1,428.6 445.8,405.9 		"/>
		<polygon class="st0" points="478.2,453.4 580.5,331.6 646.8,328.9 603.3,347.6 574.6,361.6 544.6,389.9 525,420.7 514.8,453.2 
			521.5,535.5 478.2,453.4 		"/>
		<polygon class="st0" points="416,378.2 404.6,369.1 436.8,330.9 471.4,332.7 427.1,385.7 416,378.2 		"/>
		<polygon class="st0" points="361.4,349.6 325.5,339.2 361.8,332.5 397.5,333.5 380,354.2 361.4,349.6 		"/>
		<path class="st4" d="M675.1,730.8c-8.4-10.6-20-25-29.9-41.9c-7.8-13.5-15.6-27.1-23.5-40.8c-9.1-18.5-17.8-32.5-21.4-48.7
			c-0.9-3.1-0.8-11.7,3.9-14.4l34.5-19.9c5.5-3.2,11.2,3,12.8,4.7c11.2,11.8,20.8,25.3,31,42.9l23.8,41.1
			c9.3,16,16.8,33.1,21.5,46.5c1.3,3.8,4,10.1-3.3,14.2l-34.9,20.1C680.1,740.3,678.6,735.2,675.1,730.8L675.1,730.8z"/>
		<path class="st5" d="M631.9,646l-11-13.6c13.1-15.4,28.1-23.3,48.7-28.1l6.5,16.2C656.4,626.9,647.8,631.4,631.9,646L631.9,646z"
			/>
		<path class="st5" d="M669.4,708.9l-2.2-11.1c13.8-4.9,25.8-11.8,36.3-20.7l8.5,7.2C699.7,694.8,684.8,702.9,669.4,708.9
			L669.4,708.9z"/>
		<line class="st6" x1="657.3" y1="696.4" x2="632.6" y2="653.2"/>
		<line class="st6" x1="706.5" y1="668" x2="681.8" y2="624.8"/>
		<path class="st7" d="M817.5,296.3c-13.4,2-31.7,4.8-51.2,5c-15.6,0-31.3,0-47.1,0c-20.6-1.4-37-0.8-52.9-5.8
			c-3.1-0.8-10.5-5.2-10.5-10.6v-39.9c0-6.4,8.2-8.2,10.5-8.8c15.8-3.8,32.3-5.4,52.7-5.4h47.5c18.5,0,37,2,51,4.6
			c3.9,0.8,10.7,1.6,10.7,10v40.3C828.2,296.7,823.1,295.5,817.5,296.3L817.5,296.3z"/>
		<path class="st5" d="M726.3,291.4l-17.3,2.7c-6.8-19-6.2-36,0-56.2l17.3,2.5C722,260.6,721.6,270.3,726.3,291.4L726.3,291.4z"/>
		<path class="st5" d="M799.6,290.4l-10.7-3.6c2.7-14.3,2.7-28.3,0.2-41.8l10.5-3.8C802.4,257.1,802,274,799.6,290.4L799.6,290.4z"
			/>
		<line class="st6" x1="782.7" y1="294.5" x2="732.9" y2="294.3"/>
		<line class="st6" x1="782.7" y1="237.7" x2="732.9" y2="237.5"/>
		<polygon class="st8" points="867.7,294.2 867.7,248 851.2,248 851.2,238.6 895.4,238.6 895.4,248 879,248 879,294.2 867.7,294.2 
					"/>
		<polygon class="st8" points="538.4,706.8 518.5,651.2 530.7,651.2 544.8,692.4 558.4,651.2 570.3,651.2 550.4,706.8 538.4,706.8 
					"/>
	</g>
</g>
</svg>
