<?xml version="1.0" encoding="utf-8"?>
<!-- Generator: Adobe Illustrator 19.2.0, SVG Export Plug-In . SVG Version: 6.00 Build 0)  -->
<svg version="1.1" id="Livello_1" xmlns="http://www.w3.org/2000/svg" xmlns:xlink="http://www.w3.org/1999/xlink" x="0px" y="0px"
	 viewBox="0 0 960 960" style="enable-background:new 0 0 960 960;" xml:space="preserve">
<style type="text/css">
	.st0{fill-rule:evenodd;clip-rule:evenodd;fill:#FFFFFF;}
	.st1{fill-rule:evenodd;clip-rule:evenodd;fill:#CECFD1;}
	.st2{fill:none;stroke:#1A171B;stroke-width:1.404;stroke-miterlimit:2.6131;}
	.st3{fill:none;stroke:#1A171B;stroke-width:4.68;stroke-miterlimit:2.6131;}
	.st4{fill-rule:evenodd;clip-rule:evenodd;fill:#E43417;stroke:#1A171B;stroke-width:1.404;stroke-miterlimit:2.6131;}
	.st5{fill-rule:evenodd;clip-rule:evenodd;fill:#FFFFFF;stroke:#1A171B;stroke-width:1.404;stroke-miterlimit:2.6131;}
	.st6{fill:none;stroke:#1A171B;stroke-width:1.872;stroke-miterlimit:2.6131;}
	.st7{fill-rule:evenodd;clip-rule:evenodd;fill:#FFEC00;stroke:#1A171B;stroke-width:1.404;stroke-miterlimit:2.6131;}
	.st8{fill-rule:evenodd;clip-rule:evenodd;fill:#3D3D3F;stroke:#1A171B;stroke-width:1.404;stroke-miterlimit:2.6131;}
	.st9{fill-rule:evenodd;clip-rule:evenodd;fill:#FFFFFF;stroke:#FFFFFF;stroke-width:1.404;stroke-miterlimit:2.6131;}
	.st10{fill:none;stroke:#FFFFFF;stroke-width:1.404;stroke-miterlimit:2.6131;}
	.st11{fill-rule:evenodd;clip-rule:evenodd;fill:#1A171B;}
</style>
<rect x="45.2" y="183.4" class="st0" width="869.8" height="24.4"/>
<path class="st0" d="M809.4,776.4H488.9L342.1,523c-16.7-26-16.9-36.6-51.3-38.3l-245.5,0.2v-25.4H915v25.4l-230.2-0.2
	c-5.8,3.3-10.3,12.9,2.4,34.5l149.2,257.3H809.4z"/>
<g>
	<g>
		<path class="st1" d="M809.4,776.4H514.9L356.1,500c-16.7-26-30.9-36.6-65.3-38.3l-245.5,0.2V206.4H915v255.4l-230.2-0.2
			c-25.4,2.4-40.3,30.9-27.6,52.5L809.4,776.4L809.4,776.4z"/>
		<path class="st2" d="M914.8,461.6l-230.2-0.2c-25.4,2.4-40.3,30.9-27.6,52.4l152.2,262.2 M514.7,776.1L355.8,499.7
			c-16.7-25.9-30.9-36.6-65.3-38.3H45 M45,206.2h869.8"/>
		<line class="st3" x1="45.1" y1="183.6" x2="915" y2="183.6"/>
		<path class="st3" d="M915,484.7H690.1c-8.8,0-15.1,10.1-11.4,19.5l157.2,272.2"/>
		<path class="st3" d="M488.4,776.4L342.5,522.8c-17.7-27.2-24.1-38.3-64-38.1H45.1"/>
		<path class="st0" d="M855.4,339.1v-11.8H915v11.8H855.4L855.4,339.1z M824.5,327.3v11.8h-59.1v-11.8H824.5L824.5,327.3z
			 M734.5,327.3v11.8h-59.1v-11.8H734.5L734.5,327.3z M644.5,327.3v11.8h-59.1v-11.8H644.5L644.5,327.3z M554.1,327.3v11.8h-58.7
			v-11.8H554.1L554.1,327.3z M464.1,327.3v11.8h-58.7v-11.8H464.1L464.1,327.3z M374.1,327.3v11.8H315v-11.8H374.1L374.1,327.3z
			 M284.1,327.3v11.8h-35H225v-11.8H284.1L284.1,327.3z M194.1,327.3v11.8h-59.1v-11.8H194.1L194.1,327.3z M104.1,327.3v11.8H45.1
			v-11.8H104.1L104.1,327.3z"/>
		<polygon class="st0" points="586.1,657.1 596.3,651.2 625.9,702.2 615.6,708.1 586.1,657.1 		"/>
		<polygon class="st0" points="541,579.1 551.2,573.2 580.8,624.2 570.5,630.1 541,579.1 		"/>
		<polygon class="st0" points="496.1,501.3 506.3,495.4 535.7,546.2 525.4,552.1 496.1,501.3 		"/>
		<path class="st0" d="M450.7,423.4l9.4-7.2c1.5,2.2,3.1,4.2,4.6,6.4l26.1,45.5l-10.3,5.9l-25.2-44.2
			C453.6,427.8,452.2,425.6,450.7,423.4L450.7,423.4z"/>
		<path class="st0" d="M372.8,346.1l-5.7,11c-16.7-6.8-34.2-11.2-52.1-14.2v-12C334.7,333.6,354.2,338.4,372.8,346.1L372.8,346.1z"
			/>
		<path class="st0" d="M394.7,371.1l5.7-11c14,8.6,27.4,19.3,39.9,32.2l-9.8,7.4C419.2,388.3,407.2,378.9,394.7,371.1L394.7,371.1z"
			/>
		<polygon class="st0" points="631,735 641.3,729.1 668.6,776.2 655,776.2 631,735 		"/>
		<path class="st0" d="M539.4,404.5l-9.2-5.9c3.1-4.6,6.6-9.2,10.3-13.8c7.9-10.1,17.7-18.6,28.5-25.4l5.7,9.9
			c-9,6.1-17.1,13.4-24.5,21.7C546.2,395.4,542.7,399.9,539.4,404.5L539.4,404.5z"/>
		<path class="st0" d="M521.2,485.8l-11.4,2.2c-3.9-24.7-1.3-44.5,5.7-62.2l9.6,6.3C519.9,447.1,518.2,464.6,521.2,485.8
			L521.2,485.8z"/>
		<path class="st0" d="M516.9,518.2l10.9-2c2.8,9,6.1,18.6,10.3,28.9l-9.2,5.3C523.9,539,520.1,528.3,516.9,518.2L516.9,518.2z"/>
		<path class="st0" d="M644.8,333l1.7,10.3c-16.7,2.6-31.5,6.3-44.5,11.4l-5.2-9.4C611.9,339.7,628.1,335.8,644.8,333L644.8,333z"/>
		<path class="st4" d="M673.5,733.8c-8.4-10.6-20-25-29.9-41.9c-7.8-13.5-15.6-27.1-23.6-40.8c-9.1-18.5-17.8-32.5-21.4-48.7
			c-0.9-3.1-0.8-11.7,3.9-14.4l34.5-19.9c5.5-3.2,11.2,3,12.8,4.7c11.2,11.8,20.8,25.3,31,42.9l23.8,41.2
			c9.3,16,16.8,33.1,21.5,46.5c1.3,3.8,4,10.1-3.3,14.3L688,737.8C678.5,743.3,676.9,738.2,673.5,733.8L673.5,733.8z"/>
		<path class="st5" d="M630.2,649l-11-13.6c13.1-15.4,28.1-23.3,48.7-28.1l6.5,16.2C654.8,629.9,646.1,634.4,630.2,649L630.2,649z"
			/>
		<path class="st5" d="M667.7,711.9l-2.2-11.1c13.8-4.9,25.8-11.8,36.4-20.8l8.5,7.2C698,697.8,683.1,705.9,667.7,711.9L667.7,711.9
			z"/>
		<line class="st6" x1="655.7" y1="699.4" x2="630.9" y2="656.2"/>
		<line class="st6" x1="704.9" y1="671" x2="680.1" y2="627.8"/>
		<path class="st7" d="M812.2,296.9c-13.4,2-31.7,4.8-51.2,5c-15.6,0-31.3,0-47.1,0c-20.6-1.4-37-0.8-52.9-5.8
			c-3.1-0.8-10.5-5.2-10.5-10.6v-39.9c0-6.4,8.2-8.2,10.5-8.8c15.8-3.8,32.3-5.4,52.7-5.4h47.5c18.5,0,37,2,51,4.6
			c3.9,0.8,10.7,1.6,10.7,10v40.3C822.9,297.3,817.8,296.1,812.2,296.9L812.2,296.9z"/>
		<path class="st5" d="M721,291.9l-17.3,2.7c-6.8-19-6.2-36,0-56.2l17.3,2.5C716.7,261.1,716.3,270.9,721,291.9L721,291.9z"/>
		<path class="st5" d="M794.2,290.9l-10.7-3.6c2.7-14.4,2.7-28.3,0.2-41.9l10.5-3.8C797.1,257.6,796.7,274.6,794.2,290.9
			L794.2,290.9z"/>
		<line class="st6" x1="777.4" y1="295.1" x2="727.6" y2="294.9"/>
		<line class="st6" x1="777.4" y1="238.3" x2="727.6" y2="238.1"/>
		<path class="st8" d="M108.8,371.3c13.4-2,31.7-4.8,51.2-5c15.6,0,31.3,0,47.1,0c20.6,1.4,37,0.8,52.9,5.8
			c3.1,0.8,10.5,5.2,10.5,10.6v39.9c0,6.4-8.2,8.2-10.5,8.8c-15.8,3.8-32.3,5.4-52.7,5.4h-47.5c-18.5,0-37-2-51-4.6
			c-3.9-0.8-10.7-1.6-10.7-10v-40.3C98.1,370.9,103.2,372.1,108.8,371.3L108.8,371.3z"/>
		<path class="st9" d="M203.8,376.3l17.3-2.7c6.8,19,6.2,36,0,56.2l-17.3-2.5C208.1,407.1,208.5,397.3,203.8,376.3L203.8,376.3z"/>
		<path class="st9" d="M130.6,377.3l10.7,3.6c-2.7,14.4-2.7,28.3-0.2,41.9l-10.5,3.8C127.7,410.6,128.1,393.6,130.6,377.3
			L130.6,377.3z"/>
		<line class="st10" x1="147.4" y1="373.1" x2="197.2" y2="373.3"/>
		<line class="st10" x1="147.4" y1="429.9" x2="197.2" y2="430.1"/>
		<path class="st11" d="M898.3,295.6h-12.2l-4.9-12.6H859l-4.6,12.6h-11.9l21.7-55.6h11.9L898.3,295.6L898.3,295.6z M877.7,273.6
			L870,253l-7.5,20.6H877.7L877.7,273.6z"/>
		<path class="st11" d="M532.2,661h22.2c4.4,0,7.7,0.2,9.9,0.6c2.2,0.4,4.1,1.1,5.8,2.3c1.7,1.2,3.1,2.7,4.3,4.7
			c1.1,1.9,1.7,4.1,1.7,6.5c0,2.6-0.7,5-2.1,7.2c-1.4,2.2-3.3,3.8-5.7,4.9c3.4,1,6,2.7,7.8,5c1.8,2.4,2.7,5.2,2.7,8.4
			c0,2.5-0.6,5-1.8,7.4c-1.2,2.4-2.8,4.3-4.8,5.7c-2,1.4-4.5,2.3-7.5,2.6c-1.9,0.2-6.4,0.3-13.5,0.4h-18.9V661L532.2,661z
			 M543.5,670.3v12.9h7.4c4.4,0,7.1-0.1,8.2-0.2c1.9-0.2,3.4-0.9,4.5-2c1.1-1.1,1.7-2.6,1.7-4.4c0-1.7-0.5-3.1-1.4-4.2
			c-1-1.1-2.4-1.7-4.2-1.9c-1.1-0.1-4.3-0.2-9.6-0.2H543.5L543.5,670.3z M543.5,692.4v14.9h10.4c4.1,0,6.6-0.1,7.7-0.3
			c1.7-0.3,3-1,4.1-2.2c1-1.2,1.6-2.8,1.6-4.7c0-1.7-0.4-3.1-1.2-4.2c-0.8-1.2-2-2-3.5-2.6c-1.5-0.5-4.9-0.8-10-0.8H543.5
			L543.5,692.4z"/>
		<path class="st11" d="M187.3,288.6l10.9,3.4c-1.7,6.1-4.4,10.6-8.3,13.5c-3.9,2.9-8.8,4.4-14.8,4.4c-7.4,0-13.5-2.5-18.2-7.6
			c-4.8-5.1-7.1-12-7.1-20.7c0-9.3,2.4-16.4,7.2-21.6c4.8-5.1,11.1-7.7,18.9-7.7c6.8,0,12.3,2,16.6,6c2.5,2.4,4.4,5.8,5.7,10.2
			l-11.1,2.7c-0.6-2.9-2-5.2-4.1-6.8c-2.1-1.7-4.6-2.5-7.6-2.5c-4.1,0-7.5,1.5-10,4.4c-2.6,3-3.8,7.7-3.8,14.4c0,7,1.3,12,3.8,15
			c2.5,3,5.8,4.5,9.9,4.5c3,0,5.6-0.9,7.7-2.9C184.8,295.7,186.4,292.7,187.3,288.6L187.3,288.6z"/>
	</g>
</g>
</svg>
