<?xml version="1.0" encoding="utf-8"?>
<!-- Generator: Adobe Illustrator 19.2.0, SVG Export Plug-In . SVG Version: 6.00 Build 0)  -->
<svg version="1.1" id="Livello_1" xmlns="http://www.w3.org/2000/svg" xmlns:xlink="http://www.w3.org/1999/xlink" x="0px" y="0px"
	 viewBox="0 0 960 960" style="enable-background:new 0 0 960 960;" xml:space="preserve">
<style type="text/css">
	.st0{fill-rule:evenodd;clip-rule:evenodd;fill:#FFFFFF;}
	.st1{fill-rule:evenodd;clip-rule:evenodd;fill:#CECFD1;}
	.st2{fill:none;stroke:#1A171B;stroke-width:4.9465;stroke-linecap:square;stroke-miterlimit:2.6131;}
	.st3{fill:none;stroke:#1A171B;stroke-width:1.484;stroke-linecap:square;stroke-miterlimit:2.6131;}
	.st4{fill-rule:evenodd;clip-rule:evenodd;fill:#1A171B;stroke:#1A171B;stroke-width:1.484;stroke-miterlimit:2.6131;}
	
		.st5{fill:none;stroke:#1A171B;stroke-width:4.9465;stroke-linecap:square;stroke-miterlimit:2.6131;stroke-dasharray:24.7325,24.7325;}
	.st6{fill-rule:evenodd;clip-rule:evenodd;fill:#3D3D3F;stroke:#1A171B;stroke-width:1.484;stroke-miterlimit:2.6131;}
	.st7{fill-rule:evenodd;clip-rule:evenodd;fill:#FFFFFF;stroke:#1A171B;stroke-width:1.484;stroke-miterlimit:2.6131;}
	.st8{fill:none;stroke:#FFFFFF;stroke-width:1.9786;stroke-miterlimit:2.6131;}
	.st9{fill-rule:evenodd;clip-rule:evenodd;fill:#E43417;stroke:#1A171B;stroke-width:1.484;stroke-miterlimit:2.6131;}
	.st10{fill:none;stroke:#1A171B;stroke-width:1.9786;stroke-miterlimit:2.6131;}
	.st11{fill-rule:evenodd;clip-rule:evenodd;fill:#1A171B;}
</style>
<g>
	<g>
		<polygon class="st0" points="287.1,284 45,284 45,675.5 287.1,675.5 287.1,789.5 672.4,789.5 672.4,675.5 914.9,675.5 914.9,284 
			672.4,284 672.4,170.5 287.1,170.5 287.1,284 		"/>
		<path class="st1" d="M314,274.8c0,27.6-8.3,37-35.7,36.9L45,311.6v336.2h233.3c26.8,0,35.7,9.2,35.7,36.8v104.9h330.9V684.7
			c0-27.6,9.8-36.8,36.4-36.8H915V311.6l-233.7,0.1c-27.5,0-36.4-9.6-36.4-36.9V170.5H314V274.8L314,274.8z"/>
		<path class="st2" d="M45,675.5h242.1v114.1 M672.3,789.5V675.5h242.5 M914.8,284H672.3V170.5 M287.1,170.5V284H45"/>
		<path class="st3" d="M314,170.5v104.3c0,27.6-8.3,37-35.7,36.9L45,311.6 M45,647.9h233.3c26.8,0,35.7,9.2,35.7,36.8v104.9
			 M644.9,789.5V684.7c0-27.6,9.8-36.8,36.4-36.8h233.6 M915,311.6l-233.7,0.1c-27.5,0-36.4-9.6-36.4-36.9V170.5"/>
		<path class="st0" d="M479.8,460.8c10.4,0,19,8.5,19,19c0,10.4-8.5,19-19,19c-10.4,0-19-8.5-19-19
			C460.9,469.3,469.4,460.8,479.8,460.8L479.8,460.8z"/>
		<polygon class="st4" points="279,387.1 324.4,392.2 317.7,411.3 279,387.1 		"/>
		<polygon class="st4" points="681.4,571.1 636,566 642.7,546.9 681.4,571.1 		"/>
		<path class="st5" d="M525.7,783c-7.1-199.7-93.2-323.5-199.9-381.1"/>
		<path class="st5" d="M434.7,175.2c1,199.7,93.2,323.5,199.9,381.1"/>
		<path class="st6" d="M244.6,415c-13.9,2.1-32.9,5-53.2,5.2c-16.2,0-32.5,0-48.9,0c-21.4-1.4-38.4-0.8-54.9-6
			c-3.2-0.8-10.9-5.4-10.9-11v-41.4c0-6.6,8.5-8.5,10.9-9.1c16.4-3.9,33.5-5.6,54.7-5.6h49.3c19.2,0,38.4,2.1,53,4.8
			c4.1,0.8,11.1,1.7,11.1,10.3v41.8C255.7,415.5,250.4,414.2,244.6,415L244.6,415z"/>
		<path class="st7" d="M145.9,409.9l-17.9,2.8c-7-19.7-6.4-37.3,0-58.4l17.9,2.6C141.5,377.9,141,388,145.9,409.9L145.9,409.9z"/>
		<path class="st7" d="M222,408.8l-11.1-3.7c2.8-14.9,2.8-29.4,0.2-43.5l10.9-3.9C224.9,374.3,224.5,391.9,222,408.8L222,408.8z"/>
		<line class="st8" x1="204.4" y1="413.2" x2="152.8" y2="413"/>
		<line class="st8" x1="204.4" y1="354.2" x2="152.8" y2="354"/>
		<path class="st9" d="M715.1,543.6c13.9-2.1,32.9-5,53.2-5.2c16.2,0,32.5,0,48.9,0c21.3,1.4,38.4,0.8,54.9,6
			c3.2,0.8,10.9,5.4,10.9,11v41.4c0,6.6-8.5,8.5-10.9,9.1c-16.4,3.9-33.5,5.6-54.7,5.6h-49.3c-19.2,0-38.4-2.1-53-4.8
			c-4.1-0.8-11.1-1.7-11.1-10.3v-41.8C704,543.2,709.4,544.4,715.1,543.6L715.1,543.6z"/>
		<path class="st7" d="M813.8,548.8l17.9-2.8c7,19.7,6.4,37.3,0,58.4l-17.9-2.6C818.3,580.7,818.7,570.6,813.8,548.8L813.8,548.8z"
			/>
		<path class="st7" d="M737.8,549.8l11.1,3.7c-2.8,14.9-2.8,29.4-0.2,43.4l-10.9,3.9C734.8,584.4,735.2,566.8,737.8,549.8
			L737.8,549.8z"/>
		<line class="st10" x1="755.3" y1="545.5" x2="806.9" y2="545.7"/>
		<line class="st10" x1="755.3" y1="604.4" x2="806.9" y2="604.6"/>
		<polygon class="st11" points="156.2,502.3 156.2,443.5 167.8,443.5 191.9,482.8 191.9,443.5 202.9,443.5 202.9,502.3 191,502.3 
			167.3,464 167.3,502.3 156.2,502.3 		"/>
		<path class="st11" d="M812.6,512.7h-12.9l-5.1-13.4H771l-4.9,13.4h-12.6l22.9-58.8h12.6L812.6,512.7L812.6,512.7z M790.7,489.5
			l-8.1-21.8l-7.9,21.8H790.7L790.7,489.5z"/>
	</g>
</g>
</svg>
