<?xml version="1.0" encoding="utf-8"?>
<!-- Generator: Adobe Illustrator 19.2.0, SVG Export Plug-In . SVG Version: 6.00 Build 0)  -->
<svg version="1.1" id="Livello_1" xmlns="http://www.w3.org/2000/svg" xmlns:xlink="http://www.w3.org/1999/xlink" x="0px" y="0px"
	 viewBox="0 0 960 960" style="enable-background:new 0 0 960 960;" xml:space="preserve">
<style type="text/css">
	.st0{fill-rule:evenodd;clip-rule:evenodd;fill:#FFFFFF;}
	.st1{fill:none;stroke:#1A171B;stroke-width:1.1196;stroke-linecap:square;stroke-miterlimit:2.6131;}
	.st2{fill:none;stroke:#1A171B;stroke-width:3.7321;stroke-linecap:square;stroke-miterlimit:2.6131;}
	.st3{fill-rule:evenodd;clip-rule:evenodd;fill:#CECFD1;}
	.st4{fill-rule:evenodd;clip-rule:evenodd;fill:#3D3D3F;stroke:#1A171B;stroke-width:1.1196;stroke-miterlimit:2.6131;}
	.st5{fill-rule:evenodd;clip-rule:evenodd;fill:#FFFFFF;stroke:#1A171B;stroke-width:1.1196;stroke-miterlimit:2.6131;}
	.st6{fill:none;stroke:#FFFFFF;stroke-width:1.4928;stroke-miterlimit:2.6131;}
	.st7{fill-rule:evenodd;clip-rule:evenodd;fill:#E43417;stroke:#1A171B;stroke-width:1.1196;stroke-miterlimit:2.6131;}
	.st8{fill:none;stroke:#1A171B;stroke-width:1.4928;stroke-miterlimit:2.6131;}
	
		.st9{fill:none;stroke:#1A171B;stroke-width:3.7321;stroke-linecap:square;stroke-miterlimit:2.6131;stroke-dasharray:18.6605,18.6605;}
	.st10{fill-rule:evenodd;clip-rule:evenodd;fill:#1A171B;}
	.st11{fill-rule:evenodd;clip-rule:evenodd;fill:#005EA7;}
</style>
<g>
	<g>
		<polygon class="st0" points="380.9,166 578.9,166 578.9,301.1 692.3,367 914.9,367 914.9,592.8 692.3,592.8 578.9,658.7 
			578.9,793.8 380.9,793.8 380.9,658.7 267.6,592.8 45,592.8 45,367 267.6,367 380.9,301.1 380.9,166 		"/>
		<path class="st1" d="M45,388.7h234.1l123.5-76.4V166 M557.3,166v146.2l123.6,76.4h234.1 M914.9,571.1H680.9l-123.6,76.4v146.2
			 M402.7,793.8V647.6l-123.5-76.4H45"/>
		<path class="st2" d="M578.9,166v135l113.4,66h222.6 M914.9,592.8H692.3l-113.4,66l0,135 M380.9,793.8v-135l-113.2-66H45 M45,367
			h222.6l113.2-66V166"/>
		<polygon class="st3" points="402.7,166 557.3,166 557.3,312.3 680.9,388.7 914.9,388.7 914.9,571.1 680.9,571.1 557.3,647.6 
			557.3,793.8 402.7,793.8 402.7,647.6 279.1,571.1 45,571.1 45,388.7 279.1,388.7 402.7,312.3 402.7,166 		"/>
		<path class="st4" d="M813.5,426.1c-8.9-1.3-21.1-3.2-34-3.3c-10.4,0-20.8,0-31.3,0c-13.7,0.9-24.6,0.5-35.1,3.8
			c-2.1,0.5-7,3.4-7,7v26.5c0,4.2,5.5,5.4,7,5.8c10.5,2.5,21.5,3.6,35,3.6h31.6c12.3,0,24.6-1.3,33.9-3c2.6-0.5,7.1-1.1,7.1-6.6
			v-26.8C820.6,425.8,817.2,426.6,813.5,426.1L813.5,426.1z"/>
		<path class="st5" d="M750.3,429.4l-11.5-1.8c-4.5,12.6-4.1,23.9,0,37.4l11.5-1.6C747.5,449.9,747.2,443.4,750.3,429.4L750.3,429.4
			z"/>
		<path class="st5" d="M799,430.1l-7.1,2.4c1.8,9.5,1.8,18.8,0.1,27.8l7,2.5C800.9,452.2,800.6,440.9,799,430.1L799,430.1z"/>
		<line class="st6" x1="787.8" y1="427.3" x2="754.7" y2="427.4"/>
		<line class="st6" x1="787.8" y1="465.1" x2="754.7" y2="465.2"/>
		<path class="st7" d="M491.1,774.1c-1.3-8.9-3.2-21.1-3.3-34c0-10.4,0-20.8,0-31.3c0.9-13.7,0.5-24.6,3.8-35.1c0.5-2.1,3.4-7,7-7
			h26.5c4.2,0,5.4,5.5,5.8,7c2.5,10.5,3.6,21.5,3.6,35v31.6c0,12.3-1.3,24.6-3,33.9c-0.5,2.6-1.1,7.1-6.6,7.1h-26.8
			C490.8,781.2,491.6,777.7,491.1,774.1L491.1,774.1z"/>
		<path class="st5" d="M494.4,710.9l-1.8-11.5c12.6-4.5,23.9-4.1,37.4,0l-1.6,11.5C514.9,708,508.4,707.8,494.4,710.9L494.4,710.9z"
			/>
		<path class="st5" d="M495.1,759.6l2.4-7.1c9.5,1.8,18.8,1.8,27.8,0.1l2.5,7C517.2,761.5,505.9,761.2,495.1,759.6L495.1,759.6z"/>
		<line class="st8" x1="492.3" y1="748.4" x2="492.4" y2="715.3"/>
		<line class="st8" x1="530" y1="748.4" x2="530.2" y2="715.3"/>
		<polygon class="st4" points="435.8,591.3 443.3,560.2 429.1,560.1 435.8,591.3 		"/>
		<path class="st9" d="M689.1,445.3l-131.8-0.3c-89.2-0.2-121.4-7.7-120.9,57l0.4,56.6"/>
		<polygon class="st4" points="262.2,446.8 293.3,454.3 293.5,440.1 262.2,446.8 		"/>
		<path class="st9" d="M507.9,652c1.2-121.4-93.9-205.3-192.1-205.3l-24.1,0"/>
		<polygon class="st0" points="402.7,297 483.5,297 483.5,312.3 402.7,312.3 402.7,297 		"/>
		<polygon class="st0" points="476.4,166 476.4,312.4 483.5,312.4 483.5,166 476.4,166 		"/>
		<polygon class="st0" points="263.8,571.1 263.8,477.9 279,477.9 279,571.1 263.8,571.1 		"/>
		<polygon class="st0" points="45,483.4 279.1,483.4 279.1,476.2 45,476.2 45,483.4 		"/>
		<polygon class="st0" points="696.2,388.7 696.2,482 681,482 681,388.7 696.2,388.7 		"/>
		<polygon class="st0" points="915,476.4 680.9,476.4 680.9,483.6 915,483.6 915,476.4 		"/>
		<polygon class="st0" points="557.3,663 476.4,663 476.4,647.7 557.3,647.7 557.3,663 		"/>
		<polygon class="st0" points="483.5,794 483.5,647.6 476.4,647.6 476.4,794 483.5,794 		"/>
		<path class="st0" d="M480.6,466.1c8.6,0,15.6,7,15.6,15.6c0,8.6-7,15.6-15.6,15.6c-8.6,0-15.6-7-15.6-15.6
			C465.1,473.1,472.1,466.1,480.6,466.1L480.6,466.1z"/>
		<polygon class="st10" points="700.7,302.9 793.2,302.9 793.2,308.2 700.7,308.2 700.7,302.9 		"/>
		<path class="st5" d="M706.5,270.3c11.3,2,18.7,6.2,25.6,15.5c3.9,6.3,5.8,12.2,6,19.7c-0.5,14.8-8.2,26.2-21.5,32.4
			c-15.1,6.2-30.2,1.9-41-10c-6.7-8.8-9.3-18.5-7.3-29.5c2.3-8.5,5.6-14.1,12.1-20c7-5.2,13.6-7.8,22.4-8.1L706.5,270.3L706.5,270.3
			z"/>
		<path class="st11" d="M703,272.1c18.3,0,33.2,14.9,33.2,33.2c0,18.3-14.9,33.2-33.2,33.2s-33.2-14.9-33.2-33.2
			C669.8,287,684.7,272.1,703,272.1L703,272.1z"/>
		<path class="st0" d="M716.2,296.1c-3.2-4.6-7.8-7.3-14-7.3l2.1,4.9c0.2,1.5-0.7,1.8-2,1.6l-18.2-3.8l14-14.7c0.9-1,1.9-1,2.6,0.2
			l-0.1,5.5c5.4-0.8,15.3,1.3,21,10.1L716.2,296.1L716.2,296.1z"/>
		<path class="st0" d="M687.7,298.2c-2.3,5.1-2.4,10.4,0.7,15.8l3-5.1c1.2-1,1.9-0.3,2.4,0.9l6,18.5l-19.7-4.7
			c-1.3-0.3-1.8-1.2-1.2-2.3l4.8-2.7c-3.4-4.3-6.5-13.9-1.8-23.3L687.7,298.2L687.7,298.2z"/>
		<path class="st0" d="M704,321.9c5.6-0.5,10.2-3.1,13.3-8.5l-5.5-0.2c-1.5-0.6-1.2-1.5-0.4-2.5l12.6-14.2l5.8,19.5
			c0.4,1.3-0.1,2.2-1.4,2.2l-4.7-2.9c-2,5.1-8.7,12.6-19.3,13.1L704,321.9L704,321.9z"/>
		<polygon class="st10" points="643.1,688 643.1,780.5 637.8,780.5 637.8,688 643.1,688 		"/>
		<path class="st5" d="M675.7,693.8c-2,11.3-6.2,18.7-15.5,25.6c-6.3,3.9-12.2,5.8-19.7,6c-14.8-0.5-26.2-8.2-32.4-21.5
			c-6.2-15.1-1.9-30.2,10-41c8.8-6.7,18.5-9.3,29.5-7.3c8.5,2.3,14.1,5.6,20,12.1c5.2,7,7.8,13.6,8.1,22.4L675.7,693.8L675.7,693.8z
			"/>
		<path class="st11" d="M673.9,690.3c0,18.3-14.9,33.2-33.2,33.2c-18.3,0-33.2-14.9-33.2-33.2c0-18.3,14.9-33.2,33.2-33.2
			C659,657.1,673.9,672,673.9,690.3L673.9,690.3z"/>
		<path class="st0" d="M649.9,703.5c4.6-3.2,7.3-7.8,7.3-14l-4.9,2.1c-1.5,0.2-1.8-0.7-1.6-2l3.8-18.2l14.8,14c1,0.9,1,1.9-0.2,2.6
			l-5.5-0.1c0.8,5.4-1.3,15.3-10.1,21L649.9,703.5L649.9,703.5z"/>
		<path class="st0" d="M647.7,675c-5.1-2.3-10.4-2.4-15.8,0.7l5.1,3c1,1.2,0.3,1.9-0.9,2.4l-18.5,6l4.7-19.8
			c0.3-1.3,1.2-1.8,2.3-1.2l2.7,4.8c4.3-3.4,13.8-6.5,23.2-1.8L647.7,675L647.7,675z"/>
		<path class="st0" d="M624.1,691.3c0.5,5.6,3.1,10.2,8.5,13.3l0.2-5.5c0.6-1.5,1.5-1.2,2.5-0.4l14.2,12.6l-19.5,5.8
			c-1.3,0.4-2.2-0.1-2.2-1.4l2.9-4.7c-5.1-2-12.6-8.7-13.1-19.3L624.1,691.3L624.1,691.3z"/>
		<polygon class="st10" points="757.1,533.7 757.1,496.2 764.7,496.2 764.7,511 779.6,511 779.6,496.2 787.1,496.2 787.1,533.7 
			779.6,533.7 779.6,517.3 764.7,517.3 764.7,533.7 757.1,533.7 		"/>
		<path class="st10" d="M433.8,732.7l7.4-0.7c0.4,2.5,1.3,4.3,2.7,5.5c1.4,1.2,3.2,1.7,5.5,1.7c2.4,0,4.3-0.5,5.5-1.6
			c1.2-1,1.9-2.2,1.9-3.6c0-0.9-0.3-1.6-0.8-2.3c-0.5-0.6-1.4-1.2-2.7-1.6c-0.9-0.3-2.9-0.9-6.1-1.6c-4.1-1-6.9-2.2-8.5-3.7
			c-2.3-2.1-3.5-4.6-3.5-7.5c0-1.9,0.5-3.7,1.6-5.4c1.1-1.7,2.6-2.9,4.7-3.8c2-0.9,4.5-1.3,7.4-1.3c4.7,0,8.2,1,10.6,3.1
			c2.4,2.1,3.6,4.8,3.7,8.3l-7.6,0.3c-0.3-1.9-1-3.3-2.1-4.2c-1.1-0.8-2.7-1.3-4.8-1.3c-2.2,0-3.9,0.4-5.2,1.4
			c-0.8,0.6-1.2,1.4-1.2,2.3c0,0.9,0.4,1.7,1.1,2.3c1,0.8,3.3,1.6,7,2.5c3.7,0.9,6.4,1.8,8.2,2.7c1.8,0.9,3.1,2.2,4.1,3.8
			c1,1.6,1.5,3.6,1.5,6c0,2.1-0.6,4.2-1.8,6c-1.2,1.9-2.9,3.3-5.1,4.2c-2.2,0.9-4.9,1.4-8.2,1.4c-4.7,0-8.4-1.1-10.9-3.3
			C435.8,740.1,434.3,736.9,433.8,732.7L433.8,732.7z"/>
	</g>
</g>
</svg>
