<?xml version="1.0" encoding="utf-8"?>
<!-- Generator: Adobe Illustrator 19.2.0, SVG Export Plug-In . SVG Version: 6.00 Build 0)  -->
<svg version="1.1" id="Livello_1" xmlns="http://www.w3.org/2000/svg" xmlns:xlink="http://www.w3.org/1999/xlink" x="0px" y="0px"
	 viewBox="0 0 960 960" style="enable-background:new 0 0 960 960;" xml:space="preserve">
<style type="text/css">
	.st0{fill-rule:evenodd;clip-rule:evenodd;fill:#FFFFFF;}
	.st1{fill-rule:evenodd;clip-rule:evenodd;fill:#CECFD1;}
	.st2{fill:none;stroke:#1A171B;stroke-width:1.3195;stroke-miterlimit:2.6131;}
	.st3{fill:none;stroke:#1A171B;stroke-width:4.3982;stroke-miterlimit:2.6131;}
	
		.st4{fill:none;stroke:#1A171B;stroke-width:4.3982;stroke-linecap:square;stroke-miterlimit:2.6131;stroke-dasharray:21.9911,21.9911;}
	.st5{fill-rule:evenodd;clip-rule:evenodd;fill:#3D3D3F;stroke:#1A171B;stroke-width:1.3195;stroke-miterlimit:2.6131;}
	.st6{fill-rule:evenodd;clip-rule:evenodd;fill:#00A6E2;stroke:#1A171B;stroke-width:1.3195;stroke-miterlimit:2.6131;}
	.st7{fill-rule:evenodd;clip-rule:evenodd;fill:#E43417;stroke:#1A171B;stroke-width:1.3195;stroke-miterlimit:2.6131;}
	.st8{fill-rule:evenodd;clip-rule:evenodd;fill:#FFFFFF;stroke:#1A171B;stroke-width:1.3195;stroke-miterlimit:2.6131;}
	.st9{fill:none;stroke:#FFFFFF;stroke-width:4.3982;stroke-linecap:square;stroke-miterlimit:2.6131;}
	.st10{fill-rule:evenodd;clip-rule:evenodd;fill:#FFEC00;stroke:#1A171B;stroke-width:1.3195;stroke-miterlimit:2.6131;}
	.st11{fill:none;stroke:#1A171B;stroke-width:1.7593;stroke-miterlimit:2.6131;}
	.st12{fill-rule:evenodd;clip-rule:evenodd;fill:#1A171B;}
</style>
<g>
	<g>
		<polygon class="st0" points="546.9,779.4 258.7,779.4 258.7,499.5 45.2,499.5 45.2,180.6 915,180.6 915,499.5 546.9,499.5 
			546.9,779.4 		"/>
		<path class="st1" d="M526.3,779.4H279.2V509c0-20.8-9.1-30.2-29.9-30.2H45.9V201.2H915v277.6H557.3c-20.6,0-30.9,9.2-31,30.3
			V779.4L526.3,779.4z"/>
		<path class="st2" d="M279.3,779.4L279.2,509c0-20.8-9.9-30.2-30.7-30.2H45.2 M45,201.2h870 M915,478.8H556.5
			c-20.6,0-30,9.2-30.1,30.2l-0.1,270.4"/>
		<path class="st3" d="M258.7,779.4V499.5H45.2 M45,180.6h870 M915,499.5H546.9v279.8"/>
		<path class="st4" d="M435.1,486.1c-6.4-116.7-95-226.2-222.4-233.6"/>
		<polygon class="st5" points="178.1,253.1 209.2,246 209.2,260.2 178.1,253.1 		"/>
		<path class="st6" d="M474,511.6v232.1h-76.9V511.6c0-6.2,5.1-11.5,11.5-11.5h53.8C468.9,500.1,474,505.2,474,511.6L474,511.6z"/>
		<path class="st7" d="M635.6,307.9h232.1V231H635.6c-6.2,0-11.5,5.1-11.5,11.5v53.8C624.1,302.8,629.2,307.9,635.6,307.9
			L635.6,307.9z"/>
		<path class="st2" d="M467.5,530v203.9h-63.9V530c0-5.5,4.3-10.3,9.6-10.3H458C463.3,519.7,467.5,524.3,467.5,530L467.5,530z"/>
		<path class="st2" d="M654,301.4h203.9v-63.9H654c-5.5,0-10.3,4.2-10.3,9.6v44.7C643.7,297.1,648.3,301.4,654,301.4L654,301.4z"/>
		<path class="st8" d="M467.5,510.2l-5.7,4.9c-17.2-1.1-34.1-1.1-51.7,0l-6.5-4.9c-0.2-0.2,6.6-4.5,9.6-4.7
			c14.9-0.9,30.2-0.9,44.7,0C462.4,505.8,467.8,510,467.5,510.2L467.5,510.2z"/>
		<path class="st8" d="M634.2,301.4l4.9-5.7c-1.2-17.2-1.2-34.1,0-51.7l-4.9-6.5c-0.2-0.2-4.5,6.6-4.7,9.6
			c-0.9,14.9-0.9,30.2,0,44.7C629.8,296.2,634,301.6,634.2,301.4L634.2,301.4z"/>
		<path class="st0" d="M446,694.8l0,9.9l8,3l0,5.3L417.7,699l0-5.7l36.4-4.1l0,4.9L446,694.8L446,694.8z M440,695.5l-14.6,1.5
			l14.7,6L440,695.5L440,695.5z"/>
		<path class="st0" d="M417.6,680.8l0-5.1l19.8,2.8l4.9,0.7c0.4,0,0.8,0.1,1.2,0.1c1.4,0,2.6-0.4,3.6-1.1c0.9-0.7,1.4-1.8,1.4-3.2
			c0-1.2-0.3-2.3-1-3.1c-0.7-0.8-1.7-1.4-3-1.9c-1.3-0.4-3.6-0.9-6.8-1.3l-19.9-2.8l0-5.1l19.9,2.8c4.2,0.6,7.4,1.3,9.6,2.1
			c2.2,0.8,4,2,5.4,3.6c1.4,1.6,2.1,3.6,2.1,6c0,2.9-1,5.2-3.1,6.7c-2.1,1.6-4.7,2.3-8,2.3c-0.7,0-1.4,0-2.2-0.1
			c-0.5,0-2-0.2-4.5-0.6L417.6,680.8L417.6,680.8z"/>
		<polygon class="st0" points="454,649.7 454,654.9 423.7,650.6 423.7,657.9 417.6,657.1 417.6,637.3 423.6,638.2 423.7,645.4 
			454,649.7 		"/>
		<path class="st0" d="M439.7,638.3c-2.1,0-4.4-0.2-6.8-0.7c-3.2-0.6-6-1.4-8.3-2.6c-2.4-1.2-4.2-2.7-5.6-4.5
			c-1.4-1.8-2.1-3.9-2.1-6.2c0-3.1,1.4-5.6,4.2-7.5c2.8-1.9,6.5-2.9,11.1-2.9c3.8,0,7.6,0.6,11.1,1.8c3.6,1.2,6.4,2.9,8.3,5
			c1.9,2.1,2.9,4.5,2.9,7.2c0,2.3-0.8,4.3-2.3,5.9c-1.5,1.6-3.4,2.7-5.7,3.4C444.3,637.9,442,638.3,439.7,638.3L439.7,638.3z
			 M439.5,633.2c2.5,0,4.6-0.5,6.3-1.6c1.7-1.1,2.5-2.4,2.5-4.1c0-1.4-0.7-2.7-2-4c-1.3-1.3-3.3-2.3-6.1-3.2
			c-2.7-0.8-5.3-1.2-7.9-1.2c-2.9,0-5.1,0.5-6.7,1.6c-1.6,1.1-2.4,2.4-2.4,4.1c0,2.5,1.7,4.6,5.1,6.1
			C431.7,632.4,435.4,633.2,439.5,633.2L439.5,633.2z"/>
		<path class="st0" d="M453.9,612.6l-36.4-5.2l0-8.6c0-1.9,0.1-3.2,0.2-3.9c0.3-1.2,0.7-2.3,1.5-3.1c0.7-0.9,1.7-1.5,3-2
			c1.2-0.4,2.6-0.7,4.1-0.7c2,0,3.8,0.4,5.3,1.2c1.5,0.8,2.6,2,3.4,3.6c0.5-1.3,1.4-2.3,2.7-3c1.3-0.7,2.8-1.1,4.5-1.1
			c2.2,0,4.3,0.4,6.2,1.3c2,0.9,3.4,2,4.2,3.5c0.9,1.5,1.3,3.6,1.3,6.2L453.9,612.6L453.9,612.6z M432.2,604.4l0-3.9
			c0-1.8-0.2-3-0.6-3.8c-0.4-0.8-1-1.4-1.8-1.7c-0.8-0.4-1.7-0.6-2.7-0.6c-0.9,0-1.7,0.2-2.3,0.6c-0.6,0.4-1,0.9-1.2,1.6
			c-0.1,0.4-0.1,1.3-0.1,2.7l0,4L432.2,604.4L432.2,604.4z M448,606.6l0-5c0-2.1-0.2-3.5-0.6-4.2c-0.4-0.7-1-1.3-1.9-1.7
			c-0.9-0.4-1.8-0.6-2.8-0.6c-1.2,0-2.2,0.3-3,0.9c-0.8,0.6-1.2,1.6-1.2,3.1l0,6.2L448,606.6L448,606.6z"/>
		<path class="st0" d="M417.4,582.1l0-5.1l19.8,2.8l4.9,0.7c0.4,0,0.8,0.1,1.2,0.1c1.4,0,2.6-0.4,3.6-1.1c0.9-0.7,1.4-1.8,1.4-3.2
			c0-1.2-0.3-2.3-1-3.1c-0.7-0.8-1.7-1.4-3-1.9c-1.3-0.4-3.6-0.9-6.8-1.3l-19.9-2.8l0-5.1l19.9,2.8c4.2,0.6,7.4,1.3,9.6,2.1
			c2.2,0.8,4,2,5.4,3.6c1.4,1.6,2.1,3.6,2.1,6c0,2.9-1,5.2-3.1,6.7c-2.1,1.6-4.7,2.3-8,2.3c-0.7,0-1.4,0-2.2-0.1
			c-0.5,0-2-0.2-4.5-0.6L417.4,582.1L417.4,582.1z"/>
		<path class="st0" d="M442,561.2l-0.4-4.9c2.3-0.1,3.8-0.3,4.6-0.8c1.3-0.8,1.9-2.2,1.9-4.2c0-1.7-0.4-2.9-1.3-3.7
			c-0.9-0.8-1.9-1.1-3.2-1.1c-1.1,0-2,0.3-2.7,0.9c-0.5,0.4-1.4,1.6-2.6,3.6c-1.2,2-2.2,3.4-3.1,4.3c-0.8,0.9-1.9,1.6-3.2,2.1
			c-1.3,0.5-2.8,0.8-4.6,0.8c-3.1,0-5.6-0.8-7.6-2.3c-2-1.5-3-3.7-3-6.6c0-2.9,1-5.2,3-6.8c2-1.6,4.7-2.5,8-2.7l0.3,5
			c-1.7,0.1-3.1,0.6-4,1.3c-0.9,0.7-1.4,1.8-1.4,3.3c0,1.4,0.4,2.4,1.1,3.1c0.7,0.6,1.6,0.9,2.8,0.9c1,0,1.9-0.3,2.6-0.8
			c0.7-0.6,1.6-1.8,2.8-3.7c1.8-2.9,3.3-4.7,4.4-5.5c1.7-1.2,3.8-1.8,6.4-1.8c3.2,0,6,0.9,8.2,2.6c2.3,1.7,3.4,4.2,3.4,7.3
			c0,2.2-0.5,4-1.6,5.6c-1,1.6-2.5,2.7-4.4,3.4C446.6,561,444.4,561.3,442,561.2L442,561.2z"/>
		<path class="st0" d="M682,279.9l-9.9,0l-3,8l-5.3,0l14.1-36.4l5.7,0l4.2,36.4l-4.9,0L682,279.9L682,279.9z M681.4,273.8l-1.5-14.6
			l-6,14.7L681.4,273.8L681.4,273.8z"/>
		<path class="st0" d="M696.1,251.5l5.1,0l-2.8,19.8l-0.7,4.9c0,0.4-0.1,0.8-0.1,1.2c0,1.4,0.4,2.6,1.1,3.6c0.7,0.9,1.8,1.4,3.2,1.4
			c1.2,0,2.3-0.3,3.1-1c0.8-0.7,1.4-1.7,1.9-3c0.4-1.3,0.9-3.6,1.3-6.8l2.8-19.9l5.2,0l-2.8,19.9c-0.6,4.2-1.3,7.4-2.1,9.6
			c-0.8,2.2-2,4-3.6,5.4c-1.6,1.4-3.6,2.1-6.1,2.1c-2.9,0-5.2-1-6.7-3.1c-1.6-2.1-2.3-4.7-2.3-8c0-0.7,0-1.4,0.1-2.2
			c0-0.5,0.2-2,0.6-4.5L696.1,251.5L696.1,251.5z"/>
		<polygon class="st0" points="727.1,287.8 722,287.8 726.3,257.5 718.9,257.5 719.8,251.4 739.5,251.4 738.7,257.5 731.4,257.5 
			727.1,287.8 		"/>
		<path class="st0" d="M738.6,273.5c0-2.1,0.2-4.4,0.7-6.8c0.6-3.2,1.5-6,2.6-8.3c1.2-2.3,2.7-4.2,4.5-5.6c1.8-1.4,3.9-2.1,6.2-2.1
			c3.1,0,5.6,1.4,7.5,4.2c1.9,2.8,2.9,6.5,2.9,11.1c0,3.8-0.6,7.6-1.8,11.1c-1.2,3.6-2.9,6.4-5,8.3c-2.1,1.9-4.5,2.9-7.2,2.9
			c-2.3,0-4.3-0.8-5.9-2.3c-1.6-1.5-2.7-3.4-3.4-5.7C738.9,278.1,738.6,275.8,738.6,273.5L738.6,273.5z M743.7,273.4
			c0,2.5,0.5,4.6,1.6,6.3c1.1,1.7,2.4,2.5,4.1,2.5c1.4,0,2.7-0.7,4-2c1.3-1.3,2.3-3.3,3.2-6.1c0.8-2.7,1.2-5.3,1.2-7.9
			c0-2.9-0.5-5.1-1.6-6.7c-1.1-1.6-2.4-2.4-4.1-2.4c-2.5,0-4.6,1.7-6.1,5.1C744.5,265.5,743.7,269.3,743.7,273.4L743.7,273.4z"/>
		<path class="st0" d="M764.2,287.7l5.2-36.4l8.6,0c1.9,0,3.2,0.1,3.9,0.2c1.2,0.3,2.3,0.7,3.1,1.5c0.9,0.7,1.5,1.7,2,3
			c0.4,1.2,0.7,2.6,0.7,4.1c0,2-0.4,3.8-1.2,5.3c-0.8,1.5-2,2.6-3.6,3.4c1.3,0.5,2.3,1.4,3,2.7c0.7,1.3,1.1,2.8,1.1,4.5
			c0,2.2-0.4,4.3-1.3,6.2c-0.9,2-2,3.4-3.5,4.2c-1.5,0.9-3.6,1.3-6.2,1.3L764.2,287.7L764.2,287.7z M772.5,266l3.9,0
			c1.8,0,3-0.2,3.8-0.6c0.8-0.4,1.4-1,1.7-1.8c0.4-0.8,0.6-1.7,0.6-2.7c0-0.9-0.2-1.7-0.5-2.3c-0.4-0.6-0.9-1-1.6-1.2
			c-0.4-0.1-1.3-0.1-2.7-0.1l-4,0L772.5,266L772.5,266z M770.2,281.9l5,0c2.1,0,3.5-0.2,4.2-0.6c0.7-0.4,1.3-1,1.7-1.9
			c0.4-0.9,0.6-1.8,0.6-2.8c0-1.2-0.3-2.2-0.9-3c-0.6-0.8-1.6-1.2-3.1-1.2l-6.2,0L770.2,281.9L770.2,281.9z"/>
		<path class="st0" d="M794.7,251.3l5.1,0l-2.8,19.8l-0.7,4.9c0,0.4-0.1,0.8-0.1,1.2c0,1.4,0.4,2.6,1.1,3.6c0.7,0.9,1.8,1.4,3.2,1.4
			c1.2,0,2.3-0.3,3.1-1s1.4-1.7,1.9-3c0.4-1.3,0.9-3.6,1.3-6.8l2.8-19.9l5.1,0l-2.8,19.9c-0.6,4.2-1.3,7.4-2.1,9.6
			c-0.8,2.2-2,4-3.6,5.4c-1.6,1.4-3.6,2.1-6,2.1c-2.9,0-5.2-1-6.7-3.1c-1.6-2.1-2.3-4.7-2.3-8c0-0.7,0-1.4,0.1-2.2
			c0-0.5,0.2-2,0.6-4.5L794.7,251.3L794.7,251.3z"/>
		<path class="st0" d="M815.6,275.8l4.9-0.4c0.1,2.3,0.3,3.8,0.8,4.6c0.8,1.3,2.2,1.9,4.2,1.9c1.7,0,2.9-0.4,3.7-1.3
			c0.8-0.9,1.1-1.9,1.1-3.2c0-1.1-0.3-2-0.9-2.7c-0.4-0.5-1.6-1.4-3.6-2.6c-2-1.2-3.4-2.2-4.3-3.1c-0.9-0.8-1.6-1.9-2.1-3.2
			c-0.5-1.3-0.8-2.8-0.8-4.6c0-3.1,0.8-5.6,2.3-7.6c1.5-2,3.7-3,6.6-3c2.9,0,5.2,1,6.8,3c1.6,2,2.5,4.7,2.7,8l-4.9,0.3
			c-0.1-1.7-0.6-3.1-1.3-4c-0.7-0.9-1.8-1.4-3.3-1.4c-1.4,0-2.4,0.4-3.1,1.1c-0.6,0.7-0.9,1.6-0.9,2.8c0,1,0.3,1.9,0.8,2.6
			c0.6,0.7,1.8,1.6,3.7,2.8c2.9,1.8,4.7,3.3,5.5,4.4c1.2,1.7,1.8,3.8,1.8,6.4c0,3.2-0.9,6-2.6,8.2c-1.7,2.3-4.2,3.4-7.3,3.4
			c-2.2,0-4-0.5-5.6-1.6s-2.7-2.5-3.4-4.4C815.9,280.4,815.6,278.3,815.6,275.8L815.6,275.8z"/>
		<line class="st9" x1="407.7" y1="738.8" x2="463.7" y2="738.8"/>
		<line class="st9" x1="862.8" y1="241.5" x2="862.8" y2="297.6"/>
		<polygon class="st5" points="376.1,269.5 407.7,276.7 407.7,262.3 376.1,269.5 		"/>
		<line class="st4" x1="615.6" y1="269.7" x2="411.5" y2="269.7"/>
		<path class="st10" d="M93.9,391.1c10.7-1.6,25.4-3.8,41.1-4c12.5,0,25.1,0,37.8,0c16.5,1.1,29.7,0.6,42.4,4.6
			c2.5,0.6,8.4,4.2,8.4,8.5v32c0,5.1-6.6,6.5-8.4,7c-12.7,3-25.9,4.3-42.2,4.3h-38.1c-14.8,0-29.7-1.6-40.9-3.7
			c-3.1-0.6-8.6-1.3-8.6-8v-32.3C85.3,390.8,89.4,391.7,93.9,391.1L93.9,391.1z"/>
		<path class="st8" d="M170.1,395.1l13.9-2.2c5.4,15.2,4.9,28.8,0,45.1l-13.9-2C173.5,419.8,173.8,412,170.1,395.1L170.1,395.1z"/>
		<path class="st8" d="M111.4,395.9l8.6,2.9c-2.1,11.5-2.1,22.7-0.2,33.5l-8.4,3C109,422.6,109.4,409,111.4,395.9L111.4,395.9z"/>
		<line class="st11" x1="124.9" y1="392.5" x2="164.8" y2="392.7"/>
		<line class="st11" x1="124.9" y1="438.1" x2="164.8" y2="438.2"/>
		<polygon class="st5" points="373.6,415.1 342.1,407.9 342.1,422.3 373.6,415.1 		"/>
		<path class="st12" d="M727.1,333.7h19.7c3.9,0,6.8,0.2,8.7,0.5c1.9,0.3,3.6,1,5.1,2c1.5,1,2.8,2.4,3.8,4.1c1,1.7,1.5,3.6,1.5,5.7
			c0,2.3-0.6,4.4-1.9,6.3c-1.2,1.9-2.9,3.4-5,4.3c3,0.9,5.3,2.4,6.9,4.5c1.6,2.1,2.4,4.6,2.4,7.4c0,2.2-0.5,4.4-1.6,6.5
			c-1,2.1-2.5,3.8-4.3,5.1c-1.8,1.3-4,2-6.7,2.3c-1.6,0.2-5.6,0.3-12,0.3h-16.7V333.7L727.1,333.7z M737.1,341.9v11.4h6.5
			c3.9,0,6.3-0.1,7.2-0.2c1.7-0.2,3-0.8,4-1.8c1-1,1.5-2.3,1.5-3.8c0-1.5-0.4-2.8-1.2-3.7c-0.8-0.9-2.1-1.5-3.7-1.7
			c-1-0.1-3.8-0.2-8.5-0.2H737.1L737.1,341.9z M737.1,361.5v13.1h9.2c3.6,0,5.8-0.1,6.8-0.3c1.5-0.3,2.7-0.9,3.6-2
			c0.9-1,1.4-2.4,1.4-4.2c0-1.5-0.4-2.7-1.1-3.8c-0.7-1-1.8-1.8-3.1-2.3c-1.4-0.5-4.3-0.7-8.8-0.7H737.1L737.1,361.5z"/>
		<path class="st12" d="M168.3,342.7l9.6,2.9c-1.5,5.2-3.9,9-7.3,11.6c-3.4,2.5-7.7,3.8-13,3.8c-6.5,0-11.8-2.2-16-6.5
			c-4.2-4.3-6.3-10.2-6.3-17.7c0-7.9,2.1-14.1,6.3-18.4c4.2-4.4,9.7-6.6,16.6-6.6c6,0,10.8,1.7,14.6,5.2c2.2,2,3.9,4.9,5,8.8
			L168,328c-0.6-2.5-1.8-4.4-3.6-5.8c-1.8-1.4-4.1-2.1-6.7-2.1c-3.6,0-6.6,1.3-8.8,3.8c-2.3,2.5-3.4,6.6-3.4,12.3
			c0,6,1.1,10.3,3.3,12.8c2.2,2.6,5.1,3.8,8.7,3.8c2.6,0,4.9-0.8,6.8-2.4C166.1,348.7,167.5,346.2,168.3,342.7L168.3,342.7z"/>
		<line class="st4" x1="233.1" y1="415.4" x2="347.2" y2="415.4"/>
		<polygon class="st12" points="327,648.2 327,599 336.8,599 336.8,618.3 356,618.3 356,599 365.8,599 365.8,648.2 356,648.2 
			356,626.7 336.8,626.7 336.8,648.2 327,648.2 		"/>
	</g>
</g>
</svg>
