<?xml version="1.0" encoding="utf-8"?>
<!-- Generator: Adobe Illustrator 19.2.0, SVG Export Plug-In . SVG Version: 6.00 Build 0)  -->
<svg version="1.1" id="Livello_1" xmlns="http://www.w3.org/2000/svg" xmlns:xlink="http://www.w3.org/1999/xlink" x="0px" y="0px"
	 viewBox="0 0 960 960" style="enable-background:new 0 0 960 960;" xml:space="preserve">
<style type="text/css">
	.st0{fill-rule:evenodd;clip-rule:evenodd;fill:#FFFFFF;}
	.st1{fill-rule:evenodd;clip-rule:evenodd;fill:#CECFD1;}
	.st2{fill:none;stroke:#1A171B;stroke-width:1.2927;stroke-miterlimit:2.6131;}
	.st3{fill:none;stroke:#1A171B;stroke-width:4.3091;stroke-miterlimit:2.6131;}
	
		.st4{fill:none;stroke:#1A171B;stroke-width:4.3091;stroke-linecap:square;stroke-miterlimit:2.6131;stroke-dasharray:21.5457,21.5457;}
	.st5{fill-rule:evenodd;clip-rule:evenodd;fill:#3D3D3F;stroke:#1A171B;stroke-width:1.2927;stroke-miterlimit:2.6131;}
	.st6{fill-rule:evenodd;clip-rule:evenodd;fill:#1A171B;}
	
		.st7{fill-rule:evenodd;clip-rule:evenodd;fill:#E1001A;stroke:#1A171B;stroke-width:1.2927;stroke-linecap:square;stroke-miterlimit:2.6131;}
	
		.st8{fill-rule:evenodd;clip-rule:evenodd;fill:#FFFFFF;stroke:#1A171B;stroke-width:1.2927;stroke-linecap:square;stroke-miterlimit:2.6131;}
	.st9{fill-rule:evenodd;clip-rule:evenodd;fill:#FFEC00;stroke:#1A171B;stroke-width:1.2927;stroke-miterlimit:2.6131;}
	.st10{fill-rule:evenodd;clip-rule:evenodd;fill:#FFFFFF;stroke:#1A171B;stroke-width:1.2927;stroke-miterlimit:2.6131;}
	.st11{fill:none;stroke:#1A171B;stroke-width:1.7237;stroke-miterlimit:2.6131;}
	.st12{fill-rule:evenodd;clip-rule:evenodd;fill:#049853;stroke:#1A171B;stroke-width:1.2927;stroke-miterlimit:2.6131;}
	.st13{fill-rule:evenodd;clip-rule:evenodd;fill:#498577;stroke:#1A171B;stroke-width:1.2927;stroke-miterlimit:2.6131;}
</style>
<g>
	<g>
		<polygon class="st0" points="207.9,773.3 502.7,773.3 502.7,499.1 914.8,499.1 914.8,186.7 45,186.7 45,499.1 207.9,499.1 
			207.9,773.3 		"/>
		<path class="st1" d="M228.4,773.3h253.5V508.4c0-20.3,8.9-29.6,29.3-29.6h403.6V206.8H45v271.9h152.9c20.1,0,30.3,9,30.4,29.6
			L228.4,773.3L228.4,773.3z"/>
		<path class="st2" d="M481.9,773.3l0.1-264.9c0-20.3,9.7-29.6,30.1-29.6h402.8 M915,206.8H68.8 M68.8,478.8h129.9
			c20.1,0,29.4,9,29.5,29.6l0.1,264.9"/>
		<path class="st3" d="M502.9,773.3V499.1h411.9 M915,186.7H45 M45,499.1h163.1v274.2"/>
		<path class="st4" d="M431.2,272.5c-123.5,19-150.3,110.8-150.7,226"/>
		<polygon class="st5" points="277.5,517.7 274.3,486.6 288,488.2 277.5,517.7 		"/>
		<polygon class="st5" points="625.3,285.1 654.6,291.7 654.6,278.4 625.3,285.1 		"/>
		<polygon class="st5" points="269.9,434.6 240.6,441.3 240.6,428 269.9,434.6 		"/>
		<line class="st3" x1="45" y1="270.5" x2="914.8" y2="270.5"/>
		<line class="st3" x1="45" y1="327.3" x2="914.8" y2="327.3"/>
		<line class="st3" x1="914.8" y1="300.4" x2="45.7" y2="300.4"/>
		<line class="st3" x1="914.8" y1="357.2" x2="45.7" y2="357.2"/>
		<polygon class="st6" points="104,563.9 104,517 138.8,517 138.8,524.9 113.4,524.9 113.4,535.3 137,535.3 137,543.2 113.4,543.2 
			113.4,556 139.6,556 139.6,563.9 104,563.9 		"/>
		<polygon class="st6" points="508.8,419.4 508.8,372.5 518.1,372.5 537.3,403.8 537.3,372.5 546.1,372.5 546.1,419.4 536.6,419.4 
			517.7,388.8 517.7,419.4 508.8,419.4 		"/>
		<polygon class="st6" points="816.6,419.4 816.6,380.4 802.6,380.4 802.6,372.5 839.9,372.5 839.9,380.4 826.1,380.4 826.1,419.4 
			816.6,419.4 		"/>
		<line class="st4" x1="688.6" y1="284.7" x2="637.1" y2="284.7"/>
		<line class="st4" x1="199.9" y1="434.3" x2="258" y2="434.3"/>
		<polygon class="st7" points="603.6,303.3 595.6,303.3 595.6,239.3 603.6,239.3 603.6,303.3 		"/>
		<path class="st7" d="M469.3,233.4h25.6c1,0,1.9,1,1.9,2.3c0,1.3-1.2,2.3-1.9,2.3h-27.3C467.6,238.1,467.4,233.4,469.3,233.4
			L469.3,233.4z"/>
		<path class="st7" d="M469.3,308.9h25.6c1,0,1.9-1,1.9-2.3c0-1.3-1.2-2.3-1.9-2.3h-27.3C467.6,304.3,467.4,308.9,469.3,308.9
			L469.3,308.9z"/>
		<path class="st7" d="M446.9,306.6v-70.8h-2.3c-3.9,0-7,3.1-7,7v56.8c0,3.9,3.1,7,7,7H446.9L446.9,306.6z"/>
		<path class="st7" d="M446.7,304.3h41v-66.1h-41c-3.1,0-5.9,2.6-5.9,5.9v54.4C440.8,301.7,443.4,304.3,446.7,304.3L446.7,304.3z"/>
		<path class="st7" d="M459.3,300h20.8c1.6,0,2.8-1.9,2.8-4.4v-48.7c0-2.5-1.3-4.5-2.8-4.5h-20.8c-1.6,0-2.7,2.1-2.8,4.5
			c-1.4,16.3-1.3,32.5,0,48.7C456.6,298.1,457.7,300,459.3,300L459.3,300z"/>
		<path class="st8" d="M447.6,301.5c0.9-0.8,5.5-3.4,5.5-4.2c-2.3-16.1-2.3-36.2,0-52.9c0.1-0.3-4.7-2.8-5.5-3.5
			c-0.9-0.9-2.8,1.6-3,3.2c-1.4,18-1.4,36.2,0,54.2C444.8,300.2,446.5,302.6,447.6,301.5L447.6,301.5z"/>
		<path class="st7" d="M564.1,233.4h25.6c1,0,1.9,1,1.9,2.3c0,1.3-1.9,2.3-1.9,2.3h-27.3C562.4,238.1,562.2,233.4,564.1,233.4
			L564.1,233.4z"/>
		<path class="st7" d="M564.1,308.9h25.6c1,0,1.9-1,1.9-2.3c0-1.3-1.9-2.3-1.9-2.3h-27.3C562.4,304.3,562.2,308.9,564.1,308.9
			L564.1,308.9z"/>
		<polygon class="st7" points="487.6,306.6 601.2,306.6 601.2,235.8 487.6,235.8 487.6,306.6 		"/>
		<polygon class="st7" points="492.8,302 596,302 596,240.5 492.8,240.5 492.8,302 		"/>
		<polygon class="st7" points="492.8,289.8 596,289.8 596,252.5 492.8,252.5 492.8,289.8 		"/>
		<polygon class="st7" points="492.8,277.4 596,277.4 596,265 492.8,265 492.8,277.4 		"/>
		<path class="st9" d="M74.7,410.3c9.9-1.5,23.4-3.5,37.9-3.7c11.6,0,23.1,0,34.8,0c15.2,1,27.4,0.6,39.1,4.3
			c2.3,0.6,7.8,3.8,7.8,7.8v29.5c0,4.7-6.1,6-7.8,6.5c-11.7,2.8-23.9,4-38.9,4h-35.1c-13.7,0-27.4-1.5-37.7-3.4
			c-2.9-0.6-7.9-1.2-7.9-7.4v-29.8C66.8,410,70.6,410.9,74.7,410.3L74.7,410.3z"/>
		<path class="st10" d="M145,414l12.8-2c5,14.1,4.6,26.6,0,41.6l-12.8-1.8C148.2,436.7,148.5,429.6,145,414L145,414z"/>
		<path class="st10" d="M90.9,414.7l7.9,2.7c-2,10.6-2,20.9-0.2,30.9l-7.8,2.8C88.7,439.3,89,426.8,90.9,414.7L90.9,414.7z"/>
		<line class="st11" x1="103.3" y1="411.6" x2="140.1" y2="411.8"/>
		<line class="st11" x1="103.3" y1="453.6" x2="140.1" y2="453.8"/>
		<polygon class="st12" points="695.4,270.3 738.1,255.4 914.8,255.4 914.8,314.9 738,314.9 695.4,299.9 695.4,270.3 		"/>
		<polygon class="st13" points="702.2,270.3 914.8,270.3 702.2,270.3 		"/>
		<polygon class="st13" points="702.2,285.2 914.8,285.2 702.2,285.2 		"/>
		<polygon class="st13" points="702.2,299.9 914.8,299.9 702.2,299.9 		"/>
		<polygon class="st12" points="738.5,255.5 914.8,255.5 914.8,270.4 738.5,270.4 738.5,255.5 		"/>
		<polygon class="st12" points="738.5,300 914.8,300 914.8,315 738.5,315 738.5,300 		"/>
		<polygon class="st0" points="786.1,301.2 779.5,301.2 785.1,274.7 775.7,274.7 776.8,269.4 801.9,269.4 800.8,274.7 791.6,274.7 
			786.1,301.2 		"/>
		<path class="st0" d="M806.1,301.2h-6.5l6.7-31.8h14.1c2.4,0,4.3,0.3,5.7,0.7c1.4,0.5,2.5,1.4,3.3,2.7c0.8,1.3,1.2,2.9,1.2,4.8
			c0,2.7-0.8,4.9-2.4,6.7c-1.6,1.8-4.1,2.8-7.4,3.3c0.8,0.7,1.6,1.7,2.4,3c1.5,2.5,3.1,6,4.9,10.5h-7c-0.6-1.8-1.7-4.6-3.3-8.4
			c-0.9-2.1-1.9-3.4-2.9-4.1c-0.6-0.4-1.7-0.6-3.2-0.6h-2.7L806.1,301.2L806.1,301.2z M809.8,283.2h3.5c3.5,0,5.9-0.2,7-0.6
			c1.2-0.4,2.1-1.1,2.7-2c0.6-0.9,1-1.8,1-2.8c0-1.2-0.5-2-1.4-2.6c-0.6-0.3-1.8-0.5-3.8-0.5h-7.2L809.8,283.2L809.8,283.2z"/>
		<path class="st0" d="M852.3,294.2h-12.6l-3.8,7h-6.7l18-31.8h7.3l5.2,31.8h-6.2L852.3,294.2L852.3,294.2z M851.5,288.9l-1.8-12.8
			l-7.7,12.8H851.5L851.5,288.9z"/>
		<polygon class="st0" points="881.8,301.2 875.6,301.2 874.5,274.6 869.4,301.2 863.5,301.2 870.2,269.4 879.5,269.4 880.5,291.7 
			891.3,269.4 900.8,269.4 894.1,301.2 888.1,301.2 894.4,274.8 881.8,301.2 		"/>
	</g>
</g>
</svg>
