<?xml version="1.0" encoding="utf-8"?>
<!-- Generator: Adobe Illustrator 19.2.0, SVG Export Plug-In . SVG Version: 6.00 Build 0)  -->
<svg version="1.1" id="Livello_1" xmlns="http://www.w3.org/2000/svg" xmlns:xlink="http://www.w3.org/1999/xlink" x="0px" y="0px"
	 viewBox="0 0 960 960" style="enable-background:new 0 0 960 960;" xml:space="preserve">
<style type="text/css">
	.st0{fill-rule:evenodd;clip-rule:evenodd;fill:#FFFFFF;}
	.st1{fill-rule:evenodd;clip-rule:evenodd;fill:#CECFD1;}
	.st2{fill-rule:evenodd;clip-rule:evenodd;fill:#FFEC00;stroke:#1A171B;stroke-width:1.4589;stroke-miterlimit:2.6131;}
	.st3{fill-rule:evenodd;clip-rule:evenodd;fill:#FFFFFF;stroke:#1A171B;stroke-width:1.4589;stroke-miterlimit:2.6131;}
	.st4{fill:none;stroke:#1A171B;stroke-width:1.9452;stroke-miterlimit:2.6131;}
	.st5{fill-rule:evenodd;clip-rule:evenodd;fill:#E43417;stroke:#1A171B;stroke-width:1.4589;stroke-miterlimit:2.6131;}
	.st6{fill:none;stroke:#1A171B;stroke-width:1.4589;stroke-miterlimit:2.6131;}
	.st7{fill:none;stroke:#1A171B;stroke-width:4.8629;stroke-miterlimit:2.6131;}
	
		.st8{fill:none;stroke:#1A171B;stroke-width:4.8629;stroke-linecap:square;stroke-miterlimit:2.6131;stroke-dasharray:24.3147,24.3147;}
	.st9{fill-rule:evenodd;clip-rule:evenodd;fill:#3D3D3F;stroke:#1A171B;stroke-width:1.4589;stroke-miterlimit:2.6131;}
	.st10{fill-rule:evenodd;clip-rule:evenodd;fill:#409951;stroke:#1A171B;stroke-width:1.4589;stroke-miterlimit:2.6131;}
	.st11{fill-rule:evenodd;clip-rule:evenodd;fill:#00A6E2;stroke:#1A171B;stroke-width:1.4589;stroke-miterlimit:2.6131;}
	.st12{fill-rule:evenodd;clip-rule:evenodd;fill:#1A171B;}
</style>
<g>
	<g>
		<polygon class="st0" points="247.4,212.1 580.1,212.1 580.1,395.4 914.8,395.4 914.8,748 45.8,748 45.8,395.4 247.4,395.4 
			247.4,212.1 		"/>
		<path class="st1" d="M269.5,212h287.1v173c0,22.9,10.1,33.4,33.1,33.4H914v306.9H45V418.4h191.1c22.7,0,33.2-10.2,33.3-33.4
			L269.5,212L269.5,212z"/>
		<path class="st2" d="M346.1,257.6c1.9,12.4,4.4,29.5,4.6,47.6c0,14.5,0,29.1,0,43.8c-1.3,19.1-0.7,34.4-5.4,49.2
			c-0.7,2.9-4.8,9.8-9.8,9.8h-37.1c-5.9,0-7.6-7.7-8.2-9.8c-3.5-14.7-5-30-5-49V305c0-17.2,1.9-34.4,4.3-47.5c0.7-3.6,1.5-10,9.3-10
			h37.5C346.5,247.6,345.4,252.4,346.1,257.6L346.1,257.6z"/>
		<path class="st3" d="M341.5,346l2.5,16.1c-17.7,6.3-33.5,5.7-52.3,0L294,346C312.8,350,321.9,350.4,341.5,346L341.5,346z"/>
		<path class="st3" d="M340.5,277.9l-3.3,10c-13.4-2.5-26.3-2.5-38.9-0.2l-3.5-9.8C309.6,275.2,325.3,275.6,340.5,277.9L340.5,277.9
			z"/>
		<line class="st4" x1="344.4" y1="293.6" x2="344.3" y2="339.9"/>
		<line class="st4" x1="291.6" y1="293.6" x2="291.4" y2="339.9"/>
		<path class="st5" d="M426,257.6c1.9,12.4,4.5,29.5,4.6,47.6c0,14.5,0,29.1,0,43.8c-1.3,19.1-0.7,34.4-5.4,49.2
			c-0.7,2.9-4.8,9.8-9.8,9.8h-37.1c-5.9,0-7.6-7.7-8.2-9.8c-3.5-14.7-5-30-5-49V305c0-17.2,1.9-34.4,4.3-47.5c0.7-3.6,1.5-10,9.3-10
			h37.5C426.4,247.6,425.3,252.4,426,257.6L426,257.6z"/>
		<path class="st3" d="M421.4,346l2.5,16.1c-17.7,6.3-33.5,5.7-52.3,0l2.3-16.1C392.7,350,401.8,350.4,421.4,346L421.4,346z"/>
		<path class="st3" d="M420.4,277.9l-3.3,10c-13.4-2.5-26.3-2.5-38.9-0.2l-3.5-9.8C389.5,275.2,405.2,275.6,420.4,277.9L420.4,277.9
			z"/>
		<line class="st4" x1="424.3" y1="293.6" x2="424.1" y2="339.9"/>
		<line class="st4" x1="371.5" y1="293.6" x2="371.3" y2="339.9"/>
		<path class="st6" d="M557.4,212.1l0.2,172.9c0,22.9,10.1,33.4,33.1,33.4h324.2 M915,725.3H46 M46,418.4h191.1
			c22.7,0,33.2-10.2,33.3-33.4l0.1-173"/>
		<path class="st7" d="M580.3,212.1v183.3h334.5 M915,748H46 M46,395.4h201.6V212.1"/>
		<line class="st7" x1="45.1" y1="469.4" x2="914.8" y2="469.4"/>
		<line class="st7" x1="45.1" y1="558" x2="914.8" y2="558"/>
		<line class="st7" x1="914.8" y1="516" x2="45.8" y2="516"/>
		<line class="st7" x1="914.8" y1="604.6" x2="45.8" y2="604.6"/>
		<path class="st8" d="M400.5,413.6C410.9,545.9,504,644.1,644.8,652.2"/>
		<line class="st8" x1="570.6" y1="492.9" x2="247.4" y2="492.9"/>
		<path class="st8" d="M319.6,413.5c-21.8,47.3-41.6,39.9-111.3,40.2"/>
		<path class="st8" d="M243.5,613C371,613.5,467.2,551.4,506,403"/>
		<polygon class="st9" points="683,651.5 648.6,659.3 648.6,643.6 683,651.5 		"/>
		<polygon class="st9" points="184.7,453.8 219.1,461.6 219.1,446 184.7,453.8 		"/>
		<polygon class="st9" points="212.5,492.9 246.9,500.7 246.9,485.1 212.5,492.9 		"/>
		<polygon class="st10" points="579.8,475.5 623,457.9 844.4,457.9 887.7,475.5 887.7,510.2 843.7,527.8 622.9,527.8 579.8,510.2 
			579.8,475.5 		"/>
		<polygon class="st10" points="623.4,510.3 844.1,510.3 844.1,527.9 623.4,527.9 623.4,510.3 		"/>
		<polygon class="st10" points="623.4,458 844.1,458 844.1,475.6 623.4,475.6 623.4,458 		"/>
		<line class="st6" x1="586.7" y1="475.5" x2="880.8" y2="475.5"/>
		<line class="st6" x1="586.7" y1="492.9" x2="880.8" y2="492.9"/>
		<line class="st6" x1="586.7" y1="510.2" x2="880.8" y2="510.2"/>
		<polygon class="st0" points="673.3,511.7 665.6,511.7 672.1,480.6 661.2,480.6 662.5,474.4 691.9,474.4 690.6,480.6 679.8,480.6 
			673.3,511.7 		"/>
		<path class="st0" d="M696.8,511.7h-7.7l7.8-37.3h16.6c2.8,0,5.1,0.3,6.7,0.9c1.6,0.6,2.9,1.7,3.9,3.2c1,1.6,1.5,3.4,1.5,5.7
			c0,3.2-0.9,5.8-2.9,7.9c-1.9,2.1-4.8,3.3-8.6,3.8c1,0.9,1.9,2,2.8,3.5c1.7,2.9,3.6,7.1,5.7,12.4h-8.3c-0.7-2.1-2-5.4-3.9-9.9
			c-1-2.4-2.2-4-3.4-4.9c-0.7-0.5-2-0.7-3.8-0.7H700L696.8,511.7L696.8,511.7z M701.2,490.6h4.1c4.1,0,6.9-0.2,8.2-0.7
			c1.4-0.5,2.4-1.3,3.2-2.3c0.8-1.1,1.1-2.2,1.1-3.3c0-1.4-0.5-2.4-1.6-3.1c-0.7-0.4-2.2-0.6-4.4-0.6h-8.4L701.2,490.6L701.2,490.6z
			"/>
		<path class="st0" d="M751,503.4h-14.8l-4.5,8.3h-7.9l21.1-37.3h8.5l6.1,37.3h-7.3L751,503.4L751,503.4z M750.1,497.2l-2.2-15
			l-9,15H750.1L750.1,497.2z"/>
		<polygon class="st0" points="785.7,511.7 778.4,511.7 777.1,480.5 771.2,511.7 764.2,511.7 772,474.4 783,474.4 784.1,500.5 
			796.9,474.4 807.9,474.4 800.1,511.7 793.1,511.7 800.5,480.7 785.7,511.7 		"/>
		<path class="st11" d="M87.6,581.8c12.4-1.9,29.5-4.5,47.7-4.6c14.5,0,29.1,0,43.8,0c19.1,1.3,34.4,0.7,49.2,5.4
			c2.9,0.7,9.8,4.8,9.8,9.8v37.1c0,5.9-7.7,7.6-9.8,8.2c-14.7,3.5-30,5-49,5h-44.2c-17.2,0-34.4-1.9-47.5-4.3
			c-3.6-0.7-10-1.5-10-9.3v-37.5C77.6,581.4,82.4,582.5,87.6,581.8L87.6,581.8z"/>
		<path class="st3" d="M176,586.4l16.1-2.5c6.3,17.7,5.7,33.5,0,52.3l-16.1-2.3C180,615,180.4,606,176,586.4L176,586.4z"/>
		<path class="st3" d="M107.9,587.3l9.9,3.3c-2.5,13.4-2.5,26.3-0.2,38.9l-9.8,3.5C105.2,618.3,105.6,602.5,107.9,587.3L107.9,587.3
			z"/>
		<line class="st4" x1="123.6" y1="583.4" x2="169.9" y2="583.6"/>
		<line class="st4" x1="123.6" y1="636.3" x2="169.9" y2="636.5"/>
		<path class="st12" d="M235,346.6h-12l-4.8-12.4h-21.8l-4.5,12.4h-11.7l21.2-54.5h11.6L235,346.6L235,346.6z M214.7,325l-7.5-20.2
			l-7.4,20.2H214.7L214.7,325z"/>
		<polygon class="st12" points="136.1,708.6 136.1,654.5 147.1,654.5 147.1,699.4 174.4,699.4 174.4,708.6 136.1,708.6 		"/>
		<polygon class="st12" points="708.7,593.6 708.7,548.3 692.5,548.3 692.5,539.1 735.8,539.1 735.8,548.3 719.7,548.3 719.7,593.6 
			708.7,593.6 		"/>
		<path class="st12" d="M485.1,326.5l10.7,3.4c-1.6,6-4.4,10.4-8.2,13.3c-3.8,2.9-8.6,4.3-14.5,4.3c-7.2,0-13.2-2.5-17.9-7.4
			c-4.7-5-7-11.7-7-20.3c0-9.1,2.3-16.1,7-21.2c4.7-5,10.8-7.5,18.5-7.5c6.7,0,12.1,2,16.3,5.9c2.5,2.3,4.3,5.7,5.6,10l-10.9,2.6
			c-0.6-2.8-2-5.1-4-6.7c-2-1.6-4.5-2.4-7.5-2.4c-4,0-7.3,1.4-9.8,4.4c-2.5,2.9-3.8,7.6-3.8,14.1c0,6.9,1.2,11.8,3.7,14.7
			c2.5,2.9,5.7,4.4,9.7,4.4c2.9,0,5.4-0.9,7.6-2.8C482.6,333.4,484.1,330.5,485.1,326.5L485.1,326.5z"/>
		<polygon class="st9" points="512.7,382.2 510.8,417.5 495.7,413.2 512.7,382.2 		"/>
	</g>
</g>
</svg>
