<?xml version="1.0" encoding="utf-8"?>
<!-- Generator: Adobe Illustrator 19.2.0, SVG Export Plug-In . SVG Version: 6.00 Build 0)  -->
<svg version="1.1" id="Livello_1" xmlns="http://www.w3.org/2000/svg" xmlns:xlink="http://www.w3.org/1999/xlink" x="0px" y="0px"
	 viewBox="0 0 960 960" style="enable-background:new 0 0 960 960;" xml:space="preserve">
<style type="text/css">
	.st0{fill-rule:evenodd;clip-rule:evenodd;fill:#FFFFFF;}
	.st1{fill-rule:evenodd;clip-rule:evenodd;fill:#CECFD1;}
	.st2{fill-rule:evenodd;clip-rule:evenodd;fill:#1A171B;stroke:#1A171B;stroke-width:1.3058;stroke-miterlimit:2.6131;}
	.st3{fill:none;stroke:#1A171B;stroke-width:4.3528;stroke-linecap:square;stroke-miterlimit:2.6131;}
	.st4{fill:none;stroke:#1A171B;stroke-width:1.3058;stroke-linecap:square;stroke-miterlimit:2.6131;}
	.st5{fill:#FFFFFF;stroke:#1A171B;stroke-width:4.3528;stroke-linecap:square;stroke-miterlimit:2.6131;}
	
		.st6{fill:none;stroke:#1A171B;stroke-width:4.3528;stroke-linecap:square;stroke-miterlimit:2.6131;stroke-dasharray:21.7639,21.7639;}
	.st7{fill-rule:evenodd;clip-rule:evenodd;fill:#1A171B;}
	.st8{fill-rule:evenodd;clip-rule:evenodd;fill:#E1001A;stroke:#1A171B;stroke-width:1.3058;stroke-miterlimit:2.6131;}
	.st9{fill-rule:evenodd;clip-rule:evenodd;fill:#FFFFFF;stroke:#1A171B;stroke-width:1.3058;stroke-miterlimit:2.6131;}
	.st10{fill:none;stroke:#1A171B;stroke-width:2.1764;stroke-linecap:square;stroke-miterlimit:2.6131;}
	.st11{fill-rule:evenodd;clip-rule:evenodd;fill:#FFEC00;stroke:#1A171B;stroke-width:1.3058;stroke-miterlimit:2.6131;}
	.st12{fill:none;stroke:#1A171B;stroke-width:1.7411;stroke-miterlimit:2.6131;}
	.st13{fill:none;stroke:#1A171B;stroke-width:1.3058;stroke-miterlimit:2.6131;}
	.st14{fill:none;stroke:#FFFFFF;stroke-width:4.3528;stroke-linecap:square;stroke-miterlimit:2.6131;}
</style>
<g>
	<g>
		<polygon class="st0" points="641.2,801.5 391.8,801.5 343.2,639.3 45,639.3 45,319.6 249.1,319.6 202.3,158 451.7,158 
			499.7,319.6 915,319.6 915,639.3 593.7,639.3 641.2,801.5 		"/>
		<path class="st1" d="M615,801.5H419L371.7,649c-8.3-26.6-13-34.2-41.3-34.2H45V344h198.2c25.4,0,33.2-13.6,29.1-32.7l-3.7-12.2
			l-39.2-141l196,0l45.9,152.2c8.2,24.1,9.1,33.8,37.5,33.8H915v270.8H600c-27.9,0-36.1,11.4-28.7,35L615,801.5L615,801.5z"/>
		<polygon class="st2" points="629.8,578 596.2,581.2 598.1,566.4 629.8,578 		"/>
		<polygon class="st2" points="449.4,697.9 454.9,664.6 440,665.5 449.4,697.9 		"/>
		<path class="st3" d="M451.7,158l48,161.7l415-0.1 M914.7,639.4h-321L642.3,802 M391.8,802l-48.6-162.6H46.4 M46.4,319.7h202.8
			L202.3,158"/>
		<path class="st4" d="M45,344h198.2c25.4,0,33.2-13.6,29.1-32.7l-3.7-12.2l-39.2-141 M425.4,158l45.9,152.2
			c8.2,24.1,9.1,33.8,37.5,33.8H915 M915,614.8H600c-27.9,0-36.1,11.4-28.7,35L615,801.5 M419,801.5L371.7,649
			c-8.3-26.6-13-34.2-41.3-34.2H45"/>
		<polygon class="st5" points="65.2,182.4 180.7,182.4 180.7,270.3 65.2,270.3 65.2,182.4 		"/>
		<path class="st6" d="M343,267.5C379,412,426.7,537.4,602.7,574.2"/>
		<path class="st6" d="M621.5,491.4c-114.9,7.2-188.3,74.2-173.7,179.1"/>
		<path class="st7" d="M91.6,229.2c9.4,0,17,7.6,17,17c0,9.4-7.6,17-17,17c-9.4,0-17-7.6-17-17C74.6,236.8,82.2,229.2,91.6,229.2
			L91.6,229.2z"/>
		<path class="st7" d="M153.4,229.2c9.4,0,17,7.6,17,17c0,9.4-7.6,17-17,17c-9.4,0-17-7.6-17-17C136.4,236.8,144,229.2,153.4,229.2
			L153.4,229.2z"/>
		<path class="st0" d="M91.6,234.7c6.3,0,11.5,5.2,11.5,11.5c0,6.3-5.2,11.5-11.5,11.5c-6.3,0-11.5-5.2-11.5-11.5
			C80.1,239.9,85.3,234.7,91.6,234.7L91.6,234.7z"/>
		<path class="st0" d="M153.4,234.7c6.3,0,11.5,5.2,11.5,11.5c0,6.3-5.2,11.5-11.5,11.5c-6.3,0-11.5-5.2-11.5-11.5
			C141.9,239.9,147.1,234.7,153.4,234.7L153.4,234.7z"/>
		<path class="st7" d="M124.2,256.6l-10.1-19c-1.3-2.6-1.4-4.5,1.5-6.4l12.4-5.6l-9.9-7.5l-5.4,4.2c-0.6,0.7-2,1.2-3.6,1.3
			l-14.3,0.1c-4.4,0.1-4.1-6.6,0-6.6l12.6-0.1l16-12.8c1.3,0,3.1,0.4,4,1.3l11.5,17.7c1.8,2.1,1.9,5.2-0.5,6.3l-16.5,7l8.9,16.6
			C132.8,257.4,126.3,260.9,124.2,256.6L124.2,256.6z"/>
		<path class="st7" d="M109.6,211.8l-0.5-3.5l7-5.7l-0.9-5.3l-6.1,1.1c-1.7,0.6-1.4-0.8-1.4-2.1c0.4-5.1,5.4-8.4,9.6-7.5
			c4.3,0.8,6.2,4.9,6.6,7.1c0.4,2.2,0.5,4.5-0.9,5.2L109.6,211.8L109.6,211.8z"/>
		<path class="st8" d="M320.6,204.9l-5.5-19.9c-0.6-2.3,0.7-4.7,3-5.3s4.7,0.7,5.3,3l5.5,19.9c0.6,2.3-0.7,4.7-3,5.3
			C323.6,208.5,321.2,207.2,320.6,204.9L320.6,204.9z"/>
		<path class="st8" d="M333.5,251.6l-5.5-19.9c-0.6-2.3,0.7-4.7,3-5.3c2.3-0.6,4.7,0.7,5.3,3l5.5,19.9c0.6,2.3-0.7,4.7-3,5.3
			C336.5,255.3,334.1,253.9,333.5,251.6L333.5,251.6z"/>
		<path class="st8" d="M325.5,231.7l-5.6-20.2c-0.8-3.1,0.6-6.2,3.3-6.9l3.2-0.9c2.6-0.7,5.5,1.2,6.3,4.3l5.6,20.2
			c0.8,3.1-0.6,6.2-3.3,6.9l-3.2,0.9C329.2,236.7,326.4,234.8,325.5,231.7L325.5,231.7z"/>
		<path class="st8" d="M322.6,215.7l-4.4-16c-0.7-2.4,0.5-4.9,2.6-5.4l2.5-0.7c2.1-0.6,4.3,0.9,5,3.4l4.4,16
			c0.7,2.4-0.5,4.9-2.6,5.4l-2.5,0.7C325.5,219.6,323.3,218.1,322.6,215.7L322.6,215.7z"/>
		<path class="st8" d="M328.7,237.4l-2.2-8c-0.3-0.9,1.8-2.3,4.5-3c2.7-0.8,5.2-0.6,5.5,0.3l2.2,8c0.3,0.9-1.8,2.3-4.5,3
			C331.4,238.4,328.9,238.3,328.7,237.4L328.7,237.4z"/>
		<path class="st8" d="M309.9,230l0-0.3c0-0.6,0.6-1.1,1.2-1.1l21.2,1.1c0.6,0,1.1,0.6,1.1,1.2l0,0.3c0,0.6-0.6,1.1-1.2,1.1
			l-21.2-1.1C310.4,231.2,309.9,230.7,309.9,230L309.9,230z"/>
		<path class="st8" d="M350.5,218.9l-0.2-0.2c-0.3-0.5-1.1-0.7-1.6-0.3l-17.7,11.8c-0.5,0.3-0.7,1.1-0.3,1.6l0.2,0.2
			c0.3,0.5,1.1,0.7,1.6,0.3l17.7-11.8C350.7,220.1,350.9,219.4,350.5,218.9L350.5,218.9z"/>
		<path class="st8" d="M329.6,236.2l-1.7-6.2c-0.2-0.7,1.4-1.8,3.5-2.4c2.1-0.6,4-0.5,4.2,0.2l1.7,6.2c0.2,0.7-1.4,1.8-3.5,2.4
			C331.7,237,329.8,236.9,329.6,236.2L329.6,236.2z"/>
		<path class="st9" d="M316.2,205.4c1.9-1.7,4.5-3,7.5-3.8l0,0c0.1,0,0.1-0.1,0.1-0.1c11.7-3.2,24.1,3.8,27.3,15.5
			c0.4,1.3,0.7,2.5,0.9,3.7l-6,1.6c-1.2-4.5-4.5-8.1-8.5-10c-2,2.5-5.3,4.7-9.2,5.8c-4,1.1-7.9,0.9-10.8-0.2
			c-2.5,3.6-3.4,8.3-2.2,12.8l-5.7,1.6c-0.5-1.1-0.9-2.3-1.3-3.6C305.8,220,309.3,210.7,316.2,205.4L316.2,205.4z"/>
		<path class="st9" d="M318.6,213.8c-1.4-5,1.2-10,5.8-11.3c4.5-1.3,9.4,1.8,10.7,6.7c1.4,4.9-1.2,10-5.8,11.3
			C324.7,221.8,319.9,218.8,318.6,213.8L318.6,213.8z"/>
		<line class="st10" x1="189.3" y1="225.5" x2="288.9" y2="225.5"/>
		<path class="st11" d="M737.9,513.8c-9.8,1.5-23.3,3.5-37.6,3.7c-11.5,0-22.9,0-34.6,0c-15.1-1-27.2-0.6-38.8-4.2
			c-2.3-0.6-7.7-3.8-7.7-7.8v-29.3c0-4.7,6-6,7.7-6.4c11.6-2.8,23.7-4,38.7-4h34.9c13.6,0,27.2,1.5,37.4,3.4
			c2.9,0.6,7.9,1.2,7.9,7.3v29.6C745.8,514.1,742,513.2,737.9,513.8L737.9,513.8z"/>
		<path class="st9" d="M668.1,510.2l-12.7,2c-5-14-4.5-26.4,0-41.3l12.7,1.8C665,487.6,664.7,494.7,668.1,510.2L668.1,510.2z"/>
		<path class="st9" d="M721.9,509.4l-7.9-2.6c2-10.5,2-20.8,0.1-30.7l7.7-2.8C724,485,723.7,497.4,721.9,509.4L721.9,509.4z"/>
		<line class="st12" x1="709.5" y1="512.5" x2="673" y2="512.4"/>
		<line class="st12" x1="709.5" y1="470.8" x2="673" y2="470.7"/>
		<path class="st7" d="M376.1,188.4h20.7c4.1,0,7.2,0.2,9.2,0.5c2,0.3,3.8,1,5.4,2.1c1.6,1.1,2.9,2.5,4,4.3c1.1,1.8,1.6,3.8,1.6,6
			c0,2.4-0.7,4.6-2,6.7c-1.3,2-3.1,3.5-5.3,4.6c3.1,0.9,5.6,2.5,7.3,4.7c1.7,2.2,2.5,4.8,2.5,7.8c0,2.3-0.5,4.6-1.6,6.9
			c-1.1,2.2-2.6,4-4.5,5.3c-1.9,1.3-4.2,2.1-7,2.5c-1.7,0.2-5.9,0.3-12.6,0.3h-17.6V188.4L376.1,188.4z M386.6,197v12h6.8
			c4.1,0,6.6-0.1,7.6-0.2c1.8-0.2,3.2-0.8,4.2-1.8c1-1,1.5-2.4,1.5-4c0-1.6-0.4-2.9-1.3-3.9c-0.9-1-2.2-1.6-3.9-1.8
			c-1-0.1-4-0.2-8.9-0.2H386.6L386.6,197z M386.6,217.6v13.8h9.7c3.8,0,6.2-0.1,7.2-0.3c1.6-0.3,2.8-1,3.8-2.1
			c1-1.1,1.5-2.6,1.5-4.4c0-1.6-0.4-2.9-1.1-4c-0.8-1.1-1.8-1.9-3.3-2.4c-1.4-0.5-4.5-0.7-9.3-0.7H386.6L386.6,217.6z"/>
		<polygon class="st7" points="669.7,585 669.7,533.3 679.9,533.3 701.1,567.8 701.1,533.3 710.8,533.3 710.8,585 700.3,585 
			679.4,551.3 679.4,585 669.7,585 		"/>
		<path class="st7" d="M852.1,430.3v-51.7h22c5.5,0,9.5,0.5,12,1.4c2.5,0.9,4.5,2.6,6,5c1.5,2.4,2.3,5.1,2.3,8.2
			c0,3.9-1.1,7.1-3.4,9.6c-2.3,2.5-5.7,4.1-10.2,4.8c2.3,1.3,4.1,2.8,5.6,4.4c1.5,1.6,3.4,4.4,5.9,8.4l6.3,10.1h-12.5l-7.6-11.3
			c-2.7-4-4.5-6.6-5.5-7.6c-1-1-2-1.8-3.1-2.2c-1.1-0.4-2.9-0.6-5.3-0.6h-2.1v21.6H852.1L852.1,430.3z M862.5,400.4h7.7
			c5,0,8.1-0.2,9.4-0.6c1.2-0.4,2.2-1.2,2.9-2.2c0.7-1,1.1-2.3,1.1-3.9c0-1.7-0.5-3.1-1.4-4.2c-0.9-1.1-2.2-1.7-3.9-2
			c-0.8-0.1-3.4-0.2-7.6-0.2h-8.1V400.4L862.5,400.4z"/>
		<path class="st8" d="M626.6,437h206.9v-68.5H626.6c-5.5,0-10.3,4.6-10.3,10.3v48C616.3,432.4,620.8,437,626.6,437L626.6,437z"/>
		<path class="st13" d="M642.9,431.2h181.7v-57H642.9c-4.9,0-9.2,3.8-9.2,8.5v39.9C633.7,427.4,637.8,431.2,642.9,431.2L642.9,431.2
			z"/>
		<path class="st9" d="M625.3,431.2l4.3-5.1c-1-15.3-1-30.4,0-46.1l-4.3-5.8c-0.2-0.2-4,5.8-4.2,8.5c-0.8,13.3-0.8,26.9,0,39.9
			C621.3,426.5,625,431.4,625.3,431.2L625.3,431.2z"/>
		<path class="st0" d="M667.9,412l-8.9,0l-2.7,7.2l-4.7,0l12.6-32.5l5.1,0l3.7,32.4l-4.4,0L667.9,412L667.9,412z M667.3,406.6
			l-1.3-13.1l-5.4,13.1L667.3,406.6L667.3,406.6z"/>
		<path class="st0" d="M680.4,386.7l4.6,0l-2.5,17.6l-0.6,4.3c0,0.4-0.1,0.7-0.1,1c0,1.3,0.3,2.3,1,3.2c0.6,0.8,1.6,1.2,2.8,1.2
			c1.1,0,2-0.3,2.7-0.9c0.7-0.6,1.3-1.5,1.7-2.7c0.4-1.2,0.8-3.2,1.2-6.1l2.5-17.7l4.6,0l-2.5,17.7c-0.5,3.7-1.2,6.6-1.8,8.6
			c-0.7,2-1.8,3.6-3.2,4.8c-1.4,1.2-3.2,1.9-5.4,1.9c-2.6,0-4.6-0.9-6-2.8c-1.4-1.9-2.1-4.2-2.1-7.1c0-0.6,0-1.3,0.1-2
			c0-0.5,0.2-1.8,0.5-4L680.4,386.7L680.4,386.7z"/>
		<polygon class="st0" points="708.1,419.1 703.5,419.1 707.3,392.1 700.8,392.1 701.6,386.6 719.2,386.6 718.4,392 711.9,392 
			708.1,419.1 		"/>
		<path class="st0" d="M718.3,406.3c0-1.9,0.2-3.9,0.6-6.1c0.5-2.8,1.3-5.3,2.4-7.4c1.1-2.1,2.4-3.8,4-5c1.6-1.2,3.5-1.8,5.5-1.8
			c2.8,0,5,1.2,6.7,3.7c1.7,2.5,2.6,5.8,2.6,9.9c0,3.4-0.5,6.7-1.6,9.9c-1.1,3.2-2.6,5.7-4.5,7.4c-1.9,1.7-4,2.6-6.4,2.6
			c-2.1,0-3.8-0.7-5.3-2c-1.4-1.4-2.4-3.1-3-5.1C718.6,410.4,718.3,408.4,718.3,406.3L718.3,406.3z M722.9,406.2
			c0,2.2,0.5,4.1,1.4,5.6c0.9,1.5,2.2,2.3,3.7,2.2c1.2,0,2.4-0.6,3.6-1.8c1.1-1.2,2.1-3,2.8-5.4c0.7-2.4,1.1-4.8,1.1-7
			c0-2.6-0.5-4.6-1.4-6c-1-1.5-2.2-2.2-3.6-2.2c-2.2,0-4.1,1.5-5.5,4.6C723.6,399.2,722.9,402.5,722.9,406.2L722.9,406.2z"/>
		<path class="st0" d="M741.2,419l4.6-32.4l7.6,0c1.7,0,2.8,0.1,3.5,0.2c1.1,0.2,2,0.7,2.8,1.3c0.8,0.7,1.3,1.5,1.7,2.7
			c0.4,1.1,0.6,2.3,0.6,3.7c0,1.8-0.3,3.4-1,4.7c-0.7,1.3-1.8,2.3-3.2,3c1.2,0.4,2.1,1.3,2.7,2.4c0.6,1.2,1,2.5,1,4
			c0,2-0.4,3.8-1.1,5.5c-0.8,1.8-1.8,3-3.2,3.8c-1.3,0.8-3.2,1.2-5.5,1.2L741.2,419L741.2,419z M748.5,399.6l3.5,0
			c1.6,0,2.7-0.2,3.4-0.5c0.7-0.3,1.2-0.9,1.6-1.6c0.3-0.7,0.5-1.5,0.5-2.4c0-0.8-0.2-1.5-0.5-2c-0.3-0.5-0.8-0.9-1.4-1.1
			c-0.3-0.1-1.1-0.1-2.4-0.1l-3.6,0L748.5,399.6L748.5,399.6z M746.5,413.8l4.4,0c1.9,0,3.1-0.2,3.7-0.5c0.6-0.4,1.1-0.9,1.5-1.7
			c0.4-0.8,0.6-1.6,0.6-2.5c0-1.1-0.3-2-0.8-2.7c-0.5-0.7-1.5-1-2.8-1l-5.5,0L746.5,413.8L746.5,413.8z"/>
		<path class="st0" d="M768.4,386.5l4.6,0l-2.5,17.6l-0.6,4.3c0,0.4-0.1,0.7-0.1,1c0,1.3,0.3,2.3,1,3.2c0.6,0.8,1.6,1.2,2.8,1.2
			c1.1,0,2-0.3,2.7-0.9c0.7-0.6,1.3-1.5,1.7-2.7c0.4-1.2,0.8-3.2,1.2-6.1l2.5-17.7l4.6,0l-2.5,17.7c-0.5,3.7-1.1,6.6-1.8,8.6
			c-0.7,2-1.8,3.6-3.2,4.8c-1.4,1.2-3.2,1.9-5.4,1.9c-2.6,0-4.6-0.9-6-2.8c-1.4-1.9-2.1-4.2-2.1-7.1c0-0.6,0-1.3,0.1-2
			c0-0.5,0.2-1.8,0.5-4L768.4,386.5L768.4,386.5z"/>
		<path class="st0" d="M787,408.4l4.4-0.3c0.1,2,0.3,3.4,0.7,4.1c0.7,1.2,1.9,1.7,3.7,1.7c1.5,0,2.6-0.4,3.3-1.2
			c0.7-0.8,1-1.7,1-2.8c0-1-0.3-1.8-0.8-2.4c-0.4-0.5-1.4-1.3-3.2-2.4c-1.7-1.1-3-2-3.8-2.7c-0.8-0.7-1.4-1.7-1.9-2.8
			c-0.5-1.2-0.7-2.5-0.7-4.1c0-2.7,0.7-5,2-6.8c1.4-1.8,3.3-2.7,5.9-2.7c2.6,0,4.7,0.9,6.1,2.7c1.4,1.8,2.2,4.2,2.4,7.1l-4.4,0.3
			c-0.1-1.5-0.5-2.7-1.2-3.6c-0.7-0.8-1.6-1.2-2.9-1.2c-1.3,0-2.2,0.3-2.7,1c-0.5,0.6-0.8,1.5-0.8,2.5c0,0.9,0.3,1.7,0.8,2.3
			c0.5,0.6,1.6,1.5,3.3,2.5c2.6,1.6,4.2,2.9,4.9,3.9c1.1,1.5,1.6,3.4,1.6,5.7c0,2.9-0.8,5.3-2.3,7.3c-1.6,2-3.7,3.1-6.5,3.1
			c-1.9,0-3.6-0.5-5-1.4c-1.4-0.9-2.4-2.2-3-3.9C787.2,412.5,787,410.6,787,408.4L787,408.4z"/>
		<line class="st14" x1="829" y1="377.8" x2="829" y2="427.8"/>
		<polygon class="st2" points="425.5,403.6 458.2,411.1 458.2,396.2 425.5,403.6 		"/>
		<line class="st6" x1="608.7" y1="402.9" x2="455.1" y2="402.9"/>
	</g>
</g>
</svg>
