<?xml version="1.0" encoding="utf-8"?>
<!-- Generator: Adobe Illustrator 19.2.0, SVG Export Plug-In . SVG Version: 6.00 Build 0)  -->
<svg version="1.1" id="Livello_1" xmlns="http://www.w3.org/2000/svg" xmlns:xlink="http://www.w3.org/1999/xlink" x="0px" y="0px"
	 viewBox="0 0 960 960" style="enable-background:new 0 0 960 960;" xml:space="preserve">
<style type="text/css">
	.st0{fill-rule:evenodd;clip-rule:evenodd;fill:#FFFFFF;}
	.st1{fill-rule:evenodd;clip-rule:evenodd;fill:#CECFD1;}
	.st2{fill-rule:evenodd;clip-rule:evenodd;fill:#00A6E2;stroke:#1A171B;stroke-width:1.4579;stroke-miterlimit:2.6131;}
	.st3{fill-rule:evenodd;clip-rule:evenodd;fill:#FFFFFF;stroke:#1A171B;stroke-width:1.4579;stroke-miterlimit:2.6131;}
	.st4{fill:none;stroke:#1A171B;stroke-width:1.9439;stroke-miterlimit:2.6131;}
	.st5{fill-rule:evenodd;clip-rule:evenodd;fill:#FFEC00;stroke:#1A171B;stroke-width:1.4579;stroke-miterlimit:2.6131;}
	.st6{fill-rule:evenodd;clip-rule:evenodd;fill:#E43417;stroke:#1A171B;stroke-width:1.4579;stroke-miterlimit:2.6131;}
	.st7{fill-rule:evenodd;clip-rule:evenodd;fill:#3D3D3F;stroke:#1A171B;stroke-width:1.4579;stroke-miterlimit:2.6131;}
	.st8{fill:none;stroke:#1A171B;stroke-width:4.8598;stroke-linecap:square;stroke-miterlimit:2.6131;}
	.st9{fill:none;stroke:#1A171B;stroke-width:1.4579;stroke-linecap:square;stroke-miterlimit:2.6131;}
	
		.st10{fill:none;stroke:#1A171B;stroke-width:4.8598;stroke-linecap:square;stroke-miterlimit:2.6131;stroke-dasharray:24.2988,24.2988;}
	.st11{fill-rule:evenodd;clip-rule:evenodd;fill:#1A171B;}
</style>
<g>
	<g>
		<path class="st0" d="M377.8,832.2H100l205.1-206.1l17.7-18.1c12.7-14.6,12.4-40.5-12.8-40.5H45.1L45,320.6h284.3L328.7,128h235.8
			v216.5l124.1,133.4H915v251.3H480.3L377.8,832.2L377.8,832.2z"/>
		<path class="st1" d="M343.8,832.1H133.9l195.2-196c47.6-46,18.6-92.6-19.5-92.6H45.1v-199h275.6c23.8,0,32.5-8,32.5-32.4V128
			l187.4-0.2l-0.2,207.9c0.1,13.9,3.9,22.1,11.8,30.8l116,124.1c8.5,7.7,14.5,11.5,28.8,11.4h218v203.4H492.6
			c-20.7,0.2-25,2.6-38.9,16.3L343.8,832.1L343.8,832.1z"/>
		<path class="st2" d="M304.2,760.7c7.7-10.4,18.2-24.6,31.2-38c10.6-10.6,21.1-21.1,31.8-31.8c14.8-13,25.6-24.5,39.6-31.8
			c2.6-1.5,10.6-3.6,14.2,0l26.9,26.9c4.3,4.3,0,11.1-1.2,13c-8.1,13.3-18.2,25.5-32,39.2l-32.1,32.1
			c-12.5,12.5-26.4,23.7-37.6,31.4c-3.2,2.1-8.3,6.2-14,0.5l-27.2-27.2C296.7,767.6,301,765,304.2,760.7L304.2,760.7z"/>
		<path class="st3" d="M371.8,699.8l9.9-13.5c17.4,8.3,28.5,20.1,38,38l-13.4,10C395.5,717.7,389.2,710.9,371.8,699.8L371.8,699.8z"
			/>
		<path class="st3" d="M323,750l9.7-4.8c7.9,11.5,17.3,20.9,28.1,28.4l-4.5,9.6C343.5,774.4,332.4,762.7,323,750L323,750z"/>
		<line class="st4" x1="331.5" y1="735.8" x2="365.3" y2="702.3"/>
		<line class="st4" x1="369.9" y1="774.2" x2="403.7" y2="740.6"/>
		<path class="st5" d="M870.2,529.9c-12.8-1.9-30.3-4.6-48.9-4.8c-14.9,0-29.9,0-45,0c-19.7,1.3-35.4,0.8-50.5,5.5
			c-3,0.8-10,5-10,10.1v38.1c0,6.1,7.9,7.8,10,8.4c15.1,3.6,30.9,5.1,50.3,5.1h45.4c17.7,0,35.4-1.9,48.8-4.4
			c3.7-0.8,10.2-1.5,10.2-9.5V540C880.5,529.5,875.6,530.7,870.2,529.9L870.2,529.9z"/>
		<path class="st3" d="M779.4,534.6l-16.5-2.6c-6.5,18.2-5.9,34.4,0,53.7l16.5-2.4C775.3,564.1,774.9,554.8,779.4,534.6L779.4,534.6
			z"/>
		<path class="st3" d="M849.4,535.6l-10.2,3.4c2.6,13.7,2.6,27.1,0.2,40l10,3.6C852.2,567.4,851.8,551.2,849.4,535.6L849.4,535.6z"
			/>
		<line class="st4" x1="833.3" y1="531.6" x2="785.7" y2="531.8"/>
		<line class="st4" x1="833.3" y1="585.9" x2="785.7" y2="586.1"/>
		<path class="st6" d="M431.6,170.5c1.9,12.8,4.6,30.3,4.8,49c0,14.9,0,29.9,0,45c-1.3,19.7-0.8,35.4-5.5,50.5
			c-0.8,2.9-5,10-10.1,10h-38.1c-6.1,0-7.8-7.9-8.4-10c-3.6-15.1-5.1-30.9-5.1-50.3v-45.4c0-17.7,1.9-35.4,4.4-48.8
			c0.8-3.7,1.5-10.2,9.5-10.2h38.5C431.9,160.3,430.8,165.2,431.6,170.5L431.6,170.5z"/>
		<path class="st3" d="M426.8,261.3l2.6,16.5c-18.2,6.5-34.4,5.9-53.7,0l2.4-16.5C397.4,265.4,406.7,265.8,426.8,261.3L426.8,261.3z
			"/>
		<path class="st3" d="M425.8,191.3l-3.4,10.2c-13.7-2.6-27-2.6-40-0.2l-3.6-10C394,188.6,410.2,189,425.8,191.3L425.8,191.3z"/>
		<line class="st4" x1="429.8" y1="207.4" x2="429.7" y2="255"/>
		<line class="st4" x1="375.6" y1="207.4" x2="375.4" y2="255"/>
		<polygon class="st7" points="323.4,687.6 341.6,656.3 353.4,667.2 323.4,687.6 		"/>
		<polygon class="st7" points="219.8,401.4 255.1,409.4 255.1,393.3 219.8,401.4 		"/>
		<polygon class="st7" points="486.7,247 478.6,282.3 494.7,282.3 486.7,247 		"/>
		<path class="st8" d="M564.5,128v216.5l124.1,133.4H915 M915,729.3H480.3L377.8,832.2 M100,832.2l205.1-206.1l17.7-18.1
			c12.7-14.6,12.4-40.5-12.8-40.5H45 M45,320.6h284.3L328.7,128"/>
		<path class="st9" d="M45,344.5l275.6,0.1c23.8,0,32.5-8,32.5-32.4l0.1-184.2 M540.6,127.9l-0.2,207.9c0.1,13.9,3.9,22.1,11.8,30.8
			l116,124.1c8.4,7.7,14.5,11.5,28.8,11.4h218 M915,705.3l-422.5,0.1c-20.7,0.2-25,2.6-38.9,16.3L343.7,832.2 M133.8,832.2
			l195.2-196c47.6-46,18.6-92.6-19.5-92.6L45,543.5"/>
		<path class="st10" d="M402.3,334.7c8.4,92.9,34.1,238.2-53.4,324.7"/>
		<path class="st10" d="M259.6,401.4c213.4,0.5,239.6,154.1,451,159"/>
		<path class="st10" d="M438.7,667c70.2-74.7,55.5-228.1,47.3-381.5"/>
		<path class="st11" d="M840.4,660.8h-12.3l-4.9-12.7h-22.3l-4.6,12.7h-12l21.8-55.8H818L840.4,660.8L840.4,660.8z M819.6,638.7
			l-7.7-20.7l-7.5,20.7H819.6L819.6,638.7z"/>
		<path class="st11" d="M449.9,215.5v-55.8h23.7c6,0,10.3,0.5,13,1.5c2.7,1,4.9,2.8,6.5,5.3c1.6,2.6,2.4,5.5,2.4,8.8
			c0,4.2-1.2,7.7-3.7,10.4c-2.5,2.7-6.1,4.4-11.1,5.1c2.4,1.4,4.5,3,6,4.7c1.6,1.7,3.7,4.7,6.4,9.1l6.8,10.9h-13.5l-8.2-12.2
			c-2.9-4.3-4.9-7.1-5.9-8.2c-1.1-1.1-2.2-1.9-3.4-2.3c-1.2-0.4-3.1-0.6-5.7-0.6h-2.3v23.3H449.9L449.9,215.5z M461.2,183.3h8.3
			c5.4,0,8.8-0.2,10.1-0.7c1.3-0.5,2.4-1.2,3.2-2.4c0.8-1.1,1.1-2.5,1.1-4.2c0-1.9-0.5-3.4-1.5-4.6c-1-1.2-2.4-1.9-4.3-2.2
			c-0.9-0.1-3.7-0.2-8.2-0.2h-8.8V183.3L461.2,183.3z"/>
		<path class="st11" d="M277.3,785.5l10.9,3.5c-1.7,6.1-4.5,10.6-8.4,13.6c-3.9,2.9-8.8,4.4-14.8,4.4c-7.4,0-13.5-2.5-18.3-7.6
			c-4.8-5.1-7.2-12-7.2-20.8c0-9.3,2.4-16.5,7.2-21.7c4.8-5.1,11.1-7.7,18.9-7.7c6.8,0,12.4,2,16.6,6.1c2.5,2.4,4.4,5.8,5.7,10.3
			l-11.2,2.7c-0.6-2.9-2-5.2-4.1-6.9c-2.1-1.7-4.6-2.5-7.6-2.5c-4.1,0-7.5,1.5-10.1,4.5c-2.6,3-3.9,7.8-3.9,14.4
			c0,7.1,1.3,12.1,3.8,15.1c2.5,3,5.8,4.5,9.9,4.5c3,0,5.6-0.9,7.7-2.9C274.8,792.6,276.3,789.6,277.3,785.5L277.3,785.5z"/>
	</g>
</g>
</svg>
