<?xml version="1.0" encoding="utf-8"?>
<!-- Generator: Adobe Illustrator 19.2.0, SVG Export Plug-In . SVG Version: 6.00 Build 0)  -->
<svg version="1.1" id="Livello_1" xmlns="http://www.w3.org/2000/svg" xmlns:xlink="http://www.w3.org/1999/xlink" x="0px" y="0px"
	 viewBox="0 0 960 960" style="enable-background:new 0 0 960 960;" xml:space="preserve">
<style type="text/css">
	.st0{fill-rule:evenodd;clip-rule:evenodd;fill:#FFFFFF;}
	.st1{fill-rule:evenodd;clip-rule:evenodd;fill:#CECFD1;}
	.st2{fill-rule:evenodd;clip-rule:evenodd;fill:#00A6E2;stroke:#1A171B;stroke-width:1.43;stroke-miterlimit:2.6131;}
	.st3{fill-rule:evenodd;clip-rule:evenodd;fill:#FFFFFF;stroke:#1A171B;stroke-width:1.43;stroke-miterlimit:2.6131;}
	.st4{fill:none;stroke:#1A171B;stroke-width:1.9067;stroke-miterlimit:2.6131;}
	.st5{fill-rule:evenodd;clip-rule:evenodd;fill:#FFEC00;stroke:#1A171B;stroke-width:1.43;stroke-miterlimit:2.6131;}
	.st6{fill-rule:evenodd;clip-rule:evenodd;fill:#E43417;stroke:#1A171B;stroke-width:1.43;stroke-miterlimit:2.6131;}
	.st7{fill-rule:evenodd;clip-rule:evenodd;fill:#3D3D3F;stroke:#1A171B;stroke-width:1.43;stroke-miterlimit:2.6131;}
	.st8{fill-rule:evenodd;clip-rule:evenodd;fill:#1A171B;}
	.st9{fill:none;stroke:#1A171B;stroke-width:4.7668;stroke-miterlimit:2.6131;}
	.st10{fill:none;stroke:#1A171B;stroke-width:1.43;stroke-miterlimit:2.6131;}
	
		.st11{fill:none;stroke:#1A171B;stroke-width:4.7668;stroke-linecap:square;stroke-miterlimit:2.6131;stroke-dasharray:23.8341,23.8341;}
</style>
<g>
	<g>
		<polygon class="st0" points="450.2,120 69.6,120 263.2,314 53.3,314 53.3,646.1 268,646.1 74.9,839.9 477.9,839.9 637.6,679.5 
			906.7,679.5 906.7,563.6 906.6,563.6 906.6,314 643.7,314 450.2,120 		"/>
		<path class="st1" d="M412.3,120H107.5l181.2,181.8c17.3,18.4,9.2,38.7-18,39H53.3v278.6h216.5c28.3,0.2,41.5,18.7,23.7,39.1
			L112.9,839.9h327.1l165.7-166.3c17.6-18.7,22.2-20.9,53.2-20.8h247.8V541.3V340.8H671.7c-36.5-0.2-40.9-3.6-65.3-26L412.3,120
			L412.3,120z"/>
		<path class="st2" d="M99.4,536.4c13-1.9,30.9-4.7,49.9-4.8c15.2,0,30.5,0,45.9,0c20,1.4,36.1,0.8,51.5,5.6c3,0.8,10.2,5,10.2,10.3
			v38.8c0,6.2-8,8-10.2,8.5c-15.4,3.7-31.5,5.2-51.3,5.2h-46.3c-18,0-36.1-1.9-49.7-4.5c-3.8-0.8-10.4-1.6-10.4-9.7v-39.2
			C89,536,94,537.2,99.4,536.4L99.4,536.4z"/>
		<path class="st3" d="M192,541.2l16.8-2.6c6.6,18.5,6,35,0,54.8L192,591C196.2,571.2,196.6,561.8,192,541.2L192,541.2z"/>
		<path class="st3" d="M120.6,542.2l10.4,3.5c-2.6,14-2.6,27.6-0.2,40.8l-10.2,3.7C117.8,574.6,118.2,558.1,120.6,542.2L120.6,542.2
			z"/>
		<line class="st4" x1="137.1" y1="538.1" x2="185.5" y2="538.3"/>
		<line class="st4" x1="137.1" y1="593.5" x2="185.5" y2="593.7"/>
		<path class="st5" d="M267.6,159.4c10.6,7.9,25.1,18.6,38.7,31.9c10.7,10.8,21.5,21.6,32.4,32.5c13.2,15.2,24.9,26.1,32.4,40.4
			c1.6,2.7,3.6,10.8-0.1,14.5l-27.5,27.4c-4.4,4.4-11.3-0.1-13.3-1.2c-13.5-8.3-25.9-18.6-39.9-32.6l-32.7-32.8
			c-12.7-12.8-24.1-26.9-31.9-38.3c-2.1-3.2-6.3-8.5-0.5-14.2l27.8-27.7C260.5,151.7,263.2,156.1,267.6,159.4L267.6,159.4z"/>
		<path class="st3" d="M329.5,228.4l13.7,10.1c-8.5,17.8-20.6,29-38.8,38.7l-10.2-13.6C311.2,252.5,318.2,246.1,329.5,228.4
			L329.5,228.4z"/>
		<path class="st3" d="M278.4,178.5l4.9,9.8c-11.7,8-21.4,17.6-29,28.6l-9.8-4.6C253.5,199.4,265.5,188.1,278.4,178.5L278.4,178.5z"
			/>
		<line class="st4" x1="292.9" y1="187.3" x2="327" y2="221.8"/>
		<line class="st4" x1="253.7" y1="226.4" x2="287.8" y2="260.8"/>
		<path class="st6" d="M858.7,367c-13-1.9-30.9-4.7-49.9-4.9c-15.2,0-30.5,0-45.9,0c-20,1.4-36.1,0.8-51.5,5.6
			c-3,0.8-10.2,5-10.2,10.3v38.8c0,6.2,8,8,10.2,8.5c15.4,3.7,31.5,5.2,51.3,5.2H809c18,0,36.1-1.9,49.7-4.5
			c3.8-0.8,10.4-1.6,10.4-9.7v-39.2C869.1,366.6,864.1,367.7,858.7,367L858.7,367z"/>
		<path class="st3" d="M766.1,371.8l-16.8-2.6c-6.6,18.5-6,35,0,54.8l16.8-2.4C761.9,401.8,761.5,392.3,766.1,371.8L766.1,371.8z"/>
		<path class="st3" d="M837.5,372.8l-10.4,3.5c2.6,14,2.6,27.6,0.2,40.8l10.2,3.7C840.3,405.2,839.9,388.7,837.5,372.8L837.5,372.8z
			"/>
		<line class="st4" x1="821" y1="368.7" x2="772.5" y2="368.9"/>
		<line class="st4" x1="821" y1="424" x2="772.5" y2="424.2"/>
		<polygon class="st7" points="733.6,619.1 697.6,627.3 697.6,611 733.6,619.1 		"/>
		<polygon class="st7" points="446.5,398.8 482.5,407 482.5,390.6 446.5,398.8 		"/>
		<polygon class="st7" points="292.8,729.4 324,709.8 312.5,698.2 292.8,729.4 		"/>
		<path class="st8" d="M138.4,450.6h23c4.6,0,8,0.2,10.2,0.6c2.2,0.4,4.2,1.2,6,2.4c1.8,1.2,3.2,2.8,4.4,4.8c1.2,2,1.8,4.3,1.8,6.7
			c0,2.7-0.7,5.2-2.2,7.4c-1.5,2.3-3.4,3.9-5.9,5.1c3.5,1,6.2,2.8,8.1,5.2c1.9,2.5,2.8,5.4,2.8,8.7c0,2.6-0.6,5.2-1.8,7.6
			c-1.2,2.5-2.9,4.5-5,5.9c-2.1,1.5-4.7,2.4-7.8,2.7c-1.9,0.2-6.6,0.3-14,0.4h-19.6V450.6L138.4,450.6z M150.1,460.2v13.3h7.6
			c4.5,0,7.4-0.1,8.5-0.2c2-0.2,3.6-0.9,4.7-2.1c1.1-1.1,1.7-2.6,1.7-4.5c0-1.8-0.5-3.2-1.5-4.3c-1-1.1-2.5-1.8-4.4-2
			c-1.2-0.1-4.5-0.2-9.9-0.2H150.1L150.1,460.2z M150.1,483.1v15.4h10.8c4.2,0,6.9-0.1,8-0.3c1.7-0.3,3.1-1.1,4.2-2.3
			c1.1-1.2,1.6-2.9,1.6-4.9c0-1.7-0.4-3.2-1.3-4.4c-0.8-1.2-2.1-2.1-3.6-2.6c-1.6-0.5-5-0.8-10.3-0.8H150.1L150.1,483.1z"/>
		<path class="st9" d="M69.6,120.1l193.5,194H53.3 M53.3,646.2H268L74.9,840 M477.9,840l159.8-160.4l269-0.1 M906.6,314.1h-263
			l-193.4-194"/>
		<path class="st10" d="M107.5,120.1l181.2,181.8c17.3,18.4,9.2,38.7-18,39H53.3 M53.3,619.5h216.5c28.3,0.2,41.5,18.7,23.7,39.1
			L112.9,840 M439.9,840l165.7-166.3c17.6-18.7,22.2-20.9,53.2-20.8h247.8 M906.6,340.9H671.7c-36.5-0.2-40.9-3.6-65.3-26
			L412.3,120.1"/>
		<path class="st11" d="M263.1,568.1c165.6-0.7,189.3,52,430.6,51.2"/>
		<line class="st11" x1="695.8" y1="398.7" x2="487.2" y2="398.7"/>
		<path class="st11" d="M363,296.2c106,136.9,41.2,304.9-41.4,404"/>
		<polygon class="st8" points="364.7,218.7 364.7,170.8 347.7,170.8 347.7,161.1 393.4,161.1 393.4,170.8 376.4,170.8 376.4,218.7 
			364.7,218.7 		"/>
		<path class="st8" d="M774.1,494.6l11.1-1.1c0.7,3.7,2,6.5,4.1,8.2c2,1.7,4.8,2.6,8.3,2.6c3.7,0,6.5-0.8,8.3-2.3
			c1.9-1.6,2.8-3.4,2.8-5.5c0-1.3-0.4-2.5-1.2-3.4c-0.8-1-2.1-1.8-4.1-2.5c-1.3-0.5-4.4-1.3-9.1-2.5c-6.1-1.5-10.4-3.4-12.9-5.6
			c-3.5-3.1-5.2-6.9-5.2-11.4c0-2.9,0.8-5.6,2.5-8.1c1.6-2.5,4-4.4,7.1-5.7c3.1-1.3,6.8-2,11.1-2c7.1,0,12.4,1.6,16,4.7
			c3.6,3.1,5.5,7.3,5.7,12.5l-11.4,0.5c-0.5-2.9-1.5-5-3.1-6.3c-1.6-1.3-4-1.9-7.2-1.9c-3.3,0-5.9,0.7-7.8,2c-1.2,0.9-1.8,2-1.8,3.5
			c0,1.3,0.6,2.5,1.7,3.4c1.4,1.2,4.9,2.5,10.5,3.8c5.6,1.3,9.7,2.7,12.3,4.1c2.7,1.4,4.7,3.3,6.3,5.8c1.5,2.4,2.3,5.4,2.3,9
			c0,3.2-0.9,6.3-2.7,9.1c-1.8,2.8-4.3,4.9-7.6,6.3c-3.3,1.4-7.4,2.1-12.3,2.1c-7.2,0-12.6-1.6-16.5-5
			C777.2,505.8,774.9,500.9,774.1,494.6L774.1,494.6z"/>
	</g>
</g>
</svg>
