<?xml version="1.0" encoding="utf-8"?>
<!-- Generator: Adobe Illustrator 19.2.0, SVG Export Plug-In . SVG Version: 6.00 Build 0)  -->
<svg version="1.1" id="Livello_1" xmlns="http://www.w3.org/2000/svg" xmlns:xlink="http://www.w3.org/1999/xlink" x="0px" y="0px"
	 viewBox="0 0 960 960" style="enable-background:new 0 0 960 960;" xml:space="preserve">
<style type="text/css">
	.st0{fill-rule:evenodd;clip-rule:evenodd;fill:#FFFFFF;}
	.st1{fill-rule:evenodd;clip-rule:evenodd;fill:#CECFD1;}
	.st2{fill-rule:evenodd;clip-rule:evenodd;fill:#00A6E2;stroke:#1A171B;stroke-width:1.457;stroke-miterlimit:2.6131;}
	.st3{fill-rule:evenodd;clip-rule:evenodd;fill:#FFFFFF;stroke:#1A171B;stroke-width:1.457;stroke-miterlimit:2.6131;}
	.st4{fill:none;stroke:#1A171B;stroke-width:1.9427;stroke-miterlimit:2.6131;}
	.st5{fill-rule:evenodd;clip-rule:evenodd;fill:#FFEC00;stroke:#1A171B;stroke-width:1.457;stroke-miterlimit:2.6131;}
	.st6{fill-rule:evenodd;clip-rule:evenodd;fill:#E43417;stroke:#1A171B;stroke-width:1.457;stroke-miterlimit:2.6131;}
	.st7{fill-rule:evenodd;clip-rule:evenodd;fill:#3D3D3F;stroke:#1A171B;stroke-width:1.457;stroke-miterlimit:2.6131;}
	.st8{fill-rule:evenodd;clip-rule:evenodd;fill:#1A171B;}
	.st9{fill:none;stroke:#1A171B;stroke-width:4.8568;stroke-linecap:square;stroke-miterlimit:2.6131;}
	.st10{fill:none;stroke:#1A171B;stroke-width:1.457;stroke-linecap:square;stroke-miterlimit:2.6131;}
	
		.st11{fill:none;stroke:#1A171B;stroke-width:4.8568;stroke-linecap:square;stroke-miterlimit:2.6131;stroke-dasharray:24.2839,24.2839;}
</style>
<g>
	<g>
		<polygon class="st0" points="653.9,836.7 374.4,836.7 336.5,707.3 45,707.3 45,350.6 231.5,350.6 164.5,123.3 444.1,123.3 
			511,350.6 915,350.6 915,707.3 615.9,707.3 653.9,836.7 		"/>
		<path class="st1" d="M625.5,836.8H402.9l-34.7-118.7c-9.2-29.7-14.5-38.1-46-38.1H45V377.8h179.9c28.4,0,37.1-15.2,32.5-36.5
			l-4.1-13.7L193,123.2h222.5l63.9,216.8c9.1,26.9,10.2,37.7,41.8,37.7H915V680H623c-31.1,0-40.3,12.7-32.1,39L625.5,836.8
			L625.5,836.8z"/>
		<path class="st2" d="M121.4,590.9c13.3-2,31.5-4.7,50.9-5c15.5,0,31,0,46.8,0c20.4,1.4,36.8,0.8,52.5,5.7
			c3.1,0.8,10.4,5.1,10.4,10.5v39.6c0,6.3-8.2,8.1-10.4,8.7c-15.7,3.8-32.1,5.3-52.3,5.3h-47.2c-18.4,0-36.8-2-50.7-4.6
			c-3.9-0.8-10.6-1.6-10.6-9.9v-40C110.8,590.5,115.9,591.6,121.4,590.9L121.4,590.9z"/>
		<path class="st3" d="M215.8,595.8l17.2-2.7c6.7,18.9,6.1,35.7,0,55.8l-17.2-2.5C220.1,626.4,220.5,616.7,215.8,595.8L215.8,595.8z
			"/>
		<path class="st3" d="M143.1,596.8l10.6,3.6c-2.7,14.2-2.7,28.1-0.2,41.6l-10.4,3.8C140.2,629.8,140.6,613,143.1,596.8L143.1,596.8
			z"/>
		<line class="st4" x1="159.8" y1="592.6" x2="209.2" y2="592.8"/>
		<line class="st4" x1="159.8" y1="649" x2="209.2" y2="649.2"/>
		<path class="st5" d="M287.3,157.2c6.2,11.9,14.8,28.2,21.3,46.4c5.1,14.7,10.2,29.3,15.3,44.2c5.4,19.8,11.3,35,11.8,51.5
			c0.3,3.2-1.5,11.5-6.5,13.3l-37.4,13c-6,2.1-10.3-5.1-11.6-7c-8.7-13.6-15.5-28.6-22.2-47.7l-15.4-44.6
			c-6-17.4-10.2-35.4-12.3-49.4c-0.5-3.9-2-10.6,5.9-13.3l37.8-13.1C284.2,147,284.8,152.2,287.3,157.2L287.3,157.2z"/>
		<path class="st3" d="M313.5,247.9l8.1,15.3c-15.6,12.5-31.7,17.5-52.8,18.3l-3.3-17C286,262,295.3,259.2,313.5,247.9L313.5,247.9z
			"/>
		<path class="st3" d="M288.8,179.6l0.1,11.2c-14.3,2.2-27.4,6.7-39.3,13.4l-7-8.6C256.6,187.7,272.7,182.6,288.8,179.6L288.8,179.6
			z"/>
		<line class="st4" x1="298.2" y1="194" x2="314.2" y2="240.8"/>
		<line class="st4" x1="244.9" y1="212.5" x2="260.9" y2="259.3"/>
		<path class="st6" d="M823.2,460.3c-13.3-2-31.5-4.7-50.9-5c-15.5,0-31,0-46.8,0c-20.4,1.4-36.8,0.8-52.5,5.7
			c-3.1,0.8-10.4,5.1-10.4,10.5v39.6c0,6.3,8.2,8.1,10.4,8.7c15.7,3.8,32.1,5.3,52.3,5.3h47.2c18.4,0,36.8-2,50.7-4.5
			c3.9-0.8,10.6-1.6,10.6-9.9v-40C833.8,459.9,828.7,461.1,823.2,460.3L823.2,460.3z"/>
		<path class="st3" d="M728.8,465.2l-17.2-2.7c-6.7,18.9-6.1,35.7,0,55.8l17.2-2.5C724.6,495.8,724.1,486.1,728.8,465.2L728.8,465.2
			z"/>
		<path class="st3" d="M801.6,466.2l-10.6,3.6c2.7,14.2,2.7,28.1,0.2,41.6l10.4,3.8C804.4,499.3,804,482.4,801.6,466.2L801.6,466.2z
			"/>
		<line class="st4" x1="784.8" y1="462.1" x2="735.4" y2="462.3"/>
		<line class="st4" x1="784.8" y1="518.5" x2="735.4" y2="518.7"/>
		<polygon class="st7" points="683.9,603.2 646.4,606.8 648.6,590.2 683.9,603.2 		"/>
		<polygon class="st7" points="529.8,620.6 493.1,628.9 493.1,612.2 529.8,620.6 		"/>
		<polygon class="st7" points="457,798.1 457.3,760.5 441,764.1 457,798.1 		"/>
		<polygon class="st8" points="174.7,575.2 174.7,517.6 186.5,517.6 186.5,565.4 215.6,565.4 215.6,575.2 174.7,575.2 		"/>
		<polygon class="st8" points="736.8,446 736.8,388 748.6,388 748.6,410.8 771.5,410.8 771.5,388 783.2,388 783.2,446 771.5,446 
			771.5,420.7 748.6,420.7 748.6,446 736.8,446 		"/>
		<path class="st8" d="M369.9,220.2l11.3,3.6c-1.7,6.3-4.6,11-8.7,14.1c-4,3.1-9.2,4.6-15.4,4.6c-7.7,0-14-2.6-19-7.9
			c-5-5.3-7.4-12.5-7.4-21.6c0-9.7,2.5-17.2,7.5-22.5c5-5.3,11.5-8,19.7-8c7.1,0,12.9,2.1,17.3,6.3c2.6,2.5,4.6,6,5.9,10.7
			l-11.6,2.8c-0.7-3-2.1-5.4-4.3-7.1c-2.2-1.7-4.8-2.6-7.9-2.6c-4.3,0-7.8,1.5-10.5,4.6c-2.7,3.1-4,8.1-4,15c0,7.3,1.3,12.6,4,15.7
			c2.6,3.1,6.1,4.7,10.3,4.7c3.1,0,5.8-1,8-3C367.3,227.6,368.9,224.5,369.9,220.2L369.9,220.2z"/>
		<path class="st9" d="M444.1,123.5l67,227.2l404-0.1 M915,707.4H615.9l37.9,129.4 M374.4,836.8l-37.9-129.4H45 M45,350.7h186.5
			l-67-227.2"/>
		<path class="st10" d="M45,377.8h179.9c28.4,0,37.1-15.2,32.5-36.5l-4.1-13.7L193,123.2 M415.5,123.3l63.9,216.7
			c9.1,26.9,10.2,37.7,41.8,37.7H915 M915,680H623c-31.1,0-40.3,12.7-32.1,39l34.6,117.8 M402.9,836.8l-34.7-118.7
			c-9.2-29.7-14.5-38.1-46-38.1H45"/>
		<path class="st11" d="M315.5,324.7C362.6,454.8,448.8,540.9,641.8,597"/>
		<path class="st11" d="M657.1,491.4C526,495.1,422,597.6,448.7,756.3"/>
		<line class="st11" x1="288.4" y1="620.9" x2="487.4" y2="620.9"/>
	</g>
</g>
</svg>
