<?xml version="1.0" encoding="utf-8"?>
<!-- Generator: Adobe Illustrator 19.2.0, SVG Export Plug-In . SVG Version: 6.00 Build 0)  -->
<svg version="1.1" id="Livello_1" xmlns="http://www.w3.org/2000/svg" xmlns:xlink="http://www.w3.org/1999/xlink" x="0px" y="0px"
	 viewBox="0 0 960 960" style="enable-background:new 0 0 960 960;" xml:space="preserve">
<style type="text/css">
	.st0{fill-rule:evenodd;clip-rule:evenodd;fill:#FFFFFF;}
	.st1{fill-rule:evenodd;clip-rule:evenodd;fill:#CECFD1;}
	.st2{fill:none;stroke:#1A171B;stroke-width:3.8029;stroke-linecap:square;stroke-miterlimit:2.6131;}
	.st3{fill-rule:evenodd;clip-rule:evenodd;fill:#1A171B;}
	.st4{fill-rule:evenodd;clip-rule:evenodd;fill:#E43417;stroke:#1A171B;stroke-width:1.1409;stroke-miterlimit:2.6131;}
	.st5{fill-rule:evenodd;clip-rule:evenodd;fill:#FFFFFF;stroke:#1A171B;stroke-width:1.1409;stroke-miterlimit:2.6131;}
	.st6{fill:none;stroke:#1A171B;stroke-width:1.5212;stroke-miterlimit:2.6131;}
	.st7{fill-rule:evenodd;clip-rule:evenodd;fill:#1A171B;stroke:#1A171B;stroke-width:1.1409;stroke-miterlimit:2.6131;}
	
		.st8{fill:none;stroke:#1A171B;stroke-width:3.8029;stroke-linecap:square;stroke-miterlimit:2.6131;stroke-dasharray:19.0144,19.0144;}
	.st9{fill:none;stroke:#1A171B;stroke-width:1.1409;stroke-linecap:square;stroke-miterlimit:2.6131;}
	.st10{fill-rule:evenodd;clip-rule:evenodd;fill:#00A6E2;stroke:#1A171B;stroke-width:1.1409;stroke-miterlimit:2.6131;}
	.st11{fill-rule:evenodd;clip-rule:evenodd;fill:#3D3D3F;stroke:#1A171B;stroke-width:1.1409;stroke-miterlimit:2.6131;}
	.st12{fill:none;stroke:#FFFFFF;stroke-width:1.5212;stroke-miterlimit:2.6131;}
</style>
<g>
	<g>
		<polygon class="st0" points="619.8,840 340.4,840 340.4,600.7 96.9,600.7 96.9,292.7 340.4,292.7 340.4,120.1 619.8,120.1 
			619.8,292.7 863.1,292.7 863.1,600.7 619.8,600.7 619.8,840 		"/>
		<path class="st1" d="M597,840H362.5V609.4c0-22.5-8.7-31.7-30.8-31.7H96.9V315.2h234.8c22.1,0,30.8-8.6,30.8-31.2V120.1H597
			l0.1,163.8c0,22.5,8.5,31.2,31.3,31.2h234.7v262.5H628.3c-22.7,0-31.2,7.4-31.3,31.7L597,840L597,840z"/>
		<path class="st2" d="M340.4,840V600.6l-243.5,0.1 M96.9,292.6h243.5V120 M619.8,120v172.6l243.3,0.1 M863.1,600.6H619.8V840"/>
		<path class="st3" d="M829.8,465.6h-9.9l-3.9-10.3h-18.1l-3.7,10.3h-9.7l17.6-45.2h9.7L829.8,465.6L829.8,465.6z M812.9,447.7
			l-6.2-16.8l-6.1,16.8H812.9L812.9,447.7z"/>
		<path class="st3" d="M286.4,707.3v-45.2h19.2c4.8,0,8.3,0.4,10.5,1.2c2.2,0.8,3.9,2.3,5.3,4.3c1.3,2.1,2,4.5,2,7.1
			c0,3.4-1,6.2-3,8.4c-2,2.2-5,3.6-8.9,4.2c2,1.2,3.6,2.4,4.9,3.8c1.3,1.4,3,3.8,5.2,7.3l5.5,8.8h-10.9l-6.6-9.8
			c-2.3-3.5-3.9-5.7-4.8-6.6c-0.9-0.9-1.8-1.5-2.7-1.9c-1-0.3-2.5-0.5-4.6-0.5h-1.8v18.9H286.4L286.4,707.3z M295.6,681.2h6.7
			c4.4,0,7.1-0.2,8.2-0.5c1.1-0.4,1.9-1,2.6-1.9c0.6-0.9,0.9-2,0.9-3.4c0-1.5-0.4-2.7-1.2-3.7c-0.8-0.9-2-1.5-3.4-1.8
			c-0.7-0.1-3-0.2-6.7-0.2h-7.1V681.2L295.6,681.2z"/>
		<path class="st3" d="M665.4,690.6l8.8,2.8c-1.4,4.9-3.6,8.6-6.8,11c-3.1,2.4-7.2,3.6-12,3.6c-6,0-10.9-2.1-14.8-6.1
			c-3.9-4.1-5.8-9.7-5.8-16.8c0-7.5,2-13.4,5.8-17.5c3.9-4.2,9-6.2,15.3-6.2c5.5,0,10,1.6,13.5,4.9c2.1,1.9,3.6,4.7,4.6,8.3l-9,2.2
			c-0.5-2.3-1.6-4.2-3.3-5.6c-1.7-1.4-3.8-2-6.2-2c-3.3,0-6.1,1.2-8.2,3.6c-2.1,2.4-3.1,6.3-3.1,11.7c0,5.7,1,9.8,3.1,12.2
			c2.1,2.4,4.7,3.6,8,3.6c2.4,0,4.5-0.8,6.3-2.3C663.3,696.4,664.6,693.9,665.4,690.6L665.4,690.6z"/>
		<polygon class="st0" points="630.1,401.3 791,401.3 791,394.6 630.1,394.6 630.1,401.3 		"/>
		<polygon class="st0" points="821.9,402.7 863.1,402.7 863.1,396 821.9,396 821.9,402.7 		"/>
		<polygon class="st0" points="630.1,487.7 791,487.7 791,480.9 630.1,480.9 630.1,487.7 		"/>
		<polygon class="st0" points="620.2,497.7 863.1,497.7 863.1,490.9 620.2,490.9 620.2,497.7 		"/>
		<polygon class="st0" points="638.4,497.6 620.2,497.6 620.2,313.4 638.4,313.4 638.4,497.6 		"/>
		<polygon class="st0" points="439.7,282.4 439.7,120.1 433,120.1 433,282.4 439.7,282.4 		"/>
		<polygon class="st0" points="516.3,282.4 516.3,120.1 509.6,120.1 509.6,282.4 516.3,282.4 		"/>
		<polygon class="st0" points="526.3,292.3 526.3,120.1 519.6,120.1 519.6,292.3 526.3,292.3 		"/>
		<polygon class="st0" points="526.2,274.1 526.2,292.3 354.6,292.3 354.6,274.1 526.2,274.1 		"/>
		<polygon class="st0" points="516.9,611.1 516.9,840 523.6,840 523.6,611.1 516.9,611.1 		"/>
		<polygon class="st0" points="436.1,611.1 436.1,840 442.8,840 442.8,611.1 436.1,611.1 		"/>
		<polygon class="st0" points="360.5,618.8 360.5,600.6 600.4,600.6 600.4,618.8 360.5,618.8 		"/>
		<polygon class="st0" points="329.9,490.8 169,490.8 169,497.5 329.9,497.5 329.9,490.8 		"/>
		<polygon class="st0" points="138.1,489.4 96.9,489.4 96.9,496.1 138.1,496.1 138.1,489.4 		"/>
		<polygon class="st0" points="329.9,404.4 169,404.4 169,411.2 329.9,411.2 329.9,404.4 		"/>
		<polygon class="st0" points="339.8,394.4 96.9,394.4 96.9,401.2 339.8,401.2 339.8,394.4 		"/>
		<polygon class="st0" points="321.6,394.5 339.8,394.5 339.8,578.7 321.6,578.7 321.6,394.5 		"/>
		<path class="st4" d="M762.7,462.6c-9.7,1.4-23,3.5-37.2,3.6c-11.4,0-22.7,0-34.2,0c-15-1-26.9-0.6-38.4-4.2
			c-2.2-0.6-7.6-3.8-7.6-7.7v-29c0-4.6,6-5.9,7.6-6.4c11.5-2.8,23.5-3.9,38.3-3.9h34.5c13.5,0,26.9,1.4,37.1,3.3
			c2.8,0.6,7.8,1.2,7.8,7.2v29.3C770.5,462.9,766.8,462,762.7,462.6L762.7,462.6z"/>
		<path class="st5" d="M693.7,459l-12.6,2c-4.9-13.8-4.5-26.1,0-40.9l12.6,1.8C690.5,436.6,690.2,443.6,693.7,459L693.7,459z"/>
		<path class="st5" d="M746.9,458.2l-7.8-2.6c1.9-10.4,1.9-20.6,0.1-30.4l7.6-2.8C749,434,748.7,446.3,746.9,458.2L746.9,458.2z"/>
		<line class="st6" x1="734.6" y1="461.3" x2="698.4" y2="461.1"/>
		<line class="st6" x1="734.6" y1="420" x2="698.4" y2="419.8"/>
		<polygon class="st7" points="560.8,422.9 554.1,452.3 567.5,452.3 560.8,422.9 		"/>
		<line class="st8" x1="561" y1="614.1" x2="561" y2="450.9"/>
		<polygon class="st7" points="559.3,252.7 552.6,282.1 566,282.1 559.3,252.7 		"/>
		<path class="st8" d="M642.6,439c-81.6,0-81.6-60.1-82.6-156.5"/>
		<polygon class="st7" points="263.3,353.5 292.7,346.8 292.7,360.2 263.3,353.5 		"/>
		<path class="st8" d="M400.4,619.3c0-10.7,0.3-181.3,0-191.2c-2.3-67-26.2-74.4-107.3-74.4"/>
		<path class="st9" d="M863.1,577.6H628.3c-22.7,0-31.2,7.4-31.3,31.7V840 M362.5,839.9V609.3c0-22.5-8.7-31.7-30.8-31.7H96.9
			 M96.9,315.1h234.8c22.1,0,30.8-8.6,30.8-31.3V120 M597,120l0.1,163.8c0,22.5,8.5,31.3,31.3,31.3h234.7"/>
		<path class="st10" d="M538.5,741.5c-1.4-9.7-3.5-23-3.6-37.2c0-11.4,0-22.7,0-34.2c1-15,0.6-26.9,4.2-38.4
			c0.6-2.2,3.8-7.6,7.7-7.6h29c4.6,0,5.9,6,6.4,7.6c2.8,11.5,3.9,23.5,3.9,38.3v34.5c0,13.5-1.4,26.9-3.3,37.1
			c-0.6,2.8-1.2,7.8-7.2,7.8h-29.3C538.2,749.3,539.1,745.6,538.5,741.5L538.5,741.5z"/>
		<path class="st5" d="M542.1,672.5l-2-12.6c13.8-4.9,26.1-4.5,40.9,0l-1.8,12.6C564.5,669.3,557.5,669,542.1,672.5L542.1,672.5z"/>
		<path class="st5" d="M542.9,725.7l2.6-7.8c10.4,1.9,20.6,1.9,30.4,0.1l2.8,7.6C567.1,727.8,554.8,727.5,542.9,725.7L542.9,725.7z"
			/>
		<line class="st6" x1="539.8" y1="713.4" x2="540" y2="677.2"/>
		<line class="st6" x1="581.1" y1="713.4" x2="581.3" y2="677.2"/>
		<path class="st11" d="M377.1,741.6c-1.4-9.7-3.5-23-3.6-37.2c0-11.4,0-22.7,0-34.2c1-15,0.6-26.9,4.2-38.4
			c0.6-2.2,3.8-7.6,7.7-7.6h29c4.6,0,5.9,6,6.4,7.6c2.8,11.5,3.9,23.5,3.9,38.3v34.5c0,13.5-1.4,26.9-3.3,37.1
			c-0.6,2.8-1.2,7.8-7.2,7.8h-29.3C376.9,749.3,377.7,745.6,377.1,741.6L377.1,741.6z"/>
		<path class="st5" d="M380.8,672.5l-2-12.6c13.8-4.9,26.1-4.5,40.9,0l-1.8,12.6C403.1,669.3,396.1,669,380.8,672.5L380.8,672.5z"/>
		<path class="st5" d="M381.5,725.7l2.6-7.8c10.4,1.9,20.6,1.9,30.4,0.2l2.8,7.6C405.7,727.8,393.4,727.5,381.5,725.7L381.5,725.7z"
			/>
		<line class="st12" x1="378.4" y1="713.4" x2="378.6" y2="677.2"/>
		<line class="st12" x1="419.7" y1="713.4" x2="419.9" y2="677.2"/>
		<polygon class="st0" points="547.3,840 547.3,788.6 564.1,775.5 564.1,760.1 575.3,786.5 564.1,813.1 564.1,797.7 553.6,806.1 
			553.7,840 547.3,840 		"/>
		<polygon class="st0" points="483,840 483.1,801.7 491.4,801.7 479.7,760.1 468.3,801.5 476.6,801.5 476.5,840 483,840 		"/>
		<polygon class="st0" points="412,840 412,788.6 395.2,775.5 395.2,760.1 384,786.5 395.2,813.1 395.2,797.7 405.6,806.1 
			405.5,840 412,840 		"/>
	</g>
</g>
</svg>
