<?xml version="1.0" encoding="utf-8"?>
<!-- Generator: Adobe Illustrator 19.2.0, SVG Export Plug-In . SVG Version: 6.00 Build 0)  -->
<svg version="1.1" id="Livello_1" xmlns="http://www.w3.org/2000/svg" xmlns:xlink="http://www.w3.org/1999/xlink" x="0px" y="0px"
	 viewBox="0 0 960 960" style="enable-background:new 0 0 960 960;" xml:space="preserve">
<style type="text/css">
	.st0{fill-rule:evenodd;clip-rule:evenodd;fill:#FFFFFF;}
	.st1{fill-rule:evenodd;clip-rule:evenodd;fill:#CECFD1;}
	.st2{fill:none;stroke:#1A171B;stroke-width:4.0481;stroke-linecap:square;stroke-miterlimit:2.6131;}
	.st3{fill:none;stroke:#1A171B;stroke-width:1.2144;stroke-linecap:square;stroke-miterlimit:2.6131;}
	.st4{fill-rule:evenodd;clip-rule:evenodd;fill:#409951;stroke:#1A171B;stroke-width:1.2144;stroke-miterlimit:2.6131;}
	.st5{fill-rule:evenodd;clip-rule:evenodd;fill:#FFFFFF;stroke:#1A171B;stroke-width:1.2144;stroke-miterlimit:2.6131;}
	.st6{fill:none;stroke:#1A171B;stroke-width:1.6193;stroke-miterlimit:2.6131;}
	.st7{fill-rule:evenodd;clip-rule:evenodd;fill:#00A6E2;stroke:#1A171B;stroke-width:1.2144;stroke-miterlimit:2.6131;}
	.st8{fill-rule:evenodd;clip-rule:evenodd;fill:#E43417;stroke:#1A171B;stroke-width:1.2144;stroke-miterlimit:2.6131;}
	.st9{fill-rule:evenodd;clip-rule:evenodd;fill:#1A171B;stroke:#1A171B;stroke-width:1.2144;stroke-miterlimit:2.6131;}
	
		.st10{fill:none;stroke:#1A171B;stroke-width:4.0481;stroke-linecap:square;stroke-miterlimit:2.6131;stroke-dasharray:20.2406,20.2406;}
	.st11{fill-rule:evenodd;clip-rule:evenodd;fill:#1A171B;}
</style>
<g>
	<g>
		<polygon class="st0" points="722.2,807.6 451.4,807.6 387.7,564.7 45,564.8 45,272.1 326.6,272.1 326.6,152.4 590,152.4 
			589.9,272.1 914.9,272.1 915,564.7 658.6,564.7 722.2,807.6 		"/>
		<path class="st1" d="M703.3,807.6H469.8l-62.5-238.4c-5.5-16.1-10.5-20.9-29.3-22.1L45,547V289.2h275.8c17.6,0,23.4-5.8,23.4-23.6
			V152.4h228v113.3c0,17.8,5.1,23.6,22.8,23.6h320V547H657.6c-15.4,0.3-19.8,8.9-17.2,20.8L703.3,807.6L703.3,807.6z"/>
		<path class="st2" d="M589.9,152.4v119.7l325-0.1 M915,564.8H658.6l62.6,242.8 M450.4,807.6l-62.7-242.8H45 M45,272.1h281.6
			l-0.1-119.7"/>
		<polygon class="st0" points="650.3,583.8 645.1,564.9 403.5,565 408.5,583.6 650.3,583.8 		"/>
		<polygon class="st0" points="398.7,272.1 398.7,152.4 391.7,152.4 391.7,272.1 398.7,272.1 		"/>
		<polygon class="st0" points="453.1,272.1 453.1,152.4 446,152.4 446,272.1 453.1,272.1 		"/>
		<polygon class="st0" points="465.2,272.1 465.2,152.4 458.1,152.4 458.1,272.1 465.2,272.1 		"/>
		<polygon class="st0" points="461.8,252.8 461.8,272.1 338.9,272.1 338.9,252.8 461.8,252.8 		"/>
		<polygon class="st0" points="589.3,330.8 821.3,330.8 821.3,323.7 589.3,323.7 589.3,330.8 		"/>
		<polygon class="st0" points="854.1,330.8 897.6,330.8 897.6,323.7 854.1,323.7 854.1,330.8 		"/>
		<polygon class="st0" points="589.3,372.5 821.3,372.5 821.3,365.5 589.3,365.5 589.3,372.5 		"/>
		<polygon class="st0" points="854.1,372.5 897.6,372.5 897.6,365.5 854.1,365.5 854.1,372.5 		"/>
		<polygon class="st0" points="589.3,413.9 821.3,413.9 821.3,406.8 589.3,406.8 589.3,413.9 		"/>
		<polygon class="st0" points="589.3,424.5 915,424.5 915,417.4 589.3,417.4 589.3,424.5 		"/>
		<polygon class="st0" points="608.5,421.1 589.3,421.1 589.3,289.2 608.5,289.2 608.5,421.1 		"/>
		<polygon class="st0" points="111.5,505.1 67.9,505.1 67.9,512.2 111.5,512.2 111.5,505.1 		"/>
		<polygon class="st0" points="111.3,463.4 67.8,463.4 67.8,470.5 111.4,470.5 111.3,463.4 		"/>
		<polygon class="st0" points="329.9,414.9 349.2,414.9 384.5,548.2 365.2,548.2 329.9,414.9 		"/>
		<polygon class="st0" points="371.3,505.1 144.3,505.1 144.3,512.2 373.2,512.2 371.3,505.1 		"/>
		<polygon class="st0" points="361.1,463.4 144.3,463.4 144.3,470.5 363,470.5 361.1,463.4 		"/>
		<polygon class="st0" points="349.9,422 144.3,422 144.3,429.1 351.7,429.1 349.9,422 		"/>
		<polygon class="st0" points="347.9,409.9 45,409.9 45,417 349.8,417 347.9,409.9 		"/>
		<path class="st3" d="M572.2,153.1v112.6c0,17.8,5.1,23.6,22.8,23.6l320-0.1 M915,547.1H657.6c-15.4,0.3-19.8,8.9-17.2,20.8
			L704,807.6 M469.8,807.6l-62.5-238.4c-5.5-16.1-10.5-21-29.3-22.1l-333-0.1 M45,289.2h275.8c17.6,0,23.4-5.8,23.4-23.6V152.4"/>
		<path class="st4" d="M816.8,402.4c-5.6,0.8-13.2,2-21.3,2.1c-6.5,0-13,0-19.6,0c-8.6-0.6-15.4-0.3-22-2.4
			c-1.3-0.3-4.4-2.2-4.4-4.4V381c0-2.7,3.4-3.4,4.4-3.6c6.6-1.6,13.4-2.2,21.9-2.2h19.8c7.7,0,15.4,0.8,21.2,1.9
			c1.6,0.3,4.4,0.7,4.4,4.1V398C821.3,402.5,819.2,402,816.8,402.4L816.8,402.4z"/>
		<path class="st5" d="M777.3,400.3l-7.2,1.1c-2.8-7.9-2.6-15,0-23.4l7.2,1C775.5,387.5,775.3,391.5,777.3,400.3L777.3,400.3z"/>
		<path class="st5" d="M807.8,399.9l-4.5-1.5c1.1-6,1.1-11.8,0.1-17.4l4.4-1.6C809,386,808.8,393.1,807.8,399.9L807.8,399.9z"/>
		<line class="st6" x1="800.8" y1="401.6" x2="780.1" y2="401.5"/>
		<line class="st6" x1="800.8" y1="378" x2="780.1" y2="377.9"/>
		<path class="st7" d="M537,661.1c-2.2-5.2-5.3-12.2-7.5-20c-1.7-6.3-3.4-12.6-5.1-18.9c-1.7-8.4-3.7-15-3.4-21.9
			c0-1.3,1-4.8,3.1-5.4l16-4.3c2.6-0.7,4.2,2.4,4.7,3.3c3.2,6,5.6,12.4,7.8,20.6l5.1,19.1c2,7.4,3.2,15.1,3.7,21
			c0.1,1.7,0.5,4.5-2.9,5.4l-16.2,4.3C538,665.4,537.9,663.2,537,661.1L537,661.1z"/>
		<path class="st5" d="M528.7,622.4l-2.9-6.6c6.9-4.8,13.8-6.4,22.6-6.1l0.9,7.2C540.6,617.3,536.7,618.2,528.7,622.4L528.7,622.4z"
			/>
		<path class="st5" d="M537,651.7l0.3-4.7c6.1-0.5,11.7-2,16.8-4.4l2.7,3.8C550.7,649.3,543.9,650.9,537,651.7L537,651.7z"/>
		<line class="st6" x1="533.5" y1="645.4" x2="528.2" y2="625.3"/>
		<line class="st6" x1="556.3" y1="639.2" x2="551.1" y2="619.2"/>
		<path class="st8" d="M272.4,475.4c5.6-0.8,13.2-2,21.3-2.1c6.5,0,13,0,19.6,0c8.6,0.6,15.4,0.3,22,2.4c1.3,0.3,4.4,2.2,4.4,4.4
			v16.6c0,2.7-3.4,3.4-4.4,3.6c-6.6,1.6-13.4,2.2-21.9,2.2h-19.8c-7.7,0-15.4-0.8-21.2-1.9c-1.6-0.3-4.4-0.7-4.4-4.1v-16.7
			C268,475.3,270.1,475.8,272.4,475.4L272.4,475.4z"/>
		<path class="st5" d="M311.9,477.5l7.2-1.1c2.8,7.9,2.6,15,0,23.4l-7.2-1C313.7,490.3,313.9,486.3,311.9,477.5L311.9,477.5z"/>
		<path class="st5" d="M281.5,477.9l4.5,1.5c-1.1,6-1.1,11.8-0.1,17.4l-4.4,1.6C280.3,491.8,280.5,484.7,281.5,477.9L281.5,477.9z"
			/>
		<line class="st6" x1="288.5" y1="476.2" x2="309.2" y2="476.3"/>
		<line class="st6" x1="288.5" y1="499.8" x2="309.2" y2="499.9"/>
		<polygon class="st9" points="514.5,219.8 501.2,246.5 514.1,249.6 514.5,219.8 		"/>
		<path class="st10" d="M343.4,488.8c113.4-3.8,151.1-169.1,164.7-240.8"/>
		<polygon class="st9" points="187.6,346.9 215.5,339.8 215.8,352.6 187.6,346.9 		"/>
		<path class="st10" d="M748.6,389.3c-87.9-0.5-36.3-43-165.9-42.8l-367.3,0"/>
		<polygon class="st9" points="518.7,175 524.7,203.1 512,203 518.7,175 		"/>
		<path class="st10" d="M531,591.1c-16.6-92.1-11.6-211.3-12.7-388.8"/>
		<polygon class="st0" points="569.2,566.3 632.3,807.6 624.9,807.6 561.7,566.3 569.2,566.3 		"/>
		<polygon class="st0" points="487.3,566.3 550.3,807.6 543,807.6 479.8,566.3 487.3,566.3 		"/>
		<path class="st11" d="M566.7,697.4l7.3,2.3c-1.1,4.1-3,7.1-5.6,9.1c-2.6,2-5.9,3-10,3c-5,0-9.1-1.7-12.3-5.1
			c-3.2-3.4-4.8-8.1-4.8-14c0-6.3,1.6-11.1,4.8-14.6c3.2-3.5,7.5-5.2,12.7-5.2c4.6,0,8.3,1.4,11.2,4.1c1.7,1.6,3,3.9,3.8,6.9
			l-7.5,1.8c-0.4-1.9-1.4-3.5-2.8-4.6c-1.4-1.1-3.1-1.7-5.1-1.7c-2.8,0-5,1-6.8,3c-1.7,2-2.6,5.2-2.6,9.7c0,4.7,0.8,8.1,2.6,10.1
			c1.7,2,3.9,3,6.7,3c2,0,3.7-0.6,5.2-1.9C565,702.1,566,700.1,566.7,697.4L566.7,697.4z"/>
		<path class="st11" d="M225.6,494.5l7.4-0.7c0.4,2.5,1.3,4.3,2.7,5.5c1.4,1.2,3.2,1.7,5.5,1.7c2.4,0,4.3-0.5,5.5-1.6
			c1.2-1,1.9-2.2,1.9-3.6c0-0.9-0.3-1.6-0.8-2.3c-0.5-0.6-1.4-1.2-2.7-1.6c-0.9-0.3-2.9-0.9-6.1-1.6c-4.1-1-6.9-2.2-8.5-3.7
			c-2.3-2.1-3.5-4.6-3.5-7.6c0-1.9,0.5-3.7,1.6-5.4c1.1-1.7,2.6-2.9,4.7-3.8c2-0.9,4.5-1.3,7.4-1.3c4.7,0,8.3,1,10.6,3.1
			c2.4,2.1,3.6,4.8,3.8,8.3l-7.6,0.3c-0.3-1.9-1-3.3-2.1-4.2c-1.1-0.8-2.7-1.3-4.8-1.3c-2.2,0-3.9,0.4-5.2,1.4
			c-0.8,0.6-1.2,1.4-1.2,2.3c0,0.9,0.4,1.7,1.1,2.3c1,0.8,3.3,1.6,7,2.5c3.7,0.9,6.4,1.8,8.2,2.7c1.8,0.9,3.1,2.2,4.2,3.8
			c1,1.6,1.5,3.6,1.5,6c0,2.2-0.6,4.2-1.8,6c-1.2,1.9-2.9,3.3-5.1,4.2c-2.2,0.9-4.9,1.4-8.2,1.4c-4.7,0-8.4-1.1-10.9-3.3
			C227.6,501.9,226.1,498.7,225.6,494.5L225.6,494.5z"/>
		<path class="st11" d="M776.9,434.6h15c3,0,5.2,0.1,6.7,0.4c1.5,0.2,2.8,0.8,3.9,1.5c1.2,0.8,2.1,1.8,2.9,3.1
			c0.8,1.3,1.2,2.8,1.2,4.4c0,1.8-0.5,3.4-1.4,4.8c-1,1.5-2.2,2.6-3.9,3.3c2.3,0.7,4.1,1.8,5.3,3.4c1.2,1.6,1.8,3.5,1.8,5.7
			c0,1.7-0.4,3.4-1.2,5c-0.8,1.6-1.9,2.9-3.3,3.9c-1.4,1-3.1,1.6-5.1,1.8c-1.3,0.1-4.3,0.2-9.1,0.3h-12.8V434.6L776.9,434.6z
			 M784.5,440.8v8.7h5c3,0,4.8,0,5.5-0.1c1.3-0.2,2.3-0.6,3.1-1.3c0.7-0.7,1.1-1.7,1.1-2.9c0-1.2-0.3-2.1-1-2.8
			c-0.6-0.7-1.6-1.2-2.9-1.3c-0.8-0.1-2.9-0.1-6.5-0.1H784.5L784.5,440.8z M784.5,455.8v10h7c2.7,0,4.5-0.1,5.2-0.2
			c1.1-0.2,2-0.7,2.8-1.5c0.7-0.8,1.1-1.9,1.1-3.2c0-1.1-0.3-2.1-0.8-2.9c-0.5-0.8-1.3-1.4-2.4-1.7c-1-0.4-3.3-0.5-6.7-0.5H784.5
			L784.5,455.8z"/>
	</g>
</g>
</svg>
