<?xml version="1.0" encoding="utf-8"?>
<!-- Generator: Adobe Illustrator 19.2.0, SVG Export Plug-In . SVG Version: 6.00 Build 0)  -->
<svg version="1.1" id="Livello_1" xmlns="http://www.w3.org/2000/svg" xmlns:xlink="http://www.w3.org/1999/xlink" x="0px" y="0px"
	 viewBox="0 0 960 960" style="enable-background:new 0 0 960 960;" xml:space="preserve">
<style type="text/css">
	.st0{fill-rule:evenodd;clip-rule:evenodd;fill:#FFFFFF;}
	.st1{fill-rule:evenodd;clip-rule:evenodd;fill:#CECFD1;}
	.st2{fill:none;stroke:#1A171B;stroke-width:3.8489;stroke-linecap:square;stroke-miterlimit:2.6131;}
	.st3{fill:none;stroke:#1A171B;stroke-width:1.1547;stroke-linecap:square;stroke-miterlimit:2.6131;}
	.st4{fill-rule:evenodd;clip-rule:evenodd;fill:#1A171B;}
	.st5{fill-rule:evenodd;clip-rule:evenodd;fill:#E43417;stroke:#1A171B;stroke-width:1.1547;stroke-miterlimit:2.6131;}
	.st6{fill-rule:evenodd;clip-rule:evenodd;fill:#FFFFFF;stroke:#1A171B;stroke-width:1.1547;stroke-miterlimit:2.6131;}
	.st7{fill:none;stroke:#1A171B;stroke-width:1.5396;stroke-miterlimit:2.6131;}
	.st8{fill-rule:evenodd;clip-rule:evenodd;fill:#00A6E2;stroke:#1A171B;stroke-width:1.1547;stroke-miterlimit:2.6131;}
	.st9{fill-rule:evenodd;clip-rule:evenodd;fill:#FFEC00;stroke:#1A171B;stroke-width:1.1547;stroke-miterlimit:2.6131;}
</style>
<g>
	<g>
		<polygon class="st0" points="694.3,821.1 266.3,821.1 266.3,619.6 45,619.6 45,339.6 266.3,339.6 266.3,138.9 694.3,138.9 
			694.3,339.6 914.5,339.6 914.5,619.6 694.3,619.6 694.3,821.1 		"/>
		<path class="st1" d="M674.1,821.1H286.3V627.5c0-20.4-7.9-28.8-28-28.8H45V360h213.4c20.1,0,28-7.8,28-28.4V138.9h387.8l0.1,192.7
			c0,20.4,7.7,28.4,28.4,28.4h211.6v238.6H702.6c-20.7,0-28.3,6.7-28.4,28.8L674.1,821.1L674.1,821.1z"/>
		<path class="st2" d="M266.3,821.1V619.5L45,619.6 M45,339.6h221.3V138.9 M694.3,138.9v200.6l220.2,0.1 M914.5,619.5H694.3v201.6"
			/>
		<polygon class="st0" points="414.6,330.3 414.6,138.9 409,138.9 409,330.3 414.6,330.3 		"/>
		<polygon class="st0" points="350.5,330.3 350.5,138.9 344.9,138.9 344.9,330.3 350.5,330.3 		"/>
		<polygon class="st0" points="479,330.3 479,138.9 473.4,138.9 473.4,330.3 479,330.3 		"/>
		<polygon class="st0" points="487.2,339.2 487.2,138.9 481.7,138.9 481.7,339.2 487.2,339.2 		"/>
		<polygon class="st0" points="487.2,322.7 487.2,339.2 286.5,339.2 286.5,322.7 487.2,322.7 		"/>
		<polygon class="st0" points="546.1,629.1 546.1,820.4 551.6,820.4 551.6,629.1 546.1,629.1 		"/>
		<polygon class="st0" points="610.2,629.1 610.2,820.4 615.8,820.4 615.8,629.1 610.2,629.1 		"/>
		<polygon class="st0" points="481.7,629.1 481.7,820.4 487.2,820.4 487.2,629.1 481.7,629.1 		"/>
		<polygon class="st0" points="473.4,620.1 473.4,820.4 479,820.4 479,620.1 473.4,620.1 		"/>
		<polygon class="st0" points="473.5,636.7 473.5,620.1 674.2,620.1 674.2,636.7 473.5,636.7 		"/>
		<polygon class="st0" points="257.3,539.3 111.1,539.3 111.1,544.8 257.3,544.8 257.3,539.3 		"/>
		<polygon class="st0" points="703.3,419.3 849.5,419.3 849.5,413.8 703.3,413.8 703.3,419.3 		"/>
		<polygon class="st0" points="82.9,538.1 45.5,538.1 45.5,543.6 82.9,543.6 82.9,538.1 		"/>
		<polygon class="st0" points="877.6,420.5 915,420.5 915,415 877.6,415 877.6,420.5 		"/>
		<polygon class="st0" points="257.3,480.3 111.1,480.3 111.1,485.8 257.3,485.8 257.3,480.3 		"/>
		<polygon class="st0" points="703.3,478.4 849.5,478.4 849.5,472.8 703.3,472.8 703.3,478.4 		"/>
		<polygon class="st0" points="262.5,472 45.5,472 45.5,477.5 262.5,477.5 262.5,472 		"/>
		<polygon class="st0" points="698.5,486.6 915,486.6 915,481.1 698.5,481.1 698.5,486.6 		"/>
		<polygon class="st0" points="249.7,472 264.7,472 264.7,610.9 249.7,610.9 249.7,472 		"/>
		<polygon class="st0" points="710.8,486.6 695.8,486.6 695.8,347.7 710.8,347.7 710.8,486.6 		"/>
		<path class="st3" d="M914.2,598.6H702.6c-20.7,0-28.3,6.7-28.4,28.8v193.7 M286.3,821V627.4c0-20.4-7.9-28.8-28-28.8H45 M45,360
			h213.4c20.1,0,28-7.8,28-28.4V138.9 M674.1,138.9l0.1,192.6c0,20.4,7.7,28.4,28.4,28.4h211.7"/>
		<path class="st4" d="M338,271.4h-9l-3.6-9.3H309l-3.4,9.3h-8.8l16-41.1h8.8L338,271.4L338,271.4z M322.8,255.1l-5.7-15.2
			l-5.5,15.2H322.8L322.8,255.1z"/>
		<path class="st4" d="M765.5,467.5v-41.1h13.3c5,0,8.3,0.2,9.9,0.6c2.3,0.6,4.3,1.9,5.9,4c1.6,2.1,2.4,4.7,2.4,8
			c0,2.5-0.5,4.6-1.4,6.4c-0.9,1.7-2.1,3.1-3.5,4.1c-1.4,1-2.8,1.6-4.3,1.9c-2,0.4-4.8,0.6-8.6,0.6h-5.4v15.5H765.5L765.5,467.5z
			 M773.8,433.4v11.6h4.5c3.3,0,5.5-0.2,6.6-0.6c1.1-0.4,2-1.1,2.6-2c0.6-0.9,0.9-2,0.9-3.2c0-1.5-0.4-2.7-1.3-3.7
			c-0.9-1-2-1.6-3.3-1.8c-1-0.2-3-0.3-6-0.3H773.8L773.8,433.4z"/>
		<path class="st4" d="M564.3,683.3h15.2c3.4,0,6,0.3,7.8,0.8c2.4,0.7,4.5,2,6.2,3.8c1.7,1.8,3,4,3.9,6.6c0.9,2.6,1.3,5.9,1.3,9.7
			c0,3.4-0.4,6.3-1.3,8.7c-1,3-2.5,5.4-4.4,7.2c-1.4,1.4-3.4,2.5-5.8,3.3c-1.8,0.6-4.3,0.9-7.3,0.9h-15.6V683.3L564.3,683.3z
			 M572.6,690.2v27.2h6.2c2.3,0,4-0.1,5-0.4c1.3-0.3,2.5-0.9,3.3-1.7c0.9-0.8,1.6-2.1,2.2-4c0.6-1.8,0.8-4.3,0.8-7.5
			c0-3.2-0.3-5.6-0.8-7.3c-0.6-1.7-1.3-3-2.3-4c-1-1-2.3-1.6-3.8-1.9c-1.2-0.3-3.4-0.4-6.8-0.4H572.6L572.6,690.2z"/>
		<path class="st5" d="M399,211.4c1.3,8.5,3,20.2,3.2,32.6c0,9.9,0,19.9,0,30c-0.9,13.1-0.5,23.6-3.7,33.6c-0.5,2-3.3,6.7-6.7,6.7
			h-25.4c-4.1,0-5.2-5.2-5.6-6.7c-2.4-10.1-3.4-20.5-3.4-33.5v-30.2c0-11.8,1.3-23.6,2.9-32.5c0.5-2.5,1-6.8,6.3-6.8h25.6
			C399.3,204.6,398.5,207.9,399,211.4L399,211.4z"/>
		<path class="st6" d="M395.9,271.9l1.7,11c-12.1,4.3-22.9,3.9-35.8,0l1.6-11C376.3,274.6,382.4,274.9,395.9,271.9L395.9,271.9z"/>
		<path class="st6" d="M395.2,225.3l-2.3,6.8c-9.1-1.7-18-1.7-26.6-0.1l-2.4-6.7C374,223.4,384.8,223.7,395.2,225.3L395.2,225.3z"/>
		<line class="st7" x1="397.9" y1="236" x2="397.8" y2="267.7"/>
		<line class="st7" x1="361.7" y1="236" x2="361.6" y2="267.7"/>
		<path class="st8" d="M497.2,748.5c-1.3-8.5-3-20.2-3.2-32.6c0-9.9,0-19.9,0-30c0.9-13.1,0.5-23.6,3.7-33.6c0.5-2,3.3-6.7,6.7-6.7
			h25.4c4.1,0,5.2,5.2,5.6,6.7c2.4,10.1,3.4,20.6,3.4,33.5V716c0,11.8-1.3,23.6-2.9,32.5c-0.5,2.5-1,6.8-6.3,6.8h-25.6
			C496.9,755.3,497.7,752,497.2,748.5L497.2,748.5z"/>
		<path class="st6" d="M500.4,688l-1.7-11c12.1-4.3,22.9-3.9,35.8,0l-1.6,11C520,685.3,513.8,685,500.4,688L500.4,688z"/>
		<path class="st6" d="M501,734.6l2.3-6.8c9.1,1.7,18,1.7,26.6,0.1l2.4,6.7C522.2,736.5,511.4,736.2,501,734.6L501,734.6z"/>
		<line class="st7" x1="498.3" y1="723.9" x2="498.5" y2="692.2"/>
		<line class="st7" x1="534.5" y1="723.9" x2="534.6" y2="692.2"/>
		<path class="st9" d="M822.5,406.3c-8.5,1.3-20.2,3-32.6,3.2c-9.9,0-19.9,0-30,0c-13.1-0.9-23.6-0.5-33.6-3.7
			c-2-0.5-6.7-3.3-6.7-6.7v-25.4c0-4.1,5.2-5.2,6.7-5.6c10.1-2.4,20.5-3.4,33.5-3.4h30.2c11.8,0,23.6,1.3,32.5,2.9
			c2.5,0.5,6.8,1,6.8,6.3v25.6C829.3,406.5,826.1,405.8,822.5,406.3L822.5,406.3z"/>
		<path class="st6" d="M762.1,403.1l-11,1.7c-4.3-12.1-3.9-22.9,0-35.8l11,1.6C759.3,383.5,759,389.7,762.1,403.1L762.1,403.1z"/>
		<path class="st6" d="M808.6,402.5l-6.8-2.3c1.7-9.1,1.7-18,0.1-26.6l6.7-2.4C810.5,381.3,810.2,392.1,808.6,402.5L808.6,402.5z"/>
		<line class="st7" x1="797.9" y1="405.1" x2="766.2" y2="405"/>
		<line class="st7" x1="797.9" y1="369" x2="766.2" y2="368.9"/>
	</g>
</g>
</svg>
