<?xml version="1.0" encoding="utf-8"?>
<!-- Generator: Adobe Illustrator 19.2.0, SVG Export Plug-In . SVG Version: 6.00 Build 0)  -->
<svg version="1.1" id="Livello_1" xmlns="http://www.w3.org/2000/svg" xmlns:xlink="http://www.w3.org/1999/xlink" x="0px" y="0px"
	 viewBox="0 0 960 960" style="enable-background:new 0 0 960 960;" xml:space="preserve">
<style type="text/css">
	.st0{fill-rule:evenodd;clip-rule:evenodd;fill:#FFFFFF;}
	.st1{fill-rule:evenodd;clip-rule:evenodd;fill:#CECFD1;}
	.st2{fill:none;stroke:#1A171B;stroke-width:4.0481;stroke-linecap:square;stroke-miterlimit:2.6131;}
	.st3{fill:none;stroke:#1A171B;stroke-width:1.2144;stroke-linecap:square;stroke-miterlimit:2.6131;}
	.st4{fill-rule:evenodd;clip-rule:evenodd;fill:#00A6E2;stroke:#1A171B;stroke-width:1.2144;stroke-miterlimit:2.6131;}
	.st5{fill-rule:evenodd;clip-rule:evenodd;fill:#FFFFFF;stroke:#1A171B;stroke-width:1.2144;stroke-miterlimit:2.6131;}
	.st6{fill:none;stroke:#1A171B;stroke-width:1.6193;stroke-miterlimit:2.6131;}
	.st7{fill-rule:evenodd;clip-rule:evenodd;fill:#499951;stroke:#1A171B;stroke-width:1.2144;stroke-miterlimit:2.6131;}
	.st8{fill-rule:evenodd;clip-rule:evenodd;fill:#E43417;stroke:#1A171B;stroke-width:1.2144;stroke-miterlimit:2.6131;}
	.st9{fill-rule:evenodd;clip-rule:evenodd;fill:#1A171B;stroke:#1A171B;stroke-width:1.2144;stroke-miterlimit:2.6131;}
	
		.st10{fill:none;stroke:#1A171B;stroke-width:4.0481;stroke-linecap:square;stroke-miterlimit:2.6131;stroke-dasharray:20.2406,20.2406;}
	.st11{fill-rule:evenodd;clip-rule:evenodd;fill:#1A171B;}
</style>
<g>
	<g>
		<polygon class="st0" points="722.2,807.6 451.4,807.6 387.7,564.7 45,564.8 45,272.1 326.6,272.1 326.6,152.4 590,152.4 
			589.9,272.1 914.9,272.1 915,564.7 658.6,564.7 722.2,807.6 		"/>
		<path class="st1" d="M703.3,807.6H469.8l-62.5-238.4c-5.5-16.1-10.5-20.9-29.3-22.1L45,547V289.2h275.8c17.6,0,23.4-5.8,23.4-23.6
			V152.4h228v113.3c0,17.8,5.1,23.6,22.8,23.6h320V547H657.6c-15.4,0.3-19.8,8.9-17.2,20.8L703.3,807.6L703.3,807.6z"/>
		<path class="st2" d="M589.9,152.4v119.7l325-0.1 M915,564.8H658.6l62.6,242.8 M450.4,807.6l-62.7-242.8H45 M45,272.1h281.6
			l-0.1-119.7"/>
		<polygon class="st0" points="650.3,583.8 645.1,564.9 403.5,565 408.5,583.6 650.3,583.8 		"/>
		<polygon class="st0" points="398.7,272.1 398.7,152.4 391.7,152.4 391.7,272.1 398.7,272.1 		"/>
		<polygon class="st0" points="453.1,272.1 453.1,152.4 446,152.4 446,272.1 453.1,272.1 		"/>
		<polygon class="st0" points="465.2,272.1 465.2,152.4 458.1,152.4 458.1,272.1 465.2,272.1 		"/>
		<polygon class="st0" points="461.8,252.8 461.8,272.1 338.9,272.1 338.9,252.8 461.8,252.8 		"/>
		<polygon class="st0" points="589.3,330.8 821.3,330.8 821.3,323.7 589.3,323.7 589.3,330.8 		"/>
		<polygon class="st0" points="854.1,330.8 897.6,330.8 897.6,323.7 854.1,323.7 854.1,330.8 		"/>
		<polygon class="st0" points="589.3,372.5 821.3,372.5 821.3,365.5 589.3,365.5 589.3,372.5 		"/>
		<polygon class="st0" points="854.1,372.5 897.6,372.5 897.6,365.5 854.1,365.5 854.1,372.5 		"/>
		<polygon class="st0" points="589.3,413.9 821.3,413.9 821.3,406.8 589.3,406.8 589.3,413.9 		"/>
		<polygon class="st0" points="589.3,424.5 915,424.5 915,417.4 589.3,417.4 589.3,424.5 		"/>
		<polygon class="st0" points="608.5,421.1 589.3,421.1 589.3,289.2 608.5,289.2 608.5,421.1 		"/>
		<polygon class="st0" points="111.5,505.1 67.9,505.1 67.9,512.2 111.5,512.2 111.5,505.1 		"/>
		<polygon class="st0" points="111.3,463.4 67.8,463.4 67.8,470.5 111.4,470.5 111.3,463.4 		"/>
		<polygon class="st0" points="329.9,414.9 349.2,414.9 384.5,548.2 365.2,548.2 329.9,414.9 		"/>
		<polygon class="st0" points="371.3,505.1 144.3,505.1 144.3,512.2 373.2,512.2 371.3,505.1 		"/>
		<polygon class="st0" points="361.1,463.4 144.3,463.4 144.3,470.5 363,470.5 361.1,463.4 		"/>
		<polygon class="st0" points="349.9,422 144.3,422 144.3,429.1 351.7,429.1 349.9,422 		"/>
		<polygon class="st0" points="347.9,409.9 45,409.9 45,417 349.8,417 347.9,409.9 		"/>
		<path class="st3" d="M572.2,153.1v112.6c0,17.8,5.1,23.6,22.8,23.6l320-0.1 M915,547.1H657.6c-15.4,0.3-19.8,8.9-17.2,20.8
			L704,807.6 M469.8,807.6l-62.5-238.4c-5.5-16.1-10.5-21-29.3-22.1l-333-0.1 M45,289.2h275.8c17.6,0,23.4-5.8,23.4-23.6V152.4"/>
		<path class="st4" d="M446.3,661.1c-2.2-5.2-5.3-12.2-7.5-20c-1.7-6.3-3.4-12.6-5.1-18.9c-1.7-8.4-3.7-15-3.4-21.9
			c0-1.3,1-4.8,3.1-5.4l16-4.3c2.6-0.7,4.2,2.4,4.7,3.3c3.2,6,5.6,12.4,7.8,20.6l5.1,19.1c2,7.4,3.2,15.1,3.7,21
			c0.1,1.7,0.5,4.5-2.9,5.4l-16.2,4.3C447.3,665.4,447.2,663.2,446.3,661.1L446.3,661.1z"/>
		<path class="st5" d="M438.1,622.4l-2.9-6.6c6.9-4.8,13.8-6.4,22.6-6.1l0.9,7.2C450,617.3,446,618.2,438.1,622.4L438.1,622.4z"/>
		<path class="st5" d="M446.4,651.7l0.3-4.7c6.1-0.5,11.7-2,16.8-4.4l2.7,3.8C460,649.3,453.2,650.9,446.4,651.7L446.4,651.7z"/>
		<line class="st6" x1="442.9" y1="645.4" x2="437.6" y2="625.3"/>
		<line class="st6" x1="465.7" y1="639.2" x2="460.4" y2="619.2"/>
		<path class="st7" d="M381.3,179.8c0.8,5.6,2,13.2,2.1,21.3c0,6.5,0,13,0,19.6c-0.6,8.6-0.3,15.4-2.4,22c-0.3,1.3-2.2,4.4-4.4,4.4
			H360c-2.7,0-3.4-3.4-3.6-4.4c-1.6-6.6-2.2-13.4-2.2-21.9V201c0-7.7,0.8-15.4,1.9-21.2c0.3-1.6,0.7-4.5,4.1-4.5h16.7
			C381.4,175.3,380.9,177.5,381.3,179.8L381.3,179.8z"/>
		<path class="st5" d="M379.2,219.3l1.1,7.2c-7.9,2.8-15,2.6-23.4,0l1-7.2C366.4,221.1,370.4,221.3,379.2,219.3L379.2,219.3z"/>
		<path class="st5" d="M378.8,188.9l-1.5,4.5c-6-1.1-11.8-1.1-17.4-0.1l-1.6-4.4C364.9,187.7,372,187.8,378.8,188.9L378.8,188.9z"/>
		<line class="st6" x1="380.5" y1="195.9" x2="380.4" y2="216.6"/>
		<line class="st6" x1="356.9" y1="195.9" x2="356.8" y2="216.6"/>
		<path class="st8" d="M682.4,360.7c-5.6,0.8-13.2,2-21.3,2.1c-6.5,0-13,0-19.6,0c-8.6-0.6-15.4-0.3-22-2.4
			c-1.3-0.3-4.4-2.2-4.4-4.4v-16.6c0-2.7,3.4-3.4,4.4-3.6c6.6-1.6,13.4-2.2,21.9-2.2h19.8c7.7,0,15.4,0.8,21.2,1.9
			c1.6,0.3,4.5,0.7,4.5,4.1v16.7C686.9,360.9,684.7,360.4,682.4,360.7L682.4,360.7z"/>
		<path class="st5" d="M642.9,358.7l-7.2,1.1c-2.8-7.9-2.6-15,0-23.4l7.2,1C641.1,345.9,640.9,349.9,642.9,358.7L642.9,358.7z"/>
		<path class="st5" d="M673.3,358.3l-4.5-1.5c1.1-6,1.1-11.8,0.1-17.4l4.4-1.6C674.5,344.4,674.4,351.5,673.3,358.3L673.3,358.3z"/>
		<line class="st6" x1="666.3" y1="360" x2="645.6" y2="359.9"/>
		<line class="st6" x1="666.3" y1="336.4" x2="645.6" y2="336.3"/>
		<polygon class="st9" points="249.9,315.8 279,309.2 279,322.4 249.9,315.8 		"/>
		<path class="st10" d="M367.9,250.7c-0.4,56.2-7.6,66.4-87.6,65.5"/>
		<polygon class="st9" points="519.4,196.6 526,225.7 512.8,225.7 519.4,196.6 		"/>
		<path class="st10" d="M611.5,347.4C541.7,347.6,519.1,307,520,227"/>
		<polygon class="st9" points="132.9,309.6 161.1,319.4 162.6,306.3 132.9,309.6 		"/>
		<path class="st10" d="M440.1,591.5c-24.2-90.1-72.1-268.9-277-278"/>
		<polygon class="st0" points="569.2,566.3 632.3,807.6 624.9,807.6 561.7,566.3 569.2,566.3 		"/>
		<polygon class="st0" points="487.3,566.3 550.3,807.6 543,807.6 479.8,566.3 487.3,566.3 		"/>
		<polygon class="st11" points="409.4,227.2 409.4,189.6 437.2,189.6 437.2,196 417,196 417,204.3 435.8,204.3 435.8,210.6 
			417,210.6 417,220.9 438,220.9 438,227.2 409.4,227.2 		"/>
		<path class="st11" d="M497.3,713.7H489l-3.3-8.5h-15l-3.1,8.5h-8l14.6-37.5h8L497.3,713.7L497.3,713.7z M483.3,698.8l-5.2-13.9
			l-5.1,13.9H483.3L483.3,698.8z"/>
		<path class="st11" d="M725.6,353.1l7.3,2.3c-1.1,4.1-3,7.1-5.6,9.1c-2.6,2-5.9,3-10,3c-5,0-9.1-1.7-12.3-5.1
			c-3.2-3.4-4.8-8.1-4.8-14c0-6.2,1.6-11.1,4.8-14.6c3.2-3.5,7.5-5.2,12.7-5.2c4.6,0,8.3,1.4,11.2,4.1c1.7,1.6,3,3.9,3.8,6.9
			l-7.5,1.8c-0.4-1.9-1.4-3.5-2.8-4.6c-1.4-1.1-3.1-1.7-5.1-1.7c-2.8,0-5,1-6.8,3c-1.7,2-2.6,5.2-2.6,9.7c0,4.7,0.9,8.1,2.6,10.1
			c1.7,2,3.9,3,6.6,3c2,0,3.8-0.6,5.2-1.9C723.9,357.9,725,355.9,725.6,353.1L725.6,353.1z"/>
	</g>
</g>
</svg>
