<?xml version="1.0" encoding="utf-8"?>
<!-- Generator: Adobe Illustrator 19.2.0, SVG Export Plug-In . SVG Version: 6.00 Build 0)  -->
<svg version="1.1" id="Livello_1" xmlns="http://www.w3.org/2000/svg" xmlns:xlink="http://www.w3.org/1999/xlink" x="0px" y="0px"
	 viewBox="0 0 960 960" style="enable-background:new 0 0 960 960;" xml:space="preserve">
<style type="text/css">
	.st0{fill-rule:evenodd;clip-rule:evenodd;fill:#FFFFFF;}
	.st1{fill-rule:evenodd;clip-rule:evenodd;fill:#CECFD1;}
	.st2{fill:none;stroke:#1A171B;stroke-width:1.2918;stroke-linecap:square;stroke-miterlimit:2.6131;}
	.st3{fill:none;stroke:#1A171B;stroke-width:4.306;stroke-linecap:square;stroke-miterlimit:2.6131;}
	.st4{fill-rule:evenodd;clip-rule:evenodd;fill:#1A171B;}
	.st5{fill-rule:evenodd;clip-rule:evenodd;fill:#E43417;stroke:#1A171B;stroke-width:1.2918;stroke-miterlimit:2.6131;}
	.st6{fill-rule:evenodd;clip-rule:evenodd;fill:#FFFFFF;stroke:#1A171B;stroke-width:1.2918;stroke-miterlimit:2.6131;}
	.st7{fill:none;stroke:#1A171B;stroke-width:1.7224;stroke-miterlimit:2.6131;}
	.st8{fill-rule:evenodd;clip-rule:evenodd;fill:#049853;stroke:#1A171B;stroke-width:1.2918;stroke-miterlimit:2.6131;}
	.st9{fill-rule:evenodd;clip-rule:evenodd;fill:#1A171B;stroke:#1A171B;stroke-width:1.2918;stroke-miterlimit:2.6131;}
	.st10{fill:none;stroke:#1A171B;stroke-width:4.306;stroke-linecap:square;stroke-miterlimit:2.6131;stroke-dasharray:21.53,21.53;}
	.st11{fill-rule:evenodd;clip-rule:evenodd;fill:#00A6E2;stroke:#1A171B;stroke-width:1.2918;stroke-miterlimit:2.6131;}
</style>
<g>
	<g>
		<polygon class="st0" points="707.8,839.9 489.4,839.9 489.4,581.6 54.1,581.6 54.1,270.3 251.8,270.3 251.8,120 489.1,120 
			489.1,270.3 905.8,270.3 905.9,581.6 707.8,581.6 707.8,839.9 		"/>
		<path class="st1" d="M689.1,839.9H508.4V581.4c-5.8-17.2-9.2-17.4-29.3-18.6l-425-0.1V288.5h191.5c18.8,0,24.9-6.2,24.9-25.1V120
			h200v143.4c0,18.9,5.4,25.1,24.2,25.1h411.3v274.2H712.3c-14.9,0-23.1,7.7-23.1,23.7V839.9L689.1,839.9z"/>
		<polygon class="st0" points="707.8,334.4 905.6,334.4 905.6,326.9 707.8,326.9 707.8,334.4 		"/>
		<polygon class="st0" points="707.8,380.5 905.6,380.5 905.6,373 707.8,373 707.8,380.5 		"/>
		<polygon class="st0" points="644.3,581.4 644.3,642.5 651.9,642.5 651.9,581.4 644.3,581.4 		"/>
		<polygon class="st0" points="315.3,270.2 315.3,209.1 307.8,209.1 307.8,270.2 315.3,270.2 		"/>
		<polygon class="st0" points="644.3,669.4 644.3,719 651.9,719 651.9,669.4 644.3,669.4 		"/>
		<polygon class="st0" points="315.3,182.2 315.3,132.7 307.8,132.7 307.8,182.2 315.3,182.2 		"/>
		<polygon class="st0" points="644.3,745.7 644.3,795.3 651.9,795.3 651.9,745.7 644.3,745.7 		"/>
		<polygon class="st0" points="644.3,822.1 644.3,839.9 651.9,839.9 651.9,822.1 644.3,822.1 		"/>
		<polygon class="st0" points="707.8,426.2 905.6,426.2 905.6,418.7 707.8,418.7 707.8,426.2 		"/>
		<polygon class="st0" points="600.3,581.4 600.3,840 607.8,840 607.8,581.4 600.3,581.4 		"/>
		<polygon class="st0" points="707.8,437.4 905.6,437.4 905.6,429.9 707.8,429.9 707.8,437.4 		"/>
		<polygon class="st0" points="589.1,581.4 589.1,840 596.6,840 596.6,581.4 589.1,581.4 		"/>
		<polygon class="st0" points="728.3,434.8 707.8,434.8 707.8,283.9 728.3,283.9 728.3,434.8 		"/>
		<polygon class="st0" points="231.3,417.2 251.8,417.2 251.8,562.1 231.3,562.1 231.3,417.2 		"/>
		<polygon class="st0" points="592.7,601.9 592.7,581.4 692.1,581.4 692.1,601.9 592.7,601.9 		"/>
		<polygon class="st0" points="366.9,249.7 366.9,270.2 266.9,270.2 266.9,249.7 366.9,249.7 		"/>
		<path class="st2" d="M470.5,121.9v141.6c0,18.9,5.4,25.1,24.2,25.1l411.3-0.1l-411.3,0.1c-18.8,0-24.2-6.2-24.2-25.1V121.9
			L470.5,121.9z M905.9,562.8H712.7c-15.3,0-23.6,7.5-23.6,23.7v253.4V586.5c0-16.1,8.3-23.7,23.6-23.7H905.9L905.9,562.8z
			 M508.4,839.9V581.4c-5.8-17.2-9.2-17.4-29.3-18.5l-425-0.1l425,0.1c20.1,1.2,23.5,1.4,29.3,18.5V839.9L508.4,839.9z M54.1,288.5
			l192,0.1c18.8,0,24.4-7.4,24.4-26.3V120v142.3c0,18.9-5.9,26.3-24.7,26.3L54.1,288.5L54.1,288.5z"/>
		<polygon class="st0" points="251.8,413.6 54.1,413.6 54.1,421.2 251.8,421.2 251.8,413.6 		"/>
		<polygon class="st0" points="251.8,424.9 54.1,424.9 54.1,432.4 251.8,432.4 251.8,424.9 		"/>
		<polygon class="st0" points="251.8,470.6 54.1,470.6 54.1,478.1 251.8,478.1 251.8,470.6 		"/>
		<polygon class="st0" points="251.8,516.6 54.1,516.6 54.1,524.2 251.8,524.2 251.8,516.6 		"/>
		<path class="st3" d="M489.1,120v150.3l416.7-0.1l-416.7,0.1V120L489.1,120z M905.9,581.6H708l-0.2,258.3l0.2-258.3H905.9
			L905.9,581.6z M489.6,839.9l0-258.3H54.1h435.6L489.6,839.9L489.6,839.9z M54.1,270.3h197.8L251.8,120l0.1,150.3H54.1L54.1,270.3z
			"/>
		<polygon class="st0" points="370.5,270.2 370.5,120 363,120 363,270.2 370.5,270.2 		"/>
		<polygon class="st0" points="359.3,270.2 359.3,120 351.8,120 351.8,270.2 359.3,270.2 		"/>
		<polygon class="st4" points="768.1,384 768.1,344.1 775.9,344.1 792.3,370.8 792.3,344.1 799.8,344.1 799.8,384 791.7,384 
			775.6,358 775.6,384 768.1,384 		"/>
		<path class="st4" d="M573.3,660.5l7.8,2.5c-1.2,4.4-3.2,7.6-6,9.7c-2.8,2.1-6.3,3.2-10.6,3.2c-5.3,0-9.7-1.8-13.1-5.4
			c-3.4-3.6-5.1-8.6-5.1-14.9c0-6.6,1.7-11.8,5.2-15.5c3.4-3.7,7.9-5.5,13.5-5.5c4.9,0,8.9,1.4,11.9,4.3c1.8,1.7,3.2,4.2,4.1,7.4
			l-8,1.9c-0.5-2.1-1.5-3.7-3-4.9c-1.5-1.2-3.3-1.8-5.5-1.8c-3,0-5.4,1.1-7.2,3.2c-1.8,2.1-2.8,5.6-2.8,10.3c0,5,0.9,8.6,2.7,10.8
			c1.8,2.1,4.2,3.2,7.1,3.2c2.1,0,4-0.7,5.5-2C571.5,665.6,572.6,663.5,573.3,660.5L573.3,660.5z"/>
		<path class="st4" d="M164.5,487.7h14.7c3.3,0,5.8,0.3,7.6,0.8c2.3,0.7,4.4,1.9,6,3.7c1.7,1.8,2.9,3.9,3.8,6.5
			c0.9,2.6,1.3,5.7,1.3,9.4c0,3.3-0.4,6.1-1.2,8.5c-1,2.9-2.4,5.3-4.3,7c-1.4,1.4-3.3,2.4-5.7,3.2c-1.8,0.6-4.2,0.8-7.1,0.8h-15.2
			V487.7L164.5,487.7z M172.6,494.5v26.4h6c2.3,0,3.9-0.1,4.9-0.4c1.3-0.3,2.4-0.9,3.3-1.7c0.9-0.8,1.6-2.1,2.1-3.9
			c0.5-1.8,0.8-4.2,0.8-7.3c0-3.1-0.3-5.4-0.8-7.1c-0.5-1.7-1.3-2.9-2.3-3.9c-1-0.9-2.2-1.6-3.7-1.9c-1.1-0.3-3.3-0.4-6.6-0.4H172.6
			L172.6,494.5z"/>
		<path class="st5" d="M814.2,321.2c-5.9,0.9-14,2.1-22.7,2.2c-6.9,0-13.8,0-20.8,0c-9.1-0.6-16.4-0.4-23.4-2.6
			c-1.4-0.4-4.6-2.3-4.6-4.7v-17.6c0-2.8,3.6-3.6,4.6-3.9c7-1.7,14.3-2.4,23.3-2.4h21c8.2,0,16.4,0.9,22.6,2
			c1.7,0.4,4.7,0.7,4.7,4.4v17.8C818.9,321.4,816.6,320.9,814.2,321.2L814.2,321.2z"/>
		<path class="st6" d="M772.1,319l-7.7,1.2c-3-8.4-2.7-15.9,0-24.9l7.7,1.1C770.2,305.4,770,309.7,772.1,319L772.1,319z"/>
		<path class="st6" d="M804.5,318.6l-4.7-1.6c1.2-6.3,1.2-12.5,0.1-18.5l4.6-1.7C805.8,303.8,805.6,311.3,804.5,318.6L804.5,318.6z"
			/>
		<line class="st7" x1="797.1" y1="320.4" x2="775" y2="320.3"/>
		<line class="st7" x1="797.1" y1="295.3" x2="775" y2="295.2"/>
		<path class="st8" d="M145.6,438c5.9-0.9,14-2.1,22.7-2.2c6.9,0,13.8,0,20.8,0c9.1,0.6,16.4,0.4,23.4,2.6c1.4,0.4,4.6,2.3,4.6,4.7
			v17.6c0,2.8-3.6,3.6-4.6,3.9c-7,1.7-14.3,2.4-23.3,2.4h-21c-8.2,0-16.4-0.9-22.6-2c-1.7-0.4-4.7-0.7-4.7-4.4v-17.8
			C140.8,437.8,143.1,438.4,145.6,438L145.6,438z"/>
		<path class="st6" d="M187.6,440.2l7.6-1.2c3,8.4,2.7,15.9,0,24.9l-7.6-1.1C189.5,453.8,189.7,449.5,187.6,440.2L187.6,440.2z"/>
		<path class="st6" d="M155.2,440.7l4.7,1.6c-1.2,6.3-1.2,12.5-0.1,18.5l-4.6,1.7C153.9,455.4,154.1,447.9,155.2,440.7L155.2,440.7z
			"/>
		<line class="st7" x1="162.7" y1="438.8" x2="184.7" y2="438.9"/>
		<line class="st7" x1="162.7" y1="463.9" x2="184.7" y2="464"/>
		<polygon class="st9" points="436.2,182.3 443.2,213.3 429.2,213.3 436.2,182.3 		"/>
		<path class="st10" d="M740.5,307.8l-241.9-0.1c-61.3,0-63.8-11.3-62.9-93.1"/>
		<path class="st10" d="M219.3,452c156.9-0.1,216.9-98.3,216.5-238.5"/>
		<polygon class="st9" points="163,338.2 192.9,348.7 194.5,334.7 163,338.2 		"/>
		<path class="st10" d="M626.6,613.5C617.5,459.2,456,374.7,195,342.4"/>
		<path class="st11" d="M612.9,686.8c-0.9-5.9-2.1-14-2.2-22.7c0-6.9,0-13.8,0-20.8c0.6-9.1,0.4-16.4,2.6-23.4
			c0.4-1.4,2.3-4.6,4.7-4.6h17.6c2.8,0,3.6,3.6,3.9,4.6c1.7,7,2.4,14.3,2.4,23.3v21c0,8.2-0.9,16.4-2,22.6c-0.4,1.7-0.7,4.7-4.4,4.7
			h-17.8C612.8,691.6,613.3,689.3,612.9,686.8L612.9,686.8z"/>
		<path class="st6" d="M615.1,644.8l-1.2-7.6c8.4-3,15.9-2.7,24.9,0l-1.1,7.6C628.7,642.9,624.4,642.7,615.1,644.8L615.1,644.8z"/>
		<path class="st6" d="M615.6,677.2l1.6-4.7c6.4,1.2,12.5,1.2,18.5,0.1l1.7,4.6C630.3,678.5,622.8,678.3,615.6,677.2L615.6,677.2z"
			/>
		<line class="st7" x1="613.7" y1="669.7" x2="613.8" y2="647.7"/>
		<line class="st7" x1="638.9" y1="669.7" x2="638.9" y2="647.7"/>
	</g>
</g>
</svg>
