<?xml version="1.0" encoding="utf-8"?>
<!-- Generator: Adobe Illustrator 19.2.0, SVG Export Plug-In . SVG Version: 6.00 Build 0)  -->
<svg version="1.1" id="Livello_1" xmlns="http://www.w3.org/2000/svg" xmlns:xlink="http://www.w3.org/1999/xlink" x="0px" y="0px"
	 viewBox="0 0 960 960" style="enable-background:new 0 0 960 960;" xml:space="preserve">
<style type="text/css">
	.st0{fill-rule:evenodd;clip-rule:evenodd;fill:#FFFFFF;}
	.st1{fill-rule:evenodd;clip-rule:evenodd;fill:#CECFD1;}
	.st2{fill-rule:evenodd;clip-rule:evenodd;fill:#FFEC00;stroke:#1A171B;stroke-width:1.3611;stroke-miterlimit:2.6131;}
	.st3{fill-rule:evenodd;clip-rule:evenodd;fill:#FFFFFF;stroke:#1A171B;stroke-width:1.3611;stroke-miterlimit:2.6131;}
	.st4{fill:none;stroke:#1A171B;stroke-width:1.8148;stroke-miterlimit:2.6131;}
	.st5{fill-rule:evenodd;clip-rule:evenodd;fill:#3D3D3F;stroke:#1A171B;stroke-width:1.3611;stroke-miterlimit:2.6131;}
	
		.st6{fill-rule:evenodd;clip-rule:evenodd;fill:#E43417;stroke:#1A171B;stroke-width:1.3611;stroke-linecap:square;stroke-miterlimit:2.6131;}
	
		.st7{fill-rule:evenodd;clip-rule:evenodd;fill:#FFFFFF;stroke:#1A171B;stroke-width:1.3611;stroke-linecap:square;stroke-miterlimit:2.6131;}
	.st8{fill:none;stroke:#1A171B;stroke-width:4.537;stroke-linecap:square;stroke-miterlimit:2.6131;}
	.st9{fill:none;stroke:#1A171B;stroke-width:1.3611;stroke-linecap:square;stroke-miterlimit:2.6131;}
	.st10{fill-rule:evenodd;clip-rule:evenodd;fill:#1A171B;}
	.st11{fill-rule:evenodd;clip-rule:evenodd;fill:#00A6E2;stroke:#1A171B;stroke-width:1.3611;stroke-miterlimit:2.6131;}
	.st12{fill:none;stroke:#1A171B;stroke-width:1.3611;stroke-miterlimit:2.6131;}
	
		.st13{fill:none;stroke:#1A171B;stroke-width:4.537;stroke-linecap:square;stroke-miterlimit:2.6131;stroke-dasharray:22.6848,22.6848;}
</style>
<g>
	<g>
		<polygon class="st0" points="290.9,696.5 45,696.5 45,372.4 290.9,372.4 290.9,132.3 587.7,132.3 587.7,372.4 915,372.4 
			915,696.5 587.7,696.5 587.7,827.7 290.9,827.7 290.9,696.5 		"/>
		<path class="st1" d="M315.2,132.3h248.2v231.4c0,23.8,7.7,32.9,32,32.9H915v275.5H595.4c-24,0-32,8.1-32,32.4v123H315.2v-123
			c0-24.3-8.2-32.4-32.5-32.4H45V396.7h237.7c24.2,0,32.5-8.6,32.5-32.9V132.3L315.2,132.3z"/>
		<path class="st2" d="M119.1,607.9c10.1-1.5,24-3.6,38.8-3.8c11.8,0,23.7,0,35.7,0c15.6,1.1,28.1,0.6,40.1,4.4c2.3,0.6,8,3.9,8,8
			v30.2c0,4.8-6.2,6.2-8,6.6c-12,2.9-24.5,4.1-39.9,4.1h-36c-14,0-28.1-1.5-38.7-3.5c-3-0.6-8.1-1.2-8.1-7.6v-30.5
			C111,607.6,114.9,608.5,119.1,607.9L119.1,607.9z"/>
		<path class="st3" d="M191.2,611.7l13.1-2c5.1,14.4,4.7,27.3,0,42.6l-13.1-1.9C194.4,635,194.7,627.6,191.2,611.7L191.2,611.7z"/>
		<path class="st3" d="M135.7,612.4l8.1,2.7c-2,10.9-2,21.5-0.2,31.7l-8,2.9C133.5,637.7,133.8,624.8,135.7,612.4L135.7,612.4z"/>
		<line class="st4" x1="148.4" y1="609.3" x2="186.2" y2="609.4"/>
		<line class="st4" x1="148.4" y1="652.3" x2="186.2" y2="652.4"/>
		<polygon class="st5" points="396.1,631.1 365.8,624.2 365.8,637.9 396.1,631.1 		"/>
		<polygon class="st5" points="383.4,783.2 395.9,754.8 382.4,752.2 383.4,783.2 		"/>
		<polygon class="st5" points="375.6,594 382.5,563.7 368.7,563.7 375.6,594 		"/>
		<polygon class="st6" points="336.5,169.5 336.5,178.7 410.4,178.7 410.4,169.5 336.5,169.5 		"/>
		<path class="st6" d="M417.2,324.4v-29.5c0-1.2-1.2-2.2-2.7-2.2c-1.5,0-2.7,1.4-2.7,2.2v31.4C411.9,326.4,417.2,326.6,417.2,324.4
			L417.2,324.4z"/>
		<path class="st6" d="M330.1,324.4v-29.5c0-1.2,1.2-2.2,2.7-2.2c1.5,0,2.7,1.4,2.7,2.2v31.4C335.5,326.4,330.1,326.6,330.1,324.4
			L330.1,324.4z"/>
		<path class="st6" d="M332.8,350.3h81.7v2.7c0,4.5-3.6,8.1-8.1,8.1h-65.6c-4.5,0-8.1-3.6-8.1-8.1V350.3L332.8,350.3z"/>
		<path class="st6" d="M335.5,350.5v-47.3h76.3v47.3c0,3.6-3,6.8-6.8,6.8h-62.8C338.4,357.2,335.5,354.2,335.5,350.5L335.5,350.5z"
			/>
		<path class="st6" d="M340.4,335.9v-24c0-1.8,2.2-3.3,5.1-3.3h56.2c2.9,0,5.2,1.5,5.2,3.3v24c0,1.8-2.4,3.1-5.2,3.3
			c-18.8,1.6-37.5,1.5-56.2,0C342.6,339,340.4,337.7,340.4,335.9L340.4,335.9z"/>
		<path class="st7" d="M338.6,349.4c0.9-1,4-6.4,4.9-6.3c18.6,2.6,41.8,2.7,61,0c0.3-0.1,3.2,5.4,4.1,6.3c1,1.1-1.8,3.2-3.7,3.4
			c-20.8,1.6-41.8,1.6-62.5,0C340.2,352.6,337.4,350.6,338.6,349.4L338.6,349.4z"/>
		<path class="st6" d="M417.2,215.1v-29.5c0-1.2-1.2-2.2-2.7-2.2c-1.5,0-2.7,2.2-2.7,2.2V217C411.9,217,417.2,217.3,417.2,215.1
			L417.2,215.1z"/>
		<path class="st6" d="M330.1,215.1v-29.5c0-1.2,1.2-2.2,2.7-2.2c1.5,0,2.7,2.2,2.7,2.2V217C335.5,217,330.1,217.3,330.1,215.1
			L330.1,215.1z"/>
		<polygon class="st6" points="332.8,303.3 332.8,172.2 414.4,172.2 414.4,303.3 332.8,303.3 		"/>
		<polygon class="st6" points="338.1,297.2 338.1,178.3 409.1,178.3 409.1,297.2 338.1,297.2 		"/>
		<polygon class="st6" points="352.2,297.2 352.2,178.3 395.1,178.3 395.1,297.2 352.2,297.2 		"/>
		<polygon class="st6" points="366.5,297.2 366.5,178.3 380.8,178.3 380.8,297.2 366.5,297.2 		"/>
		<path class="st8" d="M45,372.4h245.9v-240 M587.7,132.3v240h327.2 M915,696.5H587.7v131.2 M290.9,827.7V696.5H45"/>
		<path class="st9" d="M45,396.7l237.7,0.1c24.2,0,32.5-8.6,32.5-32.9V132.3 M563.4,132.3v231.5c0,23.8,7.7,32.9,32,32.9l319.6-0.1
			 M915,672.3H595.4c-24,0-32,8.1-32,32.4v123 M315.2,827.7v-123c0-24.3-8.2-32.4-32.5-32.4L45,672.2"/>
		<path class="st10" d="M462.8,349.3v5.1l-6.7,2l0,9.2l6.7,1.9v4.9l-29.3-9v-4.9L462.8,349.3L462.8,349.3z M451.2,357.9l-10.9,3.2
			l10.9,3.1L451.2,357.9L451.2,357.9z"/>
		<path class="st10" d="M433.5,346.8v-4.7h15.9c2.5,0,4.2-0.1,4.9-0.2c1.2-0.2,2.2-0.7,2.9-1.4c0.7-0.8,1.1-1.8,1.1-3.1
			c0-1.3-0.3-2.3-1-3c-0.7-0.7-1.5-1.1-2.5-1.2c-1-0.1-2.7-0.2-5-0.2l-16.2,0v-4.7h15.4c3.5,0,6,0.1,7.5,0.4
			c1.5,0.3,2.7,0.7,3.7,1.4c1,0.7,1.8,1.6,2.4,2.7c0.6,1.1,0.9,2.6,0.9,4.4c0,2.2-0.3,3.9-1,5c-0.6,1.1-1.5,2-2.5,2.7
			c-1,0.7-2.1,1.1-3.2,1.3c-1.7,0.3-4.2,0.5-7.4,0.5L433.5,346.8L433.5,346.8z"/>
		<polygon class="st10" points="462.8,318.3 438.5,318.3 438.5,325.2 433.5,325.2 433.5,306.8 438.5,306.8 438.5,313.7 462.8,313.7 
			462.8,318.3 		"/>
		<path class="st10" d="M448.3,305.4c-3,0-5.5-0.4-7.5-1.1c-1.5-0.5-2.8-1.2-4-2.1c-1.2-0.9-2.1-1.9-2.6-3c-0.8-1.4-1.2-3.1-1.2-5
			c0-3.4,1.3-6.1,4-8.2c2.7-2,6.4-3.1,11.2-3.1c4.7,0,8.4,1,11.1,3c2.7,2,4,4.7,4,8.1c0,3.4-1.3,6.2-4,8.2
			C456.7,304.3,453,305.4,448.3,305.4L448.3,305.4z M448.2,300.6c3.3,0,5.8-0.6,7.6-1.8c1.7-1.2,2.6-2.7,2.6-4.6
			c0-1.9-0.8-3.4-2.6-4.6c-1.7-1.2-4.2-1.8-7.6-1.8c-3.4,0-5.9,0.6-7.5,1.7c-1.7,1.2-2.5,2.7-2.5,4.6c0,1.9,0.8,3.5,2.5,4.6
			C442.3,300,444.8,300.6,448.2,300.6L448.2,300.6z"/>
		<path class="st10" d="M452.1,264.6l1.8-4.5c3.2,0.7,5.6,1.8,7.1,3.5c1.6,1.6,2.3,3.7,2.3,6.1c0,3.1-1.3,5.6-4,7.6
			c-2.7,2-6.3,3-10.9,3c-4.9,0-8.7-1-11.4-3c-2.7-2-4-4.6-4-7.8c0-2.8,1.1-5.1,3.2-6.9c1.3-1.1,3.1-1.8,5.4-2.4l1.4,4.6
			c-1.5,0.3-2.7,0.8-3.6,1.7c-0.9,0.9-1.3,1.9-1.3,3.2c0,1.7,0.8,3.1,2.3,4.2c1.6,1.1,4.1,1.6,7.6,1.6c3.7,0,6.4-0.5,7.9-1.6
			c1.6-1,2.4-2.4,2.4-4.1c0-1.2-0.5-2.3-1.5-3.2C455.8,265.6,454.2,264.9,452.1,264.6L452.1,264.6z"/>
		<path class="st10" d="M462.8,235.2l0,5.1l-6.7,2l0,9.2l6.7,1.9v4.9l-29.3-9v-4.9L462.8,235.2L462.8,235.2z M451.2,243.8l-10.9,3.2
			l10.9,3.1V243.8L451.2,243.8z"/>
		<path class="st10" d="M462.8,232.8l-29.3,0l0-9.8c0-2.5,0.3-4.3,0.8-5.4c0.5-1.1,1.5-2,2.8-2.7c1.4-0.7,2.9-1,4.6-1
			c2.2,0,4,0.5,5.5,1.5c1.4,1,2.3,2.5,2.7,4.6c0.8-1,1.6-1.8,2.5-2.5c0.9-0.7,2.5-1.5,4.8-2.6l5.7-2.8v5.6l-6.4,3.4
			c-2.3,1.2-3.7,2-4.3,2.5c-0.6,0.4-1,0.9-1.2,1.4c-0.2,0.5-0.3,1.3-0.3,2.3v0.9l12.2,0V232.8L462.8,232.8z M445.9,228.1v-3.4
			c0-2.2-0.1-3.6-0.4-4.2c-0.2-0.6-0.7-1-1.2-1.3c-0.6-0.3-1.3-0.5-2.2-0.5c-1,0-1.8,0.2-2.4,0.6c-0.6,0.4-1,1-1.2,1.8
			c-0.1,0.4-0.1,1.5-0.1,3.4v3.6H445.9L445.9,228.1z"/>
		<path class="st10" d="M462.8,209.5l-29.3,0l0-9.8c0-2.5,0.3-4.3,0.8-5.4c0.5-1.1,1.5-2,2.8-2.7c1.4-0.7,2.9-1,4.6-1
			c2.2,0,4,0.5,5.5,1.5c1.4,1,2.3,2.5,2.7,4.6c0.8-1,1.6-1.8,2.5-2.5c0.9-0.7,2.5-1.5,4.8-2.6l5.7-2.8v5.6l-6.4,3.4
			c-2.3,1.2-3.7,2-4.3,2.5c-0.6,0.4-1,0.9-1.2,1.4c-0.2,0.5-0.3,1.3-0.3,2.4v0.9l12.2,0L462.8,209.5L462.8,209.5z M445.9,204.8v-3.4
			c0-2.2-0.1-3.6-0.4-4.2c-0.2-0.6-0.7-1-1.2-1.3c-0.6-0.3-1.3-0.5-2.2-0.5c-1,0-1.8,0.2-2.4,0.6c-0.6,0.4-1,1-1.2,1.8
			c-0.1,0.4-0.1,1.5-0.1,3.4v3.6H445.9L445.9,204.8z"/>
		<path class="st10" d="M448.4,187.2c-3,0-5.5-0.4-7.5-1.1c-1.5-0.5-2.8-1.2-4-2.2c-1.2-0.9-2.1-1.9-2.6-3c-0.8-1.4-1.2-3.1-1.2-5
			c0-3.4,1.3-6.1,4-8.2c2.7-2,6.4-3.1,11.2-3.1c4.7,0,8.4,1,11.1,3c2.7,2,4,4.7,4,8.1c0,3.4-1.3,6.2-4,8.2
			C456.7,186.1,453,187.2,448.4,187.2L448.4,187.2z M448.2,182.4c3.3,0,5.8-0.6,7.6-1.8c1.7-1.2,2.6-2.7,2.6-4.6
			c0-1.9-0.8-3.4-2.6-4.6c-1.7-1.2-4.2-1.8-7.6-1.8c-3.4,0-5.9,0.6-7.5,1.7c-1.7,1.2-2.5,2.7-2.5,4.6c0,1.9,0.8,3.5,2.5,4.6
			C442.3,181.8,444.8,182.4,448.2,182.4L448.2,182.4z"/>
		<path class="st11" d="M616.4,431.3h254.8v79.3H616.4c-6.4,0-11.9-5.3-11.9-11.9v-55.5C604.5,436.6,609.8,431.3,616.4,431.3
			L616.4,431.3z"/>
		<path class="st12" d="M635.3,438h228.4v65.9H635.3c-5.7,0-10.7-4.4-10.7-9.9v-46.1C624.7,442.4,629.4,438,635.3,438L635.3,438z"/>
		<path class="st3" d="M614.9,438l5,5.9c-1.2,17.8-1.2,35.1,0,53.3l-5,6.7c-0.2,0.2-4.6-6.8-4.8-9.9c-0.9-15.4-0.9-31.1,0-46.1
			C610.3,443.3,614.6,437.8,614.9,438L614.9,438z"/>
		<path class="st9" d="M881.4,505.9l-189.1-22.2v-24.3l189.1,22.2 M692.4,459.4l23.5,2.7v24.3l-23.5-2.7V459.4L692.4,459.4z"/>
		<polygon class="st10" points="669.3,555 669.3,525.7 685.1,525.7 685.1,530.6 673.9,530.6 673.9,537.6 683.5,537.6 683.5,542.5 
			673.9,542.5 673.9,555 669.3,555 		"/>
		<polygon class="st10" points="688.8,555 688.8,525.7 693.4,525.7 693.4,555 688.8,555 		"/>
		<polygon class="st10" points="698,555 698,525.9 702.7,525.9 702.7,550.1 714.3,550.1 714.3,555 698,555 		"/>
		<path class="st10" d="M716.6,540.5c0-3,0.4-5.5,1.1-7.5c0.5-1.5,1.2-2.8,2.2-4c0.9-1.2,1.9-2.1,3-2.6c1.4-0.8,3.1-1.2,5-1.2
			c3.4,0,6.1,1.3,8.2,4c2,2.7,3.1,6.4,3.1,11.2c0,4.7-1,8.4-3,11.1c-2,2.7-4.7,4-8.1,4c-3.4,0-6.2-1.3-8.2-4
			C717.7,548.8,716.6,545.2,716.6,540.5L716.6,540.5z M721.4,540.3c0,3.3,0.6,5.8,1.8,7.6c1.2,1.7,2.7,2.6,4.6,2.6
			c1.9,0,3.4-0.8,4.6-2.6c1.2-1.7,1.8-4.2,1.8-7.6c0-3.4-0.6-5.9-1.7-7.5c-1.2-1.7-2.7-2.5-4.6-2.5c-1.9,0-3.5,0.8-4.6,2.5
			C722,534.4,721.4,536.9,721.4,540.3L721.4,540.3z"/>
		<path class="st10" d="M742.7,525.7h9.2c1.8,0,3.2,0.1,4.1,0.3c0.9,0.2,1.7,0.6,2.4,1.2c0.7,0.6,1.3,1.4,1.8,2.4
			c0.5,1,0.7,2.2,0.7,3.4c0,1.4-0.3,2.6-0.9,3.8c-0.6,1.1-1.4,2-2.4,2.6c1.4,0.5,2.5,1.4,3.2,2.7c0.8,1.3,1.1,2.7,1.1,4.4
			c0,1.3-0.2,2.6-0.7,3.9c-0.5,1.3-1.2,2.3-2,3c-0.8,0.8-1.9,1.2-3.1,1.4c-0.8,0.1-2.7,0.2-5.6,0.2h-7.9V525.7L742.7,525.7z
			 M747.3,530.6v6.8h3.1c1.8,0,2.9,0,3.4-0.1c0.8-0.1,1.4-0.5,1.9-1c0.5-0.6,0.7-1.3,0.7-2.3c0-0.9-0.2-1.6-0.6-2.2
			c-0.4-0.6-1-0.9-1.8-1c-0.5-0.1-1.8-0.1-4-0.1H747.3L747.3,530.6z M747.3,542.2v7.8h4.3c1.7,0,2.7-0.1,3.2-0.2
			c0.7-0.2,1.3-0.6,1.7-1.2c0.4-0.6,0.7-1.5,0.7-2.5c0-0.9-0.2-1.6-0.5-2.2c-0.3-0.6-0.8-1.1-1.5-1.3c-0.6-0.3-2-0.4-4.1-0.4H747.3
			L747.3,542.2z"/>
		<path class="st10" d="M765.9,525.7h4.7v15.9c0,2.5,0.1,4.2,0.2,4.9c0.2,1.2,0.7,2.2,1.4,2.9c0.8,0.7,1.8,1.1,3.1,1.1
			c1.3,0,2.3-0.3,3-1c0.7-0.7,1.1-1.5,1.2-2.5c0.1-1,0.2-2.7,0.2-5v-16.2h4.7v15.4c0,3.5-0.1,6-0.4,7.5c-0.3,1.5-0.7,2.7-1.4,3.7
			c-0.7,1-1.6,1.8-2.7,2.4c-1.1,0.6-2.6,0.9-4.4,0.9c-2.2,0-3.9-0.3-5-1c-1.1-0.6-2-1.5-2.7-2.5c-0.7-1-1.1-2.1-1.3-3.2
			c-0.3-1.7-0.5-4.2-0.5-7.4V525.7L765.9,525.7z"/>
		<path class="st10" d="M788.1,545.5l4.5-0.6c0.3,1.9,0.8,3.4,1.7,4.3c0.8,0.9,2,1.4,3.4,1.4c1.5,0,2.6-0.4,3.4-1.2
			c0.8-0.8,1.1-1.7,1.1-2.8c0-0.7-0.2-1.3-0.5-1.8c-0.3-0.5-0.9-0.9-1.7-1.3c-0.5-0.2-1.8-0.7-3.7-1.3c-2.5-0.8-4.3-1.8-5.3-2.9
			c-1.4-1.6-2.1-3.6-2.1-5.9c0-1.5,0.3-2.9,1-4.2c0.7-1.3,1.6-2.3,2.9-3c1.3-0.7,2.8-1,4.5-1c2.9,0,5.1,0.8,6.5,2.4
			c1.5,1.6,2.2,3.8,2.3,6.5l-4.7,0.3c-0.2-1.5-0.6-2.6-1.3-3.2c-0.7-0.7-1.6-1-3-1c-1.4,0-2.4,0.4-3.2,1.1c-0.5,0.5-0.7,1.1-0.7,1.8
			c0,0.7,0.2,1.3,0.7,1.8c0.6,0.6,2,1.3,4.3,2c2.3,0.7,3.9,1.4,5,2.1c1.1,0.7,1.9,1.7,2.6,3c0.6,1.3,0.9,2.8,0.9,4.7
			c0,1.7-0.4,3.3-1.1,4.7c-0.7,1.5-1.8,2.6-3.1,3.3c-1.3,0.7-3,1.1-5,1.1c-2.9,0-5.2-0.8-6.7-2.6
			C789.3,551.2,788.4,548.7,788.1,545.5L788.1,545.5z"/>
		<line class="st13" x1="373.8" y1="365" x2="373.8" y2="561.6"/>
		<line class="st13" x1="254.4" y1="630.9" x2="366.1" y2="630.9"/>
		<path class="st13" d="M593.1,471.2c-109.4,8-188.8,141-204,280.7"/>
		<polygon class="st10" points="717.3,624.7 717.3,575 754.2,575 754.2,583.4 727.4,583.4 727.4,594.4 752.3,594.4 752.3,602.8 
			727.4,602.8 727.3,624.7 717.3,624.7 		"/>
		<path class="st10" d="M486.7,240.2H505c4.1,0,7.3,0.3,9.4,0.9c2.9,0.9,5.4,2.4,7.5,4.6c2.1,2.2,3.7,4.9,4.8,8
			c1.1,3.2,1.6,7.1,1.6,11.7c0,4.1-0.5,7.6-1.5,10.6c-1.2,3.6-3,6.5-5.3,8.8c-1.7,1.7-4.1,3-7,4c-2.2,0.7-5.2,1.1-8.9,1.1h-18.9
			V240.2L486.7,240.2z M496.7,248.6v32.9h7.5c2.8,0,4.8-0.2,6.1-0.5c1.6-0.4,3-1.1,4-2.1c1.1-1,1.9-2.6,2.6-4.8c0.7-2.2,1-5.3,1-9.1
			c0-3.8-0.3-6.8-1-8.8c-0.7-2.1-1.6-3.7-2.8-4.8c-1.2-1.2-2.8-1.9-4.7-2.3c-1.4-0.3-4.1-0.5-8.2-0.5H496.7L496.7,248.6z"/>
		<path class="st10" d="M147.8,584.9v-49.6h21.1c5.3,0,9.2,0.4,11.6,1.3c2.4,0.9,4.3,2.5,5.8,4.8c1.4,2.3,2.2,4.9,2.2,7.8
			c0,3.7-1.1,6.8-3.3,9.2c-2.2,2.4-5.5,4-9.8,4.6c2.2,1.3,4,2.7,5.4,4.2c1.4,1.5,3.3,4.2,5.7,8.1l6.1,9.7h-12l-7.2-10.8
			c-2.6-3.9-4.3-6.3-5.3-7.3c-0.9-1-2-1.7-3-2.1c-1.1-0.4-2.7-0.6-5.1-0.6h-2v20.7H147.8L147.8,584.9z M157.9,556.2h7.4
			c4.8,0,7.8-0.2,9-0.6c1.2-0.4,2.1-1.1,2.8-2.1c0.7-1,1-2.2,1-3.7c0-1.7-0.5-3-1.3-4c-0.9-1-2.2-1.7-3.8-2
			c-0.8-0.1-3.2-0.2-7.3-0.2h-7.8V556.2L157.9,556.2z"/>
	</g>
</g>
</svg>
