<?xml version="1.0" encoding="utf-8"?>
<!-- Generator: Adobe Illustrator 19.2.0, SVG Export Plug-In . SVG Version: 6.00 Build 0)  -->
<svg version="1.1" id="Livello_1" xmlns="http://www.w3.org/2000/svg" xmlns:xlink="http://www.w3.org/1999/xlink" x="0px" y="0px"
	 viewBox="0 0 960 960" style="enable-background:new 0 0 960 960;" xml:space="preserve">
<style type="text/css">
	.st0{fill-rule:evenodd;clip-rule:evenodd;fill:#FFFFFF;}
	.st1{fill-rule:evenodd;clip-rule:evenodd;fill:#CECFD1;}
	.st2{fill-rule:evenodd;clip-rule:evenodd;fill:#00A6E2;stroke:#1A171B;stroke-width:1.43;stroke-miterlimit:2.6131;}
	.st3{fill-rule:evenodd;clip-rule:evenodd;fill:#FFFFFF;stroke:#1A171B;stroke-width:1.43;stroke-miterlimit:2.6131;}
	.st4{fill:none;stroke:#1A171B;stroke-width:1.9067;stroke-miterlimit:2.6131;}
	.st5{fill-rule:evenodd;clip-rule:evenodd;fill:#FFEC00;stroke:#1A171B;stroke-width:1.43;stroke-miterlimit:2.6131;}
	.st6{fill-rule:evenodd;clip-rule:evenodd;fill:#3D3D3F;stroke:#1A171B;stroke-width:1.43;stroke-miterlimit:2.6131;}
	.st7{fill:none;stroke:#FFFFFF;stroke-width:1.9067;stroke-miterlimit:2.6131;}
	.st8{fill-rule:evenodd;clip-rule:evenodd;fill:#E43417;stroke:#1A171B;stroke-width:1.43;stroke-miterlimit:2.6131;}
	.st9{fill-rule:evenodd;clip-rule:evenodd;fill:#1A171B;}
	.st10{fill:none;stroke:#1A171B;stroke-width:4.7668;stroke-miterlimit:2.6131;}
	.st11{fill:none;stroke:#1A171B;stroke-width:1.43;stroke-miterlimit:2.6131;}
	
		.st12{fill:none;stroke:#1A171B;stroke-width:4.7668;stroke-linecap:square;stroke-miterlimit:2.6131;stroke-dasharray:23.8341,23.8341;}
</style>
<g>
	<g>
		<polygon class="st0" points="450.2,120 69.6,120 263.2,314 53.3,314 53.3,646.1 268,646.1 74.9,839.9 477.9,839.9 637.6,679.5 
			906.7,679.5 906.7,563.6 906.6,563.6 906.6,314 643.7,314 450.2,120 		"/>
		<path class="st1" d="M412.3,120H107.5l181.2,181.8c17.3,18.4,9.2,38.7-18,39H53.3v278.6h216.5c28.3,0.2,41.5,18.7,23.7,39.1
			L112.9,839.9h327.1l165.7-166.3c17.6-18.7,22.2-20.9,53.2-20.8h247.8V541.3V340.8H671.7c-36.5-0.2-40.9-3.6-65.3-26L412.3,120
			L412.3,120z"/>
		<path class="st2" d="M390.6,758.6c7.8-10.6,18.5-25.1,31.8-38.7c10.8-10.8,21.5-21.5,32.4-32.4c15.1-13.2,26.1-25,40.4-32.4
			c2.7-1.6,10.8-3.7,14.5,0.1l27.5,27.5c4.4,4.4,0,11.3-1.2,13.3c-8.3,13.5-18.5,25.9-32.6,40l-32.7,32.7
			c-12.7,12.7-26.9,24.1-38.3,32c-3.2,2.1-8.5,6.3-14.2,0.5l-27.7-27.7C383,765.7,387.3,763,390.6,758.6L390.6,758.6z"/>
		<path class="st3" d="M459.5,696.6l10.1-13.7c17.8,8.4,29,20.5,38.7,38.7l-13.6,10.2C483.7,714.8,477.3,707.9,459.5,696.6
			L459.5,696.6z"/>
		<path class="st3" d="M409.7,747.7l9.8-4.9c8,11.7,17.7,21.3,28.7,29l-4.6,9.8C430.7,772.6,419.3,760.7,409.7,747.7L409.7,747.7z"
			/>
		<line class="st4" x1="418.5" y1="733.2" x2="452.9" y2="699.1"/>
		<line class="st4" x1="457.6" y1="772.4" x2="492" y2="738.2"/>
		<path class="st5" d="M99.4,536.4c13-1.9,30.9-4.7,49.9-4.8c15.2,0,30.5,0,45.9,0c20,1.4,36.1,0.8,51.5,5.6c3,0.8,10.2,5,10.2,10.3
			v38.8c0,6.2-8,8-10.2,8.5c-15.4,3.7-31.5,5.2-51.3,5.2h-46.3c-18,0-36.1-1.9-49.7-4.5c-3.8-0.8-10.4-1.6-10.4-9.7v-39.2
			C89,536,94,537.2,99.4,536.4L99.4,536.4z"/>
		<path class="st3" d="M192,541.2l16.8-2.6c6.6,18.5,6,35,0,54.8L192,591C196.2,571.2,196.6,561.8,192,541.2L192,541.2z"/>
		<path class="st3" d="M120.6,542.2l10.4,3.5c-2.6,14-2.6,27.6-0.2,40.8l-10.2,3.7C117.8,574.6,118.2,558.1,120.6,542.2L120.6,542.2
			z"/>
		<line class="st4" x1="137.1" y1="538.1" x2="185.5" y2="538.3"/>
		<line class="st4" x1="137.1" y1="593.5" x2="185.5" y2="593.7"/>
		<path class="st6" d="M267.6,159.4c10.6,7.9,25.1,18.6,38.7,31.9c10.7,10.8,21.5,21.6,32.4,32.5c13.2,15.2,24.9,26.1,32.4,40.4
			c1.6,2.7,3.6,10.8-0.1,14.5l-27.5,27.4c-4.4,4.4-11.3-0.1-13.3-1.2c-13.5-8.3-25.9-18.6-39.9-32.6l-32.7-32.8
			c-12.7-12.8-24.1-26.9-31.9-38.3c-2.1-3.2-6.3-8.5-0.5-14.2l27.8-27.7C260.5,151.7,263.2,156.1,267.6,159.4L267.6,159.4z"/>
		<path class="st3" d="M329.5,228.4l13.7,10.1c-8.5,17.8-20.6,29-38.8,38.7l-10.2-13.6C311.2,252.5,318.2,246.1,329.5,228.4
			L329.5,228.4z"/>
		<path class="st3" d="M278.4,178.5l4.9,9.8c-11.7,8-21.4,17.6-29,28.6l-9.8-4.6C253.5,199.4,265.5,188.1,278.4,178.5L278.4,178.5z"
			/>
		<line class="st7" x1="292.9" y1="187.3" x2="327" y2="221.8"/>
		<line class="st7" x1="253.7" y1="226.4" x2="287.8" y2="260.8"/>
		<path class="st8" d="M858.7,367c-13-1.9-30.9-4.7-49.9-4.9c-15.2,0-30.5,0-45.9,0c-20,1.4-36.1,0.8-51.5,5.6
			c-3,0.8-10.2,5-10.2,10.3v38.8c0,6.2,8,8,10.2,8.5c15.4,3.7,31.5,5.2,51.3,5.2H809c18,0,36.1-1.9,49.7-4.5
			c3.8-0.8,10.4-1.6,10.4-9.7v-39.2C869.1,366.6,864.1,367.7,858.7,367L858.7,367z"/>
		<path class="st3" d="M766.1,371.8l-16.8-2.6c-6.6,18.5-6,35,0,54.8l16.8-2.4C761.9,401.8,761.5,392.3,766.1,371.8L766.1,371.8z"/>
		<path class="st3" d="M837.5,372.8l-10.4,3.5c2.6,14,2.6,27.6,0.2,40.8l10.2,3.7C840.3,405.2,839.9,388.7,837.5,372.8L837.5,372.8z
			"/>
		<line class="st4" x1="821" y1="368.7" x2="772.5" y2="368.9"/>
		<line class="st4" x1="821" y1="424" x2="772.5" y2="424.2"/>
		<polygon class="st6" points="733.6,619.1 697.6,627.3 697.6,611 733.6,619.1 		"/>
		<polygon class="st6" points="446.5,398.8 482.5,407 482.5,390.6 446.5,398.8 		"/>
		<polygon class="st6" points="292.8,729.4 324,709.8 312.5,698.2 292.8,729.4 		"/>
		<path class="st9" d="M345.4,154.6h22.8c4.5,0,7.9,0.2,10.1,0.6c2.2,0.4,4.2,1.2,5.9,2.3c1.7,1.2,3.2,2.8,4.4,4.8
			c1.2,2,1.7,4.2,1.7,6.7c0,2.7-0.7,5.1-2.1,7.3c-1.4,2.2-3.4,3.9-5.8,5c3.5,1,6.1,2.7,8,5.2c1.9,2.4,2.8,5.3,2.8,8.6
			c0,2.6-0.6,5.1-1.8,7.6c-1.2,2.4-2.8,4.4-4.9,5.9c-2.1,1.5-4.6,2.4-7.7,2.7c-1.9,0.2-6.5,0.3-13.9,0.4h-19.4V154.6L345.4,154.6z
			 M356.9,164.1v13.2h7.5c4.5,0,7.3-0.1,8.3-0.2c2-0.2,3.5-0.9,4.6-2c1.1-1.1,1.7-2.6,1.7-4.5c0-1.8-0.5-3.2-1.4-4.3
			c-1-1.1-2.4-1.8-4.3-2c-1.1-0.1-4.4-0.2-9.8-0.2H356.9L356.9,164.1z M356.9,186.7v15.2h10.6c4.1,0,6.8-0.1,7.9-0.3
			c1.7-0.3,3.1-1.1,4.2-2.3c1.1-1.2,1.6-2.8,1.6-4.8c0-1.7-0.4-3.2-1.2-4.3c-0.8-1.2-2-2.1-3.6-2.6c-1.6-0.5-5-0.8-10.2-0.8H356.9
			L356.9,186.7z"/>
		<path class="st9" d="M151.5,519.1v-56.9h18.4c7,0,11.5,0.3,13.7,0.9c3.3,0.9,6,2.7,8.2,5.6c2.2,2.9,3.3,6.6,3.3,11.1
			c0,3.5-0.6,6.4-1.9,8.8c-1.3,2.4-2.9,4.2-4.8,5.6c-1.9,1.4-3.9,2.2-5.9,2.7c-2.7,0.5-6.7,0.8-11.9,0.8H163v21.5H151.5L151.5,519.1
			z M163,471.8V488h6.3c4.5,0,7.6-0.3,9.1-0.9c1.5-0.6,2.7-1.5,3.6-2.8c0.9-1.3,1.3-2.7,1.3-4.4c0-2.1-0.6-3.8-1.8-5.1
			c-1.2-1.3-2.8-2.2-4.6-2.5c-1.4-0.3-4.1-0.4-8.3-0.4H163L163,471.8z"/>
		<polygon class="st9" points="768.4,501.3 768.4,444.3 779.6,444.3 802.9,482.3 802.9,444.3 813.6,444.3 813.6,501.3 802,501.3 
			779.1,464.1 779.1,501.3 768.4,501.3 		"/>
		<path class="st9" d="M382.4,653.7h21c4.7,0,8.3,0.4,10.8,1.1c3.3,1,6.2,2.7,8.6,5.2c2.4,2.5,4.2,5.6,5.4,9.2
			c1.2,3.6,1.9,8.1,1.9,13.5c0,4.7-0.6,8.7-1.7,12.1c-1.4,4.1-3.4,7.5-6.1,10c-2,2-4.7,3.5-8.1,4.5c-2.5,0.8-5.9,1.2-10.2,1.2h-21.6
			V653.7L382.4,653.7z M393.9,663.4v37.7h8.6c3.2,0,5.5-0.2,7-0.5c1.9-0.5,3.4-1.2,4.6-2.4c1.2-1.1,2.2-3,3-5.5
			c0.8-2.5,1.2-6,1.2-10.4c0-4.4-0.4-7.8-1.2-10.1c-0.8-2.4-1.9-4.2-3.3-5.5c-1.4-1.3-3.2-2.2-5.3-2.7c-1.6-0.4-4.7-0.5-9.4-0.5
			H393.9L393.9,663.4z"/>
		<path class="st10" d="M69.6,120.1l193.5,194H53.3 M53.3,646.2H268L74.9,840 M477.9,840l159.8-160.4l269-0.1 M906.6,314.1h-263
			l-193.4-194"/>
		<path class="st11" d="M107.5,120.1l181.2,181.8c17.3,18.4,9.2,38.7-18,39H53.3 M53.3,619.5h216.5c28.3,0.2,41.5,18.7,23.7,39.1
			L112.9,840 M439.9,840l165.7-166.3c17.6-18.7,22.2-20.9,53.2-20.8h247.8 M906.6,340.9H671.7c-36.5-0.2-40.9-3.6-65.3-26
			L412.3,120.1"/>
		<path class="st12" d="M263.1,568.1c165.6-0.7,189.3,52,430.6,51.2c-88.5-2.3-112.8-2.4-165.7,46.6"/>
		<line class="st12" x1="695.8" y1="398.7" x2="487.2" y2="398.7"/>
		<path class="st12" d="M363,296.2c106,136.9,41.2,304.9-41.4,404"/>
	</g>
</g>
</svg>
