<?xml version="1.0" encoding="utf-8"?>
<!-- Generator: Adobe Illustrator 19.2.0, SVG Export Plug-In . SVG Version: 6.00 Build 0)  -->
<svg version="1.1" id="Livello_1" xmlns="http://www.w3.org/2000/svg" xmlns:xlink="http://www.w3.org/1999/xlink" x="0px" y="0px"
	 viewBox="0 0 960 960" style="enable-background:new 0 0 960 960;" xml:space="preserve">
<style type="text/css">
	.st0{fill-rule:evenodd;clip-rule:evenodd;fill:#FFFFFF;}
	.st1{fill-rule:evenodd;clip-rule:evenodd;fill:#CECFD1;}
	.st2{fill-rule:evenodd;clip-rule:evenodd;fill:#3D3D3F;stroke:#1A171B;stroke-width:1.2523;stroke-miterlimit:2.6131;}
	.st3{fill-rule:evenodd;clip-rule:evenodd;fill:#FFFFFF;stroke:#1A171B;stroke-width:1.2523;stroke-miterlimit:2.6131;}
	.st4{fill:none;stroke:#FFFFFF;stroke-width:1.6697;stroke-miterlimit:2.6131;}
	.st5{fill-rule:evenodd;clip-rule:evenodd;fill:#E43417;stroke:#1A171B;stroke-width:1.2523;stroke-miterlimit:2.6131;}
	.st6{fill:none;stroke:#1A171B;stroke-width:1.6697;stroke-miterlimit:2.6131;}
	.st7{fill-rule:evenodd;clip-rule:evenodd;fill:#1A171B;}
	.st8{fill-rule:evenodd;clip-rule:evenodd;fill:#049853;stroke:#1A171B;stroke-width:1.2523;stroke-miterlimit:2.6131;}
	.st9{fill:none;stroke:#1A171B;stroke-width:4.1742;stroke-linecap:square;stroke-miterlimit:2.6131;}
	.st10{fill:none;stroke:#1A171B;stroke-width:1.2523;stroke-linecap:square;stroke-miterlimit:2.6131;}
	
		.st11{fill:none;stroke:#1A171B;stroke-width:4.1742;stroke-linecap:square;stroke-miterlimit:2.6131;stroke-dasharray:20.8712,20.8712;}
	.st12{fill-rule:evenodd;clip-rule:evenodd;fill:#E1001A;}
	.st13{fill-rule:evenodd;clip-rule:evenodd;fill:#FFFFFF;stroke:#E1001A;stroke-width:4.1742;stroke-miterlimit:2.6131;}
</style>
<g>
	<g>
		<polygon class="st0" points="633.3,336.8 899.8,336.9 899.8,622.6 633.3,622.5 633.3,840 327.1,840 327.1,622.5 60.2,622.5 
			60.2,336.8 327.1,336.8 327.1,120 633.3,120 633.3,336.8 		"/>
		<path class="st1" d="M353.3,120h253.3l-0.1,208.6c-0.1,25.5,8.3,34.7,36.8,34.7l256.5,0v232.9H643.3c-28.3,0-36.8,8.3-36.8,34.7
			l0.1,209.1H353.3V630.9c0-26.4-8.4-34.7-34.4-34.7H60.2V363.3H319c26.2,0,34.4-8.3,34.4-34.7V120L353.3,120z"/>
		<path class="st2" d="M169.2,499.2c11.2-1.7,26.6-4,43-4.2c13.1,0,26.2,0,39.5,0c17.3,1.2,31.1,0.7,44.3,4.9
			c2.6,0.7,8.8,4.3,8.8,8.9v33.4c0,5.4-6.9,6.9-8.8,7.4c-13.3,3.2-27.1,4.5-44.2,4.5H212c-15.5,0-31.1-1.7-42.8-3.8
			c-3.3-0.7-9-1.3-9-8.4v-33.8C160.2,498.9,164.6,499.9,169.2,499.2L169.2,499.2z"/>
		<path class="st3" d="M248.9,503.4l14.5-2.3c5.7,16,5.2,30.2,0,47.2l-14.5-2.1C252.6,529.2,252.9,521,248.9,503.4L248.9,503.4z"/>
		<path class="st3" d="M187.5,504.2l9,3c-2.2,12-2.2,23.7-0.2,35.1l-8.8,3.2C185.1,532.1,185.4,517.9,187.5,504.2L187.5,504.2z"/>
		<line class="st4" x1="201.7" y1="500.7" x2="243.4" y2="500.9"/>
		<line class="st4" x1="201.7" y1="548.3" x2="243.4" y2="548.5"/>
		<path class="st5" d="M796.9,441c-11.2,1.7-26.6,4-43,4.2c-13.1,0-26.2,0-39.5,0c-17.3-1.2-31.1-0.7-44.3-4.8
			c-2.6-0.7-8.8-4.3-8.8-8.9V398c0-5.4,6.9-6.9,8.8-7.4c13.3-3.2,27.1-4.5,44.2-4.5h39.9c15.5,0,31.1,1.7,42.8,3.8
			c3.3,0.7,9,1.3,9,8.4v33.8C805.9,441.3,801.6,440.3,796.9,441L796.9,441z"/>
		<path class="st3" d="M717.2,436.8l-14.5,2.3c-5.7-16-5.2-30.2,0-47.2l14.5,2.1C713.6,411,713.2,419.1,717.2,436.8L717.2,436.8z"/>
		<path class="st3" d="M778.6,436l-9-3c2.2-12,2.2-23.7,0.2-35.1l8.8-3.2C781,408,780.7,422.2,778.6,436L778.6,436z"/>
		<line class="st6" x1="764.5" y1="439.5" x2="722.7" y2="439.3"/>
		<line class="st6" x1="764.5" y1="391.8" x2="722.7" y2="391.7"/>
		<polygon class="st2" points="547.1,224.7 555.1,260.2 539,260.2 547.1,224.7 		"/>
		<path class="st7" d="M759.5,543.1h-10.7l-4.2-11h-19.4l-4,11h-10.4l18.9-48.5H740L759.5,543.1L759.5,543.1z M741.4,524l-6.7-18
			l-6.5,18H741.4L741.4,524z"/>
		<path class="st8" d="M494,772c-1.7-11.2-4-26.6-4.2-43c0-13.1,0-26.2,0-39.5c1.2-17.3,0.7-31.1,4.8-44.3c0.7-2.6,4.3-8.8,8.9-8.8
			H537c5.4,0,6.9,6.9,7.4,8.8c3.2,13.3,4.5,27.1,4.5,44.2v39.9c0,15.5-1.7,31.1-3.8,42.8c-0.7,3.3-1.3,9-8.4,9h-33.8
			C493.7,781,494.7,776.6,494,772L494,772z"/>
		<path class="st3" d="M498.2,692.3l-2.3-14.5c15.9-5.7,30.2-5.2,47.2,0l-2.1,14.5C524,688.6,515.9,688.3,498.2,692.3L498.2,692.3z"
			/>
		<path class="st3" d="M499,753.7l3-9c12,2.2,23.7,2.2,35.1,0.2l3.2,8.8C527,756.1,512.7,755.8,499,753.7L499,753.7z"/>
		<line class="st6" x1="495.5" y1="739.5" x2="495.7" y2="697.8"/>
		<line class="st6" x1="543.2" y1="739.5" x2="543.3" y2="697.8"/>
		<path class="st9" d="M633.3,120v216.8l266.5,0.1 M899.8,622.6l-266.5-0.1V840 M327.1,840V622.5l-266.9,0.1 M60.2,336.8h266.9V120"
			/>
		<path class="st10" d="M606.6,120v208.7c-0.1,25.5,8.3,34.7,36.8,34.7l256.4-0.1 M899.8,596.2l-256.4,0.1
			c-28.3,0-36.8,8.3-36.8,34.7v209 M353.3,840V631c0-26.4-8.4-34.7-34.4-34.7H60.2 M60.2,363.4H319c26.2,0,34.4-8.3,34.4-34.7V120"
			/>
		<polygon class="st0" points="606.3,457.1 606.3,440.1 632.6,448.6 606.3,457.1 		"/>
		<polygon class="st0" points="606.3,404 606.3,386.9 632.6,395.5 606.3,404 		"/>
		<polygon class="st0" points="606.3,377.5 606.3,360.4 632.6,368.9 606.3,377.5 		"/>
		<polygon class="st0" points="606.3,483.7 606.3,466.6 632.6,475.2 606.3,483.7 		"/>
		<polygon class="st0" points="606.3,430.6 606.3,413.5 632.6,422 606.3,430.6 		"/>
		<polygon class="st0" points="639.6,475.4 899.8,475.4 899.8,484.2 639.6,484.2 639.6,475.4 		"/>
		<polygon class="st0" points="353.1,502.3 353.1,519.4 326.9,510.9 353.1,502.3 		"/>
		<polygon class="st0" points="353.1,555.4 353.1,572.5 326.9,564 353.1,555.4 		"/>
		<polygon class="st0" points="353.1,582 353.1,599.1 326.9,590.5 353.1,582 		"/>
		<polygon class="st0" points="353.1,475.8 353.1,492.9 326.9,484.3 353.1,475.8 		"/>
		<polygon class="st0" points="353.1,528.9 353.1,546 326.9,537.4 353.1,528.9 		"/>
		<polygon class="st0" points="320,484 60.4,484 60.4,475.2 320,475.2 320,484 		"/>
		<path class="st11" d="M313.3,526.2c187.7-1.2,235.2-131.9,233.5-261.1"/>
		<path class="st3" d="M649.7,251c0.1-3.4,2.7-5.5,6.1-4.9l0.5,0.1l0.6,0.2l0.5,0.2L712,278c2.4,1.6,3.8,3.8,2.6,6.7
			c-0.6,1.1-1.5,1.9-2.5,2.5l-54.3,31.4c-2.1,1.1-4.4,1.6-6.4-0.2c-1.5-1.4-1.6-3.1-1.6-5l0-61.7V251L649.7,251z"/>
		<path class="st12" d="M651.3,251.7c0-1-0.1-1.9,0.6-2.9c0.7-1,2.6-1.9,4.8-0.8l54.4,31.4c3.1,1.8,3,4.9,0.1,6.5l-54.3,31.3
			c-1.2,0.7-2.8,1.2-4,0.5c-1.6-1-1.6-2.6-1.6-4.3L651.3,251.7L651.3,251.7z"/>
		<polygon class="st13" points="657.7,255.9 704,282.7 657.7,309.4 657.7,255.9 		"/>
		<line class="st9" x1="715.1" y1="282.5" x2="768.9" y2="282.5"/>
		<path class="st3" d="M309.9,707.2c-0.1,3.4-2.7,5.5-6.1,4.9l-0.5-0.1l-0.6-0.2l-0.5-0.2l-54.5-31.4c-2.4-1.6-3.8-3.8-2.6-6.7
			c0.6-1.1,1.5-1.9,2.5-2.5l54.3-31.4c2.1-1.1,4.4-1.6,6.4,0.2c1.5,1.4,1.6,3.1,1.6,5l0,61.7V707.2L309.9,707.2z"/>
		<path class="st12" d="M308.3,706.4c0,1,0.1,1.9-0.6,2.9c-0.7,1-2.6,1.9-4.8,0.8l-54.4-31.4c-3.1-1.8-3-4.9-0.1-6.5l54.3-31.3
			c1.2-0.7,2.8-1.2,4-0.5c1.6,1,1.6,2.6,1.6,4.3L308.3,706.4L308.3,706.4z"/>
		<polygon class="st13" points="302,702.3 255.6,675.5 302,648.7 302,702.3 		"/>
		<line class="st9" x1="244.5" y1="675.6" x2="190.7" y2="675.6"/>
		<path class="st7" d="M95.7,546.8v-48.5h20.6c5.2,0,8.9,0.4,11.3,1.3c2.3,0.9,4.2,2.4,5.6,4.6c1.4,2.2,2.1,4.8,2.1,7.6
			c0,3.6-1.1,6.7-3.2,9c-2.1,2.4-5.3,3.9-9.6,4.5c2.1,1.2,3.9,2.6,5.2,4.1c1.4,1.5,3.2,4.1,5.6,7.9l5.9,9.5h-11.7l-7.1-10.5
			c-2.5-3.8-4.2-6.1-5.2-7.1c-0.9-1-1.9-1.7-2.9-2c-1-0.4-2.7-0.5-4.9-0.5h-2v20.2H95.7L95.7,546.8z M105.5,518.8h7.2
			c4.7,0,7.6-0.2,8.8-0.6c1.2-0.4,2.1-1.1,2.7-2.1c0.7-1,1-2.2,1-3.6c0-1.6-0.4-2.9-1.3-4c-0.9-1-2.1-1.6-3.7-1.9
			c-0.8-0.1-3.2-0.2-7.1-0.2h-7.6V518.8L105.5,518.8z"/>
		<polygon class="st7" points="427.1,742.3 427.1,693.8 436.7,693.8 456.5,726.2 456.5,693.8 465.6,693.8 465.6,742.3 455.8,742.3 
			436.2,710.7 436.2,742.3 427.1,742.3 		"/>
		<polygon class="st2" points="253.2,410 285.5,417.3 285.5,402.7 253.2,410 		"/>
		<path class="st11" d="M295,410c124.3,4.6,224.6,89.4,225.4,217.3"/>
		<polygon class="st2" points="441.6,415.4 473.8,422.8 473.8,408.1 441.6,415.4 		"/>
		<line class="st11" x1="651.4" y1="415.2" x2="472.3" y2="415.2"/>
	</g>
</g>
</svg>
