<?xml version="1.0" encoding="utf-8"?>
<!-- Generator: Adobe Illustrator 19.2.0, SVG Export Plug-In . SVG Version: 6.00 Build 0)  -->
<svg version="1.1" id="Livello_1" xmlns="http://www.w3.org/2000/svg" xmlns:xlink="http://www.w3.org/1999/xlink" x="0px" y="0px"
	 viewBox="0 0 960 960" style="enable-background:new 0 0 960 960;" xml:space="preserve">
<style type="text/css">
	.st0{fill-rule:evenodd;clip-rule:evenodd;fill:#FFFFFF;}
	.st1{fill-rule:evenodd;clip-rule:evenodd;fill:#CECFD1;}
	.st2{fill-rule:evenodd;clip-rule:evenodd;fill:#FFEC00;stroke:#1A171B;stroke-width:1.4518;stroke-miterlimit:2.6131;}
	.st3{fill-rule:evenodd;clip-rule:evenodd;fill:#FFFFFF;stroke:#1A171B;stroke-width:1.4518;stroke-miterlimit:2.6131;}
	.st4{fill:none;stroke:#1A171B;stroke-width:1.9357;stroke-miterlimit:2.6131;}
	.st5{fill-rule:evenodd;clip-rule:evenodd;fill:#3D3D3F;stroke:#1A171B;stroke-width:1.4518;stroke-miterlimit:2.6131;}
	.st6{fill-rule:evenodd;clip-rule:evenodd;fill:#1A171B;}
	.st7{fill-rule:evenodd;clip-rule:evenodd;fill:#00A6E2;stroke:#1A171B;stroke-width:1.4518;stroke-miterlimit:2.6131;}
	
		.st8{fill-rule:evenodd;clip-rule:evenodd;fill:#E43417;stroke:#1A171B;stroke-width:1.4518;stroke-linecap:square;stroke-miterlimit:2.6131;}
	
		.st9{fill-rule:evenodd;clip-rule:evenodd;fill:#FFFFFF;stroke:#1A171B;stroke-width:1.4518;stroke-linecap:square;stroke-miterlimit:2.6131;}
	.st10{fill:none;stroke:#1A171B;stroke-width:4.8393;stroke-linecap:square;stroke-miterlimit:2.6131;}
	.st11{fill:none;stroke:#1A171B;stroke-width:1.4518;stroke-linecap:square;stroke-miterlimit:2.6131;}
	
		.st12{fill:none;stroke:#1A171B;stroke-width:4.8393;stroke-linecap:square;stroke-miterlimit:2.6131;stroke-dasharray:24.1965,24.1965;}
	.st13{fill-rule:evenodd;clip-rule:evenodd;}
</style>
<g>
	<g>
		<path class="st0" d="M915,652.3L759.9,807.3L624.1,671.9H490L371.4,790.5H45l245.2-245.2c6.7-8.7,6.1-17.9-0.6-26.2L89.2,318.7
			l166-166l212,212c15.8,13.8,32.8,8.5,38.9-11.2L567.1,155h241.4l-74.3,244.2L763,500.6L915,652.3L915,652.3z"/>
		<path class="st1" d="M898.4,668.9l-122,122l-123-122.8c-16.7-16.9-22.9-19.6-46.4-19.6h-97.4c-25.6,0.2-29.7,1-49.2,19.9
			l-122,122.1H77.4l226.8-226.8c19.1-20.4,20.2-42,0.1-63L105.6,302.3l132.9-133.1l213,212.7c25.1,24.7,66.3,15.1,77.6-22.1
			l62.3-204.6H784l-66.3,218.6c-6.5,21.5-6.9,27.3-1.7,47.2c6.1,21.6,12.2,43.1,18.4,64.8c6.9,23.7,9.7,29.6,26.3,45.9L898.4,668.9
			L898.4,668.9z"/>
		<path class="st2" d="M309.9,719.6c6.8-9.2,16.2-21.8,27.8-33.6c9.4-9.4,18.8-18.7,28.3-28.2c13.2-11.5,22.7-21.7,35.2-28.2
			c2.3-1.4,9.4-3.2,12.6,0.1l23.9,23.9c3.8,3.8,0,9.8-1.1,11.5c-7.2,11.7-16.2,22.6-28.4,34.7l-28.5,28.4
			c-11.1,11.1-23.4,21-33.4,27.8c-2.8,1.9-7.4,5.4-12.4,0.4l-24.1-24.2C303.2,725.8,307,723.4,309.9,719.6L309.9,719.6z"/>
		<path class="st3" d="M369.9,665.7l8.8-12c15.5,7.4,25.2,17.9,33.6,33.8l-11.9,8.9C390.9,681.7,385.4,675.6,369.9,665.7
			L369.9,665.7z"/>
		<path class="st3" d="M326.5,710.2l8.6-4.2c7,10.2,15.3,18.6,24.9,25.3l-4,8.6C344.7,731.9,334.8,721.5,326.5,710.2L326.5,710.2z"
			/>
		<line class="st4" x1="334.2" y1="697.6" x2="364.2" y2="667.9"/>
		<line class="st4" x1="368.1" y1="731.7" x2="398.2" y2="702"/>
		<polygon class="st5" points="702.2,650 687.1,621.6 676.3,630.9 702.2,650 		"/>
		<polygon class="st5" points="714,694.9 699,666.5 688.2,675.8 714,694.9 		"/>
		<polygon class="st5" points="251.3,670.4 278.6,653.5 268.7,643.3 251.3,670.4 		"/>
		<path class="st6" d="M296.1,758.3h-10.9l-4.3-11.3h-19.8l-4.1,11.3h-10.6l19.3-49.5h10.6L296.1,758.3L296.1,758.3z M277.7,738.7
			l-6.8-18.4l-6.7,18.4H277.7L277.7,738.7z"/>
		<polygon class="st6" points="764.3,721.4 764.3,672.2 774.3,672.2 774.3,713 799.2,713 799.2,721.4 764.3,721.4 		"/>
		<path class="st7" d="M810.6,681.7c-9.2-6.8-21.9-16-33.8-27.5c-9.4-9.3-18.8-18.6-28.4-28.1c-11.6-13.1-21.8-22.6-28.4-35
			c-1.4-2.3-3.2-9.4,0-12.6l23.8-24c3.8-3.8,9.8,0,11.6,1c11.8,7.2,22.7,16,34.9,28.2l28.6,28.3c11.2,11,21.1,23.3,28,33.2
			c1.9,2.8,5.5,7.3,0.5,12.4l-24,24.3C816.8,688.3,814.4,684.5,810.6,681.7L810.6,681.7z"/>
		<path class="st3" d="M756.3,622l-12-8.7c7.2-15.5,17.7-25.4,33.5-33.9l8.9,11.8C772.1,600.9,766,606.5,756.3,622L756.3,622z"/>
		<path class="st3" d="M801,665.1l-4.3-8.5c10.2-7,18.5-15.5,25.1-25.1l8.6,4C822.6,646.7,812.3,656.7,801,665.1L801,665.1z"/>
		<line class="st4" x1="788.4" y1="657.5" x2="758.5" y2="627.7"/>
		<line class="st4" x1="822.2" y1="623.3" x2="792.4" y2="593.5"/>
		<polygon class="st8" points="160.1,326.3 167.2,333.4 223.6,277 216.5,269.9 160.1,326.3 		"/>
		<path class="st8" d="M340,383l-22.6-22.6c-0.9-0.9-2.6-0.8-3.7,0.4c-1.1,1.1-1,3.1-0.4,3.7l24,24C337.4,388.6,341.6,384.7,340,383
			L340,383z"/>
		<path class="st8" d="M273.4,449.5L250.9,427c-0.9-0.9-0.8-2.6,0.4-3.7c1.1-1.1,3.1-1,3.7-0.4l24,24
			C279.1,446.9,275.1,451.2,273.4,449.5L273.4,449.5z"/>
		<path class="st8" d="M295.2,467.2l62.4-62.3l2,2c3.4,3.4,3.4,8.9,0,12.3l-50,50c-3.4,3.4-8.9,3.4-12.3,0L295.2,467.2L295.2,467.2z
			"/>
		<path class="st8" d="M297.4,465.3l-36.1-36.1l58.2-58.3l36.1,36.1c2.7,2.7,2.9,7.4,0,10.3l-47.9,47.9
			C304.9,468.2,300.3,468.2,297.4,465.3L297.4,465.3z"/>
		<path class="st8" d="M290.1,450.4l-18.3-18.3c-1.4-1.4-0.8-4.2,1.4-6.4l42.9-42.9c2.2-2.2,5.1-2.8,6.5-1.4l18.3,18.3
			c1.4,1.4,0.5,4.2-1.4,6.5c-13.1,15.6-27.5,29.8-42.9,42.9C294.2,451.1,291.5,451.8,290.1,450.4L290.1,450.4z"/>
		<path class="st9" d="M299,462c-0.1-1.4-1.8-7.9-1.1-8.5c16.2-12.2,34-29.8,46.6-46.6c0.2-0.3,6.6,1.7,7.9,1.7
			c1.6,0.1,1.1,3.8-0.2,5.4c-14.6,17.1-30.7,33.1-47.7,47.7C302.7,463.3,299.1,463.9,299,462L299,462z"/>
		<path class="st8" d="M256.5,299.5L233.9,277c-0.9-0.9-2.6-0.8-3.7,0.4c-1.1,1.1-0.4,3.7-0.4,3.7l24,24
			C253.8,305.1,258.2,301.2,256.5,299.5L256.5,299.5z"/>
		<path class="st8" d="M190,366.1l-22.6-22.6c-0.9-0.9-0.8-2.6,0.4-3.7c1.1-1.1,3.7-0.4,3.7-0.4l24,24
			C195.5,363.4,191.6,367.7,190,366.1L190,366.1z"/>
		<polygon class="st8" points="259.4,431.4 159.3,331.3 221.6,268.9 321.7,369 259.4,431.4 		"/>
		<polygon class="st8" points="258.8,422.6 168,331.8 222.2,277.7 313,368.5 258.8,422.6 		"/>
		<polygon class="st8" points="269.6,411.9 178.7,321.1 211.5,288.3 302.4,379.1 269.6,411.9 		"/>
		<polygon class="st8" points="280.5,401 189.7,310.2 200.6,299.2 291.4,390.1 280.5,401 		"/>
		<path class="st10" d="M255.2,152.7l212,212c15.8,13.8,32.8,8.5,38.9-11.2L567.1,155 M808.4,155l-74.3,244.2L763,500.6l152,151.6
			 M759.9,807.3L624.1,671.9H490L371.4,790.5 M45,790.5l245.2-245.2c6.7-8.7,6.1-17.9-0.6-26.2L89.2,318.7"/>
		<path class="st11" d="M238.5,169.2l213,212.7c25.1,24.7,66.3,15.1,77.6-22.1l62.3-204.6 M784,155.1l-66.3,218.6
			c-6.5,21.5-6.9,27.3-1.7,47.2c6.1,21.6,12.2,43.1,18.4,64.8c6.9,23.7,9.7,29.6,26.3,45.9l137.7,137.4 M776.4,790.9l-123-122.8
			c-16.7-16.9-22.9-19.6-46.4-19.6h-97.4c-25.6,0.2-29.7,1-49.2,19.9l-122,122.1 M77.4,790.6l226.8-226.8c19.1-20.4,20.2-42,0.1-63
			L105.6,302.3"/>
		<path class="st12" d="M428,638.7c52.8-36.2,184.5-52.9,264.3,31.2"/>
		<path class="st12" d="M339.9,449.9c108.8,106.8,204.2,30.9,339.9,174.6"/>
		<path class="st12" d="M729,565c-123.4-53.6-319-56.4-453.3,81.6"/>
		<path class="st13" d="M330.1,313.7l9.4,3c-1.4,5.2-3.8,9.1-7.2,11.7c-3.3,2.5-7.6,3.8-12.7,3.8c-6.4,0-11.6-2.2-15.7-6.5
			c-4.1-4.4-6.2-10.3-6.2-17.8c0-8,2.1-14.2,6.2-18.6c4.1-4.4,9.5-6.6,16.3-6.6c5.9,0,10.6,1.7,14.3,5.2c2.2,2,3.8,5,4.9,8.8
			l-9.6,2.3c-0.6-2.5-1.7-4.5-3.6-5.9c-1.8-1.4-4-2.2-6.6-2.2c-3.6,0-6.4,1.3-8.7,3.8c-2.2,2.5-3.3,6.7-3.3,12.4
			c0,6.1,1.1,10.4,3.3,13c2.2,2.6,5,3.9,8.5,3.9c2.6,0,4.8-0.8,6.6-2.5C327.9,319.8,329.3,317.2,330.1,313.7L330.1,313.7z"/>
	</g>
</g>
</svg>
