<?xml version="1.0" encoding="utf-8"?>
<!-- Generator: Adobe Illustrator 19.2.0, SVG Export Plug-In . SVG Version: 6.00 Build 0)  -->
<svg version="1.1" id="Livello_1" xmlns="http://www.w3.org/2000/svg" xmlns:xlink="http://www.w3.org/1999/xlink" x="0px" y="0px"
	 viewBox="0 0 960 960" style="enable-background:new 0 0 960 960;" xml:space="preserve">
<style type="text/css">
	.st0{fill-rule:evenodd;clip-rule:evenodd;fill:#FFFFFF;}
	.st1{fill-rule:evenodd;clip-rule:evenodd;fill:#CECFD1;}
	.st2{fill-rule:evenodd;clip-rule:evenodd;fill:#3D3D3F;stroke:#1A171B;stroke-width:1.2523;stroke-miterlimit:2.6131;}
	.st3{fill-rule:evenodd;clip-rule:evenodd;fill:#FFFFFF;stroke:#1A171B;stroke-width:1.2523;stroke-miterlimit:2.6131;}
	.st4{fill:none;stroke:#FFFFFF;stroke-width:1.6697;stroke-miterlimit:2.6131;}
	.st5{fill-rule:evenodd;clip-rule:evenodd;fill:#E43417;stroke:#1A171B;stroke-width:1.2523;stroke-miterlimit:2.6131;}
	.st6{fill:none;stroke:#1A171B;stroke-width:1.6697;stroke-miterlimit:2.6131;}
	.st7{fill-rule:evenodd;clip-rule:evenodd;fill:#00A6E2;stroke:#1A171B;stroke-width:1.2523;stroke-miterlimit:2.6131;}
	.st8{fill:none;stroke:#1A171B;stroke-width:4.1742;stroke-linecap:square;stroke-miterlimit:2.6131;}
	.st9{fill:none;stroke:#1A171B;stroke-width:1.2523;stroke-linecap:square;stroke-miterlimit:2.6131;}
	
		.st10{fill:none;stroke:#1A171B;stroke-width:4.1742;stroke-linecap:square;stroke-miterlimit:2.6131;stroke-dasharray:20.8712,20.8712;}
	.st11{fill-rule:evenodd;clip-rule:evenodd;fill:#E1001A;}
	.st12{fill-rule:evenodd;clip-rule:evenodd;fill:#FFFFFF;stroke:#E1001A;stroke-width:4.1742;stroke-miterlimit:2.6131;}
	.st13{fill-rule:evenodd;clip-rule:evenodd;fill:#1A171B;stroke:#1A171B;stroke-width:1.2523;stroke-miterlimit:2.6131;}
	.st14{fill-rule:evenodd;clip-rule:evenodd;fill:#1A171B;}
</style>
<g>
	<g>
		<polygon class="st0" points="633.3,336.8 899.8,336.9 899.8,622.6 633.3,622.5 633.3,840 327.1,840 327.1,622.5 60.2,622.5 
			60.2,336.8 327.1,336.8 327.1,120 633.3,120 633.3,336.8 		"/>
		<path class="st1" d="M353.3,120h253.3l-0.1,208.6c-0.1,25.5,8.3,34.7,36.8,34.7l256.5,0v232.9H643.3c-28.3,0-36.8,8.3-36.8,34.7
			l0.1,209.1H353.3V630.9c0-26.4-8.4-34.7-34.4-34.7H60.2V363.3H319c26.2,0,34.4-8.3,34.4-34.7V120L353.3,120z"/>
		<path class="st2" d="M528.6,747.5c-1.6-11-3.9-26-4.1-42.1c0-12.8,0-25.7,0-38.7c1.1-16.9,0.7-30.4,4.7-43.5
			c0.7-2.5,4.3-8.6,8.7-8.6h32.8c5.2,0,6.7,6.8,7.2,8.6c3.1,13,4.4,26.5,4.4,43.3v39.1c0,15.2-1.6,30.4-3.8,41.9
			c-0.7,3.2-1.3,8.8-8.2,8.8h-33.1C528.3,756.3,529.2,752.1,528.6,747.5L528.6,747.5z"/>
		<path class="st3" d="M532.7,669.4l-2.2-14.2c15.6-5.6,29.6-5.1,46.2,0l-2,14.2C558,665.9,550,665.5,532.7,669.4L532.7,669.4z"/>
		<path class="st3" d="M533.5,729.6l2.9-8.8c11.8,2.2,23.3,2.2,34.4,0.2l3.1,8.6C560.9,732,546.9,731.6,533.5,729.6L533.5,729.6z"/>
		<line class="st4" x1="530.1" y1="715.7" x2="530.2" y2="674.8"/>
		<line class="st4" x1="576.7" y1="715.7" x2="576.9" y2="674.8"/>
		<path class="st5" d="M784.1,434.2c-11,1.6-26,3.9-42.1,4.1c-12.9,0-25.7,0-38.7,0c-16.9-1.1-30.4-0.7-43.4-4.8
			c-2.5-0.7-8.6-4.3-8.6-8.7v-32.8c0-5.2,6.8-6.7,8.6-7.2c13-3.1,26.5-4.4,43.3-4.4h39.1c15.2,0,30.4,1.6,41.9,3.8
			c3.2,0.7,8.8,1.3,8.8,8.2v33.1C792.9,434.5,788.7,433.6,784.1,434.2L784.1,434.2z"/>
		<path class="st3" d="M706,430.1l-14.2,2.2c-5.6-15.6-5.1-29.6,0-46.2l14.2,2C702.4,404.8,702.1,412.8,706,430.1L706,430.1z"/>
		<path class="st3" d="M766.2,429.3l-8.8-2.9c2.2-11.8,2.2-23.3,0.2-34.4l8.6-3.1C768.5,401.9,768.2,415.9,766.2,429.3L766.2,429.3z
			"/>
		<line class="st6" x1="752.3" y1="432.7" x2="711.4" y2="432.6"/>
		<line class="st6" x1="752.3" y1="386.1" x2="711.4" y2="385.9"/>
		<path class="st7" d="M173.8,523.8c11-1.6,26-3.9,42.1-4.1c12.8,0,25.7,0,38.7,0c16.9,1.1,30.4,0.7,43.5,4.8
			c2.5,0.7,8.6,4.3,8.6,8.7v32.8c0,5.2-6.8,6.7-8.6,7.2c-13,3.1-26.5,4.4-43.3,4.4h-39.1c-15.2,0-30.4-1.6-41.9-3.8
			c-3.2-0.7-8.8-1.3-8.8-8.2v-33.1C165,523.5,169.2,524.4,173.8,523.8L173.8,523.8z"/>
		<path class="st3" d="M251.9,527.9l14.2-2.2c5.6,15.6,5.1,29.6,0,46.2l-14.2-2C255.4,553.2,255.8,545.2,251.9,527.9L251.9,527.9z"
			/>
		<path class="st3" d="M191.7,528.7l8.8,2.9c-2.2,11.8-2.2,23.3-0.2,34.4l-8.6,3.1C189.3,556.1,189.7,542.1,191.7,528.7L191.7,528.7
			z"/>
		<line class="st6" x1="205.5" y1="525.3" x2="246.5" y2="525.4"/>
		<line class="st6" x1="205.5" y1="571.9" x2="246.5" y2="572.1"/>
		<path class="st8" d="M633.3,120v216.8l266.5,0.1 M899.8,622.6l-266.5-0.1V840 M327.1,840V622.5l-266.9,0.1 M60.2,336.8h266.9V120"
			/>
		<path class="st9" d="M606.6,120v208.7c-0.1,25.5,8.3,34.7,36.8,34.7l256.4-0.1 M899.8,596.2l-256.4,0.1
			c-28.3,0-36.8,8.3-36.8,34.7v209 M353.3,840V631c0-26.4-8.4-34.7-34.4-34.7H60.2 M60.2,363.4H319c26.2,0,34.4-8.3,34.4-34.7V120"
			/>
		<polygon class="st0" points="606.3,457.1 606.3,440.1 632.6,448.6 606.3,457.1 		"/>
		<polygon class="st0" points="606.3,404 606.3,386.9 632.6,395.5 606.3,404 		"/>
		<polygon class="st0" points="606.3,377.5 606.3,360.4 632.6,368.9 606.3,377.5 		"/>
		<polygon class="st0" points="606.3,483.7 606.3,466.6 632.6,475.2 606.3,483.7 		"/>
		<polygon class="st0" points="606.3,430.6 606.3,413.5 632.6,422 606.3,430.6 		"/>
		<polygon class="st0" points="639.6,475.4 899.8,475.4 899.8,484.2 639.6,484.2 639.6,475.4 		"/>
		<polygon class="st0" points="353.1,502.3 353.1,519.4 326.9,510.9 353.1,502.3 		"/>
		<polygon class="st0" points="353.1,555.4 353.1,572.5 326.9,564 353.1,555.4 		"/>
		<polygon class="st0" points="353.1,582 353.1,599.1 326.9,590.5 353.1,582 		"/>
		<polygon class="st0" points="353.1,475.8 353.1,492.9 326.9,484.3 353.1,475.8 		"/>
		<polygon class="st0" points="353.1,528.9 353.1,546 326.9,537.4 353.1,528.9 		"/>
		<polygon class="st0" points="320,484 60.4,484 60.4,475.2 320,475.2 320,484 		"/>
		<path class="st10" d="M650.2,407.5c-61.2-2.3-96.3-27.9-96.8-124.3"/>
		<path class="st3" d="M649.7,251c0.1-3.4,2.7-5.5,6.1-4.9l0.5,0.1l0.6,0.2l0.5,0.2L712,278c2.4,1.6,3.8,3.8,2.6,6.7
			c-0.6,1.1-1.5,1.9-2.5,2.5l-54.3,31.4c-2.1,1.1-4.4,1.6-6.4-0.2c-1.5-1.4-1.6-3.1-1.6-5l0-61.7V251L649.7,251z"/>
		<path class="st11" d="M651.3,251.7c0-1-0.1-1.9,0.6-2.9c0.7-1,2.6-1.9,4.8-0.8l54.4,31.4c3.1,1.8,3,4.9,0.1,6.5l-54.3,31.3
			c-1.2,0.7-2.8,1.2-4,0.5c-1.6-1-1.6-2.6-1.6-4.3L651.3,251.7L651.3,251.7z"/>
		<polygon class="st12" points="657.7,255.9 704,282.7 657.7,309.4 657.7,255.9 		"/>
		<line class="st8" x1="715.1" y1="282.5" x2="768.9" y2="282.5"/>
		<path class="st3" d="M309.9,707.2c-0.1,3.4-2.7,5.5-6.1,4.9l-0.5-0.1l-0.6-0.2l-0.5-0.2l-54.5-31.4c-2.4-1.6-3.8-3.8-2.6-6.7
			c0.6-1.1,1.5-1.9,2.5-2.5l54.3-31.4c2.1-1.1,4.4-1.6,6.4,0.2c1.5,1.4,1.6,3.1,1.6,5l0,61.7V707.2L309.9,707.2z"/>
		<path class="st11" d="M308.3,706.4c0,1,0.1,1.9-0.6,2.9c-0.7,1-2.6,1.9-4.8,0.8l-54.4-31.4c-3.1-1.8-3-4.9-0.1-6.5l54.3-31.3
			c1.2-0.7,2.8-1.2,4-0.5c1.6,1,1.6,2.6,1.6,4.3L308.3,706.4L308.3,706.4z"/>
		<polygon class="st12" points="302,702.3 255.6,675.5 302,648.7 302,702.3 		"/>
		<line class="st8" x1="244.5" y1="675.6" x2="190.7" y2="675.6"/>
		<polygon class="st13" points="553.3,208.7 545.9,241 560.6,241 553.3,208.7 		"/>
		<line class="st10" x1="553.5" y1="607.4" x2="553.5" y2="239.4"/>
		<polygon class="st13" points="709.7,549.4 677.4,542.1 677.4,556.7 709.7,549.4 		"/>
		<line class="st10" x1="311" y1="549.6" x2="679" y2="549.6"/>
		<line class="st8" x1="687.9" y1="708" x2="687.9" y2="761.7"/>
		<path class="st3" d="M719.7,706.1c3.4-0.1,5.5-2.7,5-6.1l-0.1-0.5l-0.2-0.6l-0.2-0.5l-31.6-54.7c-1.6-2.4-3.8-3.8-6.7-2.6
			c-1.1,0.6-1.9,1.5-2.6,2.5l-31.5,54.6c-1.1,2.2-1.6,4.4,0.2,6.4c1.4,1.5,3.1,1.6,5.1,1.6l62,0H719.7L719.7,706.1z"/>
		<path class="st11" d="M718.9,704.5c1,0,1.9,0.1,2.9-0.6c1-0.7,1.9-2.6,0.8-4.8l-31.5-54.6c-1.8-3.1-4.9-3-6.6-0.1l-31.5,54.5
			c-0.7,1.2-1.2,2.8-0.5,4c1,1.6,2.6,1.6,4.3,1.6L718.9,704.5L718.9,704.5z"/>
		<polygon class="st12" points="714.7,698.1 687.8,651.6 661,698.1 714.7,698.1 		"/>
		<polygon class="st13" points="687.8,665.2 692.7,669.9 692.7,677.5 699.5,677.5 699.5,682.3 692.7,682.3 692.7,694.5 687.8,689.8 
			683,694.5 683,682.3 676.2,682.3 676.2,677.5 683,677.5 683,669.9 687.8,665.2 		"/>
		<path class="st14" d="M471.9,711.6V662H488c6.1,0,10.1,0.3,11.9,0.8c2.8,0.7,5.2,2.4,7.2,4.9c1.9,2.5,2.9,5.7,2.9,9.7
			c0,3.1-0.6,5.6-1.7,7.7c-1.1,2.1-2.5,3.7-4.2,4.9c-1.7,1.2-3.4,2-5.2,2.3c-2.4,0.5-5.9,0.7-10.4,0.7H482v18.7H471.9L471.9,711.6z
			 M482,670.4v14.1h5.5c4,0,6.6-0.3,7.9-0.8c1.3-0.5,2.4-1.3,3.1-2.4c0.7-1.1,1.1-2.4,1.1-3.9c0-1.8-0.5-3.3-1.6-4.5
			c-1-1.2-2.4-1.9-4-2.2c-1.2-0.2-3.6-0.3-7.2-0.3H482L482,670.4z"/>
		<path class="st14" d="M811,419.2l9.7-1c0.6,3.3,1.8,5.7,3.6,7.2c1.8,1.5,4.2,2.3,7.3,2.3c3.2,0,5.7-0.7,7.3-2.1
			c1.6-1.4,2.5-3,2.5-4.8c0-1.2-0.3-2.2-1-3c-0.7-0.8-1.9-1.5-3.6-2.1c-1.2-0.4-3.8-1.1-8-2.2c-5.4-1.3-9.1-3-11.3-4.9
			c-3-2.7-4.6-6.1-4.6-10c0-2.5,0.7-4.9,2.2-7.1c1.4-2.2,3.5-3.9,6.2-5c2.7-1.1,5.9-1.7,9.8-1.7c6.2,0,10.9,1.4,14.1,4.1
			c3.1,2.7,4.8,6.4,5,10.9l-10,0.4c-0.4-2.6-1.3-4.4-2.8-5.5c-1.4-1.1-3.5-1.7-6.3-1.7c-2.9,0-5.2,0.6-6.8,1.8
			c-1.1,0.8-1.6,1.8-1.6,3.1c0,1.2,0.5,2.2,1.5,3c1.3,1.1,4.3,2.2,9.2,3.3c4.9,1.2,8.5,2.3,10.8,3.6c2.3,1.2,4.2,2.9,5.5,5.1
			c1.3,2.1,2,4.8,2,7.9c0,2.8-0.8,5.5-2.4,8c-1.6,2.5-3.8,4.3-6.7,5.5c-2.9,1.2-6.5,1.8-10.8,1.8c-6.3,0-11.1-1.4-14.5-4.3
			S811.7,424.7,811,419.2L811,419.2z"/>
		<polygon class="st14" points="111.1,574.3 111.1,524.7 147.9,524.7 147.9,533.1 121.1,533.1 121.1,544.1 146,544.1 146,552.5 
			121.1,552.5 121.1,566 148.9,566 148.9,574.3 111.1,574.3 		"/>
	</g>
</g>
</svg>
