<?xml version="1.0" encoding="utf-8"?>
<!-- Generator: Adobe Illustrator 19.2.0, SVG Export Plug-In . SVG Version: 6.00 Build 0)  -->
<svg version="1.1" id="Livello_1" xmlns="http://www.w3.org/2000/svg" xmlns:xlink="http://www.w3.org/1999/xlink" x="0px" y="0px"
	 viewBox="0 0 960 960" style="enable-background:new 0 0 960 960;" xml:space="preserve">
<style type="text/css">
	.st0{fill-rule:evenodd;clip-rule:evenodd;fill:#FFFFFF;}
	.st1{fill-rule:evenodd;clip-rule:evenodd;fill:#CECFD1;}
	.st2{fill:none;stroke:#1A171B;stroke-width:4.2354;stroke-miterlimit:2.6131;}
	.st3{fill-rule:evenodd;clip-rule:evenodd;fill:#049853;stroke:#1A171B;stroke-width:1.2706;stroke-miterlimit:2.6131;}
	.st4{fill:none;stroke:#1A171B;stroke-width:1.2706;stroke-miterlimit:2.6131;}
	.st5{fill:none;stroke:#1A171B;stroke-width:4.2354;stroke-linecap:square;stroke-miterlimit:2.6131;}
	.st6{fill:none;stroke:#1A171B;stroke-width:1.2706;stroke-linecap:square;stroke-miterlimit:2.6131;}
	
		.st7{fill-rule:evenodd;clip-rule:evenodd;fill:#E43417;stroke:#1A171B;stroke-width:1.2706;stroke-linecap:square;stroke-miterlimit:2.6131;}
	
		.st8{fill-rule:evenodd;clip-rule:evenodd;fill:#FFFFFF;stroke:#1A171B;stroke-width:1.2706;stroke-linecap:square;stroke-miterlimit:2.6131;}
	.st9{fill-rule:evenodd;clip-rule:evenodd;fill:#FFEC00;stroke:#1A171B;stroke-width:1.2706;stroke-miterlimit:2.6131;}
	.st10{fill-rule:evenodd;clip-rule:evenodd;fill:#FFFFFF;stroke:#1A171B;stroke-width:1.2706;stroke-miterlimit:2.6131;}
	.st11{fill:none;stroke:#1A171B;stroke-width:1.6942;stroke-miterlimit:2.6131;}
	.st12{fill-rule:evenodd;clip-rule:evenodd;fill:#3D3D3F;stroke:#1A171B;stroke-width:1.2706;stroke-miterlimit:2.6131;}
	
		.st13{fill:none;stroke:#1A171B;stroke-width:4.2354;stroke-linecap:square;stroke-miterlimit:2.6131;stroke-dasharray:21.177,21.177;}
	.st14{fill-rule:evenodd;clip-rule:evenodd;fill:#1A171B;}
</style>
<g>
	<g>
		<polygon class="st0" points="276.2,718.7 276.2,840 571.1,840 571.1,718.7 898,718.7 898,473.3 571.1,473.3 571.1,120.4 
			287.5,120.4 287.5,120.5 276.2,120.5 276.2,473.3 62,473.3 62,718.7 276.2,718.7 		"/>
		<path class="st1" d="M265,698.1c20.7,0,32.2,10.4,32,30.9L296.9,840h253.5l0.2-111.1c0-20.6,10-30.9,30.7-30.9H898V493.9H581.3
			c-20.6,0-30.5-10.3-30.7-30.9l-0.2-342.7H308v0.2h-11.1v342.5c0,20.6-11.3,30.9-31.2,30.9H62v204.1H265L265,698.1z"/>
		<line class="st2" x1="378.4" y1="840" x2="378.4" y2="120.5"/>
		<line class="st2" x1="437.4" y1="840" x2="437.4" y2="120.5"/>
		<line class="st2" x1="409.5" y1="120.5" x2="409.5" y2="840"/>
		<line class="st2" x1="468.4" y1="120.5" x2="468.4" y2="840"/>
		<polygon class="st3" points="378.3,497.4 362.8,453.1 362.8,225.5 378.3,181.1 409,181.1 424.5,226.3 424.5,453.2 409,497.4 
			378.3,497.4 		"/>
		<polygon class="st3" points="409.1,452.7 409.1,225.9 424.6,225.9 424.6,452.7 409.1,452.7 		"/>
		<polygon class="st3" points="362.9,452.7 362.9,225.9 378.4,225.9 378.4,452.7 362.9,452.7 		"/>
		<line class="st4" x1="378.3" y1="490.3" x2="378.3" y2="188.2"/>
		<line class="st4" x1="393.7" y1="490.3" x2="393.7" y2="188.2"/>
		<line class="st4" x1="409" y1="490.3" x2="409" y2="188.2"/>
		<polygon class="st0" points="410.3,392.8 410.3,399.6 382.8,393.8 382.8,403.5 377.3,402.4 377.3,376.4 382.8,377.5 382.8,387 
			410.3,392.8 		"/>
		<path class="st0" d="M410.3,372.1v6.8l-33-6.9v-14.7c0-2.5,0.3-4.5,0.8-5.9c0.5-1.4,1.5-2.5,2.9-3.4c1.4-0.9,3.1-1.3,5-1.3
			c2.8,0,5.1,0.8,6.9,2.5c1.8,1.7,3,4.2,3.4,7.6c0.8-0.9,1.8-1.7,3.1-2.5c2.6-1.5,6.2-3.2,10.9-5.1l0,7.3c-1.9,0.6-4.8,1.7-8.7,3.4
			c-2.1,0.9-3.6,1.9-4.3,3c-0.4,0.6-0.7,1.8-0.7,3.4v2.8L410.3,372.1L410.3,372.1z M391.7,368.2v-3.6c0-3.7-0.2-6.1-0.7-7.3
			c-0.4-1.2-1.1-2.1-2-2.8c-0.9-0.7-1.9-1-2.9-1c-1.2,0-2.1,0.5-2.7,1.5c-0.4,0.6-0.5,1.9-0.5,3.9l0,7.5L391.7,368.2L391.7,368.2z"
			/>
		<path class="st0" d="M403,324.1l0,13.1l7.3,4v7l-33-18.7v-7.5l33-5.4v6.4L403,324.1L403,324.1z M397.5,324.9l-13.3,1.9l13.3,8
			V324.9L397.5,324.9z"/>
		<polygon class="st0" points="410.3,293.4 410.3,299.9 382.7,301.1 410.3,306.3 410.3,312.4 377.3,305.5 377.3,295.9 400.4,294.9 
			377.3,283.6 377.3,273.8 410.3,280.7 410.3,286.9 382.9,280.4 410.3,293.4 		"/>
		<path class="st5" d="M62,718.7h214.2V840 M571.1,840V718.7H898 M898,473H571.1V120 M276.2,120.2V473H62"/>
		<path class="st6" d="M62,697.7h202.8c20.7,0,32.2,10.4,32,30.9L296.7,840 M550.4,840l0.2-111.4c0-20.6,10-30.9,30.7-30.9H898
			 M898,493.6H581.3c-20.6,0-30.5-10.3-30.7-30.9L550.4,120 M296.9,120.2v342.5c0,20.6-11.3,30.9-31.2,30.9H62"/>
		<path class="st7" d="M836.1,514.3h26.6c1.1,0,2,1.1,2,2.4c0,1.3-2,2.4-2,2.4h-28.3C834.4,519.1,834.2,514.3,836.1,514.3
			L836.1,514.3z"/>
		<path class="st7" d="M756.8,514.3h26.6c1.1,0,2,1.1,2,2.4c0,1.3-2,2.4-2,2.4h-28.3C755,519.1,754.9,514.3,756.8,514.3L756.8,514.3
			z"/>
		<path class="st7" d="M836.1,592.9h26.6c1.1,0,2-1.1,2-2.4c0-1.3-2-2.4-2-2.4h-28.3C834.4,588,834.2,592.9,836.1,592.9L836.1,592.9
			z"/>
		<path class="st7" d="M756.8,592.9h26.6c1.1,0,2-1.1,2-2.4c0-1.3-2-2.4-2-2.4h-28.3C755,588,754.9,592.9,756.8,592.9L756.8,592.9z"
			/>
		<polygon class="st7" points="745.4,536.9 730.3,553.7 745.4,570.5 745.4,565.9 734.8,553.7 745.4,541.5 745.4,536.9 		"/>
		<polygon class="st7" points="744.5,516.7 874.8,516.7 874.8,590.3 744.5,590.3 744.5,516.7 		"/>
		<polygon class="st7" points="749.9,521.5 869.3,521.5 869.3,585.5 749.9,585.5 749.9,521.5 		"/>
		<path class="st7" d="M694.8,514.3h26.6c1.1,0,2,1.1,2,2.4c0,1.3-1.3,2.4-2,2.4H693C693,519.1,692.8,514.3,694.8,514.3L694.8,514.3
			z"/>
		<polygon class="st7" points="749.9,534.2 869.3,534.2 869.3,573 749.9,573 749.9,534.2 		"/>
		<path class="st7" d="M694.8,592.9h26.6c1.1,0,2-1.1,2-2.4c0-1.3-1.3-2.4-2-2.4H693C693,588,692.8,592.9,694.8,592.9L694.8,592.9z"
			/>
		<path class="st7" d="M607.3,592.9h26.6c1.1,0,2-1.1,2-2.4c0-1.3-1.3-2.4-2-2.4h-28.4C605.5,588,605.3,592.9,607.3,592.9
			L607.3,592.9z"/>
		<polygon class="st7" points="626.3,516.8 733.4,516.8 733.4,590.4 626.3,590.4 626.3,516.8 		"/>
		<path class="st7" d="M583.9,516.7v73.7h-2.4c-4,0-7.3-3.2-7.3-7.3v-59.1c0-4,3.2-7.3,7.3-7.3H583.9L583.9,516.7z"/>
		<path class="st7" d="M583.8,519.1h42.6v68.8h-42.6c-3.2,0-6.1-2.7-6.1-6.1v-56.6C577.7,521.8,580.4,519.1,583.8,519.1L583.8,519.1
			z"/>
		<path class="st7" d="M596.9,523.6h21.6c1.6,0,3,2,3,4.6v50.7c0,2.6-1.4,4.7-3,4.7h-21.6c-1.6,0-2.8-2.1-3-4.7
			c-1.4-17-1.3-33.8,0-50.7C594.1,525.6,595.2,523.6,596.9,523.6L596.9,523.6z"/>
		<path class="st8" d="M584.8,522c0.9,0.8,5.8,3.6,5.7,4.4c-2.4,16.8-2.4,37.7,0,55c0.1,0.3-4.9,2.9-5.7,3.7c-1,0.9-2.9-1.6-3.1-3.3
			c-1.5-18.8-1.5-37.7,0-56.3C581.8,523.4,583.6,520.9,584.8,522L584.8,522z"/>
		<polygon class="st7" points="631.7,521.6 727.9,521.6 727.9,585.6 631.7,585.6 631.7,521.6 		"/>
		<polygon class="st7" points="631.7,534.3 727.9,534.3 727.9,573 631.7,573 631.7,534.3 		"/>
		<polygon class="st7" points="631.7,547.1 727.9,547.1 727.9,560.1 631.7,560.1 631.7,547.1 		"/>
		<path class="st7" d="M607.3,514.3h26.6c1.1,0,2,1.1,2,2.4c0,1.3-1.3,2.4-2,2.4h-28.4C605.5,519.1,605.3,514.3,607.3,514.3
			L607.3,514.3z"/>
		<polygon class="st7" points="749.9,547.2 869.3,547.2 869.3,560.1 749.9,560.1 749.9,547.2 		"/>
		<path class="st9" d="M105.8,630.1c10.3-1.5,24.5-3.7,39.5-3.8c12.1,0,24.1,0,36.4,0c15.9,1.1,28.6,0.6,40.8,4.5
			c2.4,0.6,8.1,4,8.1,8.2v30.8c0,4.9-6.4,6.3-8.1,6.8c-12.2,2.9-24.9,4.2-40.6,4.2h-36.7c-14.3,0-28.6-1.5-39.4-3.5
			c-3-0.6-8.3-1.2-8.3-7.7v-31.1C97.6,629.8,101.5,630.7,105.8,630.1L105.8,630.1z"/>
		<path class="st10" d="M179.2,633.9l13.3-2.1c5.2,14.7,4.8,27.8,0,43.4l-13.3-1.9C182.5,657.7,182.8,650.2,179.2,633.9L179.2,633.9
			z"/>
		<path class="st10" d="M122.6,634.7l8.3,2.8c-2.1,11.1-2.1,21.8-0.2,32.3l-8.1,2.9C120.4,660.4,120.7,647.3,122.6,634.7
			L122.6,634.7z"/>
		<line class="st11" x1="135.7" y1="631.5" x2="174.1" y2="631.6"/>
		<line class="st11" x1="135.7" y1="675.3" x2="174.1" y2="675.5"/>
		<polygon class="st12" points="338.3,806.2 350,779.7 337.4,777.3 338.3,806.2 		"/>
		<path class="st13" d="M562.7,554.3c-130.6,6.6-204.9,126-219,222.7"/>
		<polygon class="st12" points="393.6,617.2 400.5,586.8 386.7,586.8 393.6,617.2 		"/>
		<line class="st13" x1="393.2" y1="505.2" x2="393.2" y2="593.1"/>
		<polygon class="st12" points="364,653.2 333.6,646.3 333.6,660.1 364,653.2 		"/>
		<line class="st13" x1="235.6" y1="653.5" x2="339.8" y2="653.5"/>
		<polygon class="st14" points="504.4,363.2 504.4,322.8 490,322.8 490,314.6 528.6,314.6 528.6,322.8 514.2,322.8 514.2,363.2 
			504.4,363.2 		"/>
		<path class="st14" d="M705.6,644.9l9.2-0.9c0.5,3.1,1.7,5.4,3.4,6.8c1.7,1.4,4,2.2,6.9,2.2c3.1,0,5.4-0.6,6.9-1.9
			c1.6-1.3,2.3-2.8,2.3-4.5c0-1.1-0.3-2.1-1-2.8c-0.6-0.8-1.8-1.5-3.4-2c-1.1-0.4-3.6-1.1-7.6-2.1c-5.1-1.3-8.6-2.8-10.7-4.6
			c-2.9-2.6-4.3-5.7-4.3-9.4c0-2.4,0.7-4.6,2-6.7c1.4-2.1,3.3-3.7,5.9-4.8c2.6-1.1,5.6-1.6,9.2-1.6c5.9,0,10.3,1.3,13.3,3.9
			c3,2.6,4.5,6,4.7,10.4L733,627c-0.4-2.4-1.3-4.2-2.6-5.2c-1.3-1.1-3.3-1.6-6-1.6c-2.8,0-4.9,0.6-6.5,1.7c-1,0.7-1.5,1.7-1.5,2.9
			c0,1.1,0.5,2.1,1.4,2.9c1.2,1,4.1,2.1,8.7,3.1c4.6,1.1,8,2.2,10.2,3.4c2.2,1.2,3.9,2.8,5.2,4.8c1.2,2,1.9,4.5,1.9,7.5
			c0,2.7-0.7,5.2-2.2,7.6c-1.5,2.3-3.6,4.1-6.3,5.2c-2.7,1.1-6.1,1.7-10.2,1.7c-5.9,0-10.5-1.4-13.7-4.1
			C708.2,654.1,706.3,650.1,705.6,644.9L705.6,644.9z"/>
		<path class="st14" d="M180.2,609.8h-10.7l-4.2-11h-19.4l-4,11h-10.4l18.9-48.6h10.4L180.2,609.8L180.2,609.8z M162.1,590.6
			l-6.7-18l-6.6,18H162.1L162.1,590.6z"/>
	</g>
</g>
</svg>
