<?xml version="1.0" encoding="utf-8"?>
<!-- Generator: Adobe Illustrator 19.2.0, SVG Export Plug-In . SVG Version: 6.00 Build 0)  -->
<svg version="1.1" id="Livello_1" xmlns="http://www.w3.org/2000/svg" xmlns:xlink="http://www.w3.org/1999/xlink" x="0px" y="0px"
	 viewBox="0 0 960 960" style="enable-background:new 0 0 960 960;" xml:space="preserve">
<style type="text/css">
	.st0{fill-rule:evenodd;clip-rule:evenodd;fill:#FFFFFF;}
	.st1{fill-rule:evenodd;clip-rule:evenodd;fill:#CECFD1;}
	.st2{fill-rule:evenodd;clip-rule:evenodd;fill:#00A6E2;stroke:#1A171B;stroke-width:1.4444;stroke-miterlimit:2.6131;}
	.st3{fill-rule:evenodd;clip-rule:evenodd;fill:#FFFFFF;stroke:#1A171B;stroke-width:1.4444;stroke-miterlimit:2.6131;}
	.st4{fill:none;stroke:#1A171B;stroke-width:1.9259;stroke-miterlimit:2.6131;}
	.st5{fill-rule:evenodd;clip-rule:evenodd;fill:#3D3D3F;stroke:#1A171B;stroke-width:1.4444;stroke-miterlimit:2.6131;}
	.st6{fill:none;stroke:#FFFFFF;stroke-width:1.9259;stroke-miterlimit:2.6131;}
	.st7{fill-rule:evenodd;clip-rule:evenodd;fill:#E43417;stroke:#1A171B;stroke-width:1.4444;stroke-miterlimit:2.6131;}
	.st8{fill-rule:evenodd;clip-rule:evenodd;fill:#049853;stroke:#1A171B;stroke-width:1.4444;stroke-miterlimit:2.6131;}
	.st9{fill-rule:evenodd;clip-rule:evenodd;fill:#1A171B;}
	.st10{fill:none;stroke:#1A171B;stroke-width:4.8146;stroke-linecap:square;stroke-miterlimit:2.6131;}
	.st11{fill:none;stroke:#1A171B;stroke-width:1.4444;stroke-linecap:square;stroke-miterlimit:2.6131;}
	
		.st12{fill:none;stroke:#1A171B;stroke-width:4.8146;stroke-linecap:square;stroke-miterlimit:2.6131;stroke-dasharray:24.0731,24.0731;}
</style>
<g>
	<g>
		<polygon class="st0" points="280.5,120 623.6,120 623.6,255.1 911.4,255.1 911.4,632.1 623.6,632.1 623.6,840 280.5,840 
			280.5,632.1 48.6,632.1 48.6,255.1 280.5,255.1 280.5,120 		"/>
		<path class="st1" d="M307.6,120h289.2l-0.1,123c-0.1,27,13.5,39.1,40.5,39.1h274.2V605H635.7c-25.5,0-39,12.1-39,39.1l0.1,195.8
			H307.6l-0.1-195.8c0-27-12.1-39.1-40.5-39.1H48.6V282.2h219.8c26.9,0,38.9-12.1,39-39.1L307.6,120L307.6,120z"/>
		<path class="st2" d="M98.6,517.2c13.5-2,31.9-4.8,51.6-5c15.8,0,31.5,0,47.5,0c20.7,1.4,37.3,0.8,53.3,5.8
			c3.1,0.8,10.6,5.2,10.6,10.6v40.2c0,6.4-8.3,8.2-10.6,8.8c-16,3.8-32.5,5.4-53.1,5.4H150c-18.7,0-37.3-2-51.4-4.6
			c-3.9-0.8-10.8-1.6-10.8-10v-40.6C87.8,516.8,93,518,98.6,517.2L98.6,517.2z"/>
		<path class="st3" d="M194.3,522.2l17.4-2.7c6.8,19.2,6.2,36.2,0,56.7l-17.4-2.5C198.7,553.3,199.1,543.5,194.3,522.2L194.3,522.2z
			"/>
		<path class="st3" d="M120.5,523.2l10.8,3.6c-2.7,14.5-2.7,28.5-0.2,42.2l-10.6,3.8C117.6,556.8,118.1,539.7,120.5,523.2
			L120.5,523.2z"/>
		<line class="st4" x1="137.5" y1="519" x2="187.7" y2="519.2"/>
		<line class="st4" x1="137.5" y1="576.3" x2="187.7" y2="576.5"/>
		<path class="st5" d="M815.3,319c-13.5-2-31.9-4.8-51.6-5c-15.8,0-31.5,0-47.5,0c-20.7,1.4-37.3,0.8-53.3,5.8
			c-3.1,0.8-10.6,5.2-10.6,10.6v40.2c0,6.4,8.3,8.2,10.6,8.8c16,3.8,32.5,5.4,53.1,5.4h47.9c18.7,0,37.3-2,51.4-4.6
			c3.9-0.8,10.8-1.6,10.8-10v-40.6C826,318.6,820.8,319.8,815.3,319L815.3,319z"/>
		<path class="st3" d="M719.5,324l-17.4-2.7c-6.8,19.2-6.2,36.2,0,56.7l17.4-2.5C715.1,355,714.7,345.2,719.5,324L719.5,324z"/>
		<path class="st3" d="M793.3,325l-10.8,3.6c2.7,14.5,2.7,28.5,0.2,42.2l10.6,3.8C796.2,358.5,795.8,341.5,793.3,325L793.3,325z"/>
		<line class="st6" x1="776.3" y1="320.8" x2="726.1" y2="321"/>
		<line class="st6" x1="776.3" y1="378" x2="726.1" y2="378.2"/>
		<path class="st7" d="M501.6,789.3c-2-13.5-4.8-31.9-5-51.6c0-15.8,0-31.5,0-47.5c1.4-20.7,0.8-37.3,5.8-53.3
			c0.8-3.1,5.2-10.6,10.6-10.6h40.2c6.4,0,8.2,8.3,8.8,10.6c3.8,16,5.4,32.5,5.4,53.1v47.9c0,18.7-2,37.3-4.6,51.4
			c-0.8,3.9-1.6,10.8-10,10.8h-40.6C501.2,800.1,502.4,794.9,501.6,789.3L501.6,789.3z"/>
		<path class="st3" d="M506.6,693.5l-2.7-17.4c19.2-6.8,36.2-6.2,56.7,0l-2.5,17.4C537.6,689.2,527.9,688.8,506.6,693.5L506.6,693.5
			z"/>
		<path class="st3" d="M507.6,767.3l3.6-10.8c14.5,2.7,28.5,2.7,42.2,0.2l3.8,10.6C541.2,770.2,524.1,769.8,507.6,767.3L507.6,767.3
			z"/>
		<line class="st4" x1="503.4" y1="750.3" x2="503.6" y2="700.2"/>
		<line class="st4" x1="560.6" y1="750.3" x2="560.9" y2="700.2"/>
		<path class="st8" d="M350,789.3c-2-13.5-4.8-31.9-5-51.6c0-15.8,0-31.5,0-47.5c1.4-20.7,0.8-37.3,5.8-53.3
			c0.8-3.1,5.2-10.6,10.6-10.6h40.2c6.4,0,8.2,8.3,8.8,10.6c3.8,16,5.4,32.5,5.4,53.1v47.9c0,18.7-2,37.3-4.6,51.4
			c-0.8,3.9-1.6,10.8-10,10.8h-40.6C349.6,800.1,350.8,794.9,350,789.3L350,789.3z"/>
		<path class="st3" d="M355,693.5l-2.7-17.4c19.2-6.8,36.2-6.2,56.7,0l-2.5,17.4C386,689.2,376.2,688.8,355,693.5L355,693.5z"/>
		<path class="st3" d="M356,767.3l3.6-10.8c14.5,2.7,28.5,2.7,42.2,0.2l3.8,10.6C389.5,770.2,372.5,769.8,356,767.3L356,767.3z"/>
		<line class="st4" x1="351.8" y1="750.3" x2="352" y2="700.2"/>
		<line class="st4" x1="409" y1="750.3" x2="409.2" y2="700.2"/>
		<polygon class="st5" points="606,547.3 568.8,555.8 568.8,538.8 606,547.3 		"/>
		<polygon class="st5" points="172.7,348.9 209.9,357.4 209.9,340.5 172.7,348.9 		"/>
		<polygon class="st5" points="209.2,381 246.4,389.5 246.4,372.6 209.2,381 		"/>
		<polygon class="st5" points="531.8,195.9 523.3,233.1 540.3,233.1 531.8,195.9 		"/>
		<path class="st9" d="M271.9,750.5h-12.9l-5.1-13.4h-23.5l-4.9,13.4h-12.6l22.9-58.9h12.6L271.9,750.5L271.9,750.5z M250,727.2
			l-8.1-21.9l-8,21.9H250L250,727.2z"/>
		<polygon class="st9" points="731.1,459.3 731.1,400.9 743,400.9 743,449.4 772.5,449.4 772.5,459.3 731.1,459.3 		"/>
		<path class="st9" d="M680,726.6l11.5,3.7c-1.8,6.4-4.7,11.2-8.8,14.3c-4.1,3.1-9.3,4.7-15.6,4.7c-7.8,0-14.2-2.7-19.3-8
			c-5-5.3-7.6-12.6-7.6-21.9c0-9.8,2.5-17.4,7.6-22.8c5.1-5.4,11.7-8.1,20-8.1c7.2,0,13.1,2.1,17.5,6.4c2.7,2.5,4.7,6.1,6,10.8
			l-11.8,2.8c-0.7-3.1-2.1-5.5-4.4-7.2c-2.2-1.8-4.9-2.6-8-2.6c-4.4,0-7.9,1.6-10.6,4.7c-2.7,3.1-4.1,8.2-4.1,15.2
			c0,7.4,1.3,12.8,4,15.9c2.7,3.2,6.2,4.7,10.4,4.7c3.2,0,5.9-1,8.2-3C677.4,734.1,679,731,680,726.6L680,726.6z"/>
		<path class="st9" d="M148.1,440.9h21.7c4.9,0,8.6,0.4,11.2,1.1c3.5,1,6.4,2.8,8.9,5.4c2.5,2.6,4.3,5.8,5.6,9.5
			c1.3,3.8,1.9,8.4,1.9,13.9c0,4.8-0.6,9-1.8,12.5c-1.5,4.3-3.6,7.7-6.3,10.4c-2.1,2-4.8,3.6-8.3,4.7c-2.6,0.8-6.1,1.2-10.5,1.2
			h-22.4V440.9L148.1,440.9z M159.9,450.9v39h8.9c3.3,0,5.7-0.2,7.2-0.6c1.9-0.5,3.5-1.3,4.8-2.4c1.3-1.1,2.3-3.1,3.1-5.7
			c0.8-2.6,1.2-6.2,1.2-10.8c0-4.6-0.4-8-1.2-10.5c-0.8-2.4-1.9-4.3-3.4-5.7c-1.5-1.4-3.3-2.3-5.5-2.8c-1.7-0.4-4.9-0.6-9.8-0.6
			H159.9L159.9,450.9z"/>
		<path class="st10" d="M48.6,255.1h231.9v-135 M623.6,120v135.1h287.8 M911.4,632.1H623.6V840 M280.5,840V632.1H48.6"/>
		<path class="st11" d="M596.7,120.1V243c-0.1,27,13.5,39.1,40.5,39.1h274.2 M911.4,605H635.7c-25.5,0-39,12.1-39,39.1l0.1,195.8
			 M307.6,840l-0.1-195.8c0-27-12.1-39.1-40.5-39.1H48.6 M48.6,282.2h219.8c26.9,0,38.9-12.1,39-39.1l0.1-123"/>
		<path class="st12" d="M380.5,619.2c1.1-155.5-40.8-223.5-132.4-237.5"/>
		<line class="st12" x1="532" y1="620.7" x2="532" y2="235.9"/>
		<line class="st12" x1="646.8" y1="349.5" x2="212.9" y2="349.5"/>
		<line class="st12" x1="267.3" y1="547.7" x2="566.4" y2="547.7"/>
	</g>
</g>
</svg>
