<?xml version="1.0" encoding="utf-8"?>
<!-- Generator: Adobe Illustrator 19.2.0, SVG Export Plug-In . SVG Version: 6.00 Build 0)  -->
<svg version="1.1" id="Livello_1" xmlns="http://www.w3.org/2000/svg" xmlns:xlink="http://www.w3.org/1999/xlink" x="0px" y="0px"
	 viewBox="0 0 960 960" style="enable-background:new 0 0 960 960;" xml:space="preserve">
<style type="text/css">
	.st0{fill-rule:evenodd;clip-rule:evenodd;fill:#FFFFFF;}
	.st1{fill-rule:evenodd;clip-rule:evenodd;fill:#CECFD1;}
	.st2{fill:none;stroke:#1A171B;stroke-width:1.2644;stroke-linecap:square;stroke-miterlimit:2.6131;}
	.st3{fill:none;stroke:#1A171B;stroke-width:4.2146;stroke-linecap:square;stroke-miterlimit:2.6131;}
	.st4{fill-rule:evenodd;clip-rule:evenodd;fill:#00A6E2;stroke:#1A171B;stroke-width:1.2644;stroke-miterlimit:2.6131;}
	.st5{fill-rule:evenodd;clip-rule:evenodd;fill:#FFFFFF;stroke:#1A171B;stroke-width:1.2644;stroke-miterlimit:2.6131;}
	.st6{fill:none;stroke:#1A171B;stroke-width:1.6858;stroke-miterlimit:2.6131;}
	.st7{fill-rule:evenodd;clip-rule:evenodd;fill:#FFEC00;stroke:#1A171B;stroke-width:1.2644;stroke-miterlimit:2.6131;}
	.st8{fill-rule:evenodd;clip-rule:evenodd;fill:#3D3D3F;stroke:#1A171B;stroke-width:1.2644;stroke-miterlimit:2.6131;}
	.st9{fill:none;stroke:#FFFFFF;stroke-width:1.6858;stroke-miterlimit:2.6131;}
	.st10{fill-rule:evenodd;clip-rule:evenodd;fill:#E43417;stroke:#1A171B;stroke-width:1.2644;stroke-miterlimit:2.6131;}
	.st11{fill-rule:evenodd;clip-rule:evenodd;fill:#1A171B;}
	
		.st12{fill:none;stroke:#1A171B;stroke-width:4.2146;stroke-linecap:square;stroke-miterlimit:2.6131;stroke-dasharray:21.0731,21.0731;}
</style>
<g>
	<g>
		<polygon class="st0" points="305.5,120 625.2,120 625.2,317.8 857.3,317.8 857.3,647.5 625.2,647.5 625.2,840 305.5,840 
			305.5,647.5 102.7,647.5 102.7,317.8 305.5,317.8 305.5,120 		"/>
		<path class="st1" d="M329.2,120h272.6l-0.1,187.3c-0.1,23.7,11.8,34.2,35.4,34.2h220.3v282.4H635.8c-22.3,0-34.1,10.6-34.1,34.2
			l0.1,181.9H329.2l-0.1-181.9c0-23.7-10.6-34.2-35.4-34.2h-191V341.5h192.3c23.6,0,34-10.6,34.1-34.2L329.2,120L329.2,120z"/>
		<path class="st2" d="M329.2,840l-0.1-181.9c0-23.7-10.6-34.2-35.4-34.2h-191"/>
		<polyline class="st3" points="305.5,840 305.5,647.5 102.7,647.5 		"/>
		<path class="st2" d="M857.3,623.9H635.8c-22.3,0-34.1,10.6-34.1,34.2l0.1,181.9"/>
		<polyline class="st3" points="857.3,647.5 625.2,647.5 625.2,840 		"/>
		<path class="st2" d="M601.7,120.1v187.2c-0.1,23.7,11.8,34.2,35.4,34.2h220.3"/>
		<polyline class="st3" points="625.2,120 625.2,317.8 857.3,317.8 		"/>
		<path class="st2" d="M102.7,341.5h192.3c23.6,0,34-10.6,34.1-34.2l0.1-187.3"/>
		<polyline class="st3" points="102.7,317.8 305.5,317.8 305.5,120.1 		"/>
		<path class="st4" d="M456.5,793.8c-1.6-11-3.9-26.1-4.1-42.2c0-12.9,0-25.8,0-38.8c1.2-16.9,0.7-30.5,4.8-43.6
			c0.7-2.5,4.3-8.6,8.7-8.6h32.9c5.3,0,6.7,6.8,7.2,8.6c3.1,13.1,4.4,26.6,4.4,43.4v39.2c0,15.3-1.6,30.5-3.8,42
			c-0.7,3.2-1.3,8.8-8.2,8.8h-33.2C456.2,802.6,457.1,798.4,456.5,793.8L456.5,793.8z"/>
		<path class="st5" d="M460.6,715.5l-2.2-14.2c15.7-5.6,29.6-5.1,46.3,0l-2,14.2C486,711.9,478,711.6,460.6,715.5L460.6,715.5z"/>
		<path class="st5" d="M461.4,775.8l3-8.8c11.8,2.2,23.3,2.2,34.5,0.2l3.1,8.6C488.8,778.2,474.9,777.9,461.4,775.8L461.4,775.8z"/>
		<line class="st6" x1="458" y1="761.9" x2="458.1" y2="720.9"/>
		<line class="st6" x1="504.8" y1="761.9" x2="504.9" y2="720.9"/>
		<path class="st7" d="M810.8,364.2c-11-1.6-26.1-3.9-42.2-4.1c-12.9,0-25.8,0-38.8,0c-17,1.2-30.5,0.7-43.6,4.8
			c-2.5,0.7-8.6,4.3-8.6,8.7v32.9c0,5.3,6.8,6.7,8.6,7.2c13.1,3.1,26.6,4.4,43.4,4.4h39.2c15.3,0,30.5-1.6,42-3.8
			c3.2-0.7,8.8-1.3,8.8-8.2v-33.2C819.6,363.9,815.4,364.9,810.8,364.2L810.8,364.2z"/>
		<path class="st5" d="M732.5,368.3l-14.2-2.2c-5.6,15.7-5.1,29.6,0,46.3l14.2-2C728.9,393.7,728.6,385.7,732.5,368.3L732.5,368.3z"
			/>
		<path class="st5" d="M792.9,369.2l-8.8,3c2.2,11.8,2.2,23.3,0.2,34.5l8.6,3.1C795.2,396.6,794.9,382.6,792.9,369.2L792.9,369.2z"
			/>
		<line class="st6" x1="779" y1="365.7" x2="737.9" y2="365.9"/>
		<line class="st6" x1="779" y1="412.5" x2="737.9" y2="412.7"/>
		<path class="st8" d="M474.9,166c1.6,11,3.9,26.1,4.1,42.2c0,12.9,0,25.8,0,38.8c-1.2,17-0.7,30.5-4.8,43.6
			c-0.7,2.5-4.3,8.6-8.7,8.6h-32.9c-5.3,0-6.7-6.8-7.2-8.6c-3.1-13.1-4.4-26.6-4.4-43.4v-39.2c0-15.3,1.6-30.5,3.8-42
			c0.7-3.2,1.3-8.8,8.2-8.8h33.2C475.3,157.2,474.3,161.4,474.9,166L474.9,166z"/>
		<path class="st5" d="M470.8,244.4l2.2,14.2c-15.7,5.6-29.6,5.1-46.3,0l2-14.2C445.5,247.9,453.5,248.3,470.8,244.4L470.8,244.4z"
			/>
		<path class="st5" d="M470,184l-3,8.8c-11.8-2.2-23.3-2.2-34.5-0.2l-3.1-8.6C442.6,181.6,456.5,182,470,184L470,184z"/>
		<line class="st9" x1="473.5" y1="197.9" x2="473.3" y2="238.9"/>
		<line class="st9" x1="426.6" y1="197.9" x2="426.5" y2="238.9"/>
		<path class="st10" d="M532,793.9c-1.6-11-3.9-26.1-4.1-42.2c0-12.9,0-25.8,0-38.8c1.1-17,0.7-30.5,4.8-43.6
			c0.7-2.5,4.3-8.6,8.7-8.6h32.9c5.3,0,6.7,6.8,7.2,8.6c3.1,13.1,4.4,26.6,4.4,43.4v39.2c0,15.3-1.6,30.5-3.8,42
			c-0.7,3.2-1.3,8.8-8.2,8.8h-33.2C531.7,802.7,532.7,798.5,532,793.9L532,793.9z"/>
		<path class="st5" d="M536.1,715.6l-2.2-14.2c15.7-5.6,29.6-5.1,46.3,0l-2,14.2C561.5,712,553.5,711.7,536.1,715.6L536.1,715.6z"/>
		<path class="st5" d="M537,775.9l3-8.8c11.8,2.2,23.3,2.2,34.5,0.2l3.1,8.6C564.4,778.3,550.4,778,537,775.9L537,775.9z"/>
		<line class="st6" x1="533.5" y1="762" x2="533.7" y2="721"/>
		<line class="st6" x1="580.3" y1="762" x2="580.5" y2="721"/>
		<polygon class="st8" points="732.7,589.9 701,579.1 699.5,593.8 732.7,589.9 		"/>
		<polygon class="st8" points="228.7,389.7 261.3,397.1 261.3,382.3 228.7,389.7 		"/>
		<polygon class="st8" points="555.9,273.1 548.5,305.7 563.3,305.7 555.9,273.1 		"/>
		<path class="st11" d="M733.4,480.2V432h20.5c5.1,0,8.9,0.4,11.2,1.3c2.3,0.9,4.2,2.4,5.6,4.6c1.4,2.2,2.1,4.7,2.1,7.6
			c0,3.6-1.1,6.6-3.2,9c-2.1,2.3-5.3,3.8-9.5,4.4c2.1,1.2,3.8,2.6,5.2,4c1.4,1.5,3.2,4.1,5.5,7.8l5.9,9.4H765l-7-10.5
			c-2.5-3.7-4.2-6.1-5.1-7.1c-0.9-1-1.9-1.6-2.9-2c-1-0.4-2.7-0.5-4.9-0.5h-2v20.1H733.4L733.4,480.2z M743.1,452.4h7.2
			c4.7,0,7.6-0.2,8.7-0.6c1.2-0.4,2.1-1.1,2.7-2c0.7-1,1-2.2,1-3.6c0-1.6-0.4-2.9-1.3-3.9c-0.9-1-2.1-1.6-3.7-1.9
			c-0.8-0.1-3.1-0.2-7.1-0.2h-7.6V452.4L743.1,452.4z"/>
		<path class="st11" d="M368.8,198.5h19.2c3.8,0,6.7,0.2,8.5,0.5c1.9,0.3,3.5,1,5,2c1.5,1,2.7,2.3,3.7,4c1,1.7,1.5,3.6,1.5,5.6
			c0,2.3-0.6,4.3-1.8,6.2c-1.2,1.9-2.9,3.3-4.9,4.2c2.9,0.9,5.2,2.3,6.8,4.4c1.6,2.1,2.4,4.5,2.4,7.3c0,2.2-0.5,4.3-1.5,6.4
			c-1,2.1-2.4,3.7-4.2,5c-1.8,1.2-3.9,2-6.5,2.3c-1.6,0.2-5.5,0.3-11.7,0.3h-16.4V198.5L368.8,198.5z M378.6,206.5v11.1h6.4
			c3.8,0,6.1-0.1,7.1-0.2c1.7-0.2,3-0.8,3.9-1.7c1-1,1.4-2.2,1.4-3.8c0-1.5-0.4-2.7-1.2-3.6c-0.8-0.9-2.1-1.5-3.7-1.7
			c-1-0.1-3.7-0.2-8.3-0.2H378.6L378.6,206.5z M378.6,225.7v12.9h9c3.5,0,5.7-0.1,6.7-0.3c1.4-0.3,2.6-0.9,3.5-1.9
			c0.9-1,1.4-2.4,1.4-4.1c0-1.4-0.4-2.7-1.1-3.7c-0.7-1-1.7-1.7-3-2.2c-1.3-0.5-4.2-0.7-8.6-0.7H378.6L378.6,225.7z"/>
		<polygon class="st11" points="657.6,763.2 657.6,715 667.1,715 686.8,747.2 686.8,715 695.8,715 695.8,763.2 686.1,763.2 
			666.7,731.8 666.7,763.2 657.6,763.2 		"/>
		<path class="st11" d="M400.9,717.6h17.8c4,0,7.1,0.3,9.2,0.9c2.8,0.8,5.2,2.3,7.3,4.4c2,2.1,3.6,4.7,4.6,7.8
			c1,3.1,1.6,6.9,1.6,11.4c0,4-0.5,7.4-1.5,10.2c-1.2,3.5-2.9,6.3-5.2,8.5c-1.7,1.7-4,2.9-6.8,3.8c-2.1,0.7-5,1-8.6,1h-18.3V717.6
			L400.9,717.6z M410.6,725.8v31.9h7.3c2.7,0,4.7-0.1,5.9-0.5c1.6-0.4,2.9-1.1,3.9-2c1-0.9,1.9-2.5,2.5-4.7c0.6-2.2,1-5.1,1-8.8
			c0-3.7-0.3-6.6-1-8.6c-0.7-2-1.6-3.6-2.8-4.7c-1.2-1.1-2.7-1.9-4.5-2.3c-1.4-0.3-4-0.5-8-0.5H410.6L410.6,725.8z"/>
		<path class="st12" d="M673.9,389.7H263.4c157.2,38.2,213.7,120,218.2,264.1"/>
		<line class="st12" x1="556.1" y1="652.5" x2="556.1" y2="307.8"/>
		<path class="st12" d="M450.7,303.7c10.3,129.1,77.7,229.5,246.8,282.7"/>
	</g>
</g>
</svg>
