<?xml version="1.0" encoding="utf-8"?>
<!-- Generator: Adobe Illustrator 19.2.0, SVG Export Plug-In . SVG Version: 6.00 Build 0)  -->
<svg version="1.1" id="Livello_1" xmlns="http://www.w3.org/2000/svg" xmlns:xlink="http://www.w3.org/1999/xlink" x="0px" y="0px"
	 viewBox="0 0 960 960" style="enable-background:new 0 0 960 960;" xml:space="preserve">
<style type="text/css">
	.st0{fill-rule:evenodd;clip-rule:evenodd;fill:#FFFFFF;}
	.st1{fill-rule:evenodd;clip-rule:evenodd;fill:#CECFD1;}
	.st2{fill-rule:evenodd;clip-rule:evenodd;fill:#FFEC00;stroke:#1A171B;stroke-width:1.4492;stroke-miterlimit:2.6131;}
	.st3{fill-rule:evenodd;clip-rule:evenodd;fill:#FFFFFF;stroke:#1A171B;stroke-width:1.4492;stroke-miterlimit:2.6131;}
	.st4{fill:none;stroke:#1A171B;stroke-width:1.9322;stroke-miterlimit:2.6131;}
	.st5{fill-rule:evenodd;clip-rule:evenodd;fill:#3D3D3F;stroke:#1A171B;stroke-width:1.4492;stroke-miterlimit:2.6131;}
	.st6{fill:none;stroke:#FFFFFF;stroke-width:1.9322;stroke-miterlimit:2.6131;}
	.st7{fill:none;stroke:#1A171B;stroke-width:4.8306;stroke-miterlimit:2.6131;}
	.st8{fill-rule:evenodd;clip-rule:evenodd;fill:#049853;stroke:#1A171B;stroke-width:1.4492;stroke-miterlimit:2.6131;}
	.st9{fill:none;stroke:#1A171B;stroke-width:1.4492;stroke-miterlimit:2.6131;}
	.st10{fill-rule:evenodd;clip-rule:evenodd;fill:#1A171B;}
	
		.st11{fill-rule:evenodd;clip-rule:evenodd;fill:#E43417;stroke:#1A171B;stroke-width:1.4492;stroke-linecap:square;stroke-miterlimit:2.6131;}
	
		.st12{fill-rule:evenodd;clip-rule:evenodd;fill:#FFFFFF;stroke:#1A171B;stroke-width:1.4492;stroke-linecap:square;stroke-miterlimit:2.6131;}
	.st13{fill:none;stroke:#1A171B;stroke-width:4.8306;stroke-linecap:square;stroke-miterlimit:2.6131;}
	.st14{fill:none;stroke:#1A171B;stroke-width:1.4492;stroke-linecap:square;stroke-miterlimit:2.6131;}
	
		.st15{fill:none;stroke:#1A171B;stroke-width:4.8306;stroke-linecap:square;stroke-miterlimit:2.6131;stroke-dasharray:24.1531,24.1531;}
</style>
<g>
	<g>
		<polygon class="st0" points="232.2,297.5 45,297.5 45,756.8 232.2,756.8 232.2,816.9 512,816.9 512,756.8 914.6,756.8 
			914.6,297.5 914.4,297.5 914.4,284.7 512,284.7 512,143.1 232.2,143.1 232.2,297.5 		"/>
		<path class="st1" d="M255.7,284.8c0,23.6-11.9,36.7-35.2,36.5L45,321.1v412l175.5,0.2c23.5,0,35.2,11.5,35.2,35v48.6h232.8v-48.6
			c0-23.5,11.8-34.8,35.2-35l390.9-0.2v-412h-0.2v-12.7H523.7c-23.5,0-35.2-12.9-35.2-35.6V143.1H255.7V284.8L255.7,284.8z"/>
		<path class="st2" d="M82.5,652.1c11.8-1.8,27.9-4.2,45.1-4.4c13.8,0,27.5,0,41.5,0c18.1,1.2,32.6,0.7,46.5,5.1
			c2.7,0.7,9.2,4.6,9.2,9.3v35.1c0,5.6-7.2,7.2-9.2,7.7c-13.9,3.3-28.4,4.7-46.4,4.7h-41.8c-16.3,0-32.6-1.8-44.9-4
			c-3.4-0.7-9.4-1.4-9.4-8.8v-35.4C73.1,651.8,77.6,652.8,82.5,652.1L82.5,652.1z"/>
		<path class="st3" d="M166.1,656.5l15.2-2.4c6,16.7,5.4,31.7,0,49.5l-15.2-2.2C169.9,683.6,170.3,675.1,166.1,656.5L166.1,656.5z"
			/>
		<path class="st3" d="M101.7,657.4l9.4,3.2c-2.4,12.6-2.4,24.9-0.2,36.8l-9.2,3.3C99.1,686.7,99.5,671.8,101.7,657.4L101.7,657.4z"
			/>
		<line class="st4" x1="116.5" y1="653.7" x2="160.3" y2="653.9"/>
		<line class="st4" x1="116.5" y1="703.7" x2="160.3" y2="703.9"/>
		<path class="st5" d="M334.2,180.7c1.8,11.8,4.2,27.9,4.4,45.1c0,13.8,0,27.5,0,41.5c-1.2,18.1-0.7,32.6-5.1,46.5
			c-0.7,2.7-4.6,9.2-9.3,9.2h-35.1c-5.6,0-7.2-7.2-7.7-9.2c-3.3-13.9-4.7-28.4-4.7-46.4v-41.8c0-16.3,1.8-32.6,4-44.9
			c0.7-3.4,1.4-9.4,8.8-9.4h35.4C334.5,171.3,333.5,175.9,334.2,180.7L334.2,180.7z"/>
		<path class="st3" d="M329.8,264.4l2.4,15.2c-16.7,6-31.7,5.4-49.5,0l2.2-15.2C302.7,268.2,311.2,268.6,329.8,264.4L329.8,264.4z"
			/>
		<path class="st3" d="M328.9,199.9l-3.2,9.4c-12.6-2.4-24.9-2.4-36.9-0.2l-3.3-9.2C299.6,197.4,314.5,197.8,328.9,199.9
			L328.9,199.9z"/>
		<line class="st6" x1="332.6" y1="214.8" x2="332.4" y2="258.6"/>
		<line class="st6" x1="282.6" y1="214.8" x2="282.4" y2="258.6"/>
		<polygon class="st5" points="157.4,373.2 192,381.1 192,365.3 157.4,373.2 		"/>
		<polygon class="st5" points="157.2,497.6 191.8,505.5 191.8,489.7 157.2,497.6 		"/>
		<polygon class="st5" points="448.7,678.5 414,670.6 414,686.4 448.7,678.5 		"/>
		<polygon class="st5" points="307.4,745.6 315.3,711 299.5,711 307.4,745.6 		"/>
		<line class="st7" x1="45.5" y1="480.3" x2="914.5" y2="480.3"/>
		<line class="st7" x1="45.5" y1="547.6" x2="914.5" y2="547.6"/>
		<line class="st7" x1="914.5" y1="515.7" x2="46.2" y2="515.7"/>
		<line class="st7" x1="914.5" y1="583" x2="46.2" y2="583"/>
		<polygon class="st8" points="484.6,480.1 535.1,462.5 794.6,462.5 845.3,480.1 845.3,515.2 793.8,532.9 535,532.9 484.6,515.2 
			484.6,480.1 		"/>
		<polygon class="st8" points="535.6,515.3 794.2,515.3 794.2,533 535.6,533 535.6,515.3 		"/>
		<polygon class="st8" points="535.6,462.6 794.2,462.6 794.2,480.2 535.6,480.2 535.6,462.6 		"/>
		<line class="st9" x1="492.6" y1="480.1" x2="837.2" y2="480.1"/>
		<line class="st9" x1="492.6" y1="497.7" x2="837.2" y2="497.7"/>
		<line class="st9" x1="492.6" y1="515.2" x2="837.2" y2="515.2"/>
		<polygon class="st0" points="603.9,516.7 596.1,516.7 602.7,485.3 591.7,485.3 593,479 622.6,479 621.3,485.3 610.4,485.3 
			603.9,516.7 		"/>
		<path class="st0" d="M627.5,516.7h-7.7l7.9-37.6h16.7c2.9,0,5.1,0.3,6.7,0.9c1.6,0.6,2.9,1.7,3.9,3.2c1,1.6,1.5,3.5,1.5,5.7
			c0,3.2-1,5.8-2.9,7.9c-1.9,2.1-4.8,3.4-8.7,3.9c1,0.9,1.9,2.1,2.8,3.5c1.7,2.9,3.7,7.1,5.8,12.5h-8.3c-0.7-2.1-2-5.4-3.9-9.9
			c-1.1-2.4-2.2-4.1-3.4-4.9c-0.7-0.5-2-0.7-3.8-0.7h-3.2L627.5,516.7L627.5,516.7z M632,495.4h4.1c4.2,0,6.9-0.2,8.3-0.7
			c1.4-0.5,2.4-1.3,3.2-2.3c0.8-1.1,1.1-2.2,1.1-3.3c0-1.4-0.6-2.4-1.7-3.1c-0.7-0.4-2.2-0.6-4.4-0.6h-8.5L632,495.4L632,495.4z"/>
		<path class="st0" d="M682.2,508.3h-14.9l-4.5,8.3h-8l21.3-37.6h8.6l6.1,37.6h-7.3L682.2,508.3L682.2,508.3z M681.3,502.1
			l-2.2-15.2l-9.1,15.2H681.3L681.3,502.1z"/>
		<polygon class="st0" points="717.2,516.7 709.8,516.7 708.5,485.2 702.5,516.7 695.5,516.7 703.4,479 714.4,479 715.6,505.4 
			728.4,479 739.6,479 731.7,516.7 724.6,516.7 732,485.4 717.2,516.7 		"/>
		<path class="st10" d="M405.1,265h-11.3l-4.5-11.7h-20.6l-4.2,11.7h-11l20-51.4h11L405.1,265L405.1,265z M386,244.7l-7.1-19.1
			l-6.9,19.1H386L386,244.7z"/>
		<polygon class="st10" points="699.1,612.2 699.1,569.5 683.8,569.5 683.8,560.8 724.7,560.8 724.7,569.5 709.5,569.5 709.5,612.2 
			699.1,612.2 		"/>
		<path class="st10" d="M123,587.5h20.6c4.1,0,7.1,0.2,9.1,0.5c2,0.3,3.8,1,5.4,2.1c1.6,1.1,2.9,2.5,3.9,4.3c1.1,1.8,1.6,3.8,1.6,6
			c0,2.4-0.6,4.6-1.9,6.6c-1.3,2-3.1,3.5-5.3,4.5c3.1,0.9,5.5,2.5,7.2,4.7c1.7,2.2,2.5,4.8,2.5,7.8c0,2.3-0.5,4.6-1.6,6.8
			c-1.1,2.2-2.6,4-4.5,5.3c-1.9,1.3-4.2,2.1-7,2.4c-1.7,0.2-5.9,0.3-12.5,0.3H123V587.5L123,587.5z M133.4,596v11.9h6.8
			c4,0,6.6-0.1,7.5-0.2c1.8-0.2,3.2-0.8,4.2-1.8c1-1,1.5-2.4,1.5-4c0-1.6-0.4-2.9-1.3-3.9c-0.9-1-2.2-1.6-3.9-1.8
			c-1-0.1-4-0.2-8.9-0.2H133.4L133.4,596z M133.4,616.5v13.7h9.6c3.7,0,6.1-0.1,7.1-0.3c1.5-0.3,2.8-1,3.8-2.1
			c1-1.1,1.5-2.5,1.5-4.4c0-1.5-0.4-2.8-1.1-3.9c-0.8-1.1-1.8-1.9-3.2-2.4c-1.4-0.5-4.5-0.7-9.2-0.7H133.4L133.4,616.5z"/>
		<path class="st10" d="M715.3,252.9l10.1,3.2c-1.5,5.6-4.1,9.8-7.7,12.5c-3.6,2.7-8.1,4.1-13.7,4.1c-6.8,0-12.4-2.3-16.8-7
			c-4.4-4.7-6.6-11.1-6.6-19.1c0-8.6,2.2-15.2,6.6-20c4.4-4.7,10.2-7.1,17.4-7.1c6.3,0,11.4,1.9,15.3,5.6c2.4,2.2,4.1,5.4,5.3,9.5
			L715,237c-0.6-2.7-1.9-4.8-3.8-6.3c-1.9-1.5-4.3-2.3-7-2.3c-3.8,0-6.9,1.4-9.3,4.1c-2.4,2.7-3.6,7.2-3.6,13.3
			c0,6.5,1.2,11.1,3.5,13.9c2.3,2.8,5.4,4.1,9.1,4.1c2.8,0,5.1-0.9,7.1-2.6C713,259.4,714.5,256.6,715.3,252.9L715.3,252.9z"/>
		<path class="st11" d="M842.5,327.8h30.4c1.2,0,2.2,1.2,2.2,2.8c0,1.5-2.2,2.8-2.2,2.8h-32.3C840.6,333.4,840.3,327.8,842.5,327.8
			L842.5,327.8z"/>
		<path class="st11" d="M752.1,327.8h30.4c1.2,0,2.3,1.2,2.3,2.8c0,1.5-2.3,2.8-2.3,2.8h-32.3C750,333.4,749.8,327.8,752.1,327.8
			L752.1,327.8z"/>
		<path class="st11" d="M842.5,417.5h30.4c1.2,0,2.2-1.2,2.2-2.8c0-1.5-2.2-2.8-2.2-2.8h-32.3C840.6,412,840.3,417.5,842.5,417.5
			L842.5,417.5z"/>
		<path class="st11" d="M752.1,417.5h30.4c1.2,0,2.3-1.2,2.3-2.8c0-1.5-2.3-2.8-2.3-2.8h-32.3C750,412,749.8,417.5,752.1,417.5
			L752.1,417.5z"/>
		<polygon class="st11" points="739.1,353.6 721.8,372.8 739.1,391.9 739.1,386.7 726.9,372.8 739.1,358.9 739.1,353.6 		"/>
		<polygon class="st11" points="738,330.6 886.6,330.6 886.6,414.6 738,414.6 738,330.6 		"/>
		<polygon class="st11" points="744.2,336.1 880.4,336.1 880.4,409.1 744.2,409.1 744.2,336.1 		"/>
		<path class="st11" d="M681.3,327.8h30.4c1.2,0,2.3,1.2,2.3,2.8c0,1.5-1.4,2.8-2.3,2.8h-32.3C679.2,333.4,679,327.8,681.3,327.8
			L681.3,327.8z"/>
		<polygon class="st11" points="744.2,350.6 880.4,350.6 880.4,394.8 744.2,394.8 744.2,350.6 		"/>
		<path class="st11" d="M681.3,417.5h30.4c1.2,0,2.3-1.2,2.3-2.8c0-1.5-1.4-2.8-2.3-2.8h-32.3C679.2,412,679,417.5,681.3,417.5
			L681.3,417.5z"/>
		<path class="st11" d="M581.5,417.5h30.4c1.2,0,2.3-1.2,2.3-2.8c0-1.5-1.4-2.8-2.3-2.8h-32.3C579.5,412,579.3,417.5,581.5,417.5
			L581.5,417.5z"/>
		<polygon class="st11" points="603.2,330.7 725.4,330.7 725.4,414.7 603.2,414.7 603.2,330.7 		"/>
		<path class="st11" d="M554.9,330.6v84h-2.8c-4.6,0-8.3-3.7-8.3-8.3v-67.4c0-4.6,3.7-8.3,8.3-8.3H554.9L554.9,330.6z"/>
		<path class="st11" d="M554.7,333.4h48.6v78.5h-48.6c-3.7,0-7-3.1-7-7v-64.6C547.7,336.4,550.8,333.4,554.7,333.4L554.7,333.4z"/>
		<path class="st11" d="M569.6,338.5h24.7c1.8,0,3.4,2.3,3.4,5.2v57.8c0,3-1.5,5.3-3.4,5.3h-24.7c-1.8,0-3.2-2.5-3.4-5.3
			c-1.6-19.3-1.5-38.6,0-57.8C566.5,340.7,567.8,338.5,569.6,338.5L569.6,338.5z"/>
		<path class="st12" d="M555.8,336.6c1,0.9,6.6,4.1,6.5,5c-2.7,19.1-2.8,43,0,62.7c0.1,0.3-5.6,3.3-6.5,4.2c-1.1,1-3.3-1.8-3.5-3.8
			c-1.7-21.4-1.7-43,0-64.3C552.5,338.3,554.5,335.4,555.8,336.6L555.8,336.6z"/>
		<polygon class="st11" points="609.4,336.2 719.1,336.2 719.1,409.2 609.4,409.2 609.4,336.2 		"/>
		<polygon class="st11" points="609.4,350.7 719.1,350.7 719.1,394.9 609.4,394.9 609.4,350.7 		"/>
		<polygon class="st11" points="609.4,365.3 719.1,365.3 719.1,380.1 609.4,380.1 609.4,365.3 		"/>
		<path class="st11" d="M581.5,327.8h30.4c1.2,0,2.3,1.2,2.3,2.8c0,1.5-1.4,2.8-2.3,2.8h-32.3C579.5,333.4,579.3,327.8,581.5,327.8
			L581.5,327.8z"/>
		<polygon class="st11" points="744.2,365.4 880.4,365.4 880.4,380.1 744.2,380.1 744.2,365.4 		"/>
		<path class="st13" d="M232.2,143.1v154.5H45.4 M45.4,756.8h186.7v60.1 M512.4,816.9v-60.1H915 M914.8,284.7H512.4V143.1"/>
		<path class="st14" d="M256.1,143.1v141.6c0,23.6-11.9,36.7-35.2,36.5l-175.5-0.2 M45.4,733.1l175.5,0.2c23.5,0,35.2,11.5,35.2,35
			v48.6 M488.9,816.9v-48.6c0-23.5,11.8-34.8,35.2-35l390.9-0.2 M914.8,308.4H524.1c-23.5,0-35.2-12.9-35.2-35.6V143.1"/>
		<line class="st15" x1="475.7" y1="497.2" x2="193.7" y2="497.2"/>
		<line class="st15" x1="537.7" y1="373.4" x2="193.7" y2="373.4"/>
		<line class="st15" x1="307" y1="327.7" x2="307" y2="707.5"/>
		<line class="st15" x1="230.5" y1="678.8" x2="412.2" y2="678.8"/>
	</g>
</g>
</svg>
