<?xml version="1.0" encoding="utf-8"?>
<!-- Generator: Adobe Illustrator 19.2.0, SVG Export Plug-In . SVG Version: 6.00 Build 0)  -->
<svg version="1.1" id="Livello_1" xmlns="http://www.w3.org/2000/svg" xmlns:xlink="http://www.w3.org/1999/xlink" x="0px" y="0px"
	 viewBox="0 0 960 960" style="enable-background:new 0 0 960 960;" xml:space="preserve">
<style type="text/css">
	.st0{fill-rule:evenodd;clip-rule:evenodd;fill:#FFFFFF;}
	.st1{fill-rule:evenodd;clip-rule:evenodd;fill:#CECFD1;}
	.st2{fill-rule:evenodd;clip-rule:evenodd;fill:#FFEC00;stroke:#1A171B;stroke-width:1.2572;stroke-miterlimit:2.6131;}
	.st3{fill-rule:evenodd;clip-rule:evenodd;fill:#FFFFFF;stroke:#1A171B;stroke-width:1.2572;stroke-miterlimit:2.6131;}
	.st4{fill:none;stroke:#1A171B;stroke-width:1.6763;stroke-miterlimit:2.6131;}
	.st5{fill-rule:evenodd;clip-rule:evenodd;fill:#049853;stroke:#1A171B;stroke-width:1.2572;stroke-miterlimit:2.6131;}
	.st6{fill-rule:evenodd;clip-rule:evenodd;fill:#3D3D3F;stroke:#1A171B;stroke-width:1.2572;stroke-miterlimit:2.6131;}
	.st7{fill-rule:evenodd;clip-rule:evenodd;fill:#1A171B;}
	.st8{fill-rule:evenodd;clip-rule:evenodd;fill:#00A6E2;stroke:#1A171B;stroke-width:1.2572;stroke-miterlimit:2.6131;}
	.st9{fill-rule:evenodd;clip-rule:evenodd;fill:#E43417;stroke:#1A171B;stroke-width:1.2572;stroke-miterlimit:2.6131;}
	.st10{fill:none;stroke:#1A171B;stroke-width:4.1907;stroke-linecap:square;stroke-miterlimit:2.6131;}
	.st11{fill:none;stroke:#1A171B;stroke-width:1.2572;stroke-linecap:square;stroke-miterlimit:2.6131;}
	
		.st12{fill:none;stroke:#1A171B;stroke-width:4.1907;stroke-linecap:square;stroke-miterlimit:2.6131;stroke-dasharray:20.9535,20.9535;}
</style>
<g>
	<g>
		<polygon class="st0" points="306.3,120 614.1,120 614.1,310.2 857.4,310.2 857.4,649.7 614.1,649.7 614.1,839.9 306.3,839.9 
			306.3,649.7 102.6,649.7 102.6,310.2 306.3,310.2 306.3,120 		"/>
		<path class="st1" d="M331.4,120h258.4v180.6c0,24.7,9.6,35,33.9,35h233.6v289.3H623.7c-24.3,0-33.9,9.5-33.9,34.4v180.5H331.4
			l-0.1-180.5c0-24.7-9.4-34.4-34.4-34.4H102.6V335.6h194.3c25.1,0,34.3-8.1,34.4-35L331.4,120L331.4,120z"/>
		<path class="st2" d="M172.4,524.3c10.6-1.6,25.1-3.8,40.6-4c12.4,0,24.8,0,37.4,0c16.3,1.1,29.4,0.6,41.9,4.6
			c2.4,0.6,8.3,4.1,8.3,8.4v31.6c0,5.1-6.5,6.5-8.3,7c-12.6,3-25.6,4.3-41.8,4.3h-37.7c-14.7,0-29.4-1.6-40.5-3.6
			c-3.1-0.6-8.5-1.3-8.5-7.9v-31.9C163.9,524,168,524.9,172.4,524.3L172.4,524.3z"/>
		<path class="st3" d="M247.8,528.2l13.7-2.1c5.4,15.1,4.9,28.5,0,44.6l-13.7-2C251.3,552.7,251.6,545,247.8,528.2L247.8,528.2z"/>
		<path class="st3" d="M189.7,529l8.5,2.8c-2.1,11.4-2.1,22.5-0.2,33.2l-8.3,3C187.4,555.4,187.8,542,189.7,529L189.7,529z"/>
		<line class="st4" x1="203.1" y1="525.7" x2="242.6" y2="525.9"/>
		<line class="st4" x1="203.1" y1="570.8" x2="242.6" y2="570.9"/>
		<path class="st5" d="M484.3,795.3c-1.6-10.6-3.8-25.1-4-40.6c0-12.4,0-24.8,0-37.4c1.1-16.3,0.6-29.4,4.6-42
			c0.6-2.4,4.1-8.3,8.4-8.3h31.6c5.1,0,6.5,6.5,7,8.3c3,12.6,4.3,25.6,4.3,41.8v37.7c0,14.7-1.6,29.4-3.6,40.5
			c-0.6,3.1-1.3,8.5-7.9,8.5h-31.9C484,803.8,484.9,799.7,484.3,795.3L484.3,795.3z"/>
		<path class="st3" d="M488.2,719.9l-2.1-13.7c15.1-5.4,28.5-4.9,44.6,0l-2,13.7C512.7,716.4,505,716.1,488.2,719.9L488.2,719.9z"/>
		<path class="st3" d="M489,778l2.8-8.5c11.4,2.1,22.5,2.1,33.2,0.2l3,8.3C515.4,780.3,502,779.9,489,778L489,778z"/>
		<line class="st4" x1="485.7" y1="764.6" x2="485.9" y2="725.1"/>
		<line class="st4" x1="530.8" y1="764.6" x2="530.9" y2="725.1"/>
		<polygon class="st6" points="473.8,397.7 508.7,405.6 508.7,389.7 473.8,397.7 		"/>
		<polygon class="st6" points="201.6,397.7 236.5,405.6 236.5,389.7 201.6,397.7 		"/>
		<polygon class="st6" points="630.9,548.1 596,540.2 596,556 630.9,548.1 		"/>
		<polygon class="st7" points="212.3,508.7 212.3,462.7 221.7,462.7 221.7,500.9 245,500.9 245,508.7 212.3,508.7 		"/>
		<path class="st7" d="M430.9,717.6h18.5c3.7,0,6.4,0.2,8.2,0.5c1.8,0.3,3.4,0.9,4.8,1.9c1.4,1,2.6,2.3,3.6,3.9
			c0.9,1.6,1.4,3.4,1.4,5.4c0,2.2-0.6,4.2-1.8,6c-1.2,1.8-2.8,3.2-4.8,4.1c2.8,0.8,5,2.2,6.5,4.2c1.5,2,2.3,4.3,2.3,7
			c0,2.1-0.5,4.2-1.5,6.2c-1,2-2.3,3.6-4,4.8c-1.7,1.2-3.8,1.9-6.3,2.2c-1.6,0.2-5.3,0.3-11.3,0.3h-15.8V717.6L430.9,717.6z
			 M440.3,725.4v10.7h6.1c3.6,0,5.9-0.1,6.8-0.2c1.6-0.2,2.9-0.7,3.8-1.6c0.9-0.9,1.4-2.1,1.4-3.6c0-1.4-0.4-2.6-1.2-3.5
			c-0.8-0.9-2-1.4-3.5-1.6c-0.9-0.1-3.6-0.2-8-0.2H440.3L440.3,725.4z M440.3,743.8v12.4h8.7c3.4,0,5.5-0.1,6.4-0.3
			c1.4-0.2,2.5-0.9,3.4-1.8c0.9-1,1.3-2.3,1.3-3.9c0-1.4-0.3-2.6-1-3.5c-0.7-1-1.7-1.7-2.9-2.1c-1.3-0.4-4-0.7-8.3-0.7H440.3
			L440.3,743.8z"/>
		<polygon class="st7" points="434.2,243.1 434.2,196.7 443.6,196.7 443.6,215 461.9,215 461.9,196.7 471.3,196.7 471.3,243.1 
			461.9,243.1 461.9,222.8 443.6,222.8 443.6,243.1 434.2,243.1 		"/>
		<path class="st7" d="M705.9,438.5H723c3.9,0,6.8,0.3,8.8,0.9c2.7,0.8,5.1,2.2,7,4.3c1.9,2,3.4,4.5,4.4,7.5c1,3,1.5,6.6,1.5,11
			c0,3.8-0.5,7.1-1.4,9.9c-1.2,3.4-2.8,6.1-5,8.2c-1.6,1.6-3.8,2.8-6.6,3.7c-2.1,0.7-4.8,1-8.3,1h-17.6V438.5L705.9,438.5z
			 M715.2,446.4v30.7h7c2.6,0,4.5-0.1,5.7-0.4c1.5-0.4,2.8-1,3.8-1.9c1-0.9,1.8-2.4,2.4-4.5c0.6-2.1,1-4.9,1-8.5
			c0-3.6-0.3-6.3-1-8.2c-0.6-1.9-1.5-3.4-2.7-4.5c-1.1-1.1-2.6-1.8-4.3-2.2c-1.3-0.3-3.9-0.4-7.7-0.4H715.2L715.2,446.4z"/>
		<path class="st8" d="M774.9,373.4c-10.6-1.6-25.1-3.8-40.6-4c-12.4,0-24.8,0-37.4,0c-16.3,1.1-29.4,0.6-41.9,4.6
			c-2.4,0.6-8.3,4.1-8.3,8.4V414c0,5.1,6.5,6.5,8.3,7c12.6,3,25.6,4.3,41.8,4.3h37.7c14.7,0,29.4-1.6,40.5-3.6
			c3.1-0.6,8.5-1.3,8.5-7.9v-31.9C783.4,373.1,779.3,374,774.9,373.4L774.9,373.4z"/>
		<path class="st3" d="M699.5,377.3l-13.7-2.1c-5.4,15.1-4.9,28.5,0,44.6l13.7-2C696,401.8,695.7,394,699.5,377.3L699.5,377.3z"/>
		<path class="st3" d="M757.6,378.1l-8.5,2.8c2.1,11.4,2.1,22.5,0.2,33.2l8.3,3C759.9,404.5,759.5,391.1,757.6,378.1L757.6,378.1z"
			/>
		<line class="st4" x1="744.2" y1="374.8" x2="704.7" y2="375"/>
		<line class="st4" x1="744.2" y1="419.9" x2="704.7" y2="420"/>
		<path class="st9" d="M415.9,163.5c1.6,10.6,3.8,25.1,4,40.6c0,12.4,0,24.8,0,37.4c-1.1,16.3-0.6,29.4-4.6,42
			c-0.6,2.4-4.1,8.3-8.4,8.3h-31.6c-5.1,0-6.5-6.5-7-8.3c-3-12.6-4.3-25.6-4.3-41.8V204c0-14.7,1.6-29.4,3.6-40.5
			c0.6-3.1,1.3-8.5,7.9-8.5h31.9C416.2,155,415.2,159.1,415.9,163.5L415.9,163.5z"/>
		<path class="st3" d="M411.9,238.9l2.1,13.7c-15.1,5.4-28.5,4.9-44.6,0l2-13.7C387.5,242.4,395.2,242.7,411.9,238.9L411.9,238.9z"
			/>
		<path class="st3" d="M411.1,180.8l-2.8,8.5c-11.4-2.1-22.5-2.1-33.2-0.2l-3-8.3C384.7,178.5,398.1,178.9,411.1,180.8L411.1,180.8z
			"/>
		<line class="st4" x1="414.4" y1="194.2" x2="414.3" y2="233.7"/>
		<line class="st4" x1="369.4" y1="194.2" x2="369.2" y2="233.7"/>
		<path class="st10" d="M614.1,120v190.3l243.2-0.1 M857.4,649.8H614.1V840 M306.3,840V649.8l-203.6-0.1 M102.6,310.3h203.6V120"/>
		<path class="st11" d="M102.6,335.7h194.3c25.1,0,34.3-8.1,34.4-35V120 M589.8,120.1v180.6c0,24.7,9.6,35,33.9,35h233.6 M857.4,625
			H623.7c-24.3,0-33.9,9.5-33.9,34.4V840 M331.4,840l-0.1-180.5c0-24.7-9.4-34.4-34.4-34.4H102.6"/>
		<path class="st12" d="M390.2,301.7c-7.9,69.8-60.3,95.5-150.6,96.1c154.4,10.1,257.4,121.4,268.9,263.8"/>
		<line class="st12" x1="306.3" y1="548.1" x2="593.4" y2="547.5"/>
		<line class="st12" x1="642" y1="397.4" x2="511.5" y2="397.4"/>
	</g>
</g>
</svg>
