<?xml version="1.0" encoding="utf-8"?>
<!-- Generator: Adobe Illustrator 19.2.0, SVG Export Plug-In . SVG Version: 6.00 Build 0)  -->
<svg version="1.1" id="Livello_1" xmlns="http://www.w3.org/2000/svg" xmlns:xlink="http://www.w3.org/1999/xlink" x="0px" y="0px"
	 viewBox="0 0 960 960" style="enable-background:new 0 0 960 960;" xml:space="preserve">
<style type="text/css">
	.st0{fill-rule:evenodd;clip-rule:evenodd;fill:#FFFFFF;}
	.st1{fill-rule:evenodd;clip-rule:evenodd;fill:#CECFD1;}
	.st2{fill-rule:evenodd;clip-rule:evenodd;fill:#00A6E2;stroke:#1A171B;stroke-width:1.2572;stroke-miterlimit:2.6131;}
	.st3{fill-rule:evenodd;clip-rule:evenodd;fill:#FFFFFF;stroke:#1A171B;stroke-width:1.2572;stroke-miterlimit:2.6131;}
	.st4{fill:none;stroke:#1A171B;stroke-width:1.6763;stroke-miterlimit:2.6131;}
	.st5{fill-rule:evenodd;clip-rule:evenodd;fill:#049853;stroke:#1A171B;stroke-width:1.2572;stroke-miterlimit:2.6131;}
	.st6{fill-rule:evenodd;clip-rule:evenodd;fill:#3D3D3F;stroke:#1A171B;stroke-width:1.2572;stroke-miterlimit:2.6131;}
	.st7{fill-rule:evenodd;clip-rule:evenodd;fill:#FFEC00;stroke:#1A171B;stroke-width:1.2572;stroke-miterlimit:2.6131;}
	.st8{fill-rule:evenodd;clip-rule:evenodd;fill:#E43417;stroke:#1A171B;stroke-width:1.2572;stroke-miterlimit:2.6131;}
	.st9{fill:none;stroke:#1A171B;stroke-width:4.1907;stroke-linecap:square;stroke-miterlimit:2.6131;}
	.st10{fill:none;stroke:#1A171B;stroke-width:1.2572;stroke-linecap:square;stroke-miterlimit:2.6131;}
	
		.st11{fill:none;stroke:#1A171B;stroke-width:4.1907;stroke-linecap:square;stroke-miterlimit:2.6131;stroke-dasharray:20.9536,20.9536;}
	.st12{fill-rule:evenodd;clip-rule:evenodd;fill:#1A171B;}
</style>
<g>
	<g>
		<polygon class="st0" points="624.9,840 317,840 317,649.8 115.6,649.8 115.6,310.3 317,310.3 317,120.1 624.9,120.1 624.9,310.3 
			844.4,310.3 844.4,649.8 624.9,649.8 624.9,840 		"/>
		<path class="st1" d="M599.8,840H341.4V659.4c0-24.7-9.6-35-33.9-35H115.6V335.1h191.8c24.3,0,33.9-9.5,33.9-34.4V120.1h258.4
			l0.1,180.5c0,24.7,9.4,34.4,34.4,34.4h210.1v289.3H634.3c-25.1,0-34.3,8.1-34.4,35L599.8,840L599.8,840z"/>
		<path class="st2" d="M758.8,413.5c-10.6,1.6-25.1,3.8-40.6,4c-12.4,0-24.8,0-37.4,0c-16.3-1.1-29.4-0.6-41.9-4.6
			c-2.4-0.6-8.3-4.1-8.3-8.4v-31.6c0-5.1,6.5-6.5,8.3-7c12.6-3,25.6-4.3,41.8-4.3h37.7c14.7,0,29.4,1.6,40.5,3.6
			c3.1,0.6,8.5,1.3,8.5,7.9v31.9C767.2,413.8,763.2,412.9,758.8,413.5L758.8,413.5z"/>
		<path class="st3" d="M683.3,409.6l-13.7,2.1c-5.4-15.1-4.9-28.5,0-44.6l13.7,2C679.9,385.1,679.6,392.8,683.3,409.6L683.3,409.6z"
			/>
		<path class="st3" d="M741.5,408.8l-8.5-2.8c2.1-11.4,2.1-22.5,0.2-33.2l8.3-3C743.7,382.4,743.4,395.8,741.5,408.8L741.5,408.8z"
			/>
		<line class="st4" x1="728.1" y1="412.1" x2="688.6" y2="411.9"/>
		<line class="st4" x1="728.1" y1="367" x2="688.6" y2="366.9"/>
		<path class="st5" d="M465.4,161c1.6,10.6,3.8,25.1,4,40.6c0,12.4,0,24.8,0,37.4c-1.1,16.3-0.6,29.4-4.6,41.9
			c-0.6,2.4-4.1,8.3-8.4,8.3h-31.6c-5.1,0-6.5-6.5-7-8.3c-3-12.6-4.3-25.6-4.3-41.8v-37.7c0-14.7,1.6-29.4,3.6-40.5
			c0.6-3.1,1.3-8.5,7.9-8.5H457C465.7,152.5,464.7,156.6,465.4,161L465.4,161z"/>
		<path class="st3" d="M461.4,236.4l2.1,13.7c-15.1,5.4-28.5,4.9-44.6,0l2-13.7C437,239.9,444.7,240.2,461.4,236.4L461.4,236.4z"/>
		<path class="st3" d="M460.6,178.3l-2.8,8.5c-11.4-2.1-22.5-2.1-33.2-0.2l-3-8.3C434.2,176.1,447.7,176.4,460.6,178.3L460.6,178.3z
			"/>
		<line class="st4" x1="464" y1="191.7" x2="463.8" y2="231.2"/>
		<line class="st4" x1="418.9" y1="191.7" x2="418.7" y2="231.2"/>
		<polygon class="st6" points="518.8,570.3 483.9,562.4 483.9,578.3 518.8,570.3 		"/>
		<polygon class="st6" points="738.8,570.9 703.9,563 703.9,578.9 738.8,570.9 		"/>
		<polygon class="st6" points="300.2,389.7 335.2,397.6 335.2,381.8 300.2,389.7 		"/>
		<path class="st7" d="M185.9,594c10.6,1.6,25.1,3.8,40.6,4c12.4,0,24.8,0,37.4,0c16.3-1.1,29.4-0.6,41.9-4.6
			c2.4-0.6,8.3-4.1,8.3-8.4v-31.6c0-5.1-6.5-6.5-8.3-7c-12.6-3-25.6-4.3-41.8-4.3h-37.7c-14.7,0-29.4,1.6-40.5,3.6
			c-3.1,0.6-8.5,1.3-8.5,7.9v31.9C177.4,594.3,181.5,593.4,185.9,594L185.9,594z"/>
		<path class="st3" d="M261.3,590.1l13.7,2.1c5.4-15.1,4.9-28.5,0-44.6l-13.7,2C264.7,565.6,265.1,573.4,261.3,590.1L261.3,590.1z"
			/>
		<path class="st3" d="M203.2,589.3l8.5-2.8c-2.1-11.4-2.1-22.5-0.2-33.2l-8.3-3C200.9,562.9,201.2,576.3,203.2,589.3L203.2,589.3z"
			/>
		<line class="st4" x1="216.6" y1="592.6" x2="256.1" y2="592.4"/>
		<line class="st4" x1="216.6" y1="547.5" x2="256.1" y2="547.4"/>
		<path class="st8" d="M524.6,794.6c-1.6-10.6-3.8-25.1-4-40.6c0-12.4,0-24.8,0-37.4c1.1-16.3,0.6-29.4,4.6-41.9
			c0.6-2.4,4.1-8.3,8.4-8.3h31.6c5.1,0,6.5,6.5,7,8.3c3,12.6,4.3,25.6,4.3,41.8v37.7c0,14.7-1.6,29.4-3.6,40.5
			c-0.6,3.1-1.3,8.5-7.9,8.5H533C524.3,803.1,525.2,799,524.6,794.6L524.6,794.6z"/>
		<path class="st3" d="M528.5,719.2l-2.1-13.7c15.1-5.4,28.5-4.9,44.6,0l-2,13.7C553,715.8,545.2,715.5,528.5,719.2L528.5,719.2z"/>
		<path class="st3" d="M529.3,777.3l2.8-8.5c11.4,2.1,22.5,2.1,33.2,0.2l3,8.3C555.7,779.6,542.3,779.3,529.3,777.3L529.3,777.3z"/>
		<line class="st4" x1="526" y1="763.9" x2="526.2" y2="724.4"/>
		<line class="st4" x1="571.1" y1="763.9" x2="571.2" y2="724.4"/>
		<path class="st9" d="M317,840V649.7l-201.4,0.1 M115.6,310.2H317V120 M624.9,120v190.2l219.4,0.1 M844.4,649.7H624.9V840"/>
		<path class="st10" d="M844.4,624.3H634.3c-25.1,0-34.3,8.1-34.4,35V840 M341.4,839.9V659.3c0-24.7-9.6-35-33.9-35H115.6
			 M115.6,335h191.8c24.3,0,33.9-9.5,33.9-34.4V120 M599.8,120l0.1,180.5c0,24.7,9.4,34.4,34.4,34.4h210.1"/>
		<path class="st11" d="M550.2,656.5c-0.5-75.1,49.4-87.2,149.6-85.5C545.5,560.8,452.8,439,441.2,296.5"/>
		<line class="st11" x1="624.9" y1="389.7" x2="337.8" y2="390.3"/>
		<line class="st11" x1="318.8" y1="570" x2="486.4" y2="570.3"/>
		<path class="st12" d="M463.5,769.2v-46.4h19.7c5,0,8.6,0.4,10.8,1.3c2.2,0.8,4,2.3,5.4,4.5c1.3,2.1,2,4.6,2,7.3
			c0,3.5-1,6.4-3.1,8.6c-2,2.3-5.5,4.9-8.8,5.5c-3.3,0.6-5.2,0.6-9.5,0.8l-5.2,0h-1.9v18.5H463.5L463.5,769.2z M472.8,742.4h6.9
			c4.5,0,7.3-0.2,8.4-0.6c1.1-0.4,2-1,2.6-2c0.6-0.9,0.9-2.1,0.9-3.5c0-1.6-0.4-2.8-1.3-3.8c-0.8-1-2-1.6-3.5-1.8
			c-0.8-0.1-3-0.2-6.8-0.2h-7.3V742.4L472.8,742.4z"/>
		<polygon class="st12" points="692.7,486.2 692.7,439.8 702.1,439.8 702.1,478.3 725.6,478.3 725.6,486.2 692.7,486.2 		"/>
		<path class="st12" d="M359.2,188.2h18.6c3.7,0,6.4,0.2,8.2,0.5c1.8,0.3,3.4,0.9,4.8,1.9c1.4,1,2.6,2.3,3.6,3.9
			c1,1.6,1.4,3.4,1.4,5.4c0,2.2-0.6,4.2-1.8,6c-1.2,1.8-2.8,3.2-4.8,4.1c2.8,0.8,5,2.2,6.5,4.2c1.5,2,2.3,4.3,2.3,7
			c0,2.1-0.5,4.2-1.5,6.2c-1,2-2.3,3.6-4,4.8c-1.7,1.2-3.8,1.9-6.3,2.2c-1.6,0.2-5.3,0.3-11.3,0.3h-15.8V188.2L359.2,188.2z
			 M368.6,196v10.7h6.1c3.7,0,5.9-0.1,6.8-0.2c1.6-0.2,2.9-0.7,3.8-1.7c0.9-0.9,1.4-2.1,1.4-3.6c0-1.4-0.4-2.6-1.2-3.5
			c-0.8-0.9-2-1.4-3.5-1.6c-0.9-0.1-3.6-0.2-8-0.2H368.6L368.6,196z M368.6,214.4v12.4h8.7c3.4,0,5.5-0.1,6.4-0.3
			c1.4-0.2,2.5-0.9,3.4-1.8c0.9-1,1.3-2.3,1.3-3.9c0-1.4-0.3-2.6-1-3.5c-0.7-1-1.7-1.7-2.9-2.1c-1.3-0.4-4.1-0.7-8.3-0.7H368.6
			L368.6,214.4z"/>
		<path class="st12" d="M219.6,474.9h17.1c3.9,0,6.8,0.3,8.8,0.9c2.7,0.8,5.1,2.2,7,4.3c1.9,2,3.4,4.6,4.4,7.5c1,3,1.5,6.6,1.5,11
			c0,3.8-0.5,7.1-1.4,9.9c-1.2,3.4-2.8,6.1-5,8.2c-1.6,1.6-3.8,2.8-6.6,3.7c-2.1,0.7-4.8,1-8.3,1h-17.6V474.9L219.6,474.9z
			 M229,482.8v30.7h7c2.6,0,4.5-0.1,5.7-0.4c1.5-0.4,2.8-1,3.8-1.9c1-0.9,1.8-2.4,2.5-4.5c0.6-2.1,0.9-4.9,0.9-8.5s-0.3-6.3-0.9-8.3
			c-0.6-1.9-1.5-3.4-2.7-4.5c-1.1-1.1-2.6-1.8-4.3-2.2c-1.3-0.3-3.9-0.4-7.7-0.4H229L229,482.8z"/>
	</g>
</g>
</svg>
