<?xml version="1.0" encoding="utf-8"?>
<!-- Generator: Adobe Illustrator 19.2.0, SVG Export Plug-In . SVG Version: 6.00 Build 0)  -->
<svg version="1.1" id="Livello_1" xmlns="http://www.w3.org/2000/svg" xmlns:xlink="http://www.w3.org/1999/xlink" x="0px" y="0px"
	 viewBox="0 0 960 960" style="enable-background:new 0 0 960 960;" xml:space="preserve">
<style type="text/css">
	.st0{fill-rule:evenodd;clip-rule:evenodd;fill:#FFFFFF;}
	.st1{fill-rule:evenodd;clip-rule:evenodd;fill:#CECFD1;}
	.st2{fill:none;stroke:#1A171B;stroke-width:1.2644;stroke-linecap:square;stroke-miterlimit:2.6131;}
	.st3{fill:none;stroke:#1A171B;stroke-width:4.2146;stroke-linecap:square;stroke-miterlimit:2.6131;}
	.st4{fill-rule:evenodd;clip-rule:evenodd;fill:#00A6E2;stroke:#1A171B;stroke-width:1.2644;stroke-miterlimit:2.6131;}
	.st5{fill-rule:evenodd;clip-rule:evenodd;fill:#FFFFFF;stroke:#1A171B;stroke-width:1.2644;stroke-miterlimit:2.6131;}
	.st6{fill:none;stroke:#1A171B;stroke-width:1.6858;stroke-miterlimit:2.6131;}
	.st7{fill-rule:evenodd;clip-rule:evenodd;fill:#FFEC00;stroke:#1A171B;stroke-width:1.2644;stroke-miterlimit:2.6131;}
	.st8{fill-rule:evenodd;clip-rule:evenodd;fill:#1A171B;}
	.st9{fill-rule:evenodd;clip-rule:evenodd;fill:#1A171B;stroke:#1A171B;stroke-width:1.2644;stroke-miterlimit:2.6131;}
	
		.st10{fill:none;stroke:#1A171B;stroke-width:4.2146;stroke-linecap:square;stroke-miterlimit:2.6131;stroke-dasharray:21.0731,21.0731;}
	
		.st11{fill-rule:evenodd;clip-rule:evenodd;fill:#E1001A;stroke:#1A171B;stroke-width:1.2644;stroke-linecap:square;stroke-miterlimit:2.6131;}
	
		.st12{fill-rule:evenodd;clip-rule:evenodd;fill:#FFFFFF;stroke:#1A171B;stroke-width:1.2644;stroke-linecap:square;stroke-miterlimit:2.6131;}
</style>
<g>
	<g>
		<polygon class="st0" points="262.2,120 581.9,120 581.9,317.8 900.6,317.8 900.6,647.5 581.9,647.5 581.9,840 262.2,840 
			262.2,647.5 59.4,647.5 59.4,317.8 262.2,317.8 262.2,120 		"/>
		<path class="st1" d="M285.9,120h272.6l-0.1,187.3c-0.1,23.7,11.8,34.2,35.4,34.2h306.9v282.4H592.5c-22.3,0-34.1,10.6-34.1,34.2
			l0.1,181.9H285.9l-0.1-181.9c0-23.7-10.6-34.2-35.4-34.2h-191V341.5h192.3c23.6,0,34-10.6,34.1-34.2L285.9,120L285.9,120z"/>
		<path class="st2" d="M285.9,840l-0.1-181.9c0-23.7-10.6-34.2-35.4-34.2h-191"/>
		<polyline class="st3" points="262.2,840 262.2,647.5 59.4,647.5 		"/>
		<path class="st2" d="M900.6,623.9H592.5c-22.3,0-34.1,10.6-34.1,34.2l0.1,181.9"/>
		<polyline class="st3" points="900.6,647.5 581.9,647.5 581.9,840 		"/>
		<path class="st2" d="M558.4,120.1v187.2c-0.1,23.7,11.8,34.2,35.4,34.2h306.9"/>
		<polyline class="st3" points="581.9,120 581.9,317.8 900.6,317.8 		"/>
		<path class="st2" d="M59.4,341.5h192.3c23.6,0,34-10.6,34.1-34.2l0.1-187.3"/>
		<polyline class="st3" points="59.4,317.8 262.2,317.8 262.2,120.1 		"/>
		<path class="st4" d="M355.2,157c1.6,11,3.9,26.1,4.1,42.2c0,12.9,0,25.8,0,38.8c-1.2,17-0.7,30.5-4.8,43.6
			c-0.7,2.5-4.3,8.6-8.7,8.6H313c-5.3,0-6.7-6.8-7.2-8.6c-3.1-13.1-4.4-26.6-4.4-43.4v-39.2c0-15.3,1.6-30.5,3.8-42
			c0.7-3.2,1.3-8.8,8.2-8.8h33.2C355.6,148.2,354.6,152.4,355.2,157L355.2,157z"/>
		<path class="st5" d="M351.1,235.4l2.2,14.2c-15.7,5.6-29.6,5.1-46.3,0l2-14.2C325.8,238.9,333.8,239.3,351.1,235.4L351.1,235.4z"
			/>
		<path class="st5" d="M350.3,175l-3,8.8c-11.8-2.2-23.3-2.2-34.5-0.2l-3.1-8.6C322.9,172.6,336.8,173,350.3,175L350.3,175z"/>
		<line class="st6" x1="353.8" y1="188.9" x2="353.6" y2="229.9"/>
		<line class="st6" x1="306.9" y1="188.9" x2="306.8" y2="229.9"/>
		<path class="st7" d="M488.7,796.3c1.6-11,3.9-26.1,4.1-42.2c0-12.9,0-25.8,0-38.8c-1.2-17-0.7-30.5-4.8-43.6
			c-0.7-2.5-4.3-8.6-8.7-8.6h-32.9c-5.3,0-6.7,6.8-7.2,8.6c-3.1,13.1-4.4,26.6-4.4,43.4v39.2c0,15.3,1.6,30.5,3.8,42.1
			c0.7,3.2,1.3,8.8,8.2,8.8H480C489,805.1,488.1,800.9,488.7,796.3L488.7,796.3z"/>
		<path class="st5" d="M484.6,718l2.2-14.2c-15.7-5.6-29.6-5.1-46.3,0l2,14.2C459.2,714.4,467.2,714.1,484.6,718L484.6,718z"/>
		<path class="st5" d="M483.8,778.3l-3-8.8c-11.8,2.2-23.3,2.2-34.5,0.2l-3.1,8.6C456.3,780.7,470.3,780.4,483.8,778.3L483.8,778.3z
			"/>
		<line class="st6" x1="487.2" y1="764.4" x2="487.1" y2="723.4"/>
		<line class="st6" x1="440.4" y1="764.4" x2="440.3" y2="723.4"/>
		<path class="st5" d="M434.8,157.1c1.6,11,3.9,26.1,4.1,42.2c0,12.9,0,25.8,0,38.8c-1.1,17-0.7,30.5-4.8,43.6
			c-0.7,2.5-4.3,8.6-8.7,8.6h-32.9c-5.3,0-6.7-6.8-7.2-8.6c-3.1-13.1-4.4-26.6-4.4-43.4v-39.2c0-15.3,1.6-30.5,3.8-42
			c0.7-3.2,1.3-8.8,8.2-8.8h33.2C435.1,148.3,434.1,152.6,434.8,157.1L434.8,157.1z"/>
		<path class="st5" d="M430.7,235.5l2.2,14.2c-15.7,5.6-29.6,5.1-46.3,0l2-14.2C405.3,239,413.3,239.4,430.7,235.5L430.7,235.5z"/>
		<path class="st5" d="M429.8,175.1l-3,8.8c-11.8-2.2-23.3-2.2-34.5-0.2l-3.1-8.6C402.4,172.7,416.4,173.1,429.8,175.1L429.8,175.1z
			"/>
		<line class="st6" x1="433.3" y1="189" x2="433.1" y2="230"/>
		<line class="st6" x1="386.5" y1="189" x2="386.3" y2="230"/>
		<polygon class="st8" points="459.3,234.9 459.3,186.7 469,186.7 469,205.7 488.1,205.7 488.1,186.7 497.8,186.7 497.8,234.9 
			488.1,234.9 488.1,213.8 469,213.8 469,234.9 459.3,234.9 		"/>
		<polygon class="st8" points="214.4,235.2 214.4,187 247.4,187 247.4,195.2 224.1,195.2 224.1,206.6 244.2,206.6 244.2,214.7 
			224.1,214.7 224.1,235.2 214.4,235.2 		"/>
		<polygon class="st8" points="376.3,761.9 376.3,713.7 385.8,713.7 405.5,745.9 405.5,713.7 414.5,713.7 414.5,761.9 404.7,761.9 
			385.3,730.5 385.3,761.9 376.3,761.9 		"/>
		<polygon class="st9" points="330.5,417.7 337.9,385.1 323.1,385.1 330.5,417.7 		"/>
		<line class="st10" x1="330.3" y1="296.4" x2="330.3" y2="383"/>
		<polygon class="st9" points="458.6,407.8 491.2,415.2 491.2,400.4 458.6,407.8 		"/>
		<line class="st10" x1="606.5" y1="407.6" x2="493.3" y2="407.6"/>
		<polygon class="st9" points="156,394.7 187.6,405.4 189.2,390.7 156,394.7 		"/>
		<path class="st10" d="M462.3,657.8c-2.6-140.6-109.7-238.4-271.1-259.7"/>
		<polygon class="st9" points="715.2,583.4 683.6,572.6 682,587.4 715.2,583.4 		"/>
		<path class="st10" d="M407.7,297.2c1.8,140,96.3,260.2,272.2,282.7"/>
		<path class="st8" d="M884.4,429.7h-10.6l-4.2-10.9h-19.2l-4,10.9h-10.3l18.8-48.2h10.3L884.4,429.7L884.4,429.7z M866.5,410.7
			l-6.6-17.9l-6.5,17.9H866.5L866.5,410.7z"/>
		<polygon class="st11" points="814.6,440.7 804.9,440.7 804.9,372 814.6,372 814.6,440.7 		"/>
		<path class="st11" d="M651.9,365.7h31c1.3,0,2.3,1.1,2.3,2.5s-1.5,2.5-2.3,2.5h-33C649.9,370.7,649.6,365.7,651.9,365.7
			L651.9,365.7z"/>
		<path class="st11" d="M651.9,446.7h31c1.3,0,2.3-1.1,2.3-2.5s-1.5-2.5-2.3-2.5h-33C649.9,441.7,649.6,446.7,651.9,446.7
			L651.9,446.7z"/>
		<path class="st11" d="M624.8,444.2v-75.9H622c-4.7,0-8.5,3.3-8.5,7.5v60.9c0,4.2,3.8,7.5,8.5,7.5H624.8L624.8,444.2z"/>
		<path class="st11" d="M624.6,441.7h49.6v-70.9h-49.6c-3.8,0-7.1,2.8-7.1,6.3v58.3C617.5,438.9,620.6,441.7,624.6,441.7
			L624.6,441.7z"/>
		<path class="st11" d="M641.2,437.1H659c1.3,0,2.4-2,2.4-4.7v-52.2c0-2.7-1.1-4.8-2.4-4.8h-17.8c-1.3,0-2.3,2.2-2.4,4.8
			c-1.2,17.5-1.1,34.8,0,52.2C638.9,435.1,639.9,437.1,641.2,437.1L641.2,437.1z"/>
		<path class="st11" d="M766.8,365.7h31c1.3,0,2.3,1.1,2.3,2.5s-2.3,2.5-2.3,2.5h-33C764.8,370.7,764.5,365.7,766.8,365.7
			L766.8,365.7z"/>
		<path class="st11" d="M766.8,446.7h31c1.3,0,2.3-1.1,2.3-2.5s-2.3-2.5-2.3-2.5h-33C764.8,441.7,764.5,446.7,766.8,446.7
			L766.8,446.7z"/>
		<polygon class="st11" points="666.5,444.2 811.8,444.2 811.8,368.3 666.5,368.3 666.5,444.2 		"/>
		<polygon class="st11" points="680.5,439.2 805.4,439.2 805.4,373.3 680.5,373.3 680.5,439.2 		"/>
		<polygon class="st11" points="680.5,412.9 805.4,412.9 805.4,399.6 680.5,399.6 680.5,412.9 		"/>
		<path class="st12" d="M627,438.8c1.3-0.8,8.5-3.7,8.4-4.5c-1.6-8.1-2.5-17.2-2.6-26.3h-11.9c0.1,9.2,0.6,18.3,1.6,27.4
			C622.7,437.3,625.4,439.9,627,438.8L627,438.8z M632.8,404.6c0.1-9.3,0.9-18.6,2.6-27c0.1-0.3-7.2-3-8.4-3.8
			c-1.4-0.9-4.3,1.7-4.6,3.4c-1,9.1-1.5,18.3-1.6,27.4H632.8L632.8,404.6z"/>
		<path class="st4" d="M694.6,379.7c3.6,0,6.6,3,6.6,6.6c0,3.6-3,6.6-6.6,6.6c-3.6,0-6.6-3-6.6-6.6C688,382.7,691,379.7,694.6,379.7
			L694.6,379.7z"/>
		<path class="st4" d="M694.6,419.5c3.6,0,6.6,3,6.6,6.6c0,3.6-3,6.6-6.6,6.6c-3.6,0-6.6-3-6.6-6.6C688,422.4,691,419.5,694.6,419.5
			L694.6,419.5z"/>
		<path class="st4" d="M791,419.5c-3.6,0-6.6,3-6.6,6.6c0,3.6,3,6.6,6.6,6.6c3.6,0,6.6-3,6.6-6.6C797.6,422.4,794.6,419.5,791,419.5
			L791,419.5z"/>
		<path class="st4" d="M791,379.7c-3.6,0-6.6,3-6.6,6.6c0,3.6,3,6.6,6.6,6.6c3.6,0,6.6-3,6.6-6.6C797.6,382.7,794.6,379.7,791,379.7
			L791,379.7z"/>
		<polygon class="st8" points="590.1,507.4 585.4,507.4 581.5,474 585.9,474 588.6,499.3 597.5,474 601.9,474 590.1,507.4 		"/>
		<polygon class="st8" points="599.1,507.4 603.6,474 608,474 603.6,507.4 599.1,507.4 		"/>
		<path class="st8" d="M619.6,489.6h9.6l-1.9,14.3c-1.1,1.1-2.5,2.1-4.2,2.9c-1.6,0.8-3.3,1.2-5,1.2c-2.7,0-4.7-0.9-6.1-2.8
			c-1.9-2.5-2.9-6.2-2.9-11.1c0-3.2,0.4-6.4,1.2-9.3c1-3.6,2.4-6.4,4.2-8.3c1.8-2,4-3,6.5-3c2.5,0,4.5,0.9,6,2.7
			c1.5,1.8,2.5,4.4,3,7.8l-4.1,0.7c-0.4-1.9-0.9-3.3-1.7-4.3c-0.8-1-1.8-1.4-3-1.4c-1.4,0-2.7,0.6-3.9,1.7c-1.2,1.2-2.1,2.9-2.8,5.4
			c-0.7,2.4-1,5-1,7.9c0,2.8,0.4,4.9,1.2,6.2c0.8,1.3,2,2,3.6,2c0.9,0,1.9-0.2,2.9-0.6c1-0.4,1.9-0.9,2.6-1.5l0.7-5h-5.5
			L619.6,489.6L619.6,489.6z"/>
		<polygon class="st8" points="630.8,507.4 635.3,474 639.7,474 635.2,507.4 630.8,507.4 		"/>
		<polygon class="st8" points="639.4,507.4 643.9,474 648.3,474 644.6,501.8 655.5,501.8 654.7,507.4 639.4,507.4 		"/>
		<polygon class="st8" points="657.4,507.4 661.9,474 666.3,474 661.8,507.4 657.4,507.4 		"/>
		<path class="st8" d="M674.3,507.4l4.5-33.4h5.8c1.6,0,2.6,0,3.1,0.1c0.9,0.1,1.7,0.4,2.4,0.8c0.7,0.4,1.3,1,1.9,1.8
			c0.6,0.8,1.1,1.7,1.5,2.8c0.4,1.1,0.7,2.3,1,3.7c0.2,1.4,0.3,2.9,0.3,4.6c0,3.6-0.4,6.8-1.3,9.6c-0.9,2.8-2,5-3.3,6.6
			c-1,1.3-2.3,2.2-4,2.8c-0.9,0.3-2.3,0.5-4.2,0.5H674.3L674.3,507.4z M679.5,502h2.2c1.6,0,2.8-0.2,3.5-0.5c0.7-0.3,1.4-0.9,2-1.7
			c0.9-1.2,1.6-2.9,2.2-4.9c0.6-2.1,0.9-4.5,0.9-7.2c0-2.4-0.2-4.1-0.7-5.3c-0.5-1.2-1.1-2-1.8-2.4c-0.5-0.3-1.4-0.4-2.7-0.4h-2.6
			L679.5,502L679.5,502z"/>
		<polygon class="st8" points="695.9,507.4 700.4,474 716.3,474 715.5,479.6 704,479.6 703,487.2 714.1,487.2 713.4,492.8 
			702.3,492.8 700.9,501.8 713.4,501.8 712.6,507.4 695.9,507.4 		"/>
		<polygon class="st8" points="716,507.4 720.5,474 724.9,474 721.1,501.8 732,501.8 731.3,507.4 716,507.4 		"/>
		<polygon class="st8" points="742.4,507.4 746.9,474 761.9,474 761.2,479.6 750.6,479.6 749.5,487.6 759.9,487.6 759.1,493.2 
			748.7,493.2 746.8,507.4 742.4,507.4 		"/>
		<path class="st8" d="M765.3,474h4.4l-2.4,18.1l-0.6,4.5c0,0.4-0.1,0.7-0.1,1.1c0,1.3,0.3,2.4,0.9,3.3c0.6,0.9,1.5,1.3,2.7,1.3
			c1.1,0,1.9-0.3,2.6-0.9c0.7-0.6,1.2-1.5,1.6-2.8c0.4-1.2,0.8-3.3,1.2-6.2l2.5-18.2h4.4l-2.4,18.3c-0.5,3.8-1.1,6.8-1.8,8.8
			c-0.7,2-1.7,3.7-3.1,5c-1.4,1.3-3.1,1.9-5.2,1.9c-2.5,0-4.4-0.9-5.7-2.8c-1.3-1.9-2-4.3-2-7.3c0-0.6,0-1.3,0.1-2
			c0-0.5,0.2-1.9,0.5-4.1L765.3,474L765.3,474z"/>
		<path class="st8" d="M783.8,494.3c0-2,0.2-4,0.6-6.2c0.5-2.9,1.3-5.5,2.3-7.6c1-2.2,2.3-3.9,3.9-5.1c1.5-1.3,3.3-1.9,5.3-1.9
			c2.7,0,4.8,1.3,6.4,3.8c1.6,2.6,2.5,6,2.5,10.2c0,3.5-0.5,6.9-1.6,10.2c-1.1,3.3-2.5,5.8-4.3,7.6c-1.8,1.8-3.9,2.7-6.2,2.7
			c-2,0-3.7-0.7-5-2.1c-1.3-1.4-2.3-3.2-2.9-5.2C784.1,498.5,783.8,496.4,783.8,494.3L783.8,494.3z M788.2,494.2
			c0,2.3,0.5,4.2,1.3,5.8c0.9,1.5,2.1,2.3,3.5,2.3c1.2,0,2.3-0.6,3.4-1.8c1.1-1.2,2-3.1,2.7-5.6c0.7-2.5,1.1-4.9,1.1-7.2
			c0-2.6-0.5-4.7-1.4-6.2c-0.9-1.5-2.1-2.2-3.5-2.2c-2.1,0-3.9,1.6-5.3,4.7C788.8,487,788.2,490.4,788.2,494.2L788.2,494.2z"/>
		<path class="st8" d="M821.3,495.4l4.4,1.1c-0.9,3.7-2.2,6.6-3.9,8.6c-1.7,2-3.8,3-6.1,3c-2.6,0-4.7-1.2-6.2-3.7
			c-1.5-2.5-2.2-6-2.2-10.7c0-3.8,0.5-7.3,1.5-10.4c1-3.1,2.4-5.6,4.1-7.2c1.8-1.7,3.7-2.5,5.7-2.5c2.3,0,4.2,1,5.6,2.9
			c1.4,1.9,2.3,4.6,2.5,7.9l-4.2,0.6c-0.2-1.9-0.7-3.3-1.3-4.2c-0.7-0.9-1.6-1.3-2.7-1.3c-1.2,0-2.4,0.6-3.4,1.7
			c-1.1,1.2-1.9,3-2.5,5.4c-0.6,2.4-0.9,4.9-0.9,7.3c0,2.7,0.4,4.7,1.2,6.2c0.8,1.5,1.9,2.2,3.1,2.2c1.1,0,2.2-0.6,3.1-1.7
			C820.1,499.3,820.8,497.6,821.3,495.4L821.3,495.4z"/>
		<path class="st8" d="M828.7,494.3c0-2,0.2-4,0.6-6.2c0.5-2.9,1.3-5.5,2.3-7.6c1-2.2,2.3-3.9,3.9-5.1c1.5-1.3,3.3-1.9,5.3-1.9
			c2.7,0,4.8,1.3,6.4,3.8c1.6,2.6,2.5,6,2.5,10.2c0,3.5-0.5,6.9-1.6,10.2c-1.1,3.3-2.5,5.8-4.3,7.6c-1.8,1.8-3.9,2.7-6.2,2.7
			c-2,0-3.7-0.7-5-2.1c-1.4-1.4-2.3-3.2-2.9-5.2C829,498.5,828.7,496.4,828.7,494.3L828.7,494.3z M833.1,494.2
			c0,2.3,0.5,4.2,1.3,5.8c0.9,1.5,2.1,2.3,3.5,2.3c1.2,0,2.3-0.6,3.4-1.8c1.1-1.2,2-3.1,2.7-5.6c0.7-2.5,1.1-4.9,1.1-7.2
			c0-2.6-0.5-4.7-1.4-6.2c-0.9-1.5-2.1-2.2-3.5-2.2c-2.1,0-3.9,1.6-5.3,4.7C833.8,487,833.1,490.4,833.1,494.2L833.1,494.2z"/>
	</g>
</g>
</svg>
