<?xml version="1.0" encoding="utf-8"?>
<!-- Generator: Adobe Illustrator 19.2.0, SVG Export Plug-In . SVG Version: 6.00 Build 0)  -->
<svg version="1.1" id="Livello_1" xmlns="http://www.w3.org/2000/svg" xmlns:xlink="http://www.w3.org/1999/xlink" x="0px" y="0px"
	 viewBox="0 0 960 960" style="enable-background:new 0 0 960 960;" xml:space="preserve">
<style type="text/css">
	.st0{fill-rule:evenodd;clip-rule:evenodd;fill:#FFFFFF;}
	.st1{fill-rule:evenodd;clip-rule:evenodd;fill:#CECFD1;}
	.st2{fill-rule:evenodd;clip-rule:evenodd;fill:#FFEC00;stroke:#1A171B;stroke-width:1.2686;stroke-miterlimit:2.6131;}
	.st3{fill-rule:evenodd;clip-rule:evenodd;fill:#FFFFFF;stroke:#1A171B;stroke-width:1.2686;stroke-miterlimit:2.6131;}
	.st4{fill:none;stroke:#1A171B;stroke-width:1.6914;stroke-miterlimit:2.6131;}
	.st5{fill-rule:evenodd;clip-rule:evenodd;fill:#3D3D3F;stroke:#1A171B;stroke-width:1.2686;stroke-miterlimit:2.6131;}
	.st6{fill-rule:evenodd;clip-rule:evenodd;fill:#1A171B;}
	.st7{fill-rule:evenodd;clip-rule:evenodd;fill:#00A6E2;stroke:#1A171B;stroke-width:1.2686;stroke-miterlimit:2.6131;}
	
		.st8{fill-rule:evenodd;clip-rule:evenodd;fill:#E43417;stroke:#1A171B;stroke-width:1.2686;stroke-linecap:square;stroke-miterlimit:2.6131;}
	
		.st9{fill-rule:evenodd;clip-rule:evenodd;fill:#FFFFFF;stroke:#1A171B;stroke-width:1.2686;stroke-linecap:square;stroke-miterlimit:2.6131;}
	.st10{fill:none;stroke:#1A171B;stroke-width:4.2286;stroke-linecap:square;stroke-miterlimit:2.6131;}
	.st11{fill:none;stroke:#1A171B;stroke-width:1.2686;stroke-linecap:square;stroke-miterlimit:2.6131;}
	.st12{fill-rule:evenodd;clip-rule:evenodd;fill:#049853;}
	.st13{fill:none;stroke:#1A171B;stroke-width:2.1143;stroke-linecap:square;stroke-miterlimit:2.6131;}
	.st14{fill:none;stroke:#1A171B;stroke-width:1.2686;stroke-miterlimit:2.6131;}
	
		.st15{fill:none;stroke:#1A171B;stroke-width:4.2286;stroke-linecap:square;stroke-miterlimit:2.6131;stroke-dasharray:21.143,21.143;}
</style>
<g>
	<g>
		<polygon class="st0" points="273.5,355 99.9,355 99.9,605 273.5,605.1 273.5,840 686.5,840 686.5,605 860.1,605 860.1,355 
			686.5,355 686.5,120.1 273.5,120.1 273.5,355 		"/>
		<path class="st1" d="M294.2,120.1H664v227.7c0,20.7,7.4,28.1,30,28.1h166.2v208.3H694c-22.5,0-30,7-30,27.8v228H294.2V612
			c0-20.9-7.2-27.8-28-27.8H99.9V375.9h166.3c20.8,0,28-7.2,28-28.1V120.1L294.2,120.1z"/>
		<path class="st2" d="M814,401.7c-10.7-1.6-25.4-3.8-41.1-4c-12.5,0-25.1,0-37.8,0c-16.5,1.1-29.7,0.6-42.4,4.6
			c-2.5,0.6-8.4,4.2-8.4,8.5v32c0,5.1,6.6,6.6,8.4,7c12.7,3,25.9,4.3,42.3,4.3H773c14.9,0,29.7-1.6,41-3.7c3.1-0.6,8.6-1.3,8.6-8
			v-32.3C822.6,401.3,818.5,402.3,814,401.7L814,401.7z"/>
		<path class="st3" d="M737.7,405.6l-13.9-2.2c-5.4,15.3-5,28.9,0,45.1l13.9-2C734.2,430.4,733.9,422.6,737.7,405.6L737.7,405.6z"/>
		<path class="st3" d="M796.5,406.5l-8.6,2.9c2.1,11.5,2.1,22.7,0.2,33.6l8.4,3C798.8,433.2,798.5,419.6,796.5,406.5L796.5,406.5z"
			/>
		<line class="st4" x1="782.9" y1="403.1" x2="743" y2="403.3"/>
		<line class="st4" x1="782.9" y1="448.7" x2="743" y2="448.9"/>
		<path class="st3" d="M592.3,799.1c-1.6-10.7-3.8-25.4-4-41.1c0-12.5,0-25.1,0-37.8c1.1-16.5,0.6-29.7,4.6-42.4
			c0.6-2.5,4.2-8.4,8.5-8.4h32c5.1,0,6.6,6.6,7,8.4c3,12.7,4.3,25.9,4.3,42.3v38.1c0,14.9-1.6,29.7-3.7,41c-0.6,3.1-1.3,8.6-8,8.6
			h-32.3C592,807.7,593,803.6,592.3,799.1L592.3,799.1z"/>
		<path class="st3" d="M596.3,722.8l-2.2-13.9c15.3-5.4,28.9-4.9,45.1,0l-2,13.9C621,719.3,613.2,719,596.3,722.8L596.3,722.8z"/>
		<path class="st3" d="M597.1,781.6l2.9-8.6c11.5,2.1,22.7,2.1,33.6,0.2l3,8.4C623.9,783.9,610.3,783.6,597.1,781.6L597.1,781.6z"/>
		<line class="st4" x1="593.8" y1="768" x2="593.9" y2="728.1"/>
		<line class="st4" x1="639.4" y1="768" x2="639.5" y2="728.1"/>
		<polygon class="st5" points="554.2,425.1 584.8,432.1 584.8,418.2 554.2,425.1 		"/>
		<polygon class="st5" points="616.8,461.7 609.8,492.3 623.7,492.3 616.8,461.7 		"/>
		<polygon class="st5" points="345.1,496.1 352.1,465.5 338.1,465.5 345.1,496.1 		"/>
		<polygon class="st5" points="345.1,659.8 352.1,629.2 338.1,629.2 345.1,659.8 		"/>
		<path class="st6" d="M785.1,516.1h-10.3l-4.1-10.7H752l-3.9,10.7h-10l18.3-46.9h10L785.1,516.1L785.1,516.1z M767.7,497.5
			l-6.5-17.4l-6.3,17.4H767.7L767.7,497.5z"/>
		<polygon class="st6" points="535,762.3 535,715.4 544.5,715.4 544.5,733.8 563.1,733.8 563.1,715.4 572.5,715.4 572.5,762.3 
			563.1,762.3 563.1,741.8 544.5,741.8 544.5,762.3 535,762.3 		"/>
		<path class="st6" d="M432,235.9l9.2,2.9c-1.4,5.1-3.7,8.9-7,11.4c-3.3,2.5-7.4,3.7-12.5,3.7c-6.2,0-11.3-2.1-15.4-6.4
			c-4-4.3-6-10.1-6-17.5c0-7.8,2-13.9,6.1-18.2c4-4.3,9.3-6.5,15.9-6.5c5.7,0,10.4,1.7,14,5.1c2.1,2,3.7,4.9,4.8,8.6l-9.4,2.2
			c-0.5-2.4-1.7-4.4-3.5-5.8c-1.8-1.4-3.9-2.1-6.4-2.1c-3.5,0-6.3,1.2-8.5,3.7c-2.2,2.5-3.2,6.5-3.2,12.1c0,5.9,1.1,10.2,3.2,12.7
			c2.1,2.5,4.9,3.8,8.3,3.8c2.5,0,4.7-0.8,6.5-2.4C429.9,241.9,431.2,239.4,432,235.9L432,235.9z"/>
		<path class="st6" d="M190.2,445.5h17.3c3.9,0,6.9,0.3,8.9,0.9c2.8,0.8,5.1,2.3,7.1,4.3c2,2.1,3.5,4.6,4.5,7.6
			c1,3,1.5,6.7,1.5,11.1c0,3.9-0.5,7.2-1.4,10c-1.2,3.4-2.8,6.2-5,8.3c-1.6,1.6-3.9,2.9-6.7,3.7c-2.1,0.7-4.9,1-8.4,1h-17.8V445.5
			L190.2,445.5z M199.7,453.5v31.1h7.1c2.6,0,4.6-0.1,5.7-0.4c1.5-0.4,2.8-1,3.8-1.9c1-0.9,1.8-2.4,2.5-4.5c0.6-2.1,1-5,1-8.6
			c0-3.6-0.3-6.4-1-8.3c-0.6-1.9-1.5-3.5-2.7-4.5c-1.2-1.1-2.6-1.8-4.4-2.2c-1.3-0.3-3.9-0.4-7.8-0.4H199.7L199.7,453.5z"/>
		<path class="st7" d="M147.2,510.2c10.7-1.6,25.4-3.8,41.1-4c12.5,0,25.1,0,37.8,0c16.5,1.1,29.7,0.6,42.4,4.6
			c2.5,0.6,8.4,4.2,8.4,8.5v32c0,5.1-6.6,6.6-8.4,7c-12.7,3-25.9,4.3-42.3,4.3h-38.1c-14.9,0-29.7-1.6-41-3.7
			c-3.1-0.6-8.6-1.3-8.6-8v-32.3C138.6,509.9,142.7,510.9,147.2,510.2L147.2,510.2z"/>
		<path class="st3" d="M223.5,514.2l13.9-2.2c5.4,15.3,5,28.9,0,45.1l-13.9-2C226.9,539,227.3,531.2,223.5,514.2L223.5,514.2z"/>
		<path class="st3" d="M164.7,515l8.6,2.9c-2.1,11.5-2.1,22.7-0.2,33.6l-8.4,3C162.4,541.8,162.7,528.2,164.7,515L164.7,515z"/>
		<line class="st4" x1="178.2" y1="511.7" x2="218.2" y2="511.8"/>
		<line class="st4" x1="178.2" y1="557.3" x2="218.2" y2="557.5"/>
		<polygon class="st8" points="313,146.5 313,154.6 378,154.6 378,146.5 313,146.5 		"/>
		<path class="st8" d="M384,282.9v-26c0-1.1-1.1-1.9-2.4-1.9c-1.3,0-2.4,1.2-2.4,1.9v27.7C379.3,284.6,384,284.8,384,282.9
			L384,282.9z"/>
		<path class="st8" d="M307.3,282.9v-26c0-1.1,1.1-1.9,2.4-1.9c1.3,0,2.4,1.2,2.4,1.9v27.7C312,284.6,307.3,284.8,307.3,282.9
			L307.3,282.9z"/>
		<path class="st8" d="M309.6,305.7h71.9v2.4c0,3.9-3.2,7.1-7.1,7.1h-57.7c-3.9,0-7.1-3.2-7.1-7.1V305.7L309.6,305.7z"/>
		<path class="st8" d="M312,305.8v-41.6h67.2v41.6c0,3.2-2.6,6-6,6H318C314.6,311.8,312,309.2,312,305.8L312,305.8z"/>
		<path class="st8" d="M316.4,293.1v-21.1c0-1.6,1.9-2.9,4.5-2.9h49.5c2.5,0,4.6,1.3,4.6,2.9v21.1c0,1.6-2.1,2.7-4.6,2.9
			c-16.6,1.4-33,1.3-49.5,0C318.3,295.8,316.4,294.6,316.4,293.1L316.4,293.1z"/>
		<path class="st9" d="M314.8,304.9c0.8-0.9,3.5-5.6,4.3-5.5c16.4,2.3,36.8,2.4,53.7,0c0.3-0.1,2.8,4.8,3.6,5.5
			c0.9,0.9-1.6,2.9-3.2,3c-18.3,1.4-36.8,1.4-55,0C316.2,307.7,313.8,306,314.8,304.9L314.8,304.9z"/>
		<path class="st8" d="M384,186.6v-26c0-1.1-1.1-1.9-2.4-1.9c-1.3,0-2.4,1.9-2.4,1.9v27.7C379.3,188.3,384,188.5,384,186.6
			L384,186.6z"/>
		<path class="st8" d="M307.3,186.6v-26c0-1.1,1.1-1.9,2.4-1.9c1.3,0,2.4,1.9,2.4,1.9v27.7C312,188.3,307.3,188.5,307.3,186.6
			L307.3,186.6z"/>
		<polygon class="st8" points="309.6,264.3 309.6,148.9 381.6,148.9 381.6,264.3 309.6,264.3 		"/>
		<polygon class="st8" points="314.4,259 314.4,154.2 376.8,154.2 376.8,259 314.4,259 		"/>
		<polygon class="st8" points="326.7,259 326.7,154.2 364.6,154.2 364.6,259 326.7,259 		"/>
		<polygon class="st8" points="339.3,259 339.3,154.2 351.9,154.2 351.9,259 339.3,259 		"/>
		<path class="st10" d="M99.9,605l173.6,0.1V840 M686.5,840V605h173.6 M860.1,355H686.5V120.1 M273.5,120.1V355H99.9"/>
		<path class="st11" d="M664,120.1v227.7c0,20.7,7.4,28.1,30,28.1h166.2 M860.1,584.2H694c-22.5,0-30,7-30,27.8v228 M294.2,840V612
			c0-20.9-7.2-27.8-28-27.8H99.9 M99.9,375.9h166.3c20.8,0,28-7.2,28-28.1V120.1"/>
		<path class="st12" d="M464,120h30.2v219.9c0,8.3-6.8,15.1-15.1,15.1c-8.3,0-15.1-6.8-15.1-15.1V120L464,120z"/>
		<path class="st13" d="M494.2,120.1v219.8c0,8.3-6.8,15.1-15.1,15.1c-8.3,0-15.1-6.8-15.1-15.1V120"/>
		<path class="st14" d="M489.3,120v214.9c-0.4,9-4.6,14.1-10.2,14.1c-5.6,0-10.2-5.1-10.2-14.1V120"/>
		<path class="st12" d="M464,840h30.2V620.1c0-8.3-6.8-15.1-15.1-15.1c-8.3,0-15.1,6.8-15.1,15.1V840L464,840z"/>
		<path class="st13" d="M494.2,839.9V620.1c0-8.3-6.8-15.1-15.1-15.1c-8.3,0-15.1,6.8-15.1,15.1V840"/>
		<path class="st14" d="M489.3,840V625.1c-0.4-9-4.6-14.1-10.2-14.1c-5.6,0-10.2,5.1-10.2,14.1V840"/>
		<line class="st15" x1="345.1" y1="322.7" x2="345.1" y2="460.4"/>
		<path class="st15" d="M281,535c37.7,0.1,64,23,64.1,89.6"/>
		<line class="st15" x1="680.3" y1="425.1" x2="587.3" y2="425.1"/>
		<line class="st15" x1="616.8" y1="666.3" x2="617.4" y2="495.9"/>
	</g>
</g>
</svg>
