<?xml version="1.0" encoding="utf-8"?>
<!-- Generator: Adobe Illustrator 19.2.0, SVG Export Plug-In . SVG Version: 6.00 Build 0)  -->
<svg version="1.1" id="Livello_1" xmlns="http://www.w3.org/2000/svg" xmlns:xlink="http://www.w3.org/1999/xlink" x="0px" y="0px"
	 viewBox="0 0 960 960" style="enable-background:new 0 0 960 960;" xml:space="preserve">
<style type="text/css">
	.st0{fill-rule:evenodd;clip-rule:evenodd;fill:#FFFFFF;}
	.st1{fill-rule:evenodd;clip-rule:evenodd;fill:#CECFD1;}
	.st2{fill-rule:evenodd;clip-rule:evenodd;fill:#3D3D3F;stroke:#1A171B;stroke-width:1.2923;stroke-miterlimit:2.6131;}
	.st3{fill-rule:evenodd;clip-rule:evenodd;fill:#FFFFFF;stroke:#1A171B;stroke-width:1.2923;stroke-miterlimit:2.6131;}
	.st4{fill:none;stroke:#FFFFFF;stroke-width:1.7231;stroke-miterlimit:2.6131;}
	.st5{fill-rule:evenodd;clip-rule:evenodd;fill:#1A171B;}
	.st6{fill-rule:evenodd;clip-rule:evenodd;fill:#00A6E2;stroke:#1A171B;stroke-width:1.2923;stroke-miterlimit:2.6131;}
	.st7{fill:none;stroke:#1A171B;stroke-width:1.7231;stroke-miterlimit:2.6131;}
	.st8{fill-rule:evenodd;clip-rule:evenodd;fill:#E43417;stroke:#1A171B;stroke-width:1.2923;stroke-miterlimit:2.6131;}
	.st9{fill:none;stroke:#1A171B;stroke-width:4.3078;stroke-miterlimit:2.6131;}
	.st10{fill:none;stroke:#1A171B;stroke-width:1.2923;stroke-miterlimit:2.6131;}
	.st11{fill-rule:evenodd;clip-rule:evenodd;fill:#E1001A;}
	.st12{fill-rule:evenodd;clip-rule:evenodd;fill:#FFFFFF;stroke:#E1001A;stroke-width:4.3078;stroke-miterlimit:2.6131;}
	.st13{fill:none;stroke:#1A171B;stroke-width:4.3078;stroke-linecap:square;stroke-miterlimit:2.6131;}
	
		.st14{fill:none;stroke:#1A171B;stroke-width:4.3078;stroke-linecap:square;stroke-miterlimit:2.6131;stroke-dasharray:21.5389,21.5389;}
	.st15{fill-rule:evenodd;clip-rule:evenodd;fill:#049853;stroke:#1A171B;stroke-width:1.2923;stroke-miterlimit:2.6131;}
</style>
<g>
	<g>
		<polygon class="st0" points="297.1,120 588.7,120 588.7,302.8 867.2,302.8 867.2,619.8 588.7,619.8 588.7,840 297.1,840 
			297.1,619.8 92.8,619.8 92.8,302.8 297.1,302.8 297.1,120 		"/>
		<path class="st1" d="M321.2,120h243.3v173.1c0,24.3,9.6,34,33.8,34h268.9v268.6H598.3c-23.7,0-33.8,9.6-33.8,33.8v210.5H321.3
			l-0.1-210.5c0-24.2-9.4-33.8-33.4-33.8h-195V327.1h195c24.1,0,33.4-10.1,33.4-34V120L321.2,120z"/>
		<path class="st2" d="M498.4,792.7c-1.6-10.4-3.7-24.7-3.9-40c0-12.2,0-24.4,0-36.8c1.1-16.1,0.6-28.9,4.5-41.3
			c0.6-2.4,4-8.2,8.2-8.2h31.1c5,0,6.4,6.4,6.8,8.2c3,12.4,4.2,25.2,4.2,41.1v37.1c0,14.4-1.6,28.9-3.6,39.8c-0.6,3-1.2,8.3-7.8,8.3
			h-31.4C498.1,801.1,499.1,797.1,498.4,792.7L498.4,792.7z"/>
		<path class="st3" d="M502.3,718.6l-2.1-13.5c14.8-5.3,28.1-4.8,43.9,0l-1.9,13.5C526.4,715.2,518.8,714.9,502.3,718.6L502.3,718.6
			z"/>
		<path class="st3" d="M503.1,775.7l2.8-8.3c11.2,2.1,22.1,2.1,32.7,0.2l3,8.2C529.1,778,515.9,777.6,503.1,775.7L503.1,775.7z"/>
		<line class="st4" x1="499.8" y1="762.6" x2="500" y2="723.7"/>
		<line class="st4" x1="544.2" y1="762.6" x2="544.3" y2="723.7"/>
		<polygon class="st2" points="661.1,558.3 631,551.4 631,565.1 661.1,558.3 		"/>
		<polygon class="st2" points="521.7,186.9 514.9,217 528.6,217 521.7,186.9 		"/>
		<polygon class="st2" points="429.5,525.7 447.8,500.8 435.3,495.3 429.5,525.7 		"/>
		<path class="st5" d="M329.9,198.9H346c3.2,0,5.6,0.1,7.1,0.5c1.6,0.3,3,0.9,4.2,1.9c1.2,1,2.3,2.2,3.1,3.8
			c0.8,1.6,1.2,3.4,1.2,5.3c0,2.1-0.5,4.1-1.5,5.9c-1,1.8-2.4,3.1-4.1,4c2.4,0.8,4.3,2.2,5.7,4.1c1.3,2,2,4.2,2,6.9
			c0,2.1-0.4,4.1-1.3,6.1c-0.9,2-2,3.5-3.5,4.7c-1.5,1.2-3.3,1.9-5.5,2.2c-1.4,0.2-4.6,0.3-9.8,0.3h-13.7V198.9L329.9,198.9z
			 M338,206.4V217h5.3c3.2,0,5.1-0.1,5.9-0.2c1.4-0.2,2.5-0.7,3.3-1.6c0.8-0.9,1.2-2.1,1.2-3.6c0-1.4-0.3-2.6-1-3.4
			c-0.7-0.9-1.7-1.4-3.1-1.6c-0.8-0.1-3.1-0.2-7-0.2H338L338,206.4z M338,224.6v12.2h7.5c2.9,0,4.8-0.1,5.6-0.3
			c1.2-0.2,2.2-0.9,3-1.8c0.8-1,1.1-2.3,1.1-3.9c0-1.4-0.3-2.5-0.9-3.5c-0.6-1-1.4-1.7-2.5-2.1c-1.1-0.4-3.5-0.6-7.2-0.6H338
			L338,224.6z"/>
		<path class="st5" d="M196.8,505.3v-7.7h17.7v18.2c-1.7,1.9-4.2,3.5-7.5,4.9c-3.3,1.4-6.6,2.1-9.9,2.1c-4.3,0-8-1-11.1-3
			c-3.2-2-5.6-4.9-7.1-8.6c-1.6-3.7-2.4-7.8-2.4-12.1c0-4.7,0.9-9,2.7-12.7c1.8-3.7,4.4-6.5,7.8-8.5c2.6-1.5,5.9-2.3,9.8-2.3
			c5.1,0,9,1.2,11.8,3.6c2.8,2.4,4.7,5.7,5.5,9.9l-8.2,1.7c-0.6-2.2-1.7-4-3.2-5.3c-1.6-1.3-3.6-1.9-5.9-1.9c-3.6,0-6.5,1.3-8.6,3.8
			c-2.1,2.6-3.2,6.3-3.2,11.4c0,5.4,1.1,9.5,3.2,12.2c2.1,2.7,5,4.1,8.4,4.1c1.7,0,3.5-0.4,5.2-1.1c1.7-0.8,3.2-1.7,4.5-2.7v-5.8
			H196.8L196.8,505.3z"/>
		<polygon class="st5" points="711.1,384.6 711.1,346.7 699.2,346.7 699.2,339 731,339 731,346.7 719.2,346.7 719.2,384.6 
			711.1,384.6 		"/>
		<path class="st5" d="M601.1,818v-45.6h13.6c5.2,0,8.5,0.2,10.1,0.7c2.4,0.7,4.4,2.2,6.1,4.5c1.6,2.3,2.4,5.3,2.4,8.9
			c0,2.8-0.5,5.2-1.4,7.1c-0.9,1.9-2.1,3.4-3.6,4.5c-1.4,1.1-2.9,1.8-4.4,2.2c-2,0.4-5,0.7-8.8,0.7h-5.5V818H601.1L601.1,818z
			 M609.6,780.2v12.9h4.6c3.4,0,5.6-0.2,6.7-0.7c1.1-0.5,2-1.2,2.7-2.2c0.6-1,1-2.2,1-3.5c0-1.7-0.4-3-1.4-4.1c-0.9-1.1-2-1.8-3.4-2
			c-1-0.2-3.1-0.3-6.1-0.3H609.6L609.6,780.2z"/>
		<path class="st6" d="M422.7,166.3c1.6,10.4,3.7,24.7,3.9,40c0,12.2,0,24.4,0,36.8c-1.1,16.1-0.6,28.9-4.5,41.3
			c-0.6,2.4-4,8.2-8.2,8.2h-31.1c-5,0-6.4-6.4-6.8-8.2c-3-12.4-4.2-25.2-4.2-41.1v-37.1c0-14.4,1.6-28.9,3.6-39.8
			c0.6-3.1,1.2-8.3,7.8-8.3h31.4C423.1,158,422.1,162,422.7,166.3L422.7,166.3z"/>
		<path class="st3" d="M418.9,240.5L421,254c-14.8,5.3-28.1,4.8-43.9,0l1.9-13.5C394.8,243.8,402.4,244.2,418.9,240.5L418.9,240.5z"
			/>
		<path class="st3" d="M418.1,183.3l-2.8,8.3c-11.2-2.1-22.1-2.1-32.7-0.2l-3-8.2C392.1,181.1,405.3,181.4,418.1,183.3L418.1,183.3z
			"/>
		<line class="st7" x1="421.3" y1="196.5" x2="421.2" y2="235.3"/>
		<line class="st7" x1="377" y1="196.5" x2="376.9" y2="235.3"/>
		<path class="st8" d="M139.7,534.9c10.4-1.6,24.7-3.7,40-3.9c12.2,0,24.4,0,36.8,0c16.1,1.1,28.9,0.6,41.3,4.5
			c2.4,0.6,8.2,4,8.2,8.2v31.1c0,5-6.4,6.4-8.2,6.8c-12.4,3-25.2,4.2-41.1,4.2h-37.1c-14.4,0-28.9-1.6-39.8-3.6
			c-3-0.6-8.3-1.2-8.3-7.8v-31.4C131.3,534.6,135.3,535.5,139.7,534.9L139.7,534.9z"/>
		<path class="st3" d="M213.8,538.8l13.5-2.1c5.3,14.8,4.8,28.1,0,43.9l-13.5-1.9C217.2,562.8,217.5,555.3,213.8,538.8L213.8,538.8z
			"/>
		<path class="st3" d="M156.7,539.6l8.3,2.8c-2.1,11.2-2.1,22.1-0.2,32.7l-8.2,3C154.4,565.6,154.8,552.3,156.7,539.6L156.7,539.6z"
			/>
		<line class="st7" x1="169.9" y1="536.3" x2="208.7" y2="536.5"/>
		<line class="st7" x1="169.9" y1="580.6" x2="208.7" y2="580.8"/>
		<polygon class="st0" points="467,596.3 484.8,596.3 475.9,620.4 467,596.3 		"/>
		<polygon class="st0" points="522.3,596.3 540.1,596.3 531.2,620.4 522.3,596.3 		"/>
		<polygon class="st0" points="550,596.3 567.8,596.3 558.9,620.4 550,596.3 		"/>
		<polygon class="st0" points="439.4,596.3 457.1,596.3 448.3,620.4 439.4,596.3 		"/>
		<polygon class="st0" points="494.7,596.3 512.5,596.3 503.6,620.4 494.7,596.3 		"/>
		<polygon class="st0" points="346.4,326.8 364.2,326.8 355.3,302.7 346.4,326.8 		"/>
		<polygon class="st0" points="401.7,326.8 419.5,326.8 410.6,302.7 401.7,326.8 		"/>
		<polygon class="st0" points="429.4,326.8 447.2,326.8 438.3,302.7 429.4,326.8 		"/>
		<polygon class="st0" points="318.7,326.8 336.5,326.8 327.6,302.7 318.7,326.8 		"/>
		<polygon class="st0" points="374,326.8 391.8,326.8 382.9,302.7 374,326.8 		"/>
		<path class="st9" d="M92.8,302.8h204.3V120 M588.7,120v182.8h278.5 M867.2,619.8H588.7V840 M297.1,840V619.8H92.8"/>
		<path class="st10" d="M92.8,327.2h195c24.1,0,33.4-10.1,33.4-34V120 M564.5,120v173.2c0,24.3,9.6,34,33.8,34l268.9-0.1
			 M867.2,595.7H598.3c-23.7,0-33.8,9.6-33.8,33.8V840 M321.3,840l-0.1-210.5c0-24.2-9.4-33.8-33.4-33.8h-195"/>
		<path class="st9" d="M867.2,407.2H586.1c-107.7,0-178.4,70.9-178.4,188.4V840 M867.2,429.7H586.1c-97,0-156,66.9-156,166V840
			 M867.2,455.7H586.1c-81.4,0.3-130,52.1-130,139.9V840 M867.2,478.1H585.8c-64.1,0-107.4,40.8-107.4,117.5V840"/>
		<polygon class="st0" points="439,120 446.8,120 446.8,297.7 439,297.7 439,120 		"/>
		<polygon class="st0" points="439,624.8 446.8,624.8 446.8,840 439,840 439,624.8 		"/>
		<path class="st3" d="M213.8,290.4c-3.5-0.1-5.6-2.8-5-6.2l0.1-0.5l0.2-0.6l0.2-0.5l32.1-55.7c1.6-2.5,3.9-3.9,6.8-2.6
			c1.1,0.6,1.9,1.5,2.6,2.6l32,55.5c1.2,2.2,1.6,4.5-0.2,6.5c-1.4,1.5-3.2,1.7-5.1,1.7l-63,0H213.8L213.8,290.4z"/>
		<path class="st11" d="M214.6,288.8c-1,0-1.9,0.1-3-0.7c-1-0.8-2-2.7-0.9-4.9l32-55.6c1.8-3.1,5-3.1,6.7-0.1l32,55.4
			c0.7,1.2,1.2,2.9,0.5,4.1c-1,1.6-2.6,1.6-4.4,1.7L214.6,288.8L214.6,288.8z"/>
		<polygon class="st12" points="218.9,282.2 246.2,234.9 273.5,282.2 218.9,282.2 		"/>
		<path class="st3" d="M672,632.3c3.5,0.1,5.6,2.8,5,6.2l-0.1,0.5l-0.2,0.6l-0.2,0.5l-32.1,55.7c-1.6,2.5-3.9,3.9-6.8,2.6
			c-1.1-0.6-1.9-1.5-2.6-2.6l-32-55.5c-1.2-2.2-1.6-4.5,0.2-6.5c1.4-1.5,3.2-1.7,5.1-1.7l63,0H672L672,632.3z"/>
		<path class="st11" d="M671.2,634c1,0,1.9-0.1,3,0.6c1,0.8,2,2.7,0.9,4.9L643,695.1c-1.8,3.1-5,3.1-6.7,0.1l-32-55.4
			c-0.7-1.2-1.3-2.9-0.5-4.1c1-1.6,2.6-1.6,4.4-1.7L671.2,634L671.2,634z"/>
		<polygon class="st12" points="666.9,640.5 639.6,687.8 612.3,640.5 666.9,640.5 		"/>
		<line class="st13" x1="246.2" y1="223.5" x2="246.2" y2="168.6"/>
		<line class="st13" x1="639.6" y1="699.2" x2="639.6" y2="754.1"/>
		<path class="st14" d="M598.1,418.4c-86.2-2.6-127.9,33.2-156.1,78"/>
		<line class="st14" x1="269.7" y1="558.4" x2="628.5" y2="558.4"/>
		<polygon class="st15" points="601.8,405.4 633.9,392.3 798.6,392.3 830.8,405.4 830.8,431.3 798.1,444.3 633.8,444.3 601.8,431.3 
			601.8,405.4 		"/>
		<polygon class="st15" points="634.2,431.3 798.4,431.3 798.4,444.4 634.2,444.4 634.2,431.3 		"/>
		<polygon class="st15" points="634.2,392.4 798.4,392.4 798.4,405.5 634.2,405.5 634.2,392.4 		"/>
		<line class="st10" x1="606.9" y1="405.4" x2="825.7" y2="405.4"/>
		<line class="st10" x1="606.9" y1="418.4" x2="825.7" y2="418.4"/>
		<line class="st10" x1="606.9" y1="431.3" x2="825.7" y2="431.3"/>
		<polygon class="st0" points="671.3,432.3 665.6,432.3 670.4,409.2 662.3,409.2 663.3,404.6 685.2,404.6 684.2,409.2 676.2,409.2 
			671.3,432.3 		"/>
		<path class="st0" d="M688.8,432.3h-5.7l5.8-27.8h12.3c2.1,0,3.8,0.2,5,0.7c1.2,0.4,2.1,1.2,2.9,2.4c0.7,1.2,1.1,2.6,1.1,4.2
			c0,2.4-0.7,4.3-2.1,5.8c-1.4,1.5-3.6,2.5-6.4,2.9c0.7,0.7,1.4,1.5,2.1,2.6c1.3,2.2,2.7,5.2,4.3,9.2h-6.1c-0.5-1.6-1.5-4-2.9-7.3
			c-0.8-1.8-1.6-3-2.5-3.6c-0.5-0.4-1.5-0.5-2.8-0.5h-2.3L688.8,432.3L688.8,432.3z M692.1,416.7h3c3.1,0,5.1-0.2,6.1-0.5
			c1-0.4,1.8-0.9,2.4-1.7c0.6-0.8,0.8-1.6,0.8-2.5c0-1-0.4-1.8-1.2-2.3c-0.5-0.3-1.6-0.5-3.3-0.5h-6.3L692.1,416.7L692.1,416.7z"/>
		<path class="st0" d="M729.2,426.2h-11l-3.3,6.1h-5.9l15.7-27.8h6.4l4.5,27.8h-5.4L729.2,426.2L729.2,426.2z M728.5,421.6
			l-1.6-11.2l-6.7,11.2H728.5L728.5,421.6z"/>
		<polygon class="st0" points="755,432.3 749.5,432.3 748.5,409.1 744.1,432.3 739,432.3 744.8,404.6 752.9,404.6 753.8,424 
			763.2,404.6 771.5,404.6 765.7,432.3 760.4,432.3 765.9,409.3 755,432.3 		"/>
		<line class="st14" x1="521.8" y1="659.1" x2="521.8" y2="218.8"/>
		<path class="st14" d="M400.5,296c6.2,128.3,69.9,219.4,227.3,262.4"/>
	</g>
</g>
</svg>
