<?xml version="1.0" encoding="utf-8"?>
<!-- Generator: Adobe Illustrator 19.2.0, SVG Export Plug-In . SVG Version: 6.00 Build 0)  -->
<svg version="1.1" id="Livello_1" xmlns="http://www.w3.org/2000/svg" xmlns:xlink="http://www.w3.org/1999/xlink" x="0px" y="0px"
	 viewBox="0 0 960 960" style="enable-background:new 0 0 960 960;" xml:space="preserve">
<style type="text/css">
	.st0{fill-rule:evenodd;clip-rule:evenodd;fill:#FFFFFF;}
	.st1{fill-rule:evenodd;clip-rule:evenodd;fill:#CECFD1;}
	.st2{fill-rule:evenodd;clip-rule:evenodd;fill:#FFEC00;stroke:#1A171B;stroke-width:1.2877;stroke-miterlimit:2.6131;}
	.st3{fill-rule:evenodd;clip-rule:evenodd;fill:#FFFFFF;stroke:#1A171B;stroke-width:1.2877;stroke-miterlimit:2.6131;}
	.st4{fill:none;stroke:#1A171B;stroke-width:1.717;stroke-miterlimit:2.6131;}
	.st5{fill-rule:evenodd;clip-rule:evenodd;fill:#3D3D3F;stroke:#1A171B;stroke-width:1.2877;stroke-miterlimit:2.6131;}
	.st6{fill-rule:evenodd;clip-rule:evenodd;fill:#1A171B;}
	
		.st7{fill-rule:evenodd;clip-rule:evenodd;fill:#E43417;stroke:#1A171B;stroke-width:1.2877;stroke-linecap:square;stroke-miterlimit:2.6131;}
	
		.st8{fill-rule:evenodd;clip-rule:evenodd;fill:#FFFFFF;stroke:#1A171B;stroke-width:1.2877;stroke-linecap:square;stroke-miterlimit:2.6131;}
	.st9{fill:none;stroke:#1A171B;stroke-width:4.2924;stroke-linecap:square;stroke-miterlimit:2.6131;}
	.st10{fill:none;stroke:#1A171B;stroke-width:1.2877;stroke-linecap:square;stroke-miterlimit:2.6131;}
	.st11{fill-rule:evenodd;clip-rule:evenodd;fill:#00A6E2;stroke:#1A171B;stroke-width:1.2877;stroke-miterlimit:2.6131;}
	.st12{fill:none;stroke:#1A171B;stroke-width:1.2877;stroke-miterlimit:2.6131;}
	
		.st13{fill:none;stroke:#1A171B;stroke-width:4.2924;stroke-linecap:square;stroke-miterlimit:2.6131;stroke-dasharray:21.462,21.462;}
</style>
<g>
	<g>
		<polygon class="st0" points="290.1,653.8 94.2,653.8 94.2,347.1 290.1,347.1 290.1,120 570.9,120 570.9,347.1 865.8,347.1 
			865.8,653.8 570.9,653.8 570.9,840 290.1,840 290.1,653.8 		"/>
		<path class="st1" d="M313.1,120h234.8v219c0,22.5,7.3,31.1,30.3,31.1h287.6v260.7H578.2c-22.8,0-30.3,7.7-30.3,30.7v178.5H313.1
			V661.5c0-23-7.8-30.7-30.8-30.7H94.2V370.1h188.2c22.9,0,30.8-8.1,30.8-31.1V120L313.1,120z"/>
		<path class="st2" d="M483.8,796.4c-1.4-9.6-3.4-22.7-3.6-36.7c0-11.2,0-22.4,0-33.8c1-14.7,0.6-26.5,4.1-37.9
			c0.6-2.2,3.7-7.5,7.6-7.5h28.6c4.6,0,5.9,5.9,6.3,7.5c2.7,11.4,3.9,23.2,3.9,37.8v34.1c0,13.3-1.4,26.5-3.3,36.6
			c-0.6,2.8-1.1,7.7-7.1,7.7h-28.9C483.5,804.1,484.4,800.4,483.8,796.4L483.8,796.4z"/>
		<path class="st3" d="M487.4,728.3l-1.9-12.4c13.6-4.9,25.8-4.4,40.3,0l-1.8,12.4C509.5,725.2,502.5,724.9,487.4,728.3L487.4,728.3
			z"/>
		<path class="st3" d="M488.1,780.8l2.6-7.7c10.3,1.9,20.3,1.9,30,0.2l2.7,7.5C512,782.9,499.8,782.6,488.1,780.8L488.1,780.8z"/>
		<line class="st4" x1="485.1" y1="768.7" x2="485.3" y2="733"/>
		<line class="st4" x1="525.8" y1="768.7" x2="526" y2="733"/>
		<path class="st3" d="M137.7,569.9c9.6-1.4,22.7-3.4,36.7-3.6c11.2,0,22.4,0,33.8,0c14.7,1,26.6,0.6,37.9,4.1
			c2.2,0.6,7.5,3.7,7.5,7.6v28.6c0,4.6-5.9,5.9-7.5,6.3c-11.4,2.7-23.2,3.9-37.8,3.9h-34.1c-13.3,0-26.6-1.4-36.6-3.3
			c-2.8-0.6-7.7-1.1-7.7-7.1v-28.9C130.1,569.6,133.7,570.5,137.7,569.9L137.7,569.9z"/>
		<path class="st3" d="M205.9,573.5l12.4-1.9c4.9,13.6,4.4,25.8,0,40.3l-12.4-1.8C209,595.6,209.3,588.6,205.9,573.5L205.9,573.5z"
			/>
		<path class="st3" d="M153.4,574.2l7.7,2.6c-1.9,10.3-1.9,20.3-0.1,30l-7.5,2.7C151.3,598.1,151.6,585.9,153.4,574.2L153.4,574.2z"
			/>
		<line class="st4" x1="165.5" y1="571.2" x2="201.2" y2="571.4"/>
		<line class="st4" x1="165.5" y1="611.9" x2="201.2" y2="612.1"/>
		<polygon class="st5" points="668.8,587.9 640.1,581.4 640.1,594.4 668.8,587.9 		"/>
		<polygon class="st5" points="378.1,591.9 349.4,585.3 349.4,598.4 378.1,591.9 		"/>
		<polygon class="st5" points="370.4,747.4 382.2,720.5 369.4,718 370.4,747.4 		"/>
		<polygon class="st5" points="370.2,556.8 376.7,528.1 363.7,528.1 370.2,556.8 		"/>
		<polygon class="st6" points="433.5,760.1 433.5,715.2 442.7,715.2 442.7,752.4 465.4,752.4 465.4,760.1 433.5,760.1 		"/>
		<path class="st6" d="M686.8,590v-45.3H706c4.8,0,8.3,0.4,10.5,1.2c2.2,0.8,4,2.3,5.3,4.3c1.3,2.1,2,4.5,2,7.1c0,3.4-1,6.2-3,8.4
			c-2,2.2-5,3.6-9,4.2c2,1.2,3.6,2.4,4.9,3.8c1.3,1.4,3,3.8,5.2,7.3l5.5,8.8h-10.9l-6.6-9.9c-2.4-3.5-4-5.7-4.8-6.6
			c-0.9-0.9-1.8-1.5-2.8-1.9c-1-0.3-2.5-0.5-4.6-0.5h-1.8V590H686.8L686.8,590z M695.9,563.9h6.8c4.4,0,7.1-0.2,8.2-0.5
			c1.1-0.4,1.9-1,2.6-1.9c0.6-0.9,0.9-2,0.9-3.4c0-1.5-0.4-2.7-1.2-3.7c-0.8-0.9-2-1.5-3.4-1.8c-0.7-0.1-3-0.1-6.7-0.1h-7.1V563.9
			L695.9,563.9z"/>
		<polygon class="st6" points="176.7,555.1 176.7,509.9 210.2,509.9 210.2,517.5 185.8,517.5 185.8,527.6 208.5,527.6 208.5,535.2 
			185.8,535.2 185.8,547.5 211.1,547.5 211.1,555.1 176.7,555.1 		"/>
		<polygon class="st6" points="470.3,270.6 470.3,225.3 479.2,225.3 497.8,255.6 497.8,225.3 506.2,225.3 506.2,270.6 497.1,270.6 
			478.8,241.1 478.8,270.6 470.3,270.6 		"/>
		<polygon class="st7" points="333.3,155.2 333.3,163.9 403.2,163.9 403.2,155.2 333.3,155.2 		"/>
		<path class="st7" d="M409.6,301.7v-28c0-1.1-1.1-2.1-2.5-2.1c-1.4,0-2.5,1.3-2.5,2.1v29.7C404.5,303.6,409.6,303.8,409.6,301.7
			L409.6,301.7z"/>
		<path class="st7" d="M327.2,301.7v-28c0-1.1,1.1-2.1,2.5-2.1c1.4,0,2.5,1.3,2.5,2.1v29.7C332.3,303.6,327.2,303.8,327.2,301.7
			L327.2,301.7z"/>
		<path class="st7" d="M407,326.2v2.5c0,4.2-3.4,7.6-7.6,7.6h-62c-4.2,0-7.6-3.4-7.6-7.6v-2.5H407z"/>
		<path class="st7" d="M332.3,326.4v-44.7h72.2v44.7c0,3.4-2.8,6.4-6.4,6.4h-59.4C335.1,332.8,332.3,330,332.3,326.4L332.3,326.4z"
			/>
		<path class="st7" d="M337,312.6V290c0-1.7,2.1-3.1,4.8-3.1h53.2c2.7,0,4.9,1.4,4.9,3.1v22.7c0,1.7-2.3,2.9-4.9,3.1
			c-17.8,1.5-35.5,1.4-53.2,0C339,315.6,337,314.3,337,312.6L337,312.6z"/>
		<path class="st8" d="M335.3,325.3c0.8-0.9,3.8-6,4.6-6c17.6,2.5,39.5,2.6,57.7,0c0.3-0.1,3,5.1,3.9,6c0.9,1-1.7,3.1-3.5,3.2
			c-19.7,1.5-39.5,1.5-59.1,0C336.8,328.4,334.1,326.5,335.3,325.3L335.3,325.3z"/>
		<path class="st7" d="M409.6,198.3v-28c0-1.1-1.1-2.1-2.5-2.1c-1.4,0-2.5,2.1-2.5,2.1v29.7C404.5,200.1,409.6,200.4,409.6,198.3
			L409.6,198.3z"/>
		<path class="st7" d="M327.2,198.3v-28c0-1.1,1.1-2.1,2.5-2.1c1.4,0,2.5,2.1,2.5,2.1v29.7C332.3,200.1,327.2,200.4,327.2,198.3
			L327.2,198.3z"/>
		<polygon class="st7" points="329.7,281.8 329.7,157.7 407,157.7 407,281.8 329.7,281.8 		"/>
		<polygon class="st7" points="334.8,276 334.8,163.5 401.9,163.5 401.9,276 334.8,276 		"/>
		<polygon class="st7" points="348.1,276 348.1,163.5 388.7,163.5 388.7,276 348.1,276 		"/>
		<polygon class="st7" points="361.6,276 361.6,163.5 375.2,163.5 375.2,276 361.6,276 		"/>
		<path class="st9" d="M94.2,347.1h196V120 M570.9,120v227.1h294.8 M865.8,653.8H570.9V840 M290.1,840V653.8h-196"/>
		<path class="st10" d="M94.2,370.1l188.2,0.1c22.9,0,30.8-8.1,30.8-31.1V120 M547.9,120v219.1c0,22.5,7.3,31.1,30.3,31.1l287.6-0.1
			 M865.8,630.8H578.2c-22.8,0-30.3,7.7-30.3,30.7V840 M313.1,840V661.5c0-23-7.8-30.7-30.8-30.7l-188.2-0.1"/>
		<path class="st6" d="M452.8,325.3v4.8l-6.3,1.9v8.7l6.3,1.8v4.7l-27.7-8.5V334L452.8,325.3L452.8,325.3z M441.8,333.4l-10.3,3
			l10.3,2.9V333.4L441.8,333.4z"/>
		<path class="st6" d="M425,323v-4.4h15c2.4,0,3.9-0.1,4.6-0.2c1.1-0.2,2-0.6,2.7-1.3c0.7-0.7,1-1.7,1-2.9c0-1.3-0.3-2.2-1-2.8
			c-0.6-0.6-1.4-1-2.4-1.1c-1-0.1-2.5-0.2-4.7-0.2l-15.3,0v-4.4h14.6c3.3,0,5.7,0.1,7.1,0.4c1.4,0.2,2.5,0.7,3.5,1.3
			c0.9,0.6,1.7,1.5,2.3,2.6c0.6,1.1,0.8,2.5,0.8,4.2c0,2.1-0.3,3.7-0.9,4.7c-0.6,1.1-1.4,1.9-2.4,2.6c-1,0.6-2,1-3.1,1.2
			c-1.6,0.3-3.9,0.4-7,0.4L425,323L425,323z"/>
		<polygon class="st6" points="452.8,296 429.7,296 429.7,302.5 425,302.5 425,285.1 429.7,285.1 429.7,291.6 452.8,291.6 
			452.8,296 		"/>
		<path class="st6" d="M439.1,283.7c-2.8,0-5.2-0.3-7.1-1c-1.4-0.5-2.7-1.2-3.8-2c-1.1-0.9-2-1.8-2.5-2.8c-0.7-1.4-1.1-2.9-1.1-4.7
			c0-3.2,1.3-5.8,3.8-7.7c2.5-1.9,6.1-2.9,10.6-2.9c4.5,0,8,1,10.5,2.9c2.5,1.9,3.8,4.5,3.8,7.7c0,3.2-1.3,5.8-3.8,7.7
			C447,282.7,443.5,283.7,439.1,283.7L439.1,283.7z M438.9,279.2c3.1,0,5.5-0.6,7.1-1.7c1.6-1.1,2.4-2.6,2.4-4.4
			c0-1.8-0.8-3.2-2.4-4.3c-1.6-1.1-4-1.7-7.2-1.7c-3.2,0-5.5,0.6-7.1,1.6c-1.6,1.1-2.3,2.6-2.3,4.4c0,1.8,0.8,3.3,2.4,4.4
			C433.3,278.6,435.7,279.2,438.9,279.2L438.9,279.2z"/>
		<path class="st6" d="M442.6,245.1l1.7-4.3c3,0.7,5.3,1.7,6.8,3.3c1.5,1.5,2.2,3.5,2.2,5.8c0,2.9-1.3,5.3-3.8,7.1
			c-2.5,1.9-6,2.8-10.3,2.8c-4.6,0-8.2-0.9-10.8-2.8c-2.6-1.9-3.8-4.3-3.8-7.4c0-2.7,1-4.8,3-6.5c1.2-1,2.9-1.7,5.1-2.2l1.3,4.4
			c-1.4,0.3-2.6,0.8-3.4,1.6c-0.8,0.8-1.2,1.8-1.2,3c0,1.6,0.7,2.9,2.2,3.9c1.5,1,3.9,1.5,7.2,1.5c3.5,0,6-0.5,7.5-1.5
			c1.5-1,2.2-2.3,2.2-3.9c0-1.2-0.5-2.2-1.4-3C446.1,246.1,444.6,245.5,442.6,245.1L442.6,245.1z"/>
		<path class="st6" d="M452.8,217.4v4.8l-6.3,1.9v8.7l6.3,1.8l0,4.7l-27.7-8.5v-4.7L452.8,217.4L452.8,217.4z M441.8,225.5l-10.3,3
			l10.3,2.9V225.5L441.8,225.5z"/>
		<path class="st6" d="M452.8,215l-27.7,0v-9.3c0-2.3,0.3-4,0.8-5.1c0.5-1.1,1.4-1.9,2.7-2.5c1.3-0.6,2.7-1,4.4-1
			c2.1,0,3.8,0.5,5.2,1.4c1.4,1,2.2,2.4,2.6,4.3c0.7-1,1.5-1.7,2.3-2.4c0.8-0.6,2.3-1.5,4.5-2.5l5.4-2.7v5.3l-6,3.2
			c-2.2,1.1-3.5,1.9-4.1,2.3c-0.6,0.4-0.9,0.9-1.2,1.3c-0.2,0.5-0.3,1.2-0.3,2.2v0.9l11.6,0L452.8,215L452.8,215z M436.8,210.6v-3.3
			c0-2.1-0.1-3.4-0.3-4c-0.2-0.5-0.6-0.9-1.2-1.2c-0.6-0.3-1.2-0.4-2.1-0.4c-0.9,0-1.7,0.2-2.3,0.6c-0.6,0.4-0.9,0.9-1.1,1.7
			c-0.1,0.4-0.1,1.4-0.1,3.2l0,3.4H436.8L436.8,210.6z"/>
		<path class="st6" d="M452.8,193l-27.7,0v-9.3c0-2.3,0.3-4,0.8-5.1c0.5-1.1,1.4-1.9,2.7-2.5c1.3-0.6,2.7-1,4.4-1
			c2.1,0,3.8,0.5,5.2,1.4c1.4,1,2.2,2.4,2.6,4.3c0.7-1,1.5-1.7,2.3-2.4c0.8-0.6,2.3-1.5,4.5-2.5l5.4-2.7v5.3l-6,3.2
			c-2.2,1.1-3.5,1.9-4.1,2.3c-0.6,0.4-0.9,0.9-1.2,1.3c-0.2,0.5-0.3,1.2-0.3,2.2v0.9l11.6,0V193L452.8,193z M436.8,188.6v-3.3
			c0-2.1-0.1-3.4-0.3-4c-0.2-0.5-0.6-0.9-1.2-1.2c-0.6-0.3-1.2-0.4-2.1-0.4c-0.9,0-1.7,0.2-2.3,0.6c-0.6,0.4-0.9,0.9-1.1,1.7
			c-0.1,0.4-0.1,1.4-0.1,3.2v3.4H436.8L436.8,188.6z"/>
		<path class="st6" d="M439.1,171.9c-2.8,0-5.2-0.3-7.1-1c-1.4-0.5-2.7-1.2-3.8-2c-1.1-0.9-2-1.8-2.5-2.8c-0.7-1.4-1.1-2.9-1.1-4.7
			c0-3.2,1.3-5.8,3.8-7.7c2.5-1.9,6.1-2.9,10.6-2.9c4.5,0,8,1,10.5,2.9c2.5,1.9,3.8,4.5,3.8,7.7c0,3.2-1.3,5.8-3.8,7.7
			C447,170.9,443.5,171.9,439.1,171.9L439.1,171.9z M438.9,167.3c3.1,0,5.5-0.6,7.1-1.7c1.6-1.1,2.4-2.6,2.4-4.4
			c0-1.8-0.8-3.2-2.4-4.3c-1.6-1.1-4-1.7-7.2-1.7c-3.2,0-5.5,0.6-7.1,1.6c-1.6,1.1-2.3,2.6-2.3,4.4c0,1.8,0.8,3.3,2.4,4.4
			C433.3,166.8,435.7,167.3,438.9,167.3L438.9,167.3z"/>
		<path class="st11" d="M589.4,414.4h241.1v75H589.4c-6,0-11.3-5-11.3-11.2v-52.5C578.1,419.4,583.1,414.4,589.4,414.4L589.4,414.4z
			"/>
		<path class="st12" d="M607.3,420.8h216.1v62.3H607.3c-5.4,0-10.1-4.1-10.1-9.3v-43.7C597.2,424.9,601.7,420.8,607.3,420.8
			L607.3,420.8z"/>
		<path class="st3" d="M587.9,420.8l4.7,5.6c-1.1,16.8-1.1,33.2,0,50.5l-4.7,6.3c-0.2,0.2-4.4-6.4-4.6-9.3
			c-0.9-14.5-0.9-29.5,0-43.7C583.6,425.8,587.7,420.5,587.9,420.8L587.9,420.8z"/>
		<path class="st10" d="M840.1,485l-178.9-21v-23l178.9,21 M661.2,441.1l22.2,2.6v23l-22.2-2.6V441.1L661.2,441.1z"/>
		<polygon class="st6" points="639.4,531.5 639.4,503.7 654.4,503.7 654.4,508.4 643.8,508.4 643.8,515 652.9,515 652.9,519.7 
			643.8,519.7 643.8,531.5 639.4,531.5 		"/>
		<polygon class="st6" points="657.9,531.5 657.9,503.7 662.3,503.7 662.3,531.5 657.9,531.5 		"/>
		<polygon class="st6" points="666.6,531.5 666.6,504 671,504 671,526.8 682,526.8 682,531.5 666.6,531.5 		"/>
		<path class="st6" d="M684.2,517.8c0-2.8,0.3-5.2,1-7.1c0.5-1.4,1.2-2.7,2-3.8c0.9-1.1,1.8-2,2.8-2.5c1.4-0.7,2.9-1.1,4.7-1.1
			c3.2,0,5.8,1.3,7.7,3.8c1.9,2.5,2.9,6.1,2.9,10.6c0,4.5-1,8-2.9,10.5c-1.9,2.5-4.5,3.8-7.7,3.8c-3.2,0-5.8-1.3-7.7-3.8
			C685.2,525.6,684.2,522.2,684.2,517.8L684.2,517.8z M688.8,517.6c0,3.1,0.6,5.5,1.7,7.1c1.1,1.6,2.6,2.4,4.3,2.4
			c1.8,0,3.2-0.8,4.3-2.4c1.1-1.6,1.7-4,1.7-7.2c0-3.2-0.5-5.5-1.6-7.1c-1.1-1.6-2.6-2.3-4.4-2.3c-1.8,0-3.3,0.8-4.4,2.4
			C689.3,512,688.8,514.4,688.8,517.6L688.8,517.6z"/>
		<path class="st6" d="M708.9,503.7h8.7c1.7,0,3,0.1,3.9,0.3c0.9,0.2,1.6,0.6,2.3,1.1c0.7,0.6,1.2,1.4,1.7,2.3c0.4,1,0.7,2,0.7,3.2
			c0,1.3-0.3,2.5-0.8,3.6c-0.6,1.1-1.3,1.9-2.2,2.4c1.3,0.5,2.4,1.3,3.1,2.5c0.7,1.2,1.1,2.6,1.1,4.2c0,1.3-0.2,2.5-0.7,3.7
			c-0.5,1.2-1.1,2.1-1.9,2.9c-0.8,0.7-1.8,1.2-3,1.3c-0.7,0.1-2.5,0.2-5.3,0.2h-7.4V503.7L708.9,503.7z M713.3,508.3v6.4h2.9
			c1.7,0,2.8,0,3.2-0.1c0.8-0.1,1.3-0.4,1.8-1c0.4-0.5,0.6-1.3,0.6-2.2c0-0.9-0.2-1.6-0.6-2.1c-0.4-0.5-0.9-0.9-1.7-1
			c-0.4-0.1-1.7-0.1-3.8-0.1H713.3L713.3,508.3z M713.3,519.4v7.4h4.1c1.6,0,2.6-0.1,3-0.2c0.7-0.2,1.2-0.5,1.6-1.1
			c0.4-0.6,0.6-1.4,0.6-2.4c0-0.8-0.2-1.5-0.5-2.1c-0.3-0.6-0.8-1-1.4-1.3c-0.6-0.3-1.9-0.4-3.9-0.4H713.3L713.3,519.4z"/>
		<path class="st6" d="M730.8,503.7h4.4v15c0,2.4,0.1,3.9,0.2,4.6c0.2,1.1,0.6,2,1.3,2.7c0.7,0.7,1.7,1,2.9,1c1.3,0,2.2-0.3,2.8-1
			c0.6-0.6,1-1.4,1.1-2.4c0.1-0.9,0.2-2.5,0.2-4.7v-15.3h4.4v14.6c0,3.3-0.1,5.7-0.4,7.1c-0.2,1.4-0.7,2.5-1.3,3.5
			c-0.6,0.9-1.5,1.7-2.6,2.3c-1.1,0.6-2.5,0.8-4.2,0.8c-2.1,0-3.7-0.3-4.7-0.9c-1.1-0.6-1.9-1.4-2.5-2.4c-0.6-1-1-2-1.2-3.1
			c-0.3-1.6-0.4-3.9-0.4-7V503.7L730.8,503.7z"/>
		<path class="st6" d="M751.8,522.4l4.3-0.5c0.3,1.8,0.8,3.2,1.6,4c0.8,0.9,1.8,1.3,3.2,1.3c1.4,0,2.5-0.4,3.2-1.2
			c0.7-0.8,1.1-1.7,1.1-2.7c0-0.7-0.2-1.2-0.5-1.7c-0.3-0.5-0.8-0.9-1.6-1.2c-0.5-0.2-1.7-0.6-3.5-1.2c-2.4-0.7-4-1.7-5-2.7
			c-1.3-1.5-2-3.4-2-5.6c0-1.4,0.3-2.7,0.9-4c0.6-1.2,1.5-2.2,2.7-2.8c1.2-0.6,2.6-1,4.3-1c2.7,0,4.8,0.8,6.2,2.3
			c1.4,1.5,2.1,3.6,2.2,6.1l-4.4,0.2c-0.2-1.4-0.6-2.5-1.2-3.1c-0.6-0.6-1.5-0.9-2.8-0.9c-1.3,0-2.3,0.3-3,1c-0.5,0.4-0.7,1-0.7,1.7
			c0,0.7,0.2,1.2,0.7,1.7c0.6,0.6,1.9,1.2,4.1,1.9c2.1,0.6,3.7,1.3,4.8,2c1,0.7,1.8,1.6,2.4,2.8c0.6,1.2,0.9,2.7,0.9,4.4
			c0,1.6-0.3,3.1-1,4.5c-0.7,1.4-1.7,2.4-2.9,3.1c-1.3,0.7-2.9,1-4.8,1c-2.8,0-4.9-0.8-6.4-2.4C753,527.9,752.1,525.5,751.8,522.4
			L751.8,522.4z"/>
		<line class="st13" x1="368.5" y1="340.2" x2="368.5" y2="526.1"/>
		<line class="st13" x1="258.5" y1="591.7" x2="346.8" y2="591.7"/>
		<path class="st13" d="M574.6,452.2c-112.2,35.1-184.4,133.4-198.8,265.6"/>
		<path class="st13" d="M505.2,676c1-65.4,40.3-88,74.3-88.5l59.5-0.8"/>
	</g>
</g>
</svg>
