<?xml version="1.0" encoding="utf-8"?>
<!-- Generator: Adobe Illustrator 19.2.0, SVG Export Plug-In . SVG Version: 6.00 Build 0)  -->
<svg version="1.1" id="Livello_1" xmlns="http://www.w3.org/2000/svg" xmlns:xlink="http://www.w3.org/1999/xlink" x="0px" y="0px"
	 viewBox="0 0 960 960" style="enable-background:new 0 0 960 960;" xml:space="preserve">
<style type="text/css">
	.st0{fill-rule:evenodd;clip-rule:evenodd;fill:#FFFFFF;}
	.st1{fill-rule:evenodd;clip-rule:evenodd;fill:#CECFD1;}
	.st2{fill-rule:evenodd;clip-rule:evenodd;fill:#FFEC00;stroke:#1A171B;stroke-width:1.4518;stroke-miterlimit:2.6131;}
	.st3{fill-rule:evenodd;clip-rule:evenodd;fill:#FFFFFF;stroke:#1A171B;stroke-width:1.4518;stroke-miterlimit:2.6131;}
	.st4{fill:none;stroke:#1A171B;stroke-width:1.9357;stroke-miterlimit:2.6131;}
	.st5{fill-rule:evenodd;clip-rule:evenodd;fill:#049853;stroke:#1A171B;stroke-width:1.4518;stroke-miterlimit:2.6131;}
	.st6{fill-rule:evenodd;clip-rule:evenodd;fill:#3D3D3F;stroke:#1A171B;stroke-width:1.4518;stroke-miterlimit:2.6131;}
	.st7{fill-rule:evenodd;clip-rule:evenodd;fill:#1A171B;}
	.st8{fill-rule:evenodd;clip-rule:evenodd;fill:#00A6E2;stroke:#1A171B;stroke-width:1.4518;stroke-miterlimit:2.6131;}
	.st9{fill-rule:evenodd;clip-rule:evenodd;fill:#E43417;stroke:#1A171B;stroke-width:1.4518;stroke-miterlimit:2.6131;}
	.st10{fill-rule:evenodd;clip-rule:evenodd;fill:#049853;}
	.st11{fill:none;stroke:#1A171B;stroke-width:2.4197;stroke-linecap:square;stroke-miterlimit:2.6131;}
	.st12{fill:none;stroke:#1A171B;stroke-width:1.4518;stroke-miterlimit:2.6131;}
	.st13{fill:none;stroke:#1A171B;stroke-width:4.8393;stroke-linecap:square;stroke-miterlimit:2.6131;}
	.st14{fill:none;stroke:#1A171B;stroke-width:1.4518;stroke-linecap:square;stroke-miterlimit:2.6131;}
	
		.st15{fill:none;stroke:#1A171B;stroke-width:4.8393;stroke-linecap:square;stroke-miterlimit:2.6131;stroke-dasharray:24.1967,24.1967;}
</style>
<g>
	<g>
		<polygon class="st0" points="244.4,347.6 45,347.5 45,624.5 244.4,624.5 244.4,824.9 693.4,824.9 693.4,624.5 915,624.5 
			915,347.5 693.4,347.5 693.4,135.2 244.4,135.2 244.4,347.6 		"/>
		<path class="st1" d="M268.7,135.2h400.7l-0.1,205c0,24.2,7.5,31.6,31.7,31.6h213.9v228.6H701c-24.2,0-31.7,7.3-31.7,31.5
			l0.1,192.9H268.7L268.6,632c0-24.2-7.8-31.5-32-31.5H45V371.8h191.6c24.2,0,32-7.8,32-31.6L268.7,135.2L268.7,135.2z"/>
		<path class="st2" d="M428.7,187.7c1.7,11.5,4.1,27.2,4.3,44c0,13.4,0,26.9,0,40.5c-1.2,17.7-0.7,31.8-5,45.4c-0.7,2.7-4.5,9-9.1,9
			h-34.3c-5.5,0-7-7.1-7.5-9c-3.3-13.6-4.6-27.8-4.6-45.3v-40.8c0-15.9,1.7-31.8,3.9-43.9c0.7-3.4,1.4-9.2,8.6-9.2h34.6
			C429,178.5,428,182.9,428.7,187.7L428.7,187.7z"/>
		<path class="st3" d="M424.4,269.4l2.3,14.9c-16.3,5.8-30.9,5.3-48.3,0l2.1-14.9C397.9,273.1,406.3,273.5,424.4,269.4L424.4,269.4z
			"/>
		<path class="st3" d="M423.5,206.5l-3.1,9.2c-12.3-2.3-24.3-2.3-36-0.2l-3.3-9C394.9,204,409.5,204.3,423.5,206.5L423.5,206.5z"/>
		<line class="st4" x1="427.1" y1="221" x2="426.9" y2="263.8"/>
		<line class="st4" x1="378.3" y1="221" x2="378.1" y2="263.8"/>
		<path class="st5" d="M341.8,187.9c1.7,11.5,4.1,27.2,4.3,44c0,13.4,0,26.9,0,40.5c-1.2,17.7-0.7,31.8-5,45.4c-0.7,2.7-4.5,9-9.1,9
			h-34.3c-5.5,0-7-7.1-7.5-9c-3.3-13.6-4.6-27.8-4.6-45.3v-40.8c0-15.9,1.7-31.8,3.9-43.9c0.7-3.4,1.4-9.2,8.6-9.2h34.6
			C342.1,178.7,341.1,183.1,341.8,187.9L341.8,187.9z"/>
		<path class="st3" d="M337.5,269.6l2.3,14.9c-16.3,5.8-30.9,5.3-48.3,0l2.1-14.9C311,273.3,319.4,273.7,337.5,269.6L337.5,269.6z"
			/>
		<path class="st3" d="M336.6,206.6l-3.1,9.2c-12.3-2.3-24.3-2.3-36-0.2l-3.3-9C308,204.2,322.6,204.5,336.6,206.6L336.6,206.6z"/>
		<line class="st4" x1="340.2" y1="221.1" x2="340.1" y2="263.9"/>
		<line class="st4" x1="291.4" y1="221.1" x2="291.2" y2="263.9"/>
		<polygon class="st6" points="316,506.6 323.5,473.9 308.6,473.9 316,506.6 		"/>
		<polygon class="st6" points="622.7,240.4 607.5,270.2 621.9,273.9 622.7,240.4 		"/>
		<polygon class="st6" points="763.8,543 731.1,550.5 731.1,535.6 763.8,543 		"/>
		<polygon class="st6" points="351,709.6 356.5,676.5 370.2,682.2 351,709.6 		"/>
		<path class="st7" d="M829.2,518.7h-11l-4.4-11.4h-20.1l-4.1,11.4h-10.8l19.6-50.2h10.7L829.2,518.7L829.2,518.7z M810.5,498.9
			l-6.9-18.6l-6.8,18.6H810.5L810.5,498.9z"/>
		<polygon class="st7" points="195.8,273.9 195.8,223.7 233,223.7 233,232.2 205.9,232.2 205.9,243.3 231.1,243.3 231.1,251.8 
			205.9,251.8 205.9,265.5 234,265.5 234,273.9 195.8,273.9 		"/>
		<path class="st7" d="M143.6,455.7h18.5c4.2,0,7.4,0.3,9.6,1c2.9,0.9,5.5,2.4,7.6,4.6c2.1,2.2,3.7,4.9,4.8,8.1
			c1.1,3.2,1.6,7.2,1.6,11.9c0,4.1-0.5,7.7-1.5,10.7c-1.3,3.6-3,6.6-5.4,8.9c-1.8,1.7-4.1,3.1-7.1,4c-2.2,0.7-5.2,1.1-9,1.1h-19.1
			V455.7L143.6,455.7z M153.8,464.2v33.3h7.6c2.8,0,4.9-0.2,6.1-0.5c1.6-0.4,3-1.1,4.1-2.1c1.1-1,2-2.6,2.7-4.9c0.7-2.2,1-5.3,1-9.2
			c0-3.9-0.4-6.9-1-8.9c-0.7-2.1-1.6-3.7-2.9-4.9c-1.2-1.2-2.8-2-4.7-2.4c-1.4-0.3-4.2-0.5-8.3-0.5H153.8L153.8,464.2z"/>
		<path class="st8" d="M862.7,397.5c-11.5-1.7-27.2-4.1-44-4.3c-13.4,0-26.9,0-40.5,0c-17.7,1.2-31.8,0.7-45.4,5
			c-2.7,0.7-9,4.5-9,9.1v34.3c0,5.5,7.1,7,9,7.5c13.6,3.3,27.8,4.6,45.3,4.6h40.8c15.9,0,31.8-1.7,43.9-3.9c3.4-0.7,9.2-1.4,9.2-8.6
			v-34.6C871.9,397.1,867.5,398.1,862.7,397.5L862.7,397.5z"/>
		<path class="st3" d="M781,401.7l-14.9-2.3c-5.8,16.3-5.3,30.9,0,48.3l14.9-2.1C777.3,428.2,776.9,419.9,781,401.7L781,401.7z"/>
		<path class="st3" d="M844,402.6l-9.2,3.1c2.3,12.3,2.3,24.3,0.2,36l9,3.3C846.4,431.2,846.1,416.6,844,402.6L844,402.6z"/>
		<line class="st4" x1="829.5" y1="399" x2="786.7" y2="399.2"/>
		<line class="st4" x1="829.5" y1="447.8" x2="786.7" y2="448"/>
		<path class="st9" d="M97.6,524.2c11.5-1.7,27.2-4.1,44-4.3c13.4,0,26.9,0,40.5,0c17.7,1.2,31.8,0.7,45.4,5c2.7,0.7,9,4.5,9,9.1
			v34.3c0,5.5-7.1,7-9,7.5c-13.6,3.3-27.8,4.6-45.3,4.6h-40.9c-15.9,0-31.8-1.7-43.9-3.9c-3.4-0.7-9.2-1.4-9.2-8.6v-34.6
			C88.4,523.8,92.8,524.8,97.6,524.2L97.6,524.2z"/>
		<path class="st3" d="M179.3,528.4l14.9-2.3c5.8,16.4,5.3,30.9,0,48.3l-14.9-2.1C183,554.9,183.3,546.6,179.3,528.4L179.3,528.4z"
			/>
		<path class="st3" d="M116.3,529.3l9.2,3.1c-2.3,12.3-2.3,24.3-0.2,36l-9,3.3C113.8,557.9,114.2,543.3,116.3,529.3L116.3,529.3z"/>
		<line class="st4" x1="130.8" y1="525.7" x2="173.6" y2="525.9"/>
		<line class="st4" x1="130.8" y1="574.5" x2="173.6" y2="574.7"/>
		<path class="st10" d="M488,824.8h-38.2V644.2c0-10.7,8.6-19.6,19-19.6c10.5,0,19.2,8.9,19.2,19.6V824.8L488,824.8z"/>
		<path class="st11" d="M488,824.8V644.2c0-10.7-8.7-19.6-19.2-19.6c-10.4,0-19,8.9-19,19.6v180.6V644.2c0-10.7,8.6-19.6,19-19.6
			c10.5,0,19.2,8.9,19.2,19.6V824.8L488,824.8z"/>
		<path class="st12" d="M482.1,824.8v-174c-0.6-12.2-6.2-18.3-13.2-18.3c-7.3,0-13,6.2-13,18.3v174v-174c0-12.2,5.8-18.3,13-18.3
			c7,0,12.7,6.2,13.2,18.3V824.8L482.1,824.8z"/>
		<path class="st13" d="M244.4,135.2v212.4L45,347.5 M45,624.5h199.4v200.3 M693.4,824.9V624.5H915 M915,347.5H693.4V135.2"/>
		<path class="st14" d="M669.2,135.2v205c0,24.2,7.5,31.6,31.7,31.6h213.9 M914.9,600.4H701c-24.2,0-31.7,7.3-31.7,31.5l0.1,192.9
			 M268.7,824.9L268.6,632c0-24.2-7.8-31.5-32-31.5H45 M45,371.8h191.6c24.2,0,32-7.8,32-31.6l0.1-205"/>
		<line class="st15" x1="315.5" y1="329.6" x2="315.5" y2="472.1"/>
		<path class="st15" d="M403.4,330.8c15.4,139.8,148,210.8,324.3,212.4"/>
		<path class="st15" d="M718.7,424.4c-154,28.1-278.1,115.2-355,254.3"/>
		<path class="st15" d="M240.3,551.8C437.7,539,579.8,427.3,614.1,274.9"/>
		<path class="st7" d="M502.9,258.7l9.9-1c0.6,3.3,1.8,5.8,3.6,7.3c1.8,1.5,4.3,2.3,7.3,2.3c3.3,0,5.7-0.7,7.4-2.1
			c1.7-1.4,2.5-3,2.5-4.8c0-1.2-0.3-2.2-1-3c-0.7-0.8-1.9-1.6-3.6-2.2c-1.2-0.4-3.9-1.1-8.1-2.2c-5.4-1.3-9.3-3-11.4-5
			c-3.1-2.8-4.6-6.1-4.6-10.1c0-2.6,0.7-4.9,2.2-7.2c1.5-2.2,3.5-3.9,6.3-5.1c2.7-1.2,6-1.7,9.9-1.7c6.3,0,11,1.4,14.2,4.1
			c3.2,2.8,4.9,6.5,5,11.1l-10.1,0.4c-0.4-2.6-1.4-4.4-2.8-5.6c-1.4-1.1-3.6-1.7-6.4-1.7c-2.9,0-5.3,0.6-6.9,1.8
			c-1.1,0.8-1.6,1.8-1.6,3.1c0,1.2,0.5,2.2,1.5,3.1c1.3,1.1,4.4,2.2,9.3,3.4c4.9,1.2,8.6,2.4,10.9,3.6c2.4,1.2,4.2,2.9,5.6,5.1
			c1.3,2.2,2,4.8,2,8c0,2.9-0.8,5.6-2.4,8.1c-1.6,2.5-3.9,4.4-6.8,5.6c-2.9,1.2-6.6,1.8-10.9,1.8c-6.4,0-11.2-1.5-14.6-4.4
			C505.6,268.6,503.5,264.4,502.9,258.7L502.9,258.7z"/>
		<path class="st10" d="M488,135.1h-38.2V328c0,10.7,8.6,19.6,19,19.6c10.5,0,19.2-8.9,19.2-19.6V135.1L488,135.1z"/>
		<path class="st11" d="M488,135.1V328c0,10.7-8.7,19.6-19.2,19.6c-10.4,0-19-8.9-19-19.6V135.1V328c0,10.7,8.6,19.6,19,19.6
			c10.5,0,19.2-8.9,19.2-19.6V135.1L488,135.1z"/>
		<path class="st12" d="M482.1,135.1v186.2c-0.6,12.2-6.2,18.3-13.2,18.3c-7.3,0-13-6.2-13-18.3V135.1v186.2
			c0,12.2,5.8,18.3,13,18.3c7,0,12.7-6.2,13.2-18.3V135.1L482.1,135.1z"/>
	</g>
</g>
</svg>
