<?xml version="1.0" encoding="utf-8"?>
<!-- Generator: Adobe Illustrator 19.2.0, SVG Export Plug-In . SVG Version: 6.00 Build 0)  -->
<svg version="1.1" id="Livello_1" xmlns="http://www.w3.org/2000/svg" xmlns:xlink="http://www.w3.org/1999/xlink" x="0px" y="0px"
	 viewBox="0 0 960 960" style="enable-background:new 0 0 960 960;" xml:space="preserve">
<style type="text/css">
	.st0{fill-rule:evenodd;clip-rule:evenodd;fill:#FFFFFF;}
	.st1{fill-rule:evenodd;clip-rule:evenodd;fill:#CECFD1;}
	.st2{fill-rule:evenodd;clip-rule:evenodd;fill:#FFEC00;stroke:#1A171B;stroke-width:1.4518;stroke-miterlimit:2.6131;}
	.st3{fill-rule:evenodd;clip-rule:evenodd;fill:#FFFFFF;stroke:#1A171B;stroke-width:1.4518;stroke-miterlimit:2.6131;}
	.st4{fill:none;stroke:#1A171B;stroke-width:1.9357;stroke-miterlimit:2.6131;}
	.st5{fill-rule:evenodd;clip-rule:evenodd;fill:#3D3D3F;stroke:#1A171B;stroke-width:1.4518;stroke-miterlimit:2.6131;}
	.st6{fill-rule:evenodd;clip-rule:evenodd;fill:#1A171B;}
	.st7{fill-rule:evenodd;clip-rule:evenodd;fill:#00A6E2;stroke:#1A171B;stroke-width:1.4518;stroke-miterlimit:2.6131;}
	
		.st8{fill-rule:evenodd;clip-rule:evenodd;fill:#E43417;stroke:#1A171B;stroke-width:1.4518;stroke-linecap:square;stroke-miterlimit:2.6131;}
	
		.st9{fill-rule:evenodd;clip-rule:evenodd;fill:#FFFFFF;stroke:#1A171B;stroke-width:1.4518;stroke-linecap:square;stroke-miterlimit:2.6131;}
	.st10{fill:none;stroke:#1A171B;stroke-width:4.8393;stroke-linecap:square;stroke-miterlimit:2.6131;}
	.st11{fill:none;stroke:#1A171B;stroke-width:1.4518;stroke-linecap:square;stroke-miterlimit:2.6131;}
	.st12{fill:none;stroke:#1A171B;stroke-width:1.4518;stroke-miterlimit:2.6131;}
	.st13{fill:none;stroke:#FFFFFF;stroke-width:4.8393;stroke-linecap:square;stroke-miterlimit:2.6131;}
	
		.st14{fill:none;stroke:#1A171B;stroke-width:4.8393;stroke-linecap:square;stroke-miterlimit:2.6131;stroke-dasharray:24.1967,24.1967;}
</style>
<g>
	<g>
		<path class="st0" d="M915,652.3L759.9,807.3L624.1,671.9H490L371.4,790.5H45l245.2-245.3c6.7-8.7,6.1-17.9-0.6-26.2L89.2,318.7
			l166-166l212,212c15.8,13.8,32.8,8.5,38.9-11.2L567.1,155h241.4l-74.3,244.2L763,500.6L915,652.3L915,652.3z"/>
		<path class="st1" d="M898.4,668.9l-122,122l-123-122.8c-16.7-16.9-22.9-19.6-46.4-19.6h-97.4c-25.6,0.2-29.7,1-49.2,19.9
			l-122,122.1H77.4l226.8-226.8c19.1-20.4,20.2-42,0.1-63L105.6,302.3l132.9-133.1l213,212.7c25.1,24.7,66.3,15.1,77.6-22.1
			l62.3-204.6H784l-66.3,218.6c-6.5,21.5-6.9,27.3-1.7,47.2c6.1,21.6,12.2,43.1,18.4,64.8c6.9,23.7,9.7,29.6,26.3,45.9L898.4,668.9
			L898.4,668.9z"/>
		<path class="st2" d="M309.9,719.6c6.8-9.2,16.2-21.8,27.8-33.6c9.4-9.4,18.8-18.7,28.3-28.2c13.2-11.5,22.7-21.7,35.2-28.2
			c2.3-1.4,9.4-3.2,12.6,0.1l23.9,23.9c3.8,3.8,0,9.8-1.1,11.5c-7.2,11.8-16.2,22.6-28.4,34.7l-28.5,28.4
			c-11.1,11.1-23.4,21-33.4,27.8c-2.8,1.9-7.4,5.4-12.4,0.4l-24.1-24.2C303.2,725.8,307,723.4,309.9,719.6L309.9,719.6z"/>
		<path class="st3" d="M369.9,665.7l8.8-12c15.5,7.4,25.2,17.9,33.6,33.8l-11.9,8.8C390.9,681.7,385.4,675.6,369.9,665.7
			L369.9,665.7z"/>
		<path class="st3" d="M326.5,710.2l8.6-4.2c7,10.2,15.3,18.6,24.9,25.3l-4,8.6C344.7,731.9,334.8,721.5,326.5,710.2L326.5,710.2z"
			/>
		<line class="st4" x1="334.2" y1="697.6" x2="364.2" y2="667.9"/>
		<line class="st4" x1="368.2" y1="731.7" x2="398.2" y2="702"/>
		<polygon class="st5" points="702.2,650 687.1,621.6 676.3,630.9 702.2,650 		"/>
		<polygon class="st5" points="714,694.9 699,666.5 688.2,675.8 714,694.9 		"/>
		<polygon class="st5" points="251.3,670.4 278.6,653.5 268.7,643.3 251.3,670.4 		"/>
		<path class="st6" d="M351,331.6h-10.9l-4.3-11.3H316l-4.1,11.3h-10.6l19.3-49.5h10.6L351,331.6L351,331.6z M332.6,312l-6.8-18.4
			L319,312H332.6L332.6,312z"/>
		<polygon class="st6" points="764.3,721.4 764.3,672.2 774.3,672.2 774.3,713 799.2,713 799.2,721.4 764.3,721.4 		"/>
		<polygon class="st6" points="251.3,758.4 251.3,708.8 261.3,708.8 261.3,728.3 280.9,728.3 280.9,708.8 290.9,708.8 290.9,758.4 
			280.9,758.4 280.9,736.7 261.3,736.7 261.3,758.4 251.3,758.4 		"/>
		<polygon class="st6" points="667.3,360.7 667.3,311.1 701.3,311.1 701.3,319.5 677.4,319.5 677.4,331.2 698,331.2 698,339.6 
			677.4,339.6 677.4,360.7 667.3,360.7 		"/>
		<path class="st7" d="M810.6,681.7c-9.2-6.8-21.9-16-33.8-27.5c-9.4-9.3-18.8-18.6-28.4-28.1c-11.6-13.1-21.8-22.6-28.4-35
			c-1.4-2.3-3.2-9.4,0-12.6l23.8-24c3.8-3.8,9.8,0,11.6,1c11.8,7.2,22.7,16,34.9,28.2l28.6,28.3c11.2,11,21.1,23.3,28,33.2
			c1.9,2.8,5.5,7.3,0.5,12.4l-24,24.3C816.8,688.3,814.4,684.5,810.6,681.7L810.6,681.7z"/>
		<path class="st3" d="M756.3,622l-12-8.7c7.3-15.5,17.7-25.3,33.5-33.9l8.9,11.8C772.1,600.9,766,606.5,756.3,622L756.3,622z"/>
		<path class="st3" d="M801,665.1l-4.3-8.5c10.2-7,18.5-15.5,25.1-25.1l8.6,4C822.6,646.7,812.3,656.7,801,665.1L801,665.1z"/>
		<line class="st4" x1="788.4" y1="657.5" x2="758.5" y2="627.8"/>
		<line class="st4" x1="822.2" y1="623.3" x2="792.4" y2="593.5"/>
		<polygon class="st8" points="160.1,326.3 167.2,333.4 223.6,277 216.5,269.9 160.1,326.3 		"/>
		<path class="st8" d="M340,383l-22.6-22.6c-0.9-0.9-2.6-0.8-3.7,0.4c-1.1,1.1-1,3.1-0.4,3.7l24,24C337.4,388.6,341.6,384.7,340,383
			L340,383z"/>
		<path class="st8" d="M273.4,449.5L250.9,427c-0.9-0.9-0.8-2.6,0.4-3.7c1.1-1.1,3.1-1,3.7-0.4l24,24
			C279.1,446.9,275.1,451.2,273.4,449.5L273.4,449.5z"/>
		<path class="st8" d="M295.2,467.2l62.4-62.4l2.1,2.1c3.4,3.4,3.4,8.9,0,12.3l-50,50c-3.4,3.4-8.9,3.4-12.3,0L295.2,467.2
			L295.2,467.2z"/>
		<path class="st8" d="M297.4,465.3l-36.1-36.1l58.3-58.3l36.1,36.1c2.7,2.7,2.9,7.4,0,10.3l-47.9,47.9
			C304.9,468.2,300.3,468.2,297.4,465.3L297.4,465.3z"/>
		<path class="st8" d="M290.1,450.4l-18.3-18.3c-1.4-1.4-0.8-4.2,1.4-6.4l42.9-42.9c2.2-2.2,5.1-2.8,6.5-1.4l18.3,18.3
			c1.4,1.4,0.5,4.2-1.4,6.5c-13.1,15.6-27.5,29.8-42.9,42.9C294.2,451.1,291.5,451.8,290.1,450.4L290.1,450.4z"/>
		<path class="st9" d="M299,462c-0.1-1.4-1.8-7.9-1.1-8.5c16.2-12.2,34-29.8,46.6-46.6c0.2-0.3,6.6,1.7,7.9,1.7
			c1.6,0.1,1.1,3.8-0.2,5.4c-14.6,17.1-30.7,33.1-47.7,47.7C302.7,463.3,299.1,463.9,299,462L299,462z"/>
		<path class="st8" d="M256.5,299.5L233.9,277c-0.9-0.9-2.6-0.8-3.7,0.4c-1.1,1.1-0.4,3.7-0.4,3.7l24,24
			C253.8,305.1,258.2,301.2,256.5,299.5L256.5,299.5z"/>
		<path class="st8" d="M190,366.1l-22.6-22.6c-0.9-0.9-0.8-2.6,0.4-3.7c1.1-1.1,3.7-0.4,3.7-0.4l24,24
			C195.5,363.4,191.6,367.7,190,366.1L190,366.1z"/>
		<polygon class="st8" points="259.4,431.4 159.3,331.3 221.6,268.9 321.7,369 259.4,431.4 		"/>
		<polygon class="st8" points="258.9,422.6 168,331.8 222.2,277.7 313,368.5 258.9,422.6 		"/>
		<polygon class="st8" points="269.6,411.9 178.7,321.1 211.5,288.3 302.4,379.1 269.6,411.9 		"/>
		<polygon class="st8" points="280.5,401 189.7,310.2 200.6,299.2 291.4,390.1 280.5,401 		"/>
		<path class="st10" d="M255.2,152.7l212,212c15.8,13.8,32.8,8.5,38.9-11.2L567.1,155 M808.4,155l-74.3,244.2L763,500.6l152,151.6
			 M759.9,807.3L624.1,671.9H490L371.4,790.5 M45,790.5l245.2-245.3c6.7-8.7,6.1-17.9-0.6-26.2L89.2,318.7"/>
		<path class="st11" d="M238.5,169.2l213,212.7c25.1,24.7,66.3,15.1,77.6-22.1l62.3-204.6 M784,155.1l-66.3,218.6
			c-6.5,21.5-6.9,27.3-1.7,47.2c6.1,21.6,12.2,43.1,18.4,64.8c6.9,23.7,9.7,29.6,26.3,45.9l137.8,137.4 M776.4,790.9l-123-122.8
			c-16.7-16.9-22.9-19.6-46.4-19.6h-97.4c-25.6,0.2-29.7,1-49.2,19.9l-122,122.1 M77.4,790.6l226.8-226.8c19.1-20.4,20.2-42,0.1-63
			L105.6,302.3"/>
		<path class="st7" d="M530.6,407.3l72-232.5l83.1,25.7l-72,232.5c-1.8,5.8-8.9,9.1-15.8,7l-58.2-18
			C532.8,419.8,528.7,413.3,530.6,407.3L530.6,407.3z"/>
		<path class="st12" d="M543,392.2l64.3-207.6l69.1,21.4l-64.3,207.6c-1.6,5.2-7.6,8.3-13.4,6.5l-48.4-15
			C544.6,403.3,541.3,397.5,543,392.2L543,392.2z"/>
		<path class="st3" d="M537.2,410.8l7.6-2.7c18.3,6.8,36.5,12.5,55.9,17.3l5.6,6.7c0.2,0.3-8.4,2-11.7,1.2
			c-16.4-4.2-32.9-9.3-48.4-15C541.5,416.7,536.9,411,537.2,410.8L537.2,410.8z"/>
		<path class="st0" d="M596.7,378.6l-3.2,10.5l7.5,5.8l-1.7,5.6l-33.6-26.7l1.9-6l39.6,7.6l-1.6,5.1L596.7,378.6L596.7,378.6z
			 M590.1,377.3l-15.9-3.2l13.4,11.1L590.1,377.3L590.1,377.3z"/>
		<path class="st0" d="M571.5,354.5l1.7-5.4l19.8,9.4l4.9,2.3c0.4,0.2,0.8,0.3,1.2,0.5c1.5,0.5,2.9,0.5,4.1,0
			c1.2-0.5,2.1-1.4,2.5-2.9c0.4-1.3,0.4-2.5-0.1-3.6c-0.4-1.1-1.3-2.1-2.6-3c-1.3-0.9-3.5-2.1-6.7-3.6l-20-9.5l1.7-5.4l20,9.5
			c4.2,2,7.3,3.8,9.4,5.3c2.1,1.5,3.6,3.4,4.5,5.5c0.9,2.1,1,4.5,0.2,7c-0.9,3.1-2.8,5.1-5.4,6c-2.7,0.9-5.7,0.9-9.2-0.2
			c-0.7-0.2-1.5-0.5-2.3-0.8c-0.6-0.2-2.1-0.9-4.5-2.1L571.5,354.5L571.5,354.5z"/>
		<polygon class="st0" points="619.8,333.8 618.1,339.2 587.7,324.7 585.3,332.5 579.2,329.6 585.6,308.8 591.7,311.7 589.4,319.3 
			619.8,333.8 		"/>
		<path class="st0" d="M608.5,317.1c-2.3-0.7-4.6-1.7-6.9-2.9c-3.2-1.6-5.8-3.5-7.9-5.5c-2.1-2-3.5-4.2-4.4-6.6
			c-0.9-2.4-0.9-4.7-0.1-7.2c1-3.3,3.3-5.4,6.9-6.5c3.6-1.1,7.8-0.9,12.6,0.6c4,1.3,7.7,3.1,11.1,5.6c3.4,2.5,5.7,5.1,7.1,8
			c1.3,2.9,1.6,5.7,0.7,8.6c-0.8,2.5-2.2,4.3-4.3,5.4c-2.1,1.2-4.5,1.7-7.1,1.7C613.5,318.2,611,317.8,608.5,317.1L608.5,317.1z
			 M610,311.6c2.6,0.8,5,0.9,7.1,0.4c2.1-0.6,3.5-1.7,4-3.5c0.5-1.5,0.2-3.1-0.8-4.9c-1-1.8-2.8-3.5-5.3-5.3
			c-2.6-1.8-5.2-3.1-7.9-3.9c-3-0.9-5.5-1.1-7.6-0.5c-2.1,0.6-3.4,1.7-3.9,3.5c-0.8,2.6,0.3,5.4,3.4,8.1
			C602.1,308.3,605.7,310.3,610,311.6L610,311.6z"/>
		<path class="st0" d="M631.9,294.8l-36.5-17.4l2.8-9c0.6-2,1.1-3.3,1.5-4c0.7-1.2,1.5-2.1,2.6-2.8c1.1-0.7,2.3-1,3.8-1.1
			c1.4-0.1,3,0.2,4.5,0.6c2.1,0.7,3.8,1.6,5.1,2.9c1.3,1.3,2.1,2.9,2.4,4.9c1-1.2,2.2-1.9,3.9-2.3c1.6-0.3,3.3-0.2,5,0.3
			c2.3,0.7,4.3,1.8,6.1,3.4c1.8,1.5,2.9,3.2,3.3,5.1c0.4,1.9,0.2,4.2-0.6,6.9L631.9,294.8L631.9,294.8z M611.7,279l1.3-4.1
			c0.6-1.9,0.8-3.3,0.7-4.2c-0.1-0.9-0.6-1.7-1.3-2.4c-0.7-0.7-1.6-1.2-2.6-1.5c-1-0.3-1.8-0.4-2.6-0.2c-0.7,0.2-1.3,0.6-1.8,1.3
			c-0.2,0.4-0.6,1.3-1,2.8l-1.3,4.2L611.7,279L611.7,279z M627.7,286.6l1.6-5.2c0.7-2.2,0.9-3.7,0.7-4.6c-0.2-0.9-0.7-1.7-1.5-2.4
			c-0.8-0.7-1.7-1.3-2.8-1.6c-1.3-0.4-2.4-0.4-3.4,0c-1,0.4-1.8,1.3-2.2,2.9l-2,6.5L627.7,286.6L627.7,286.6z"/>
		<path class="st0" d="M603.6,250.8l1.7-5.4l19.8,9.4l4.9,2.3c0.4,0.2,0.8,0.3,1.2,0.5c1.5,0.5,2.9,0.5,4.1,0
			c1.2-0.5,2.1-1.4,2.5-2.9c0.4-1.3,0.4-2.5-0.1-3.6c-0.4-1.1-1.3-2.1-2.6-3c-1.3-0.9-3.5-2.1-6.7-3.6l-20-9.5l1.7-5.4l20,9.5
			c4.2,2,7.3,3.8,9.4,5.3c2.1,1.5,3.6,3.4,4.5,5.5c0.9,2.1,1,4.5,0.2,7c-1,3.1-2.8,5.1-5.5,6c-2.7,0.9-5.7,0.9-9.2-0.2
			c-0.7-0.2-1.5-0.5-2.3-0.8c-0.5-0.2-2.1-0.9-4.5-2.1L603.6,250.8L603.6,250.8z"/>
		<path class="st0" d="M636.2,236.9l1.2-5.3c2.4,0.7,4.1,0.9,5.1,0.7c1.6-0.4,2.7-1.6,3.4-3.8c0.5-1.8,0.5-3.2-0.2-4.3
			c-0.7-1.1-1.7-1.8-3-2.2c-1.1-0.4-2.2-0.3-3.2,0.1c-0.7,0.3-2,1.2-3.9,2.9c-1.9,1.6-3.5,2.8-4.6,3.5c-1.2,0.7-2.5,1.1-4,1.2
			c-1.5,0.1-3.2-0.1-5.1-0.7c-3.2-1-5.6-2.6-7.3-4.9c-1.6-2.3-2-4.9-1-8c1-3.1,2.8-5.2,5.4-6.2c2.6-1,5.7-1.1,9.3-0.2L627,215
			c-1.9-0.4-3.4-0.4-4.6,0.1c-1.2,0.5-2.1,1.5-2.5,3c-0.5,1.5-0.4,2.7,0.2,3.6c0.6,0.9,1.4,1.5,2.6,1.9c1.1,0.3,2.1,0.3,3,0
			c0.9-0.4,2.3-1.3,4.2-3c2.8-2.5,5-3.9,6.4-4.4c2.1-0.7,4.5-0.6,7.3,0.2c3.4,1,6,2.9,7.8,5.4c1.8,2.6,2.2,5.5,1.2,8.8
			c-0.7,2.3-1.9,4.1-3.5,5.4c-1.6,1.3-3.5,2-5.7,2.1C641.1,238.1,638.7,237.7,636.2,236.9L636.2,236.9z"/>
		<line class="st13" x1="614" y1="182.3" x2="672.4" y2="200.4"/>
		<path class="st14" d="M428,638.7c52.8-36.2,184.5-52.9,264.3,31.2"/>
		<path class="st14" d="M339.9,449.9c108.8,106.8,204.2,30.9,339.9,174.6"/>
		<path class="st14" d="M729,565c-123.4-53.6-319-56.4-453.3,81.6c124.5-124.7,227.9-105.5,290.1-208.3"/>
	</g>
</g>
</svg>
