<?xml version="1.0" encoding="utf-8"?>
<!-- Generator: Adobe Illustrator 19.2.0, SVG Export Plug-In . SVG Version: 6.00 Build 0)  -->
<svg version="1.1" id="Livello_1" xmlns="http://www.w3.org/2000/svg" xmlns:xlink="http://www.w3.org/1999/xlink" x="0px" y="0px"
	 viewBox="0 0 960 960" style="enable-background:new 0 0 960 960;" xml:space="preserve">
<style type="text/css">
	.st0{fill-rule:evenodd;clip-rule:evenodd;fill:#FFFFFF;}
	.st1{fill-rule:evenodd;clip-rule:evenodd;fill:#CECFD1;}
	.st2{fill:none;stroke:#1A171B;stroke-width:1.2644;stroke-linecap:square;stroke-miterlimit:2.6131;}
	.st3{fill:none;stroke:#1A171B;stroke-width:4.2146;stroke-linecap:square;stroke-miterlimit:2.6131;}
	.st4{fill-rule:evenodd;clip-rule:evenodd;fill:#00A6E2;stroke:#1A171B;stroke-width:1.2644;stroke-miterlimit:2.6131;}
	.st5{fill-rule:evenodd;clip-rule:evenodd;fill:#FFFFFF;stroke:#1A171B;stroke-width:1.2644;stroke-miterlimit:2.6131;}
	.st6{fill:none;stroke:#1A171B;stroke-width:1.6858;stroke-miterlimit:2.6131;}
	.st7{fill-rule:evenodd;clip-rule:evenodd;fill:#FFEC00;stroke:#1A171B;stroke-width:1.2644;stroke-miterlimit:2.6131;}
	.st8{fill-rule:evenodd;clip-rule:evenodd;fill:#3D3D3F;stroke:#1A171B;stroke-width:1.2644;stroke-miterlimit:2.6131;}
	.st9{fill:none;stroke:#FFFFFF;stroke-width:1.6858;stroke-miterlimit:2.6131;}
	.st10{fill-rule:evenodd;clip-rule:evenodd;fill:#E43417;stroke:#1A171B;stroke-width:1.2644;stroke-miterlimit:2.6131;}
	.st11{fill-rule:evenodd;clip-rule:evenodd;fill:#1A171B;stroke:#1A171B;stroke-width:1.2644;stroke-miterlimit:2.6131;}
	
		.st12{fill:none;stroke:#1A171B;stroke-width:4.2146;stroke-linecap:square;stroke-miterlimit:2.6131;stroke-dasharray:21.0731,21.0731;}
	.st13{fill-rule:evenodd;clip-rule:evenodd;fill:#1A171B;}
</style>
<g>
	<g>
		<polygon class="st0" points="320.3,120 640,120 640,317.8 872.1,317.8 872.1,647.5 640,647.5 640,840 320.3,840 320.3,647.5 
			87.9,647.5 87.9,317.8 320.3,317.8 320.3,120 		"/>
		<path class="st1" d="M344,120h272.6l-0.1,187.3c-0.1,23.7,11.8,34.2,35.4,34.2h220.2v282.4H650.6c-22.3,0-34.1,10.6-34.1,34.2
			l0.1,181.9H344l-0.1-181.9c0-23.7-10.6-34.2-35.4-34.2H87.9V341.5h221.8c23.6,0,34-10.6,34.1-34.2L344,120L344,120z"/>
		<path class="st2" d="M344,840l-0.1-181.9c0-23.7-10.6-34.2-35.4-34.2H87.9"/>
		<polyline class="st3" points="320.3,840 320.3,647.5 87.9,647.5 		"/>
		<path class="st2" d="M872.1,623.9H650.6c-22.3,0-34.1,10.6-34.1,34.2l0.1,181.9"/>
		<polyline class="st3" points="872.1,647.5 640,647.5 640,840 		"/>
		<path class="st2" d="M616.4,120.1v187.2c-0.1,23.7,11.8,34.2,35.4,34.2h220.2"/>
		<polyline class="st3" points="640,120 640,317.8 872.1,317.8 		"/>
		<path class="st2" d="M87.9,341.5h221.8c23.6,0,34-10.6,34.1-34.2L344,120"/>
		<polyline class="st3" points="87.9,317.8 320.3,317.8 320.3,120.1 		"/>
		<path class="st4" d="M180.2,544c11-1.6,26.1-3.9,42.2-4.1c12.9,0,25.8,0,38.8,0c17,1.1,30.5,0.7,43.6,4.8c2.5,0.7,8.6,4.3,8.6,8.7
			v32.9c0,5.3-6.8,6.7-8.6,7.2c-13.1,3.1-26.6,4.4-43.4,4.4h-39.2c-15.3,0-30.5-1.6-42-3.8c-3.2-0.7-8.8-1.3-8.8-8.2v-33.2
			C171.4,543.7,175.6,544.6,180.2,544L180.2,544z"/>
		<path class="st5" d="M258.5,548.1l14.2-2.2c5.6,15.7,5.1,29.6,0,46.3l-14.2-2C262.1,573.5,262.4,565.5,258.5,548.1L258.5,548.1z"
			/>
		<path class="st5" d="M198.1,548.9l8.8,3c-2.2,11.8-2.2,23.3-0.2,34.5l-8.6,3.1C195.8,576.3,196.1,562.4,198.1,548.9L198.1,548.9z"
			/>
		<line class="st6" x1="212.1" y1="545.5" x2="253.1" y2="545.6"/>
		<line class="st6" x1="212.1" y1="592.3" x2="253.1" y2="592.4"/>
		<path class="st7" d="M417.4,181.2c-1.6,11-3.9,26.1-4.1,42.2c0,12.9,0,25.8,0,38.8c1.1,17,0.7,30.5,4.8,43.6
			c0.7,2.5,4.3,8.6,8.7,8.6h32.9c5.3,0,6.7-6.8,7.2-8.6c3.1-13.1,4.4-26.6,4.4-43.4v-39.2c0-15.3-1.6-30.5-3.8-42
			c-0.7-3.2-1.3-8.8-8.2-8.8h-33.2C417.1,172.4,418.1,176.6,417.4,181.2L417.4,181.2z"/>
		<path class="st5" d="M421.5,259.5l-2.2,14.2c15.7,5.6,29.6,5.1,46.3,0l-2-14.2C446.9,263.1,438.9,263.4,421.5,259.5L421.5,259.5z"
			/>
		<path class="st5" d="M422.4,199.2l3,8.8c11.8-2.2,23.3-2.2,34.5-0.2l3.1-8.6C449.8,196.8,435.8,197.1,422.4,199.2L422.4,199.2z"/>
		<line class="st6" x1="418.9" y1="213.1" x2="419.1" y2="254.1"/>
		<line class="st6" x1="465.7" y1="213.1" x2="465.9" y2="254.1"/>
		<path class="st8" d="M779.1,483.7c-11,1.6-26.1,3.9-42.2,4.1c-12.9,0-25.8,0-38.8,0c-16.9-1.1-30.5-0.7-43.6-4.8
			c-2.5-0.7-8.6-4.3-8.6-8.7v-32.9c0-5.3,6.8-6.7,8.6-7.2c13.1-3.1,26.6-4.4,43.4-4.4H737c15.3,0,30.5,1.6,42.1,3.8
			c3.2,0.7,8.8,1.3,8.8,8.2V475C787.9,484,783.6,483,779.1,483.7L779.1,483.7z"/>
		<path class="st5" d="M700.7,479.6l-14.2,2.2c-5.6-15.7-5.1-29.6,0-46.3l14.2,2C697.2,454.2,696.8,462.2,700.7,479.6L700.7,479.6z"
			/>
		<path class="st5" d="M761.1,478.8l-8.8-3c2.2-11.8,2.2-23.3,0.2-34.5l8.6-3.1C763.5,451.3,763.1,465.3,761.1,478.8L761.1,478.8z"
			/>
		<line class="st9" x1="747.2" y1="482.2" x2="706.2" y2="482"/>
		<line class="st9" x1="747.2" y1="435.4" x2="706.2" y2="435.2"/>
		<path class="st10" d="M489.4,792.3c-1.6-11-3.9-26.1-4.1-42.2c0-12.9,0-25.8,0-38.8c1.1-17,0.7-30.5,4.8-43.6
			c0.7-2.5,4.3-8.6,8.7-8.6h32.9c5.3,0,6.7,6.8,7.2,8.6c3.1,13.1,4.4,26.6,4.4,43.4v39.2c0,15.3-1.6,30.5-3.8,42.1
			c-0.7,3.2-1.3,8.8-8.2,8.8h-33.2C489.1,801.1,490.1,796.8,489.4,792.3L489.4,792.3z"/>
		<path class="st5" d="M493.5,713.9l-2.2-14.2c15.7-5.6,29.6-5.1,46.3,0l-2,14.2C518.9,710.4,510.9,710,493.5,713.9L493.5,713.9z"/>
		<path class="st5" d="M494.3,774.3l3-8.8c11.8,2.2,23.3,2.2,34.5,0.2l3.1,8.6C521.8,776.7,507.8,776.3,494.3,774.3L494.3,774.3z"/>
		<line class="st6" x1="490.9" y1="760.4" x2="491.1" y2="719.4"/>
		<line class="st6" x1="537.7" y1="760.4" x2="537.9" y2="719.4"/>
		<polygon class="st11" points="585.7,570.4 553.1,563 553.1,577.8 585.7,570.4 		"/>
		<line class="st12" x1="321.3" y1="570.6" x2="553" y2="570.6"/>
		<path class="st13" d="M490.6,212.4h20c4,0,6.9,0.2,8.9,0.5c1.9,0.3,3.7,1,5.2,2.1c1.5,1.1,2.8,2.4,3.8,4.2c1,1.7,1.5,3.7,1.5,5.9
			c0,2.3-0.6,4.5-1.9,6.5c-1.3,2-3,3.4-5.1,4.4c3,0.9,5.4,2.4,7,4.5c1.6,2.1,2.5,4.7,2.5,7.6c0,2.3-0.5,4.5-1.6,6.6
			c-1.1,2.1-2.5,3.9-4.3,5.2c-1.8,1.3-4.1,2.1-6.8,2.4c-1.7,0.2-5.8,0.3-12.2,0.3h-17.1V212.4L490.6,212.4z M500.8,220.7v11.6h6.6
			c3.9,0,6.4-0.1,7.3-0.2c1.7-0.2,3.1-0.8,4.1-1.8c1-1,1.5-2.3,1.5-3.9c0-1.5-0.4-2.8-1.3-3.8c-0.9-1-2.1-1.6-3.8-1.7
			c-1-0.1-3.9-0.2-8.6-0.2H500.8L500.8,220.7z M500.8,240.7v13.4h9.4c3.7,0,6-0.1,6.9-0.3c1.5-0.3,2.7-0.9,3.7-2
			c0.9-1.1,1.4-2.5,1.4-4.3c0-1.5-0.4-2.8-1.1-3.8c-0.7-1-1.8-1.8-3.2-2.3c-1.4-0.5-4.4-0.7-9-0.7H500.8L500.8,240.7z"/>
		<path class="st13" d="M806.9,434.3h18.5c4.2,0,7.3,0.3,9.5,1c2.9,0.9,5.5,2.4,7.5,4.6c2.1,2.2,3.7,4.9,4.8,8.1
			c1.1,3.2,1.6,7.2,1.6,11.9c0,4.1-0.5,7.7-1.5,10.7c-1.2,3.6-3,6.6-5.4,8.8c-1.7,1.7-4.1,3-7.1,4c-2.2,0.7-5.2,1.1-9,1.1h-19V434.3
			L806.9,434.3z M817,442.8V476h7.5c2.8,0,4.9-0.2,6.1-0.5c1.6-0.4,3-1.1,4.1-2.1c1.1-1,2-2.6,2.6-4.8c0.7-2.2,1-5.3,1-9.2
			c0-3.9-0.4-6.8-1-8.9c-0.7-2.1-1.6-3.7-2.9-4.9c-1.2-1.2-2.8-1.9-4.7-2.4c-1.4-0.3-4.2-0.5-8.3-0.5H817L817,442.8z"/>
		<polygon class="st13" points="427.7,762.4 427.7,712.3 437.6,712.3 458.1,745.7 458.1,712.3 467.5,712.3 467.5,762.4 457.3,762.4 
			437.1,729.7 437.1,762.4 427.7,762.4 		"/>
		<path class="st13" d="M240.7,503.5V495h21.8v20c-2.1,2.1-5.2,3.9-9.2,5.4c-4,1.5-8.1,2.3-12.2,2.3c-5.2,0-9.8-1.1-13.7-3.3
			c-3.9-2.2-6.8-5.3-8.8-9.4c-2-4.1-2.9-8.5-2.9-13.3c0-5.2,1.1-9.9,3.3-13.9c2.2-4,5.4-7.2,9.6-9.3c3.2-1.7,7.2-2.5,12-2.5
			c6.2,0,11.1,1.3,14.6,3.9c3.5,2.6,5.8,6.2,6.8,10.8l-10,1.9c-0.7-2.5-2-4.4-4-5.8c-1.9-1.4-4.4-2.1-7.3-2.1
			c-4.4,0-7.9,1.4-10.5,4.2c-2.6,2.8-3.9,7-3.9,12.5c0,5.9,1.3,10.4,4,13.4c2.6,3,6.1,4.5,10.4,4.5c2.1,0,4.2-0.4,6.4-1.2
			c2.1-0.8,4-1.8,5.5-3v-6.4H240.7L240.7,503.5z"/>
		<polygon class="st11" points="715.5,570.8 683.8,560 682.3,574.7 715.5,570.8 		"/>
		<path class="st12" d="M440.4,319.4c9.1,140.7,93.1,218.5,242.8,247.9"/>
		<polygon class="st11" points="390.6,732.7 401.4,701.1 386.7,699.5 390.6,732.7 		"/>
		<path class="st12" d="M642,457.6c-140.7,9.1-219.5,94.1-248.9,243.8"/>
		<polygon class="st11" points="239.7,402.9 271.3,413.6 272.8,398.9 239.7,402.9 		"/>
		<path class="st12" d="M514.7,654.2c-9.1-140.7-92.1-218.5-241.8-247.9"/>
	</g>
</g>
</svg>
