<?xml version="1.0" encoding="utf-8"?>
<!-- Generator: Adobe Illustrator 19.2.0, SVG Export Plug-In . SVG Version: 6.00 Build 0)  -->
<svg version="1.1" id="Livello_1" xmlns="http://www.w3.org/2000/svg" xmlns:xlink="http://www.w3.org/1999/xlink" x="0px" y="0px"
	 viewBox="0 0 960 960" style="enable-background:new 0 0 960 960;" xml:space="preserve">
<style type="text/css">
	.st0{fill-rule:evenodd;clip-rule:evenodd;fill:#FFFFFF;}
	.st1{fill-rule:evenodd;clip-rule:evenodd;fill:#CECFD1;}
	.st2{fill-rule:evenodd;clip-rule:evenodd;fill:#049853;stroke:#1A171B;stroke-width:1.3916;stroke-miterlimit:2.6131;}
	.st3{fill-rule:evenodd;clip-rule:evenodd;fill:#FFFFFF;stroke:#1A171B;stroke-width:1.3916;stroke-miterlimit:2.6131;}
	.st4{fill:none;stroke:#1A171B;stroke-width:1.8554;stroke-miterlimit:2.6131;}
	.st5{fill-rule:evenodd;clip-rule:evenodd;fill:#3D3D3F;stroke:#1A171B;stroke-width:1.3916;stroke-miterlimit:2.6131;}
	.st6{fill-rule:evenodd;clip-rule:evenodd;fill:#1A171B;}
	.st7{fill-rule:evenodd;clip-rule:evenodd;fill:#00A6E2;stroke:#1A171B;stroke-width:1.3916;stroke-miterlimit:2.6131;}
	.st8{fill-rule:evenodd;clip-rule:evenodd;fill:#E43417;stroke:#1A171B;stroke-width:1.3916;stroke-miterlimit:2.6131;}
	
		.st9{fill-rule:evenodd;clip-rule:evenodd;fill:#FFFFFF;stroke:#1A171B;stroke-width:1.3916;stroke-linecap:square;stroke-miterlimit:2.6131;}
	
		.st10{fill-rule:evenodd;clip-rule:evenodd;fill:#3D3D3F;stroke:#1A171B;stroke-width:1.3916;stroke-linecap:square;stroke-miterlimit:2.6131;}
	.st11{fill:none;stroke:#1A171B;stroke-width:1.3916;stroke-linecap:square;stroke-miterlimit:2.6131;}
	.st12{fill:none;stroke:#1A171B;stroke-width:4.6386;stroke-linecap:square;stroke-miterlimit:2.6131;}
	.st13{fill-rule:evenodd;clip-rule:evenodd;fill:#E1001A;}
	.st14{fill-rule:evenodd;clip-rule:evenodd;fill:#FFFFFF;stroke:#E1001A;stroke-width:4.6386;stroke-miterlimit:2.6131;}
	
		.st15{fill:none;stroke:#1A171B;stroke-width:4.6386;stroke-linecap:square;stroke-miterlimit:2.6131;stroke-dasharray:23.1931,23.1931;}
</style>
<g>
	<g>
		<polygon class="st0" points="359.9,120 674.4,120 674.4,314.2 897,314.2 897,632 674.3,632 674.3,839.9 424.4,839.9 424.4,632 
			63,632 63,314.2 359.9,314.2 359.9,120 		"/>
		<path class="st1" d="M650.8,641.1l0.1,198.8H447.7V641.1c0-23.6-9.4-32.6-32.7-32.6H63.1V337.7l287.9,0.1
			c23.4,0,33.1-9.4,33.1-32.9V120.1h266.7v184.8c0,23.6,9,32.9,32.5,32.9h213.6v270.6H683.2C659.8,608.4,650.8,617.5,650.8,641.1
			L650.8,641.1z"/>
		<path class="st2" d="M517.5,163.6c1.7,11.5,4.1,27.2,4.3,43.9c0,13.4,0,26.8,0,40.4c-1.2,17.6-0.7,31.7-5,45.3
			c-0.7,2.6-4.4,9-9.1,9h-34.2c-5.5,0-7-7.1-7.5-9c-3.2-13.6-4.6-27.7-4.6-45.1v-40.7c0-15.9,1.7-31.7,3.9-43.7
			c0.7-3.4,1.4-9.2,8.5-9.2h34.5C517.8,154.4,516.8,158.8,517.5,163.6L517.5,163.6z"/>
		<path class="st3" d="M513.2,245l2.3,14.8c-16.3,5.8-30.8,5.3-48.2,0l2.1-14.8C486.8,248.8,495.1,249.1,513.2,245L513.2,245z"/>
		<path class="st3" d="M512.3,182.3l-3.1,9.2c-12.3-2.3-24.3-2.3-35.9-0.2l-3.2-9C483.8,179.8,498.3,180.2,512.3,182.3L512.3,182.3z
			"/>
		<line class="st4" x1="515.9" y1="196.7" x2="515.7" y2="239.4"/>
		<line class="st4" x1="467.2" y1="196.7" x2="467.1" y2="239.4"/>
		<polygon class="st5" points="215.8,380.8 247.5,388 247.5,373.6 215.8,380.8 		"/>
		<polygon class="st5" points="793.3,551.8 761.6,544.6 761.6,559 793.3,551.8 		"/>
		<polygon class="st5" points="595.4,251.6 588.2,283.3 602.6,283.3 595.4,251.6 		"/>
		<polygon class="st5" points="351.3,406 382.3,415.4 383.4,401.1 351.3,406 		"/>
		<path class="st6" d="M826,477.4h-11l-4.4-11.4h-20l-4.1,11.4h-10.7l19.5-50.1h10.7L826,477.4L826,477.4z M807.4,457.6l-6.9-18.6
			l-6.8,18.6H807.4L807.4,457.6z"/>
		<path class="st6" d="M401.5,249.6v-50.1h21.3c5.4,0,9.2,0.5,11.7,1.4c2.4,0.9,4.4,2.5,5.8,4.8c1.5,2.3,2.2,4.9,2.2,7.9
			c0,3.8-1.1,6.9-3.3,9.3c-2.2,2.4-5.5,4-9.9,4.6c2.2,1.3,4,2.7,5.4,4.2c1.4,1.5,3.3,4.2,5.8,8.1l6.1,9.8h-12.1l-7.3-10.9
			c-2.6-3.9-4.4-6.3-5.3-7.4c-1-1-2-1.7-3-2.1c-1.1-0.4-2.8-0.6-5.1-0.6h-2v20.9H401.5L401.5,249.6z M411.6,220.7h7.5
			c4.9,0,7.9-0.2,9.1-0.6c1.2-0.4,2.1-1.1,2.8-2.1c0.7-1,1-2.3,1-3.8c0-1.7-0.5-3-1.4-4.1c-0.9-1-2.2-1.7-3.8-2
			c-0.8-0.1-3.3-0.2-7.4-0.2h-7.9V220.7L411.6,220.7z"/>
		<polygon class="st6" points="493.5,757.7 493.5,707.6 503.7,707.6 503.7,727.3 523.5,727.3 523.5,707.6 533.6,707.6 533.6,757.7 
			523.5,757.7 523.5,735.8 503.7,735.8 503.7,757.7 493.5,757.7 		"/>
		<path class="st6" d="M267.7,466.5l9.8,3.1c-1.5,5.5-4,9.5-7.5,12.2c-3.5,2.6-7.9,4-13.3,4c-6.6,0-12.1-2.3-16.4-6.8
			c-4.3-4.5-6.4-10.8-6.4-18.6c0-8.3,2.2-14.8,6.5-19.4c4.3-4.6,10-6.9,17-6.9c6.1,0,11.1,1.8,14.9,5.4c2.3,2.1,4,5.2,5.1,9.2
			l-10,2.4c-0.6-2.6-1.8-4.7-3.7-6.2c-1.9-1.5-4.2-2.2-6.8-2.2c-3.7,0-6.7,1.3-9,4c-2.3,2.7-3.5,7-3.5,12.9c0,6.3,1.1,10.8,3.4,13.5
			c2.3,2.7,5.2,4,8.9,4c2.7,0,5-0.9,6.9-2.6C265.5,472.9,266.8,470.2,267.7,466.5L267.7,466.5z"/>
		<path class="st7" d="M570.1,794.4c-1.7-11.5-4.1-27.2-4.3-43.9c0-13.4,0-26.8,0-40.4c1.2-17.6,0.7-31.7,5-45.3
			c0.7-2.6,4.4-9,9.1-9H614c5.5,0,7,7.1,7.5,9c3.2,13.6,4.6,27.7,4.6,45.1v40.7c0,15.9-1.7,31.7-3.9,43.7c-0.7,3.4-1.4,9.2-8.5,9.2
			h-34.5C569.8,803.6,570.8,799.2,570.1,794.4L570.1,794.4z"/>
		<path class="st3" d="M574.4,713l-2.3-14.8c16.3-5.8,30.8-5.3,48.2,0l-2.1,14.8C600.8,709.3,592.4,708.9,574.4,713L574.4,713z"/>
		<path class="st3" d="M575.2,775.8l3.1-9.2c12.3,2.3,24.3,2.3,35.9,0.2l3.2,9C603.8,778.2,589.3,777.9,575.2,775.8L575.2,775.8z"/>
		<line class="st4" x1="571.7" y1="761.3" x2="571.8" y2="718.6"/>
		<line class="st4" x1="620.3" y1="761.3" x2="620.5" y2="718.6"/>
		<path class="st8" d="M854.7,356.1c-11.5-1.7-27.1-4.1-43.9-4.3c-13.4,0-26.8,0-40.4,0c-17.6,1.2-31.7,0.7-45.3,5
			c-2.6,0.7-9,4.4-9,9.1V400c0,5.5,7.1,7,9,7.5c13.6,3.2,27.7,4.6,45.1,4.6h40.7c15.9,0,31.7-1.7,43.7-3.9c3.3-0.7,9.2-1.4,9.2-8.5
			v-34.5C863.8,355.8,859.4,356.8,854.7,356.1L854.7,356.1z"/>
		<path class="st3" d="M773.2,360.4l-14.8-2.3c-5.8,16.3-5.3,30.8,0,48.2l14.8-2.1C769.5,386.8,769.2,378.4,773.2,360.4L773.2,360.4
			z"/>
		<path class="st3" d="M836,361.2l-9.2,3.1c2.3,12.3,2.3,24.3,0.2,35.9l9,3.2C838.5,389.8,838.1,375.3,836,361.2L836,361.2z"/>
		<line class="st4" x1="821.5" y1="357.7" x2="778.9" y2="357.8"/>
		<line class="st4" x1="821.5" y1="406.3" x2="778.9" y2="406.5"/>
		<path class="st9" d="M388.1,500.5h-29.3c-1.2,0-2.2,1.2-2.2,2.7c0,1.5,1.4,2.7,2.2,2.7H390C390.1,505.9,390.3,500.5,388.1,500.5
			L388.1,500.5z"/>
		<path class="st9" d="M388.1,586.8h-29.3c-1.2,0-2.2-1.2-2.2-2.7c0-1.5,1.4-2.7,2.2-2.7H390C390.1,581.5,390.3,586.8,388.1,586.8
			L388.1,586.8z"/>
		<path class="st9" d="M413.7,503.2v80.9h2.7c4.4,0,8-3.5,8-8v-64.9c0-4.4-3.5-8-8-8H413.7L413.7,503.2z"/>
		<path class="st10" d="M413.9,505.9h-46.8v75.6h46.8c3.5,0,6.7-3,6.7-6.7v-62.2C420.6,508.8,417.6,505.9,413.9,505.9L413.9,505.9z"
			/>
		<path class="st9" d="M399.5,510.8h-23.7c-1.8,0-3.3,2.2-3.3,5v55.7c0,2.9,1.5,5.1,3.3,5.1h23.7c1.8,0,3.1-2.4,3.3-5.1
			c1.6-18.6,1.5-37.1,0-55.7C402.6,513,401.3,510.8,399.5,510.8L399.5,510.8z"/>
		<path class="st9" d="M412.8,509c-1,0.9-6.3,3.9-6.2,4.8c2.6,18.4,2.7,41.4,0,60.4c-0.1,0.3,5.3,3.2,6.2,4c1.1,1,3.2-1.8,3.4-3.6
			c1.6-20.6,1.6-41.4,0-61.9C416,510.6,414,507.8,412.8,509L412.8,509z"/>
		<path class="st9" d="M136.7,500.5h-29.3c-1.2,0-2.2,1.2-2.2,2.7c0,1.5,2.2,2.7,2.2,2.7h31.1C138.6,505.9,138.9,500.5,136.7,500.5
			L136.7,500.5z"/>
		<path class="st9" d="M223.8,500.5h-29.3c-1.2,0-2.2,1.2-2.2,2.7c0,1.5,2.2,2.7,2.2,2.7h31.1C225.8,505.9,226,500.5,223.8,500.5
			L223.8,500.5z"/>
		<path class="st9" d="M136.7,586.8h-29.3c-1.2,0-2.2-1.2-2.2-2.7c0-1.5,2.2-2.7,2.2-2.7h31.1C138.6,581.5,138.9,586.8,136.7,586.8
			L136.7,586.8z"/>
		<path class="st9" d="M223.8,586.8h-29.3c-1.2,0-2.2-1.2-2.2-2.7c0-1.5,2.2-2.7,2.2-2.7h31.1C225.8,581.5,226,586.8,223.8,586.8
			L223.8,586.8z"/>
		<polygon class="st9" points="236.3,525.4 253,543.8 236.3,562.3 236.3,557.2 248.1,543.8 236.3,530.4 236.3,525.4 		"/>
		<polygon class="st9" points="237.4,503.2 94.3,503.2 94.3,584.1 237.4,584.1 237.4,503.2 		"/>
		<polygon class="st9" points="231.4,508.5 100.3,508.5 100.3,578.8 231.4,578.8 231.4,508.5 		"/>
		<path class="st9" d="M292,500.5h-29.3c-1.2,0-2.2,1.2-2.2,2.7c0,1.5,1.4,2.7,2.2,2.7h31.1C294,505.9,294.2,500.5,292,500.5
			L292,500.5z"/>
		<polygon class="st9" points="231.4,522.5 100.3,522.5 100.3,565 231.4,565 231.4,522.5 		"/>
		<path class="st9" d="M292,586.8h-29.3c-1.2,0-2.2-1.2-2.2-2.7c0-1.5,1.4-2.7,2.2-2.7h31.1C294,581.5,294.2,586.8,292,586.8
			L292,586.8z"/>
		<polygon class="st9" points="367.2,503.3 249.6,503.3 249.6,584.2 367.2,584.2 367.2,503.3 		"/>
		<polygon class="st9" points="361.2,508.6 255.6,508.6 255.6,578.9 361.2,578.9 361.2,508.6 		"/>
		<polygon class="st9" points="361.2,522.5 255.6,522.5 255.6,565.1 361.2,565.1 361.2,522.5 		"/>
		<polygon class="st9" points="361.2,536.6 255.6,536.6 255.6,550.8 361.2,550.8 361.2,536.6 		"/>
		<polygon class="st9" points="231.4,536.7 100.3,536.7 100.3,550.9 231.4,550.9 231.4,536.7 		"/>
		<polygon class="st0" points="656.5,448.4 656.5,429.1 686.5,438.7 656.5,448.4 		"/>
		<polygon class="st0" points="656.5,388.6 656.5,369.3 686.5,378.9 656.5,388.6 		"/>
		<polygon class="st0" points="656.5,358.7 656.5,339.4 686.5,349 656.5,358.7 		"/>
		<polygon class="st0" points="656.5,478.3 656.5,459 686.5,468.7 656.5,478.3 		"/>
		<polygon class="st0" points="656.5,418.5 656.5,399.2 686.5,408.8 656.5,418.5 		"/>
		<polygon class="st0" points="573.4,615.3 591.9,615.3 582.7,645.4 573.4,615.3 		"/>
		<polygon class="st0" points="631,615.3 649.6,615.3 640.3,645.4 631,615.3 		"/>
		<polygon class="st0" points="544.6,615.3 563.1,615.3 553.9,645.4 544.6,615.3 		"/>
		<polygon class="st0" points="602.2,615.3 620.7,615.3 611.5,645.4 602.2,615.3 		"/>
		<path class="st11" d="M63,337.8h287.9c23.4,0,33.2-9.4,33.2-32.9V120.1 M650.8,120.1l-0.1,184.8c0,23.6,9,32.9,32.5,32.9h213.7
			 M896.9,608.4H683.1c-23.5,0-32.5,9.1-32.5,32.6l0.1,198.8 M447.7,839.9V641.1c0-23.6-9.4-32.6-32.8-32.6H63"/>
		<path class="st12" d="M674.4,120v194.2l222.5,0.1 M897,632H674.3v207.9 M424.4,839.9V632H63 M63,314.2h296.9V120"/>
		<polygon class="st0" points="544.3,650.3 554.1,650.3 554.1,840 544.3,840 544.3,650.3 		"/>
		<polygon class="st0" points="896.8,469.1 896.8,478.8 691.6,478.8 691.6,469.1 896.8,469.1 		"/>
		<path class="st0" d="M649,334.3l-8-0.8c0.3-6.3,0.6-12.4,0.7-18.8l8,0.1C649.6,321.3,649.3,327.7,649,334.3L649,334.3z M639.7,352
			l8,0.8c-0.7,7.4-1.4,14.7-2.4,21.9l-8-2C638.2,365.9,639,359,639.7,352L639.7,352z M634.2,391l7.9,2c-1.6,7.4-3.3,14.8-5.2,22
			l-7.4-3c0.5-1.8,0.9-3.6,1.5-5.4C632.1,401.4,633.2,396.3,634.2,391L634.2,391z M623.9,429.8l7.7,3.1c-1.3,3.9-2.7,7.9-4.1,11.8
			c-1.3,3.4-2.7,6.6-4.1,9.8l-6.9-3.9C619.2,443.7,621.7,436.8,623.9,429.8L623.9,429.8z M608.5,467.3l7,4
			c-3.6,7-7.4,13.9-11.5,20.6l-6.5-5.1C601.4,480.6,605.1,474,608.5,467.3L608.5,467.3z M587.2,502.4l6.4,5
			c-0.2,0.3-0.4,0.6-0.6,0.8c-4.8,6.1-9.6,11.9-14.7,17.4l-5.4-5.6c2.2-2.5,4.4-5,6.6-7.6C582.2,509.2,584.8,505.8,587.2,502.4
			L587.2,502.4z M560,533.5l5.6,5.8c-1.4,1.4-2.8,2.8-4.2,4.1l-9.1,7.8c-1.7,1.3-3.4,2.6-5,3.8l-4.9-6.5c4.6-3.6,9.1-7.2,13.5-11
			C557.3,536.2,558.7,534.8,560,533.5L560,533.5z M527.5,559.4l4.6,6.4c-6.5,4.3-13.2,8.4-20.2,12.3l-0.2,0.1l-3.9-7.3
			C514.3,567.3,520.9,563.5,527.5,559.4L527.5,559.4z M490.9,579l3.9,7.3c-7.4,3.2-14.9,6-22.3,8.5l-2.7-7.4c1.5-0.5,3-0.9,4.5-1.5
			C480.1,583.7,485.6,581.4,490.9,579L490.9,579z M451.9,592.7l2.9,7.8c-1,0.3-2,0.6-2.9,0.8c-6.6,1.6-14.9,4.1-19.9,5.2l-1.8-8.5
			l6.5-1.4C441.7,595.4,446.9,594.1,451.9,592.7L451.9,592.7z"/>
		<path class="st3" d="M686.9,232c0.1-3.5,2.7-5.6,6.2-5l0.5,0.1l0.6,0.2l0.5,0.2l55.4,31.9c2.5,1.6,3.9,3.9,2.6,6.8
			c-0.6,1.1-1.5,1.9-2.5,2.6L695,300.7c-2.2,1.2-4.5,1.6-6.5-0.2c-1.5-1.4-1.6-3.1-1.6-5.1l0-62.6V232L686.9,232z"/>
		<path class="st13" d="M688.5,232.8c0-1-0.1-1.9,0.6-2.9c0.8-1,2.7-2,4.9-0.9l55.3,31.9c3.1,1.8,3,4.9,0.1,6.6l-55.1,31.8
			c-1.2,0.7-2.8,1.2-4.1,0.5c-1.6-1-1.6-2.6-1.6-4.3L688.5,232.8L688.5,232.8z"/>
		<polygon class="st14" points="695,237 742,264.2 695,291.4 695,237 		"/>
		<line class="st12" x1="753.4" y1="264.2" x2="808" y2="264.2"/>
		<path class="st3" d="M756.4,644.6c3.5,0.1,5.6,2.7,5,6.2l-0.1,0.5l-0.2,0.6l-0.2,0.5l-31.9,55.4c-1.6,2.5-3.9,3.9-6.8,2.6
			c-1.1-0.6-1.9-1.5-2.6-2.5l-31.9-55.2c-1.2-2.2-1.6-4.5,0.2-6.5c1.4-1.5,3.2-1.6,5.1-1.6l62.6,0H756.4L756.4,644.6z"/>
		<path class="st13" d="M755.6,646.2c1,0,1.9-0.1,2.9,0.6c1,0.8,2,2.7,0.9,4.9L727.6,707c-1.8,3.1-4.9,3-6.6,0.1l-31.8-55.1
			c-0.7-1.2-1.2-2.8-0.5-4.1c1-1.6,2.6-1.6,4.3-1.6L755.6,646.2L755.6,646.2z"/>
		<polygon class="st14" points="751.4,652.7 724.2,699.7 697.1,652.7 751.4,652.7 		"/>
		<line class="st12" x1="724.2" y1="711.1" x2="724.2" y2="765.7"/>
		<line class="st15" x1="711.3" y1="380.9" x2="248.6" y2="380.9"/>
		<path class="st15" d="M429.2,545.6c97.4-29.1,166-115.4,165.5-260.7"/>
		<path class="st15" d="M596.2,651.6c-12.3-98.7-71.6-228.8-212.9-243.2"/>
		<path class="st15" d="M492.6,306.4c14.3,126.7,100.9,230.1,265.6,245.1"/>
	</g>
</g>
</svg>
