<?xml version="1.0" encoding="utf-8"?>
<!-- Generator: Adobe Illustrator 19.2.0, SVG Export Plug-In . SVG Version: 6.00 Build 0)  -->
<svg version="1.1" id="Livello_1" xmlns="http://www.w3.org/2000/svg" xmlns:xlink="http://www.w3.org/1999/xlink" x="0px" y="0px"
	 viewBox="0 0 960 960" style="enable-background:new 0 0 960 960;" xml:space="preserve">
<style type="text/css">
	.st0{fill-rule:evenodd;clip-rule:evenodd;fill:#FFFFFF;}
	.st1{fill-rule:evenodd;clip-rule:evenodd;fill:#CECFD1;}
	.st2{fill-rule:evenodd;clip-rule:evenodd;fill:#049853;stroke:#1A171B;stroke-width:1.2487;stroke-miterlimit:2.6131;}
	.st3{fill-rule:evenodd;clip-rule:evenodd;fill:#FFFFFF;stroke:#1A171B;stroke-width:1.2487;stroke-miterlimit:2.6131;}
	.st4{fill:none;stroke:#1A171B;stroke-width:1.6649;stroke-miterlimit:2.6131;}
	.st5{fill-rule:evenodd;clip-rule:evenodd;fill:#3D3D3F;stroke:#1A171B;stroke-width:1.2487;stroke-miterlimit:2.6131;}
	.st6{fill-rule:evenodd;clip-rule:evenodd;fill:#1A171B;}
	.st7{fill-rule:evenodd;clip-rule:evenodd;fill:#00A6E2;stroke:#1A171B;stroke-width:1.2487;stroke-miterlimit:2.6131;}
	
		.st8{fill-rule:evenodd;clip-rule:evenodd;fill:#FFFFFF;stroke:#1A171B;stroke-width:1.2487;stroke-linecap:square;stroke-miterlimit:2.6131;}
	
		.st9{fill-rule:evenodd;clip-rule:evenodd;fill:#3D3D3F;stroke:#1A171B;stroke-width:1.2487;stroke-linecap:square;stroke-miterlimit:2.6131;}
	
		.st10{fill-rule:evenodd;clip-rule:evenodd;fill:#E43417;stroke:#1A171B;stroke-width:1.2487;stroke-linecap:square;stroke-miterlimit:2.6131;}
	.st11{fill:none;stroke:#1A171B;stroke-width:4.1623;stroke-linecap:square;stroke-miterlimit:2.6131;}
	.st12{fill:none;stroke:#1A171B;stroke-width:1.2487;stroke-linecap:square;stroke-miterlimit:2.6131;}
	
		.st13{fill:none;stroke:#1A171B;stroke-width:4.1623;stroke-linecap:square;stroke-miterlimit:2.6131;stroke-dasharray:20.8115,20.8115;}
	.st14{fill-rule:evenodd;clip-rule:evenodd;fill:#E1001A;}
	.st15{fill-rule:evenodd;clip-rule:evenodd;fill:#FFFFFF;stroke:#E1001A;stroke-width:4.1623;stroke-miterlimit:2.6131;}
</style>
<g>
	<g>
		<polygon class="st0" points="545.7,327.7 854.1,327.8 854.1,556.6 545.7,556.5 545.7,840 319.7,840 319.7,556.5 105.9,556.5 
			105.9,327.7 319.7,327.7 319.7,120.1 545.7,120.1 545.7,327.7 		"/>
		<path class="st1" d="M340.7,120H523l-0.1,201.1c-0.1,20.4,6.6,27.8,29.5,27.8h301.8v186.5H552.4c-22.7,0-29.5,6.6-29.5,27.8
			l0.1,276.7H340.7V563.2c0-21.2-6.7-27.8-27.5-27.8H105.9V348.9h207.3c21,0,27.5-6.6,27.5-27.8V120L340.7,120z"/>
		<path class="st2" d="M194.7,474c9-1.3,21.3-3.2,34.4-3.3c10.5,0,21,0,31.6,0c13.8,0.9,24.9,0.5,35.5,3.9c2.1,0.5,7,3.5,7,7.1v26.8
			c0,4.3-5.5,5.5-7,5.9c-10.6,2.5-21.7,3.6-35.4,3.6h-31.9c-12.4,0-24.9-1.3-34.3-3.1c-2.6-0.5-7.2-1.1-7.2-6.7v-27
			C187.5,473.7,190.9,474.5,194.7,474L194.7,474z"/>
		<path class="st3" d="M258.5,477.3l11.6-1.8c4.6,12.8,4.1,24.2,0,37.8l-11.6-1.7C261.4,498,261.7,491.5,258.5,477.3L258.5,477.3z"
			/>
		<path class="st3" d="M209.3,478l7.2,2.4c-1.8,9.6-1.8,19-0.1,28.1l-7,2.5C207.4,500.4,207.7,489,209.3,478L209.3,478z"/>
		<line class="st4" x1="220.6" y1="475.2" x2="254.1" y2="475.3"/>
		<line class="st4" x1="220.6" y1="513.4" x2="254.1" y2="513.5"/>
		<polygon class="st5" points="477,213.3 470.5,241.8 483.4,241.8 477,213.3 		"/>
		<polygon class="st5" points="389.5,616.7 383,588.3 396,588.3 389.5,616.7 		"/>
		<polygon class="st5" points="739.2,495.1 710.8,501.5 710.8,488.6 739.2,495.1 		"/>
		<path class="st6" d="M417.2,185.1h-9.9l-3.9-10.2h-18l-3.7,10.2h-9.6l17.5-44.9h9.6L417.2,185.1L417.2,185.1z M400.5,167.4
			l-6.2-16.7l-6.1,16.7H400.5L400.5,167.4z"/>
		<path class="st6" d="M784.2,503.8v-44.9h19.1c4.8,0,8.3,0.4,10.5,1.2c2.2,0.8,3.9,2.2,5.2,4.3c1.3,2.1,2,4.4,2,7.1
			c0,3.4-1,6.2-3,8.4c-2,2.2-4.9,3.6-8.9,4.1c2,1.2,3.6,2.4,4.9,3.8s3,3.8,5.2,7.3l5.5,8.8h-10.9l-6.6-9.8c-2.3-3.5-3.9-5.7-4.8-6.6
			c-0.9-0.9-1.8-1.5-2.7-1.9c-1-0.3-2.5-0.5-4.6-0.5h-1.8v18.8H784.2L784.2,503.8z M793.3,477.9h6.7c4.4,0,7.1-0.2,8.2-0.5
			c1.1-0.4,1.9-1,2.5-1.9c0.6-0.9,0.9-2,0.9-3.4c0-1.5-0.4-2.7-1.2-3.7c-0.8-0.9-1.9-1.5-3.4-1.8c-0.7-0.1-2.9-0.1-6.6-0.1h-7.1
			V477.9L793.3,477.9z"/>
		<polygon class="st6" points="228,429.9 228,385 261.4,385 261.4,392.6 237.1,392.6 237.1,402.6 259.7,402.6 259.7,410.1 
			237.1,410.1 237.1,422.3 262.2,422.3 262.2,429.9 228,429.9 		"/>
		<path class="st6" d="M388.5,797.1l8.8-0.9c0.5,3,1.6,5.1,3.2,6.5c1.6,1.4,3.8,2.1,6.6,2.1c2.9,0,5.1-0.6,6.6-1.9
			c1.5-1.2,2.2-2.7,2.2-4.3c0-1.1-0.3-2-0.9-2.7c-0.6-0.8-1.7-1.4-3.3-1.9c-1.1-0.4-3.5-1-7.3-2c-4.9-1.2-8.3-2.7-10.2-4.4
			c-2.8-2.5-4.1-5.5-4.1-9c0-2.3,0.6-4.4,1.9-6.4c1.3-2,3.2-3.5,5.6-4.6c2.4-1,5.4-1.6,8.8-1.6c5.7,0,9.9,1.2,12.7,3.7
			c2.8,2.5,4.3,5.8,4.5,9.9l-9.1,0.4c-0.4-2.3-1.2-4-2.5-5c-1.3-1-3.2-1.5-5.7-1.5c-2.6,0-4.7,0.5-6.2,1.6c-1,0.7-1.4,1.6-1.4,2.8
			c0,1.1,0.4,2,1.3,2.7c1.1,1,3.9,2,8.3,3c4.4,1,7.7,2.1,9.8,3.2c2.1,1.1,3.8,2.6,5,4.6c1.2,1.9,1.8,4.3,1.8,7.2
			c0,2.6-0.7,5-2.1,7.2c-1.4,2.2-3.5,3.9-6.1,5c-2.6,1.1-5.9,1.6-9.8,1.6c-5.7,0-10-1.3-13.1-3.9
			C390.9,805.9,389.1,802.1,388.5,797.1L388.5,797.1z"/>
		<path class="st7" d="M413.5,209.2c1.3,9,3.2,21.3,3.3,34.4c0,10.5,0,21,0,31.6c-0.9,13.8-0.5,24.9-3.9,35.5c-0.5,2.1-3.5,7-7.1,7
			h-26.8c-4.3,0-5.5-5.5-5.9-7c-2.5-10.6-3.6-21.7-3.6-35.4v-31.9c0-12.4,1.3-24.9,3.1-34.3c0.5-2.6,1.1-7.2,6.7-7.2h27.1
			C413.8,202,413,205.4,413.5,209.2L413.5,209.2z"/>
		<path class="st3" d="M410.2,273l1.8,11.6c-12.8,4.6-24.2,4.1-37.8,0l1.7-11.6C389.5,275.9,396,276.2,410.2,273L410.2,273z"/>
		<path class="st3" d="M409.5,223.8l-2.4,7.2c-9.6-1.8-19-1.8-28.1-0.1l-2.5-7C387.2,221.9,398.5,222.2,409.5,223.8L409.5,223.8z"/>
		<line class="st4" x1="412.3" y1="235.1" x2="412.2" y2="268.6"/>
		<line class="st4" x1="374.2" y1="235.1" x2="374" y2="268.6"/>
		<path class="st8" d="M442.8,584.9v22.9c0,0.9,0.9,1.7,2.1,1.7c1.2,0,2.1-1.1,2.1-1.7v-24.4C447,583.3,442.8,583.2,442.8,584.9
			L442.8,584.9z"/>
		<path class="st8" d="M510.5,584.9v22.9c0,0.9-0.9,1.7-2.1,1.7c-1.2,0-2.1-1.1-2.1-1.7v-24.4C506.4,583.3,510.5,583.2,510.5,584.9
			L510.5,584.9z"/>
		<path class="st8" d="M444.9,564.8h63.4v-2.1c0-3.5-2.8-6.3-6.3-6.3h-50.9c-3.5,0-6.3,2.8-6.3,6.3V564.8L444.9,564.8z"/>
		<path class="st9" d="M447,564.6v36.7h59.3v-36.7c0-2.8-2.3-5.3-5.3-5.3h-48.7C449.3,559.4,447,561.7,447,564.6L447,564.6z"/>
		<path class="st8" d="M450.9,575.9v18.6c0,1.4,1.7,2.6,3.9,2.6h43.7c2.2,0,4-1.2,4-2.6v-18.6c0-1.4-1.9-2.4-4-2.5
			c-14.6-1.2-29.1-1.2-43.7,0C452.6,573.5,450.9,574.5,450.9,575.9L450.9,575.9z"/>
		<path class="st8" d="M449.5,565.5c0.7,0.8,3.1,5,3.8,4.9c14.4-2,32.4-2.1,47.4,0c0.2,0.1,2.5-4.2,3.2-4.9c0.8-0.8-1.4-2.5-2.9-2.7
			c-16.1-1.3-32.4-1.3-48.5,0C450.7,563,448.6,564.5,449.5,565.5L449.5,565.5z"/>
		<path class="st8" d="M442.8,781.9v22.9c0,0.9,0.9,1.7,2.1,1.7c1.2,0,2.1-1.7,2.1-1.7v-24.4C447,780.5,442.8,780.2,442.8,781.9
			L442.8,781.9z"/>
		<path class="st8" d="M442.8,713.7v22.9c0,0.9,0.9,1.7,2.1,1.7c1.2,0,2.1-1.7,2.1-1.7v-24.4C447,712.1,442.8,712,442.8,713.7
			L442.8,713.7z"/>
		<path class="st8" d="M510.5,781.9v22.9c0,0.9-0.9,1.7-2.1,1.7c-1.2,0-2.1-1.7-2.1-1.7v-24.4C506.4,780.5,510.5,780.2,510.5,781.9
			L510.5,781.9z"/>
		<path class="st8" d="M510.5,713.7v22.9c0,0.9-0.9,1.7-2.1,1.7c-1.2,0-2.1-1.7-2.1-1.7v-24.4C506.4,712.1,510.5,712,510.5,713.7
			L510.5,713.7z"/>
		<polygon class="st8" points="462.3,703.8 476.8,690.8 491.3,703.8 487.3,703.8 476.8,694.7 466.3,703.8 462.3,703.8 		"/>
		<polygon class="st8" points="444.9,703 444.9,815.2 508.4,815.2 508.4,703 444.9,703 		"/>
		<polygon class="st8" points="449.1,707.7 449.1,810.5 504.2,810.5 504.2,707.7 449.1,707.7 		"/>
		<path class="st8" d="M442.8,660.2v22.9c0,0.9,0.9,1.7,2.1,1.7c1.2,0,2.1-1.1,2.1-1.7v-24.4C447,658.7,442.8,658.5,442.8,660.2
			L442.8,660.2z"/>
		<polygon class="st8" points="460.1,707.7 460.1,810.5 493.4,810.5 493.4,707.7 460.1,707.7 		"/>
		<path class="st8" d="M510.5,660.2v22.9c0,0.9-0.9,1.7-2.1,1.7c-1.2,0-2.1-1.1-2.1-1.7v-24.4C506.4,658.7,510.5,658.5,510.5,660.2
			L510.5,660.2z"/>
		<polygon class="st8" points="445,601.3 445,693.5 508.4,693.5 508.4,601.3 445,601.3 		"/>
		<polygon class="st8" points="449.2,605.9 449.2,688.7 504.3,688.7 504.3,605.9 449.2,605.9 		"/>
		<polygon class="st8" points="460.1,605.9 460.1,688.7 493.5,688.7 493.5,605.9 460.1,605.9 		"/>
		<polygon class="st8" points="471.2,605.9 471.2,688.7 482.3,688.7 482.3,605.9 471.2,605.9 		"/>
		<polygon class="st8" points="471.2,707.7 471.2,810.5 482.3,810.5 482.3,707.7 471.2,707.7 		"/>
		<path class="st10" d="M600.4,429.1h22.9c0.9,0,1.7-0.9,1.7-2.1s-1.1-2.1-1.7-2.1h-24.4C598.8,424.9,598.7,429.1,600.4,429.1
			L600.4,429.1z"/>
		<path class="st10" d="M600.4,361.4h22.9c0.9,0,1.7,0.9,1.7,2.1c0,1.2-1.1,2.1-1.7,2.1h-24.4C598.8,365.6,598.7,361.4,600.4,361.4
			L600.4,361.4z"/>
		<path class="st10" d="M580.3,427v-63.4h-2.1c-3.5,0-6.3,2.8-6.3,6.3v50.9c0,3.5,2.8,6.3,6.3,6.3H580.3L580.3,427z"/>
		<path class="st10" d="M580.1,424.9h36.7v-59.3h-36.7c-2.8,0-5.3,2.3-5.3,5.3v48.7C574.9,422.6,577.2,424.9,580.1,424.9
			L580.1,424.9z"/>
		<path class="st10" d="M591.4,421H610c1.4,0,2.5-1.7,2.5-3.9v-43.6c0-2.2-1.2-4-2.5-4h-18.6c-1.4,0-2.4,1.9-2.6,4
			c-1.2,14.6-1.2,29.1,0,43.6C589,419.3,590,421,591.4,421L591.4,421z"/>
		<path class="st8" d="M581,422.4c0.8-0.7,5-3.1,4.9-3.8c-2-14.4-2.1-32.4,0-47.4c0.1-0.2-4.2-2.5-4.9-3.2c-0.8-0.8-2.5,1.4-2.7,2.9
			c-1.3,16.1-1.3,32.4,0,48.5C578.5,421.2,580,423.4,581,422.4L581,422.4z"/>
		<path class="st10" d="M797.4,429.1h22.9c0.9,0,1.7-0.9,1.7-2.1s-1.7-2.1-1.7-2.1H796C796,424.9,795.7,429.1,797.4,429.1
			L797.4,429.1z"/>
		<path class="st10" d="M729.1,429.1h22.9c0.9,0,1.7-0.9,1.7-2.1s-1.7-2.1-1.7-2.1h-24.4C727.6,424.9,727.4,429.1,729.1,429.1
			L729.1,429.1z"/>
		<path class="st10" d="M797.4,361.4h22.9c0.9,0,1.7,0.9,1.7,2.1c0,1.2-1.7,2.1-1.7,2.1H796C796,365.6,795.7,361.4,797.4,361.4
			L797.4,361.4z"/>
		<path class="st10" d="M729.1,361.4h22.9c0.9,0,1.7,0.9,1.7,2.1c0,1.2-1.7,2.1-1.7,2.1h-24.4C727.6,365.6,727.4,361.4,729.1,361.4
			L729.1,361.4z"/>
		<polygon class="st10" points="719.3,409.6 706.3,395.1 719.3,380.7 719.3,384.6 710.1,395.1 719.3,405.7 719.3,409.6 		"/>
		<polygon class="st10" points="718.5,427 830.7,427 830.7,363.6 718.5,363.6 718.5,427 		"/>
		<polygon class="st10" points="723.2,422.8 826,422.8 826,367.7 723.2,367.7 723.2,422.8 		"/>
		<path class="st10" d="M675.7,429.1h22.9c0.9,0,1.7-0.9,1.7-2.1s-1.1-2.1-1.7-2.1h-24.4C674.1,424.9,674,429.1,675.7,429.1
			L675.7,429.1z"/>
		<polygon class="st10" points="723.2,411.9 826,411.9 826,378.5 723.2,378.5 723.2,411.9 		"/>
		<path class="st10" d="M675.7,361.4h22.9c0.9,0,1.7,0.9,1.7,2.1c0,1.2-1.1,2.1-1.7,2.1h-24.4C674.1,365.6,674,361.4,675.7,361.4
			L675.7,361.4z"/>
		<polygon class="st10" points="616.7,426.9 709,426.9 709,363.5 616.7,363.5 616.7,426.9 		"/>
		<polygon class="st10" points="621.4,422.7 704.2,422.7 704.2,367.6 621.4,367.6 621.4,422.7 		"/>
		<polygon class="st10" points="621.4,411.8 704.2,411.8 704.2,378.5 621.4,378.5 621.4,411.8 		"/>
		<polygon class="st10" points="621.4,400.8 704.2,400.8 704.2,389.6 621.4,389.6 621.4,400.8 		"/>
		<polygon class="st10" points="723.2,400.7 826,400.7 826,389.6 723.2,389.6 723.2,400.7 		"/>
		<path class="st11" d="M545.7,120.1v207.6l308.4,0.1 M854.1,556.6l-308.4-0.1V840 M319.7,840V556.5l-213.8,0.1 M105.9,327.7h213.8
			V120.1"/>
		<path class="st12" d="M522.9,120.1v201.1c-0.1,20.4,6.6,27.8,29.5,27.8l301.8-0.1 M854.1,535.4l-301.8,0.1
			c-22.7,0-29.5,6.6-29.5,27.8V840 M340.7,840V563.3c0-21.2-6.7-27.8-27.5-27.8H105.9 M105.9,349h207.3c21,0,27.5-6.6,27.5-27.8
			V120.1"/>
		<polygon class="st0" points="523.1,424.1 523.1,410.4 544.1,417.2 523.1,424.1 		"/>
		<polygon class="st0" points="523.1,381.5 523.1,367.9 544.1,374.7 523.1,381.5 		"/>
		<polygon class="st0" points="523.1,360.3 523.1,346.6 544.1,353.4 523.1,360.3 		"/>
		<polygon class="st0" points="523.1,445.4 523.1,431.7 544.1,438.5 523.1,445.4 		"/>
		<polygon class="st0" points="523.1,402.8 523.1,389.1 544.1,396 523.1,402.8 		"/>
		<polygon class="st0" points="549.7,438.7 854.1,438.7 854.1,445.8 549.7,445.8 549.7,438.7 		"/>
		<polygon class="st0" points="340.5,460.3 340.5,474 319.5,467.1 340.5,460.3 		"/>
		<polygon class="st0" points="340.5,502.8 340.5,516.5 319.5,509.7 340.5,502.8 		"/>
		<polygon class="st0" points="340.5,524.1 340.5,537.8 319.5,530.9 340.5,524.1 		"/>
		<polygon class="st0" points="340.5,439 340.5,452.7 319.5,445.9 340.5,439 		"/>
		<polygon class="st0" points="340.5,481.6 340.5,495.2 319.5,488.4 340.5,481.6 		"/>
		<polygon class="st0" points="313.9,445.6 106,445.6 106,438.6 313.9,438.6 313.9,445.6 		"/>
		<line class="st13" x1="476.9" y1="554.3" x2="476.9" y2="242.2"/>
		<path class="st13" d="M305.1,494.7h404.2 M624.7,494.7c-141.9,0.5-224.5-54.4-231.2-174.6"/>
		<path class="st13" d="M567.9,394.4c-150.3,0.9-178,89.4-178.1,192.9"/>
		<path class="st3" d="M308.3,628c-0.1,3-2.4,4.8-5.4,4.3l-0.5-0.1L302,632l-0.5-0.2l-48-27.7c-2.1-1.4-3.3-3.3-2.3-5.9
			c0.5-1,1.3-1.7,2.2-2.2l47.8-27.6c1.9-1,3.9-1.4,5.6,0.1c1.3,1.2,1.4,2.7,1.4,4.4l0,54.3V628L308.3,628z"/>
		<path class="st14" d="M306.9,627.3c0,0.8,0.1,1.7-0.6,2.6c-0.7,0.9-2.3,1.7-4.2,0.7l-47.9-27.6c-2.7-1.6-2.6-4.3-0.1-5.8
			l47.8-27.6c1-0.6,2.5-1.1,3.5-0.4c1.4,0.9,1.4,2.3,1.4,3.8L306.9,627.3L306.9,627.3z"/>
		<polygon class="st15" points="301.3,623.6 260.5,600 301.3,576.5 301.3,623.6 		"/>
		<path class="st3" d="M557.1,256.4c0.1-3,2.4-4.8,5.4-4.3l0.5,0.1l0.5,0.2l0.5,0.2l48,27.7c2.1,1.4,3.3,3.3,2.3,5.9
			c-0.5,1-1.3,1.7-2.2,2.2L564.1,316c-1.9,1-3.9,1.4-5.6-0.1c-1.3-1.2-1.4-2.7-1.4-4.4l0-54.3V256.4L557.1,256.4z"/>
		<path class="st14" d="M558.5,257.1c0-0.8-0.1-1.7,0.6-2.6c0.6-0.9,2.3-1.7,4.2-0.7l47.9,27.6c2.7,1.5,2.6,4.3,0.1,5.8l-47.8,27.6
			c-1,0.6-2.5,1.1-3.5,0.4c-1.4-0.9-1.4-2.3-1.4-3.8L558.5,257.1L558.5,257.1z"/>
		<polygon class="st15" points="564.1,260.8 604.9,284.3 564.1,307.9 564.1,260.8 		"/>
		<line class="st11" x1="250.8" y1="600.2" x2="203.4" y2="600.2"/>
		<line class="st11" x1="614.6" y1="284.2" x2="662" y2="284.2"/>
	</g>
</g>
</svg>
