<?xml version="1.0" encoding="utf-8"?>
<!-- Generator: Adobe Illustrator 19.2.0, SVG Export Plug-In . SVG Version: 6.00 Build 0)  -->
<svg version="1.1" id="Livello_1" xmlns="http://www.w3.org/2000/svg" xmlns:xlink="http://www.w3.org/1999/xlink" x="0px" y="0px"
	 viewBox="0 0 960 960" style="enable-background:new 0 0 960 960;" xml:space="preserve">
<style type="text/css">
	.st0{fill-rule:evenodd;clip-rule:evenodd;fill:#FFFFFF;}
	.st1{fill-rule:evenodd;clip-rule:evenodd;fill:#CECFD1;}
	.st2{fill-rule:evenodd;clip-rule:evenodd;fill:#FFEC00;stroke:#1A171B;stroke-width:1.39;stroke-miterlimit:2.6131;}
	.st3{fill-rule:evenodd;clip-rule:evenodd;fill:#FFFFFF;stroke:#1A171B;stroke-width:1.39;stroke-miterlimit:2.6131;}
	.st4{fill:none;stroke:#1A171B;stroke-width:1.8533;stroke-miterlimit:2.6131;}
	.st5{fill-rule:evenodd;clip-rule:evenodd;fill:#3D3D3F;stroke:#1A171B;stroke-width:1.39;stroke-miterlimit:2.6131;}
	.st6{fill:none;stroke:#1A171B;stroke-width:1.39;stroke-linecap:square;stroke-miterlimit:2.6131;}
	.st7{fill:none;stroke:#1A171B;stroke-width:4.6334;stroke-linecap:square;stroke-miterlimit:2.6131;}
	.st8{fill-rule:evenodd;clip-rule:evenodd;fill:#00A6E2;stroke:#1A171B;stroke-width:1.39;stroke-miterlimit:2.6131;}
	.st9{fill-rule:evenodd;clip-rule:evenodd;fill:#E43417;stroke:#1A171B;stroke-width:1.39;stroke-miterlimit:2.6131;}
	
		.st10{fill:none;stroke:#1A171B;stroke-width:4.6334;stroke-linecap:square;stroke-miterlimit:2.6131;stroke-dasharray:23.1668,23.1668;}
	.st11{fill-rule:evenodd;clip-rule:evenodd;fill:#1A171B;}
</style>
<g>
	<g>
		<polygon class="st0" points="45.1,774.1 45.1,834.1 290.7,834.1 482.2,642.5 592.7,834.1 864.9,834.1 705.9,558.6 915,558.6 
			915,324.2 634.2,324.2 634.2,126.3 326,126.3 326,324.2 45.1,324.2 45.1,558.6 260.5,558.6 45.1,774.1 		"/>
		<path class="st1" d="M45,812.8v21.3h207.1l212.6-212.7c10.6-11.8,27.3-14.3,37.2,0.5l122.4,212.1h209L678.6,566.4
			c-7.2-18.6-1.3-34.5,25.5-35.2H915V351.6l-271.5,0.1c-27.1,0-36.9-10.3-36.7-36.6l-0.1-189.2H353v189.2
			c-0.1,26.9-9.4,36.6-36.6,36.6L45,351.6v179.7h228c24.4,4.9,28.4,24.8,14.9,38.7L45,812.8L45,812.8z"/>
		<path class="st2" d="M859,378.5c-13.3-2-31.5-4.8-50.9-5c-15.5,0-31.1,0-46.8,0c-20.5,1.4-36.8,0.8-52.6,5.8
			c-3.1,0.8-10.4,5.2-10.4,10.5v39.6c0,6.3,8.2,8.1,10.4,8.7c15.7,3.8,32.1,5.4,52.4,5.4h47.3c18.4,0,36.8-2,50.7-4.6
			c3.9-0.8,10.6-1.6,10.6-9.9v-40C869.6,378.1,864.5,379.3,859,378.5L859,378.5z"/>
		<path class="st3" d="M764.5,383.5l-17.2-2.7c-6.7,18.9-6.1,35.8,0,55.9l17.2-2.5C760.2,414.1,759.8,404.4,764.5,383.5L764.5,383.5
			z"/>
		<path class="st3" d="M837.3,384.5l-10.6,3.6c2.7,14.3,2.7,28.1,0.2,41.6l10.4,3.8C840.2,417.6,839.8,400.7,837.3,384.5
			L837.3,384.5z"/>
		<line class="st4" x1="820.5" y1="380.3" x2="771" y2="380.5"/>
		<line class="st4" x1="820.5" y1="436.8" x2="771" y2="437"/>
		<polygon class="st5" points="250.9,658.6 282.8,638.5 270.9,626.7 250.9,658.6 		"/>
		<path class="st6" d="M45,531.3h228c24.4,4.9,28.4,24.8,14.9,38.7L45,812.8 M252.1,834.1l212.6-212.7c10.6-11.8,27.3-14.3,37.2,0.5
			l122.4,212.1 M833.3,834.1L678.6,566.4c-7.2-18.6-1.3-34.5,25.5-35.2H915 M915,351.6l-271.5,0.1c-27.1,0-36.9-10.3-36.7-36.6
			l-0.1-189.2 M353.2,126.3L353,315.1c-0.1,26.9-9.4,36.6-36.6,36.6L45,351.6"/>
		<path class="st7" d="M325.9,125.9v198.3H45 M45,558.6h215.4L45,774.1 M290.6,834.1l191.5-191.6l110.6,191.6 M864.8,834.1
			l-159-275.5l209.1,0.2 M914.9,324.2H634.1V126.3"/>
		<polygon class="st5" points="782.9,488.2 746.2,479.8 746.2,496.5 782.9,488.2 		"/>
		<path class="st8" d="M678.6,724.9c-8.6-10.4-20.3-24.5-30.5-41c-8-13.3-16.1-26.6-24.2-40.1c-9.4-18.2-18.3-31.9-22.2-48
			c-0.9-3-1-11.6,3.6-14.4l33.9-20.5c5.4-3.3,11.2,2.8,12.9,4.4c11.4,11.5,21.2,24.7,31.6,42.1l24.4,40.5
			c9.5,15.8,17.3,32.5,22.3,45.8c1.3,3.7,4.1,9.9-3,14.2l-34.3,20.7C683.8,734.3,682.2,729.3,678.6,724.9L678.6,724.9z"/>
		<path class="st3" d="M634,641.5l-11.2-13.3c12.7-15.5,27.5-23.7,47.9-28.9l6.8,16C658.1,622,649.6,626.6,634,641.5L634,641.5z"/>
		<path class="st3" d="M672.5,703.3l-2.4-10.9c13.6-5.1,25.5-12.3,35.7-21.3l8.6,7C702.3,688.7,687.7,697,672.5,703.3L672.5,703.3z"
			/>
		<line class="st4" x1="660.3" y1="691.1" x2="634.9" y2="648.6"/>
		<line class="st4" x1="708.7" y1="661.9" x2="683.3" y2="619.4"/>
		<path class="st9" d="M246.1,725.5c8-10.8,18.9-25.7,32.4-39.6c11-11,21.9-22,33.1-33.2c15.4-13.5,26.6-25.5,41.2-33.2
			c2.7-1.6,11-3.8,14.8,0l28.1,28c4.5,4.5,0,11.5-1.2,13.5c-8.4,13.8-18.9,26.5-33.2,40.9l-33.4,33.5c-13,13-27.4,24.7-39,32.7
			c-3.3,2.2-8.6,6.4-14.5,0.5L246,740.4C238.3,732.7,242.8,729.9,246.1,725.5L246.1,725.5z"/>
		<path class="st3" d="M316.3,662l10.2-14.1c18.2,8.6,29.7,20.9,39.6,39.5l-13.9,10.4C341,680.6,334.5,673.5,316.3,662L316.3,662z"
			/>
		<path class="st3" d="M265.6,714.3l10-5c8.2,12,18.1,21.8,29.3,29.5l-4.7,10C287,739.7,275.4,727.5,265.6,714.3L265.6,714.3z"/>
		<line class="st4" x1="274.5" y1="699.5" x2="309.6" y2="664.5"/>
		<line class="st4" x1="314.5" y1="739.3" x2="349.6" y2="704.4"/>
		<path class="st10" d="M384.5,630.8c98.3-106.4,197.6-146.4,359-142.9"/>
		<path class="st10" d="M618.8,568.1c-50.9-78.8-191.4-69-340.2,62.9"/>
		<path class="st10" d="M694.2,408.4c-150.3,4.5-281.8,83.9-415.7,221.9"/>
		<path class="st11" d="M817.8,515.7v-57.8h24.6c6.2,0,10.7,0.5,13.5,1.6c2.8,1,5,2.9,6.7,5.5c1.7,2.7,2.5,5.7,2.5,9.1
			c0,4.3-1.3,7.9-3.8,10.8c-2.5,2.8-6.4,4.6-11.4,5.3c2.5,1.5,4.6,3.1,6.3,4.9c1.6,1.8,3.8,4.9,6.6,9.4l7.1,11.3h-14l-8.4-12.6
			c-3-4.5-5.1-7.3-6.2-8.5c-1.1-1.2-2.3-2-3.5-2.4c-1.2-0.4-3.2-0.6-5.9-0.6h-2.4v24.1H817.8L817.8,515.7z M829.5,482.3h8.6
			c5.6,0,9.1-0.2,10.5-0.7c1.4-0.5,2.5-1.3,3.3-2.4c0.8-1.2,1.2-2.6,1.2-4.3c0-2-0.5-3.5-1.6-4.7c-1-1.2-2.5-2-4.4-2.3
			c-0.9-0.1-3.8-0.2-8.5-0.2h-9.1V482.3L829.5,482.3z"/>
		<path class="st11" d="M760.1,795h-12.7l-5-13.1h-23.1l-4.8,13.1h-12.4l22.5-57.8H737L760.1,795L760.1,795z M738.6,772.1l-8-21.5
			l-7.8,21.5H738.6L738.6,772.1z"/>
		<path class="st11" d="M236.2,795.6l11.4,3.6c-1.7,6.3-4.6,11.1-8.7,14.1c-4,3.1-9.2,4.6-15.4,4.6c-7.7,0-14.1-2.6-19-7.9
			c-5-5.3-7.5-12.5-7.5-21.6c0-9.7,2.5-17.2,7.5-22.5c5-5.3,11.6-8,19.7-8c7.1,0,12.9,2.1,17.3,6.3c2.7,2.5,4.6,6,6,10.7l-11.6,2.8
			c-0.7-3-2.1-5.4-4.3-7.1c-2.2-1.7-4.8-2.6-7.9-2.6c-4.3,0-7.8,1.5-10.5,4.6c-2.7,3.1-4,8.1-4,15c0,7.3,1.3,12.6,4,15.7
			c2.6,3.1,6.1,4.7,10.3,4.7c3.1,0,5.8-1,8-3C233.6,803,235.2,799.8,236.2,795.6L236.2,795.6z"/>
	</g>
</g>
</svg>
