<?xml version="1.0" encoding="utf-8"?>
<!-- Generator: Adobe Illustrator 19.2.0, SVG Export Plug-In . SVG Version: 6.00 Build 0)  -->
<svg version="1.1" id="Livello_1" xmlns="http://www.w3.org/2000/svg" xmlns:xlink="http://www.w3.org/1999/xlink" x="0px" y="0px"
	 viewBox="0 0 960 960" style="enable-background:new 0 0 960 960;" xml:space="preserve">
<style type="text/css">
	.st0{fill-rule:evenodd;clip-rule:evenodd;fill:#FFFFFF;}
	.st1{fill-rule:evenodd;clip-rule:evenodd;fill:#CECFD1;}
	.st2{fill:none;stroke:#1A171B;stroke-width:1.4518;stroke-linecap:square;stroke-miterlimit:2.6131;}
	.st3{fill-rule:evenodd;clip-rule:evenodd;fill:#FFEC00;stroke:#1A171B;stroke-width:1.4518;stroke-miterlimit:2.6131;}
	.st4{fill-rule:evenodd;clip-rule:evenodd;fill:#FFFFFF;stroke:#1A171B;stroke-width:1.4518;stroke-miterlimit:2.6131;}
	.st5{fill:none;stroke:#1A171B;stroke-width:1.9357;stroke-miterlimit:2.6131;}
	.st6{fill-rule:evenodd;clip-rule:evenodd;fill:#3D3D3F;stroke:#1A171B;stroke-width:1.4518;stroke-miterlimit:2.6131;}
	.st7{fill-rule:evenodd;clip-rule:evenodd;fill:#1A171B;}
	.st8{fill-rule:evenodd;clip-rule:evenodd;fill:#00A6E2;stroke:#1A171B;stroke-width:1.4518;stroke-miterlimit:2.6131;}
	.st9{fill-rule:evenodd;clip-rule:evenodd;fill:#E43417;stroke:#1A171B;stroke-width:1.4518;stroke-miterlimit:2.6131;}
	
		.st10{fill:none;stroke:#1A171B;stroke-width:4.8393;stroke-linecap:square;stroke-miterlimit:2.6131;stroke-dasharray:24.1967,24.1967;}
	.st11{fill:none;stroke:#1A171B;stroke-width:4.8393;stroke-linecap:square;stroke-miterlimit:2.6131;}
</style>
<g>
	<g>
		<polygon class="st0" points="45.1,774.1 45.1,834.1 290.7,834.1 482.2,642.5 592.7,834.1 864.9,834.1 705.9,558.6 915,558.6 
			915,324.2 634.2,324.2 634.2,126.3 326,126.3 326,324.2 45.1,324.2 45.1,558.6 260.5,558.6 45.1,774.1 		"/>
		<path class="st1" d="M45,812.8v21.3h207.1l212.6-212.7c10.6-11.8,27.3-14.3,37.2,0.5l122.4,212.1h209L678.6,566.4
			c-7.2-18.6-1.3-34.5,25.5-35.2H915V351.6l-271.5,0.1c-27.1,0-36.9-10.3-36.7-36.6l-0.1-189.2H353.1v189.2
			c-0.1,26.9-9.4,36.6-36.6,36.6L45,351.6v179.7h228c24.4,4.9,28.4,24.8,14.9,38.7L45,812.8L45,812.8z"/>
		<path class="st2" d="M45,531.3h228c24.4,4.9,28.4,24.8,14.9,38.7L45,812.8 M252.1,834.1l212.6-212.7c10.6-11.8,27.3-14.3,37.2,0.5
			l122.4,212.1 M833.3,834.1L678.6,566.4c-7.2-18.6-1.3-34.5,25.5-35.2H915 M915,351.6l-271.5,0.1c-27.1,0-36.9-10.3-36.7-36.6
			l-0.1-189.2 M353.2,126.3l-0.1,188.8c-0.1,26.9-9.4,36.6-36.6,36.6L45,351.6"/>
		<path class="st3" d="M766.3,380c-13.3-2-31.5-4.8-50.9-5c-15.5,0-31.1,0-46.8,0c-20.5,1.4-36.8,0.8-52.6,5.7
			c-3.1,0.8-10.4,5.1-10.4,10.5v39.6c0,6.3,8.2,8.1,10.4,8.7c15.8,3.8,32.1,5.3,52.4,5.3h47.2c18.4,0,36.8-2,50.7-4.6
			c3.9-0.8,10.6-1.6,10.6-9.9v-40C777,379.6,771.9,380.8,766.3,380L766.3,380z"/>
		<path class="st4" d="M671.8,384.9l-17.2-2.7c-6.8,18.9-6.1,35.8,0,55.9l17.2-2.5C667.5,415.5,667.1,405.9,671.8,384.9L671.8,384.9
			z"/>
		<path class="st4" d="M744.7,385.9l-10.6,3.6c2.7,14.3,2.7,28.1,0.2,41.6l10.4,3.8C747.5,419,747.1,402.2,744.7,385.9L744.7,385.9z
			"/>
		<line class="st5" x1="727.9" y1="381.7" x2="678.4" y2="381.9"/>
		<line class="st5" x1="727.9" y1="438.2" x2="678.4" y2="438.4"/>
		<polygon class="st6" points="775.5,487.9 738.7,479.5 738.7,496.2 775.5,487.9 		"/>
		<polygon class="st6" points="332.6,577.5 364.2,556.9 352.2,545.3 332.6,577.5 		"/>
		<polygon class="st6" points="384.8,410.7 421.6,419.1 421.6,402.4 384.8,410.7 		"/>
		<polygon class="st7" points="711.5,803.6 711.5,746 723.2,746 723.2,793.8 752.4,793.8 752.4,803.6 711.5,803.6 		"/>
		<path class="st7" d="M182.8,763.5H206c4.6,0,8,0.2,10.3,0.6c2.3,0.4,4.3,1.2,6.1,2.4c1.8,1.2,3.3,2.8,4.5,4.9
			c1.2,2,1.8,4.3,1.8,6.8c0,2.7-0.7,5.2-2.2,7.5c-1.5,2.3-3.5,4-6,5.1c3.5,1,6.3,2.8,8.2,5.3c1.9,2.5,2.9,5.4,2.9,8.8
			c0,2.6-0.6,5.2-1.8,7.7c-1.2,2.5-2.9,4.5-5,6c-2.1,1.5-4.7,2.4-7.9,2.8c-1.9,0.2-6.7,0.3-14.1,0.4h-19.8V763.5L182.8,763.5z
			 M194.5,773.2v13.4h7.7c4.6,0,7.4-0.1,8.5-0.2c2-0.2,3.6-0.9,4.7-2.1c1.1-1.1,1.7-2.7,1.7-4.5c0-1.8-0.5-3.3-1.5-4.4
			c-1-1.1-2.5-1.8-4.4-2c-1.2-0.1-4.5-0.2-10-0.2H194.5L194.5,773.2z M194.5,796.3v15.5h10.8c4.2,0,6.9-0.1,8-0.4
			c1.7-0.3,3.2-1.1,4.3-2.3c1.1-1.2,1.7-2.9,1.7-4.9c0-1.7-0.4-3.2-1.3-4.4c-0.8-1.2-2.1-2.1-3.7-2.7c-1.6-0.6-5.1-0.8-10.4-0.8
			H194.5L194.5,796.3z"/>
		<path class="st7" d="M851.3,417.7l11.4,3.6c-1.7,6.3-4.6,11.1-8.7,14.1c-4,3.1-9.2,4.6-15.4,4.6c-7.7,0-14.1-2.6-19-7.9
			c-5-5.3-7.4-12.5-7.4-21.6c0-9.7,2.5-17.2,7.5-22.5c5-5.3,11.6-8,19.7-8c7.1,0,12.9,2.1,17.3,6.3c2.7,2.5,4.6,6,6,10.7l-11.6,2.8
			c-0.7-3-2.1-5.4-4.3-7.1c-2.2-1.7-4.8-2.6-7.9-2.6c-4.3,0-7.8,1.5-10.5,4.6c-2.7,3.1-4,8.1-4,15c0,7.3,1.3,12.6,4,15.7
			c2.6,3.1,6.1,4.7,10.3,4.7c3.1,0,5.8-1,8-3C848.7,425.1,850.3,421.9,851.3,417.7L851.3,417.7z"/>
		<path class="st8" d="M671.2,724.6c-8.6-10.4-20.3-24.5-30.5-41.1c-8-13.3-16.1-26.6-24.2-40.1c-9.4-18.2-18.3-31.9-22.2-48
			c-0.9-3-1-11.6,3.6-14.4l33.9-20.5c5.4-3.3,11.2,2.8,12.9,4.4c11.4,11.5,21.2,24.7,31.6,42.1l24.4,40.5
			c9.5,15.8,17.3,32.5,22.3,45.8c1.3,3.7,4.1,9.9-3,14.2l-34.3,20.7C676.3,733.9,674.7,729,671.2,724.6L671.2,724.6z"/>
		<path class="st4" d="M626.6,641.2l-11.2-13.3c12.7-15.5,27.5-23.7,47.9-28.9l6.8,16C650.6,621.7,642.1,626.3,626.6,641.2
			L626.6,641.2z"/>
		<path class="st4" d="M665,703l-2.4-10.9c13.6-5.1,25.5-12.3,35.7-21.3l8.6,7C694.9,688.4,680.2,696.7,665,703L665,703z"/>
		<line class="st5" x1="652.8" y1="690.8" x2="627.4" y2="648.3"/>
		<line class="st5" x1="701.2" y1="661.6" x2="675.8" y2="619.1"/>
		<path class="st9" d="M238.6,725.1c8-10.8,18.9-25.7,32.4-39.6c11-11,21.9-22,33.1-33.2c15.4-13.5,26.6-25.5,41.2-33.2
			c2.7-1.6,11-3.8,14.8,0l28.1,28c4.5,4.5,0,11.5-1.2,13.5c-8.5,13.8-18.9,26.5-33.2,40.9l-33.4,33.5c-13,13-27.4,24.7-39,32.7
			c-3.3,2.2-8.6,6.4-14.5,0.5l-28.4-28.3C230.8,732.4,235.3,729.6,238.6,725.1L238.6,725.1z"/>
		<path class="st4" d="M308.8,661.7l10.2-14.1c18.2,8.6,29.7,20.9,39.6,39.5l-13.9,10.4C333.6,680.3,327,673.2,308.8,661.7
			L308.8,661.7z"/>
		<path class="st4" d="M258.2,714l10-5c8.2,12,18.1,21.7,29.3,29.5l-4.7,10C279.6,739.4,267.9,727.2,258.2,714L258.2,714z"/>
		<line class="st5" x1="267" y1="699.2" x2="302.1" y2="664.2"/>
		<line class="st5" x1="307.1" y1="739" x2="342.1" y2="704.1"/>
		<line class="st10" x1="602.3" y1="410.7" x2="423.4" y2="410.7"/>
		<path class="st10" d="M377,630.4C475.3,524,574.6,484.1,736,487.5"/>
		<path class="st10" d="M611.3,567.8c-50.9-78.8-163.3-111.8-252.4-17.7"/>
		<path class="st11" d="M325.9,125.9v198.3H45 M45,558.6h215.4L45,774.1 M290.6,834.1l191.5-191.6l110.6,191.6 M864.8,834.1
			l-159-275.5l209.1,0.2 M914.9,324.2H634.1V126.3"/>
	</g>
</g>
</svg>
