<?xml version="1.0" encoding="utf-8"?>
<!-- Generator: Adobe Illustrator 19.2.0, SVG Export Plug-In . SVG Version: 6.00 Build 0)  -->
<svg version="1.1" id="Livello_1" xmlns="http://www.w3.org/2000/svg" xmlns:xlink="http://www.w3.org/1999/xlink" x="0px" y="0px"
	 viewBox="0 0 960 960" style="enable-background:new 0 0 960 960;" xml:space="preserve">
<style type="text/css">
	.st0{fill-rule:evenodd;clip-rule:evenodd;fill:#FFFFFF;}
	.st1{fill-rule:evenodd;clip-rule:evenodd;fill:#CECFD1;}
	.st2{fill-rule:evenodd;clip-rule:evenodd;fill:#FFEC00;stroke:#1A171B;stroke-width:1.39;stroke-miterlimit:2.6131;}
	.st3{fill-rule:evenodd;clip-rule:evenodd;fill:#FFFFFF;stroke:#1A171B;stroke-width:1.39;stroke-miterlimit:2.6131;}
	.st4{fill:none;stroke:#1A171B;stroke-width:1.8533;stroke-miterlimit:2.6131;}
	.st5{fill-rule:evenodd;clip-rule:evenodd;fill:#00A6E2;stroke:#1A171B;stroke-width:1.39;stroke-miterlimit:2.6131;}
	.st6{fill-rule:evenodd;clip-rule:evenodd;fill:#E43417;stroke:#1A171B;stroke-width:1.39;stroke-miterlimit:2.6131;}
	.st7{fill:none;stroke:#1A171B;stroke-width:1.39;stroke-linecap:square;stroke-miterlimit:2.6131;}
	.st8{fill:none;stroke:#1A171B;stroke-width:4.6333;stroke-linecap:square;stroke-miterlimit:2.6131;}
	
		.st9{fill:none;stroke:#1A171B;stroke-width:4.6333;stroke-linecap:square;stroke-miterlimit:2.6131;stroke-dasharray:23.1665,23.1665;}
	.st10{fill-rule:evenodd;clip-rule:evenodd;fill:#1A171B;}
	.st11{fill-rule:evenodd;clip-rule:evenodd;fill:#3D3D3F;stroke:#1A171B;stroke-width:1.39;stroke-miterlimit:2.6131;}
</style>
<g>
	<g>
		<polygon class="st0" points="45.1,773.9 45.1,833.9 290.7,833.9 482.2,642.3 592.7,833.9 864.9,833.9 705.8,558.5 915,558.5 
			915,324.1 634.1,324.1 634.1,126.1 326,126.1 326,324.1 45.1,324.1 45.1,558.5 260.3,558.5 45.1,773.9 		"/>
		<path class="st1" d="M45,812.7v21.3h207.1l212.6-212.7c10.6-11.8,27.3-14.3,37.2,0.5l122.4,212.1h209L678.6,566.3
			c-7.2-18.6-1.3-34.5,25.5-35.2h211V351.4l-271.6,0c-27.1,0-36.9-10.2-36.7-36.5V126.1H353.1v188.9c-0.1,26.9-9.6,36.5-36.7,36.5
			l-271.3,0v179.7h227.8c24.4,4.9,28.5,24.9,15,38.8L45,812.7L45,812.7z"/>
		<path class="st2" d="M865.3,376.8c-13.3-2-31.5-4.8-50.9-5c-15.5,0-31.1,0-46.8,0c-20.5,1.4-36.8,0.8-52.6,5.7
			c-3.1,0.8-10.4,5.2-10.4,10.5v39.6c0,6.3,8.2,8.1,10.4,8.7c15.7,3.8,32.1,5.4,52.4,5.4h47.3c18.4,0,36.8-2,50.7-4.6
			c3.9-0.8,10.6-1.6,10.6-9.9v-40C875.9,376.4,870.8,377.6,865.3,376.8L865.3,376.8z"/>
		<path class="st3" d="M770.8,381.8l-17.2-2.7c-6.7,18.9-6.1,35.8,0,55.9l17.2-2.5C766.5,412.4,766,402.7,770.8,381.8L770.8,381.8z"
			/>
		<path class="st3" d="M843.6,382.8l-10.6,3.6c2.7,14.3,2.7,28.1,0.2,41.6l10.4,3.8C846.4,415.9,846,399,843.6,382.8L843.6,382.8z"
			/>
		<line class="st4" x1="826.8" y1="378.6" x2="777.3" y2="378.8"/>
		<line class="st4" x1="826.8" y1="435.1" x2="777.3" y2="435.3"/>
		<path class="st5" d="M83.6,445.5c13.3-2,31.5-4.8,50.9-5c15.5,0,31.1,0,46.8,0c20.5,1.4,36.8,0.8,52.6,5.7
			c3.1,0.8,10.4,5.2,10.4,10.5v39.6c0,6.3-8.2,8.1-10.4,8.7c-15.8,3.8-32.1,5.4-52.4,5.4h-47.3c-18.4,0-36.8-2-50.7-4.6
			c-3.9-0.8-10.6-1.6-10.6-9.9v-40C73,445.1,78.1,446.3,83.6,445.5L83.6,445.5z"/>
		<path class="st3" d="M178.1,450.5l17.2-2.7c6.7,18.9,6.1,35.8,0,55.9l-17.2-2.5C182.4,481.1,182.8,471.4,178.1,450.5L178.1,450.5z
			"/>
		<path class="st3" d="M105.3,451.5l10.6,3.6c-2.7,14.3-2.7,28.1-0.2,41.6l-10.4,3.8C102.5,484.6,102.9,467.7,105.3,451.5
			L105.3,451.5z"/>
		<line class="st4" x1="122.1" y1="447.3" x2="171.6" y2="447.5"/>
		<line class="st4" x1="122.1" y1="503.8" x2="171.6" y2="504"/>
		<path class="st6" d="M443.2,164.9c2,13.3,4.8,31.5,5,50.9c0,15.5,0,31.1,0,46.8c-1.4,20.5-0.8,36.8-5.7,52.6
			c-0.8,3.1-5.2,10.4-10.5,10.4h-39.6c-6.3,0-8.1-8.2-8.7-10.4c-3.8-15.8-5.4-32.1-5.4-52.4v-47.3c0-18.4,2-36.8,4.6-50.7
			c0.8-3.9,1.6-10.6,9.9-10.6h40C443.6,154.2,442.4,159.3,443.2,164.9L443.2,164.9z"/>
		<path class="st3" d="M438.3,259.4l2.7,17.2c-18.9,6.7-35.8,6.1-55.9,0l2.5-17.2C407.6,263.7,417.3,264.1,438.3,259.4L438.3,259.4z
			"/>
		<path class="st3" d="M437.3,186.5l-3.6,10.6c-14.3-2.7-28.1-2.7-41.6-0.2l-3.8-10.4C404.2,183.7,421,184.1,437.3,186.5
			L437.3,186.5z"/>
		<line class="st4" x1="441.4" y1="203.3" x2="441.2" y2="252.8"/>
		<line class="st4" x1="384.9" y1="203.3" x2="384.7" y2="252.8"/>
		<path class="st7" d="M45.1,531.1h227.8c24.4,4.9,28.5,24.9,15,38.8L45,812.7 M252.1,833.9l212.6-212.7
			c10.6-11.8,27.3-14.3,37.2,0.5l122.4,212.1 M833.3,833.9L678.6,566.3c-7.2-18.6-1.3-34.5,25.5-35.2h211 M915,351.4l-271.6,0
			c-27.1,0-36.9-10.2-36.7-36.5V126.1 M353.1,126.1v188.9c-0.1,26.9-9.6,36.5-36.7,36.5l-271.3,0"/>
		<path class="st8" d="M326,126.1l0,198.1H45.1 M45.1,558.5h215.2L45,773.9 M290.5,833.9l191.5-191.6l110.6,191.6 M864.8,833.9
			l-159-275.4H915 M915,324.1H634.1l0-198.1"/>
		<path class="st9" d="M252.6,476.8c217.3-1.4,275.1-102.4,303.6-233.3"/>
		<path class="st9" d="M412.9,334.7c-19.2,71-73.6,67.5-166.7,66"/>
		<path class="st10" d="M124.6,368.9h22.6c4.5,0,7.8,0.2,10,0.6c2.2,0.4,4.2,1.1,5.9,2.3c1.7,1.2,3.2,2.8,4.3,4.7
			c1.2,2,1.7,4.2,1.7,6.6c0,2.6-0.7,5.1-2.1,7.3c-1.4,2.2-3.4,3.9-5.8,5c3.4,1,6.1,2.7,7.9,5.1c1.9,2.4,2.8,5.3,2.8,8.5
			c0,2.6-0.6,5.1-1.8,7.5c-1.2,2.4-2.8,4.4-4.9,5.8c-2.1,1.5-4.6,2.3-7.7,2.7c-1.9,0.2-6.5,0.3-13.8,0.4h-19.3V368.9L124.6,368.9z
			 M136.1,378.4v13.1h7.5c4.5,0,7.2-0.1,8.3-0.2c2-0.2,3.5-0.9,4.6-2c1.1-1.1,1.7-2.6,1.7-4.4c0-1.8-0.5-3.2-1.4-4.3
			c-1-1.1-2.4-1.8-4.3-2c-1.1-0.1-4.4-0.2-9.8-0.2H136.1L136.1,378.4z M136.1,400.9V416h10.6c4.1,0,6.7-0.1,7.8-0.3
			c1.7-0.3,3.1-1.1,4.2-2.3c1.1-1.2,1.6-2.8,1.6-4.8c0-1.7-0.4-3.1-1.2-4.3c-0.8-1.2-2-2.1-3.6-2.6c-1.6-0.5-4.9-0.8-10.1-0.8H136.1
			L136.1,400.9z"/>
		<polygon class="st10" points="470.6,255.5 470.6,198.9 482,198.9 482,221.2 504.4,221.2 504.4,198.9 515.8,198.9 515.8,255.5 
			504.4,255.5 504.4,230.8 482,230.8 482,255.5 470.6,255.5 		"/>
		<path class="st10" d="M779.3,458.7h20.9c4.7,0,8.3,0.4,10.8,1.1c3.3,1,6.2,2.7,8.5,5.2c2.4,2.5,4.2,5.5,5.4,9.2
			c1.2,3.6,1.8,8.1,1.8,13.4c0,4.7-0.6,8.7-1.7,12c-1.4,4.1-3.4,7.4-6.1,10c-2,1.9-4.7,3.4-8,4.5c-2.5,0.8-5.9,1.2-10.1,1.2h-21.5
			V458.7L779.3,458.7z M790.8,468.3v37.5h8.5c3.2,0,5.5-0.2,6.9-0.5c1.8-0.5,3.4-1.2,4.6-2.3c1.2-1.1,2.2-2.9,3-5.5
			c0.8-2.5,1.2-6,1.2-10.4c0-4.4-0.4-7.7-1.2-10.1c-0.8-2.3-1.9-4.2-3.2-5.5c-1.4-1.3-3.2-2.2-5.3-2.7c-1.6-0.4-4.7-0.5-9.4-0.5
			H790.8L790.8,468.3z"/>
		<polygon class="st11" points="509.3,407.7 544.5,415.7 544.5,399.7 509.3,407.7 		"/>
		<polygon class="st11" points="560.3,207.6 548.2,243.3 564.8,245.1 560.3,207.6 		"/>
		<polygon class="st11" points="210.3,400.8 245.4,408.8 245.4,392.8 210.3,400.8 		"/>
		<line class="st9" x1="697.3" y1="407.7" x2="543.2" y2="407.7"/>
	</g>
</g>
</svg>
