<?xml version="1.0" encoding="utf-8"?>
<!-- Generator: Adobe Illustrator 19.2.0, SVG Export Plug-In . SVG Version: 6.00 Build 0)  -->
<svg version="1.1" id="Livello_1" xmlns="http://www.w3.org/2000/svg" xmlns:xlink="http://www.w3.org/1999/xlink" x="0px" y="0px"
	 viewBox="0 0 960 960" style="enable-background:new 0 0 960 960;" xml:space="preserve">
<style type="text/css">
	.st0{fill-rule:evenodd;clip-rule:evenodd;fill:#FFFFFF;}
	.st1{fill-rule:evenodd;clip-rule:evenodd;fill:#CECFD1;}
	.st2{fill-rule:evenodd;clip-rule:evenodd;fill:#FFEC00;stroke:#1A171B;stroke-width:1.39;stroke-miterlimit:2.6131;}
	.st3{fill-rule:evenodd;clip-rule:evenodd;fill:#FFFFFF;stroke:#1A171B;stroke-width:1.39;stroke-miterlimit:2.6131;}
	.st4{fill:none;stroke:#1A171B;stroke-width:1.8533;stroke-miterlimit:2.6131;}
	.st5{fill-rule:evenodd;clip-rule:evenodd;fill:#3D3D3F;stroke:#1A171B;stroke-width:1.39;stroke-miterlimit:2.6131;}
	.st6{fill-rule:evenodd;clip-rule:evenodd;fill:#1A171B;}
	.st7{fill-rule:evenodd;clip-rule:evenodd;fill:#00A6E2;stroke:#1A171B;stroke-width:1.39;stroke-miterlimit:2.6131;}
	.st8{fill-rule:evenodd;clip-rule:evenodd;fill:#E43417;stroke:#1A171B;stroke-width:1.39;stroke-miterlimit:2.6131;}
	.st9{fill:none;stroke:#1A171B;stroke-width:1.39;stroke-linecap:square;stroke-miterlimit:2.6131;}
	.st10{fill:none;stroke:#1A171B;stroke-width:4.6334;stroke-linecap:square;stroke-miterlimit:2.6131;}
	
		.st11{fill:none;stroke:#1A171B;stroke-width:4.6334;stroke-linecap:square;stroke-miterlimit:2.6131;stroke-dasharray:23.1668,23.1668;}
</style>
<g>
	<g>
		<polygon class="st0" points="45.1,774.1 45.1,834.1 290.7,834.1 482.2,642.5 592.7,834.1 864.9,834.1 705.9,558.6 915,558.6 
			915,324.2 634.2,324.2 634.2,126.3 326,126.3 326,324.2 45.1,324.2 45.1,558.6 260.5,558.6 45.1,774.1 		"/>
		<path class="st1" d="M45,812.8v21.3h207.1l212.6-212.7c10.6-11.8,27.3-14.3,37.2,0.5l122.4,212.1h209L678.6,566.4
			c-7.2-18.6-1.3-34.5,25.5-35.2H915V351.6l-271.5,0.1c-27.1,0-36.9-10.3-36.7-36.6l-0.1-189.2H353v189.2
			c-0.1,26.9-9.4,36.6-36.6,36.6L45,351.6v179.7h228c24.4,4.9,28.4,24.8,14.9,38.7L45,812.8L45,812.8z"/>
		<path class="st2" d="M859,386.4c-13.3-2-31.5-4.8-50.9-5c-15.5,0-31.1,0-46.8,0c-20.5,1.4-36.8,0.8-52.6,5.7
			c-3.1,0.8-10.4,5.2-10.4,10.5v39.6c0,6.3,8.2,8.1,10.4,8.7c15.7,3.8,32.1,5.4,52.4,5.4h47.3c18.4,0,36.8-2,50.7-4.6
			c3.9-0.8,10.6-1.6,10.6-9.9v-40C869.6,386,864.5,387.2,859,386.4L859,386.4z"/>
		<path class="st3" d="M764.5,391.4l-17.2-2.7c-6.7,18.9-6.1,35.8,0,55.9l17.2-2.5C760.2,422,759.8,412.4,764.5,391.4L764.5,391.4z"
			/>
		<path class="st3" d="M837.3,392.4l-10.6,3.6c2.7,14.3,2.7,28.1,0.2,41.6l10.4,3.8C840.2,425.5,839.8,408.6,837.3,392.4
			L837.3,392.4z"/>
		<line class="st4" x1="820.5" y1="388.2" x2="771" y2="388.4"/>
		<line class="st4" x1="820.5" y1="444.7" x2="771" y2="444.9"/>
		<polygon class="st5" points="564.5,243.9 549.1,278.3 565.5,281.6 564.5,243.9 		"/>
		<polygon class="st5" points="250.9,658.6 282.8,638.5 270.9,626.7 250.9,658.6 		"/>
		<polygon class="st5" points="336.1,594.7 368,574.5 356.1,562.7 336.1,594.7 		"/>
		<path class="st6" d="M187.8,425.8h-12.7l-5-13.1h-23.1l-4.8,13.1h-12.4l22.5-57.8h12.3L187.8,425.8L187.8,425.8z M166.3,402.9
			l-8-21.5l-7.8,21.5H166.3L166.3,402.9z"/>
		<path class="st6" d="M764.5,463.4h23.1c4.6,0,8,0.2,10.2,0.6c2.2,0.4,4.3,1.2,6,2.4c1.8,1.2,3.2,2.8,4.4,4.8
			c1.2,2,1.8,4.3,1.8,6.8c0,2.7-0.7,5.2-2.2,7.5c-1.5,2.3-3.4,4-5.9,5.1c3.5,1,6.2,2.8,8.1,5.2c1.9,2.5,2.8,5.4,2.8,8.7
			c0,2.6-0.6,5.2-1.8,7.7c-1.2,2.5-2.9,4.5-5,6c-2.1,1.5-4.7,2.4-7.8,2.7c-1.9,0.2-6.6,0.3-14.1,0.4h-19.7V463.4L764.5,463.4z
			 M776.2,473v13.4h7.6c4.5,0,7.4-0.1,8.5-0.2c2-0.2,3.6-0.9,4.7-2.1c1.1-1.1,1.7-2.7,1.7-4.5c0-1.8-0.5-3.2-1.5-4.4
			c-1-1.1-2.5-1.8-4.4-2c-1.2-0.1-4.5-0.2-10-0.2H776.2L776.2,473z M776.2,496v15.5H787c4.2,0,6.9-0.1,8-0.4
			c1.7-0.3,3.1-1.1,4.2-2.3c1.1-1.2,1.6-2.9,1.6-4.9c0-1.7-0.4-3.2-1.3-4.4c-0.8-1.2-2.1-2.1-3.7-2.7c-1.6-0.6-5-0.8-10.4-0.8H776.2
			L776.2,496z"/>
		<polygon class="st6" points="463.1,269.6 463.1,211.8 506,211.8 506,221.6 474.8,221.6 474.8,234.4 503.8,234.4 503.8,244.1 
			474.8,244.1 474.8,259.9 507.1,259.9 507.1,269.6 463.1,269.6 		"/>
		<path class="st7" d="M83.6,445.7c13.3-2,31.5-4.8,50.9-5c15.5,0,31.1,0,46.8,0c20.5,1.4,36.8,0.8,52.6,5.7
			c3.1,0.8,10.4,5.2,10.4,10.5v39.6c0,6.3-8.2,8.1-10.4,8.7c-15.8,3.8-32.1,5.4-52.4,5.4h-47.3c-18.4,0-36.8-2-50.7-4.6
			c-3.9-0.8-10.6-1.6-10.6-9.9v-40C73,445.3,78.1,446.5,83.6,445.7L83.6,445.7z"/>
		<path class="st3" d="M178.1,450.6l17.2-2.7c6.7,18.9,6.1,35.8,0,55.9l-17.2-2.5C182.4,481.3,182.8,471.6,178.1,450.6L178.1,450.6z
			"/>
		<path class="st3" d="M105.3,451.6l10.6,3.6c-2.7,14.3-2.7,28.1-0.2,41.6l-10.4,3.8C102.5,484.7,102.9,467.9,105.3,451.6
			L105.3,451.6z"/>
		<line class="st4" x1="122.1" y1="447.5" x2="171.6" y2="447.7"/>
		<line class="st4" x1="122.1" y1="504" x2="171.6" y2="504.2"/>
		<path class="st8" d="M443.2,165c2,13.3,4.8,31.5,5,50.9c0,15.5,0,31.1,0,46.8c-1.4,20.5-0.8,36.8-5.7,52.6
			c-0.8,3.1-5.2,10.4-10.5,10.4h-39.6c-6.3,0-8.1-8.2-8.7-10.4c-3.8-15.8-5.4-32.1-5.4-52.4v-47.3c0-18.4,2-36.8,4.6-50.7
			c0.8-3.9,1.6-10.6,9.9-10.6h40C443.6,154.4,442.4,159.5,443.2,165L443.2,165z"/>
		<path class="st3" d="M438.3,259.5l2.7,17.2c-18.9,6.8-35.8,6.1-55.9,0l2.5-17.2C407.6,263.8,417.3,264.2,438.3,259.5L438.3,259.5z
			"/>
		<path class="st3" d="M437.3,186.7l-3.6,10.6c-14.3-2.7-28.1-2.7-41.6-0.2l-3.8-10.4C404.2,183.8,421,184.3,437.3,186.7
			L437.3,186.7z"/>
		<line class="st4" x1="441.4" y1="203.5" x2="441.2" y2="253"/>
		<line class="st4" x1="384.9" y1="203.5" x2="384.7" y2="253"/>
		<path class="st9" d="M45,531.3h228c24.4,4.9,28.4,24.8,14.9,38.7L45,812.8 M252.1,834.1l212.6-212.7c10.6-11.8,27.3-14.3,37.2,0.5
			l122.4,212.1 M833.3,834.1L678.6,566.4c-7.2-18.6-1.3-34.5,25.5-35.2H915 M915,351.6l-271.5,0.1c-27.1,0-36.9-10.3-36.7-36.6
			l-0.1-189.2 M353.2,126.3L353,315.1c-0.1,26.9-9.4,36.6-36.6,36.6L45,351.6"/>
		<path class="st10" d="M325.9,125.9v198.3H45 M45,558.6h215.4L45,774.1 M290.6,834.1l191.5-191.6l110.6,191.6 M864.8,834.1
			l-159-275.5l209.1,0.2 M914.9,324.2H634.1V126.3"/>
		<path class="st11" d="M247.3,477c159.4,0.9,280.8-74.6,309.3-194.8"/>
		<path class="st11" d="M413.6,328.9c-0.4,127.2-65.1,229.6-136.2,302.1"/>
		<path class="st11" d="M696.8,416.5c-150.3,4.4-237.7,56.1-334.2,151.4"/>
	</g>
</g>
</svg>
