<?xml version="1.0" encoding="utf-8"?>
<!-- Generator: Adobe Illustrator 19.2.0, SVG Export Plug-In . SVG Version: 6.00 Build 0)  -->
<svg version="1.1" id="Livello_1" xmlns="http://www.w3.org/2000/svg" xmlns:xlink="http://www.w3.org/1999/xlink" x="0px" y="0px"
	 viewBox="0 0 960 960" style="enable-background:new 0 0 960 960;" xml:space="preserve">
<style type="text/css">
	.st0{fill-rule:evenodd;clip-rule:evenodd;fill:#FFFFFF;}
	.st1{fill-rule:evenodd;clip-rule:evenodd;fill:#CECFD1;}
	.st2{fill-rule:evenodd;clip-rule:evenodd;fill:#FFEC00;stroke:#1A171B;stroke-width:1.39;stroke-miterlimit:2.6131;}
	.st3{fill-rule:evenodd;clip-rule:evenodd;fill:#FFFFFF;stroke:#1A171B;stroke-width:1.39;stroke-miterlimit:2.6131;}
	.st4{fill:none;stroke:#1A171B;stroke-width:1.8534;stroke-miterlimit:2.6131;}
	.st5{fill-rule:evenodd;clip-rule:evenodd;fill:#3D3D3F;stroke:#1A171B;stroke-width:1.39;stroke-miterlimit:2.6131;}
	.st6{fill-rule:evenodd;clip-rule:evenodd;fill:#E43417;stroke:#1A171B;stroke-width:1.39;stroke-miterlimit:2.6131;}
	.st7{fill:none;stroke:#1A171B;stroke-width:1.39;stroke-linecap:square;stroke-miterlimit:2.6131;}
	.st8{fill:none;stroke:#1A171B;stroke-width:4.6334;stroke-linecap:square;stroke-miterlimit:2.6131;}
	.st9{fill:none;stroke:#FFFFFF;stroke-width:1.8534;stroke-miterlimit:2.6131;}
	.st10{fill-rule:evenodd;clip-rule:evenodd;fill:#00A6E2;stroke:#1A171B;stroke-width:1.39;stroke-miterlimit:2.6131;}
	
		.st11{fill:none;stroke:#1A171B;stroke-width:4.6334;stroke-linecap:square;stroke-miterlimit:2.6131;stroke-dasharray:23.1669,23.1669;}
	.st12{fill-rule:evenodd;clip-rule:evenodd;fill:#1A171B;}
</style>
<g>
	<g>
		<polygon class="st0" points="45.1,774.1 45.1,834.1 290.7,834.1 482.2,642.5 592.7,834.1 864.9,834.1 705.8,558.6 915,558.6 
			915,324.2 634.1,324.2 634.2,126.3 326,126.3 325.9,324.2 45.1,324.2 45.1,558.6 260.3,558.6 45.1,774.1 		"/>
		<path class="st1" d="M45,812.8v21.3h207.1l212.6-212.7c10.6-11.8,27.3-14.3,37.2,0.5l122.4,212.1h209L678.6,566.4
			c-7.2-18.6-1.4-34.6,25.4-35.3h211V351.5H643.5c-27.1,0-36.7-10.3-36.5-36.5V126.3H353.1v188.7c-0.1,26.9-9.6,36.5-36.7,36.5H45.1
			v179.7h227.7c24.4,4.9,28.6,25,15,38.9L45,812.8L45,812.8z"/>
		<path class="st2" d="M842,378.5c-13.3-2-31.5-4.8-50.9-5c-15.5,0-31.1,0-46.9,0c-20.5,1.4-36.8,0.8-52.6,5.8
			c-3.1,0.8-10.4,5.2-10.4,10.5v39.6c0,6.3,8.2,8.1,10.4,8.7c15.7,3.8,32.1,5.4,52.4,5.4h47.3c18.4,0,36.8-2,50.7-4.6
			c3.9-0.8,10.6-1.6,10.6-9.9v-40C852.6,378.1,847.5,379.3,842,378.5L842,378.5z"/>
		<path class="st3" d="M747.5,383.5l-17.2-2.7c-6.7,18.9-6.1,35.8,0,55.9l17.2-2.5C743.2,414.1,742.8,404.4,747.5,383.5L747.5,383.5
			z"/>
		<path class="st3" d="M820.3,384.5l-10.6,3.6c2.7,14.3,2.7,28.1,0.2,41.6l10.4,3.8C823.2,417.6,822.8,400.7,820.3,384.5
			L820.3,384.5z"/>
		<line class="st4" x1="803.5" y1="380.3" x2="754" y2="380.5"/>
		<line class="st4" x1="803.5" y1="436.8" x2="754" y2="437"/>
		<polygon class="st5" points="281.4,628.8 313.2,608.6 301.4,596.8 281.4,628.8 		"/>
		<path class="st6" d="M433.3,160.8c2,13.3,4.8,31.5,5,50.9c0,15.5,0,31.1,0,46.8c-1.4,20.5-0.8,36.8-5.7,52.6
			c-0.8,3.1-5.2,10.4-10.5,10.4h-39.6c-6.3,0-8.1-8.2-8.7-10.4c-3.8-15.7-5.4-32.1-5.4-52.4v-47.3c0-18.4,2-36.8,4.6-50.7
			c0.8-3.9,1.6-10.6,9.9-10.6h40C433.7,150.1,432.5,155.2,433.3,160.8L433.3,160.8z"/>
		<path class="st3" d="M428.3,255.3l2.7,17.2c-18.9,6.8-35.8,6.1-55.9,0l2.5-17.2C397.7,259.6,407.4,260,428.3,255.3L428.3,255.3z"
			/>
		<path class="st3" d="M427.3,182.5l-3.6,10.6c-14.3-2.7-28.1-2.7-41.6-0.2l-3.8-10.4C394.2,179.6,411.1,180,427.3,182.5
			L427.3,182.5z"/>
		<line class="st4" x1="431.5" y1="199.2" x2="431.3" y2="248.7"/>
		<line class="st4" x1="375" y1="199.2" x2="374.8" y2="248.7"/>
		<path class="st7" d="M45.1,531.1h227.7c24.4,4.9,28.6,25,15,38.9L45,812.8 M252.1,834.1l212.6-212.7c10.6-11.8,27.3-14.3,37.2,0.5
			l122.4,212.1 M833.3,834.1L678.6,566.4c-7.2-18.6-1.4-34.6,25.4-35.3h211 M915,351.5H643.5c-27.1,0-36.7-10.3-36.5-36.5V126.3
			 M353.1,126.3v188.7c-0.1,26.9-9.6,36.5-36.7,36.5H45.1"/>
		<path class="st8" d="M325.9,125.9l0,198.3H45.1 M45.1,558.6h215.2L45,774.1 M290.6,834.1l191.5-191.6l110.6,191.6 M864.8,834.1
			l-159-275.5H915 M915,324.2H634.1l-0.1-197.9"/>
		<polygon class="st5" points="783,488.2 746.2,479.8 746.2,496.5 783,488.2 		"/>
		<path class="st5" d="M678.6,724.9c-8.6-10.4-20.3-24.5-30.5-41c-8-13.3-16.1-26.6-24.2-40.1c-9.4-18.2-18.3-31.9-22.2-48
			c-0.9-3-1-11.6,3.6-14.4l33.9-20.5c5.4-3.3,11.2,2.8,12.9,4.4c11.4,11.5,21.2,24.7,31.6,42.1l24.4,40.5
			c9.5,15.8,17.3,32.5,22.3,45.8c1.3,3.7,4.1,9.9-3,14.2l-34.3,20.7C683.8,734.3,682.2,729.3,678.6,724.9L678.6,724.9z"/>
		<path class="st3" d="M634.1,641.5l-11.2-13.3c12.7-15.5,27.5-23.7,47.9-28.9l6.8,16C658.1,622,649.6,626.6,634.1,641.5
			L634.1,641.5z"/>
		<path class="st3" d="M672.5,703.3l-2.4-10.9c13.6-5.1,25.5-12.3,35.7-21.3l8.6,7C702.3,688.7,687.7,697,672.5,703.3L672.5,703.3z"
			/>
		<line class="st9" x1="660.3" y1="691.1" x2="634.9" y2="648.6"/>
		<line class="st9" x1="708.7" y1="661.9" x2="683.3" y2="619.4"/>
		<path class="st10" d="M270.2,702.8c8-10.8,18.9-25.7,32.4-39.6c11-11,21.9-22,33.1-33.2c15.4-13.5,26.6-25.5,41.2-33.2
			c2.7-1.6,11-3.8,14.8,0l28.1,28c4.5,4.5,0,11.5-1.2,13.5c-8.4,13.8-18.9,26.5-33.2,40.9L352,712.7c-13,13-27.4,24.7-39,32.7
			c-3.3,2.2-8.6,6.4-14.5,0.5l-28.4-28.3C262.4,710,266.8,707.2,270.2,702.8L270.2,702.8z"/>
		<path class="st3" d="M340.4,639.3l10.2-14.1c18.2,8.6,29.7,20.9,39.6,39.5l-13.9,10.4C365.1,657.9,358.6,650.8,340.4,639.3
			L340.4,639.3z"/>
		<path class="st3" d="M289.7,691.6l10-5c8.2,12,18.1,21.7,29.3,29.5l-4.7,10C311.1,717,299.5,704.8,289.7,691.6L289.7,691.6z"/>
		<line class="st4" x1="298.6" y1="676.8" x2="333.7" y2="641.9"/>
		<line class="st4" x1="338.6" y1="716.7" x2="373.7" y2="681.7"/>
		<path class="st11" d="M411.4,603.8c99.7-100.8,183.4-118,332-116"/>
		<path class="st11" d="M615.9,563.9c-72.2-101.5-184.7-86.8-309.4,39.2"/>
		<path class="st11" d="M402.3,330.3c-0.4,127.2,1.2,158.6-95.1,273"/>
		<path class="st11" d="M671.5,408.4c-161.6,13-218,31.4-364.7,195"/>
		<path class="st12" d="M839.6,457.7h22.6c4.5,0,7.8,0.2,10,0.6c2.2,0.4,4.2,1.1,5.9,2.3c1.7,1.2,3.2,2.8,4.3,4.7
			c1.2,2,1.7,4.2,1.7,6.6c0,2.6-0.7,5.1-2.1,7.3c-1.4,2.2-3.4,3.9-5.8,5c3.4,1,6.1,2.7,7.9,5.1c1.9,2.4,2.8,5.3,2.8,8.5
			c0,2.6-0.6,5.1-1.8,7.5c-1.2,2.4-2.8,4.4-4.9,5.8c-2.1,1.5-4.6,2.4-7.7,2.7c-1.9,0.2-6.5,0.3-13.8,0.4h-19.3V457.7L839.6,457.7z
			 M851.1,467.2v13.1h7.5c4.5,0,7.2-0.1,8.3-0.2c2-0.2,3.5-0.9,4.6-2c1.1-1.1,1.7-2.6,1.7-4.4c0-1.8-0.5-3.2-1.4-4.3
			c-1-1.1-2.4-1.8-4.3-2c-1.1-0.1-4.4-0.2-9.8-0.2H851.1L851.1,467.2z M851.1,489.7v15.1h10.6c4.1,0,6.7-0.1,7.8-0.3
			c1.7-0.3,3.1-1.1,4.2-2.3c1.1-1.2,1.6-2.8,1.6-4.8c0-1.7-0.4-3.1-1.2-4.3c-0.8-1.2-2-2.1-3.6-2.6c-1.6-0.5-4.9-0.8-10.1-0.8H851.1
			L851.1,489.7z"/>
		<path class="st12" d="M577.2,662.7h20.9c4.7,0,8.3,0.4,10.8,1.1c3.3,1,6.2,2.7,8.5,5.2c2.4,2.5,4.2,5.5,5.4,9.2
			c1.2,3.6,1.8,8.1,1.8,13.4c0,4.7-0.6,8.7-1.7,12.1c-1.4,4.1-3.4,7.4-6.1,10c-2,1.9-4.7,3.4-8,4.5c-2.5,0.8-5.9,1.2-10.1,1.2h-21.5
			V662.7L577.2,662.7z M588.6,672.3v37.5h8.5c3.2,0,5.5-0.2,6.9-0.5c1.8-0.5,3.4-1.2,4.6-2.4c1.2-1.1,2.2-2.9,3-5.5
			c0.8-2.5,1.2-6,1.2-10.4c0-4.4-0.4-7.7-1.2-10.1c-0.8-2.3-1.9-4.2-3.2-5.5c-1.4-1.3-3.2-2.2-5.3-2.7c-1.6-0.4-4.7-0.5-9.4-0.5
			H588.6L588.6,672.3z"/>
		<path class="st12" d="M457.5,250.6V194h24.1c6.1,0,10.4,0.5,13.2,1.5c2.7,1,4.9,2.8,6.6,5.4c1.6,2.6,2.5,5.6,2.5,8.9
			c0,4.2-1.3,7.8-3.7,10.5c-2.5,2.8-6.2,4.5-11.2,5.2c2.5,1.4,4.5,3,6.1,4.8c1.6,1.7,3.8,4.8,6.5,9.2l6.9,11h-13.7l-8.3-12.3
			c-2.9-4.4-4.9-7.2-6-8.3c-1.1-1.1-2.2-1.9-3.4-2.4c-1.2-0.4-3.1-0.6-5.8-0.6h-2.3v23.6H457.5L457.5,250.6z M468.9,217.9h8.4
			c5.5,0,8.9-0.2,10.3-0.7c1.4-0.5,2.4-1.3,3.2-2.4c0.8-1.1,1.2-2.5,1.2-4.2c0-1.9-0.5-3.4-1.5-4.6c-1-1.2-2.5-1.9-4.3-2.2
			c-0.9-0.1-3.7-0.2-8.3-0.2h-8.9V217.9L468.9,217.9z"/>
		<polygon class="st12" points="243.9,801.7 243.9,754.6 227.1,754.6 227.1,745 272.1,745 272.1,754.6 255.4,754.6 255.4,801.7 
			243.9,801.7 		"/>
	</g>
</g>
</svg>
