<?xml version="1.0" encoding="utf-8"?>
<!-- Generator: Adobe Illustrator 19.2.0, SVG Export Plug-In . SVG Version: 6.00 Build 0)  -->
<svg version="1.1" id="Livello_1" xmlns="http://www.w3.org/2000/svg" xmlns:xlink="http://www.w3.org/1999/xlink" x="0px" y="0px"
	 viewBox="0 0 960 960" style="enable-background:new 0 0 960 960;" xml:space="preserve">
<style type="text/css">
	.st0{fill-rule:evenodd;clip-rule:evenodd;fill:#FFFFFF;}
	.st1{fill-rule:evenodd;clip-rule:evenodd;fill:#CECFD1;}
	.st2{fill-rule:evenodd;clip-rule:evenodd;fill:#FFEC00;stroke:#1A171B;stroke-width:1.39;stroke-miterlimit:2.6131;}
	.st3{fill-rule:evenodd;clip-rule:evenodd;fill:#FFFFFF;stroke:#1A171B;stroke-width:1.39;stroke-miterlimit:2.6131;}
	.st4{fill:none;stroke:#1A171B;stroke-width:1.8533;stroke-miterlimit:2.6131;}
	.st5{fill-rule:evenodd;clip-rule:evenodd;fill:#E43417;stroke:#1A171B;stroke-width:1.39;stroke-miterlimit:2.6131;}
	.st6{fill:none;stroke:#1A171B;stroke-width:1.39;stroke-linecap:square;stroke-miterlimit:2.6131;}
	.st7{fill:none;stroke:#1A171B;stroke-width:4.6334;stroke-linecap:square;stroke-miterlimit:2.6131;}
	.st8{fill-rule:evenodd;clip-rule:evenodd;fill:#00A6E2;stroke:#1A171B;stroke-width:1.39;stroke-miterlimit:2.6131;}
	.st9{fill-rule:evenodd;clip-rule:evenodd;fill:#049853;stroke:#1A171B;stroke-width:1.39;stroke-miterlimit:2.6131;}
	.st10{fill-rule:evenodd;clip-rule:evenodd;fill:#1A171B;}
	.st11{fill-rule:evenodd;clip-rule:evenodd;fill:#3D3D3F;stroke:#1A171B;stroke-width:1.39;stroke-miterlimit:2.6131;}
	
		.st12{fill:none;stroke:#1A171B;stroke-width:4.6334;stroke-linecap:square;stroke-miterlimit:2.6131;stroke-dasharray:23.1668,23.1668;}
</style>
<g>
	<g>
		<polygon class="st0" points="45.1,773.9 45.1,833.9 290.7,833.9 482.2,642.3 592.7,833.9 864.9,833.9 705.9,558.4 915,558.4 
			915,324.1 634.1,324.1 634.2,126.1 326,126.1 326,324.1 45.1,324.1 45.1,558.5 260.3,558.5 45.1,773.9 		"/>
		<path class="st1" d="M45,812.7v21.3h207.1l212.6-212.7c10.6-11.8,27.3-14.3,37.2,0.5l122.4,212.1h209L678.6,566.3
			c-7.2-18.6-1.3-34.5,25.5-35.2H915l0-180H643.5c-27.1,0-37-9.8-36.8-36.1v-189H353.1v189c-0.1,26.9-9.6,36.1-36.7,36.1H45.1V531
			h227.8c24.4,4.9,28.5,25,14.9,38.8L45,812.7L45,812.7z"/>
		<path class="st2" d="M856.3,379.1c-13.3-2-31.5-4.8-50.9-5c-15.5,0-31.1,0-46.8,0c-20.5,1.4-36.8,0.8-52.6,5.7
			c-3.1,0.8-10.4,5.2-10.4,10.5V430c0,6.3,8.2,8.1,10.4,8.7c15.8,3.8,32.1,5.4,52.4,5.4h47.3c18.4,0,36.8-2,50.7-4.6
			c3.9-0.8,10.6-1.6,10.6-9.9v-40C866.9,378.7,861.8,379.9,856.3,379.1L856.3,379.1z"/>
		<path class="st3" d="M761.8,384l-17.2-2.7c-6.8,18.9-6.1,35.8,0,55.9l17.2-2.5C757.5,414.7,757.1,405,761.8,384L761.8,384z"/>
		<path class="st3" d="M834.6,385l-10.6,3.6c2.7,14.3,2.7,28.1,0.2,41.6l10.4,3.8C837.5,418.1,837.1,401.3,834.6,385L834.6,385z"/>
		<line class="st4" x1="817.8" y1="380.9" x2="768.3" y2="381.1"/>
		<line class="st4" x1="817.8" y1="437.4" x2="768.3" y2="437.6"/>
		<path class="st5" d="M443.2,164.9c2,13.3,4.8,31.5,5,50.9c0,15.5,0,31.1,0,46.8c-1.4,20.5-0.8,36.8-5.7,52.6
			c-0.8,3.1-5.2,10.4-10.5,10.4h-39.6c-6.3,0-8.1-8.2-8.7-10.4c-3.8-15.8-5.4-32.1-5.4-52.4v-47.3c0-18.4,2-36.8,4.6-50.7
			c0.8-3.9,1.6-10.6,9.9-10.6h40C443.6,154.2,442.4,159.3,443.2,164.9L443.2,164.9z"/>
		<path class="st3" d="M438.3,259.4l2.7,17.2c-18.9,6.8-35.8,6.1-55.9,0l2.5-17.2C407.6,263.7,417.3,264.1,438.3,259.4L438.3,259.4z
			"/>
		<path class="st3" d="M437.3,186.5l-3.6,10.6c-14.3-2.7-28.1-2.7-41.6-0.2l-3.8-10.4C404.2,183.7,421,184.1,437.3,186.5
			L437.3,186.5z"/>
		<line class="st4" x1="441.4" y1="203.3" x2="441.2" y2="252.8"/>
		<line class="st4" x1="384.9" y1="203.3" x2="384.7" y2="252.8"/>
		<path class="st6" d="M45.1,531h227.8c24.4,4.9,28.5,25,14.9,38.8L45,812.7 M252.1,833.9l212.6-212.7c10.6-11.8,27.3-14.3,37.2,0.5
			l122.4,212.1 M833.3,833.9L678.6,566.3c-7.2-18.6-1.4-34.6,25.4-35.3h211 M915,351.1H643.5c-27.1,0-37-9.8-36.8-36.1v-189
			 M353.1,126.1v189c-0.1,26.9-9.6,36.1-36.7,36.1H45.1"/>
		<path class="st7" d="M326,126.1l0,198H45.1 M45.1,558.5h215.2L45,773.9 M290.6,833.9l191.5-191.6l110.6,191.6 M864.8,833.9
			l-159-275.5H915 M915,324.1H634.1l0-198"/>
		<path class="st8" d="M673.3,722.1c-8.6-10.4-20.3-24.5-30.6-41.1c-8-13.3-16.1-26.6-24.2-40.1c-9.4-18.2-18.3-31.9-22.2-48
			c-0.9-3-1-11.6,3.6-14.4l33.9-20.5c5.4-3.3,11.2,2.8,12.9,4.4c11.4,11.5,21.2,24.7,31.6,42.1l24.4,40.5
			c9.5,15.8,17.3,32.5,22.3,45.8c1.3,3.7,4.1,9.9-3,14.2l-34.3,20.7C678.4,731.4,676.8,726.4,673.3,722.1L673.3,722.1z"/>
		<path class="st3" d="M628.7,638.6l-11.2-13.3c12.7-15.5,27.5-23.7,47.9-28.9l6.8,16C652.7,619.1,644.2,623.8,628.7,638.6
			L628.7,638.6z"/>
		<path class="st3" d="M667.2,700.5l-2.4-11c13.6-5.1,25.5-12.3,35.7-21.3l8.6,7C697,685.8,682.3,694.2,667.2,700.5L667.2,700.5z"/>
		<line class="st4" x1="654.9" y1="688.3" x2="629.5" y2="645.8"/>
		<line class="st4" x1="703.3" y1="659.1" x2="677.9" y2="616.6"/>
		<path class="st9" d="M258.2,710.5c8-10.8,18.9-25.7,32.4-39.6c11-11,21.9-22,33.1-33.2c15.4-13.5,26.6-25.5,41.2-33.2
			c2.7-1.6,11-3.8,14.8,0l28.1,28c4.5,4.5,0,11.5-1.2,13.5c-8.4,13.8-18.9,26.5-33.2,40.9L340,720.5c-13,13-27.4,24.7-39,32.7
			c-3.3,2.2-8.6,6.4-14.5,0.5l-28.4-28.3C250.4,717.8,254.8,715,258.2,710.5L258.2,710.5z"/>
		<path class="st3" d="M328.4,647.1l10.2-14.1c18.2,8.6,29.7,20.9,39.6,39.5l-13.9,10.4C353.1,665.6,346.6,658.5,328.4,647.1
			L328.4,647.1z"/>
		<path class="st3" d="M277.7,699.4l10-5c8.2,12,18.1,21.7,29.3,29.5l-4.7,10C299.1,724.8,287.5,712.6,277.7,699.4L277.7,699.4z"/>
		<line class="st4" x1="286.6" y1="684.5" x2="321.7" y2="649.6"/>
		<line class="st4" x1="326.6" y1="724.4" x2="361.7" y2="689.5"/>
		<polygon class="st10" points="580.8,717.8 580.8,662.1 592.1,662.1 592.1,708.3 620.3,708.3 620.3,717.8 580.8,717.8 		"/>
		<path class="st10" d="M770.3,459.2h22.6c4.5,0,7.8,0.2,10,0.6c2.2,0.4,4.2,1.1,5.9,2.3c1.7,1.2,3.2,2.8,4.3,4.7
			c1.2,2,1.7,4.2,1.7,6.6c0,2.7-0.7,5.1-2.1,7.3c-1.4,2.2-3.4,3.9-5.8,5c3.4,1,6.1,2.7,8,5.1c1.9,2.4,2.8,5.3,2.8,8.5
			c0,2.6-0.6,5.1-1.8,7.5c-1.2,2.4-2.8,4.4-4.9,5.8c-2.1,1.5-4.6,2.3-7.7,2.7c-1.9,0.2-6.5,0.3-13.8,0.4h-19.3V459.2L770.3,459.2z
			 M781.7,468.6v13.1h7.5c4.5,0,7.2-0.1,8.3-0.2c1.9-0.2,3.5-0.9,4.6-2c1.1-1.1,1.7-2.6,1.7-4.4c0-1.8-0.5-3.2-1.4-4.3
			c-1-1.1-2.4-1.8-4.3-2c-1.1-0.1-4.4-0.2-9.8-0.2H781.7L781.7,468.6z M781.7,491.2v15.1h10.6c4.1,0,6.7-0.1,7.8-0.3
			c1.7-0.3,3.1-1.1,4.2-2.2c1.1-1.2,1.6-2.8,1.6-4.8c0-1.7-0.4-3.1-1.2-4.3c-0.8-1.2-2-2.1-3.6-2.6c-1.6-0.5-4.9-0.8-10.1-0.8H781.7
			L781.7,491.2z"/>
		<path class="st10" d="M220.4,747.7h20.5c4.6,0,8.1,0.4,10.6,1.1c3.3,1,6.1,2.7,8.4,5.1c2.3,2.5,4.1,5.5,5.3,9
			c1.2,3.6,1.8,7.9,1.8,13.2c0,4.6-0.6,8.5-1.7,11.8c-1.4,4-3.4,7.3-6,9.8c-1.9,1.9-4.6,3.4-7.9,4.4c-2.5,0.8-5.8,1.2-9.9,1.2h-21.1
			V747.7L220.4,747.7z M231.6,757.1V794h8.4c3.1,0,5.4-0.2,6.8-0.5c1.8-0.5,3.3-1.2,4.5-2.3c1.2-1.1,2.2-2.9,2.9-5.4
			c0.8-2.5,1.1-5.9,1.1-10.2c0-4.3-0.4-7.6-1.1-9.9c-0.8-2.3-1.8-4.1-3.2-5.4c-1.4-1.3-3.1-2.2-5.2-2.6c-1.6-0.4-4.6-0.5-9.2-0.5
			H231.6L231.6,757.1z"/>
		<path class="st10" d="M468.2,191.1l10.8-1.1c0.6,3.6,1.9,6.3,3.9,8c2,1.7,4.6,2.5,8,2.5c3.6,0,6.2-0.8,8-2.3
			c1.8-1.5,2.7-3.3,2.7-5.3c0-1.3-0.4-2.4-1.1-3.3c-0.7-0.9-2.1-1.7-4-2.4c-1.3-0.5-4.2-1.2-8.8-2.4c-5.9-1.5-10.1-3.3-12.5-5.4
			c-3.4-3-5-6.7-5-11c0-2.8,0.8-5.4,2.4-7.8c1.6-2.4,3.9-4.3,6.8-5.5c3-1.3,6.6-1.9,10.8-1.9c6.9,0,12,1.5,15.5,4.5
			c3.5,3,5.3,7,5.5,12.1l-11,0.5c-0.5-2.8-1.5-4.8-3-6.1c-1.6-1.2-3.9-1.8-7-1.8c-3.2,0-5.7,0.7-7.5,2c-1.2,0.8-1.8,2-1.8,3.4
			c0,1.3,0.5,2.4,1.6,3.3c1.4,1.2,4.8,2.4,10.1,3.7c5.4,1.3,9.4,2.6,11.9,3.9c2.6,1.4,4.6,3.2,6.1,5.6c1.5,2.4,2.2,5.3,2.2,8.7
			c0,3.1-0.9,6.1-2.6,8.8c-1.7,2.7-4.2,4.8-7.4,6.1c-3.2,1.3-7.2,2-11.9,2c-6.9,0-12.2-1.6-15.9-4.8
			C471.2,201.9,468.9,197.2,468.2,191.1L468.2,191.1z"/>
		<polygon class="st11" points="250.9,658.4 282.8,638.3 270.9,626.5 250.9,658.4 		"/>
		<path class="st12" d="M413.6,332.7c0.9,127.2-37.1,186.5-136.2,298.1"/>
		<path class="st12" d="M685.7,409.6c-153,1.8-277.4,78.5-407.3,220.6"/>
		<polygon class="st11" points="536.5,246.2 527.9,282.9 544.6,283.1 536.5,246.2 		"/>
		<path class="st12" d="M612.6,562.5c-63.8-99.4-75.6-187.2-75.7-288.8"/>
		<path class="st12" d="M399.5,612.2c112.1-114.1,137.4-236.9,137.5-338.4"/>
	</g>
</g>
</svg>
