<?xml version="1.0" encoding="utf-8"?>
<!-- Generator: Adobe Illustrator 19.2.0, SVG Export Plug-In . SVG Version: 6.00 Build 0)  -->
<svg version="1.1" id="Livello_1" xmlns="http://www.w3.org/2000/svg" xmlns:xlink="http://www.w3.org/1999/xlink" x="0px" y="0px"
	 viewBox="0 0 960 960" style="enable-background:new 0 0 960 960;" xml:space="preserve">
<style type="text/css">
	.st0{fill-rule:evenodd;clip-rule:evenodd;fill:#FFFFFF;}
	.st1{fill-rule:evenodd;clip-rule:evenodd;fill:#CECFD1;}
	.st2{fill:none;stroke:#1A171B;stroke-width:1.389;stroke-miterlimit:2.6131;}
	.st3{fill:none;stroke:#1A171B;stroke-width:4.6301;stroke-miterlimit:2.6131;}
	.st4{fill-rule:evenodd;clip-rule:evenodd;fill:#E43417;stroke:#1A171B;stroke-width:1.389;stroke-miterlimit:2.6131;}
	.st5{fill-rule:evenodd;clip-rule:evenodd;fill:#FFFFFF;stroke:#1A171B;stroke-width:1.389;stroke-miterlimit:2.6131;}
	.st6{fill:none;stroke:#1A171B;stroke-width:1.852;stroke-miterlimit:2.6131;}
	.st7{fill-rule:evenodd;clip-rule:evenodd;fill:#00A6E2;stroke:#1A171B;stroke-width:1.389;stroke-miterlimit:2.6131;}
	.st8{fill-rule:evenodd;clip-rule:evenodd;fill:#FFEC00;stroke:#1A171B;stroke-width:1.389;stroke-miterlimit:2.6131;}
	.st9{fill-rule:evenodd;clip-rule:evenodd;fill:#1A171B;stroke:#1A171B;stroke-width:1.389;stroke-miterlimit:2.6131;}
	
		.st10{fill:none;stroke:#1A171B;stroke-width:4.6301;stroke-linecap:square;stroke-miterlimit:2.6131;stroke-dasharray:23.1505,23.1505;}
	.st11{fill-rule:evenodd;clip-rule:evenodd;fill:#1A171B;}
</style>
<g>
	<g>
		<polygon class="st0" points="341.8,291 157.7,184.5 45,184.5 45,381.4 248.5,500.8 45,707.5 45,775.5 308.9,775.5 397.3,686.1 
			397.3,775.5 594.1,775.5 594.2,660.2 914.9,658.7 915,455 679.5,455 914.7,220.4 914.9,184.5 624.3,184.5 535.4,272 535.7,184.5 
			341.7,184.5 342,267.8 		"/>
		<path class="st1" d="M321.4,310.4L107.8,184.5H45v165.4l214.8,126c14.1,9.4,16.6,33.6,3.7,48.5L45,743.4v32.2h227.9l112.5-111.9
			c11.1-16,35.6-16.9,37.2,2.8l0,109.1h146l0.2-115.6c-0.3-16.1,8.4-26.5,24.9-26.7h321.2l0.1-153H661.6c-18-1-21.6-22.2-9.9-33.5
			l263.2-262.3H660.4L543,300.1c-21.5,12.8-33,0.8-32.9-19.7l0.2-96l-143.2,0l0.3,107.3C364.6,315.4,346.6,323.2,321.4,310.4
			L321.4,310.4z"/>
		<path class="st2" d="M367.1,184.5l0.3,107.3c-2.7,23.7-20.8,31.5-46,18.6L107.8,184.5 M45,349.9l214.8,126
			c14.1,9.4,16.6,33.6,3.7,48.5L45,743.4 M272.9,775.5l112.5-111.9c11.1-16,35.6-16.9,37.2,2.8l0,109.1 M568.7,775.5l0.2-115.6
			c-0.3-16.1,8.4-26.5,24.9-26.7h321.2 M915,480.3H661.6c-18-1-21.6-22.2-9.9-33.5l263-262.3 M660.4,184.5L543,300.1
			c-21.5,12.8-33,0.8-32.9-19.7l0.2-96"/>
		<path class="st3" d="M45,379.3l200.6,117.6l0,0l0.2,0.3l0.2,0.5l0.2,0.7l0.2,0.8l0.1,1l0,1.1l-0.1,1.1l-0.2,1.1l-0.3,1l-0.3,0.9
			l-0.4,0.8l-0.5,0.7l-0.4,0.5L45,707.5 M308.9,775.5l88.4-87.9l0,87.9 M594.1,775.5l0.2-115.3l0-1.6l0.2,0h320.3 M914.7,455H679.5
			l235.3-234.5 M624.3,184.5L535.4,272l0.2-87.5 M341.7,184.5l0.3,105.3l-0.2,0.9l-0.1,0.3l-1.2-0.2l-2.1-0.6l-2.6-1l-2.7-1.3
			L157.7,184.5"/>
		<path class="st4" d="M708,253.7c-7,9.4-16.5,22.4-28.4,34.5c-9.6,9.6-19.2,19.2-28.9,28.9c-13.5,11.8-23.2,22.2-36,28.9
			c-2.4,1.4-9.6,3.3-12.9,0l-24.5-24.5c-3.9-3.9,0-10.1,1.1-11.8c7.4-12.1,16.5-23.1,29-35.6l29.2-29.2c11.4-11.4,24-21.5,34.1-28.5
			c2.9-1.9,7.5-5.6,12.7-0.5l24.7,24.7C714.8,247.4,710.9,249.8,708,253.7L708,253.7z"/>
		<path class="st5" d="M646.6,309l-9,12.3c-15.8-7.5-25.9-18.3-34.5-34.5l12.1-9.1C625,292.8,630.7,299,646.6,309L646.6,309z"/>
		<path class="st5" d="M690.9,263.4l-8.8,4.4c-7.2-10.5-15.7-19-25.6-25.8l4.1-8.8C672.3,241.2,682.4,251.9,690.9,263.4L690.9,263.4
			z"/>
		<line class="st6" x1="683.2" y1="276.4" x2="652.5" y2="306.8"/>
		<line class="st6" x1="648.3" y1="241.5" x2="617.6" y2="271.9"/>
		<path class="st7" d="M239,700.2c7-9.4,16.5-22.4,28.4-34.5c9.6-9.6,19.2-19.2,28.9-28.9c13.5-11.8,23.2-22.3,36-28.9
			c2.4-1.4,9.6-3.3,12.9,0l24.5,24.5c3.9,3.9,0,10.1-1.1,11.8c-7.4,12.1-16.5,23.1-29,35.6L310.5,709c-11.4,11.4-24,21.5-34.1,28.5
			c-2.9,1.9-7.5,5.6-12.7,0.4L239,713.3C232.2,706.5,236.1,704.1,239,700.2L239,700.2z"/>
		<path class="st5" d="M300.4,644.9l9-12.3c15.8,7.5,25.9,18.3,34.5,34.5l-12.1,9.1C322,661.2,316.3,654.9,300.4,644.9L300.4,644.9z
			"/>
		<path class="st5" d="M256.1,690.5l8.8-4.4c7.2,10.4,15.7,19,25.6,25.8l-4.1,8.8C274.8,712.7,264.6,702,256.1,690.5L256.1,690.5z"
			/>
		<line class="st6" x1="263.9" y1="677.6" x2="294.6" y2="647.1"/>
		<line class="st6" x1="298.8" y1="712.4" x2="329.5" y2="682"/>
		<path class="st8" d="M851.4,550.3c-11.6,1.7-27.5,4.2-44.5,4.3c-13.6,0-27.1,0-40.9,0c-17.9-1.2-32.2-0.7-45.9-5
			c-2.7-0.7-9.1-4.5-9.1-9.2v-34.6c0-5.5,7.1-7.1,9.1-7.6c13.8-3.3,28-4.7,45.7-4.7h41.3c16.1,0,32.2,1.7,44.3,4
			c3.4,0.7,9.3,1.4,9.3,8.7v35C860.7,550.6,856.2,549.6,851.4,550.3L851.4,550.3z"/>
		<path class="st5" d="M768.8,546l-15,2.3c-5.9-16.5-5.4-31.2,0-48.8l15,2.2C765.1,519.2,764.7,527.7,768.8,546L768.8,546z"/>
		<path class="st5" d="M832.4,545.1l-9.3-3.1c2.3-12.5,2.3-24.6,0.2-36.3l9.1-3.3C834.9,516.2,834.6,530.9,832.4,545.1L832.4,545.1z
			"/>
		<line class="st6" x1="817.8" y1="548.7" x2="774.6" y2="548.6"/>
		<line class="st6" x1="817.8" y1="499.4" x2="774.6" y2="499.2"/>
		<polygon class="st9" points="675.3,588.6 637.9,597.1 637.9,580.1 675.3,588.6 		"/>
		<path class="st10" d="M583.7,335.1c-87.1,101.6-109.8,244.7,49.8,253"/>
		<polygon class="st9" points="463.1,334.2 467.9,369.5 452.1,368.1 463.1,334.2 		"/>
		<path class="st10" d="M362.7,614.7c57.3-75.5,78.8-109.2,96.5-241.9"/>
		<polygon class="st9" points="468.4,199 459.4,233.5 475.2,234 468.4,199 		"/>
		<path class="st10" d="M707.2,525c-147.1-17.2-244.8-133.2-239.7-287.2"/>
		<path class="st11" d="M718.8,336l10.8,3.4c-1.7,6-4.4,10.5-8.2,13.4c-3.8,2.9-8.7,4.4-14.6,4.4c-7.3,0-13.3-2.5-18-7.5
			c-4.7-5-7.1-11.8-7.1-20.5c0-9.2,2.4-16.3,7.1-21.3c4.7-5.1,10.9-7.6,18.7-7.6c6.7,0,12.2,2,16.4,6c2.5,2.3,4.4,5.7,5.6,10.1
			l-11,2.6c-0.6-2.9-2-5.1-4.1-6.8c-2.1-1.7-4.6-2.5-7.5-2.5c-4.1,0-7.4,1.5-9.9,4.4c-2.5,2.9-3.8,7.7-3.8,14.2
			c0,7,1.2,11.9,3.7,14.9c2.5,3,5.8,4.4,9.8,4.4c3,0,5.5-0.9,7.6-2.8C716.4,343,717.9,340.1,718.8,336L718.8,336z"/>
		<path class="st11" d="M818.8,625.1h-12.1l-4.8-12.5h-22l-4.5,12.5h-11.8l21.4-55h11.7L818.8,625.1L818.8,625.1z M798.3,603.4
			l-7.6-20.4l-7.4,20.4H798.3L798.3,603.4z"/>
		<path class="st11" d="M235.1,653.3v-55H253c6.8,0,11.2,0.3,13.2,0.8c3.2,0.8,5.8,2.6,7.9,5.4c2.1,2.8,3.2,6.3,3.2,10.7
			c0,3.4-0.6,6.2-1.8,8.5c-1.2,2.3-2.8,4.1-4.7,5.4c-1.9,1.3-3.8,2.2-5.8,2.6c-2.7,0.5-6.5,0.8-11.5,0.8h-7.2v20.8H235.1
			L235.1,653.3z M246.2,607.6v15.6h6.1c4.4,0,7.3-0.3,8.8-0.9c1.5-0.6,2.6-1.5,3.5-2.7c0.8-1.2,1.3-2.7,1.3-4.3c0-2-0.6-3.6-1.8-5
			c-1.2-1.3-2.7-2.1-4.5-2.4c-1.3-0.3-4-0.4-8-0.4H246.2L246.2,607.6z"/>
	</g>
</g>
</svg>
