<?xml version="1.0" encoding="utf-8"?>
<!-- Generator: Adobe Illustrator 19.2.0, SVG Export Plug-In . SVG Version: 6.00 Build 0)  -->
<svg version="1.1" id="Livello_1" xmlns="http://www.w3.org/2000/svg" xmlns:xlink="http://www.w3.org/1999/xlink" x="0px" y="0px"
	 viewBox="0 0 960 960" style="enable-background:new 0 0 960 960;" xml:space="preserve">
<style type="text/css">
	.st0{fill-rule:evenodd;clip-rule:evenodd;fill:#FFFFFF;}
	.st1{fill-rule:evenodd;clip-rule:evenodd;fill:#CECFD1;}
	.st2{fill:none;stroke:#1A171B;stroke-width:1.389;stroke-miterlimit:2.6131;}
	.st3{fill:none;stroke:#1A171B;stroke-width:4.6301;stroke-miterlimit:2.6131;}
	.st4{fill-rule:evenodd;clip-rule:evenodd;fill:#E43417;stroke:#1A171B;stroke-width:1.389;stroke-miterlimit:2.6131;}
	.st5{fill-rule:evenodd;clip-rule:evenodd;fill:#FFFFFF;stroke:#1A171B;stroke-width:1.389;stroke-miterlimit:2.6131;}
	.st6{fill:none;stroke:#1A171B;stroke-width:1.852;stroke-miterlimit:2.6131;}
	.st7{fill-rule:evenodd;clip-rule:evenodd;fill:#00A6E2;stroke:#1A171B;stroke-width:1.389;stroke-miterlimit:2.6131;}
	.st8{fill-rule:evenodd;clip-rule:evenodd;fill:#1A171B;stroke:#1A171B;stroke-width:1.389;stroke-miterlimit:2.6131;}
	
		.st9{fill:none;stroke:#1A171B;stroke-width:4.6301;stroke-linecap:square;stroke-miterlimit:2.6131;stroke-dasharray:23.1505,23.1505;}
	.st10{fill-rule:evenodd;clip-rule:evenodd;fill:#1A171B;}
</style>
<g>
	<g>
		<polygon class="st0" points="801.2,789.7 915,789.7 915,594.3 712.4,472.9 915,267.8 915,171.2 680.6,171.2 561.4,288.7 
			562.3,171.2 366.3,171.2 365.1,314.2 45.1,315.9 45,520.9 279.4,518.9 46.9,753.9 45.1,789.7 337.6,789.7 424.6,702.2 
			423.7,789.7 618.9,789.7 617.6,683.5 		"/>
		<path class="st1" d="M638.6,663.8l213.6,125.9H915V624.3l-214.9-126c-14.1-9.4-16.6-33.6-3.7-48.5L915,230.8l0-59.7l-200.4,0
			l-140,139.4c-11.1,16-35.6,16.9-37.3-2.8l0-136.6h-146l-0.2,143.1c0.3,16.1-8.4,26.5-24.9,26.7H45.1l-0.1,153h253.4
			c18,1,21.6,22.2,9.9,33.5L45.1,789.7h254.5L417,674.1c21.5-12.8,33-0.8,32.9,19.7l-0.2,96h143.2l-0.3-107.3
			C595.4,658.8,613.4,651,638.6,663.8L638.6,663.8z"/>
		<path class="st2" d="M592.9,789.7l-0.3-107.3c2.7-23.7,20.8-31.5,46-18.6l213.6,125.9 M915,624.3l-214.9-126
			c-14.1-9.4-16.6-33.6-3.7-48.5L915,230.8 M715,170.3L574.6,310.5c-11.1,16-35.6,16.9-37.3-2.8l0-136.6 M391.3,170.9l-0.2,143.3
			c0.3,16.1-8.4,26.5-24.9,26.7H45.1 M45,493.9h253.4c18,1,21.6,22.2,9.9,33.5l-263,262.3 M299.6,789.7L417,674.1
			c21.5-12.8,33-0.8,32.9,19.7l-0.2,96"/>
		<path class="st3" d="M915,594.9L714.4,477.3l0,0l-0.2-0.3l-0.2-0.5l-0.2-0.7l-0.2-0.9l-0.1-1l0-1.1l0.1-1.1l0.2-1.1l0.3-1l0.3-0.9
			l0.4-0.8l0.5-0.7l0.4-0.5L915,266.8 M679.6,171.3L562.7,286.6l0-115.3 M365.9,171.3L365.8,314l0,1.6l-0.2,0H45.3 M45.3,519.3
			h235.3L45.3,753.8 M335.7,789.7l88.9-87.5l-0.2,87.5 M618.3,789.7L618,684.5l0.2-0.9l0.1-0.3l1.2,0.2l2.1,0.6l2.6,1l2.7,1.3
			l175.5,103.4"/>
		<path class="st4" d="M121.5,424c11.6-1.7,27.5-4.2,44.5-4.3c13.6,0,27.2,0,40.9,0c17.9,1.2,32.2,0.7,45.9,5
			c2.7,0.7,9.1,4.5,9.1,9.2v34.6c0,5.5-7.1,7.1-9.1,7.6c-13.8,3.3-28,4.7-45.7,4.7h-41.3c-16.1,0-32.2-1.7-44.3-4
			c-3.4-0.7-9.3-1.4-9.3-8.7v-35C112.2,423.6,116.7,424.7,121.5,424L121.5,424z"/>
		<path class="st5" d="M204,428.3l15-2.3c5.9,16.5,5.4,31.2,0,48.8l-15-2.2C207.8,455,208.2,446.6,204,428.3L204,428.3z"/>
		<path class="st5" d="M140.5,429.2l9.3,3.1c-2.3,12.5-2.3,24.6-0.2,36.3l-9.1,3.3C138,458.1,138.3,443.4,140.5,429.2L140.5,429.2z"
			/>
		<line class="st6" x1="155.1" y1="425.5" x2="198.3" y2="425.7"/>
		<line class="st6" x1="155.1" y1="474.9" x2="198.3" y2="475"/>
		<path class="st7" d="M253.2,725.6c7-9.4,16.5-22.4,28.4-34.5c9.6-9.6,19.2-19.2,28.9-28.9c13.5-11.8,23.2-22.3,36-28.9
			c2.4-1.4,9.6-3.3,12.9,0l24.5,24.5c3.9,3.9,0,10.1-1.1,11.8c-7.4,12.1-16.5,23.1-29,35.6l-29.2,29.2c-11.4,11.4-24,21.5-34.1,28.5
			c-2.9,1.9-7.5,5.6-12.7,0.4l-24.7-24.7C246.4,732,250.3,729.5,253.2,725.6L253.2,725.6z"/>
		<path class="st5" d="M314.6,670.3l9-12.3c15.8,7.5,25.9,18.3,34.5,34.5l-12.1,9.1C336.2,686.6,330.5,680.4,314.6,670.3
			L314.6,670.3z"/>
		<path class="st5" d="M270.3,715.9l8.8-4.4c7.2,10.4,15.7,19,25.6,25.8l-4.1,8.8C289,738.1,278.8,727.5,270.3,715.9L270.3,715.9z"
			/>
		<line class="st6" x1="278.1" y1="703" x2="308.8" y2="672.5"/>
		<line class="st6" x1="313" y1="737.9" x2="343.6" y2="707.4"/>
		<path class="st5" d="M461.4,197.7c1.7,11.6,4.2,27.5,4.3,44.5c0,13.6,0,27.2,0,40.9c-1.2,17.9-0.7,32.2-5,45.9
			c-0.7,2.7-4.5,9.1-9.2,9.1h-34.6c-5.5,0-7.1-7.1-7.6-9.1c-3.3-13.8-4.7-28-4.7-45.7V242c0-16.1,1.7-32.2,4-44.3
			c0.7-3.4,1.4-9.3,8.7-9.3h35C461.7,188.4,460.7,192.9,461.4,197.7L461.4,197.7z"/>
		<path class="st5" d="M457,280.2l2.3,15c-16.5,5.9-31.2,5.4-48.8,0l2.2-15C430.3,284,438.7,284.3,457,280.2L457,280.2z"/>
		<path class="st5" d="M456.2,216.6l-3.1,9.3c-12.5-2.3-24.6-2.3-36.3-0.2l-3.3-9.1C427.3,214.1,442,214.5,456.2,216.6L456.2,216.6z
			"/>
		<line class="st6" x1="459.8" y1="231.3" x2="459.6" y2="274.5"/>
		<line class="st6" x1="410.5" y1="231.3" x2="410.3" y2="274.5"/>
		<polygon class="st8" points="495,348.3 499.8,383.6 484.1,382.2 495,348.3 		"/>
		<path class="st9" d="M376.1,640.1c57.3-75.5,98.8-127.4,116.5-260.1"/>
		<polygon class="st8" points="494.6,640.8 502.1,606 486.3,606.1 494.6,640.8 		"/>
		<path class="st9" d="M437.1,342.3c0.4,101.8,57.2,139.9,56.9,260.8"/>
		<polygon class="st8" points="491.8,752.1 500.8,717.6 485,717.1 491.8,752.1 		"/>
		<path class="st9" d="M270.9,452.5c151.3,17.2,213.7,112.4,221.8,260.9"/>
		<polygon class="st10" points="163.7,405 163.7,350 174.5,350 197,386.7 197,350 207.3,350 207.3,405 196.2,405 174,369.1 174,405 
			163.7,405 		"/>
		<path class="st10" d="M239.7,652.3l10.8-1.1c0.6,3.6,2,6.3,4,8c2,1.7,4.7,2.5,8,2.5c3.6,0,6.3-0.8,8.1-2.3
			c1.8-1.5,2.7-3.3,2.7-5.3c0-1.3-0.4-2.4-1.2-3.3c-0.8-0.9-2.1-1.7-4-2.4c-1.3-0.5-4.3-1.3-8.9-2.4c-6-1.5-10.1-3.3-12.5-5.4
			c-3.4-3-5.1-6.7-5.1-11.1c0-2.8,0.8-5.4,2.4-7.9c1.6-2.4,3.9-4.3,6.9-5.6c3-1.3,6.6-1.9,10.8-1.9c6.9,0,12.1,1.5,15.6,4.5
			c3.5,3,5.3,7.1,5.5,12.1l-11.1,0.5c-0.5-2.8-1.5-4.9-3.1-6.1c-1.6-1.2-3.9-1.9-7-1.9c-3.2,0-5.8,0.7-7.6,2c-1.2,0.8-1.8,2-1.8,3.4
			c0,1.3,0.6,2.4,1.7,3.3c1.4,1.2,4.8,2.4,10.2,3.7c5.4,1.3,9.4,2.6,12,4c2.6,1.4,4.6,3.2,6.1,5.6c1.5,2.4,2.2,5.3,2.2,8.8
			c0,3.2-0.9,6.1-2.6,8.9c-1.8,2.8-4.2,4.8-7.4,6.1c-3.2,1.3-7.2,2-12,2c-7,0-12.3-1.6-16-4.8C242.7,663.2,240.4,658.5,239.7,652.3
			L239.7,652.3z"/>
		<path class="st10" d="M518.7,265.3l10.8,3.4c-1.7,6-4.4,10.5-8.2,13.4c-3.8,2.9-8.7,4.4-14.6,4.4c-7.3,0-13.3-2.5-18-7.5
			c-4.7-5-7.1-11.8-7.1-20.5c0-9.2,2.4-16.3,7.1-21.3c4.7-5.1,10.9-7.6,18.7-7.6c6.7,0,12.2,2,16.4,6c2.5,2.3,4.4,5.7,5.6,10.1
			l-11,2.6c-0.6-2.9-2-5.1-4.1-6.8c-2.1-1.7-4.6-2.5-7.5-2.5c-4.1,0-7.4,1.5-9.9,4.4c-2.5,2.9-3.8,7.7-3.8,14.2
			c0,7,1.2,11.9,3.8,14.9c2.5,3,5.8,4.4,9.8,4.4c3,0,5.5-0.9,7.6-2.8C516.2,272.3,517.7,269.3,518.7,265.3L518.7,265.3z"/>
	</g>
</g>
</svg>
