<?xml version="1.0" encoding="utf-8"?>
<!-- Generator: Adobe Illustrator 19.2.0, SVG Export Plug-In . SVG Version: 6.00 Build 0)  -->
<svg version="1.1" id="Livello_1" xmlns="http://www.w3.org/2000/svg" xmlns:xlink="http://www.w3.org/1999/xlink" x="0px" y="0px"
	 viewBox="0 0 960 960" style="enable-background:new 0 0 960 960;" xml:space="preserve">
<style type="text/css">
	.st0{fill-rule:evenodd;clip-rule:evenodd;fill:#FFFFFF;}
	.st1{fill-rule:evenodd;clip-rule:evenodd;fill:#CECFD1;}
	.st2{fill-rule:evenodd;clip-rule:evenodd;fill:#3D3D3F;stroke:#1A171B;stroke-width:1.39;stroke-miterlimit:2.6131;}
	.st3{fill-rule:evenodd;clip-rule:evenodd;fill:#FFFFFF;stroke:#1A171B;stroke-width:1.39;stroke-miterlimit:2.6131;}
	.st4{fill:none;stroke:#FFFFFF;stroke-width:1.8533;stroke-miterlimit:2.6131;}
	.st5{fill-rule:evenodd;clip-rule:evenodd;fill:#049853;stroke:#1A171B;stroke-width:1.39;stroke-miterlimit:2.6131;}
	.st6{fill:none;stroke:#1A171B;stroke-width:1.8533;stroke-miterlimit:2.6131;}
	.st7{fill-rule:evenodd;clip-rule:evenodd;fill:#1A171B;}
	.st8{fill-rule:evenodd;clip-rule:evenodd;fill:#00A6E2;stroke:#1A171B;stroke-width:1.39;stroke-miterlimit:2.6131;}
	.st9{fill-rule:evenodd;clip-rule:evenodd;fill:#E43417;stroke:#1A171B;stroke-width:1.39;stroke-miterlimit:2.6131;}
	
		.st10{fill-rule:evenodd;clip-rule:evenodd;fill:#FFEC00;stroke:#1A171B;stroke-width:1.39;stroke-linecap:square;stroke-miterlimit:2.6131;}
	
		.st11{fill-rule:evenodd;clip-rule:evenodd;fill:#FFFFFF;stroke:#1A171B;stroke-width:1.39;stroke-linecap:square;stroke-miterlimit:2.6131;}
	.st12{fill:none;stroke:#1A171B;stroke-width:1.39;stroke-miterlimit:2.6131;}
	.st13{fill:none;stroke:#1A171B;stroke-width:4.6334;stroke-miterlimit:2.6131;}
	
		.st14{fill:none;stroke:#1A171B;stroke-width:4.6334;stroke-linecap:square;stroke-miterlimit:2.6131;stroke-dasharray:23.1668,23.1668;}
</style>
<g>
	<g>
		<polygon class="st0" points="159.5,361.8 45.3,361.8 45.3,629.6 142.5,629.6 47,799 307.2,799 381,668 506.5,799 914.9,799 
			914.9,797.6 753.8,629.6 914.9,629.6 914.9,361.8 741.8,361.8 914.9,256.1 914.9,161 556,161 383.3,266.2 307.3,161 45,161 
			45,203.2 159.5,361.8 		"/>
		<path class="st1" d="M160.3,387.8H45.1v216.1h101.2c19.2,0.9,29.3,20.2,20.3,35.2L76.5,799h201.2l78-138.7c15-21.6,33-21.2,50.6-3
			L541.9,799h339L726.8,638.4c-15.6-15-7.3-34.2,15.1-34.5h173l0.1-216.1H727.1c-24.4-1.3-29.3-23.3-13.4-38.7l201.2-122.8V161
			H605.2L403.4,284c-19,11.3-30.6,9.4-44.7-8.4L275.9,161h-230l134.4,186.3C191.9,364.1,184.3,388.3,160.3,387.8L160.3,387.8z"/>
		<path class="st2" d="M162.3,197.3c7.9,8.4,18.6,19.8,28.2,33.3c7.6,10.9,15.1,21.8,22.8,32.9c9,15,17.3,26.2,21.5,39.7
			c0.9,2.5,1.5,9.8-2.3,12.4l-27.8,19.3c-4.5,3.1-9.7-1.8-11.2-3.1c-10.3-9.2-19.4-19.9-29.2-34.1l-23-33.2
			c-8.9-12.9-16.5-26.8-21.5-37.8c-1.3-3.1-4.1-8.2,1.8-12.3l28.1-19.5C157.4,189.7,159.1,193.8,162.3,197.3L162.3,197.3z"/>
		<path class="st3" d="M204.8,266l10.2,10.8c-10,13.9-22.1,21.7-39.2,27.2l-6.6-13.3C185.4,283.9,192.4,279.5,204.8,266L204.8,266z"
			/>
		<path class="st3" d="M168.7,215.4l2.7,9.2c-11.3,5.1-21,11.8-29.3,20.1l-7.7-5.5C144.1,229.5,156.1,221.6,168.7,215.4L168.7,215.4
			z"/>
		<line class="st4" x1="179.8" y1="225.2" x2="203.7" y2="260"/>
		<line class="st4" x1="140.1" y1="252.6" x2="164.1" y2="287.5"/>
		<path class="st5" d="M815,411.5c-11.3-1.7-26.9-4.1-43.5-4.2c-13.3,0-26.5,0-40,0c-17.5,1.2-31.4,0.7-44.9,4.9
			c-2.6,0.7-8.9,4.4-8.9,9V455c0,5.4,7,6.9,8.9,7.4c13.4,3.2,27.4,4.6,44.7,4.6h40.3c15.7,0,31.4-1.7,43.3-3.9
			c3.3-0.7,9.1-1.4,9.1-8.5v-34.2C824.1,411.2,819.8,412.2,815,411.5L815,411.5z"/>
		<path class="st3" d="M734.4,415.7l-14.7-2.3c-5.8,16.1-5.2,30.5,0,47.7l14.7-2.1C730.7,441.9,730.4,433.6,734.4,415.7L734.4,415.7
			z"/>
		<path class="st3" d="M796.5,416.6l-9.1,3c2.3,12.2,2.3,24,0.2,35.5l8.9,3.2C799,444.8,798.6,430.5,796.5,416.6L796.5,416.6z"/>
		<line class="st6" x1="782.2" y1="413" x2="740" y2="413.2"/>
		<line class="st6" x1="782.2" y1="461.2" x2="740" y2="461.4"/>
		<polygon class="st2" points="794.1,567.9 759.5,560.1 759.5,575.8 794.1,567.9 		"/>
		<polygon class="st2" points="207.9,649.8 232.8,624.4 219.4,616.2 207.9,649.8 		"/>
		<polygon class="st2" points="91.8,437.2 126.4,445.1 126.4,429.3 91.8,437.2 		"/>
		<path class="st7" d="M211.7,770H200l-4.6-12.1h-21.3l-4.4,12.1h-11.4l20.7-53.2h11.4L211.7,770L211.7,770z M192,749l-7.3-19.7
			l-7.2,19.7H192L192,749z"/>
		<polygon class="st7" points="228.5,250.9 228.5,198.2 239.2,198.2 239.2,242 265.9,242 265.9,250.9 228.5,250.9 		"/>
		<path class="st7" d="M708.5,262.3v-53.2h22.6c5.7,0,9.8,0.5,12.4,1.4c2.6,1,4.6,2.6,6.2,5.1c1.5,2.5,2.3,5.2,2.3,8.4
			c0,4-1.2,7.3-3.5,9.9c-2.3,2.6-5.9,4.2-10.5,4.9c2.3,1.4,4.2,2.8,5.8,4.5c1.5,1.6,3.5,4.5,6.1,8.6l6.5,10.4h-12.8l-7.8-11.6
			c-2.8-4.1-4.7-6.7-5.7-7.8c-1-1.1-2.1-1.8-3.2-2.2c-1.1-0.4-2.9-0.6-5.4-0.6h-2.2v22.2H708.5L708.5,262.3z M719.3,231.6h7.9
			c5.2,0,8.4-0.2,9.7-0.6c1.3-0.4,2.3-1.2,3-2.3c0.7-1.1,1.1-2.4,1.1-4c0-1.8-0.5-3.2-1.4-4.3c-1-1.1-2.3-1.8-4.1-2.1
			c-0.9-0.1-3.5-0.2-7.8-0.2h-8.4V231.6L719.3,231.6z"/>
		<path class="st7" d="M657.7,733.5l10.4,3.3c-1.6,5.8-4.2,10.1-8,12.9c-3.7,2.8-8.4,4.2-14.1,4.2c-7.1,0-12.9-2.4-17.4-7.2
			c-4.5-4.8-6.8-11.4-6.8-19.8c0-8.9,2.3-15.7,6.9-20.6c4.6-4.9,10.6-7.3,18-7.3c6.5,0,11.8,1.9,15.9,5.8c2.4,2.3,4.2,5.5,5.4,9.8
			l-10.6,2.5c-0.6-2.8-1.9-4.9-3.9-6.5c-2-1.6-4.4-2.4-7.3-2.4c-3.9,0-7.1,1.4-9.6,4.2c-2.5,2.8-3.7,7.4-3.7,13.8
			c0,6.7,1.2,11.5,3.6,14.4c2.4,2.9,5.6,4.3,9.4,4.3c2.9,0,5.3-0.9,7.4-2.7C655.3,740.3,656.8,737.4,657.7,733.5L657.7,733.5z"/>
		<polygon class="st7" points="733.1,533.2 733.1,480 772.6,480 772.6,489 743.9,489 743.9,500.8 770.6,500.8 770.6,509.8 
			743.9,509.8 743.9,524.2 773.6,524.2 773.6,533.2 733.1,533.2 		"/>
		<path class="st8" d="M757.6,703.5c-6.7-9.3-15.8-22.1-27.3-34.1c-9.3-9.5-18.5-19-27.9-28.7c-13-11.7-22.4-22.1-34.8-28.8
			c-2.3-1.4-9.4-3.3-12.6-0.1l-24.3,23.6c-3.9,3.8-0.1,9.8,0.9,11.6c7.1,11.9,15.8,22.8,27.9,35.2l28.1,28.9
			c11,11.3,23.1,21.3,33,28.3c2.8,1.9,7.3,5.6,12.4,0.6l24.5-23.8C764.1,709.8,760.4,707.4,757.6,703.5L757.6,703.5z"/>
		<path class="st3" d="M698.3,648.6l-8.6-12.1c-15.6,7.1-25.5,17.5-34.2,33.3l11.7,9C677,664.2,682.7,658.2,698.3,648.6L698.3,648.6
			z"/>
		<path class="st3" d="M741,693.8l-8.5-4.4c-7.2,10.1-15.6,18.4-25.4,24.9l3.9,8.6C722.5,715.2,732.5,705,741,693.8L741,693.8z"/>
		<line class="st6" x1="733.6" y1="681" x2="704" y2="650.9"/>
		<line class="st6" x1="699" y1="714.7" x2="669.4" y2="684.5"/>
		<path class="st9" d="M221.7,739c4-10.7,9.5-25.5,17.4-40c6.5-11.6,12.9-23.2,19.4-34.9c9.5-14.7,15.9-27.1,26.1-36.8
			c1.9-2,8.2-5.6,12.2-3.4l29.6,16.5c4.7,2.6,2.7,9.5,2.2,11.4c-3.7,13.3-9.3,26.2-17.8,41.3l-19.6,35.2
			c-7.6,13.7-16.8,26.6-24.5,35.9c-2.2,2.6-5.6,7.3-11.8,3.8l-29.9-16.6C217,746.8,220,743.5,221.7,739L221.7,739z"/>
		<path class="st3" d="M264.6,670.6l5.1-13.9c16.9,2.8,29.2,10.3,41.7,23.2l-9,11.8C289.3,680.1,282.2,675.8,264.6,670.6
			L264.6,670.6z"/>
		<path class="st3" d="M235.2,725.3l7.1-6.5c9.5,7.9,19.9,13.7,31,17.4l-1.5,9.3C258.7,741.2,246.3,733.9,235.2,725.3L235.2,725.3z"
			/>
		<line class="st6" x1="239" y1="711.1" x2="259.7" y2="674.3"/>
		<line class="st6" x1="281.1" y1="734.6" x2="301.8" y2="697.7"/>
		<polygon class="st10" points="635.5,176.7 625.9,182.7 672,256.7 681.6,250.8 635.5,176.7 		"/>
		<path class="st10" d="M525.3,357.5l30.6-19.1c1.2-0.8,1.5-2.6,0.6-4.1c-0.9-1.5-3.1-1.8-3.9-1.3L520,353.4
			C519.9,353.4,523,358.9,525.3,357.5L525.3,357.5z"/>
		<path class="st10" d="M470.9,270.2l30.6-19.1c1.2-0.8,3-0.2,3.9,1.3c0.9,1.5,0.2,3.6-0.6,4.1l-32.6,20.3
			C472.2,276.8,468.6,271.6,470.9,270.2L470.9,270.2z"/>
		<path class="st10" d="M445.8,289.5l51,81.9l-2.8,1.7c-4.6,2.9-10.6,1.6-13.4-2.9l-40.9-65.7c-2.8-4.5-1.3-10.4,3.3-13.3
			L445.8,289.5L445.8,289.5z"/>
		<path class="st10" d="M447.2,292.4l49-30.5l47.6,76.5l-49,30.5c-3.7,2.3-8.9,1.4-11.2-2.4l-39.2-62.9
			C442.1,299.7,443.3,294.8,447.2,292.4L447.2,292.4z"/>
		<path class="st10" d="M465.4,288l24.9-15.5c1.9-1.2,4.8,0.1,6.6,3l35.1,56.3c1.8,2.9,1.7,6.1-0.2,7.3l-24.9,15.5
			c-1.9,1.2-4.7-0.4-6.6-3.1c-13.4-17.8-24.9-36.6-35.1-56.3C463.6,292.2,463.5,289.1,465.4,288L465.4,288z"/>
		<path class="st11" d="M450.4,294.8c1.6,0.3,9.1-0.1,9.6,0.8c8.9,20.3,23.3,43.6,38,61.1c0.3,0.2-3.6,6.7-4,8.2
			c-0.5,1.7-4.5,0.3-5.8-1.5c-14.6-19.8-27.7-40.8-39-62.6C448,298.5,448.3,294.5,450.4,294.8L450.4,294.8z"/>
		<path class="st10" d="M638.6,287l30.6-19.1c1.2-0.8,1.5-2.6,0.6-4.1c-0.9-1.5-3.9-1.3-3.9-1.3l-32.6,20.3
			C633.3,282.8,636.3,288.4,638.6,287L638.6,287z"/>
		<path class="st10" d="M584.2,199.6l30.6-19.1c1.2-0.8,3-0.2,3.9,1.3c0.9,1.5-0.6,4.1-0.6,4.1l-32.6,20.3
			C585.6,206.2,582,201,584.2,199.6L584.2,199.6z"/>
		<polygon class="st10" points="494.4,259.3 630.3,174.7 681.3,256.5 545.4,341.1 494.4,259.3 		"/>
		<polygon class="st10" points="504.1,260.7 627.4,184 671.7,255 548.3,331.8 504.1,260.7 		"/>
		<polygon class="st10" points="512.8,274.8 636.2,198 663,241.1 539.6,317.9 512.8,274.8 		"/>
		<polygon class="st10" points="521.8,289.1 645.1,212.4 654,226.7 530.7,303.5 521.8,289.1 		"/>
		<path class="st12" d="M45.8,161l134.4,186.3c11.5,16.9,4,41.1-20,40.5H45 M45,603.9h101.2c19.2,0.9,29.3,20.2,20.3,35.2L76.4,799
			 M277.5,799l78-138.7c15-21.6,33-21.2,50.6-3L541.8,799 M880.8,799L726.7,638.4c-15.6-15-7.2-34.2,15.1-34.5h173 M914.9,387.8H727
			c-24.4-1.3-29.3-23.3-13.4-38.7l201.2-122.8 M605.1,161L403.3,284c-19,11.3-30.6,9.4-44.7-8.4L275.8,161"/>
		<path class="st13" d="M45,203.2l114.5,158.6H45.3 M45.3,629.6h97.2L47,799 M307.2,799L381,668l125.5,131 M914.9,799v-1.4l-161-168
			l161,0.3 M914.9,361.8H741.8l173.1-105.7 M556,161L383.3,266.2L307.3,161"/>
		<path class="st14" d="M675.1,437.3h-546c136-12.4,249.2-45.2,327.8-94.8"/>
		<path class="st14" d="M219.6,327.1C338.7,456,515.2,537.6,756.8,567.9c-61.7,0.2-123.4-0.2-185.1,0.6
			c-119.1,1.6-203.4-8.1-255.1,62.2"/>
		<path class="st14" d="M642,621.7c-109.2-90.5-316.9-114.4-416-2.6"/>
	</g>
</g>
</svg>
