<?xml version="1.0" encoding="utf-8"?>
<!-- Generator: Adobe Illustrator 19.2.0, SVG Export Plug-In . SVG Version: 6.00 Build 0)  -->
<svg version="1.1" id="Livello_1" xmlns="http://www.w3.org/2000/svg" xmlns:xlink="http://www.w3.org/1999/xlink" x="0px" y="0px"
	 viewBox="0 0 960 960" style="enable-background:new 0 0 960 960;" xml:space="preserve">
<style type="text/css">
	.st0{fill-rule:evenodd;clip-rule:evenodd;fill:#1A171B;stroke:#1A171B;stroke-width:0.9678;stroke-miterlimit:2.6131;}
	.st1{fill-rule:evenodd;clip-rule:evenodd;fill:#FFEC00;stroke:#1A171B;stroke-width:0.9678;stroke-miterlimit:2.6131;}
	.st2{fill:none;stroke:#1A171B;stroke-width:0.9678;stroke-miterlimit:2.6131;}
	.st3{fill:none;stroke:#172982;stroke-width:0.9678;stroke-miterlimit:2.6131;}
</style>
<g>
	<g>
		<polygon class="st0" points="231.8,493.4 418.6,493.4 418.6,529.9 231.8,529.9 231.8,493.4 		"/>
		<polygon class="st1" points="45,493.4 231.8,493.4 231.8,529.9 45,529.9 45,493.4 		"/>
		<polygon class="st1" points="418.6,493.4 605.7,493.4 605.7,529.9 418.6,529.9 418.6,493.4 		"/>
		<polygon class="st0" points="605.7,493.4 792.5,493.4 792.5,529.9 605.7,529.9 605.7,493.4 		"/>
		<polyline class="st2" points="45,493.4 167.5,430.2 915,430.2 792.5,493.4 		"/>
		<polyline class="st2" points="232.2,493.4 354.5,430.2 728.5,430.2 605.8,493.4 		"/>
		<line class="st3" x1="418.7" y1="493.4" x2="541.1" y2="430.1"/>
	</g>
</g>
</svg>
