<?xml version="1.0" encoding="utf-8"?>
<!-- Generator: Adobe Illustrator 19.2.0, SVG Export Plug-In . SVG Version: 6.00 Build 0)  -->
<svg version="1.1" id="Livello_1" xmlns="http://www.w3.org/2000/svg" xmlns:xlink="http://www.w3.org/1999/xlink" x="0px" y="0px"
	 viewBox="0 0 960 960" style="enable-background:new 0 0 960 960;" xml:space="preserve">
<style type="text/css">
	.st0{fill:none;stroke:#1A171B;stroke-width:1.6465;stroke-miterlimit:2.6131;}
	.st1{fill-rule:evenodd;clip-rule:evenodd;fill:#CECFD1;stroke:#1A171B;stroke-width:1.6465;stroke-miterlimit:2.6131;}
	.st2{fill-rule:evenodd;clip-rule:evenodd;fill:#FFFFFF;stroke:#1A171B;stroke-width:1.6465;stroke-miterlimit:2.6131;}
	.st3{fill-rule:evenodd;clip-rule:evenodd;fill:#ECECED;stroke:#1A171B;stroke-width:1.6465;stroke-miterlimit:2.6131;}
	.st4{fill-rule:evenodd;clip-rule:evenodd;fill:#E2E3E4;stroke:#1A171B;stroke-width:1.6465;stroke-miterlimit:2.6131;}
	.st5{fill-rule:evenodd;clip-rule:evenodd;fill:#CECFD1;}
	.st6{fill-rule:evenodd;clip-rule:evenodd;fill:#3D3D3F;stroke:#1A171B;stroke-width:1.6465;stroke-miterlimit:2.6131;}
	.st7{fill-rule:evenodd;clip-rule:evenodd;fill:#B6D8E0;stroke:#1A171B;stroke-width:1.6465;stroke-miterlimit:2.6131;}
	.st8{fill-rule:evenodd;clip-rule:evenodd;fill:#58585A;stroke:#1A171B;stroke-width:1.6465;stroke-miterlimit:2.6131;}
	.st9{fill-rule:evenodd;clip-rule:evenodd;fill:#E1001A;stroke:#1A171B;stroke-width:1.6465;stroke-miterlimit:2.6131;}
	.st10{fill-rule:evenodd;clip-rule:evenodd;fill:#1A171B;stroke:#1A171B;stroke-width:1.6465;stroke-miterlimit:2.6131;}
	.st11{fill-rule:evenodd;clip-rule:evenodd;fill:#A2CDD7;stroke:#1A171B;stroke-width:1.6465;stroke-miterlimit:2.6131;}
	.st12{fill-rule:evenodd;clip-rule:evenodd;fill:#A1D9F3;stroke:#1A171B;stroke-width:1.6465;stroke-miterlimit:2.6131;}
</style>
<g>
	<g>
		<polygon class="st0" points="45,170.5 914.9,170.5 914.9,789.5 45,789.5 45,170.5 		"/>
		<polygon class="st1" points="914.9,241 45,361.8 45,789.5 914.9,789.5 914.9,241 		"/>
		<polygon class="st2" points="914.9,420.4 45,534.3 45,170.5 914.9,170.5 914.9,420.4 		"/>
		<polygon class="st3" points="45,495.6 914.9,407.8 914.9,420.4 45,534.3 45,495.6 		"/>
		<polygon class="st4" points="476,170.5 476,485.9 236.1,391.2 236.1,170.5 476,170.5 		"/>
		<polygon class="st5" points="476,727.8 236.1,727.8 236.1,391.6 476,486.3 476,727.8 		"/>
		<polygon class="st6" points="45,275.3 103.3,279.4 103.3,435.6 45,439 45,275.3 		"/>
		<polygon class="st7" points="45,282.4 96.7,285.9 96.7,428.8 45,431.6 45,282.4 		"/>
		<path class="st8" d="M286.6,546.2l0.1,8.8c0.2,7.9-6.4,9.6-10.3,10.3L45,609.4v-15.2L286.6,546.2L286.6,546.2z"/>
		<path class="st2" d="M45,534.3l191-25l45.1,29.1c8.3,4.8,7.6,12.8-3.3,14.8L45,595V534.3L45,534.3z"/>
		<polygon class="st8" points="476,477.9 914.9,420.4 914.9,445.3 813.7,467.9 543.2,514.5 475.9,485.9 476,477.9 		"/>
		<polygon class="st2" points="476.4,477.8 914.9,420.4 914.9,438.5 543.4,505.3 476.4,477.8 		"/>
		<path class="st9" d="M544,430.7c3.1-4.7,7.2-7.3,12.4-7.7l122.2-6.9l46.4,4.8c6.2,0.7,14.1,3.5,16.9,8.1l10,7.5l34.2,4.2
			c13.1,1.5,22.4,13.1,24.2,18.5c2.8,16.3,5.5,26.3-3.1,42.1c-85.6,27.5-191.8,53.9-280.1,68.4c-28.9-2.7-91.4-34-108.4-52.9
			l3.4-17.4c1.9-6.9,16.7-11.6,27.8-13.7l63.9-17.9L544,430.7L544,430.7z"/>
		<path class="st2" d="M552,426.9c20.3,9.3,51.4,14.8,84.9,17.6c-7.1,13.8-10.7,31.8-17.8,45.6c-35.4-2.1-78.1-12.6-100.4-23.2
			C529.1,453.9,541.7,439.8,552,426.9L552,426.9z"/>
		<polygon class="st2" points="644.2,447.9 693.5,442.3 694,479.4 628.9,488.8 644.2,447.9 		"/>
		<polygon class="st2" points="741.2,437.4 702.5,441.8 703.7,477.3 761.6,467.5 741.2,437.4 		"/>
		<path class="st0" d="M641.2,444.5l103.6-11l22.8,28.9l41.1-7.2c2.6,8.8,9.9,27.7-2,45.9l-8.2,3.5c-9.5-28.2-42.9-17.9-47,13.6
			l-128.6,32.9c-10.2-25-50.6-21.4-59.7,10.9l-37.3,7.7c0-9.9-0.9-15.1,0.4-24.9c2.6-7.1,6.4-14.1,17.1-18.2
			c21.4-12.7,48.8-19.9,78.7-31.8L641.2,444.5L641.2,444.5z"/>
		<path class="st0" d="M622.1,496.9c-5.1,26.6,1.9,40.7,11.1,52"/>
		<path class="st0" d="M766.5,462.8c0.9,14.2-0.1,16.3-5.6,31.8"/>
		<polyline class="st0" points="697.8,438.9 699.2,488.8 698.6,532.2 		"/>
		<path class="st9" d="M525.9,560.3c19.1,2,27.4,4.1,48-0.1l49.5-9.1l134.1-34.2l50.5-17l-3.3,7.5l-13.7,11.1l-149.7,45.7l-23.8,7.2
			l-48.1,7.3c-12.8,3.6-39.9,4.1-48.9,2.6c-37.1-5.2-92.9-35.4-98.6-44.4c-3.3-4.7-4.1-20.6-1.2-25.5
			C452.9,538.1,488.2,551.8,525.9,560.3L525.9,560.3z"/>
		<path class="st10" d="M781.2,494.1c11.5,0.6,19,13.2,16.8,28.1c-2.2,14.9-13.4,26.6-24.9,26c-11.5-0.6-19-13.2-16.8-28.1
			C758.5,505.1,769.7,493.5,781.2,494.1L781.2,494.1z"/>
		<path class="st2" d="M779.9,508c5.5,0.6,8.8,7,7.2,14.2c-1.5,7.2-7.3,12.5-12.8,11.9c-5.5-0.6-8.8-7-7.2-14.2
			C768.7,512.8,774.4,507.4,779.9,508L779.9,508z"/>
		<path class="st10" d="M603.7,539.3c14.8,3.5,22.4,20.5,17,38c-5.4,17.5-22,28.9-36.8,25.4c-14.8-3.5-22.4-20.5-17-38
			C572.3,547.2,588.9,535.8,603.7,539.3L603.7,539.3z"/>
		<path class="st2" d="M598.7,555.2c7.3,1.7,11.1,10.2,8.4,18.8c-2.7,8.7-10.9,14.3-18.2,12.6c-7.3-1.7-11.1-10.2-8.4-18.8
			C583.2,559.2,591.3,553.5,598.7,555.2L598.7,555.2z"/>
		<polygon class="st2" points="448.4,536.8 478.6,552.5 478,564.2 447.9,548.9 448.4,536.8 		"/>
		<path class="st2" d="M502.1,535.1l26.3,3.8c-1.8,10.2-3.2,13.4-3.1,21.1c-6.4-1.8-30.1-6.9-36.9-10.8
			C491.1,543.4,496.1,535.4,502.1,535.1L502.1,535.1z"/>
		<path class="st2" d="M443.5,509.9l-16.6-16c-8.8,7.7-6.9,13.2-7.3,18.4c5.1,3.7,17.8,12.9,24.8,15.6
			C447,522.5,445.7,513.1,443.5,509.9L443.5,509.9z"/>
		<polygon class="st6" points="573.4,312.3 734.4,323.7 734.4,398.7 573.4,408.1 573.4,312.3 		"/>
		<polygon class="st11" points="578.1,316.4 731.3,326.8 731.3,395.4 578.1,404 578.1,316.4 		"/>
		<polygon class="st6" points="655.2,321.6 663.4,322.2 663.4,399.2 655.2,399.6 655.2,321.6 		"/>
		<polygon class="st11" points="657.6,321.6 661,322.2 661,399.2 657.6,399.6 657.6,321.6 		"/>
		<path class="st6" d="M780.9,326.8c12.6,1,25.6,2,38.8,3c13.5,1,27.4,2.1,41.6,3.2c0,9.7,0,19.4,0,29c0,9.7,0,19.4,0,29
			c-14.2,0.9-28.1,1.8-41.6,2.6c-13.2,0.8-26.2,1.7-38.8,2.4c0-11.5,0-23.1,0-34.6C780.9,349.9,780.9,338.3,780.9,326.8L780.9,326.8
			z"/>
		<path class="st11" d="M783.1,329.7c12.1,0.9,24.4,1.8,37,2.7c12.9,1,26.1,1.9,39.6,2.9c0,8.8,0,17.7,0,26.5c0,8.8,0,17.7,0,26.5
			c-13.5,0.8-26.7,1.7-39.6,2.5c-12.6,0.8-25,1.5-37,2.3c0-10.6,0-21.1,0-31.7C783.1,350.8,783.1,340.3,783.1,329.7L783.1,329.7z"/>
		<path class="st6" d="M820.4,332.4c1.4,0.1,2.7,0.2,4.1,0.3c0,9.6,0,19.3,0,28.9c0,9.6,0,19.3,0,28.9c-1.4,0.1-2.7,0.1-4.1,0.2
			c0-9.7,0-19.4,0-29.2C820.4,351.9,820.4,342.2,820.4,332.4L820.4,332.4z"/>
		<path class="st12" d="M821.6,332.4c0.6,0.1,1.1,0.3,1.7,0.4c0,9.6,0,19.3,0,28.9c0,9.6,0,19.2,0,28.9c-0.6,0.1-1.1,0.2-1.7,0.3
			c0-9.7,0-19.5,0-29.2C821.6,351.9,821.6,342.1,821.6,332.4L821.6,332.4z"/>
		<path class="st6" d="M888,335.1c8.8,0.7,17.8,1.4,27,2.1v51c-9.2,0.6-18.2,1.1-27,1.7c0-9.1,0-18.2,0-27.4S888,344.2,888,335.1
			L888,335.1z"/>
		<path class="st11" d="M889.8,337.4c8.2,0.6,16.7,1.2,25.2,1.9V386c-8.6,0.5-17,1.1-25.2,1.6c0-8.4,0-16.7,0-25.1
			C889.8,354.1,889.8,345.7,889.8,337.4L889.8,337.4z"/>
		<line class="st0" x1="236.1" y1="390.8" x2="236.1" y2="509.6"/>
	</g>
</g>
</svg>
