<?xml version="1.0" encoding="utf-8"?>
<!-- Generator: Adobe Illustrator 19.2.0, SVG Export Plug-In . SVG Version: 6.00 Build 0)  -->
<svg version="1.1" id="Livello_1" xmlns="http://www.w3.org/2000/svg" xmlns:xlink="http://www.w3.org/1999/xlink" x="0px" y="0px"
	 viewBox="0 0 960 960" style="enable-background:new 0 0 960 960;" xml:space="preserve">
<style type="text/css">
	.st0{fill:none;stroke:#1A171B;stroke-width:1.6467;stroke-miterlimit:2.6131;}
	.st1{fill-rule:evenodd;clip-rule:evenodd;fill:#CECFD1;stroke:#1A171B;stroke-width:1.6467;stroke-miterlimit:2.6131;}
	.st2{fill-rule:evenodd;clip-rule:evenodd;fill:#FFFFFF;stroke:#1A171B;stroke-width:1.6467;stroke-miterlimit:2.6131;}
	.st3{fill-rule:evenodd;clip-rule:evenodd;fill:#ECECED;stroke:#1A171B;stroke-width:1.6467;stroke-miterlimit:2.6131;}
	.st4{fill-rule:evenodd;clip-rule:evenodd;fill:#CECFD1;}
	.st5{fill-rule:evenodd;clip-rule:evenodd;fill:#3D3D3F;stroke:#1A171B;stroke-width:1.6467;stroke-miterlimit:2.6131;}
	.st6{fill-rule:evenodd;clip-rule:evenodd;fill:#ACD2DC;stroke:#1A171B;stroke-width:1.6467;stroke-miterlimit:2.6131;}
	.st7{fill-rule:evenodd;clip-rule:evenodd;fill:#9B9C9E;stroke:#1A171B;stroke-width:1.6467;stroke-miterlimit:2.6131;}
	.st8{fill-rule:evenodd;clip-rule:evenodd;fill:#D8D9DA;stroke:#1A171B;stroke-width:1.6467;stroke-miterlimit:2.6131;}
	.st9{fill-rule:evenodd;clip-rule:evenodd;fill:#868789;stroke:#1A171B;stroke-width:1.6467;stroke-miterlimit:2.6131;}
	.st10{fill-rule:evenodd;clip-rule:evenodd;fill:#E1001A;}
	.st11{fill-rule:evenodd;clip-rule:evenodd;fill:#FFFFFF;}
	.st12{fill-rule:evenodd;clip-rule:evenodd;fill:#005EA7;}
	.st13{fill-rule:evenodd;clip-rule:evenodd;fill:#1A171B;}
	.st14{fill-rule:evenodd;clip-rule:evenodd;fill:#E1001A;stroke:#1A171B;stroke-width:1.6467;stroke-miterlimit:2.6131;}
	.st15{fill-rule:evenodd;clip-rule:evenodd;fill:#1A171B;stroke:#1A171B;stroke-width:1.6467;stroke-miterlimit:2.6131;}
	.st16{fill-rule:evenodd;clip-rule:evenodd;fill:#009DDF;stroke:#1A171B;stroke-width:1.6467;stroke-miterlimit:2.6131;}
	.st17{fill-rule:evenodd;clip-rule:evenodd;fill:#A2CDD7;stroke:#1A171B;stroke-width:1.6467;stroke-miterlimit:2.6131;}
	.st18{fill-rule:evenodd;clip-rule:evenodd;fill:#A1D9F3;stroke:#1A171B;stroke-width:1.6467;stroke-miterlimit:2.6131;}
</style>
<g>
	<g>
		<polygon class="st0" points="45,170.5 915,170.5 915,789.5 45,789.5 45,170.5 		"/>
		<polygon class="st1" points="915,220.3 45,219.7 45,789.5 915,789.5 915,220.3 		"/>
		<polygon class="st2" points="915,420.4 45,534.3 45,170.5 915,170.5 915,420.4 		"/>
		<polygon class="st3" points="45,495.6 915,407.8 915,420.4 45,534.3 45,495.6 		"/>
		<polygon class="st3" points="236.1,261.8 476,279 476,486 236.1,391.6 236.1,261.8 		"/>
		<polygon class="st4" points="476,727.8 236.1,727.8 236.1,391.6 476,486 476,727.8 		"/>
		<polygon class="st5" points="45,275.3 103.3,279.4 103.3,435.6 45,439 45,275.3 		"/>
		<polygon class="st6" points="45,282.4 96.7,285.9 96.7,428.7 45,431.6 45,282.4 		"/>
		<path class="st7" d="M286.6,546.2l0.1,8.8c0.2,7.9-6.4,9.6-10.3,10.3L45,609.4v-15.2L286.6,546.2L286.6,546.2z"/>
		<path class="st2" d="M45,534.3l191-25l45.1,29.1c8.3,4.8,7.6,12.8-3.3,14.8L45,595.1V534.3L45,534.3z"/>
		<polygon class="st8" points="476,279.2 236.1,261.7 236.1,326.5 476,279 476,279.2 		"/>
		<polygon class="st7" points="476,477.9 915,420.4 915,445.3 813.8,467.9 543.2,514.5 476,485.9 476,477.9 		"/>
		<polygon class="st2" points="476,477.8 915,420.4 915,438.5 543.1,505.4 476,477.8 		"/>
		<polygon class="st9" points="256.5,322.5 236.1,322.5 236.1,399.6 256.5,399.6 256.5,322.5 		"/>
		<path class="st2" d="M494,292.6c11.7,1.4,22.9,2.7,33.7,4c10.5,1.2,20.5,2.4,30.3,3.6c0.1,16.9,0.2,33.8,0.3,50.8
			c0.1,17,0.2,34.1,0.3,51.3c-9.8,0.6-20,1.3-30.6,2c-11,0.7-22.3,1.5-34.1,2.2c0-19.1,0-38.2,0-57.2C494,330.2,494,311.4,494,292.6
			L494,292.6z"/>
		<path class="st0" d="M501.6,295.8c9,1,17.7,2,26.2,3c8.2,0.9,16.3,1.9,24.1,2.7c2.6,0.3,4.7,3,4.7,6c0.1,14.4,0.2,28.9,0.3,43.4
			c0.1,14.5,0.2,29.1,0.3,43.8c0,3.1-2.1,5.7-4.7,5.9c-7.9,0.5-16,1-24.3,1.5c-8.6,0.5-17.4,1.1-26.5,1.6c-3.1,0.2-5.7-2.4-5.7-5.8
			c0-16.2,0-32.4,0-48.6c0-16.1,0-32.1,0-48.1C495.9,297.9,498.5,295.4,501.6,295.8L501.6,295.8z"/>
		<path class="st2" d="M529.7,313.4c6.8,2,11.1,5.1,15.1,11.6c2.3,4.3,3.3,8.3,3.5,13.2c-0.2,9.8-4.6,17.2-12.4,21.3
			c-4.5,2.1-9.1,2.4-13.4,1.1c-4.4-1.3-8.5-4.2-11.9-8.5c-4.4-6.4-6-13.3-4.8-21.1c1.5-5.9,3.6-9.8,7.8-13.6
			c4.4-3.2,8.5-4.7,13.9-4.4C528.2,313.2,529,313.3,529.7,313.4L529.7,313.4z"/>
		<path class="st10" d="M527.6,314.5c5.6,0.5,10.4,3.4,13.9,7.7c3.5,4.2,5.6,9.9,5.7,15.9c0,6.1-2.1,11.5-5.5,15.4
			c-3.5,4-8.4,6.5-13.9,6.4c-5.6-0.1-10.8-2.7-14.7-7c-3.9-4.3-6.3-10.3-6.3-16.8c0-6.5,2.4-12.2,6.3-16.1
			C516.8,316.1,522.1,314,527.6,314.5L527.6,314.5z"/>
		<path class="st11" d="M527.6,320.3c8.3,0.6,14.7,8.5,14.7,17.6c0,9.1-6.4,16.4-14.6,16.2c-8.4-0.2-15.5-8.1-15.5-17.7
			C512.2,326.9,519.4,319.6,527.6,320.3L527.6,320.3z"/>
		<path class="st12" d="M527.6,321.4c7.6,0.6,13.5,7.9,13.6,16.2c0,8.4-5.9,15.1-13.5,14.9c-7.7-0.2-14.2-7.5-14.2-16.3
			C513.5,327.5,520,320.8,527.6,321.4L527.6,321.4z"/>
		<path class="st11" d="M519.7,322.6c3.4,4.1,6.8,8.1,10.2,12c3.3,3.9,6.6,7.8,9.9,11.6c-1.5,1.7-3,3.3-4.5,5
			c-3.3-3.8-6.7-7.7-10.1-11.7c-3.4-4-6.9-8-10.4-12C516.5,325.8,518.1,324.2,519.7,322.6L519.7,322.6z"/>
		<path class="st10" d="M516.5,320.9c4.2,5,8.4,9.8,12.5,14.7c4.1,4.8,8.1,9.5,12,14.1c-0.9,1-1.8,2-2.7,3c-4-4.6-8-9.4-12.1-14.1
			c-4.1-4.8-8.3-9.7-12.6-14.7C514.6,322.9,515.6,321.8,516.5,320.9L516.5,320.9z"/>
		<path class="st13" d="M503.1,304.9c0.3,0.2,0.6,0.3,0.9,0.5c-0.1,0.7-0.4,1.2-0.7,1.5c-0.3,0.3-0.7,0.4-1.2,0.4
			c-0.6-0.1-1.1-0.4-1.5-1c-0.4-0.6-0.6-1.4-0.6-2.4c0-1,0.2-1.8,0.6-2.4c0.4-0.5,0.9-0.8,1.6-0.7c0.6,0.1,1,0.3,1.4,0.8
			c0.2,0.3,0.4,0.7,0.5,1.2c-0.3,0.1-0.6,0.1-0.9,0.2c-0.1-0.3-0.2-0.6-0.3-0.8c-0.2-0.2-0.4-0.3-0.6-0.3c-0.3,0-0.6,0.1-0.8,0.4
			c-0.2,0.3-0.3,0.8-0.3,1.6c0,0.8,0.1,1.4,0.3,1.7c0.2,0.4,0.5,0.6,0.8,0.6c0.2,0,0.5-0.1,0.6-0.3
			C502.9,305.7,503,305.4,503.1,304.9L503.1,304.9z"/>
		<path class="st13" d="M504.6,304.3c0-0.6,0.1-1.2,0.2-1.6c0.1-0.3,0.2-0.6,0.4-0.8c0.2-0.2,0.4-0.4,0.6-0.5c0.3-0.1,0.6-0.2,1-0.2
			c0.7,0.1,1.2,0.4,1.6,1c0.4,0.6,0.6,1.4,0.6,2.4c0,1-0.2,1.8-0.6,2.3c-0.4,0.5-0.9,0.8-1.6,0.7c-0.7-0.1-1.2-0.4-1.6-1
			C504.8,306.1,504.6,305.3,504.6,304.3L504.6,304.3z M505.5,304.3c0,0.7,0.1,1.3,0.4,1.7c0.2,0.4,0.5,0.6,0.9,0.6
			c0.4,0,0.7-0.1,0.9-0.5c0.2-0.3,0.3-0.9,0.3-1.6c0-0.7-0.1-1.3-0.3-1.6c-0.2-0.4-0.5-0.6-0.9-0.6c-0.4,0-0.7,0.1-0.9,0.4
			C505.7,303.1,505.5,303.6,505.5,304.3L505.5,304.3z"/>
		<path class="st13" d="M509.7,307.9c0-2.1,0-4.1,0-6.2c0.5,0,0.9,0.1,1.4,0.1c0.3,1.4,0.6,2.9,0.8,4.3c0.3-1.4,0.5-2.8,0.8-4.1
			c0.5,0,0.9,0.1,1.3,0.1c0,2.1,0,4.1,0,6.2c-0.3,0-0.6-0.1-0.8-0.1c0-1.6,0-3.2,0-4.9c-0.3,1.6-0.6,3.2-0.9,4.8
			c-0.3,0-0.6-0.1-0.9-0.1c-0.3-1.7-0.6-3.3-0.9-5c0,1.6,0,3.3,0,4.9C510.3,307.9,510,307.9,509.7,307.9L509.7,307.9z"/>
		<path class="st13" d="M514.9,302.2c0.3,0,0.6,0.1,0.9,0.1c0,1.1,0,2.2,0,3.3c0,0.5,0,0.9,0,1c0,0.3,0.1,0.5,0.3,0.6
			c0.1,0.2,0.3,0.3,0.6,0.3c0.2,0,0.4,0,0.6-0.2c0.1-0.1,0.2-0.3,0.2-0.5c0-0.2,0-0.5,0-1c0-1.1,0-2.3,0-3.4c0.3,0,0.6,0.1,0.9,0.1
			c0,1.1,0,2.1,0,3.2c0,0.7,0,1.3-0.1,1.6c0,0.3-0.1,0.5-0.3,0.7c-0.1,0.2-0.3,0.3-0.5,0.5c-0.2,0.1-0.5,0.1-0.8,0.1
			c-0.4,0-0.7-0.1-1-0.3s-0.4-0.3-0.5-0.6c-0.1-0.2-0.2-0.5-0.3-0.7c-0.1-0.4-0.1-0.9-0.1-1.6C514.9,304.4,514.9,303.3,514.9,302.2
			L514.9,302.2z"/>
		<path class="st13" d="M519.4,308.8c0-2,0-4.1,0-6.1c0.3,0,0.6,0.1,0.8,0.1c0.6,1.4,1.2,2.8,1.8,4.3c0-1.4,0-2.7,0-4.1
			c0.3,0,0.5,0.1,0.8,0.1c0,2,0,4.1,0,6.1c-0.3,0-0.6-0.1-0.9-0.1c-0.6-1.4-1.2-2.8-1.8-4.1c0,1.3,0,2.7,0,4
			C519.9,308.8,519.6,308.8,519.4,308.8L519.4,308.8z"/>
		<path class="st13" d="M523.7,309.2c0-2,0-4,0-6.1c1,0.1,2.1,0.2,3.2,0.3c0,0.3,0,0.7,0,1c-0.8-0.1-1.5-0.2-2.3-0.2
			c0,0.5,0,0.9,0,1.3c0.7,0.1,1.4,0.1,2.2,0.2c0,0.3,0,0.7,0,1c-0.7-0.1-1.4-0.1-2.1-0.2c0,0.6,0,1.1,0,1.7c0.8,0.1,1.6,0.2,2.4,0.2
			c0,0.3,0,0.7,0,1C525.9,309.4,524.8,309.3,523.7,309.2L523.7,309.2z"/>
		<path class="st13" d="M529.3,303.7c0.5,0.1,1,0.1,1.5,0.2c0.4,0,0.6,0.1,0.8,0.2c0.2,0.1,0.5,0.3,0.6,0.6c0.2,0.3,0.3,0.6,0.4,1
			c0.1,0.4,0.1,0.9,0.1,1.4c0,0.5,0,0.9-0.1,1.3c-0.1,0.4-0.3,0.8-0.4,1c-0.1,0.2-0.3,0.3-0.6,0.4c-0.2,0.1-0.4,0.1-0.7,0.1
			c-0.5,0-1.1-0.1-1.6-0.1C529.3,307.7,529.3,305.7,529.3,303.7L529.3,303.7z M530.2,304.8c0,1.3,0,2.7,0,4c0.2,0,0.4,0,0.6,0.1
			c0.2,0,0.4,0,0.5,0c0.1,0,0.2-0.1,0.3-0.2c0.1-0.1,0.2-0.3,0.2-0.5c0.1-0.3,0.1-0.6,0.1-1.1c0-0.5,0-0.8-0.1-1.1
			c-0.1-0.2-0.1-0.4-0.2-0.6c-0.1-0.1-0.2-0.3-0.4-0.3c-0.1-0.1-0.4-0.1-0.7-0.1C530.4,304.9,530.3,304.9,530.2,304.8L530.2,304.8z"
			/>
		<path class="st13" d="M533.5,310.1c0-2,0-4,0-6c0.3,0,0.6,0.1,0.8,0.1c0,2,0,4,0,6C534.1,310.2,533.8,310.2,533.5,310.1
			L533.5,310.1z"/>
		<path class="st13" d="M536.8,310.5c0-2,0-4,0-5.9c0.6,0.1,1.2,0.1,1.7,0.2c0.4,0,0.8,0.1,1,0.3c0.2,0.1,0.4,0.3,0.5,0.6
			c0.1,0.3,0.2,0.6,0.2,0.9c0,0.4-0.1,0.8-0.3,1.1c-0.2,0.3-0.4,0.4-0.8,0.5c0.2,0.2,0.3,0.3,0.4,0.5c0.1,0.2,0.3,0.5,0.5,1
			c0.2,0.4,0.3,0.8,0.5,1.2c-0.3,0-0.7-0.1-1-0.1c-0.2-0.4-0.4-0.9-0.6-1.3c-0.2-0.5-0.4-0.8-0.4-0.9c-0.1-0.1-0.2-0.2-0.2-0.3
			c-0.1-0.1-0.2-0.1-0.4-0.1c-0.1,0-0.1,0-0.2,0c0,0.8,0,1.7,0,2.5C537.3,310.5,537,310.5,536.8,310.5L536.8,310.5z M537.6,307.1
			c0.2,0,0.4,0,0.6,0.1c0.4,0,0.6,0,0.7,0c0.1,0,0.2-0.1,0.2-0.2c0.1-0.1,0.1-0.2,0.1-0.4c0-0.2,0-0.4-0.1-0.5
			c-0.1-0.1-0.2-0.2-0.3-0.3c-0.1,0-0.3,0-0.6-0.1c-0.2,0-0.4,0-0.6-0.1C537.6,306.1,537.6,306.6,537.6,307.1L537.6,307.1z"/>
		<path class="st13" d="M540.7,307.9c0-0.6,0.1-1.1,0.2-1.5c0.1-0.3,0.2-0.5,0.4-0.8c0.2-0.2,0.3-0.4,0.5-0.5
			c0.3-0.1,0.5-0.2,0.9-0.1c0.6,0.1,1.1,0.4,1.4,1c0.3,0.6,0.5,1.3,0.5,2.3c0,1-0.2,1.7-0.5,2.2c-0.3,0.5-0.8,0.7-1.4,0.7
			c-0.6-0.1-1.1-0.4-1.4-0.9C540.9,309.6,540.7,308.9,540.7,307.9L540.7,307.9z M541.5,308c0,0.7,0.1,1.2,0.3,1.6
			c0.2,0.4,0.5,0.6,0.8,0.6c0.3,0,0.6-0.1,0.8-0.4c0.2-0.3,0.3-0.8,0.3-1.5c0-0.7-0.1-1.2-0.3-1.5c-0.2-0.4-0.5-0.6-0.8-0.6
			c-0.3,0-0.6,0.1-0.8,0.4C541.6,306.8,541.5,307.3,541.5,308L541.5,308z"/>
		<path class="st13" d="M545.2,311.3c0-1.9,0-3.9,0-5.9c0.4,0,0.8,0.1,1.2,0.1c0.2,1.4,0.5,2.7,0.7,4.1c0.2-1.3,0.5-2.6,0.7-3.9
			c0.4,0,0.8,0.1,1.2,0.1c0,2,0,3.9,0,5.8c-0.3,0-0.5,0-0.7-0.1c0-1.5,0-3.1,0-4.6c-0.3,1.5-0.5,3-0.8,4.5c-0.3,0-0.5,0-0.8-0.1
			c-0.3-1.6-0.5-3.1-0.8-4.7c0,1.5,0,3.1,0,4.6C545.7,311.3,545.5,311.3,545.2,311.3L545.2,311.3z"/>
		<path class="st13" d="M553.4,312c-0.3,0-0.6-0.1-0.9-0.1c-0.1-0.4-0.2-0.9-0.3-1.3c-0.5,0-1-0.1-1.5-0.2c-0.1,0.4-0.2,0.9-0.3,1.3
			c-0.3,0-0.6-0.1-0.8-0.1c0.5-1.9,1-3.8,1.5-5.7c0.3,0,0.6,0.1,0.8,0.1C552.3,308.1,552.8,310.1,553.4,312L553.4,312z M551.9,309.6
			c-0.2-0.7-0.4-1.5-0.6-2.2c-0.2,0.7-0.3,1.4-0.5,2.1C551.2,309.5,551.5,309.6,551.9,309.6L551.9,309.6z"/>
		<path class="st13" d="M512.5,367.1c0.5,0,1,0,1.5,0c0,0.3,0,0.7,0,1c0.2-0.3,0.4-0.6,0.7-0.8c0.3-0.2,0.7-0.3,1-0.3
			c0.7,0,1.3,0.3,1.7,0.9c0.5,0.6,0.7,1.4,0.7,2.5c0,1.1-0.2,1.9-0.7,2.5c-0.5,0.6-1.1,0.9-1.7,0.9c-0.3,0-0.6-0.1-0.9-0.2
			c-0.3-0.1-0.5-0.4-0.8-0.7c0,1.1,0,2.2,0,3.3c-0.5,0-1,0-1.5,0C512.5,373.1,512.5,370.1,512.5,367.1L512.5,367.1z M514,370.3
			c0,0.7,0.1,1.3,0.4,1.6c0.3,0.4,0.6,0.5,1,0.5c0.4,0,0.7-0.2,0.9-0.5c0.2-0.3,0.4-0.9,0.4-1.6c0-0.7-0.2-1.2-0.4-1.5
			c-0.2-0.3-0.6-0.5-0.9-0.5c-0.4,0-0.7,0.2-0.9,0.5C514.2,369.1,514,369.7,514,370.3L514,370.3z M520.5,369.1
			c-0.5-0.1-0.9-0.1-1.4-0.2c0.1-0.6,0.4-1.2,0.8-1.5c0.4-0.3,0.9-0.5,1.7-0.5c0.7,0,1.1,0.1,1.5,0.3c0.3,0.2,0.5,0.4,0.7,0.7
			c0.1,0.2,0.2,0.8,0.2,1.5c0,0.7,0,1.3,0,2c0,0.6,0,1,0.1,1.2c0,0.3,0.2,0.6,0.3,0.9c-0.5,0-1,0-1.5,0c0-0.1-0.1-0.3-0.1-0.5
			c0-0.1-0.1-0.2-0.1-0.2c-0.2,0.3-0.5,0.5-0.8,0.6c-0.3,0.1-0.6,0.2-1,0.2c-0.6,0-1.1-0.2-1.4-0.5c-0.3-0.3-0.5-0.8-0.5-1.3
			c0-0.3,0.1-0.7,0.2-1c0.1-0.3,0.4-0.5,0.6-0.7c0.3-0.1,0.7-0.3,1.2-0.4c0.7-0.1,1.2-0.3,1.4-0.4c0,0,0-0.1,0-0.2
			c0-0.3-0.1-0.5-0.2-0.7c-0.1-0.1-0.4-0.2-0.8-0.2c-0.3,0-0.5,0.1-0.6,0.2C520.7,368.6,520.5,368.8,520.5,369.1L520.5,369.1z
			 M522.4,370.5c-0.2,0.1-0.5,0.2-0.9,0.3c-0.4,0.1-0.7,0.2-0.8,0.3c-0.2,0.1-0.3,0.4-0.3,0.6c0,0.2,0.1,0.5,0.2,0.6
			c0.1,0.1,0.4,0.2,0.6,0.2c0.2,0,0.5-0.1,0.7-0.3c0.2-0.1,0.3-0.4,0.3-0.6c0-0.1,0.1-0.4,0.1-0.8
			C522.4,370.7,522.4,370.6,522.4,370.5L522.4,370.5z M525,371.6c0.5-0.1,1-0.1,1.5-0.2c0,0.3,0.2,0.6,0.4,0.7
			c0.2,0.1,0.5,0.2,0.8,0.2c0.4,0,0.7-0.1,0.9-0.2c0.1-0.1,0.2-0.3,0.2-0.5c0-0.1,0-0.3-0.1-0.3c-0.1-0.1-0.3-0.1-0.5-0.2
			c-1.2-0.3-2-0.6-2.3-0.8c-0.4-0.3-0.7-0.8-0.7-1.4c0-0.6,0.2-1,0.6-1.4c0.4-0.4,1-0.6,1.8-0.6c0.8,0,1.4,0.2,1.7,0.4
			c0.4,0.3,0.6,0.7,0.8,1.3c-0.5,0.1-0.9,0.2-1.4,0.3c-0.1-0.2-0.2-0.4-0.4-0.6c-0.2-0.1-0.4-0.2-0.7-0.2c-0.4,0-0.7,0.1-0.8,0.2
			c-0.1,0.1-0.2,0.2-0.2,0.3c0,0.1,0,0.2,0.1,0.3c0.1,0.1,0.6,0.3,1.4,0.4c0.8,0.2,1.4,0.5,1.7,0.8c0.3,0.3,0.5,0.7,0.5,1.2
			c0,0.6-0.2,1.1-0.6,1.5c-0.4,0.4-1.1,0.6-1.9,0.6c-0.8,0-1.4-0.2-1.8-0.5C525.4,372.7,525.1,372.2,525,371.6L525,371.6z
			 M531,371.5c0.5-0.1,1-0.1,1.5-0.2c0,0.3,0.2,0.6,0.4,0.7c0.2,0.2,0.5,0.3,0.8,0.3c0.4,0,0.7-0.1,0.8-0.2c0.1-0.1,0.2-0.3,0.2-0.5
			c0-0.1,0-0.3-0.1-0.3c-0.1-0.1-0.2-0.1-0.5-0.2c-1.2-0.3-1.9-0.6-2.2-0.8c-0.4-0.3-0.7-0.8-0.7-1.4c0-0.5,0.2-1,0.5-1.4
			c0.4-0.4,1-0.6,1.8-0.6c0.7,0,1.3,0.1,1.7,0.4c0.4,0.3,0.6,0.7,0.8,1.3c-0.4,0.1-0.9,0.2-1.3,0.3c-0.1-0.2-0.2-0.4-0.3-0.6
			c-0.1-0.1-0.4-0.2-0.7-0.2c-0.4,0-0.7,0.1-0.8,0.2c-0.1,0.1-0.1,0.2-0.1,0.3c0,0.1,0,0.2,0.1,0.3c0.1,0.1,0.6,0.2,1.4,0.4
			c0.8,0.2,1.3,0.5,1.6,0.7c0.3,0.3,0.5,0.7,0.5,1.2c0,0.6-0.2,1.1-0.6,1.5c-0.4,0.4-1,0.6-1.8,0.6c-0.7,0-1.3-0.2-1.8-0.5
			C531.4,372.7,531.1,372.1,531,371.5L531,371.5z M537,370.1c0-0.5,0.1-1.1,0.3-1.6c0.2-0.5,0.6-0.9,1-1.2c0.4-0.3,0.9-0.4,1.4-0.4
			c0.8,0,1.5,0.3,2,0.9c0.5,0.6,0.8,1.4,0.8,2.3c0,0.9-0.3,1.7-0.8,2.3c-0.5,0.6-1.2,0.9-2,1c-0.5,0-1-0.1-1.4-0.4
			c-0.4-0.2-0.8-0.6-1-1.1C537.1,371.5,537,370.8,537,370.1C537,370.1,537,370.1,537,370.1L537,370.1z M538.4,370.2
			c0,0.6,0.1,1.1,0.4,1.4c0.2,0.3,0.6,0.5,1,0.5c0.3,0,0.7-0.2,0.9-0.5c0.3-0.3,0.4-0.8,0.4-1.4c0-0.6-0.1-1.1-0.4-1.4
			c-0.3-0.3-0.6-0.5-0.9-0.5c-0.4,0-0.7,0.2-0.9,0.5C538.5,369.1,538.4,369.6,538.4,370.2L538.4,370.2z"/>
		<path class="st13" d="M510.6,383.1c-0.5,0.1-1,0.2-1.6,0.4c0-0.3-0.2-0.6-0.4-0.7c-0.2-0.2-0.5-0.3-0.8-0.3c-0.4,0-0.7,0.2-1,0.5
			c-0.3,0.3-0.4,0.8-0.4,1.6c0,0.8,0.1,1.3,0.4,1.6c0.2,0.3,0.6,0.5,1,0.5c0.3,0,0.6-0.1,0.8-0.3c0.2-0.2,0.3-0.5,0.4-1
			c0.5,0.1,1,0.1,1.6,0.1c-0.2,0.8-0.5,1.4-0.9,1.9c-0.4,0.4-1.1,0.7-1.8,0.7c-0.9,0-1.6-0.2-2.1-0.8c-0.5-0.6-0.8-1.4-0.8-2.5
			c0-1.1,0.3-2,0.8-2.6c0.5-0.6,1.3-0.9,2.1-1c0.7,0,1.3,0.1,1.7,0.5C510,381.9,510.4,382.5,510.6,383.1L510.6,383.1z M512.9,383.2
			c-0.5,0-0.9-0.1-1.4-0.2c0.1-0.6,0.4-1.2,0.8-1.5c0.4-0.3,1-0.5,1.7-0.5c0.7,0,1.2,0.1,1.5,0.2c0.3,0.2,0.6,0.4,0.7,0.7
			c0.1,0.3,0.2,0.8,0.2,1.5c0,0.7,0,1.3,0,2c0,0.6,0,1,0.1,1.2c0,0.2,0.2,0.6,0.3,0.9c-0.5,0-1,0-1.5,0.1c-0.1-0.1-0.1-0.3-0.2-0.5
			c0-0.1-0.1-0.1-0.1-0.2c-0.3,0.3-0.6,0.5-0.8,0.6c-0.3,0.1-0.6,0.2-1,0.2c-0.6,0-1.1-0.1-1.4-0.5c-0.3-0.3-0.5-0.8-0.5-1.4
			c0-0.4,0.1-0.7,0.2-1c0.1-0.3,0.4-0.5,0.7-0.7c0.3-0.2,0.7-0.3,1.2-0.4c0.7-0.2,1.2-0.3,1.5-0.5c0,0,0-0.1,0-0.2
			c0-0.3-0.1-0.6-0.2-0.7c-0.1-0.1-0.4-0.2-0.8-0.2c-0.3,0-0.5,0.1-0.6,0.2C513.1,382.6,513,382.9,512.9,383.2L512.9,383.2z
			 M514.9,384.5c-0.2,0.1-0.5,0.2-0.9,0.3c-0.4,0.1-0.7,0.2-0.8,0.3c-0.2,0.2-0.3,0.4-0.3,0.6c0,0.2,0.1,0.5,0.2,0.6
			c0.1,0.1,0.4,0.3,0.6,0.2c0.3,0,0.5-0.1,0.8-0.3c0.2-0.1,0.3-0.4,0.3-0.6c0-0.1,0.1-0.4,0.1-0.8
			C514.9,384.7,514.9,384.6,514.9,384.5L514.9,384.5z M519.5,387.4c-0.5,0-1,0-1.5,0.1c0-2.1,0-4.3,0-6.4c0.5,0,1,0,1.5,0
			c0,0.3,0,0.6,0,0.9c0.2-0.4,0.4-0.7,0.6-0.9c0.2-0.1,0.4-0.2,0.6-0.2c0.3,0,0.7,0.1,1,0.3c-0.2,0.5-0.3,1-0.5,1.5
			c-0.2-0.2-0.5-0.3-0.7-0.3c-0.2,0-0.4,0.1-0.5,0.2c-0.1,0.1-0.3,0.4-0.3,0.7c-0.1,0.3-0.1,1.1-0.1,2.2
			C519.5,386.1,519.5,386.8,519.5,387.4L519.5,387.4z M523.8,387.3c-0.5,0-1,0-1.5,0.1c0-2.1,0-4.3,0-6.4c0.5,0,1,0,1.4,0
			c0,0.3,0,0.6,0,0.9c0.2-0.4,0.4-0.7,0.6-0.8c0.2-0.1,0.4-0.2,0.6-0.2c0.3,0,0.7,0.1,1,0.3c-0.2,0.5-0.3,1-0.5,1.5
			c-0.2-0.2-0.5-0.3-0.7-0.3c-0.2,0-0.4,0.1-0.5,0.2c-0.1,0.1-0.3,0.4-0.3,0.7c-0.1,0.3-0.1,1.1-0.1,2.2
			C523.8,386,523.8,386.6,523.8,387.3L523.8,387.3z M527.7,382.7c-0.5-0.1-0.9-0.1-1.4-0.2c0.1-0.6,0.4-1.1,0.7-1.5
			c0.4-0.3,0.9-0.5,1.6-0.5c0.6,0,1.1,0.1,1.4,0.2c0.3,0.2,0.5,0.4,0.7,0.7c0.1,0.2,0.2,0.8,0.2,1.5c0,0.7,0,1.3,0,2
			c0,0.6,0,1,0.1,1.2c0,0.2,0.2,0.5,0.3,0.8c-0.5,0-1,0-1.5,0.1c-0.1-0.1-0.1-0.3-0.2-0.5c0-0.1,0-0.1,0-0.2
			c-0.2,0.3-0.5,0.5-0.8,0.6c-0.3,0.1-0.6,0.2-0.9,0.2c-0.6,0-1.1-0.2-1.4-0.5c-0.3-0.3-0.5-0.8-0.5-1.3c0-0.4,0.1-0.7,0.2-1
			c0.1-0.3,0.3-0.5,0.6-0.7c0.3-0.2,0.7-0.3,1.2-0.4c0.7-0.2,1.1-0.3,1.4-0.5c0,0,0-0.1,0-0.1c0-0.3-0.1-0.6-0.2-0.7
			c-0.1-0.1-0.4-0.2-0.8-0.2c-0.2,0-0.4,0.1-0.6,0.2C527.9,382.2,527.8,382.5,527.7,382.7L527.7,382.7z M529.6,384
			c-0.2,0.1-0.5,0.2-0.9,0.3c-0.4,0.1-0.7,0.2-0.8,0.3c-0.2,0.1-0.3,0.4-0.3,0.6c0,0.2,0.1,0.5,0.2,0.6c0.1,0.1,0.4,0.2,0.6,0.2
			c0.2,0,0.5-0.1,0.7-0.3c0.2-0.1,0.3-0.4,0.3-0.6c0-0.1,0.1-0.4,0.1-0.8C529.6,384.3,529.6,384.2,529.6,384L529.6,384z
			 M532.6,386.9c0-2.9,0-5.8,0-8.7c0.5,0,1,0,1.4,0c0,1.1,0,2.1,0,3.1c0.4-0.6,1-0.9,1.6-0.9c0.7,0,1.2,0.2,1.6,0.8
			c0.4,0.5,0.7,1.3,0.7,2.4c0,1.1-0.2,1.9-0.6,2.5c-0.4,0.6-1,0.9-1.6,0.9c-0.3,0-0.6-0.1-0.9-0.2c-0.3-0.2-0.6-0.4-0.8-0.8
			c0,0.3,0,0.6,0,0.9C533.5,386.9,533,386.9,532.6,386.9L532.6,386.9z M534,383.6c0,0.6,0.1,1.2,0.3,1.4c0.2,0.4,0.6,0.6,1,0.6
			c0.3,0,0.6-0.2,0.8-0.5c0.2-0.3,0.3-0.8,0.3-1.5c0-0.7-0.1-1.2-0.3-1.5c-0.2-0.3-0.5-0.5-0.9-0.5c-0.3,0-0.6,0.2-0.9,0.5
			C534.1,382.5,534,383,534,383.6C534,383.7,534,383.6,534,383.6L534,383.6z M539,379.6c0-0.5,0-1,0-1.5c0.5,0,0.9,0,1.4,0
			c0,0.5,0,1,0,1.5C539.9,379.6,539.5,379.6,539,379.6L539,379.6z M539,386.7c0-2.1,0-4.2,0-6.2c0.5,0,0.9,0,1.4,0
			c0,2.1,0,4.1,0,6.2C540,386.7,539.5,386.7,539,386.7L539,386.7z M541.9,386.6c0-2.8,0-5.7-0.1-8.5c0.5,0,0.9,0,1.4,0
			c0,2.8,0,5.7,0,8.5C542.8,386.6,542.4,386.6,541.9,386.6L541.9,386.6z M547.8,384.4c0.5,0,0.9,0.1,1.4,0.1
			c-0.2,0.6-0.5,1.1-0.8,1.4c-0.4,0.3-0.9,0.5-1.4,0.5c-0.9,0-1.6-0.3-2.1-1c-0.3-0.5-0.5-1.3-0.5-2.1c0-1,0.2-1.8,0.7-2.4
			c0.4-0.6,1-0.9,1.7-0.9c0.8,0,1.4,0.3,1.9,0.8c0.5,0.6,0.7,1.5,0.7,2.7c-1.2,0-2.4,0.1-3.5,0.1c0,0.5,0.1,0.9,0.3,1.1
			c0.2,0.2,0.5,0.4,0.8,0.4c0.2,0,0.4-0.1,0.6-0.2C547.6,385,547.7,384.7,547.8,384.4L547.8,384.4z M547.9,382.8
			c0-0.4-0.1-0.8-0.3-1c-0.2-0.2-0.5-0.3-0.8-0.3c-0.3,0-0.6,0.2-0.8,0.4c-0.2,0.2-0.3,0.6-0.3,1
			C546.5,382.8,547.2,382.8,547.9,382.8L547.9,382.8z"/>
		<path class="st13" d="M518.1,398c0.2,0,0.4-0.1,0.6-0.1c0,0.2,0.1,0.4,0.1,0.5c0.1,0.1,0.2,0.2,0.3,0.2c0.1,0,0.2-0.1,0.3-0.2
			c0.1-0.1,0.1-0.3,0.1-0.6c0-0.2,0-0.4-0.1-0.5c-0.1-0.1-0.2-0.2-0.3-0.2c-0.1,0-0.2,0-0.3,0.1c0-0.2,0-0.5,0.1-0.7
			c0.2,0,0.3-0.1,0.4-0.2c0.1-0.1,0.1-0.3,0.1-0.4c0-0.2,0-0.3-0.1-0.4c-0.1-0.1-0.1-0.1-0.2-0.1c-0.1,0-0.2,0.1-0.3,0.2
			c-0.1,0.1-0.1,0.3-0.1,0.5c-0.2,0-0.4-0.1-0.5-0.1c0-0.3,0.1-0.5,0.2-0.7c0.1-0.2,0.2-0.3,0.3-0.4c0.1-0.1,0.3-0.2,0.5-0.2
			c0.3,0,0.5,0.1,0.7,0.4c0.1,0.2,0.2,0.5,0.2,0.7c0,0.4-0.1,0.7-0.4,1c0.2,0.1,0.3,0.2,0.4,0.4c0.1,0.2,0.2,0.4,0.2,0.7
			c0,0.4-0.1,0.7-0.3,1c-0.2,0.3-0.4,0.5-0.7,0.5c-0.3,0-0.5-0.1-0.7-0.3C518.3,398.7,518.2,398.4,518.1,398L518.1,398z"/>
		<path class="st13" d="M521.7,399c0-0.3,0-0.6,0-0.9c-0.4,0-0.8,0-1.3,0.1c0-0.2,0-0.5,0-0.8c0.4-1,0.9-2,1.3-2.9
			c0.2,0,0.3,0,0.5,0c0,0.9,0,1.9,0,2.8c0.1,0,0.3,0,0.4,0c0,0.3,0,0.5,0,0.8c-0.1,0-0.3,0-0.4,0c0,0.3,0,0.6,0,0.9
			C522.1,399,521.9,399,521.7,399L521.7,399z M521.7,397.3c0-0.5,0-1,0-1.5c-0.2,0.5-0.5,1.1-0.7,1.6
			C521.2,397.4,521.5,397.4,521.7,397.3L521.7,397.3z"/>
		<path class="st13" d="M524.1,398.9c0-0.3,0-0.6,0-0.9c-0.4,0-0.8,0-1.2,0.1c0-0.2,0-0.5,0-0.8c0.4-1,0.9-1.9,1.3-2.9
			c0.2,0,0.3,0,0.5,0c0,0.9,0,1.9,0,2.8c0.1,0,0.2,0,0.4,0c0,0.2,0,0.5,0,0.7c-0.1,0-0.3,0-0.4,0c0,0.3,0,0.6,0,0.9
			C524.5,398.9,524.3,398.9,524.1,398.9L524.1,398.9z M524.1,397.2c0-0.5,0-1,0-1.5c-0.2,0.5-0.5,1.1-0.7,1.6
			C523.6,397.2,523.8,397.2,524.1,397.2L524.1,397.2z"/>
		<path class="st13" d="M526.3,394.3c0.3,0,0.5,0.1,0.7,0.4c0.2,0.3,0.3,0.9,0.3,1.8c0,0.8-0.1,1.5-0.3,1.8
			c-0.2,0.3-0.4,0.5-0.7,0.5c-0.3,0-0.5-0.1-0.7-0.5c-0.2-0.3-0.3-0.9-0.3-1.8c0-0.8,0.1-1.5,0.3-1.8
			C525.7,394.5,526,394.3,526.3,394.3L526.3,394.3z M526.3,395c-0.1,0-0.1,0-0.2,0.1c-0.1,0.1-0.1,0.2-0.1,0.4
			c0,0.2-0.1,0.6-0.1,1.1c0,0.5,0,0.9,0.1,1.1c0,0.2,0.1,0.3,0.1,0.4c0.1,0.1,0.1,0.1,0.2,0.1s0.1,0,0.2-0.1
			c0.1-0.1,0.1-0.2,0.1-0.4c0-0.2,0.1-0.6,0.1-1.1c0-0.5,0-0.9-0.1-1.1c0-0.2-0.1-0.3-0.1-0.4C526.4,395,526.3,395,526.3,395
			L526.3,395z"/>
		<path class="st13" d="M527.4,398.8c0.2-1.6,0.5-3.1,0.7-4.6c0.1,0,0.3,0,0.4,0c-0.2,1.5-0.5,3.1-0.7,4.6
			C527.7,398.7,527.6,398.8,527.4,398.8L527.4,398.8z"/>
		<path class="st13" d="M530.3,398.5c-0.2,0-0.4,0-0.6,0c0-1.1,0-2.1,0-3.2c-0.2,0.3-0.4,0.5-0.7,0.7c0-0.2,0-0.5,0-0.8
			c0.2-0.1,0.3-0.2,0.5-0.4c0.2-0.2,0.3-0.5,0.3-0.7c0.2,0,0.3,0,0.5,0C530.3,395.6,530.3,397,530.3,398.5L530.3,398.5z"/>
		<path class="st13" d="M531.1,397.5c0.2,0,0.4-0.1,0.6-0.1c0,0.2,0.1,0.3,0.1,0.4c0.1,0.1,0.1,0.1,0.2,0.1c0.1,0,0.2-0.1,0.3-0.3
			c0.1-0.2,0.1-0.5,0.1-1c-0.1,0.3-0.3,0.4-0.5,0.4c-0.2,0-0.4-0.1-0.6-0.4c-0.2-0.2-0.3-0.6-0.3-1c0-0.4,0.1-0.8,0.3-1.1
			c0.2-0.3,0.4-0.4,0.7-0.4c0.3,0,0.6,0.1,0.7,0.5c0.2,0.3,0.3,0.9,0.3,1.7c0,0.8-0.1,1.4-0.3,1.7c-0.2,0.4-0.5,0.6-0.8,0.6
			c-0.2,0-0.4-0.1-0.6-0.3C531.3,398.1,531.2,397.8,531.1,397.5L531.1,397.5z M532.4,395.5c0-0.3,0-0.5-0.1-0.6
			c-0.1-0.2-0.2-0.2-0.3-0.2c-0.1,0-0.2,0.1-0.3,0.2c-0.1,0.1-0.1,0.3-0.1,0.6c0,0.3,0,0.5,0.1,0.6c0.1,0.1,0.2,0.2,0.3,0.2
			c0.1,0,0.2-0.1,0.3-0.2C532.4,396,532.4,395.8,532.4,395.5L532.4,395.5z"/>
		<path class="st13" d="M533.4,397.3c0.2,0,0.4-0.1,0.5-0.1c0,0.2,0.1,0.3,0.1,0.4c0.1,0.1,0.1,0.1,0.2,0.1c0.1,0,0.2-0.1,0.3-0.2
			c0.1-0.2,0.1-0.5,0.1-1c-0.1,0.3-0.3,0.4-0.5,0.4c-0.2,0-0.4-0.1-0.6-0.4c-0.2-0.2-0.3-0.6-0.3-1c0-0.4,0.1-0.8,0.3-1.1
			c0.2-0.3,0.4-0.4,0.7-0.4c0.3,0,0.5,0.1,0.7,0.5c0.2,0.3,0.3,0.9,0.3,1.7c0,0.8-0.1,1.4-0.3,1.7c-0.2,0.4-0.5,0.6-0.8,0.6
			c-0.2,0-0.4-0.1-0.6-0.3C533.6,398,533.5,397.7,533.4,397.3L533.4,397.3z M534.7,395.4c0-0.3,0-0.5-0.1-0.6
			c-0.1-0.2-0.2-0.2-0.3-0.2c-0.1,0-0.2,0.1-0.3,0.2c-0.1,0.1-0.1,0.3-0.1,0.6s0,0.5,0.1,0.6c0.1,0.1,0.2,0.2,0.3,0.2
			c0.1,0,0.2-0.1,0.3-0.2C534.7,395.9,534.7,395.7,534.7,395.4L534.7,395.4z"/>
		<path class="st13" d="M536.8,398.2c0-0.3,0-0.6,0-0.9c-0.4,0-0.8,0-1.2,0.1c0-0.2,0-0.5,0-0.7c0.4-0.9,0.8-1.9,1.3-2.8
			c0.2,0,0.3,0,0.5,0c0,0.9,0,1.9,0,2.8c0.1,0,0.2,0,0.4,0c0,0.2,0,0.5,0,0.7c-0.1,0-0.2,0-0.4,0c0,0.3,0,0.6,0,0.9
			C537.1,398.1,537,398.2,536.8,398.2L536.8,398.2z M536.8,396.5c0-0.5,0-1,0-1.5c-0.2,0.5-0.4,1-0.7,1.5
			C536.3,396.6,536.5,396.6,536.8,396.5L536.8,396.5z"/>
		<path class="st14" d="M572.1,428.1c3.1-4.7,7.2-7.3,12.4-7.7l122.3-6.9l46.4,4.8c6.2,0.7,14.1,3.5,17,8.1l10,7.5l34.2,4.2
			c13.1,1.5,22.4,13.1,24.2,18.5c2.8,16.3,5.5,26.3-3.1,42.1c-85.6,27.5-191.8,53.9-280.1,68.4c-28.9-2.7-91.4-34-108.4-52.9
			l3.4-17.4c1.9-6.9,16.7-11.6,27.8-13.7l63.9-17.9L572.1,428.1L572.1,428.1z"/>
		<path class="st2" d="M580.1,424.4c20.3,9.3,51.4,14.8,84.9,17.6c-7.1,13.8-10.7,31.8-17.8,45.6c-35.5-2.1-78.1-12.6-100.4-23.2
			C557.1,451.4,569.7,437.3,580.1,424.4L580.1,424.4z"/>
		<polygon class="st2" points="672.3,445.4 721.6,439.8 722,476.9 657,486.3 672.3,445.4 		"/>
		<polygon class="st2" points="769.3,434.9 730.6,439.2 731.8,474.8 789.7,465 769.3,434.9 		"/>
		<path class="st0" d="M669.3,442L773,431l22.8,28.9l41.1-7.2c2.6,8.8,9.9,27.7-2,45.9l-8.2,3.5c-9.5-28.2-42.9-17.9-47,13.6
			l-128.6,33c-10.2-25.1-50.6-21.4-59.7,10.9l-37.3,7.7c0-9.9-0.9-15.1,0.4-24.9c2.6-7.1,6.4-14.1,17.1-18.2
			c21.4-12.7,48.8-20,78.7-31.8L669.3,442L669.3,442z"/>
		<path class="st0" d="M650.2,494.3c-5.1,26.6,1.9,40.7,11.1,52"/>
		<path class="st0" d="M794.6,460.3c0.9,14.2-0.1,16.3-5.6,31.8"/>
		<polyline class="st0" points="725.9,436.4 727.2,486.3 726.7,529.7 		"/>
		<path class="st14" d="M554,557.8c19.1,2,27.4,4.1,48-0.1l49.5-9.1l134.1-34.2l50.5-17l-3.3,7.5L819,516l-149.7,45.7l-23.8,7.2
			l-48.1,7.3c-12.8,3.6-39.9,4.1-48.9,2.6c-37.1-5.2-92.9-35.4-98.6-44.4c-3.3-4.7-4.1-20.6-1.2-25.5
			C481,535.6,516.3,549.3,554,557.8L554,557.8z"/>
		<path class="st15" d="M809.3,491.5c11.5,0.6,19,13.2,16.8,28.1c-2.2,14.9-13.4,26.6-24.9,26c-11.5-0.6-19-13.2-16.8-28.1
			C786.6,502.6,797.8,491,809.3,491.5L809.3,491.5z"/>
		<path class="st2" d="M808,505.5c5.5,0.6,8.8,7,7.2,14.2c-1.5,7.2-7.3,12.5-12.8,11.9c-5.5-0.6-8.8-7-7.2-14.2
			C796.7,510.3,802.5,504.9,808,505.5L808,505.5z"/>
		<path class="st15" d="M631.7,536.8c14.8,3.5,22.4,20.5,17,38c-5.4,17.5-22,28.9-36.8,25.4c-14.8-3.5-22.4-20.5-17-38
			C600.4,544.7,616.9,533.3,631.7,536.8L631.7,536.8z"/>
		<path class="st2" d="M626.8,552.7c7.3,1.7,11.1,10.2,8.4,18.8c-2.7,8.7-10.9,14.3-18.2,12.6c-7.3-1.7-11.1-10.2-8.4-18.8
			C611.2,556.7,619.4,551,626.8,552.7L626.8,552.7z"/>
		<polygon class="st2" points="476.4,535.4 506.7,550.2 506,561.3 476,546.5 476.4,535.4 		"/>
		<path class="st2" d="M530.2,532.6l26.3,3.8c-1.8,10.2-3.2,13.4-3.1,21.1c-6.4-1.8-30.1-6.9-36.9-10.8
			C519.2,540.9,524.1,532.9,530.2,532.6L530.2,532.6z"/>
		<path class="st2" d="M471.5,507.4l-16.6-16.1c-8.8,7.7-6.9,13.2-7.3,18.4c5.1,3.7,17.8,12.9,24.8,15.6
			C475.1,519.9,473.8,510.6,471.5,507.4L471.5,507.4z"/>
		<path class="st16" d="M254.7,373.9l43.2,15c3.4,1.2,13.9,5.7,16.8,9.1l19.1,27.3l33.5,22.7c3.7,3,6.8,7.4,7.4,11l0.7,9.4
			c0.1,2.4-0.3,5.2-2.5,5.5c-23.7,4.7-50.1,8.9-74,10.7c-5.5,0.9-10.8,0-13.6-1.5l-28.9-15.7l-20.4-7.7l0.1-85.8L254.7,373.9
			L254.7,373.9z"/>
		<path class="st2" d="M242.7,401.8c23.8,1.3,49.3-0.2,66-3.3l20.2,26.8c-21.8,5.8-44.2,8.4-74.2,7.1L242.7,401.8L242.7,401.8z"/>
		<path class="st2" d="M359.2,457.5l9.4-1.6c2.6-0.4,5.9,1.2,6,3.9l0.2,3.8c0.1,2.7,1,5.5-1.6,6l-10.2,1.7c-2.6,0.4-5.7-2.3-6.4-4.9
			l-1.1-4.1C354.9,459.7,356.6,458,359.2,457.5L359.2,457.5z"/>
		<path class="st2" d="M305.1,465.4l-10.8,0.8c-3,0.2-5.2,2.2-5,4.9l0.3,3.9c0.2,2.7,0.6,5.6,3.6,5.5l10.9-0.6
			c3-0.2,5.6-3.5,5.8-6.2l0.4-4.2C310.7,466.9,308.1,465.2,305.1,465.4L305.1,465.4z"/>
		<polygon class="st2" points="236.2,403.1 237.8,403.5 247.6,433 236.3,429.1 236.2,403.1 		"/>
		<path class="st15" d="M252.1,459.1l11.4,8.1l0.5,1.8l1.4,0.9c2.8,1.8,2,5.8,2.4,9.6c1.4,12.1-3.4,22.7-10.7,23.5
			c-2.7,0.3-8.8,0.5-11.1-1.6l3.4-41.6C250.3,459.5,251.2,459.2,252.1,459.1L252.1,459.1z"/>
		<line class="st0" x1="253.6" y1="439" x2="289.6" y2="464.7"/>
		<path class="st16" d="M289.1,482.7l16.3,1.6l69.3-10.9c2,7.1-4.3,14.7-14.8,17.3c-19,4-37.9,8.4-60,9c-6.2,1.3-13.5-0.1-20.2-2.7
			l-24.5-9.3l-19.2-11.1l0-20l2.7,1.8c8-10,22.5,0.3,25.2,10.9L289.1,482.7L289.1,482.7z"/>
		<polygon class="st2" points="327.4,484.9 349.7,481.1 349.4,487.1 327.4,490.5 327.4,484.9 		"/>
		<path class="st15" d="M246.2,459.1c7.3-0.8,14.4,8.4,15.8,20.5c1.4,12.1-3.4,22.7-10.7,23.5c-2.7,0.3-5.4-0.8-7.7-2.8
			c-3.5-2.5-5.8-6.5-7.2-11.1c-0.3-5.8-0.2-12.1-0.3-18.3c1.3-4.9,3.8-9,7.4-11C244.4,459.5,245.3,459.2,246.2,459.1L246.2,459.1z"
			/>
		<path class="st2" d="M247.4,469.9c3.7-0.4,7.3,4.2,8,10.4c0.7,6.1-1.7,11.5-5.4,11.9c-2.5,0.3-4.9-1.7-6.5-5
			c-2.2-4.4-2.5-9.2,0-14.4C244.5,471.2,245.8,470.1,247.4,469.9L247.4,469.9z"/>
		<line class="st0" x1="236.1" y1="509.5" x2="236.1" y2="476.5"/>
		<polygon class="st5" points="573.3,312.2 734.4,323.7 734.4,398.7 573.3,408.1 573.3,312.2 		"/>
		<polygon class="st17" points="578,316.4 731.2,326.8 731.2,395.4 578,404 578,316.4 		"/>
		<polygon class="st5" points="655.1,321.6 663.3,322.2 663.3,399.2 655.1,399.6 655.1,321.6 		"/>
		<polygon class="st17" points="657.5,321.6 660.9,322.2 660.9,399.2 657.5,399.6 657.5,321.6 		"/>
		<path class="st5" d="M780.8,326.8c12.6,1,25.6,2,38.8,3c13.5,1,27.4,2.1,41.6,3.2c0,9.7,0,19.4,0,29c0,9.7,0,19.3,0,29
			c-14.2,0.9-28.1,1.8-41.6,2.6c-13.2,0.8-26.2,1.7-38.8,2.4c0-11.5,0-23.1,0-34.6C780.8,349.9,780.8,338.3,780.8,326.8L780.8,326.8
			z"/>
		<path class="st17" d="M783,329.7c12.1,0.9,24.4,1.8,37,2.7c12.9,1,26.1,1.9,39.6,2.9c0,8.8,0,17.7,0,26.5c0,8.8,0,17.7,0,26.5
			c-13.5,0.8-26.7,1.7-39.6,2.5c-12.6,0.8-25,1.5-37,2.3c0-10.6,0-21.1,0-31.7C783,350.8,783,340.2,783,329.7L783,329.7z"/>
		<path class="st5" d="M820.3,332.4c1.4,0.1,2.7,0.2,4.1,0.3c0,9.6,0,19.3,0,28.9s0,19.3,0,28.9c-1.4,0.1-2.7,0.1-4.1,0.2
			c0-9.7,0-19.4,0-29.2C820.3,351.9,820.3,342.1,820.3,332.4L820.3,332.4z"/>
		<path class="st18" d="M821.6,332.4c0.6,0.1,1.1,0.3,1.7,0.4c0,9.6,0,19.2,0,28.9s0,19.2,0,28.9c-0.6,0.1-1.1,0.2-1.7,0.3
			c0-9.7,0-19.5,0-29.2C821.6,351.9,821.6,342.1,821.6,332.4L821.6,332.4z"/>
		<path class="st5" d="M888,335.1c8.8,0.7,17.8,1.4,27,2.1v51c-9.2,0.6-18.2,1.1-27,1.7c0-9.1,0-18.2,0-27.4
			C888,353.3,888,344.2,888,335.1L888,335.1z"/>
		<path class="st17" d="M889.7,337.4c8.2,0.6,16.7,1.2,25.2,1.9v46.7c-8.6,0.5-17,1.1-25.2,1.6c0-8.4,0-16.7,0-25.1
			S889.7,345.7,889.7,337.4L889.7,337.4z"/>
		<path class="st13" d="M406.1,397.5h-13.5l-5.4-14h-24.6l-5.1,14h-13.2l24-61.6h13.1L406.1,397.5L406.1,397.5z M383.3,373.1
			l-8.5-22.8l-8.3,22.8H383.3L383.3,373.1z"/>
		<polygon class="st13" points="707.3,645.7 707.3,584.2 719.7,584.2 719.7,608.4 744.1,608.4 744.1,584.2 756.5,584.2 756.5,645.7 
			744.1,645.7 744.1,618.8 719.7,618.8 719.7,645.7 707.3,645.7 		"/>
	</g>
</g>
</svg>
