<?xml version="1.0" encoding="utf-8"?>
<!-- Generator: Adobe Illustrator 19.2.0, SVG Export Plug-In . SVG Version: 6.00 Build 0)  -->
<svg version="1.1" id="Livello_1" xmlns="http://www.w3.org/2000/svg" xmlns:xlink="http://www.w3.org/1999/xlink" x="0px" y="0px"
	 viewBox="0 0 960 960" style="enable-background:new 0 0 960 960;" xml:space="preserve">
<style type="text/css">
	.st0{fill-rule:evenodd;clip-rule:evenodd;fill:#FFFFFF;}
	.st1{fill-rule:evenodd;clip-rule:evenodd;fill:#CECFD1;}
	.st2{fill:none;stroke:#1A171B;stroke-width:1.4797;stroke-miterlimit:2.6131;}
	.st3{fill:none;stroke:#1A171B;stroke-width:4.9323;stroke-miterlimit:2.6131;}
	.st4{fill-rule:evenodd;clip-rule:evenodd;fill:#E1001A;stroke:#1A171B;stroke-width:0.4932;stroke-miterlimit:2.6131;}
	.st5{fill-rule:evenodd;clip-rule:evenodd;fill:#FFFFFF;stroke:#1A171B;stroke-width:0.4932;stroke-miterlimit:2.6131;}
	.st6{fill:none;stroke:#1A171B;stroke-width:0.4932;stroke-miterlimit:2.6131;}
	.st7{fill-rule:evenodd;clip-rule:evenodd;fill:#008F36;stroke:#1A171B;stroke-width:0.4932;stroke-miterlimit:2.6131;}
	.st8{fill-rule:evenodd;clip-rule:evenodd;fill:#3D3D3F;stroke:#1A171B;stroke-width:0.4932;stroke-miterlimit:2.6131;}
	.st9{fill:none;stroke:#FFFFFF;stroke-width:0.4932;stroke-miterlimit:2.6131;}
	.st10{fill-rule:evenodd;clip-rule:evenodd;fill:#009DDF;stroke:#1A171B;stroke-width:0.4932;stroke-miterlimit:2.6131;}
	.st11{fill-rule:evenodd;clip-rule:evenodd;fill:#1A171B;}
</style>
<g>
	<g>
		<path class="st0" d="M48.5,682.9V278.4h865.2v404.5C625.2,682.5,336.9,682.6,48.5,682.9L48.5,682.9z"/>
		<path class="st1" d="M48.5,661.7V299.8h865.2v361.8C625.2,661.3,336.9,661.3,48.5,661.7L48.5,661.7z"/>
		<line class="st2" x1="48.2" y1="299.6" x2="913.4" y2="299.6"/>
		<line class="st3" x1="48.3" y1="278.1" x2="913.7" y2="278.1"/>
		<line class="st3" x1="48.3" y1="682.6" x2="913.7" y2="682.6"/>
		<path class="st0" d="M854.3,485.6V475h59.3v10.6H854.3L854.3,485.6z M823.5,475v10.6h-58.8V475H823.5L823.5,475z M734,475v10.6
			h-58.8V475H734L734,475z M644.5,475v10.6h-58.8V475H644.5L644.5,475z M554.6,475v10.6h-58.4V475H554.6L554.6,475z M465.1,475v10.6
			h-58.4V475H465.1L465.1,475z M375.6,475v10.6h-58.8V475H375.6L375.6,475z M286,475v10.6h-34.8h-24V475H286L286,475z M196.5,475
			v10.6h-58.8V475H196.5L196.5,475z M107,475v10.6H48.2V475H107L107,475z"/>
		<polygon class="st0" points="913.2,315.6 913.2,326.1 48.5,326.1 48.5,315.6 913.2,315.6 		"/>
		<polygon class="st0" points="913.2,635.2 913.2,645.8 48.5,645.8 48.5,635.2 913.2,635.2 		"/>
		<line class="st2" x1="48.2" y1="661.5" x2="913.4" y2="661.5"/>
		<path class="st4" d="M625,619.5l36.1,3.8h47.1l38.3-5c3.5-0.3,6.2-3.3,6.2-5.7c0-10.8,0-21.6,0-32.6c0-2.4-3.5-5.5-6.2-5.7
			l-38.2-4H661l-35.9,3.5c-2.9,0.3-6.2,2.5-6.2,5.7v34.4C618.8,617,621.5,619.2,625,619.5L625,619.5z"/>
		<path class="st5" d="M700.9,619.7l13.4-1.9c5.3-14.3,4.8-27.1,0-42.3l-13.4-1.7C704.2,589,704.6,603.8,700.9,619.7L700.9,619.7z"
			/>
		<polygon class="st5" points="644.2,614.9 652.4,612.3 652.4,580.6 644.2,578 644.2,614.9 		"/>
		<path class="st5" d="M623.6,605.4h-2.1c-0.6,0-1.1-0.2-1.1-0.5v-16.4c0-0.3,0.5-0.5,1.1-0.5h2.1c0.6,0,1.1,0.2,1.1,0.5v16.4
			C624.7,605.2,624.2,605.4,623.6,605.4L623.6,605.4z"/>
		<line class="st6" x1="657.1" y1="618.2" x2="695.8" y2="618"/>
		<line class="st6" x1="657.1" y1="575.4" x2="695.8" y2="575.2"/>
		<line class="st6" x1="721.5" y1="616.1" x2="745.1" y2="612.8"/>
		<line class="st6" x1="721.5" y1="577.3" x2="745.1" y2="580.2"/>
		<path class="st7" d="M240.1,504.7l28.2,22.8l33.3,33.3l23.6,30.6c2.3,2.7,2.1,6.7,0.4,8.4c-7.6,7.6-15.3,15.3-23,23
			c-1.7,1.7-6.4,1.4-8.4-0.4l-29.9-24.1l-33.6-33.5l-23-27.8c-1.8-2.2-2.6-6.2-0.4-8.4l24.3-24.3
			C233.9,502.1,237.4,502.4,240.1,504.7L240.1,504.7z"/>
		<path class="st5" d="M293.9,558.2l8.2,10.8c-6.4,13.9-15.7,22.5-29.9,29.9l-10.7-8.3C274.6,582.2,285.3,572,293.9,558.2
			L293.9,558.2z"/>
		<polygon class="st5" points="250.4,521.5 254.4,529.1 232,551.5 224.3,547.7 250.4,521.5 		"/>
		<path class="st5" d="M229.2,513.7l-1.5-1.5c-0.4-0.4-1-0.6-1.2-0.4l-11.6,11.6c-0.2,0.2,0,0.7,0.4,1.2l1.5,1.5
			c0.4,0.4,1,0.6,1.2,0.4l11.6-11.6C229.8,514.6,229.6,514.1,229.2,513.7L229.2,513.7z"/>
		<line class="st6" x1="261.9" y1="528.3" x2="289.1" y2="555.7"/>
		<line class="st6" x1="231.7" y1="558.6" x2="258.9" y2="586"/>
		<line class="st6" x1="305.9" y1="575.3" x2="320.3" y2="594.3"/>
		<line class="st6" x1="278.6" y1="602.7" x2="297.3" y2="617.3"/>
		<path class="st8" d="M344.6,504.7l28.2,22.8l33.3,33.3l23.6,30.6c2.3,2.7,2.1,6.7,0.4,8.4c-7.6,7.6-15.3,15.3-23,23
			c-1.7,1.7-6.4,1.4-8.4-0.4l-29.9-24.1l-33.6-33.5l-23-27.8c-1.8-2.2-2.6-6.2-0.4-8.4l24.3-24.3
			C338.4,502.1,341.9,502.4,344.6,504.7L344.6,504.7z"/>
		<path class="st5" d="M398.4,558.2l8.2,10.8c-6.4,13.9-15.7,22.5-29.9,29.9l-10.7-8.3C379.1,582.2,389.8,572,398.4,558.2
			L398.4,558.2z"/>
		<polygon class="st5" points="354.9,521.5 358.9,529.1 336.5,551.5 328.8,547.7 354.9,521.5 		"/>
		<path class="st5" d="M333.7,513.7l-1.5-1.5c-0.4-0.4-1-0.6-1.2-0.4l-11.6,11.6c-0.2,0.2,0,0.7,0.4,1.2l1.5,1.5
			c0.4,0.4,1,0.6,1.2,0.4l11.6-11.6C334.3,514.6,334.1,514.1,333.7,513.7L333.7,513.7z"/>
		<line class="st9" x1="366.4" y1="528.3" x2="393.6" y2="555.7"/>
		<line class="st9" x1="336.2" y1="558.6" x2="363.4" y2="586"/>
		<line class="st9" x1="410.4" y1="575.3" x2="424.8" y2="594.3"/>
		<line class="st9" x1="383.1" y1="602.7" x2="401.8" y2="617.3"/>
		<path class="st10" d="M464.9,573.7L501,570l47.1,0l38.3,4.9c3.5,0.3,6.2,3.3,6.2,5.7c0,10.8,0,21.6,0,32.6c0,2.4-3.5,5.6-6.2,5.7
			l-38.2,4.1l-47.4,0l-35.9-3.4c-2.9-0.3-6.2-2.5-6.2-5.7l0-34.4C458.7,576.3,461.4,574.1,464.9,573.7L464.9,573.7z"/>
		<path class="st5" d="M540.8,573.5l13.4,1.9c5.3,14.3,4.8,27.1,0,42.3l-13.4,1.7C544.1,604.2,544.4,589.4,540.8,573.5L540.8,573.5z
			"/>
		<polygon class="st5" points="484.1,578.4 492.2,580.9 492.2,612.6 484.1,615.3 484.1,578.4 		"/>
		<path class="st5" d="M463.5,587.9l-2.1,0c-0.6,0-1.1,0.2-1.1,0.5l0,16.4c0,0.3,0.5,0.5,1.1,0.5h2.1c0.6,0,1.1-0.2,1.1-0.5l0-16.4
			C464.6,588.1,464.1,587.9,463.5,587.9L463.5,587.9z"/>
		<line class="st6" x1="497" y1="575.1" x2="535.6" y2="575.2"/>
		<line class="st6" x1="497" y1="617.8" x2="535.7" y2="617.9"/>
		<line class="st6" x1="561.3" y1="577.1" x2="585" y2="580.4"/>
		<line class="st6" x1="561.4" y1="615.8" x2="585" y2="613"/>
		<polygon class="st11" points="508.6,554.1 508.6,511.2 517.3,511.2 517.3,546.8 539,546.8 539,554.1 508.6,554.1 		"/>
		<path class="st11" d="M668.4,554.1v-43.2h14c5.3,0,8.8,0.2,10.4,0.7c2.5,0.6,4.6,2.1,6.2,4.2c1.7,2.2,2.5,5,2.5,8.4
			c0,2.7-0.5,4.9-1.4,6.7c-1,1.8-2.2,3.2-3.7,4.3c-1.5,1-3,1.7-4.5,2c-2.1,0.4-5.1,0.6-9.1,0.6h-5.7v16.3H668.4L668.4,554.1z
			 M677.2,518.2v12.3h4.8c3.4,0,5.7-0.2,6.9-0.7c1.2-0.5,2.1-1.2,2.7-2.1c0.7-1,1-2.1,1-3.4c0-1.6-0.5-2.9-1.4-3.9
			c-0.9-1-2.1-1.7-3.5-1.9c-1.1-0.2-3.1-0.3-6.3-0.3H677.2L677.2,518.2z"/>
		<path class="st11" d="M256,459.2h-9.5l-3.8-9.8h-17.3l-3.6,9.8h-9.3l16.8-43.2h9.2L256,459.2L256,459.2z M239.9,442.2l-6-16
			l-5.8,16H239.9L239.9,442.2z"/>
		<path class="st11" d="M324.5,416h15.9c3.6,0,6.3,0.3,8.2,0.8c2.5,0.7,4.7,2.1,6.5,4c1.8,1.9,3.2,4.2,4.1,7
			c0.9,2.8,1.4,6.2,1.4,10.2c0,3.6-0.4,6.6-1.3,9.2c-1.1,3.1-2.6,5.7-4.6,7.6c-1.5,1.5-3.5,2.6-6.1,3.5c-1.9,0.6-4.5,0.9-7.7,0.9
			h-16.4V416L324.5,416z M333.2,423.3V452h6.5c2.4,0,4.2-0.1,5.3-0.4c1.4-0.4,2.6-0.9,3.5-1.8c0.9-0.8,1.7-2.2,2.3-4.2
			c0.6-1.9,0.9-4.6,0.9-7.9c0-3.3-0.3-5.9-0.9-7.7c-0.6-1.8-1.4-3.2-2.5-4.2c-1.1-1-2.4-1.7-4-2c-1.2-0.3-3.6-0.4-7.2-0.4H333.2
			L333.2,423.3z"/>
	</g>
</g>
</svg>
