<?xml version="1.0" encoding="utf-8"?>
<!-- Generator: Adobe Illustrator 19.2.0, SVG Export Plug-In . SVG Version: 6.00 Build 0)  -->
<svg version="1.1" id="Livello_1" xmlns="http://www.w3.org/2000/svg" xmlns:xlink="http://www.w3.org/1999/xlink" x="0px" y="0px"
	 viewBox="0 0 960 960" style="enable-background:new 0 0 960 960;" xml:space="preserve">
<style type="text/css">
	.st0{fill-rule:evenodd;clip-rule:evenodd;fill:#1A171B;stroke:#1A171B;stroke-width:1.3867;stroke-miterlimit:2.6131;}
</style>
<g>
	<g>
		<path class="st0" d="M63.9,466.3l17.5-46.8h58.1v46.8H63.9L63.9,466.3z M45,560.2v-84.5l28.2-72.3h77.5V522h129.7
			c-14,5.1-24.9,20.1-25.7,38.2H147.1c-3.5-55.9-84.5-56.1-87.7,0H45L45,560.2z"/>
		<path class="st0" d="M343.8,561.1c0-13.6-6-31.8-23.4-39.2h61c-15.8,5.8-25.5,25.5-27.1,39.2H343.8L343.8,561.1z"/>
		<path class="st0" d="M733.2,561.1c0-13.6-6-31.8-23.4-39.2h61c-15.8,5.8-25.5,25.5-27.1,39.2H733.2L733.2,561.1z"/>
		<path class="st0" d="M444.7,561.3c-0.8-15.2-11.3-33.3-24.9-39.2h105.8v20.3l-49.7,18.9H444.7L444.7,561.3z"/>
		<path class="st0" d="M834.2,561.1c-0.8-15.2-11.3-33.3-24.9-39.2H915v20.3l-49.7,18.9H834.2L834.2,561.1z"/>
		<path class="st0" d="M644.2,561.3c0.4-15.2,9.2-33.3,24.9-39.2H563.4v20.3l49.7,18.9H644.2L644.2,561.3z"/>
		<path class="st0" d="M103.1,524.9c20.6,0,36.8,16,36.8,36.2c0,20.3-16.2,36.8-36.8,36.8s-36.8-16.6-36.8-36.8
			C66.2,540.9,82.4,524.9,103.1,524.9L103.1,524.9z M103.1,545.2c9,0,15.8,7.8,15.8,16c0,8.2-6.8,15-15.8,15c-9,0-15.8-6.8-15.8-15
			C87.3,553,94.1,545.2,103.1,545.2L103.1,545.2z"/>
		<path class="st0" d="M299.4,524.9c20.6,0,36.8,16,36.8,36.2c0,20.3-16.2,36.8-36.8,36.8c-20.7,0-36.8-16.6-36.8-36.8
			C262.6,540.9,278.8,524.9,299.4,524.9L299.4,524.9z M299.4,545.2c9,0,15.8,7.8,15.8,16c0,8.2-6.8,15-15.8,15
			c-9,0-15.8-6.8-15.8-15C283.6,553,290.5,545.2,299.4,545.2L299.4,545.2z"/>
		<path class="st0" d="M688.8,524.9c20.7,0,36.8,16,36.8,36.2c0,20.3-16.2,36.8-36.8,36.8c-20.7,0-36.8-16.6-36.8-36.8
			C652,540.9,668.2,524.9,688.8,524.9L688.8,524.9z M688.8,545.2c9,0,15.8,7.8,15.8,16c0,8.2-6.8,15-15.8,15s-15.8-6.8-15.8-15
			C673.1,553,679.9,545.2,688.8,545.2L688.8,545.2z"/>
		<path class="st0" d="M399.5,524.9c19.5,0,36.2,16,36.2,36.2c0,20.3-16.8,36.8-36.2,36.8c-19.5,0-37.6-16.6-37.6-36.8
			C361.9,540.9,380.1,524.9,399.5,524.9L399.5,524.9z M399.5,545.2c8.6,0,15,7.8,15,16c0,8.2-6.4,15-15,15c-8.6,0-16.6-6.8-16.6-15
			C383,553,391,545.2,399.5,545.2L399.5,545.2z"/>
		<path class="st0" d="M789,524.9c19.5,0,36.2,16,36.2,36.2c0,20.3-16.8,36.8-36.2,36.8c-19.5,0-37.6-16.6-37.6-36.8
			C751.4,540.9,769.5,524.9,789,524.9L789,524.9z M789,545.2c8.6,0,15,7.8,15,16c0,8.2-6.4,15-15,15c-8.6,0-16.6-6.8-16.6-15
			C772.4,553,780.4,545.2,789,545.2L789,545.2z"/>
		<polygon class="st0" points="563.6,498.8 563.6,362 915,362 915,510.9 162.1,511.1 162.1,362.2 525.6,362.2 525.6,498.8 
			563.6,498.8 		"/>
	</g>
</g>
</svg>
