<?xml version="1.0" encoding="utf-8"?>
<!-- Generator: Adobe Illustrator 19.2.0, SVG Export Plug-In . SVG Version: 6.00 Build 0)  -->
<svg version="1.1" id="Livello_1" xmlns="http://www.w3.org/2000/svg" xmlns:xlink="http://www.w3.org/1999/xlink" x="0px" y="0px"
	 viewBox="0 0 960 960" style="enable-background:new 0 0 960 960;" xml:space="preserve">
<style type="text/css">
	.st0{fill-rule:evenodd;clip-rule:evenodd;fill:#FFEC00;}
	.st1{fill:none;stroke:#1A171B;stroke-width:1.8036;stroke-miterlimit:2.6131;}
	.st2{fill-rule:evenodd;clip-rule:evenodd;fill:#FFFFFF;stroke:#1A171B;stroke-width:1.8036;stroke-miterlimit:2.6131;}
</style>
<g>
	<g>
		<path class="st0" d="M480.6,210.7c148.7,0,269.9,121.3,269.9,269.9c0,148.7-121.3,269.9-269.9,269.9
			c-148.7,0-269.9-121.3-269.9-269.9C210.7,331.9,331.9,210.7,480.6,210.7L480.6,210.7z"/>
		<path class="st1" d="M235.9,629.1V333.9c-6,10.2-11.4,21-16.8,32.5v230.3C224.5,608.1,229.9,618.9,235.9,629.1L235.9,629.1z"/>
		<path class="st1" d="M275.6,680.8V282.2c-6,6.6-12,13.2-18,20.4v357.7C263.6,667.6,269.6,674.2,275.6,680.8L275.6,680.8z"/>
		<path class="st1" d="M314.1,714.5V248.5c-5.4,4.2-10.8,8.4-16.8,13.2v439.5C303.2,706.1,308.7,710.3,314.1,714.5L314.1,714.5z"/>
		<path class="st1" d="M352.5,737.9V225.1c-6,3-12,6.6-18,10.2v492.4C340.5,731.3,346.5,734.9,352.5,737.9L352.5,737.9z"/>
		<path class="st1" d="M391,754.2V208.9c-5.4,1.8-10.8,4.2-16.8,6.6v532.1C380.2,749.9,385.6,752.4,391,754.2L391,754.2z"/>
		<path class="st1" d="M430.7,764.4V198.6c-6,1.2-12,2.4-18,4.2v557.3C418.7,762,424.7,763.2,430.7,764.4L430.7,764.4z"/>
		<path class="st1" d="M468,768.6V194.4c-5.4,0.6-10.8,0.6-16.8,1.2v571.7C457.2,768,462.6,768,468,768.6L468,768.6z"/>
		<path class="st1" d="M507.7,768V195c-5.4-0.6-11.4-0.6-18-0.6v574.2C496.2,768.6,502.2,768.6,507.7,768L507.7,768z"/>
		<path class="st1" d="M544.9,762V201c-5.4-1.2-10.8-2.4-16.8-3V765C534.1,764.4,539.5,763.2,544.9,762L544.9,762z"/>
		<path class="st1" d="M584.6,749.9V213.1c-5.4-2.4-11.4-4.8-18-6.6v550.1C573.2,754.8,579.2,752.4,584.6,749.9L584.6,749.9z"/>
		<path class="st1" d="M623.1,731.9V231.1c-5.4-3.6-10.8-6-16.8-9v518.8C612.3,737.9,617.7,735.5,623.1,731.9L623.1,731.9z"/>
		<path class="st1" d="M661.6,706.1V257c-5.4-4.8-11.4-9-18-13.2v475.6C650.1,715.1,656.2,710.9,661.6,706.1L661.6,706.1z"/>
		<path class="st1" d="M700,669.4V293.6c-4.8-6-10.8-12-16.8-17.4v410.6C689.2,681.4,695.2,675.4,700,669.4L700,669.4z"/>
		<path class="st1" d="M738.5,612.3V350.7c-4.8-10.2-11.4-20.4-18-30.1v321.6C727.1,632.7,733.7,622.5,738.5,612.3L738.5,612.3z"/>
		<path class="st2" d="M480,180c165.3,0,300,134.7,300,300c0,165.3-134.7,300-300,300S180,645.3,180,480
			C180,314.7,314.7,180,480,180L480,180z M480.6,209.5c149.1,0,269.3,121.4,269.3,270.5c0,149.1-120.2,269.3-269.3,269.3
			c-149.1,0-270.5-120.2-270.5-269.3C210.1,330.9,331.5,209.5,480.6,209.5L480.6,209.5z"/>
	</g>
</g>
</svg>
