<?xml version="1.0" encoding="utf-8"?>
<!-- Generator: Adobe Illustrator 19.2.0, SVG Export Plug-In . SVG Version: 6.00 Build 0)  -->
<svg version="1.1" id="Livello_1" xmlns="http://www.w3.org/2000/svg" xmlns:xlink="http://www.w3.org/1999/xlink" x="0px" y="0px"
	 viewBox="0 0 960 960" style="enable-background:new 0 0 960 960;" xml:space="preserve">
<style type="text/css">
	.st0{fill-rule:evenodd;clip-rule:evenodd;fill:#CECFD1;}
	.st1{fill-rule:evenodd;clip-rule:evenodd;fill:#FFEC00;}
	.st2{fill:none;stroke:#1A171B;stroke-width:1.8036;stroke-miterlimit:2.6131;}
	.st3{fill-rule:evenodd;clip-rule:evenodd;fill:#FFFFFF;stroke:#1A171B;stroke-width:1.8036;stroke-miterlimit:2.6131;}
</style>
<g>
	<g>
		<path class="st0" d="M480.8,211c148.7,0,269.9,121.3,269.9,269.9S629.5,750.9,480.8,750.9c-148.7,0-269.9-121.3-269.9-269.9
			S332.1,211,480.8,211L480.8,211z"/>
		<path class="st1" d="M749.9,477H210.7c1.2-147.3,122-267.5,269.3-267.5C627.9,209.5,748.7,329.7,749.9,477L749.9,477z"/>
		<path class="st2" d="M237.1,627.3V332.1c-6,10.2-11.4,21-16.8,32.5v230.3C225.7,606.3,231.1,617.1,237.1,627.3L237.1,627.3z"/>
		<path class="st2" d="M276.8,679V280.4c-6,6.6-12,13.2-18,20.4v357.7C264.8,665.8,270.8,672.4,276.8,679L276.8,679z"/>
		<path class="st2" d="M315.3,712.7V246.7c-5.4,4.2-10.8,8.4-16.8,13.2v439.5C304.4,704.2,309.9,708.5,315.3,712.7L315.3,712.7z"/>
		<path class="st2" d="M353.7,736.1V223.3c-6,3-12,6.6-18,10.2v492.4C341.7,729.5,347.7,733.1,353.7,736.1L353.7,736.1z"/>
		<path class="st2" d="M392.2,752.4V207.1c-5.4,1.8-10.8,4.2-16.8,6.6v532.1C381.4,748.1,386.8,750.5,392.2,752.4L392.2,752.4z"/>
		<path class="st2" d="M431.9,762.6V196.8c-6,1.2-12,2.4-18,4.2v557.3C419.9,760.2,425.9,761.4,431.9,762.6L431.9,762.6z"/>
		<path class="st2" d="M469.2,766.8V192.6c-5.4,0.6-10.8,0.6-16.8,1.2v571.7C458.4,766.2,463.8,766.2,469.2,766.8L469.2,766.8z"/>
		<path class="st2" d="M508.9,766.2V193.2c-5.4-0.6-11.4-0.6-18-0.6v574.2C497.4,766.8,503.5,766.8,508.9,766.2L508.9,766.2z"/>
		<path class="st2" d="M546.1,760.2V199.2c-5.4-1.2-10.8-2.4-16.8-3v566.9C535.3,762.6,540.7,761.4,546.1,760.2L546.1,760.2z"/>
		<path class="st2" d="M585.8,748.1V211.3c-5.4-2.4-11.4-4.8-18-6.6v550.1C574.4,752.9,580.4,750.5,585.8,748.1L585.8,748.1z"/>
		<path class="st2" d="M624.3,730.1V229.3c-5.4-3.6-10.8-6-16.8-9v518.8C613.5,736.1,618.9,733.7,624.3,730.1L624.3,730.1z"/>
		<path class="st2" d="M662.8,704.2V255.1c-5.4-4.8-11.4-9-18-13.2v475.6C651.3,713.3,657.4,709.1,662.8,704.2L662.8,704.2z"/>
		<path class="st2" d="M701.2,667.6V291.8c-4.8-6-10.8-12-16.8-17.4V685C690.4,679.6,696.4,673.6,701.2,667.6L701.2,667.6z"/>
		<path class="st2" d="M739.7,610.5V348.9c-4.8-10.2-11.4-20.4-18-30.1v321.6C728.3,630.9,734.9,620.7,739.7,610.5L739.7,610.5z"/>
		<path class="st3" d="M479.4,180C645.3,180,780,314.7,780,479.4C780,645.3,645.3,780,479.4,780C314.7,780,180,645.3,180,479.4
			C180,314.7,314.7,180,479.4,180L479.4,180z M480,209.5c149.1,0,270.5,121.4,270.5,269.3c0,150.3-121.4,270.5-270.5,270.5
			c-149.1,0-269.3-120.2-269.3-270.5C210.7,330.9,330.9,209.5,480,209.5L480,209.5z"/>
	</g>
</g>
</svg>
