<?xml version="1.0" encoding="utf-8"?>
<!-- Generator: Adobe Illustrator 19.2.0, SVG Export Plug-In . SVG Version: 6.00 Build 0)  -->
<svg version="1.1" id="Livello_1" xmlns="http://www.w3.org/2000/svg" xmlns:xlink="http://www.w3.org/1999/xlink" x="0px" y="0px"
	 viewBox="0 0 960 960" style="enable-background:new 0 0 960 960;" xml:space="preserve">
<style type="text/css">
	.st0{fill-rule:evenodd;clip-rule:evenodd;fill:#FFEC00;}
	.st1{fill-rule:evenodd;clip-rule:evenodd;fill:#CECFD1;stroke:#CECFD1;stroke-width:6.0121;stroke-miterlimit:2.6131;}
	.st2{fill:none;stroke:#1A171B;stroke-width:1.8036;stroke-miterlimit:2.6131;}
	.st3{fill-rule:evenodd;clip-rule:evenodd;fill:#FFFFFF;stroke:#1A171B;stroke-width:1.8036;stroke-miterlimit:2.6131;}
</style>
<g>
	<g>
		<path class="st0" d="M480.6,210.7c148.7,0,269.9,121.3,269.9,269.9c0,148.7-121.3,269.9-269.9,269.9
			c-148.7,0-269.9-121.3-269.9-269.9C210.7,331.9,331.9,210.7,480.6,210.7L480.6,210.7z"/>
		<path class="st1" d="M228.7,379.6L480,477h268.7c-1.2-147.3-122-267.5-269.3-267.5C365.8,209.5,268.4,280.4,228.7,379.6
			L228.7,379.6z"/>
		<path class="st2" d="M235.3,628.5V333.3c-6,10.2-11.4,21-16.8,32.5V596C223.9,607.5,229.3,618.3,235.3,628.5L235.3,628.5z"/>
		<path class="st2" d="M275,680.2V281.6c-6,6.6-12,13.2-18,20.4v357.7C263,667,269,673.6,275,680.2L275,680.2z"/>
		<path class="st2" d="M313.5,713.9V247.9c-5.4,4.2-10.8,8.4-16.8,13.2v439.5C302.6,705.5,308.1,709.7,313.5,713.9L313.5,713.9z"/>
		<path class="st2" d="M351.9,737.3V224.5c-6,3-12,6.6-18,10.2v492.4C339.9,730.7,345.9,734.3,351.9,737.3L351.9,737.3z"/>
		<path class="st2" d="M390.4,753.5V208.3c-5.4,1.8-10.8,4.2-16.8,6.6v532.1C379.6,749.3,385,751.7,390.4,753.5L390.4,753.5z"/>
		<path class="st2" d="M430.1,763.8V198c-6,1.2-12,2.4-18,4.2v557.3C418.1,761.4,424.1,762.6,430.1,763.8L430.1,763.8z"/>
		<path class="st2" d="M467.4,768V193.8c-5.4,0.6-10.8,0.6-16.8,1.2v571.7C456.6,767.4,462,767.4,467.4,768L467.4,768z"/>
		<path class="st2" d="M507.1,767.4v-573c-5.4-0.6-11.4-0.6-18-0.6V768C495.6,768,501.6,768,507.1,767.4L507.1,767.4z"/>
		<path class="st2" d="M544.3,761.4V200.4c-5.4-1.2-10.8-2.4-16.8-3v566.9C533.5,763.8,538.9,762.6,544.3,761.4L544.3,761.4z"/>
		<path class="st2" d="M584,749.3V212.5c-5.4-2.4-11.4-4.8-18-6.6V756C572.6,754.2,578.6,751.7,584,749.3L584,749.3z"/>
		<path class="st2" d="M622.5,731.3V230.5c-5.4-3.6-10.8-6-16.8-9v518.8C611.7,737.3,617.1,734.9,622.5,731.3L622.5,731.3z"/>
		<path class="st2" d="M661,705.5V256.4c-5.4-4.8-11.4-9-18-13.2v475.6C649.5,714.5,655.6,710.3,661,705.5L661,705.5z"/>
		<path class="st2" d="M699.4,668.8V293c-4.8-6-10.8-12-16.8-17.4v410.6C688.6,680.8,694.6,674.8,699.4,668.8L699.4,668.8z"/>
		<path class="st2" d="M737.9,611.7V350.1c-4.8-10.2-11.4-20.4-18-30.1v321.7C726.5,632.1,733.1,621.9,737.9,611.7L737.9,611.7z"/>
		<path class="st3" d="M480,180c165.3,0,300,134.7,300,300c0,165.3-134.7,300-300,300S180,645.3,180,480
			C180,314.7,314.7,180,480,180L480,180z M480.6,209.5c149.1,0,269.3,121.4,269.3,270.5c0,149.1-120.2,269.3-269.3,269.3
			c-149.1,0-270.5-120.2-270.5-269.3C210.1,330.9,331.5,209.5,480.6,209.5L480.6,209.5z"/>
	</g>
</g>
</svg>
