<?xml version="1.0" encoding="utf-8"?>
<!-- Generator: Adobe Illustrator 19.2.0, SVG Export Plug-In . SVG Version: 6.00 Build 0)  -->
<svg version="1.1" id="Livello_1" xmlns="http://www.w3.org/2000/svg" xmlns:xlink="http://www.w3.org/1999/xlink" x="0px" y="0px"
	 viewBox="0 0 960 960" style="enable-background:new 0 0 960 960;" xml:space="preserve">
<style type="text/css">
	.st0{fill:#1A58A6;stroke:#000000;stroke-width:2;stroke-miterlimit:2.6131;}
	.st1{fill:#1A171B;stroke:#1A171B;stroke-width:0.4722;stroke-miterlimit:2.6131;}
</style>
<rect x="89" y="265" class="st0" width="782" height="430"/>
<g>
	<path class="st1" d="M223.7,630.5V595h150.7c3.3,14.6,7.1,25.1,13.2,35.4H223.7L223.7,630.5z"/>
	<path class="st1" d="M728,425c-3.8-6.2-7.1-12.7-10-18.4l-3.3-5.2c-12.3-18-28.8-33.5-45.8-44.8c-58.5-33.9-138.4-54.8-207.3-45.8
		c-15.1,7.1-26.9,18.9-33.5,34c-4.8,7.1-13.2,33.5-15.6,42.6C402.1,468,396,562,436.1,631c8.1,12.3,21.8,20.3,36.9,20.2
		c67.5,1.9,145.9-15.1,200.7-51.4c13.7-10.9,26.9-22.2,39.7-39.7c2.8-3.2,4.2-5.2,4.8-7.5C740.3,516.6,742.7,465.6,728,425z
		 M694.4,508.1c-8.5,26.9-28.3,48.6-52,64.7c-39.1,29.3-103.4,41.6-156.3,39.7h-9v-0.1l-2.8-1.4c-9-4.3-13.2-16.1-18.9-26.4
		c-17.5-72.7-19.4-153,8.5-224.8c1.9-3.8,5.2-8.5,10.4-11.9c35.4-1.9,69.4-0.5,105.3,10c4.8,0.5,6.6,2.4,11.9,4.3
		c39.1,13.2,73.2,35.4,95.4,69.4C698.7,453.3,703,482.7,694.4,508.1z"/>
	<polygon class="st1" points="223.7,563.9 223.7,528.4 363.8,528.4 368.7,563.9 	"/>
	<polygon class="st1" points="223.3,497.2 222.8,462.3 363.5,461.9 363.5,497.2 	"/>
	<polygon class="st1" points="223.7,430.7 223.7,395.3 368.7,395.3 363.8,430.7 	"/>
	<path class="st1" d="M223.7,364.6v-35.9h163.9c-7.1,11.3-12.3,21.7-15.6,35.4L223.7,364.6L223.7,364.6z"/>
</g>
</svg>
