<?xml version="1.0" encoding="utf-8"?>
<!-- Generator: Adobe Illustrator 19.2.0, SVG Export Plug-In . SVG Version: 6.00 Build 0)  -->
<svg version="1.1" id="Livello_1" xmlns="http://www.w3.org/2000/svg" xmlns:xlink="http://www.w3.org/1999/xlink" x="0px" y="0px"
	 viewBox="0 0 960 960" style="enable-background:new 0 0 960 960;" xml:space="preserve">
<style type="text/css">
	.st0{fill-rule:evenodd;clip-rule:evenodd;fill:#1A171B;stroke:#1A171B;stroke-width:0.5671;stroke-miterlimit:2.6131;}
</style>
<g>
	<g>
		<path class="st0" d="M681.9,496.4c17.6,16.4,27.2,35.7,27.2,56.7c0,62.4-93,113.4-206.4,113.4c-114.6,0-208.7-51-208.7-113.4
			c0-5.7,1.1-10.8,2.3-15.9c-35.2,18.2-65.8,61.3-78.8,117.4H180V293.4h38c31.8,137.2,166.2,134.4,214.9,137.2l264.8,13.6h34.6
			l22.1-32.3H780v114.6h-25.5l-22.1-30.1h-34.6C692.1,496.4,687,496.4,681.9,496.4L681.9,496.4z M611.6,497.6
			c-74.3,1.7-141.8,7.4-178.6,10.8c-17.6,2.3-44.8,2.8-74.3,7.9c-4,2.8-8.5,6.2-12.5,9.6c-11.3,13.6-18.1,25-9.1,42
			c34,52.2,127,62.4,183.7,60.1c40.8-3.4,145.2-20.4,150.8-74.9C669.4,526.5,642.8,508.9,611.6,497.6L611.6,497.6z"/>
	</g>
</g>
</svg>
