<?xml version="1.0" encoding="utf-8"?>
<!-- Generator: Adobe Illustrator 19.2.0, SVG Export Plug-In . SVG Version: 6.00 Build 0)  -->
<svg version="1.1" id="Livello_1" xmlns="http://www.w3.org/2000/svg" xmlns:xlink="http://www.w3.org/1999/xlink" x="0px" y="0px"
	 viewBox="0 0 960 960" style="enable-background:new 0 0 960 960;" xml:space="preserve">
<style type="text/css">
	.st0{fill-rule:evenodd;clip-rule:evenodd;fill:#1A171B;stroke:#1A171B;stroke-width:0.5699;stroke-miterlimit:2.6131;}
</style>
<g>
	<g>
		<path class="st0" d="M602,614.8h-33.1H602L602,614.8z M602.5,614.8c0,25.1,19.9,46.2,45,46.2c25.1,0,45.6-20.5,45.6-45.6
			c0-0.6-0.6-0.6-0.6-1.1h33.6c0,0.6,0.6,0.6,0.6,1.1c0,43.9-35.3,79.2-79.2,79.2c-43.9,0-79.2-35.3-79.2-79.2c0-0.6,0-1.1,0-1.1
			l0.6,0.6c0-41,0-84.4,0-125.4c0-19.4-13.7-37.6-31.9-43.3v-34.2c37.6,6.8,65.5,36.5,65.5,75.2
			C602.5,551.5,602.5,566.9,602.5,614.8L602.5,614.8z M637.9,300.8l-57.6-62.7l17.1-17.7c40.5,30.2,84.4,62.7,109.4,104.9l12.5,49
			l-26.2,8l34.2,232h-34.2l-41.6-271.3C649.3,327.5,644.1,313.3,637.9,300.8L637.9,300.8z"/>
		<path class="st0" d="M295.9,205h209.7c17.1,0,30.8,13.7,30.8,30.8v467.9h31.9V755H232.6v-51.3h32.5V235.8
			C265.1,218.7,278.8,205,295.9,205L295.9,205z M295.9,235.8h209.2v210.3H295.9V235.8L295.9,235.8z"/>
	</g>
</g>
</svg>
