<?xml version="1.0" encoding="utf-8"?>
<!-- Generator: Adobe Illustrator 19.2.0, SVG Export Plug-In . SVG Version: 6.00 Build 0)  -->
<svg version="1.1" id="Livello_1" xmlns="http://www.w3.org/2000/svg" xmlns:xlink="http://www.w3.org/1999/xlink" x="0px" y="0px"
	 viewBox="0 0 960 960" style="enable-background:new 0 0 960 960;" xml:space="preserve">
<style type="text/css">
	.st0{fill:#CB0100;stroke:#000000;stroke-width:2;stroke-miterlimit:2.6131;}
	.st1{fill:#1A171B;stroke:#1A171B;stroke-width:0.4249;stroke-miterlimit:2.6131;}
</style>
<rect x="89" y="265" class="st0" width="782" height="430"/>
<g>
	<g>
		<path class="st1" d="M479.6,286h0.9c11.9,0,22.1,10.2,22.1,22.1v22.1h87.5v34.8h-87.6v31.5H590v34.8h-87.5v31.5h86.7v34.8h-86.7
			v23.8c12.3,8.1,21.2,22.1,21.2,37.4c0,23.4-20.4,43.7-43.7,43.7c-24.2,0-44.6-20.4-44.6-43.7c0-16.2,8.9-30.6,22.1-38.2V308.2
			C457.5,296.2,467.7,286,479.6,286L479.6,286z"/>
		<path class="st1" d="M674.6,609.8l-14,33.6c-1.7,1.2-2.1,2.1-2.1,2.6c-20.4,0-37.8,28-59.5,28c-21.7,0-37.8-28-59.5-28
			c-21.7,0-37.8,28-59.5,28s-37.8-28-59.5-28s-37.8,28-59.5,28c-21.7,0-39.1-28-58.7-27.6l-16.2-36.1c4.7-0.9,9.8-1.7,15.3-1.7
			c20.8,0,37.8,26.3,59.5,26.3s38.2-26.3,59.5-26.3c21.2,0,37.8,26.3,59.5,26.3s38.2-26.3,59.5-26.3c21.2,0,37.8,26.3,59.5,26.3
			c21.7,0,39.5-26.3,59.5-26.3C664.8,608.6,669.1,610.3,674.6,609.8L674.6,609.8z"/>
		<path class="st1" d="M700.5,553.3l-14,31.5c-21.2-6.4-42.5-13.6-59.9-14c-23.8-0.4-41.2,15.3-56.1,17c-14.8,1.7-20.8-5.1-31-7.6
			c0-11.9,0-23.8,0-35.3c9.3,2.6,13.6,9.3,28.9,7.6c15.3-1.7,36.5-17.4,60.8-17C650.4,535.9,676.3,546.1,700.5,553.3L700.5,553.3z"
			/>
		<path class="st1" d="M259.5,553.3l14,31.5c21.2-6.4,42.5-13.6,59.9-14c23.8-0.4,41.2,15.3,56.1,17c14.8,1.7,20.8-5.1,31-7.6
			c0-11.9,0-23.8,0-35.3c-9.3,2.6-13.6,9.3-28.9,7.6c-15.3-1.7-36.5-17.4-60.8-17C309.6,535.9,283.7,546.1,259.5,553.3L259.5,553.3z
			"/>
	</g>
</g>
</svg>
