<?xml version="1.0" encoding="utf-8"?>
<!-- Generator: Adobe Illustrator 19.2.0, SVG Export Plug-In . SVG Version: 6.00 Build 0)  -->
<svg version="1.1" id="Livello_1" xmlns="http://www.w3.org/2000/svg" xmlns:xlink="http://www.w3.org/1999/xlink" x="0px" y="0px"
	 viewBox="0 0 960 960" style="enable-background:new 0 0 960 960;" xml:space="preserve">
<style type="text/css">
	.st0{fill:#CB0100;stroke:#000000;stroke-width:2;stroke-miterlimit:2.6131;}
	.st1{fill:#1A171B;stroke:#1A171B;stroke-width:0.5004;stroke-miterlimit:2.6131;}
</style>
<rect x="89" y="265" class="st0" width="782" height="430"/>
<g>
	<path class="st1" d="M209.3,316.6v347.3h541.5V316.6H209.3z M717.7,630.8H242.3V349.6h475.4V630.8z"/>
	<polygon class="st1" points="297.3,296.1 382.4,296.1 382.4,316.6 297.3,316.6 	"/>
	<polygon class="st1" points="577.6,296.1 662.7,296.1 662.7,316.6 577.6,316.6 	"/>
	<polygon class="st1" points="288.9,414.7 390.9,414.7 390.9,452.7 288.9,452.7 	"/>
	<polygon class="st1" points="639.7,414.7 639.7,382.2 601.7,382.2 601.7,414.7 569.1,414.7 569.1,452.7 601.7,452.7 601.7,484.2 
		639.7,484.2 639.7,452.7 671.1,452.7 671.1,414.7 	"/>
</g>
</svg>
