<?xml version="1.0" encoding="utf-8"?>
<!-- Generator: Adobe Illustrator 19.2.0, SVG Export Plug-In . SVG Version: 6.00 Build 0)  -->
<svg version="1.1" id="Livello_1" xmlns="http://www.w3.org/2000/svg" xmlns:xlink="http://www.w3.org/1999/xlink" x="0px" y="0px"
	 viewBox="0 0 960 960" style="enable-background:new 0 0 960 960;" xml:space="preserve">
<style type="text/css">
	.st0{fill:#CB0100;stroke:#000000;stroke-width:2;stroke-miterlimit:2.6131;}
	.st1{fill:#1A171B;stroke:#1A171B;stroke-width:0.4935;stroke-miterlimit:2.6131;}
</style>
<rect x="89" y="265" class="st0" width="782" height="430"/>
<g>
	<path class="st1" d="M734.3,393.8l-0.5,0.5l-208.2,68.1L499,433.8h-65.6v-21.2H461v-38h-99.7v38h28.6v21.2h-56.7v-21.2L195,359.4
		v116.5l103.6,38.9h0v85.4l227,0.5c42.4,0,117.9-125.9,187.4-159.3c6.8-3.5,5.9-2,13.3,1l9.9,10.8l28.6-26.7L734.3,393.8z M229,455
		l0.5-48.8l69.1,27.6l1,48.4L229,455z M523.2,567.1H332.3v-99.7h152.4l29.2,36.5l109.5-36.5L523.2,567.1z"/>
	<path class="st1" d="M739.7,476.1c8.3,3.3,14,23.2,19.8,36.1c5.6,12.5,7.5,27.2-2.4,38c-4.8,5.3-10.6,8-17.4,8
		c-6.7,0-12.4-2.8-17.2-8c-10-11-8.6-24.1-2.4-37.9C726,499.6,731.8,479.2,739.7,476.1L739.7,476.1z"/>
</g>
</svg>
