<?xml version="1.0" encoding="utf-8"?>
<!-- Generator: Adobe Illustrator 19.2.0, SVG Export Plug-In . SVG Version: 6.00 Build 0)  -->
<svg version="1.1" id="Livello_1" xmlns="http://www.w3.org/2000/svg" xmlns:xlink="http://www.w3.org/1999/xlink" x="0px" y="0px"
	 viewBox="0 0 960 960" style="enable-background:new 0 0 960 960;" xml:space="preserve">
<style type="text/css">
	.st0{fill:#CB0100;stroke:#000000;stroke-width:2;stroke-miterlimit:2.6131;}
	.st1{fill:#1A171B;stroke:#1A171B;stroke-width:0.3514;stroke-miterlimit:2.6131;}
</style>
<rect x="89" y="265" class="st0" width="782" height="430"/>
<g>
	<path class="st1" d="M513.7,384.4l-0.2-0.2l-0.2,0.2c0.1,0,0.2,0.1,0.2,0.1L513.7,384.4z"/>
	<path class="st1" d="M582.4,544.5l-2.5-3.2c0.7-40.4-13.4-82.3-23.9-119.9c-3.9-14.8-8.4-14.8-21.4-23.9l51.7-56.6
		c-4.6-5.6-13.7-11.9-18.3-16.2l-54.2,59.5l20.5,13.2L392.7,546.2l-0.7,2.1c60.4-21.1,125.4-21.4,186.6-4.3l-5,22.1l-11.9-3.5
		c-58-15.1-126.1-5-178.1,13.4c-3.6-12.1-4.3-26.5-4.3-39.8c0.2-3.6,0.4-7.3,0.5-10.8l133.6-141c-7.6-2.8-12.5-6.7-15.6-11.1
		c10.2-21.4,32.3-49.9,8-76.2c-7.4-9.8-16.9-14.4-27.8-14.4c-12.6,0.7-22.8,7-29.5,18c-17.6,24.9,0.4,52.7,11.2,73.1
		c-13.7,17.6-42.6,19-55.2,35.1c-8.8,27.8-15.1,58.7-23.2,86.1c-2,7.6-1.5,19.5-2,30.5l-61.9,66.5l17.3,16.2l4.2-4.7
		c13.3-10.9,26.7-20.7,45-26.6c9.5,38.7,23.5,73.1,46.3,100.5h38.3c-2.5-5.6-6.3-11.6-10.2-16.9c-9.1-18.3-24.2-49.9-19.3-70.3
		c24.6-11.6,52.4-11.2,78.7,0.3c3.5,19.3-13,49.5-21.1,69.3c-2.8,6-7,10.9-7,17.6h35.1c22.5-35.8,40.8-65.7,48.1-108.9l1.4-0.7
		c22.1,6,49.2,24.6,68.2,40.1v-27.4C623.9,564.5,604.6,555.1,582.4,544.5z"/>
</g>
</svg>
