<?xml version="1.0" encoding="utf-8"?>
<!-- Generator: Adobe Illustrator 19.2.0, SVG Export Plug-In . SVG Version: 6.00 Build 0)  -->
<svg version="1.1" id="Livello_1" xmlns="http://www.w3.org/2000/svg" xmlns:xlink="http://www.w3.org/1999/xlink" x="0px" y="0px"
	 viewBox="0 0 960 960" style="enable-background:new 0 0 960 960;" xml:space="preserve">
<style type="text/css">
	.st0{fill:#F6BF32;stroke:#000000;stroke-width:2;stroke-miterlimit:2.6131;}
	.st1{fill:#1A171B;stroke:#1A171B;stroke-width:0.4884;stroke-miterlimit:2.6131;}
</style>
<rect x="89" y="265" class="st0" width="782" height="430"/>
<g>
	<path class="st1" d="M679.3,332.7c-136.3-61.5-313.6-57.1-440.6,24.4l-35.7,26.4l145.6,239.8c37.6-14.7,70.3-29.8,109.9-33.7
		c59.1-6.8,99.6,11.7,152.4,34.7l146-240.8C732.1,364.9,707.2,346.4,679.3,332.7z M597.7,582.8c-78.1-37.1-148.5-37.1-235.4,0
		L246.6,392.3c116.2-91.8,351.2-91.8,467,0L597.7,582.8z"/>
	<path class="st1" d="M479,511.4c0,27.8,21.3,43.1,30.5,67.1c13,39.8-6.5,67.6-22.2,100l-24.1-15.7c16.7-27.8,24.1-40.7,19.5-75
		c-11.1-22.2-31.4-43.5-32.4-68.5c0-21.3,5.1-33.8,15.3-48.1H448c-2.3,0-6-1.9-4.6-4.6l36.1-69.9l36.1,69.9l-4.6,4.6h-13
		C485.9,481.3,479.9,496.6,479,511.4L479,511.4z"/>
	<path class="st1" d="M581.3,511.4c0,27.8,21.3,43.1,30.5,67.1c13,39.8-6.5,67.6-22.2,100l-24.1-15.7c16.7-27.8,24.1-40.7,19.5-75
		c-11.1-22.2-31.4-43.5-32.4-68.5c0-21.3,5.1-33.8,15.3-48.1h-17.6c-2.3,0-6-1.9-4.6-4.6l36.1-69.9l36.1,69.9l-4.6,4.6h-13
		C588.2,481.3,582.2,496.6,581.3,511.4L581.3,511.4z"/>
	<path class="st1" d="M378.1,510.9c0,27.8,21.3,43,30.5,67.1c13,39.8-6.5,67.6-22.2,100l-24-15.7c16.7-27.8,24-40.7,19.5-75
		c-11.1-22.2-31.4-43.5-32.4-68.5c0-21.3,5.1-33.8,15.3-48.1h-17.6c-2.3,0-6-1.9-4.6-4.6l36.1-69.9l36.1,69.9l-4.6,4.6h-13
		C385,480.8,379,496.1,378.1,510.9L378.1,510.9z"/>
</g>
</svg>
