<?xml version="1.0" encoding="utf-8"?>
<!-- Generator: Adobe Illustrator 19.2.0, SVG Export Plug-In . SVG Version: 6.00 Build 0)  -->
<svg version="1.1" id="Livello_1" xmlns="http://www.w3.org/2000/svg" xmlns:xlink="http://www.w3.org/1999/xlink" x="0px" y="0px"
	 viewBox="0 0 1711.4 783" style="enable-background:new 0 0 1711.4 783;" xml:space="preserve">
<style type="text/css">
	.st0{fill:#1A863A;stroke:#000000;stroke-width:1.7898;stroke-miterlimit:2.6131;}
	.st1{fill:#1A171B;stroke:#1A171B;stroke-width:0.4455;stroke-miterlimit:2.6131;}
	.st2{fill:#1A171B;stroke:#1A171B;stroke-width:0.4152;stroke-miterlimit:2.6131;}
	.st3{font-family:'MyriadPro-Bold';}
	.st4{font-size:220.0344px;}
</style>
<g>
	<g>
		<g id="Livello_2">
			<rect x="31.5" y="176.1" class="st0" width="699.8" height="384.8"/>
		</g>
		<g id="Livello_1_1_">
			<g>
				<path class="st1" d="M296.6,287.2c-7.6-0.5-29.4-8.5-35.2,3c-17.4,37.4-20,71.8-13.3,116.3c2.2,14.3,7.2,31.6,13.3,41.9
					c5.8,8.5,33.4,3.6,35.2,3.6c16.9-4,34.8-11.5,51.3-33C378.5,363.4,356.7,305.5,296.6,287.2z M288.2,425.8
					c-7.6,1.3-9.3,0.8-11.5-7.2c-8.5-26.7-8.9-72.6,0-99.4c2.6-8,3.5-7.6,11.1-6.7c25.4,2.6,47.7,25.4,47.7,56.6
					S314.4,422.6,288.2,425.8z"/>
				<path class="st1" d="M501.4,290.3c-5.8-11.5-27.7-3.6-35.2-3c-60.1,18.3-82,76.2-51.3,131.8c16.5,21.4,34.3,29,51.3,33
					c1.8,0,29.4,4.9,35.2-3.6c6.2-10.3,11.1-27.7,13.3-41.9C521.6,362.1,518.8,327.7,501.4,290.3z M486.2,418.6
					c-2.2,8-4,8.5-11.5,7.2c-26.3-3.1-47.2-25.4-47.2-56.6s22.3-54,47.7-56.6c7.6-0.8,8.5-1.3,11.1,6.7
					C495.2,346,494.7,392,486.2,418.6z"/>
				<polygon class="st1" points="126.4,351.8 220.8,351.8 220.8,385.7 126.4,385.7 				"/>
				<polygon class="st1" points="636.5,351.8 542.1,351.8 542.1,385.7 636.5,385.7 				"/>
				<polygon class="st1" points="154,236.4 241,273.2 227.8,304.3 140.8,267.6 				"/>
				<polygon class="st1" points="608.5,236.4 521.5,273.2 534.6,304.3 621.6,267.6 				"/>
				<polygon class="st1" points="154,500.6 240.9,463.7 227.7,432.5 140.8,469.5 				"/>
				<polygon class="st1" points="608.5,500.6 521.5,463.7 534.7,432.5 621.7,469.5 				"/>
			</g>
		</g>
	</g>
	<g>
		<rect x="980.1" y="176.1" class="st0" width="699.8" height="384.8"/>
		<g>
			<path class="st2" d="M1552,297.8c-3.4-5.4-6.3-11.2-8.8-16.2l-3-4.6c-10.8-15.8-25.3-29.4-40.3-39.5
				c-51.5-29.9-121.7-48.1-182.3-40.3c-13.2,6.3-23.6,16.6-29.4,29.9c-4.1,6.2-11.6,29.4-13.7,37.4c-9.1,71.1-14.5,153.7,20.8,214.3
				c7.1,10.8,19.1,17.9,32.4,17.9c59.4,1.7,128.3-13.2,176.5-45.3c12.1-9.6,23.7-19.6,34.9-34.9c2.4-3,3.8-4.6,4.1-6.7
				C1562.9,378.3,1564.9,333.4,1552,297.8z M1522.6,371c-7.4,23.7-25,42.8-45.6,56.9c-34.5,25.8-90.9,36.5-137.5,34.9h-8v-0.3
				l-2.4-1.3c-7.9-3.8-11.6-14.1-16.6-23.3c-15.3-63.9-17-134.6,7.4-197.7c1.7-3.3,4.6-7.4,9.1-10.4c31.1-1.7,61-0.4,92.6,8.8
				c4.1,0.4,5.8,2.1,10.4,3.8c34.5,11.6,64.3,31.1,83.9,61C1526.3,322.9,1530,348.6,1522.6,371z"/>
			<path class="st2" d="M1110.2,541.5l-9.5-31.1l146.6-44.9c3.8,9.9,7.1,19.5,13.7,29.1L1110.2,541.5L1110.2,541.5z"/>
			<polygon class="st2" points="1109,484.3 1100.6,453.2 1234.4,411.5 1240.2,441.9 			"/>
			<polygon class="st2" points="1109.4,424.9 1100.2,393.7 1229.8,353.5 1231,385.9 			"/>
			<polygon class="st2" points="1110.2,364.7 1099.8,334.3 1233.5,293.6 1231,328.1 			"/>
			<path class="st2" d="M1109.8,308.2l-7.4-33.2l142.8-42c-2.4,9.1-7.1,28.3-7.9,36.2L1109.8,308.2L1109.8,308.2z"/>
		</g>
	</g>
	<text transform="matrix(1.0543 0 0 1 789.8484 424.8839)" class="st3 st4">+</text>
</g>
</svg>
