<?xml version="1.0" encoding="utf-8"?>
<!-- Generator: Adobe Illustrator 19.2.0, SVG Export Plug-In . SVG Version: 6.00 Build 0)  -->
<svg version="1.1" id="Livello_1" xmlns="http://www.w3.org/2000/svg" xmlns:xlink="http://www.w3.org/1999/xlink" x="0px" y="0px"
	 viewBox="0 0 960 960" style="enable-background:new 0 0 960 960;" xml:space="preserve">
<style type="text/css">
	.st0{fill:#F6BF32;stroke:#000000;stroke-width:2;stroke-miterlimit:2.6131;}
	.st1{fill:#1A171B;stroke:#1A171B;stroke-width:0.3902;stroke-miterlimit:2.6131;}
</style>
<rect x="89" y="265" class="st0" width="782" height="430"/>
<g>
	<polygon class="st1" points="679,465.9 512.8,465.9 512.8,495.6 679,495.6 	"/>
	<polygon class="st1" points="679,377.4 512.8,377.4 512.8,407 679,407 	"/>
	<polygon class="st1" points="679,554.9 512.8,554.9 512.8,584.6 679,584.6 	"/>
	<path class="st1" d="M488.2,475.6c0-32.8-2.4-161.1-50.4-182.2c-16.8-0.3-35.1,4.7-49.2,11.3c-43.7,17.9-73.4,53.1-92.5,94.4
		c0,3.2-2.3,4.7-2.3,8.2c-19.9,51.5-16.8,115.5,8.6,163.5v2.3l1.6,1.6c2.7,5.5,5.5,9,7.4,14.1c21.1,32.8,76.5,78.4,117.8,78.3
		c6.3,0.7,14.5-1.6,18-4.7C489.4,624.3,488.2,508.4,488.2,475.6z M439.1,621.6c-1.9,4.3-6.6,12.1-9.8,15.2
		c-38.6-3.5-80.4-42.1-97.5-75.3c-9.4-9.4-18-48.8-19.1-63.2c-2.3-32.4,2.3-58.1,12.5-88.6c-0.1-9,23-38.2,30.4-46
		c19.9-19.9,45.6-35.1,73.8-39.4c11.7,11.7,18.7,43.7,21.8,60.5C461,457.4,465.3,552.2,439.1,621.6z"/>
	<path class="st1" d="M592.1,681.3l-28.1-16c11.3-14.9,22.6-29.3,22.6-51.5c0-35.9-30.5-52.7-30.5-88.6s30.5-53.1,30.5-88.6
		s-30.5-53.1-30.5-89c0-28.1,12.5-49.2,24.9-69.1l26.9,15.6c-10.5,15.2-21.4,32-21.4,53.5c0,35.9,30.8,53.5,30.8,89
		s-30.8,52.7-30.8,88.6s30.8,52.7,30.8,88.6C617.4,641.5,605.7,661.4,592.1,681.3L592.1,681.3z"/>
</g>
</svg>
