<?xml version="1.0" encoding="utf-8"?>
<!-- Generator: Adobe Illustrator 19.2.0, SVG Export Plug-In . SVG Version: 6.00 Build 0)  -->
<svg version="1.1" id="Livello_1" xmlns="http://www.w3.org/2000/svg" xmlns:xlink="http://www.w3.org/1999/xlink" x="0px" y="0px"
	 viewBox="0 0 960 960" style="enable-background:new 0 0 960 960;" xml:space="preserve">
<style type="text/css">
	.st0{fill:#CB0100;stroke:#000000;stroke-width:2;stroke-miterlimit:2.6131;}
	.st1{fill:#1A171B;stroke:#1A171B;stroke-width:0.4673;stroke-miterlimit:2.6131;}
</style>
<rect x="89" y="265" class="st0" width="782" height="430"/>
<path class="st1" d="M448.4,399.4v72.2h48.6c16.2,0,33.9-9.4,33.9-36.5c0-26.8-21.2-35.7-35.7-35.7H448.4L448.4,399.4z M422.8,588.5
	V375.6h75.1c44.2,0,56.8,36.5,56.8,58.6c0,22.4-9.1,61.6-56.2,61.6h-50.1v92.8L422.8,588.5L422.8,588.5z"/>
<path class="st1" d="M480.3,290c-104.7,0-190.2,86-190.2,189.7c0,104.7,85.5,190.2,190.2,190.2C584,669.9,670,584.4,670,479.7
	C670,376,584,290,480.3,290z M480.3,636.3c-86.4,0-156.6-70.1-156.6-156.6c0-85.5,70.1-156,156.6-156c85.5,0,156,70.6,156,156
	C636.3,566.3,565.7,636.3,480.3,636.3z"/>
<path class="st1" d="M281.7,317.2l26.7,26.7c-29.9,37.4-47.7,85.1-47.7,136c0,56.1,20.6,107,54.7,145.3l-26.7,26.7
	c-41.2-45.8-65.8-106.1-65.8-171.9C222.8,418.5,244.7,361.6,281.7,317.2L281.7,317.2z"/>
<path class="st1" d="M671.8,650.3l-26.7-26.7c33.6-38.3,54.2-88.7,54.2-143.9c0-50.5-18.3-97.7-47.7-135l26.7-26.7
	c36.4,44.4,58.9,100.9,58.9,161.7C737.2,545.2,712.4,605,671.8,650.3L671.8,650.3z"/>
</svg>
