<?xml version="1.0" encoding="utf-8"?>
<!-- Generator: Adobe Illustrator 19.2.0, SVG Export Plug-In . SVG Version: 6.00 Build 0)  -->
<svg version="1.1" id="Livello_1" xmlns="http://www.w3.org/2000/svg" xmlns:xlink="http://www.w3.org/1999/xlink" x="0px" y="0px"
	 viewBox="0 0 960 960" style="enable-background:new 0 0 960 960;" xml:space="preserve">
<style type="text/css">
	.st0{fill-rule:evenodd;clip-rule:evenodd;fill:#1A171B;stroke:#1A171B;stroke-width:0.5009;stroke-miterlimit:2.6131;}
</style>
<path class="st0" d="M779.3,490.1c-4-16.1-2-34.2-20.1-48.3h-57.7l42.2-50.7l20,4l-10-24c-3-8-16-7-21-3l-76.9,62.5l-65.6-83.4H407
	l-76,84l-9.7,10.6l-29.5,5l-97.6,17.1c-21.1,10.1-18.6,78,6.5,92.6c13.1,7,18.1,10.6,40.2,21.1h19.1c6,20.1,24.1,35.2,46.3,35.2
	c23.1,0,41.2-15.1,47.3-35.2h254.5c6,20.1,25.2,35.2,47.3,35.2c22.1,0,41.2-15.1,47.3-35.2h22.1
	C778.3,558.5,782.3,535.3,779.3,490.1z M344.7,441.8l67.4-78.5H569l37.2,78.5H344.7z"/>
</svg>
