<?xml version="1.0" encoding="utf-8"?>
<!-- Generator: Adobe Illustrator 19.2.0, SVG Export Plug-In . SVG Version: 6.00 Build 0)  -->
<svg version="1.1" id="Livello_1" xmlns="http://www.w3.org/2000/svg" xmlns:xlink="http://www.w3.org/1999/xlink" x="0px" y="0px"
	 viewBox="0 0 960 960" style="enable-background:new 0 0 960 960;" xml:space="preserve">
<style type="text/css">
	.st0{fill-rule:evenodd;clip-rule:evenodd;fill:#1A171B;stroke:#1A171B;stroke-width:0.503;stroke-miterlimit:2.6131;}
</style>
<g>
	<g>
		<path class="st0" d="M702.8,577.6c-6,20.1-25.1,35.2-47.3,35.2c-22.1,0-41.2-15.1-47.3-35.2H353.7c-6,20.1-24.1,35.2-47.3,35.2
			c-22.1,0-40.2-15.1-46.3-35.2H241c-22.1-10.6-27.2-14.1-40.2-21.1c-25.2-14.6-27.7-82.5-6.5-92.6l97.6-17.1L235,374.9l-14.1,6.5
			l-6.5-6l16.1-21.1c6.5-3.5,9.6-4.5,17.6-4l83,81l76-84h183.1l74.4,94.6h94.6c18.1,14.1,16.1,32.2,20.1,48.3
			c3,45.3-1,68.4-54.3,87.5H702.8L702.8,577.6z M569,363.3H412.1l-67.4,78.5h261.6L569,363.3L569,363.3z"/>
	</g>
</g>
</svg>
