<?xml version="1.0" encoding="utf-8"?>
<!-- Generator: Adobe Illustrator 19.2.0, SVG Export Plug-In . SVG Version: 6.00 Build 0)  -->
<svg version="1.1" id="Livello_1" xmlns="http://www.w3.org/2000/svg" xmlns:xlink="http://www.w3.org/1999/xlink" x="0px" y="0px"
	 viewBox="0 0 960 960" style="enable-background:new 0 0 960 960;" xml:space="preserve">
<style type="text/css">
	.st0{fill:#1A171B;}
</style>
<path class="st0" d="M343.4,392.3c0,2.2,1.8,3.9,3.9,3.9h0.2h30.5v28.6c0,2.2,1.8,3.9,3.9,3.9h29.1v30.7c0,2.2,1.8,3.9,3.9,3.9
	c-2.2,0-3.9,1.8-3.9,3.9v28.6h-29.5c-2.2,0-3.9,1.8-3.9,3.9v30.7h-30.7c-2.2,0-3.9,1.8-3.9,3.9v29.1h-30.7c-2.2,0-3.9,1.8-3.9,3.9
	v30.7h-30.7c-2.2,0-3.9,1.8-3.9,3.9v30.7h-30.7c-2.2,0-3.9,1.8-3.9,3.9v61.5c0,2.2,1.8,3.9,3.9,3.9h61.5c2.2,0,3.9-1.8,3.9-3.9
	v-30.7H339c2.2,0,3.9-1.8,3.9-3.9v-30.7h30.7c2.2,0,3.9-1.8,3.9-3.9v-29.1h30.7c2.2,0,3.9-1.8,3.9-3.9v-30.7h30.7
	c2.2,0,3.9-1.8,3.9-3.9v-28.6h29.5c2.2,0,3.9-1.8,3.9-3.9c0,2.2,1.8,3.9,3.9,3.9H513v28.6c0,2.2,1.8,3.9,3.9,3.9h30.7v30.7
	c0,2.2,1.8,3.9,3.9,3.9h30.7v29.1c0,2.2,1.8,3.9,3.9,3.9H617v30.7c0,2.2,1.8,3.9,3.9,3.9h30.7v30.7c0,2.2,1.8,3.9,3.9,3.9h61.5
	c2.2,0,3.9-1.8,3.9-3.9v-61.5c0-2.2-1.8-3.9-3.9-3.9h-30.8v-30.7c0-2.2-1.8-3.9-3.9-3.9h-30.7v-30.7c0-2.2-1.8-3.9-3.9-3.9H617
	v-29.1c0-2.2-1.8-3.9-3.9-3.9h-30.7V500c0-2.2-1.8-3.9-3.9-3.9h-28.6v-28.6c0-2.2-1.8-3.9-3.9-3.9c2.2,0,3.9-1.8,3.9-3.9v-30.7h32.4
	c2.2,0,3.9-1.8,3.9-3.9v-28.6h30.7c2.2,0,3.9-1.8,3.9-3.9c0,2.2,1.8,3.9,3.9,3.9h27V427c0,2.2,1.8,3.9,3.9,3.9h61.5
	c2.2,0,3.9-1.8,3.9-3.9v-61.5c0-2.2-1.8-3.9-3.9-3.9h-27v-30.7c0-2.2-1.8-3.9-3.9-3.9h-34.9l0.4,0.1v-65.5c0-2.2-1.8-3.9-3.9-3.9
	h-34.7h-26.8h-34.7c-2.2,0-3.9,1.8-3.9,3.9v30.7H519c-2.2,0-3.9,1.8-3.9,3.9v30.7h-29.1c-2.2,0-3.9,1.8-3.9,3.9
	c0-2.2-1.8-3.9-3.9-3.9H447v-30.7c0-2.2-1.8-3.9-3.9-3.9h-30v-30.7c0-2.2-1.8-3.9-3.9-3.9h-34.7h-26.8h-34.7c-2.2,0-3.9,1.8-3.9,3.9
	v28.6h-31.2c-2.2,0-3.9,1.8-3.9,3.9l0.1,65.4h-31c-2.2,0-3.9,1.8-3.9,3.9v61.5c0,2.2,1.8,3.9,3.9,3.9h61.5c2.2,0,3.9-1.8,3.9-3.9
	v-28.6H339h0.2c2.2,0,3.9-1.8,3.9-3.9"/>
</svg>
