<?xml version="1.0" encoding="utf-8"?>
<!-- Generator: Adobe Illustrator 19.2.0, SVG Export Plug-In . SVG Version: 6.00 Build 0)  -->
<svg version="1.1" id="Livello_1" xmlns="http://www.w3.org/2000/svg" xmlns:xlink="http://www.w3.org/1999/xlink" x="0px" y="0px"
	 viewBox="0 0 960 960" style="enable-background:new 0 0 960 960;" xml:space="preserve">
<style type="text/css">
	.st0{fill:#1A171B;}
</style>
<path class="st0" d="M699.4,512.4h-31.9h-24.6H611c-2,0-3.6,1.6-3.6,3.6c0-2-1.6-3.6-3.6-3.6c2,0,3.6-1.6,3.6-3.6v-56.5
	c0-2-1.6-3.6-3.6-3.6c2,0,3.6-1.6,3.6-3.6v-56.5c0-2-1.6-3.6-3.6-3.6c2,0,3.6-1.6,3.6-3.6v-56.5c0-2-1.6-3.6-3.6-3.6h-56.5
	c-2,0-3.6,1.6-3.6,3.6c0-2-1.6-3.6-3.6-3.6h-31.9c2,0,3.6-1.6,3.6-3.6v-56.5c0-2-1.6-3.6-3.6-3.6h-56.5c-2,0-3.6,1.6-3.6,3.6v56.5
	c0,2,1.6,3.6,3.6,3.6h-31.9c-2,0-3.6,1.6-3.6,3.6c0-2-1.6-3.6-3.6-3.6h-56.5c-2,0-3.6,1.6-3.6,3.6v56.5c0,2,1.6,3.6,3.6,3.6
	c-2,0-3.6,1.6-3.6,3.6v56.5c0,2,1.6,3.6,3.6,3.6c-2,0-3.6,1.6-3.6,3.6v56.5c0,2,1.6,3.6,3.6,3.6c-2,0-3.6,1.6-3.6,3.6
	c0-2-1.6-3.6-3.6-3.6h-31.9h0h-56.5c-2,0-3.6,1.6-3.6,3.6v56.5c0,2,1.6,3.6,3.6,3.6h31.8c-2,0-3.6,1.6-3.6,3.6v56.5
	c0,2,1.6,3.6,3.6,3.6H349c2,0,3.6-1.6,3.6-3.6v31.9c0,2,1.6,3.6,3.6,3.6h56.5c2,0,3.6-1.6,3.6-3.6v30.8c0,2,1.6,3.6,3.6,3.6h56.5
	c2,0,3.6-1.6,3.6-3.6c0,2,1.6,3.6,3.6,3.6h56.5c2,0,3.6-1.6,3.6-3.6V667c0,2,1.6,3.6,3.6,3.6h56.5c2,0,3.6-1.6,3.6-3.6v-30.8
	c0,2,1.6,3.6,3.6,3.6h56.5c2,0,3.6-1.6,3.6-3.6v-56.5c0-2-1.6-3.6-3.6-3.6h31.8c2,0,3.6-1.6,3.6-3.6V516
	C703,514,701.4,512.4,699.4,512.4z M483.6,321.2c-2,0-3.6,1.6-3.6,3.6c0-2-1.6-3.6-3.6-3.6H483.6z M412.7,448.7c2,0,3.6-1.6,3.6-3.6
	v-56.5c0-2-1.6-3.6-3.6-3.6c2,0,3.6-1.6,3.6-3.6c0,2,1.6,3.6,3.6,3.6h56.5c2,0,3.6-1.6,3.6-3.6c0,2,1.6,3.6,3.6,3.6h56.5
	c2,0,3.6-1.6,3.6-3.6c0,2,1.6,3.6,3.6,3.6c-2,0-3.6,1.6-3.6,3.6v56.5c0,2,1.6,3.6,3.6,3.6c-2,0-3.6,1.6-3.6,3.6v56.5
	c0,2,1.6,3.6,3.6,3.6l0,0c-2,0-3.6,1.6-3.6,3.6c0-2-1.6-3.6-3.6-3.6h-56.5c-2,0-3.6,1.6-3.6,3.6c0-2-1.6-3.6-3.6-3.6h-56.5
	c-2,0-3.6,1.6-3.6,3.6c0-2-1.6-3.6-3.6-3.6l0,0c2,0,3.6-1.6,3.6-3.6v-56.5C416.3,450.3,414.7,448.7,412.7,448.7z M607.4,579.7v30.8
	c0-2-1.6-3.6-3.6-3.6h-56.5c-2,0-3.6,1.6-3.6,3.6v31.8c0-2-1.6-3.6-3.6-3.6h-56.5c-2,0-3.6,1.6-3.6,3.6c0-2-1.6-3.6-3.6-3.6h-56.5
	c-2,0-3.6,1.6-3.6,3.6v-30.8c0-2-1.6-3.6-3.6-3.6h-56.5c-2,0-3.6,1.6-3.6,3.6v-31.9c0-2-1.6-3.6-3.6-3.6c2,0,3.6-1.6,3.6-3.6v0
	c0,2,1.6,3.6,3.6,3.6h56.5c2,0,3.6-1.6,3.6-3.6l0,0c0,2,1.6,3.6,3.6,3.6h56.5c2,0,3.6-1.6,3.6-3.6c0,2,1.6,3.6,3.6,3.6h56.5
	c2,0,3.6-1.6,3.6-3.6c0,2,1.6,3.6,3.6,3.6h56.5c2,0,3.6-1.6,3.6-3.6c0,2,1.6,3.6,3.6,3.6C609,576.1,607.4,577.7,607.4,579.7z"/>
</svg>
