<?xml version="1.0" encoding="utf-8"?>
<!-- Generator: Adobe Illustrator 19.2.0, SVG Export Plug-In . SVG Version: 6.00 Build 0)  -->
<svg version="1.1" id="Livello_1" xmlns="http://www.w3.org/2000/svg" xmlns:xlink="http://www.w3.org/1999/xlink" x="0px" y="0px"
	 viewBox="0 0 960 960" style="enable-background:new 0 0 960 960;" xml:space="preserve">
<style type="text/css">
	.st0{fill:#1A171B;}
</style>
<g>
	<path class="st0" d="M571.7,384.7L571.7,384.7c2,0,3.6-1.6,3.6-3.6v-56.4c0-2-1.6-3.6-3.6-3.6c2,0,3.6-1.6,3.6-3.6v-56.4
		c0-2-1.6-3.6-3.6-3.6h-56.4c-2,0-3.6,1.6-3.6,3.6v56.4c0,2,1.6,3.6,3.6,3.6c-2,0-3.6,1.6-3.6,3.6c0-2-1.6-3.6-3.6-3.6l0,0
		c2,0,3.6-1.6,3.6-3.6v-56.4c0-2-1.6-3.6-3.6-3.6h-56.4c-2,0-3.6,1.6-3.6,3.6c0-2-1.6-3.6-3.6-3.6h-56.4c-1.7,0-3.2,1.2-3.5,2.9
		c-0.3-1.6-1.8-2.9-3.5-2.9h-56.4c-2,0-3.6,1.6-3.6,3.6v56.4c0,2,1.6,3.6,3.6,3.6c-2,0-3.6,1.6-3.6,3.6v56.4c0,2,1.6,3.6,3.6,3.6
		c-2,0-3.6,1.6-3.6,3.6v56.4c0,2,1.6,3.6,3.6,3.6c-2,0-3.6,1.6-3.6,3.6v56.4c0,2,1.6,3.6,3.6,3.6c-2,0-3.6,1.6-3.6,3.6v56.4
		c0,2,1.6,3.6,3.6,3.6c-2,0-3.6,1.6-3.6,3.6v56.3c0,2,1.6,3.6,3.6,3.6c-2,0-3.6,1.6-3.6,3.6v56.4c0,2,1.6,3.6,3.6,3.6h56.4
		c1.7,0,3.2-1.2,3.5-2.9c0.3,1.6,1.8,2.9,3.5,2.9h56.4c2,0,3.6-1.6,3.6-3.6c0,2,1.6,3.6,3.6,3.6h56.4c2,0,3.6-1.6,3.6-3.6
		c0,2,1.6,3.6,3.6,3.6h56.4c2,0,3.6-1.6,3.6-3.6v-56.4c0-2-1.6-3.6-3.6-3.6c2,0,3.6-1.6,3.6-3.6V579c0-2-1.6-3.6-3.6-3.6
		c2,0,3.6-1.6,3.6-3.6v-56.4c0-2-1.6-3.6-3.6-3.6c2,0,3.6-1.6,3.6-3.6v-56.4c0-2-1.6-3.6-3.6-3.6c2,0,3.6-1.6,3.6-3.6v-56.4
		C575.3,386.3,573.7,384.7,571.7,384.7z M448.1,317.5c0,2,1.6,3.6,3.6,3.6l0,0c-2,0-3.6,1.6-3.6,3.6c0-2-1.6-3.6-3.6-3.6
		C446.5,321.1,448.1,319.5,448.1,317.5z M384.7,318.2c0.3,1.6,1.8,2.9,3.5,2.9c-1.7,0-3.2,1.2-3.5,2.9c-0.3-1.6-1.8-2.9-3.5-2.9
		C382.9,321.1,384.3,319.9,384.7,318.2z M515.3,511.8c-2,0-3.6,1.6-3.6,3.6v56.4c0,2,1.6,3.6,3.6,3.6c-2,0-3.6,1.6-3.6,3.6v56.3
		c0,2,1.6,3.6,3.6,3.6c-2,0-3.6,1.6-3.6,3.6c0-2-1.6-3.6-3.6-3.6h-56.4c-2,0-3.6,1.6-3.6,3.6c0-2-1.6-3.6-3.6-3.6h-56.4
		c-1.7,0-3.2,1.2-3.5,2.9c-0.3-1.6-1.8-2.9-3.5-2.9c2,0,3.6-1.6,3.6-3.6V579c0-2-1.6-3.6-3.6-3.6c2,0,3.6-1.6,3.6-3.6v-56.4
		c0-2-1.6-3.6-3.6-3.6c2,0,3.6-1.6,3.6-3.6v-56.4c0-2-1.6-3.6-3.6-3.6c2,0,3.6-1.6,3.6-3.6v-56.4c0-2-1.6-3.6-3.6-3.6l0,0
		c1.7,0,3.2-1.2,3.5-2.9c0.3,1.6,1.8,2.9,3.5,2.9h56.4c2,0,3.6-1.6,3.6-3.6c0,2,1.6,3.6,3.6,3.6h56.4c2,0,3.6-1.6,3.6-3.6
		c0,2,1.6,3.6,3.6,3.6c-2,0-3.6,1.6-3.6,3.6v56.4c0,2,1.6,3.6,3.6,3.6c-2,0-3.6,1.6-3.6,3.6v56.4
		C511.7,510.2,513.3,511.8,515.3,511.8z"/>
	<path class="st0" d="M635.2,321.1h-56.3c-2,0-3.6,1.6-3.6,3.6v56.4c0,2,1.6,3.6,3.6,3.6h56.3c2,0,3.6-1.6,3.6-3.6v-56.4
		C638.8,322.7,637.2,321.1,635.2,321.1z"/>
</g>
</svg>
