<?xml version="1.0" encoding="utf-8"?>
<!-- Generator: Adobe Illustrator 19.2.0, SVG Export Plug-In . SVG Version: 6.00 Build 0)  -->
<svg version="1.1" id="Livello_1" xmlns="http://www.w3.org/2000/svg" xmlns:xlink="http://www.w3.org/1999/xlink" x="0px" y="0px"
	 viewBox="0 0 960 960" style="enable-background:new 0 0 960 960;" xml:space="preserve">
<style type="text/css">
	.st0{fill:#FFFFFF;stroke:#1A171B;stroke-width:1.0161;stroke-miterlimit:2.6131;}
	.st1{fill:none;stroke:#1A171B;stroke-width:6.7738;stroke-miterlimit:2.6131;}
	.st2{fill-rule:evenodd;clip-rule:evenodd;fill:#1A171B;}
	.st3{fill-rule:evenodd;clip-rule:evenodd;fill:#FFFFFF;stroke:#1A171B;stroke-width:1.15;stroke-miterlimit:2.6131;}
	.st4{fill-rule:evenodd;clip-rule:evenodd;fill:#E1001A;}
	.st5{fill-rule:evenodd;clip-rule:evenodd;fill:#FFFFFF;stroke:#E1001A;stroke-width:3.8332;stroke-miterlimit:2.6131;}
	.st6{fill-rule:evenodd;clip-rule:evenodd;fill:#1A171B;stroke:#1A171B;stroke-width:3.0665;stroke-miterlimit:2.6131;}
</style>
<polygon class="st0" points="222.5,645.2 737.5,645.2 737.5,840 222.5,840 222.5,645.2 "/>
<path class="st1" d="M261.9,659.1h436.2c14,0,25.5,11.5,25.5,25.5v116.2c0,14-11.5,25.5-25.5,25.5H261.9c-14,0-25.5-11.5-25.5-25.5
	V684.6C236.5,670.6,247.9,659.1,261.9,659.1L261.9,659.1z"/>
<path class="st2" d="M427.1,783.8c-1.2-0.4-2.1-1.1-2.7-2.1c-0.7-1.1-1-2.3-1-3.8c0-1.9,0.7-3.6,2-4.9c1.3-1.4,2.9-2.1,4.8-2.1
	c2.2,0,3.9,0.8,5.2,2.3c1.3,1.5,1.9,3.6,1.9,6.2c0,4.1-1.3,7.7-4,10.8c-2.7,3.1-6.1,5-10.3,5.7v-2.3c1.4-1.5,2.4-3.1,3.1-4.6
	c0.7-1.5,1-3,1-4.6V783.8L427.1,783.8z"/>
<path class="st2" d="M412.5,769.5v14.8h-48.6c0.1-5.6,2.1-10.7,4.4-15.8c2.4-4.7,7.9-11.7,15.4-20c5.9-6.4,10.2-11.1,11.3-13.7
	c1.8-2.9,3-6.6,3-9.7c0-3.5-0.9-6.4-2.2-8c-1.8-2.2-4.3-3.1-7.4-3.1c-2.7,0-5,0.9-6.5,2.7c-1.9,2-3,5.7-3,9.7l-13.8-1.3
	c0.6-8.4,3.3-14.9,7.4-18.6c4.3-3.6,9.9-5.8,16.6-5.8c7.1,0,12.9,2.5,17,6.6c4.3,4.6,6.4,10.6,6.4,16.8c0,3.5-0.7,7.5-1.8,10.7
	c-1.2,3.6-3.4,7.3-5.8,10.9c-1.5,2-4.7,5.8-9,10.4c-4.4,4.6-7.6,7.7-8.6,9.1c-1.3,1.5-2.5,2.9-3.1,4.4H412.5L412.5,769.5z"/>
<path class="st2" d="M552.6,744h10.5v5.5c3.6-4.2,8-6.4,12.9-6.4c2.7,0,5.1,0.6,6.9,1.6c2,1.1,3.7,2.8,4.9,4.9
	c1.7-2,3.9-3.8,5.9-4.7c2-1.1,4.6-1.7,6.9-1.7c3,0,5.8,0.6,7.8,1.7c2,1.3,3.9,3.1,4.9,5.3c0.7,1.6,1.2,4.4,1.2,8.1v25.2h-11.2V761
	c0-3.8-0.5-6.4-1.2-7.5c-1-1.6-2.7-2.3-4.7-2.3c-1.5,0-3,0.5-4.4,1.4c-1.4,0.9-2.5,2.3-3,3.9c-0.5,1.6-0.8,4.4-0.8,8.1v18.8H578V762
	c0-3.8-0.2-6.4-0.5-7.3c-0.3-1.1-1.2-2-1.9-2.5c-0.8-0.6-2.2-0.9-3.6-0.9c-1.7,0-3.2,0.5-4.6,1.2c-1.4,0.9-2.4,2.2-2.9,3.8
	c-0.5,1.6-0.8,4.4-0.8,8.1v19.1h-11.2V744L552.6,744z"/>
<polygon class="st2" points="507.9,783.4 507.9,729 519.1,729 519.1,757.9 532.4,744 546.3,744 531.4,758.5 547,783.4 535.1,783.4 
	524.1,765.7 519.1,770.9 519.1,783.4 507.9,783.4 "/>
<path class="st2" d="M479.9,758.3c-1.6-2.3-3.9-4.2-6.9-5.3c2.3-1,4.4-2.7,5.6-4.7c1.3-1.9,1.9-4.4,1.9-6.9c0-4.2-1.6-7.9-4.4-10.6
	c-2.8-2.6-6.9-4-11.9-4c-5.2,0-9.2,1.5-12.1,4.2c-2.8,2.6-4.2,6.3-4.2,10.5c0,2.3,0.6,4.7,1.9,6.8c1.1,1.9,3.1,3.7,6,4.7v0.2
	c-3.1,1.3-5.5,3.4-6.9,6c-1.4,2.4-2.2,5.3-2.2,8.2c0,5.5,2,9.8,5.8,13.1c3.1,2.6,7.4,3.9,12.2,3.9c5.3,0,9.7-1.6,12.8-4.8
	c3.1-3.2,4.9-7.4,4.9-12.6C482.4,763.6,481.5,760.7,479.9,758.3z M459.7,737.2c1.1-1.3,2.8-1.9,4.7-1.9c1.9,0,3.4,0.6,4.7,1.9
	c1.1,1.3,1.7,3.1,1.7,5c0,2.1-0.6,3.9-1.9,5.2c-1.1,1.1-2.8,1.8-4.7,1.8c-1.9,0-3.4-0.6-4.5-1.8c-1.1-1.1-1.7-2.9-1.7-5.2
	C458,740.2,458.6,738.5,459.7,737.2z M469.9,773.4c-1.3,1.6-3.1,2.4-5.3,2.4s-4.1-1-5.5-2.6c-1.2-1.6-2-4-2-7c0,0,0,0,0,0.1v-0.2
	c0,0,0,0.1,0,0.1c0-2.1,0.6-4.1,1.9-6.1c1.1-1.8,3-2.7,5.5-2.7c2.2,0,4.1,1,5.5,2.6c1.4,1.6,2.2,3.9,2.2,6.4
	C472.1,769.4,471.3,771.8,469.9,773.4z"/>
<polygon class="st2" points="659.7,782 659.7,730.7 642.6,730.7 668.2,689 696,730.7 676.7,730.7 676.7,782 659.7,782 "/>
<polygon class="st2" points="283.8,784.3 283.8,733 266.7,733 292.3,691.3 320.1,733 300.8,733 300.8,784.3 283.8,784.3 "/>
<g>
	<g>
		<path class="st3" d="M728.3,629.4c26.7-1.1,42.8-21.1,38.6-47.6l-0.9-4.1l-1.6-4.4l-1.9-4.2L517.2,143.7
			c-12.3-18.9-29.7-29.7-52.3-20.1c-8.6,4.7-14.8,11.4-19.8,19.5L200.3,567.1c-8.9,16.7-12.3,34.3,1.3,49.8
			c10.8,11.4,24.2,12.6,39.3,12.6l481.5-0.2H728.3L728.3,629.4z"/>
		<path class="st4" d="M722.4,617.1c7.5-0.2,14.8,0.8,22.6-5c7.8-5.8,15-20.5,6.6-37.3l-245-424.7c-13.7-24-37.9-23.4-51.1-0.6
			L211.1,573.2c-5.2,9.1-9.5,21.9-3.6,31.4c7.8,12.5,20.1,12.5,33.4,12.6L722.4,617.1L722.4,617.1z"/>
		<polygon class="st5" points="689.8,567.3 480.7,205.5 272.1,567.3 689.8,567.3 		"/>
		<path class="st6" d="M390.7,541.4V418.5c6.4-13.1,9.9-19.7,19.5-22.9c9.6-3.2,20.6-1.8,26.4-0.6l51.3,29.9v-84.4L507,321
			l19.8,19.5c0,35.8,0,61.5,0,97.3c0,12.8-3.4,25.4-12.9,29.1c-13.9,5.3-19.5,3.2-32.6,0c-19.3-9.6-32.3-19.5-51.8-29.1v103.7
			l-19.3-12.9L390.7,541.4L390.7,541.4z"/>
	</g>
</g>
</svg>
