<?xml version="1.0" encoding="utf-8"?>
<!-- Generator: Adobe Illustrator 19.2.0, SVG Export Plug-In . SVG Version: 6.00 Build 0)  -->
<svg version="1.1" id="Livello_1" xmlns="http://www.w3.org/2000/svg" xmlns:xlink="http://www.w3.org/1999/xlink" x="0px" y="0px"
	 viewBox="0 0 960 960" style="enable-background:new 0 0 960 960;" xml:space="preserve">
<style type="text/css">
	.st0{fill-rule:evenodd;clip-rule:evenodd;fill:#FFFFFF;stroke:#1A171B;stroke-width:0.7495;stroke-miterlimit:2.6131;}
	.st1{fill-rule:evenodd;clip-rule:evenodd;fill:#E1001A;}
	.st2{fill-rule:evenodd;clip-rule:evenodd;fill:#FFFFFF;stroke:#E1001A;stroke-width:2.4984;stroke-miterlimit:2.6131;}
	.st3{fill-rule:evenodd;clip-rule:evenodd;fill:#1A171B;stroke:#1A171B;stroke-width:0.7495;stroke-miterlimit:2.6131;}
	.st4{fill-rule:evenodd;clip-rule:evenodd;fill:#FFFFFF;stroke:#1A171B;stroke-width:1.1866;stroke-miterlimit:2.6131;}
	.st5{fill-rule:evenodd;clip-rule:evenodd;fill:#FFFFFF;}
	.st6{fill-rule:evenodd;clip-rule:evenodd;fill:#E1001A;stroke:#E1001A;stroke-width:0.7607;stroke-miterlimit:2.6131;}
	.st7{fill-rule:evenodd;clip-rule:evenodd;fill:#1A171B;stroke:#1A171B;stroke-width:0.7607;stroke-miterlimit:2.6131;}
</style>
<g>
	<g>
		<g>
			<path class="st0" d="M545,452c17.4-0.7,27.9-13.7,25.1-31l-0.6-2.6l-1-2.8l-1.2-2.7L407.4,135.4c-8-12.3-19.3-19.3-34.1-13.1
				c-5.6,3.1-9.7,7.4-12.9,12.7L200.8,411.4c-5.8,10.9-8,22.4,0.8,32.5c7,7.4,15.8,8.2,25.6,8.2l313.8-0.1H545L545,452z"/>
			<path class="st1" d="M541.1,444c4.9-0.1,9.7,0.5,14.8-3.3c5.1-3.8,9.8-13.3,4.3-24.3L400.5,139.6c-9-15.7-24.7-15.3-33.3-0.4
				L207.8,415.4c-3.4,5.9-6.2,14.2-2.3,20.5c5.1,8.1,13.1,8.1,21.8,8.2L541.1,444L541.1,444z"/>
			<polygon class="st2" points="519.8,411.5 383.6,175.7 247.6,411.5 519.8,411.5 			"/>
			<polygon class="st3" points="329.2,393.1 329.2,340.1 346.8,301.5 346.8,265.1 370.6,265.1 370.6,301.4 352.9,341 353,393.1 
				329.2,393.1 			"/>
			<polygon class="st3" points="435.5,393.1 435.5,340.1 417.9,301.5 417.9,265.1 394.1,265.1 394.1,301.4 411.8,341 411.7,393.1 
				435.5,393.1 			"/>
		</g>
	</g>
	<g>
		<g>
			<path class="st4" d="M383.1,504c92.5,0,168,75.5,168,168c0,92.5-75.5,168-168,168c-92.5,0-168-75.5-168-168
				C215.2,579.5,290.6,504,383.1,504L383.1,504z"/>
			<path class="st1" d="M383.1,513.6c87.2,0,158.4,71.2,158.4,158.4c0,87.2-71.2,158.4-158.4,158.4c-87.2,0-158.4-71.2-158.4-158.4
				C224.7,584.8,295.9,513.6,383.1,513.6L383.1,513.6z"/>
			<path class="st5" d="M383.6,553.8c64.9,0,117.9,53,117.9,117.9s-53,117.9-117.9,117.9c-64.9,0-117.9-53-117.9-117.9
				S318.7,553.8,383.6,553.8L383.6,553.8z"/>
			<path class="st6" d="M437.4,747.6V657l15.7,4c5.2,1.5,7.4-2.3,5.3-5.3l-31.5-57.7l-31.5,57.7c-1.1,3.1,0.1,6.6,5.2,5.3l15.8-4
				v90.7H437.4z"/>
			<path class="st7" d="M351.2,597.9v90.7l15.7-4c5.2-1.5,7.4,2.3,5.3,5.3l-31.5,57.7l-31.5-57.7c-1.1-3.1,0.1-6.6,5.2-5.3l15.8,4
				v-90.7H351.2z"/>
		</g>
	</g>
	<g>
		<path d="M764.3,343.7h-17l-6.8-17.6h-30.9l-6.4,17.6h-16.6l30.1-77.3h16.5L764.3,343.7z M735.5,313.1l-10.7-28.7l-10.4,28.7H735.5
			z"/>
	</g>
	<g>
		<path d="M694.8,634.9h30.9c6.1,0,10.7,0.3,13.7,0.8s5.7,1.6,8.1,3.2s4.4,3.8,5.9,6.5s2.4,5.7,2.4,9c0,3.6-1,6.9-2.9,10
			s-4.6,5.3-7.9,6.8c4.7,1.4,8.3,3.7,10.9,7s3.8,7.2,3.8,11.7c0,3.5-0.8,6.9-2.5,10.3s-3.9,6-6.7,8c-2.8,2-6.3,3.2-10.5,3.7
			c-2.6,0.3-8.9,0.5-18.8,0.5h-26.3V634.9z M710.4,647.8v17.9h10.2c6.1,0,9.9-0.1,11.3-0.3c2.7-0.3,4.8-1.2,6.3-2.8s2.3-3.5,2.3-6
			c0-2.4-0.7-4.3-2-5.8s-3.3-2.4-5.9-2.7c-1.5-0.2-6-0.3-13.3-0.3H710.4z M710.4,678.5v20.7h14.4c5.6,0,9.2-0.2,10.7-0.5
			c2.3-0.4,4.2-1.5,5.7-3.1c1.5-1.6,2.2-3.8,2.2-6.6c0-2.3-0.6-4.3-1.7-5.9c-1.1-1.6-2.8-2.8-4.9-3.5c-2.1-0.7-6.7-1.1-13.8-1.1
			H710.4z"/>
	</g>
</g>
</svg>
