<?xml version="1.0" encoding="utf-8"?>
<!-- Generator: Adobe Illustrator 19.2.0, SVG Export Plug-In . SVG Version: 6.00 Build 0)  -->
<svg version="1.1" id="Livello_1" xmlns="http://www.w3.org/2000/svg" xmlns:xlink="http://www.w3.org/1999/xlink" x="0px" y="0px"
	 viewBox="0 0 960 960" style="enable-background:new 0 0 960 960;" xml:space="preserve">
<style type="text/css">
	.st0{fill-rule:evenodd;clip-rule:evenodd;fill:#FFFFFF;stroke:#1A171B;stroke-width:0.7495;stroke-miterlimit:2.6131;}
	.st1{fill-rule:evenodd;clip-rule:evenodd;fill:#E1001A;}
	.st2{fill-rule:evenodd;clip-rule:evenodd;fill:#FFFFFF;stroke:#E1001A;stroke-width:2.4984;stroke-miterlimit:2.6131;}
	.st3{fill-rule:evenodd;clip-rule:evenodd;fill:#1A171B;stroke:#1A171B;stroke-width:0.7495;stroke-miterlimit:2.6131;}
	.st4{fill-rule:evenodd;clip-rule:evenodd;fill:#005EA7;}
	.st5{fill-rule:evenodd;clip-rule:evenodd;fill:#005EA7;stroke:#FFFFFF;stroke-width:4.4187;stroke-miterlimit:2.6131;}
	.st6{fill-rule:evenodd;clip-rule:evenodd;fill:#FFFFFF;}
</style>
<g>
	<g>
		<path class="st0" d="M545,452c17.4-0.7,27.9-13.7,25.1-31l-0.6-2.6l-1-2.8l-1.2-2.7L407.4,135.4c-8-12.3-19.3-19.3-34.1-13.1
			c-5.6,3.1-9.7,7.4-12.9,12.7L200.8,411.4c-5.8,10.9-8,22.4,0.8,32.5c7,7.4,15.8,8.2,25.6,8.2l313.8-0.1H545L545,452z"/>
		<path class="st1" d="M541.1,444c4.9-0.1,9.7,0.5,14.8-3.3c5.1-3.8,9.8-13.3,4.3-24.3L400.5,139.6c-9-15.7-24.7-15.3-33.3-0.4
			L207.8,415.4c-3.4,5.9-6.2,14.2-2.3,20.5c5.1,8.1,13.1,8.1,21.8,8.2L541.1,444L541.1,444z"/>
		<polygon class="st2" points="519.8,411.5 383.6,175.7 247.6,411.5 519.8,411.5 		"/>
		<path class="st3" d="M329.5,316.4l2-10.5l14.9,2.8l-2,10.8c-0.3,1.8-2.2,2-4.1,1.6l-7.8-1.6C329.7,319.1,329.2,318.2,329.5,316.4
			L329.5,316.4z"/>
		<path class="st3" d="M404.6,330.6l2-10.5l15,2.8l-2.2,10.8c-0.3,1.8-2.2,2-4.1,1.6l-8.2-1.7C404.9,333.4,404.1,332.4,404.6,330.6
			L404.6,330.6z"/>
		<path class="st3" d="M328.3,302.6c-3.2-0.6-2.2-6,0.9-5.4l98.3,18.6c3,0.6,2.1,6-1.1,5.4L328.3,302.6L328.3,302.6z"/>
		<path class="st3" d="M332.4,294.7c-0.4-1.3-0.8-2.7-0.6-3.9l18.2,3.4c1.6-1.6,1.8-2.8,2.1-4.6l-19.3-3.7l0.3-2.5l19.5,3.7
			c0.3-1.8,0.1-3.6-0.9-5.2l-17.7-3.3c0.2-1.2,0.6-2.3,2-3.3c1.2-0.5,3.1-1,4.4-1c29.2-0.6,57,4.4,84.9,15.4
			c1.2,0.7,2.5,1.2,4.1,2.6c1,1.4,1.2,3.3,1,4.5l-17.5-3.3c-2.1,1-3.1,2.6-3.5,4.4l20.2,3.8l-0.7,2.4l-20-3.8
			c-0.4,1.9-0.7,3.6,1.5,5.3l17.6,3.3c-0.2,1.2-1,2.3-2.5,3.3L332.4,294.7L332.4,294.7z"/>
		<path class="st3" d="M340.4,271.7l11.1-21.7c2.2-2.1,4.4-3.1,6.8-3.2c20.6,0.8,40.6,4.6,60.6,11.6c2.5,0.9,3.9,3.1,5.2,5.9
			l2.1,22.4l-5.2-2.2l-1.7-17.8c-0.2-2-1.3-2.8-3-4.3c-18.3-6-37.1-9.5-56.4-10.7c-2.5,0-3.2,0.4-4.8,2.2l-8.4,17.2L340.4,271.7
			L340.4,271.7z"/>
		<path class="st0" d="M368.6,285.2l26.7,5c1,0.2,1.6,1.2,1.5,2.1l-1.6,8.5c-0.2,1-1.2,1.6-2.1,1.5l-26.7-5c-1-0.2-1.6-1.1-1.5-2.1
			l1.6-8.5C366.7,285.7,367.6,285.1,368.6,285.2L368.6,285.2z"/>
		<path class="st3" d="M410.9,400.4c3.5-2.2,11.5-6.5,17-10.3c5-6.1,2.9-9.2,2.4-12.2c-7.2-9.1-21.9-14.7-25.1-29.5l1.5-8.4l8.8,1.7
			l-0.4,6c0.8,5,5,7.8,10.1,12.1c6.9,5.5,12.2,6.6,19.1,11.5c2.1,2.7,4,5.1,4,9.3c-1,7.8-1,9.9-9.7,20
			C430,400.5,420,400.5,410.9,400.4L410.9,400.4z"/>
		<path class="st3" d="M306.5,400.3c14.7-8.4,32-11.9,42.3-26.6c1.7-3.3,1.8-6.7,1.7-10.8c-2.1-12-15.3-15.6-20.3-27.5
			c-0.3-3.2-0.1-5.6,0.5-9l8.8,1.4v4.3c4.1,9.7,13.7,12.1,20.8,20.8c5,6,6.6,14.5,5.6,23.1c0,6.9-12.6,21.9-19.9,24.2H306.5
			L306.5,400.3z"/>
	</g>
</g>
<g>
	<g>
		<polygon class="st4" points="215.2,608.5 551.1,608.5 551.1,735.6 215.2,735.6 215.2,608.5 		"/>
		<path class="st5" d="M240.9,617.6h284.5c9.1,0,16.6,7.5,16.6,16.6V710c0,9.1-7.5,16.6-16.6,16.6H240.9c-9.1,0-16.6-7.5-16.6-16.6
			v-75.8C224.3,625.1,231.7,617.6,240.9,617.6L240.9,617.6z"/>
		<polygon class="st6" points="454.4,645.3 451.1,633 456.2,631.6 458.1,638.7 462.7,630.9 471.6,636.1 466.5,645.1 475.5,642.8 
			476.9,647.8 462.7,651.6 454.4,666 473.2,666 482.1,657.1 485.8,660.8 480.5,665.8 489.7,666 489.7,676.3 479.2,676.3 
			485.8,683.1 482.1,686.8 471.9,676.3 453.6,676.3 462.9,692.2 477,695.9 475.8,701.1 466.6,698.6 472,707.7 462.9,712.9 
			458.2,704.8 456.2,712.3 451.2,710.7 454.4,698.3 445,682.1 436.6,696.7 440.4,710.9 435.3,712.3 432.9,703.1 427.7,712.3 
			418.6,707.1 423.3,698.9 415.8,701 414.7,695.9 427.2,692.3 436.5,676.3 419.8,676.3 409.3,686.8 405.6,683.1 412.2,676.3 
			401.6,676.3 401.6,666 411.1,666 405.6,660.5 409.5,656.8 418.7,666 435.7,666 427.3,651.2 415.1,647.9 416.4,642.6 423.3,644.6 
			419,636.7 427.9,631.5 433.2,640.5 435.7,631.5 440.7,632.9 436.9,647.1 445,661.4 454.4,645.3 		"/>
		<polygon class="st6" points="327.8,645.3 324.5,633 329.7,631.6 331.5,638.7 336.1,630.9 345,636.1 339.9,645.1 349,642.8 
			350.3,647.8 336.1,651.6 327.8,666 346.6,666 355.6,657.1 359.2,660.8 354,665.8 363.2,666 363.2,676.3 352.7,676.3 359.2,683.1 
			355.6,686.8 345.3,676.3 327,676.3 336.4,692.2 350.4,695.9 349.2,701.1 340,698.6 345.4,707.7 336.4,712.9 331.6,704.8 
			329.7,712.3 324.7,710.7 327.8,698.3 318.5,682.1 310.1,696.7 313.9,710.9 308.7,712.3 306.4,703.1 301.1,712.3 292,707.1 
			296.8,698.9 289.3,701 288.1,695.9 300.6,692.3 309.9,676.3 293.2,676.3 282.7,686.8 279,683.1 285.6,676.3 275.1,676.3 
			275.1,666 284.6,666 279,660.5 283,656.8 292.2,666 309.1,666 300.7,651.2 288.5,647.9 289.8,642.6 296.8,644.6 292.4,636.7 
			301.4,631.5 306.6,640.5 309.1,631.5 314.1,632.9 310.3,647.1 318.5,661.4 327.8,645.3 		"/>
	</g>
</g>
<g>
	<path d="M764.3,343.7h-17l-6.8-17.6h-30.9l-6.4,17.6h-16.6l30.1-77.3h16.5L764.3,343.7z M735.5,313.1l-10.7-28.7l-10.4,28.7H735.5z
		"/>
</g>
<g>
	<path d="M694.8,634.9h30.9c6.1,0,10.7,0.3,13.7,0.8s5.7,1.6,8.1,3.2s4.4,3.8,5.9,6.5s2.4,5.7,2.4,9c0,3.6-1,6.9-2.9,10
		s-4.6,5.3-7.9,6.8c4.7,1.4,8.3,3.7,10.9,7s3.8,7.2,3.8,11.7c0,3.5-0.8,6.9-2.5,10.3s-3.9,6-6.7,8c-2.8,2-6.3,3.2-10.5,3.7
		c-2.6,0.3-8.9,0.5-18.8,0.5h-26.3V634.9z M710.4,647.8v17.9h10.2c6.1,0,9.9-0.1,11.3-0.3c2.7-0.3,4.8-1.2,6.3-2.8s2.3-3.5,2.3-6
		c0-2.4-0.7-4.3-2-5.8s-3.3-2.4-5.9-2.7c-1.5-0.2-6-0.3-13.3-0.3H710.4z M710.4,678.5v20.7h14.4c5.6,0,9.2-0.2,10.7-0.5
		c2.3-0.4,4.2-1.5,5.7-3.1c1.5-1.6,2.2-3.8,2.2-6.6c0-2.3-0.6-4.3-1.7-5.9c-1.1-1.6-2.8-2.8-4.9-3.5c-2.1-0.7-6.7-1.1-13.8-1.1
		H710.4z"/>
</g>
</svg>
