<?xml version="1.0" encoding="utf-8"?>
<!-- Generator: Adobe Illustrator 19.2.0, SVG Export Plug-In . SVG Version: 6.00 Build 0)  -->
<svg version="1.1" id="Livello_1" xmlns="http://www.w3.org/2000/svg" xmlns:xlink="http://www.w3.org/1999/xlink" x="0px" y="0px"
	 viewBox="0 0 960 960" style="enable-background:new 0 0 960 960;" xml:space="preserve">
<style type="text/css">
	.st0{fill-rule:evenodd;clip-rule:evenodd;fill:#FFFFFF;stroke:#1A171B;stroke-width:0.7495;stroke-miterlimit:2.6131;}
	.st1{fill-rule:evenodd;clip-rule:evenodd;fill:#E1001A;}
	.st2{fill-rule:evenodd;clip-rule:evenodd;fill:#FFFFFF;stroke:#E1001A;stroke-width:2.4984;stroke-miterlimit:2.6131;}
	.st3{fill-rule:evenodd;clip-rule:evenodd;fill:#1A171B;stroke:#1A171B;stroke-width:0.7495;stroke-miterlimit:2.6131;}
	.st4{fill:#FFFFFF;stroke:#1A171B;stroke-width:0.6628;stroke-miterlimit:2.6131;}
	.st5{fill:none;stroke:#1A171B;stroke-width:4.4187;stroke-miterlimit:2.6131;}
	.st6{fill-rule:evenodd;clip-rule:evenodd;fill:#1A171B;stroke:#1A171B;stroke-width:0.6628;stroke-miterlimit:2.6131;}
	.st7{fill-rule:evenodd;clip-rule:evenodd;fill:#C5C6C8;stroke:#C5C6C8;stroke-width:0.6628;stroke-miterlimit:2.6131;}
</style>
<g>
	<g>
		<path class="st0" d="M545,452c17.4-0.7,27.9-13.7,25.1-31l-0.6-2.6l-1-2.8l-1.2-2.7L407.4,135.4c-8-12.3-19.3-19.3-34.1-13.1
			c-5.6,3.1-9.7,7.4-12.9,12.7L200.8,411.4c-5.8,10.9-8,22.4,0.8,32.5c7,7.4,15.8,8.2,25.6,8.2l313.8-0.1H545L545,452z"/>
		<path class="st1" d="M541.1,444c4.9-0.1,9.7,0.5,14.8-3.3c5.1-3.8,9.8-13.3,4.3-24.3L400.5,139.6c-9-15.7-24.7-15.3-33.3-0.4
			L207.8,415.4c-3.4,5.9-6.2,14.2-2.3,20.5c5.1,8.1,13.1,8.1,21.8,8.2L541.1,444L541.1,444z"/>
		<polygon class="st2" points="519.8,411.5 383.6,175.7 247.6,411.5 519.8,411.5 		"/>
		<path class="st3" d="M329.5,316.4l2-10.5l14.9,2.8l-2,10.8c-0.3,1.8-2.2,2-4.1,1.6l-7.8-1.6C329.7,319.1,329.2,318.2,329.5,316.4
			L329.5,316.4z"/>
		<path class="st3" d="M404.6,330.6l2-10.5l15,2.8l-2.2,10.8c-0.3,1.8-2.2,2-4.1,1.6l-8.2-1.7C404.9,333.4,404.1,332.4,404.6,330.6
			L404.6,330.6z"/>
		<path class="st3" d="M328.3,302.6c-3.2-0.6-2.2-6,0.9-5.4l98.3,18.6c3,0.6,2.1,6-1.1,5.4L328.3,302.6L328.3,302.6z"/>
		<path class="st3" d="M332.4,294.7c-0.4-1.3-0.8-2.7-0.6-3.9l18.2,3.4c1.6-1.6,1.8-2.8,2.1-4.6l-19.3-3.7l0.3-2.5l19.5,3.7
			c0.3-1.8,0.1-3.6-0.9-5.2l-17.7-3.3c0.2-1.2,0.6-2.3,2-3.3c1.2-0.5,3.1-1,4.4-1c29.2-0.6,57,4.4,84.9,15.4
			c1.2,0.7,2.5,1.2,4.1,2.6c1,1.4,1.2,3.3,1,4.5l-17.5-3.3c-2.1,1-3.1,2.6-3.5,4.4l20.2,3.8l-0.7,2.4l-20-3.8
			c-0.4,1.9-0.7,3.6,1.5,5.3l17.6,3.3c-0.2,1.2-1,2.3-2.5,3.3L332.4,294.7L332.4,294.7z"/>
		<path class="st3" d="M340.4,271.7l11.1-21.7c2.2-2.1,4.4-3.1,6.8-3.2c20.6,0.8,40.6,4.6,60.6,11.6c2.5,0.9,3.9,3.1,5.2,5.9
			l2.1,22.4l-5.2-2.2l-1.7-17.8c-0.2-2-1.3-2.8-3-4.3c-18.3-6-37.1-9.5-56.4-10.7c-2.5,0-3.2,0.4-4.8,2.2l-8.4,17.2L340.4,271.7
			L340.4,271.7z"/>
		<path class="st0" d="M368.6,285.2l26.7,5c1,0.2,1.6,1.2,1.5,2.1l-1.6,8.5c-0.2,1-1.2,1.6-2.1,1.5l-26.7-5c-1-0.2-1.6-1.1-1.5-2.1
			l1.6-8.5C366.7,285.7,367.6,285.1,368.6,285.2L368.6,285.2z"/>
		<path class="st3" d="M410.9,400.4c3.5-2.2,11.5-6.5,17-10.3c5-6.1,2.9-9.2,2.4-12.2c-7.2-9.1-21.9-14.7-25.1-29.5l1.5-8.4l8.8,1.7
			l-0.4,6c0.8,5,5,7.8,10.1,12.1c6.9,5.5,12.2,6.6,19.1,11.5c2.1,2.7,4,5.1,4,9.3c-1,7.8-1,9.9-9.7,20
			C430,400.5,420,400.5,410.9,400.4L410.9,400.4z"/>
		<path class="st3" d="M306.5,400.3c14.7-8.4,32-11.9,42.3-26.6c1.7-3.3,1.8-6.7,1.7-10.8c-2.1-12-15.3-15.6-20.3-27.5
			c-0.3-3.2-0.1-5.6,0.5-9l8.8,1.4v4.3c4.1,9.7,13.7,12.1,20.8,20.8c5,6,6.6,14.5,5.6,23.1c0,6.9-12.6,21.9-19.9,24.2H306.5
			L306.5,400.3z"/>
	</g>
</g>
<g>
	<g>
		<polygon class="st4" points="215.2,608.5 551.1,608.5 551.1,735.6 215.2,735.6 215.2,608.5 		"/>
		<path class="st5" d="M240.9,617.6h284.5c9.1,0,16.6,7.5,16.6,16.6V710c0,9.1-7.5,16.6-16.6,16.6H240.9c-9.1,0-16.6-7.5-16.6-16.6
			v-75.8C224.3,625.1,231.7,617.6,240.9,617.6L240.9,617.6z"/>
		<polygon class="st6" points="326.4,637.7 330,641.1 322.8,647.8 319.2,644.4 326.4,637.7 		"/>
		<polygon class="st6" points="314.8,648.4 318.5,651.8 304.1,665.2 300.4,661.8 314.8,648.4 		"/>
		<polygon class="st6" points="285.3,675.9 288.9,679.3 276.7,690.7 273,687.3 285.3,675.9 		"/>
		<polygon class="st6" points="260.8,698.7 264.4,702.1 253.6,712.2 250,708.8 260.8,698.7 		"/>
		<polygon class="st6" points="280.9,690.7 284.6,694.1 271.6,706.1 268,702.8 280.9,690.7 		"/>
		<polygon class="st6" points="308.4,665.2 312,668.6 301.9,678 298.2,674.6 308.4,665.2 		"/>
		<polygon class="st6" points="325.7,649.1 329.3,652.5 323.5,657.8 319.9,654.5 325.7,649.1 		"/>
		<polygon class="st6" points="332.1,653.8 335.8,657.2 321.4,670.6 317.7,667.2 332.1,653.8 		"/>
		<polygon class="st6" points="310.5,673.9 314.1,677.3 306.9,684 303.3,680.6 310.5,673.9 		"/>
		<polygon class="st6" points="298.2,685.3 301.9,688.7 288.9,700.8 285.3,697.4 298.2,685.3 		"/>
		<polygon class="st6" points="321.3,674.6 324.9,678 315.6,686.7 312,683.3 321.3,674.6 		"/>
		<polygon class="st6" points="299,695.4 302.6,698.8 284.6,715.6 280.9,712.2 299,695.4 		"/>
		<polygon class="st6" points="347.3,661.2 350.9,664.5 345.9,669.2 342.2,665.9 347.3,661.2 		"/>
		<polygon class="st6" points="336.5,671.2 340.1,674.6 327.8,686 324.2,682.6 336.5,671.2 		"/>
		<polygon class="st6" points="314.1,692 317.7,695.4 305.5,706.8 301.9,703.4 314.1,692 		"/>
		<polygon class="st6" points="346.5,672.6 350.1,676 339.4,686 335.8,682.6 346.5,672.6 		"/>
		<polygon class="st6" points="327.1,690.7 330.7,694.1 322.1,702.1 318.5,698.7 327.1,690.7 		"/>
		<polygon class="st6" points="340,689.4 343.7,692.8 332.1,703.5 328.5,700.1 340,689.4 		"/>
		<polygon class="st6" points="361.7,669.2 365.3,672.6 355.2,682 351.6,678.6 361.7,669.2 		"/>
		<polygon class="st6" points="354.5,686.7 358.1,690 348.7,698.8 345.1,695.4 354.5,686.7 		"/>
		<polygon class="st6" points="338.6,701.4 342.2,704.8 334.3,712.2 330.7,708.8 338.6,701.4 		"/>
		<polygon class="st6" points="355.2,696.7 358.8,700.1 346.6,711.5 343,708.1 355.2,696.7 		"/>
		<polygon class="st6" points="375.4,678 379,681.3 367.5,692.1 363.8,688.7 375.4,678 		"/>
		<polygon class="st6" points="383.3,681.3 387,684.7 382.6,688.7 379,685.3 383.3,681.3 		"/>
		<polygon class="st6" points="368.9,694.7 372.5,698.1 363.9,706.1 360.3,702.8 368.9,694.7 		"/>
		<polygon class="st6" points="385.5,690 389.1,693.4 378.3,703.5 374.6,700.1 385.5,690 		"/>
		<polygon class="st6" points="368.2,706.1 371.8,709.5 366,714.9 362.4,711.5 368.2,706.1 		"/>
		<polygon class="st6" points="401.3,686 405,689.4 397.8,696.1 394.1,692.7 401.3,686 		"/>
		<polygon class="st6" points="385.5,700.8 389.1,704.2 377.6,714.9 373.9,711.5 385.5,700.8 		"/>
		<path class="st7" d="M337.1,626.9h194v72.8c-15-1.4-24.1-8.4-28.5-18.2c-16.6,18.2-54.2,16.9-67.7,0c-27,5.7-46.6-2.8-55.6-19.5
			C364.3,663.4,337.1,656.3,337.1,626.9L337.1,626.9z"/>
	</g>
</g>
<g>
	<path d="M764.3,343.7h-17l-6.8-17.6h-30.9l-6.4,17.6h-16.6l30.1-77.3h16.5L764.3,343.7z M735.5,313.1l-10.7-28.7l-10.4,28.7H735.5z
		"/>
</g>
<g>
	<path d="M694.8,634.9h30.9c6.1,0,10.7,0.3,13.7,0.8s5.7,1.6,8.1,3.2s4.4,3.8,5.9,6.5s2.4,5.7,2.4,9c0,3.6-1,6.9-2.9,10
		s-4.6,5.3-7.9,6.8c4.7,1.4,8.3,3.7,10.9,7s3.8,7.2,3.8,11.7c0,3.5-0.8,6.9-2.5,10.3s-3.9,6-6.7,8c-2.8,2-6.3,3.2-10.5,3.7
		c-2.6,0.3-8.9,0.5-18.8,0.5h-26.3V634.9z M710.4,647.8v17.9h10.2c6.1,0,9.9-0.1,11.3-0.3c2.7-0.3,4.8-1.2,6.3-2.8s2.3-3.5,2.3-6
		c0-2.4-0.7-4.3-2-5.8s-3.3-2.4-5.9-2.7c-1.5-0.2-6-0.3-13.3-0.3H710.4z M710.4,678.5v20.7h14.4c5.6,0,9.2-0.2,10.7-0.5
		c2.3-0.4,4.2-1.5,5.7-3.1c1.5-1.6,2.2-3.8,2.2-6.6c0-2.3-0.6-4.3-1.7-5.9c-1.1-1.6-2.8-2.8-4.9-3.5c-2.1-0.7-6.7-1.1-13.8-1.1
		H710.4z"/>
</g>
</svg>
