<?xml version="1.0" encoding="utf-8"?>
<!-- Generator: Adobe Illustrator 19.2.0, SVG Export Plug-In . SVG Version: 6.00 Build 0)  -->
<svg version="1.1" id="Livello_1" xmlns="http://www.w3.org/2000/svg" xmlns:xlink="http://www.w3.org/1999/xlink" x="0px" y="0px"
	 viewBox="0 0 960 960" style="enable-background:new 0 0 960 960;" xml:space="preserve">
<style type="text/css">
	.st0{fill-rule:evenodd;clip-rule:evenodd;fill:#FFFFFF;stroke:#1A171B;stroke-width:0.7495;stroke-miterlimit:2.6131;}
	.st1{fill-rule:evenodd;clip-rule:evenodd;fill:#E1001A;}
	.st2{fill-rule:evenodd;clip-rule:evenodd;fill:#FFFFFF;stroke:#E1001A;stroke-width:2.4984;stroke-miterlimit:2.6131;}
	.st3{fill-rule:evenodd;clip-rule:evenodd;fill:#1A171B;stroke:#1A171B;stroke-width:0.7495;stroke-miterlimit:2.6131;}
	.st4{fill:#FFFFFF;stroke:#1A171B;stroke-width:0.6628;stroke-miterlimit:2.6131;}
	.st5{fill:none;stroke:#1A171B;stroke-width:4.4187;stroke-miterlimit:2.6131;}
	.st6{fill-rule:evenodd;clip-rule:evenodd;fill:#1A171B;stroke:#1A171B;stroke-width:1.7675;stroke-miterlimit:2.6131;}
	.st7{fill-rule:evenodd;clip-rule:evenodd;fill:#1A171B;stroke:#1A171B;stroke-width:0.6628;stroke-miterlimit:2.6131;}
</style>
<g>
	<g>
		<path class="st0" d="M545,452c17.4-0.7,27.9-13.7,25.1-31l-0.6-2.6l-1-2.8l-1.2-2.7L407.4,135.4c-8-12.3-19.3-19.3-34.1-13.1
			c-5.6,3.1-9.7,7.4-12.9,12.7L200.8,411.4c-5.8,10.9-8,22.4,0.8,32.5c7,7.4,15.8,8.2,25.6,8.2l313.8-0.1H545L545,452z"/>
		<path class="st1" d="M541.1,444c4.9-0.1,9.7,0.5,14.8-3.3c5.1-3.8,9.8-13.3,4.3-24.3L400.5,139.6c-9-15.7-24.7-15.3-33.3-0.4
			L207.8,415.4c-3.4,5.9-6.2,14.2-2.3,20.5c5.1,8.1,13.1,8.1,21.8,8.2L541.1,444L541.1,444z"/>
		<polygon class="st2" points="519.8,411.5 383.6,175.7 247.6,411.5 519.8,411.5 		"/>
		<path class="st3" d="M384,367.1c8.2,0,14.9,6.7,14.9,14.9c0,8.2-6.7,14.9-14.9,14.9c-8.2,0-14.9-6.7-14.9-14.9
			C369.1,373.8,375.8,367.1,384,367.1L384,367.1z"/>
		<path class="st3" d="M394.2,344l4.7-103.6c0.2-4.5-6.7-14.9-14.9-14.9c-8.2,0-15.2,7.2-14.9,14.9l4.2,103.6
			c0.3,6.7,4.4,11.6,10.1,11.6C389.1,355.6,393.9,350.7,394.2,344L394.2,344z"/>
	</g>
</g>
<polygon class="st4" points="215.2,608.5 551.1,608.5 551.1,735.6 215.2,735.6 215.2,608.5 "/>
<path class="st5" d="M240.9,617.6h284.5c9.1,0,16.6,7.5,16.6,16.6V710c0,9.1-7.5,16.6-16.6,16.6H240.9c-9.1,0-16.6-7.5-16.6-16.6
	v-75.8C224.3,625.1,231.7,617.6,240.9,617.6L240.9,617.6z"/>
<path class="st6" d="M265.6,690.2l-5.4-8.3l5.4-9.7c1.6,0,4.9,0,7.1,0c4.2-2.8,0-5.5,0-8.4l1.4-2.8c2.7,0,2.3,0,5.5,0l1.4,2.8
	c0,3.3-4.1,5.5-1.4,8.4c5.3,0,9.5,0,15.3,0c1.5,0,1.4,0.1,2.7-1.4c8.3,0,16.7,0,25.1,0c1.4,1.4,1.4,1.4,2.7,1.4v18H265.6
	L265.6,690.2z"/>
<path class="st6" d="M274.6,658.5c-0.2,0,0.9-4.7,2-7.4c0.6-1.8,4.4-5.5,5.1-8.1c1.7-6.7,5.1-11.6,12.7-10.2
	c3.5,0.6,4.4,4.2,8.3,5.2c2.8,0.8,6.2-2.3,9.5-2.3c4-0.1,4,4.7,7.9,4.7c2.5,0,4.9-2.5,6.2-2.5c7.9,0,8.6,8.8,6.2,12.4
	c-1,1.5-3.8,2.7-5.9,2.7c-2.9,0-4.9-4.5-7.4-2.5c-2.8,2.3-4.9,4-9,3c-2.5-0.6-4.3-4.3-6.9-4l-3,0.5c-2.3,2.3-7.1,4.9-10.4,3.5
	c-4-1.8-7.7-4.1-9.8,2l-1.1,3H274.6L274.6,658.5z"/>
<path class="st7" d="M254.6,704.3V700h5.5c0-1.7,0-5.2,0-7.3h67.6v-21.9h25.5v4.1h-14v9.9c1.6,0,4.9,0,6.9,0v12.7h-13.8v2.4h24.8
	v4.3h-11.5c1.4,0.7,2.5,2.3,2.5,3.9c0,2.4-2,4.4-4.4,4.4c-2.5,0-4.5-2-4.5-4.4c0-1.7,1-3.2,2.5-4l-9.6,0.1h0.1
	c0,4.7-3.8,8.3-8.3,8.3c-4.7,0-8.3-3.7-8.3-8.3l0,0h-4.2l0,0c0,4.7-3.7,8.3-8.3,8.3c-4.5,0-8.3-3.7-8.3-8.3l0,0h-4.1
	c0,4.7-3.8,8.3-8.3,8.3c-4.7,0-8.3-3.7-8.3-8.2H266c1.4,0.7,2.4,2.3,2.4,3.8c0,2.4-2.1,4.5-4.5,4.5c-2.4,0-4.5-2.1-4.5-4.5
	c0-1.5,1-3.1,2.4-3.8H254.6L254.6,704.3z"/>
<path class="st6" d="M418.9,690.2l-5.4-8.3l5.4-9.7c1.6,0,4.9,0,7.1,0c4.2-2.8,0-5.5,0-8.4l1.4-2.8c2.7,0,2.3,0,5.5,0l1.4,2.8
	c0,3.3-4.1,5.5-1.4,8.4c5.3,0,9.5,0,15.3,0c1.5,0,1.4,0.1,2.7-1.4c8.3,0,16.7,0,25.1,0c1.4,1.4,1.4,1.4,2.7,1.4v18H418.9
	L418.9,690.2z"/>
<path class="st6" d="M428,658.5c-0.2,0,0.9-4.7,2-7.4c0.6-1.8,4.4-5.5,5.1-8.1c1.7-6.7,5.1-11.6,12.7-10.2c3.5,0.6,4.4,4.2,8.3,5.2
	c2.8,0.8,6.2-2.3,9.5-2.3c4-0.1,4,4.7,7.9,4.7c2.5,0,4.9-2.5,6.2-2.5c7.9,0,8.6,8.8,6.2,12.4c-1,1.5-3.8,2.7-5.9,2.7
	c-2.9,0-4.9-4.5-7.4-2.5c-2.8,2.3-4.9,4-9,3c-2.5-0.6-4.3-4.3-6.9-4l-3,0.5c-2.3,2.3-7.1,4.9-10.4,3.5c-4-1.8-7.7-4.1-9.8,2l-1.1,3
	H428L428,658.5z"/>
<path class="st7" d="M407.9,704.3V700h5.5c0-1.7,0-5.2,0-7.3h67.6v-21.9h25.5v4.1h-14v9.9c1.6,0,4.9,0,6.9,0v12.7h-13.8v2.4h24.8
	v4.3H499c1.4,0.7,2.5,2.3,2.5,3.9c0,2.4-2,4.4-4.4,4.4c-2.5,0-4.5-2-4.5-4.4c0-1.7,1-3.2,2.5-4l-9.6,0.1h0.1c0,4.7-3.8,8.3-8.3,8.3
	c-4.7,0-8.3-3.7-8.3-8.3l0,0h-4.2l0,0c0,4.7-3.7,8.3-8.3,8.3c-4.5,0-8.3-3.7-8.3-8.3l0,0h-4.1c0,4.7-3.8,8.3-8.3,8.3
	c-4.7,0-8.3-3.7-8.3-8.2h-7.9c1.4,0.7,2.4,2.3,2.4,3.8c0,2.4-2.1,4.5-4.5,4.5c-2.4,0-4.5-2.1-4.5-4.5c0-1.5,1-3.1,2.4-3.8H407.9
	L407.9,704.3z"/>
<g>
	<path d="M764.3,343.7h-17l-6.8-17.6h-30.9l-6.4,17.6h-16.6l30.1-77.3h16.5L764.3,343.7z M735.5,313.1l-10.7-28.7l-10.4,28.7H735.5z
		"/>
</g>
<g>
	<path d="M694.8,634.9h30.9c6.1,0,10.7,0.3,13.7,0.8s5.7,1.6,8.1,3.2s4.4,3.8,5.9,6.5s2.4,5.7,2.4,9c0,3.6-1,6.9-2.9,10
		s-4.6,5.3-7.9,6.8c4.7,1.4,8.3,3.7,10.9,7s3.8,7.2,3.8,11.7c0,3.5-0.8,6.9-2.5,10.3s-3.9,6-6.7,8c-2.8,2-6.3,3.2-10.5,3.7
		c-2.6,0.3-8.9,0.5-18.8,0.5h-26.3V634.9z M710.4,647.8v17.9h10.2c6.1,0,9.9-0.1,11.3-0.3c2.7-0.3,4.8-1.2,6.3-2.8s2.3-3.5,2.3-6
		c0-2.4-0.7-4.3-2-5.8s-3.3-2.4-5.9-2.7c-1.5-0.2-6-0.3-13.3-0.3H710.4z M710.4,678.5v20.7h14.4c5.6,0,9.2-0.2,10.7-0.5
		c2.3-0.4,4.2-1.5,5.7-3.1c1.5-1.6,2.2-3.8,2.2-6.6c0-2.3-0.6-4.3-1.7-5.9c-1.1-1.6-2.8-2.8-4.9-3.5c-2.1-0.7-6.7-1.1-13.8-1.1
		H710.4z"/>
</g>
</svg>
