<?xml version="1.0" encoding="utf-8"?>
<!-- Generator: Adobe Illustrator 19.2.0, SVG Export Plug-In . SVG Version: 6.00 Build 0)  -->
<svg version="1.1" id="Livello_1" xmlns="http://www.w3.org/2000/svg" xmlns:xlink="http://www.w3.org/1999/xlink" x="0px" y="0px"
	 viewBox="0 0 960 960" style="enable-background:new 0 0 960 960;" xml:space="preserve">
<style type="text/css">
	.st0{fill:#FFFFFF;stroke:#1A171B;stroke-width:0.9483;stroke-miterlimit:2.6131;}
	.st1{fill:none;stroke:#1A171B;stroke-width:6.3218;stroke-miterlimit:2.6131;}
	.st2{fill-rule:evenodd;clip-rule:evenodd;fill:#1A171B;}
	.st3{fill-rule:evenodd;clip-rule:evenodd;fill:#FFFFFF;stroke:#1A171B;stroke-width:1.5326;stroke-miterlimit:2.6131;}
	.st4{fill-rule:evenodd;clip-rule:evenodd;fill:#E1001A;}
	.st5{fill-rule:evenodd;clip-rule:evenodd;fill:#FFFFFF;}
	.st6{fill-rule:evenodd;clip-rule:evenodd;fill:#1A171B;stroke:#1A171B;stroke-width:1.1397;stroke-miterlimit:2.6131;}
	.st7{fill-rule:evenodd;clip-rule:evenodd;fill:#FFFFFF;stroke:#1A171B;stroke-width:1.1397;stroke-miterlimit:2.6131;}
</style>
<polygon class="st0" points="703.2,628 256.8,628 256.8,838 703.2,838 703.2,628 "/>
<path class="st1" d="M300.4,643.3h359.4c16.7,0,30.4,13.7,30.4,30.4V793c0,16.7-13.7,30.4-30.4,30.4H300.4
	c-16.7,0-30.4-13.7-30.4-30.4V673.7C270,657,283.7,643.3,300.4,643.3L300.4,643.3z"/>
<path class="st2" d="M515.5,772.4h-11.7v-59c-4.2,5.2-9.5,9.4-15.2,11.7v-14c2.8-1.2,6.2-3.7,9.7-7.5c3.5-3.7,6.2-8.2,7.6-13.1h9.5
	V772.4L515.5,772.4z"/>
<path class="st2" d="M363,757.6l7.8-1.3c0.1,2.7,0.9,5,1.8,6.3c1,1.3,2.4,2.1,3.9,2.1c1.5,0,2.9-0.8,4-2.4c1.1-1.6,1.7-4,1.7-6.9
	c0-2.7-0.5-5-1.5-6.6c-1-1.6-2.3-2.4-3.8-2.4c-0.9,0-2.1,0.3-3.3,0.8l0.7-8.6c2,0,3.7-0.5,4.6-1.8c1.1-1.3,1.7-3.1,1.7-5.3
	c0-1.8-0.5-3.4-1.2-4.4c-0.7-1.1-2-1.8-3.2-1.8c-1.2,0-2.4,0.6-3.3,1.9c-0.9,1.3-1.5,3.2-1.6,5.5l-7.6-1.6c0.5-3.4,1.2-6.3,2.2-8.2
	c1-1.9,2.6-3.7,4.3-4.8c1.8-1.1,3.9-1.8,6.1-1.8c3.9,0,7.1,1.8,9.4,5.2c2,2.6,2.9,5.8,2.9,9.2c0,4.8-2.1,8.9-6.1,11.8
	c2.4,0.6,4.4,2.3,5.8,4.5c1.5,2.4,2.2,5.5,2.2,8.9c0,4.8-1.3,9.2-4,12.6c-2.7,3.5-6.1,5.3-10.1,5.3c-3.7,0-6.9-1.5-9.4-4.4
	c-2.4-2.9-4-6.9-4.3-11.6V757.6L363,757.6z"/>
<path class="st2" d="M305.7,706.3v-14.5H346v11.2c-3.4,4.2-6.9,10.8-10.3,18.7c-3.5,8.2-6.2,17.1-8,26c-1.8,9.1-2.7,17.6-2.7,24.6
	h-11.7c0-11.2,1.9-22.7,5.3-34.4c3.4-11.7,8-22.2,13.4-31.6H305.7L305.7,706.3z"/>
<path class="st2" d="M649.9,722.3c-2.2-3.9-5.5-6-9.6-6c-4.1,0-7.4,1.9-9.7,5.8c-2.7,4.5-4.1,12.3-4.1,22.9
	c0,10.6,1.3,18.2,3.8,22.4c2.4,4.2,6,6.3,10.1,6.3c4.1,0,7.4-1.9,9.6-5.7c2.8-4.5,4.3-12.3,4.3-22.9
	C654.2,734.6,652.7,726.8,649.9,722.3z M644.8,759.1c-0.5,2.1-1.2,3.7-2,4.5c-0.7,0.6-1.6,1.1-2.6,1.1c-1,0-2.1-0.5-2.8-1.3
	c-0.7-0.6-1.3-2.4-1.8-4.8c-0.5-2.3-0.7-6.9-0.7-13.4c0-6.5,0.4-11.3,0.9-14c0.4-2.1,1.1-3.7,1.8-4.5c0.7-0.8,1.7-1.3,2.7-1.3
	c1,0,1.9,0.5,2.7,1.3c0.7,0.8,1.5,2.6,2,5c0.5,2.4,0.7,7.1,0.7,13.6C645.6,751.7,645.3,756.5,644.8,759.1z"/>
<path class="st2" d="M617,722.3c-2.2-3.9-5.5-6-9.6-6c-4.1,0-7.4,1.9-9.8,5.8c-2.7,4.5-4.1,12.3-4.1,22.9c0,10.6,1.3,18.2,3.8,22.4
	c2.4,4.2,6,6.3,10.1,6.3c4.1,0,7.4-1.9,9.6-5.7c2.8-4.5,4.3-12.3,4.3-22.9C621.3,734.6,619.8,726.8,617,722.3z M611.9,759.1
	c-0.5,2.1-1.2,3.7-2,4.5c-0.7,0.6-1.6,1.1-2.6,1.1c-1,0-2.1-0.5-2.8-1.3c-0.7-0.6-1.3-2.4-1.8-4.8c-0.5-2.3-0.7-6.9-0.7-13.4
	c0-6.5,0.4-11.3,0.9-14c0.4-2.1,1.1-3.7,1.8-4.5c0.7-0.8,1.7-1.3,2.7-1.3c1,0,1.9,0.5,2.7,1.3c0.7,0.8,1.5,2.6,2,5
	c0.5,2.4,0.7,7.1,0.7,13.6C612.7,751.7,612.4,756.5,611.9,759.1z"/>
<path class="st2" d="M567.4,700c-3.9-6.3-9.2-9.6-15.4-9.6c-5.7,0-10.6,2.6-14.2,7.7c-3.5,4.9-5.5,11.7-5.5,19.9
	c0,8,1.8,14.5,5.3,19.4c3.4,4.7,7.6,7.3,12.4,7.3c4.4,0,8.3-2.3,11.1-6.8c-0.4,9.4-1.6,15.7-3.2,18.5c-1.6,2.8-3.7,4.2-6.2,4.2
	c-1.8,0-3.5-0.7-4.6-2.1c-1.1-1.4-1.9-3.7-2.1-6.8l-11.3,1.6c0.7,6.8,2.8,12.2,5.7,15.5c2.8,3.3,6.9,4.9,11.5,4.9
	c6.5,0,12-3.3,16.3-9.8c4.1-6.6,6.2-17.3,6.2-32.3C573.5,717.1,571.3,706.3,567.4,700z M560.4,719.7c0,4.5-0.9,8-2.5,10.3
	c-1.4,2.3-3.5,3.5-5.7,3.5c-2.3,0-4.4-1.4-5.8-3.7c-1.4-2.3-2.3-6.3-2.3-11.5c0-5.1,0.7-8.9,2.1-11.2c1.4-2.3,3.2-3.5,5.3-3.5
	c2.3,0,4.4,1.4,6.2,4.2c1.8,2.8,2.7,6.8,2.7,11.7V719.7z"/>
<polygon class="st2" points="450.2,756.9 450.2,747.1 469.6,747.1 469.6,756.9 450.2,756.9 "/>
<path class="st2" d="M419.5,722.3c-2.2-3.9-5.5-6-9.6-6c-4.1,0-7.4,1.9-9.7,5.8c-2.7,4.5-4.1,12.3-4.1,22.9
	c0,10.6,1.3,18.2,3.8,22.4c2.4,4.2,6,6.3,10.1,6.3c4.1,0,7.4-1.9,9.6-5.7c2.8-4.5,4.3-12.3,4.3-22.9
	C423.7,734.6,422.3,726.8,419.5,722.3z M414.4,759.1c-0.5,2.1-1.2,3.7-2,4.5c-0.7,0.6-1.6,1.1-2.6,1.1c-1,0-2.1-0.5-2.8-1.3
	c-0.7-0.6-1.3-2.4-1.8-4.8c-0.5-2.3-0.7-6.9-0.7-13.4c0-6.5,0.4-11.3,0.9-14c0.4-2.1,1.1-3.7,1.8-4.5c0.7-0.8,1.7-1.3,2.7-1.3
	c1,0,2,0.5,2.7,1.3c0.7,0.8,1.5,2.6,2,5c0.5,2.4,0.7,7.1,0.7,13.6C415.2,751.7,414.8,756.5,414.4,759.1z"/>
<path class="st2" d="M575.5,774.6c-1-0.3-1.7-0.8-2.3-1.6c-0.5-0.8-0.8-1.7-0.8-2.8c0-1.4,0.5-2.6,1.6-3.7c1.1-1,2.4-1.5,3.9-1.5
	c1.8,0,3.2,0.6,4.3,1.7c1.1,1.1,1.6,2.6,1.6,4.6c0,3-1.1,5.7-3.3,8c-2.2,2.3-5,3.7-8.5,4.2v-1.7c1.1-1.1,2-2.3,2.5-3.4
	c0.6-1.1,0.8-2.2,0.8-3.4V774.6L575.5,774.6z"/>
<path class="st2" d="M342.9,774.6c-1-0.3-1.7-0.8-2.2-1.6c-0.6-0.8-0.8-1.7-0.8-2.8c0-1.4,0.5-2.6,1.6-3.7c1.1-1,2.4-1.5,3.9-1.5
	c1.8,0,3.2,0.6,4.3,1.7c1.1,1.1,1.6,2.6,1.6,4.6c0,3-1.1,5.7-3.3,8c-2.2,2.3-5,3.7-8.5,4.2v-1.7c1.1-1.1,2-2.3,2.5-3.4
	c0.6-1.1,0.8-2.2,0.8-3.4V774.6L342.9,774.6z"/>
<g>
	<g>
		<path class="st3" d="M480,118c138.4,0,251.3,112.9,251.3,251.3c0,138.4-112.9,251.3-251.3,251.3S228.7,507.7,228.7,369.3
			C228.7,230.9,341.6,118,480,118L480,118z"/>
		<path class="st4" d="M480.7,131.6c130.6,0,237.2,106.5,237.2,237.2S611.4,606,480.7,606c-130.6,0-237.2-106.5-237.2-237.2
			S350.1,131.6,480.7,131.6L480.7,131.6z"/>
		<path class="st5" d="M480.7,192.3c97.2,0,176.5,79.3,176.5,176.5c0,97.2-79.3,176.5-176.5,176.5c-97.2,0-176.5-79.3-176.5-176.5
			C304.2,271.6,383.5,192.3,480.7,192.3L480.7,192.3z"/>
		<path class="st6" d="M512.7,425.1l-96,0.3c-25.6-3.7-26.9-41.9-1.2-47.2h74.7l-9.9-10.2c-32,1.6-81.8-2.1-107.4,12.4
			C357.1,392,351,404.1,344.4,422c-1.9,2.4-8.8,4.6-8.9-4.6V292.4c-0.6-8.8,8-6.6,8.9-4.6c7,14.4,12.1,33.7,26.3,41.6
			c42.4,19.4,100.8,13.8,149.6,17.5c12.7,4.4,22.6,14,26,25.6c0.6,2.1,1.9,3.4,4.1,4h15.3c2.2,0,5.8-0.4,8-1.5
			c8.8-3.7,9.5-14.7,21.3-19c49.7-15.9,59.2,64.9,3.9,59c-14.3-5.6-16.5-16.3-25.7-21.6l-7-1.6c-6.9,0-10.4,0-16.1,0
			c-2.8,0.4-3.1,1.8-3.8,4.3C543.4,419.8,527.6,424.7,512.7,425.1L512.7,425.1z"/>
		<path class="st7" d="M419.2,410.7c-9.9-1.6-9.6-16.6,0-18.7h77.3l17.7,18.7H419.2L419.2,410.7z"/>
		<path class="st7" d="M529.4,377.1h-22.2l-8.9-10.4l20.9-0.1l3.4,1C526,371,527.2,371.4,529.4,377.1L529.4,377.1z"/>
		<polygon class="st4" points="352.6,207.1 640.3,494.9 607.5,527.7 319.7,240 352.6,207.1 		"/>
	</g>
</g>
</svg>
