<?xml version="1.0" encoding="utf-8"?>
<!-- Generator: Adobe Illustrator 19.2.0, SVG Export Plug-In . SVG Version: 6.00 Build 0)  -->
<svg version="1.1" id="Livello_1" xmlns="http://www.w3.org/2000/svg" xmlns:xlink="http://www.w3.org/1999/xlink" x="0px" y="0px"
	 viewBox="0 0 960 960" style="enable-background:new 0 0 960 960;" xml:space="preserve">
<style type="text/css">
	.st0{fill:#FFFFFF;stroke:#1A171B;stroke-width:0.8805;stroke-miterlimit:2.6131;}
	.st1{fill-rule:evenodd;clip-rule:evenodd;fill:#1A171B;}
	.st2{fill:none;stroke:#1A171B;stroke-width:5.8703;stroke-miterlimit:2.6131;}
	.st3{fill-rule:evenodd;clip-rule:evenodd;fill:#FFFFFF;stroke:#1A171B;stroke-width:1.5326;stroke-miterlimit:2.6131;}
	.st4{fill-rule:evenodd;clip-rule:evenodd;fill:#E1001A;}
	.st5{fill-rule:evenodd;clip-rule:evenodd;fill:#FFFFFF;}
	.st6{fill-rule:evenodd;clip-rule:evenodd;fill:#1A171B;stroke:#1A171B;stroke-width:1.1391;stroke-miterlimit:2.6131;}
	.st7{fill-rule:evenodd;clip-rule:evenodd;fill:#FFFFFF;stroke:#1A171B;stroke-width:1.1391;stroke-miterlimit:2.6131;}
</style>
<polygon class="st0" points="256.8,635.5 703.2,635.5 703.2,830.5 256.8,830.5 256.8,635.5 "/>
<path class="st1" d="M594.6,765.3c-0.8-0.2-1.4-0.7-1.8-1.5c-0.4-0.7-0.7-1.6-0.7-2.6c0-1.3,0.4-2.4,1.3-3.4
	c0.9-0.9,1.9-1.4,3.2-1.4c1.5,0,2.6,0.5,3.5,1.6c0.9,1,1.3,2.4,1.3,4.2c0,2.8-0.9,5.3-2.7,7.4c-1.8,2.1-4.1,3.4-6.8,3.9V772
	c0.9-1.1,1.6-2.1,2.1-3.2c0.5-1,0.7-2.1,0.7-3.1V765.3L594.6,765.3z"/>
<path class="st1" d="M406.5,765.2c-0.8-0.2-1.4-0.7-1.8-1.5c-0.4-0.7-0.7-1.6-0.7-2.6c0-1.3,0.4-2.4,1.3-3.4
	c0.9-0.9,1.9-1.4,3.2-1.4c1.5,0,2.6,0.5,3.5,1.6c0.9,1,1.3,2.5,1.3,4.2c0,2.8-0.9,5.3-2.7,7.4c-1.8,2.1-4.1,3.4-6.8,3.9v-1.6
	c0.9-1.1,1.6-2.1,2.1-3.2c0.5-1,0.7-2.1,0.7-3.1V765.2L406.5,765.2z"/>
<path class="st2" d="M294.1,649.7h371.1c13.8,0,25.1,11.3,25.1,25.1v116.6c0,13.8-11.3,25.1-25.1,25.1H294.1
	c-13.8,0-25.1-11.3-25.1-25.1V674.8C268.9,661,280.3,649.7,294.1,649.7L294.1,649.7z"/>
<path class="st1" d="M555.6,754.2v10.4h-30c0.3-3.9,1.3-7.7,2.8-11.1c1.7-3.5,5-8.2,9.8-13.9c3.8-4.7,6.4-7.9,7.1-9.6
	c1.3-2.4,1.9-4.7,1.9-6.9c0-2.5-0.5-4.5-1.5-5.9c-1-1.3-2.7-2-4.5-2c-1.8,0-3.4,0.7-4.5,2c-1,1.3-1.8,3.7-1.8,6.7l-8.4-1
	c0.5-6,2.2-10.4,4.7-13.1c2.7-2.7,6.1-4,10.1-4c4.3,0,7.9,1.7,10.4,4.7c2.5,3,3.8,7,3.8,11.7c0,2.5-0.4,5-1.1,7.4
	c-0.8,2.3-1.9,5-3.4,7.6c-1,1.7-3.1,4.2-5.7,7.4c-2.8,3.2-4.6,5.4-5.2,6.4c-0.8,1-1.4,2.2-1.8,3.2H555.6L555.6,754.2z"/>
<polygon class="st1" points="490,748.2 490,738.1 506.8,738.1 506.8,748.2 490,748.2 "/>
<path class="st1" d="M658.7,725c-1.9-3.1-4.8-4.7-8.4-4.7c-3.6,0-6.5,1.5-8.5,4.6c-2.3,3.6-3.6,9.7-3.6,18.2
	c0,8.4,1.2,14.4,3.3,17.8c2.1,3.3,5.2,5,8.8,5c3.6,0,6.5-1.5,8.4-4.5c2.4-3.6,3.7-9.7,3.7-18.1S661.2,728.6,658.7,725z M654.3,754.2
	c-0.4,1.7-1.1,2.9-1.7,3.6c-0.6,0.5-1.4,0.9-2.2,0.9c-0.9,0-1.8-0.4-2.4-1c-0.6-0.5-1.2-1.9-1.6-3.8c-0.4-1.8-0.6-5.5-0.6-10.6
	c0-5.1,0.3-8.9,0.7-11.1c0.3-1.7,1-2.9,1.6-3.6c0.6-0.6,1.5-1,2.3-1c0.8,0,1.7,0.4,2.3,1c0.6,0.6,1.3,2,1.7,4s0.6,5.6,0.6,10.7
	C655,748.3,654.7,752.1,654.3,754.2z"/>
<path class="st1" d="M630.1,725c-1.9-3.1-4.8-4.7-8.4-4.7c-3.6,0-6.5,1.5-8.5,4.6c-2.3,3.6-3.6,9.7-3.6,18.2
	c0,8.4,1.2,14.4,3.3,17.8c2.1,3.3,5.2,5,8.8,5c3.6,0,6.5-1.5,8.4-4.5c2.4-3.6,3.7-9.7,3.7-18.1S632.5,728.6,630.1,725z M625.6,754.2
	c-0.4,1.7-1.1,2.9-1.7,3.6c-0.6,0.5-1.4,0.9-2.2,0.9c-0.9,0-1.8-0.4-2.4-1c-0.6-0.5-1.2-1.9-1.6-3.8c-0.4-1.8-0.6-5.5-0.6-10.6
	c0-5.1,0.3-8.9,0.7-11.1c0.3-1.7,1-2.9,1.6-3.6c0.6-0.6,1.5-1,2.3-1c0.8,0,1.7,0.4,2.3,1c0.6,0.6,1.3,2,1.7,4
	c0.4,1.9,0.6,5.6,0.6,10.7C626.4,748.3,626,752.1,625.6,754.2z"/>
<path class="st1" d="M585.5,712.1c-2.3-4-5.7-6.2-10.1-6.2s-7.8,2-10.2,6c-2.8,4.7-4.3,12.8-4.3,23.8c0,11.1,1.4,19,3.9,23.3
	c2.5,4.4,6.2,6.5,10.6,6.5s7.8-2,10.1-5.9c2.9-4.7,4.5-12.8,4.5-23.8S588.4,716.8,585.5,712.1z M580.1,750.4c-0.5,2.2-1.3,3.9-2,4.7
	c-0.8,0.7-1.7,1.2-2.7,1.2s-2.2-0.5-2.9-1.3c-0.8-0.7-1.4-2.5-1.9-5c-0.5-2.3-0.8-7.2-0.8-13.9c0-6.7,0.4-11.7,0.9-14.6
	c0.4-2.2,1.1-3.9,1.9-4.7c0.8-0.8,1.8-1.3,2.8-1.3s2,0.5,2.8,1.3c0.8,0.8,1.5,2.7,2,5.2c0.5,2.5,0.8,7.4,0.8,14.1
	C581,742.7,580.6,747.7,580.1,750.4z"/>
<path class="st1" d="M469.5,724.7c-1.9-3.1-4.8-4.7-8.4-4.7c-3.6,0-6.5,1.5-8.5,4.6c-2.3,3.6-3.6,9.7-3.6,18.2
	c0,8.4,1.2,14.4,3.3,17.8c2.1,3.3,5.2,5,8.8,5c3.6,0,6.5-1.5,8.4-4.5c2.4-3.6,3.7-9.7,3.7-18.1C473.2,734.4,471.9,728.3,469.5,724.7
	z M465,753.8c-0.4,1.7-1.1,2.9-1.7,3.6c-0.6,0.5-1.4,0.9-2.2,0.9c-0.8,0-1.8-0.4-2.4-1c-0.6-0.5-1.2-1.9-1.6-3.8
	c-0.4-1.8-0.6-5.5-0.6-10.6c0-5.1,0.3-8.9,0.7-11.1c0.3-1.7,1-2.9,1.6-3.6c0.6-0.6,1.5-1,2.3-1c0.8,0,1.7,0.4,2.3,1
	c0.6,0.6,1.3,2,1.7,4c0.4,1.9,0.6,5.6,0.6,10.7C465.8,748,465.4,751.8,465,753.8z"/>
<path class="st1" d="M440.8,724.7c-1.9-3.1-4.8-4.7-8.4-4.7c-3.6,0-6.5,1.5-8.5,4.6c-2.3,3.6-3.6,9.7-3.6,18.2
	c0,8.4,1.2,14.4,3.3,17.8c2.1,3.3,5.2,5,8.8,5c3.6,0,6.5-1.5,8.4-4.5c2.4-3.6,3.7-9.7,3.7-18.1C444.5,734.4,443.3,728.3,440.8,724.7
	z M436.4,753.8c-0.4,1.7-1.1,2.9-1.7,3.6c-0.6,0.5-1.4,0.9-2.2,0.9c-0.9,0-1.8-0.4-2.4-1c-0.6-0.5-1.2-1.9-1.6-3.8
	c-0.4-1.8-0.6-5.5-0.6-10.6c0-5.1,0.3-8.9,0.7-11.1c0.3-1.7,1-2.9,1.6-3.6c0.6-0.6,1.5-1,2.3-1c0.8,0,1.7,0.4,2.3,1
	c0.6,0.6,1.3,2,1.7,4c0.4,1.9,0.6,5.6,0.6,10.7C437.1,748,436.8,751.8,436.4,753.8z"/>
<path class="st1" d="M400.5,738.8c-1.3-2.3-3.2-4.4-5.6-5.5c1.9-1,3.6-2.9,4.6-4.9c1-2,1.5-4.5,1.5-7.2c0-4.4-1.3-8.2-3.6-11.1
	c-2.3-2.7-5.6-4.2-9.7-4.2c-4.2,0-7.5,1.5-9.8,4.4c-2.3,2.7-3.4,6.5-3.4,10.9c0,2.3,0.5,4.9,1.5,7c0.9,2,2.5,3.9,4.8,4.9v0.2
	c-2.5,1.3-4.5,3.5-5.6,6.2c-1.1,2.5-1.8,5.5-1.8,8.6c0,5.7,1.7,10.2,4.7,13.6c2.5,2.7,6,4,9.9,4c4.3,0,7.9-1.7,10.4-5
	c2.5-3.4,3.9-7.7,3.9-13.1C402.6,744.3,401.8,741.3,400.5,738.8z M384.1,716.6c0.9-1.3,2.3-2,3.8-2c1.5,0,2.8,0.7,3.8,2
	c0.9,1.3,1.4,3.2,1.4,5.2c0,2.2-0.5,4-1.5,5.4c-0.9,1.2-2.3,1.8-3.8,1.8c-1.5,0-2.8-0.7-3.7-1.8c-0.9-1.2-1.4-3-1.4-5.4
	C382.7,719.8,383.2,718,384.1,716.6z M392.4,754.4c-1,1.7-2.5,2.5-4.3,2.5c-1.8,0-3.3-1-4.5-2.7c-1-1.7-1.6-4.1-1.7-7.3
	c0,0,0,0.1,0,0.1v-0.2c0,0,0,0.1,0,0.1c0-2.2,0.5-4.3,1.5-6.3c0.9-1.8,2.4-2.9,4.5-2.9c1.8,0,3.3,1,4.5,2.7c1.1,1.7,1.8,4,1.8,6.7
	C394.2,750.2,393.5,752.7,392.4,754.4z"/>
<polygon class="st1" points="302.3,770 295,761.7 334.8,716.6 327.5,708.3 336,698.8 351.7,716.6 350.5,734.3 342.1,724.8 
	302.3,770 "/>
<polygon class="st1" points="344.6,770 351.8,761.7 312.1,716.6 319.3,708.3 310.9,698.8 295.2,716.6 296.3,734.3 304.8,724.8 
	344.6,770 "/>
<g>
	<g>
		<path class="st3" d="M480,118c138.4,0,251.3,112.9,251.3,251.3c0,138.4-112.9,251.3-251.3,251.3S228.7,507.7,228.7,369.3
			C228.7,230.9,341.6,118,480,118L480,118z"/>
		<path class="st4" d="M480.7,131.6c130.6,0,237.2,106.5,237.2,237.2c0,130.6-106.5,237.2-237.2,237.2
			c-130.6,0-237.2-106.5-237.2-237.2C243.5,238.2,350.1,131.6,480.7,131.6L480.7,131.6z"/>
		<path class="st5" d="M480.7,192.3c97.2,0,176.5,79.3,176.5,176.5S578,545.3,480.7,545.3c-97.2,0-176.5-79.3-176.5-176.5
			S383.5,192.3,480.7,192.3L480.7,192.3z"/>
		<path class="st6" d="M333.3,417.6v-53.3l17.8-45.6h49v75h135.4c-7.4,2.7-12.8,12.8-13.6,23.8H400c-1.8-39-56.5-38.9-57.8,0H333.3
			L333.3,417.6z"/>
		<path class="st6" d="M565.2,393.8h45v10.9l-31.4,12C579.4,406.9,572.1,396.3,565.2,393.8L565.2,393.8z"/>
		<polygon class="st6" points="406.3,387.5 406.3,286.3 610.1,286.3 610.3,387.7 406.3,387.5 		"/>
		<polygon class="st7" points="345,358.4 356.2,328.8 392.7,328.8 392.7,358.4 345,358.4 		"/>
		<path class="st6" d="M371.3,394.1c13.1,0,23.7,10.7,23.7,23.7s-10.7,23.7-23.7,23.7c-13.1,0-23.7-10.7-23.7-23.7
			S358.3,394.1,371.3,394.1L371.3,394.1z"/>
		<path class="st6" d="M550.5,394.1c13.1,0,23.7,10.7,23.7,23.7s-10.7,23.7-23.7,23.7s-23.7-10.7-23.7-23.7S537.4,394.1,550.5,394.1
			L550.5,394.1z"/>
		<path class="st7" d="M371.4,406.4c6.3,0,11.4,5.1,11.4,11.4c0,6.3-5.1,11.4-11.4,11.4c-6.3,0-11.4-5.1-11.4-11.4
			C360,411.5,365.1,406.4,371.4,406.4L371.4,406.4z"/>
		<path class="st7" d="M550.5,406.4c6.3,0,11.4,5.1,11.4,11.4c0,6.3-5.1,11.4-11.4,11.4c-6.3,0-11.4-5.1-11.4-11.4
			C539.1,411.5,544.3,406.4,550.5,406.4L550.5,406.4z"/>
	</g>
</g>
</svg>
