<?xml version="1.0" encoding="utf-8"?>
<!-- Generator: Adobe Illustrator 19.2.0, SVG Export Plug-In . SVG Version: 6.00 Build 0)  -->
<svg version="1.1" id="Livello_1" xmlns="http://www.w3.org/2000/svg" xmlns:xlink="http://www.w3.org/1999/xlink" x="0px" y="0px"
	 viewBox="0 0 960 960" style="enable-background:new 0 0 960 960;" xml:space="preserve">
<style type="text/css">
	.st0{fill-rule:evenodd;clip-rule:evenodd;fill:#FFFFFF;stroke:#1A171B;stroke-width:1.2483;stroke-miterlimit:2.6131;}
	.st1{fill-rule:evenodd;clip-rule:evenodd;fill:#E1001A;}
	.st2{fill-rule:evenodd;clip-rule:evenodd;fill:#FFFFFF;}
	.st3{fill-rule:evenodd;clip-rule:evenodd;fill:#005DA2;}
	.st4{fill:#FFFFFF;stroke:#1A171B;stroke-width:0.7331;stroke-miterlimit:2.6131;}
	.st5{fill:none;stroke:#1A171B;stroke-width:2.4438;stroke-miterlimit:2.6131;}
	.st6{fill-rule:evenodd;clip-rule:evenodd;fill:#1A171B;stroke:#1A171B;stroke-width:0.7331;stroke-miterlimit:2.6131;}
</style>
<g>
	<g>
		<path class="st0" d="M480,121.3c112.7,0,204.7,92,204.7,204.7c0,112.7-92,204.7-204.7,204.7s-204.7-92-204.7-204.7
			C275.3,213.3,367.3,121.3,480,121.3L480,121.3z"/>
		<path class="st1" d="M480.6,132.4c106.4,0,193.2,86.8,193.2,193.2c0,106.4-86.8,193.2-193.2,193.2
			c-106.4,0-193.2-86.8-193.2-193.2C287.4,219.2,374.2,132.4,480.6,132.4L480.6,132.4z"/>
		<path class="st2" d="M480.6,181.8c79.2,0,143.8,64.6,143.8,143.8c0,79.2-64.6,143.8-143.8,143.8c-79.2,0-143.8-64.6-143.8-143.8
			C336.8,246.4,401.4,181.8,480.6,181.8L480.6,181.8z"/>
		<path class="st3" d="M480.7,191.5c72.9,0,132.4,59.5,132.4,132.4c0,72.9-59.5,132.4-132.4,132.4c-72.9,0-132.4-59.5-132.4-132.4
			C348.3,251,407.8,191.5,480.7,191.5L480.7,191.5z"/>
		<polygon class="st2" points="405.5,206.2 598.4,399 554.2,443.2 361.4,250.3 405.5,206.2 		"/>
		<polygon class="st1" points="376.2,193.9 610.6,428.3 583.8,455 349.4,220.6 376.2,193.9 		"/>
	</g>
</g>
<g>
	<polygon class="st4" points="545.1,541.9 545.1,840 414.9,840 414.9,541.9 545.1,541.9 	"/>
	<path class="st5" d="M535.6,566.8v247.8c0,9.2-7.6,16.8-16.8,16.8H441c-9.2,0-16.8-7.6-16.8-16.8V566.8c0-9.2,7.6-16.8,16.8-16.8
		h77.9C528.1,550,535.6,557.6,535.6,566.8L535.6,566.8z"/>
	<polygon class="st6" points="437.8,626.5 479.5,586.9 521.2,627.1 521.2,644 487.5,612.6 487.5,668.2 471.7,668.2 471.7,612.6 
		437.8,645.5 437.8,626.5 	"/>
	<polygon class="st6" points="437.8,755.4 479.5,795 521.2,754.8 521.2,737.9 487.5,769.3 487.5,713.7 471.7,713.7 471.7,769.3 
		437.8,736.5 437.8,755.4 	"/>
</g>
</svg>
