<?xml version="1.0" encoding="utf-8"?>
<!-- Generator: Adobe Illustrator 19.2.0, SVG Export Plug-In . SVG Version: 6.00 Build 0)  -->
<svg version="1.1" id="Livello_1" xmlns="http://www.w3.org/2000/svg" xmlns:xlink="http://www.w3.org/1999/xlink" x="0px" y="0px"
	 viewBox="0 0 960 960" style="enable-background:new 0 0 960 960;" xml:space="preserve">
<style type="text/css">
	.st0{fill:#FFFFFF;stroke:#1A171B;stroke-width:0.9483;stroke-miterlimit:2.6131;}
	.st1{fill:none;stroke:#1A171B;stroke-width:6.3218;stroke-miterlimit:2.6131;}
	.st2{fill-rule:evenodd;clip-rule:evenodd;fill:#1A171B;stroke:#1A171B;stroke-width:1.5805;stroke-miterlimit:2.6131;}
	.st3{fill-rule:evenodd;clip-rule:evenodd;fill:#1A171B;stroke:#1A171B;stroke-width:0.9483;stroke-miterlimit:2.6131;}
	.st4{fill-rule:evenodd;clip-rule:evenodd;fill:#FFFFFF;stroke:#1A171B;stroke-width:1.5326;stroke-miterlimit:2.6131;}
	.st5{fill-rule:evenodd;clip-rule:evenodd;fill:#E1001A;}
	.st6{fill-rule:evenodd;clip-rule:evenodd;fill:#FFFFFF;}
	.st7{fill-rule:evenodd;clip-rule:evenodd;fill:#005DA2;}
</style>
<g>
	<polygon class="st0" points="703.2,628 256.8,628 256.8,838 703.2,838 703.2,628 	"/>
	<path class="st1" d="M300.4,643.3h359.4c16.7,0,30.4,13.7,30.4,30.4V793c0,16.7-13.7,30.4-30.4,30.4H300.4
		c-16.7,0-30.4-13.7-30.4-30.4V673.7C270,657,283.7,643.3,300.4,643.3L300.4,643.3z"/>
	<path class="st2" d="M435,769.4v-17h72.2c-8.8,4.5-9.7,10.4-10.9,17H435L435,769.4z"/>
	<path class="st2" d="M533.4,769.4c0-5.8-2.9-13.6-9.7-17h25.4c-6.2,2.3-11,11.2-11.2,17H533.4L533.4,769.4z"/>
	<path class="st2" d="M575.3,769.4c-0.2-6.8-4.3-14.6-9.9-17h52.3v8.9l-20.8,8.1H575.3L575.3,769.4z"/>
	<polygon class="st2" points="435,747.7 435.1,737.6 389.1,737.6 389.3,683.2 617.8,683.2 617.8,747.7 435,747.7 	"/>
	<path class="st2" d="M384.6,742.1v-37.2h-33.9l-11,30.4v34.1h5.6c1.1-26.1,36.3-24.7,37.2,0c2.2,0,4,0,5.4,0c2.2-26,36.1-25,37.1,0
		h5.6v-27.3H384.6z M380.3,729.7h-33.9l6.7-18.2h27.2V729.7z"/>
	<path class="st3" d="M406.5,753.4c-8.5,0-15.3,7.1-15.3,15.9c0,8.8,6.9,15.9,15.3,15.9c8.4,0,15.3-7.1,15.3-15.9
		C421.8,760.6,415,753.4,406.5,753.4z M406.5,776.1c-3.6,0-6.6-3.1-6.6-6.8c0-3.8,3-6.8,6.6-6.8c3.6,0,6.6,3.1,6.6,6.8
		C413.1,773.1,410.1,776.1,406.5,776.1z"/>
	<path class="st3" d="M514.8,753.4c-8.5,0-15.3,7.1-15.3,15.9c0,8.8,6.9,15.9,15.3,15.9c8.5,0,15.3-7.1,15.3-15.9
		C530.1,760.6,523.3,753.4,514.8,753.4z M514.8,776.1c-3.6,0-6.6-3.1-6.6-6.8c0-3.8,3-6.8,6.6-6.8c3.6,0,6.6,3.1,6.6,6.8
		C521.4,773.1,518.4,776.1,514.8,776.1z"/>
	<path class="st3" d="M556.4,753.4c-8.5,0-15.3,7.1-15.3,15.9c0,8.8,6.9,15.9,15.3,15.9s15.3-7.1,15.3-15.9
		C571.8,760.6,564.9,753.4,556.4,753.4z M556.4,776.1c-3.6,0-6.6-3.1-6.6-6.8c0-3.8,3-6.8,6.6-6.8c3.6,0,6.6,3.1,6.6,6.8
		C563,773.1,560,776.1,556.4,776.1z"/>
	<path class="st3" d="M363.8,753.4c-8.5,0-15.3,7.1-15.3,15.9c0,8.8,6.9,15.9,15.3,15.9c8.5,0,15.3-7.1,15.3-15.9
		C379.2,760.6,372.3,753.4,363.8,753.4z M363.8,776.1c-3.6,0-6.6-3.1-6.6-6.8c0-3.8,3-6.8,6.6-6.8c3.6,0,6.6,3.1,6.6,6.8
		C370.4,773.1,367.4,776.1,363.8,776.1z"/>
</g>
<g>
	<g>
		<path class="st4" d="M480,118c138.4,0,251.3,112.9,251.3,251.3c0,138.4-112.9,251.3-251.3,251.3S228.7,507.7,228.7,369.3
			C228.7,230.9,341.6,118,480,118L480,118z"/>
		<path class="st5" d="M480.7,131.6c130.6,0,237.2,106.5,237.2,237.2c0,130.6-106.5,237.2-237.2,237.2
			c-130.6,0-237.2-106.5-237.2-237.2C243.5,238.2,350.1,131.6,480.7,131.6L480.7,131.6z"/>
		<path class="st6" d="M480.7,192.3c97.2,0,176.5,79.3,176.5,176.5c0,97.2-79.3,176.5-176.5,176.5c-97.2,0-176.5-79.3-176.5-176.5
			C304.2,271.6,383.5,192.3,480.7,192.3L480.7,192.3z"/>
		<path class="st7" d="M480.8,204.2c89.5,0,162.5,73,162.5,162.5c0,89.5-73,162.5-162.5,162.5c-89.5,0-162.5-73-162.5-162.5
			C318.3,277.2,391.3,204.2,480.8,204.2L480.8,204.2z"/>
		<polygon class="st6" points="388.5,222.2 625.3,459 571.1,513.2 334.4,276.4 388.5,222.2 		"/>
		<polygon class="st5" points="352.6,207.1 640.3,494.9 607.5,527.7 319.7,240 352.6,207.1 		"/>
	</g>
</g>
</svg>
