<?xml version="1.0" encoding="utf-8"?>
<!-- Generator: Adobe Illustrator 19.2.0, SVG Export Plug-In . SVG Version: 6.00 Build 0)  -->
<svg version="1.1" id="Livello_1" xmlns="http://www.w3.org/2000/svg" xmlns:xlink="http://www.w3.org/1999/xlink" x="0px" y="0px"
	 viewBox="0 0 960 960" style="enable-background:new 0 0 960 960;" xml:space="preserve">
<style type="text/css">
	.st0{fill:#FFFFFF;stroke:#1A171B;stroke-width:0.9483;stroke-miterlimit:2.6131;}
	.st1{fill:none;stroke:#1A171B;stroke-width:6.3218;stroke-miterlimit:2.6131;}
	.st2{fill-rule:evenodd;clip-rule:evenodd;fill:#1A171B;stroke:#1A171B;stroke-width:0.9483;stroke-miterlimit:2.6131;}
	.st3{fill-rule:evenodd;clip-rule:evenodd;fill:#FFFFFF;stroke:#FFFFFF;stroke-width:0.9483;stroke-miterlimit:2.6131;}
	.st4{fill-rule:evenodd;clip-rule:evenodd;fill:#FFFFFF;stroke:#1A171B;stroke-width:0.9483;stroke-miterlimit:2.6131;}
	.st5{fill-rule:evenodd;clip-rule:evenodd;fill:#FFFFFF;stroke:#1A171B;stroke-width:1.5326;stroke-miterlimit:2.6131;}
	.st6{fill-rule:evenodd;clip-rule:evenodd;fill:#E1001A;}
	.st7{fill-rule:evenodd;clip-rule:evenodd;fill:#FFFFFF;}
	.st8{fill-rule:evenodd;clip-rule:evenodd;fill:#005DA2;}
</style>
<g>
	<g>
		<polygon class="st0" points="703.2,628 256.8,628 256.8,838 703.2,838 703.2,628 		"/>
		<path class="st1" d="M300.4,643.3h359.4c16.7,0,30.4,13.7,30.4,30.4V793c0,16.7-13.7,30.4-30.4,30.4H300.4
			c-16.7,0-30.4-13.7-30.4-30.4V673.7C270,657,283.7,643.3,300.4,643.3L300.4,643.3z"/>
		<path class="st2" d="M490.6,737.7c-7.8-1.5-15.4,3.7-16.8,11.6c-1.5,7.8,3.7,15.4,11.6,16.8c7.8,1.5,15.4-3.7,16.8-11.6
			C503.6,746.7,498.4,739.1,490.6,737.7L490.6,737.7z"/>
		<path class="st2" d="M613,760.4c-7.8-1.4-15.4,3.8-16.8,11.6c-1.4,7.8,3.7,15.4,11.6,16.8c7.8,1.4,15.4-3.8,16.8-11.6
			C626.1,769.4,620.9,761.8,613,760.4L613,760.4z"/>
		<path class="st2" d="M468.7,752.2c0.7-8.6,3.8-13.1,9.8-16.8l-27.7-5l2.2,16.3L468.7,752.2L468.7,752.2z"/>
		<path class="st2" d="M591.8,775.1c0-7.5,2.3-12.7,9.2-17l-98.7-18.2c5.6,5.3,5.4,13,3.4,19.2L591.8,775.1L591.8,775.1z"/>
		<polygon class="st2" points="664.1,765 662,747.7 508.2,719.3 458.8,715.7 451.8,725.7 664.1,765 		"/>
		<polygon class="st2" points="515.8,715.9 538.5,700.2 566.1,705.3 562.6,724.5 567.2,725.4 570.8,706.2 598.7,711.4 605.7,732.5 
			622.8,735.7 607,707.8 537.8,695.3 509.4,714.8 515.8,715.9 		"/>
		<path class="st2" d="M654.9,783.7l8.3-14.1l-38.6-7c4.6,6,5.6,10,3.2,19.1L654.9,783.7L654.9,783.7z"/>
		<path class="st3" d="M611.8,767.1c-4.1-0.8-8.1,2-8.9,6.1c-0.8,4.1,2,8.1,6.1,8.9c4.1,0.8,8.1-2,8.9-6.1
			C618.7,771.8,615.9,767.8,611.8,767.1L611.8,767.1z"/>
		<path class="st3" d="M489.3,744.4c-4.1-0.8-8.1,2-8.9,6.1c-0.8,4.1,2,8.1,6.1,8.9c4.1,0.8,8.1-2,8.9-6.1
			C496.2,749.2,493.5,745.2,489.3,744.4L489.3,744.4z"/>
		<path class="st2" d="M295.7,774.6v-17.3h51.1c-5.4,2.9-9,10.7-8.5,17.3H295.7L295.7,774.6z"/>
		<path class="st2" d="M381.5,774.6c0-6.7-3.1-13.6-8.1-17.3c8.3,0,25.4,0,34.7,0v8.8L381.5,774.6L381.5,774.6z"/>
		<polygon class="st2" points="295.7,751.6 295.7,735.4 408.1,735.4 408.1,751.6 295.7,751.6 		"/>
		<path class="st2" d="M443.2,743.9L428,687.6l-30.7,43.2h-10.7l23.1-31.1l-35.7,31.1h-14.2l63-52.3c3.3-2.1,6.4-1.2,7.8,3.1
			l16.6,63.4L443.2,743.9L443.2,743.9z"/>
		<path class="st2" d="M359.8,757c9,0,16.4,7.4,16.4,16.4c0,9-7.4,16.4-16.4,16.4c-9,0-16.4-7.4-16.4-16.4
			C343.4,764.4,350.7,757,359.8,757L359.8,757z"/>
		<path class="st4" d="M359.8,766.5c3.8,0,6.9,3.1,6.9,6.9c0,3.8-3.1,6.9-6.9,6.9c-3.8,0-6.9-3.1-6.9-6.9
			C352.9,769.6,356,766.5,359.8,766.5L359.8,766.5z"/>
	</g>
</g>
<g>
	<g>
		<path class="st5" d="M480,118c138.4,0,251.3,112.9,251.3,251.3c0,138.4-112.9,251.3-251.3,251.3S228.7,507.7,228.7,369.3
			C228.7,230.9,341.6,118,480,118L480,118z"/>
		<path class="st6" d="M480.7,131.6c130.6,0,237.2,106.5,237.2,237.2c0,130.6-106.5,237.2-237.2,237.2
			c-130.6,0-237.2-106.5-237.2-237.2C243.5,238.2,350.1,131.6,480.7,131.6L480.7,131.6z"/>
		<path class="st7" d="M480.7,192.3c97.2,0,176.5,79.3,176.5,176.5c0,97.2-79.3,176.5-176.5,176.5c-97.2,0-176.5-79.3-176.5-176.5
			C304.2,271.6,383.5,192.3,480.7,192.3L480.7,192.3z"/>
		<path class="st8" d="M480.8,204.2c89.5,0,162.5,73,162.5,162.5c0,89.5-73,162.5-162.5,162.5c-89.5,0-162.5-73-162.5-162.5
			C318.3,277.2,391.3,204.2,480.8,204.2L480.8,204.2z"/>
		<polygon class="st7" points="388.5,222.2 625.3,459 571.1,513.2 334.4,276.4 388.5,222.2 		"/>
		<polygon class="st6" points="352.6,207.1 640.3,494.9 607.5,527.7 319.7,240 352.6,207.1 		"/>
	</g>
</g>
</svg>
