<?xml version="1.0" encoding="utf-8"?>
<!-- Generator: Adobe Illustrator 19.2.0, SVG Export Plug-In . SVG Version: 6.00 Build 0)  -->
<svg version="1.1" id="Livello_1" xmlns="http://www.w3.org/2000/svg" xmlns:xlink="http://www.w3.org/1999/xlink" x="0px" y="0px"
	 viewBox="0 0 960 960" style="enable-background:new 0 0 960 960;" xml:space="preserve">
<style type="text/css">
	.st0{fill:#FFFFFF;stroke:#1A171B;stroke-width:0.7331;stroke-miterlimit:2.6131;}
	.st1{fill:none;stroke:#1A171B;stroke-width:2.4438;stroke-miterlimit:2.6131;}
	.st2{fill-rule:evenodd;clip-rule:evenodd;fill:#1A171B;stroke:#1A171B;stroke-width:0.7331;stroke-miterlimit:2.6131;}
	.st3{fill-rule:evenodd;clip-rule:evenodd;fill:#FFFFFF;stroke:#1A171B;stroke-width:1.2483;stroke-miterlimit:2.6131;}
	.st4{fill-rule:evenodd;clip-rule:evenodd;fill:#005DA2;}
	.st5{fill-rule:evenodd;clip-rule:evenodd;fill:#E1001A;}
</style>
<g>
	<polygon class="st0" points="545.1,541.9 545.1,840 414.9,840 414.9,541.9 545.1,541.9 	"/>
	<path class="st1" d="M535.6,566.8v247.8c0,9.2-7.6,16.8-16.8,16.8H441c-9.2,0-16.8-7.6-16.8-16.8V566.8c0-9.2,7.6-16.8,16.8-16.8
		h77.9C528.1,550,535.6,557.6,535.6,566.8L535.6,566.8z"/>
	<polygon class="st2" points="437.8,626.5 479.5,586.9 521.2,627.1 521.2,644 487.5,612.6 487.5,668.2 471.7,668.2 471.7,612.6 
		437.8,645.5 437.8,626.5 	"/>
	<polygon class="st2" points="437.8,755.4 479.5,795 521.2,754.8 521.2,737.9 487.5,769.3 487.5,713.7 471.7,713.7 471.7,769.3 
		437.8,736.5 437.8,755.4 	"/>
</g>
<g>
	<g>
		<path class="st3" d="M480,121.3c112.7,0,204.7,92,204.7,204.7c0,112.7-92,204.7-204.7,204.7s-204.7-92-204.7-204.7
			C275.3,213.3,367.3,121.3,480,121.3L480,121.3z"/>
		<g>
			<path class="st4" d="M479.3,280.2l70.3-70.3c-20.3-12.4-44.1-19.6-69.6-19.6c-25.8,0-50,7.4-70.5,20.2L479.3,280.2z"/>
			<path class="st4" d="M594.1,254.5l-70.3,70.3l69.6,69.6c12.8-20.5,20.2-44.6,20.2-70.5C613.6,298.5,606.5,274.8,594.1,254.5z"/>
			<path class="st4" d="M479.3,369.3L410.6,438c20.2,12.4,44,19.5,69.4,19.5c25,0,48.4-6.9,68.5-19L479.3,369.3z"/>
			<path class="st4" d="M434.7,324.8l-69.4-69.4c-12,20.1-19,43.5-19,68.5c0,25.5,7.2,49.3,19.6,69.6L434.7,324.8z"/>
		</g>
		<path class="st5" d="M480,131.1c-107.4,0-194.9,87.6-194.9,194.9c0,107.4,87.6,194.9,194.9,194.9S674.9,433.4,674.9,326
			C674.9,218.6,587.4,131.1,480,131.1z M480.6,180.5c32.6,0,62.8,10.9,87.1,29.2L480,297.4l-87.2-87.2
			C417.2,191.6,447.6,180.5,480.6,180.5z M335.5,325.6c0-33.2,11.3-63.9,30.2-88.4l87.3,87.3l-88.3,88.3
			C346.4,388.4,335.5,358.2,335.5,325.6z M391.5,439.9l88.5-88.5l89.1,89.1c-24.5,18.9-55.2,30.2-88.4,30.2
			C447,470.7,416.1,459.2,391.5,439.9z M596,413.4l-89-89l88-88c19.3,24.6,30.7,55.6,30.7,89.1C625.7,358.5,614.6,389,596,413.4z"/>
	</g>
</g>
</svg>
