<?xml version="1.0" encoding="utf-8"?>
<!-- Generator: Adobe Illustrator 19.2.0, SVG Export Plug-In . SVG Version: 6.00 Build 0)  -->
<svg version="1.1" id="Livello_1" xmlns="http://www.w3.org/2000/svg" xmlns:xlink="http://www.w3.org/1999/xlink" x="0px" y="0px"
	 viewBox="0 0 960 960" style="enable-background:new 0 0 960 960;" xml:space="preserve">
<style type="text/css">
	.st0{fill:#FFFFFF;stroke:#1A171B;stroke-width:1.0966;stroke-miterlimit:2.6131;}
	.st1{fill:none;stroke:#1A171B;stroke-width:3.6554;stroke-miterlimit:2.6131;}
	.st2{fill-rule:evenodd;clip-rule:evenodd;fill:#1A171B;stroke:#1A171B;stroke-width:1.0966;stroke-miterlimit:2.6131;}
	.st3{fill-rule:evenodd;clip-rule:evenodd;fill:#FFFFFF;stroke:#1A171B;stroke-width:1.5326;stroke-miterlimit:2.6131;}
	.st4{fill-rule:evenodd;clip-rule:evenodd;fill:#005DA2;}
	.st5{fill-rule:evenodd;clip-rule:evenodd;fill:#E1001A;}
</style>
<g>
	<polygon class="st0" points="702.9,643.2 257.1,643.2 257.1,838 702.9,838 702.9,643.2 	"/>
	<path class="st1" d="M665.7,657.4H295c-13.8,0-25.1,11.3-25.1,25.1V799c0,13.8,11.3,25.1,25.1,25.1h370.7
		c13.8,0,25.1-11.3,25.1-25.1V682.5C690.8,668.7,679.5,657.4,665.7,657.4L665.7,657.4z"/>
	<polygon class="st2" points="576.4,803.7 635.7,741.3 575.5,678.9 550.3,678.9 597.2,729.3 514,729.3 514,753 597.2,753 548,803.7 
		576.4,803.7 	"/>
</g>
<g>
	<path class="st3" d="M480,118c138.4,0,251.3,112.9,251.3,251.3c0,138.4-112.9,251.3-251.3,251.3S228.7,507.7,228.7,369.3
		C228.7,230.9,341.6,118,480,118L480,118z"/>
	<g>
		<path class="st4" d="M479.1,313.1l86.3-86.3c-24.9-15.3-54.2-24.1-85.4-24.1c-31.7,0-61.4,9.1-86.5,24.8L479.1,313.1z"/>
		<path class="st4" d="M620.1,281.6l-86.3,86.3l85.4,85.4c15.7-25.1,24.8-54.8,24.8-86.5C644,335.6,635.3,306.4,620.1,281.6z"/>
		<path class="st4" d="M479.1,422.5l-84.3,84.3c24.9,15.2,54,24,85.2,24c30.7,0,59.5-8.5,84.1-23.3L479.1,422.5z"/>
		<path class="st4" d="M424.4,367.8l-85.2-85.2C324.5,307.3,316,336,316,366.7c0,31.3,8.8,60.5,24.1,85.4L424.4,367.8z"/>
	</g>
	<path class="st5" d="M480,130c-131.8,0-239.4,107.5-239.4,239.4c0,131.8,107.5,239.4,239.4,239.4s239.3-107.5,239.3-239.4
		C719.4,237.5,611.8,130,480,130z M480.7,190.7c40.1,0,77.1,13.4,107,35.8L480,334.2L372.9,227.2
		C402.9,204.3,440.3,190.7,480.7,190.7z M302.6,368.8c0-40.8,13.9-78.5,37.1-108.6l107.2,107.2L338.4,475.8
		C315.9,445.9,302.6,408.9,302.6,368.8z M371.3,509.2L480,400.5l109.3,109.3c-30.1,23.2-67.8,37.1-108.6,37.1
		C439.5,546.9,401.5,532.8,371.3,509.2z M622.4,476.6L513.1,367.4l108-108c23.6,30.2,37.8,68.2,37.8,109.4
		C658.9,409.3,645.3,446.7,622.4,476.6z"/>
</g>
</svg>
