<?xml version="1.0" encoding="utf-8"?>
<!-- Generator: Adobe Illustrator 19.2.0, SVG Export Plug-In . SVG Version: 6.00 Build 0)  -->
<svg version="1.1" id="Livello_1" xmlns="http://www.w3.org/2000/svg" xmlns:xlink="http://www.w3.org/1999/xlink" x="0px" y="0px"
	 viewBox="0 0 960 960" style="enable-background:new 0 0 960 960;" xml:space="preserve">
<style type="text/css">
	.st0{fill:#FFFFFF;stroke:#1A171B;stroke-width:0.9483;stroke-miterlimit:2.6131;}
	.st1{fill:none;stroke:#1A171B;stroke-width:6.3218;stroke-miterlimit:2.6131;}
	.st2{fill-rule:evenodd;clip-rule:evenodd;fill:#1A171B;stroke:#1A171B;stroke-width:1.5805;stroke-miterlimit:2.6131;}
	.st3{fill-rule:evenodd;clip-rule:evenodd;fill:#1A171B;stroke:#1A171B;stroke-width:0.9483;stroke-miterlimit:2.6131;}
	.st4{fill-rule:evenodd;clip-rule:evenodd;fill:#FFFFFF;stroke:#1A171B;stroke-width:1.5326;stroke-miterlimit:2.6131;}
	.st5{fill-rule:evenodd;clip-rule:evenodd;fill:#005DA2;}
	.st6{fill-rule:evenodd;clip-rule:evenodd;fill:#E1001A;}
</style>
<g>
	<polygon class="st0" points="703.2,628 256.8,628 256.8,838 703.2,838 703.2,628 	"/>
	<path class="st1" d="M300.4,643.3h359.4c16.7,0,30.4,13.7,30.4,30.4V793c0,16.7-13.7,30.4-30.4,30.4H300.4
		c-16.7,0-30.4-13.7-30.4-30.4V673.7C270,657,283.7,643.3,300.4,643.3L300.4,643.3z"/>
	<path class="st2" d="M435,769.4v-17h72.2c-8.8,4.5-9.7,10.4-10.9,17H435L435,769.4z"/>
	<path class="st2" d="M533.4,769.4c0-5.8-2.9-13.6-9.7-17h25.4c-6.2,2.3-11,11.2-11.2,17H533.4L533.4,769.4z"/>
	<path class="st2" d="M575.3,769.4c-0.2-6.8-4.3-14.6-9.9-17h52.3v8.9l-20.8,8.1H575.3L575.3,769.4z"/>
	<polygon class="st2" points="435,747.7 435.1,737.6 389.1,737.6 389.3,683.2 617.8,683.2 617.8,747.7 435,747.7 	"/>
	<path class="st2" d="M384.6,742.1v-37.2h-33.9l-11,30.4v34.1h5.6c1.1-26.1,36.3-24.7,37.2,0c2.2,0,4,0,5.4,0c2.2-26,36.1-25,37.1,0
		h5.6v-27.3H384.6z M380.3,729.7h-33.9l6.7-18.2h27.2V729.7z"/>
	<path class="st3" d="M406.5,753.4c-8.5,0-15.3,7.1-15.3,15.9c0,8.8,6.9,15.9,15.3,15.9c8.4,0,15.3-7.1,15.3-15.9
		C421.8,760.6,415,753.4,406.5,753.4z M406.5,776.1c-3.6,0-6.6-3.1-6.6-6.8c0-3.8,3-6.8,6.6-6.8c3.6,0,6.6,3.1,6.6,6.8
		C413.1,773.1,410.1,776.1,406.5,776.1z"/>
	<path class="st3" d="M514.8,753.4c-8.5,0-15.3,7.1-15.3,15.9c0,8.8,6.9,15.9,15.3,15.9c8.5,0,15.3-7.1,15.3-15.9
		C530.1,760.6,523.3,753.4,514.8,753.4z M514.8,776.1c-3.6,0-6.6-3.1-6.6-6.8c0-3.8,3-6.8,6.6-6.8c3.6,0,6.6,3.1,6.6,6.8
		C521.4,773.1,518.4,776.1,514.8,776.1z"/>
	<path class="st3" d="M556.4,753.4c-8.5,0-15.3,7.1-15.3,15.9c0,8.8,6.9,15.9,15.3,15.9s15.3-7.1,15.3-15.9
		C571.8,760.6,564.9,753.4,556.4,753.4z M556.4,776.1c-3.6,0-6.6-3.1-6.6-6.8c0-3.8,3-6.8,6.6-6.8c3.6,0,6.6,3.1,6.6,6.8
		C563,773.1,560,776.1,556.4,776.1z"/>
	<path class="st3" d="M363.8,753.4c-8.5,0-15.3,7.1-15.3,15.9c0,8.8,6.9,15.9,15.3,15.9c8.5,0,15.3-7.1,15.3-15.9
		C379.2,760.6,372.3,753.4,363.8,753.4z M363.8,776.1c-3.6,0-6.6-3.1-6.6-6.8c0-3.8,3-6.8,6.6-6.8c3.6,0,6.6,3.1,6.6,6.8
		C370.4,773.1,367.4,776.1,363.8,776.1z"/>
</g>
<g>
	<path class="st4" d="M480,118c138.4,0,251.3,112.9,251.3,251.3c0,138.4-112.9,251.3-251.3,251.3S228.7,507.7,228.7,369.3
		C228.7,230.9,341.6,118,480,118L480,118z"/>
	<g>
		<path class="st5" d="M479.1,313.1l86.3-86.3c-24.9-15.3-54.2-24.1-85.4-24.1c-31.7,0-61.4,9.1-86.5,24.8L479.1,313.1z"/>
		<path class="st5" d="M620.1,281.6l-86.3,86.3l85.4,85.4c15.7-25.1,24.8-54.8,24.8-86.5C644,335.6,635.3,306.4,620.1,281.6z"/>
		<path class="st5" d="M479.1,422.5l-84.3,84.3c24.9,15.2,54,24,85.2,24c30.7,0,59.5-8.5,84.1-23.3L479.1,422.5z"/>
		<path class="st5" d="M424.4,367.8l-85.2-85.2C324.5,307.3,316,336,316,366.7c0,31.3,8.8,60.5,24.1,85.4L424.4,367.8z"/>
	</g>
	<path class="st6" d="M480,130c-131.8,0-239.4,107.5-239.4,239.4c0,131.8,107.5,239.4,239.4,239.4s239.3-107.5,239.3-239.4
		C719.4,237.5,611.8,130,480,130z M480.7,190.7c40.1,0,77.1,13.4,107,35.8L480,334.2L372.9,227.2
		C402.9,204.3,440.3,190.7,480.7,190.7z M302.6,368.8c0-40.8,13.9-78.5,37.1-108.6l107.2,107.2L338.4,475.8
		C315.9,445.9,302.6,408.9,302.6,368.8z M371.3,509.2L480,400.5l109.3,109.3c-30.1,23.2-67.8,37.1-108.6,37.1
		C439.5,546.9,401.5,532.8,371.3,509.2z M622.4,476.6L513.1,367.4l108-108c23.6,30.2,37.8,68.2,37.8,109.4
		C658.9,409.3,645.3,446.7,622.4,476.6z"/>
</g>
</svg>
