<?xml version="1.0" encoding="utf-8"?>
<!-- Generator: Adobe Illustrator 19.2.0, SVG Export Plug-In . SVG Version: 6.00 Build 0)  -->
<svg version="1.1" id="Livello_1" xmlns="http://www.w3.org/2000/svg" xmlns:xlink="http://www.w3.org/1999/xlink" x="0px" y="0px"
	 viewBox="0 0 960 960" style="enable-background:new 0 0 960 960;" xml:space="preserve">
<style type="text/css">
	.st0{fill-rule:evenodd;clip-rule:evenodd;fill:#005EA7;}
	.st1{fill:none;stroke:#FFFFFF;stroke-width:9.8986;stroke-miterlimit:2.6131;}
	.st2{fill-rule:evenodd;clip-rule:evenodd;fill:#FFFFFF;stroke:#005EA7;stroke-width:0.9899;stroke-miterlimit:2.6131;}
	.st3{fill:#FFFFFF;stroke:#1A171B;stroke-width:0.9483;stroke-miterlimit:2.6131;}
	.st4{fill:none;stroke:#1A171B;stroke-width:6.3218;stroke-miterlimit:2.6131;}
	.st5{fill-rule:evenodd;clip-rule:evenodd;fill:#1A171B;stroke:#1A171B;stroke-width:1.5805;stroke-miterlimit:2.6131;}
	.st6{fill-rule:evenodd;clip-rule:evenodd;fill:#1A171B;stroke:#1A171B;stroke-width:0.9483;stroke-miterlimit:2.6131;}
	.st7{fill-rule:evenodd;clip-rule:evenodd;fill:#1A171B;}
</style>
<g>
	<g>
		<polygon class="st0" points="228.7,119.4 731.3,119.4 731.3,619.3 228.7,619.3 228.7,119.4 		"/>
		<path class="st1" d="M271.3,134.2h418.3c15.3,0,27.8,12.5,27.8,27.8v415.6c0,15.3-12.5,27.8-27.8,27.8H271.3
			c-15.3,0-27.8-12.5-27.8-27.8V162C243.5,146.7,256,134.2,271.3,134.2L271.3,134.2z"/>
		<path class="st2" d="M341.2,539.8V198.6h86.1c68.7,0,145.5,1.2,183.5,54.3c17.7,30,19.4,68.9,9.3,106.6
			c-9.7,35-54.4,69.8-97.1,69.2l-95.8-0.6v111.6H341.2L341.2,539.8z M427.6,357.1v-90.6H490c33.7,0,31.4,6.5,43.4,15.4
			c17,17.2,12.7,52.3-2,60.9c-9,5.6-9,14.3-41.4,14.3H427.6L427.6,357.1z"/>
	</g>
</g>
<polygon class="st3" points="703.2,628 256.8,628 256.8,838 703.2,838 703.2,628 "/>
<path class="st4" d="M300.4,643.3h359.4c16.7,0,30.4,13.7,30.4,30.4V793c0,16.7-13.7,30.4-30.4,30.4H300.4
	c-16.7,0-30.4-13.7-30.4-30.4V673.7C270,657,283.7,643.3,300.4,643.3L300.4,643.3z"/>
<path class="st5" d="M503,786.9v-29.4h80.4v29.4h-6.7c0-29.4-45.5-30.3-45.5,0H503L503,786.9z"/>
<path class="st5" d="M373.8,786.9v-29.4h81.4v29.4h-29.4c-0.2-30.5-45.7-30.5-45.5,0H373.8L373.8,786.9z"/>
<path class="st5" d="M327.8,721.9L330,751h9.1v-22.8h7.5v50.9h-7.5v-21.7h-8.4l2.5,29.4h34.1v-65.1L327.8,721.9z M360.8,779.2h-7.5
	v-50.9h7.5V779.2z"/>
<path class="st5" d="M461.9,721.7v65.1h34.5v-65.1H461.9z M475.7,779.2l-7.5,0.2v-51.1h7.5V779.2z M482.3,779.2v-50.9h7.7l0.2,50.8
	L482.3,779.2z"/>
<path class="st5" d="M628,757.4h-8.9v21.7h-8.8v-50.9l8.8,0.2V751h8.4l-2.5-29.2l-35.2-0.2v65.3h40.6L628,757.4z M604,779.2h-7.7
	V728h7.7V779.2z"/>
<path class="st5" d="M373.8,721.6V751h81.4v-29.4H373.8z M411.8,744.5h-31.5v-16.3h31.5V744.5z M448.7,744.5h-30.5v-16.3h30.5V744.5
	z"/>
<path class="st5" d="M583.2,721.6H503V751h80.4L583.2,721.6z M539.8,744.5h-30.3v-16.3h30.3V744.5z M576.9,744.5h-30.5v-16.3h30.5
	V744.5z"/>
<path class="st6" d="M403.2,768.3c10.2,0,18.4,8.3,18.4,18.4c0,10.2-8.3,18.4-18.4,18.4c-10.2,0-18.4-8.3-18.4-18.4
	C384.8,776.6,393.1,768.3,403.2,768.3L403.2,768.3z M403.2,779.6c4,0,7.2,3.2,7.2,7.2s-3.2,7.2-7.2,7.2c-4,0-7.2-3.2-7.2-7.2
	S399.3,779.6,403.2,779.6L403.2,779.6z"/>
<path class="st6" d="M554.1,779.6c4,0,7.2,3.2,7.2,7.2s-3.2,7.2-7.2,7.2s-7.2-3.2-7.2-7.2S550.1,779.6,554.1,779.6L554.1,779.6z
	 M554.1,768.3c10.2,0,18.4,8.3,18.4,18.4c0,10.2-8.3,18.4-18.4,18.4c-10.2,0-18.4-8.3-18.4-18.4
	C535.6,776.6,543.9,768.3,554.1,768.3L554.1,768.3z"/>
<path class="st7" d="M401.8,688.8l7.7,1.3c-1,2.8-2.5,4.9-4.7,6.3c-2.1,1.5-4.8,2.2-8,2.2c-5.1,0-8.8-1.6-11.2-4.9
	c-1.9-2.6-2.9-5.9-2.9-9.9c0-4.7,1.3-8.5,3.8-11.2c2.5-2.7,5.7-4,9.6-4c4.3,0,7.7,1.4,10.3,4.2c2.5,2.8,3.7,7.1,3.6,12.9h-19.3
	c0.1,2.2,0.7,4,1.9,5.2c1.2,1.3,2.7,1.9,4.4,1.9c1.2,0,2.2-0.3,3-1C400.8,691.3,401.4,690.2,401.8,688.8L401.8,688.8z M402.3,681.1
	c-0.1-2.2-0.6-3.9-1.7-5c-1.1-1.1-2.4-1.7-4-1.7c-1.7,0-3.1,0.6-4.2,1.8c-1.1,1.2-1.6,2.8-1.6,4.9H402.3L402.3,681.1z"/>
<path class="st7" d="M441.6,677.7l-7.6,1.3c-0.3-1.5-0.8-2.6-1.7-3.4c-0.9-0.8-2.1-1.1-3.5-1.1c-1.9,0-3.5,0.7-4.6,2
	c-1.1,1.3-1.7,3.5-1.7,6.5c0,3.4,0.6,5.8,1.7,7.2c1.2,1.4,2.7,2.1,4.7,2.1c1.5,0,2.7-0.4,3.6-1.2c0.9-0.8,1.6-2.2,2-4.2l7.6,1.3
	c-0.8,3.4-2.3,6-4.5,7.7c-2.2,1.7-5.2,2.6-9,2.6c-4.3,0-7.7-1.3-10.2-4c-2.5-2.6-3.8-6.3-3.8-11c0-4.7,1.3-8.4,3.8-11
	c2.5-2.6,6-4,10.3-4c3.5,0,6.4,0.8,8.5,2.3C439.1,672.4,440.7,674.7,441.6,677.7L441.6,677.7z"/>
<path class="st7" d="M472.8,677.7l-7.6,1.3c-0.3-1.5-0.8-2.6-1.7-3.4c-0.9-0.8-2.1-1.1-3.5-1.1c-1.9,0-3.5,0.7-4.6,2
	c-1.1,1.3-1.7,3.5-1.7,6.5c0,3.4,0.6,5.8,1.7,7.2c1.2,1.4,2.7,2.1,4.7,2.1c1.5,0,2.7-0.4,3.6-1.2c0.9-0.8,1.6-2.2,2-4.2l7.6,1.3
	c-0.8,3.4-2.3,6-4.5,7.7c-2.2,1.7-5.2,2.6-9,2.6c-4.3,0-7.7-1.3-10.2-4c-2.5-2.6-3.8-6.3-3.8-11c0-4.7,1.3-8.4,3.8-11
	c2.5-2.6,6-4,10.3-4c3.5,0,6.4,0.8,8.5,2.3C470.4,672.4,471.9,674.7,472.8,677.7L472.8,677.7z"/>
<path class="st7" d="M495.5,688.8l7.7,1.3c-1,2.8-2.5,4.9-4.7,6.3c-2.1,1.5-4.8,2.2-8,2.2c-5.1,0-8.8-1.6-11.2-4.9
	c-1.9-2.6-2.9-5.9-2.9-9.9c0-4.7,1.3-8.5,3.8-11.2c2.5-2.7,5.7-4,9.6-4c4.3,0,7.7,1.4,10.3,4.2c2.5,2.8,3.7,7.1,3.6,12.9h-19.3
	c0.1,2.2,0.7,4,1.9,5.2c1.2,1.3,2.7,1.9,4.4,1.9c1.2,0,2.2-0.3,3-1C494.4,691.3,495,690.2,495.5,688.8L495.5,688.8z M495.9,681.1
	c-0.1-2.2-0.6-3.9-1.7-5c-1.1-1.1-2.4-1.7-4-1.7c-1.7,0-3.1,0.6-4.2,1.8c-1.1,1.2-1.6,2.8-1.6,4.9H495.9L495.9,681.1z"/>
<path class="st7" d="M523.1,669.3v6h-5.3v11.5c0,2.3,0,3.7,0.1,4.1c0.1,0.4,0.3,0.7,0.7,1c0.4,0.2,0.8,0.4,1.3,0.4
	c0.7,0,1.8-0.2,3.1-0.7l0.7,5.9c-1.8,0.8-3.8,1.1-6.1,1.1c-1.4,0-2.6-0.2-3.8-0.7c-1.1-0.5-1.9-1.1-2.4-1.8c-0.5-0.7-0.9-1.7-1.1-3
	c-0.2-0.9-0.2-2.7-0.2-5.3v-12.5h-3.5v-6h3.5v-5.7l7.7-4.4v10.1H523.1L523.1,669.3z"/>
<path class="st7" d="M541.8,669.3v6h-5.3v11.5c0,2.3,0,3.7,0.2,4.1c0.1,0.4,0.3,0.7,0.7,1c0.4,0.2,0.8,0.4,1.3,0.4
	c0.7,0,1.7-0.2,3.1-0.7l0.7,5.9c-1.8,0.8-3.8,1.1-6.1,1.1c-1.4,0-2.6-0.2-3.8-0.7c-1.1-0.5-1.9-1.1-2.5-1.8c-0.5-0.7-0.9-1.7-1.1-3
	c-0.2-0.9-0.2-2.7-0.2-5.3v-12.5h-3.5v-6h3.5v-5.7l7.7-4.4v10.1H541.8L541.8,669.3z"/>
<path class="st7" d="M545.4,683.2c0-2.5,0.6-4.9,1.9-7.3c1.3-2.3,3-4.2,5.4-5.4c2.3-1.2,4.9-1.9,7.7-1.9c4.4,0,8,1.4,10.8,4.2
	c2.8,2.8,4.2,6.4,4.2,10.7c0,4.3-1.4,7.9-4.3,10.8c-2.8,2.9-6.4,4.3-10.7,4.3c-2.7,0-5.2-0.6-7.6-1.8c-2.4-1.2-4.3-2.9-5.5-5.2
	C546,689.3,545.4,686.5,545.4,683.2L545.4,683.2z M553.3,683.6c0,2.8,0.7,5,2.1,6.5c1.4,1.5,3.1,2.3,5.1,2.3c2,0,3.7-0.8,5.1-2.3
	c1.4-1.5,2-3.7,2-6.6c0-2.8-0.7-5-2-6.5c-1.4-1.5-3-2.3-5.1-2.3c-2,0-3.7,0.8-5.1,2.3C554,678.6,553.3,680.7,553.3,683.6
	L553.3,683.6z"/>
</svg>
