<?xml version="1.0" encoding="utf-8"?>
<!-- Generator: Adobe Illustrator 19.2.0, SVG Export Plug-In . SVG Version: 6.00 Build 0)  -->
<svg version="1.1" id="Livello_1" xmlns="http://www.w3.org/2000/svg" xmlns:xlink="http://www.w3.org/1999/xlink" x="0px" y="0px"
	 viewBox="0 0 960 960" style="enable-background:new 0 0 960 960;" xml:space="preserve">
<style type="text/css">
	.st0{fill:#FFFFFF;stroke:#1A171B;stroke-width:0.7138;stroke-miterlimit:2.6131;}
	.st1{fill:none;stroke:#1A171B;stroke-width:4.7586;stroke-miterlimit:2.6131;}
	.st2{fill-rule:evenodd;clip-rule:evenodd;fill:#1A171B;}
	.st3{fill-rule:evenodd;clip-rule:evenodd;fill:#FFFFFF;stroke:#1A171B;stroke-width:1.0244;stroke-miterlimit:2.6131;}
	.st4{fill-rule:evenodd;clip-rule:evenodd;fill:#E1001A;}
	.st5{fill-rule:evenodd;clip-rule:evenodd;fill:#FFFFFF;}
	.st6{fill-rule:evenodd;clip-rule:evenodd;fill:#1A171B;stroke:#1A171B;stroke-width:2.0303;stroke-miterlimit:2.6131;}
	.st7{fill-rule:evenodd;clip-rule:evenodd;fill:#1A171B;stroke:#1A171B;stroke-width:0.7613;stroke-miterlimit:2.6131;}
</style>
<g>
	<g>
		<path d="M764.3,343.7h-17l-6.8-17.6h-30.9l-6.4,17.6h-16.6l30.1-77.3h16.5L764.3,343.7z M735.5,313.1l-10.7-28.7l-10.4,28.7H735.5
			z"/>
	</g>
	<g>
		<path d="M694.8,634.9h30.9c6.1,0,10.7,0.3,13.7,0.8s5.7,1.6,8.1,3.2s4.4,3.8,5.9,6.5s2.4,5.7,2.4,9c0,3.6-1,6.9-2.9,10
			s-4.6,5.3-7.9,6.8c4.7,1.4,8.3,3.7,10.9,7s3.8,7.2,3.8,11.7c0,3.5-0.8,6.9-2.5,10.3s-3.9,6-6.7,8c-2.8,2-6.3,3.2-10.5,3.7
			c-2.6,0.3-8.9,0.5-18.8,0.5h-26.3V634.9z M710.4,647.8v17.9h10.2c6.1,0,9.9-0.1,11.3-0.3c2.7-0.3,4.8-1.2,6.3-2.8s2.3-3.5,2.3-6
			c0-2.4-0.7-4.3-2-5.8s-3.3-2.4-5.9-2.7c-1.5-0.2-6-0.3-13.3-0.3H710.4z M710.4,678.5v20.7h14.4c5.6,0,9.2-0.2,10.7-0.5
			c2.3-0.4,4.2-1.5,5.7-3.1c1.5-1.6,2.2-3.8,2.2-6.6c0-2.3-0.6-4.3-1.7-5.9c-1.1-1.6-2.8-2.8-4.9-3.5c-2.1-0.7-6.7-1.1-13.8-1.1
			H710.4z"/>
	</g>
</g>
<polygon class="st0" points="551.1,207 215.2,207 215.2,365.1 551.1,365.1 551.1,207 "/>
<path class="st1" d="M247.9,218.6h270.5c12.6,0,22.9,10.3,22.9,22.9v89.8c0,12.6-10.3,22.9-22.9,22.9H247.9
	c-12.6,0-22.9-10.3-22.9-22.9v-89.8C225.1,228.8,235.4,218.6,247.9,218.6L247.9,218.6z"/>
<path class="st2" d="M409.8,315.7H401v-44.4c-3.2,3.9-7.2,7.1-11.4,8.8v-10.6c2.1-0.9,4.7-2.8,7.3-5.6c2.7-2.8,4.7-6.2,5.7-9.9h7.2
	V315.7L409.8,315.7z"/>
<path class="st2" d="M295.1,304.6l5.9-1c0.1,2.1,0.6,3.8,1.4,4.7c0.7,1,1.8,1.6,2.9,1.6c1.1,0,2.2-0.6,3-1.8c0.8-1.2,1.3-3,1.3-5.2
	c0-2.1-0.4-3.8-1.1-5c-0.7-1.2-1.7-1.8-2.8-1.8c-0.6,0-1.6,0.2-2.5,0.6l0.6-6.4c1.5,0,2.8-0.4,3.5-1.3c0.8-1,1.3-2.3,1.3-4
	c0-1.3-0.4-2.5-0.9-3.3c-0.6-0.9-1.5-1.3-2.4-1.3c-0.9,0-1.8,0.5-2.5,1.5c-0.6,1-1.1,2.4-1.2,4.1l-5.7-1.2c0.4-2.5,0.9-4.7,1.7-6.2
	c0.7-1.5,1.9-2.8,3.2-3.6c1.4-0.8,2.9-1.3,4.6-1.3c2.9,0,5.3,1.3,7.1,3.9c1.5,1.9,2.2,4.4,2.2,6.9c0,3.6-1.6,6.7-4.6,8.9
	c1.8,0.5,3.3,1.7,4.4,3.4c1.1,1.8,1.7,4.1,1.7,6.7c0,3.6-1,6.9-3,9.5c-2,2.7-4.6,4-7.6,4c-2.8,0-5.2-1.1-7.1-3.3
	c-1.8-2.2-3-5.2-3.2-8.7V304.6L295.1,304.6z"/>
<path class="st2" d="M252,266v-10.9h30.4v8.5c-2.5,3.2-5.2,8.1-7.7,14.1c-2.7,6.2-4.7,12.9-6,19.6c-1.3,6.9-2,13.2-2,18.5h-8.8
	c0-8.5,1.5-17.1,4-25.9c2.5-8.8,6-16.7,10.1-23.8H252L252,266z"/>
<path class="st2" d="M511,278c-1.6-2.9-4.1-4.5-7.2-4.5c-3.1,0-5.6,1.5-7.3,4.4c-2,3.4-3.1,9.2-3.1,17.2c0,8,1,13.7,2.8,16.9
	c1.8,3.2,4.5,4.7,7.6,4.7c3.1,0,5.6-1.5,7.2-4.3c2.1-3.4,3.2-9.2,3.2-17.2C514.2,287.2,513.1,281.4,511,278z M507.2,305.7
	c-0.4,1.6-0.9,2.8-1.5,3.4c-0.6,0.5-1.2,0.8-1.9,0.8c-0.7,0-1.6-0.4-2.1-1c-0.6-0.5-1-1.8-1.4-3.6c-0.4-1.7-0.5-5.2-0.5-10.1
	c0-4.9,0.3-8.5,0.6-10.6c0.3-1.6,0.8-2.8,1.4-3.4c0.6-0.6,1.3-1,2-1c0.7,0,1.5,0.4,2,1c0.5,0.6,1.1,1.9,1.5,3.8
	c0.4,1.8,0.5,5.3,0.5,10.2C507.8,300.1,507.5,303.8,507.2,305.7z"/>
<path class="st2" d="M486.3,278c-1.6-2.9-4.1-4.5-7.2-4.5c-3.1,0-5.6,1.5-7.3,4.4c-2,3.4-3.1,9.2-3.1,17.2c0,8,1,13.7,2.8,16.9
	c1.8,3.2,4.5,4.7,7.6,4.7c3.1,0,5.6-1.5,7.2-4.3c2.1-3.4,3.2-9.2,3.2-17.2C489.5,287.2,488.4,281.4,486.3,278z M482.4,305.7
	c-0.4,1.6-0.9,2.8-1.5,3.4c-0.5,0.5-1.2,0.8-1.9,0.8c-0.7,0-1.6-0.4-2.1-1c-0.6-0.5-1-1.8-1.4-3.6c-0.4-1.7-0.6-5.2-0.6-10.1
	c0-4.9,0.3-8.5,0.6-10.6c0.3-1.6,0.8-2.8,1.4-3.4c0.6-0.6,1.3-1,2-1c0.7,0,1.5,0.4,2,1c0.5,0.6,1.1,1.9,1.5,3.8
	c0.4,1.8,0.5,5.3,0.5,10.2C483,300.1,482.8,303.8,482.4,305.7z"/>
<path class="st2" d="M449,261.2c-2.9-4.8-6.9-7.2-11.6-7.2c-4.3,0-8,1.9-10.7,5.8c-2.7,3.7-4.1,8.8-4.1,15c0,6,1.3,10.9,4,14.6
	c2.5,3.5,5.7,5.5,9.3,5.5c3.3,0,6.3-1.8,8.4-5.1c-0.3,7.1-1.2,11.8-2.4,13.9c-1.2,2.1-2.8,3.2-4.7,3.2c-1.3,0-2.7-0.5-3.5-1.6
	c-0.8-1.1-1.5-2.8-1.6-5.1l-8.5,1.2c0.5,5.1,2.1,9.2,4.3,11.6c2.1,2.5,5.2,3.7,8.7,3.7c4.9,0,9.1-2.5,12.2-7.4
	c3.1-4.9,4.7-13,4.7-24.3C453.5,274.1,451.9,266,449,261.2z M443.6,276c0,3.3-0.7,6-1.9,7.8c-1.1,1.8-2.7,2.6-4.3,2.6
	c-1.7,0-3.3-1.1-4.4-2.8c-1.1-1.8-1.7-4.8-1.7-8.6c0-3.9,0.5-6.7,1.6-8.5c1.1-1.8,2.4-2.6,4-2.6c1.7,0,3.3,1.1,4.7,3.2
	c1.3,2.1,2,5.1,2,8.8V276z"/>
<polygon class="st2" points="360.7,304.1 360.7,296.7 375.3,296.7 375.3,304.1 360.7,304.1 "/>
<path class="st2" d="M337.6,278c-1.6-2.9-4.1-4.5-7.2-4.5c-3.1,0-5.6,1.5-7.3,4.4c-2,3.4-3.1,9.2-3.1,17.2c0,8,1,13.7,2.8,16.9
	c1.8,3.2,4.5,4.7,7.6,4.7c3.1,0,5.6-1.5,7.2-4.3c2.1-3.4,3.2-9.2,3.2-17.2C340.8,287.2,339.7,281.4,337.6,278z M333.7,305.7
	c-0.4,1.6-0.9,2.8-1.5,3.4c-0.6,0.5-1.2,0.8-1.9,0.8c-0.7,0-1.6-0.4-2.1-1c-0.5-0.5-1-1.8-1.4-3.6c-0.4-1.7-0.6-5.2-0.6-10.1
	c0-4.9,0.3-8.5,0.6-10.6c0.3-1.6,0.8-2.8,1.4-3.4c0.6-0.6,1.3-1,2-1c0.7,0,1.5,0.4,2,1c0.6,0.6,1.1,1.9,1.5,3.8
	c0.4,1.8,0.6,5.3,0.6,10.2C334.4,300.1,334.1,303.8,333.7,305.7z"/>
<path class="st2" d="M455,317.4c-0.7-0.2-1.3-0.6-1.7-1.2c-0.4-0.6-0.6-1.3-0.6-2.1c0-1.1,0.4-2,1.2-2.8c0.8-0.8,1.8-1.1,3-1.1
	c1.4,0,2.4,0.4,3.2,1.3c0.8,0.8,1.2,2,1.2,3.4c0,2.3-0.8,4.3-2.5,6c-1.7,1.7-3.8,2.8-6.4,3.2v-1.3c0.9-0.9,1.5-1.7,1.9-2.6
	c0.4-0.8,0.6-1.7,0.6-2.5V317.4L455,317.4z"/>
<path class="st2" d="M279.9,317.4c-0.7-0.2-1.3-0.6-1.7-1.2c-0.4-0.6-0.6-1.3-0.6-2.1c0-1.1,0.4-2,1.2-2.8c0.8-0.8,1.8-1.1,3-1.1
	c1.4,0,2.4,0.4,3.2,1.3c0.8,0.8,1.2,2,1.2,3.4c0,2.3-0.8,4.3-2.5,6c-1.7,1.7-3.8,2.8-6.4,3.2v-1.3c0.9-0.9,1.5-1.7,1.9-2.6
	c0.4-0.8,0.6-1.7,0.6-2.5V317.4L279.9,317.4z"/>
<g>
	<g>
		<path class="st3" d="M383.1,504c92.5,0,168,75.5,168,168c0,92.5-75.5,168-168,168s-168-75.5-168-168
			C215.2,579.5,290.6,504,383.1,504L383.1,504z"/>
		<path class="st4" d="M383.6,513.1c87.3,0,158.5,71.2,158.5,158.5c0,87.3-71.2,158.5-158.5,158.5c-87.3,0-158.5-71.2-158.5-158.5
			C225.1,584.4,296.3,513.1,383.6,513.1L383.6,513.1z"/>
		<path class="st5" d="M383.6,553.7c65,0,118,53,118,118s-53,118-118,118c-65,0-118-53-118-118S318.6,553.7,383.6,553.7L383.6,553.7
			z"/>
		<path class="st6" d="M331.7,748l41.2-86.8l-5-19l-19.3,21.7c-6.5,9-19-1.1-11.7-9.6l34.9-40.8c1.9-1.6,3-2.6,6.5-4.3l13.9-5
			c1.8,0.1,3.4-0.1,5.1,1.6l28.8,29.9c1.7,1.8,2.3,4.7,2.3,6.3c0,8.9,0,13.6,0,22.5c0,7.9-13.9,7.9-13.9,0l-0.8-19.5l-11.2-11.4
			l-3.8,26.1L431,746c4.3,12.7-12.8,17.9-16.4,5.8l-28.5-77.4l-37.7,78.9C343,763.9,329.1,756,331.7,748L331.7,748z"/>
		<path class="st7" d="M382.4,574.3c7.1,0,13,5.8,13,13c0,7.1-5.8,13-13,13c-7.1,0-13-5.8-13-13
			C369.4,580.2,375.3,574.3,382.4,574.3L382.4,574.3z"/>
	</g>
</g>
</svg>
