<?xml version="1.0" encoding="utf-8"?>
<!-- Generator: Adobe Illustrator 19.2.0, SVG Export Plug-In . SVG Version: 6.00 Build 0)  -->
<svg version="1.1" id="Livello_1" xmlns="http://www.w3.org/2000/svg" xmlns:xlink="http://www.w3.org/1999/xlink" x="0px" y="0px"
	 viewBox="0 0 960 960" style="enable-background:new 0 0 960 960;" xml:space="preserve">
<style type="text/css">
	.st0{fill-rule:evenodd;clip-rule:evenodd;fill:#ED7F00;}
	.st1{fill:none;stroke:#FFFFFF;stroke-width:9.8986;stroke-miterlimit:2.6131;}
	.st2{fill-rule:evenodd;clip-rule:evenodd;fill:#1A171B;}
	.st3{fill:#FFFFFF;stroke:#1A171B;stroke-width:0.9483;stroke-miterlimit:2.6131;}
	.st4{fill:none;stroke:#1A171B;stroke-width:6.3218;stroke-miterlimit:2.6131;}
</style>
<g>
	<g>
		<polygon class="st0" points="228.7,119.4 731.3,119.4 731.3,619.3 228.7,619.3 228.7,119.4 		"/>
		<path class="st1" d="M271.3,134.2h418.3c15.3,0,27.8,12.5,27.8,27.8v415.6c0,15.3-12.5,27.8-27.8,27.8H271.3
			c-15.3,0-27.8-12.5-27.8-27.8V162C243.5,146.7,256,134.2,271.3,134.2L271.3,134.2z"/>
		<path class="st2" d="M404.5,508.7l-7-62.9l-2.1-21.2l5.6-17.2l-4.3-2.4l11.8-32.8l-23.9-36.8l-25.8,39.8
			c-8.1,12.9-30.6-3-19.4-15.9l43.3-72.3c14.5-17.7,20.2-8.9,32.3-10.2l76.9,30.4c13.7,6.2,5.6,30.1-9.4,24.7l-40.3-16.4l10.5,39
			l26.9,34.7l-3.5,3.8l9.9,10.2l35.2-24.2c13.2-8.3,27.7,10.2,15.1,20.2l-48.1,31.4c-4.8,3.8-9.7,3.5-14.5-1.1l-17.7-19.1l-3.5,3.2
			L440,398.8l-8.1,19.1l-4.8-2.4l-4,11.6c-1.6,6.7-1.3,10.8,1.1,20.4L430,506C430.3,520.6,406.7,523.8,404.5,508.7L404.5,508.7z"/>
		<path class="st2" d="M582.6,250.2c13.8,0,25.1,11.3,25.1,25.1c0,3.1-0.6,6.9-1.9,10.1c2.5,1.9,5,3.1,7.5,5l1.9-10.1l15.1,8.8
			l-8.2,6.3l16.3,9.4c4.4,3.1,1.3,8.8-3.1,7.5l-17.6-10.1l-0.6,11.3l-16.3-8.8l8.2-7.5c-3.1-1.3-5.7-2.5-8.2-3.8
			c-4.4,5-10.7,8.2-18.2,8.2c-15.1,0-26.4-11.3-26.4-26.4C556.2,261.6,567.5,250.2,582.6,250.2L582.6,250.2z"/>
		<path class="st2" d="M562,511.7l-12.1-56.2l1.6-11l9.4-34.1l-11,0.5l17.7-35.7l-7.5-28c-8.6,3-12.4,8.6-24.2,11.3l-11-3
			l-17.5-19.1c-9.9-8.6,1.9-23.4,10.8-14.8l16.4,16.1c15.3-7,25.8-18,45.4-26.9c7,0.5,13.7-1.9,22,1.9l34.9,14.8l12.6,29.8
			c5.1,11.8-11.8,16.1-16.7,4.6l-6.4-15.3l-12.6-6.4l-8.6,31.2l17.5,32.8l-8.6,1.9l7.3,17.7l43-13.7c12.4-4.8,19.1,11.6,7,17.7
			l-54.8,18.8l-12.4-6.7l-10.5-31.2l-10.5,0.3l-12.1,42.2l10.5,54.8C583.2,518.9,566.6,522.7,562,511.7L562,511.7z"/>
		<polygon class="st2" points="633.3,410 632,379.4 665.6,368.1 683.6,391.2 633.3,410 		"/>
		<path class="st2" d="M312.2,366.2l60,42.5c1.7,1.2,2.1,3.6,0.9,5.3l-30.5,43.1c-1.2,1.7-3.6,2.1-5.3,0.9l-60-42.5
			c-1.7-1.2-2.1-3.6-0.9-5.3l30.5-43.1C308.2,365.4,310.5,365,312.2,366.2L312.2,366.2z"/>
		<path class="st2" d="M366.4,222c16.3,0,29.5,13.3,29.5,29.5S382.6,281,366.4,281s-29.5-13.3-29.5-29.5S350.1,222,366.4,222
			L366.4,222z"/>
	</g>
</g>
<polygon class="st3" points="703.2,628 256.8,628 256.8,838 703.2,838 703.2,628 "/>
<path class="st4" d="M300.4,643.3h359.4c16.7,0,30.4,13.7,30.4,30.4V793c0,16.7-13.7,30.4-30.4,30.4H300.4
	c-16.7,0-30.4-13.7-30.4-30.4V673.7C270,657,283.7,643.3,300.4,643.3L300.4,643.3z"/>
<path class="st2" d="M515.5,772.4h-11.7v-59c-4.2,5.2-9.5,9.4-15.2,11.7v-14c2.8-1.2,6.2-3.7,9.7-7.5c3.5-3.7,6.2-8.2,7.6-13.1h9.5
	V772.4L515.5,772.4z"/>
<path class="st2" d="M363,757.6l7.8-1.3c0.1,2.7,0.9,5,1.8,6.3c1,1.3,2.4,2.1,3.9,2.1c1.5,0,2.9-0.8,4-2.4c1.1-1.6,1.7-4,1.7-6.9
	c0-2.7-0.5-5-1.5-6.6c-1-1.6-2.3-2.4-3.8-2.4c-0.9,0-2.1,0.3-3.3,0.8l0.7-8.6c2,0,3.7-0.5,4.6-1.8c1.1-1.3,1.7-3.1,1.7-5.3
	c0-1.8-0.5-3.4-1.2-4.4c-0.7-1.1-2-1.8-3.2-1.8c-1.2,0-2.4,0.6-3.3,1.9c-0.9,1.3-1.5,3.2-1.6,5.5l-7.6-1.6c0.5-3.4,1.2-6.3,2.2-8.2
	c1-1.9,2.6-3.7,4.3-4.8c1.8-1.1,3.9-1.8,6.1-1.8c3.9,0,7.1,1.8,9.4,5.2c2,2.6,2.9,5.8,2.9,9.2c0,4.8-2.1,8.9-6.1,11.8
	c2.4,0.6,4.4,2.3,5.8,4.5c1.5,2.4,2.2,5.5,2.2,8.9c0,4.8-1.3,9.2-4,12.6c-2.7,3.5-6.1,5.3-10.1,5.3c-3.7,0-6.9-1.5-9.4-4.4
	c-2.4-2.9-4-6.9-4.3-11.6V757.6L363,757.6z"/>
<path class="st2" d="M305.7,706.3v-14.5H346v11.2c-3.4,4.2-6.9,10.8-10.3,18.7c-3.5,8.2-6.2,17.1-8,26c-1.8,9.1-2.7,17.6-2.7,24.6
	h-11.7c0-11.2,1.9-22.7,5.3-34.4c3.4-11.7,8-22.2,13.4-31.6H305.7L305.7,706.3z"/>
<path class="st2" d="M649.9,722.3c-2.2-3.9-5.5-6-9.6-6c-4.1,0-7.4,1.9-9.7,5.8c-2.7,4.5-4.1,12.3-4.1,22.9
	c0,10.6,1.3,18.2,3.8,22.4c2.4,4.2,6,6.3,10.1,6.3c4.1,0,7.4-1.9,9.6-5.7c2.8-4.5,4.3-12.3,4.3-22.9
	C654.2,734.6,652.7,726.8,649.9,722.3z M644.8,759.1c-0.5,2.1-1.2,3.7-2,4.5c-0.7,0.6-1.6,1.1-2.6,1.1c-1,0-2.1-0.5-2.8-1.3
	c-0.7-0.6-1.3-2.4-1.8-4.8c-0.5-2.3-0.7-6.9-0.7-13.4c0-6.5,0.4-11.3,0.9-14c0.4-2.1,1.1-3.7,1.8-4.5c0.7-0.8,1.7-1.3,2.7-1.3
	c1,0,1.9,0.5,2.7,1.3c0.7,0.8,1.5,2.6,2,5c0.5,2.4,0.7,7.1,0.7,13.6C645.6,751.7,645.3,756.5,644.8,759.1z"/>
<path class="st2" d="M617,722.3c-2.2-3.9-5.5-6-9.6-6c-4.1,0-7.4,1.9-9.8,5.8c-2.7,4.5-4.1,12.3-4.1,22.9c0,10.6,1.3,18.2,3.8,22.4
	c2.4,4.2,6,6.3,10.1,6.3c4.1,0,7.4-1.9,9.6-5.7c2.8-4.5,4.3-12.3,4.3-22.9C621.3,734.6,619.8,726.8,617,722.3z M611.9,759.1
	c-0.5,2.1-1.2,3.7-2,4.5c-0.7,0.6-1.6,1.1-2.6,1.1c-1,0-2.1-0.5-2.8-1.3c-0.7-0.6-1.3-2.4-1.8-4.8c-0.5-2.3-0.7-6.9-0.7-13.4
	c0-6.5,0.4-11.3,0.9-14c0.4-2.1,1.1-3.7,1.8-4.5c0.7-0.8,1.7-1.3,2.7-1.3c1,0,1.9,0.5,2.7,1.3c0.7,0.8,1.5,2.6,2,5
	c0.5,2.4,0.7,7.1,0.7,13.6C612.7,751.7,612.4,756.5,611.9,759.1z"/>
<path class="st2" d="M567.4,700c-3.9-6.3-9.2-9.6-15.4-9.6c-5.7,0-10.6,2.6-14.2,7.7c-3.5,4.9-5.5,11.7-5.5,19.9
	c0,8,1.8,14.5,5.3,19.4c3.4,4.7,7.6,7.3,12.4,7.3c4.4,0,8.3-2.3,11.1-6.8c-0.4,9.4-1.6,15.7-3.2,18.5c-1.6,2.8-3.7,4.2-6.2,4.2
	c-1.8,0-3.5-0.7-4.6-2.1c-1.1-1.4-1.9-3.7-2.1-6.8l-11.3,1.6c0.7,6.8,2.8,12.2,5.7,15.5c2.8,3.3,6.9,4.9,11.5,4.9
	c6.5,0,12-3.3,16.3-9.8c4.1-6.6,6.2-17.3,6.2-32.3C573.5,717.1,571.3,706.3,567.4,700z M560.4,719.7c0,4.5-0.9,8-2.5,10.3
	c-1.4,2.3-3.5,3.5-5.7,3.5c-2.3,0-4.4-1.4-5.8-3.7c-1.4-2.3-2.3-6.3-2.3-11.5c0-5.1,0.7-8.9,2.1-11.2c1.4-2.3,3.2-3.5,5.3-3.5
	c2.3,0,4.4,1.4,6.2,4.2c1.8,2.8,2.7,6.8,2.7,11.7V719.7z"/>
<polygon class="st2" points="450.2,756.9 450.2,747.1 469.6,747.1 469.6,756.9 450.2,756.9 "/>
<path class="st2" d="M419.5,722.3c-2.2-3.9-5.5-6-9.6-6c-4.1,0-7.4,1.9-9.7,5.8c-2.7,4.5-4.1,12.3-4.1,22.9
	c0,10.6,1.3,18.2,3.8,22.4c2.4,4.2,6,6.3,10.1,6.3c4.1,0,7.4-1.9,9.6-5.7c2.8-4.5,4.3-12.3,4.3-22.9
	C423.7,734.6,422.3,726.8,419.5,722.3z M414.4,759.1c-0.5,2.1-1.2,3.7-2,4.5c-0.7,0.6-1.6,1.1-2.6,1.1c-1,0-2.1-0.5-2.8-1.3
	c-0.7-0.6-1.3-2.4-1.8-4.8c-0.5-2.3-0.7-6.9-0.7-13.4c0-6.5,0.4-11.3,0.9-14c0.4-2.1,1.1-3.7,1.8-4.5c0.7-0.8,1.7-1.3,2.7-1.3
	c1,0,2,0.5,2.7,1.3c0.7,0.8,1.5,2.6,2,5c0.5,2.4,0.7,7.1,0.7,13.6C415.2,751.7,414.8,756.5,414.4,759.1z"/>
<path class="st2" d="M575.5,774.6c-1-0.3-1.7-0.8-2.3-1.6c-0.5-0.8-0.8-1.7-0.8-2.8c0-1.4,0.5-2.6,1.6-3.7c1.1-1,2.4-1.5,3.9-1.5
	c1.8,0,3.2,0.6,4.3,1.7c1.1,1.1,1.6,2.6,1.6,4.6c0,3-1.1,5.7-3.3,8c-2.2,2.3-5,3.7-8.5,4.2v-1.7c1.1-1.1,2-2.3,2.5-3.4
	c0.6-1.1,0.8-2.2,0.8-3.4V774.6L575.5,774.6z"/>
<path class="st2" d="M342.9,774.6c-1-0.3-1.7-0.8-2.2-1.6c-0.6-0.8-0.8-1.7-0.8-2.8c0-1.4,0.5-2.6,1.6-3.7c1.1-1,2.4-1.5,3.9-1.5
	c1.8,0,3.2,0.6,4.3,1.7c1.1,1.1,1.6,2.6,1.6,4.6c0,3-1.1,5.7-3.3,8c-2.2,2.3-5,3.7-8.5,4.2v-1.7c1.1-1.1,2-2.3,2.5-3.4
	c0.6-1.1,0.8-2.2,0.8-3.4V774.6L342.9,774.6z"/>
</svg>
