<?xml version="1.0" encoding="utf-8"?>
<!-- Generator: Adobe Illustrator 19.2.0, SVG Export Plug-In . SVG Version: 6.00 Build 0)  -->
<svg version="1.1" id="Livello_1" xmlns="http://www.w3.org/2000/svg" xmlns:xlink="http://www.w3.org/1999/xlink" x="0px" y="0px"
	 viewBox="0 0 960 960" style="enable-background:new 0 0 960 960;" xml:space="preserve">
<style type="text/css">
	.st0{fill:#FFFFFF;stroke:#1A171B;stroke-width:0.7331;stroke-miterlimit:2.6131;}
	.st1{fill:none;stroke:#1A171B;stroke-width:2.4438;stroke-miterlimit:2.6131;}
	.st2{fill-rule:evenodd;clip-rule:evenodd;fill:#1A171B;stroke:#1A171B;stroke-width:0.7331;stroke-miterlimit:2.6131;}
	.st3{fill-rule:evenodd;clip-rule:evenodd;fill:#FFFFFF;stroke:#1A171B;stroke-width:0.9239;stroke-miterlimit:2.6131;}
	.st4{fill-rule:evenodd;clip-rule:evenodd;fill:#E1001A;}
	.st5{fill-rule:evenodd;clip-rule:evenodd;fill:#FFEC00;stroke:#E1001A;stroke-width:3.0797;stroke-miterlimit:2.6131;}
	.st6{fill-rule:evenodd;clip-rule:evenodd;fill:#1A171B;}
</style>
<g>
	<g>
		<polygon class="st0" points="545.1,840 545.1,541.9 414.9,541.9 414.9,840 545.1,840 		"/>
		<path class="st1" d="M535.6,815.1V567.3c0-9.2-7.6-16.8-16.8-16.8H441c-9.2,0-16.8,7.6-16.8,16.8v247.8c0,9.2,7.6,16.8,16.8,16.8
			h77.9C528.1,831.9,535.6,824.4,535.6,815.1L535.6,815.1z"/>
		<polygon class="st2" points="437.8,755.4 479.5,795 521.2,754.8 521.2,737.9 487.5,769.3 487.5,713.7 471.7,713.7 471.7,769.3 
			437.8,736.5 437.8,755.4 		"/>
	</g>
</g>
<g>
	<g>
		<path class="st3" d="M679.5,529.3c21.5-0.9,34.4-16.9,31-38.3l-0.8-3.3l-1.3-3.5l-1.5-3.4L509.9,139c-9.9-15.2-23.8-23.8-42-16.2
			c-6.9,3.8-11.9,9.2-15.9,15.7L255.3,479.2c-7.1,13.4-9.9,27.6,1,40c8.7,9.2,19.4,10.2,31.6,10.2l386.9-0.1H679.5L679.5,529.3z"/>
		<path class="st4" d="M674.7,519.4c6-0.1,11.9,0.6,18.2-4c6.3-4.6,12-16.4,5.3-30L501.4,144.2c-11-19.3-30.5-18.8-41-0.5
			L263.9,484.1c-4.1,7.3-7.7,17.6-2.9,25.2c6.3,10,16.2,10,26.8,10.2L674.7,519.4L674.7,519.4z"/>
		<polygon class="st5" points="648.5,479.3 480.6,188.7 313,479.3 648.5,479.3 		"/>
		<path class="st6" d="M480.7,465.2c2.3-6.1,8-12.6,19.3-11.2c-0.4-7.2,5.3-13.3,11.8-12.1c2.5-5.4,4.2-6.9,9.8-8.6l-42.2-36.1
			l-2.3,0.9c3.7,3.8,8.6,9.5,6,16.5L457.3,460c-8.8,13.6-24.1,1.2-18.4-8.9l21.5-39l-22.6-33.1v34.5l-13.1,45.4
			c-4.7,12.8-22.8,6.4-19.3-4.5l11.2-41v-43.5l1.8-7.6c2.3-2.8,4.7-4.4,7.7-8c0-1.5-1.5-2-2.6-2.9c-1-1.5-1.5-3.6-2.8-5.4
			c-2.6-1.9-5-4.1-8.2-7c-3.4-3.8,0.4-8.8,4.5-5.8c1.8,1,5.3,4.4,7.4,6.3l5.8-26.9c1.6-4.5,3.1-7.2,8.3-7.9l41.3,0.1
			c3.7,1,7.2,2.2,8.8,5l13.9,22.8c1.3,4.8,1.9,4.7,0.6,9.8L480.9,388c14,13,31.8,28.2,47.6,41.2c11.4-16.1,30.9-8,36.9,3.7
			c12,0,17.1,7.6,15.6,14.6c5.5,2.8,2.8,0.1,5.8,5.3c7.6,0,13.7,6.9,15.9,12.6H480.7L480.7,465.2z M457,367.5l21.6-9l-9.6,19
			L457,367.5L457,367.5z M441.1,337.6l3.7-15.2h12.7L441.1,337.6L441.1,337.6z M515.1,299.4c8.3,0,15,6.7,15,15c0,8.3-6.7,15-15,15
			c-8.3,0-15-6.7-15-15C500.1,306.1,506.8,299.4,515.1,299.4L515.1,299.4z"/>
	</g>
</g>
</svg>
