<?xml version="1.0" encoding="utf-8"?>
<!-- Generator: Adobe Illustrator 19.2.0, SVG Export Plug-In . SVG Version: 6.00 Build 0)  -->
<svg version="1.1" xmlns="http://www.w3.org/2000/svg" xmlns:xlink="http://www.w3.org/1999/xlink" x="0px" y="0px"
	 viewBox="0 0 1711.4 783" style="enable-background:new 0 0 1711.4 783;" xml:space="preserve">
<style type="text/css">
	.st0{display:none;}
	.st1{display:inline;}
	.st2{fill:#1A171B;stroke:#1A171B;stroke-width:2.5033;stroke-miterlimit:2.6131;}
	.st3{fill:#1A171B;}
	.st4{display:inline;fill:#070E0C;}
	.st5{display:inline;fill:none;stroke:#070E0C;stroke-width:1.3995;stroke-linejoin:bevel;stroke-miterlimit:2.6131;}
	.st6{fill-rule:evenodd;clip-rule:evenodd;fill:#070E0C;}
	.st7{fill:none;stroke:#070E0C;stroke-width:1.637313e-003;stroke-linejoin:bevel;stroke-miterlimit:2.6131;}
</style>
<g id="Livello_1" class="st0">
	<g class="st1">
		<path class="st2" d="M667.5,411.6c-57.1,0-103.6,46.5-103.6,103.6s46.6,103.6,103.6,103.6c57.1,0,103.6-46.6,103.6-103.6
			C771.1,458.1,724.6,411.6,667.5,411.6z M667.5,585.2c-38.5,0-70-31.4-70-70c0-38.5,31.4-70,70-70c38.5,0,70,31.4,70,70
			S706,585.2,667.5,585.2z"/>
		<path class="st3" d="M1043.9,411.6c-57.1,0-103.6,46.5-103.6,103.6s46.5,103.6,103.6,103.6s103.6-46.6,103.6-103.6
			C1147.6,458.1,1101,411.6,1043.9,411.6z M1043.9,585.2c-38.5,0-70-31.4-70-70c0-38.5,31.4-70,70-70s70,31.4,70,70
			S1082.5,585.2,1043.9,585.2z"/>
		<path class="st2" d="M865.9,578.4l-61.5-115.9c-8.2-15.6-8.5-27.2,9.2-39.1l75.4-34L828.5,344l-33,25.8
			c-3.4,4.1-11.9,7.1-21.7,7.8l-87,0.3c-26.5,0.7-25.1-40.1,0-40.4l76.8-0.3l97.5-78.1c8.2,0,19,2.4,24.1,7.8l70.3,107.7
			c10.9,12.6,11.5,31.9-3.1,38.4L852,455.4l54,101.2C918.6,583.5,879.2,604.6,865.9,578.4L865.9,578.4L865.9,578.4z"/>
		<path class="st2" d="M777.2,305.6l-3.1-21.4l42.5-35l-5.8-32.3l-37.4,6.5c-10.5,3.7-8.8-4.8-8.5-12.6c2.7-31.3,32.6-51,58.8-45.9
			c26.2,5.1,38.1,29.9,40.4,43.2c2.4,13.2,3.1,27.5-5.4,31.9L777.2,305.6L777.2,305.6z"/>
	</g>
	<g>
		<polygon class="st4" points="1308.9,436.4 1149.6,436.4 1149.6,442.2 1158.9,451.9 1167.9,467.9 1172.2,487.7 1171.8,512.6 
			1285.7,500.5 		"/>
		<polygon class="st4" points="1149.6,473.7 1149.6,521.9 1150.4,521.1 1153.9,509.5 1155.1,497.8 1150.4,474.1 		"/>
		<polygon class="st4" points="1149.6,348.1 1149.6,416.9 1309,416.9 1286.5,347.7 		"/>
		<polygon class="st4" points="1149.6,416.9 1149.6,348.1 1094.4,348.1 1094.4,416.9 		"/>
		<polygon class="st4" points="1149.6,442.2 1149.6,436.4 1144.2,436.4 		"/>
		<polygon class="st4" points="1149.6,521.9 1149.6,473.7 1144.6,463.2 1137.2,454.3 1128.2,446.9 1118.1,441.4 1094.4,437.2 
			1094.4,465.9 1106.8,467.9 1116.6,474.9 1123.6,485.4 1125.9,497.8 1123.6,509.9 1116.6,520.3 1106.8,526.6 1094.4,529.7 
			1094.4,558.1 1106.5,556.5 1118.1,553.4 1128.2,547.2 1137.2,540.2 		"/>
		<polygon class="st4" points="1094.4,302.3 1094.4,327.5 1115.8,327.5 		"/>
		<polygon class="st4" points="1094.4,327.5 1094.4,302.3 1038.4,236.2 1038.4,320.1 1042.3,327.5 		"/>
		<polygon class="st4" points="1094.4,416.9 1094.4,348.1 1038.4,348.1 1038.4,416.9 		"/>
		<polygon class="st4" points="1094.4,465.9 1094.4,437.2 1094.4,436.8 1082.7,437.5 1071.1,441.4 1060.6,446.9 1051.3,454.3 
			1044.3,463.2 1038.4,474.1 1038.4,521.5 1044.3,531.2 1051.3,540.2 1060.6,547.2 1071.1,553.4 1082.7,556.5 1094.4,558.1 
			1094.4,529.7 1081.6,526.6 1071.5,520.3 1064.9,509.9 1062.9,504 1062.1,497.8 1064.9,485.4 1071.5,474.9 1081.6,467.9 
			1094.4,465.5 		"/>
		<polygon class="st4" points="1038.4,437.2 1038.4,441.8 1042.3,436.8 		"/>
		<polygon class="st4" points="1038.4,320.1 1038.4,236.2 1029.1,224.9 734,225.7 632.6,327.9 659,327.5 740.6,245.1 858.8,245.5 
			859.2,327.1 878.3,327.9 878.3,245.9 997.2,245.9 		"/>
		<polygon class="st4" points="1038.4,416.9 1038.4,348.1 630.6,348.1 627.1,348.5 627.1,416.9 		"/>
		<polygon class="st4" points="1038.4,441.8 1038.4,437.2 627.1,437.2 627.1,442.2 638.4,451.9 647.7,471.4 651.6,492.4 
			650.1,513.4 1018.2,513.7 1015.9,491.6 1018.6,472.1 1027.2,453.9 		"/>
		<polygon class="st4" points="1038.4,521.5 1038.4,474.1 1034.9,485.4 1033.8,497.8 1034.9,509.5 1038.4,521.1 		"/>
		<polygon class="st4" points="627.1,472.9 627.1,522.7 628.3,521.1 631.4,509.5 633,497.8 628.3,474.1 		"/>
		<polygon class="st4" points="627.1,416.9 627.1,348.5 571.9,354.7 571.9,416.9 		"/>
		<polygon class="st4" points="627.1,442.2 627.1,437.2 621.7,437.2 		"/>
		<polygon class="st4" points="627.1,522.7 627.1,472.9 614.7,454.3 605.7,446.9 595.6,441.4 572.3,436.8 571.9,437.2 571.9,465.9 
			572.3,465.5 584.7,467.9 594.5,474.9 601.5,485.4 603.8,497.8 601.5,509.9 594.5,520.3 584.7,526.6 572.3,529.7 571.9,529.7 
			571.9,558.1 572.3,558.1 584.4,556.5 595.6,553.4 605.7,547.2 614.7,540.2 		"/>
		<polygon class="st4" points="571.9,416.9 571.9,354.7 515.9,361 515.9,416.9 		"/>
		<polygon class="st4" points="571.9,465.9 571.9,437.2 560.3,437.5 548.6,441.4 538.1,446.9 528.8,454.3 521.4,463.2 515.9,474.1 
			515.9,521.5 521.4,531.2 528.8,540.2 538.1,547.2 548.6,553.4 560.3,556.5 571.9,558.1 571.9,529.7 565.7,528.5 559.5,526.6 
			549,520.3 542.4,509.9 540.4,504 539.6,497.8 542.4,485.4 549,474.9 559.5,467.9 		"/>
		<polygon class="st4" points="515.9,437.2 515.9,441.8 520.6,436.8 		"/>
		<polygon class="st4" points="515.9,416.9 515.9,361 423.8,371.1 403.2,416.9 		"/>
		<polygon class="st4" points="515.9,441.8 515.9,437.2 402.4,437.2 423.8,502.9 493.4,513.4 493,488.5 497.7,468.3 507,451.5 		"/>
		<polygon class="st4" points="515.9,521.5 515.9,474.1 512.1,485.4 510.5,497.8 512.1,509.5 515.9,521.1 		"/>
		<path class="st5" d="M572.3,436.8l-12,0.8l-11.7,3.9l-10.5,5.4l-9.3,7.4l-7.4,8.9l-5.4,10.9l-3.9,11.3l-1.6,12.4l1.6,11.7
			l3.9,11.7l5.4,10.1l7.4,8.9l9.3,7l10.5,6.2l11.7,3.1l12,1.6l12.1-1.6l11.3-3.1l10.1-6.2l8.9-7l13.6-19.1l3.1-11.7l1.6-11.7
			l-4.7-23.7l-13.6-19.8l-8.9-7.4l-10.1-5.4L572.3,436.8L572.3,436.8z M1094.4,436.8l-11.7,0.8l-11.7,3.9l-10.5,5.4l-9.3,7.4l-7,8.9
			l-5.8,10.9l-3.5,11.3l-1.2,12.4l1.2,11.7l3.5,11.7l5.8,10.1l7,8.9l9.3,7l10.5,6.2l11.7,3.1l11.7,1.6l12.1-1.6l11.7-3.1l10.1-6.2
			l8.9-7l13.2-19.1l3.5-11.7l1.2-11.7l-4.7-23.7l-5.8-10.9l-7.4-8.9l-8.9-7.4l-10.1-5.4L1094.4,436.8L1094.4,436.8z M493.4,513.4
			l-0.4-24.9l4.7-20.2l9.3-16.7l13.6-14.8l-118.2,0.4l21.4,65.7L493.4,513.4L493.4,513.4z M1018.2,513.7l-2.3-22.2l2.7-19.4
			l8.5-18.3l15.2-17.1l-420.6,0.4l16.7,14.8l9.3,19.4l3.9,21l-1.6,21L1018.2,513.7L1018.2,513.7z M1309,416.9l-22.5-69.2l-655.8,0.4
			L423.9,371l-20.6,45.9H1309L1309,416.9z M659,327.5l81.6-82.4l118.2,0.4l0.4,81.6l19,0.8v-82h119l45.1,81.6h73.5l-86.7-102.6
			L734,225.7L632.6,327.9L659,327.5L659,327.5z M1094.4,465.5l-12.8,2.3l-10.1,7l-6.6,10.5l-2.7,12.4l0.8,6.2l1.9,5.8l6.6,10.5
			l10.1,6.2l12.8,3.1l12.4-3.1l9.7-6.2l7-10.5l2.3-12.1l-2.3-12.4l-7-10.5l-9.7-7L1094.4,465.5L1094.4,465.5z M572.3,465.5
			l-12.8,2.3l-10.5,7l-6.6,10.5l-2.7,12.4l0.8,6.2l1.9,5.8l6.6,10.5l10.5,6.2l6.2,1.9l6.6,1.2l12.4-3.1l9.7-6.2l7-10.5l2.3-12.1
			l-2.3-12.4l-7-10.5l-9.7-7L572.3,465.5L572.3,465.5z"/>
	</g>
</g>
<g id="Livello_2">
	<g>
		<polygon class="st6" points="1025.6,559.3 1025.6,661.1 1030.2,662.2 1059.7,665.3 1089.2,662.2 1116.9,653.4 1141.8,640.1 
			1163.9,621.8 1181.9,600 1195.5,575.1 1204,547.7 1206.8,518.2 1204,488.7 1195.5,461 1181.9,436.1 1163.9,414 1141.8,396.1 
			1116.9,382.4 1089.2,373.9 1059.7,371.1 1044.9,371.8 1030.2,373.9 1025.6,375.4 1025.6,477.2 1029.8,473.7 1039,468.7 
			1049.1,465.6 1059.7,464.5 1070.6,465.6 1080.7,468.7 1090.2,473.7 1097.6,480.3 1104.3,487.7 1109.2,497.2 1112.3,507.4 
			1113.4,518.2 1109.2,539 1104.3,548.1 1097.6,556.1 1080.7,567.4 1059.7,571.6 1049.1,570.5 1039,567.4 1029.8,562.5 
			1025.6,559.3 		"/>
		<polygon class="st6" points="1025.6,199.1 1025.6,352.9 1030.2,351.8 1037.6,348.3 1042.5,341.6 1044.9,330.8 1044.6,221.6 
			1042.8,213.9 1039.7,207.5 1034.4,203 1028.1,199.8 1025.6,199.1 		"/>
		<polygon class="st6" points="1025.6,128.5 1025.6,174.9 1032.3,164.7 1034.7,151.7 1032.3,138 1025.6,128.5 		"/>
		<polygon class="st6" points="1025.6,174.9 1025.6,128.5 1025.3,127.5 1020,122.9 1014.4,120.1 1001,117.7 994.4,118 988.1,120.1 
			978.9,126.8 978.9,176.6 988.1,182.3 1001,185.1 1014.4,182.3 1025.3,175.2 1025.6,174.9 		"/>
		<polygon class="st6" points="1025.6,352.9 1025.6,199.1 1021.4,198.1 1014.4,198.1 1007.4,199.8 1000.3,203 978.9,215.6 
			978.9,306.5 984.9,320.2 978.9,322 978.9,364.5 1019.7,354.3 1025.6,352.9 		"/>
		<polygon class="st6" points="1025.6,477.2 1025.6,375.4 1016.5,377.5 1002.8,382.4 978.9,395.7 978.9,640.8 1002.8,653.4 
			1025.6,661.1 1025.6,559.3 1021.8,556.1 1015.4,548.1 1010.5,539 1007.4,528.8 1006.3,518.2 1007.4,507.4 1010.5,497.2 
			1015.4,487.7 1021.8,480.3 1025.6,477.2 		"/>
		<polygon class="st6" points="978.9,176.6 978.9,126.8 977.5,127.5 970.2,138 968.4,144.3 967.3,151.7 970.2,164.7 977.5,175.2 
			978.9,176.6 		"/>
		<polygon class="st6" points="978.9,306.5 978.9,215.6 875.7,276 871.5,280.6 869.4,286.9 871.9,299.9 881.7,308.3 888,309.7 
			894.7,307.6 963.1,270 978.9,306.5 		"/>
		<polygon class="st6" points="978.9,364.5 978.9,322 903.8,342 897.1,346.6 892.9,351.5 887.3,364.1 865.2,460.3 865.2,501 
			867.6,503.1 874.3,506 881.7,506 888.7,503.8 894.3,498.2 897.5,490.5 924.9,377.5 978.9,364.5 		"/>
		<polygon class="st6" points="978.9,640.8 978.9,395.7 977.5,396.1 955.8,414 946.3,424.5 937.9,436.1 930.5,448.4 924.2,461 
			918.9,474.4 915.4,488.7 913.3,503.1 912.2,518.2 915.4,547.7 924.2,575.1 930.5,588.1 937.9,600 946.3,611.3 955.8,621.8 
			977.5,640.1 978.9,640.8 		"/>
		<polygon class="st6" points="865.2,318.5 865.2,335.3 869,331.5 870.4,326.9 869,322 865.2,318.5 		"/>
		<polygon class="st6" points="865.2,335.3 865.2,318.5 815.7,269.3 810.8,266.5 805.1,269.3 802.3,272.5 799.9,277.7 802.3,282.7 
			822,303 793.2,331.5 787.6,310.7 664,310.7 664,468.7 833.9,468.7 798.8,350.8 835.3,316 855,335.3 859.9,337.1 865.2,335.3 		"/>
		<polygon class="st6" points="865.2,501 865.2,460.3 859.9,482.4 859.6,490.9 862,497.9 865.2,501 		"/>
		<polygon class="st6" points="664,524.9 664,628.1 666.1,625.7 674.2,610.6 679.8,594.1 681.6,576.2 679.8,558.3 674.2,541.8 
			666.1,527 664,524.9 		"/>
		<polygon class="st6" points="664,486.6 664,499.6 665.4,500.3 680.2,518.2 848,517.9 838.8,486.6 664,486.6 		"/>
		<polygon class="st6" points="664,468.7 664,310.7 593.1,310.7 593.1,468.7 664,468.7 		"/>
		<polygon class="st6" points="664,499.6 664,486.6 646.5,486.6 656.6,493 664,499.6 		"/>
		<polygon class="st6" points="664,628.1 664,524.9 655.2,514 642.2,503.1 627.5,495.1 611,489.8 593.1,488.7 593.1,538.2 
			608.2,541.1 614.9,544.2 620.5,549.5 628.9,561.4 631.7,576.2 628.9,590.9 620.5,603.5 608.2,612 593.1,615.1 593.1,664.6 
			611,663.2 627.5,657.6 642.2,649.2 655.2,638.7 664,628.1 		"/>
		<polygon class="st6" points="593.1,468.7 593.1,310.7 505.3,310.7 552,468.7 593.1,468.7 		"/>
		<polygon class="st6" points="593.1,538.2 593.1,488.7 593.1,488.4 575.2,489.8 558.7,495.1 543.6,503.1 530.6,514 520.1,527 
			511.6,541.8 506,558.3 504.6,576.2 506,594.1 511.6,610.6 520.1,625.7 530.6,638.7 543.6,649.2 558.7,657.6 575.2,663.2 
			593.1,664.6 593.1,615.1 578.4,612 565.7,603.5 560.8,597.9 557.6,590.9 554.1,576.2 555.2,568.4 557.6,561.4 560.8,554.7 
			565.7,549.5 571.3,544.2 578.4,541.1 585.4,539 593.1,537.9 593.1,538.2 		"/>
		<g>
			<path class="st7" d="M680.2,518.2l-14.8-17.9l-8.8-7.4l-10.2-6.3h192.4l9.1,31.2L680.2,518.2L680.2,518.2z M887.3,364.1l5.6-12.6
				l4.2-4.9l6.7-4.6l81.1-21.8L963.1,270l-68.5,37.6l-6.7,2.1l-6.3-1.4l-9.8-8.4l-2.5-13l2.1-6.3l4.2-4.6l124.6-73l7-3.2l7-1.8h7
				l6.7,1.8l6.3,3.2l5.3,4.6l3.2,6.3l1.7,7.7l0.4,109.2l-2.5,10.9l-4.9,6.7l-7.4,3.5l-10.5,2.5l-94.8,23.2l-27.4,113l-3.2,7.7
				l-5.6,5.6l-7,2.1h-7.4l-6.7-2.8l-5.6-5.3l-2.5-7l0.4-8.4L887.3,364.1L887.3,364.1z M793.2,331.5L822,303l-19.7-20.4l-2.5-4.9
				l2.5-5.3l2.8-3.2l5.6-2.8l4.9,2.8L869,322l1.4,4.9l-1.4,4.6l-3.9,3.9l-5.3,1.8l-4.9-1.8L835.3,316l-36.5,34.8l35.1,118H552
				l-46.7-158h282.3L793.2,331.5L793.2,331.5z M1059.7,371.1l29.5,2.8l27.7,8.4l24.9,13.7l22.1,17.9l17.9,22.1l13.7,24.9l8.4,27.7
				l2.8,29.5l-2.8,29.5l-8.4,27.4l-13.7,24.9l-17.9,21.8l-22.1,18.3l-24.9,13.3l-27.7,8.8l-29.5,3.2l-29.5-3.2l-27.4-8.8l-25.3-13.3
				l-21.8-18.3l-9.5-10.5l-8.4-11.2l-7.4-11.9l-6.3-13l-8.8-27.4l-3.2-29.5l1.1-15.1l2.1-14.4l3.5-14.4l5.3-13.3l6.3-12.6l7.4-12.3
				l8.4-11.6l9.5-10.5l21.8-17.9l25.3-13.7l13.7-4.9l13.7-3.5l14.7-2.1L1059.7,371.1L1059.7,371.1z M1059.7,464.5l10.9,1.1l10.2,3.2
				l9.5,4.9l7.4,6.7l6.7,7.4l4.9,9.5l3.2,10.2l1.1,10.9l-4.2,20.7l-4.9,9.1l-6.7,8.1l-16.9,11.2l-21.1,4.2l-10.5-1.1l-10.2-3.2
				l-9.1-4.9l-8.1-6.3l-6.3-8.1l-4.9-9.1l-3.2-10.2l-1.1-10.5l1.1-10.9l3.2-10.2l4.9-9.5l6.3-7.4l8.1-6.7l9.1-4.9l10.2-3.2
				L1059.7,464.5L1059.7,464.5z M593.1,488.4l17.9,1.4l16.5,5.3l14.7,8.1l13,10.9l10.9,13l8.1,14.7l5.6,16.5l1.8,17.9l-1.8,17.9
				l-5.6,16.5l-8.1,15.1l-10.9,13l-13,10.5l-14.7,8.4l-16.5,5.6l-17.9,1.4l-17.9-1.4l-16.5-5.6l-15.1-8.4l-13-10.5l-10.5-13
				l-8.4-15.1l-5.6-16.5l-1.4-17.9l1.4-17.9l5.6-16.5l8.4-14.7l10.5-13l13-10.9l15.1-8.1l16.5-5.3L593.1,488.4L593.1,488.4z
				 M593.1,537.9l15.1,3.2l6.7,3.2l5.6,5.3l8.4,11.9l2.8,14.7l-2.8,14.7l-8.4,12.6l-12.3,8.4l-15.1,3.2l-14.7-3.2l-12.6-8.4
				l-4.9-5.6l-3.2-7l-3.5-14.7l1.1-7.7l2.5-7l3.2-6.7l4.9-5.3l5.6-5.3l7-3.2l7-2.1L593.1,537.9L593.1,537.9z M1001,117.7l13.3,2.5
				l5.6,2.8l5.3,4.6l7,10.5l2.5,13.7l-2.5,13l-7,10.5l-10.9,7l-13.3,2.8l-13-2.8l-10.5-7l-7.4-10.5l-2.8-13l1.1-7.4l1.8-6.3
				l7.4-10.5l10.5-7.4l6.3-2.1L1001,117.7L1001,117.7z"/>
		</g>
	</g>
</g>
</svg>
