<?xml version="1.0" encoding="utf-8"?>
<!-- Generator: Adobe Illustrator 19.2.0, SVG Export Plug-In . SVG Version: 6.00 Build 0)  -->
<svg version="1.1" xmlns="http://www.w3.org/2000/svg" xmlns:xlink="http://www.w3.org/1999/xlink" x="0px" y="0px"
	 viewBox="0 0 1906 783" style="enable-background:new 0 0 1906 783;" xml:space="preserve">
<style type="text/css">
	.st0{display:none;}
	.st1{display:inline;}
	.st2{fill:#1A171B;stroke:#1A171B;stroke-width:2.3465;stroke-miterlimit:2.6131;}
	.st3{fill:#1A171B;}
	.st4{fill:#070E0C;}
	.st5{fill:none;stroke:#070E0C;stroke-width:1.3995;stroke-linejoin:bevel;stroke-miterlimit:2.6131;}
	.st6{fill-rule:evenodd;clip-rule:evenodd;fill:#070E0C;}
	.st7{fill:none;stroke:#070E0C;stroke-width:1.395162e-003;stroke-linejoin:bevel;stroke-miterlimit:2.6131;}
	
		.st8{fill-rule:evenodd;clip-rule:evenodd;fill:#070E0C;stroke:#070E0C;stroke-width:1.485965e-003;stroke-linejoin:bevel;stroke-miterlimit:2.6131;}
	.st9{fill:none;stroke:#070E0C;stroke-width:1.485965e-003;stroke-linejoin:bevel;stroke-miterlimit:2.6131;}
</style>
<g id="Livello_1" class="st0">
	<g class="st1">
		<path class="st2" d="M1299.4,373.6c-53.5,0-97.1,43.6-97.1,97.1s43.6,97.1,97.1,97.1s97.1-43.6,97.1-97.1
			C1396.5,417.2,1352.9,373.6,1299.4,373.6z M1299.4,536.3c-36.1,0-65.6-29.5-65.6-65.6s29.5-65.6,65.6-65.6s65.6,29.5,65.6,65.6
			C1365,506.9,1335.5,536.3,1299.4,536.3z"/>
		<path class="st3" d="M1652.3,373.6c-53.5,0-97.1,43.6-97.1,97.1s43.6,97.1,97.1,97.1s97.1-43.6,97.1-97.1
			C1749.4,417.2,1705.8,373.6,1652.3,373.6z M1652.3,536.3c-36.1,0-65.6-29.5-65.6-65.6s29.5-65.6,65.6-65.6s65.6,29.5,65.6,65.6
			C1717.9,506.9,1688.4,536.3,1652.3,536.3z"/>
		<path class="st2" d="M1485.4,530l-57.6-108.6c-7.6-14.6-8-25.5,8.6-36.6l70.7-31.8l-56.7-42.7l-30.9,24.2
			c-3.2,3.8-11.2,6.7-20.4,7.3l-81.5,0.3c-24.8,0.6-23.6-37.6,0-37.9l72-0.3l91.4-73.3c7.6,0,17.8,2.2,22.6,7.3l65.9,101
			c10.2,11.8,10.8,29.9-2.9,36l-94.3,39.8l50.6,94.9C1534.7,534.7,1497.8,554.5,1485.4,530L1485.4,530L1485.4,530z"/>
		<path class="st2" d="M1402.3,274.2l-2.9-20.1l39.8-32.8l-5.4-30.3l-35,6.1c-9.9,3.5-8.3-4.5-8-11.8c2.5-29.3,30.6-47.8,55.1-43
			s35.7,28,37.9,40.4c2.2,12.4,2.9,25.8-5.1,29.9L1402.3,274.2L1402.3,274.2z"/>
	</g>
	<g class="st1">
		<polygon class="st4" points="1016.4,436.4 857.1,436.4 857.1,442.2 866.5,451.9 875.4,467.9 879.7,487.7 879.3,512.6 993.2,500.5 
					"/>
		<polygon class="st4" points="857.1,473.7 857.1,521.9 857.9,521.1 861.4,509.5 862.6,497.8 857.9,474.1 		"/>
		<polygon class="st4" points="857.1,348.1 857.1,416.9 1016.5,416.9 994,347.7 		"/>
		<polygon class="st4" points="857.1,416.9 857.1,348.1 801.9,348.1 801.9,416.9 		"/>
		<polygon class="st4" points="857.1,442.2 857.1,436.4 851.7,436.4 		"/>
		<polygon class="st4" points="857.1,521.9 857.1,473.7 852.1,463.2 844.7,454.3 835.7,446.9 825.6,441.4 801.9,437.2 801.9,465.9 
			814.4,467.9 824.1,474.9 831.1,485.4 833.4,497.8 831.1,509.9 824.1,520.3 814.4,526.6 801.9,529.7 801.9,558.1 814,556.5 
			825.6,553.4 835.7,547.2 844.7,540.2 		"/>
		<polygon class="st4" points="801.9,302.3 801.9,327.5 823.3,327.5 		"/>
		<polygon class="st4" points="801.9,327.5 801.9,302.3 746,236.2 746,320.1 749.8,327.5 		"/>
		<polygon class="st4" points="801.9,416.9 801.9,348.1 746,348.1 746,416.9 		"/>
		<polygon class="st4" points="801.9,465.9 801.9,437.2 801.9,436.8 790.3,437.5 778.6,441.4 768.1,446.9 758.8,454.3 751.8,463.2 
			746,474.1 746,521.5 751.8,531.2 758.8,540.2 768.1,547.2 778.6,553.4 790.3,556.5 801.9,558.1 801.9,529.7 789.1,526.6 
			779,520.3 772.4,509.9 770.4,504 769.7,497.8 772.4,485.4 779,474.9 789.1,467.9 801.9,465.5 		"/>
		<polygon class="st4" points="746,437.2 746,441.8 749.8,436.8 		"/>
		<polygon class="st4" points="746,320.1 746,236.2 736.6,224.9 441.6,225.7 340.1,327.9 366.5,327.5 448.2,245.1 566.3,245.5 
			566.7,327.1 585.8,327.9 585.8,245.9 704.7,245.9 		"/>
		<polygon class="st4" points="746,416.9 746,348.1 338.1,348.1 334.6,348.5 334.6,416.9 		"/>
		<polygon class="st4" points="746,441.8 746,437.2 334.6,437.2 334.6,442.2 345.9,451.9 355.2,471.4 359.1,492.4 357.6,513.4 
			725.7,513.7 723.4,491.6 726.1,472.1 734.7,453.9 		"/>
		<polygon class="st4" points="746,521.5 746,474.1 742.5,485.4 741.3,497.8 742.5,509.5 746,521.1 		"/>
		<polygon class="st4" points="334.6,472.9 334.6,522.7 335.8,521.1 338.9,509.5 340.5,497.8 335.8,474.1 		"/>
		<polygon class="st4" points="334.6,416.9 334.6,348.5 279.4,354.7 279.4,416.9 		"/>
		<polygon class="st4" points="334.6,442.2 334.6,437.2 329.2,437.2 		"/>
		<polygon class="st4" points="334.6,522.7 334.6,472.9 322.2,454.3 313.3,446.9 303.2,441.4 279.8,436.8 279.4,437.2 279.4,465.9 
			279.8,465.5 292.3,467.9 302,474.9 309,485.4 311.3,497.8 309,509.9 302,520.3 292.3,526.6 279.8,529.7 279.4,529.7 279.4,558.1 
			279.8,558.1 291.9,556.5 303.2,553.4 313.3,547.2 322.2,540.2 		"/>
		<polygon class="st4" points="279.4,416.9 279.4,354.7 223.4,361 223.4,416.9 		"/>
		<polygon class="st4" points="279.4,465.9 279.4,437.2 267.8,437.5 256.1,441.4 245.6,446.9 236.3,454.3 228.9,463.2 223.4,474.1 
			223.4,521.5 228.9,531.2 236.3,540.2 245.6,547.2 256.1,553.4 267.8,556.5 279.4,558.1 279.4,529.7 273.2,528.5 267,526.6 
			256.5,520.3 249.9,509.9 247.9,504 247.2,497.8 249.9,485.4 256.5,474.9 267,467.9 		"/>
		<polygon class="st4" points="223.4,437.2 223.4,441.8 228.1,436.8 		"/>
		<polygon class="st4" points="223.4,416.9 223.4,361 131.3,371.1 110.7,416.9 		"/>
		<polygon class="st4" points="223.4,441.8 223.4,437.2 109.9,437.2 131.3,502.9 200.9,513.4 200.5,488.5 205.2,468.3 214.5,451.5 
					"/>
		<polygon class="st4" points="223.4,521.5 223.4,474.1 219.6,485.4 218,497.8 219.6,509.5 223.4,521.1 		"/>
		<path class="st5" d="M279.8,436.8l-12,0.8l-11.7,3.9l-10.5,5.4l-9.3,7.4l-7.4,8.9l-5.4,10.9l-3.9,11.3l-1.6,12.4l1.6,11.7
			l3.9,11.7l5.4,10.1l7.4,8.9l9.3,7l10.5,6.2l11.7,3.1l12,1.6l12.1-1.6l11.3-3.1l10.1-6.2l8.9-7l13.6-19.1l3.1-11.7l1.6-11.7
			l-4.7-23.7l-13.6-19.8l-8.9-7.4l-10.1-5.4L279.8,436.8L279.8,436.8z M801.9,436.8l-11.7,0.8l-11.7,3.9l-10.5,5.4l-9.3,7.4l-7,8.9
			l-5.8,10.9l-3.5,11.3l-1.2,12.4l1.2,11.7l3.5,11.7l5.8,10.1l7,8.9l9.3,7l10.5,6.2l11.7,3.1l11.7,1.6l12.1-1.6l11.7-3.1l10.1-6.2
			l8.9-7l13.2-19.1l3.5-11.7l1.2-11.7l-4.7-23.7l-5.8-10.9l-7.4-8.9l-8.9-7.4l-10.1-5.4L801.9,436.8L801.9,436.8z M200.9,513.4
			l-0.4-24.9l4.7-20.2l9.3-16.7l13.6-14.8l-118.2,0.4l21.4,65.7L200.9,513.4L200.9,513.4z M725.7,513.7l-2.3-22.2l2.7-19.4l8.5-18.3
			l15.2-17.1l-420.6,0.4l16.7,14.8l9.3,19.4l3.9,21l-1.6,21L725.7,513.7L725.7,513.7z M1016.5,416.9L994,347.7l-655.8,0.4l-206.9,23
			L110.7,417h905.8V416.9z M366.5,327.5l81.6-82.4l118.2,0.4l0.4,81.6l19,0.8v-82h119l45.1,81.6h73.5l-86.7-102.6l-295.1,0.8
			L340.1,327.9L366.5,327.5L366.5,327.5z M801.9,465.5l-12.8,2.3l-10.1,7l-6.6,10.5l-2.7,12.4l0.8,6.2l1.9,5.8l6.6,10.5l10.1,6.2
			l12.8,3.1l12.4-3.1l9.7-6.2l7-10.5l2.3-12.1l-2.3-12.4l-7-10.5l-9.7-7L801.9,465.5L801.9,465.5z M279.8,465.5l-12.8,2.3l-10.5,7
			l-6.6,10.5l-2.7,12.4l0.8,6.2l1.9,5.8l6.6,10.5l10.5,6.2l6.2,1.9l6.6,1.2l12.4-3.1l9.7-6.2l7-10.5l2.3-12.1l-2.3-12.4l-7-10.5
			l-9.7-7L279.8,465.5L279.8,465.5z"/>
	</g>
</g>
<g id="Livello_2">
	<g>
		<polygon class="st6" points="551.6,496.3 551.6,583 555.5,583.9 580.7,586.6 605.8,583.9 629.4,576.5 650.7,565.1 669.5,549.5 
			684.8,531 696.4,509.7 703.6,486.4 706,461.3 703.6,436.2 696.4,412.5 684.8,391.3 669.5,372.4 650.7,357.2 629.4,345.5 
			605.8,338.3 580.7,335.9 568.1,336.5 555.5,338.3 551.6,339.5 551.6,426.3 555.2,423.3 563,419.1 571.7,416.4 580.7,415.5 
			589.9,416.4 598.6,419.1 606.7,423.3 613,429 618.6,435.2 622.8,443.3 625.5,452 626.4,461.3 622.8,478.9 618.6,486.7 613,493.6 
			598.6,503.2 580.7,506.8 571.7,505.9 563,503.2 555.2,499 551.6,496.3 		"/>
		<polygon class="st6" points="551.6,189.3 551.6,320.4 555.5,319.5 561.8,316.5 566,310.8 568.1,301.5 567.8,208.5 566.3,201.9 
			563.6,196.5 559.1,192.6 553.7,189.9 551.6,189.3 		"/>
		<polygon class="st6" points="551.6,129.2 551.6,168.7 557.3,160 559.4,149 557.3,137.3 551.6,129.2 		"/>
		<polygon class="st6" points="551.6,168.7 551.6,129.2 551.3,128.3 546.9,124.4 542.1,122 530.7,119.9 525,120.2 519.6,122 
			511.8,127.7 511.8,170.2 519.6,175 530.7,177.4 542.1,175 551.3,169 551.6,168.7 		"/>
		<polygon class="st6" points="551.6,320.4 551.6,189.3 548,188.4 542.1,188.4 536.1,189.9 530.1,192.6 511.8,203.4 511.8,280.9 
			516.9,292.6 511.8,294.1 511.8,330.3 546.6,321.6 551.6,320.4 		"/>
		<polygon class="st6" points="551.6,426.3 551.6,339.5 543.9,341.3 532.2,345.5 511.8,356.9 511.8,565.7 532.2,576.5 551.6,583 
			551.6,496.3 548.3,493.6 543,486.7 538.8,478.9 536.1,470.3 535.2,461.3 536.1,452 538.8,443.3 543,435.2 548.3,429 551.6,426.3 
					"/>
		<polygon class="st6" points="511.8,170.2 511.8,127.7 510.7,128.3 504.4,137.3 502.9,142.7 502,149 504.4,160 510.7,169 
			511.8,170.2 		"/>
		<polygon class="st6" points="511.8,280.9 511.8,203.4 423.9,254.9 420.3,258.8 418.5,264.1 420.6,275.2 429,282.4 434.4,283.6 
			440.1,281.8 498.4,249.8 511.8,280.9 		"/>
		<polygon class="st6" points="511.8,330.3 511.8,294.1 447.8,311.1 442.2,315 438.6,319.2 433.8,330 414.9,411.9 414.9,446.6 
			417,448.4 422.7,450.8 429,450.8 435,449 439.8,444.2 442.5,437.6 465.8,341.3 511.8,330.3 		"/>
		<polygon class="st6" points="511.8,565.7 511.8,356.9 510.7,357.2 492.1,372.4 484,381.4 476.9,391.3 470.6,401.7 465.2,412.5 
			460.7,423.9 457.7,436.2 455.9,448.4 455,461.3 457.7,486.4 465.2,509.7 470.6,520.8 476.9,531 484,540.6 492.1,549.5 
			510.7,565.1 511.8,565.7 		"/>
		<polygon class="st6" points="414.9,291.1 414.9,305.4 418.2,302.1 419.4,298.2 418.2,294.1 414.9,291.1 		"/>
		<polygon class="st6" points="414.9,305.4 414.9,291.1 372.7,249.2 368.6,246.8 363.8,249.2 361.4,251.9 359.3,256.4 361.4,260.5 
			378.1,277.9 353.6,302.1 348.8,284.5 243.5,284.5 243.5,419.1 388.3,419.1 358.4,318.6 389.5,289 406.3,305.4 410.4,306.9 
			414.9,305.4 		"/>
		<polygon class="st6" points="414.9,446.6 414.9,411.9 410.4,430.8 410.1,437.9 412.2,443.9 414.9,446.6 		"/>
		<polygon class="st6" points="243.5,467 243.5,554.9 245.3,552.8 252.2,540 257,525.9 258.5,510.6 257,495.4 252.2,481.3 
			245.3,468.8 243.5,467 		"/>
		<polygon class="st6" points="243.5,434.4 243.5,445.4 244.7,446 257.3,461.3 400.3,461 392.5,434.4 243.5,434.4 		"/>
		<polygon class="st6" points="243.5,419.1 243.5,284.5 183.1,284.5 183.1,419.1 243.5,419.1 		"/>
		<polygon class="st6" points="243.5,445.4 243.5,434.4 228.6,434.4 237.2,439.7 243.5,445.4 		"/>
		<polygon class="st6" points="243.5,554.9 243.5,467 236,457.7 225,448.4 212.4,441.5 198.3,437 183.1,436.2 183.1,478.3 
			195.9,480.7 201.6,483.4 206.4,487.9 213.6,498.1 216,510.6 213.6,523.2 206.4,534 195.9,541.2 183.1,543.8 183.1,586 
			198.3,584.8 212.4,580 225,572.9 236,563.9 243.5,554.9 		"/>
		<polygon class="st6" points="183.1,419.1 183.1,284.5 108.3,284.5 148.1,419.1 183.1,419.1 		"/>
		<polygon class="st6" points="183.1,478.3 183.1,436.2 183.1,435.9 167.8,437 153.8,441.5 140.9,448.4 129.8,457.7 120.9,468.8 
			113.7,481.3 108.9,495.4 107.7,510.6 108.9,525.9 113.7,540 120.9,552.8 129.8,563.9 140.9,572.9 153.8,580 167.8,584.8 
			183.1,586 183.1,543.8 170.5,541.2 159.8,534 155.6,529.2 152.9,523.2 149.9,510.6 150.8,504.1 152.9,498.1 155.6,492.4 
			159.8,487.9 164.5,483.4 170.5,480.7 176.5,478.9 183.1,478 183.1,478.3 		"/>
		<g>
			<path class="st7" d="M257.3,461.3L244.7,446l-7.5-6.3l-8.7-5.4h163.9l7.8,26.6L257.3,461.3L257.3,461.3z M433.8,330l4.8-10.8
				l3.6-4.2l5.7-3.9l69.1-18.6l-18.5-42.8l-58.3,32l-5.7,1.8l-5.4-1.2l-8.4-7.2l-2.1-11.1l1.8-5.4l3.6-3.9l106.2-62.2l6-2.7l6-1.5h6
				l5.7,1.5l5.4,2.7l4.5,3.9l2.7,5.4l1.5,6.6l0.3,93l-2.1,9.3l-4.2,5.7l-6.3,3l-9,2.1l-80.8,19.7l-23.3,96.3l-2.7,6.6L435,449
				l-6,1.8h-6.3l-5.7-2.4l-4.8-4.5l-2.1-6l0.3-7.2L433.8,330L433.8,330z M353.6,302.1l24.5-24.2l-16.8-17.3l-2.1-4.2l2.1-4.5
				l2.4-2.7l4.8-2.4l4.2,2.4l45.5,44.9l1.2,4.2l-1.2,3.9l-3.3,3.3l-4.5,1.5l-4.2-1.5L389.5,289l-31.1,29.6l29.9,100.5H148.1
				l-39.8-134.6h240.5L353.6,302.1L353.6,302.1z M580.7,335.9l25.1,2.4l23.6,7.2l21.2,11.7l18.8,15.3l15.3,18.8l11.7,21.2l7.2,23.6
				l2.4,25.1l-2.4,25.1l-7.2,23.3L684.8,531l-15.3,18.5l-18.8,15.6l-21.2,11.4l-23.6,7.5l-25.1,2.7l-25.1-2.7l-23.3-7.5l-21.5-11.4
				l-18.6-15.6l-8.1-9l-7.2-9.6l-6.3-10.2l-5.4-11.1l-7.5-23.3l-2.7-25.1l0.9-12.9l1.8-12.3l3-12.3l4.5-11.4l5.4-10.8l6.3-10.5
				l7.2-9.9l8.1-9l18.6-15.3l21.5-11.7l11.7-4.2l11.7-3l12.6-1.8L580.7,335.9L580.7,335.9z M580.7,415.5l9.3,0.9l8.7,2.7l8.1,4.2
				l6.3,5.7l5.7,6.3l4.2,8.1l2.7,8.7l0.9,9.3l-3.6,17.7l-4.2,7.8l-5.7,6.9l-14.4,9.6l-17.9,3.6l-9-0.9l-8.7-2.7l-7.8-4.2l-6.9-5.4
				l-5.4-6.9l-4.2-7.8l-2.7-8.7l-0.9-9l0.9-9.3l2.7-8.7l4.2-8.1l5.4-6.3l6.9-5.7l7.8-4.2l8.7-2.7L580.7,415.5L580.7,415.5z
				 M183.1,435.9l15.3,1.2l14.1,4.5l12.6,6.9l11.1,9.3l9.3,11.1l6.9,12.6l4.8,14.1l1.5,15.3l-1.5,15.3l-4.8,14.1l-6.9,12.9
				l-9.3,11.1l-11.1,9l-12.6,7.2l-14.1,4.8l-15.3,1.2l-15.3-1.2l-14.1-4.8l-12.9-7.2l-11.1-9l-9-11.1l-7.2-12.9l-4.8-14.1l-1.2-15.3
				l1.2-15.3l4.8-14.1l7.2-12.6l9-11.1l11.1-9.3l12.9-6.9l14.1-4.5L183.1,435.9L183.1,435.9z M183.1,478l12.9,2.7l5.7,2.7l4.8,4.5
				l7.2,10.2l2.4,12.6l-2.4,12.6l-7.2,10.8l-10.5,7.2l-12.9,2.7l-12.6-2.7l-10.8-7.2l-4.2-4.8l-2.7-6l-3-12.6l0.9-6.6l2.1-6l2.7-5.7
				l4.2-4.5l4.8-4.5l6-2.7l6-1.8L183.1,478L183.1,478z M530.7,119.9l11.4,2.1l4.8,2.4l4.5,3.9l6,9l2.1,11.7l-2.1,11.1l-6,9l-9.3,6
				l-11.4,2.4l-11.1-2.4l-9-6l-6.3-9L502,149l0.9-6.3l1.5-5.4l6.3-9l9-6.3l5.4-1.8L530.7,119.9L530.7,119.9z"/>
		</g>
	</g>
	<g>
		<polygon class="st8" points="1032.5,352.1 1005.3,359.5 978.5,360.7 804,360.7 1001.2,158.8 1048.1,204.4 1066.6,224.8 
			1077.8,244 1082.2,263.1 1080.3,282.6 1059.6,261.5 1045.5,256.7 1031.8,258 1025.4,259.9 1019.1,263.4 1008.8,272 1001.5,283.5 
			997.7,297.6 998.6,311.6 1005.3,325.6 1032.5,352.1 		"/>
		<polygon class="st6" points="1400.3,380.2 1225.2,379.9 1285.2,339.7 1400.3,339.7 1400.3,380.2 		"/>
		<polygon class="st6" points="1556.4,379.9 1434.5,380.2 1424.9,378.3 1417.6,373.5 1413.7,367.1 1412.1,359.8 1413.7,352.1 
			1417.6,345.7 1424.9,341 1434.5,339.7 1501.2,339.7 1496.1,291.8 1499.2,277.8 1507.2,268.2 1518.7,262.5 1531.8,261.2 
			1544.9,263.1 1555.7,269.2 1560.5,273.3 1564,278.7 1566.3,284.5 1566.9,291.8 1556.4,379.9 		"/>
		<polygon class="st6" points="1574.2,339.7 1652.1,339.7 1707,379.9 1568.2,380.2 1574.2,339.7 		"/>
		<path class="st9" d="M1400.3,380.2l-175.2-0.3l60-40.2h115.2V380.2L1400.3,380.2z M1556.4,379.9l-121.9,0.3l-9.6-1.9l-7.3-4.8
			l-3.8-6.4l-1.6-7.3l1.6-7.7l3.8-6.4l7.3-4.8l9.6-1.3h66.7l-5.1-47.9l3.2-14l8-9.6l11.5-5.7l13.1-1.3l13.1,1.9l10.8,6.1l4.8,4.2
			l3.5,5.4l2.2,5.7l0.6,7.3L1556.4,379.9L1556.4,379.9z M1574.2,339.7h77.8l54.9,40.2l-138.8,0.3L1574.2,339.7L1574.2,339.7z"/>
		<polygon class="st8" points="1057,281.6 1246.9,471.1 1252.6,479.4 1254.5,489 1252.6,498.6 1246.9,506.9 1238.9,512.3 
			1229.3,514.2 1219.7,512.3 1211.1,506.9 1021.6,317.3 1016.5,309.1 1014.6,299.5 1016.5,289.9 1021.6,281.6 1030.2,275.9 
			1039.5,274 1049,275.9 1057,281.6 		"/>
		<polygon class="st8" points="1707.9,467 1715.9,468.6 1722.3,473.1 1727.1,479.8 1728.7,487.7 1727.1,495.7 1722.3,502.7 
			1715.9,507.2 1707.9,508.8 1699.9,507.2 1692.9,502.7 1688.5,495.7 1686.9,487.7 1688.5,479.8 1692.9,473.1 1699.9,468.6 
			1707.9,467 		"/>
		<polygon class="st6" points="1707.6,539.4 1707.6,571.3 1707.9,571.3 1724.8,569.7 1740.2,564.6 1754.2,556.7 1766.3,546.8 
			1776.5,534 1784.2,520 1789,504.3 1790.6,487.7 1789,470.8 1784.2,455.5 1776.5,441.8 1766.3,429.7 1754.2,419.1 1740.2,411.5 
			1724.8,406.7 1707.9,405.1 1707.6,405.1 1707.6,437.6 1707.9,437.3 1718.1,438.3 1727.7,441.1 1736.6,445.9 1744,452 1750,459.3 
			1754.8,467.9 1757.7,477.5 1758.7,487.7 1757.7,497.9 1754.8,507.5 1750,516.4 1744,524.4 1736.6,530.5 1727.7,535.3 
			1718.1,538.1 1707.9,539.4 1707.6,539.4 		"/>
		<polygon class="st6" points="1707.6,437.6 1707.6,405.1 1226.1,405.1 1217.5,405.1 1208.9,406.1 1237.3,435.7 1245.3,438.3 
			1252.6,442.4 1259.6,447.9 1265.4,454.9 1274,470.2 1276.2,478.5 1277.2,487.7 1275.9,497.9 1273.4,507.5 1262.2,524.4 
			1254.5,530.5 1245.6,535.3 1226.1,539.4 1208.9,536.2 1193.9,527.6 1183.1,514.5 1176,498.6 1145.1,467.9 1143.2,487.4 
			1144.8,504.3 1149.6,520 1157.2,534 1167.1,546.4 1179.5,556.7 1193.6,564.3 1209.2,569.4 1226.1,570.7 1707.6,571.3 
			1707.6,539.4 1687.8,535.3 1679.2,530.5 1671.6,524.4 1665.5,516.4 1660.7,507.5 1656.6,487.7 1657.8,477.5 1660.7,467.9 
			1665.5,459.3 1671.6,452 1679.2,445.9 1687.8,441.1 1697.4,438.3 1707.6,437.6 		"/>
		<path class="st9" d="M1237.3,435.7l-28.4-29.7l8.6-1h8.6h481.8l16.9,1.6l15.3,4.8l14,7.7l12.1,10.5l10.2,12.1l7.7,13.7l4.8,15.3
			l1.6,16.9l-1.6,16.6l-4.8,15.6l-7.7,14l-10.2,12.8l-12.1,9.9l-14,8l-15.3,5.1l-16.9,1.6l-481.8-0.6l-16.9-1.3l-15.6-5.1l-14-7.7
			l-12.4-10.2l-9.9-12.4l-7.7-14l-4.8-15.6l-1.6-16.9l1.9-19.5l30.9,30.6l7,16l10.8,13.1l15,8.6l17.2,3.2l19.5-4.2l8.9-4.8l7.7-6.1
			l11.2-16.9l2.6-9.6l1.3-10.2l-1-9.3l-2.2-8.3l-8.6-15.3l-5.7-7l-7-5.4l-7.3-4.1L1237.3,435.7L1237.3,435.7z M1707.9,437.3l10.2,1
			l9.6,2.9l8.9,4.8l7.3,6.1l6.1,7.3l4.8,8.6l2.9,9.6l1,10.2l-1,10.2l-2.9,9.6l-4.8,8.9l-6.1,8l-7.3,6.1l-8.9,4.8l-9.6,2.9l-10.2,1.3
			l-20.1-4.2l-8.6-4.8l-7.7-6.1l-6.1-8l-4.8-8.9l-4.1-19.8l1.3-10.2l2.9-9.6l4.8-8.6l6.1-7.3l7.7-6.1l8.6-4.8l9.6-2.9L1707.9,437.3
			L1707.9,437.3z"/>
		<polygon class="st8" points="1530.5,197.4 1536.3,198 1541.7,199.9 1546.2,202.2 1550,205.7 1553.5,209.5 1555.7,214.3 
			1557.6,219.4 1558.3,225.1 1555.7,235.4 1553.5,240.1 1550,244.3 1541.7,250 1530.5,252.3 1520,250 1511.4,244.3 1505.6,235.4 
			1503.4,225.1 1505.6,214.3 1511.4,205.7 1520,199.9 1530.5,197.4 		"/>
	</g>
</g>
</svg>
