<?xml version="1.0" encoding="utf-8"?>
<!-- Generator: Adobe Illustrator 19.2.0, SVG Export Plug-In . SVG Version: 6.00 Build 0)  -->
<svg version="1.1" id="Livello_1" xmlns="http://www.w3.org/2000/svg" xmlns:xlink="http://www.w3.org/1999/xlink" x="0px" y="0px"
	 viewBox="0 0 1711.4 783" style="enable-background:new 0 0 1711.4 783;" xml:space="preserve">
<style type="text/css">
	.st0{display:none;}
	
		.st1{display:inline;fill-rule:evenodd;clip-rule:evenodd;fill:#1A171B;stroke:#1A171B;stroke-width:2.1145;stroke-miterlimit:2.6131;}
	.st2{display:inline;fill-rule:evenodd;clip-rule:evenodd;fill:#1A171B;}
	.st3{fill-rule:evenodd;clip-rule:evenodd;fill:#070E0C;}
	.st4{fill:none;stroke:#070E0C;stroke-width:1.3995;stroke-linejoin:bevel;stroke-miterlimit:2.6131;}
</style>
<g class="st0">
	<path class="st1" d="M1171,384.8c-48.2,0-87.5,39.3-87.5,87.5c0,48.2,39.3,87.5,87.5,87.5c48.2,0,87.5-39.3,87.5-87.5
		C1258.5,424.1,1219.2,384.8,1171,384.8z M1171,531.4c-32.6,0-59.1-26.6-59.1-59.1c0-32.6,26.6-59.1,59.1-59.1
		c32.6,0,59.1,26.6,59.1,59.1C1230.1,504.9,1203.6,531.4,1171,531.4z"/>
	<path class="st2" d="M1489,384.8c-48.2,0-87.5,39.3-87.5,87.5c0,48.2,39.3,87.5,87.5,87.5c48.2,0,87.5-39.3,87.5-87.5
		C1576.5,424.1,1537.2,384.8,1489,384.8z M1489,531.4c-32.6,0-59.1-26.6-59.1-59.1c0-32.6,26.6-59.1,59.1-59.1
		c32.6,0,59.1,26.6,59.1,59.1C1548.1,504.9,1521.6,531.4,1489,531.4z"/>
	<path class="st1" d="M1338.6,525.7l-51.9-97.9c-6.9-13.2-7.2-23,7.7-33l63.7-28.7l-51.1-38.5l-27.8,21.8c-2.9,3.4-10,6-18.4,6.6
		l-73.5,0.3c-22.4,0.6-21.2-33.9,0-34.2l64.9-0.3l82.4-66c6.9,0,16.1,2,20.4,6.6l59.4,91c9.2,10.6,9.8,27-2.6,32.4l-84.9,35.9
		l45.6,85.5C1383.1,530,1349.8,547.8,1338.6,525.7L1338.6,525.7L1338.6,525.7z"/>
	<path class="st1" d="M1263.7,295.2l-2.6-18.1l35.9-29.6l-4.9-27.3l-31.6,5.5c-8.9,3.2-7.5-4-7.2-10.6c2.3-26.4,27.6-43,49.6-38.7
		c22.1,4.3,32.1,25.3,34.1,36.4c2,11.2,2.6,23.2-4.6,27L1263.7,295.2L1263.7,295.2z"/>
</g>
<g>
	<polygon class="st3" points="1308.9,436.4 1149.6,436.4 1149.6,442.2 1158.9,451.9 1167.9,467.9 1172.2,487.7 1171.8,512.6 
		1285.7,500.5 1308.9,436.4 	"/>
	<polygon class="st3" points="1149.6,473.7 1149.6,521.9 1150.4,521.1 1153.9,509.5 1155.1,497.8 1150.4,474.1 1149.6,473.7 	"/>
	<polygon class="st3" points="1149.6,348.1 1149.6,416.9 1309,416.9 1286.5,347.7 1149.6,348.1 	"/>
	<polygon class="st3" points="1149.6,416.9 1149.6,348.1 1094.4,348.1 1094.4,416.9 1149.6,416.9 	"/>
	<polygon class="st3" points="1149.6,442.2 1149.6,436.4 1144.2,436.4 1149.6,442.2 	"/>
	<polygon class="st3" points="1149.6,521.9 1149.6,473.7 1144.6,463.2 1137.2,454.3 1128.2,446.9 1118.1,441.4 1094.4,437.2 
		1094.4,465.9 1106.8,467.9 1116.6,474.9 1123.6,485.4 1125.9,497.8 1123.6,509.9 1116.6,520.3 1106.8,526.6 1094.4,529.7 
		1094.4,558.1 1106.5,556.5 1118.1,553.4 1128.2,547.2 1137.2,540.2 1149.6,521.9 	"/>
	<polygon class="st3" points="1094.4,302.3 1094.4,327.5 1115.8,327.5 1094.4,302.3 	"/>
	<polygon class="st3" points="1094.4,327.5 1094.4,302.3 1038.4,236.2 1038.4,320.1 1042.3,327.5 1094.4,327.5 	"/>
	<polygon class="st3" points="1094.4,416.9 1094.4,348.1 1038.4,348.1 1038.4,416.9 1094.4,416.9 	"/>
	<polygon class="st3" points="1094.4,465.9 1094.4,437.2 1094.4,436.8 1082.7,437.5 1071.1,441.4 1060.6,446.9 1051.3,454.3 
		1044.3,463.2 1038.4,474.1 1038.4,521.5 1044.3,531.2 1051.3,540.2 1060.6,547.2 1071.1,553.4 1082.7,556.5 1094.4,558.1 
		1094.4,529.7 1081.6,526.6 1071.5,520.3 1064.9,509.9 1062.9,504 1062.1,497.8 1064.9,485.4 1071.5,474.9 1081.6,467.9 
		1094.4,465.5 1094.4,465.9 	"/>
	<polygon class="st3" points="1038.4,437.2 1038.4,441.8 1042.3,436.8 1038.4,437.2 	"/>
	<polygon class="st3" points="1038.4,320.1 1038.4,236.2 1029.1,224.9 734,225.7 632.6,327.9 659,327.5 740.6,245.1 858.8,245.5 
		859.2,327.1 878.3,327.9 878.3,245.9 997.2,245.9 1038.4,320.1 	"/>
	<polygon class="st3" points="1038.4,416.9 1038.4,348.1 630.6,348.1 627.1,348.5 627.1,416.9 1038.4,416.9 	"/>
	<polygon class="st3" points="1038.4,441.8 1038.4,437.2 627.1,437.2 627.1,442.2 638.4,451.9 647.7,471.4 651.6,492.4 650.1,513.4 
		1018.2,513.7 1015.9,491.6 1018.6,472.1 1027.2,453.9 1038.4,441.8 	"/>
	<polygon class="st3" points="1038.4,521.5 1038.4,474.1 1034.9,485.4 1033.8,497.8 1034.9,509.5 1038.4,521.1 1038.4,521.5 	"/>
	<polygon class="st3" points="627.1,472.9 627.1,522.7 628.3,521.1 631.4,509.5 633,497.8 628.3,474.1 627.1,472.9 	"/>
	<polygon class="st3" points="627.1,416.9 627.1,348.5 571.9,354.7 571.9,416.9 627.1,416.9 	"/>
	<polygon class="st3" points="627.1,442.2 627.1,437.2 621.7,437.2 627.1,442.2 	"/>
	<polygon class="st3" points="627.1,522.7 627.1,472.9 614.7,454.3 605.7,446.9 595.6,441.4 572.3,436.8 571.9,437.2 571.9,465.9 
		572.3,465.5 584.7,467.9 594.5,474.9 601.5,485.4 603.8,497.8 601.5,509.9 594.5,520.3 584.7,526.6 572.3,529.7 571.9,529.7 
		571.9,558.1 572.3,558.1 584.4,556.5 595.6,553.4 605.7,547.2 614.7,540.2 627.1,522.7 	"/>
	<polygon class="st3" points="571.9,416.9 571.9,354.7 515.9,361 515.9,416.9 571.9,416.9 	"/>
	<polygon class="st3" points="571.9,465.9 571.9,437.2 560.3,437.5 548.6,441.4 538.1,446.9 528.8,454.3 521.4,463.2 515.9,474.1 
		515.9,521.5 521.4,531.2 528.8,540.2 538.1,547.2 548.6,553.4 560.3,556.5 571.9,558.1 571.9,529.7 565.7,528.5 559.5,526.6 
		549,520.3 542.4,509.9 540.4,504 539.6,497.8 542.4,485.4 549,474.9 559.5,467.9 571.9,465.9 	"/>
	<polygon class="st3" points="515.9,437.2 515.9,441.8 520.6,436.8 515.9,437.2 	"/>
	<polygon class="st3" points="515.9,416.9 515.9,361 423.8,371.1 403.2,416.9 515.9,416.9 	"/>
	<polygon class="st3" points="515.9,441.8 515.9,437.2 402.4,437.2 423.8,502.9 493.4,513.4 493,488.5 497.7,468.3 507,451.5 
		515.9,441.8 	"/>
	<polygon class="st3" points="515.9,521.5 515.9,474.1 512.1,485.4 510.5,497.8 512.1,509.5 515.9,521.1 515.9,521.5 	"/>
	<path class="st4" d="M572.3,436.8l-12,0.8l-11.7,3.9l-10.5,5.4l-9.3,7.4l-7.4,8.9l-5.4,10.9l-3.9,11.3l-1.6,12.4l1.6,11.7l3.9,11.7
		l5.4,10.1l7.4,8.9l9.3,7l10.5,6.2l11.7,3.1l12,1.6l12.1-1.6l11.3-3.1l10.1-6.2l8.9-7l13.6-19.1l3.1-11.7l1.6-11.7l-4.7-23.7
		l-13.6-19.8l-8.9-7.4l-10.1-5.4L572.3,436.8L572.3,436.8z M1094.4,436.8l-11.7,0.8l-11.7,3.9l-10.5,5.4l-9.3,7.4l-7,8.9l-5.8,10.9
		l-3.5,11.3l-1.2,12.4l1.2,11.7l3.5,11.7l5.8,10.1l7,8.9l9.3,7l10.5,6.2l11.7,3.1l11.7,1.6l12.1-1.6l11.7-3.1l10.1-6.2l8.9-7
		l13.2-19.1l3.5-11.7l1.2-11.7l-4.7-23.7l-5.8-10.9l-7.4-8.9l-8.9-7.4l-10.1-5.4L1094.4,436.8L1094.4,436.8z M493.4,513.4l-0.4-24.9
		l4.7-20.2l9.3-16.7l13.6-14.8l-118.2,0.4l21.4,65.7L493.4,513.4L493.4,513.4z M1018.2,513.7l-2.3-22.2l2.7-19.4l8.5-18.3l15.2-17.1
		l-420.6,0.4l16.7,14.8l9.3,19.4l3.9,21l-1.6,21L1018.2,513.7L1018.2,513.7z M1309,416.9l-22.5-69.2l-655.8,0.4l-206.8,22.9
		l-20.6,45.9H1309L1309,416.9z M659,327.5l81.6-82.4l118.2,0.4l0.4,81.6l19,0.8v-82h119l45.1,81.6h73.5l-86.7-102.6L734,225.7
		L632.6,327.9L659,327.5L659,327.5z M1094.4,465.5l-12.8,2.3l-10.1,7l-6.6,10.5l-2.7,12.4l0.8,6.2l1.9,5.8l6.6,10.5l10.1,6.2
		l12.8,3.1l12.4-3.1l9.7-6.2l7-10.5l2.3-12.1l-2.3-12.4l-7-10.5l-9.7-7L1094.4,465.5L1094.4,465.5z M572.3,465.5l-12.8,2.3l-10.5,7
		l-6.6,10.5l-2.7,12.4l0.8,6.2l1.9,5.8l6.6,10.5l10.5,6.2l6.2,1.9l6.6,1.2l12.4-3.1l9.7-6.2l7-10.5l2.3-12.1l-2.3-12.4l-7-10.5
		l-9.7-7L572.3,465.5L572.3,465.5z"/>
</g>
</svg>
