<?xml version="1.0" encoding="utf-8"?>
<!-- Generator: Adobe Illustrator 19.2.0, SVG Export Plug-In . SVG Version: 6.00 Build 0)  -->
<svg version="1.1" id="Livello_1" xmlns="http://www.w3.org/2000/svg" xmlns:xlink="http://www.w3.org/1999/xlink" x="0px" y="0px"
	 viewBox="0 0 1711.4 783" style="enable-background:new 0 0 1711.4 783;" xml:space="preserve">
<style type="text/css">
	.st0{fill-rule:evenodd;clip-rule:evenodd;fill:#1A171B;stroke:#1A171B;stroke-width:2.5033;stroke-miterlimit:2.6131;}
	.st1{fill-rule:evenodd;clip-rule:evenodd;fill:#1A171B;}
	.st2{display:none;}
	.st3{display:inline;fill-rule:evenodd;clip-rule:evenodd;fill:#070E0C;}
	.st4{display:inline;fill:none;stroke:#070E0C;stroke-width:1.3995;stroke-linejoin:bevel;stroke-miterlimit:2.6131;}
</style>
<g>
	<path class="st0" d="M667.5,411.6c-57.1,0-103.6,46.5-103.6,103.6c0,57.1,46.6,103.6,103.6,103.6c57.1,0,103.6-46.6,103.6-103.6
		C771.1,458.1,724.6,411.6,667.5,411.6z M667.5,585.2c-38.5,0-70-31.4-70-70c0-38.5,31.4-70,70-70c38.5,0,70,31.4,70,70
		C737.5,553.8,706,585.2,667.5,585.2z"/>
	<path class="st1" d="M1043.9,411.6c-57.1,0-103.6,46.5-103.6,103.6c0,57.1,46.5,103.6,103.6,103.6c57.1,0,103.6-46.6,103.6-103.6
		C1147.6,458.1,1101,411.6,1043.9,411.6z M1043.9,585.2c-38.5,0-70-31.4-70-70c0-38.5,31.4-70,70-70c38.6,0,70,31.4,70,70
		C1113.9,553.8,1082.5,585.2,1043.9,585.2z"/>
	<path class="st0" d="M865.9,578.4l-61.5-115.9c-8.2-15.6-8.5-27.2,9.2-39.1l75.4-34L828.5,344l-33,25.8c-3.4,4.1-11.9,7.1-21.7,7.8
		l-87,0.3c-26.5,0.7-25.1-40.1,0-40.4l76.8-0.3l97.5-78.1c8.2,0,19,2.4,24.1,7.8l70.3,107.7c10.9,12.6,11.5,31.9-3.1,38.4L852,455.4
		l54,101.2C918.6,583.5,879.2,604.6,865.9,578.4L865.9,578.4L865.9,578.4z"/>
	<path class="st0" d="M777.2,305.6l-3.1-21.4l42.5-35l-5.8-32.3l-37.4,6.5c-10.5,3.7-8.8-4.8-8.5-12.6c2.7-31.3,32.6-51,58.8-45.9
		c26.2,5.1,38.1,29.9,40.4,43.2c2.4,13.2,3.1,27.5-5.4,31.9L777.2,305.6L777.2,305.6z"/>
</g>
<g class="st2">
	<polygon class="st3" points="1308.9,436.4 1149.6,436.4 1149.6,442.2 1158.9,451.9 1167.9,467.9 1172.2,487.7 1171.8,512.6 
		1285.7,500.5 1308.9,436.4 	"/>
	<polygon class="st3" points="1149.6,473.7 1149.6,521.9 1150.4,521.1 1153.9,509.5 1155.1,497.8 1150.4,474.1 1149.6,473.7 	"/>
	<polygon class="st3" points="1149.6,348.1 1149.6,416.9 1309,416.9 1286.5,347.7 1149.6,348.1 	"/>
	<polygon class="st3" points="1149.6,416.9 1149.6,348.1 1094.4,348.1 1094.4,416.9 1149.6,416.9 	"/>
	<polygon class="st3" points="1149.6,442.2 1149.6,436.4 1144.2,436.4 1149.6,442.2 	"/>
	<polygon class="st3" points="1149.6,521.9 1149.6,473.7 1144.6,463.2 1137.2,454.3 1128.2,446.9 1118.1,441.4 1094.4,437.2 
		1094.4,465.9 1106.8,467.9 1116.6,474.9 1123.6,485.4 1125.9,497.8 1123.6,509.9 1116.6,520.3 1106.8,526.6 1094.4,529.7 
		1094.4,558.1 1106.5,556.5 1118.1,553.4 1128.2,547.2 1137.2,540.2 1149.6,521.9 	"/>
	<polygon class="st3" points="1094.4,302.3 1094.4,327.5 1115.8,327.5 1094.4,302.3 	"/>
	<polygon class="st3" points="1094.4,327.5 1094.4,302.3 1038.4,236.2 1038.4,320.1 1042.3,327.5 1094.4,327.5 	"/>
	<polygon class="st3" points="1094.4,416.9 1094.4,348.1 1038.4,348.1 1038.4,416.9 1094.4,416.9 	"/>
	<polygon class="st3" points="1094.4,465.9 1094.4,437.2 1094.4,436.8 1082.7,437.5 1071.1,441.4 1060.6,446.9 1051.3,454.3 
		1044.3,463.2 1038.4,474.1 1038.4,521.5 1044.3,531.2 1051.3,540.2 1060.6,547.2 1071.1,553.4 1082.7,556.5 1094.4,558.1 
		1094.4,529.7 1081.6,526.6 1071.5,520.3 1064.9,509.9 1062.9,504 1062.1,497.8 1064.9,485.4 1071.5,474.9 1081.6,467.9 
		1094.4,465.5 1094.4,465.9 	"/>
	<polygon class="st3" points="1038.4,437.2 1038.4,441.8 1042.3,436.8 1038.4,437.2 	"/>
	<polygon class="st3" points="1038.4,320.1 1038.4,236.2 1029.1,224.9 734,225.7 632.6,327.9 659,327.5 740.6,245.1 858.8,245.5 
		859.2,327.1 878.3,327.9 878.3,245.9 997.2,245.9 1038.4,320.1 	"/>
	<polygon class="st3" points="1038.4,416.9 1038.4,348.1 630.6,348.1 627.1,348.5 627.1,416.9 1038.4,416.9 	"/>
	<polygon class="st3" points="1038.4,441.8 1038.4,437.2 627.1,437.2 627.1,442.2 638.4,451.9 647.7,471.4 651.6,492.4 650.1,513.4 
		1018.2,513.7 1015.9,491.6 1018.6,472.1 1027.2,453.9 1038.4,441.8 	"/>
	<polygon class="st3" points="1038.4,521.5 1038.4,474.1 1034.9,485.4 1033.8,497.8 1034.9,509.5 1038.4,521.1 1038.4,521.5 	"/>
	<polygon class="st3" points="627.1,472.9 627.1,522.7 628.3,521.1 631.4,509.5 633,497.8 628.3,474.1 627.1,472.9 	"/>
	<polygon class="st3" points="627.1,416.9 627.1,348.5 571.9,354.7 571.9,416.9 627.1,416.9 	"/>
	<polygon class="st3" points="627.1,442.2 627.1,437.2 621.7,437.2 627.1,442.2 	"/>
	<polygon class="st3" points="627.1,522.7 627.1,472.9 614.7,454.3 605.7,446.9 595.6,441.4 572.3,436.8 571.9,437.2 571.9,465.9 
		572.3,465.5 584.7,467.9 594.5,474.9 601.5,485.4 603.8,497.8 601.5,509.9 594.5,520.3 584.7,526.6 572.3,529.7 571.9,529.7 
		571.9,558.1 572.3,558.1 584.4,556.5 595.6,553.4 605.7,547.2 614.7,540.2 627.1,522.7 	"/>
	<polygon class="st3" points="571.9,416.9 571.9,354.7 515.9,361 515.9,416.9 571.9,416.9 	"/>
	<polygon class="st3" points="571.9,465.9 571.9,437.2 560.3,437.5 548.6,441.4 538.1,446.9 528.8,454.3 521.4,463.2 515.9,474.1 
		515.9,521.5 521.4,531.2 528.8,540.2 538.1,547.2 548.6,553.4 560.3,556.5 571.9,558.1 571.9,529.7 565.7,528.5 559.5,526.6 
		549,520.3 542.4,509.9 540.4,504 539.6,497.8 542.4,485.4 549,474.9 559.5,467.9 571.9,465.9 	"/>
	<polygon class="st3" points="515.9,437.2 515.9,441.8 520.6,436.8 515.9,437.2 	"/>
	<polygon class="st3" points="515.9,416.9 515.9,361 423.8,371.1 403.2,416.9 515.9,416.9 	"/>
	<polygon class="st3" points="515.9,441.8 515.9,437.2 402.4,437.2 423.8,502.9 493.4,513.4 493,488.5 497.7,468.3 507,451.5 
		515.9,441.8 	"/>
	<polygon class="st3" points="515.9,521.5 515.9,474.1 512.1,485.4 510.5,497.8 512.1,509.5 515.9,521.1 515.9,521.5 	"/>
	<path class="st4" d="M572.3,436.8l-12,0.8l-11.7,3.9l-10.5,5.4l-9.3,7.4l-7.4,8.9l-5.4,10.9l-3.9,11.3l-1.6,12.4l1.6,11.7l3.9,11.7
		l5.4,10.1l7.4,8.9l9.3,7l10.5,6.2l11.7,3.1l12,1.6l12.1-1.6l11.3-3.1l10.1-6.2l8.9-7l13.6-19.1l3.1-11.7l1.6-11.7l-4.7-23.7
		l-13.6-19.8l-8.9-7.4l-10.1-5.4L572.3,436.8L572.3,436.8z M1094.4,436.8l-11.7,0.8l-11.7,3.9l-10.5,5.4l-9.3,7.4l-7,8.9l-5.8,10.9
		l-3.5,11.3l-1.2,12.4l1.2,11.7l3.5,11.7l5.8,10.1l7,8.9l9.3,7l10.5,6.2l11.7,3.1l11.7,1.6l12.1-1.6l11.7-3.1l10.1-6.2l8.9-7
		l13.2-19.1l3.5-11.7l1.2-11.7l-4.7-23.7l-5.8-10.9l-7.4-8.9l-8.9-7.4l-10.1-5.4L1094.4,436.8L1094.4,436.8z M493.4,513.4l-0.4-24.9
		l4.7-20.2l9.3-16.7l13.6-14.8l-118.2,0.4l21.4,65.7L493.4,513.4L493.4,513.4z M1018.2,513.7l-2.3-22.2l2.7-19.4l8.5-18.3l15.2-17.1
		l-420.6,0.4l16.7,14.8l9.3,19.4l3.9,21l-1.6,21L1018.2,513.7L1018.2,513.7z M1309,416.9l-22.5-69.2l-655.8,0.4l-206.8,22.9
		l-20.6,45.9H1309L1309,416.9z M659,327.5l81.6-82.4l118.2,0.4l0.4,81.6l19,0.8v-82h119l45.1,81.6h73.5l-86.7-102.6L734,225.7
		L632.6,327.9L659,327.5L659,327.5z M1094.4,465.5l-12.8,2.3l-10.1,7l-6.6,10.5l-2.7,12.4l0.8,6.2l1.9,5.8l6.6,10.5l10.1,6.2
		l12.8,3.1l12.4-3.1l9.7-6.2l7-10.5l2.3-12.1l-2.3-12.4l-7-10.5l-9.7-7L1094.4,465.5L1094.4,465.5z M572.3,465.5l-12.8,2.3l-10.5,7
		l-6.6,10.5l-2.7,12.4l0.8,6.2l1.9,5.8l6.6,10.5l10.5,6.2l6.2,1.9l6.6,1.2l12.4-3.1l9.7-6.2l7-10.5l2.3-12.1l-2.3-12.4l-7-10.5
		l-9.7-7L572.3,465.5L572.3,465.5z"/>
</g>
</svg>
