<?xml version="1.0" encoding="utf-8"?>
<!-- Generator: Adobe Illustrator 19.2.0, SVG Export Plug-In . SVG Version: 6.00 Build 0)  -->
<svg version="1.1" xmlns="http://www.w3.org/2000/svg" xmlns:xlink="http://www.w3.org/1999/xlink" x="0px" y="0px"
	 viewBox="0 0 1711.4 783" style="enable-background:new 0 0 1711.4 783;" xml:space="preserve">
<style type="text/css">
	.st0{display:none;}
	.st1{display:inline;}
	.st2{fill:#1A171B;stroke:#1A171B;stroke-width:2.5033;stroke-miterlimit:2.6131;}
	.st3{fill:#1A171B;}
	.st4{display:inline;fill:#070E0C;}
	.st5{display:inline;fill:none;stroke:#070E0C;stroke-width:1.3995;stroke-linejoin:bevel;stroke-miterlimit:2.6131;}
	.st6{display:inline;fill-rule:evenodd;clip-rule:evenodd;fill:#070E0C;}
	.st7{fill:none;stroke:#070E0C;stroke-width:1.637313e-003;stroke-linejoin:bevel;stroke-miterlimit:2.6131;}
	
		.st8{display:inline;fill-rule:evenodd;clip-rule:evenodd;fill:#070E0C;stroke:#070E0C;stroke-width:1.613572e-003;stroke-linejoin:bevel;stroke-miterlimit:2.6131;}
	.st9{display:inline;fill:none;stroke:#070E0C;stroke-width:1.613572e-003;stroke-linejoin:bevel;stroke-miterlimit:2.6131;}
	
		.st10{display:inline;fill-rule:evenodd;clip-rule:evenodd;fill:#070E0C;stroke:#070E0C;stroke-width:1.900191e-003;stroke-linejoin:bevel;stroke-miterlimit:2.6131;}
	.st11{fill-rule:evenodd;clip-rule:evenodd;fill:#070E0C;}
	.st12{fill:none;stroke:#070E0C;stroke-width:1.746789e-003;stroke-linejoin:bevel;stroke-miterlimit:2.6131;}
</style>
<g id="Livello_1" class="st0">
	<g class="st1">
		<path class="st2" d="M667.5,411.6c-57.1,0-103.6,46.5-103.6,103.6s46.6,103.6,103.6,103.6c57.1,0,103.6-46.6,103.6-103.6
			C771.1,458.1,724.6,411.6,667.5,411.6z M667.5,585.2c-38.5,0-70-31.4-70-70c0-38.5,31.4-70,70-70c38.5,0,70,31.4,70,70
			S706,585.2,667.5,585.2z"/>
		<path class="st3" d="M1043.9,411.6c-57.1,0-103.6,46.5-103.6,103.6s46.5,103.6,103.6,103.6s103.6-46.6,103.6-103.6
			C1147.6,458.1,1101,411.6,1043.9,411.6z M1043.9,585.2c-38.5,0-70-31.4-70-70c0-38.5,31.4-70,70-70s70,31.4,70,70
			S1082.5,585.2,1043.9,585.2z"/>
		<path class="st2" d="M865.9,578.4l-61.5-115.9c-8.2-15.6-8.5-27.2,9.2-39.1l75.4-34L828.5,344l-33,25.8
			c-3.4,4.1-11.9,7.1-21.7,7.8l-87,0.3c-26.5,0.7-25.1-40.1,0-40.4l76.8-0.3l97.5-78.1c8.2,0,19,2.4,24.1,7.8l70.3,107.7
			c10.9,12.6,11.5,31.9-3.1,38.4L852,455.4l54,101.2C918.6,583.5,879.2,604.6,865.9,578.4L865.9,578.4L865.9,578.4z"/>
		<path class="st2" d="M777.2,305.6l-3.1-21.4l42.5-35l-5.8-32.3l-37.4,6.5c-10.5,3.7-8.8-4.8-8.5-12.6c2.7-31.3,32.6-51,58.8-45.9
			c26.2,5.1,38.1,29.9,40.4,43.2c2.4,13.2,3.1,27.5-5.4,31.9L777.2,305.6L777.2,305.6z"/>
	</g>
	<g>
		<polygon class="st4" points="1308.9,436.4 1149.6,436.4 1149.6,442.2 1158.9,451.9 1167.9,467.9 1172.2,487.7 1171.8,512.6 
			1285.7,500.5 		"/>
		<polygon class="st4" points="1149.6,473.7 1149.6,521.9 1150.4,521.1 1153.9,509.5 1155.1,497.8 1150.4,474.1 		"/>
		<polygon class="st4" points="1149.6,348.1 1149.6,416.9 1309,416.9 1286.5,347.7 		"/>
		<polygon class="st4" points="1149.6,416.9 1149.6,348.1 1094.4,348.1 1094.4,416.9 		"/>
		<polygon class="st4" points="1149.6,442.2 1149.6,436.4 1144.2,436.4 		"/>
		<polygon class="st4" points="1149.6,521.9 1149.6,473.7 1144.6,463.2 1137.2,454.3 1128.2,446.9 1118.1,441.4 1094.4,437.2 
			1094.4,465.9 1106.8,467.9 1116.6,474.9 1123.6,485.4 1125.9,497.8 1123.6,509.9 1116.6,520.3 1106.8,526.6 1094.4,529.7 
			1094.4,558.1 1106.5,556.5 1118.1,553.4 1128.2,547.2 1137.2,540.2 		"/>
		<polygon class="st4" points="1094.4,302.3 1094.4,327.5 1115.8,327.5 		"/>
		<polygon class="st4" points="1094.4,327.5 1094.4,302.3 1038.4,236.2 1038.4,320.1 1042.3,327.5 		"/>
		<polygon class="st4" points="1094.4,416.9 1094.4,348.1 1038.4,348.1 1038.4,416.9 		"/>
		<polygon class="st4" points="1094.4,465.9 1094.4,437.2 1094.4,436.8 1082.7,437.5 1071.1,441.4 1060.6,446.9 1051.3,454.3 
			1044.3,463.2 1038.4,474.1 1038.4,521.5 1044.3,531.2 1051.3,540.2 1060.6,547.2 1071.1,553.4 1082.7,556.5 1094.4,558.1 
			1094.4,529.7 1081.6,526.6 1071.5,520.3 1064.9,509.9 1062.9,504 1062.1,497.8 1064.9,485.4 1071.5,474.9 1081.6,467.9 
			1094.4,465.5 		"/>
		<polygon class="st4" points="1038.4,437.2 1038.4,441.8 1042.3,436.8 		"/>
		<polygon class="st4" points="1038.4,320.1 1038.4,236.2 1029.1,224.9 734,225.7 632.6,327.9 659,327.5 740.6,245.1 858.8,245.5 
			859.2,327.1 878.3,327.9 878.3,245.9 997.2,245.9 		"/>
		<polygon class="st4" points="1038.4,416.9 1038.4,348.1 630.6,348.1 627.1,348.5 627.1,416.9 		"/>
		<polygon class="st4" points="1038.4,441.8 1038.4,437.2 627.1,437.2 627.1,442.2 638.4,451.9 647.7,471.4 651.6,492.4 
			650.1,513.4 1018.2,513.7 1015.9,491.6 1018.6,472.1 1027.2,453.9 		"/>
		<polygon class="st4" points="1038.4,521.5 1038.4,474.1 1034.9,485.4 1033.8,497.8 1034.9,509.5 1038.4,521.1 		"/>
		<polygon class="st4" points="627.1,472.9 627.1,522.7 628.3,521.1 631.4,509.5 633,497.8 628.3,474.1 		"/>
		<polygon class="st4" points="627.1,416.9 627.1,348.5 571.9,354.7 571.9,416.9 		"/>
		<polygon class="st4" points="627.1,442.2 627.1,437.2 621.7,437.2 		"/>
		<polygon class="st4" points="627.1,522.7 627.1,472.9 614.7,454.3 605.7,446.9 595.6,441.4 572.3,436.8 571.9,437.2 571.9,465.9 
			572.3,465.5 584.7,467.9 594.5,474.9 601.5,485.4 603.8,497.8 601.5,509.9 594.5,520.3 584.7,526.6 572.3,529.7 571.9,529.7 
			571.9,558.1 572.3,558.1 584.4,556.5 595.6,553.4 605.7,547.2 614.7,540.2 		"/>
		<polygon class="st4" points="571.9,416.9 571.9,354.7 515.9,361 515.9,416.9 		"/>
		<polygon class="st4" points="571.9,465.9 571.9,437.2 560.3,437.5 548.6,441.4 538.1,446.9 528.8,454.3 521.4,463.2 515.9,474.1 
			515.9,521.5 521.4,531.2 528.8,540.2 538.1,547.2 548.6,553.4 560.3,556.5 571.9,558.1 571.9,529.7 565.7,528.5 559.5,526.6 
			549,520.3 542.4,509.9 540.4,504 539.6,497.8 542.4,485.4 549,474.9 559.5,467.9 		"/>
		<polygon class="st4" points="515.9,437.2 515.9,441.8 520.6,436.8 		"/>
		<polygon class="st4" points="515.9,416.9 515.9,361 423.8,371.1 403.2,416.9 		"/>
		<polygon class="st4" points="515.9,441.8 515.9,437.2 402.4,437.2 423.8,502.9 493.4,513.4 493,488.5 497.7,468.3 507,451.5 		"/>
		<polygon class="st4" points="515.9,521.5 515.9,474.1 512.1,485.4 510.5,497.8 512.1,509.5 515.9,521.1 		"/>
		<path class="st5" d="M572.3,436.8l-12,0.8l-11.7,3.9l-10.5,5.4l-9.3,7.4l-7.4,8.9l-5.4,10.9l-3.9,11.3l-1.6,12.4l1.6,11.7
			l3.9,11.7l5.4,10.1l7.4,8.9l9.3,7l10.5,6.2l11.7,3.1l12,1.6l12.1-1.6l11.3-3.1l10.1-6.2l8.9-7l13.6-19.1l3.1-11.7l1.6-11.7
			l-4.7-23.7l-13.6-19.8l-8.9-7.4l-10.1-5.4L572.3,436.8L572.3,436.8z M1094.4,436.8l-11.7,0.8l-11.7,3.9l-10.5,5.4l-9.3,7.4l-7,8.9
			l-5.8,10.9l-3.5,11.3l-1.2,12.4l1.2,11.7l3.5,11.7l5.8,10.1l7,8.9l9.3,7l10.5,6.2l11.7,3.1l11.7,1.6l12.1-1.6l11.7-3.1l10.1-6.2
			l8.9-7l13.2-19.1l3.5-11.7l1.2-11.7l-4.7-23.7l-5.8-10.9l-7.4-8.9l-8.9-7.4l-10.1-5.4L1094.4,436.8L1094.4,436.8z M493.4,513.4
			l-0.4-24.9l4.7-20.2l9.3-16.7l13.6-14.8l-118.2,0.4l21.4,65.7L493.4,513.4L493.4,513.4z M1018.2,513.7l-2.3-22.2l2.7-19.4
			l8.5-18.3l15.2-17.1l-420.6,0.4l16.7,14.8l9.3,19.4l3.9,21l-1.6,21L1018.2,513.7L1018.2,513.7z M1309,416.9l-22.5-69.2l-655.8,0.4
			L423.9,371l-20.6,45.9H1309L1309,416.9z M659,327.5l81.6-82.4l118.2,0.4l0.4,81.6l19,0.8v-82h119l45.1,81.6h73.5l-86.7-102.6
			L734,225.7L632.6,327.9L659,327.5L659,327.5z M1094.4,465.5l-12.8,2.3l-10.1,7l-6.6,10.5l-2.7,12.4l0.8,6.2l1.9,5.8l6.6,10.5
			l10.1,6.2l12.8,3.1l12.4-3.1l9.7-6.2l7-10.5l2.3-12.1l-2.3-12.4l-7-10.5l-9.7-7L1094.4,465.5L1094.4,465.5z M572.3,465.5
			l-12.8,2.3l-10.5,7l-6.6,10.5l-2.7,12.4l0.8,6.2l1.9,5.8l6.6,10.5l10.5,6.2l6.2,1.9l6.6,1.2l12.4-3.1l9.7-6.2l7-10.5l2.3-12.1
			l-2.3-12.4l-7-10.5l-9.7-7L572.3,465.5L572.3,465.5z"/>
	</g>
</g>
<g id="Livello_2">
	<g class="st0">
		<polygon class="st6" points="1025.6,559.3 1025.6,661.1 1030.2,662.2 1059.7,665.3 1089.2,662.2 1116.9,653.4 1141.8,640.1 
			1163.9,621.8 1181.9,600 1195.5,575.1 1204,547.7 1206.8,518.2 1204,488.7 1195.5,461 1181.9,436.1 1163.9,414 1141.8,396.1 
			1116.9,382.4 1089.2,373.9 1059.7,371.1 1044.9,371.8 1030.2,373.9 1025.6,375.4 1025.6,477.2 1029.8,473.7 1039,468.7 
			1049.1,465.6 1059.7,464.5 1070.6,465.6 1080.7,468.7 1090.2,473.7 1097.6,480.3 1104.3,487.7 1109.2,497.2 1112.3,507.4 
			1113.4,518.2 1109.2,539 1104.3,548.1 1097.6,556.1 1080.7,567.4 1059.7,571.6 1049.1,570.5 1039,567.4 1029.8,562.5 
			1025.6,559.3 		"/>
		<polygon class="st6" points="1025.6,199.1 1025.6,352.9 1030.2,351.8 1037.6,348.3 1042.5,341.6 1044.9,330.8 1044.6,221.6 
			1042.8,213.9 1039.7,207.5 1034.4,203 1028.1,199.8 1025.6,199.1 		"/>
		<polygon class="st6" points="1025.6,128.5 1025.6,174.9 1032.3,164.7 1034.7,151.7 1032.3,138 1025.6,128.5 		"/>
		<polygon class="st6" points="1025.6,174.9 1025.6,128.5 1025.3,127.5 1020,122.9 1014.4,120.1 1001,117.7 994.4,118 988.1,120.1 
			978.9,126.8 978.9,176.6 988.1,182.3 1001,185.1 1014.4,182.3 1025.3,175.2 1025.6,174.9 		"/>
		<polygon class="st6" points="1025.6,352.9 1025.6,199.1 1021.4,198.1 1014.4,198.1 1007.4,199.8 1000.3,203 978.9,215.6 
			978.9,306.5 984.9,320.2 978.9,322 978.9,364.5 1019.7,354.3 1025.6,352.9 		"/>
		<polygon class="st6" points="1025.6,477.2 1025.6,375.4 1016.5,377.5 1002.8,382.4 978.9,395.7 978.9,640.8 1002.8,653.4 
			1025.6,661.1 1025.6,559.3 1021.8,556.1 1015.4,548.1 1010.5,539 1007.4,528.8 1006.3,518.2 1007.4,507.4 1010.5,497.2 
			1015.4,487.7 1021.8,480.3 1025.6,477.2 		"/>
		<polygon class="st6" points="978.9,176.6 978.9,126.8 977.5,127.5 970.2,138 968.4,144.3 967.3,151.7 970.2,164.7 977.5,175.2 
			978.9,176.6 		"/>
		<polygon class="st6" points="978.9,306.5 978.9,215.6 875.7,276 871.5,280.6 869.4,286.9 871.9,299.9 881.7,308.3 888,309.7 
			894.7,307.6 963.1,270 978.9,306.5 		"/>
		<polygon class="st6" points="978.9,364.5 978.9,322 903.8,342 897.1,346.6 892.9,351.5 887.3,364.1 865.2,460.3 865.2,501 
			867.6,503.1 874.3,506 881.7,506 888.7,503.8 894.3,498.2 897.5,490.5 924.9,377.5 978.9,364.5 		"/>
		<polygon class="st6" points="978.9,640.8 978.9,395.7 977.5,396.1 955.8,414 946.3,424.5 937.9,436.1 930.5,448.4 924.2,461 
			918.9,474.4 915.4,488.7 913.3,503.1 912.2,518.2 915.4,547.7 924.2,575.1 930.5,588.1 937.9,600 946.3,611.3 955.8,621.8 
			977.5,640.1 978.9,640.8 		"/>
		<polygon class="st6" points="865.2,318.5 865.2,335.3 869,331.5 870.4,326.9 869,322 865.2,318.5 		"/>
		<polygon class="st6" points="865.2,335.3 865.2,318.5 815.7,269.3 810.8,266.5 805.1,269.3 802.3,272.5 799.9,277.7 802.3,282.7 
			822,303 793.2,331.5 787.6,310.7 664,310.7 664,468.7 833.9,468.7 798.8,350.8 835.3,316 855,335.3 859.9,337.1 865.2,335.3 		"/>
		<polygon class="st6" points="865.2,501 865.2,460.3 859.9,482.4 859.6,490.9 862,497.9 865.2,501 		"/>
		<polygon class="st6" points="664,524.9 664,628.1 666.1,625.7 674.2,610.6 679.8,594.1 681.6,576.2 679.8,558.3 674.2,541.8 
			666.1,527 664,524.9 		"/>
		<polygon class="st6" points="664,486.6 664,499.6 665.4,500.3 680.2,518.2 848,517.9 838.8,486.6 664,486.6 		"/>
		<polygon class="st6" points="664,468.7 664,310.7 593.1,310.7 593.1,468.7 664,468.7 		"/>
		<polygon class="st6" points="664,499.6 664,486.6 646.5,486.6 656.6,493 664,499.6 		"/>
		<polygon class="st6" points="664,628.1 664,524.9 655.2,514 642.2,503.1 627.5,495.1 611,489.8 593.1,488.7 593.1,538.2 
			608.2,541.1 614.9,544.2 620.5,549.5 628.9,561.4 631.7,576.2 628.9,590.9 620.5,603.5 608.2,612 593.1,615.1 593.1,664.6 
			611,663.2 627.5,657.6 642.2,649.2 655.2,638.7 664,628.1 		"/>
		<polygon class="st6" points="593.1,468.7 593.1,310.7 505.3,310.7 552,468.7 593.1,468.7 		"/>
		<polygon class="st6" points="593.1,538.2 593.1,488.7 593.1,488.4 575.2,489.8 558.7,495.1 543.6,503.1 530.6,514 520.1,527 
			511.6,541.8 506,558.3 504.6,576.2 506,594.1 511.6,610.6 520.1,625.7 530.6,638.7 543.6,649.2 558.7,657.6 575.2,663.2 
			593.1,664.6 593.1,615.1 578.4,612 565.7,603.5 560.8,597.9 557.6,590.9 554.1,576.2 555.2,568.4 557.6,561.4 560.8,554.7 
			565.7,549.5 571.3,544.2 578.4,541.1 585.4,539 593.1,537.9 593.1,538.2 		"/>
		<g class="st1">
			<path class="st7" d="M680.2,518.2l-14.8-17.9l-8.8-7.4l-10.2-6.3h192.4l9.1,31.2L680.2,518.2L680.2,518.2z M887.3,364.1l5.6-12.6
				l4.2-4.9l6.7-4.6l81.1-21.8L963.1,270l-68.5,37.6l-6.7,2.1l-6.3-1.4l-9.8-8.4l-2.5-13l2.1-6.3l4.2-4.6l124.6-73l7-3.2l7-1.8h7
				l6.7,1.8l6.3,3.2l5.3,4.6l3.2,6.3l1.7,7.7l0.4,109.2l-2.5,10.9l-4.9,6.7l-7.4,3.5l-10.5,2.5l-94.8,23.2l-27.4,113l-3.2,7.7
				l-5.6,5.6l-7,2.1h-7.4l-6.7-2.8l-5.6-5.3l-2.5-7l0.4-8.4L887.3,364.1L887.3,364.1z M793.2,331.5L822,303l-19.7-20.4l-2.5-4.9
				l2.5-5.3l2.8-3.2l5.6-2.8l4.9,2.8L869,322l1.4,4.9l-1.4,4.6l-3.9,3.9l-5.3,1.8l-4.9-1.8L835.3,316l-36.5,34.8l35.1,118H552
				l-46.7-158h282.3L793.2,331.5L793.2,331.5z M1059.7,371.1l29.5,2.8l27.7,8.4l24.9,13.7l22.1,17.9l17.9,22.1l13.7,24.9l8.4,27.7
				l2.8,29.5l-2.8,29.5l-8.4,27.4l-13.7,24.9l-17.9,21.8l-22.1,18.3l-24.9,13.3l-27.7,8.8l-29.5,3.2l-29.5-3.2l-27.4-8.8l-25.3-13.3
				l-21.8-18.3l-9.5-10.5l-8.4-11.2l-7.4-11.9l-6.3-13l-8.8-27.4l-3.2-29.5l1.1-15.1l2.1-14.4l3.5-14.4l5.3-13.3l6.3-12.6l7.4-12.3
				l8.4-11.6l9.5-10.5l21.8-17.9l25.3-13.7l13.7-4.9l13.7-3.5l14.7-2.1L1059.7,371.1L1059.7,371.1z M1059.7,464.5l10.9,1.1l10.2,3.2
				l9.5,4.9l7.4,6.7l6.7,7.4l4.9,9.5l3.2,10.2l1.1,10.9l-4.2,20.7l-4.9,9.1l-6.7,8.1l-16.9,11.2l-21.1,4.2l-10.5-1.1l-10.2-3.2
				l-9.1-4.9l-8.1-6.3l-6.3-8.1l-4.9-9.1l-3.2-10.2l-1.1-10.5l1.1-10.9l3.2-10.2l4.9-9.5l6.3-7.4l8.1-6.7l9.1-4.9l10.2-3.2
				L1059.7,464.5L1059.7,464.5z M593.1,488.4l17.9,1.4l16.5,5.3l14.7,8.1l13,10.9l10.9,13l8.1,14.7l5.6,16.5l1.8,17.9l-1.8,17.9
				l-5.6,16.5l-8.1,15.1l-10.9,13l-13,10.5l-14.7,8.4l-16.5,5.6l-17.9,1.4l-17.9-1.4l-16.5-5.6l-15.1-8.4l-13-10.5l-10.5-13
				l-8.4-15.1l-5.6-16.5l-1.4-17.9l1.4-17.9l5.6-16.5l8.4-14.7l10.5-13l13-10.9l15.1-8.1l16.5-5.3L593.1,488.4L593.1,488.4z
				 M593.1,537.9l15.1,3.2l6.7,3.2l5.6,5.3l8.4,11.9l2.8,14.7l-2.8,14.7l-8.4,12.6l-12.3,8.4l-15.1,3.2l-14.7-3.2l-12.6-8.4
				l-4.9-5.6l-3.2-7l-3.5-14.7l1.1-7.7l2.5-7l3.2-6.7l4.9-5.3l5.6-5.3l7-3.2l7-2.1L593.1,537.9L593.1,537.9z M1001,117.7l13.3,2.5
				l5.6,2.8l5.3,4.6l7,10.5l2.5,13.7l-2.5,13l-7,10.5l-10.9,7l-13.3,2.8l-13-2.8l-10.5-7l-7.4-10.5l-2.8-13l1.1-7.4l1.8-6.3
				l7.4-10.5l10.5-7.4l6.3-2.1L1001,117.7L1001,117.7z"/>
		</g>
	</g>
	<g class="st0">
		<polygon class="st8" points="477,377.5 447.6,385.4 418.5,386.8 229,386.8 443.1,167.5 494,217.1 514.1,239.2 526.2,260 
			531.1,280.8 529,301.9 506.5,279.1 491.2,273.9 476.3,275.3 469.4,277.3 462.5,281.1 451.4,290.5 443.4,303 439.3,318.2 
			440.3,333.5 447.6,348.7 477,377.5 		"/>
		<polygon class="st6" points="876.5,408 686.3,407.6 751.4,364 876.5,364 876.5,408 		"/>
		<polygon class="st6" points="1045.9,407.6 913.6,408 903.2,405.9 895.2,400.7 891.1,393.8 889.3,385.8 891.1,377.5 895.2,370.5 
			903.2,365.3 913.6,364 986,364 980.4,312 983.9,296.7 992.6,286.3 1005,280.1 1019.2,278.7 1033.5,280.8 1045.2,287.4 
			1050.4,291.9 1054.2,297.8 1056.7,304 1057.4,312 1045.9,407.6 		"/>
		<polygon class="st6" points="1065.3,364 1149.9,364 1209.5,407.6 1058.7,408 1065.3,364 		"/>
		<path class="st9" d="M876.5,408l-190.2-0.3l65.1-43.7h125.1V408L876.5,408z M1045.9,407.6L913.6,408l-10.4-2.1l-8-5.2l-4.2-6.9
			l-1.7-8l1.7-8.3l4.2-6.9l8-5.2l10.4-1.4H986l-5.5-52l3.5-15.2l8.7-10.4l12.5-6.2l14.2-1.4l14.2,2.1l11.8,6.6l5.2,4.5l3.8,5.9
			l2.4,6.2l0.7,8L1045.9,407.6L1045.9,407.6z M1065.3,364h84.5l59.6,43.7l-150.7,0.3L1065.3,364L1065.3,364z"/>
		<polygon class="st8" points="503.7,300.9 709.9,506.7 716.1,515.7 718.2,526.1 716.1,536.5 709.9,545.5 701.2,551.4 690.8,553.5 
			680.4,551.4 671,545.5 465.2,339.7 459.7,330.7 457.6,320.3 459.7,309.9 465.2,300.9 474.6,294.7 484.6,292.6 495,294.7 
			503.7,300.9 		"/>
		<polygon class="st8" points="1210.5,502.2 1219.2,503.9 1226.1,508.8 1231.3,516.1 1233,524.7 1231.3,533.4 1226.1,541 
			1219.2,545.8 1210.5,547.6 1201.8,545.8 1194.2,541 1189.4,533.4 1187.6,524.7 1189.4,516.1 1194.2,508.8 1201.8,503.9 
			1210.5,502.2 		"/>
		<polygon class="st6" points="1210.2,580.8 1210.2,615.5 1210.5,615.5 1228.9,613.8 1245.5,608.2 1260.7,599.6 1273.9,588.8 
			1285,575 1293.3,559.7 1298.5,542.7 1300.2,524.7 1298.5,506.4 1293.3,489.7 1285,474.8 1273.9,461.7 1260.7,450.2 1245.5,441.9 
			1228.9,436.7 1210.5,435 1210.2,435 1210.2,470.3 1210.5,470 1221.6,471 1232,474.1 1241.7,479.3 1249.7,485.9 1256.2,493.9 
			1261.4,503.2 1264.5,513.6 1265.6,524.7 1264.5,535.8 1261.4,546.2 1256.2,555.9 1249.7,564.6 1241.7,571.1 1232,576.3 
			1221.6,579.5 1210.5,580.8 1210.2,580.8 		"/>
		<polygon class="st6" points="1210.2,470.3 1210.2,435 687.3,435 678,435 668.6,436 699.5,468.2 708.1,471 716.1,475.5 
			723.7,481.4 729.9,489 739.3,505.7 741.7,514.7 742.8,524.7 741.4,535.8 738.6,546.2 726.5,564.6 718.2,571.1 708.5,576.3 
			687.3,580.8 668.6,577.4 652.3,568 640.6,553.8 632.9,536.5 599.3,503.2 597.3,524.4 599,542.7 604.2,559.7 612.5,575 
			623.2,588.5 636.7,599.6 652,607.9 669,613.4 687.3,614.8 1210.2,615.5 1210.2,580.8 1188.7,576.3 1179.3,571.1 1171,564.6 
			1164.4,555.9 1159.2,546.2 1154.7,524.7 1156.1,513.6 1159.2,503.2 1164.4,493.9 1171,485.9 1179.3,479.3 1188.7,474.1 
			1199.1,471 1210.2,470.3 		"/>
		<path class="st9" d="M699.5,468.2L668.6,436l9.4-1h9.4h523.2l18.4,1.7l16.6,5.2l15.2,8.3l13.2,11.4l11.1,13.2l8.3,14.9l5.2,16.6
			l1.7,18.4l-1.7,18l-5.2,17L1285,575l-11.1,13.9l-13.2,10.7l-15.2,8.7l-16.6,5.5l-18.4,1.7l-523.2-0.7l-18.4-1.4l-17-5.5l-15.2-8.3
			l-13.5-11.1L612.5,575l-8.3-15.2l-5.2-17l-1.7-18.4l2.1-21.1l33.6,33.3l7.6,17.3l11.8,14.2l16.3,9.4l18.7,3.5l21.1-4.5l9.7-5.2
			l8.3-6.6l12.1-18.4l2.8-10.4l1.4-11.1l-1-10l-2.4-9l-9.4-16.6l-6.2-7.6l-7.6-5.9l-8-4.5L699.5,468.2L699.5,468.2z M1210.5,470
			l11.1,1l10.4,3.1l9.7,5.2l8,6.6l6.6,8l5.2,9.3l3.1,10.4l1,11.1l-1,11.1l-3.1,10.4l-5.2,9.7l-6.6,8.7l-8,6.6l-9.7,5.2l-10.4,3.1
			l-11.1,1.4l-21.8-4.5l-9.4-5.2l-8.3-6.6l-6.6-8.7l-5.2-9.7l-4.5-21.5l1.4-11.1l3.1-10.4l5.2-9.3l6.6-8l8.3-6.6l9.4-5.2l10.4-3.1
			L1210.5,470L1210.5,470z"/>
		<polygon class="st8" points="1017.9,209.4 1024.1,210.1 1030,212.2 1034.8,214.6 1039,218.4 1042.8,222.6 1045.2,227.8 
			1047.3,233.3 1048,239.6 1045.2,250.7 1042.8,255.9 1039,260.4 1030,266.6 1017.9,269 1006.4,266.6 997.1,260.4 990.8,250.7 
			988.4,239.6 990.8,227.8 997.1,218.4 1006.4,212.2 1017.9,209.4 		"/>
	</g>
	<g class="st0">
		<polygon class="st10" points="878.9,510.5 884.6,497.8 887.1,484 885,470.9 880.1,459.1 1076.9,459.1 1087.1,461.2 1094.5,466.9 
			1098.5,475.4 1099.7,484.4 1098.5,494.2 1094.5,502.7 1087.1,508 1076.9,510.5 878.9,510.5 		"/>
		<polygon class="st10" points="786.8,441.6 727.3,344.2 752.2,292.1 813.7,396 926.6,396.4 926.2,320.2 927.8,314.1 931.1,309.2 
			936,306.8 942.9,305.5 1139.3,305.1 1138.9,344.6 1099.3,344.6 1065.1,347.1 1036.6,352 1012.1,360.5 1001.6,365.8 991.8,373.2 
			973.9,390.3 957.6,412.7 941.3,441.6 867.5,441.6 860.6,435.1 852.4,431.4 843.1,429 833.3,427.8 814.9,431.4 806.8,435.1 
			800.7,441.6 786.8,441.6 		"/>
		<polygon class="st10" points="661.3,315.7 652,257 711.5,256.2 682.1,315.7 661.3,315.7 		"/>
		<polygon class="st10" points="1000.7,441.2 970.2,441.2 987.3,412.3 998.7,400.1 1011.7,389.9 1026.4,381.3 1042.3,375.2 
			1059.4,371.1 1076.9,369.5 1100.2,371.5 1121.8,378.5 1141.3,389.1 1158,403.3 1172.3,420.4 1182.9,440 1189.8,461.6 
			1192.2,485.2 1189.8,508 1182.9,529.6 1172.3,549.2 1158,566.3 1141.3,579.7 1121.8,590.7 1100.2,597.7 1076.9,600.1 
			1042.3,594.4 1026,588.3 1011.3,579.7 986.9,556.9 969.4,528 999.1,528 1013.4,546.3 1031.3,561 1052.9,570 1076.9,573.6 
			1094.9,571.6 1111.2,566.3 1126.2,558.5 1138.9,547.6 1150.3,534.5 1158,519.4 1162.9,502.7 1164.9,485.2 1162.9,466.9 1158,451 
			1150.3,435.5 1138.9,422.5 1126.2,411.1 1111.2,403.3 1094.9,398.4 1076.9,396.4 1053.3,400.1 1042.7,403.7 1032.5,409.4 
			1014.2,422.9 1000.7,441.2 		"/>
		<polygon class="st10" points="693.1,420 704.9,393.9 723.3,411.9 737.5,433.9 746.9,458.3 749.4,471.4 749.8,485.2 747.3,508 
			740.4,529.6 729.8,549.2 715.5,566.3 698.8,579.7 679.3,590.7 657.7,597.7 634.5,600.1 611.2,597.7 589.2,590.7 569.7,579.7 
			552.6,566.3 539.1,549.2 528.1,529.6 521.6,508 519.2,485.2 521.6,461.6 528.1,440 539.1,420.4 552.6,403.3 569.7,389.1 
			589.2,378.5 611.2,371.5 634.5,369.5 656.5,371.9 644.6,397.6 634.5,396.4 616.9,398.4 600.2,403.3 585.1,411.1 571.7,422.5 
			561.1,435.5 552.6,451 547.7,466.9 546,485.2 547.7,502.7 552.6,519.4 561.1,534.5 571.7,547.6 585.1,558.5 600.2,566.3 
			616.9,571.6 634.5,573.6 652,571.6 668.7,566.3 683.3,558.5 696.4,547.6 707.8,534.5 715.5,519.4 720.4,502.7 722.5,485.2 
			720.4,466.1 714.7,448.9 705.3,433.1 693.1,420 		"/>
		<polygon class="st10" points="632.4,463.6 748.1,211.4 755.1,200.4 763.6,192.7 774.2,186.2 786,182.9 839.8,182.9 839.8,203.3 
			786.8,203.3 779.5,205.7 773.8,209.8 766.1,222 651.2,472.2 654,477.9 654.8,483.6 653.6,491.3 649.1,498.2 642.6,502.7 
			634.5,503.9 625.9,502.7 619.8,498.2 615.3,491.3 613.3,483.6 614.9,475.8 618.6,469.7 625.1,464.8 632.4,463.6 		"/>
		<polygon class="st10" points="832.9,444.9 840.6,445.3 848,447.7 860.2,456.3 868.7,468.5 871.2,475.8 871.6,483.6 868.7,498.7 
			860.2,510.9 848,519.4 832.9,522.3 817.8,519.4 805.6,510.9 796.6,498.7 793.8,483.6 796.6,468.5 805.6,456.3 817.8,447.7 
			832.9,444.9 		"/>
		<polygon class="st10" points="941.3,294.9 1061,294.9 1067.6,293.3 1072.5,290.5 1075.7,285.6 1076.9,279.9 1076.9,258.3 
			1075.7,251.7 1072.5,246.9 1067.6,243.6 1061,242.4 941.3,242.4 935.6,243.6 930.7,246.9 927.8,251.7 926.2,258.3 926.2,279.9 
			930.7,290.5 941.3,294.9 		"/>
	</g>
	<g>
		<polygon class="st11" points="1109.3,476 1109.3,561 1110,559.5 1117.1,547.1 1121.6,532.9 1123.1,518.3 1121.6,503.3 
			1117.1,489.4 1110,476.7 1109.3,476 		"/>
		<polygon class="st11" points="1109.3,443 1109.3,452 1111.1,453.5 1125,471.1 1134.4,492.1 1137,514.9 1235.1,476.7 1235.1,443 
			1109.3,443 		"/>
		<polygon class="st11" points="1109.3,348.2 1109.3,424.6 1235.5,424.6 1235.1,348.2 1109.3,348.2 		"/>
		<polygon class="st11" points="1109.3,424.6 1109.3,348.2 1049.7,348.2 1049.7,424.6 1109.3,424.6 		"/>
		<polygon class="st11" points="1109.3,452 1109.3,443 1094.7,443 1102.9,447.1 1109.3,452 		"/>
		<polygon class="st11" points="1109.3,561 1109.3,476 1101,466.2 1090.2,457.2 1077.8,449.7 1064,445.2 1049.7,444.5 1049.7,483.1 
			1062.8,485.3 1074.4,493.2 1082.3,504.4 1084.9,518.3 1082.3,532.1 1074.4,543.4 1062.8,550.9 1049.7,553.9 1049.7,592.4 
			1064,590.6 1077.8,586.5 1101,570.7 1109.3,561 		"/>
		<polygon class="st11" points="1049.7,424.6 1049.7,348.2 989,348.2 989,424.6 1049.7,424.6 		"/>
		<polygon class="st11" points="1049.7,483.1 1049.7,444.5 1049,444.1 1034,445.2 1020.5,449.7 1008.1,457.2 997.3,466.2 989,476 
			989,561 997.3,570.7 1008.1,579.3 1020.5,586.5 1034,590.6 1049,592.4 1049.7,592.4 1049.7,553.9 1049,553.9 1035.5,550.9 
			1024.3,543.4 1017.1,532.1 1014.5,518.3 1015.3,511.2 1017.1,504.4 1024.3,493.2 1035.5,485.3 1042.2,483.1 1049,482.7 
			1049.7,483.1 		"/>
		<polygon class="st11" points="989,443 989,451.6 994.3,447.5 1002.1,443 989,443 		"/>
		<polygon class="st11" points="989,424.6 989,348.2 701.4,348.2 701.4,424.6 989,424.6 		"/>
		<polygon class="st11" points="989,451.6 989,443 683.4,443 683.4,190.6 595,190.6 595,222.4 661.7,222.4 661.7,314.5 595,314.5 
			595,427.3 610.4,428 626.1,432.5 640.7,439.6 654.2,449.4 666.2,462.5 675.2,478.2 680.8,496.6 683.4,518.3 960.6,518.3 
			961.7,505.2 964.3,493.2 968.4,481.2 973.3,471.1 979.3,461.7 986.4,453.5 989,451.6 		"/>
		<polygon class="st11" points="989,561 989,476 988.3,476.7 981.5,489.4 977.4,503.3 975.6,518.3 977.4,532.9 981.5,547.1 
			988.3,559.5 989,561 		"/>
		<polygon class="st11" points="595,553.9 595,592.4 610,590.6 623.9,586.5 647.1,570.7 656.1,559.5 662.8,547.1 667.3,532.9 
			668.8,518.3 667.3,503.3 662.8,489.4 656.1,476.7 647.1,466.2 636.2,457.2 623.9,449.7 610,445.2 595,444.5 595,483.1 
			608.5,485.3 619.7,493.2 628,504.4 630.6,518.3 628,532.1 619.7,543.4 608.5,550.9 595,553.9 		"/>
		<polygon class="st11" points="595,222.4 595,190.6 531.7,190.6 475.9,332.9 475.9,518.3 504.4,518.3 507.4,496.6 513.4,478.2 
			522.4,462.5 533.6,449.7 547.1,440 561.7,432.9 577.4,428.4 593.5,426.9 595,427.3 595,314.5 512.6,314.5 547.4,222.4 595,222.4 
					"/>
		<polygon class="st11" points="595,483.1 595,444.5 595,444.1 580,445.2 566.2,449.7 553.8,457.2 542.6,466.2 533.6,476.7 
			526.1,489.4 522.4,503.3 520.5,518.3 522.4,532.9 526.1,547.1 533.6,559.5 542.6,570.7 566.2,586.5 580,590.6 595,592.4 
			595,553.9 581.2,550.9 569.9,543.4 562.1,532.1 559.4,518.3 560.6,511.2 562.1,504.4 569.9,493.2 581.2,485.3 587.9,483.1 
			595,482.7 595,483.1 		"/>
		<path class="st12" d="M1049,482.7l13.9,2.6l11.6,7.9l7.9,11.2l2.6,13.9l-2.6,13.9l-7.9,11.2l-11.6,7.5l-13.9,3l-13.5-3l-11.2-7.5
			l-7.1-11.2l-2.6-13.9l0.8-7.1l1.9-6.7l7.1-11.2l11.2-7.9l6.7-2.3L1049,482.7L1049,482.7z M595,482.7l13.5,2.6l11.2,7.9l8.2,11.2
			l2.6,13.9l-2.6,13.9l-8.2,11.2l-11.2,7.5l-13.5,3l-13.9-3l-11.2-7.5l-7.9-11.2l-2.6-13.9l1.1-7.1l1.5-6.7l7.9-11.2l11.2-7.9
			l6.7-2.3L595,482.7L595,482.7z M1049,444.1l15,1.1l13.9,4.5l12.4,7.5l10.9,9l9,10.5l7.1,12.7l4.5,13.9l1.5,15l-1.5,14.6l-4.5,14.2
			l-7.1,12.4l-9,11.2l-23.2,15.7l-13.9,4.1l-15,1.9l-15-1.9l-13.5-4.1l-12.4-7.1l-10.9-8.6l-9-11.2l-6.7-12.4l-4.1-14.2l-1.9-14.6
			l1.9-15l4.1-13.9l6.7-12.7l9-10.5l10.9-9l12.4-7.5l13.5-4.5L1049,444.1L1049,444.1z M595,444.1l15,1.1l13.9,4.5l12.4,7.5l10.9,9
			l9,10.5l6.7,12.7l4.5,13.9l1.5,15l-1.5,14.6l-4.5,14.2l-6.7,12.4l-9,11.2l-23.2,15.7l-13.9,4.1l-15,1.9l-15-1.9l-13.9-4.1
			l-23.6-15.7l-9-11.2l-7.5-12.4l-3.7-14.2l-1.9-14.6l1.9-15l3.7-13.9l7.5-12.7l9-10.5l11.2-9l12.4-7.5l13.9-4.5L595,444.1
			L595,444.1z M512.6,314.5l34.8-92.1h114.2v92.1H512.6L512.6,314.5z M701.4,424.6v-76.4h533.7l0.4,76.4H701.4L701.4,424.6z
			 M1094.7,443h140.5v33.7l-98.1,38.2l-2.6-22.9l-9.4-21l-13.9-17.6l-8.2-6.4L1094.7,443L1094.7,443z M475.9,518.3V332.9l55.8-142.3
			h151.7V443h318.7l-7.9,4.5l-7.9,6l-7.1,8.2l-6,9.4l-4.9,10.1l-4.1,12l-2.6,12l-1.1,13.1H683.4l-2.6-21.7l-5.6-18.4l-9-15.7
			l-12-13.1l-13.5-9.7l-14.6-7.1l-15.7-4.5l-16.9-1.1l-16.1,1.5l-15.7,4.5l-14.6,7.1l-13.5,9.7l-11.2,12.7l-9,15.7l-6,18.4l-3,21.7
			H475.9L475.9,518.3z"/>
	</g>
</g>
</svg>
