<?xml version="1.0" encoding="utf-8"?>
<!-- Generator: Adobe Illustrator 14.0.0, SVG Export Plug-In . SVG Version: 6.00 Build 43363)  -->
<!DOCTYPE svg PUBLIC "-//W3C//DTD SVG 1.1//EN" "http://www.w3.org/Graphics/SVG/1.1/DTD/svg11.dtd">
<svg version="1.1" id="Livello_1" xmlns="http://www.w3.org/2000/svg" xmlns:xlink="http://www.w3.org/1999/xlink" x="0px" y="0px"
	 width="56.689px" height="56.689px" viewBox="0 0 56.689 56.689" enable-background="new 0 0 56.689 56.689" xml:space="preserve">
<g display="none">
	<path display="inline" fill="#F6921E" d="M37.129,28.347l13.182-13.183c1.934-1.933,1.934-5.097,0-7.029l-1.756-1.757
		c-1.934-1.935-5.098-1.935-7.03,0l-13.18,13.183L15.163,6.379c-1.932-1.933-5.095-1.933-7.027,0L6.377,8.135
		c-1.931,1.934-1.931,5.097,0,7.029l13.18,13.18L6.377,41.527c-1.931,1.934-1.931,5.097,0,7.028l1.759,1.756
		c1.933,1.934,5.096,1.934,7.027,0l13.182-13.18l13.18,13.18c1.935,1.934,5.097,1.934,7.03,0l1.756-1.756
		c1.934-1.935,1.934-5.098,0-7.028L37.129,28.347z"/>
</g>
<g>
	<path fill="#FFFFFF" d="M10.512,23.983c-4.201,2.409-4.201,6.312,0,8.721l31.211,17.9c4.2,2.404,7.604,0.436,7.604-4.408V10.487
		c0-4.838-3.404-6.812-7.604-4.402L10.512,23.983z"/>
</g>
</svg>
