<?xml version="1.0" encoding="UTF-8" standalone="no"?>
<!-- Generator: Adobe Illustrator 14.0.0, SVG Export Plug-In . SVG Version: 6.00 Build 43363)  -->

<svg
   xmlns:dc="http://purl.org/dc/elements/1.1/"
   xmlns:cc="http://creativecommons.org/ns#"
   xmlns:rdf="http://www.w3.org/1999/02/22-rdf-syntax-ns#"
   xmlns:svg="http://www.w3.org/2000/svg"
   xmlns="http://www.w3.org/2000/svg"
   xmlns:sodipodi="http://sodipodi.sourceforge.net/DTD/sodipodi-0.dtd"
   xmlns:inkscape="http://www.inkscape.org/namespaces/inkscape"
   version="1.1"
   id="Livello_1"
   x="0px"
   y="0px"
   width="85.04px"
   height="72.344px"
   viewBox="0 0 85.04 72.344"
   enable-background="new 0 0 85.04 72.344"
   xml:space="preserve"
   inkscape:version="0.48.4 r9939"
   sodipodi:docname="Bt_audio_White.svg"><metadata
   id="metadata3005"><rdf:RDF><cc:Work
       rdf:about=""><dc:format>image/svg+xml</dc:format><dc:type
         rdf:resource="http://purl.org/dc/dcmitype/StillImage" /></cc:Work></rdf:RDF></metadata><defs
   id="defs3003" /><sodipodi:namedview
   pagecolor="#ffffff"
   bordercolor="#666666"
   borderopacity="1"
   objecttolerance="10"
   gridtolerance="10"
   guidetolerance="10"
   inkscape:pageopacity="0"
   inkscape:pageshadow="2"
   inkscape:window-width="1920"
   inkscape:window-height="1017"
   id="namedview3001"
   showgrid="false"
   inkscape:zoom="11.472962"
   inkscape:cx="42.52"
   inkscape:cy="36.172001"
   inkscape:window-x="-8"
   inkscape:window-y="-8"
   inkscape:window-maximized="1"
   inkscape:current-layer="Livello_1" />
<g
   id="g2997">
	<path
   fill="#E6E7E8"
   d="M44.22,72.261L21.817,49.848H0.127V22.413h21.69L44.22,0V72.261z M50.697,51.645   c4.309-4.308,6.586-10.307,6.586-16.051c0-5.639-2.032-11.031-6.106-15.223l5.871-5.872c5.872,5.989,9.341,13.786,9.341,21.807   c0,7.318-2.872,14.988-9.468,21.456L50.697,51.645z M64.112,63.634c7.435-7.309,11.147-17.382,11.147-27.562   c0-10.074-3.713-20.254-11.147-27.689l6.35-6.351c9.351,9.351,14.51,21.935,14.51,34.636c0,11.861-4.436,23.849-14.148,33.55   L64.112,63.634z"
   id="path2999" />
</g>
<path
   style="fill:#ffffff;stroke:none"
   d="m 32.975105,60.925754 -11.157383,-11.156567 -10.829093,0 -10.82909223,0 0,-13.640767 0,-13.640766 10.82901023,0 10.829009,0 11.179256,-11.177992 11.179256,-11.17799314 0,35.97542414 c 0,19.786483 -0.0098,35.97538 -0.02179,35.975326 -0.01198,-5.3e-5 -5.042613,-5.020553 -11.179173,-11.156665 z"
   id="path3007"
   inkscape:connector-curvature="0" /><path
   style="fill:#ffffff"
   d="m 53.880222,54.726924 c -1.669967,-1.644697 -3.049765,-3.022342 -3.066217,-3.061433 -0.01645,-0.03909 0.219662,-0.335638 0.524699,-0.658993 2.949289,-3.126402 5.03716,-7.570531 5.746761,-12.232242 0.250342,-1.644621 0.272158,-4.46674 0.04707,-6.088649 -0.625674,-4.508332 -2.421368,-8.446274 -5.323445,-11.674271 l -0.582829,-0.648284 2.903062,-2.907401 2.903063,-2.9074 0.566654,0.592195 c 1.443316,1.508371 3.137271,3.747209 4.290447,5.670526 2.183883,3.642377 3.54502,7.394369 4.16553,11.482344 0.237975,1.567801 0.329639,4.855339 0.17981,6.448913 -0.53268,5.665544 -2.630915,10.871525 -6.271093,15.559353 -0.575115,0.740634 -2.410457,2.825764 -2.826678,3.211384 l -0.220527,0.204315 -3.036303,-2.990357 0,0 z"
   id="path3009"
   inkscape:connector-curvature="0" /><path
   style="fill:#ffffff"
   d="m 67.492175,66.901648 -3.311714,-3.250617 0.784033,-0.851881 c 2.651656,-2.881126 4.277113,-5.172896 5.934237,-8.366826 2.245921,-4.328772 3.601325,-8.937576 4.191048,-14.250897 0.188099,-1.694737 0.214419,-6.13872 0.04595,-7.757368 C 74.571863,27.006661 73.337962,22.639773 71.096699,18.129581 69.437171,14.790043 67.377306,11.792674 65.057718,9.3420867 64.598734,8.8571811 64.223201,8.4295184 64.223201,8.3917252 c 0,-0.037793 1.405713,-1.474021 3.123806,-3.1916173 l 3.123807,-3.1229025 0.960197,1.0314817 c 1.300804,1.397376 2.023096,2.2352513 2.981436,3.4585356 7.203848,9.1954363 10.931275,20.5893863 10.461943,31.9799273 -0.413805,10.042913 -3.865025,19.295212 -10.151962,27.216162 -0.989194,1.246292 -2.856961,3.370452 -3.539054,4.024867 l -0.379484,0.364085 -3.311715,-3.250616 z"
   id="path3011"
   inkscape:connector-curvature="0" /></svg>