<?xml version="1.0" encoding="utf-8"?>
<!-- Generator: Adobe Illustrator 14.0.0, SVG Export Plug-In . SVG Version: 6.00 Build 43363)  -->
<!DOCTYPE svg PUBLIC "-//W3C//DTD SVG 1.1//EN" "http://www.w3.org/Graphics/SVG/1.1/DTD/svg11.dtd">
<svg version="1.1" id="Livello_1" xmlns="http://www.w3.org/2000/svg" xmlns:xlink="http://www.w3.org/1999/xlink" x="0px" y="0px"
	 width="85.04px" height="72.344px" viewBox="0 0 85.04 72.344" enable-background="new 0 0 85.04 72.344" xml:space="preserve">
<g>
	<path fill="#9CBAA7" d="M44.22,72.261L21.817,49.848H0.127V22.413h21.69L44.22,0V72.261z M50.697,51.645
		c4.31-4.308,6.587-10.307,6.587-16.051c0-5.639-2.033-11.031-6.106-15.223l5.87-5.872c5.873,5.988,9.342,13.786,9.342,21.807
		c0,7.318-2.872,14.988-9.469,21.456L50.697,51.645z M64.112,63.634c7.436-7.309,11.146-17.382,11.146-27.563
		c0-10.073-3.713-20.254-11.146-27.688l6.35-6.351c9.352,9.351,14.511,21.935,14.511,34.636c0,11.86-4.437,23.849-14.147,33.55
		L64.112,63.634z"/>
</g>
</svg>
