<?xml version="1.0" encoding="UTF-8" standalone="no"?>
<!-- Generator: Adobe Illustrator 14.0.0, SVG Export Plug-In . SVG Version: 6.00 Build 43363)  -->

<svg
   xmlns:dc="http://purl.org/dc/elements/1.1/"
   xmlns:cc="http://creativecommons.org/ns#"
   xmlns:rdf="http://www.w3.org/1999/02/22-rdf-syntax-ns#"
   xmlns:svg="http://www.w3.org/2000/svg"
   xmlns="http://www.w3.org/2000/svg"
   xmlns:sodipodi="http://sodipodi.sourceforge.net/DTD/sodipodi-0.dtd"
   xmlns:inkscape="http://www.inkscape.org/namespaces/inkscape"
   version="1.1"
   id="Livello_1"
   x="0px"
   y="0px"
   width="56.69px"
   height="56.689px"
   viewBox="0 0 56.69 56.689"
   enable-background="new 0 0 56.69 56.689"
   xml:space="preserve"
   sodipodi:docname="Bt_Book.svg"
   inkscape:version="0.92.4 (5da689c313, 2019-01-14)"><metadata
   id="metadata11"><rdf:RDF><cc:Work
       rdf:about=""><dc:format>image/svg+xml</dc:format><dc:type
         rdf:resource="http://purl.org/dc/dcmitype/StillImage" /></cc:Work></rdf:RDF></metadata><defs
   id="defs9" /><sodipodi:namedview
   pagecolor="#ffffff"
   bordercolor="#666666"
   borderopacity="1"
   objecttolerance="10"
   gridtolerance="10"
   guidetolerance="10"
   inkscape:pageopacity="0"
   inkscape:pageshadow="2"
   inkscape:window-width="1920"
   inkscape:window-height="1017"
   id="namedview7"
   showgrid="false"
   inkscape:zoom="4.1630652"
   inkscape:cx="28.344999"
   inkscape:cy="28.3445"
   inkscape:window-x="-8"
   inkscape:window-y="-8"
   inkscape:window-maximized="1"
   inkscape:current-layer="Livello_1" />
<rect
   x="-0.001"
   y="-0.001"
   fill="none"
   stroke="#231F20"
   stroke-width="0.4199"
   stroke-opacity="0"
   width="56.693"
   height="56.691"
   id="rect2" />
<path
   d="m 54.811375,53.847883 c 0,-0.687998 0,-38.999294 0,-38.999294 0,-0.723355 -0.814696,-1.194788 -2.143547,-1.480594 v 0 -3.4134694 L 52.169877,9.7630059 C 52.003402,9.6952374 47.991802,8.1395085 42.64251,8.1395085 c -5.72791,0 -10.669117,1.7487218 -14.692503,5.1872365 C 23.93988,9.8867571 19.003092,8.1395085 13.269289,8.1395085 c -5.3463451,0 -9.3594184,1.5557289 -9.5273664,1.6234974 L 3.2542841,9.9545256 v 3.1615474 c -1.6234974,0.303485 -2.63265862,0.842686 -2.63265862,1.733989 0,0 0,38.927106 0,39.145144 0,0.536255 0.19299288,0.79407 0.76460542,0.79407 0.1782606,0 23.2269141,0 23.2269141,0 0.830901,0.751346 2.052207,1.20952 3.40463,1.20952 1.352424,0 2.575203,-0.46112 3.406104,-1.20952 0,0 21.805249,0 22.469674,0 0.667373,0 0.917822,-0.251922 0.917822,-0.941393 z m -29.49992,-1.985912 c -2.718106,-1.045991 -7.285113,-3.068734 -13.334187,-3.068734 -2.7136865,0 -3.6462399,0.413977 -5.6999199,1.237512 V 12.50321 c 1.194788,-0.396298 2.9847602,-1.336218 6.9948869,-1.336218 5.28005,0 8.339944,1.596979 12.037747,4.701071 l 0.0015,35.993908 z m 5.293309,-35.993908 c 3.700749,-3.102618 6.75917,-4.701071 12.042166,-4.701071 3.993922,0 5.794206,0.942866 6.991941,1.336218 v 37.534905 c -2.201003,-0.88099 -3.251415,-1.322959 -6.053495,-1.322959 -6.006351,0 -10.286078,2.015376 -12.951148,3.098199 z"
   id="path4"
   style="fill:#ffffff;stroke-width:1.4732281"
   inkscape:connector-curvature="0" />
</svg>