<?xml version="1.0" encoding="utf-8"?>
<!-- Generator: Adobe Illustrator 14.0.0, SVG Export Plug-In . SVG Version: 6.00 Build 43363)  -->
<!DOCTYPE svg PUBLIC "-//W3C//DTD SVG 1.1//EN" "http://www.w3.org/Graphics/SVG/1.1/DTD/svg11.dtd">
<svg version="1.1" id="Livello_1" xmlns="http://www.w3.org/2000/svg" xmlns:xlink="http://www.w3.org/1999/xlink" x="0px" y="0px"
	 width="56.69px" height="56.689px" viewBox="0 0 56.69 56.689" enable-background="new 0 0 56.69 56.689" xml:space="preserve">
<rect x="-0.001" y="-0.001" fill="none" stroke="#231F20" stroke-width="0.4199" stroke-opacity="0" width="56.693" height="56.691"/>
<path fill="#FFFFFF" d="M46.109,38.048c0-0.467,0-21.472,0-21.472c0-0.491-0.554-0.811-1.456-1.005l0,0v-2.317l-0.338-0.13
	c-0.113-0.046-2.835-1.102-6.466-1.102c-3.887,0-7.243,1.187-9.972,3.521c-2.722-2.335-6.073-3.521-9.965-3.521
	c-3.629,0-6.353,1.056-6.467,1.102l-0.331,0.13V15.4c-1.102,0.206-1.787,0.572-1.787,1.177c0,0,0,21.423,0,21.571
	c0,0.364,0.131,0.539,0.519,0.539c0.121,0,15.766,0,15.766,0c0.564,0.51,1.393,0.823,2.311,0.823c0.918,0,1.748-0.313,2.311-0.823
	c0,0,14.8,0,15.252,0C45.939,38.687,46.109,38.516,46.109,38.048z M27.084,36.7c-1.845-0.71-5.945-2.083-10.051-2.083
	c-1.842,0-3.475,0.281-4.869,0.84V13.984c0.811-0.267,3.026-0.907,5.748-0.907c3.584,0,6.661,1.084,9.171,3.191V36.7z
	 M28.677,16.268c2.512-2.106,5.587-3.191,9.173-3.191c2.711,0,4.932,0.64,5.747,0.907v21.478c-1.495-0.598-3.207-0.9-5.109-0.9
	c-4.079,0-7.984,1.368-9.792,2.103L28.677,16.268z M43.597,35.462"/>
</svg>
