<?xml version="1.0" encoding="utf-8"?>
<!-- Generator: Adobe Illustrator 18.1.1, SVG Export Plug-In . SVG Version: 6.00 Build 0)  -->
<svg version="1.1"
	 id="Livello_5" xmlns:dc="http://purl.org/dc/elements/1.1/" xmlns:cc="http://creativecommons.org/ns#" xmlns:inkscape="http://www.inkscape.org/namespaces/inkscape" xmlns:rdf="http://www.w3.org/1999/02/22-rdf-syntax-ns#" xmlns:sodipodi="http://sodipodi.sourceforge.net/DTD/sodipodi-0.dtd" xmlns:svg="http://www.w3.org/2000/svg" sodipodi:docname="Bt_Conferma1_Dw.svg" inkscape:version="0.48.4 r9939"
	 xmlns="http://www.w3.org/2000/svg" xmlns:xlink="http://www.w3.org/1999/xlink" x="0px" y="0px" viewBox="-72 119.5 280.4 72.3"
	 enable-background="new -72 119.5 280.4 72.3" xml:space="preserve">
<sodipodi:namedview  inkscape:cx="92.351997" inkscape:cy="36.172001" guidetolerance="10" inkscape:zoom="1.9382364" gridtolerance="10" objecttolerance="10" showgrid="false" borderopacity="1" bordercolor="#666666" pagecolor="#ffffff" id="namedview3328" inkscape:window-x="17" inkscape:window-height="441" inkscape:window-width="1445" inkscape:pageshadow="2" inkscape:pageopacity="0" inkscape:current-layer="Livello_5" inkscape:window-maximized="0" inkscape:window-y="544">
	</sodipodi:namedview>
<linearGradient id="path3304_1_" gradientUnits="userSpaceOnUse" x1="290.6743" y1="702.2993" x2="290.6743" y2="630.1663" gradientTransform="matrix(1 0 0 1 -222.4805 -510.4893)">
	<stop  offset="0" style="stop-color:#CFE7D7"/>
	<stop  offset="0.2241" style="stop-color:#CCE4D4;stop-opacity:0.9664"/>
	<stop  offset="0.3973" style="stop-color:#C2DBCB;stop-opacity:0.9404"/>
	<stop  offset="0.5534" style="stop-color:#B2CBBB;stop-opacity:0.917"/>
	<stop  offset="0.6994" style="stop-color:#9AB5A5;stop-opacity:0.8951"/>
	<stop  offset="0.8385" style="stop-color:#7C9989;stop-opacity:0.8742"/>
	<stop  offset="0.9706" style="stop-color:#587767;stop-opacity:0.8544"/>
	<stop  offset="1" style="stop-color:#4F6E5E;stop-opacity:0.85"/>
</linearGradient>
<path id="path3304" sodipodi:nodetypes="sssssss" inkscape:connector-curvature="0" fill="url(#path3304_1_)" d="M172.3,119.6H-35.9
	c-20,0-36.1,16.2-36.1,36.1c0,20,16.2,36.1,36.1,36.1h208.1c20,0,36.1-16.2,36.1-36.1C208.4,135.7,192.2,119.6,172.3,119.6
	L172.3,119.6z"/>
<path id="path3306" sodipodi:nodetypes="sssssss" inkscape:connector-curvature="0" fill="#FFFFFF" d="M172.3,124H-35.9
	c-17.5,0-31.7,14.2-31.7,31.7c0,17.5,14.2,31.7,31.7,31.7h208.1c17.5,0,31.7-14.2,31.7-31.7C204,138.2,189.8,124,172.3,124z"/>
<path id="path3308" sodipodi:nodetypes="sssssss" inkscape:connector-curvature="0" fill="#CFE7D7" d="M172.3,126.6H-35.9
	c-16,0-29,13-29,29c0,16,13,29.1,29,29.1h208.1c16,0,29-13,29-29.1C201.3,139.6,188.3,126.6,172.3,126.6L172.3,126.6z"/>
<g id="g2997" transform="matrix(1.000002,0,0,1,81.472002,28.669784)">
	<path id="path2999" inkscape:connector-curvature="0" fill="#C6C7C8" d="M-63.3,129l2.5,1c-0.4,1.8-1,3-1.9,3.9s-2.1,1.2-3.4,1.2
		c-1.7,0-3-0.7-4.1-1.9c-1.2-1.5-1.8-3.5-1.8-6.1c0-2.7,0.6-4.8,1.8-6.3c1.1-1.3,2.5-2,4.3-2c1.5,0,2.7,0.5,3.6,1.5
		c0.7,0.7,1.2,1.7,1.6,3.1l-2.6,0.7c-0.2-0.9-0.5-1.5-1-1.9c-0.5-0.5-1.1-0.7-1.7-0.7c-1,0-1.7,0.4-2.3,1.2
		c-0.6,0.8-0.9,2.2-0.9,4.1c0,2,0.3,3.4,0.9,4.3c0.6,0.8,1.3,1.2,2.3,1.2c0.7,0,1.3-0.3,1.8-0.8C-63.9,131-63.5,130.1-63.3,129z"/>
	<path id="path3001" inkscape:connector-curvature="0" fill="#C6C7C8" d="M-58.5,134.8V119h2.6v6.2h5.1V119h2.6v15.7h-2.6v-6.9h-5.1
		v6.9H-58.5z"/>
	<path id="path3003" inkscape:connector-curvature="0" fill="#C6C7C8" d="M-45.6,134.8V119h2.6v15.7H-45.6z"/>
	<path id="path3005" inkscape:connector-curvature="0" fill="#C6C7C8" d="M-40.5,119h2.6v8.5c0,1.3,0,2.2,0.1,2.6
		c0.1,0.7,0.4,1.2,0.8,1.6c0.4,0.4,1,0.6,1.7,0.6c0.6,0,1.1-0.1,1.5-0.4c0.4-0.3,0.6-0.6,0.8-1.1c0.1-0.5,0.2-1.5,0.2-3V119h2.6v8.3
		c0,2.1-0.1,3.6-0.4,4.6c-0.2,1-0.7,1.7-1.5,2.3c-0.8,0.6-1.8,0.9-3.1,0.9c-1.3,0-2.4-0.2-3.2-0.7c-0.8-0.5-1.3-1.2-1.7-2
		c-0.3-0.9-0.5-2.5-0.5-4.9L-40.5,119z"/>
	<path id="path3007" inkscape:connector-curvature="0" fill="#C6C7C8" d="M-27.5,119h4.7c1.2,0,2.1,0.1,2.7,0.4
		c0.6,0.3,1.2,0.7,1.7,1.3c0.5,0.6,0.9,1.5,1.2,2.5c0.3,1,0.4,2.3,0.4,3.8c0,1.4-0.1,2.6-0.5,3.6c-0.3,1-0.7,1.8-1.2,2.4
		c-0.5,0.6-1,1-1.7,1.3c-0.7,0.3-1.5,0.4-2.6,0.4h-4.9L-27.5,119z M-24.9,121.7v10.4h1.9c0.9,0,1.5-0.1,1.8-0.2
		c0.4-0.2,0.7-0.4,0.9-0.7c0.2-0.3,0.4-0.8,0.6-1.5c0.2-0.7,0.2-1.6,0.2-2.7c0-1.2-0.1-2.1-0.2-2.8c-0.1-0.7-0.4-1.2-0.7-1.6
		s-0.7-0.6-1.2-0.7c-0.4-0.1-1.1-0.1-2.1-0.1H-24.9z"/>
	<path id="path3009" inkscape:connector-curvature="0" fill="#C6C7C8" d="M-14.5,134.8V119h2.6v15.7H-14.5z"/>
	<path id="path3011" inkscape:connector-curvature="0" fill="#C6C7C8" d="M-4.4,134.8V119h9.6v2.7h-7v3.5h6.5v2.7h-6.5v4.3h7.2v2.7
		H-4.4z"/>
	<path id="path3013" inkscape:connector-curvature="0" fill="#C6C7C8" d="M7,129.7l2.6-0.3c0.3,2,1.2,3,2.8,3c0.8,0,1.4-0.2,1.9-0.6
		c0.5-0.4,0.7-0.9,0.7-1.5c0-0.4-0.1-0.7-0.2-0.9c-0.1-0.2-0.4-0.5-0.7-0.6c-0.3-0.1-1.1-0.4-2.3-0.8c-1.1-0.3-1.9-0.7-2.4-1.1
		c-0.5-0.4-0.9-0.9-1.2-1.6c-0.3-0.6-0.4-1.3-0.4-2.1c0-0.9,0.2-1.6,0.6-2.3c0.4-0.7,0.9-1.2,1.6-1.6c0.7-0.4,1.5-0.5,2.6-0.5
		c1.5,0,2.7,0.4,3.5,1.2c0.9,0.8,1.3,2,1.3,3.5l-2.6,0.1c-0.1-0.9-0.4-1.5-0.7-1.8c-0.4-0.4-0.9-0.5-1.6-0.5s-1.2,0.2-1.6,0.5
		s-0.6,0.6-0.6,1.1c0,0.4,0.2,0.8,0.5,1.1c0.4,0.3,1.1,0.6,2.4,1c1.3,0.4,2.3,0.8,2.9,1.2c0.6,0.4,1,1,1.3,1.6
		c0.3,0.7,0.5,1.5,0.5,2.4c0,1.4-0.4,2.5-1.2,3.5c-0.9,0.9-2.2,1.4-4,1.4C9.1,135,7.3,133.2,7,129.7z"/>
	<path id="path3015" inkscape:connector-curvature="0" fill="#C6C7C8" d="M31.3,134.8h-2.8l-1.1-3.6h-5.2l-1.1,3.6h-2.8l5-15.7h2.8
		L31.3,134.8z M26.5,128.5l-1.8-5.8l-1.7,5.8H26.5z"/>
	<path id="path3017" inkscape:connector-curvature="0" fill="#C6C7C8" d="M32.7,134.8V119h3.9l2.3,10.7l2.3-10.7h3.9v15.7h-2.4
		v-12.4l-2.6,12.4h-2.5l-2.6-12.4v12.4H32.7z"/>
	<path id="path3019" inkscape:connector-curvature="0" fill="#C6C7C8" d="M47.7,134.8V119h9.6v2.7h-7v3.5h6.5v2.7h-6.5v4.3h7.2v2.7
		H47.7z"/>
</g>
</svg>
