<?xml version="1.0" encoding="UTF-8" standalone="no"?>
<!-- Generator: Adobe Illustrator 14.0.0, SVG Export Plug-In . SVG Version: 6.00 Build 43363)  -->

<svg
   xmlns:dc="http://purl.org/dc/elements/1.1/"
   xmlns:cc="http://creativecommons.org/ns#"
   xmlns:rdf="http://www.w3.org/1999/02/22-rdf-syntax-ns#"
   xmlns:svg="http://www.w3.org/2000/svg"
   xmlns="http://www.w3.org/2000/svg"
   xmlns:sodipodi="http://sodipodi.sourceforge.net/DTD/sodipodi-0.dtd"
   xmlns:inkscape="http://www.inkscape.org/namespaces/inkscape"
   version="1.1"
   id="Livello_5"
   x="0px"
   y="0px"
   width="72.248px"
   height="72.344px"
   viewBox="0 0 72.248 72.344"
   enable-background="new 0 0 72.248 72.344"
   xml:space="preserve"
   inkscape:version="0.48.4 r9939"
   sodipodi:docname="Bt_ConfermaP_Dw.svg"><metadata
   id="metadata54"><rdf:RDF><cc:Work
       rdf:about=""><dc:format>image/svg+xml</dc:format><dc:type
         rdf:resource="http://purl.org/dc/dcmitype/StillImage" /></cc:Work></rdf:RDF></metadata><defs
   id="defs52" /><sodipodi:namedview
   pagecolor="#ffffff"
   bordercolor="#666666"
   borderopacity="1"
   objecttolerance="10"
   gridtolerance="10"
   guidetolerance="10"
   inkscape:pageopacity="0"
   inkscape:pageshadow="2"
   inkscape:window-width="813"
   inkscape:window-height="749"
   id="namedview50"
   showgrid="false"
   inkscape:zoom="3.2621917"
   inkscape:cx="36.124001"
   inkscape:cy="36.172001"
   inkscape:window-x="0"
   inkscape:window-y="0"
   inkscape:window-maximized="0"
   inkscape:current-layer="Livello_5" />
<linearGradient
   id="SVGID_1_"
   gradientUnits="userSpaceOnUse"
   x1="-200.0068"
   y1="132.2336"
   x2="-127.7486"
   y2="132.2336"
   gradientTransform="matrix(0 -1 -1 0 168.4211 -127.6316)">
	<stop
   offset="0"
   style="stop-color:#CFE7D7"
   id="stop4" />
	<stop
   offset="0.2241"
   style="stop-color:#CCE4D4;stop-opacity:0.9664"
   id="stop6" />
	<stop
   offset="0.3973"
   style="stop-color:#C2DBCB;stop-opacity:0.9404"
   id="stop8" />
	<stop
   offset="0.5534"
   style="stop-color:#B2CBBB;stop-opacity:0.917"
   id="stop10" />
	<stop
   offset="0.6994"
   style="stop-color:#9AB5A5;stop-opacity:0.8951"
   id="stop12" />
	<stop
   offset="0.8385"
   style="stop-color:#7C9989;stop-opacity:0.8742"
   id="stop14" />
	<stop
   offset="0.9706"
   style="stop-color:#587767;stop-opacity:0.8544"
   id="stop16" />
	<stop
   offset="1"
   style="stop-color:#4F6E5E;stop-opacity:0.85"
   id="stop18" />
</linearGradient>
<circle
   fill="url(#SVGID_1_)"
   cx="36.188"
   cy="36.188"
   r="36.188"
   id="circle20" />
<path
   fill="#FFFFFF"
   d="M36.188,67.95c-17.54,0-31.763-14.226-31.763-31.763c0-17.542,14.224-31.763,31.763-31.763  c17.542,0,31.766,14.221,31.766,31.763C67.953,53.725,53.729,67.95,36.188,67.95z"
   id="path22" />
<path
   fill="#CFE7D7"
   d="M36.188,66.093c-16.516,0-29.906-13.392-29.906-29.905c0-16.519,13.39-29.908,29.906-29.908  s29.905,13.39,29.905,29.908C66.093,52.701,52.703,66.093,36.188,66.093z"
   id="path24" />
<path
   fill="#CFE7D7"
   d="M36.188,63.128c-14.878,0-26.938-12.069-26.938-26.94c0-14.878,12.06-26.94,26.938-26.94  c14.876,0,26.938,12.062,26.938,26.94C63.125,51.059,51.063,63.128,36.188,63.128z"
   id="path26" />

<path
   inkscape:connector-curvature="0"
   clip-rule="evenodd"
   style="fill:#9cbaa7;fill-opacity:1;fill-rule:evenodd"
   d="m 53.670061,19.309086 c -0.480144,-0.546305 -1.261812,-0.546305 -1.738678,0 l -18.322485,20.60963 c -0.480144,0.55001 -1.26345,0.55001 -1.740317,0 l -8.028072,-9.239054 c -0.237614,-0.274079 -0.54897,-0.409267 -0.861965,-0.411118 -0.316273,-0.0019 -0.637461,0.133335 -0.878352,0.411118 l -3.547822,3.603767 c -0.235975,0.274078 -0.363794,0.616677 -0.363794,0.974091 0,0.359266 0.127819,0.735199 0.365433,1.007426 l 8.09526,9.600173 c 0.478505,0.548158 1.26345,1.437063 1.740317,1.981517 l 3.480634,3.964886 c 0.478505,0.542603 1.260173,0.542603 1.740317,0 L 57.152333,25.25549 c 0.480144,-0.544455 0.480144,-1.438915 0,-1.98337 l -3.482272,-3.963034 z"
   id="path3" /></svg>