<?xml version="1.0" encoding="UTF-8" standalone="no"?>
<!-- Generator: Adobe Illustrator 14.0.0, SVG Export Plug-In . SVG Version: 6.00 Build 43363)  -->

<svg
   xmlns:dc="http://purl.org/dc/elements/1.1/"
   xmlns:cc="http://creativecommons.org/ns#"
   xmlns:rdf="http://www.w3.org/1999/02/22-rdf-syntax-ns#"
   xmlns:svg="http://www.w3.org/2000/svg"
   xmlns="http://www.w3.org/2000/svg"
   xmlns:sodipodi="http://sodipodi.sourceforge.net/DTD/sodipodi-0.dtd"
   xmlns:inkscape="http://www.inkscape.org/namespaces/inkscape"
   version="1.1"
   id="Livello_5"
   x="0px"
   y="0px"
   width="72.248px"
   height="72.344px"
   viewBox="0 0 72.248 72.344"
   enable-background="new 0 0 72.248 72.344"
   xml:space="preserve"
   inkscape:version="0.48.4 r9939"
   sodipodi:docname="Bt_ConfermaP_Up.svg"><metadata
   id="metadata54"><rdf:RDF><cc:Work
       rdf:about=""><dc:format>image/svg+xml</dc:format><dc:type
         rdf:resource="http://purl.org/dc/dcmitype/StillImage" /></cc:Work></rdf:RDF></metadata><defs
   id="defs52" /><sodipodi:namedview
   pagecolor="#ffffff"
   bordercolor="#666666"
   borderopacity="1"
   objecttolerance="10"
   gridtolerance="10"
   guidetolerance="10"
   inkscape:pageopacity="0"
   inkscape:pageshadow="2"
   inkscape:window-width="1152"
   inkscape:window-height="836"
   id="namedview50"
   showgrid="false"
   inkscape:zoom="3.2621917"
   inkscape:cx="36.124001"
   inkscape:cy="36.172001"
   inkscape:window-x="846"
   inkscape:window-y="51"
   inkscape:window-maximized="0"
   inkscape:current-layer="Livello_5" />
<linearGradient
   id="SVGID_1_"
   gradientUnits="userSpaceOnUse"
   x1="-197.6123"
   y1="132.2776"
   x2="-125.4418"
   y2="132.2776"
   gradientTransform="matrix(0 1 -1 0 168.4211 197.6125)">
	<stop
   offset="0"
   style="stop-color:#CFE7D7"
   id="stop4" />
	<stop
   offset="0.2241"
   style="stop-color:#CCE4D4;stop-opacity:0.9664"
   id="stop6" />
	<stop
   offset="0.3973"
   style="stop-color:#C2DBCB;stop-opacity:0.9404"
   id="stop8" />
	<stop
   offset="0.5534"
   style="stop-color:#B2CBBB;stop-opacity:0.917"
   id="stop10" />
	<stop
   offset="0.6994"
   style="stop-color:#9AB5A5;stop-opacity:0.8951"
   id="stop12" />
	<stop
   offset="0.8385"
   style="stop-color:#7C9989;stop-opacity:0.8742"
   id="stop14" />
	<stop
   offset="0.9706"
   style="stop-color:#587767;stop-opacity:0.8544"
   id="stop16" />
	<stop
   offset="1"
   style="stop-color:#4F6E5E;stop-opacity:0.85"
   id="stop18" />
</linearGradient>
<circle
   fill="url(#SVGID_1_)"
   cx="36.144"
   cy="36.144"
   r="36.144"
   id="circle20" />
<path
   fill="#FFFFFF"
   d="M36.144,67.868c-17.521,0-31.725-14.209-31.725-31.725c0-17.521,14.204-31.725,31.725-31.725  c17.52,0,31.728,14.204,31.728,31.725C67.871,53.659,53.663,67.868,36.144,67.868z"
   id="path22" />
<path
   fill="#9CBAA7"
   d="M36.144,66.013c-16.497,0-29.87-13.376-29.87-29.869c0-16.498,13.373-29.874,29.87-29.874  c16.495,0,29.871,13.375,29.871,29.874C66.015,52.637,52.639,66.013,36.144,66.013z"
   id="path24" />
<path
   fill="#FFFFFF"
   d="M36.144,63.049c-14.859,0-26.906-12.05-26.906-26.905c0-14.861,12.047-26.908,26.906-26.908  c14.858,0,26.905,12.047,26.905,26.908C63.049,50.999,51.002,63.049,36.144,63.049z"
   id="path26" />

<path
   inkscape:connector-curvature="0"
   clip-rule="evenodd"
   style="fill:#9cbaa7;fill-opacity:1;fill-rule:evenodd"
   d="m 53.670607,19.407499 c -0.480146,-0.544664 -1.261815,-0.544664 -1.738685,0 L 33.609373,39.9552 c -0.480146,0.548357 -1.263454,0.548357 -1.740323,0 l -8.028098,-9.211293 c -0.237615,-0.273255 -0.548972,-0.408036 -0.861967,-0.409883 -0.316275,-0.0019 -0.637463,0.132935 -0.878356,0.409883 l -3.547832,3.59294 C 18.31682,34.610102 18.189,34.951672 18.189,35.308011 c 0,0.358187 0.12782,0.73299 0.365436,1.004399 l 8.095285,9.571326 c 0.478508,0.546511 1.263455,1.432745 1.740323,1.975562 l 3.480646,3.952973 c 0.478506,0.540972 1.260177,0.540972 1.740321,0 l 23.54188,-26.476237 c 0.480145,-0.542818 0.480145,-1.434591 0,-1.977409 l -3.482284,-3.951126 z"
   id="path3" /></svg>