<?xml version="1.0" encoding="utf-8"?>
<!-- Generator: Adobe Illustrator 14.0.0, SVG Export Plug-In . SVG Version: 6.00 Build 43363)  -->
<!DOCTYPE svg PUBLIC "-//W3C//DTD SVG 1.1//EN" "http://www.w3.org/Graphics/SVG/1.1/DTD/svg11.dtd">
<svg version="1.1" id="Livello_2" xmlns="http://www.w3.org/2000/svg" xmlns:xlink="http://www.w3.org/1999/xlink" x="0px" y="0px"
	 width="72.248px" height="72.344px" viewBox="0 0 72.248 72.344" enable-background="new 0 0 72.248 72.344" xml:space="preserve">
<linearGradient id="SVGID_1_" gradientUnits="userSpaceOnUse" x1="36.1011" y1="2.441406e-004" x2="36.1011" y2="72.2039">
	<stop  offset="0" style="stop-color:#F7CCD3"/>
	<stop  offset="0.3079" style="stop-color:#F5C9D0"/>
	<stop  offset="0.5457" style="stop-color:#EDC1C6"/>
	<stop  offset="0.7601" style="stop-color:#E1B2B6"/>
	<stop  offset="0.9595" style="stop-color:#D09E9F"/>
	<stop  offset="1" style="stop-color:#CC9999"/>
</linearGradient>
<circle fill="url(#SVGID_1_)" cx="36.102" cy="36.102" r="36.102"/>
<path fill="#FFFFFF" d="M36.1,67.789c-17.499,0-31.688-14.191-31.688-31.688c0-17.5,14.188-31.688,31.688-31.688
	c17.5,0,31.692,14.187,31.692,31.688C67.792,53.598,53.601,67.789,36.1,67.789z"/>
<path fill="#F7CCD3" d="M36.102,65.132c-16.033,0-29.029-13.005-29.029-29.033c0-16.033,12.996-29.03,29.029-29.03
	c16.031,0,29.027,12.998,29.027,29.03C65.129,52.127,52.133,65.132,36.102,65.132z"/>
<polygon fill="#FFFFFF" points="61.27,21.54 10.934,21.537 36.1,65.132 "/>
<polygon fill="#F7CCD3" points="36.102,56.745 53.897,25.927 18.308,25.924 "/>
</svg>
