<?xml version="1.0" encoding="UTF-8" standalone="no"?>
<!-- Generator: Adobe Illustrator 14.0.0, SVG Export Plug-In . SVG Version: 6.00 Build 43363)  -->

<svg
   xmlns:dc="http://purl.org/dc/elements/1.1/"
   xmlns:cc="http://creativecommons.org/ns#"
   xmlns:rdf="http://www.w3.org/1999/02/22-rdf-syntax-ns#"
   xmlns:svg="http://www.w3.org/2000/svg"
   xmlns="http://www.w3.org/2000/svg"
   xmlns:sodipodi="http://sodipodi.sourceforge.net/DTD/sodipodi-0.dtd"
   xmlns:inkscape="http://www.inkscape.org/namespaces/inkscape"
   version="1.1"
   id="Livello_3"
   x="0px"
   y="0px"
   width="73.001px"
   height="72.344px"
   viewBox="0 0 73.001 72.344"
   enable-background="new 0 0 73.001 72.344"
   xml:space="preserve"
   inkscape:version="0.48.4 r9939"
   sodipodi:docname="Bt_Dub.svg"><metadata
   id="metadata17"><rdf:RDF><cc:Work
       rdf:about=""><dc:format>image/svg+xml</dc:format><dc:type
         rdf:resource="http://purl.org/dc/dcmitype/StillImage" /><dc:title /></cc:Work></rdf:RDF></metadata><defs
   id="defs15" /><sodipodi:namedview
   pagecolor="#ffffff"
   bordercolor="#666666"
   borderopacity="1"
   objecttolerance="10"
   gridtolerance="10"
   guidetolerance="10"
   inkscape:pageopacity="0"
   inkscape:pageshadow="2"
   inkscape:window-width="1920"
   inkscape:window-height="1027"
   id="namedview13"
   showgrid="false"
   inkscape:zoom="3.2621917"
   inkscape:cx="-11.320112"
   inkscape:cy="36.172001"
   inkscape:window-x="-8"
   inkscape:window-y="-8"
   inkscape:window-maximized="1"
   inkscape:current-layer="Livello_3" />
<rect
   x="0"
   fill="#262769"
   width="73.001"
   height="72.344"
   id="rect3" />
<rect
   x="4.275"
   y="4.493"
   fill="#FFFFFF"
   width="64.451"
   height="63.356"
   id="rect5" />
<path
   fill="#262769"
   d="M36.503,7.215c-15.993,0-28.957,12.962-28.957,28.957c0,15.993,12.963,28.957,28.957,28.957  c15.988,0,28.951-12.964,28.951-28.957C65.454,20.178,52.491,7.215,36.503,7.215z M36.503,60.941  c-13.684,0-24.775-11.092-24.775-24.771c0-13.683,11.093-24.771,24.775-24.771c13.684,0,24.771,11.088,24.771,24.771  C61.274,49.85,50.186,60.941,36.503,60.941z"
   id="path7" />

<text
   xml:space="preserve"
   style="font-size:48px;font-style:normal;font-variant:normal;font-weight:bold;font-stretch:normal;text-align:start;line-height:125%;letter-spacing:0px;word-spacing:0px;writing-mode:lr-tb;text-anchor:start;fill:#262769;fill-opacity:1;stroke:none;font-family:Sans;-inkscape-font-specification:Sans Bold"
   x="21.443018"
   y="53.01688"
   id="text3766"
   sodipodi:linespacing="125%"><tspan
     sodipodi:role="line"
     id="tspan3768"
     x="21.443018"
     y="53.01688">?</tspan></text>

<path
   style="fill:#ffff00;fill-opacity:1;stroke:none"
   d="m 0.02195597,36.172 0,-36.17200043976318 36.47854303,0 36.478544,0 0,36.17200043976318 0,36.172001 -36.478544,0 -36.47854303,0 0,-36.172001 z m 68.97203603,0 0,-31.8804071 -32.493493,0 -32.4934921,0 0,31.8804071 0,31.880408 32.4934921,0 32.493493,0 0,-31.880408 z"
   id="path2986"
   inkscape:connector-curvature="0" /><path
   style="fill:#ffff00;fill-opacity:1;stroke:none"
   d="M 31.576503,64.512083 C 25.598719,63.429442 20.6991,60.834196 16.268702,56.403798 11.750557,51.885651 9.2214852,47.045393 8.1407836,40.848191 7.3041432,36.050539 7.7429043,31.296005 9.4736208,26.405203 12.195384,18.713819 19.042318,11.866886 26.733702,9.145122 c 6.537227,-2.3133402 12.996368,-2.3133402 19.533596,0 7.691384,2.721764 14.538315,9.568697 17.26008,17.260081 2.313341,6.537228 2.313341,12.996369 0,19.533596 -2.721765,7.691385 -9.568696,14.538315 -17.26008,17.260081 -4.852109,1.717023 -9.94664,2.172423 -14.690795,1.313203 l 0,0 z m 9.967713,-3.972333 c 4.876249,-1.032953 9.194469,-3.382477 12.660409,-6.888479 4.69004,-4.744243 7.125807,-10.71907 7.125807,-17.479271 0,-8.542163 -4.128694,-16.203833 -11.238015,-20.854534 -8.165032,-5.3413146 -19.030132,-5.3403635 -27.183835,0.0024 -7.109427,4.658477 -11.238016,12.31908 -11.238016,20.852155 0,11.833205 8.078773,21.8454 19.652983,24.356359 2.604828,0.565105 7.580586,0.57065 10.220667,0.0114 l 0,-1.2e-5 z"
   id="path2988"
   inkscape:connector-curvature="0" /><path
   style="fill:#ffff00;fill-opacity:1;stroke:none"
   d="m 33.201354,42.226212 c 0.334626,-4.089758 1.002558,-5.089791 7.023011,-10.514903 2.436317,-2.195398 2.762519,-4.457026 0.953021,-6.607493 -1.085195,-1.289681 -2.424914,-1.806596 -4.682264,-1.806596 -1.940238,0 -3.261795,0.478279 -4.545955,1.645205 -0.825044,0.749724 -1.886058,2.684998 -1.886058,3.440141 0,0.450338 -0.266258,0.48614 -2.222432,0.298837 -3.332234,-0.319059 -3.602336,-0.420809 -3.598878,-1.355728 0.0049,-1.320871 1.390345,-3.905216 2.906245,-5.421117 4.577163,-4.577162 13.839246,-4.559122 18.434272,0.0359 2.012799,2.012799 2.701857,3.570571 2.701857,6.108164 0,3.269958 -1.022545,4.814472 -6.165498,9.312745 -2.479531,2.168717 -3.165837,3.333064 -3.165837,5.370981 l 0,1.409749 -2.954121,0 -2.954122,0 0.156759,-1.91589 0,0 z"
   id="path2990"
   inkscape:connector-curvature="0" /><path
   style="fill:#ffcc00;fill-opacity:1;stroke:none"
   d="m 33.128533,49.813136 0,-3.218695 3.218695,0 3.218695,0 0,3.218695 0,3.218695 -3.218695,0 -3.218695,0 0,-3.218695 z"
   id="path2992"
   inkscape:connector-curvature="0" /><path
   style="fill:#ffcc00;fill-opacity:1;stroke:none"
   d="m 33.237726,43.299111 c 0.08685,-0.463646 0.248891,-1.529475 0.360095,-2.368509 0.313703,-2.366888 1.206493,-3.766756 4.305652,-6.751127 1.575748,-1.517385 3.215172,-3.233999 3.643164,-3.814699 1.585872,-2.151712 0.678389,-5.398102 -1.843489,-6.594811 -0.85056,-0.403617 -1.70511,-0.508176 -3.489736,-0.426988 -3.069905,0.139657 -4.493398,1.005271 -5.696268,3.463849 l -0.832523,1.701615 -1.573374,-0.03627 c -2.674074,-0.06164 -3.400226,-0.319338 -3.507379,-1.244698 -0.188659,-1.629244 1.773447,-4.589569 4.184691,-6.313647 7.581809,-5.421113 20.190823,-0.284222 19.23635,7.836856 -0.303069,2.578642 -0.892058,3.483088 -4.691853,7.204765 -1.929044,1.889386 -3.703748,3.807743 -3.943786,4.263016 -0.240037,0.455273 -0.436432,1.524339 -0.436432,2.375704 l 0,1.547934 -2.936509,0 -2.936509,0 0.157906,-0.842991 0,0 z"
   id="path2994"
   inkscape:connector-curvature="0" /><path
   style="fill:#ffcc00;fill-opacity:1;stroke:none"
   d="M 31.136008,64.238567 C 20.608192,62.156347 11.723423,53.833731 8.8639984,43.375746 7.8705404,39.7423 7.8624412,32.776988 8.8474236,29.121526 11.479694,19.352656 19.460646,11.313567 29.296753,8.5232323 31.368861,7.935411 32.485791,7.8275459 36.500499,7.8275459 c 4.014709,0 5.131639,0.1078651 7.203746,0.6956864 C 53.45904,11.2905 61.381999,19.21346 64.149267,28.968255 c 0.587823,2.072107 0.695686,3.189037 0.695686,7.203745 0,4.014709 -0.107863,5.131639 -0.695686,7.203746 -2.772001,9.771486 -10.844911,17.827607 -20.445022,20.402505 -3.149373,0.844708 -9.456732,1.075718 -12.568237,0.460316 l 0,0 z m 11.369669,-3.849948 c 9.651928,-2.441365 16.71552,-9.886854 18.542767,-19.545299 0.221136,-1.168886 0.304899,-3.446176 0.21423,-5.824307 C 61.135373,31.680147 60.971649,30.691881 60.133286,28.201899 57.27495,19.712476 50.727465,13.822725 41.891188,11.792324 39.433475,11.22759 34.009853,11.146115 31.748734,11.63996 21.51562,13.874952 14.203603,21.052541 12.113376,30.914332 c -1.004693,4.740194 -0.343334,11.260624 1.585684,15.633454 3.011642,6.827002 9.848183,12.415929 17.130405,14.00425 2.94675,0.642712 8.813814,0.560599 11.676212,-0.163417 l 0,0 z"
   id="path2996"
   inkscape:connector-curvature="0" /><path
   style="fill:#ffcc00;fill-opacity:1;stroke:none"
   d="m 0.02195597,36.172 0,-36.17200043976318 36.47854303,0 36.478544,0 0,36.17200043976318 0,36.172001 -36.478544,0 -36.47854303,0 0,-36.172001 z m 68.97203603,0 0,-31.8804071 -32.493493,0 -32.4934921,0 0,31.8804071 0,31.880408 32.4934921,0 32.493493,0 0,-31.880408 z"
   id="path2998"
   inkscape:connector-curvature="0" /></svg>