<?xml version="1.0" encoding="utf-8"?>
<!-- Generator: Adobe Illustrator 14.0.0, SVG Export Plug-In . SVG Version: 6.00 Build 43363)  -->
<!DOCTYPE svg PUBLIC "-//W3C//DTD SVG 1.1//EN" "http://www.w3.org/Graphics/SVG/1.1/DTD/svg11.dtd">
<svg version="1.1" id="Livello_2" xmlns="http://www.w3.org/2000/svg" xmlns:xlink="http://www.w3.org/1999/xlink" x="0px" y="0px"
	 width="72.248px" height="72.344px" viewBox="0 0 72.248 72.344" enable-background="new 0 0 72.248 72.344" xml:space="preserve">
<linearGradient id="SVGID_1_" gradientUnits="userSpaceOnUse" x1="-521.0557" y1="132.2961" x2="-448.9222" y2="132.2961" gradientTransform="matrix(0 1 -1 0 168.4211 521.0559)">
	<stop  offset="0" style="stop-color:#CFE7D7"/>
	<stop  offset="0.2241" style="stop-color:#CCE4D4;stop-opacity:0.9664"/>
	<stop  offset="0.3973" style="stop-color:#C2DBCB;stop-opacity:0.9404"/>
	<stop  offset="0.5534" style="stop-color:#B2CBBB;stop-opacity:0.917"/>
	<stop  offset="0.6994" style="stop-color:#9AB5A5;stop-opacity:0.8951"/>
	<stop  offset="0.8385" style="stop-color:#7C9989;stop-opacity:0.8742"/>
	<stop  offset="0.9706" style="stop-color:#587767;stop-opacity:0.8544"/>
	<stop  offset="1" style="stop-color:#4F6E5E;stop-opacity:0.85"/>
</linearGradient>
<path fill="url(#SVGID_1_)" d="M36.125,72.25C16.174,72.25,0,56.079,0,36.125C0,16.177,16.174,0,36.125,0
	C56.079,0,72.25,16.177,72.25,36.125C72.25,56.079,56.079,72.25,36.125,72.25z"/>
<path fill="#FFFFFF" d="M36.125,67.833c-17.512,0-31.709-14.201-31.709-31.708c0-17.512,14.198-31.708,31.709-31.708
	c17.51,0,31.711,14.196,31.711,31.708C67.836,53.632,53.635,67.833,36.125,67.833z"/>
<path fill="#CFE7D7" d="M36.125,65.174c-16.043,0-29.048-13.014-29.048-29.051c0-16.043,13.005-29.049,29.048-29.049
	S65.174,20.08,65.174,36.123C65.174,52.16,52.168,65.174,36.125,65.174z"/>
<polygon fill="#FFFFFF" points="61.308,21.554 10.941,21.552 36.125,65.174 "/>
<polygon fill="#CFE7D7" points="36.125,56.782 53.931,25.944 18.319,25.941 "/>
</svg>
