<?xml version="1.0" encoding="utf-8"?>
<!-- Generator: Adobe Illustrator 14.0.0, SVG Export Plug-In . SVG Version: 6.00 Build 43363)  -->
<!DOCTYPE svg PUBLIC "-//W3C//DTD SVG 1.1//EN" "http://www.w3.org/Graphics/SVG/1.1/DTD/svg11.dtd">
<svg version="1.1" id="Livello_3" xmlns="http://www.w3.org/2000/svg" xmlns:xlink="http://www.w3.org/1999/xlink" x="0px" y="0px"
	 width="73.001px" height="72.344px" viewBox="0 0 73.001 72.344" enable-background="new 0 0 73.001 72.344" xml:space="preserve">
<rect x="0" fill="#FFFFFF" width="73.001" height="72.344"/>
<path fill="#262769" d="M0.001,0v72.344h73.001V0H0.001z M65.198,4.493l-9.783,9.783c-5.076-4.388-11.679-7.062-18.913-7.062
	c-7.327,0-14.001,2.744-19.104,7.234L7.446,4.493H65.198z M33.799,30.849v-3.984h9.027l-6.505,6.504L33.799,30.849z M28.712,22.106
	v3.656l-8.354-8.357c4.337-3.735,9.973-6.006,16.144-6.006c6.083,0,11.642,2.199,15.954,5.834l-6.464,6.464v-1.59H28.712z
	 M28.712,31.105v9.87L17.563,52.125c-3.638-4.313-5.837-9.875-5.837-15.956c0-6.147,2.256-11.761,5.96-16.089L28.712,31.105z
	 M28.712,46.319v3.915h5.087v-9.002l2.522-2.52l16.272,16.271c-4.332,3.705-9.942,5.958-16.092,5.958
	c-6.238,0-11.925-2.325-16.283-6.13L28.712,46.319z M41.234,38.281h3.093v-4.758h-2.815l13.631-13.634
	c3.808,4.354,6.13,10.04,6.13,16.28c0,6.174-2.271,11.808-6.006,16.144L41.234,38.281z M4.276,6.667l10.456,10.456
	c-4.465,5.094-7.188,11.746-7.188,19.049c0,7.236,2.672,13.837,7.06,18.913L4.276,65.415V6.667z M7.184,67.851L17.26,57.771
	c5.118,4.563,11.848,7.358,19.242,7.358c7.301,0,13.955-2.726,19.046-7.188l9.911,9.909H7.184z M68.727,65.774L58.225,55.272
	c4.485-5.1,7.229-11.771,7.229-19.101c0-7.396-2.795-14.12-7.357-19.237l10.63-10.628V65.774z"/>
</svg>
