<?xml version="1.0" encoding="utf-8"?>
<!-- Generator: Adobe Illustrator 14.0.0, SVG Export Plug-In . SVG Version: 6.00 Build 43363)  -->
<!DOCTYPE svg PUBLIC "-//W3C//DTD SVG 1.1//EN" "http://www.w3.org/Graphics/SVG/1.1/DTD/svg11.dtd">
<svg version="1.1" id="Livello_3_copia" xmlns="http://www.w3.org/2000/svg" xmlns:xlink="http://www.w3.org/1999/xlink" x="0px"
	 y="0px" width="73.001px" height="72.344px" viewBox="0 0 73.001 72.344" enable-background="new 0 0 73.001 72.344"
	 xml:space="preserve">
<rect x="0" fill="#1B4417" width="73.001" height="72.344"/>
<rect x="4.275" y="4.493" fill="#FFFFFF" width="64.451" height="63.356"/>
<path fill="#1B4417" d="M36.503,7.215c-15.993,0-28.957,12.962-28.957,28.957c0,15.993,12.963,28.957,28.957,28.957
	c15.988,0,28.951-12.964,28.951-28.957C65.454,20.178,52.491,7.215,36.503,7.215z M36.503,60.941
	c-13.684,0-24.776-11.092-24.776-24.771c0-13.683,11.093-24.771,24.776-24.771c13.683,0,24.771,11.088,24.771,24.771
	C61.274,49.85,50.186,60.941,36.503,60.941z"/>
<g>
	<path fill="#1B4417" d="M28.715,50.234V22.106h17.277v4.758h-12.19v6.659h10.523v4.758H33.802v11.953H28.715z"/>
</g>
</svg>
