<?xml version="1.0" encoding="utf-8"?>
<!-- Generator: Adobe Illustrator 14.0.0, SVG Export Plug-In . SVG Version: 6.00 Build 43363)  -->
<!DOCTYPE svg PUBLIC "-//W3C//DTD SVG 1.1//EN" "http://www.w3.org/Graphics/SVG/1.1/DTD/svg11.dtd">
<svg version="1.1" id="Livello_1" xmlns="http://www.w3.org/2000/svg" xmlns:xlink="http://www.w3.org/1999/xlink" x="0px" y="0px"
	 width="48.821px" height="72.344px" viewBox="0 0 48.821 72.344" enable-background="new 0 0 48.821 72.344" xml:space="preserve">
<g>
	<path fill="#FFFFFF" d="M24.436,11.637c-3.528,0-6.165,0.979-7.911,2.938c-1.751,1.955-2.688,4.965-2.814,9.037H0
		C0.227,16.21,2.491,10.419,6.809,6.255c4.311-4.172,10.19-6.253,17.627-6.253c7.472,0,13.405,1.874,17.796,5.625
		c4.392,3.752,6.589,8.818,6.589,15.198c0,3.401-1.021,6.597-3.058,9.596c-2.035,3-5.428,6.277-10.17,9.835
		c-1.858,1.411-3.15,2.926-3.871,4.545c-0.725,1.619-1.033,3.744-0.941,6.373H17.989c-0.127-4.521,0.625-8.334,2.263-11.446
		c1.631-3.112,4.473-6.077,8.509-8.898c1.928-1.345,3.289-2.771,4.095-4.279c0.798-1.508,1.199-3.416,1.199-5.726
		c0-2.818-0.864-5.062-2.595-6.731C29.726,12.455,27.385,11.637,24.436,11.637z M17.171,58.149h14.428v13.756H17.171V58.149z"/>
</g>
</svg>
