<?xml version="1.0" encoding="UTF-8" standalone="no"?>
<!-- Generator: Adobe Illustrator 14.0.0, SVG Export Plug-In . SVG Version: 6.00 Build 43363)  -->

<svg
   xmlns:dc="http://purl.org/dc/elements/1.1/"
   xmlns:cc="http://creativecommons.org/ns#"
   xmlns:rdf="http://www.w3.org/1999/02/22-rdf-syntax-ns#"
   xmlns:svg="http://www.w3.org/2000/svg"
   xmlns="http://www.w3.org/2000/svg"
   xmlns:sodipodi="http://sodipodi.sourceforge.net/DTD/sodipodi-0.dtd"
   xmlns:inkscape="http://www.inkscape.org/namespaces/inkscape"
   version="1.1"
   id="Livello_5"
   x="0px"
   y="0px"
   width="280.39001"
   height="72.339996"
   viewBox="0 0 280.39002 72.339995"
   enable-background="new 0 0 184.704 72.344"
   xml:space="preserve"
   inkscape:version="0.48.4 r9939"
   sodipodi:docname="Bt_Modifica1_Dw.svg"><metadata
   id="metadata3332"><rdf:RDF><cc:Work
       rdf:about=""><dc:format>image/svg+xml</dc:format><dc:type
         rdf:resource="http://purl.org/dc/dcmitype/StillImage" /></cc:Work></rdf:RDF></metadata><defs
   id="defs3330" /><sodipodi:namedview
   pagecolor="#ffffff"
   bordercolor="#666666"
   borderopacity="1"
   objecttolerance="10"
   gridtolerance="10"
   guidetolerance="10"
   inkscape:pageopacity="0"
   inkscape:pageshadow="2"
   inkscape:window-width="1445"
   inkscape:window-height="423"
   id="namedview3328"
   showgrid="false"
   inkscape:zoom="2.0792405"
   inkscape:cx="92.351997"
   inkscape:cy="36.172001"
   inkscape:window-x="2"
   inkscape:window-y="596"
   inkscape:window-maximized="0"
   inkscape:current-layer="Livello_5" />
<linearGradient
   id="SVGID_1_"
   gradientUnits="userSpaceOnUse"
   x1="314.69189"
   y1="-271.01929"
   x2="314.69189"
   y2="-198.88631"
   gradientTransform="matrix(1,0,0,-1,-222.4805,-198.6793)">
	<stop
   offset="0"
   style="stop-color:#CFE7D7"
   id="stop3288" />
	<stop
   offset="0.2241"
   style="stop-color:#CCE4D4;stop-opacity:0.9664"
   id="stop3290" />
	<stop
   offset="0.3973"
   style="stop-color:#C2DBCB;stop-opacity:0.9404"
   id="stop3292" />
	<stop
   offset="0.5534"
   style="stop-color:#B2CBBB;stop-opacity:0.917"
   id="stop3294" />
	<stop
   offset="0.6994"
   style="stop-color:#9AB5A5;stop-opacity:0.8951"
   id="stop3296" />
	<stop
   offset="0.8385"
   style="stop-color:#7C9989;stop-opacity:0.8742"
   id="stop3298" />
	<stop
   offset="0.9706"
   style="stop-color:#587767;stop-opacity:0.8544"
   id="stop3300" />
	<stop
   offset="1"
   style="stop-color:#4F6E5E;stop-opacity:0.85"
   id="stop3302" />
</linearGradient>
<path
   d="m 244.26253,0.09000189 -208.13753,0 C 16.174,0.09000189 0,16.266002 0,36.215002 c 0,19.954 16.174,36.125 36.125,36.125 l 208.13753,0 c 19.953,0 36.125,-16.171 36.125,-36.125 0,-19.949 -16.172,-36.12500011 -36.125,-36.12500011 z"
   id="path3304"
   inkscape:connector-curvature="0"
   style="fill:url(#SVGID_1_)"
   sodipodi:nodetypes="sssssss" />
<path
   d="m 244.26253,4.5060019 -208.13753,0 c -17.513,0 -31.708,14.1970001 -31.708,31.7080001 0,17.508 14.195,31.708 31.708,31.708 l 208.13753,0 c 17.508,0 31.709,-14.2 31.709,-31.708 0,-17.51 -14.201,-31.7080001 -31.709,-31.7080001 z"
   id="path3306"
   inkscape:connector-curvature="0"
   style="fill:#ffffff"
   sodipodi:nodetypes="sssssss" />
<path
   d="m 244.26253,7.1630019 -208.13753,0 c -16.042,0 -29.048,13.0060001 -29.048,29.0500001 0,16.037 13.006,29.052 29.048,29.052 l 208.13753,0 c 16.041,0 29.047,-13.015 29.047,-29.052 0,-16.044 -13.006,-29.0500001 -29.047,-29.0500001 z"
   id="path3308"
   inkscape:connector-curvature="0"
   style="fill:#cfe7d7"
   sodipodi:nodetypes="sssssss" />

<g
   id="g2997"
   transform="translate(35.829045,27.940784)"
   style="fill:#c6c7c8;fill-opacity:0.94901961"><path
     id="path2999"
     d="m 0,16.015747 0,-15.73228245 5.4921261,0 c 1.4173229,0 2.4094489,0.14173227 3.0118111,0.42519682 0.6023622,0.28346455 1.0984252,0.77952753 1.488189,1.45275583 0.3897638,0.7086613 0.5669288,1.559055 0.5669288,2.5157478 0,1.2401574 -0.283464,2.2322834 -0.8858264,2.9763778 -0.6023622,0.7440944 -1.4173229,1.2401574 -2.5157481,1.4173227 0.5669291,0.4251969 1.0275591,0.8503937 1.3818898,1.3110235 0.3543307,0.496063 0.8503937,1.346457 1.4881887,2.586614 l 1.559055,3.047244 -3.0826768,0 -1.9133859,-3.401575 C 5.917323,11.374015 5.456693,10.594487 5.2086615,10.27559 4.96063,9.9566922 4.7125985,9.7440938 4.464567,9.6377946 4.1811025,9.5314954 3.7559056,9.4606293 3.1535434,9.4606293 l -0.5669292,0 0,6.5551177 z m 2.5866142,-9.0708656 1.948819,0 c 1.1692914,0 1.9488189,-0.070866 2.2677166,-0.1417323 C 7.1220474,6.6968499 7.3700789,6.4842515 7.5826774,6.1653539 7.7598427,5.8464563 7.8661419,5.4212595 7.8661419,4.8897635 7.8661419,4.3937005 7.7598427,4.0039367 7.5826774,3.6850391 7.3700789,3.4015746 7.0866143,3.1889762 6.7677167,3.0472439 6.5196852,2.9763778 5.8110238,2.9409447 4.6417324,2.9409447 l -2.0551182,0 z"
     style="fill:#c6c7c8;fill-opacity:0.94901961;fill-rule:nonzero;stroke:none"
     inkscape:connector-curvature="0" /><path
     id="path3001"
     d="m 12.933071,16.015747 0,-15.73228245 2.586614,0 0,15.73228245 z"
     style="fill:#c6c7c8;fill-opacity:0.94901961;fill-rule:nonzero;stroke:none"
     inkscape:connector-curvature="0" /><path
     id="path3003"
     d="m 20.940945,16.015747 0,-13.0748023 -3.826771,0 0,-2.65748015 10.240157,0 0,2.65748015 -3.791338,0 0,13.0748023 z"
     style="fill:#c6c7c8;fill-opacity:0.94901961;fill-rule:nonzero;stroke:none"
     inkscape:connector-curvature="0" /><path
     id="path3005"
     d="m 28.559056,8.255905 c 0,-1.8779527 0.283464,-3.4370077 0.850394,-4.641732 C 29.940946,2.4094487 30.68504,1.4881889 31.570867,0.92125978 32.456694,0.31889762 33.555119,0 34.83071,0 c 1.842519,0 3.366141,0.70866137 4.5,2.1259841 1.169291,1.4173227 1.771653,3.4370077 1.771653,6.0236217 0,2.6574802 -0.637795,4.7125982 -1.877953,6.2007872 -1.062992,1.311023 -2.515748,1.948819 -4.3937,1.948819 -1.877953,0 -3.330709,-0.637796 -4.429134,-1.948819 -1.204725,-1.488189 -1.84252,-3.507874 -1.84252,-6.094488 z m 2.692913,-0.1062992 c 0,1.8070864 0.354331,3.1535432 1.027559,4.0748032 0.673229,0.921259 1.523622,1.346456 2.551182,1.346456 1.027559,0 1.877952,-0.425197 2.551181,-1.346456 0.673228,-0.885827 1.027559,-2.2677168 1.027559,-4.1456694 0,-1.8070865 -0.354331,-3.1535431 -0.992126,-4.0393698 -0.673229,-0.8858267 -1.523622,-1.3110235 -2.586614,-1.3110235 -1.062993,0 -1.913386,0.4606299 -2.586615,1.3110235 -0.673228,0.8858267 -0.992126,2.2677164 -0.992126,4.110236 z"
     style="fill:#c6c7c8;fill-opacity:0.94901961;fill-rule:nonzero;stroke:none"
     inkscape:connector-curvature="0" /><path
     id="path3007"
     d="m 43.157481,16.015747 0,-15.73228245 5.456693,0 c 1.417323,0 2.409449,0.14173227 3.011812,0.42519682 0.602362,0.28346455 1.098425,0.77952753 1.488189,1.45275583 0.389763,0.7086613 0.602362,1.559055 0.602362,2.5157478 0,1.2401574 -0.318898,2.2322834 -0.885827,2.9763778 -0.602362,0.7440944 -1.452756,1.2401574 -2.551181,1.4173227 0.566929,0.4251969 1.027559,0.8503937 1.417323,1.3110235 0.35433,0.496063 0.850393,1.346457 1.488189,2.586614 l 1.559055,3.047244 -3.11811,0 -1.877953,-3.401575 C 49.074804,11.374015 48.614174,10.594487 48.366143,10.27559 48.118111,9.9566922 47.87008,9.7440938 47.586615,9.6377946 47.303151,9.5314954 46.877954,9.4606293 46.275592,9.4606293 l -0.531496,0 0,6.5551177 z m 2.586615,-9.0708656 1.913385,0 c 1.204725,0 1.948819,-0.070866 2.267717,-0.1417323 0.318898,-0.1062992 0.602362,-0.3188976 0.779528,-0.6377952 0.212598,-0.3188976 0.318897,-0.7440944 0.318897,-1.2755904 0,-0.496063 -0.106299,-0.8858268 -0.318897,-1.2047244 C 50.52756,3.4015746 50.244096,3.1889762 49.889765,3.0472439 49.641734,2.9763778 48.933072,2.9409447 47.763781,2.9409447 l -2.019685,0 z"
     style="fill:#c6c7c8;fill-opacity:0.94901961;fill-rule:nonzero;stroke:none"
     inkscape:connector-curvature="0" /><path
     id="path3009"
     d="m 56.196852,16.015747 0,-15.73228245 2.515748,0 5.279528,10.52362145 0,-10.52362145 2.444882,0 0,15.73228245 -2.622048,0 -5.208661,-10.2401568 0,10.2401568 z"
     style="fill:#c6c7c8;fill-opacity:0.94901961;fill-rule:nonzero;stroke:none"
     inkscape:connector-curvature="0" /><path
     id="path3011"
     d="m 80.822837,16.015747 -2.834646,0 -1.133858,-3.57874 -5.173229,0 -1.062992,3.57874 -2.76378,0 5.031497,-15.73228245 2.763779,0 z M 76.003939,9.81496 74.232285,3.9685037 72.496065,9.81496 z"
     style="fill:#c6c7c8;fill-opacity:0.94901961;fill-rule:nonzero;stroke:none"
     inkscape:connector-curvature="0" /><path
     id="path3013"
     d="m 89.043309,8.1141727 -2.232283,-0.496063 c 0.283464,-1.1692912 0.708661,-1.9842518 1.346456,-2.4803148 0.637796,-0.531496 1.523623,-0.7795275 2.692914,-0.7795275 1.062992,0 1.84252,0.1417323 2.409449,0.4606299 0.531496,0.2834646 0.92126,0.6732283 1.169291,1.1692913 0.248032,0.531496 0.354331,1.4527558 0.354331,2.7637793 l 0,3.5433071 c 0,0.992126 0.03543,1.700787 0.106299,2.19685 0.07087,0.496063 0.212599,0.992126 0.425197,1.523622 l -2.444882,0 -0.318898,-1.240157 c -0.425196,0.496063 -0.885826,0.885826 -1.346456,1.133858 -0.496063,0.248031 -0.992126,0.389764 -1.559055,0.389764 -0.885827,0 -1.629922,-0.318898 -2.232284,-0.92126 -0.566929,-0.637796 -0.850394,-1.417323 -0.850394,-2.444882 0,-0.637795 0.106299,-1.204724 0.354331,-1.700787 0.212598,-0.46063 0.566929,-0.850394 0.992126,-1.133858 0.425197,-0.283465 1.098425,-0.5314965 2.055118,-0.779528 1.133858,-0.2480315 1.948819,-0.4960629 2.409449,-0.7440944 0,-0.6023622 -0.07087,-1.027559 -0.141732,-1.2401574 C 92.125987,7.1574798 91.984254,6.9803145 91.736223,6.8740153 91.488191,6.732283 91.169294,6.6614169 90.708664,6.6614169 c -0.425197,0 -0.779528,0.1062992 -1.027559,0.3188976 -0.248032,0.2125984 -0.46063,0.5669291 -0.637796,1.1338582 z m 3.330709,2.4448813 c -0.318898,0.1063 -0.814961,0.283465 -1.488189,0.46063 -0.779528,0.177166 -1.275591,0.389764 -1.488189,0.637796 -0.248031,0.248031 -0.354331,0.566929 -0.354331,0.956692 0,0.425197 0.1063,0.814961 0.389764,1.098426 0.248032,0.283464 0.566929,0.460629 0.956693,0.460629 0.354331,0 0.708661,-0.141732 1.062992,-0.35433 0.354331,-0.248032 0.566929,-0.531496 0.708662,-0.885827 0.141732,-0.318898 0.212598,-0.92126 0.212598,-1.771653 z"
     style="fill:#c6c7c8;fill-opacity:0.94901961;fill-rule:nonzero;stroke:none"
     inkscape:connector-curvature="0" /><path
     id="path3015"
     d="m 97.263782,16.015747 0,-15.73228245 2.480315,0 0,15.73228245 z"
     style="fill:#c6c7c8;fill-opacity:0.94901961;fill-rule:nonzero;stroke:none"
     inkscape:connector-curvature="0" /><path
     id="path3017"
     d="m 102.29528,16.015747 0,-15.73228245 2.48031,0 0,15.73228245 z"
     style="fill:#c6c7c8;fill-opacity:0.94901961;fill-rule:nonzero;stroke:none"
     inkscape:connector-curvature="0" /><path
     id="path3019"
     d="m 112.74803,12.401574 2.44489,0.496063 c -0.3189,1.169291 -0.8504,2.019685 -1.52363,2.551181 -0.70866,0.566929 -1.55905,0.850394 -2.55118,0.850394 -1.38189,0 -2.44488,-0.46063 -3.18897,-1.38189 -0.88583,-1.098425 -1.34646,-2.586614 -1.34646,-4.535433 0,-1.9133856 0.46063,-3.4370076 1.34646,-4.5708658 0.77952,-0.9566928 1.73622,-1.4527558 2.94094,-1.4527558 1.34646,0 2.40945,0.496063 3.15354,1.4881889 0.88583,1.1338582 1.31103,2.7992124 1.31103,4.9960627 l 0,0.354331 -6.20079,0 c 0,0.885826 0.2126,1.594488 0.60236,2.090551 0.38977,0.496063 0.8504,0.744094 1.41733,0.744094 0.77952,0 1.31102,-0.531496 1.59448,-1.629921 z m 0.14174,-3.0472439 c -0.0354,-0.8858267 -0.2126,-1.559055 -0.56693,-2.0196849 -0.35433,-0.4251968 -0.81496,-0.6732283 -1.27559,-0.6732283 -0.5315,0 -0.99213,0.2480315 -1.34646,0.7086613 -0.35433,0.4606299 -0.5315,1.1338582 -0.5315,1.9842519 z"
     style="fill:#c6c7c8;fill-opacity:0.94901961;fill-rule:nonzero;stroke:none"
     inkscape:connector-curvature="0" /><path
     id="path3021"
     d="m 122.38583,0.28346455 4.78346,0 c 1.20473,0 2.09056,0.14173227 2.69292,0.38976375 0.63779,0.28346455 1.20472,0.7440944 1.70079,1.3818897 0.53149,0.6377952 0.92126,1.4527558 1.20472,2.4803148 0.3189,0.9921259 0.46063,2.2677163 0.46063,3.7913383 0,1.3464566 -0.14173,2.5511809 -0.46063,3.5433069 -0.3189,0.992126 -0.70866,1.807086 -1.16929,2.374016 -0.49606,0.602362 -1.06299,1.027559 -1.73622,1.346456 -0.6378,0.283465 -1.52362,0.425197 -2.55118,0.425197 l -4.9252,0 z m 2.62205,2.65748015 0,10.4527553 1.94882,0 c 0.81496,0 1.45275,-0.106299 1.80708,-0.248032 0.38977,-0.177165 0.70866,-0.389763 0.92126,-0.708661 0.24803,-0.318898 0.46063,-0.814961 0.60236,-1.523622 0.17717,-0.673228 0.24804,-1.594488 0.24804,-2.7283462 0,-1.1692912 -0.0709,-2.090551 -0.24804,-2.7637793 -0.17716,-0.6732283 -0.42519,-1.1692913 -0.74409,-1.559055 -0.35433,-0.3897638 -0.77953,-0.6377953 -1.24016,-0.7795275 -0.38976,-0.1062992 -1.06299,-0.1417323 -2.12598,-0.1417323 z"
     style="fill:#c6c7c8;fill-opacity:0.94901961;fill-rule:nonzero;stroke:none"
     inkscape:connector-curvature="0" /><path
     id="path3023"
     d="m 134.8937,8.255905 c 0,-1.8779527 0.28347,-3.4370077 0.8504,-4.641732 0.56693,-1.2047243 1.27559,-2.1259841 2.16142,-2.69291322 C 138.82678,0.31889762 139.88977,0 141.16536,0 c 1.84252,0 3.36614,0.70866137 4.53543,2.1259841 1.16929,1.4173227 1.73622,3.4370077 1.73622,6.0236217 0,2.6574802 -0.60236,4.7125982 -1.84252,6.2007872 -1.09842,1.311023 -2.55118,1.948819 -4.3937,1.948819 -1.87795,0 -3.36614,-0.637796 -4.42913,-1.948819 -1.24016,-1.488189 -1.87796,-3.507874 -1.87796,-6.094488 z m 2.69292,-0.1062992 c 0,1.8070864 0.35433,3.1535432 1.02756,4.0748032 0.70866,0.921259 1.55905,1.346456 2.58661,1.346456 0.99213,0 1.84252,-0.425197 2.51575,-1.346456 0.67323,-0.885827 1.02756,-2.2677168 1.02756,-4.1456694 0,-1.8070865 -0.3189,-3.1535431 -0.99213,-4.0393698 -0.63779,-0.8858267 -1.52362,-1.3110235 -2.55118,-1.3110235 -1.06299,0 -1.94882,0.4606299 -2.62205,1.3110235 -0.63779,0.8858267 -0.99212,2.2677164 -0.99212,4.110236 z"
     style="fill:#c6c7c8;fill-opacity:0.94901961;fill-rule:nonzero;stroke:none"
     inkscape:connector-curvature="0" /><path
     id="path3025"
     d="m 149.4567,16.015747 0,-15.73228245 3.89763,0 2.33859,10.73621945 2.30315,-10.73621945 3.93307,0 0,15.73228245 -2.44488,0 0,-12.3661409 -2.55119,12.3661409 -2.51574,0 -2.55118,-12.3661409 0,12.3661409 z"
     style="fill:#c6c7c8;fill-opacity:0.94901961;fill-rule:nonzero;stroke:none"
     inkscape:connector-curvature="0" /><path
     id="path3027"
     d="m 176.17323,16.015747 -2.83464,0 -1.13386,-3.57874 -5.17323,0 -1.06299,3.57874 -2.76378,0 5.03149,-15.73228245 2.76378,0 z M 171.35433,9.81496 169.58268,3.9685037 167.84646,9.81496 z"
     style="fill:#c6c7c8;fill-opacity:0.94901961;fill-rule:nonzero;stroke:none"
     inkscape:connector-curvature="0" /><path
     id="path3029"
     d="m 177.55512,16.015747 0,-15.73228245 2.55118,0 5.27953,10.52362145 0,-10.52362145 2.44488,0 0,15.73228245 -2.62204,0 L 180,5.7755902 180,16.015747 z"
     style="fill:#c6c7c8;fill-opacity:0.94901961;fill-rule:nonzero;stroke:none"
     inkscape:connector-curvature="0" /><path
     id="path3031"
     d="m 190.55906,0.28346455 4.74803,0 c 1.20473,0 2.09055,0.14173227 2.72835,0.38976375 0.60236,0.28346455 1.16929,0.7440944 1.70079,1.3818897 0.49606,0.6377952 0.88582,1.4527558 1.20472,2.4803148 0.28346,0.9921259 0.4252,2.2677163 0.4252,3.7913383 0,1.3464566 -0.14174,2.5511809 -0.46063,3.5433069 -0.3189,0.992126 -0.70866,1.807086 -1.16929,2.374016 -0.46063,0.602362 -1.02756,1.027559 -1.70079,1.346456 -0.67323,0.283465 -1.52362,0.425197 -2.58662,0.425197 l -4.88976,0 z m 2.58661,2.65748015 0,10.4527553 1.94882,0 c 0.8504,0 1.45276,-0.106299 1.84252,-0.248032 0.35433,-0.177165 0.67323,-0.389763 0.92126,-0.708661 0.2126,-0.318898 0.4252,-0.814961 0.56693,-1.523622 0.17717,-0.673228 0.24803,-1.594488 0.24803,-2.7283462 0,-1.1692912 -0.0709,-2.090551 -0.24803,-2.7637793 -0.14173,-0.6732283 -0.38976,-1.1692913 -0.74409,-1.559055 -0.35433,-0.3897638 -0.7441,-0.6377953 -1.24016,-0.7795275 -0.35433,-0.1062992 -1.06299,-0.1417323 -2.12598,-0.1417323 z"
     style="fill:#c6c7c8;fill-opacity:0.94901961;fill-rule:nonzero;stroke:none"
     inkscape:connector-curvature="0" /><path
     id="path3033"
     d="m 203.59843,16.015747 0,-15.73228245 9.56693,0 0,2.65748015 -6.98032,0 0,3.5078738 6.48426,0 0,2.6574801 -6.48426,0 0,4.2874014 7.22835,0 0,2.622047 z"
     style="fill:#c6c7c8;fill-opacity:0.94901961;fill-rule:nonzero;stroke:none"
     inkscape:connector-curvature="0" /></g></svg>