<?xml version="1.0" encoding="utf-8"?>
<!-- Generator: Adobe Illustrator 14.0.0, SVG Export Plug-In . SVG Version: 6.00 Build 43363)  -->
<!DOCTYPE svg PUBLIC "-//W3C//DTD SVG 1.1//EN" "http://www.w3.org/Graphics/SVG/1.1/DTD/svg11.dtd">
<svg version="1.1" id="Livello_5" xmlns="http://www.w3.org/2000/svg" xmlns:xlink="http://www.w3.org/1999/xlink" x="0px" y="0px"
	 width="72.248px" height="72.344px" viewBox="0 0 72.248 72.344" enable-background="new 0 0 72.248 72.344" xml:space="preserve">
<linearGradient id="SVGID_1_" gradientUnits="userSpaceOnUse" x1="-199.834" y1="331.8967" x2="-127.7483" y2="331.8967" gradientTransform="matrix(0 -1 1 0 -295.7961 -127.6316)">
	<stop  offset="0" style="stop-color:#CFE7D7"/>
	<stop  offset="0.2241" style="stop-color:#CCE4D4;stop-opacity:0.9664"/>
	<stop  offset="0.3973" style="stop-color:#C2DBCB;stop-opacity:0.9404"/>
	<stop  offset="0.5534" style="stop-color:#B2CBBB;stop-opacity:0.917"/>
	<stop  offset="0.6994" style="stop-color:#9AB5A5;stop-opacity:0.8951"/>
	<stop  offset="0.8385" style="stop-color:#7C9989;stop-opacity:0.8742"/>
	<stop  offset="0.9706" style="stop-color:#587767;stop-opacity:0.8544"/>
	<stop  offset="1" style="stop-color:#4F6E5E;stop-opacity:0.85"/>
</linearGradient>
<path fill="url(#SVGID_1_)" d="M36.101,0c19.94,0,36.1,16.161,36.1,36.101c0,19.936-16.16,36.101-36.1,36.101
	C16.16,72.202,0,56.037,0,36.101C0,16.161,16.16,0,36.101,0z"/>
<path fill="#FFFFFF" d="M36.103,67.789c17.501,0,31.688-14.192,31.688-31.688c0-17.5-14.187-31.687-31.688-31.687
	c-17.5,0-31.692,14.187-31.692,31.687C4.411,53.597,18.603,67.789,36.103,67.789z"/>
<path fill="#CFE7D7" d="M36.101,65.131c16.032,0,29.029-13.005,29.029-29.032c0-16.032-12.997-29.03-29.029-29.03
	c-16.03,0-29.028,12.998-29.028,29.03C7.073,52.126,20.071,65.131,36.101,65.131z"/>
<polygon fill="#FFFFFF" points="21.539,61.339 65.13,36.173 21.539,11.002 "/>
</svg>
