<?xml version="1.0" encoding="utf-8"?>
<!-- Generator: Adobe Illustrator 14.0.0, SVG Export Plug-In . SVG Version: 6.00 Build 43363)  -->
<!DOCTYPE svg PUBLIC "-//W3C//DTD SVG 1.1//EN" "http://www.w3.org/Graphics/SVG/1.1/DTD/svg11.dtd">
<svg version="1.1" id="Livello_2" xmlns="http://www.w3.org/2000/svg" xmlns:xlink="http://www.w3.org/1999/xlink" x="0px" y="0px"
	 width="72.248px" height="72.344px" viewBox="0 0 72.248 72.344" enable-background="new 0 0 72.248 72.344" xml:space="preserve">
<linearGradient id="SVGID_1_" gradientUnits="userSpaceOnUse" x1="-522.7939" y1="331.9163" x2="-450.6673" y2="331.9163" gradientTransform="matrix(0 1 1 0 -295.7961 522.7942)">
	<stop  offset="0" style="stop-color:#CFE7D7"/>
	<stop  offset="0.2241" style="stop-color:#CCE4D4;stop-opacity:0.9664"/>
	<stop  offset="0.3973" style="stop-color:#C2DBCB;stop-opacity:0.9404"/>
	<stop  offset="0.5534" style="stop-color:#B2CBBB;stop-opacity:0.917"/>
	<stop  offset="0.6994" style="stop-color:#9AB5A5;stop-opacity:0.8951"/>
	<stop  offset="0.8385" style="stop-color:#7C9989;stop-opacity:0.8742"/>
	<stop  offset="0.9706" style="stop-color:#587767;stop-opacity:0.8544"/>
	<stop  offset="1" style="stop-color:#4F6E5E;stop-opacity:0.85"/>
</linearGradient>
<circle fill="url(#SVGID_1_)" cx="36.121" cy="36.122" r="36.122"/>
<path fill="#FFFFFF" d="M36.124,67.827c17.51,0,31.706-14.2,31.706-31.706c0-17.51-14.195-31.705-31.706-31.705
	S4.414,18.612,4.414,36.122C4.414,53.627,18.613,67.827,36.124,67.827z"/>
<path fill="#CFE7D7" d="M36.121,65.168c16.042,0,29.046-13.012,29.046-29.049c0-16.042-13.004-29.046-29.046-29.046
	c-16.039,0-29.043,13.005-29.043,29.046C7.077,52.156,20.082,65.168,36.121,65.168z"/>
<polygon fill="#FFFFFF" points="21.551,61.374 65.167,36.194 21.551,11.008 "/>
<polygon fill="#CFE7D7" points="25.641,53.995 56.478,36.194 25.641,18.387 "/>
</svg>
