<?xml version="1.0" encoding="UTF-8" standalone="no"?>
<!-- Generator: Adobe Illustrator 14.0.0, SVG Export Plug-In . SVG Version: 6.00 Build 43363)  -->

<svg
   xmlns:dc="http://purl.org/dc/elements/1.1/"
   xmlns:cc="http://creativecommons.org/ns#"
   xmlns:rdf="http://www.w3.org/1999/02/22-rdf-syntax-ns#"
   xmlns:svg="http://www.w3.org/2000/svg"
   xmlns="http://www.w3.org/2000/svg"
   xmlns:sodipodi="http://sodipodi.sourceforge.net/DTD/sodipodi-0.dtd"
   xmlns:inkscape="http://www.inkscape.org/namespaces/inkscape"
   version="1.1"
   id="Livello_1"
   x="0px"
   y="0px"
   width="85.04px"
   height="78.539px"
   viewBox="0 0 85.04 78.539"
   enable-background="new 0 0 85.04 78.539"
   xml:space="preserve"
   sodipodi:docname="Bt_Ricerca.svg"
   inkscape:version="0.92.4 (5da689c313, 2019-01-14)"><metadata
   id="metadata14"><rdf:RDF><cc:Work
       rdf:about=""><dc:format>image/svg+xml</dc:format><dc:type
         rdf:resource="http://purl.org/dc/dcmitype/StillImage" /></cc:Work></rdf:RDF></metadata><defs
   id="defs12" /><sodipodi:namedview
   pagecolor="#ffffff"
   bordercolor="#666666"
   borderopacity="1"
   objecttolerance="10"
   gridtolerance="10"
   guidetolerance="10"
   inkscape:pageopacity="0"
   inkscape:pageshadow="2"
   inkscape:window-width="1920"
   inkscape:window-height="1017"
   id="namedview10"
   showgrid="false"
   inkscape:zoom="8.4990742"
   inkscape:cx="42.52"
   inkscape:cy="49.253272"
   inkscape:window-x="-8"
   inkscape:window-y="108"
   inkscape:window-maximized="1"
   inkscape:current-layer="Livello_1" />
<g
   id="XMLID_1_"
   transform="matrix(0.78176173,0,0,0.78176173,16.720724,8.5697429)"
   style="fill:#ffffff">
	<g
   id="g4"
   style="fill:#ffffff">
		<path
   d="m 83.567853,67.697706 c 2.101548,1.764144 2.24615,5.061069 0.318124,7.365061 -1.928026,2.313631 -5.186391,2.737797 -7.288904,0.973653 L 50.202393,53.844837 c -1.407459,-1.185736 -1.907782,-3.065562 -1.523141,-4.868267 -4.820066,4.3477 -11.191229,6.989096 -18.180324,6.989096 -15.019325,0 -27.2044515,-12.214047 -27.2044515,-27.281573 0,-15.057885 12.1851265,-27.2719322 27.2044515,-27.2719322 15.028965,0 27.213128,12.2140472 27.213128,27.2719322 0,5.976882 -1.917423,11.500677 -5.166147,15.992979 1.600262,-0.520567 3.345126,-0.269924 4.636903,0.819411 z M 51.832539,28.684093 c 0,-11.809161 -9.54373,-21.3818118 -21.333611,-21.3818118 -11.780241,0 -21.3239712,9.5726508 -21.3239712,21.3818118 0,11.818802 9.5437302,21.391452 21.3239712,21.391452 11.789881,0 21.333611,-9.57265 21.333611,-21.391452 z"
   id="path2"
   style="fill:#ffffff;stroke-width:0.96401316"
   inkscape:connector-curvature="0" />
	</g>
	<g
   id="g6"
   style="fill:#ffffff">
	</g>
</g>
</svg>