<?xml version="1.0" encoding="utf-8"?>
<!-- Generator: Adobe Illustrator 14.0.0, SVG Export Plug-In . SVG Version: 6.00 Build 43363)  -->
<!DOCTYPE svg PUBLIC "-//W3C//DTD SVG 1.1//EN" "http://www.w3.org/Graphics/SVG/1.1/DTD/svg11.dtd">
<svg version="1.1" id="Livello_1" xmlns="http://www.w3.org/2000/svg" xmlns:xlink="http://www.w3.org/1999/xlink" x="0px" y="0px"
	 width="75.313px" height="72.344px" viewBox="0 0 75.313 72.344" enable-background="new 0 0 75.313 72.344" xml:space="preserve">
<path fill="#E6E7E8" d="M20.728,1.837c-2.021-1.134-4.317-1.842-6.801-1.842C6.237-0.004,0,6.229,0,13.923
	c0,2.503,0.715,4.826,1.873,6.855C5.747,12.446,12.424,5.754,20.728,1.837z"/>
<path fill="#E6E7E8" d="M54.586,1.837c2.02-1.134,4.313-1.842,6.801-1.842c7.693,0,13.926,6.233,13.926,13.927
	c0,2.503-0.713,4.826-1.871,6.855C69.563,12.446,62.895,5.754,54.586,1.837z"/>
<path fill="#E6E7E8" d="M61.736,62.372c6.559-6.356,10.67-15.225,10.67-25.087c0-19.32-15.66-34.989-34.98-34.989
	c-19.321,0-34.981,15.668-34.981,34.989c0,9.987,4.235,18.94,10.947,25.313l-5.207,6.203c-0.77,0.916-0.65,2.276,0.263,3.046
	c0.914,0.762,2.273,0.645,3.043-0.271l5.23-6.233c5.81,4.289,12.924,6.916,20.704,6.916c7.908,0,15.115-2.72,20.977-7.143
	l5.424,6.46c0.762,0.916,2.131,1.033,3.039,0.271c0.908-0.77,1.033-2.13,0.264-3.046L61.736,62.372z M10.375,37.285
	c0-14.953,12.104-27.062,27.05-27.062c14.945,0,27.053,12.109,27.053,27.062c0,14.938-12.107,27.046-27.053,27.046
	C22.48,64.331,10.375,52.223,10.375,37.285z"/>
<path fill="#E6E7E8" d="M49.195,26.925l-10.81,9.287L25.951,21.757c-1.026-1.213-2.884-1.306-4.139-0.225
	c-1.263,1.08-1.446,2.937-0.419,4.134l14.296,16.632c1.026,1.196,2.654,1.484,3.633,0.645l13.592-11.688
	c0.98-0.839,0.934-2.495-0.084-3.684C51.795,26.366,50.172,26.085,49.195,26.925z"/>
</svg>
