<?xml version="1.0" encoding="utf-8"?>
<!-- Generator: Adobe Illustrator 14.0.0, SVG Export Plug-In . SVG Version: 6.00 Build 43363)  -->
<!DOCTYPE svg PUBLIC "-//W3C//DTD SVG 1.1//EN" "http://www.w3.org/Graphics/SVG/1.1/DTD/svg11.dtd">
<svg version="1.1" id="Livello_2" xmlns="http://www.w3.org/2000/svg" xmlns:xlink="http://www.w3.org/1999/xlink" x="0px" y="0px"
	 width="72.248px" height="72.344px" viewBox="0 0 72.248 72.344" enable-background="new 0 0 72.248 72.344" xml:space="preserve">
<linearGradient id="SVGID_1_" gradientUnits="userSpaceOnUse" x1="-521.0557" y1="132.1292" x2="-448.5897" y2="132.1292" gradientTransform="matrix(0 1 -1 0 168.4211 521.0559)">
	<stop  offset="0" style="stop-color:#F7CCD3"/>
	<stop  offset="0.3079" style="stop-color:#F5C9D0"/>
	<stop  offset="0.5457" style="stop-color:#EDC1C6"/>
	<stop  offset="0.7601" style="stop-color:#E1B2B6"/>
	<stop  offset="0.9595" style="stop-color:#D09E9F"/>
	<stop  offset="1" style="stop-color:#CC9999"/>
</linearGradient>
<circle fill="url(#SVGID_1_)" cx="36.292" cy="36.292" r="36.292"/>
<path fill="#FFFFFF" d="M36.29,4.437c-17.592,0-31.854,14.267-31.854,31.854c0,17.592,14.262,31.854,31.854,31.854
	c17.593,0,31.86-14.262,31.86-31.854C68.149,18.704,53.883,4.437,36.29,4.437z"/>
<path fill="#F7CCD3" d="M36.292,7.109c-16.117,0-29.183,13.074-29.183,29.186c0,16.117,13.066,29.183,29.183,29.183
	c16.114,0,29.18-13.065,29.18-29.183C65.473,20.182,52.406,7.109,36.292,7.109z"/>
<polygon fill="#FFFFFF" points="61.591,50.93 10.991,50.933 36.29,7.109 "/>
<polygon fill="#F7CCD3" points="36.292,15.539 54.18,46.521 18.404,46.523 "/>
</svg>
