<?xml version="1.0" encoding="utf-8"?>
<!-- Generator: Adobe Illustrator 14.0.0, SVG Export Plug-In . SVG Version: 6.00 Build 43363)  -->
<!DOCTYPE svg PUBLIC "-//W3C//DTD SVG 1.1//EN" "http://www.w3.org/Graphics/SVG/1.1/DTD/svg11.dtd">
<svg version="1.1" id="Livello_2" xmlns="http://www.w3.org/2000/svg" xmlns:xlink="http://www.w3.org/1999/xlink" x="0px" y="0px"
	 width="72.248px" height="72.344px" viewBox="0 0 72.248 72.344" enable-background="new 0 0 72.248 72.344" xml:space="preserve">
<linearGradient id="SVGID_1_" gradientUnits="userSpaceOnUse" x1="-200.084" y1="132.1956" x2="-127.7487" y2="132.1956" gradientTransform="matrix(0 -1 -1 0 168.4211 -127.6316)">
	<stop  offset="0" style="stop-color:#CFE7D7"/>
	<stop  offset="0.2241" style="stop-color:#CCE4D4;stop-opacity:0.9664"/>
	<stop  offset="0.3973" style="stop-color:#C2DBCB;stop-opacity:0.9404"/>
	<stop  offset="0.5534" style="stop-color:#B2CBBB;stop-opacity:0.917"/>
	<stop  offset="0.6994" style="stop-color:#9AB5A5;stop-opacity:0.8951"/>
	<stop  offset="0.8385" style="stop-color:#7C9989;stop-opacity:0.8742"/>
	<stop  offset="0.9706" style="stop-color:#587767;stop-opacity:0.8544"/>
	<stop  offset="1" style="stop-color:#4F6E5E;stop-opacity:0.85"/>
</linearGradient>
<path fill="url(#SVGID_1_)" d="M36.225,0C16.219,0,0,16.217,0,36.226c0,20.004,16.219,36.226,36.225,36.226
	c20.01,0,36.227-16.222,36.227-36.226C72.451,16.217,56.234,0,36.225,0z"/>
<path fill="#FFFFFF" d="M36.225,68.023c-17.56,0-31.796-14.24-31.796-31.796c0-17.561,14.237-31.797,31.796-31.797
	c17.562,0,31.8,14.236,31.8,31.797C68.024,53.782,53.786,68.023,36.225,68.023z"/>
<path fill="#CFE7D7" d="M36.225,65.357c-16.086,0-29.128-13.05-29.128-29.133c0-16.088,13.042-29.13,29.128-29.13
	c16.088,0,29.131,13.042,29.131,29.13C65.355,52.307,52.313,65.357,36.225,65.357z"/>
<polygon fill="#FFFFFF" points="61.48,50.836 10.972,50.838 36.225,7.094 "/>
</svg>
