<?xml version="1.0" encoding="utf-8"?>
<!-- Generator: Adobe Illustrator 14.0.0, SVG Export Plug-In . SVG Version: 6.00 Build 43363)  -->
<!DOCTYPE svg PUBLIC "-//W3C//DTD SVG 1.1//EN" "http://www.w3.org/Graphics/SVG/1.1/DTD/svg11.dtd">
<svg version="1.1" id="Livello_1" xmlns="http://www.w3.org/2000/svg" xmlns:xlink="http://www.w3.org/1999/xlink" x="0px" y="0px"
	 width="73.001px" height="72.344px" viewBox="0 0 73.001 72.344" enable-background="new 0 0 73.001 72.344" xml:space="preserve">
<rect x="0" fill="#262769" width="73.001" height="72.344"/>
<rect x="4.274" y="4.494" fill="#FFFFFF" width="64.452" height="63.357"/>
<path fill="#262769" d="M36.503,7.215c-15.993,0-28.957,12.963-28.957,28.957S20.51,65.129,36.503,65.129
	c15.989,0,28.951-12.964,28.951-28.957S52.491,7.215,36.503,7.215z M36.503,60.943c-13.684,0-24.774-11.094-24.774-24.771
	c0-13.683,11.093-24.771,24.774-24.771c13.683,0,24.771,11.088,24.771,24.771C61.274,49.85,50.185,60.943,36.503,60.943z"/>
<g>
	<g>
		<path fill="#262769" d="M33.847,50.363l-8.784-28.382h5.379l6.221,21.005l6.018-21.005h5.261l-8.798,28.382H33.847z"/>
	</g>
</g>
</svg>
