<?xml version="1.0" encoding="utf-8"?>
<!-- Generator: Adobe Illustrator 14.0.0, SVG Export Plug-In . SVG Version: 6.00 Build 43363)  -->
<!DOCTYPE svg PUBLIC "-//W3C//DTD SVG 1.1//EN" "http://www.w3.org/Graphics/SVG/1.1/DTD/svg11.dtd">
<svg version="1.1" id="Livello_1" xmlns="http://www.w3.org/2000/svg" xmlns:xlink="http://www.w3.org/1999/xlink" x="0px" y="0px"
	 width="56.69px" height="56.689px" viewBox="0 0 56.69 56.689" enable-background="new 0 0 56.69 56.689" xml:space="preserve">
<rect x="-0.001" y="-0.001" fill="none" stroke="#231F20" stroke-width="0.4199" stroke-opacity="0" width="56.693" height="56.691"/>
<g>
	<path fill="#FFFFFF" d="M9.512,12.592v1.595c0,0.379,0.345,0.686,0.771,0.686h0.961c0.426,0,0.772,0.308,0.772,0.686v1.487
		c0,0.379-0.346,0.686-0.772,0.686h-0.961c-0.426,0-0.771,0.307-0.771,0.686v17.908c0,0.379,0.345,0.686,0.771,0.686h0.961
		c0.426,0,0.772,0.307,0.772,0.686v1.487c0,0.379-0.346,0.687-0.772,0.687h-0.961c-0.426,0-0.771,0.307-0.771,0.686v1.542
		c0,0.379,0.345,0.686,0.771,0.686h34.749c0.427,0,0.772-0.307,0.772-0.686v-1.542c0-0.379-0.346-0.686-0.772-0.686h-0.706
		c-0.427,0-0.772-0.308-0.772-0.687v-1.487c0-0.379,0.346-0.686,0.772-0.686h0.706c0.427,0,0.772-0.307,0.772-0.686V18.418
		c0-0.379-0.346-0.686-0.772-0.686h-0.706c-0.427,0-0.772-0.307-0.772-0.686v-1.487c0-0.378,0.346-0.686,0.772-0.686h0.706
		c0.427,0,0.772-0.307,0.772-0.686v-1.595c0-0.379-0.346-0.686-0.772-0.686H10.283C9.857,11.906,9.512,12.213,9.512,12.592
		L9.512,12.592z M39.062,37.012c0.427,0,0.772,0.307,0.772,0.686v1.487c0,0.379-0.346,0.687-0.772,0.687h-1.674
		c-0.427,0-0.772-0.308-0.772-0.687v-1.487c0-0.379,0.346-0.686,0.772-0.686H39.062z M32.123,37.012
		c0.427,0,0.772,0.307,0.772,0.686v1.487c0,0.379-0.346,0.687-0.772,0.687h-1.675c-0.426,0-0.771-0.308-0.771-0.687v-1.487
		c0-0.379,0.346-0.686,0.771-0.686H32.123z M25.185,37.012c0.426,0,0.772,0.307,0.772,0.686v1.487c0,0.379-0.346,0.687-0.772,0.687
		H23.51c-0.427,0-0.772-0.308-0.772-0.687v-1.487c0-0.379,0.345-0.686,0.772-0.686H25.185z M18.246,37.012
		c0.427,0,0.772,0.307,0.772,0.686v1.487c0,0.379-0.345,0.687-0.772,0.687h-1.675c-0.426,0-0.771-0.308-0.771-0.687v-1.487
		c0-0.379,0.345-0.686,0.771-0.686H18.246z M41.722,20.698c0.427,0,0.772,0.307,0.772,0.686v11.923c0,0.379-0.346,0.686-0.772,0.686
		h-6.205c-0.427,0-0.772-0.307-0.772-0.686V21.384c0-0.378,0.346-0.686,0.772-0.686H41.722z M30.761,20.698
		c0.427,0,0.771,0.307,0.771,0.686v11.923c0,0.379-0.345,0.686-0.771,0.686h-6.206c-0.426,0-0.772-0.307-0.772-0.686V21.384
		c0-0.378,0.346-0.686,0.772-0.686H30.761z M19.799,20.698c0.427,0,0.772,0.307,0.772,0.686v11.923c0,0.379-0.346,0.686-0.772,0.686
		h-6.206c-0.426,0-0.771-0.307-0.771-0.686V21.384c0-0.378,0.345-0.686,0.771-0.686H19.799z M39.062,14.873
		c0.427,0,0.772,0.308,0.772,0.686v1.487c0,0.379-0.346,0.686-0.772,0.686h-1.675c-0.426,0-0.771-0.307-0.771-0.686v-1.487
		c0-0.378,0.346-0.686,0.771-0.686H39.062z M32.123,14.873c0.427,0,0.772,0.308,0.772,0.686v1.487c0,0.379-0.346,0.686-0.772,0.686
		h-1.675c-0.426,0-0.771-0.307-0.771-0.686v-1.487c0-0.378,0.346-0.686,0.771-0.686H32.123z M25.185,14.873
		c0.426,0,0.772,0.308,0.772,0.686v1.487c0,0.379-0.346,0.686-0.772,0.686H23.51c-0.427,0-0.772-0.307-0.772-0.686v-1.487
		c0-0.378,0.345-0.686,0.772-0.686H25.185z M18.246,14.873c0.427,0,0.772,0.308,0.772,0.686v1.487c0,0.379-0.345,0.686-0.772,0.686
		h-1.675c-0.426,0-0.771-0.307-0.771-0.686v-1.487c0-0.378,0.345-0.686,0.771-0.686H18.246z M18.246,14.873"/>
</g>
</svg>
