<?xml version="1.0" encoding="utf-8"?>
<!-- Generator: Adobe Illustrator 14.0.0, SVG Export Plug-In . SVG Version: 6.00 Build 43363)  -->
<!DOCTYPE svg PUBLIC "-//W3C//DTD SVG 1.1//EN" "http://www.w3.org/Graphics/SVG/1.1/DTD/svg11.dtd">
<svg version="1.1" id="Livello_1" xmlns="http://www.w3.org/2000/svg" xmlns:xlink="http://www.w3.org/1999/xlink" x="0px" y="0px"
	 width="56.69px" height="56.689px" viewBox="0 0 56.69 56.689" enable-background="new 0 0 56.69 56.689" xml:space="preserve">
<rect x="-0.001" y="-0.001" fill="none" stroke="#231F20" stroke-width="0.4199" stroke-opacity="0" width="56.693" height="56.691"/>
<g>
	<path fill="#FFFFFF" d="M9.512,12.592v0.596c0,0.379,0.345,0.686,0.771,0.686h1.961c0.426,0,0.772,0.309,0.772,0.687v2.486
		c0,0.379-0.346,0.687-0.772,0.687h-1.961c-0.426,0-0.771,0.307-0.771,0.686v17.908c0,0.379,0.345,0.687,0.771,0.687h1.961
		c0.426,0,0.772,0.307,0.772,0.686v2.487c0,0.379-0.346,0.687-0.772,0.687h-1.961c-0.426,0-0.771,0.308-0.771,0.687V42.1
		c0,0.379,0.345,0.686,0.771,0.686h34.749c0.427,0,0.771-0.307,0.771-0.686v-0.542c0-0.379-0.346-0.687-0.771-0.687h-1.706
		c-0.427,0-0.772-0.308-0.772-0.687v-2.487c0-0.379,0.346-0.686,0.772-0.686h1.706c0.427,0,0.771-0.308,0.771-0.687V18.418
		c0-0.379-0.346-0.686-0.771-0.686h-0.706c-0.427,0-0.772-0.308-0.772-0.687v-2.486c0-0.378,0.346-0.687,0.772-0.687h0.706
		c0.427,0,0.771-0.307,0.771-0.686v-0.596c0-0.379-0.346-0.686-0.771-0.686H10.283C9.857,11.906,9.512,12.213,9.512,12.592
		L9.512,12.592z M40.062,37.012c0.428,0,0.772,0.307,0.772,0.686v2.487c0,0.379-0.347,0.687-0.772,0.687h-3.674
		c-0.427,0-0.771-0.308-0.771-0.687v-2.487c0-0.379,0.346-0.686,0.771-0.686H40.062z M33.123,37.012
		c0.427,0,0.772,0.307,0.772,0.686v2.487c0,0.379-0.347,0.687-0.772,0.687h-3.675c-0.426,0-0.771-0.308-0.771-0.687v-2.487
		c0-0.379,0.346-0.686,0.771-0.686H33.123z M26.185,37.012c0.426,0,0.772,0.307,0.772,0.686v2.487c0,0.379-0.346,0.687-0.772,0.687
		H22.51c-0.427,0-0.772-0.308-0.772-0.687v-2.487c0-0.379,0.345-0.686,0.772-0.686H26.185z M19.246,37.012
		c0.427,0,0.772,0.307,0.772,0.686v2.487c0,0.379-0.345,0.687-0.772,0.687h-3.675c-0.426,0-0.771-0.308-0.771-0.687v-2.487
		c0-0.379,0.345-0.686,0.771-0.686H19.246z M41.722,20.698c0.428,0,0.772,0.307,0.772,0.686v11.924c0,0.379-0.347,0.686-0.772,0.686
		h-6.205c-0.427,0-0.771-0.307-0.771-0.686V21.384c0-0.378,0.346-0.686,0.771-0.686H41.722z M30.761,20.698
		c0.428,0,0.771,0.307,0.771,0.686v11.924c0,0.379-0.346,0.686-0.771,0.686h-6.206c-0.426,0-0.772-0.307-0.772-0.686V21.384
		c0-0.378,0.346-0.686,0.772-0.686H30.761z M19.799,20.698c0.427,0,0.772,0.307,0.772,0.686v11.924c0,0.379-0.346,0.686-0.772,0.686
		h-6.206c-0.426,0-0.771-0.307-0.771-0.686V21.384c0-0.378,0.345-0.686,0.771-0.686H19.799z M40.062,13.873
		c0.428,0,0.772,0.309,0.772,0.687v2.486c0,0.379-0.347,0.687-0.772,0.687h-3.674c-0.427,0-0.771-0.308-0.771-0.687v-2.486
		c0-0.378,0.346-0.687,0.771-0.687H40.062z M33.123,13.873c0.427,0,0.772,0.309,0.772,0.687v2.486c0,0.379-0.347,0.687-0.772,0.687
		h-3.675c-0.426,0-0.771-0.308-0.771-0.687v-2.486c0-0.378,0.346-0.687,0.771-0.687H33.123z M26.185,13.873
		c0.426,0,0.772,0.309,0.772,0.687v2.486c0,0.379-0.346,0.687-0.772,0.687H22.51c-0.427,0-0.772-0.308-0.772-0.687v-2.486
		c0-0.378,0.345-0.687,0.772-0.687H26.185z M19.246,13.873c0.427,0,0.772,0.309,0.772,0.687v2.486c0,0.379-0.345,0.687-0.772,0.687
		h-3.675c-0.426,0-0.771-0.308-0.771-0.687v-2.486c0-0.378,0.345-0.687,0.771-0.687H19.246z"/>
</g>
</svg>
