<?xml version="1.0" encoding="utf-8"?>
<!-- Generator: Adobe Illustrator 14.0.0, SVG Export Plug-In . SVG Version: 6.00 Build 43363)  -->
<!DOCTYPE svg PUBLIC "-//W3C//DTD SVG 1.1//EN" "http://www.w3.org/Graphics/SVG/1.1/DTD/svg11.dtd">
<svg version="1.1" id="Livello_1" xmlns="http://www.w3.org/2000/svg" xmlns:xlink="http://www.w3.org/1999/xlink" x="0px" y="0px"
	 width="56.69px" height="56.689px" viewBox="0 0 56.69 56.689" enable-background="new 0 0 56.69 56.689" xml:space="preserve">
<g>
	<path fill="#FFFFFF" d="M44.363,14.867L33.377,25.854l10.986,10.99c1.634,1.633,1.634,4.282,0,5.916
		c-0.815,0.818-1.886,1.224-2.956,1.224c-1.071,0-2.142-0.405-2.96-1.224l-10.99-10.99L16.471,42.76
		c-0.818,0.818-1.889,1.224-2.96,1.224c-1.07,0-2.141-0.405-2.956-1.224c-1.637-1.634-1.637-4.283,0-5.916l10.987-10.99
		l-10.99-10.987c-1.634-1.638-1.634-4.286,0-5.92c1.634-1.633,4.282-1.633,5.916,0l10.99,10.99l10.99-10.99
		c1.634-1.633,4.282-1.633,5.916,0C45.997,10.581,45.997,13.229,44.363,14.867L44.363,14.867z M44.363,14.867"/>
</g>
</svg>
