<?xml version="1.0" encoding="UTF-8" standalone="no"?>
<svg
   xmlns:dc="http://purl.org/dc/elements/1.1/"
   xmlns:cc="http://creativecommons.org/ns#"
   xmlns:rdf="http://www.w3.org/1999/02/22-rdf-syntax-ns#"
   xmlns:svg="http://www.w3.org/2000/svg"
   xmlns="http://www.w3.org/2000/svg"
   xmlns:sodipodi="http://sodipodi.sourceforge.net/DTD/sodipodi-0.dtd"
   xmlns:inkscape="http://www.inkscape.org/namespaces/inkscape"
   height="329pt"
   viewBox="0 0 329.26933 329"
   width="329pt"
   version="1.1"
   id="svg4"
   sodipodi:docname="close-w2.svg"
   inkscape:version="0.92.4 (5da689c313, 2019-01-14)">
  <metadata
     id="metadata10">
    <rdf:RDF>
      <cc:Work
         rdf:about="">
        <dc:format>image/svg+xml</dc:format>
        <dc:type
           rdf:resource="http://purl.org/dc/dcmitype/StillImage" />
        <dc:title />
      </cc:Work>
    </rdf:RDF>
  </metadata>
  <defs
     id="defs8" />
  <sodipodi:namedview
     pagecolor="#ffffff"
     bordercolor="#666666"
     borderopacity="1"
     objecttolerance="10"
     gridtolerance="10"
     guidetolerance="10"
     inkscape:pageopacity="0"
     inkscape:pageshadow="2"
     inkscape:window-width="1920"
     inkscape:window-height="1017"
     id="namedview6"
     showgrid="false"
     inkscape:zoom="0.7608383"
     inkscape:cx="118.8112"
     inkscape:cy="253.63162"
     inkscape:window-x="-8"
     inkscape:window-y="-8"
     inkscape:window-maximized="1"
     inkscape:current-layer="svg4"
     inkscape:snap-grids="false" />
  <path
     style="opacity:1;fill:#ffffff;fill-opacity:1;stroke-width:0.77832466;stroke-miterlimit:4;stroke-dasharray:none"
     d="m 58.304038,50.35001 c -6.958916,0.286631 -11.06469,10.295786 -4.846288,14.652937 33.000386,33.247308 66.02399,66.507823 99.04841,99.746463 -33.73214,34.84026 -69.245633,68.13436 -101.941042,103.85026 -2.095457,6.60425 6.962483,14.0703 12.454906,8.69872 8.521642,-6.64016 14.906305,-15.57885 23.128938,-22.58264 26.155418,-26.1565 52.310768,-52.31305 78.466228,-78.4695 34.85429,33.94826 68.0928,69.67869 103.85717,102.59301 6.95917,2.15331 14.3353,-7.5751 8.30097,-13.01176 -6.73058,-8.20264 -15.34381,-14.6326 -22.28511,-22.66915 C 228.3631,217.03387 202.24033,190.90702 176.11375,164.784 210.06204,130.16842 245.29718,96.765192 278.50097,61.452551 281.08044,54.664645 272.35866,46.928475 266.31239,52.172764 259.13323,57.287099 254.29777,65.001694 247.4221,70.523486 219.83421,98.111378 192.24631,125.69927 164.65842,153.28717 129.8927,119.36856 96.651602,83.790181 61.008768,50.829046 60.154539,50.478111 59.227007,50.311259 58.304038,50.35001 Z"
     id="path2"
     inkscape:connector-curvature="0" />
  <flowRoot
     xml:space="preserve"
     id="flowRoot4515"
     style="fill:black;fill-opacity:1;stroke:none;font-family:sans-serif;font-style:normal;font-weight:normal;font-size:40px;line-height:1.25;letter-spacing:0px;word-spacing:0px"><flowRegion
       id="flowRegion4517"><rect
         id="rect4519"
         width="700.7514"
         height="723.05652"
         x="-61.338982"
         y="-92.937851" /></flowRegion><flowPara
       id="flowPara4521"></flowPara></flowRoot></svg>
