<?xml version="1.0" encoding="utf-8"?>
<!-- Generator: Adobe Illustrator 19.2.0, SVG Export Plug-In . SVG Version: 6.00 Build 0)  -->
<svg version="1.1" id="Livello_1" xmlns="http://www.w3.org/2000/svg" xmlns:xlink="http://www.w3.org/1999/xlink" x="0px" y="0px"
	 viewBox="0 0 146 66" style="enable-background:new 0 0 146 66;" xml:space="preserve">
<style type="text/css">
	.st0{fill:#FFFFFF;}
</style>
<rect x="93.9" y="3" class="st0" width="2" height="60"/>
<path class="st0" d="M111.3,28.8c-0.1,0.2-0.2,0.3-0.2,0.5c0,0.2,0.1,0.3,0.2,0.5l9,11.4c0.2,0.3,0.5,0.5,0.9,0.5
	c0.3,0,0.7-0.2,0.9-0.5l9-11.4c0.2-0.3,0.2-0.8,0-1.1c-0.2-0.3-0.5-0.5-0.9-0.5h-18C111.8,28.2,111.4,28.5,111.3,28.8z"/>
<g>
	<rect x="33.9" y="32.8" class="st0" width="3.7" height="3.7"/>
	<rect x="33.9" y="38.8" class="st0" width="3.7" height="3.7"/>
	<rect x="40.3" y="26.9" class="st0" width="3.7" height="3.7"/>
	<rect x="40.3" y="32.8" class="st0" width="3.7" height="3.7"/>
	<rect x="33.9" y="26.9" class="st0" width="3.7" height="3.7"/>
	<rect x="40.3" y="38.8" class="st0" width="3.7" height="3.7"/>
	<path class="st0" d="M31.1,45.2V22.5h28.4v2.5c1.1,0.2,2.2,0.4,3.2,0.8v-4.6c0-1.5-1.2-2.7-2.7-2.7H30.5c-1.5,0-2.7,1.2-2.7,2.7
		v24.9c0,1.5,1.2,2.7,2.7,2.7h17.2c-1.1-1.1-1.9-2.3-2.6-3.6L31.1,45.2L31.1,45.2z"/>
	<path class="st0" d="M46.5,26.9v3.5c1.1-1.4,2.3-2.5,3.7-3.4v-0.1C50.3,26.9,46.5,26.9,46.5,26.9z"/>
	<path class="st0" d="M35.8,20.5L35.8,20.5c0.9,0,1.7-0.7,1.7-1.7v-3.9c0-0.9-0.7-1.7-1.7-1.7l0,0c-0.9,0-1.7,0.7-1.7,1.7v3.9
		C34.1,19.8,34.9,20.5,35.8,20.5z"/>
	<path class="st0" d="M54.6,20.5L54.6,20.5c0.9,0,1.7-0.7,1.7-1.7v-3.9c0-0.9-0.7-1.7-1.7-1.7l0,0c-0.9,0-1.7,0.7-1.7,1.7v3.9
		C52.9,19.8,53.7,20.5,54.6,20.5z"/>
	<path class="st0" d="M58.4,27c-6.7,0-12.1,5.4-12.1,12.1c0,6.7,5.4,12.1,12.1,12.1c6.7,0,12.1-5.4,12.1-12.1
		C70.5,32.4,65.1,27,58.4,27z M58.4,28.9c0.6,0,1.1,0.5,1.1,1.1c0,0.6-0.5,1.1-1.1,1.1c-0.6,0-1.1-0.5-1.1-1.1
		C57.3,29.4,57.8,28.9,58.4,28.9z M49.1,40.2c-0.6,0-1.1-0.5-1.1-1.1s0.5-1.1,1.1-1.1c0.6,0,1.1,0.4,1.1,1.1
		C50.2,39.8,49.7,40.2,49.1,40.2z M58.4,49.4c-0.6,0-1.1-0.5-1.1-1.1c0-0.6,0.5-1.1,1.1-1.1c0.6,0,1,0.4,1.1,1.1
		C59.5,48.9,59,49.4,58.4,49.4z M64.7,34.5l-4.3,4.3c0,0.2,0.1,0.2,0.1,0.4c0,1.1-0.9,2-2,2c-1.1,0-1.9-0.9-2-1.9l-4.6-3.6
		c-0.4-0.3-0.5-0.8-0.2-1.1c0.2-0.3,0.8-0.4,1.2-0.1l4.2,3.2c0.4-0.3,0.8-0.6,1.4-0.6c0.4,0,0.6,0.1,1,0.2l4.1-4.1
		c0.4-0.4,1-0.4,1.3-0.1C65.1,33.5,65.1,34.1,64.7,34.5z M67.6,40.2c-0.6,0-1.1-0.5-1.1-1.1S67,38,67.6,38c0.6,0,1.1,0.5,1.1,1.1
		S68.1,40.2,67.6,40.2z"/>
</g>
</svg>
