<?xml version="1.0" encoding="utf-8"?>
<!-- Generator: Adobe Illustrator 14.0.0, SVG Export Plug-In . SVG Version: 6.00 Build 43363)  -->
<!DOCTYPE svg PUBLIC "-//W3C//DTD SVG 1.1//EN" "http://www.w3.org/Graphics/SVG/1.1/DTD/svg11.dtd">
<svg version="1.1" id="Livello_5" xmlns="http://www.w3.org/2000/svg" xmlns:xlink="http://www.w3.org/1999/xlink" x="0px" y="0px"
	 width="90.607px" height="57.122px" viewBox="0 0 90.607 57.122" enable-background="new 0 0 90.607 57.122" xml:space="preserve">
<path fill="#FFFFFF" d="M45.304,0C20.283,0,0,12.78,0,28.547c0,15.765,20.283,28.545,45.305,28.545
	c25.021,0,45.304-12.78,45.304-28.545C90.607,12.78,70.325,0,45.304,0z M45.305,53.4c-22.513,0-40.761-11.128-40.761-24.853
	c0-13.727,18.249-24.854,40.761-24.854c22.51,0,40.758,11.127,40.758,24.854C86.063,42.271,67.815,53.4,45.305,53.4z"/>
<g>
	<path fill="#FFFFFF" d="M23.648,15.689h2.722h8.468c3.595,0,6.324,1.038,8.192,3.113c1.868,2.076,2.802,5.114,2.802,9.114
		c0,4.409-0.97,7.758-2.909,10.049c-1.938,2.293-4.781,3.438-8.529,3.438H26.37h-2.722V15.689z M29.109,36.977h4.607
		c2.219,0,3.881-0.737,4.99-2.212c1.109-1.476,1.664-3.688,1.664-6.639c0-2.67-0.517-4.673-1.549-6.008
		c-1.032-1.336-2.585-2.004-4.66-2.004h-5.053V36.977z"/>
	<path fill="#FFFFFF" d="M55.598,20.254h-7.897V17.98v-2.291h21.258v2.274v2.292h-7.897v21.149h-2.723h-2.74V20.254z"/>
</g>
</svg>
