<?xml version="1.0" encoding="UTF-8" standalone="no"?>
<!-- Generator: Adobe Illustrator 14.0.0, SVG Export Plug-In . SVG Version: 6.00 Build 43363)  -->

<svg
   xmlns:dc="http://purl.org/dc/elements/1.1/"
   xmlns:cc="http://creativecommons.org/ns#"
   xmlns:rdf="http://www.w3.org/1999/02/22-rdf-syntax-ns#"
   xmlns:svg="http://www.w3.org/2000/svg"
   xmlns="http://www.w3.org/2000/svg"
   xmlns:sodipodi="http://sodipodi.sourceforge.net/DTD/sodipodi-0.dtd"
   xmlns:inkscape="http://www.inkscape.org/namespaces/inkscape"
   version="1.1"
   id="Livello_1"
   x="0px"
   y="0px"
   width="1px"
   height="90px"
   viewBox="0 0 1 90"
   enable-background="new 0 0 1 90"
   xml:space="preserve"
   inkscape:version="0.48.4 r9939"
   sodipodi:docname="Head_back_1_bpx.svg"><metadata
   id="metadata3431"><rdf:RDF><cc:Work
       rdf:about=""><dc:format>image/svg+xml</dc:format><dc:type
         rdf:resource="http://purl.org/dc/dcmitype/StillImage" /><dc:title></dc:title></cc:Work></rdf:RDF></metadata><defs
   id="defs3429">
	
	
	
	
	
	
	
	
	
	
	
	
	
	
	
	
	
	
	
	
	
	
	
	
	
	
	
	
	
	
	
	
	
	
	
	
	
	
	
	
	
	
	
	
	
	
	
	
	
	
	
	
	
	
	
	
	
	
	
	
</defs><sodipodi:namedview
   pagecolor="#ffffff"
   bordercolor="#666666"
   borderopacity="1"
   objecttolerance="10"
   gridtolerance="10"
   guidetolerance="10"
   inkscape:pageopacity="0"
   inkscape:pageshadow="2"
   inkscape:window-width="1920"
   inkscape:window-height="1017"
   id="namedview3427"
   showgrid="false"
   inkscape:zoom="7.4167645"
   inkscape:cx="-22.00866"
   inkscape:cy="40.092209"
   inkscape:window-x="-8"
   inkscape:window-y="-8"
   inkscape:window-maximized="1"
   inkscape:current-layer="Livello_1" />
<rect
   style="fill:#c1d3c2;fill-opacity:1"
   y="0"
   x="0"
   id="rect3307"
   height="1"
   width="1" /><rect
   style="fill:#cce4d4"
   x="0"
   id="rect3309"
   height="2"
   width="1"
   y="1" /><rect
   style="fill:#c1d3c2;fill-opacity:1"
   x="0"
   id="rect3311"
   height="1"
   width="1"
   y="3" /><rect
   style="fill:#cce4d4"
   x="0"
   id="rect3313"
   height="2"
   width="1"
   y="4" /><rect
   style="fill:#c1d3c2;fill-opacity:1"
   x="0"
   id="rect3315"
   height="1"
   width="1"
   y="6" /><rect
   style="fill:#cce4d4"
   x="0"
   id="rect3317"
   height="2"
   width="1"
   y="7" /><rect
   style="fill:#c1d3c2;fill-opacity:1"
   x="0"
   id="rect3319"
   height="1"
   width="1"
   y="9" /><rect
   style="fill:#cce4d4"
   x="0"
   id="rect3321"
   height="2"
   width="1"
   y="10" /><rect
   style="fill:#c1d3c2;fill-opacity:1"
   x="0"
   id="rect3323"
   height="1"
   width="1"
   y="12" /><rect
   style="fill:#cce4d4"
   x="0"
   id="rect3325"
   height="2"
   width="1"
   y="13" /><rect
   style="fill:#c1d3c2;fill-opacity:1"
   x="0"
   id="rect3327"
   height="1"
   width="1"
   y="15" /><rect
   style="fill:#cce4d4"
   x="0"
   id="rect3329"
   height="2"
   width="1"
   y="16" /><rect
   style="fill:#c1d3c2;fill-opacity:1"
   x="0"
   id="rect3331"
   height="1"
   width="1"
   y="18" /><rect
   style="fill:#cce4d4"
   x="0"
   id="rect3333"
   height="2"
   width="1"
   y="19" /><rect
   style="fill:#c1d3c2;fill-opacity:1"
   x="0"
   id="rect3335"
   height="1"
   width="1"
   y="21" /><rect
   style="fill:#cce4d4"
   x="0"
   id="rect3337"
   height="2"
   width="1"
   y="22" /><rect
   style="fill:#c1d3c2;fill-opacity:1"
   x="0"
   id="rect3339"
   height="1"
   width="1"
   y="24" /><rect
   style="fill:#cce4d4"
   x="0"
   id="rect3341"
   height="2"
   width="1"
   y="25" /><rect
   style="fill:#c1d3c2;fill-opacity:1"
   x="0"
   id="rect3343"
   height="1"
   width="1"
   y="27" /><rect
   style="fill:#cce4d4"
   x="0"
   id="rect3345"
   height="2"
   width="1"
   y="28" /><rect
   style="fill:#c1d3c2;fill-opacity:1"
   x="0"
   id="rect3347"
   height="1"
   width="1"
   y="30" /><rect
   style="fill:#cce4d4"
   x="0"
   id="rect3349"
   height="2"
   width="1"
   y="31" /><rect
   style="fill:#c1d3c2;fill-opacity:1"
   x="0"
   id="rect3351"
   height="1"
   width="1"
   y="33" /><rect
   style="fill:#cce4d4"
   x="0"
   id="rect3353"
   height="2"
   width="1"
   y="34" /><rect
   style="fill:#c1d3c2;fill-opacity:1"
   x="0"
   id="rect3355"
   height="1"
   width="1"
   y="36" /><rect
   style="fill:#cce4d4"
   x="0"
   id="rect3357"
   height="2"
   width="1"
   y="37" /><rect
   style="fill:#c1d3c2;fill-opacity:1"
   x="0"
   id="rect3359"
   height="1"
   width="1"
   y="39" /><rect
   style="fill:#cce4d4"
   x="0"
   id="rect3361"
   height="2"
   width="1"
   y="40" /><rect
   style="fill:#c1d3c2;fill-opacity:1"
   x="0"
   id="rect3363"
   height="1"
   width="1"
   y="42" /><rect
   style="fill:#cce4d4"
   x="0"
   id="rect3365"
   height="2"
   width="1"
   y="43" /><rect
   style="fill:#c1d3c2;fill-opacity:1"
   x="0"
   id="rect3367"
   height="1"
   width="1"
   y="45" /><rect
   style="fill:#cce4d4"
   x="0"
   id="rect3369"
   height="2"
   width="1"
   y="46" /><rect
   style="fill:#c1d3c2;fill-opacity:1"
   x="0"
   id="rect3371"
   height="1"
   width="1"
   y="48" /><rect
   style="fill:#cce4d4"
   x="0"
   id="rect3373"
   height="2"
   width="1"
   y="49" /><rect
   style="fill:#c1d3c2;fill-opacity:1"
   x="0"
   id="rect3375"
   height="1"
   width="1"
   y="51" /><rect
   style="fill:#cce4d4"
   x="0"
   id="rect3377"
   height="2"
   width="1"
   y="52" /><rect
   style="fill:#c1d3c2;fill-opacity:1"
   x="0"
   id="rect3379"
   height="1"
   width="1"
   y="54" /><rect
   style="fill:#cce4d4"
   x="0"
   id="rect3381"
   height="2"
   width="1"
   y="55" /><rect
   style="fill:#c1d3c2;fill-opacity:1"
   x="0"
   id="rect3383"
   height="1"
   width="1"
   y="57" /><rect
   style="fill:#cce4d4"
   x="0"
   id="rect3385"
   height="2"
   width="1"
   y="58" /><rect
   style="fill:#c1d3c2;fill-opacity:1"
   x="0"
   id="rect3387"
   height="1"
   width="1"
   y="60" /><rect
   style="fill:#cce4d4"
   x="0"
   id="rect3389"
   height="2"
   width="1"
   y="61" /><rect
   style="fill:#c1d3c2;fill-opacity:1"
   x="0"
   id="rect3391"
   height="1"
   width="1"
   y="63" /><rect
   style="fill:#cce4d4"
   x="0"
   id="rect3393"
   height="2"
   width="1"
   y="64" /><rect
   style="fill:#c1d3c2;fill-opacity:1"
   x="0"
   id="rect3395"
   height="1"
   width="1"
   y="66" /><rect
   style="fill:#cce4d4"
   x="0"
   id="rect3397"
   height="2"
   width="1"
   y="67" /><rect
   style="fill:#c1d3c2;fill-opacity:1"
   x="0"
   id="rect3399"
   height="1"
   width="1"
   y="69" /><rect
   style="fill:#cce4d4"
   x="0"
   id="rect3401"
   height="2"
   width="1"
   y="70" /><rect
   style="fill:#c1d3c2;fill-opacity:1"
   x="0"
   id="rect3403"
   height="1"
   width="1"
   y="72" /><rect
   style="fill:#cce4d4"
   x="0"
   id="rect3405"
   height="2"
   width="1"
   y="73" /><rect
   style="fill:#c1d3c2;fill-opacity:1"
   x="0"
   id="rect3407"
   height="1"
   width="1"
   y="75" /><rect
   style="fill:#cce4d4"
   x="0"
   id="rect3409"
   height="2"
   width="1"
   y="76" /><rect
   style="fill:#c1d3c2;fill-opacity:1"
   x="0"
   id="rect3411"
   height="1"
   width="1"
   y="78" /><rect
   style="fill:#cce4d4"
   x="0"
   id="rect3413"
   height="2"
   width="1"
   y="79" /><rect
   style="fill:#c1d3c2;fill-opacity:1"
   x="0"
   id="rect3415"
   height="1"
   width="1"
   y="81" /><rect
   style="fill:#cce4d4"
   x="0"
   id="rect3417"
   height="2"
   width="1"
   y="82" /><rect
   style="fill:#c1d3c2;fill-opacity:1"
   x="0"
   id="rect3419"
   height="1"
   width="1"
   y="84" /><rect
   style="fill:#cce4d4"
   x="0"
   id="rect3421"
   height="2"
   width="1"
   y="85" /><rect
   style="fill:#c1d3c2;fill-opacity:1"
   x="0"
   id="rect3423"
   height="1"
   width="1"
   y="87" /><rect
   style="fill:#cce4d4"
   x="0"
   id="rect3425"
   height="2"
   width="1"
   y="88" />
</svg>