<?xml version="1.0" encoding="UTF-8" standalone="no"?>
<!-- Created with Inkscape (http://www.inkscape.org/) -->

<svg
   xmlns:dc="http://purl.org/dc/elements/1.1/"
   xmlns:cc="http://creativecommons.org/ns#"
   xmlns:rdf="http://www.w3.org/1999/02/22-rdf-syntax-ns#"
   xmlns:svg="http://www.w3.org/2000/svg"
   xmlns="http://www.w3.org/2000/svg"
   xmlns:sodipodi="http://sodipodi.sourceforge.net/DTD/sodipodi-0.dtd"
   xmlns:inkscape="http://www.inkscape.org/namespaces/inkscape"
   width="744.09448819"
   height="1052.3622047"
   id="svg2"
   version="1.1"
   inkscape:version="0.48.4 r9939"
   sodipodi:docname="Head_back_3.svg">
  <defs
     id="defs4">
	
	
	
	
	
	
	
	
	
	
	
	
	
	
	
	
	
	
	
	
	
	
	
	
	
	
	
	
	
	
	
	
	
	
	
	
	
	
	
	
	
	
	
	
	
	
	
	
	
	
	
	
	
	
	
	
	
	
	
	
</defs>
  <sodipodi:namedview
     id="base"
     pagecolor="#ffffff"
     bordercolor="#666666"
     borderopacity="1.0"
     inkscape:pageopacity="0.0"
     inkscape:pageshadow="2"
     inkscape:zoom="7.9195959"
     inkscape:cx="331.00181"
     inkscape:cy="543.75643"
     inkscape:document-units="px"
     inkscape:current-layer="layer1"
     showgrid="false"
     inkscape:window-width="1920"
     inkscape:window-height="1017"
     inkscape:window-x="-8"
     inkscape:window-y="-8"
     inkscape:window-maximized="1" />
  <metadata
     id="metadata7">
    <rdf:RDF>
      <cc:Work
         rdf:about="">
        <dc:format>image/svg+xml</dc:format>
        <dc:type
           rdf:resource="http://purl.org/dc/dcmitype/StillImage" />
        <dc:title></dc:title>
      </cc:Work>
    </rdf:RDF>
  </metadata>
  <g
     inkscape:label="Livello 1"
     inkscape:groupmode="layer"
     id="layer1">
    <g
       id="g4826">
      <rect
         id="rect2990"
         height="2"
         width="9.207489"
         y="462.64789"
         x="348.07144"
         style="fill:#cce4d4" />
      <rect
         id="rect2994"
         height="2"
         width="9.207489"
         y="465.64789"
         x="348.07144"
         style="fill:#cce4d4" />
      <rect
         id="rect2998"
         height="2"
         width="9.207489"
         y="468.64789"
         x="348.07144"
         style="fill:#cce4d4" />
      <rect
         id="rect3002"
         height="2"
         width="9.207489"
         y="471.64789"
         x="348.07144"
         style="fill:#cce4d4" />
      <rect
         id="rect3006"
         height="2"
         width="9.207489"
         y="474.64789"
         x="348.07144"
         style="fill:#cce4d4" />
      <rect
         id="rect3010"
         height="2"
         width="9.207489"
         y="477.64789"
         x="348.07144"
         style="fill:#cce4d4" />
      <rect
         id="rect3014"
         height="2"
         width="9.207489"
         y="480.64789"
         x="348.07144"
         style="fill:#cce4d4" />
      <rect
         id="rect3018"
         height="2"
         width="9.207489"
         y="483.64789"
         x="348.07144"
         style="fill:#cce4d4" />
      <rect
         id="rect3022"
         height="2"
         width="9.207489"
         y="486.64789"
         x="348.07144"
         style="fill:#cce4d4" />
      <rect
         id="rect3026"
         height="2"
         width="9.207489"
         y="489.64789"
         x="348.07144"
         style="fill:#cce4d4" />
      <rect
         id="rect3030"
         height="2"
         width="9.207489"
         y="492.64789"
         x="348.07144"
         style="fill:#cce4d4" />
      <rect
         id="rect3034"
         height="2"
         width="9.207489"
         y="495.64789"
         x="348.07144"
         style="fill:#cce4d4" />
      <rect
         id="rect3038"
         height="2"
         width="9.207489"
         y="498.64789"
         x="348.07144"
         style="fill:#cce4d4" />
      <rect
         id="rect3042"
         height="2"
         width="9.207489"
         y="501.64789"
         x="348.07144"
         style="fill:#cce4d4" />
      <rect
         id="rect3046"
         height="2"
         width="9.207489"
         y="504.64789"
         x="348.07144"
         style="fill:#cce4d4" />
      <rect
         id="rect3050"
         height="2"
         width="9.207489"
         y="507.64789"
         x="348.07144"
         style="fill:#cce4d4" />
      <rect
         id="rect3054"
         height="2"
         width="9.207489"
         y="510.64789"
         x="348.07144"
         style="fill:#cce4d4" />
      <rect
         id="rect3058"
         height="2"
         width="9.207489"
         y="513.64789"
         x="348.07144"
         style="fill:#cce4d4" />
      <rect
         id="rect3062"
         height="2"
         width="9.207489"
         y="516.64789"
         x="348.07144"
         style="fill:#cce4d4" />
      <rect
         id="rect3066"
         height="2"
         width="9.207489"
         y="519.64789"
         x="348.07144"
         style="fill:#cce4d4" />
      <rect
         id="rect3070"
         height="2"
         width="9.207489"
         y="522.64789"
         x="348.07144"
         style="fill:#cce4d4" />
      <rect
         id="rect3074"
         height="2"
         width="9.207489"
         y="525.64789"
         x="348.07144"
         style="fill:#cce4d4" />
      <rect
         id="rect3078"
         height="2"
         width="9.207489"
         y="528.64789"
         x="348.07144"
         style="fill:#cce4d4" />
      <path
         id="path4100"
         d="m 348.07144,530.64789 9.20749,0 0,1 -9.20749,0 z"
         style="fill:#bad0bc;fill-opacity:1" />
      <path
         id="path4098"
         d="m 348.07144,527.64789 9.20749,0 0,1 -9.20749,0 z"
         style="fill:#bad0bc;fill-opacity:1" />
      <path
         id="path4096"
         d="m 348.07144,524.64789 9.20749,0 0,1 -9.20749,0 z"
         style="fill:#bad0bc;fill-opacity:1" />
      <path
         id="path4094"
         d="m 348.07144,521.64789 9.20749,0 0,1 -9.20749,0 z"
         style="fill:#bad0bc;fill-opacity:1" />
      <path
         id="path4092"
         d="m 348.07144,518.64789 9.20749,0 0,1 -9.20749,0 z"
         style="fill:#bad0bc;fill-opacity:1" />
      <path
         id="path4090"
         d="m 348.07144,515.64789 9.20749,0 0,1 -9.20749,0 z"
         style="fill:#bad0bc;fill-opacity:1" />
      <path
         id="path4088"
         d="m 348.07144,512.64789 9.20749,0 0,1 -9.20749,0 z"
         style="fill:#bad0bc;fill-opacity:1" />
      <path
         id="path4086"
         d="m 348.07144,509.64789 9.20749,0 0,1 -9.20749,0 z"
         style="fill:#bad0bc;fill-opacity:1" />
      <path
         id="path4084"
         d="m 348.07144,506.64789 9.20749,0 0,1 -9.20749,0 z"
         style="fill:#bad0bc;fill-opacity:1" />
      <path
         id="path4082"
         d="m 348.07144,503.64789 9.20749,0 0,1 -9.20749,0 z"
         style="fill:#bad0bc;fill-opacity:1" />
      <path
         id="path4080"
         d="m 348.07144,500.64789 9.20749,0 0,1 -9.20749,0 z"
         style="fill:#bad0bc;fill-opacity:1" />
      <path
         id="path4078"
         d="m 348.07144,497.64789 9.20749,0 0,1 -9.20749,0 z"
         style="fill:#bad0bc;fill-opacity:1" />
      <path
         id="path4076"
         d="m 348.07144,494.64789 9.20749,0 0,1 -9.20749,0 z"
         style="fill:#bad0bc;fill-opacity:1" />
      <path
         id="path4074"
         d="m 348.07144,491.64789 9.20749,0 0,1 -9.20749,0 z"
         style="fill:#bad0bc;fill-opacity:1" />
      <path
         id="path4072"
         d="m 348.07144,488.64789 9.20749,0 0,1 -9.20749,0 z"
         style="fill:#bad0bc;fill-opacity:1" />
      <path
         id="path4070"
         d="m 348.07144,485.64789 9.20749,0 0,1 -9.20749,0 z"
         style="fill:#bad0bc;fill-opacity:1" />
      <path
         id="path4068"
         d="m 348.07144,482.64789 9.20749,0 0,1 -9.20749,0 z"
         style="fill:#bad0bc;fill-opacity:1" />
      <path
         id="path4066"
         d="m 348.07144,479.64789 9.20749,0 0,1 -9.20749,0 z"
         style="fill:#bad0bc;fill-opacity:1" />
      <path
         id="path4064"
         d="m 348.07144,476.64789 9.20749,0 0,1 -9.20749,0 z"
         style="fill:#bad0bc;fill-opacity:1" />
      <path
         id="path4062"
         d="m 348.07144,473.64789 9.20749,0 0,1 -9.20749,0 z"
         style="fill:#bad0bc;fill-opacity:1" />
      <path
         id="path4060"
         d="m 348.07144,470.64789 9.20749,0 0,1 -9.20749,0 z"
         style="fill:#bad0bc;fill-opacity:1" />
      <path
         id="path4058"
         d="m 348.07144,467.64789 9.20749,0 0,1 -9.20749,0 z"
         style="fill:#bad0bc;fill-opacity:1" />
      <path
         id="path4056"
         d="m 348.07144,464.64789 9.20749,0 0,1 -9.20749,0 z"
         style="fill:#bad0bc;fill-opacity:1" />
      <path
         id="rect3104"
         d="m 348.07144,461.64789 9.20749,0 0,1 -9.20749,0 z"
         style="fill:#bad0bc;fill-opacity:1" />
    </g>
  </g>
</svg>
