<?xml version="1.0" encoding="UTF-8" standalone="no"?>
<!-- Generator: Adobe Illustrator 14.0.0, SVG Export Plug-In . SVG Version: 6.00 Build 43363)  -->

<svg
   xmlns:dc="http://purl.org/dc/elements/1.1/"
   xmlns:cc="http://creativecommons.org/ns#"
   xmlns:rdf="http://www.w3.org/1999/02/22-rdf-syntax-ns#"
   xmlns:svg="http://www.w3.org/2000/svg"
   xmlns="http://www.w3.org/2000/svg"
   xmlns:sodipodi="http://sodipodi.sourceforge.net/DTD/sodipodi-0.dtd"
   xmlns:inkscape="http://www.inkscape.org/namespaces/inkscape"
   version="1.1"
   id="Livello_1"
   x="0px"
   y="0px"
   width="1px"
   height="90px"
   viewBox="0 0 1 90"
   enable-background="new 0 0 1 90"
   xml:space="preserve"
   inkscape:version="0.48.4 r9939"
   sodipodi:docname="Head_back_1px.svg"><metadata
   id="metadata3431"><rdf:RDF><cc:Work
       rdf:about=""><dc:format>image/svg+xml</dc:format><dc:type
         rdf:resource="http://purl.org/dc/dcmitype/StillImage" /><dc:title></dc:title></cc:Work></rdf:RDF></metadata><defs
   id="defs3429" /><sodipodi:namedview
   pagecolor="#ffffff"
   bordercolor="#666666"
   borderopacity="1"
   objecttolerance="10"
   gridtolerance="10"
   guidetolerance="10"
   inkscape:pageopacity="0"
   inkscape:pageshadow="2"
   inkscape:window-width="1920"
   inkscape:window-height="1017"
   id="namedview3427"
   showgrid="false"
   inkscape:zoom="7.4167645"
   inkscape:cx="1.1820458"
   inkscape:cy="40.092209"
   inkscape:window-x="-8"
   inkscape:window-y="-8"
   inkscape:window-maximized="1"
   inkscape:current-layer="Livello_1" />
<g
   id="g3305">
	<rect
   fill="#CDDCCE"
   width="1"
   height="1"
   id="rect3307" />
	<rect
   y="1"
   fill="#CCE4D4"
   width="1"
   height="2"
   id="rect3309" />
	<rect
   y="3"
   fill="#CDDCCE"
   width="1"
   height="1"
   id="rect3311" />
	<rect
   y="4"
   fill="#CCE4D4"
   width="1"
   height="2"
   id="rect3313" />
	<rect
   y="6"
   fill="#CDDCCE"
   width="1"
   height="1"
   id="rect3315" />
	<rect
   y="7"
   fill="#CCE4D4"
   width="1"
   height="2"
   id="rect3317" />
	<rect
   y="9"
   fill="#CDDCCE"
   width="1"
   height="1"
   id="rect3319" />
	<rect
   y="10"
   fill="#CCE4D4"
   width="1"
   height="2"
   id="rect3321" />
	<rect
   y="12"
   fill="#CDDCCE"
   width="1"
   height="1"
   id="rect3323" />
	<rect
   y="13"
   fill="#CCE4D4"
   width="1"
   height="2"
   id="rect3325" />
	<rect
   y="15"
   fill="#CDDCCE"
   width="1"
   height="1"
   id="rect3327" />
	<rect
   y="16"
   fill="#CCE4D4"
   width="1"
   height="2"
   id="rect3329" />
	<rect
   y="18"
   fill="#CDDCCE"
   width="1"
   height="1"
   id="rect3331" />
	<rect
   y="19"
   fill="#CCE4D4"
   width="1"
   height="2"
   id="rect3333" />
	<rect
   y="21"
   fill="#CDDCCE"
   width="1"
   height="1"
   id="rect3335" />
	<rect
   y="22"
   fill="#CCE4D4"
   width="1"
   height="2"
   id="rect3337" />
	<rect
   y="24"
   fill="#CDDCCE"
   width="1"
   height="1"
   id="rect3339" />
	<rect
   y="25"
   fill="#CCE4D4"
   width="1"
   height="2"
   id="rect3341" />
	<rect
   y="27"
   fill="#CDDCCE"
   width="1"
   height="1"
   id="rect3343" />
	<rect
   y="28"
   fill="#CCE4D4"
   width="1"
   height="2"
   id="rect3345" />
	<rect
   y="30"
   fill="#CDDCCE"
   width="1"
   height="1"
   id="rect3347" />
	<rect
   y="31"
   fill="#CCE4D4"
   width="1"
   height="2"
   id="rect3349" />
	<rect
   y="33"
   fill="#CDDCCE"
   width="1"
   height="1"
   id="rect3351" />
	<rect
   y="34"
   fill="#CCE4D4"
   width="1"
   height="2"
   id="rect3353" />
	<rect
   y="36"
   fill="#CDDCCE"
   width="1"
   height="1"
   id="rect3355" />
	<rect
   y="37"
   fill="#CCE4D4"
   width="1"
   height="2"
   id="rect3357" />
	<rect
   y="39"
   fill="#CDDCCE"
   width="1"
   height="1"
   id="rect3359" />
	<rect
   y="40"
   fill="#CCE4D4"
   width="1"
   height="2"
   id="rect3361" />
	<rect
   y="42"
   fill="#CDDCCE"
   width="1"
   height="1"
   id="rect3363" />
	<rect
   y="43"
   fill="#CCE4D4"
   width="1"
   height="2"
   id="rect3365" />
	<rect
   y="45"
   fill="#CDDCCE"
   width="1"
   height="1"
   id="rect3367" />
	<rect
   y="46"
   fill="#CCE4D4"
   width="1"
   height="2"
   id="rect3369" />
	<rect
   y="48"
   fill="#CDDCCE"
   width="1"
   height="1"
   id="rect3371" />
	<rect
   y="49"
   fill="#CCE4D4"
   width="1"
   height="2"
   id="rect3373" />
	<rect
   y="51"
   fill="#CDDCCE"
   width="1"
   height="1"
   id="rect3375" />
	<rect
   y="52"
   fill="#CCE4D4"
   width="1"
   height="2"
   id="rect3377" />
	<rect
   y="54"
   fill="#CDDCCE"
   width="1"
   height="1"
   id="rect3379" />
	<rect
   y="55"
   fill="#CCE4D4"
   width="1"
   height="2"
   id="rect3381" />
	<rect
   y="57"
   fill="#CDDCCE"
   width="1"
   height="1"
   id="rect3383" />
	<rect
   y="58"
   fill="#CCE4D4"
   width="1"
   height="2"
   id="rect3385" />
	<rect
   y="60"
   fill="#CDDCCE"
   width="1"
   height="1"
   id="rect3387" />
	<rect
   y="61"
   fill="#CCE4D4"
   width="1"
   height="2"
   id="rect3389" />
	<rect
   y="63"
   fill="#CDDCCE"
   width="1"
   height="1"
   id="rect3391" />
	<rect
   y="64"
   fill="#CCE4D4"
   width="1"
   height="2"
   id="rect3393" />
	<rect
   y="66"
   fill="#CDDCCE"
   width="1"
   height="1"
   id="rect3395" />
	<rect
   y="67"
   fill="#CCE4D4"
   width="1"
   height="2"
   id="rect3397" />
	<rect
   y="69"
   fill="#CDDCCE"
   width="1"
   height="1"
   id="rect3399" />
	<rect
   y="70"
   fill="#CCE4D4"
   width="1"
   height="2"
   id="rect3401" />
	<rect
   y="72"
   fill="#CDDCCE"
   width="1"
   height="1"
   id="rect3403" />
	<rect
   y="73"
   fill="#CCE4D4"
   width="1"
   height="2"
   id="rect3405" />
	<rect
   y="75"
   fill="#CDDCCE"
   width="1"
   height="1"
   id="rect3407" />
	<rect
   y="76"
   fill="#CCE4D4"
   width="1"
   height="2"
   id="rect3409" />
	<rect
   y="78"
   fill="#CDDCCE"
   width="1"
   height="1"
   id="rect3411" />
	<rect
   y="79"
   fill="#CCE4D4"
   width="1"
   height="2"
   id="rect3413" />
	<rect
   y="81"
   fill="#CDDCCE"
   width="1"
   height="1"
   id="rect3415" />
	<rect
   y="82"
   fill="#CCE4D4"
   width="1"
   height="2"
   id="rect3417" />
	<rect
   y="84"
   fill="#CDDCCE"
   width="1"
   height="1"
   id="rect3419" />
	<rect
   y="85"
   fill="#CCE4D4"
   width="1"
   height="2"
   id="rect3421" />
	<rect
   y="87"
   fill="#CDDCCE"
   width="1"
   height="1"
   id="rect3423" />
	<rect
   y="88"
   fill="#CCE4D4"
   width="1"
   height="2"
   id="rect3425" />
</g>
</svg>