<?xml version="1.0" encoding="utf-8"?>
<!-- Generator: Adobe Illustrator 14.0.0, SVG Export Plug-In . SVG Version: 6.00 Build 43363)  -->
<!DOCTYPE svg PUBLIC "-//W3C//DTD SVG 1.1//EN" "http://www.w3.org/Graphics/SVG/1.1/DTD/svg11.dtd">
<svg version="1.1" id="Livello_1" xmlns="http://www.w3.org/2000/svg" xmlns:xlink="http://www.w3.org/1999/xlink" x="0px" y="0px"
	 width="1px" height="90px" viewBox="0 0 1 90" enable-background="new 0 0 1 90" xml:space="preserve">
<g>
	<rect fill="#CDDCCE" width="1" height="1"/>
	<rect y="1" fill="#CCE4D4" width="1" height="2"/>
	<rect y="3" fill="#CDDCCE" width="1" height="1"/>
	<rect y="4" fill="#CCE4D4" width="1" height="2"/>
	<rect y="6" fill="#CDDCCE" width="1" height="1"/>
	<rect y="7" fill="#CCE4D4" width="1" height="2"/>
	<rect y="9" fill="#CDDCCE" width="1" height="1"/>
	<rect y="10" fill="#CCE4D4" width="1" height="2"/>
	<rect y="12" fill="#CDDCCE" width="1" height="1"/>
	<rect y="13" fill="#CCE4D4" width="1" height="2"/>
	<rect y="15" fill="#CDDCCE" width="1" height="1"/>
	<rect y="16" fill="#CCE4D4" width="1" height="2"/>
	<rect y="18" fill="#CDDCCE" width="1" height="1"/>
	<rect y="19" fill="#CCE4D4" width="1" height="2"/>
	<rect y="21" fill="#CDDCCE" width="1" height="1"/>
	<rect y="22" fill="#CCE4D4" width="1" height="2"/>
	<rect y="24" fill="#CDDCCE" width="1" height="1"/>
	<rect y="25" fill="#CCE4D4" width="1" height="2"/>
	<rect y="27" fill="#CDDCCE" width="1" height="1"/>
	<rect y="28" fill="#CCE4D4" width="1" height="2"/>
	<rect y="30" fill="#CDDCCE" width="1" height="1"/>
	<rect y="31" fill="#CCE4D4" width="1" height="2"/>
	<rect y="33" fill="#CDDCCE" width="1" height="1"/>
	<rect y="34" fill="#CCE4D4" width="1" height="2"/>
	<rect y="36" fill="#CDDCCE" width="1" height="1"/>
	<rect y="37" fill="#CCE4D4" width="1" height="2"/>
	<rect y="39" fill="#CDDCCE" width="1" height="1"/>
	<rect y="40" fill="#CCE4D4" width="1" height="2"/>
	<rect y="42" fill="#CDDCCE" width="1" height="1"/>
	<rect y="43" fill="#CCE4D4" width="1" height="2"/>
	<rect y="45" fill="#CDDCCE" width="1" height="1"/>
	<rect y="46" fill="#CCE4D4" width="1" height="2"/>
	<rect y="48" fill="#CDDCCE" width="1" height="1"/>
	<rect y="49" fill="#CCE4D4" width="1" height="2"/>
	<rect y="51" fill="#CDDCCE" width="1" height="1"/>
	<rect y="52" fill="#CCE4D4" width="1" height="2"/>
	<rect y="54" fill="#CDDCCE" width="1" height="1"/>
	<rect y="55" fill="#CCE4D4" width="1" height="2"/>
	<rect y="57" fill="#CDDCCE" width="1" height="1"/>
	<rect y="58" fill="#CCE4D4" width="1" height="2"/>
	<rect y="60" fill="#CDDCCE" width="1" height="1"/>
	<rect y="61" fill="#CCE4D4" width="1" height="2"/>
	<rect y="63" fill="#CDDCCE" width="1" height="1"/>
	<rect y="64" fill="#CCE4D4" width="1" height="2"/>
	<rect y="66" fill="#CDDCCE" width="1" height="1"/>
	<rect y="67" fill="#CCE4D4" width="1" height="2"/>
	<rect y="69" fill="#CDDCCE" width="1" height="1"/>
	<rect y="70" fill="#CCE4D4" width="1" height="2"/>
	<rect y="72" fill="#CDDCCE" width="1" height="1"/>
	<rect y="73" fill="#CCE4D4" width="1" height="2"/>
	<rect y="75" fill="#CDDCCE" width="1" height="1"/>
	<rect y="76" fill="#CCE4D4" width="1" height="2"/>
	<rect y="78" fill="#CDDCCE" width="1" height="1"/>
	<rect y="79" fill="#CCE4D4" width="1" height="2"/>
	<rect y="81" fill="#CDDCCE" width="1" height="1"/>
	<rect y="82" fill="#CCE4D4" width="1" height="2"/>
	<rect y="84" fill="#CDDCCE" width="1" height="1"/>
	<rect y="85" fill="#CCE4D4" width="1" height="2"/>
	<rect y="87" fill="#CDDCCE" width="1" height="1"/>
	<rect y="88" fill="#CCE4D4" width="1" height="2"/>
</g>
</svg>
