<?xml version="1.0" encoding="UTF-8" standalone="no"?>
<!DOCTYPE svg PUBLIC "-//W3C//DTD SVG 1.1//EN" "http://www.w3.org/Graphics/SVG/1.1/DTD/svg11.dtd">
<svg version="1.1" xmlns="http://www.w3.org/2000/svg" xmlns:xlink="http://www.w3.org/1999/xlink" preserveAspectRatio="xMidYMid meet" viewBox="0 0 640 640" width="640" height="640"><defs><path d="M24 0C24 0 24 0 24 0C24 14.4 24 22.4 24 24C24 24 24 24 24 24C9.6 24 1.6 24 0 24C0 24 0 24 0 24C0 9.6 0 1.6 0 0C0 0 0 0 0 0C14.4 0 22.4 0 24 0Z" id="a1HzbLSh1H"></path><path d="M3 10.29C3 6.26 6.26 3 10.29 3C14.31 3 17.58 6.26 17.58 10.29C17.57 14.31 14.31 17.57 10.29 17.58C6.26 17.58 3 14.31 3 10.29ZM4 10.29C4 13.76 6.82 16.58 10.29 16.58C13.76 16.58 16.58 13.76 16.58 10.29C16.57 6.82 13.76 4.01 10.29 4C6.82 4 4 6.82 4 10.29Z" id="a1Jiw1EcjI"></path><path d="M20.39 21.06C19.84 20.51 15.45 16.11 14.9 15.56C14.71 15.37 14.71 15.05 14.91 14.86C15.11 14.67 15.41 14.67 15.61 14.86C16.16 15.41 20.55 19.8 21.1 20.35C21.3 20.55 21.3 20.86 21.1 21.06C21.01 21.15 20.88 21.2 20.75 21.21C20.62 21.2 20.49 21.15 20.39 21.06Z" id="abLSqYpWI"></path></defs><g><g><g><use xlink:href="#a1HzbLSh1H" opacity="1" fill="#000000" fill-opacity="0"></use><g><use xlink:href="#a1HzbLSh1H" opacity="1" fill-opacity="0" stroke="#000000" stroke-width="1" stroke-opacity="0"></use></g></g><g><use xlink:href="#a1Jiw1EcjI" opacity="1" fill="#b0b0b0" fill-opacity="1"></use><g><use xlink:href="#a1Jiw1EcjI" opacity="1" fill-opacity="0" stroke="#000000" stroke-width="1" stroke-opacity="0"></use></g></g><g><use xlink:href="#abLSqYpWI" opacity="1" fill="#b0b0b0" fill-opacity="1"></use><g><use xlink:href="#abLSqYpWI" opacity="1" fill-opacity="0" stroke="#000000" stroke-width="1" stroke-opacity="0"></use></g></g></g></g></svg>