<?xml version="1.0" encoding="utf-8"?>
<!-- Generator: Adobe Illustrator 14.0.0, SVG Export Plug-In . SVG Version: 6.00 Build 43363)  -->
<!DOCTYPE svg PUBLIC "-//W3C//DTD SVG 1.1//EN" "http://www.w3.org/Graphics/SVG/1.1/DTD/svg11.dtd">
<svg version="1.1" id="Livello_1" xmlns="http://www.w3.org/2000/svg" xmlns:xlink="http://www.w3.org/1999/xlink" x="0px" y="0px"
	 width="93.87px" height="19.499px" viewBox="0 0 93.87 19.499" enable-background="new 0 0 93.87 19.499" xml:space="preserve">
<g>
	<path fill="#FFFFFF" d="M22.626,5.08h2.146v9.188h-2.146V5.08z"/>
	<path fill="#FFFFFF" d="M26.827,5.08h2.262c1.264,0,2.204,0.1,2.822,0.298c0.619,0.199,1.149,0.537,1.592,1.013
		c0.39,0.415,0.68,0.892,0.869,1.434c0.189,0.542,0.284,1.155,0.284,1.84c0,0.693-0.095,1.312-0.284,1.855
		c-0.189,0.544-0.479,1.023-0.869,1.437c-0.446,0.476-0.981,0.813-1.605,1.013c-0.624,0.199-1.56,0.298-2.809,0.298h-2.262V5.08z
		 M28.972,6.871v5.606h0.769c0.877,0,1.546-0.24,2.009-0.72c0.463-0.48,0.693-1.178,0.693-2.093c0-0.911-0.23-1.604-0.69-2.08
		c-0.461-0.476-1.131-0.714-2.012-0.714H28.972z"/>
	<path fill="#FFFFFF" d="M40.053,4.914c1.338,0,2.385,0.422,3.143,1.268s1.137,2.013,1.137,3.502c0,1.485-0.379,2.65-1.137,3.496
		s-1.805,1.268-3.143,1.268c-1.333,0-2.38-0.423-3.14-1.268s-1.14-2.01-1.14-3.496c0-1.489,0.38-2.657,1.14-3.502
		S38.72,4.914,40.053,4.914z M40.053,6.63c-0.653,0-1.161,0.267-1.521,0.8s-0.54,1.284-0.54,2.252c0,0.964,0.18,1.713,0.54,2.246
		c0.36,0.534,0.868,0.8,1.521,0.8c0.658,0,1.167-0.267,1.527-0.8c0.36-0.533,0.54-1.282,0.54-2.246c0-0.968-0.18-1.719-0.54-2.252
		S40.711,6.63,40.053,6.63z"/>
	<path fill="#FFFFFF" d="M45.91,5.08h2.396l3.026,6.302V5.08h2.033v9.188h-2.396l-3.026-6.302v6.302H45.91V5.08z"/>
	<path fill="#FFFFFF" d="M55.415,5.08h5.789v1.791h-3.645v1.711h3.428v1.791h-3.428v2.104h3.768v1.791h-5.912V5.08z"/>
	<path fill="#FFFFFF" d="M66.963,4.914c1.339,0,2.386,0.422,3.144,1.268s1.137,2.013,1.137,3.502c0,1.485-0.379,2.65-1.137,3.496
		s-1.805,1.268-3.144,1.268c-1.332,0-2.379-0.423-3.139-1.268s-1.141-2.01-1.141-3.496c0-1.489,0.381-2.657,1.141-3.502
		S65.631,4.914,66.963,4.914z M66.963,6.63c-0.652,0-1.16,0.267-1.521,0.8c-0.359,0.533-0.539,1.284-0.539,2.252
		c0,0.964,0.18,1.713,0.539,2.246c0.361,0.534,0.869,0.8,1.521,0.8c0.658,0,1.169-0.267,1.528-0.8
		c0.361-0.533,0.541-1.282,0.541-2.246c0-0.968-0.18-1.719-0.541-2.252C68.132,6.897,67.622,6.63,66.963,6.63z"/>
</g>
</svg>
