<?xml version="1.0" encoding="UTF-8" standalone="no"?>
<!-- Generator: Adobe Illustrator 14.0.0, SVG Export Plug-In . SVG Version: 6.00 Build 43363)  -->

<svg
   xmlns:dc="http://purl.org/dc/elements/1.1/"
   xmlns:cc="http://creativecommons.org/ns#"
   xmlns:rdf="http://www.w3.org/1999/02/22-rdf-syntax-ns#"
   xmlns:svg="http://www.w3.org/2000/svg"
   xmlns="http://www.w3.org/2000/svg"
   xmlns:sodipodi="http://sodipodi.sourceforge.net/DTD/sodipodi-0.dtd"
   xmlns:inkscape="http://www.inkscape.org/namespaces/inkscape"
   version="1.1"
   id="Livello_1"
   x="0px"
   y="0px"
   width="56.69px"
   height="56.689px"
   viewBox="0 0 56.69 56.689"
   enable-background="new 0 0 56.69 56.689"
   xml:space="preserve"
   sodipodi:docname="indietro.svg"
   inkscape:version="0.92.4 (5da689c313, 2019-01-14)"><metadata
   id="metadata15"><rdf:RDF><cc:Work
       rdf:about=""><dc:format>image/svg+xml</dc:format><dc:type
         rdf:resource="http://purl.org/dc/dcmitype/StillImage" /><dc:title /></cc:Work></rdf:RDF></metadata><defs
   id="defs13" /><sodipodi:namedview
   pagecolor="#ffffff"
   bordercolor="#666666"
   borderopacity="1"
   objecttolerance="10"
   gridtolerance="10"
   guidetolerance="10"
   inkscape:pageopacity="0"
   inkscape:pageshadow="2"
   inkscape:window-width="1920"
   inkscape:window-height="1017"
   id="namedview11"
   showgrid="false"
   inkscape:zoom="4.1630652"
   inkscape:cx="-11.889778"
   inkscape:cy="28.3445"
   inkscape:window-x="-8"
   inkscape:window-y="108"
   inkscape:window-maximized="1"
   inkscape:current-layer="Livello_1" />
<g
   id="g6"
   transform="matrix(0,-1.5692557,1.5692557,0,-15.111341,83.479106)"
   style="fill:#ffffff">
	
	<path
   d="m 49.700875,37.514875 c 0.133,-0.252 0.202,-0.527 0.202,-0.807 0,-0.28 -0.066,-0.559 -0.202,-0.807 l -13.242,-16.723 c -0.273,-0.497 -0.778,-0.807 -1.326,-0.807 -0.543,0 -1.051,0.31 -1.325,0.81 l -13.238,16.72 c -0.273,0.5 -0.273,1.113 0,1.611 0.272,0.498 0.777,0.807 1.321,0.807 h 26.483 c 0.548,0 1.051,-0.307 1.327,-0.804 z"
   id="path4"
   inkscape:connector-curvature="0"
   style="fill:#ffffff" />
</g>
<rect
   x="-0.001"
   y="-0.001"
   fill="none"
   stroke="#231F20"
   stroke-width="0.4199"
   stroke-opacity="0"
   width="56.693"
   height="56.691"
   id="rect8" />
</svg>