<?xml version="1.0" encoding="UTF-8" standalone="no"?>
<svg
   xmlns:dc="http://purl.org/dc/elements/1.1/"
   xmlns:cc="http://creativecommons.org/ns#"
   xmlns:rdf="http://www.w3.org/1999/02/22-rdf-syntax-ns#"
   xmlns:svg="http://www.w3.org/2000/svg"
   xmlns="http://www.w3.org/2000/svg"
   xmlns:sodipodi="http://sodipodi.sourceforge.net/DTD/sodipodi-0.dtd"
   xmlns:inkscape="http://www.inkscape.org/namespaces/inkscape"
   id="Capa_1"
   enable-background="new 0 0 512 512"
   height="512"
   viewBox="0 0 512 512"
   width="512"
   version="1.1"
   sodipodi:docname="indice.svg"
   inkscape:version="0.92.4 (5da689c313, 2019-01-14)">
  <metadata
     id="metadata23">
    <rdf:RDF>
      <cc:Work
         rdf:about="">
        <dc:format>image/svg+xml</dc:format>
        <dc:type
           rdf:resource="http://purl.org/dc/dcmitype/StillImage" />
        <dc:title></dc:title>
      </cc:Work>
    </rdf:RDF>
  </metadata>
  <defs
     id="defs21" />
  <sodipodi:namedview
     pagecolor="#ffffff"
     bordercolor="#666666"
     borderopacity="1"
     objecttolerance="10"
     gridtolerance="10"
     guidetolerance="10"
     inkscape:pageopacity="0"
     inkscape:pageshadow="2"
     inkscape:window-width="1920"
     inkscape:window-height="1017"
     id="namedview19"
     showgrid="false"
     inkscape:zoom="0.4609375"
     inkscape:cx="256"
     inkscape:cy="256"
     inkscape:window-x="-8"
     inkscape:window-y="108"
     inkscape:window-maximized="1"
     inkscape:current-layer="Capa_1" />
  <g
     id="g16"
     style="fill:#ffffff">
    <g
       id="g6"
       style="fill:#ffffff">
      <path
         d="m366.649 364.636h30v76.799h-30z"
         id="path2"
         style="fill:#ffffff" />
      <path
         d="m381.615 344.712c7.846 0 15.363-6.899 15-15-.364-8.127-6.591-15-15-15-7.846 0-15.363 6.899-15 15 .364 8.127 6.591 15 15 15z"
         id="path4"
         style="fill:#ffffff" />
    </g>
    <g
       id="g14"
       style="fill:#ffffff">
      <path
         d="m408.097 255.16v-255.16h-342.172c-36.351 0-65.925 28.704-65.925 65.055v382.96h.317c3.332 35.835 33.558 63.985 70.248 63.985h311.245c71.787 0 130.19-57.533 130.19-129.319 0-62.784-44.674-115.329-103.903-127.521zm-30.047-2.61c-66.099 1.885-120.009 53.278-125.887 118.319h-131.517v-341.692h257.404zm-312.125-223.373h24.673v341.692h-20.033c-15.071 0-29.042 4.765-40.518 12.845v-318.659c0-19.784 16.095-35.878 35.878-35.878zm4.64 452.776c-22.342 0-40.518-18.177-40.518-40.518 0-22.342 18.176-40.518 40.518-40.518h182.339c1.25 8.876 3.395 17.468 6.347 25.68h-183.109v30.047h198.593c6.519 9.409 14.244 17.92 22.951 25.31h-227.121zm311.246.87c-55.219 0-100.142-44.924-100.142-100.142s44.923-100.142 100.142-100.142 100.142 44.924 100.142 100.142-44.924 100.142-100.142 100.142z"
         id="path8"
         style="fill:#ffffff" />
      <path
         d="m200.796 87.6h100.561v30.047h-100.561z"
         id="path10"
         style="fill:#ffffff" />
      <path
         d="m166.828 152.831h168.497v30.047h-168.497z"
         id="path12"
         style="fill:#ffffff" />
    </g>
  </g>
</svg>
