<?xml version="1.0" encoding="utf-8"?>
<!-- Generator: Adobe Illustrator 19.2.0, SVG Export Plug-In . SVG Version: 6.00 Build 0)  -->
<svg version="1.1" id="Livello_2" xmlns="http://www.w3.org/2000/svg" xmlns:xlink="http://www.w3.org/1999/xlink" x="0px" y="0px"
	 viewBox="0 0 64.9 56.7" style="enable-background:new 0 0 64.9 56.7;" xml:space="preserve">
<style type="text/css">
	.st0{fill:#FFFFFF;}
</style>
<g>
	<path class="st0" d="M53.8,29.2c0,0,1.4-1.4,1.1-4.5c0-4.2-4.5-4.5-4.5-4.5h-6.7c-0.6,0-0.9-0.6-0.9-1.1c0.9-2,2.3-5.9,1.7-8.7
		c-0.8-3.9-4.2-4.2-5.3-4.2c-0.3,0-0.6,0.3-0.6,0.6l-2.8,7.9c0,0,0,0.3-0.3,0.3l-7.3,7.9c-0.3,0.3-0.6,0.3-0.8,0.3h-0.6v19.7h0.6
		c2,0,9,5.6,15.2,5.6c6.2,0,7.6-0.8,8.7-2.8c1.1-2,0.3-3.6,0.3-3.6s1.4-0.8,1.7-2.8c0.3-2-0.3-3.1-0.3-3.1s1.4-1.1,1.4-3.4
		C54.6,30.1,53.8,29.2,53.8,29.2L53.8,29.2z M53.8,29.2"/>
	<path class="st0" d="M10,45.5H24V23.1H10V45.5z M17,35.7c1.7,0,2.8,1.1,2.8,2.8c0,1.7-1.1,2.8-2.8,2.8s-2.8-1.1-2.8-2.8
		C14.2,36.8,15.3,35.7,17,35.7L17,35.7z M17,35.7"/>
</g>
</svg>
