<?xml version="1.0" encoding="utf-8"?>
<!-- Generator: Adobe Illustrator 14.0.0, SVG Export Plug-In . SVG Version: 6.00 Build 43363)  -->
<!DOCTYPE svg PUBLIC "-//W3C//DTD SVG 1.1//EN" "http://www.w3.org/Graphics/SVG/1.1/DTD/svg11.dtd">
<svg version="1.1" id="Livello_2" xmlns="http://www.w3.org/2000/svg" xmlns:xlink="http://www.w3.org/1999/xlink" x="0px" y="0px"
	 width="72.559px" height="8.859px" viewBox="0 0 72.559 8.859" enable-background="new 0 0 72.559 8.859" xml:space="preserve">
<path opacity="0.95" fill="#FFFFFF" enable-background="new    " d="M38.354,8.263c2.117-1.227,2.843-3.933,1.621-6.051
	c-1.223-2.116-3.933-2.838-6.052-1.619c-2.115,1.221-2.838,3.932-1.618,6.051C33.525,8.76,36.236,9.488,38.354,8.263z"/>
<path opacity="0.95" fill="#FFFFFF" enable-background="new    " d="M54.209,8.262c2.116-1.225,2.842-3.931,1.623-6.05
	c-1.224-2.115-3.936-2.839-6.054-1.618c-2.115,1.22-2.838,3.932-1.618,6.05C49.381,8.76,52.092,9.488,54.209,8.262z"/>
<path opacity="0.95" fill="#FFFFFF" enable-background="new    " d="M70.348,8.261c2.113-1.222,2.839-3.927,1.617-6.046
	c-1.221-2.119-3.932-2.844-6.051-1.618c-2.115,1.22-2.838,3.926-1.617,6.045C65.518,8.763,68.229,9.487,70.348,8.261z"/>
<path opacity="0.95" fill="#FFFFFF" enable-background="new    " d="M6.641,8.263c2.117-1.227,2.843-3.932,1.622-6.051
	C7.041,0.097,4.329-0.626,2.21,0.594c-2.115,1.221-2.838,3.932-1.618,6.05C1.813,8.76,4.524,9.488,6.641,8.263z"/>
<path opacity="0.95" fill="#FFFFFF" enable-background="new    " d="M22.498,8.262c2.117-1.225,2.843-3.931,1.623-6.05
	c-1.223-2.115-3.935-2.839-6.053-1.618c-2.115,1.221-2.838,3.931-1.618,6.05C17.669,8.759,20.38,9.487,22.498,8.262z"/>
</svg>
