<?xml version="1.0" encoding="utf-8"?>
<!-- Generator: Adobe Illustrator 14.0.0, SVG Export Plug-In . SVG Version: 6.00 Build 43363)  -->
<!DOCTYPE svg PUBLIC "-//W3C//DTD SVG 1.1//EN" "http://www.w3.org/Graphics/SVG/1.1/DTD/svg11.dtd">
<svg version="1.1" id="Livello_2" xmlns="http://www.w3.org/2000/svg" xmlns:xlink="http://www.w3.org/1999/xlink" x="0px" y="0px"
	 width="8.868px" height="72.559px" viewBox="0 0 8.868 72.559" enable-background="new 0 0 8.868 72.559" xml:space="preserve">
<path opacity="0.95" fill="#FFFFFF" enable-background="new    " d="M8.269,34.205c-1.228-2.117-3.933-2.843-6.052-1.622
	c-2.115,1.222-2.838,3.934-1.618,6.052c1.22,2.115,3.931,2.839,6.05,1.618C8.765,39.033,9.492,36.323,8.269,34.205z"/>
<path opacity="0.95" fill="#FFFFFF" enable-background="new    " d="M8.268,18.35c-1.226-2.117-3.932-2.844-6.05-1.623
	c-2.115,1.223-2.84,3.935-1.618,6.053c1.22,2.115,3.931,2.838,6.05,1.618C8.765,23.176,9.491,20.465,8.268,18.35z"/>
<path opacity="0.95" fill="#FFFFFF" enable-background="new    " d="M8.267,2.21C7.044,0.097,4.339-0.628,2.22,0.593
	C0.102,1.815-0.624,4.526,0.603,6.645c1.22,2.114,3.926,2.838,6.045,1.616C8.769,7.04,9.491,4.329,8.267,2.21z"/>
<path opacity="0.95" fill="#FFFFFF" enable-background="new    " d="M8.268,65.917C7.04,63.8,4.336,63.074,2.217,64.295
	c-2.115,1.224-2.838,3.935-1.618,6.054c1.22,2.114,3.931,2.838,6.05,1.617C8.764,70.745,9.491,68.034,8.268,65.917z"/>
<path opacity="0.95" fill="#FFFFFF" enable-background="new    " d="M8.268,50.062c-1.226-2.117-3.931-2.844-6.05-1.623
	c-2.115,1.223-2.839,3.935-1.618,6.053c1.22,2.115,3.93,2.838,6.049,1.618C8.764,54.888,9.491,52.177,8.268,50.062z"/>
</svg>
