<?xml version="1.0" encoding="utf-8"?>
<!-- Generator: Adobe Illustrator 14.0.0, SVG Export Plug-In . SVG Version: 6.00 Build 43363)  -->
<!DOCTYPE svg PUBLIC "-//W3C//DTD SVG 1.1//EN" "http://www.w3.org/Graphics/SVG/1.1/DTD/svg11.dtd">
<svg version="1.1" id="Livello_5" xmlns="http://www.w3.org/2000/svg" xmlns:xlink="http://www.w3.org/1999/xlink" x="0px" y="0px"
	 width="296.875px" height="57.122px" viewBox="0 0 296.875 57.122" enable-background="new 0 0 296.875 57.122"
	 xml:space="preserve">
<g>
	<path fill="#262769" d="M63.456,18.526h-1.094h-1.09V5.646h1.707h1.715l2.029,10.205l2.009-10.205h1.687h1.691v12.88h-1.09h-1.091
		V7.696l0,0l-2.091,10.83H66.69h-1.147L63.456,7.459l0,0V18.526z"/>
	<path fill="#262769" d="M74.237,5.552h2.217v2.332h-2.217V5.552z M74.262,8.995h1.086h1.09v9.531h-1.082h-1.095V8.995z"/>
	<path fill="#262769" d="M78.5,8.995h1.038h1.037v1.409c0.086-0.167,0.18-0.331,0.282-0.482c0.539-0.788,1.315-1.18,2.34-1.18
		c0.87,0,1.556,0.294,2.05,0.89s0.739,1.421,0.739,2.483v6.412h-1.083h-1.098v-5.958c0-0.592-0.106-1.025-0.331-1.311
		c-0.216-0.282-0.56-0.425-1.013-0.425c-0.576,0-1.013,0.2-1.319,0.596c-0.307,0.4-0.458,0.972-0.458,1.715v5.382h-1.09H78.5V8.995z
		"/>
	<path fill="#262769" d="M88.073,5.552h2.213v2.332h-2.213V5.552z M88.093,8.995h1.086h1.094v9.531h-1.086h-1.095V8.995z"/>
	<path fill="#262769" d="M97.016,11.849c0-0.368-0.135-0.662-0.396-0.886c-0.266-0.221-0.617-0.331-1.049-0.331
		c-0.421,0-0.751,0.086-0.988,0.25c-0.233,0.167-0.355,0.4-0.355,0.694c0,0.212,0.139,0.392,0.408,0.547
		c0.262,0.147,0.727,0.302,1.405,0.482c1.335,0.343,2.23,0.719,2.683,1.127c0.454,0.409,0.678,1.054,0.678,1.928
		c0,0.935-0.327,1.687-0.98,2.254c-0.662,0.572-1.523,0.858-2.601,0.858c-1.27,0-2.246-0.282-2.937-0.841
		c-0.686-0.563-1.049-1.38-1.098-2.455h2.217c0.017,0.437,0.188,0.78,0.506,1.029c0.323,0.249,0.76,0.372,1.311,0.372
		c0.437,0,0.776-0.086,1.025-0.257c0.245-0.175,0.368-0.413,0.368-0.723c0-0.216-0.119-0.4-0.359-0.551
		c-0.237-0.147-0.653-0.298-1.25-0.445c-1.401-0.363-2.336-0.747-2.81-1.151c-0.47-0.396-0.703-1.013-0.703-1.846
		c0-0.947,0.302-1.707,0.915-2.291c0.613-0.58,1.417-0.87,2.414-0.87c1.123,0,2.03,0.286,2.724,0.854
		c0.682,0.568,1.029,1.319,1.029,2.254H97.016z"/>
	<path fill="#262769" d="M104.792,18.575c-0.363,0.037-0.816,0.053-1.348,0.053c-0.768,0-1.323-0.159-1.662-0.478
		c-0.334-0.319-0.502-0.841-0.502-1.564v-5.832h-1.147v-1.76h1.147V6.43h2.181v2.565h1.331v1.76h-1.331v5.411
		c0,0.22,0.057,0.368,0.175,0.441c0.11,0.069,0.343,0.106,0.707,0.106h0.449V18.575z"/>
	<path fill="#262769" d="M109.451,18.771c-1.258,0-2.226-0.449-2.912-1.344c-0.678-0.894-1.021-2.164-1.021-3.818
		c0-1.523,0.347-2.715,1.042-3.577s1.658-1.291,2.891-1.291c1.262,0,2.234,0.441,2.912,1.315c0.686,0.882,1.025,2.132,1.025,3.757
		c0.013,0.188,0,0.375-0.037,0.567h-5.64c0.057,0.751,0.2,1.319,0.437,1.69c0.306,0.47,0.809,0.699,1.523,0.699
		c0.327,0,0.633-0.106,0.915-0.323c0.278-0.216,0.449-0.478,0.506-0.78h2.222c-0.192,0.972-0.625,1.731-1.311,2.278
		C111.326,18.493,110.472,18.771,109.451,18.771z M111.113,12.776c-0.049-0.572-0.18-1.017-0.396-1.339
		c-0.278-0.425-0.711-0.637-1.299-0.637c-0.563,0-0.988,0.245-1.282,0.743c-0.18,0.314-0.314,0.727-0.4,1.233H111.113z"/>
	<path fill="#262769" d="M114.817,8.995h1.033h1.041v1.707c0.074-0.188,0.159-0.368,0.257-0.543
		c0.515-0.943,1.172-1.417,1.985-1.417l0.49,0.008v2.564c-0.188-0.024-0.408-0.033-0.653-0.033c-0.666,0-1.16,0.188-1.486,0.568
		c-0.323,0.379-0.49,0.956-0.49,1.727v4.95h-1.082h-1.094V8.995z"/>
	<path fill="#262769" d="M121.551,17.427c-0.76-0.894-1.144-2.095-1.144-3.614c0-1.556,0.384-2.79,1.144-3.7
		c0.768-0.915,1.793-1.372,3.079-1.372c1.307,0,2.34,0.458,3.1,1.372c0.759,0.911,1.139,2.144,1.139,3.7
		c0,1.519-0.38,2.72-1.139,3.614c-0.76,0.895-1.793,1.344-3.1,1.344C123.344,18.771,122.319,18.322,121.551,17.427z M126.113,15.929
		c0.343-0.49,0.51-1.205,0.51-2.144c0-0.964-0.167-1.695-0.51-2.193c-0.339-0.499-0.829-0.751-1.482-0.751
		c-0.641,0-1.139,0.253-1.47,0.751c-0.339,0.498-0.51,1.229-0.51,2.193c0,0.939,0.171,1.654,0.51,2.144
		c0.331,0.49,0.829,0.739,1.47,0.739C125.284,16.668,125.774,16.419,126.113,15.929z"/>
	<path fill="#262769" d="M137.76,18.771c-1.054,0-1.903-0.474-2.548-1.421c-0.646-0.947-0.968-2.193-0.968-3.741
		c0-1.462,0.322-2.638,0.968-3.528c0.637-0.894,1.486-1.339,2.536-1.339c0.936,0,1.691,0.458,2.267,1.364l0.094,0.139V5.646h1.082
		h1.094v12.88h-1.054h-1.062v-1.221l-0.041,0.062C139.528,18.302,138.735,18.771,137.76,18.771z M138.348,10.914
		c-0.584,0-1.037,0.257-1.372,0.776c-0.327,0.514-0.49,1.233-0.49,2.148c0,0.898,0.164,1.601,0.486,2.107
		c0.331,0.506,0.784,0.76,1.373,0.76c0.583,0,1.041-0.27,1.372-0.8c0.327-0.531,0.49-1.27,0.49-2.213
		c0-0.874-0.163-1.552-0.49-2.042C139.385,11.159,138.927,10.914,138.348,10.914z"/>
	<path fill="#262769" d="M147.503,18.771c-1.254,0-2.226-0.449-2.908-1.344c-0.682-0.894-1.021-2.164-1.021-3.818
		c0-1.523,0.347-2.715,1.042-3.577c0.69-0.862,1.654-1.291,2.887-1.291c1.262,0,2.234,0.441,2.919,1.315
		c0.678,0.882,1.018,2.132,1.018,3.757c0.012,0.188,0,0.375-0.037,0.567h-5.631c0.053,0.751,0.196,1.319,0.433,1.69
		c0.302,0.47,0.809,0.699,1.523,0.699c0.327,0,0.629-0.106,0.915-0.323c0.282-0.216,0.445-0.478,0.502-0.78h2.218
		c-0.184,0.972-0.621,1.731-1.299,2.278C149.382,18.493,148.524,18.771,147.503,18.771z M149.17,12.776
		c-0.05-0.572-0.185-1.017-0.396-1.339c-0.278-0.425-0.71-0.637-1.299-0.637c-0.56,0-0.992,0.245-1.286,0.743
		c-0.18,0.314-0.314,0.727-0.392,1.233H149.17z"/>
	<path fill="#262769" d="M152.947,5.646h1.086h1.095v12.88h-1.091h-1.09V5.646z"/>
	<path fill="#262769" d="M157.271,5.646h1.086h1.095v12.88h-1.086h-1.095V5.646z"/>
	<path fill="#262769" d="M164.811,18.771c-1.254,0-2.226-0.449-2.912-1.344c-0.678-0.894-1.021-2.164-1.021-3.818
		c0-1.523,0.351-2.715,1.041-3.577c0.698-0.862,1.662-1.291,2.892-1.291c1.262,0,2.233,0.441,2.911,1.315
		c0.682,0.882,1.029,2.132,1.029,3.757c0.008,0.188-0.004,0.375-0.041,0.567h-5.636c0.054,0.751,0.196,1.319,0.434,1.69
		c0.306,0.47,0.813,0.699,1.522,0.699c0.327,0,0.634-0.106,0.915-0.323c0.277-0.216,0.449-0.478,0.507-0.78h2.217
		c-0.184,0.972-0.62,1.731-1.307,2.278C166.685,18.493,165.835,18.771,164.811,18.771z M166.477,12.776
		c-0.054-0.572-0.184-1.017-0.396-1.339c-0.281-0.425-0.715-0.637-1.299-0.637c-0.567,0-0.992,0.245-1.286,0.743
		c-0.18,0.314-0.314,0.727-0.396,1.233H166.477z"/>
	<path fill="#262769" d="M174.505,5.646h1.16h1.163v12.88h-1.159h-1.164V5.646z"/>
	<path fill="#262769" d="M178.838,8.995h1.037h1.041v1.409c0.086-0.167,0.18-0.331,0.282-0.482c0.53-0.788,1.314-1.18,2.34-1.18
		c0.87,0,1.556,0.294,2.046,0.89c0.498,0.596,0.743,1.421,0.743,2.483v6.412h-1.09h-1.091v-5.958c0-0.592-0.114-1.025-0.331-1.311
		c-0.22-0.282-0.56-0.425-1.017-0.425c-0.567,0-1.013,0.2-1.319,0.596c-0.306,0.4-0.457,0.972-0.457,1.715v5.382h-1.086h-1.099
		V8.995z"/>
	<path fill="#262769" d="M190.877,10.755v7.771h-1.087h-1.09v-7.771h-1.213v-1.76h1.213V8.198c0-0.919,0.204-1.601,0.633-2.05
		c0.421-0.449,1.062-0.674,1.928-0.674c0.384-0.008,0.727,0.017,1.024,0.062v2.005h-0.689c-0.29,0-0.482,0.065-0.576,0.204
		c-0.098,0.131-0.143,0.409-0.143,0.821v0.429h1.408v1.76H190.877z"/>
	<path fill="#262769" d="M193.515,8.995h1.033h1.041v1.707c0.078-0.188,0.164-0.368,0.258-0.543c0.51-0.943,1.176-1.417,1.984-1.417
		l0.498,0.008v2.564c-0.196-0.024-0.412-0.033-0.657-0.033c-0.662,0-1.156,0.188-1.486,0.568c-0.327,0.379-0.486,0.956-0.486,1.727
		v4.95h-1.09h-1.095V8.995z"/>
	<path fill="#262769" d="M201.571,18.771c-0.764,0-1.376-0.253-1.846-0.76s-0.698-1.168-0.698-1.993c0-0.87,0.209-1.568,0.633-2.091
		c0.417-0.523,1.029-0.85,1.834-0.984l1.438-0.225c0.376-0.061,0.687-0.159,0.936-0.302c0.105-0.057,0.188-0.163,0.245-0.31
		c0.057-0.155,0.081-0.311,0.064-0.466c-0.032-0.27-0.146-0.482-0.354-0.633c-0.249-0.18-0.604-0.27-1.074-0.27
		c-0.413,0-0.735,0.118-0.972,0.347c-0.233,0.237-0.352,0.563-0.368,0.992h-2.091c0.045-1.115,0.372-1.948,0.984-2.503
		c0.612-0.555,1.511-0.833,2.699-0.833c1.029,0,1.842,0.249,2.438,0.751c0.596,0.498,0.894,1.176,0.894,2.042v5.333
		c0,0.425,0.029,0.727,0.086,0.898c0.065,0.172,0.184,0.311,0.363,0.409v0.008v0.343h-1.176h-1.176v-0.012
		c-0.094-0.384-0.159-0.764-0.192-1.131l-0.008-0.016C203.544,18.302,202.658,18.771,201.571,18.771z M204.193,15.002v-1.094
		c-0.253,0.163-0.584,0.298-1.005,0.396l-0.804,0.171c-0.38,0.082-0.67,0.237-0.87,0.454c-0.192,0.216-0.29,0.494-0.29,0.829
		c0,0.375,0.086,0.678,0.266,0.89c0.176,0.22,0.425,0.327,0.743,0.327c0.698,0,1.258-0.286,1.67-0.85
		c0.082-0.114,0.151-0.277,0.209-0.49C204.165,15.418,204.193,15.21,204.193,15.002z"/>
	<path fill="#262769" d="M212.929,11.849c0-0.368-0.135-0.662-0.396-0.886c-0.266-0.221-0.616-0.331-1.049-0.331
		c-0.425,0-0.756,0.086-0.988,0.25c-0.233,0.167-0.352,0.4-0.352,0.694c0,0.212,0.135,0.392,0.4,0.547
		c0.261,0.147,0.73,0.302,1.404,0.482c1.34,0.343,2.234,0.719,2.688,1.127c0.453,0.409,0.678,1.054,0.678,1.928
		c0,0.935-0.327,1.687-0.984,2.254c-0.653,0.572-1.519,0.858-2.593,0.858c-1.278,0-2.25-0.282-2.944-0.841
		c-0.683-0.563-1.05-1.38-1.095-2.455h2.222c0.012,0.437,0.184,0.78,0.502,1.029s0.76,0.372,1.315,0.372
		c0.433,0,0.771-0.086,1.017-0.257c0.245-0.175,0.372-0.413,0.372-0.723c0-0.216-0.123-0.4-0.359-0.551
		c-0.237-0.147-0.653-0.298-1.254-0.445c-1.401-0.363-2.332-0.747-2.806-1.151c-0.47-0.396-0.706-1.013-0.706-1.846
		c0-0.947,0.31-1.707,0.918-2.291c0.613-0.58,1.417-0.87,2.41-0.87c1.127,0,2.029,0.286,2.724,0.854
		c0.686,0.568,1.033,1.319,1.033,2.254H212.929z"/>
	<path fill="#262769" d="M220.7,18.575c-0.359,0.037-0.813,0.053-1.344,0.053c-0.768,0-1.323-0.159-1.662-0.478
		c-0.335-0.319-0.502-0.841-0.502-1.564v-5.832h-1.147v-1.76h1.147V6.43h2.181v2.565h1.327v1.76h-1.327v5.411
		c0,0.22,0.057,0.368,0.175,0.441c0.106,0.069,0.344,0.106,0.707,0.106h0.445V18.575z"/>
	<path fill="#262769" d="M222.072,8.995h1.029h1.045v1.707c0.073-0.188,0.159-0.368,0.258-0.543c0.51-0.943,1.176-1.417,1.984-1.417
		l0.494,0.008v2.564c-0.192-0.024-0.413-0.033-0.657-0.033c-0.658,0-1.156,0.188-1.487,0.568c-0.322,0.379-0.485,0.956-0.485,1.727
		v4.95h-1.091h-1.09V8.995z"/>
	<path fill="#262769" d="M230.338,14.957c0,0.588,0.114,1.017,0.33,1.299c0.213,0.278,0.552,0.42,1.001,0.42
		c0.567,0,1.005-0.2,1.307-0.596c0.307-0.396,0.457-0.968,0.457-1.719V8.995h1.087h1.094v9.531h-1.033h-1.041v-1.429
		c-0.073,0.171-0.167,0.335-0.273,0.49c-0.535,0.789-1.315,1.185-2.332,1.185c-0.87,0-1.556-0.298-2.042-0.89
		c-0.485-0.597-0.734-1.417-0.734-2.467V8.995h1.09h1.091V14.957z"/>
	<path fill="#262769" d="M241.453,18.575c-0.363,0.037-0.816,0.053-1.348,0.053c-0.768,0-1.323-0.159-1.658-0.478
		c-0.339-0.319-0.502-0.841-0.502-1.564v-5.832h-1.151v-1.76h1.151V6.43h2.177v2.565h1.331v1.76h-1.331v5.411
		c0,0.22,0.058,0.368,0.172,0.441c0.11,0.069,0.347,0.106,0.71,0.106h0.449V18.575z"/>
	<path fill="#262769" d="M246.632,18.575c-0.364,0.037-0.809,0.053-1.34,0.053c-0.771,0-1.327-0.159-1.662-0.478
		c-0.335-0.319-0.506-0.841-0.506-1.564v-5.832h-1.147v-1.76h1.147V6.43h2.181v2.565h1.327v1.76h-1.327v5.411
		c0,0.22,0.061,0.368,0.171,0.441c0.114,0.069,0.352,0.106,0.711,0.106h0.445V18.575z"/>
	<path fill="#262769" d="M250.213,14.957c0,0.588,0.106,1.017,0.331,1.299c0.212,0.278,0.547,0.42,1,0.42
		c0.568,0,1.005-0.2,1.307-0.596c0.303-0.396,0.458-0.968,0.458-1.719V8.995h1.086h1.091v9.531h-1.029h-1.041v-1.429
		c-0.074,0.171-0.168,0.335-0.278,0.49c-0.535,0.789-1.311,1.185-2.327,1.185c-0.87,0-1.557-0.298-2.042-0.89
		c-0.49-0.597-0.739-1.417-0.739-2.467V8.995h1.09h1.095V14.957z"/>
	<path fill="#262769" d="M257.507,8.995h1.037h1.041v1.707c0.078-0.188,0.159-0.368,0.258-0.543c0.51-0.943,1.172-1.417,1.984-1.417
		l0.49,0.008v2.564c-0.188-0.024-0.404-0.033-0.649-0.033c-0.666,0-1.16,0.188-1.486,0.568c-0.331,0.379-0.49,0.956-0.49,1.727v4.95
		h-1.086h-1.099V8.995z"/>
	<path fill="#262769" d="M266.858,18.771c-1.258,0-2.226-0.449-2.903-1.344c-0.687-0.894-1.029-2.164-1.029-3.818
		c0-1.523,0.347-2.715,1.045-3.577c0.694-0.862,1.658-1.291,2.888-1.291c1.262,0,2.233,0.441,2.916,1.315
		c0.678,0.882,1.024,2.132,1.024,3.757c0.004,0.188-0.004,0.375-0.041,0.567h-5.631c0.053,0.751,0.191,1.319,0.429,1.69
		c0.306,0.47,0.813,0.699,1.523,0.699c0.33,0,0.637-0.106,0.918-0.323c0.278-0.216,0.445-0.478,0.503-0.78h2.218
		c-0.185,0.972-0.617,1.731-1.303,2.278C268.732,18.493,267.883,18.771,266.858,18.771z M268.524,12.776
		c-0.053-0.572-0.18-1.017-0.396-1.339c-0.281-0.425-0.71-0.637-1.298-0.637c-0.564,0-0.993,0.245-1.287,0.743
		c-0.18,0.314-0.314,0.727-0.392,1.233H268.524z"/>
	<path fill="#262769" d="M64.485,35.204c-1.258,0-2.226-0.449-2.908-1.343c-0.678-0.895-1.017-2.165-1.017-3.818
		c0-1.523,0.347-2.716,1.037-3.577c0.694-0.862,1.654-1.291,2.887-1.291c1.262,0,2.229,0.441,2.92,1.315
		c0.674,0.882,1.017,2.131,1.017,3.757c0.012,0.188-0.004,0.376-0.041,0.568h-5.627c0.049,0.751,0.196,1.319,0.437,1.69
		c0.298,0.465,0.809,0.698,1.511,0.698c0.335,0,0.637-0.106,0.919-0.323c0.286-0.216,0.449-0.478,0.506-0.78h2.222
		c-0.188,0.972-0.621,1.731-1.303,2.279S65.506,35.204,64.485,35.204z M66.147,29.209c-0.049-0.572-0.18-1.017-0.392-1.339
		c-0.278-0.425-0.71-0.637-1.303-0.637c-0.56,0-0.984,0.245-1.278,0.743c-0.184,0.314-0.314,0.727-0.4,1.233H66.147z"/>
	<path fill="#262769" d="M77.23,35.204c-1.053,0-1.903-0.474-2.544-1.421c-0.649-0.948-0.972-2.193-0.972-3.741
		c0-1.462,0.323-2.638,0.964-3.528c0.641-0.895,1.491-1.339,2.54-1.339c0.935,0,1.691,0.453,2.267,1.364l0.086,0.139v-4.598h1.09
		h1.094v12.88h-1.058H79.64v-1.221l-0.041,0.061C78.999,34.735,78.211,35.204,77.23,35.204z M77.819,27.347
		c-0.584,0-1.042,0.257-1.372,0.776c-0.331,0.515-0.49,1.233-0.49,2.148c0,0.898,0.159,1.601,0.486,2.107
		c0.331,0.506,0.788,0.755,1.368,0.755c0.588,0,1.045-0.266,1.372-0.796c0.331-0.531,0.494-1.27,0.494-2.213
		c0-0.874-0.163-1.552-0.494-2.042C78.856,27.592,78.403,27.347,77.819,27.347z"/>
	<path fill="#262769" d="M86.979,35.204c-1.262,0-2.23-0.449-2.912-1.343c-0.682-0.895-1.021-2.165-1.021-3.818
		c0-1.523,0.347-2.716,1.042-3.577c0.69-0.862,1.654-1.291,2.891-1.291c1.258,0,2.234,0.441,2.916,1.315
		c0.674,0.882,1.017,2.131,1.017,3.757c0.012,0.188-0.004,0.376-0.037,0.568h-5.632c0.045,0.751,0.196,1.319,0.433,1.69
		c0.306,0.465,0.809,0.698,1.523,0.698c0.331,0,0.633-0.106,0.915-0.323c0.282-0.216,0.445-0.478,0.502-0.78h2.217
		c-0.184,0.972-0.621,1.731-1.299,2.279C88.853,34.927,87.995,35.204,86.979,35.204z M88.641,29.209
		c-0.049-0.572-0.184-1.017-0.396-1.339c-0.278-0.425-0.711-0.637-1.295-0.637c-0.567,0-0.996,0.245-1.29,0.743
		c-0.18,0.314-0.314,0.727-0.392,1.233H88.641z"/>
	<path fill="#262769" d="M92.418,21.985h2.217v2.332h-2.217V21.985z M92.442,25.427h1.083h1.098v9.532h-1.09h-1.09V25.427z"/>
	<path fill="#262769" d="M103.587,24.366h-3.369v-1.135v-1.152h9.078v1.144v1.144h-3.369v10.593h-1.168h-1.172V24.366z"/>
	<path fill="#262769" d="M110.5,25.427h1.033h1.038v1.707c0.078-0.188,0.163-0.368,0.261-0.543c0.51-0.943,1.172-1.417,1.985-1.417
		l0.494,0.008v2.565c-0.192-0.025-0.417-0.033-0.658-0.033c-0.657,0-1.16,0.188-1.486,0.567c-0.323,0.38-0.486,0.956-0.486,1.728
		v4.95h-1.086H110.5V25.427z"/>
	<path fill="#262769" d="M118.558,35.204c-0.772,0-1.389-0.253-1.85-0.759c-0.466-0.506-0.698-1.168-0.698-1.993
		c0-0.87,0.208-1.568,0.629-2.091c0.425-0.522,1.037-0.849,1.837-0.984l1.438-0.225c0.38-0.062,0.686-0.164,0.935-0.302
		c0.106-0.057,0.188-0.164,0.25-0.314c0.057-0.151,0.078-0.306,0.061-0.461c-0.028-0.27-0.147-0.482-0.355-0.633
		c-0.245-0.18-0.604-0.273-1.074-0.273c-0.413,0-0.735,0.119-0.972,0.351c-0.232,0.237-0.359,0.563-0.367,0.993h-2.095
		c0.049-1.115,0.376-1.948,0.988-2.503c0.617-0.556,1.515-0.833,2.699-0.833c1.029,0,1.838,0.249,2.438,0.747
		c0.592,0.502,0.891,1.18,0.891,2.046v5.333c0,0.425,0.033,0.727,0.094,0.898s0.18,0.306,0.359,0.408v0.008v0.343h-1.176h-1.176
		v-0.013c-0.098-0.384-0.16-0.764-0.192-1.131l-0.008-0.017C120.53,34.735,119.644,35.204,118.558,35.204z M121.176,31.435V30.34
		c-0.253,0.164-0.588,0.298-1.005,0.396l-0.804,0.171c-0.38,0.082-0.67,0.237-0.866,0.453c-0.196,0.217-0.294,0.494-0.294,0.829
		c0,0.376,0.086,0.678,0.266,0.89c0.176,0.221,0.425,0.327,0.743,0.327c0.698,0,1.258-0.286,1.67-0.849
		c0.082-0.114,0.151-0.278,0.208-0.49C121.151,31.851,121.176,31.639,121.176,31.435z"/>
	<path fill="#262769" d="M129.907,28.282c0-0.367-0.131-0.662-0.392-0.886c-0.266-0.22-0.613-0.331-1.054-0.331
		c-0.42,0-0.743,0.086-0.98,0.249c-0.241,0.167-0.355,0.4-0.355,0.694c0,0.212,0.131,0.392,0.4,0.547
		c0.265,0.143,0.735,0.302,1.405,0.481c1.343,0.343,2.238,0.719,2.687,1.127c0.453,0.408,0.682,1.054,0.682,1.927
		c0,0.936-0.335,1.687-0.988,2.254c-0.662,0.572-1.523,0.857-2.593,0.857c-1.274,0-2.258-0.286-2.944-0.841
		c-0.682-0.563-1.05-1.38-1.095-2.454h2.213c0.021,0.437,0.188,0.78,0.515,1.029c0.319,0.249,0.755,0.372,1.311,0.372
		c0.433,0,0.772-0.086,1.021-0.257c0.245-0.176,0.367-0.413,0.367-0.723c0-0.216-0.118-0.4-0.355-0.551
		c-0.241-0.147-0.662-0.298-1.258-0.445c-1.396-0.364-2.332-0.748-2.801-1.152c-0.474-0.396-0.711-1.013-0.711-1.846
		c0-0.947,0.307-1.707,0.919-2.291c0.613-0.58,1.417-0.87,2.414-0.87c1.123,0,2.034,0.286,2.72,0.854
		c0.686,0.567,1.029,1.319,1.029,2.254H129.907z"/>
	<path fill="#262769" d="M133.839,25.427h1.033h1.037v1.409l0.151-0.237c0.584-0.952,1.36-1.425,2.324-1.425
		c1.05,0,1.895,0.445,2.528,1.339c0.633,0.89,0.956,2.066,0.956,3.528c0,1.548-0.323,2.793-0.956,3.741
		c-0.633,0.947-1.478,1.421-2.528,1.421c-0.959,0-1.731-0.449-2.315-1.331l-0.049-0.074v4.888h-1.083h-1.098V25.427z M137.76,33.134
		c0.588,0,1.041-0.249,1.372-0.755c0.327-0.506,0.49-1.209,0.49-2.107c0-0.915-0.163-1.633-0.486-2.148
		c-0.331-0.519-0.784-0.776-1.368-0.776c-0.58,0-1.037,0.261-1.364,0.796c-0.323,0.531-0.494,1.27-0.494,2.213
		c0,0.87,0.171,1.552,0.494,2.042C136.73,32.888,137.184,33.134,137.76,33.134z"/>
	<path fill="#262769" d="M144.061,33.861c-0.768-0.895-1.143-2.095-1.143-3.614c0-1.556,0.375-2.789,1.143-3.704
		c0.76-0.911,1.785-1.368,3.079-1.368c1.299,0,2.336,0.457,3.092,1.368c0.764,0.915,1.144,2.148,1.144,3.704
		c0,1.519-0.38,2.72-1.144,3.614c-0.756,0.894-1.793,1.343-3.092,1.343C145.845,35.204,144.82,34.755,144.061,33.861z
		 M148.622,32.362c0.343-0.49,0.511-1.205,0.511-2.144c0-0.964-0.168-1.695-0.511-2.193c-0.343-0.498-0.833-0.751-1.482-0.751
		c-0.649,0-1.143,0.253-1.478,0.751c-0.339,0.499-0.506,1.229-0.506,2.193c0,0.939,0.167,1.654,0.506,2.144
		c0.335,0.49,0.829,0.735,1.478,0.735C147.789,33.097,148.279,32.852,148.622,32.362z"/>
	<path fill="#262769" d="M152.886,25.427h1.033h1.041v1.707c0.073-0.188,0.159-0.368,0.258-0.543
		c0.51-0.943,1.176-1.417,1.984-1.417l0.494,0.008v2.565c-0.192-0.025-0.408-0.033-0.657-0.033c-0.658,0-1.16,0.188-1.482,0.567
		c-0.327,0.38-0.49,0.956-0.49,1.728v4.95h-1.086h-1.095V25.427z"/>
	<path fill="#262769" d="M162.756,35.008c-0.363,0.037-0.813,0.053-1.348,0.053c-0.768,0-1.319-0.16-1.658-0.478
		c-0.335-0.318-0.502-0.841-0.502-1.564v-5.832h-1.151v-1.76h1.151v-2.564h2.177v2.564h1.331v1.76h-1.331v5.411
		c0,0.221,0.062,0.368,0.176,0.441c0.11,0.069,0.347,0.106,0.706,0.106h0.449V35.008z"/>
	<path fill="#262769" d="M164.201,21.985h2.218v2.332h-2.218V21.985z M164.222,25.427h1.091h1.095v9.532h-1.087h-1.099V25.427z"/>
</g>
<g>
	<path fill="#262769" d="M60.189,38.969h0.915h2.83c1.201,0,2.12,0.482,2.74,1.438c0.629,0.956,0.939,2.36,0.939,4.207
		c0,2.034-0.327,3.577-0.972,4.635c-0.649,1.058-1.601,1.584-2.859,1.584h-2.679h-0.915V38.969z M62.019,48.791h1.544
		c0.739,0,1.298-0.339,1.662-1.021c0.375-0.682,0.56-1.703,0.56-3.063c0-1.229-0.172-2.156-0.519-2.773
		c-0.339-0.612-0.866-0.923-1.556-0.923h-1.691V48.791z"/>
	<path fill="#262769" d="M68.904,38.879h1.744v2.148h-1.744V38.879z M68.924,42.052h0.854h0.857v8.78h-0.854h-0.857V42.052z"/>
	<path fill="#262769" d="M72.236,42.052h0.804h0.817v1.572c0.062-0.171,0.126-0.335,0.208-0.499
		c0.396-0.874,0.911-1.307,1.547-1.307l0.388,0.008v2.36c-0.155-0.017-0.323-0.029-0.51-0.029c-0.519,0-0.907,0.176-1.16,0.523
		c-0.257,0.351-0.388,0.878-0.388,1.588v4.562h-0.85h-0.857V42.052z"/>
	<path fill="#262769" d="M79.554,51.057c-0.98,0-1.74-0.408-2.274-1.233c-0.535-0.825-0.805-1.993-0.805-3.52
		c0-1.405,0.273-2.499,0.821-3.295c0.543-0.792,1.299-1.188,2.258-1.188c0.992,0,1.752,0.404,2.287,1.213
		c0.535,0.813,0.804,1.964,0.804,3.459c0.004,0.171-0.004,0.347-0.033,0.522h-4.415c0.041,0.694,0.155,1.217,0.343,1.56
		c0.237,0.429,0.633,0.646,1.188,0.646c0.257,0,0.494-0.098,0.714-0.298c0.225-0.2,0.355-0.437,0.396-0.719h1.739
		c-0.143,0.895-0.486,1.593-1.017,2.099C81.024,50.804,80.363,51.057,79.554,51.057z M80.861,45.54
		c-0.041-0.527-0.143-0.939-0.306-1.237c-0.22-0.392-0.563-0.588-1.021-0.588c-0.445,0-0.78,0.229-1.004,0.686
		c-0.143,0.29-0.249,0.669-0.314,1.139H80.861z"/>
	<path fill="#262769" d="M83.226,49.031l3.287-5.08l0.041-0.065h-3.087v-0.915v-0.919h5.219v0.943v0.956l-3.238,4.986h3.385v0.943
		v0.951h-5.607v-0.894V49.031z"/>
	<path fill="#262769" d="M89.915,38.879h1.74v2.148h-1.74V38.879z M89.931,42.052h0.854h0.857v8.78h-0.85h-0.861V42.052z"/>
	<path fill="#262769" d="M93.778,49.823c-0.6-0.825-0.895-1.936-0.895-3.332c0-1.429,0.294-2.569,0.895-3.41
		c0.601-0.841,1.401-1.262,2.414-1.262c1.021,0,1.825,0.421,2.421,1.262c0.601,0.841,0.895,1.981,0.895,3.41
		c0,1.396-0.294,2.507-0.895,3.332c-0.596,0.825-1.4,1.233-2.421,1.233C95.179,51.057,94.378,50.649,93.778,49.823z M97.351,48.444
		c0.27-0.449,0.4-1.111,0.4-1.977c0-0.891-0.131-1.56-0.4-2.021c-0.266-0.461-0.653-0.69-1.16-0.69s-0.895,0.229-1.156,0.69
		c-0.266,0.461-0.396,1.131-0.396,2.021c0,0.866,0.13,1.527,0.396,1.977c0.261,0.453,0.649,0.678,1.156,0.678
		S97.085,48.897,97.351,48.444z"/>
	<path fill="#262769" d="M100.704,42.052h0.808h0.817v1.298c0.069-0.155,0.143-0.302,0.216-0.445
		c0.429-0.727,1.042-1.086,1.838-1.086c0.686,0,1.217,0.273,1.601,0.821c0.392,0.551,0.584,1.311,0.584,2.283v5.909h-0.854h-0.857
		v-5.484c0-0.547-0.082-0.947-0.257-1.208c-0.171-0.262-0.437-0.392-0.796-0.392c-0.445,0-0.788,0.184-1.025,0.547
		c-0.245,0.368-0.363,0.895-0.363,1.584v4.954h-0.85h-0.861V42.052z"/>
	<path fill="#262769" d="M110.717,51.057c-0.984,0-1.744-0.408-2.275-1.233c-0.535-0.825-0.804-1.993-0.804-3.52
		c0-1.405,0.273-2.499,0.821-3.295c0.543-0.792,1.294-1.188,2.258-1.188c0.988,0,1.752,0.404,2.283,1.213
		c0.535,0.813,0.804,1.964,0.804,3.459c0.004,0.171-0.004,0.347-0.032,0.522h-4.407c0.033,0.694,0.147,1.217,0.335,1.56
		c0.241,0.429,0.633,0.646,1.188,0.646c0.257,0,0.502-0.098,0.723-0.298c0.217-0.2,0.352-0.437,0.388-0.719h1.744
		c-0.147,0.895-0.49,1.593-1.021,2.099C112.188,50.804,111.521,51.057,110.717,51.057z M112.02,45.54
		c-0.033-0.527-0.139-0.939-0.307-1.237c-0.22-0.392-0.559-0.588-1.021-0.588c-0.437,0-0.776,0.229-1.001,0.686
		c-0.147,0.29-0.249,0.669-0.314,1.139H112.02z"/>
	<path fill="#262769" d="M122.221,51.155c-1.278,0-2.283-0.555-3.039-1.67c-0.743-1.115-1.119-2.618-1.119-4.521
		c0-1.936,0.392-3.471,1.168-4.61c0.776-1.14,1.829-1.707,3.156-1.707c1.066,0,1.94,0.363,2.63,1.082
		c0.686,0.719,1.086,1.695,1.205,2.92h-1.83c-0.049-0.515-0.266-0.968-0.645-1.36c-0.376-0.392-0.805-0.584-1.262-0.584
		c-0.792,0-1.417,0.372-1.866,1.115c-0.449,0.748-0.67,1.781-0.67,3.104c0,1.348,0.212,2.369,0.646,3.071
		c0.429,0.702,1.062,1.053,1.891,1.053h-0.008c0.707,0,1.258-0.363,1.654-1.094c0.216-0.417,0.384-0.902,0.482-1.462v-0.024h-2.054
		v-2.042h3.663v6.399h-1.221l-0.18-1.532l-0.11,0.192c-0.612,1.115-1.445,1.67-2.495,1.67H122.221z"/>
	<path fill="#262769" d="M130.372,51.057c-0.984,0-1.74-0.408-2.279-1.233c-0.531-0.825-0.8-1.993-0.8-3.52
		c0-1.405,0.273-2.499,0.817-3.295c0.539-0.792,1.298-1.188,2.262-1.188c0.988,0,1.748,0.404,2.283,1.213
		c0.539,0.813,0.8,1.964,0.8,3.459c0.008,0.171,0,0.347-0.028,0.522h-4.415c0.041,0.694,0.159,1.217,0.339,1.56
		c0.241,0.429,0.637,0.646,1.197,0.646c0.257,0,0.494-0.098,0.714-0.298c0.221-0.2,0.355-0.437,0.396-0.719h1.739
		c-0.151,0.895-0.486,1.593-1.025,2.099C131.842,50.804,131.177,51.057,130.372,51.057z M131.675,45.54
		c-0.041-0.527-0.147-0.939-0.311-1.237c-0.216-0.392-0.555-0.588-1.017-0.588c-0.441,0-0.776,0.229-1.009,0.686
		c-0.143,0.29-0.245,0.669-0.306,1.139H131.675z"/>
	<path fill="#262769" d="M134.59,42.052h0.805h0.817v1.298c0.065-0.155,0.143-0.302,0.22-0.445c0.425-0.727,1.033-1.086,1.838-1.086
		c0.678,0,1.217,0.273,1.601,0.821c0.388,0.551,0.58,1.311,0.58,2.283v5.909h-0.854h-0.857v-5.484c0-0.547-0.086-0.947-0.257-1.208
		c-0.171-0.262-0.437-0.392-0.792-0.392c-0.449,0-0.796,0.184-1.037,0.547c-0.237,0.368-0.355,0.895-0.355,1.584v4.954h-0.854
		h-0.854V42.052z"/>
	<path fill="#262769" d="M144.6,51.057c-0.984,0-1.744-0.408-2.274-1.233c-0.535-0.825-0.8-1.993-0.8-3.52
		c0-1.405,0.27-2.499,0.813-3.295c0.547-0.792,1.299-1.188,2.262-1.188c0.988,0,1.752,0.404,2.283,1.213
		c0.535,0.813,0.8,1.964,0.8,3.459c0.012,0.171,0,0.347-0.029,0.522h-4.406c0.033,0.694,0.147,1.217,0.335,1.56
		c0.241,0.429,0.633,0.646,1.188,0.646c0.257,0,0.498-0.098,0.719-0.298c0.22-0.2,0.351-0.437,0.396-0.719h1.74
		c-0.147,0.895-0.49,1.593-1.021,2.099C146.074,50.804,145.4,51.057,144.6,51.057z M145.902,45.54
		c-0.041-0.527-0.139-0.939-0.31-1.237c-0.217-0.392-0.56-0.588-1.013-0.588c-0.441,0-0.78,0.229-1.013,0.686
		c-0.139,0.29-0.241,0.669-0.306,1.139H145.902z"/>
	<path fill="#262769" d="M148.802,42.052h0.809h0.821v1.572c0.057-0.171,0.122-0.335,0.2-0.499c0.399-0.874,0.923-1.307,1.552-1.307
		l0.388,0.008v2.36c-0.147-0.017-0.322-0.029-0.511-0.029c-0.519,0-0.906,0.176-1.164,0.523c-0.257,0.351-0.384,0.878-0.384,1.588
		v4.562h-0.849h-0.862V42.052z"/>
	<path fill="#262769" d="M155.115,51.057c-0.601,0-1.082-0.229-1.449-0.694c-0.359-0.465-0.548-1.078-0.548-1.837
		c0-0.8,0.168-1.446,0.494-1.928c0.335-0.478,0.813-0.784,1.441-0.906l1.123-0.208c0.299-0.053,0.544-0.143,0.735-0.273
		c0.086-0.057,0.147-0.151,0.192-0.294c0.049-0.139,0.065-0.278,0.053-0.425c-0.024-0.245-0.122-0.441-0.282-0.58
		c-0.191-0.167-0.469-0.253-0.837-0.253c-0.326,0-0.584,0.106-0.764,0.327c-0.184,0.212-0.277,0.515-0.286,0.906h-1.646
		c0.037-1.025,0.294-1.796,0.78-2.303c0.478-0.514,1.185-0.768,2.111-0.768c0.801,0,1.441,0.229,1.911,0.69
		c0.461,0.461,0.698,1.09,0.698,1.882v4.917c0,0.392,0.021,0.666,0.069,0.825s0.139,0.286,0.286,0.376v0.008v0.314h-0.923h-0.923
		v-0.008c-0.069-0.355-0.123-0.703-0.151-1.042l-0.004-0.017C156.663,50.628,155.969,51.057,155.115,51.057z M157.17,47.586v-1.004
		c-0.2,0.147-0.458,0.27-0.784,0.359l-0.634,0.163c-0.298,0.074-0.522,0.212-0.682,0.417c-0.155,0.204-0.232,0.457-0.232,0.759
		c0,0.351,0.073,0.629,0.208,0.825c0.139,0.2,0.335,0.302,0.584,0.302c0.547,0,0.988-0.261,1.311-0.784
		c0.069-0.106,0.119-0.253,0.164-0.454C157.145,47.969,157.17,47.778,157.17,47.586z"/>
	<path fill="#262769" d="M160.392,38.969h0.85h0.857v11.863h-0.854h-0.854V38.969z"/>
	<path fill="#262769" d="M166.297,51.057c-0.984,0-1.744-0.408-2.275-1.233c-0.534-0.825-0.804-1.993-0.804-3.52
		c0-1.405,0.273-2.499,0.813-3.295c0.547-0.792,1.307-1.188,2.267-1.188c0.988,0,1.752,0.404,2.282,1.213
		c0.531,0.813,0.797,1.964,0.797,3.459c0.008,0.171-0.004,0.347-0.024,0.522h-4.415c0.045,0.694,0.151,1.217,0.343,1.56
		c0.233,0.429,0.634,0.646,1.193,0.646c0.257,0,0.494-0.098,0.71-0.298c0.221-0.2,0.352-0.437,0.4-0.719h1.739
		c-0.146,0.895-0.489,1.593-1.024,2.099C167.767,50.804,167.093,51.057,166.297,51.057z M167.604,45.54
		c-0.045-0.527-0.147-0.939-0.314-1.237c-0.213-0.392-0.556-0.588-1.017-0.588c-0.438,0-0.776,0.229-1.009,0.686
		c-0.144,0.29-0.241,0.669-0.307,1.139H167.604z"/>
	<path fill="#262769" d="M173.863,42.052h0.809h0.817v1.298l0.11-0.216c0.461-0.878,1.069-1.315,1.825-1.315
		c0.82,0,1.479,0.408,1.977,1.233c0.498,0.825,0.747,1.907,0.747,3.25c0,1.429-0.249,2.577-0.747,3.447
		c-0.498,0.874-1.156,1.307-1.977,1.307c-0.752,0-1.355-0.408-1.817-1.225l-0.032-0.065v4.504h-0.854h-0.858V42.052z
		 M176.935,49.154c0.457,0,0.813-0.233,1.074-0.698c0.257-0.466,0.388-1.111,0.388-1.94c0-0.845-0.131-1.507-0.388-1.98
		c-0.253-0.478-0.608-0.715-1.07-0.715c-0.453,0-0.809,0.245-1.065,0.735c-0.253,0.49-0.384,1.168-0.384,2.042
		c0,0.801,0.131,1.43,0.384,1.879C176.13,48.929,176.485,49.154,176.935,49.154z"/>
	<path fill="#262769" d="M183.914,51.057c-0.984,0-1.744-0.408-2.279-1.233c-0.53-0.825-0.796-1.993-0.796-3.52
		c0-1.405,0.273-2.499,0.813-3.295c0.543-0.792,1.295-1.188,2.263-1.188c0.983,0,1.747,0.404,2.282,1.213
		c0.531,0.813,0.801,1.964,0.801,3.459c0.008,0.171-0.004,0.347-0.028,0.522h-4.415c0.037,0.694,0.155,1.217,0.339,1.56
		c0.241,0.429,0.638,0.646,1.196,0.646c0.258,0,0.494-0.098,0.715-0.298s0.352-0.437,0.396-0.719h1.735
		c-0.143,0.895-0.485,1.593-1.017,2.099C185.384,50.804,184.714,51.057,183.914,51.057z M185.217,45.54
		c-0.041-0.527-0.144-0.939-0.311-1.237c-0.217-0.392-0.56-0.588-1.017-0.588c-0.441,0-0.772,0.229-1.009,0.686
		c-0.139,0.29-0.245,0.669-0.307,1.139H185.217z"/>
	<path fill="#262769" d="M188.116,42.052h0.809h0.816v1.572c0.058-0.171,0.127-0.335,0.204-0.499c0.4-0.874,0.919-1.307,1.552-1.307
		l0.388,0.008v2.36c-0.15-0.017-0.322-0.029-0.51-0.029c-0.523,0-0.911,0.176-1.164,0.523c-0.258,0.351-0.388,0.878-0.388,1.588
		v4.562h-0.85h-0.857V42.052z"/>
	<path fill="#262769" d="M196.312,38.969h0.85h0.854v11.863h-0.845h-0.858V38.969z"/>
	<path fill="#262769" d="M201.204,51.057c-0.601,0-1.086-0.229-1.445-0.694c-0.368-0.465-0.552-1.078-0.552-1.837
		c0-0.8,0.168-1.446,0.494-1.928c0.331-0.478,0.809-0.784,1.446-0.906l1.123-0.208c0.294-0.053,0.539-0.143,0.73-0.273
		c0.086-0.057,0.151-0.151,0.192-0.294c0.045-0.139,0.065-0.278,0.053-0.425c-0.028-0.245-0.118-0.441-0.282-0.58
		c-0.195-0.167-0.474-0.253-0.837-0.253c-0.331,0-0.584,0.106-0.764,0.327c-0.184,0.212-0.281,0.515-0.29,0.906h-1.638
		c0.037-1.025,0.295-1.796,0.772-2.303c0.478-0.514,1.188-0.768,2.115-0.768c0.805,0,1.441,0.229,1.907,0.69
		c0.465,0.461,0.702,1.09,0.702,1.882v4.917c0,0.392,0.017,0.666,0.069,0.825c0.045,0.159,0.143,0.286,0.282,0.376v0.008v0.314
		h-0.923h-0.919v-0.008c-0.078-0.355-0.127-0.703-0.151-1.042l-0.008-0.017C202.748,50.628,202.058,51.057,201.204,51.057z
		 M203.259,47.586v-1.004c-0.2,0.147-0.462,0.27-0.784,0.359l-0.634,0.163c-0.302,0.074-0.526,0.212-0.678,0.417
		c-0.159,0.204-0.232,0.457-0.232,0.759c0,0.351,0.065,0.629,0.208,0.825c0.135,0.2,0.335,0.302,0.584,0.302
		c0.548,0,0.98-0.261,1.307-0.784c0.065-0.106,0.119-0.253,0.164-0.454C203.233,47.969,203.259,47.778,203.259,47.586z"/>
	<path fill="#262769" d="M211.573,50.832h-0.854h-0.858V38.969h1.344h1.34l1.588,9.401h0.005l1.572-9.401h1.318h1.327v11.863h-0.854
		h-0.854v-9.977l0,0l-1.646,9.977h-0.89h-0.898l-1.638-10.193h-0.004V50.832z"/>
	<path fill="#262769" d="M220.496,49.823c-0.597-0.825-0.898-1.936-0.898-3.332c0-1.429,0.302-2.569,0.898-3.41
		c0.596-0.841,1.4-1.262,2.413-1.262c1.021,0,1.829,0.421,2.426,1.262c0.592,0.841,0.886,1.981,0.886,3.41
		c0,1.396-0.294,2.507-0.886,3.332c-0.597,0.825-1.405,1.233-2.426,1.233C221.896,51.057,221.092,50.649,220.496,49.823z
		 M224.073,48.444c0.266-0.449,0.392-1.111,0.392-1.977c0-0.891-0.126-1.56-0.392-2.021c-0.27-0.461-0.657-0.69-1.164-0.69
		s-0.895,0.229-1.155,0.69c-0.266,0.461-0.396,1.131-0.396,2.021c0,0.866,0.131,1.527,0.396,1.977
		c0.261,0.453,0.648,0.678,1.155,0.678S223.804,48.897,224.073,48.444z"/>
	<path fill="#262769" d="M230.402,50.882c-0.289,0.033-0.641,0.049-1.058,0.049c-0.6,0-1.033-0.147-1.298-0.441
		c-0.262-0.29-0.4-0.772-0.4-1.442v-5.374h-0.898v-1.621h0.898v-2.365h1.711v2.365h1.045v1.621h-1.045v4.99
		c0,0.204,0.045,0.335,0.135,0.4s0.273,0.098,0.556,0.098h0.354V50.882z"/>
	<path fill="#262769" d="M232,49.823c-0.597-0.825-0.891-1.936-0.891-3.332c0-1.429,0.294-2.569,0.891-3.41
		c0.604-0.841,1.404-1.262,2.421-1.262c1.018,0,1.826,0.421,2.418,1.262c0.596,0.841,0.895,1.981,0.895,3.41
		c0,1.396-0.299,2.507-0.895,3.332c-0.592,0.825-1.4,1.233-2.418,1.233C233.404,51.057,232.604,50.649,232,49.823z M235.581,48.444
		c0.266-0.449,0.396-1.111,0.396-1.977c0-0.891-0.131-1.56-0.396-2.021s-0.653-0.69-1.16-0.69c-0.51,0-0.898,0.229-1.159,0.69
		c-0.266,0.461-0.396,1.131-0.396,2.021c0,0.866,0.131,1.527,0.396,1.977c0.261,0.453,0.649,0.678,1.159,0.678
		C234.928,49.121,235.315,48.897,235.581,48.444z"/>
	<path fill="#262769" d="M238.922,42.052h0.804h0.817v1.572c0.057-0.171,0.126-0.335,0.208-0.499
		c0.396-0.874,0.911-1.307,1.548-1.307l0.388,0.008v2.36c-0.151-0.017-0.322-0.029-0.511-0.029c-0.519,0-0.906,0.176-1.159,0.523
		c-0.258,0.351-0.388,0.878-0.388,1.588v4.562h-0.854h-0.854V42.052z"/>
	<path fill="#262769" d="M243.724,38.879h1.74v2.148h-1.74V38.879z M243.74,42.052h0.854h0.854v8.78h-0.846h-0.861V42.052z"/>
	<path fill="#262769" d="M246.521,49.031l3.279-5.08l0.045-0.065h-3.084v-0.915v-0.919h5.216v0.943v0.956l-3.239,4.986h3.386v0.943
		v0.951h-5.603v-0.894V49.031z"/>
	<path fill="#262769" d="M252.61,49.031l3.291-5.08l0.037-0.065h-3.088v-0.915v-0.919h5.22v0.943v0.956l-3.23,4.986h3.381v0.943
		v0.951h-5.61v-0.894V49.031z"/>
	<path fill="#262769" d="M260.814,51.057c-0.604,0-1.082-0.229-1.45-0.694c-0.367-0.465-0.547-1.078-0.547-1.837
		c0-0.8,0.163-1.446,0.494-1.928c0.331-0.478,0.805-0.784,1.438-0.906l1.127-0.208c0.294-0.053,0.535-0.143,0.735-0.273
		c0.077-0.057,0.143-0.151,0.191-0.294c0.045-0.139,0.062-0.278,0.054-0.425c-0.024-0.245-0.119-0.441-0.282-0.58
		c-0.196-0.167-0.474-0.253-0.837-0.253c-0.327,0-0.58,0.106-0.764,0.327c-0.184,0.212-0.282,0.515-0.294,0.906h-1.638
		c0.037-1.025,0.294-1.796,0.775-2.303c0.479-0.514,1.181-0.768,2.116-0.768c0.804,0,1.438,0.229,1.902,0.69
		c0.47,0.461,0.703,1.09,0.703,1.882v4.917c0,0.392,0.024,0.666,0.069,0.825c0.049,0.159,0.146,0.286,0.29,0.376v0.008v0.314h-0.928
		h-0.923v-0.008c-0.073-0.355-0.126-0.703-0.143-1.042l-0.009-0.017C262.358,50.628,261.668,51.057,260.814,51.057z M262.864,47.586
		v-1.004c-0.2,0.147-0.461,0.27-0.788,0.359l-0.629,0.163c-0.294,0.074-0.526,0.212-0.678,0.417
		c-0.155,0.204-0.229,0.457-0.229,0.759c0,0.351,0.069,0.629,0.204,0.825c0.143,0.2,0.33,0.302,0.584,0.302
		c0.547,0,0.984-0.261,1.311-0.784c0.062-0.106,0.114-0.253,0.159-0.454S262.864,47.778,262.864,47.586z"/>
	<path fill="#262769" d="M265.486,49.031l3.291-5.08l0.041-0.065h-3.083v-0.915v-0.919h5.215v0.943v0.956l-3.234,4.986h3.386v0.943
		v0.951h-5.615v-0.894V49.031z"/>
	<path fill="#262769" d="M272.184,38.879h1.739v2.148h-1.739V38.879z M272.199,42.052h0.854h0.858v8.78h-0.854h-0.858V42.052z"/>
	<path fill="#262769" d="M276.047,49.823c-0.604-0.825-0.898-1.936-0.898-3.332c0-1.429,0.294-2.569,0.898-3.41
		c0.596-0.841,1.4-1.262,2.409-1.262c1.021,0,1.829,0.421,2.426,1.262c0.596,0.841,0.895,1.981,0.895,3.41
		c0,1.396-0.299,2.507-0.895,3.332c-0.597,0.825-1.405,1.233-2.426,1.233C277.447,51.057,276.643,50.649,276.047,49.823z
		 M279.62,48.444c0.265-0.449,0.396-1.111,0.396-1.977c0-0.891-0.131-1.56-0.396-2.021c-0.266-0.461-0.658-0.69-1.164-0.69
		c-0.507,0-0.895,0.229-1.16,0.69c-0.261,0.461-0.392,1.131-0.392,2.021c0,0.866,0.131,1.527,0.392,1.977
		c0.266,0.453,0.653,0.678,1.16,0.678C278.962,49.121,279.354,48.897,279.62,48.444z"/>
	<path fill="#262769" d="M282.973,42.052h0.809h0.816v1.298c0.069-0.155,0.135-0.302,0.217-0.445
		c0.425-0.727,1.033-1.086,1.838-1.086c0.678,0,1.221,0.273,1.601,0.821c0.392,0.551,0.584,1.311,0.584,2.283v5.909h-0.854h-0.857
		v-5.484c0-0.547-0.086-0.947-0.258-1.208c-0.171-0.262-0.44-0.392-0.796-0.392c-0.449,0-0.788,0.184-1.033,0.547
		c-0.241,0.368-0.359,0.895-0.359,1.584v4.954h-0.85h-0.857V42.052z"/>
	<path fill="#262769" d="M292.985,51.057c-0.987,0-1.743-0.408-2.278-1.233c-0.535-0.825-0.805-1.993-0.805-3.52
		c0-1.405,0.273-2.499,0.821-3.295c0.543-0.792,1.294-1.188,2.262-1.188c0.988,0,1.748,0.404,2.283,1.213
		c0.535,0.813,0.801,1.964,0.801,3.459c0.008,0.171,0,0.347-0.033,0.522h-4.41c0.041,0.694,0.155,1.217,0.339,1.56
		c0.237,0.429,0.637,0.646,1.192,0.646c0.258,0,0.498-0.098,0.719-0.298s0.352-0.437,0.396-0.719h1.739
		c-0.151,0.895-0.49,1.593-1.024,2.099C294.456,50.804,293.786,51.057,292.985,51.057z M294.284,45.54
		c-0.036-0.527-0.139-0.939-0.306-1.237c-0.221-0.392-0.56-0.588-1.013-0.588c-0.445,0-0.784,0.229-1.009,0.686
		c-0.144,0.29-0.249,0.669-0.314,1.139H294.284z"/>
</g>
<g>
	<polygon fill-rule="evenodd" clip-rule="evenodd" fill="#FFFFFF" points="5.353,37.671 6.966,38.532 7.333,40.064 6.787,41.293 
		6.468,42.53 12.067,45.752 14.296,45.479 14.762,43.364 16.003,41.134 17.123,41.134 20.622,42.53 21.966,44 23.26,43.131 
		24.546,43.131 25.42,43.796 25.804,43.404 26.274,43.657 27.642,43.796 35.989,45.299 38.063,45.601 43.079,42.677 41.984,40.154 
		42.421,38.438 43.67,37.626 44.475,37.834 44.94,39.594 44.769,39.81 45.807,39.68 46.97,39.349 47.791,40.027 49,44.695 
		48.102,46.14 41.171,50.477 38.341,50.914 33.225,50.914 27.475,49.448 25.42,49.636 24.71,49.448 15.166,51.106 11.805,51.62 
		9.629,51.106 2.274,46.54 0.257,44.278 0.967,42.118 1.796,39.337 3.168,39.255 4.508,39.937 	"/>
	<g>
		<g>
			<path fill-rule="evenodd" clip-rule="evenodd" fill="#A6A8AB" d="M42.184,22.651l-2.699-5.337l-2.679-4.823l-1.053-1.144
				l0.286-1.021l-2.172-1.429l-0.825,0.821l-1.687-1.131V7.443l-2.568-0.601l-0.629,0.972L26.36,7.3l-0.257-0.997h-2.622
				l-0.372,1.082l-1.85,0.429l-0.8-1.054l-2.312,0.768V8.7l-1.625,0.67L15.375,8.7l-1.707,1.34l0.171,1.307l-1.343,1.291
				l-4.08,6.983l0.229,0.49l-0.171,2.054l-1.14,0.372v2.25l0.939,0.919v2.858l2.708,6.469l1.601-0.49l1.34,1.258l-0.253,1.372
				l1.768,1.283l1.054-0.686l1.683,0.8l-0.024,1.315l2.193,0.768l0.943-1.086l1.854,0.429l0.343,1.139h2.622l0.233-1.111
				l2.079-0.282l0.571,0.854l2.34-0.772l-0.09-1.11l1.858-0.854l1.054,0.653l1.772-1.568l-0.4-1.054l1.654-1.286l0.89,0.343
				l1.552-1.703l1.78-5.746l1.025-2.822L42.184,22.651z M27.573,11.102c2.234,0.727,4.271,1.936,6.019,3.557
				c0.727,0.723,1.385,1.564,1.993,2.405l-7.347,1.87c-0.057,0-0.184-0.057-0.245-0.18l-0.298-4.035l-0.241-3.618H27.573z
				 M13.484,17.187c0.596-0.846,1.205-1.56,1.919-2.226c1.748-1.687,3.855-2.892,6.26-3.614l-0.298,3.614l-0.241,3.973
				c0,0.062-0.057,0.123-0.233,0.123l-7.469-1.809L13.484,17.187z M17.204,28.862l-2.156,3.557c0,0.058,0,0.058-0.131,0
				c-1.499-2.111-2.523-4.455-2.887-6.926c-0.118-0.841-0.18-1.74-0.18-2.646h0.062l5.292,2.165l1.748,0.666
				c0.062,0,0.127,0.119,0.062,0.241L17.204,28.862z M24.738,36.572c-1.748,0-3.491-0.359-5.117-0.964l4.995-5.721
				c0.061,0,0.061,0,0.122-0.057c0.058,0,0.123,0.057,0.176,0.057l4.884,5.962C28.23,36.392,26.547,36.634,24.738,36.572z
				 M24.738,27.657l-5.962,4.517l2.536-7.163l-6.142-4.157h7.399l2.168-7.163v-0.053l2.165,7.216h7.408l-6.142,4.157l2.471,7.163
				L24.738,27.657z M37.619,22.594c0,0.719,0,1.438-0.123,2.107c-0.302,2.646-1.327,5.174-2.944,7.4c-0.065,0-0.065,0-0.126-0.057
				l-3.97-6.444c-0.061,0-0.061-0.118,0.065-0.245l4.574-1.862l2.524-1.021C37.619,22.471,37.619,22.528,37.619,22.594z"/>
			<g>
				<g>
					<polygon fill-rule="evenodd" clip-rule="evenodd" fill="#147340" points="29.333,50.681 30.472,50.314 31.991,50.485 
						34.405,51.878 35.393,52.862 37.472,53.866 39.048,54.618 40.15,54.896 39.905,55.451 38.063,56.031 36.292,56.713 
						35.136,55.77 31.668,53.246 					"/>
					<polygon fill-rule="evenodd" clip-rule="evenodd" fill="#147340" points="11.965,54.785 14.55,53.372 17.506,51.298 
						19.409,50.914 20.928,51.343 19.511,52.707 16.841,54.618 16.338,55.492 15.917,56.325 14.987,56.819 11.805,55.345 					"/>
				</g>
				<g>
					<polyline fill-rule="evenodd" clip-rule="evenodd" fill="#147340" points="22.635,2.371 20.622,4.478 15.15,7.557 
						14.125,7.867 13.239,10.383 12.177,11.865 12.385,12.523 12.177,13.576 10.837,16.603 7.901,20.511 6.248,22.365 6.248,22.692 
						5.88,23.361 5.88,24.019 6.08,24.591 5.341,25.191 5.137,26.016 5.137,26.902 6.68,30.638 7.901,27.616 8.759,26.497 
						9.498,26.13 10.327,23.761 10.956,23.618 11.495,24.072 11.752,25.272 11.813,26.902 11.495,29.895 11.156,32.464 
						10.637,33.718 10.83,35.629 11.699,37.426 12.663,39.713 14.153,40.872 15.575,42.163 18.658,43.645 19.683,44.188 
						19.091,44.695 17.175,44.695 13.884,42.334 12.667,41.852 10.997,41.395 9.016,38.941 6.374,36.829 2.642,32.292 1.657,30.234 
						0.967,26.73 1.4,24.304 3.221,25.673 3.936,26.873 3.769,25.272 2.364,22.136 2.029,19.428 2.339,15.635 3.115,13.266 
						5.479,8.7 6.133,8.444 6.647,10.383 7.305,9.787 7.991,8.072 9.388,5.589 11.556,3.478 12.442,3.363 12.209,6.561 12.81,5.303 
						14.55,3.449 17.572,1.309 19.944,0.37 21.198,0.37 21.026,1.023 19.973,2.277 19.887,2.849 21.798,2.277 22.635,2.305 					"/>
					<polygon fill-rule="evenodd" clip-rule="evenodd" fill="#147340" points="38.517,29.323 37.619,25.591 37.802,24.529 
						37.917,23.704 38.827,22.936 39.742,22.936 40.089,23.508 41.225,27.159 41.372,25.685 42.082,24.762 42.192,22.393 40,19.743 
						38.231,16.059 38.701,15.447 37.802,15.316 36.773,12.691 37.374,12.466 37.145,10.694 37.345,9.718 37.03,10.008 
						34.977,7.925 32.918,6.075 29.557,4.703 27.103,2.82 26.703,1.995 26.891,1.195 28.157,0.37 29.41,0.37 31.326,0.938 
						33.813,2.363 35.462,2.934 37.684,3.735 39.023,4.531 41.253,6.479 42.368,8.415 43.34,8.211 43.826,9.04 44.99,10.383 
						46.063,11.98 46.248,14.091 46.672,15.202 47.215,16.917 47.215,18.314 47.387,19.796 46.063,23.104 47.158,22.692 
						47.873,23.222 49.016,23.794 49.412,25.591 48.498,27.498 48.816,28.564 47.873,30.581 47.134,31.978 44.847,35.547 
						44.569,36.344 43.67,37.626 42.478,38.03 40.052,38.855 38.513,41.08 34.923,43.592 33.404,44.935 31.297,44.646 
						28.185,44.017 28.871,42.792 34.004,40.709 34.805,41.734 37.313,37.601 39.689,33.117 37.888,31.953 					"/>
				</g>
			</g>
			<path fill-rule="evenodd" clip-rule="evenodd" fill="#231F20" d="M7.521,45.54c-0.306,0.486-0.543,0.543-0.968,0.241l0.245-0.359
				l0.417-0.662c0.123-0.245,0.123-0.245,0.306-0.123c0.241,0.18,0.241,0.42,0.057,0.784C7.579,45.479,7.579,45.479,7.521,45.54
				L7.521,45.54z M8.061,45.899c0.123-0.175,0.176-0.359,0.176-0.478c0.065-0.486-0.176-0.784-0.474-0.964l-0.547-0.302
				c-0.176-0.123-0.355-0.241-0.539-0.359l-0.123,0.18c0.306,0.18,0.18,0.425-0.061,0.784l-0.421,0.662l-0.6,0.959
				c-0.241,0.363-0.359,0.601-0.658,0.425l-0.123,0.118l1.144,0.784l0.123-0.18c-0.363-0.241-0.249-0.42,0.061-0.841l0.421-0.662
				l0.294,0.176C7.101,46.447,7.705,46.565,8.061,45.899L8.061,45.899z"/>
			<path fill-rule="evenodd" clip-rule="evenodd" fill="#231F20" d="M13.479,17.187c0.601-0.846,1.209-1.564,1.924-2.226
				c1.748-1.687,3.855-2.896,6.26-3.614l-0.302,3.614L21.12,18.93c0,0.065-0.057,0.123-0.241,0.123l-7.461-1.809L13.479,17.187
				L13.479,17.187z M12.94,17.309c0,0.237,0.184,0.482,0.478,0.543l7.347,1.744c0.061,0,0.175,0.062,0.298,0
				c0.298-0.061,0.543-0.363,0.543-0.666l0.302-3.969l0.29-3.614c0-0.18-0.11-0.359-0.29-0.482
				c-0.123-0.057-0.302-0.118-0.482-0.057c-2.589,0.837-4.872,2.222-6.738,4.153c-0.608,0.6-1.151,1.2-1.633,1.923
				C12.94,17.003,12.94,17.125,12.94,17.309L12.94,17.309z"/>
			<path fill-rule="evenodd" clip-rule="evenodd" fill="#231F20" d="M15.468,54.144c-0.249-0.057-0.367,0.188-0.481,0.368
				c0.359,0.057,0.535,0.18,0.902,0.057c0.592-0.539,1.021-1.384,1.801-1.687v-0.176c-0.294,0-0.539,0.176-0.845,0.355
				C16.555,53.365,16.187,54.271,15.468,54.144L15.468,54.144z"/>
			<path fill-rule="evenodd" clip-rule="evenodd" fill="#231F20" d="M11.193,48.37l0.18-0.482l0.298-0.727
				c0-0.053,0.127-0.053,0.184,0c0.302,0.126,0.302,0.429,0.118,0.784c-0.061,0.127-0.118,0.18-0.175,0.245
				C11.613,48.489,11.434,48.489,11.193,48.37L11.193,48.37z M10.588,50.118c-0.241-0.123-0.184-0.425-0.057-0.727
				c0.057,0,0.057-0.057,0.057-0.123l0.368-0.723l0.171,0.065c0.359,0.175,0.429,0.481,0.18,1.025
				c-0.061,0.057-0.114,0.18-0.18,0.241C11.005,50.056,10.772,50.175,10.588,50.118L10.588,50.118z M12.034,46.924l-1.078-0.478
				l-0.126,0.176c0.363,0.122,0.241,0.359,0.061,0.788l-0.061,0.061l-0.784,1.56v0.061c-0.241,0.417-0.298,0.666-0.662,0.482
				l-0.057,0.184l0.959,0.478c0.364,0.18,0.96,0.421,1.384,0.062c0.062-0.123,0.184-0.241,0.241-0.364
				c0.306-0.666-0.057-1.086-0.355-1.266c0.176,0,0.478,0.069,0.723-0.123c0.118-0.057,0.175-0.176,0.294-0.355
				C12.875,47.529,12.397,47.108,12.034,46.924L12.034,46.924z"/>
			<path fill-rule="evenodd" clip-rule="evenodd" fill="#231F20" d="M14.505,49.934c-0.245,0.062-0.364-0.175-0.425-0.486
				c0-0.057,0-0.114-0.062-0.18l-0.123-0.78l0.184-0.062c0.359-0.057,0.608,0.184,0.719,0.727c0,0.114,0,0.18,0,0.294
				C14.799,49.693,14.742,49.934,14.505,49.934L14.505,49.934z M13.598,46.982c-0.061-0.115,0.057-0.115,0.123-0.115
				c0.298-0.061,0.486,0.115,0.6,0.604c0,0.057,0,0.18,0,0.237c0,0.298-0.114,0.482-0.425,0.539l-0.114-0.482L13.598,46.982
				L13.598,46.982z M14.378,48.247c0.188-0.123,0.421-0.241,0.547-0.539c0-0.118,0.062-0.237,0-0.42
				c-0.126-0.788-0.784-0.788-1.205-0.723l-1.147,0.241v0.241c0.425-0.123,0.425,0.115,0.551,0.604v0.057l0.355,1.74v0.062
				c0.058,0.424,0.119,0.727-0.241,0.788l0.061,0.18l1.078-0.241c0.421-0.061,0.968-0.241,1.09-0.788c0-0.114,0-0.294,0-0.417
				C15.285,48.313,14.799,48.19,14.378,48.247L14.378,48.247z"/>
			<path fill-rule="evenodd" clip-rule="evenodd" fill="#231F20" d="M10.707,46.5l0.123-0.119l-0.841-0.543l-0.123,0.188
				c0.123,0.058,0.298,0.176,0.123,0.421c-0.123,0.176-0.429,0.478-0.604,0.6l-1.017,0.96l0.596-1.866
				c0-0.057,0.062-0.241,0.123-0.359c0.123-0.18,0.298-0.119,0.417,0l0.123-0.18l-1.143-0.727l-0.115,0.126
				c0.237,0.241,0.237,0.298,0.053,0.78l-0.898,2.957l0.119,0.11l2.348-2.042C10.286,46.565,10.47,46.381,10.707,46.5L10.707,46.5z"
				/>
			<path fill-rule="evenodd" clip-rule="evenodd" fill="#231F20" d="M5.173,45.961l-0.18-0.123
				c-0.433,0.543-0.662,0.608-1.021,0.363c-0.429-0.241-0.192-0.539,0.049-0.959l0.363-0.604c0.306,0.237,0.368,0.363,0.123,0.841
				l0.184,0.061l0.719-1.266l-0.123-0.053c-0.294,0.417-0.474,0.417-0.78,0.237l0.539-0.902C5.112,43.494,5.23,43.31,5.23,43.31
				c0.057-0.062,0.298,0.065,0.364,0.123c0.294,0.175,0.363,0.42,0.18,0.968l0.114,0.057l0.486-0.85L4.561,42.53l-0.053,0.115
				c0.306,0.188,0.184,0.424-0.053,0.849l-1.029,1.564c-0.237,0.421-0.359,0.666-0.727,0.421l-0.057,0.184l1.919,1.205L4.814,46.5
				L5.173,45.961L5.173,45.961z"/>
			<path fill-rule="evenodd" clip-rule="evenodd" fill="#231F20" d="M17.69,48.489c0,0.666-0.118,0.845-0.6,0.959
				c-0.417,0.062-0.486-0.237-0.608-0.837l-0.355-1.564c-0.062-0.482-0.119-0.727,0.237-0.78v-0.184l-1.315,0.237v0.18
				c0.355-0.053,0.42,0.188,0.535,0.662l0.367,1.87c0.057,0.417,0.114,0.727-0.241,0.727l0.053,0.237l2.295-0.486l-0.184-1.021
				H17.69L17.69,48.489z"/>
			<path fill-rule="evenodd" clip-rule="evenodd" fill="#231F20" d="M22.929,47.288l0.115-0.421l0.13-0.906l0.359,0.906l0.123,0.359
				L22.929,47.288L22.929,47.288z M24.498,47.708l-0.363-0.841l-0.723-1.932h-0.175l-0.364,1.932l-0.188,0.784
				c-0.062,0.355-0.119,0.895-0.486,0.96l0.07,0.175l0.906-0.049v-0.249c-0.13,0-0.302,0-0.367-0.241l0.065-0.657l0.898-0.062
				l0.245,0.662c0,0.237-0.245,0.237-0.359,0.298l0.057,0.18l1.021-0.057l0.302-0.065V48.37c-0.123,0-0.241-0.057-0.302-0.123
				C24.616,48.125,24.555,47.888,24.498,47.708L24.498,47.708z"/>
			<path fill-rule="evenodd" clip-rule="evenodd" fill="#231F20" d="M24.734,13.691v-0.053l2.168,7.216h7.408l-6.142,4.157
				l2.471,7.163l-5.905-4.517l-5.958,4.517l2.528-7.163l-6.134-4.157h7.396L24.734,13.691L24.734,13.691z M12.998,20.2l7.526,5.052
				l-3.079,8.788l7.29-5.599l7.29,5.599l-3.071-8.788l7.522-5.052h-9.09l-2.65-8.854L22.088,20.2H12.998L12.998,20.2z"/>
			<path fill-rule="evenodd" clip-rule="evenodd" fill="#231F20" d="M21.606,47.59c0,0.6-0.123,1.147-0.604,1.196
				c-0.596,0.062-0.898-0.714-1.021-1.499c-0.123-0.723-0.057-1.687,0.543-1.748c0.417-0.061,0.723,0.298,0.837,0.841l0.184-0.061
				l-0.184-1.14h-0.18v0.359c-0.241-0.241-0.478-0.298-0.776-0.241c-0.784,0.123-1.266,1.021-1.086,2.172
				c0.18,1.074,0.784,1.74,1.56,1.621c0.302-0.061,0.604-0.245,0.784-0.547l0.123,0.302h0.18l-0.18-1.258H21.606L21.606,47.59z"/>
			<path fill-rule="evenodd" clip-rule="evenodd" fill="#231F20" d="M19.14,48.37l-0.363-1.87c-0.057-0.417-0.123-0.719,0.241-0.776
				l-0.065-0.184l-1.315,0.241l0.053,0.245c0.368-0.126,0.421,0.176,0.482,0.597l0.359,1.866c0.065,0.424,0.123,0.723-0.245,0.78
				l0.074,0.18l1.323-0.237l-0.061-0.18C19.258,49.093,19.197,48.848,19.14,48.37L19.14,48.37z"/>
			<path fill-rule="evenodd" clip-rule="evenodd" fill="#231F20" d="M27.446,11.102l0.241,3.618l0.294,4.035
				c0.065,0.114,0.188,0.176,0.249,0.176l7.347-1.866c-0.608-0.841-1.266-1.691-1.993-2.405c-1.748-1.629-3.786-2.83-6.023-3.557
				 M27.507,18.755L27.14,14.72l-0.237-3.496c-0.061-0.302,0.057-0.543,0.363-0.604c0.119-0.053,0.294-0.053,0.421,0
				c2.528,0.788,4.819,2.173,6.681,4.039c0.6,0.662,1.147,1.327,1.69,2.046c0.11,0.118,0.11,0.298,0.049,0.482
				c-0.049,0.18-0.171,0.359-0.351,0.42l-7.408,1.809c-0.302,0.057-0.662-0.065-0.788-0.363
				C27.507,18.93,27.507,18.869,27.507,18.755"/>
			<path fill-rule="evenodd" clip-rule="evenodd" fill="#231F20" d="M24.734,36.572c-1.744,0-3.487-0.359-5.113-0.964l4.995-5.721
				c0.061,0,0.061,0,0.118-0.057c0.062,0,0.126,0.057,0.18,0.057l4.884,5.962C28.23,36.392,26.547,36.634,24.734,36.572
				L24.734,36.572z M25.339,29.585c-0.057-0.057-0.119-0.123-0.245-0.175c-0.123-0.062-0.233-0.123-0.359-0.062
				c-0.237,0-0.359,0.062-0.535,0.237l-5.002,5.726c-0.302,0.539,0.123,0.841,0.302,0.902c1.683,0.601,3.43,0.895,5.235,0.959
				c1.744,0,3.435-0.237,5.117-0.78c0.122-0.061,0.788-0.42,0.306-0.968L25.339,29.585L25.339,29.585z"/>
			<path fill-rule="evenodd" clip-rule="evenodd" fill="#231F20" d="M40.996,47.827l-0.184-0.719l-0.188-0.543l0.547,0.543
				l0.417,0.363L40.996,47.827L40.996,47.827z M42.972,47.888c-0.114-0.061-0.302-0.237-0.424-0.359l-0.474-0.42l-1.748-1.629
				l-0.176,0.123l0.421,1.445l0.359,1.201c0.065,0.364,0.302,0.907,0,1.086l0.114,0.176l0.792-0.543l-0.118-0.118
				c-0.131,0.065-0.307,0.118-0.425-0.11l-0.249-0.613l0.792-0.474l0.474,0.539c0.123,0.18-0.061,0.298-0.118,0.355l0.057,0.192
				l1.151-0.731l-0.13-0.18C43.217,47.888,43.095,47.945,42.972,47.888L42.972,47.888z"/>
			<path fill-rule="evenodd" clip-rule="evenodd" fill="#231F20" d="M42.613,9.721c-0.114,0.241,0.057,0.425,0.057,0.658
				c0.07,0.126,0.188,0.368,0.368,0.302c0-0.241-0.123-0.355-0.123-0.535C42.792,10.024,42.858,9.664,42.613,9.721L42.613,9.721z"/>
			<path fill-rule="evenodd" clip-rule="evenodd" fill="#231F20" d="M29.913,45.479c0.363,0.061,0.302,0.302,0.18,0.788
				l-0.425,1.805c-0.057,0.474-0.118,0.714-0.474,0.666l-0.065,0.175l1.327,0.298v-0.245c-0.363-0.053-0.298-0.298-0.18-0.719
				l0.421-1.866c0.114-0.42,0.114-0.719,0.535-0.6V45.54l-1.258-0.241L29.913,45.479L29.913,45.479z"/>
			<path fill-rule="evenodd" clip-rule="evenodd" fill="#231F20" d="M43.936,43.608c-0.057-0.175,0.062-0.232,0.126-0.298
				l-0.126-0.18l-0.719,0.478l0.053,0.188c0.368-0.188,0.608,0.18,0.849,0.478l0.846,1.266l-2.773-1.266l-0.662,0.486l0.126,0.175
				c0.18-0.118,0.294-0.061,0.535,0.065l1.266,1.866c0.241,0.359,0.363,0.543,0.122,0.784l0.058,0.176l0.788-0.539l-0.131-0.18
				c-0.298,0.233-0.531-0.184-0.78-0.486l-0.968-1.442l3.083,1.384l0.176-0.118l-1.511-2.226
				C44.185,44.098,43.998,43.796,43.936,43.608L43.936,43.608z"/>
			<path fill-rule="evenodd" clip-rule="evenodd" fill="#231F20" d="M39.423,36.992c0.184-0.302,0.547-0.6,0.727-0.906
				c0,0.306-0.118,0.666-0.368,0.906c-0.11,0.18-0.237,0.298-0.359,0.421c-0.061,0-0.061-0.062-0.114-0.123
				C39.309,37.238,39.362,37.107,39.423,36.992L39.423,36.992z M42.376,34.526c-0.126,0.241-0.245,0.474-0.482,0.662
				c-0.057,0-0.123-0.302-0.123-0.662c0-0.486,0.123-1.147,0.421-1.205C42.548,33.918,42.376,34.526,42.376,34.526L42.376,34.526z
				 M42.613,36.029c-0.114-0.478,0.127-0.903,0.302-1.323c0-0.065,0-0.123,0-0.18c0-0.065,0-0.123,0.057-0.18
				c0.065,0,0.065,0.114,0.123,0.18c0,0.057,0,0.057,0,0.114C43.34,35.126,42.972,35.731,42.613,36.029L42.613,36.029z
				 M44.063,36.392c-0.298,0.359-0.723,0.658-0.792,1.139c0,0.123-0.233,0.245-0.478,0.18c-0.18,0-0.245-0.298-0.482-0.241
				c-0.18,0.543-0.78,0.363-1.139,0.723c-0.78,0.727-0.845-0.359-0.902-0.237c-0.486,0.539-0.907,1.201-1.385,1.748
				c-0.302,0.359-0.481,1.078-0.604,1.201c-0.057,0.057-0.241,0.245-0.241,0.245c-0.057,0.18-0.118,0.359-0.363,0.294
				c-0.18,0-0.18-0.294-0.417-0.115c-0.119,0.298-0.306,0-0.478,0.058c-0.188,0.302-1.094,1.323-1.748,1.388
				c-0.123,0.057-0.359,0.057-0.482-0.13c-0.302-0.176-0.723,0.788-1.029,0.849c-0.057,0.062,0,0.114,0.062,0.114h0.359
				c0,0.245-0.359,0.547-0.658,0.727c0,0-0.302,0.18-0.596,0.302c0,0-0.911,0-1.878-0.363v-0.359l1.025-0.604
				c0.065,0.298,0.241,0.425,0.482,0.604c0.188,0.118,0.237,0,0.306-0.119c0.065-0.42-0.906-0.547-0.184-1.021
				c0.425-0.306,0.425-0.065,1.082-0.188c0.482-0.118,0.964-0.359,1.323-0.661c0,0,0.551-0.237,1.511-1.928
				c0,0,0.474-0.841,4.215-7.522c0,0,0.898-0.841,2.221-4.035c0.123-0.237,0.18,0.245,0.359,0.18c0.307-0.359-0.114-0.6-0.294-0.898
				c-0.118-0.424-0.245-0.963-0.118-1.445c0.053-0.123,0.298-0.062,0.355,0.241c0.057,0.359,0.123,0.719,0.245,1.083
				c0.596,0,0.845-3.431,0.902-4.092c0-0.061,0-0.061,0-0.123c-0.306-0.42-1.147-0.6-1.09-0.959
				c0.613-0.184-0.294-1.384-0.359-0.907c0,0.119,0.123,0.307,0,0.421c-0.956,0.065-0.78-0.898-1.021-1.144
				c-0.184-0.237-0.661,0-0.727-0.417c0-0.245-0.049-0.486-0.294-0.604c-0.237-0.061-0.601,0.18-0.601-0.425
				c0-0.482,1.144,0.604,0.845-0.355c-0.424-0.911-1.27-0.302-1.388-0.486c-0.298-0.482-1.147-1.805-1.147-2.406
				c0.057-0.302,0.539,0.355,0.539-0.061c0-0.359-0.482-0.841-0.596-0.78c-0.543,0.241-0.727-0.364-0.727-0.604
				c-0.057-0.123-0.057-0.359,0-0.666c-0.114-0.237-0.482-0.237-0.535-0.539c-0.061-0.123-0.188-0.364,0-0.543
				c1.319-0.42,0-0.959,0.298-1.319c0.237-0.245,0.841,0.18,1.205-0.368c0.298-0.302,0.355-0.18,0.478,0
				c0.424,0.368-0.18,1.205,0.551,1.205c0.171,0,0.417-0.478,0.719-0.18c0.42,0.421,0.359,0.78,0.539,1.389
				c0.302,0.841-0.241,1.021-0.307,1.082c-0.053,0.057-0.11,0.18-0.11,0.302c-0.065,0.18-0.065,0.417,0.11,0.601
				c0.249-0.119,0.486-0.302,0.608-0.539c0.062-0.123,0.18-0.123,0.298-0.062c0.126,0.18,0,0.539,0.126,0.719
				c0.956,1.021,0,1.625,0,1.625c-0.126-0.302,0-0.662-0.306-0.841c-0.18,0.417,0.18,1.021-0.057,1.446c0,0-0.123-0.727-1.748-2.887
				c0-0.364-0.123-0.968-0.061-1.328c-0.062,0-0.062-0.118-0.176-0.065c-0.126,0-0.069,0.188-0.188,0.126
				c-0.294-0.601-0.421-1.27-0.78-1.866l-0.118,0.18c0.237,0.841,0.604,1.625,0.841,2.466h-0.122l-0.601-0.662
				c-0.061,0-0.118,0-0.118,0.058c0.057,0.486,0.661,0.906,1.017,1.27l1.332,1.923c-0.245-0.123-0.539-0.302-0.846-0.302
				c-0.053,0.057-0.053,0.118,0,0.18c0.964,0.543,1.805,1.629,2.046,2.65c-0.114,0.118-0.302-0.18-0.359,0.061
				c0.058,0.241,0.662,0.723,1.086,0.841v-0.302c-0.368-0.841-0.968-1.621-0.841-2.646c0.114,0.184,0.355,1.143,0.719,0.123
				c0.294-0.062,0.172,0.661,0.294,0.78c0.368,0.359,0.547,0.482,0.368,1.025c-0.123,0.237-0.245,0.359-0.18,0.964
				c0.18,0.359,0.907,0.237,0.658,0.776c-0.057,0.184-0.176,0.425-0.115,0.604c0.298,0.123,0.421,0.425,0.662,0.604
				c0.233-0.302-0.126-0.662-0.126-0.964c0.184-0.417-0.057-0.845-0.171-1.266c-0.306-0.114-0.065-0.42-0.065-0.657
				c0-0.062,0.065,0,0.065,0c-0.126,0.543,0.841,0.6,0.355,1.139c0.176,0.604,0.547,1.086,0.425,1.748
				c0.176,0.241,0.298-0.062,0.421-0.18c0.237-0.302,0.478-0.784,0.302-1.148c-0.18,0-0.302-0.241-0.425-0.241
				c0.057-0.417-0.298-0.596-0.298-0.959c0.123-0.062,0.237-0.062,0.298-0.184c0.057-0.719-0.845-0.837-0.964-1.502
				c0-0.478-0.539-0.662-0.662-1.086c0.241-0.18,0.902,0.065,0.662-0.482c-0.608-0.601-1.331-1.201-1.568-2.042
				c0-0.061-0.18-0.482,0-0.604c0.188,0,0.359-0.057,0.359-0.298c0-0.486-0.478-0.788-0.833-1.025
				c-0.367-0.482-0.367-1.021-0.604-1.507c0.237-0.539,0.425-1.14,0.662-1.744c-0.057-0.123-0.662-0.963,0.654-0.547
				c0.122,0.065,0.604-0.18,0.669-0.478c0.363,0.184,0.298,1.629,0.662,1.564c0.241-0.057,0.184-0.482,0.547-0.237
				c0,0,0,1.021,0.662,1.683c0,0.425-0.188,0.902,0.053,1.323c0,0,0.245,0.302,0.543-0.119c-0.053,1.748,0.429,1.928,0.486,1.989
				c-0.241,0.421-1.27,2.103-0.126,2.222c0.245,0,0-0.78,0.298-1.021c0.131-0.118,0.547,0.241,0.608,1.082
				c0.057,0.666-1.266,1.45-0.42,2.291c0.061-0.123,0.123-0.18,0.18-0.298c0.18,0.175,0.298,0.6,0.241,0.837
				c-0.608,0.245-0.478,0.964-0.478,1.45c-0.184,0.478-0.968,0.543-0.841,1.144c0.053,0.6-0.731,0.658-0.911,1.082
				c0,0.057-1.205,6.861-2.107,7.583c-0.302,0.241-1.143,1.989-1.923,2.826c-0.176,0.184-0.42,0-0.6,0.123
				c0.061,0.184,0.061,0.363,0.061,0.486c-0.118,0.294-0.727,1.446-1.086,1.56c-0.122,0.306-0.302,0.604-0.481,0.906
				c-0.18,0.359-1.266,1.687-1.266,2.467c-0.057,1.503,0.18,1.384,0.18,1.384c0.363-0.175,0.298-0.719,0.363-1.082
				c0.723-0.784,1.38-1.691,2.173-2.348c0.057-0.123,0.171-0.306,0.237-0.421c0.42-0.302,0.482-1.748,0.604-2.107
				c0.058,0.114,0.237,0,0.421,0c-0.062,0.604,0.294,1.201,0,1.748c-0.184-0.062-0.363-0.062-0.482,0.057
				c0.061,0.123,0.298,0.18,0.184,0.359c-0.123,0.188-0.306,0.363-0.372,0.543c0.127,0.363,0.249-0.062,0.421-0.062
				c0.367,0.18,0.543-0.359,0.906-0.061c0.359-0.535,1.086-0.898,1.201-1.499c0.429-0.364,0.429-0.907,0.67-1.332
				c0.057,0,0.057-0.057,0.114-0.114c0.421-0.363,0.67-0.907,1.266-1.025c0.065-0.062,0.118-0.18,0.118-0.241
				c-0.294-0.241-0.539,0.241-0.845,0.241c0.245-0.841,0.792-1.622,0.845-2.528c0.311-0.666,0.85-1.021,1.507-1.266
				c0.123-0.123,0.18-0.245,0.123-0.478c-0.298,0.355-0.719,0.355-1.082,0.6c-0.114-1.086,1.923-2.953,1.923-3.675
				c-0.057-0.057-0.114-0.057-0.18-0.057c-0.429,0.359-0.429,1.139-0.959,1.262c0.355-2.283,0.723-3.189,0.723-3.189
				c0-0.057-0.065-0.123-0.131-0.18c-0.417-0.184-0.771,3.071-0.902,3.006c-0.535-0.237-0.11-1.14-0.474-1.56
				c-0.114,0-0.184,0.123-0.184,0.18c0,0-0.241,0.6,0.245,1.621c-0.175,1.09-0.486,2.291-0.727,3.312l-0.114,0.123
				c-0.062-0.363-0.123-0.784-0.307-1.144c-0.061-0.359,0.062-0.727-0.114-0.964c-0.482,0.425-0.123,1.144,0,1.625
				c0.053,0.964-0.061,1.805-0.425,2.585c-0.123,0.184,0.053,0.363,0,0.547c-0.18,0.359-0.363,0.78-0.604,1.082
				c-0.723-0.662,0.061-2.348,0.061-2.524c0-0.49-0.429-0.306-0.482-0.727c-0.065-0.302,0.482-0.421,0.298-0.784
				c0.065-0.241,0.482-0.482,0.363-0.784c-0.298-0.898,0.666-1.862,0.666-2.646c-0.069-0.302,0.421,0.18,0.482-0.18
				c0.062-0.482-0.245-1.083,0.114-1.446c0.127-0.425-0.175-0.841,0.127-1.201c0.175-0.245,0.486-0.306,0.661-0.123
				c0.184,0.237,0,0.78,0.359,0.662c0.241-0.18,0.115-1.323,0.184-1.384c0-0.062,0.237-0.302,0.662-0.302
				c0.11,0,0.175,0.482,0.6,0.543c0.417,0.245,1.025,0.298,1.025,0.482c0.057,0.421-0.784,0.719-0.306,1.086
				c0.065,0.057,0.543-0.065,0.543,0.237c0.062,0.425-0.478,0.658-0.359,1.144c0.062,0.662-0.661,0.78-0.902,1.266
				c-0.057,0.18,0.176,0.298,0.363,0.298c0.119,0.061,0.237-0.057,0.294,0.126c0.061,0.294-0.057,0.596-0.176,0.841
				c-0.184,0.119-0.539,0.18-0.539,0.359c-0.065,0.723-0.368,1.384-0.85,1.805c-0.061,0-1.074,0.18-0.657,0.727
				c0.171,0.176,0.596-0.306,0.657,0.053c-1.196,2.107-1.56,2.65-1.56,2.65c-0.368,0.604-1.27,0.302-1.27,1.147
				C43.998,35.972,44.242,36.213,44.063,36.392L44.063,36.392z M44.12,38.071c0.355,0.67,0.425,1.266,0.425,1.266
				c0,0.123,0,0.245,0,0.368c0,0.18-0.547,0.18-0.547,0.18c0-0.18,0.298-0.302,0.065-0.425c-0.184,0-0.424,0.302-0.482,0.184
				c-0.122-0.184,0.298-0.241,0.184-0.486c-0.065-0.118-0.907,0.604-0.972,0.425c-0.053-0.302,0.972-0.719,0.788-0.902
				c-0.18-0.241-0.911,0.539-1.082,0.539h-0.065C42.311,39.096,42.858,38.259,44.12,38.071L44.12,38.071z M45.753,39.941
				c0,0.363-2.353,1.266-2.353,1.266c-0.13,0.061,0,0.122-0.13,0.302c0,0.119,0.188,0.119,0.245,0.241
				c0,0.118-0.298,0.118-0.176,0.298c0.298,0.241-0.123,0.421-0.245,0.359c-0.123-0.053-0.425-0.898-0.547-1.021
				c-0.049-0.058-0.115-0.18-0.115-0.237c-0.057-0.122-0.057-0.188,0.065-0.245c0.474-0.062,0.96-0.123,1.438-0.123
				C44.063,40.423,45.32,39.941,45.753,39.941L45.753,39.941z M35.813,43.192c0.065-0.482,2.287-0.964,2.528-1.086
				c0.543-0.294,0.78-0.597,0.968-0.956c0.298-0.547,0.237-1.025,0.364-1.208c0.298-0.425,0.951-1.021,2.046-1.262
				c0.118-0.062,0.657-0.241,0.294,0.417c-0.241,0.306-0.294,0.727-0.425,1.082c0,0.184,0.249,0.547,0.486,1.029
				c0.057,0.122,0.176,0.237,0.237,0.359c0.188,0.359,0.359,0.788,0.359,1.078c-0.237,0.31-3.728,2.536-4.569,2.654
				c-0.662,0.123-1.319,0-2.111-0.119c-0.11-0.42-0.233-0.845-0.233-0.845C35.687,43.915,35.687,43.494,35.813,43.192L35.813,43.192
				z M34.425,44.335c0.126-0.237,0.486-0.42,0.727-0.42c0.119,0,0.176,0.184,0.245,0.42c0,0.302,0,0.666-0.126,0.784
				c-0.176,0-0.359-0.062-0.539-0.119c0,0,0.114-0.486-0.363-0.302C34.368,44.576,34.368,44.458,34.425,44.335L34.425,44.335z
				 M46.403,39.823c0,0,0.126-0.42,0.972,0.062c0.057,0.18,0.176,0.662,0.359,1.266c0,0,0.417,1.38,0.964,3.251
				c0.118,0.474-0.123,0.719-0.306,1.021c-1.209,1.078-6.081,3.969-6.673,4.337c-0.788,0.539-2.111,0.837-3.618,0.898
				c-3.79,0.18-8.85-0.723-9.634-1.323c0.968-1.327,0.662-2.528,0.604-2.769c-0.478-0.727-1.025-1.989-1.205-2.164l0.114-0.126
				c7.232,1.507,10.001,1.625,10.12,1.507c1.021-0.057,6.019-3.251,7.943-4.631c0.723-0.481,1.139-0.906,1.025-1.151
				C46.889,39.761,46.652,39.823,46.403,39.823L46.403,39.823z M34.552,52.339c0.123,0.184,0.359,0.604,0.6,1.025
				c0.245,0.42,0.535,0.845,0.727,0.906c0.18-0.184-0.363-0.543,0.11-0.723c0.604-0.123,0.669,1.564,2.234,1.021
				c0.359,0.425,1.2,0.237,1.682,0.368c0,0.057-0.061,0.237-0.123,0.237c-1.082-0.119-2.409-0.062-3.369,0.6
				c-0.176,0.123,0,0.42-0.176,0.543c-0.249-0.302,0-0.661,0.176-0.963c0.118-0.241,0.78-0.119,0.417-0.482
				c0,0-0.298-0.241-1.197,0.902c-0.118-0.118-0.118-0.42-0.306-0.539c-0.776,0.18-1.017-0.788-1.687-0.902
				c-0.176-0.123,0.123-0.245,0-0.425c-0.355-0.241-0.723-0.425-1.135-0.543c-1.209-0.364-0.241-0.903-0.67-1.083
				c-2.107-0.662-1.923-1.201-1.923-1.201c0.123-0.363,0.425,0.123,0.608-0.122c-0.065-0.123-0.245-0.18-0.184-0.364
				c0.302-0.18,0.959,0.608,1.082,0.543c0.241-0.18-0.188-0.421,0.119-0.421c0.666-0.123,2.291,1.805,2.711,1.923
				c0.119-0.118-0.061-0.18-0.061-0.302C34.25,52.282,34.425,52.282,34.552,52.339L34.552,52.339z M27.801,48.913
				c-0.417-0.543,0.368-1.931-0.241-1.931c-0.176,0.065,0,0.306,0,0.49c-0.241,0.601-0.241,1.315-0.776,1.74
				c-0.127,0-0.127-0.119-0.065-0.245c0.184-0.539,0.42-1.078,0.363-1.678c-0.057,0-0.298-0.241-0.298,0.42
				c0,0.482-0.486,0.837-0.543,1.323c0,0.18-0.363,0.359-0.604,0.359c0-0.653,0.425-1.144,0.425-1.801
				c0.237-0.364,0.298,0.175,0.298,0.175c0.118-0.175,0.188-2.344-0.658-2.765c-0.126,0.119,0.539,1.14,0.237,1.923h-0.237
				c-0.184-1.384-0.608-2.164-0.968-2.523c-0.719-0.792-1.499-0.425-1.744-0.486c0.123-0.241,0.42-0.421,0.666-0.482
				c0.298-0.057,0.658,0.061,1.078,0.241c0.547,0.18,1.029,0.547,1.27,0.601c0.057-0.053,0.11-0.176,0.057-0.298
				c-0.123-0.061-0.184-0.18-0.123-0.302c0.846-0.482,3.075,3.193,2.655,4.398C28.406,48.489,28.23,48.848,27.801,48.913
				L27.801,48.913z M3.188,42.645c0,0-0.057,0.065-0.057,0.13c-0.363,0.474-0.608,0.535-0.915,0.294l-0.119-0.057l0.241-0.367
				l0.245-0.417c0.057-0.122,0.298-0.417,0.298-0.478c0.062,0,0.184,0.061,0.249,0.061C3.364,41.987,3.364,42.289,3.188,42.645
				L3.188,42.645z M24.734,49.268c-1.69,0.18-11.014,1.748-11.916,1.871c-1.086,0.18-2.046,0.065-2.655-0.245
				c-0.714-0.298-8.425-4.574-9.208-6.077c-0.119-0.241-0.241-0.596-0.241-0.596l0.123,0.237l0.482,0.359l0.123-0.18
				c-0.359-0.18-0.245-0.417,0.057-0.784l0.482-0.604c0.118,0.062,0.057,0.359,0.057,0.666l-0.18,1.266l0.666,0.421l0.119-0.18
				c-0.119-0.065-0.119-0.123-0.119-0.302l0.119-1.625c0.363,0.114,0.723,0,1.025-0.425c0.114-0.114,0.184-0.294,0.184-0.424
				c0.057-0.176,0.057-0.355,0-0.474c-0.126-0.184-0.363-0.359-0.486-0.482l-0.543-0.359l-0.535-0.367L2.16,41.15
				c0.302,0.18,0.18,0.417-0.062,0.776l-0.481,0.719l-0.601,0.849c-0.118,0.18-0.241,0.302-0.302,0.421c0,0,0,0.061,0,0.118
				c-0.057-0.237-0.057-0.425,0.062-0.539c0.6-1.086,0.841-2.344,1.147-3.496c0.114-0.294,0.363-0.237,0.482-0.294
				c-0.119,0.118-0.119,0.294-0.065,0.474c0.123,0.184,1.568,1.151,3.312,2.177c2.83,1.744,6.383,3.786,6.505,3.671
				c0.482,0,3.063-0.486,5.717-0.906c2.65-0.421,5.48-0.845,6.142-0.784c0.237,0,0.482,0.363,0.719,0.845
				c0.417,1.021,0.784,2.585,0.902,3.189C25.519,49.391,24.734,49.268,24.734,49.268L24.734,49.268z M17.265,53.728
				c-0.053,0-0.053,0.123-0.114,0.18c-0.18,0.363-0.669,0.964-1.086,1.086c-0.42,0.061-0.661-0.302-0.719,0
				c-0.061,0.359,0.417,0.118,0.543,0.42c0.237,0.662-0.368,1.025-0.543,1.082c0.123-1.323-1.139-1.441-1.564-1.502
				c0,0-1.143,0.359-1.025-0.057c0-0.425,1.025-0.666,1.683-1.029c0.065-0.057,0.126-0.057,0.188-0.123
				c0.359-0.964,1.437-1.262,2.217-1.617c0.306,0.114,0.845,0.474,1.441-0.363c-0.229-0.306,0.126-0.425,0.245-0.425
				c0.188,0-0.057,0.18,0,0.298c0.363,0,0.486-0.359,0.788-0.359c0.18-0.058,0.123,0.122,0.18,0.18c0.123,0.122,0.237-0.058,0.359,0
				C20.038,51.559,18.36,53.311,17.265,53.728L17.265,53.728z M4.332,39.941c0.294,0.237,0.78,0.482,1.376,0.662
				c0.363,0.065,0.784,0.18,1.27,0.18c-0.119,0.367-0.539,1.388-0.666,1.572c-0.241-0.065-0.478-0.184-0.662-0.307
				c-0.18-0.18-0.364-0.298-0.604-0.481c-0.114-0.058,0.241-0.298,0-0.474c0-0.065,0.126-0.13,0.126-0.13
				c0.421,0.188,0.421-0.119,0.298-0.18c-0.719-0.359-1.38-0.658-2.107-1.078C3.667,39.761,4.022,39.884,4.332,39.941L4.332,39.941z
				 M5.41,38.013c0.062,0,0.184,0.057,0.298,0.123c0.31,0.123,0.543,0.302,0.784,0.543c-0.053,0.184-0.298-0.184-0.474,0
				c-0.13,0.118,0.715,0.539,0.592,0.837c-0.057,0.065-0.478-0.478-0.539-0.298c-0.184,0.298-0.114,0.486-0.298,0.78
				c0,0-0.065,0-0.123,0c-0.241,0-0.478,0-0.837-0.114C4.814,39.28,5.112,38.495,5.41,38.013L5.41,38.013z M14.987,43.915
				c0.184,0.061,0.535,0.241,0.776,0.42c0.245,0.241,0.486,0.425,0.424,0.482c0.062,0.118-1.2,0.425-1.621,0.482
				c0.123-0.298,0.233-0.601,0.298-0.964C14.925,44.221,14.925,44.098,14.987,43.915L14.987,43.915z M13.655,41.926
				c-0.237-0.115-0.355-0.237-0.657-0.417c0.126-0.241-0.058-0.359-0.18-0.359c-0.062,0.237-0.298,0.359-0.49,0.417
				c-0.11,0-0.355,0-0.417-0.123c0.188,0,0.368-0.057,0.417-0.237c0-0.18,0-0.364-0.11-0.425c-0.245,0.061-0.118,0.486-0.486,0.547
				c-1.025-0.424-2.405-2.589-2.593-2.952c-0.29-0.307-0.535-0.062-0.837-0.184c-0.241-0.057-2.23-2.164-2.708-2.703
				c-4.031-4.271-4.096-6.203-4.153-8.192c0-0.601-0.123-1.201-0.123-1.805c0-0.18,0-0.359,0.057-0.543
				c0.188-0.355,0.723,0.363,0.911,0.543c0.96,1.144,2.168,4.035,2.581,5.48c0.065,0.18,0.126,0.417,0.18,0.6
				c0.126,0.547,0.241,1.021,0.363,1.507c-0.298-0.184-0.417-0.604-0.596-0.906c-0.061-0.18-0.188-0.053-0.306-0.053
				c-0.123-0.188-0.237-0.368-0.302-0.547c-1.017-1.805-1.683-3.736-2.168-5.717l-0.18-0.118c-0.241,0,0.123,1.621,0.841,3.369
				c-0.176,0-0.294-0.245-0.482-0.119c-0.057,0.658,1.45,1.985,1.633,2.646c0,0.057,0,0.118,0,0.18
				c0.903,1.205,1.56,2.532,2.283,3.793c0.241,0.421,0.727,0.658,0.906,1.083c0.119,0.123,0.355,0.061,0.417,0.302
				c0.249,0.359,0.359,0.719,0.78,0.898c0.306,0.065,0.367,0.123,0.425-0.114c0-0.245-0.18-0.425-0.18-0.727
				c0.122,0.302,0.367,0.42,0.604,0.543l0.539-0.18c0.18,0.298-0.123,0.6-0.123,0.902c0.486,0.604,1.691,2.353,1.932,2.046
				c0.364-0.478,0.601,0.543,0.846,0c0.118-0.237-0.062-0.478-0.245-0.539c-0.788,0.241-0.788-0.784-1.144-1.143
				c-0.42-0.789-0.486-1.744-1.144-2.414c-0.662-0.898-1.086-1.862-1.866-2.585c-0.118-0.119,0-0.421,0.18-0.482
				c0.421,0.061,0.241,0.841,0.723,0.841c0.241,0,0.123-0.662,0.425-0.78c-0.123,0.841,0.658,2.712,1.797,3.374
				c0.123,0.118,0.302,0.302,0.241,0.474c-0.053,0.13-0.176-0.057-0.241,0c-0.114,0.306,0.302,0.363,0.302,0.547
				c0,1.323,3.557,5.178,6.265,5.656c0.065,0.123,0.184,0.184,0.302,0.245c0.237,0.118,0.657,0.118,0.539,0.6
				c0.119,0.065,0.307,0.18,0.307,0.359c-0.359,0.123-0.608,0.123-0.845,0.061c-0.359,0-0.662-0.118-0.846-0.241
				C16.673,44.221,13.966,41.987,13.655,41.926L13.655,41.926z M5.288,30.732c0.123,0.062,0.421,0.421,0.67,0.903
				c0.114,0.245,0.237,0.539,0.355,0.784L6.251,33.26H6.133c-0.176-0.543-0.359-1.086-0.539-1.625
				C5.529,31.333,5.41,31.034,5.288,30.732L5.288,30.732z M4.753,18.996c-0.062,0.539,0.061,1.139-0.245,1.687
				c-0.237,0.417,0.053,1.013-0.363,1.38c0.061-0.846,0.188-2.168,0.363-3.067c0,0,0.118-0.486,1.021-3.075
				c0.429,0.662-0.241,2.287-0.535,2.41C4.867,18.51,4.814,18.755,4.753,18.996L4.753,18.996z M4.091,24.888
				c-0.547,0.188-0.845-0.959-0.845-0.959c-1.148-3.794-1.323-8.556,0.845-11.978c0.053-0.065,1.082-2.41,1.98-3.251
				c0.123,0,0.123,0.115,0.18,0.241c0.123,0.841-0.294,2.765-0.363,3.01c-0.237,1.139-1.434,5.901-1.797,7.044
				c-0.119,0.539-0.241,1.021-0.311,1.564c-0.237-0.245,0-0.604,0-0.902c-0.175-1.629,1.213-6.865,1.45-7.706
				c0.298-0.727,0.543-1.446,0.658-2.287l-0.18,0.18c-0.18,0.723-0.478,1.442-0.715,2.165c-0.849,2.409-1.748,4.876-1.629,7.649
				c-0.359,1.441-0.298,3.067,0.18,4.39c1.147,1.086,0.662-0.662,0.841-1.262c0.069-0.482,0.482-0.902,0.368-1.45
				c0.061-0.776,0.241-1.441,0.6-2.103c-0.123-0.062-0.18-0.119-0.241-0.237c0-0.127,0-0.302,0.061-0.486
				c0.535-0.302,0.784-1.985,1.14-1.985c0-0.184,0.126-0.364,0-0.539c-0.18,0.057-0.425,0.175-0.478-0.123
				c0.184-0.662,0.053-1.446,0.658-1.87c0,0,0-0.355,0.845-1.323c0,0.482-1.319,2.05-1.086,2.769
				c0.062,0.123,0.188,0.065,0.302,0.065c0.245-0.131,0.245-0.666,0.604-0.604c0,0.364-0.784,0.723-0.119,0.964
				c1.021-0.6,1.262-1.625,1.262-1.625c0.241-1.021,0.723-1.625,1.2-2.287c1.27-2.046,2.716-3.136,3.798-3.794
				c0.18-0.184,0.421-0.123,0.421,0.119c0,0.123-0.184,0.666-0.421,0.302c-0.78,0.6-2.172,2.466-2.83,3.373
				c0,0-0.364,0.18-2.234,3.25c-0.298,0.482-0.715,1.021-1.258,1.201c-0.062-0.062-0.18-0.18-0.245-0.062
				c-0.057,0.119-0.898,2.353-1.503,4.513c-0.298,1.086-0.539,2.172-0.604,2.953c0,0.241-0.065,0.482,0.127,0.666
				c0.657-0.425,0.776-1.144,1.135-1.748c0.069-0.057,0.184,0,0.184,0.061c-0.298,0.662-0.363,2.103-1.319,1.985
				c0,0.118-0.062,0.363-0.062,0.723c0,0.662,0.062,1.503,0.482,2.107c0.114,0.122,0.662,2.834,1.319,3.553
				c0.118,0.18,0.061,0.302,0,0.359c0,0-0.053,0.123-0.119,0.18c-0.123-0.119-0.18-0.18-0.241-0.302
				c-0.359-0.482-0.604-1.082-0.846-1.683c0-0.18,0.184-0.245,0.123-0.359c-0.237-0.18-0.417-0.302-0.478-0.486
				c-0.065-0.241,0.42-0.176,0.298-0.421c-0.184-0.294-0.776,0-0.723-0.42c0.053-0.902-0.176-1.687-0.363-2.528
				C4.145,25.313,4.091,25.076,4.091,24.888L4.091,24.888z M9.625,5.744c0.78-1.021,1.503-1.617,1.989-1.927
				c0,0,0.421-0.237,0.666-0.294c0,0.057,0,0.18,0,0.294c-0.062,0.612-0.245,1.27-0.547,1.927c-0.902,2.291-2.708,4.938-3.794,6.265
				c-0.175,0.241-0.359,0.42-0.482,0.539c0-0.176,0.065-0.359,0.123-0.539c0.429-1.503,2.111-4.459,3.312-6.265
				c0.18-0.294,0.417-0.596,0.596-0.841c0.245-0.42,0.67-0.898,0.425-0.956c-0.241,0.057-0.478,0.417-0.604,0.662
				c-0.237,0.294-0.6,0.719-0.902,1.135c-1.197,1.871-2.642,4.823-3.247,6.208c-0.119,0.298-0.18,0.539-0.241,0.662
				c-0.184,0.237-0.241,0.478-0.424,0.662c0.118-0.425,0.241-0.903,0.367-1.323C7.705,8.995,8.726,7.014,9.625,5.744L9.625,5.744z
				 M14.439,3.817c2.65-2.585,6.326-3.308,6.501-3.243v0.114c-0.902,1.029-1.858,1.989-3.009,2.655
				c-0.176,0.118-0.486,0.359-0.719,0.474c-0.731,0.486-1.867,0.972-2.111,1.086c-0.053,0-0.114,0-0.114-0.114
				c0-0.065,0.535-0.486,1.2-0.972c1.025-0.719,3.737-2.344,3.851-2.704c-1.507,0.723-2.948,1.683-4.329,2.704
				c-0.306,0.245-0.662,0.486-0.968,0.731c0-0.065-0.053-0.119-0.114-0.184c-0.188,0-0.907,0.784-1.389,1.38
				c-0.184,0.245-0.363,0.425-0.482,0.543c0-0.18,0.119-0.364,0.241-0.543C12.998,5.687,13.537,4.548,14.439,3.817L14.439,3.817z
				 M12.573,6.896c0.065-0.245,0.482-0.727,0.964-1.152c0.543-0.478,0.968-0.719,1.09-0.657c0,0.18-0.123,0.363-0.486,0.657
				c-0.298,0.307-0.723,0.604-0.902,0.666C13.178,6.708,12.639,7.075,12.573,6.896L12.573,6.896z M13.055,7.794
				c-0.057,0.065-1.144,0.841-1.144,0.662C11.912,8.219,13.418,7.19,13.055,7.794L13.055,7.794z M11.732,8.578
				c-0.96,0.841-1.985,2.229-2.826,3.43c0,0-0.788,1.144-1.327,2.107c0,0-0.057,0-0.184-0.18c0.061-0.18,0.543-0.963,1.208-1.984
				c1.144-1.691,2.769-3.917,3.067-4.459c0.184-0.123,0.429-0.18,0.547-0.237c-0.184,0.482-0.547,0.78-0.845,1.201
				C11.556,8.517,11.613,8.517,11.732,8.578L11.732,8.578z M22.027,2.616c-0.184,0.425-0.964,1.151-1.147,1.201
				c-0.658,0.612-1.928,1.396-2.948,1.993c-0.78,0.421-1.507,0.78-1.683,0.841c-0.123,0.057-0.78-0.18,0.233-0.784
				c0.073-0.057,0.122-0.057,0.253-0.123c0.662-0.294,2.103-1.196,3.247-1.927c0.662-0.355,1.201-0.719,1.564-0.898
				c0,0,0-0.123-0.061-0.123c-0.482,0.188-1.262,0.547-2.103,1.021c-1.095,0.547-2.291,1.27-3.374,1.927
				c-0.959,0.604-1.748,1.152-2.226,1.511c-0.061,0.057-0.126,0.114-0.184,0.114c-0.061,0.123-0.298,0.18-0.42,0.065
				c0.122-0.245,0.42-0.306,0.604-0.482c0.298-0.363,0.784-0.784,1.319-1.144c0.963-0.784,2.164-1.507,3.071-1.993
				C18.719,3.523,21.843,2.077,22.027,2.616L22.027,2.616z M14.26,7.672c0-0.123,0.061-0.237,0.118-0.359
				c0.364-0.539,1.144-0.964,1.025-0.359c-0.058,0.123-0.184,0.237-0.355,0.302C14.742,7.492,14.378,7.672,14.26,7.672L14.26,7.672z
				 M11.854,22.846h0.057l5.301,2.165l1.739,0.666c0.065,0,0.131,0.119,0.065,0.241l-1.805,2.944l-2.165,3.557
				c0,0.058,0,0.058-0.123,0c-1.507-2.111-2.528-4.455-2.891-6.926C11.912,24.652,11.854,23.753,11.854,22.846L11.854,22.846z
				 M8.367,32.055c0.053-0.123,0.176-0.302,0.237-0.42c0.123-0.123,0.18-0.245,0.359-0.364c-0.057,0.119-0.057,0.241-0.057,0.364
				c-0.057,0.42-0.18,0.784-0.245,1.262C8.481,33.137,8.183,32.419,8.367,32.055L8.367,32.055z M7.881,31.635
				c0,0,0.057-0.482,0.18-1.086l0.601-1.319c0.898,0.118-0.294,2.103-0.478,2.405c-0.123,0.18-0.245,0.298-0.302,0.298
				C7.815,31.933,7.815,31.815,7.881,31.635L7.881,31.635z M6.86,31.635c0.241-1.144,0.662-2.226,0.956-2.646
				c-0.11-0.482,0.846-2.111,1.27-2.471l0.053,0.062c0.126,1.927-1.323,3.189-1.617,4.933c0,0.061,0,0.061,0,0.123
				c-0.184,1.025-0.662,2.107-0.306,3.132C7.338,35,7.815,35,8.118,34.64c0.364,0.547,0.184,1.332,0.302,1.932l-0.053,0.062
				c-0.359,0.057-0.359-1.144-0.486-1.266c-0.118,0-0.176,0.241-0.543-0.057C6.554,34.583,6.554,33.019,6.86,31.635L6.86,31.635z
				 M7.456,28.204c0,0.237-0.061,0.539-0.241,0.539c-0.114,0.057-0.298-0.057-0.298-0.18C6.733,28.082,7.395,28.147,7.456,28.204
				L7.456,28.204z M8.302,20.854l-0.184,1.029l-1.201,0.298v2.589c0,0-0.363-0.119-0.666-0.176c-0.18-0.841-0.057-1.327-0.057-1.327
				c0.119-0.543,0.604-1.144,1.201-1.629c0.184-0.119,0.42-0.421,0.612-0.784c0.11-0.171,0.229-0.355,0.359-0.539L8.302,20.854
				L8.302,20.854z M11.193,12.066c-0.302,0.604-0.907,1.209-1.446,1.389c0.417-0.662,1.025-1.446,1.025-1.446
				c0.715-0.964,1.683-2.226,2.226-2.949l0.18-0.118C13.418,9.481,12.397,11.347,11.193,12.066L11.193,12.066z M12.818,11.951
				l-0.364,0.359c-0.057-0.062-0.057-0.18-0.057-0.302c0.123-0.363,0.78-0.907,0.902-1.086l0.18,0.486L12.818,11.951L12.818,11.951z
				 M6.439,20.797c0.114-2.944,4.807-8.425,5.595-8.486c0.784,0-1.687,5.235-3.251,6.62c-0.481,0.666-1.143,1.27-1.625,1.923
				c-0.057,0.188-0.18,0.429-0.241,0.604c-0.057,0.061-0.118,0.123-0.241,0.123c0-0.18,0.057-0.417,0.241-0.727
				c0.788-1.923,3.79-6.015,4.753-7.579c0,0,0.127-0.245-0.114-0.184c0,0-2.054,1.871-4.88,7.763L6.251,21.76l-0.118,0.123
				C6.194,21.519,6.194,21.099,6.439,20.797L6.439,20.797z M5.594,20.854c0.424-2.344,1.507-4.206,2.046-4.394
				c0.065,0.363-0.302,0.727-0.539,1.029c-0.425,1.082-0.788,2.226-1.144,3.365c-0.123,0.604-0.306,1.209-0.429,1.813l-0.057-0.062
				C5.472,22.006,5.529,21.401,5.594,20.854L5.594,20.854z M5.353,25.615c0.241,0.061,0.298,0,0.355-0.123
				c0.065-0.123,0.126-0.302,0.18-0.359c0.551,0,1.27-0.057,1.568,0.302c0,0.057,0,0.057,0,0.057
				c0.184,0.539,0.184,1.025,0.307,1.503c0.118,0.604-1.323,0.784-1.389,1.208c0.065,0.658,0.486,1.258,0.237,1.985
				c-0.171-0.662-0.723-1.389-0.776-2.168C5.23,26.816,5.288,26.032,5.353,25.615L5.353,25.615z M10.891,25.493
				c0.065-0.482,0.065-0.784,0-0.964l-0.061-0.118c-0.058,0.061-0.18,0.478-0.241,1.082c-0.241,1.989-0.425,6.02-0.241,8.126
				c0,0.298,0.057,1.266-0.062,1.266h-0.18c-0.302-0.359-0.061-0.845-0.18-1.323c-0.18-0.604-0.302-1.266-0.425-1.927
				c0-0.123,0-0.245,0-0.364c-0.539-0.837-0.118-3.855,0.486-5.778c0.298-1.021,0.6-1.74,0.841-1.687
				c0.363,0.061,0.604,0.788,0.727,1.687c0.176,1.568,0,3.794-0.363,4.276c-0.065,0.723-0.123,1.502-0.237,2.226
				c0,0.241,0.171,0.482-0.184,0.482c-0.122,0-0.065-0.302,0-0.421C10.286,31.512,10.772,27.416,10.891,25.493L10.891,25.493z
				 M21.361,43.915c0.065,0.061-0.057,0.184-0.18,0.241c0,0-0.18,0.065-1.258-0.18c-0.543-0.123-1.327-0.845-1.638-0.727
				c-0.114,0-0.229-0.057-0.412-0.118c-0.723-0.241-1.748-1.025-1.985-1.205c-0.126-0.058,0.298-0.833,1.376-0.658
				c0.25,0.061,0.609,0.176,0.609,0.176C18.719,41.75,20.406,42.53,21.361,43.915L21.361,43.915z M34.127,40.489
				c-0.543,0-2.589,0.841-3.851,1.438c-0.547,0.18-0.902,0.363-1.025,0.429c-0.723,0.29-0.784,0.837-1.323,1.319
				c-0.482,0.062-0.845,0.123-1.208-0.241c-0.294-0.478-1.262-0.241-1.38-0.184c-0.245,0.184-0.425,0.062-0.604,0
				c-0.18-0.118-0.359-0.237-0.6-0.237c-0.543,0.057-1.205,0.057-1.568,0.543c-0.237,0.18-0.959,0.241-1.384-0.486
				c-0.776-1.021-2.287-1.74-3.308-2.042c-0.429-0.184-0.784-0.245-0.903-0.302c-0.368-0.057-0.964-0.057-1.568,1.025
				c-3.186-1.809-3.492-4.7-3.492-4.7c-0.719-1.442-0.784-1.56-0.784-1.56l1.27-0.49l1.082,1.086l-0.481,1.151l2.47,1.801
				l1.013-0.78l1.331,0.662l-0.057,1.258l2.948,0.972l0.658-1.086l1.511,0.241l0.302,1.262h3.124l0.298-1.262l1.515-0.241
				l0.657,1.086l2.949-0.972l-0.057-1.258l1.323-0.662l1.021,0.78l2.471-1.801l-0.486-1.151L37.08,35l1.021,0.368
				c0,0,0.241,0.123-0.907,1.384c0,0-0.478,2.467-2.401,4.578C34.552,41.093,34.486,40.603,34.127,40.489L34.127,40.489z
				 M28.528,43.796c0-0.363,0.359-0.727,0.666-0.907c0.294-0.18,1.201-0.6,2.103-0.963c0.907-0.298,2.892-1.503,3.071-0.482
				c0.057,0.184-0.058,0.367-0.18,0.482c-0.062,0-0.062,0-0.123,0c-0.482,0.061-1.021,0.363-1.625,0.245
				c-0.363,0.184-1.862,1.503-2.467,1.625c-0.245,0.119-0.6,0.18-0.486-0.188C29.488,43.249,28.708,43.796,28.528,43.796
				L28.528,43.796z M42.915,23.508c0,0.18,0,0.841-0.367,0.903v-2.046c0,0,0.669,0,0.31,0.539
				C42.858,23.206,42.915,23.508,42.915,23.508L42.915,23.508z M40.449,30.614c0.065-0.359,0-0.784,0.241-1.029
				c0-0.123,0-0.175-0.118-0.237c-0.18,0.062-0.368,0.723-0.421,0.841c-0.306-0.359-0.061-1.021-0.306-1.446
				c0-0.237,0-0.482,0-0.723c0.061-0.959,0.306-1.923-0.298-2.65c0-0.237-0.237-1.258-0.306-1.564
				c-0.118-0.053-0.176,0.061-0.176,0.123c0,0.298,0.245,1.441,0.298,1.748c-0.241-0.118-0.662-0.306-0.902-0.118
				c-0.18-0.245-0.237-0.547-0.237-0.788l-0.123-0.723c0.417-0.241,0.543-0.6,0.898-0.841c0.241,0.062,0.31,0.359,0.674,0.302
				c0.171-0.061,0.359-0.241,0.417,0c0.18,0.421-0.184,0.841-0.119,1.201c0,0.062,0,0.123,0.062,0.18l0.359-0.118
				c0.122,0.118,0.18,0.306,0.057,0.482c-0.18,0.719,0.662,1.445,0.175,1.809c-0.535,0.355-0.298,1.086-0.232,1.266
				c0.42-0.065,0.481-0.669,0.902-0.49c0.176,0.184,0.657,2.172-0.123,2.532c-0.482,0.363-0.298,1.144-0.78,1.564
				C40.269,31.635,40.449,30.732,40.449,30.614L40.449,30.614z M39.607,26.939c0.118,0,0.065,0.604,0,1.082
				c-0.062,0.126-0.062,0.241-0.062,0.306c-0.061,0-0.123-0.123-0.184-0.306C39.362,27.902,39.309,26.877,39.607,26.939
				L39.607,26.939z M37.496,24.709c-0.302,2.65-1.327,5.178-2.944,7.412c-0.065,0-0.065,0-0.126-0.065l-3.97-6.44
				c-0.061,0-0.061-0.123,0.065-0.245l4.574-1.862l2.524-1.025c0,0,0,0.062,0,0.123C37.619,23.328,37.619,24.047,37.496,24.709
				L37.496,24.709z M38.403,27.176c0.057-0.114,0.241-0.114,0.18-0.237c-0.123-0.18-0.065-0.302-0.482-0.421
				c-0.425-0.123-0.307-0.723-0.18-0.841c0.18,0.18,0.42,0.241,0.662,0.18c0.359-0.18,0.6,0.359,0.481,0.539
				c-0.237,0.364,0.119,0.841-0.302,1.086c0,0.176,0.065,0.355,0.065,0.539c0.115,0.363,0.172,0.78-0.184,1.025
				c-0.363-0.245,0.184-0.719-0.241-0.964c0-0.061,0-0.061,0-0.061C38.28,27.722,38.403,27.416,38.403,27.176L38.403,27.176z
				 M39.971,31.39c0.062,0.123,0,0.245,0,0.363c-0.662-0.298-0.486-0.662-1.144-0.662c-0.126,0-0.126,0.127-0.065,0.18
				c0.478,0.184,0.963,0.662,1.082,1.205c-0.119,0.184-0.298,0.298-0.482,0.241c-0.42-0.902-1.209-0.543-1.262-0.837
				c0.053-0.424,0.053-0.906,0.18-1.331c0.123-0.841,1.143-1.262,1.266-1.748c0.237,0.307,0.237,1.568,0.237,1.813
				C39.783,30.908,39.726,31.153,39.971,31.39L39.971,31.39z M43.458,25.856c-0.058,0.176-0.601-0.18-0.911-0.118
				c-0.654,0.478-0.355,1.201-0.298,1.862c-0.298-0.119-0.78-0.364-0.837-0.539c-0.061-0.604,0.119-1.266,0.359-1.691
				c0.241-0.482,1.809,0.368,1.499-1.862c0-0.061,0-0.123,0-0.18c0.069,0.057,0.13,0.119,0.188,0.18
				C43.936,24.17,43.638,25.134,43.458,25.856L43.458,25.856z M15.468,9.24l0.895,0.723l2.168-1.083l-0.057-1.143l1.932-0.662
				L21.063,8.1l2.348-0.429l0.302-1.082h2.05l0.298,1.082L28.406,8.1l0.666-1.025l1.928,0.662L30.938,8.88l2.173,1.083l0.894-0.723
				l1.683,1.201l-0.474,1.086l1.38,1.323c0.188,1.086,0.547,1.87,0.547,1.87s0.355,1.083,1.201,0.964l-0.547,0.478
				c1.148,3.312,2.655,4.219,2.655,4.219l0.302,1.985l1.143,0.302v2.042c0,0-0.6,0.543-0.723,2.05
				c-0.42-1.625-0.482-1.989-0.482-1.989c-0.298-2.589-1.69-2.165-2.229-1.805c-0.057,0.061-0.18,0.18-0.307,0.363
				c0-0.245,0-0.482,0-0.723c0-0.18-0.053-0.302-0.114-0.425c-0.18-0.241-0.478-0.298-0.723-0.175l-3.606,1.502l-3.373,1.38
				c-0.062,0.062-0.18,0.062-0.245,0.188c-0.241,0.237-0.241,0.6-0.057,0.841l3.969,6.501c0.123,0.115,0.306,0.241,0.482,0.241
				c0.188,0,0.359-0.126,0.482-0.241c1.327-1.805,2.226-3.798,2.769-5.901c0,0.119,0.364,0.478,0.302,1.503
				c0.114,0.486,0.478,1.147-0.057,1.809c-0.061,0.123-0.188,0.425-0.188,0.784c-0.118,0.42-0.175,0.959-0.232,1.139
				c-0.123,0.601,1.56,0.907,1.621,1.327l-1.144,1.56l-1.086-0.417l-1.74,1.683l0.474,1.086l-1.683,1.201L33.11,37.47l-2.173,1.082
				l0.062,1.152l-1.928,0.657l-0.666-1.025l-2.344,0.425l-0.298,1.144h-2.05l-0.302-1.144l-2.348-0.425l-0.657,1.025l-1.932-0.657
				l0.057-1.152l-2.168-1.082l-0.895,0.723l-1.625-1.201l0.417-1.086l-1.687-1.683l-1.14,0.417l-0.478-0.723
				c0.351-0.78,1.017-5.591,0.898-6.559c0.543,1.928,1.445,3.732,2.65,5.358c0.061,0.123,0.184,0.18,0.359,0.241
				c0.237,0.062,0.539-0.061,0.657-0.298l1.744-2.83l2.177-3.614c0.057-0.061,0.123-0.184,0.123-0.245
				c0.057-0.355-0.123-0.658-0.425-0.78l-1.927-0.78l-5.178-2.107c-0.18-0.061-0.364,0-0.478,0.123
				c-0.184,0.057-0.249,0.241-0.249,0.42c0,0.298,0,0.601,0,0.841c-0.18-0.302-0.6-0.359-0.902-0.057
				c-0.241,0.298-0.601,1.201-0.956,1.862c-0.241,0.425-0.425,0.784-0.543,0.723l-0.123-0.723l-0.057-0.417L7.579,24.77v-2.046
				l1.147-0.298l0.237-1.572l0.123-0.837l-0.359-0.241c0.298-0.425,3.431-3.671,3.553-6.321l1.502-1.503l0.478-0.425l-0.417-1.086
				L15.468,9.24L15.468,9.24z M36.356,7.435c-0.061-0.123-0.188-0.245-0.298-0.359c-0.18-0.241-0.372-0.547-0.245-0.907
				c0.601-0.302-0.126-1.021,0.294-1.38c1.332-1.208,1.568-0.727,1.568-0.727c0.184,0.367,0.363,0.661,0.478,1.025
				c0.188,0.298,0.674-0.364,0.674-0.364c0.115,0.245,0.237,0.49,0.355,0.784c0.126,0.302,0.662,0.237,0.6,0.662
				c-0.11,0.359-0.474,0.482-0.175,0.784c0.118,0.176,0.175,0.417,0.482,0.359c0.237-0.184,0.061-0.841,0.482-0.662
				c0.053,0.123,0.118,0.302,0.18,0.425c0.18,0.237,0.245,0.474,0.6,0.719c0.486,0.241-0.42,1.021-0.241,1.384
				c0.302,0.42,0.061,1.147-0.237,1.503c-0.359,0.306-0.481-1.017-0.249-1.622c0-0.065,0-0.18-0.11-0.18
				c-0.245,0.18-0.188,0.601-0.363,0.784c-1.029-2.115-1.388-3.193-1.388-3.193C38.46,6.59,38.701,6.953,38.701,7.19
				c-0.662-0.719-1.205-1.503-1.985-2.103c0-0.119-0.057-0.062-0.184-0.062c-0.237,0.062,0.727,1.083,1.389,1.928
				c-0.245-0.057-0.482-0.18-0.727,0c0.123,0.302,0.482,0.123,0.666,0.237c0.723,0.482,1.262,1.266,1.687,1.936v0.294
				c-0.306-0.057-0.604-0.359-0.902-0.18c0.119,0.241,0.42,0.302,0.666,0.359c0.662,0.482,1.083,1.148,1.205,1.867
				c-0.122,0.126-0.245,0.126-0.363,0.126c-0.245-0.368-0.666-0.49-0.727-0.911c-0.241-0.302-0.481-0.658-0.906-0.658
				c-0.176,0.123-0.478,0.302-0.596,0c-0.662-0.425,0-1.266-0.78-1.568C36.781,8.157,36.414,7.917,36.356,7.435L36.356,7.435z
				 M36.896,9.542c-0.363-0.6-1.139-0.841-1.38-1.507c-0.119-0.906-0.723-0.723-1.09-0.78c-0.057-0.065-0.115-0.126-0.176-0.18
				c-0.245-0.302-0.359-0.604-0.608-0.907c0.069-0.245,0.425-0.482,0.302-0.784c-0.539-0.482-0.302-1.984,0.968-1.682
				c0.359,0.065,0.666-0.302,1.025-0.123c0.171,0.188,0.895,0.367-0.057,0.968c-0.123,0-0.245-0.245-0.363-0.065
				c0.061,0.241,0.118,0.486-0.065,0.666c-0.417-0.245-0.719-0.719-1.201-0.845c-0.061,0-0.123,0.126-0.061,0.18
				c0.363,0.42,1.139,0.543,1.139,1.262c-0.114,0.307-0.596-0.11-0.535,0.245c0.119,0.119,0.302,0.062,0.421,0.119
				c0.057,0.363,0.114,0.666,0.184,0.968c0.18,0.359,0.359,0.719,0.772,0.959c0.245,0.601,0.911,0.96,0.911,1.748
				C36.896,9.844,36.953,9.599,36.896,9.542L36.896,9.542z M31.661,3.041c-1.021-0.123-1.932-1.029-2.111-1.144l-0.176,0.359
				c-0.604-0.119-1.928-1.086-1.866-0.6c0,0.298,1.446,0.723,1.866,1.139c0.176-0.057,0.355-0.18,0.539,0.061
				c-0.061,0.241-0.596,0.062-0.363,0.364c0.788-0.057,1.507,0.123,2.229,0.241c0.359,0.119-0.482,0.543-0.482,0.723
				s0.364,0,0.539-0.122c0.67-0.421,0.547,0,0.968-0.115c0.241,0,0.421,0,0.482,0.18c-0.175,0.421,0,0.898-0.061,1.38
				c-0.96-0.057-0.535-0.662-0.841-0.604c-0.359,0.123-0.792,0.184-1.209,0.245c-0.298-0.666-1.017-0.18-1.445-0.6
				c-0.294-0.543,0.486-0.184,0.547-0.364c-0.118-0.723-1.568-0.417-1.809-0.543c-0.237-0.363-0.298-1.025-0.906-1.025
				c-0.176,0-0.359-0.114-0.478-0.298c-0.298-0.306-0.057-1.327,0.478-1.266c0.306,0,0.669,0.666,0.906,0.061
				c0-0.18,0-0.482,0.241-0.539c0.608-0.123,0.78,0.837,1.384,0.596c0.302-0.057,0.302,0.601,0.719,0.486
				c0.188-0.245,0.42-0.364,0.666-0.245c0.359,0.061,0.482,0.486,0.788,0.543c0.241,0.241,0.719,0.184,0.96,0.425
				c0.118,0.057,0.18,0.18,0.118,0.417c0.298,0.368,0.968-0.359,0.907,0.482c-0.42,0.184-0.245,0.604-1.025,0.425
				c-0.67-0.062-1.266-0.846-1.687-1.266C31.297,2.502,31.661,2.918,31.661,3.041L31.661,3.041z M45.386,35.367
				c0.421-0.482,2.348-2.773,2.226-4.035c0.18-0.18,1.687-1.564,1.446-4.214c0.302-0.421,0.535-0.841,0.6-1.323
				c0.302-0.543,0.062-0.964,0-1.568c-0.065-0.359-0.237-0.539-0.535-0.719c-0.364-0.061-1.748-1.682-2.65-0.841
				c1.139-2.287,1.38-3.132,1.38-3.132c0.123-0.78-0.302-1.205-0.478-1.744c0.302-0.85-0.241-2.23-0.486-3.132
				c-0.062-0.123-0.062-0.302-0.062-0.421c-0.714-0.727-0.175-1.748-0.714-2.593c-0.069-0.237-0.972-1.924-1.446-2.406
				c-0.31-0.245-0.669-0.539-0.845-0.902c-0.057-0.478-0.551-0.363-0.907-0.363c-0.784-0.114-1.144-0.784-1.196-0.898
				c-0.846-1.152-2.173-2.593-2.892-3.071c-0.486-0.363-1.151-0.727-2.168-0.841c-1.143-0.727-1.984-0.727-2.172-0.784
				c-0.42-0.184-3.01-2.05-4.999-2.23c-3.247-0.302-3.128,1.748-3.189,2.23c0.903,1.625,1.932,1.805,1.932,1.805
				c0.658,0.119,1.144,0.903,1.805,1.083c0.604,0.241,2.589,1.021,2.83,1.144c0.359,0.118,0.539,0.363,0.657,0.666
				c0.241,0.359,0.421,0.719,0.903,0.662c0,0,0.249,0.057,2.405,2.466c-0.355,0.604-0.115,0.719-0.115,0.719
				s0.364,0.123,0.425,1.507h-0.126l-1.078-1.082l0.478-1.144l-2.471-1.805l-0.96,0.78l-1.393-0.662l0.07-1.262l-2.892-0.968
				l-0.723,1.082l-1.499-0.241l-0.306-1.205h-3.128l-0.306,1.205l-1.503,0.241l-0.662-1.082L17.69,7.255l0.065,1.262l-1.332,0.662
				l-0.956-0.78l-1.45,1.021c0,0,0.241-0.604,0.421-1.021C14.08,8.1,14.566,7.794,14.799,7.794c0.547,0.065,0.964-0.245,1.388-0.482
				c0.176-0.123,2.287-1.025,2.953-1.503c0.425-0.302,0.841-0.596,1.082-0.723c0.658-0.298,1.14-0.723,1.507-1.27
				c0.359-0.417,0.6-0.833,0.894-1.258c0-0.18,0.062-0.364-0.11-0.482c-0.784-0.123-1.45,0.241-2.172,0.302l-0.119-0.123
				c0.359-0.6,1.442-1.683,1.323-1.989c-0.241-0.482-0.78-0.176-1.205-0.119c-3.859,0.658-6.444,3.667-6.444,3.667
				c-0.478,0.486-0.956,0.972-1.078,1.208c-0.062,0.062-0.245,0.188-0.298,0.062c0.176-0.604,0.176-1.025,0.176-1.27
				c0,0,0-0.596-0.176-0.719c-0.302-0.421-1.147,0.123-1.748,0.719c-0.424,0.31-1.445,1.45-1.748,1.927
				c-0.788,1.09-1.503,2.23-1.923,3.496C7.04,9.419,7.04,9.721,6.733,9.783c-0.057-0.421,0-1.083-0.294-1.446
				C6.133,8.035,5.708,8.219,5.41,8.456c-0.417,0.539-1.266,1.69-2.107,3.496c-0.78,1.74-1.629,4.035-1.687,6.917
				c-0.053,3.194,1.809,6.501,1.87,6.624c0.057,0.184,0.119,0.363,0,0.539c-0.123-0.237-0.241-0.355-0.42-0.539
				c0,0-0.85-1.082-1.625-1.503c-0.425,0-0.543,0.237-0.604,0.539c-0.061,0.241-0.123,0.604-0.123,0.964
				c-0.057,2.229,0.543,5.726,1.446,6.681c0.608,1.266,4.394,5.537,5.848,6.378c1.319,0.784,1.858,2.173,2.949,3.198
				c0.29,0.176,1.078,0.657,2.222,0.837c0.241,0.188,1.143,0.245,1.327,1.021c-0.065,0.245-0.127,0.49-0.127,0.727
				c-0.118,0.363-0.237,0.723-0.482,1.086c-1.257,0.302-1.923,0.241-2.65-0.123c-1.083-0.662-2.397-1.446-3.483-2.107
				c-1.568-0.837-0.964-0.964-0.784-1.38c0.237-0.719,0.784-1.388,0.662-2.229c-0.062-0.841-1.752-1.871-1.932-2.05
				c-0.355-0.18-0.662-0.294-0.715,0.062c-0.18,0.666-0.368,1.327-0.608,1.989c-1.38-0.841-2.528-0.543-2.944,0.123
				c-0.065,0.474-0.964,3.25-1.384,4.149c-0.245,0.604,0.359,1.625,0.841,2.287c0.241,0.359,7.338,5.962,11.622,5.962
				c0.535,0,3.308-0.662,4.035-0.784c0.049,0,0.18,0.061,0.119,0.18c-0.609,0.784-1.875,0.784-2.353,1.813
				c-0.302,0.171-0.666,0.417-0.956,0.596c-0.547,0.302-1.037,0.604-1.633,0.662c-0.539,0.123-1.262,0.237-1.262,0.543
				c0.302,0.964,3.067,1.809,3.548,1.923c0.78,0.245,1.503-0.057,2.107-0.596c0.237-0.245,0.429-1.205,1.086-1.266
				c0.302-0.237,0.845-0.727,1.441-1.266c0.666-0.543,3.312-2.589,3.798-2.704c0.42-0.727,1.205-1.208,1.923-1.445l0.359,0.298
				l0.062,0.062c0.723,0,1.682,0.18,2.344-0.184c0.727,0.846,1.691,1.687,2.712,2.111c0.543,0.294,1.323,1.14,1.445,1.319
				c0.18,0.241,0.421,0.543,0.604,0.78c0.123,0.126,0.237,0.126,0.363,0l1.021,0.911c0.119,0.057,0.298,0.119,0.425-0.061
				c0.119,0,1.082,1.021,1.503,1.262c0.42-0.119,0.42,0.42,0.6,0.666c0.176,0.359,2.589,0.298,3.369-1.086
				c0.241-0.123,0.543,0.122,0.788-0.123c0.298-0.237,1.323-0.719,0.719-0.776c-0.539-0.131-0.845-0.543-1.45-0.49
				c-0.298-0.114-0.413-0.539-0.723-0.662c-0.364,0-1.201-0.359-1.438-0.42c-1.446-0.723-2.046-1.499-2.593-1.687
				c-0.118-0.119-0.118-0.359,0.065-0.359c0.294,0,2.042,0.122,3.549,0.18c0.6,0,1.139,0,1.507-0.058
				c3.732-0.902,7.399-4.03,8.126-4.517c0.601-0.604,1.499-1.625,1.499-2.107c-0.057-0.784-0.78-2.711-1.082-3.667
				c-0.053-0.122-0.298-1.568-0.841-1.568c-0.6-0.719-1.866,0.241-2.283,0.123c-0.061,0-0.126-0.188-0.184-0.425
				c-0.123-0.359-0.237-1.021-0.368-1.446c-1.017-0.482-0.355-0.543-0.118-0.841C45.141,36.634,44.544,35.665,45.386,35.367
				L45.386,35.367z"/>
			<path fill-rule="evenodd" clip-rule="evenodd" fill="#231F20" d="M45.562,21.458c0.551-0.123,0.306-1.985,0.367-2.528
				c0.053-0.298,0.241-0.539,0.053-0.723c-0.229,0-0.175,0.547-0.42,0.547c-0.057-0.49-0.294-0.902-0.421-1.388
				c-0.241-0.907,0.543-2.589,0-2.769c0,1.446-0.241,1.446-0.241,1.446c-0.425-1.144-0.964-3.553-0.837-4.578l-0.126-0.058
				c-0.171,0.119,0,0.478-0.171,0.601c-0.065,0.057-0.065,0-0.126-0.057c-0.123-0.245-0.237-0.543-0.421-0.784
				c-0.123-0.065-0.18,0.119-0.123,0.18c0.123,0.359,0.784,1.564,0.543,1.87c-0.123-0.245-0.368-0.547-0.543-0.604
				c0.306,0.784,1.687,2.891,1.38,3.373l-0.539-0.547c-0.298-0.118-0.171,0.123-0.057,0.184c0.727,0.837,1.209,1.744,1.323,2.83
				l-0.062,0.119c-0.175-0.241-0.42-0.42-0.596-0.719h-0.188c0.069,0.478,0.424,0.658,0.731,0.959
				C45.807,19.294,45.684,20.976,45.562,21.458L45.562,21.458z"/>
			<path fill-rule="evenodd" clip-rule="evenodd" fill="#231F20" d="M46.113,43.853l0.417,0.421l-0.601,0.363l-0.175-0.784
				l-0.192-0.543L46.113,43.853L46.113,43.853z M45.088,42.407l0.417,1.446l0.363,1.205c0.061,0.364,0.302,0.903,0,1.025
				l0.114,0.184l0.784-0.486l-0.114-0.18c-0.123,0.061-0.311,0.18-0.421-0.062l-0.188-0.666l0.723-0.417l0.478,0.478
				c0.131,0.245-0.061,0.307-0.11,0.421l0.049,0.123l1.152-0.662l-0.119-0.18c-0.065,0.061-0.184,0.061-0.306,0
				c-0.119,0-0.298-0.237-0.417-0.302l-0.486-0.482l-1.739-1.564L45.088,42.407L45.088,42.407z"/>
			<path fill-rule="evenodd" clip-rule="evenodd" fill="#231F20" d="M33.641,47.161h0.188l0.175-1.021l-2.466-0.539l-0.241,1.021
				l0.18,0.065c0.114-0.486,0.359-0.788,0.727-0.662c0.237,0.115,0.237,0.058,0.18,0.474l-0.482,2.046
				c-0.065,0.486-0.123,0.723-0.482,0.608l-0.061,0.237l1.331,0.245l0.053-0.188c-0.359-0.057-0.359-0.294-0.237-0.78l0.412-2.046
				c0.127-0.421,0.065-0.421,0.368-0.355C33.584,46.32,33.71,46.687,33.641,47.161L33.641,47.161z"/>
			<path fill-rule="evenodd" clip-rule="evenodd" fill="#231F20" d="M34.188,48.427l0.298-0.719l0.245-0.547l0.114,0.784
				l0.065,0.543L34.188,48.427L34.188,48.427z M35.634,49.093l-0.118-0.604l-0.364-2.348h-0.184l-0.6,1.388l-0.478,1.209
				c-0.18,0.294-0.306,0.837-0.666,0.772v0.249l0.902,0.057l0.062-0.18c-0.184,0-0.359-0.062-0.298-0.368l0.237-0.6l0.841,0.118
				l0.065,0.723c0,0.249-0.241,0.184-0.359,0.184v0.184l1.315,0.18v-0.18c-0.053-0.061-0.176-0.118-0.233-0.184
				C35.687,49.574,35.634,49.268,35.634,49.093L35.634,49.093z"/>
			<path fill-rule="evenodd" clip-rule="evenodd" fill="#231F20" d="M40.032,48.848l-0.359-1.866
				c-0.065-0.417-0.127-0.715,0.232-0.78l-0.061-0.176l-1.327,0.241l0.065,0.233c0.359-0.119,0.417,0.188,0.481,0.608l0.359,1.858
				c0.123,0.425,0.184,0.727-0.241,0.792l0.057,0.175l1.332-0.241l-0.058-0.245C40.15,49.574,40.089,49.334,40.032,48.848
				L40.032,48.848z"/>
			<path fill-rule="evenodd" clip-rule="evenodd" fill="#231F20" d="M37.859,49.759c-0.486,0-0.42-0.368-0.42-0.911v-1.622
				c0-0.482-0.065-0.727,0.355-0.727v-0.18h-1.38v0.18c0.417,0,0.417,0.245,0.417,0.727v1.866c0,0.482,0,0.723-0.417,0.723v0.241
				h2.348l0.065-1.09h-0.184C38.517,49.574,38.341,49.759,37.859,49.759L37.859,49.759z"/>
		</g>
		<polyline fill-rule="evenodd" clip-rule="evenodd" fill="#FFFFFF" points="24.734,13.691 24.734,13.691 24.734,13.638 
			26.899,20.854 34.307,20.854 28.169,25.011 30.631,32.174 24.734,27.657 18.772,32.174 21.304,25.011 15.166,20.854 
			22.566,20.854 24.734,13.691 		"/>
	</g>
</g>
</svg>
