<?xml version="1.0" encoding="utf-8"?>
<!-- Generator: Adobe Illustrator 19.2.0, SVG Export Plug-In . SVG Version: 6.00 Build 0)  -->
<svg version="1.1" id="Livello_4" xmlns="http://www.w3.org/2000/svg" xmlns:xlink="http://www.w3.org/1999/xlink" x="0px" y="0px"
	 viewBox="0 0 56.7 56.7" style="enable-background:new 0 0 56.7 56.7;" xml:space="preserve">
<style type="text/css">
	.st0{fill:#FFFFFF;}
</style>
<path class="st0" d="M38.8,6.9c-6.1,0-11,4.9-11,11s4.9,11,11,11s11-4.9,11-11S44.9,6.9,38.8,6.9z M38.8,26.8c-4.9,0-8.9-4-8.9-8.9
	C30,13,34,9,38.8,9c4.9,0,8.9,4,8.9,8.9C47.7,22.8,43.7,26.8,38.8,26.8z"/>
<path class="st0" d="M17.1,36.5h-5.2c-0.4,0-0.7-0.3-0.7-0.6V15.4c0-0.3,0.3-0.6,0.7-0.6h14.4c0,0,0.2-1.6,1.2-2.8H11.1
	c-1.3,0-2.3,1-2.3,2.3v22.6c0,1.3,1,2.3,2.3,2.3h6.5L17.1,36.5z"/>
<path class="st0" d="M42.1,30v5.9c0,0.3-0.3,0.6-0.7,0.6h-2.2l0.7,2.6h2.3c1.3,0,2.3-1,2.3-2.3v-8.2C43.7,29.9,42.1,30,42.1,30z"/>
<path class="st0" d="M36.5,34c-1.2-0.9-2.8-0.8-3.4-0.8c-0.7-0.9-1.4-1.4-2.3-1.5c-0.3,0-0.7,0-1.1,0.1c-0.6,0.2-1.1,0.5-1.4,0.7
	c-0.7-0.7-1.5-1.1-2.3-1.1c-0.2,0-0.5,0-0.7,0.1c-0.7,0.2-1.3,0.7-1.7,1c-0.3-0.8-2.5-7.1-3.7-10.6c-0.4-1.1-1.6-1.7-2.7-1.4
	c-1.2,0.3-1.9,1.6-1.6,2.8c2,7.7,3.8,15.3,4.1,16.5c-0.7,0.5-1.8,1.3-2.2,2.3c-0.8,2.1,0.1,3.4,1.1,4.3c2.1,2.1,5.9,5.8,7.5,7.4
	l13.4-3.6c0-0.4,0-0.9,0.1-1.1c0.7-5.6-0.9-10.8-1.5-12.4C37.7,35.5,37.3,34.6,36.5,34z"/>
<g>
	<g>
		<path class="st0" d="M44.3,14.2l-3.6,3.6l3.6,3.6c0.5,0.5,0.5,1.4,0,1.9c-0.3,0.3-0.6,0.4-1,0.4c-0.4,0-0.7-0.1-1-0.4l-3.6-3.6
			l-3.6,3.6c-0.3,0.3-0.6,0.4-1,0.4c-0.4,0-0.7-0.1-1-0.4c-0.5-0.5-0.5-1.4,0-1.9l3.6-3.6l-3.6-3.6c-0.5-0.5-0.5-1.4,0-1.9
			c0.5-0.5,1.4-0.5,1.9,0l3.6,3.6l3.6-3.6c0.5-0.5,1.4-0.5,1.9,0C44.8,12.8,44.8,13.6,44.3,14.2L44.3,14.2z M44.3,14.2"/>
	</g>
</g>
</svg>
