<?xml version="1.0" encoding="utf-8"?>
<!-- Generator: Adobe Illustrator 14.0.0, SVG Export Plug-In . SVG Version: 6.00 Build 43363)  -->
<!DOCTYPE svg PUBLIC "-//W3C//DTD SVG 1.1//EN" "http://www.w3.org/Graphics/SVG/1.1/DTD/svg11.dtd">
<svg version="1.1" id="Livello_5" xmlns="http://www.w3.org/2000/svg" xmlns:xlink="http://www.w3.org/1999/xlink" x="0px" y="0px"
	 width="270.032px" height="47.28px" viewBox="-26.239 0 270.032 47.28" enable-background="new -26.239 0 270.032 47.28"
	 xml:space="preserve">
<g>
	<polygon fill-rule="evenodd" clip-rule="evenodd" fill="#BBBDBF" points="161.502,23.78 161.502,30.675 169.014,29.444 
		169.014,23.78 161.502,23.78 	"/>
	<polygon fill-rule="evenodd" clip-rule="evenodd" fill="#BBBDBF" points="161.502,21.002 161.502,22.673 169.014,22.673 
		168.996,21.141 167.043,12.647 161.502,12.647 161.502,14.37 165.494,14.37 166.973,21.002 161.502,21.002 	"/>
	<polygon fill-rule="evenodd" clip-rule="evenodd" fill="#BBBDBF" points="161.502,14.37 161.502,12.647 151.916,12.647 
		151.916,14.37 154.063,14.37 154.063,21.002 151.916,21.002 151.916,22.673 161.502,22.673 161.502,21.002 156.068,21.002 
		156.068,14.37 161.502,14.37 	"/>
	<polygon fill-rule="evenodd" clip-rule="evenodd" fill="#BBBDBF" points="161.502,30.675 161.502,23.78 151.916,23.78 
		151.916,25.469 152.953,25.54 153.992,25.839 154.959,26.296 155.805,26.981 156.209,27.35 156.525,27.79 156.822,28.266 
		157.053,28.811 157.246,29.356 157.369,29.971 157.439,30.623 157.404,31.326 161.502,30.675 	"/>
	<polygon fill-rule="evenodd" clip-rule="evenodd" fill="#BBBDBF" points="151.916,32.909 151.916,35.337 152.83,35.249 
		153.676,34.968 154.432,34.546 155.082,34.017 155.646,33.366 156.033,32.61 156.314,31.766 156.402,30.85 156.314,29.954 
		156.033,29.128 155.646,28.352 155.082,27.684 154.432,27.139 153.676,26.735 152.83,26.471 151.916,26.401 151.916,28.899 
		152.32,28.917 152.709,29.022 153.061,29.198 153.359,29.444 153.605,29.743 153.781,30.077 153.904,30.464 153.957,30.85 
		153.781,31.661 153.605,31.994 153.359,32.311 152.709,32.733 151.916,32.909 	"/>
	<polygon fill-rule="evenodd" clip-rule="evenodd" fill="#BBBDBF" points="151.916,14.37 151.916,12.647 149.33,12.647 
		149.33,14.37 151.916,14.37 	"/>
	<polygon fill-rule="evenodd" clip-rule="evenodd" fill="#BBBDBF" points="151.916,22.673 151.916,21.002 149.33,21.002 
		149.33,22.673 151.916,22.673 	"/>
	<polygon fill-rule="evenodd" clip-rule="evenodd" fill="#BBBDBF" points="151.916,25.469 151.916,23.78 149.33,23.78 149.33,26.05 
		149.752,25.821 150.791,25.54 151.863,25.452 151.916,25.469 	"/>
	<polygon fill-rule="evenodd" clip-rule="evenodd" fill="#BBBDBF" points="151.916,28.899 151.916,26.401 151.916,26.384 
		151.037,26.471 150.193,26.735 149.418,27.139 149.33,27.227 149.33,34.491 149.418,34.546 150.193,34.968 151.037,35.249 
		151.916,35.337 151.916,32.909 151.125,32.733 150.49,32.311 150.07,31.661 149.895,30.85 150.07,30.077 150.49,29.444 
		150.791,29.198 151.125,29.022 151.916,28.881 151.916,28.899 	"/>
	<polygon fill-rule="evenodd" clip-rule="evenodd" fill="#BBBDBF" points="149.33,14.37 149.33,12.647 137.917,12.647 
		137.917,14.37 142.612,14.37 142.612,21.002 137.917,21.002 137.917,22.673 149.33,22.673 149.33,21.002 144.617,21.002 
		144.617,14.37 149.33,14.37 	"/>
	<polygon fill-rule="evenodd" clip-rule="evenodd" fill="#BBBDBF" points="149.33,26.05 149.33,23.78 137.917,23.78 137.917,31.959 
		146.376,31.959 146.412,30.393 146.71,29.04 147.22,27.931 147.906,27.016 148.785,26.313 149.33,26.05 	"/>
	<polygon fill-rule="evenodd" clip-rule="evenodd" fill="#BBBDBF" points="149.33,34.491 149.33,27.227 148.75,27.684 
		148.205,28.352 147.783,29.128 147.519,29.954 147.431,30.85 147.519,31.766 147.783,32.61 148.205,33.366 148.75,34.017 
		149.33,34.491 	"/>
	<polygon fill-rule="evenodd" clip-rule="evenodd" fill="#BBBDBF" points="137.917,14.37 137.917,12.647 126.519,12.647 
		126.519,14.37 131.215,14.37 131.215,21.002 126.519,21.002 126.519,22.673 137.917,22.673 137.917,21.002 133.22,21.002 
		133.22,14.37 137.917,14.37 	"/>
	<polygon fill-rule="evenodd" clip-rule="evenodd" fill="#BBBDBF" points="137.917,31.959 137.917,23.78 126.519,23.78 
		126.519,31.959 137.917,31.959 	"/>
	<polygon fill-rule="evenodd" clip-rule="evenodd" fill="#BBBDBF" points="126.519,14.37 126.519,12.647 115.121,12.647 
		115.121,14.37 119.817,14.37 119.817,21.002 115.121,21.002 115.121,22.673 126.519,22.673 126.519,21.002 121.805,21.002 
		121.805,14.37 126.519,14.37 	"/>
	<polygon fill-rule="evenodd" clip-rule="evenodd" fill="#BBBDBF" points="126.519,31.959 126.519,23.78 115.121,23.78 
		115.121,26.384 115.385,26.577 115.79,26.981 116.176,27.403 116.51,27.879 116.774,28.407 117.021,29.022 117.179,29.674 
		117.267,30.393 117.267,31.959 126.519,31.959 	"/>
	<polygon fill-rule="evenodd" clip-rule="evenodd" fill="#BBBDBF" points="115.121,27.861 115.121,33.877 115.543,33.366 
		115.965,32.61 116.229,31.766 116.317,30.85 116.229,29.954 115.965,29.128 115.543,28.352 115.121,27.861 	"/>
	<polygon fill-rule="evenodd" clip-rule="evenodd" fill="#BBBDBF" points="115.121,14.37 115.121,12.647 111.779,12.647 
		111.779,14.37 115.121,14.37 	"/>
	<polygon fill-rule="evenodd" clip-rule="evenodd" fill="#BBBDBF" points="115.121,22.673 115.121,21.002 111.779,21.002 
		111.779,22.673 115.121,22.673 	"/>
	<polygon fill-rule="evenodd" clip-rule="evenodd" fill="#BBBDBF" points="115.121,26.384 115.121,23.78 111.779,23.78 
		111.779,25.364 111.85,25.346 112.394,25.346 112.94,25.433 113.468,25.557 113.978,25.751 114.488,25.962 114.945,26.26 
		115.121,26.384 	"/>
	<polygon fill-rule="evenodd" clip-rule="evenodd" fill="#BBBDBF" points="115.121,33.877 115.121,27.861 114.98,27.684 
		114.33,27.139 113.556,26.735 112.729,26.471 111.85,26.384 111.779,26.401 111.779,28.899 111.85,28.881 112.236,28.917 
		112.605,29.022 112.94,29.198 113.221,29.444 113.468,29.743 113.643,30.077 113.767,30.464 113.802,30.85 113.643,31.661 
		113.468,31.994 113.221,32.311 112.605,32.733 111.85,32.909 111.779,32.909 111.779,35.337 111.85,35.337 112.729,35.249 
		113.556,34.968 114.33,34.546 114.98,34.017 115.121,33.877 	"/>
	<polygon fill-rule="evenodd" clip-rule="evenodd" fill="#BBBDBF" points="111.779,14.37 111.779,12.647 108.402,12.647 
		108.402,22.673 111.779,22.673 111.779,21.002 110.407,21.002 110.407,14.37 111.779,14.37 	"/>
	<polygon fill-rule="evenodd" clip-rule="evenodd" fill="#BBBDBF" points="111.779,25.364 111.779,23.78 104.163,23.78 
		104.163,31.783 106.396,31.783 106.415,30.288 106.678,28.987 107.17,27.879 107.874,26.981 108.736,26.26 109.211,25.962 
		109.704,25.751 110.759,25.452 111.779,25.364 	"/>
	<polygon fill-rule="evenodd" clip-rule="evenodd" fill="#BBBDBF" points="111.779,28.899 111.779,26.401 110.935,26.471 
		110.09,26.735 109.334,27.139 108.648,27.684 108.103,28.352 107.681,29.128 107.417,29.954 107.329,30.85 107.417,31.766 
		107.681,32.61 108.103,33.366 108.648,34.017 109.334,34.546 110.09,34.968 110.935,35.249 111.779,35.337 111.779,32.909 
		111.058,32.733 110.389,32.311 109.95,31.661 109.774,30.85 109.95,30.077 110.389,29.444 110.706,29.198 111.058,29.022 
		111.779,28.899 	"/>
	<polygon fill-rule="evenodd" clip-rule="evenodd" fill="#BBBDBF" points="104.163,21.002 104.163,22.725 107.17,22.76 
		107.17,12.647 104.163,12.647 104.163,14.37 105.623,14.37 105.623,21.002 104.163,21.002 	"/>
	<polygon fill-rule="evenodd" clip-rule="evenodd" fill="#BBBDBF" points="104.163,14.37 104.163,12.647 101.156,12.647 
		101.12,22.673 104.163,22.725 104.163,21.002 102.72,21.002 102.72,14.37 104.163,14.37 	"/>
	<polygon fill-rule="evenodd" clip-rule="evenodd" fill="#BBBDBF" points="104.163,31.783 104.163,23.78 101.156,23.78 
		99.625,31.783 104.163,31.783 	"/>
</g>
<g>
	<polygon fill-rule="evenodd" clip-rule="evenodd" fill="#BBBDBF" points="85.52,29.872 85.52,33.989 85.6,33.893 85.917,33.305 
		86.108,32.637 86.187,31.938 86.108,31.208 85.917,30.555 85.6,29.952 85.52,29.872 	"/>
	<polygon fill-rule="evenodd" clip-rule="evenodd" fill="#BBBDBF" points="85.52,28.346 85.52,28.792 85.6,28.839 86.267,29.665 
		86.744,30.667 86.855,31.223 86.855,31.78 91.526,29.952 91.526,28.346 85.52,28.346 	"/>
	<polygon fill-rule="evenodd" clip-rule="evenodd" fill="#BBBDBF" points="85.52,12.391 85.52,27.457 91.542,27.457 91.526,12.391 
		85.52,12.391 	"/>
	<polygon fill-rule="evenodd" clip-rule="evenodd" fill="#BBBDBF" points="85.52,27.457 85.52,12.391 82.691,12.391 82.691,27.457 
		85.52,27.457 	"/>
	<polygon fill-rule="evenodd" clip-rule="evenodd" fill="#BBBDBF" points="85.52,28.792 85.52,28.346 84.836,28.346 85.218,28.538 
		85.52,28.792 	"/>
	<polygon fill-rule="evenodd" clip-rule="evenodd" fill="#BBBDBF" points="85.52,33.989 85.52,29.872 85.155,29.427 84.646,28.999 
		84.058,28.665 83.39,28.458 82.691,28.411 82.691,30.254 83.327,30.366 83.628,30.524 83.883,30.731 84.249,31.27 84.375,31.938 
		84.249,32.574 83.883,33.114 83.327,33.479 82.691,33.606 82.691,35.467 83.39,35.387 84.058,35.18 84.646,34.846 85.155,34.434 
		85.52,33.989 	"/>
	<polygon fill-rule="evenodd" clip-rule="evenodd" fill="#BBBDBF" points="82.691,27.457 82.691,12.391 79.798,12.391 
		79.798,27.457 82.691,27.457 	"/>
	<polygon fill-rule="evenodd" clip-rule="evenodd" fill="#BBBDBF" points="82.691,30.254 82.691,28.411 82.659,28.378 81.96,28.458 
		81.308,28.665 80.72,28.999 80.196,29.427 79.798,29.936 79.798,33.94 80.196,34.434 80.72,34.846 81.308,35.18 81.96,35.387 
		82.659,35.467 82.691,35.467 82.691,33.606 82.659,33.606 82.007,33.479 81.483,33.114 81.133,32.574 81.006,31.938 81.039,31.589 
		81.133,31.27 81.293,30.985 81.483,30.731 82.007,30.366 82.341,30.27 82.659,30.237 82.691,30.254 	"/>
	<polygon fill-rule="evenodd" clip-rule="evenodd" fill="#BBBDBF" points="79.798,28.346 79.798,28.745 80.021,28.538 
		80.435,28.346 79.798,28.346 	"/>
	<polygon fill-rule="evenodd" clip-rule="evenodd" fill="#BBBDBF" points="79.798,27.457 79.798,12.391 70.835,12.391 
		70.835,27.457 79.798,27.457 	"/>
	<polygon fill-rule="evenodd" clip-rule="evenodd" fill="#BBBDBF" points="79.798,28.745 79.798,28.346 70.835,28.346 
		70.835,31.907 78.432,31.907 78.496,31.302 78.638,30.731 78.829,30.175 79.052,29.665 79.338,29.221 79.672,28.839 79.798,28.745 
			"/>
	<polygon fill-rule="evenodd" clip-rule="evenodd" fill="#BBBDBF" points="79.798,33.94 79.798,29.936 79.783,29.952 79.449,30.555 
		79.242,31.208 79.163,31.938 79.242,32.637 79.449,33.305 79.783,33.893 79.798,33.94 	"/>
	<polygon fill-rule="evenodd" clip-rule="evenodd" fill="#BBBDBF" points="70.835,27.457 70.835,12.391 61.237,12.391 
		61.237,27.425 70.835,27.457 	"/>
	<polygon fill-rule="evenodd" clip-rule="evenodd" fill="#BBBDBF" points="70.835,31.907 70.835,28.346 60.283,28.346 
		60.283,17.207 55.675,17.207 55.675,18.732 59.219,18.732 59.219,23.118 55.675,23.118 55.675,27.6 55.992,27.568 56.788,27.647 
		57.518,27.839 58.233,28.173 58.885,28.649 59.425,29.237 59.87,29.983 60.172,30.889 60.283,31.907 70.835,31.907 	"/>
	<polygon fill-rule="evenodd" clip-rule="evenodd" fill="#BBBDBF" points="55.675,33.559 55.675,35.419 56.056,35.467 
		56.788,35.387 57.423,35.18 58.026,34.846 58.535,34.434 58.98,33.893 59.282,33.305 59.489,32.637 59.568,31.938 59.489,31.208 
		59.282,30.555 58.98,29.952 58.535,29.427 58.026,28.999 57.423,28.665 56.788,28.458 56.056,28.378 55.675,28.442 55.675,30.286 
		55.706,30.27 56.056,30.237 56.708,30.366 56.994,30.524 57.232,30.731 57.614,31.27 57.756,31.938 57.614,32.574 57.232,33.114 
		56.708,33.479 56.056,33.606 55.675,33.559 	"/>
	<polygon fill-rule="evenodd" clip-rule="evenodd" fill="#BBBDBF" points="55.675,18.732 55.675,17.207 53.021,17.207 
		50.367,23.993 50.367,31.907 51.733,31.907 51.861,30.905 52.146,29.999 52.591,29.268 53.116,28.649 53.768,28.173 54.451,27.839 
		55.213,27.647 55.675,27.6 55.675,23.118 52.13,23.118 53.784,18.732 55.675,18.732 	"/>
	<polygon fill-rule="evenodd" clip-rule="evenodd" fill="#BBBDBF" points="55.675,30.286 55.675,28.442 55.356,28.458 
		54.689,28.665 54.069,28.999 53.545,29.427 53.1,29.952 52.782,30.555 52.56,31.208 52.496,31.938 52.56,32.637 52.782,33.305 
		53.1,33.893 53.545,34.434 54.069,34.846 54.689,35.18 55.356,35.387 55.675,35.419 55.675,33.559 55.389,33.479 54.833,33.114 
		54.499,32.574 54.355,31.938 54.404,31.589 54.499,31.27 54.642,30.985 54.833,30.731 55.086,30.524 55.389,30.366 55.675,30.286 	
		"/>
</g>
<g>
	<polygon fill-rule="evenodd" clip-rule="evenodd" fill="#BBBDBF" points="42.342,29.542 35.064,29.542 35.064,29.808 35.49,30.253 
		35.899,30.981 36.094,31.886 36.076,33.023 41.28,32.472 42.342,29.542 	"/>
	<polygon fill-rule="evenodd" clip-rule="evenodd" fill="#BBBDBF" points="35.064,31.247 35.064,33.45 35.099,33.414 35.26,32.882 
		35.313,32.348 35.099,31.264 35.064,31.247 	"/>
	<polygon fill-rule="evenodd" clip-rule="evenodd" fill="#BBBDBF" points="35.064,25.51 35.064,28.654 42.346,28.654 41.316,25.493 
		35.064,25.51 	"/>
	<polygon fill-rule="evenodd" clip-rule="evenodd" fill="#BBBDBF" points="35.064,28.654 35.064,25.51 32.542,25.51 32.542,28.654 
		35.064,28.654 	"/>
	<polygon fill-rule="evenodd" clip-rule="evenodd" fill="#BBBDBF" points="35.064,29.808 35.064,29.542 34.816,29.542 
		35.064,29.808 	"/>
	<polygon fill-rule="evenodd" clip-rule="evenodd" fill="#BBBDBF" points="35.064,33.45 35.064,31.247 34.833,30.768 34.496,30.359 
		34.087,30.022 33.626,29.773 32.542,29.578 32.542,30.892 33.11,30.981 33.554,31.301 33.875,31.78 33.98,32.348 33.875,32.899 
		33.554,33.378 33.11,33.663 32.542,33.805 32.542,35.101 33.092,35.03 33.626,34.888 34.087,34.604 34.496,34.284 35.064,33.45 	
		"/>
	<polygon fill-rule="evenodd" clip-rule="evenodd" fill="#BBBDBF" points="32.542,23.415 32.542,24.569 33.519,24.569 
		32.542,23.415 	"/>
	<polygon fill-rule="evenodd" clip-rule="evenodd" fill="#BBBDBF" points="32.542,24.569 32.542,23.415 29.985,20.395 
		29.985,24.231 30.162,24.569 32.542,24.569 	"/>
	<polygon fill-rule="evenodd" clip-rule="evenodd" fill="#BBBDBF" points="32.542,28.654 32.542,25.51 29.985,25.51 29.985,28.654 
		32.542,28.654 	"/>
	<polygon fill-rule="evenodd" clip-rule="evenodd" fill="#BBBDBF" points="32.542,30.892 32.542,29.578 32.542,29.559 
		32.009,29.595 31.476,29.773 30.997,30.022 30.57,30.359 30.25,30.768 29.985,31.264 29.985,33.432 30.25,33.876 30.57,34.284 
		30.997,34.604 31.476,34.888 32.009,35.03 32.542,35.101 32.542,33.805 31.956,33.663 31.494,33.378 31.192,32.899 31.103,32.633 
		31.068,32.348 31.192,31.78 31.494,31.301 31.956,30.981 32.542,30.875 32.542,30.892 	"/>
	<polygon fill-rule="evenodd" clip-rule="evenodd" fill="#BBBDBF" points="29.985,29.578 29.985,29.791 30.162,29.559 
		29.985,29.578 	"/>
	<polygon fill-rule="evenodd" clip-rule="evenodd" fill="#BBBDBF" points="29.985,24.231 29.985,20.395 29.558,19.88 16.078,19.915 
		11.441,24.587 12.649,24.569 16.379,20.803 21.779,20.821 21.796,24.551 22.667,24.587 22.667,20.839 28.102,20.839 29.985,24.231 
			"/>
	<polygon fill-rule="evenodd" clip-rule="evenodd" fill="#BBBDBF" points="29.985,28.654 29.985,25.51 11.353,25.51 11.193,25.528 
		11.193,28.654 29.985,28.654 	"/>
	<polygon fill-rule="evenodd" clip-rule="evenodd" fill="#BBBDBF" points="29.985,29.791 29.985,29.578 11.193,29.578 
		11.193,29.808 11.708,30.253 12.134,31.141 12.312,32.1 12.241,33.059 29.061,33.077 28.954,32.064 29.079,31.177 29.469,30.342 
		29.985,29.791 	"/>
	<polygon fill-rule="evenodd" clip-rule="evenodd" fill="#BBBDBF" points="29.985,33.432 29.985,31.264 29.825,31.78 29.771,32.348 
		29.825,32.882 29.985,33.414 29.985,33.432 	"/>
	<polygon fill-rule="evenodd" clip-rule="evenodd" fill="#BBBDBF" points="11.193,31.212 11.193,33.485 11.246,33.414 
		11.388,32.882 11.459,32.348 11.246,31.264 11.193,31.212 	"/>
	<polygon fill-rule="evenodd" clip-rule="evenodd" fill="#BBBDBF" points="11.193,28.654 11.193,25.528 8.67,25.812 8.67,28.654 
		11.193,28.654 	"/>
	<polygon fill-rule="evenodd" clip-rule="evenodd" fill="#BBBDBF" points="11.193,29.808 11.193,29.578 10.944,29.578 
		11.193,29.808 	"/>
	<polygon fill-rule="evenodd" clip-rule="evenodd" fill="#BBBDBF" points="11.193,33.485 11.193,31.212 10.625,30.359 
		10.216,30.022 9.754,29.773 8.688,29.559 8.67,29.578 8.67,30.892 8.688,30.875 9.257,30.981 9.701,31.301 10.021,31.78 
		10.127,32.348 10.021,32.899 9.701,33.378 9.257,33.663 8.688,33.805 8.67,33.805 8.67,35.101 8.688,35.101 9.239,35.03 
		9.754,34.888 10.216,34.604 10.625,34.284 11.193,33.485 	"/>
	<polygon fill-rule="evenodd" clip-rule="evenodd" fill="#BBBDBF" points="8.67,28.654 8.67,25.812 6.113,26.096 6.113,28.654 
		8.67,28.654 	"/>
	<polygon fill-rule="evenodd" clip-rule="evenodd" fill="#BBBDBF" points="8.67,30.892 8.67,29.578 8.138,29.595 7.605,29.773 
		7.125,30.022 6.699,30.359 6.362,30.768 6.113,31.264 6.113,33.432 6.362,33.876 6.699,34.284 7.125,34.604 7.605,34.888 
		8.138,35.03 8.67,35.101 8.67,33.805 8.386,33.752 8.102,33.663 7.623,33.378 7.321,32.899 7.232,32.633 7.197,32.348 7.321,31.78 
		7.623,31.301 8.102,30.981 8.67,30.892 	"/>
	<polygon fill-rule="evenodd" clip-rule="evenodd" fill="#BBBDBF" points="6.113,29.578 6.113,29.791 6.326,29.559 6.113,29.578 	
		"/>
	<polygon fill-rule="evenodd" clip-rule="evenodd" fill="#BBBDBF" points="6.113,28.654 6.113,26.096 1.903,26.558 0.962,28.654 
		6.113,28.654 	"/>
	<polygon fill-rule="evenodd" clip-rule="evenodd" fill="#BBBDBF" points="6.113,29.791 6.113,29.578 0.926,29.578 1.903,32.579 
		5.083,33.059 5.065,31.923 5.278,30.999 5.705,30.235 6.113,29.791 	"/>
	<polygon fill-rule="evenodd" clip-rule="evenodd" fill="#BBBDBF" points="6.113,33.432 6.113,31.264 5.936,31.78 5.865,32.348 
		5.936,32.882 6.113,33.414 6.113,33.432 	"/>
</g>
<g>
	<path fill-rule="evenodd" clip-rule="evenodd" fill="#BBBDBF" d="M198.336,31.217v-4.095h17.967
		c-2.186,1.073-2.424,2.506-2.703,4.095H198.336L198.336,31.217z"/>
	<path fill-rule="evenodd" clip-rule="evenodd" fill="#BBBDBF" d="M222.822,31.217c0-1.392-0.715-3.26-2.424-4.095h6.32
		c-1.551,0.557-2.742,2.703-2.783,4.095H222.822L222.822,31.217z"/>
	<path fill-rule="evenodd" clip-rule="evenodd" fill="#BBBDBF" d="M233.238,31.217c-0.039-1.63-1.072-3.498-2.465-4.095h13v2.146
		l-5.168,1.948H233.238L233.238,31.217z"/>
	<polygon fill-rule="evenodd" clip-rule="evenodd" fill="#BBBDBF" points="198.336,26.009 198.375,23.585 186.926,23.585 
		186.965,10.505 243.813,10.505 243.813,26.009 198.336,26.009 	"/>
	<path fill-rule="evenodd" clip-rule="evenodd" fill="#BBBDBF" d="M185.813,24.657v-8.944h-8.428l-2.744,7.314v8.189h1.393
		c0.277-6.28,9.023-5.923,9.262,0c0.557,0,0.994,0,1.352,0c0.557-6.241,8.984-6.003,9.225,0h1.391v-6.56H185.813z M184.738,21.677
		h-8.428l1.67-4.374h6.758V21.677z"/>
	<path fill-rule="evenodd" clip-rule="evenodd" fill="#BBBDBF" d="M191.254,27.382c-2.102,0-3.816,1.715-3.816,3.816
		c0,2.104,1.715,3.816,3.816,3.817c2.102,0,3.816-1.714,3.816-3.817C195.07,29.096,193.355,27.382,191.254,27.382z M191.254,32.837
		c-0.902,0-1.639-0.734-1.639-1.639c0-0.902,0.736-1.638,1.639-1.638v-0.001c0.902,0,1.639,0.736,1.639,1.639
		C192.893,32.102,192.156,32.837,191.254,32.837z"/>
	<path fill-rule="evenodd" clip-rule="evenodd" fill="#BBBDBF" d="M218.197,27.382c-2.102,0-3.816,1.715-3.816,3.816
		c0,2.104,1.715,3.816,3.816,3.817c2.104,0,3.816-1.714,3.816-3.817C222.014,29.096,220.301,27.382,218.197,27.382z M218.197,32.837
		c-0.902,0-1.639-0.734-1.639-1.639c0-0.902,0.736-1.638,1.639-1.638v-0.001c0.904,0,1.639,0.736,1.639,1.639
		C219.836,32.102,219.102,32.837,218.197,32.837z"/>
	<path fill-rule="evenodd" clip-rule="evenodd" fill="#BBBDBF" d="M228.549,27.382c-2.102,0-3.816,1.715-3.816,3.816
		c0,2.104,1.715,3.816,3.816,3.817c2.102,0,3.816-1.714,3.816-3.817C232.365,29.096,230.65,27.382,228.549,27.382z M228.549,32.837
		c-0.902,0-1.639-0.734-1.639-1.639c0-0.902,0.736-1.638,1.639-1.638v-0.001c0.902,0,1.639,0.736,1.639,1.639
		C230.188,32.102,229.451,32.837,228.549,32.837z"/>
	<path fill-rule="evenodd" clip-rule="evenodd" fill="#BBBDBF" d="M180.633,27.382c-2.102,0-3.816,1.715-3.816,3.816
		c0,2.104,1.715,3.816,3.816,3.817c2.104,0,3.818-1.714,3.818-3.817C184.451,29.096,182.736,27.382,180.633,27.382z M180.633,32.837
		c-0.902,0-1.637-0.734-1.637-1.639c0-0.902,0.734-1.638,1.637-1.638v-0.001c0.904,0,1.641,0.736,1.641,1.639
		C182.273,32.102,181.537,32.837,180.633,32.837z"/>
</g>
<g>
	<path fill-rule="evenodd" clip-rule="evenodd" fill="#BBBDBF" d="M-22.646,27.889c-1.99,0-3.613,1.623-3.613,3.613
		s1.623,3.613,3.613,3.613c1.99,0,3.613-1.623,3.613-3.613S-20.656,27.889-22.646,27.889z M-22.646,33.944
		c-1.344-0.001-2.44-1.098-2.44-2.441s1.096-2.439,2.44-2.439c1.343,0,2.439,1.096,2.439,2.439S-21.302,33.944-22.646,33.944z"/>
	<path fill-rule="evenodd" clip-rule="evenodd" fill="#BBBDBF" d="M-9.521,27.889c-1.99,0-3.613,1.623-3.613,3.613
		s1.623,3.613,3.613,3.613s3.613-1.623,3.613-3.613S-7.531,27.889-9.521,27.889z M-9.521,33.944c-1.344-0.001-2.44-1.098-2.44-2.441
		s1.096-2.439,2.44-2.439s2.441,1.096,2.441,2.439S-8.177,33.944-9.521,33.944z"/>
	<path fill-rule="evenodd" clip-rule="evenodd" fill="#BBBDBF" d="M-15.729,33.706l-2.144-4.039
		c-0.283-0.545-0.295-0.947,0.32-1.361l2.629-1.186l-2.108-1.588l-1.149,0.901c-0.118,0.142-0.414,0.248-0.758,0.272l-3.032,0.011
		c-0.924,0.024-0.877-1.397,0-1.409l2.677-0.012l3.399-2.725c0.285,0,0.664,0.083,0.841,0.273l2.453,3.754
		c0.378,0.438,0.402,1.113-0.107,1.34l-3.507,1.48l1.884,3.529C-13.893,33.884-15.266,34.618-15.729,33.706L-15.729,33.706
		L-15.729,33.706z"/>
	<path fill-rule="evenodd" clip-rule="evenodd" fill="#BBBDBF" d="M-18.819,24.194l-0.107-0.746l1.48-1.221l-0.201-1.125
		l-1.303,0.226c-0.368,0.13-0.309-0.166-0.296-0.438c0.095-1.09,1.137-1.777,2.049-1.6c0.913,0.178,1.327,1.043,1.41,1.505
		c0.083,0.462,0.106,0.959-0.19,1.113L-18.819,24.194L-18.819,24.194z"/>
</g>
<g>
	<path fill="#231F20" d="M59.116,19.389l2.776-5.866c0.615,1.103,1.273,1.948,1.976,2.535c0.703,0.587,1.404,0.881,2.104,0.881
		c0.311,0,0.558-0.082,0.742-0.245c0.184-0.163,0.275-0.377,0.275-0.644c0-0.408-0.403-0.847-1.208-1.317
		c-0.177-0.102-0.314-0.184-0.413-0.245c-1.328-0.796-2.294-1.718-2.898-2.765c-0.604-1.046-0.906-2.31-0.906-3.791
		c0-2.338,0.59-4.245,1.77-5.72C64.512,0.738,66.056,0,67.963,0c1.102,0,2.117,0.235,3.046,0.704
		c0.929,0.47,1.782,1.174,2.559,2.114l-2.172,5.498c-0.629-0.796-1.199-1.388-1.711-1.776c-0.512-0.388-0.984-0.582-1.415-0.582
		c-0.262,0-0.472,0.089-0.63,0.268c-0.159,0.179-0.239,0.416-0.239,0.712c0,0.5,0.466,1.037,1.399,1.608
		c0.247,0.153,0.441,0.276,0.583,0.368c1.208,0.786,2.063,1.664,2.564,2.634s0.752,2.2,0.752,3.691c0,2.349-0.63,4.306-1.892,5.874
		c-1.261,1.567-2.852,2.351-4.773,2.351c-1.215,0-2.409-0.345-3.582-1.034C61.281,21.74,60.168,20.727,59.116,19.389z"/>
	<path fill="#231F20" d="M85.076,14.672l-1.049,8.102c-0.48,0.255-0.956,0.444-1.425,0.567s-0.941,0.184-1.415,0.184
		c-0.96,0-1.867-0.222-2.718-0.666c-0.851-0.444-1.616-1.09-2.294-1.938c-0.749-0.939-1.33-2.101-1.743-3.484
		c-0.413-1.383-0.62-2.856-0.62-4.418c0-1.674,0.178-3.239,0.535-4.694c0.356-1.455,0.888-2.774,1.594-3.959
		c0.833-1.419,1.844-2.506,3.031-3.262c1.187-0.755,2.476-1.133,3.868-1.133c0.727,0,1.418,0.107,2.071,0.321
		c0.653,0.215,1.28,0.536,1.881,0.965l-0.964,7.489c-0.537-0.439-1.058-0.768-1.563-0.988s-1.008-0.33-1.51-0.33
		c-0.982,0-1.786,0.447-2.411,1.34s-0.938,2.04-0.938,3.438c0,1.174,0.245,2.108,0.736,2.803c0.491,0.694,1.149,1.041,1.976,1.041
		c0.452,0,0.938-0.12,1.457-0.36C84.096,15.45,84.595,15.111,85.076,14.672z"/>
	<path fill="#231F20" d="M86.856,22.927l2.861-22.422h5.626l-0.975,7.75h3.052l0.985-7.75h5.637l-2.882,22.422h-5.626l1.049-8.056
		h-3.062l-1.049,8.056H86.856z"/>
	<path fill="#231F20" d="M104.042,22.927l2.861-22.422h10.639l-0.763,6.08h-5.054l-0.286,2.16h4.758l-0.721,5.682h-4.747
		l-0.307,2.42h5.51l-0.773,6.08H104.042z"/>
	<path fill="#231F20" d="M117.457,22.927l2.861-22.422h4.196c1.299,0,2.386,0.092,3.258,0.275c0.872,0.184,1.587,0.465,2.146,0.842
		c1.222,0.878,2.156,2.081,2.803,3.607c0.646,1.526,0.969,3.295,0.969,5.307c0,1.889-0.282,3.658-0.848,5.307
		c-0.565,1.649-1.36,3.025-2.384,4.127c-0.961,1.042-2.074,1.795-3.338,2.259c-1.265,0.465-2.857,0.697-4.779,0.697H117.457z
		 M123.942,16.188h0.063c1.25,0,2.229-0.459,2.935-1.378s1.06-2.175,1.06-3.768c0-1.174-0.252-2.101-0.757-2.78
		c-0.505-0.679-1.192-1.019-2.061-1.019h-0.106L123.942,16.188z"/>
	<path fill="#231F20" d="M132.821,22.927l8.095-22.422h6.135l2.024,22.422h-5.521l-0.106-2.986h-3.73l-0.848,2.986H132.821z
		 M141.255,14.641h1.982l-0.064-2.405c-0.007-0.132-0.014-0.321-0.021-0.566c-0.036-1-0.053-1.808-0.053-2.42
		c0-0.408,0.002-0.722,0.005-0.942s0.009-0.426,0.016-0.621c-0.127,0.603-0.258,1.182-0.392,1.739s-0.262,1.054-0.381,1.493
		L141.255,14.641z"/>
</g>
<g>
	<path fill="#83B48B" d="M57.78,19.389l2.776-5.866c0.615,1.103,1.273,1.948,1.976,2.535c0.703,0.587,1.404,0.881,2.104,0.881
		c0.311,0,0.558-0.082,0.742-0.245c0.184-0.163,0.275-0.377,0.275-0.644c0-0.408-0.403-0.847-1.208-1.317
		c-0.177-0.102-0.314-0.184-0.413-0.245c-1.328-0.796-2.294-1.718-2.898-2.765c-0.604-1.046-0.906-2.31-0.906-3.791
		c0-2.338,0.59-4.245,1.77-5.72C63.176,0.738,64.72,0,66.627,0c1.102,0,2.117,0.235,3.046,0.704c0.929,0.47,1.782,1.174,2.559,2.114
		l-2.172,5.498c-0.629-0.796-1.199-1.388-1.711-1.776c-0.512-0.388-0.984-0.582-1.415-0.582c-0.262,0-0.472,0.089-0.63,0.268
		c-0.159,0.179-0.239,0.416-0.239,0.712c0,0.5,0.466,1.037,1.399,1.608c0.247,0.153,0.441,0.276,0.583,0.368
		c1.208,0.786,2.063,1.664,2.564,2.634s0.752,2.2,0.752,3.691c0,2.349-0.63,4.306-1.892,5.874c-1.261,1.567-2.852,2.351-4.773,2.351
		c-1.215,0-2.409-0.345-3.582-1.034C59.945,21.74,58.832,20.727,57.78,19.389z"/>
	<path fill="#83B48B" d="M83.74,14.672l-1.049,8.102c-0.48,0.255-0.956,0.444-1.425,0.567s-0.941,0.184-1.415,0.184
		c-0.96,0-1.867-0.222-2.718-0.666c-0.851-0.444-1.616-1.09-2.294-1.938c-0.749-0.939-1.33-2.101-1.743-3.484
		c-0.413-1.383-0.62-2.856-0.62-4.418c0-1.674,0.178-3.239,0.535-4.694c0.356-1.455,0.888-2.774,1.594-3.959
		c0.833-1.419,1.844-2.506,3.031-3.262c1.187-0.755,2.476-1.133,3.868-1.133c0.727,0,1.418,0.107,2.071,0.321
		c0.653,0.215,1.28,0.536,1.881,0.965l-0.964,7.489c-0.537-0.439-1.058-0.768-1.563-0.988s-1.008-0.33-1.51-0.33
		c-0.982,0-1.786,0.447-2.411,1.34s-0.938,2.04-0.938,3.438c0,1.174,0.245,2.108,0.736,2.803c0.491,0.694,1.149,1.041,1.976,1.041
		c0.452,0,0.938-0.12,1.457-0.36C82.76,15.45,83.259,15.111,83.74,14.672z"/>
	<path fill="#83B48B" d="M85.52,22.927l2.861-22.422h5.626l-0.975,7.75h3.052l0.985-7.75h5.637l-2.882,22.422h-5.626l1.049-8.056
		h-3.062l-1.049,8.056H85.52z"/>
	<path fill="#83B48B" d="M102.707,22.927l2.861-22.422h10.639l-0.763,6.08h-5.054l-0.286,2.16h4.758l-0.721,5.682h-4.747
		l-0.307,2.42h5.51l-0.773,6.08H102.707z"/>
	<path fill="#83B48B" d="M116.121,22.927l2.861-22.422h4.196c1.299,0,2.386,0.092,3.258,0.275c0.872,0.184,1.587,0.465,2.146,0.842
		c1.222,0.878,2.156,2.081,2.803,3.607c0.646,1.526,0.969,3.295,0.969,5.307c0,1.889-0.282,3.658-0.848,5.307
		c-0.565,1.649-1.36,3.025-2.384,4.127c-0.961,1.042-2.074,1.795-3.338,2.259c-1.265,0.465-2.857,0.697-4.779,0.697H116.121z
		 M122.606,16.188h0.063c1.25,0,2.229-0.459,2.935-1.378s1.06-2.175,1.06-3.768c0-1.174-0.252-2.101-0.757-2.78
		c-0.505-0.679-1.192-1.019-2.061-1.019h-0.106L122.606,16.188z"/>
	<path fill="#83B48B" d="M131.485,22.927l8.095-22.422h6.135l2.024,22.422h-5.521l-0.106-2.986h-3.73l-0.848,2.986H131.485z
		 M139.919,14.641h1.982l-0.064-2.405c-0.007-0.132-0.014-0.321-0.021-0.566c-0.036-1-0.053-1.808-0.053-2.42
		c0-0.408,0.002-0.722,0.005-0.942s0.009-0.426,0.016-0.621c-0.127,0.603-0.258,1.182-0.392,1.739s-0.262,1.054-0.381,1.493
		L139.919,14.641z"/>
</g>
<g>
	<path fill="#231F20" d="M61.828,47.115l3.33-22.422h12.381l-0.888,6.08h-5.882l-0.333,2.16h5.537l-0.838,5.682h-5.525l-0.357,2.42
		h6.413l-0.9,6.08H61.828z"/>
	<path fill="#231F20" d="M76.305,43.577l3.231-5.866c0.715,1.103,1.482,1.948,2.3,2.535c0.818,0.587,1.634,0.881,2.448,0.881
		c0.361,0,0.649-0.082,0.863-0.245c0.213-0.163,0.32-0.377,0.32-0.644c0-0.408-0.468-0.847-1.406-1.317
		c-0.206-0.102-0.366-0.184-0.481-0.245c-1.545-0.796-2.67-1.718-3.373-2.765c-0.703-1.046-1.054-2.31-1.054-3.791
		c0-2.338,0.686-4.245,2.059-5.72c1.373-1.475,3.169-2.213,5.389-2.213c1.282,0,2.464,0.235,3.545,0.704
		c1.081,0.47,2.074,1.174,2.978,2.114l-2.528,5.498c-0.732-0.796-1.396-1.388-1.992-1.776c-0.596-0.388-1.145-0.582-1.646-0.582
		c-0.304,0-0.549,0.089-0.733,0.268c-0.185,0.179-0.278,0.416-0.278,0.712c0,0.5,0.542,1.037,1.628,1.608
		c0.288,0.153,0.514,0.276,0.678,0.368c1.406,0.786,2.4,1.664,2.984,2.634c0.583,0.97,0.875,2.2,0.875,3.691
		c0,2.349-0.734,4.306-2.201,5.874c-1.468,1.567-3.319,2.351-5.556,2.351c-1.414,0-2.803-0.345-4.168-1.034
		C78.825,45.928,77.53,44.915,76.305,43.577z"/>
	<path fill="#231F20" d="M90.684,47.115l9.422-22.422h7.14l2.355,22.422h-6.425l-0.123-2.986h-4.341l-0.987,2.986H90.684z
		 M100.5,38.83h2.306l-0.074-2.405c-0.008-0.132-0.017-0.321-0.024-0.566c-0.042-1-0.062-1.808-0.062-2.42
		c0-0.408,0.002-0.722,0.006-0.942c0.004-0.22,0.01-0.426,0.019-0.621c-0.148,0.603-0.3,1.182-0.457,1.739s-0.304,1.054-0.444,1.493
		L100.5,38.83z"/>
	<path fill="#231F20" d="M109.564,47.115l5.401-22.422h6.573l0.604,7.259c0.058,0.776,0.101,1.573,0.129,2.389
		c0.029,0.817,0.043,1.665,0.043,2.542l4.328-12.191h6.585l-0.851,22.422h-6.018l0.789-11.977c-0.156,0.562-0.331,1.144-0.524,1.746
		c-0.193,0.603-0.409,1.22-0.647,1.854l-3.132,8.377h-3.712l-1.011-11.64c-0.058,0.582-0.14,1.174-0.247,1.776
		c-0.107,0.603-0.234,1.225-0.382,1.869l-1.813,7.995H109.564z"/>
	<path fill="#231F20" d="M134.499,47.115l3.33-22.422h12.38l-0.887,6.08h-5.883l-0.333,2.16h5.537l-0.838,5.682h-5.525l-0.357,2.42
		h6.413l-0.9,6.08H134.499z"/>
</g>
<g>
	<path fill="#FFFFFF" d="M60.393,47.115l3.33-22.422h12.381l-0.888,6.08h-5.882L69,32.933h5.537l-0.838,5.682h-5.525l-0.357,2.42
		h6.413l-0.9,6.08H60.393z"/>
	<path fill="#FFFFFF" d="M74.87,43.577l3.231-5.866c0.715,1.103,1.482,1.948,2.3,2.535c0.818,0.587,1.634,0.881,2.448,0.881
		c0.361,0,0.649-0.082,0.863-0.245c0.213-0.163,0.32-0.377,0.32-0.644c0-0.408-0.468-0.847-1.406-1.317
		c-0.206-0.102-0.366-0.184-0.481-0.245c-1.545-0.796-2.67-1.718-3.373-2.765c-0.703-1.046-1.054-2.31-1.054-3.791
		c0-2.338,0.686-4.245,2.059-5.72c1.373-1.475,3.169-2.213,5.389-2.213c1.282,0,2.464,0.235,3.545,0.704
		c1.081,0.47,2.074,1.174,2.978,2.114l-2.528,5.498c-0.732-0.796-1.396-1.388-1.992-1.776c-0.596-0.388-1.145-0.582-1.646-0.582
		c-0.304,0-0.549,0.089-0.733,0.268c-0.185,0.179-0.278,0.416-0.278,0.712c0,0.5,0.542,1.037,1.628,1.608
		c0.288,0.153,0.514,0.276,0.678,0.368c1.406,0.786,2.4,1.664,2.984,2.634c0.583,0.97,0.875,2.2,0.875,3.691
		c0,2.349-0.734,4.306-2.201,5.874c-1.468,1.567-3.319,2.351-5.556,2.351c-1.414,0-2.803-0.345-4.168-1.034
		C77.39,45.928,76.095,44.915,74.87,43.577z"/>
	<path fill="#FFFFFF" d="M89.249,47.115l9.422-22.422h7.14l2.355,22.422h-6.425l-0.123-2.986h-4.341l-0.987,2.986H89.249z
		 M99.065,38.83h2.306l-0.074-2.405c-0.008-0.132-0.017-0.321-0.024-0.566c-0.042-1-0.062-1.808-0.062-2.42
		c0-0.408,0.002-0.722,0.006-0.942c0.004-0.22,0.01-0.426,0.019-0.621c-0.148,0.603-0.3,1.182-0.457,1.739s-0.304,1.054-0.444,1.493
		L99.065,38.83z"/>
	<path fill="#FFFFFF" d="M108.129,47.115l5.401-22.422h6.573l0.604,7.259c0.058,0.776,0.101,1.573,0.129,2.389
		c0.029,0.817,0.043,1.665,0.043,2.542l4.328-12.191h6.585l-0.851,22.422h-6.018l0.789-11.977c-0.156,0.562-0.331,1.144-0.524,1.746
		c-0.193,0.603-0.409,1.22-0.647,1.854l-3.132,8.377h-3.712l-1.011-11.64c-0.058,0.582-0.14,1.174-0.247,1.776
		c-0.107,0.603-0.234,1.225-0.382,1.869l-1.813,7.995H108.129z"/>
	<path fill="#FFFFFF" d="M133.063,47.115l3.33-22.422h12.381l-0.888,6.08h-5.882l-0.333,2.16h5.537l-0.838,5.682h-5.525l-0.357,2.42
		h6.413l-0.9,6.08H133.063z"/>
</g>
</svg>
