<?xml version="1.0" encoding="utf-8"?>
<!-- Generator: Adobe Illustrator 14.0.0, SVG Export Plug-In . SVG Version: 6.00 Build 43363)  -->
<!DOCTYPE svg PUBLIC "-//W3C//DTD SVG 1.1//EN" "http://www.w3.org/Graphics/SVG/1.1/DTD/svg11.dtd">
<svg version="1.1" id="Livello_1" xmlns="http://www.w3.org/2000/svg" xmlns:xlink="http://www.w3.org/1999/xlink" x="0px" y="0px"
	 width="56.69px" height="56.689px" viewBox="0 0 56.69 56.689" enable-background="new 0 0 56.69 56.689" xml:space="preserve">
<rect x="-0.001" y="-0.001" fill="none" stroke="#231F20" stroke-width="0.4199" stroke-opacity="0" width="56.691" height="56.692"/>
<g>
	<path fill="#FFFFFF" d="M8.507,37.838c0.685,0,1.716,0.052,1.974-0.208L24.17,23.869l4.456,4.504
		c0.006,0.006,0.003,0.019,0.01,0.024l0.921,0.917c0.236,0.231,0.61,0.23,0.842-0.003l12.886-12.954l3.345,3.134
		c0.33,0,0.598-0.268,0.598-0.597v-7.118c0-0.329-0.267-0.596-0.598-0.596h-7.643c-0.329,0-0.594,0.266-0.594,0.596l3.073,2.877
		L29.988,26.194l-5.39-5.437c-0.123-0.126-0.6-0.228-0.834,0.005l-0.374,0.371c-0.008,0.008-0.021,0.005-0.029,0.014L8.713,35.873
		c-0.257,0.257-0.207,0.879-0.207,0.879V37.838z"/>
	<rect x="8.502" y="44.394" fill="#FFFFFF" width="39.685" height="1.116"/>
	<polygon fill="#FFFFFF" points="38.089,42.623 38.089,23.887 32.469,29.535 32.469,42.623 	"/>
	<polygon fill="#FFFFFF" points="16.639,42.623 16.639,33.786 11.062,39.278 11.062,42.623 	"/>
	<polygon fill="#FFFFFF" points="24.116,42.623 24.116,26.422 18.496,31.956 18.496,42.623 	"/>
	<polygon fill="#FFFFFF" points="39.948,22.018 39.948,42.623 45.366,42.623 45.366,21.239 42.876,19.074 	"/>
	<polygon fill="#FFFFFF" points="25.975,27.957 25.975,42.623 30.61,42.623 30.61,31.402 29.89,32.129 	"/>
</g>
</svg>
