<?xml version="1.0" encoding="utf-8"?>
<!-- Generator: Adobe Illustrator 19.2.0, SVG Export Plug-In . SVG Version: 6.00 Build 0)  -->
<svg version="1.1" id="Livello_4" xmlns="http://www.w3.org/2000/svg" xmlns:xlink="http://www.w3.org/1999/xlink" x="0px" y="0px"
	 viewBox="0 0 64.9 56.7" style="enable-background:new 0 0 64.9 56.7;" xml:space="preserve">
<style type="text/css">
	.st0{fill:#FFFFFF;}
</style>
<path class="st0" d="M47.1,32.9"/>
<path class="st0" d="M40.9,31.2"/>
<path class="st0" d="M38.7,29.7"/>
<path class="st0" d="M35.9,26.8"/>
<path class="st0" d="M34.9,25.2"/>
<path class="st0" d="M33.8,22.3"/>
<path class="st0" d="M3.8,18.6"/>
<path class="st0" d="M33.8,22.3l-4.4,4.3l-6.2-6.3c-0.1-0.1-0.7-0.3-1,0l-0.4,0.4c0,0,0,0,0,0l-10,10l-4.9-4.9
	c-0.3-0.3-1.5-0.2-2.3-0.2V27c0,0-0.1,0.7,0.2,1l6.1,6.2l0.3,0.3c0.3,0.3,0.7,0.3,1,0l0,0L22.6,24l5.1,5.2c0,0,0,0,0,0l1.1,1.1
	c0.3,0.3,0.7,0.3,1,0l5.1-5C34.5,24.3,34.1,23.3,33.8,22.3z"/>
<rect x="4.6" y="47.6" class="st0" width="45.8" height="1.3"/>
<path class="st0" d="M35.9,26.8l-3.7,3.7v15.1h6.5V29.7C37.7,28.9,36.7,27.9,35.9,26.8z"/>
<polygon class="st0" points="16.1,33.3 16.1,45.6 22.6,45.6 22.6,26.9 "/>
<path class="st0" d="M40.9,45.6h6.3V32.9c-2.3-0.1-4.4-0.7-6.3-1.7V45.6z"/>
<polygon class="st0" points="29.2,33.5 24.7,28.7 24.7,45.6 30.1,45.6 30.1,32.6 "/>
<polygon class="st0" points="12,37.7 7.5,33.1 7.5,45.6 14,45.6 14,35.6 "/>
<path class="st0" d="M47.8,6.1c-6.8,0-12.3,5.5-12.3,12.3S41,30.7,47.8,30.7s12.3-5.5,12.3-12.3S54.6,6.1,47.8,6.1z M47.8,28.4
	c-5.5,0-9.9-4.4-9.9-9.9c0-5.5,4.4-9.9,9.9-9.9c5.5,0,9.9,4.4,9.9,9.9C57.7,23.9,53.3,28.4,47.8,28.4z"/>
<g>
	<path class="st0" d="M49.1,11.2v5.7l5.7,0c0.8,0,1.5,0.7,1.5,1.5c0,0.4-0.2,0.8-0.5,1.1c-0.3,0.3-0.7,0.5-1.1,0.5l-5.7,0l0,5.7
		c0,0.4-0.2,0.8-0.5,1.1c-0.3,0.3-0.7,0.5-1.1,0.4c-0.8,0-1.5-0.7-1.5-1.5l0-5.7l-5.7,0c-0.8,0-1.5-0.7-1.5-1.5
		c0-0.8,0.7-1.5,1.5-1.5l5.7,0l0-5.7c0-0.8,0.7-1.5,1.5-1.5C48.4,9.6,49.1,10.3,49.1,11.2L49.1,11.2z M49.1,11.2"/>
</g>
</svg>
