<?xml version="1.0" encoding="utf-8"?>
<!-- Generator: Adobe Illustrator 19.2.0, SVG Export Plug-In . SVG Version: 6.00 Build 0)  -->
<svg version="1.1" id="Livello_3" xmlns="http://www.w3.org/2000/svg" xmlns:xlink="http://www.w3.org/1999/xlink" x="0px" y="0px"
	 viewBox="0 0 64.9 56.7" style="enable-background:new 0 0 64.9 56.7;" xml:space="preserve">
<style type="text/css">
	.st0{fill:#FFFFFF;}
</style>
<line class="st0" x1="63.8" y1="5.7" x2="63.8" y2="5.7"/>
<path class="st0" d="M13.9,40.7c0.7,0,1.9,0.1,2.1-0.2l14.8-14.9l4.8,4.9c0,0,0,0,0,0l1,1c0.3,0.3,0.7,0.2,0.9,0l13.9-14l3.6,3.4
	c0.4,0,0.6-0.3,0.6-0.6v-7.7c0-0.4-0.3-0.6-0.6-0.6h-8.3c-0.4,0-0.6,0.3-0.6,0.6l3.3,3.1L37.1,28.1l-5.8-5.9c-0.1-0.1-0.6-0.2-0.9,0
	L30,22.7c0,0,0,0,0,0L14.1,38.6c-0.3,0.3-0.2,1-0.2,1V40.7z"/>
<rect x="13.9" y="47.8" class="st0" width="42.9" height="1.2"/>
<polygon class="st0" points="45.8,45.9 45.8,25.6 39.8,31.7 39.8,45.9 "/>
<polygon class="st0" points="22.7,45.9 22.7,36.3 16.6,42.3 16.6,45.9 "/>
<polygon class="st0" points="30.8,45.9 30.8,28.4 24.7,34.3 24.7,45.9 "/>
<polygon class="st0" points="47.9,23.6 47.9,45.9 53.7,45.9 53.7,22.8 51,20.4 "/>
<polygon class="st0" points="32.8,30 32.8,45.9 37.8,45.9 37.8,33.7 37,34.5 "/>
<path class="st0" d="M15.3,5.9C9,5.9,3.8,11,3.8,17.4c0,6.4,5.2,11.5,11.5,11.5s11.5-5.2,11.5-11.5C26.9,11,21.7,5.9,15.3,5.9z
	 M15.3,26.7c-5.1,0-9.3-4.2-9.3-9.3c0-5.1,4.2-9.3,9.3-9.3s9.3,4.2,9.3,9.3C24.6,22.5,20.5,26.7,15.3,26.7z"/>
<g>
	<path class="st0" d="M16.6,10.6V16l5.3,0c0.8,0,1.4,0.6,1.4,1.4c0,0.4-0.2,0.8-0.4,1c-0.3,0.3-0.6,0.4-1,0.4l-5.3,0l0,5.3
		c0,0.4-0.2,0.8-0.4,1c-0.3,0.3-0.6,0.4-1,0.4c-0.8,0-1.4-0.6-1.4-1.4l0-5.3l-5.3,0c-0.8,0-1.4-0.6-1.4-1.4c0-0.8,0.6-1.4,1.4-1.4
		l5.3,0l0-5.3c0-0.8,0.6-1.4,1.4-1.4C15.9,9.2,16.6,9.8,16.6,10.6L16.6,10.6z M16.6,10.6"/>
</g>
</svg>
