<?xml version="1.0" encoding="utf-8"?>
<!-- Generator: Adobe Illustrator 19.2.0, SVG Export Plug-In . SVG Version: 6.00 Build 0)  -->
<svg version="1.1" id="Livello_2" xmlns="http://www.w3.org/2000/svg" xmlns:xlink="http://www.w3.org/1999/xlink" x="0px" y="0px"
	 viewBox="0 0 64.9 56.7" style="enable-background:new 0 0 64.9 56.7;" xml:space="preserve">
<style type="text/css">
	.st0{fill:#FFFFFF;}
</style>
<line class="st0" x1="64.6" y1="7.1" x2="64.6" y2="7.1"/>
<path class="st0" d="M56.1,13.1h-8c-0.3,0-0.6,0.3-0.6,0.6l3.2,3l-12,12.1l-5.6-5.7C33,23,32.8,23,32.5,23c0,0-1.8,5.4-1.8,5.4
	l1.9-1.9l4.7,4.7l0,0l1,1c0.2,0.2,0.6,0.2,0.9,0l13.5-13.6l3.5,3.3c0.3,0,0.6-0.3,0.6-0.6v-7.5C56.8,13.4,56.5,13.1,56.1,13.1z"/>
<path class="st0" d="M20.3,35.2L16.4,39c-0.3,0.3-0.2,0.9-0.2,0.9V41c0.7,0,1.8,0.1,2.1-0.2l4.6-4.6L20.3,35.2z"/>
<rect x="16.2" y="47.9" class="st0" width="41.6" height="1.2"/>
<polygon class="st0" points="47.2,46 47.2,26.4 41.3,32.3 41.3,46 "/>
<polygon class="st0" points="24.7,46 24.7,36.8 18.9,42.5 18.9,46 "/>
<path class="st0" d="M32.6,46V29.1l-3.4,3.3l-1.1,3.2c0,0-0.2,0.5-0.6,0.8s-0.9,0.4-0.9,0.4V46H32.6z"/>
<polygon class="st0" points="49.1,24.5 49.1,46 54.8,46 54.8,23.6 52.2,21.4 "/>
<polygon class="st0" points="34.5,30.7 34.5,46 39.4,46 39.4,34.3 38.6,35 "/>
<g>
	<path class="st0" d="M33.9,11.5L14.5,4.6c-0.7-0.2-1.5,0-1.7,0.5L5,27.1c-0.2,0.5,0.2,1.2,0.9,1.5l19.3,6.9c0.7,0.2,1.5,0,1.7-0.5
		L34.8,13C35,12.4,34.6,11.8,33.9,11.5z M32.8,13.3l-7.2,20.3c-0.1,0.1-0.3,0.2-0.5,0.1L7.2,27.2c-0.2-0.1-0.3-0.3-0.3-0.4l7.2-20.3
		c0.1-0.2,0.3-0.2,0.5-0.2l17.9,6.4C32.7,13,32.8,13.1,32.8,13.3z"/>
	<path class="st0" d="M28.8,15.2L22.7,13c-0.2-0.1-0.4,0-0.5,0.2c-0.1,0.2,0,0.4,0.2,0.5l6.1,2.2c0.2,0.1,0.4,0,0.5-0.2
		C29.1,15.5,29,15.2,28.8,15.2z"/>
	<path class="st0" d="M28.3,16.5l-6.1-2.2c-0.2-0.1-0.4,0-0.5,0.2c-0.1,0.2,0,0.4,0.2,0.5l6.1,2.2c0.2,0.1,0.4,0,0.5-0.2
		C28.6,16.8,28.5,16.5,28.3,16.5z"/>
	<path class="st0" d="M16.1,13.9c1.2,0.4,2.5-0.2,2.9-1.4l1.3-0.6c0.1-0.1,0.2-0.2,0.3-0.3c0-0.1,0-0.3,0-0.4l-0.1-0.3
		c-0.1-0.3-0.4-0.4-0.7-0.2L19,11c-0.2-0.6-0.7-1.2-1.4-1.4c-1.2-0.4-2.5,0.2-2.9,1.4C14.3,12.1,15,13.5,16.1,13.9z M16.1,11.4
		c0-0.1,0.1-0.1,0.1-0.2l0.3-0.2c0.1-0.1,0.3,0,0.4,0.1l0.5,0.8l2.2-1.1c0.2-0.1,0.4,0,0.5,0.2l0.1,0.2c0,0.1,0,0.2,0,0.3
		s-0.1,0.2-0.2,0.2l-2.6,1.3c-0.2,0.1-0.5,0-0.6-0.2l-0.7-1.3C16.1,11.6,16.1,11.5,16.1,11.4z"/>
	<path class="st0" d="M26.4,21.7l-6.1-2.2c-0.2-0.1-0.4,0-0.5,0.2c-0.1,0.2,0,0.4,0.2,0.5l6.1,2.2c0.2,0.1,0.4,0,0.5-0.2
		C26.7,22,26.6,21.8,26.4,21.7z"/>
	<path class="st0" d="M26,23l-6.1-2.2c-0.2-0.1-0.4,0-0.5,0.2c-0.1,0.2,0,0.4,0.2,0.5l6.1,2.2c0.2,0.1,0.4,0,0.5-0.2
		C26.3,23.4,26.2,23.1,26,23z"/>
	<path class="st0" d="M18.2,18.1c0-0.1,0-0.3,0-0.4l-0.1-0.3c-0.1-0.3-0.4-0.4-0.7-0.2l-0.6,0.3c-0.2-0.6-0.7-1.2-1.4-1.4
		c-1.2-0.4-2.5,0.2-2.9,1.4c-0.4,1.2,0.2,2.5,1.4,2.9s2.5-0.2,2.9-1.4l1.3-0.6C18,18.4,18.1,18.3,18.2,18.1z M15.2,19.6
		c-0.2,0.1-0.5,0-0.6-0.2l-0.7-1.2c0-0.1-0.1-0.1,0-0.2c0-0.1,0.1-0.1,0.1-0.2l0.3-0.2c0.1-0.1,0.3,0,0.4,0.1l0.5,0.8l2.2-1
		c0.2-0.1,0.4,0,0.5,0.2l0.1,0.2c0,0.1,0,0.2,0,0.3s-0.1,0.2-0.2,0.2L15.2,19.6z"/>
	<path class="st0" d="M24.1,28.2L18,26c-0.2-0.1-0.4,0-0.5,0.2c-0.1,0.2,0,0.4,0.2,0.5l6.1,2.2c0.2,0.1,0.4,0,0.5-0.2
		C24.4,28.5,24.3,28.3,24.1,28.2z"/>
	<path class="st0" d="M23.6,29.6l-6.1-2.2c-0.2-0.1-0.4,0-0.5,0.2c-0.1,0.2,0,0.4,0.2,0.5l6.1,2.2c0.2,0.1,0.4,0,0.5-0.2
		C23.9,29.9,23.8,29.7,23.6,29.6z"/>
	<path class="st0" d="M15.7,24c-0.1-0.3-0.4-0.4-0.7-0.2l-0.6,0.3c-0.2-0.6-0.7-1.2-1.4-1.4c-1.2-0.4-2.5,0.2-2.9,1.4
		c-0.4,1.2,0.2,2.5,1.4,2.9c1.2,0.4,2.5-0.2,2.9-1.4l1.3-0.6c0.1-0.1,0.2-0.2,0.3-0.3c0-0.1,0-0.3,0-0.4L15.7,24z M15.6,24.6
		c0,0.1-0.1,0.2-0.2,0.2l-2.6,1.3c-0.2,0.1-0.5,0-0.6-0.2l-0.7-1.2c0-0.1-0.1-0.1,0-0.2c0-0.1,0.1-0.1,0.1-0.2l0.3-0.2
		c0.1-0.1,0.3,0,0.4,0.1l0.5,0.8l2.2-1c0.2-0.1,0.4,0,0.5,0.2l0.1,0.2C15.7,24.4,15.7,24.5,15.6,24.6z"/>
</g>
</svg>
