<?xml version="1.0" encoding="utf-8"?>
<!-- Generator: Adobe Illustrator 19.2.0, SVG Export Plug-In . SVG Version: 6.00 Build 0)  -->
<svg version="1.1" id="Livello_3" xmlns="http://www.w3.org/2000/svg" xmlns:xlink="http://www.w3.org/1999/xlink" x="0px" y="0px"
	 viewBox="0 0 64.9 56.7" style="enable-background:new 0 0 64.9 56.7;" xml:space="preserve">
<style type="text/css">
	.st0{fill:#FFFFFF;}
</style>
<path class="st0" d="M16.1,41.3c0.7,0,1.8,0.1,2.1-0.2l14.4-14.5l4.7,4.7l0,0l1,1c0.2,0.2,0.6,0.2,0.9,0l13.6-13.6l3.5,3.3
	c0.3,0,0.6-0.3,0.6-0.6v-7.5c0-0.3-0.3-0.6-0.6-0.6h-8.1c-0.3,0-0.6,0.3-0.6,0.6l3.2,3L38.7,29.1l-3.4-3.4l-6.8,1.2L16.3,39.3
	c-0.3,0.3-0.2,0.9-0.2,0.9S16.1,41.3,16.1,41.3z"/>
<rect x="16.1" y="48.2" class="st0" width="41.8" height="1.2"/>
<polygon class="st0" points="47.2,46.4 47.2,26.6 41.3,32.6 41.3,46.4 "/>
<polygon class="st0" points="24.6,46.4 24.6,37.1 18.8,42.9 18.8,46.4 "/>
<polygon class="st0" points="32.5,46.4 32.5,29.3 26.6,35.1 26.6,46.4 "/>
<polygon class="st0" points="49.2,24.7 49.2,46.4 54.9,46.4 54.9,23.8 52.3,21.6 "/>
<polygon class="st0" points="34.5,30.9 34.5,46.4 39.4,46.4 39.4,34.6 38.6,35.3 "/>
<g>
	<path class="st0" d="M33.7,19.6l1.4,4.4c0,0-5.7,0.6-10.3,2c-4.7,1.5-9.6,4.2-9.6,4.2l-1.4-4.5c0,0,4.2-4.3,9.3-5.8
		C28.1,18.4,33.7,19.6,33.7,19.6z"/>
	<path class="st0" d="M7.7,26.3L7.2,37.5l2.3-0.8L8.7,26.5l4.2,0.8l-0.5-1.7c0,0,4.7-4.7,10.3-6.5c5.6-1.7,12-0.3,12-0.3l0.3,0.9
		l6.7-9.6l-25.4,1.7l-7.2,9.6c-0.1-0.1-0.2-0.1-0.5-0.1c-3.6-0.5-2.2,2.2-2.2,2.2l0.5,0.6l-1.3,1.7L7.7,26.3z M8.4,22.4l-0.8,0.9
		c-0.1-0.2-0.1-0.5-0.1-0.6C7.1,22.1,7.9,22.3,8.4,22.4z"/>
</g>
</svg>
