<?xml version="1.0" encoding="utf-8"?>
<!-- Generator: Adobe Illustrator 19.2.0, SVG Export Plug-In . SVG Version: 6.00 Build 0)  -->
<svg version="1.1" id="Livello_2" xmlns="http://www.w3.org/2000/svg" xmlns:xlink="http://www.w3.org/1999/xlink" x="0px" y="0px"
	 viewBox="0 0 64.9 56.7" style="enable-background:new 0 0 64.9 56.7;" xml:space="preserve">
<style type="text/css">
	.st0{fill:#FFFFFF;}
</style>
<g>
	<path class="st0" d="M53.8,28.3c0,0,0.8-0.9,0.6-3.4c0-2.2-1.4-3.4-1.4-3.4s0.6-1.1,0.3-3.1c-0.3-2-1.7-2.8-1.7-2.8
		s0.8-1.7-0.3-3.6c-1.1-2-2.5-2.8-8.7-2.8c-6.2,0-13.2,5.6-15.2,5.6h-0.6v19.7h0.6c0.3,0,0.6,0,0.8,0.3l7.3,7.9
		c0.3,0,0.3,0.3,0.3,0.3l2.8,7.9c0,0.3,0.3,0.6,0.6,0.6c1.1,0,4.5-0.3,5.3-4.2c0.6-2.8-0.8-6.8-1.7-8.7c0-0.6,0.3-1.1,0.9-1.1h6.7
		c0,0,4.5-0.3,4.5-4.5C55.2,29.7,53.8,28.3,53.8,28.3L53.8,28.3z M53.8,28.3"/>
	<path class="st0" d="M10,34.5H24V12H10V34.5z M17,21.8c-1.7,0-2.8-1.1-2.8-2.8c0-1.7,1.1-2.8,2.8-2.8s2.8,1.1,2.8,2.8
		C19.8,20.7,18.7,21.8,17,21.8L17,21.8z M17,21.8"/>
</g>
</svg>
