<?xml version="1.0" encoding="iso-8859-1"?>
<!-- Generator: Adobe Illustrator 19.0.0, SVG Export Plug-In . SVG Version: 6.00 Build 0)  -->
<svg version="1.1" id="Capa_1" xmlns="http://www.w3.org/2000/svg" xmlns:xlink="http://www.w3.org/1999/xlink" x="0px" y="0px"
	 viewBox="0 0 367.866 367.866" style="enable-background:new 0 0 367.866 367.866;" xml:space="preserve">
<g>
	<g>
		<path d="M295.933,287.866c-48.52,0-88-39.48-88-88v-72h56c3.128,0,5.96-1.824,7.272-4.656c1.304-2.84,0.832-6.176-1.192-8.552
			l-96-112c-3.04-3.544-9.112-3.544-12.152,0l-96,112c-2.032,2.368-2.504,5.712-1.192,8.552c1.304,2.832,4.136,4.656,7.264,4.656h56
			v72c0,92.64,75.36,168,168,168c4.416,0,8-3.584,8-8v-64C303.933,291.45,300.349,287.866,295.933,287.866z M287.933,351.658
			c-80.104-4.176-144-70.664-144-151.792v-80c0-4.416-3.584-8-8-8H89.325l78.608-91.704l78.608,91.704h-46.608c-4.416,0-8,3.584-8,8
			v80c0,54.656,42.376,99.6,96,103.696V351.658z"/>
	</g>
</g>
<g>
</g>
<g>
</g>
<g>
</g>
<g>
</g>
<g>
</g>
<g>
</g>
<g>
</g>
<g>
</g>
<g>
</g>
<g>
</g>
<g>
</g>
<g>
</g>
<g>
</g>
<g>
</g>
<g>
</g>
</svg>
