<?xml version="1.0" encoding="UTF-8" standalone="no"?>
<!-- Generator: Adobe Illustrator 14.0.0, SVG Export Plug-In . SVG Version: 6.00 Build 43363)  -->

<svg
   xmlns:dc="http://purl.org/dc/elements/1.1/"
   xmlns:cc="http://creativecommons.org/ns#"
   xmlns:rdf="http://www.w3.org/1999/02/22-rdf-syntax-ns#"
   xmlns:svg="http://www.w3.org/2000/svg"
   xmlns="http://www.w3.org/2000/svg"
   xmlns:sodipodi="http://sodipodi.sourceforge.net/DTD/sodipodi-0.dtd"
   xmlns:inkscape="http://www.inkscape.org/namespaces/inkscape"
   version="1.1"
   id="Livello_5"
   x="0px"
   y="0px"
   width="72.248px"
   height="72.344px"
   viewBox="0 0 72.248 72.344"
   enable-background="new 0 0 72.248 72.344"
   xml:space="preserve"
   inkscape:version="0.48.4 r9939"
   sodipodi:docname="checkW.svg"><metadata
   id="metadata54"><rdf:RDF><cc:Work
       rdf:about=""><dc:format>image/svg+xml</dc:format><dc:type
         rdf:resource="http://purl.org/dc/dcmitype/StillImage" /><dc:title></dc:title></cc:Work></rdf:RDF></metadata><defs
   id="defs52" /><sodipodi:namedview
   pagecolor="#ffffff"
   bordercolor="#666666"
   borderopacity="1"
   objecttolerance="10"
   gridtolerance="10"
   guidetolerance="10"
   inkscape:pageopacity="0"
   inkscape:pageshadow="2"
   inkscape:window-width="1648"
   inkscape:window-height="1011"
   id="namedview50"
   showgrid="false"
   inkscape:zoom="26.178004"
   inkscape:cx="36.697739"
   inkscape:cy="34.876971"
   inkscape:window-x="178"
   inkscape:window-y="0"
   inkscape:window-maximized="0"
   inkscape:current-layer="Livello_5" />
<linearGradient
   id="SVGID_1_"
   gradientUnits="userSpaceOnUse"
   x1="-197.6123"
   y1="132.2776"
   x2="-125.4418"
   y2="132.2776"
   gradientTransform="matrix(0 1 -1 0 168.4211 197.6125)">
	<stop
   offset="0"
   style="stop-color:#4d4d4d"
   id="stop4" />
	<stop
   offset="0.2241"
   style="stop-color:#4d4d4d;stop-opacity:0.9664"
   id="stop6" />
	<stop
   offset="0.3973"
   style="stop-color:#4d4d4d;stop-opacity:0.9404"
   id="stop8" />
	<stop
   offset="0.5534"
   style="stop-color:#4d4d4d;stop-opacity:0.917"
   id="stop10" />
	<stop
   offset="0.6994"
   style="stop-color:#4d4d4d;stop-opacity:0.8951"
   id="stop12" />
	<stop
   offset="0.8385"
   style="stop-color:#4d4d4d;stop-opacity:0.8742"
   id="stop14" />
	<stop
   offset="0.9706"
   style="stop-color:#4d4d4d;stop-opacity:0.8544"
   id="stop16" />
	<stop
   offset="1"
   style="stop-color:#4d4d4d;stop-opacity:0.85"
   id="stop18" />
</linearGradient>





<path
   style="fill:#4d4d4d;fill-opacity:1"
   d="m 28.282208,51.66201 c -0.0665,-0.381834 -0.356089,-1.319063 -0.643537,-2.082731 -0.287448,-0.763667 -0.691953,-1.899701 -0.898902,-2.524521 -0.206948,-0.624818 -0.514363,-1.420043 -0.683145,-1.767164 -0.16878,-0.347122 -0.618746,-1.302084 -0.999922,-2.122136 -0.381177,-0.820054 -1.22487,-2.042196 -1.874875,-2.715872 L 22,39.224723 22.578094,38.693206 c 1.577241,-1.450164 2.134328,-1.767986 3.124004,-1.782264 0.831345,-0.01199 1.113369,0.114902 1.577536,0.709807 0.654621,0.839006 2.517621,4.710934 2.517621,5.232448 0,0.194126 0.15468,0.487155 0.34373,0.651175 0.28129,0.244044 0.46238,0.07769 0.99683,-0.915784 0.3592,-0.667701 0.85655,-1.521812 1.10523,-1.898023 0.24867,-0.376212 0.45213,-0.749637 0.45213,-0.829831 0,-0.0802 0.54476,-0.965224 1.21058,-1.966728 0.66582,-1.001504 1.34502,-2.03364 1.50933,-2.293639 0.16432,-0.259998 0.4346,-0.621094 0.60062,-0.802437 0.16603,-0.181342 0.30187,-0.445787 0.30187,-0.587653 0,-0.141867 0.14183,-0.348788 0.31518,-0.459824 0.17335,-0.111036 0.63521,-0.652548 1.02635,-1.203362 0.39114,-0.550814 0.87417,-1.183064 1.0734,-1.404999 0.19924,-0.221936 1.12295,-1.298205 2.0527,-2.391712 2.96463,-3.4868 7.87387,-8.203093 8.53867,-8.203093 0.15171,0 0.27583,-0.08911 0.27583,-0.198022 0,-0.108911 0.30752,-0.387918 0.68337,-0.620013 0.6197,-0.382677 0.71854,-0.385228 1.06085,-0.02738 0.34231,0.357846 0.33489,0.439131 -0.0796,0.872467 -0.25141,0.26282 -0.5053,0.477856 -0.56419,0.477856 -0.0589,0 -0.68376,0.636816 -1.38859,1.415147 -1.94349,2.146159 -2.59972,2.919592 -3.29741,3.886347 -0.35072,0.48597 -0.77415,0.97443 -0.94097,1.085465 -0.16681,0.111036 -0.30329,0.360999 -0.30329,0.555473 0,0.194474 -0.13887,0.444438 -0.30861,0.555474 -0.40584,0.265491 -3.55528,4.809365 -3.55528,5.129409 0,0.136257 -0.10867,0.247741 -0.2415,0.247741 -0.13282,0 -0.24149,0.09316 -0.24149,0.207029 0,0.113865 -0.60485,1.164697 -1.34412,2.335182 -1.14907,1.819321 -2.22177,3.729973 -4.49448,8.005345 -0.24212,0.455482 -0.44023,0.95775 -0.44023,1.116156 0,0.158405 -0.14615,0.467357 -0.32477,0.686564 -0.17863,0.219207 -0.51451,0.909442 -0.7464,1.533853 -0.2319,0.624413 -0.50693,1.192431 -0.61118,1.262261 -0.74891,0.501612 -1.65692,1.241295 -2.24769,1.831016 -0.38252,0.381833 -0.78417,0.694242 -0.89256,0.694242 -0.1084,0 -0.259636,0.170406 -0.336088,0.378679 -0.220057,0.59948 -0.571329,0.441855 -0.703236,-0.315565 l 0,0 z"
   id="path3087"
   inkscape:connector-curvature="0" /><path
   style="fill:#ffffff;fill-opacity:1"
   d=""
   id="path3023"
   inkscape:connector-curvature="0" /><path
   style="fill:#ffffff;fill-opacity:1"
   d=""
   id="path3035"
   inkscape:connector-curvature="0" /><path
   style="fill:#ffffff;fill-opacity:1"
   d=""
   id="path3039"
   inkscape:connector-curvature="0" /><path
   style="fill:#ffffff;fill-opacity:1"
   d=""
   id="path3043"
   inkscape:connector-curvature="0" /><path
   style="fill:#4d4d4d;fill-opacity:1"
   d="m 28.537586,52.252344 c -0.103653,-0.118829 -0.145314,-0.230727 -0.262863,-0.706032 -0.145176,-0.58701 -0.334178,-1.172665 -0.761462,-2.359518 -0.185316,-0.514746 -0.502838,-1.408626 -0.705606,-1.986401 -0.43982,-1.25324 -0.582645,-1.598548 -1.240315,-2.998701 -0.592442,-1.261283 -0.756577,-1.572709 -1.134751,-2.153049 -0.540341,-0.829198 -0.883685,-1.247804 -1.800324,-2.194963 -0.321714,-0.332427 -0.57962,-0.619323 -0.573123,-0.637547 0.02206,-0.06187 1.220824,-1.132019 1.673513,-1.493957 0.297404,-0.237782 0.758832,-0.522726 0.985283,-0.608437 0.614782,-0.232694 1.515263,-0.248699 1.932641,-0.03435 0.483024,0.248063 0.97186,0.982119 1.893867,2.843902 0.701083,1.415678 1.148884,2.478204 1.22907,2.916294 0.07583,0.41431 0.346906,0.770007 0.586812,0.770007 0.174858,0 0.345427,-0.224902 0.855869,-1.128498 0.260612,-0.461342 0.666856,-1.156817 0.902764,-1.545503 0.235908,-0.388685 0.507365,-0.870005 0.603238,-1.0696 0.09587,-0.199595 0.363714,-0.659343 0.595201,-1.021662 0.860572,-1.346955 2.199492,-3.363694 2.462765,-3.709522 0.446772,-0.586868 0.47872,-0.638339 0.538368,-0.867341 0.06313,-0.242379 0.05518,-0.231703 0.520757,-0.699135 0.180802,-0.181523 0.583683,-0.673842 0.895292,-1.094042 0.727892,-0.981552 0.823735,-1.099615 2.077707,-2.5594 2.559948,-2.980109 4.434642,-4.974929 6.477472,-6.892533 1.745382,-1.638389 2.629283,-2.349584 3.043721,-2.449006 0.151965,-0.03646 0.206703,-0.07109 0.255626,-0.16172 0.147305,-0.272895 0.55,-0.604306 1.025534,-0.843997 0.300427,-0.151429 0.397479,-0.136494 0.647095,0.09958 0.269425,0.25481 0.332071,0.370494 0.278385,0.514073 -0.05199,0.139055 -0.563625,0.657593 -0.85736,0.868935 -0.297511,0.21406 -1.770036,1.79517 -3.097267,3.325663 -0.634596,0.731783 -1.033343,1.223469 -1.610927,1.986401 -0.254493,0.33616 -0.616913,0.767926 -0.805378,0.95948 -0.340856,0.346444 -0.343014,0.349861 -0.409401,0.648258 -0.06387,0.2871 -0.07847,0.312327 -0.340037,0.587621 -0.750289,0.789665 -3.304763,4.482488 -3.517177,5.084533 -0.07369,0.208866 -0.121862,0.26461 -0.228661,0.26461 -0.119201,0 -0.222096,0.102132 -0.307882,0.3056 -0.115986,0.275097 -0.359689,0.694837 -1.253115,2.1583 -1.331461,2.180979 -2.097763,3.530907 -3.724126,6.56047 -1.060603,1.975675 -1.100873,2.062515 -1.300004,2.803365 -0.0233,0.0867 -0.130275,0.292292 -0.237716,0.456874 -0.266141,0.407688 -0.516908,0.916558 -0.794738,1.612727 -0.314918,0.789104 -0.50938,1.166589 -0.66117,1.283451 -0.06864,0.05285 -0.348276,0.262405 -0.621406,0.465682 -0.540982,0.402627 -0.783978,0.608146 -1.5089,1.27618 -0.579589,0.534105 -0.730617,0.653841 -0.961202,0.762045 -0.152325,0.07148 -0.198135,0.121699 -0.316518,0.346983 -0.20416,0.388517 -0.316206,0.466748 -0.449551,0.313877 z"
   id="path3045"
   inkscape:connector-curvature="0" /></svg>