<?xml version="1.0" encoding="utf-8"?>
<!-- Generator: Adobe Illustrator 19.2.0, SVG Export Plug-In . SVG Version: 6.00 Build 0)  -->
<svg version="1.1" id="Livello_1" xmlns="http://www.w3.org/2000/svg" xmlns:xlink="http://www.w3.org/1999/xlink" x="0px" y="0px"
	 viewBox="0 0 56.7 56.7" style="enable-background:new 0 0 56.7 56.7;" xml:space="preserve">
<style type="text/css">
	.st0{fill:none;stroke:#231F20;stroke-width:0.4199;stroke-opacity:0;}
	.st1{fill:#FFFFFF;}
</style>
<g id="Livello_2">
</g>
<rect x="0" y="0" class="st0" width="56.7" height="56.7"/>
<path class="st1" d="M38.3,25.7c-0.9-4.6-5-8.1-10-8.1c-3.9,0-7.3,2.2-8.9,5.4c-4.2,0.5-7.3,3.9-7.3,8.1c0,4.5,3.6,8.1,8.1,8.1h17.6
	c3.8,0,6.8-3,6.8-6.8C44.6,28.9,41.7,26,38.3,25.7z M33.5,32.5c0.5,0.5,0.5,1.2,0,1.7c-0.2,0.2-0.6,0.4-0.9,0.4
	c-0.3,0-0.6-0.1-0.9-0.4L28.6,31l-3.2,3.2c-0.2,0.2-0.6,0.4-0.9,0.4c-0.3,0-0.6-0.1-0.9-0.4c-0.2-0.2-0.4-0.5-0.4-0.9v0
	c0-0.3,0.1-0.6,0.4-0.9l3.2-3.2l-3.2-3.2c-0.2-0.2-0.4-0.5-0.4-0.9v0c0-0.3,0.1-0.6,0.4-0.9c0.2-0.2,0.6-0.4,0.9-0.4h0
	c0.3,0,0.6,0.1,0.9,0.4l3.2,3.2l3.2-3.2c0.2-0.2,0.6-0.4,0.9-0.4h0c0.3,0,0.6,0.1,0.9,0.4c0.5,0.5,0.5,1.3,0,1.7l-3.2,3.2L33.5,32.5
	z"/>
</svg>
