<?xml version="1.0" encoding="utf-8"?>
<!-- Generator: Adobe Illustrator 14.0.0, SVG Export Plug-In . SVG Version: 6.00 Build 43363)  -->
<!DOCTYPE svg PUBLIC "-//W3C//DTD SVG 1.1//EN" "http://www.w3.org/Graphics/SVG/1.1/DTD/svg11.dtd">
<svg version="1.1" id="Livello_1" xmlns="http://www.w3.org/2000/svg" xmlns:xlink="http://www.w3.org/1999/xlink" x="0px" y="0px"
	 width="56.69px" height="56.69px" viewBox="0 0 56.69 56.69" enable-background="new 0 0 56.69 56.69" xml:space="preserve">
<g>
	<path fill="#FFFFFF" d="M38.354,25.64c-0.944-4.604-5.006-8.118-10.005-8.118c-3.925,0-7.306,2.166-8.931,5.409
		c-4.193,0.542-7.305,3.924-7.305,8.119c0,4.464,3.652,8.117,8.118,8.117h17.581c3.791,0,6.763-2.982,6.763-6.764
		C44.576,28.883,41.736,25.91,38.354,25.64L38.354,25.64z M25.642,35.103l-4.737-4.726l1.896-1.898l2.841,2.84l7.033-7.033
		l1.896,1.896L25.642,35.103z M25.642,35.103"/>
</g>
<rect x="-0.001" y="-0.001" opacity="0" fill="none" stroke="#231F20" stroke-width="0.4199" width="56.693" height="56.692"/>
</svg>
