<?xml version="1.0" encoding="utf-8"?>
<!-- Generator: Adobe Illustrator 19.2.0, SVG Export Plug-In . SVG Version: 6.00 Build 0)  -->
<svg version="1.1" xmlns="http://www.w3.org/2000/svg" xmlns:xlink="http://www.w3.org/1999/xlink" x="0px" y="0px"
	 viewBox="0 0 57.1 57.1" style="enable-background:new 0 0 57.1 57.1;" xml:space="preserve">
<style type="text/css">
	.st0{display:none;}
	.st1{display:inline;}
	.st2{fill:#FFFFFF;}
</style>
<g id="Livello_2" class="st0">
	<g class="st1">
		<path class="st2" d="M45.2,25.3c0.5,1.6,0.7,3.3,0.7,5c0,9.8-7.9,17.7-17.7,17.7c-9.8,0-17.7-7.9-17.7-17.7
			c0-9.8,7.9-17.7,17.7-17.7c1.2,0,2.4,0.1,3.6,0.4L35,9.6c-2.2-0.7-4.5-1.1-6.9-1.1c-12.1,0-21.8,9.8-21.8,21.8s9.8,21.8,21.8,21.8
			S50,42.4,50,30.3c0-2.8-0.5-5.6-1.5-8"/>
		<path class="st2" d="M50.8,12.6c0.2,0.6,0.3,1.1,0.5,1.7c0,0.4-0.2,0.8-0.5,1.1C44.1,22.1,37.5,28.7,31,35.3
			c-0.2,0.2-0.5,0.4-0.9,0.5l-8.5,1.8c-0.4,0.1-0.9-0.2-1-0.6c0-0.1,0-0.3,0-0.4c0.6-2.9,1.2-5.7,1.8-8.6c0.1-0.3,0.2-0.6,0.4-0.8
			c1.9-1.9,3.8-3.8,5.7-5.7c4.7-4.7,9.4-9.4,14.1-14.1c0.3-0.3,0.7-0.5,1.2-0.5c0.5,0,1.1,0.1,1.6,0.3C47.8,8.3,49.7,10.2,50.8,12.6
			L50.8,12.6z"/>
	</g>
</g>
<g id="Livello_4" class="st0">
	<g class="st1">
		<path class="st2" d="M41.3,27.2c-0.4-0.4-0.8-0.6-1.3-0.6h-8.2v-8c0-1-0.9-1.9-1.9-1.9l0,0h-3.7c-1,0-1.9,0.8-1.9,1.9l0,0v8.1
			h-8.1c-1,0-1.9,0.8-1.9,1.9l0,0v3.7c0,1,0.8,1.9,1.9,1.9l0,0h8.1v8.1c0,1,0.8,1.9,1.9,1.9l0,0H30c1,0,1.9-0.8,1.9-1.9l0,0v-8.1H40
			c1,0,1.9-0.8,1.9-1.9c0,0,0,0,0-0.1v-3.6C41.8,28,41.6,27.5,41.3,27.2z"/>
		<path class="st2" d="M28.1,8.5c-12.1,0-21.8,9.8-21.8,21.8s9.8,21.8,21.8,21.8S50,42.4,50,30.4S40.2,8.5,28.1,8.5z M28.1,48.1
			c-9.8,0-17.7-7.9-17.7-17.7c0-9.8,7.9-17.7,17.7-17.7c9.8,0,17.7,7.9,17.7,17.7C45.9,40.2,37.9,48.1,28.1,48.1z"/>
	</g>
</g>
<g id="Livello_3" class="st0">
	<g class="st1">
		<path class="st2" d="M28.1,8.5c-12.1,0-21.8,9.8-21.8,21.8s9.8,21.8,21.8,21.8S50,42.4,50,30.4S40.2,8.5,28.1,8.5z M28.1,48.1
			c-9.8,0-17.7-7.9-17.7-17.7c0-9.8,7.9-17.7,17.7-17.7c9.8,0,17.7,7.9,17.7,17.7C45.9,40.2,37.9,48.1,28.1,48.1z"/>
		<path class="st2" d="M24.4,26.7h-8c-1,0-1.9,0.8-1.9,1.9l0,0v3.6c0,1,0.8,1.9,1.9,1.9l0,0h8h7.4h8c1,0,1.9-0.8,1.9-1.9
			c0,0,0,0,0-0.1v-3.6c-0.1-0.5-0.2-1-0.6-1.4c-0.4-0.4-0.8-0.6-1.3-0.6h-8.1L24.4,26.7z"/>
	</g>
</g>
<g id="Livello_5" class="st0">
	<g class="st1">
		<g>
			<path class="st2" d="M45.5,39.2l-6.3-3c-0.6-0.3-1-0.8-1-1.4v-2.1c0.2-0.2,0.3-0.4,0.5-0.5c0.8-1.1,1.4-2.3,2-3.6
				c0.9-0.4,1.5-1.3,1.5-2.3v-2.4c0-0.6-0.3-1.2-0.6-1.6V19c0-0.4,0.2-2.3-1.4-4.1c-1.4-1.4-3.6-2.2-6.6-2.2s-5.2,0.7-6.6,2.2
				c-1.5,1.6-1.4,3.7-1.4,4.1v2c0.7,0.2,1.4,0.5,1.8,1.1c0.5,0.7,0.6,1.6,0.2,2.4l-2,3.5c0.1,0.1,0.2,0.2,0.4,0.3
				c0.6,2.3,1.9,3.9,2.3,4.4v2c0,0.6-0.4,1.2-0.9,1.4l-6,3c-1.9,1-3.2,2.9-3.2,4.9v2c0,2.9,9.9,3.7,15.3,3.7s15.3-0.8,15.3-3.7V44
				C48.9,42,47.6,40.1,45.5,39.2z"/>
		</g>
		<path class="st2" d="M24.3,22.5c-0.4-0.6-0.9-1-1.6-1h-4.5L23,9.2c0.4-1.1-0.1-2.2-1-2.6c-0.2-0.1-0.4-0.2-0.7-0.2h-6
			c-0.8,0-1.5,0.6-1.7,1.4L8.3,26.7c-0.3,1.1,0.3,2.1,1.2,2.5c0.1,0.1,0.4,0.1,0.5,0.1h4.9l-0.8,10.8c-0.1,0.9,0.5,1.7,1.3,1.8
			c0.7,0.1,1.2-0.3,1.5-0.9l7.6-16.6C24.7,23.8,24.7,23.1,24.3,22.5z"/>
	</g>
</g>
<g id="Livello_6">
	<path class="st2" d="M44.9,39.2L34.2,28.5l10.6-10.7c0.5-0.5,0.5-1.4,0-1.9L41,12.2c-0.5-0.5-1.4-0.5-1.9,0L28.5,22.9L17.8,12.3
		c-0.5-0.5-1.4-0.5-1.9,0l-3.7,3.8c-0.5,0.5-0.5,1.4,0,1.9l10.7,10.6L12.3,39.3c-0.5,0.5-0.5,1.4,0,1.9l3.8,3.7
		c0.5,0.5,1.4,0.5,1.9,0l10.6-10.7l10.7,10.6c0.5,0.5,1.4,0.5,1.9,0l3.7-3.8C45.4,40.5,45.4,39.7,44.9,39.2z"/>
</g>
</svg>
