<?xml version="1.0" encoding="utf-8"?>
<!-- Generator: Adobe Illustrator 19.2.0, SVG Export Plug-In . SVG Version: 6.00 Build 0)  -->
<svg version="1.1" id="Livello_1" xmlns="http://www.w3.org/2000/svg" xmlns:xlink="http://www.w3.org/1999/xlink" x="0px" y="0px"
	 viewBox="0 0 57.1 57.1" style="enable-background:new 0 0 57.1 57.1;" xml:space="preserve">
<style type="text/css">
	.st0{fill:none;stroke:#231F20;stroke-width:0.42;stroke-opacity:0;}
	.st1{fill:#FFFFFF;}
	.st2{fill:#FFFFFF;stroke:#FFFFFF;stroke-width:1.9136;stroke-miterlimit:10;}
</style>
<title>Demo</title>
<rect x="0.2" y="0.2" class="st0" width="56.7" height="56.7"/>
<path class="st1" d="M44.3,37.9V41c0,0.4-0.4,0.7-0.8,0.7h-29h-3H8.4c-0.4,0-0.8-0.3-0.8-0.7V16.5c0-0.4,0.4-0.7,0.8-0.7h12.7
	c0,0,0.2-1.9,1.4-3.3H7.4c-1.5,0-2.7,1.2-2.7,2.7v26.8c0,1.5,1.2,2.7,2.7,2.7h6.2h1.6h29.4c1.5,0,2.7-1.2,2.7-2.7v-5.8
	C46.2,37.7,44.3,37.9,44.3,37.9z"/>
<path class="st2" d="M53,19.2c-0.2-2.3-1-4.5-2.3-6.4c-2.7-4-6.4-6.1-11.1-6.5c-1.9-0.2-3.7,0.1-5.5,0.7c-5.3,1.9-8.5,5.7-9.7,11.2
	c-0.1,0.5-0.2,1-0.2,1.5c0,0.7,0,1.4,0,2.1c0,0.1,0,0.1,0.1,0.2c0.1,0.7,0.2,1.4,0.4,2.1C26.5,32.2,35,37,42.9,34.6
	C49.9,32.5,53.7,25.8,53,19.2z M50.5,26.7c-0.5-0.3-1-0.6-1.5-1c-0.2,0.3-0.4,0.6-0.6,1c0.5,0.3,1,0.7,1.5,1c-1,1.6-2.2,2.9-3.8,4
	l-1,0.6c-1.7,1-3.5,1.5-5.5,1.7c0-0.8,0-1.5,0-2.2c-0.4,0-0.8,0-1.2,0c0,0.7,0,1.5,0,2.2c-2,0-3.8-0.5-5.6-1.3l-1-0.5
	c-1.7-1-3.2-2.4-4.3-4.1c0.5-0.3,1-0.7,1.5-1c-0.2-0.3-0.4-0.6-0.6-1c-0.5,0.3-1,0.6-1.5,1c-1-1.8-1.5-3.7-1.6-5.8l0-1.2
	c0.1-1.9,0.6-3.7,1.4-5.4c0.5,0.3,1,0.7,1.6,1c0.2-0.3,0.4-0.6,0.6-1c-0.5-0.3-1-0.7-1.6-1c1.1-1.7,2.5-3.1,4.2-4.2l1-0.6
	c1.8-0.9,3.8-1.4,5.9-1.5l1.1,12.9c3-1.7,6-3.3,9.1-5l1.6-0.8c0.9,1.7,1.6,3.7,1.7,5.6l0,1.2C51.9,23.2,51.4,25,50.5,26.7z"/>
</svg>
