<?xml version="1.0" encoding="utf-8"?>
<!-- Generator: Adobe Illustrator 14.0.0, SVG Export Plug-In . SVG Version: 6.00 Build 43363)  -->
<!DOCTYPE svg PUBLIC "-//W3C//DTD SVG 1.1//EN" "http://www.w3.org/Graphics/SVG/1.1/DTD/svg11.dtd">
<svg version="1.1" id="Livello_1" xmlns="http://www.w3.org/2000/svg" xmlns:xlink="http://www.w3.org/1999/xlink" x="0px" y="0px"
	 width="56.69px" height="56.69px" viewBox="0 0 56.69 56.69" enable-background="new 0 0 56.69 56.69" xml:space="preserve">
<g>
	<circle fill="#FFFFFF" cx="28.346" cy="17.298" r="3.98"/>
	<path fill="#FFFFFF" d="M48.252,8.271h-3.785c-0.262,0-0.474,0.299-0.474,0.666v4.698H32.731c1.558,0.734,1.687,2.595,1.687,2.595
		h3.944c0,0-6.887,7.952-7.181,7.779c-0.831-0.489-1.801-0.771-2.836-0.771c-1.036,0-2.006,0.281-2.837,0.771
		c-0.293,0.173-7.181-7.779-7.181-7.779h3.944c0,0,0.129-1.86,1.687-2.595H12.697V8.938c0-0.367-0.212-0.666-0.473-0.666H8.438
		c-0.26,0-0.472,0.299-0.472,0.666v11.991c0,0.367,0.212,0.666,0.472,0.666h3.786c0.261,0,0.473-0.299,0.473-0.666V16.23h3.533
		c0,0,6.519,11.527,6.519,12.604v7.385c0,0-0.762-1.124-1.422-1.124h-2.498c-0.865,0-1.215,1.059-1.215,1.427v11.23
		c0,0.368,0.186,0.667,0.411,0.667h3.302c0.228,0,0.412-0.299,0.412-0.667v-5.434h1.386c0.799,1.365,2.826,1.227,5.221,1.227
		c2.394,0,4.421,0.139,5.22-1.227h1.386v5.434c0,0.368,0.186,0.667,0.412,0.667h3.302c0.226,0,0.411-0.299,0.411-0.667v-11.23
		c0-0.368-0.26-1.427-1.168-1.427h-2.545c-0.743,0-1.422,1.124-1.422,1.124v-7.385c0-1.076,6.52-12.604,6.52-12.604h3.532v4.698
		c0,0.367,0.212,0.666,0.474,0.666h3.785c0.26,0,0.472-0.299,0.472-0.666V8.938C48.724,8.57,48.512,8.271,48.252,8.271z"/>
</g>
<rect x="-0.001" y="-0.001" opacity="0" fill="none" stroke="#231F20" stroke-width="0.4199" width="56.692" height="56.693"/>
</svg>
