<?xml version="1.0" encoding="utf-8"?>
<!-- Generator: Adobe Illustrator 19.2.0, SVG Export Plug-In . SVG Version: 6.00 Build 0)  -->
<svg version="1.1" id="Livello_1" xmlns="http://www.w3.org/2000/svg" xmlns:xlink="http://www.w3.org/1999/xlink" x="0px" y="0px"
	 viewBox="0 0 56.7 56.7" style="enable-background:new 0 0 56.7 56.7;" xml:space="preserve">
<style type="text/css">
	.st0{fill:#FFFFFF;}
</style>
<path class="st0" d="M48.5,23.9L48.5,23.9L48.5,23.9c-0.5-0.7-1.3-1.1-2.2-1.1H34.2c-1.5,0-2.7,1.2-2.7,2.7v21.9
	c0,1.5,1.2,2.7,2.7,2.7h12.1c1.5,0,2.7-1.2,2.7-2.7v-22C49,24.9,48.8,24.3,48.5,23.9z M39.4,47.5c0-0.5,0.4-0.9,0.9-0.9
	s0.9,0.4,0.9,0.9s-0.3,0.8-0.8,0.9h-0.2C39.7,48.3,39.4,47.9,39.4,47.5z M32.8,44.6V26.3h14.9v18.4L32.8,44.6L32.8,44.6z"/>
<path class="st0" d="M41.8,11.4H17h-0.5h-6.1c-1.3,0-2.3,1-2.3,2.3v24.8c0,1.3,1,2.3,2.3,2.3h19V38H11.2c-0.4,0-0.7-0.3-0.7-0.6
	V14.6c0-0.3,0.3-0.6,0.7-0.6h4.6h0.6H41c0.4,0,0.7,0.3,0.7,0.6v6h2.4v-6.9C44.1,12.4,43.1,11.4,41.8,11.4z M26.1,38.8
	c0.3,0,0.6,0.3,0.6,0.6S26.4,40,26.1,40c-0.3,0-0.6-0.3-0.6-0.6C25.5,39,25.8,38.8,26.1,38.8z"/>
<polygon class="st0" points="34.3,42.8 34.3,28.1 46.2,28.1 46.2,42.9 34.3,42.9 "/>
</svg>
