<?xml version="1.0" encoding="utf-8"?>
<!-- Generator: Adobe Illustrator 19.2.0, SVG Export Plug-In . SVG Version: 6.00 Build 0)  -->
<svg version="1.1" id="Livello_1" xmlns="http://www.w3.org/2000/svg" xmlns:xlink="http://www.w3.org/1999/xlink" x="0px" y="0px"
	 viewBox="0 0 56.7 56.7" style="enable-background:new 0 0 56.7 56.7;" xml:space="preserve">
<style type="text/css">
	.st0{fill:none;stroke:#231F20;stroke-width:0.4199;stroke-opacity:0;}
	.st1{fill:#FFFFFF;}
</style>
<rect x="0" y="0" class="st0" width="56.7" height="56.7"/>
<path class="st1" d="M16.4,36.2h-5.2c-0.4,0-0.7-0.3-0.7-0.6V14.8c0-0.3,0.3-0.6,0.7-0.6h14.6c0,0,0.2-1.6,1.2-2.8H10.4
	c-1.3,0-2.3,1-2.3,2.3v22.8c0,1.3,1,2.3,2.3,2.3h6.6L16.4,36.2z"/>
<path class="st1" d="M41.7,29.6v6c0,0.3-0.3,0.6-0.7,0.6h-2.2l0.7,2.6h2.3c1.3,0,2.3-1,2.3-2.3v-8.2C43.2,29.4,41.7,29.6,41.7,29.6z
	"/>
<path class="st1" d="M36,33.6c-1.3-0.9-2.8-0.8-3.5-0.8c-0.7-0.9-1.4-1.4-2.3-1.5c-0.3,0-0.7,0-1.1,0.1c-0.6,0.2-1.1,0.5-1.4,0.7
	c-0.7-0.7-1.5-1.1-2.3-1.1c-0.2,0-0.5,0-0.7,0.1c-0.7,0.2-1.4,0.7-1.8,1c-0.3-0.8-2.5-7.2-3.7-10.7c-0.4-1.1-1.6-1.8-2.7-1.4
	c-1.2,0.3-2,1.6-1.6,2.8c2,7.8,3.9,15.5,4.1,16.6c-0.7,0.5-1.8,1.3-2.2,2.3c-0.9,2.2,0.1,3.4,1.1,4.4c2.2,2.1,6,5.9,7.6,7.4L39,50
	c0-0.4,0-0.9,0.1-1.1c0.7-5.6-0.9-10.9-1.5-12.6C37.2,35.2,36.8,34.2,36,33.6z"/>
<g>
	<path class="st1" d="M47.6,14.9h-1c-0.3,0-0.6-0.2-0.7-0.5c-0.1-0.3-0.2-0.5-0.3-0.8c-0.1-0.3-0.1-0.7,0.1-0.9l0.7-0.7
		c0.5-0.5,0.5-1.3,0-1.8l-1.2-1.2c-0.2-0.2-0.6-0.4-0.9-0.4s-0.7,0.1-0.9,0.4l-0.7,0.7c-0.1,0.1-0.3,0.2-0.5,0.2
		c-0.1,0-0.2,0-0.4-0.1c-0.3-0.1-0.5-0.2-0.8-0.3c-0.3-0.1-0.5-0.4-0.5-0.7v-1c0-0.7-0.6-1.3-1.3-1.3h-1.6c-0.7,0-1.3,0.6-1.3,1.3v1
		c0,0.3-0.2,0.6-0.5,0.7c-0.3,0.1-0.5,0.2-0.8,0.3c-0.1,0-0.2,0.1-0.4,0.1c-0.2,0-0.4-0.1-0.5-0.2l-0.7-0.7
		c-0.2-0.2-0.6-0.4-0.9-0.4c-0.3,0-0.7,0.1-0.9,0.4l-1.2,1.2c-0.2,0.2-0.4,0.6-0.4,0.9c0,0.3,0.1,0.7,0.4,0.9l0.7,0.7
		c0.2,0.2,0.2,0.6,0.1,0.9c-0.1,0.3-0.2,0.5-0.3,0.8c-0.1,0.3-0.4,0.5-0.7,0.5h-1c-0.7,0-1.3,0.6-1.3,1.3v1.6c0,0.7,0.6,1.3,1.3,1.3
		h1c0.3,0,0.6,0.2,0.7,0.5c0.1,0.3,0.2,0.5,0.3,0.8c0.1,0.3,0.1,0.7-0.1,0.9L30.4,22c-0.5,0.5-0.5,1.3,0,1.8l1.2,1.2
		c0.2,0.2,0.6,0.4,0.9,0.4c0.3,0,0.7-0.1,0.9-0.4l0.7-0.7c0.1-0.1,0.3-0.2,0.5-0.2c0.1,0,0.2,0,0.4,0.1c0.3,0.1,0.5,0.2,0.8,0.3
		c0.3,0.1,0.5,0.4,0.5,0.7v1c0,0.7,0.6,1.3,1.3,1.3h1.6c0.7,0,1.3-0.6,1.3-1.3v-1c0-0.3,0.2-0.6,0.5-0.7c0.3-0.1,0.5-0.2,0.8-0.3
		c0.1,0,0.2-0.1,0.3-0.1c0.2,0,0.4,0.1,0.5,0.2l0.7,0.7c0.2,0.2,0.6,0.4,0.9,0.4c0.3,0,0.7-0.1,0.9-0.4l1.2-1.2
		c0.5-0.5,0.5-1.3,0-1.8l-0.7-0.7c-0.2-0.2-0.2-0.6-0.1-0.9c0.1-0.3,0.2-0.5,0.3-0.8c0.1-0.3,0.4-0.5,0.7-0.5h1
		c0.7,0,1.3-0.6,1.3-1.3v-1.6C48.8,15.5,48.3,14.9,47.6,14.9z M38.4,22.1c-2.8,0-5.1-2.3-5.1-5.1c0-2.8,2.3-5.1,5.1-5.1
		c2.8,0,5.1,2.3,5.1,5.1C43.5,19.8,41.2,22.1,38.4,22.1z"/>
	<path class="st1" d="M38.4,12.4c-2.6,0-4.6,2.1-4.6,4.6c0,2.6,2.1,4.6,4.6,4.6c2.6,0,4.6-2.1,4.6-4.6S41,12.4,38.4,12.4z
		 M38.4,20.2c-1.8,0-3.2-1.4-3.2-3.2c0-1.8,1.4-3.2,3.2-3.2c1.8,0,3.2,1.4,3.2,3.2C41.6,18.8,40.2,20.2,38.4,20.2z"/>
</g>
</svg>
