<?xml version="1.0" encoding="utf-8"?>
<!-- Generator: Adobe Illustrator 19.2.0, SVG Export Plug-In . SVG Version: 6.00 Build 0)  -->
<svg version="1.1" id="Livello_1" xmlns="http://www.w3.org/2000/svg" xmlns:xlink="http://www.w3.org/1999/xlink" x="0px" y="0px"
	 viewBox="0 0 56.7 56.7" style="enable-background:new 0 0 56.7 56.7;" xml:space="preserve">
<style type="text/css">
	.st0{fill:#FFFFFF;}
	.st1{fill:none;stroke:#231F20;stroke-width:0.4199;stroke-opacity:0;}
</style>
<g>
	<path class="st0" d="M21.6,28.3c0-0.6,0.3-1.2,0.9-1.5l13.3-10.6v-2.5c0-0.6-0.4-1.2-1-1.5c-0.3-0.1-0.7-0.2-1-0.2
		c-0.4,0-0.7,0.1-1,0.2L11,26.9c-0.6,0.3-1,0.9-1,1.5c0,0.6,0.4,1.2,1,1.5l21.8,14.6c0.6,0.3,1.4,0.3,2.1,0c0.7-0.3,1-0.9,1-1.5
		v-2.6L22.5,29.8C22,29.5,21.6,28.9,21.6,28.3z"/>
	<path class="st0" d="M45.9,12.3c-0.3-0.1-0.6-0.2-0.9-0.2s-0.6,0.1-0.9,0.2L25.7,26.9c-0.5,0.3-0.9,0.9-0.9,1.5
		c0,0.6,0.3,1.2,0.9,1.5l18.4,14.6c0.5,0.3,1.2,0.3,1.8,0c0.5-0.3,0.9-0.9,0.9-1.5V13.8C46.8,13.2,46.4,12.6,45.9,12.3z"/>
</g>
<rect x="0" y="0" class="st1" width="56.7" height="56.7"/>
</svg>
