<?xml version="1.0" encoding="UTF-8" standalone="no"?>
<!-- Generator: Adobe Illustrator 19.2.0, SVG Export Plug-In . SVG Version: 6.00 Build 0)  -->

<svg
   xmlns:dc="http://purl.org/dc/elements/1.1/"
   xmlns:cc="http://creativecommons.org/ns#"
   xmlns:rdf="http://www.w3.org/1999/02/22-rdf-syntax-ns#"
   xmlns:svg="http://www.w3.org/2000/svg"
   xmlns="http://www.w3.org/2000/svg"
   xmlns:sodipodi="http://sodipodi.sourceforge.net/DTD/sodipodi-0.dtd"
   xmlns:inkscape="http://www.inkscape.org/namespaces/inkscape"
   version="1.1"
   id="Livello_1"
   x="0px"
   y="0px"
   viewBox="0 0 56.7 56.7"
   style="enable-background:new 0 0 56.7 56.7;"
   xml:space="preserve"
   sodipodi:docname="IndietroW2.svg"
   inkscape:version="0.92.4 (5da689c313, 2019-01-14)"><metadata
   id="metadata17"><rdf:RDF><cc:Work
       rdf:about=""><dc:format>image/svg+xml</dc:format><dc:type
         rdf:resource="http://purl.org/dc/dcmitype/StillImage" /><dc:title /></cc:Work></rdf:RDF></metadata><defs
   id="defs15" /><sodipodi:namedview
   pagecolor="#ffffff"
   bordercolor="#666666"
   borderopacity="1"
   objecttolerance="10"
   gridtolerance="10"
   guidetolerance="10"
   inkscape:pageopacity="0"
   inkscape:pageshadow="2"
   inkscape:window-width="1920"
   inkscape:window-height="1017"
   id="namedview13"
   showgrid="false"
   inkscape:zoom="4.1622574"
   inkscape:cx="-11.892586"
   inkscape:cy="28.35"
   inkscape:window-x="-8"
   inkscape:window-y="108"
   inkscape:window-maximized="1"
   inkscape:current-layer="Livello_1" />
<style
   type="text/css"
   id="style2">
	.st0{fill:#FFFFFF;}
	.st1{fill:none;stroke:#231F20;stroke-width:0.4199;stroke-opacity:0;}
</style>
<g
   id="g8"
   transform="matrix(1.5353492,0,0,1.5353492,-15.203916,-15.183839)">
	<path
   class="st0"
   d="m 21.6,28.3 c 0,-0.6 0.3,-1.2 0.9,-1.5 L 35.8,16.2 v -2.5 c 0,-0.6 -0.4,-1.2 -1,-1.5 -0.3,-0.1 -0.7,-0.2 -1,-0.2 -0.4,0 -0.7,0.1 -1,0.2 L 11,26.9 c -0.6,0.3 -1,0.9 -1,1.5 0,0.6 0.4,1.2 1,1.5 l 21.8,14.6 c 0.6,0.3 1.4,0.3 2.1,0 0.7,-0.3 1,-0.9 1,-1.5 V 40.4 L 22.5,29.8 C 22,29.5 21.6,28.9 21.6,28.3 Z"
   id="path4"
   inkscape:connector-curvature="0"
   style="fill:#ffffff" />
	<path
   class="st0"
   d="m 45.9,12.3 c -0.3,-0.1 -0.6,-0.2 -0.9,-0.2 -0.3,0 -0.6,0.1 -0.9,0.2 L 25.7,26.9 c -0.5,0.3 -0.9,0.9 -0.9,1.5 0,0.6 0.3,1.2 0.9,1.5 l 18.4,14.6 c 0.5,0.3 1.2,0.3 1.8,0 0.5,-0.3 0.9,-0.9 0.9,-1.5 V 13.8 c 0,-0.6 -0.4,-1.2 -0.9,-1.5 z"
   id="path6"
   inkscape:connector-curvature="0"
   style="fill:#ffffff" />
</g>
<rect
   x="0"
   y="0"
   class="st1"
   width="56.7"
   height="56.7"
   id="rect10" />
</svg>