<?xml version="1.0" encoding="utf-8"?>
<!-- Generator: Adobe Illustrator 14.0.0, SVG Export Plug-In . SVG Version: 6.00 Build 43363)  -->
<!DOCTYPE svg PUBLIC "-//W3C//DTD SVG 1.1//EN" "http://www.w3.org/Graphics/SVG/1.1/DTD/svg11.dtd">
<svg version="1.1" id="Livello_1" xmlns="http://www.w3.org/2000/svg" xmlns:xlink="http://www.w3.org/1999/xlink" x="0px" y="0px"
	 width="56.69px" height="56.689px" viewBox="0 0 56.69 56.689" enable-background="new 0 0 56.69 56.689" xml:space="preserve">
<rect x="-0.001" y="-0.001" fill="none" stroke="#231F20" stroke-width="0.4199" stroke-opacity="0" width="56.691" height="56.692"/>
<g>
	<path fill="#FFFFFF" d="M50.865,10.001l-1.048-0.403c-0.25-0.096-0.59,0.18-0.754,0.607l-0.376,0.975
		c-0.163,0.428-0.503,0.698-0.749,0.603l-0.984-0.375c-0.247-0.097-0.317-0.522-0.149-0.954l0.37-0.969
		c0.167-0.433,0.096-0.857-0.149-0.958L35.224,3.995c-0.252-0.091-0.587,0.176-0.755,0.61l-0.373,0.97
		c-0.166,0.43-0.499,0.704-0.749,0.606l-0.982-0.374c-0.249-0.095-0.319-0.522-0.152-0.955l0.372-0.973
		c0.169-0.428,0.098-0.855-0.15-0.951l-1.017-0.39c-0.249-0.093-0.589,0.176-0.75,0.603l-5.682,14.799
		c0.716,0.037,1.42,0.116,2.113,0.232l0.352-0.917c0.167-0.429,0.502-0.703,0.751-0.604l0.985,0.376
		c0.246,0.101,0.315,0.524,0.15,0.954l-0.242,0.634c0.725,0.205,1.432,0.453,2.118,0.736c0.15-0.145,0.32-0.212,0.461-0.156
		l7.855,3.015c0.25,0.096,0.318,0.522,0.153,0.955l-0.797,2.076c1.773,2.293,3.024,5.009,3.584,7.972l8.543-22.253
		C51.186,10.524,51.114,10.098,50.865,10.001z M32.034,10.962l-0.65,1.696c-0.166,0.432-0.5,0.701-0.752,0.606l-0.98-0.379
		c-0.251-0.091-0.318-0.521-0.153-0.951l0.651-1.695c0.166-0.428,0.503-0.703,0.752-0.604l0.979,0.375
		C32.132,10.105,32.198,10.533,32.034,10.962z M40.781,18.957l-7.858-3.016c-0.252-0.093-0.318-0.519-0.154-0.953l2.41-6.27
		c0.167-0.436,0.503-0.708,0.755-0.612l7.854,3.019c0.247,0.095,0.318,0.519,0.152,0.949l-2.407,6.278
		C41.367,18.785,41.032,19.056,40.781,18.957z M43.93,23.578l-0.648,1.691c-0.168,0.434-0.502,0.707-0.751,0.61l-0.981-0.378
		c-0.252-0.093-0.317-0.522-0.152-0.956l0.649-1.689c0.164-0.436,0.503-0.703,0.751-0.61l0.98,0.381
		C44.028,22.721,44.095,23.149,43.93,23.578z M46.623,16.561l-0.65,1.692c-0.163,0.437-0.5,0.704-0.75,0.608l-0.981-0.377
		c-0.248-0.094-0.319-0.52-0.152-0.953l0.65-1.688c0.162-0.433,0.503-0.709,0.751-0.608l0.98,0.375
		C46.717,15.707,46.789,16.129,46.623,16.561z"/>
	<path fill="#FFFFFF" d="M23.991,19.974c-9.249,0-16.748,7.497-16.748,16.748c0,9.25,7.5,16.75,16.748,16.75
		c9.25,0,16.75-7.499,16.75-16.75C40.74,27.471,33.241,19.974,23.991,19.974z M35.085,31.117c0,2.05-1.667,3.714-3.719,3.714
		c-2.053,0-3.716-1.664-3.716-3.714c0-2.054,1.663-3.719,3.716-3.719C33.422,27.4,35.085,29.064,35.085,31.117z M27.886,23.684
		c0.635,0,1.15,0.513,1.15,1.151c0,0.637-0.516,1.152-1.15,1.152c-0.639,0-1.151-0.515-1.151-1.152
		C26.734,24.197,27.25,23.684,27.886,23.684z M21.443,23.684c2.051,0,3.715,1.663,3.715,3.714c0,2.053-1.664,3.719-3.715,3.719
		c-2.051,0-3.715-1.666-3.715-3.719C17.728,25.346,19.392,23.684,21.443,23.684z M14.345,27.858c0.635,0,1.15,0.514,1.15,1.152
		c0,0.636-0.513,1.15-1.15,1.15s-1.152-0.515-1.152-1.15C13.193,28.374,13.709,27.858,14.345,27.858z M13.632,44.718
		c-0.636,0-1.153-0.515-1.153-1.149c0-0.637,0.515-1.15,1.153-1.15c0.637,0,1.151,0.514,1.151,1.15
		C14.783,44.203,14.269,44.718,13.632,44.718z M14.009,40.101c-2.053,0-3.716-1.664-3.716-3.718c0-2.051,1.665-3.715,3.716-3.715
		c2.051,0,3.715,1.664,3.715,3.715C17.728,38.437,16.062,40.101,14.009,40.101z M20.962,49.016c-2.053,0-3.716-1.667-3.716-3.719
		c0-2.049,1.664-3.716,3.716-3.716c2.051,0,3.716,1.667,3.716,3.716C24.679,47.349,23.013,49.016,20.962,49.016z M23.992,38.25
		c-0.842,0-1.526-0.685-1.526-1.529c0-0.844,0.685-1.527,1.526-1.527c0.843,0,1.528,0.684,1.528,1.527
		C25.52,37.566,24.835,38.25,23.992,38.25z M27.886,49.507c-0.639,0-1.151-0.518-1.151-1.153c0-0.637,0.516-1.152,1.151-1.152
		c0.635,0,1.15,0.516,1.15,1.152C29.036,48.989,28.521,49.507,27.886,49.507z M31.368,46.134c-2.055,0-3.717-1.664-3.717-3.716
		c0-2.054,1.665-3.717,3.717-3.717c2.054,0,3.718,1.663,3.718,3.717C35.086,44.47,33.422,46.134,31.368,46.134z M37.384,36.721
		c0,0.636-0.513,1.15-1.148,1.15c-0.637,0-1.15-0.516-1.15-1.15c0-0.636,0.514-1.151,1.15-1.151
		C36.871,35.57,37.384,36.085,37.384,36.721z"/>
</g>
</svg>
