<?xml version="1.0" encoding="utf-8"?>
<!-- Generator: Adobe Illustrator 14.0.0, SVG Export Plug-In . SVG Version: 6.00 Build 43363)  -->
<!DOCTYPE svg PUBLIC "-//W3C//DTD SVG 1.1//EN" "http://www.w3.org/Graphics/SVG/1.1/DTD/svg11.dtd">
<svg version="1.1" xmlns="http://www.w3.org/2000/svg" xmlns:xlink="http://www.w3.org/1999/xlink" x="0px" y="0px" width="56.69px"
	 height="56.689px" viewBox="0 0 56.69 56.689" enable-background="new 0 0 56.69 56.689" xml:space="preserve">
<g id="Livello_1">
	
		<rect x="-0.001" y="-0.001" fill="none" stroke="#231F20" stroke-width="0.4199" stroke-opacity="0" width="56.693" height="56.691"/>
</g>
<g id="Livello_3">
	<g>
		<path fill="#FFFFFF" d="M25.399,18.948c-2.295,0-4.302,1.235-5.391,3.077c0,0,1.699,1.014,1.777,2.991
			c0.075,1.904-1.94,3.075-1.94,3.075c1.044,2.003,3.14,3.37,5.554,3.37c2.456,0,4.652-1.485,5.539-3.345
			c0,0-1.287-1.723-1.337-3.275c-0.055-1.696,1.219-2.764,1.219-2.764C29.738,20.207,27.716,18.948,25.399,18.948z"/>
		<rect x="7.085" y="46.821" fill="#FFFFFF" width="36.313" height="1.741"/>
		<polygon fill="#FFFFFF" points="35.651,20.264 47.789,15.115 45.072,12.826 49.101,10.718 46.128,8.128 39.32,11.942 
			42.156,14.329 		"/>
		<polygon fill="#FFFFFF" points="38.417,11.997 36.185,11.281 38.12,8.985 35.66,8.143 32.45,12.177 34.787,12.927 32.293,18.177 
					"/>
		<polygon fill="#FFFFFF" points="49.605,21.061 48.826,18.439 43.413,18.134 44.188,20.591 38.164,21.646 47.193,23.146 
			46.454,20.794 		"/>
		<path fill="#FFFFFF" d="M14.25,20.859l1.981,1.069l1.437-0.682c-0.031-0.059-0.087-0.102-0.164-0.119l-1.295-0.914l2.514-1.527
			c0.08-0.044,0.14-0.111,0.164-0.185c0.027-0.075,0.015-0.144-0.025-0.197l-1.445-1.9l2.996-0.173
			c0.086-0.007,0.173-0.035,0.24-0.09c0.067-0.056,0.108-0.128,0.115-0.198l-0.029-3.941l2.355,2.75
			c0.063,0.036,0.144,0.054,0.231,0.037c0.083-0.015,0.161-0.062,0.221-0.123l1.93-2.107l0.523,2.418
			c0.018,0.069,0.059,0.124,0.132,0.151c0.064,0.028,0.147,0.031,0.234,0l2.954-0.985l-0.412,2.108
			c-0.033,0.069-0.041,0.144-0.016,0.206l1.447-0.677l0.748-2.722c0.064-0.113,0.055-0.233-0.028-0.31
			c-0.082-0.077-0.225-0.099-0.347-0.055l-3.728,1.24l-0.656-3.052c-0.023-0.107-0.122-0.18-0.254-0.188
			c-0.122-0.008-0.263,0.048-0.355,0.148l-2.438,2.657l-2.867-3.094c-0.188-0.127-0.563,0.049-0.604,0.281l-0.077,4.598L15.968,15.5
			c-0.134,0.008-0.267,0.082-0.344,0.189c-0.077,0.106-0.087,0.229-0.015,0.319l1.813,2.385l-3.183,1.931
			c-0.119,0.068-0.191,0.189-0.188,0.305C14.048,20.741,14.131,20.831,14.25,20.859z"/>
		<path fill="#FFFFFF" d="M10.298,36.309c3.854-0.119,7.027-0.734,7.027-0.734l-0.17,10.396h15.448l-0.091-6.693l3.987,1.004
			c0,0,4.13-0.061,4.13-2.167c0-2.898-2.394-7.016-2.394-7.016l-3.015-6.153c-0.603-1.77-2.261-2.745-3.371-2.228
			c-0.932,0.436-1.076,0.922-1.19,1.957c-0.049,0.465,0.111,0.93,0.272,1.389l3.815,7.587l0.016,0.012
			c0.119,0.297,0.279,0.522,0.194,0.65c-0.366,0.379-2.075-1.888-4.361-2.342c-0.319-0.065-0.03-0.074-0.563-0.128
			c0,0-1.659,1.766-4.641,1.766c-2.803,0-4.815-1.976-4.815-1.976c-5.032-0.815-5.754,0.172-5.994-0.355
			c0.34-0.926,5.868-4.989,5.868-4.989c0.188-0.25,0.311-0.517,0.378-0.796c0.196-0.828-0.104-1.722-0.82-2.255
			c-0.963-0.723-2.329-0.526-3.051,0.44c0,0-8.887,7.298-9.428,8.616C6.986,33.612,6.446,36.428,10.298,36.309z"/>
	</g>
</g>
</svg>
