<?xml version="1.0" encoding="utf-8"?>
<!-- Generator: Adobe Illustrator 14.0.0, SVG Export Plug-In . SVG Version: 6.00 Build 43363)  -->
<!DOCTYPE svg PUBLIC "-//W3C//DTD SVG 1.1//EN" "http://www.w3.org/Graphics/SVG/1.1/DTD/svg11.dtd">
<svg version="1.1" xmlns="http://www.w3.org/2000/svg" xmlns:xlink="http://www.w3.org/1999/xlink" x="0px" y="0px" width="56.69px"
	 height="56.689px" viewBox="0 0 56.69 56.689" enable-background="new 0 0 56.69 56.689" xml:space="preserve">
<g id="Livello_1">
	<rect x="-0.048" y="-0.001" opacity="0" fill="none" stroke="#231F20" stroke-width="0.4199" width="56.691" height="56.691"/>
</g>
<g id="Livello_2">
	<g>
		<path fill="#FFFFFF" d="M42.398,33.82l-5.006-1.004l-2.247-8.255c-0.151-0.55-0.583-0.927-1.087-1.096v-0.1
			c0,0-3.768-1.641-7.046-1.641s-7.046,1.641-7.046,1.641v0.1c-0.506,0.168-0.936,0.554-1.087,1.104l-2.248,8.247l-5.006,2.143
			c-0.832,0.358-1.215,1.32-0.856,2.15c0.264,0.616,0.863,0.992,1.503,0.992c0.216,0,0.432-0.04,0.648-0.135l5.726-2.455
			c0.39-0.169,0.664-0.496,0.832-0.882v0.034l0.055-0.128c0.009-0.04,0.04-0.066,0.049-0.105l0.023-0.071l1.672-3.958l0.047,7.287
			l5.473,2.188l5.899-2.758l0.049-6.718l1.672,3.967l0.023,0.071c0.007,0.03,0.031,0.057,0.048,0.088l0.057,0.137v-0.034
			c0.167,0.386,0.439,0.713,0.83,0.882l5.735,1.314c0.207,0.098,0.424,0.138,0.639,0.138c0.641,0,1.24-0.377,1.503-0.994
			C43.614,35.139,43.23,34.169,42.398,33.82z"/>
		<circle fill="#FFFFFF" cx="27.225" cy="15.877" r="4.699"/>
		<path fill="#FFFFFF" d="M15.262,8.805c0.282-0.238,0.632-0.357,1.05-0.357c0.434,0,0.779,0.114,1.035,0.343
			s0.384,0.503,0.384,0.824c0,0.231-0.073,0.441-0.217,0.633c-0.093,0.121-0.381,0.377-0.861,0.768
			c-0.481,0.391-0.802,0.743-0.961,1.056c-0.161,0.313-0.241,0.711-0.241,1.196c0,0.046,0.002,0.178,0.006,0.393h1.495
			c-0.007-0.453,0.031-0.768,0.114-0.944c0.084-0.175,0.301-0.408,0.648-0.697c0.673-0.559,1.111-1.001,1.316-1.326
			c0.205-0.324,0.308-0.668,0.308-1.031c0-0.656-0.279-1.232-0.838-1.726c-0.56-0.495-1.312-0.742-2.258-0.742
			c-0.898,0-1.625,0.244-2.178,0.732c-0.554,0.489-0.851,1.083-0.894,1.783l1.513,0.187C14.788,9.408,14.981,9.044,15.262,8.805z"/>
		<rect x="15.456" y="14.229" fill="#FFFFFF" width="1.647" height="1.647"/>
		<path fill="#FFFFFF" d="M44.613,8.062c-0.961-0.851-2.256-1.276-3.883-1.276c-1.546,0-2.796,0.42-3.747,1.261
			c-0.952,0.84-1.464,1.862-1.538,3.066l2.602,0.323c0.182-0.841,0.515-1.466,0.999-1.876c0.483-0.41,1.085-0.615,1.806-0.615
			c0.745,0,1.341,0.197,1.779,0.59c0.441,0.393,0.662,0.866,0.662,1.417c0,0.396-0.125,0.76-0.373,1.089
			c-0.162,0.209-0.656,0.649-1.483,1.321c-0.827,0.673-1.38,1.278-1.653,1.816c-0.276,0.538-0.414,1.224-0.414,2.057
			c0,0.082,0.005,0.307,0.009,0.676h2.573c-0.014-0.78,0.051-1.321,0.195-1.624c0.146-0.303,0.518-0.703,1.116-1.201
			c1.156-0.961,1.912-1.721,2.264-2.279c0.353-0.558,0.529-1.149,0.529-1.775C46.056,9.903,45.575,8.913,44.613,8.062z"/>
		<rect x="39.378" y="18.89" fill="#FFFFFF" width="2.836" height="2.834"/>
		<path fill="#FFFFFF" d="M37.765,37.236l-19.316,8.353c-1.333,0.577-1.997,2.148-1.37,3.46c0.485,1.016,2.531,1.08,4.382,0.438
			l6.193-2.099l4.165,1.529c1.033,0.394,3.168,1.032,4-0.345c0.751-1.244-0.185-2.877-1.545-3.385l-0.886-0.327l6.465-2.795
			c1.333-0.577,1.947-2.125,1.37-3.459C40.646,37.273,39.097,36.659,37.765,37.236z"/>
		<path fill="#FFFFFF" d="M24.554,40.732l-8.03-2.86c-1.368-0.487-2.873,0.228-3.36,1.597c-0.487,1.367,0.227,2.873,1.595,3.36
			l2.965,1.055L24.554,40.732z"/>
	</g>
</g>
</svg>
