<?xml version="1.0" encoding="utf-8"?>
<!-- Generator: Adobe Illustrator 14.0.0, SVG Export Plug-In . SVG Version: 6.00 Build 43363)  -->
<!DOCTYPE svg PUBLIC "-//W3C//DTD SVG 1.1//EN" "http://www.w3.org/Graphics/SVG/1.1/DTD/svg11.dtd">
<svg version="1.1" id="Livello_1" xmlns="http://www.w3.org/2000/svg" xmlns:xlink="http://www.w3.org/1999/xlink" x="0px" y="0px"
	 width="56.69px" height="56.69px" viewBox="0 0 56.69 56.69" enable-background="new 0 0 56.69 56.69" xml:space="preserve">
<g>
	<circle fill="#FFFFFF" cx="28.349" cy="17.354" r="3.96"/>
	<path fill="#FFFFFF" d="M46.407,8.374h-2.02c-0.26,0-0.471,0.297-0.471,0.663v4.674H32.712c1.55,0.73,1.679,2.581,1.679,2.581
		h3.924c0,0-6.852,7.912-7.144,7.74c-0.827-0.487-1.792-0.767-2.822-0.767s-1.994,0.279-2.821,0.767
		c-0.292,0.172-7.145-7.74-7.145-7.74h3.924c0,0,0.129-1.851,1.679-2.581H12.781V9.037c0-0.366-0.211-0.663-0.471-0.663h-2.02
		c-0.258,0-0.469,0.297-0.469,0.663v11.93c0,0.365,0.211,0.663,0.469,0.663h2.02c0.259,0,0.471-0.298,0.471-0.663v-4.675h3.515
		c0,0,6.486,11.469,6.486,12.539v7.347c0,0-0.758-1.117-1.415-1.117h-2.486c-0.861,0-1.208,1.053-1.208,1.419v11.174
		c0,0.365,0.184,0.663,0.409,0.663h3.285c0.226,0,0.41-0.298,0.41-0.663v-5.406h1.378c0.795,1.358,2.812,1.22,5.193,1.22
		c2.383,0,4.398,0.139,5.193-1.22h1.379v5.406c0,0.365,0.185,0.663,0.41,0.663h3.285c0.225,0,0.408-0.298,0.408-0.663V36.479
		c0-0.366-0.258-1.419-1.162-1.419h-2.531c-0.739,0-1.415,1.117-1.415,1.117v-7.347c0-1.07,6.486-12.539,6.486-12.539h3.515v4.675
		c0,0.365,0.211,0.663,0.471,0.663h2.02c0.258,0,0.47-0.298,0.47-0.663V9.037C46.877,8.671,46.665,8.374,46.407,8.374z"/>
	<path fill="#FFFFFF" d="M8.818,8.374H6.799c-0.258,0-0.47,0.297-0.47,0.663v11.93c0,0.365,0.211,0.663,0.47,0.663h2.019
		c0.26,0,0.471-0.298,0.471-0.663V9.037C9.289,8.671,9.078,8.374,8.818,8.374z"/>
	<path fill="#FFFFFF" d="M5.703,11.562H4.56c-0.146,0-0.266,0.168-0.266,0.375v6.755c0,0.207,0.12,0.376,0.266,0.376h1.143
		c0.147,0,0.267-0.169,0.267-0.376v-6.755C5.97,11.729,5.85,11.562,5.703,11.562z"/>
	<path fill="#FFFFFF" d="M49.891,8.374h-2.019c-0.26,0-0.471,0.297-0.471,0.663v11.93c0,0.365,0.211,0.663,0.471,0.663h2.019
		c0.259,0,0.47-0.298,0.47-0.663V9.037C50.36,8.671,50.149,8.374,49.891,8.374z"/>
	<path fill="#FFFFFF" d="M52.13,11.562h-1.143c-0.147,0-0.267,0.168-0.267,0.375v6.755c0,0.207,0.119,0.376,0.267,0.376h1.143
		c0.146,0,0.267-0.169,0.267-0.376v-6.755C52.396,11.729,52.276,11.562,52.13,11.562z"/>
</g>
<rect x="-0.001" y="-0.001" opacity="0" fill="none" stroke="#231F20" stroke-width="0.4199" width="56.692" height="56.693"/>
</svg>
