<?xml version="1.0" encoding="utf-8"?>
<!-- Generator: Adobe Illustrator 14.0.0, SVG Export Plug-In . SVG Version: 6.00 Build 43363)  -->
<!DOCTYPE svg PUBLIC "-//W3C//DTD SVG 1.1//EN" "http://www.w3.org/Graphics/SVG/1.1/DTD/svg11.dtd">
<svg version="1.1" id="Livello_1" xmlns="http://www.w3.org/2000/svg" xmlns:xlink="http://www.w3.org/1999/xlink" x="0px" y="0px"
	 width="56.69px" height="56.69px" viewBox="0 0 56.69 56.69" enable-background="new 0 0 56.69 56.69" xml:space="preserve">
<g>
	<circle fill="#FFFFFF" cx="28.345" cy="17.346" r="3.963"/>
	<path fill="#FFFFFF" d="M47.466,8.358h-3.069c-0.26,0-0.471,0.297-0.471,0.663v4.678H32.712c1.551,0.731,1.68,2.584,1.68,2.584
		h3.927c0,0-6.856,7.918-7.149,7.745c-0.828-0.487-1.793-0.767-2.824-0.767s-1.996,0.279-2.824,0.767
		c-0.292,0.173-7.149-7.745-7.149-7.745h3.927c0,0,0.129-1.853,1.68-2.584H12.765V9.021c0-0.366-0.211-0.663-0.471-0.663h-3.07
		c-0.258,0-0.47,0.297-0.47,0.663v11.939c0,0.366,0.211,0.663,0.47,0.663h3.07c0.26,0,0.471-0.297,0.471-0.663v-4.678h3.518
		c0,0,6.491,11.477,6.491,12.549v7.353c0,0-0.759-1.119-1.416-1.119H18.87c-0.862,0-1.209,1.054-1.209,1.42v11.183
		c0,0.366,0.185,0.664,0.409,0.664h3.288c0.226,0,0.411-0.298,0.411-0.664v-5.41h1.379c0.796,1.359,2.813,1.221,5.197,1.221
		c2.385,0,4.402,0.139,5.198-1.221h1.379v5.41c0,0.366,0.185,0.664,0.411,0.664h3.287c0.225,0,0.409-0.298,0.409-0.664V36.485
		c0-0.366-0.259-1.42-1.163-1.42h-2.533c-0.74,0-1.416,1.119-1.416,1.119v-7.353c0-1.072,6.491-12.549,6.491-12.549h3.518v4.678
		c0,0.366,0.211,0.663,0.471,0.663h3.069c0.259,0,0.471-0.297,0.471-0.663V9.021C47.937,8.655,47.725,8.358,47.466,8.358z"/>
</g>
<rect x="-0.001" y="-0.001" opacity="0" fill="none" stroke="#231F20" stroke-width="0.4199" width="56.692" height="56.693"/>
</svg>
