<?xml version="1.0" encoding="utf-8"?>
<!-- Generator: Adobe Illustrator 14.0.0, SVG Export Plug-In . SVG Version: 6.00 Build 43363)  -->
<!DOCTYPE svg PUBLIC "-//W3C//DTD SVG 1.1//EN" "http://www.w3.org/Graphics/SVG/1.1/DTD/svg11.dtd">
<svg version="1.1" id="Livello_1" xmlns="http://www.w3.org/2000/svg" xmlns:xlink="http://www.w3.org/1999/xlink" x="0px" y="0px"
	 width="56.69px" height="56.689px" viewBox="0 0 56.69 56.689" enable-background="new 0 0 56.69 56.689" xml:space="preserve">
<g>
	<path fill="#FFFFFF" d="M35.603,33.95c-1.25-0.876-2.796-0.84-3.442-0.779c-0.661-0.882-1.438-1.371-2.313-1.46
		c-0.342-0.03-0.699,0-1.054,0.097c-0.598,0.159-1.091,0.468-1.414,0.71c-0.712-0.738-1.495-1.106-2.328-1.094
		c-0.233,0.004-0.467,0.038-0.698,0.097c-0.747,0.202-1.351,0.665-1.748,1.04c-0.334-0.769-2.493-7.144-3.694-10.631
		c-0.383-1.116-1.566-1.748-2.71-1.441c-1.22,0.328-1.946,1.577-1.625,2.798c2.03,7.72,3.868,15.386,4.131,16.549
		c-0.656,0.544-1.84,1.346-2.207,2.29c-0.847,2.155,0.109,3.413,1.063,4.336c2.153,2.09,5.931,5.85,7.526,7.396l13.514-3.621
		c0.017-0.429,0.037-0.872,0.068-1.107c0.736-5.586-0.927-10.835-1.475-12.51C36.823,35.488,36.452,34.546,35.603,33.95z"/>
	<path fill="#FFFFFF" d="M16.152,36.485h-5.216c-0.368,0-0.665-0.276-0.665-0.618V15.208c0-0.339,0.297-0.615,0.665-0.615
		l7.334-0.027l-0.877-2.753h-7.294c-1.276,0-2.311,1.033-2.311,2.306v22.691c0,1.272,1.034,2.304,2.311,2.304h6.54L16.152,36.485z"
		/>
	<path fill="#FFFFFF" d="M41.301,35.867c0,0.342-0.297,0.618-0.664,0.618h-2.168l0.73,2.627h2.275c1.276,0,2.312-1.031,2.312-2.304
		v-2.76l-2.485-1.023V35.867z"/>
	<path fill="#FFFFFF" d="M23.443,24.945c0.331,1.02,1.426,1.578,2.445,1.247l3.584-1.162l4.142-11.021
		c-0.187-0.195-0.336-0.435-0.428-0.711c-0.316-0.973,0.216-2.018,1.189-2.333c0.137-0.044,0.276-0.07,0.412-0.08l0.388-1.027
		c0.414-1.102,1.644-1.659,2.745-1.245l0.725,0.271l-1.524-4.707c-0.332-1.02-1.428-1.578-2.448-1.248L19.9,7.72
		c-1.02,0.332-1.579,1.427-1.249,2.445L23.443,24.945z M32.8,6.098c0.974-0.314,2.019,0.218,2.335,1.191
		c0.317,0.972-0.217,2.016-1.192,2.331c-0.973,0.315-2.017-0.217-2.33-1.189C31.295,7.456,31.83,6.413,32.8,6.098z M28.603,20.318
		c0.315,0.973-0.218,2.017-1.189,2.333c-0.973,0.314-2.019-0.218-2.334-1.19c-0.317-0.973,0.217-2.018,1.19-2.333
		S28.287,19.346,28.603,20.318z M26.979,15.313c0.316,0.973-0.217,2.016-1.19,2.333c-0.974,0.314-2.018-0.218-2.333-1.19
		c-0.316-0.975,0.216-2.016,1.189-2.333C25.619,13.807,26.663,14.339,26.979,15.313z M23.067,9.254
		c0.973-0.314,2.018,0.218,2.333,1.191c0.315,0.975-0.216,2.018-1.19,2.333c-0.973,0.317-2.018-0.219-2.333-1.191
		C21.563,10.615,22.094,9.571,23.067,9.254z"/>
	<path fill="#FFFFFF" d="M52.842,15.236L38.301,9.768C37.296,9.392,36.178,9.9,35.8,10.903l-5.463,14.542
		c-0.38,1.004,0.129,2.125,1.133,2.5l14.541,5.467c1.003,0.378,2.125-0.13,2.5-1.135l5.467-14.541
		C54.354,16.732,53.845,15.613,52.842,15.236z M37.251,25.044c-0.357,0.957-1.427,1.442-2.384,1.082
		c-0.959-0.36-1.443-1.428-1.083-2.383c0.361-0.958,1.427-1.442,2.386-1.082C37.126,23.02,37.609,24.087,37.251,25.044z
		 M40.903,15.328c-0.358,0.958-1.426,1.442-2.384,1.082c-0.959-0.36-1.442-1.428-1.083-2.386c0.36-0.958,1.428-1.441,2.387-1.081
		C40.78,13.303,41.264,14.372,40.903,15.328z M46.828,28.645c-0.357,0.957-1.425,1.442-2.384,1.08
		c-0.957-0.357-1.441-1.427-1.082-2.383c0.358-0.958,1.428-1.443,2.385-1.081C46.705,26.621,47.19,27.688,46.828,28.645z
		 M50.483,18.93c-0.36,0.958-1.428,1.442-2.387,1.081c-0.956-0.358-1.441-1.427-1.079-2.383c0.356-0.958,1.427-1.442,2.382-1.082
		C50.36,16.905,50.841,17.972,50.483,18.93z"/>
</g>
<rect x="-0.001" y="-0.001" fill="none" stroke="#231F20" stroke-width="0.4199" stroke-opacity="0" width="56.691" height="56.691"/>
</svg>
