<?xml version="1.0" encoding="utf-8"?>
<!-- Generator: Adobe Illustrator 14.0.0, SVG Export Plug-In . SVG Version: 6.00 Build 43363)  -->
<!DOCTYPE svg PUBLIC "-//W3C//DTD SVG 1.1//EN" "http://www.w3.org/Graphics/SVG/1.1/DTD/svg11.dtd">
<svg version="1.1" id="Livello_1" xmlns="http://www.w3.org/2000/svg" xmlns:xlink="http://www.w3.org/1999/xlink" x="0px" y="0px"
	 width="56.69px" height="56.689px" viewBox="0 0 56.69 56.689" enable-background="new 0 0 56.69 56.689" xml:space="preserve">
<g>
	<path fill="#FFFFFF" d="M17.087,36.462h-5.223c-0.367,0-0.665-0.278-0.665-0.619V15.155c0-0.34,0.298-0.615,0.665-0.615
		l15.544-0.027l1.025-2.757H11.027c-1.277,0-2.315,1.033-2.315,2.307v22.723c0,1.274,1.037,2.309,2.315,2.309h6.548L17.087,36.462z"
		/>
	<path fill="#FFFFFF" d="M36.57,33.921c-1.252-0.877-2.802-0.842-3.448-0.777c-0.661-0.887-1.441-1.376-2.318-1.462
		c-0.344-0.031-0.699,0-1.058,0.095c-0.597,0.161-1.092,0.47-1.415,0.71c-0.714-0.738-1.496-1.107-2.331-1.094
		c-0.23,0.004-0.467,0.035-0.699,0.099c-0.747,0.2-1.354,0.663-1.75,1.041c-0.333-0.771-2.496-7.152-3.7-10.647
		c-0.384-1.116-1.569-1.75-2.714-1.443c-1.222,0.328-1.949,1.581-1.628,2.8c2.033,7.729,3.874,15.407,4.136,16.576
		c-0.658,0.541-1.843,1.345-2.21,2.289c-0.848,2.159,0.11,3.417,1.063,4.342c2.155,2.095,5.939,5.855,7.535,7.407l13.538-3.625
		c0.017-0.428,0.037-0.873,0.068-1.109c0.736-5.593-0.927-10.849-1.478-12.527C37.793,35.46,37.419,34.519,36.57,33.921z"/>
	<path fill="#FFFFFF" d="M53.336,9.637L34.644,2.936c-0.704-0.252-1.427-0.031-1.614,0.493l-7.65,21.345
		c-0.188,0.525,0.23,1.156,0.935,1.406l18.694,6.7c0.706,0.252,1.424,0.03,1.613-0.493l7.65-21.345
		C54.459,10.518,54.044,9.888,53.336,9.637z M52.309,11.344l-7.014,19.564c-0.058,0.157-0.264,0.229-0.462,0.157l-17.235-6.177
		c-0.198-0.071-0.313-0.255-0.257-0.413L34.354,4.91c0.057-0.158,0.264-0.23,0.461-0.158l17.235,6.177
		C52.249,11.001,52.362,11.187,52.309,11.344z"/>
	<path fill="#FFFFFF" d="M48.428,13.148l-5.919-2.12c-0.204-0.073-0.427,0.033-0.499,0.235c-0.072,0.203,0.033,0.424,0.235,0.496
		l5.921,2.121c0.202,0.073,0.425-0.032,0.497-0.234C48.733,13.444,48.63,13.222,48.428,13.148z"/>
	<path fill="#FFFFFF" d="M47.955,14.468l-5.918-2.119c-0.203-0.074-0.426,0.031-0.5,0.233c-0.071,0.204,0.034,0.425,0.236,0.496
		l5.919,2.12c0.202,0.074,0.426-0.03,0.5-0.231C48.263,14.763,48.158,14.542,47.955,14.468z"/>
	<path fill="#FFFFFF" d="M36.175,11.922c1.141,0.408,2.393-0.181,2.802-1.32l1.21-0.572c0.123-0.057,0.217-0.164,0.261-0.289
		c0.048-0.131,0.04-0.27-0.016-0.393l-0.137-0.29c-0.122-0.255-0.429-0.364-0.682-0.244l-0.639,0.302
		c-0.215-0.591-0.682-1.088-1.321-1.316c-1.138-0.408-2.393,0.183-2.802,1.322C34.445,10.26,35.038,11.514,36.175,11.922z
		 M36.188,9.528c0.022-0.074,0.07-0.135,0.135-0.172l0.347-0.186c0.125-0.067,0.284-0.025,0.358,0.095l0.479,0.786l2.166-1.033
		c0.179-0.085,0.394-0.008,0.481,0.172l0.096,0.203c0.038,0.087,0.045,0.183,0.011,0.276c-0.029,0.089-0.096,0.164-0.181,0.204
		l-2.534,1.208c-0.221,0.104-0.484,0.026-0.617-0.183l-0.705-1.154C36.18,9.677,36.171,9.6,36.188,9.528z"/>
	<path fill="#FFFFFF" d="M46.163,19.47l-5.917-2.12c-0.203-0.075-0.428,0.031-0.501,0.234c-0.074,0.204,0.034,0.425,0.237,0.497
		l5.919,2.12c0.202,0.074,0.425-0.03,0.497-0.232C46.471,19.766,46.365,19.543,46.163,19.47z"/>
	<path fill="#FFFFFF" d="M45.689,20.789l-5.919-2.121c-0.203-0.072-0.426,0.034-0.497,0.235c-0.073,0.204,0.032,0.425,0.235,0.498
		l5.918,2.119c0.204,0.073,0.425-0.03,0.497-0.231C45.998,21.086,45.893,20.861,45.689,20.789z"/>
	<path fill="#FFFFFF" d="M38.184,16.06c0.048-0.129,0.04-0.267-0.02-0.39l-0.135-0.29c-0.123-0.255-0.43-0.365-0.682-0.244
		l-0.638,0.301c-0.214-0.59-0.681-1.087-1.321-1.317c-1.139-0.408-2.392,0.184-2.8,1.323c-0.407,1.14,0.184,2.393,1.322,2.802
		c1.139,0.408,2.391-0.182,2.8-1.321l1.211-0.572C38.044,16.295,38.139,16.188,38.184,16.06z M35.279,17.401
		c-0.223,0.104-0.485,0.026-0.618-0.182l-0.704-1.156c-0.041-0.064-0.053-0.14-0.034-0.213c0.022-0.075,0.071-0.133,0.134-0.171
		l0.348-0.186c0.128-0.069,0.284-0.026,0.358,0.094l0.48,0.785l2.167-1.031c0.176-0.085,0.393-0.008,0.477,0.172l0.097,0.203
		c0.04,0.086,0.045,0.183,0.014,0.275c-0.033,0.09-0.099,0.166-0.185,0.206L35.279,17.401z"/>
	<path fill="#FFFFFF" d="M43.897,25.792l-5.919-2.121c-0.202-0.074-0.427,0.033-0.499,0.235c-0.072,0.203,0.033,0.424,0.237,0.497
		l5.917,2.121c0.203,0.074,0.426-0.03,0.499-0.232C44.205,26.087,44.1,25.865,43.897,25.792z"/>
	<path fill="#FFFFFF" d="M43.423,27.112l-5.918-2.121c-0.204-0.072-0.425,0.034-0.499,0.236c-0.072,0.203,0.033,0.423,0.235,0.496
		l5.92,2.12c0.202,0.073,0.425-0.03,0.496-0.232C43.73,27.408,43.627,27.184,43.423,27.112z"/>
	<path fill="#FFFFFF" d="M35.763,21.703c-0.121-0.256-0.429-0.367-0.682-0.245l-0.639,0.3c-0.215-0.592-0.682-1.088-1.319-1.318
		c-1.142-0.408-2.396,0.185-2.803,1.323c-0.407,1.139,0.185,2.395,1.323,2.802c1.139,0.409,2.39-0.182,2.802-1.321l1.21-0.57
		c0.122-0.058,0.216-0.164,0.261-0.291c0.046-0.13,0.04-0.269-0.018-0.392L35.763,21.703z M35.73,22.311
		c-0.033,0.089-0.1,0.164-0.186,0.204l-2.531,1.207c-0.22,0.107-0.485,0.029-0.618-0.181l-0.704-1.155
		c-0.041-0.064-0.053-0.141-0.034-0.213c0.021-0.073,0.07-0.135,0.135-0.172l0.347-0.185c0.127-0.068,0.283-0.024,0.359,0.094
		l0.48,0.785l2.164-1.032c0.18-0.086,0.395-0.008,0.479,0.172l0.098,0.203C35.759,22.123,35.763,22.218,35.73,22.311z"/>
	<path fill="#FFFFFF" d="M42.276,35.843c0,0.341-0.299,0.619-0.666,0.619h-2.171l0.732,2.63h2.278c1.279,0,2.315-1.033,2.315-2.31
		v-2.323l-2.487-1.024L42.276,35.843L42.276,35.843z"/>
</g>
<rect x="-0.001" y="-0.001" fill="none" stroke="#231F20" stroke-width="0.4199" stroke-opacity="0" width="56.693" height="56.691"/>
</svg>
