<?xml version="1.0" encoding="utf-8"?>
<!-- Generator: Adobe Illustrator 14.0.0, SVG Export Plug-In . SVG Version: 6.00 Build 43363)  -->
<!DOCTYPE svg PUBLIC "-//W3C//DTD SVG 1.1//EN" "http://www.w3.org/Graphics/SVG/1.1/DTD/svg11.dtd">
<svg version="1.1" id="Livello_1" xmlns="http://www.w3.org/2000/svg" xmlns:xlink="http://www.w3.org/1999/xlink" x="0px" y="0px"
	 width="56.69px" height="56.689px" viewBox="0 0 56.69 56.689" enable-background="new 0 0 56.69 56.689" xml:space="preserve">
<rect x="-0.001" y="-0.001" fill="none" stroke="#231F20" stroke-width="0.4199" stroke-opacity="0" width="56.691" height="56.692"/>
<g>
	<path fill="#FFFFFF" d="M16.436,36.155H11.2c-0.37,0-0.668-0.276-0.668-0.621V14.79c0-0.34,0.298-0.618,0.668-0.618h14.583
		c0,0,0.191-1.595,1.224-2.792H10.358c-1.281,0-2.321,1.037-2.321,2.315v22.786c0,1.278,1.04,2.313,2.321,2.313h6.566L16.436,36.155
		z"/>
	<path fill="#FFFFFF" d="M41.693,29.561v5.973c0,0.344-0.3,0.621-0.668,0.621h-2.177l0.732,2.639h2.285
		c1.281,0,2.323-1.034,2.323-2.313v-8.231C43.248,29.448,41.693,29.561,41.693,29.561z"/>
	<path fill="#FFFFFF" d="M37.155,16.677c-0.677,0.677-0.775,1.673-0.225,2.227c0.553,0.551,1.549,0.451,2.225-0.225
		c0.215-0.215,0.363-0.462,0.461-0.716l3.222-4.965l-4.97,3.223C37.615,16.314,37.368,16.464,37.155,16.677z"/>
	<path fill="#FFFFFF" d="M47.396,11.306c0.076,0.092,0.227,0.083,0.335-0.007l0.814-0.684c0.111-0.095,0.141-0.24,0.067-0.33
		l-1.83-2.18c-0.075-0.088-0.225-0.085-0.332,0.007l-0.82,0.682c-0.109,0.096-0.138,0.242-0.064,0.33l0.499,0.599l-0.717,0.599
		c-0.891-0.889-1.952-1.599-3.107-2.129L42.81,6.63l1.253,0.456c0.188,0.069,0.4-0.05,0.478-0.261l0.562-1.542
		c0.077-0.21-0.012-0.436-0.198-0.504l-4.589-1.67c-0.187-0.068-0.398,0.048-0.476,0.258l-0.564,1.544
		c-0.075,0.209,0.015,0.438,0.2,0.505l1.252,0.455l-0.59,1.634c0,0-1.249-0.295-2.314-0.295c-5.888,0-10.662,4.771-10.662,10.658
		c0,5.887,4.775,10.662,10.663,10.662s10.66-4.774,10.66-10.661c0-2.483-0.884-4.739-2.31-6.551l0.724-0.606L47.396,11.306z
		 M46.214,17.868c0,0.813-0.109,1.581-0.302,2.307l-1.783-0.614L43.88,20.29l1.789,0.617c-0.733,2.008-2.178,3.599-4.088,4.501
		l-0.456-0.933l-0.15,0.071l0.458,0.939c-1.083,0.484-2.294,0.771-3.611,0.771c-0.867,0-1.67-0.15-2.44-0.367l0.602-1.748
		l-0.728-0.25l-0.614,1.78c-2.058-0.784-3.656-2.322-4.511-4.335l0.681-0.331l-0.075-0.152l-0.679,0.333
		c-0.403-1.005-0.624-2.123-0.624-3.318c0-0.859,0.149-1.659,0.362-2.425l1.607,0.554l0.254-0.728l-1.645-0.564
		c0.74-1.952,2.166-3.478,4.024-4.364l0.472,0.963l0.164-0.08l-0.474-0.968c1.085-0.489,2.299-0.779,3.622-0.779
		c0.808,0,1.559,0.133,2.283,0.321l-0.558,1.62l0.732,0.249l0.567-1.649c1.915,0.687,3.428,2.024,4.354,3.785l-1.065,0.52
		l0.074,0.151l1.071-0.521C45.862,15.109,46.214,16.421,46.214,17.868z"/>
	<path fill="#FFFFFF" d="M35.971,33.608c-1.255-0.877-2.81-0.842-3.458-0.779c-0.662-0.888-1.443-1.377-2.323-1.467
		c-0.344-0.03-0.703,0-1.062,0.096c-0.6,0.162-1.094,0.473-1.419,0.715c-0.716-0.741-1.499-1.112-2.337-1.099
		c-0.232,0.005-0.468,0.035-0.702,0.101c-0.747,0.199-1.356,0.665-1.754,1.044c-0.335-0.774-2.502-7.174-3.711-10.678
		c-0.384-1.122-1.572-1.755-2.72-1.447c-1.226,0.328-1.956,1.584-1.633,2.809c2.038,7.751,3.884,15.45,4.147,16.622
		c-0.659,0.543-1.849,1.35-2.216,2.297c-0.85,2.165,0.11,3.426,1.066,4.354c2.164,2.101,5.956,5.874,7.558,7.427l13.573-3.636
		c0.016-0.428,0.037-0.875,0.07-1.11c0.738-5.61-0.931-10.881-1.481-12.563C37.197,35.152,36.823,34.207,35.971,33.608z"/>
</g>
</svg>
