<?xml version="1.0" encoding="utf-8"?>
<!-- Generator: Adobe Illustrator 14.0.0, SVG Export Plug-In . SVG Version: 6.00 Build 43363)  -->
<!DOCTYPE svg PUBLIC "-//W3C//DTD SVG 1.1//EN" "http://www.w3.org/Graphics/SVG/1.1/DTD/svg11.dtd">
<svg version="1.1" id="Livello_1" xmlns="http://www.w3.org/2000/svg" xmlns:xlink="http://www.w3.org/1999/xlink" x="0px" y="0px"
	 width="56.69px" height="56.689px" viewBox="0 0 56.69 56.689" enable-background="new 0 0 56.69 56.689" xml:space="preserve">
<rect x="-0.001" y="-0.001" fill="none" stroke="#231F20" stroke-width="0.4199" stroke-opacity="0" width="56.691" height="56.692"/>
<g>
	<path fill="#FFFFFF" d="M5.118,39.46c0.802,0,2.009,0.059,2.311-0.244l16.028-16.112l5.217,5.274
		c0.007,0.007,0.004,0.021,0.012,0.028l1.078,1.074c0.277,0.271,0.715,0.27,0.986-0.004l15.088-15.167l3.916,3.669
		c0.385,0,0.699-0.313,0.699-0.699V8.945c0-0.385-0.311-0.697-0.699-0.697h-8.949c-0.385,0-0.695,0.311-0.695,0.697l3.598,3.368
		L30.269,25.826l-6.311-6.365c-0.144-0.148-0.702-0.267-0.977,0.006l-0.438,0.434c-0.009,0.01-0.024,0.006-0.034,0.016L5.36,37.159
		c-0.301,0.301-0.242,1.029-0.242,1.029V39.46z"/>
	<rect x="5.113" y="47.136" fill="#FFFFFF" width="46.464" height="1.307"/>
	<polygon fill="#FFFFFF" points="39.753,45.062 39.753,23.126 33.173,29.738 33.173,45.062 	"/>
	<polygon fill="#FFFFFF" points="14.639,45.062 14.639,34.716 8.109,41.146 8.109,45.062 	"/>
	<polygon fill="#FFFFFF" points="23.393,45.062 23.393,26.094 16.813,32.573 16.813,45.062 	"/>
	<polygon fill="#FFFFFF" points="41.931,20.937 41.931,45.062 48.274,45.062 48.274,20.025 45.358,17.49 	"/>
	<polygon fill="#FFFFFF" points="25.57,27.89 25.57,45.062 30.997,45.062 30.997,31.925 30.153,32.775 	"/>
</g>
</svg>
