<?xml version="1.0" encoding="utf-8"?>
<!-- Generator: Adobe Illustrator 19.2.0, SVG Export Plug-In . SVG Version: 6.00 Build 0)  -->
<svg version="1.1" id="Livello_1" xmlns="http://www.w3.org/2000/svg" xmlns:xlink="http://www.w3.org/1999/xlink" x="0px" y="0px"
	 viewBox="0 0 56.7 56.7" style="enable-background:new 0 0 56.7 56.7;" xml:space="preserve">
<style type="text/css">
	.st0{fill:none;stroke:#231F20;stroke-width:0.4199;stroke-opacity:0;}
	.st1{fill:#FFFFFF;}
</style>
<rect y="0" class="st0" width="56.7" height="56.7"/>
<circle class="st1" cx="17" cy="14.1" r="6.2"/>
<path class="st1" d="M21.2,29.6h4.2c-1-3.4-3.9-5.1-3.9-5.1c-1.3-0.8-2.8-1.2-4.4-1.2s-3.1,0.4-4.4,1.2c0,0-4.3,2.6-4.3,7.5
	s0,11.5,0,11.5h10.8V32.3C19,31,19.9,29.8,21.2,29.6z"/>
<path class="st1" d="M48.8,51.2V35c0.1-1.2-0.7-2.3-1.9-2.5h-0.7v-3.2c0-6-4.7-10.9-10.6-11.1h-0.7c-4.1,0.1-7.2,2.2-9.2,5.5
	c0,0,1.6,1.7,2.4,3.6c1.8-5,6.8-6.5,10-4.9c2.2,1.1,4.6,3.7,4.6,6.9v3.2H23.5c-1.2,0.2-2.1,1.2-1.9,2.5v16.2
	c-0.1,1.2,0.7,2.3,1.9,2.5h23.4C48.1,53.5,49,52.4,48.8,51.2z M46.4,50.1c0,0.5-0.4,1-1,1H25.2c-0.5,0-1-0.4-1-1V36.4
	c0-0.5,0.4-1,1-1h20.2c0.5,0,1,0.4,1,1V50.1z"/>
<path class="st1" d="M37.3,42.9v4.3c0,0.5-0.4,0.9-0.9,0.9h-2.1c-0.5,0-1-0.4-1-0.9l0,0v-4.3c-1-1-1-2.6,0-3.6
	c0.4-0.4,1-0.7,1.6-0.8h0.5c1.4,0.1,2.5,1.3,2.4,2.8C38.1,41.8,37.8,42.5,37.3,42.9z"/>
</svg>
