<?xml version="1.0" encoding="utf-8"?>
<!-- Generator: Adobe Illustrator 19.2.0, SVG Export Plug-In . SVG Version: 6.00 Build 0)  -->
<svg version="1.1" id="Livello_1" xmlns="http://www.w3.org/2000/svg" xmlns:xlink="http://www.w3.org/1999/xlink" x="0px" y="0px"
	 viewBox="0 0 841.9 595.3" style="enable-background:new 0 0 841.9 595.3;" xml:space="preserve">
<style type="text/css">
	.st0{fill:none;stroke:#FFFFFF;stroke-width:12;stroke-miterlimit:10;}
	.st1{fill:#FFFFFF;}
</style>
<g>
	<g>
		<path class="st0" d="M552.8,211c-8.7-8.7-19.1-13-31.3-13h-38.8l-8.8-23.5c-2.2-5.7-6.2-10.5-12-14.6s-11.8-6.1-17.9-6.1h-88.6
			c-6.1,0-12.1,2-17.9,6.1s-9.8,9-12,14.6l-8.8,23.5h-38.8c-12.2,0-22.7,4.3-31.3,13c-8.7,8.7-13,19.1-13,31.3v155
			c0,12.2,4.3,22.7,13,31.3c8.7,8.7,19.1,13,31.3,13h243.6c12.2,0,22.7-4.3,31.3-13c8.7-8.6,13-19.1,13-31.3v-155
			C565.7,230,561.4,219.6,552.8,211z M454.4,374.6c-15.2,15.2-33.4,22.8-54.8,22.8s-39.6-7.6-54.8-22.8
			c-15.2-15.2-22.8-33.4-22.8-54.8c0-21.3,7.6-39.6,22.8-54.8c15.2-15.2,33.4-22.8,54.8-22.8c21.3,0,39.6,7.6,54.8,22.8
			c15.2,15.2,22.8,33.4,22.8,54.8C477.2,341.1,469.6,359.4,454.4,374.6z"/>
		<path class="st1" d="M399.6,270c-13.7,0-25.5,4.9-35.2,14.6s-14.6,21.5-14.6,35.2s4.9,25.5,14.6,35.2s21.5,14.6,35.2,14.6
			s25.5-4.9,35.2-14.6s14.6-21.5,14.6-35.2s-4.9-25.5-14.6-35.2C425.1,274.8,413.4,270,399.6,270z"/>
	</g>
</g>
<circle class="st1" cx="524" cy="237.1" r="14.2"/>
</svg>
