<?xml version="1.0" encoding="UTF-8" standalone="no"?>
<svg
   xmlns:dc="http://purl.org/dc/elements/1.1/"
   xmlns:cc="http://creativecommons.org/ns#"
   xmlns:rdf="http://www.w3.org/1999/02/22-rdf-syntax-ns#"
   xmlns:svg="http://www.w3.org/2000/svg"
   xmlns="http://www.w3.org/2000/svg"
   xmlns:sodipodi="http://sodipodi.sourceforge.net/DTD/sodipodi-0.dtd"
   xmlns:inkscape="http://www.inkscape.org/namespaces/inkscape"
   id="icon_seach"
   width="24"
   height="24"
   viewBox="0 0 24 24"
   version="1.1"
   sodipodi:docname="icon_search.svg"
   inkscape:version="0.92.4 (5da689c313, 2019-01-14)">
  <metadata
     id="metadata13">
    <rdf:RDF>
      <cc:Work
         rdf:about="">
        <dc:format>image/svg+xml</dc:format>
        <dc:type
           rdf:resource="http://purl.org/dc/dcmitype/StillImage" />
      </cc:Work>
    </rdf:RDF>
  </metadata>
  <defs
     id="defs11" />
  <sodipodi:namedview
     pagecolor="#ffffff"
     bordercolor="#666666"
     borderopacity="1"
     objecttolerance="10"
     gridtolerance="10"
     guidetolerance="10"
     inkscape:pageopacity="0"
     inkscape:pageshadow="2"
     inkscape:window-width="1920"
     inkscape:window-height="1017"
     id="namedview9"
     showgrid="false"
     inkscape:zoom="9.8333333"
     inkscape:cx="12"
     inkscape:cy="12"
     inkscape:window-x="-8"
     inkscape:window-y="-8"
     inkscape:window-maximized="1"
     inkscape:current-layer="icon_seach" />
  <rect
     id="Rettangolo_935"
     data-name="Rettangolo 935"
     width="24"
     height="24"
     fill="none" />
  <g
     id="Raggruppa_2492"
     data-name="Raggruppa 2492"
     transform="rotate(90,12.009447,12.112)"
     style="fill:#ffffff">
    <g
       id="Ellisse_10"
       data-name="Ellisse 10"
       style="fill:#ffffff">
      <path
         id="Tracciato_390"
         data-name="Tracciato 390"
         d="m 10.164,17.471 a 7.288,7.288 0 1 1 7.288,-7.288 7.3,7.3 0 0 1 -7.288,7.288 z m 0,-13.576 a 6.288,6.288 0 1 0 6.288,6.288 6.3,6.3 0 0 0 -6.288,-6.288 z"
         style="fill:#ffffff"
         inkscape:connector-curvature="0" />
    </g>
    <g
       id="Tracciato_273"
       data-name="Tracciato 273"
       style="fill:#ffffff">
      <path
         id="Tracciato_391"
         data-name="Tracciato 391"
         d="M 20.624,21.1 A 0.5,0.5 0 0 1 20.27,20.953 l -5.493,-5.494 a 0.5,0.5 0 0 1 0.707,-0.707 l 5.493,5.494 A 0.5,0.5 0 0 1 20.624,21.1 Z"
         style="fill:#ffffff"
         inkscape:connector-curvature="0" />
    </g>
  </g>
</svg>
