<?xml version="1.0" encoding="UTF-8" standalone="no"?>
<svg
   xmlns:dc="http://purl.org/dc/elements/1.1/"
   xmlns:cc="http://creativecommons.org/ns#"
   xmlns:rdf="http://www.w3.org/1999/02/22-rdf-syntax-ns#"
   xmlns:svg="http://www.w3.org/2000/svg"
   xmlns="http://www.w3.org/2000/svg"
   xmlns:xlink="http://www.w3.org/1999/xlink"
   xmlns:sodipodi="http://sodipodi.sourceforge.net/DTD/sodipodi-0.dtd"
   xmlns:inkscape="http://www.inkscape.org/namespaces/inkscape"
   version="1.1"
   preserveAspectRatio="xMidYMid meet"
   viewBox="0 0 640 640"
   width="640"
   height="640"
   id="svg35"
   sodipodi:docname="icon_search_grey.svg"
   inkscape:version="0.92.4 (5da689c313, 2019-01-14)">
  <metadata
     id="metadata39">
    <rdf:RDF>
      <cc:Work
         rdf:about="">
        <dc:format>image/svg+xml</dc:format>
        <dc:type
           rdf:resource="http://purl.org/dc/dcmitype/StillImage" />
      </cc:Work>
    </rdf:RDF>
  </metadata>
  <sodipodi:namedview
     pagecolor="#ffffff"
     bordercolor="#666666"
     borderopacity="1"
     objecttolerance="10"
     gridtolerance="10"
     guidetolerance="10"
     inkscape:pageopacity="0"
     inkscape:pageshadow="2"
     inkscape:window-width="1920"
     inkscape:window-height="1017"
     id="namedview37"
     showgrid="false"
     inkscape:zoom="0.36875"
     inkscape:cx="-134.23729"
     inkscape:cy="320"
     inkscape:window-x="-8"
     inkscape:window-y="-8"
     inkscape:window-maximized="1"
     inkscape:current-layer="svg35" />
  <defs
     id="defs5">
    <path
       d="M24 0C24 0 24 0 24 0C24 14.4 24 22.4 24 24C24 24 24 24 24 24C9.6 24 1.6 24 0 24C0 24 0 24 0 24C0 9.6 0 1.6 0 0C0 0 0 0 0 0C14.4 0 22.4 0 24 0Z"
       id="a1HzbLSh1H" />
    <path
       d="M3 10.29C3 6.26 6.26 3 10.29 3C14.31 3 17.58 6.26 17.58 10.29C17.57 14.31 14.31 17.57 10.29 17.58C6.26 17.58 3 14.31 3 10.29ZM4 10.29C4 13.76 6.82 16.58 10.29 16.58C13.76 16.58 16.58 13.76 16.58 10.29C16.57 6.82 13.76 4.01 10.29 4C6.82 4 4 6.82 4 10.29Z"
       id="a1Jiw1EcjI" />
    <path
       d="M20.39 21.06C19.84 20.51 15.45 16.11 14.9 15.56C14.71 15.37 14.71 15.05 14.91 14.86C15.11 14.67 15.41 14.67 15.61 14.86C16.16 15.41 20.55 19.8 21.1 20.35C21.3 20.55 21.3 20.86 21.1 21.06C21.01 21.15 20.88 21.2 20.75 21.21C20.62 21.2 20.49 21.15 20.39 21.06Z"
       id="abLSqYpWI" />
  </defs>
  <g
     id="g33"
     transform="matrix(34.410171,0,0,34.410171,-97.193216,-99.905085)">
    <g
       id="g31">
      <g
         id="g13">
        <use
           xlink:href="#a1HzbLSh1H"
           id="use7"
           style="opacity:1;fill:#000000;fill-opacity:0"
           x="0"
           y="0"
           width="100%"
           height="100%" />
        <g
           id="g11">
          <use
             xlink:href="#a1HzbLSh1H"
             id="use9"
             style="opacity:1;fill-opacity:0;stroke:#000000;stroke-width:1;stroke-opacity:0"
             x="0"
             y="0"
             width="100%"
             height="100%" />
        </g>
      </g>
      <g
         id="g21">
        <use
           xlink:href="#a1Jiw1EcjI"
           id="use15"
           style="opacity:1;fill:#b0b0b0;fill-opacity:1"
           x="0"
           y="0"
           width="100%"
           height="100%" />
        <g
           id="g19">
          <use
             xlink:href="#a1Jiw1EcjI"
             id="use17"
             style="opacity:1;fill-opacity:0;stroke:#000000;stroke-width:1;stroke-opacity:0"
             x="0"
             y="0"
             width="100%"
             height="100%" />
        </g>
      </g>
      <g
         id="g29">
        <use
           xlink:href="#abLSqYpWI"
           id="use23"
           style="opacity:1;fill:#b0b0b0;fill-opacity:1"
           x="0"
           y="0"
           width="100%"
           height="100%" />
        <g
           id="g27">
          <use
             xlink:href="#abLSqYpWI"
             id="use25"
             style="opacity:1;fill-opacity:0;stroke:#000000;stroke-width:1;stroke-opacity:0"
             x="0"
             y="0"
             width="100%"
             height="100%" />
        </g>
      </g>
    </g>
  </g>
</svg>
