<svg id="icon_multimedia-book" xmlns="http://www.w3.org/2000/svg" width="24" height="24" viewBox="0 0 24 24">
  <g id="Raggruppa_185" data-name="Raggruppa 185" transform="translate(-397.759 -49.021)">
    <g id="Raggruppa_181" data-name="Raggruppa 181">
      <path id="Tracciato_91" data-name="Tracciato 91" d="M409.759,69.757a.5.5,0,0,1-.327-.878c2.382-2.059,5.491-1.185,7.761-.549.559.157,1.067.3,1.479.374V57.955a15.029,15.029,0,0,1-1.54-.33c-2.032-.505-4.816-1.194-7.047.717a.5.5,0,0,1-.65-.76c2.621-2.245,5.821-1.452,7.938-.928a8.869,8.869,0,0,0,1.8.338.5.5,0,0,1,.5.5V69.257a.5.5,0,0,1-.5.5,9.417,9.417,0,0,1-2.25-.464c-2.166-.609-4.861-1.365-6.836.342A.5.5,0,0,1,409.759,69.757Z" fill="#fff"/>
    </g>
    <g id="Raggruppa_182" data-name="Raggruppa 182">
      <path id="Tracciato_92" data-name="Tracciato 92" d="M409.759,69.757a.5.5,0,0,1-.327-.122c-1.975-1.706-4.67-.95-6.836-.342a9.417,9.417,0,0,1-2.25.464.5.5,0,0,1-.5-.5v-11.3a.5.5,0,0,1,.5-.5,46.141,46.141,0,0,0,4.927-.885.5.5,0,1,1,.27.963c-.808.227-3.487.727-4.7.878V68.7c.412-.074.919-.217,1.479-.374,2.269-.635,5.378-1.51,7.761.549a.5.5,0,0,1-.327.878Z" fill="#fff"/>
    </g>
    <g id="Raggruppa_183" data-name="Raggruppa 183">
      <path id="Tracciato_93" data-name="Tracciato 93" d="M409.759,69.757a.5.5,0,0,1-.5-.5v-11.3a.5.5,0,0,1,1,0v11.3A.5.5,0,0,1,409.759,69.757Z" fill="#fff"/>
    </g>
    <g id="Raggruppa_184" data-name="Raggruppa 184">
      <path id="Tracciato_94" data-name="Tracciato 94" d="M409.759,69.757a.5.5,0,0,1-.5-.5c0-1.711-2.042-3.824-3.949-4.725a.5.5,0,0,1-.287-.452v-11.3a.5.5,0,0,1,.713-.452c2.175,1.027,4.523,3.471,4.523,5.629a.5.5,0,0,1-1,0c0-1.5-1.566-3.305-3.236-4.336V63.771c2.089,1.1,4.236,3.423,4.236,5.486A.5.5,0,0,1,409.759,69.757Z" fill="#fff"/>
    </g>
  </g>
  <rect id="Rettangolo_32" data-name="Rettangolo 32" width="24" height="24" fill="none"/>
  <rect id="Rettangolo_33" data-name="Rettangolo 33" width="24" height="24" fill="none"/>
  <rect id="Rettangolo_34" data-name="Rettangolo 34" width="24" height="24" fill="none"/>
</svg>
