<?xml version="1.0" encoding="utf-8"?>
<!-- Generator: Adobe Illustrator 19.2.0, SVG Export Plug-In . SVG Version: 6.00 Build 0)  -->
<svg version="1.1" id="Livello_1" xmlns="http://www.w3.org/2000/svg" xmlns:xlink="http://www.w3.org/1999/xlink" x="0px" y="0px"
	 viewBox="0 0 671.8 595.2" style="enable-background:new 0 0 671.8 595.2;" xml:space="preserve">
<style type="text/css">
	.st0{fill:#FFFFFF;stroke:#1A171B;stroke-width:1.3397;stroke-miterlimit:2.6131;}
	.st1{fill:#E1001A;}
	.st2{fill:#FFFFFF;stroke:#E1001A;stroke-width:4.4658;stroke-miterlimit:2.6131;}
	.st3{fill:#1A171B;stroke:#1A171B;stroke-width:3.5726;stroke-miterlimit:2.6131;}
</style>
<g>
	<g>
		<path class="st0" d="M625.1,594.3c31.1-1.3,49.8-24.6,44.9-55.5l-1.1-4.7l-1.8-5.1l-2.2-4.9L379.2,28.5
			C364.8,6.5,344.6-6.1,318.3,5c-10,5.5-17.3,13.3-23.1,22.7L10,521.7c-10.4,19.5-14.4,40,1.5,58c12.6,13.3,28.2,14.7,45.8,14.7
			l561-0.2L625.1,594.3L625.1,594.3z"/>
		<path class="st1" d="M618.2,580c8.7-0.2,17.3,0.9,26.4-5.8c9.1-6.7,17.5-23.8,7.6-43.5L366.8,35.9c-16-28-44.2-27.3-59.5-0.7
			L22.5,528.9c-6,10.5-11.1,25.5-4.2,36.6c9.1,14.5,23.5,14.5,38.9,14.7L618.2,580L618.2,580z"/>
		<polygon class="st2" points="580.2,521.9 336.6,100.5 93.6,521.9 		"/>
		<path class="st3" d="M179.8,485.3c0,0,0-26.1,0-37.3c20.7-11.2,16.5-18.6,37.2-37.3c16.5-14.8,49.3-15,65.9,0
			c16.5,15,12.8,15.3,28.6,29.9c12.3,11.5,37.4,11,49.6,0c13-11.7,12.1-15,28.6-29.9c16.3-14.8,49.3-14.8,65.9,0
			c24.7,22.3,16.5,26.1,37.2,37.3v37.3L179.8,485.3L179.8,485.3z"/>
	</g>
</g>
</svg>
