<?xml version="1.0" encoding="utf-8"?>
<!-- Generator: Adobe Illustrator 19.2.0, SVG Export Plug-In . SVG Version: 6.00 Build 0)  -->
<svg version="1.1" id="Livello_1" xmlns="http://www.w3.org/2000/svg" xmlns:xlink="http://www.w3.org/1999/xlink" x="0px" y="0px"
	 viewBox="0 0 672.1 595.3" style="enable-background:new 0 0 672.1 595.3;" xml:space="preserve">
<style type="text/css">
	.st0{fill:#FFFFFF;stroke:#1A171B;stroke-width:1.3397;stroke-miterlimit:2.6131;}
	.st1{fill:#E1001A;}
	.st2{fill:#FFFFFF;stroke:#E1001A;stroke-width:4.4658;stroke-miterlimit:2.6131;}
	.st3{fill:#1A171B;stroke:#1A171B;stroke-width:3.5726;stroke-miterlimit:2.6131;}
</style>
<g>
	<g>
		<path class="st0" d="M625.4,594.2c31.1-1.3,49.8-24.6,44.9-55.5l-1.1-4.7l-1.8-5.1l-2.2-4.9L379.5,28.4
			c-14.4-22-34.6-34.6-60.9-23.5c-10,5.5-17.3,13.3-23.1,22.7l-285.2,494c-10.4,19.5-14.4,40,1.5,58c12.6,13.3,28.2,14.7,45.8,14.7
			l561-0.2L625.4,594.2L625.4,594.2z"/>
		<path class="st1" d="M618.5,579.9c8.7-0.2,17.3,0.9,26.4-5.8c9.1-6.7,17.5-23.8,7.6-43.5L367.1,35.8c-16-28-44.2-27.3-59.5-0.7
			L22.8,528.8c-6,10.5-11.1,25.5-4.2,36.6c9.1,14.5,23.5,14.5,38.9,14.7L618.5,579.9L618.5,579.9z"/>
		<polygon class="st2" points="580.5,521.8 336.9,100.4 93.9,521.8 		"/>
		<path class="st3" d="M178.5,485.4c0-14.8,0-24.6,0-41c33,0,52.9-3.3,91-24.6c38-21.2,103.4-20.4,132.4,0s57.8,24.6,91,24.6
			c0,13.1,0,26.2,0,41H178.5L178.5,485.4z"/>
	</g>
</g>
</svg>
