<?xml version="1.0" encoding="utf-8"?>
<!-- Generator: Adobe Illustrator 19.2.0, SVG Export Plug-In . SVG Version: 6.00 Build 0)  -->
<svg version="1.1" id="Livello_1" xmlns="http://www.w3.org/2000/svg" xmlns:xlink="http://www.w3.org/1999/xlink" x="0px" y="0px"
	 viewBox="0 0 671.9 595.1" style="enable-background:new 0 0 671.9 595.1;" xml:space="preserve">
<style type="text/css">
	.st0{fill:#FFFFFF;stroke:#1A171B;stroke-width:1.3397;stroke-miterlimit:2.6131;}
	.st1{fill:#E1001A;}
	.st2{fill:#FFFFFF;stroke:#E1001A;stroke-width:4.4658;stroke-miterlimit:2.6131;}
	.st3{fill:#1A171B;stroke:#1A171B;stroke-width:3.5726;stroke-miterlimit:2.6131;}
</style>
<g>
	<g>
		<path class="st0" d="M625.2,594.3c31.1-1.3,49.8-24.6,44.9-55.5l-1.1-4.7l-1.8-5.1l-2.2-4.9L379.3,28.5
			C364.9,6.5,344.7-6.1,318.4,5c-10,5.5-17.3,13.3-23.1,22.7l-285.2,494c-10.4,19.5-14.4,40,1.5,58c12.6,13.3,28.2,14.7,45.8,14.7
			l561-0.2L625.2,594.3L625.2,594.3z"/>
		<path class="st1" d="M618.3,580c8.7-0.2,17.3,0.9,26.4-5.8c9.1-6.7,17.5-23.8,7.6-43.5L366.9,35.9c-16-28-44.2-27.3-59.5-0.7
			L22.6,528.9c-6,10.5-11.1,25.5-4.2,36.6c9.1,14.5,23.5,14.5,38.9,14.7L618.3,580L618.3,580z"/>
		<polygon class="st2" points="580.3,521.9 336.7,100.5 93.7,521.9 		"/>
		<path class="st3" d="M179.9,485.6c0-16.3,0-58.5,0-76.6c16.3,0,65.6-0.2,98.9,22.5c33.3,22.7,82.3,22.5,115.4,0
			s82.5-22.5,99.1-22.5c0,14.4,0,60.3,0,76.6L179.9,485.6L179.9,485.6z"/>
	</g>
</g>
</svg>
