<?xml version="1.0" encoding="utf-8"?>
<!-- Generator: Adobe Illustrator 19.2.0, SVG Export Plug-In . SVG Version: 6.00 Build 0)  -->
<svg version="1.1" id="Livello_1" xmlns="http://www.w3.org/2000/svg" xmlns:xlink="http://www.w3.org/1999/xlink" x="0px" y="0px"
	 viewBox="0 0 672 595.8" style="enable-background:new 0 0 672 595.8;" xml:space="preserve">
<style type="text/css">
	.st0{fill:#FFFFFF;stroke:#1A171B;stroke-width:1.3397;stroke-miterlimit:2.6131;}
	.st1{fill:#E1001A;}
	.st2{fill:#FFFFFF;stroke:#E1001A;stroke-width:4.4658;stroke-miterlimit:2.6131;}
	.st3{fill:#1A171B;stroke:#1A171B;stroke-width:3.5726;stroke-miterlimit:2.6131;}
</style>
<g>
	<g>
		<path class="st0" d="M625.3,594.6c31.1-1.3,49.8-24.6,44.9-55.5l-1.1-4.7l-1.8-5.1l-2.2-4.9L379.4,28.8
			C365,6.8,344.8-5.8,318.5,5.3c-10,5.5-17.3,13.3-23.1,22.7L10.2,522c-10.4,19.5-14.4,40,1.5,58c12.6,13.3,28.2,14.7,45.8,14.7
			l561-0.2L625.3,594.6L625.3,594.6z"/>
		<path class="st1" d="M618.4,580.3c8.7-0.2,17.3,0.9,26.4-5.8c9.1-6.7,17.5-23.8,7.6-43.5L367,36.2c-16-28-44.2-27.3-59.5-0.7
			L22.7,529.2c-6,10.5-11.1,25.5-4.2,36.6c9.1,14.5,23.5,14.5,38.9,14.7L618.4,580.3L618.4,580.3z"/>
		<polygon class="st2" points="580.4,522.2 336.8,100.8 93.8,522.2 		"/>
		<path class="st3" d="M440.2,492.1V348.9c-7.4-15.3-11.5-22.9-22.7-26.6s-24-2-30.7-0.7L327,356.3V258l-22.3-22.7L281.6,258
			c0,41.7,0,71.7,0,113.4c0,14.9,3.9,29.6,15.1,33.9c16.2,6.1,22.7,3.7,38,0c22.5-11.2,37.6-22.7,60.3-33.9v120.9l22.5-15.1
			L440.2,492.1L440.2,492.1z"/>
	</g>
</g>
</svg>
