<?xml version="1.0" encoding="utf-8"?>
<!-- Generator: Adobe Illustrator 19.2.0, SVG Export Plug-In . SVG Version: 6.00 Build 0)  -->
<svg version="1.1" id="Livello_1" xmlns="http://www.w3.org/2000/svg" xmlns:xlink="http://www.w3.org/1999/xlink" x="0px" y="0px"
	 viewBox="0 0 671.8 595.6" style="enable-background:new 0 0 671.8 595.6;" xml:space="preserve">
<style type="text/css">
	.st0{fill:#FFFFFF;stroke:#1A171B;stroke-width:1.3397;stroke-miterlimit:2.6131;}
	.st1{fill:#E1001A;}
	.st2{fill:#FFFFFF;stroke:#E1001A;stroke-width:4.4658;stroke-miterlimit:2.6131;}
	.st3{fill:#1A171B;}
</style>
<g>
	<g>
		<path class="st0" d="M625.1,594.2c31.1-1.3,49.8-24.6,44.9-55.5l-1.1-4.7l-1.8-5.1l-2.2-4.9L379.2,28.4
			c-14.4-22-34.6-34.6-60.9-23.5c-10,5.5-17.3,13.3-23.1,22.7L10,521.6c-10.4,19.5-14.4,40,1.5,58c12.6,13.3,28.2,14.7,45.8,14.7
			l561-0.2L625.1,594.2L625.1,594.2z"/>
		<path class="st1" d="M618.2,579.9c8.7-0.2,17.3,0.9,26.4-5.8c9.1-6.7,17.5-23.8,7.6-43.5L366.8,35.8c-16-28-44.2-27.3-59.5-0.7
			L22.5,528.8c-6,10.5-11.1,25.5-4.2,36.6c9.1,14.5,23.5,14.5,38.9,14.7L618.2,579.9L618.2,579.9z"/>
		<polygon class="st2" points="580.2,521.8 336.6,100.4 93.6,521.8 		"/>
		<path class="st3" d="M448.7,368.4v-34.5h-18.8v-23.1l-18.8-15.5l-18.5,15.5v23.1H355v-23.1l-18.8-19.3l-18.8,19.3v23.1h-37.3
			v-23.1l-18.8-19.3l-18.8,19.3v23.1h-18.8v34.5h18.8v69.3h-18.8v34.8h18.8v19H280v-19h37.3v19h37.6v-19h37.6v19h37.3v-19h18.8
			v-34.8h-18.8v-69.3H448.7z M317.4,437.7h-37.3v-69.3h37.3V437.7z M392.6,437.7H355v-69.3h37.6V437.7z"/>
	</g>
</g>
</svg>
