<?xml version="1.0" encoding="utf-8"?>
<!-- Generator: Adobe Illustrator 19.2.0, SVG Export Plug-In . SVG Version: 6.00 Build 0)  -->
<svg version="1.1" id="Livello_1" xmlns="http://www.w3.org/2000/svg" xmlns:xlink="http://www.w3.org/1999/xlink" x="0px" y="0px"
	 viewBox="0 0 671.8 595.4" style="enable-background:new 0 0 671.8 595.4;" xml:space="preserve">
<style type="text/css">
	.st0{fill:#FFFFFF;stroke:#1A171B;stroke-width:1.3397;stroke-miterlimit:2.6131;}
	.st1{fill:#E1001A;}
	.st2{fill:#FFFFFF;stroke:#E1001A;stroke-width:4.4658;stroke-miterlimit:2.6131;}
	.st3{fill:#1A171B;stroke:#1A171B;stroke-width:3.5726;stroke-miterlimit:2.6131;}
	.st4{fill:#1A171B;stroke:#1A171B;stroke-width:1.3397;stroke-miterlimit:2.6131;}
</style>
<g>
	<g>
		<path class="st0" d="M625.2,594.3c31.1-1.3,49.8-24.6,44.9-55.5l-1.1-4.7l-1.8-5.1l-2.2-4.9L379.3,28.5
			C364.9,6.5,344.7-6.1,318.4,5c-10,5.5-17.3,13.3-23.1,22.7l-285.2,494c-10.4,19.5-14.4,40,1.5,58c12.6,13.3,28.2,14.7,45.8,14.7
			l561-0.2L625.2,594.3L625.2,594.3z"/>
		<path class="st1" d="M618.3,580c8.7-0.2,17.3,0.9,26.4-5.8c9.1-6.7,17.5-23.8,7.6-43.5L366.9,35.9c-16-28-44.2-27.3-59.5-0.7
			L22.6,528.9c-6,10.5-11.1,25.5-4.2,36.6c9.1,14.5,23.5,14.5,38.9,14.7L618.3,580L618.3,580z"/>
		<polygon class="st2" points="580.3,521.9 336.7,100.5 93.7,521.9 		"/>
		<path class="st3" d="M219,430l-15.3-23.4l15.1-27.2c4.6,0,13.8,0,19.9,0c11.7-7.9,0-15.5,0-23.6l3.8-7.9c7.5,0,6.5,0,15.5,0
			l3.8,7.9c0,9.2-11.5,15.5-3.8,23.6c14.9,0,26.6,0,43.1,0c4.2,0,3.8,0.2,7.7-4c23.4,0,46.9,0,70.5,0c3.8,4,3.8,4,7.7,4V430H219
			L219,430z"/>
		<path class="st3" d="M244.5,340.8c-0.5,0,2.7-13.3,5.5-20.9c1.8-5.1,12.4-15.4,14.4-22.9c4.8-19,14.4-32.6,35.8-28.7
			c9.7,1.6,12.4,11.9,23.4,14.7c7.8,2.1,17.4-6.4,26.8-6.4c11.3-0.2,11.2,13.3,22.2,13.3c6.9,0,13.8-6.9,17.4-6.9
			c22.2,0,24.1,24.6,17.5,34.9c-2.8,4.3-10.8,7.6-16.5,7.6c-8.2,0-13.8-12.6-20.9-6.9c-7.8,6.4-13.6,11.3-25.3,8.3
			c-6.9-1.8-12.1-12.2-19.5-11.2l-8.3,1.4c-6.6,6.6-20,13.8-29.2,9.7c-11.3-5-21.6-11.5-27.6,5.5l-3,8.3h-12.7L244.5,340.8
			L244.5,340.8z"/>
		<path class="st4" d="M188.2,469.6v-12.1h15.5c0-4.8,0-14.7,0-20.6h190.2v-61.5h71.6v11.5h-39.3v27.8c4.4,0,13.9,0,19.4,0v35.7
			h-38.9v6.7h69.8v12.1h-32.3c4,2,6.9,6.3,6.9,11.1c0,6.7-5.8,12.5-12.5,12.5c-6.9,0-12.7-5.8-12.7-12.5c0-4.8,2.8-9.1,6.9-11.3
			l-27,0.2h0.4c0,13.1-10.7,23.4-23.4,23.4c-13.1,0-23.4-10.3-23.4-23.4l0,0h-11.9l0,0c0,13.1-10.3,23.4-23.4,23.4
			c-12.7,0-23.4-10.3-23.4-23.4l0,0h-11.5c0,13.1-10.7,23.4-23.4,23.4c-13.1,0-23.4-10.3-23.4-23h-22.2c4,2,6.7,6.4,6.7,10.7
			c0,6.7-6,12.7-12.7,12.7s-12.7-6-12.7-12.7c0-4.4,2.8-8.7,6.7-10.7H188.2L188.2,469.6z"/>
	</g>
</g>
</svg>
