<?xml version="1.0" encoding="utf-8"?>
<!-- Generator: Adobe Illustrator 19.2.0, SVG Export Plug-In . SVG Version: 6.00 Build 0)  -->
<svg version="1.1" id="Livello_1" xmlns="http://www.w3.org/2000/svg" xmlns:xlink="http://www.w3.org/1999/xlink" x="0px" y="0px"
	 viewBox="0 0 822.2 382.5" style="enable-background:new 0 0 822.2 382.5;" xml:space="preserve">
<style type="text/css">
	.st0{fill:#FFFFFF;stroke:#1A171B;stroke-width:1.3806;stroke-miterlimit:2.6131;}
	.st1{fill:#E1001A;stroke:#E1001A;stroke-width:4.6019;stroke-miterlimit:2.6131;}
	.st2{fill:#FFFFFF;stroke:#E1001A;stroke-width:1.3806;stroke-miterlimit:2.6131;}
</style>
<g>
	<g>
		<polygon class="st0" points="148,281.6 121,355.6 194.9,381.6 470.8,253 747.1,381.9 821,355.3 794,281.6 601.7,191.5 794,101.4 
			821,27.6 747.5,1.1 470.8,130 194.7,1.1 121,27.6 148,101.4 340,191.5 		"/>
		<polygon class="st1" points="391.2,191.6 165.3,297.4 148.9,342.6 194.1,358.8 471,229 748.5,358.9 793.6,342.6 777.2,297.5 
			550.9,191.6 777.2,85.6 793.6,40.6 748.6,24.3 471,154.2 194,24.4 148.9,40.6 165.3,85.7 		"/>
		<polygon class="st2" points="471.5,172.9 206.2,48.8 191.8,79.3 431.4,191.6 191.7,303.9 206.1,334.6 471.5,210.3 736.6,334.6 
			751,303.8 511.4,191.6 750.9,79.4 736.5,48.7 		"/>
	</g>
</g>
</svg>
