<?xml version="1.0" encoding="utf-8"?>
<!-- Generator: Adobe Illustrator 19.2.0, SVG Export Plug-In . SVG Version: 6.00 Build 0)  -->
<svg version="1.1" id="Livello_1" xmlns="http://www.w3.org/2000/svg" xmlns:xlink="http://www.w3.org/1999/xlink" x="0px" y="0px"
	 viewBox="0 0 823.3 539.8" style="enable-background:new 0 0 823.3 539.8;" xml:space="preserve">
<style type="text/css">
	.st0{fill:#FFFFFF;stroke:#1A171B;stroke-width:1.3806;stroke-miterlimit:2.6131;}
	.st1{fill:#E1001A;stroke:#E1001A;stroke-width:4.6019;stroke-miterlimit:2.6131;}
</style>
<path class="st0" d="M602.3,348.6l192.3-90.1l27-73.7l-73.5-26.5l-61.9,28.8l-83.6-39.5l100.8-46.9l26.7-74.1L656.5,0.8l-185,85.1
	L289.3,1.2l-73.6,26.2l27.1,73.6l98.5,46.5l-83.7,39.7l-62.1-29l-73.9,26.6l27,73.7l192,90.1l-192,90.1l-27,73.9l73.9,26.1
	l275.8-128.6L747.6,539l73.9-26.5l-27-73.7L602.3,348.6z M388.1,248.3l83.8-39l83.2,38.9l-83.7,39L388.1,248.3z"/>
<path class="st1" d="M551.5,348.8l226.3-106l16.4-45l-45-16.4l-63.7,29.8l-0.5-1.5l-133-62.1l134.4-63L703,40l-45.1-16.1L472,110.4
	L288.4,24.3l-45.1,16.1l16.1,45.1l132.1,62.1l-130.2,61.7l-1.1,2.9l-65.6-30.7l-45.1,16.3l16.4,45.1l225.9,105.9L165.9,454.5
	l-16.4,45.2l45.2,16.1l276.9-129.7L749.1,516l45.1-16.3l-16.4-45.1L551.5,348.8z M287.3,215.7l144.5-68.1L285.9,79l14.7-30.8
	l171.6,80.5l173-80.5l14.7,29.9l-147.7,69.5l146.3,68.6l-4.9,9.9l-27.3,12.8l-154.4-72.5l-154.6,72.5l-24.7-11.5L287.3,215.7z
	 M606.5,248.2l-134.9,63.1l-134.5-63l134.3-63.4L606.5,248.2z M737.2,491.8L472.1,367.4L206.7,491.8l-14.4-30.7l239.8-112.4
	L192.4,236.5l14.4-30.6L472.1,330l265-124.2l14.4,30.8L512,348.7L751.6,461L737.2,491.8z"/>
</svg>
