<?xml version="1.0" encoding="utf-8"?>
<!-- Generator: Adobe Illustrator 19.2.0, SVG Export Plug-In . SVG Version: 6.00 Build 0)  -->
<svg version="1.1" id="Livello_1" xmlns="http://www.w3.org/2000/svg" xmlns:xlink="http://www.w3.org/1999/xlink" x="0px" y="0px"
	 viewBox="0 0 960 960" style="enable-background:new 0 0 960 960;" xml:space="preserve">
<style type="text/css">
	.st0{fill-rule:evenodd;clip-rule:evenodd;fill:#FFFFFF;stroke:#1A171B;stroke-width:1.3806;stroke-miterlimit:2.6131;}
	.st1{fill-rule:evenodd;clip-rule:evenodd;fill:#E1001A;stroke:#E1001A;stroke-width:4.6019;stroke-miterlimit:2.6131;}
	.st2{fill-rule:evenodd;clip-rule:evenodd;fill:#FFFFFF;stroke:#E1001A;stroke-width:1.3806;stroke-miterlimit:2.6131;}
</style>
<g>
	<g>
		<polygon class="st0" points="570.1,803 644.1,830 670.1,756.1 541.5,480.2 670.4,203.9 643.8,130 570.1,157 480,349.3 389.9,157 
			316.1,130 289.6,203.5 418.5,480.2 289.6,756.3 316.1,830 389.9,803 480,611 570.1,803 		"/>
		<polygon class="st1" points="480.1,559.8 585.9,785.7 631.1,802.1 647.3,756.9 517.5,480 647.4,202.5 631.1,157.4 586,173.8 
			480.1,400.1 374.1,173.8 329.1,157.4 312.8,202.4 442.7,480 312.9,757 329.1,802.1 374.2,785.7 480.1,559.8 		"/>
		<polygon class="st2" points="461.4,479.5 337.3,744.8 367.8,759.2 480.1,519.6 592.4,759.3 623.1,744.9 498.8,479.5 623.1,214.4 
			592.3,200 480.1,439.6 367.9,200.1 337.2,214.5 461.4,479.5 		"/>
	</g>
</g>
</svg>
