<?xml version="1.0" encoding="utf-8"?>
<!-- Generator: Adobe Illustrator 19.2.0, SVG Export Plug-In . SVG Version: 6.00 Build 0)  -->
<svg version="1.1" id="Livello_1" xmlns="http://www.w3.org/2000/svg" xmlns:xlink="http://www.w3.org/1999/xlink" x="0px" y="0px"
	 viewBox="0 0 671.8 595.4" style="enable-background:new 0 0 671.8 595.4;" xml:space="preserve">
<style type="text/css">
	.st0{fill:#FFFFFF;stroke:#1A171B;stroke-width:1.3397;stroke-miterlimit:2.6131;}
	.st1{fill:#E1001A;}
	.st2{fill:#FFFFFF;stroke:#E1001A;stroke-width:4.4658;stroke-miterlimit:2.6131;}
	.st3{fill:#1A171B;stroke:#1A171B;stroke-width:3.5726;stroke-miterlimit:2.6131;}
	.st4{fill:#1A171B;}
	.st5{fill:#FFFFFF;}
	.st6{fill:#1A171B;stroke:#1A171B;stroke-width:1.3397;stroke-miterlimit:2.6131;}
</style>
<g>
	<g>
		<path class="st0" d="M625.1,594.4c31.1-1.3,49.8-24.6,44.9-55.5l-1.1-4.7l-1.8-5.1l-2.2-4.9L379.2,28.6
			C364.8,6.6,344.6-6,318.3,5.1c-10,5.5-17.3,13.3-23.1,22.7L10,521.8c-10.4,19.5-14.4,40,1.5,58c12.6,13.3,28.2,14.7,45.8,14.7
			l561-0.2L625.1,594.4L625.1,594.4z"/>
		<path class="st1" d="M618.2,580.1c8.7-0.2,17.3,0.9,26.4-5.8c9.1-6.7,17.5-23.8,7.6-43.5L366.8,36c-16-28-44.2-27.3-59.5-0.7
			L22.5,529c-6,10.5-11.1,25.5-4.2,36.6c9.1,14.5,23.5,14.5,38.9,14.7L618.2,580.1L618.2,580.1z"/>
		<polygon class="st2" points="580.2,522 336.6,100.6 93.6,522 		"/>
		<polygon class="st3" points="167.9,453.8 176.6,424.7 205.5,424.7 205.5,453.8 		"/>
		<path class="st4" d="M210.9,456v-37h-33.3c0.2-5.7,5.7-11.7,11.7-11.7h82.4l38.8-27.1l26.1,0.2v6.9h-23.4l-28.4,19.6h204.1
			c5.3,0,11.7,3.4,14.7,12.1l9.5,36l0.2,0.6L210.9,456L210.9,456z"/>
		<polygon class="st5" points="217.3,448.6 217.5,418.9 268.8,418.9 268.8,448 		"/>
		<polygon class="st5" points="274.5,448.8 274.3,418.1 325.8,418.1 325.8,448 		"/>
		<polygon class="st5" points="331.4,448.8 331.2,418.1 384.6,418.1 384.6,448 		"/>
		<polygon class="st5" points="390.8,448.8 390.2,418.1 442.7,418.1 442.7,448 		"/>
		<polygon class="st5" points="447.7,448.8 447.9,418.1 495,418.1 504.5,448.8 		"/>
		<polygon class="st5" points="175,448 181.1,430.6 200.7,429.8 200.7,448 		"/>
		<path class="st6" d="M167.3,483c0-4.7,0-11,0-17.4l345-0.1c0,5.7,0.1,8.5,0.1,14.3c0.2,5.7-5.7,8.7-11.5,8.7l-49.8,0.1
			c0,0.2,0.2,0.2,0.2,0.2c0,6.3-5.2,11.5-11.5,11.5c-6.5,0-11.6-5.2-11.6-11.5c0,0,0,0,0-0.2l-14.4,0.2c0,6.2-5.3,11.5-11.5,11.5
			c-6.5,0-11.8-5.3-11.6-11.6H271.6c0,0.2,0.1,0.2,0.1,0.2c0,6.3-5.2,11.5-11.5,11.5c-6.5,0-11.6-5.2-11.6-11.5c0,0,0,0,0-0.2h-14.7
			c0,0.2,0.1,0.2,0.1,0.2c0,6.3-5.2,11.5-11.5,11.5c-6.5,0-11.6-5.2-11.6-11.5c0,0,0,0,0-0.2L167.3,483L167.3,483z"/>
	</g>
</g>
</svg>
