<?xml version="1.0" encoding="utf-8"?>
<!-- Generator: Adobe Illustrator 19.2.0, SVG Export Plug-In . SVG Version: 6.00 Build 0)  -->
<svg version="1.1" id="Livello_1" xmlns="http://www.w3.org/2000/svg" xmlns:xlink="http://www.w3.org/1999/xlink" x="0px" y="0px"
	 viewBox="0 0 672.2 595.4" style="enable-background:new 0 0 672.2 595.4;" xml:space="preserve">
<style type="text/css">
	.st0{fill:#FFFFFF;stroke:#1A171B;stroke-width:1.3397;stroke-miterlimit:2.6131;}
	.st1{fill:#E1001A;}
	.st2{fill:#FFFFFF;stroke:#E1001A;stroke-width:4.4658;stroke-miterlimit:2.6131;}
	.st3{fill:#1A171B;stroke:#1A171B;stroke-width:1.3397;stroke-miterlimit:2.6131;}
</style>
<g>
	<g>
		<path class="st0" d="M625.3,594.4c31.1-1.3,49.8-24.6,44.9-55.5l-1.1-4.7l-1.8-5.1l-2.2-4.9L379.4,28.6C365,6.6,344.8-6,318.5,5.1
			c-10,5.5-17.3,13.3-23.1,22.7l-285.2,494c-10.4,19.5-14.4,40,1.5,58c12.6,13.3,28.2,14.7,45.8,14.7l561-0.2L625.3,594.4
			L625.3,594.4z"/>
		<path class="st1" d="M618.4,580.1c8.7-0.2,17.3,0.9,26.4-5.8c9.1-6.7,17.5-23.8,7.6-43.5L367,36c-16-28-44.2-27.3-59.5-0.7
			L22.7,529c-6,10.5-11.1,25.5-4.2,36.6c9.1,14.5,23.5,14.5,38.9,14.7L618.4,580.1L618.4,580.1z"/>
		<polygon class="st2" points="580.4,522 336.8,100.6 93.8,522 		"/>
		<polygon class="st3" points="491,501.6 453.8,411.4 486.6,411.4 536.9,501.6 		"/>
		<polygon class="st3" points="131.6,501.6 181.9,411.4 213.4,411.4 176.2,501.6 		"/>
		<path class="st3" d="M219.6,501.6l31-90.3h21.7c-8.5,18.7-11.9,24-20.4,41.5c-3.4,12.1,9.6,24.2,20.2,21.7l-4.2,27L219.6,501.6
			L219.6,501.6z"/>
		<polygon class="st3" points="312.5,501.6 319.9,411.4 349.7,411.4 357.1,501.6 		"/>
		<path class="st3" d="M401.7,501.6l-3.6-30.6c11.1-2.6,13.6-8.7,13.6-19.8l-14.9-39.8h23.6l26.1,90.3h-44.8L401.7,501.6
			L401.7,501.6z"/>
		<path class="st3" d="M259.3,453.2L321,326.3l-5.8-26.6l-27.6,30.5c-9.3,12.9-28.6-1.5-18.1-13.7l51.5-59.6c2.7-2.3,2.7-2.5,7.7-5
			l20.8-6.6c2.5,0.2,6.6,0.6,9.1,3.1l39.4,42.8c2.5,2.5,2.5,5.4,2.5,7.7c0,12.7,0,19.5,0,32.2c0,11.4-19.9,11.4-19.9,0v-27
			l-17.4-17.6l-5.2,37.6l46.3,128.3c3.9,11.4-21,17.6-25.3,6.9l-39.9-105.9l-54.3,108.4C276.5,477.1,255.7,464.5,259.3,453.2
			L259.3,453.2z"/>
		<path class="st3" d="M334.7,204.6c10.2,0,18.6,8.4,18.6,18.6s-8.4,18.6-18.6,18.6s-18.6-8.4-18.6-18.6
			C316.1,212.9,324.5,204.6,334.7,204.6L334.7,204.6z"/>
	</g>
</g>
</svg>
