<?xml version="1.0" encoding="utf-8"?>
<!-- Generator: Adobe Illustrator 19.2.0, SVG Export Plug-In . SVG Version: 6.00 Build 0)  -->
<svg version="1.1" id="Livello_1" xmlns="http://www.w3.org/2000/svg" xmlns:xlink="http://www.w3.org/1999/xlink" x="0px" y="0px"
	 viewBox="0 0 672.2 596.1" style="enable-background:new 0 0 672.2 596.1;" xml:space="preserve">
<style type="text/css">
	.st0{fill:#FFFFFF;stroke:#1A171B;stroke-width:1.3397;stroke-miterlimit:2.6131;}
	.st1{fill:#E1001A;}
	.st2{fill:#FFFFFF;stroke:#E1001A;stroke-width:4.4658;stroke-miterlimit:2.6131;}
	.st3{fill:#1A171B;stroke:#1A171B;stroke-width:1.3397;stroke-miterlimit:2.6131;}
</style>
<g>
	<g>
		<path class="st0" d="M625.2,594.7c31.1-1.3,49.8-24.6,44.9-55.5l-1.1-4.7l-1.8-5.1l-2.2-4.9L379.3,28.9
			c-14.4-22-34.6-34.6-60.9-23.5c-10,5.5-17.3,13.3-23.1,22.7l-285.2,494c-10.4,19.5-14.4,40,1.5,58c12.6,13.3,28.2,14.7,45.8,14.7
			l561-0.2L625.2,594.7L625.2,594.7z"/>
		<path class="st1" d="M618.3,580.4c8.7-0.2,17.3,0.9,26.4-5.8c9.1-6.7,17.5-23.8,7.6-43.5L366.9,36.3c-16-28-44.2-27.3-59.5-0.7
			L22.6,529.3c-6,10.5-11.1,25.5-4.2,36.6c9.1,14.5,23.5,14.5,38.9,14.7L618.3,580.4L618.3,580.4z"/>
		<polygon class="st2" points="580.3,522.3 336.7,100.9 93.7,522.3 		"/>
		<polygon class="st3" points="239.4,489.5 239.4,394.7 270.9,325.7 270.9,260.7 313.4,260.7 313.4,325.5 281.8,396.4 282,489.5 		
			"/>
		<polygon class="st3" points="429.5,489.5 429.5,394.7 398,325.7 398,260.7 355.5,260.7 355.5,325.5 387.2,396.4 387,489.5 		"/>
	</g>
</g>
</svg>
