<?xml version="1.0" encoding="utf-8"?>
<!-- Generator: Adobe Illustrator 19.2.0, SVG Export Plug-In . SVG Version: 6.00 Build 0)  -->
<svg version="1.1" id="Livello_1" xmlns="http://www.w3.org/2000/svg" xmlns:xlink="http://www.w3.org/1999/xlink" x="0px" y="0px"
	 viewBox="0 0 672.1 596.1" style="enable-background:new 0 0 672.1 596.1;" xml:space="preserve">
<style type="text/css">
	.st0{fill:#FFFFFF;stroke:#1A171B;stroke-width:1.3397;stroke-miterlimit:2.6131;}
	.st1{fill:#E1001A;}
	.st2{fill:#FFFFFF;stroke:#E1001A;stroke-width:4.4658;stroke-miterlimit:2.6131;}
	.st3{fill:#1A171B;stroke:#1A171B;stroke-width:1.3397;stroke-miterlimit:2.6131;}
</style>
<g>
	<g>
		<path class="st0" d="M625.2,594.8c31.1-1.3,49.8-24.6,44.9-55.5l-1.1-4.7l-1.8-5.1l-2.2-4.9L379.3,29C364.9,7,344.7-5.6,318.4,5.5
			c-10,5.5-17.3,13.3-23.1,22.7l-285.2,494c-10.4,19.5-14.4,40,1.5,58c12.6,13.3,28.2,14.7,45.8,14.7l561-0.2L625.2,594.8
			L625.2,594.8z"/>
		<path class="st1" d="M618.3,580.5c8.7-0.2,17.3,0.9,26.4-5.8c9.1-6.7,17.5-23.8,7.6-43.5L366.9,36.4c-16-28-44.2-27.3-59.5-0.7
			L22.6,529.4c-6,10.5-11.1,25.5-4.2,36.6c9.1,14.5,23.5,14.5,38.9,14.7L618.3,580.5L618.3,580.5z"/>
		<polygon class="st2" points="580.3,522.4 336.7,101 93.7,522.4 		"/>
		<path class="st3" d="M272.7,488.5c-11.8-0.6-18.6,7.4-30.2,13v-7.3c11.4-6.2,20.8-13,30.2-13s18.8,15,33.7,15
			c14.9,0,19.8-15,33.9-15c9.4,0,17.8,13,30.6,13c12.8,0,23.3-12.6,35.3-13s14.9,7.4,26.3,13v7.4c-11.4-7.4-16.9-13-26.5-13
			s-24.3,13-35.5,13s-20.8-13-30-13s-19,15-33.9,15C291.7,503.5,284.5,489.1,272.7,488.5L272.7,488.5z"/>
		<path class="st3" d="M272.7,473.6c-11.8-0.6-18.6,7.4-30.2,13v-7.4c11.4-6.2,20.8-13,30.2-13s18.8,15,33.7,15
			c14.9,0,19.8-15,33.9-15c9.4,0,17.8,13,30.6,13c12.8,0,23.3-12.6,35.3-13s14.9,7.4,26.3,13v7.4c-11.4-7.4-16.9-13-26.5-13
			s-24.3,13-35.5,13s-20.8-13-30-13s-19,15-33.9,15S284.5,474.2,272.7,473.6L272.7,473.6z"/>
		<polygon class="st3" points="443.7,503.5 443.7,456.9 451.1,456.9 451.1,436.5 512.5,436.5 512.5,456.9 523,456.5 549,503.5 		"/>
		<polygon class="st3" points="150.4,456.5 161.3,456.9 161.3,436.5 209.5,436.5 209.7,456.9 226.4,456.9 217.4,446.2 221.7,441.5 
			205.8,424.2 351.3,280.9 368.4,298 372.1,294.5 385.3,307.3 230.1,460.6 230.1,503.5 124.2,503.5 		"/>
		<polygon class="st0" points="166.9,456.9 166.9,441.9 204.2,441.9 204,456.9 		"/>
		<polygon class="st0" points="456.8,456.9 456.8,441.9 507.3,442.1 507.1,456.9 		"/>
		<path class="st0" d="M308.6,332l41.4-41c0.6-0.6,1.7-0.6,2.3,0l8.9,9c0.6,0.7,0.6,1.7,0,2.4l-41.4,41c-0.6,0.6-1.7,0.6-2.3,0
			l-8.9-9C307.9,333.7,307.9,332.6,308.6,332L308.6,332z"/>
		<polygon class="st0" points="214.9,424.4 256.2,384.6 266.5,395.3 225.2,435.1 		"/>
		<polygon class="st0" points="260.4,379.8 303,337.7 313.8,348.7 271.3,390.8 		"/>
	</g>
</g>
</svg>
