<?xml version="1.0" encoding="utf-8"?>
<!-- Generator: Adobe Illustrator 19.2.0, SVG Export Plug-In . SVG Version: 6.00 Build 0)  -->
<svg version="1.1" id="Livello_1" xmlns="http://www.w3.org/2000/svg" xmlns:xlink="http://www.w3.org/1999/xlink" x="0px" y="0px"
	 viewBox="0 0 672.3 596.1" style="enable-background:new 0 0 672.3 596.1;" xml:space="preserve">
<style type="text/css">
	.st0{fill:#FFFFFF;stroke:#1A171B;stroke-width:1.3397;stroke-miterlimit:2.6131;}
	.st1{fill:#E1001A;}
	.st2{fill:#FFFFFF;stroke:#E1001A;stroke-width:4.4658;stroke-miterlimit:2.6131;}
	.st3{fill:#1A171B;stroke:#1A171B;stroke-width:1.3397;stroke-miterlimit:2.6131;}
</style>
<g>
	<g>
		<path class="st0" d="M625.2,594.4c31.1-1.3,49.8-24.6,44.9-55.5l-1.1-4.7l-1.8-5.1l-2.2-4.9L379.3,28.6
			C364.9,6.6,344.7-6,318.4,5.1c-10,5.5-17.3,13.3-23.1,22.7l-285.2,494c-10.4,19.5-14.4,40,1.5,58c12.6,13.3,28.2,14.7,45.8,14.7
			l561-0.2L625.2,594.4L625.2,594.4z"/>
		<path class="st1" d="M618.3,580.1c8.7-0.2,17.3,0.9,26.4-5.8c9.1-6.7,17.5-23.8,7.6-43.5L366.9,36c-16-28-44.2-27.3-59.5-0.7
			L22.6,529c-6,10.5-11.1,25.5-4.2,36.6c9.1,14.5,23.5,14.5,38.9,14.7L618.3,580.1L618.3,580.1z"/>
		<polygon class="st2" points="580.3,522 336.7,100.6 93.7,522 		"/>
		<polygon class="st3" points="170,452.6 170,420.2 342.8,420.2 342.8,452.6 		"/>
		<path class="st3" d="M265.8,403.8l3.5-18.5l26.3,5l-3.6,19.1c-0.6,3.1-3.9,3.5-7.2,2.9l-13.8-2.8
			C266.1,408.7,265.2,407.1,265.8,403.8L265.8,403.8z"/>
		<path class="st3" d="M398.4,429.1l3.5-18.5l26.5,5.1l-3.8,19.1c-0.6,3.1-3.9,3.5-7.2,2.9l-14.4-2.9
			C398.9,434,397.4,432.3,398.4,429.1L398.4,429.1z"/>
		<path class="st3" d="M263.7,379.5c-5.7-1.1-3.8-10.6,1.6-9.6L438.9,403c5.3,1,3.6,10.6-2,9.5L263.7,379.5L263.7,379.5z"/>
		<path class="st3" d="M270.9,365.5c-0.8-2.4-1.3-4.7-1.1-6.9l32.2,6.1c2.8-2.9,3.2-4.9,3.8-8.2l-34.2-6.5l0.6-4.3l34.3,6.6
			c0.6-3.1,0.2-6.4-1.5-9.2l-31.2-6c0.4-2.2,1-4.1,3.5-5.8c2.2-0.8,5.4-1.8,7.8-1.7c51.5-0.9,100.6,7.9,149.9,27.4
			c2.2,1.2,4.5,2.1,7.2,4.6c1.7,2.6,2.1,5.9,1.7,8l-30.8-5.9c-3.8,1.7-5.5,4.6-6.1,7.7l35.7,6.8l-1.2,4.2l-35.3-6.7
			c-0.6,3.3-1.2,6.4,2.7,9.4l31,5.9c-0.4,2.1-1.8,4.1-4.4,5.8L270.9,365.5L270.9,365.5z"/>
		<path class="st3" d="M285.1,324.9l19.6-38.3c3.9-3.7,7.7-5.4,12-5.6c36.3,1.5,71.7,8.2,106.9,20.6c4.3,1.6,6.8,5.5,9.1,10.4
			l3.6,39.5l-9.2-4l-2.9-31.5c-0.3-3.5-2.3-4.9-5.2-7.7c-32.4-10.6-65.5-17-99.5-19c-4.4,0-5.6,0.8-8.4,3.9l-14.9,30.3L285.1,324.9
			L285.1,324.9z"/>
		<path class="st0" d="M334.9,349l47.1,9c1.8,0.3,2.9,2,2.6,3.8l-2.9,15.1c-0.3,1.8-2,2.9-3.8,2.6l-47.1-9c-1.7-0.3-2.9-2-2.6-3.8
			l2.9-15.1C331.5,349.8,333.2,348.6,334.9,349L334.9,349z"/>
		<polygon class="st3" points="352.1,425.8 360.1,422.5 367.6,425.3 371.1,433.1 368.2,440.5 360.4,444 353,441.1 349.1,433.5 		"/>
		<polygon class="st3" points="362.2,466.1 366.7,464.3 370.8,465.8 372.7,470.1 371.1,474.2 366.8,476.1 362.7,474.6 360.6,470.4 
					"/>
		<polygon class="st3" points="349,451.6 352.2,450.3 355.2,451.5 356.5,454.6 355.4,457.5 352.3,458.9 349.3,457.8 347.8,454.7 		
			"/>
		<polygon class="st3" points="386.6,466.7 389.8,465.4 392.8,466.5 394.1,469.6 393,472.6 389.9,474 386.9,472.8 385.4,469.8 		"/>
		<polygon class="st3" points="420,448.5 423.2,447.1 426.2,448.3 427.6,451.4 426.4,454.3 423.3,455.7 420.3,454.6 418.8,451.6 		
			"/>
		<polygon class="st3" points="468,464.6 471.3,463.2 474.2,464.4 475.6,467.5 474.5,470.4 471.4,471.8 468.4,470.7 466.9,467.7 		
			"/>
		<polygon class="st3" points="476.6,492.4 479.8,491.1 482.8,492.2 484.2,495.3 483,498.3 480,499.7 477,498.5 475.4,495.5 		"/>
		<polygon class="st3" points="504.5,497.8 507.7,496.5 510.7,497.6 512.1,500.7 510.9,503.7 507.8,505.1 504.8,503.9 503.3,500.9 
					"/>
		<polygon class="st3" points="437.3,456.5 441.8,454.6 445.9,456.2 447.8,460.5 446.2,464.6 441.9,466.5 437.8,464.9 435.7,460.7 
					"/>
		<polygon class="st3" points="406.6,466 411,464.2 415.2,465.8 417.1,470 415.5,474.1 411.2,476.1 407.1,474.5 405,470.3 		"/>
		<polygon class="st3" points="372.9,442.7 380.6,439.6 387.6,442.3 390.9,449.7 388.1,456.7 380.8,460 373.8,457.3 370.1,450.1 		
			"/>
		<polygon class="st3" points="441.5,476.9 448.7,473.9 455.4,476.5 458.5,483.4 455.9,490.1 449,493.2 442.3,490.7 438.8,483.9 		
			"/>
		<polygon class="st3" points="487.6,470.4 494.8,467.5 501.5,470 504.6,477 502,483.7 495.1,486.8 488.4,484.2 484.9,477.4 		"/>
		<polygon class="st3" points="398.1,445.2 403.7,442.8 408.9,444.8 411.3,450.3 409.3,455.5 403.9,457.9 398.7,455.9 396,450.6 		
			"/>
		<polygon class="st3" points="422.1,472 427.7,469.7 432.9,471.7 435.3,477.2 433.3,482.4 427.9,484.8 422.7,482.8 420,477.5 		"/>
	</g>
</g>
</svg>
