<?xml version="1.0" encoding="utf-8"?>
<!-- Generator: Adobe Illustrator 19.2.0, SVG Export Plug-In . SVG Version: 6.00 Build 0)  -->
<svg version="1.1" id="Livello_1" xmlns="http://www.w3.org/2000/svg" xmlns:xlink="http://www.w3.org/1999/xlink" x="0px" y="0px"
	 viewBox="0 0 672 595.5" style="enable-background:new 0 0 672 595.5;" xml:space="preserve">
<style type="text/css">
	.st0{fill:#FFFFFF;stroke:#1A171B;stroke-width:1.3397;stroke-miterlimit:2.6131;}
	.st1{fill:#E1001A;}
	.st2{fill:#FFFFFF;stroke:#E1001A;stroke-width:4.4658;stroke-miterlimit:2.6131;}
	.st3{fill:#1A171B;stroke:#1A171B;stroke-width:1.3397;stroke-miterlimit:2.6131;}
</style>
<g>
	<g>
		<path class="st0" d="M625.2,594.3c31.1-1.3,49.8-24.6,44.9-55.5l-1.1-4.7l-1.8-5.1l-2.2-4.9L379.3,28.5
			C364.9,6.5,344.7-6.1,318.4,5c-10,5.5-17.3,13.3-23.1,22.7l-285.2,494c-10.4,19.5-14.4,40,1.5,58c12.6,13.3,28.2,14.7,45.8,14.7
			l561-0.2L625.2,594.3L625.2,594.3z"/>
		<path class="st1" d="M618.3,580c8.7-0.2,17.3,0.9,26.4-5.8c9.1-6.7,17.5-23.8,7.6-43.5L366.9,35.9c-16-28-44.2-27.3-59.5-0.7
			L22.6,528.9c-6,10.5-11.1,25.5-4.2,36.6c9.1,14.5,23.5,14.5,38.9,14.7L618.3,580L618.3,580z"/>
		<polygon class="st2" points="580.3,521.9 336.7,100.5 93.7,521.9 		"/>
		<path class="st3" d="M286.8,492.6l-5-45.4l-1.6-15.3l4.1-12.4l-3.1-1.7l8.5-23.7l-17.3-26.6l-18.5,28.7c-5.8,9.3-22.1-2.1-14-11.4
			l31.2-52.2c10.5-12.8,14.5-6.4,23.3-7.4l55.5,21.9c9.9,4.5,4.1,21.7-6.8,17.8L314,353.1l7.6,28.1l19.4,25l-2.5,2.7l7.2,7.4
			l25.4-17.5c9.5-6,20,7.4,10.9,14.5L347.3,436c-3.5,2.7-7,2.5-10.5-0.8l-12.9-13.6l-2.5,2.3l-8.9-10.7l-5.8,13.8l-3.5-1.8l-2.9,8.3
			c-1.2,4.9-1,7.8,0.8,14.7l4.3,42.3C305.5,501.1,288.4,503.4,286.8,492.6L286.8,492.6z"/>
		<path class="st3" d="M415.4,306.1c10,0,18.1,8.2,18.1,18.1c0,2.3-0.5,5-1.4,7.3c1.8,1.4,3.6,2.3,5.4,3.6l1.4-7.3l10.9,6.3
			l-5.9,4.6l11.8,6.8c3.2,2.3,0.9,6.3-2.3,5.4l-12.7-7.3l-0.5,8.2l-11.8-6.3l5.9-5.4c-2.3-0.9-4.1-1.8-5.9-2.7
			c-3.2,3.6-7.7,5.9-13.1,5.9c-10.9,0-19.1-8.2-19.1-19C396.3,314.2,404.5,306.1,415.4,306.1L415.4,306.1z"/>
		<path class="st3" d="M400.5,494.7l-8.7-40.5l1.2-8l6.8-24.6l-8,0.4l12.8-25.8l-5.4-20.2c-6.2,2.1-8.9,6.2-17.5,8.1l-8-2.1
			l-12.6-13.8c-7.2-6.2,1.4-16.9,7.8-10.7l11.8,11.6c11.1-5,18.6-13,32.8-19.4c5,0.4,9.9-1.4,15.9,1.4l25.2,10.7l9.1,21.5
			c3.7,8.5-8.5,11.6-12,3.3l-4.7-11.1l-9.1-4.7l-6.2,22.5l12.6,23.7l-6.2,1.4l5.2,12.8l31-9.9c8.9-3.5,13.8,8.3,5,12.8l-39.4,13.7
			l-8.9-4.9l-7.6-22.5l-7.6,0.2l-8.7,30.4l7.6,39.6C415.8,500,403.8,502.7,400.5,494.7L400.5,494.7z"/>
		<polygon class="st3" points="452,421.3 451,399.2 475.2,391.1 488.2,407.8 		"/>
		<path class="st3" d="M220.3,389.7l43.3,30.7c1.2,0.9,1.5,2.6,0.7,3.8l-22,31.1c-0.9,1.2-2.6,1.5-3.8,0.6l-43.3-30.7
			c-1.2-0.9-1.5-2.6-0.7-3.8l22-31.1C217.3,389.2,219,388.9,220.3,389.7L220.3,389.7z"/>
		<path class="st3" d="M259.3,285.6c11.7,0,21.3,9.6,21.3,21.3c0,11.7-9.6,21.3-21.3,21.3c-11.7,0-21.3-9.6-21.3-21.3
			S247.6,285.6,259.3,285.6L259.3,285.6z"/>
	</g>
</g>
</svg>
