<?xml version="1.0" encoding="utf-8"?>
<!-- Generator: Adobe Illustrator 19.2.0, SVG Export Plug-In . SVG Version: 6.00 Build 0)  -->
<svg version="1.1" id="Livello_1" xmlns="http://www.w3.org/2000/svg" xmlns:xlink="http://www.w3.org/1999/xlink" x="0px" y="0px"
	 viewBox="0 0 672.3 596" style="enable-background:new 0 0 672.3 596;" xml:space="preserve">
<style type="text/css">
	.st0{fill:#FFFFFF;stroke:#1A171B;stroke-width:1.3397;stroke-miterlimit:2.6131;}
	.st1{fill:#E1001A;}
	.st2{fill:#FFFFFF;stroke:#E1001A;stroke-width:4.4658;stroke-miterlimit:2.6131;}
	.st3{fill:#1A171B;stroke:#1A171B;stroke-width:1.3397;stroke-miterlimit:2.6131;}
</style>
<g>
	<g>
		<path class="st0" d="M625.3,594.5c31.1-1.3,49.8-24.6,44.9-55.5l-1.1-4.7l-1.8-5.1l-2.2-4.9L379.4,28.7
			C365,6.7,344.8-5.9,318.5,5.2c-10,5.5-17.3,13.3-23.1,22.7l-285.2,494c-10.4,19.5-14.4,40,1.5,58c12.6,13.3,28.2,14.7,45.8,14.7
			l561-0.2L625.3,594.5L625.3,594.5z"/>
		<path class="st1" d="M618.4,580.2c8.7-0.2,17.3,0.9,26.4-5.8c9.1-6.7,17.5-23.8,7.6-43.5L367,36.1c-16-28-44.2-27.3-59.5-0.7
			L22.7,529.1c-6,10.5-11.1,25.5-4.2,36.6c9.1,14.5,23.5,14.5,38.9,14.7L618.4,580.2L618.4,580.2z"/>
		<polygon class="st2" points="580.4,522.1 336.8,100.7 93.8,522.1 		"/>
		<path class="st3" d="M309.9,479.2l6.4-6c2.7-5.8,1.8-9.5,0.2-15.4c-0.4-2.3-3.7-7.8-2.9-10.9c1.2-4.5-1.9-6-1.6-10.3
			c0.4-3.5-0.4-5.3-0.4-9.3c-3.3-4.7-10.9-3.1-18.5-6.2c-12.3-12.3-14.6-32.3-26.7-46.1l-6-2.3c-7.6,1.4-8.4,7-17.5,10.3l-9.1-1.6
			c-1.8-1.8-4.7-7.6-4.7-13.8c2.9-6.2,9.1-13.8,9.1-23c0-6.2,4.7-7.6,7.6-13.8c-0.4-5.3-1.6-11.5-2.7-17.7l8.6,9.3
			c2.3,3.9,13.6-1,14.2,2.9c0,0,10.5-8,11.9-9.3c0.8,6.8-1.6,8-2.1,12.5c0.2,4.7,5.8,6.4,9.7,6.4c15.6,0,27.2-1.4,44.2-6
			c2.3,0.6,5.6-0.8,8.4-0.4c15,2.7,32.9,5.3,48.8,4.7c18.1-0.6,40.1-7.8,52-4.7c3.5,1.4,8.4,5.8,8.6,13.4
			c3.3,16.9,5.3,37.4,9.3,55.1c0.2,1,0,5.1,2,6.4c2.1,1.4,1.4,4.1,1.4,5.3c0,9,0.2,13,0.2,21.8c0,1.6-2.7,1.2-2.7,2
			c-0.4,8.9-2.7,18.7-1.8,27.8c0,1.2,0.4,3.5,0.4,4.7c0,5.1-1.9,5.6-1.9,7.8s0.2,6.2-0.4,8.6c-3.3,1.4-8.6,1-14.6,1
			c-1.6-1.2-3.7-2.3-2.7-4.9l7.6-4.1c0.6-1.4,0.8-5.1,0.8-6.4c0-0.8,1.6-2.5,1.6-3.5c1.2-10.3-1.9-22.4-2.7-30.4
			c-5.3-5.3-13-10.3-20.6-14.2c-0.8,3.5-1.4,3.3-1.9,7c-3.5-0.8-2.5,0.2-6-2.7c-0.6-0.4-5.1,2.5-8.6,2.9c-0.8-1.4,1.2-3.3,1.8-4.9
			c-1.8-2.9-8.4-7.6-10.9-12.8c-15.4,12.3-44.4,17.5-66.3,10.9c-1,12.1-5.3,28.2-3.9,44c0.4,4.5,4.3,3.7-1.4,10.9
			c2.5,3.7,1.9,4.9,1.8,8c-4.7,0.6-12.1-0.2-15.8,0C310.7,482,309.9,479.2,309.9,479.2L309.9,479.2z"/>
		<path class="st0" d="M452.5,401.2c-1.5-8.9-4.3-20.8-5.9-29.9c-2.1,5-4.3,10.1-7.9,12.7c4,5.6,5,16.4,9.9,23.5
			C450.9,406,450.2,404.2,452.5,401.2L452.5,401.2z"/>
	</g>
</g>
</svg>
