<?xml version="1.0" encoding="utf-8"?>
<!-- Generator: Adobe Illustrator 19.2.0, SVG Export Plug-In . SVG Version: 6.00 Build 0)  -->
<svg version="1.1" id="Livello_1" xmlns="http://www.w3.org/2000/svg" xmlns:xlink="http://www.w3.org/1999/xlink" x="0px" y="0px"
	 viewBox="0 0 672.4 595.4" style="enable-background:new 0 0 672.4 595.4;" xml:space="preserve">
<style type="text/css">
	.st0{fill:#FFFFFF;stroke:#1A171B;stroke-width:1.3397;stroke-miterlimit:2.6131;}
	.st1{fill:#E1001A;}
	.st2{fill:#FFFFFF;stroke:#E1001A;stroke-width:4.4658;stroke-miterlimit:2.6131;}
	.st3{fill:#1A171B;stroke:#1A171B;stroke-width:1.3397;stroke-miterlimit:2.6131;}
</style>
<g>
	<g>
		<path class="st0" d="M625.4,594.2c31.1-1.3,49.8-24.6,44.9-55.5l-1.1-4.7l-1.8-5.1l-2.2-4.9L379.5,28.4
			c-14.4-22-34.6-34.6-60.9-23.5c-10,5.5-17.3,13.3-23.1,22.7l-285.2,494c-10.4,19.5-14.4,40,1.5,58c12.6,13.3,28.2,14.7,45.8,14.7
			l561-0.2L625.4,594.2L625.4,594.2z"/>
		<path class="st1" d="M618.5,579.9c8.7-0.2,17.3,0.9,26.4-5.8c9.1-6.7,17.5-23.8,7.6-43.5L367.1,35.8c-16-28-44.2-27.3-59.5-0.7
			L22.8,528.8c-6,10.5-11.1,25.5-4.2,36.6c9.1,14.5,23.5,14.5,38.9,14.7L618.5,579.9L618.5,579.9z"/>
		<polygon class="st2" points="580.5,521.8 336.9,100.4 93.9,521.8 		"/>
		<path class="st3" d="M481,499.5c-3.7-3.7-7.6-7.3-9.1-10.3c-0.4-0.7-1.9-3.9-2.2-4.5c-9.3-10.6-23.9-33.4-30.8-49.2
			c-10.3-10.8-40.1-17.2-42-35.1c-11-3-11.2-3.4-20.5-9.7c-41.4-3.4-42-1.9-54.5-8.8c-13.1-0.2-19-2.8-24.8-4.1
			c-8.8-1.3-9.5,0.2,0.6,6.3c7.5,4.5,15.3,10.4,23.7,14.5c6.9,1.5,9.7,2.2,12.9,4.3c0.7,5.2,0.9,9.7,1.7,15.3
			c-1.7,1.1-2.8,0.8-4.3,0.8c-5.4-4.3-10.3-9.9-15.3-13.1c-16.6-10.6-51.3-27-53-34.3c-0.9-3.4,0.6-6.7,5.2-8.8
			c13.2,0,25.6-2.4,40.1-2.4c-3.9-11.6-2.1-18.1-0.4-28.7c-4.3-14.7-5.8-27.4-4.1-40.5c-12.3-5.2-22.6-7.5-30.8-12.9
			c-1.5-1.5-3.9-2.2-4.5-4.5c1.3-4.3,3.9-3.7,17-5.4c6.5-2.1,14.7-4.3,17.7-10.8c1.5-3.2,5-7.3,9.9-14.5c-2.4-5.4-2.6-10.8-1.3-16.8
			c1.9,3.9,2.6,8.8,7.3,11c6.2-3.5,8.8-2.8,13.2-6c1.5-3.7,3.7-15.7,10.6-15.7c-4.1,5-3.5,9.3-3.9,12.9l0.6,2.1l6.5,6.7l-10.3-0.9
			c-4.5,0.6-12.1,2.8-15.5,6.7l-5.2,17.5c3.5,0.2,10.6-0.6,16.8-3.9c-2.6,4.5-5.6,8.8-11.6,11.6c3.4,9.1,8.8,29.7,14.2,47.7
			c11.8,17.5,27.6,32.3,53.3,37.1c4.9-0.9,7.5,0,13.2,0c16.6,0.7,27.4,12.1,34.7,24.4c0,3,0.9,6-0.9,8.8c-0.2,12.9,2.4,21.6,6,31.3
			c3,1.7,9,5.6,13.1,9.3c0.4,4.7,1.3,13.1,1.7,15.9c7.3,14,15.3,30.4,24.8,40.7c0,0,2.8-0.2,5,4.9c2.6,3.4,8.2,9.9,6.5,10.8
			C492.4,499.3,488.3,499.5,481,499.5L481,499.5z"/>
	</g>
</g>
</svg>
