<?xml version="1.0" encoding="utf-8"?>
<!-- Generator: Adobe Illustrator 19.2.0, SVG Export Plug-In . SVG Version: 6.00 Build 0)  -->
<svg version="1.1" id="Livello_1" xmlns="http://www.w3.org/2000/svg" xmlns:xlink="http://www.w3.org/1999/xlink" x="0px" y="0px"
	 viewBox="0 0 673.4 596.4" style="enable-background:new 0 0 673.4 596.4;" xml:space="preserve">
<style type="text/css">
	.st0{fill:#FFFFFF;stroke:#1A171B;stroke-width:1.3397;stroke-miterlimit:2.6131;}
	.st1{fill:#E1001A;}
	.st2{fill:#FFFFFF;stroke:#E1001A;stroke-width:4.4658;stroke-miterlimit:2.6131;}
	.st3{fill:#1A171B;stroke:#1A171B;stroke-width:4.4658;stroke-miterlimit:2.6131;}
</style>
<g>
	<g>
		<path class="st0" d="M625.8,594.7c31.1-1.3,49.8-24.6,44.9-55.5l-1.1-4.7l-1.8-5.1l-2.2-4.9L379.9,28.9
			C365.5,6.9,345.3-5.7,319,5.4c-10,5.5-17.3,13.3-23.1,22.7l-285.2,494c-10.4,19.5-14.4,40,1.5,58c12.6,13.3,28.2,14.7,45.8,14.7
			l561-0.2L625.8,594.7L625.8,594.7z"/>
		<path class="st1" d="M618.9,580.4c8.7-0.2,17.3,0.9,26.4-5.8c9.1-6.7,17.5-23.8,7.6-43.5L367.5,36.3c-16-28-44.2-27.3-59.5-0.7
			L23.2,529.3c-6,10.5-11.1,25.5-4.2,36.6c9.1,14.5,23.5,14.5,38.9,14.7L618.9,580.4L618.9,580.4z"/>
		<polygon class="st2" points="580.9,522.3 337.3,100.9 94.3,522.3 		"/>
		<path class="st3" d="M404.6,335.7c-15.9-22.5-38.6-36-69.1-36l10.6,24.1c1.2,7.6-3.3,9-9.8,7.8l-89.8-19l68.9-72.8
			c4.5-5.1,9.6-4.9,12.9,0.8l-0.6,27.2c26.6-3.9,75.4,6.3,103.7,49.9L404.6,335.7L404.6,335.7z"/>
		<path class="st3" d="M264,346.2c-11.6,25-11.9,51.4,3.4,77.9l14.6-25.2c6-4.8,9.5-1.6,11.7,4.6l29.4,91.3l-97.6-23.3
			c-6.7-1.4-9-5.9-5.8-11.6l23.9-13.1c-16.7-21.1-32.3-68.4-8.6-114.8L264,346.2L264,346.2z"/>
		<path class="st3" d="M344.4,463.1c27.4-2.5,50.5-15.4,65.7-41.8l-27.1-1.2c-7.2-2.8-6.1-7.4-1.9-12.4l62.3-70l28.6,96.1
			c2.2,6.4-0.6,10.8-7.1,10.8l-23.3-14.1c-9.9,25-43.1,62.1-95.1,64.9L344.4,463.1L344.4,463.1z"/>
	</g>
</g>
</svg>
