<?xml version="1.0" encoding="utf-8"?>
<!-- Generator: Adobe Illustrator 19.2.0, SVG Export Plug-In . SVG Version: 6.00 Build 0)  -->
<svg version="1.1" id="Livello_1" xmlns="http://www.w3.org/2000/svg" xmlns:xlink="http://www.w3.org/1999/xlink" x="0px" y="0px"
	 viewBox="0 0 672 596" style="enable-background:new 0 0 672 596;" xml:space="preserve">
<style type="text/css">
	.st0{fill:#FFFFFF;stroke:#1A171B;stroke-width:1.3397;stroke-miterlimit:2.6131;}
	.st1{fill:#E1001A;}
	.st2{fill:#FFFFFF;stroke:#E1001A;stroke-width:4.4658;stroke-miterlimit:2.6131;}
	.st3{fill:#1A171B;stroke:#1A171B;stroke-width:1.3397;stroke-miterlimit:2.6131;}
</style>
<g>
	<g>
		<path class="st0" d="M625.2,594.5c31.1-1.3,49.8-24.6,44.9-55.5l-1.1-4.7l-1.8-5.1l-2.2-4.9L379.3,28.7
			c-14.4-22-34.6-34.6-60.9-23.5c-10,5.5-17.3,13.3-23.1,22.7l-285.2,494c-10.4,19.5-14.4,40,1.5,58c12.6,13.3,28.2,14.7,45.8,14.7
			l561-0.2L625.2,594.5L625.2,594.5z"/>
		<path class="st1" d="M618.3,580.2c8.7-0.2,17.3,0.9,26.4-5.8c9.1-6.7,17.5-23.8,7.6-43.5L366.9,36.1c-16-28-44.2-27.3-59.5-0.7
			L22.6,529.1c-6,10.5-11.1,25.5-4.2,36.6c9.1,14.5,23.5,14.5,38.9,14.7L618.3,580.2L618.3,580.2z"/>
		<polygon class="st2" points="580.3,522.1 336.7,100.7 93.7,522.1 		"/>
		<polygon class="st3" points="121.7,501.6 190.6,383.3 225.7,383.3 225.7,501.6 		"/>
		<path class="st3" d="M537.8,473.5l4.9,8.9c-5.4-2.7-11.6-5.4-17.4-5.4c-8,0-16.1,10.7-27.7,10.7c-11.6,0-17.4-10.7-29-10.7
			c-11.2,0-18.8,10.7-29.9,10.7c-12.1,0-17.4-10.7-29.5-10.7c-10.3,0-18.3,10.7-29,10.7S362.3,477,350.7,477
			c-9.8,0-18.3,10.7-28.6,10.7c-12.1,0-17.9-10.7-29.9-10.7c-8.9,0-14.3,10.7-28.1,10.7c-14.3,0-20.5-10.7-29.5-10.7
			c0-2.7,0-4,0-6.3c10.3,0,17.9,9.8,29.5,9.8c9.4,0,18.3-9.8,28.1-9.8c12.5,0,18.8,9.8,29.9,9.8c9.4,0,17.9-9.8,28.6-9.8
			c12.1,0,19.2,9.8,29.5,9.8c9.8,0,18.8-9.8,29-9.8c12.1,0,17.4,9.8,29.5,9.8c11.2-0.4,19.6-9.8,29.9-9.8c10.3,0,17.4,9.8,29,9.8
			s19.6-9.8,27.7-9.8C529.3,470.8,533.3,472.2,537.8,473.5L537.8,473.5z"/>
		<path class="st3" d="M547.2,490l6.3,10.3c-6.7-2.2-17-9.4-26.8-9.4c-8.9,0-16.1,9.8-29,9.8c-10.3,0-17-9.8-27.7-9.8
			c-12.1,0-16.5,9.8-30.4,9.8c-12.5,0-17.9-9.8-29.9-9.8c-9.4,0-18.3,9.8-28.1,9.8c-12.1,0-19.2-9.8-30.8-9.8
			c-9.4,0-16.1,9.8-28.6,9.8c-9.8,0-17.4-9.8-28.6-9.8c-10.7,0-15.6,9.8-28.1,9.8c-15.6,0-20.5-9.8-30.8-9.8c0-2.2,0-3.1,0-6.3
			c12.1,0,18.8,8.9,30.8,8.9c8.5,0,17.4-8.9,28.1-8.9c11.2,0,19.2,8.9,28.6,8.9c10.3,0,18.3-8.9,28.6-8.9c13.4,0,19.6,8.9,30.8,8.9
			c9.8,0,18.8-8.9,28.1-8.9c12.1,0,18.8,8.9,29.9,8.9c12.5-0.4,19.2-8.9,30.4-8.9c9.8,0,17.4,8.9,27.7,8.9c13,0,20.1-8.9,29-8.9
			C533.3,484.7,541.4,487.8,547.2,490L547.2,490z"/>
		<path class="st3" d="M448.1,423c10.3,3.9,15.4,15.5,11.5,25.8s-15.5,15.4-25.8,11.5s-15.4-15.5-11.5-25.8
			C426.2,424.2,437.8,419,448.1,423L448.1,423z"/>
		<path class="st3" d="M287.3,361.3c10.3,3.9,15.4,15.5,11.5,25.8s-15.5,15.4-25.8,11.5s-15.4-15.5-11.5-25.8S277,357.3,287.3,361.3
			L287.3,361.3z"/>
		<path class="st3" d="M463.3,455.9c5.5-10.6,5-18.3,0.7-26.9l36.2,14.1l-14.3,17.6L463.3,455.9L463.3,455.9z"/>
		<path class="st3" d="M301.7,394c5.4-8.9,6.5-16.7,1.4-26.7l129.6,49.9c-10.4,2.2-15.8,11.4-17.9,20.2L301.7,394L301.7,394z"/>
		<polygon class="st3" points="223.7,329.8 238.6,310.9 440.5,388.6 501.4,420.1 502.5,436.9 		"/>
		<polygon class="st3" points="434,379.1 418.7,344.1 382.4,330.2 372.6,355.4 366.6,353.2 376.2,328 339.6,313.9 316,333.7 
			293.6,325.2 332.4,303.6 423,338.9 442.4,382.4 		"/>
		<path class="st3" d="M221,358.4l0.4-22.6l50.6,19.6c-9.8,3.7-13.8,7.8-17.5,20.2L221,358.4L221,358.4z"/>
		<path class="st0" d="M283.9,370.1c5.4,2.1,8.2,8.2,6.1,13.7c-2.1,5.4-8.2,8.2-13.7,6.1c-5.4-2.1-8.2-8.2-6.1-13.7
			S278.5,368,283.9,370.1L283.9,370.1z"/>
		<path class="st0" d="M444.7,431.8c5.4,2.1,8.2,8.2,6.1,13.7c-2.1,5.4-8.2,8.2-13.7,6.1c-5.4-2.1-8.2-8.2-6.1-13.7
			S439.2,429.7,444.7,431.8L444.7,431.8z"/>
	</g>
</g>
</svg>
