<?xml version="1.0" encoding="utf-8"?>
<!-- Generator: Adobe Illustrator 19.2.0, SVG Export Plug-In . SVG Version: 6.00 Build 0)  -->
<svg version="1.1" id="Livello_1" xmlns="http://www.w3.org/2000/svg" xmlns:xlink="http://www.w3.org/1999/xlink" x="0px" y="0px"
	 viewBox="0 0 672 595.5" style="enable-background:new 0 0 672 595.5;" xml:space="preserve">
<style type="text/css">
	.st0{fill:#FFFFFF;stroke:#1A171B;stroke-width:1.3397;stroke-miterlimit:2.6131;}
	.st1{fill:#E1001A;}
	.st2{fill:#FFFFFF;stroke:#E1001A;stroke-width:4.4658;stroke-miterlimit:2.6131;}
	.st3{fill:#1A171B;stroke:#1A171B;stroke-width:1.3397;stroke-miterlimit:2.6131;}
</style>
<g>
	<g>
		<path class="st0" d="M625.1,594.4c31.1-1.3,49.8-24.6,44.9-55.5l-1.1-4.7l-1.8-5.1l-2.2-4.9L379.2,28.6
			C364.8,6.6,344.6-6,318.3,5.1c-10,5.5-17.3,13.3-23.1,22.7L10,521.8c-10.4,19.5-14.4,40,1.5,58c12.6,13.3,28.2,14.7,45.8,14.7
			l561-0.2L625.1,594.4L625.1,594.4z"/>
		<path class="st1" d="M618.2,580.1c8.7-0.2,17.3,0.9,26.4-5.8c9.1-6.7,17.5-23.8,7.6-43.5L366.8,36c-16-28-44.2-27.3-59.5-0.7
			L22.5,529c-6,10.5-11.1,25.5-4.2,36.6c9.1,14.5,23.5,14.5,38.9,14.7L618.2,580.1L618.2,580.1z"/>
		<polygon class="st2" points="580.2,522 336.6,100.6 93.6,522 		"/>
		<path class="st3" d="M239.8,481.6l0.2-22h29.3l-0.2,22.8c0,3.4-3,4.3-6.7,4.3l-16.6-0.2C241.3,486.7,239.3,485.2,239.8,481.6
			L239.8,481.6z"/>
		<path class="st3" d="M256.4,402.9c8,0,14.7,6.3,14.7,13.4c0,8.5-6.7,14.7-14.7,14.7c-7.6,0-13.4-6.3-13.4-14.7
			C243,409.1,248.8,402.9,256.4,402.9L256.4,402.9z M155.9,439l29.9-50.9c26.3,0,51.8,2.2,78.6,7.6c8.9,3.1,15.2,10.7,15.2,21.9
			c0,10.7-2.2,20.5-9.8,21L155.9,439L155.9,439z"/>
		<polygon class="st3" points="306.5,477.8 306.2,476.4 422.3,450.5 423.1,456.3 		"/>
		<path class="st3" d="M303.4,471c45.6-24.5,89.3-46.8,139.5-69.6l3.5,7.7l-142.4,63L303.4,471L303.4,471z"/>
		<polygon class="st3" points="300.4,464 395.6,394.1 401.1,400.1 301.1,464.8 		"/>
		<polygon class="st3" points="296.7,459.4 295.9,458.6 398.7,356 404.7,363 		"/>
		<polygon class="st3" points="288.2,452.4 286.8,452.4 379.2,276.6 388.9,282 		"/>
		<polygon class="st3" points="386.4,245.7 396.3,241.7 405.5,245.2 409.7,254.7 406.2,263.8 396.7,268.1 387.5,264.5 382.8,255.3 
					"/>
		<polygon class="st3" points="414.7,373 424.6,369 433.7,372.5 438,382 434.4,391.1 424.9,395.4 415.8,391.8 411.1,382.6 		"/>
		<polygon class="st3" points="460.7,384.4 470.6,380.4 479.8,383.9 484,393.4 480.5,402.5 471,406.8 461.8,403.3 457.1,394 		"/>
		<polygon class="st3" points="440.7,436.1 450.6,432 459.7,435.5 464,445 460.4,454.2 450.9,458.4 441.8,454.9 437,445.6 		"/>
		<polygon class="st3" points="412,337 418.5,334.4 424.4,336.7 427.2,342.9 424.9,348.8 418.7,351.6 412.7,349.3 409.6,343.3 		"/>
		<path class="st3" d="M210.4,344.8l5.8-9.4c4.5,0,12.1,0.9,24.6,3.1c4.5,0.9,8,5.4,11.2,10.3l12.5,40.6l-11.2-2.2l-9.4-32.6
			c-1.8-3.1-3.6-4.5-7.1-6.3C220.6,345.7,214.4,345.3,210.4,344.8L210.4,344.8z"/>
		<path class="st3" d="M147.4,454.2l5.8-9.8h123.3c6.7,0,6.7,9.8,0,9.8H147.4L147.4,454.2z"/>
		<polygon class="st3" points="545.3,486.8 549.8,494.4 124.2,494.4 128.6,486.8 		"/>
	</g>
</g>
</svg>
