<?xml version="1.0" encoding="utf-8"?>
<!-- Generator: Adobe Illustrator 19.2.0, SVG Export Plug-In . SVG Version: 6.00 Build 0)  -->
<svg version="1.1" id="Livello_1" xmlns="http://www.w3.org/2000/svg" xmlns:xlink="http://www.w3.org/1999/xlink" x="0px" y="0px"
	 viewBox="0 0 672.7 595.9" style="enable-background:new 0 0 672.7 595.9;" xml:space="preserve">
<style type="text/css">
	.st0{fill:#FFFFFF;stroke:#1A171B;stroke-width:1.3397;stroke-miterlimit:2.6131;}
	.st1{fill:#E1001A;}
	.st2{fill:#FFFFFF;stroke:#E1001A;stroke-width:4.4658;stroke-miterlimit:2.6131;}
	.st3{fill:#1A171B;stroke:#1A171B;stroke-width:1.3397;stroke-miterlimit:2.6131;}
</style>
<g>
	<g>
		<path class="st0" d="M625.3,594.4c31.1-1.3,49.8-24.6,44.9-55.5l-1.1-4.7l-1.8-5.1l-2.2-4.9L379.4,28.6C365,6.6,344.8-6,318.5,5.1
			c-10,5.5-17.3,13.3-23.1,22.7l-285.2,494c-10.4,19.5-14.4,40,1.5,58c12.6,13.3,28.2,14.7,45.8,14.7l561-0.2L625.3,594.4
			L625.3,594.4z"/>
		<path class="st1" d="M618.4,580.1c8.7-0.2,17.3,0.9,26.4-5.8c9.1-6.7,17.5-23.8,7.6-43.5L367,36c-16-28-44.2-27.3-59.5-0.7
			L22.7,529c-6,10.5-11.1,25.5-4.2,36.6c9.1,14.5,23.5,14.5,38.9,14.7L618.4,580.1L618.4,580.1z"/>
		<polygon class="st2" points="580.4,522 336.8,100.6 93.8,522 		"/>
		<polygon class="st3" points="554.8,507.5 345.2,139.6 333.3,166.3 347.1,193.4 322.2,237.9 346.7,281.5 320.6,325.7 358.6,393.7 
			322.3,459.5 285.5,459.5 263.4,496 124,496 116.7,507.5 		"/>
		<polygon class="st3" points="202.4,381.7 192,401 201.6,420.1 224.5,420.3 235.2,401.7 223.2,382.4 		"/>
		<polygon class="st3" points="281.4,349.2 277,356.4 281.1,363.6 289.7,363.7 293.9,356.3 289.7,349.1 		"/>
		<polygon class="st3" points="304.4,190.6 299.4,198.9 304.1,207 313.8,207.1 318.6,198.8 313.9,190.6 		"/>
		<polygon class="st3" points="253.5,292 244.5,311.3 252.8,330.4 277.1,330.5 288.1,310.9 277,291.8 		"/>
		<polygon class="st3" points="299.6,269.4 292.7,279.9 298.3,290.7 311,291.2 317.6,280.6 311.8,269.8 		"/>
		<polygon class="st3" points="250.5,371.9 243.7,382 249.3,392.6 261.6,393.1 268,382.8 262.4,372.2 		"/>
	</g>
</g>
</svg>
