<?xml version="1.0" encoding="utf-8"?>
<!-- Generator: Adobe Illustrator 19.2.0, SVG Export Plug-In . SVG Version: 6.00 Build 0)  -->
<svg version="1.1" id="Livello_1" xmlns="http://www.w3.org/2000/svg" xmlns:xlink="http://www.w3.org/1999/xlink" x="0px" y="0px"
	 viewBox="0 0 672.5 595.9" style="enable-background:new 0 0 672.5 595.9;" xml:space="preserve">
<style type="text/css">
	.st0{fill:#FFFFFF;stroke:#1A171B;stroke-width:1.3397;stroke-miterlimit:2.6131;}
	.st1{fill:#E1001A;}
	.st2{fill:#FFFFFF;stroke:#E1001A;stroke-width:4.4658;stroke-miterlimit:2.6131;}
	.st3{fill:#1A171B;}
</style>
<g>
	<g>
		<path class="st0" d="M625.3,594.5c31.1-1.3,49.8-24.6,44.9-55.5l-1.1-4.7l-1.8-5.1l-2.2-4.9L379.4,28.7
			C365,6.7,344.8-5.9,318.5,5.2c-10,5.5-17.3,13.3-23.1,22.7l-285.2,494c-10.4,19.5-14.4,40,1.5,58c12.6,13.3,28.2,14.7,45.8,14.7
			l561-0.2L625.3,594.5L625.3,594.5z"/>
		<path class="st1" d="M618.4,580.2c8.7-0.2,17.3,0.9,26.4-5.8c9.1-6.7,17.5-23.8,7.6-43.5L367,36.1c-16-28-44.2-27.3-59.5-0.7
			L22.7,529.1c-6,10.5-11.1,25.5-4.2,36.6c9.1,14.5,23.5,14.5,38.9,14.7L618.4,580.2L618.4,580.2z"/>
		<polygon class="st2" points="580.4,522.1 336.8,100.7 93.8,522.1 		"/>
		<path class="st3" d="M307.6,502.5l-13.8-10.8l2.3-113.5c-23.5-13.8-53.7-28.7-62.2-56c27.1-7.4,56.1,12.2,79.6,25.8l97.1-58.7
			l16.3,6.4l-58.4,66.8l-7.6,12.9l83.3,59.5l35.2-11.2l10.8,6.4L458,445.8l18.8,16.8l-23.9-8.1l2.5,35.8l-10.8-6.2l-7.8-36.2
			l-93.5-42.5l-7.2,13.1L307.6,502.5L307.6,502.5z"/>
	</g>
</g>
</svg>
