<?xml version="1.0" encoding="utf-8"?>
<!-- Generator: Adobe Illustrator 19.2.0, SVG Export Plug-In . SVG Version: 6.00 Build 0)  -->
<svg version="1.1" id="Livello_1" xmlns="http://www.w3.org/2000/svg" xmlns:xlink="http://www.w3.org/1999/xlink" x="0px" y="0px"
	 viewBox="0 0 677 596.6" style="enable-background:new 0 0 677 596.6;" xml:space="preserve">
<style type="text/css">
	.st0{fill:#FFFFFF;stroke:#1A171B;stroke-width:1.3397;stroke-miterlimit:2.6131;}
	.st1{fill:#E1001A;}
	.st2{fill:#FFFFFF;stroke:#E1001A;stroke-width:4.4658;stroke-miterlimit:2.6131;}
	.st3{fill:#1A171B;stroke:#1A171B;stroke-width:1.3397;stroke-miterlimit:2.6131;}
</style>
<g>
	<g>
		<path class="st0" d="M627.3,594.4c31.1-1.3,49.8-24.6,44.9-55.5l-1.1-4.7l-1.8-5.1l-2.2-4.9L381.4,28.6C367,6.6,346.8-6,320.5,5.1
			c-10,5.5-17.3,13.3-23.1,22.7l-285.2,494c-10.4,19.5-14.4,40,1.5,58c12.6,13.3,28.2,14.7,45.8,14.7l561-0.2L627.3,594.4
			L627.3,594.4z"/>
		<path class="st1" d="M620.4,580.1c8.7-0.2,17.3,0.9,26.4-5.8c9.1-6.7,17.5-23.8,7.6-43.5L369,36c-16-28-44.2-27.3-59.5-0.7
			L24.7,529c-6,10.5-11.1,25.5-4.2,36.6c9.1,14.5,23.5,14.5,38.9,14.7L620.4,580.1L620.4,580.1z"/>
		<polygon class="st2" points="582.4,522 338.8,100.6 95.8,522 		"/>
		<path class="st3" d="M249.1,492.2V312.6c0-10,16-10,16,0v179.6H249.1L249.1,492.2z"/>
		<path class="st3" d="M472.1,462.4l-21.3-10c18.8-1.6,30.5-17.8,22.3-37l18.2,15.3C499.5,447,483.8,464.4,472.1,462.4L472.1,462.4z
			"/>
		<path class="st3" d="M418.8,438l-31.7-14.5c24.5-5.3,37.2-28,30.9-52l27.2,22.1C450.9,415.3,439.8,434.1,418.8,438L418.8,438z"/>
		<path class="st3" d="M348.7,407.2L299,384.6c37.2-0.8,60.3-48.3,44.4-74.4l42.9,34.4C394.9,377.3,377.1,399.6,348.7,407.2
			L348.7,407.2z"/>
		<path class="st3" d="M284.2,377.4l-11-63.9l56.9-12.1c4.2-0.8,4.8,5.3,1.8,6.2l-50.9,11l9.9,57.5
			C291.9,380.4,285.6,381.6,284.2,377.4L284.2,377.4z"/>
	</g>
</g>
</svg>
