<?xml version="1.0" encoding="utf-8"?>
<!-- Generator: Adobe Illustrator 19.2.0, SVG Export Plug-In . SVG Version: 6.00 Build 0)  -->
<svg version="1.1" id="Livello_1" xmlns="http://www.w3.org/2000/svg" xmlns:xlink="http://www.w3.org/1999/xlink" x="0px" y="0px"
	 viewBox="0 0 673.5 597" style="enable-background:new 0 0 673.5 597;" xml:space="preserve">
<style type="text/css">
	.st0{fill:#FFFFFF;stroke:#1A171B;stroke-width:1.3397;stroke-miterlimit:2.6131;}
	.st1{fill:#E1001A;}
	.st2{fill:#FFFFFF;stroke:#E1001A;stroke-width:4.4658;stroke-miterlimit:2.6131;}
	.st3{fill:#1A171B;stroke:#1A171B;stroke-width:1.3397;stroke-miterlimit:2.6131;}
</style>
<g>
	<g>
		<path class="st0" d="M625.9,595.1c31.1-1.3,49.8-24.6,44.9-55.5l-1.1-4.7l-1.8-5.1l-2.2-4.9L380,29.3
			c-14.4-22-34.6-34.6-60.9-23.5c-10,5.5-17.3,13.3-23.1,22.7l-285.2,494c-10.4,19.5-14.4,40,1.5,58c12.6,13.3,28.2,14.7,45.8,14.7
			l561-0.2L625.9,595.1L625.9,595.1z"/>
		<path class="st1" d="M619,580.8c8.7-0.2,17.3,0.9,26.4-5.8c9.1-6.7,17.5-23.8,7.6-43.5L367.6,36.7c-16-28-44.2-27.3-59.5-0.7
			L23.3,529.7c-6,10.5-11.1,25.5-4.2,36.6c9.1,14.5,23.5,14.5,38.9,14.7L619,580.8L619,580.8z"/>
		<polygon class="st2" points="581,522.7 337.4,101.3 94.4,522.7 		"/>
		<path class="st3" d="M338.1,443.4c14.7,0,26.6,11.9,26.6,26.6c0,14.7-11.9,26.6-26.6,26.6s-26.6-11.9-26.6-26.6
			C311.5,455.4,323.4,443.4,338.1,443.4L338.1,443.4z"/>
		<path class="st3" d="M356.3,402l8.4-185.3c0.3-8-11.9-26.6-26.6-26.6s-27.1,12.8-26.6,26.6L319,402c0.5,11.9,7.8,20.8,18.1,20.8
			C347.3,422.8,355.8,414.1,356.3,402L356.3,402z"/>
	</g>
</g>
</svg>
