<?xml version="1.0" encoding="utf-8"?>
<!-- Generator: Adobe Illustrator 19.2.0, SVG Export Plug-In . SVG Version: 6.00 Build 0)  -->
<svg version="1.1" id="Livello_1" xmlns="http://www.w3.org/2000/svg" xmlns:xlink="http://www.w3.org/1999/xlink" x="0px" y="0px"
	 viewBox="0 0 678 598" style="enable-background:new 0 0 678 598;" xml:space="preserve">
<style type="text/css">
	.st0{fill:#FFFFFF;stroke:#1A171B;stroke-width:1.3397;stroke-miterlimit:2.6131;}
	.st1{fill:#E1001A;}
	.st2{fill:#FFFFFF;stroke:#E1001A;stroke-width:4.4658;stroke-miterlimit:2.6131;}
</style>
<g>
	<g>
		<path class="st0" d="M627.3,2.7c31.1,1.3,49.8,24.6,44.9,55.5l-1.1,4.7l-1.8,5.1l-2.2,4.9L381.4,568.5
			c-14.4,22-34.6,34.6-60.9,23.5c-10-5.5-17.3-13.3-23.1-22.7L12.2,75.3c-10.4-19.5-14.4-40,1.5-58C26.3,4,41.9,2.6,59.5,2.6
			l561,0.2L627.3,2.7L627.3,2.7z"/>
		<path class="st1" d="M620.4,17c8.7,0.2,17.3-0.9,26.4,5.8c9.1,6.7,17.5,23.8,7.6,43.5L369,561.1c-16,28-44.2,27.3-59.5,0.7
			L24.7,68.1c-6-10.5-11.1-25.5-4.2-36.6C29.6,16.9,44,16.9,59.4,16.8L620.4,17L620.4,17z"/>
		<polygon class="st2" points="582.4,75.1 338.8,496.5 95.8,75.1 		"/>
	</g>
</g>
</svg>
