<?xml version="1.0" encoding="utf-8"?>
<!-- Generator: Adobe Illustrator 19.2.0, SVG Export Plug-In . SVG Version: 6.00 Build 0)  -->
<svg version="1.1" id="Livello_1" xmlns="http://www.w3.org/2000/svg" xmlns:xlink="http://www.w3.org/1999/xlink" x="0px" y="0px"
	 viewBox="0 0 661.2 1023.6" style="enable-background:new 0 0 661.2 1023.6;" xml:space="preserve">
<style type="text/css">
	.st0{fill:#C5C6C8;}
	.st1{fill:none;stroke:#1A171B;stroke-width:1.1024;stroke-miterlimit:2.6131;}
	.st2{fill:#9B9C9E;}
	.st3{fill:#FFFFFF;}
	.st4{fill:#1A171B;}
	.st5{fill:#FFFFFF;stroke:#1A171B;stroke-width:0.2714;stroke-miterlimit:2.6131;}
	.st6{fill:#E1001A;}
	.st7{fill:#FFFFFF;stroke:#E1001A;stroke-width:0.9047;stroke-miterlimit:2.6131;}
	.st8{fill:#FFFFFF;stroke:#1A171B;stroke-width:0.642;stroke-miterlimit:2.6131;}
	.st9{fill:#FFFFFF;stroke:#E1001A;stroke-width:2.1399;stroke-miterlimit:2.6131;}
	.st10{fill:none;stroke:#1A171B;stroke-width:4.2799;stroke-miterlimit:2.6131;}
	.st11{fill:#FFFFFF;stroke:#1A171B;stroke-width:0.2707;stroke-miterlimit:2.6131;}
	.st12{fill:#FFFFFF;stroke:#E1001A;stroke-width:0.9022;stroke-miterlimit:2.6131;}
	.st13{fill:none;stroke:#1A171B;stroke-width:1.8045;stroke-miterlimit:2.6131;}
	.st14{fill:none;stroke:#000000;stroke-width:5;stroke-miterlimit:10;}
	.st15{display:none;}
	.st16{display:inline;}
	.st17{font-family:'ArialMT';}
	.st18{font-size:61.2551px;}
</style>
<g id="Livello_2">
	<polygon class="st0" points="58,312.6 58,312.6 118.6,312.6 118.6,812.4 594.5,812.4 594.5,312.6 655.1,312.6 655.1,68.3 58,68.3 	
		"/>
	<path class="st0" d="M58,312.6h60.6H58z"/>
	<path class="st1" d="M58,312.6L58,312.6h60.6v499.8h475.9V312.6h60.6V68.3H58V312.6 M58,312.6h60.6H58"/>
	<polygon class="st2" points="504.5,68.3 504.5,67.9 58,67.9 58,227.8 155.4,227.8 174.5,231.4 182.9,235.5 190.3,241 195.8,248.3 
		199.5,257.5 203.2,277 203.2,812.4 208.7,812.4 510,812.4 510,277.4 510,266.7 512.5,257.5 517.3,248.3 522.9,242.1 530.2,235.5 
		537.6,231.4 547.1,228.1 557.8,227.8 655.1,227.8 655.1,68.3 	"/>
	<polygon class="st3" points="159.1,222.6 159.1,222.6 177.4,226.3 194,236.9 199.5,244.3 203.9,252 208.7,271.9 216,272.2 
		214.5,260.5 211.2,249.8 205.7,239.1 199.5,231.4 190.3,224.4 181.1,218.9 170.1,215.3 159.1,214.9 159.1,218.6 159.8,222.3 
		159.1,222.6 159.1,218.9 159.8,222.6 	"/>
	<polygon class="st3" points="208.7,812.4 216,812.4 216,272.2 208.7,272.2 	"/>
	<polygon class="st3" points="159.1,218.6 159.1,214.9 159.1,214.5 	"/>
	<polygon class="st3" points="159.1,222.6 159.1,218.9 159.1,214.5 58,214.5 58,222.6 159.1,222.6 159.1,222.6 157.9,222.6 	"/>
	<polygon class="st3" points="504.5,812.4 496,812.4 496,272.2 504.5,272.2 	"/>
	<polygon class="st3" points="552.6,222.6 554.1,214.5 655.1,214.5 655.1,222.6 	"/>
	<polygon class="st3" points="555.9,222.3 554.1,214.5 543.1,215.3 532,218.9 521.7,224.1 513.7,231.4 506.3,239.1 501.2,249.5 
		497.9,259.4 497.1,271.9 504.5,272.2 506.3,261.2 508.5,252 513.7,244.3 519.5,237.3 535.7,226.3 	"/>
	<polygon class="st3" points="350.9,253.8 361.2,253.8 361.2,584.2 350.9,584.2 	"/>
	<polygon class="st3" points="350.9,606.6 361.2,606.6 361.2,639.3 350.9,639.3 	"/>
	<polygon class="st3" points="350.9,718 361.2,718 361.2,749.9 350.9,749.9 	"/>
	<polygon class="st3" points="350.9,662.9 361.2,662.9 361.2,694.8 350.9,694.8 	"/>
	<polygon class="st3" points="350.9,773.1 361.2,773.1 361.2,805.1 350.9,805.1 	"/>
	<polygon class="st3" points="388.7,214.9 409.3,214.9 398.6,248.3 	"/>
	<polygon class="st3" points="453,214.9 474,214.9 464.1,248.3 	"/>
	<polygon class="st3" points="486.1,214.9 506.3,214.9 496,248.3 	"/>
	<polygon class="st3" points="355.7,214.9 376.6,214.9 366.7,248.3 	"/>
	<polygon class="st3" points="421.8,214.9 442,214.9 431.3,248.3 	"/>
	<polygon class="st3" points="429.2,468.1 429.2,504.8 460.7,362.2 429.2,362.2 429.2,391.3 446,391.3 	"/>
	<polygon class="st3" points="429.2,391.3 429.2,362.2 396.4,362.2 429.2,504.8 429.2,468.1 411.1,391.3 	"/>
	<polygon class="st4" points="526.5,277.4 571.3,277.4 573.2,275.9 573.2,274.1 571.3,271.5 526.5,271.5 524.7,272.2 524.7,274.1 
		524.7,275.9 	"/>
	<polygon class="st1" points="526.5,277.4 571.3,277.4 573.2,275.9 573.2,274.1 571.3,271.5 526.5,271.5 524.7,272.2 524.7,274.1 
		524.7,275.9 	"/>
	<polygon class="st4" points="549.3,263 546.7,263 545.6,266 546.7,268.5 549.3,268.5 550.8,268.5 552.3,266 	"/>
	<polygon class="st1" points="549.3,263 546.7,263 545.6,266 546.7,268.5 549.3,268.5 550.8,268.5 552.3,266 	"/>
	<g>
		<path d="M165,908.3v-37h12.7c2.9,0,5.1,0.2,6.6,0.5c2.1,0.5,3.9,1.4,5.4,2.6c1.9,1.6,3.4,3.8,4.4,6.3c1,2.6,1.4,5.5,1.4,8.8
			c0,2.8-0.3,5.3-1,7.5s-1.5,4-2.5,5.4s-2.1,2.5-3.4,3.4c-1.2,0.8-2.7,1.4-4.4,1.9c-1.7,0.4-3.7,0.6-5.9,0.6H165z M169.9,903.9h7.9
			c2.4,0,4.3-0.2,5.7-0.7s2.5-1.1,3.3-1.9c1.2-1.2,2.1-2.7,2.7-4.7s1-4.3,1-7.1c0-3.9-0.6-6.8-1.9-8.9c-1.3-2.1-2.8-3.5-4.6-4.2
			c-1.3-0.5-3.4-0.8-6.3-0.8h-7.8L169.9,903.9L169.9,903.9z"/>
		<path d="M219.2,905c-1.7,1.4-3.3,2.4-4.9,3s-3.2,0.9-5,0.9c-2.9,0-5.2-0.7-6.8-2.2c-1.6-1.4-2.4-3.3-2.4-5.5
			c0-1.3,0.3-2.5,0.9-3.6s1.4-2,2.3-2.6c1-0.7,2.1-1.2,3.3-1.5c0.9-0.2,2.2-0.5,4-0.7c3.7-0.4,6.4-1,8.1-1.6c0-0.6,0-1,0-1.2
			c0-1.8-0.4-3.2-1.3-3.9c-1.2-1-2.9-1.5-5.2-1.5c-2.1,0-3.7,0.4-4.7,1.1c-1,0.7-1.8,2.1-2.3,4l-4.4-0.6c0.4-1.9,1.1-3.4,2-4.6
			c0.9-1.2,2.3-2.1,4-2.7s3.8-0.9,6.1-0.9s4.1,0.3,5.6,0.8c1.4,0.5,2.5,1.2,3.2,2s1.1,1.8,1.4,3.1c0.2,0.8,0.2,2.2,0.2,4.2v6.1
			c0,4.2,0.1,6.9,0.3,8s0.6,2.2,1.1,3.2H220C219.6,907.3,219.3,906.2,219.2,905z M218.8,894.9c-1.6,0.7-4.1,1.2-7.4,1.7
			c-1.9,0.3-3.2,0.6-4,0.9c-0.8,0.3-1.4,0.8-1.8,1.5c-0.4,0.6-0.6,1.4-0.6,2.2c0,1.2,0.5,2.2,1.4,3s2.3,1.2,4,1.2s3.3-0.4,4.7-1.1
			c1.4-0.8,2.4-1.8,3-3.1c0.5-1,0.7-2.5,0.7-4.5L218.8,894.9L218.8,894.9z"/>
		<path d="M230.3,908.3v-26.8h4.1v4.1c1-1.9,2-3.2,2.9-3.8s1.9-0.9,2.9-0.9c1.5,0,3.1,0.5,4.7,1.5l-1.6,4.2c-1.1-0.7-2.2-1-3.3-1
			c-1,0-1.9,0.3-2.7,0.9c-0.8,0.6-1.4,1.4-1.7,2.5c-0.5,1.6-0.8,3.4-0.8,5.3v14H230.3z"/>
		<path d="M265.9,899.7l4.7,0.6c-0.7,2.7-2.1,4.9-4.1,6.4s-4.6,2.3-7.7,2.3c-3.9,0-7-1.2-9.3-3.6c-2.3-2.4-3.4-5.8-3.4-10.1
			c0-4.5,1.2-8,3.5-10.5s5.3-3.7,9-3.7c3.6,0,6.5,1.2,8.8,3.7c2.3,2.4,3.4,5.9,3.4,10.3c0,0.3,0,0.7,0,1.2h-20
			c0.2,2.9,1,5.2,2.5,6.8s3.4,2.3,5.6,2.3c1.7,0,3.1-0.4,4.3-1.3C264.3,903,265.2,901.6,265.9,899.7z M251,892.3h14.9
			c-0.2-2.3-0.8-3.9-1.7-5.1c-1.4-1.7-3.3-2.6-5.6-2.6c-2.1,0-3.8,0.7-5.3,2.1C252,888.1,251.2,890,251,892.3z"/>
		<path d="M290.6,918.5v-37h4.1v3.5c1-1.4,2.1-2.4,3.3-3.1c1.2-0.7,2.7-1,4.5-1c2.3,0,4.3,0.6,6.1,1.8c1.7,1.2,3.1,2.8,4,5
			c0.9,2.1,1.3,4.5,1.3,7c0,2.7-0.5,5.2-1.5,7.4s-2.4,3.9-4.3,5c-1.9,1.2-3.8,1.8-5.9,1.8c-1.5,0-2.9-0.3-4.1-1
			c-1.2-0.6-2.2-1.4-3-2.4v13H290.6z M294.8,895.1c0,3.4,0.7,6,2.1,7.6s3.1,2.5,5.1,2.5s3.7-0.9,5.2-2.6c1.4-1.7,2.2-4.3,2.2-7.9
			c0-3.4-0.7-6-2.1-7.7s-3.1-2.5-5-2.5s-3.6,0.9-5.1,2.7C295.5,889,294.8,891.6,294.8,895.1z"/>
		<path d="M319.3,908.3v-26.8h4.1v4.1c1-1.9,2-3.2,2.9-3.8s1.9-0.9,2.9-0.9c1.5,0,3.1,0.5,4.7,1.5l-1.6,4.2c-1.1-0.7-2.2-1-3.3-1
			c-1,0-1.9,0.3-2.7,0.9c-0.8,0.6-1.4,1.4-1.7,2.5c-0.5,1.6-0.8,3.4-0.8,5.3v14H319.3z"/>
		<path d="M354.9,899.7l4.7,0.6c-0.7,2.7-2.1,4.9-4.1,6.4s-4.6,2.3-7.7,2.3c-3.9,0-7-1.2-9.3-3.6c-2.3-2.4-3.4-5.8-3.4-10.1
			c0-4.5,1.2-8,3.5-10.5s5.3-3.7,9-3.7c3.6,0,6.5,1.2,8.8,3.7c2.3,2.4,3.4,5.9,3.4,10.3c0,0.3,0,0.7,0,1.2h-20
			c0.2,2.9,1,5.2,2.5,6.8s3.4,2.3,5.6,2.3c1.7,0,3.1-0.4,4.3-1.3C353.3,903,354.2,901.6,354.9,899.7z M340,892.3h14.9
			c-0.2-2.3-0.8-3.9-1.7-5.1c-1.4-1.7-3.3-2.6-5.6-2.6c-2.1,0-3.8,0.7-5.3,2.1C340.9,888.1,340.1,890,340,892.3z"/>
		<path d="M382.7,898.5l4.5,0.6c-0.5,3.1-1.7,5.5-3.7,7.2s-4.5,2.6-7.4,2.6c-3.7,0-6.6-1.2-8.8-3.6c-2.2-2.4-3.3-5.8-3.3-10.3
			c0-2.9,0.5-5.4,1.4-7.6c1-2.2,2.4-3.8,4.4-4.9c2-1.1,4.1-1.6,6.4-1.6c2.9,0,5.3,0.7,7.1,2.2c1.8,1.5,3,3.6,3.6,6.3l-4.4,0.7
			c-0.4-1.8-1.2-3.2-2.2-4.1c-1.1-0.9-2.4-1.4-3.9-1.4c-2.3,0-4.1,0.8-5.6,2.5c-1.4,1.6-2.1,4.2-2.1,7.8s0.7,6.2,2.1,7.8
			s3.2,2.4,5.4,2.4c1.8,0,3.3-0.5,4.5-1.6C381.7,902.4,382.4,900.7,382.7,898.5z"/>
		<path d="M409.4,899.7l4.7,0.6c-0.7,2.7-2.1,4.9-4.1,6.4s-4.6,2.3-7.7,2.3c-3.9,0-7-1.2-9.3-3.6s-3.4-5.8-3.4-10.1
			c0-4.5,1.2-8,3.5-10.5s5.3-3.7,9-3.7c3.6,0,6.5,1.2,8.8,3.7c2.3,2.4,3.4,5.9,3.4,10.3c0,0.3,0,0.7,0,1.2h-20
			c0.2,2.9,1,5.2,2.5,6.8s3.4,2.3,5.6,2.3c1.7,0,3.1-0.4,4.3-1.3C407.8,903,408.7,901.6,409.4,899.7z M394.5,892.3h14.9
			c-0.2-2.3-0.8-3.9-1.7-5.1c-1.4-1.7-3.3-2.6-5.6-2.6c-2.1,0-3.8,0.7-5.3,2.1C395.4,888.1,394.7,890,394.5,892.3z"/>
		<path d="M437.2,908.3v-3.4c-1.7,2.7-4.2,4-7.5,4c-2.1,0-4.1-0.6-5.9-1.8s-3.2-2.8-4.2-4.9c-1-2.1-1.5-4.5-1.5-7.3
			c0-2.7,0.4-5.1,1.3-7.3s2.2-3.8,4-5s3.8-1.7,6-1.7c1.6,0,3.1,0.3,4.3,1c1.3,0.7,2.3,1.6,3.1,2.7v-13.3h4.5v37H437.2z M422.8,894.9
			c0,3.4,0.7,6,2.2,7.7c1.4,1.7,3.2,2.5,5.1,2.5c2,0,3.7-0.8,5.1-2.4c1.4-1.6,2.1-4.1,2.1-7.4c0-3.7-0.7-6.4-2.1-8.1
			c-1.4-1.7-3.2-2.6-5.2-2.6s-3.7,0.8-5.1,2.5C423.5,888.8,422.8,891.4,422.8,894.9z"/>
		<path d="M466.8,899.7l4.7,0.6c-0.7,2.7-2.1,4.9-4.1,6.4s-4.6,2.3-7.7,2.3c-3.9,0-7-1.2-9.3-3.6s-3.4-5.8-3.4-10.1
			c0-4.5,1.2-8,3.5-10.5s5.3-3.7,9-3.7c3.6,0,6.5,1.2,8.8,3.7c2.3,2.4,3.4,5.9,3.4,10.3c0,0.3,0,0.7,0,1.2h-20
			c0.2,2.9,1,5.2,2.5,6.8s3.4,2.3,5.6,2.3c1.7,0,3.1-0.4,4.3-1.3C465.2,903,466.1,901.6,466.8,899.7z M451.9,892.3h15
			c-0.2-2.3-0.8-3.9-1.7-5.1c-1.4-1.7-3.3-2.6-5.6-2.6c-2.1,0-3.8,0.7-5.3,2.1C452.9,888.1,452.1,890,451.9,892.3z"/>
		<path d="M477.2,908.3v-26.8h4.1v3.8c2-2.9,4.8-4.4,8.5-4.4c1.6,0,3.1,0.3,4.4,0.9c1.4,0.6,2.4,1.3,3,2.3c0.7,0.9,1.1,2.1,1.4,3.4
			c0.2,0.8,0.3,2.3,0.3,4.4v16.5h-4.5v-16.3c0-1.8-0.2-3.2-0.5-4.1c-0.4-0.9-1-1.6-1.9-2.2c-0.9-0.5-2-0.8-3.2-0.8
			c-1.9,0-3.6,0.6-5,1.8s-2.1,3.6-2.1,7v14.6h-4.5L477.2,908.3L477.2,908.3z"/>
		<path d="M503.5,908.3v-3.7l17-19.6c-1.9,0.1-3.6,0.2-5.1,0.2h-10.9v-3.7h21.9v3l-14.5,17l-2.8,3.1c2-0.2,3.9-0.2,5.7-0.2h12.4v3.9
			H503.5z"/>
		<path d="M549.2,905c-1.7,1.4-3.3,2.4-4.9,3c-1.6,0.6-3.2,0.9-5,0.9c-2.9,0-5.2-0.7-6.8-2.2c-1.6-1.4-2.4-3.3-2.4-5.5
			c0-1.3,0.3-2.5,0.9-3.6c0.6-1.1,1.4-2,2.3-2.6c1-0.7,2.1-1.2,3.3-1.5c0.9-0.2,2.2-0.5,4-0.7c3.7-0.4,6.4-1,8.1-1.6
			c0-0.6,0-1,0-1.2c0-1.8-0.4-3.2-1.3-3.9c-1.2-1-2.9-1.5-5.2-1.5c-2.1,0-3.7,0.4-4.7,1.1c-1,0.7-1.8,2.1-2.3,4l-4.4-0.6
			c0.4-1.9,1.1-3.4,2-4.6c0.9-1.2,2.3-2.1,4-2.7s3.8-0.9,6.1-0.9s4.1,0.3,5.6,0.8c1.4,0.5,2.5,1.2,3.2,2s1.1,1.8,1.4,3.1
			c0.2,0.8,0.2,2.2,0.2,4.2v6.1c0,4.2,0.1,6.9,0.3,8s0.6,2.2,1.1,3.2H550C549.7,907.3,549.4,906.2,549.2,905z M548.8,894.9
			c-1.6,0.7-4.1,1.2-7.4,1.7c-1.9,0.3-3.2,0.6-4,0.9s-1.4,0.8-1.8,1.5c-0.4,0.6-0.6,1.4-0.6,2.2c0,1.2,0.5,2.2,1.4,3s2.3,1.2,4,1.2
			s3.3-0.4,4.7-1.1c1.4-0.8,2.4-1.8,3-3.1c0.5-1,0.7-2.5,0.7-4.5L548.8,894.9L548.8,894.9z"/>
		<path d="M158.4,961.6l4.7,0.6c-0.7,2.7-2.1,4.9-4.1,6.4s-4.6,2.3-7.7,2.3c-3.9,0-7-1.2-9.3-3.6c-2.3-2.4-3.4-5.8-3.4-10.1
			c0-4.5,1.2-8,3.5-10.5s5.3-3.7,9-3.7c3.6,0,6.5,1.2,8.8,3.7c2.3,2.4,3.4,5.9,3.4,10.3c0,0.3,0,0.7,0,1.2h-20
			c0.2,2.9,1,5.2,2.5,6.8s3.4,2.3,5.6,2.3c1.7,0,3.1-0.4,4.3-1.3C156.7,964.9,157.7,963.5,158.4,961.6z M143.5,954.3h14.9
			c-0.2-2.3-0.8-3.9-1.7-5.1c-1.4-1.7-3.3-2.6-5.6-2.6c-2.1,0-3.8,0.7-5.3,2.1C144.4,950.1,143.6,951.9,143.5,954.3z"/>
		<path d="M183,970.2v-26.8h4.1v4.1c1-1.9,2-3.2,2.9-3.8s1.9-0.9,2.9-0.9c1.5,0,3.1,0.5,4.7,1.5l-1.6,4.2c-1.1-0.7-2.2-1-3.3-1
			c-1,0-1.9,0.3-2.7,0.9c-0.8,0.6-1.4,1.4-1.7,2.5c-0.5,1.6-0.8,3.4-0.8,5.3v14H183z"/>
		<path d="M218.6,961.6l4.7,0.6c-0.7,2.7-2.1,4.9-4.1,6.4s-4.6,2.3-7.7,2.3c-3.9,0-7-1.2-9.3-3.6c-2.3-2.4-3.4-5.8-3.4-10.1
			c0-4.5,1.2-8,3.5-10.5s5.3-3.7,9-3.7c3.6,0,6.5,1.2,8.8,3.7c2.3,2.4,3.4,5.9,3.4,10.3c0,0.3,0,0.7,0,1.2h-20
			c0.2,2.9,1,5.2,2.5,6.8s3.4,2.3,5.6,2.3c1.7,0,3.1-0.4,4.3-1.3C217,964.9,217.9,963.5,218.6,961.6z M203.7,954.3h14.9
			c-0.2-2.3-0.8-3.9-1.7-5.1c-1.4-1.7-3.3-2.6-5.6-2.6c-2.1,0-3.8,0.7-5.3,2.1C204.6,950.1,203.9,951.9,203.7,954.3z"/>
		<path d="M228.9,970.2v-37h4.5v37H228.9z"/>
		<path d="M257.9,966.9c-1.7,1.4-3.3,2.4-4.9,3s-3.2,0.9-5,0.9c-2.9,0-5.2-0.7-6.8-2.2c-1.6-1.4-2.4-3.3-2.4-5.5
			c0-1.3,0.3-2.5,0.9-3.6s1.4-2,2.3-2.6c1-0.7,2.1-1.2,3.3-1.5c0.9-0.2,2.2-0.5,4-0.7c3.7-0.4,6.4-1,8.1-1.6c0-0.6,0-1,0-1.2
			c0-1.8-0.4-3.2-1.3-3.9c-1.2-1-2.9-1.5-5.2-1.5c-2.1,0-3.7,0.4-4.7,1.1c-1,0.7-1.8,2.1-2.3,4l-4.4-0.6c0.4-1.9,1.1-3.4,2-4.6
			c0.9-1.2,2.3-2.1,4-2.7s3.8-0.9,6.1-0.9s4.1,0.3,5.6,0.8c1.4,0.5,2.5,1.2,3.2,2s1.1,1.8,1.4,3.1c0.2,0.8,0.2,2.2,0.2,4.2v6.1
			c0,4.2,0.1,6.9,0.3,8c0.2,1.1,0.6,2.2,1.1,3.2h-4.7C258.4,969.3,258.1,968.2,257.9,966.9z M257.6,956.8c-1.6,0.7-4.1,1.2-7.4,1.7
			c-1.9,0.3-3.2,0.6-4,0.9c-0.8,0.3-1.4,0.8-1.8,1.5c-0.4,0.6-0.6,1.4-0.6,2.2c0,1.2,0.5,2.2,1.4,3s2.3,1.2,4,1.2s3.3-0.4,4.7-1.1
			c1.4-0.8,2.4-1.8,3-3.1c0.5-1,0.7-2.5,0.7-4.5V956.8L257.6,956.8z"/>
		<path d="M279.1,966.2l0.7,4c-1.3,0.3-2.4,0.4-3.4,0.4c-1.6,0-2.9-0.3-3.8-0.8s-1.5-1.2-1.9-2.1s-0.6-2.6-0.6-5.4v-15.4h-3.3v-3.5
			h3.3v-6.6l4.5-2.7v9.4h4.6v3.5h-4.6v15.7c0,1.3,0.1,2.1,0.2,2.5c0.2,0.4,0.4,0.7,0.8,0.9s0.9,0.3,1.6,0.3
			C277.6,966.4,278.3,966.3,279.1,966.2z"/>
		<path d="M283.6,938.5v-5.2h4.5v5.2H283.6z M283.6,970.2v-26.8h4.5v26.8H283.6z"/>
		<path d="M302.4,970.2l-10.2-26.8h4.8l5.7,16c0.6,1.7,1.2,3.5,1.7,5.4c0.4-1.4,1-3.1,1.7-5.1l5.9-16.3h4.7l-10.1,26.8L302.4,970.2
			L302.4,970.2z"/>
		<path d="M319.1,956.9c0-5,1.4-8.6,4.1-11c2.3-2,5.1-3,8.4-3c3.7,0,6.7,1.2,9,3.6c2.3,2.4,3.5,5.7,3.5,10c0,3.4-0.5,6.2-1.6,8.1
			c-1,2-2.5,3.5-4.5,4.6s-4.1,1.6-6.5,1.6c-3.7,0-6.8-1.2-9.1-3.6C320.3,964.8,319.1,961.4,319.1,956.9z M323.8,956.9
			c0,3.4,0.7,6,2.2,7.7s3.4,2.6,5.6,2.6c2.3,0,4.1-0.9,5.6-2.6c1.5-1.7,2.2-4.3,2.2-7.8c0-3.3-0.8-5.8-2.3-7.5s-3.4-2.6-5.6-2.6
			c-2.3,0-4.2,0.8-5.6,2.5C324.5,950.9,323.8,953.4,323.8,956.9z"/>
		<path d="M363.9,980.5v-37h4.1v3.5c1-1.4,2.1-2.4,3.3-3.1c1.2-0.7,2.7-1,4.5-1c2.3,0,4.3,0.6,6.1,1.8c1.7,1.2,3.1,2.8,4,5
			c0.9,2.1,1.3,4.5,1.3,7c0,2.7-0.5,5.2-1.5,7.4s-2.4,3.9-4.3,5c-1.9,1.2-3.8,1.8-5.9,1.8c-1.5,0-2.9-0.3-4.1-1
			c-1.2-0.6-2.2-1.4-3-2.4v13H363.9z M368,957c0,3.4,0.7,6,2.1,7.6s3.1,2.5,5.1,2.5s3.7-0.9,5.2-2.6c1.4-1.7,2.2-4.3,2.2-7.9
			c0-3.4-0.7-6-2.1-7.7s-3.1-2.5-5-2.5s-3.6,0.9-5.1,2.7C368.7,950.9,368,953.6,368,957z"/>
		<path d="M392.5,970.2v-26.8h4.1v4.1c1-1.9,2-3.2,2.9-3.8s1.9-0.9,2.9-0.9c1.5,0,3.1,0.5,4.7,1.5l-1.6,4.2c-1.1-0.7-2.2-1-3.3-1
			c-1,0-1.9,0.3-2.7,0.9c-0.8,0.6-1.4,1.4-1.7,2.5c-0.5,1.6-0.8,3.4-0.8,5.3v14H392.5z"/>
		<path d="M428.1,961.6l4.7,0.6c-0.7,2.7-2.1,4.9-4.1,6.4s-4.6,2.3-7.7,2.3c-3.9,0-7-1.2-9.3-3.6c-2.3-2.4-3.4-5.8-3.4-10.1
			c0-4.5,1.2-8,3.5-10.5s5.3-3.7,9-3.7c3.6,0,6.5,1.2,8.8,3.7c2.3,2.4,3.4,5.9,3.4,10.3c0,0.3,0,0.7,0,1.2h-20
			c0.2,2.9,1,5.2,2.5,6.8s3.4,2.3,5.6,2.3c1.7,0,3.1-0.4,4.3-1.3C426.5,964.9,427.4,963.5,428.1,961.6z M413.2,954.3h14.9
			c-0.2-2.3-0.8-3.9-1.7-5.1c-1.4-1.7-3.3-2.6-5.6-2.6c-2.1,0-3.8,0.7-5.3,2.1C414.1,950.1,413.4,951.9,413.2,954.3z"/>
		<path d="M456,966.9c-1.7,1.4-3.3,2.4-4.9,3s-3.2,0.9-5,0.9c-2.9,0-5.2-0.7-6.8-2.2c-1.6-1.4-2.4-3.3-2.4-5.5
			c0-1.3,0.3-2.5,0.9-3.6s1.4-2,2.3-2.6c1-0.7,2.1-1.2,3.3-1.5c0.9-0.2,2.2-0.5,4-0.7c3.7-0.4,6.4-1,8.1-1.6c0-0.6,0-1,0-1.2
			c0-1.8-0.4-3.2-1.3-3.9c-1.2-1-2.9-1.5-5.2-1.5c-2.1,0-3.7,0.4-4.7,1.1c-1,0.7-1.8,2.1-2.3,4l-4.4-0.6c0.4-1.9,1.1-3.4,2-4.6
			c0.9-1.2,2.3-2.1,4-2.7c1.7-0.6,3.8-0.9,6.1-0.9s4.1,0.3,5.6,0.8c1.4,0.5,2.5,1.2,3.2,2s1.1,1.8,1.4,3.1c0.2,0.8,0.2,2.2,0.2,4.2
			v6.1c0,4.2,0.1,6.9,0.3,8s0.6,2.2,1.1,3.2h-4.6C456.4,969.3,456.1,968.2,456,966.9z M455.6,956.8c-1.6,0.7-4.1,1.2-7.4,1.7
			c-1.9,0.3-3.2,0.6-4,0.9s-1.4,0.8-1.8,1.5c-0.4,0.6-0.6,1.4-0.6,2.2c0,1.2,0.5,2.2,1.4,3s2.3,1.2,4,1.2s3.3-0.4,4.7-1.1
			c1.4-0.8,2.4-1.8,3-3.1c0.5-1,0.7-2.5,0.7-4.5L455.6,956.8L455.6,956.8z"/>
		<path d="M474.6,970.2l-10.2-26.8h4.8l5.7,16c0.6,1.7,1.2,3.5,1.7,5.4c0.4-1.4,1-3.1,1.7-5.1l5.9-16.3h4.7l-10,26.8L474.6,970.2
			L474.6,970.2z"/>
		<path d="M500.5,970.2l-10.2-26.8h4.8l5.7,16c0.6,1.7,1.2,3.5,1.7,5.4c0.4-1.4,1-3.1,1.7-5.1l5.9-16.3h4.7l-10.1,26.8L500.5,970.2
			L500.5,970.2z"/>
		<path d="M518.9,938.5v-5.2h4.5v5.2H518.9z M518.9,970.2v-26.8h4.5v26.8H518.9z"/>
		<path d="M528.5,962.3l4.5-0.7c0.3,1.8,1,3.2,2.1,4.1c1.2,1,2.8,1.4,4.8,1.4c2.1,0,3.6-0.4,4.6-1.3c1-0.8,1.5-1.8,1.5-3
			c0-1-0.4-1.8-1.3-2.4c-0.6-0.4-2.2-0.9-4.6-1.5c-3.3-0.8-5.6-1.6-6.9-2.2c-1.3-0.6-2.3-1.5-2.9-2.5c-0.7-1.1-1-2.3-1-3.6
			c0-1.2,0.3-2.3,0.8-3.3s1.3-1.9,2.2-2.5c0.7-0.5,1.7-1,2.9-1.3c1.2-0.4,2.5-0.5,3.9-0.5c2.1,0,3.9,0.3,5.5,0.9
			c1.6,0.6,2.8,1.4,3.5,2.5c0.8,1,1.3,2.4,1.6,4.1l-4.4,0.6c-0.2-1.4-0.8-2.5-1.8-3.2c-1-0.8-2.3-1.2-4.1-1.2c-2.1,0-3.6,0.3-4.5,1
			s-1.3,1.5-1.3,2.4c0,0.6,0.2,1.1,0.6,1.6c0.4,0.5,0.9,0.9,1.7,1.2c0.5,0.2,1.8,0.6,4,1.2c3.2,0.9,5.4,1.6,6.7,2.1s2.3,1.3,3,2.4
			c0.7,1,1.1,2.3,1.1,3.9c0,1.5-0.4,2.9-1.3,4.3c-0.9,1.3-2.2,2.4-3.8,3.1c-1.7,0.7-3.5,1.1-5.6,1.1c-3.5,0-6.1-0.7-8-2.2
			C530.2,967.2,529,965.1,528.5,962.3z"/>
		<path d="M554.4,956.9c0-5,1.4-8.6,4.1-11c2.3-2,5.1-3,8.4-3c3.7,0,6.7,1.2,9,3.6c2.3,2.4,3.5,5.7,3.5,10c0,3.4-0.5,6.2-1.6,8.1
			c-1,2-2.5,3.5-4.5,4.6s-4.1,1.6-6.5,1.6c-3.7,0-6.8-1.2-9.1-3.6C555.6,964.8,554.4,961.4,554.4,956.9z M559.1,956.9
			c0,3.4,0.7,6,2.2,7.7s3.4,2.6,5.6,2.6c2.3,0,4.1-0.9,5.6-2.6c1.5-1.7,2.2-4.3,2.2-7.8c0-3.3-0.8-5.8-2.3-7.5s-3.4-2.6-5.6-2.6
			c-2.3,0-4.2,0.8-5.6,2.5C559.8,950.9,559.1,953.4,559.1,956.9z"/>
	</g>
	<g>
		<g>
			<path class="st5" d="M651.2,291.7c6.3,0.3,10.1,5,9.1,11.2l-0.2,1l-0.4,1l-0.4,1l-57.9,100.4c-2.9,4.5-7,7-12.3,4.8
				c-2-1.1-3.5-2.7-4.7-4.6l-57.8-100.1c-2.1-3.9-2.9-8.1,0.3-11.8c2.5-2.7,5.7-3,9.3-3h113.7h1.3L651.2,291.7L651.2,291.7z"/>
			<path class="st6" d="M649.8,294.6c1.8,0,3.5-0.2,5.3,1.2c1.8,1.4,3.5,4.8,1.5,8.8l-57.8,100.2c-3.2,5.7-9,5.5-12.1,0.1l-57.7-100
				c-1.2-2.1-2.2-5.2-0.8-7.4c1.8-2.9,4.8-2.9,7.9-3L649.8,294.6L649.8,294.6z"/>
			<polygon class="st7" points="642.1,306.4 592.7,391.8 543.5,306.4 			"/>
		</g>
	</g>
	<g>
		<g>
			<path class="st8" d="M303.6,491c14.9,0.6,23.9,11.8,21.5,26.6l-0.5,2.3l-0.9,2.4l-1,2.4l-137,237.5
				c-6.9,10.5-16.6,16.6-29.2,11.2c-4.8-2.6-8.3-6.4-11.1-10.9L8.8,525.8c-5-9.3-6.9-19.2,0.7-27.8c6-6.4,13.5-7.1,22-7.1l268.8,0.1
				L303.6,491L303.6,491z"/>
			<path class="st6" d="M300.3,497.9c4.2,0.1,8.3-0.4,12.6,2.8c4.4,3.2,8.4,11.4,3.7,20.8L179.8,758.6c-7.7,13.4-21.2,13.1-28.5,0.4
				L14.8,522.4c-2.9-5.1-5.3-12.2-2-17.5c4.4-7,11.2-7,18.7-7.1L300.3,497.9L300.3,497.9z"/>
			<polygon class="st9" points="282.1,525.7 165.4,727.6 48.9,525.7 			"/>
			<polygon class="st8" points="24.9,377.6 304.5,377.6 304.5,483.4 24.9,483.4 			"/>
			<path class="st10" d="M46.3,385.2h236.8c7.6,0,13.8,6.2,13.8,13.8v63.1c0,7.6-6.2,13.8-13.8,13.8H46.3c-7.6,0-13.8-6.2-13.8-13.8
				V399C32.4,391.4,38.7,385.2,46.3,385.2L46.3,385.2z"/>
			<path class="st4" d="M209.3,429.9c2.6-4.2,13.4-4.1,14.9,0.8c3.8-6.1,16-4.7,16,2.7v19.7h-9v-15.6c0-1.5,0-4.6-2.8-4.6
				c-2.3,0-3.6,2.6-3.6,3.8v16.4h-9v-15.6c0-1.5,0-4.6-2.8-4.6c-2.3,0-3.6,2.6-3.6,3.8v16.4h-9c0-7.4,0-16.2,0-23.7
				c0-0.6-0.4-1.2-0.4-1.8h9L209.3,429.9L209.3,429.9z"/>
			<path class="st4" d="M82.5,440.7l8.6-1.1c0.2,2.2,1,3.9,2,5c1.2,1.1,2.8,1.7,4.3,1.7s3.1-0.7,4.3-1.9c1.2-1.2,2-3.1,2-5.3
				c0-2-0.6-3.8-1.7-4.9c-1.2-1.1-2.8-1.9-4.3-1.9c-1,0-2.3,0.4-3.7,0.8l0.8-7.4c2.1,0,3.8-0.4,5-1.2c1.2-1.1,2-2.6,2-4.3
				c0-1.2-0.6-2.5-1.4-3.3c-0.8-0.9-2.1-1.4-3.5-1.4s-2.8,0.5-3.5,1.4c-1,0.9-1.7,2.4-1.7,4l-8.2-1c0.5-2.6,1.4-4.8,2.3-6.3
				c1.2-1.5,2.9-2.9,4.9-3.6c2-0.9,4.5-1.5,6.8-1.5c4.3,0,7.8,1.5,10.3,4c2.1,2.2,3.2,4.8,3.2,7.4c0,3.7-2.3,6.9-6.9,9.2
				c2.5,0.5,4.9,1.8,6.4,3.6c1.6,1.8,2.5,4.2,2.5,6.7c0,3.7-1.5,7.2-4.4,9.7c-3,2.6-6.6,4-10.9,4c-4.2,0-7.6-1-10.3-3.3
				C84.5,447.7,83,444.3,82.5,440.7L82.5,440.7z M148.9,444.7v7.8h-31.5c0.1-3,1.4-5.7,2.9-8.3c1.5-2.5,5.1-6.2,10-10.6
				c3.8-3.4,6.6-5.9,7.3-7.2c1.2-1.6,2-3.5,2-5.1c0-1.8-0.6-3.3-1.5-4.2c-1.2-1.1-2.8-1.6-4.7-1.6c-1.7,0-3.2,0.5-4.3,1.4
				c-1.2,1.1-1.9,3-1.9,5.1l-8.9-0.7c0.3-4.4,2.1-7.9,4.7-9.7c2.8-2,6.5-3.1,10.8-3.1c4.6,0,8.3,1.3,11,3.5c2.8,2.4,4.2,5.5,4.2,8.8
				c0,1.9-0.5,3.9-1.2,5.7c-0.8,1.9-2.2,3.8-3.7,5.7c-1,1.1-3.1,3.1-5.9,5.5c-2.9,2.3-4.9,4-5.6,4.8c-0.8,0.7-1.6,1.6-2,2.3
				L148.9,444.7L148.9,444.7z M169.6,408.4c4.3,0,8,1.7,10.5,4.6c3.1,3.7,4.6,9.7,4.6,18c0,8-1.5,14.1-4.6,17.8
				c-2.5,3-6.3,4.4-10.5,4.4c-4.6,0-8.3-1.6-11.1-4.8c-2.7-3.3-4.1-9.2-4.1-17.6c0-8,1.6-14.1,4.5-17.8
				C161.5,410.1,165.2,408.4,169.6,408.4L169.6,408.4z M169.6,415.4c-1.2,0-2.1,0.3-2.9,0.8c-0.8,0.7-1.7,2.1-2.1,3.7
				c-0.5,2.2-0.8,5.8-0.8,11c0,5.1,0.3,8.6,0.8,10.5c0.3,1.9,1.2,3.3,1.9,3.8c0.8,0.6,2,0.9,3.1,0.9c1,0,2-0.4,2.8-0.9
				c0.7-0.6,1.7-1.8,2.1-3.5c0.6-2.1,0.9-5.7,0.9-10.9c0-5.1-0.3-8.8-0.7-10.7c-0.6-1.8-1.4-3.3-2.2-3.8
				C171.8,415.7,170.6,415.4,169.6,415.4L169.6,415.4z"/>
		</g>
	</g>
	<g>
		<g>
			<path class="st11" d="M651.2,670.8c6.3,0.3,10.1,5,9.1,11.2l-0.2,1l-0.4,1l-0.4,1l-57.7,100.1c-2.9,4.4-7,7-12.3,4.7
				c-2-1.1-3.5-2.7-4.7-4.6l-57.7-99.8c-2.1-3.9-2.9-8.1,0.3-11.7c2.5-2.7,5.7-3,9.3-3h113.3L651.2,670.8L651.2,670.8L651.2,670.8z"
				/>
			<path class="st6" d="M649.8,673.7c1.8,0,3.5-0.2,5.3,1.2s3.5,4.8,1.5,8.8l-57.7,100c-3.2,5.7-8.9,5.5-12,0.1l-57.5-99.7
				c-1.2-2.1-2.2-5.1-0.8-7.4c1.8-2.9,4.7-2.9,7.9-3L649.8,673.7L649.8,673.7z"/>
			<polygon class="st12" points="642.2,685.4 592.9,770.6 543.9,685.4 			"/>
			<polygon class="st11" points="533.7,623 651.6,623 651.6,667.6 533.7,667.6 			"/>
			<path class="st13" d="M542.7,626.2h99.9c3.2,0,5.8,2.6,5.8,5.8v26.6c0,3.2-2.6,5.8-5.8,5.8h-99.9c-3.2,0-5.8-2.6-5.8-5.8V632
				C536.9,628.8,539.5,626.2,542.7,626.2L542.7,626.2z"/>
			<path class="st4" d="M611.5,645c1.1-1.8,5.6-1.7,6.3,0.3c1.6-2.6,6.8-2,6.8,1.2v8.3h-3.8v-6.6c0-0.6,0-1.9-1.2-1.9
				c-1,0-1.5,1.1-1.5,1.6v6.9h-3.8v-6.6c0-0.6,0-1.9-1.2-1.9c-1,0-1.5,1.1-1.5,1.6v6.9h-3.8c0-3.1,0-6.8,0-10c0-0.3-0.2-0.5-0.2-0.8
				h3.8L611.5,645L611.5,645z"/>
			<path class="st4" d="M558,649.6l3.6-0.5c0.1,0.9,0.4,1.7,0.8,2.1c0.5,0.5,1.2,0.7,1.8,0.7s1.3-0.3,1.8-0.8s0.8-1.3,0.8-2.2
				c0-0.8-0.2-1.6-0.7-2.1s-1.2-0.8-1.8-0.8c-0.4,0-1,0.2-1.6,0.3l0.3-3.1c0.9,0,1.6-0.2,2.1-0.5c0.5-0.5,0.8-1.1,0.8-1.8
				c0-0.5-0.2-1.1-0.6-1.4c-0.3-0.4-0.9-0.6-1.5-0.6s-1.2,0.2-1.5,0.6c-0.4,0.4-0.7,1-0.7,1.7l-3.5-0.4c0.2-1.1,0.6-2,1-2.6
				c0.5-0.6,1.2-1.2,2.1-1.5c0.8-0.4,1.9-0.6,2.9-0.6c1.8,0,3.3,0.6,4.3,1.7c0.9,0.9,1.4,2,1.4,3.1c0,1.5-1,2.9-2.9,3.9
				c1.1,0.2,2.1,0.7,2.7,1.5c0.7,0.8,1.1,1.8,1.1,2.8c0,1.6-0.6,3-1.9,4.1c-1.3,1.1-2.8,1.7-4.6,1.7s-3.2-0.4-4.3-1.4
				C558.9,652.5,558.2,651.1,558,649.6L558,649.6z M586,651.3v3.3h-13.3c0-1.3,0.6-2.4,1.2-3.5c0.6-1.1,2.1-2.6,4.2-4.5
				c1.6-1.4,2.8-2.5,3.1-3c0.5-0.7,0.8-1.5,0.8-2.2s-0.2-1.4-0.6-1.8c-0.5-0.5-1.2-0.7-2-0.7c-0.7,0-1.4,0.2-1.8,0.6
				c-0.5,0.5-0.8,1.3-0.8,2.2l-3.8-0.3c0.1-1.9,0.9-3.3,2-4.1c1.2-0.8,2.7-1.3,4.5-1.3c2,0,3.5,0.6,4.6,1.5c1.2,1,1.8,2.3,1.8,3.7
				c0,0.8-0.2,1.7-0.5,2.4c-0.3,0.8-0.9,1.6-1.6,2.4c-0.4,0.5-1.3,1.3-2.5,2.3s-2.1,1.7-2.3,2c-0.3,0.3-0.7,0.7-0.8,1L586,651.3
				L586,651.3z M594.7,635.9c1.8,0,3.4,0.7,4.4,1.9c1.3,1.5,2,4.1,2,7.6c0,3.4-0.6,6-2,7.5c-1.1,1.3-2.6,1.9-4.4,1.9
				c-2,0-3.5-0.7-4.7-2c-1.1-1.4-1.7-3.9-1.7-7.4c0-3.4,0.7-6,1.9-7.5C591.3,636.7,592.9,635.9,594.7,635.9L594.7,635.9z
				 M594.7,638.9c-0.5,0-0.9,0.1-1.2,0.4c-0.3,0.3-0.7,0.9-0.9,1.6c-0.2,0.9-0.3,2.4-0.3,4.6c0,2.2,0.1,3.6,0.3,4.4
				c0.1,0.8,0.5,1.4,0.8,1.6c0.3,0.2,0.8,0.4,1.3,0.4c0.4,0,0.8-0.2,1.2-0.4c0.3-0.2,0.7-0.8,0.9-1.5c0.2-0.9,0.4-2.4,0.4-4.6
				c0-2.2-0.1-3.7-0.3-4.5s-0.6-1.4-0.9-1.6C595.7,639,595.2,638.9,594.7,638.9L594.7,638.9z"/>
		</g>
	</g>
	<line class="st14" x1="279.7" y1="620.1" x2="533.7" y2="707.1"/>
</g>
<g id="Livello_3" class="st15">
	<text transform="matrix(1 0 0 1 117.19 897.8592)" class="st16 st17 st18">Dare precedenza</text>
	<text transform="matrix(1 0 0 1 88.29 971.3592)" class="st16 st17 st18">e relativo preavviso</text>
</g>
</svg>
