<?xml version="1.0" encoding="utf-8"?>
<!-- Generator: Adobe Illustrator 19.2.0, SVG Export Plug-In . SVG Version: 6.00 Build 0)  -->
<svg version="1.1" id="Livello_1" xmlns="http://www.w3.org/2000/svg" xmlns:xlink="http://www.w3.org/1999/xlink" x="0px" y="0px"
	 viewBox="0 0 626 627.4" style="enable-background:new 0 0 626 627.4;" xml:space="preserve">
<style type="text/css">
	.st0{fill:#FFFFFF;stroke:#1A171B;stroke-width:1.3851;stroke-miterlimit:2.6131;}
	.st1{fill:#E1001A;}
	.st2{fill:#FFFFFF;}
</style>
<g>
	<g>
		<polygon class="st0" points="184.5,625.3 3,447.6 3,181.4 180.8,3.7 446.9,3.7 623,181.4 622.9,447.5 446.9,625.3 		"/>
		<polygon class="st1" points="439.9,607.8 191.8,607.8 20.4,440.1 20.4,188.4 188.2,20.8 439.9,20.8 605.9,188.4 605.9,440.1 		"/>
		<path class="st2" d="M77,364.2c7.3,10.4,13,16.1,13.2,17c0.7,1.6,8.5,6.8,16.3,6.8c5.4,0,13.2-4.9,13.9-6c0.7-0.9,5.4-9.2,5.4-16
			c0-9.2-8.5-20.2-25.5-32c-0.8,0-2.3-1.7-2.3-1.7c-8.5-5.9-16.3-11.8-20.9-15.2c-4.6-3.3-11.6-10-11.6-10
			c-3.6-4.5-13.2-15.6-13.2-19.4c0-4-3.9-14.2-3.9-22.8c0-16.8,7.8-32.8,15.5-40.3c8.2-7.9,25.6-15.2,42.6-15.2
			c18.6,0,29.4,7.2,37.8,14.9c5.9,6.3,12.7,14.5,17.4,26.1c-9.4,5.3-15.6,8.8-28.1,15.8c-5.3-8.8-13-17.8-14-18.9
			c-2-1.7-8.5-7.6-14.7-7.6c-4.6,0-11.7,4.9-12.3,5.9c-0.7,0.9-5.5,9.2-5.5,16c0,10.9,12.3,26.4,31.8,37.9c3.4,2,13,8.4,13.1,8.4
			c9.7,5.3,22.7,19.2,24.8,24.4c2,5.2,7.7,18.1,7.7,27.8c0,20.2-12.8,37.4-17.3,43.5c-7.6,10-25.2,16.3-46.1,16.3
			c-18.6,0-32.6-10.3-38.3-15.6c-9-8.8-5.3-4.9-15.9-21C59.1,374.6,66.9,370.6,77,364.2L77,364.2z M222.7,416.6V248.2h-30.6v-33.7
			l100.4-0.7v33.7l-29.5,0.7v168.4H222.7L222.7,416.6z M319.6,312.2c0-51.1,18.5-103.3,58.8-102.8s58,49.8,58,100.5
			S417,420,376.2,420C335.5,420.1,319.6,363.4,319.6,312.2L319.6,312.2z M353.2,311.7c0,14,6.6,75.9,24.4,76.3
			c17.8,0.4,23.5-60.6,23.5-76.3c0-15.7-3.6-69.9-23.1-69.9C358.6,241.8,353.2,297.7,353.2,311.7L353.2,311.7z M520.1,214.5
			c36.2,0,56.9,31.4,56.7,61.3c-0.3,29.8-19.3,60.3-56.7,60.1h-8.5v80.8h-40.2V214.5H520.1L520.1,214.5z M510.8,246.5v54.7
			c14.7,0,28.6-9.1,28.6-26.1C539.4,258,529.1,246.5,510.8,246.5L510.8,246.5z"/>
	</g>
</g>
</svg>
