<?xml version="1.0" encoding="utf-8"?>
<!-- Generator: Adobe Illustrator 19.2.0, SVG Export Plug-In . SVG Version: 6.00 Build 0)  -->
<svg version="1.1" id="Livello_1" xmlns="http://www.w3.org/2000/svg" xmlns:xlink="http://www.w3.org/1999/xlink" x="0px" y="0px"
	 viewBox="0 0 543.8 673.4" style="enable-background:new 0 0 543.8 673.4;" xml:space="preserve">
<style type="text/css">
	.st0{fill:#FFFFFF;stroke:#1A171B;stroke-width:1.0814;stroke-miterlimit:2.6131;}
	.st1{fill:#E1001A;}
	.st2{fill:#FFFFFF;stroke:#E1001A;stroke-width:3.6045;stroke-miterlimit:2.6131;}
	.st3{fill:none;stroke:#1A171B;stroke-width:7.209;stroke-miterlimit:2.6131;}
	.st4{fill:#1A171B;stroke:#1A171B;stroke-width:1.0814;stroke-miterlimit:2.6131;}
</style>
<g>
	<g>
		<path class="st0" d="M505.5,193.1c25.1,1,40.2,19.8,36.3,44.8l-0.9,3.8l-1.5,4.1l-1.8,4L307,649.8c-11.6,17.8-27.9,27.9-49.2,18.9
			c-8.1-4.4-13.9-10.7-18.6-18.4L9,251.7c-8.4-15.7-11.6-32.3,1.2-46.8C20.3,194.2,33,193,47.2,193l452.8,0.1L505.5,193.1
			L505.5,193.1z"/>
		<path class="st1" d="M499.9,204.7c7,0.1,13.9-0.7,21.3,4.7c7.3,5.4,14.1,19.2,6.2,35.1L297,643.8c-12.9,22.6-35.7,22-48,0.6
			L19.1,245.9c-4.8-8.5-9-20.6-3.4-29.5c7.3-11.7,18.9-11.7,31.4-11.9L499.9,204.7L499.9,204.7z"/>
		<polygon class="st2" points="469.2,251.5 272.6,591.7 76.5,251.5 		"/>
		<polygon class="st0" points="36,2.1 507,2.1 507,180.3 36,180.3 		"/>
		<path class="st3" d="M72.1,14.9H471c12.8,0,23.3,10.5,23.3,23.3v106.2c0,12.8-10.5,23.3-23.3,23.3H72.1
			c-12.8,0-23.3-10.5-23.3-23.3V38.2C48.8,25.4,59.3,14.9,72.1,14.9L72.1,14.9z"/>
		<path class="st4" d="M89.9,98.6l8.4-0.9c0.3,3.1,1.5,5.3,2.9,6.6c1.5,1.3,3.8,2.2,6.4,2.2c2.9,0,5.2-0.6,6.4-1.9
			c1.5-1.3,2.3-2.8,2.3-4.4c0-0.9-0.3-1.9-0.9-2.5s-2-1.6-3.2-2.2c-1.2-0.3-3.5-1.2-7-1.9c-4.7-1.2-8.1-2.8-9.9-4.7
			c-2.3-2.5-3.8-5.6-3.8-9.4c0-2.5,0.6-5,1.7-6.9c1.2-1.9,2.9-3.8,5.2-4.7c2.3-1.3,5.2-1.9,8.4-1.9c5.2,0,9.3,1.6,11.9,4.1
			s4.4,6.3,4.4,10.6l-8.7,0.3c-0.3-2.2-1.2-4.1-2.3-5c-1.2-1.2-2.9-1.9-5.2-1.9c-2.3,0-4.7,0.6-5.8,1.9c-0.6,0.6-1.2,1.6-1.2,2.8
			c0,1.3,0.6,2.2,1.2,2.8c1.2,0.9,3.8,2.2,7.9,3.1c4.1,1.3,7.6,2.5,9.3,3.4c2,1.3,3.8,2.8,4.9,4.7c1.2,1.9,1.7,4.7,1.7,7.5
			c0,2.5-0.9,5-2,7.2c-1.5,2.5-3.8,4.4-6.1,5.3c-2.3,0.9-5.8,1.6-9.3,1.6c-5.2,0-9.6-1.6-12.5-4.1C92.2,108,90.2,103.6,89.9,98.6
			L89.9,98.6z M142.5,113.6V74.8h-12.8V67H164v7.8h-12.8v38.8H142.5L142.5,113.6z M166.7,90.4c0-4.4,0.6-8.8,1.7-11.9
			c0.9-2.2,2.3-4.4,4.1-6.3c1.7-1.9,3.8-3.4,5.5-4.4c2.6-1.3,5.8-1.9,9.3-1.9c6.4,0,11.6,2.2,15.4,6.6c3.8,4.4,5.8,10.3,5.8,17.8
			s-2,13.4-5.8,17.5c-3.8,4.4-9,6.6-15.1,6.6c-6.4,0-11.6-2.2-15.1-6.3c-3.8-4.1-5.8-10-5.8-17.5V90.4L166.7,90.4z M175.4,90.1
			c0,5.3,1.2,9.7,3.2,12.2c2.3,2.5,5.5,4.1,9,4.1s6.4-1.6,8.7-4.1c2.3-2.5,3.5-6.9,3.5-12.2c0-5-1.2-9.4-3.2-11.9
			c-2.3-2.5-5.5-4.1-9-4.1s-6.7,1.6-8.7,4.1c-2.3,2.5-3.5,6.9-3.5,12.2V90.1L175.4,90.1z M215.6,113.6V67h14c5.2,0,9,0.3,10.5,0.9
			c2.3,0.6,4.7,2.2,6.4,4.4c1.7,2.5,2.6,5.6,2.6,9.1c0,2.8-0.6,5.3-1.5,7.2c-1.2,1.9-2.6,3.8-3.8,4.7c-1.5,1.3-3.2,2.2-4.7,2.2
			c-2,0.3-5.2,0.6-9.3,0.6h-5.5v17.5L215.6,113.6L215.6,113.6z M224.3,74.8v13.4h4.9c3.5,0,5.8-0.3,7-0.6s2.3-1.2,2.9-2.2
			s1.2-2.5,1.2-3.8c0-1.6-0.6-3.1-1.5-4.1c-0.9-1.3-2.3-2.2-3.8-2.2c-1.2-0.3-3.5-0.6-6.4-0.6h-4.3L224.3,74.8L224.3,74.8z
			 M287.7,101.1l8.1-0.9c0,2.2,0.9,4.1,1.7,5c1.2,1.3,2.6,1.9,4.1,1.9s2.9-0.6,4.1-1.9c1.2-1.2,1.7-3.4,1.7-5.6c0-1.9-0.6-3.8-1.5-5
			c-1.2-1.3-2.6-2.2-4.1-2.2c-0.9,0-2.3,0.3-3.5,0.9l0.6-7.8c2,0,3.8-0.3,4.9-1.3c1.2-1.2,1.7-2.8,1.7-4.7c0-1.2-0.6-2.8-1.2-3.8
			c-0.9-0.9-2.3-1.6-3.5-1.6s-2.6,0.6-3.2,1.6c-0.9,1.2-1.7,2.8-1.7,4.7l-7.6-1.2c0.3-2.8,1.2-5.3,2-6.9c1.2-1.6,2.6-3.1,4.4-4.1
			c1.7-0.9,4.1-1.6,6.4-1.6c4.1,0,7.3,1.6,9.6,4.4c2,2.2,3.2,5,3.2,7.8c0,4.1-2.3,7.5-6.4,10c2.3,0.6,4.7,1.9,6.1,3.8
			c1.5,1.9,2.3,4.7,2.3,7.2c0,4.1-1.5,7.8-4.1,10.3c-2.9,2.8-6.4,4.4-10.5,4.4c-3.8,0-7.3-1.2-9.6-3.4c-2.3-2.5-4.1-5.9-4.4-9.7
			v-0.3L287.7,101.1L287.7,101.1z M349.9,105.1v8.4h-29.4c0-3.1,1.2-6.3,2.6-8.8c1.7-2.8,4.9-6.9,9.6-11.3c3.5-3.8,6.1-6.3,7-7.5
			c1.2-1.9,1.7-3.8,1.7-5.6c0-1.9-0.6-3.4-1.5-4.4c-1.2-1.2-2.6-1.9-4.4-1.9c-1.7,0-3.5,0.6-4.4,1.6c-1.2,1.2-1.7,3.1-1.7,5.3
			l-8.1-0.6c0.3-4.7,2-8.4,4.4-10.3c2.6-2.2,6.1-3.4,10.2-3.4c4.1,0,7.9,1.3,10.2,3.8s3.8,5.6,3.8,9.4c0,1.9-0.6,4.1-1.2,5.9
			c-0.6,1.9-2,4.1-3.5,5.9c-0.9,1.2-2.9,3.4-5.5,5.9s-4.4,4.7-4.9,5.3c-0.6,0.6-1.5,1.6-2,2.2h17.1L349.9,105.1L349.9,105.1z
			 M369.4,66.7c4.1,0,7.6,1.9,9.9,5c2.9,3.8,4.4,10.3,4.4,19.1s-1.5,15.3-4.4,19.1c-2.3,3.1-5.8,4.7-9.9,4.7c-4.4,0-8.1-1.9-10.5-5
			c-2.3-3.4-3.8-10-3.8-18.8s1.5-15.3,4.1-19.1C361.6,68.6,365.4,66.7,369.4,66.7L369.4,66.7z M369.4,74.2c-1.2,0-2.3,0.3-2.9,0.9
			c-0.6,0.6-1.5,2.2-1.7,4.1c-0.6,2.2-0.9,6.3-0.9,11.6s0.3,9.4,0.6,11.3c0.6,1.9,1.5,3.4,2,4.1c0.6,0.6,1.7,0.9,2.9,0.9
			c0.9,0,2-0.3,2.6-0.9c0.6-0.6,1.5-1.9,1.7-3.8c0.6-2.2,1.2-6.3,1.2-11.6s-0.3-9.4-0.9-11.3c-0.6-1.9-1.5-3.4-2-4.1
			C371.5,74.8,370.3,74.2,369.4,74.2L369.4,74.2z M408.1,79.8v4.7c2.6-3.8,6.1-5.6,9.6-5.6c2,0,4.4,0.6,5.2,1.3
			c1.5,0.6,2.9,2.5,3.8,4.4c1.2-1.9,3.2-3.4,4.4-4.1c1.7-0.6,3.5-1.6,5.2-1.6c2.3,0,4.7,0.9,5.8,1.6c1.2,0.6,3.2,3.1,3.8,4.7
			c0.6,1.3,0.9,4.1,0.9,6.9v21.6h-8.4V94.3c0-3.1-0.3-5.6-0.9-6.3c-0.6-1.3-2-2.2-3.5-2.2c-1.2,0-2.3,0.9-3.2,1.3
			c-0.9,0.6-2.3,2.5-2.3,3.4s-0.6,4.1-0.6,6.9v16.3h-8.4V95.1c0-3.1-0.3-5.6-0.3-6.3c-0.3-0.9-0.9-1.9-1.5-2.2
			c-0.6-0.6-1.7-0.9-2.6-0.9c-1.2,0-2.9,0.9-3.5,1.3c-0.6,0.3-2,2.2-2,3.1s-0.6,4.4-0.6,7.2v16.3h-8.4V79.8L408.1,79.8L408.1,79.8z"
			/>
	</g>
</g>
</svg>
