<?xml version="1.0" encoding="utf-8"?>
<!-- Generator: Adobe Illustrator 19.2.0, SVG Export Plug-In . SVG Version: 6.00 Build 0)  -->
<svg version="1.1" id="Livello_1" xmlns="http://www.w3.org/2000/svg" xmlns:xlink="http://www.w3.org/1999/xlink" x="0px" y="0px"
	 viewBox="0 0 605.4 604.4" style="enable-background:new 0 0 605.4 604.4;" xml:space="preserve">
<style type="text/css">
	.st0{fill:#FFFFFF;stroke:#1A171B;stroke-width:2.121;stroke-miterlimit:2.6131;}
	.st1{fill:#E1001A;}
	.st2{fill:#FFFFFF;}
	.st3{fill:#E1001A;stroke:#E1001A;stroke-width:1.3597;stroke-miterlimit:2.6131;}
	.st4{fill:#1A171B;stroke:#1A171B;stroke-width:1.3597;stroke-miterlimit:2.6131;}
</style>
<g>
	<g>
		<path class="st0" d="M302.7,1.7C468.1,1.7,603,136.6,603,302S468.1,602.3,302.7,602.3S2.4,467.4,2.4,302S137.3,1.7,302.7,1.7
			L302.7,1.7z"/>
		<path class="st1" d="M302.7,18.9c155.9,0,283.1,127.2,283.1,283.1S458.6,585.1,302.7,585.1S19.6,457.9,19.6,302
			S146.8,18.9,302.7,18.9L302.7,18.9z"/>
		<path class="st2" d="M303.6,90.7c116.1,0,210.7,94.7,210.7,210.7s-94.7,210.7-210.7,210.7c-116.1,0-210.7-94.7-210.7-210.7
			S187.5,90.7,303.6,90.7L303.6,90.7z"/>
		<path class="st3" d="M399.6,437.1v-162l28.1,7.2c9.3,2.7,13.2-4.1,9.5-9.5l-56.3-103.2l-56.3,103.2c-2,5.5,0.2,11.8,9.3,9.5
			l28.3-7.2v162.1L399.6,437.1L399.6,437.1z"/>
		<path class="st4" d="M245.6,169.5v162.1l28.1-7.1c9.3-2.7,13.2,4.1,9.5,9.5l-56.3,103.2L170.6,334c-2-5.5,0.2-11.8,9.3-9.5
			l28.3,7.1V169.5H245.6z"/>
	</g>
</g>
</svg>
