<?xml version="1.0" encoding="utf-8"?>
<!-- Generator: Adobe Illustrator 19.2.0, SVG Export Plug-In . SVG Version: 6.00 Build 0)  -->
<svg version="1.1" id="Livello_1" xmlns="http://www.w3.org/2000/svg" xmlns:xlink="http://www.w3.org/1999/xlink" x="0px" y="0px"
	 viewBox="0 0 673.6 673.4" style="enable-background:new 0 0 673.6 673.4;" xml:space="preserve">
<style type="text/css">
	.st0{fill:#FFFFFF;stroke:#1A171B;stroke-width:1.4925;stroke-miterlimit:2.6131;}
	.st1{fill:#FFEC00;stroke:#1A171B;stroke-width:7.4626;stroke-miterlimit:2.6131;}
	.st2{fill:none;stroke:#1A171B;stroke-width:7.4626;stroke-miterlimit:2.6131;}
	.st3{fill:#1A171B;stroke:#1A171B;stroke-width:1.4925;stroke-miterlimit:2.6131;}
</style>
<g>
	<g>
		<polygon class="st0" points="335.8,1.7 671.7,337.6 337.6,671.7 1.7,335.8 		"/>
		<polygon class="st1" points="336.2,131.3 542.7,337.8 337.3,543.1 130.8,336.7 		"/>
		<path class="st2" d="M352.5,41.7l279.6,279.6c9.3,9.3,9.3,24.5,0,33.7L354.2,632.8c-9.3,9.3-24.5,9.3-33.7,0L40.9,353.3
			c-9.3-9.3-9.3-24.5,0-33.7L318.7,41.7C328,32.4,343.2,32.4,352.5,41.7L352.5,41.7z"/>
		<polygon class="st3" points="140,474.3 460.3,153.9 518.7,212.3 198.3,532.6 		"/>
	</g>
</g>
</svg>
