<?xml version="1.0" encoding="utf-8"?>
<!-- Generator: Adobe Illustrator 19.2.0, SVG Export Plug-In . SVG Version: 6.00 Build 0)  -->
<svg version="1.1" id="Livello_1" xmlns="http://www.w3.org/2000/svg" xmlns:xlink="http://www.w3.org/1999/xlink" x="0px" y="0px"
	 viewBox="0 0 673.6 596.7" style="enable-background:new 0 0 673.6 596.7;" xml:space="preserve">
<style type="text/css">
	.st0{fill:#FFFFFF;stroke:#1A171B;stroke-width:1.3397;stroke-miterlimit:2.6131;}
	.st1{fill:#E1001A;}
	.st2{fill:#FFFFFF;stroke:#E1001A;stroke-width:4.4658;stroke-miterlimit:2.6131;}
	.st3{fill:#1A171B;stroke:#1A171B;stroke-width:4.4658;stroke-miterlimit:2.6131;}
</style>
<g>
	<g>
		<path class="st0" d="M625.8,594.6c31.1-1.3,49.8-24.6,44.9-55.5l-1.1-4.7l-1.8-5.1l-2.2-4.9L379.9,28.8
			C365.5,6.8,345.3-5.8,319,5.3c-10,5.5-17.3,13.3-23.1,22.7L10.7,522c-10.4,19.5-14.4,40,1.5,58c12.6,13.3,28.2,14.7,45.8,14.7
			l561-0.2L625.8,594.6L625.8,594.6z"/>
		<path class="st1" d="M618.9,580.3c8.7-0.2,17.3,0.9,26.4-5.8c9.1-6.7,17.5-23.8,7.6-43.5L367.5,36.2c-16-28-44.2-27.3-59.5-0.7
			L23.2,529.2c-6,10.5-11.1,25.5-4.2,36.6c9.1,14.5,23.5,14.5,38.9,14.7L618.9,580.3L618.9,580.3z"/>
		<polygon class="st2" points="580.9,522.2 337.3,100.8 94.3,522.2 		"/>
		<path class="st3" d="M337.5,223.2l44.1,43.2c0,120.2,0,69,0,223.1l-44.1-42.8l-44.1,42.7c0-41.6,0-68.1,0-87.3l-50.1,87.3
			l-37-20.9l87.1-150.9c0.2-12.9,0-29.2,0-51.2L337.5,223.2L337.5,223.2z"/>
	</g>
</g>
</svg>
