<?xml version="1.0" encoding="utf-8"?>
<!-- Generator: Adobe Illustrator 19.2.0, SVG Export Plug-In . SVG Version: 6.00 Build 0)  -->
<svg version="1.1" id="Livello_1" xmlns="http://www.w3.org/2000/svg" xmlns:xlink="http://www.w3.org/1999/xlink" x="0px" y="0px"
	 viewBox="0 0 604.7 601.3" style="enable-background:new 0 0 604.7 601.3;" xml:space="preserve">
<style type="text/css">
	.st0{fill:#005EA7;}
	.st1{fill:none;stroke:#FFFFFF;stroke-width:11.816;stroke-miterlimit:2.6131;}
	.st2{fill:#FFFFFF;stroke:#172982;stroke-width:1.1816;stroke-miterlimit:2.6131;}
	.st3{fill:#E1001A;stroke:#172982;stroke-width:1.1816;stroke-miterlimit:2.6131;}
</style>
<g>
	<polygon class="st0" points="1.5,3.1 601.5,3.1 601.5,599.7 1.5,599.7 	"/>
	<path class="st1" d="M52.3,20.7h499.3c18.3,0,33.2,14.9,33.2,33.2V550c0,18.3-14.9,33.2-33.2,33.2H52.3
		c-18.3,0-33.2-14.9-33.2-33.2V53.9C19.1,35.6,34.1,20.7,52.3,20.7L52.3,20.7z"/>
	<path class="st2" d="M457.2,492.6V261.5l45.7,10.2c15.1,3.8,21.5-5.9,15.4-13.5L426.6,111l-91.7,147.2c-3.2,7.9,0.3,16.8,15.1,13.5
		l46-10.2v231.2L457.2,492.6L457.2,492.6z"/>
	<path class="st3" d="M206.5,110.9v231.2l45.7-10.2c15.1-3.8,21.5,5.9,15.4,13.5l-91.7,147.2L84.2,345.4
		c-3.2-7.9,0.3-16.8,15.1-13.5l46,10.2V110.9H206.5z"/>
</g>
</svg>
