<?xml version="1.0" encoding="utf-8"?>
<!-- Generator: Adobe Illustrator 19.2.0, SVG Export Plug-In . SVG Version: 6.00 Build 0)  -->
<svg version="1.1" id="Livello_1" xmlns="http://www.w3.org/2000/svg" xmlns:xlink="http://www.w3.org/1999/xlink" x="0px" y="0px"
	 viewBox="0 0 607 607" style="enable-background:new 0 0 607 607;" xml:space="preserve">
<style type="text/css">
	.st0{fill:#FFFFFF;stroke:#1A171B;stroke-width:1.8295;stroke-miterlimit:2.6131;}
	.st1{fill:#E1001A;}
	.st2{fill:#FFFFFF;stroke:#FFFFFF;stroke-width:1.3605;stroke-miterlimit:2.6131;}
</style>
<g>
	<g>
		<path class="st0" d="M303,2.5c165.2,0,300,134.8,300,300s-134.8,300-300,300S3,467.7,3,302.5S137.8,2.5,303,2.5L303,2.5z"/>
		<path class="st1" d="M303.9,18.8C459.8,18.8,587,146,587,301.9S459.8,585,303.9,585S20.7,457.8,20.7,301.9S147.9,18.8,303.9,18.8
			L303.9,18.8z"/>
		<path class="st1" d="M303.9,91.2c116.1,0,210.7,94.7,210.7,210.7c0,116.1-94.7,210.7-210.7,210.7c-116.1,0-210.7-94.7-210.7-210.7
			C93.1,185.8,187.8,91.2,303.9,91.2L303.9,91.2z"/>
		<path class="st2" d="M50.4,230.9h503.2c1.5,0,2.7,1.4,2.7,3v127.8c0,1.7-1.2,3-2.7,3H50.4c-1.5,0-2.7-1.4-2.7-3V233.9
			C47.6,232.2,48.8,230.9,50.4,230.9L50.4,230.9z"/>
	</g>
</g>
</svg>
