<?xml version="1.0" encoding="utf-8"?>
<!-- Generator: Adobe Illustrator 19.2.0, SVG Export Plug-In . SVG Version: 6.00 Build 0)  -->
<svg version="1.1" id="Livello_1" xmlns="http://www.w3.org/2000/svg" xmlns:xlink="http://www.w3.org/1999/xlink" x="0px" y="0px"
	 viewBox="0 0 603.9 604.4" style="enable-background:new 0 0 603.9 604.4;" xml:space="preserve">
<style type="text/css">
	.st0{fill:#FFFFFF;stroke:#1A171B;stroke-width:1.8295;stroke-miterlimit:2.6131;}
	.st1{fill:#E1001A;}
	.st2{fill:#FFFFFF;}
	.st3{fill:#E1001A;stroke:#E1001A;stroke-width:1.3597;stroke-miterlimit:2.6131;}
	.st4{fill:#1A171B;stroke:#1A171B;stroke-width:1.3597;stroke-miterlimit:2.6131;}
</style>
<g>
	<g>
		<path class="st0" d="M301.8,2.4c165.2,0,300,134.8,300,300s-134.8,300-300,300s-300-134.8-300-300S136.6,2.4,301.8,2.4L301.8,2.4z
			"/>
		<path class="st1" d="M302.7,18.6c155.9,0,283.1,127.2,283.1,283.1S458.6,584.8,302.7,584.8S19.6,457.6,19.6,301.7
			C19.5,145.8,146.7,18.6,302.7,18.6L302.7,18.6z"/>
		<path class="st2" d="M302.7,91.1c116.1,0,210.7,94.7,210.7,210.7s-94.7,210.7-210.7,210.7C186.6,512.5,92,417.8,92,301.8
			S186.6,91.1,302.7,91.1L302.7,91.1z"/>
		<path class="st3" d="M120.3,358.7v-17.2h25.4v17.7c0,3.6-3.2,4.1-6.3,4.1h-13.1C121.7,363.2,120.3,362.3,120.3,358.7L120.3,358.7z
			 M245.9,358.7v-17.2h25.8l-0.5,17.7c0,3.6-3.2,4.1-6.3,4.1h-13.6C247.2,363.2,245.9,362.3,245.9,358.7L245.9,358.7z M114.4,336.9
			c-5.4,0-5.4-9.1,0-9.1h164.5c5,0,5,9.1-0.5,9.1H114.4L114.4,336.9z M118.5,322.9c-1.4-2.3-2.3-4.1-2.3-5.9H147
			c1.4-3.6,1.4-5,1.4-8.2h-32.2v-4.1h32.2c0-3.2-0.5-6.3-2.3-8.2h-29.9c0-2.3,0-3.6,2.3-5.9c1.8-1.4,4.5-3.2,6.3-3.2
			c47.6-10,93.8-10,141.9-1.4c2.3,1.4,5,1.4,7.7,3.2c2.3,2.3,3.2,5,3.2,7.3h-29.5c-2.7,1.8-4.1,5-4.1,8.2h34l-0.5,4.1H244
			c0,3.2,0,6.3,4.1,8.2h29.5c0,1.8-0.9,3.6-3.2,5.9H118.5L118.5,322.9z M123.9,283.9l11.8-39c3.2-4.1,5.9-6.3,10.4-7.3
			c33.1-5,66.6-5,100.6,0c4.5,0.9,7.7,4.1,10.4,8.2l10,35.4l-8.6-1.8l-8.2-28.1c-1.4-3.6-3.2-4.1-6.3-6.3c-31.3-4.1-63-4.1-94.3,0
			c-3.6,0.9-5.4,1.4-6.8,5l-8.6,30.4L123.9,283.9L123.9,283.9z M174.2,297h44.4c1.8,0,3.2,0.9,3.2,2.3v14.1c0,2.3-1.4,4.1-3.2,4.1
			h-44.4c-1.4,0-3.6-1.8-3.6-4.1v-14.1C170.6,297.9,172.9,297,174.2,297L174.2,297z"/>
		<path class="st4" d="M330.6,358.7v-17.2H356v17.7c0,3.6-2.7,4.1-6.4,4.1h-13.1C332,363.2,330.6,362.3,330.6,358.7L330.6,358.7z
			 M456.2,358.7v-17.2H482l-0.5,17.7c0,3.6-2.7,4.1-6.3,4.1h-13.6C458,363.2,456.2,362.3,456.2,358.7L456.2,358.7z M324.7,336.9
			c-5.4,0-5.4-9.1,0-9.1h164.5c5,0,5,9.1-0.5,9.1H324.7L324.7,336.9z M329.3,322.9c-1.4-2.3-2.3-4.1-2.3-5.9h30.4
			c1.4-3.6,1.4-5,1.4-8.2h-31.7v-4.1h31.7c0-3.2-0.5-6.3-2.3-8.2H327c0-2.3,0-3.6,2.3-5.9c1.4-1.4,4.5-3.2,6.3-3.2
			c47.1-10,93.4-10,141.4-1.4c2.7,1.4,5,1.4,8.2,3.2c1.8,2.3,2.7,5,2.7,7.3h-29c-3.2,1.8-4.5,5-4.5,8.2h34l-0.5,4.1h-33.5
			c0,3.2,0,6.3,4.5,8.2h29c0,1.8-0.9,3.6-2.7,5.9H329.3L329.3,322.9z M334.7,283.9l11.3-39c3.2-4.1,5.9-6.3,10.4-7.3
			c33.1-5,66.6-5,100.6,0c4.5,0.9,8.2,4.1,10.4,8.2l10.4,35.4l-9-1.8l-8.2-28.1c-0.9-3.6-2.7-4.1-6.3-6.3c-31.3-4.1-63-4.1-93.8,0
			c-4.1,0.9-5.4,1.4-6.8,5l-9.1,30.4L334.7,283.9L334.7,283.9z M384.5,297h44.4c1.8,0,3.6,0.9,3.6,2.3v14.1c0,2.3-1.8,4.1-3.6,4.1
			h-44.4c-1.4,0-3.2-1.8-3.2-4.1v-14.1C381.4,297.9,383.2,297,384.5,297L384.5,297z"/>
	</g>
</g>
</svg>
