<?xml version="1.0" encoding="utf-8"?>
<!-- Generator: Adobe Illustrator 19.2.0, SVG Export Plug-In . SVG Version: 6.00 Build 0)  -->
<svg version="1.1" id="Livello_1" xmlns="http://www.w3.org/2000/svg" xmlns:xlink="http://www.w3.org/1999/xlink" x="0px" y="0px"
	 viewBox="0 0 604 604.3" style="enable-background:new 0 0 604 604.3;" xml:space="preserve">
<style type="text/css">
	.st0{fill:#FFFFFF;stroke:#1A171B;stroke-width:1.8295;stroke-miterlimit:2.6131;}
	.st1{fill:#E1001A;}
	.st2{fill:#FFFFFF;}
	.st3{fill:#1A171B;stroke:#1A171B;stroke-width:4.5324;stroke-miterlimit:2.6131;}
	.st4{fill:#1A171B;stroke:#1A171B;stroke-width:3.6259;stroke-miterlimit:2.6131;}
	.st5{fill:#FFFFFF;stroke:#FFFFFF;stroke-width:4.5324;stroke-miterlimit:2.6131;}
	.st6{fill:#1A171B;}
</style>
<g>
	<g>
		<path class="st0" d="M301.8,2c165.2,0,300,134.8,300,300S467,602,301.8,602S1.8,467.2,1.8,302S136.6,2,301.8,2L301.8,2z"/>
		<path class="st1" d="M302.7,18.2c155.9,0,283.1,127.2,283.1,283.1S458.6,584.4,302.7,584.4S19.6,457.2,19.6,301.3
			C19.5,145.4,146.7,18.2,302.7,18.2L302.7,18.2z"/>
		<path class="st2" d="M302.7,90.7c116.1,0,210.7,94.7,210.7,210.7s-94.7,210.7-210.7,210.7C186.6,512.1,92,417.4,92,301.4
			S186.6,90.7,302.7,90.7L302.7,90.7z"/>
		<path class="st3" d="M200.6,344.9c18.3,0,33.3,14.9,33.3,33.3c0,18.3-14.9,33.3-33.3,33.3c-18.3,0-33.3-14.9-33.3-33.3
			S182.3,344.9,200.6,344.9L200.6,344.9z"/>
		<path class="st4" d="M243.9,386.9c2.1-19.8-3.1-31.3-15-42.2l64.7,0.3l-11.7,36L243.9,386.9L243.9,386.9z"/>
		<path class="st5" d="M200.6,360.5c9.7,0,17.6,7.9,17.6,17.6s-7.9,17.6-17.6,17.6s-17.6-7.9-17.6-17.6
			C183,368.5,190.9,360.5,200.6,360.5L200.6,360.5z"/>
		<path class="st3" d="M432.1,344.9c18.3,0,33.3,14.9,33.3,33.3c0,18.3-14.9,33.3-33.3,33.3c-18.3,0-33.3-14.9-33.3-33.3
			S413.7,344.9,432.1,344.9L432.1,344.9z"/>
		<path class="st4" d="M327.4,380l-12.9-35.4l90.3,0.3c-13,11.7-16.8,20.3-15.2,41.8L327.4,380L327.4,380z"/>
		<path class="st5" d="M432.1,360.5c9.7,0,17.6,7.9,17.6,17.6s-7.9,17.6-17.6,17.6s-17.6-7.9-17.6-17.6
			C414.5,368.5,422.4,360.5,432.1,360.5L432.1,360.5z"/>
		<path class="st6" d="M209.5,245.1l31.4-57.9h-39.8v-16.7l60.2,0.1v16.5l-32.4,58L209.5,245.1L209.5,245.1z M335.2,208.4
			c0,11.8-2.8,21.4-8.2,28c-5.4,6.4-13.5,10.2-23.3,10.2c-9.9,0-18.1-3.8-23.3-10.2c-5.2-6.4-8.4-16.5-8.4-28.5s3.1-21.8,8.4-28.5
			c5.4-6.7,13.4-10.4,23.3-10.4s17.5,3.5,23,10.4C332.4,186.2,335.2,196,335.2,208.4L335.2,208.4z"/>
		<path class="st6" d="M405.5,245.1v-20.5c0-3.3-0.4-5.5-1.3-6.7c-0.8-1.2-2.3-1.9-4.4-1.9c-2.6,0-4.4,0.9-5.4,2.6
			s-1.5,5.2-1.5,10.6v15.9h-13.4v-20.5c0-3.3-0.4-5.6-1.2-6.8c-0.8-1.2-2.3-1.8-4.3-1.8c-2.6,0-4.4,0.9-5.4,2.6s-1.5,5.2-1.5,10.6
			v15.9h-13.4v-37.6h13.6v6.6c1.6-2.7,3.5-4.6,5.6-5.9s4.6-1.9,7.5-1.9c3.2,0,5.8,0.6,7.8,1.8c2,1.2,3.5,2.9,4.4,5.3
			c1.5-2.4,3.4-4.2,5.6-5.3c2.2-1.2,4.8-1.8,7.8-1.8c2.4,0,4.4,0.4,6.2,1.1c1.8,0.8,3.3,1.9,4.5,3.4c1,1.2,1.6,2.6,2,4.2
			s0.6,4.2,0.6,7.7v0.8V245L405.5,245.1L405.5,245.1z"/>
		<path class="st2" d="M320,208.1c0,6.6-1.3,11.9-4.1,15.6c-2.8,3.7-6.8,5.7-11.8,5.7s-9.1-2-11.9-5.7c-2.8-3.8-4.3-9.2-4.3-16
			c0-6.7,1.5-12.1,4.3-15.9s6.8-5.8,11.9-5.8s8.9,2,11.7,5.8C318.5,195.6,320,201.1,320,208.1L320,208.1z"/>
		<path class="st4" d="M117.1,234.3c-1.3,3.6-2.7,7.2-3.6,11.2l37.1,36.7l15.2,0.4L117.1,234.3L117.1,234.3z"/>
		<path class="st4" d="M108.1,331.8c-1.3-10.3-2.7-21-2.7-31.7c0-2.2,0.4-4.5,0.4-6.3h60.4l114,11.6l11.2,26.4H108.1L108.1,331.8z"
			/>
		<path class="st4" d="M109.9,343c3.1,14.3,8,28.6,14.8,41.6h30c-1.3-14.3,0.9-32.6,17-41.6H109.9L109.9,343z"/>
		<path class="st4" d="M481.4,385c6.7-13,11.6-27.3,14.8-42.5h-38c14.3,12.1,17,25.5,13.4,42.5H481.4L481.4,385z"/>
		<path class="st4" d="M501.1,293.3c0,2.2,0,4.5,0,6.7c0,10.7-0.9,21.5-2.2,31.7c-14.8,0-90.8,0-186.9,0l12.1-38.5L501.1,293.3
			L501.1,293.3z"/>
		<path class="st4" d="M491.3,238.3c-1.3-4-2.7-8-4.5-12.1h-21L418,282.1h40.2l25-44.3L491.3,238.3L491.3,238.3z"/>
	</g>
</g>
</svg>
