<?xml version="1.0" encoding="utf-8"?>
<!-- Generator: Adobe Illustrator 19.2.0, SVG Export Plug-In . SVG Version: 6.00 Build 0)  -->
<svg version="1.1" id="Livello_1" xmlns="http://www.w3.org/2000/svg" xmlns:xlink="http://www.w3.org/1999/xlink" x="0px" y="0px"
	 viewBox="0 0 607 605" style="enable-background:new 0 0 607 605;" xml:space="preserve">
<style type="text/css">
	.st0{fill:#FFFFFF;stroke:#1A171B;stroke-width:1.8295;stroke-miterlimit:2.6131;}
	.st1{fill:#E1001A;}
	.st2{fill:#FFFFFF;}
	.st3{fill:#1A171B;stroke:#1A171B;stroke-width:1.3597;stroke-miterlimit:2.6131;}
	.st4{fill:#FFFFFF;stroke:#1A171B;stroke-width:1.3597;stroke-miterlimit:2.6131;}
	.st5{fill:#E1001A;stroke:#E1001A;stroke-width:1.3597;stroke-miterlimit:2.6131;}
	.st6{fill:none;stroke:#E1001A;stroke-width:1.3597;stroke-miterlimit:2.6131;}
</style>
<g>
	<g>
		<path class="st0" d="M303,2c165.2,0,300,134.8,300,300S468.2,602,303,602S3,467.2,3,302S137.8,2,303,2L303,2z"/>
		<path class="st1" d="M303.9,18.2C459.8,18.2,587,145.4,587,301.3S459.8,584.4,303.9,584.4S20.8,457.2,20.8,301.3
			C20.7,145.4,147.9,18.2,303.9,18.2L303.9,18.2z"/>
		<path class="st2" d="M303.9,90.7c116.1,0,210.7,94.7,210.7,210.7s-94.7,210.7-210.7,210.7c-116.1,0-210.7-94.7-210.7-210.7
			S187.8,90.7,303.9,90.7L303.9,90.7z"/>
		<path class="st3" d="M329.8,406.3v-15.8h22.5v16.3c0,2.7-2.7,3.5-5.5,3.5l-11.8-0.2C330.8,410.3,329.8,409.1,329.8,406.3
			L329.8,406.3z"/>
		<path class="st3" d="M443.1,406.3v-15.8h22.7l-0.2,16.3c0,2.7-2.7,3.5-5.5,3.5l-12.3-0.2C444.2,410.3,442.7,409.1,443.1,406.3
			L443.1,406.3z"/>
		<path class="st3" d="M324.3,386.6c-4.8,0-4.8-8.2-0.2-8.2h148.2c4.5,0,4.7,8.2-0.2,8.2H324.3L324.3,386.6z"/>
		<path class="st3" d="M328,373.9c-1-1.8-1.8-3.7-2-5.5h27.5c1.8-2.8,1.8-4.5,1.8-7.3h-29.2l-0.2-3.7h29.3c0-2.7-0.8-5.3-2.7-7.3
			H326c0-1.8,0.2-3.5,2-5.3c1.7-1,4.2-2.3,6.2-2.7c42.4-8.8,84.2-9.3,127.9-1c2,0.7,4,1,6.7,2.7c1.8,1.8,2.7,4.5,2.7,6.3H445
			c-2.8,2-3.8,4.7-3.8,7.3h30.5l-0.3,3.7h-30.2c0,2.8,0,5.5,3.7,7.3h26.5c0,1.8-0.8,3.7-2.7,5.5H328L328,373.9z"/>
		<path class="st3" d="M333.3,338.2l10.2-34.7c2.7-3.7,5.5-5.7,9-6.5c30.2-4.5,60.4-4.5,91.4,0.2c3.8,0.7,6.5,3.5,9.2,7.2l9.2,32
			l-8.2-1.8l-7.3-25.5c-0.8-2.8-2.7-3.7-5.5-5.5c-28.3-3.7-56.7-3.7-85,0c-3.7,0.7-4.5,1.5-6.3,4.5l-7.5,27.3L333.3,338.2
			L333.3,338.2z"/>
		<path class="st4" d="M378.1,350.2h40.2c1.5,0,2.7,1.2,2.7,2.7v12.9c0,1.5-1.2,2.7-2.7,2.7h-40.2c-1.5,0-2.7-1.2-2.7-2.7v-12.9
			C375.4,351.4,376.7,350.2,378.1,350.2L378.1,350.2z"/>
		<path class="st5" d="M143.1,407.9V369h15.5c0,11.7,0,27.2,0,38.9c0,1.6-1.4,2.3-3.2,2.3c-2.3,0-5.9,0-8.5,0
			C144,410.4,143.3,409.9,143.1,407.9L143.1,407.9z"/>
		<path class="st1" d="M226.8,378.7c-1.3-4.1-5.3-7-10.1-7c-4.6,0-8.6,2.8-9.9,7h-26.9c0-3.4,0-6.8,0-9.8h-15.4v38.8
			c0,1.8,0.9,2.4,3.8,2.4c2.4,0,5.9,0,8.3,0c1.8,0,3.3-0.9,3.3-2.4c0-6.4,0-13.8,0-21.2h27.2c1.6,3.8,5.3,6.5,9.6,6.5
			c4.4,0,8.1-2.7,9.8-6.5h27.2v-7.8H226.8L226.8,378.7z M253.8,407.9v-21.3V407.9L253.8,407.9z M253.8,378.7v-9.8h15.5
			c0,11.7,0,27.1,0,38.9c0,1.5-1.5,2.2-3.3,2.2c-2.4,0-5.9,0-8.4,0c-2.8,0.1-3.7-0.4-3.8-2.2L253.8,378.7L253.8,378.7z"/>
		<path class="st6" d="M226.8,378.7c-1.3-4.1-5.3-7-10.1-7c-4.6,0-8.6,2.8-9.9,7h-26.9c0-3.4,0-6.8,0-9.8h-15.4v38.8
			c0,1.8,0.9,2.4,3.8,2.4c2.4,0,5.9,0,8.3,0c1.8,0,3.3-0.9,3.3-2.4c0-6.4,0-13.8,0-21.2h27.2c1.6,3.8,5.3,6.5,9.6,6.5
			c4.4,0,8.1-2.7,9.8-6.5h27.2v-7.8H226.8L226.8,378.7z M253.8,407.9v-21.3 M253.8,378.7v-9.8h15.5c0,11.7,0,27.1,0,38.9
			c0,1.5-1.5,2.2-3.3,2.2c-2.4,0-5.9,0-8.4,0c-2.8,0.1-3.7-0.4-3.8-2.2"/>
		<path class="st5" d="M275,407.9V369h15.5c0,11.7,0,27.2,0,38.9c0,1.6-1.4,2.3-3.2,2.3c-2.3,0-5.9,0-8.5,0
			C275.9,410.4,275.2,409.9,275,407.9L275,407.9z"/>
		<polygon class="st5" points="135.3,361.5 135.3,343.8 298.4,343.8 298.4,361.5 		"/>
		<path class="st5" d="M135.6,336V203.4c45.7-14.6,118.4-14.6,162.8,0V336L135.6,336L135.6,336z"/>
	</g>
</g>
</svg>
