<?xml version="1.0" encoding="utf-8"?>
<!-- Generator: Adobe Illustrator 19.2.0, SVG Export Plug-In . SVG Version: 6.00 Build 0)  -->
<svg version="1.1" id="Livello_1" xmlns="http://www.w3.org/2000/svg" xmlns:xlink="http://www.w3.org/1999/xlink" x="0px" y="0px"
	 viewBox="0 0 603.9 602.9" style="enable-background:new 0 0 603.9 602.9;" xml:space="preserve">
<style type="text/css">
	.st0{fill:#FFFFFF;stroke:#1A171B;stroke-width:1.8295;stroke-miterlimit:2.6131;}
	.st1{fill:#E1001A;}
	.st2{fill:#FFFFFF;}
	.st3{fill:#1A171B;stroke:#1A171B;stroke-width:1.3597;stroke-miterlimit:2.6131;}
	.st4{fill:#FFFFFF;stroke:#1A171B;stroke-width:1.3597;stroke-miterlimit:2.6131;}
</style>
<g>
	<g>
		<path class="st0" d="M301.9,1.4c165.2,0,300,134.8,300,300s-134.8,300-300,300s-300-134.8-300-300S136.7,1.4,301.9,1.4L301.9,1.4z
			"/>
		<path class="st1" d="M302.8,17.6c155.9,0,283.1,127.2,283.1,283.1S458.7,583.8,302.8,583.8S19.7,456.6,19.7,300.7
			C19.6,144.8,146.8,17.6,302.8,17.6L302.8,17.6z"/>
		<path class="st2" d="M302.8,90.1c116.1,0,210.7,94.7,210.7,210.7s-94.7,210.7-210.7,210.7c-116.1,0-210.7-94.7-210.7-210.7
			S186.7,90.1,302.8,90.1L302.8,90.1z"/>
		<path class="st3" d="M304.7,291.4l1.9-50.9c-0.2-3.6,1.9-5.6,6.1-5.4l29.9,0.8l-5.7-17.4c-8.6,3.4-16.1,6.7-24.7,10
			c-5.9,1.5-10-9.8-3.6-12.6l46.3-22.2c4.4-1.5,13.6,1.7,14,7.9l-3.1,44.8c0.2,3.1-4.8,5-7.8,5.2l-37-1.3l-1.9,41.4
			C319.1,299.7,304.7,298.5,304.7,291.4L304.7,291.4z"/>
		<path class="st3" d="M190.5,400.4c-2-0.8-1.6-4.4-0.4-6l6.8-6.4c-7.6-21.2-10.4-33.3-20-43.7c-7.6,2-10.4,3.2-21.2,10.4
			c1.6,7.2,7.6,27.2,12.4,24.8l3.6,2.8c-3.2,5.2-6.4,10-11.2,16c-7.6-4.4-1.6-3-6-13.4c-2-4.8-6-11.8-7.2-20.2
			c-2-5.2-2.8-12-2.4-13.6c0-4.4,11.6-17.2,20.8-24.8c1.6-3.6-2.8-10.4,0-13.6c0,0-1.6-3.2-1.2-4c-7.2-10.8-17.6-32.9-20.8-32.9
			c-2.8,0-4.4,5.6-6.8,8.4c-2.4,4.8-0.4,5.2-0.4,8.8c0,0.4-1.6,5.2-2.4,7.2c-2.8,2.4-4,2.4-7.6,2.8l-8-5.6c-1.2-2.8-2.4-8.8-2-13.2
			c1.2-10.4-1.6-23.2,0.4-32.1c0.4-2,4.8-2.8,6.4-4.8c3.6-4.8-0.4-11.6-2-13.6c5.2,0.4,8,3.6,10.8,8c6-1.6,11.6-1.2,18,1.6
			c16.4,6,29.2,30,45.3,36.1c17.6,3.6,43.5-1.2,68.3,0c16.4,3,9.8,8.4,25.4,14c4.2,4.2,9.6,9.6,12,16.8c1.6,4.8,2.4,8.4,3.6,13.6
			l30.8,0.8l-9.2-39.3l0.8-27.6l153,7.6l-14,64.9l22.8,1.2l-0.8,12.8l-40.5-1.4c0.4,2,0.6,4.2,0.6,6.4c0,28-22.8,50.9-50.9,50.9
			c-28,0-50.9-22.8-50.9-50.9c0-3.2,0.2-6.6,0.8-9.8l-37.9-1.2c-0.8,6.4,8,12,12.8,16.4c0.4,3.6-1.2,7.2-3.6,7.6
			c-1.6-0.8-4.8-0.8-7.6-3.2l-6-7.2c-4.8-4.8-5.6-8.8-7.2-13.6l-12.8-0.4c3.2,4.4,4.8,9.2,11.2,15.2c2.8,7.6,0,17.6,4.4,27.6
			c0,3.2-1.6,8.8-2,14c0,0,1.6,6,0,5.2c-4.4,0.8-8.4,1-14.4,0.4c-1.6-4.4,0.8-8,5.6-11.6c1.6-1.2,1.2-4.4,1.6-6.8
			c0-4.4-4.6-13.8-4.6-19.8c-3.2-7.6-12.6-7.4-17.4-18.2c-2.8-1.2-4.4-1.6-5.2,2c-0.8,4.4-2.8,7.2-4.4,13.6
			c-2.4,6.4-13.6,12.4-18.4,23.6c0,0.8-4.4,4.4-5.2,5.6l1.6,4c-4.8,1.6-7.6,2.8-13.6,4.4l-0.4-6.4c4.8-6,7.6-13.2,15.2-22.4
			c2.8-6,10.8-16,7.2-25.6c-2-0.4-3.2-4.4-6.8-4c-12.4,2.8-36.9,2-42.5-0.4c0,16.4,6.4,36.1,8,47.7c0,0.4-0.8,4.4-0.8,6.4
			s1.6,5.2,1.2,7.2L190.5,400.4L190.5,400.4z"/>
		<path class="st4" d="M412.3,341.9l25.6,0.4c0.2,1.4,0.4,5,0.4,7c0,22.4-18.4,40.9-40.9,40.9c-22.4,0-40.9-18.4-40.9-40.9
			c0-3,0-5.8,0.4-9.4l26.4,1.2c-1.4,2.4-2,5.2-2,8.2c0,8.8,7.2,16,16,16s16-7.2,16-16C413.5,346.7,412.1,344.1,412.3,341.9
			L412.3,341.9z"/>
		<path class="st3" d="M354,164c7.2,0,13,5.8,13,13s-5.9,13-13,13c-7.2,0-13-5.8-13-13C341,169.9,346.8,164,354,164L354,164z"/>
		<path class="st4" d="M282.5,323.2c-0.8-4.2-1-10.9-2.7-17.8c0.2,0.8,6.7,2.7,7.1,3.1c2.5,2.3,6.9,6.1,7.3,14.5L282.5,323.2
			L282.5,323.2z"/>
	</g>
</g>
</svg>
