<?xml version="1.0" encoding="utf-8"?>
<!-- Generator: Adobe Illustrator 19.2.0, SVG Export Plug-In . SVG Version: 6.00 Build 0)  -->
<svg version="1.1" id="Livello_1" xmlns="http://www.w3.org/2000/svg" xmlns:xlink="http://www.w3.org/1999/xlink" x="0px" y="0px"
	 viewBox="0 0 605 604.5" style="enable-background:new 0 0 605 604.5;" xml:space="preserve">
<style type="text/css">
	.st0{fill:#FFFFFF;stroke:#1A171B;stroke-width:1.8295;stroke-miterlimit:2.6131;}
	.st1{fill:#E1001A;}
	.st2{fill:#FFFFFF;}
	.st3{fill:#1A171B;stroke:#1A171B;stroke-width:3.6259;stroke-miterlimit:2.6131;}
	.st4{fill:#1A171B;stroke:#1A171B;stroke-width:1.3597;stroke-miterlimit:2.6131;}
</style>
<g>
	<g>
		<path class="st0" d="M302,2.5c165.2,0,300,134.8,300,300s-134.8,300-300,300S2,467.7,2,302.5S136.8,2.5,302,2.5L302,2.5z"/>
		<path class="st1" d="M302.9,18.7C458.8,18.7,586,145.9,586,301.8S458.8,584.9,302.9,584.9S19.8,457.7,19.8,301.8
			C19.7,145.9,146.9,18.7,302.9,18.7L302.9,18.7z"/>
		<path class="st2" d="M302.9,91.2c116.1,0,210.7,94.7,210.7,210.7s-94.7,210.7-210.7,210.7c-116.1,0-210.7-94.7-210.7-210.7
			S186.8,91.2,302.9,91.2L302.9,91.2z"/>
		<path class="st3" d="M210.1,438.3l73.6-155.1l-8.9-33.9L240.4,288c-11.5,16.1-33.9-1.9-20.9-17.1l62.3-72.8
			c3.4-2.9,5.3-4.6,11.5-7.7l24.8-8.9c3.1,0.2,6-0.2,9.1,2.9l51.4,53.4c3.1,3.1,4.1,8.4,4.1,11.3c0,15.9,0,24.3,0,40.1
			c0,14.2-24.8,14.2-24.8,0l-1.4-34.9l-19.9-20.4l-6.7,46.6l57.7,154.1c7.7,22.6-22.8,32-29.3,10.3l-51-138.2L240,447.6
			C230.3,466.7,205.5,452.5,210.1,438.3L210.1,438.3z"/>
		<path class="st4" d="M300.7,128c12.8,0,23.2,10.4,23.2,23.2s-10.4,23.2-23.2,23.2c-12.8,0-23.2-10.4-23.2-23.2
			S287.9,128,300.7,128L300.7,128z"/>
	</g>
</g>
</svg>
