<?xml version="1.0" encoding="utf-8"?>
<!-- Generator: Adobe Illustrator 19.2.0, SVG Export Plug-In . SVG Version: 6.00 Build 0)  -->
<svg version="1.1" id="Livello_1" xmlns="http://www.w3.org/2000/svg" xmlns:xlink="http://www.w3.org/1999/xlink" x="0px" y="0px"
	 viewBox="0 0 604.2 603.5" style="enable-background:new 0 0 604.2 603.5;" xml:space="preserve">
<style type="text/css">
	.st0{fill:#FFFFFF;stroke:#1A171B;stroke-width:1.8295;stroke-miterlimit:2.6131;}
	.st1{fill:#E1001A;}
	.st2{fill:#FFFFFF;}
	.st3{fill:#1A171B;stroke:#1A171B;stroke-width:1.3597;stroke-miterlimit:2.6131;}
</style>
<path class="st0" d="M302,1.7c165.2,0,300,134.8,300,300s-134.8,300-300,300S2,466.9,2,301.7S136.8,1.7,302,1.7L302,1.7z"/>
<path class="st1" d="M302.9,17.9C458.8,17.9,586,145.1,586,301S458.8,584.1,302.9,584.1S19.8,456.9,19.8,301
	C19.7,145.1,146.9,17.9,302.9,17.9L302.9,17.9z"/>
<path class="st2" d="M302.9,90.4c116.1,0,210.7,94.7,210.7,210.7s-94.7,210.7-210.7,210.7c-116.1,0-210.7-94.7-210.7-210.7
	S186.8,90.4,302.9,90.4L302.9,90.4z"/>
<path class="st3" d="M416,270c-8.6,0-17.2,1.8-24.9,5l-16.7-27.6l10.4-19c5.4,0,10.9,3.6,16.5,3.6c4.1-0.5,4.7-16.5-1.4-16.5
	c-9.7,0-28.3-0.2-37.5-0.2c-4.5,1.4-4.3,6.1,2,8.1c3.8,0,6.3,1.6,9.9,1.6l-10.9,19.4l-118.7-0.2l5.2-9.5c-4.3-13.6-5.6-19,1.1-23.1
	h28.5c6.8-1.1,5.4-8.4,0-9.7h-29.8c-11.1,0-14.7,12-14.7,17.9l3.2,14.9l-23.5,41.1c-8.1-3.6-17.2-5.9-26.7-5.9
	c-36.2,0-65.6,29.4-65.6,65.1c0,36.2,29.4,65.6,65.6,65.6c35.7,0,65.1-29.4,65.1-65.6c0-22.2-11.3-42.1-28.5-53.8L235,264l64.7,60.6
	c-2.3,13.6,0.5,25.8,21.7,28.5c9.9-0.5,20.3-0.9,31.2-1.8c7.2,28.5,33,49.3,63.3,49.3c36.2,0,65.6-29.4,65.6-65.6
	C481.6,299.4,452.2,270,416,270z M241.1,335.8c0,29.6-24,53.6-53.6,53.6s-53.6-24-53.6-53.6s24-53.6,53.6-53.6
	c7.7,0,14.9,1.8,21.5,4.7l-20.8,36.6c-7.7,0.2-12,5.6-12,12.2s5.4,12,12,12s12.4-6.8,12-12c-0.5-5.2-2.5-7-2.5-7.2l21.3-36.6
	C232,301.9,241.1,318.4,241.1,335.8z M307.7,316.3l-63.8-60.6h113.3L326,312.9C320.8,310.9,312,312,307.7,316.3z M338.2,314.3
	l28.9-54.3l13.6,20.3c-12.9,7.2-20.6,17.2-26.7,35.5L338.2,314.3z M387.1,289.9c0,0,11.8,19.9,17.6,30.1
	c-13.1-0.7-38.4-2.5-38.4-2.7C371.3,304,376.3,297.9,387.1,289.9z M415.8,388.7c-39.6-2.9-49.5-38.7-49.5-38.7l49.5-4.1
	c6.8-0.7,11.8-4.3,12.2-6.8c0.5-4.1,3.4-14-8.1-17.9c-7-12.4-19.4-31.9-21.9-35.7c6.6-2.9,10.2-4.1,17.9-4.1
	c29.6,0,53.6,24,53.6,53.6C469.4,364.8,445.5,388.7,415.8,388.7z"/>
</svg>
