<?xml version="1.0" encoding="utf-8"?>
<!-- Generator: Adobe Illustrator 19.2.0, SVG Export Plug-In . SVG Version: 6.00 Build 0)  -->
<svg version="1.1" id="Livello_1" xmlns="http://www.w3.org/2000/svg" xmlns:xlink="http://www.w3.org/1999/xlink" x="0px" y="0px"
	 viewBox="0 0 605 603" style="enable-background:new 0 0 605 603;" xml:space="preserve">
<style type="text/css">
	.st0{fill:#FFFFFF;stroke:#1A171B;stroke-width:1.8295;stroke-miterlimit:2.6131;}
	.st1{fill:#E1001A;}
	.st2{fill:#FFFFFF;}
	.st3{fill:#1A171B;stroke:#1A171B;stroke-width:1.3597;stroke-miterlimit:2.6131;}
	.st4{fill:#FFFFFF;stroke:#1A171B;stroke-width:1.3597;stroke-miterlimit:2.6131;}
</style>
<g>
	<g>
		<path class="st0" d="M302,1.5c165.2,0,300,134.8,300,300s-134.8,300-300,300S2,466.7,2,301.5S136.8,1.5,302,1.5L302,1.5z"/>
		<path class="st1" d="M302.9,17.7C458.8,17.7,586,144.9,586,300.8S458.8,583.9,302.9,583.9S19.8,456.7,19.8,300.8
			C19.7,144.9,146.9,17.7,302.9,17.7L302.9,17.7z"/>
		<path class="st2" d="M302.9,90.2c116.1,0,210.7,94.7,210.7,210.7s-94.7,210.7-210.7,210.7c-116.1,0-210.7-94.7-210.7-210.7
			S186.8,90.2,302.9,90.2L302.9,90.2z"/>
		<path class="st3" d="M198.2,299.3c31,0,56.3,25.3,56.3,56.3s-25.3,56.3-56.3,56.3S142,386.6,142,355.6S167.2,299.3,198.2,299.3
			L198.2,299.3z"/>
		<path class="st3" d="M402.7,299.3c31,0,56.3,25.3,56.3,56.3s-25.3,56.3-56.3,56.3s-56.3-25.3-56.3-56.3S371.7,299.3,402.7,299.3
			L402.7,299.3z"/>
		<path class="st4" d="M198.2,317.6c20.9,0,38,17.1,38,38s-17.1,38-38,38s-38-17.1-38-38S177.3,317.6,198.2,317.6L198.2,317.6z"/>
		<path class="st4" d="M402.7,317.6c20.9,0,38,17.1,38,38s-17.1,38-38,38s-38-17.1-38-38S381.8,317.6,402.7,317.6L402.7,317.6z"/>
		<path class="st3" d="M306,389.9L272.6,327c-4.4-8.5-4.6-14.8,5-21.2l41-18.5l-32.8-24.7l-17.9,14c-1.8,2.2-6.5,3.9-11.8,4.2
			l-47.2,0.2c-14.4,0.4-13.7-21.8,0-22l41.7-0.2l53-42.4c4.4,0,10.3,1.3,13.1,4.2l38.2,58.5c5.9,6.8,6.3,17.3-1.7,20.9l-54.6,23.1
			l29.3,55C334.6,392.7,313.2,404.1,306,389.9L306,389.9z"/>
		<path class="st3" d="M257.9,241.7l-1.7-11.6l23.1-19l-3.1-17.5l-20.3,3.5c-5.7,2-4.8-2.6-4.6-6.8c1.5-17,17.7-27.7,31.9-24.9
			c14.2,2.8,20.7,16.2,22,23.4s1.7,14.9-3,17.3L257.9,241.7L257.9,241.7z"/>
	</g>
</g>
</svg>
