<?xml version="1.0" encoding="utf-8"?>
<!-- Generator: Adobe Illustrator 19.2.0, SVG Export Plug-In . SVG Version: 6.00 Build 0)  -->
<svg version="1.1" id="Livello_1" xmlns="http://www.w3.org/2000/svg" xmlns:xlink="http://www.w3.org/1999/xlink" x="0px" y="0px"
	 viewBox="0 0 604.8 604.9" style="enable-background:new 0 0 604.8 604.9;" xml:space="preserve">
<style type="text/css">
	.st0{fill:#FFFFFF;stroke:#1A171B;stroke-width:1.8295;stroke-miterlimit:2.6131;}
	.st1{fill:#E1001A;}
	.st2{fill:#FFFFFF;}
	.st3{fill:#1A171B;stroke:#1A171B;stroke-width:1.3597;stroke-miterlimit:2.6131;}
</style>
<path class="st0" d="M301.8,2.5c165.2,0,300,134.8,300,300s-134.8,300-300,300s-300-134.8-300-300S136.6,2.5,301.8,2.5L301.8,2.5z"
	/>
<path class="st1" d="M302.7,18.7c155.9,0,283.1,127.2,283.1,283.1S458.6,584.9,302.7,584.9S19.6,457.7,19.6,301.8
	C19.5,145.9,146.7,18.7,302.7,18.7L302.7,18.7z"/>
<path class="st2" d="M302.7,91.2c116.1,0,210.7,94.7,210.7,210.7s-94.7,210.7-210.7,210.7C186.6,512.6,92,417.9,92,301.9
	S186.6,91.2,302.7,91.2L302.7,91.2z"/>
<path class="st3" d="M408.5,365.7l-21.4-41.4c-3.1-4.4-3.1-9.3,0-13.6l28-27.3l-17-26.4c-7,8.4-13.2,15.9-20,24.2
	c-6.6,4.9-17.6-5.5-12.6-12.8c10.8-14.7,20.3-27.8,31.3-42.7c6.6-8.2,8.4-10.3,20.5-10.4c5.5,1.5,11.2,5.7,13.2,10.1l9.5,54.9
	l37,75.8c4,7.7-10.1,17.2-16.1,8.2l-34.6-62.4l-19.4,17.9c6.2,12.1,12.4,24.4,18.7,36.6C429.6,365.2,411.2,371.8,408.5,365.7
	L408.5,365.7z"/>
<path class="st3" d="M403.3,178.1c9.2,0,16.7,7.5,16.7,16.7s-7.5,16.7-16.7,16.7s-16.7-7.5-16.7-16.7S394.1,178.1,403.3,178.1
	L403.3,178.1z"/>
<path class="st3" d="M361.9,288.6l-2-14.6l-105.6,16.2c-9.1-10.6-22.5-17.7-37-17.7c-19.7,0-37,12.6-44.5,29.9l-56,7.9l2,14.6
	l50.8-7.9c0,1.2,0,2,0,3.2c0,26,21.3,47.3,47.7,47.3c26,0,47.3-21.3,47.3-47.3c0-5.9-1.2-11.4-3.2-16.5l26.2-3.9l30.5,22.9l4.5,29.4
	l7.5-1l-8.3-56.3L361.9,288.6z M217.1,283.9c8.9,0,27,9.1,22.1,9.5c-3.4,0.4-52,8.1-51.8,7.5C193.3,290.8,204.1,283.9,217.1,283.9z
	 M217.1,356.4c-19.9,0-36.2-16.3-36.2-36.2l0.6-4.3l26.2-3.9c0.6,0-3,4.7-3,8.3c0,6.9,5.5,12.4,12.4,12.4s12.4-5.5,12.4-12.4
	c0-4.9-3.9-10.1-7.1-11.2l26.8-3.5c0.4,0,4.1,9.5,4.1,14.8C253.4,340.1,237,356.4,217.1,356.4z M298.9,298.1l15.4-2.4l2.4,16.2
	L298.9,298.1z"/>
</svg>
