<?xml version="1.0" encoding="utf-8"?>
<!-- Generator: Adobe Illustrator 19.2.0, SVG Export Plug-In . SVG Version: 6.00 Build 0)  -->
<svg version="1.1" id="Livello_1" xmlns="http://www.w3.org/2000/svg" xmlns:xlink="http://www.w3.org/1999/xlink" x="0px" y="0px"
	 viewBox="0 0 603.4 604" style="enable-background:new 0 0 603.4 604;" xml:space="preserve">
<style type="text/css">
	.st0{fill:#FFFFFF;stroke:#1A171B;stroke-width:1.8295;stroke-miterlimit:2.6131;}
	.st1{fill:#E1001A;}
	.st2{fill:#FFFFFF;}
	.st3{fill:#1A171B;stroke:#1A171B;stroke-width:3.6259;stroke-miterlimit:2.6131;}
	.st4{fill:#FFFFFF;stroke:#FFFFFF;stroke-width:4.5324;stroke-miterlimit:2.6131;}
</style>
<g>
	<g>
		<path class="st0" d="M301,1.5c165.2,0,300,134.8,300,300s-134.8,300-300,300S1,466.7,1,301.5S135.8,1.5,301,1.5L301,1.5z"/>
		<path class="st1" d="M301.9,17.7C457.8,17.7,585,144.9,585,300.8S457.8,583.9,301.9,583.9S18.8,456.7,18.8,300.8
			C18.7,144.9,145.9,17.7,301.9,17.7L301.9,17.7z"/>
		<path class="st2" d="M301.9,90.2c116.1,0,210.7,94.7,210.7,210.7s-94.7,210.7-210.7,210.7c-116.1,0-210.7-94.7-210.7-210.7
			S185.8,90.2,301.9,90.2L301.9,90.2z"/>
		<path class="st3" d="M180.8,397.2v-28.4h40.3v29.3c0,4.8-4.8,6.3-9.9,6.3l-21.2-0.3C182.6,404.4,180.8,402.3,180.8,397.2
			L180.8,397.2z"/>
		<path class="st3" d="M383.8,397.2v-28.4h40.6l-0.3,29.3c0,4.8-4.8,6.3-9.9,6.3l-22.1-0.3C385.9,404.4,383.2,402.3,383.8,397.2
			L383.8,397.2z"/>
		<path class="st3" d="M171,361.9c-8.7,0-8.7-14.6-0.3-14.6h265.6c8.1,0,8.4,14.6-0.3,14.6H171L171,361.9z"/>
		<path class="st3" d="M188,273.2l17.3-60c4.8-6.6,9.9-10.2,16.1-11.6c54.1-8.1,108.1-8.1,163.7,0.3c6.9,1.2,11.6,6.3,16.4,12.8
			l16.4,57.4l-14.6-3.3l-13.1-45.7c-1.5-5.1-4.8-6.6-9.9-9.9c-50.8-6.6-101.6-6.6-152.3,0c-6.6,1.2-8.1,2.7-11.4,8.1l-13.4,49
			L188,273.2L188,273.2z"/>
		<path class="st3" d="M184.3,339.8c-12.8,0-17.3-13.9-17.3-29.2c0-15.3,5.8-23.4,17.3-28.1c80.2-17.3,154.8-18.5,233.5-2.3
			c13,4.5,21.1,15.1,20.9,30.3c-0.2,15.3-2.3,28.1-13.9,28.8L184.3,339.8L184.3,339.8z"/>
		<path class="st4" d="M198.3,290.2c10.7,0,19.4,8.7,19.4,19.4c0,10.7-8.7,19.4-19.4,19.4c-10.7,0-19.4-8.7-19.4-19.4
			C179,298.9,187.7,290.2,198.3,290.2L198.3,290.2z"/>
		<path class="st4" d="M407.5,290.3c10.7,0,19.4,8.7,19.4,19.4c0,10.7-8.7,19.4-19.4,19.4s-19.4-8.7-19.4-19.4
			S396.8,290.3,407.5,290.3L407.5,290.3z"/>
	</g>
</g>
</svg>
