<?xml version="1.0" encoding="utf-8"?>
<!-- Generator: Adobe Illustrator 19.2.0, SVG Export Plug-In . SVG Version: 6.00 Build 0)  -->
<svg version="1.1" id="Livello_1" xmlns="http://www.w3.org/2000/svg" xmlns:xlink="http://www.w3.org/1999/xlink" x="0px" y="0px"
	 viewBox="0 0 605.3 605.2" style="enable-background:new 0 0 605.3 605.2;" xml:space="preserve">
<style type="text/css">
	.st0{fill:#FFFFFF;stroke:#1A171B;stroke-width:1.8295;stroke-miterlimit:2.6131;}
	.st1{fill:#E1001A;}
	.st2{fill:#FFFFFF;}
	.st3{fill:#1A171B;stroke:#1A171B;stroke-width:1.3597;stroke-miterlimit:2.6131;}
</style>
<path class="st0" d="M303,2.5c165.2,0,300,134.8,300,300s-134.8,300-300,300S3,467.7,3,302.5S137.8,2.5,303,2.5L303,2.5z"/>
<path class="st1" d="M303.9,18.7C459.8,18.7,587,145.9,587,301.8S459.8,584.9,303.9,584.9S20.8,457.7,20.8,301.8
	C20.7,145.9,147.9,18.7,303.9,18.7L303.9,18.7z"/>
<path class="st2" d="M303.9,91.2c116.1,0,210.7,94.7,210.7,210.7s-94.7,210.7-210.7,210.7c-116.1,0-210.7-94.7-210.7-210.7
	S187.8,91.2,303.9,91.2L303.9,91.2z"/>
<path class="st3" d="M116.1,342.7l8.3-43.2h366.3v30.8l-62.5,10c2.5-40.8-63-44.9-59.6,3.4H211.5c4.2-48.3-63-46.6-58.7-0.9
	L116.1,342.7L116.1,342.7z"/>
<path class="st3" d="M124.5,239.4l-0.2,54.2l32.7,0.2v-54.4L124.5,239.4L124.5,239.4z M148.6,284.3h-15.9v-35.7h15.9V284.3z"/>
<path class="st3" d="M490.6,285.3L480,239.4H163.5v54.2h327.3L490.6,285.3z M225.1,284.4h-50.8v-35.7l50.8-0.2V284.4z M286.7,284.4
	h-50.8v-35.7l50.8-0.2V284.4z M348.3,284.4h-50.8v-35.7l50.8-0.2V284.4z M409.9,284.4h-50.8v-35.7l50.8-0.2V284.4z M420.8,284.4
	v-35.7l50.8-0.2l8.3,35.9L420.8,284.4L420.8,284.4z"/>
<path class="st3" d="M181.9,313.6c-13.3,0-24.1,10.8-24.1,24.1c0,13.3,10.8,24.1,24.1,24.1c13.3,0,24.1-10.8,24.1-24.1
	C206.1,324.4,195.2,313.6,181.9,313.6z M181.9,348.5c-6,0-10.9-4.9-10.9-10.8c0-6,4.9-10.9,10.9-10.9s10.8,4.9,10.8,10.9
	C192.8,343.6,187.9,348.5,181.9,348.5z"/>
<path class="st3" d="M398.4,313.6c-13.3,0-24.1,10.8-24.1,24.1c0,13.3,10.8,24.1,24.1,24.1s24.1-10.8,24.1-24.1
	C422.5,324.4,411.7,313.6,398.4,313.6z M398.3,348.5c-6,0-10.9-4.9-10.9-10.8c0-6,4.9-10.9,10.9-10.9s10.8,4.9,10.8,10.9
	C409.2,343.6,404.3,348.5,398.3,348.5z"/>
</svg>
