<?xml version="1.0" encoding="utf-8"?>
<!-- Generator: Adobe Illustrator 19.2.0, SVG Export Plug-In . SVG Version: 6.00 Build 0)  -->
<svg version="1.1" id="Livello_1" xmlns="http://www.w3.org/2000/svg" xmlns:xlink="http://www.w3.org/1999/xlink" x="0px" y="0px"
	 viewBox="0 0 604.3 603.7" style="enable-background:new 0 0 604.3 603.7;" xml:space="preserve">
<style type="text/css">
	.st0{fill:#FFFFFF;stroke:#1A171B;stroke-width:1.8295;stroke-miterlimit:2.6131;}
	.st1{fill:#E1001A;}
	.st2{fill:#FFFFFF;}
	.st3{fill:#1A171B;stroke:#1A171B;stroke-width:1.3597;stroke-miterlimit:2.6131;}
	.st4{fill:#FFFFFF;stroke:#1A171B;stroke-width:1.3597;stroke-miterlimit:2.6131;}
</style>
<g>
	<g>
		<path class="st0" d="M302.1,1.9c165.2,0,300,134.8,300,300s-134.8,300-300,300s-300-134.8-300-300S136.9,1.9,302.1,1.9L302.1,1.9z
			"/>
		<path class="st1" d="M303,18.1c155.9,0,283.1,127.2,283.1,283.1S458.9,584.3,303,584.3S19.9,457.1,19.9,301.2
			C19.8,145.3,147,18.1,303,18.1L303,18.1z"/>
		<path class="st2" d="M303,90.6c116.1,0,210.7,94.7,210.7,210.7S419,512,303,512c-116.1,0-210.7-94.7-210.7-210.7
			S186.9,90.6,303,90.6L303,90.6z"/>
		<path class="st3" d="M127,359.6V296l21.2-54.4h58.4v89.6h161.6c-8.8,3.2-15.3,15.3-16.2,28.5H206.7c-2.1-46.6-67.4-46.4-69,0H127
			V359.6z"/>
		<path class="st3" d="M403.8,331.1h53.7v13l-37.4,14.3C420.8,346.8,412,334.2,403.8,331.1L403.8,331.1z"/>
		<polygon class="st3" points="214.1,323.6 214.1,202.7 457.4,202.7 457.6,323.8 		"/>
		<polygon class="st4" points="141,288.9 154.3,253.6 197.9,253.6 197.9,288.9 		"/>
		<path class="st3" d="M172.4,331.4c15.6,0,28.3,12.7,28.3,28.3S188,388,172.4,388c-15.6,0-28.3-12.7-28.3-28.3
			C144.1,344.2,156.8,331.4,172.4,331.4L172.4,331.4z"/>
		<path class="st3" d="M386.3,331.4c15.6,0,28.3,12.7,28.3,28.3S401.9,388,386.3,388S358,375.3,358,359.7
			C358,344.2,370.7,331.4,386.3,331.4L386.3,331.4z"/>
		<path class="st4" d="M172.4,346.2c7.5,0,13.6,6.1,13.6,13.6s-6.1,13.6-13.6,13.6s-13.6-6.1-13.6-13.6
			C158.8,352.3,164.9,346.2,172.4,346.2L172.4,346.2z"/>
		<path class="st4" d="M386.3,346.2c7.5,0,13.6,6.1,13.6,13.6s-6.1,13.6-13.6,13.6s-13.6-6.1-13.6-13.6
			C372.7,352.3,378.8,346.2,386.3,346.2L386.3,346.2z"/>
	</g>
</g>
</svg>
