<?xml version="1.0" encoding="utf-8"?>
<!-- Generator: Adobe Illustrator 19.2.0, SVG Export Plug-In . SVG Version: 6.00 Build 0)  -->
<svg version="1.1" id="Livello_1" xmlns="http://www.w3.org/2000/svg" xmlns:xlink="http://www.w3.org/1999/xlink" x="0px" y="0px"
	 viewBox="0 0 604.9 604.9" style="enable-background:new 0 0 604.9 604.9;" xml:space="preserve">
<style type="text/css">
	.st0{fill:#FFFFFF;stroke:#1A171B;stroke-width:1.8295;stroke-miterlimit:2.6131;}
	.st1{fill:#E1001A;}
	.st2{fill:#FFFFFF;}
	.st3{fill:#1A171B;stroke:#1A171B;stroke-width:1.3597;stroke-miterlimit:2.6131;}
	.st4{fill:#FFFFFF;stroke:#1A171B;stroke-width:1.3597;stroke-miterlimit:2.6131;}
</style>
<g>
	<g>
		<path class="st0" d="M301.9,2.5c165.2,0,300,134.8,300,300s-134.8,300-300,300s-300-134.8-300-300S136.7,2.5,301.9,2.5L301.9,2.5z
			"/>
		<path class="st1" d="M302.8,18.7c155.9,0,283.1,127.2,283.1,283.1S458.7,584.9,302.8,584.9S19.7,457.7,19.7,301.8
			C19.6,145.9,146.8,18.7,302.8,18.7L302.8,18.7z"/>
		<path class="st2" d="M302.8,91.2c116.1,0,210.7,94.7,210.7,210.7s-94.7,210.7-210.7,210.7c-116.1,0-210.7-94.7-210.7-210.7
			S186.7,91.2,302.8,91.2L302.8,91.2z"/>
		<path class="st2" d="M302.4,104.1c108.8,0,197.6,88.8,197.6,197.6s-88.8,197.6-197.6,197.6c-108.8-0.1-197.5-88.8-197.5-197.7
			S193.6,104.1,302.4,104.1L302.4,104.1z"/>
		<path class="st3" d="M169.1,337.5c16,0,29.1,13.1,29.1,29.1s-13.1,29.1-29.1,29.1S140,382.6,140,366.6S153.1,337.5,169.1,337.5
			L169.1,337.5z"/>
		<path class="st3" d="M384.5,337.5c16,0,29.1,13.1,29.1,29.1s-13.1,29.1-29.1,29.1s-29.1-13.1-29.1-29.1S368.5,337.5,384.5,337.5
			L384.5,337.5z"/>
		<path class="st4" d="M169.1,352.6c7.7,0,14,6.3,14,14s-6.3,14-14,14s-14-6.3-14-14C155.1,358.9,161.4,352.6,169.1,352.6
			L169.1,352.6z"/>
		<path class="st4" d="M384.5,352.6c7.7,0,14,6.3,14,14s-6.3,14-14,14s-14-6.3-14-14C370.5,358.9,376.8,352.6,384.5,352.6
			L384.5,352.6z"/>
		<path class="st3" d="M205,365.8c-0.2-10.8-6.3-23.4-16.1-28.3h55.7V366L205,365.8L205,365.8z"/>
		<path class="st3" d="M309.1,365.8v-28.3h56.6c-10,6.5-15.9,17.5-15.9,28.5L309.1,365.8L309.1,365.8z"/>
		<path class="st3" d="M476.3,206c14.9,28.1,23.5,59.8,23.5,93.8c0,10.4-0.4,21.3-2.3,31.3H107.7c-1.8-10-2.7-20.8-2.7-31.3
			c0-34,8.6-65.7,23.9-93.8h113.8v109.2h64.6V206H476.3L476.3,206z"/>
		<path class="st3" d="M109.1,338.4c1.8,10,4.5,19.5,7.7,28.6h15.4c0-11.8,5.4-20.9,15.4-28.6H109.1L109.1,338.4z"/>
		<path class="st3" d="M488.9,366.9c3.2-9.1,5.9-18.6,7.7-28.6h-94.3c7.7,4.1,16.8,16.8,16.8,28.6H488.9L488.9,366.9z"/>
	</g>
</g>
</svg>
