<?xml version="1.0" encoding="utf-8"?>
<!-- Generator: Adobe Illustrator 19.2.0, SVG Export Plug-In . SVG Version: 6.00 Build 0)  -->
<svg version="1.1" id="Livello_1" xmlns="http://www.w3.org/2000/svg" xmlns:xlink="http://www.w3.org/1999/xlink" x="0px" y="0px"
	 viewBox="0 0 606 604" style="enable-background:new 0 0 606 604;" xml:space="preserve">
<style type="text/css">
	.st0{fill:#FFFFFF;stroke:#1A171B;stroke-width:1.8295;stroke-miterlimit:2.6131;}
	.st1{fill:#E1001A;}
	.st2{fill:#FFFFFF;}
	.st3{fill:#1A171B;stroke:#1A171B;stroke-width:1.3597;stroke-miterlimit:2.6131;}
	.st4{fill:#1A171B;}
	.st5{fill:none;stroke:#1A171B;stroke-width:1.3597;stroke-miterlimit:2.6131;}
	.st6{fill:#ED7F00;stroke:#1A171B;stroke-width:1.3597;stroke-miterlimit:2.6131;}
</style>
<g>
	<g>
		<path class="st0" d="M303,2c165.2,0,300,134.8,300,300S468.2,602,303,602S3,467.2,3,302S137.8,2,303,2L303,2z"/>
		<path class="st1" d="M303.9,18.2C459.8,18.2,587,145.4,587,301.3S459.8,584.4,303.9,584.4S20.8,457.2,20.8,301.3
			C20.7,145.4,147.9,18.2,303.9,18.2L303.9,18.2z"/>
		<path class="st2" d="M303.9,90.7c116.1,0,210.7,94.7,210.7,210.7s-94.7,210.7-210.7,210.7c-116.1,0-210.7-94.7-210.7-210.7
			S187.8,90.7,303.9,90.7L303.9,90.7z"/>
		<path class="st3" d="M206.9,445.7V395h20.2c0,15.3,0,35.4,0,50.7c0,2.1-1.9,3-4.2,3c-3,0-7.7,0-11,0
			C208.1,449,207.1,448.3,206.9,445.7L206.9,445.7z"/>
		<path class="st4" d="M316.1,407.6c-1.7-5.4-6.9-9.1-13.1-9.1c-6,0-11.2,3.7-12.9,9.1H255c0-4.4,0-8.9,0-12.7h-20.1v50.6
			c0,2.3,1.2,3.1,5,3.1c3.1,0,7.7,0,10.8,0c2.3,0,4.2-1.2,4.2-3.1c0-8.3,0-17.9,0-27.6h35.5c2.1,5,6.9,8.5,12.5,8.5
			c5.8,0,10.6-3.5,12.7-8.5h35.5v-10.2L316.1,407.6L316.1,407.6z M351.2,445.7v-27.8V445.7L351.2,445.7z M351.2,407.6v-12.7h20.3
			c0,15.2,0,35.3,0,50.7c0,1.9-1.9,2.9-4.2,2.9c-3.1,0-7.7,0-11,0c-3.7,0.2-4.8-0.6-5-2.9L351.2,407.6L351.2,407.6z"/>
		<path class="st5" d="M316.1,407.6c-1.7-5.4-6.9-9.1-13.1-9.1c-6,0-11.2,3.7-12.9,9.1H255c0-4.4,0-8.9,0-12.7h-20.1v50.6
			c0,2.3,1.2,3.1,5,3.1c3.1,0,7.7,0,10.8,0c2.3,0,4.2-1.2,4.2-3.1c0-8.3,0-17.9,0-27.6h35.5c2.1,5,6.9,8.5,12.5,8.5
			c5.8,0,10.6-3.5,12.7-8.5h35.5v-10.2L316.1,407.6L316.1,407.6z M351.2,445.7v-27.8 M351.2,407.6v-12.7h20.3c0,15.2,0,35.3,0,50.7
			c0,1.9-1.9,2.9-4.2,2.9c-3.1,0-7.7,0-11,0c-3.7,0.2-4.8-0.6-5-2.9"/>
		<path class="st3" d="M379,445.7V395h20.2c0,15.3,0,35.4,0,50.7c0,2.1-1.9,3-4.2,3c-3.1,0-7.7,0-11,0
			C380.1,449,379.2,448.3,379,445.7L379,445.7z"/>
		<polygon class="st3" points="196.8,385.1 196.8,362.2 409.4,362.2 409.4,385.1 		"/>
		<path class="st3" d="M196.6,352l0.2-180c68.7-13.8,145.7-14.3,212.6,0v180H196.6L196.6,352z"/>
		<polygon class="st6" points="219.5,330.3 219.5,192.1 386.9,192.6 386.4,330.3 		"/>
	</g>
</g>
</svg>
