<?xml version="1.0" encoding="utf-8"?>
<!-- Generator: Adobe Illustrator 19.2.0, SVG Export Plug-In . SVG Version: 6.00 Build 0)  -->
<svg version="1.1" id="Livello_1" xmlns="http://www.w3.org/2000/svg" xmlns:xlink="http://www.w3.org/1999/xlink" x="0px" y="0px"
	 viewBox="0 0 605.1 605" style="enable-background:new 0 0 605.1 605;" xml:space="preserve">
<style type="text/css">
	.st0{fill:#FFFFFF;stroke:#1A171B;stroke-width:1.8295;stroke-miterlimit:2.6131;}
	.st1{fill:#E1001A;}
	.st2{fill:#FFFFFF;}
	.st3{fill:#1A171B;stroke:#1A171B;stroke-width:1.3597;stroke-miterlimit:2.6131;}
	.st4{fill:#FFFFFF;stroke:#1A171B;stroke-width:1.3597;stroke-miterlimit:2.6131;}
	.st5{fill:#ED7F00;stroke:#ED7F00;stroke-width:1.3597;stroke-miterlimit:2.6131;}
	.st6{fill:#FFEC00;stroke:#FFEC00;stroke-width:1.3597;stroke-miterlimit:2.6131;}
</style>
<g>
	<g>
		<path class="st0" d="M302.5,2.5c165.2,0,300,134.8,300,300s-134.8,300-300,300s-300-134.8-300-300S137.3,2.5,302.5,2.5L302.5,2.5z
			"/>
		<path class="st1" d="M303.4,18.7c155.9,0,283.1,127.2,283.1,283.1S459.3,584.9,303.4,584.9S20.3,457.7,20.3,301.8
			C20.2,145.9,147.4,18.7,303.4,18.7L303.4,18.7z"/>
		<path class="st2" d="M303.4,91.2c116.1,0,210.7,94.7,210.7,210.7s-94.7,210.7-210.7,210.7c-116.1,0-210.7-94.7-210.7-210.7
			S187.3,91.2,303.4,91.2L303.4,91.2z"/>
		<path class="st3" d="M220.4,457.7v-21.1h29.9v21.7c0,3.5-3.5,4.7-7.3,4.7l-15.7-0.2C221.8,463,220.4,461.5,220.4,457.7
			L220.4,457.7z"/>
		<path class="st3" d="M371,457.7v-21.1h30.1l-0.2,21.7c0,3.5-3.5,4.7-7.3,4.7l-16.4-0.2C372.6,463,370.6,461.5,371,457.7L371,457.7
			z"/>
		<path class="st3" d="M213.1,431.6c-6.4,0-6.4-10.9-0.2-10.9h197c6,0,6.2,10.9-0.2,10.9H213.1L213.1,431.6z"/>
		<path class="st3" d="M225.8,365.7l12.9-44.5c3.5-4.9,7.3-7.5,12-8.6c40.1-6,80.2-6,121.5,0.2c5.1,0.9,8.6,4.7,12.2,9.5l12.2,42.6
			l-10.9-2.4l-9.8-33.9c-1.1-3.8-3.5-4.9-7.3-7.3c-37.7-4.9-75.4-4.9-113,0c-4.9,0.9-6,2-8.4,6l-10,36.4L225.8,365.7L225.8,365.7z"
			/>
		<path class="st3" d="M223,415.1c-9.5,0-12.9-10.3-12.9-21.7c0-11.3,4.3-17.3,12.9-20.8c59.5-12.9,114.8-13.7,173.2-1.7
			c9.6,3.4,15.7,11.2,15.5,22.5c-0.1,11.3-1.7,20.8-10.3,21.4L223,415.1L223,415.1z"/>
		<path class="st4" d="M233.4,378.3c7.9,0,14.4,6.5,14.4,14.4s-6.5,14.4-14.4,14.4s-14.4-6.5-14.4-14.4
			C219.1,384.8,225.5,378.3,233.4,378.3L233.4,378.3z"/>
		<path class="st4" d="M388.6,378.4c7.9,0,14.4,6.5,14.4,14.4s-6.5,14.4-14.4,14.4s-14.4-6.5-14.4-14.4
			C374.3,384.8,380.7,378.4,388.6,378.4L388.6,378.4z"/>
		<path class="st5" d="M278.1,304.4l-87.4-89.5l64.7,25.4l-30.8-62l60.3,36.2l14.3-73.5l35,77l39.3-60.8l-9.1,48l40.6-30L366.1,246
			l43.5-18.5l-66,77C319.2,302.5,301.8,302.5,278.1,304.4L278.1,304.4z"/>
		<path class="st6" d="M292.1,303.6l-35.2-50.2l24.3,6l-18.6-43.5l32.8,28.4l13.2-43.4l17,44.4l32.3-24.2L337.7,267l20.2-4
			L324,303.6C309.2,303.2,305.8,303.2,292.1,303.6L292.1,303.6z"/>
	</g>
</g>
</svg>
