<?xml version="1.0" encoding="utf-8"?>
<!-- Generator: Adobe Illustrator 19.2.0, SVG Export Plug-In . SVG Version: 6.00 Build 0)  -->
<svg version="1.1" id="Livello_1" xmlns="http://www.w3.org/2000/svg" xmlns:xlink="http://www.w3.org/1999/xlink" x="0px" y="0px"
	 viewBox="0 0 602.8 603.5" style="enable-background:new 0 0 602.8 603.5;" xml:space="preserve">
<style type="text/css">
	.st0{fill:#FFFFFF;stroke:#1A171B;stroke-width:1.8295;stroke-miterlimit:2.6131;}
	.st1{fill:#E1001A;}
	.st2{fill:#1A171B;stroke:#1A171B;stroke-width:1.3597;stroke-miterlimit:2.6131;}
	.st3{fill:#1A171B;}
	.st4{fill:none;stroke:#1A171B;stroke-width:1.3597;stroke-miterlimit:2.6131;}
	.st5{fill:#5288C1;stroke:#5288C1;stroke-width:1.3597;stroke-miterlimit:2.6131;}
	.st6{fill:#ED7F00;stroke:#ED7F00;stroke-width:1.3597;stroke-miterlimit:2.6131;}
</style>
<g>
	<g>
		<path class="st0" d="M301,1.5c165.2,0,300,134.8,300,300s-134.8,300-300,300S1,466.7,1,301.5S135.8,1.5,301,1.5L301,1.5z"/>
		<path class="st1" d="M301.9,17.7C146,17.7,18.8,144.9,18.8,300.8S146,583.9,301.9,583.9S585,456.7,585,300.8
			S457.8,17.7,301.9,17.7z M301.9,511.6c-116.1,0-210.7-94.7-210.7-210.7S185.9,90.2,301.9,90.2c116.1,0,210.7,94.7,210.7,210.7
			S417.9,511.6,301.9,511.6z"/>
		<path class="st2" d="M197.7,388.5v-53.3H219c0,16,0,37.3,0,53.3c0,2.2-2,3.2-4.5,3.2c-3.2,0-8.2,0-11.7,0
			C198.9,392,197.9,391.2,197.7,388.5L197.7,388.5z"/>
		<path class="st3" d="M313.2,348.5c-1.8-5.7-7.4-9.5-13.9-9.5c-6.3,0-11.8,3.9-13.7,9.5h-37.1c0-4.7,0-9.3,0-13.4h-21.2v53.2
			c0,2.4,1.2,3.3,5.3,3.3c3.3,0,8.2,0,11.4,0c2.4,0,4.5-1.2,4.5-3.3c0-8.7,0-18.9,0-29H286c2.2,5.3,7.3,8.9,13.3,8.9
			c6.1,0,11.2-3.7,13.5-8.9h37.6v-10.8L313.2,348.5L313.2,348.5z M350.3,388.5v-29.2V388.5L350.3,388.5z M350.3,348.5v-13.4h21.4
			c0,16,0,37.1,0,53.4c0,2-2,3-4.5,3c-3.3,0-8.2,0-11.6,0c-3.9,0.2-5.1-0.6-5.3-3L350.3,348.5L350.3,348.5z"/>
		<path class="st4" d="M313.2,348.5c-1.8-5.7-7.4-9.5-13.9-9.5c-6.3,0-11.8,3.9-13.7,9.5h-37.1c0-4.7,0-9.3,0-13.4h-21.2v53.2
			c0,2.4,1.2,3.3,5.3,3.3c3.3,0,8.2,0,11.4,0c2.4,0,4.5-1.2,4.5-3.3c0-8.7,0-18.9,0-29H286c2.2,5.3,7.3,8.9,13.3,8.9
			c6.1,0,11.2-3.7,13.5-8.9h37.6v-10.8L313.2,348.5L313.2,348.5z M350.3,388.5v-29.2 M350.3,348.5v-13.4h21.4c0,16,0,37.1,0,53.4
			c0,2-2,3-4.5,3c-3.3,0-8.2,0-11.6,0c-3.9,0.2-5.1-0.6-5.3-3"/>
		<path class="st2" d="M379.7,388.5v-53.3H401c0,16,0,37.3,0,53.3c0,2.2-2,3.2-4.5,3.2c-3.2,0-8.2,0-11.7,0
			C380.9,392,379.9,391.2,379.7,388.5L379.7,388.5z"/>
		<path class="st5" d="M263,431.7c-16-0.2-22.6-15.4-36.9-15.4s-26.3,13.5-36.5,15.4v-9.2c11.1-2.8,18.3-14.3,36.5-14.3
			s22.6,14.3,36.7,14.3s19.4-14.3,36.7-14.3s22.4,14.3,36.7,14.3s20.3-14.3,37.6-14.3s28.6,10.2,35.8,14.3v9.2
			c-6-3.2-23.5-15.4-34.6-15.4s-24.5,15.4-38.8,15.2s-25.6-15.2-36.7-15.2C288.4,416.2,279,431.8,263,431.7L263,431.7z"/>
		<path class="st5" d="M263,452.1c-16-0.2-22.6-15.4-36.9-15.4s-26.3,13.6-36.5,15.4v-9.2c11.1-2.8,18.3-14.3,36.5-14.3
			s22.6,14.3,36.7,14.3s19.4-14.3,36.7-14.3s22.4,14.3,36.7,14.3s20.3-14.3,37.6-14.3s28.6,10.2,35.8,14.3v9.2
			c-6-3.2-23.5-15.4-34.6-15.4s-24.5,15.4-38.8,15.2s-25.6-15.2-36.7-15.2C288.4,436.6,279,452.3,263,452.1L263,452.1z"/>
		<polygon class="st2" points="189.6,327.1 189.4,303.8 409.4,303.8 409.4,327.1 		"/>
		<polygon class="st2" points="189.6,290.4 189.6,269.9 409.4,269.9 409.4,290.4 		"/>
		<path class="st2" d="M299.5,128.4c-67.2,0-110,18.3-110,67.2s42.8,67.2,110,67.2s110-18.3,110-67.2
			C409.5,146.7,366.8,128.4,299.5,128.4z M391,223.9c-16.1,22-48.7,26.2-73.8,27.9c-28.3,1.2-59.7,0.8-86.2-10.2
			c-14.7-6.7-24.9-15.8-29.3-31.7c-3.5-16.7-1.7-34.2,10-47.3c15.1-15.7,38.3-20,59.2-22.4c20.6-1.8,41.8-1.8,62.3,0.6l5.6,0.7
			c22.6,4.3,46.5,10.6,56.4,33.7C401.3,190.5,400,210.2,391,223.9z"/>
		<path class="st6" d="M299.5,147.7c54.8,0,89.6,13.1,89.6,47.9s-34.8,47.9-89.6,47.9s-89.6-13.1-89.6-47.9
			C209.9,160.8,244.7,147.7,299.5,147.7L299.5,147.7z"/>
	</g>
</g>
</svg>
