<?xml version="1.0" encoding="utf-8"?>
<!-- Generator: Adobe Illustrator 19.2.0, SVG Export Plug-In . SVG Version: 6.00 Build 0)  -->
<svg version="1.1" id="Livello_1" xmlns="http://www.w3.org/2000/svg" xmlns:xlink="http://www.w3.org/1999/xlink" x="0px" y="0px"
	 viewBox="0 0 604.5 604.6" style="enable-background:new 0 0 604.5 604.6;" xml:space="preserve">
<style type="text/css">
	.st0{fill:#FFFFFF;stroke:#1A171B;stroke-width:1.8295;stroke-miterlimit:2.6131;}
	.st1{fill:#E1001A;}
	.st2{fill:#FFFFFF;}
	.st3{fill:#1A171B;stroke:#1A171B;stroke-width:3.6259;stroke-miterlimit:2.6131;}
	.st4{fill:#1A171B;}
</style>
<g>
	<g>
		<path class="st0" d="M302.2,2.3c165.2,0,300,134.8,300,300s-134.8,300-300,300s-300-134.8-300-300S137,2.3,302.2,2.3L302.2,2.3z"
			/>
		<path class="st1" d="M303.1,18.5c155.9,0,283.1,127.2,283.1,283.1S459,584.7,303.1,584.7S20,457.5,20,301.6
			C19.9,145.7,147.1,18.5,303.1,18.5L303.1,18.5z"/>
		<path class="st2" d="M303.1,91c116.1,0,210.7,94.7,210.7,210.7s-94.7,210.7-210.7,210.7c-116.1,0-210.7-94.7-210.7-210.7
			S187,91,303.1,91L303.1,91z"/>
		<path class="st3" d="M293.2,415.3c-2.4,0-4.7-2.4-1.3-4.2c3.6-0.5,6-3.1,5.6-5.8c-9.8-4.4-6.7-13.8-1.3-17.3
			C317.6,380.8,316.7,415.3,293.2,415.3L293.2,415.3z"/>
		<path class="st3" d="M173.7,400.9c0-14.4,0-20.2,0-35.9c26.2-45.4,66.9-76.5,66.9-119.5c0-33.5-33.3-33.5-35.9,0
			c-8.7,0-20.6,0-30.6,0c-0.4-76.5,100-76.5,100,0c0,55-38.3,86-59.8,119.5h59.8v35.9H173.7L173.7,400.9z"/>
		<path class="st3" d="M113.9,355.5c-8.6-35.5-10.2-74.1,0-110l59.8,55L113.9,355.5L113.9,355.5z"/>
		<path class="st3" d="M489.2,355.5l-57.4-55l57.4-55C499.1,279.7,500.7,321.3,489.2,355.5L489.2,355.5z"/>
		<path class="st4" d="M326.6,245.7l0.1-62.4H341v12.2c1.5-3.8,5.6-7.4,7.4-9c2.1-1.8,4.8-3,7.7-3s5.8,1.2,7.6,3
			c1.9,1.8,4.1,5.2,5.6,9c1.9-4,4.2-7.1,6.4-9c2.3-1.9,5-3,8-3c4.6,0,8.6,2.5,10.8,6.4s3.8,10.8,3.8,18.1v37.6h-14.1v-35.8
			c0-4.8-2.1-12.6-7.1-11c-5.1,1.5-7.4,11-7.4,15.6v31.3h-14.4v-35.8c0-4.8-0.8-12.2-5.7-11c-6.1,1.4-8.6,11-8.6,15.6v31.3h-14.4
			V245.7z"/>
		<path class="st4" d="M400.3,401c-8,0-14-4.1-17.8-12c-3.8-7.7-6-19.4-6-34.9c0-15.1,2.1-26.6,6-34.5c3.8-7.7,10-12,17.7-12
			c7.8,0,14.1,3.8,17.9,11.7c4,7.7,6.1,19.4,6.1,34.7c0,15.5-2.1,27.2-6,34.9c-3.8,7.8-10,11.7-18.1,11.7L400.3,401L400.3,401z"/>
		<path class="st2" d="M400.5,383.7c2.9,0,5.1-2.3,6.3-6.1c1.1-4.3,2-11.7,2-21.8c0-10.8-0.9-18.9-2-23.6c-1.3-4.6-3.6-7.3-6.6-7.3
			c-2.8,0-5.1,2.3-6.3,7c-1.4,4.6-2.1,12.4-2.1,22.8c0,10.8,0.7,18.7,2,22.5c1.1,4.3,3.4,6.6,6.4,6.6h0.3L400.5,383.7L400.5,383.7z"
			/>
		<path class="st4" d="M326.6,372.8h14.7c0,3.8,0.6,6.5,1.7,8.1c1.1,1.6,3.3,2.7,6,2.7c2.1,0,3.8-1.1,5-2.7c1.1-2,2-5,2-8.1
			c0-4.3-0.9-7.8-2.4-9.3c-1.6-2-4.1-3.1-7.7-3.1c-0.6,0-1.1,0-1.3,0c-0.4,0-0.9,0.4-1,0.4v-16c0.1,0,0.6,0,1,0s1,0,1,0
			c3,0,5.3-0.7,6.7-2.3c1.3-1.6,2.1-4.3,2.1-7.8c0-3-0.6-5.7-1.6-7.3c-1-1.6-2.6-2.7-4.4-2.7c-1.7,0-3.3,0.7-4.1,2.3
			c-0.8,1.6-1.4,3.8-1.4,6.1v0.9h-14.7v-1.1c0-8.1,1.7-14.8,5.3-18.7c3.4-4.3,9-6.5,15.9-6.5c6.6,0,11.7,2.3,15.1,6.3
			c3.6,4.1,5.3,10.8,5.3,18.5c0,5-1,9.3-2.6,12.4c-1.7,3.1-4.6,5.4-8.3,7c3.8,0.7,7.1,3.1,9.1,6.6c2,3.8,3.3,9,3.3,15.1
			c0,8.5-2.1,15.1-6,19.8c-3.8,4.7-9.7,7.4-16.9,7.4c-7.3,0-13-2.4-16.4-6.3c-3.4-3.8-5.4-10.8-5.4-19.4c0,0,0-0.7,0-1.1
			C326.6,373.5,326.6,372.8,326.6,372.8L326.6,372.8z"/>
	</g>
</g>
</svg>
