<?xml version="1.0" encoding="utf-8"?>
<!-- Generator: Adobe Illustrator 19.2.0, SVG Export Plug-In . SVG Version: 6.00 Build 0)  -->
<svg version="1.1" id="Livello_1" xmlns="http://www.w3.org/2000/svg" xmlns:xlink="http://www.w3.org/1999/xlink" x="0px" y="0px"
	 viewBox="0 0 605 605" style="enable-background:new 0 0 605 605;" xml:space="preserve">
<style type="text/css">
	.st0{fill:#FFFFFF;stroke:#1A171B;stroke-width:1.8295;stroke-miterlimit:2.6131;}
	.st1{fill:#E1001A;}
	.st2{fill:#1A171B;stroke:#1A171B;stroke-width:1.3597;stroke-miterlimit:2.6131;}
</style>
<g>
	<path class="st0" d="M302.5,2.5c165.2,0,300,134.8,300,300s-134.8,300-300,300s-300-134.8-300-300S137.3,2.5,302.5,2.5L302.5,2.5z"
		/>
	<path class="st1" d="M303.4,18.7c-155.9,0-283.1,127.2-283.1,283.1s127.2,283.1,283.1,283.1s283.1-127.2,283.1-283.1
		S459.3,18.7,303.4,18.7z M303.4,512.6c-116.1,0-210.7-94.7-210.7-210.7S187.4,91.2,303.4,91.2c116.1,0,210.7,94.7,210.7,210.7
		S419.4,512.6,303.4,512.6z"/>
	<path class="st2" d="M397.5,283.2h46.3v11.2l-32.3,12.4C412.2,296.7,404.6,285.9,397.5,283.2L397.5,283.2z"/>
	<polygon class="st2" points="233.9,276.8 233.9,172.5 443.9,172.5 444,277 	"/>
	<path class="st2" d="M227.5,283.2v-77.3h-50.4l-18.3,47v54.9h9.2c1.3-40,57.7-40.2,59.5,0h125.4c0.8-11.4,6.4-21.8,14-24.6H227.5z
		 M219.9,246.8h-49.1l11.5-30.5h37.6V246.8z"/>
	<path class="st2" d="M197.9,283.5c-13.5,0-24.4,11-24.4,24.4c0,13.5,11,24.4,24.4,24.4c13.5,0,24.4-11,24.4-24.4
		C222.4,294.5,211.4,283.5,197.9,283.5z M198,319.7c-6.5,0-11.7-5.3-11.7-11.7c0-6.5,5.3-11.7,11.7-11.7s11.7,5.3,11.7,11.7
		C209.7,314.5,204.4,319.7,198,319.7z"/>
	<path class="st2" d="M382.5,283.5c-13.5,0-24.4,11-24.4,24.4c0,13.5,11,24.4,24.4,24.4c13.5,0,24.4-11,24.4-24.4
		S395.9,283.5,382.5,283.5z M382.5,319.7c-6.5,0-11.7-5.3-11.7-11.7c0-6.5,5.3-11.7,11.7-11.7c6.5,0,11.7,5.3,11.7,11.7
		C394.2,314.5,388.9,319.7,382.5,319.7z"/>
	<path class="st2" d="M300.7,370.5c-3.2-5.7-8.3-8.5-14.8-8.5c-6.4,0-11.5,3.1-14.8,8.7c-3.2,5.7-4.9,14-4.9,24.9
		c0,11.2,1.7,19.7,4.9,25.3c3.3,5.7,8.2,8.7,14.9,8.7l-0.1-0.2c6.6,0,11.9-2.8,15.1-8.5c3.2-5.6,5-14,5-25.3
		C305.9,384.5,304.1,376,300.7,370.5z M291.4,412.5c-0.9,2.8-2.8,4.4-5.3,4.4H286c-2.6,0-4.5-1.6-5.5-4.7c-0.9-2.8-1.5-8.5-1.5-16.3
		c0-7.5,0.6-13.2,1.8-16.5c0.9-3.4,2.8-5.1,5.2-5.1c2.4,0,4.4,2,5.5,5.3c0.9,3.4,1.5,9.3,1.5,17.1
		C293,404.1,292.4,409.4,291.4,412.5z"/>
	<path class="st2" d="M240.1,428.2V385h-10.9v-11.7c5.2,0.3,10.3-3.4,12.1-10.1h10.9v65L240.1,428.2L240.1,428.2z"/>
	<path class="st2" d="M319.1,429.3l0.1-44.7h10.2v8.8c1.1-2.7,4-5.3,5.3-6.4c1.5-1.3,3.5-2.1,5.5-2.1s4.2,0.9,5.4,2.1
		c1.3,1.3,2.9,3.7,4,6.4c1.3-2.9,3-5.1,4.6-6.4s3.6-2.1,5.7-2.1c3.3,0,6.1,1.8,7.7,4.6c1.6,2.8,2.7,7.7,2.7,13v26.9h-10.1v-25.7
		c0-3.5-1.5-9-5.1-7.9s-5.3,7.9-5.3,11.2v22.4h-10.3v-25.7c0-3.5-0.6-8.8-4.1-7.9c-4.4,1-6.1,7.9-6.1,11.2v22.4L319.1,429.3
		L319.1,429.3z"/>
	<polygon class="st2" points="143.9,410.8 193.8,384.7 189.4,402.7 215,402.7 215,419.3 189.4,419.3 193.8,437 	"/>
	<polygon class="st2" points="461.2,410.8 411.3,436.9 415.7,418.9 390.1,418.9 390.1,402.3 415.7,402.3 411.3,384.6 	"/>
</g>
</svg>
