<?xml version="1.0" encoding="utf-8"?>
<!-- Generator: Adobe Illustrator 19.2.0, SVG Export Plug-In . SVG Version: 6.00 Build 0)  -->
<svg version="1.1" id="Livello_1" xmlns="http://www.w3.org/2000/svg" xmlns:xlink="http://www.w3.org/1999/xlink" x="0px" y="0px"
	 viewBox="0 0 605 605" style="enable-background:new 0 0 605 605;" xml:space="preserve">
<style type="text/css">
	.st0{fill:#FFFFFF;stroke:#1A171B;stroke-width:1.8295;stroke-miterlimit:2.6131;}
	.st1{fill:#E1001A;}
	.st2{fill:#FFFFFF;}
	.st3{fill:#1A171B;stroke:#1A171B;stroke-width:1.3597;stroke-miterlimit:2.6131;}
</style>
<g>
	<path class="st0" d="M302.5,2.5c165.2,0,300,134.8,300,300s-134.8,300-300,300s-300-134.8-300-300S137.3,2.5,302.5,2.5L302.5,2.5z"
		/>
	<path class="st1" d="M303.4,18.7c155.9,0,283.1,127.2,283.1,283.1S459.3,584.9,303.4,584.9S20.3,457.7,20.3,301.8
		C20.2,145.9,147.4,18.7,303.4,18.7L303.4,18.7z"/>
	<path class="st2" d="M303.4,91.2c116.1,0,210.7,94.7,210.7,210.7s-94.7,210.7-210.7,210.7c-116.1,0-210.7-94.7-210.7-210.7
		S187.3,91.2,303.4,91.2L303.4,91.2z"/>
	<path class="st3" d="M273.8,432.3c-2.6,0-5.2-2.6-1.4-4.6c4-0.6,6.6-3.4,6.2-6.4c-10.7-4.8-7.4-15.1-1.4-18.9
		C300.5,394.7,299.5,432.3,273.8,432.3L273.8,432.3z"/>
	<polygon class="st3" points="173.9,418.2 239.2,222.3 173.9,222.3 173.9,180.5 281,180.5 281,235.3 220.8,418.2 	"/>
	<path class="st3" d="M448.4,326.9c-4.8-8.8-12.4-13.1-22.3-13.1c-9.5,0-17.1,4.8-21.9,13.4c-4.8,8.8-7.4,21.7-7.4,38.6
		c0,17.4,2.6,30.5,7.4,39.1c4.8,8.8,12.2,13.4,22.3,13.4l-0.4-0.3c10.1,0,17.7-4.3,22.4-13.1c4.8-8.6,7.4-21.7,7.4-39.1
		C456,348.6,453.4,335.5,448.4,326.9z M434.7,392c-1.4,4.3-4.4,6.9-7.9,6.9h-0.3c-3.9,0-6.7-2.6-8.1-7.3c-1.4-4.3-2.5-13.1-2.5-25.2
		c0-11.6,1.1-20.4,2.6-25.5c1.4-5.3,4.2-7.8,8-7.8c3.5,0,6.4,3,8.1,8.1c1.4,5.3,2.3,14.4,2.3,26.5C437,378.9,436.1,387.2,434.7,392z
		"/>
	<path class="st3" d="M371.7,326.9c-4.8-8.8-12.4-13.1-22.1-13.1c-9.5,0-17.1,4.8-21.9,13.4c-4.8,8.8-7.4,21.7-7.4,38.6
		c0,17.4,2.7,30.5,7.4,39.1c4.8,8.8,12,13.4,22.1,13.4l-0.2-0.3c10.1,0,17.7-4.3,22.4-13.1c4.8-8.6,7.4-21.7,7.4-39.1
		C379.5,348.6,376.8,335.5,371.7,326.9z M357.9,392c-1.4,4.3-4.2,6.9-7.8,6.9h-0.4c-3.7,0-6.7-2.6-8.1-7.3
		c-1.4-4.3-2.3-13.1-2.3-25.2c0-11.6,0.9-20.4,2.6-25.5c1.4-5.3,4.2-7.8,7.8-7.8s6.5,3,8.1,8.1c1.4,5.3,2.5,14.4,2.5,26.5
		C360.4,378.9,359.3,387.2,357.9,392z"/>
	<path class="st3" d="M350.3,284.8c-13,0-19.5-9.2-19.5-18.6v-47.7h-10.4v-17.4h10.4v-12.6l15.6-8.2v21.2h11.1v17.4h-11.1v48
		c3.3,6.3,8.8,3.5,15-1.3l4.2,10.1C363,278.8,360.1,284.8,350.3,284.8L350.3,284.8z"/>
</g>
</svg>
