<?xml version="1.0" encoding="utf-8"?>
<!-- Generator: Adobe Illustrator 19.2.0, SVG Export Plug-In . SVG Version: 6.00 Build 0)  -->
<svg version="1.1" id="Livello_1" xmlns="http://www.w3.org/2000/svg" xmlns:xlink="http://www.w3.org/1999/xlink" x="0px" y="0px"
	 viewBox="0 0 605 605" style="enable-background:new 0 0 605 605;" xml:space="preserve">
<style type="text/css">
	.st0{fill:#FFFFFF;stroke:#1A171B;stroke-width:1.8295;stroke-miterlimit:2.6131;}
	.st1{fill:#E1001A;}
	.st2{fill:#FFFFFF;}
	.st3{fill:#1A171B;stroke:#1A171B;stroke-width:3.6259;stroke-miterlimit:2.6131;}
	.st4{fill:#1A171B;}
	.st5{fill:#1A171B;stroke:#1A171B;stroke-width:4.5324;stroke-miterlimit:2.6131;}
	.st6{fill:#1A171B;stroke:#1A171B;stroke-width:1.3597;stroke-miterlimit:2.6131;}
</style>
<g>
	<path class="st0" d="M302.5,2.5c165.2,0,300,134.8,300,300s-134.8,300-300,300s-300-134.8-300-300S137.3,2.5,302.5,2.5L302.5,2.5z"
		/>
	<path class="st1" d="M303.4,18.7c155.9,0,283.1,127.2,283.1,283.1S459.3,584.9,303.4,584.9S20.3,457.7,20.3,301.8
		C20.2,145.9,147.4,18.7,303.4,18.7L303.4,18.7z"/>
	<path class="st2" d="M303.4,91.2c116.1,0,210.7,94.7,210.7,210.7s-94.7,210.7-210.7,210.7c-116.1,0-210.7-94.7-210.7-210.7
		S187.3,91.2,303.4,91.2L303.4,91.2z"/>
	<polygon class="st3" points="302.4,371.8 277.6,323.6 294.8,327.8 294.8,303.1 310.5,303.1 310.5,327.8 327.3,323.6 	"/>
	<path class="st2" d="M247.4,238.9c0,4.3,0.9,8.3,2.3,10.9c1.7,3,3.8,4.8,5.9,4.8c2.3,0,4.5-1.8,6.1-4.3c1.6-3,2.6-7,2.6-11.4
		c0-4.3-1-8.3-2.6-10.9c-1.6-3-3.8-4.8-6.1-4.8c-2.4,0-4.5,1.8-5.9,4.3C248.2,230.6,247.4,234.6,247.4,238.9L247.4,238.9z"/>
	<path class="st4" d="M327.5,240.8l3.6-33.2l30.4-0.1v11.1h-19.6l-2,15.9c1.8-1.5,2.3-1.8,3.8-2.8s3.6-1.9,5.5-1.9
		c4,0,7.7,1.9,9.8,5.5c2.3,3.7,3.6,9.2,3.6,15.2c0,7.7-2,13.7-4.8,17.4c-2.9,3.7-7.7,6.1-13.6,6.1c-5.3,0-9.8-2-12.2-4.8
		c-3-3.2-4.8-7.6-4.7-10.8l12.6-3.3c0,2.2,0.7,3.4,1.4,4.4c0.8,1.2,2.2,2.2,3.6,2.2c1.7,0,3.2-0.9,4-2.4c0.8-1.6,1.4-4.8,1.4-8
		c0-3-0.6-5.9-1.4-7.5c-0.8-1.8-2.2-3.2-3.7-3.1c-2.9,0.2-4.4,1.9-5.2,4.8L327.5,240.8L327.5,240.8z"/>
	<path class="st3" d="M295.5,282.3c-2.3,0-4.5-2.3-1.2-4.1c3.5-0.5,5.8-3,5.4-5.7c-9.4-4.3-6.5-13.5-1.2-16.9
		C318.9,248.6,318,282.3,295.5,282.3L295.5,282.3z"/>
	<path class="st5" d="M309.4,169.1c-7.2,0-10.7-5.1-10.7-10.4V132H293v-9.7h5.7v-7.1l8.6-4.6v11.9h6.1v9.7h-6.1v26.9
		c1.8,3.5,4.8,1.9,8.2-0.7l2.3,5.7C316.4,165.8,314.8,169.1,309.4,169.1L309.4,169.1z"/>
	<path class="st6" d="M174.4,357h15.4c4.4,0,8,3.7,8,8.2v72.1c0,4.5-3.6,8.2-8,8.2h-15.4c-4.4,0-8-3.7-8-8.2v-72.1
		C166.4,360.7,170,357,174.4,357L174.4,357z"/>
	<path class="st6" d="M415.4,357h15.4c4.4,0,8,3.7,8,8.2v72.1c0,4.5-3.6,8.2-8,8.2h-15.4c-4.4,0-8-3.7-8-8.2v-72.1
		C407.4,360.7,411,357,415.4,357L415.4,357z"/>
	<path class="st6" d="M320.6,393.9c-3.1-6.8-10-11.6-18-11.6c-7.9,0-14.9,4.8-18,11.6h-46.7v-28.8c0-4.6-3.5-8.2-8-8.2h-15.4
		c-4.5,0-8,3.6-8,8.2v72.3c0,4.6,3.5,8.2,8,8.2h15.4c4.5,0,8-3.6,8-8.2v-26h47c3.5,6.6,10.1,11.2,17.7,11.2
		c7.7,0,14.2-4.6,17.5-11.2h47.4v26c0,4.6,3.5,8.2,8,8.2h15.4c4.5,0,8-3.6,8-8.2v-72.1c0-4.6-3.5-8.2-8-8.2h-15.4
		c-4.5,0-8,3.6-8,8.2V394h-46.9V393.9z"/>
	<path class="st3" d="M219.8,274.1c0-7,0-9.8,0-17.5c12.8-22.1,32.6-37.3,32.6-58.2c0-16.3-16.2-16.3-17.5,0c-4.3,0-10,0-14.9,0
		c-0.2-37.3,48.7-37.3,48.7,0c0,26.8-18.6,41.9-29.1,58.2h29.1v17.5H219.8L219.8,274.1z"/>
</g>
</svg>
