<?xml version="1.0" encoding="utf-8"?>
<!-- Generator: Adobe Illustrator 19.2.0, SVG Export Plug-In . SVG Version: 6.00 Build 0)  -->
<svg version="1.1" id="Livello_1" xmlns="http://www.w3.org/2000/svg" xmlns:xlink="http://www.w3.org/1999/xlink" x="0px" y="0px"
	 viewBox="0 0 605 605" style="enable-background:new 0 0 605 605;" xml:space="preserve">
<style type="text/css">
	.st0{fill:#FFFFFF;stroke:#1A171B;stroke-width:1.8295;stroke-miterlimit:2.6131;}
	.st1{fill:#FFFFFF;stroke:#1A171B;stroke-width:1.3371;stroke-miterlimit:2.6131;}
	.st2{fill:#1A171B;stroke:#1A171B;stroke-width:1.3371;stroke-miterlimit:2.6131;}
</style>
<g>
	<g>
		<path class="st0" d="M302.5,2.5c165.2,0,300,134.8,300,300s-134.8,300-300,300s-300-134.8-300-300S137.3,2.5,302.5,2.5L302.5,2.5z
			"/>
		<path class="st1" d="M302.7,19.2c156,0,283.2,127.2,283.2,283.2S458.7,585.6,302.7,585.6S19.6,458.4,19.6,302.4
			S146.8,19.2,302.7,19.2L302.7,19.2z"/>
		<path class="st2" d="M304.8,585.6l90.7-550.3C366.9,25.5,336.2,20,304.1,20l-90.6,551.6c27.9,9.1,57.9,13.9,89.3,13.9
			C303.4,585.6,304.1,585.6,304.8,585.6L304.8,585.6z"/>
	</g>
</g>
</svg>
