<?xml version="1.0" encoding="utf-8"?>
<!-- Generator: Adobe Illustrator 19.2.0, SVG Export Plug-In . SVG Version: 6.00 Build 0)  -->
<svg version="1.1" id="Livello_1" xmlns="http://www.w3.org/2000/svg" xmlns:xlink="http://www.w3.org/1999/xlink" x="0px" y="0px"
	 viewBox="0 0 603.8 604.8" style="enable-background:new 0 0 603.8 604.8;" xml:space="preserve">
<style type="text/css">
	.st0{fill:#FFFFFF;stroke:#1A171B;stroke-width:1.8295;stroke-miterlimit:2.6131;}
	.st1{fill:#FFFFFF;stroke:#1A171B;stroke-width:1.3371;stroke-miterlimit:2.6131;}
	.st2{fill:#1A171B;stroke:#1A171B;stroke-width:1.3371;stroke-miterlimit:2.6131;}
	.st3{fill:#C5C6C8;stroke:#C5C6C8;stroke-width:1.3371;stroke-miterlimit:2.6131;}
</style>
<g>
	<g>
		<path class="st0" d="M301.6,2.8c165.2,0,300,134.8,300,300s-134.8,300-300,300S1.6,468,1.6,302.8S136.4,2.8,301.6,2.8L301.6,2.8z"
			/>
		<path class="st1" d="M301.7,19.7c156,0,283.2,127.2,283.2,283.2S457.7,586.1,301.7,586.1S18.5,458.9,18.5,302.9
			S145.7,19.7,301.7,19.7L301.7,19.7z"/>
		<path class="st2" d="M303.8,586l90.7-550.3c-28.6-9.8-59.3-15.3-91.4-15.3l-90.7,551.7c27.9,9.1,57.9,13.9,89.3,13.9
			C302.4,586,303.1,586,303.8,586L303.8,586z"/>
		<path class="st3" d="M57.2,366.1v-18.6h26.7v19c0,3.2-3.6,4.1-6.8,4.1H63.6C58.6,370.7,57.2,369.3,57.2,366.1L57.2,366.1z
			 M189.9,366.1v-18.6h26.7v19c0,3.2-3.2,4.1-6.3,4.1h-14.9C191.3,370.7,189.9,369.3,189.9,366.1L189.9,366.1z M51.3,343.1
			c-5.9,0-5.9-9.5-0.5-9.5h173.4c5,0,5.4,9.5-0.5,9.5H51.3L51.3,343.1z M55.4,328.1c-1.4-2.3-2.3-4.1-2.3-6.3h32.2
			c2.3-3.6,2.3-5,2.3-8.6H53.2v-4.1h34.4c0-3.6-1.4-6.3-3.2-9.1H53.2c0-1.8,0-3.6,2.3-5.9c1.8-1.4,5-2.7,7.2-3.2
			c49.4-10.4,98.7-10.9,149.9-1.4c2.3,0.9,4.5,1.4,7.7,3.2c2.3,2.3,3.2,5.4,3.2,7.2h-30.9c-3.2,2.7-5,5.4-5,9.1h35.8v4.1h-35.8
			c0,3.6,0,6.3,4.5,8.6h31.2c0,2.3-0.9,4.1-3.2,6.3L55.4,328.1L55.4,328.1z M61.8,286.5l11.8-40.8c3.2-4.1,6.3-6.3,10.4-7.2
			c35.3-5.4,70.6-5.4,106.9,0c4.5,0.9,8.2,4.1,10.9,8.6l10.9,37.1l-9.5-2.3l-8.6-29.9c-1.4-2.7-3.2-4.1-6.8-6.3
			c-33.1-4.1-66.1-4.1-99.2,0c-4.5,0.9-5.4,1.8-7.7,5.4l-8.6,32.1L61.8,286.5L61.8,286.5z M114.3,300h47.1c1.8,0,3.2,1.8,3.2,3.6
			V319c0,1.4-1.4,2.7-3.2,2.7h-47.1c-2.3,0-3.2-1.4-3.2-2.7v-15.4C111.1,301.8,112,300,114.3,300L114.3,300z"/>
		<path class="st3" d="M390.6,366.1v-18.6h26.7v19c0,3.2-3.6,4.1-6.8,4.1h-13.6C392,370.7,390.6,369.3,390.6,366.1L390.6,366.1z
			 M523.3,366.1v-18.6H550v19c0,3.2-3.2,4.1-6.3,4.1h-14.9C524.6,370.7,523.3,369.3,523.3,366.1L523.3,366.1z M384.7,343.1
			c-5.9,0-5.9-9.5-0.5-9.5h173.4c5,0,5.4,9.5-0.5,9.5H384.7L384.7,343.1z M388.8,328.1c-1.4-2.3-2.3-4.1-2.3-6.3h32.2
			c2.3-3.6,2.3-5,2.3-8.6h-34.4v-4.1H421c0-3.6-1.4-6.3-3.2-9.1h-31.2c0-1.8,0-3.6,2.3-5.9c1.8-1.4,5-2.7,7.2-3.2
			c49.4-10.4,98.7-10.9,149.9-1.4c2.3,0.9,4.5,1.4,7.7,3.2c2.3,2.3,3.2,5.4,3.2,7.2h-30.8c-3.2,2.7-5,5.4-5,9.1h35.8v4.1h-35.8
			c0,3.6,0,6.3,4.5,8.6h31.2c0,2.3-0.9,4.1-3.2,6.3L388.8,328.1L388.8,328.1z M395.1,286.5l11.8-40.8c3.2-4.1,6.3-6.3,10.4-7.2
			c35.3-5.4,70.6-5.4,106.9,0c4.5,0.9,8.1,4.1,10.9,8.6l10.9,37.1l-9.5-2.3l-8.6-29.9c-1.4-2.7-3.2-4.1-6.8-6.3
			c-33.1-4.1-66.1-4.1-99.2,0c-4.5,0.9-5.4,1.8-7.7,5.4l-8.6,32.1L395.1,286.5L395.1,286.5z M447.7,300h47.1c1.8,0,3.2,1.8,3.2,3.6
			V319c0,1.4-1.4,2.7-3.2,2.7h-47.1c-2.3,0-3.2-1.4-3.2-2.7v-15.4C444.5,301.8,445.4,300,447.7,300L447.7,300z"/>
	</g>
</g>
</svg>
