<?xml version="1.0" encoding="utf-8"?>
<!-- Generator: Adobe Illustrator 19.2.0, SVG Export Plug-In . SVG Version: 6.00 Build 0)  -->
<svg version="1.1" id="Livello_1" xmlns="http://www.w3.org/2000/svg" xmlns:xlink="http://www.w3.org/1999/xlink" x="0px" y="0px"
	 viewBox="0 0 606 606" style="enable-background:new 0 0 606 606;" xml:space="preserve">
<style type="text/css">
	.st0{fill:#FFFFFF;stroke:#1A171B;stroke-width:1.8295;stroke-miterlimit:2.6131;}
	.st1{fill:#FFFFFF;stroke:#1A171B;stroke-width:1.3371;stroke-miterlimit:2.6131;}
	.st2{fill:#1A171B;stroke:#1A171B;stroke-width:1.3371;stroke-miterlimit:2.6131;}
	.st3{fill:#C5C6C8;stroke:#C5C6C8;stroke-width:1.3371;stroke-miterlimit:2.6131;}
	.st4{fill:#C5C6C8;}
	.st5{fill:none;stroke:#C5C6C8;stroke-width:1.3371;stroke-miterlimit:2.6131;}
</style>
<g>
	<g>
		<path class="st0" d="M302,2.5c165.2,0,300,134.8,300,300s-134.8,300-300,300S2,467.7,2,302.5S136.8,2.5,302,2.5L302,2.5z"/>
		<path class="st1" d="M302,20.2c155.7,0,282.7,127,282.7,282.7S457.7,585.6,302,585.6S19.3,458.6,19.3,302.9
			C19.2,147.2,146.3,20.2,302,20.2L302,20.2z"/>
		<path class="st2" d="M304.1,585.6l90.5-549.4c-28.6-9.7-59.2-15.3-91.2-15.3l-90.5,550.8c27.9,9,57.8,13.9,89.1,13.9
			C302.7,585.6,303.4,585.6,304.1,585.6L304.1,585.6z"/>
		<path class="st3" d="M387,410v-16.1h23.2v16.5c0,2.7-3.1,3.5-5.9,3.5h-11.8C388.2,413.9,387,412.7,387,410L387,410z M502,410
			v-16.1h23.2v16.5c0,2.7-2.7,3.5-5.5,3.5h-13C503.2,413.9,502,412.7,502,410L502,410z M381.9,389.9c-5.1,0-5.1-8.2-0.4-8.2h150.4
			c4.3,0,4.7,8.2-0.4,8.2H381.9L381.9,389.9z M385.4,377c-1.2-2-2-3.5-2-5.5h27.9c2-3.1,2-4.3,2-7.5h-29.8v-3.5h29.8
			c0-3.1-1.2-5.5-2.7-7.9h-27.1c0-1.6,0-3.1,2-5.1c1.6-1.2,4.3-2.4,6.3-2.7c42.8-9,85.6-9.4,130-1.2c2,0.8,3.9,1.2,6.7,2.7
			c2,2,2.8,4.7,2.8,6.3h-26.7c-2.7,2.4-4.3,4.7-4.3,7.9h31v3.5h-31c0,3.1,0,5.5,3.9,7.5h27.1c0,2-0.8,3.5-2.8,5.5L385.4,377
			L385.4,377z M390.9,340.9l10.2-35.3c2.8-3.5,5.5-5.5,9-6.3c30.6-4.7,61.2-4.7,92.7,0c3.9,0.8,7.1,3.5,9.4,7.5l9.4,32.2l-8.2-2
			l-7.5-25.9c-1.2-2.4-2.8-3.5-5.9-5.5c-28.7-3.5-57.3-3.5-86,0c-3.9,0.8-4.7,1.6-6.7,4.7l-7.5,27.9L390.9,340.9L390.9,340.9z
			 M436.5,352.6h40.8c1.6,0,2.8,1.6,2.8,3.1V369c0,1.2-1.2,2.4-2.8,2.4h-40.8c-2,0-2.7-1.2-2.7-2.4v-13.3
			C433.7,354.2,434.5,352.6,436.5,352.6L436.5,352.6z"/>
		<path class="st3" d="M65.2,410.7v-39.4h15.7c0,11.9,0,27.6,0,39.4c0,1.6-1.5,2.4-3.3,2.4c-2.4,0-6,0-8.6,0
			C66.1,413.2,65.4,412.7,65.2,410.7L65.2,410.7z"/>
		<path class="st4" d="M150.2,381.1c-1.4-4.2-5.4-7.1-10.2-7.1c-4.7,0-8.7,2.9-10.1,7.1h-27.3c0-3.5,0-6.9,0-9.9H87v39.3
			c0,1.8,0.9,2.4,3.9,2.4c2.4,0,6,0,8.4,0c1.8,0,3.3-0.9,3.3-2.4c0-6.5,0-14,0-21.5h27.6c1.7,3.9,5.4,6.6,9.8,6.6
			c4.5,0,8.3-2.7,9.9-6.6h27.6v-8L150.2,381.1L150.2,381.1z M177.5,410.7v-21.6V410.7L177.5,410.7z M177.5,381.1v-9.9h15.8
			c0,11.9,0,27.5,0,39.5c0,1.5-1.5,2.3-3.3,2.3c-2.4,0-6,0-8.6,0c-2.9,0.2-3.8-0.4-3.9-2.3V381.1L177.5,381.1z"/>
		<path class="st5" d="M150.2,381.1c-1.4-4.2-5.4-7.1-10.2-7.1c-4.7,0-8.7,2.9-10.1,7.1h-27.3c0-3.5,0-6.9,0-9.9H87v39.3
			c0,1.8,0.9,2.4,3.9,2.4c2.4,0,6,0,8.4,0c1.8,0,3.3-0.9,3.3-2.4c0-6.5,0-14,0-21.5h27.6c1.7,3.9,5.4,6.6,9.8,6.6
			c4.5,0,8.3-2.7,9.9-6.6h27.6v-8L150.2,381.1L150.2,381.1z M177.5,410.7v-21.6 M177.5,381.1v-9.9h15.8c0,11.9,0,27.5,0,39.5
			c0,1.5-1.5,2.3-3.3,2.3c-2.4,0-6,0-8.6,0c-2.9,0.2-3.8-0.4-3.9-2.3"/>
		<path class="st3" d="M199.1,410.7v-39.4h15.7c0,11.9,0,27.6,0,39.4c0,1.6-1.5,2.4-3.3,2.4c-2.4,0-6,0-8.6,0
			C200,413.2,199.3,412.7,199.1,410.7L199.1,410.7z"/>
		<polygon class="st3" points="57.4,363.6 57.4,345.7 222.8,345.7 222.8,363.6 		"/>
		<path class="st3" d="M57.6,337.8V203.2c46.4-14.8,120.2-14.8,165.3,0v134.6H57.6L57.6,337.8z"/>
	</g>
</g>
</svg>
