<?xml version="1.0" encoding="utf-8"?>
<!-- Generator: Adobe Illustrator 19.2.0, SVG Export Plug-In . SVG Version: 6.00 Build 0)  -->
<svg version="1.1" id="Livello_1" xmlns="http://www.w3.org/2000/svg" xmlns:xlink="http://www.w3.org/1999/xlink" x="0px" y="0px"
	 viewBox="0 0 604.9 608" style="enable-background:new 0 0 604.9 608;" xml:space="preserve">
<style type="text/css">
	.st0{fill:#FFFFFF;stroke:#1A171B;stroke-width:1.8295;stroke-miterlimit:2.6131;}
	.st1{fill:#E1001A;}
	.st2{fill:#FFFFFF;}
	.st3{fill:#005DA2;}
</style>
<g>
	<g>
		<path class="st0" d="M302.4,4c165.2,0,300,134.8,300,300s-134.8,300-300,300S2.4,469.2,2.4,304S137.2,4,302.4,4L302.4,4z"/>
		<path class="st1" d="M303.3,20.2c155.9,0,283.1,127.2,283.1,283.1S459.2,586.4,303.3,586.4S20.2,459.2,20.2,303.3
			C20.1,147.4,147.3,20.2,303.3,20.2L303.3,20.2z"/>
		<path class="st2" d="M303.3,92.7c116.1,0,210.7,94.7,210.7,210.7c0,116.1-94.7,210.7-210.7,210.7c-116.1,0-210.7-94.7-210.7-210.7
			C92.5,187.3,187.2,92.7,303.3,92.7L303.3,92.7z"/>
		<path class="st3" d="M303.4,106.9c106.9,0,194,87.2,194,194c0,106.9-87.2,194-194,194c-106.9,0-194-87.2-194-194
			S196.5,106.9,303.4,106.9L303.4,106.9z"/>
		<polygon class="st2" points="193.2,128.4 475.9,411.1 411.2,475.7 128.5,193.1 		"/>
		<polygon class="st1" points="150.3,110.4 493.8,453.9 454.6,493.1 111.1,149.6 		"/>
	</g>
</g>
</svg>
