<?xml version="1.0" encoding="utf-8"?>
<!-- Generator: Adobe Illustrator 19.2.0, SVG Export Plug-In . SVG Version: 6.00 Build 0)  -->
<svg version="1.1" id="Livello_1" xmlns="http://www.w3.org/2000/svg" xmlns:xlink="http://www.w3.org/1999/xlink" x="0px" y="0px"
	 viewBox="0 0 604.9 603.8" style="enable-background:new 0 0 604.9 603.8;" xml:space="preserve">
<style type="text/css">
	.st0{fill:#FFFFFF;stroke:#1A171B;stroke-width:1.8295;stroke-miterlimit:2.6131;}
	.st1{fill:#005DA2;}
	.st2{fill:#E1001A;}
</style>
<path class="st0" d="M302.4,1.9c165.2,0,300,134.8,300,300s-134.8,300-300,300s-300-134.8-300-300S137.2,1.9,302.4,1.9L302.4,1.9z"
	/>
<g>
	<path class="st1" d="M301.4,237.9l103-103c-29.7-18.2-64.7-28.8-102-28.8c-37.9,0-73.3,10.9-103.3,29.6L301.4,237.9z"/>
	<path class="st1" d="M469.6,200.2l-103,103l102,102c18.7-30,29.6-65.4,29.6-103.3C498.2,264.7,487.8,229.9,469.6,200.2z"/>
	<path class="st1" d="M301.4,368.5L200.7,469.1c29.7,18.1,64.5,28.6,101.7,28.6c36.7,0,71-10.2,100.4-27.8L301.4,368.5z"/>
	<path class="st1" d="M236.1,303.2L134.4,201.5c-17.6,29.4-27.8,63.7-27.8,100.4c0,37.3,10.5,72.3,28.8,102L236.1,303.2z"/>
</g>
<path class="st2" d="M302.4,16.2C145,16.2,16.7,144.5,16.7,301.9S145,587.6,302.4,587.6s285.7-128.3,285.7-285.7
	S459.8,16.2,302.4,16.2z M303.3,88.6c47.8,0,92.1,15.9,127.7,42.8L302.4,260L174.6,132.2C210.3,104.9,255,88.6,303.3,88.6z
	 M90.6,301.3c0-48.7,16.5-93.7,44.3-129.6l127.9,127.9L133.4,429C106.6,393.4,90.6,349.1,90.6,301.3z M172.6,468.9l129.8-129.8
	l130.5,130.5c-35.9,27.7-80.9,44.3-129.6,44.3C254.1,513.9,208.7,497.1,172.6,468.9z M472.3,430L341.9,299.6l128.9-128.9
	c28.2,36.1,45.1,81.5,45.1,130.6C515.9,349.6,499.7,394.2,472.3,430z"/>
</svg>
