<?xml version="1.0" encoding="utf-8"?>
<!-- Generator: Adobe Illustrator 19.2.0, SVG Export Plug-In . SVG Version: 6.00 Build 0)  -->
<svg version="1.1" id="Livello_1" xmlns="http://www.w3.org/2000/svg" xmlns:xlink="http://www.w3.org/1999/xlink" x="0px" y="0px"
	 viewBox="0 0 605 601" style="enable-background:new 0 0 605 601;" xml:space="preserve">
<style type="text/css">
	.st0{fill:#005EA7;}
	.st1{fill:none;stroke:#FFFFFF;stroke-width:11.816;stroke-miterlimit:2.6131;}
	.st2{fill:#FFFFFF;stroke:#005EA7;stroke-width:1.1816;stroke-miterlimit:2.6131;}
</style>
<g>
	<g>
		<polygon class="st0" points="2.5,2.2 602.5,2.2 602.5,598.8 2.5,598.8 		"/>
		<path class="st1" d="M53.3,19.8h499.3c18.3,0,33.2,14.9,33.2,33.2v496.1c0,18.3-14.9,33.2-33.2,33.2H53.3
			c-18.3,0-33.2-14.9-33.2-33.2V53C20.1,34.7,35.1,19.8,53.3,19.8L53.3,19.8z"/>
		<path class="st2" d="M458.7,161.6c-45.4-63.5-137-64.9-219.1-64.9H136.8V504h102.9V370.7l114.3,0.7c51,0.7,104.3-40.8,115.9-82.6
			C481.8,243.8,479.8,197.4,458.7,161.6z M363.9,269c-10.8,6.7-10.8,17-49.4,17H240V177.9h74.5c40.2,0,37.4,7.8,51.8,18.4
			C386.6,216.9,381.4,258.7,363.9,269z"/>
	</g>
</g>
</svg>
