<?xml version="1.0" encoding="utf-8"?>
<!-- Generator: Adobe Illustrator 19.2.0, SVG Export Plug-In . SVG Version: 6.00 Build 0)  -->
<svg version="1.1" id="Livello_1" xmlns="http://www.w3.org/2000/svg" xmlns:xlink="http://www.w3.org/1999/xlink" x="0px" y="0px"
	 viewBox="0 0 960 960" style="enable-background:new 0 0 960 960;" xml:space="preserve">
<style type="text/css">
	.st0{fill:#FFFFFF;stroke:#1A171B;stroke-width:10.0587;stroke-miterlimit:2.6131;}
	.st1{fill-rule:evenodd;clip-rule:evenodd;fill:#1A171B;stroke:#1A171B;stroke-width:0.9966;stroke-miterlimit:2.6131;}
	.st2{fill-rule:evenodd;clip-rule:evenodd;fill:#FFFFFF;stroke:#FFFFFF;stroke-width:0.9966;stroke-miterlimit:2.6131;}
</style>
<g>
	<g>
		<path class="st0" d="M273.3,197.8h413.4c41.5,0,75.5,34,75.5,75.5v413.4c0,41.5-34,75.5-75.5,75.5H273.3
			c-41.5,0-75.5-34-75.5-75.5V273.3C197.8,231.8,231.8,197.8,273.3,197.8L273.3,197.8z"/>
		<polygon class="st1" points="448.1,726.3 448.1,637.6 511.6,637.6 511.6,726.3 448.1,726.3 		"/>
		<path class="st1" d="M355.9,592l-46.1-184.2V294.6c0.3-24.9,10.8-35.3,28.4-35.3h283.1c18,0,28.2,10.5,28.2,35.3l0.3,113.2
			L603.3,592c-3.6,17.4-17.4,28.2-31.8,28.2H387.9C370.3,620.2,359.5,609.4,355.9,592L355.9,592z"/>
		<polygon class="st2" points="525.8,535.4 525.8,517.5 596.5,517.5 596.5,535.4 525.8,535.4 		"/>
		<path class="st2" d="M362,406.2l-25.7-59.4c90.3-44.7,196.3-45.3,290.5-1.1l-25.7,60.2l-32-11l10.5-31.8l-11.3-4.4l-11,32
			l-29.3-6.4l5.2-32.9l-11.9-2.8L515,383c-22.9,0-46.9,0-70.1,0l-5.8-34l-12.4,2.2l6.1,33.4l-28.4,7.5l-11.3-34.2l-12.1,4.1
			l10.8,33.1L362,406.2L362,406.2z"/>
		<polygon class="st1" points="461.4,370 479.4,327.2 495.9,370 461.4,370 		"/>
	</g>
</g>
</svg>
