<?xml version="1.0" encoding="utf-8"?>
<!-- Generator: Adobe Illustrator 19.2.0, SVG Export Plug-In . SVG Version: 6.00 Build 0)  -->
<svg version="1.1" id="Livello_1" xmlns="http://www.w3.org/2000/svg" xmlns:xlink="http://www.w3.org/1999/xlink" x="0px" y="0px"
	 viewBox="0 0 960 960" style="enable-background:new 0 0 960 960;" xml:space="preserve">
<style type="text/css">
	.st0{fill:#FFFFFF;stroke:#1A171B;stroke-width:10.0587;stroke-miterlimit:2.6131;}
	.st1{fill-rule:evenodd;clip-rule:evenodd;fill:#005EA7;}
	.st2{fill-rule:evenodd;clip-rule:evenodd;fill:#FFFFFF;stroke:#FFFFFF;stroke-width:0.9966;stroke-miterlimit:2.6131;}
	.st3{fill-rule:evenodd;clip-rule:evenodd;fill:#FFFFFF;}
	.st4{fill:none;stroke:#FFFFFF;stroke-width:9.9659;stroke-miterlimit:2.6131;}
	.st5{fill-rule:evenodd;clip-rule:evenodd;fill:#FFFFFF;stroke:#0063A6;stroke-width:0.9966;stroke-miterlimit:2.6131;}
</style>
<g>
	<g>
		<path class="st0" d="M273.3,197.8h413.4c41.5,0,75.5,34,75.5,75.5v413.4c0,41.5-34,75.5-75.5,75.5H273.3
			c-41.5,0-75.5-34-75.5-75.5V273.3C197.8,231.8,231.8,197.8,273.3,197.8L273.3,197.8z"/>
		<polygon class="st1" points="298.6,245.5 661.4,245.5 661.4,714.5 298.6,714.5 298.6,245.5 		"/>
		<path class="st2" d="M360.7,594.8L335,654.1c90.3,44.7,196.3,45.3,290.5,1.1L599.8,595l-32,11l10.5,31.8l-11.3,4.4l-11-32
			l-29.3,6.3l5.2,32.9l-11.9,2.8l-6.4-34.2l-28.6,1.9l0.3,36H472l0-36.3l-28.4-1.7l-5.8,34l-12.4-2.2l6.1-33.4l-28.4-7.5l-11.3,34.2
			l-12.1-4.1l10.8-33.1L360.7,594.8L360.7,594.8z"/>
		<polygon class="st3" points="449.7,513.3 478.5,581.8 505,513.3 449.7,513.3 		"/>
		<path class="st4" d="M416.4,279.6h125.9c12.6,0,23,10.3,23,23v125.9c0,12.6-10.3,23-23,23H416.4c-12.6,0-23-10.3-23-23V302.6
			C393.4,290,403.8,279.6,416.4,279.6L416.4,279.6z"/>
		<path class="st5" d="M429.2,433V298.4l29.4-0.2c23.4-0.1,42.4,0.3,58.8,11.8c9.3,8.5,15.5,21.4,13.7,34.7
			c-1.3,12.4-8.8,22.7-19.4,29.5c-15,9-35.2,7.1-53.1,7.4V433H429.2L429.2,433z M458.5,358.4v-36.8c9.2,0,20-0.4,29.8,1.3
			c6.7,3.2,11.4,7.1,11.3,15.8c-0.1,8.8-3.6,15.1-12.7,18.4C477.7,358.9,468.3,358.3,458.5,358.4L458.5,358.4z"/>
	</g>
</g>
</svg>
