<?xml version="1.0" encoding="utf-8"?>
<!-- Generator: Adobe Illustrator 19.2.0, SVG Export Plug-In . SVG Version: 6.00 Build 0)  -->
<svg version="1.1" id="Livello_1" xmlns="http://www.w3.org/2000/svg" xmlns:xlink="http://www.w3.org/1999/xlink" x="0px" y="0px"
	 viewBox="0 0 431 675.9" style="enable-background:new 0 0 431 675.9;" xml:space="preserve">
<style type="text/css">
	.st0{fill:#005EA7;stroke:#005EA7;stroke-width:0.6638;stroke-miterlimit:2.6131;}
	.st1{fill:#005EA7;stroke:#FFFFFF;stroke-width:6.6377;stroke-miterlimit:2.6131;}
	.st2{fill:#FFFFFF;stroke:#FFFFFF;stroke-width:1.7701;stroke-miterlimit:2.6131;}
	.st3{fill:none;stroke:#1A171B;stroke-width:4.4251;stroke-miterlimit:2.6131;}
	.st4{fill:none;stroke:#1A171B;stroke-width:0.6638;stroke-miterlimit:2.6131;}
	.st5{fill:#1A171B;}
	.st6{fill:#FFFFFF;stroke:#005EA7;stroke-width:0.6638;stroke-miterlimit:2.6131;}
</style>
<g>
	<g>
		<polygon class="st0" points="75.7,1.2 429.3,1.2 429.3,538.5 75.7,538.5 		"/>
		<path class="st1" d="M111.7,12.5h281.5c14.8,0,27,13,27,29V499c0,15.9-16.8,29-31.7,29H111.7c-14.8,0-27-13-27-29V41.5
			C84.7,25.5,96.9,12.5,111.7,12.5L111.7,12.5z"/>
		<path class="st2" d="M92.4,662.8l-2.8-1.1l-2.8-2.7c-3.5-30.6,0-60.1-1.8-91.8l3.8-5.5c101.7-3.8,220.5,0,323.4-1.8l5.5,3.5
			c3.6,30.6,0,60.4,1.8,91.9l-3.8,5.5C313.9,664.6,195.2,660.9,92.4,662.8L92.4,662.8z"/>
		<path class="st3" d="M101.6,556.2h302.6c9.1,0,16.6,7.5,16.6,16.6v75.9c0,9.1-7.5,16.6-16.6,16.6H101.6c-9.1,0-16.6-7.5-16.6-16.6
			v-75.9C85,563.7,92.5,556.2,101.6,556.2L101.6,556.2z"/>
		<polygon class="st4" points="75.9,547.1 430,547.1 430,674.4 75.9,674.4 		"/>
		<path class="st5" d="M305.8,610c3.2-5.1,16.1-4.9,17.9,0.9c4.5-7.3,19.3-5.7,19.3,3.3v23.7h-10.9v-18.8c0-1.8,0-5.5-3.4-5.5
			c-2.7,0-4.3,3.1-4.3,4.6v19.7h-10.9v-18.8c0-1.8,0-5.5-3.4-5.5c-2.7,0-4.3,3.1-4.3,4.6v19.7h-10.9c0-8.9,0-19.5,0-28.5
			c0-0.7-0.5-1.5-0.5-2.2h10.9L305.8,610L305.8,610z"/>
		<path class="st5" d="M257.7,592.5c-1.3,0-2.7,0.2-3.5,0.9c-1.1,1.1-2,2.4-2.4,4.6c-0.7,2.4-0.9,6.9-0.9,13.1
			c0,6.4,0.2,10.4,0.9,12.6c0.4,2.4,1.3,4,2.2,4.6c1.1,0.7,2.4,1.1,3.8,1.1c1.3,0,2.4-0.4,3.3-1.1c0.9-0.7,2-2,2.7-4.2
			c0.7-2.4,1.1-6.6,1.1-13.1c0-6.2-0.4-10.6-0.9-12.6c-0.9-2.2-1.8-4-2.9-4.9C260.4,592.8,259.1,592.5,257.7,592.5L257.7,592.5z
			 M257.7,584.1c5.3,0,9.5,2,12.6,5.3c3.8,4.4,5.8,11.9,5.8,21.7s-2,17-5.8,21.2c-3.1,3.8-7.3,5.5-12.6,5.5c-5.5,0-10-2-13.5-5.8
			c-3.1-4-4.6-11.1-4.6-21.2c0-9.5,1.8-17,5.5-21.5C248.2,586.1,252.4,584.1,257.7,584.1L257.7,584.1z"/>
		<path class="st5" d="M213.9,592.1c-1.3,0-2.7,0.2-3.5,0.9c-1.1,1.1-2,2.4-2.4,4.6c-0.7,2.4-0.9,6.9-0.9,13.1
			c0,6.4,0.2,10.4,0.9,12.6c0.4,2.4,1.3,4,2.2,4.6c1.1,0.7,2.4,1.1,3.8,1.1c1.3,0,2.4-0.4,3.3-1.1c0.9-0.7,2-2,2.7-4.2
			c0.7-2.4,1.1-6.6,1.1-13.1c0-6.2-0.4-10.6-0.9-12.6c-0.9-2.2-1.8-4-2.9-4.9C216.6,592.3,215.3,592.1,213.9,592.1L213.9,592.1z
			 M213.9,583.7c5.3,0,9.5,2,12.6,5.3c3.8,4.4,5.8,12,5.8,21.7s-2,17-5.8,21.2c-3.1,3.8-7.3,5.5-12.6,5.5c-5.5,0-10-2-13.5-5.8
			c-3.1-4-4.6-11.1-4.6-21.2c0-9.5,1.8-17,5.5-21.5C204.4,585.7,208.6,583.7,213.9,583.7L213.9,583.7z"/>
		<path class="st5" d="M153.1,622.9l10.2-1.3c0.2,2.7,1.3,4.9,2.4,6c1.3,1.3,3.3,2,5.1,2c1.8,0,3.8-0.9,5.3-2.2
			c1.3-1.5,2.2-3.8,2.2-6.4c0-2.4-0.7-4.6-2.2-6c-1.1-1.3-3.1-2.2-4.9-2.2c-1.3,0-3.1,0.4-4.6,0.9l0.9-8.8c2.7,0,4.6-0.4,6.2-1.3
			c1.3-1.6,2.4-3.3,2.4-5.3c0-1.5-0.9-2.9-2-3.8c-0.9-1.3-2.2-1.8-4-1.8c-1.5,0-3.3,0.4-4,1.8c-1.3,0.9-2.2,2.9-2.2,4.9l-10-1.5
			c0.4-3.1,1.8-5.5,2.9-7.3c1.3-1.8,3.3-3.8,5.8-4.4c2.4-1.3,5.5-1.8,8.2-1.8c5.3,0,9.3,1.8,12.4,4.6c2.7,2.7,4,5.7,4,8.8
			c0,4.6-2.9,8.4-8.4,11.1c3.1,0.7,6,2.2,7.5,4.4c2,2.2,3.3,5.1,3.3,8.4c0,4.2-2,8.4-5.5,11.5s-8,4.9-12.8,4.9
			c-5.1,0-9.3-1.3-12.6-4C155.3,631.3,153.5,627.3,153.1,622.9L153.1,622.9z"/>
		<path class="st6" d="M174.8,494.9v-97.1c0-27.3,22.9-44.7,44.9-44.7H250l-6.6-30.5c0.2-2.6,1-8,6.6-6.2l87.7,54.2L250,425.2
			c-6,0.6-7-2-6.6-6l6.6-31.3h-18.5c-22.1,0-22.1,11.4-22.1,24.9V495L174.8,494.9L174.8,494.9z"/>
		<path class="st6" d="M333.6,82.7c-26.9-36.2-69.8-36.4-112.7-36.4h-59.2V275v0.1h59.1v-74.9l56.3,0.4c25.3,0,54.4-23.9,61.3-46.4
			C346.1,128.7,344.6,102.8,333.6,82.7z M278.5,143.1c-5.6,4.6-17.7,9.6-25.8,9.6h-31.6v-0.1V91.9h31.5c11,0,19.6,4.4,27.1,10.4
			C291.2,113.5,291,133.4,278.5,143.1z"/>
	</g>
</g>
</svg>
