<?xml version="1.0" encoding="utf-8"?>
<!-- Generator: Adobe Illustrator 19.2.0, SVG Export Plug-In . SVG Version: 6.00 Build 0)  -->
<svg version="1.1" id="Livello_1" xmlns="http://www.w3.org/2000/svg" xmlns:xlink="http://www.w3.org/1999/xlink" x="0px" y="0px"
	 viewBox="0 0 586.8 721.7" style="enable-background:new 0 0 586.8 721.7;" xml:space="preserve">
<style type="text/css">
	.st0{fill:#1D1D1B;stroke:#1D1D1B;stroke-width:0.9531;stroke-miterlimit:2.6131;}
	.st1{fill:#FFFFFF;stroke:#1D1D1B;stroke-width:0.9531;stroke-miterlimit:2.6131;}
	.st2{fill:none;stroke:#1D1D1B;stroke-width:9.5307;stroke-miterlimit:2.6131;}
	.st3{fill:#E20613;}
	.st4{fill:#FFFFFF;}
	.st5{fill:#005CA8;}
	.st6{fill:#005CA8;stroke:#005CA8;stroke-width:0.9531;stroke-miterlimit:2.6131;}
	.st7{fill:none;stroke:#1D1D1B;stroke-width:3.1769;stroke-miterlimit:2.6131;stroke-dasharray:15.8845,15.8845;}
</style>
<g>
	<g>
		<path class="st0" d="M193.8,429v-2.3h1C196.4,427.3,194.9,429.8,193.8,429L193.8,429z"/>
		<polygon class="st1" points="102.2,0.7 585.8,0.7 585.8,720.7 102.2,720.7 		"/>
		<path class="st2" d="M154.4,15.6h379.8c21.4,0,38.9,17.5,38.9,38.9v613.2c0,21.4-17.5,38.9-38.9,38.9H154.4
			c-21.4,0-38.9-17.5-38.9-38.9V54.5C115.5,33.1,133,15.6,154.4,15.6L154.4,15.6z"/>
		<path class="st1" d="M359.8,48.4c54.3,9.7,89.4,29.4,122.5,74c18.8,30.3,27.6,58.5,28.8,94c-2.4,71-39.1,125.2-102.8,154.9
			c-72.2,29.7-144.6,9.1-195.9-47.9c-32.1-42.1-44.3-88.5-34.9-141.3c10.9-40.6,26.7-67.6,57.9-95.8c33.4-24.9,64.9-37.3,107-38.5
			L359.8,48.4L359.8,48.4z"/>
		<path class="st3" d="M343.3,57.2c87.5,0,158.8,71.4,158.8,158.8c0,87.5-71.4,158.8-158.8,158.8c-87.5,0-158.8-71.4-158.8-158.8
			C184.4,128.5,255.8,57.2,343.3,57.2L343.3,57.2z"/>
		<path class="st4" d="M343.3,97.8c65.1,0,118.2,53.1,118.2,118.2s-53.1,118.2-118.2,118.2S225.1,281.1,225.1,216
			S278.2,97.8,343.3,97.8L343.3,97.8z"/>
		<path class="st5" d="M343.4,105.8c60,0,108.9,48.9,108.9,108.9s-48.9,108.9-108.9,108.9s-108.9-48.9-108.9-108.9
			S283.4,105.8,343.4,105.8L343.4,105.8z"/>
		<polygon class="st4" points="281.6,117.8 440.1,276.4 403.8,312.7 245.3,154.1 		"/>
		<polygon class="st3" points="257.4,107.7 450.2,300.4 428.2,322.4 235.5,129.7 		"/>
		<g>
			<path class="st6" d="M233.4,457.5c-7.5-1.3-15.7-1-22.8-1v28.2c7.5-0.1,14.7,0.4,21.7-1c6.9-2.5,9.6-7.4,9.7-14.1
				C242.1,462.9,238.5,459.9,233.4,457.5z"/>
			<path class="st6" d="M274.7,424.3h-96.4c-9.7,0-17.6,7.9-17.6,17.6v96.4c0,9.7,7.9,17.6,17.6,17.6h96.4c9.7,0,17.6-7.9,17.6-17.6
				v-96.4C292.3,432.2,284.4,424.3,274.7,424.3z M266.1,474.2c-1,9.5-6.7,17.4-14.9,22.6c-11.5,6.9-26.9,5.5-40.7,5.7v39.2H188v-103
				l22.5-0.1c17.9-0.1,32.4,0.2,45,9C262.8,454.1,267.5,464,266.1,474.2z"/>
		</g>
		<path class="st6" d="M509,424.2h-96.4c-9.7,0-17.6,7.9-17.6,17.6v96.4c0,9.7,7.9,17.6,17.6,17.6H509c9.7,0,17.6-7.9,17.6-17.6
			v-96.4C526.6,432.1,518.7,424.2,509,424.2z M438.1,540.6c-18.7-8.4-27.1-30.5-18.7-49.2c3.7-8.3,10.2-14.6,17.9-18.3l0.4,10.4
			c-4.2,2.8-7.7,6.8-9.9,11.7c-6.3,14.1,0,30.7,14.1,37s30.7,0,37.1-14.1c0.2-0.3,0.3-0.7,0.4-1l5.6,9.3
			C475.2,541.9,455.2,548.3,438.1,540.6z M492.6,531.5h-0.4l-19-33.2h-31l-1.3-44.1c-0.1-0.1-0.3-0.3-0.4-0.4
			c-0.9-0.9-1.7-2-2.1-3.2c-0.6-1.4-1-3-1-4.6c0-6.3,5.1-11.4,11.4-11.4s11.4,5.1,11.4,11.4c0,6-4.7,10.9-10.6,11.3l1.5,15.6h20.7
			v8.3h-19.5l1,8.5l25.9,0.1l16.8,29.9l7.9-4.8l3.9,7.1L492.6,531.5z"/>
		<line class="st7" x1="157.9" y1="608.2" x2="526.4" y2="608.2"/>
		<line class="st7" x1="157.9" y1="654.3" x2="526.4" y2="654.3"/>
	</g>
</g>
</svg>
