<?xml version="1.0" encoding="utf-8"?>
<!-- Generator: Adobe Illustrator 19.2.0, SVG Export Plug-In . SVG Version: 6.00 Build 0)  -->
<svg version="1.1" id="Livello_1" xmlns="http://www.w3.org/2000/svg" xmlns:xlink="http://www.w3.org/1999/xlink" x="0px" y="0px"
	 viewBox="0 0 490.2 265.3" style="enable-background:new 0 0 490.2 265.3;" xml:space="preserve">
<style type="text/css">
	.st0{fill:#B9B9B9;}
	.st1{fill:#9A9A9B;}
	.st2{fill:#FFFFFF;}
	.st3{fill:#FFEC29;}
	.st4{fill:#5288C1;}
	.st5{fill:#F9F229;}
	.st6{fill:none;stroke:#1A1505;stroke-width:1.072;stroke-miterlimit:2.6131;}
	.st7{fill:#9A9A9B;stroke:#1A1505;stroke-width:0.3216;stroke-miterlimit:2.6131;}
	.st8{fill:#005EA7;stroke:#005EA7;stroke-width:0.1447;stroke-miterlimit:2.6131;}
</style>
<g>
	<polygon class="st0" points="1.2,35.9 489,35.9 489,211.1 1.2,211.1 1.2,35.9 	"/>
	<polygon class="st1" points="1.2,265.1 489,265.1 489,211.1 1.2,211.1 1.2,265.1 	"/>
	<polygon class="st2" points="409.9,211.1 403.9,211.1 355,126.5 407.2,96.3 473.4,211.1 467.3,211.1 405.4,103.6 362.3,128.5 
		409.9,211.1 	"/>
	<polygon class="st3" points="270.6,211.1 264.6,211.1 215.8,126.5 268.1,96.3 334.2,211.1 328.2,211.1 266.1,103.6 223.1,128.5 
		270.6,211.1 	"/>
	<polygon class="st2" points="340.3,211.1 334.3,211.1 285.5,126.5 337.6,96.3 403.9,211.1 397.9,211.1 335.7,103.6 292.8,128.5 
		340.3,211.1 	"/>
	<polygon class="st3" points="201.1,211.1 195,211.1 146.3,126.5 198.5,96.3 264.6,211.1 258.6,211.1 196.5,103.6 153.4,128.5 
		201.1,211.1 	"/>
	<polygon class="st3" points="137.4,211.1 131.3,211.1 98.5,154 150.6,123.8 200.8,211.1 194.8,211.1 148.7,131.1 105.7,156 
		137.4,211.1 	"/>
	<polygon class="st4" points="67.8,211.1 61.8,211.1 13,126.5 65.1,96.4 131.3,211.1 125.3,211.1 63.2,103.6 20.2,128.5 67.8,211.1 
			"/>
	<polygon class="st3" points="132.3,136.3 134.2,136.1 159,142.6 161,144.2 162.1,146.7 160.6,148.1 129.1,139.7 130.2,137.9 
		132.3,136.3 	"/>
	<polygon class="st3" points="119.7,143.8 121.9,143.3 166,155.1 167.9,156.5 169.5,159.2 168.6,160.7 117,147 117.8,145.2 
		119.7,143.8 	"/>
	<polygon class="st3" points="107.6,151.1 109.8,150.5 172.9,167.4 174.3,168.8 176,170.4 175.6,173.2 104.1,154 105.9,152.4 
		107.6,151.1 	"/>
	<polygon class="st3" points="105.7,161.5 105,159.9 179.2,179.7 181.1,180.7 182.7,182.9 182.9,185.6 107.9,165.5 106.3,163.6 
		105.7,161.5 	"/>
	<polygon class="st3" points="112.5,174.2 111.9,172.2 186.8,192.5 189,193.3 190.1,196.2 190,198.2 114.4,178 113.4,175.8 
		112.5,174.2 	"/>
	<polygon class="st3" points="120,186.6 119.8,184.9 194.3,204.9 196.7,206.5 198.1,209.4 195.8,210.3 122,190.6 121.1,188.7 
		120,186.6 	"/>
	<polygon class="st3" points="177,211.1 158.3,211.1 129.7,203.3 127.9,201.4 127.2,199.5 126.8,197.6 177,211.1 	"/>
	<polygon class="st5" points="267.1,123.1 273.5,134.5 276.9,132.5 278.3,134.9 269.2,140 267.7,137.9 271.4,135.8 264.6,124.4 
		267.1,123.1 	"/>
	<polygon class="st5" points="260.2,137.7 260.2,141.1 263.1,143.7 265.6,142.2 262,125.9 260.2,127 260.2,130.2 260.4,130.9 
		260.2,131.2 260.2,134.1 261.2,133.6 262.5,139.7 260.2,137.7 	"/>
	<polygon class="st5" points="260.2,130.2 260.2,127 259.6,127.2 260.2,130.2 	"/>
	<polygon class="st5" points="260.2,134.1 260.2,131.2 255.8,133.6 253.1,131.1 250.6,132.5 260.2,141.1 260.2,137.7 258,135.5 
		260.2,134.1 	"/>
	<polygon class="st5" points="250.5,132.5 250.7,142.1 258,146.5 255.3,148.1 250.8,145.4 251,150.6 248.3,152.3 248,143.6 
		239.7,138.7 242.5,137.1 247.9,140.4 247.8,134.1 250.5,132.5 	"/>
	<polygon class="st5" points="238.7,139.4 246.5,153.1 244.1,154.5 236.2,140.6 238.7,139.4 	"/>
	<line class="st6" x1="1.2" y1="211.1" x2="489" y2="211.1"/>
	<polygon class="st7" points="134.8,220.7 184,220.7 176.2,195.8 142.5,195.8 134.8,220.7 	"/>
	<polygon class="st7" points="142.5,220.7 176.2,220.7 176.2,195.8 142.5,195.8 142.5,220.7 	"/>
	<line class="st6" x1="1.2" y1="265.1" x2="489" y2="265.1"/>
	<g>
		<path class="st8" d="M184.8,139.5l-12.8,7.1c-1.3,0.7-2.9,0.2-3.6-1l-7.1-12.8c-0.7-1.3-0.2-2.9,1-3.6l12.8-7.1
			c1.3-0.7,2.9-0.2,3.6,1l7.1,12.8C186.5,137.2,186,138.8,184.8,139.5L184.8,139.5z"/>
		<g>
			<path class="st2" d="M169,131.9c-0.2-2.3,1.5-4.4,3.9-4.6c2.3-0.2,4.4,1.5,4.6,3.9c0.1,0.8-0.1,1.6-0.4,2.3l0.8,1.3
				c0.7-1.1,1.1-2.4,1-3.7c-0.3-3.1-3-5.4-6.1-5.2c-2.8,0.2-5,2.6-5.2,5.3l1.4,0.8C169.1,132.1,169,132,169,131.9z"/>
			<path class="st2" d="M166,134.2l0.7-1.2l4.4,2.7l3.4-1.9l0.8,1.1l-2.6,1.4l0.6,1.1l2.8-1.5l1.3,2c-0.8,0.5-1,1.5-0.6,2.3
				c0.5,0.8,1.5,1.1,2.3,0.7c0.8-0.5,1.1-1.5,0.7-2.3c-0.1-0.2-0.3-0.4-0.5-0.5c-0.1-0.1-0.3-0.2-0.5-0.3h-0.1l-3.4-5.8l-4.1,2.3
				l-5-3h-0.1l-1.3,2.4L166,134.2z"/>
		</g>
	</g>
</g>
</svg>
