<?xml version="1.0" encoding="utf-8"?>
<!-- Generator: Adobe Illustrator 19.2.0, SVG Export Plug-In . SVG Version: 6.00 Build 0)  -->
<svg version="1.1" id="Livello_1" xmlns="http://www.w3.org/2000/svg" xmlns:xlink="http://www.w3.org/1999/xlink" x="0px" y="0px"
	 viewBox="0 0 602.4 599" style="enable-background:new 0 0 602.4 599;" xml:space="preserve">
<style type="text/css">
	.st0{fill:#FFFFFF;stroke:#1A171B;stroke-width:1.1815;stroke-miterlimit:2.6131;}
	.st1{fill:none;stroke:#1A171B;stroke-width:11.8147;stroke-miterlimit:2.6131;}
	.st2{fill:#E1001A;}
	.st3{fill:#FFFFFF;}
	.st4{fill:#0063A6;}
	.st5{fill:#0063A6;stroke:#0063A6;stroke-width:1.1815;stroke-miterlimit:2.6131;}
	.st6{fill:#FFFFFF;stroke:#0063A6;stroke-width:1.1815;stroke-miterlimit:2.6131;}
	.st7{fill:#1A171B;}
</style>
<g>
	<g>
		<polygon class="st0" points="1,1.4 601,1.4 601,598 1,598 		"/>
		<path class="st1" d="M51.8,19h499.3c18.3,0,33.2,14.9,33.2,33.2v496.1c0,18.3-14.9,33.2-33.2,33.2H51.8
			c-18.3,0-33.2-14.9-33.2-33.2V52.2C18.6,33.9,33.6,19,51.8,19L51.8,19z"/>
		<path class="st0" d="M184.2,50.5c36.8,6.6,60.7,20,83.1,50.2c12.8,20.6,18.7,39.7,19.5,63.8c-1.6,48.1-26.5,85-69.7,105.1
			c-49,20.2-98.1,6.2-132.9-32.5c-21.8-28.6-30-60.1-23.7-95.9c7.4-27.6,18.1-45.9,39.3-65c22.6-16.9,44-25.3,72.6-26.1L184.2,50.5
			L184.2,50.5z"/>
		<path class="st2" d="M173,56.5c59.4,0,107.8,48.4,107.8,107.8S232.4,272.1,173,272.1S65.2,223.7,65.2,164.3S113.6,56.5,173,56.5
			L173,56.5z"/>
		<path class="st3" d="M173,84c44.2,0,80.2,36,80.2,80.2s-36,80.2-80.2,80.2s-80.2-36-80.2-80.2C92.8,120.1,128.8,84,173,84L173,84z
			"/>
		<path class="st4" d="M173.1,89.5c40.7,0,73.9,33.2,73.9,73.9s-33.2,73.9-73.9,73.9s-73.9-33.2-73.9-73.9
			C99.2,122.6,132.4,89.5,173.1,89.5L173.1,89.5z"/>
		<polygon class="st3" points="131.1,97.6 238.7,205.2 214.1,229.8 106.5,122.3 		"/>
		<polygon class="st2" points="114.8,90.8 245.5,221.5 230.6,236.5 99.8,105.7 		"/>
		<path class="st5" d="M84.2,335.4h151.6c15.2,0,27.7,12.5,27.7,27.7v151.6c0,15.2-12.5,27.7-27.7,27.7H84.2
			c-15.2,0-27.7-12.5-27.7-27.7V363C56.6,347.8,69,335.4,84.2,335.4L84.2,335.4z"/>
		<path class="st6" d="M205.7,372c-19.8-13.9-42.7-14.3-70.8-14.2L99.6,358v162h35.3v-61.8c21.5-0.3,45.9,1.9,63.9-8.9
			c12.8-8.1,21.8-20.6,23.4-35.5C224.4,397.7,216.9,382.3,205.7,372z M169.1,428.7c-11.1,2.1-22.4,1.4-34.2,1.5v-44.3
			c11.1,0,24.1-0.5,35.8,1.6c8.1,3.8,13.7,8.5,13.6,19.1C184.2,417.1,179.9,424.7,169.1,428.7z"/>
		<path class="st7" d="M489.9,131.7h5.9v7.5c0,2.8,0,5.9,0,7.5c-0.8,1.6-1.2,3.5-2.4,4.7c-0.8,1.2-2,2.4-3.2,3.2l-1.2-4.3
			c1.2-0.4,2-1.6,2.4-2.4c0.8-2,1.2-3.5,1.2-5.9h-2.8L489.9,131.7L489.9,131.7z"/>
		<path class="st7" d="M478.5,109.7c0-2.8-0.4-5.9-1.2-7.9c-0.8-1.6-2.4-2.4-3.1-2.4c-1.2,0-2.4,0.4-3.2,1.6c-0.4,2-1.2,4.7-1.2,8.3
			c0,3.1,0.8,5.5,1.2,7.1c1.2,1.2,2.4,2.8,3.2,2.8c1.2,0,2.4-1.2,3.1-2.4C478.1,114.8,478.5,112.8,478.5,109.7L478.5,109.7z
			 M464.7,132.5l5.9-1.6c0,2.4,0.4,3.9,1.2,5.1c0.4,0.8,1.6,1.2,2.4,1.2c1.2,0,2.4-0.8,3.1-2.8c0.8-1.6,1.6-6.3,2-12.6
			c-1.6,2.8-3.9,4.7-5.9,4.7c-2.8,0-4.7-2-6.7-5.1c-1.6-3.2-2.8-7.5-2.8-12.2c0-5.9,1.2-10.2,2.8-14.2c2-2.8,4.3-4.7,7.5-4.7
			c3.5,0,6.3,2.4,8.3,6.7c2,3.9,3.2,11.4,3.2,20.9c0,9.8-1.2,16.9-3.2,21.7c-2.4,4.3-5.5,6.7-9.1,6.7c-2.4,0-4.3-1.6-5.9-3.5
			c-1.2-2.4-2.4-5.9-2.8-9.8V132.5L464.7,132.5z"/>
		<polygon class="st7" points="433.2,130.5 433.2,119.9 445.8,119.9 445.8,130.5 		"/>
		<path class="st7" d="M408,112c-0.7,0-1.5,0-1.9,0.6s-1.1,2-1.1,3.4c-0.7,1.7-0.7,5.4-0.7,9.7c0,4.6,0,8,0.4,9.4
			c0.4,1.7,1.1,2.9,1.5,3.7c0.4,0.3,1.1,0.6,1.9,0.6c0.7,0,1.9-0.3,1.9-0.6c0.7-0.9,1.1-1.7,1.5-3.4s0.7-5.1,0.7-9.7
			c0-4.3,0-8-0.7-9.7c-0.4-1.1-0.7-2.9-1.5-3.1C409.8,112.3,408.7,112,408,112L408,112z M408,105.4c3,0,5.6,1.7,7.4,4.3
			c1.9,3.1,3,8.6,3,16s-1.1,13.1-3,16S411,146,408,146s-5.6-1.7-7-4.3c-1.9-2.9-3-8.6-3-16s1.1-12.9,3-16
			C402.4,107.2,405,105.4,408,105.4L408,105.4z M383.9,112c-0.7,0-1.5,0-1.9,0.6s-1.1,2-1.5,3.4c0,1.7-0.4,5.4-0.4,9.7
			c0,4.6,0.4,8,0.4,9.4c0.4,1.7,1.1,2.9,1.5,3.7c0.4,0.3,1.1,0.6,1.9,0.6c0.7,0,1.5-0.3,2.2-0.6c0-0.9,0.7-1.7,1.1-3.4
			c0.4-1.7,0.7-5.1,0.7-9.7c0-4.3,0-8-0.7-9.7c-0.4-1.1-1.1-2.9-1.1-3.1C385.3,112.3,384.6,112,383.9,112L383.9,112z M383.9,105.4
			c3,0,5.6,1.7,7,4.3c2.2,3.1,3.3,8.6,3.3,16s-1.1,13.1-3.3,16c-1.5,2.9-4.1,4.3-7,4.3c-3,0-5.9-1.7-7.4-4.3
			c-1.5-2.9-2.6-8.6-2.6-16s1.1-12.9,3-16C378.3,107.2,381.3,105.4,383.9,105.4L383.9,105.4z"/>
		<path class="st7" d="M406,205.7c-0.7,0-1.5,0-1.9,0.6s-1.1,2-1.1,3.4c-0.7,1.7-0.7,5.4-0.7,9.7c0,4.6,0,8,0.4,9.4
			c0.4,1.7,1.1,2.9,1.5,3.7c0.4,0.3,1.1,0.6,1.9,0.6c0.7,0,1.9-0.3,1.9-0.6c0.7-0.9,1.1-1.7,1.5-3.4c0.4-1.7,0.7-5.1,0.7-9.7
			c0-4.3,0-8-0.7-9.7c-0.4-1.1-0.7-2.9-1.5-3.1C407.8,206,406.7,205.7,406,205.7L406,205.7z M406,199.2c3,0,5.6,1.7,7.4,4.3
			c1.9,3.1,3,8.6,3,16s-1.1,13.1-3,16s-4.4,4.3-7.4,4.3s-5.6-1.7-7-4.3c-1.9-2.9-3-8.6-3-16s1.1-12.9,3-16
			C400.4,200.9,403,199.2,406,199.2L406,199.2z M381.9,205.7c-0.7,0-1.5,0-1.9,0.6s-1.1,2-1.5,3.4c0,1.7-0.4,5.4-0.4,9.7
			c0,4.6,0.4,8,0.4,9.4c0.4,1.7,1.1,2.9,1.5,3.7c0.4,0.3,1.1,0.6,1.9,0.6c0.7,0,1.5-0.3,2.2-0.6c0-0.9,0.7-1.7,1.1-3.4
			c0.4-1.7,0.7-5.1,0.7-9.7c0-4.3,0-8-0.7-9.7c-0.4-1.1-1.1-2.9-1.1-3.1C383.4,206,382.6,205.7,381.9,205.7L381.9,205.7z
			 M381.9,199.2c3,0,5.6,1.7,7,4.3c2.2,3.1,3.3,8.6,3.3,16s-1.1,13.1-3.3,16c-1.5,2.9-4.1,4.3-7,4.3s-5.9-1.7-7.4-4.3
			c-1.5-2.9-2.6-8.6-2.6-16s1.1-12.9,3-16C376.3,200.9,379.3,199.2,381.9,199.2L381.9,199.2z"/>
		<path class="st7" d="M406,381.8c-0.7,0-1.5,0-1.9,0.6s-1.1,2-1.1,3.4c-0.7,1.7-0.7,5.4-0.7,9.7c0,4.6,0,8,0.4,9.4
			c0.4,1.7,1.1,2.9,1.5,3.7c0.4,0.3,1.1,0.6,1.9,0.6c0.7,0,1.9-0.3,1.9-0.6c0.7-0.9,1.1-1.7,1.5-3.4s0.7-5.1,0.7-9.7
			c0-4.3,0-8-0.7-9.7c-0.4-1.1-0.7-2.9-1.5-3.1C407.8,382.1,406.7,381.8,406,381.8L406,381.8z M406,375.2c3,0,5.6,1.7,7.4,4.3
			c1.9,3.1,3,8.6,3,16s-1.1,13.1-3,16s-4.4,4.3-7.4,4.3s-5.6-1.7-7-4.3c-1.9-2.9-3-8.6-3-16s1.1-12.9,3-16
			C400.4,376.9,403,375.2,406,375.2L406,375.2z M381.9,381.8c-0.7,0-1.5,0-1.9,0.6s-1.1,2-1.5,3.4c0,1.7-0.4,5.4-0.4,9.7
			c0,4.6,0.4,8,0.4,9.4c0.4,1.7,1.1,2.9,1.5,3.7c0.4,0.3,1.1,0.6,1.9,0.6c0.7,0,1.5-0.3,2.2-0.6c0-0.9,0.7-1.7,1.1-3.4
			c0.4-1.7,0.7-5.1,0.7-9.7c0-4.3,0-8-0.7-9.7c-0.4-1.1-1.1-2.9-1.1-3.1C383.4,382.1,382.6,381.8,381.9,381.8L381.9,381.8z
			 M381.9,375.2c3,0,5.6,1.7,7,4.3c2.2,3.1,3.3,8.6,3.3,16s-1.1,13.1-3.3,16c-1.5,2.9-4.1,4.3-7,4.3s-5.9-1.7-7.4-4.3
			c-1.5-2.9-2.6-8.6-2.6-16s1.1-12.9,3-16C376.3,376.9,379.3,375.2,381.9,375.2L381.9,375.2z"/>
		<path class="st7" d="M406,474.7c-0.7,0-1.5,0-1.9,0.6s-1.1,2-1.1,3.4c-0.7,1.7-0.7,5.4-0.7,9.7c0,4.6,0,8,0.4,9.4
			c0.4,1.7,1.1,2.9,1.5,3.7c0.4,0.3,1.1,0.6,1.9,0.6c0.7,0,1.9-0.3,1.9-0.6c0.7-0.9,1.1-1.7,1.5-3.4s0.7-5.1,0.7-9.7
			c0-4.3,0-8-0.7-9.7c-0.4-1.1-0.7-2.9-1.5-3.1C407.8,475,406.7,474.7,406,474.7L406,474.7z M406,468.2c3,0,5.6,1.7,7.4,4.3
			c1.9,3.1,3,8.6,3,16s-1.1,13.1-3,16s-4.4,4.3-7.4,4.3s-5.6-1.7-7-4.3c-1.9-2.9-3-8.6-3-16s1.1-12.9,3-16
			C400.4,469.9,403,468.2,406,468.2L406,468.2z M381.9,474.7c-0.7,0-1.5,0-1.9,0.6s-1.1,2-1.5,3.4c0,1.7-0.4,5.4-0.4,9.7
			c0,4.6,0.4,8,0.4,9.4c0.4,1.7,1.1,2.9,1.5,3.7c0.4,0.3,1.1,0.6,1.9,0.6c0.7,0,1.5-0.3,2.2-0.6c0-0.9,0.7-1.7,1.1-3.4
			c0.4-1.7,0.7-5.1,0.7-9.7c0-4.3,0-8-0.7-9.7c-0.4-1.1-1.1-2.9-1.1-3.1C383.4,475,382.6,474.7,381.9,474.7L381.9,474.7z
			 M381.9,468.2c3,0,5.6,1.7,7,4.3c2.2,3.1,3.3,8.6,3.3,16s-1.1,13.1-3.3,16c-1.5,2.9-4.1,4.3-7,4.3s-5.9-1.7-7.4-4.3
			c-1.5-2.9-2.6-8.6-2.6-16s1.1-12.9,3-16C376.3,469.9,379.3,468.2,381.9,468.2L381.9,468.2z"/>
		<path class="st7" d="M535.2,112c-0.7,0-1.5,0-1.9,0.6s-1.1,2-1.1,3.4c-0.7,1.7-0.7,5.4-0.7,9.7c0,4.6,0,8,0.4,9.4
			c0.4,1.7,1.1,2.9,1.5,3.7c0.4,0.3,1.1,0.6,1.9,0.6c0.7,0,1.9-0.3,1.9-0.6c0.7-0.9,1.1-1.7,1.5-3.4s0.7-5.1,0.7-9.7
			c0-4.3,0-8-0.7-9.7c-0.4-1.1-0.7-2.9-1.5-3.1C537,112.3,535.9,112,535.2,112L535.2,112z M535.2,105.4c3,0,5.6,1.7,7.4,4.3
			c1.9,3.1,3,8.6,3,16s-1.1,13.1-3,16s-4.4,4.3-7.4,4.3s-5.6-1.7-7-4.3c-1.9-2.9-3-8.6-3-16s1.1-12.9,3-16
			C529.6,107.2,532.2,105.4,535.2,105.4L535.2,105.4z M511.1,112c-0.7,0-1.5,0-1.9,0.6s-1.1,2-1.5,3.4c0,1.7-0.4,5.4-0.4,9.7
			c0,4.6,0.4,8,0.4,9.4c0.4,1.7,1.1,2.9,1.5,3.7c0.4,0.3,1.1,0.6,1.9,0.6c0.7,0,1.5-0.3,2.2-0.6c0-0.9,0.7-1.7,1.1-3.4
			c0.4-1.7,0.7-5.1,0.7-9.7c0-4.3,0-8-0.7-9.7c-0.4-1.1-1.1-2.9-1.1-3.1C512.5,112.3,511.8,112,511.1,112L511.1,112z M511.1,105.4
			c3,0,5.6,1.7,7,4.3c2.2,3.1,3.3,8.6,3.3,16s-1.1,13.1-3.3,16c-1.5,2.9-4.1,4.3-7,4.3c-3,0-5.9-1.7-7.4-4.3
			c-1.5-2.9-2.6-8.6-2.6-16s1.1-12.9,3-16C505.5,107.2,508.5,105.4,511.1,105.4L511.1,105.4z"/>
		<path class="st7" d="M537.1,205c-0.7,0-1.5,0-1.9,0.6s-1.1,2-1.1,3.4c-0.7,1.7-0.7,5.4-0.7,9.7c0,4.6,0,8,0.4,9.4
			c0.4,1.7,1.1,2.9,1.5,3.7c0.4,0.3,1.1,0.6,1.9,0.6c0.7,0,1.9-0.3,1.9-0.6c0.7-0.9,1.1-1.7,1.5-3.4c0.4-1.7,0.7-5.1,0.7-9.7
			c0-4.3,0-8-0.7-9.7c-0.4-1.1-0.7-2.9-1.5-3.1C539,205.2,537.9,205,537.1,205L537.1,205z M537.1,198.4c3,0,5.6,1.7,7.4,4.3
			c1.9,3.1,3,8.6,3,16s-1.1,13.1-3,16s-4.5,4.3-7.4,4.3c-3,0-5.6-1.7-7-4.3c-1.9-2.9-3-8.6-3-16s1.1-12.9,3-16
			C531.6,200.1,534.2,198.4,537.1,198.4L537.1,198.4z M513,205c-0.7,0-1.5,0-1.9,0.6s-1.1,2-1.5,3.4c0,1.7-0.4,5.4-0.4,9.7
			c0,4.6,0.4,8,0.4,9.4c0.4,1.7,1.1,2.9,1.5,3.7c0.4,0.3,1.1,0.6,1.9,0.6c0.7,0,1.5-0.3,2.2-0.6c0-0.9,0.7-1.7,1.1-3.4
			c0.4-1.7,0.7-5.1,0.7-9.7c0-4.3,0-8-0.7-9.7c-0.4-1.1-1.1-2.9-1.1-3.1C514.5,205.2,513.8,205,513,205L513,205z M513,198.4
			c3,0,5.6,1.7,7.1,4.3c2.2,3.1,3.3,8.6,3.3,16s-1.1,13.1-3.3,16c-1.5,2.9-4.1,4.3-7.1,4.3c-3,0-5.9-1.7-7.4-4.3
			c-1.5-2.9-2.6-8.6-2.6-16s1.1-12.9,3-16C507.5,200.1,510.4,198.4,513,198.4L513,198.4z"/>
		<path class="st7" d="M535.2,381.8c-0.7,0-1.5,0-1.9,0.6s-1.1,2-1.1,3.4c-0.7,1.7-0.7,5.4-0.7,9.7c0,4.6,0,8,0.4,9.4
			c0.4,1.7,1.1,2.9,1.5,3.7c0.4,0.3,1.1,0.6,1.9,0.6c0.7,0,1.9-0.3,1.9-0.6c0.7-0.9,1.1-1.7,1.5-3.4s0.7-5.1,0.7-9.7
			c0-4.3,0-8-0.7-9.7c-0.4-1.1-0.7-2.9-1.5-3.1C537,382.1,535.9,381.8,535.2,381.8L535.2,381.8z M535.2,375.2c3,0,5.6,1.7,7.4,4.3
			c1.9,3.1,3,8.6,3,16s-1.1,13.1-3,16s-4.4,4.3-7.4,4.3s-5.6-1.7-7-4.3c-1.9-2.9-3-8.6-3-16s1.1-12.9,3-16
			C529.6,376.9,532.2,375.2,535.2,375.2L535.2,375.2z M511.1,381.8c-0.7,0-1.5,0-1.9,0.6s-1.1,2-1.5,3.4c0,1.7-0.4,5.4-0.4,9.7
			c0,4.6,0.4,8,0.4,9.4c0.4,1.7,1.1,2.9,1.5,3.7c0.4,0.3,1.1,0.6,1.9,0.6c0.7,0,1.5-0.3,2.2-0.6c0-0.9,0.7-1.7,1.1-3.4
			c0.4-1.7,0.7-5.1,0.7-9.7c0-4.3,0-8-0.7-9.7c-0.4-1.1-1.1-2.9-1.1-3.1C512.5,382.1,511.8,381.8,511.1,381.8L511.1,381.8z
			 M511.1,375.2c3,0,5.6,1.7,7,4.3c2.2,3.1,3.3,8.6,3.3,16s-1.1,13.1-3.3,16c-1.5,2.9-4.1,4.3-7,4.3c-3,0-5.9-1.7-7.4-4.3
			c-1.5-2.9-2.6-8.6-2.6-16s1.1-12.9,3-16C505.5,376.9,508.5,375.2,511.1,375.2L511.1,375.2z"/>
		<path class="st7" d="M535.2,474.7c-0.7,0-1.5,0-1.9,0.6s-1.1,2-1.1,3.4c-0.7,1.7-0.7,5.4-0.7,9.7c0,4.6,0,8,0.4,9.4
			c0.4,1.7,1.1,2.9,1.5,3.7c0.4,0.3,1.1,0.6,1.9,0.6c0.7,0,1.9-0.3,1.9-0.6c0.7-0.9,1.1-1.7,1.5-3.4s0.7-5.1,0.7-9.7
			c0-4.3,0-8-0.7-9.7c-0.4-1.1-0.7-2.9-1.5-3.1C537,475,535.9,474.7,535.2,474.7L535.2,474.7z M535.2,468.2c3,0,5.6,1.7,7.4,4.3
			c1.9,3.1,3,8.6,3,16s-1.1,13.1-3,16s-4.4,4.3-7.4,4.3s-5.6-1.7-7-4.3c-1.9-2.9-3-8.6-3-16s1.1-12.9,3-16
			C529.6,469.9,532.2,468.2,535.2,468.2L535.2,468.2z M511.1,474.7c-0.7,0-1.5,0-1.9,0.6s-1.1,2-1.5,3.4c0,1.7-0.4,5.4-0.4,9.7
			c0,4.6,0.4,8,0.4,9.4c0.4,1.7,1.1,2.9,1.5,3.7c0.4,0.3,1.1,0.6,1.9,0.6c0.7,0,1.5-0.3,2.2-0.6c0-0.9,0.7-1.7,1.1-3.4
			c0.4-1.7,0.7-5.1,0.7-9.7c0-4.3,0-8-0.7-9.7c-0.4-1.1-1.1-2.9-1.1-3.1C512.5,475,511.8,474.7,511.1,474.7L511.1,474.7z
			 M511.1,468.2c3,0,5.6,1.7,7,4.3c2.2,3.1,3.3,8.6,3.3,16s-1.1,13.1-3.3,16c-1.5,2.9-4.1,4.3-7,4.3c-3,0-5.9-1.7-7.4-4.3
			c-1.5-2.9-2.6-8.6-2.6-16s1.1-12.9,3-16C505.5,469.9,508.5,468.2,511.1,468.2L511.1,468.2z"/>
		<path class="st7" d="M360.7,131.7h5.9v7.5c0,2.8,0,5.9,0,7.5c-0.8,1.6-1.2,3.5-2.4,4.7c-0.8,1.2-2,2.4-3.1,3.2l-1.2-4.3
			c1.2-0.4,2-1.6,2.4-2.4c0.8-2,1.2-3.5,1.2-5.9h-2.8L360.7,131.7L360.7,131.7z"/>
		<path class="st7" d="M334.7,100.2v-9.8H356v8.3c-1.6,2.4-3.5,7.1-5.5,11.8c-1.6,5.9-3.2,11.8-3.9,17.3c-1.2,5.9-1.2,11.8-1.2,16.1
			h-6.7c0-7.1,0.8-14.6,2.8-22.1c1.6-7.9,4.3-15.4,7.5-21.7L334.7,100.2L334.7,100.2L334.7,100.2z"/>
		<path class="st7" d="M491.1,224.6h5.5v7.5c0,2.8,0,5.9-0.4,7.5s-0.8,3.5-1.6,4.7s-2,2.4-3.1,3.2l-0.8-4.3c0.8-0.4,1.6-1.6,2-2.8
			c0.4-1.2,1.2-3.1,1.2-5.5h-2.8L491.1,224.6L491.1,224.6z"/>
		<path class="st7" d="M476.1,192.4c-0.8,0-1.6,0-2,0.8s-1.2,2.8-1.2,4.7c-0.4,2.8-0.8,7.5-0.8,13.8c0,5.9,0.4,11,0.4,13
			c0.4,2.4,1.2,3.9,1.6,4.7c0.4,0.8,1.2,1.2,2,1.2c0.4,0,1.2-0.4,1.6-1.2c0.4-0.8,1.2-2,1.2-4.3c0.4-2.4,0.8-7.5,0.8-13.4
			c0-6.3,0-11-0.4-13.4c-0.4-2-1.2-3.9-1.6-4.7C477.3,192.7,476.5,192.4,476.1,192.4L476.1,192.4z M476.1,183.3
			c2.8,0,5.1,2.4,6.7,5.9c2,4.3,2.8,12.2,2.8,22.4c0,10.2-0.8,17.7-2.8,22.1c-1.6,3.9-3.9,5.5-6.7,5.5c-3.2,0-5.5-2-7.1-5.9
			s-2.8-11.4-2.8-21.7c0-10.2,1.2-18.1,2.8-22.4C470.6,185.7,473.3,183.3,476.1,183.3L476.1,183.3z M462.7,228.2v9.8H443
			c0-3.5,0.8-7.1,1.6-10.2c1.2-3.2,3.5-7.9,6.7-13c2.4-4.3,3.9-7.5,4.7-8.7c0.8-2.4,1.2-4.3,1.2-6.7c0-2-0.4-3.9-1.2-5.1
			c-0.8-1.6-1.6-2-2.8-2s-2.4,0.4-3.2,1.6c-0.8,1.6-1.2,3.5-1.2,6.3l-5.5-0.8c0.4-5.5,1.6-9.8,3.2-12.2c1.6-2.4,3.9-3.9,6.7-3.9
			s5.5,1.6,7.1,4.3c1.6,3.2,2.4,6.7,2.4,11c0,2.4-0.4,4.7-0.8,7.1c-0.4,2-1.2,4.7-2.4,6.7c-0.4,1.6-2,4.3-3.5,7.1
			c-2,3.2-3.2,5.5-3.5,6.3c-0.4,0.8-0.8,2-1.2,2.4L462.7,228.2L462.7,228.2z"/>
		<polygon class="st7" points="422.5,223.5 422.5,212.8 433.6,212.8 433.6,223.5 		"/>
		<path class="st7" d="M360.7,224.6h5.9v7.5c0,2.8-0.4,5.9-0.4,7.5c-0.4,1.6-1.2,3.5-2,4.7s-1.6,2.4-2.8,3.2l-1.2-4.3
			c1.2-0.4,2-1.6,2.4-2.8c0.4-1.2,0.8-3.1,0.8-5.5h-2.8L360.7,224.6L360.7,224.6z"/>
		<path class="st7" d="M333.7,194.3v-9.8h22.1v7.9c-1.8,2.8-4.1,7.1-5.9,12.2c-1.8,5.5-3.2,11.8-4.1,17.7
			c-0.9,5.5-1.4,11.4-1.4,15.8h-6.8c0-7.1,0.9-15,2.7-22.4c1.8-7.9,4.5-15,7.7-21.3h-14.3V194.3z"/>
		<path class="st7" d="M324.2,238h-6.8v-39c-2.3,3.5-5,6.3-8.1,7.9v-9.5c1.4-0.8,3.6-2.8,5.4-5.1c1.8-2.4,3.2-5.5,4.1-9.1h5.4V238
			L324.2,238z"/>
		<path class="st7" d="M491.1,405.4h5.9v7.9c0,2.8-0.4,5.9-0.4,7.1c-0.4,2-1.2,3.9-2,5.1c-0.8,1.2-1.6,2.4-2.8,3.2l-1.2-4.3
			c1.2-0.4,2-1.6,2.4-2.8s0.8-3.2,0.8-5.5H491L491.1,405.4L491.1,405.4z"/>
		<path class="st7" d="M466.2,371.9v-9.8h19.3v7.9c-1.6,2.8-3.5,7.1-5.1,12.2c-1.6,5.5-2.8,11.8-3.5,17.7
			c-0.8,5.9-1.2,11.8-1.2,16.1h-5.9c0-7.1,0.8-15,2.4-22.8c1.6-7.5,3.9-15,6.7-21.3L466.2,371.9L466.2,371.9z"/>
		<path class="st7" d="M459.6,414.1h-5.9v-39.4c-2,3.5-4.3,6.3-7.1,7.9v-9.4c1.2-0.8,3.1-2.8,4.7-4.7c1.6-2.8,2.8-5.9,3.5-9.5h4.7
			L459.6,414.1L459.6,414.1z"/>
		<polygon class="st7" points="422.5,399.1 422.5,388.5 433.6,388.5 433.6,399.1 		"/>
		<path class="st7" d="M361.1,405.4h5.5v7.9c0,2.8,0,5.9-0.4,7.1c-0.4,2-0.8,3.9-1.6,5.1c-0.8,1.2-2,2.4-3.2,3.2l-0.8-4.3
			c0.8-0.4,1.6-1.6,2-2.8s1.2-3.2,1.2-5.5H361L361.1,405.4L361.1,405.4z"/>
		<path class="st7" d="M349.7,379.4c0-3.2-0.4-5.9-1.2-7.9c-0.8-1.6-2-2.8-2.8-2.8c-1.2,0-2,0.8-2.8,2c-0.4,1.6-0.8,4.7-0.8,7.9
			s0.4,5.9,0.8,7.5c0.8,1.2,2,2.4,2.8,2.4c1.2,0,2-0.8,2.8-2C349.3,384.9,349.7,382.2,349.7,379.4L349.7,379.4z M337.1,402.3
			l5.5-1.2c0,2,0.4,3.9,0.8,4.7c0.8,0.8,1.6,1.6,2.4,1.6c1.2,0,2-1.2,2.8-3.2c0.8-1.6,1.6-6.3,1.6-12.2c-1.2,2.8-3.2,4.3-5.1,4.3
			c-2.4,0-4.3-2-5.9-4.7c-1.6-3.5-2.4-7.9-2.4-13c0-5.5,0.8-10.2,2.4-13.8c1.6-3.2,3.9-5.1,6.7-5.1c3.2,0,5.5,2.4,7.5,6.7
			s2.8,11.8,2.8,21.3c0,9.8-0.8,17.3-2.8,21.7c-2,4.3-4.7,6.7-7.9,6.7c-2.4,0-4.3-1.2-5.5-3.2c-1.2-2.4-2.4-5.9-2.8-10.2
			L337.1,402.3L337.1,402.3z"/>
		<path class="st7" d="M489.1,496.4h6.3v7.5c0,3.2-0.4,5.9-0.4,7.5c-0.4,1.6-1.2,3.5-2,4.7s-2,2.4-3.2,3.2l-1.2-4.3
			c1.2-0.4,2-1.6,2.4-2.8s1.2-3.2,1.2-5.1H489L489.1,496.4L489.1,496.4L489.1,496.4z"/>
		<path class="st7" d="M464.7,462.1v-9.8h20.9v7.9c-1.6,2.8-3.5,7.1-5.1,12.2c-2,5.5-3.5,11.4-4.3,17.3c-0.8,5.9-1.2,11.8-1.2,16.1
			h-6.3c0-7.5,0.8-15,2.8-22.5c1.6-7.9,4.3-15,7.1-21.3L464.7,462.1L464.7,462.1z"/>
		<polygon class="st7" points="435.9,492.5 435.9,481.8 447.7,481.8 447.7,492.5 		"/>
		<path class="st7" d="M361.5,496.4h6.3v7.5c0,3.2,0,5.9-0.4,7.5s-0.8,3.5-2,4.7c-0.8,1.2-2,2.4-3.2,3.2L361,515
			c1.2-0.4,2-1.6,2.4-2.8s1.2-3.2,1.2-5.1h-3.2v-10.7L361.5,496.4L361.5,496.4z"/>
		<path class="st7" d="M345.7,462.5c-0.8,0-1.6,0.4-2.4,0.8c-0.4,0.8-0.8,2.8-1.2,4.7c-0.4,2.8-0.4,7.5-0.4,13.4
			c0,6.3,0,11,0.4,13.4c0.4,2,0.8,3.9,1.2,4.7c0.8,0.4,1.6,0.8,2.4,0.8c0.8,0,1.6-0.4,2-0.8c0.4-0.8,1.2-2.4,1.2-4.3
			c0.4-2.8,0.8-7.5,0.8-13.8c0-5.9,0-10.6-0.4-13c-0.4-2-1.2-3.9-1.6-4.7C347.3,462.9,346.5,462.5,345.7,462.5L345.7,462.5z
			 M345.7,453.5c3.2,0,5.5,2.4,7.5,5.9c2,4.3,3.2,12.2,3.2,22.1c0,10.2-1.2,18.1-3.2,22.4c-2,3.5-4.3,5.1-7.5,5.1s-5.9-2-7.9-5.5
			c-1.6-3.9-2.8-11.8-2.8-22.1c0-9.8,1.2-17.7,3.1-22.1C339.8,455.8,342.6,453.5,345.7,453.5L345.7,453.5z M331.2,498.4v9.8h-21.7
			c0-3.9,0.8-7.5,2-10.2c1.2-3.1,3.5-7.9,7.1-13c2.8-4.3,4.3-7.5,5.1-8.7c0.8-2.4,1.2-4.3,1.2-6.7s-0.4-3.9-0.8-5.1
			c-1.2-1.6-2-2-3.5-2c-1.2,0-2.4,0.4-3.2,1.6c-0.8,1.6-1.2,3.5-1.2,6.3l-5.9-0.8c0-5.5,1.2-9.8,3.2-11.8c2-2.8,4.3-4.3,7.5-4.3
			s5.9,1.6,7.5,4.7c2,2.8,2.8,6.3,2.8,10.6c0,2.4-0.4,4.7-0.8,7.1c-0.4,2-1.6,4.7-2.4,6.7c-0.8,1.6-2.4,3.9-4.3,7.1
			c-2,2.8-3.1,5.5-3.5,5.9c-0.4,0.8-1.2,2-1.6,2.8L331.2,498.4L331.2,498.4z"/>
	</g>
</g>
</svg>
