<?xml version="1.0" encoding="utf-8"?>
<!-- Generator: Adobe Illustrator 19.2.0, SVG Export Plug-In . SVG Version: 6.00 Build 0)  -->
<svg version="1.1" id="Livello_1" xmlns="http://www.w3.org/2000/svg" xmlns:xlink="http://www.w3.org/1999/xlink" x="0px" y="0px"
	 viewBox="0 0 604.4 604.1" style="enable-background:new 0 0 604.4 604.1;" xml:space="preserve">
<style type="text/css">
	.st0{fill:#FFFFFF;stroke:#1A171B;stroke-width:1.8027;stroke-miterlimit:2.6131;}
	.st1{fill:#005DA2;}
	.st2{fill:#FFFFFF;stroke:#FFFFFF;stroke-width:1.3529;stroke-miterlimit:2.6131;}
</style>
<g>
	<g>
		<path class="st0" d="M302.2,2.1c165.2,0,300,134.8,300,300s-134.8,300-300,300s-300-134.8-300-300S137,2.1,302.2,2.1L302.2,2.1z"
			/>
		<path class="st1" d="M303.1,18.4c155.9,0,283.1,127.2,283.1,283.1S459,584.6,303.1,584.6S20,457.4,20,301.5
			C19.9,145.5,147.1,18.4,303.1,18.4L303.1,18.4z"/>
		<path class="st2" d="M302.4,58.4l127.4,217.9c0.3,7.8,0,14.3-12.6,14.3l-76.5-14.1l0.1,264.1l-76.8-0.2l-0.1-264.1l-76.1,14.4
			c-13,0-13-7.1-13-14.2L302.4,58.4L302.4,58.4z"/>
	</g>
</g>
</svg>
