<?xml version="1.0" encoding="utf-8"?>
<!-- Generator: Adobe Illustrator 19.2.0, SVG Export Plug-In . SVG Version: 6.00 Build 0)  -->
<svg version="1.1" id="Livello_1" xmlns="http://www.w3.org/2000/svg" xmlns:xlink="http://www.w3.org/1999/xlink" x="0px" y="0px"
	 viewBox="0 0 603.2 604" style="enable-background:new 0 0 603.2 604;" xml:space="preserve">
<style type="text/css">
	.st0{fill:#FFFFFF;stroke:#1A171B;stroke-width:1.8027;stroke-miterlimit:2.6131;}
	.st1{fill:#005DA2;}
	.st2{fill:#FFFFFF;stroke:#005DA2;stroke-width:1.3529;stroke-miterlimit:2.6131;}
</style>
<g>
	<g>
		<path class="st0" d="M301.6,2c165.2,0,300,134.8,300,300s-134.8,300-300,300S1.6,467.2,1.6,302S136.4,2,301.6,2L301.6,2z"/>
		<path class="st1" d="M302.5,18.3c155.9,0,283.1,127.2,283.1,283.1S458.4,584.5,302.5,584.5S19.4,457.3,19.4,301.4
			C19.3,145.4,146.5,18.3,302.5,18.3L302.5,18.3z"/>
		<path class="st2" d="M93.4,178.1l171.3,176c9,1.9,16-2.5,18.3-10.9l4-73c60.5-0.5,84.8,24.2,91.7,67.7v161l73.3-0.2V338
			c0.1-85.5-65.4-134.2-144.8-142.7l32.8-65.2c2.6-8.6-1.9-15.7-10.2-18.3L93.4,178.1L93.4,178.1z"/>
	</g>
</g>
</svg>
