<?xml version="1.0" encoding="utf-8"?>
<!-- Generator: Adobe Illustrator 19.2.0, SVG Export Plug-In . SVG Version: 6.00 Build 0)  -->
<svg version="1.1" id="Livello_1" xmlns="http://www.w3.org/2000/svg" xmlns:xlink="http://www.w3.org/1999/xlink" x="0px" y="0px"
	 viewBox="0 0 603.8 605" style="enable-background:new 0 0 603.8 605;" xml:space="preserve">
<style type="text/css">
	.st0{fill:#FFFFFF;stroke:#1A171B;stroke-width:1.8027;stroke-miterlimit:2.6131;}
	.st1{fill:#005DA2;}
	.st2{fill:#FFFFFF;stroke:#FFFFFF;stroke-width:1.3529;stroke-miterlimit:2.6131;}
</style>
<g>
	<g>
		<path class="st0" d="M301.9,2.5c165.2,0,300,134.8,300,300s-134.8,300-300,300s-300-134.8-300-300S136.7,2.5,301.9,2.5L301.9,2.5z
			"/>
		<path class="st1" d="M302.8,18.8c155.9,0,283.1,127.2,283.1,283.1S458.7,585,302.8,585S19.6,457.8,19.6,301.9
			C19.6,145.9,146.8,18.8,302.8,18.8L302.8,18.8z"/>
		<path class="st2" d="M251.7,54l98.2,168.3c0.3,6.5-4,10.3-9.6,10.9l-59.1-11.1l0.2,141.4c32.9-28.3,70.8-27.8,98.8-28.8
			l-10.3-60.2c-0.3-6.5,3.4-9,10.6-9l164.9,98.3l-164.9,98.5c-7.2,0.3-10.9-1.8-10.6-9.3l8.9-60.3c-69,1.1-96.9,42.1-97.5,69.5
			l-0.2,75.5l-59.1,0.1l0.1-315.5l-59,11c-8.4,1.6-10.6-6.5-10-10.9L251.7,54L251.7,54z"/>
	</g>
</g>
</svg>
