<?xml version="1.0" encoding="utf-8"?>
<!-- Generator: Adobe Illustrator 19.2.0, SVG Export Plug-In . SVG Version: 6.00 Build 0)  -->
<svg version="1.1" id="Livello_1" xmlns="http://www.w3.org/2000/svg" xmlns:xlink="http://www.w3.org/1999/xlink" x="0px" y="0px"
	 viewBox="0 0 603.8 605" style="enable-background:new 0 0 603.8 605;" xml:space="preserve">
<style type="text/css">
	.st0{fill:#FFFFFF;stroke:#1A171B;stroke-width:1.8027;stroke-miterlimit:2.6131;}
	.st1{fill:#005EA7;}
	.st2{fill:#FFFFFF;}
</style>
<g>
	<g>
		<path class="st0" d="M301.9,2.5c165.2,0,300,134.8,300,300s-134.8,300-300,300s-300-134.8-300-300S136.7,2.5,301.9,2.5L301.9,2.5z
			"/>
		<path class="st1" d="M302.8,18.8c155.9,0,283.1,127.2,283.1,283.1S458.7,585,302.8,585S19.6,457.8,19.6,301.9
			C19.6,145.9,146.8,18.8,302.8,18.8L302.8,18.8z"/>
		<path class="st2" d="M85.1,428l50.5-191.9c3.6-4.6,7.7-8.2,14.8-0.5l34.7,50L302.5,168l117.6,117.9l34.7-50.3
			c7.1-7.4,11-3.8,14.8,0.8l50.5,191.9l-192.3-49.8c-4.1-4.1-8.2-7.9-0.8-15.3l50.5-34.4l-75-74.8l-75,74.5l50.5,34.7
			c7.7,7.1,3.6,11.2-0.5,15.3L85.1,428L85.1,428z"/>
	</g>
</g>
</svg>
