<?xml version="1.0" encoding="utf-8"?>
<!-- Generator: Adobe Illustrator 19.2.0, SVG Export Plug-In . SVG Version: 6.00 Build 0)  -->
<svg version="1.1" id="Livello_1" xmlns="http://www.w3.org/2000/svg" xmlns:xlink="http://www.w3.org/1999/xlink" x="0px" y="0px"
	 viewBox="0 0 603.8 605" style="enable-background:new 0 0 603.8 605;" xml:space="preserve">
<style type="text/css">
	.st0{fill:#FFFFFF;stroke:#1A171B;stroke-width:1.8027;stroke-miterlimit:2.6131;}
	.st1{fill:#005EA7;}
	.st2{fill:#FFFFFF;}
</style>
<g>
	<g>
		<path class="st0" d="M301.9,2.5c165.2,0,300,134.8,300,300s-134.8,300-300,300s-300-134.8-300-300S136.7,2.5,301.9,2.5L301.9,2.5z
			"/>
		<path class="st1" d="M302.8,18.8c155.9,0,283.1,127.2,283.1,283.1S458.7,585,302.8,585S19.7,457.8,19.7,301.9
			C19.6,145.9,146.8,18.8,302.8,18.8L302.8,18.8z"/>
		<path class="st2" d="M409.9,396.1c9.3,0,17.2-6.6,21.9-19.5c3.1-13.2,6.2-37,6.2-69.7c0-33.6-3.1-59.7-6.2-75
			c-5.7-14.9-13.4-23.1-22.6-23.1c-9.8,0-18,7.8-21.6,21.9c-3.9,14.9-6.9,39.7-6.9,73.3c0,34.1,3.1,59.4,6.2,72.1
			c4.4,13.4,11.8,20,22.4,20H409.9L409.9,396.1z M410.4,451.2c-27.5,0-49.4-13.2-61.8-37.3c-11.8-24.4-19.8-62.1-19.8-111.5
			c0-48,6.7-85.2,19.8-109.8c13.1-25.1,33.7-38.5,59.5-38.5c26.8,0,47.9,12.4,60.5,37.8c13.6,24.8,20.3,61.6,20.3,110.6
			c0,49.4-7.5,87.2-19.8,111.5c-12.4,24.6-30.6,37.3-57.9,37.3L410.4,451.2L410.4,451.2z"/>
		<path class="st2" d="M126.4,376.4l43.5-9.7c0,58.7,61.8,47,61.8,12.9c0-12.9,0-12.9,0-29.4c-10.8-26.1-29.1-26.1-58.2-26.1v-45.5
			c30.5,0,45.2,4.5,57.6-22.4c0.6-16.9,0.6-16.9,0-35.3c-3-33.8-64.9-33.8-61.2,18.4l-43.5-9.7c0-101.3,163.5-98.1,149.1,9.7
			c0,29.4-7.8,46-32.7,62c25.2,20.4,29.9,33.1,32.7,65.4C286.1,484.2,126.4,475.7,126.4,376.4L126.4,376.4z"/>
	</g>
</g>
</svg>
