<?xml version="1.0" encoding="utf-8"?>
<!-- Generator: Adobe Illustrator 19.2.0, SVG Export Plug-In . SVG Version: 6.00 Build 0)  -->
<svg version="1.1" id="Livello_1" xmlns="http://www.w3.org/2000/svg" xmlns:xlink="http://www.w3.org/1999/xlink" x="0px" y="0px"
	 viewBox="0 0 603.8 605" style="enable-background:new 0 0 603.8 605;" xml:space="preserve">
<style type="text/css">
	.st0{fill:#FFFFFF;stroke:#1A171B;stroke-width:1.8027;stroke-miterlimit:2.6131;}
	.st1{fill:#005EA7;}
	.st2{fill:#FFFFFF;}
	.st3{fill:#1A171B;}
</style>
<g>
	<path class="st0" d="M301.9,0.9c165.2,0,300,134.8,300,300s-134.8,300-300,300s-300-134.8-300-300S136.7,0.9,301.9,0.9L301.9,0.9z"
		/>
	<path class="st1" d="M301.9,15.2c157.4,0,285.7,128.3,285.7,285.7S459.2,586.6,301.9,586.6S16.2,458.3,16.2,300.9
		S144.5,15.2,301.9,15.2L301.9,15.2z"/>
	<path class="st2" d="M332.9,529.4c-32.6-3.4-66.5,5.6-97.4-7.7c-13.8-7.7-26.3-18.9-33.9-31.5c-1-0.9-1-1.9-2.3-2.8
		c-5.9-9.9-12.8-20.1-17.1-32.4c-19.4-47-23.7-96.1-25-144.6c0-55.9,3.3-112.2,21.1-166.3c0.3-2.2,2.3-4,2.3-6.5
		c8.2-18.5,16.8-36.5,32.9-50.7c4.6-2.5,8.2-6.5,14.2-8.7l1-0.9c23.7-9.3,46.7-6.5,73.4-6.8c26.7-0.3,64.9,2.8,82,24.1
		c4.3,4,7.6,7.7,11.5,12.1c2.3,3.7,4.6,6.5,6.9,10.2c1.3,0.9,1.3,2.8,2.6,4c35.2,60.9,42.5,137.2,40.2,206.4
		c-1.6,43.9-4.9,85.9-18.1,128.6c-10.2,28.1-23.4,53.8-51.7,68c-12.8,5.6-27.3,5.3-41.1,5.3L332.9,529.4L332.9,529.4z"/>
	<path class="st3" d="M391.8,133c-1.2-1.1-1.2-2.8-2.3-3.7c-2-3.4-4-6-6-9.4c-3.4-4.1-6.3-7.5-10-11.2
		c-14.9-19.8-46.6-21.8-69.5-21.2c-22.9,0.5-44.9-3.5-65.5,5.1l-0.9,0.9c-5.2,2-8.3,5.7-12.3,8c-14,13.2-21.4,29.7-28.6,46.9
		c0,2.3-1.7,4-2,6c-15.4,50-18.3,102-18.3,153.8c1.1,44.9,4.8,90.3,21.7,133.8c3.7,11.4,9.8,20.9,14.9,30c1.1,0.9,1.1,1.7,2,2.6
		c6.6,11.8,17.5,22.1,29.5,29.2c26.8,12.3,56.3,4.1,84.6,7.2l1.3-0.2c12,0,24.5,0.2,35.7-4.9c24.6-13.1,36-36.9,44.9-62.9
		c11.4-39.5,14.3-78.4,15.7-119C428.7,260,422.4,189.3,391.8,133z M206.1,161l0.9-0.6c2,0,4,0,6,0l0.9,1.4c-0.6,2-1.7,3.1-2,5.1
		c-2.9,10-5.7,19.4-8,30.3c-0.9,0.3-0.9,1.1-2,2.3c-0.9,1.1-0.9,3.1-2,4c-0.9,0.1-1.2,0.1-2.3,0.1l-0.9-0.3
		C198.7,189.3,201.6,175.8,206.1,161z M223.3,154.6c0-0.9,0.3-2,1.1-2.3l14.3-0.6l2,1.7c0,0.9-1.1,0.9-2,1.1l-1.1,2
		c0,0.9,0,2,0.9,2.3c0.3,0.9,1.1,0.6,2,1.7l-0.9,1.1h-17.5v0.2l-1.1-1.1c0-0.9,1.1-0.9,2-0.9c0.6-0.9,1.1-1.1,1.4-2.3
		C224.4,156.6,224.4,155.5,223.3,154.6z M271.3,122.9l0.9,1.1c0.3,0,1.1,0,2.3,0.9l-0.9,0.3l-14.3,0.6l-0.6-0.6l-0.9-0.6
		c-0.6-1.7-0.9-4,0-6l0.9-0.9l1.4-0.9l14.3,0.9l0.6,0.9c-0.6,0.9-1.7,0.3-2.6,0.3c-0.3,0.6-1.4,0.9-2,2.6L271.3,122.9z M274.3,130.9
		l2-0.9l1.7-1.1l0.6-0.9c0.9-0.3,0.6-2.3,1.7-3.1l1.7-0.9c0.6,0,1.4,0,2.3,0l1.4,0.9l0.9,2l1.1,1.4l0.9,0.9c0.3,0.9,1.4,0.9,2.6,1.1
		h17.7c1.4-0.3,3.1-2,4-3.4V126l1.1-1.4c1.7-0.6,3.4,0,5.1-0.6l1.7,0.9c0.3,2,1.7,3.1,3.4,5.1c6,1.1,12,0.3,18,0.9l0.3,1.4
		c-0.6,2-2.6,3.7-4.3,6c-1.1,2-3.1,3.7-4,6c-1.1,2-2.6,4-4,6c-0.6,0-1.1-1.1-2-2c-0.6-0.9-2.3-1.1-3.4-2c-7.1,0-15.2-1.7-23.2,1.1
		l-1.4,1.7c-0.6,1.1-1.1,2.3-2,4.3c-2.3,1.1-6,0.3-9.2,0.3c-0.6-2.3-1.4-4-3.4-5.7c-0.6-0.6-1.4-1.4-3.4-1.7l-21.4,0.3
		c-0.9,0.9-1.1,0.9-2.3,2c-0.9,0.9-1.4,2.6-2,3.7l-0.9,1.4c-1.7,0.7-4.6,0.1-6.9,0.7l-0.9-0.6l-0.9-0.3c0-0.9-0.3-1.7-0.9-2.9
		c-0.3-1.1-1.4-2.3-2.6-3.1c-4.9-2.3-10.3-1.1-15.4-1.4c0.3-1.4,0.3-2,1.1-3.7c6-7.2,12.3-17.2,22.6-18.6c0,0.9,0.9,1.1,1.1,2.3
		c0.3,1.1,1.1,2.3,2.9,3.7C262,131.8,268,130.1,274.3,130.9z M305.8,122.8l2,1.7l-0.3,0.3l-11,1c-0.9-0.6-2.3,0-3.7-0.6l-0.6-0.6
		l1.4-0.6l1.1-2c-0.3-0.6-0.3-2-1.1-2.3c-0.9,0-1.1-0.9-2.3-0.9v-1.1c4.9-1.7,10.3,0,15.4-0.9l1.7,2c-1.4,0-1.7,0.6-2.9,1.7
		C305.5,121.4,305.5,121.6,305.8,122.8z M354.7,137h0.9c2.3,4,3.1,9.2,5.1,14.3v1.1l-0.9,0.6c-1,0.8-3,2.2-5.3,2.2l-0.9-0.6
		l-0.9-0.9l-4.3-12.6l0.3-0.9l1.7,1.7c0.3,0.3,1.1,0.3,2.3,1.1l2-0.9l0.9-2C355.6,139,354.5,138.1,354.7,137z M363.7,461.8l-1.7-0.3
		c-1.1,0.3-2,0.3-2.9,1.1c-0.3,0.3-0.3,1.4-2,2l-0.3-0.9c0-2.9,1.1-6,2.9-8.6c0.3-2,0.6-4,2.3-6l0.9-0.6c1.4-0.3,4,0.9,6,1.4
		l0.6,1.4c-1.2,5-2.4,10.5-4.7,14.2v-1.7L363.7,461.8z M337.6,483.2c-0.3-0.9-1.1-1.1-2.3-1.1l-0.9-0.9v-0.9l1.7-1.1h10.3v2.6
		c0,0.6,0.3,2,1.1,2.6l1.7,0.9c0.6-0.3,2-0.3,2.3-1.1l0.9,0.3c0.3,0.9-0.6,2-0.9,3.1c-4.7,1.3-10.7-0.1-16.1,0.8v-1.5l1.7-0.6
		l1.1-1.4L337.6,483.2z M352.4,473.3l-0.9,1.1c-5.1,0.9-11.2,0-16.3,0.6l-2.9,1.1c-2,1.4-2.3,4-4,6c-1.4,0-4,0.3-5.7,0.3
		c-0.6-0.3-0.9-1.7-0.9-2.9c-0.9-1.1-2-2.3-4-4c-5.1-1.4-11.1,0-17.2-0.6c-2,0.3-3.1,1.1-5.1,3.1c0,0.6-1.1,1.1-1.1,2.3v1.1
		l-0.9,0.6c-0.9,0.4-2.1-0.2-3.8,0.1l-0.6-0.3c0-0.9-0.3-1.7-0.6-2.6c-0.9-2-2.9-3.1-4.9-4.3l-16.3-0.3l-1.4,0.6
		c-1.4,0.6-2.6,1.4-3.7,2.9c-0.3,0-0.3,1.1-1.1,2.3l-1.7,0.6c-8.3-4-18.6-12.3-23.4-21.4c4.9-0.9,10,0.3,14.9-1.1
		c1.1-1.4,2.3-1.7,3.1-3.1c0.3-1.4,1.1-1.7,1.4-3.7c2.6-0.3,4.9,0,7.7-0.3l2,0.6c0,1.4,0.9,1.4,1.1,2.9c0.9,1.7,3.1,2.9,4.9,4h19.4
		c1.1,0,2.3-1.7,4-2.3c1.7-1.1,1.7-3.7,3.1-4.9c2.3-0.3,5.4-0.3,8.3,0c0.9,0,0.9,1.1,1.7,2.3c0.3,1.4,1.1,2.6,2.9,3.7
		c7.1,2.3,15.7,2,23.7,0.9c1.1-0.6,2.9-2.6,4.3-3.1c4,5.7,9.1,11.7,14.3,16.9L352.4,473.3z M316.2,486.9v0.6
		c-3.4,1.4-7.7,0.6-12.3,0.9c-0.9,0-2.3,0-3.4,0v-1.5l1.4-0.6l1.1-2l-0.3-1.4c-0.9-0.6-2.3-0.6-3.1-1.7l0.3-1.4l15.7-0.6l1.4,2.6
		c-1.1,0-1.4,0.6-2.9,1.4l-0.2,1.7C314.2,485.8,315.6,486,316.2,486.9z M281.5,486.4h1.4l0.6,0.9l-0.9,0.9
		c-3.3,0.2-6.4-0.1-10.1,0.2c-1.4-0.3-3.1,0-5.1,0l-1.1-1.4c-0.9-1.7,0-3.1-0.3-5.1c0.3-0.6,0.6-1.7,1.7-2.6l15.7,0.6l0.3,1.4
		c-0.9,0.9-2,0.6-3.1,1.1l-1.1,1.7C279.8,485.2,280.4,485.2,281.5,486.4z M230.4,445.5c-0.3,0-1.7,0-2-0.9l0.9-0.6
		c5.1-1.7,11.7-0.6,17.7-0.9l2.6,1.4c0,0.9-1.4,0.9-2,1.4c-0.6,0.6-1.4,1.1-1.7,2.6l0.9,1.7c0.3,0.3,2,0.3,2.9,1.1l-0.6,1.1
		c-1.5,1.4-4.4,0.2-6.7,1.4c-2.9-0.6-6.6,0-9.7-0.3l-1.4-2l1.1-1.1c0.3-0.9,0-1.7,0.3-2.9C232.4,446.6,231.6,446.6,230.4,445.5z
		 M214.1,397.2c-0.9-0.6-1.1-1.1-2.3-1.7l-0.6-0.9l0.9-0.6c6-0.6,11.4,0,18-0.6l1.4,1.1c0,1.4-1.1,1.4-2.3,1.7
		c-0.9,0.3-0.9,1.7-1.1,2.9l0.3,0.6c0,1.4,2,1.7,2.3,2.9l-0.3,0.9l-13.1,0.2c-1.1,0-2.3,0-3.4,0l-0.6-2l1.7-1.1v-1.1
		C215,398.6,215,397.5,214.1,397.2z M202.9,284.5l0.9-1.4l18.3-0.9c1.1-0.3,2.9-2,4.3-3.7c0.3-0.3,0.3-1.4,0.9-2.3l0.9-0.9
		c2.3-0.3,4.6,0,7.4-0.3l1.7,2.3c0.3,1.1,1.4,2.6,2.6,3.7c0.9,0.3,1.7,1.1,3.7,1.4l21.4-0.3c1.1-1.1,2.3-2.3,3.1-3.7
		c0.9-0.3,1.1-1.7,1.4-3.4c2.9,0,6.9-0.9,9.7,0.9c0,1.1,0.9,1.1,1.1,2.3l1.1,2c0.9,1.1,2.3,1.1,3.7,2c6,1.1,12.6,0,19.4,0.9l0.3,0.3
		l1.4,38.6l-1.4,0.9c-7.1,0.3-14.6-0.9-21.2,1.7c-1.7,1.4-2.3,4.3-4.3,6.6c-2.3,0-5.1,0.9-8.3-0.3c-0.3-2-1.7-3.7-2.9-5.1l-0.9-0.9
		c-6.6-3.1-14.6-0.9-22-1.7l-2.6,0.9c-1.1,0.6-2.3,1.1-3.4,2.9c-0.3,1.1-0.9,2.9-1.7,4.3c-2.3,0.9-4.3,0-6.6,0.6h-0.5v-0.2l-1.7-0.9
		c-0.3-2-1.4-3.7-2.3-5.1c-6.3-4-15.2-1.7-22.6-2.6C201.8,310.5,203.8,297.7,202.9,284.5z M203.8,267.7c4.3-1.4,10.3,0,15.4-0.6
		l1.7,2h-1.7c-0.3,0.9-1.1,1.1-1.7,2.9l0.6,1.4c0.9,0.9,1.1,1.4,2.3,2l-0.3,0.9c-4.8,1-9.7-0.1-14.3,0.8l-2-0.3l-0.3-0.6
		c-0.6-1.4,1.1-2,1.4-3.4C204.9,271.1,202.9,269.9,203.8,267.7z M209.9,203.7l0.3-1.7l0.3-0.3l16.3,0.3l0.6,1.7h-0.9
		c-0.9,0.9-2,1.1-2.3,2c0,1.1,0.3,1.4,0.3,2.9c0.9,0.6,1.7,1.1,2.9,2c-3.3,1.3-7,0.1-10.1,1c-2.9-0.9-5.1,0-8-0.6l-0.3-1.1l2-1.1
		l0.3-2C211,205.7,211,204.8,209.9,203.7z M226.8,217.5c1.7-0.6,3.4-0.9,4.6-2c0.3-0.9,1.4-2.6,2.3-3.7l0.3-1.4
		c2.6-0.6,4.9-0.6,7.7-0.6l1.4,0.9c0,1.1,0.9,1.1,1.4,2.3l1.4,2c6.3,4,16.3,1.7,24.6,2c1.1-1.1,2.6-1.1,3.7-2.6
		c0.9-0.9,1.1-2.9,2.3-4.6c2.9-0.3,5.1,0,8.3,0l1.1,2c0.6,1.1,1.7,2.6,2.9,3.7c0.6,0.3,1.7,1.1,3.4,1.4l16.3,0.6l0.3,0.3
		c-1.1,13.4-2.9,27.7-3.1,41.2l-0.9,1.7h-13.2c-2.9,0-5.7,0-8,0.9c-0.9,0.3-1.1,1.1-2.3,2.3c-0.9,1.7-2,3.1-2.9,5.1c-1.7,0-4,0-6,0
		h-0.8l0,0h-1.4c-0.9-1.4-1.1-2.3-2-4c0-1.1-1.1-1.4-2-2.6c-7.1-3.4-15.2-0.9-22.6-1.7c-1.7,0-2.9,0.9-4,2c-1.1,1.7-2.3,3.1-3.1,6
		c-2.9,0.3-4.9,0-8,0.3l-1.1-1.1c0-0.9-0.6-1.7-0.9-2.9c-1.1-1.1-2.3-3.4-4.9-4.3h-16.3l-1.4-0.9c0.3-13.7,1.1-27.7,3.4-42l0.6-0.3
		L226.8,217.5L226.8,217.5z M268.1,208.7l1.1,1.7l-0.9,0.6l-17.3,0.6l-1.1-1.1c0-0.9,1.7-0.6,2-1.7l1.1-1.7
		c-0.3-0.6-0.3-1.7-1.1-2.3c-0.3-0.9-2-0.3-2.3-1.4l0.3-0.9l0.3-0.9c6-0.3,12-0.3,18,0l1.4,1.1c0,1.7-1.4,0.9-2,2l-0.6,1.7
		C267.3,207,267.3,208.4,268.1,208.7z M307.1,155.3c-0.3-0.6-1.4-0.6-2.3-1.7l0.3-0.9c5.7-1.4,14-1.1,20,0v2l-2,0.6
		c-0.9,0.3-0.9,2-0.9,3.4c0,0.9,2,1.1,2,2.3c-5.1,1.7-12,0.5-17.7,0.8l-1.7-1.1c0.3-0.9,2-0.3,2.3-1.1l0.9-1.7
		C308,156.8,308,155.6,307.1,155.3z M330.3,165.8c2,0.3,3.4,3.1,6,4c0.3,2.9-0.9,5.1-2,8c0,0.9,0,1.4,0,2.3c0.9,3.1,2.3,4.9,4.6,6.9
		v0.6c-0.3,0.9-0.3,1.7-0.6,2.6c-0.9,0.3-2,0.9-3.7,1.1c-0.9,0.9-1.1,1.1-2.3,2.3c-1.1,2.9-1.7,6-2.9,9.2c-2.9,1.9-6.6,0.5-10.3,0.8
		l-1.1-0.3C320,190.4,324.3,177,330.3,165.8z M339.7,177.2c1.1-0.3,0-2,1.1-2.3c1.4-0.9,2.9,0.9,4,0l0.9-0.9
		c0.9-1.1,0.6-3.1-0.3-4.3c-0.9-0.3-1.7-1.1-2-2l0.3-2l0.9-0.9c2-1.1,5.1,0,6.9,1.7l0.3,0.9c0,2.3-1.1,4.6-1.7,6.6
		c-0.6,2.6-1.4,4.6-2.3,7.2l-1.3,0.9c-0.9-0.9,0.3-2-0.3-3.1c-0.9-0.9-1.4-1.1-2.6-2h-1.1l-1.7,1.7l-0.3,1.4h-1.1
		C339.4,179.2,340.3,178.7,339.7,177.2z M341.4,201.2c0.9-0.6,1.1-2,1.4-3.7h0.9l0.9,0.9l-4,14.6h-0.9l0,0l-0.3-1.4
		c-0.9-0.9-0.9-1.1-2.3-1.7h-1.7c-1.1,0.6-0.9,2-2,2l-0.3-1.1c0-0.9,0.6-0.9,1.4-2c0.9-3.4-0.3-7.4,2-11.2c0,0.9,0.6,2,0.9,3.1
		l1.4,1.1C339.7,201.8,340.8,201.5,341.4,201.2z M337.1,243.5l-1.7-2l-1.7-0.3l-1.4,0.6c-0.9,0.6-0.9,1.7-1.1,2.9
		c-0.1,0-0.1,0.9-1,1.8l-0.9-1.1l0.6-14l2-1.4v1.4l0.3,0.9c0.9,1.1,1.1,1.1,2.3,2c0.9-0.3,2-0.3,2.9-1.1l1.1-1.1l-1.1,13.7
		C336.5,244.9,337.4,244.4,337.1,243.5z M335.6,274.2c-0.9-0.9-2-0.9-3.4-0.9l-1.7,1.7c0,1.1,0,2.3,0,3.4l-1.1,0.7l-1.1-2
		c1.1-4.3,0-9.4,1.1-14.3l0.9-0.3l0.3,1.4c0.9,1.1,1.7,2,2.9,2.9h0.9c1.1-0.6,1.4-0.9,2.9-1.7l-0.6,12.9v-0.9
		C336.4,276.2,336.4,275.1,335.6,274.2z M353.4,420.9l1.4,0.3l5.1,14c0,0.9-0.3,2-1.1,2.3c-1.1,0.8-4,1.4-6,1.7
		c-0.9-0.3-1.1-0.9-1.4-2.3c0.3-1.7,1.1-1.7,1.4-3.7l-0.3-1.4l-0.9-0.9c-0.9,0-1.7-0.9-2.9-0.9c-0.3-1.7-1.1-2.9-1.1-4.3
		c0.9,0.3,1.1,1.1,2.3,1.4c0.9,0,2-0.3,2.9-1.1C353.7,425.1,352.8,422.9,353.4,420.9z M349.6,405.6c0-1.1-0.9-1.4-1.1-2.6l-2-0.6
		l-1.7,0.6c-0.6,0.3-0.6,1.4-1.1,2.6c0,0.7,0.5,1.8-0.3,2.1l-0.9-0.6c-0.9-2.6-0.9-4.6,0.3-6.9c0-0.9-0.3-2-0.6-2.9l-1.7-0.9
		c-0.9-0.3-0.9-1.1-1.1-2.3v-1.7c1.1,0,2.3,0.9,3.4,0.9l1.7-1.1c0.3-0.3,0.3-1.1,1.1-2h0.9c2,3.7,2.9,9.4,4,14.3L349.6,405.6z
		 M342.4,426.6c0.3,1.7,2.3,4.6,2,7.7c-2.3,1.1-4.9,4-7.2,5.1h-0.7v0.1l-0.9-1.1c-4.6-11.2-9.1-22.6-11.4-34.9v-0.9
		c3.7,0,6.9-0.3,10.3,0l2,1.1c0.6,1.7,0.6,4,1.7,6c0.3,0.9,1.1,1.1,2.3,2.6c1.1,0.6,3.7,1.1,5.1,2.3c0,0.9,0,1.1,0,2.3
		c-0.3,1.1-1.4,2.6-2.9,3.7C342.1,422,342.1,424.6,342.4,426.6z M312.2,445.1c0.6-1.1,0.6-1.7,1.7-2.3l17.4,0.3l-0.3,1.4l-0.9,0.9
		c-0.9,0.9-1.1,1.1-2,2.6c0,0.6,0.3,2,1.1,2.6c0.9,0.9,2.6,0,4,0.6c0,1.1-1.1,1.4-2,2l-16.4,0.3c-0.9,0-2-0.9-2-2l2-0.9
		c0.9,0,0.9-1.1,1.1-2.3v-0.9C315,446.3,313.6,446.3,312.2,445.1z M311.8,401.6c0.3,0.3,1.7,0.3,2.9,1.1v0.9
		c-5.9,1-11.1-0.2-17.1,0.1c-1.1,0-2,0-2-1.4l1.1-0.9c0.9-0.9,1.1-1.1,1.7-2.9l-0.9-1.4c-0.3-0.6-1.1-0.9-2-1.7V394
		c5.7-1.4,12.3,0,18.3-0.6c1.1,0,2,1.1,2,2.9c-0.9,0-2.3,0-3.7,0.9l-0.6,0.9l-0.6,0.6C310.9,399.6,311.5,400.7,311.8,401.6z
		 M313.9,338c3.1-1.1,7.1,0,10.6-0.9l1.4,1.7c0,1.4,0,4,0.6,5.7c1.7,2.6,3.7,4,6.9,4.9c0,0.3,0.3,1.1,0,2s-1.4,0.9-2.9,1.1l-1.4,1.7
		c-0.9,0.3-0.9,2-1.7,2.3c0,6.3,0.9,13.4,2.9,20c0.9,0.6,1.1,1.4,2.3,2.6c0.9,0.9,2.9,0.9,4.6,1.7c0.3,1.1,0.3,2.3,1.1,4.3l-0.6,0.9
		c-0.3,0.3-1.1,1.4-2.3,2c-1.7,2.3-1.1,5.4-1.1,8.3l-11.2,0.3l-0.9-0.3C317.9,377.1,315.1,357.4,313.9,338z M323.5,279.4
		c0.9,2,1.7,2.9,3.1,4c0.6,0.9,2,0.9,3.4,1.7c0.6,0.3,0.3,2,0.3,3.4c-1.7,0.9-3.1,1.7-4.9,2.9c-0.3,0.9-1.1,1.4-1.4,3.1l-0.9,15.2
		l0.3,2c0.9,2,1.7,3.1,3.7,4.9c1.1,0.3,2.3,0.3,3.4,1.1l0.9,0.3v2c-0.9,1.4-2.9,1.7-4.3,3.1c0,0.9-0.9,1.4-1.1,2.9c0,1.1,0,2.3,0,4
		l-2.6,1.1c-0.6,0-1.2,0-2.3,0c-2.3-0.3-4.3,0-7.1,0l-1.1-1.1c-0.9-18.3-2.9-36.3-0.9-54.9h11.2
		C324.1,276.2,323.2,278.2,323.5,279.4z M340.9,370.8c-0.3-0.9-1.4-0.9-2.3-1.1l-2,0.3l-1.1,2c-0.1,0.8,1,1.1-0.1,2.6l-0.9-0.6
		c-0.3-5.1-2-10.3-1.4-15.4l0.6-0.9c0.6,1.1,0.6,2.9,1.7,4l2,1.1l1.4-0.3c0.6-0.9,1.7-1.1,1.7-2.9l0.9,0.6l0.9,12.6
		C341.7,371.9,341.4,371.9,340.9,370.8z M338.4,341.3c0-0.6,0-2-1.1-2.3l-1.7-0.9c-0.6,0-2,0-2.3,0.9c-1.1,0.4-0.2,2.1-1.1,3.3
		c-2-4-1.1-9.4-0.9-14.6v1.4l1.7,2l1.4,0.6l2-0.9l0.9-1.7c0-1.1,0-1.4,0-2.6l1.1-0.6c1.1,4.9,0.9,10.3,0.9,15.4L338.4,341.3
		L338.4,341.3z M335.1,306.3c-0.9,0-1.7,0-2.9,0.3l-0.9,0.9c-0.3,1.1-0.3,2.3-0.3,4.3h-0.8v-0.1c-0.9-0.3-1.1-1.1-1.7-2v-12
		c0.9-0.9,0-2,0.9-2.3h0.9l0.3,1.4l1.7,2l1.4,0.6c1.4,0,2-1.7,3.4-1.7c0,2.9,0.3,6-0.6,9.7L335.1,306.3z M319,209.8
		c2.3,0,4.9,0,7.4,0c0.6,0.6,1.4,2,1.4,2.9l0.6,2c0.9,1.4,3.7,2.9,4.9,4.3c0,1.7-0.3,2.9-1.1,4.3c-0.9,0.6-2,0.9-3.1,1.4
		c-0.9,0-1.7,1.4-2.9,2c0,0.6-1.1,1.1-1.1,2.6l-0.9,18l0.9,1.4l2,2c0.9,0.6,2.3,0.9,3.1,2l1.1,1.7l-1.1,1.4h-0.9
		c-1.1,0-1.1,0.9-2.3,1.7l-1.7,1.4c-0.3,0.9-1.1,1.4-1.1,2.9c0,2-0.3,4-0.9,6.9c-3.4,0.9-7.1,0.1-10.5,0.3l-0.9-0.3
		c-1.1-19.2,0-39.7,5.7-57.8L319,209.8z M308,204l-0.9,0.9c-0.3,0.9-0.3,2.3,0,3.7c0.9,0.3,1.4,1.1,2.9,1.4v0.9l-0.3,0.3l-14.1,0.4
		c-1.1-0.9-2.9,0.3-3.4-0.9v-0.8c1.1,0,1.1-1.1,2.3-1.4c0.9-0.9,0-2.6,0-3.7c-0.3-0.9-1.7-0.9-2.9-1.1l0.9-2c6,0,12.6-0.9,18.6,0.3
		l0.6,0.9C310.8,203.8,309.7,203.8,308,204z M302.9,336.2c0.3,1.1,2.9,0.6,3.1,1.7l-0.3,0.3l-1.7,0.9h-15.5l-1.1-1.7l0.6-0.3
		c0.9,0,1.4-1.1,2.3-2v-0.9c-0.6-1.1-0.9-1.4-1.4-2.6l-2-0.6l0.6-1.1c0.3-0.3,1.4-0.3,2-0.9h16.3l1.1,0.9L306,331h-1.4l-1.7,0.9
		l-1.1,2C302.1,334.8,302.1,335.9,302.9,336.2z M301.7,274.3c1.1,0,1.4,0.9,2.9,0.9l0.3,0.9l-0.9,0.3c-5.5,0.7-11.5,0.4-17.2,0.7
		l-1.1-1.7c0.9-0.3,2.3-1.1,3.1-2.6c0-0.9-0.3-2-1.1-2.9c0-0.3-1.7,0-2-1.1v-0.9c0-0.9,1.1-0.9,2.3-1.1h15.2l1.7,0.9l-0.9,1.4h-1.4
		c-0.9,0.9-1.1,1.1-2,2.9C300.6,273.1,301.5,273.1,301.7,274.3z M261.5,274.2c0.6,0,1.7,0.6,1.7,2c-3.3,1.1-8.2,0-12.5,0.9
		c-1.7-0.9-4,0-6-0.3l-1.1-1.4l0.9-0.3c0.3,0,1.4-1.1,2.3-2v-0.9c-0.6-1.1-0.9-1.4-2-2.6l-1.7-0.9l0.6-0.9
		c5.1-1.7,12.3-0.9,18.6-0.9l0.9,0.9v0.9c-0.6,0.9-1.1,0.9-2,2l-0.3,0.6C260.9,272.2,261.2,273.3,261.5,274.2z M262.4,336.4l1.7,1.1
		l-0.3,0.9c-5.1,0.7-11.6,0.7-17.1,0.7c-0.9,0-2,0-2-1.7c1.1-0.3,1.4-0.6,2.3-1.1l0.9-1.1c0-0.9-0.3-1.1-0.9-2.3
		c-0.9-0.6-1.1-1.1-2.3-1.7l0.3-1.4c5.7-1.4,12-0.6,18-0.6l1.4,0.9c0,1.1-1.1,1.1-2,2l-0.6,2C261.8,335,262.1,336.1,262.4,336.4z
		 M203.9,331v-2h18.3l0.9,2c-1.4,0-1.7,0.9-2.9,1.1l-0.9,2l0.9,1.7c0.3,0.9,1.1,1.1,2,1.4v0.9l-0.9,0.9c-2,0.3-4,0-6.9,0l-0.5,0.4
		c-2.9-0.3-5.7,0-8.9-0.3l-1.1-0.9c0-1.4,1.1-1.1,2-2.3c0.3-0.9,0-1.7,0.3-2.9C205.3,332.7,205.1,331.6,203.9,331z M223.6,344.3
		c1.4-0.3,2.6-1.1,3.7-2.9c0.9-0.6,1.1-2.6,2-4.3c2.9,0,5.1,0,8,0l1.1,1.1l0.9,2c0.3,1.1,1.7,2.6,3.4,4c6.9,1.7,14,0,20.6,1.1
		c2.9,0,4.3-3.1,6.9-4.3c0-1.1,0.3-2.9,1.1-3.7c2.3-0.3,5.1,0,7.4-0.3l1.7,1.1c0.9,2,2.3,4,5.1,6c6.9,2,14.9,0,22.9,1.1
		c0.6,14,3.4,27.4,5.7,41.7c-3.1,0.9-5.7,0-9.4,0.3c-4,0-6.3,0-9.2,0l-1.4,0.9c-1.7,0.9-4,3.1-4.9,5.7l-0.3,1.4
		c-2.6,0.9-4.6,0.9-7.4,0.9h-1v0.2l-0.9-0.3c0-0.9-0.3-1.7-0.3-2.6c-0.9-1.1-2-3.1-3.7-4.3c-7.1-2.9-15.4-1.7-22.9-1.7
		c-2.9,1.7-4.9,4.6-6,8l-0.9,0.6c-2.3,0-4.3,0-6.6,0l-1.7-1.4c0-0.6-0.3-1.1-0.9-2.3c-0.9-2-2.9-4-5.1-4.9h-21.4
		c-3.1-13.7-4.9-27.7-5.1-42C211,344.5,217.3,346,223.6,344.3z M271.3,400.3c0.3,0.3,1.1,1.1,2,2.3l-1.1,1.1H257l0,0
		c-1.1-0.6-2.9,0.9-3.7-1.1c0-1.1,1.7-0.3,2-1.4l0.9-1.7c0-0.9-0.3-2-0.9-2.9c-0.3-0.3-1.4-0.3-2.3-1.1l0.3-1.1
		c0.6-0.3,1.7-0.3,2.6-0.9h15.4c0.9,0,3.1,0.9,2,2.6c-1.1,0.3-1.1,0.3-2.3,1.4l-0.6,1.1L271.3,400.3z M231.5,409.7l2.9-1.4
		c1.1-1.7,2-2.9,3.1-5.1l0.9-0.6c2.3-0.9,4.6,0,7.4-0.3c2.3,2,3.1,5.4,7.1,6.6c6.3,0.9,13.4,0.9,20.3,0.6c2-0.9,3.1-2.3,5.1-4
		c0-1.1,0.9-2.3,1.7-3.7c2.6-0.3,6.3-0.3,9.2,0.9c0.3,2,1.1,3.1,3.1,5.1c0.9,0.6,1.7,0.9,3.1,1.7h20c1.4,0,1.4-1.7,3.4-1.7
		c0,0.9,0,2,0.9,2.6c0,1.4,1.1,3.4,1.4,5.7l7.1,20.9l-0.3,0.3l-15.4,0.3c-2,0.9-2.9,1.7-4.3,2.9c-0.6,1.7-1.4,2.9-1.7,4.3
		c-2.3,1.7-6,0.6-8.9,0.9l-1.4-0.9c0.3-1.1-0.9-1.7-0.9-3.1l-1.4-2c-6.6-3.4-15.4-1.1-22.9-2l-2.9,1.4l-0.9,0.6l-0.6,0.9
		c-0.9,1.1-1.7,3.1-2.6,5.1c-1.4,0.6-3.1,0-5.1,0l-0.2,0.4c-0.9-0.6-1.7,0-2.9-0.6c-0.9-0.9-0.9-2.3-2-4c-0.6-0.6-0.9-1.1-2-2.3
		c-7.2-2.9-16-1.1-23.7-1.1c-1.4,0-1.7,1.4-3.7,1.1c-3.1-8.9-8-19.4-9.2-29.5L231.5,409.7L231.5,409.7z M290.5,451.5v1.1l-0.9,0.9
		c-3.1,0.3-7.1,0-11.1,0.3c-1.7-0.6-4,0-6-0.3l-2-2c0.6-0.3,2-0.3,2.9-1.1l0.9-1.7l-0.9-2c-1.1,0-1.7-0.6-2.9-1.4l0.9-1.7
		c6-1.4,11.2,0,17.4-0.6c0.6,0.3,1.7,0.3,2,1.1v1.4l-1.4,0.9c-0.6,0.3-0.6,2-0.6,3.1C289.1,450.6,289.7,450.6,290.5,451.5z
		 M351.7,461.9l-0.9,0.4c-4.6-5.4-7.4-10-11.2-16v-0.9c1.7-2,4.6-3.4,6.9-5.4c1.4,1.4,2.9,3.4,6,4.3c2.6,0,6-0.9,8.3-1.1l-1.7,0.9
		l-0.6,0.6c-1.7,2-2,5.4-3.7,8C354.5,455.6,352.8,458.7,351.7,461.9z M366.8,438.3h-2l0,0l0,0l0,0c0.9-6-3.1-11.4-4.6-17.7l-0.6-1.7
		l-0.9-0.9l-0.9-1.1c-1.4-1.1-3.4-1.4-6-2l-0.3-0.3c-0.3-0.9-0.3-1.7,0-2.9c0.9-0.3,1.1-0.9,2.3-2c0.6-0.9,1.1-1.1,1.7-2.3
		c0-5.7-2.3-11.4-3.1-17.2l-0.9-2c0-0.9-1.1-1.1-2-2.3c-1.1-0.9-3.4-1.1-5.1-1.7l-0.9-0.6c0-1.7-0.3-2.6-0.3-4.6
		c1.1-0.3,2.3-2,4-3.4c2-6.3-1.1-12.3-1.1-19.2c-1.7-0.9-1.4-3.1-2.9-4c-1.1-0.3-2.9-0.9-3.7-1.4c-0.3-0.9-0.3-1.7,0-2.6
		c1.1-0.6,2.6-1.4,3.7-2.3c3.1-6,0.3-13.1,1.1-19.7c-0.9-1.7-0.9-2.9-2.9-4.6c-0.9-0.6-2.3-1.1-4.3-2c0-0.6,0-1.1,0-2.3l1.1-1.1
		l2-1.7c3.1-6,1.1-13.7,2-20.3c-0.3-1.7-1.1-2-2-3.4c-1.1-0.6-2.3-1.4-3.4-2c-0.6-0.9-0.6-2.6-0.6-3.7l1.7-0.9l1.4-1.1
		c4-5.4,2.9-14.3,2.9-21.4l-0.3-1.4c-0.9-1.7-3.4-3.4-4.9-4.6c-0.3-0.6,0-1.1-0.3-2.3c1.4-2,4.3-2.9,5.4-5.4c0.3-6.9,2-14,0-20.9
		c-1.1-1.4-3.1-2-4-3.4c0-0.9,0-2.6,0.3-3.7c0.6-0.3,2-0.6,3.7-1.1c0.9-0.9,1.1-2,2.3-2.3c0.9-0.9,1.4-1.7,1.7-3.7
		c0.9-4.6,2.3-9.4,3.1-14.6c0-1.7-0.9-2-1.7-4c-0.6-1.1-2.3-2-3.4-2.9V191c0-0.9,0-2,0.9-2.6c1.1-0.3,2.3-0.3,4.3-1.1l0.9-0.9
		l0.9-0.9c0.6-0.6,0.6-3.1,2-4.3c0.6-6,4.6-10.6,3.4-15.7c1.1-0.9,2,0.3,3.1,0l2,0.3c3.7,2.9,6.3,6.3,9.1,10.3
		c29.7,77.8,30.6,167.3,8.3,247.9c-1.1,1.7-2.3,4-3.4,6c-2.6,3.1-3.7,4.3-5.7,6.3C369,436.9,367.6,437.2,366.8,438.3z M351.7,160.4
		c-2.9-0.6-5.4-1.7-8.9-0.6c-2,0.6-2.6,2.9-4.3,4.3c-2-1.1-4-2.3-6-4.3c2.9-6,6-11.7,10.3-16.9l0.9,0.3
		C346.3,148.6,347.4,156.6,351.7,160.4z M343.7,121.4l-2-0.6l-1.4,0.6l-0.9,0.6c-0.6,0.9,0,1.7-0.6,2.9l-0.3,0.3h-11.4l-0.6-0.6
		c0.9-0.6,2-0.6,2.9-1.4l0.6-0.6c0-0.9-0.6-1.7-0.6-2.9c-0.3-0.3-1.4-0.3-2.9-0.9l-0.3-0.9l0.9-0.6l14.6-0.6l1.7,0.9
		c0.3,0.3,0.9,1.7,0.9,2.9L343.7,121.4z M281.4,159.4c0.3,0.3,2,0.9,1.1,2.3h-15.2v0.1c-1.1-0.3-3.1,0-4.3-1.1c0.3-0.9,2-0.3,2.9-2
		l0.3-0.9c0-1.1-0.3-2.3-1.1-2.6c-0.6-0.6-0.9-0.9-2-1.7v-0.9c5.1-1.4,12,0,17.7-0.9l2.6,1.7c-0.9,1.1-2.9,1.1-2.9,2.3
		C280.5,157.1,280.5,158.6,281.4,159.4z M239.3,167.7c1.4,0,2.3-0.9,4.3-1.7c0.9-0.6,1.1-1.1,2.3-2.3c0.9-0.9,0.9-2,1.7-3.4
		c2.3,0,4.6,0,7.4,0l1.7,0.6l0.3,1.7c0.3,1.1,2,2.3,3.1,3.4c0.9,0.9,2,1.4,3.7,1.7h17.7c2,0,3.7-1.7,5.1-2.9l0.9-0.9
		c0.9-0.3,1.1-1.7,1.4-3.4l0.3-0.3c3.1,0,5.4-0.6,8.6,0c0.9,0.3,0.9,1.4,1.7,2.3c0,1.1,1.7,1.4,2,2.9l0.9,0.6
		c5.2,2.9,11.4,0.9,16.9,1.7c0.9,0.3,1.7,0,2.9,0.3c-3.1,8.9-6,18.3-8.6,27.4c-7.1-0.3-14,0-21.4,0l-1.7,0.6
		c-1.1,0.3-1.7,1.4-2.9,2.3c-1.1,1.1-1.7,2.9-2,4.3l-0.9,0.9c-2.3,0.3-4.6,0-7.4,0l-1.1-0.9c0-1.4-0.9-2-1.7-3.4
		c-0.9-1.1-1.1-0.9-2.3-2.6c-0.6-0.3-1.7-0.3-2.9-1.1l-21.4,0.9c-0.9,0-1.1,1.7-2.3,2l-0.9,0.9c-1.1,0.6-1.1,2.6-2,4.3l-1.1,0.3
		c-0.9-0.1-1.7-0.1-2.3-0.1c-1.7-0.3-2.9,0-4.6-0.3c-2.3-3.7-3.4-6.9-8.3-8l-14.6-0.3l-0.9-0.9c1.4-8.3,3.4-17.4,6.6-26.6l0.9-0.9
		C225.3,168.8,232.4,167.4,239.3,167.7z M195.6,210.7c0.9-0.9,2.6-0.3,4.3-0.9l0.9,1.1c0,17.2-2.9,33.5-2.9,50.9
		c-0.9,0.9-1.1,1.1-2,2.6c-0.9,1.1-1.1,2.6-2.3,4.3c-0.9,0.3-2,0.1-2.9,0.3C190.4,250.4,192.7,230.1,195.6,210.7z M189.5,275.9
		c1.1-0.9,2-0.6,3.1-0.9l1.7,1.1c0.3,1.7,2.3,3.1,3.1,5.1l0.3,45.2c-1.1,1.4-1.1,3.4-2.9,4.6c-0.4,0.1-1.2,1-2.1,0.7
		c-1.1-0.6-1.7,0-2.9-0.6C188.7,312.8,189.2,294.5,189.5,275.9z M197.8,396c-4.3-18.9-6.3-38.3-7.4-57.8l1.1-1.1c0.9,0,2,0,3.1,0
		l1.7,1.7c4.3,17.4,5.4,38,7.4,57.2C202.1,396,199.8,396,197.8,396z M214.1,445.5h-0.9c-6-12.6-11.2-28.6-13.4-42.9
		c1.1-0.9,2.3,0,4-0.3c1.1,0.3,1.1,2,2,3.1c5.1,7.4,6.6,20.6,10.6,29.7c1.7,2.9,2.9,6.3,4.6,9.4l-0.6,0.9
		C218.4,445.5,216.4,445.5,214.1,445.5z M400,435c-4,13.7-8.9,26.6-16.3,37.7c-4.3,7.7-12.3,16.6-20.6,20.9l-0.9,0.9
		c-25.5,7.1-51.2,2-76.6,3.7l-1.1,0.2c-9.2-0.9-18.6,0.3-27.5-2.9l-10.3-5.1c-1.1,0-1.1-0.9-2.9-1.1c-12.6-10.3-20.6-23.2-27.7-36.6
		v-1.1c2-0.3,3.1,0,5.1,0l1.7,0.9l0.3,1.4c8,7.1,13.2,17.7,23.4,25.5c4,3.1,9.2,6,14.3,8c0,1.1,1.1,1.1,1.1,2.9l2,1.4
		c0.9,0.9,1.7,1.1,3.1,2l16.3-0.3l2-0.9c1.7-2,2.9-2.9,3.4-5.1c1.4-0.9,2.3,0,4.3-0.3l1.1,1.1l0.3,0.9c0.9,0.6,0.9,1.4,2,2.6
		c5.7,3.1,13.2,1.1,20,1.7l0.9-0.6c1.7-0.6,3.4-2.6,4.6-5.4c1.1-0.9,4,0,6-0.3c1.7,1.1,2,3.1,3.7,4.6c0.6,0.6,1.4,0.9,3.4,1.7
		l15.4,0.3c2-0.3,3.1-1.1,4.9-3.1c0.3-0.9,1.1-1.1,1.4-2.9c0.6-3.1,0.9-5.7-0.6-9.4c-0.6-1.1,1.1-1.4,1.4-3.1c0.6-0.9,0.9-1.7,2-2.9
		c1.7,0,2.9,0,5.1,0l1.7-1.1l1.4-1.1c2.9-5.7,5.1-12.9,6.3-19.2c-0.3-2-1.4-3.1-2.6-5.1l0.3-0.3c0-0.9,1.1-0.9,2.3-1.1
		c32.8-53,28.8-122.5,25.6-180.8c-3.7-32.6-8.3-68.9-24.6-97.8c-1.1-2.3-3.1-4.9-5.7-7.1c-2.3-0.9-2.3-2-3.7-2l-0.6-1.1
		c2.6-5.1-1.4-11.4-3.1-17.2v-0.9c-0.9-0.6-1.1-2-2-3.4l-0.9-0.9c-2-1.4-5.4-2-8.3-1.4c0-1.4-1.1-2-2.3-3.4c0-3.4,1.1-6.6,0.3-10.3
		c-0.3-2.3-1.1-3.4-3.1-5.1c-6.3-2-12.3-0.3-18.6-1.1c-0.9,0.6-2.9,0.9-3.7,1.7l-1.1,1.4c-0.3,1.1-0.9,2.9-1.4,3.7l-1.7,0.3
		c-1.4,0-3.1,0-5.1,0c0-1.1-0.3-1.4-0.9-2.9c-0.3-0.6-0.9-1.4-2-2.3c-0.6-0.9-1.4-1.1-3.1-2l-16.6,0.6l-1.7,0.3
		c-0.6,0.9-0.9,1.1-2,2c-0.3,1.1-1.1,2-1.7,3.4l-0.3,0.9c-1.7,0.6-2.9,0-4.3,0c-1.1-1.4-1.7-3.4-2.9-5.1c-5.4-3.4-13.4-1.1-19.7-2
		l-2.9,0.9c-0.9,0.3-2,2-2.9,3.1c-0.3,1.1-1.4,1.1-3.1,2c-10,2.9-17.2,11.2-24.3,19.4c0,1.1-0.6,1.1-1.1,2.9l-0.9,0.9
		c-1.1,1.4-1.4,3.4-3.1,5.1c-0.9,0.3-2,1.1-3.1,1.4l-1.1,0.9c-1.1,1.1-1.1,4-2.3,5.1c-1.7,0.3-2.9,0.3-4.6,0.3l-0.3-0.3
		c4-12,8.3-22.3,15.4-30.9c4.9-8.9,14-15.4,22.6-20c6.9-2.3,13.7-2.3,20.6-2.3c34.3,3.1,76.9-10.9,100.1,20.3
		c38,48,46.3,122.1,47.5,185C414.3,349.5,412.3,392.6,400,435z"/>
	<path class="st3" d="M351.7,380.3c-9.2-52.3-8-106.4-5.1-160.1l0.9-0.3h0.6c5.7,3.1,6.9,11.4,10,18.3c8,34,10,68.3,6.9,103.2
		c-1.7,12.9-4,26.3-9.7,35.7c-0.3,0.9-1.1,2.6-2.3,2.9L351.7,380.3L351.7,380.3z"/>
</g>
</svg>
