<?xml version="1.0" encoding="utf-8"?>
<!-- Generator: Adobe Illustrator 19.2.0, SVG Export Plug-In . SVG Version: 6.00 Build 0)  -->
<svg version="1.1" id="Livello_1" xmlns="http://www.w3.org/2000/svg" xmlns:xlink="http://www.w3.org/1999/xlink" x="0px" y="0px"
	 viewBox="0 0 603.8 605" style="enable-background:new 0 0 603.8 605;" xml:space="preserve">
<style type="text/css">
	.st0{fill:#FFFFFF;stroke:#1A171B;stroke-width:1.8027;stroke-miterlimit:2.6131;}
	.st1{fill:#005EA7;}
	.st2{fill:#FFFFFF;}
</style>
<g>
	<g>
		<path class="st0" d="M301.9,2.5c165.2,0,300,134.8,300,300s-134.8,300-300,300s-300-134.8-300-300S136.7,2.5,301.9,2.5L301.9,2.5z
			"/>
		<path class="st1" d="M302.8,18.8c155.9,0,283.1,127.2,283.1,283.1S458.7,585,302.8,585S19.6,457.8,19.6,301.9
			C19.6,145.9,146.8,18.8,302.8,18.8L302.8,18.8z"/>
		<path class="st2" d="M178.6,482l101.5-209.7l-12-45.7l-46.3,52.2c-15.6,21.7-45.7-2.6-28.2-23c28.8-33.4,57.7-66.8,86.5-100.2
			c4.5-3.9,4.5-4.2,13-8.4c12.3-4.2,18.8-7.1,32.4-11c5.8-1.9,13,1.9,18.2,7.5c23.3,25,42.1,45.4,65.8,70.3
			c4.2,4.2,4.2,8.4,4.2,12.3c0,21.4,0,32.7,0,54.1c0,19.1-33.4,19.1-33.4,0V235l-29.2-29.5l-8.8,63.2l77.8,215.5
			c6.5,19.1-31.8,31.8-39.5,13.9l-68.7-189.3l-92.7,185.7C205.2,520.2,172.5,501.1,178.6,482L178.6,482z"/>
		<path class="st2" d="M303,67.9c17.2,0,31.2,14,31.2,31.2s-14,31.3-31.2,31.3s-31.3-14-31.3-31.3C271.8,81.9,285.8,67.9,303,67.9
			L303,67.9z"/>
	</g>
</g>
</svg>
