<?xml version="1.0" encoding="utf-8"?>
<!-- Generator: Adobe Illustrator 19.2.0, SVG Export Plug-In . SVG Version: 6.00 Build 0)  -->
<svg version="1.1" id="Livello_1" xmlns="http://www.w3.org/2000/svg" xmlns:xlink="http://www.w3.org/1999/xlink" x="0px" y="0px"
	 viewBox="0 0 603.8 605" style="enable-background:new 0 0 603.8 605;" xml:space="preserve">
<style type="text/css">
	.st0{fill:#FFFFFF;stroke:#1A171B;stroke-width:1.8027;stroke-miterlimit:2.6131;}
	.st1{fill:#005EA7;}
	.st2{fill:#FFFFFF;}
	.st3{fill:#E1001A;}
</style>
<g>
	<g>
		<path class="st0" d="M301.9,2.5c165.2,0,300,134.8,300,300s-134.8,300-300,300s-300-134.8-300-300S136.7,2.5,301.9,2.5L301.9,2.5z
			"/>
		<path class="st1" d="M302.8,18.7c155.9,0,283.1,127.2,283.1,283.1S458.7,584.9,302.8,584.9S19.6,457.8,19.6,301.9
			C19.6,145.9,146.8,18.7,302.8,18.7L302.8,18.7z"/>
		<path class="st2" d="M179,482.3l101.5-209.9l-12-45.7l-46.4,52.2c-15.6,21.7-45.7-2.6-28.2-23c28.9-33.4,57.7-66.8,86.6-100.2
			c4.5-3.9,4.5-4.2,13-8.4c12.3-4.2,18.8-7.1,32.4-11c5.8-1.9,13,1.9,18.2,7.5c23.4,25,42.2,45.4,65.9,70.4
			c4.2,4.2,4.2,8.4,4.2,12.3c0,21.4,0,32.8,0,54.2c0,19.1-33.4,19.1-33.4,0v-45.4l-29.2-29.5l-8.8,63.3l77.9,215.7
			c6.5,19.1-31.8,31.8-39.6,13.9l-68.8-189.5l-92.8,185.9C205.6,520.6,172.8,501.5,179,482.3L179,482.3z"/>
		<path class="st2" d="M303.5,67.9c17.2,0,31.3,14.1,31.3,31.3s-14.1,31.3-31.3,31.3c-17.2,0-31.3-14.1-31.3-31.3
			C272.2,81.9,286.3,67.9,303.5,67.9L303.5,67.9z"/>
		<path class="st3" d="M472.5,75.5c10.8,8.3,20.6,16.6,29.9,25.9c9.8,9.8,19.1,20.3,27,31l-396.1,396c-10.8-7.8-22-17.9-31.8-27.7
			c-9.3-9.3-17.2-18.7-25.1-29l396-396L472.5,75.5z"/>
	</g>
</g>
</svg>
