<?xml version="1.0" encoding="utf-8"?>
<!-- Generator: Adobe Illustrator 19.2.0, SVG Export Plug-In . SVG Version: 6.00 Build 0)  -->
<svg version="1.1" id="Livello_1" xmlns="http://www.w3.org/2000/svg" xmlns:xlink="http://www.w3.org/1999/xlink" x="0px" y="0px"
	 viewBox="0 0 603.8 605" style="enable-background:new 0 0 603.8 605;" xml:space="preserve">
<style type="text/css">
	.st0{fill:#FFFFFF;stroke:#1A171B;stroke-width:1.8027;stroke-miterlimit:2.6131;}
	.st1{fill:#005EA7;}
	.st2{fill:#FFFFFF;}
	.st3{fill:#E1001A;}
</style>
<g>
	<g>
		<path class="st0" d="M301.9,2.5c165.2,0,300,134.8,300,300s-134.8,300-300,300s-300-134.8-300-300S136.7,2.5,301.9,2.5L301.9,2.5z
			"/>
		<path class="st1" d="M302.8,18.7c155.9,0,283.1,127.2,283.1,283.1S458.7,584.9,302.8,584.9S19.6,457.8,19.6,301.9
			C19.6,145.9,146.8,18.7,302.8,18.7L302.8,18.7z"/>
		<path class="st2" d="M446,259.8c-10.9,0-21.9,2.4-31.4,6.4l-21.2-34.9l13.2-24.1c6.8,0,13.7,4.9,20.5,4.9c5.8-0.9,6-20.8-1.5-20.8
			c-12.1,0-35.3-0.9-47-0.9c-5.8,2-5.5,8.2,2.4,10.8c4.9,0,8.2,2,12.4,2l-13.5,24.7l-149.3-0.4l6.4-12.4c-5.3-17-7.3-23.6,1.5-28.7
			h35.8c8.6-1.4,7.1-10.9,0-12.4h-37.5c-13.7,0-18.3,15-18.3,22.3l3.8,18.8L193.1,267c-10.4-4.4-21.9-7.3-34-7.3
			c-45.7,0-82.4,36.8-82.4,81.9c0,45.3,36.7,82.6,82.4,82.6c44.9,0,82.2-37.3,82.2-82.6c0-28.1-14.6-53-35.8-67.4l13-21.6l81.3,76
			c-2.9,17,0.2,32.5,27.4,35.8c12.4-0.2,25.6-0.9,39.3-2.2c9.3,36,41.5,62.1,79.5,62.1c45.7,0,82.6-37.3,82.6-82.6
			C528.6,296.7,491.7,259.8,446,259.8z M225.5,342.8c0,36.9-30.3,66.9-67.4,66.9S91,379.7,91,342.8c0-37.1,30-67.8,67.1-67.8
			c10.2,0,19.2,2.4,27.2,6.2l-26.2,45.5c-9.5,0.7-15,7.5-15,16.1c0,8,7.1,14.6,15,14.6c8.2,0,15.7-8.2,15.2-14.6
			c-0.7-6.8-3.1-8.8-3.1-9.1l26.9-46.6C214.7,299.7,225.5,320.2,225.5,342.8z M432.1,322.8c-16.8-0.7-48.4-3.4-48.4-3.6
			c6-16.6,12.1-24.5,26.1-34.2C409.8,285,424.2,310,432.1,322.8z M309.9,318.3l-80.4-76.8h142.4l-39,72.2
			C326.1,311.5,315,312.8,309.9,318.3z M348.1,315.2l36.2-67.8l17,25.4c-15.7,8.8-25.6,21.6-33.3,44.4L348.1,315.2z M445.7,409.3
			c-50-3.5-62.1-48.8-62.1-48.8l62.1-5.1c8.4-0.8,14.6-5.5,15.5-8.8c0.2-4.9,4.2-17.7-10.4-22c-8.7-15.7-24.5-40.2-27.2-45.1
			c7.7-3.8,12.4-4.9,22.1-4.9c37.4,0,67.4,29.8,67.4,67.1C513.1,379.3,483,409.3,445.7,409.3z"/>
		<path class="st3" d="M472.5,75.5c10.8,8.3,20.6,16.6,29.9,25.9c9.8,9.8,19.1,20.3,27,31l-396.1,396c-10.8-7.8-22-17.9-31.8-27.7
			c-9.3-9.3-17.2-18.7-25.1-29l396-396L472.5,75.5z"/>
	</g>
</g>
</svg>
