<?xml version="1.0" encoding="utf-8"?>
<!-- Generator: Adobe Illustrator 19.2.0, SVG Export Plug-In . SVG Version: 6.00 Build 0)  -->
<svg version="1.1" id="Livello_1" xmlns="http://www.w3.org/2000/svg" xmlns:xlink="http://www.w3.org/1999/xlink" x="0px" y="0px"
	 viewBox="0 0 603.8 605" style="enable-background:new 0 0 603.8 605;" xml:space="preserve">
<style type="text/css">
	.st0{fill:#FFFFFF;stroke:#1A171B;stroke-width:1.8027;stroke-miterlimit:2.6131;}
	.st1{fill:#005EA7;}
	.st2{fill:#FFFFFF;}
</style>
<g>
	<g>
		<path class="st0" d="M301.9,2.5c165.2,0,300,134.8,300,300s-134.8,300-300,300s-300-134.8-300-300S136.7,2.5,301.9,2.5L301.9,2.5z
			"/>
		<path class="st1" d="M302.8,18.8c155.9,0,283.1,127.2,283.1,283.1S458.7,585,302.8,585S19.6,457.8,19.6,301.9
			C19.6,145.9,146.8,18.8,302.8,18.8L302.8,18.8z"/>
		<path class="st2" d="M95.8,392.2l46.3-95.8l-5.5-20.9l-21.2,23.8c-7.1,9.9-20.9-1.2-12.9-10.5c13.2-15.2,26.3-30.5,39.5-45.7
			c2.1-1.8,2.1-1.9,5.9-3.8c5.6-1.9,8.6-3.3,14.8-5c2.7-0.9,5.9,0.9,8.3,3.4c10.7,11.4,19.2,20.7,30,32.1c1.9,1.9,1.9,3.8,1.9,5.6
			c0,9.8,0,14.9,0,24.7c0,8.7-15.2,8.7-15.2,0v-20.7l-13.3-13.5l-4,28.9l35.5,98.4c3,8.7-14.5,14.5-18.1,6.4l-31.4-86.4L114.1,398
			C107.9,409.7,93,400.9,95.8,392.2L95.8,392.2z"/>
		<path class="st2" d="M152.6,203.1c7.9,0,14.3,6.4,14.3,14.3s-6.4,14.3-14.3,14.3s-14.3-6.4-14.3-14.3
			C138.3,209.5,144.7,203.1,152.6,203.1L152.6,203.1z"/>
		<path class="st2" d="M519.8,282.1c-5.5,0-11.1,1.2-15.9,3.2l-10.8-17.7l6.6-12.1c3.5,0,6.9,2.5,10.4,2.5c2.9-0.4,3-10.5-0.8-10.5
			c-6.2,0-18-0.4-23.9-0.4c-2.9,1-2.8,4.2,1.2,5.5c2.5,0,4.2,1,6.3,1l-6.8,12.5l-75.7-0.2l3.3-6.3c-2.7-8.7-3.7-12,0.8-14.6h18.1
			c4.4-0.7,3.6-5.5,0-6.3h-19c-7,0-9.3,7.6-9.3,11.3l1.9,9.5l-14.8,26.3c-5.2-2.2-11-3.7-17.2-3.7c-23.2,0-41.8,18.8-41.8,41.6
			c0,23,18.6,41.9,41.8,41.9c22.8,0,41.7-18.9,41.7-41.9c0-14.3-7.3-26.9-18.1-34.2l6.6-11l41.3,38.6c-1.4,8.6,0.1,16.4,13.9,18.1
			c6.2-0.1,13-0.4,19.9-1.1c4.7,18.3,21,31.5,40.3,31.5c23.2,0,41.9-18.9,41.9-41.9C561.7,300.8,543,282.1,519.8,282.1z M408,324.2
			c0,18.7-15.3,33.9-34.2,33.9c-18.8,0-34.1-15.2-34.1-33.9c0-18.8,15.2-34.4,34.1-34.4c5.2,0,9.7,1.2,13.8,3.1L374.3,316
			c-4.8,0.3-7.6,3.8-7.6,8.2c0,4,3.6,7.4,7.6,7.4c4.1,0,8-4.1,7.7-7.4c-0.3-3.5-1.6-4.5-1.6-4.6l13.7-23.6
			C402.5,302.4,408,312.8,408,324.2z M512.7,314c-8.5-0.3-24.5-1.7-24.5-1.8c3-8.4,6.2-12.4,13.2-17.4
			C501.4,294.8,508.7,307.5,512.7,314z M450.8,311.8l-40.8-39h72.2l-19.7,36.6C459,308.3,453.4,309,450.8,311.8z M470.2,310.2
			l18.4-34.4l8.6,12.9c-8,4.5-13,11-16.9,22.5L470.2,310.2z M519.7,358c-25.3-1.8-31.5-24.8-31.5-24.8l31.5-2.6
			c4.2-0.5,7.4-2.8,7.8-4.5c0.1-2.5,2.2-9-5.2-11.1c-4.4-7.9-12.5-20.3-13.8-22.8c3.9-1.9,6.3-2.5,11.2-2.5c19,0,34.2,15.1,34.2,34
			C553.9,342.8,538.6,358,519.7,358z"/>
		<polygon class="st2" points="292.9,12.8 311.9,12.8 311.9,591.8 292.9,591.8 		"/>
	</g>
</g>
</svg>
