<?xml version="1.0" encoding="utf-8"?>
<!-- Generator: Adobe Illustrator 19.2.0, SVG Export Plug-In . SVG Version: 6.00 Build 0)  -->
<svg version="1.1" id="Livello_1" xmlns="http://www.w3.org/2000/svg" xmlns:xlink="http://www.w3.org/1999/xlink" x="0px" y="0px"
	 viewBox="0 0 603.8 605" style="enable-background:new 0 0 603.8 605;" xml:space="preserve">
<style type="text/css">
	.st0{fill:#FFFFFF;stroke:#1A171B;stroke-width:1.8027;stroke-miterlimit:2.6131;}
	.st1{fill:#005EA7;}
	.st2{fill:#FFFFFF;}
</style>
<g>
	<path class="st0" d="M301.9,2.5c165.2,0,300,134.8,300,300s-134.8,300-300,300s-300-134.8-300-300S136.7,2.5,301.9,2.5L301.9,2.5z"
		/>
	<path class="st1" d="M302.8,18.8c155.9,0,283.1,127.2,283.1,283.1S458.7,585,302.8,585S19.6,457.8,19.6,301.9
		C19.6,145.9,146.8,18.8,302.8,18.8L302.8,18.8z"/>
	<path class="st2" d="M249.2,275.9l44.3-91.6l-5.2-20L268,187.1c-6.8,9.5-20-1.1-12.3-10.1c12.6-14.6,25.2-29.2,37.8-43.8
		c2-1.7,2-1.8,5.7-3.7c5.4-1.8,8.2-3.1,14.2-4.8c2.5-0.8,5.7,0.9,7.9,3.3c10.2,10.9,18.4,19.8,28.8,30.7c1.8,1.8,1.8,3.7,1.8,5.4
		c0,9.3,0,14.3,0,23.7c0,8.4-14.6,8.4-14.6,0V168l-12.7-12.9l-3.8,27.6l34,94.2c2.8,8.4-13.9,13.9-17.3,6.1l-30-82.7l-40.6,81.1
		C260.9,292.6,246.6,284.2,249.2,275.9L249.2,275.9z"/>
	<path class="st2" d="M303.6,94.9c7.5,0,13.7,6.1,13.7,13.7c0,7.5-6.1,13.7-13.7,13.7c-7.5,0-13.7-6.1-13.7-13.7
		C290,101,296.1,94.9,303.6,94.9L303.6,94.9z"/>
	<path class="st2" d="M374.5,421.5c-5.5,0-11.1,1.2-15.9,3.2L347.9,407l6.6-12c3.5,0,6.9,2.5,10.4,2.5c2.9-0.4,3-10.5-0.8-10.5
		c-6.2,0-18-0.4-23.9-0.4c-2.9,1-2.8,4.2,1.2,5.5c2.5,0,4.2,1,6.3,1l-6.8,12.5l-75.7-0.2l3.3-6.3c-2.7-8.7-3.7-12,0.8-14.6h18.1
		c4.4-0.7,3.6-5.5,0-6.3h-19c-6.9,0-9.3,7.6-9.3,11.3l1.9,9.5l-14.8,26.3c-5.2-2.2-11-3.7-17.2-3.7c-23.2,0-41.8,18.7-41.8,41.6
		c0,23,18.6,41.9,41.8,41.9c22.8,0,41.7-18.9,41.7-41.9c0-14.3-7.4-26.9-18.1-34.2l6.6-11l41.2,38.5c-1.4,8.6,0.1,16.4,13.9,18.1
		c6.2-0.1,13-0.4,19.9-1.1c4.7,18.3,21,31.5,40.3,31.5c23.2,0,41.9-18.9,41.9-41.9C416.4,440.2,397.7,421.5,374.5,421.5z
		 M262.8,463.6c0,18.7-15.3,33.9-34.2,33.9c-18.8,0-34-15.2-34-33.9c0-18.8,15.2-34.4,34-34.4c5.2,0,9.7,1.2,13.8,3.1l-13.3,23.1
		c-4.8,0.3-7.6,3.8-7.6,8.2c0,4,3.6,7.4,7.6,7.4c4.1,0,8-4.1,7.7-7.4c-0.3-3.5-1.6-4.5-1.6-4.6l13.7-23.6
		C257.3,441.8,262.8,452.2,262.8,463.6z M305.6,451.2l-40.8-39H337l-19.8,36.6C313.7,447.7,308.1,448.4,305.6,451.2z M325,449.5
		l18.4-34.4L352,428c-8,4.5-13,11-16.9,22.5L325,449.5z M356.2,434.2c0,0,7.3,12.7,11.3,19.2c-8.5-0.4-24.5-1.7-24.5-1.8
		C346,443.2,349.2,439.2,356.2,434.2z M374.5,497.3c-25.3-1.8-31.5-24.8-31.5-24.8l31.5-2.6c4.2-0.5,7.4-2.8,7.8-4.5
		c0.1-2.4,2.1-8.9-5.2-11.1c-4.4-8-12.5-20.4-13.8-22.9c3.9-1.9,6.3-2.5,11.2-2.5c19,0,34.2,15.2,34.2,34.1
		C408.7,482.1,393.4,497.3,374.5,497.3z"/>
</g>
</svg>
