<?xml version="1.0" encoding="utf-8"?>
<!-- Generator: Adobe Illustrator 19.2.0, SVG Export Plug-In . SVG Version: 6.00 Build 0)  -->
<svg version="1.1" id="Livello_1" xmlns="http://www.w3.org/2000/svg" xmlns:xlink="http://www.w3.org/1999/xlink" x="0px" y="0px"
	 viewBox="0 0 603.8 605" style="enable-background:new 0 0 603.8 605;" xml:space="preserve">
<style type="text/css">
	.st0{fill:#FFFFFF;stroke:#1A171B;stroke-width:1.8027;stroke-miterlimit:2.6131;}
	.st1{fill:#005EA7;}
	.st2{fill:#FFFFFF;}
	.st3{fill:#E1001A;}
</style>
<g>
	<g>
		<path class="st0" d="M301.9,2.5c165.2,0,300,134.8,300,300s-134.8,300-300,300s-300-134.8-300-300S136.7,2.5,301.9,2.5L301.9,2.5z
			"/>
		<path class="st1" d="M302.8,18.8c155.9,0,283.1,127.2,283.1,283.1S458.7,585,302.8,585S19.6,457.8,19.6,301.9
			C19.6,145.9,146.8,18.8,302.8,18.8L302.8,18.8z"/>
		<path class="st2" d="M96.1,392.5l46.4-95.8l-5.5-20.9l-21.2,23.9c-7.1,9.9-20.9-1.2-12.9-10.5c13.2-15.3,26.4-30.5,39.6-45.8
			c2.1-1.8,2.1-1.9,5.9-3.9c5.6-1.9,8.6-3.3,14.8-5c2.7-0.9,5.9,0.9,8.3,3.4c10.7,11.4,19.3,20.7,30.1,32.1c1.9,1.9,1.9,3.9,1.9,5.6
			c0,9.8,0,15,0,24.7c0,8.7-15.3,8.7-15.3,0v-20.7l-13.3-13.5l-4,28.9l35.6,98.5c3,8.7-14.5,14.5-18.1,6.4L157,313.4l-42.4,84.9
			C108.2,410,93.3,401.2,96.1,392.5L96.1,392.5z"/>
		<path class="st2" d="M152.9,203.2c7.9,0,14.3,6.4,14.3,14.3s-6.4,14.3-14.3,14.3s-14.3-6.4-14.3-14.3S145.1,203.2,152.9,203.2
			L152.9,203.2z"/>
		<path class="st2" d="M520.5,282.2c-5.5,0-11.1,1.3-15.9,3.3l-10.8-17.7l6.7-12.3c3.5,0,6.9,2.5,10.4,2.5c2.9-0.4,3-10.5-0.8-10.5
			c-6.2,0-18-0.5-23.9-0.5c-3,1-2.8,4.2,1.2,5.5c2.5,0,4.2,1,6.3,1l-6.8,12.6l-75.8-0.2l3.3-6.3c-2.7-8.7-3.7-12,0.8-14.6h18.2
			c4.4-0.7,3.6-5.5,0-6.3h-19.1c-6.9,0-9.3,7.6-9.3,11.3l1.9,9.5l-14.8,26.3c-5.3-2.2-11.1-3.7-17.3-3.7
			c-23.2,0-41.8,18.7-41.8,41.6c0,23,18.6,41.9,41.8,41.9c22.8,0,41.7-18.9,41.7-41.9c0-14.2-7.4-26.9-18.2-34.2l6.6-11l41.3,38.6
			c-1.5,8.7,0.1,16.5,13.9,18.2c6.3-0.1,13.1-0.4,20-1.1c4.7,18.3,21.1,31.5,40.4,31.5c23.2,0,41.9-18.9,41.9-41.9
			C562.4,300.9,543.7,282.2,520.5,282.2z M408.5,324.4c0,18.7-15.4,34-34.2,34s-34.1-15.2-34.1-34s15.3-34.4,34.1-34.4
			c5.2,0,9.8,1.2,13.8,3.1l-13.3,23.1c-4.8,0.3-7.6,3.8-7.6,8.2c0,4,3.6,7.4,7.6,7.4c4.2,0,8-4.1,7.7-7.4c-0.3-3.5-1.6-4.5-1.6-4.6
			l13.7-23.7C403,302.5,408.5,312.9,408.5,324.4z M513.4,314.2c-8.5-0.3-24.5-1.7-24.5-1.8c3-8.4,6.2-12.4,13.2-17.4
			C502.1,295,509.4,307.7,513.4,314.2z M451.4,312l-40.8-39h72.3l-19.8,36.6C459.6,308.5,454,309.2,451.4,312z M470.8,310.4
			l18.4-34.4l8.6,12.9c-8,4.5-13,11-16.9,22.5L470.8,310.4z M520.4,358.2c-25.3-1.8-31.5-24.8-31.5-24.8l31.5-2.6
			c4.2-0.5,7.4-2.8,7.8-4.5c0.1-2.4,2.1-8.9-5.2-11.1c-4.4-8-12.5-20.4-13.8-22.9c3.9-1.9,6.3-2.5,11.2-2.5
			c19,0,34.2,15.2,34.2,34.1C554.6,343,539.3,358.2,520.4,358.2z"/>
		<polygon class="st2" points="293.4,12.7 312.4,12.7 312.4,592.3 293.4,592.3 		"/>
		<path class="st3" d="M472.5,75.5c10.8,8.3,20.6,16.6,29.9,25.9c9.8,9.8,19.1,20.3,27,31l-396.1,396c-10.8-7.8-22-17.9-31.8-27.7
			c-9.3-9.3-17.2-18.7-25.1-29l396-396L472.5,75.5z"/>
	</g>
</g>
</svg>
