<?xml version="1.0" encoding="utf-8"?>
<!-- Generator: Adobe Illustrator 19.2.0, SVG Export Plug-In . SVG Version: 6.00 Build 0)  -->
<svg version="1.1" id="Livello_1" xmlns="http://www.w3.org/2000/svg" xmlns:xlink="http://www.w3.org/1999/xlink" x="0px" y="0px"
	 viewBox="0 0 603.8 605" style="enable-background:new 0 0 603.8 605;" xml:space="preserve">
<style type="text/css">
	.st0{fill:#FFFFFF;stroke:#1A171B;stroke-width:1.8027;stroke-miterlimit:2.6131;}
	.st1{fill:#005EA7;}
	.st2{fill:#FFFFFF;}
	.st3{fill:#E1001A;}
</style>
<g>
	<g>
		<path class="st0" d="M301.9,2.5c165.2,0,300,134.8,300,300s-134.8,300-300,300s-300-134.8-300-300S136.7,2.5,301.9,2.5L301.9,2.5z
			"/>
		<path class="st1" d="M302.8,18.7c155.9,0,283.1,127.2,283.1,283.1S458.7,584.9,302.8,584.9S19.7,457.7,19.7,301.8
			C19.6,145.9,146.8,18.7,302.8,18.7L302.8,18.7z"/>
		<path class="st2" d="M249.7,276l44.4-91.7l-5.2-20l-20.3,22.8c-6.8,9.5-20-1.1-12.3-10.1c12.6-14.6,25.2-29.2,37.9-43.8
			c2-1.7,2-1.8,5.7-3.7c5.4-1.8,8.2-3.1,14.2-4.8c2.6-0.8,5.7,0.9,7.9,3.3c10.2,10.9,18.4,19.8,28.8,30.8c1.8,1.8,1.8,3.7,1.8,5.4
			c0,9.4,0,14.3,0,23.7c0,8.4-14.6,8.4-14.6,0v-19.8l-12.8-12.9l-3.8,27.6l34,94.3c2.8,8.4-13.9,13.9-17.3,6.1l-30.2-82.9
			l-40.5,81.2C261.3,292.8,247,284.4,249.7,276L249.7,276z"/>
		<path class="st2" d="M304.1,94.9c7.5,0,13.7,6.1,13.7,13.7c0,7.5-6.1,13.7-13.7,13.7c-7.5,0-13.7-6.1-13.7-13.7
			C290.4,101.1,296.6,94.9,304.1,94.9L304.1,94.9z"/>
		<path class="st2" d="M375.1,421.8c-5.5,0-11.1,1.2-15.9,3.2l-10.8-17.7l6.8-12.3c3.5,0,6.9,2.5,10.4,2.5c2.9-0.4,3-10.5-0.8-10.5
			c-6.2,0-18-0.4-23.9-0.4c-2.9,1-2.8,4.2,1.2,5.5c2.5,0,4.2,1,6.3,1l-6.8,12.6l-75.8-0.2l3.3-6.3c-2.7-8.7-3.7-12,0.8-14.6H288
			c4.4-0.7,3.6-5.5,0-6.3h-19.1c-6.9,0-9.3,7.6-9.3,11.3l1.9,9.5l-14.8,26.3c-5.3-2.2-11.1-3.7-17.3-3.7
			c-23.2,0-41.8,18.7-41.8,41.6c0,23,18.6,41.9,41.8,41.9c22.8,0,41.7-18.9,41.7-41.9c0-14.2-7.4-26.9-18.2-34.2l6.6-11l41.3,38.6
			c-1.5,8.7,0.1,16.5,13.9,18.2c6.3-0.1,13-0.4,20-1.1c4.8,18.3,21.1,31.5,40.4,31.5c23.2,0,41.9-18.9,41.9-41.9
			C417,440.5,398.3,421.8,375.1,421.8z M263.2,463.8c0,18.7-15.4,34-34.2,34s-34.1-15.3-34.1-34c0-18.8,15.2-34.4,34.1-34.4
			c5.2,0,9.8,1.2,13.8,3.1l-13.3,23.2c-4.8,0.3-7.6,3.8-7.6,8.2c0,4,3.6,7.4,7.6,7.4c4.1,0,8-4.2,7.7-7.4c-0.3-3.5-1.6-4.5-1.6-4.6
			l13.7-23.7C257.7,442,263.2,452.4,263.2,463.8z M306,451.5l-40.8-39h72.3l-19.8,36.6C314.2,448,308.6,448.7,306,451.5z
			 M325.5,449.9l18.4-34.4l8.6,12.9c-8,4.5-13,11-16.9,22.5L325.5,449.9z M356.7,434.5c0,0,7.3,12.7,11.3,19.2
			c-8.5-0.3-24.5-1.7-24.5-1.8C346.5,443.5,349.7,439.5,356.7,434.5z M375.1,497.7c-25.3-1.8-31.5-24.8-31.5-24.8l31.5-2.6
			c4.2-0.5,7.4-2.8,7.8-4.5c0.1-2.5,2.1-9-5.2-11.1c-4.4-8-12.5-20.4-13.8-22.9c3.9-1.9,6.3-2.5,11.2-2.5c19,0,34.2,15.2,34.2,34.1
			C409.3,482.5,394,497.7,375.1,497.7z"/>
		<path class="st3" d="M472.5,75.5c10.8,8.3,20.6,16.6,29.9,25.9c9.8,9.8,19.1,20.3,27,31l-396.1,396c-10.8-7.8-22-17.9-31.8-27.7
			c-9.3-9.3-17.2-18.7-25.1-29l396-396L472.5,75.5z"/>
	</g>
</g>
</svg>
