<?xml version="1.0" encoding="utf-8"?>
<!-- Generator: Adobe Illustrator 19.2.0, SVG Export Plug-In . SVG Version: 6.00 Build 0)  -->
<svg version="1.1" id="Livello_1" xmlns="http://www.w3.org/2000/svg" xmlns:xlink="http://www.w3.org/1999/xlink" x="0px" y="0px"
	 viewBox="0 0 603.8 605" style="enable-background:new 0 0 603.8 605;" xml:space="preserve">
<style type="text/css">
	.st0{fill:#FFFFFF;stroke:#1A171B;stroke-width:1.8027;stroke-miterlimit:2.6131;}
	.st1{fill:#005EA7;}
	.st2{fill:#FFFFFF;}
	.st3{fill:#E1001A;}
</style>
<g>
	<g>
		<path class="st0" d="M301.9,2.5c165.2,0,300,134.8,300,300s-134.8,300-300,300s-300-134.8-300-300S136.7,2.5,301.9,2.5L301.9,2.5z
			"/>
		<path class="st1" d="M302.8,18.8c155.9,0,283.1,127.2,283.1,283.1S458.7,585,302.8,585S19.7,457.8,19.7,301.9
			C19.6,145.9,146.8,18.8,302.8,18.8L302.8,18.8z"/>
		<path class="st2" d="M228.6,485l-1.2-5.5c0-4.9,10.5-7.2,11.9-13.8c0-4.9,1.8-10.3-0.2-20.1c-12.7-25.1-22.2-53.9-30-81.8
			c-13.4,2.9-22.4,4.5-38.6,8.6c-9,3.7-8.6,20.6-8.2,33.3c6.4,5.3,10.7,8.2,17.7,8.4c1.6,0,4.3,2.9,7.8,2.9c2.9,0,6-2.3,8.6-3.1
			l4.7,3.3c3.5,6.2,5.5,9.5,8.6,17.5l-7.2,3.5c-6.2,0-7.8-4.7-14.2-8.2c-4.9,0-10.1,0-16.6,0c-5.8-10.7-23.8-6-27.8-16
			c0.4-17.3-1.4-27.1,0.6-39.7c1.8-6.4-0.6-10.1,13.8-17.3c11.3-7,25.1-12.5,39.5-20.4c-10.9-13.2-1.4-30.8-9.5-48.9
			c-6.4-4.7-4.9-8-12.9-14.6c-9.7-9.7-9.7-27.3-16.2-43.6l-4.9-4.9l-4.7,3.5c-1.8,6.2-4.9,12.7-9.9,19.3c1.8,7.8,1.8,8,0,14.6
			c-8.6,5.6-24.7,2.9-26.5-4.1c0.2-17.1,6.4-28,0-56.1l12.1-16c1.4-5.3-0.4-9-3.3-16.4c1,0,3.1-1.4,3.3-1.4
			c6.2,3.3,13.6,7.8,18.9,12.5c9.7-6.6,11.7-5.8,23-5.8c27.5,8,47.3,30.2,68.2,52.8c-6.4,8-11.9,14.8-9.9,28
			c1.8,11.9,9.7,11.1,22.4,12.9c-6.6,4.1-8.8,8-9.5,18.9l46.5,78.1c-8.2,0-16.7,1.2-25.5-0.8l-14.6-5.8
			c-8.8,26.9,3.9,62.3,11.1,90.7c0.6,2.9,4.5,7-2.3,13.8c-1.8,1.9-0.2,3.9,0.2,7.2c2.9,3.1,3.7,10.9,1.2,14.6
			C248.6,485,236.6,485,228.6,485L228.6,485z"/>
		<path class="st2" d="M295.4,485l1-6.2c4.7-7.6,13.2-8.2,13.4-13.2c0.2-4.9,6.2-11.5,11.9-15.2c9.5-15,14.8-33.1,23.2-51
			c-1.6-10.3-15.2-21.6-11.3-43.8c-4.9-0.2-11.3,1.4-17.9,2.7c2.5-5.3,2.7-8.4,1.2-14l-27.5-53.2c12.7-8.2,31.2-14.6,45.8-24.3
			c24.3-1.9,49.1-1.2,68.4,15.4c8.4-3.3,18.9-2.7,28.6-2.7c37,6,38.4,51,46.5,90c10.9,18.5,20.6,22,34.9,26.3
			c-24.5,7.2-33.9,2.9-50.2-8.2c-30.2-29.4-14.8-82.4-32.5-88.6c-8.4-2.9-13.8-6.2-20.1-2.1c3.5,9.7,5.5,20.6,4.1,31.7
			c-3.5,13.2-8.4,22-18.1,33.5c2.9,6.6,13.6,16.9,17.1,28.8c0,11.5-0.8,21.2,1,34.1c0,6.6,7.6,6.6,6.2,14.4
			c-0.8,8.8,6.6,1.2,13.2,2.7c0,4.9,10.5,14,11.9,22.2c-19.5,0-25.5,0.6-40.3-15c-3.1-9.9-5.3-18.3-7.6-29.2
			c-3.7-14.4-18.1-26.7-24.3-34.1c0,0-2.1,0.6-2.7,1.4c-6.8,9.7-8.2,17.3-8.4,32.7c-19.1,14-21.2,33.9-39.1,50.2
			c0,3.5,3.9,9.9,0.8,14.6C316.4,485,305.1,485,295.4,485L295.4,485z"/>
		<path class="st2" d="M291.1,359.4l-41.3-71.1c-3.1-6.2-3.3-9.9,2.1-14.8l50-29.4l-18.1-25.7l-33.5,39.5
			c-7.8,7.8-23.2-2.3-17.5-13.8l59.8-77.5c8.4-6.8,24.7-4.7,28.2,3.1l22.2,71.9c-0.4,7.2-3.5,13.6-9.7,16.9l-55.1,29.2l31.2,59.8
			C313.9,355.9,299.1,368,291.1,359.4L291.1,359.4z"/>
		<path class="st2" d="M285.1,119.3c11.7,0,21.3,9.6,21.3,21.3s-9.6,21.3-21.3,21.3c-11.7,0-21.3-9.6-21.3-21.3
			C263.8,128.8,273.3,119.3,285.1,119.3L285.1,119.3z"/>
		<path class="st3" d="M472.5,75.5c10.8,8.3,20.6,16.6,29.9,25.9c9.8,9.8,19.1,20.3,27,31l-396.1,396c-10.8-7.8-22-17.9-31.8-27.7
			c-9.3-9.3-17.2-18.7-25.1-29l396-396L472.5,75.5z"/>
	</g>
</g>
</svg>
