<?xml version="1.0" encoding="utf-8"?>
<!-- Generator: Adobe Illustrator 19.2.0, SVG Export Plug-In . SVG Version: 6.00 Build 0)  -->
<svg version="1.1" id="Livello_1" xmlns="http://www.w3.org/2000/svg" xmlns:xlink="http://www.w3.org/1999/xlink" x="0px" y="0px"
	 viewBox="0 0 603.8 605" style="enable-background:new 0 0 603.8 605;" xml:space="preserve">
<style type="text/css">
	.st0{fill:#FFFFFF;stroke:#1A171B;stroke-width:1.8027;stroke-miterlimit:2.6131;}
	.st1{fill:#E1001A;}
	.st2{fill:#FFFFFF;}
	.st3{fill:#1A171B;stroke:#1A171B;stroke-width:1.3597;stroke-miterlimit:2.6131;}
	.st4{fill:#1A171B;}
</style>
<g>
	<g>
		<path class="st0" d="M301.9,2.5c165.2,0,300,134.8,300,300s-134.8,300-300,300s-300-134.8-300-300S136.7,2.5,301.9,2.5L301.9,2.5z
			"/>
		<path class="st1" d="M302.8,18.7c155.9,0,283.1,127.2,283.1,283.1S458.7,584.9,302.8,584.9S19.7,457.7,19.7,301.8
			C19.6,145.9,146.8,18.7,302.8,18.7L302.8,18.7z"/>
		<path class="st2" d="M302.8,91.2c116.1,0,210.7,94.7,210.7,210.7s-94.7,210.7-210.7,210.7c-116.1,0-210.7-94.7-210.7-210.7
			S186.7,91.2,302.8,91.2L302.8,91.2z"/>
		<path class="st3" d="M159.3,275.6h289.6c13.7,0,25,11.3,25,25.2s-11.2,25.2-25,25.2H159.3c-13.7,0-25-11.3-25-25.2
			S145.6,275.6,159.3,275.6L159.3,275.6z"/>
		<path class="st4" d="M174.7,187.4v48.5h5.1c3.7,0,6.3-1.5,7.7-4.6c1.4-3.1,2.1-9.6,2.1-19.6s-0.7-16.5-2.1-19.6s-4-4.6-7.7-4.6
			L174.7,187.4L174.7,187.4z M162.7,176.7h18.6c7.3,0,12.4,2.6,15.3,7.8c2.9,5.2,4.4,14.3,4.4,27.4c0,13-1.5,22.1-4.4,27.3
			c-3,5.2-8.1,7.8-15.3,7.8h-18.6V176.7L162.7,176.7z M228.4,248c-2.6,0-5-0.4-7.3-1.3s-4.1-2-5.4-3.5c-2.3-2.5-4-6.1-5-10.9
			s-1.5-11.8-1.5-21.3c0-7.3,0.3-13,0.9-17.1s1.6-7.4,3-10s3.4-4.6,6-6s5.7-2.1,9.2-2.1c2.7,0,5.2,0.4,7.4,1.3
			c2.2,0.9,4.1,2.1,5.5,3.6c2.2,2.4,3.8,5.8,4.8,10.2c1,4.3,1.4,10.7,1.4,19.2c0,8.8-0.3,15.3-0.9,19.4s-1.6,7.5-3.1,10.2
			c-1.4,2.6-3.4,4.6-6,6.1C234.8,247.3,231.8,248,228.4,248L228.4,248z M221.1,211.7c0,10.3,0.5,17.2,1.6,20.4c1,3.3,2.9,5,5.6,5
			c2.8,0,4.7-1.6,5.8-4.8c1.1-3.2,1.6-10.3,1.6-21.3c0-9.8-0.5-16.2-1.6-19.4c-1-3.2-2.9-4.8-5.7-4.8c-2.8,0-4.7,1.6-5.7,4.9
			C221.6,194.9,221.1,201.5,221.1,211.7L221.1,211.7z M293.5,210v35.6c-3.8,0.9-7,1.5-9.6,1.8c-2.6,0.4-5,0.6-7.2,0.6
			c-3.4,0-6.4-0.4-8.7-1.2c-2.4-0.8-4.3-2-5.8-3.6c-2.3-2.5-4-6.1-4.9-10.7c-1-4.6-1.4-12.1-1.4-22.3c0-7.1,0.3-12.6,0.9-16.5
			s1.6-7.2,3-9.8c1.5-2.7,3.5-4.7,6.1-6.1c2.6-1.3,5.9-2,9.7-2c5.9,0,10.3,1.8,13.4,5.5c3.1,3.7,4.6,9,4.6,16v1.1H282v-0.9
			c0-4-0.6-6.9-1.7-8.8s-2.8-2.9-5.1-2.9c-2.9,0-4.9,1.6-6,4.8c-1.1,3.2-1.6,10.2-1.6,21.1c0,11.5,0.7,18.7,2,21.6
			c1.3,3,3.8,4.5,7.4,4.5c0.8,0,1.7-0.1,2.6-0.2s2-0.4,3.3-0.8v-15.7h-6.5v-11h17.1L293.5,210L293.5,210z M315.6,220.5h12l-5.8-30.4
			L315.6,220.5L315.6,220.5z M332.8,246.9l-3-15.6h-16.4l-3,15.6h-11.9l15.9-70.2h15l15.7,70.2H332.8L332.8,246.9z M351.1,246.9
			v-70.2h15.8l10.8,36.4c1.3,4.3,2.4,8.4,3.4,12.4s1.8,8,2.5,11.9c-0.3-3-0.5-6.2-0.7-9.5c-0.1-3.4-0.2-7-0.2-10.8l-0.7-40.4h10.9
			v70.2h-15.5l-11.3-38.4c-0.8-2.9-1.7-6.4-2.7-10.4s-2-8.5-3-13.3c0.3,4.4,0.5,8.3,0.7,11.7c0.1,3.4,0.2,6.2,0.3,8.6l0.7,41.8
			L351.1,246.9L351.1,246.9z M415.7,220.5h12l-5.8-30.4L415.7,220.5L415.7,220.5z M433,246.9l-3-15.6h-16.4l-3,15.6h-11.9l15.9-70.2
			h15l15.7,70.2H433L433,246.9z"/>
		<path class="st4" d="M186.2,364.7v48.5h4.9c3.6,0,6-1.5,7.4-4.6s2-9.6,2-19.6s-0.7-16.5-2-19.6s-3.8-4.6-7.4-4.6L186.2,364.7
			L186.2,364.7z M174.8,354.1h17.8c6.9,0,11.8,2.6,14.6,7.8c2.8,5.2,4.2,14.3,4.2,27.3s-1.4,22.1-4.2,27.3
			c-2.8,5.2-7.7,7.8-14.6,7.8h-17.8V354.1L174.8,354.1z M237.5,425.3c-2.5,0-4.8-0.4-6.9-1.3c-2.2-0.9-3.9-2-5.2-3.5
			c-2.2-2.5-3.8-6.1-4.8-10.9s-1.4-11.8-1.4-21.2c0-7.3,0.3-13,0.9-17.1s1.5-7.4,2.9-10c1.3-2.6,3.2-4.6,5.7-6s5.4-2.1,8.8-2.1
			c2.6,0,4.9,0.4,7.1,1.3c2.1,0.9,3.9,2.1,5.3,3.6c2.1,2.4,3.6,5.8,4.5,10.1s1.4,10.7,1.4,19.2c0,8.8-0.3,15.3-0.9,19.4
			s-1.6,7.5-3,10.2c-1.3,2.6-3.2,4.6-5.7,6.1S240.8,425.3,237.5,425.3L237.5,425.3z M230.6,389c0,10.3,0.5,17.1,1.5,20.4
			s2.8,4.9,5.4,4.9c2.7,0,4.5-1.6,5.5-4.8s1.5-10.3,1.5-21.3c0-9.7-0.5-16.2-1.5-19.4s-2.8-4.8-5.4-4.8s-4.5,1.6-5.5,4.9
			S230.6,378.9,230.6,389L230.6,389z M301.2,354.1V398c0,9.8-1.4,16.8-4.3,21c-2.8,4.2-7.5,6.3-14.1,6.3c-6.3,0-10.9-2.1-13.9-6.2
			s-4.5-10.5-4.5-19.1v-46h11.2v42.1c0,8,0.5,13.1,1.6,15.3c1,2.2,2.9,3.2,5.7,3.2c2.7,0,4.5-1.2,5.5-3.6s1.5-7.4,1.5-14.9V354
			L301.2,354.1L301.2,354.1z M323,397.8h11.5l-5.6-30.4L323,397.8L323,397.8z M339.4,424.2l-2.9-15.6h-15.6l-2.9,15.6h-11.3
			l15.2-70.1h14.4l15,70.1H339.4L339.4,424.2z M356.9,424.2v-70.1H372l10.3,36.4c1.2,4.3,2.3,8.4,3.2,12.4s1.7,8,2.4,11.9
			c-0.3-3-0.5-6.2-0.6-9.5c-0.1-3.4-0.2-7-0.2-10.8l-0.7-40.4h10.5v70.1h-14.8l-10.9-38.4c-0.8-2.9-1.7-6.3-2.6-10.4
			c-0.9-4-1.9-8.5-2.9-13.3c0.3,4.4,0.5,8.3,0.6,11.7s0.2,6.2,0.2,8.6l0.6,41.8L356.9,424.2L356.9,424.2z M406.4,424.2v-70.1h29.1
			v10.8h-17.8v16.7H434v10.8h-16.3v20.4h18.4v11.3L406.4,424.2L406.4,424.2z"/>
	</g>
</g>
</svg>
