<?xml version="1.0" encoding="utf-8"?>
<!-- Generator: Adobe Illustrator 19.2.0, SVG Export Plug-In . SVG Version: 6.00 Build 0)  -->
<svg version="1.1" id="Livello_1" xmlns="http://www.w3.org/2000/svg" xmlns:xlink="http://www.w3.org/1999/xlink" x="0px" y="0px"
	 viewBox="0 0 603.8 605" style="enable-background:new 0 0 603.8 605;" xml:space="preserve">
<style type="text/css">
	.st0{fill:#FFFFFF;stroke:#1A171B;stroke-width:1.8027;stroke-miterlimit:2.6131;}
	.st1{fill:#E1001A;}
	.st2{fill:#FFFFFF;}
	.st3{fill:#1A171B;stroke:#1A171B;stroke-width:1.3597;stroke-miterlimit:2.6131;}
	.st4{fill:#1A171B;}
</style>
<g>
	<g>
		<path class="st0" d="M301.9,2.5c165.2,0,300,134.8,300,300s-134.8,300-300,300s-300-134.8-300-300S136.7,2.5,301.9,2.5L301.9,2.5z
			"/>
		<path class="st1" d="M302.8,18.7c155.9,0,283.1,127.2,283.1,283.1S458.7,584.9,302.8,584.9S19.7,457.7,19.7,301.8
			C19.6,145.9,146.8,18.7,302.8,18.7L302.8,18.7z"/>
		<path class="st2" d="M302.8,91.2c116.1,0,210.7,94.7,210.7,210.7s-94.7,210.7-210.7,210.7c-116.1,0-210.7-94.7-210.7-210.7
			S186.7,91.2,302.8,91.2L302.8,91.2z"/>
		<path class="st3" d="M159.8,276.6h289.5c13.7,0,25,11.2,25,24.8s-11.2,24.8-25,24.8H159.8c-13.7,0-25-11.2-25-24.8
			S146.1,276.6,159.8,276.6L159.8,276.6z"/>
		<path class="st4" d="M263.3,221.8h11.6l-5.6-30.6L263.3,221.8L263.3,221.8z M279.8,248.4l-2.9-15.7h-15.7l-2.9,15.7h-11.4
			l15.2-70.7h14.4l15,70.7H279.8L279.8,248.4z M297.3,248.4v-70.7h11.4V236h16.5v12.5L297.3,248.4L297.3,248.4z M335.5,248.4v-59.1
			h-12.3v-11.6h36.3v11.6h-12.4v59.1H335.5L335.5,248.4z"/>
		<path class="st4" d="M196.8,353.8c6.9,0,11.7,1.5,14.3,4.5c2.6,3,4,8.3,4,15.9c0,3.5-0.4,6.6-1.1,9.4c-0.7,2.7-1.7,4.9-3.1,6.5
			c-1.3,1.6-2.9,2.7-4.6,3.4c-1.8,0.7-4.7,1-8.7,1h-0.7h-7v27.2h-12.8v-67.8h19.7L196.8,353.8L196.8,353.8z M189.7,364.5v19h4
			c3.5,0,5.9-0.7,7.1-2.1s1.8-3.9,1.8-7.6c0-3.5-0.6-6-1.7-7.3s-3.1-2-6.1-2H189.7L189.7,364.5z M241.2,422.7
			c-2.7,0-5.2-0.4-7.5-1.2s-4.2-2-5.6-3.4c-2.4-2.4-4.1-5.9-5.2-10.5c-1-4.6-1.6-11.4-1.6-20.5c0-7,0.3-12.6,0.9-16.5
			c0.6-4,1.7-7.2,3.1-9.7s3.5-4.4,6.2-5.8c2.7-1.3,5.9-2,9.5-2c2.8,0,5.4,0.4,7.7,1.3c2.3,0.8,4.2,2,5.7,3.5
			c2.3,2.4,3.9,5.6,4.9,9.8s1.5,10.4,1.5,18.5c0,8.5-0.3,14.8-0.9,18.7c-0.6,4-1.7,7.2-3.2,9.9c-1.4,2.5-3.5,4.5-6.2,5.9
			C247.8,422,244.7,422.7,241.2,422.7L241.2,422.7z M233.6,387.6c0,10,0.5,16.6,1.6,19.8s3,4.8,5.8,4.8c2.9,0,4.9-1.5,6-4.6
			s1.6-10,1.6-20.6c0-9.4-0.5-15.7-1.6-18.7c-1.1-3.1-3-4.6-5.9-4.6s-4.9,1.6-6,4.7C234.1,371.4,233.6,377.8,233.6,387.6
			L233.6,387.6z M270.5,421.7v-67.8h12.3v55.9h17.9v12L270.5,421.7L270.5,421.7L270.5,421.7z M307,421.7v-67.8h12v67.8H307
			L307,421.7z M324.5,421.7V410l24.2-45.2h-23.1v-10.9h35.3V366l-23.8,44.5h24.7v11.1h-37.3L324.5,421.7L324.5,421.7z M367.2,421.7
			v-67.8h11.9v67.8H367.2L367.2,421.7z M403,396.1h12.5l-6.1-29.4L403,396.1L403,396.1z M420.9,421.7l-3.1-15.1h-17l-3.1,15.1h-12.3
			l16.5-67.8h15.6l16.3,67.8H420.9L420.9,421.7z"/>
	</g>
</g>
</svg>
