<?xml version="1.0" encoding="utf-8"?>
<!-- Generator: Adobe Illustrator 19.2.0, SVG Export Plug-In . SVG Version: 6.00 Build 0)  -->
<svg version="1.1" id="Livello_1" xmlns="http://www.w3.org/2000/svg" xmlns:xlink="http://www.w3.org/1999/xlink" x="0px" y="0px"
	 viewBox="0 0 603.8 605" style="enable-background:new 0 0 603.8 605;" xml:space="preserve">
<style type="text/css">
	.st0{fill:#FFFFFF;stroke:#1A171B;stroke-width:1.8027;stroke-miterlimit:2.6131;}
	.st1{fill:#E1001A;}
	.st2{fill:#FFFFFF;}
	.st3{fill:#1A171B;stroke:#1A171B;stroke-width:1.3597;stroke-miterlimit:2.6131;}
	.st4{fill:#1A171B;}
</style>
<g>
	<g>
		<path class="st0" d="M301.9,2.5c165.2,0,300,134.8,300,300s-134.8,300-300,300s-300-134.8-300-300S136.7,2.5,301.9,2.5L301.9,2.5z
			"/>
		<path class="st1" d="M302.8,18.7c155.9,0,283.1,127.2,283.1,283.1S458.7,584.9,302.8,584.9S19.7,457.7,19.7,301.8
			C19.6,145.9,146.8,18.7,302.8,18.7L302.8,18.7z"/>
		<path class="st2" d="M302.8,91.2c116.1,0,210.7,94.7,210.7,210.7s-94.7,210.7-210.7,210.7c-116.1,0-210.7-94.7-210.7-210.7
			S186.7,91.2,302.8,91.2L302.8,91.2z"/>
		<path class="st3" d="M158.7,276.4h289.8c13.7,0,25,11.2,25,24.8c0,13.7-11.2,24.8-25,24.8H158.7c-13.7,0-25-11.2-25-24.8
			S145,276.4,158.7,276.4L158.7,276.4z"/>
		<path class="st4" d="M261.7,221.8h11.5l-5.6-30.7L261.7,221.8L261.7,221.8z M278.2,248.4l-2.9-15.7h-15.7l-2.9,15.7h-11.4
			l15.3-70.8H275l15,70.8H278.2L278.2,248.4z M295.7,248.4v-70.8h11.4v58.3h16.5v12.5H295.7L295.7,248.4z M333.9,248.4v-59.2h-12.3
			v-11.6h36.3v11.6h-12.4v59.2H333.9L333.9,248.4z"/>
		<path class="st4" d="M150.4,400.7h11.5v1.8c0,3.5,0.5,6,1.4,7.5s2.5,2.2,4.7,2.2c1.7,0,3.1-0.7,4.1-2s1.5-3.2,1.5-5.4
			c0-3.2-2.4-6.8-7.2-10.7c-0.3-0.2-0.6-0.4-0.7-0.5c-2.5-2.1-4.5-3.7-6-5s-2.6-2.4-3.3-3.3c-2-2.3-3.3-4.4-4.1-6.4
			c-0.7-2-1.1-4.5-1.1-7.4c0-5.7,1.5-10.2,4.6-13.6s7.2-5,12.5-5c5.4,0,9.5,1.6,12.2,4.7s4.1,7.8,4.1,13.9v1.8h-11.2v-0.4
			c0-3.2-0.5-5.6-1.4-7.2s-2.3-2.4-4.1-2.4c-1.7,0-3,0.6-4,1.9s-1.5,3-1.5,5.1c0,3.7,3.1,7.8,9.4,12.5c1.6,1.2,2.9,2.2,3.7,2.9
			c3.5,2.8,6,5.5,7.4,8.1s2.1,5.7,2.1,9.3c0,6.6-1.5,11.5-4.6,14.9c-3.1,3.3-7.6,5-13.7,5c-5.7,0-9.8-1.6-12.5-4.8s-4-8.1-4-14.9
			c0-0.2,0-0.6,0-1.1C150.4,401.4,150.4,401,150.4,400.7L150.4,400.7z M201.7,421.6V365h-12.3v-11.1h36.3V365h-12.4v56.6H201.7
			L201.7,421.6z M238.8,396.1h11.5l-5.6-29.3L238.8,396.1L238.8,396.1z M255.3,421.6l-2.9-15.1h-15.7l-2.9,15.1h-11.3l15.2-67.7
			h14.4l15,67.7L255.3,421.6L255.3,421.6z M268.1,421.6v-11.7l22.3-45.2h-21.3v-10.9h32.6v12.1l-22,44.6h22.8v11.1H268.1
			L268.1,421.6z M307.5,421.6v-67.7h11v67.7L307.5,421.6L307.5,421.6z M345.8,422.7c-2.5,0-4.8-0.4-7-1.2s-3.9-2-5.2-3.4
			c-2.2-2.4-3.8-5.9-4.8-10.5s-1.5-11.4-1.5-20.5c0-7,0.3-12.5,0.9-16.5s1.6-7.2,2.9-9.6c1.3-2.5,3.2-4.4,5.7-5.8
			c2.5-1.3,5.4-2,8.8-2c2.6,0,4.9,0.4,7.1,1.3c2.2,0.8,3.9,2,5.3,3.5c2.1,2.3,3.6,5.6,4.5,9.8s1.4,10.4,1.4,18.5
			c0,8.5-0.3,14.8-0.9,18.7c-0.6,4-1.6,7.2-3,9.8c-1.3,2.5-3.2,4.5-5.7,5.9C351.9,422,349,422.7,345.8,422.7L345.8,422.7z
			 M338.7,387.6c0,10,0.5,16.6,1.5,19.7c1,3.2,2.8,4.8,5.4,4.8c2.7,0,4.5-1.5,5.5-4.6s1.5-10,1.5-20.6c0-9.4-0.5-15.7-1.5-18.7
			c-1-3.1-2.8-4.6-5.4-4.6c-2.6,0-4.5,1.6-5.5,4.7C339.2,371.4,338.7,377.8,338.7,387.6L338.7,387.6z M372.8,421.6v-67.7h15.1
			l10.3,35.2c1.2,4.1,2.3,8.1,3.2,12s1.7,7.7,2.4,11.5c-0.3-2.9-0.5-6-0.6-9.2s-0.2-6.7-0.2-10.5l-0.7-39h10.4v67.7h-14.8
			l-10.8-37.1c-0.8-2.8-1.7-6.1-2.6-10c-0.9-3.9-1.9-8.2-2.9-12.9c0.3,4.3,0.5,8.1,0.6,11.3s0.2,6,0.3,8.3l0.6,40.4H372.8
			L372.8,421.6z M422.4,421.6v-67.7h29.2v10.5h-17.8v16.1h16.4v10.4h-16.4v19.8h18.5v10.9H422.4L422.4,421.6z"/>
	</g>
</g>
</svg>
