<?xml version="1.0" encoding="utf-8"?>
<!-- Generator: Adobe Illustrator 19.2.0, SVG Export Plug-In . SVG Version: 6.00 Build 0)  -->
<svg version="1.1" id="Livello_1" xmlns="http://www.w3.org/2000/svg" xmlns:xlink="http://www.w3.org/1999/xlink" x="0px" y="0px"
	 viewBox="0 0 765.1 521.2" style="enable-background:new 0 0 765.1 521.2;" xml:space="preserve">
<style type="text/css">
	.st0{fill:#FFFFFF;stroke:#1A171B;stroke-width:1.1838;stroke-miterlimit:2.6131;}
	.st1{fill:none;stroke:#1A171B;stroke-width:7.8917;stroke-miterlimit:2.6131;}
	.st2{fill:#1A171B;}
</style>
<g>
	<polygon class="st0" points="1.1,293.1 601.1,293.1 601.1,520.1 1.1,520.1 	"/>
	<path class="st1" d="M47.1,309.4h508.1c16.3,0,29.7,13.3,29.7,29.7v135.3c0,16.3-13.3,29.7-29.7,29.7H47.1
		c-16.3,0-29.7-13.3-29.7-29.7V339C17.4,322.7,30.8,309.4,47.1,309.4L47.1,309.4z"/>
	<path class="st2" d="M212.6,454.9c-1.3-0.4-2.4-1.2-3.2-2.4c-0.8-1.2-1.2-2.6-1.2-4.2c0-2.2,0.8-4,2.3-5.6c1.5-1.5,3.4-2.3,5.6-2.3
		c2.5,0,4.6,0.9,6.1,2.6c1.5,1.7,2.3,4,2.3,7c0,4.6-1.6,8.7-4.7,12.2s-7.1,5.6-12,6.4V466c1.6-1.8,2.8-3.5,3.6-5.2
		c0.8-1.7,1.2-3.4,1.2-5.2L212.6,454.9L212.6,454.9z"/>
	<path class="st2" d="M141.6,428l16.8-2.4c0.5,4.9,2,8.5,3.9,10.8c2.3,2.4,5.5,3.7,8.4,3.7c3,0,6.1-1.6,8.4-4.1
		c2.3-2.6,3.9-6.7,3.9-11.6c0-4.3-1.1-8.3-3.4-10.6c-2.3-2.4-5.5-4.1-8.4-4.1c-2,0-4.5,0.8-7.3,1.6l1.6-16.1c4.1,0,7.5-0.8,9.8-2.6
		c2.3-2.4,3.9-5.7,3.9-9.4c0-2.6-1.1-5.5-2.7-7.1c-1.6-2-4.1-3.1-6.8-3.1c-2.7,0-5.5,1-6.8,3.1c-2,2-3.4,5.3-3.4,8.7l-16.1-2.2
		c0.9-5.7,2.7-10.4,4.5-13.6c2.3-3.3,5.7-6.3,9.5-7.9c3.9-2,8.9-3.3,13.4-3.3c8.4,0,15.2,3.3,20.2,8.7c4.1,4.9,6.4,10.4,6.4,16.1
		c0,7.9-4.5,15-13.6,19.9c5,1,9.5,3.9,12.5,7.9c3.2,3.9,5,9.2,5,14.6c0,8.1-3,15.7-8.6,21.2c-5.9,5.7-12.9,8.7-21.4,8.7
		c-8.2,0-15-2.2-20.2-7.1C145.5,443.2,142.5,435.9,141.6,428L141.6,428z"/>
	<path class="st2" d="M382.6,408h12.8v6.4c4.3-4.9,9.7-7.5,15.7-7.5c3.3,0,6.2,0.7,8.4,1.8c2.5,1.3,4.5,3.3,6,5.7
		c2.1-2.4,4.7-4.4,7.2-5.5c2.5-1.3,5.6-2,8.4-2c3.7,0,7,0.7,9.5,2c2.5,1.5,4.7,3.6,6,6.2c0.8,1.8,1.4,5.1,1.4,9.5v29.3h-13.6v-26.1
		c0-4.4-0.6-7.5-1.4-8.8c-1.2-1.8-3.3-2.7-5.8-2.7c-1.9,0-3.7,0.6-5.4,1.6c-1.6,1.1-3.1,2.7-3.7,4.6c-0.6,1.8-1,5.1-1,9.5v21.9
		h-13.6v-25c0-4.4-0.2-7.5-0.6-8.6c-0.4-1.3-1.4-2.4-2.3-2.9c-1-0.7-2.7-1.1-4.3-1.1c-2.1,0-3.9,0.6-5.6,1.5
		c-1.6,1.1-2.9,2.6-3.5,4.4s-1,5.1-1,9.5v22.2h-13.6L382.6,408L382.6,408z"/>
	<polygon class="st2" points="328.2,453.9 328.2,390.5 341.8,390.5 341.8,424.2 358.1,408 375,408 356.9,425 375.8,453.9 
		361.4,453.9 348,433.4 341.8,439.4 341.8,453.9 	"/>
	<path class="st2" d="M285.6,425.9c-2.1-2.6-5.1-4.7-9.1-6c3.1-1.1,5.8-3.1,7.4-5.3s2.5-4.9,2.5-7.8c0-4.7-2.1-8.9-5.8-12
		c-3.7-2.9-9.1-4.6-15.7-4.6c-6.8,0-12.2,1.6-15.9,4.7c-3.7,2.9-5.6,7.1-5.6,11.8c0,2.5,0.8,5.3,2.5,7.7c1.4,2.2,4.1,4.2,7.8,5.3
		v0.2c-4.1,1.5-7.2,3.8-9.1,6.7c-1.9,2.7-2.9,6-2.9,9.3c0,6.2,2.7,11.1,7.6,14.8c4.1,2.9,9.7,4.4,16.1,4.4c7,0,12.8-1.8,16.9-5.5
		c4.1-3.6,6.4-8.4,6.4-14.2C288.9,431.9,287.7,428.6,285.6,425.9z M259,402.2c1.4-1.5,3.7-2.2,6.2-2.2s4.5,0.7,6.2,2.2
		c1.4,1.5,2.3,3.5,2.3,5.7c0,2.4-0.8,4.4-2.5,5.8c-1.4,1.3-3.7,2-6.2,2s-4.5-0.7-6-2c-1.4-1.3-2.3-3.3-2.3-5.8
		C256.8,405.6,257.6,403.6,259,402.2z M272.4,443.2c-1.6,1.8-4.1,2.7-7,2.7s-5.4-1.1-7.2-2.9c-1.6-1.8-2.7-4.5-2.7-7.9v0.1V435v0.1
		c0-2.3,0.8-4.7,2.5-6.8c1.4-2,3.9-3.1,7.2-3.1c2.9,0,5.4,1.1,7.2,2.9c1.9,1.8,2.9,4.4,2.9,7.3C275.3,438.6,274.3,441.4,272.4,443.2
		z"/>
</g>
<g>
	<polygon class="st0" points="1.1,1.1 601.1,1.1 601.1,228.1 1.1,228.1 	"/>
	<path class="st1" d="M47.1,17.4h508.1c16.3,0,29.7,13.3,29.7,29.7v135.3c0,16.3-13.3,29.7-29.7,29.7H47.1
		c-16.3,0-29.7-13.3-29.7-29.7V47C17.4,30.7,30.8,17.4,47.1,17.4L47.1,17.4z"/>
	<path class="st2" d="M396.8,113.2c5.7-9.1,28.7-8.8,32,1.6c8.1-13,34.4-10.1,34.4,5.9V163h-19.4v-33.5c0-3.3,0-9.8-6.1-9.8
		c-4.9,0-7.7,5.5-7.7,8.1V163h-19.4v-33.5c0-3.3,0-9.8-6.1-9.8c-4.9,0-7.7,5.5-7.7,8.1V163h-19.4c0-15.9,0-34.8,0-50.8
		c0-1.3-0.8-2.6-0.8-3.9H396L396.8,113.2L396.8,113.2z"/>
	<path class="st2" d="M124.8,136.4l18.4-2.4c0.5,4.8,2.2,8.4,4.2,10.6c2.5,2.4,6,3.6,9.2,3.6c3.2,0,6.7-1.6,9.2-4
		c2.5-2.6,4.2-6.6,4.2-11.4c0-4.2-1.2-8.2-3.7-10.4c-2.5-2.4-6-4-9.2-4c-2.2,0-5,0.8-8,1.6l1.7-15.9c4.5,0,8.2-0.8,10.7-2.6
		c2.5-2.4,4.2-5.6,4.2-9.2c0-2.6-1.2-5.4-3-7c-1.7-2-4.5-3-7.5-3s-6,1-7.5,3c-2.2,2-3.7,5.2-3.7,8.6l-17.6-2.2c1-5.6,3-10.2,5-13.5
		c2.5-3.2,6.2-6.2,10.4-7.8c4.2-2,9.7-3.2,14.7-3.2c9.2,0,16.6,3.2,22.1,8.6c4.5,4.8,7,10.2,7,15.9c0,7.8-5,14.9-14.9,19.7
		c5.5,1,10.4,3.8,13.7,7.8c3.5,3.8,5.5,9,5.5,14.5c0,8-3.2,15.5-9.4,20.9c-6.5,5.6-14.2,8.6-23.4,8.6c-8.9,0-16.4-2.2-22.1-7
		C129.1,151.5,125.8,144.2,124.8,136.4L124.8,136.4z M267.2,145v16.7h-67.6c0.2-6.4,3-12.3,6.2-17.9c3.2-5.4,10.9-13.3,21.4-22.7
		c8.2-7.2,14.2-12.7,15.7-15.5c2.5-3.4,4.2-7.4,4.2-11c0-3.8-1.2-7-3.2-9c-2.5-2.4-6-3.4-10.2-3.4c-3.7,0-7,1-9.2,3
		c-2.5,2.4-4,6.4-4,11l-19.1-1.6c0.7-9.4,4.5-16.9,10.2-20.9c6-4.2,13.9-6.6,23.1-6.6c9.9,0,17.9,2.8,23.6,7.4
		c6,5.2,8.9,11.8,8.9,18.9c0,4-1,8.4-2.5,12.3c-1.7,4-4.7,8.2-7.9,12.2c-2.2,2.4-6.7,6.6-12.7,11.8c-6.2,5-10.4,8.6-11.9,10.2
		c-1.7,1.6-3.5,3.4-4.2,5L267.2,145L267.2,145z M311.7,67.1c9.2,0,17.1,3.6,22.6,9.8c6.7,7.8,9.9,20.9,9.9,38.6
		c0,17.3-3.2,30.3-9.9,38.2c-5.5,6.4-13.4,9.4-22.6,9.4c-9.9,0-17.9-3.4-23.9-10.2c-5.7-7-8.7-19.7-8.7-37.7
		c0-17.3,3.5-30.3,9.7-38.2C294.3,70.7,302.3,67.1,311.7,67.1L311.7,67.1z M311.7,82.2c-2.5,0-4.5,0.6-6.2,1.8
		c-1.7,1.6-3.7,4.4-4.5,8c-1,4.6-1.7,12.4-1.7,23.5c0,11,0.7,18.5,1.7,22.5c0.7,4,2.5,7,4,8.2c1.7,1.2,4.2,2,6.7,2
		c2.2,0,4.2-0.8,6-2c1.5-1.2,3.7-3.8,4.5-7.4c1.2-4.4,2-12.2,2-23.3c0-11-0.7-18.9-1.5-22.9c-1.2-3.8-3-7-4.7-8.2
		C316.4,82.8,313.9,82.2,311.7,82.2L311.7,82.2z"/>
</g>
<g>
	<path d="M763.9,153h-17l-6.8-17.6h-30.9l-6.4,17.6h-16.6l30.1-77.3h16.5L763.9,153z M735.2,122.4l-10.7-28.7l-10.4,28.7H735.2z"/>
</g>
<g>
	<path d="M694.4,369.5h30.9c6.1,0,10.7,0.3,13.7,0.8s5.7,1.6,8.1,3.2s4.4,3.8,5.9,6.5s2.4,5.7,2.4,9c0,3.6-1,6.9-2.9,10
		c-1.9,3.1-4.6,5.3-7.9,6.8c4.7,1.4,8.3,3.7,10.9,7s3.8,7.2,3.8,11.7c0,3.5-0.8,6.9-2.5,10.3s-3.9,6-6.7,8s-6.3,3.2-10.5,3.7
		c-2.6,0.3-8.9,0.5-18.8,0.5h-26.3v-77.5H694.4z M710.1,382.4v17.9h10.2c6.1,0,9.9-0.1,11.3-0.3c2.7-0.3,4.8-1.2,6.3-2.8
		s2.3-3.5,2.3-6c0-2.4-0.7-4.3-2-5.8s-3.3-2.4-5.9-2.7c-1.5-0.2-6-0.3-13.3-0.3L710.1,382.4L710.1,382.4z M710.1,413.1v20.7h14.4
		c5.6,0,9.2-0.2,10.7-0.5c2.3-0.4,4.2-1.5,5.7-3.1s2.2-3.8,2.2-6.6c0-2.3-0.6-4.3-1.7-5.9c-1.1-1.6-2.8-2.8-4.9-3.5
		c-2.1-0.7-6.7-1.1-13.8-1.1L710.1,413.1L710.1,413.1z"/>
</g>
</svg>
