<?xml version="1.0" encoding="utf-8"?>
<!-- Generator: Adobe Illustrator 19.2.0, SVG Export Plug-In . SVG Version: 6.00 Build 0)  -->
<svg version="1.1" id="Livello_1" xmlns="http://www.w3.org/2000/svg" xmlns:xlink="http://www.w3.org/1999/xlink" x="0px" y="0px"
	 viewBox="0 0 960 960" style="enable-background:new 0 0 960 960;" xml:space="preserve">
<style type="text/css">
	.st0{opacity:1.000000e-002;fill:#FFFFFF;}
	.st1{fill:#FFFFFF;stroke:#1A171B;stroke-width:1.1838;stroke-miterlimit:2.6131;}
	.st2{fill:none;stroke:#1A171B;stroke-width:7.8917;stroke-miterlimit:2.6131;}
	.st3{fill-rule:evenodd;clip-rule:evenodd;fill:#1A171B;}
</style>
<rect class="st0" width="1" height="1"/>
<rect x="959" y="959" class="st0" width="1" height="1"/>
<polygon class="st1" points="180,366.5 780,366.5 780,593.5 180,593.5 180,366.5 "/>
<path class="st2" d="M225.9,382.8h508.1c16.3,0,29.7,13.3,29.7,29.7v135.3c0,16.3-13.3,29.7-29.7,29.7H225.9
	c-16.3,0-29.7-13.3-29.7-29.7V412.4C196.3,396.1,209.6,382.8,225.9,382.8L225.9,382.8z"/>
<path class="st3" d="M391.4,528.3c-1.3-0.4-2.4-1.2-3.2-2.4c-0.8-1.2-1.2-2.6-1.2-4.2c0-2.2,0.8-4,2.3-5.6c1.5-1.5,3.4-2.3,5.6-2.3
	c2.5,0,4.6,0.9,6.1,2.6c1.5,1.7,2.3,4,2.3,7c0,4.6-1.6,8.7-4.7,12.2c-3.1,3.5-7.1,5.6-12,6.4v-2.6c1.6-1.8,2.8-3.5,3.6-5.2
	c0.8-1.7,1.2-3.4,1.2-5.2V528.3L391.4,528.3z"/>
<path class="st3" d="M320.5,501.4l16.8-2.4c0.5,4.9,2,8.5,3.9,10.8c2.3,2.4,5.5,3.7,8.4,3.7c3,0,6.1-1.6,8.4-4.1
	c2.3-2.6,3.9-6.7,3.9-11.6c0-4.3-1.1-8.3-3.4-10.6c-2.3-2.4-5.5-4.1-8.4-4.1c-2,0-4.5,0.8-7.3,1.6l1.6-16.1c4.1,0,7.5-0.8,9.8-2.6
	c2.3-2.4,3.9-5.7,3.9-9.4c0-2.6-1.1-5.5-2.7-7.1c-1.6-2-4.1-3.1-6.8-3.1c-2.7,0-5.5,1-6.8,3.1c-2,2-3.4,5.3-3.4,8.7L322,456
	c0.9-5.7,2.7-10.4,4.5-13.6c2.3-3.3,5.7-6.3,9.5-7.9c3.9-2,8.9-3.3,13.4-3.3c8.4,0,15.2,3.3,20.2,8.7c4.1,4.9,6.4,10.4,6.4,16.1
	c0,7.9-4.5,15-13.6,19.9c5,1,9.5,3.9,12.5,7.9c3.2,3.9,5,9.2,5,14.6c0,8.1-3,15.7-8.6,21.2c-5.9,5.7-12.9,8.7-21.4,8.7
	c-8.2,0-15-2.2-20.2-7.1C324.3,516.6,321.4,509.3,320.5,501.4L320.5,501.4z"/>
<path class="st3" d="M561.5,481.4h12.8v6.4c4.3-4.9,9.7-7.5,15.7-7.5c3.3,0,6.2,0.7,8.4,1.8c2.5,1.3,4.5,3.3,6,5.7
	c2.1-2.4,4.7-4.4,7.2-5.5c2.5-1.3,5.6-2,8.4-2c3.7,0,7,0.7,9.5,2c2.5,1.5,4.7,3.6,6,6.2c0.8,1.8,1.4,5.1,1.4,9.5v29.3h-13.6v-26.1
	c0-4.4-0.6-7.5-1.4-8.8c-1.2-1.8-3.3-2.7-5.8-2.7c-1.9,0-3.7,0.6-5.4,1.6c-1.6,1.1-3.1,2.7-3.7,4.6c-0.6,1.8-1,5.1-1,9.5v21.9h-13.6
	v-25c0-4.4-0.2-7.5-0.6-8.6c-0.4-1.3-1.4-2.4-2.3-2.9c-1-0.7-2.7-1.1-4.3-1.1c-2.1,0-3.9,0.6-5.6,1.5c-1.6,1.1-2.9,2.6-3.5,4.4
	c-0.6,1.8-1,5.1-1,9.5v22.2h-13.6V481.4L561.5,481.4z"/>
<polygon class="st3" points="507.1,527.3 507.1,463.9 520.7,463.9 520.7,497.6 537,481.4 553.8,481.4 535.7,498.4 554.7,527.3 
	540.2,527.3 526.9,506.8 520.7,512.8 520.7,527.3 507.1,527.3 "/>
<path class="st3" d="M464.5,499.3c-2.1-2.6-5.1-4.7-9.1-6c3.1-1.1,5.8-3.1,7.4-5.3s2.5-4.9,2.5-7.8c0-4.7-2.1-8.9-5.8-12
	c-3.7-2.9-9.1-4.6-15.7-4.6c-6.8,0-12.2,1.6-15.9,4.7c-3.7,2.9-5.6,7.1-5.6,11.8c0,2.5,0.8,5.3,2.5,7.7c1.4,2.2,4.1,4.2,7.8,5.3v0.2
	c-4.1,1.5-7.2,3.8-9.1,6.7c-1.9,2.7-2.9,6-2.9,9.3c0,6.2,2.7,11.1,7.6,14.8c4.1,2.9,9.7,4.4,16.1,4.4c7,0,12.8-1.8,16.9-5.5
	c4.1-3.6,6.4-8.4,6.4-14.2C467.7,505.3,466.5,502,464.5,499.3z M437.9,475.6c1.4-1.5,3.7-2.2,6.2-2.2c2.5,0,4.5,0.7,6.2,2.2
	c1.4,1.5,2.3,3.5,2.3,5.7c0,2.4-0.8,4.4-2.5,5.8c-1.4,1.3-3.7,2-6.2,2c-2.5,0-4.5-0.7-6-2c-1.4-1.3-2.3-3.3-2.3-5.8
	C435.6,479,436.4,477,437.9,475.6z M451.3,516.6c-1.6,1.8-4.1,2.7-7,2.7c-2.9,0-5.4-1.1-7.2-2.9c-1.6-1.8-2.7-4.5-2.7-7.9
	c0,0,0,0.1,0,0.1v-0.2c0,0,0,0.1,0,0.1c0-2.3,0.8-4.7,2.5-6.8c1.4-2,3.9-3.1,7.2-3.1c2.9,0,5.4,1.1,7.2,2.9c1.9,1.8,2.9,4.4,2.9,7.3
	C454.2,512,453.1,514.8,451.3,516.6z"/>
</svg>
