<?xml version="1.0" encoding="utf-8"?>
<!-- Generator: Adobe Illustrator 19.2.0, SVG Export Plug-In . SVG Version: 6.00 Build 0)  -->
<svg version="1.1" id="Livello_1" xmlns="http://www.w3.org/2000/svg" xmlns:xlink="http://www.w3.org/1999/xlink" x="0px" y="0px"
	 viewBox="0 0 960 960" style="enable-background:new 0 0 960 960;" xml:space="preserve">
<style type="text/css">
	.st0{opacity:1.000000e-002;fill:#FFFFFF;}
	.st1{fill:#FFFFFF;stroke:#1A171B;stroke-width:1.1837;stroke-miterlimit:2.6131;}
	.st2{fill:none;stroke:#1A171B;stroke-width:7.8916;stroke-miterlimit:2.6131;}
	.st3{fill-rule:evenodd;clip-rule:evenodd;fill:#1A171B;}
</style>
<rect class="st0" width="1" height="1"/>
<rect x="959" y="959" class="st0" width="1" height="1"/>
<g>
	<polygon class="st1" points="180,366.5 780,366.5 780,593.5 180,593.5 180,366.5 	"/>
	<path class="st2" d="M225.9,382.8h508.1c16.3,0,29.7,13.3,29.7,29.7v135.3c0,16.3-13.3,29.7-29.7,29.7H225.9
		c-16.3,0-29.7-13.3-29.7-29.7V412.4C196.3,396.1,209.6,382.8,225.9,382.8L225.9,382.8z"/>
	<path class="st3" d="M583.4,482.4c4.8-8.4,24.2-8.1,26.9,1.5c6.8-12,29-9.3,29,5.4v39h-16.4v-30.9c0-3,0-9-5.1-9
		c-4.1,0-6.5,5.1-6.5,7.5v32.4H595v-30.9c0-3,0-9-5.1-9c-4.1,0-6.5,5.1-6.5,7.5v32.4H567c0-14.7,0-32.1,0-46.9
		c0-1.2-0.7-2.4-0.7-3.6h16.4L583.4,482.4L583.4,482.4z"/>
	<polygon class="st3" points="689.4,525.9 689.4,466.2 669.4,466.2 699.3,417.6 731.6,466.2 709.1,466.2 709.1,525.9 689.4,525.9 	
		"/>
	<polygon class="st3" points="251.5,528.6 251.5,468.9 231.5,468.9 261.4,420.3 293.7,468.9 271.2,468.9 271.2,528.6 251.5,528.6 	
		"/>
	<path class="st3" d="M338,499.2l16.8-2.1c0.3,4.5,1.8,8.2,3.9,10.4c2.1,2.1,5.2,3.5,8.4,3.5c3.1,0,6.3-1.3,8.7-4
		c2.4-2.7,3.7-6.6,3.7-11.4c0-4.5-1-8.2-3.1-10.9c-2.1-2.7-5-4-8.1-4c-1.8,0-4.5,0.5-7.1,1.3l1.6-14.1c4.2,0,7.9-0.8,10-2.9
		c2.4-2.1,3.7-5.1,3.7-8.8c0-2.9-1.1-5.6-2.6-7.2c-1.6-1.9-4.2-2.9-6.8-2.9c-2.6,0-5.2,1.1-7.1,3.2c-1.8,2.1-3.1,5.3-3.4,9
		l-16.3-2.7c1-5.6,2.6-10.4,4.7-13.6c2.1-3.2,5.5-6.1,9.2-8c3.9-1.9,8.4-2.9,13.1-2.9c8.4,0,15.2,2.9,20.2,8.5
		c4.2,4.3,6.3,9.6,6.3,15.2c0,8-4.5,14.6-13.1,19.4c5.2,1.1,9.4,3.7,12.6,7.4c3.1,4,4.7,9,4.7,14.6c0,8-2.9,15.2-8.7,20.7
		c-5.8,5.8-13.1,8.8-21.8,8.8c-7.9,0-15-2.4-20.2-7.2c-5.2-4.8-8.7-11.4-9.2-19.1V499.2L338,499.2z"/>
	<path class="st3" d="M530.3,441c-4.7-6.4-11.8-9.8-20.7-9.8c-8.9,0-16,3.2-21,9.6c-5.8,7.4-8.9,20.2-8.9,37.8
		c0,17.6,2.9,30.1,8.1,37c5.2,6.9,12.9,10.4,21.8,10.4c8.9,0,16-3.2,20.7-9.3c6-7.4,9.2-20.2,9.2-37.8
		C539.5,461.2,536.3,448.5,530.3,441z M519.3,501.7c-1,3.5-2.6,6.1-4.2,7.4c-1.6,1.1-3.4,1.9-5.5,1.9c-2.1,0-4.5-0.8-6-2.1
		c-1.6-1.1-2.9-4-3.9-8c-1-3.7-1.6-11.4-1.6-22.1c0-10.6,0.8-18.6,1.8-23.1c0.8-3.5,2.4-6.1,3.9-7.4c1.6-1.3,3.7-2.1,5.8-2.1
		c2.1,0,4.2,0.8,5.8,2.1c1.6,1.3,3.1,4.3,4.2,8.2c1,4,1.6,11.7,1.6,22.3C521.1,489.4,520.3,497.4,519.3,501.7z"/>
	<path class="st3" d="M464.4,483.3c-2.6-3.7-6.6-6.9-11.5-8.8c3.9-1.6,7.3-4.5,9.4-7.7c2.1-3.2,3.1-7.2,3.1-11.4
		c0-6.9-2.6-13-7.3-17.6c-4.7-4.3-11.5-6.6-19.9-6.6c-8.7,0-15.5,2.4-20.2,6.9c-4.7,4.3-7.1,10.4-7.1,17.3c0,3.7,1,7.7,3.1,11.2
		c1.8,3.2,5.2,6.1,10,7.7v0.3c-5.2,2.1-9.2,5.6-11.5,9.8c-2.4,4-3.7,8.8-3.7,13.6c0,9,3.4,16.2,9.7,21.5c5.2,4.3,12.3,6.4,20.5,6.4
		c8.9,0,16.3-2.7,21.5-8c5.2-5.3,8.1-12.2,8.1-20.7C468.6,492.1,467.1,487.3,464.4,483.3z M430.6,448.2c1.8-2.1,4.7-3.2,7.9-3.2
		s5.8,1.1,7.9,3.2c1.8,2.1,2.9,5.1,2.9,8.2c0,3.5-1,6.4-3.1,8.5c-1.8,1.9-4.7,2.9-7.9,2.9s-5.8-1.1-7.6-2.9
		c-1.8-1.9-2.9-4.8-2.9-8.5C427.7,453.3,428.8,450.3,430.6,448.2z M447.6,508c-2.1,2.7-5.2,4-8.9,4s-6.8-1.6-9.2-4.3
		c-2.1-2.6-3.4-6.6-3.4-11.6c0,0,0,0.1,0,0.1v-0.3c0,0,0,0.1,0,0.1c0-3.4,1.1-6.8,3.1-10c1.8-2.9,5-4.5,9.2-4.5
		c3.7,0,6.8,1.6,9.2,4.3c2.4,2.7,3.7,6.4,3.7,10.6C451.3,501.4,450,505.4,447.6,508z"/>
</g>
</svg>
