<?xml version="1.0" encoding="utf-8"?>
<!-- Generator: Adobe Illustrator 19.2.0, SVG Export Plug-In . SVG Version: 6.00 Build 0)  -->
<svg version="1.1" id="Livello_1" xmlns="http://www.w3.org/2000/svg" xmlns:xlink="http://www.w3.org/1999/xlink" x="0px" y="0px"
	 viewBox="0 0 960 960" style="enable-background:new 0 0 960 960;" xml:space="preserve">
<style type="text/css">
	.st0{opacity:1.000000e-002;fill:#FFFFFF;}
	.st1{fill:#FFFFFF;stroke:#1A171B;stroke-width:1.1837;stroke-miterlimit:2.6131;}
	.st2{fill:none;stroke:#1A171B;stroke-width:7.8916;stroke-miterlimit:2.6131;}
	.st3{fill-rule:evenodd;clip-rule:evenodd;fill:#1A171B;}
</style>
<rect class="st0" width="1" height="1"/>
<rect x="959" y="959" class="st0" width="1" height="1"/>
<polygon class="st1" points="180,366.5 780,366.5 780,593.5 180,593.5 180,366.5 "/>
<path class="st2" d="M225.9,382.8h508.1c16.3,0,29.7,13.3,29.7,29.7v135.3c0,16.3-13.3,29.7-29.7,29.7H225.9
	c-16.3,0-29.7-13.3-29.7-29.7V412.4C196.3,396.1,209.6,382.8,225.9,382.8L225.9,382.8z"/>
<path class="st3" d="M418.4,528c-1.3-0.4-2.4-1.3-3.2-2.5c-0.8-1.2-1.2-2.7-1.2-4.4c0-2.2,0.8-4.2,2.3-5.8c1.5-1.6,3.4-2.4,5.6-2.4
	c2.5,0,4.6,0.9,6.1,2.6c1.5,1.8,2.3,4.1,2.3,7.2c0,4.7-1.6,8.9-4.7,12.5c-3.1,3.6-7.1,5.8-12,6.6v-2.7c1.6-1.8,2.8-3.6,3.6-5.3
	c0.8-1.7,1.2-3.5,1.2-5.3V528L418.4,528z"/>
<path class="st3" d="M401.4,511.4v17.2h-56.6c0.2-6.6,2.4-12.5,5.2-18.5c2.8-5.5,9.2-13.6,18-23.4c6.9-7.4,11.9-12.9,13.1-15.9
	c2.1-3.4,3.5-7.6,3.5-11.2c0-4-1-7.4-2.6-9.3c-2.1-2.5-5-3.6-8.6-3.6c-3.1,0-5.9,1.1-7.6,3.2c-2.2,2.3-3.5,6.6-3.5,11.3l-16.1-1.5
	c0.7-9.8,3.8-17.4,8.6-21.7c5-4.2,11.6-6.8,19.3-6.8c8.3,0,15,3,19.9,7.6c5,5.3,7.4,12.3,7.4,19.5c0,4-0.9,8.7-2.1,12.5
	c-1.4,4.2-4,8.5-6.7,12.7c-1.7,2.3-5.5,6.8-10.5,12.1c-5.2,5.3-8.8,8.9-10,10.6c-1.6,1.7-2.9,3.4-3.6,5.1H401.4L401.4,511.4z"/>
<path class="st3" d="M564.6,481.6h12.2v6.4c4.1-4.9,9.3-7.5,15-7.5c3.2,0,5.9,0.7,8.1,1.8c2.4,1.3,4.3,3.3,5.7,5.7
	c2-2.4,4.5-4.4,6.9-5.5c2.4-1.3,5.3-2,8.1-2c3.5,0,6.7,0.7,9.1,2c2.4,1.5,4.5,3.6,5.7,6.2c0.8,1.8,1.4,5.1,1.4,9.5v29.3h-13v-26.1
	c0-4.4-0.6-7.5-1.4-8.7c-1.2-1.8-3.2-2.7-5.5-2.7c-1.8,0-3.5,0.5-5.1,1.6c-1.6,1.1-3,2.7-3.5,4.6c-0.6,1.8-1,5.1-1,9.5v21.9h-13v-25
	c0-4.4-0.2-7.5-0.6-8.6c-0.4-1.3-1.4-2.4-2.2-2.9c-1-0.7-2.6-1.1-4.1-1.1c-2,0-3.8,0.5-5.3,1.5c-1.6,1.1-2.8,2.6-3.4,4.4
	c-0.6,1.8-1,5.1-1,9.5v22.2h-13V481.6L564.6,481.6z"/>
<polygon class="st3" points="512.5,527.6 512.5,464.1 525.5,464.1 525.5,497.8 541.1,481.6 557.3,481.6 539.9,498.6 558,527.6 
	544.2,527.6 531.4,507 525.5,513 525.5,527.6 512.5,527.6 "/>
<path class="st3" d="M479.9,498.3c-1.8-2.6-4.6-4.9-8-6.2c2.7-1.1,5.1-3.2,6.6-5.4c1.5-2.3,2.2-5.1,2.2-8.1c0-4.9-1.8-9.2-5.1-12.4
	c-3.3-3-8-4.7-13.9-4.7c-6,0-10.8,1.7-14.1,4.9c-3.3,3-4.9,7.3-4.9,12.2c0,2.6,0.7,5.4,2.2,7.9c1.3,2.3,3.6,4.3,6.9,5.4v0.2
	c-3.6,1.5-6.4,3.9-8,6.9c-1.6,2.8-2.6,6.2-2.6,9.6c0,6.4,2.4,11.5,6.8,15.2c3.6,3,8.6,4.5,14.2,4.5c6.2,0,11.3-1.9,15-5.6
	c3.6-3.8,5.7-8.6,5.7-14.7C482.8,504.5,481.7,501.2,479.9,498.3z M456.4,473.7c1.3-1.5,3.3-2.3,5.5-2.3c2.2,0,4,0.8,5.5,2.3
	c1.3,1.5,2,3.6,2,5.8c0,2.4-0.7,4.5-2.2,6c-1.3,1.3-3.3,2.1-5.5,2.1c-2.2,0-4-0.8-5.3-2.1c-1.3-1.3-2-3.4-2-6
	C454.4,477.3,455.1,475.2,456.4,473.7z M468.2,516c-1.5,1.9-3.6,2.8-6.2,2.8c-2.6,0-4.7-1.1-6.4-3c-1.4-1.9-2.4-4.6-2.4-8.2
	c0,0,0,0.1,0,0.1v-0.2c0,0,0,0.1,0,0.1c0-2.4,0.7-4.8,2.2-7.1c1.3-2.1,3.5-3.2,6.4-3.2c2.6,0,4.7,1.1,6.4,3c1.6,1.9,2.6,4.5,2.6,7.5
	C470.8,511.3,469.9,514.1,468.2,516z"/>
<polygon class="st3" points="689.4,525.9 689.4,466.2 669.4,466.2 699.3,417.6 731.6,466.2 709.1,466.2 709.1,525.9 689.4,525.9 "/>
<polygon class="st3" points="251.5,528.6 251.5,468.9 231.5,468.9 261.4,420.3 293.7,468.9 271.2,468.9 271.2,528.6 251.5,528.6 "/>
</svg>
