<?xml version="1.0" encoding="utf-8"?>
<!-- Generator: Adobe Illustrator 19.2.0, SVG Export Plug-In . SVG Version: 6.00 Build 0)  -->
<svg version="1.1" id="Livello_1" xmlns="http://www.w3.org/2000/svg" xmlns:xlink="http://www.w3.org/1999/xlink" x="0px" y="0px"
	 viewBox="0 0 960 960" style="enable-background:new 0 0 960 960;" xml:space="preserve">
<style type="text/css">
	.st0{fill:#FFFFFF;stroke:#1A171B;stroke-width:1.2748;stroke-miterlimit:2.6131;}
	.st1{fill:none;stroke:#1A171B;stroke-width:8.4987;stroke-miterlimit:2.6131;}
	.st2{fill-rule:evenodd;clip-rule:evenodd;fill:#1A171B;}
</style>
<polygon class="st0" points="698.3,503.3 98.3,503.3 98.3,785.7 698.3,785.7 698.3,503.3 "/>
<path class="st1" d="M156.9,523.9H640c22.4,0,40.8,18.4,40.8,40.8v160.4c0,22.4-18.4,40.8-40.8,40.8H156.9
	c-22.4,0-40.8-18.4-40.8-40.8V564.8C116.1,542.3,134.4,523.9,156.9,523.9L156.9,523.9z"/>
<path class="st2" d="M446,697.5h-15.7v-79.3c-5.7,6.9-12.8,12.6-20.4,15.7V615c3.8-1.6,8.3-5,13.1-10.1c4.8-5,8.3-11,10.2-17.6H446
	V697.5L446,697.5z"/>
<path class="st2" d="M241.1,677.6l10.5-1.7c0.2,3.7,1.1,6.7,2.5,8.5c1.3,1.7,3.3,2.8,5.2,2.8c2,0,3.9-1.1,5.4-3.3
	c1.5-2.2,2.3-5.4,2.3-9.3c0-3.7-0.7-6.7-2-8.9c-1.3-2.2-3.1-3.3-5.1-3.3c-1.1,0-2.8,0.4-4.4,1.1l1-11.5c2.6,0,4.9-0.6,6.2-2.4
	c1.5-1.7,2.3-4.1,2.3-7.2c0-2.4-0.7-4.6-1.6-5.9c-1-1.5-2.6-2.4-4.3-2.4c-1.6,0-3.3,0.9-4.4,2.6c-1.1,1.7-2,4.3-2.1,7.4l-10.2-2.2
	c0.7-4.6,1.6-8.5,2.9-11.1c1.3-2.6,3.4-5,5.7-6.5c2.5-1.5,5.2-2.4,8.2-2.4c5.2,0,9.5,2.4,12.6,6.9c2.6,3.5,3.9,7.8,3.9,12.4
	c0,6.5-2.8,11.9-8.2,15.8c3.3,0.9,5.9,3,7.9,6.1c2,3.3,2.9,7.4,2.9,11.9c0,6.5-1.8,12.4-5.4,16.9c-3.6,4.8-8.2,7.2-13.6,7.2
	c-4.9,0-9.3-2-12.6-5.9c-3.3-3.9-5.4-9.3-5.7-15.6V677.6L241.1,677.6z"/>
<path class="st2" d="M164.1,608.7v-19.5h54.2v15.1c-4.5,5.7-9.3,14.5-13.8,25.2c-4.8,11-8.3,23-10.7,34.9
	c-2.4,12.3-3.6,23.6-3.6,33.1h-15.7c0-15.1,2.6-30.5,7.1-46.3c4.5-15.7,10.7-29.9,18.1-42.5H164.1L164.1,608.7z"/>
<path class="st2" d="M626.7,630.1c-2.9-5.2-7.4-8-12.9-8c-5.6,0-10,2.6-13.1,7.8c-3.6,6.1-5.6,16.5-5.6,30.8
	c0,14.3,1.8,24.5,5.1,30.2c3.3,5.6,8,8.5,13.6,8.5c5.6,0,10-2.6,12.9-7.6c3.8-6.1,5.7-16.5,5.7-30.8
	C632.5,646.6,630.5,636.2,626.7,630.1z M619.9,679.6c-0.7,2.8-1.6,5-2.6,6.1c-1,0.9-2.1,1.5-3.4,1.5c-1.3,0-2.8-0.7-3.8-1.7
	c-1-0.9-1.8-3.3-2.5-6.5c-0.7-3-1-9.3-1-18c0-8.7,0.5-15.2,1.1-18.9c0.5-2.8,1.5-5,2.5-6.1c1-1.1,2.3-1.7,3.6-1.7
	c1.3,0,2.6,0.7,3.6,1.7c1,1.1,2,3.5,2.6,6.7c0.7,3.3,1,9.5,1,18.2C621,669.6,620.5,676.1,619.9,679.6z"/>
<path class="st2" d="M582.5,630.1c-2.9-5.2-7.4-8-12.9-8c-5.6,0-10,2.6-13.1,7.8c-3.6,6.1-5.6,16.5-5.6,30.8
	c0,14.3,1.8,24.5,5.1,30.2c3.3,5.6,8,8.5,13.6,8.5c5.6,0,10-2.6,12.9-7.6c3.8-6.1,5.7-16.5,5.7-30.8
	C588.2,646.6,586.3,636.2,582.5,630.1z M575.6,679.6c-0.7,2.8-1.6,5-2.6,6.1c-1,0.9-2.1,1.5-3.4,1.5c-1.3,0-2.8-0.7-3.8-1.7
	c-1-0.9-1.8-3.3-2.5-6.5c-0.7-3-1-9.3-1-18c0-8.7,0.5-15.2,1.1-18.9c0.5-2.8,1.5-5,2.5-6.1c1-1.1,2.3-1.7,3.6-1.7
	c1.3,0,2.6,0.7,3.6,1.7c1,1.1,2,3.5,2.6,6.7c0.7,3.3,1,9.5,1,18.2C576.8,669.6,576.3,676.1,575.6,679.6z"/>
<path class="st2" d="M515.9,600.2c-5.2-8.5-12.4-12.9-20.7-12.9c-7.6,0-14.3,3.5-19,10.4c-4.7,6.6-7.4,15.7-7.4,26.8
	c0,10.7,2.4,19.5,7.1,26.1c4.5,6.3,10.2,9.8,16.6,9.8c5.9,0,11.2-3.1,15-9.1c-0.5,12.6-2.1,21.1-4.3,24.9c-2.1,3.8-5,5.7-8.3,5.7
	c-2.4,0-4.8-0.9-6.2-2.8c-1.4-1.9-2.6-5-2.9-9.1l-15.2,2.2c1,9.1,3.8,16.4,7.6,20.8c3.8,4.4,9.3,6.6,15.5,6.6
	c8.8,0,16.2-4.4,21.9-13.2c5.5-8.8,8.3-23.3,8.3-43.4C524,623.2,521.1,608.7,515.9,600.2z M506.4,626.6c0,6-1.2,10.7-3.3,13.8
	c-1.9,3.2-4.8,4.7-7.6,4.7c-3.1,0-5.9-1.9-7.8-5c-1.9-3.1-3.1-8.5-3.1-15.4c0-6.9,1-12,2.9-15.1c1.9-3.2,4.3-4.7,7.1-4.7
	c3.1,0,5.9,1.9,8.3,5.7c2.4,3.8,3.6,9.1,3.6,15.7V626.6z"/>
<polygon class="st2" points="358.3,676.7 358.3,663.4 384.4,663.4 384.4,676.7 358.3,676.7 "/>
<path class="st2" d="M317,630.1c-2.9-5.2-7.4-8-12.9-8c-5.6,0-10,2.6-13.1,7.8c-3.6,6.1-5.6,16.5-5.6,30.8c0,14.3,1.8,24.5,5.1,30.2
	c3.3,5.6,8,8.5,13.6,8.5c5.6,0,10-2.6,12.9-7.6c3.8-6.1,5.7-16.5,5.7-30.8C322.7,646.6,320.7,636.2,317,630.1z M310.1,679.6
	c-0.7,2.8-1.6,5-2.6,6.1c-1,0.9-2.1,1.5-3.4,1.5c-1.3,0-2.8-0.7-3.8-1.7c-1-0.9-1.8-3.3-2.5-6.5c-0.7-3-1-9.3-1-18
	c0-8.7,0.5-15.2,1.1-18.9c0.5-2.8,1.5-5,2.5-6.1c1-1.1,2.3-1.7,3.6-1.7c1.3,0,2.6,0.7,3.6,1.7c1,1.1,2,3.5,2.6,6.7
	c0.7,3.3,1,9.5,1,18.2C311.2,669.6,310.8,676.1,310.1,679.6z"/>
<path class="st2" d="M526.8,700.4c-1.3-0.4-2.3-1.1-3-2.1c-0.7-1.1-1.1-2.3-1.1-3.7c0-1.9,0.7-3.5,2.2-4.9c1.5-1.4,3.2-2,5.3-2
	c2.4,0,4.4,0.8,5.8,2.3c1.4,1.5,2.1,3.5,2.1,6.1c0,4.1-1.5,7.6-4.4,10.7c-3,3.1-6.7,5-11.4,5.7v-2.3c1.5-1.5,2.7-3.1,3.4-4.6
	c0.8-1.5,1.1-3,1.1-4.5V700.4L526.8,700.4z"/>
<path class="st2" d="M214,700.4c-1.3-0.4-2.3-1.1-3-2.1c-0.7-1.1-1.1-2.3-1.1-3.7c0-1.9,0.7-3.5,2.2-4.9c1.5-1.4,3.2-2,5.3-2
	c2.4,0,4.4,0.8,5.8,2.3c1.4,1.5,2.2,3.5,2.2,6.1c0,4.1-1.5,7.6-4.4,10.7c-3,3.1-6.7,5-11.4,5.7v-2.3c1.5-1.5,2.7-3.1,3.4-4.6
	c0.8-1.5,1.1-3,1.1-4.5V700.4L214,700.4z"/>
<polygon class="st0" points="698.3,180.3 98.3,180.3 98.3,462.7 698.3,462.7 698.3,180.3 "/>
<path class="st1" d="M156.9,200.9H640c22.4,0,40.8,18.4,40.8,40.8v160.4c0,22.4-18.4,40.8-40.8,40.8H156.9
	c-22.4,0-40.8-18.4-40.8-40.8V241.8C116.1,219.3,134.4,200.9,156.9,200.9L156.9,200.9z"/>
<path class="st2" d="M477.9,356.4v19.1h-80.5c0.7-7.1,3.4-14.2,7.5-20.3c4.4-6.5,13.3-15.1,26.3-25.5c10.2-8.6,17.1-14.5,19.1-17.5
	c3.4-4.3,5.1-8.6,5.1-12.6c0-4.6-1.4-8.3-4.1-10.8c-2.7-2.5-7.2-3.7-11.9-3.7c-4.8,0-9.2,1.2-11.9,3.7c-2.7,2.5-4.8,6.8-4.8,12.3
	l-22.5-1.8c1.4-11.1,5.8-19.1,12.6-24c7.2-4.9,16.4-7.4,27-7.4c11.6,0,21.2,3.1,28,8.6c6.8,5.5,10.2,12.9,10.2,21.5
	c0,4.6-1,9.2-3.1,13.5c-2.1,4.3-5.1,9.2-9.2,13.8c-2.7,3.1-8.2,7.7-15.4,13.5c-7.5,5.8-12.3,9.8-14,11.7c-2,1.8-3.8,4-4.8,5.8H477.9
	L477.9,356.4z"/>
<path class="st2" d="M558.4,336.1v-68.3h-19.8l-50.5,68.6v17.5h47.8v21.5h22.5v-21.5h15v-17.9H558.4z M535.9,336.1h-26.6l26.6-35.7
	V336.1z"/>
<polygon class="st2" points="336,339.2 336,318.9 371.7,318.9 371.7,339.2 336,339.2 "/>
<path class="st2" d="M290.4,279.1c-6.1-7.4-15.4-11.4-27-11.4c-11.6,0-20.8,3.7-27.3,11.1c-7.5,8.6-11.6,23.4-11.6,43.7
	c0,20.3,3.8,34.8,10.6,42.8c6.8,8,16.7,12,28.3,12c11.6,0,20.8-3.7,27-10.8c7.8-8.6,11.9-23.4,11.9-43.7
	C302.3,302.5,298.2,287.8,290.4,279.1z M276,349.3c-1.4,4-3.4,7.1-5.5,8.6c-2,1.2-4.4,2.2-7.2,2.2c-2.7,0-5.8-0.9-7.8-2.5
	c-2-1.2-3.8-4.6-5.1-9.2c-1.4-4.3-2-13.2-2-25.5c0-12.3,1-21.5,2.4-26.8c1-4,3.1-7.1,5.1-8.6c2-1.5,4.8-2.5,7.5-2.5
	c2.7,0,5.5,0.9,7.5,2.5c2,1.5,4.1,4.9,5.5,9.5c1.4,4.6,2,13.5,2,25.9C278.4,335.2,277.4,344.4,276,349.3z"/>
<g>
	<path d="M861.1,355.7h-17l-6.8-17.6h-30.9l-6.4,17.6h-16.6l30.1-77.3h16.5L861.1,355.7z M832.4,325.1l-10.7-28.7l-10.4,28.7H832.4z
		"/>
</g>
<g>
	<path d="M791.6,614.9h30.9c6.1,0,10.7,0.3,13.7,0.8s5.7,1.6,8.1,3.2s4.4,3.8,5.9,6.5s2.4,5.7,2.4,9c0,3.6-1,6.9-2.9,10
		s-4.6,5.3-7.9,6.8c4.7,1.4,8.3,3.7,10.9,7s3.8,7.2,3.8,11.7c0,3.5-0.8,6.9-2.5,10.3s-3.9,6-6.7,8c-2.8,2-6.3,3.2-10.5,3.7
		c-2.6,0.3-8.9,0.5-18.8,0.5h-26.3V614.9z M807.3,627.8v17.9h10.2c6.1,0,9.9-0.1,11.3-0.3c2.7-0.3,4.8-1.2,6.3-2.8s2.3-3.5,2.3-6
		c0-2.4-0.7-4.3-2-5.8s-3.3-2.4-5.9-2.7c-1.5-0.2-6-0.3-13.3-0.3H807.3z M807.3,658.5v20.7h14.4c5.6,0,9.2-0.2,10.7-0.5
		c2.3-0.4,4.2-1.5,5.7-3.1c1.5-1.6,2.2-3.8,2.2-6.6c0-2.3-0.6-4.3-1.7-5.9c-1.1-1.6-2.8-2.8-4.9-3.5c-2.1-0.7-6.7-1.1-13.8-1.1
		H807.3z"/>
</g>
</svg>
