<?xml version="1.0" encoding="utf-8"?>
<!-- Generator: Adobe Illustrator 19.2.0, SVG Export Plug-In . SVG Version: 6.00 Build 0)  -->
<svg version="1.1" id="Livello_1" xmlns="http://www.w3.org/2000/svg" xmlns:xlink="http://www.w3.org/1999/xlink" x="0px" y="0px"
	 viewBox="0 0 602.1 345.1" style="enable-background:new 0 0 602.1 345.1;" xml:space="preserve">
<style type="text/css">
	.st0{opacity:1.000000e-002;fill:#FFFFFF;enable-background:new    ;}
	.st1{fill:#FFFFFF;stroke:#1A171B;stroke-width:1.2748;stroke-miterlimit:2.6131;}
	.st2{fill:none;stroke:#1A171B;stroke-width:8.4987;stroke-miterlimit:2.6131;}
	.st3{fill:#1A171B;}
</style>
<rect x="-179.2" y="-54.7" class="st0" width="1" height="1"/>
<rect x="779.8" y="904.3" class="st0" width="1" height="1"/>
<polygon class="st1" points="600.8,61.7 0.8,61.7 0.8,344.1 600.8,344.1 "/>
<path class="st2" d="M59.3,82.3h483.1c22.4,0,40.8,18.4,40.8,40.8v160.4c0,22.4-18.4,40.8-40.8,40.8H59.3
	c-22.4,0-40.8-18.4-40.8-40.8V123.2C18.5,100.7,36.9,82.3,59.3,82.3L59.3,82.3z"/>
<path class="st3" d="M380.3,237.8v19.1h-80.5c0.7-7.1,3.4-14.2,7.5-20.3c4.4-6.5,13.3-15.1,26.3-25.5c10.2-8.6,17.1-14.5,19.1-17.5
	c3.4-4.3,5.1-8.6,5.1-12.6c0-4.6-1.4-8.3-4.1-10.8c-2.7-2.5-7.2-3.7-11.9-3.7c-4.8,0-9.2,1.2-11.9,3.7c-2.7,2.5-4.8,6.8-4.8,12.3
	l-22.5-1.8c1.4-11.1,5.8-19.1,12.6-24c7.2-4.9,16.4-7.4,27-7.4c11.6,0,21.2,3.1,28,8.6s10.2,12.9,10.2,21.5c0,4.6-1,9.2-3.1,13.5
	s-5.1,9.2-9.2,13.8c-2.7,3.1-8.2,7.7-15.4,13.5c-7.5,5.8-12.3,9.8-14,11.7c-2,1.8-3.8,4-4.8,5.8L380.3,237.8L380.3,237.8z"/>
<path class="st3" d="M460.8,217.5v-68.3H441l-50.5,68.6v17.5h47.8v21.6h22.5v-21.5h15v-17.9H460.8z M438.3,217.5h-26.6l26.6-35.7
	V217.5z"/>
<polygon class="st3" points="238.4,220.6 238.4,200.3 274.1,200.3 274.1,220.6 "/>
<path class="st3" d="M192.8,160.5c-6.1-7.4-15.4-11.4-27-11.4s-20.8,3.7-27.3,11.1c-7.5,8.6-11.6,23.4-11.6,43.7s3.8,34.8,10.6,42.8
	c6.8,8,16.7,12,28.3,12c11.6,0,20.8-3.7,27-10.8c7.8-8.6,11.9-23.4,11.9-43.7C204.8,183.9,200.7,169.2,192.8,160.5z M178.5,230.7
	c-1.4,4-3.4,7.1-5.5,8.6c-2,1.2-4.4,2.2-7.2,2.2c-2.7,0-5.8-0.9-7.8-2.5c-2-1.2-3.8-4.6-5.1-9.2c-1.4-4.3-2-13.2-2-25.5
	c0-12.3,1-21.5,2.4-26.8c1-4,3.1-7.1,5.1-8.6s4.8-2.5,7.5-2.5s5.5,0.9,7.5,2.5c2,1.5,4.1,4.9,5.5,9.5s2,13.5,2,25.9
	C180.9,216.6,179.9,225.8,178.5,230.7z"/>
</svg>
