<?xml version="1.0" encoding="utf-8"?>
<!-- Generator: Adobe Illustrator 19.2.0, SVG Export Plug-In . SVG Version: 6.00 Build 0)  -->
<svg version="1.1" id="Livello_1" xmlns="http://www.w3.org/2000/svg" xmlns:xlink="http://www.w3.org/1999/xlink" x="0px" y="0px"
	 viewBox="0 0 602.6 345.2" style="enable-background:new 0 0 602.6 345.2;" xml:space="preserve">
<style type="text/css">
	.st0{opacity:1.000000e-002;fill:#FFFFFF;enable-background:new    ;}
	.st1{fill:#FFFFFF;stroke:#1A171B;stroke-width:1.2748;stroke-miterlimit:2.6131;}
	.st2{fill:none;stroke:#1A171B;stroke-width:8.4987;stroke-miterlimit:2.6131;}
	.st3{fill:#1A171B;}
</style>
<rect x="-178.9" y="-55.8" class="st0" width="1" height="1"/>
<rect x="780.1" y="903.2" class="st0" width="1" height="1"/>
<polygon class="st1" points="601.1,61.6 1.1,61.6 1.1,344 601.1,344 "/>
<path class="st2" d="M59.6,82.2h483.1c22.4,0,40.8,18.4,40.8,40.8v160.4c0,22.4-18.4,40.8-40.8,40.8H59.6
	c-22.4,0-40.8-18.4-40.8-40.8V123.1C18.8,100.6,37.2,82.2,59.6,82.2L59.6,82.2z"/>
<path class="st3" d="M348.8,255.8h-15.7v-79.3c-5.7,6.9-12.8,12.6-20.4,15.7v-18.9c3.8-1.6,8.3-5,13.1-10.1c4.8-5,8.3-11,10.2-17.6
	h12.8V255.8L348.8,255.8z"/>
<path class="st3" d="M143.9,235.9l10.5-1.7c0.2,3.7,1.1,6.7,2.5,8.5c1.3,1.7,3.3,2.8,5.2,2.8c2,0,3.9-1.1,5.4-3.3s2.3-5.4,2.3-9.3
	c0-3.7-0.7-6.7-2-8.9c-1.3-2.2-3.1-3.3-5.1-3.3c-1.1,0-2.8,0.4-4.4,1.1l1-11.5c2.6,0,4.9-0.6,6.2-2.4c1.5-1.7,2.3-4.1,2.3-7.2
	c0-2.4-0.7-4.6-1.6-5.9c-1-1.5-2.6-2.4-4.3-2.4c-1.6,0-3.3,0.9-4.4,2.6s-2,4.3-2.1,7.4l-10.2-2.2c0.7-4.6,1.6-8.5,2.9-11.1
	s3.4-5,5.7-6.5c2.5-1.5,5.2-2.4,8.2-2.4c5.2,0,9.5,2.4,12.6,6.9c2.6,3.5,3.9,7.8,3.9,12.4c0,6.5-2.8,11.9-8.2,15.8
	c3.3,0.9,5.9,3,7.9,6.1c2,3.3,2.9,7.4,2.9,11.9c0,6.5-1.8,12.4-5.4,16.9c-3.6,4.8-8.2,7.2-13.6,7.2c-4.9,0-9.3-2-12.6-5.9
	c-3.3-3.9-5.4-9.3-5.7-15.6l0,0H143.9z"/>
<path class="st3" d="M66.8,167v-19.5H121v15.1c-4.5,5.7-9.3,14.5-13.8,25.2c-4.8,11-8.3,23-10.7,34.9c-2.4,12.3-3.6,23.6-3.6,33.1
	H77.2c0-15.1,2.6-30.5,7.1-46.3c4.5-15.7,10.7-29.9,18.1-42.5L66.8,167L66.8,167z"/>
<path class="st3" d="M529.5,188.4c-2.9-5.2-7.4-8-12.9-8c-5.6,0-10,2.6-13.1,7.8c-3.6,6.1-5.6,16.5-5.6,30.8s1.8,24.5,5.1,30.2
	c3.3,5.6,8,8.5,13.6,8.5c5.6,0,10-2.6,12.9-7.6c3.8-6.1,5.7-16.5,5.7-30.8C535.2,204.9,533.3,194.5,529.5,188.4z M522.6,237.9
	c-0.7,2.8-1.6,5-2.6,6.1c-1,0.9-2.1,1.5-3.4,1.5c-1.3,0-2.8-0.7-3.8-1.7c-1-0.9-1.8-3.3-2.5-6.5c-0.7-3-1-9.3-1-18
	s0.5-15.2,1.1-18.9c0.5-2.8,1.5-5,2.5-6.1c1-1.1,2.3-1.7,3.6-1.7s2.6,0.7,3.6,1.7c1,1.1,2,3.5,2.6,6.7c0.7,3.3,1,9.5,1,18.2
	C523.8,227.9,523.3,234.4,522.6,237.9z"/>
<path class="st3" d="M485.3,188.4c-2.9-5.2-7.4-8-12.9-8c-5.6,0-10,2.6-13.1,7.8c-3.6,6.1-5.6,16.5-5.6,30.8s1.8,24.5,5.1,30.2
	c3.3,5.6,8,8.5,13.6,8.5s10-2.6,12.9-7.6c3.8-6.1,5.7-16.5,5.7-30.8C491,204.9,489,194.5,485.3,188.4z M478.4,237.9
	c-0.7,2.8-1.6,5-2.6,6.1c-1,0.9-2.1,1.5-3.4,1.5c-1.3,0-2.8-0.7-3.8-1.7c-1-0.9-1.8-3.3-2.5-6.5c-0.7-3-1-9.3-1-18
	s0.5-15.2,1.1-18.9c0.5-2.8,1.5-5,2.5-6.1s2.3-1.7,3.6-1.7s2.6,0.7,3.6,1.7c1,1.1,2,3.5,2.6,6.7c0.7,3.3,1,9.5,1,18.2
	C479.5,227.9,479,234.4,478.4,237.9z"/>
<path class="st3" d="M418.7,158.5c-5.2-8.5-12.4-12.9-20.7-12.9c-7.6,0-14.3,3.5-19,10.4c-4.7,6.6-7.4,15.7-7.4,26.8
	c0,10.7,2.4,19.5,7.1,26.1c4.5,6.3,10.2,9.8,16.6,9.8c5.9,0,11.2-3.1,15-9.1c-0.5,12.6-2.1,21.1-4.3,24.9c-2.1,3.8-5,5.7-8.3,5.7
	c-2.4,0-4.8-0.9-6.2-2.8s-2.6-5-2.9-9.1l-15.2,2.2c1,9.1,3.8,16.4,7.6,20.8s9.3,6.6,15.5,6.6c8.8,0,16.2-4.4,21.9-13.2
	c5.5-8.8,8.3-23.3,8.3-43.4C426.7,181.5,423.9,167,418.7,158.5z M409.2,184.9c0,6-1.2,10.7-3.3,13.8c-1.9,3.2-4.8,4.7-7.6,4.7
	c-3.1,0-5.9-1.9-7.8-5c-1.9-3.1-3.1-8.5-3.1-15.4s1-12,2.9-15.1c1.9-3.2,4.3-4.7,7.1-4.7c3.1,0,5.9,1.9,8.3,5.7
	c2.4,3.8,3.6,9.1,3.6,15.7v0.3L409.2,184.9L409.2,184.9z"/>
<polygon class="st3" points="261,235 261,221.7 287.2,221.7 287.2,235 "/>
<path class="st3" d="M219.7,188.4c-2.9-5.2-7.4-8-12.9-8c-5.6,0-10,2.6-13.1,7.8c-3.6,6.1-5.6,16.5-5.6,30.8s1.8,24.5,5.1,30.2
	c3.3,5.6,8,8.5,13.6,8.5s10-2.6,12.9-7.6c3.8-6.1,5.7-16.5,5.7-30.8C225.5,204.9,223.5,194.5,219.7,188.4z M212.8,237.9
	c-0.7,2.8-1.6,5-2.6,6.1c-1,0.9-2.1,1.5-3.4,1.5s-2.8-0.7-3.8-1.7c-1-0.9-1.8-3.3-2.5-6.5c-0.7-3-1-9.3-1-18s0.5-15.2,1.1-18.9
	c0.5-2.8,1.5-5,2.5-6.1s2.3-1.7,3.6-1.7c1.3,0,2.6,0.7,3.6,1.7c1,1.1,2,3.5,2.6,6.7c0.7,3.3,1,9.5,1,18.2
	C214,227.9,213.5,234.4,212.8,237.9z"/>
<path class="st3" d="M429.5,258.7c-1.3-0.4-2.3-1.1-3-2.1c-0.7-1.1-1.1-2.3-1.1-3.7c0-1.9,0.7-3.5,2.2-4.9s3.2-2,5.3-2
	c2.4,0,4.4,0.8,5.8,2.3c1.4,1.5,2.1,3.5,2.1,6.1c0,4.1-1.5,7.6-4.4,10.7c-3,3.1-6.7,5-11.4,5.7v-2.3c1.5-1.5,2.7-3.1,3.4-4.6
	c0.8-1.5,1.1-3,1.1-4.5L429.5,258.7L429.5,258.7z"/>
<path class="st3" d="M116.7,258.7c-1.3-0.4-2.3-1.1-3-2.1c-0.7-1.1-1.1-2.3-1.1-3.7c0-1.9,0.7-3.5,2.2-4.9s3.2-2,5.3-2
	c2.4,0,4.4,0.8,5.8,2.3s2.2,3.5,2.2,6.1c0,4.1-1.5,7.6-4.4,10.7c-3,3.1-6.7,5-11.4,5.7v-2.3c1.5-1.5,2.7-3.1,3.4-4.6
	c0.8-1.5,1.1-3,1.1-4.5v-0.7H116.7z"/>
</svg>
