<?xml version="1.0" encoding="utf-8"?>
<!-- Generator: Adobe Illustrator 19.2.0, SVG Export Plug-In . SVG Version: 6.00 Build 0)  -->
<svg version="1.1" id="Livello_1" xmlns="http://www.w3.org/2000/svg" xmlns:xlink="http://www.w3.org/1999/xlink" x="0px" y="0px"
	 viewBox="0 0 602.5 325.5" style="enable-background:new 0 0 602.5 325.5;" xml:space="preserve">
<style type="text/css">
	.st0{fill:#FFFFFF;stroke:#1A171B;stroke-width:1.1838;stroke-miterlimit:2.6131;}
	.st1{fill:#1A171B;}
	.st2{fill:none;stroke:#1A171B;stroke-width:7.8917;stroke-miterlimit:2.6131;}
</style>
<polygon class="st0" points="1.4,61.8 601.4,61.8 601.4,324 1.4,324 "/>
<path class="st1" d="M455.5,236.4c-1-0.3-1.9-1-2.4-2c-0.6-1-0.9-2.1-0.9-3.5c0-1.8,0.6-3.3,1.8-4.6s2.6-1.9,4.3-1.9
	c2,0,3.5,0.7,4.7,2.1s1.7,3.3,1.7,5.7c0,3.8-1.2,7.1-3.6,10c-2.4,2.9-5.4,4.6-9.2,5.3v-2.1c1.2-1.4,2.2-2.8,2.8-4.2s0.9-2.8,0.9-4.2
	L455.5,236.4L455.5,236.4z"/>
<path class="st1" d="M202.6,236.2c-1-0.3-1.9-1-2.4-2c-0.6-1-0.9-2.1-0.9-3.5c0-1.8,0.6-3.3,1.7-4.6c1.2-1.3,2.6-1.9,4.3-1.9
	c2,0,3.5,0.7,4.7,2.1s1.7,3.3,1.7,5.7c0,3.8-1.2,7.1-3.6,10s-5.4,4.6-9.2,5.3v-2.1c1.2-1.4,2.2-2.8,2.8-4.2c0.6-1.4,0.9-2.8,0.9-4.2
	V236.2L202.6,236.2z"/>
<path class="st2" d="M51.5,81h498.9c18.6,0,33.8,15.2,33.8,33.8v156.7c0,18.6-15.2,33.8-33.8,33.8H51.5c-18.6,0-33.8-15.2-33.8-33.8
	V114.7C17.7,96.2,32.9,81,51.5,81L51.5,81z"/>
<path class="st1" d="M403,221.5v14h-40.4c0.3-5.2,1.7-10.4,3.8-14.9c2.2-4.7,6.7-11.1,13.2-18.7c5.1-6.3,8.6-10.6,9.6-12.9
	c1.7-3.2,2.6-6.3,2.6-9.2c0-3.4-0.7-6.1-2.1-7.9c-1.4-1.8-3.6-2.7-6-2.7s-4.6,0.9-6,2.7s-2.4,5-2.4,9l-11.3-1.4
	c0.7-8.1,2.9-14,6.3-17.6c3.6-3.6,8.2-5.4,13.5-5.4c5.8,0,10.6,2.3,14,6.3c3.4,4.1,5.1,9.5,5.1,15.8c0,3.4-0.5,6.8-1.5,9.9
	c-1,3.2-2.6,6.8-4.6,10.2c-1.4,2.3-4.1,5.6-7.7,9.9c-3.8,4.3-6.2,7.2-7,8.6c-1,1.4-1.9,2.9-2.4,4.3H403L403,221.5z"/>
<polygon class="st1" points="314.9,213.4 314.9,199.8 337.5,199.8 337.5,213.4 "/>
<path class="st1" d="M541.7,182.2c-2.6-4.1-6.4-6.4-11.3-6.4c-4.9,0-8.7,2.1-11.4,6.2c-3.1,4.8-4.9,13.1-4.9,24.4s1.6,19.4,4.4,23.9
	c2.9,4.5,7,6.7,11.8,6.7s8.7-2.1,11.3-6c3.3-4.8,5-13.1,5-24.4C546.7,195.3,545,187,541.7,182.2z M535.7,221.4
	c-0.6,2.2-1.4,4-2.3,4.8c-0.9,0.7-1.9,1.2-3,1.2s-2.4-0.5-3.3-1.4c-0.9-0.7-1.6-2.6-2.1-5.2c-0.6-2.4-0.9-7.4-0.9-14.3s0.4-12,1-15
	c0.4-2.2,1.3-4,2.1-4.8c0.9-0.9,2-1.4,3.1-1.4s2.3,0.5,3.1,1.4c0.9,0.9,1.7,2.8,2.3,5.3s0.9,7.6,0.9,14.4
	C536.7,213.5,536.3,218.6,535.7,221.4z"/>
<path class="st1" d="M503.2,182.2c-2.6-4.1-6.4-6.4-11.3-6.4c-4.9,0-8.7,2.1-11.4,6.2c-3.1,4.8-4.9,13.1-4.9,24.4s1.6,19.4,4.4,23.9
	c2.9,4.5,7,6.7,11.8,6.7s8.7-2.1,11.3-6c3.3-4.8,5-13.1,5-24.4C508.1,195.3,506.4,187,503.2,182.2z M497.2,221.4
	c-0.6,2.2-1.4,4-2.3,4.8c-0.9,0.7-1.9,1.2-3,1.2s-2.4-0.5-3.3-1.4c-0.9-0.7-1.6-2.6-2.1-5.2c-0.6-2.4-0.9-7.4-0.9-14.3s0.4-12,1-15
	c0.4-2.2,1.3-4,2.1-4.8c0.9-0.9,2-1.4,3.1-1.4s2.3,0.5,3.1,1.4c0.9,0.9,1.7,2.8,2.3,5.3c0.6,2.6,0.9,7.6,0.9,14.4
	C498.2,213.5,497.7,218.6,497.2,221.4z"/>
<path class="st1" d="M443.2,164.9c-3.1-5.4-7.7-8.3-13.5-8.3s-10.4,2.7-13.7,8.1c-3.8,6.3-5.8,17.1-5.8,32c0,14.9,1.9,25.5,5.3,31.4
	c3.4,5.9,8.4,8.8,14.2,8.8s10.4-2.7,13.5-7.9c3.9-6.3,6-17.1,6-32C449.2,182,447.1,171.2,443.2,164.9z M436,216.3
	c-0.7,2.9-1.7,5.2-2.7,6.3c-1,0.9-2.2,1.6-3.6,1.6c-1.4,0-2.9-0.7-3.9-1.8c-1-0.9-1.9-3.4-2.6-6.8c-0.7-3.2-1-9.7-1-18.7
	c0-9,0.5-15.8,1.2-19.6c0.5-2.9,1.5-5.2,2.6-6.3c1-1.1,2.4-1.8,3.8-1.8c1.4,0,2.7,0.7,3.8,1.8c1,1.1,2.1,3.6,2.7,7
	c0.7,3.4,1,9.9,1,19C437.2,205.9,436.7,212.7,436,216.3z"/>
<path class="st1" d="M287.3,181.8c-2.6-4.1-6.4-6.4-11.3-6.4s-8.7,2.1-11.4,6.2c-3.1,4.8-4.9,13.1-4.9,24.4
	c0,11.3,1.6,19.4,4.4,23.9c2.9,4.5,7,6.7,11.8,6.7c4.9,0,8.7-2.1,11.3-6c3.3-4.8,5-13.1,5-24.4C292.3,194.8,290.5,186.6,287.3,181.8
	z M281.3,221c-0.6,2.2-1.4,4-2.3,4.8c-0.9,0.7-1.9,1.2-3,1.2s-2.4-0.5-3.3-1.4c-0.9-0.7-1.6-2.6-2.1-5.2c-0.6-2.4-0.9-7.4-0.9-14.3
	s0.4-12,1-15c0.4-2.2,1.3-4,2.1-4.8c0.9-0.9,2-1.4,3.1-1.4s2.3,0.5,3.1,1.4c0.9,0.9,1.7,2.7,2.3,5.3c0.6,2.6,0.9,7.6,0.9,14.4
	C282.3,213.1,281.8,218.2,281.3,221z"/>
<path class="st1" d="M248.7,181.8c-2.6-4.1-6.4-6.4-11.3-6.4s-8.7,2.1-11.4,6.2c-3.1,4.8-4.9,13.1-4.9,24.4
	c0,11.3,1.6,19.4,4.4,23.9c2.9,4.5,7,6.7,11.8,6.7c4.9,0,8.7-2.1,11.3-6c3.3-4.8,5-13.1,5-24.4C253.7,194.8,252,186.6,248.7,181.8z
	 M242.7,221c-0.6,2.2-1.4,4-2.3,4.8c-0.9,0.7-1.9,1.2-3,1.2s-2.4-0.5-3.3-1.4c-0.9-0.7-1.6-2.6-2.1-5.2c-0.6-2.4-0.9-7.4-0.9-14.3
	s0.4-12,1-15c0.4-2.2,1.3-4,2.1-4.8c0.9-0.9,2-1.4,3.1-1.4s2.3,0.5,3.1,1.4c0.9,0.9,1.7,2.7,2.3,5.3c0.6,2.6,0.9,7.6,0.9,14.4
	C243.7,213.1,243.3,218.2,242.7,221z"/>
<path class="st1" d="M194.6,200.7c-1.7-3.2-4.3-5.9-7.5-7.4c2.6-1.4,4.8-3.8,6.2-6.5c1.4-2.7,2.1-6.1,2.1-9.7
	c0-5.9-1.7-11.1-4.8-14.9c-3.1-3.6-7.5-5.6-13-5.6c-5.6,0-10.1,2-13.2,5.9c-3.1,3.6-4.6,8.8-4.6,14.7c0,3.2,0.7,6.5,2.1,9.5
	c1.2,2.7,3.4,5.2,6.5,6.5v0.2c-3.4,1.8-6,4.7-7.5,8.3c-1.5,3.4-2.4,7.4-2.4,11.5c0,7.7,2.2,13.8,6.3,18.3c3.4,3.6,8,5.4,13.3,5.4
	c5.8,0,10.6-2.3,14-6.8s5.3-10.4,5.3-17.6C197.3,208.2,196.3,204.1,194.6,200.7z M172.5,170.9c1.2-1.8,3.1-2.7,5.1-2.7
	c2.1,0,3.8,0.9,5.1,2.7c1.2,1.8,1.9,4.3,1.9,7c0,2.9-0.7,5.4-2.1,7.2c-1.2,1.6-3.1,2.5-5.1,2.5c-2.1,0-3.8-0.9-5-2.5
	s-1.9-4.1-1.9-7.2C170.6,175.2,171.3,172.7,172.5,170.9z M183.6,221.7c-1.4,2.3-3.4,3.4-5.8,3.4s-4.4-1.4-6-3.6
	c-1.4-2.2-2.2-5.6-2.2-9.8v0.1v-0.2v0.1c0-2.9,0.7-5.8,2-8.5c1.2-2.5,3.3-3.8,6-3.8c2.4,0,4.4,1.4,6,3.6c1.5,2.3,2.4,5.4,2.4,9
	C186,216.1,185.2,219.4,183.6,221.7z"/>
<polygon class="st1" points="62.5,242.6 52.7,231.5 106.2,170.9 96.4,159.8 107.8,146.9 128.9,170.9 127.4,194.7 116,182 "/>
<polygon class="st1" points="119.3,242.6 129.1,231.5 75.6,170.9 85.4,159.8 74.1,146.9 52.9,170.9 54.5,194.7 65.8,182 "/>
</svg>
