<?xml version="1.0" encoding="utf-8"?>
<!-- Generator: Adobe Illustrator 19.2.0, SVG Export Plug-In . SVG Version: 6.00 Build 0)  -->
<svg version="1.1" id="Livello_1" xmlns="http://www.w3.org/2000/svg" xmlns:xlink="http://www.w3.org/1999/xlink" x="0px" y="0px"
	 viewBox="0 0 603.5 345.1" style="enable-background:new 0 0 603.5 345.1;" xml:space="preserve">
<style type="text/css">
	.st0{fill:#FFFFFF;stroke:#1A171B;stroke-width:1.2748;stroke-miterlimit:2.6131;}
	.st1{fill:none;stroke:#1A171B;stroke-width:8.4987;stroke-miterlimit:2.6131;}
	.st2{fill:#1A171B;stroke:#1A171B;stroke-width:2.1247;stroke-miterlimit:2.6131;}
	.st3{fill:#1A171B;stroke:#1A171B;stroke-width:1.2748;stroke-miterlimit:2.6131;}
</style>
<polygon class="st0" points="601.3,61.3 1.3,61.3 1.3,343.7 601.3,343.7 "/>
<path class="st1" d="M59.8,81.9h483.1c22.4,0,40.8,18.4,40.8,40.8v160.4c0,22.4-18.4,40.8-40.8,40.8H59.8
	c-22.4,0-40.8-18.4-40.8-40.8V122.8C19,100.3,37.4,81.9,59.8,81.9L59.8,81.9z"/>
<path class="st2" d="M240.8,251.4v-22.9h97.1c-11.8,6-13.1,14-14.6,22.9H240.8L240.8,251.4z"/>
<path class="st2" d="M373.1,251.4c0-7.8-3.9-18.2-13.1-22.9h34.2c-8.4,3.1-14.8,15.1-15,22.9H373.1L373.1,251.4z"/>
<path class="st2" d="M429.4,251.4c-0.2-9.1-5.8-19.6-13.3-22.9h70.2v12l-27.9,10.9H429.4L429.4,251.4z"/>
<polygon class="st2" points="240.8,222.3 241,208.7 179.1,208.7 179.3,135.5 486.5,135.5 486.5,222.3 "/>
<path class="st2" d="M173.1,214.7v-50.1h-45.5l-14.8,40.9v45.8h7.5c1.5-35.1,48.8-33.1,50.1,0c3,0,5.4,0,7.3,0
	c3-34.9,48.5-33.6,49.8,0h7.5v-36.7h-61.9V214.7z M167.3,198.1h-45.5l9-24.5h36.5V198.1z"/>
<path class="st3" d="M202.5,230c-11.4,0-20.6,9.6-20.6,21.4c0,11.8,9.3,21.4,20.6,21.4c11.4,0,20.6-9.6,20.6-21.4
	C223.1,239.6,213.9,230,202.5,230z M202.5,260.5c-4.9,0-8.9-4.1-8.9-9.2c0-5.1,4-9.2,8.9-9.2s8.9,4.1,8.9,9.2
	C211.3,256.4,207.4,260.5,202.5,260.5z"/>
<path class="st3" d="M348.1,230c-11.4,0-20.6,9.6-20.6,21.4c0,11.8,9.3,21.4,20.6,21.4s20.6-9.6,20.6-21.4
	C368.7,239.6,359.5,230,348.1,230z M348.1,260.5c-4.9,0-8.9-4.1-8.9-9.2c0-5.1,4-9.2,8.9-9.2s8.9,4.1,8.9,9.2
	C356.9,256.4,353,260.5,348.1,260.5z"/>
<path class="st3" d="M404,230c-11.4,0-20.6,9.6-20.6,21.4c0,11.8,9.3,21.4,20.6,21.4c11.4,0,20.6-9.6,20.6-21.4
	C424.6,239.6,415.4,230,404,230z M404,260.5c-4.9,0-8.9-4.1-8.9-9.2c0-5.1,4-9.2,8.9-9.2s8.9,4.1,8.9,9.2
	C412.9,256.4,408.9,260.5,404,260.5z"/>
<path class="st3" d="M145.1,230c-11.4,0-20.6,9.6-20.6,21.4c0,11.8,9.3,21.4,20.6,21.4c11.4,0,20.6-9.6,20.6-21.4
	C165.7,239.6,156.5,230,145.1,230z M145.1,260.5c-4.9,0-8.9-4.1-8.9-9.2c0-5.1,4-9.2,8.9-9.2s8.9,4.1,8.9,9.2
	C154,256.4,150,260.5,145.1,260.5z"/>
</svg>
