<?xml version="1.0" encoding="utf-8"?>
<!-- Generator: Adobe Illustrator 19.2.0, SVG Export Plug-In . SVG Version: 6.00 Build 0)  -->
<svg version="1.1" id="Livello_1" xmlns="http://www.w3.org/2000/svg" xmlns:xlink="http://www.w3.org/1999/xlink" x="0px" y="0px"
	 viewBox="0 0 602.9 344.4" style="enable-background:new 0 0 602.9 344.4;" xml:space="preserve">
<style type="text/css">
	.st0{opacity:1.000000e-002;fill:#FFFFFF;enable-background:new    ;}
	.st1{fill:#FFFFFF;stroke:#1A171B;stroke-width:1.2748;stroke-miterlimit:2.6131;}
	.st2{fill:none;stroke:#1A171B;stroke-width:8.4987;stroke-miterlimit:2.6131;}
	.st3{fill:#1A171B;stroke:#1A171B;stroke-width:2.1247;stroke-miterlimit:2.6131;}
	.st4{fill:#1A171B;stroke:#1A171B;stroke-width:1.2748;stroke-miterlimit:2.6131;}
	.st5{fill:#1A171B;}
</style>
<rect x="-179.2" y="-56.3" class="st0" width="1" height="1"/>
<rect x="779.8" y="902.7" class="st0" width="1" height="1"/>
<polygon class="st1" points="600.8,61.1 0.8,61.1 0.8,343.5 600.8,343.5 "/>
<path class="st2" d="M59.3,81.7h483.1c22.4,0,40.8,18.4,40.8,40.8v160.4c0,22.4-18.4,40.8-40.8,40.8H59.3
	c-22.4,0-40.8-18.4-40.8-40.8V122.6C18.5,100.1,36.9,81.7,59.3,81.7L59.3,81.7z"/>
<path class="st3" d="M331.7,274.7v-39.5h108v39.5h-8.9c0-39.5-61.2-40.7-61.2,0H331.7L331.7,274.7z"/>
<path class="st3" d="M158,274.7v-39.5h109.4v39.5h-39.5c-0.2-40.9-61.4-40.9-61.2,0H158L158,274.7z"/>
<path class="st3" d="M96.1,187.4l3.1,39.1h12.2v-30.6h10.1v68.5h-10.1v-29.2h-11.3l3.3,39.5h45.9v-87.5L96.1,187.4z M140.6,264.4
	h-10.1v-68.5h10.1V264.4z"/>
<path class="st3" d="M276.4,187.2v87.5h46.4v-87.5H276.4L276.4,187.2z M295,264.4l-10.1,0.2v-68.7H295V264.4z M303.9,264.4v-68.5
	h10.4l0.2,68.2L303.9,264.4z"/>
<path class="st3" d="M499.7,235.2h-12v29.2h-11.8v-68.5l11.8,0.2v30.4H499l-3.3-39.3l-47.3-0.2v87.8H503L499.7,235.2z M467.5,264.4
	h-10.4v-68.7h10.4V264.4z"/>
<path class="st3" d="M158,186.9v39.5h109.4v-39.5L158,186.9L158,186.9z M209.1,217.8h-42.4v-21.9h42.4V217.8z M258.8,217.8h-41
	v-21.9h41V217.8z"/>
<path class="st3" d="M439.5,186.9H331.7v39.5h108L439.5,186.9z M381.1,217.8h-40.7v-21.9h40.7V217.8z M431,217.8h-40.9v-21.9H431
	V217.8z"/>
<path class="st4" d="M197.6,249.8c-13.7,0-24.8,11.2-24.8,24.8c0,13.7,11.1,24.8,24.8,24.8s24.8-11.1,24.8-24.8
	S211.3,249.8,197.6,249.8z M197.6,284.4c-5.3,0-9.7-4.3-9.7-9.7c0-5.4,4.4-9.7,9.7-9.7s9.7,4.3,9.7,9.7
	C207.3,280,203,284.4,197.6,284.4z"/>
<path class="st4" d="M400.4,249.8c-13.7,0-24.8,11.2-24.8,24.8c0,13.7,11.1,24.8,24.8,24.8s24.8-11.1,24.8-24.8
	S414.1,249.8,400.4,249.8z M400.4,284.4c-5.3,0-9.7-4.3-9.7-9.7c0-5.4,4.4-9.7,9.7-9.7s9.7,4.3,9.7,9.7
	C410.1,280,405.8,284.4,400.4,284.4z"/>
<path class="st5" d="M195.7,142.9l10.3,1.7c-1.3,3.7-3.4,6.6-6.3,8.5c-2.9,2-6.4,2.9-10.7,2.9c-6.8,0-11.8-2.2-15.1-6.6
	c-2.6-3.5-3.9-7.9-3.9-13.3c0-6.4,1.7-11.4,5.1-15s7.7-5.4,12.9-5.4c5.8,0,10.4,1.9,13.8,5.7s5,9.6,4.8,17.4h-25.9
	c0.1,3,0.9,5.4,2.5,7c1.6,1.7,3.6,2.5,6,2.5c1.6,0,3-0.4,4.1-1.3C194.3,146.2,195.2,144.8,195.7,142.9L195.7,142.9z M196.3,132.6
	c-0.1-3-0.8-5.2-2.3-6.7s-3.3-2.3-5.4-2.3c-2.3,0-4.1,0.8-5.6,2.4s-2.2,3.8-2.2,6.6H196.3L196.3,132.6z"/>
<path class="st5" d="M249.1,128l-10.2,1.8c-0.3-2-1.1-3.5-2.3-4.5c-1.2-1-2.8-1.5-4.7-1.5c-2.6,0-4.6,0.9-6.2,2.6
	c-1.5,1.8-2.3,4.7-2.3,8.8c0,4.6,0.8,7.8,2.3,9.7c1.6,1.9,3.6,2.8,6.3,2.8c2,0,3.6-0.5,4.8-1.6c1.3-1.1,2.1-3,2.7-5.7l10.2,1.7
	c-1.1,4.6-3.1,8.1-6.1,10.4s-7,3.5-12,3.5c-5.7,0-10.3-1.8-13.7-5.3c-3.4-3.6-5.1-8.5-5.1-14.8s1.7-11.3,5.1-14.8
	c3.4-3.6,8-5.3,13.9-5.3c4.8,0,8.6,1,11.4,3C245.9,120.8,247.9,123.9,249.1,128L249.1,128z"/>
<path class="st5" d="M291.1,128l-10.2,1.8c-0.3-2-1.1-3.5-2.3-4.5c-1.2-1-2.8-1.5-4.7-1.5c-2.6,0-4.6,0.9-6.2,2.6
	c-1.5,1.8-2.3,4.7-2.3,8.8c0,4.6,0.8,7.8,2.3,9.7c1.6,1.9,3.6,2.8,6.3,2.8c2,0,3.6-0.5,4.8-1.6c1.3-1.1,2.1-3,2.7-5.7l10.2,1.7
	c-1.1,4.6-3.1,8.1-6.1,10.4s-7,3.5-12,3.5c-5.7,0-10.3-1.8-13.7-5.3c-3.4-3.6-5.1-8.5-5.1-14.8s1.7-11.3,5.1-14.8
	c3.4-3.6,8-5.3,13.9-5.3c4.8,0,8.6,1,11.4,3C287.8,120.8,289.9,123.9,291.1,128L291.1,128z"/>
<path class="st5" d="M321.6,142.9l10.3,1.7c-1.3,3.7-3.4,6.6-6.3,8.5c-2.9,2-6.4,2.9-10.7,2.9c-6.8,0-11.8-2.2-15.1-6.6
	c-2.6-3.5-3.9-7.9-3.9-13.3c0-6.4,1.7-11.4,5.1-15s7.7-5.4,12.9-5.4c5.8,0,10.4,1.9,13.8,5.7s5,9.6,4.8,17.4h-25.9
	c0.1,3,0.9,5.4,2.5,7c1.6,1.7,3.6,2.5,6,2.5c1.6,0,3-0.4,4.1-1.3C320.2,146.2,321,144.8,321.6,142.9L321.6,142.9z M322.2,132.6
	c-0.1-3-0.8-5.2-2.3-6.7s-3.3-2.3-5.4-2.3c-2.3,0-4.1,0.8-5.6,2.4s-2.2,3.8-2.2,6.6H322.2L322.2,132.6z"/>
<path class="st5" d="M358.8,116.6v8.1h-7.1v15.6c0,3.1,0.1,5,0.2,5.5c0.1,0.5,0.4,0.9,0.9,1.3c0.5,0.3,1.1,0.5,1.7,0.5
	c1,0,2.4-0.3,4.2-1l0.9,7.9c-2.4,1-5.1,1.5-8.2,1.5c-1.9,0-3.5-0.3-5-0.9s-2.6-1.4-3.3-2.4s-1.2-2.3-1.5-4c-0.2-1.2-0.3-3.6-0.3-7.2
	v-16.8h-4.8v-8.1h4.8v-7.7l10.4-5.9v13.6L358.8,116.6L358.8,116.6z"/>
<path class="st5" d="M383.9,116.6v8.1h-7.1v15.6c0,3.1,0.1,5,0.2,5.5c0.1,0.5,0.4,0.9,0.9,1.3c0.5,0.3,1.1,0.5,1.7,0.5
	c1,0,2.4-0.3,4.2-1l0.9,7.9c-2.4,1-5.1,1.5-8.2,1.5c-1.9,0-3.6-0.3-5-0.9c-1.5-0.6-2.6-1.4-3.3-2.4s-1.2-2.3-1.5-4
	c-0.2-1.2-0.3-3.6-0.3-7.2v-16.8h-4.8v-8.1h4.8v-7.7l10.4-5.9v13.6L383.9,116.6L383.9,116.6z"/>
<path class="st5" d="M388.7,135.3c0-3.4,0.9-6.7,2.5-9.8c1.7-3.2,4.1-5.6,7.2-7.2c3.1-1.7,6.6-2.5,10.4-2.5c5.9,0,10.8,1.9,14.6,5.7
	s5.7,8.6,5.7,14.3c0,5.8-1.9,10.6-5.7,14.5c-3.8,3.8-8.6,5.7-14.4,5.7c-3.6,0-7-0.8-10.3-2.4s-5.7-3.9-7.4-7
	S388.7,139.8,388.7,135.3L388.7,135.3z M399.3,135.9c0,3.8,0.9,6.7,2.8,8.8c1.8,2,4.1,3,6.8,3s5-1,6.8-3s2.8-5,2.8-8.8
	s-0.9-6.7-2.8-8.7c-1.8-2-4.1-3-6.8-3s-5,1-6.8,3C400.3,129.1,399.3,132.1,399.3,135.9L399.3,135.9z"/>
</svg>
