<?xml version="1.0" encoding="utf-8"?>
<!-- Generator: Adobe Illustrator 19.2.0, SVG Export Plug-In . SVG Version: 6.00 Build 0)  -->
<svg version="1.1" id="Livello_1" xmlns="http://www.w3.org/2000/svg" xmlns:xlink="http://www.w3.org/1999/xlink" x="0px" y="0px"
	 viewBox="0 0 578 721.7" style="enable-background:new 0 0 578 721.7;" xml:space="preserve">
<style type="text/css">
	.st0{fill:#FFFFFF;stroke:#1A171B;stroke-width:1.1681;stroke-miterlimit:2.6131;}
	.st1{fill:none;stroke:#1A171B;stroke-width:3.8936;stroke-miterlimit:2.6131;}
	.st2{fill:#1A171B;stroke:#1A171B;stroke-width:1.1681;stroke-miterlimit:2.6131;}
</style>
<g>
	<polygon class="st0" points="100.6,513.2 575.4,513.2 575.4,720.7 100.6,720.7 	"/>
	<path class="st1" d="M140.2,528.3H535c14.7,0,26.7,12,26.7,26.7v124.1c0,14.7-12,26.7-26.7,26.7H140.2c-14.7,0-26.7-12-26.7-26.7
		v-124C113.4,540.4,125.5,528.3,140.2,528.3L140.2,528.3z"/>
	<polygon class="st2" points="235.3,684.2 172.2,617.7 236.3,551.2 263.2,551.2 213.1,605 301.8,605 301.8,630.1 213.1,630.1 
		265.5,684.2 	"/>
</g>
<g>
	<polygon class="st0" points="308.3,0.7 308.3,475.6 100.7,475.6 100.7,0.7 	"/>
	<path class="st1" d="M293.1,40.3v394.8c0,14.7-12,26.7-26.7,26.7H142.3c-14.7,0-26.7-12-26.7-26.7V40.3c0-14.7,12-26.7,26.7-26.7
		h124.1C281.1,13.6,293.1,25.6,293.1,40.3L293.1,40.3z"/>
	<polygon class="st2" points="137.3,135.4 203.7,72.3 270.2,136.5 270.2,163.3 216.5,113.3 216.5,201.9 191.3,201.9 191.3,113.3 
		137.3,165.7 	"/>
</g>
<g>
	<path d="M413,78h-17l-6.8-17.6h-30.9L351.9,78h-16.6l30.1-77.3h16.5L413,78z M384.3,47.4l-10.7-28.7l-10.4,28.7H384.3z"/>
</g>
<g>
	<path d="M510.7,410.6h30.9c6.1,0,10.7,0.3,13.7,0.8s5.7,1.6,8.1,3.2s4.4,3.8,5.9,6.5s2.4,5.7,2.4,9c0,3.6-1,6.9-2.9,10
		s-4.6,5.3-7.9,6.8c4.7,1.4,8.3,3.7,10.9,7s3.8,7.2,3.8,11.7c0,3.5-0.8,6.9-2.5,10.3s-3.9,6-6.7,8s-6.3,3.2-10.5,3.7
		c-2.6,0.3-8.9,0.5-18.8,0.5h-26.3v-77.5H510.7z M526.3,423.4v17.9h10.2c6.1,0,9.9-0.1,11.3-0.3c2.7-0.3,4.8-1.2,6.3-2.8
		s2.3-3.5,2.3-6c0-2.4-0.7-4.3-2-5.8s-3.3-2.4-5.9-2.7c-1.5-0.2-6-0.3-13.3-0.3L526.3,423.4L526.3,423.4z M526.3,454.2v20.7h14.4
		c5.6,0,9.2-0.2,10.7-0.5c2.3-0.4,4.2-1.5,5.7-3.1s2.2-3.8,2.2-6.6c0-2.3-0.6-4.3-1.7-5.9c-1.1-1.6-2.8-2.8-4.9-3.5
		c-2.1-0.7-6.7-1.1-13.8-1.1L526.3,454.2L526.3,454.2z"/>
</g>
</svg>
