<?xml version="1.0" encoding="utf-8"?>
<!-- Generator: Adobe Illustrator 19.2.0, SVG Export Plug-In . SVG Version: 6.00 Build 0)  -->
<svg version="1.1" id="Livello_1" xmlns="http://www.w3.org/2000/svg" xmlns:xlink="http://www.w3.org/1999/xlink" x="0px" y="0px"
	 viewBox="0 0 960 960" style="enable-background:new 0 0 960 960;" xml:space="preserve">
<style type="text/css">
	.st0{opacity:1.000000e-002;fill:#FFFFFF;}
	.st1{fill:#FFFFFF;stroke:#1A171B;stroke-width:1.2776;stroke-miterlimit:2.6131;}
	.st2{fill:none;stroke:#1A171B;stroke-width:4.2586;stroke-miterlimit:2.6131;}
	.st3{fill-rule:evenodd;clip-rule:evenodd;fill:#1A171B;stroke:#1A171B;stroke-width:1.2776;stroke-miterlimit:2.6131;}
</style>
<rect class="st0" width="1" height="1"/>
<rect x="959" y="959" class="st0" width="1" height="1"/>
<g>
	<polygon class="st1" points="593.5,220.3 593.5,739.7 366.5,739.7 366.5,220.3 593.5,220.3 	"/>
	<path class="st2" d="M576.9,263.6v431.9c0,16.1-13.2,29.2-29.2,29.2H412c-16.1,0-29.2-13.2-29.2-29.2V263.6
		c0-16.1,13.2-29.2,29.2-29.2h135.7C563.7,234.4,576.9,247.5,576.9,263.6L576.9,263.6z"/>
	<polygon class="st3" points="406.5,367.7 479.2,298.6 551.9,368.8 551.9,398.2 493.1,343.4 493.1,440.4 465.6,440.4 465.6,343.4 
		406.5,400.7 406.5,367.7 	"/>
</g>
</svg>
