<?xml version="1.0" encoding="utf-8"?>
<!-- Generator: Adobe Illustrator 19.2.0, SVG Export Plug-In . SVG Version: 6.00 Build 0)  -->
<svg version="1.1" id="Livello_1" xmlns="http://www.w3.org/2000/svg" xmlns:xlink="http://www.w3.org/1999/xlink" x="0px" y="0px"
	 viewBox="0 0 578 721.7" style="enable-background:new 0 0 578 721.7;" xml:space="preserve">
<style type="text/css">
	.st0{fill:#FFFFFF;stroke:#1A171B;stroke-width:1.1681;stroke-miterlimit:2.6131;}
	.st1{fill:none;stroke:#1A171B;stroke-width:3.8936;stroke-miterlimit:2.6131;}
	.st2{fill:#1A171B;stroke:#1A171B;stroke-width:1.1681;stroke-miterlimit:2.6131;}
</style>
<g>
	<g>
		<polygon class="st0" points="100.6,513.1 575.4,513.1 575.4,720.6 100.6,720.6 		"/>
		<path class="st1" d="M140.2,528.2H535c14.7,0,26.7,12,26.7,26.7V679c0,14.7-12,26.7-26.7,26.7H140.2c-14.7,0-26.7-12-26.7-26.7
			V555C113.4,540.3,125.5,528.2,140.2,528.2L140.2,528.2z"/>
		<polygon class="st2" points="235.3,684.1 172.2,617.6 236.3,551.1 263.2,551.1 213.1,604.9 301.8,604.9 301.8,630 213.1,630 
			265.5,684.1 		"/>
		<polygon class="st2" points="440.7,684.1 503.8,617.6 439.7,551.1 412.8,551.1 462.9,604.9 374.2,604.9 374.2,630 462.9,630 
			410.5,684.1 		"/>
	</g>
	<g>
		<polygon class="st0" points="308.3,0.6 308.3,475.5 100.7,475.5 100.7,0.6 		"/>
		<path class="st1" d="M293.1,40.2V435c0,14.7-12,26.7-26.7,26.7H142.3c-14.7,0-26.7-12-26.7-26.7V40.2c0-14.7,12-26.7,26.7-26.7
			h124.1C281.1,13.5,293.1,25.5,293.1,40.2L293.1,40.2z"/>
		<polygon class="st2" points="137.3,135.3 203.7,72.2 270.2,136.4 270.2,163.2 216.5,113.2 216.5,201.8 191.3,201.8 191.3,113.2 
			137.3,165.6 		"/>
		<polygon class="st2" points="137.3,340.7 203.7,403.9 270.2,339.7 270.2,312.9 216.5,362.9 216.5,274.3 191.3,274.3 191.3,362.9 
			137.3,310.5 		"/>
	</g>
	<g>
		<path d="M413,77.9h-17l-6.8-17.6h-30.9l-6.4,17.6h-16.6l30.1-77.3h16.5L413,77.9z M384.3,47.3l-10.7-28.7l-10.4,28.7H384.3z"/>
	</g>
	<g>
		<path d="M510.7,410.5h30.9c6.1,0,10.7,0.3,13.7,0.8s5.7,1.6,8.1,3.2s4.4,3.8,5.9,6.5s2.4,5.7,2.4,9c0,3.6-1,6.9-2.9,10
			s-4.6,5.3-7.9,6.8c4.7,1.4,8.3,3.7,10.9,7s3.8,7.2,3.8,11.7c0,3.5-0.8,6.9-2.5,10.3s-3.9,6-6.7,8s-6.3,3.2-10.5,3.7
			c-2.6,0.3-8.9,0.5-18.8,0.5h-26.3v-77.5H510.7z M526.3,423.3v17.9h10.2c6.1,0,9.9-0.1,11.3-0.3c2.7-0.3,4.8-1.2,6.3-2.8
			s2.3-3.5,2.3-6c0-2.4-0.7-4.3-2-5.8s-3.3-2.4-5.9-2.7c-1.5-0.2-6-0.3-13.3-0.3L526.3,423.3L526.3,423.3z M526.3,454.1v20.7h14.4
			c5.6,0,9.2-0.2,10.7-0.5c2.3-0.4,4.2-1.5,5.7-3.1s2.2-3.8,2.2-6.6c0-2.3-0.6-4.3-1.7-5.9c-1.1-1.6-2.8-2.8-4.9-3.5
			c-2.1-0.7-6.7-1.1-13.8-1.1L526.3,454.1L526.3,454.1z"/>
	</g>
</g>
</svg>
