<?xml version="1.0" encoding="utf-8"?>
<!-- Generator: Adobe Illustrator 19.2.0, SVG Export Plug-In . SVG Version: 6.00 Build 0)  -->
<svg version="1.1" id="Livello_1" xmlns="http://www.w3.org/2000/svg" xmlns:xlink="http://www.w3.org/1999/xlink" x="0px" y="0px"
	 viewBox="0 0 960 960" style="enable-background:new 0 0 960 960;" xml:space="preserve">
<style type="text/css">
	.st0{opacity:1.000000e-002;fill:#FFFFFF;}
	.st1{fill:#FFFFFF;stroke:#1A171B;stroke-width:1.2776;stroke-miterlimit:2.6131;}
	.st2{fill:none;stroke:#1A171B;stroke-width:4.2586;stroke-miterlimit:2.6131;}
	.st3{fill-rule:evenodd;clip-rule:evenodd;fill:#1A171B;stroke:#1A171B;stroke-width:1.2776;stroke-miterlimit:2.6131;}
</style>
<rect class="st0" width="1" height="1"/>
<rect x="959" y="959" class="st0" width="1" height="1"/>
<g>
	<polygon class="st1" points="739.7,366.5 220.3,366.5 220.3,593.5 739.7,593.5 739.7,366.5 	"/>
	<path class="st2" d="M696.4,383.1H264.5c-16.1,0-29.2,13.2-29.2,29.2V548c0,16.1,13.2,29.2,29.2,29.2h431.9
		c16.1,0,29.2-13.2,29.2-29.2V412.3C725.6,396.3,712.5,383.1,696.4,383.1L696.4,383.1z"/>
	<polygon class="st3" points="592.3,553.5 661.4,480.8 591.2,408.1 561.8,408.1 616.6,466.9 519.6,466.9 519.6,494.4 616.6,494.4 
		559.3,553.5 592.3,553.5 	"/>
</g>
</svg>
