<?xml version="1.0" encoding="utf-8"?>
<!-- Generator: Adobe Illustrator 19.2.0, SVG Export Plug-In . SVG Version: 6.00 Build 0)  -->
<svg version="1.1" id="Livello_1" xmlns="http://www.w3.org/2000/svg" xmlns:xlink="http://www.w3.org/1999/xlink" x="0px" y="0px"
	 viewBox="0 0 601.7 597.9" style="enable-background:new 0 0 601.7 597.9;" xml:space="preserve">
<style type="text/css">
	.st0{fill:#C5C6C8;}
	.st1{fill:#C5C6C8;stroke:#FFFFFF;stroke-width:11.816;stroke-miterlimit:2.6131;}
	.st2{fill:#FFFFFF;stroke:#9B9C9E;stroke-width:1.1816;stroke-miterlimit:2.6131;}
	.st3{fill:#1A171B;stroke:#1A171B;stroke-width:1.1816;stroke-miterlimit:2.6131;}
	.st4{fill:#FFFFFF;stroke:#1A171B;stroke-width:1.1816;stroke-miterlimit:2.6131;}
</style>
<g>
	<polygon class="st0" points="0.2,0.9 600.2,0.9 600.2,597.5 0.2,597.5 	"/>
	<path class="st1" d="M51,18.5h499.3c18.3,0,33.2,14.9,33.2,33.2v496.1c0,18.3-14.9,33.2-33.2,33.2H51c-18.3,0-33.2-14.9-33.2-33.2
		V51.7C17.8,33.4,32.8,18.5,51,18.5L51,18.5z"/>
	<path class="st2" d="M69.7,544.1l201.8-274.8c3.8-5.3,7.8-10.8,10.5-15.8c11.8-20.6,20.6-41.6,20.6-76l1.5-15.5l12.2-16.1h139.2
		c0,34.3,0.8,74-5,107.6c-1,5.8-2.5,12.3-3.5,17.8l-62.9,272.8H69.7L69.7,544.1z"/>
	<path class="st3" d="M436.4,250.1l-15.3-0.3c5-18.3,7-32.3,8.5-49.1h15.3C443.2,218.7,440.7,234.5,436.4,250.1L436.4,250.1z"/>
	<path class="st3" d="M416.1,250.1l-15-0.5c4.8-17.3,6.8-32.1,8.3-48.9h15.3C423.6,218.2,420.8,234.8,416.1,250.1L416.1,250.1z"/>
	<path class="st3" d="M395.7,250.1l-15.3-0.8c5.3-17.8,7-31.8,8.5-48.6h15.3C402.4,218.7,400.7,234.5,395.7,250.1L395.7,250.1z"/>
	<path class="st3" d="M374.8,250.1l-15.5-0.3c7.3-16.8,7.8-32.3,9.3-49.1h15.3C382.6,217,379.8,234.5,374.8,250.1L374.8,250.1z"/>
	<path class="st3" d="M354.2,250.1l-16-0.3c5.5-17,9.3-31.8,10-49.1h15.3C363,218.2,360.2,234.5,354.2,250.1L354.2,250.1z"/>
	<path class="st3" d="M332.6,250.1l-16.3-0.3c6-16.5,9.8-32.3,11.3-49.1h15.3C342.4,218,337.6,234.5,332.6,250.1L332.6,250.1z"/>
	<path class="st3" d="M309,250.1l-17.8-0.3c9-17,14.5-32.3,16-49.1h15.3C320.8,218.7,315.8,237.8,309,250.1L309,250.1z"/>
	<path class="st3" d="M455.3,143.4l-65.8-0.1l3.2-77c0-18.6-32.3-18.6-32.3,0l3.2,76.9l-47.3-0.1l-14,17.1l0.3,17.7h137.6l15.3-17.7
		L455.3,143.4z M438.1,173.2H307.4l-0.2-11.2l11.2-14l45.2,0.1l0.1,3.5c0,16.8,25.3,17,25.3,0l0.1-3.4l61.3,0.1l0.2,10.4
		L438.1,173.2z"/>
	<path class="st4" d="M365,66.7c0.9-12.6,21.9-12.3,22.8,0l-3.6,84.4c-1.4,8.5-9.2,11.6-14.8,4.1l-0.7-4.1L365,66.7L365,66.7z"/>
</g>
</svg>
