<?xml version="1.0" encoding="utf-8"?>
<!-- Generator: Adobe Illustrator 19.2.0, SVG Export Plug-In . SVG Version: 6.00 Build 0)  -->
<svg version="1.1" id="Livello_3" xmlns="http://www.w3.org/2000/svg" xmlns:xlink="http://www.w3.org/1999/xlink" x="0px" y="0px"
	 viewBox="0 0 445.6 805.6" style="enable-background:new 0 0 445.6 805.6;" xml:space="preserve">
<style type="text/css">
	.st0{display:none;enable-background:new    ;}
	.st1{font-family:'ArialMT';}
	.st2{font-size:53.7146px;}
	.st3{fill:#FFFFFF;stroke:#1A171B;stroke-width:0.8734;stroke-miterlimit:2.6131;}
	.st4{fill:#E1001A;}
	.st5{fill:#FFFFFF;stroke:#E1001A;stroke-width:2.9115;stroke-miterlimit:2.6131;}
	.st6{fill:#1A171B;stroke:#1A171B;stroke-width:0.8734;stroke-miterlimit:2.6131;}
	.st7{fill:#C5C6C8;}
	.st8{fill:#C5C6C8;stroke:#FFFFFF;stroke-width:7.7022;stroke-miterlimit:2.6131;}
	.st9{fill:#FFFFFF;stroke:#9B9C9E;stroke-width:0.7702;stroke-miterlimit:2.6131;}
	.st10{fill:#1A171B;stroke:#1A171B;stroke-width:0.7702;stroke-miterlimit:2.6131;}
	.st11{fill:#FFFFFF;stroke:#1A171B;stroke-width:0.7702;stroke-miterlimit:2.6131;}
</style>
<text transform="matrix(0.9757 0 0 1 8.9429 848.6501)" class="st0 st1 st2">Preavviso di STOP</text>
<g>
	<g>
		<g>
			<path class="st3" d="M410.5,388.3c20.3-0.8,32.5-16,29.3-36.2L439,349l-1.2-3.3l-1.4-3.2L250.2,19.4
				c-9.4-14.3-22.6-22.6-39.7-15.3c-6.5,3.6-11.3,8.7-15.1,14.8L9.5,341c-6.8,12.7-9.4,26.1,1,37.8c8.2,8.7,18.4,9.6,29.9,9.6
				l365.7-0.1L410.5,388.3L410.5,388.3z"/>
			<path class="st4" d="M406,379c5.7-0.1,11.3,0.6,17.2-3.8c5.9-4.4,11.4-15.5,5-28.4L242.1,24.2C231.7,6,213.3,6.5,203.3,23.8
				L17.6,345.7c-3.9,6.8-7.2,16.6-2.7,23.9c5.9,9.5,15.3,9.5,25.4,9.6L406,379L406,379z"/>
			<polygon class="st5" points="381.2,341.1 222.4,66.4 64,341.1 			"/>
			<path class="st6" d="M222.9,289.4c9.6,0,17.3,7.8,17.3,17.3s-7.8,17.3-17.3,17.3s-17.3-7.8-17.3-17.3
				C205.5,297.2,213.3,289.4,222.9,289.4L222.9,289.4z"/>
			<path class="st6" d="M234.7,262.4l5.5-120.8c0.2-5.2-7.8-17.3-17.3-17.3c-9.6,0-17.7,8.3-17.3,17.3l4.9,120.8
				c0.3,7.8,5.1,13.6,11.8,13.6C228.9,276,234.4,270.3,234.7,262.4L234.7,262.4z"/>
		</g>
	</g>
	<g>
		<polygon class="st7" points="26.3,409.9 417.4,409.9 417.4,798.8 26.3,798.8 		"/>
		<path class="st8" d="M59.4,421.4h325.5c11.9,0,21.6,9.7,21.6,21.6v323.4c0,11.9-9.7,21.6-21.6,21.6H59.4
			c-11.9,0-21.6-9.7-21.6-21.6V443C37.8,431.1,47.6,421.4,59.4,421.4L59.4,421.4z"/>
		<path class="st9" d="M71.6,764l131.5-179.1c2.5-3.5,5.1-7,6.8-10.3c7.7-13.4,13.4-27.1,13.4-49.5l1-10.1l8-10.5h90.7
			c0,22.4,0.5,48.2-3.3,70.1c-0.7,3.8-1.6,8-2.3,11.6l-41,177.8H71.6L71.6,764z"/>
		<path class="st10" d="M310.7,572.4l-10-0.2c3.3-11.9,4.6-21.1,5.5-32h10C315.1,551.9,313.5,562.2,310.7,572.4L310.7,572.4z"/>
		<path class="st10" d="M297.4,572.4l-9.8-0.3c3.1-11.3,4.4-20.9,5.4-31.9h10C302.3,551.6,300.5,562.4,297.4,572.4L297.4,572.4z"/>
		<path class="st10" d="M284.1,572.4l-10-0.5c3.5-11.6,4.6-20.7,5.5-31.7h10C288.5,551.9,287.4,562.2,284.1,572.4L284.1,572.4z"/>
		<path class="st10" d="M270.5,572.4l-10.1-0.2c4.8-11,5.1-21.1,6.1-32h10C275.6,550.8,273.8,562.2,270.5,572.4L270.5,572.4z"/>
		<path class="st10" d="M257.1,572.4l-10.4-0.2c3.6-11.1,6.1-20.7,6.5-32h10C262.8,551.6,261,562.2,257.1,572.4L257.1,572.4z"/>
		<path class="st10" d="M243,572.4l-10.6-0.2c3.9-10.8,6.4-21.1,7.4-32h10C249.4,551.4,246.3,562.2,243,572.4L243,572.4z"/>
		<path class="st10" d="M227.6,572.4l-11.6-0.2c5.9-11.1,9.5-21.1,10.4-32h10C235.3,551.9,232.1,564.3,227.6,572.4L227.6,572.4z"/>
		<path class="st10" d="M323,502.8l-42.9-0.1l2.1-50.2c0-12.1-21.1-12.1-21.1,0l2.1,50.1l-30.8-0.1l-9.1,11.1l0.2,11.5h89.7l10-11.5
			L323,502.8z M311.8,522.2h-85.2l-0.1-7.3l7.3-9.1l29.5,0.1l0.1,2.3c0,11,16.5,11.1,16.5,0l0.1-2.2l40,0.1l0.1,6.8L311.8,522.2z"/>
		<path class="st11" d="M264.1,452.8c0.6-8.2,14.3-8,14.9,0l-2.3,55c-0.9,5.5-6,7.6-9.6,2.7l-0.5-2.7L264.1,452.8L264.1,452.8z"/>
	</g>
</g>
</svg>
