<?xml version="1.0" encoding="utf-8"?>
<!-- Generator: Adobe Illustrator 19.2.0, SVG Export Plug-In . SVG Version: 6.00 Build 0)  -->
<svg version="1.1" id="Livello_1" xmlns="http://www.w3.org/2000/svg" xmlns:xlink="http://www.w3.org/1999/xlink" x="0px" y="0px"
	 viewBox="0 0 602 598" style="enable-background:new 0 0 602 598;" xml:space="preserve">
<style type="text/css">
	.st0{fill:#E1001A;}
	.st1{fill:#E1001A;stroke:#FFFFFF;stroke-width:11.816;stroke-miterlimit:2.6131;}
	.st2{fill:#FFFFFF;}
</style>
<g>
	<polygon class="st0" points="1.3,0.7 601.3,0.7 601.3,597.3 1.3,597.3 	"/>
	<path class="st1" d="M52.1,18.3h499.3c18.3,0,33.2,14.9,33.2,33.2v496.1c0,18.3-14.9,33.2-33.2,33.2H52.1
		c-18.3,0-33.2-14.9-33.2-33.2V51.5C18.9,33.2,33.9,18.3,52.1,18.3L52.1,18.3z"/>
	<path class="st2" d="M551.8,227.7l-73.2-0.8c-36.1-0.4-72.6,2.5-108.4,4c-15.3,0.5-30.8,1.4-45.8,2.5c-23.7,1.8-47.5,4.5-71.2,6.8
		l-11.5,53.1l15.5,51.9l70.8,1c15.4,0.1,31,1.1,46.5,0.7c36-0.9,72.6-1.9,108.6-4c24.3-1.4,48.5-4.5,72.9-6.8L551.8,227.7z
		 M412.3,233.9l0.5,12.8l-40.8,2.5l-32.7-10.8L412.3,233.9z M325.8,238.9l31,12.5c-5.8,29.1-4.3,50.2,2.9,78.1l-30.2,9.5
		C321.5,308.8,320.2,274.8,325.8,238.9z M343,342l31.8-13l40.9-0.5l0.5,12.8L343,342z M417.4,234l57.4-0.6l-13.7,11.9l-43.3,0.7
		L417.4,234z M421.4,340.7l-0.4-12.2l43.2-2.4l14.5,10.9L421.4,340.7z M494.1,332.9c-6.3-3.2-16.2-8.4-22.7-12.6
		c4.6-15.6,3.1-56.3-2.5-68.1c5.5-4.5,15.2-8.8,21.4-13.7C500.4,268.2,501.7,303.7,494.1,332.9z"/>
	<polygon class="st2" points="313.3,389 316.3,386.7 390.6,453.3 378.7,465.9 	"/>
	<polygon class="st2" points="342.1,482.1 301.9,393.7 304.5,392.2 355,475.8 	"/>
	<polygon class="st2" points="391.8,422 300.4,370.3 302.2,367.7 397.6,408.6 	"/>
	<polygon class="st2" points="165.6,139 179.3,133.2 216.9,240 213.6,241.3 	"/>
	<polygon class="st2" points="235.8,241.5 251.7,125.4 265.1,128.4 239.3,242 	"/>
	<polygon class="st2" points="223.7,235.2 206,118.3 221.2,116.8 226.7,234.5 	"/>
	<path class="st2" d="M256.4,352.8l-6.6-0.4c-22.9,21.3-52.3,38.4-86.6,50.4l-3.6-33.2c28.4-8.5,47-19.8,68.1-39.3l-27.2-48.8
		l14.4-8.8c-11.7-19.4-22.5-38-34.1-57.6s-26.9-40.6-40.4-61.1l-93.7,54.7l33.8,64.9c16.4,31.3,36.5,62.8,54.6,93.8
		c7.6,13.1,16.4,26.8,23.8,39.2c12.1,20.1,26.3,39.8,39.5,59.6l52.2-14.8l38.5-38.1L256.4,352.8z M177,221.7l30.9,48.9l-10.5,6.1
		l-22.5-37L177,221.7z M88.2,273.9l17,6.5l21,37.8l-10.5,6.1L88.2,273.9z M118,329l11-6.4l21.5,34.8l5.9,33.9L118,329z M107.5,270.4
		c-6.6-2.7-15-9.3-22.2-12.4c21.4-22.8,52.1-40.7,81.5-47.8c0.1,7.1,0.2,18.2-0.4,26C150.5,239.4,115.3,259.9,107.5,270.4z"/>
</g>
</svg>
