<?xml version="1.0" encoding="utf-8"?>
<!-- Generator: Adobe Illustrator 19.2.0, SVG Export Plug-In . SVG Version: 6.00 Build 0)  -->
<svg version="1.1" id="Livello_3" xmlns="http://www.w3.org/2000/svg" xmlns:xlink="http://www.w3.org/1999/xlink" x="0px" y="0px"
	 viewBox="0 0 445.6 805.6" style="enable-background:new 0 0 445.6 805.6;" xml:space="preserve">
<style type="text/css">
	.st0{display:none;enable-background:new    ;}
	.st1{font-family:'ArialMT';}
	.st2{font-size:53.7146px;}
	.st3{fill:#FFFFFF;stroke:#1A171B;stroke-width:0.8734;stroke-miterlimit:2.6131;}
	.st4{fill:#E1001A;}
	.st5{fill:#FFFFFF;stroke:#E1001A;stroke-width:2.9115;stroke-miterlimit:2.6131;}
	.st6{fill:#1A171B;stroke:#1A171B;stroke-width:0.8734;stroke-miterlimit:2.6131;}
	.st7{fill:#E1001A;stroke:#FFFFFF;stroke-width:7.6989;stroke-miterlimit:2.6131;}
	.st8{fill:#FFFFFF;}
</style>
<text transform="matrix(0.9757 0 0 1 8.9429 848.6501)" class="st0 st1 st2">Preavviso di STOP</text>
<g>
	<g>
		<path class="st3" d="M410.5,388.3c20.3-0.8,32.5-16,29.3-36.2L439,349l-1.2-3.3l-1.4-3.2L250.2,19.4
			c-9.4-14.3-22.6-22.6-39.7-15.3c-6.5,3.6-11.3,8.7-15.1,14.8L9.5,341c-6.8,12.7-9.4,26.1,1,37.8c8.2,8.7,18.4,9.6,29.9,9.6
			l365.7-0.1H410.5L410.5,388.3z"/>
		<path class="st4" d="M406,379c5.7-0.1,11.3,0.6,17.2-3.8c5.9-4.4,11.4-15.5,5-28.4L242.1,24.2C231.7,6,213.3,6.5,203.3,23.8
			L17.6,345.7c-3.9,6.8-7.2,16.6-2.7,23.9c5.9,9.5,15.3,9.5,25.4,9.6L406,379L406,379z"/>
		<polygon class="st5" points="381.2,341.1 222.4,66.4 64,341.1 		"/>
		<path class="st6" d="M222.9,289.4c9.6,0,17.3,7.8,17.3,17.3s-7.8,17.3-17.3,17.3s-17.3-7.8-17.3-17.3
			C205.5,297.2,213.3,289.4,222.9,289.4L222.9,289.4z"/>
		<path class="st6" d="M234.7,262.4l5.5-120.8c0.2-5.2-7.8-17.3-17.3-17.3c-9.6,0-17.7,8.3-17.3,17.3l4.9,120.8
			c0.3,7.8,5.1,13.6,11.8,13.6C228.9,276,234.4,270.3,234.7,262.4L234.7,262.4z"/>
	</g>
</g>
<g>
	<polygon class="st4" points="26.5,410.1 417.4,410.1 417.4,798.9 26.5,798.9 	"/>
	<path class="st7" d="M59.6,421.6h325.3c11.9,0,21.6,9.7,21.6,21.6v323.2c0,11.9-9.7,21.6-21.6,21.6H59.6
		c-11.9,0-21.6-9.7-21.6-21.6V443.2C38,431.3,47.7,421.6,59.6,421.6L59.6,421.6z"/>
	<path class="st8" d="M385.2,558l-47.7-0.5c-23.5-0.3-47.3,1.6-70.6,2.6c-10,0.3-20.1,0.9-29.8,1.6c-15.4,1.2-30.9,2.9-46.4,4.4
		l-7.5,34.6l10.1,33.8l46.1,0.7c10,0.1,20.2,0.7,30.3,0.5c23.5-0.6,47.3-1.2,70.8-2.6c15.8-0.9,31.6-2.9,47.5-4.4L385.2,558z
		 M294.3,562.1l0.3,8.3L268,572l-21.3-7L294.3,562.1z M237.9,565.3l20.2,8.1c-3.8,19-2.8,32.7,1.9,50.9l-19.7,6.2
		C235.1,610.9,234.3,588.7,237.9,565.3z M249.1,632.5l20.7-8.5l26.6-0.3l0.3,8.3L249.1,632.5z M297.6,562.1l37.4-0.4l-8.9,7.8
		l-28.2,0.5L297.6,562.1z M300.2,631.7l-0.3-7.9l28.1-1.6l9.4,7.1L300.2,631.7z M347.6,626.6c-4.1-2.1-10.6-5.5-14.8-8.2
		c3-10.2,2-36.7-1.6-44.4c3.6-2.9,9.9-5.7,13.9-8.9C351.7,584.4,352.5,607.6,347.6,626.6z"/>
	<polygon class="st8" points="229.8,663.1 231.7,661.6 280.1,705 272.4,713.2 	"/>
	<polygon class="st8" points="248.5,723.8 222.4,666.2 224,665.2 257,719.7 	"/>
	<polygon class="st8" points="280.9,684.6 221.4,650.9 222.6,649.3 284.7,675.9 	"/>
	<polygon class="st8" points="133.5,500.2 142.5,496.5 167,566 164.8,566.9 	"/>
	<polygon class="st8" points="179.3,567 189.6,491.4 198.4,493.3 181.6,567.4 	"/>
	<polygon class="st8" points="171.4,562.9 159.9,486.8 169.8,485.8 173.4,562.5 	"/>
	<path class="st8" d="M192.7,639.5l-4.3-0.3c-14.9,13.9-34.1,25-56.4,32.8l-2.3-21.6c18.5-5.5,30.6-12.9,44.4-25.6l-17.7-31.8
		l9.4-5.7c-7.6-12.6-14.7-24.8-22.2-37.5c-7.6-12.8-17.5-26.5-26.3-39.8l-61.1,35.6l22,42.3c10.7,20.4,23.8,40.9,35.6,61.1
		c5,8.5,10.7,17.5,15.5,25.5c7.9,13.1,17.1,25.9,25.7,38.8l34-9.6L214,679L192.7,639.5z M141,554.1l20.1,31.9l-6.8,4l-14.7-24.1
		L141,554.1z M83.1,588.1l11.1,4.2l13.7,24.6l-6.8,4L83.1,588.1z M102.5,624l7.2-4.2l14,22.7l3.8,22.1L102.5,624z M95.7,585.9
		c-4.3-1.8-9.8-6.1-14.5-8.1c13.9-14.9,33.9-26.5,53.1-31.1c0.1,4.6,0.1,11.9-0.3,16.9C123.7,565.7,100.8,579,95.7,585.9z"/>
</g>
</svg>
