<?xml version="1.0" encoding="utf-8"?>
<!-- Generator: Adobe Illustrator 19.2.0, SVG Export Plug-In . SVG Version: 6.00 Build 0)  -->
<svg version="1.1" id="Livello_1" xmlns="http://www.w3.org/2000/svg" xmlns:xlink="http://www.w3.org/1999/xlink" x="0px" y="0px"
	 viewBox="0 0 602.4 289.5" style="enable-background:new 0 0 602.4 289.5;" xml:space="preserve">
<style type="text/css">
	.st0{fill:#FFFFFF;stroke:#1A171B;stroke-width:1.1838;stroke-miterlimit:2.6131;}
	.st1{fill:none;stroke:#1A171B;stroke-width:7.8917;stroke-miterlimit:2.6131;}
	.st2{fill:#1A171B;stroke:#1A171B;stroke-width:3.1567;stroke-miterlimit:2.6131;}
	.st3{fill:#1A171B;stroke:#1A171B;stroke-width:1.1838;stroke-miterlimit:2.6131;}
</style>
<g>
	<polygon class="st0" points="1.2,61.1 601.2,61.1 601.2,288.1 1.2,288.1 	"/>
	<path class="st1" d="M47.1,77.4h508.1c16.3,0,29.7,13.3,29.7,29.7v135.3c0,16.3-13.3,29.7-29.7,29.7H47.1
		c-16.3,0-29.7-13.3-29.7-29.7V107C17.5,90.7,30.8,77.4,47.1,77.4L47.1,77.4z"/>
	<path class="st2" d="M91.2,207.1l-9.7-14.8l9.6-17.3c2.9,0,8.8,0,12.6,0c7.4-5,0-9.9,0-15l2.4-5c4.7,0,4.1,0,9.9,0l2.4,5
		c0,5.8-7.3,9.8-2.4,15c9.5,0,16.9,0,27.4,0c2.7,0,2.4,0.1,4.9-2.6c14.8,0,29.8,0,44.8,0c2.4,2.6,2.4,2.6,4.9,2.6v32.1H91.2
		L91.2,207.1z"/>
	<path class="st2" d="M107.4,150.5c-0.3,0,1.7-8.4,3.5-13.3c1.1-3.3,7.9-9.8,9.1-14.5c3-12,9.1-20.7,22.7-18.2
		c6.2,1,7.9,7.5,14.9,9.3c5,1.3,11-4.1,17-4.1c7.2-0.1,7.1,8.4,14.1,8.4c4.4,0,8.8-4.4,11-4.4c14.1,0,15.3,15.6,11.1,22.2
		c-1.8,2.7-6.9,4.8-10.5,4.8c-5.2,0-8.8-8-13.3-4.4c-5,4.1-8.7,7.2-16.1,5.3c-4.4-1.1-7.7-7.8-12.4-7.1l-5.3,0.9
		c-4.2,4.2-12.7,8.8-18.6,6.2c-7.2-3.1-13.7-7.3-17.6,3.5l-1.9,5.3h-7.7L107.4,150.5L107.4,150.5z"/>
	<path class="st3" d="M71.6,232.2v-7.7h9.8c0-3,0-9.3,0-13.1h120.8v-39.1h45.5v7.3h-24.9v17.6c2.8,0,8.8,0,12.3,0v22.7h-24.7v4.3
		h44.3v7.7h-20.5c2.5,1.3,4.4,4,4.4,7.1c0,4.3-3.7,7.9-7.9,7.9c-4.4,0-8.1-3.6-8.1-7.9c0-3,1.8-5.8,4.4-7.2l-17.1,0.1h0.3
		c0,8.3-6.8,14.9-14.9,14.9c-8.3,0-14.9-6.6-14.9-14.9l0,0h-7.6l0,0c0,8.3-6.6,14.9-14.9,14.9c-8.1,0-14.9-6.6-14.9-14.9l0,0h-7.3
		c0,8.3-6.8,14.9-14.9,14.9c-8.3,0-14.9-6.6-14.9-14.6H91.8c2.5,1.3,4.3,4,4.3,6.8c0,4.3-3.8,8.1-8.1,8.1c-4.3,0-8.1-3.8-8.1-8.1
		c0-2.8,1.8-5.5,4.3-6.8L71.6,232.2L71.6,232.2z"/>
	<path class="st2" d="M365,207.1l-9.7-14.8l9.6-17.3c2.9,0,8.8,0,12.7,0c7.4-5,0-9.9,0-15l2.4-5c4.7,0,4.1,0,9.9,0l2.4,5
		c0,5.8-7.3,9.8-2.4,15c9.5,0,16.9,0,27.4,0c2.7,0,2.4,0.1,4.9-2.6c14.8,0,29.8,0,44.8,0c2.4,2.6,2.4,2.6,4.9,2.6v32.1H365
		L365,207.1z"/>
	<path class="st2" d="M381.2,150.5c-0.3,0,1.7-8.4,3.5-13.3c1.1-3.3,7.9-9.8,9.1-14.5c3-12,9.1-20.7,22.7-18.2
		c6.2,1,7.9,7.5,14.9,9.3c5,1.3,11-4.1,17-4.1c7.2-0.1,7.1,8.4,14.1,8.4c4.4,0,8.8-4.4,11-4.4c14.1,0,15.3,15.6,11.1,22.2
		c-1.8,2.7-6.9,4.8-10.5,4.8c-5.2,0-8.8-8-13.3-4.4c-5,4.1-8.7,7.2-16.1,5.3c-4.4-1.1-7.7-7.8-12.4-7.1l-5.3,0.9
		c-4.2,4.2-12.7,8.8-18.6,6.2c-7.2-3.1-13.7-7.3-17.6,3.5l-1.9,5.3h-7.7V150.5z"/>
	<path class="st3" d="M345.5,232.2v-7.7h9.8c0-3,0-9.3,0-13.1h120.8v-39.1h45.5v7.3h-24.9v17.6c2.8,0,8.8,0,12.3,0v22.7h-24.7v4.3
		h44.3v7.7h-20.5c2.5,1.3,4.4,4,4.4,7.1c0,4.3-3.7,7.9-7.9,7.9c-4.4,0-8.1-3.6-8.1-7.9c0-3,1.8-5.8,4.4-7.2l-17.1,0.1h0.3
		c0,8.3-6.8,14.9-14.9,14.9c-8.3,0-14.9-6.6-14.9-14.9l0,0h-7.6l0,0c0,8.3-6.6,14.9-14.9,14.9c-8.1,0-14.9-6.6-14.9-14.9l0,0h-7.3
		c0,8.3-6.8,14.9-14.9,14.9c-8.3,0-14.9-6.6-14.9-14.6h-14.1c2.5,1.3,4.3,4,4.3,6.8c0,4.3-3.8,8.1-8.1,8.1s-8.1-3.8-8.1-8.1
		c0-2.8,1.8-5.5,4.3-6.8L345.5,232.2L345.5,232.2z"/>
</g>
</svg>
