<?xml version="1.0" encoding="utf-8"?>
<!-- Generator: Adobe Illustrator 19.2.0, SVG Export Plug-In . SVG Version: 6.00 Build 0)  -->
<svg version="1.1" id="Livello_3" xmlns="http://www.w3.org/2000/svg" xmlns:xlink="http://www.w3.org/1999/xlink" x="0px" y="0px"
	 viewBox="0 0 445.6 559.9" style="enable-background:new 0 0 445.6 559.9;" xml:space="preserve">
<style type="text/css">
	.st0{fill:#FFFFFF;stroke:#1A171B;stroke-width:0.8734;stroke-miterlimit:2.6131;}
	.st1{fill:#E1001A;}
	.st2{fill:#FFFFFF;stroke:#E1001A;stroke-width:2.9115;stroke-miterlimit:2.6131;}
	.st3{fill:#1A171B;stroke:#1A171B;stroke-width:0.8734;stroke-miterlimit:2.6131;}
	.st4{fill:#FFFFFF;stroke:#1A171B;stroke-width:0.7698;stroke-miterlimit:2.6131;}
	.st5{fill:none;stroke:#1A171B;stroke-width:5.1321;stroke-miterlimit:2.6131;}
	.st6{fill:#1A171B;stroke:#1A171B;stroke-width:2.0528;stroke-miterlimit:2.6131;}
	.st7{fill:#1A171B;stroke:#1A171B;stroke-width:0.7698;stroke-miterlimit:2.6131;}
</style>
<text transform="matrix(0.9757 0 0 1 8.9429 848.6501)" style="display:none;enable-background:new    ; font-family:'ArialMT'; font-size:53.7146px;">Preavviso di STOP</text>
<g>
	<g>
		<path class="st0" d="M410.5,388.3c20.3-0.8,32.5-16,29.3-36.2L439,349l-1.2-3.3l-1.4-3.2L250.2,19.4
			c-9.4-14.3-22.6-22.6-39.7-15.3c-6.5,3.6-11.3,8.7-15.1,14.8L9.5,341c-6.8,12.7-9.4,26.1,1,37.8c8.2,8.7,18.4,9.6,29.9,9.6
			l365.7-0.1H410.5L410.5,388.3z"/>
		<path class="st1" d="M406,379c5.7-0.1,11.3,0.6,17.2-3.8c5.9-4.4,11.4-15.5,5-28.4L242.1,24.2C231.7,6,213.3,6.5,203.3,23.8
			L17.6,345.7c-3.9,6.8-7.2,16.6-2.7,23.9c5.9,9.5,15.3,9.5,25.4,9.6L406,379L406,379z"/>
		<polygon class="st2" points="381.2,341.1 222.4,66.4 64,341.1 		"/>
		<path class="st3" d="M222.9,289.4c9.6,0,17.3,7.8,17.3,17.3s-7.8,17.3-17.3,17.3s-17.3-7.8-17.3-17.3
			C205.5,297.2,213.3,289.4,222.9,289.4L222.9,289.4z"/>
		<path class="st3" d="M234.7,262.4l5.5-120.8c0.2-5.2-7.8-17.3-17.3-17.3c-9.6,0-17.7,8.3-17.3,17.3l4.9,120.8
			c0.3,7.8,5.1,13.6,11.8,13.6C228.9,276,234.4,270.3,234.7,262.4L234.7,262.4z"/>
	</g>
</g>
<g>
	<polygon class="st4" points="27,410.4 417.2,410.4 417.2,558 27,558 	"/>
	<path class="st5" d="M56.9,421h330.4c10.6,0,19.3,8.6,19.3,19.3v88c0,10.6-8.6,19.3-19.3,19.3H56.9c-10.6,0-19.3-8.6-19.3-19.3
		v-88.1C37.6,429.6,46.3,421,56.9,421L56.9,421z"/>
	<path class="st6" d="M85.6,505.3l-6.3-9.6l6.2-11.3c1.9,0,5.7,0,8.2,0c4.8-3.3,0-6.4,0-9.8l1.6-3.3c3.1,0,2.7,0,6.4,0l1.6,3.3
		c0,3.8-4.7,6.4-1.6,9.8c6.2,0,11,0,17.8,0c1.8,0,1.6,0.1,3.2-1.7c9.6,0,19.4,0,29.1,0c1.6,1.7,1.6,1.7,3.2,1.7v20.9H85.6
		L85.6,505.3z"/>
	<path class="st6" d="M96.1,468.5c-0.2,0,1.1-5.5,2.3-8.6c0.7-2.1,5.1-6.4,5.9-9.4c2-7.8,5.9-13.5,14.8-11.8c4,0.7,5.1,4.9,9.7,6
		c3.3,0.8,7.2-2.7,11.1-2.7c4.7-0.1,4.6,5.5,9.2,5.5c2.9,0,5.7-2.9,7.2-2.9c9.2,0,9.9,10.1,7.2,14.4c-1.2,1.8-4.5,3.1-6.8,3.1
		c-3.4,0-5.7-5.2-8.6-2.9c-3.3,2.7-5.7,4.7-10.5,3.4c-2.9-0.7-5-5.1-8.1-4.6l-3.4,0.6c-2.7,2.7-8.3,5.7-12.1,4
		c-4.7-2-8.9-4.7-11.4,2.3l-1.2,3.4L96.1,468.5L96.1,468.5L96.1,468.5z"/>
	<path class="st7" d="M72.8,521.7v-5h6.4c0-2,0-6,0-8.5h78.6v-25.4h29.6v4.7h-16.2v11.4c1.8,0,5.7,0,8,0v14.8h-16.1v2.8h28.8v5
		h-13.3c1.6,0.8,2.9,2.6,2.9,4.6c0,2.8-2.4,5.1-5.1,5.1c-2.9,0-5.3-2.3-5.3-5.1c0-2,1.2-3.8,2.9-4.7l-11.1,0.1h0.2
		c0,5.4-4.4,9.7-9.7,9.7c-5.4,0-9.7-4.3-9.7-9.7l0,0h-4.9l0,0c0,5.4-4.3,9.7-9.7,9.7c-5.3,0-9.7-4.3-9.7-9.7l0,0h-4.7
		c0,5.4-4.4,9.7-9.7,9.7c-5.4,0-9.7-4.3-9.7-9.5H86c1.6,0.8,2.8,2.6,2.8,4.4c0,2.8-2.5,5.3-5.3,5.3c-2.8,0-5.3-2.5-5.3-5.3
		c0-1.8,1.2-3.6,2.8-4.4L72.8,521.7L72.8,521.7z"/>
	<path class="st6" d="M263.6,505.3l-6.3-9.6l6.2-11.3c1.9,0,5.7,0,8.3,0c4.8-3.3,0-6.4,0-9.8l1.6-3.3c3.1,0,2.7,0,6.4,0l1.6,3.3
		c0,3.8-4.7,6.4-1.6,9.8c6.2,0,11,0,17.8,0c1.8,0,1.6,0.1,3.2-1.7c9.6,0,19.4,0,29.1,0c1.6,1.7,1.6,1.7,3.2,1.7v20.9H263.6
		L263.6,505.3z"/>
	<path class="st6" d="M274.2,468.5c-0.2,0,1.1-5.5,2.3-8.6c0.7-2.1,5.1-6.4,5.9-9.4c2-7.8,5.9-13.5,14.8-11.8c4,0.7,5.1,4.9,9.7,6
		c3.3,0.8,7.2-2.7,11.1-2.7c4.7-0.1,4.6,5.5,9.2,5.5c2.9,0,5.7-2.9,7.2-2.9c9.2,0,9.9,10.1,7.2,14.4c-1.2,1.8-4.5,3.1-6.8,3.1
		c-3.4,0-5.7-5.2-8.6-2.9c-3.3,2.7-5.7,4.7-10.5,3.4c-2.9-0.7-5-5.1-8.1-4.6l-3.4,0.6c-2.7,2.7-8.3,5.7-12.1,4
		c-4.7-2-8.9-4.7-11.4,2.3l-1.2,3.4L274.2,468.5L274.2,468.5z"/>
	<path class="st7" d="M250.9,521.7v-5h6.4c0-2,0-6,0-8.5h78.6v-25.4h29.6v4.7h-16.2v11.4c1.8,0,5.7,0,8,0v14.8h-16.1v2.8H370v5
		h-13.3c1.6,0.8,2.9,2.6,2.9,4.6c0,2.8-2.4,5.1-5.1,5.1c-2.9,0-5.3-2.3-5.3-5.1c0-2,1.2-3.8,2.9-4.7l-11.1,0.1h0.2
		c0,5.4-4.4,9.7-9.7,9.7c-5.4,0-9.7-4.3-9.7-9.7l0,0h-4.9l0,0c0,5.4-4.3,9.7-9.7,9.7c-5.3,0-9.7-4.3-9.7-9.7l0,0h-4.7
		c0,5.4-4.4,9.7-9.7,9.7c-5.4,0-9.7-4.3-9.7-9.5h-9.2c1.6,0.8,2.8,2.6,2.8,4.4c0,2.8-2.5,5.3-5.3,5.3c-2.8,0-5.3-2.5-5.3-5.3
		c0-1.8,1.2-3.6,2.8-4.4L250.9,521.7L250.9,521.7z"/>
</g>
</svg>
