<?xml version="1.0" encoding="utf-8"?>
<!-- Generator: Adobe Illustrator 19.2.0, SVG Export Plug-In . SVG Version: 6.00 Build 0)  -->
<svg version="1.1" id="Livello_1" xmlns="http://www.w3.org/2000/svg" xmlns:xlink="http://www.w3.org/1999/xlink" x="0px" y="0px"
	 viewBox="0 0 602.4 289.5" style="enable-background:new 0 0 602.4 289.5;" xml:space="preserve">
<style type="text/css">
	.st0{fill:#FFFFFF;stroke:#1A171B;stroke-width:1.1838;stroke-miterlimit:2.6131;}
	.st1{fill:none;stroke:#1A171B;stroke-width:7.8917;stroke-miterlimit:2.6131;}
	.st2{fill:#1A171B;stroke:#1A171B;stroke-width:1.1838;stroke-miterlimit:2.6131;}
</style>
<g>
	<polygon class="st0" points="1.2,61.1 601.2,61.1 601.2,288.1 1.2,288.1 	"/>
	<path class="st1" d="M47.1,77.4h508.1c16.3,0,29.7,13.3,29.7,29.7v135.3c0,16.3-13.3,29.7-29.7,29.7H47.1
		c-16.3,0-29.7-13.3-29.7-29.7V107C17.5,90.7,30.8,77.4,47.1,77.4L47.1,77.4z"/>
	<polygon class="st2" points="151.6,145.4 147.5,129.9 153.9,128.1 156.2,137.1 162.1,127.3 173.3,133.8 166.9,145.2 178.3,142.2 
		180,148.5 162.1,153.3 151.6,171.6 175.3,171.6 186.6,160.3 191.3,165 184.6,171.3 196.2,171.6 196.2,184.5 183,184.5 191.3,193.2 
		186.6,197.8 173.7,184.5 150.6,184.5 162.4,204.6 180.1,209.3 178.6,215.9 167,212.7 173.8,224.2 162.4,230.7 156.4,220.5 
		153.9,230 147.6,228 151.6,212.2 139.8,191.8 129.2,210.3 134,228.2 127.5,230 124.6,218.4 117.9,230 106.5,223.4 112.4,213.1 
		103,215.7 101.5,209.3 117.3,204.8 129,184.5 108,184.5 94.7,197.8 90,193.2 98.3,184.5 85.1,184.5 85.1,171.6 97,171.6 90,164.6 
		95,160 106.6,171.6 128,171.6 117.4,152.8 102,148.7 103.6,142.1 112.4,144.5 107,134.6 118.2,127.9 124.9,139.4 128,127.9 
		134.3,129.8 129.5,147.7 139.8,165.8 	"/>
	<polygon class="st2" points="420.5,206.4 420.5,178.4 516,178.4 515.8,206.4 	"/>
	<path class="st2" d="M516,236l-0.2-23H414.1v-85.5h-59.3l-34.3,50.8l-0.2,44.4h10c3.2-37.8,41-31.2,45.9-27.9
		c4.9,3.4,23,11.5,16.2,41H516L516,236L516,236z M330.3,178.6l29.6-44.4h47.5v44.4H330.3z"/>
	<path class="st2" d="M362.1,211.9c-6.7,0-12.1,5.5-12.1,12.1c0,6.7,5.5,12.1,12.1,12.1c6.7,0,12.1-5.5,12.1-12.1
		C374.2,217.3,368.8,211.9,362.1,211.9L362.1,211.9z M362.1,198.6c14,0,25.4,11.4,25.4,25.4s-11.4,25.4-25.4,25.4
		S336.7,238,336.7,224C336.8,210,348.1,198.6,362.1,198.6L362.1,198.6z"/>
	<path class="st2" d="M369.6,121.4l3.5-14c1.7-7.2,13.9-8.2,16,0l3.5,14H369.6L369.6,121.4z"/>
	<path class="st2" d="M287.3,245.7l-36.7-27.3c8.1-7,23.9-31.2,11.5-55.7l36.3,22.2C312.1,207.8,301.7,234.9,287.3,245.7
		L287.3,245.7z"/>
	<path class="st2" d="M294.7,245.9c16.7-14.9,20.2-44.5,10.6-61l-38.2-23.1h6.6l38.6,22.9c2.6,6.6,5.6,17.5,4.3,28.2
		c-1.7,15.1-7.5,27.6-15.5,32.7L294.7,245.9L294.7,245.9z"/>
</g>
</svg>
