<?xml version="1.0" encoding="utf-8"?>
<!-- Generator: Adobe Illustrator 19.2.0, SVG Export Plug-In . SVG Version: 6.00 Build 0)  -->
<svg version="1.1" id="Livello_3" xmlns="http://www.w3.org/2000/svg" xmlns:xlink="http://www.w3.org/1999/xlink" x="0px" y="0px"
	 viewBox="0 0 445.6 559.9" style="enable-background:new 0 0 445.6 559.9;" xml:space="preserve">
<style type="text/css">
	.st0{fill:#FFFFFF;stroke:#1A171B;stroke-width:0.8734;stroke-miterlimit:2.6131;}
	.st1{fill:#E1001A;}
	.st2{fill:#FFFFFF;stroke:#E1001A;stroke-width:2.9115;stroke-miterlimit:2.6131;}
	.st3{fill:#1A171B;stroke:#1A171B;stroke-width:0.8734;stroke-miterlimit:2.6131;}
	.st4{fill:#FFFFFF;stroke:#1A171B;stroke-width:0.7698;stroke-miterlimit:2.6131;}
	.st5{fill:none;stroke:#1A171B;stroke-width:5.1316;stroke-miterlimit:2.6131;}
	.st6{fill:#1A171B;stroke:#1A171B;stroke-width:0.7698;stroke-miterlimit:2.6131;}
</style>
<text transform="matrix(0.9757 0 0 1 8.9429 848.6501)" style="display:none;enable-background:new    ; font-family:'ArialMT'; font-size:53.7146px;">Preavviso di STOP</text>
<g>
	<g>
		<path class="st0" d="M410.5,388.3c20.3-0.8,32.5-16,29.3-36.2L439,349l-1.2-3.3l-1.4-3.2L250.2,19.4
			c-9.4-14.3-22.6-22.6-39.7-15.3c-6.5,3.6-11.3,8.7-15.1,14.8L9.5,341c-6.8,12.7-9.4,26.1,1,37.8c8.2,8.7,18.4,9.6,29.9,9.6
			l365.7-0.1H410.5L410.5,388.3z"/>
		<path class="st1" d="M406,379c5.7-0.1,11.3,0.6,17.2-3.8c5.9-4.4,11.4-15.5,5-28.4L242.1,24.2C231.7,6,213.3,6.5,203.3,23.8
			L17.6,345.7c-3.9,6.8-7.2,16.6-2.7,23.9c5.9,9.5,15.3,9.5,25.4,9.6L406,379L406,379z"/>
		<polygon class="st2" points="381.2,341.1 222.4,66.4 64,341.1 		"/>
		<path class="st3" d="M222.9,289.4c9.6,0,17.3,7.8,17.3,17.3s-7.8,17.3-17.3,17.3s-17.3-7.8-17.3-17.3
			C205.5,297.2,213.3,289.4,222.9,289.4L222.9,289.4z"/>
		<path class="st3" d="M234.7,262.4l5.5-120.8c0.2-5.2-7.8-17.3-17.3-17.3c-9.6,0-17.7,8.3-17.3,17.3l4.9,120.8
			c0.3,7.8,5.1,13.6,11.8,13.6C228.9,276,234.4,270.3,234.7,262.4L234.7,262.4z"/>
	</g>
</g>
<g>
	<polygon class="st4" points="27,410.5 417.1,410.5 417.1,558.1 27,558.1 	"/>
	<path class="st5" d="M56.8,421.1h330.4c10.6,0,19.3,8.6,19.3,19.3v88c0,10.6-8.6,19.3-19.3,19.3H56.8c-10.6,0-19.3-8.6-19.3-19.3
		v-88C37.6,429.7,46.2,421.1,56.8,421.1L56.8,421.1z"/>
	<polygon class="st6" points="124.8,465.3 122.1,455.2 126.3,454.1 127.8,459.9 131.6,453.5 138.9,457.8 134.7,465.2 142.2,463.2 
		143.3,467.3 131.6,470.4 124.8,482.3 140.2,482.3 147.6,475 150.6,478 146.2,482.1 153.8,482.3 153.8,490.7 145.2,490.7 
		150.6,496.4 147.6,499.4 139.2,490.7 124.1,490.7 131.8,503.8 143.3,506.9 142.3,511.1 134.8,509.1 139.2,516.5 131.8,520.8 
		127.9,514.1 126.3,520.3 122.2,519 124.8,508.7 117.1,495.5 110.2,507.5 113.3,519.1 109.1,520.3 107.2,512.8 102.9,520.3 
		95.5,516 99.3,509.3 93.2,511 92.2,506.9 102.5,503.9 110.1,490.7 96.4,490.7 87.8,499.4 84.7,496.4 90.1,490.7 81.5,490.7 
		81.5,482.3 89.3,482.3 84.7,477.8 88,474.8 95.5,482.3 109.4,482.3 102.6,470.1 92.5,467.4 93.6,463.2 99.3,464.7 95.8,458.3 
		103.1,453.9 107.4,461.4 109.4,453.9 113.5,455.2 110.4,466.8 117.1,478.6 	"/>
	<polygon class="st6" points="299.6,505 299.6,486.8 361.7,486.8 361.6,505 	"/>
	<path class="st6" d="M361.7,524.2l-0.1-15h-66.1v-55.6h-38.6l-22.3,33l-0.1,28.9h6.5c2.1-24.6,26.7-20.3,29.8-18.1
		c3.2,2.2,15,7.5,10.5,26.7h80.4L361.7,524.2L361.7,524.2z M241,486.9l19.2-28.9h30.9v28.9H241z"/>
	<path class="st6" d="M261.7,508.5c-4.4,0-7.9,3.6-7.9,7.9c0,4.4,3.6,7.9,7.9,7.9c4.4,0,7.9-3.6,7.9-7.9
		C269.5,512.1,266,508.5,261.7,508.5L261.7,508.5z M261.7,499.9c9.1,0,16.5,7.4,16.5,16.5c0,9.1-7.4,16.5-16.5,16.5
		c-9.1,0-16.5-7.4-16.5-16.5C245.2,507.3,252.6,499.9,261.7,499.9L261.7,499.9z"/>
	<path class="st6" d="M266.5,449.7l2.3-9.1c1.1-4.7,9-5.3,10.4,0l2.3,9.1H266.5L266.5,449.7z"/>
	<path class="st6" d="M213,530.5l-23.9-17.8c5.3-4.6,15.5-20.3,7.5-36.2l23.6,14.4C229.2,505.9,222.4,523.5,213,530.5L213,530.5z"/>
	<path class="st6" d="M217.8,530.7c10.9-9.7,13.1-28.9,6.9-39.7l-24.8-15h4.3l25.1,14.9c1.7,4.3,3.6,11.4,2.8,18.3
		c-1.1,9.8-4.9,17.9-10.1,21.3L217.8,530.7L217.8,530.7z"/>
</g>
</svg>
