<?xml version="1.0" encoding="utf-8"?>
<!-- Generator: Adobe Illustrator 19.2.0, SVG Export Plug-In . SVG Version: 6.00 Build 0)  -->
<svg version="1.1" id="Livello_1" xmlns="http://www.w3.org/2000/svg" xmlns:xlink="http://www.w3.org/1999/xlink" x="0px" y="0px"
	 viewBox="0 0 603.2 288.9" style="enable-background:new 0 0 603.2 288.9;" xml:space="preserve">
<style type="text/css">
	.st0{opacity:1.000000e-002;fill:#FFFFFF;enable-background:new    ;}
	.st1{fill:#FFFFFF;stroke:#1A171B;stroke-width:1.1838;stroke-miterlimit:2.6131;}
	.st2{fill:none;stroke:#1A171B;stroke-width:7.8917;stroke-miterlimit:2.6131;}
	.st3{fill:#5288C1;stroke:#5288C1;stroke-width:1.1838;stroke-miterlimit:2.6131;}
</style>
<rect x="-178.8" y="-56.1" class="st0" width="1" height="1"/>
<rect x="780.2" y="902.9" class="st0" width="1" height="1"/>
<g>
	<g>
		<polygon class="st1" points="1.2,60.3 601.2,60.3 601.2,287.3 1.2,287.3 		"/>
		<path class="st2" d="M47.1,76.6h508.1c16.3,0,29.7,13.3,29.7,29.7v135.3c0,16.3-13.3,29.7-29.7,29.7H47.1
			c-16.3,0-29.7-13.3-29.7-29.7V106.2C17.5,89.9,30.8,76.6,47.1,76.6L47.1,76.6z"/>
		<path class="st3" d="M59.4,140.9l0.2-16.2c26.7,0,80,16,120.2,16c40.1,0,79.6-16.2,119.7-16.2s80,16.2,120.2,16.2
			s87.8-16,119.7-16v16c-21.4,0-79.8,16-120,16c-40.1,0-79.8-16-120-16c-40.1,0-79.8,16-120,16C139.4,156.7,81.3,140.7,59.4,140.9
			L59.4,140.9z"/>
		<path class="st3" d="M59.8,173l0.2-16.2c26.7,0,80,16,120.2,16c40.1,0,79.6-16.2,119.7-16.2s80,16.2,120.2,16.2
			c40.1,0,87.8-16,119.7-16v16c-21.4,0-79.8,16-120,16c-40.1,0-79.8-16-120-16c-40.1,0-79.8,16-120,16
			C139.8,188.8,81.7,172.8,59.8,173L59.8,173z"/>
		<path class="st3" d="M59.8,204.9l0.2-16.2c26.7,0,80,16,120.2,16c40.1,0,79.6-16.2,119.7-16.2s80,16.2,120.2,16.2
			c40.1,0,87.8-16,119.7-16v16c-21.4,0-79.8,16-120,16c-40.1,0-79.8-16-120-16c-40.1,0-79.8,16-120,16
			C139.8,220.7,81.7,204.7,59.8,204.9L59.8,204.9z"/>
	</g>
</g>
</svg>
