<?xml version="1.0" encoding="utf-8"?>
<!-- Generator: Adobe Illustrator 19.2.0, SVG Export Plug-In . SVG Version: 6.00 Build 0)  -->
<svg version="1.1" id="Livello_1" xmlns="http://www.w3.org/2000/svg" xmlns:xlink="http://www.w3.org/1999/xlink" x="0px" y="0px"
	 viewBox="0 0 601.9 598.5" style="enable-background:new 0 0 601.9 598.5;" xml:space="preserve">
<style type="text/css">
	.st0{fill:#FFFFFF;stroke:#1A171B;stroke-width:1.1815;stroke-miterlimit:2.6131;}
	.st1{fill:none;stroke:#1A171B;stroke-width:11.8147;stroke-miterlimit:2.6131;}
	.st2{fill:#1A171B;stroke:#1A171B;stroke-width:3.1506;stroke-miterlimit:2.6131;}
	.st3{fill:#E1001A;}
	.st4{fill:#FFFFFF;stroke:#FFFFFF;stroke-width:3.9382;stroke-miterlimit:2.6131;}
	.st5{fill:#FFFFFF;}
</style>
<g>
	<polygon class="st0" points="0.9,1 600.9,1 600.9,597.6 0.9,597.6 	"/>
	<path class="st1" d="M51.7,18.6H551c18.3,0,33.2,14.9,33.2,33.2v496.1c0,18.3-14.9,33.2-33.2,33.2H51.7
		c-18.3,0-33.2-14.9-33.2-33.2V51.8C18.5,33.5,33.5,18.6,51.7,18.6L51.7,18.6z"/>
	<path class="st2" d="M358.8,126.7v-10.5h16.6v10.9c0,1.8-2,2.3-4,2.3l-8.7-0.1C359.5,129.4,358.8,128.6,358.8,126.7L358.8,126.7z"
		/>
	<path class="st2" d="M442.2,126.7v-10.5h16.7l-0.1,10.9c0,1.8-2,2.3-4,2.3l-9.1-0.1C443,129.4,441.9,128.6,442.2,126.7L442.2,126.7
		z"/>
	<path class="st2" d="M354.7,113.6c-3.6,0-3.6-5.4-0.1-5.4h109.1c3.3,0,3.4,5.4-0.1,5.4H354.7L354.7,113.6z"/>
	<g>
		<path class="st2" d="M463,96.6l0.1-2.4h-21.8c0-1.8,0.2-3.5,2.3-4.9H463c0-1.2-0.6-3-2-4.2c-2-1.1-3.4-1.3-4.9-1.8
			c-32.2-5.6-63-5.2-94.1,0.7c-1.5,0.2-3.3,1.1-4.5,1.8c-1.4,1.2-1.5,2.3-1.5,3.5h19.6c1.4,1.3,2,3.1,2,4.9H356l0.1,2.4h21.5
			c0,1.9,0,3-1.4,4.9H356c0.1,1.2,0.7,2.4,1.5,3.7h103.6c1.4-1.2,2-2.4,2-3.7h-19.5c-2.7-1.2-2.2-3-2.2-4.9H463z"/>
		<path class="st2" d="M373.5,61.3c1.4-2,2-2.6,4.7-3c20.9-2.4,41.7-2.4,62.6,0c2.1,1.2,3.4,1.8,4,3.7l5.4,17l6,1.2l-6.7-21.3
			c-2-2.4-3.9-4.3-6.8-4.8c-22.8-3.1-45-3.1-67.2-0.1c-2.6,0.6-4.7,1.9-6.6,4.3l-7.5,23.1l6.6-1.9L373.5,61.3z"/>
	</g>
	<path class="st3" d="M356,89.2c-0.2,3-0.2,7.6,0.1,12.4h20.3c1.4-1.9,1.4-3.1,1.4-5v-2.4c0-1.8-0.6-3.6-2-5H356L356,89.2z"/>
	<path class="st3" d="M462.9,89.2c0.2,3,0.2,7.6,0,12.4h-20.3c-1.4-1.9-1.6-3.1-1.6-5v-2.4c0-1.8,0.8-3.6,2.2-5H462.9L462.9,89.2z"
		/>
	<path class="st4" d="M394.4,89.4H424c1.1,0,2,0.8,2,1.8v8.6c0,1-0.9,1.8-2,1.8h-29.6c-1.1,0-2-0.8-2-1.8v-8.6
		C392.4,90.2,393.3,89.4,394.4,89.4L394.4,89.4z"/>
	<path class="st5" d="M423.8,133.2c-1.4,0-0.9,0-1.2,0c-32-5.5-62.8-4.8-93.7,0.6c0,0-0.1,0.2-1.5,0.2c0,0,0.6-1.7,0.6-1.8l7.8-23.9
		c1.9-2.4,4-3.7,6.6-4.3c22.1-3,44.3-3,67,0.1c2.8,0.5,4.8,2.4,6.7,4.8l6.7,21.2L423.8,133.2L423.8,133.2z"/>
	<path class="st2" d="M325.4,176.6v-10.5H342V177c0,1.8-2,2.3-4,2.3l-8.7-0.1C326.2,179.2,325.4,178.5,325.4,176.6L325.4,176.6z"/>
	<path class="st2" d="M408.8,176.6v-10.5h16.7l-0.1,10.9c0,1.8-2,2.3-4,2.3l-9.1-0.1C409.7,179.2,408.6,178.5,408.8,176.6
		L408.8,176.6z"/>
	<path class="st2" d="M321.4,163.5c-3.6,0-3.6-5.4-0.1-5.4h109.1c3.3,0,3.4,5.4-0.1,5.4H321.4L321.4,163.5z"/>
	<path class="st2" d="M324.1,155.1c-0.7-1.2-1.4-2.4-1.5-3.7h20.3c1.3-1.9,1.3-3,1.3-4.9h-21.5l-0.1-2.4h21.6c0-1.8-0.6-3.6-2-4.9
		h-19.6c0-1.2,0.1-2.3,1.5-3.6c1.2-0.7,3.1-1.6,4.5-1.8c31.2-5.9,62-6.2,94.1-0.7c1.5,0.4,2.9,0.7,4.9,1.8c1.4,1.2,2,3,2,4.2h-19.4
		c-2.1,1.3-2.3,3.1-2.3,4.9h21.8l-0.1,2.4h-21.7c0,1.9-0.5,3.7,2.2,4.9h19.5c0,1.2-0.6,2.4-2,3.7H324.1V155.1z"/>
	<path class="st2" d="M328,131.3l7.5-23.1c2-2.4,4-3.8,6.6-4.3c22.2-3,44.4-3,67.2,0.1c2.8,0.4,4.8,2.3,6.8,4.8l6.7,21.3l-6-1.2
		l-5.4-17c-0.6-1.9-2-2.4-4-3.7c-20.9-2.4-41.7-2.4-62.6,0c-2.7,0.4-3.3,1-4.7,3l-5.5,18.2L328,131.3L328,131.3z"/>
	<path class="st3" d="M322.6,139.1c-0.2,3-0.2,7.6,0.1,12.4H343c1.4-1.9,1.4-3.1,1.4-5v-2.4c0-1.8-0.6-3.6-2-5H322.6L322.6,139.1z"
		/>
	<path class="st3" d="M429.6,139.1c0.2,3,0.2,7.6-0.1,12.4h-20.3c-1.4-1.9-1.6-3.1-1.6-5v-2.4c0-1.8,0.8-3.6,2.2-5H429.6
		L429.6,139.1z"/>
	<path class="st4" d="M361,139.3h29.6c1.1,0,2,0.8,2,1.8v8.6c0,1-0.9,1.8-2,1.8H361c-1.1,0-2-0.8-2-1.8v-8.6
		C359,140.1,359.9,139.3,361,139.3L361,139.3z"/>
	<path class="st5" d="M402.5,189.9c-1.5,0-1,0.1-1.4-0.1c-35.7-6.2-70.1-5.4-104.6,0.7c0,0-0.2,0.2-1.7,0.3c0,0,0.6-1.9,0.6-2.1
		l8.7-26.7c2.2-2.7,4.5-4.2,7.3-4.8c24.7-3.3,49.4-3.3,74.7,0.1c3.1,0.5,5.4,2.6,7.5,5.3l7.5,23.7L402.5,189.9L402.5,189.9z"/>
	<path class="st2" d="M292.8,238.3v-11.8h18.5v12.1c0,2-2.2,2.6-4.5,2.6l-9.7-0.1C293.6,241.2,292.8,240.4,292.8,238.3L292.8,238.3z
		"/>
	<path class="st2" d="M385.8,238.3v-11.8h18.6l-0.1,12.1c0,2-2.2,2.6-4.5,2.6l-10.1-0.1C386.8,241.2,385.6,240.4,385.8,238.3
		L385.8,238.3z"/>
	<path class="st2" d="M288.3,223.7c-4,0-4-6.1-0.1-6.1h121.7c3.7,0,3.8,6.1-0.1,6.1H288.3L288.3,223.7z"/>
	<path class="st2" d="M291.3,214.3c-0.8-1.4-1.5-2.7-1.6-4.1h22.6c1.5-2.1,1.5-3.3,1.5-5.4h-24l-0.1-2.7h24.1c0-2-0.7-4-2.2-5.4
		h-21.9c0-1.4,0.1-2.6,1.6-4c1.4-0.7,3.4-1.7,5.1-2c34.8-6.6,69.1-6.9,105-0.7c1.6,0.5,3.3,0.7,5.5,2c1.5,1.4,2.2,3.3,2.2,4.7h-21.6
		c-2.3,1.5-2.6,3.5-2.6,5.4h24.4l-0.1,2.7H385c0,2.1-0.5,4.1,2.5,5.4h21.8c0,1.4-0.7,2.7-2.2,4.1H291.3L291.3,214.3z"/>
	<path class="st2" d="M295.7,187.8l8.4-25.8c2.2-2.7,4.5-4.2,7.4-4.8c24.8-3.3,49.6-3.3,75,0.1c3.1,0.5,5.3,2.6,7.5,5.3l7.5,23.8
		l-6.7-1.4l-6-18.9c-0.7-2.1-2.2-2.7-4.5-4.1c-23.3-2.7-46.6-2.7-69.8,0c-3,0.5-3.7,1.1-5.2,3.3l-6.2,20.3L295.7,187.8L295.7,187.8z
		"/>
	<path class="st3" d="M289.7,196.4c-0.2,3.3-0.2,8.5,0.1,13.9h22.7c1.6-2.2,1.6-3.4,1.6-5.6V202c0-2-0.7-4-2.3-5.6H289.7
		L289.7,196.4z"/>
	<path class="st3" d="M409,196.4c0.2,3.3,0.2,8.5-0.1,13.9h-22.7c-1.6-2.2-1.7-3.4-1.7-5.6V202c0-2,0.9-4,2.4-5.6H409L409,196.4z"/>
	<path class="st4" d="M332.5,196.6h33c1.2,0,2.2,0.9,2.2,2v9.6c0,1.1-1,2-2.2,2h-33c-1.2,0-2.2-0.9-2.2-2v-9.6
		C330.3,197.5,331.3,196.6,332.5,196.6L332.5,196.6z"/>
	<path class="st2" d="M222.3,126.7v-10.5h16.6v10.9c0,1.8-2,2.3-4,2.3l-8.7-0.1C223,129.4,222.3,128.6,222.3,126.7L222.3,126.7z"/>
	<path class="st2" d="M305.6,126.7v-10.5h16.7l-0.1,10.9c0,1.8-2,2.3-4.1,2.3l-9.1-0.1C306.5,129.4,305.4,128.6,305.6,126.7
		L305.6,126.7z"/>
	<path class="st2" d="M218.2,113.6c-3.6,0-3.6-5.4-0.1-5.4h109.1c3.3,0,3.4,5.4-0.1,5.4H218.2L218.2,113.6z"/>
	<path class="st2" d="M220.9,105.2c-0.7-1.2-1.4-2.4-1.5-3.7h20.2c1.4-1.9,1.4-3,1.4-4.9h-21.5l-0.1-2.4H241c0-1.8-0.6-3.5-2-4.9
		h-19.6c0-1.2,0.1-2.3,1.5-3.5c1.2-0.7,3.1-1.6,4.5-1.8c31.2-5.9,62-6.2,94.1-0.7c1.5,0.4,2.9,0.7,4.9,1.8c1.3,1.2,2,3,2,4.2H307
		c-2.1,1.3-2.3,3.1-2.3,4.9h21.8l-0.1,2.4h-21.7c0,1.9-0.5,3.7,2.2,4.9h19.5c0,1.2-0.6,2.4-2,3.7H220.9L220.9,105.2z"/>
	<path class="st2" d="M224.8,81.4l7.5-23.1c2-2.4,4-3.8,6.6-4.3c22.2-3,44.4-3,67.2,0.1c2.8,0.4,4.8,2.3,6.8,4.8l6.7,21.3l-6-1.2
		l-5.4-17c-0.6-1.9-2-2.4-4-3.7c-20.9-2.4-41.7-2.4-62.6,0c-2.7,0.4-3.3,1-4.7,3l-5.5,18.2L224.8,81.4L224.8,81.4z"/>
	<path class="st3" d="M219.4,89.2c-0.2,3-0.2,7.6,0.1,12.4h20.3c1.4-1.9,1.4-3.1,1.4-5v-2.4c0-1.8-0.6-3.6-2-5H219.4L219.4,89.2z"/>
	<path class="st3" d="M326.4,89.2c0.2,3,0.2,7.6-0.1,12.4H306c-1.4-1.9-1.6-3.1-1.6-5v-2.4c0-1.8,0.8-3.6,2.2-5H326.4L326.4,89.2z"
		/>
	<path class="st4" d="M257.8,89.4h29.6c1.1,0,2,0.8,2,1.8v8.6c0,1-0.9,1.8-2,1.8h-29.6c-1.1,0-2-0.8-2-1.8v-8.6
		C255.8,90.2,256.7,89.4,257.8,89.4L257.8,89.4z"/>
	<path class="st5" d="M287.2,133.2c-1.4,0-0.9,0-1.2,0c-32-5.5-62.8-4.8-93.7,0.6c0,0-0.2,0.2-1.5,0.2c0,0,0.6-1.7,0.6-1.8l7.8-23.9
		c1.9-2.4,4-3.7,6.6-4.3c22.1-3,44.3-3,67,0.1c2.8,0.5,4.8,2.4,6.7,4.8l6.7,21.2L287.2,133.2L287.2,133.2z"/>
	<path class="st2" d="M188.9,176.6v-10.5h16.6V177c0,1.8-2,2.3-4,2.3l-8.7-0.1C189.7,179.2,188.9,178.5,188.9,176.6L188.9,176.6z"/>
	<path class="st2" d="M272.3,176.6v-10.5H289l-0.1,10.9c0,1.8-2,2.3-4,2.3l-9.1-0.1C273.1,179.2,272,178.5,272.3,176.6L272.3,176.6z
		"/>
	<path class="st2" d="M184.9,163.5c-3.6,0-3.6-5.4-0.1-5.4h109.1c3.3,0,3.4,5.4-0.1,5.4H184.9L184.9,163.5z"/>
	<path class="st2" d="M187.6,155.1c-0.7-1.2-1.3-2.4-1.5-3.7h20.2c1.3-1.9,1.3-3,1.3-4.9h-21.5l-0.1-2.4h21.6c0-1.8-0.6-3.6-2-4.9
		H186c0-1.2,0.1-2.3,1.5-3.6c1.2-0.7,3.1-1.6,4.5-1.8c31.2-5.9,62-6.2,94.1-0.7c1.5,0.4,2.9,0.7,4.9,1.8c1.4,1.2,2,3,2,4.2h-19.4
		c-2.1,1.3-2.3,3.1-2.3,4.9h21.8l-0.1,2.4h-21.7c0,1.9-0.5,3.7,2.2,4.9H293c0,1.2-0.6,2.4-2,3.7H187.6V155.1z"/>
	<path class="st2" d="M191.5,131.3l7.5-23.1c2-2.4,4-3.8,6.6-4.3c22.2-3,44.4-3,67.2,0.1c2.8,0.4,4.8,2.3,6.7,4.8l6.7,21.3l-6-1.2
		l-5.4-17c-0.6-1.9-2-2.4-4.1-3.7c-20.9-2.4-41.7-2.4-62.6,0c-2.7,0.4-3.3,1-4.7,3l-5.5,18.2L191.5,131.3L191.5,131.3z"/>
	<path class="st3" d="M186.1,139.1c-0.2,3-0.2,7.6,0.1,12.4h20.3c1.4-1.9,1.4-3.1,1.4-5v-2.4c0-1.8-0.6-3.6-2-5H186.1L186.1,139.1z"
		/>
	<path class="st3" d="M293.1,139.1c0.2,3,0.2,7.6-0.1,12.4h-20.3c-1.4-1.9-1.6-3.1-1.6-5v-2.4c0-1.8,0.8-3.6,2.2-5H293.1
		L293.1,139.1z"/>
	<path class="st4" d="M224.5,139.3h29.6c1.1,0,2,0.8,2,1.8v8.6c0,1-0.9,1.8-2,1.8h-29.6c-1.1,0-2-0.8-2-1.8v-8.6
		C222.5,140.1,223.4,139.3,224.5,139.3L224.5,139.3z"/>
	<path class="st5" d="M250.2,189.9c-1.5,0-1,0.1-1.4-0.1c-35.7-6.2-70.1-5.4-104.6,0.7c0,0-0.2,0.2-1.7,0.3c0,0,0.6-1.9,0.6-2.1
		l8.7-26.7c2.2-2.7,4.5-4.2,7.3-4.8c24.7-3.3,49.4-3.3,74.7,0.1c3.1,0.5,5.4,2.6,7.5,5.3l7.5,23.7L250.2,189.9L250.2,189.9z"/>
	<path class="st2" d="M140.5,238.3v-11.8H159v12.1c0,2-2.2,2.6-4.5,2.6l-9.7-0.1C141.3,241.2,140.5,240.4,140.5,238.3L140.5,238.3z"
		/>
	<path class="st2" d="M233.5,238.3v-11.8h18.6l-0.1,12.1c0,2-2.2,2.6-4.5,2.6l-10.1-0.1C234.5,241.2,233.2,240.4,233.5,238.3
		L233.5,238.3z"/>
	<path class="st2" d="M136,223.7c-4,0-4-6.1-0.1-6.1h121.7c3.7,0,3.8,6.1-0.1,6.1H136L136,223.7z"/>
	<path class="st2" d="M139,214.3c-0.8-1.4-1.5-2.7-1.6-4.1h22.5c1.5-2.1,1.5-3.3,1.5-5.4h-24l-0.1-2.7h24.1c0-2-0.7-4-2.2-5.4h-21.9
		c0-1.4,0.1-2.6,1.6-4c1.4-0.7,3.4-1.7,5.1-2c34.8-6.6,69.1-6.9,105-0.7c1.6,0.5,3.3,0.7,5.5,2c1.5,1.4,2.2,3.3,2.2,4.7h-21.6
		c-2.3,1.5-2.6,3.5-2.6,5.4h24.4l-0.1,2.7h-24.2c0,2.1-0.5,4.1,2.5,5.4h21.8c0,1.4-0.7,2.7-2.2,4.1H139L139,214.3z"/>
	<path class="st2" d="M143.4,187.8l8.4-25.8c2.2-2.7,4.5-4.2,7.4-4.8c24.8-3.3,49.6-3.3,75,0.1c3.2,0.5,5.3,2.6,7.5,5.3l7.5,23.8
		l-6.7-1.4l-6-18.9c-0.7-2.1-2.2-2.7-4.5-4.1c-23.3-2.7-46.6-2.7-69.8,0c-3,0.5-3.7,1.1-5.2,3.3l-6.2,20.3L143.4,187.8L143.4,187.8z
		"/>
	<path class="st3" d="M137.3,196.4c-0.2,3.3-0.2,8.5,0.1,13.9h22.7c1.6-2.2,1.6-3.4,1.6-5.6V202c0-2-0.7-4-2.3-5.6H137.3
		L137.3,196.4z"/>
	<path class="st3" d="M256.7,196.4c0.2,3.3,0.2,8.5-0.1,13.9h-22.7c-1.6-2.2-1.7-3.4-1.7-5.6V202c0-2,0.9-4,2.4-5.6H256.7
		L256.7,196.4z"/>
	<path class="st4" d="M180.2,196.6h33c1.2,0,2.2,0.9,2.2,2v9.6c0,1.1-1,2-2.2,2h-33c-1.2,0-2.2-0.9-2.2-2v-9.6
		C178,197.5,179,196.6,180.2,196.6L180.2,196.6z"/>
	<path class="st5" d="M416.4,252c-2.1,0-1.3,0.1-1.9-0.1c-48.8-8.4-95.7-7.3-142.9,1c0,0-0.2,0.3-2.3,0.4c0,0,0.9-2.5,0.9-2.8
		l11.9-36.5c3-3.7,6.1-5.7,10-6.5c33.7-4.6,67.5-4.6,102.1,0.1c4.3,0.7,7.3,3.6,10.3,7.2l10.3,32.4L416.4,252L416.4,252z"/>
	<path class="st2" d="M266.6,318.2v-16.1h25.3v16.6c0,2.7-3,3.6-6.2,3.6l-13.3-0.2C267.7,322.2,266.6,321,266.6,318.2L266.6,318.2z"
		/>
	<path class="st2" d="M393.6,318.2v-16.1H419l-0.2,16.6c0,2.7-3,3.6-6.2,3.6l-13.8-0.2C395,322.2,393.3,321,393.6,318.2L393.6,318.2
		z"/>
	<path class="st2" d="M260.4,298.2c-5.4,0-5.4-8.3-0.2-8.3h166.3c5,0,5.2,8.3-0.2,8.3H260.4L260.4,298.2z"/>
	<path class="st2" d="M264.5,285.3c-1.1-1.9-2.1-3.7-2.2-5.6h30.9c2.1-2.9,2.1-4.6,2.1-7.4h-32.7l-0.2-3.7h32.9c0-2.7-0.9-5.4-3-7.4
		h-29.9c0-1.9,0.2-3.6,2.2-5.4c1.9-1,4.7-2.4,6.9-2.7c47.5-9,94.5-9.5,143.5-1c2.2,0.7,4.5,1,7.5,2.7c2.1,1.9,3,4.6,3,6.4H396
		c-3.2,2-3.6,4.7-3.6,7.4h33.3l-0.2,3.7h-33.1c0,2.9-0.7,5.6,3.4,7.4h29.7c0,1.9-0.9,3.7-3,5.6H264.5L264.5,285.3z"/>
	<path class="st2" d="M270.5,249.1l11.4-35.2c3-3.7,6.2-5.8,10.1-6.6c33.9-4.6,67.7-4.6,102.5,0.2c4.3,0.7,7.3,3.6,10.3,7.3
		l10.3,32.5l-9.2-1.9l-8.2-25.9c-0.9-2.9-3-3.7-6.2-5.6c-31.8-3.7-63.6-3.7-95.4,0c-4.1,0.7-5.1,1.5-7.1,4.6l-8.4,27.7L270.5,249.1
		L270.5,249.1z"/>
	<path class="st3" d="M262.3,260.9c-0.3,4.5-0.3,11.6,0.1,18.9h31c2.1-2.9,2.1-4.7,2.1-7.6v-3.7c0-2.8-1-5.5-3.1-7.6L262.3,260.9
		L262.3,260.9z"/>
	<path class="st3" d="M425.3,260.9c0.3,4.5,0.3,11.6-0.1,18.9h-31c-2.1-2.9-2.4-4.7-2.4-7.6v-3.7c0-2.8,1.2-5.5,3.3-7.6L425.3,260.9
		L425.3,260.9z"/>
	<path class="st4" d="M320.8,261.3h45.1c1.7,0,3,1.2,3,2.8v13.1c0,1.5-1.4,2.8-3,2.8h-45.1c-1.7,0-3-1.2-3-2.8v-13.1
		C317.8,262.5,319.1,261.3,320.8,261.3L320.8,261.3z"/>
	<path class="st5" d="M446.6,327.5c-2.3,0-1.4,0.1-2-0.1c-53.1-9.2-104.1-8-155.4,1.1c0,0-0.3,0.3-2.5,0.4c0,0,0.9-2.8,0.9-3.1
		l12.9-39.6c3.2-4,6.7-6.2,10.9-7.1c36.6-5,73.4-5,111,0.2c4.7,0.8,8,3.9,11.2,7.9l11.2,35.2L446.6,327.5L446.6,327.5z"/>
	<path class="st2" d="M283.6,399.4v-17.5h27.5v18c0,2.9-3.3,3.9-6.7,3.9l-14.4-0.2C284.9,403.8,283.6,402.5,283.6,399.4L283.6,399.4
		z"/>
	<path class="st2" d="M421.8,399.4v-17.5h27.7l-0.2,18c0,2.9-3.3,3.9-6.7,3.9l-15.1-0.2C423.3,403.8,421.4,402.5,421.8,399.4
		L421.8,399.4z"/>
	<path class="st2" d="M276.9,377.7c-5.9,0-5.9-9-0.2-9h180.8c5.5,0,5.7,9-0.2,9H276.9L276.9,377.7z"/>
	<path class="st2" d="M281.4,363.7c-1.2-2-2.2-4-2.4-6.1h33.6c2.2-3.1,2.2-5,2.2-8.1h-35.6l-0.2-4h35.8c0-2.9-1-5.9-3.3-8.1H279
		c0-2,0.2-3.9,2.4-5.9c2-1.1,5.1-2.6,7.5-2.9c51.7-9.8,102.7-10.3,156-1.1c2.4,0.7,4.9,1.1,8.1,2.9c2.2,2,3.3,5,3.3,7h-32.1
		c-3.5,2.2-3.9,5.2-3.9,8.1h36.2l-0.2,4h-36c0,3.1-0.8,6.1,3.7,8.1h32.3c0,2-1,4-3.3,6.1H281.4L281.4,363.7z"/>
	<path class="st2" d="M287.9,324.4l12.4-38.3c3.3-4,6.7-6.3,11-7.2c36.8-5,73.6-5,111.5,0.2c4.7,0.7,7.9,3.9,11.2,7.9l11.2,35.3
		l-10-2l-8.9-28.1c-1-3.1-3.3-4-6.7-6.1c-34.6-4-69.2-4-103.7,0c-4.5,0.7-5.5,1.7-7.7,5l-9.2,30.2L287.9,324.4L287.9,324.4z"/>
	<path class="st3" d="M279,337.2c-0.3,4.9-0.3,12.6,0.1,20.6h33.7c2.3-3.2,2.3-5.1,2.3-8.3v-4.1c0-3-1-6-3.4-8.3L279,337.2
		L279,337.2z"/>
	<path class="st3" d="M456.3,337.2c0.3,4.9,0.3,12.6-0.1,20.6h-33.7c-2.3-3.2-2.6-5.1-2.6-8.3v-4.1c0-3,1.3-6,3.6-8.3L456.3,337.2
		L456.3,337.2z"/>
	<path class="st4" d="M342.6,337.5h49.1c1.8,0,3.3,1.3,3.3,3v14.2c0,1.7-1.5,3-3.3,3h-49.1c-1.8,0-3.3-1.3-3.3-3v-14.2
		C339.3,338.9,340.8,337.5,342.6,337.5L342.6,337.5z"/>
	<path class="st5" d="M489.5,403.9c-2.3,0-1.4,0.1-2-0.1c-53.1-9.2-104.1-8-155.4,1.1c0,0-0.3,0.3-2.5,0.4c0,0,0.9-2.8,0.9-3.1
		l12.9-39.6c3.2-4,6.7-6.2,10.9-7.1c36.6-5,73.4-5,111,0.1c4.7,0.8,8,3.9,11.2,7.9l11.2,35.2L489.5,403.9L489.5,403.9z"/>
	<path class="st2" d="M326.5,475.8v-17.5h27.4v18c0,2.9-3.3,3.9-6.7,3.9l-14.4-0.2C327.7,480.2,326.5,479,326.5,475.8L326.5,475.8z"
		/>
	<path class="st2" d="M464.7,475.8v-17.5h27.7l-0.2,18c0,2.9-3.3,3.9-6.7,3.9l-15.1-0.2C466.1,480.2,464.3,479,464.7,475.8
		L464.7,475.8z"/>
	<path class="st2" d="M319.8,454.1c-5.9,0-5.9-9-0.2-9h180.8c5.5,0,5.7,9-0.2,9H319.8L319.8,454.1z"/>
	<path class="st2" d="M324.2,440.1c-1.2-2-2.2-4-2.4-6.1h33.6c2.2-3.1,2.2-5,2.2-8.1H322l-0.2-4h35.8c0-2.9-1-5.9-3.3-8.1h-32.5
		c0-2,0.2-3.9,2.4-5.9c2-1.1,5.1-2.6,7.5-2.9c51.7-9.8,102.7-10.3,156-1.1c2.4,0.7,4.9,1.1,8.1,2.9c2.2,2,3.3,5,3.3,7H467
		c-3.5,2.2-3.9,5.1-3.9,8.1h36.2l-0.2,4h-36c0,3.1-0.8,6.1,3.7,8.1h32.3c0,2-1,4-3.3,6.1H324.2L324.2,440.1z"/>
	<path class="st2" d="M330.7,400.8l12.4-38.3c3.3-4,6.7-6.3,11-7.2c36.8-5,73.6-5,111.5,0.2c4.7,0.7,7.9,3.9,11.2,7.9l11.2,35.3
		l-10-2l-8.9-28.1c-1-3.1-3.3-4-6.7-6.1c-34.6-4-69.2-4-103.7,0c-4.5,0.7-5.5,1.7-7.7,5l-9.2,30.2L330.7,400.8L330.7,400.8z"/>
	<path class="st3" d="M321.8,413.6c-0.3,4.9-0.3,12.6,0.1,20.6h33.7c2.3-3.2,2.3-5.1,2.3-8.3v-4.1c0-3-1-6-3.4-8.3L321.8,413.6
		L321.8,413.6z"/>
	<path class="st3" d="M499.1,413.6c0.3,4.9,0.3,12.6-0.1,20.6h-33.7c-2.3-3.2-2.6-5.1-2.6-8.3v-4.1c0-3,1.3-6,3.6-8.3L499.1,413.6
		L499.1,413.6z"/>
	<path class="st4" d="M385.5,414h49.1c1.8,0,3.3,1.3,3.3,3v14.2c0,1.7-1.5,3-3.3,3h-49.1c-1.8,0-3.3-1.3-3.3-3V417
		C382.2,415.3,383.6,414,385.5,414L385.5,414z"/>
	<path class="st5" d="M539.4,463.5c-2.3,0-1.5,0.1-2.1-0.1c-53.8-9.3-105.6-8.1-157.6,1.1c0,0-0.3,0.3-2.6,0.4c0,0,0.9-2.8,0.9-3.1
		l13.1-40.2c3.3-4,6.8-6.3,11.1-7.2c37.2-5,74.4-5,112.6,0.2c4.7,0.8,8.1,4,11.3,8l11.3,35.7L539.4,463.5L539.4,463.5z"/>
	<path class="st2" d="M374,536.5v-17.7h27.9v18.3c0,3-3.3,3.9-6.8,3.9l-14.6-0.2C375.3,541,374,539.7,374,536.5L374,536.5z"/>
	<path class="st2" d="M514.2,536.5v-17.7h28.1l-0.2,18.3c0,3-3.3,3.9-6.8,3.9l-15.3-0.2C515.7,541,513.8,539.7,514.2,536.5
		L514.2,536.5z"/>
	<path class="st2" d="M367.2,514.5c-6,0-6-9.1-0.2-9.1h183.4c5.6,0,5.8,9.1-0.2,9.1H367.2L367.2,514.5z"/>
	<path class="st2" d="M371.8,500.3c-1.2-2.1-2.3-4.1-2.5-6.2h34.1c2.3-3.2,2.3-5,2.3-8.2h-36.1l-0.2-4.1h36.3c0-3-1-6-3.3-8.2h-33
		c0-2.1,0.2-3.9,2.5-6c2.1-1.1,5.2-2.6,7.6-3c52.4-9.9,104.2-10.4,158.3-1.1c2.5,0.7,5,1.1,8.3,3c2.3,2.1,3.3,5,3.3,7.1h-32.6
		c-3.5,2.2-3.9,5.2-3.9,8.2h36.7l-0.2,4.1h-36.5c0,3.2-0.8,6.2,3.7,8.2h32.8c0,2.1-1,4.1-3.3,6.2H371.8L371.8,500.3z"/>
	<path class="st2" d="M378.4,460.3l12.6-38.8c3.3-4.1,6.8-6.3,11.1-7.3c37.3-5,74.7-5,113.1,0.2c4.7,0.7,8,3.9,11.3,8l11.4,35.9
		l-10.1-2.1l-9.1-28.6c-1-3.2-3.3-4.1-6.8-6.2c-35.1-4.1-70.2-4.1-105.2,0c-4.5,0.7-5.6,1.7-7.8,5l-9.3,30.6L378.4,460.3
		L378.4,460.3z"/>
	<path class="st3" d="M369.3,473.4c-0.3,5-0.3,12.8,0.1,20.9h34.2c2.4-3.2,2.4-5.1,2.4-8.4v-4.1c0-3.1-1.1-6.1-3.4-8.4H369.3
		L369.3,473.4z"/>
	<path class="st3" d="M549.2,473.4c0.3,5,0.3,12.8-0.1,20.9h-34.2c-2.4-3.2-2.6-5.1-2.6-8.4v-4.1c0-3.1,1.3-6.1,3.7-8.4H549.2
		L549.2,473.4z"/>
	<path class="st4" d="M433.9,473.7h49.8c1.8,0,3.4,1.4,3.4,3v14.4c0,1.7-1.5,3-3.4,3h-49.8c-1.8,0-3.4-1.4-3.4-3v-14.4
		C430.5,475.1,432,473.7,433.9,473.7L433.9,473.7z"/>
	<path class="st5" d="M228.5,250c-2.1,0-1.3,0.1-1.9-0.1c-48.8-8.4-95.7-7.3-142.9,1c0,0-0.2,0.3-2.3,0.4c0,0,0.9-2.5,0.9-2.8
		L94.2,212c3-3.7,6.2-5.7,10-6.5c33.7-4.6,67.5-4.6,102.1,0.1c4.3,0.7,7.3,3.6,10.3,7.3l10.3,32.4L228.5,250L228.5,250z"/>
	<path class="st2" d="M78.6,316.1V300h25.3v16.6c0,2.7-3,3.6-6.2,3.6L84.4,320C79.7,320.2,78.6,319,78.6,316.1L78.6,316.1z"/>
	<path class="st2" d="M205.7,316.1V300h25.4l-0.2,16.6c0,2.7-3,3.6-6.2,3.6l-13.8-0.2C207,320.2,205.3,319,205.7,316.1L205.7,316.1z
		"/>
	<path class="st2" d="M72.4,296.2c-5.4,0-5.4-8.3-0.2-8.3h166.3c5.1,0,5.2,8.3-0.2,8.3H72.4L72.4,296.2z"/>
	<path class="st2" d="M76.5,283.3c-1.1-1.9-2.1-3.7-2.2-5.6h30.9c2.1-2.9,2.1-4.6,2.1-7.4H74.6l-0.2-3.7h32.9c0-2.7-0.9-5.4-3-7.4
		H74.4c0-1.9,0.2-3.6,2.2-5.4c1.9-1,4.7-2.4,6.9-2.7c47.5-9,94.5-9.5,143.5-1c2.2,0.7,4.5,1,7.5,2.7c2.1,1.9,3,4.6,3,6.4h-29.6
		c-3.2,2-3.6,4.7-3.6,7.4h33.3l-0.2,3.7h-33.1c0,2.9-0.7,5.6,3.4,7.4h29.7c0,1.9-0.9,3.7-3,5.6H76.5L76.5,283.3z"/>
	<path class="st2" d="M82.5,247.1l11.4-35.2c3-3.7,6.2-5.8,10.1-6.6c33.9-4.6,67.7-4.6,102.5,0.2c4.3,0.7,7.3,3.6,10.3,7.3
		l10.3,32.5l-9.2-1.9l-8.2-25.9c-0.9-2.9-3-3.7-6.2-5.6c-31.8-3.7-63.6-3.7-95.4,0c-4.1,0.7-5.1,1.5-7.1,4.6l-8.4,27.7L82.5,247.1
		L82.5,247.1z"/>
	<path class="st3" d="M74.3,258.9c-0.3,4.5-0.3,11.6,0.1,18.9h31c2.1-2.9,2.1-4.7,2.1-7.6v-3.7c0-2.8-1-5.5-3.1-7.6L74.3,258.9
		L74.3,258.9z"/>
	<path class="st3" d="M237.3,258.9c0.3,4.5,0.3,11.6-0.1,18.9h-31c-2.1-2.9-2.4-4.7-2.4-7.6v-3.7c0-2.8,1.2-5.5,3.3-7.6L237.3,258.9
		L237.3,258.9z"/>
	<path class="st4" d="M132.8,259.2h45.1c1.7,0,3,1.2,3,2.8v13.1c0,1.5-1.4,2.8-3,2.8h-45.1c-1.7,0-3-1.2-3-2.8V262
		C129.8,260.5,131.2,259.2,132.8,259.2L132.8,259.2z"/>
	<path class="st5" d="M221.8,326.3c-2.3,0-1.4,0.1-2-0.1c-53.1-9.2-104.1-8-155.4,1.1c0,0-0.3,0.3-2.5,0.4c0,0,0.9-2.8,0.9-3.1
		L75.7,285c3.2-4,6.7-6.2,10.9-7.1c36.6-5,73.4-5,111,0.2c4.7,0.8,8,3.9,11.2,7.9l11.2,35.2L221.8,326.3L221.8,326.3z"/>
	<path class="st2" d="M58.9,398.2v-17.5h27.5v18c0,2.9-3.3,3.9-6.7,3.9l-14.4-0.2C60.1,402.6,58.9,401.3,58.9,398.2L58.9,398.2z"/>
	<path class="st2" d="M197.1,398.2v-17.5h27.7l-0.2,18c0,2.9-3.3,3.9-6.7,3.9l-15.1-0.2C198.5,402.6,196.7,401.3,197.1,398.2
		L197.1,398.2z"/>
	<path class="st2" d="M52.2,376.5c-5.9,0-5.9-9-0.2-9h180.8c5.5,0,5.7,9-0.2,9H52.2L52.2,376.5z"/>
	<path class="st2" d="M56.6,362.5c-1.2-2-2.2-4-2.4-6.1h33.6c2.2-3.1,2.2-5,2.2-8.1H54.4l-0.2-4H90c0-2.9-1-5.9-3.3-8.1H54.2
		c0-2,0.2-3.9,2.4-5.9c2-1.1,5.1-2.6,7.5-2.9c51.7-9.7,102.7-10.3,156-1.1c2.4,0.7,4.9,1.1,8.1,2.9c2.2,2,3.3,5,3.3,7h-32.1
		c-3.5,2.2-3.9,5.2-3.9,8.1h36.2l-0.2,4h-36c0,3.1-0.8,6.1,3.7,8.1h32.3c0,2-1,4-3.3,6.1H56.6L56.6,362.5z"/>
	<path class="st2" d="M63.1,323.1l12.4-38.3c3.3-4,6.7-6.3,11-7.2c36.8-5,73.6-5,111.5,0.2c4.7,0.7,7.9,3.9,11.2,7.9l11.2,35.3
		l-10-2l-9-28.1c-1-3.1-3.3-4-6.7-6.1c-34.6-4-69.2-4-103.7,0c-4.5,0.7-5.5,1.7-7.7,5L74.1,320L63.1,323.1L63.1,323.1z"/>
	<path class="st3" d="M54.2,336c-0.3,4.9-0.3,12.6,0.1,20.6H88c2.3-3.2,2.3-5.1,2.3-8.3v-4c0-3-1-6-3.4-8.3L54.2,336L54.2,336z"/>
	<path class="st3" d="M231.5,336c0.3,4.9,0.3,12.6-0.1,20.6h-33.7c-2.3-3.2-2.6-5.1-2.6-8.3v-4c0-3,1.3-6,3.6-8.3L231.5,336
		L231.5,336z"/>
	<path class="st4" d="M117.9,336.3H167c1.8,0,3.3,1.3,3.3,3v14.2c0,1.7-1.5,3-3.3,3h-49.1c-1.8,0-3.3-1.3-3.3-3v-14.2
		C114.5,337.7,116,336.3,117.9,336.3L117.9,336.3z"/>
	<path class="st5" d="M243.5,403.9c-2.3,0-1.4,0.1-2-0.1c-53.1-9.2-104.1-8-155.4,1.1c0,0-0.3,0.3-2.5,0.4c0,0,0.9-2.8,0.9-3.1
		l12.9-39.6c3.2-4,6.7-6.2,10.9-7.1c36.6-5,73.4-5,111,0.2c4.7,0.8,8,3.9,11.2,7.9l11.2,35.2L243.5,403.9L243.5,403.9z"/>
	<path class="st2" d="M80.5,475.8v-17.5H108v18c0,2.9-3.3,3.9-6.7,3.9L86.9,480C81.7,480.2,80.5,479,80.5,475.8L80.5,475.8z"/>
	<path class="st2" d="M218.7,475.8v-17.5h27.7l-0.2,18c0,2.9-3.3,3.9-6.7,3.9l-15.1-0.2C220.1,480.2,218.3,479,218.7,475.8
		L218.7,475.8z"/>
	<path class="st2" d="M73.8,454.1c-5.9,0-5.9-9-0.2-9h180.8c5.5,0,5.7,9-0.2,9H73.8L73.8,454.1z"/>
	<path class="st2" d="M78.3,440.1c-1.2-2-2.2-4-2.4-6.1h33.6c2.2-3.1,2.2-5,2.2-8.1H76.1l-0.2-4h35.8c0-2.9-1-5.9-3.3-8.1H75.9
		c0-2,0.2-3.9,2.4-5.9c2-1.1,5.1-2.6,7.5-2.9c51.7-9.7,102.7-10.3,156-1.1c2.4,0.7,4.9,1.1,8.1,2.9c2.2,2,3.3,5,3.3,7h-32.1
		c-3.5,2.2-3.9,5.1-3.9,8.1h36.2l-0.2,4h-36c0,3.1-0.8,6.1,3.7,8.1h32.3c0,2-1,4-3.3,6.1H78.3L78.3,440.1z"/>
	<path class="st2" d="M84.8,400.8l12.4-38.3c3.3-4,6.7-6.3,11-7.2c36.8-5,73.6-5,111.5,0.2c4.7,0.7,7.9,3.9,11.2,7.9l11.2,35.3
		l-10-2l-9-28.1c-1-3.1-3.3-4-6.7-6.1c-34.6-4-69.2-4-103.7,0c-4.5,0.7-5.5,1.7-7.7,5l-9.1,30.2L84.8,400.8L84.8,400.8z"/>
	<path class="st3" d="M75.8,413.6c-0.3,4.9-0.3,12.6,0.1,20.6h33.7c2.3-3.2,2.3-5.1,2.3-8.3v-4.1c0-3-1-6-3.4-8.3L75.8,413.6
		L75.8,413.6z"/>
	<path class="st3" d="M253.1,413.6c0.3,4.9,0.3,12.6-0.1,20.6h-33.7c-2.3-3.2-2.6-5.1-2.6-8.3v-4.1c0-3,1.3-6,3.6-8.3L253.1,413.6
		L253.1,413.6z"/>
	<path class="st4" d="M139.5,414h49.1c1.8,0,3.3,1.3,3.3,3v14.2c0,1.6-1.5,3-3.3,3h-49.1c-1.8,0-3.3-1.4-3.3-3V417
		C136.2,415.3,137.7,414,139.5,414L139.5,414z"/>
	<path class="st5" d="M272.4,463.5c-2.3,0-1.5,0.1-2.1-0.1c-53.8-9.3-105.6-8.1-157.6,1.1c0,0-0.3,0.3-2.6,0.4c0,0,0.9-2.8,0.9-3.1
		l13.1-40.2c3.3-4,6.8-6.3,11.1-7.2c37.2-5,74.4-5,112.6,0.2c4.7,0.8,8.1,4,11.3,8l11.3,35.7L272.4,463.5L272.4,463.5z"/>
	<path class="st2" d="M107,536.5v-17.7h27.9v18.3c0,3-3.3,3.9-6.8,3.9l-14.6-0.2C108.3,540.9,107,539.6,107,536.5L107,536.5z"/>
	<path class="st2" d="M247.2,536.5v-17.7h28.1l-0.2,18.3c0,3-3.3,3.9-6.8,3.9l-15.3-0.2C248.7,540.9,246.8,539.6,247.2,536.5
		L247.2,536.5z"/>
	<path class="st2" d="M100.2,514.4c-6,0-6-9.1-0.2-9.1h183.4c5.6,0,5.8,9.1-0.2,9.1H100.2L100.2,514.4z"/>
	<path class="st2" d="M104.7,500.3c-1.2-2.1-2.3-4.1-2.5-6.2h34.1c2.3-3.2,2.3-5,2.3-8.2h-36.1l-0.2-4.1h36.3c0-3-1-6-3.3-8.2h-33
		c0-2.1,0.2-3.9,2.5-6c2.1-1.1,5.2-2.6,7.6-3c52.4-9.9,104.2-10.5,158.3-1.1c2.5,0.7,5,1.1,8.3,3c2.3,2.1,3.3,5,3.3,7.1h-32.6
		c-3.5,2.2-3.9,5.2-3.9,8.2h36.7l-0.2,4.1h-36.5c0,3.2-0.8,6.2,3.7,8.2h32.8c0,2.1-1,4.1-3.3,6.2H104.7L104.7,500.3z"/>
	<path class="st2" d="M111.4,460.3l12.6-38.8c3.3-4.1,6.8-6.3,11.1-7.3c37.4-5,74.7-5,113.1,0.2c4.7,0.7,8,3.9,11.3,8l11.4,35.9
		l-10.1-2.1l-9.1-28.6c-1-3.2-3.3-4.1-6.8-6.2c-35.1-4.1-70.2-4.1-105.2,0c-4.5,0.7-5.6,1.7-7.8,5l-9.3,30.6L111.4,460.3
		L111.4,460.3z"/>
	<path class="st3" d="M102.3,473.4c-0.3,5-0.3,12.8,0.1,20.9h34.2c2.4-3.2,2.4-5.1,2.4-8.4v-4.1c0-3.1-1-6.1-3.4-8.4H102.3
		L102.3,473.4z"/>
	<path class="st3" d="M282.1,473.4c0.4,5,0.4,12.8-0.1,20.9h-34.2c-2.4-3.2-2.6-5.1-2.6-8.4v-4.1c0-3.1,1.3-6.1,3.7-8.4H282.1
		L282.1,473.4z"/>
	<path class="st4" d="M166.9,473.7h49.8c1.8,0,3.4,1.4,3.4,3v14.4c0,1.7-1.5,3-3.4,3h-49.8c-1.8,0-3.4-1.4-3.4-3v-14.4
		C163.5,475.1,165,473.7,166.9,473.7L166.9,473.7z"/>
</g>
</svg>
