<?xml version="1.0" encoding="utf-8"?>
<!-- Generator: Adobe Illustrator 19.2.0, SVG Export Plug-In . SVG Version: 6.00 Build 0)  -->
<svg version="1.1" id="Livello_3" xmlns="http://www.w3.org/2000/svg" xmlns:xlink="http://www.w3.org/1999/xlink" x="0px" y="0px"
	 viewBox="0 0 445.6 805.6" style="enable-background:new 0 0 445.6 805.6;" xml:space="preserve">
<style type="text/css">
	.st0{fill:#FFFFFF;stroke:#1A171B;stroke-width:0.7669;stroke-miterlimit:2.6131;}
	.st1{fill:none;stroke:#1A171B;stroke-width:7.6683;stroke-miterlimit:2.6131;}
	.st2{fill:#1A171B;stroke:#1A171B;stroke-width:2.0449;stroke-miterlimit:2.6131;}
	.st3{fill:#E1001A;}
	.st4{fill:#FFFFFF;stroke:#FFFFFF;stroke-width:2.5561;stroke-miterlimit:2.6131;}
	.st5{fill:#FFFFFF;}
	.st6{display:none;enable-background:new    ;}
	.st7{font-family:'ArialMT';}
	.st8{font-size:53.7146px;}
	.st9{fill:#FFFFFF;stroke:#1A171B;stroke-width:0.8734;stroke-miterlimit:2.6131;}
	.st10{fill:#FFFFFF;stroke:#E1001A;stroke-width:2.9115;stroke-miterlimit:2.6131;}
	.st11{fill:#1A171B;stroke:#1A171B;stroke-width:0.8734;stroke-miterlimit:2.6131;}
</style>
<g>
	<polygon class="st0" points="27.5,410.2 416.9,410.2 416.9,797.5 27.5,797.5 	"/>
	<path class="st1" d="M60.5,421.7h324.1c11.9,0,21.5,9.7,21.5,21.5v322c0,11.9-9.7,21.5-21.5,21.5H60.5c-11.9,0-21.5-9.7-21.5-21.5
		v-322C38.9,431.3,48.7,421.7,60.5,421.7L60.5,421.7z"/>
	<path class="st2" d="M259.8,491.8V485h10.8v7.1c0,1.2-1.3,1.5-2.6,1.5l-5.6-0.1C260.3,493.6,259.8,493.1,259.8,491.8L259.8,491.8z"
		/>
	<path class="st2" d="M313.9,491.8V485h10.8l-0.1,7.1c0,1.2-1.3,1.5-2.6,1.5l-5.9-0.1C314.5,493.6,313.7,493.1,313.9,491.8
		L313.9,491.8z"/>
	<path class="st2" d="M257.1,483.3c-2.3,0-2.3-3.5-0.1-3.5h70.8c2.1,0,2.2,3.5-0.1,3.5H257.1L257.1,483.3z"/>
	<g>
		<path class="st2" d="M327.4,472.3l0.1-1.6h-14.1c0-1.2,0.1-2.3,1.5-3.2h12.6c0-0.8-0.4-1.9-1.3-2.7c-1.3-0.7-2.2-0.8-3.2-1.2
			c-20.9-3.6-40.9-3.4-61.1,0.5c-1,0.1-2.1,0.7-2.9,1.2c-0.9,0.8-1,1.5-1,2.3h12.7c0.9,0.8,1.3,2,1.3,3.2h-14l0.1,1.6h14
			c0,1.2,0,1.9-0.9,3.2H258c0.1,0.8,0.5,1.6,1,2.4h67.2c0.9-0.8,1.3-1.6,1.3-2.4h-12.7c-1.8-0.8-1.4-1.9-1.4-3.2H327.4z"/>
		<path class="st2" d="M269.4,449.4c0.9-1.3,1.3-1.7,3.1-1.9c13.6-1.6,27.1-1.6,40.6,0c1.4,0.8,2.2,1.2,2.6,2.4l3.5,11l3.9,0.8
			l-4.3-13.8c-1.3-1.6-2.5-2.8-4.4-3.1c-14.8-2-29.2-2-43.6-0.1c-1.7,0.4-3.1,1.2-4.3,2.8l-4.9,15l4.3-1.2L269.4,449.4z"/>
	</g>
	<path class="st3" d="M258,467.5c-0.1,1.9-0.1,4.9,0.1,8h13.2c0.9-1.2,0.9-2,0.9-3.2v-1.6c0-1.2-0.4-2.3-1.3-3.2H258L258,467.5z"/>
	<path class="st3" d="M327.4,467.5c0.1,1.9,0.1,4.9,0,8h-13.2c-0.9-1.2-1-2-1-3.2v-1.6c0-1.2,0.5-2.3,1.4-3.2H327.4L327.4,467.5z"/>
	<path class="st4" d="M282.9,467.6h19.2c0.7,0,1.3,0.5,1.3,1.2v5.6c0,0.6-0.6,1.2-1.3,1.2h-19.2c-0.7,0-1.3-0.5-1.3-1.2v-5.6
		C281.6,468.1,282.2,467.6,282.9,467.6L282.9,467.6z"/>
	<path class="st5" d="M302,496c-0.9,0-0.6,0-0.8,0c-20.8-3.6-40.8-3.1-60.8,0.4c0,0-0.1,0.1-1,0.1c0,0,0.4-1.1,0.4-1.2l5.1-15.5
		c1.2-1.6,2.6-2.4,4.3-2.8c14.3-1.9,28.8-1.9,43.5,0.1c1.8,0.3,3.1,1.6,4.3,3.1l4.3,13.8L302,496L302,496z"/>
	<path class="st2" d="M238.1,524.2v-6.8h10.8v7.1c0,1.2-1.3,1.5-2.6,1.5l-5.6-0.1C238.7,525.9,238.1,525.5,238.1,524.2L238.1,524.2z
		"/>
	<path class="st2" d="M292.3,524.2v-6.8h10.8l-0.1,7.1c0,1.2-1.3,1.5-2.6,1.5l-5.9-0.1C292.8,525.9,292.1,525.5,292.3,524.2
		L292.3,524.2z"/>
	<path class="st2" d="M235.5,515.7c-2.3,0-2.3-3.5-0.1-3.5h70.8c2.1,0,2.2,3.5-0.1,3.5H235.5L235.5,515.7z"/>
	<path class="st2" d="M237.3,510.3c-0.5-0.8-0.9-1.6-1-2.4h13.2c0.8-1.2,0.8-1.9,0.8-3.2h-14l-0.1-1.6h14c0-1.2-0.4-2.3-1.3-3.2
		h-12.7c0-0.8,0.1-1.5,1-2.3c0.8-0.5,2-1,2.9-1.2c20.3-3.8,40.2-4,61.1-0.5c1,0.3,1.9,0.5,3.2,1.2c0.9,0.8,1.3,1.9,1.3,2.7h-12.6
		c-1.4,0.8-1.5,2-1.5,3.2h14.1l-0.1,1.6h-14.1c0,1.2-0.3,2.4,1.4,3.2h12.7c0,0.8-0.4,1.6-1.3,2.4L237.3,510.3L237.3,510.3z"/>
	<path class="st2" d="M239.8,494.8l4.9-15c1.3-1.6,2.6-2.5,4.3-2.8c14.4-1.9,28.8-1.9,43.6,0.1c1.8,0.3,3.1,1.5,4.4,3.1l4.3,13.8
		l-3.9-0.8l-3.5-11c-0.4-1.2-1.3-1.6-2.6-2.4c-13.6-1.6-27.1-1.6-40.6,0c-1.8,0.3-2.1,0.6-3.1,1.9l-3.6,11.8L239.8,494.8
		L239.8,494.8z"/>
	<path class="st3" d="M236.3,499.9c-0.1,1.9-0.1,4.9,0.1,8h13.2c0.9-1.2,0.9-2,0.9-3.2v-1.6c0-1.2-0.4-2.3-1.3-3.2H236.3
		L236.3,499.9z"/>
	<path class="st3" d="M305.8,499.9c0.1,1.9,0.1,4.9-0.1,8h-13.2c-0.9-1.2-1-2-1-3.2v-1.6c0-1.2,0.5-2.3,1.4-3.2H305.8L305.8,499.9z"
		/>
	<path class="st4" d="M261.2,500h19.2c0.7,0,1.3,0.5,1.3,1.2v5.6c0,0.6-0.6,1.2-1.3,1.2h-19.2c-0.7,0-1.3-0.5-1.3-1.2v-5.6
		C259.9,500.5,260.5,500,261.2,500L261.2,500z"/>
	<path class="st5" d="M288.2,532.8c-1,0-0.6,0.1-0.9-0.1c-23.2-4-45.5-3.5-67.9,0.5c0,0-0.1,0.1-1.1,0.2c0,0,0.4-1.2,0.4-1.4
		l5.6-17.3c1.4-1.8,2.9-2.7,4.7-3.1c16-2.1,32.1-2.1,48.5,0.1c2,0.3,3.5,1.7,4.9,3.4l4.9,15.4L288.2,532.8L288.2,532.8z"/>
	<path class="st2" d="M217,564.3v-7.7h12v7.9c0,1.3-1.4,1.7-2.9,1.7l-6.3-0.1C217.5,566.1,217,565.6,217,564.3L217,564.3z"/>
	<path class="st2" d="M277.3,564.3v-7.7h12.1l-0.1,7.9c0,1.3-1.4,1.7-2.9,1.7l-6.6-0.1C278,566.1,277.2,565.6,277.3,564.3
		L277.3,564.3z"/>
	<path class="st2" d="M214.1,554.8c-2.6,0-2.6-4-0.1-4h79c2.4,0,2.5,4-0.1,4H214.1L214.1,554.8z"/>
	<path class="st2" d="M216,548.7c-0.5-0.9-1-1.8-1-2.7h14.7c1-1.4,1-2.1,1-3.5H215l-0.1-1.8h15.6c0-1.3-0.5-2.6-1.4-3.5H215
		c0-0.9,0.1-1.7,1-2.6c0.9-0.5,2.2-1.1,3.3-1.3c22.6-4.3,44.8-4.5,68.2-0.5c1,0.3,2.1,0.5,3.6,1.3c1,0.9,1.4,2.1,1.4,3.1h-14
		c-1.5,1-1.7,2.3-1.7,3.5h15.8l-0.1,1.8h-15.7c0,1.4-0.3,2.7,1.6,3.5h14.1c0,0.9-0.5,1.8-1.4,2.7H216L216,548.7z"/>
	<path class="st2" d="M218.9,531.5l5.5-16.7c1.4-1.8,2.9-2.7,4.8-3.1c16.1-2.1,32.2-2.1,48.7,0.1c2,0.3,3.4,1.7,4.9,3.4l4.9,15.4
		l-4.3-0.9l-3.9-12.3c-0.5-1.4-1.4-1.8-2.9-2.7c-15.1-1.8-30.2-1.8-45.3,0c-1.9,0.3-2.4,0.7-3.4,2.1l-4,13.2L218.9,531.5
		L218.9,531.5z"/>
	<path class="st3" d="M215,537.1c-0.1,2.1-0.1,5.5,0.1,9h14.7c1-1.4,1-2.2,1-3.6v-1.8c0-1.3-0.5-2.6-1.5-3.6H215L215,537.1z"/>
	<path class="st3" d="M292.4,537.1c0.1,2.1,0.1,5.5-0.1,9h-14.7c-1-1.4-1.1-2.2-1.1-3.6v-1.8c0-1.3,0.6-2.6,1.6-3.6H292.4
		L292.4,537.1z"/>
	<path class="st4" d="M242.7,537.2h21.4c0.8,0,1.4,0.6,1.4,1.3v6.2c0,0.7-0.6,1.3-1.4,1.3h-21.4c-0.8,0-1.4-0.6-1.4-1.3v-6.2
		C241.3,537.8,242,537.2,242.7,537.2L242.7,537.2z"/>
	<path class="st2" d="M171.2,491.8V485H182v7.1c0,1.2-1.3,1.5-2.6,1.5l-5.6-0.1C171.7,493.6,171.2,493.1,171.2,491.8L171.2,491.8z"
		/>
	<path class="st2" d="M225.3,491.8V485h10.8l-0.1,7.1c0,1.2-1.3,1.5-2.7,1.5l-5.9-0.1C225.9,493.6,225.2,493.1,225.3,491.8
		L225.3,491.8z"/>
	<path class="st2" d="M168.6,483.3c-2.3,0-2.3-3.5-0.1-3.5h70.8c2.1,0,2.2,3.5-0.1,3.5H168.6L168.6,483.3z"/>
	<path class="st2" d="M170.3,477.9c-0.5-0.8-0.9-1.6-1-2.4h13.1c0.9-1.2,0.9-1.9,0.9-3.2h-14l-0.1-1.6h14c0-1.2-0.4-2.3-1.3-3.2
		h-12.7c0-0.8,0.1-1.5,1-2.3c0.8-0.5,2-1,2.9-1.2c20.3-3.8,40.2-4,61.1-0.5c1,0.3,1.9,0.5,3.2,1.2c0.8,0.8,1.3,1.9,1.3,2.7h-12.6
		c-1.4,0.8-1.5,2-1.5,3.2h14.1l-0.1,1.6h-14.1c0,1.2-0.3,2.4,1.4,3.2h12.7c0,0.8-0.4,1.6-1.3,2.4H170.3L170.3,477.9z"/>
	<path class="st2" d="M172.8,462.4l4.9-15c1.3-1.6,2.6-2.5,4.3-2.8c14.4-1.9,28.8-1.9,43.6,0.1c1.8,0.3,3.1,1.5,4.4,3.1l4.3,13.8
		l-3.9-0.8l-3.5-11c-0.4-1.2-1.3-1.6-2.6-2.4c-13.6-1.6-27.1-1.6-40.6,0c-1.8,0.3-2.1,0.6-3.1,1.9l-3.6,11.8L172.8,462.4
		L172.8,462.4z"/>
	<path class="st3" d="M169.3,467.5c-0.1,1.9-0.1,4.9,0.1,8h13.2c0.9-1.2,0.9-2,0.9-3.2v-1.6c0-1.2-0.4-2.3-1.3-3.2H169.3
		L169.3,467.5z"/>
	<path class="st3" d="M238.8,467.5c0.1,1.9,0.1,4.9-0.1,8h-13.2c-0.9-1.2-1-2-1-3.2v-1.6c0-1.2,0.5-2.3,1.4-3.2H238.8L238.8,467.5z"
		/>
	<path class="st4" d="M194.3,467.6h19.2c0.7,0,1.3,0.5,1.3,1.2v5.6c0,0.6-0.6,1.2-1.3,1.2h-19.2c-0.7,0-1.3-0.5-1.3-1.2v-5.6
		C193,468.1,193.5,467.6,194.3,467.6L194.3,467.6z"/>
	<path class="st5" d="M213.3,496c-0.9,0-0.6,0-0.8,0c-20.8-3.6-40.8-3.1-60.8,0.4c0,0-0.1,0.1-1,0.1c0,0,0.4-1.1,0.4-1.2l5.1-15.5
		c1.2-1.6,2.6-2.4,4.3-2.8c14.3-1.9,28.8-1.9,43.5,0.1c1.8,0.3,3.1,1.6,4.3,3.1l4.3,13.8L213.3,496L213.3,496z"/>
	<path class="st2" d="M149.5,524.2v-6.8h10.8v7.1c0,1.2-1.3,1.5-2.6,1.5l-5.6-0.1C150.1,525.9,149.5,525.5,149.5,524.2L149.5,524.2z
		"/>
	<path class="st2" d="M203.7,524.2v-6.8h10.8l-0.1,7.1c0,1.2-1.3,1.5-2.6,1.5l-5.9-0.1C204.2,525.9,203.5,525.5,203.7,524.2
		L203.7,524.2z"/>
	<path class="st2" d="M146.9,515.7c-2.3,0-2.3-3.5-0.1-3.5h70.8c2.1,0,2.2,3.5-0.1,3.5H146.9L146.9,515.7z"/>
	<path class="st2" d="M148.7,510.3c-0.5-0.8-0.8-1.6-1-2.4h13.1c0.8-1.2,0.8-1.9,0.8-3.2h-14l-0.1-1.6h14c0-1.2-0.4-2.3-1.3-3.2
		h-12.7c0-0.8,0.1-1.5,1-2.3c0.8-0.5,2-1,2.9-1.2c20.3-3.8,40.2-4,61.1-0.5c1,0.3,1.9,0.5,3.2,1.2c0.9,0.8,1.3,1.9,1.3,2.7h-12.6
		c-1.4,0.8-1.5,2-1.5,3.2h14.1l-0.1,1.6H203c0,1.2-0.3,2.4,1.4,3.2h12.7c0,0.8-0.4,1.6-1.3,2.4L148.7,510.3L148.7,510.3z"/>
	<path class="st2" d="M151.2,494.8l4.9-15c1.3-1.6,2.6-2.5,4.3-2.8c14.4-1.9,28.8-1.9,43.6,0.1c1.8,0.3,3.1,1.5,4.3,3.1l4.3,13.8
		l-3.9-0.8l-3.5-11c-0.4-1.2-1.3-1.6-2.7-2.4c-13.6-1.6-27.1-1.6-40.6,0c-1.8,0.3-2.1,0.6-3.1,1.9l-3.6,11.8L151.2,494.8
		L151.2,494.8z"/>
	<path class="st3" d="M147.7,499.9c-0.1,1.9-0.1,4.9,0.1,8H161c0.9-1.2,0.9-2,0.9-3.2v-1.6c0-1.2-0.4-2.3-1.3-3.2H147.7L147.7,499.9
		z"/>
	<path class="st3" d="M217.2,499.9c0.1,1.9,0.1,4.9-0.1,8h-13.2c-0.9-1.2-1-2-1-3.2v-1.6c0-1.2,0.5-2.3,1.4-3.2H217.2L217.2,499.9z"
		/>
	<path class="st4" d="M172.6,500h19.2c0.7,0,1.3,0.5,1.3,1.2v5.6c0,0.6-0.6,1.2-1.3,1.2h-19.2c-0.7,0-1.3-0.5-1.3-1.2v-5.6
		C171.3,500.5,171.9,500,172.6,500L172.6,500z"/>
	<path class="st5" d="M189.3,532.8c-1,0-0.6,0.1-0.9-0.1c-23.2-4-45.5-3.5-67.9,0.5c0,0-0.1,0.1-1.1,0.2c0,0,0.4-1.2,0.4-1.4
		l5.6-17.3c1.4-1.8,2.9-2.7,4.7-3.1c16-2.1,32.1-2.1,48.5,0.1c2,0.3,3.5,1.7,4.9,3.4l4.9,15.4L189.3,532.8L189.3,532.8z"/>
	<path class="st2" d="M118.1,564.3v-7.7h12v7.9c0,1.3-1.4,1.7-2.9,1.7l-6.3-0.1C118.6,566.1,118.1,565.6,118.1,564.3L118.1,564.3z"
		/>
	<path class="st2" d="M178.5,564.3v-7.7h12.1l-0.1,7.9c0,1.3-1.4,1.7-2.9,1.7l-6.6-0.1C179.1,566.1,178.3,565.6,178.5,564.3
		L178.5,564.3z"/>
	<path class="st2" d="M115.2,554.8c-2.6,0-2.6-4-0.1-4h79c2.4,0,2.5,4-0.1,4H115.2L115.2,554.8z"/>
	<path class="st2" d="M117.1,548.7c-0.5-0.9-1-1.8-1-2.7h14.6c1-1.4,1-2.1,1-3.5h-15.6l-0.1-1.8h15.6c0-1.3-0.5-2.6-1.4-3.5H116
		c0-0.9,0.1-1.7,1-2.6c0.9-0.5,2.2-1.1,3.3-1.3c22.6-4.3,44.8-4.5,68.2-0.5c1,0.3,2.1,0.5,3.6,1.3c1,0.9,1.4,2.1,1.4,3.1h-14
		c-1.5,1-1.7,2.3-1.7,3.5h15.8l-0.1,1.8h-15.7c0,1.4-0.3,2.7,1.6,3.5h14.1c0,0.9-0.5,1.8-1.4,2.7H117.1L117.1,548.7z"/>
	<path class="st2" d="M120,531.5l5.5-16.7c1.4-1.8,2.9-2.7,4.8-3.1c16.1-2.1,32.2-2.1,48.7,0.1c2.1,0.3,3.4,1.7,4.9,3.4l4.9,15.4
		l-4.3-0.9l-3.9-12.3c-0.5-1.4-1.4-1.8-2.9-2.7c-15.1-1.8-30.2-1.8-45.3,0c-1.9,0.3-2.4,0.7-3.4,2.1l-4,13.2L120,531.5L120,531.5z"
		/>
	<path class="st3" d="M116,537.1c-0.1,2.1-0.1,5.5,0.1,9h14.7c1-1.4,1-2.2,1-3.6v-1.8c0-1.3-0.5-2.6-1.5-3.6H116L116,537.1z"/>
	<path class="st3" d="M193.5,537.1c0.1,2.1,0.1,5.5-0.1,9h-14.7c-1-1.4-1.1-2.2-1.1-3.6v-1.8c0-1.3,0.6-2.6,1.6-3.6H193.5
		L193.5,537.1z"/>
	<path class="st4" d="M143.9,537.2h21.4c0.8,0,1.4,0.6,1.4,1.3v6.2c0,0.7-0.6,1.3-1.4,1.3h-21.4c-0.8,0-1.4-0.6-1.4-1.3v-6.2
		C142.5,537.8,143.1,537.2,143.9,537.2L143.9,537.2z"/>
	<path class="st5" d="M297.2,573.2c-1.4,0-0.8,0.1-1.2-0.1c-31.7-5.5-62.1-4.7-92.7,0.6c0,0-0.1,0.2-1.5,0.3c0,0,0.6-1.6,0.6-1.8
		l7.7-23.7c1.9-2.4,4-3.7,6.5-4.2c21.9-3,43.8-3,66.3,0.1c2.8,0.5,4.7,2.3,6.7,4.7l6.7,21L297.2,573.2L297.2,573.2z"/>
	<path class="st2" d="M200,616.1v-10.4h16.4v10.8c0,1.8-1.9,2.3-4,2.3l-8.6-0.1C200.7,618.7,200,617.9,200,616.1L200,616.1z"/>
	<path class="st2" d="M282.4,616.1v-10.4h16.5l-0.1,10.8c0,1.8-1.9,2.3-4,2.3l-9-0.1C283.3,618.7,282.2,617.9,282.4,616.1
		L282.4,616.1z"/>
	<path class="st2" d="M195.9,603.1c-3.5,0-3.5-5.4-0.1-5.4h107.9c3.2,0,3.4,5.4-0.1,5.4H195.9L195.9,603.1z"/>
	<path class="st2" d="M198.6,594.8c-0.7-1.2-1.4-2.4-1.4-3.6h20.1c1.4-1.9,1.4-3,1.4-4.8h-21.2l-0.1-2.4h21.4c0-1.8-0.6-3.5-1.9-4.8
		h-19.4c0-1.2,0.1-2.3,1.4-3.5c1.2-0.6,3.1-1.6,4.5-1.8c30.8-5.8,61.3-6.2,93.1-0.6c1.4,0.5,2.9,0.6,4.9,1.8c1.4,1.2,1.9,3,1.9,4.2
		H284c-2.1,1.3-2.3,3.1-2.3,4.8h21.6l-0.1,2.4h-21.5c0,1.9-0.5,3.6,2.2,4.8h19.3c0,1.2-0.6,2.4-1.9,3.6H198.6L198.6,594.8z"/>
	<path class="st2" d="M202.5,571.3l7.4-22.8c1.9-2.4,4-3.8,6.6-4.3c22-3,43.9-3,66.5,0.1c2.8,0.5,4.7,2.3,6.7,4.7l6.7,21.1l-6-1.2
		l-5.3-16.8c-0.6-1.9-1.9-2.4-4-3.6c-20.6-2.4-41.3-2.4-61.9,0c-2.7,0.5-3.3,1-4.6,3l-5.5,18L202.5,571.3L202.5,571.3z"/>
	<path class="st3" d="M197.2,578.9c-0.2,2.9-0.2,7.5,0.1,12.3h20.1c1.4-1.9,1.4-3.1,1.4-4.9v-2.4c0-1.8-0.6-3.6-2-4.9H197.2
		L197.2,578.9z"/>
	<path class="st3" d="M303,578.9c0.2,2.9,0.2,7.5-0.1,12.3h-20.1c-1.4-1.9-1.6-3.1-1.6-4.9v-2.4c0-1.8,0.8-3.6,2.1-4.9H303
		L303,578.9z"/>
	<path class="st4" d="M235.1,579.2h29.3c1.1,0,1.9,0.8,1.9,1.8v8.5c0,1-0.9,1.8-1.9,1.8h-29.3c-1.1,0-1.9-0.8-1.9-1.8V581
		C233.2,580,234,579.2,235.1,579.2L235.1,579.2z"/>
	<path class="st5" d="M316.8,622.2c-1.5,0-0.9,0.1-1.3-0.1c-34.5-6-67.6-5.2-100.9,0.7c0,0-0.2,0.2-1.6,0.3c0,0,0.6-1.8,0.6-2
		l8.4-25.7c2.1-2.6,4.3-4,7.1-4.6c23.8-3.2,47.6-3.2,72,0.1c3.1,0.5,5.2,2.5,7.3,5.1l7.3,22.8L316.8,622.2L316.8,622.2z"/>
	<path class="st2" d="M211,668.8v-11.4h17.8v11.7c0,1.9-2.1,2.5-4.3,2.5l-9.3-0.1C211.8,671.7,211,670.8,211,668.8L211,668.8z"/>
	<path class="st2" d="M300.7,668.8v-11.4h18l-0.1,11.7c0,1.9-2.1,2.5-4.3,2.5l-9.8-0.1C301.7,671.7,300.4,670.8,300.7,668.8
		L300.7,668.8z"/>
	<path class="st2" d="M206.7,654.7c-3.8,0-3.8-5.8-0.1-5.8h117.3c3.6,0,3.7,5.8-0.1,5.8H206.7L206.7,654.7z"/>
	<path class="st2" d="M209.6,645.7c-0.8-1.3-1.4-2.6-1.6-4h21.8c1.4-2,1.4-3.2,1.4-5.3h-23.1l-0.1-2.6h23.2c0-1.9-0.6-3.8-2.1-5.3
		H208c0-1.3,0.1-2.5,1.6-3.8c1.3-0.7,3.3-1.7,4.9-1.9c33.6-6.4,66.7-6.7,101.3-0.7c1.6,0.5,3.2,0.7,5.3,1.9c1.4,1.3,2.1,3.2,2.1,4.5
		h-20.8c-2.3,1.4-2.5,3.4-2.5,5.3h23.5l-0.1,2.6h-23.4c0,2-0.5,4,2.4,5.3h21c0,1.3-0.6,2.6-2.1,4H209.6L209.6,645.7z"/>
	<path class="st2" d="M213.8,620.1l8-24.9c2.1-2.6,4.3-4.1,7.1-4.7c23.9-3.2,47.8-3.2,72.4,0.1c3.1,0.5,5.1,2.5,7.3,5.1l7.3,22.9
		l-6.5-1.3l-5.8-18.2c-0.6-2-2.1-2.6-4.3-4c-22.5-2.6-44.9-2.6-67.3,0c-2.9,0.5-3.6,1.1-5,3.2l-6,19.6L213.8,620.1L213.8,620.1z"/>
	<path class="st3" d="M208,628.5c-0.2,3.2-0.2,8.2,0.1,13.4H230c1.5-2.1,1.5-3.3,1.5-5.4v-2.7c0-1.9-0.6-3.9-2.2-5.4L208,628.5
		L208,628.5z"/>
	<path class="st3" d="M323.1,628.5c0.2,3.2,0.2,8.2-0.1,13.4h-21.9c-1.5-2.1-1.7-3.3-1.7-5.4v-2.7c0-1.9,0.8-3.9,2.3-5.4
		L323.1,628.5L323.1,628.5z"/>
	<path class="st4" d="M249.3,628.6h31.9c1.2,0,2.1,0.8,2.1,1.9v9.2c0,1.1-1,1.9-2.1,1.9h-31.9c-1.2,0-2.1-0.8-2.1-1.9v-9.2
		C247.2,629.6,248.1,628.6,249.3,628.6L249.3,628.6z"/>
	<path class="st5" d="M344.6,671.7c-1.5,0-0.9,0.1-1.3-0.1c-34.5-6-67.6-5.2-100.9,0.7c0,0-0.2,0.2-1.6,0.3c0,0,0.6-1.8,0.6-2
		l8.4-25.7c2.1-2.6,4.3-4,7.1-4.6c23.8-3.2,47.6-3.2,72,0.1c3.1,0.5,5.2,2.5,7.3,5.1l7.3,22.8L344.6,671.7L344.6,671.7z"/>
	<path class="st2" d="M238.8,718.4v-11.4h17.8v11.7c0,1.9-2.1,2.5-4.3,2.5l-9.3-0.1C239.6,721.3,238.8,720.5,238.8,718.4
		L238.8,718.4z"/>
	<path class="st2" d="M328.5,718.4v-11.4h18l-0.1,11.7c0,1.9-2.1,2.5-4.3,2.5l-9.8-0.1C329.5,721.3,328.3,720.5,328.5,718.4
		L328.5,718.4z"/>
	<path class="st2" d="M234.5,704.3c-3.8,0-3.8-5.8-0.1-5.8h117.3c3.6,0,3.7,5.8-0.1,5.8H234.5L234.5,704.3z"/>
	<path class="st2" d="M237.4,695.2c-0.8-1.3-1.4-2.6-1.6-4h21.8c1.4-2,1.4-3.2,1.4-5.3h-23.1l-0.1-2.6H259c0-1.9-0.6-3.8-2.1-5.3
		h-21.1c0-1.3,0.1-2.5,1.6-3.8c1.3-0.7,3.3-1.7,4.9-1.9c33.6-6.4,66.7-6.7,101.3-0.7c1.6,0.5,3.2,0.7,5.3,1.9
		c1.4,1.3,2.1,3.2,2.1,4.5H330c-2.3,1.4-2.5,3.3-2.5,5.3H351l-0.1,2.6h-23.4c0,2-0.5,4,2.4,5.3h21c0,1.3-0.6,2.6-2.1,4H237.4
		L237.4,695.2z"/>
	<path class="st2" d="M241.6,669.7l8-24.9c2.1-2.6,4.3-4.1,7.1-4.7c23.9-3.2,47.8-3.2,72.4,0.1c3.1,0.5,5.1,2.5,7.3,5.1l7.3,22.9
		l-6.5-1.3l-5.8-18.2c-0.6-2-2.1-2.6-4.3-4c-22.5-2.6-44.9-2.6-67.3,0c-2.9,0.5-3.6,1.1-5,3.2l-6,19.6L241.6,669.7L241.6,669.7z"/>
	<path class="st3" d="M235.8,678c-0.2,3.2-0.2,8.2,0.1,13.4h21.9c1.5-2.1,1.5-3.3,1.5-5.4v-2.7c0-1.9-0.6-3.9-2.2-5.4L235.8,678
		L235.8,678z"/>
	<path class="st3" d="M350.9,678c0.2,3.2,0.2,8.2-0.1,13.4h-21.9c-1.5-2.1-1.7-3.3-1.7-5.4v-2.7c0-1.9,0.8-3.9,2.3-5.4L350.9,678
		L350.9,678z"/>
	<path class="st4" d="M277.1,678.3H309c1.2,0,2.1,0.8,2.1,1.9v9.2c0,1.1-1,1.9-2.1,1.9h-31.9c-1.2,0-2.1-0.8-2.1-1.9v-9.2
		C275,679.1,275.9,678.3,277.1,678.3L277.1,678.3z"/>
	<path class="st5" d="M377,710.4c-1.5,0-1,0.1-1.4-0.1c-34.9-6-68.5-5.3-102.3,0.7c0,0-0.2,0.2-1.7,0.3c0,0,0.6-1.8,0.6-2l8.5-26.1
		c2.1-2.6,4.4-4.1,7.2-4.7c24.1-3.2,48.3-3.2,73.1,0.1c3.1,0.5,5.3,2.6,7.3,5.2l7.3,23.2L377,710.4L377,710.4z"/>
	<path class="st2" d="M269.7,757.8v-11.5h18.1v11.9c0,1.9-2.1,2.5-4.4,2.5l-9.5-0.1C270.5,760.7,269.7,759.9,269.7,757.8
		L269.7,757.8z"/>
	<path class="st2" d="M360.7,757.8v-11.5h18.2l-0.1,11.9c0,1.9-2.1,2.5-4.4,2.5l-9.9-0.1C361.6,760.7,360.4,759.9,360.7,757.8
		L360.7,757.8z"/>
	<path class="st2" d="M265.3,743.5c-3.9,0-3.9-5.9-0.1-5.9h119c3.6,0,3.8,5.9-0.1,5.9H265.3L265.3,743.5z"/>
	<path class="st2" d="M268.2,734.3c-0.8-1.4-1.5-2.7-1.6-4h22.1c1.5-2.1,1.5-3.2,1.5-5.3h-23.4l-0.1-2.7h23.6c0-1.9-0.6-3.9-2.1-5.3
		h-21.4c0-1.4,0.1-2.5,1.6-3.9c1.4-0.7,3.4-1.7,4.9-1.9c34-6.4,67.6-6.8,102.7-0.7c1.6,0.5,3.2,0.7,5.4,1.9c1.5,1.4,2.1,3.2,2.1,4.6
		h-21.2c-2.3,1.4-2.5,3.4-2.5,5.3h23.8l-0.1,2.7h-23.7c0,2.1-0.5,4,2.4,5.3h21.3c0,1.4-0.6,2.7-2.1,4H268.2L268.2,734.3z"/>
	<path class="st2" d="M272.5,708.4l8.2-25.2c2.1-2.7,4.4-4.1,7.2-4.7c24.2-3.2,48.5-3.2,73.4,0.1c3.1,0.5,5.2,2.5,7.3,5.2l7.4,23.3
		l-6.6-1.4l-5.9-18.6c-0.6-2.1-2.1-2.7-4.4-4c-22.8-2.7-45.6-2.7-68.3,0c-2.9,0.5-3.6,1.1-5.1,3.2l-6,19.9L272.5,708.4L272.5,708.4z
		"/>
	<path class="st3" d="M266.6,716.9c-0.2,3.2-0.2,8.3,0.1,13.6h22.2c1.6-2.1,1.6-3.3,1.6-5.5v-2.7c0-2-0.7-4-2.2-5.5H266.6
		L266.6,716.9z"/>
	<path class="st3" d="M383.4,716.9c0.2,3.2,0.2,8.3-0.1,13.6h-22.2c-1.6-2.1-1.7-3.3-1.7-5.5v-2.7c0-2,0.8-4,2.4-5.5H383.4
		L383.4,716.9z"/>
	<path class="st4" d="M308.6,717.1h32.3c1.2,0,2.2,0.9,2.2,1.9v9.3c0,1.1-1,1.9-2.2,1.9h-32.3c-1.2,0-2.2-0.9-2.2-1.9V719
		C306.3,718,307.3,717.1,308.6,717.1L308.6,717.1z"/>
	<path class="st5" d="M175.2,571.9c-1.4,0-0.8,0.1-1.2-0.1c-31.7-5.5-62.1-4.7-92.7,0.6c0,0-0.1,0.2-1.5,0.3c0,0,0.6-1.6,0.6-1.8
		l7.7-23.7c1.9-2.4,4-3.7,6.5-4.2c21.9-3,43.8-3,66.3,0.1c2.8,0.5,4.7,2.3,6.7,4.7l6.7,21L175.2,571.9L175.2,571.9z"/>
	<path class="st2" d="M77.9,614.8v-10.4h16.4v10.8c0,1.8-1.9,2.3-4,2.3l-8.6-0.1C78.7,617.4,77.9,616.6,77.9,614.8L77.9,614.8z"/>
	<path class="st2" d="M160.4,614.8v-10.4h16.5l-0.1,10.8c0,1.8-1.9,2.3-4,2.3l-9-0.1C161.3,617.4,160.2,616.6,160.4,614.8
		L160.4,614.8z"/>
	<path class="st2" d="M73.9,601.8c-3.5,0-3.5-5.4-0.1-5.4h107.9c3.3,0,3.4,5.4-0.1,5.4H73.9L73.9,601.8z"/>
	<path class="st2" d="M76.6,593.5c-0.7-1.2-1.4-2.4-1.4-3.6h20.1c1.4-1.9,1.4-3,1.4-4.8H75.4l-0.1-2.4h21.4c0-1.8-0.6-3.5-1.9-4.8
		H75.2c0-1.2,0.1-2.3,1.4-3.5c1.2-0.6,3.1-1.6,4.5-1.8c30.8-5.8,61.3-6.2,93.1-0.6c1.4,0.5,2.9,0.6,4.9,1.8c1.4,1.2,1.9,3,1.9,4.2
		h-19.2c-2.1,1.3-2.3,3.1-2.3,4.8h21.6L181,585h-21.5c0,1.9-0.5,3.6,2.2,4.8H181c0,1.2-0.6,2.4-1.9,3.6H76.6L76.6,593.5z"/>
	<path class="st2" d="M80.5,570l7.4-22.8c1.9-2.4,4-3.8,6.6-4.3c22-3,43.9-3,66.5,0.1c2.8,0.5,4.7,2.3,6.7,4.7l6.7,21.1l-6-1.2
		l-5.3-16.8c-0.6-1.9-1.9-2.4-4-3.6c-20.6-2.4-41.3-2.4-61.9,0c-2.7,0.5-3.3,1-4.6,3l-5.5,18L80.5,570L80.5,570z"/>
	<path class="st3" d="M75.2,577.6c-0.2,2.9-0.2,7.5,0.1,12.3h20.1c1.4-1.9,1.4-3.1,1.4-4.9v-2.4c0-1.8-0.6-3.6-2-4.9H75.2
		L75.2,577.6z"/>
	<path class="st3" d="M181,577.6c0.2,2.9,0.2,7.5-0.1,12.3h-20.1c-1.4-1.9-1.6-3.1-1.6-4.9v-2.4c0-1.8,0.8-3.6,2.1-4.9H181
		L181,577.6z"/>
	<path class="st4" d="M113.1,577.8h29.3c1.1,0,1.9,0.8,1.9,1.8v8.5c0,1-0.9,1.8-1.9,1.8h-29.3c-1.1,0-1.9-0.8-1.9-1.8v-8.5
		C111.2,578.7,112.1,577.8,113.1,577.8L113.1,577.8z"/>
	<path class="st5" d="M170.9,621.4c-1.5,0-0.9,0.1-1.3-0.1c-34.5-6-67.6-5.2-100.9,0.7c0,0-0.2,0.2-1.6,0.3c0,0,0.6-1.8,0.6-2
		l8.4-25.7c2.1-2.6,4.3-4,7.1-4.6c23.8-3.2,47.6-3.2,72,0.1c3.1,0.5,5.2,2.5,7.3,5.1l7.3,22.8L170.9,621.4L170.9,621.4z"/>
	<path class="st2" d="M65.2,668v-11.4H83v11.7c0,1.9-2.1,2.5-4.3,2.5l-9.3-0.1C65.9,670.9,65.2,670.1,65.2,668L65.2,668z"/>
	<path class="st2" d="M154.9,668v-11.4h18l-0.1,11.7c0,1.9-2.1,2.5-4.3,2.5l-9.8-0.1C155.8,670.9,154.6,670.1,154.9,668L154.9,668z"
		/>
	<path class="st2" d="M60.8,654c-3.8,0-3.8-5.8-0.1-5.8H178c3.6,0,3.7,5.8-0.1,5.8H60.8L60.8,654z"/>
	<path class="st2" d="M63.7,644.9c-0.8-1.3-1.4-2.6-1.6-4h21.8c1.4-2,1.4-3.2,1.4-5.3H62.2l-0.1-2.6h23.2c0-1.9-0.6-3.8-2.1-5.3
		H62.1c0-1.3,0.1-2.5,1.6-3.8c1.3-0.7,3.3-1.7,4.9-1.9c33.6-6.3,66.7-6.7,101.3-0.7c1.6,0.5,3.2,0.7,5.3,1.9
		c1.4,1.3,2.1,3.2,2.1,4.5h-20.8c-2.3,1.4-2.5,3.4-2.5,5.3h23.5l-0.1,2.6h-23.4c0,2-0.5,4,2.4,5.3h21c0,1.3-0.6,2.6-2.1,4H63.7
		L63.7,644.9z"/>
	<path class="st2" d="M67.9,619.3l8-24.9c2.1-2.6,4.3-4.1,7.1-4.7c23.9-3.2,47.8-3.2,72.4,0.1c3.1,0.5,5.1,2.5,7.3,5.1l7.3,22.9
		l-6.5-1.3l-5.8-18.2c-0.6-2-2.1-2.6-4.3-4c-22.5-2.6-44.9-2.6-67.3,0c-2.9,0.5-3.6,1.1-5,3.2l-6,19.6L67.9,619.3L67.9,619.3z"/>
	<path class="st3" d="M62.1,627.7c-0.2,3.2-0.2,8.2,0.1,13.4H84c1.5-2.1,1.5-3.3,1.5-5.4v-2.6c0-1.9-0.6-3.9-2.2-5.4L62.1,627.7
		L62.1,627.7z"/>
	<path class="st3" d="M177.2,627.7c0.2,3.2,0.2,8.2-0.1,13.4h-21.9c-1.5-2.1-1.7-3.3-1.7-5.4v-2.6c0-1.9,0.8-3.9,2.3-5.4
		L177.2,627.7L177.2,627.7z"/>
	<path class="st4" d="M103.5,627.9h31.9c1.2,0,2.1,0.8,2.1,1.9v9.2c0,1.1-1,1.9-2.1,1.9h-31.9c-1.2,0-2.1-0.8-2.1-1.9v-9.2
		C101.2,628.8,102.2,627.9,103.5,627.9L103.5,627.9z"/>
	<path class="st5" d="M185,671.7c-1.5,0-0.9,0.1-1.3-0.1c-34.5-6-67.6-5.2-100.9,0.7c0,0-0.2,0.2-1.6,0.3c0,0,0.6-1.8,0.6-2
		l8.4-25.7c2.1-2.6,4.3-4,7.1-4.6c23.8-3.2,47.6-3.2,72,0.1c3.1,0.5,5.2,2.5,7.3,5.1l7.3,22.8L185,671.7L185,671.7z"/>
	<path class="st2" d="M79.2,718.4v-11.4H97v11.7c0,1.9-2.1,2.5-4.3,2.5l-9.3-0.1C80,721.3,79.2,720.5,79.2,718.4L79.2,718.4z"/>
	<path class="st2" d="M168.9,718.4v-11.4h18l-0.1,11.7c0,1.9-2.1,2.5-4.3,2.5l-9.8-0.1C169.8,721.3,168.6,720.5,168.9,718.4
		L168.9,718.4z"/>
	<path class="st2" d="M74.8,704.3c-3.8,0-3.8-5.8-0.1-5.8h117.3c3.6,0,3.7,5.8-0.1,5.8H74.8L74.8,704.3z"/>
	<path class="st2" d="M77.8,695.2c-0.8-1.3-1.4-2.6-1.6-4H98c1.4-2,1.4-3.2,1.4-5.3H76.3l-0.1-2.6h23.2c0-1.9-0.6-3.8-2.1-5.3H76.2
		c0-1.3,0.1-2.5,1.6-3.8c1.3-0.7,3.3-1.7,4.9-1.9c33.6-6.3,66.7-6.7,101.3-0.7c1.6,0.5,3.2,0.7,5.3,1.9c1.4,1.3,2.1,3.2,2.1,4.5
		h-20.8c-2.3,1.4-2.5,3.3-2.5,5.3h23.5l-0.1,2.6h-23.4c0,2-0.5,4,2.4,5.3h21c0,1.3-0.6,2.6-2.1,4H77.8L77.8,695.2z"/>
	<path class="st2" d="M82,669.7l8-24.9c2.1-2.6,4.3-4.1,7.1-4.7c23.9-3.2,47.8-3.2,72.4,0.1c3.1,0.5,5.1,2.5,7.3,5.1l7.3,22.9
		l-6.5-1.3l-5.8-18.2c-0.6-2-2.1-2.6-4.3-4c-22.5-2.6-44.9-2.6-67.3,0c-2.9,0.5-3.6,1.1-5,3.2l-5.9,19.6L82,669.7L82,669.7z"/>
	<path class="st3" d="M76.1,678c-0.2,3.2-0.2,8.2,0.1,13.4h21.9c1.5-2.1,1.5-3.3,1.5-5.4v-2.7c0-1.9-0.6-3.9-2.2-5.4L76.1,678
		L76.1,678z"/>
	<path class="st3" d="M191.2,678c0.2,3.2,0.2,8.2-0.1,13.4h-21.9c-1.5-2.1-1.7-3.3-1.7-5.4v-2.7c0-1.9,0.8-3.9,2.3-5.4L191.2,678
		L191.2,678z"/>
	<path class="st4" d="M117.5,678.3h31.9c1.2,0,2.1,0.8,2.1,1.9v9.2c0,1-1,1.9-2.1,1.9h-31.9c-1.2,0-2.1-0.9-2.1-1.9v-9.2
		C115.3,679.1,116.3,678.3,117.5,678.3L117.5,678.3z"/>
	<path class="st5" d="M203.7,710.4c-1.5,0-1,0.1-1.4-0.1c-34.9-6-68.5-5.3-102.3,0.7c0,0-0.2,0.2-1.7,0.3c0,0,0.6-1.8,0.6-2
		l8.5-26.1c2.1-2.6,4.4-4.1,7.2-4.7c24.1-3.2,48.3-3.2,73.1,0.1c3.1,0.5,5.3,2.6,7.3,5.2l7.3,23.2L203.7,710.4L203.7,710.4z"/>
	<path class="st2" d="M96.4,757.8v-11.5h18.1v11.9c0,1.9-2.1,2.5-4.4,2.5l-9.5-0.1C97.2,760.7,96.4,759.8,96.4,757.8L96.4,757.8z"/>
	<path class="st2" d="M187.4,757.8v-11.5h18.2l-0.1,11.9c0,1.9-2.1,2.5-4.4,2.5l-9.9-0.1C188.4,760.7,187.1,759.8,187.4,757.8
		L187.4,757.8z"/>
	<path class="st2" d="M92,743.5c-3.9,0-3.9-5.9-0.1-5.9h119c3.6,0,3.8,5.9-0.1,5.9H92L92,743.5z"/>
	<path class="st2" d="M94.9,734.3c-0.8-1.4-1.5-2.7-1.6-4h22.1c1.5-2.1,1.5-3.2,1.5-5.3H93.5l-0.1-2.7h23.6c0-1.9-0.6-3.9-2.1-5.3
		H93.3c0-1.4,0.1-2.5,1.6-3.9c1.4-0.7,3.4-1.7,4.9-1.9c34-6.4,67.6-6.8,102.7-0.7c1.6,0.5,3.2,0.7,5.4,1.9c1.5,1.4,2.1,3.2,2.1,4.6
		H189c-2.3,1.4-2.5,3.4-2.5,5.3h23.8l-0.1,2.7h-23.7c0,2.1-0.5,4,2.4,5.3h21.3c0,1.4-0.6,2.7-2.1,4H94.9L94.9,734.3z"/>
	<path class="st2" d="M99.2,708.4l8.2-25.2c2.1-2.7,4.4-4.1,7.2-4.7c24.3-3.2,48.5-3.2,73.4,0.1c3.1,0.5,5.2,2.5,7.3,5.2l7.4,23.3
		l-6.6-1.4l-5.9-18.6c-0.6-2.1-2.1-2.7-4.4-4c-22.8-2.7-45.6-2.7-68.3,0c-2.9,0.5-3.6,1.1-5.1,3.2l-6,19.9L99.2,708.4L99.2,708.4z"
		/>
	<path class="st3" d="M93.3,716.9c-0.2,3.2-0.2,8.3,0.1,13.6h22.2c1.6-2.1,1.6-3.3,1.6-5.5v-2.7c0-2-0.6-4-2.2-5.5H93.3L93.3,716.9z
		"/>
	<path class="st3" d="M210,716.9c0.3,3.2,0.3,8.3-0.1,13.6h-22.2c-1.6-2.1-1.7-3.3-1.7-5.5v-2.7c0-2,0.8-4,2.4-5.5H210L210,716.9z"
		/>
	<path class="st4" d="M135.3,717.1h32.3c1.2,0,2.2,0.9,2.2,1.9v9.3c0,1.1-1,1.9-2.2,1.9h-32.3c-1.2,0-2.2-0.9-2.2-1.9V719
		C133.1,718,134,717.1,135.3,717.1L135.3,717.1z"/>
</g>
<text transform="matrix(0.9757 0 0 1 8.9429 848.6501)" class="st6 st7 st8">Preavviso di STOP</text>
<g>
	<g>
		<g>
			<path class="st9" d="M410.5,388.3c20.3-0.8,32.5-16,29.3-36.2L439,349l-1.2-3.3l-1.4-3.2L250.2,19.4
				c-9.4-14.3-22.6-22.6-39.7-15.3c-6.5,3.6-11.3,8.7-15.1,14.8L9.5,341c-6.8,12.7-9.4,26.1,1,37.8c8.2,8.7,18.4,9.6,29.9,9.6
				l365.7-0.1H410.5L410.5,388.3z"/>
			<path class="st3" d="M406,379c5.7-0.1,11.3,0.6,17.2-3.8c5.9-4.4,11.4-15.5,5-28.4L242.1,24.2C231.7,6,213.3,6.5,203.3,23.8
				L17.6,345.7c-3.9,6.8-7.2,16.6-2.7,23.9c5.9,9.5,15.3,9.5,25.4,9.6L406,379L406,379z"/>
			<polygon class="st10" points="381.2,341.1 222.4,66.4 64,341.1 			"/>
			<path class="st11" d="M222.9,289.4c9.6,0,17.3,7.8,17.3,17.3s-7.8,17.3-17.3,17.3s-17.3-7.8-17.3-17.3
				C205.5,297.2,213.3,289.4,222.9,289.4L222.9,289.4z"/>
			<path class="st11" d="M234.7,262.4l5.5-120.8c0.2-5.2-7.8-17.3-17.3-17.3c-9.6,0-17.7,8.3-17.3,17.3l4.9,120.8
				c0.3,7.8,5.1,13.6,11.8,13.6C228.9,276,234.4,270.3,234.7,262.4L234.7,262.4z"/>
		</g>
	</g>
</g>
</svg>
