<?xml version="1.0" encoding="utf-8"?>
<!-- Generator: Adobe Illustrator 19.2.0, SVG Export Plug-In . SVG Version: 6.00 Build 0)  -->
<svg version="1.1" id="Livello_1" xmlns="http://www.w3.org/2000/svg" xmlns:xlink="http://www.w3.org/1999/xlink" x="0px" y="0px"
	 viewBox="0 0 602.1 289.8" style="enable-background:new 0 0 602.1 289.8;" xml:space="preserve">
<style type="text/css">
	.st0{opacity:1.000000e-002;fill:#FFFFFF;enable-background:new    ;}
	.st1{fill:#FFFFFF;stroke:#1A171B;stroke-width:1.1838;stroke-miterlimit:2.6131;}
	.st2{fill:none;stroke:#1A171B;stroke-width:7.8917;stroke-miterlimit:2.6131;}
	.st3{fill:#1A171B;stroke:#1A171B;stroke-width:1.1838;stroke-miterlimit:2.6131;}
</style>
<rect x="-179.1" y="-54.6" class="st0" width="1" height="1"/>
<rect x="779.9" y="904.4" class="st0" width="1" height="1"/>
<g>
	<g>
		<polygon class="st1" points="0.9,61.8 600.9,61.8 600.9,288.8 0.9,288.8 		"/>
		<path class="st2" d="M46.8,78.1h508.1c16.3,0,29.7,13.3,29.7,29.7v135.3c0,16.3-13.3,29.7-29.7,29.7H46.8
			c-16.3,0-29.7-13.3-29.7-29.7V107.7C17.2,91.4,30.5,78.1,46.8,78.1L46.8,78.1z"/>
		<path class="st3" d="M198.7,169.7c-7.8,3-12.8,3.2-20.7,3.2h-67.1l75.8-77.8l18.2,17.6c11.1,10.7,14.8,19.9,12.4,29.9l-7.9-8
			c-14.6-7.7-31,10.5-20.9,24.8L198.7,169.7L198.7,169.7z"/>
		<path class="st3" d="M340.5,180.5l-67.6-0.2l23.4-15.5l44.2,0.2V180.5L340.5,180.5z M400.4,180.2l-46.6,0.2
			c-11.6,0-11.6-15.7-0.2-15.7h25.8l-1.9-18.3c0-16.3,27.3-15.2,27.5,0L400.4,180.2L400.4,180.2z M407.3,164.8h30.1l21.5,15.5
			l-53.7,0.2L407.3,164.8L407.3,164.8z"/>
		<path class="st3" d="M208.4,142.6l73,73c3.8,3.8,3.8,9.9,0,13.7s-9.9,3.8-13.7,0l-73-73c-3.8-3.8-3.8-9.9,0-13.7
			C198.5,138.8,204.7,138.8,208.4,142.6L208.4,142.6z"/>
		<path class="st3" d="M458.9,213.9c4.4,0,8,3.6,8,8s-3.6,8-8,8s-8-3.6-8-8S454.5,213.9,458.9,213.9L458.9,213.9z"/>
		<path class="st3" d="M458.9,190c-61.7,0-123.9-0.1-185.5-0.1c-2.7,0-4.3-0.1-6.8,0.5l11.3,11.3c7.8,2.4,15.2,10.8,15.1,20.2
			c0,10.8-8.9,19.7-19.7,19.7c-9.4,0-17.4-6.6-19.3-15.5l-11.8-11.8c-0.5,2.5-0.8,5-0.8,7.6c0,17.6,14.4,32,32,32
			c61.7,0,123.9,0.1,185.5,0.1c17.6,0,32-14.4,32-32C490.9,204.4,476.5,190,458.9,190z M458.9,241.7c-10.8,0-19.7-8.9-19.7-19.7
			s8.9-19.7,19.7-19.7s19.7,8.9,19.7,19.7S469.7,241.7,458.9,241.7z"/>
		<path class="st3" d="M390.8,110.1c5.8,0,10.6,4.8,10.6,10.6c0,5.8-4.8,10.6-10.6,10.6s-10.6-4.8-10.6-10.6
			C380.2,114.9,384.9,110.1,390.8,110.1L390.8,110.1z"/>
	</g>
</g>
</svg>
