<?xml version="1.0" encoding="utf-8"?>
<!-- Generator: Adobe Illustrator 19.2.0, SVG Export Plug-In . SVG Version: 6.00 Build 0)  -->
<svg version="1.1" id="Livello_1" xmlns="http://www.w3.org/2000/svg" xmlns:xlink="http://www.w3.org/1999/xlink" x="0px" y="0px"
	 viewBox="0 0 603.2 288" style="enable-background:new 0 0 603.2 288;" xml:space="preserve">
<style type="text/css">
	.st0{fill:#005EA7;}
	.st1{fill:#005EA7;stroke:#FFFFFF;stroke-width:7.8917;stroke-miterlimit:2.6131;}
	.st2{fill:#FFFFFF;}
</style>
<g>
	<g>
		<polygon class="st0" points="1.1,60.1 601.1,60.1 601.1,287.1 1.1,287.1 		"/>
		<path class="st1" d="M47,76.4h508.1c16.3,0,29.7,13.3,29.7,29.7v135.3c0,16.3-13.3,29.7-29.7,29.7H47c-16.3,0-29.7-13.3-29.7-29.7
			V106C17.4,89.7,30.7,76.4,47,76.4L47,76.4z"/>
		<polygon class="st2" points="428.3,125.8 422.4,104 431.6,101.4 434.9,114.1 443.1,100.2 459.1,109.4 449.9,125.6 466.1,121.4 
			468.5,130.3 443.1,137.1 428.3,162.9 461.9,162.9 477.9,147 484.4,153.5 475,162.4 491.5,162.9 491.5,181.2 472.7,181.2 
			484.4,193.4 477.9,200 459.5,181.2 426.9,181.2 443.6,209.7 468.7,216.2 466.6,225.6 450.2,221.2 459.8,237.4 443.6,246.5 
			435.1,232.2 431.6,245.6 422.7,242.8 428.3,220.5 411.6,191.6 396.6,217.6 403.4,243 394.3,245.6 390,229.1 380.6,245.6 
			364.4,236.2 372.9,221.6 359.5,225.4 357.4,216.2 379.7,209.9 396.4,181.2 366.6,181.2 347.8,200 341.2,193.4 352.9,181.2 
			334.1,181.2 334.1,162.9 351.1,162.9 341.2,153.1 348.2,146.5 364.7,162.9 395,162.9 379.9,136.4 358.1,130.5 360.4,121.1 
			372.9,124.6 365.1,110.5 381.1,101.2 390.5,117.4 395,101.2 403.9,103.7 397.1,129.1 411.6,154.7 		"/>
		<polygon class="st2" points="202.3,125.8 196.4,104 205.6,101.4 208.9,114.1 217.1,100.2 233.1,109.4 223.9,125.6 240.1,121.4 
			242.5,130.3 217.1,137.1 202.3,162.9 235.9,162.9 251.8,147 258.4,153.5 249,162.4 265.5,162.9 265.5,181.2 246.7,181.2 
			258.4,193.4 251.8,200 233.5,181.2 200.9,181.2 217.6,209.7 242.7,216.2 240.6,225.6 224.1,221.2 233.8,237.4 217.6,246.5 
			209.1,232.2 205.6,245.6 196.7,242.8 202.3,220.5 185.6,191.6 170.6,217.6 177.4,243 168.2,245.6 164,229.1 154.6,245.6 
			138.4,236.2 146.9,221.6 133.5,225.4 131.4,216.2 153.7,209.9 170.4,181.2 140.5,181.2 121.7,200 115.2,193.4 126.9,181.2 
			108.1,181.2 108.1,162.9 125,162.9 115.2,153.1 122.2,146.5 138.7,162.9 168.9,162.9 153.9,136.4 132.1,130.5 134.4,121.1 
			146.9,124.6 139.1,110.5 155.1,101.2 164.5,117.4 168.9,101.2 177.9,103.7 171.1,129.1 185.6,154.7 		"/>
	</g>
</g>
</svg>
