<?xml version="1.0" encoding="utf-8"?>
<!-- Generator: Adobe Illustrator 19.2.0, SVG Export Plug-In . SVG Version: 6.00 Build 0)  -->
<svg version="1.1" id="Livello_3" xmlns="http://www.w3.org/2000/svg" xmlns:xlink="http://www.w3.org/1999/xlink" x="0px" y="0px"
	 viewBox="0 0 445.6 559.9" style="enable-background:new 0 0 445.6 559.9;" xml:space="preserve">
<style type="text/css">
	.st0{fill:#FFFFFF;stroke:#1A171B;stroke-width:0.7697;stroke-miterlimit:2.6131;}
	.st1{fill:none;stroke:#1A171B;stroke-width:5.1315;stroke-miterlimit:2.6131;}
	.st2{fill:#1A171B;stroke:#1A171B;stroke-width:0.7697;stroke-miterlimit:2.6131;}
	.st3{fill:#C5C6C8;stroke:#C5C6C8;stroke-width:0.7697;stroke-miterlimit:2.6131;}
	.st4{fill:#FFFFFF;stroke:#1A171B;stroke-width:0.8737;stroke-miterlimit:2.6131;}
	.st5{fill:#E1001A;}
	.st6{fill:#FFFFFF;stroke:#E1001A;stroke-width:2.9123;stroke-miterlimit:2.6131;}
	.st7{fill:#1A171B;stroke:#1A171B;stroke-width:0.8737;stroke-miterlimit:2.6131;}
</style>
<text transform="matrix(0.9757 0 0 1 8.9429 848.6501)" style="display:none;enable-background:new    ; font-family:'ArialMT'; font-size:53.7146px;">Preavviso di STOP</text>
<g>
	<g>
		<polygon class="st0" points="27,410.5 417.1,410.5 417.1,558.1 27,558.1 		"/>
		<path class="st1" d="M56.8,421.1h330.4c10.6,0,19.3,8.6,19.3,19.3v88c0,10.6-8.6,19.3-19.3,19.3H56.8c-10.6,0-19.3-8.6-19.3-19.3
			v-88C37.6,429.8,46.2,421.1,56.8,421.1L56.8,421.1z"/>
		<polygon class="st2" points="156.1,444.4 160.3,448.3 151.9,456.2 147.8,452.2 		"/>
		<polygon class="st2" points="142.7,456.9 146.9,460.8 130.2,476.4 126,472.5 		"/>
		<polygon class="st2" points="108.4,488.9 112.6,492.8 98.4,506 94.2,502.1 		"/>
		<polygon class="st2" points="80,515.3 84.2,519.2 71.6,530.9 67.4,527 		"/>
		<polygon class="st2" points="103.4,506 107.6,509.9 92.5,523.9 88.3,520 		"/>
		<polygon class="st2" points="135.2,476.4 139.4,480.3 127.7,491.2 123.5,487.3 		"/>
		<polygon class="st2" points="155.2,457.6 159.5,461.6 152.8,467.9 148.6,463.9 		"/>
		<polygon class="st2" points="162.8,463.1 167,467.1 150.3,482.6 146.1,478.7 		"/>
		<polygon class="st2" points="137.7,486.5 141.9,490.4 133.5,498.2 129.3,494.3 		"/>
		<polygon class="st2" points="123.5,499.8 127.7,503.7 112.6,517.7 108.4,513.8 		"/>
		<polygon class="st2" points="150.2,487.3 154.5,491.2 143.6,501.3 139.4,497.4 		"/>
		<polygon class="st2" points="124.3,511.5 128.5,515.4 107.6,534.8 103.4,530.9 		"/>
		<polygon class="st2" points="180.4,471.7 184.6,475.6 178.7,481.1 174.6,477.2 		"/>
		<polygon class="st2" points="167.9,483.4 172,487.3 157.9,500.6 153.6,496.6 		"/>
		<polygon class="st2" points="141.9,507.5 146.1,511.5 131.8,524.7 127.7,520.8 		"/>
		<polygon class="st2" points="179.5,485 183.7,488.9 171.2,500.6 167,496.6 		"/>
		<polygon class="st2" points="156.9,506 161.2,509.9 151.2,519.2 146.9,515.3 		"/>
		<polygon class="st2" points="172,504.5 176.2,508.4 162.8,520.9 158.6,516.9 		"/>
		<polygon class="st2" points="197.1,481.1 201.4,485 189.6,495.9 185.4,492 		"/>
		<polygon class="st2" points="188.7,501.3 193,505.2 182,515.4 177.9,511.5 		"/>
		<polygon class="st2" points="170.3,518.4 174.6,522.4 165.3,530.9 161.2,527 		"/>
		<polygon class="st2" points="189.6,513 193.8,516.9 179.6,530.1 175.3,526.2 		"/>
		<polygon class="st2" points="213,491.2 217.2,495.2 203.8,507.6 199.6,503.7 		"/>
		<polygon class="st2" points="222.2,495.1 226.4,499 221.4,503.7 217.2,499.8 		"/>
		<polygon class="st2" points="205.4,510.7 209.7,514.6 199.7,523.9 195.4,520 		"/>
		<polygon class="st2" points="224.8,505.2 228.9,509.1 216.4,520.9 212.1,516.9 		"/>
		<polygon class="st2" points="204.7,523.9 208.8,527.9 202.1,534.1 198,530.1 		"/>
		<polygon class="st2" points="243.2,500.6 247.4,504.5 239,512.3 234.8,508.3 		"/>
		<polygon class="st2" points="224.8,517.7 228.9,521.6 215.5,534.1 211.4,530.1 		"/>
		<path class="st3" d="M168.6,431.9h225.2v84.6c-17.4-1.6-28-9.8-33.2-21.2c-19.3,21.2-62.9,19.6-78.6,0
			c-31.4,6.6-54.2-3.3-64.5-22.6C200.1,474.2,168.6,466.1,168.6,431.9L168.6,431.9z"/>
	</g>
</g>
<g>
	<g>
		<path class="st4" d="M410.3,388.4c20.3-0.8,32.5-16,29.3-36.1l-0.7-3l-1.2-3.3l-1.4-3.1L249.9,19.3C240.5,5,227.4-3.2,210.1,4
			c-6.5,3.6-11.3,8.6-15,14.8L9,341c-6.8,12.7-9.3,26.1,0.9,37.9c8.2,8.6,18.4,9.6,29.8,9.6l365.8-0.1H410.3L410.3,388.4z"/>
		<path class="st5" d="M405.7,379c5.7-0.1,11.3,0.6,17.3-3.8c5.9-4.4,11.4-15.5,5-28.3L241.8,24.2C231.3,5.9,213,6.4,203,23.7
			l-185.8,322c-4,6.9-7.2,16.6-2.7,23.9c5.9,9.4,15.3,9.4,25.4,9.6L405.7,379L405.7,379z"/>
		<polygon class="st6" points="380.9,341.2 222.1,66.3 63.6,341.2 		"/>
		<path class="st7" d="M159.1,230.3l2.3-12.2l17.4,3.3l-2.3,12.6c-0.3,2.1-2.6,2.3-4.8,1.9l-9.1-1.9
			C159.3,233.4,158.7,232.4,159.1,230.3L159.1,230.3z"/>
		<path class="st7" d="M246.6,246.9l2.3-12.2l17.5,3.3l-2.6,12.6c-0.3,2.1-2.6,2.3-4.8,1.9l-9.6-2
			C246.9,250.1,246,248.9,246.6,246.9L246.6,246.9z"/>
		<path class="st7" d="M157.7,214.2c-3.7-0.7-2.6-7,1-6.3l114.6,21.7c3.5,0.7,2.4,7-1.3,6.3L157.7,214.2L157.7,214.2z"/>
		<path class="st7" d="M162.4,205c-0.5-1.5-0.9-3.1-0.7-4.5l21.2,4c1.9-1.9,2.1-3.3,2.4-5.4l-22.5-4.3l0.3-2.9l22.7,4.3
			c0.3-2.1,0.1-4.2-1-6.1l-20.6-3.8c0.2-1.4,0.7-2.7,2.3-3.8c1.4-0.6,3.6-1.2,5.1-1.2c34-0.7,66.4,5.1,99,18c1.4,0.8,2.9,1.4,4.8,3
			c1.2,1.6,1.4,3.8,1.2,5.2l-20.4-3.8c-2.4,1.2-3.6,3-4.1,5.1l23.5,4.4l-0.8,2.8l-23.3-4.4c-0.5,2.2-0.8,4.2,1.7,6.2l20.5,3.8
			c-0.2,1.4-1.2,2.7-2.9,3.8L162.4,205L162.4,205z"/>
		<path class="st7" d="M171.8,178.2l12.9-25.3c2.6-2.4,5.1-3.6,7.9-3.7c24,0.9,47.3,5.4,70.6,13.5c2.9,1,4.5,3.6,6.1,6.9l2.4,26.1
			l-6.1-2.6l-2-20.7c-0.2-2.3-1.5-3.3-3.5-5c-21.3-7-43.2-11.1-65.7-12.5c-2.9,0-3.7,0.5-5.6,2.6l-9.8,20L171.8,178.2L171.8,178.2z"
			/>
		<path class="st4" d="M204.6,193.9l31.1,5.8c1.2,0.2,1.9,1.4,1.7,2.4l-1.9,9.9c-0.2,1.2-1.4,1.9-2.4,1.7l-31.1-5.8
			c-1.2-0.2-1.9-1.3-1.7-2.4l1.9-9.9C202.4,194.5,203.5,193.8,204.6,193.9L204.6,193.9z"/>
		<path class="st7" d="M253.9,328.2c4.1-2.6,13.4-7.6,19.8-12c5.8-7.1,3.4-10.7,2.8-14.2c-8.4-10.6-25.5-17.1-29.3-34.4l1.7-9.8
			l10.3,2l-0.5,7c0.9,5.8,5.8,9.1,11.8,14.1c8,6.4,14.2,7.7,22.3,13.4c2.4,3.1,4.7,5.9,4.7,10.8c-1.2,9.1-1.2,11.5-11.3,23.3
			C276.2,328.3,264.5,328.3,253.9,328.2L253.9,328.2z"/>
		<path class="st7" d="M132.2,328.1c17.1-9.8,37.3-13.9,49.3-31c2-3.8,2.1-7.8,2-12.6c-2.4-14-17.8-18.2-23.7-32.1
			c-0.3-3.7-0.1-6.5,0.6-10.5l10.3,1.6v5c4.8,11.3,16,14.1,24.2,24.2c5.8,7,7.7,16.9,6.5,26.9c0,8-14.7,25.5-23.2,28.2h-46V328.1z"
			/>
	</g>
</g>
</svg>
