<?xml version="1.0" encoding="utf-8"?>
<!-- Generator: Adobe Illustrator 19.2.0, SVG Export Plug-In . SVG Version: 6.00 Build 0)  -->
<svg version="1.1" id="Livello_1" xmlns="http://www.w3.org/2000/svg" xmlns:xlink="http://www.w3.org/1999/xlink" x="0px" y="0px"
	 viewBox="0 0 603.1 599.3" style="enable-background:new 0 0 603.1 599.3;" xml:space="preserve">
<style type="text/css">
	.st0{fill:#FFFFFF;stroke:#1A171B;stroke-width:1.1815;stroke-miterlimit:2.6131;}
	.st1{fill:none;stroke:#1A171B;stroke-width:11.8147;stroke-miterlimit:2.6131;}
	.st2{fill:#1A171B;stroke:#1A171B;stroke-width:1.1815;stroke-miterlimit:2.6131;}
</style>
<g>
	<g>
		<polygon class="st0" points="1.3,1.5 601.3,1.5 601.3,598.1 1.3,598.1 		"/>
		<path class="st1" d="M52.1,19.1h499.3c18.3,0,33.2,14.9,33.2,33.2v496.1c0,18.3-14.9,33.2-33.2,33.2H52.1
			c-18.3,0-33.2-14.9-33.2-33.2V52.3C18.9,34,33.9,19.1,52.1,19.1L52.1,19.1z"/>
		<path class="st2" d="M347.6,291.7l-0.8-1.2l31.9-22.1l3.5,5.9L347.6,291.7L347.6,291.7z M368.9,330.7c-7.5-1.6-15,3.1-16.1,9.8
			c-1.2,7.1,3.5,13.8,10.6,15.4c6.3,1.6,13-3.2,14.6-10.6C379.5,339.4,375.2,331.5,368.9,330.7L368.9,330.7z M477.2,353.1
			c-7.5-1.2-13.8,3.9-15.4,10.6c-1.6,7.1,2.8,13.8,9.8,15.4c7.5,1.2,14.6-2.8,15.8-10.2C488.6,362.6,484.3,355.1,477.2,353.1
			L477.2,353.1z M348.4,343.3c1.2-7.9,3.9-11.8,9.8-15.4l-25.2-4.7l1.6,15L348.4,343.3L348.4,343.3z M457.9,366.5
			c0-7.1,2.4-11.4,8.7-15l-87.4-19.3c4.3,5.9,4.3,11.8,2,18.1L457.9,366.5L457.9,366.5z M522.9,359.4l-1.6-15.8l-137-29.1l-44.1-3.5
			l-5.9,7.9L522.9,359.4L522.9,359.4z M391.7,312.2l20.1-14.6l24.4,6.3l-3.2,16.9l3.9,0.8l3.5-16.9l25.2,5.1l5.5,19.3l15.8,2.8
			l-13-24.8l-62.6-12.6L385.7,311L391.7,312.2L391.7,312.2z M514.2,376l7.5-13.4l-34.3-7.1c4.3,6.3,5.1,9.8,2.8,17.7L514.2,376
			L514.2,376z M475.6,359.8c-3.2-0.8-7.1,1.6-7.9,5.1c-0.4,3.5,2,7.5,5.1,7.9c4.3,1.2,7.9-1.2,8.3-5.1
			C481.9,364.6,479.9,360.6,475.6,359.8L475.6,359.8z M367.3,337c-3.9-0.8-7.9,1.6-8.3,4.7c-0.8,3.5,1.2,7.5,5.5,8.3
			c3.2,0.8,7.1-1.6,7.9-5.5C372.8,341.3,370.5,337.8,367.3,337L367.3,337z"/>
		<polygon class="st2" points="330,281.9 338.9,238.3 346.3,239.4 331.9,282.1 		"/>
		<polygon class="st2" points="340,281.9 363.8,245.3 369.5,249.8 341.1,283.2 		"/>
		<g>
			<path class="st2" d="M116.8,264.1c-9.8-2.3-19.7,4.4-21.6,14.3c-2.3,10.6,4,20,13.8,22.4c11,2.3,21.2-4.4,23.2-14.6
				C134.5,276.7,127.4,266.1,116.8,264.1z M122.4,284.2c-0.8,5.5-6.3,8.3-11.4,7.1c-4.3-0.8-7.9-5.9-6.7-10.6
				c1.1-5.1,5.8-8.3,10.6-7.1C120.4,274.8,123.6,279.1,122.4,284.2z"/>
			<path class="st2" d="M244.8,290.9l-105.1-22.4l12.2-58.7l-38.2-8.3l-21.3,33.1l-8.7,41.7l7.1,1.3c7.5-30.8,49.6-21.3,44.5,9.8
				l94.9,19.6C233,298.4,238.5,291.7,244.8,290.9z M102.3,231.4l14.2-21.3l28.4,6.7l-5.1,22.1L102.3,231.4z"/>
			<path class="st2" d="M275.2,316.1l26-4.7l2-8.3l-34.7-7.5C273.2,299.2,277.5,308.2,275.2,316.1z"/>
			<polygon class="st2" points="162.5,186.1 146,264.1 304.7,298 320.8,219.6 			"/>
			<path class="st2" d="M256.6,293.7c-10.2-2.4-20,3.9-22.9,14.3c-1.9,10.2,5.2,20.4,15.4,22.8c10.3,1.9,20.1-4.8,21.7-14.6
				C273.5,305.9,267.2,296.1,256.6,293.7z M262.2,314.1c-1.2,4.7-6.3,7.9-11.4,6.7c-4.3-0.8-7.5-5.1-6.7-10.6
				c1.1-5.5,6.2-7.5,10.6-6.7C259.4,304.7,263.4,308.6,262.2,314.1z"/>
		</g>
		<polygon class="st2" points="64.6,292.9 538.5,394 537.8,411.9 64.6,311.3 		"/>
	</g>
</g>
</svg>
