<?xml version="1.0" encoding="utf-8"?>
<!-- Generator: Adobe Illustrator 19.2.0, SVG Export Plug-In . SVG Version: 6.00 Build 0)  -->
<svg version="1.1" id="Livello_1" xmlns="http://www.w3.org/2000/svg" xmlns:xlink="http://www.w3.org/1999/xlink" x="0px" y="0px"
	 viewBox="0 0 603.7 345.1" style="enable-background:new 0 0 603.7 345.1;" xml:space="preserve">
<style type="text/css">
	.st0{fill:#FFFFFF;stroke:#1A171B;stroke-width:1.2748;stroke-miterlimit:2.6131;}
	.st1{fill:none;stroke:#1A171B;stroke-width:8.4987;stroke-miterlimit:2.6131;}
	.st2{fill:#1A171B;stroke:#1A171B;stroke-width:1.2748;stroke-miterlimit:2.6131;}
	.st3{fill:#FFFFFF;stroke:#FFFFFF;stroke-width:1.2748;stroke-miterlimit:2.6131;}
</style>
<g>
	<g>
		<polygon class="st0" points="601.7,61.5 1.7,61.5 1.7,343.9 601.7,343.9 		"/>
		<path class="st1" d="M60.2,82.1h483.1c22.4,0,40.8,18.4,40.8,40.8v160.4c0,22.4-18.4,40.8-40.8,40.8H60.2
			c-22.4,0-40.8-18.4-40.8-40.8V123C19.4,100.5,37.8,82.1,60.2,82.1L60.2,82.1z"/>
		<path class="st2" d="M315.9,209c-10.5-2-20.7,5-22.6,15.6c-2,10.5,5,20.7,15.6,22.6c10.5,2,20.7-5,22.6-15.6
			C333.4,221.2,326.4,211,315.9,209L315.9,209z"/>
		<path class="st2" d="M480.5,239.5c-10.5-1.9-20.7,5-22.6,15.6c-1.9,10.5,5,20.7,15.6,22.6c10.5,1.9,20.7-5,22.6-15.6
			C498,251.7,491.1,241.5,480.5,239.5L480.5,239.5z"/>
		<path class="st2" d="M286.6,228.5c0.9-11.6,5.1-17.7,13.1-22.6l-37.2-6.7l2.9,22L286.6,228.5L286.6,228.5z"/>
		<path class="st2" d="M451.9,259.3c0-10.1,3-17.1,12.4-22.9l-132.7-24.5c7.5,7.1,7.3,17.5,4.6,25.8L451.9,259.3L451.9,259.3z"/>
		<polygon class="st2" points="549.2,245.8 546.4,222.5 339.7,184.4 273.2,179.5 263.8,192.9 		"/>
		<polygon class="st2" points="349.8,179.8 380.3,158.6 417.4,165.5 412.8,191.3 418.9,192.5 423.7,166.8 461.2,173.7 470.6,202.1 
			493.6,206.4 472.4,168.8 379.3,152.1 341.3,178.3 		"/>
		<path class="st2" d="M536.9,270.8l11.2-18.9l-51.9-9.4c6.2,8.1,7.5,13.4,4.3,25.6L536.9,270.8L536.9,270.8z"/>
		<path class="st3" d="M478.9,248.5c-5.6-1-11,2.7-12,8.2c-1,5.6,2.7,11,8.2,12c5.6,1,11-2.7,12-8.2
			C488.1,255,484.4,249.6,478.9,248.5L478.9,248.5z"/>
		<path class="st3" d="M314.2,218c-5.6-1-10.9,2.7-12,8.2c-1,5.6,2.7,11,8.2,12c5.6,1,11-2.7,12-8.2
			C323.5,224.4,319.8,219.1,314.2,218L314.2,218z"/>
		<path class="st2" d="M53.9,258.6v-23.2h68.7c-7.2,3.9-12.1,14.4-11.4,23.2H53.9L53.9,258.6z"/>
		<path class="st2" d="M169.3,258.6c0-9.1-4.2-18.3-10.9-23.2c11.1,0,34.1,0,46.7,0v11.8L169.3,258.6L169.3,258.6z"/>
		<polygon class="st2" points="53.9,227.8 53.9,206 205,206 205,227.8 		"/>
		<path class="st2" d="M252.2,217.3l-20.5-75.6l-41.3,58H176l31.1-41.8l-48,41.8h-19l84.7-70.3c4.4-2.8,8.6-1.6,10.4,4.2l22.3,85.2
			L252.2,217.3L252.2,217.3z"/>
		<path class="st2" d="M140.1,235c12.1,0,22,9.9,22,22.1c0,12.1-9.9,22.1-22,22.1s-22.1-9.9-22.1-22.1
			C118,244.9,127.9,235,140.1,235L140.1,235z"/>
		<path class="st0" d="M140.1,247.7c5.1,0,9.3,4.2,9.3,9.3c0,5.1-4.2,9.3-9.3,9.3c-5.1,0-9.3-4.2-9.3-9.3
			C130.8,251.9,134.9,247.7,140.1,247.7L140.1,247.7z"/>
	</g>
</g>
</svg>
