<?xml version="1.0" encoding="utf-8"?>
<!-- Generator: Adobe Illustrator 19.2.0, SVG Export Plug-In . SVG Version: 6.00 Build 0)  -->
<svg version="1.1" id="Livello_1" xmlns="http://www.w3.org/2000/svg" xmlns:xlink="http://www.w3.org/1999/xlink" x="0px" y="0px"
	 viewBox="0 0 602.4 345.6" style="enable-background:new 0 0 602.4 345.6;" xml:space="preserve">
<style type="text/css">
	.st0{opacity:1.000000e-002;fill:#FFFFFF;enable-background:new    ;}
	.st1{fill:#FFFFFF;stroke:#1A171B;stroke-width:1.2748;stroke-miterlimit:2.6131;}
	.st2{fill:none;stroke:#1A171B;stroke-width:8.4987;stroke-miterlimit:2.6131;}
	.st3{fill:#1A171B;stroke:#1A171B;stroke-width:1.2748;stroke-miterlimit:2.6131;}
</style>
<rect x="-178.9" y="-54.9" class="st0" width="1" height="1"/>
<rect x="780.1" y="904.1" class="st0" width="1" height="1"/>
<g>
	<g>
		<polygon class="st1" points="601.1,62 1.1,62 1.1,344.4 601.1,344.4 		"/>
		<path class="st2" d="M59.6,82.6h483.1c22.4,0,40.8,18.4,40.8,40.8v160.4c0,22.4-18.4,40.8-40.8,40.8H59.6
			c-22.4,0-40.8-18.4-40.8-40.8V123.5C18.8,101,37.2,82.6,59.6,82.6L59.6,82.6z"/>
		<path class="st3" d="M333.6,123.7l-0.1,59.5l93.4-17.9c3.2-2.6,12.9,2.6,9.9,7.8L301.1,282.2L165.9,173.1
			c-3.2-5.2,3.2-10.4,9.9-7.8l93.2,18l0.1-59.7L333.6,123.7L333.6,123.7z"/>
	</g>
</g>
</svg>
