<?xml version="1.0" encoding="utf-8"?>
<!-- Generator: Adobe Illustrator 19.2.0, SVG Export Plug-In . SVG Version: 6.00 Build 0)  -->
<svg version="1.1" id="Livello_1" xmlns="http://www.w3.org/2000/svg" xmlns:xlink="http://www.w3.org/1999/xlink" x="0px" y="0px"
	 viewBox="0 0 765.1 521.2" style="enable-background:new 0 0 765.1 521.2;" xml:space="preserve">
<style type="text/css">
	.st0{fill:#FFFFFF;stroke:#1A171B;stroke-width:1.1837;stroke-miterlimit:2.6131;}
	.st1{fill:none;stroke:#1A171B;stroke-width:7.8916;stroke-miterlimit:2.6131;}
	.st2{fill:#1A171B;}
</style>
<g>
	<polygon class="st0" points="0.6,293.2 600.6,293.2 600.6,520.2 0.6,520.2 	"/>
	<path class="st1" d="M46.6,309.5h508.1c16.3,0,29.7,13.3,29.7,29.7v135.3c0,16.3-13.3,29.7-29.7,29.7H46.6
		c-16.3,0-29.7-13.3-29.7-29.7V339.1C16.9,322.8,30.3,309.5,46.6,309.5L46.6,309.5z"/>
	<path class="st2" d="M51.1,425l14.8-1.9c0.2,4,1.6,7.3,3.5,9.1c1.8,1.9,4.6,3,7.4,3c2.8,0,5.5-1.2,7.6-3.5s3.2-5.9,3.2-10.1
		c0-4-0.9-7.3-2.8-9.6c-1.8-2.3-4.4-3.5-7.2-3.5c-1.6,0-3.9,0.5-6.2,1.2l1.4-12.4c3.7,0,6.9-0.7,8.8-2.6c2.1-1.9,3.2-4.5,3.2-7.7
		c0-2.6-0.9-4.9-2.3-6.3c-1.4-1.6-3.7-2.6-6-2.6s-4.6,0.9-6.2,2.8c-1.6,1.9-2.8,4.7-3,8L53,386.6c0.9-4.9,2.3-9.1,4.2-11.9
		s4.9-5.4,8.1-7c3.5-1.6,7.4-2.6,11.6-2.6c7.4,0,13.4,2.6,17.8,7.5c3.7,3.7,5.5,8.4,5.5,13.4c0,7-3.9,12.9-11.6,17.1
		c4.6,0.9,8.3,3.3,11.1,6.6c2.8,3.5,4.2,8,4.2,12.9c0,7-2.5,13.4-7.6,18.3c-5.1,5.2-11.6,7.7-19.2,7.7c-6.9,0-13.2-2.1-17.8-6.3
		s-7.6-10.1-8.1-16.9L51.1,425L51.1,425z M175.2,388v12.2h-10.6v24.1c0,4.7,0.2,7.7,0.2,8.4s0.7,1.4,1.2,1.9
		c0.7,0.5,1.8,0.7,2.8,0.7c1.4,0,3.5-0.5,6.2-1.4l1.2,12.2c-3.5,1.4-7.6,2.3-12,2.3c-2.8,0-5.3-0.5-7.4-1.4
		c-2.3-0.9-3.9-2.1-4.9-3.5c-0.9-1.4-1.8-3.7-2.1-6.3c-0.2-1.6-0.5-5.4-0.5-11v-26h-7.4V388h7.4v-11.3l15.3-9.4v20.6L175.2,388
		L175.2,388L175.2,388z M181.7,416.5c0-4.9,1.4-10.1,3.7-14.8c2.3-4.9,6-8.9,10.6-11.2c4.6-2.6,9.9-4,15.5-4c8.8,0,16.2,3,21.7,8.7
		c5.5,5.9,8.6,13.4,8.6,22.3c0,8.9-3,16.4-8.6,22c-5.5,5.9-12.9,8.9-21.5,8.9c-5.3,0-10.6-1.2-15.3-3.5c-4.9-2.3-8.8-6.1-11.1-10.8
		c-2.3-4.7-3.7-10.8-3.7-17.3L181.7,416.5L181.7,416.5z M197,417.5c0,5.9,1.4,10.5,3.9,13.6c2.8,3,6.2,4.7,10.4,4.7
		c3.9,0,7.4-1.6,10.2-4.7c2.8-3,4.2-7.7,4.2-13.6c0-5.6-1.4-10.3-4.2-13.4c-2.8-3.3-6.2-4.9-10.2-4.9c-4.2,0-7.6,1.6-10.2,4.7
		C198.3,407.2,197,411.9,197,417.5L197,417.5z M269.3,447H254v-59h14.8v8.4c2.3-3.7,4.4-6.6,6.2-7.7c1.9-1.4,4.2-2.1,6.5-2.1
		c3.2,0,6.7,1.2,9.9,3l-4.9,13.6c-2.5-1.6-5.1-2.6-7.2-2.6s-3.9,0.7-5.3,1.9s-2.8,3.5-3.5,6.6c-0.9,3-1.4,9.8-1.4,19.9v18H269.3z
		 M350.5,447h-15.3v-30c0-6.1-0.5-10.3-0.9-12.2c-0.7-1.9-1.9-3.5-3.2-4.5c-1.4-0.9-3.5-1.6-5.5-1.6c-2.5,0-5.1,0.7-6.9,2.1
		c-2.1,1.4-3.7,3.7-4.4,6.1c-0.7,2.3-1.2,7-1.2,13.6V447h-15.3v-59h14.8v8.9c4.9-6.8,11.3-10.3,18.7-10.3c3.2,0,6.2,0.7,9,1.9
		s4.9,2.8,6.2,4.7c1.4,1.9,2.5,4.2,3,6.6c0.5,2.3,0.9,6.1,0.9,10.8L350.5,447L350.5,447z M378,406.2l-13.9-1.9
		c1.4-5.9,3.9-10.5,7.6-13.4c3.7-2.8,9.5-4.5,16.9-4.5c6.7,0,11.8,0.9,15,2.6c3.2,1.6,5.5,4,6.9,6.3s2.1,7.3,2.1,14.1v18.3
		c0,5.2,0.2,8.9,0.7,11.2s1.8,5.2,3.5,8h-15.3c-0.5-0.9-1.2-2.6-1.6-4.5c-0.2-0.7-0.5-1.4-0.5-1.6c-2.5,2.3-5.5,4.5-8.3,5.6
		c-3,1.2-6.5,1.9-9.7,1.9c-6,0-10.9-1.6-14.1-4.9c-3.2-3.3-5.1-7.5-5.1-12.4c0-3.3,0.7-6.3,2.1-8.9c1.4-2.6,3.7-4.7,6.5-6.1
		c2.8-1.4,6.9-2.6,12-3.5c6.9-1.4,11.8-2.8,14.6-4v-1.4c0-2.8-0.7-5.2-2.1-6.3c-1.4-1.4-4.2-2.1-7.9-2.1c-2.5,0-4.6,0.7-6,1.6
		C380.1,401.5,378.7,403.7,378,406.2L378,406.2z M397.4,418.9c-1.9,0.7-5.1,1.6-9,2.6c-4.2,0.9-6.9,1.9-8.1,2.6
		c-1.8,1.4-2.8,3.5-2.8,5.6s0.7,4.2,2.1,5.6c1.4,1.4,3.7,2.3,6,2.3c2.5,0,5.3-0.9,7.6-2.6c1.6-1.4,3-3.3,3.5-5.4
		c0.5-1.2,0.7-3.8,0.7-7.5L397.4,418.9L397.4,418.9z M481.6,447h-15.3v-30c0-6.1-0.5-10.3-0.9-12.2c-0.7-1.9-1.8-3.5-3.2-4.5
		c-1.4-0.9-3.5-1.6-5.5-1.6c-2.5,0-5.1,0.7-6.9,2.1c-2.1,1.4-3.7,3.7-4.4,6.1c-0.7,2.3-1.2,7-1.2,13.6V447h-15.3v-59h14.8v8.9
		c4.9-6.8,11.3-10.3,18.7-10.3c3.2,0,6.2,0.7,9,1.9s4.9,2.8,6.2,4.7c1.4,1.9,2.5,4.2,3,6.6c0.5,2.3,0.9,6.1,0.9,10.8V447L481.6,447
		L481.6,447z M524.8,388v12.2h-10.6v24.1c0,4.7,0.2,7.7,0.2,8.4s0.7,1.4,1.2,1.9c0.7,0.5,1.8,0.7,2.8,0.7c1.4,0,3.5-0.5,6.2-1.4
		l1.2,12.2c-3.5,1.4-7.6,2.3-12,2.3c-2.8,0-5.3-0.5-7.4-1.4c-2.3-0.9-3.9-2.1-4.9-3.5c-0.9-1.4-1.9-3.7-2.1-6.3
		c-0.2-1.6-0.5-5.4-0.5-11v-26h-7.4V388h7.4v-11.3l15.3-9.4v20.6L524.8,388L524.8,388z M535,380v-14.5h15.3V380H535L535,380z
		 M535,447v-59h15.3v59H535L535,447z"/>
	<polygon class="st0" points="0.6,0.6 600.6,0.6 600.6,227.6 0.6,227.6 	"/>
	<path class="st1" d="M46.6,16.9h508.1c16.3,0,29.7,13.3,29.7,29.7v135.3c0,16.3-13.3,29.7-29.7,29.7H46.6
		c-16.3,0-29.7-13.3-29.7-29.7V46.5C16.9,30.2,30.3,16.9,46.6,16.9L46.6,16.9z"/>
	<path class="st2" d="M104.2,93.6v12.5H93.1v24.8c0,4.8,0.2,8,0.2,8.7s0.7,1.4,1.2,1.9c0.7,0.5,1.9,0.7,2.9,0.7
		c1.4,0,3.6-0.5,6.5-1.4l1.2,12.5c-3.6,1.4-8,2.4-12.5,2.4c-2.9,0-5.5-0.5-7.7-1.4c-2.4-1-4.1-2.2-5.1-3.6s-1.9-3.9-2.2-6.5
		c-0.2-1.7-0.5-5.5-0.5-11.3v-26.8h-7.7V93.6h7.7V82L93,72.4v21.2L104.2,93.6L104.2,93.6z M111,123c0-5.1,1.4-10.4,3.9-15.2
		c2.4-5.1,6.3-9.2,11.1-11.6c4.8-2.7,10.4-4.1,16.2-4.1c9.2,0,16.9,3.1,22.7,8.9c5.8,6,8.9,13.7,8.9,22.9s-3.1,16.9-8.9,22.7
		c-5.8,6-13.5,9.2-22.4,9.2c-5.5,0-11.1-1.2-15.9-3.6c-5.1-2.4-9.2-6.3-11.6-11.1c-2.4-4.8-3.9-11.1-3.9-17.8V123L111,123L111,123z
		 M126.9,124c0,6,1.4,10.8,4.1,14c2.9,3.1,6.5,4.8,10.8,4.8c4.1,0,7.7-1.7,10.6-4.8c2.9-3.1,4.3-8,4.3-14c0-5.8-1.4-10.6-4.3-13.7
		c-2.9-3.4-6.5-5.1-10.6-5.1c-4.3,0-8,1.7-10.6,4.8C128.3,113.4,126.9,118.2,126.9,124L126.9,124z M202.3,154.4h-15.9V93.7h15.4v8.7
		c2.4-3.9,4.6-6.7,6.5-8c1.9-1.4,4.3-2.2,6.7-2.2c3.4,0,7,1.2,10.4,3.1l-5.1,14c-2.7-1.7-5.3-2.7-7.5-2.7s-4.1,0.7-5.5,1.9
		s-2.9,3.6-3.6,6.7c-1,3.1-1.4,10.1-1.4,20.5V154.4L202.3,154.4z M286.9,154.4H271v-30.9c0-6.3-0.5-10.6-1-12.5
		c-0.7-1.9-1.9-3.6-3.4-4.6c-1.4-1-3.6-1.7-5.8-1.7c-2.7,0-5.3,0.7-7.2,2.2c-2.2,1.4-3.9,3.9-4.6,6.3s-1.2,7.2-1.2,14v27.2h-15.9
		V93.7h15.4v9.2c5.1-7,11.8-10.6,19.5-10.6c3.4,0,6.5,0.7,9.4,1.9s5.1,2.9,6.5,4.8s2.7,4.3,3.1,6.7c0.5,2.4,1,6.3,1,11.1v37.6H286.9
		z M315.6,112.4l-14.5-1.9c1.4-6,4.1-10.8,8-13.7s9.9-4.6,17.6-4.6c7,0,12.3,1,15.7,2.7c3.4,1.7,5.8,4.1,7.2,6.5
		c1.4,2.4,2.2,7.5,2.2,14.5v18.8c0,5.3,0.2,9.2,0.7,11.6s1.9,5.3,3.6,8.2h-15.9c-0.5-1-1.2-2.7-1.7-4.6c-0.2-0.7-0.5-1.4-0.5-1.7
		c-2.7,2.4-5.8,4.6-8.7,5.8c-3.1,1.2-6.7,1.9-10.1,1.9c-6.3,0-11.3-1.7-14.7-5.1c-3.4-3.4-5.3-7.7-5.3-12.8c0-3.4,0.7-6.5,2.2-9.2
		c1.4-2.7,3.9-4.8,6.7-6.3c2.9-1.4,7.2-2.7,12.5-3.6c7.2-1.4,12.3-2.9,15.2-4.1v-1.4c0-2.9-0.7-5.3-2.2-6.5
		c-1.4-1.4-4.3-2.2-8.2-2.2c-2.6,0-4.8,0.7-6.3,1.7C317.8,107.6,316.3,109.8,315.6,112.4L315.6,112.4z M335.8,125.4
		c-1.9,0.7-5.3,1.7-9.4,2.7c-4.3,1-7.2,1.9-8.4,2.7c-1.9,1.4-2.9,3.6-2.9,5.8c0,2.2,0.7,4.3,2.2,5.8c1.4,1.4,3.9,2.4,6.3,2.4
		c2.7,0,5.5-1,8-2.7c1.7-1.4,3.1-3.4,3.6-5.5c0.5-1.2,0.7-3.9,0.7-7.7v-3.5L335.8,125.4L335.8,125.4z M423.6,154.4h-15.9v-30.9
		c0-6.3-0.5-10.6-1-12.5c-0.7-1.9-1.9-3.6-3.4-4.6c-1.4-1-3.6-1.7-5.8-1.7c-2.6,0-5.3,0.7-7.2,2.2c-2.2,1.4-3.9,3.9-4.6,6.3
		s-1.2,7.2-1.2,14v27.2h-15.9V93.7H384v9.2c5.1-7,11.8-10.6,19.5-10.6c3.4,0,6.5,0.7,9.4,1.9c2.9,1.2,5.1,2.9,6.5,4.8
		c1.5,1.9,2.7,4.3,3.1,6.7c0.5,2.4,1,6.3,1,11.1v37.6H423.6z M468.7,93.6v12.5h-11.1v24.8c0,4.8,0.2,8,0.2,8.7s0.7,1.4,1.2,1.9
		c0.7,0.5,1.9,0.7,2.9,0.7c1.4,0,3.6-0.5,6.5-1.4l1.2,12.5c-3.6,1.4-8,2.4-12.5,2.4c-2.9,0-5.5-0.5-7.7-1.4c-2.4-1-4.1-2.2-5.1-3.6
		s-1.9-3.9-2.2-6.5c-0.2-1.7-0.5-5.5-0.5-11.3v-26.8h-7.7V93.6h7.7V82l15.9-9.6v21.2L468.7,93.6L468.7,93.6z M514.9,135.1l15.9,1.9
		c-1.9,6.3-5.5,11.1-9.9,14c-4.3,3.1-10.1,4.8-16.6,4.8c-10.6,0-18.6-3.6-23.6-10.4c-3.9-5.3-5.8-12.5-5.8-21
		c0-9.9,2.6-17.8,7.7-23.6c5.3-5.8,12.1-8.7,20-8.7c9.2,0,16.4,3.1,21.5,8.9c5.3,5.8,7.7,15.2,7.7,27.2h-41c0,4.8,1.4,8.7,3.9,11.1
		c2.4,2.4,5.8,3.9,9.6,3.9c2.4,0,4.8-0.7,6.5-1.9C512.5,140.1,514,138,514.9,135.1L514.9,135.1z M515.9,118.7c0-4.3-1.4-8-3.9-10.4
		c-2.4-2.4-5.3-3.6-8.7-3.6s-6.5,1.4-8.9,3.9c-2.4,2.4-3.4,6-3.4,10.1H515.9L515.9,118.7z"/>
	<g>
		<path d="M763.4,152.5h-17l-6.8-17.6h-30.9l-6.4,17.6h-16.6l30.1-77.3h16.5L763.4,152.5z M734.7,121.9L724,93.2l-10.4,28.7H734.7z"
			/>
	</g>
	<g>
		<path d="M693.9,369.6h30.9c6.1,0,10.7,0.3,13.7,0.8s5.7,1.6,8.1,3.2s4.4,3.8,5.9,6.5s2.4,5.7,2.4,9c0,3.6-1,6.9-2.9,10
			s-4.6,5.3-7.9,6.8c4.7,1.4,8.3,3.7,10.9,7s3.8,7.2,3.8,11.7c0,3.5-0.8,6.9-2.5,10.3s-3.9,6-6.7,8s-6.3,3.2-10.5,3.7
			c-2.6,0.3-8.9,0.5-18.8,0.5H694v-77.5L693.9,369.6L693.9,369.6z M709.6,382.5v17.9h10.2c6.1,0,9.9-0.1,11.3-0.3
			c2.7-0.3,4.8-1.2,6.3-2.8s2.3-3.5,2.3-6c0-2.4-0.7-4.3-2-5.8s-3.3-2.4-5.9-2.7c-1.5-0.2-6-0.3-13.3-0.3L709.6,382.5L709.6,382.5z
			 M709.6,413.2v20.7H724c5.6,0,9.2-0.2,10.7-0.5c2.3-0.4,4.2-1.5,5.7-3.1s2.2-3.8,2.2-6.6c0-2.3-0.6-4.3-1.7-5.9
			c-1.1-1.6-2.8-2.8-4.9-3.5c-2.1-0.7-6.7-1.1-13.8-1.1L709.6,413.2L709.6,413.2z"/>
	</g>
</g>
</svg>
