<?xml version="1.0" encoding="utf-8"?>
<!-- Generator: Adobe Illustrator 19.2.0, SVG Export Plug-In . SVG Version: 6.00 Build 0)  -->
<svg version="1.1" id="Livello_1" xmlns="http://www.w3.org/2000/svg" xmlns:xlink="http://www.w3.org/1999/xlink" x="0px" y="0px"
	 viewBox="0 0 960 960" style="enable-background:new 0 0 960 960;" xml:space="preserve">
<style type="text/css">
	.st0{opacity:1.000000e-002;fill:#FFFFFF;}
	.st1{fill:#FFFFFF;stroke:#1A171B;stroke-width:1.1837;stroke-miterlimit:2.6131;}
	.st2{fill:none;stroke:#1A171B;stroke-width:7.8916;stroke-miterlimit:2.6131;}
	.st3{fill-rule:evenodd;clip-rule:evenodd;fill:#1A171B;}
</style>
<rect class="st0" width="1" height="1"/>
<rect x="959" y="959" class="st0" width="1" height="1"/>
<polygon class="st1" points="180,366.5 780,366.5 780,593.5 180,593.5 180,366.5 "/>
<path class="st2" d="M225.9,382.8h508.1c16.3,0,29.7,13.3,29.7,29.7v135.3c0,16.3-13.3,29.7-29.7,29.7H225.9
	c-16.3,0-29.7-13.3-29.7-29.7V412.4C196.3,396.1,209.6,382.8,225.9,382.8L225.9,382.8z"/>
<path class="st3" d="M283.6,459.5V472h-11.1v24.8c0,4.8,0.2,8,0.2,8.7c0,0.7,0.7,1.4,1.2,1.9c0.7,0.5,1.9,0.7,2.9,0.7
	c1.4,0,3.6-0.5,6.5-1.4l1.2,12.5c-3.6,1.4-8,2.4-12.5,2.4c-2.9,0-5.5-0.5-7.7-1.4c-2.4-1-4.1-2.2-5.1-3.6c-1-1.4-1.9-3.9-2.2-6.5
	c-0.2-1.7-0.5-5.5-0.5-11.3V472h-7.7v-12.5h7.7v-11.6l15.9-9.6v21.2H283.6L283.6,459.5z M290.3,488.9c0-5.1,1.4-10.4,3.9-15.2
	c2.4-5.1,6.3-9.2,11.1-11.6c4.8-2.7,10.4-4.1,16.2-4.1c9.2,0,16.9,3.1,22.7,8.9c5.8,6,8.9,13.7,8.9,22.9s-3.1,16.9-8.9,22.7
	c-5.8,6-13.5,9.2-22.4,9.2c-5.5,0-11.1-1.2-15.9-3.6c-5.1-2.4-9.2-6.3-11.6-11.1c-2.4-4.8-3.9-11.1-3.9-17.8V488.9L290.3,488.9z
	 M306.2,489.9c0,6,1.4,10.8,4.1,14c2.9,3.1,6.5,4.8,10.8,4.8c4.1,0,7.7-1.7,10.6-4.8c2.9-3.1,4.3-8,4.3-14c0-5.8-1.4-10.6-4.3-13.7
	c-2.9-3.4-6.5-5.1-10.6-5.1c-4.3,0-8,1.7-10.6,4.8C307.7,479.3,306.2,484.1,306.2,489.9L306.2,489.9z M381.7,520.3h-15.9v-60.7h15.4
	v8.7c2.4-3.9,4.6-6.7,6.5-8c1.9-1.4,4.3-2.2,6.7-2.2c3.4,0,7,1.2,10.4,3.1l-5.1,14c-2.7-1.7-5.3-2.7-7.5-2.7c-2.2,0-4.1,0.7-5.5,1.9
	c-1.4,1.2-2.9,3.6-3.6,6.7c-1,3.1-1.4,10.1-1.4,20.5V520.3L381.7,520.3z M466.3,520.3h-15.9v-30.9c0-6.3-0.5-10.6-1-12.5
	c-0.7-1.9-1.9-3.6-3.4-4.6c-1.4-1-3.6-1.7-5.8-1.7c-2.7,0-5.3,0.7-7.2,2.2c-2.2,1.4-3.9,3.9-4.6,6.3c-0.7,2.4-1.2,7.2-1.2,14v27.2
	h-15.9v-60.7h15.4v9.2c5.1-7,11.8-10.6,19.5-10.6c3.4,0,6.5,0.7,9.4,1.9c2.9,1.2,5.1,2.9,6.5,4.8c1.4,1.9,2.7,4.3,3.1,6.7
	c0.5,2.4,1,6.3,1,11.1V520.3L466.3,520.3z M494.9,478.3l-14.5-1.9c1.4-6,4.1-10.8,8-13.7c3.9-2.9,9.9-4.6,17.6-4.6
	c7,0,12.3,1,15.7,2.7c3.4,1.7,5.8,4.1,7.2,6.5c1.4,2.4,2.2,7.5,2.2,14.5v18.8c0,5.3,0.2,9.2,0.7,11.6c0.5,2.4,1.9,5.3,3.6,8.2h-15.9
	c-0.5-1-1.2-2.7-1.7-4.6c-0.2-0.7-0.5-1.4-0.5-1.7c-2.7,2.4-5.8,4.6-8.7,5.8c-3.1,1.2-6.7,1.9-10.1,1.9c-6.3,0-11.3-1.7-14.7-5.1
	c-3.4-3.4-5.3-7.7-5.3-12.8c0-3.4,0.7-6.5,2.2-9.2c1.4-2.7,3.9-4.8,6.7-6.3c2.9-1.4,7.2-2.7,12.5-3.6c7.2-1.4,12.3-2.9,15.2-4.1
	v-1.4c0-2.9-0.7-5.3-2.2-6.5c-1.4-1.4-4.3-2.2-8.2-2.2c-2.6,0-4.8,0.7-6.3,1.7C497.1,473.5,495.7,475.7,494.9,478.3L494.9,478.3z
	 M515.2,491.3c-1.9,0.7-5.3,1.7-9.4,2.7c-4.3,1-7.2,1.9-8.4,2.7c-1.9,1.4-2.9,3.6-2.9,5.8c0,2.2,0.7,4.3,2.2,5.8
	c1.4,1.4,3.9,2.4,6.3,2.4c2.7,0,5.5-1,8-2.7c1.7-1.4,3.1-3.4,3.6-5.5c0.5-1.2,0.7-3.9,0.7-7.7V491.3L515.2,491.3z M602.9,520.3H587
	v-30.9c0-6.3-0.5-10.6-1-12.5c-0.7-1.9-1.9-3.6-3.4-4.6c-1.4-1-3.6-1.7-5.8-1.7c-2.6,0-5.3,0.7-7.2,2.2c-2.2,1.4-3.9,3.9-4.6,6.3
	c-0.7,2.4-1.2,7.2-1.2,14v27.2H548v-60.7h15.4v9.2c5.1-7,11.8-10.6,19.5-10.6c3.4,0,6.5,0.7,9.4,1.9c2.9,1.2,5.1,2.9,6.5,4.8
	c1.5,1.9,2.7,4.3,3.1,6.7c0.5,2.4,1,6.3,1,11.1V520.3L602.9,520.3z M648,459.5V472h-11.1v24.8c0,4.8,0.2,8,0.2,8.7
	c0,0.7,0.7,1.4,1.2,1.9c0.7,0.5,1.9,0.7,2.9,0.7c1.4,0,3.6-0.5,6.5-1.4l1.2,12.5c-3.6,1.4-8,2.4-12.5,2.4c-2.9,0-5.5-0.5-7.7-1.4
	c-2.4-1-4.1-2.2-5.1-3.6c-1-1.4-1.9-3.9-2.2-6.5c-0.2-1.7-0.5-5.5-0.5-11.3V472h-7.7v-12.5h7.7v-11.6l15.9-9.6v21.2H648L648,459.5z
	 M694.3,501l15.9,1.9c-1.9,6.3-5.5,11.1-9.9,14c-4.3,3.1-10.1,4.8-16.6,4.8c-10.6,0-18.6-3.6-23.6-10.4c-3.9-5.3-5.8-12.5-5.8-21
	c0-9.9,2.6-17.8,7.7-23.6c5.3-5.8,12.1-8.7,20-8.7c9.2,0,16.4,3.1,21.5,8.9c5.3,5.8,7.7,15.2,7.7,27.2h-41c0,4.8,1.4,8.7,3.9,11.1
	c2.4,2.4,5.8,3.9,9.6,3.9c2.4,0,4.8-0.7,6.5-1.9C691.9,506,693.3,503.9,694.3,501L694.3,501z M695.2,484.6c0-4.3-1.4-8-3.9-10.4
	c-2.4-2.4-5.3-3.6-8.7-3.6s-6.5,1.4-8.9,3.9c-2.4,2.4-3.4,6-3.4,10.1H695.2L695.2,484.6z"/>
</svg>
