<?xml version="1.0" encoding="utf-8"?>
<!-- Generator: Adobe Illustrator 19.2.0, SVG Export Plug-In . SVG Version: 6.00 Build 0)  -->
<svg version="1.1" id="Livello_1" xmlns="http://www.w3.org/2000/svg" xmlns:xlink="http://www.w3.org/1999/xlink" x="0px" y="0px"
	 viewBox="0 0 605 602" style="enable-background:new 0 0 605 602;" xml:space="preserve">
<style type="text/css">
	.st0{fill:#FFFFFF;stroke:#1A171B;stroke-width:1.1815;stroke-miterlimit:2.6131;}
	.st1{fill:none;stroke:#1A171B;stroke-width:11.8147;stroke-miterlimit:2.6131;}
	.st2{fill:#1A171B;stroke:#1A171B;stroke-width:1.1815;stroke-miterlimit:2.6131;}
	.st3{fill:#FFFFFF;stroke:#FFFFFF;stroke-width:1.1815;stroke-miterlimit:2.6131;}
	.st4{fill:#1A171B;}
</style>
<g>
	<g>
		<polygon class="st0" points="2.5,2.7 602.5,2.7 602.5,599.3 2.5,599.3 		"/>
		<path class="st1" d="M53.3,20.3h499.3c18.3,0,33.2,14.9,33.2,33.2v496.1c0,18.3-14.9,33.2-33.2,33.2H53.3
			c-18.3,0-33.2-14.9-33.2-33.2V53.5C20.1,35.2,35.1,20.3,53.3,20.3L53.3,20.3z"/>
		<path class="st2" d="M249.5,499l-0.2-38.6H152v-38.6l44.1-72.5H280V469l38-0.2c-1.8,4.3-0.7,7.3-0.9,10.2l0.2,20L249.5,499
			L249.5,499z"/>
		<path class="st2" d="M402.8,498.5l0.2-20c0-3.4-0.5-6.6-1.8-9.8l50.7,0.2v14.6L402.8,498.5L402.8,498.5z"/>
		<path class="st2" d="M287.7,460.3V349.2h164.1v111.2h-53c-19.6-31.1-62.3-29.6-78.2,0h-32.9L287.7,460.3L287.7,460.3z"/>
		<polygon class="st3" points="163.6,421.7 200.4,360.3 270.4,360.3 270.7,421.7 		"/>
		<path class="st2" d="M360.2,464.3c-9.5,0-17.3,7.8-17.3,17.3s7.8,17.3,17.3,17.3s17.3-7.8,17.3-17.3S369.7,464.3,360.2,464.3
			L360.2,464.3z M360.2,445.4c20,0,36.3,16.2,36.3,36.3c0,20-16.2,36.3-36.3,36.3c-20,0-36.3-16.2-36.3-36.3
			C323.9,461.6,340.1,445.4,360.2,445.4L360.2,445.4z"/>
		<path class="st2" d="M222.7,342l4.5-18c2.3-9.2,17.8-10.6,20.5,0l4.5,18H222.7L222.7,342z"/>
		<polygon class="st2" points="242,468.6 134.2,468.6 134.2,487.6 242,487.6 		"/>
		<polygon class="st2" points="233.7,494.9 242.1,494.9 242.1,508 245.6,517.2 237.3,517.2 233.7,508 		"/>
		<polygon class="st2" points="142.9,494.9 134.5,494.9 134.5,508 130.9,517.2 139.3,517.2 142.9,508 		"/>
		<polygon class="st2" points="217.1,494.9 225.5,494.9 225.5,508 227.6,517.2 219.2,517.2 217.1,508 		"/>
		<polygon class="st2" points="159.5,494.9 151.1,494.9 151.1,508 149,517.2 157.4,517.2 159.5,508 		"/>
		<polygon class="st2" points="200.8,494.9 209.2,494.9 209.2,508 209.2,517.2 200.8,517.2 200.8,508 		"/>
		<polygon class="st2" points="184,494.9 192.4,494.9 192.4,508 192.4,517.2 184,517.2 184,508 		"/>
		<polygon class="st2" points="167.6,494.9 176,494.9 176,508 176,517.2 167.6,517.2 167.6,508 		"/>
		<path class="st4" d="M110.5,143.2V82.7h11.3V133h28.3v10.1h-39.6V143.2z M184.4,143.2v-6.5c-1.4,2.3-3.5,4.2-5.8,5.4
			c-2.3,1.4-4.8,2.1-7.4,2.1s-5.1-0.7-7.2-1.9c-2.1-1.2-3.7-3.1-4.5-5.4c-1-2.3-1.4-5.6-1.4-9.8v-28h10.6v20.3
			c0,6.1,0.2,10,0.5,11.4s1.1,2.4,2.1,3.1s2.4,1.2,4,1.2c1.8,0,3.5-0.5,5-1.6c1.4-1,2.6-2.4,3.1-4s0.8-5.6,0.8-11.9V99.1h10.6v44
			L184.4,143.2L184.4,143.2z M242.5,143.2h-10.6v-22.4c0-4.5-0.3-7.7-0.6-9.1c-0.5-1.4-1.3-2.6-2.2-3.3c-1-0.7-2.4-1.2-3.9-1.2
			c-1.8,0-3.5,0.5-4.8,1.6c-1.5,1-2.6,2.8-3.1,4.5s-0.8,5.2-0.8,10.1v19.7h-10.6v-44h10.3v6.6c3.4-5.1,7.9-7.7,13-7.7
			c2.3,0,4.3,0.5,6.3,1.4c1.9,0.9,3.4,2.1,4.3,3.5c1,1.4,1.8,3.1,2.1,4.9c0.3,1.7,0.6,4.5,0.6,8L242.5,143.2L242.5,143.2z
			 M295.4,127.2v-11.5h21.2v11.5H295.4L295.4,127.2z M380.5,143.2L361,82.4h11.9l14,45.1l13.8-45.1h12.1l-20.3,60.8H380.5
			L380.5,143.2z M438.1,129.3l10.6,1.4c-1.3,4.5-3.7,8-6.6,10.1c-2.9,2.3-6.8,3.5-11.1,3.5c-7.1,0-12.4-2.6-15.8-7.5
			c-2.6-3.8-3.9-9.1-3.9-15.2c0-7.2,1.8-12.9,5.1-17.1c3.5-4.2,8-6.3,13.4-6.3c6.1,0,10.9,2.3,14.3,6.5c3.5,4.2,5.1,11,5.1,19.7
			h-27.3c0,3.5,1,6.3,2.6,8s3.9,2.8,6.4,2.8c1.6,0,3.2-0.5,4.3-1.4C436.5,132.9,437.4,131.4,438.1,129.3L438.1,129.3z M438.7,117.4
			c0-3.1-1-5.8-2.6-7.5s-3.5-2.6-5.8-2.6s-4.3,1-6,2.8c-1.6,1.7-2.2,4.4-2.2,7.3H438.7L438.7,117.4z M494.4,143.2h-10.6v-22.4
			c0-4.5-0.3-7.7-0.6-9.1c-0.5-1.4-1.3-2.6-2.3-3.3s-2.4-1.2-3.9-1.2c-1.8,0-3.5,0.5-4.8,1.6c-1.4,1-2.6,2.8-3.1,4.5
			s-0.8,5.2-0.8,10.1v19.7h-10.6v-44H468v6.6c3.4-5.1,7.9-7.7,13-7.7c2.2,0,4.3,0.5,6.3,1.4c1.9,0.9,3.4,2.1,4.3,3.5
			c1,1.4,1.8,3.1,2.1,4.9c0.3,1.7,0.6,4.5,0.6,8L494.4,143.2L494.4,143.2z"/>
		<path class="st4" d="M151.5,225.2v9.5h-31.9c0.4-3.2,1.6-6.7,3.2-9.8c1.6-3.1,5.1-7.9,10.2-13c3.9-4.3,6.7-7.1,7.5-9.1
			c1.2-2.4,2-3.9,2-6.3s-0.4-4.3-1.6-5.5c-1.2-1.6-2.8-2-4.7-2c-2,0-3.5,0.4-4.7,2c-1.2,1.2-2,3.5-2,6.3l-8.7-0.8
			c0.4-5.5,2.4-9.8,4.7-12.6c3.1-2.4,6.7-3.5,10.6-3.5c4.7,0,8.7,1.2,11,4.7c2.8,2.8,4.3,6.3,4.3,10.2c0,2.8-0.4,5.1-1.2,7.1
			c-0.8,2.4-2.4,5.1-3.9,7.1c-0.8,1.6-3.2,3.9-5.9,7.1c-3.2,2.8-4.7,5.1-5.5,5.9s-1.6,2-2,2.8h18.6V225.2z"/>
		<path class="st4" d="M179.9,234.6h-9.1v-39.4c-3.1,3.9-7.1,6.7-11.4,7.9V194c2.4-0.8,4.7-2.4,7.5-5.1c2.8-2.4,4.7-5.5,5.9-8.7h7.1
			V234.6L179.9,234.6z"/>
		<path class="st4" d="M218.9,193.3c3.6,0,6.2,1.5,8,4.4c2.4,3.3,3.6,8.9,3.6,16.6c0,8-1.2,13.3-3.6,16.9c-1.8,2.4-4.4,3.8-8,3.8
			s-6.2-1.5-8.3-4.4c-2.1-3.3-3.3-8.6-3.3-16.3c0-8,1.2-13.3,3.6-16.9C212.6,194.7,215.3,193.3,218.9,193.3L218.9,193.3z
			 M218.9,199.8c-0.9,0-1.5,0.3-2.1,1.2c-0.6,0.6-1.5,1.5-1.8,3c-0.3,2.1-0.6,5.6-0.6,10.4c0,4.7,0.3,8.3,0.6,9.8
			c0.3,2.1,0.9,3,1.5,3.6c0.6,0.3,1.5,0.9,2.4,0.9s1.5-0.6,2.1-0.9c0.6-0.6,1.2-1.5,1.8-3.3c0.3-1.8,0.6-5.3,0.6-10.1
			c0-4.7-0.3-8-0.6-10.1c-0.3-1.8-0.9-2.7-1.5-3.3C220.6,200.1,219.7,199.8,218.9,199.8L218.9,199.8z M246.1,193.3
			c3.6,0,6.2,1.5,8,4.4c2.4,3.3,3.6,8.9,3.6,16.6c0,8-1.2,13.3-3.6,16.9c-1.8,2.4-4.4,3.8-8,3.8c-3.3,0-6.2-1.5-8.3-4.4
			c-2.1-3.3-3.3-8.6-3.3-16.3c0-8,1.2-13.3,3.6-16.9C239.9,194.7,242.8,193.3,246.1,193.3L246.1,193.3z M246.1,199.8
			c-0.9,0-1.5,0.3-2.1,1.2c-0.6,0.6-1.2,1.5-1.5,3c-0.6,2.1-0.9,5.6-0.9,10.4c0,4.7,0.3,8.3,0.6,9.8c0.6,2.1,0.9,3,1.5,3.6
			c0.6,0.3,1.5,0.9,2.4,0.9s1.5-0.6,2.1-0.9c0.6-0.6,1.2-1.5,1.8-3.3c0.3-1.8,0.6-5.3,0.6-10.1c0-4.7,0-8-0.6-10.1
			c-0.3-1.8-0.9-2.7-1.5-3.3C247.9,200.1,247,199.8,246.1,199.8L246.1,199.8z"/>
		<path class="st4" d="M447.3,193.3c3.6,0,6.2,1.5,8,4.4c2.4,3.3,3.6,8.9,3.6,16.6c0,8-1.2,13.3-3.6,16.9c-1.8,2.4-4.4,3.8-8,3.8
			s-6.2-1.5-8.3-4.4c-2.1-3.3-3.3-8.6-3.3-16.3c0-8,1.2-13.3,3.6-16.9C441.1,194.7,443.7,193.3,447.3,193.3L447.3,193.3z
			 M447.3,199.8c-0.9,0-1.5,0.3-2.1,1.2c-0.6,0.6-1.5,1.5-1.8,3c-0.3,2.1-0.6,5.6-0.6,10.4c0,4.7,0.3,8.3,0.6,9.8
			c0.3,2.1,0.9,3,1.5,3.6c0.6,0.3,1.5,0.9,2.4,0.9s1.5-0.6,2.1-0.9c0.6-0.6,1.2-1.5,1.8-3.3c0.3-1.8,0.6-5.3,0.6-10.1
			c0-4.7-0.3-8-0.6-10.1c-0.3-1.8-0.9-2.7-1.5-3.3C449,200.1,448.2,199.8,447.3,199.8L447.3,199.8z M474.5,193.3
			c3.6,0,6.2,1.5,8,4.4c2.4,3.3,3.6,8.9,3.6,16.6c0,8-1.2,13.3-3.6,16.9c-1.8,2.4-4.4,3.8-8,3.8c-3.3,0-6.2-1.5-8.3-4.4
			c-2.1-3.3-3.3-8.6-3.3-16.3c0-8,1.2-13.3,3.6-16.9C468.3,194.7,471.3,193.3,474.5,193.3L474.5,193.3z M474.5,199.8
			c-0.9,0-1.5,0.3-2.1,1.2c-0.6,0.6-1.2,1.5-1.5,3c-0.6,2.1-0.9,5.6-0.9,10.4c0,4.7,0.3,8.3,0.6,9.8c0.6,2.1,0.9,3,1.5,3.6
			c0.6,0.3,1.5,0.9,2.4,0.9s1.5-0.6,2.1-0.9c0.6-0.6,1.2-1.5,1.8-3.3c0.3-1.8,0.6-5.3,0.6-10.1c0-4.7,0-8-0.6-10.1
			c-0.3-1.8-0.9-2.7-1.5-3.3C476.3,200.1,475.4,199.8,474.5,199.8L474.5,199.8z"/>
		<polygon class="st4" points="302.7,220.4 302.7,210.6 320.5,210.6 320.5,220.4 		"/>
		<path class="st4" d="M395.7,234.6v-10.2h-18.9v-9.5l19.7-34.7h7.9v34.7h5.9v9.5h-5.9v10.2H395.7L395.7,234.6z M395.7,214.9v-18.1
			l-10.6,18.1H395.7L395.7,214.9z"/>
		<path class="st4" d="M421.1,234.5c-0.9-0.3-1.6-0.8-2.1-1.6c-0.5-0.8-0.8-1.7-0.8-2.8c0-1.4,0.5-2.6,1.5-3.6s2.2-1.5,3.6-1.5
			c1.6,0,3,0.6,3.9,1.7c1,1.1,1.5,2.6,1.5,4.5c0,3-1,5.6-3,7.9s-4.6,3.6-7.8,4.2v-1.7c1-1.1,1.8-2.3,2.3-3.4s0.8-2.2,0.8-3.3
			L421.1,234.5L421.1,234.5z"/>
		<path class="st4" d="M193.1,234.5c-0.9-0.3-1.6-0.8-2.1-1.6c-0.5-0.8-0.8-1.7-0.8-2.8c0-1.4,0.5-2.6,1.5-3.6s2.2-1.5,3.6-1.5
			c1.7,0,3,0.6,3.9,1.7c1,1.1,1.5,2.6,1.5,4.5c0,3-1,5.6-3,7.9s-4.6,3.6-7.8,4.2v-1.7c1-1.1,1.8-2.3,2.3-3.4s0.8-2.2,0.8-3.3v-0.4
			L193.1,234.5L193.1,234.5z"/>
	</g>
</g>
</svg>
