<?xml version="1.0" encoding="utf-8"?>
<!-- Generator: Adobe Illustrator 19.2.0, SVG Export Plug-In . SVG Version: 6.00 Build 0)  -->
<svg version="1.1" id="Livello_1" xmlns="http://www.w3.org/2000/svg" xmlns:xlink="http://www.w3.org/1999/xlink" x="0px" y="0px"
	 viewBox="0 0 839.3 723.6" style="enable-background:new 0 0 839.3 723.6;" xml:space="preserve">
<style type="text/css">
	.st0{fill:#FFFFFF;stroke:#1A171B;stroke-width:0.6426;stroke-miterlimit:2.6131;}
	.st1{fill:none;stroke:#1A171B;stroke-width:6.4264;stroke-miterlimit:2.6131;}
	.st2{fill:#1A171B;stroke:#1A171B;stroke-width:0.6426;stroke-miterlimit:2.6131;}
</style>
<g>
	<g>
		<polygon class="st0" points="398,397.5 724.3,397.5 724.3,722.1 398,722.1 		"/>
		<path class="st1" d="M425.6,407.1h271.6c9.9,0,18.1,8.1,18.1,18.1v269.9c0,9.9-8.1,18.1-18.1,18.1H425.6
			c-9.9,0-18.1-8.1-18.1-18.1V425.2C407.6,415.2,415.7,407.1,425.6,407.1L425.6,407.1z"/>
		<path class="st2" d="M507.9,693.9v-83.3c0-60.9,45.3-105.9,106.2-106l82.6-0.1l-0.2,47.3h-82.4c-35.3,0-58.9,25.6-58.9,58.9v83.4
			L507.9,693.9L507.9,693.9z"/>
		<polygon class="st2" points="427,444 446.5,424.5 537,515 517.5,534.5 		"/>
		<polygon class="st0" points="398,2.1 724.4,2.1 724.4,326.7 398,326.7 		"/>
		<path class="st1" d="M425.7,11.7h271.6c9.9,0,18.1,8.1,18.1,18.1v269.9c0,9.9-8.1,18.1-18.1,18.1H425.7c-9.9,0-18.1-8.1-18.1-18.1
			v-270C407.6,19.8,415.7,11.7,425.7,11.7L425.7,11.7z"/>
		<path class="st2" d="M526.8,297.8v-74.3c0-54.9,40.9-95.6,95.8-95.7l73.9-0.1l-0.1,42.6h-73.8c-31.8,0-53.2,23.1-53.2,53.2V298
			L526.8,297.8L526.8,297.8z"/>
		<polygon class="st2" points="426.1,161.6 426.1,136.8 526.2,136.8 526.2,161.6 		"/>
		<polygon class="st2" points="535.1,30.3 559.9,30.3 559.9,128.1 535.1,128.1 		"/>
		<polygon class="st0" points="0.9,397.5 327.2,397.5 327.2,722.1 0.9,722.1 		"/>
		<path class="st1" d="M28.5,407.1h271.6c9.9,0,18.1,8.1,18.1,18.1v269.9c0,9.9-8.1,18.1-18.1,18.1H28.5c-9.9,0-18.1-8.1-18.1-18.1
			V425.2C10.5,415.3,18.6,407.1,28.5,407.1L28.5,407.1z"/>
		<polygon class="st2" points="29,539.6 29,514.8 127.3,514.8 127.3,539.6 		"/>
		<polygon class="st2" points="201.8,608.7 201.8,583.9 299.2,583.9 299.2,608.7 		"/>
		<polygon class="st2" points="143.2,694 185.7,694 185.7,425.4 143.2,425.4 		"/>
	</g>
</g>
<g>
	<path d="M821.3,447.7l15.1,4.8c-2.3,8.4-6.2,14.7-11.6,18.8c-5.4,4.1-12.2,6.1-20.5,6.1c-10.3,0-18.7-3.5-25.3-10.5
		s-9.9-16.6-9.9-28.8c0-12.9,3.3-22.9,10-30s15.4-10.7,26.2-10.7c9.5,0,17.1,2.8,23,8.4c3.5,3.3,6.2,8.1,7.9,14.2l-15.5,3.7
		c-0.9-4-2.8-7.2-5.7-9.5s-6.4-3.5-10.6-3.5c-5.7,0-10.4,2.1-13.9,6.2c-3.6,4.1-5.4,10.8-5.4,20c0,9.8,1.8,16.7,5.3,20.9
		c3.5,4.1,8.1,6.2,13.7,6.2c4.1,0,7.7-1.3,10.7-4C817.8,457.5,820,453.4,821.3,447.7z"/>
</g>
<g>
	<path d="M78.4,363.8h-17l-6.8-17.6H23.8l-6.4,17.6H0.8l30.1-77.3h16.5L78.4,363.8z M49.7,333.2L39,304.5l-10.4,28.7H49.7z"/>
</g>
<g>
	<path d="M772,1.5h30.9c6.1,0,10.7,0.3,13.7,0.8s5.7,1.6,8.1,3.2s4.4,3.8,5.9,6.5s2.4,5.7,2.4,9c0,3.6-1,6.9-2.9,10
		s-4.6,5.3-7.9,6.8c4.7,1.4,8.3,3.7,10.9,7s3.8,7.2,3.8,11.7c0,3.5-0.8,6.9-2.5,10.3s-3.9,6-6.7,8s-6.3,3.2-10.5,3.7
		c-2.6,0.3-8.9,0.5-18.8,0.5h-26.3V1.5H772z M787.7,14.4v17.9h10.2c6.1,0,9.9-0.1,11.3-0.3c2.7-0.3,4.8-1.2,6.3-2.8s2.3-3.5,2.3-6
		c0-2.4-0.7-4.3-2-5.8s-3.3-2.4-5.9-2.7c-1.5-0.2-6-0.3-13.3-0.3L787.7,14.4L787.7,14.4z M787.7,45.2v20.7h14.4
		c5.6,0,9.2-0.2,10.7-0.5c2.3-0.4,4.2-1.5,5.7-3.1s2.2-3.8,2.2-6.6c0-2.3-0.6-4.3-1.7-5.9c-1.1-1.6-2.8-2.8-4.9-3.5
		c-2.1-0.7-6.7-1.1-13.8-1.1L787.7,45.2L787.7,45.2z"/>
</g>
</svg>
