<?xml version="1.0" encoding="utf-8"?>
<!-- Generator: Adobe Illustrator 19.2.0, SVG Export Plug-In . SVG Version: 6.00 Build 0)  -->
<svg version="1.1" id="Livello_1" xmlns="http://www.w3.org/2000/svg" xmlns:xlink="http://www.w3.org/1999/xlink" x="0px" y="0px"
	 viewBox="0 0 602.4 672.7" style="enable-background:new 0 0 602.4 672.7;" xml:space="preserve">
<style type="text/css">
	.st0{fill:#FFFFFF;stroke:#1A171B;stroke-width:1.1815;stroke-miterlimit:2.6131;}
	.st1{fill:none;stroke:#1A171B;stroke-width:11.8147;stroke-miterlimit:2.6131;}
	.st2{fill:#1A171B;stroke:#1A171B;stroke-width:1.1815;stroke-miterlimit:2.6131;}
</style>
<g>
	<polygon class="st0" points="1.2,72.3 601.2,72.3 601.2,668.9 1.2,668.9 	"/>
	<path class="st1" d="M52,89.9h499.3c18.3,0,33.2,14.9,33.2,33.2v496.1c0,18.3-14.9,33.2-33.2,33.2H52c-18.3,0-33.2-14.9-33.2-33.2
		V123.1C18.8,104.8,33.8,89.9,52,89.9L52,89.9z"/>
	<polygon class="st2" points="52.9,333.4 52.9,287.7 233.6,287.7 233.6,333.4 	"/>
	<polygon class="st2" points="370.6,460.6 370.6,414.9 549.7,414.9 549.7,460.6 	"/>
	<polygon class="st2" points="262.9,617.2 341.1,617.2 341.1,123.5 262.9,123.5 	"/>
</g>
</svg>
