<?xml version="1.0" encoding="utf-8"?>
<!-- Generator: Adobe Illustrator 19.2.0, SVG Export Plug-In . SVG Version: 6.00 Build 0)  -->
<svg version="1.1" id="Livello_1" xmlns="http://www.w3.org/2000/svg" xmlns:xlink="http://www.w3.org/1999/xlink" x="0px" y="0px"
	 viewBox="0 0 586.3 722.9" style="enable-background:new 0 0 586.3 722.9;" xml:space="preserve">
<style type="text/css">
	.st0{fill:#FFFFFF;stroke:#1A171B;stroke-width:0.9532;stroke-miterlimit:2.6131;}
	.st1{fill:none;stroke:#1A171B;stroke-width:9.532;stroke-miterlimit:2.6131;}
	.st2{fill:#0063A6;}
	.st3{fill:#E1001A;}
	.st4{fill:#1A171B;stroke:#1A171B;stroke-width:0.9532;stroke-miterlimit:2.6131;}
	.st5{fill:#1A171B;}
	.st6{fill:none;stroke:#1A171B;stroke-width:1.7788;stroke-miterlimit:2.6131;}
</style>
<g>
	<polygon class="st0" points="102.2,0.5 585.8,0.5 585.8,720.5 102.2,720.5 	"/>
	<path class="st1" d="M154.4,15.4h379.8c21.4,0,38.9,17.5,38.9,38.9v613.2c0,21.4-17.5,38.9-38.9,38.9H154.4
		c-21.4,0-38.9-17.5-38.9-38.9V54.3C115.6,32.9,133,15.4,154.4,15.4L154.4,15.4z"/>
	<g>
		<path class="st2" d="M429.3,243.8c9.2-14.8,14.6-32.2,14.6-50.8c0-53-43.3-96.3-96.3-96.3c-18.6,0-36,5.3-50.8,14.6L429.3,243.8z"
			/>
		<path class="st2" d="M264.9,143.6c-8.7,14.5-13.7,31.3-13.7,49.4c0,53,43.3,96.3,96.3,96.3c18,0,34.9-5,49.4-13.7L264.9,143.6z"/>
	</g>
	<path class="st3" d="M347.5,53.7c-77.4,0-140.5,63.1-140.5,140.5s63.1,140.5,140.5,140.5S488,271.6,488,194.2
		S424.9,53.7,347.5,53.7z M242.9,194.2c0-24,8.1-46.1,21.8-63.7L411.2,277c-17.7,13.6-39.8,21.8-63.7,21.8
		C289.9,298.8,242.9,251.8,242.9,194.2z M430.6,257.5L284.2,111.1c17.6-13.4,39.5-21.4,63.3-21.4c57.6,0,104.6,47,104.6,104.6
		C452.1,218,444.1,239.9,430.6,257.5z"/>
	<path class="st4" d="M427.8,658.8l0.2-15c0-2.6-0.3-4.9-1.4-7.3l38.1,0.2v10.8L427.8,658.8L427.8,658.8z"/>
	<path class="st4" d="M341.5,630.1v-83.5h123.2v83.5h-39.8c-14.7-23.4-46.8-22.2-58.7,0H341.5L341.5,630.1z"/>
	<path class="st4" d="M364.2,636.4l-28.5,0.2v-89.9h-63l-33.1,54.4v29h73l0.2,29h50.9l-0.2-15C363.6,641.9,362.8,639.7,364.2,636.4z
		 M248.3,601.1l27.6-46.1h52.6l0.2,46.1H248.3z"/>
	<path class="st4" d="M395.8,633.1c-7.1,0-13,5.9-13,13s5.9,13,13,13s13-5.9,13-13S403,633.1,395.8,633.1L395.8,633.1z M395.8,618.9
		c15,0,27.2,12.2,27.2,27.2s-12.2,27.2-27.2,27.2s-27.2-12.2-27.2-27.2C368.6,631.1,380.8,618.9,395.8,618.9L395.8,618.9z"/>
	<path class="st4" d="M292.6,541.3l3.4-13.5c1.7-6.9,13.4-8,15.4,0l3.4,13.5H292.6L292.6,541.3z"/>
	<polygon class="st4" points="307.1,636.3 226.2,636.3 226.2,650.6 307.1,650.6 	"/>
	<polygon class="st4" points="300.9,656.1 307.2,656.1 307.2,665.9 309.9,672.8 303.6,672.8 300.9,665.9 	"/>
	<polygon class="st4" points="232.7,656.1 226.4,656.1 226.4,665.9 223.7,672.8 230,672.8 232.7,665.9 	"/>
	<polygon class="st4" points="288.4,656.1 294.7,656.1 294.7,665.9 296.3,672.8 290,672.8 288.4,665.9 	"/>
	<polygon class="st4" points="245.2,656.1 238.9,656.1 238.9,665.9 237.3,672.8 243.6,672.8 245.2,665.9 	"/>
	<polygon class="st4" points="276.2,656.1 282.5,656.1 282.5,665.9 282.5,672.8 276.2,672.8 276.2,665.9 	"/>
	<polygon class="st4" points="263.6,656.1 269.9,656.1 269.9,665.9 269.9,672.8 263.6,672.8 263.6,665.9 	"/>
	<polygon class="st4" points="251.3,656.1 257.6,656.1 257.6,665.9 257.6,672.8 251.3,672.8 251.3,665.9 	"/>
	<path class="st5" d="M194.4,427.9v-47.2h8.8V420h22.1v7.9H194.4L194.4,427.9z M252,427.9v-5c-1.1,1.8-2.8,3.3-4.5,4.2
		c-1.8,1.1-3.8,1.6-5.8,1.6s-4-0.5-5.6-1.5s-2.9-2.5-3.5-4.2c-0.8-1.8-1.1-4.4-1.1-7.6v-21.8h8.3v15.8c0,4.8,0.1,7.8,0.4,8.9
		c0.3,1.1,0.9,1.9,1.6,2.5c0.8,0.5,1.9,1,3.1,1c1.4,0,2.8-0.4,3.9-1.2s2-1.9,2.4-3.1c0.4-1.2,0.6-4.4,0.6-9.3v-14.5h8.3v34.4H252
		V427.9z M297.3,427.9H289v-17.4c0-3.5-0.3-6-0.5-7.1c-0.4-1.1-1-2-1.8-2.6c-0.8-0.5-1.9-1-3-1c-1.4,0-2.8,0.4-3.8,1.2
		c-1.1,0.8-2,2.2-2.4,3.5c-0.4,1.4-0.6,4.1-0.6,7.9v15.4h-8.3v-34.4h8v5.2c2.6-4,6.1-6,10.2-6c1.8,0,3.4,0.4,4.9,1.1
		s2.6,1.6,3.4,2.7s1.4,2.5,1.6,3.8c0.3,1.4,0.5,3.5,0.5,6.3L297.3,427.9L297.3,427.9z M338.6,415.4v-9h16.6v9H338.6L338.6,415.4z
		 M405,427.9l-15.2-47.4h9.3l10.9,35.2l10.8-35.2h9.4l-15.8,47.4H405L405,427.9z M449.9,417l8.3,1.1c-1,3.5-2.9,6.3-5.1,7.9
		c-2.3,1.8-5.3,2.7-8.7,2.7c-5.5,0-9.7-2-12.3-5.9c-2-3-3-7.1-3-11.9c0-5.6,1.4-10.1,4-13.4c2.8-3.3,6.3-4.9,10.4-4.9
		c4.8,0,8.5,1.8,11.2,5c2.8,3.3,4,8.6,4,15.4h-21.3c0,2.7,0.7,4.9,2,6.3c1.3,1.4,3,2.2,5,2.2c1.3,0,2.5-0.4,3.4-1.1
		C448.7,419.9,449.4,418.6,449.9,417L449.9,417z M450.4,407.7c0-2.5-0.8-4.5-2-5.9c-1.3-1.4-2.8-2-4.5-2c-1.8,0-3.4,0.8-4.6,2.2
		c-1.3,1.4-1.8,3.4-1.8,5.7H450.4L450.4,407.7z M493.8,427.9h-8.3v-17.4c0-3.5-0.3-6-0.5-7.1c-0.4-1.1-1-2-1.8-2.6
		c-0.8-0.5-1.9-1-3-1c-1.4,0-2.8,0.4-3.8,1.2c-1.1,0.8-2,2.2-2.4,3.5c-0.4,1.4-0.6,4.1-0.6,7.9v15.4h-8.3v-34.4h8v5.2
		c2.6-4,6.1-6,10.2-6c1.8,0,3.4,0.4,4.9,1.1s2.6,1.6,3.4,2.7c0.7,1.1,1.4,2.5,1.6,3.8c0.3,1.4,0.5,3.5,0.5,6.3L493.8,427.9
		L493.8,427.9z"/>
	<path class="st5" d="M226.3,491.8v7.4h-24.9c0.3-2.5,1.2-5.2,2.5-7.7c1.2-2.5,4-6.1,8-10.1c3.1-3.4,5.2-5.5,5.8-7.1
		c0.9-1.8,1.5-3.1,1.5-4.9c0-1.8-0.3-3.4-1.2-4.3c-0.9-1.2-2.2-1.5-3.7-1.5s-2.8,0.3-3.7,1.5c-0.9,0.9-1.5,2.8-1.5,4.9l-6.8-0.6
		c0.3-4.3,1.8-7.7,3.7-9.8c2.5-1.8,5.2-2.8,8.3-2.8c3.7,0,6.8,0.9,8.6,3.7c2.2,2.2,3.4,4.9,3.4,8c0,2.2-0.3,4-0.9,5.5
		c-0.6,1.8-1.8,4-3.1,5.5c-0.6,1.2-2.5,3.1-4.6,5.5c-2.5,2.2-3.7,4-4.3,4.6c-0.6,0.6-1.2,1.5-1.5,2.2L226.3,491.8L226.3,491.8z"/>
	<path class="st5" d="M248.4,499.2h-7.1v-30.7c-2.5,3.1-5.5,5.2-8.9,6.1v-7.1c1.8-0.6,3.7-1.8,5.8-4c2.2-1.8,3.7-4.3,4.6-6.8h5.5
		v42.5H248.4z"/>
	<path class="st5" d="M278.9,466.9c2.8,0,4.9,1.2,6.2,3.5c1.8,2.5,2.8,6.9,2.8,12.9c0,6.2-0.9,10.4-2.8,13.2c-1.4,1.8-3.5,3-6.2,3
		c-2.8,0-4.9-1.2-6.5-3.5c-1.6-2.5-2.5-6.7-2.5-12.7c0-6.2,0.9-10.4,2.8-13.2C274,468.1,276.1,466.9,278.9,466.9L278.9,466.9z
		 M278.9,472c-0.7,0-1.2,0.2-1.6,0.9c-0.5,0.5-1.2,1.2-1.4,2.3c-0.2,1.6-0.5,4.4-0.5,8.1c0,3.7,0.2,6.5,0.5,7.6
		c0.2,1.6,0.7,2.3,1.2,2.8c0.5,0.2,1.2,0.7,1.8,0.7c0.7,0,1.2-0.5,1.6-0.7c0.5-0.5,0.9-1.2,1.4-2.5c0.2-1.4,0.5-4.2,0.5-7.9
		s-0.2-6.2-0.5-7.9c-0.2-1.4-0.7-2.1-1.2-2.5C280.2,472.2,279.6,472,278.9,472L278.9,472z M300.1,466.9c2.8,0,4.9,1.2,6.2,3.5
		c1.8,2.5,2.8,6.9,2.8,12.9c0,6.2-0.9,10.4-2.8,13.2c-1.4,1.8-3.5,3-6.2,3c-2.5,0-4.9-1.2-6.5-3.5c-1.6-2.5-2.5-6.7-2.5-12.7
		c0-6.2,0.9-10.4,2.8-13.2C295.3,468.1,297.6,466.9,300.1,466.9L300.1,466.9z M300.1,472c-0.7,0-1.2,0.2-1.6,0.9
		c-0.5,0.5-0.9,1.2-1.2,2.3c-0.5,1.6-0.7,4.4-0.7,8.1c0,3.7,0.2,6.5,0.5,7.6c0.5,1.6,0.7,2.3,1.2,2.8c0.5,0.2,1.2,0.7,1.8,0.7
		c0.7,0,1.2-0.5,1.6-0.7c0.5-0.5,0.9-1.2,1.4-2.5c0.2-1.4,0.5-4.2,0.5-7.9s0-6.2-0.5-7.9c-0.2-1.4-0.7-2.1-1.2-2.5
		C301.5,472.2,300.8,472,300.1,472L300.1,472z"/>
	<path class="st5" d="M457.1,466.9c2.8,0,4.9,1.2,6.2,3.5c1.8,2.5,2.8,6.9,2.8,12.9c0,6.2-0.9,10.4-2.8,13.2c-1.4,1.8-3.5,3-6.2,3
		c-2.8,0-4.9-1.2-6.5-3.5c-1.6-2.5-2.5-6.7-2.5-12.7c0-6.2,0.9-10.4,2.8-13.2C452.2,468.1,454.3,466.9,457.1,466.9L457.1,466.9z
		 M457.1,472c-0.7,0-1.2,0.2-1.6,0.9c-0.5,0.5-1.2,1.2-1.4,2.3c-0.2,1.6-0.5,4.4-0.5,8.1c0,3.7,0.2,6.5,0.5,7.6
		c0.2,1.6,0.7,2.3,1.2,2.8c0.5,0.2,1.2,0.7,1.8,0.7c0.7,0,1.2-0.5,1.6-0.7c0.5-0.5,0.9-1.2,1.4-2.5c0.2-1.4,0.5-4.2,0.5-7.9
		s-0.2-6.2-0.5-7.9c-0.2-1.4-0.7-2.1-1.2-2.5C458.5,472.2,457.8,472,457.1,472L457.1,472z M478.3,466.9c2.8,0,4.9,1.2,6.2,3.5
		c1.8,2.5,2.8,6.9,2.8,12.9c0,6.2-0.9,10.4-2.8,13.2c-1.4,1.8-3.5,3-6.2,3c-2.5,0-4.8-1.2-6.5-3.5c-1.6-2.5-2.5-6.7-2.5-12.7
		c0-6.2,0.9-10.4,2.8-13.2C473.5,468.1,475.8,466.9,478.3,466.9L478.3,466.9z M478.3,472c-0.7,0-1.2,0.2-1.6,0.9
		c-0.5,0.5-0.9,1.2-1.2,2.3c-0.5,1.6-0.7,4.4-0.7,8.1c0,3.7,0.2,6.5,0.5,7.6c0.5,1.6,0.7,2.3,1.2,2.8c0.5,0.2,1.2,0.7,1.8,0.7
		c0.7,0,1.2-0.5,1.6-0.7c0.5-0.5,0.9-1.2,1.4-2.5c0.2-1.4,0.5-4.2,0.5-7.9s0-6.2-0.5-7.9c-0.2-1.4-0.7-2.1-1.2-2.5
		C479.7,472.2,479,472,478.3,472L478.3,472z"/>
	<polygon class="st5" points="344.3,488.1 344.3,480.5 358.1,480.5 358.1,488.1 	"/>
	<path class="st5" d="M416.8,499.2v-8h-14.7v-7.4l15.4-27h6.1v27h4.6v7.4h-4.6v8H416.8L416.8,499.2z M416.8,483.8v-14.1l-8.3,14.1
		H416.8L416.8,483.8z"/>
	<path class="st5" d="M436.7,499.1c-0.7-0.2-1.2-0.6-1.6-1.2c-0.4-0.6-0.6-1.3-0.6-2.2c0-1.1,0.4-2,1.2-2.8s1.7-1.2,2.8-1.2
		c1.3,0,2.3,0.4,3.1,1.3c0.8,0.9,1.1,2,1.1,3.5c0,2.3-0.8,4.4-2.4,6.2c-1.6,1.8-3.6,2.8-6.1,3.2v-1.3c0.8-0.9,1.4-1.8,1.8-2.6
		c0.4-0.9,0.6-1.7,0.6-2.6v-0.3L436.7,499.1L436.7,499.1z"/>
	<path class="st5" d="M258.8,499.1c-0.7-0.2-1.2-0.6-1.6-1.2c-0.4-0.6-0.6-1.3-0.6-2.2c0-1.1,0.4-2,1.2-2.8c0.8-0.8,1.7-1.2,2.8-1.2
		c1.3,0,2.3,0.4,3.1,1.3c0.8,0.9,1.1,2,1.1,3.5c0,2.3-0.8,4.4-2.4,6.2s-3.6,2.8-6.1,3.2v-1.3c0.8-0.9,1.4-1.8,1.8-2.6
		c0.4-0.9,0.6-1.7,0.6-2.6v-0.3L258.8,499.1L258.8,499.1z"/>
	<path class="st6" d="M347.5,46.7C428.8,46.7,495,113,495,194.2c0,81.3-66.3,147.5-147.5,147.5c-81.3,0-147.5-66.3-147.5-147.5
		C200,112.9,266.2,46.7,347.5,46.7L347.5,46.7z"/>
</g>
</svg>
