<?xml version="1.0" encoding="utf-8"?>
<!-- Generator: Adobe Illustrator 19.2.0, SVG Export Plug-In . SVG Version: 6.00 Build 0)  -->
<svg version="1.1" id="Livello_1" xmlns="http://www.w3.org/2000/svg" xmlns:xlink="http://www.w3.org/1999/xlink" x="0px" y="0px"
	 viewBox="0 0 960 960" style="enable-background:new 0 0 960 960;" xml:space="preserve">
<style type="text/css">
	.st0{fill-rule:evenodd;clip-rule:evenodd;fill:#FFFFFF;stroke:#1A171B;stroke-width:0.9532;stroke-miterlimit:2.6131;}
	.st1{fill:none;stroke:#1A171B;stroke-width:9.5321;stroke-miterlimit:2.6131;}
	.st2{fill-rule:evenodd;clip-rule:evenodd;fill:#005EA7;}
	.st3{fill-rule:evenodd;clip-rule:evenodd;fill:#FFFFFF;stroke:#FFFFFF;stroke-width:0.9532;stroke-miterlimit:2.6131;}
	.st4{fill-rule:evenodd;clip-rule:evenodd;fill:#1A171B;stroke:#1A171B;stroke-width:0.9532;stroke-miterlimit:2.6131;}
	.st5{fill-rule:evenodd;clip-rule:evenodd;fill:#1A171B;}
	.st6{fill:none;stroke:#1A171B;stroke-width:0.9532;stroke-miterlimit:2.6131;}
	.st7{fill-rule:evenodd;clip-rule:evenodd;fill:#ED7F00;stroke:#1A171B;stroke-width:0.9532;stroke-miterlimit:2.6131;}
</style>
<g>
	<g>
		<polygon class="st0" points="238.2,120 721.8,120 721.8,840 238.2,840 238.2,120 		"/>
		<path class="st1" d="M290.4,134.9h379.8c21.4,0,38.9,17.5,38.9,38.9V787c0,21.4-17.5,38.9-38.9,38.9H290.4
			c-21.4,0-38.9-17.5-38.9-38.9V173.8C251.6,152.4,269,134.9,290.4,134.9L290.4,134.9z"/>
		<path class="st0" d="M498.1,189.7c47.9,8.6,78.9,25.9,108,65.2c16.6,26.7,24.3,51.6,25.4,82.9c-2.1,62.6-34.5,110.4-90.6,136.6
			c-63.6,26.2-127.5,8-172.7-42.2c-28.3-37.2-39-78.1-30.7-124.6c9.6-35.8,23.5-59.6,51.1-84.5c29.4-21.9,57.2-32.9,94.4-34
			L498.1,189.7L498.1,189.7z"/>
		<path class="st2" d="M483.5,197.4c77.2,0,140.1,62.9,140.1,140.1s-62.9,140.1-140.1,140.1c-77.2,0-140.1-62.9-140.1-140.1
			S406.4,197.4,483.5,197.4L483.5,197.4z"/>
		<path class="st3" d="M590.5,337.8l-97.5,54c-3.1,1.8-7.6,0-6.4-5.3l6.3-32.4l-118.2,0.1l0.1-32.6l118.2-0.1l-6.4-32.3
			c-1.1-5.3,2.5-6.9,6.4-5.5L590.5,337.8L590.5,337.8z"/>
		<path class="st4" d="M401,775.9v-41.3h16.4c0,12.4,0,28.8,0,41.3c0,1.7-1.5,2.5-3.4,2.5c-2.5,0-6.3,0-9,0
			C401.9,778.5,401.2,778,401,775.9L401,775.9z"/>
		<path class="st5" d="M489.8,744.9c-1.4-4.4-5.7-7.4-10.7-7.4c-4.9,0-9.1,3-10.5,7.4h-28.6c0-3.6,0-7.2,0-10.4h-16.3v41.1
			c0,1.9,0.9,2.5,4.1,2.5c2.5,0,6.3,0,8.8,0c1.9,0,3.5-0.9,3.5-2.5c0-6.8,0-14.6,0-22.5H469c1.7,4.1,5.7,6.9,10.2,6.9
			c4.7,0,8.6-2.8,10.4-6.9h28.9v-8.3H489.8L489.8,744.9z M518.4,775.8v-22.6V775.8L518.4,775.8z M518.4,744.9v-10.4h16.5
			c0,12.4,0,28.7,0,41.3c0,1.6-1.6,2.4-3.5,2.4c-2.5,0-6.3,0-9,0c-3,0.2-3.9-0.5-4.1-2.4V744.9L518.4,744.9z"/>
		<path class="st6" d="M489.8,744.9c-1.4-4.4-5.7-7.4-10.7-7.4c-4.9,0-9.1,3-10.5,7.4h-28.6c0-3.6,0-7.2,0-10.4h-16.3v41.1
			c0,1.9,0.9,2.5,4.1,2.5c2.5,0,6.3,0,8.8,0c1.9,0,3.5-0.9,3.5-2.5c0-6.8,0-14.6,0-22.5H469c1.7,4.1,5.7,6.9,10.2,6.9
			c4.7,0,8.6-2.8,10.4-6.9h28.9v-8.3H489.8L489.8,744.9z M518.4,775.8v-22.6 M518.4,744.9v-10.4h16.5c0,12.4,0,28.7,0,41.3
			c0,1.6-1.6,2.4-3.5,2.4c-2.5,0-6.3,0-9,0c-3,0.2-3.9-0.5-4.1-2.4"/>
		<path class="st4" d="M541,775.9v-41.3h16.4c0,12.4,0,28.8,0,41.3c0,1.7-1.5,2.5-3.4,2.5c-2.5,0-6.3,0-9,0
			C542,778.5,541.2,778,541,775.9L541,775.9z"/>
		<polygon class="st4" points="392.8,726.6 392.8,707.9 565.8,707.9 565.8,726.6 392.8,726.6 		"/>
		<path class="st4" d="M392.6,699.6l0.2-146.5c56-11.3,118.6-11.6,173,0v146.5H392.6L392.6,699.6z"/>
		<polygon class="st7" points="411.2,681.9 411.2,569.4 547.5,569.9 547,681.9 411.2,681.9 		"/>
	</g>
</g>
</svg>
