<?xml version="1.0" encoding="utf-8"?>
<!-- Generator: Adobe Illustrator 19.2.0, SVG Export Plug-In . SVG Version: 6.00 Build 0)  -->
<svg version="1.1" id="Livello_1" xmlns="http://www.w3.org/2000/svg" xmlns:xlink="http://www.w3.org/1999/xlink" x="0px" y="0px"
	 viewBox="0 0 586.3 722.9" style="enable-background:new 0 0 586.3 722.9;" xml:space="preserve">
<style type="text/css">
	.st0{fill:#FFFFFF;stroke:#1A171B;stroke-width:0.9532;stroke-miterlimit:2.6131;}
	.st1{fill:none;stroke:#1A171B;stroke-width:9.5321;stroke-miterlimit:2.6131;}
	.st2{fill:#005EA7;}
	.st3{fill:#1A171B;stroke:#1A171B;stroke-width:2.5419;stroke-miterlimit:2.6131;}
	.st4{fill:#FFFFFF;stroke:#FFFFFF;stroke-width:2.5419;stroke-miterlimit:2.6131;}
	.st5{fill:#1A171B;stroke:#1A171B;stroke-width:0.9532;stroke-miterlimit:2.6131;}
	.st6{fill:#FFFFFF;stroke:#005EA7;stroke-width:0.9532;stroke-miterlimit:2.6131;}
</style>
<g>
	<g>
		<polygon class="st0" points="102.2,0.5 585.8,0.5 585.8,720.5 102.2,720.5 		"/>
		<path class="st1" d="M154.4,15.4h379.8c21.4,0,38.9,17.5,38.9,38.9v613.2c0,21.4-17.5,38.9-38.9,38.9H154.4
			c-21.4,0-38.9-17.5-38.9-38.9V54.3C115.6,32.9,133,15.4,154.4,15.4L154.4,15.4z"/>
		<path class="st0" d="M362.2,70.1c47.9,8.6,78.9,25.9,108,65.2c16.6,26.7,24.3,51.6,25.4,82.9c-2.1,62.6-34.5,110.4-90.6,136.6
			c-63.6,26.2-127.5,8-172.7-42.2c-28.3-37.2-39-78.1-30.7-124.6c9.6-35.8,23.5-59.6,51.1-84.5c29.4-21.9,57.2-32.9,94.4-34
			L362.2,70.1L362.2,70.1z"/>
		<path class="st2" d="M347.6,77.8c77.2,0,140.1,62.9,140.1,140.1S424.8,358,347.6,358s-140.1-62.9-140.1-140.1
			S270.4,77.8,347.6,77.8L347.6,77.8z"/>
		<path class="st3" d="M486.8,609.6v-54.4l-18.1-46.5h-49.9v76.6H280.6c7.5,2.8,13.1,13.1,13.9,24.3h124.2
			c1.8-39.8,57.6-39.7,58.9,0L486.8,609.6L486.8,609.6z"/>
		<path class="st3" d="M250.3,585.2h-45.9v11.1l32,12.2C235.7,598.6,243.2,587.9,250.3,585.2L250.3,585.2z"/>
		<polygon class="st3" points="412.3,578.9 412.3,475.5 204.4,475.5 204.2,579 		"/>
		<polygon class="st4" points="474.9,549.2 463.4,519 426.2,519 426.2,549.2 		"/>
		<path class="st5" d="M448,585.5c-13.3,0-24.2,10.9-24.2,24.2s10.9,24.2,24.2,24.2s24.2-10.9,24.2-24.2S461.3,585.5,448,585.5
			L448,585.5z"/>
		<path class="st5" d="M265.2,585.5c-13.3,0-24.2,10.9-24.2,24.2s10.9,24.2,24.2,24.2c13.3,0,24.2-10.9,24.2-24.2
			C289.4,596.4,278.5,585.5,265.2,585.5L265.2,585.5z"/>
		<path class="st0" d="M448,598.1c-6.4,0-11.6,5.2-11.6,11.6c0,6.4,5.2,11.6,11.6,11.6c6.4,0,11.6-5.2,11.6-11.6
			C459.6,603.4,454.4,598.1,448,598.1L448,598.1z"/>
		<path class="st0" d="M265.2,598.1c-6.4,0-11.6,5.2-11.6,11.6c0,6.4,5.2,11.6,11.6,11.6s11.6-5.2,11.6-11.6
			C276.8,603.4,271.6,598.1,265.2,598.1L265.2,598.1z"/>
		<path class="st6" d="M447.8,161.2l-80.2,82.4c-4.2,0.9-7.5-1.2-8.6-5.1l-1.9-34.2c-28.3-0.2-39.7,10.6-41,31.7v75.4l-36.3-0.1
			v-75.2c-0.1-40,30.6-62.8,67.8-66.8l-15.3-30.5c-1.2-4,0.9-7.3,4.8-8.5L447.8,161.2L447.8,161.2z"/>
	</g>
</g>
</svg>
