<?xml version="1.0" encoding="utf-8"?>
<!-- Generator: Adobe Illustrator 19.2.0, SVG Export Plug-In . SVG Version: 6.00 Build 0)  -->
<svg version="1.1" id="Livello_1" xmlns="http://www.w3.org/2000/svg" xmlns:xlink="http://www.w3.org/1999/xlink" x="0px" y="0px"
	 viewBox="0 0 586.5 723.9" style="enable-background:new 0 0 586.5 723.9;" xml:space="preserve">
<style type="text/css">
	.st0{fill:#FFFFFF;stroke:#1A171B;stroke-width:0.9532;stroke-miterlimit:2.6131;}
	.st1{fill:none;stroke:#1A171B;stroke-width:9.532;stroke-miterlimit:2.6131;}
	.st2{fill:#E1001A;}
	.st3{fill:#FFFFFF;}
	.st4{fill:#1A171B;stroke:#1A171B;stroke-width:0.9532;stroke-miterlimit:2.6131;}
	.st5{fill:#FFFFFF;stroke:#FFFFFF;stroke-width:0.9532;stroke-miterlimit:2.6131;}
	.st6{fill:none;stroke:#1A171B;stroke-width:1.7788;stroke-miterlimit:2.6131;}
</style>
<g>
	<g>
		<polygon class="st0" points="101.9,1.3 585.5,1.3 585.5,721.3 101.9,721.3 		"/>
		<path class="st1" d="M154.1,16.2h379.8c21.4,0,38.9,17.5,38.9,38.9v613.2c0,21.4-17.5,38.9-38.9,38.9H154.1
			c-21.4,0-38.9-17.5-38.9-38.9V55.1C115.3,33.7,132.7,16.2,154.1,16.2L154.1,16.2z"/>
		<path class="st2" d="M347.1,55.6c77.2,0,140.1,62.9,140.1,140.1s-62.9,140.1-140.1,140.1S207,272.9,207,195.7
			C207,118.6,269.9,55.6,347.1,55.6L347.1,55.6z"/>
		<path class="st3" d="M347.1,91.5c57.4,0,104.3,46.8,104.3,104.3c0,57.4-46.8,104.3-104.3,104.3c-57.4,0-104.3-46.8-104.3-104.3
			C242.8,138.3,289.6,91.5,347.1,91.5L347.1,91.5z"/>
		<path class="st4" d="M202.5,659.2v-33.3l11.1-29.7h34.2v36.3h46.5v26.7h-5.7c-1-24.4-35.2-25.4-37.5,0c-1.5,0-3.2,0-5.5,0
			c-1-24.1-36.5-25.5-37.6,0H202.5L202.5,659.2z"/>
		<path class="st4" d="M298.8,659.2v-16.6h73c-8.9,4.4-9.9,10.2-11,16.6H298.8L298.8,659.2z"/>
		<path class="st4" d="M398.3,659.2c0-5.7-2.9-13.2-9.9-16.6h25.7c-6.3,2.3-11.1,11-11.3,16.6H398.3L398.3,659.2z"/>
		<path class="st4" d="M440.6,659.2c-0.2-6.6-4.4-14.2-10-16.6h52.8v8.7l-21,7.9L440.6,659.2L440.6,659.2z"/>
		<polygon class="st4" points="298.8,638 298.9,628.2 252.4,628.2 252.6,575 483.6,575 483.6,638 		"/>
		<polygon class="st5" points="209.3,620.4 216.1,602.6 243.5,602.6 243.5,620.4 		"/>
		<path class="st4" d="M270,643.6c8.5,0,15.5,7,15.5,15.5s-7,15.5-15.5,15.5s-15.5-7-15.5-15.5S261.5,643.6,270,643.6L270,643.6z"/>
		<path class="st4" d="M379.5,643.6c8.5,0,15.5,7,15.5,15.5s-7,15.5-15.5,15.5s-15.5-7-15.5-15.5S370.9,643.6,379.5,643.6
			L379.5,643.6z"/>
		<path class="st4" d="M421.5,643.6c8.5,0,15.5,7,15.5,15.5s-7,15.5-15.5,15.5s-15.5-7-15.5-15.5S413,643.6,421.5,643.6L421.5,643.6
			z"/>
		<path class="st4" d="M226.9,643.6c8.5,0,15.5,7,15.5,15.5s-7,15.5-15.5,15.5s-15.5-7-15.5-15.5
			C211.3,650.6,218.3,643.6,226.9,643.6L226.9,643.6z"/>
		<path class="st0" d="M270,652.4c3.7,0,6.7,3,6.7,6.7s-3,6.7-6.7,6.7s-6.7-3-6.7-6.7C263.3,655.4,266.3,652.4,270,652.4L270,652.4z
			"/>
		<path class="st0" d="M379.5,652.4c3.7,0,6.7,3,6.7,6.7s-3,6.7-6.7,6.7s-6.7-3-6.7-6.7C372.8,655.4,375.8,652.4,379.5,652.4
			L379.5,652.4z"/>
		<path class="st0" d="M421.5,652.4c3.7,0,6.7,3,6.7,6.7s-3,6.7-6.7,6.7s-6.7-3-6.7-6.7C414.9,655.4,417.9,652.4,421.5,652.4
			L421.5,652.4z"/>
		<path class="st0" d="M226.9,652.4c3.7,0,6.7,3,6.7,6.7s-3,6.7-6.7,6.7s-6.7-3-6.7-6.7S223.2,652.4,226.9,652.4L226.9,652.4z"/>
		<g>
			<path class="st4" d="M328.3,485.8l-83,0.3l0.3-48.1H214l-11,29.1v34.1h5.5c0.7-24.8,36.3-25.3,37.6,0l74.4-0.1
				C320.5,495.1,324,489.6,328.3,485.8z M240.5,463.8h-29.8l7-19.1h22.8V463.8z"/>
			<path class="st4" d="M338.8,486.1c-8.3,0-14.8,6.8-14.8,15c0,8.3,6.5,15.3,14.8,15.3c7.8,0,15.3-7,15.3-15.3
				C354.1,492.9,346.6,486.1,338.8,486.1z M338.8,508.7c-3.8,0-7.3-3.3-7.3-7.5c0-3.8,3.6-7.3,7.3-7.3c4,0,7.3,3.5,7.3,7.3
				C346.1,505.5,342.8,508.7,338.8,508.7z"/>
			<path class="st4" d="M227.3,486.1c-8.6,0-15.6,6.8-15.5,15c0,8.3,7,15.3,15.5,15.3c8,0,14.8-7,14.8-15.3
				C242.1,492.9,235.3,486.1,227.3,486.1z M227.3,508.7c-4,0-7.8-3.3-7.8-7.5c0-3.8,3.7-7.3,7.8-7.3c4,0,7,3.5,7,7.3
				C234.3,505.5,231.3,508.7,227.3,508.7z"/>
			<path class="st4" d="M457.6,501.1h26.6v-15h-34.9C453.1,488.1,457.6,495.1,457.6,501.1z"/>
			<path class="st4" d="M439.3,486.1c-8.2,0-15,6.8-15,15c0,8.3,6.7,15.3,15,15.3c8.2,0,15-7,15-15.3
				C454.3,492.9,447.6,486.1,439.3,486.1z M439.3,508.7c-4,0-7-3.5-7-7.5s3-7.3,7-7.3s7.3,3.3,7.3,7.3S443.3,508.7,439.3,508.7z"/>
			<polygon class="st4" points="399.7,417.5 399.7,475.4 377.9,475.4 377.9,417.5 249.3,417.5 249.3,482.4 484.2,482.4 484.2,417.5 
							"/>
			<path class="st4" d="M357.1,501.2h20.8v-15h-29.1C354.1,488.4,357.1,495.2,357.1,501.2z"/>
			<path class="st4" d="M429.5,486.2h-29.8v15h21C420.7,495.2,424.2,489.2,429.5,486.2z"/>
		</g>
		<path class="st6" d="M347.2,47.5c81.3,0,147.5,66.3,147.5,147.5c0,81.3-66.3,147.5-147.5,147.5c-81.3,0-147.5-66.3-147.5-147.5
			C199.7,113.7,265.9,47.5,347.2,47.5L347.2,47.5z"/>
	</g>
</g>
</svg>
