<?xml version="1.0" encoding="utf-8"?>
<!-- Generator: Adobe Illustrator 19.2.0, SVG Export Plug-In . SVG Version: 6.00 Build 0)  -->
<svg version="1.1" id="Livello_1" xmlns="http://www.w3.org/2000/svg" xmlns:xlink="http://www.w3.org/1999/xlink" x="0px" y="0px"
	 viewBox="0 0 849.7 794" style="enable-background:new 0 0 849.7 794;" xml:space="preserve">
<style type="text/css">
	.st0{fill:#005EA7;stroke:#005EA7;stroke-width:6.8394;stroke-miterlimit:2.6131;}
	.st1{fill:none;stroke:#FFFFFF;stroke-width:8.5493;stroke-miterlimit:2.6131;}
	.st2{fill:#FFFFFF;stroke:#005EA7;stroke-width:6.8394;stroke-miterlimit:2.6131;}
	.st3{fill:#1A171B;}
</style>
<g>
	<g>
		<polygon class="st0" points="4.6,574.5 845.1,574.5 845.1,788.5 4.6,788.5 		"/>
		<path class="st1" d="M40.6,585.8h768.9c13.6,0,24.7,11.1,24.7,24.7v142.2c0,13.6-11.1,24.7-24.7,24.7H40.6
			c-13.6,0-24.7-11.1-24.7-24.7V610.5C16,596.9,27.1,585.8,40.6,585.8L40.6,585.8z"/>
		<path class="st2" d="M33.7,646.1h653.2l-11.1-42.4c-2.3-4.5,4.5-11.3,11.1-6.8l135.9,84.7l-135.9,84.7c-4.5,4.5-13.4-2.3-11.1-8.8
			l11.1-40.1H33.7V646.1L33.7,646.1z"/>
		<polygon class="st0" points="845.1,105.3 4.6,105.3 4.6,319.3 845.1,319.3 		"/>
		<path class="st1" d="M809.1,116.6H40.2c-13.6,0-24.7,11.1-24.7,24.7v142.2c0,13.6,11.1,24.7,24.7,24.7h768.9
			c13.6,0,24.7-11.1,24.7-24.7V141.3C833.8,127.7,822.7,116.6,809.1,116.6L809.1,116.6z"/>
		<path class="st2" d="M816,176.9H162.9l11.1-42.4c2.3-4.5-4.5-11.3-11.1-6.8L27,212.5l135.9,84.7c4.5,4.5,13.4-2.3,11.1-8.8
			l-11.1-40.1h653.2L816,176.9L816,176.9L816,176.9z"/>
		<path class="st3" d="M844.5,66.9h-14.7L824,51.7h-26.8l-5.5,15.2h-14.3L803.5,0h14.2L844.5,66.9L844.5,66.9z M819.6,40.5
			l-9.2-24.8l-9,24.8H819.6L819.6,40.5z"/>
		<path class="st3" d="M790.7,467.8h26.8c5.3,0,9.3,0.2,11.9,0.7c2.6,0.4,4.9,1.4,7,2.8s3.8,3.3,5.1,5.6c1.4,2.3,2.1,4.9,2.1,7.8
			c0,3.1-0.8,6-2.5,8.6s-4,4.6-6.9,5.9c4.1,1.2,7.2,3.2,9.4,6.1s3.3,6.2,3.3,10.1c0,3-0.7,6-2.1,8.9c-1.4,2.9-3.3,5.2-5.8,6.9
			c-2.4,1.7-5.5,2.8-9.1,3.2c-2.2,0.2-7.7,0.4-16.3,0.4h-22.9V467.8L790.7,467.8z M804.2,479v15.5h8.9c5.3,0,8.5-0.1,9.8-0.2
			c2.3-0.3,4.1-1.1,5.5-2.4c1.4-1.3,2-3.1,2-5.2s-0.6-3.8-1.7-5.1c-1.2-1.3-2.9-2.1-5.1-2.3c-1.3-0.2-5.2-0.2-11.6-0.2L804.2,479
			L804.2,479z M804.2,505.6v17.9h12.5c4.9,0,8-0.1,9.3-0.4c2-0.4,3.6-1.3,4.9-2.7c1.3-1.4,1.9-3.3,1.9-5.7c0-2-0.5-3.7-1.5-5.1
			s-2.4-2.4-4.2-3.1c-1.8-0.6-5.8-1-12-1L804.2,505.6L804.2,505.6z"/>
	</g>
</g>
</svg>
