<?xml version="1.0" encoding="utf-8"?>
<!-- Generator: Adobe Illustrator 19.2.0, SVG Export Plug-In . SVG Version: 6.00 Build 0)  -->
<svg version="1.1" id="Livello_1" xmlns="http://www.w3.org/2000/svg" xmlns:xlink="http://www.w3.org/1999/xlink" x="0px" y="0px"
	 viewBox="0 0 601.6 598.4" style="enable-background:new 0 0 601.6 598.4;" xml:space="preserve">
<style type="text/css">
	.st0{fill:#005EA7;}
	.st1{fill:none;stroke:#FFFFFF;stroke-width:11.816;stroke-miterlimit:2.6131;}
	.st2{fill:#FFFFFF;stroke:#FFFFFF;stroke-width:1.1816;stroke-miterlimit:2.6131;}
</style>
<g>
	<g>
		<polygon class="st0" points="0.8,0.8 600.8,0.8 600.8,597.6 0.8,597.6 		"/>
		<path class="st1" d="M51.6,18.5h499.3c18.3,0,33.2,14.9,33.2,33.2v496.1c0,18.3-14.9,33.2-33.2,33.2H51.6
			c-18.3,0-33.2-14.9-33.2-33.2V51.7C18.4,33.4,33.4,18.5,51.6,18.5L51.6,18.5z"/>
		<path class="st2" d="M301.7,77.9l127.7,199.7c0.3,7.1,0,13.1-12.6,13.1l-76.6-12.9l0.1,242.1l-77-0.2l-0.1-242.1l-76.4,13.2
			c-13,0-13-6.5-13-13.1L301.7,77.9L301.7,77.9z"/>
	</g>
</g>
</svg>
