<?xml version="1.0" encoding="utf-8"?>
<!-- Generator: Adobe Illustrator 19.2.0, SVG Export Plug-In . SVG Version: 6.00 Build 0)  -->
<svg version="1.1" id="Livello_1" xmlns="http://www.w3.org/2000/svg" xmlns:xlink="http://www.w3.org/1999/xlink" x="0px" y="0px"
	 viewBox="0 0 498 724.2" style="enable-background:new 0 0 498 724.2;" xml:space="preserve">
<style type="text/css">
	.st0{fill:#CECFD1;stroke:#1A171B;stroke-width:0.9914;stroke-miterlimit:2.6131;}
	.st1{fill:none;stroke:#1A171B;stroke-width:0.9914;stroke-miterlimit:2.6131;}
	.st2{fill:#BBBCBE;stroke:#1A171B;stroke-width:0.9914;stroke-miterlimit:2.6131;}
	.st3{fill:#FFEC00;stroke:#1A171B;stroke-width:0.9914;stroke-miterlimit:2.6131;}
	.st4{fill:#E1001A;stroke:#1A171B;stroke-width:0.9914;stroke-miterlimit:2.6131;}
	.st5{fill:#008F36;stroke:#1A171B;stroke-width:0.9914;stroke-miterlimit:2.6131;}
	.st6{fill:#9B9B9D;stroke:#1A171B;stroke-width:0.8922;stroke-miterlimit:2.6131;}
	.st7{display:none;fill:#9B9B9D;stroke:#1A171B;stroke-width:0.8922;stroke-miterlimit:2.6131;}
</style>
<g>
	<g>
		<g>
			<polygon class="st0" points="132.1,57 364.8,57 364.8,676.6 132.1,676.6 			"/>
			<polygon class="st1" points="132.1,263.8 364.8,263.8 364.8,469.6 132.1,469.6 			"/>
			<path class="st2" d="M135.9,28.7h225c8.1,0,14.7,6.3,14.7,14v0.1c0,7.7-6.6,14-14.7,14h-225c-8.1,0-14.7-6.3-14.7-14v-0.1
				C121.2,35,127.8,28.7,135.9,28.7L135.9,28.7z"/>
			<path class="st2" d="M135.9,676.6h225c8.1,0,14.7,6.5,14.7,14.5v0.1c0,8-6.6,14.5-14.7,14.5h-225c-8.1,0-14.7-6.5-14.7-14.5v-0.1
				C121.2,683.2,127.8,676.6,135.9,676.6L135.9,676.6z"/>
			<path class="st0" d="M151.5,28.7c35.6,0,18.3-26.9,47.4-26.9h103.5c31.2,0,14,26.9,45.2,26.9H151.5L151.5,28.7z"/>
			<path class="st0" d="M192.4,705.7h115.3c2.9,0,5.4,2.4,5.4,5.4v5.4c0,2.9-2.4,5.4-5.4,5.4H192.4c-3,0-5.4-2.4-5.4-5.4v-5.4
				C187,708.1,189.4,705.7,192.4,705.7L192.4,705.7z"/>
			<path class="st0" d="M132.1,236.6c-24.9,0-50.6-70.2-105.6-104.5C15.1,125,4.9,108.5,1.8,93.3l130.4-19.4L132.1,236.6
				L132.1,236.6z"/>
			<path class="st0" d="M132.1,444.7c-24.9,0-50.6-70.2-105.6-104.5c-11.4-7.1-21.6-23.6-24.7-38.8L132.2,282L132.1,444.7
				L132.1,444.7z"/>
			<path class="st0" d="M132.1,650.7c-24.9,0-50.6-70.2-105.6-104.5c-11.4-7.1-21.6-23.6-24.7-38.8L132.2,488L132.1,650.7
				L132.1,650.7z"/>
			<path class="st0" d="M364.7,650.7c24.9,0,50.6-70.2,105.6-104.5c11.4-7.1,21.6-23.6,24.7-38.8L364.6,488L364.7,650.7L364.7,650.7
				z"/>
			<path class="st0" d="M364.7,444.7c24.9,0,50.6-70.2,105.6-104.5c11.4-7.1,21.6-23.6,24.7-38.8L364.6,282L364.7,444.7L364.7,444.7
				z"/>
			<path class="st0" d="M364.7,236.6c24.9,0,50.6-70.2,105.6-104.5c11.4-7.1,21.6-23.6,24.7-38.8L364.6,73.9L364.7,236.6
				L364.7,236.6z"/>
			<path class="st3" d="M247.6,280c48.1,0,87.3,39.2,87.3,87.2c0,48.1-39.2,87.3-87.3,87.3s-87.2-39.2-87.2-87.3
				C160.3,319.2,199.5,280,247.6,280L247.6,280z"/>
			<path class="st4" d="M247.6,73.2c48.1,0,87.3,39.2,87.3,87.3s-39.2,87.2-87.3,87.2s-87.2-39.2-87.2-87.2
				C160.3,112.4,199.5,73.2,247.6,73.2L247.6,73.2z"/>
			<path class="st5" d="M247.6,485.6c48.1,0,87.3,39.2,87.3,87.3s-39.2,87.2-87.3,87.2s-87.2-39.2-87.2-87.2
				C160.3,524.8,199.5,485.6,247.6,485.6L247.6,485.6z"/>
			<path class="st6" d="M247.6,280c48.1,0,87.3,39.2,87.3,87.2c0,48.1-39.2,87.3-87.3,87.3s-87.2-39.2-87.2-87.3
				C160.3,319.2,199.5,280,247.6,280L247.6,280z"/>
			<path class="st6" d="M247.6,73.2c48.1,0,87.3,39.2,87.3,87.3s-39.2,87.2-87.3,87.2s-87.2-39.2-87.2-87.2
				C160.3,112.4,199.5,73.2,247.6,73.2L247.6,73.2z"/>
			<path class="st7" d="M247.6,485.6c48.1,0,87.3,39.2,87.3,87.3s-39.2,87.2-87.3,87.2s-87.2-39.2-87.2-87.2
				C160.3,524.8,199.5,485.6,247.6,485.6L247.6,485.6z"/>
		</g>
	</g>
</g>
</svg>
