<?xml version="1.0" encoding="utf-8"?>
<!-- Generator: Adobe Illustrator 19.2.0, SVG Export Plug-In . SVG Version: 6.00 Build 0)  -->
<svg version="1.1" id="Livello_1" xmlns="http://www.w3.org/2000/svg" xmlns:xlink="http://www.w3.org/1999/xlink" x="0px" y="0px"
	 viewBox="0 0 498 725" style="enable-background:new 0 0 498 725;" xml:space="preserve">
<style type="text/css">
	.st0{fill:#CECFD1;stroke:#1A171B;stroke-width:0.9914;stroke-miterlimit:2.6131;}
	.st1{fill:none;stroke:#1A171B;stroke-width:0.9914;stroke-miterlimit:2.6131;}
	.st2{fill:#BBBCBE;stroke:#1A171B;stroke-width:0.9914;stroke-miterlimit:2.6131;}
	.st3{fill:#FFEC00;stroke:#1A171B;stroke-width:0.9914;stroke-miterlimit:2.6131;}
	.st4{fill:#E1001A;stroke:#1A171B;stroke-width:0.9914;stroke-miterlimit:2.6131;}
	.st5{fill:#008F36;stroke:#1A171B;stroke-width:0.9914;stroke-miterlimit:2.6131;}
	.st6{fill:#9B9B9D;stroke:#1A171B;stroke-width:0.8922;stroke-miterlimit:2.6131;}
	.st7{display:none;fill:#9B9B9D;stroke:#1A171B;stroke-width:0.8922;stroke-miterlimit:2.6131;}
</style>
<g>
	<g>
		<polygon class="st0" points="132.1,57.8 364.8,57.8 364.8,677.4 132.1,677.4 		"/>
		<polygon class="st1" points="132.1,264.6 364.8,264.6 364.8,470.4 132.1,470.4 		"/>
		<path class="st2" d="M135.9,29.5h225c8.1,0,14.7,6.3,14.7,14v0.1c0,7.7-6.6,14-14.7,14h-225c-8.1,0-14.7-6.3-14.7-14v-0.1
			C121.2,35.8,127.8,29.5,135.9,29.5L135.9,29.5z"/>
		<path class="st2" d="M135.9,677.4h225c8.1,0,14.7,6.5,14.7,14.5v0.1c0,8-6.6,14.5-14.7,14.5h-225c-8.1,0-14.7-6.5-14.7-14.5v-0.1
			C121.2,684,127.8,677.4,135.9,677.4L135.9,677.4z"/>
		<path class="st0" d="M151.5,29.5c35.6,0,18.3-26.9,47.4-26.9h103.5c31.2,0,14,26.9,45.2,26.9H151.5L151.5,29.5z"/>
		<path class="st0" d="M192.4,706.5h115.3c2.9,0,5.4,2.4,5.4,5.4v5.4c0,2.9-2.4,5.4-5.4,5.4H192.4c-3,0-5.4-2.4-5.4-5.4v-5.4
			C187,708.9,189.4,706.5,192.4,706.5L192.4,706.5z"/>
		<path class="st0" d="M132.1,237.4c-24.9,0-50.6-70.2-105.6-104.5c-11.4-7.1-21.6-23.6-24.7-38.8l130.4-19.4L132.1,237.4
			L132.1,237.4z"/>
		<path class="st0" d="M132.1,445.5c-24.9,0-50.6-70.2-105.6-104.5c-11.4-7.1-21.6-23.6-24.7-38.8l130.4-19.4L132.1,445.5
			L132.1,445.5z"/>
		<path class="st0" d="M132.1,651.5c-24.9,0-50.6-70.2-105.6-104.5c-11.4-7.1-21.6-23.6-24.7-38.8l130.4-19.4L132.1,651.5
			L132.1,651.5z"/>
		<path class="st0" d="M364.7,651.5c24.9,0,50.6-70.2,105.6-104.5c11.4-7.1,21.6-23.6,24.7-38.8l-130.4-19.4L364.7,651.5
			L364.7,651.5z"/>
		<path class="st0" d="M364.7,445.5c24.9,0,50.6-70.2,105.6-104.5c11.4-7.1,21.6-23.6,24.7-38.8l-130.4-19.4L364.7,445.5
			L364.7,445.5z"/>
		<path class="st0" d="M364.7,237.4c24.9,0,50.6-70.2,105.6-104.5c11.4-7.1,21.6-23.6,24.7-38.8L364.6,74.7v162.7H364.7z"/>
		<path class="st3" d="M247.6,280.8c48.1,0,87.3,39.2,87.3,87.2c0,48.1-39.2,87.3-87.3,87.3s-87.2-39.2-87.2-87.3
			C160.3,320,199.5,280.8,247.6,280.8L247.6,280.8z"/>
		<path class="st4" d="M247.6,74c48.1,0,87.3,39.2,87.3,87.3s-39.2,87.2-87.3,87.2s-87.2-39.2-87.2-87.2
			C160.3,113.2,199.5,74,247.6,74L247.6,74z"/>
		<path class="st5" d="M247.6,486.4c48.1,0,87.3,39.2,87.3,87.3s-39.2,87.2-87.3,87.2s-87.2-39.2-87.2-87.2
			C160.3,525.6,199.5,486.4,247.6,486.4L247.6,486.4z"/>
		<path class="st6" d="M247.6,280.8c48.1,0,87.3,39.2,87.3,87.2c0,48.1-39.2,87.3-87.3,87.3s-87.2-39.2-87.2-87.3
			C160.3,320,199.5,280.8,247.6,280.8L247.6,280.8z"/>
		<path class="st7" d="M247.6,74c48.1,0,87.3,39.2,87.3,87.3s-39.2,87.2-87.3,87.2s-87.2-39.2-87.2-87.2
			C160.3,113.2,199.5,74,247.6,74L247.6,74z"/>
		<path class="st6" d="M247.6,486.4c48.1,0,87.3,39.2,87.3,87.3s-39.2,87.2-87.3,87.2s-87.2-39.2-87.2-87.2
			C160.3,525.6,199.5,486.4,247.6,486.4L247.6,486.4z"/>
	</g>
</g>
</svg>
