<?xml version="1.0" encoding="utf-8"?>
<!-- Generator: Adobe Illustrator 19.2.0, SVG Export Plug-In . SVG Version: 6.00 Build 0)  -->
<svg version="1.1" id="Livello_1" xmlns="http://www.w3.org/2000/svg" xmlns:xlink="http://www.w3.org/1999/xlink" x="0px" y="0px"
	 viewBox="0 0 498 724.6" style="enable-background:new 0 0 498 724.6;" xml:space="preserve">
<style type="text/css">
	.st0{opacity:1.000000e-002;fill:#FFFFFF;enable-background:new    ;}
	.st1{fill:#CECFD1;stroke:#1A171B;stroke-width:0.9914;stroke-miterlimit:2.6131;}
	.st2{fill:none;stroke:#1A171B;stroke-width:0.9914;stroke-miterlimit:2.6131;}
	.st3{fill:#BBBCBE;stroke:#1A171B;stroke-width:0.9914;stroke-miterlimit:2.6131;}
	.st4{fill:#FFEC00;stroke:#1A171B;stroke-width:0.9914;stroke-miterlimit:2.6131;}
	.st5{fill:#E1001A;stroke:#1A171B;stroke-width:0.9914;stroke-miterlimit:2.6131;}
	.st6{fill:#008F36;stroke:#1A171B;stroke-width:0.9914;stroke-miterlimit:2.6131;}
	.st7{display:none;fill:#9B9B9D;stroke:#1A171B;stroke-width:0.8922;stroke-miterlimit:2.6131;}
	.st8{fill:#9B9B9D;stroke:#1A171B;stroke-width:0.8922;stroke-miterlimit:2.6131;}
</style>
<rect x="-231.6" y="-117.8" class="st0" width="1" height="1"/>
<rect x="727.4" y="841.2" class="st0" width="1" height="1"/>
<g>
	<g>
		<polygon class="st1" points="132.1,57.4 364.8,57.4 364.8,677 132.1,677 		"/>
		<polygon class="st2" points="132.1,264.2 364.8,264.2 364.8,470 132.1,470 		"/>
		<path class="st3" d="M135.9,29.1h225c8.1,0,14.7,6.3,14.7,14v0.1c0,7.7-6.6,14-14.7,14h-225c-8.1,0-14.7-6.3-14.7-14v-0.1
			C121.2,35.4,127.8,29.1,135.9,29.1L135.9,29.1z"/>
		<path class="st3" d="M135.9,677h225c8.1,0,14.7,6.5,14.7,14.5v0.1c0,8-6.6,14.5-14.7,14.5h-225c-8.1,0-14.7-6.5-14.7-14.5v-0.1
			C121.2,683.6,127.8,677,135.9,677L135.9,677z"/>
		<path class="st1" d="M151.5,29.1c35.6,0,18.3-26.9,47.4-26.9h103.5c31.2,0,14,26.9,45.2,26.9H151.5L151.5,29.1z"/>
		<path class="st1" d="M192.4,706.1h115.3c2.9,0,5.4,2.4,5.4,5.4v5.4c0,2.9-2.4,5.4-5.4,5.4H192.4c-3,0-5.4-2.4-5.4-5.4v-5.4
			C187,708.5,189.4,706.1,192.4,706.1L192.4,706.1z"/>
		<path class="st1" d="M132.1,237c-24.9,0-50.6-70.2-105.6-104.5c-11.4-7.1-21.6-23.6-24.7-38.8l130.4-19.4L132.1,237L132.1,237z"/>
		<path class="st1" d="M132.1,445.1c-24.9,0-50.6-70.2-105.6-104.5C15.1,333.5,4.9,317,1.8,301.8l130.4-19.4L132.1,445.1
			L132.1,445.1z"/>
		<path class="st1" d="M132.1,651.1c-24.9,0-50.6-70.2-105.6-104.5C15.1,539.5,4.9,523,1.8,507.8l130.4-19.4L132.1,651.1
			L132.1,651.1z"/>
		<path class="st1" d="M364.7,651.1c24.9,0,50.6-70.2,105.6-104.5c11.4-7.1,21.6-23.6,24.7-38.8l-130.4-19.4L364.7,651.1
			L364.7,651.1z"/>
		<path class="st1" d="M364.7,445.1c24.9,0,50.6-70.2,105.6-104.5c11.4-7.1,21.6-23.6,24.7-38.8l-130.4-19.4L364.7,445.1
			L364.7,445.1z"/>
		<path class="st1" d="M364.7,237c24.9,0,50.6-70.2,105.6-104.5c11.4-7.1,21.6-23.6,24.7-38.8L364.6,74.3L364.7,237L364.7,237z"/>
		<path class="st4" d="M247.6,280.4c48.1,0,87.3,39.2,87.3,87.2c0,48.1-39.2,87.3-87.3,87.3s-87.2-39.2-87.2-87.3
			C160.3,319.6,199.5,280.4,247.6,280.4L247.6,280.4z"/>
		<path class="st5" d="M247.6,73.6c48.1,0,87.3,39.2,87.3,87.3s-39.2,87.2-87.3,87.2s-87.2-39.2-87.2-87.2
			C160.3,112.8,199.5,73.6,247.6,73.6L247.6,73.6z"/>
		<path class="st6" d="M247.6,486c48.1,0,87.3,39.2,87.3,87.3s-39.2,87.2-87.3,87.2s-87.2-39.2-87.2-87.2
			C160.3,525.2,199.5,486,247.6,486L247.6,486z"/>
		<path class="st7" d="M247.6,280.4c48.1,0,87.3,39.2,87.3,87.2c0,48.1-39.2,87.3-87.3,87.3s-87.2-39.2-87.2-87.3
			C160.3,319.6,199.5,280.4,247.6,280.4L247.6,280.4z"/>
		<path class="st8" d="M247.6,73.6c48.1,0,87.3,39.2,87.3,87.3s-39.2,87.2-87.3,87.2s-87.2-39.2-87.2-87.2
			C160.3,112.8,199.5,73.6,247.6,73.6L247.6,73.6z"/>
		<path class="st8" d="M247.6,486c48.1,0,87.3,39.2,87.3,87.3s-39.2,87.2-87.3,87.2s-87.2-39.2-87.2-87.2
			C160.3,525.2,199.5,486,247.6,486L247.6,486z"/>
	</g>
</g>
</svg>
