<?xml version="1.0" encoding="utf-8"?>
<!-- Generator: Adobe Illustrator 19.2.0, SVG Export Plug-In . SVG Version: 6.00 Build 0)  -->
<svg version="1.1" id="Livello_1" xmlns="http://www.w3.org/2000/svg" xmlns:xlink="http://www.w3.org/1999/xlink" x="0px" y="0px"
	 viewBox="0 0 878 626.6" style="enable-background:new 0 0 878 626.6;" xml:space="preserve">
<style type="text/css">
	.st0{fill:#FFFFFF;stroke:#1A171B;stroke-width:2.872;stroke-miterlimit:2.6131;}
	.st1{fill:#1A171B;stroke:#1A171B;stroke-width:0.8616;stroke-miterlimit:2.6131;}
	.st2{fill:#E1001A;stroke:#E1001A;stroke-width:0.8616;stroke-miterlimit:2.6131;}
	.st3{fill:#FFEC00;stroke:#FFEC00;stroke-width:0.8616;stroke-miterlimit:2.6131;}
	.st4{fill:#008F36;stroke:#008F36;stroke-width:0.8616;stroke-miterlimit:2.6131;}
	.st5{fill:none;stroke:#1A171B;stroke-width:0.8616;stroke-miterlimit:2.6131;}
</style>
<g>
	<g>
		<polygon class="st0" points="624.9,3.1 873,3.1 873,623.5 624.9,623.5 		"/>
		<polygon class="st0" points="314,3.1 562,3.1 562,623.5 314,623.5 		"/>
		<polygon class="st0" points="3,3.1 251.1,3.1 251.1,623.5 3,623.5 		"/>
		<path class="st1" d="M749.2,32.3c45.3,0,82.3,37,82.3,82.3s-37,82.3-82.3,82.3s-82.3-37-82.3-82.3S703.8,32.3,749.2,32.3
			L749.2,32.3z"/>
		<polygon class="st2" points="738.9,103.9 770.3,72.4 801.4,103.7 814.6,90.6 769.8,45.9 725.4,90.3 		"/>
		<polygon class="st2" points="714,168.3 697.4,139.6 726,123.2 719.1,111.2 678.1,134.8 701.6,175.5 		"/>
		<polygon class="st2" points="780.6,97.6 759.2,97.6 759.2,147.2 721.5,137.1 717.2,153 759.2,164.2 759.2,182 780.6,182 		"/>
		<path class="st1" d="M748.8,231c45.3,0,82.3,37,82.3,82.3s-37,82.3-82.3,82.3s-82.3-37-82.3-82.3S703.4,231,748.8,231L748.8,231z"
			/>
		<polygon class="st3" points="738.5,302.6 769.9,271.2 801,302.4 814.2,289.3 769.4,244.6 725,289 		"/>
		<polygon class="st3" points="713.6,367 697,338.3 725.6,321.9 718.7,309.9 677.8,333.6 701.2,374.2 		"/>
		<polygon class="st3" points="780.2,296.4 758.8,296.4 758.8,345.9 721.1,335.8 716.8,351.7 758.8,362.9 758.8,380.7 780.2,380.7 
					"/>
		<path class="st1" d="M749,432.8c45.4,0,82.5,37,82.5,82.5s-37,82.5-82.5,82.5s-82.5-37-82.5-82.5S703.5,432.8,749,432.8L749,432.8
			z"/>
		<polygon class="st4" points="738.7,504.5 770.2,473 801.4,504.3 814.6,491.2 769.6,446.3 725.1,490.9 		"/>
		<polygon class="st4" points="713.7,569.1 697.1,540.3 725.7,523.9 718.8,511.8 677.8,535.5 701.3,576.3 		"/>
		<polygon class="st4" points="780.5,498.2 759,498.2 759,547.9 721.2,537.8 716.9,553.7 759,565 759,582.8 780.5,582.8 		"/>
		<path class="st5" d="M749.1,231c45.4,0,82.4,37,82.4,82.4s-37,82.4-82.4,82.4s-82.4-37-82.4-82.4C666.7,268,703.7,231,749.1,231
			L749.1,231z"/>
		<path class="st5" d="M749.1,31.8c45.5,0,82.7,37.1,82.7,82.7s-37.1,82.7-82.7,82.7c-45.5,0-82.7-37.1-82.7-82.7
			S703.5,31.8,749.1,31.8L749.1,31.8z"/>
		<path class="st5" d="M749.1,432.1c45.5,0,82.7,37.1,82.7,82.7c0,45.5-37.1,82.7-82.7,82.7c-45.5,0-82.7-37.1-82.7-82.7
			C666.4,469.2,703.5,432.1,749.1,432.1L749.1,432.1z"/>
		<path class="st1" d="M520,115c0-45.3-37-82.3-82.3-82.3s-82.3,37-82.3,82.3s37,82.3,82.3,82.3S520,160.3,520,115L520,115z"/>
		<polygon class="st2" points="427.9,65.9 441.3,52.7 503.4,114.8 441.4,177 428,163.7 476.9,114.9 		"/>
		<polygon class="st2" points="450.9,104.4 450.9,124.9 373.7,124.9 373.7,104.4 		"/>
		<path class="st1" d="M520,313.7c0-45.3-37-82.3-82.3-82.3s-82.3,37-82.3,82.3s37,82.3,82.3,82.3S520,359.1,520,313.7L520,313.7z"
			/>
		<polygon class="st3" points="427.9,264.7 441.3,251.4 503.4,313.5 441.4,375.7 428,362.5 476.9,313.6 		"/>
		<polygon class="st3" points="450.9,303.2 450.9,323.7 373.7,323.7 373.7,303.2 		"/>
		<path class="st1" d="M520.4,515.7c0-45.4-37-82.5-82.5-82.5s-82.5,37-82.5,82.5s37,82.5,82.5,82.5S520.4,561.1,520.4,515.7
			L520.4,515.7z"/>
		<polygon class="st4" points="428.1,466.5 441.5,453.2 503.8,515.5 441.6,577.8 428.2,564.5 477.2,515.6 		"/>
		<polygon class="st4" points="451.2,505.1 451.2,525.6 373.7,525.6 373.7,505.1 		"/>
		<path class="st5" d="M438.1,231c45.4,0,82.4,37,82.4,82.4s-37,82.4-82.4,82.4s-82.4-37-82.4-82.4S392.7,231,438.1,231L438.1,231z"
			/>
		<path class="st5" d="M438.1,31.8c45.5,0,82.7,37.1,82.7,82.7s-37.1,82.7-82.7,82.7s-82.7-37.1-82.7-82.7S392.6,31.8,438.1,31.8
			L438.1,31.8z"/>
		<path class="st5" d="M438.1,432.1c45.5,0,82.7,37.1,82.7,82.7c0,45.5-37.1,82.7-82.7,82.7s-82.7-37.1-82.7-82.7
			C355.4,469.2,392.6,432.1,438.1,432.1L438.1,432.1z"/>
		<path class="st1" d="M127.4,32.5c-45.3,0-82.3,37-82.3,82.3s37,82.3,82.3,82.3s82.3-37,82.3-82.3S172.7,32.5,127.4,32.5
			L127.4,32.5z"/>
		<polygon class="st2" points="78.5,124.4 65.2,111.1 127.4,49 189.5,111 176.3,124.3 127.5,75.5 		"/>
		<polygon class="st2" points="117,101.4 137.5,101.4 137.5,178.7 117,178.7 		"/>
		<path class="st1" d="M127.4,231.3c-45.3,0-82.3,37-82.3,82.3s37,82.3,82.3,82.3s82.3-37,82.3-82.3S172.7,231.3,127.4,231.3
			L127.4,231.3z"/>
		<polygon class="st3" points="78.5,323.3 65.2,309.9 127.4,247.8 189.5,309.8 176.3,323.2 127.5,274.3 		"/>
		<polygon class="st3" points="117,300.3 137.5,300.3 137.5,377.5 117,377.5 		"/>
		<path class="st1" d="M127.3,433c-45.4,0-82.4,37-82.4,82.4s37,82.4,82.4,82.4s82.4-37,82.4-82.4C209.7,470,172.7,433,127.3,433
			L127.3,433z"/>
		<polygon class="st4" points="78.1,525.2 64.9,511.9 127.1,449.6 189.4,511.8 176.1,525.1 127.2,476.2 		"/>
		<polygon class="st4" points="116.7,502.2 137.2,502.2 137.2,579.5 116.7,579.5 		"/>
		<path class="st5" d="M127.2,231c45.4,0,82.4,37,82.4,82.4s-37,82.4-82.4,82.4s-82.4-37-82.4-82.4C44.7,268,81.8,231,127.2,231
			L127.2,231z"/>
		<path class="st5" d="M127.2,31.8c45.5,0,82.7,37.1,82.7,82.7s-37.1,82.7-82.7,82.7c-45.5,0-82.7-37.1-82.7-82.7
			S81.6,31.8,127.2,31.8L127.2,31.8z"/>
		<path class="st5" d="M127.2,432.1c45.5,0,82.7,37.1,82.7,82.7c0,45.5-37.1,82.7-82.7,82.7c-45.5,0-82.7-37.1-82.7-82.7
			S81.6,432.1,127.2,432.1L127.2,432.1z"/>
	</g>
</g>
</svg>
