<?xml version="1.0" encoding="utf-8"?>
<!-- Generator: Adobe Illustrator 19.2.0, SVG Export Plug-In . SVG Version: 6.00 Build 0)  -->
<svg version="1.1" id="Livello_1" xmlns="http://www.w3.org/2000/svg" xmlns:xlink="http://www.w3.org/1999/xlink" x="0px" y="0px"
	 viewBox="0 0 393.1 725.4" style="enable-background:new 0 0 393.1 725.4;" xml:space="preserve">
<style type="text/css">
	.st0{fill:#FFFFFF;stroke:#1A171B;stroke-width:3.3043;stroke-miterlimit:2.6131;}
	.st1{fill:none;stroke:#1A171B;stroke-width:0.9913;stroke-miterlimit:2.6131;}
	.st2{fill:#1A171B;stroke:#1A171B;stroke-width:0.9913;stroke-miterlimit:2.6131;}
	.st3{fill:#FFFFFF;stroke:#FFFFFF;stroke-width:0.9913;stroke-miterlimit:2.6131;}
	.st4{fill:#FFEC00;stroke:#FFEC00;stroke-width:0.9913;stroke-miterlimit:2.6131;}
</style>
<g>
	<g>
		<polygon class="st0" points="102.3,2.3 390.2,2.3 390.2,722.3 102.3,722.3 		"/>
		<path class="st1" d="M246.4,266.7c52.7,0,95.7,43,95.7,95.7s-43,95.7-95.7,95.7s-95.7-43-95.7-95.7
			C150.7,309.7,193.7,266.7,246.4,266.7L246.4,266.7z"/>
		<path class="st1" d="M246.4,35.5c52.9,0,96,43.1,96,96s-43.1,96-96,96s-96-43.1-96-96S193.5,35.5,246.4,35.5L246.4,35.5z"/>
		<path class="st1" d="M246.4,500.1c52.9,0,96,43.1,96,96s-43.1,96-96,96s-96-43.1-96-96C150.4,543.2,193.5,500.1,246.4,500.1
			L246.4,500.1z"/>
		<path class="st2" d="M246,36.2c52.6,0,95.4,42.9,95.4,95.4c0,52.6-42.9,95.4-95.4,95.4c-52.6,0-95.4-42.9-95.4-95.4
			C150.6,79,193.5,36.2,246,36.2L246,36.2z"/>
		<polygon class="st3" points="162.7,115.7 329.6,115.7 329.6,149.5 162.7,149.5 		"/>
		<path class="st2" d="M342.4,596.3c0,52.9-43.1,96-96,96s-96-43.1-96-96s43.1-96,96-96C299.3,500.2,342.4,543.4,342.4,596.3
			L342.4,596.3z"/>
		<polygon class="st3" points="262.6,512.3 262.6,680.2 228.5,680.2 228.5,512.3 		"/>
		<path class="st2" d="M341.5,362.1c0,52.6-42.9,95.4-95.4,95.4c-52.6,0-95.4-42.9-95.4-95.4c0-52.6,42.9-95.4,95.4-95.4
			C298.6,266.6,341.5,309.5,341.5,362.1L341.5,362.1z"/>
		<polygon class="st4" points="178.6,407.6 246,288.4 313.6,407.6 		"/>
	</g>
</g>
</svg>
