<?xml version="1.0" encoding="utf-8"?>
<!-- Generator: Adobe Illustrator 19.2.0, SVG Export Plug-In . SVG Version: 6.00 Build 0)  -->
<svg version="1.1" id="Livello_1" xmlns="http://www.w3.org/2000/svg" xmlns:xlink="http://www.w3.org/1999/xlink" x="0px" y="0px"
	 viewBox="0 0 393.1 725.4" style="enable-background:new 0 0 393.1 725.4;" xml:space="preserve">
<style type="text/css">
	.st0{fill:#FFFFFF;stroke:#1A171B;stroke-width:3.3043;stroke-miterlimit:2.6131;}
	.st1{fill:none;stroke:#1A171B;stroke-width:0.9913;stroke-miterlimit:2.6131;}
	.st2{fill:#1A171B;stroke:#1A171B;stroke-width:0.9913;stroke-miterlimit:2.6131;}
	.st3{fill:#E1001A;stroke:#E1001A;stroke-width:0.9913;stroke-miterlimit:2.6131;}
	.st4{fill:#FFEC00;stroke:#FFEC00;stroke-width:0.9913;stroke-miterlimit:2.6131;}
	.st5{fill:#008F36;stroke:#008F36;stroke-width:0.9913;stroke-miterlimit:2.6131;}
</style>
<g>
	<g>
		<polygon class="st0" points="102.2,2.3 390.2,2.3 390.2,722.3 102.2,722.3 		"/>
		<path class="st1" d="M246.4,266.8c52.7,0,95.7,43,95.7,95.7s-43,95.7-95.7,95.7s-95.7-43-95.7-95.7S193.7,266.8,246.4,266.8
			L246.4,266.8z"/>
		<path class="st1" d="M246.4,35.5c52.9,0,96,43.1,96,96s-43.1,96-96,96s-96-43.1-96-96S193.5,35.5,246.4,35.5L246.4,35.5z"/>
		<path class="st1" d="M246.4,500.2c52.9,0,96,43.1,96,96s-43.1,96-96,96s-96-43.1-96-96S193.5,500.2,246.4,500.2L246.4,500.2z"/>
		<path class="st2" d="M245.9,36c52.6,0,95.5,42.9,95.5,95.5S298.5,227,245.9,227s-95.5-42.9-95.5-95.5
			C150.5,78.9,193.4,36,245.9,36L245.9,36z"/>
		<path class="st3" d="M229.7,203.6v-97.5l-2.7,8.1v21.4c0,7-9.2,6.8-9.2,0v-29.5c0-8.1-0.3-25.5,18.4-25.2h20
			c18.4,0,18.4,17.1,18.4,25.2v29.8c0,6.8-9.5,6.8-9.5,0V114l-2.7-7.9v97.5c0,7.6-14.4,8.1-14.4,0l0.3-68H244v68
			C244,211.7,229.7,211.7,229.7,203.6L229.7,203.6z"/>
		<path class="st3" d="M245.9,54.2c5.6,0,10.1,4.5,10.1,10.1s-4.5,10.1-10.1,10.1s-10.1-4.5-10.1-10.1S240.4,54.2,245.9,54.2
			L245.9,54.2z"/>
		<path class="st2" d="M245.9,266.7c52.6,0,95.5,42.9,95.5,95.5s-42.9,95.5-95.5,95.5s-95.5-42.9-95.5-95.5
			C150.5,309.6,193.4,266.7,245.9,266.7L245.9,266.7z"/>
		<path class="st4" d="M229.7,434.3v-97.5l-2.7,8.1v21.4c0,7-9.2,6.8-9.2,0v-29.5c0-8.1-0.3-25.5,18.4-25.2h20
			c18.4,0,18.4,17.1,18.4,25.2v29.8c0,6.8-9.5,6.8-9.5,0v-21.9l-2.7-7.9v97.5c0,7.6-14.4,8.1-14.4,0l0.3-68H244v68
			C244,442.4,229.7,442.4,229.7,434.3L229.7,434.3z"/>
		<path class="st4" d="M245.9,284.9c5.6,0,10.1,4.5,10.1,10.1s-4.5,10.1-10.1,10.1s-10.1-4.5-10.1-10.1S240.4,284.9,245.9,284.9
			L245.9,284.9z"/>
		<path class="st2" d="M246.3,500.7c52.7,0,95.7,43,95.7,95.7s-43,95.7-95.7,95.7s-95.7-43-95.7-95.7
			C150.6,543.6,193.6,500.7,246.3,500.7L246.3,500.7z"/>
		<path class="st5" d="M205.1,664.2l34.1-74.3l-4.2-16.1l-16.4,18.4c-5.5,7.7-16.1-0.9-10-8.1c10.2-11.8,20.4-23.6,30.6-35.4
			c1.6-1.4,1.6-1.5,4.6-3c4.3-1.5,8.7-3,13.2-4.5c1.5,0.1,1.5,0.1,3,1.6c8.2,8.8,16.6,17.6,24.9,26.4c1.5,1.5,1.5,3,1.5,4.3
			c0,7.6,0,11.6,0,19.1c0,6.8-11.8,6.8-11.8,0v-16l-10.4-10.2l-3.1,22.3l27.5,76.1c1.8,6.8-10.1,11.6-14,4.9l-24.7-66.4l-31.4,65.3
			C213.6,677.7,202.9,671,205.1,664.2L205.1,664.2z"/>
		<path class="st5" d="M247.3,517.8c6.1,0,11,5,11,11s-5,11-11,11s-11-5-11-11S241.2,517.8,247.3,517.8L247.3,517.8z"/>
	</g>
</g>
</svg>
