<?xml version="1.0" encoding="utf-8"?>
<!-- Generator: Adobe Illustrator 19.2.0, SVG Export Plug-In . SVG Version: 6.00 Build 0)  -->
<svg version="1.1" id="Livello_1" xmlns="http://www.w3.org/2000/svg" xmlns:xlink="http://www.w3.org/1999/xlink" x="0px" y="0px"
	 viewBox="0 0 393.1 725.4" style="enable-background:new 0 0 393.1 725.4;" xml:space="preserve">
<style type="text/css">
	.st0{fill:#FFFFFF;stroke:#1A171B;stroke-width:3.3047;stroke-miterlimit:2.6131;}
	.st1{fill:none;stroke:#1A171B;stroke-width:0.9914;stroke-miterlimit:2.6131;}
	.st2{fill:#1A171B;stroke:#1A171B;stroke-width:0.9914;stroke-miterlimit:2.6131;}
	.st3{fill:#E1001A;stroke:#E1001A;stroke-width:0.9914;stroke-miterlimit:2.6131;}
	.st4{fill:#FFEC00;stroke:#FFEC00;stroke-width:0.9914;stroke-miterlimit:2.6131;}
	.st5{fill:#008F36;stroke:#008F36;stroke-width:0.9914;stroke-miterlimit:2.6131;}
</style>
<g>
	<g>
		<polygon class="st0" points="102.2,2.3 390.2,2.3 390.2,722.3 102.2,722.3 		"/>
		<path class="st1" d="M246.4,266.8c52.7,0,95.7,43,95.7,95.7s-43,95.7-95.7,95.7s-95.7-43-95.7-95.7S193.7,266.8,246.4,266.8
			L246.4,266.8z"/>
		<path class="st1" d="M246.4,35.5c52.9,0,96,43.1,96,96s-43.1,96-96,96s-96-43.1-96-96S193.5,35.5,246.4,35.5L246.4,35.5z"/>
		<path class="st1" d="M246.4,500.2c52.9,0,96,43.1,96,96s-43.1,96-96,96s-96-43.1-96-96S193.5,500.2,246.4,500.2L246.4,500.2z"/>
		<path class="st2" d="M341.3,132.1c0-52.6-42.9-95.5-95.5-95.5s-95.5,42.9-95.5,95.5s42.9,95.5,95.5,95.5S341.3,184.7,341.3,132.1
			L341.3,132.1z"/>
		<path class="st3" d="M294.7,117.3c-3.7,0-7.5,0.8-10.7,2.2l-7.2-11.9l4.7-8.2c2.3,0,4.7,1.7,7,1.7c2-0.3,2.1-7.1-0.5-7.1
			c-4.2,0-12.1-0.3-16.1-0.3c-2,0.7-1.9,2.8,0.8,3.7c1.6,0,2.8,0.7,4.2,0.7l-4.6,8.4l-51-0.2l2.2-4.2c-1.8-5.8-2.5-8.1,0.5-9.8h12.2
			c2.9-0.4,2.4-3.7,0-4.2h-13.1c-4.7,0-6.3,5.1-6.3,7.6l1.3,6.4l-10,17.7c-3.5-1.5-7.5-2.5-11.6-2.5c-15.6,0-28.1,12.6-28.1,28
			s12.5,28.2,28.1,28.2c15.4,0,28.1-12.7,28.1-28.2c0-9.6-5-18.1-12.2-23l4.5-7.4l27.8,26c-0.9,5.8,0.1,11.1,9.4,12.2
			c4.2-0.1,8.7-0.3,13.4-0.8c3.2,12.3,14.2,21.2,27.2,21.2c15.6,0,28.2-12.7,28.2-28.2C322.9,129.9,310.3,117.3,294.7,117.3z
			 M219.5,145.7c0,12.6-10.3,22.9-23,22.9s-22.9-10.3-22.9-22.9c0-12.7,10.3-23.2,22.9-23.2c3.5,0,6.6,0.8,9.3,2.1l-9,15.6
			c-3.2,0.2-5.1,2.6-5.1,5.5c0,2.7,2.4,5,5.1,5c2.8,0,5.4-2.8,5.2-5c-0.2-2.3-1.1-3-1.1-3.1l9.2-15.9
			C215.8,131,219.5,138,219.5,145.7z M290,138.9c-5.7-0.3-16.5-1.2-16.5-1.2c2-5.7,4.2-8.4,8.9-11.7
			C282.4,126,287.3,134.5,290,138.9z M248.3,137.4l-27.5-26.3h48.7l-13.4,24.7C253.8,135,250,135.5,248.3,137.4z M261.4,136.3
			l12.4-23.2l5.8,8.7c-5.4,3-8.8,7.4-11.4,15.2L261.4,136.3z M294.7,168.4c-17-1.2-21.2-16.7-21.2-16.7l21.2-1.7
			c2.9-0.3,5-1.9,5.3-3c0.1-1.6,1.4-6-3.5-7.5c-3-5.4-8.4-13.7-9.3-15.4c2.6-1.3,4.2-1.7,7.5-1.7c12.7,0,23,10.2,23,22.9
			C317.7,158.1,307.5,168.4,294.7,168.4z"/>
		<path class="st2" d="M341.3,362.7c0-52.6-42.9-95.5-95.5-95.5s-95.5,42.9-95.5,95.5s42.9,95.5,95.5,95.5S341.3,415.3,341.3,362.7
			L341.3,362.7z"/>
		<path class="st4" d="M294.7,347.9c-3.7,0-7.5,0.8-10.7,2.2l-7.2-11.9l4.7-8.3c2.3,0,4.7,1.7,7,1.7c2-0.3,2.1-7.1-0.5-7.1
			c-4.2,0-12.1-0.3-16.1-0.3c-2,0.7-1.9,2.8,0.8,3.7c1.6,0,2.8,0.7,4.2,0.7l-4.6,8.5l-51-0.2l2.2-4.2c-1.8-5.8-2.5-8.1,0.5-9.8h12.2
			c2.9-0.4,2.4-3.7,0-4.2h-13.1c-4.7,0-6.3,5.1-6.3,7.6l1.3,6.4l-10,17.7c-3.5-1.5-7.5-2.5-11.6-2.5c-15.6,0-28.1,12.6-28.1,28
			c0,15.5,12.5,28.2,28.1,28.2c15.4,0,28.1-12.7,28.1-28.2c0-9.6-5-18.1-12.2-23l4.5-7.4l27.8,26c-0.9,5.8,0.1,11.1,9.4,12.2
			c4.2-0.1,8.7-0.3,13.4-0.8c3.2,12.3,14.2,21.2,27.2,21.2c15.6,0,28.2-12.7,28.2-28.2C322.9,360.5,310.3,347.9,294.7,347.9z
			 M219.5,376.3c0,12.6-10.3,22.9-23,22.9s-22.9-10.3-22.9-22.9c0-12.7,10.3-23.2,22.9-23.2c3.5,0,6.6,0.8,9.3,2.1l-9,15.6
			c-3.2,0.2-5.1,2.6-5.1,5.5c0,2.7,2.4,5,5.1,5c2.8,0,5.4-2.8,5.2-5c-0.2-2.3-1.1-3-1.1-3.1l9.2-15.9
			C215.8,361.6,219.5,368.6,219.5,376.3z M290,369.5c-5.7-0.2-16.5-1.2-16.5-1.2c2-5.7,4.2-8.4,8.9-11.7
			C282.4,356.6,287.3,365.1,290,369.5z M248.3,368l-27.5-26.3h48.7l-13.4,24.7C253.8,365.6,250,366.1,248.3,368z M261.4,366.9
			l12.4-23.2l5.8,8.7c-5.4,3-8.8,7.4-11.4,15.2L261.4,366.9z M294.7,399c-17-1.2-21.2-16.7-21.2-16.7l21.2-1.7c2.9-0.3,5-1.9,5.3-3
			c0.1-1.6,1.4-6-3.5-7.5c-3-5.4-8.4-13.7-9.3-15.4c2.6-1.3,4.2-1.7,7.5-1.7c12.7,0,23,10.1,23,22.9S307.5,399,294.7,399z"/>
		<path class="st2" d="M342.6,596.6c0-52.9-43.2-96.1-96.1-96.1s-96.1,43.2-96.1,96.1s43.2,96.1,96.1,96.1
			C299.4,692.7,342.6,649.5,342.6,596.6L342.6,596.6z"/>
		<path class="st5" d="M295.7,581.7c-3.7,0-7.5,0.8-10.8,2.2l-7.3-12l4.5-8.2c2.4,0,4.7,1.7,7.1,1.7c2-0.3,2.1-7.1-0.5-7.1
			c-4.2,0-12.2-0.3-16.2-0.3c-2,0.7-1.9,2.8,0.8,3.7c1.7,0,2.9,0.7,4.3,0.7l-4.6,8.5l-51.3-0.2l2.2-4.3c-1.9-5.9-2.5-8.2,0.5-9.9
			h12.3c3-0.5,2.4-3.8,0-4.3h-12.9c-4.7,0-6.3,5.2-6.3,7.7l1.3,6.5l-10,17.8c-3.6-1.5-7.5-2.5-11.7-2.5c-15.7,0-28.3,12.7-28.3,28.2
			c0,15.6,12.6,28.4,28.3,28.4c15.4,0,28.2-12.8,28.2-28.4c0-9.7-5-18.3-12.3-23.2l4.5-7.4l28,26.2c-1,5.8,0.1,11.2,9.4,12.3
			c4.2-0.1,8.8-0.3,13.5-0.8c3.2,12.3,14.2,21.3,27.3,21.3c15.7,0,28.4-12.8,28.4-28.4C324.1,594.4,311.4,581.7,295.7,581.7z
			 M219.9,610.3c0,12.7-10.4,23-23.2,23c-12.8,0-23.1-10.3-23.1-23c0-12.8,10.3-23.3,23.1-23.3c3.5,0,6.6,0.8,9.3,2.1l-8.9,15.7
			c-3.3,0.2-5.2,2.6-5.2,5.5c0,2.7,2.4,5,5.2,5c2.8,0,5.4-2.8,5.2-5c-0.2-2.4-1.1-3-1.1-3.1l9.3-16
			C216.2,595.5,219.9,602.6,219.9,610.3z M248.9,601.9l-27.6-26.4h49l-13.5,24.8C254.4,599.5,250.6,600,248.9,601.9z M262.1,600.8
			l12.5-23.3l5.8,8.7c-5.4,3-8.8,7.4-11.5,15.3L262.1,600.8z M283.3,590.4c0,0,4.9,8.6,7.7,13c-5.8-0.2-16.7-1.2-16.7-1.2
			C276.3,596.5,278.5,593.8,283.3,590.4z M295.7,633.1c-17.1-1.2-21.3-16.8-21.3-16.8l21.3-1.7c2.9-0.3,5-1.9,5.3-3
			c0-1.7,1.4-6.1-3.6-7.6c-2.9-5.4-8.4-13.8-9.3-15.5c2.7-1.3,4.3-1.7,7.6-1.7c12.9,0,23.2,10.3,23.2,23.1
			C318.9,622.8,308.5,633.1,295.7,633.1z"/>
	</g>
</g>
</svg>
