<?xml version="1.0" encoding="utf-8"?>
<!-- Generator: Adobe Illustrator 19.2.0, SVG Export Plug-In . SVG Version: 6.00 Build 0)  -->
<svg version="1.1" id="Livello_1" xmlns="http://www.w3.org/2000/svg" xmlns:xlink="http://www.w3.org/1999/xlink" x="0px" y="0px"
	 viewBox="0 0 886 680.3" style="enable-background:new 0 0 886 680.3;" xml:space="preserve">
<style type="text/css">
	.st0{fill:#1A171B;stroke:#1A171B;stroke-width:0.9204;stroke-miterlimit:2.6131;}
	.st1{fill:#FFEC00;stroke:#FFEC00;stroke-width:0.9204;stroke-miterlimit:2.6131;}
	.st2{fill:#008F36;stroke:#008F36;stroke-width:0.9204;stroke-miterlimit:2.6131;}
	.st3{fill:#E1001A;stroke:#E1001A;stroke-width:0.9204;stroke-miterlimit:2.6131;}
	.st4{fill:none;stroke:#1A171B;stroke-width:3.0681;stroke-miterlimit:2.6131;}
	.st5{fill:none;stroke:#1A171B;stroke-width:0.9204;stroke-miterlimit:2.6131;}
	.st6{fill:#D8D9DA;stroke:#C5C6C8;stroke-width:0.9204;stroke-miterlimit:2.6131;}
	.st7{fill:#FFFFFF;stroke:#1A171B;stroke-width:0.9204;stroke-miterlimit:2.6131;}
	.st8{fill:#868789;stroke:#1A171B;stroke-width:0.9204;stroke-miterlimit:2.6131;}
	.st9{fill:none;stroke:#1A171B;stroke-width:0.9204;stroke-miterlimit:2.6131;stroke-dasharray:4.6021,4.6021;}
	.st10{fill:#1A171B;}
</style>
<g>
	<g>
		<path class="st0" d="M656.6,49c-48.8,0-88.6,39.8-88.6,88.6s39.8,88.6,88.6,88.6s88.6-39.8,88.6-88.6
			C745.2,88.8,705.4,49,656.6,49L656.6,49z"/>
		<polygon class="st1" points="686.4,91.5 706.6,91.6 706.6,186.2 612.1,186.3 612,166.1 686.4,166.1 		"/>
		<polygon class="st1" points="674.6,138.4 659,154 600.2,95.2 615.8,79.6 		"/>
		<path class="st0" d="M353.7,137.3c0,48.8,39.8,88.7,88.7,88.7c48.8,0,88.7-39.8,88.7-88.7c0-48.8-39.8-88.7-88.7-88.7
			C393.5,48.7,353.7,88.5,353.7,137.3L353.7,137.3z"/>
		<polygon class="st2" points="494,125.7 508.3,140.1 441.3,207.1 374.3,140.2 388.6,125.8 441.2,178.5 		"/>
		<polygon class="st2" points="452.5,150.5 430.4,150.5 430.4,67.3 452.5,67.3 		"/>
		<path class="st0" d="M313.6,138.3c0-48.9-39.9-88.9-88.9-88.9s-88.9,39.9-88.9,88.9c0,48.9,39.9,88.9,88.9,88.9
			S313.6,187.3,313.6,138.3L313.6,138.3z"/>
		<polygon class="st3" points="218,114.3 202.4,130 165.7,93.3 181.3,77.6 		"/>
		<polygon class="st3" points="246.6,128.8 230.9,113.1 267.6,76.4 283.3,92.1 		"/>
		<polygon class="st3" points="282.9,179.4 267.3,195.1 230.6,158.4 246.3,142.7 		"/>
		<polygon class="st3" points="181.5,193.9 165.8,178.2 202.5,141.5 218.2,157.2 		"/>
		<polygon class="st4" points="776.4,3.9 776.4,271.3 107.9,271.3 107.9,3.9 		"/>
		<path class="st5" d="M530.8,137.7c0,48.9-39.9,88.8-88.8,88.8s-88.8-39.9-88.8-88.8s39.9-88.8,88.8-88.8S530.8,88.8,530.8,137.7
			L530.8,137.7z"/>
		<path class="st5" d="M745.6,137.7c0,49.1-40,89.1-89.1,89.1s-89.1-40-89.1-89.1s40-89.1,89.1-89.1
			C705.5,48.6,745.6,88.7,745.6,137.7L745.6,137.7z"/>
		<path class="st5" d="M314.1,137.7c0,49.1-40,89.1-89.1,89.1s-89.1-40-89.1-89.1s40-89.1,89.1-89.1S314.1,88.7,314.1,137.7
			L314.1,137.7z"/>
		<polygon class="st6" points="868,658 868,402.4 22.2,402.4 22.2,658 31.8,658 31.8,423.4 856.7,423.4 856.7,658 		"/>
		<polygon class="st7" points="864.4,653.9 864.4,398.3 18.6,398.3 18.6,653.9 28.2,653.9 28.2,419.3 853.1,419.3 853.1,653.9 		"/>
		<polygon class="st0" points="618.5,437.1 455.5,437.1 455.5,359.5 618.5,359.5 		"/>
		<polygon class="st0" points="432.6,437.1 269.6,437.1 269.6,359.5 432.6,359.5 		"/>
		<polygon class="st7" points="451.8,433.8 615.2,433.8 615.2,356.2 451.8,356.2 		"/>
		<polygon class="st7" points="265.9,433.8 429.3,433.8 429.3,356.2 265.9,356.2 		"/>
		<path class="st0" d="M399.3,375.8c-9.9,0-17.9,8-17.9,17.9s8,17.9,17.9,17.9s17.9-8,17.9-17.9
			C417.2,383.9,409.2,375.8,399.3,375.8L399.3,375.8z"/>
		<polygon class="st1" points="405.4,384.4 409.4,384.4 409.4,403.6 390.3,403.6 390.3,399.5 405.4,399.5 		"/>
		<polygon class="st1" points="403,393.9 399.8,397.1 387.9,385.2 391.1,382 		"/>
		<path class="st0" d="M516.2,393.7c0,9.9,8,17.9,17.9,17.9s17.9-8,17.9-17.9s-8-17.9-17.9-17.9S516.2,383.8,516.2,393.7
			L516.2,393.7z"/>
		<polygon class="st2" points="544.5,391.3 547.4,394.2 533.9,407.8 520.3,394.2 523.2,391.3 533.8,402 		"/>
		<polygon class="st2" points="536.1,396.3 531.7,396.3 531.7,379.5 536.1,379.5 		"/>
		<polygon class="st8" points="595.8,669.8 877.3,669.8 877.3,653.7 801.8,653.7 801.8,660.3 287.2,660.3 287.3,660.3 82.9,660.3 
			82.9,653.9 7.3,653.9 7.3,670 595.8,670 		"/>
		<polygon class="st5" points="456.6,424.1 610.3,424.1 610.3,365.9 456.6,365.9 		"/>
		<polygon class="st5" points="270.8,424.1 424.6,424.1 424.6,365.9 270.8,365.9 		"/>
		<polygon class="st0" points="777.1,437.1 668.8,437.1 668.8,359.5 777.1,359.5 		"/>
		<polygon class="st0" points="220.7,437.1 112.4,437.1 112.4,359.5 220.7,359.5 		"/>
		<polygon class="st5" points="507.4,424.1 559.6,424.1 559.6,365.9 507.4,365.9 		"/>
		<polygon class="st5" points="321.5,424.1 373.7,424.1 373.7,365.9 321.5,365.9 		"/>
		<polygon class="st7" points="773.6,433.6 665.3,433.6 665.3,356 773.6,356 		"/>
		<polygon class="st7" points="217.3,433.6 108.9,433.6 108.9,356 217.3,356 		"/>
		<polygon class="st5" points="719.2,423.9 670.9,423.9 670.9,365.7 719.2,365.7 		"/>
		<polygon class="st5" points="162.9,423.9 114.5,423.9 114.5,365.7 162.9,365.7 		"/>
		<polygon class="st5" points="768.4,423.9 719.4,423.9 719.4,365.7 768.4,365.7 		"/>
		<polygon class="st5" points="212,423.9 163,423.9 163,365.7 212,365.7 		"/>
		<path class="st0" d="M156.9,393.9c0-10-8.2-18.2-18.2-18.2s-18.2,8.2-18.2,18.2s8.2,18.2,18.2,18.2
			C148.8,412,156.9,403.9,156.9,393.9L156.9,393.9z"/>
		<polygon class="st3" points="137.4,389 134.2,392.2 126.7,384.7 129.9,381.5 		"/>
		<polygon class="st3" points="143.2,391.9 140,388.7 147.5,381.2 150.7,384.4 		"/>
		<polygon class="st3" points="150.7,402.3 147.5,405.5 140,398 143.2,394.8 		"/>
		<polygon class="st3" points="129.9,405.2 126.7,402 134.2,394.5 137.4,397.7 		"/>
		<path class="st0" d="M726.1,393.7c0,9.9,8,17.9,17.9,17.9s17.9-8,17.9-17.9s-8-17.9-17.9-17.9S726.1,383.8,726.1,393.7
			L726.1,393.7z"/>
		<polygon class="st2" points="754.4,391.3 757.3,394.2 743.8,407.8 730.2,394.2 733.1,391.3 743.7,402 		"/>
		<polygon class="st2" points="746,396.3 741.6,396.3 741.6,379.5 746,379.5 		"/>
		<polygon class="st0" points="247.5,655.2 261.6,655.2 261.6,660.1 247.5,660.1 		"/>
		<polygon class="st0" points="433.2,655.2 447.4,655.2 447.4,660.1 433.2,660.1 		"/>
		<polygon class="st0" points="620.1,655.2 634.3,655.2 634.3,660.1 620.1,660.1 		"/>
		<line class="st9" x1="163.8" y1="439.7" x2="163.8" y2="660"/>
		<line class="st9" x1="348.7" y1="439.7" x2="348.7" y2="660"/>
		<line class="st9" x1="534.1" y1="439.7" x2="534.1" y2="660"/>
		<line class="st9" x1="719" y1="439.7" x2="719" y2="660"/>
		<path class="st10" d="M86.2,70.9H71.5l-5.9-15.2H38.8l-5.5,15.2H18.9L45,3.8h14.3L86.2,70.9L86.2,70.9z M61.3,44.3l-9.2-24.9
			L43,44.3H61.3L61.3,44.3z"/>
		<path class="st10" d="M807.1,305.6h26.8c5.3,0,9.3,0.2,11.9,0.7c2.6,0.4,4.9,1.4,7,2.8s3.8,3.3,5.1,5.6c1.4,2.3,2.1,4.9,2.1,7.8
			c0,3.1-0.8,6-2.5,8.6s-4,4.6-6.9,5.9c4.1,1.2,7.2,3.2,9.4,6.1s3.3,6.2,3.3,10.1c0,3-0.7,6-2.1,8.9c-1.4,2.9-3.4,5.2-5.8,6.9
			c-2.5,1.7-5.5,2.8-9.1,3.2c-2.2,0.2-7.7,0.4-16.3,0.5h-22.8v-67.1H807.1z M820.6,316.7v15.5h8.9c5.3,0,8.6-0.1,9.8-0.2
			c2.3-0.3,4.1-1.1,5.5-2.4c1.3-1.3,2-3.1,2-5.2s-0.6-3.8-1.7-5.1c-1.2-1.3-2.9-2.1-5.1-2.3c-1.3-0.2-5.2-0.2-11.6-0.2L820.6,316.7
			L820.6,316.7z M820.6,343.4v17.9h12.5c4.9,0,8-0.1,9.3-0.4c2-0.4,3.7-1.3,4.9-2.7c1.3-1.4,1.9-3.3,1.9-5.7c0-2-0.5-3.7-1.5-5.1
			s-2.4-2.4-4.2-3.1c-1.8-0.6-5.9-1-12-1h-10.9V343.4z"/>
	</g>
</g>
</svg>
