<?xml version="1.0" encoding="utf-8"?>
<!-- Generator: Adobe Illustrator 19.2.0, SVG Export Plug-In . SVG Version: 6.00 Build 0)  -->
<svg version="1.1" id="Livello_1" xmlns="http://www.w3.org/2000/svg" xmlns:xlink="http://www.w3.org/1999/xlink" x="0px" y="0px"
	 viewBox="0 0 417.3 732" style="enable-background:new 0 0 417.3 732;" xml:space="preserve">
<style type="text/css">
	.st0{fill:#FFEC00;stroke:#1A171B;stroke-width:1.4496;stroke-miterlimit:2.6131;}
	.st1{fill:none;stroke:#1A171B;stroke-width:1.0872;stroke-miterlimit:2.6131;}
	.st2{fill:#1A171B;stroke:#1A171B;stroke-width:1.0872;stroke-miterlimit:2.6131;}
	.st3{fill:#FFEC00;stroke:#FFEC00;stroke-width:1.0872;stroke-miterlimit:2.6131;}
	.st4{fill:#1A171B;}
</style>
<g>
	<g>
		<path class="st0" d="M209.2,5.6c58,0,105.3,47.3,105.3,105.3s-47.3,105.3-105.3,105.3s-105.3-47.3-105.3-105.3
			S151.2,5.6,209.2,5.6L209.2,5.6z"/>
		<path class="st1" d="M208.7,258.9c57.8,0,104.9,47.1,104.9,104.9s-47.1,104.9-104.9,104.9s-104.9-47.1-104.9-104.9
			S150.9,258.9,208.7,258.9L208.7,258.9z"/>
		<path class="st2" d="M208.2,258.7c57.6,0,104.6,47,104.6,104.6s-47,104.6-104.6,104.6s-104.6-47-104.6-104.6
			C103.6,305.7,150.6,258.7,208.2,258.7L208.2,258.7z"/>
		<path class="st3" d="M163,437.5l37.3-81.2l-4.6-17.6l-17.9,20.1c-6,8.4-17.6-1-10.9-8.9c11.1-12.9,22.3-25.8,33.4-38.7
			c1.8-1.5,1.8-1.6,5-3.3c4.8-1.6,9.5-3.3,14.4-4.9c1.6,0.1,1.6,0.1,3.3,1.8c9,9.6,18.1,19.3,27.3,28.9c1.6,1.6,1.6,3.3,1.6,4.8
			c0,8.3,0,12.6,0,20.9c0,7.4-12.9,7.4-12.9,0v-17.5l-11.3-11.4l-3.4,24.4l30,83.2c2,7.4-11,12.6-15.3,5.4l-27-72.6l-34.3,71.5
			C172.4,452.3,160.7,444.9,163,437.5L163,437.5z"/>
		<path class="st3" d="M209.2,277.4c6.6,0,12.1,5.4,12.1,12.1s-5.5,12.1-12.1,12.1s-12.1-5.4-12.1-12.1S202.5,277.4,209.2,277.4
			L209.2,277.4z"/>
		<path class="st1" d="M208.7,514.8c58,0,105.3,47.3,105.3,105.3s-47.3,105.3-105.3,105.3s-105.3-47.3-105.3-105.3
			S150.7,514.8,208.7,514.8L208.7,514.8z"/>
		<path class="st2" d="M312.8,620.7c0-57.8-47.1-104.9-104.9-104.9S103,562.9,103,620.7c0,57.8,47.1,104.9,104.9,104.9
			S312.8,678.5,312.8,620.7L312.8,620.7z"/>
		<path class="st3" d="M261.7,604.6c-4.1,0-8.2,0.9-11.8,2.4l-8-13.1l5.2-9.1c2.6,0,5.1,1.8,7.7,1.8c2.1-0.3,2.2-7.8-0.6-7.8
			c-4.5,0-13.2-0.3-17.6-0.3c-2.2,0.8-2.1,3.1,0.9,4.1c1.8,0,3,0.7,4.6,0.7l-5.1,9.3l-56-0.2l2.4-4.6c-2-6.4-2.7-8.9,0.6-10.8h13.4
			c3.2-0.5,2.7-4,0-4.6h-14.1c-5.2,0-6.9,5.7-6.9,8.4l1.4,7l-10.9,19.5c-3.9-1.6-8.2-2.7-12.8-2.7c-17.1,0-30.9,13.8-30.9,30.7
			c0,17,13.7,31,30.9,31c16.8,0,30.8-14,30.8-31c0-10.5-5.4-19.9-13.4-25.3l4.9-8.1l30.5,28.5c-1.1,6.4,0.1,12.2,10.3,13.4
			c4.6-0.1,9.6-0.3,14.7-0.8c3.4,13.5,15.5,23.3,29.8,23.3c17.2,0,31-14,31-31C292.7,618.4,278.9,604.6,261.7,604.6z M178.9,635.7
			c0,13.8-11.4,25.1-25.3,25.1s-25.2-11.3-25.2-25.1c0-13.9,11.3-25.4,25.2-25.4c3.8,0,7.2,0.9,10.2,2.3l-9.8,17.1
			c-3.6,0.2-5.6,2.8-5.6,6c0,3,2.7,5.5,5.6,5.5c3.1,0,5.9-3.1,5.7-5.5c-0.2-2.6-1.2-3.3-1.2-3.4l10.1-17.5
			C174.8,619.5,178.9,627.2,178.9,635.7z M256.5,628.3c-6.4-0.4-18.2-1.4-18.2-1.4c2.2-6.2,4.6-9.2,9.8-12.8
			C248.1,614.1,253.5,623.5,256.5,628.3z M210.6,626.5l-30.2-28.8h53.4l-14.6,27.1C216.6,624,212.5,624.5,210.6,626.5z M224.9,625.4
			l13.6-25.4l6.4,9.5c-5.9,3.3-9.6,8.1-12.5,16.7L224.9,625.4z M261.6,660.6c-18.7-1.3-23.3-18.3-23.3-18.3l23.3-1.9
			c3.1-0.3,5.5-2.1,5.8-3.3c0-1.8,1.5-6.6-3.9-8.4c-3.2-5.9-9.2-15.1-10.2-16.9c2.9-1.4,4.7-1.8,8.3-1.8c14,0,25.3,11.2,25.3,25.2
			C286.9,649.3,275.6,660.6,261.6,660.6z"/>
		<path class="st4" d="M415.4,143h-14.2l-5.7-14.7h-25.9l-5.3,14.7h-13.9l25.3-64.9h13.8L415.4,143L415.4,143z M391.3,117.4
			l-8.9-24.1l-8.8,24.1H391.3L391.3,117.4z"/>
		<path class="st4" d="M354.6,332.7h25.9c5.1,0,9,0.2,11.5,0.6s4.8,1.3,6.8,2.7c2,1.4,3.6,3.2,5,5.4c1.3,2.3,2,4.8,2,7.6
			c0,3-0.8,5.8-2.4,8.4c-1.6,2.5-3.9,4.4-6.7,5.7c3.9,1.1,7,3.1,9.1,5.9s3.2,6,3.2,9.8c0,2.9-0.7,5.8-2,8.6c-1.4,2.8-3.2,5-5.6,6.7
			c-2.4,1.7-5.3,2.7-8.8,3.1c-2.2,0.2-7.4,0.4-15.8,0.4h-22.1v-64.9L354.6,332.7L354.6,332.7z M367.7,343.5v15h8.6
			c5.1,0,8.3-0.1,9.5-0.2c2.2-0.3,4-1,5.3-2.3s1.9-3,1.9-5.1c0-2-0.5-3.6-1.6-4.9s-2.8-2-4.9-2.3c-1.3-0.1-5-0.2-11.2-0.2H367.7
			L367.7,343.5z M367.7,369.3v17.3h12.1c4.7,0,7.7-0.1,9-0.4c2-0.3,3.5-1.2,4.8-2.6c1.2-1.4,1.8-3.2,1.8-5.5c0-1.9-0.5-3.6-1.4-4.9
			c-0.9-1.4-2.3-2.4-4.1-3s-5.7-0.9-11.6-0.9H367.7L367.7,369.3z"/>
		<path class="st4" d="M393.8,630.5l12.7,4c-1.9,7.1-5.2,12.3-9.7,15.8c-4.5,3.4-10.3,5.1-17.2,5.1c-8.6,0-15.7-2.9-21.2-8.8
			c-5.5-5.9-8.3-13.9-8.3-24.1c0-10.8,2.8-19.2,8.4-25.2c5.6-6,12.9-9,22-9c7.9,0,14.4,2.3,19.3,7c3,2.8,5.2,6.7,6.6,11.9l-13,3.1
			c-0.8-3.4-2.4-6-4.8-8c-2.4-1.9-5.4-2.9-8.9-2.9c-4.8,0-8.7,1.7-11.7,5.2c-3,3.4-4.5,9-4.5,16.8c0,8.2,1.5,14,4.4,17.5
			s6.8,5.2,11.5,5.2c3.5,0,6.5-1.1,9-3.3C390.9,638.8,392.7,635.3,393.8,630.5L393.8,630.5z"/>
	</g>
</g>
</svg>
