<?xml version="1.0" encoding="utf-8"?>
<!-- Generator: Adobe Illustrator 19.2.0, SVG Export Plug-In . SVG Version: 6.00 Build 0)  -->
<svg version="1.1" id="Livello_1" xmlns="http://www.w3.org/2000/svg" xmlns:xlink="http://www.w3.org/1999/xlink" x="0px" y="0px"
	 viewBox="0 0 394 727" style="enable-background:new 0 0 394 727;" xml:space="preserve">
<style type="text/css">
	.st0{fill:#FFFFFF;stroke:#1A171B;stroke-width:3.3043;stroke-miterlimit:2.6131;}
	.st1{fill:none;stroke:#1A171B;stroke-width:0.9913;stroke-miterlimit:2.6131;}
	.st2{fill:#1A171B;stroke:#1A171B;stroke-width:0.9913;stroke-miterlimit:2.6131;}
	.st3{fill:#FFFFFF;}
</style>
<g>
	<g>
		<polygon class="st0" points="102,2.7 390,2.7 390,722.7 102,722.7 		"/>
		<path class="st1" d="M246.2,267.2c52.7,0,95.7,43,95.7,95.7s-43,95.7-95.7,95.7s-95.7-43-95.7-95.7S193.5,267.2,246.2,267.2
			L246.2,267.2z"/>
		<path class="st1" d="M246.2,500.6c52.9,0,96,43.1,96,96s-43.1,96-96,96s-96-43.1-96-96S193.3,500.6,246.2,500.6L246.2,500.6z"/>
		<path class="st1" d="M245.8,35.7c52.9,0,96,43.1,96,96s-43.1,96-96,96s-96-43.1-96-96C149.9,78.8,193,35.7,245.8,35.7L245.8,35.7z
			"/>
		<path class="st2" d="M150.3,131.8c0,52.6,42.9,95.5,95.5,95.5s95.5-42.9,95.5-95.5s-42.9-95.5-95.5-95.5S150.3,79.2,150.3,131.8
			L150.3,131.8z"/>
		<path class="st3" d="M191.2,156.6l14-2.1c0.2,4.6,1.5,8.3,3.2,10.7c1.9,2.5,4.3,4,6.8,4c2.8,0,5.3-1.8,7.2-4.9
			c2.1-3.1,3.2-8.3,3.2-15c0-6.1-1.1-11.4-3-14.4c-1.9-3.1-4.7-4.9-7.9-4.9c-3.8,0-7.7,2.8-10.6,8l-11.3-2.5L200,79h37v19h-26.4
			l-2.3,18.4c3-2.5,6.4-3.7,9.6-3.7c6.2,0,11.7,3.4,15.9,9.8c4.3,6.8,6.6,15.7,6.6,26.1c0,8.6-1.9,16.9-5.3,23.6
			c-4.7,9.2-11.5,14.1-20,14.1c-6.6,0-12.1-2.8-16.4-8C194.6,173.2,191.9,165.8,191.2,156.6L191.2,156.6z M272.9,77.1
			c7.2,0,13,4,16.8,11.4c4.9,8.6,7.4,23.3,7.4,43.6s-2.6,35-7.4,43.6c-3.8,7.1-9.6,10.7-16.8,10.7s-13.4-4-17.6-12
			c-4.3-8-6.6-22.4-6.6-42.7s2.6-35,7.2-43.6C259.9,80.8,265.6,77.1,272.9,77.1L272.9,77.1z M272.9,94.3c-1.7,0-3.4,0.9-4.7,2.5
			c-1.3,1.5-2.6,4.6-3.2,8.6c-0.9,5.2-1.5,14.4-1.5,26.7s0.4,21.2,1.3,25.5c0.9,4.6,1.9,8,3.2,9.2c1.3,1.5,3.2,2.5,4.9,2.5
			c1.7,0,3.2-0.9,4.5-2.1c1.3-1.5,2.5-4.6,3.4-8.6c0.8-4.9,1.5-14.1,1.5-26.4c0-12.3-0.4-21.2-1.3-25.8c-0.9-4.6-2.1-8-3.4-9.5
			C276.3,95.2,274.6,94.3,272.9,94.3L272.9,94.3z"/>
		<path class="st2" d="M150.3,362.4c0,52.6,42.9,95.5,95.5,95.5s95.5-42.9,95.5-95.5s-42.9-95.5-95.5-95.5S150.3,309.8,150.3,362.4
			L150.3,362.4z"/>
		<path class="st3" d="M220.4,415.2v-21.5h-29.1v-17.5l30.7-68.5h12v68.2h9.1v17.8H234v21.5H220.4L220.4,415.2z M220.4,375.9v-35.6
			l-16.2,35.6H220.4L220.4,375.9z M273.5,307.7c7.1,0,12.7,4,16.4,11.4c4.8,8.6,7.3,23.3,7.3,43.6c0,20.3-2.5,35-7.3,43.6
			c-3.7,7.1-9.3,10.7-16.4,10.7s-13.1-4-17.2-12c-4.2-8-6.4-22.4-6.4-42.7c0-20.3,2.5-35,7.1-43.6
			C260.9,311.4,266.5,307.7,273.5,307.7L273.5,307.7z M273.5,324.9c-1.7,0-3.3,0.9-4.6,2.5c-1.2,1.5-2.5,4.6-3.1,8.6
			c-0.8,5.2-1.5,14.4-1.5,26.7c0,12.3,0.4,21.2,1.2,25.5c0.8,4.6,1.9,8,3.1,9.2c1.2,1.5,3.1,2.5,4.8,2.5c1.7,0,3.1-0.9,4.4-2.1
			c1.2-1.5,2.5-4.6,3.3-8.6c0.8-4.9,1.5-14.1,1.5-26.4s-0.4-21.2-1.2-25.8c-0.8-4.6-2.1-8-3.3-9.5
			C276.8,325.8,275.2,324.9,273.5,324.9L273.5,324.9z"/>
		<path class="st2" d="M150.5,596.5c0,52.7,43,95.7,95.7,95.7s95.7-43,95.7-95.7s-43-95.7-95.7-95.7S150.5,543.8,150.5,596.5
			L150.5,596.5z"/>
		<path class="st3" d="M192.7,620.5l13.7-2.5c0.2,5.4,1.4,9.9,3.1,12.1c1.7,2.5,4.3,4.2,6.8,4.2c2.7,0,5.2-1.7,7.2-4.8
			c1.9-3.1,2.9-7.6,2.9-13.2c0-5.4-0.8-9.6-2.5-12.7c-1.7-3.1-4.1-4.8-6.6-4.8c-1.5,0-3.7,0.6-5.8,1.7l1.4-16.6
			c3.3,0,6.4-0.8,8.1-3.4c1.7-2.5,2.9-5.9,2.9-10.1c0-3.7-0.8-6.8-2.1-8.5c-1.4-2.3-3.5-3.4-5.6-3.4s-4.3,1.1-5.6,3.7
			c-1.5,2.5-2.7,6.2-2.9,10.4l-13.1-3.1c0.8-6.5,2.1-12.1,3.9-15.8c1.7-3.7,4.4-7,7.3-9.3c3.3-2.3,7-3.4,10.6-3.4
			c7,0,12.4,3.4,16.4,9.9c3.5,5.1,5.2,11.3,5.2,17.8c0,9.3-3.7,17.2-10.6,22.8c4.3,1.1,7.5,4.2,10.2,8.5c2.5,4.8,3.7,10.7,3.7,17.2
			c0,9.3-2.3,17.8-7,24.2c-4.6,6.8-10.6,10.1-17.6,10.1c-6.6,0-12.2-2.5-16.4-8.2c-4.3-5.6-7.2-13.5-7.5-22.5v-0.3L192.7,620.5
			L192.7,620.5z M274.5,541.1c7.3,0,13.1,3.9,16.8,11.6c5,8.7,7.5,23.7,7.5,44c0,20.6-2.5,35.5-7.5,44.2c-3.7,7-9.5,10.7-16.8,10.7
			c-7.2,0-13.3-3.9-17.6-12.1c-4.3-7.9-6.6-22.5-6.6-43.1s2.5-35.2,7.2-44C261.5,544.7,267.3,541.1,274.5,541.1L274.5,541.1z
			 M274.5,558.5c-1.5,0-3.3,0.8-4.6,2.5c-1.3,1.4-2.5,4.5-3.1,8.5c-1,5.4-1.5,14.7-1.5,27.1c0,12.4,0.4,21.4,1.2,25.9
			c1,4.5,1.9,7.9,3.3,9.3c1.4,1.4,3.3,2.5,4.8,2.5c1.7,0,3.3-1.1,4.4-2.3c1.4-1.7,2.7-4.8,3.5-8.7c1-5.1,1.5-14.4,1.5-26.8
			c0-12.4-0.4-21.4-1.4-25.9c-0.8-4.8-2.1-8.2-3.3-9.6C277.9,559.4,276.2,558.5,274.5,558.5L274.5,558.5z"/>
	</g>
</g>
</svg>
