<?xml version="1.0" encoding="utf-8"?>
<!-- Generator: Adobe Illustrator 19.2.0, SVG Export Plug-In . SVG Version: 6.00 Build 0)  -->
<svg version="1.1" id="Livello_1" xmlns="http://www.w3.org/2000/svg" xmlns:xlink="http://www.w3.org/1999/xlink" x="0px" y="0px"
	 viewBox="0 0 826 731" style="enable-background:new 0 0 826 731;" xml:space="preserve">
<style type="text/css">
	.st0{fill:#C5C6C8;stroke:#C5C6C8;stroke-width:4.7063;stroke-miterlimit:2.6131;}
	.st1{fill:#1A171B;stroke:#1A171B;stroke-width:4.7063;stroke-miterlimit:2.6131;}
	.st2{fill:#FFFFFF;stroke:#1A171B;stroke-width:4.7063;stroke-miterlimit:2.6131;}
	.st3{fill:#E1001A;stroke:#1A171B;stroke-width:4.7063;stroke-miterlimit:2.6131;}
	.st4{fill:#6C1B1B;stroke:#1A171B;stroke-width:4.7063;stroke-miterlimit:2.6131;}
</style>
<g>
	<g>
		<polygon class="st0" points="398.4,24.8 467.1,24.8 467.1,724.7 398.4,724.7 		"/>
		<path class="st1" d="M192.3,101.2c103.1,0,187.1,84.1,187.1,187.1s-84.1,187.1-187.1,187.1S5.1,391.4,5.1,288.3
			S89.2,101.2,192.3,101.2L192.3,101.2z"/>
		<path class="st1" d="M633.7,101.2c103.1,0,187.1,84.1,187.1,187.1s-84.1,187.1-187.1,187.1c-103.1,0-187.1-84.1-187.1-187.1
			S530.7,101.2,633.7,101.2L633.7,101.2z"/>
		<path class="st2" d="M99.5,290.5h185.4c0-0.7,0.1-1.4,0.1-2.1c0-51-41.7-92.7-92.7-92.7s-92.7,41.7-92.7,92.7
			C99.5,289.1,99.5,289.8,99.5,290.5L99.5,290.5z"/>
		<path class="st2" d="M541,290.5h185.4c0-0.7,0.1-1.4,0.1-2.1c0-51-41.7-92.7-92.7-92.7s-92.7,41.7-92.7,92.7
			C541,289.1,541,289.8,541,290.5L541,290.5z"/>
		<path class="st1" d="M192.3,213.6c42.4,0,77,34.6,77,77s-34.6,77-77,77s-77-34.6-77-77C115.3,248.2,149.9,213.6,192.3,213.6
			L192.3,213.6z"/>
		<path class="st1" d="M633.8,213.6c42.4,0,77,34.6,77,77s-34.6,77-77,77s-77-34.6-77-77S591.3,213.6,633.8,213.6L633.8,213.6z"/>
		<path class="st3" d="M192.3,222.7c37.4,0,67.9,30.5,67.9,67.9s-30.5,67.9-67.9,67.9s-67.9-30.5-67.9-67.9
			C124.3,253.2,154.9,222.7,192.3,222.7L192.3,222.7z"/>
		<path class="st4" d="M633.8,222.7c37.4,0,67.9,30.5,67.9,67.9s-30.5,67.9-67.9,67.9s-67.9-30.5-67.9-67.9
			C565.8,253.2,596.3,222.7,633.8,222.7L633.8,222.7z"/>
		<polygon class="st2" points="378.3,4.7 447,4.7 447,724.7 378.3,724.7 		"/>
	</g>
</g>
</svg>
