<?xml version="1.0" encoding="utf-8"?>
<!-- Generator: Adobe Illustrator 19.2.0, SVG Export Plug-In . SVG Version: 6.00 Build 0)  -->
<svg version="1.1" id="Livello_1" xmlns="http://www.w3.org/2000/svg" xmlns:xlink="http://www.w3.org/1999/xlink" x="0px" y="0px"
	 viewBox="0 0 602.2 598.7" style="enable-background:new 0 0 602.2 598.7;" xml:space="preserve">
<style type="text/css">
	.st0{fill:#005EA7;}
	.st1{fill:none;stroke:#FFFFFF;stroke-width:11.8156;stroke-miterlimit:2.6131;}
	.st2{fill:#FFEC00;stroke:#FFEC00;stroke-width:1.9693;stroke-linejoin:round;stroke-miterlimit:2.6131;}
	.st3{fill:#FFFFFF;}
	.st4{fill:none;stroke:#FFFFFF;stroke-width:0.3939;stroke-linecap:round;stroke-linejoin:round;stroke-miterlimit:2.6131;}
</style>
<g>
	<g>
		<polygon class="st0" points="1.1,1 601.1,1 601.1,597.6 1.1,597.6 		"/>
		<path class="st1" d="M51.9,18.6h499.3c18.3,0,33.2,14.9,33.2,33.2v496.1c0,18.3-14.9,33.2-33.2,33.2H51.9
			c-18.3,0-33.2-14.9-33.2-33.2V51.8C18.7,33.5,33.7,18.6,51.9,18.6L51.9,18.6z"/>
		<polygon class="st2" points="410,86.9 416.1,108.6 438.5,109.6 419.8,122.1 425.9,143.9 407.9,129.9 389.1,142.4 396.9,121.2 
			379.2,107.1 401.8,108.1 		"/>
		<polygon class="st2" points="271.7,80.5 294.2,80.5 301.2,59.2 308.2,80.5 330.8,80.5 312.6,94.1 319.5,115.6 301.2,102.3 
			282.9,115.6 289.9,94.1 		"/>
		<polygon class="st2" points="61,291.9 83.6,292 90.7,270.7 97.6,292.1 120.2,292.2 101.9,305.6 108.7,327.2 90.5,313.8 72.1,327 
			79.2,305.5 		"/>
		<polygon class="st2" points="483.8,291.6 506.4,291.9 513.7,270.6 520.4,292.1 543,292.4 524.5,305.7 531.2,327.3 513.1,313.8 
			494.6,326.8 501.8,305.4 		"/>
		<polygon class="st2" points="167.5,110.7 190.1,110.6 196.9,89.2 204,110.5 226.6,110.3 208.5,124 215.6,145.5 197.2,132.3 
			179,145.7 185.8,124.1 		"/>
		<polygon class="st2" points="100.6,221.3 107.4,199.8 89.2,186.7 111.6,186.5 118.5,164.9 125.9,186.5 148.5,186.3 130.3,199.7 
			137.4,221.2 119,208.1 		"/>
		<polygon class="st2" points="103.4,434.3 109.7,412.7 91.2,399.9 113.6,399.2 120,377.5 127.9,398.9 150.5,398.2 132.6,412 
			140.2,433.4 121.5,420.6 		"/>
		<polygon class="st2" points="166.1,474.6 188.7,474.6 195.7,453.3 202.6,474.6 225.3,474.6 207,488.1 214,509.7 195.7,496.4 
			177.4,509.7 184.3,488.1 		"/>
		<polygon class="st2" points="271.7,502.8 294.2,502.8 301.2,481.5 308.2,502.8 330.8,502.8 312.6,516.3 319.5,537.9 301.2,524.6 
			282.9,537.9 289.9,516.3 		"/>
		<polygon class="st2" points="379.7,474.8 402.3,474.8 409.3,453.5 416.3,474.8 438.9,474.8 420.6,488.4 427.6,509.9 409.3,496.6 
			391,509.9 398,488.4 		"/>
		<polygon class="st2" points="467,433.6 473.8,412.1 455.5,399 478,398.7 484.7,377.1 492.2,398.6 514.9,398.4 496.7,411.9 
			503.9,433.4 485.4,420.3 		"/>
		<polygon class="st2" points="503.4,220.9 484.8,208.2 467,221.9 473.2,200.4 454.5,187.6 477.2,186.7 483.6,165 491.2,186.2 
			513.8,185.5 496,199.4 		"/>
		<polygon class="st3" points="198.9,329.4 198.9,280.4 208.8,280.4 208.8,329.4 		"/>
		<polygon class="st3" points="229.3,329.4 229.3,288.7 214.7,288.7 214.7,280.4 253.7,280.4 253.7,288.7 239.2,288.7 239.2,329.4 
					"/>
		<path class="st3" d="M299.2,329.4h-10.8l-4.3-11.1h-19.6l-4,11.1H250l19.1-49h10.5L299.2,329.4L299.2,329.4z M281,310l-6.8-18.2
			l-6.6,18.2H281L281,310z"/>
		<polygon class="st3" points="304.7,329.4 304.7,280.8 314.6,280.8 314.6,321.1 339.2,321.1 339.2,329.4 		"/>
		<polygon class="st3" points="346,329.4 346,280.4 355.9,280.4 355.9,329.4 		"/>
		<path class="st3" d="M409.6,329.4h-10.8l-4.3-11.1h-19.6l-4,11.1h-10.5l19.1-49H390L409.6,329.4L409.6,329.4z M391.3,310
			l-6.8-18.2l-6.6,18.2H391.3L391.3,310z"/>
		<polygon class="st4" points="198.9,329.4 198.9,280.4 208.8,280.4 208.8,329.4 		"/>
		<polygon class="st4" points="229.3,329.4 229.3,288.7 214.7,288.7 214.7,280.4 253.7,280.4 253.7,288.7 239.2,288.7 239.2,329.4 
					"/>
		<path class="st4" d="M299.2,329.4h-10.8l-4.3-11.1h-19.6l-4,11.1H250l19.1-49h10.5L299.2,329.4L299.2,329.4z M281,310l-6.8-18.2
			l-6.6,18.2H281L281,310z"/>
		<polygon class="st4" points="304.7,329.4 304.7,280.8 314.6,280.8 314.6,321.1 339.2,321.1 339.2,329.4 		"/>
		<polygon class="st4" points="346,329.4 346,280.4 355.9,280.4 355.9,329.4 		"/>
		<path class="st4" d="M409.6,329.4h-10.8l-4.3-11.1h-19.6l-4,11.1h-10.5l19.1-49H390L409.6,329.4L409.6,329.4z M391.3,310
			l-6.8-18.2l-6.6,18.2H391.3L391.3,310z"/>
	</g>
</g>
</svg>
