<?xml version="1.0" encoding="utf-8"?>
<!-- Generator: Adobe Illustrator 19.2.0, SVG Export Plug-In . SVG Version: 6.00 Build 0)  -->
<svg version="1.1" id="Livello_1" xmlns="http://www.w3.org/2000/svg" xmlns:xlink="http://www.w3.org/1999/xlink" x="0px" y="0px"
	 viewBox="0 0 872.2 747.3" style="enable-background:new 0 0 872.2 747.3;" xml:space="preserve">
<style type="text/css">
	.st0{fill:#FFFFFF;stroke:#1A171B;stroke-width:1.0644;stroke-miterlimit:2.6131;}
	.st1{fill:none;stroke:#1A171B;stroke-width:7.0962;stroke-miterlimit:2.6131;}
	.st2{fill:#005EA7;}
	.st3{fill:#008E43;}
	.st4{fill:#1A171B;}
	.st5{fill:none;stroke:#FFFFFF;stroke-width:3.5481;stroke-miterlimit:2.6131;}
	.st6{fill:#FFFFFF;}
	.st7{fill:none;stroke:#1A171B;stroke-width:0.6741;stroke-miterlimit:2.6131;}
	.st8{fill:none;stroke:#1A171B;stroke-width:0.72;stroke-miterlimit:2.6131;}
	.st9{fill:none;stroke:#1A171B;stroke-width:0.719;stroke-miterlimit:2.6131;}
	.st10{fill:#1A171B;stroke:#1A171B;stroke-width:1.3552;stroke-miterlimit:2.6131;}
	.st11{fill:#E1001A;}
	.st12{fill:#FFFFFF;stroke:#FFFFFF;stroke-width:1.0644;stroke-miterlimit:2.6131;}
	.st13{fill:none;stroke:#FFFFFF;stroke-width:0.3548;stroke-miterlimit:2.6131;}
	.st14{fill:#FFFFFF;stroke:#FFFFFF;stroke-width:0.3548;stroke-miterlimit:2.6131;}
</style>
<g>
	<g>
		<polygon class="st0" points="1,61.2 871,61.2 871,746.2 1,746.2 		"/>
		<path class="st1" d="M38.7,71.7h794.6c14.9,0,27.2,13.6,27.2,27.2v609.3c0,13.8-13.6,27.4-27.2,27.4H38.7
			c-13.6,0-27.2-12.3-27.2-27.4V98.9C11.5,84.1,23.8,71.7,38.7,71.7L38.7,71.7z"/>
		<polygon class="st2" points="496.8,112.5 820,112.5 820,210.2 496.8,210.2 		"/>
		<polygon class="st3" points="52.3,504.9 412.4,504.9 412.4,694.9 52.3,694.9 		"/>
		<path class="st4" d="M658.6,388.7l-54.1,92.7c-0.2,3.6,2.2,5.6,5.3,6l32.5-6.1l-0.2,131.3c-18.1-15.6-39-15.3-54.4-15.8l5.7-33.2
			c0.2-3.6-1.9-5-5.8-5l-90.8,54.1l90.8,54.2c3.9,0.2,6-1,5.8-5.1l-4.9-33.2c38,0.6,53.4,23.2,53.7,38.3l0.1,28.2l32.5,0.1V481.5
			l32.5,6c4.6,0.9,5.8-3.6,5.5-6L658.6,388.7L658.6,388.7z"/>
		<polygon class="st3" points="74.8,528.2 134.8,528.2 134.8,588.1 74.8,588.1 		"/>
		<path class="st5" d="M123.2,584l-18.2,2.4L86.8,584c-6.2-1.7-6.2-1.7-7.5-8.6l-2.8-17.1l2.8-17.5c1.4-6.8,1.4-6.8,7.5-8.2
			l18.2-2.8l18.2,2.8c5.8,1.4,5.8,1.4,7.5,8.2l2.4,17.5l-2.4,17.1C129,581.9,129,581.9,123.2,584L123.2,584z"/>
		<path class="st6" d="M98.9,569.6h-3.2l-1.3-5.2h-5.9l-1.2,5.2H84l5.7-22.4H93L98.9,569.6L98.9,569.6z M93.4,560.7l-2.1-8.2l-2,8.2
			H93.4L93.4,560.7z"/>
		<path class="st7" d="M542.9,304.1c14.4,0,26.1,11.7,26.1,26.1s-11.7,26.1-26.1,26.1c-14.4,0-26.1-11.7-26.1-26.1
			C516.7,315.9,528.5,304.1,542.9,304.1L542.9,304.1z"/>
		<path class="st8" d="M543.1,308.8c11.9,0,21.7,9.7,21.7,21.7c0,11.9-9.7,21.7-21.7,21.7c-11.9,0-21.7-9.7-21.7-21.7
			C521.4,318.5,531.1,308.8,543.1,308.8L543.1,308.8z"/>
		<path class="st9" d="M542.9,313c9.5,0,17.3,7.8,17.3,17.3s-7.8,17.3-17.3,17.3s-17.3-7.8-17.3-17.3S533.4,313,542.9,313L542.9,313
			z"/>
		<path class="st10" d="M542.9,321.2c5,0,9.1,4.1,9.1,9.1s-4.1,9.1-9.1,9.1s-9.1-4.1-9.1-9.1C533.8,325.2,537.8,321.2,542.9,321.2
			L542.9,321.2z"/>
		<path class="st4" d="M666.7,325.6l-7.3,1.3c-0.2-1.5-0.8-2.6-1.7-3.3c-0.9-0.7-2-1.1-3.4-1.1c-1.9,0-3.3,0.6-4.4,1.9
			c-1.1,1.3-1.6,3.4-1.6,6.4c0,3.3,0.6,5.7,1.7,7c1.1,1.4,2.6,2.1,4.5,2.1c1.4,0,2.6-0.4,3.5-1.2c0.9-0.8,1.5-2.2,1.9-4.1l7.3,1.2
			c-0.8,3.3-2.2,5.9-4.4,7.6c-2.1,1.7-5,2.6-8.6,2.6c-4.1,0-7.4-1.3-9.8-3.9c-2.4-2.6-3.7-6.2-3.7-10.7c0-4.6,1.2-8.2,3.7-10.8
			c2.4-2.6,5.8-3.9,9.9-3.9c3.4,0,6.1,0.7,8.1,2.2C664.4,320.3,665.8,322.6,666.7,325.6L666.7,325.6z"/>
		<path class="st4" d="M688.5,336.4l7.4,1.2c-1,2.7-2.4,4.8-4.5,6.2c-2,1.4-4.6,2.1-7.7,2.1c-4.9,0-8.5-1.6-10.8-4.8
			c-1.8-2.5-2.8-5.8-2.8-9.6c0-4.6,1.2-8.3,3.6-10.9c2.4-2.6,5.5-3.9,9.2-3.9c4.2,0,7.5,1.4,9.9,4.1c2.4,2.8,3.6,7,3.5,12.6h-18.6
			c0.1,2.2,0.7,3.9,1.8,5.1s2.6,1.8,4.3,1.8c1.2,0,2.1-0.3,2.9-0.9C687.5,338.8,688.1,337.8,688.5,336.4L688.5,336.4z M688.9,328.9
			c-0.1-2.1-0.6-3.8-1.7-4.9c-1.1-1.1-2.3-1.7-3.8-1.7c-1.6,0-2.9,0.6-4,1.8c-1.1,1.2-1.6,2.8-1.6,4.8L688.9,328.9L688.9,328.9z"/>
		<path class="st4" d="M727.8,345.3h-7.4V331c0-3-0.2-5-0.5-5.9s-0.8-1.6-1.5-2.1s-1.6-0.7-2.6-0.7c-1.3,0-2.4,0.4-3.5,1.1
			c-1,0.7-1.7,1.6-2.1,2.8c-0.4,1.2-0.6,3.3-0.6,6.4v12.7h-7.4v-28h6.9v4.1c2.4-3.2,5.5-4.8,9.2-4.8c1.6,0,3.1,0.3,4.5,0.9
			s2.4,1.3,3.1,2.3c0.7,0.9,1.2,2,1.4,3.1c0.3,1.2,0.4,2.8,0.4,5L727.8,345.3L727.8,345.3z"/>
		<path class="st4" d="M748.1,317.3v5.9H743v11.3c0,2.3,0,3.6,0.1,4s0.3,0.7,0.7,0.9c0.3,0.2,0.8,0.4,1.2,0.4c0.7,0,1.7-0.2,3-0.7
			l0.6,5.7c-1.7,0.7-3.7,1.1-5.9,1.1c-1.3,0-2.5-0.2-3.6-0.7c-1.1-0.4-1.9-1-2.4-1.7s-0.8-1.7-1-2.9c-0.1-0.9-0.2-2.6-0.2-5.2v-12.2
			h-3.4v-5.9h3.4v-5.6l7.4-4.3v9.9H748.1L748.1,317.3z"/>
		<path class="st4" d="M760.4,345.3H753v-28h6.9v4c1.2-1.9,2.2-3.1,3.2-3.7c0.9-0.6,2-0.9,3.2-0.9c1.7,0,3.3,0.5,4.9,1.4l-2.3,6.5
			c-1.2-0.8-2.4-1.2-3.5-1.2c-1,0-1.9,0.3-2.6,0.9c-0.7,0.6-1.3,1.6-1.7,3.1s-0.6,4.6-0.6,9.4v8.5L760.4,345.3L760.4,345.3z"/>
		<path class="st4" d="M772.6,330.9c0-2.5,0.6-4.8,1.8-7.1c1.2-2.3,2.9-4.1,5.2-5.3c2.2-1.2,4.7-1.8,7.4-1.8c4.2,0,7.7,1.4,10.4,4.1
			c2.7,2.8,4.1,6.2,4.1,10.4c0,4.2-1.4,7.7-4.1,10.5c-2.7,2.8-6.2,4.2-10.3,4.2c-2.6,0-5-0.6-7.3-1.7c-2.3-1.2-4.1-2.9-5.3-5.1
			C773.2,336.8,772.6,334.1,772.6,330.9L772.6,330.9z M780.2,331.3c0,2.8,0.7,4.9,2,6.4s2.9,2.2,4.9,2.2s3.6-0.7,4.9-2.2
			c1.3-1.5,2-3.6,2-6.4c0-2.7-0.7-4.9-2-6.3c-1.3-1.5-2.9-2.2-4.9-2.2s-3.6,0.7-4.9,2.2C780.8,326.4,780.2,328.5,780.2,331.3
			L780.2,331.3z"/>
		<path class="st6" d="M658,505.1c26.3,0,47.7,21.4,47.7,47.7s-21.4,47.7-47.7,47.7s-47.7-21.4-47.7-47.7
			C610.3,526.5,631.7,505.1,658,505.1L658,505.1z"/>
		<path class="st0" d="M662.6,507.9c14.6,2.6,24.1,7.9,33,19.9c5.1,8.2,7.4,15.7,7.7,25.3c-0.6,19.1-10.5,33.7-27.7,41.7
			c-19.4,8-38.9,2.4-52.7-12.9c-8.6-11.3-11.9-23.8-9.4-38c2.9-10.9,7.2-18.2,15.6-25.8c9-6.7,17.5-10,28.8-10.4L662.6,507.9
			L662.6,507.9z"/>
		<path class="st11" d="M658.3,512.4c22.3,0,40.5,18.2,40.5,40.5s-18.2,40.5-40.5,40.5s-40.5-18.2-40.5-40.5
			C617.8,530.5,636,512.4,658.3,512.4L658.3,512.4z"/>
		<path class="st11" d="M658.3,522.7c16.6,0,30.1,13.5,30.1,30.1s-13.5,30.1-30.1,30.1s-30.1-13.5-30.1-30.1
			C628.2,536.3,641.7,522.7,658.3,522.7L658.3,522.7z"/>
		<path class="st12" d="M624.6,542.7h66.7c0.2,0,0.4,0.2,0.4,0.4v18.3c0,0.2-0.2,0.4-0.4,0.4h-66.7c-0.2,0-0.4-0.2-0.4-0.4v-18.3
			C624.2,542.9,624.4,542.7,624.6,542.7L624.6,542.7z"/>
		<path class="st6" d="M661.7,510.3c14,2.5,23.1,7.6,31.6,19.1c4.9,7.8,7.1,15.1,7.4,24.2c-0.6,18.3-10.1,32.3-26.5,40
			c-18.6,7.7-37.3,2.3-50.5-12.4c-8.3-10.9-11.4-22.8-9-36.5c2.8-10.5,6.9-17.4,14.9-24.7c8.6-6.4,16.7-9.6,27.6-9.9L661.7,510.3
			L661.7,510.3z"/>
		<path class="st11" d="M657.4,512.6c22.6,0,41,18.4,41,41s-18.4,41-41,41s-41-18.4-41-41C616.4,531,634.8,512.6,657.4,512.6
			L657.4,512.6z"/>
		<path class="st6" d="M657.4,523.1c16.8,0,30.5,13.7,30.5,30.5s-13.7,30.5-30.5,30.5s-30.5-13.7-30.5-30.5S640.6,523.1,657.4,523.1
			L657.4,523.1z"/>
		<path class="st4" d="M631.9,562v-9.2l3.1-7.9h8.5v13h23.4c-1.3,0.5-2.2,2.2-2.3,4.1h-21c-0.3-6.7-9.8-6.7-10,0L631.9,562
			L631.9,562z"/>
		<path class="st4" d="M672,557.9h7.8v1.9l-5.4,2.1C674.4,560.2,673.2,558.3,672,557.9L672,557.9z"/>
		<polygon class="st4" points="644.5,556.8 644.5,539.3 679.7,539.3 679.8,556.8 		"/>
		<polygon class="st6" points="633.9,551.8 635.9,546.7 642.2,546.7 642.2,551.8 		"/>
		<path class="st4" d="M638.5,557.9c2.3,0,4.1,1.8,4.1,4.1s-1.8,4.1-4.1,4.1s-4.1-1.8-4.1-4.1C634.4,559.8,636.2,557.9,638.5,557.9
			L638.5,557.9z"/>
		<path class="st4" d="M669.4,557.9c2.3,0,4.1,1.8,4.1,4.1s-1.8,4.1-4.1,4.1s-4.1-1.8-4.1-4.1C665.3,559.8,667.2,557.9,669.4,557.9
			L669.4,557.9z"/>
		<path class="st6" d="M638.5,560.1c1.1,0,2,0.9,2,2s-0.9,2-2,2s-2-0.9-2-2C636.5,561,637.4,560.1,638.5,560.1L638.5,560.1z"/>
		<path class="st6" d="M669.4,560.1c1.1,0,2,0.9,2,2s-0.9,2-2,2s-2-0.9-2-2C667.5,561,668.4,560.1,669.4,560.1L669.4,560.1z"/>
		<path class="st6" d="M525.2,181.2v-39.6h13c4.9,0,8.1,0.2,9.6,0.6c2.3,0.6,4.2,1.9,5.8,3.9c1.5,2,2.3,4.6,2.3,7.7
			c0,2.4-0.4,4.5-1.3,6.1c-0.9,1.7-2,3-3.4,3.9s-2.8,1.6-4.2,1.9c-1.9,0.4-4.7,0.6-8.4,0.6h-5.3v14.9L525.2,181.2L525.2,181.2z
			 M533.2,148.3v11.2h4.4c3.2,0,5.3-0.2,6.4-0.6c1.1-0.4,1.9-1.1,2.5-1.9c0.6-0.9,0.9-1.9,0.9-3.1c0-1.4-0.4-2.6-1.3-3.6
			c-0.8-0.9-1.9-1.5-3.2-1.8c-1-0.2-2.9-0.3-5.8-0.3h-3.9L533.2,148.3L533.2,148.3z"/>
		<polygon class="st6" points="562.4,181.2 562.4,141.6 592.1,141.6 592.1,148.3 570.5,148.3 570.5,157.1 590.6,157.1 590.6,163.7 
			570.5,163.7 570.5,174.5 592.9,174.5 592.9,181.2 		"/>
		<path class="st6" d="M597.7,168.3l7.9-0.8c0.5,2.6,1.4,4.5,2.9,5.8c1.4,1.2,3.4,1.8,5.8,1.8c2.6,0,4.6-0.5,5.9-1.6
			c1.3-1.1,2-2.4,2-3.8c0-0.9-0.3-1.7-0.8-2.4s-1.5-1.2-2.9-1.7c-0.9-0.3-3.1-0.9-6.5-1.7c-4.3-1.1-7.4-2.4-9.1-3.9
			c-2.5-2.2-3.7-4.8-3.7-8c0-2,0.6-3.9,1.7-5.7c1.2-1.8,2.8-3.1,5-4s4.8-1.4,7.9-1.4c5,0,8.8,1.1,11.3,3.3s3.9,5.1,4,8.7l-8.1,0.3
			c-0.3-2-1.1-3.5-2.2-4.4c-1.1-0.9-2.8-1.3-5.1-1.3s-4.2,0.5-5.5,1.4c-0.9,0.6-1.3,1.4-1.3,2.5c0,0.9,0.4,1.7,1.2,2.4
			c1,0.8,3.5,1.7,7.4,2.6c3.9,0.9,6.8,1.9,8.7,2.9s3.4,2.3,4.4,4c1.1,1.7,1.6,3.8,1.6,6.3c0,2.3-0.6,4.4-1.9,6.4
			c-1.3,2-3.1,3.5-5.4,4.4c-2.3,1-5.2,1.4-8.7,1.4c-5.1,0-8.9-1.2-11.7-3.5C599.8,176.1,598.2,172.7,597.7,168.3L597.7,168.3z"/>
		<path class="st6" d="M662.6,166.6l7.8,2.5c-1.2,4.3-3.2,7.5-6,9.6s-6.3,3.1-10.6,3.1c-5.3,0-9.7-1.8-13.1-5.4
			c-3.4-3.6-5.1-8.5-5.1-14.7c0-6.6,1.7-11.7,5.2-15.4c3.4-3.6,8-5.5,13.6-5.5c4.9,0,8.9,1.4,11.9,4.3c1.8,1.7,3.2,4.1,4.1,7.3
			l-8,1.9c-0.5-2.1-1.4-3.7-3-4.9c-1.5-1.2-3.3-1.8-5.5-1.8c-3,0-5.4,1.1-7.2,3.2c-1.8,2.1-2.8,5.5-2.8,10.2c0,5,0.9,8.6,2.7,10.7
			c1.8,2.1,4.2,3.2,7.1,3.2c2.2,0,4-0.7,5.5-2C660.8,171.7,661.9,169.5,662.6,166.6L662.6,166.6z"/>
		<path class="st6" d="M713.4,181.2h-8.8l-3.5-9h-16l-3.3,9h-8.6l15.6-39.6h8.5L713.4,181.2L713.4,181.2z M698.5,165.5l-5.5-14.7
			l-5.4,14.7H698.5L698.5,165.5z"/>
		<path class="st6" d="M717.7,181.2v-39.6h17c4.3,0,7.4,0.4,9.3,1.1c1.9,0.7,3.5,2,4.7,3.8s1.7,3.9,1.7,6.2c0,3-0.9,5.4-2.6,7.4
			c-1.8,1.9-4.4,3.2-7.9,3.7c1.8,1,3.2,2.1,4.3,3.3s2.7,3.3,4.6,6.4l4.9,7.7H744l-5.8-8.6c-2.1-3.1-3.5-5-4.3-5.8s-1.6-1.3-2.4-1.7
			c-0.9-0.3-2.2-0.4-4.1-0.4h-1.6v16.5L717.7,181.2L717.7,181.2z M725.8,158.3h6c3.9,0,6.3-0.2,7.3-0.5s1.7-0.9,2.3-1.7
			c0.5-0.8,0.8-1.8,0.8-3c0-1.3-0.4-2.4-1.1-3.2c-0.7-0.8-1.7-1.3-3-1.6c-0.6-0.1-2.6-0.1-5.9-0.1h-6.3L725.8,158.3L725.8,158.3z"/>
		<path class="st6" d="M794.1,181.2h-8.8l-3.5-9h-16l-3.3,9h-8.6l15.6-39.6h8.5L794.1,181.2L794.1,181.2z M779.2,165.5l-5.5-14.7
			l-5.4,14.7H779.2L779.2,165.5z"/>
		<path class="st4" d="M552.3,280.9h-8.4l-3.3-8.7h-15.3l-3.2,8.7h-8.2l14.9-38.2h8.2L552.3,280.9L552.3,280.9z M538.1,265.8
			l-5.3-14.2l-5.2,14.2H538.1L538.1,265.8z"/>
		<polygon class="st4" points="562.2,280.9 548.5,242.7 556.9,242.7 566.5,271 575.9,242.7 584.1,242.7 570.4,280.9 		"/>
		<polygon class="st4" points="588,280.9 588,242.7 616.4,242.7 616.4,249.2 595.7,249.2 595.7,257.6 614.9,257.6 614.9,264.1 
			595.7,264.1 595.7,274.5 617.1,274.5 617.1,280.9 		"/>
		<polygon class="st4" points="620.3,280.9 620.3,274 640.4,249.2 622.6,249.2 622.6,242.7 650.6,242.7 650.6,248.7 629.6,274.5 
			651.4,274.5 651.4,280.9 		"/>
		<polygon class="st4" points="653,280.9 653,274 673,249.2 655.2,249.2 655.2,242.7 683.2,242.7 683.2,248.7 662.3,274.5 
			684,274.5 684,280.9 		"/>
		<path class="st4" d="M723.4,280.9H715l-3.3-8.7h-15.3l-3.2,8.7H685l14.9-38.2h8.2L723.4,280.9L723.4,280.9z M709.2,265.8
			l-5.3-14.2l-5.2,14.2H709.2L709.2,265.8z"/>
		<polygon class="st4" points="727.5,280.9 727.5,242.7 735,242.7 750.7,268.2 750.7,242.7 757.9,242.7 757.9,280.9 750.1,280.9 
			734.7,256 734.7,280.9 		"/>
		<path class="st4" d="M764.5,262c0-3.9,0.6-7.2,1.7-9.8c0.9-1.9,2.1-3.7,3.6-5.2s3.2-2.7,4.9-3.4c2.4-1,5.1-1.5,8.2-1.5
			c5.6,0,10.1,1.7,13.5,5.2s5.1,8.3,5.1,14.6c0,6.2-1.7,11-5,14.5c-3.4,3.5-7.8,5.2-13.4,5.2c-5.7,0-10.2-1.7-13.6-5.2
			C766.1,272.9,764.5,268.1,764.5,262L764.5,262z M772.4,261.8c0,4.3,1,7.6,3,9.8c2,2.2,4.5,3.3,7.6,3.3s5.6-1.1,7.6-3.3
			c2-2.2,3-5.5,3-10c0-4.4-1-7.6-2.9-9.8c-1.9-2.2-4.5-3.2-7.7-3.2s-5.7,1.1-7.7,3.3C773.4,254.1,772.4,257.4,772.4,261.8
			L772.4,261.8z"/>
		<path class="st6" d="M159.1,578.5v-36.7h15.6c3.9,0,6.8,0.3,8.6,1s3.2,1.8,4.3,3.5s1.6,3.6,1.6,5.8c0,2.8-0.8,5-2.4,6.8
			c-1.6,1.8-4,2.9-7.3,3.4c1.6,0.9,2.9,2,4,3.1c1,1.1,2.4,3.1,4.2,6l4.5,7.2h-8.9l-5.4-8c-1.9-2.9-3.2-4.7-3.9-5.4s-1.4-1.2-2.2-1.5
			s-2-0.4-3.7-0.4h-1.5v15.3L159.1,578.5L159.1,578.5z M166.5,557.3h5.5c3.6,0,5.8-0.1,6.7-0.4c0.9-0.3,1.6-0.8,2.1-1.6
			c0.5-0.7,0.8-1.7,0.8-2.8c0-1.2-0.3-2.2-1-3s-1.6-1.2-2.8-1.4c-0.6-0.1-2.4-0.1-5.4-0.1h-5.8v9.3H166.5z"/>
		<path class="st6" d="M194.6,560.4c0-3.7,0.6-6.9,1.7-9.4c0.8-1.9,2-3.5,3.4-5s3-2.6,4.7-3.3c2.3-1,4.9-1.5,7.9-1.5
			c5.4,0,9.7,1.7,13,5c3.3,3.4,4.9,8,4.9,14c0,5.9-1.6,10.6-4.8,13.9c-3.2,3.3-7.5,5-12.9,5c-5.5,0-9.8-1.7-13-5
			C196.2,570.8,194.6,566.2,194.6,560.4L194.6,560.4z M202.3,560.1c0,4.2,1,7.3,2.9,9.5c1.9,2.1,4.4,3.2,7.3,3.2
			c3,0,5.4-1.1,7.3-3.2c1.9-2.1,2.8-5.3,2.8-9.6c0-4.2-0.9-7.4-2.8-9.4c-1.8-2.1-4.3-3.1-7.4-3.1s-5.5,1.1-7.4,3.1
			C203.2,552.7,202.3,555.9,202.3,560.1L202.3,560.1z"/>
		<polygon class="st6" points="236,578.5 236,541.8 247.1,541.8 253.7,566.8 260.3,541.8 271.4,541.8 271.4,578.5 264.6,578.5 
			264.6,549.6 257.3,578.5 250.1,578.5 242.8,549.6 242.8,578.5 		"/>
		<path class="st6" d="M312,578.5h-8.1l-3.2-8.3H286l-3,8.3h-7.9l14.3-36.7h7.8L312,578.5L312,578.5z M298.3,564l-5.1-13.6l-5,13.6
			H298.3L298.3,564z"/>
		<path class="st13" d="M159.1,578.5v-36.7h15.6c3.9,0,6.8,0.3,8.6,1s3.2,1.8,4.3,3.5s1.6,3.6,1.6,5.8c0,2.8-0.8,5-2.4,6.8
			c-1.6,1.8-4,2.9-7.3,3.4c1.6,0.9,2.9,2,4,3.1c1,1.1,2.4,3.1,4.2,6l4.5,7.2h-8.9l-5.4-8c-1.9-2.9-3.2-4.7-3.9-5.4s-1.4-1.2-2.2-1.5
			s-2-0.4-3.7-0.4h-1.5v15.3L159.1,578.5L159.1,578.5z M166.5,557.3h5.5c3.6,0,5.8-0.1,6.7-0.4c0.9-0.3,1.6-0.8,2.1-1.6
			c0.5-0.7,0.8-1.7,0.8-2.8c0-1.2-0.3-2.2-1-3s-1.6-1.2-2.8-1.4c-0.6-0.1-2.4-0.1-5.4-0.1h-5.8v9.3H166.5z"/>
		<path class="st13" d="M194.6,560.4c0-3.7,0.6-6.9,1.7-9.4c0.8-1.9,2-3.5,3.4-5s3-2.6,4.7-3.3c2.3-1,4.9-1.5,7.9-1.5
			c5.4,0,9.7,1.7,13,5c3.3,3.4,4.9,8,4.9,14c0,5.9-1.6,10.6-4.8,13.9c-3.2,3.3-7.5,5-12.9,5c-5.5,0-9.8-1.7-13-5
			C196.2,570.8,194.6,566.2,194.6,560.4L194.6,560.4z M202.3,560.1c0,4.2,1,7.3,2.9,9.5c1.9,2.1,4.4,3.2,7.3,3.2
			c3,0,5.4-1.1,7.3-3.2c1.9-2.1,2.8-5.3,2.8-9.6c0-4.2-0.9-7.4-2.8-9.4c-1.8-2.1-4.3-3.1-7.4-3.1s-5.5,1.1-7.4,3.1
			C203.2,552.7,202.3,555.9,202.3,560.1L202.3,560.1z"/>
		<polygon class="st13" points="236,578.5 236,541.8 247.1,541.8 253.7,566.8 260.3,541.8 271.4,541.8 271.4,578.5 264.6,578.5 
			264.6,549.6 257.3,578.5 250.1,578.5 242.8,549.6 242.8,578.5 		"/>
		<path class="st13" d="M312,578.5h-8.1l-3.2-8.3H286l-3,8.3h-7.9l14.3-36.7h7.8L312,578.5L312,578.5z M298.3,564l-5.1-13.6l-5,13.6
			H298.3L298.3,564z"/>
		<polygon class="st6" points="158.9,659.3 158.9,622.3 166.2,622.3 166.2,653 184.3,653 184.3,659.3 		"/>
		<polygon class="st6" points="189.4,635.2 188.1,628.3 188.1,622 195.6,622 195.6,628.3 194.5,635.2 		"/>
		<path class="st6" d="M233.9,659.3H226l-3.1-8.5h-14.4l-3,8.5h-7.7l14-37.3h7.7L233.9,659.3L233.9,659.3z M220.5,644.5l-5-13.9
			l-4.9,13.9H220.5L220.5,644.5z"/>
		<path class="st6" d="M266.8,654.5c1.8,1.3,3.7,2.4,5.8,3.2l-2.7,5.3c-1.1-0.3-2.2-0.8-3.2-1.4c-0.2-0.1-1.8-1.2-4.8-3.3
			c-2.4,1.1-5,1.6-7.8,1.6c-5.5,0-9.9-1.7-13-5.1c-3.1-3.4-4.7-8.1-4.7-14.2c0-6.1,1.6-10.8,4.7-14.2s7.4-5.1,12.8-5.1
			c5.3,0,9.6,1.7,12.7,5.1c3.1,3.4,4.7,8.1,4.7,14.2c0,3.2-0.4,6.1-1.3,8.5C269.3,651,268.2,652.8,266.8,654.5L266.8,654.5z
			 M260.9,650.3c0.9-1.1,1.6-2.5,2.1-4.1s0.7-3.5,0.7-5.5c0-4.3-0.9-7.5-2.8-9.7c-1.8-2.1-4.2-3.2-7.2-3.2c-3,0-5.4,1.1-7.2,3.2
			c-1.8,2.1-2.8,5.4-2.8,9.6c0,4.4,0.9,7.6,2.8,9.8c1.8,2.2,4.2,3.2,7,3.2c1,0,2-0.2,3-0.5c-1.5-1-3-1.8-4.5-2.3l2-4.3
			C256.5,647.3,258.8,648.6,260.9,650.3L260.9,650.3z"/>
		<path class="st6" d="M276.9,622h7.3v20.2c0,3.2,0.1,5.3,0.3,6.2c0.3,1.5,1.1,2.8,2.2,3.7c1.2,0.9,2.8,1.4,4.8,1.4
			c2.1,0,3.6-0.4,4.7-1.3c1-0.9,1.7-1.9,1.9-3.2c0.2-1.3,0.3-3.4,0.3-6.3v-20.6h7.3v19.6c0,4.5-0.2,7.6-0.6,9.5s-1.1,3.4-2.2,4.7
			s-2.5,2.3-4.2,3c-1.8,0.8-4.1,1.1-6.9,1.1c-3.4,0-6-0.4-7.8-1.2s-3.2-1.9-4.2-3.2s-1.7-2.7-2-4.1c-0.5-2.1-0.7-5.3-0.7-9.5v-20
			H276.9z"/>
		<polygon class="st6" points="313,659.3 313,622 320.3,622 320.3,659.3 		"/>
		<polygon class="st6" points="327.5,659.3 327.5,622.3 334.7,622.3 334.7,653 352.8,653 352.8,659.3 		"/>
		<path class="st6" d="M390.5,659.3h-7.9l-3.1-8.5H365l-3,8.5h-7.7l14-37.3h7.7L390.5,659.3L390.5,659.3z M377.1,644.5l-5-13.9
			l-4.9,13.9H377.1L377.1,644.5z"/>
		<polygon class="st13" points="158.9,659.3 158.9,622.3 166.2,622.3 166.2,653 184.3,653 184.3,659.3 		"/>
		<polygon class="st13" points="189.4,635.2 188.1,628.3 188.1,622 195.6,622 195.6,628.3 194.5,635.2 		"/>
		<path class="st13" d="M233.9,659.3H226l-3.1-8.5h-14.4l-3,8.5h-7.7l14-37.3h7.7L233.9,659.3L233.9,659.3z M220.5,644.5l-5-13.9
			l-4.9,13.9H220.5L220.5,644.5z"/>
		<path class="st13" d="M266.8,654.5c1.8,1.3,3.7,2.4,5.8,3.2l-2.7,5.3c-1.1-0.3-2.2-0.8-3.2-1.4c-0.2-0.1-1.8-1.2-4.8-3.3
			c-2.4,1.1-5,1.6-7.8,1.6c-5.5,0-9.9-1.7-13-5.1c-3.1-3.4-4.7-8.1-4.7-14.2c0-6.1,1.6-10.8,4.7-14.2s7.4-5.1,12.8-5.1
			c5.3,0,9.6,1.7,12.7,5.1c3.1,3.4,4.7,8.1,4.7,14.2c0,3.2-0.4,6.1-1.3,8.5C269.3,651,268.2,652.8,266.8,654.5L266.8,654.5z
			 M260.9,650.3c0.9-1.1,1.6-2.5,2.1-4.1s0.7-3.5,0.7-5.5c0-4.3-0.9-7.5-2.8-9.7c-1.8-2.1-4.2-3.2-7.2-3.2c-3,0-5.4,1.1-7.2,3.2
			c-1.8,2.1-2.8,5.4-2.8,9.6c0,4.4,0.9,7.6,2.8,9.8c1.8,2.2,4.2,3.2,7,3.2c1,0,2-0.2,3-0.5c-1.5-1-3-1.8-4.5-2.3l2-4.3
			C256.5,647.3,258.8,648.6,260.9,650.3L260.9,650.3z"/>
		<path class="st13" d="M276.9,622h7.3v20.2c0,3.2,0.1,5.3,0.3,6.2c0.3,1.5,1.1,2.8,2.2,3.7c1.2,0.9,2.8,1.4,4.8,1.4
			c2.1,0,3.6-0.4,4.7-1.3c1-0.9,1.7-1.9,1.9-3.2c0.2-1.3,0.3-3.4,0.3-6.3v-20.6h7.3v19.6c0,4.5-0.2,7.6-0.6,9.5s-1.1,3.4-2.2,4.7
			s-2.5,2.3-4.2,3c-1.8,0.8-4.1,1.1-6.9,1.1c-3.4,0-6-0.4-7.8-1.2s-3.2-1.9-4.2-3.2s-1.7-2.7-2-4.1c-0.5-2.1-0.7-5.3-0.7-9.5v-20
			H276.9z"/>
		<polygon class="st13" points="313,659.3 313,622 320.3,622 320.3,659.3 		"/>
		<polygon class="st13" points="327.5,659.3 327.5,622.3 334.7,622.3 334.7,653 352.8,653 352.8,659.3 		"/>
		<path class="st13" d="M390.5,659.3h-7.9l-3.1-8.5H365l-3,8.5h-7.7l14-37.3h7.7L390.5,659.3L390.5,659.3z M377.1,644.5l-5-13.9
			l-4.9,13.9H377.1L377.1,644.5z"/>
		<path class="st6" d="M112.4,565.7v4.1h-10.6c0.1-1.5,0.5-3,1-4.4c0.6-1.4,1.7-3.2,3.4-5.5c1.4-1.8,2.2-3.1,2.5-3.8
			c0.4-0.9,0.6-1.8,0.6-2.7c0-1-0.2-1.7-0.5-2.3c-0.4-0.5-0.9-0.8-1.5-0.8s-1.1,0.3-1.5,0.8c-0.4,0.6-0.6,1.5-0.6,2.8l-3-0.4
			c0.2-2.4,0.7-4.2,1.7-5.2c0.9-1.1,2.1-1.6,3.6-1.6c1.6,0,2.8,0.6,3.7,1.8s1.3,2.7,1.3,4.6c0,1-0.1,2-0.4,2.9
			c-0.3,0.9-0.7,1.9-1.2,2.9c-0.4,0.7-1,1.7-2,2.9c-1,1.3-1.6,2.1-1.8,2.5c-0.3,0.4-0.5,0.8-0.6,1.2h5.9L112.4,565.7L112.4,565.7z"
			/>
		<path class="st6" d="M120.4,569.8v-4.6h-6.5v-3.9l6.9-14.6h2.5v14.6h2v3.9h-2v4.6H120.4L120.4,569.8z M120.4,561.3v-7.8l-3.6,7.8
			H120.4L120.4,561.3z"/>
		<polygon class="st14" points="333.2,556.7 356.3,556.7 356.3,562.4 333.2,562.4 		"/>
	</g>
</g>
</svg>
