<?xml version="1.0" encoding="utf-8"?>
<!-- Generator: Adobe Illustrator 19.2.0, SVG Export Plug-In . SVG Version: 6.00 Build 0)  -->
<svg version="1.1" id="Livello_1" xmlns="http://www.w3.org/2000/svg" xmlns:xlink="http://www.w3.org/1999/xlink" x="0px" y="0px"
	 viewBox="0 0 871.7 540.7" style="enable-background:new 0 0 871.7 540.7;" xml:space="preserve">
<style type="text/css">
	.st0{fill:#005EA7;stroke:#005EA7;stroke-width:1.0623;stroke-miterlimit:2.6131;}
	.st1{fill:#916740;stroke:#FFFFFF;stroke-width:5.3116;stroke-miterlimit:2.6131;}
	.st2{fill:#FFFFFF;}
	.st3{fill:#FFFFFF;stroke:#FFFFFF;stroke-width:2.4787;stroke-miterlimit:2.6131;}
	.st4{fill:#E1001A;}
	.st5{fill:#FFFFFF;stroke:#E1001A;stroke-width:3.5411;stroke-miterlimit:2.6131;}
	.st6{fill:#1A171B;}
	.st7{fill:none;stroke:#FFFFFF;stroke-width:7.0821;stroke-miterlimit:2.6131;}
</style>
<g>
	<g>
		<polygon class="st0" points="0.7,61.5 870.7,61.5 870.7,539.9 0.7,539.9 		"/>
		<polygon class="st1" points="52.5,369.2 286.6,369.2 286.6,488.8 52.5,488.8 		"/>
		<path class="st2" d="M437.4,196l-39.6,67.1c0,3.1,1.9,4.3,4.3,4.7l23.3-4.7v164.4c-13.2-10.9-27.9-10.9-39.2-11.2l3.5-24
			c0.4-2.7-1.2-3.9-3.5-3.9l-66.3,39.2l66.3,39.6c2.3,0,3.5-0.8,3.5-3.9l-3.1-24c27.5,0.8,38.8,17.1,38.8,27.9v21.7h23.7v-33.5
			l186.4-88l6.2,23.3c0.8,3.5,4.1,2.7,5.6,1.7l44-64.2l-77.6-7c-2.3,1.2-3.1,3.1-2.3,5.2l14,19.8c-156.1,73.5-131.1,61.5-176.3,82.8
			V263.1l23.7,4.7c3.1,0.4,4.3-2.3,3.9-4.7L437.4,196L437.4,196z"/>
		<path class="st3" d="M620,436.6c6.5-0.3,10.4-5.1,9.4-11.6l-0.2-1l-0.4-1.1l-0.5-1l-59.6-103.4c-3-4.6-7.2-7.2-12.7-4.9
			c-2.1,1.1-3.6,2.8-4.8,4.7l-59.5,103.1c-2.2,4.1-3,8.4,0.3,12.1c2.6,2.8,5.9,3.1,9.6,3.1h117.1L620,436.6L620,436.6z"/>
		<path class="st4" d="M618.5,433.6c1.8,0,3.6,0.2,5.5-1.2s3.6-5,1.6-9.1L566,320c-3.3-5.8-9.2-5.7-12.4-0.1l-59.5,103
			c-1.3,2.2-2.3,5.3-0.9,7.6c1.9,3,4.9,3,8.1,3.1H618.5L618.5,433.6z"/>
		<polygon class="st5" points="610.6,421.5 559.8,333.5 509.1,421.5 		"/>
		<path class="st6" d="M535.2,402.3l-3.2-4.9l3.2-5.7c1,0,2.9,0,4.2,0c2.4-1.6,0-3.2,0-4.9l0.8-1.6c1.6,0,1.4,0,3.2,0l0.8,1.6
			c0,1.9-2.4,3.2-0.8,4.9c3.1,0,5.6,0,9,0c0.9,0,0.8,0,1.6-0.8c4.9,0,9.8,0,14.7,0c0.8,0.8,0.8,0.8,1.6,0.8v10.6H535.2L535.2,402.3z
			"/>
		<path class="st6" d="M540.5,383.7c-0.1,0,0.6-2.8,1.1-4.4c0.4-1.1,2.6-3.2,3-4.8c1-4,3-6.8,7.5-6c2,0.3,2.6,2.5,4.9,3.1
			c1.6,0.4,3.6-1.3,5.6-1.3c2.4,0,2.3,2.8,4.6,2.8c1.4,0,2.9-1.4,3.6-1.4c4.6,0,5,5.1,3.7,7.3c-0.6,0.9-2.3,1.6-3.4,1.6
			c-1.7,0-2.9-2.6-4.4-1.4c-1.6,1.3-2.8,2.4-5.3,1.7c-1.4-0.4-2.5-2.6-4.1-2.3l-1.7,0.3c-1.4,1.4-4.2,2.9-6.1,2
			c-2.4-1-4.5-2.4-5.8,1.1l-0.6,1.7L540.5,383.7L540.5,383.7z"/>
		<path class="st6" d="M528.8,410.5V408h3.2c0-1,0-3.1,0-4.3h39.7v-12.8h15v2.4h-8.2v5.8c0.9,0,2.9,0,4.1,0v7.5h-8.1v1.4h14.6v2.5
			h-6.7c0.8,0.4,1.5,1.3,1.5,2.3c0,1.4-1.2,2.6-2.6,2.6c-1.4,0-2.6-1.2-2.6-2.6c0-1,0.6-1.9,1.4-2.4h-5.6h0.1c0,2.7-2.2,4.9-4.9,4.9
			s-4.9-2.2-4.9-4.9l0,0h-2.5l0,0c0,2.7-2.2,4.9-4.9,4.9s-4.9-2.2-4.9-4.9l0,0h-2.4c0,2.7-2.2,4.9-4.9,4.9s-4.9-2.2-4.9-4.8h-4.6
			c0.8,0.4,1.4,1.3,1.4,2.2c0,1.4-1.2,2.7-2.7,2.7c-1.4,0-2.7-1.2-2.7-2.7c0-0.9,0.6-1.8,1.4-2.2H528.8L528.8,410.5z"/>
		<path class="st7" d="M31.9,71.9h808.7c11.4,0,20.4,10.3,20.4,20.6v416.6c0,10.1-10.3,20.6-20.4,20.6H31.9
			c-10.3,0-20.6-9.1-20.6-20.6V92.5C11.4,81,20.5,71.9,31.9,71.9L31.9,71.9z"/>
		<path class="st2" d="M184.7,160.3v-46.9H200c5.8,0,9.6,0.2,11.3,0.7c2.7,0.7,5,2.2,6.8,4.6s2.7,5.4,2.7,9.1c0,2.9-0.5,5.3-1.6,7.3
			s-2.4,3.5-4,4.6s-3.3,1.9-4.9,2.2c-2.3,0.4-5.6,0.7-9.9,0.7h-6.2v17.7L184.7,160.3L184.7,160.3z M194.2,121.4v13.3h5.2
			c3.8,0,6.3-0.2,7.5-0.7c1.3-0.5,2.3-1.3,3-2.3s1.1-2.3,1.1-3.6c0-1.7-0.5-3.1-1.5-4.2s-2.3-1.8-3.8-2.1c-1.1-0.2-3.4-0.3-6.8-0.3
			L194.2,121.4L194.2,121.4z"/>
		<path class="st2" d="M226.7,137.2c0-4.8,0.7-8.8,2.2-12c1.1-2.4,2.5-4.5,4.4-6.4s3.9-3.3,6.1-4.2c2.9-1.2,6.3-1.9,10.2-1.9
			c6.9,0,12.5,2.1,16.7,6.4s6.3,10.2,6.3,17.9c0,7.6-2.1,13.5-6.2,17.8s-9.7,6.4-16.6,6.4c-7,0-12.6-2.1-16.7-6.4
			C228.7,150.5,226.7,144.6,226.7,137.2L226.7,137.2z M236.5,136.9c0,5.3,1.2,9.3,3.7,12.1c2.5,2.7,5.6,4.1,9.4,4.1s6.9-1.4,9.3-4.1
			s3.6-6.8,3.6-12.2s-1.2-9.4-3.5-12c-2.4-2.6-5.5-4-9.4-4s-7.1,1.3-9.5,4C237.7,127.4,236.5,131.5,236.5,136.9L236.5,136.9z"/>
		<path class="st2" d="M279.9,160.3v-46.9h20c5,0,8.7,0.4,11,1.3c2.3,0.8,4.1,2.3,5.5,4.5s2.1,4.6,2.1,7.4c0,3.5-1,6.4-3.1,8.7
			s-5.2,3.7-9.3,4.3c2.1,1.2,3.8,2.5,5.1,3.9c1.3,1.4,3.1,4,5.4,7.6l5.8,9.2H311l-6.9-10.2c-2.4-3.6-4.1-5.9-5-6.9s-1.9-1.6-2.9-2
			c-1-0.3-2.6-0.5-4.8-0.5h-1.9v19.6L279.9,160.3L279.9,160.3z M289.4,133.3h7c4.6,0,7.4-0.2,8.6-0.6c1.1-0.4,2-1,2.7-2
			c0.6-0.9,1-2.1,1-3.5c0-1.6-0.4-2.9-1.3-3.8c-0.8-1-2-1.6-3.6-1.8c-0.8-0.1-3.1-0.2-6.9-0.2h-7.4v11.9L289.4,133.3L289.4,133.3z"
			/>
		<polygon class="st2" points="338,160.3 338,121.4 324,121.4 324,113.4 361.5,113.4 361.5,121.4 347.5,121.4 347.5,160.3 		"/>
		<path class="st2" d="M364.5,137.2c0-4.8,0.7-8.8,2.2-12c1.1-2.4,2.5-4.5,4.4-6.4s3.9-3.3,6.1-4.2c2.9-1.2,6.3-1.9,10.2-1.9
			c6.9,0,12.5,2.1,16.7,6.4s6.3,10.2,6.3,17.9c0,7.6-2.1,13.5-6.2,17.8s-9.7,6.4-16.6,6.4c-7,0-12.6-2.1-16.7-6.4
			C366.6,150.5,364.5,144.6,364.5,137.2L364.5,137.2z M374.3,136.9c0,5.3,1.2,9.3,3.7,12.1c2.5,2.7,5.6,4.1,9.4,4.1s6.9-1.4,9.3-4.1
			s3.6-6.8,3.6-12.2s-1.2-9.4-3.5-12c-2.4-2.6-5.5-4-9.4-4s-7.1,1.3-9.5,4C375.5,127.4,374.3,131.5,374.3,136.9L374.3,136.9z"/>
		<polygon class="st2" points="446.6,160.3 446.6,121.4 432.6,121.4 432.6,113.4 470,113.4 470,121.4 456.1,121.4 456.1,160.3 		"/>
		<path class="st2" d="M473.1,137.2c0-4.8,0.7-8.8,2.2-12c1.1-2.4,2.5-4.5,4.4-6.4s3.9-3.3,6.1-4.2c2.9-1.2,6.3-1.9,10.2-1.9
			c6.9,0,12.5,2.1,16.7,6.4c4.2,4.3,6.3,10.2,6.3,17.9c0,7.6-2.1,13.5-6.2,17.8c-4.1,4.3-9.7,6.4-16.6,6.4c-7,0-12.6-2.1-16.7-6.4
			C475.1,150.5,473.1,144.6,473.1,137.2L473.1,137.2z M482.9,136.9c0,5.3,1.2,9.3,3.7,12.1c2.5,2.7,5.6,4.1,9.4,4.1
			c3.8,0,6.9-1.4,9.3-4.1c2.4-2.7,3.6-6.8,3.6-12.2s-1.2-9.4-3.5-12c-2.4-2.6-5.5-4-9.4-4s-7.1,1.3-9.5,4
			C484.1,127.4,482.9,131.5,482.9,136.9L482.9,136.9z"/>
		<path class="st2" d="M526.2,160.3v-46.9h20c5,0,8.7,0.4,11,1.3c2.3,0.8,4.1,2.3,5.5,4.5s2.1,4.6,2.1,7.4c0,3.5-1,6.4-3.1,8.7
			s-5.2,3.7-9.3,4.3c2.1,1.2,3.8,2.5,5.1,3.9s3.1,4,5.4,7.6l5.8,9.2h-11.4l-6.9-10.2c-2.4-3.6-4.1-5.9-5-6.9s-1.9-1.6-2.9-2
			c-1-0.3-2.6-0.5-4.8-0.5h-1.9v19.6L526.2,160.3L526.2,160.3z M535.8,133.3h7c4.6,0,7.4-0.2,8.6-0.6c1.1-0.4,2-1,2.7-2
			c0.6-0.9,1-2.1,1-3.5c0-1.6-0.4-2.9-1.3-3.8c-0.8-1-2-1.6-3.6-1.8c-0.8-0.1-3.1-0.2-6.9-0.2h-7.4L535.8,133.3L535.8,133.3z"/>
		<path class="st2" d="M573.8,160.3v-46.9h20c5,0,8.7,0.4,11,1.3c2.3,0.8,4.1,2.3,5.5,4.5s2.1,4.6,2.1,7.4c0,3.5-1,6.4-3.1,8.7
			s-5.2,3.7-9.3,4.3c2.1,1.2,3.8,2.5,5.1,3.9s3.1,4,5.4,7.6l5.8,9.2h-11.4l-6.9-10.2c-2.4-3.6-4.1-5.9-5-6.9s-1.9-1.6-2.9-2
			c-1-0.3-2.6-0.5-4.8-0.5h-1.9v19.6L573.8,160.3L573.8,160.3z M583.3,133.3h7c4.6,0,7.4-0.2,8.6-0.6c1.1-0.4,2-1,2.7-2
			c0.6-0.9,1-2.1,1-3.5c0-1.6-0.4-2.9-1.3-3.8c-0.8-1-2-1.6-3.6-1.8c-0.8-0.1-3.1-0.2-6.9-0.2h-7.4L583.3,133.3L583.3,133.3z"/>
		<polygon class="st2" points="621.3,160.3 621.3,113.4 656.2,113.4 656.2,121.4 630.8,121.4 630.8,131.8 654.5,131.8 654.5,139.7 
			630.8,139.7 630.8,152.4 657.1,152.4 657.1,160.3 		"/>
		<path class="st2" d="M662.8,145.1l9.3-0.9c0.5,3.1,1.7,5.4,3.4,6.8s4,2.2,6.9,2.2c3.1,0,5.4-0.6,6.9-1.9c1.6-1.3,2.3-2.8,2.3-4.5
			c0-1.1-0.3-2.1-1-2.8c-0.6-0.8-1.8-1.5-3.4-2c-1.1-0.4-3.7-1.1-7.6-2.1c-5.1-1.3-8.7-2.8-10.7-4.6c-2.9-2.6-4.3-5.7-4.3-9.4
			c0-2.4,0.7-4.6,2-6.7c1.4-2.1,3.3-3.7,5.9-4.7c2.6-1.1,5.7-1.6,9.3-1.6c5.9,0,10.4,1.3,13.4,3.9s4.6,6,4.7,10.3l-9.5,0.4
			c-0.4-2.4-1.3-4.1-2.6-5.2s-3.3-1.6-6-1.6c-2.8,0-4.9,0.6-6.5,1.7c-1,0.7-1.5,1.7-1.5,2.9c0,1.1,0.5,2.1,1.4,2.9
			c1.2,1,4.1,2.1,8.7,3.1c4.6,1.1,8.1,2.2,10.3,3.4s3.9,2.8,5.2,4.8s1.9,4.5,1.9,7.5c0,2.7-0.7,5.2-2.3,7.5
			c-1.5,2.3-3.6,4.1-6.4,5.2c-2.7,1.1-6.2,1.7-10.3,1.7c-6,0-10.5-1.4-13.7-4.1C665.3,154.3,663.4,150.3,662.8,145.1L662.8,145.1z"
			/>
		<path class="st2" d="M570.4,262.3l5.9-0.6c0.3,2.1,1.1,3.6,2.1,4.6c1.1,1,2.5,1.5,4.4,1.5s3.4-0.4,4.4-1.3s1.5-1.9,1.5-3
			c0-0.8-0.2-1.4-0.6-1.9c-0.4-0.5-1.1-1-2.2-1.4c-0.7-0.3-2.3-0.7-4.8-1.4c-3.2-0.8-5.5-1.9-6.8-3.1c-1.8-1.7-2.7-3.9-2.7-6.4
			c0-1.6,0.4-3.1,1.3-4.5c0.9-1.4,2.1-2.5,3.7-3.2c1.6-0.7,3.6-1.1,5.9-1.1c3.8,0,6.6,0.9,8.5,2.6s2.9,4.1,3,7l-6,0.3
			c-0.3-1.6-0.8-2.8-1.7-3.5c-0.8-0.7-2.1-1.1-3.8-1.1c-1.8,0-3.1,0.4-4.1,1.1c-0.6,0.5-1,1.1-1,2c0,0.8,0.3,1.4,0.9,1.9
			c0.8,0.7,2.6,1.4,5.5,2.1s5.1,1.5,6.5,2.3s2.5,1.9,3.3,3.2c0.8,1.4,1.2,3,1.2,5c0,1.8-0.5,3.5-1.4,5.1c-1,1.6-2.3,2.8-4,3.5
			c-1.7,0.8-3.9,1.2-6.5,1.2c-3.8,0-6.7-0.9-8.7-2.8C572,268.6,570.8,265.9,570.4,262.3L570.4,262.3z"/>
		<polygon class="st2" points="599.7,272.6 599.7,266.6 605.4,266.6 605.4,272.6 		"/>
		<path class="st2" d="M636.8,261v-5.3h13v12.6c-1.3,1.3-3.1,2.4-5.5,3.4s-4.8,1.5-7.3,1.5c-3.1,0-5.8-0.7-8.2-2.1
			c-2.3-1.4-4.1-3.4-5.2-6c-1.2-2.6-1.7-5.4-1.7-8.4c0-3.3,0.6-6.2,2-8.8c1.3-2.6,3.2-4.5,5.7-5.9c1.9-1.1,4.3-1.6,7.1-1.6
			c3.7,0,6.6,0.8,8.7,2.5c2.1,1.7,3.4,3.9,4,6.8l-6,1.2c-0.4-1.6-1.2-2.8-2.4-3.7c-1.2-0.9-2.6-1.3-4.3-1.3c-2.6,0-4.7,0.9-6.3,2.7
			c-1.6,1.8-2.3,4.4-2.3,7.9c0,3.7,0.8,6.6,2.4,8.5c1.6,1.9,3.6,2.8,6.2,2.8c1.3,0,2.5-0.3,3.8-0.8s2.4-1.2,3.3-1.9v-4h-7V261z"/>
		<polygon class="st2" points="655.1,272.6 655.1,241 661.1,241 661.1,272.6 		"/>
		<path class="st2" d="M665.7,257c0-3.2,0.5-5.9,1.4-8.1c0.7-1.6,1.6-3.1,2.8-4.3c1.2-1.3,2.5-2.2,3.9-2.8c1.9-0.8,4-1.3,6.4-1.3
			c4.4,0,7.9,1.4,10.5,4.3s4,6.9,4,12.1c0,5.1-1.3,9.1-3.9,12c-2.6,2.9-6.1,4.3-10.5,4.3s-8-1.4-10.6-4.3
			C667,266,665.7,262,665.7,257L665.7,257z M671.9,256.8c0,3.6,0.8,6.3,2.3,8.1c1.6,1.8,3.5,2.8,5.9,2.8s4.4-0.9,5.9-2.8
			c1.5-1.8,2.3-4.6,2.3-8.3c0-3.6-0.7-6.3-2.2-8.1c-1.5-1.8-3.5-2.7-6-2.7s-4.5,0.9-6,2.7C672.6,250.4,671.9,253.1,671.9,256.8
			L671.9,256.8z"/>
		<polygon class="st2" points="706.9,272.6 696.2,241 702.8,241 710.3,264.4 717.6,241 724,241 713.3,272.6 		"/>
		<path class="st2" d="M750.9,272.6h-6.6l-2.6-7.2h-11.9l-2.5,7.2h-6.4l11.6-31.6h6.4L750.9,272.6L750.9,272.6z M739.8,260.1
			l-4.1-11.7l-4,11.7H739.8L739.8,260.1z"/>
		<polygon class="st2" points="754.1,272.6 754.1,241 760,241 772.2,262.1 772.2,241 777.8,241 777.8,272.6 771.7,272.6 759.7,252 
			759.7,272.6 		"/>
		<polygon class="st2" points="784.2,272.6 784.2,241 790.1,241 802.3,262.1 802.3,241 807.9,241 807.9,272.6 801.8,272.6 
			789.8,252 789.8,272.6 		"/>
		<polygon class="st2" points="814,272.6 814,241 820,241 820,272.6 		"/>
		<path class="st2" d="M94.9,415.2h-6.2v-12.1c0-2.6-0.1-4.2-0.4-5c-0.3-0.7-0.7-1.3-1.3-1.8c-0.6-0.4-1.3-0.6-2.1-0.6
			c-1.1,0-2,0.3-2.9,0.9c-0.8,0.6-1.4,1.4-1.7,2.4c-0.3,1-0.5,2.8-0.5,5.5v10.8h-6.1v-23.8h5.7v3.5c2-2.7,4.6-4,7.7-4
			c1.4,0,2.6,0.3,3.7,0.7c1.1,0.5,2,1.1,2.6,1.9s1,1.7,1.2,2.6c0.2,1,0.3,2.4,0.3,4.2V415.2L94.9,415.2z"/>
		<path class="st2" d="M116.5,415.2v-3.6c-0.9,1.3-2,2.3-3.3,3c-1.4,0.7-2.8,1.1-4.4,1.1c-1.6,0-3-0.4-4.2-1c-1.2-0.7-2.1-1.7-2.7-3
			c-0.6-1.3-0.8-3-0.8-5.3v-15h6.2v10.9c0,3.3,0.1,5.4,0.3,6.2c0.2,0.7,0.6,1.3,1.2,1.8c0.6,0.4,1.4,0.7,2.3,0.7
			c1.1,0,2-0.3,2.8-0.9s1.4-1.3,1.7-2.2s0.5-3,0.5-6.4v-10h6.2v23.8L116.5,415.2L116.5,415.2z"/>
		<path class="st2" d="M134.5,415.2h-6.2v-23.8h5.7v3.4c1-1.6,1.9-2.7,2.6-3.2c0.8-0.5,1.7-0.8,2.7-0.8c1.4,0,2.8,0.4,4.1,1.2
			l-1.9,5.5c-1-0.7-2-1-2.9-1s-1.6,0.2-2.2,0.7c-0.6,0.5-1.1,1.4-1.4,2.6c-0.3,1.3-0.5,3.9-0.5,8L134.5,415.2L134.5,415.2z"/>
		<path class="st2" d="M150.7,398.6l-5.6-1c0.6-2.3,1.7-4,3.2-5.1s3.8-1.7,6.8-1.7c2.8,0,4.8,0.3,6.1,1s2.3,1.5,2.8,2.5
			s0.8,2.9,0.8,5.6l-0.1,7.3c0,2.1,0.1,3.6,0.3,4.6s0.6,2.1,1.1,3.2H160c-0.2-0.4-0.4-1-0.6-1.9c-0.1-0.4-0.2-0.6-0.2-0.7
			c-1.1,1-2.2,1.8-3.4,2.4c-1.2,0.5-2.5,0.8-3.8,0.8c-2.4,0-4.3-0.7-5.7-2s-2.1-3-2.1-5c0-1.3,0.3-2.5,0.9-3.6
			c0.6-1.1,1.5-1.9,2.6-2.4c1.1-0.6,2.8-1,4.9-1.5c2.9-0.6,4.9-1.1,6-1.5V399c0-1.2-0.3-2.1-0.9-2.6c-0.6-0.5-1.7-0.8-3.3-0.8
			c-1.1,0-2,0.2-2.6,0.7C151.6,396.7,151.1,397.5,150.7,398.6L150.7,398.6z M159,403.7c-0.8,0.3-2,0.6-3.8,1
			c-1.7,0.4-2.8,0.7-3.4,1.1c-0.8,0.6-1.2,1.3-1.2,2.2s0.3,1.6,1,2.3c0.6,0.6,1.5,1,2.5,1c1.1,0,2.2-0.4,3.2-1.1
			c0.7-0.6,1.2-1.3,1.5-2.1c0.2-0.5,0.2-1.6,0.2-3.1V403.7L159,403.7z"/>
		<path class="st2" d="M170.5,416.7l7,0.9c0.1,0.8,0.4,1.4,0.8,1.7c0.6,0.5,1.5,0.7,2.8,0.7c1.6,0,2.8-0.2,3.6-0.7
			c0.5-0.3,1-0.9,1.2-1.6c0.2-0.5,0.3-1.5,0.3-2.9v-3.5c-1.8,2.6-4.2,3.9-7,3.9c-3.1,0-5.6-1.3-7.4-4c-1.4-2.1-2.1-4.8-2.1-8
			c0-4,0.9-7,2.8-9.1c1.9-2.1,4.2-3.2,7-3.2c2.9,0,5.3,1.3,7.1,3.9v-3.3h5.8v21.2c0,2.8-0.2,4.9-0.7,6.3c-0.4,1.4-1.1,2.5-1.9,3.3
			c-0.8,0.8-1.9,1.4-3.3,1.9c-1.4,0.4-3.1,0.7-5.2,0.7c-4,0-6.8-0.7-8.4-2.1c-1.7-1.4-2.5-3.1-2.5-5.2
			C170.5,417.3,170.5,417,170.5,416.7L170.5,416.7z M176,402.8c0,2.5,0.5,4.4,1.4,5.5c1,1.2,2.1,1.8,3.5,1.8c1.5,0,2.8-0.6,3.8-1.8
			s1.6-3,1.6-5.3c0-2.5-0.5-4.3-1.5-5.5s-2.2-1.8-3.8-1.8c-1.5,0-2.7,0.6-3.7,1.8C176.5,398.6,176,400.4,176,402.8L176,402.8z"/>
		<path class="st2" d="M204.7,382.3v12.1c2-2.4,4.4-3.6,7.1-3.6c1.4,0,2.7,0.3,3.8,0.8c1.1,0.5,2,1.2,2.6,2.1c0.6,0.8,1,1.8,1.2,2.8
			s0.3,2.6,0.3,4.7v14h-6.2v-12.6c0-2.5-0.1-4.1-0.4-4.7c-0.2-0.7-0.7-1.2-1.2-1.6c-0.6-0.4-1.3-0.6-2.2-0.6c-1,0-1.9,0.3-2.7,0.8
			s-1.4,1.3-1.8,2.3c-0.4,1-0.6,2.5-0.6,4.5v11.9h-6.2v-32.8L204.7,382.3L204.7,382.3L204.7,382.3z"/>
		<path class="st2" d="M239.5,407.6l6.1,1c-0.8,2.3-2,4-3.7,5.2s-3.8,1.8-6.4,1.8c-4.1,0-7-1.3-9-4.1c-1.5-2.2-2.3-4.9-2.3-8.2
			c0-3.9,1-7,3-9.3c2-2.2,4.6-3.4,7.7-3.4c3.5,0,6.2,1.2,8.2,3.5s3,5.9,2.9,10.7h-15.4c0,1.9,0.5,3.3,1.5,4.4c1,1,2.1,1.6,3.6,1.6
			c1,0,1.8-0.3,2.4-0.8C238.7,409.6,239.2,408.8,239.5,407.6L239.5,407.6z M239.8,401.2c0-1.8-0.5-3.2-1.4-4.2
			c-0.9-0.9-1.9-1.4-3.2-1.4c-1.3,0-2.5,0.5-3.3,1.5c-0.9,1-1.3,2.4-1.3,4.1H239.8L239.8,401.2z"/>
		<path class="st2" d="M72.2,455.5l6.3-0.6c0.4,2.2,1.1,3.8,2.3,4.8c1.2,1,2.7,1.5,4.7,1.5c2.1,0,3.7-0.5,4.7-1.4
			c1.1-0.9,1.6-2,1.6-3.2c0-0.8-0.2-1.4-0.7-2c-0.4-0.6-1.2-1-2.3-1.4c-0.8-0.3-2.5-0.7-5.2-1.4c-3.5-0.9-5.9-2-7.3-3.2
			c-2-1.8-3-4-3-6.6c0-1.7,0.5-3.2,1.4-4.7s2.3-2.6,4-3.3c1.8-0.8,3.9-1.1,6.3-1.1c4.1,0,7.1,0.9,9.1,2.7s3.1,4.2,3.2,7.2l-6.5,0.3
			c-0.3-1.7-0.9-2.9-1.8-3.6c-0.9-0.7-2.3-1.1-4.1-1.1c-1.9,0-3.4,0.4-4.4,1.2c-0.7,0.5-1,1.2-1,2s0.3,1.4,1,2
			c0.8,0.7,2.8,1.4,6,2.2c3.2,0.8,5.5,1.6,7,2.4s2.7,1.9,3.6,3.3c0.9,1.4,1.3,3.2,1.3,5.2c0,1.9-0.5,3.6-1.5,5.3
			c-1,1.6-2.5,2.9-4.4,3.7s-4.2,1.2-7,1.2c-4.1,0-7.2-1-9.4-2.9C73.9,461.9,72.6,459.2,72.2,455.5L72.2,455.5z"/>
		<path class="st2" d="M103.6,442.4h5.8v3.5c0.7-1.2,1.8-2.2,3-2.9c1.3-0.7,2.7-1.1,4.2-1.1c2.7,0,5,1.1,6.9,3.3s2.8,5.2,2.8,9.1
			c0,4-1,7.1-2.9,9.3s-4.2,3.3-6.9,3.3c-1.3,0-2.5-0.3-3.5-0.8s-2.1-1.4-3.3-2.7v12h-6.2L103.6,442.4L103.6,442.4z M109.7,453.9
			c0,2.7,0.5,4.6,1.6,5.9c1,1.3,2.3,1.9,3.8,1.9c1.4,0,2.6-0.6,3.6-1.8s1.4-3.1,1.4-5.8c0-2.5-0.5-4.3-1.5-5.6
			c-1-1.2-2.2-1.8-3.6-1.8c-1.5,0-2.8,0.6-3.8,1.8C110.2,449.8,109.7,451.5,109.7,453.9L109.7,453.9z"/>
		<path class="st2" d="M144.8,458.6l6.2,1c-0.8,2.3-2,4-3.8,5.2c-1.7,1.2-3.8,1.8-6.4,1.8c-4.1,0-7.1-1.3-9-4.1
			c-1.5-2.2-2.3-4.9-2.3-8.2c0-3.9,1-7,3-9.3c2-2.2,4.6-3.4,7.7-3.4c3.5,0,6.2,1.2,8.2,3.5s3,5.9,2.9,10.7h-15.5
			c0,1.9,0.5,3.3,1.5,4.3c1,1,2.1,1.6,3.6,1.6c1,0,1.8-0.3,2.4-0.8C144,460.7,144.5,459.8,144.8,458.6L144.8,458.6z M145.2,452.2
			c0-1.8-0.5-3.2-1.4-4.2c-0.9-0.9-2-1.4-3.2-1.4c-1.3,0-2.5,0.5-3.3,1.5c-0.9,1-1.3,2.4-1.3,4.1H145.2L145.2,452.2z"/>
		<path class="st2" d="M162.3,466.2h-6.2v-23.8h5.7v3.4c1-1.6,1.9-2.7,2.6-3.2c0.8-0.5,1.7-0.8,2.7-0.8c1.4,0,2.8,0.4,4.1,1.2
			l-1.9,5.5c-1-0.7-2-1-2.9-1s-1.6,0.2-2.2,0.7c-0.6,0.5-1.1,1.4-1.4,2.6c-0.3,1.3-0.5,3.9-0.5,8L162.3,466.2L162.3,466.2z"/>
		<path class="st2" d="M178.5,449.6l-5.6-1c0.6-2.3,1.7-4,3.3-5.1c1.5-1.1,3.8-1.7,6.9-1.7c2.8,0,4.8,0.3,6.2,1
			c1.3,0.7,2.3,1.5,2.8,2.5s0.8,2.9,0.8,5.6l-0.1,7.3c0,2.1,0.1,3.6,0.3,4.6s0.6,2.1,1.1,3.2h-6.1c-0.2-0.4-0.4-1-0.6-1.9
			c-0.1-0.4-0.2-0.6-0.2-0.7c-1.1,1-2.2,1.8-3.4,2.4c-1.2,0.5-2.5,0.8-3.8,0.8c-2.4,0-4.3-0.7-5.7-2s-2.1-3-2.1-5
			c0-1.3,0.3-2.5,0.9-3.6c0.6-1.1,1.5-1.9,2.6-2.4c1.1-0.6,2.8-1,4.9-1.5c2.9-0.6,4.9-1.1,6-1.5V450c0-1.2-0.3-2.1-0.9-2.6
			c-0.6-0.5-1.7-0.8-3.3-0.8c-1.1,0-2,0.2-2.6,0.7C179.4,447.8,178.9,448.5,178.5,449.6L178.5,449.6z M186.7,454.7
			c-0.8,0.3-2,0.6-3.8,1c-1.7,0.4-2.8,0.7-3.4,1.1c-0.8,0.6-1.2,1.3-1.2,2.2c0,0.9,0.3,1.6,1,2.3c0.6,0.6,1.5,1,2.5,1
			c1.1,0,2.2-0.4,3.2-1.1c0.8-0.6,1.2-1.3,1.5-2.1c0.2-0.5,0.2-1.6,0.2-3.1V454.7L186.7,454.7z"/>
		<path class="st2" d="M220.1,466.2h-6.2v-12.1c0-2.6-0.1-4.2-0.4-5c-0.3-0.7-0.7-1.3-1.3-1.8c-0.6-0.4-1.3-0.6-2.1-0.6
			c-1.1,0-2,0.3-2.9,0.9c-0.8,0.6-1.4,1.4-1.7,2.4s-0.5,2.8-0.5,5.5v10.8h-6.2v-23.8h5.7v3.5c2-2.7,4.6-4,7.7-4
			c1.4,0,2.6,0.3,3.7,0.8s2,1.1,2.6,1.9s1,1.7,1.2,2.6c0.2,1,0.3,2.4,0.3,4.2L220.1,466.2L220.1,466.2z"/>
		<path class="st2" d="M223.9,466.2v-4.9l8.8-10.2c1.4-1.7,2.5-2.9,3.2-3.6c-0.7,0-1.7,0.1-2.8,0.1h-8.2v-5.2h19.3v4.5l-8.9,10.5
			l-3.1,3.5c1.7-0.1,2.8-0.2,3.2-0.2h9.6v5.5L223.9,466.2L223.9,466.2z"/>
		<path class="st2" d="M253.5,449.6l-5.6-1c0.6-2.3,1.7-4,3.2-5.1s3.8-1.7,6.9-1.7c2.8,0,4.8,0.3,6.2,1c1.3,0.7,2.3,1.5,2.8,2.5
			s0.8,2.9,0.8,5.6l-0.1,7.3c0,2.1,0.1,3.6,0.3,4.6c0.2,1,0.6,2.1,1.1,3.2H263c-0.2-0.4-0.4-1-0.6-1.9c-0.1-0.4-0.2-0.6-0.2-0.7
			c-1.1,1-2.2,1.8-3.4,2.4c-1.2,0.5-2.5,0.8-3.8,0.8c-2.4,0-4.3-0.7-5.7-2c-1.4-1.3-2.1-3-2.1-5c0-1.3,0.3-2.5,0.9-3.6
			s1.5-1.9,2.6-2.4c1.1-0.6,2.8-1,4.9-1.5c2.9-0.6,4.9-1.1,6-1.5V450c0-1.2-0.3-2.1-0.9-2.6s-1.7-0.8-3.3-0.8c-1.1,0-2,0.2-2.6,0.7
			C254.4,447.8,253.9,448.5,253.5,449.6L253.5,449.6z M261.8,454.7c-0.8,0.3-2,0.6-3.8,1c-1.7,0.4-2.8,0.7-3.4,1.1
			c-0.8,0.6-1.2,1.3-1.2,2.2c0,0.9,0.3,1.6,1,2.3c0.6,0.6,1.5,1,2.5,1c1.1,0,2.2-0.4,3.2-1.1c0.8-0.6,1.2-1.3,1.5-2.1
			c0.2-0.5,0.2-1.6,0.2-3.1L261.8,454.7L261.8,454.7z"/>
	</g>
</g>
</svg>
