<?xml version="1.0" encoding="utf-8"?>
<!-- Generator: Adobe Illustrator 19.2.0, SVG Export Plug-In . SVG Version: 6.00 Build 0)  -->
<svg version="1.1" id="Livello_1" xmlns="http://www.w3.org/2000/svg" xmlns:xlink="http://www.w3.org/1999/xlink" x="0px" y="0px"
	 viewBox="0 0 872.4 641.6" style="enable-background:new 0 0 872.4 641.6;" xml:space="preserve">
<style type="text/css">
	.st0{fill:#005EA7;stroke:#005EA7;stroke-width:1.0696;stroke-miterlimit:2.6131;}
	.st1{fill:#FFFFFF;}
	.st2{fill:none;stroke:#FFFFFF;stroke-width:7.1309;stroke-miterlimit:2.6131;}
</style>
<g>
	<g>
		<polygon class="st0" points="1,60.8 871,60.8 871,640.2 1,640.2 		"/>
		<path class="st1" d="M655.9,369.5l55.8,95.3c0.1,3.4,0,6.2-5.5,6.2l-33.5-6.2l0.1,115.6l-33.6-0.1l-0.1-115.6l-33.3,6.3
			c-5.7,0-5.7-3.1-5.7-6.2L655.9,369.5L655.9,369.5z"/>
		<path class="st1" d="M75.7,437.5l76.3,78.4c4,0.9,7.1-1.1,8.1-4.8l1.8-32.5c26.9-0.2,37.8,10,39,30.1v71.7l34.5-0.1v-71.5
			c0.1-38.1-29.1-59.8-64.5-63.5l14.6-29c1.1-3.8-0.8-7-4.5-8.1L75.7,437.5L75.7,437.5z"/>
		<path class="st2" d="M57.6,76.2h758c23.6,0,42.9,19.3,42.9,42.9v464.4c0,23.6-19.3,42.9-42.9,42.9h-758
			c-23.6,0-42.9-19.3-42.9-42.9V119.1C14.7,95.5,34,76.2,57.6,76.2L57.6,76.2z"/>
		<path class="st1" d="M89.7,305.4h18.1c3.6,0,6.3,0.2,8,0.5c1.8,0.3,3.3,1.1,4.7,2.1c1.4,1.1,2.5,2.5,3.5,4.3
			c0.9,1.8,1.4,3.8,1.4,6.1c0,2.4-0.6,4.7-1.7,6.7c-1.1,2-2.7,3.6-4.6,4.6c2.7,0.9,4.9,2.5,6.4,4.7s2.2,4.8,2.2,7.8
			c0,2.4-0.5,4.7-1.4,6.9c-1,2.2-2.3,4-3.9,5.4c-1.7,1.3-3.7,2.2-6.1,2.5c-1.5,0.2-5.2,0.3-11,0.3H89.9v-51.9H89.7z M98.9,314v12h6
			c3.6,0,5.8-0.1,6.6-0.2c1.6-0.2,2.8-0.8,3.7-1.9c0.9-1,1.3-2.4,1.3-4.1c0-1.6-0.4-2.9-1.1-3.9c-0.8-1-1.9-1.6-3.4-1.8
			c-0.9-0.1-3.5-0.2-7.8-0.2h-5.3V314z M98.9,334.7v13.9h8.4c3.3,0,5.4-0.1,6.3-0.3c1.4-0.3,2.5-1,3.3-2.1c0.9-1.1,1.3-2.6,1.3-4.4
			c0-1.6-0.3-2.9-1-4s-1.6-1.9-2.9-2.4c-1.2-0.5-3.9-0.7-8.1-0.7H98.9L98.9,334.7z"/>
		<path class="st1" d="M176.1,357.4h-9.9l-3.9-11.8h-18.1l-3.7,11.8h-9.7l17.6-52h9.7L176.1,357.4L176.1,357.4z M159.3,336.8
			l-6.2-19.3l-6.1,19.3H159.3L159.3,336.8z"/>
		<path class="st1" d="M181,357.4v-52h19.2c4.8,0,8.3,0.5,10.5,1.4s4,2.6,5.3,5s2,5.1,2,8.2c0,3.9-1,7.1-3,9.7c-2,2.5-5,4.1-9,4.8
			c2,1.3,3.6,2.8,4.9,4.4s3,4.4,5.2,8.4l5.5,10.1h-10.9l-6.6-11.3c-2.3-4-3.9-6.6-4.8-7.6c-0.9-1.1-1.8-1.8-2.7-2.2
			c-1-0.4-2.5-0.6-4.6-0.6h-1.8v21.7H181L181,357.4z M190.1,327.4h6.8c4.4,0,7.1-0.2,8.2-0.6c1.1-0.4,1.9-1.2,2.6-2.2
			c0.6-1,0.9-2.3,0.9-3.9c0-1.8-0.4-3.2-1.2-4.2c-0.8-1.1-2-1.8-3.4-2c-0.7-0.1-3-0.2-6.7-0.2h-7.1v13.1L190.1,327.4L190.1,327.4z"
			/>
		<polygon class="st1" points="226.3,357.4 226.3,305.4 235.4,305.4 235.4,357.4 		"/>
		<path class="st1" d="M505.5,235.1V185h14.7c5.6,0,9.2,0.3,10.9,0.8c2.6,0.7,4.8,2.4,6.5,4.9c1.8,2.5,2.6,5.8,2.6,9.8
			c0,3.1-0.5,5.7-1.5,7.8s-2.3,3.7-3.8,4.9c-1.5,1.2-3.1,2-4.7,2.4c-2.2,0.5-5.3,0.7-9.5,0.7h-6v18.9L505.5,235.1L505.5,235.1z
			 M514.6,193.4v14.2h5c3.6,0,6-0.3,7.2-0.8s2.2-1.3,2.9-2.5c0.7-1.1,1-2.4,1-3.9c0-1.8-0.5-3.3-1.5-4.5s-2.2-1.9-3.7-2.2
			c-1.1-0.2-3.3-0.3-6.6-0.3L514.6,193.4L514.6,193.4z"/>
		<polygon class="st1" points="547.7,235.1 547.7,185 581.3,185 581.3,193.4 556.8,193.4 556.8,204.5 579.6,204.5 579.6,213 
			556.8,213 556.8,226.6 582.1,226.6 582.1,235.1 		"/>
		<path class="st1" d="M587.6,218.8l8.9-1c0.5,3.3,1.6,5.7,3.3,7.3c1.6,1.5,3.8,2.3,6.6,2.3c2.9,0,5.2-0.7,6.7-2.1s2.2-3,2.2-4.8
			c0-1.2-0.3-2.2-0.9-3c-0.6-0.8-1.7-1.6-3.3-2.2c-1.1-0.4-3.5-1.1-7.3-2.2c-4.9-1.3-8.3-3-10.3-5c-2.8-2.8-4.2-6.1-4.2-10.1
			c0-2.6,0.7-4.9,2-7.2c1.3-2.2,3.2-3.9,5.7-5.1s5.4-1.7,8.9-1.7c5.7,0,10,1.4,12.8,4.1c2.9,2.8,4.4,6.4,4.5,11.1l-9.1,0.4
			c-0.4-2.6-1.2-4.4-2.5-5.6c-1.3-1.1-3.2-1.7-5.8-1.7c-2.7,0-4.7,0.6-6.2,1.8c-1,0.8-1.5,1.8-1.5,3.1c0,1.2,0.4,2.2,1.4,3
			c1.2,1.1,4,2.2,8.4,3.4c4.5,1.2,7.7,2.4,9.9,3.6c2.1,1.2,3.8,2.9,5,5.1s1.8,4.8,1.8,8c0,2.9-0.7,5.6-2.2,8.1
			c-1.4,2.5-3.5,4.4-6.1,5.6s-5.9,1.8-9.9,1.8c-5.7,0-10.1-1.5-13.2-4.4C590,228.7,588.2,224.4,587.6,218.8L587.6,218.8z"/>
		<path class="st1" d="M661.1,216.7l8.9,3.1c-1.4,5.5-3.6,9.5-6.8,12.2s-7.2,4-12,4c-6,0-11-2.3-14.8-6.8
			c-3.9-4.6-5.8-10.8-5.8-18.7c0-8.3,1.9-14.8,5.8-19.4c3.9-4.6,9-6.9,15.4-6.9c5.5,0,10,1.8,13.5,5.4c2.1,2.1,3.6,5.2,4.6,9.2
			l-9.1,2.4c-0.5-2.6-1.6-4.7-3.4-6.2c-1.7-1.5-3.8-2.3-6.2-2.3c-3.4,0-6.1,1.3-8.2,4c-2.1,2.7-3.1,7-3.1,13c0,6.3,1,10.9,3.1,13.5
			c2.1,2.7,4.7,4,8,4c2.4,0,4.5-0.9,6.3-2.6C659.1,223,660.3,220.3,661.1,216.7L661.1,216.7z"/>
		<path class="st1" d="M718.7,235.1h-10l-4-11.4h-18.1l-3.7,11.4h-9.7l17.6-50.1h9.7L718.7,235.1L718.7,235.1z M701.8,215.3
			l-6.2-18.6l-6.1,18.6H701.8L701.8,215.3z"/>
		<path class="st1" d="M723.5,235.1V185h19.3c4.8,0,8.4,0.5,10.6,1.4c2.2,0.9,4,2.5,5.3,4.8s2,4.9,2,7.9c0,3.8-1,6.9-3,9.3
			s-5,4-9,4.6c2,1.3,3.6,2.7,4.9,4.2c1.3,1.5,3,4.2,5.2,8.1l5.5,9.8h-10.9l-6.6-10.9c-2.4-3.9-4-6.3-4.8-7.4c-0.9-1-1.8-1.7-2.8-2.1
			s-2.5-0.6-4.6-0.6h-1.8V235h-9.3L723.5,235.1L723.5,235.1z M732.7,206.1h6.8c4.4,0,7.1-0.2,8.2-0.6c1.1-0.4,1.9-1.1,2.6-2.1
			c0.6-1,0.9-2.3,0.9-3.8c0-1.7-0.4-3-1.2-4.1c-0.8-1-2-1.7-3.4-2c-0.7-0.1-3-0.2-6.7-0.2h-7.1L732.7,206.1L732.7,206.1z"/>
		<path class="st1" d="M810.1,235.1h-10l-4-11.4H778l-3.7,11.4h-9.7l17.6-50.1h9.7L810.1,235.1L810.1,235.1z M793.2,215.3l-6.2-18.6
			l-6.1,18.6H793.2L793.2,215.3z"/>
		<polygon class="st1" points="421.2,516.2 452,516.2 452,580.3 421.2,580.3 		"/>
		<polygon class="st1" points="421.2,384.6 452,384.6 452,448.7 421.2,448.7 		"/>
		<polygon class="st1" points="421.2,253.5 452,253.5 452,317.5 421.2,317.5 		"/>
		<polygon class="st1" points="421.2,121.9 452,121.9 452,185.9 421.2,185.9 		"/>
	</g>
</g>
</svg>
