<?xml version="1.0" encoding="utf-8"?>
<!-- Generator: Adobe Illustrator 19.2.0, SVG Export Plug-In . SVG Version: 6.00 Build 0)  -->
<svg version="1.1" id="Livello_1" xmlns="http://www.w3.org/2000/svg" xmlns:xlink="http://www.w3.org/1999/xlink" x="0px" y="0px"
	 viewBox="0 0 872.1 555.5" style="enable-background:new 0 0 872.1 555.5;" xml:space="preserve">
<style type="text/css">
	.st0{fill:#FFFFFF;stroke:#1A171B;stroke-width:0.9044;stroke-miterlimit:2.6131;}
	.st1{fill:none;stroke:#1A171B;stroke-width:6.0293;stroke-miterlimit:2.6131;}
	.st2{fill:#005EA7;}
	.st3{fill:#1A171B;}
	.st4{fill:none;stroke:#1A171B;stroke-width:0.6008;stroke-miterlimit:2.6131;}
	.st5{fill:none;stroke:#1A171B;stroke-width:0.6419;stroke-miterlimit:2.6131;}
	.st6{fill:none;stroke:#1A171B;stroke-width:0.641;stroke-miterlimit:2.6131;}
	.st7{fill:#1A171B;stroke:#1A171B;stroke-width:1.2075;stroke-miterlimit:2.6131;}
	.st8{fill:#916740;}
	.st9{fill:#FFFFFF;}
	.st10{fill:none;stroke:#FFFFFF;stroke-width:3.0147;stroke-miterlimit:2.6131;}
</style>
<g>
	<g>
		<polygon class="st0" points="1,60.8 871,60.8 871,554.2 1,554.2 		"/>
		<path class="st1" d="M30.7,69.3h810.4c11.9,0,21.4,10.3,21.4,21.2v433.8c0,10.9-10.3,21.2-21.4,21.2H30.7
			c-10.9,0-21.2-9.5-21.2-21.2V90.5C9.5,78.6,18.8,69.3,30.7,69.3L30.7,69.3z"/>
		<polygon class="st2" points="314.6,105.2 557.6,105.2 557.6,186 314.6,186 		"/>
		<path class="st3" d="M436.5,403.8l27.7,47.4c0.1,1.7,0,3.1-2.7,3.1l-16.6-3.1v57.4h-16.7v-57.4l-16.6,3.1c-2.8,0-2.8-1.5-2.8-3.1
			L436.5,403.8L436.5,403.8z"/>
		<path class="st3" d="M815.2,436.2l-38.6,39.7c-2,0.4-3.6-0.6-4.1-2.4l-0.9-16.4c-13.6-0.1-19.1,5.1-19.7,15.3v36.3h-17.5v-36.2
			c0-19.3,14.7-30.3,32.6-32.2l-7.4-14.7c-0.6-1.9,0.4-3.5,2.3-4.1L815.2,436.2L815.2,436.2z"/>
		<path class="st3" d="M55.6,436.2l38.6,39.7c2,0.4,3.6-0.6,4.1-2.4l0.9-16.4c13.6-0.1,19.1,5.1,19.7,15.3v36.3h17.5v-36.2
			c0-19.3-14.7-30.3-32.6-32.2l7.4-14.7c0.6-1.9-0.4-3.5-2.3-4.1L55.6,436.2L55.6,436.2z"/>
		<path class="st4" d="M809.3,121.2c12.8,0,23.3,10.5,23.3,23.3s-10.5,23.3-23.3,23.3S786,157.3,786,144.5S796.5,121.2,809.3,121.2
			L809.3,121.2z"/>
		<path class="st5" d="M809.5,125.4c10.6,0,19.3,8.7,19.3,19.3s-8.7,19.3-19.3,19.3s-19.3-8.7-19.3-19.3
			C790.2,134,798.9,125.4,809.5,125.4L809.5,125.4z"/>
		<path class="st6" d="M809.4,129.1c8.5,0,15.4,6.9,15.4,15.4s-6.9,15.4-15.4,15.4S794,153,794,144.5
			C793.9,136,800.9,129.1,809.4,129.1L809.4,129.1z"/>
		<path class="st7" d="M809.3,136.4c4.5,0,8.1,3.6,8.1,8.1s-3.6,8.1-8.1,8.1s-8.1-3.6-8.1-8.1S804.9,136.4,809.3,136.4L809.3,136.4z
			"/>
		<path class="st3" d="M646.6,142.2l-5.7,1.1c-0.2-1.3-0.6-2.2-1.3-2.9c-0.7-0.6-1.5-1-2.6-1c-1.4,0-2.6,0.6-3.4,1.7
			c-0.8,1.1-1.3,3-1.3,5.6c0,2.9,0.4,4.9,1.3,6.1c0.9,1.2,2,1.8,3.5,1.8c1.1,0,2-0.3,2.7-1s1.2-1.9,1.5-3.6l5.6,1.1
			c-0.6,2.9-1.7,5.1-3.4,6.6s-3.9,2.2-6.7,2.2c-3.2,0-5.7-1.1-7.6-3.4c-1.9-2.2-2.8-5.4-2.8-9.3c0-4,0.9-7.1,2.8-9.4
			c1.9-2.2,4.4-3.4,7.7-3.4c2.6,0,4.7,0.6,6.3,1.9C644.8,137.6,645.9,139.6,646.6,142.2L646.6,142.2z"/>
		<path class="st3" d="M663.5,151.6l5.7,1.1c-0.7,2.4-1.9,4.1-3.5,5.4c-1.6,1.2-3.6,1.8-5.9,1.8c-3.8,0-6.6-1.4-8.4-4.1
			c-1.4-2.2-2.1-5-2.1-8.4c0-4,0.9-7.2,2.8-9.5c1.9-2.3,4.2-3.4,7.1-3.4c3.2,0,5.8,1.2,7.6,3.6c1.9,2.4,2.7,6.1,2.7,11h-14.4
			c0,1.9,0.5,3.4,1.4,4.5s2,1.6,3.3,1.6c0.9,0,1.7-0.3,2.3-0.8C662.7,153.7,663.2,152.8,663.5,151.6L663.5,151.6z M663.8,145.1
			c0-1.9-0.5-3.3-1.3-4.3s-1.8-1.5-3-1.5c-1.3,0-2.3,0.5-3.1,1.5s-1.2,2.4-1.2,4.2L663.8,145.1L663.8,145.1z"/>
		<path class="st3" d="M693.9,159.3h-5.7v-12.4c0-2.6-0.1-4.3-0.4-5.1c-0.2-0.8-0.6-1.4-1.2-1.8c-0.5-0.4-1.2-0.6-2-0.6
			c-1,0-1.9,0.3-2.7,0.9s-1.3,1.4-1.6,2.4s-0.4,2.9-0.4,5.6v11h-5.7V135h5.3v3.6c1.9-2.8,4.3-4.1,7.1-4.1c1.3,0,2.4,0.3,3.5,0.8
			c1,0.5,1.8,1.2,2.4,2c0.5,0.8,0.9,1.7,1.1,2.7c0.2,1,0.3,2.4,0.3,4.3L693.9,159.3L693.9,159.3z"/>
		<path class="st3" d="M709.6,135v5.1h-3.9v9.8c0,2,0,3.1,0.1,3.5c0.1,0.3,0.2,0.6,0.5,0.8s0.6,0.3,1,0.3c0.5,0,1.3-0.2,2.3-0.6
			l0.5,5c-1.3,0.6-2.8,1-4.5,1c-1,0-2-0.2-2.8-0.6s-1.4-0.9-1.8-1.5c-0.4-0.6-0.7-1.5-0.8-2.5c-0.1-0.7-0.2-2.3-0.2-4.5v-10.6h-2.6
			v-5.1h2.6v-4.8l5.7-3.8v8.6L709.6,135L709.6,135z"/>
		<path class="st3" d="M719.1,159.3h-5.7V135h5.3v3.5c0.9-1.6,1.7-2.7,2.5-3.2c0.7-0.5,1.6-0.8,2.5-0.8c1.3,0,2.6,0.4,3.8,1.2
			l-1.8,5.6c-1-0.7-1.9-1-2.7-1s-1.5,0.2-2,0.7c-0.6,0.5-1,1.4-1.3,2.7s-0.5,4-0.5,8.2L719.1,159.3L719.1,159.3z"/>
		<path class="st3" d="M728.5,146.8c0-2.1,0.5-4.2,1.4-6.2s2.3-3.5,4-4.6s3.6-1.6,5.8-1.6c3.3,0,6,1.2,8.1,3.6s3.1,5.4,3.1,9.1
			s-1.1,6.7-3.2,9.2c-2.1,2.4-4.8,3.6-8,3.6c-2,0-3.9-0.5-5.7-1.5s-3.2-2.5-4.1-4.4C729,152,728.5,149.6,728.5,146.8L728.5,146.8z
			 M734.4,147.2c0,2.4,0.5,4.3,1.5,5.5c1,1.3,2.3,1.9,3.8,1.9s2.7-0.6,3.8-1.9c1-1.3,1.5-3.1,1.5-5.6c0-2.4-0.5-4.2-1.5-5.5
			s-2.3-1.9-3.8-1.9s-2.8,0.6-3.8,1.9S734.4,144.8,734.4,147.2L734.4,147.2z"/>
		<polygon class="st2" points="38.6,105.2 264.1,105.2 264.1,186 38.6,186 		"/>
		<polygon class="st8" points="314.6,241.8 557.6,241.8 557.6,322.5 314.6,322.5 		"/>
		<polygon class="st3" points="278.5,105.2 300.1,105.2 300.1,152.9 278.5,152.9 		"/>
		<polygon class="st3" points="278.5,194.1 300.1,194.1 300.1,241.8 278.5,241.8 		"/>
		<polygon class="st3" points="278.5,372 300.1,372 300.1,419.7 278.5,419.7 		"/>
		<polygon class="st3" points="278.5,283.2 300.1,283.2 300.1,330.8 278.5,330.8 		"/>
		<polygon class="st3" points="278.5,461.1 300.1,461.1 300.1,508.7 278.5,508.7 		"/>
		<polygon class="st3" points="572.1,105.2 593.7,105.2 593.7,152.9 572.1,152.9 		"/>
		<polygon class="st3" points="572.1,194.1 593.7,194.1 593.7,241.8 572.1,241.8 		"/>
		<polygon class="st3" points="572.1,372 593.7,372 593.7,419.7 572.1,419.7 		"/>
		<polygon class="st3" points="572.1,283.2 593.7,283.2 593.7,330.8 572.1,330.8 		"/>
		<polygon class="st3" points="572.1,461.1 593.7,461.1 593.7,508.7 572.1,508.7 		"/>
		<polygon class="st3" points="41.6,311.6 41.6,280.5 50.9,280.5 56.5,301.8 62,280.5 71.3,280.5 71.3,311.6 65.5,311.6 65.5,287.2 
			59.4,311.6 53.5,311.6 47.4,287.2 47.4,311.6 		"/>
		<path class="st3" d="M81.8,296l-5.3-1c0.6-2.2,1.6-3.8,3.1-4.8s3.7-1.6,6.5-1.6c2.6,0,4.6,0.3,5.9,1c1.3,0.6,2.2,1.4,2.7,2.4
			s0.8,2.7,0.8,5.3l-0.1,7c0,2,0.1,3.4,0.3,4.4c0.2,0.9,0.5,1.9,1.1,3H91c-0.2-0.4-0.3-1-0.6-1.8c-0.1-0.4-0.2-0.6-0.2-0.7
			c-1,1-2.1,1.7-3.2,2.2c-1.1,0.5-2.4,0.7-3.7,0.7c-2.3,0-4.1-0.6-5.4-1.9s-2-2.9-2-4.8c0-1.3,0.3-2.4,0.9-3.4s1.4-1.8,2.5-2.3
			s2.6-1,4.7-1.4c2.7-0.5,4.7-1,5.7-1.5v-0.6c0-1.2-0.3-2-0.8-2.5c-0.6-0.5-1.6-0.7-3.2-0.7c-1.1,0-1.9,0.2-2.5,0.6
			C82.7,294.2,82.2,294.9,81.8,296L81.8,296z M89.7,300.8c-0.8,0.3-1.9,0.6-3.6,0.9c-1.6,0.4-2.7,0.7-3.2,1
			c-0.8,0.6-1.2,1.3-1.2,2.1c0,0.8,0.3,1.6,0.9,2.2s1.4,0.9,2.3,0.9c1.1,0,2.1-0.4,3-1.1c0.7-0.5,1.2-1.2,1.4-2
			c0.2-0.5,0.2-1.5,0.2-2.9v-1.1H89.7z"/>
		<path class="st3" d="M107,311.6h-5.9v-22.5h5.5v3.2c0.9-1.5,1.8-2.5,2.5-3c0.8-0.5,1.6-0.7,2.5-0.7c1.3,0,2.6,0.4,3.9,1.1
			l-1.8,5.2c-1-0.6-1.9-1-2.8-1c-0.8,0-1.5,0.2-2.1,0.7s-1,1.3-1.4,2.5s-0.5,3.7-0.5,7.6v6.9L107,311.6L107,311.6z"/>
		<path class="st3" d="M122.4,296l-5.3-1c0.6-2.2,1.6-3.8,3.1-4.8s3.7-1.6,6.5-1.6c2.6,0,4.6,0.3,5.9,1c1.3,0.6,2.2,1.4,2.7,2.4
			s0.8,2.7,0.8,5.3l-0.1,7c0,2,0.1,3.4,0.3,4.4c0.2,0.9,0.5,1.9,1.1,3h-5.8c-0.2-0.4-0.3-1-0.6-1.8c-0.1-0.4-0.2-0.6-0.2-0.7
			c-1,1-2.1,1.7-3.2,2.2c-1.1,0.5-2.4,0.7-3.7,0.7c-2.3,0-4.1-0.6-5.4-1.9c-1.3-1.3-2-2.9-2-4.8c0-1.3,0.3-2.4,0.9-3.4
			c0.6-1,1.4-1.8,2.5-2.3s2.6-1,4.7-1.4c2.7-0.5,4.7-1,5.7-1.5v-0.6c0-1.2-0.3-2-0.8-2.5c-0.6-0.5-1.6-0.7-3.2-0.7
			c-1.1,0-1.9,0.2-2.5,0.6C123.3,294.2,122.8,294.9,122.4,296L122.4,296z M130.3,300.8c-0.8,0.3-1.9,0.6-3.6,0.9
			c-1.6,0.4-2.7,0.7-3.2,1c-0.8,0.6-1.2,1.3-1.2,2.1c0,0.8,0.3,1.6,0.9,2.2c0.6,0.6,1.4,0.9,2.3,0.9c1.1,0,2.1-0.4,3-1.1
			c0.7-0.5,1.2-1.2,1.4-2c0.2-0.5,0.2-1.5,0.2-2.9v-1.1H130.3z"/>
		<path class="st3" d="M141.9,286.1v-5.6h5.9v5.5h-5.9V286.1z M141.9,311.6v-22.5h5.9v22.5H141.9L141.9,311.6z"/>
		<path class="st3" d="M174.1,311.6h-5.9v-11.5c0-2.4-0.1-4-0.4-4.7c-0.2-0.7-0.7-1.3-1.2-1.7c-0.6-0.4-1.2-0.6-2-0.6
			c-1,0-1.9,0.3-2.7,0.8c-0.8,0.6-1.4,1.3-1.7,2.3c-0.3,0.9-0.4,2.7-0.4,5.2v10.2h-5.9v-22.5h5.5v3.3c1.9-2.5,4.4-3.8,7.3-3.8
			c1.3,0,2.5,0.2,3.6,0.7s1.9,1.1,2.4,1.8c0.6,0.7,0.9,1.6,1.2,2.5c0.2,0.9,0.3,2.3,0.3,4v14L174.1,311.6L174.1,311.6z"/>
		<path class="st3" d="M180.1,286.1v-5.6h5.9v5.5h-5.9V286.1z M180.1,311.6v-22.5h5.9v22.5H180.1L180.1,311.6z"/>
		<path class="st3" d="M45.6,270l-5.5-13.5h3.7l2.5,6.9l0.7,2.3c0.2-0.6,0.3-1,0.4-1.2c0.1-0.4,0.2-0.8,0.4-1.1l2.6-6.9h3.7
			L48.7,270H45.6L45.6,270z"/>
		<path class="st3" d="M56.3,254.7v-3.3h3.6v3.3H56.3L56.3,254.7z M56.3,270v-13.5h3.6V270H56.3L56.3,270z"/>
		<path class="st3" d="M66.2,260.7l-3.2-0.6c0.4-1.3,1-2.3,1.9-2.9s2.2-0.9,4-0.9c1.6,0,2.8,0.2,3.6,0.6c0.8,0.4,1.3,0.9,1.6,1.4
			c0.3,0.6,0.5,1.6,0.5,3.2v4.2c0,1.2,0.1,2.1,0.2,2.6c0.1,0.6,0.3,1.2,0.6,1.8h-3.5c-0.1-0.2-0.2-0.6-0.3-1.1
			c-0.1-0.2-0.1-0.4-0.1-0.4c-0.6,0.6-1.3,1-2,1.3s-1.4,0.4-2.2,0.4c-1.4,0-2.5-0.4-3.3-1.1c-0.8-0.8-1.2-1.7-1.2-2.9
			c0-0.8,0.2-1.4,0.5-2c0.4-0.6,0.9-1.1,1.5-1.4c0.7-0.3,1.6-0.6,2.8-0.8c1.7-0.3,2.8-0.6,3.5-0.9v-0.4c0-0.7-0.2-1.2-0.5-1.5
			s-1-0.4-1.9-0.4c-0.6,0-1.1,0.1-1.5,0.4C66.7,259.6,66.4,260,66.2,260.7L66.2,260.7z M71,263.6c-0.5,0.2-1.2,0.3-2.2,0.5
			s-1.6,0.4-1.9,0.6c-0.5,0.3-0.7,0.7-0.7,1.3c0,0.5,0.2,0.9,0.6,1.3s0.8,0.5,1.4,0.5s1.3-0.2,1.8-0.6c0.4-0.3,0.7-0.7,0.9-1.2
			c0.1-0.3,0.1-0.9,0.1-1.7L71,263.6L71,263.6z"/>
		<polygon class="st3" points="78,270 78,251.4 81.6,251.4 81.6,270 		"/>
		<path class="st3" d="M93.1,265.7l3.6,0.6c-0.5,1.3-1.2,2.3-2.2,3s-2.2,1-3.7,1c-2.3,0-4.1-0.8-5.2-2.3c-0.9-1.2-1.3-2.8-1.3-4.6
			c0-2.2,0.6-4,1.8-5.3s2.6-1.9,4.4-1.9c2,0,3.6,0.7,4.8,2s1.7,3.4,1.7,6.1h-8.9c0,1.1,0.3,1.9,0.9,2.5c0.6,0.6,1.2,0.9,2.1,0.9
			c0.6,0,1-0.2,1.4-0.5C92.6,266.9,92.9,266.4,93.1,265.7L93.1,265.7z M93.3,262.1c0-1-0.3-1.8-0.8-2.4c-0.5-0.5-1.1-0.8-1.9-0.8
			c-0.8,0-1.4,0.3-1.9,0.9s-0.8,1.3-0.8,2.3H93.3L93.3,262.1z"/>
		<path class="st3" d="M663.6,298.5l-5.9-14.7h4.1l2.8,7.5l0.8,2.5c0.2-0.6,0.4-1.1,0.4-1.3c0.1-0.4,0.3-0.8,0.4-1.2l2.8-7.5h4
			l-5.8,14.7H663.6L663.6,298.5z"/>
		<path class="st3" d="M675.3,281.8v-3.6h3.9v3.6H675.3L675.3,281.8z M675.3,298.5v-14.7h3.9v14.7H675.3L675.3,298.5z"/>
		<path class="st3" d="M686.1,288.3l-3.5-0.6c0.4-1.4,1.1-2.5,2-3.2c1-0.7,2.4-1,4.3-1c1.7,0,3,0.2,3.9,0.6c0.8,0.4,1.4,0.9,1.8,1.6
			c0.3,0.6,0.5,1.8,0.5,3.5v4.5c0,1.3,0.1,2.2,0.2,2.9c0.1,0.6,0.4,1.3,0.7,2h-3.8c-0.1-0.3-0.2-0.6-0.4-1.1
			c-0.1-0.2-0.1-0.4-0.1-0.5c-0.7,0.6-1.4,1.1-2.1,1.5c-0.8,0.3-1.6,0.5-2.4,0.5c-1.5,0-2.7-0.4-3.6-1.2c-0.9-0.8-1.3-1.9-1.3-3.1
			c0-0.8,0.2-1.6,0.6-2.2c0.4-0.7,1-1.1,1.7-1.5c0.7-0.3,1.7-0.6,3.1-0.9c1.8-0.3,3.1-0.7,3.8-1v-0.6c0-0.8-0.2-1.3-0.6-1.6
			c-0.4-0.3-1.1-0.5-2.1-0.5c-0.7,0-1.2,0.1-1.6,0.4C686.7,287.1,686.3,287.6,686.1,288.3L686.1,288.3z M691.3,291.5
			c-0.5,0.2-1.3,0.4-2.4,0.6c-1.1,0.2-1.8,0.5-2.1,0.7c-0.5,0.4-0.8,0.8-0.8,1.4c0,0.5,0.2,1,0.6,1.4c0.4,0.4,0.9,0.6,1.5,0.6
			c0.7,0,1.4-0.2,2-0.7c0.5-0.3,0.8-0.8,0.9-1.3c0.1-0.3,0.2-1,0.2-1.9L691.3,291.5L691.3,291.5z"/>
		<path class="st3" d="M729.4,287.3l6.4,1.9c-1,3.3-2.6,5.8-4.9,7.4c-2.3,1.6-5.2,2.4-8.7,2.4c-4.4,0-7.9-1.4-10.8-4.1
			c-2.8-2.8-4.2-6.6-4.2-11.3c0-5.1,1.4-9,4.2-11.8s6.5-4.2,11.1-4.2c4,0,7.3,1.1,9.8,3.3c1.5,1.3,2.6,3.2,3.4,5.6l-6.6,1.5
			c-0.4-1.6-1.2-2.8-2.4-3.7c-1.2-0.9-2.7-1.4-4.5-1.4c-2.4,0-4.4,0.8-5.9,2.4s-2.3,4.2-2.3,7.9c0,3.9,0.7,6.6,2.2,8.2
			s3.4,2.5,5.8,2.5c1.8,0,3.3-0.5,4.6-1.6C727.9,291.2,728.8,289.5,729.4,287.3L729.4,287.3z"/>
		<path class="st3" d="M741.4,273.4V268h6.3v5.4H741.4L741.4,273.4z M741.4,298.5v-22.1h6.3v22.1H741.4L741.4,298.5z"/>
		<path class="st3" d="M775.9,298.5h-6.3v-11.3c0-2.4-0.1-3.9-0.4-4.6c-0.3-0.7-0.7-1.2-1.3-1.6s-1.3-0.6-2.2-0.6
			c-1.1,0-2.1,0.3-2.9,0.8c-0.9,0.6-1.5,1.3-1.8,2.2c-0.3,0.9-0.5,2.6-0.5,5.1v10h-6.3v-22.1h5.8v3.2c2.1-2.5,4.7-3.7,7.9-3.7
			c1.4,0,2.7,0.2,3.8,0.7s2,1.1,2.6,1.8c0.6,0.7,1,1.5,1.2,2.5c0.2,0.9,0.4,2.2,0.4,3.9V298.5L775.9,298.5z"/>
		<path class="st3" d="M793.2,276.4v4.7h-4.3v8.9c0,1.8,0,2.9,0.1,3.2c0.1,0.3,0.3,0.5,0.6,0.7s0.7,0.3,1.1,0.3
			c0.6,0,1.4-0.2,2.5-0.6l0.5,4.5c-1.5,0.6-3.1,0.9-5,0.9c-1.1,0-2.2-0.2-3.1-0.5c-0.9-0.4-1.6-0.8-2-1.4s-0.7-1.3-0.9-2.3
			c-0.1-0.7-0.2-2.1-0.2-4.1v-9.6h-2.9v-4.7h2.9V272l6.3-3.4v7.8H793.2L793.2,276.4z"/>
		<path class="st3" d="M797.5,273.4V268h6.3v5.4H797.5L797.5,273.4z M797.5,298.5v-22.1h6.3v22.1H797.5L797.5,298.5z"/>
		<path class="st3" d="M815,283.2l-5.7-1c0.6-2.1,1.7-3.7,3.3-4.7s3.9-1.5,7-1.5c2.8,0,4.9,0.3,6.3,0.9c1.4,0.6,2.3,1.4,2.9,2.4
			c0.6,1,0.8,2.7,0.8,5.2l-0.1,6.8c0,1.9,0.1,3.4,0.3,4.3s0.6,1.9,1.1,3h-6.2c-0.2-0.4-0.4-1-0.6-1.7c-0.1-0.3-0.2-0.6-0.2-0.7
			c-1.1,1-2.2,1.7-3.5,2.2c-1.2,0.5-2.5,0.7-3.9,0.7c-2.4,0-4.4-0.6-5.8-1.8c-1.4-1.2-2.1-2.8-2.1-4.7c0-1.2,0.3-2.4,1-3.3
			c0.6-1,1.5-1.7,2.7-2.2s2.8-1,5-1.4c2.9-0.5,5-1,6.1-1.4v-0.8c0-1.1-0.3-1.9-0.9-2.4c-0.6-0.5-1.7-0.7-3.4-0.7
			c-1.1,0-2,0.2-2.6,0.6C815.9,281.4,815.4,282.1,815,283.2L815,283.2z M823.4,287.9c-0.8,0.2-2.1,0.5-3.8,0.9
			c-1.7,0.3-2.9,0.7-3.4,1c-0.8,0.5-1.2,1.2-1.2,2.1c0,0.8,0.3,1.5,1,2.1s1.5,0.9,2.5,0.9c1.1,0,2.2-0.3,3.3-1
			c0.8-0.5,1.3-1.2,1.5-1.9c0.2-0.5,0.2-1.4,0.2-2.8L823.4,287.9L823.4,287.9z"/>
		<polygon class="st9" points="340.6,297.9 340.6,272 331,272 331,266.7 356.8,266.7 356.8,272 347.2,272 347.2,297.9 		"/>
		<path class="st9" d="M371.3,290.7l6.2,1c-0.8,2.2-2.1,3.8-3.8,5c-1.7,1.1-3.9,1.7-6.5,1.7c-4.1,0-7.1-1.3-9.1-3.8
			c-1.6-2.1-2.3-4.7-2.3-7.8c0-3.7,1-6.7,3.1-8.8c2-2.1,4.6-3.2,7.7-3.2c3.5,0,6.3,1.1,8.3,3.3c2,2.2,3,5.6,2.9,10.2h-15.6
			c0,1.8,0.5,3.2,1.5,4.1c1,1,2.2,1.5,3.6,1.5c1,0,1.8-0.3,2.5-0.8C370.5,292.7,371,291.9,371.3,290.7L371.3,290.7z M371.7,284.7
			c0-1.7-0.5-3-1.4-3.9s-2-1.4-3.2-1.4c-1.4,0-2.5,0.5-3.4,1.4s-1.3,2.2-1.3,3.9H371.7L371.7,284.7z"/>
		<path class="st9" d="M388.9,297.9h-6.2v-22.6h5.8v3.2c1-1.5,1.9-2.5,2.7-3c0.8-0.5,1.7-0.7,2.7-0.7c1.4,0,2.8,0.4,4.1,1.1
			l-1.9,5.2c-1-0.6-2-1-2.9-1s-1.6,0.2-2.2,0.7s-1.1,1.3-1.4,2.5s-0.5,3.7-0.5,7.6v7L388.9,297.9L388.9,297.9z"/>
		<path class="st9" d="M400.2,275.3h5.8v3.1c2.1-2.4,4.5-3.6,7.4-3.6c1.5,0,2.8,0.3,3.9,0.9s2,1.5,2.7,2.7c1-1.2,2.2-2.1,3.3-2.7
			c1.2-0.6,2.5-0.9,3.8-0.9c1.7,0,3.2,0.3,4.4,1c1.2,0.7,2.1,1.7,2.7,3c0.4,1,0.6,2.5,0.6,4.7v14.4h-6.2V285c0-2.2-0.2-3.7-0.6-4.3
			c-0.6-0.8-1.5-1.3-2.7-1.3c-0.9,0-1.7,0.3-2.5,0.8s-1.3,1.3-1.7,2.2c-0.3,1-0.5,2.5-0.5,4.7v10.8h-6.2v-12.4
			c0-2.2-0.1-3.6-0.3-4.3c-0.2-0.6-0.6-1.1-1-1.4c-0.5-0.3-1.1-0.5-1.9-0.5c-1,0-1.8,0.2-2.6,0.7c-0.8,0.5-1.3,1.2-1.7,2.1
			c-0.3,0.9-0.5,2.5-0.5,4.7v11h-6.2L400.2,275.3L400.2,275.3z"/>
		<path class="st9" d="M441.1,272.3v-5.5h6.2v5.5H441.1L441.1,272.3z M441.1,297.9v-22.6h6.2v22.6H441.1L441.1,297.9z"/>
		<path class="st9" d="M475.2,297.9H469v-11.5c0-2.4-0.1-4-0.4-4.7c-0.3-0.7-0.7-1.3-1.3-1.7c-0.6-0.4-1.3-0.6-2.2-0.6
			c-1.1,0-2.1,0.3-2.9,0.9c-0.9,0.6-1.4,1.3-1.8,2.3c-0.3,0.9-0.5,2.7-0.5,5.2V298h-6.2v-22.6h5.8v3.3c2.1-2.6,4.7-3.8,7.8-3.8
			c1.4,0,2.6,0.2,3.8,0.7c1.1,0.5,2,1.1,2.6,1.8c0.6,0.7,1,1.6,1.2,2.5s0.3,2.3,0.3,4L475.2,297.9L475.2,297.9z"/>
		<path class="st9" d="M481.5,272.3v-5.5h6.2v5.5H481.5L481.5,272.3z M481.5,297.9v-22.6h6.2v22.6H481.5L481.5,297.9z"/>
		<polygon class="st9" points="494.1,297.9 494.1,266.7 500.4,266.7 500.4,297.9 		"/>
		<polygon class="st9" points="506.8,297.9 506.8,266.7 513,266.7 513,297.9 		"/>
		<path class="st9" d="M518,286.3c0-2,0.5-3.9,1.5-5.8s2.5-3.3,4.3-4.2c1.9-1,4-1.5,6.3-1.5c3.6,0,6.5,1.1,8.8,3.3
			c2.3,2.2,3.4,5,3.4,8.4s-1.1,6.2-3.4,8.5c-2.3,2.3-5.2,3.4-8.7,3.4c-2.2,0-4.2-0.5-6.2-1.4s-3.5-2.3-4.5-4.1
			C518.5,291.1,518,288.9,518,286.3L518,286.3z M524.4,286.6c0,2.2,0.6,4,1.7,5.1c1.1,1.2,2.5,1.8,4.1,1.8s3-0.6,4.1-1.8
			c1.1-1.2,1.7-2.9,1.7-5.2c0-2.2-0.6-3.9-1.7-5.1c-1.1-1.2-2.5-1.8-4.1-1.8s-3,0.6-4.1,1.8C524.9,282.7,524.4,284.4,524.4,286.6
			L524.4,286.6z"/>
		<path class="st9" d="M404.4,152l6-0.6c0.4,2.2,1.1,3.8,2.2,4.8s2.6,1.5,4.5,1.5c2,0,3.5-0.5,4.5-1.4s1.5-2,1.5-3.2
			c0-0.8-0.2-1.5-0.6-2c-0.4-0.6-1.2-1-2.2-1.4c-0.7-0.3-2.4-0.8-5-1.5c-3.3-0.9-5.6-2-7-3.3c-1.9-1.8-2.8-4.1-2.8-6.7
			c0-1.7,0.4-3.3,1.3-4.8s2.2-2.6,3.8-3.4c1.7-0.8,3.7-1.2,6-1.2c3.9,0,6.7,0.9,8.7,2.7c1.9,1.8,3,4.3,3.1,7.3l-6.2,0.3
			c-0.3-1.7-0.8-2.9-1.7-3.7c-0.9-0.8-2.2-1.1-3.9-1.1c-1.8,0-3.2,0.4-4.2,1.2c-0.7,0.5-1,1.2-1,2.1c0,0.8,0.3,1.5,0.9,2
			c0.8,0.7,2.7,1.5,5.7,2.2c3,0.8,5.2,1.6,6.7,2.4c1.4,0.8,2.6,2,3.4,3.4s1.2,3.2,1.2,5.3c0,1.9-0.5,3.7-1.5,5.4s-2.4,2.9-4.1,3.7
			c-1.8,0.8-4,1.2-6.7,1.2c-3.9,0-6.9-1-8.9-2.9C406.1,158.5,404.8,155.7,404.4,152L404.4,152z"/>
		<path class="st9" d="M438.9,146l-5.3-1c0.6-2.3,1.6-4.1,3.1-5.2s3.6-1.7,6.5-1.7c2.6,0,4.6,0.3,5.9,1s2.2,1.5,2.7,2.6
			c0.5,1,0.8,2.9,0.8,5.7l-0.1,7.4c0,2.1,0.1,3.7,0.3,4.7c0.2,1,0.5,2.1,1.1,3.2H448c-0.1-0.4-0.3-1.1-0.6-1.9
			c-0.1-0.4-0.2-0.6-0.2-0.8c-1,1.1-2.1,1.9-3.2,2.4s-2.4,0.8-3.7,0.8c-2.3,0-4.1-0.7-5.4-2s-2-3.1-2-5.1c0-1.4,0.3-2.6,0.9-3.6
			c0.6-1.1,1.4-1.9,2.5-2.5s2.6-1.1,4.7-1.5c2.7-0.6,4.7-1.1,5.7-1.6v-0.6c0-1.2-0.3-2.1-0.8-2.6c-0.6-0.5-1.6-0.8-3.2-0.8
			c-1.1,0-1.9,0.2-2.5,0.7C439.8,144.1,439.3,144.9,438.9,146L438.9,146z M446.8,151.2c-0.7,0.3-1.9,0.6-3.6,1
			c-1.6,0.4-2.7,0.8-3.2,1.1c-0.8,0.6-1.1,1.3-1.1,2.2s0.3,1.7,0.9,2.3c0.6,0.7,1.4,1,2.3,1c1.1,0,2.1-0.4,3-1.1
			c0.7-0.6,1.2-1.3,1.4-2.1c0.2-0.5,0.2-1.6,0.2-3.1v-1.3L446.8,151.2L446.8,151.2z"/>
		<polygon class="st9" points="458.4,162.8 458.4,129.5 464.2,129.5 464.2,162.8 		"/>
		<path class="st9" d="M474.7,146l-5.3-1c0.6-2.3,1.6-4.1,3.1-5.2s3.6-1.7,6.5-1.7c2.6,0,4.6,0.3,5.9,1c1.3,0.7,2.2,1.5,2.7,2.6
			c0.5,1,0.8,2.9,0.8,5.7l-0.1,7.4c0,2.1,0.1,3.7,0.3,4.7s0.5,2.1,1.1,3.2h-5.8c-0.1-0.4-0.3-1.1-0.6-1.9c-0.1-0.4-0.2-0.6-0.2-0.8
			c-1,1.1-2.1,1.9-3.2,2.4c-1.1,0.5-2.4,0.8-3.7,0.8c-2.3,0-4.1-0.7-5.4-2c-1.3-1.3-2-3.1-2-5.1c0-1.4,0.3-2.6,0.9-3.6
			c0.6-1.1,1.4-1.9,2.5-2.5s2.6-1.1,4.7-1.5c2.7-0.6,4.6-1.1,5.7-1.6v-0.6c0-1.2-0.3-2.1-0.8-2.6c-0.6-0.5-1.6-0.8-3.2-0.8
			c-1.1,0-1.9,0.2-2.4,0.7C475.5,144.1,475,144.9,474.7,146L474.7,146z M482.5,151.2c-0.7,0.3-1.9,0.6-3.6,1
			c-1.6,0.4-2.7,0.8-3.2,1.1c-0.8,0.6-1.1,1.3-1.1,2.2s0.3,1.7,0.9,2.3c0.6,0.7,1.4,1,2.3,1c1.1,0,2.1-0.4,3-1.1
			c0.7-0.6,1.2-1.3,1.4-2.1c0.2-0.5,0.2-1.6,0.2-3.1L482.5,151.2L482.5,151.2z"/>
		<path class="st9" d="M499.7,162.8h-5.9v-24.1h5.5v3.4c0.9-1.6,1.8-2.7,2.5-3.2s1.6-0.8,2.5-0.8c1.3,0,2.6,0.4,3.9,1.2l-1.8,5.6
			c-1-0.7-1.9-1-2.8-1c-0.8,0-1.5,0.2-2.1,0.7s-1,1.4-1.3,2.7s-0.5,4-0.5,8.1L499.7,162.8L499.7,162.8z"/>
		<path class="st9" d="M510.8,135.4v-5.9h5.9v5.9H510.8L510.8,135.4z M510.8,162.8v-24.1h5.9v24.1H510.8L510.8,162.8z"/>
		<path class="st9" d="M527.1,146l-5.3-1c0.6-2.3,1.6-4.1,3.1-5.2s3.6-1.7,6.5-1.7c2.6,0,4.6,0.3,5.9,1c1.3,0.7,2.2,1.5,2.7,2.6
			c0.5,1,0.8,2.9,0.8,5.7l-0.1,7.4c0,2.1,0.1,3.7,0.3,4.7s0.5,2.1,1.1,3.2h-5.8c-0.1-0.4-0.3-1.1-0.6-1.9c-0.1-0.4-0.2-0.6-0.2-0.8
			c-1,1.1-2.1,1.9-3.2,2.4c-1.1,0.5-2.4,0.8-3.7,0.8c-2.3,0-4.1-0.7-5.4-2c-1.3-1.3-2-3.1-2-5.1c0-1.4,0.3-2.6,0.9-3.6
			c0.6-1.1,1.4-1.9,2.5-2.5s2.6-1.1,4.7-1.5c2.7-0.6,4.6-1.1,5.7-1.6v-0.6c0-1.2-0.3-2.1-0.8-2.6c-0.6-0.5-1.6-0.8-3.2-0.8
			c-1.1,0-1.9,0.2-2.4,0.7C527.9,144.1,527.4,144.9,527.1,146L527.1,146z M534.9,151.2c-0.7,0.3-1.9,0.6-3.6,1
			c-1.6,0.4-2.7,0.8-3.2,1.1c-0.8,0.6-1.2,1.3-1.2,2.2s0.3,1.7,0.9,2.3c0.6,0.7,1.4,1,2.3,1c1.1,0,2.1-0.4,3-1.1
			c0.7-0.6,1.2-1.3,1.4-2.1c0.2-0.5,0.2-1.6,0.2-3.1v-1.3L534.9,151.2L534.9,151.2z"/>
		<polygon class="st9" points="74.9,166.2 74.9,130.9 62.4,130.9 62.4,123.8 95.9,123.8 95.9,130.9 83.4,130.9 83.4,166.2 		"/>
		<polygon class="st9" points="101.4,166.2 101.4,123.8 132.6,123.8 132.6,130.9 109.9,130.9 109.9,140.4 131.1,140.4 131.1,147.5 
			109.9,147.5 109.9,159.1 133.4,159.1 133.4,166.2 		"/>
		<path class="st9" d="M140.7,166.2v-42.5h17.9c4.5,0,7.8,0.4,9.8,1.1c2,0.8,3.7,2.1,4.9,4.1c1.2,2,1.8,4.2,1.8,6.7
			c0,3.2-0.9,5.8-2.8,7.9c-1.9,2.1-4.6,3.4-8.3,3.9c1.8,1.1,3.4,2.3,4.6,3.6c1.2,1.3,2.8,3.6,4.8,6.9l5.2,8.3h-10.2l-6.1-9.2
			c-2.2-3.3-3.7-5.4-4.5-6.2c-0.8-0.9-1.7-1.4-2.6-1.8c-0.9-0.3-2.3-0.5-4.3-0.5h-1.7v17.7H140.7L140.7,166.2z M149.2,141.7h6.3
			c4.1,0,6.6-0.2,7.6-0.5s1.8-0.9,2.4-1.8c0.6-0.9,0.9-1.9,0.9-3.2c0-1.4-0.4-2.6-1.1-3.5c-0.8-0.9-1.8-1.4-3.2-1.7
			c-0.7-0.1-2.8-0.1-6.2-0.1h-6.6L149.2,141.7L149.2,141.7z"/>
		<polygon class="st9" points="183.2,166.2 183.2,123.8 191.5,123.8 208.7,152.1 208.7,123.8 216.6,123.8 216.6,166.2 208.1,166.2 
			191.1,138.5 191.1,166.2 		"/>
		<polygon class="st9" points="225.3,166.2 225.3,123.8 233.9,123.8 233.9,166.2 		"/>
		<path class="st9" d="M352.7,148.8l2.8-0.3c0.2,1.3,0.6,2.2,0.7,2.8c0.6,0.5,1.3,0.8,2.1,0.8c1.1,0,1.7-0.3,2.2-0.6
			c0.2-0.6,0.7-1.3,0.7-1.9s-0.2-0.8-0.6-1.1c-0.2-0.5-0.4-0.6-0.9-1.1c-0.2-0.2-0.7-0.3-2.1-0.8c-1.5-0.3-2.4-1.1-3.2-1.7
			c-0.7-1.3-1.1-2.5-1.1-4.1c0-0.9,0.2-1.9,0.6-2.7c0.4-0.9,1.1-1.4,1.7-2.1c0.6-0.5,1.7-0.6,2.6-0.6c1.7,0,3.2,0.5,3.9,1.6
			c0.9,1.3,1.3,2.7,1.3,4.4l-2.8,0.2c-0.2-0.9-0.2-1.7-0.7-2.2c-0.2-0.3-0.9-0.6-1.7-0.6s-1.5,0.3-1.9,0.6c-0.2,0.5-0.4,0.8-0.4,1.3
			c0,0.6,0.2,0.9,0.4,1.3c0.4,0.3,1.3,0.8,2.6,1.3c1.3,0.5,2.4,0.9,3,1.4c0.4,0.5,1.1,1.1,1.5,2.1c0.4,0.6,0.6,1.7,0.6,3
			c0,1-0.4,2.2-0.7,3c-0.4,0.9-1.1,1.9-1.9,2.2c-0.9,0.5-1.7,0.6-3,0.6c-1.9,0-3.2-0.5-4.1-1.6C353.7,152.6,352.9,151.1,352.7,148.8
			L352.7,148.8z"/>
		<path class="st9" d="M340,148.8l2.6-0.3c0.2,1.3,0.4,2.2,1.1,2.8c0.2,0.5,0.9,0.8,1.9,0.8c0.9,0,1.7-0.3,2.1-0.6
			c0.6-0.6,0.6-1.3,0.6-1.9s0-0.8-0.2-1.1c-0.2-0.5-0.6-0.6-1.1-1.1c-0.2-0.2-0.9-0.3-2.2-0.8c-1.1-0.3-2.4-1.1-2.8-1.7
			c-0.9-1.3-1.3-2.5-1.3-4.1c0-0.9,0.2-1.9,0.6-2.7c0.4-0.9,0.9-1.4,1.7-2.1c0.9-0.5,1.7-0.6,2.8-0.6c1.7,0,2.8,0.5,3.7,1.6
			c0.9,1.3,1.3,2.7,1.5,4.4l-2.8,0.2c-0.2-0.9-0.4-1.7-0.6-2.2c-0.7-0.3-1.1-0.6-1.9-0.6c-0.9,0-1.5,0.3-1.9,0.6
			c-0.2,0.5-0.4,0.8-0.4,1.3c0,0.6,0.2,0.9,0.4,1.3c0.2,0.3,0.9,0.8,2.4,1.3c1.3,0.5,2.2,0.9,2.8,1.4c0.9,0.5,1.3,1.1,1.7,2.1
			c0.2,0.6,0.6,1.7,0.6,3c0,1-0.4,2.2-0.7,3c-0.4,0.9-0.9,1.9-1.9,2.2c-0.7,0.5-1.9,0.6-3,0.6c-1.7,0-3-0.5-3.9-1.6
			C340.8,152.6,340.2,151.1,340,148.8L340,148.8z"/>
		<path class="st10" d="M341.4,126.6h39.4c5,0,9.1,4.1,9.1,9.1v18.9c0,5-4.1,9.1-9.1,9.1h-39.4c-5,0-9.1-4.1-9.1-9.1v-18.9
			C332.3,130.7,336.4,126.6,341.4,126.6L341.4,126.6z"/>
		<path class="st9" d="M375.3,155.5v-4h-6.5v-3.3l6.9-12.6h2.6v12.6h2v3.4h-2v4L375.3,155.5L375.3,155.5z M375.3,148.2v-6.8
			l-3.7,6.8H375.3L375.3,148.2z"/>
	</g>
</g>
</svg>
