<?xml version="1.0" encoding="utf-8"?>
<!-- Generator: Adobe Illustrator 19.2.0, SVG Export Plug-In . SVG Version: 6.00 Build 0)  -->
<svg version="1.1" id="Livello_1" xmlns="http://www.w3.org/2000/svg" xmlns:xlink="http://www.w3.org/1999/xlink" x="0px" y="0px"
	 viewBox="0 0 872.7 620.5" style="enable-background:new 0 0 872.7 620.5;" xml:space="preserve">
<style type="text/css">
	.st0{fill:#008E43;stroke:#008E43;stroke-width:1.2352;stroke-miterlimit:2.6131;}
	.st1{fill:#FFFFFF;}
	.st2{fill:#1A171B;stroke:#1A171B;stroke-width:3.2938;stroke-miterlimit:2.6131;}
	.st3{fill:none;stroke:#FFFFFF;stroke-width:8.2344;stroke-miterlimit:2.6131;}
	.st4{fill:#008E43;}
	.st5{fill:#008E43;stroke:#FFFFFF;stroke-width:5.3523;stroke-miterlimit:2.6131;}
	.st6{fill:#1A171B;}
</style>
<g>
	<g>
		<polygon class="st0" points="1,60.6 871,60.6 871,619.4 1,619.4 		"/>
		<polygon class="st1" points="74.3,392.8 507.9,392.8 507.9,500.9 74.3,500.9 		"/>
		<path class="st2" d="M137.4,484.2l-5.6-0.8l-17.7-32.1c-8.8-0.1-19.6,0.6-26.4-5.6c6.4-6.4,17.6-5.6,26.4-5.6l17.6-32.1l5.6-0.8
			l-5.5,28.1v4.8l32.9,3.2l8-8.8l4.1,0.1l-6.5,9.5l8,1.7l-8,1.6l6.5,9.6h-4l-8-8.8l-33,3.2l0.1,4.8L137.4,484.2L137.4,484.2z"/>
		<path class="st1" d="M738,262.6l-59.2,101.5c-0.2,3.9,2.4,6.2,5.8,6.6l35.6-6.7l-0.2,85.3c-19.8-17.1-42.7-16.8-59.6-17.4
			l6.2-36.4c0.2-3.9-2.1-5.4-6.4-5.5l-99.5,59.3l99.4,59.4c4.3,0.2,6.6-1.1,6.4-5.6l-5.4-36.4c41.6,0.6,58.4,25.4,58.8,41.9
			l0.1,45.6l35.6,0.1V364l35.6,6.6c5.1,0.9,6.4-3.9,6-6.6L738,262.6L738,262.6z"/>
		<path class="st3" d="M50.2,74.7h771.2c19.7,0,35.5,16.2,35.5,35v460.1c0,19-16.2,35.3-35.5,35.3H50.2c-18.8,0-35-15.8-35-35.3
			V109.7C15.2,90,30.5,74.7,50.2,74.7L50.2,74.7z"/>
		<polygon class="st4" points="165.6,125.5 277.3,125.5 277.3,236.6 165.6,236.6 		"/>
		<path class="st5" d="M255.7,229l-33.9,4.4l-33.9-4.4c-11.5-3.2-11.5-3.2-14-15.9l-5.1-31.7l5.1-32.4c2.5-12.6,2.5-12.6,14-15.2
			l33.9-5.1l33.9,5.1c10.8,2.6,10.8,2.6,14,15.2l4.5,32.4l-4.5,31.7C266.5,225.1,266.5,225.1,255.7,229L255.7,229z"/>
		<path class="st1" d="M221.9,208.7h-7.5l-3.1-12.7h-13.8l-2.9,12.7h-7.4l13.3-55.1h7.6L221.9,208.7L221.9,208.7z M209.1,186.9
			l-4.8-20.3l-4.7,20.3H209.1L209.1,186.9z"/>
		<path class="st1" d="M254.4,208.9h-8.9v-39.7c-3.3,3.5-7.3,6.3-11.7,7.9v-9.4c2.2-0.8,4.7-2.5,7.5-5c2.7-2.5,4.7-5.5,5.8-8.8h7.3
			L254.4,208.9L254.4,208.9z"/>
		<path class="st1" d="M320.7,145.7h27.2c5.4,0,9.4,0.2,12.1,0.7c2.6,0.4,5,1.4,7.1,2.9c2.1,1.4,3.8,3.4,5.2,5.8
			c1.4,2.4,2.1,5.1,2.1,8.1c0,3.2-0.9,6.2-2.6,8.9s-4.1,4.7-7,6.1c4.1,1.2,7.3,3.3,9.5,6.3s3.3,6.4,3.3,10.4c0,3.1-0.7,6.2-2.2,9.2
			c-1.4,3-3.4,5.3-5.9,7.1c-2.5,1.8-5.6,2.9-9.2,3.3c-2.3,0.2-7.8,0.4-16.6,0.5h-23.2v-69.3L320.7,145.7L320.7,145.7z M334.4,157.2
			v16h9c5.4,0,8.7-0.1,10-0.2c2.3-0.3,4.2-1.1,5.5-2.5s2-3.2,2-5.4c0-2.1-0.6-3.9-1.7-5.2c-1.2-1.3-2.9-2.1-5.2-2.4
			c-1.4-0.2-5.3-0.2-11.7-0.2L334.4,157.2L334.4,157.2z M334.4,184.7v18.5h12.7c5,0,8.1-0.1,9.4-0.4c2-0.4,3.7-1.3,5-2.8
			s1.9-3.4,1.9-5.9c0-2.1-0.5-3.8-1.5-5.3c-1-1.4-2.4-2.5-4.3-3.2s-5.9-1-12.2-1L334.4,184.7L334.4,184.7z"/>
		<path class="st1" d="M386.5,180.7c0-7.1,1-13,3.1-17.7c1.6-3.5,3.7-6.7,6.3-9.5c2.7-2.8,5.6-4.9,8.8-6.2c4.2-1.8,9.1-2.7,14.7-2.7
			c10,0,18,3.2,24.1,9.5c6,6.3,9,15.1,9,26.4c0,11.2-3,19.9-9,26.2c-6,6.3-14,9.4-23.9,9.4c-10.1,0-18.2-3.1-24.1-9.4
			C389.5,200.3,386.5,191.7,386.5,180.7L386.5,180.7z M400.6,180.2c0,7.8,1.8,13.8,5.3,17.8c3.6,4,8.1,6.1,13.6,6.1s10-2,13.5-6
			s5.3-10,5.3-18c0-7.9-1.7-13.8-5.1-17.7s-8-5.8-13.6-5.8c-5.7,0-10.2,2-13.7,5.9C402.4,166.3,400.6,172.3,400.6,180.2L400.6,180.2
			z"/>
		<polygon class="st1" points="463.6,214.8 463.6,146.3 477.3,146.3 477.3,203.2 511.4,203.2 511.4,214.8 		"/>
		<path class="st1" d="M518.5,180.7c0-7.1,1-13,3.1-17.7c1.5-3.5,3.7-6.7,6.3-9.5c2.7-2.8,5.6-4.9,8.8-6.2c4.2-1.8,9.1-2.7,14.7-2.7
			c10,0,18,3.2,24.1,9.5c6,6.3,9,15.1,9,26.4c0,11.2-3,19.9-9,26.2c-6,6.3-14,9.4-23.9,9.4c-10.1,0-18.2-3.1-24.1-9.4
			C521.5,200.3,518.5,191.7,518.5,180.7L518.5,180.7z M532.6,180.2c0,7.8,1.8,13.8,5.3,17.8c3.6,4,8.1,6.1,13.6,6.1s10-2,13.5-6
			s5.3-10,5.3-18c0-7.9-1.7-13.8-5.1-17.7c-3.4-3.9-8-5.8-13.6-5.8c-5.7,0-10.2,2-13.7,5.9C534.4,166.3,532.6,172.3,532.6,180.2
			L532.6,180.2z"/>
		<path class="st1" d="M626.8,189.4v-11.7h29.6v27.5c-2.9,2.8-7,5.3-12.5,7.5c-5.5,2.1-11,3.2-16.6,3.2c-7.1,0-13.3-1.5-18.6-4.5
			s-9.3-7.4-11.9-13c-2.7-5.7-4-11.8-4-18.4c0-7.2,1.5-13.6,4.5-19.2s7.3-9.9,13.1-12.9c4.4-2.3,9.8-3.4,16.3-3.4
			c8.4,0,15.1,1.8,19.8,5.4c4.8,3.6,7.8,8.6,9.2,14.9l-13.6,2.6c-1-3.4-2.8-6.1-5.4-8c-2.6-2-5.9-2.9-9.9-2.9
			c-6,0-10.8,1.9-14.3,5.8s-5.3,9.6-5.3,17.2c0,8.2,1.8,14.4,5.4,18.5c3.6,4.1,8.3,6.1,14.1,6.1c2.9,0,5.8-0.6,8.7-1.7
			s5.4-2.5,7.4-4.2v-8.8L626.8,189.4L626.8,189.4z"/>
		<polygon class="st1" points="669.3,214.8 669.3,145.7 682.6,145.7 710.5,191.9 710.5,145.7 723.2,145.7 723.2,214.8 709.4,214.8 
			682,169.7 682,214.8 		"/>
		<path class="st1" d="M799.1,214.8h-15l-5.9-15.7H751l-5.6,15.7h-14.6l26.5-69.1h14.5L799.1,214.8L799.1,214.8z M773.8,187.5
			l-9.4-25.7l-9.2,25.7H773.8L773.8,187.5z"/>
		<polygon class="st6" points="216,471.7 216,420.6 225.6,420.6 225.6,463 249.3,463 249.3,471.7 		"/>
		<path class="st6" d="M256,429.3v-9.1h9.1v9.1H256L256,429.3z M256,471.7v-37.3h9.1v37.3H256L256,471.7z"/>
		<path class="st6" d="M305.5,471.7h-9.1v-19c0-4-0.2-6.6-0.6-7.8s-1-2.1-1.9-2.8c-0.9-0.6-1.9-1-3.1-1c-1.6,0-3,0.5-4.2,1.4
			s-2.1,2.2-2.6,3.7s-0.7,4.4-0.7,8.6v16.9h-9.1v-37.3h8.4v5.5c3-4.2,6.8-6.3,11.3-6.3c2,0,3.8,0.4,5.5,1.2c1.6,0.8,2.9,1.8,3.8,3
			c0.8,1.2,1.4,2.6,1.8,4.1c0.3,1.5,0.5,3.8,0.5,6.6L305.5,471.7L305.5,471.7z"/>
		<path class="st6" d="M321.5,445.8l-8.2-1.6c0.9-3.6,2.5-6.3,4.8-8s5.6-2.6,10.1-2.6c4,0,7.1,0.5,9,1.6c2,1,3.4,2.4,4.2,4
			c0.8,1.6,1.2,4.5,1.2,8.8l-0.1,11.5c0,3.3,0.1,5.7,0.4,7.2s0.8,3.2,1.6,5h-9c-0.2-0.7-0.5-1.6-0.9-2.9c-0.1-0.6-0.3-1-0.3-1.2
			c-1.6,1.6-3.2,2.9-5,3.7s-3.6,1.2-5.6,1.2c-3.5,0-6.3-1-8.3-3.1s-3-4.7-3-7.9c0-2.1,0.5-4,1.4-5.6c0.9-1.7,2.2-2.9,3.9-3.8
			c1.7-0.9,4.1-1.6,7.2-2.3c4.2-0.9,7.2-1.7,8.8-2.4v-1c0-1.9-0.4-3.2-1.3-4.1c-0.9-0.8-2.5-1.2-4.9-1.2c-1.6,0-2.9,0.3-3.8,1
			C322.8,442.8,322.1,444,321.5,445.8L321.5,445.8z M333.6,453.8c-1.2,0.4-3,0.9-5.5,1.5s-4.1,1.2-4.9,1.7c-1.2,0.9-1.8,2.1-1.8,3.5
			s0.5,2.6,1.4,3.6s2.1,1.5,3.6,1.5c1.6,0,3.2-0.6,4.7-1.7c1.1-0.9,1.8-2,2.2-3.3c0.2-0.8,0.4-2.4,0.4-4.8v-2L333.6,453.8
			L333.6,453.8z"/>
		<path class="st6" d="M367.1,434.4v7.9H361v15c0,3,0.1,4.8,0.2,5.3s0.4,0.9,0.8,1.2s0.9,0.5,1.5,0.5c0.8,0,2.1-0.3,3.7-0.9l0.8,7.6
			c-2.1,1-4.5,1.5-7.2,1.5c-1.6,0-3.1-0.3-4.4-0.9c-1.3-0.6-2.3-1.4-2.9-2.3c-0.6-0.9-1-2.2-1.3-3.8c-0.2-1.1-0.3-3.5-0.3-7v-16.2
			h-4.2v-7.9h4.2V427l9.1-5.7v13.2L367.1,434.4L367.1,434.4z"/>
		<path class="st6" d="M393.2,459.8l9,1.6c-1.2,3.6-3,6.3-5.5,8.2s-5.6,2.8-9.4,2.8c-6,0-10.4-2.1-13.2-6.3
			c-2.3-3.4-3.4-7.7-3.4-12.8c0-6.2,1.5-11,4.5-14.5s6.7-5.2,11.2-5.2c5.1,0,9.1,1.8,12.1,5.5c2.9,3.7,4.3,9.3,4.2,16.8H380
			c0.1,2.9,0.8,5.2,2.2,6.8c1.4,1.6,3.1,2.4,5.2,2.4c1.4,0,2.6-0.4,3.6-1.3C392,463,392.8,461.7,393.2,459.8L393.2,459.8z
			 M393.8,449.8c-0.1-2.9-0.7-5-2-6.5s-2.9-2.2-4.7-2.2c-2,0-3.6,0.8-4.9,2.4s-1.9,3.7-1.9,6.4L393.8,449.8L393.8,449.8z"/>
	</g>
</g>
</svg>
