<?xml version="1.0" encoding="utf-8"?>
<!-- Generator: Adobe Illustrator 19.2.0, SVG Export Plug-In . SVG Version: 6.00 Build 0)  -->
<svg version="1.1" id="Livello_1" xmlns="http://www.w3.org/2000/svg" xmlns:xlink="http://www.w3.org/1999/xlink" x="0px" y="0px"
	 viewBox="0 0 876 624" style="enable-background:new 0 0 876 624;" xml:space="preserve">
<style type="text/css">
	.st0{fill:#FFFFFF;stroke:#1A171B;stroke-width:1.2352;stroke-miterlimit:2.6131;}
	.st1{fill:none;stroke:#1A171B;stroke-width:8.2347;stroke-miterlimit:2.6131;}
	.st2{fill:none;stroke:#1A171B;stroke-width:1.0762;stroke-miterlimit:2.6131;}
	.st3{fill:none;stroke:#1A171B;stroke-width:1.1494;stroke-miterlimit:2.6131;}
	.st4{fill:none;stroke:#1A171B;stroke-width:1.1477;stroke-miterlimit:2.6131;}
	.st5{fill:#1A171B;stroke:#1A171B;stroke-width:2.1628;stroke-miterlimit:2.6131;}
	.st6{fill:#1A171B;}
	.st7{fill:none;stroke:#1A171B;stroke-width:0.4117;stroke-miterlimit:2.6131;}
</style>
<g>
	<g>
		<polygon class="st0" points="872,60.6 2,60.6 2,619.4 872,619.4 		"/>
		<path class="st1" d="M822.8,74.7H51.6c-19.7,0-35.5,16.2-35.5,35v460.1c0,19,16.2,35.3,35.5,35.3h771.2c18.8,0,35-15.8,35-35.3
			V109.7C857.8,90,842.5,74.7,822.8,74.7L822.8,74.7z"/>
		<path class="st2" d="M706.7,404c23,0,41.7,18.7,41.7,41.7s-18.7,41.7-41.7,41.7S665,468.7,665,445.7S683.7,404,706.7,404
			L706.7,404z"/>
		<path class="st3" d="M707,411.4c19,0,34.6,15.5,34.6,34.6c0,19-15.5,34.6-34.6,34.6s-34.6-15.5-34.6-34.6
			C672.4,427,688,411.4,707,411.4L707,411.4z"/>
		<path class="st4" d="M706.7,418.1c15.2,0,27.6,12.4,27.6,27.6s-12.4,27.6-27.6,27.6s-27.6-12.4-27.6-27.6
			C679.1,430.5,691.5,418.1,706.7,418.1L706.7,418.1z"/>
		<path class="st5" d="M706.7,431.2c8,0,14.5,6.5,14.5,14.5s-6.5,14.5-14.5,14.5s-14.5-6.5-14.5-14.5S698.7,431.2,706.7,431.2
			L706.7,431.2z"/>
		<path class="st6" d="M442.9,440.7l-10,1.7c-0.3-1.9-1.1-3.4-2.3-4.4c-1.2-1-2.7-1.5-4.6-1.5c-2.5,0-4.5,0.8-6,2.5
			s-2.2,4.5-2.2,8.5c0,4.4,0.8,7.5,2.3,9.3s3.6,2.7,6.1,2.7c1.9,0,3.5-0.5,4.7-1.6s2.1-2.9,2.6-5.5l9.9,1.6c-1,4.4-3,7.8-5.9,10
			c-2.9,2.3-6.8,3.4-11.8,3.4c-5.6,0-10-1.7-13.3-5.1c-3.3-3.4-5-8.2-5-14.2c0-6.1,1.7-10.9,5-14.3s7.8-5.1,13.5-5.1
			c4.6,0,8.3,1,11.1,2.9C439.7,433.8,441.7,436.8,442.9,440.7L442.9,440.7z"/>
		<path class="st6" d="M472.7,455.1l10.1,1.6c-1.3,3.6-3.3,6.3-6.1,8.2s-6.3,2.8-10.5,2.8c-6.6,0-11.5-2.1-14.7-6.3
			c-2.5-3.4-3.8-7.6-3.8-12.8c0-6.2,1.7-11,5-14.5s7.5-5.2,12.5-5.2c5.7,0,10.2,1.8,13.4,5.5c3.3,3.6,4.8,9.2,4.7,16.8H458
			c0.1,2.9,0.9,5.2,2.4,6.8c1.6,1.6,3.5,2.4,5.8,2.4c1.6,0,2.9-0.4,4-1.3C471.3,458.3,472.1,456.9,472.7,455.1L472.7,455.1z
			 M473.2,445.1c-0.1-2.9-0.8-5-2.3-6.5s-3.2-2.2-5.3-2.2c-2.2,0-4,0.8-5.5,2.3c-1.4,1.6-2.1,3.7-2.1,6.4L473.2,445.1L473.2,445.1z"
			/>
		<path class="st6" d="M526.2,466.9h-10.1V448c0-4-0.2-6.6-0.7-7.8c-0.4-1.2-1.1-2.1-2.1-2.7s-2.1-1-3.5-1c-1.8,0-3.3,0.5-4.7,1.4
			s-2.3,2.2-2.9,3.7c-0.5,1.5-0.8,4.4-0.8,8.5v16.8h-10.1v-37.1h9.4v5.5c3.3-4.2,7.5-6.3,12.6-6.3c2.2,0,4.3,0.4,6.1,1.2
			s3.2,1.8,4.2,3c0.9,1.2,1.6,2.6,2,4.1s0.6,3.7,0.6,6.6V466.9L526.2,466.9z"/>
		<path class="st6" d="M554,429.8v7.8h-6.9v15c0,3,0.1,4.8,0.2,5.3c0.1,0.5,0.4,0.9,0.9,1.2s1,0.5,1.7,0.5c0.9,0,2.3-0.3,4.1-0.9
			l0.9,7.6c-2.4,1-5,1.5-8,1.5c-1.8,0-3.5-0.3-4.9-0.9c-1.5-0.6-2.5-1.4-3.2-2.3c-0.7-0.9-1.2-2.2-1.4-3.8c-0.2-1.1-0.3-3.4-0.3-6.9
			v-16.2h-4.6v-7.8h4.6v-7.4l10.1-5.7v13.1L554,429.8L554,429.8z"/>
		<path class="st6" d="M570.7,466.9h-10.1v-37.1h9.4v5.3c1.6-2.5,3.1-4.1,4.3-4.9c1.3-0.8,2.7-1.2,4.4-1.2c2.3,0,4.5,0.6,6.6,1.9
			l-3.1,8.5c-1.7-1.1-3.3-1.6-4.7-1.6s-2.6,0.4-3.6,1.1c-1,0.8-1.8,2.1-2.3,4.1c-0.6,2-0.8,6.1-0.8,12.4v11.5L570.7,466.9
			L570.7,466.9z"/>
		<path class="st6" d="M587.3,447.8c0-3.3,0.8-6.4,2.5-9.5c1.7-3,4-5.4,7-7s6.4-2.4,10.2-2.4c5.8,0,10.5,1.8,14.2,5.5
			c3.7,3.6,5.5,8.2,5.5,13.8s-1.9,10.3-5.6,14c-3.7,3.7-8.4,5.5-14.1,5.5c-3.5,0-6.8-0.8-10-2.3s-5.6-3.8-7.2-6.8
			C588.1,455.7,587.3,452.1,587.3,447.8L587.3,447.8z M597.7,448.3c0,3.7,0.9,6.5,2.7,8.5s4,2.9,6.7,2.9c2.6,0,4.8-1,6.6-2.9
			c1.8-2,2.7-4.8,2.7-8.5c0-3.6-0.9-6.4-2.7-8.4s-4-2.9-6.6-2.9s-4.9,1-6.7,2.9C598.6,441.8,597.7,444.6,597.7,448.3L597.7,448.3z"
			/>
		<path class="st6" d="M147.7,262.6L207,364.1c0.2,3.9-2.4,6.2-5.8,6.6l-35.6-6.7l0.2,85.3c19.8-17.1,42.7-16.8,59.6-17.4l-6.2-36.4
			c-0.2-3.9,2.1-5.4,6.4-5.5l99.5,59.3l-99.4,59.4c-4.3,0.2-6.6-1.1-6.4-5.6l5.4-36.4c-41.6,0.6-58.4,25.4-58.8,41.9l-0.1,45.6
			l-35.6,0.1V364l-35.6,6.6c-5.1,0.9-6.4-3.9-6-6.6L147.7,262.6L147.7,262.6z"/>
		<polygon class="st6" points="99.9,216.2 99.9,145.8 121,145.8 133.7,193.8 146.3,145.8 167.4,145.8 167.4,216.2 154.3,216.2 
			154.3,160.8 140.4,216.2 126.8,216.2 113,160.8 113,216.2 		"/>
		<polygon class="st6" points="181.1,216.2 181.1,145.8 195.2,145.8 195.2,216.2 		"/>
		<polygon class="st6" points="209,216.2 209,146.4 223.2,146.4 223.2,204.4 258.3,204.4 258.3,216.2 		"/>
		<path class="st6" d="M331.5,216.2h-15.4l-6.1-16h-28l-5.8,16h-15l27.3-70.4h14.9L331.5,216.2L331.5,216.2z M305.5,188.4l-9.6-26.1
			l-9.4,26.1H305.5L305.5,188.4z"/>
		<polygon class="st6" points="339.1,216.2 339.1,145.8 352.8,145.8 381.5,192.8 381.5,145.8 394.6,145.8 394.6,216.2 380.4,216.2 
			352.2,170.3 352.2,216.2 		"/>
		<path class="st6" d="M406.7,181.4c0-7.2,1.1-13.2,3.2-18.1c1.6-3.6,3.8-6.8,6.5-9.7c2.8-2.8,5.8-5,9-6.3c4.4-1.9,9.4-2.8,15.1-2.8
			c10.3,0,18.6,3.2,24.7,9.7c6.2,6.4,9.3,15.4,9.3,26.8s-3.1,20.3-9.2,26.7c-6.1,6.4-14.4,9.6-24.6,9.6c-10.4,0-18.7-3.2-24.8-9.6
			C409.7,201.5,406.7,192.6,406.7,181.4L406.7,181.4z M421.2,181c0,8,1.8,14,5.5,18.1s8.3,6.2,13.9,6.2s10.2-2,13.9-6.1
			c3.6-4.1,5.4-10.2,5.4-18.4c0-8.1-1.8-14.1-5.3-18.1s-8.2-6-14-6s-10.5,2-14.1,6C423,166.8,421.2,172.9,421.2,181L421.2,181z"/>
		<polygon class="st7" points="99.9,216.2 99.9,145.8 121,145.8 133.7,193.8 146.3,145.8 167.4,145.8 167.4,216.2 154.3,216.2 
			154.3,160.8 140.4,216.2 126.8,216.2 113,160.8 113,216.2 		"/>
		<polygon class="st7" points="181.1,216.2 181.1,145.8 195.2,145.8 195.2,216.2 		"/>
		<polygon class="st7" points="209,216.2 209,146.4 223.2,146.4 223.2,204.4 258.3,204.4 258.3,216.2 		"/>
		<path class="st7" d="M331.5,216.2h-15.4l-6.1-16h-28l-5.8,16h-15l27.3-70.4h14.9L331.5,216.2L331.5,216.2z M305.5,188.4l-9.6-26.1
			l-9.4,26.1H305.5L305.5,188.4z"/>
		<polygon class="st7" points="339.1,216.2 339.1,145.8 352.8,145.8 381.5,192.8 381.5,145.8 394.6,145.8 394.6,216.2 380.4,216.2 
			352.2,170.3 352.2,216.2 		"/>
		<path class="st7" d="M406.7,181.4c0-7.2,1.1-13.2,3.2-18.1c1.6-3.6,3.8-6.8,6.5-9.7c2.8-2.8,5.8-5,9-6.3c4.4-1.9,9.4-2.8,15.1-2.8
			c10.3,0,18.6,3.2,24.7,9.7c6.2,6.4,9.3,15.4,9.3,26.8s-3.1,20.3-9.2,26.7c-6.1,6.4-14.4,9.6-24.6,9.6c-10.4,0-18.7-3.2-24.8-9.6
			C409.7,201.5,406.7,192.6,406.7,181.4L406.7,181.4z M421.2,181c0,8,1.8,14,5.5,18.1s8.3,6.2,13.9,6.2s10.2-2,13.9-6.1
			c3.6-4.1,5.4-10.2,5.4-18.4c0-8.1-1.8-14.1-5.3-18.1s-8.2-6-14-6s-10.5,2-14.1,6C423,166.8,421.2,172.9,421.2,181L421.2,181z"/>
	</g>
</g>
</svg>
