<?xml version="1.0" encoding="utf-8"?>
<!-- Generator: Adobe Illustrator 19.2.0, SVG Export Plug-In . SVG Version: 6.00 Build 0)  -->
<svg version="1.1" id="Livello_1" xmlns="http://www.w3.org/2000/svg" xmlns:xlink="http://www.w3.org/1999/xlink" x="0px" y="0px"
	 viewBox="0 0 960 960" style="enable-background:new 0 0 960 960;" xml:space="preserve">
<style type="text/css">
	.st0{fill:#FFFFFF;stroke:#1A171B;stroke-width:1.0607;stroke-miterlimit:2.6131;}
	.st1{fill:none;stroke:#1A171B;stroke-width:0.7882;stroke-miterlimit:2.6131;}
	.st2{fill:none;stroke:#1A171B;stroke-width:0.8417;stroke-miterlimit:2.6131;}
	.st3{fill:none;stroke:#1A171B;stroke-width:0.8407;stroke-miterlimit:2.6131;}
	.st4{fill-rule:evenodd;clip-rule:evenodd;fill:#1A171B;stroke:#1A171B;stroke-width:1.5837;stroke-miterlimit:2.6131;}
	.st5{fill-rule:evenodd;clip-rule:evenodd;fill:#1A171B;}
	.st6{fill-rule:evenodd;clip-rule:evenodd;fill:#1A171B;stroke:#1A171B;stroke-width:1.0607;stroke-miterlimit:2.6131;}
	.st7{fill:none;stroke:#1A171B;stroke-width:0.3536;stroke-miterlimit:2.6131;}
	.st8{fill-rule:evenodd;clip-rule:evenodd;fill:#FFFFFF;stroke:#1A171B;stroke-width:1.0607;stroke-miterlimit:2.6131;}
	.st9{fill-rule:evenodd;clip-rule:evenodd;fill:#005EA7;}
	.st10{fill:none;stroke:#1A171B;stroke-width:7.0715;stroke-miterlimit:2.6131;}
</style>
<g>
	<polygon class="st0" points="857.9,120 102.1,120 102.1,840 857.9,840 857.9,120 	"/>
	<path class="st1" d="M365.3,313.4c16.8,0,30.5,13.7,30.5,30.5c0,16.8-13.7,30.5-30.5,30.5c-16.8,0-30.5-13.7-30.5-30.5
		C334.7,327.1,348.5,313.4,365.3,313.4L365.3,313.4z"/>
	<path class="st2" d="M365.5,318.8c14,0,25.3,11.4,25.3,25.3c0,13.9-11.4,25.3-25.3,25.3c-14,0-25.3-11.4-25.3-25.3
		C340.2,330.2,351.6,318.8,365.5,318.8L365.5,318.8z"/>
	<path class="st3" d="M365.3,323.7c11.1,0,20.2,9.1,20.2,20.2s-9.1,20.2-20.2,20.2c-11.1,0-20.2-9.1-20.2-20.2
		S354.2,323.7,365.3,323.7L365.3,323.7z"/>
	<path class="st4" d="M365.3,333.3c5.9,0,10.6,4.8,10.6,10.6c0,5.9-4.8,10.6-10.6,10.6c-5.9,0-10.6-4.8-10.6-10.6
		C354.7,338,359.4,333.3,365.3,333.3L365.3,333.3z"/>
	<path class="st5" d="M459.8,339.5l-8.9,1.6c-0.3-1.7-1-3-2-3.9c-1.1-0.9-2.4-1.3-4.1-1.3c-2.3,0-4,0.8-5.4,2.3c-1.3,1.5-2,4-2,7.6
		c0,3.9,0.7,6.7,2,8.3c1.4,1.6,3.2,2.4,5.5,2.4c1.7,0,3.1-0.5,4.2-1.4c1.1-0.9,1.9-2.6,2.3-4.9l8.9,1.5c-0.9,3.9-2.7,6.9-5.3,8.9
		c-2.6,2-6.1,3-10.5,3c-5,0-9-1.5-11.9-4.6c-3-3.1-4.4-7.3-4.4-12.7c0-5.5,1.5-9.7,4.5-12.8c3-3.1,7-4.6,12.1-4.6
		c4.1,0,7.4,0.9,9.9,2.6C456.9,333.3,458.7,336,459.8,339.5L459.8,339.5z"/>
	<path class="st5" d="M486.3,352.3l9,1.5c-1.2,3.2-3,5.6-5.5,7.3c-2.5,1.7-5.6,2.5-9.3,2.5c-5.9,0-10.3-1.9-13.1-5.6
		c-2.2-3-3.4-6.8-3.4-11.4c0-5.5,1.5-9.8,4.4-12.9c2.9-3.1,6.7-4.7,11.2-4.7c5.1,0,9.1,1.6,12,4.9c2.9,3.3,4.3,8.2,4.2,14.9h-22.6
		c0.1,2.6,0.8,4.6,2.2,6.1c1.4,1.4,3.1,2.2,5.2,2.2c1.4,0,2.6-0.4,3.6-1.1C485.1,355.1,485.8,353.9,486.3,352.3L486.3,352.3z
		 M486.8,343.4c-0.1-2.5-0.7-4.5-2-5.8c-1.3-1.3-2.8-2-4.7-2c-2,0-3.6,0.7-4.9,2.1c-1.3,1.4-1.9,3.3-1.9,5.7H486.8L486.8,343.4z"/>
	<path class="st5" d="M534.1,362.8h-9v-16.9c0-3.6-0.2-5.9-0.6-6.9c-0.4-1-1-1.9-1.9-2.4c-0.9-0.6-1.9-0.9-3.1-0.9
		c-1.6,0-3,0.4-4.2,1.2c-1.2,0.8-2.1,1.9-2.5,3.3c-0.5,1.4-0.7,3.9-0.7,7.6v15h-9v-33.1h8.4v4.9c3-3.7,6.7-5.6,11.2-5.6
		c2,0,3.8,0.4,5.5,1c1.6,0.7,2.9,1.6,3.7,2.7c0.8,1.1,1.4,2.3,1.8,3.7c0.3,1.4,0.5,3.3,0.5,5.9V362.8L534.1,362.8z"/>
	<path class="st5" d="M558.9,329.7v7h-6.2V350c0,2.7,0.1,4.3,0.2,4.7c0.1,0.4,0.4,0.8,0.8,1.1c0.4,0.3,0.9,0.4,1.5,0.4
		c0.8,0,2-0.3,3.6-0.8l0.8,6.8c-2.1,0.9-4.5,1.3-7.1,1.3c-1.6,0-3.1-0.3-4.4-0.8c-1.3-0.5-2.3-1.2-2.9-2.1c-0.6-0.8-1-2-1.3-3.4
		c-0.2-1-0.3-3.1-0.3-6.2v-14.4h-4.1v-7h4.1v-6.6l9-5.1v11.7H558.9L558.9,329.7z"/>
	<path class="st5" d="M573.7,362.8h-9v-33.1h8.4v4.7c1.4-2.2,2.7-3.7,3.9-4.4c1.2-0.7,2.4-1.1,3.9-1.1c2.1,0,4,0.6,5.9,1.7l-2.8,7.6
		c-1.5-0.9-2.9-1.4-4.2-1.4c-1.3,0-2.3,0.3-3.2,1c-0.9,0.7-1.6,1.9-2.1,3.7c-0.5,1.8-0.8,5.5-0.8,11.1V362.8L573.7,362.8z"/>
	<path class="st5" d="M588.6,345.8c0-2.9,0.7-5.7,2.2-8.4c1.5-2.7,3.6-4.8,6.3-6.2c2.7-1.4,5.7-2.2,9.1-2.2c5.1,0,9.4,1.6,12.7,4.9
		c3.3,3.3,4.9,7.4,4.9,12.3c0,5-1.7,9.1-5,12.4c-3.3,3.3-7.5,4.9-12.6,4.9c-3.1,0-6.1-0.7-8.9-2.1c-2.8-1.4-5-3.4-6.5-6
		C589.3,352.8,588.6,349.6,588.6,345.8L588.6,345.8z M597.8,346.3c0,3.3,0.8,5.8,2.4,7.5c1.6,1.7,3.6,2.6,5.9,2.6
		c2.4,0,4.3-0.9,5.9-2.6c1.6-1.7,2.4-4.3,2.4-7.6c0-3.2-0.8-5.7-2.4-7.5c-1.6-1.7-3.6-2.6-5.9-2.6c-2.3,0-4.3,0.9-5.9,2.6
		C598.6,340.5,597.8,343,597.8,346.3L597.8,346.3z"/>
	<path class="st6" d="M506,658.5l-4.3,49.8l63.2-15c2.2-2.2,8.7,2.2,6.7,6.5l-91.7,91.4l-91.4-91.4c-2.2-4.3,2.2-8.7,6.7-6.5
		l63.1,15.1l-4.4-50L506,658.5L506,658.5z"/>
	<polygon class="st5" points="307.7,267.4 307.7,201.4 327.6,201.4 339.5,246.4 351.2,201.4 371.1,201.4 371.1,267.4 358.8,267.4 
		358.8,215.4 345.8,267.4 333,267.4 320,215.4 320,267.4 307.7,267.4 	"/>
	<polygon class="st5" points="383.9,267.4 383.9,201.4 397.1,201.4 397.1,267.4 383.9,267.4 	"/>
	<polygon class="st5" points="410.1,267.4 410.1,201.9 423.3,201.9 423.3,256.3 456.3,256.3 456.3,267.4 410.1,267.4 	"/>
	<path class="st5" d="M524.9,267.4h-14.4l-5.7-15h-26.2l-5.4,15h-14.1l25.6-66h14L524.9,267.4L524.9,267.4z M500.5,241.3l-9-24.5
		l-8.9,24.5H500.5L500.5,241.3z"/>
	<polygon class="st5" points="532,267.4 532,201.4 544.9,201.4 571.8,245.5 571.8,201.4 584.1,201.4 584.1,267.4 570.8,267.4 
		544.3,224.4 544.3,267.4 532,267.4 	"/>
	<path class="st5" d="M595.4,234.8c0-6.7,1-12.4,3-16.9c1.5-3.4,3.5-6.4,6.1-9.1c2.6-2.7,5.4-4.6,8.5-5.9c4.1-1.8,8.8-2.6,14.1-2.6
		c9.7,0,17.4,3,23.2,9.1c5.8,6,8.7,14.4,8.7,25.2c0,10.7-2.9,19-8.6,25c-5.8,6-13.5,9-23.1,9c-9.8,0-17.5-3-23.3-9
		C598.3,253.6,595.4,245.3,595.4,234.8L595.4,234.8z M609,234.4c0,7.5,1.7,13.1,5.1,17c3.4,3.9,7.8,5.8,13.1,5.8
		c5.3,0,9.6-1.9,13-5.8c3.4-3.8,5.1-9.6,5.1-17.2c0-7.6-1.7-13.2-4.9-16.9c-3.3-3.7-7.7-5.6-13.1-5.6c-5.5,0-9.9,1.9-13.2,5.7
		C610.7,221.1,609,226.8,609,234.4L609,234.4z"/>
	<polygon class="st7" points="307.7,267.4 307.7,201.4 327.6,201.4 339.5,246.4 351.2,201.4 371.1,201.4 371.1,267.4 358.8,267.4 
		358.8,215.4 345.8,267.4 333,267.4 320,215.4 320,267.4 307.7,267.4 	"/>
	<polygon class="st7" points="383.9,267.4 383.9,201.4 397.1,201.4 397.1,267.4 383.9,267.4 	"/>
	<polygon class="st7" points="410.1,267.4 410.1,201.9 423.3,201.9 423.3,256.3 456.3,256.3 456.3,267.4 410.1,267.4 	"/>
	<path class="st7" d="M524.9,267.4h-14.4l-5.7-15h-26.2l-5.4,15h-14.1l25.6-66h14L524.9,267.4L524.9,267.4z M500.5,241.3l-9-24.5
		l-8.9,24.5H500.5L500.5,241.3z"/>
	<polygon class="st7" points="532,267.4 532,201.4 544.9,201.4 571.8,245.5 571.8,201.4 584.1,201.4 584.1,267.4 570.8,267.4 
		544.3,224.4 544.3,267.4 532,267.4 	"/>
	<path class="st7" d="M595.4,234.8c0-6.7,1-12.4,3-16.9c1.5-3.4,3.5-6.4,6.1-9.1c2.6-2.7,5.4-4.6,8.5-5.9c4.1-1.8,8.8-2.6,14.1-2.6
		c9.7,0,17.4,3,23.2,9.1c5.8,6,8.7,14.4,8.7,25.2c0,10.7-2.9,19-8.6,25c-5.8,6-13.5,9-23.1,9c-9.8,0-17.5-3-23.3-9
		C598.3,253.6,595.4,245.3,595.4,234.8L595.4,234.8z M609,234.4c0,7.5,1.7,13.1,5.1,17c3.4,3.9,7.8,5.8,13.1,5.8
		c5.3,0,9.6-1.9,13-5.8c3.4-3.8,5.1-9.6,5.1-17.2c0-7.6-1.7-13.2-4.9-16.9c-3.3-3.7-7.7-5.6-13.1-5.6c-5.5,0-9.9,1.9-13.2,5.7
		C610.7,221.1,609,226.8,609,234.4L609,234.4z"/>
	<path class="st8" d="M490.3,409.4c32.9,5.9,54.2,17.8,74.2,44.8c11.4,18.4,16.7,35.4,17.4,56.9c-1.5,43-23.7,75.9-62.3,93.9
		c-43.7,18-87.6,5.5-118.7-29c-19.5-25.5-26.8-53.6-21.1-85.6c6.6-24.6,16.2-41,35.1-58c20.2-15.1,39.3-22.6,64.8-23.3L490.3,409.4
		L490.3,409.4z"/>
	<g>
		<path class="st9" d="M446.8,510.8c-3.2,0-5.8,1.4-8,4.3c-2.2,2.9-3.3,7.2-3.3,12.8c0,6.2,1.2,11,3.7,14.4c2.5,3.4,5.3,5.1,8.4,5.1
			c3.1,0,5.6-1.4,7.6-4.2c2-2.8,3-7.3,3-13.6c0-6.5-1.1-11.2-3.3-14.3C452.8,512.3,450.1,510.8,446.8,510.8z"/>
		<path class="st9" d="M516.4,479.3c-3.3,0-6.1,2.6-7.4,7.5c-1.3,5-2.4,13.5-2.4,24.9c0,11.6,1.1,20.2,2.1,24.5
			c1.5,4.6,4,6.8,7.6,6.8h0.3c3.2,0,5.9-2.2,7.4-6.6c1-4.5,2.1-12.6,2.1-23.7c0-11.4-1.1-20.3-2.1-25.5
			C522.2,482.1,519.6,479.3,516.4,479.3z"/>
		<path class="st9" d="M480.3,414.7c-53,0-96.2,43.2-96.2,96.2c0,53,43.2,96.2,96.2,96.2c53,0,96.2-43.2,96.2-96.2
			C576.5,457.9,533.3,414.7,480.3,414.7z M466.7,554c-5.1,6.2-11.8,9.2-19.9,9.2c-8.7,0-15.8-3.9-21.4-11.7
			c-5.6-7.8-8.4-20.6-8.4-38.5c0-18.3,2.9-31.4,8.7-39.5c5.8-8.1,13.4-12.1,22.7-12.1c6.5,0,11.9,2.1,16.2,6.4
			c4.3,4.2,7,10.4,8.2,18.5l-15.9,2c-0.4-3.8-1.4-6.6-3-8.5c-1.6-1.8-3.8-2.7-6.4-2.7c-3.5,0-6.4,1.8-8.8,5.5
			c-2.4,3.6-3.9,11.2-4.5,22.6c4.1-5.6,9.2-8.4,15.3-8.4c6.9,0,12.8,3,17.7,9.1c4.9,6.1,7.4,13.9,7.4,23.5
			C474.4,539.6,471.8,547.8,466.7,554z M536.8,549c-4.2,8.4-10.4,12.7-19.7,12.7h-0.3c-9.4,0-16.8-4.5-21-12.7
			c-4-8.3-6.7-21.1-6.7-37.9c0-16.3,2.3-29,6.7-37.3c4.5-8.5,11.5-13.1,20.2-13.1c9.1,0,16.3,4.2,20.6,12.8
			c4.6,8.4,6.9,20.9,6.9,37.6C543.5,527.9,541,540.7,536.8,549z"/>
	</g>
	<path class="st10" d="M809.8,133.8H150.7c-19.3,0-34.7,15.9-34.7,34.3v623.3c0,18.6,15.9,34.5,34.7,34.5h659.1
		c18.4,0,34.3-15.4,34.3-34.5V168.1C844,148.8,829,133.8,809.8,133.8L809.8,133.8z"/>
</g>
</svg>
