<?xml version="1.0" encoding="utf-8"?>
<!-- Generator: Adobe Illustrator 19.2.0, SVG Export Plug-In . SVG Version: 6.00 Build 0)  -->
<svg version="1.1" id="Livello_1" xmlns="http://www.w3.org/2000/svg" xmlns:xlink="http://www.w3.org/1999/xlink" x="0px" y="0px"
	 viewBox="0 0 757.1 781" style="enable-background:new 0 0 757.1 781;" xml:space="preserve">
<style type="text/css">
	.st0{fill:#FFFFFF;stroke:#1A171B;stroke-width:0.9284;stroke-miterlimit:2.6131;}
	.st1{fill:#005EA7;stroke:#005EA7;stroke-width:0.9284;stroke-miterlimit:2.6131;}
	.st2{fill:none;stroke:#1A171B;stroke-width:6.1891;stroke-miterlimit:2.6131;}
	.st3{fill:#005EA7;stroke:#FFFFFF;stroke-width:6.1891;stroke-miterlimit:2.6131;}
	.st4{fill:#1A171B;}
	.st5{fill:#FFFFFF;}
	.st6{fill:#916740;stroke:#FFFFFF;stroke-width:0.9284;stroke-miterlimit:2.6131;}
</style>
<g>
	<g>
		<polygon class="st0" points="755.9,641.3 0.7,641.3 0.7,780.1 755.9,780.1 		"/>
		<polygon class="st1" points="0.7,188.2 756.1,188.2 756.1,641.1 0.7,641.1 		"/>
		<path class="st2" d="M727.7,649.4H29.3c-10.9,0-20.6,9.9-20.6,20.1v82.3c0,10.4,9.5,20.1,20.6,20.1h698.5c10.6,0,20.1-9,20.1-20.1
			v-82.3C747.8,658.4,738.4,649.4,727.7,649.4L727.7,649.4z"/>
		<path class="st3" d="M38.2,198.4h681.3c15.8,0,28.4,13.2,28.4,28.4v376.8c0,15.4-13,28.4-28.4,28.4H38.2
			c-15.1,0-28.4-12.5-28.4-28.4V226.7C9.9,211.1,22.6,198.4,38.2,198.4L38.2,198.4z"/>
		<polygon class="st0" points="0.7,60.1 756.3,60.1 756.3,188.2 0.7,188.2 		"/>
		<path class="st4" d="M75.1,151.8v-6.1c-1.4,2.2-3.2,3.9-5.5,5.1c-2.3,1.2-4.7,1.9-7.2,1.9c-2.6,0-4.9-0.6-6.9-1.8
			s-3.5-2.9-4.4-5.1c-0.9-2.2-1.4-5.2-1.4-9v-25.7h10.1v18.7c0,5.7,0.2,9.2,0.6,10.5c0.4,1.3,1,2.3,2,3.1s2.2,1.1,3.8,1.1
			c1.7,0,3.3-0.5,4.6-1.5c1.4-1,2.3-2.3,2.8-3.8s0.8-5.2,0.8-11v-17.1h10.1v40.7H75.1L75.1,151.8z"/>
		<path class="st4" d="M91.4,140.2l10.2-1.6c0.4,2.1,1.3,3.7,2.6,4.8s3.2,1.6,5.5,1.6c2.6,0,4.6-0.5,5.9-1.5
			c0.9-0.7,1.3-1.7,1.3-2.9c0-0.8-0.2-1.5-0.7-2s-1.6-1-3.4-1.4c-8.2-1.9-13.3-3.7-15.5-5.3c-3-2.2-4.5-5.3-4.5-9.2
			c0-3.5,1.3-6.5,3.9-8.9c2.6-2.4,6.7-3.6,12.2-3.6c5.2,0,9.1,0.9,11.7,2.7c2.5,1.8,4.3,4.5,5.3,8.1l-9.5,1.9
			c-0.4-1.6-1.2-2.8-2.3-3.6c-1.1-0.9-2.8-1.3-4.9-1.3c-2.7,0-4.6,0.4-5.7,1.2c-0.8,0.6-1.1,1.3-1.1,2.2c0,0.8,0.3,1.4,1,1.9
			c0.9,0.7,4.1,1.7,9.5,3s9.2,2.9,11.3,4.8c2.1,1.9,3.2,4.6,3.2,8c0,3.7-1.5,7-4.4,9.6c-2.9,2.7-7.3,4-13,4c-5.2,0-9.3-1.1-12.4-3.4
			C94.3,147.1,92.4,144,91.4,140.2L91.4,140.2z"/>
		<path class="st4" d="M169.4,123.1l-10,1.9c-0.3-2.1-1.1-3.7-2.3-4.8c-1.2-1.1-2.7-1.6-4.6-1.6c-2.5,0-4.5,0.9-6,2.8
			c-1.5,1.9-2.2,5-2.2,9.3c0,4.8,0.8,8.2,2.3,10.2s3.6,3,6.1,3c1.9,0,3.5-0.6,4.7-1.7c1.2-1.2,2.1-3.2,2.6-6l9.9,1.8
			c-1,4.9-3,8.5-6,11c-2.9,2.5-6.8,3.7-11.8,3.7c-5.6,0-10.1-1.9-13.4-5.6c-3.3-3.8-5-9-5-15.6c0-6.7,1.7-12,5-15.7
			c3.3-3.8,7.9-5.6,13.6-5.6c4.7,0,8.4,1.1,11.1,3.2C166.2,115.5,168.2,118.8,169.4,123.1L169.4,123.1z"/>
		<path class="st4" d="M177,105.6v-10h10.1v10H177L177,105.6z M177,151.8v-40.7h10.1v40.7H177L177,151.8z"/>
		<path class="st4" d="M215.1,111.1v8.6h-6.9v16.4c0,3.3,0.1,5.3,0.2,5.8s0.4,1,0.9,1.4s1,0.5,1.7,0.5c0.9,0,2.3-0.4,4.1-1l0.9,8.4
			c-2.4,1.1-5,1.6-8,1.6c-1.8,0-3.5-0.3-4.9-1c-1.5-0.7-2.5-1.5-3.2-2.5s-1.2-2.4-1.4-4.2c-0.2-1.2-0.3-3.8-0.3-7.6v-17.8h-4.6v-8.6
			h4.6V103l10.2-6.3v14.4H215.1L215.1,111.1z"/>
		<path class="st4" d="M229.7,123.5l-9.2-1.8c1-3.9,2.8-6.8,5.3-8.7s6.3-2.8,11.2-2.8c4.5,0,7.9,0.6,10.1,1.7
			c2.2,1.1,3.8,2.6,4.7,4.3c0.9,1.8,1.4,5,1.4,9.6l-0.1,12.6c0,3.6,0.2,6.2,0.5,7.9s0.9,3.5,1.8,5.5h-10c-0.3-0.7-0.6-1.8-1-3.2
			c-0.2-0.6-0.3-1.1-0.4-1.3c-1.7,1.8-3.6,3.1-5.5,4c-2,0.9-4.1,1.3-6.3,1.3c-3.9,0-7-1.1-9.3-3.4c-2.3-2.3-3.4-5.2-3.4-8.6
			c0-2.3,0.5-4.3,1.5-6.2c1-1.8,2.5-3.2,4.3-4.1c1.9-1,4.5-1.8,8.1-2.5c4.7-0.9,8-1.8,9.8-2.6v-1.1c0-2.1-0.5-3.5-1.4-4.4
			c-1-0.9-2.8-1.3-5.4-1.3c-1.8,0-3.2,0.4-4.2,1.1C231.1,120.3,230.3,121.6,229.7,123.5L229.7,123.5z M243.2,132.3
			c-1.3,0.5-3.3,1-6.2,1.6c-2.8,0.6-4.6,1.3-5.5,1.9c-1.3,1-2,2.3-2,3.8s0.5,2.8,1.6,3.9c1.1,1.1,2.4,1.6,4,1.6
			c1.8,0,3.6-0.6,5.2-1.9c1.2-1,2-2.2,2.4-3.6c0.3-0.9,0.4-2.7,0.4-5.3v-2H243.2z"/>
		<polygon class="st4" points="283.8,151.8 283.8,95.6 320,95.6 320,105.1 294.5,105.1 294.5,118.4 316.5,118.4 316.5,127.9 
			294.5,127.9 294.5,151.8 		"/>
		<path class="st4" d="M328.8,151.8V95.6h22.5c5.6,0,9.7,0.5,12.3,1.5c2.6,1,4.6,2.8,6.1,5.4c1.5,2.6,2.3,5.5,2.3,8.9
			c0,4.2-1.2,7.7-3.5,10.5c-2.3,2.7-5.8,4.5-10.5,5.2c2.3,1.4,4.2,3,5.7,4.7s3.5,4.8,6.1,9.1l6.5,11h-12.8l-7.7-12.2
			c-2.7-4.4-4.6-7.1-5.6-8.3c-1-1.1-2.1-1.9-3.2-2.3c-1.1-0.4-2.9-0.6-5.4-0.6h-2.1V152h-10.7V151.8z M339.5,119.4h7.9
			c5.1,0,8.3-0.2,9.6-0.7c1.3-0.5,2.3-1.3,3-2.4c0.7-1.1,1.1-2.5,1.1-4.2c0-1.9-0.5-3.4-1.4-4.6c-0.9-1.2-2.3-1.9-4-2.2
			c-0.9-0.1-3.5-0.2-7.8-0.2h-8.4V119.4L339.5,119.4z"/>
		<path class="st4" d="M379.9,124c0-5.7,0.8-10.5,2.4-14.4c1.2-2.9,2.8-5.4,4.9-7.7s4.4-4,6.8-5.1c3.3-1.5,7.1-2.2,11.4-2.2
			c7.8,0,14,2.6,18.7,7.7c4.7,5.1,7,12.3,7,21.4c0,9.1-2.3,16.2-7,21.3c-4.6,5.1-10.8,7.7-18.6,7.7c-7.9,0-14.1-2.6-18.7-7.6
			C382.2,140,379.9,133,379.9,124L379.9,124z M390.9,123.7c0,6.4,1.4,11.2,4.1,14.5c2.8,3.3,6.3,4.9,10.5,4.9s7.7-1.6,10.5-4.9
			c2.7-3.3,4.1-8.1,4.1-14.7c0-6.4-1.3-11.2-4-14.4s-6.2-4.8-10.6-4.8s-7.9,1.6-10.6,4.8C392.2,112.4,390.9,117.2,390.9,123.7
			L390.9,123.7z"/>
		<path class="st4" d="M436.7,133.5l10.4-1.1c0.6,3.7,1.9,6.4,3.8,8.2c1.9,1.7,4.5,2.6,7.7,2.6c3.4,0,6-0.8,7.8-2.3
			c1.7-1.5,2.6-3.4,2.6-5.4c0-1.3-0.4-2.5-1.1-3.4c-0.7-0.9-2-1.8-3.8-2.4c-1.2-0.5-4.1-1.3-8.5-2.5c-5.7-1.5-9.7-3.4-12-5.6
			c-3.2-3.1-4.9-6.9-4.9-11.3c0-2.9,0.8-5.5,2.3-8s3.7-4.4,6.6-5.7c2.9-1.3,6.3-2,10.4-2c6.6,0,11.6,1.5,15,4.6
			c3.3,3.1,5.1,7.2,5.3,12.4l-10.7,0.5c-0.5-2.9-1.4-5-2.9-6.2c-1.5-1.3-3.8-1.9-6.7-1.9c-3.1,0-5.5,0.7-7.3,2
			c-1.1,0.9-1.7,2-1.7,3.5c0,1.3,0.5,2.5,1.6,3.4c1.3,1.2,4.6,2.5,9.8,3.8s9,2.7,11.5,4c2.5,1.4,4.4,3.3,5.8,5.7
			c1.4,2.4,2.1,5.4,2.1,9c0,3.2-0.8,6.2-2.5,9s-4.1,4.9-7.1,6.3c-3.1,1.4-6.9,2.1-11.5,2.1c-6.7,0-11.8-1.6-15.4-4.9
			C439.6,144.6,437.4,139.8,436.7,133.5L436.7,133.5z"/>
		<polygon class="st4" points="488.3,151.8 488.3,95.6 499,95.6 499,151.8 		"/>
		<polygon class="st4" points="509.3,151.8 509.3,95.6 519.6,95.6 541.3,133.1 541.3,95.6 551.2,95.6 551.2,151.8 540.5,151.8 
			519.2,115.1 519.2,151.8 		"/>
		<path class="st4" d="M560.3,124c0-5.7,0.8-10.5,2.4-14.4c1.2-2.9,2.8-5.4,4.9-7.7c2.1-2.3,4.4-4,6.8-5.1c3.3-1.5,7.1-2.2,11.4-2.2
			c7.8,0,14,2.6,18.7,7.7c4.7,5.1,7,12.3,7,21.4c0,9.1-2.3,16.2-7,21.3c-4.6,5.1-10.8,7.7-18.6,7.7c-7.9,0-14.1-2.6-18.7-7.6
			C562.6,140,560.3,133,560.3,124L560.3,124z M571.3,123.7c0,6.4,1.4,11.2,4.1,14.5c2.8,3.3,6.3,4.9,10.5,4.9s7.7-1.6,10.5-4.9
			c2.7-3.3,4.1-8.1,4.1-14.7c0-6.4-1.3-11.2-4-14.4s-6.2-4.8-10.6-4.8c-4.4,0-7.9,1.6-10.6,4.8C572.6,112.4,571.3,117.2,571.3,123.7
			L571.3,123.7z"/>
		<polygon class="st4" points="619.9,151.8 619.9,95.6 630.3,95.6 651.9,133.1 651.9,95.6 661.8,95.6 661.8,151.8 651.1,151.8 
			629.8,115.1 629.8,151.8 		"/>
		<polygon class="st4" points="673.1,151.8 673.1,95.6 712.3,95.6 712.3,105.1 683.8,105.1 683.8,117.6 710.3,117.6 710.3,127 
			683.8,127 683.8,142.3 713.3,142.3 713.3,151.8 		"/>
		<path class="st4" d="M300.1,721l7.9-0.8c0.2,1.9,0.9,3.4,2,4.4c1.1,1.1,2.4,1.6,3.9,1.6c1.7,0,3.1-0.7,4.2-2.1
			c1.2-1.4,1.7-3.5,1.7-6.4c0-2.7-0.6-4.7-1.7-6s-2.6-2-4.5-2c-2.3,0-4.3,1.1-6.2,3.2l-6.5-1l4.1-22.6h21.1v7.8h-15l-1.3,7.4
			c1.8-0.9,3.6-1.4,5.5-1.4c3.5,0,6.5,1.3,9,4s3.7,6.2,3.7,10.5c0,3.6-1,6.8-3,9.6c-2.7,3.8-6.5,5.7-11.3,5.7c-3.8,0-7-1.1-9.4-3.2
			C302,727.5,300.6,724.6,300.1,721L300.1,721z"/>
		<path class="st4" d="M345.8,688.5c4,0,7.2,1.5,9.5,4.5c2.7,3.5,4.1,9.4,4.1,17.7c0,8.2-1.4,14.1-4.1,17.7c-2.2,3-5.4,4.4-9.4,4.4
			s-7.3-1.6-9.8-4.9c-2.5-3.2-3.7-9-3.7-17.4c0-8.2,1.4-14.1,4.1-17.6C338.6,690,341.8,688.5,345.8,688.5L345.8,688.5z M345.8,695.4
			c-1,0-1.8,0.3-2.6,1c-0.8,0.6-1.3,1.8-1.8,3.5c-0.5,2.2-0.8,5.8-0.8,10.9c0,5.1,0.3,8.6,0.7,10.5c0.5,1.9,1.1,3.2,1.9,3.8
			s1.6,0.9,2.6,0.9s1.8-0.3,2.6-1c0.8-0.6,1.3-1.8,1.8-3.4c0.5-2.1,0.8-5.7,0.8-10.8s-0.3-8.6-0.7-10.5c-0.5-1.9-1.1-3.2-1.9-3.8
			C347.6,695.8,346.8,695.4,345.8,695.4L345.8,695.4z"/>
		<path class="st4" d="M378.1,688.5c4,0,7.2,1.5,9.5,4.5c2.7,3.5,4.1,9.4,4.1,17.7c0,8.2-1.4,14.1-4.1,17.7c-2.2,3-5.4,4.4-9.4,4.4
			s-7.3-1.6-9.8-4.9c-2.5-3.2-3.7-9-3.7-17.4c0-8.2,1.4-14.1,4.1-17.6C370.9,690,374.1,688.5,378.1,688.5L378.1,688.5z M378.1,695.4
			c-1,0-1.8,0.3-2.6,1c-0.8,0.6-1.3,1.8-1.8,3.5c-0.5,2.2-0.8,5.8-0.8,10.9c0,5.1,0.3,8.6,0.7,10.5c0.5,1.9,1.1,3.2,1.9,3.8
			s1.6,0.9,2.6,0.9s1.8-0.3,2.6-1c0.8-0.6,1.3-1.8,1.8-3.4c0.5-2.1,0.8-5.7,0.8-10.8s-0.3-8.6-0.7-10.5c-0.5-1.9-1.1-3.2-1.9-3.8
			C379.9,695.8,379.1,695.4,378.1,695.4L378.1,695.4z"/>
		<path class="st4" d="M414.2,700.7h7.3v4.3c2.6-3.3,5.8-5,9.4-5c1.9,0,3.6,0.4,5,1.2s2.6,2.1,3.5,3.8c1.3-1.7,2.7-2.9,4.3-3.8
			c1.5-0.8,3.2-1.2,4.9-1.2c2.2,0,4.1,0.5,5.6,1.4s2.7,2.3,3.4,4.1c0.5,1.3,0.8,3.5,0.8,6.5v20.1h-8v-18c0-3.1-0.3-5.1-0.8-6
			c-0.7-1.2-1.9-1.8-3.4-1.8c-1.1,0-2.2,0.4-3.2,1.1c-1,0.7-1.7,1.8-2.1,3.1c-0.4,1.4-0.7,3.5-0.7,6.5v15.1h-8v-17.2
			c0-3.1-0.1-5-0.4-5.9c-0.3-0.9-0.7-1.5-1.3-2c-0.6-0.4-1.4-0.7-2.4-0.7c-1.2,0-2.3,0.3-3.3,1s-1.7,1.7-2.1,3
			c-0.4,1.3-0.6,3.5-0.6,6.5v15.3h-8L414.2,700.7L414.2,700.7z"/>
		<path class="st5" d="M506.7,262.2c0,5.9,0.7,10.6,2.1,13.5c1.9,2.8,4,4.5,6.6,4.5s4.7-1.7,6.4-4.5s2.4-7.6,2.4-13.5
			c0-5.4-0.7-10.2-2.1-13c-1.9-2.8-4-4.5-6.6-4.5s-4.7,1.7-6.4,4.5s-2.4,7.6-2.4,13.5V262.2L506.7,262.2z M500.4,262.7
			c0-5,0.5-9.7,1.2-13.2c0.7-2.4,1.7-4.7,3.1-6.9c1.2-2.1,2.6-3.8,4-4.7c1.9-1.4,4-2.1,6.6-2.1c4.7,0,8.5,2.4,11.1,7.3
			c2.8,4.7,4.3,11.3,4.3,19.6c0,8.3-1.4,14.7-4.3,19.1c-2.6,5-6.4,7.3-10.9,7.3c-4.7,0-8.5-2.4-10.9-6.9c-2.8-4.5-4.3-11.1-4.3-19.4
			v-0.1L500.4,262.7L500.4,262.7z M470.1,288.2v-51.5h6.4l12.3,33.6v-33.6h6.1v51.5h-6.6l-12.1-32.4v32.4H470.1L470.1,288.2z
			 M444.8,258.4h4.7c2.8,0,5-0.2,5.7-0.2c0.7-0.5,1.2-1.4,1.7-2.1c0.5-0.9,0.9-2.8,0.9-4c0-1.4-0.5-3.3-0.9-4.3
			c-0.7-0.9-1.7-2.1-2.6-2.1c-0.2,0-1.9-0.2-4.5-0.2h-5L444.8,258.4L444.8,258.4z M438.7,288.2v-51.5h13c3.3,0,5.9,0.7,7.3,1.4
			c1.4,1.2,2.8,3.1,3.5,5.2c0.9,2.1,1.4,5.2,1.4,8c0,3.8-0.7,7.1-2.1,9.5c-1.2,2.6-3.5,4.3-5.9,5c1.2,1.4,2.4,2.8,3.3,4
			c0.7,1.4,2.1,4.5,3.3,8.3l4,10.2h-7.6l-4.4-11.2c-1.7-3.8-2.8-6.6-3.3-7.3c-0.5-0.9-1.2-1.9-1.9-2.4c-0.7-0.2-1.9-0.7-3.1-0.7
			h-1.4v21.5H438.7L438.7,288.2z M409.3,288.2v-51.5h23.4v8.7h-17v11.3h15.8v8.5h-15.8v14.2h17.8v8.7L409.3,288.2L409.3,288.2z
			 M388.3,288.2l-11.1-51.5h6.4l8,38.1l8-38.1h6.6l-11.6,51.5H388.3L388.3,288.2z M367.7,288.2v-51.5h6.4v51.5H367.7L367.7,288.2z
			 M342.9,258.4h4.5c3.1,0,5.2-0.2,5.7-0.2c0.7-0.5,1.4-1.4,1.7-2.1c0.5-0.9,0.9-2.8,0.9-4c0-1.4-0.5-3.3-0.9-4.3
			c-0.5-0.9-1.7-2.1-2.4-2.1c-0.5,0-2.1-0.2-4.7-0.2H343v12.9L342.9,258.4L342.9,258.4z M336.5,288.2v-51.5h13
			c3.3,0,5.9,0.7,7.3,1.4c1.4,1.2,2.8,3.1,3.5,5.2c0.9,2.1,1.7,5.2,1.7,8c0,3.8-0.9,7.1-2.1,9.5c-1.4,2.6-3.5,4.3-6.1,5
			c1.2,1.4,2.6,2.8,3.3,4c0.9,1.4,2.1,4.5,3.3,8.3l4,10.2h-7.6l-4.3-11.1c-1.9-3.8-3.1-6.6-3.5-7.3c-0.2-0.9-1.2-1.9-1.9-2.4
			c-0.5-0.2-1.9-0.7-3.1-0.7h-1.2v21.5h-6.3V288.2z M313.6,245.4v14.9h3.5c2.6,0,4.3-0.5,5.2-0.7c0.7-0.5,1.7-1.4,1.9-2.6
			c0.5-0.9,0.9-2.6,0.9-4c0-1.7-0.5-3.5-0.9-4.5c-0.7-1.4-1.9-2.4-2.8-2.4c-0.9-0.5-2.6-0.7-4.5-0.7L313.6,245.4L313.6,245.4z
			 M307.5,288.2v-51.5h9.9c3.8,0,6.6,0.5,7.6,1.2c1.7,0.7,3.3,2.4,4.7,4.7c1.2,2.8,1.9,6.1,1.9,9.9c0,3.3-0.5,5.9-1.2,8
			s-1.9,4-2.6,5.2c-1.2,1.4-2.4,2.4-3.5,2.4c-1.4,0.5-3.8,0.7-6.6,0.7h-4v19.4L307.5,288.2L307.5,288.2z"/>
		<polygon class="st5" points="278,268.6 278,260.7 293.6,260.7 293.6,268.6 		"/>
		<polygon class="st5" points="224.1,372.6 224.1,364.7 239.7,364.7 239.7,372.6 		"/>
		<polygon class="st5" points="316.1,471.4 316.1,463.5 331.7,463.5 331.7,471.4 		"/>
		<polygon class="st5" points="363.4,571.4 363.4,563.5 379,563.5 379,571.4 		"/>
		<path class="st5" d="M239.6,262.2c0,5.9,0.7,10.6,2.1,13.5c1.7,2.8,4,4.5,6.6,4.5s4.5-1.7,6.4-4.5c1.7-2.8,2.4-7.6,2.4-13.5
			c0-5.4-0.7-10.2-2.4-13c-1.7-2.8-3.8-4.5-6.4-4.5s-5,1.7-6.4,4.5c-1.7,2.8-2.4,7.6-2.4,13.5L239.6,262.2L239.6,262.2z
			 M233.2,262.7c0-5,0.5-9.7,1.2-13.2c0.7-2.4,1.7-4.7,3.1-6.9c1.2-2.1,2.6-3.8,4-4.7c1.9-1.4,4-2.1,6.6-2.1c4.7,0,8.5,2.4,11.1,7.3
			c2.8,4.7,4.3,11.3,4.3,19.6c0,8.3-1.4,14.7-4.3,19.1c-2.6,5-6.4,7.3-10.9,7.3c-4.7,0-8.5-2.4-10.9-6.9
			C234.6,277.7,233.1,271.1,233.2,262.7L233.2,262.7L233.2,262.7z M203,288.2v-51.5h6.4l12.3,33.6v-33.6h6.1v51.5h-6.9l-11.8-32.4
			v32.4H203L203,288.2z M188.1,267.9l-4.5-19.1l-4.3,19.1H188.1L188.1,267.9z M199.7,288.2h-7.1l-2.6-11.8h-12.5l-2.4,11.8h-6.9
			l12.1-51.5h6.6L199.7,288.2L199.7,288.2z M160.2,269.1l5.9,3.3c-0.7,5.4-2.6,9.9-4.7,12.8c-2.1,2.6-5,4-8.5,4
			c-4,0-7.6-2.4-10.2-6.9c-2.6-4.5-4-11.1-4-19.4c0-8.3,1.4-15.1,4-19.9c2.6-5,6.4-7.3,10.6-7.3c3.8,0,7.1,2.1,9.2,5.9
			c1.4,2.1,2.6,5.2,3.5,9.2l-6.1,2.4c-0.5-2.4-1.4-4.7-2.6-6.1s-2.6-2.4-4.5-2.4c-2.1,0-4.3,1.4-5.7,4c-1.4,2.8-2.1,7.3-2.1,13.5
			c0,6.4,0.7,11.1,2.1,13.9c1.4,2.6,3.5,4,5.7,4c1.7,0,3.3-0.9,4.5-2.4C158.6,276.1,159.7,272.8,160.2,269.1L160.2,269.1z
			 M128.5,269.1l6.1,3.3c-0.7,5.4-2.6,9.9-4.7,12.8c-2.1,2.6-5.2,4-8.5,4c-4.3,0-7.8-2.4-10.2-6.9c-2.6-4.5-4-11.1-4-19.4
			c0-8.3,1.4-15.1,4-19.9c2.4-5,6.1-7.3,10.6-7.3c3.8,0,6.9,2.1,9.2,5.9c1.2,2.1,2.6,5.2,3.3,9.2l-5.9,2.4c-0.5-2.4-1.4-4.7-2.6-6.1
			c-1.2-1.4-2.8-2.4-4.5-2.4c-2.4,0-4.3,1.4-5.7,4c-1.4,2.8-2.4,7.3-2.4,13.5c0,6.4,0.9,11.1,2.1,13.9c1.7,2.6,3.5,4,5.7,4
			c1.7,0,3.5-0.9,4.7-2.4C127.1,276.1,128.3,272.8,128.5,269.1L128.5,269.1z M79.4,288.2v-51.5h23.1v8.7h-17v11.3h15.8v8.5H85.5
			v14.2h17.7v8.7L79.4,288.2L79.4,288.2z M68,269.1l5.9,3.3c-0.7,5.4-2.6,9.9-4.7,12.8c-2.1,2.6-5,4-8.5,4c-4,0-7.6-2.4-10.2-6.9
			c-2.6-4.5-4-11.1-4-19.4c0-8.3,1.4-15.1,4-19.9c2.6-5,6.4-7.3,10.6-7.3c3.8,0,7.1,2.1,9.2,5.9c1.4,2.1,2.6,5.2,3.5,9.2l-6.1,2.4
			c-0.5-2.4-1.4-4.7-2.6-6.1c-1.2-1.4-2.6-2.4-4.5-2.4c-2.1,0-4.3,1.4-5.7,4c-1.4,2.8-2.1,7.3-2.1,13.5c0,6.4,0.7,11.1,2.1,13.9
			c1.4,2.6,3.5,4,5.7,4c1.7,0,3.3-0.9,4.5-2.4C66.4,276.1,67.5,272.8,68,269.1L68,269.1z"/>
		<polygon class="st6" points="44.6,525 347.2,525 347.2,604.1 44.6,604.1 		"/>
		<polygon class="st6" points="44.6,321.1 209.6,321.1 209.6,400.1 44.6,400.1 		"/>
		<path class="st5" d="M260,389.8v-42.3h-9.2V339h24.8v8.5h-9.5v42.3H260L260,389.8z M279.6,389.8V339h23.2v8.5h-17v11.3h15.8v8.5
			h-15.8v13.9h17.7v8.5h-23.9V389.8z M308.6,389.8V339h13c3.5,0,5.9,0.7,7.6,1.4c1.4,0.9,2.6,3.1,3.5,5.2c0.7,1.9,1.4,5,1.4,7.8
			c0,3.8-0.9,7.1-2.1,9.5s-3.5,4-6.1,4.7c1.4,1.4,2.6,2.8,3.5,4c0.7,1.4,1.9,4.5,3.3,8.3l4,9.9h-7.6l-4.5-10.9
			c-1.7-3.8-3.1-6.6-3.3-7.3c-0.5-0.9-1.4-1.9-1.9-2.4c-0.7-0.2-1.9-0.7-3.3-0.7h-1.2v21.3H308.6L308.6,389.8z M315,360.5h4.7
			c2.8,0,5-0.2,5.7-0.2c0.5-0.5,1.2-1.4,1.7-2.1c0.5-0.9,0.7-2.8,0.7-4c0-1.4-0.2-3.1-0.7-4.3c-0.7-0.9-1.7-1.9-2.6-1.9
			c-0.5,0-2.1-0.5-4.7-0.5h-4.7v13H315z M340.3,389.8V339h13c3.3,0,5.9,0.7,7.3,1.4c1.4,0.9,2.8,3.1,3.5,5.2c0.9,1.9,1.7,5,1.7,7.8
			c0,3.8-0.9,7.1-2.1,9.5c-1.4,2.4-3.5,4-6.1,4.7c1.2,1.4,2.6,2.8,3.3,4c0.9,1.4,2.1,4.5,3.3,8.3l4,9.9h-7.6l-4.5-10.9
			c-1.7-3.8-2.8-6.6-3.3-7.3c-0.5-0.9-1.2-1.9-1.9-2.4c-0.5-0.2-1.9-0.7-3.1-0.7h-1.2v21.3H340.3L340.3,389.8z M346.7,360.5h4.5
			c3.1,0,5-0.2,5.7-0.2c0.7-0.5,1.4-1.4,1.7-2.1c0.5-0.9,0.9-2.8,0.9-4c0-1.4-0.5-3.1-0.9-4.3c-0.5-0.9-1.7-1.9-2.4-1.9
			c-0.5,0-2.1-0.5-4.7-0.5h-4.7v13H346.7z M400.1,389.8H393l-2.6-11.6h-12.5l-2.4,11.6h-6.9l12.1-50.8h6.6L400.1,389.8L400.1,389.8z
			 M388.5,369.8l-4.5-18.7l-4.3,18.7H388.5L388.5,369.8z M423.5,371.2l6.1,3.1c-0.7,5.4-2.6,9.7-4.7,12.5c-2.1,2.6-5.2,4-8.5,4
			c-4.3,0-7.8-2.4-10.2-6.9c-2.6-4.3-4-10.9-4-18.9c0-8.3,1.4-15.1,4-19.9c2.4-4.7,6.1-7.1,10.6-7.1c3.8,0,6.9,2.1,9.2,5.7
			c1.2,2.1,2.6,5.2,3.3,9.2l-5.9,2.4c-0.5-2.4-1.4-4.7-2.6-6.1c-1.4-1.2-2.8-2.4-4.5-2.4c-2.4,0-4.5,1.4-5.7,4.3
			c-1.4,2.6-2.4,7.1-2.4,13.2s0.9,10.9,2.1,13.5c1.4,2.8,3.5,4.3,5.7,4.3c1.7,0,3.3-1.2,4.7-2.4
			C422.1,377.8,423.3,374.7,423.5,371.2L423.5,371.2z M434.9,389.8V339h6.1v50.8H434.9L434.9,389.8z M447.2,389.8V339h6.4l12.3,33.1
			V339h6.1v50.8h-6.6l-12.1-32.1v32.1H447.2L447.2,389.8z M507,389.8h-6.9l-2.8-11.6H485l-2.6,11.6h-6.9l12.1-50.8h6.9L507,389.8
			L507,389.8z M495.4,369.8l-4.5-18.7l-4,18.7H495.4L495.4,369.8z"/>
		<path class="st5" d="M491.4,490.1v-50.6h6.4v50.6H491.4L491.4,490.1z M466.1,461h4.5c3.1,0,5.2-0.5,5.9-0.5
			c0.7-0.2,1.2-1.4,1.7-1.9c0.5-1.2,0.9-2.8,0.9-4.3c0-1.2-0.5-3.1-0.9-4c-0.7-0.9-1.7-1.9-2.6-1.9c-0.5,0-2.1-0.5-4.7-0.5h-4.7V461
			H466.1L466.1,461z M459.7,490.1v-50.6h13c3.5,0,6.1,0.7,7.6,1.4c1.4,0.9,2.8,3.1,3.5,5.2c0.9,1.9,1.7,5,1.7,7.6
			c0,3.8-0.9,7.3-2.1,9.7c-1.4,2.4-3.8,4-6.1,4.7c1.2,1.2,2.4,2.6,3.3,4c0.9,1.4,2.1,4.3,3.3,8l4.3,9.9h-7.8l-4.5-10.9
			c-1.7-3.8-3.1-6.4-3.3-7.1c-0.5-1.2-1.4-2.1-1.9-2.4c-0.7-0.5-2.1-0.7-3.3-0.7h-1.2v21h-6.5V490.1z M439.8,490.1V448h-9.5v-8.5
			h25.1v8.5h-9.2v42.1H439.8L439.8,490.1z M420.7,470l-4.5-18.7l-4.3,18.7H420.7L420.7,470z M432.3,490.1h-7.1l-2.6-11.6h-12.8
			l-2.3,11.6h-6.9l12.1-50.6h6.9L432.3,490.1L432.3,490.1z M376.7,490.1v-50.6h6.4v42.1h16.1v8.5H376.7L376.7,490.1z M361.6,470
			l-4.5-18.7l-4.3,18.7H361.6L361.6,470z M373.2,490.1h-6.9l-2.8-11.6H351l-2.6,11.6h-6.9l12.1-50.6h6.9L373.2,490.1L373.2,490.1z"
			/>
		<path class="st5" d="M274.6,464.5c0,5.9,0.9,10.6,2.4,13.2c1.7,2.8,4,4.5,6.6,4.5s4.7-1.7,6.4-4.5c1.7-2.6,2.6-7.3,2.6-13.2
			c0-5.4-0.9-10.2-2.4-12.8c-1.7-2.8-4-4.5-6.6-4.5s-5,1.7-6.4,4.5c-1.7,2.6-2.6,7.3-2.6,13.2V464.5L274.6,464.5z M268.2,465
			c0-4.7,0.5-9.5,1.2-13c0.7-2.4,1.9-4.7,3.1-6.6c1.4-2.1,2.8-3.8,4-4.7c1.9-1.4,4.3-2.1,6.9-2.1c4.7,0,8.5,2.4,11.3,7.1
			s4.3,11.1,4.3,19.4c0,8-1.4,14.4-4.3,18.9c-2.8,4.7-6.6,7.1-11.1,7.1c-4.7,0-8.5-2.4-11.1-6.9c-2.8-4.3-4.3-10.6-4.3-18.9V465
			L268.2,465z M237.5,490.1v-50.6h6.4l12.5,32.9v-32.9h6.4v50.6h-6.9l-12.3-31.9v31.9H237.5L237.5,490.1z M225,490.1v-50.6h6.4v50.6
			H225L225,490.1z M205.4,490.1V448h-9.5v-8.5h25.3v8.5h-9.5v42.1H205.4L205.4,490.1z M166.1,490.1v-50.6h6.4l12.5,32.9v-32.9h6.1
			v50.6h-6.6l-12.3-31.9v31.9H166.1L166.1,490.1z M136.6,490.1v-50.6h23.6v8.5h-17.3v11.1h15.8v8.5h-15.8v13.9h18v8.5L136.6,490.1
			L136.6,490.1z M110.8,461h4.7c3.1,0,5.2-0.5,5.9-0.5c0.5-0.2,1.2-1.4,1.7-1.9c0.5-1.2,0.9-2.8,0.9-4.3c0-1.2-0.5-3.1-0.9-4
			c-0.7-0.9-1.7-1.9-2.6-1.9c-0.5,0-2.1-0.5-4.7-0.5h-5L110.8,461L110.8,461z M104.4,490.1v-50.6h13.2c3.5,0,6.1,0.7,7.6,1.4
			c1.4,0.9,2.8,3.1,3.5,5.2c0.9,1.9,1.7,5,1.7,7.6c0,3.8-0.9,7.3-2.1,9.7c-1.4,2.4-3.8,4-6.4,4.7c1.4,1.2,2.6,2.6,3.5,4
			c0.7,1.4,2.1,4.3,3.3,8l4,9.9h-7.6l-4.5-10.9c-1.7-3.8-3.1-6.4-3.3-7.1c-0.5-1.2-1.4-2.1-2.1-2.4c-0.5-0.5-1.9-0.7-3.1-0.7h-1.4
			v21h-6.3L104.4,490.1L104.4,490.1z M74.9,490.1v-50.6h23.6v8.5H81.2v11.1h16.1v8.5H81.2v13.9h18v8.5L74.9,490.1L74.9,490.1z
			 M47.9,490.1v-50.6h21.7v8.5H54.2v12.3h13.3v8.3H54.3v21.5H47.9L47.9,490.1z"/>
		<path class="st5" d="M83.2,565.9l6.1,2.4c-0.9,4.2-2.5,7.4-4.6,9.4c-2.2,2-4.9,3.1-8.2,3.1c-4.1,0-7.5-1.8-10.1-5.3
			c-2.6-3.5-4-8.3-4-14.4c0-6.4,1.3-11.4,4-15c2.7-3.6,6.2-5.3,10.5-5.3c3.8,0,6.9,1.4,9.2,4.2c1.4,1.6,2.5,4,3.2,7.1l-6.2,1.8
			c-0.4-2-1.1-3.6-2.3-4.8s-2.6-1.7-4.2-1.7c-2.3,0-4.2,1-5.6,3.1c-1.4,2.1-2.1,5.4-2.1,10c0,4.9,0.7,8.4,2.1,10.5
			c1.4,2.1,3.2,3.1,5.5,3.1c1.7,0,3.1-0.7,4.3-2C81.8,570.8,82.7,568.7,83.2,565.9L83.2,565.9z"/>
		<path class="st5" d="M99,560.6l-5.4-1.2c0.6-2.7,1.6-4.7,3.1-6s3.7-2,6.6-2c2.7,0,4.6,0.4,5.9,1.2c1.3,0.8,2.2,1.8,2.7,3
			s0.8,3.4,0.8,6.6l-0.1,8.7c0,2.5,0.1,4.3,0.3,5.5s0.5,2.4,1.1,3.8h-5.9c-0.2-0.5-0.3-1.2-0.6-2.2c-0.1-0.4-0.2-0.7-0.2-0.9
			c-1,1.2-2.1,2.2-3.3,2.8s-2.4,0.9-3.7,0.9c-2.3,0-4.1-0.8-5.5-2.3c-1.3-1.6-2-3.6-2-6c0-1.6,0.3-3,0.9-4.2
			c0.6-1.2,1.5-2.2,2.5-2.8c1.1-0.7,2.7-1.2,4.7-1.7c2.8-0.7,4.7-1.3,5.8-1.8v-0.9c0-1.4-0.3-2.4-0.8-3.1c-0.6-0.6-1.6-0.9-3.2-0.9
			c-1.1,0-1.9,0.3-2.5,0.8C99.9,558.4,99.4,559.3,99,560.6L99,560.6z M107,566.7c-0.8,0.3-2,0.7-3.6,1.1c-1.6,0.4-2.7,0.9-3.2,1.3
			c-0.8,0.7-1.2,1.6-1.2,2.6s0.3,1.9,0.9,2.7c0.6,0.8,1.4,1.1,2.4,1.1c1.1,0,2.1-0.4,3.1-1.3c0.7-0.7,1.2-1.5,1.4-2.5
			c0.2-0.6,0.2-1.8,0.2-3.6L107,566.7L107,566.7z"/>
		<path class="st5" d="M118.2,552.1h5.5v3.8c2-3,4.3-4.5,7-4.5c1.4,0,2.7,0.4,3.7,1.1c1.1,0.7,1.9,1.9,2.6,3.4c1-1.5,2-2.6,3.2-3.4
			c1.1-0.7,2.4-1.1,3.7-1.1c1.6,0,3,0.4,4.2,1.3c1.1,0.8,2,2.1,2.6,3.7c0.4,1.2,0.6,3.1,0.6,5.8v17.9h-5.9v-16
			c0-2.8-0.2-4.6-0.6-5.4c-0.5-1.1-1.4-1.6-2.5-1.6c-0.8,0-1.6,0.3-2.4,1c-0.7,0.6-1.3,1.6-1.6,2.8s-0.5,3.2-0.5,5.8v13.4h-5.9
			v-15.4c0-2.7-0.1-4.5-0.3-5.3s-0.5-1.4-1-1.8c-0.4-0.4-1-0.6-1.8-0.6c-0.9,0-1.7,0.3-2.5,0.9c-0.7,0.6-1.3,1.5-1.6,2.7
			s-0.5,3.1-0.5,5.8v13.7h-5.9v-28H118.2z"/>
		<path class="st5" d="M157,552.1h5.5v4.1c0.7-1.4,1.7-2.6,2.9-3.4c1.2-0.9,2.6-1.3,4.1-1.3c2.6,0,4.8,1.3,6.6,3.8
			c1.8,2.6,2.7,6.1,2.7,10.7c0,4.7-0.9,8.3-2.7,10.9c-1.8,2.6-4.1,3.9-6.7,3.9c-1.2,0-2.4-0.3-3.4-0.9c-1-0.6-2.1-1.7-3.2-3.2v14.1
			h-5.9v-38.7H157z M162.9,565.6c0,3.1,0.5,5.5,1.5,7s2.2,2.3,3.7,2.3c1.4,0,2.5-0.7,3.4-2.1c0.9-1.4,1.4-3.7,1.4-6.8
			c0-2.9-0.5-5.1-1.4-6.6c-0.9-1.4-2.1-2.1-3.5-2.1c-1.5,0-2.7,0.7-3.6,2.1C163.4,560.8,162.9,562.9,162.9,565.6L162.9,565.6z"/>
		<path class="st5" d="M182.3,565.7c0-2.5,0.5-4.9,1.5-7.2s2.4-4.1,4.1-5.3c1.8-1.2,3.8-1.8,6-1.8c3.4,0,6.2,1.4,8.4,4.1
			c2.2,2.8,3.3,6.2,3.3,10.5c0,4.2-1.1,7.8-3.3,10.5c-2.2,2.8-5,4.2-8.3,4.2c-2.1,0-4-0.6-5.9-1.7c-1.9-1.2-3.3-2.9-4.3-5.1
			C182.7,571.7,182.3,568.9,182.3,565.7L182.3,565.7z M188.3,566.1c0,2.8,0.5,4.9,1.6,6.4s2.4,2.2,3.9,2.2c1.6,0,2.9-0.7,3.9-2.2
			c1.1-1.5,1.6-3.6,1.6-6.4c0-2.7-0.5-4.9-1.6-6.3c-1-1.5-2.3-2.2-3.9-2.2s-2.9,0.7-3.9,2.2C188.9,561.2,188.3,563.3,188.3,566.1
			L188.3,566.1z"/>
		<path class="st5" d="M229.7,560.4l-5.9,1.3c-0.2-1.5-0.6-2.6-1.3-3.3c-0.7-0.7-1.6-1.1-2.7-1.1c-1.5,0-2.7,0.6-3.5,1.9
			c-0.9,1.3-1.3,3.4-1.3,6.4c0,3.3,0.4,5.7,1.3,7.1c0.9,1.4,2.1,2.1,3.6,2.1c1.1,0,2-0.4,2.8-1.2c0.7-0.8,1.2-2.2,1.5-4.1l5.8,1.2
			c-0.6,3.3-1.8,5.9-3.5,7.6c-1.7,1.7-4,2.6-6.9,2.6c-3.3,0-5.9-1.3-7.9-3.9c-2-2.6-2.9-6.2-2.9-10.8s1-8.2,2.9-10.8
			c2-2.6,4.6-3.9,8-3.9c2.7,0,4.9,0.7,6.5,2.2C227.8,555.1,229,557.4,229.7,560.4L229.7,560.4z"/>
		<path class="st5" d="M238.6,560.6l-5.4-1.2c0.6-2.7,1.6-4.7,3.1-6s3.7-2,6.6-2c2.7,0,4.6,0.4,5.9,1.2s2.2,1.8,2.7,3
			s0.8,3.4,0.8,6.6l-0.1,8.7c0,2.5,0.1,4.3,0.3,5.5c0.2,1.2,0.5,2.4,1.1,3.8h-5.9c-0.2-0.5-0.3-1.2-0.6-2.2
			c-0.1-0.4-0.2-0.7-0.2-0.9c-1,1.2-2.1,2.2-3.3,2.8c-1.2,0.6-2.4,0.9-3.7,0.9c-2.3,0-4.1-0.8-5.5-2.3c-1.3-1.6-2-3.6-2-6
			c0-1.6,0.3-3,0.9-4.2s1.5-2.2,2.5-2.8c1.1-0.7,2.7-1.2,4.7-1.7c2.8-0.7,4.7-1.3,5.8-1.8v-0.9c0-1.4-0.3-2.4-0.8-3.1
			c-0.6-0.6-1.6-0.9-3.2-0.9c-1.1,0-1.9,0.3-2.5,0.8C239.5,558.4,239,559.3,238.6,560.6L238.6,560.6z M246.6,566.7
			c-0.8,0.3-2,0.7-3.6,1.1c-1.6,0.4-2.7,0.9-3.2,1.3c-0.8,0.7-1.2,1.6-1.2,2.6s0.3,1.9,0.9,2.7s1.4,1.1,2.4,1.1
			c1.1,0,2.1-0.4,3.1-1.3c0.7-0.7,1.2-1.5,1.4-2.5c0.2-0.6,0.2-1.8,0.2-3.6L246.6,566.7L246.6,566.7z"/>
		<path class="st5" d="M268.5,552.1v5.9h-4v11.3c0,2.3,0,3.6,0.1,4s0.3,0.7,0.5,0.9c0.3,0.2,0.6,0.4,1,0.4c0.6,0,1.3-0.2,2.4-0.7
			l0.5,5.7c-1.4,0.7-2.9,1.1-4.7,1.1c-1.1,0-2-0.2-2.9-0.7s-1.5-1-1.9-1.8c-0.4-0.7-0.7-1.7-0.8-2.9c-0.1-0.9-0.2-2.6-0.2-5.2v-12.2
			h-2.7v-5.8h2.7v-5.6l6-4.3v9.9L268.5,552.1L268.5,552.1z"/>
		<path class="st5" d="M272.7,548.3v-6.9h5.9v6.9H272.7L272.7,548.3z M272.7,580.1v-28h5.9v28H272.7L272.7,580.1z"/>
		<path class="st5" d="M305.1,580.1h-5.9v-14.3c0-3-0.1-5-0.4-5.9s-0.7-1.6-1.2-2.1c-0.6-0.5-1.3-0.7-2.1-0.7c-1,0-2,0.3-2.8,1.1
			c-0.8,0.7-1.4,1.6-1.7,2.8c-0.3,1.2-0.5,3.3-0.5,6.4v12.7h-5.9v-28h5.5v4.1c2-3.2,4.4-4.8,7.4-4.8c1.3,0,2.5,0.3,3.6,0.9
			c1.1,0.6,1.9,1.3,2.5,2.3c0.6,0.9,0.9,2,1.2,3.1c0.2,1.2,0.3,2.8,0.3,5V580.1L305.1,580.1z"/>
		<path class="st5" d="M309.8,565.7c0-2.5,0.5-4.9,1.5-7.2s2.4-4.1,4.1-5.3c1.8-1.2,3.8-1.8,6-1.8c3.4,0,6.2,1.4,8.4,4.1
			c2.2,2.8,3.3,6.2,3.3,10.5c0,4.2-1.1,7.8-3.3,10.5c-2.2,2.8-5,4.2-8.3,4.2c-2.1,0-4-0.6-5.9-1.7c-1.9-1.2-3.3-2.9-4.3-5.1
			C310.3,571.7,309.8,568.9,309.8,565.7L309.8,565.7z M315.9,566.1c0,2.8,0.5,4.9,1.6,6.4s2.4,2.2,3.9,2.2c1.6,0,2.9-0.7,3.9-2.2
			c1.1-1.5,1.6-3.6,1.6-6.4c0-2.7-0.5-4.9-1.6-6.3c-1-1.5-2.3-2.2-3.9-2.2s-2.9,0.7-3.9,2.2C316.4,561.2,315.9,563.3,315.9,566.1
			L315.9,566.1z"/>
		<path class="st5" d="M83.2,365.2l6.1,2.4c-0.9,4.2-2.5,7.4-4.6,9.4c-2.2,2-4.9,3.1-8.2,3.1c-4.1,0-7.5-1.8-10.1-5.3
			c-2.6-3.5-4-8.3-4-14.4c0-6.4,1.3-11.5,4-15c2.7-3.6,6.2-5.3,10.5-5.3c3.8,0,6.9,1.4,9.2,4.2c1.4,1.6,2.5,4,3.2,7.1l-6.2,1.8
			c-0.4-2-1.1-3.6-2.3-4.8c-1.2-1.2-2.6-1.7-4.2-1.7c-2.3,0-4.2,1-5.6,3.1c-1.4,2.1-2.1,5.4-2.1,10c0,4.9,0.7,8.4,2.1,10.5
			c1.4,2.1,3.2,3.1,5.5,3.1c1.7,0,3.1-0.7,4.3-2C81.8,370.2,82.7,368.1,83.2,365.2L83.2,365.2z"/>
		<path class="st5" d="M94.6,347.6v-6.9h5.9v6.9H94.6L94.6,347.6z M94.6,379.5v-28h5.9v28H94.6L94.6,379.5z"/>
		<path class="st5" d="M112.3,379.5h-5.9v-28h5.5v4c0.9-1.9,1.8-3.1,2.5-3.7c0.8-0.6,1.6-0.9,2.6-0.9c1.4,0,2.7,0.5,3.9,1.4
			l-1.8,6.5c-1-0.8-1.9-1.2-2.8-1.2c-0.8,0-1.5,0.3-2.1,0.9s-1,1.6-1.4,3.1c-0.3,1.5-0.5,4.6-0.5,9.4V379.5L112.3,379.5z"/>
		<path class="st5" d="M143.1,359.7l-5.9,1.3c-0.2-1.5-0.6-2.6-1.3-3.3c-0.7-0.7-1.6-1.1-2.7-1.1c-1.5,0-2.7,0.6-3.5,1.9
			c-0.9,1.3-1.3,3.4-1.3,6.4c0,3.3,0.4,5.7,1.3,7.1c0.9,1.4,2.1,2.1,3.6,2.1c1.1,0,2.1-0.4,2.8-1.2c0.7-0.8,1.2-2.2,1.5-4.1l5.8,1.2
			c-0.6,3.3-1.8,5.9-3.5,7.6s-4,2.6-6.9,2.6c-3.3,0-5.9-1.3-7.9-3.9s-2.9-6.2-2.9-10.8c0-4.6,1-8.2,2.9-10.8c2-2.6,4.6-3.9,8-3.9
			c2.7,0,4.9,0.7,6.5,2.2C141.2,354.5,142.4,356.7,143.1,359.7L143.1,359.7z"/>
		<path class="st5" d="M160.6,370.6l5.9,1.2c-0.8,2.7-2,4.8-3.6,6.2c-1.6,1.4-3.7,2.1-6.2,2.1c-3.9,0-6.8-1.6-8.7-4.8
			c-1.5-2.6-2.2-5.8-2.2-9.7c0-4.7,1-8.3,2.9-10.9s4.4-3.9,7.4-3.9c3.3,0,6,1.4,7.9,4.1c1.9,2.8,2.9,7,2.8,12.7h-14.9
			c0,2.2,0.5,3.9,1.4,5.1s2.1,1.8,3.4,1.8c0.9,0,1.7-0.3,2.3-0.9C159.8,373,160.2,372,160.6,370.6L160.6,370.6z M160.9,363.1
			c0-2.2-0.5-3.8-1.3-4.9s-1.9-1.7-3.1-1.7c-1.3,0-2.4,0.6-3.2,1.8c-0.8,1.2-1.3,2.8-1.2,4.8L160.9,363.1L160.9,363.1z"/>
		<path class="st5" d="M170.3,365.1c0-2.5,0.5-4.9,1.5-7.2c1-2.3,2.4-4.1,4.1-5.3c1.8-1.2,3.8-1.8,6-1.8c3.4,0,6.2,1.4,8.4,4.1
			c2.2,2.8,3.3,6.2,3.3,10.4c0,4.2-1.1,7.8-3.3,10.5c-2.2,2.8-5,4.2-8.3,4.2c-2.1,0-4-0.6-5.9-1.7c-1.9-1.2-3.3-2.9-4.3-5.1
			C170.8,371,170.3,368.3,170.3,365.1L170.3,365.1z M176.4,365.4c0,2.8,0.5,4.9,1.6,6.4s2.4,2.2,3.9,2.2c1.6,0,2.9-0.7,3.9-2.2
			c1.1-1.5,1.6-3.6,1.6-6.4c0-2.7-0.5-4.9-1.6-6.3c-1-1.5-2.3-2.2-3.9-2.2s-2.9,0.7-3.9,2.2C176.9,360.5,176.4,362.7,176.4,365.4
			L176.4,365.4z"/>
		<path class="st5" d="M531.1,592.4v-50.8h6.1v50.8H531.1L531.1,592.4z M511.7,573.7v-8.5h13.5v20.3c-1.2,2.1-3.3,4-5.9,5.4
			c-2.4,1.4-5,2.4-7.3,2.4c-3.3,0-6.1-0.9-8.5-3.1c-2.4-2.1-4.3-5.4-5.4-9.5c-1.2-4-1.9-9.2-1.9-13.9c0-5.2,0.7-9.9,1.9-13.9
			c1.4-4,3.5-7.6,6.1-9.5c1.9-1.9,4.5-2.8,7.6-2.8c3.8,0,6.9,1.4,9,4c1.9,2.8,3.5,6.6,4.3,11.3l-6.1,1.9c-0.5-2.4-1.7-4.7-2.6-6.1
			c-1.2-1.2-2.8-2.4-4.7-2.4c-2.8,0-5,1.9-6.6,4.5c-1.7,2.8-2.4,7.1-2.4,12.5c0,6.1,0.7,10.9,2.4,13.7c1.7,2.6,3.8,4.5,6.6,4.5
			c1.2,0,2.6-0.5,4-1.2c1.2-0.7,2.6-1.9,3.3-3.1v-6.6L511.7,573.7L511.7,573.7z M477.9,573.7v-8.5h13.5v20.3c-1.2,2.1-3.3,4-5.7,5.4
			c-2.6,1.4-5.2,2.4-7.6,2.4c-3.1,0-6.1-0.9-8.3-3.1c-2.6-2.1-4.5-5.4-5.4-9.5c-1.4-4-1.9-9.2-1.9-13.9c0-5.2,0.5-9.9,1.9-13.9
			c1.2-4,3.5-7.6,5.9-9.5c1.9-1.9,4.7-2.8,7.6-2.8c3.8,0,6.9,1.4,9,4c2.1,2.8,3.8,6.6,4.3,11.3l-6.1,1.9c-0.5-2.4-1.4-4.7-2.6-6.1
			c-1.2-1.2-2.8-2.4-4.7-2.4c-2.6,0-5,1.9-6.4,4.5c-1.7,2.8-2.6,7.1-2.6,12.5c0,6.1,0.9,10.9,2.4,13.7c1.7,2.6,4,4.5,6.6,4.5
			c1.2,0,2.8-0.5,4-1.2s2.6-1.9,3.5-3.1v-6.6L477.9,573.7L477.9,573.7z M432.5,541.6h6.1v27.9c0,4.3,0.2,7.3,0.2,8.5
			c0.2,2.1,1.2,3.8,1.9,4.7c0.9,1.4,2.4,2.1,4,2.1c1.7,0,3.1-0.7,4-1.7c0.7-0.9,1.7-2.8,1.7-4c0.2-1.9,0.2-5,0.2-9v-28.6h6.4v26.9
			c0,6.1-0.2,10.6-0.5,13c-0.5,2.4-0.9,4.7-1.9,6.1c-0.7,1.7-2.1,3.3-3.8,4c-1.4,0.9-3.5,1.7-5.9,1.7c-2.8,0-5.2-0.7-6.6-1.4
			c-1.7-0.9-2.8-2.6-3.5-4.3c-0.9-1.9-1.7-3.8-1.9-5.9c-0.2-2.6-0.5-7.6-0.5-13L432.5,541.6L432.5,541.6z M420.2,592.4v-50.8h6.1
			v50.8H420.2L420.2,592.4z M394,592.4v-50.8h21.3v8.5h-15.1v12.3h13.2v8.5h-13.2v21.5H394L394,592.4z"/>
	</g>
</g>
</svg>
