<?xml version="1.0" encoding="utf-8"?>
<!-- Generator: Adobe Illustrator 19.2.0, SVG Export Plug-In . SVG Version: 6.00 Build 0)  -->
<svg version="1.1" id="Livello_1" xmlns="http://www.w3.org/2000/svg" xmlns:xlink="http://www.w3.org/1999/xlink" x="0px" y="0px"
	 viewBox="0 0 804.9 785.1" style="enable-background:new 0 0 804.9 785.1;" xml:space="preserve">
<style type="text/css">
	.st0{fill:#FFFFFF;stroke:#1A171B;stroke-width:0.985;stroke-miterlimit:2.6131;}
	.st1{fill:#005EA7;stroke:#005EA7;stroke-width:0.985;stroke-miterlimit:2.6131;}
	.st2{fill:#005EA7;stroke:#FFFFFF;stroke-width:6.5667;stroke-miterlimit:2.6131;}
	.st3{fill:#E1001A;stroke:#E1001A;stroke-width:0.3283;stroke-miterlimit:2.6131;}
	.st4{fill:none;stroke:#1A171B;stroke-width:6.5667;stroke-miterlimit:2.6131;}
	.st5{fill:#FFFFFF;}
	.st6{fill:#1A171B;}
</style>
<g>
	<g>
		<polygon class="st0" points="803.2,63.7 1,63.7 1,318.6 803.2,318.6 		"/>
		<polygon class="st1" points="1,318.6 803.2,318.6 803.2,783.7 1,783.7 		"/>
		<path class="st2" d="M40.8,329.4h723.6c16.5,0,30.2,14.2,30.2,30.2v384c0,16-14.5,30.2-30.2,30.2H40.8c-15.5,0-30-13.2-30-30.2
			V359.7C10.9,342.9,24.3,329.4,40.8,329.4L40.8,329.4z"/>
		<path class="st3" d="M733.7,72.5h40c10.3,0,21.2,9.3,21.2,21.2v22.7L74.1,309.6H31.5c-11.4,0-21.7-10.8-21.7-21.2v-22L733.7,72.5
			L733.7,72.5z"/>
		<path class="st4" d="M773.5,72.5H31.3c-10.8,0-21.7,11.1-21.7,21.2v194.7c0,10.6,10.3,21.4,21.7,21.4h742.2
			c11.4,0,21.4-9.6,21.4-21.4V93.7C794.9,81.8,784.1,72.5,773.5,72.5L773.5,72.5z"/>
		<path class="st5" d="M63.1,434.8l11.2-1.3c0.7,4.4,2,7.6,4.1,9.7c2.1,2,4.8,3.1,8.3,3.1c3.7,0,6.5-0.9,8.4-2.8
			c1.9-1.8,2.8-4,2.8-6.4c0-1.6-0.4-2.9-1.2-4s-2.2-2.1-4.1-2.9c-1.3-0.6-4.4-1.5-9.2-2.9c-6.2-1.8-10.5-4-13-6.6
			c-3.5-3.7-5.3-8.1-5.3-13.4c0-3.4,0.8-6.6,2.5-9.5c1.6-2.9,4-5.2,7.1-6.7s6.8-2.3,11.2-2.3c7.2,0,12.5,1.8,16.2,5.5
			c3.6,3.7,5.5,8.6,5.7,14.7l-11.5,0.6c-0.5-3.4-1.6-5.9-3.2-7.4c-1.6-1.5-4-2.2-7.3-2.2s-6,0.8-7.9,2.4c-1.2,1-1.8,2.4-1.8,4.1
			c0,1.6,0.6,2.9,1.7,4c1.4,1.4,5,2.9,10.6,4.5s9.7,3.1,12.4,4.8c2.7,1.7,4.8,3.9,6.3,6.8s2.3,6.4,2.3,10.6c0,3.8-0.9,7.4-2.7,10.7
			c-1.8,3.3-4.4,5.8-7.7,7.4s-7.5,2.4-12.4,2.4c-7.2,0-12.7-1.9-16.6-5.8C66.1,448,63.8,442.3,63.1,434.8L63.1,434.8z"/>
		<polygon class="st5" points="119,456.5 119,443.7 129.9,443.7 129.9,456.5 		"/>
		<path class="st5" d="M199.8,432l11.1,4.1c-1.7,7.3-4.6,12.7-8.5,16.2c-4,3.5-9,5.3-15.1,5.3c-7.6,0-13.8-3-18.7-9.1
			c-4.9-6-7.3-14.3-7.3-24.8c0-11.1,2.5-19.7,7.4-25.8c4.9-6.1,11.3-9.2,19.3-9.2c7,0,12.6,2.4,17,7.2c2.6,2.8,4.5,6.9,5.8,12.3
			l-11.4,3.2c-0.7-3.5-2.1-6.2-4.2-8.2s-4.7-3-7.8-3c-4.2,0-7.7,1.8-10.3,5.3c-2.6,3.5-3.9,9.3-3.9,17.2c0,8.4,1.3,14.4,3.9,18
			s6,5.4,10.1,5.4c3.1,0,5.7-1.1,7.9-3.4C197.3,440.5,198.9,436.9,199.8,432L199.8,432z"/>
		<polygon class="st5" points="220.9,456.5 220.9,389.9 263.1,389.9 263.1,401.2 232.4,401.2 232.4,415.9 261,415.9 261,427.1 
			232.4,427.1 232.4,445.3 264.2,445.3 264.2,456.5 		"/>
		<path class="st5" d="M271,434.8l11.2-1.3c0.7,4.4,2,7.6,4.1,9.7c2.1,2,4.8,3.1,8.3,3.1c3.7,0,6.5-0.9,8.4-2.8
			c1.9-1.8,2.8-4,2.8-6.4c0-1.6-0.4-2.9-1.2-4c-0.8-1.1-2.2-2.1-4.1-2.9c-1.3-0.6-4.4-1.5-9.2-2.9c-6.2-1.8-10.5-4-13-6.6
			c-3.5-3.7-5.3-8.1-5.3-13.4c0-3.4,0.8-6.6,2.5-9.5c1.6-2.9,4-5.2,7.1-6.7s6.8-2.3,11.2-2.3c7.2,0,12.5,1.8,16.2,5.5
			c3.6,3.7,5.5,8.6,5.7,14.7l-11.5,0.6c-0.5-3.4-1.6-5.9-3.2-7.4s-4-2.2-7.3-2.2s-6,0.8-7.9,2.4c-1.2,1-1.8,2.4-1.8,4.1
			c0,1.6,0.6,2.9,1.7,4c1.4,1.4,5,2.9,10.6,4.5s9.7,3.1,12.4,4.8c2.7,1.7,4.8,3.9,6.3,6.8s2.3,6.4,2.3,10.6c0,3.8-0.9,7.4-2.7,10.7
			c-1.8,3.3-4.4,5.8-7.7,7.4c-3.3,1.6-7.5,2.4-12.4,2.4c-7.2,0-12.7-1.9-16.6-5.8C274.1,448,271.8,442.3,271,434.8L271,434.8z"/>
		<path class="st5" d="M378.5,456.5H366l-5-15.1h-22.8l-4.7,15.1h-12.2l22.2-66.6h12.2L378.5,456.5L378.5,456.5z M357.3,430.2
			l-7.9-24.7l-7.7,24.7H357.3L357.3,430.2z"/>
		<path class="st5" d="M384.6,456.5v-66.6h24.2c6.1,0,10.5,0.6,13.3,1.8c2.8,1.2,5,3.3,6.6,6.4c1.7,3.1,2.5,6.6,2.5,10.5
			c0,5-1.3,9.1-3.8,12.4c-2.5,3.2-6.3,5.3-11.3,6.1c2.5,1.7,4.6,3.6,6.2,5.6s3.8,5.6,6.5,10.8l7,13h-13.7l-8.3-14.5
			c-3-5.2-5-8.4-6.1-9.8c-1.1-1.3-2.2-2.3-3.5-2.8c-1.2-0.5-3.1-0.7-5.8-0.7h-2.3v27.8L384.6,456.5L384.6,456.5z M396.1,418.1h8.5
			c5.5,0,9-0.3,10.4-0.8s2.4-1.5,3.2-2.8c0.8-1.3,1.2-3,1.2-5c0-2.2-0.5-4-1.5-5.4s-2.5-2.2-4.3-2.6c-0.9-0.1-3.7-0.2-8.4-0.2h-9
			v16.8H396.1z"/>
		<polygon class="st5" points="442.1,456.5 442.1,389.9 484.3,389.9 484.3,401.2 453.6,401.2 453.6,415.9 482.2,415.9 482.2,427.1 
			453.6,427.1 453.6,445.3 485.4,445.3 485.4,456.5 		"/>
		<path class="st5" d="M492.8,423.6c0-6.8,0.9-12.5,2.6-17.1c1.3-3.4,3.1-6.4,5.3-9.1s4.7-4.7,7.4-6c3.6-1.8,7.6-2.6,12.3-2.6
			c8.4,0,15.1,3,20.2,9.1c5,6.1,7.6,14.5,7.6,25.4c0,10.8-2.5,19.2-7.5,25.2c-5,6.1-11.7,9.1-20.1,9.1c-8.5,0-15.2-3-20.2-9.1
			C495.3,442.5,492.8,434.2,492.8,423.6L492.8,423.6z M504.7,423.2c0,7.5,1.5,13.3,4.5,17.1c3,3.9,6.8,5.8,11.4,5.8
			c4.6,0,8.4-1.9,11.3-5.8c2.9-3.9,4.4-9.6,4.4-17.4c0-7.6-1.4-13.3-4.3-17.1c-2.9-3.8-6.7-5.6-11.4-5.6s-8.6,1.9-11.5,5.7
			C506.2,409.8,504.7,415.5,504.7,423.2L504.7,423.2z"/>
		<polygon class="st5" points="66.7,577.9 66.7,511.3 110,511.3 110,522.6 79.5,522.6 79.5,538.3 105.8,538.3 105.8,549.6 
			79.5,549.6 79.5,577.9 		"/>
		<path class="st5" d="M120.6,577.9v-66.6h26.9c6.8,0,11.7,0.6,14.7,1.8c3.1,1.2,5.5,3.3,7.4,6.4c1.8,3.1,2.8,6.6,2.8,10.5
			c0,5-1.4,9.1-4.2,12.4c-2.8,3.2-7,5.3-12.5,6.1c2.8,1.7,5,3.6,6.8,5.6s4.2,5.6,7.3,10.8l7.7,13h-15.3l-9.2-14.5
			c-3.3-5.2-5.5-8.4-6.7-9.8c-1.2-1.3-2.5-2.3-3.8-2.8c-1.4-0.5-3.5-0.7-6.4-0.7h-2.6v27.8H120.6L120.6,577.9z M133.4,539.4h9.4
			c6.1,0,9.9-0.3,11.5-0.8c1.5-0.5,2.7-1.5,3.6-2.8c0.9-1.3,1.3-3,1.3-5c0-2.2-0.6-4-1.7-5.4c-1.1-1.4-2.7-2.2-4.8-2.6
			c-1-0.1-4.1-0.2-9.3-0.2h-9.9v16.8H133.4z"/>
		<path class="st5" d="M181.7,545c0-6.8,1-12.5,2.9-17.1c1.4-3.4,3.4-6.4,5.9-9.1c2.5-2.7,5.2-4.7,8.2-6c3.9-1.8,8.5-2.6,13.6-2.6
			c9.3,0,16.8,3,22.4,9.1s8.4,14.5,8.4,25.4c0,10.8-2.8,19.2-8.3,25.2c-5.5,6.1-13,9.1-22.2,9.1c-9.4,0-16.9-3-22.4-9.1
			C184.5,563.9,181.7,555.6,181.7,545L181.7,545z M194.9,544.5c0,7.5,1.7,13.3,5,17.1c3.3,3.9,7.5,5.8,12.6,5.8s9.3-1.9,12.5-5.8
			c3.3-3.9,4.9-9.6,4.9-17.4c0-7.6-1.6-13.3-4.8-17.1c-3.2-3.7-7.4-5.6-12.7-5.6c-5.3,0-9.5,1.9-12.7,5.7
			C196.5,531.1,194.9,536.9,194.9,544.5L194.9,544.5z"/>
		<path class="st5" d="M249.8,556.2l12.4-1.3c0.7,4.4,2.3,7.6,4.5,9.7c2.3,2,5.4,3.1,9.2,3.1c4.1,0,7.2-0.9,9.3-2.8
			c2.1-1.8,3.1-4,3.1-6.4c0-1.6-0.4-2.9-1.3-4s-2.4-2.1-4.6-2.9c-1.5-0.6-4.9-1.5-10.2-2.9c-6.8-1.8-11.6-4-14.4-6.6
			c-3.9-3.7-5.8-8.1-5.8-13.4c0-3.4,0.9-6.6,2.7-9.5c1.8-2.9,4.5-5.2,7.9-6.7s7.6-2.3,12.4-2.3c7.9,0,13.9,1.8,17.9,5.5
			s6.1,8.6,6.3,14.7l-12.8,0.6c-0.5-3.4-1.7-5.9-3.5-7.4s-4.5-2.2-8.1-2.2c-3.7,0-6.6,0.8-8.7,2.4c-1.4,1-2,2.4-2,4.1
			c0,1.6,0.6,2.9,1.9,4c1.6,1.4,5.5,2.9,11.7,4.4s10.8,3.1,13.8,4.8s5.3,3.9,7,6.8c1.7,2.9,2.5,6.4,2.5,10.6c0,3.8-1,7.4-3,10.7
			s-4.9,5.8-8.5,7.4c-3.7,1.6-8.3,2.4-13.8,2.4c-8,0-14.1-1.9-18.4-5.8C253.2,569.3,250.6,563.7,249.8,556.2L249.8,556.2z"/>
		<polygon class="st5" points="311.5,577.9 311.5,511.3 324.3,511.3 324.3,577.9 		"/>
		<polygon class="st5" points="336.6,577.9 336.6,511.3 349,511.3 374.9,555.8 374.9,511.3 386.8,511.3 386.8,577.9 373.9,577.9 
			348.5,534.4 348.5,577.9 		"/>
		<path class="st5" d="M397.7,545c0-6.8,1-12.5,2.9-17.1c1.4-3.4,3.4-6.4,5.9-9.1c2.5-2.7,5.2-4.7,8.2-6c3.9-1.8,8.5-2.6,13.6-2.6
			c9.3,0,16.8,3,22.4,9.1c5.6,6.1,8.4,14.5,8.4,25.4c0,10.8-2.8,19.2-8.3,25.2c-5.5,6.1-13,9.1-22.2,9.1c-9.4,0-16.9-3-22.4-9.1
			C400.4,563.9,397.7,555.6,397.7,545L397.7,545z M410.8,544.5c0,7.5,1.7,13.3,5,17.1c3.3,3.9,7.5,5.8,12.6,5.8s9.3-1.9,12.5-5.8
			c3.3-3.9,4.9-9.6,4.9-17.4c0-7.6-1.6-13.3-4.8-17.1c-3.2-3.7-7.4-5.6-12.7-5.6c-5.3,0-9.5,1.9-12.7,5.7
			C412.4,531.1,410.8,536.9,410.8,544.5L410.8,544.5z"/>
		<polygon class="st5" points="469.1,577.9 469.1,511.3 481.5,511.3 507.4,555.8 507.4,511.3 519.2,511.3 519.2,577.9 506.4,577.9 
			480.9,534.4 480.9,577.9 		"/>
		<polygon class="st5" points="532.7,577.9 532.7,511.3 579.6,511.3 579.6,522.6 545.5,522.6 545.5,537.3 577.2,537.3 577.2,548.5 
			545.5,548.5 545.5,566.6 580.8,566.6 580.8,577.9 		"/>
		<polygon class="st5" points="68.2,712.7 68.2,630.4 83.4,630.4 115,685.4 115,630.4 129.5,630.4 129.5,712.7 113.8,712.7 
			82.7,659 82.7,712.7 		"/>
		<path class="st5" d="M215.6,712.7h-17l-6.7-18.7H161l-6.4,18.7h-16.5l30.1-82.2h16.5L215.6,712.7L215.6,712.7z M186.8,680.1
			l-10.6-30.5l-10.4,30.5H186.8L186.8,680.1z"/>
		<path class="st5" d="M223.8,712.7v-82.2h25c9.5,0,15.7,0.4,18.5,1.2c4.4,1.2,8.1,3.9,11.1,8s4.5,9.5,4.5,16
			c0,5.1-0.9,9.3-2.6,12.7s-3.9,6.1-6.6,8.1c-2.6,2-5.3,3.3-8.1,3.9c-3.7,0.8-9.1,1.2-16.2,1.2h-10.2v31L223.8,712.7L223.8,712.7z
			 M239.4,644.4v23.3h8.5c6.1,0,10.3-0.4,12.3-1.3c2.1-0.9,3.7-2.2,4.9-4c1.2-1.8,1.8-4,1.8-6.4c0-3-0.8-5.5-2.5-7.4
			c-1.6-1.9-3.7-3.2-6.3-3.6c-1.9-0.4-5.6-0.6-11.2-0.6H239.4L239.4,644.4z"/>
		<path class="st5" d="M292.6,672.1c0-8.4,1.2-15.4,3.5-21.1c1.8-4.2,4.2-7.9,7.2-11.3c3-3.3,6.4-5.8,10-7.4
			c4.8-2.2,10.4-3.3,16.7-3.3c11.4,0,20.5,3.8,27.3,11.3s10.2,18,10.2,31.4c0,13.3-3.4,23.7-10.2,31.2c-6.8,7.5-15.8,11.2-27.2,11.2
			c-11.5,0-20.6-3.7-27.4-11.2C296,695.4,292.6,685.1,292.6,672.1L292.6,672.1z M308.7,671.5c0,9.3,2,16.4,6.1,21.2
			c4,4.8,9.2,7.2,15.4,7.2c6.2,0,11.3-2.4,15.3-7.2s6-11.9,6-21.4c0-9.4-1.9-16.4-5.8-21.1c-3.9-4.6-9-7-15.5-7
			c-6.4,0-11.6,2.4-15.6,7C310.6,655,308.7,662,308.7,671.5L308.7,671.5z"/>
		<polygon class="st5" points="380.1,712.7 380.1,631.1 395.7,631.1 395.7,698.8 434.5,698.8 434.5,712.7 		"/>
		<polygon class="st5" points="445.1,712.7 445.1,630.4 460.7,630.4 460.7,712.7 		"/>
		<path class="st5" d="M698.1,399.7v-12.5h46v9.8c-3.8,3.7-7.7,9.1-11.6,16.1c-3.9,7-6.9,14.4-9,22.3s-3.1,14.9-3,21.1h-13
			c0.2-9.7,2.2-19.6,6-29.7s8.8-19.1,15.2-27.1L698.1,399.7L698.1,399.7z"/>
		<path class="st5" d="M693.7,526.9l-11.8,1.4c-0.3-2.6-1-4.5-2.3-5.7c-1.2-1.2-2.8-1.8-4.8-1.8c-2.6,0-4.7,1.2-6.5,3.7
			c-1.8,2.4-2.9,7.6-3.4,15.3c3.1-3.8,6.8-5.7,11.4-5.7c5.1,0,9.5,2.1,13.1,6.2c3.6,4.1,5.5,9.4,5.5,15.9c0,6.9-1.9,12.4-5.7,16.6
			c-3.8,4.2-8.7,6.2-14.7,6.2c-6.4,0-11.7-2.6-15.9-7.9c-4.1-5.3-6.2-14-6.2-26c0-12.4,2.2-21.3,6.5-26.7c4.3-5.5,9.9-8.2,16.8-8.2
			c4.8,0,8.8,1.4,12,4.3C690.8,517.3,692.8,521.5,693.7,526.9L693.7,526.9z M666,555.1c0,4.2,0.9,7.4,2.7,9.7s3.9,3.4,6.3,3.4
			c2.3,0,4.1-0.9,5.7-2.8c1.5-1.9,2.3-4.9,2.3-9.2c0-4.4-0.8-7.6-2.4-9.6c-1.6-2-3.7-3.1-6.1-3.1c-2.3,0-4.3,1-5.9,2.9
			C666.8,548.5,666,551.3,666,555.1L666,555.1z"/>
		<path class="st5" d="M701.3,560l11.8-1.5c0.4,3.2,1.4,5.6,3.1,7.3c1.6,1.7,3.7,2.5,6,2.5c2.5,0,4.6-1,6.4-3c1.7-2,2.6-4.7,2.6-8.2
			c0-3.3-0.8-5.8-2.5-7.7c-1.6-1.9-3.7-2.9-6-2.9c-1.6,0-3.4,0.3-5.6,1l1.4-10.5c3.3,0.1,5.8-0.7,7.6-2.3c1.7-1.6,2.6-3.8,2.6-6.4
			c0-2.3-0.6-4.1-1.9-5.4c-1.3-1.4-3-2-5.1-2s-3.9,0.8-5.3,2.3c-1.5,1.5-2.4,3.8-2.7,6.7l-11.3-2c0.8-4.1,2-7.4,3.5-9.8
			c1.6-2.4,3.8-4.4,6.6-5.7c2.8-1.4,6-2.1,9.5-2.1c6,0,10.8,2,14.4,6.1c3,3.3,4.5,7.1,4.5,11.2c0,5.9-3.1,10.6-9.2,14.2
			c3.7,0.8,6.6,2.7,8.8,5.6c2.2,2.9,3.3,6.4,3.3,10.4c0,5.9-2,11-6.1,15.1c-4.1,4.2-9.2,6.2-15.3,6.2c-5.8,0-10.6-1.8-14.3-5.3
			C704.1,570.2,701.9,565.7,701.3,560L701.3,560z"/>
		<path class="st5" d="M623.1,712.7h-13.4v-59.3c-4.9,5.4-10.7,9.4-17.3,11.9V651c3.5-1.3,7.3-3.9,11.4-7.6
			c4.1-3.8,6.9-8.1,8.4-13.1h10.9V712.7L623.1,712.7z"/>
		<path class="st5" d="M643.5,693.7l13-1.7c0.3,3.1,1.2,5.4,2.5,6.9s3.1,2.2,5.3,2.2c2.8,0,5.1-1.5,7.1-4.5s3.2-9.2,3.7-18.6
			c-3.4,4.6-7.6,6.9-12.6,6.9c-5.5,0-10.3-2.5-14.3-7.5s-6-11.5-6-19.4c0-8.3,2.1-15,6.3-20.1s9.6-7.6,16.1-7.6
			c7.1,0,12.9,3.2,17.5,9.7c4.5,6.4,6.8,17,6.8,31.8c0,15-2.4,25.8-7.1,32.5c-4.7,6.6-10.9,10-18.5,10c-5.5,0-9.9-1.7-13.3-5.1
			C646.6,705.6,644.4,700.5,643.5,693.7L643.5,693.7z M673.8,659.3c0-5.1-1-9-3-11.8s-4.3-4.2-6.9-4.2c-2.5,0-4.5,1.1-6.2,3.4
			c-1.6,2.3-2.5,6.1-2.5,11.3c0,5.3,0.9,9.2,2.7,11.7s4,3.7,6.7,3.7c2.6,0,4.8-1.2,6.5-3.6C673,667.5,673.8,664,673.8,659.3
			L673.8,659.3z"/>
		<path class="st5" d="M720.2,630.3c6.8,0,12.1,2.9,15.9,8.5c4.5,6.7,6.8,17.8,6.8,33.4c0,15.5-2.3,26.7-6.9,33.5
			c-3.8,5.6-9.1,8.4-15.9,8.4c-6.8,0-12.3-3.1-16.5-9.2c-4.2-6.1-6.3-17.1-6.3-32.8c0-15.5,2.3-26.6,6.9-33.4
			C708.2,633.1,713.4,630.3,720.2,630.3L720.2,630.3z M720.2,643.3c-1.6,0-3.1,0.6-4.3,1.8c-1.3,1.2-2.3,3.4-3,6.5
			c-0.9,4.1-1.4,10.9-1.4,20.5s0.4,16.2,1.2,19.8s1.9,6,3.1,7.2c1.3,1.2,2.7,1.8,4.3,1.8s3.1-0.6,4.4-1.8c1.3-1.2,2.3-3.4,3-6.5
			c0.9-4,1.4-10.9,1.4-20.5s-0.4-16.2-1.2-19.9c-0.8-3.6-1.9-6-3.1-7.2C723.3,643.9,721.8,643.3,720.2,643.3L720.2,643.3z"/>
		<polygon class="st6" points="42.3,237.5 42.3,145.2 60.4,145.2 71.2,208.2 81.9,145.2 99.9,145.2 99.9,237.5 88.8,237.5 
			88.8,164.8 76.9,237.5 65.3,237.5 53.5,164.8 53.5,237.5 		"/>
		<path class="st6" d="M109.5,191.9c0-9.4,0.9-17.3,2.7-23.7c1.4-4.7,3.2-8.9,5.6-12.7c2.3-3.7,4.9-6.5,7.7-8.3
			c3.7-2.4,8-3.7,12.9-3.7c8.8,0,15.8,4.2,21.1,12.7c5.3,8.4,7.9,20.2,7.9,35.2c0,14.9-2.6,26.6-7.9,35c-5.2,8.4-12.2,12.6-21,12.6
			c-8.9,0-15.9-4.2-21.2-12.5C112.1,218.1,109.5,206.6,109.5,191.9L109.5,191.9z M121.9,191.3c0,10.4,1.6,18.4,4.7,23.8
			c3.1,5.4,7.1,8.1,11.9,8.1c4.8,0,8.7-2.7,11.8-8c3.1-5.4,4.6-13.4,4.6-24.1c0-10.6-1.5-18.5-4.5-23.7s-7-7.8-11.9-7.8
			c-5,0-9,2.6-12,7.9C123.4,172.7,121.9,180.7,121.9,191.3L121.9,191.3z"/>
		<polygon class="st6" points="176.9,237.5 176.9,145.2 188.6,145.2 213,206.8 213,145.2 224.2,145.2 224.2,237.5 212.1,237.5 
			188.1,177.3 188.1,237.5 		"/>
		<polygon class="st6" points="250.3,237.5 250.3,160.8 232.6,160.8 232.6,145.2 280,145.2 280,160.8 262.4,160.8 262.4,237.5 		"/>
		<polygon class="st6" points="287.8,237.5 287.8,145.2 332.1,145.2 332.1,160.8 299.9,160.8 299.9,181.3 329.8,181.3 329.8,196.8 
			299.9,196.8 299.9,221.9 333.2,221.9 333.2,237.5 		"/>
		<path class="st6" d="M381.6,203.6l11.7,5.7c-1.8,10.1-4.8,17.6-8.9,22.5c-4.2,4.9-9.4,7.3-15.9,7.3c-7.9,0-14.4-4.2-19.5-12.5
			c-5.1-8.4-7.7-19.8-7.7-34.3c0-15.4,2.6-27.3,7.7-35.8s11.9-12.7,20.2-12.7c7.3,0,13.2,3.3,17.8,10c2.7,3.9,4.7,9.6,6.1,17
			l-11.9,4.4c-0.7-4.8-2.2-8.6-4.4-11.3c-2.2-2.8-5-4.1-8.2-4.1c-4.4,0-8,2.4-10.8,7.4c-2.7,4.9-4.1,12.9-4.1,23.9
			c0,11.7,1.3,20,4.1,24.9c2.7,5,6.2,7.4,10.6,7.4c3.2,0,6-1.6,8.3-4.7C378.9,215.3,380.6,210.3,381.6,203.6L381.6,203.6z"/>
		<path class="st6" d="M401.2,191.9c0-9.4,0.9-17.3,2.7-23.7c1.4-4.7,3.2-8.9,5.6-12.7c2.3-3.7,4.9-6.5,7.7-8.3
			c3.7-2.4,8-3.7,12.9-3.7c8.8,0,15.8,4.2,21.1,12.7c5.3,8.4,7.9,20.2,7.9,35.2c0,14.9-2.6,26.6-7.9,35c-5.2,8.4-12.2,12.6-21,12.6
			c-8.9,0-15.9-4.2-21.2-12.5C403.8,218.1,401.2,206.6,401.2,191.9L401.2,191.9z M413.6,191.3c0,10.4,1.6,18.4,4.7,23.8
			s7.1,8.1,11.9,8.1c4.8,0,8.7-2.7,11.8-8c3.1-5.4,4.6-13.4,4.6-24.1c0-10.6-1.5-18.5-4.5-23.7s-7-7.8-11.9-7.8c-5,0-9,2.6-12,7.9
			C415.1,172.7,413.6,180.7,413.6,191.3L413.6,191.3z"/>
		<polygon class="st6" points="468.3,237.5 468.3,145.2 486.3,145.2 497.1,208.2 507.8,145.2 525.9,145.2 525.9,237.5 514.7,237.5 
			514.7,164.8 502.9,237.5 491.3,237.5 479.4,164.8 479.4,237.5 		"/>
		<path class="st6" d="M537.9,237.5v-92.3h19.3c7.3,0,12.1,0.5,14.3,1.4c3.4,1.4,6.3,4.4,8.6,9s3.5,10.6,3.5,18
			c0,5.7-0.7,10.4-2,14.3c-1.3,3.9-3,6.9-5.1,9.1c-2,2.2-4.1,3.7-6.2,4.4c-2.9,0.9-7,1.3-12.5,1.3H550v34.8H537.9L537.9,237.5z
			 M549.9,160.8V187h6.6c4.8,0,7.9-0.5,9.5-1.4c1.6-1,2.8-2.5,3.8-4.5c0.9-2.1,1.4-4.4,1.4-7.2c0-3.4-0.6-6.1-1.9-8.3
			c-1.3-2.2-2.9-3.5-4.8-4.1c-1.4-0.4-4.3-0.6-8.7-0.6L549.9,160.8L549.9,160.8z"/>
		<path class="st6" d="M641.1,237.5H628l-5.2-21H599l-4.9,21h-12.8l23.2-92.3h12.7L641.1,237.5L641.1,237.5z M618.9,201l-8.2-34.3
			l-8.1,34.3H618.9L618.9,201z"/>
		<polygon class="st6" points="654.7,237.5 654.7,160.8 637,160.8 637,145.2 684.4,145.2 684.4,160.8 666.7,160.8 666.7,237.5 		"/>
		<path class="st6" d="M692.2,237.5v-92.3h25.4c6.4,0,11,0.8,13.9,2.5s5.2,4.6,6.9,8.8c1.7,4.3,2.6,9.1,2.6,14.5
			c0,6.9-1.3,12.7-3.9,17.2c-2.6,4.5-6.6,7.3-11.8,8.5c2.6,2.4,4.8,4.9,6.5,7.8c1.7,2.8,4,7.8,6.8,15l7.3,18h-14.4l-8.7-20.1
			c-3.1-7.2-5.2-11.7-6.4-13.6c-1.1-1.9-2.3-3.1-3.6-3.8s-3.3-1-6.1-1h-2.4v38.5H692.2L692.2,237.5z M704.3,184.2h8.9
			c5.8,0,9.4-0.4,10.8-1.1c1.4-0.8,2.6-2.1,3.4-3.9c0.8-1.9,1.2-4.1,1.2-6.9c0-3.1-0.5-5.6-1.6-7.5s-2.6-3.1-4.5-3.6
			c-1-0.2-3.9-0.3-8.8-0.3h-9.4L704.3,184.2L704.3,184.2z"/>
		<polygon class="st6" points="752,237.5 752,145.2 764,145.2 764,237.5 		"/>
	</g>
</g>
</svg>
