<?xml version="1.0" encoding="utf-8"?>
<!-- Generator: Adobe Illustrator 19.2.0, SVG Export Plug-In . SVG Version: 6.00 Build 0)  -->
<svg version="1.1" id="Livello_1" xmlns="http://www.w3.org/2000/svg" xmlns:xlink="http://www.w3.org/1999/xlink" x="0px" y="0px"
	 viewBox="0 0 872.2 549.4" style="enable-background:new 0 0 872.2 549.4;" xml:space="preserve">
<style type="text/css">
	.st0{fill:#008E43;stroke:#008E43;stroke-width:1.0684;stroke-miterlimit:2.6131;}
	.st1{fill:none;stroke:#FFFFFF;stroke-width:7.1224;stroke-miterlimit:2.6131;}
	.st2{fill:#FFFFFF;}
</style>
<g>
	<g>
		<polygon class="st0" points="1.1,61.6 871.1,61.6 871.1,548.4 1.1,548.4 		"/>
		<path class="st1" d="M44.2,73.4h784.9c17.9,0,32.8,15.7,32.8,32.8V505c0,17.1-16,32.8-32.8,32.8H44.2c-16.5,0-32.5-14.3-32.5-32.8
			V106.1C11.7,87.9,26.3,73.4,44.2,73.4L44.2,73.4z"/>
		<polygon class="st2" points="71.9,211.2 71.9,138.9 118.2,138.9 118.2,151.2 85.6,151.2 85.6,168.2 113.7,168.2 113.7,180.5 
			85.6,180.5 85.6,211.2 		"/>
		<polygon class="st2" points="129,211.2 129,138.9 142.7,138.9 142.7,211.2 		"/>
		<path class="st2" d="M155.7,211.2V139h28.7c7.2,0,12.5,0.7,15.7,2c3.3,1.3,5.9,3.6,7.9,6.9s2.9,7.1,2.9,11.4
			c0,5.4-1.5,9.9-4.5,13.4s-7.4,5.8-13.4,6.7c3,1.8,5.4,3.9,7.3,6.1c1.9,2.2,4.5,6.1,7.8,11.7l8.3,14.1h-16.3l-9.9-15.7
			c-3.5-5.6-5.9-9.1-7.2-10.6s-2.7-2.5-4.1-3c-1.4-0.5-3.7-0.8-6.9-0.8h-2.8v30.2h-13.5V211.2z M169.4,169.5h10.1
			c6.5,0,10.6-0.3,12.3-0.9c1.6-0.6,2.9-1.6,3.8-3.1c0.9-1.4,1.4-3.2,1.4-5.4c0-2.4-0.6-4.4-1.8-5.9s-2.9-2.4-5.1-2.8
			c-1.1-0.2-4.4-0.2-10-0.2h-10.6L169.4,169.5L169.4,169.5z"/>
		<polygon class="st2" points="223.8,211.2 223.8,138.9 273.9,138.9 273.9,151.2 237.4,151.2 237.4,167.2 271.3,167.2 271.3,179.3 
			237.4,179.3 237.4,199 275.2,199 275.2,211.2 		"/>
		<polygon class="st2" points="286.8,211.2 286.8,138.9 300.1,138.9 327.8,187.2 327.8,138.9 340.4,138.9 340.4,211.2 326.7,211.2 
			299.5,164.1 299.5,211.2 		"/>
		<polygon class="st2" points="349,211.2 349,198 384.4,151.2 353,151.2 353,138.9 402.4,138.9 402.4,150.3 365.4,199 403.8,199 
			403.8,211.2 		"/>
		<polygon class="st2" points="412.5,211.2 412.5,138.9 462.5,138.9 462.5,151.2 426.1,151.2 426.1,167.2 460,167.2 460,179.3 
			426.1,179.3 426.1,199 463.8,199 463.8,211.2 		"/>
		<path class="st2" d="M71.9,269.2h27c5.3,0,9.3,0.2,12,0.7c2.6,0.5,5,1.5,7,3c2.1,1.5,3.8,3.5,5.2,6s2.1,5.3,2.1,8.4
			c0,3.4-0.9,6.5-2.5,9.3c-1.7,2.8-4,4.9-6.9,6.4c4.1,1.3,7.3,3.5,9.5,6.5c2.2,3.1,3.3,6.7,3.3,10.9c0,3.3-0.7,6.5-2.1,9.6
			c-1.4,3.1-3.4,5.6-5.8,7.4c-2.5,1.8-5.5,3-9.2,3.4c-2.3,0.3-7.8,0.4-16.4,0.5h-23v-72.1L71.9,269.2L71.9,269.2z M85.5,281.2v16.7
			h8.9c5.3,0,8.6-0.1,9.9-0.3c2.3-0.3,4.2-1.1,5.5-2.6c1.3-1.4,2-3.3,2-5.6c0-2.2-0.6-4.1-1.7-5.4c-1.2-1.4-2.9-2.2-5.1-2.5
			c-1.3-0.2-5.2-0.3-11.6-0.3L85.5,281.2L85.5,281.2z M85.5,309.9v19.3h12.6c4.9,0,8-0.1,9.4-0.4c2-0.4,3.7-1.4,5-2.9
			s1.9-3.6,1.9-6.1c0-2.2-0.5-4-1.5-5.5s-2.4-2.6-4.3-3.3c-1.9-0.7-5.9-1-12.1-1h-11L85.5,309.9L85.5,309.9z"/>
		<path class="st2" d="M137.2,305.7c0-7.4,1-13.5,3.1-18.5c1.5-3.7,3.6-7,6.3-9.9s5.6-5.1,8.7-6.5c4.2-1.9,9.1-2.9,14.6-2.9
			c10,0,17.9,3.3,23.9,9.9s9,15.8,9,27.5s-3,20.8-8.9,27.4s-13.9,9.9-23.8,9.9c-10,0-18-3.3-24-9.8
			C140.1,326.3,137.2,317.2,137.2,305.7L137.2,305.7z M151.2,305.3c0,8.2,1.8,14.4,5.3,18.6s8,6.3,13.5,6.3c5.4,0,9.9-2.1,13.4-6.3
			c3.5-4.2,5.2-10.5,5.2-18.8s-1.7-14.4-5.1-18.5c-3.4-4.1-7.9-6.1-13.5-6.1s-10.2,2.1-13.6,6.2
			C152.9,290.7,151.2,296.9,151.2,305.3L151.2,305.3z"/>
		<polygon class="st2" points="213.7,341.4 213.7,269.8 227.3,269.8 227.3,329.2 261.2,329.2 261.2,341.4 		"/>
		<path class="st2" d="M268.2,305.7c0-7.4,1-13.5,3.1-18.5c1.5-3.7,3.6-7,6.3-9.9c2.7-2.9,5.6-5.1,8.7-6.5c4.2-1.9,9.1-2.9,14.6-2.9
			c10,0,17.9,3.3,23.9,9.9s9,15.8,9,27.5s-3,20.8-8.9,27.4s-13.9,9.9-23.8,9.9c-10,0-18-3.3-24-9.8
			C271.2,326.3,268.2,317.2,268.2,305.7L268.2,305.7z M282.2,305.3c0,8.2,1.8,14.4,5.3,18.6s8,6.3,13.5,6.3c5.4,0,9.9-2.1,13.4-6.3
			c3.5-4.2,5.2-10.5,5.2-18.8s-1.7-14.4-5.1-18.5s-7.9-6.1-13.5-6.1s-10.2,2.1-13.6,6.2C284,290.7,282.2,296.9,282.2,305.3
			L282.2,305.3z"/>
		<path class="st2" d="M375.8,314.9v-12.2h29.3v28.8c-2.9,3-7,5.6-12.4,7.8s-10.9,3.4-16.5,3.4c-7.1,0-13.2-1.6-18.5-4.7
			c-5.3-3.2-9.2-7.7-11.8-13.6c-2.6-5.9-4-12.3-4-19.2c0-7.5,1.5-14.2,4.4-20.1c3-5.8,7.3-10.3,13-13.4c4.3-2.4,9.7-3.6,16.2-3.6
			c8.4,0,14.9,1.9,19.6,5.6c4.7,3.8,7.8,9,9.1,15.6l-13.5,2.7c-1-3.5-2.8-6.4-5.4-8.4c-2.6-2.1-5.9-3.1-9.8-3.1
			c-6,0-10.7,2-14.2,6.1s-5.3,10-5.3,18c0,8.6,1.8,15,5.3,19.3c3.6,4.3,8.2,6.4,14,6.4c2.9,0,5.7-0.6,8.6-1.8
			c2.9-1.2,5.3-2.7,7.4-4.4v-9.2L375.8,314.9L375.8,314.9z"/>
		<polygon class="st2" points="417.9,341.4 417.9,269.2 431.1,269.2 458.8,317.4 458.8,269.2 471.5,269.2 471.5,341.4 457.8,341.4 
			430.5,294.3 430.5,341.4 		"/>
		<path class="st2" d="M546.7,341.4h-14.8L526,325h-27l-5.6,16.4h-14.5l26.3-72.2h14.4L546.7,341.4L546.7,341.4z M521.6,312.8
			l-9.3-26.8l-9.1,26.8H521.6L521.6,312.8z"/>
		<polygon class="st2" points="71.6,473.1 71.6,400.8 92.1,400.8 104.3,450.1 116.4,400.8 136.9,400.8 136.9,473.1 124.2,473.1 
			124.2,416.2 110.8,473.1 97.7,473.1 84.3,416.2 84.3,473.1 		"/>
		<polygon class="st2" points="150,473.1 150,400.8 163.6,400.8 163.6,473.1 		"/>
		<polygon class="st2" points="177,473.1 177,401.4 190.6,401.4 190.6,460.9 224.5,460.9 224.5,473.1 		"/>
		<path class="st2" d="M295.2,473.1h-14.8l-5.9-16.4h-27l-5.6,16.4h-14.5l26.3-72.2h14.4L295.2,473.1L295.2,473.1z M270.1,444.5
			l-9.3-26.8l-9.1,26.8H270.1L270.1,444.5z"/>
		<polygon class="st2" points="302.5,473.1 302.5,400.8 315.8,400.8 343.4,449.1 343.4,400.8 356.1,400.8 356.1,473.1 342.4,473.1 
			315.2,426 315.2,473.1 		"/>
		<path class="st2" d="M367.7,437.4c0-7.4,1-13.5,3.1-18.5c1.5-3.7,3.6-7,6.3-9.9c2.7-2.9,5.6-5.1,8.7-6.5c4.2-1.9,9.1-2.9,14.6-2.9
			c10,0,17.9,3.3,23.9,9.9s9,15.8,9,27.5s-3,20.8-8.9,27.4c-5.9,6.6-13.9,9.9-23.8,9.9c-10,0-18-3.3-24-9.8
			C370.7,457.9,367.7,448.9,367.7,437.4L367.7,437.4z M381.8,436.9c0,8.2,1.8,14.4,5.3,18.6s8,6.3,13.5,6.3c5.4,0,9.9-2.1,13.4-6.3
			s5.2-10.5,5.2-18.8s-1.7-14.4-5.1-18.5s-7.9-6.1-13.5-6.1s-10.2,2.1-13.6,6.2C383.5,422.4,381.8,428.6,381.8,436.9L381.8,436.9z"
			/>
		<path class="st2" d="M696.2,211.2h-14.6v-55c-5.3,5-11.6,8.7-18.8,11.1V154c3.8-1.2,7.9-3.6,12.4-7.1s7.5-7.6,9.2-12.2h11.8
			L696.2,211.2L696.2,211.2z"/>
		<path class="st2" d="M730.5,170.1c-3.8-1.6-6.5-3.8-8.2-6.6s-2.6-5.9-2.6-9.2c0-5.7,2-10.4,5.9-14.1c4-3.7,9.6-5.6,16.9-5.6
			c7.2,0,12.9,1.9,16.8,5.6c4,3.7,6,8.4,6,14.1c0,3.5-0.9,6.7-2.8,9.4c-1.8,2.7-4.4,4.9-7.7,6.3c4.2,1.7,7.4,4.2,9.6,7.4
			c2.2,3.2,3.3,7,3.3,11.3c0,7-2.2,12.7-6.7,17.1s-10.4,6.6-17.9,6.6c-6.9,0-12.7-1.8-17.3-5.4c-5.4-4.3-8.2-10.2-8.2-17.7
			c0-4.1,1-7.9,3.1-11.4C722.9,174.6,726.1,171.9,730.5,170.1L730.5,170.1z M733.5,155.4c0,2.9,0.8,5.2,2.5,6.8
			c1.6,1.6,3.8,2.4,6.6,2.4s5-0.8,6.7-2.5c1.6-1.6,2.5-3.9,2.5-6.8c0-2.7-0.8-4.9-2.5-6.6c-1.6-1.6-3.8-2.5-6.5-2.5
			c-2.8,0-5,0.8-6.7,2.5C734.3,150.4,733.5,152.6,733.5,155.4L733.5,155.4z M732.2,188c0,4,1,7.2,3.1,9.4c2.1,2.3,4.6,3.4,7.7,3.4
			c3,0,5.5-1.1,7.5-3.2c2-2.2,3-5.3,3-9.4c0-3.6-1-6.4-3-8.6s-4.6-3.2-7.6-3.2c-3.6,0-6.2,1.2-8,3.7
			C733,182.5,732.2,185.1,732.2,188L732.2,188z"/>
		<path class="st2" d="M801.8,134.7c7.4,0,13.2,2.6,17.3,7.9c4.9,6.2,7.4,16.6,7.4,31s-2.5,24.8-7.5,31.1c-4.1,5.2-9.9,7.8-17.3,7.8
			c-7.4,0-13.4-2.8-17.9-8.5c-4.5-5.7-6.8-15.9-6.8-30.5c0-14.3,2.5-24.7,7.5-31C788.7,137.3,794.4,134.7,801.8,134.7L801.8,134.7z
			 M801.8,146.8c-1.8,0-3.3,0.6-4.7,1.7s-2.5,3.2-3.2,6.1c-1,3.8-1.5,10.1-1.5,19.1c0,8.9,0.5,15.1,1.3,18.4c0.9,3.4,2,5.6,3.4,6.7
			s2.9,1.7,4.7,1.7s3.4-0.6,4.7-1.7c1.4-1.1,2.5-3.1,3.2-6c1-3.7,1.5-10.1,1.5-19s-0.5-15.1-1.3-18.4c-0.9-3.3-2-5.6-3.4-6.7
			C805.1,147.4,803.6,146.8,801.8,146.8L801.8,146.8z"/>
		<path class="st2" d="M708.1,327.8v13.6h-51.2c0.6-5.1,2.2-10,5-14.6s8.2-10.7,16.4-18.3c6.6-6.1,10.6-10.3,12.1-12.5
			c2-3,3-6,3-8.9c0-3.2-0.9-5.7-2.6-7.5c-1.8-1.8-4.2-2.6-7.3-2.6c-3,0-5.5,0.9-7.3,2.7c-1.8,1.8-2.8,4.9-3.1,9.1l-14.5-1.5
			c0.9-8,3.6-13.8,8.2-17.3c4.6-3.5,10.3-5.2,17.1-5.2c7.5,0,13.4,2,17.7,6.1S708,280,708,286c0,3.4-0.6,6.7-1.8,9.8
			c-1.2,3.1-3.2,6.3-5.8,9.7c-1.8,2.3-5,5.5-9.6,9.7s-7.5,7-8.8,8.4c-1.2,1.4-2.2,2.7-3,4h29.1V327.8z"/>
		<path class="st2" d="M730.5,300.3c-3.8-1.6-6.5-3.8-8.2-6.6c-1.7-2.8-2.6-5.9-2.6-9.2c0-5.7,2-10.4,5.9-14.1
			c4-3.7,9.6-5.6,16.9-5.6c7.2,0,12.9,1.9,16.8,5.6c4,3.7,6,8.4,6,14.1c0,3.5-0.9,6.7-2.8,9.4c-1.8,2.7-4.4,4.9-7.7,6.3
			c4.2,1.7,7.4,4.2,9.6,7.4c2.2,3.2,3.3,7,3.3,11.3c0,7-2.2,12.8-6.7,17.1c-4.5,4.4-10.4,6.6-17.9,6.6c-6.9,0-12.7-1.8-17.3-5.4
			c-5.4-4.3-8.2-10.2-8.2-17.7c0-4.1,1-7.9,3.1-11.4C722.9,304.9,726.1,302.2,730.5,300.3L730.5,300.3z M733.5,285.6
			c0,2.9,0.8,5.2,2.5,6.8c1.6,1.6,3.8,2.4,6.6,2.4s5-0.8,6.7-2.5c1.6-1.6,2.5-3.9,2.5-6.8c0-2.7-0.8-4.9-2.5-6.6
			c-1.6-1.6-3.8-2.5-6.5-2.5c-2.8,0-5,0.8-6.7,2.5C734.3,280.7,733.5,282.9,733.5,285.6L733.5,285.6z M732.2,318.2
			c0,4,1,7.2,3.1,9.4c2.1,2.3,4.6,3.4,7.7,3.4c3,0,5.5-1.1,7.5-3.2c2-2.2,3-5.3,3-9.4c0-3.6-1-6.4-3-8.6s-4.6-3.2-7.6-3.2
			c-3.6,0-6.2,1.2-8,3.7C733,312.7,732.2,315.4,732.2,318.2L732.2,318.2z"/>
		<path class="st2" d="M777.3,321.8l14.5-1.5c0.4,3.3,1.6,5.9,3.7,7.8c2,1.9,4.4,2.9,7.1,2.9c3.1,0,5.6-1.2,7.8-3.7
			c2.1-2.5,3.2-6.2,3.2-11.2c0-4.7-1-8.2-3.2-10.5c-2.1-2.3-4.8-3.5-8.2-3.5c-4.2,0-7.9,1.9-11.3,5.6l-11.8-1.7l7.5-39.6h38.6V280
			h-27.5l-2.3,12.9c3.3-1.6,6.6-2.4,10-2.4c6.5,0,12,2.4,16.5,7.1s6.8,10.8,6.8,18.4c0,6.3-1.8,11.9-5.4,16.8
			c-5,6.7-11.8,10.1-20.6,10.1c-7,0-12.8-1.9-17.2-5.7C780.8,333.3,778.2,328.2,777.3,321.8L777.3,321.8z"/>
		<path class="st2" d="M687.4,473.1v-15.3h-31.2V445l33.1-48.4h12.2v48.3h9.5v12.8h-9.5V473L687.4,473.1L687.4,473.1z M687.4,444.9
			v-26l-17.5,26H687.4L687.4,444.9z"/>
		<path class="st2" d="M718,411.5V398h49.9v10.6c-4.1,4.1-8.3,9.9-12.6,17.5s-7.5,15.6-9.7,24.2c-2.2,8.5-3.3,16.2-3.3,22.9h-14.1
			c0.2-10.5,2.4-21.3,6.5-32.2c4.1-11,9.6-20.7,16.4-29.4L718,411.5L718,411.5z"/>
		<path class="st2" d="M826.4,459.5v13.6h-51.2c0.6-5.1,2.2-10,5-14.6s8.2-10.7,16.4-18.3c6.6-6.1,10.6-10.3,12.1-12.5
			c2-3,3-6,3-8.9c0-3.2-0.9-5.7-2.6-7.5c-1.8-1.8-4.2-2.6-7.3-2.6s-5.5,0.9-7.3,2.7s-2.8,4.9-3.1,9.2l-14.5-1.5
			c0.9-8,3.6-13.8,8.2-17.3c4.6-3.5,10.3-5.3,17.1-5.3c7.5,0,13.4,2,17.7,6.1s6.4,9.1,6.4,15.1c0,3.4-0.6,6.7-1.8,9.8
			s-3.2,6.3-5.8,9.7c-1.8,2.3-5,5.5-9.6,9.7s-7.5,7-8.8,8.4c-1.2,1.4-2.2,2.7-3,4h29.1L826.4,459.5L826.4,459.5z"/>
	</g>
</g>
</svg>
