<?xml version="1.0" encoding="utf-8"?>
<!-- Generator: Adobe Illustrator 19.2.0, SVG Export Plug-In . SVG Version: 6.00 Build 0)  -->
<svg version="1.1" id="Livello_1" xmlns="http://www.w3.org/2000/svg" xmlns:xlink="http://www.w3.org/1999/xlink" x="0px" y="0px"
	 viewBox="0 0 419.2 721.5" style="enable-background:new 0 0 419.2 721.5;" xml:space="preserve">
<style type="text/css">
	.st0{fill:#FFFFFF;stroke:#1D1D1B;stroke-width:0.4865;stroke-miterlimit:2.6131;}
	.st1{fill:none;stroke:#1D1D1B;stroke-width:0.4865;stroke-miterlimit:2.6131;}
	.st2{fill:#1D1D1B;}
	.st3{fill:none;stroke:#1D1D1B;stroke-width:4.8649;stroke-miterlimit:2.6131;}
	.st4{fill:#005CA8;}
	.st5{fill:#FFFFFF;}
	.st6{fill:#005CA8;stroke:#005CA8;stroke-width:0.4865;stroke-miterlimit:2.6131;}
</style>
<polygon class="st0" points="81.7,345.6 418.3,345.6 418.3,720.7 81.7,720.7 "/>
<path class="st1" d="M132.5,482.4H177c4.5,0,8.1,3.7,8.1,8.1V535c0,4.5-3.7,8.1-8.1,8.1h-44.5c-4.5,0-8.1-3.7-8.1-8.1v-44.5
	C124.4,486.1,128,482.4,132.5,482.4L132.5,482.4z"/>
<path class="st2" d="M123,537.1c-0.2-0.3,0.4-0.5,0.4-0.2L123,537.1L123,537.1z"/>
<path class="st2" d="M151.3,537.5v-4.8h16.5v-2.4h-13.3l14.8-22.8c3.3-0.1,3.3,2.3,3.3,4.3v25.7H151.3L151.3,537.5z"/>
<path class="st2" d="M151.3,530.3l0.2-7.8l-0.3-0.2l-3.6,4.4c-1.2,0.8-2.8,1.2-4,0.4l-9.7-4c-3.6-1.2-1.2-7.6,2.4-6l7.6,3.2
	l7.4-10.2c1.2-1.7,2.7-2.6,5.1-2.6h9.7L151.3,530.3L151.3,530.3z"/>
<polygon class="st2" points="152.5,498.9 155.4,496.1 167.8,496.1 167.8,496.9 "/>
<polygon class="st2" points="155.3,494.9 153.3,488.1 167.8,492.9 167.8,494.9 "/>
<path class="st2" d="M155.3,499.7l12.3-1.7c0.1,0.4,0.2,0.8,0.2,1.3c0,3.4-2.8,6.2-6.2,6.2C158.3,505.5,155.6,503,155.3,499.7
	L155.3,499.7z"/>
<path class="st1" d="M131.1,558.9h45.6c4.6,0,8.3,3.7,8.3,8.3v45.6c0,4.6-3.7,8.3-8.3,8.3h-45.6c-4.6,0-8.3-3.7-8.3-8.3v-45.6
	C122.8,562.7,126.5,558.9,131.1,558.9L131.1,558.9z"/>
<path class="st2" d="M128.5,609.9l6.4-20.2l1.1-12.3c0.9-4.1,5.3-4.7,7.9-2.2l8.3,10c1.6,1.9-1.3,4.2-2.9,2.5l-5-5.8l-3.5,8.7
	l5.6,6.9c0.6,0.7,1.3,2,0.7,3.7l-3.1,9.6c-1.2,2.7-5.1,1.5-4.3-1.2l3-9.2l-4.5-5.7l-5.4,16C131.7,613.8,128,612.2,128.5,609.9
	L128.5,609.9z"/>
<polygon class="st2" points="169.7,610.8 152.2,590 153.9,588.6 170.1,607.8 173.5,605 174.8,606.6 "/>
<polygon class="st2" points="170.3,605.4 158.4,591.1 167.8,583.2 179.8,597.4 "/>
<path class="st2" d="M158.2,610.5c-1.4-1.6-1.2-4.1,0.5-5.5c1.6-1.4,4.1-1.1,5.4,0.5c1.4,1.7,1.2,4.1-0.5,5.5
	C162.1,612.3,159.6,612.1,158.2,610.5L158.2,610.5z M159.5,609.4c-0.7-0.9-0.6-2.3,0.3-3c0.9-0.8,2.3-0.6,3,0.3
	c0.8,0.9,0.7,2.3-0.2,3C161.7,610.4,160.3,610.3,159.5,609.4L159.5,609.4z"/>
<path class="st2" d="M142,566.4c1.8,0,3.2,1.4,3.2,3.2c0,1.7-1.4,3.2-3.2,3.2c-1.7,0-3.2-1.4-3.2-3.2
	C138.8,567.8,140.2,566.4,142,566.4L142,566.4z"/>
<polygon class="st0" points="81.7,0.7 418.3,0.7 418.3,345.6 81.7,345.6 "/>
<path class="st3" d="M101.8,351.5h296.3c8.1,0,14.4,6.8,14.4,14.3v334.7c0,7.5-6.8,14.3-14.4,14.3H101.8c-7.5,0-14.3-6.3-14.3-14.3
	V365.7C87.5,357.6,93.7,351.5,101.8,351.5L101.8,351.5z"/>
<path class="st3" d="M101.8,6.5h296.3c8.1,0,14.4,6.6,14.4,14.3v304.5c0,7.6-6.6,14.3-14.4,14.3H101.8c-7.6,0-14.3-6.3-14.3-14.3
	V20.8C87.5,12.7,93.7,6.5,101.8,6.5L101.8,6.5z"/>
<path class="st0" d="M258,151.1c25.5,4.6,42.1,13.8,57.7,34.8c8.8,14.3,13,27.5,13.6,44.2c-1.1,33.4-18.4,58.9-48.4,72.9
	c-34,14-68.1,4.3-92.2-22.5c-15.1-19.8-20.8-41.7-16.4-66.5c5.1-19.1,12.6-31.8,27.3-45.1c15.7-11.7,30.5-17.6,50.4-18.1L258,151.1
	L258,151.1z"/>
<path class="st4" d="M250.2,156.6c40.4,0,73.4,33,73.4,73.4s-33,73.4-73.4,73.4s-73.4-33-73.4-73.4
	C176.8,189.6,209.8,156.6,250.2,156.6L250.2,156.6z"/>
<path class="st5" d="M219.1,275.4l25.9-53.2l-3-11.4l-11.6,13c-3.9,5.4-11.4-0.6-7-5.7c7.2-8.3,14.4-16.6,21.6-25
	c1.1-1,1.1-1.1,3.2-2.1c3.1-1.1,6.1-2.1,9.3-3.2c1.1,0.1,1.1,0.1,2.1,1.1c5.8,6.2,11.7,12.4,17.6,18.7c1,1.1,1,2.1,1,3.1
	c0,5.3,0,8.2,0,13.5c0,4.8-8.3,4.8-8.3,0v-11.3l-7.3-7.4l-2.2,15.8l19.4,53.7c1.6,4.8-7.9,7.9-9.9,3.5l-17.1-47.2l-24.2,47.2
	C225.1,285,217.5,280.2,219.1,275.4L219.1,275.4z"/>
<path class="st5" d="M250.6,171.3c4.3,0,7.8,3.5,7.8,7.8s-3.5,7.8-7.8,7.8s-7.8-3.5-7.8-7.8C242.8,174.8,246.3,171.3,250.6,171.3
	L250.6,171.3z"/>
<path class="st2" d="M224.6,74h-5.9l-2.4-8.5h-10.8l-2.2,8.5h-5.8L208,36.5h5.8L224.6,74L224.6,74z M214.6,59.2l-3.7-13.9l-3.6,13.9
	H214.6L214.6,59.2z"/>
<path class="st2" d="M227.5,74V36.5H239c2.9,0,5,0.3,6.3,1s2.4,1.9,3.1,3.6c0.8,1.7,1.2,3.7,1.2,5.9c0,2.8-0.6,5.1-1.8,7
	c-1.2,1.8-3,3-5.3,3.5c1.2,1,2.2,2,2.9,3.2c0.8,1.1,1.8,3.2,3.1,6.1l3.3,7.3h-6.5l-3.9-8.2c-1.4-2.9-2.4-4.8-2.9-5.5
	c-0.5-0.8-1.1-1.3-1.6-1.6c-0.6-0.3-1.5-0.4-2.7-0.4H233v15.7h-5.5V74z M233,52.3h4c2.6,0,4.3-0.1,4.9-0.5c0.6-0.3,1.2-0.8,1.5-1.6
	c0.4-0.8,0.6-1.7,0.6-2.8c0-1.3-0.2-2.3-0.7-3.1s-1.2-1.3-2.1-1.5c-0.4-0.1-1.8-0.1-4-0.1H233V52.3L233,52.3z"/>
<polygon class="st2" points="254.8,74 254.8,36.5 274.8,36.5 274.8,42.8 260.2,42.8 260.2,51.1 273.8,51.1 273.8,57.5 260.2,57.5 
	260.2,67.7 275.3,67.7 275.3,74 "/>
<path class="st2" d="M304.3,74h-5.9l-2.4-8.5h-10.8L283,74h-5.8l10.5-37.5h5.8L304.3,74L304.3,74z M294.2,59.2l-3.7-13.9l-3.6,13.9
	H294.2L294.2,59.2z"/>
<path class="st2" d="M148.9,126.7V89.2h8.7c3.3,0,5.5,0.2,6.5,0.6c1.5,0.6,2.8,1.8,3.9,3.7c1,1.9,1.6,4.3,1.6,7.3
	c0,2.3-0.3,4.2-0.9,5.8s-1.4,2.8-2.3,3.7s-1.9,1.5-2.8,1.8c-1.3,0.4-3.2,0.5-5.7,0.5h-3.6v14.1H148.9L148.9,126.7z M154.3,95.5v10.6
	h3c2.2,0,3.6-0.2,4.3-0.6c0.7-0.4,1.3-1,1.7-1.8c0.4-0.8,0.6-1.8,0.6-2.9c0-1.4-0.3-2.5-0.9-3.4s-1.3-1.4-2.2-1.7
	c-0.7-0.2-2-0.3-3.9-0.3L154.3,95.5L154.3,95.5z"/>
<polygon class="st2" points="174.1,126.7 174.1,89.2 194.1,89.2 194.1,95.5 179.5,95.5 179.5,103.8 193.1,103.8 193.1,110.2 
	179.5,110.2 179.5,120.4 194.6,120.4 194.6,126.7 "/>
<path class="st2" d="M199.2,89.2h10c2.2,0,4,0.2,5.1,0.7c1.6,0.6,2.9,1.8,4.1,3.5c1.1,1.7,2,3.7,2.6,6.1c0.6,2.4,0.9,5.4,0.9,8.9
	c0,3.1-0.3,5.7-0.8,8c-0.7,2.7-1.6,4.9-2.9,6.6c-0.9,1.3-2.2,2.3-3.8,3c-1.2,0.5-2.8,0.8-4.8,0.8h-10.3V89.2H199.2z M204.7,95.5
	v24.8h4.1c1.5,0,2.6-0.1,3.3-0.4c0.9-0.3,1.6-0.8,2.2-1.6c0.6-0.7,1.1-1.9,1.4-3.6c0.4-1.7,0.6-4,0.6-6.9s-0.2-5.1-0.6-6.7
	c-0.4-1.6-0.9-2.8-1.5-3.6c-0.7-0.9-1.5-1.5-2.5-1.8c-0.8-0.2-2.3-0.4-4.5-0.4h-2.5V95.5z"/>
<path class="st2" d="M225.4,108.2c0-3.8,0.4-7,1.2-9.6c0.6-1.9,1.5-3.6,2.5-5.1c1.1-1.5,2.2-2.6,3.5-3.4c1.7-1,3.6-1.5,5.8-1.5
	c4,0,7.2,1.7,9.6,5.1c2.4,3.4,3.6,8.2,3.6,14.3s-1.2,10.8-3.6,14.2s-5.5,5.1-9.5,5.1s-7.2-1.7-9.6-5.1
	C226.6,118.8,225.4,114.1,225.4,108.2L225.4,108.2z M231,107.9c0,4.2,0.7,7.5,2.1,9.7s3.2,3.3,5.4,3.3c2.2,0,4-1.1,5.4-3.3
	s2.1-5.4,2.1-9.8c0-4.3-0.7-7.5-2-9.6c-1.4-2.1-3.2-3.2-5.4-3.2c-2.3,0-4.1,1.1-5.4,3.2C231.7,100.4,231,103.6,231,107.9L231,107.9z
	"/>
<polygon class="st2" points="255.9,126.7 255.9,89.2 261.2,89.2 272.2,114.2 272.2,89.2 277.3,89.2 277.3,126.7 271.8,126.7 
	261,102.2 261,126.7 "/>
<path class="st2" d="M307.4,126.7h-5.9l-2.4-8.5h-10.8l-2.2,8.5h-5.8l10.5-37.5h5.8L307.4,126.7L307.4,126.7z M297.4,111.9L293.7,98
	l-3.6,13.9H297.4L297.4,111.9z"/>
<polygon class="st2" points="310.5,126.7 310.5,89.5 315.9,89.5 315.9,120.4 329.5,120.4 329.5,126.7 "/>
<polygon class="st2" points="333.4,126.7 333.4,89.2 353.4,89.2 353.4,95.5 338.8,95.5 338.8,103.8 352.4,103.8 352.4,110.2 
	338.8,110.2 338.8,120.4 353.9,120.4 353.9,126.7 "/>
<polygon class="st2" points="123.4,393.6 123.4,381.5 128.9,381.5 128.9,383.5 124.9,383.5 124.9,386.2 128.6,386.2 128.6,388.3 
	124.9,388.3 124.9,391.6 129,391.6 129,393.6 "/>
<path class="st2" d="M134.9,389.2l1.4,0.8c-0.2,1.3-0.6,2.3-1.1,3c-0.5,0.6-1.2,1-1.9,1c-1,0-1.8-0.5-2.4-1.6s-0.9-2.6-0.9-4.5
	c0-2,0.3-3.6,0.9-4.7s1.5-1.7,2.5-1.7c0.9,0,1.6,0.4,2.2,1.3c0.3,0.5,0.6,1.3,0.7,2.2l-1.5,0.6c-0.1-0.6-0.3-1.1-0.5-1.5
	c-0.3-0.4-0.6-0.5-1-0.5c-0.5,0-1,0.3-1.3,1c-0.3,0.6-0.5,1.7-0.5,3.1c0,1.5,0.2,2.6,0.5,3.3c0.3,0.7,0.8,1,1.3,1
	c0.4,0,0.7-0.2,1-0.6C134.6,390.7,134.8,390,134.9,389.2L134.9,389.2z"/>
<path class="st2" d="M142.3,389.2l1.4,0.8c-0.2,1.3-0.6,2.3-1.1,3c-0.5,0.6-1.2,1-1.9,1c-1,0-1.8-0.5-2.4-1.6s-0.9-2.6-0.9-4.5
	c0-2,0.3-3.6,0.9-4.7s1.5-1.7,2.5-1.7c0.9,0,1.6,0.4,2.2,1.3c0.3,0.5,0.6,1.3,0.7,2.2l-1.5,0.6c-0.1-0.6-0.3-1.1-0.5-1.5
	c-0.3-0.4-0.6-0.5-1-0.5c-0.5,0-1,0.3-1.3,1c-0.3,0.6-0.5,1.7-0.5,3.1c0,1.5,0.2,2.6,0.5,3.3c0.3,0.7,0.8,1,1.3,1
	c0.4,0,0.7-0.2,1-0.6C142,390.7,142.2,390,142.3,389.2L142.3,389.2z"/>
<polygon class="st2" points="145,393.6 145,381.5 150.4,381.5 150.4,383.5 146.5,383.5 146.5,386.2 150.1,386.2 150.1,388.3 
	146.5,388.3 146.5,391.6 150.6,391.6 150.6,393.6 "/>
<polygon class="st2" points="153.5,393.6 153.5,383.5 151.3,383.5 151.3,381.5 157.1,381.5 157.1,383.5 154.9,383.5 154.9,393.6 "/>
<polygon class="st2" points="159.7,393.6 159.7,383.5 157.5,383.5 157.5,381.5 163.3,381.5 163.3,383.5 161.2,383.5 161.2,393.6 "/>
<path class="st2" d="M163.8,387.6c0-1.2,0.1-2.3,0.3-3.1c0.2-0.6,0.4-1.2,0.7-1.7c0.3-0.5,0.6-0.9,0.9-1.1c0.5-0.3,1-0.5,1.6-0.5
	c1.1,0,1.9,0.6,2.6,1.7c0.6,1.1,1,2.6,1,4.6s-0.3,3.5-1,4.6c-0.6,1.1-1.5,1.7-2.6,1.7s-2-0.5-2.6-1.6
	C164.1,391.1,163.8,389.6,163.8,387.6L163.8,387.6z M165.3,387.5c0,1.4,0.2,2.4,0.6,3.1s0.9,1.1,1.5,1.1s1.1-0.3,1.4-1.1
	c0.4-0.7,0.6-1.8,0.6-3.2c0-1.4-0.2-2.4-0.5-3.1c-0.4-0.7-0.9-1-1.5-1s-1.1,0.3-1.5,1C165.5,385.1,165.3,386.1,165.3,387.5
	L165.3,387.5z"/>
<path class="st2" d="M172.3,387.2v-2.3h1.4v2.3H172.3L172.3,387.2z M172.3,393.6v-2.3h1.4v2.3H172.3L172.3,393.6z"/>
<polygon class="st2" points="200.4,414.3 200.4,412.9 203,412.9 203,414.3 "/>
<path class="st2" d="M208.9,417.8l-2.7-11.6h1l1.8,8.4c0.1,0.7,0.3,1.3,0.4,1.9c0.1-0.6,0.2-1.3,0.4-1.9l1.9-8.4h1l-2.8,11.6H208.9
	L208.9,417.8z"/>
<polygon class="st2" points="213.5,417.8 213.5,406.2 218.6,406.2 218.6,407.6 214.4,407.6 214.4,411.1 218.3,411.1 218.3,412.5 
	214.4,412.5 214.4,416.4 218.7,416.4 218.7,417.8 "/>
<polygon class="st2" points="220.2,417.8 220.2,406.2 221.1,406.2 221.1,417.8 "/>
<path class="st2" d="M227.8,413.7l0.9,0.4c-0.2,1.3-0.6,2.2-1.1,2.9c-0.5,0.7-1.1,1-1.9,1s-1.4-0.3-1.9-0.8s-0.8-1.2-1.1-2.2
	c-0.2-1-0.4-2-0.4-3.1c0-1.2,0.1-2.3,0.4-3.1c0.3-0.9,0.7-1.6,1.2-2c0.5-0.5,1.1-0.7,1.7-0.7c0.7,0,1.3,0.3,1.8,0.9s0.8,1.4,1,2.5
	l-0.9,0.4c-0.2-0.8-0.4-1.5-0.7-1.8c-0.3-0.4-0.7-0.6-1.2-0.6s-1,0.2-1.4,0.6s-0.6,1-0.8,1.7c-0.1,0.7-0.2,1.5-0.2,2.2
	c0,1,0.1,1.8,0.3,2.6c0.2,0.7,0.4,1.3,0.8,1.6c0.4,0.4,0.8,0.5,1.2,0.5c0.5,0,1-0.2,1.3-0.7C227.5,415.4,227.7,414.7,227.8,413.7
	L227.8,413.7z"/>
<path class="st2" d="M229.6,412.2c0-1.9,0.3-3.4,0.9-4.5s1.4-1.6,2.4-1.6c0.7,0,1.2,0.3,1.8,0.8c0.5,0.5,0.9,1.2,1.2,2.1
	c0.3,0.9,0.4,1.9,0.4,3.1s-0.1,2.2-0.4,3.1s-0.7,1.6-1.2,2.1s-1.1,0.7-1.7,0.7c-0.7,0-1.3-0.3-1.8-0.8s-0.9-1.2-1.2-2.2
	C229.8,414.1,229.6,413.2,229.6,412.2L229.6,412.2z M230.6,412.2c0,1.4,0.2,2.5,0.7,3.3s1,1.2,1.7,1.2s1.3-0.4,1.7-1.2
	c0.5-0.8,0.7-2,0.7-3.4c0-0.9-0.1-1.8-0.3-2.5c-0.2-0.7-0.5-1.2-0.9-1.6s-0.8-0.6-1.3-0.6c-0.7,0-1.2,0.4-1.7,1.1
	C230.8,409.2,230.6,410.4,230.6,412.2L230.6,412.2z"/>
<polygon class="st2" points="237.6,417.8 237.6,406.2 238.5,406.2 238.5,416.4 242,416.4 242,417.8 "/>
<polygon class="st2" points="243.3,417.8 243.3,406.2 244.2,406.2 244.2,417.8 "/>
<path class="st2" d="M247.8,417.8l2.7-11.6h1l2.9,11.6h-1.1l-0.8-3.5h-3l-0.8,3.5H247.8L247.8,417.8z M249.9,413h2.4l-0.7-3.2
	c-0.2-1-0.4-1.8-0.5-2.4c-0.1,0.7-0.2,1.5-0.4,2.2L249.9,413L249.9,413z"/>
<path class="st2" d="M259.8,406.2h0.9v6.7c0,1.2-0.1,2.1-0.2,2.8c-0.2,0.7-0.5,1.2-0.9,1.7c-0.4,0.4-1,0.6-1.7,0.6s-1.2-0.2-1.6-0.6
	c-0.4-0.4-0.7-0.9-0.9-1.6c-0.2-0.7-0.3-1.7-0.3-2.9v-6.7h0.9v6.7c0,1,0.1,1.7,0.2,2.2s0.3,0.8,0.6,1.1c0.3,0.3,0.6,0.4,1,0.4
	c0.7,0,1.2-0.3,1.5-0.8s0.4-1.5,0.4-2.9v-6.7L259.8,406.2L259.8,406.2z"/>
<polygon class="st2" points="264.1,417.8 264.1,407.6 261.8,407.6 261.8,406.2 267.4,406.2 267.4,407.6 265.1,407.6 265.1,417.8 "/>
<path class="st2" d="M267.9,412.2c0-1.9,0.3-3.4,0.9-4.5s1.4-1.6,2.4-1.6c0.7,0,1.2,0.3,1.8,0.8c0.5,0.5,0.9,1.2,1.2,2.1
	c0.3,0.9,0.4,1.9,0.4,3.1s-0.1,2.2-0.4,3.1s-0.7,1.6-1.2,2.1s-1.1,0.7-1.7,0.7c-0.7,0-1.3-0.3-1.8-0.8s-0.9-1.2-1.2-2.2
	C268,414.1,267.9,413.2,267.9,412.2L267.9,412.2z M268.9,412.2c0,1.4,0.2,2.5,0.7,3.3s1,1.2,1.7,1.2s1.3-0.4,1.7-1.2
	c0.5-0.8,0.7-2,0.7-3.4c0-0.9-0.1-1.8-0.3-2.5c-0.2-0.7-0.5-1.2-0.9-1.6s-0.8-0.6-1.3-0.6c-0.7,0-1.2,0.4-1.7,1.1
	C269.1,409.2,268.9,410.4,268.9,412.2L268.9,412.2z"/>
<path class="st2" d="M275.9,417.8v-11.6h3.1c0.6,0,1.1,0.1,1.4,0.3s0.6,0.6,0.8,1.1c0.2,0.5,0.3,1.1,0.3,1.7c0,0.8-0.2,1.5-0.5,2.1
	s-0.8,0.9-1.5,1.1c0.2,0.2,0.4,0.4,0.6,0.6c0.3,0.4,0.5,0.9,0.8,1.5l1.2,3.1h-1.2l-0.9-2.4c-0.3-0.7-0.5-1.2-0.7-1.6
	s-0.3-0.6-0.5-0.8c-0.1-0.1-0.3-0.2-0.4-0.3c-0.1,0-0.3-0.1-0.5-0.1h-1.1v5.1h-0.9L275.9,417.8L275.9,417.8z M276.8,411.3h2
	c0.4,0,0.8-0.1,1-0.2s0.4-0.4,0.5-0.7s0.2-0.7,0.2-1c0-0.5-0.1-1-0.4-1.3c-0.2-0.4-0.6-0.5-1.2-0.5h-2.2v3.7H276.8z"/>
<polygon class="st2" points="283.2,417.8 283.2,406.2 284.1,406.2 284.1,417.8 "/>
<path class="st2" d="M285.2,417.8v-1.4l3.6-7.4c0.3-0.5,0.5-1,0.7-1.4h-3.9v-1.4h5.1v1.4l-4,8l-0.4,0.8h4.5v1.4H285.2L285.2,417.8z"
	/>
<path class="st2" d="M291.2,417.8v-1.4l3.6-7.4c0.3-0.5,0.5-1,0.7-1.4h-3.9v-1.4h5.1v1.4l-4,8l-0.4,0.8h4.5v1.4H291.2L291.2,417.8z"
	/>
<path class="st2" d="M297,417.8l2.7-11.6h1l2.9,11.6h-1.1l-0.8-3.5h-3l-0.8,3.5H297L297,417.8z M299.1,413h2.4l-0.7-3.2
	c-0.2-1-0.4-1.8-0.5-2.4c-0.1,0.7-0.2,1.5-0.4,2.2L299.1,413L299.1,413z"/>
<polygon class="st2" points="305.5,417.8 305.5,407.6 303.1,407.6 303.1,406.2 308.8,406.2 308.8,407.6 306.4,407.6 306.4,417.8 "/>
<polygon class="st2" points="309.9,417.8 309.9,406.2 310.8,406.2 310.8,417.8 "/>
<path class="st2" d="M314.4,417.8l2.7-11.6h1l2.9,11.6h-1l-0.8-3.5h-3l-0.8,3.5H314.4L314.4,417.8z M316.5,413h2.4l-0.7-3.2
	c-0.2-1-0.4-1.8-0.5-2.4c-0.1,0.7-0.2,1.5-0.4,2.2L316.5,413L316.5,413z"/>
<path class="st2" d="M324.2,414.1l0.9-0.1c0,0.6,0.1,1.1,0.3,1.4c0.2,0.4,0.4,0.7,0.7,0.9s0.7,0.3,1.1,0.3c0.4,0,0.7-0.1,0.9-0.3
	c0.3-0.2,0.5-0.4,0.6-0.7s0.2-0.6,0.2-1s-0.1-0.7-0.2-0.9c-0.1-0.3-0.3-0.5-0.6-0.7c-0.2-0.1-0.6-0.3-1.3-0.6
	c-0.6-0.3-1.1-0.5-1.4-0.7c-0.3-0.3-0.6-0.6-0.8-1.1c-0.2-0.4-0.2-0.9-0.2-1.4c0-0.6,0.1-1.1,0.3-1.6s0.5-0.9,0.9-1.2
	s0.8-0.4,1.3-0.4s1,0.1,1.4,0.4s0.7,0.7,0.9,1.2s0.3,1.1,0.3,1.8l-0.9,0.1c-0.1-0.7-0.2-1.3-0.5-1.7s-0.7-0.6-1.2-0.6
	c-0.6,0-1,0.2-1.2,0.5c-0.3,0.3-0.4,0.7-0.4,1.2c0,0.4,0.1,0.8,0.3,1c0.2,0.3,0.6,0.5,1.4,0.8c0.8,0.3,1.3,0.5,1.6,0.7
	c0.4,0.3,0.7,0.7,0.9,1.2s0.3,1,0.3,1.6s-0.1,1.2-0.3,1.7s-0.5,1-0.9,1.3s-0.9,0.5-1.4,0.5c-0.6,0-1.2-0.2-1.6-0.5
	c-0.4-0.3-0.8-0.8-1-1.4C324.4,415.5,324.2,414.8,324.2,414.1L324.2,414.1z"/>
<polygon class="st2" points="331.2,417.8 331.2,406.2 336.3,406.2 336.3,407.6 332.1,407.6 332.1,411.1 336,411.1 336,412.5 
	332.1,412.5 332.1,416.4 336.4,416.4 336.4,417.8 "/>
<path class="st2" d="M337.7,417.8v-11.6h3.1c0.6,0,1.1,0.1,1.4,0.3c0.3,0.2,0.6,0.6,0.8,1.1s0.3,1.1,0.3,1.7c0,0.8-0.2,1.5-0.5,2.1
	s-0.8,0.9-1.5,1.1c0.2,0.2,0.4,0.4,0.6,0.6c0.3,0.4,0.5,0.9,0.8,1.5l1.2,3.1h-1.2l-0.9-2.4c-0.3-0.7-0.5-1.2-0.7-1.6
	s-0.3-0.6-0.5-0.8c-0.1-0.1-0.3-0.2-0.4-0.3c-0.1,0-0.3-0.1-0.5-0.1h-1.1v5.1h-0.9L337.7,417.8L337.7,417.8z M338.7,411.3h2
	c0.4,0,0.8-0.1,1-0.2s0.4-0.4,0.5-0.7s0.2-0.7,0.2-1c0-0.5-0.1-1-0.4-1.3c-0.2-0.4-0.6-0.5-1.2-0.5h-2.2v3.7H338.7z"/>
<path class="st2" d="M346.7,417.8l-2.7-11.6h1l1.8,8.4c0.1,0.7,0.3,1.3,0.4,1.9c0.1-0.6,0.2-1.3,0.4-1.9l1.9-8.4h1l-2.8,11.6H346.7
	L346.7,417.8z"/>
<polygon class="st2" points="351.4,417.8 351.4,406.2 352.4,406.2 352.4,417.8 "/>
<path class="st2" d="M353.5,417.8v-1.4l3.6-7.4c0.3-0.5,0.5-1,0.7-1.4h-3.9v-1.4h5.1v1.4l-4,8l-0.4,0.8h4.5v1.4H353.5L353.5,417.8z"
	/>
<polygon class="st2" points="360.2,417.8 360.2,406.2 361.2,406.2 361.2,417.8 "/>
<path class="st2" d="M362.5,412.2c0-1.9,0.3-3.4,0.9-4.5c0.6-1.1,1.4-1.6,2.4-1.6c0.7,0,1.2,0.3,1.8,0.8c0.5,0.5,0.9,1.2,1.2,2.1
	s0.4,1.9,0.4,3.1s-0.1,2.2-0.4,3.1c-0.3,0.9-0.7,1.6-1.2,2.1s-1.1,0.7-1.7,0.7c-0.7,0-1.3-0.3-1.8-0.8s-0.9-1.2-1.2-2.2
	C362.7,414.1,362.5,413.2,362.5,412.2L362.5,412.2z M363.5,412.2c0,1.4,0.2,2.5,0.7,3.3s1,1.2,1.7,1.2s1.3-0.4,1.7-1.2
	c0.5-0.8,0.7-2,0.7-3.4c0-0.9-0.1-1.8-0.3-2.5s-0.5-1.2-0.9-1.6s-0.8-0.6-1.3-0.6c-0.7,0-1.2,0.4-1.7,1.1
	C363.7,409.2,363.5,410.4,363.5,412.2L363.5,412.2z"/>
<path class="st2" d="M200.8,435.8v-11.6h2.4c0.6,0,1,0.1,1.3,0.2c0.4,0.1,0.8,0.4,1,0.8c0.4,0.5,0.7,1.2,0.8,2
	c0.2,0.8,0.3,1.7,0.3,2.7c0,0.9-0.1,1.7-0.2,2.3c-0.1,0.7-0.3,1.2-0.5,1.7c-0.2,0.4-0.4,0.8-0.6,1c-0.2,0.3-0.5,0.4-0.8,0.6
	c-0.3,0.1-0.7,0.2-1.1,0.2L200.8,435.8L200.8,435.8z M201.8,434.4h1.5c0.5,0,0.8-0.1,1.1-0.2c0.3-0.1,0.5-0.3,0.6-0.6
	c0.2-0.4,0.4-0.8,0.5-1.5c0.1-0.6,0.2-1.4,0.2-2.2c0-1.2-0.1-2.1-0.4-2.8c-0.2-0.7-0.5-1.1-0.9-1.3c-0.3-0.2-0.7-0.2-1.2-0.2h-1.5
	L201.8,434.4L201.8,434.4z"/>
<polygon class="st2" points="208.1,435.8 208.1,424.3 209,424.3 209,435.8 "/>
<path class="st2" d="M213.4,435.8v-11.6h2.7c0.5,0,0.8,0,1.1,0.1c0.3,0.1,0.6,0.3,0.9,0.5c0.2,0.3,0.4,0.6,0.6,1.1
	c0.1,0.5,0.2,1,0.2,1.6c0,1-0.2,1.8-0.6,2.5s-1.1,1-2.1,1h-1.8v4.7h-1L213.4,435.8L213.4,435.8z M214.4,429.8h1.8
	c0.6,0,1-0.2,1.3-0.5c0.3-0.4,0.4-0.9,0.4-1.6c0-0.5-0.1-0.9-0.2-1.2s-0.3-0.6-0.6-0.7c-0.2-0.1-0.4-0.1-0.9-0.1h-1.8L214.4,429.8
	L214.4,429.8z"/>
<polygon class="st2" points="220.1,435.8 220.1,424.3 225.2,424.3 225.2,425.6 221,425.6 221,429.2 224.9,429.2 224.9,430.5 
	221,430.5 221,434.4 225.3,434.4 225.3,435.8 "/>
<path class="st2" d="M226.6,435.8v-11.6h3.1c0.6,0,1.1,0.1,1.4,0.3s0.6,0.6,0.8,1.1c0.2,0.5,0.3,1.1,0.3,1.7c0,0.8-0.2,1.5-0.5,2.1
	s-0.8,0.9-1.5,1.1c0.2,0.2,0.4,0.4,0.6,0.6c0.3,0.4,0.5,0.9,0.8,1.5l1.2,3.1h-1.2l-0.9-2.4c-0.3-0.7-0.5-1.2-0.7-1.6
	c-0.2-0.4-0.3-0.6-0.5-0.8c-0.1-0.1-0.3-0.2-0.4-0.3c-0.1,0-0.3-0.1-0.5-0.1h-1.1v5.1h-0.9L226.6,435.8L226.6,435.8z M227.6,429.4h2
	c0.4,0,0.8-0.1,1-0.2c0.2-0.1,0.4-0.4,0.5-0.7s0.2-0.7,0.2-1c0-0.5-0.1-1-0.4-1.3c-0.2-0.4-0.6-0.5-1.2-0.5h-2.2v3.7H227.6z"/>
<path class="st2" d="M233.4,432.1l0.9-0.1c0,0.6,0.1,1.1,0.3,1.4c0.2,0.4,0.4,0.7,0.7,0.9c0.3,0.2,0.7,0.3,1.1,0.3s0.7-0.1,0.9-0.3
	c0.3-0.2,0.5-0.4,0.6-0.7s0.2-0.6,0.2-1s-0.1-0.7-0.2-0.9c-0.1-0.3-0.3-0.5-0.6-0.7c-0.2-0.1-0.6-0.3-1.3-0.6
	c-0.6-0.3-1.1-0.5-1.4-0.7c-0.3-0.3-0.6-0.6-0.8-1.1c-0.2-0.4-0.2-0.9-0.2-1.4c0-0.6,0.1-1.1,0.3-1.6c0.2-0.5,0.5-0.9,0.9-1.2
	s0.8-0.4,1.3-0.4s1,0.1,1.4,0.4c0.4,0.3,0.7,0.7,0.9,1.2c0.2,0.5,0.3,1.1,0.3,1.8l-0.9,0.1c0-0.7-0.2-1.3-0.5-1.7s-0.7-0.6-1.2-0.6
	c-0.6,0-1,0.2-1.2,0.5c-0.3,0.3-0.4,0.7-0.4,1.2c0,0.4,0.1,0.8,0.3,1c0.2,0.3,0.7,0.5,1.4,0.8c0.8,0.3,1.3,0.5,1.6,0.7
	c0.4,0.3,0.7,0.7,0.9,1.2c0.2,0.5,0.3,1,0.3,1.6s-0.1,1.2-0.3,1.7c-0.2,0.5-0.5,1-0.9,1.3s-0.9,0.5-1.4,0.5c-0.6,0-1.2-0.2-1.6-0.5
	s-0.8-0.8-1-1.4C233.6,433.6,233.5,432.9,233.4,432.1L233.4,432.1z"/>
<path class="st2" d="M240.1,430.2c0-1.9,0.3-3.4,0.9-4.5s1.4-1.6,2.4-1.6c0.7,0,1.2,0.3,1.8,0.8c0.5,0.5,0.9,1.2,1.2,2.1
	c0.3,0.9,0.4,1.9,0.4,3.1c0,1.2-0.1,2.2-0.4,3.1c-0.3,0.9-0.7,1.6-1.2,2.1s-1.1,0.7-1.7,0.7c-0.7,0-1.3-0.3-1.8-0.8
	s-0.9-1.2-1.2-2.2C240.2,432.2,240.1,431.2,240.1,430.2L240.1,430.2z M241,430.2c0,1.4,0.2,2.5,0.7,3.3s1,1.2,1.7,1.2
	s1.3-0.4,1.7-1.2c0.5-0.8,0.7-2,0.7-3.4c0-0.9-0.1-1.8-0.3-2.5c-0.2-0.7-0.5-1.2-0.9-1.6c-0.4-0.4-0.8-0.6-1.3-0.6
	c-0.7,0-1.2,0.4-1.7,1.1C241.3,427.2,241,428.5,241,430.2L241,430.2z"/>
<polygon class="st2" points="248,435.8 248,424.3 249,424.3 252.7,433.3 252.7,424.3 253.6,424.3 253.6,435.8 252.6,435.8 
	248.9,426.7 248.9,435.8 "/>
<polygon class="st2" points="255.2,435.8 255.2,424.3 260.3,424.3 260.3,425.6 256.1,425.6 256.1,429.2 260,429.2 260,430.5 
	256.1,430.5 256.1,434.4 260.5,434.4 260.5,435.8 "/>
<polygon class="st2" points="264.7,435.8 264.7,424.3 265.6,424.3 265.6,435.8 "/>
<polygon class="st2" points="267.2,435.8 267.2,424.3 268.2,424.3 271.9,433.3 271.9,424.3 272.8,424.3 272.8,435.8 271.9,435.8 
	268.1,426.7 268.1,435.8 "/>
<path class="st2" d="M276.4,435.8l-2.7-11.6h1l1.8,8.4c0.1,0.7,0.3,1.3,0.4,1.9c0.1-0.6,0.2-1.3,0.4-1.9l1.9-8.4h1l-2.8,11.6H276.4
	L276.4,435.8z"/>
<path class="st2" d="M279.5,435.8l2.7-11.6h1l2.9,11.6H285l-0.8-3.5h-3l-0.8,3.5H279.5L279.5,435.8z M281.5,431.1h2.4l-0.7-3.2
	c-0.2-1-0.4-1.8-0.5-2.4c-0.1,0.7-0.2,1.5-0.4,2.2L281.5,431.1L281.5,431.1z"/>
<polygon class="st2" points="286.8,435.8 286.8,424.3 287.7,424.3 287.7,434.4 291.2,434.4 291.2,435.8 "/>
<polygon class="st2" points="292.5,435.8 292.5,424.3 293.4,424.3 293.4,435.8 "/>
<path class="st2" d="M295.1,435.8v-11.6h2.4c0.5,0,1,0.1,1.3,0.2c0.4,0.1,0.8,0.4,1,0.8c0.4,0.5,0.7,1.2,0.8,2
	c0.2,0.8,0.3,1.7,0.3,2.7c0,0.9-0.1,1.7-0.2,2.3c-0.1,0.7-0.3,1.2-0.5,1.7c-0.2,0.4-0.4,0.8-0.6,1c-0.2,0.3-0.5,0.4-0.8,0.6
	c-0.3,0.1-0.7,0.2-1.1,0.2L295.1,435.8L295.1,435.8z M296,434.4h1.5c0.5,0,0.8-0.1,1.1-0.2c0.3-0.1,0.5-0.3,0.6-0.6
	c0.2-0.4,0.4-0.8,0.5-1.5c0.1-0.6,0.2-1.4,0.2-2.2c0-1.2-0.1-2.1-0.4-2.8c-0.2-0.7-0.5-1.1-0.9-1.3c-0.3-0.2-0.7-0.2-1.2-0.2H296
	V434.4L296,434.4z"/>
<polygon class="st2" points="302.2,435.8 302.2,424.3 307.4,424.3 307.4,425.6 303.2,425.6 303.2,429.2 307.1,429.2 307.1,430.5 
	303.2,430.5 303.2,434.4 307.5,434.4 307.5,435.8 "/>
<polygon class="st2" points="200.5,491 200.5,489.6 203.2,489.6 203.2,491 "/>
<path class="st2" d="M206.9,494.5v-11.6h2.6c0.5,0,0.8,0,1.1,0.1c0.3,0.1,0.6,0.3,0.9,0.5c0.2,0.3,0.4,0.6,0.6,1.1
	c0.1,0.5,0.2,1,0.2,1.6c0,1-0.2,1.8-0.6,2.5s-1.1,1-2,1h-1.8v4.7h-1L206.9,494.5L206.9,494.5z M207.8,488.4h1.8c0.6,0,1-0.2,1.3-0.5
	c0.2-0.4,0.4-0.9,0.4-1.6c0-0.5-0.1-0.9-0.2-1.2s-0.3-0.6-0.6-0.7c-0.2-0.1-0.4-0.1-0.9-0.1h-1.8L207.8,488.4L207.8,488.4z"/>
<path class="st2" d="M213.1,488.9c0-1.9,0.3-3.4,0.9-4.5s1.4-1.6,2.4-1.6c0.6,0,1.2,0.3,1.7,0.8s0.9,1.2,1.2,2.1s0.4,1.9,0.4,3.1
	c0,1.2-0.1,2.2-0.4,3.1c-0.3,0.9-0.7,1.6-1.2,2.1s-1.1,0.7-1.7,0.7c-0.7,0-1.2-0.3-1.8-0.8c-0.5-0.5-0.9-1.2-1.2-2.2
	C213.2,490.8,213.1,489.9,213.1,488.9L213.1,488.9z M214.1,488.9c0,1.4,0.2,2.5,0.7,3.3s1,1.2,1.7,1.2s1.3-0.4,1.7-1.2
	c0.4-0.8,0.7-2,0.7-3.4c0-0.9-0.1-1.8-0.3-2.5c-0.2-0.7-0.5-1.2-0.8-1.6c-0.4-0.4-0.8-0.6-1.2-0.6c-0.7,0-1.2,0.4-1.7,1.1
	C214.3,485.9,214.1,487.1,214.1,488.9L214.1,488.9z"/>
<polygon class="st2" points="220.9,494.5 220.9,482.9 221.8,482.9 221.8,493.1 225.3,493.1 225.3,494.5 "/>
<polygon class="st2" points="226.5,494.5 226.5,482.9 227.4,482.9 227.4,494.5 "/>
<path class="st2" d="M228.5,494.5v-1.4l3.6-7.4c0.3-0.5,0.5-1,0.7-1.4h-3.9v-1.4h5v1.4l-3.9,8l-0.4,0.8h4.4v1.4L228.5,494.5
	L228.5,494.5z"/>
<polygon class="st2" points="235.2,494.5 235.2,482.9 236.1,482.9 236.1,494.5 "/>
<path class="st2" d="M236.9,494.5l2.7-11.6h1l2.8,11.6h-1l-0.8-3.5h-2.9l-0.8,3.5H236.9L236.9,494.5z M238.9,489.7h2.4l-0.7-3.2
	c-0.2-1-0.4-1.8-0.5-2.4c-0.1,0.7-0.2,1.5-0.4,2.2L238.9,489.7L238.9,489.7z"/>
<path class="st2" d="M244.3,494.5v-1.6h1v1.6c0,0.6-0.1,1.1-0.2,1.4c-0.1,0.4-0.3,0.6-0.6,0.8l-0.2-0.6c0.2-0.1,0.3-0.3,0.4-0.6
	s0.1-0.6,0.1-1.1L244.3,494.5L244.3,494.5z"/>
<path class="st2" d="M248.8,494.5l2.7-11.6h1l2.8,11.6h-1l-0.8-3.5h-2.9l-0.8,3.5H248.8L248.8,494.5z M250.8,489.7h2.4l-0.7-3.2
	c-0.2-1-0.4-1.8-0.5-2.4c-0.1,0.7-0.2,1.5-0.4,2.2L250.8,489.7L250.8,489.7z"/>
<path class="st2" d="M256.1,494.5v-11.6h1.4l1.6,8.2c0.2,0.8,0.3,1.3,0.3,1.7c0.1-0.4,0.2-1,0.4-1.9l1.7-8h1.2v11.6h-0.9v-9.7
	l-2,9.7H259l-2-9.8v9.8H256.1L256.1,494.5z"/>
<path class="st2" d="M264.1,494.5v-11.6h2.6c0.5,0,1,0.1,1.3,0.3s0.6,0.6,0.8,1.1c0.2,0.5,0.3,1,0.3,1.5s-0.1,1-0.2,1.4
	c-0.2,0.4-0.4,0.8-0.7,1.1c0.4,0.2,0.7,0.6,1,1c0.2,0.5,0.3,1.1,0.3,1.8c0,0.5-0.1,1-0.2,1.5s-0.3,0.8-0.5,1.1s-0.5,0.4-0.8,0.6
	c-0.3,0.1-0.7,0.2-1.1,0.2L264.1,494.5L264.1,494.5z M265.1,487.8h1.5c0.4,0,0.7,0,0.9-0.1c0.2-0.1,0.4-0.3,0.5-0.6s0.2-0.6,0.2-1
	s-0.1-0.7-0.2-1s-0.3-0.5-0.5-0.6s-0.6-0.2-1.1-0.2H265v3.5L265.1,487.8L265.1,487.8z M265.1,493.1h1.7c0.3,0,0.5,0,0.6-0.1
	c0.2-0.1,0.4-0.2,0.5-0.3s0.3-0.4,0.3-0.6c0.1-0.3,0.1-0.6,0.1-1s-0.1-0.8-0.2-1.1s-0.3-0.5-0.6-0.7c-0.2-0.1-0.6-0.2-1-0.2h-1.6v4
	L265.1,493.1L265.1,493.1z"/>
<path class="st2" d="M275.2,482.9h0.9v6.7c0,1.2-0.1,2.1-0.2,2.8c-0.2,0.7-0.4,1.2-0.9,1.7s-1,0.6-1.6,0.6c-0.7,0-1.2-0.2-1.6-0.6
	c-0.4-0.4-0.7-0.9-0.9-1.6c-0.2-0.7-0.3-1.7-0.3-2.9v-6.7h0.9v6.7c0,1,0.1,1.7,0.2,2.2s0.3,0.8,0.6,1.1c0.3,0.3,0.6,0.4,1,0.4
	c0.7,0,1.2-0.3,1.4-0.8c0.3-0.5,0.4-1.5,0.4-2.9v-6.7H275.2z"/>
<polygon class="st2" points="277.6,494.5 277.6,482.9 278.6,482.9 278.6,493.1 282,493.1 282,494.5 "/>
<path class="st2" d="M282.3,494.5l2.7-11.6h1l2.9,11.6h-1.1L287,491h-2.9l-0.8,3.5H282.3L282.3,494.5z M284.3,489.7h2.4l-0.7-3.2
	c-0.2-1-0.4-1.8-0.5-2.4c-0.1,0.7-0.2,1.5-0.4,2.2L284.3,489.7L284.3,489.7z"/>
<polygon class="st2" points="289.6,494.5 289.6,482.9 290.5,482.9 294.2,492 294.2,482.9 295,482.9 295,494.5 294.1,494.5 
	290.4,485.4 290.4,494.5 "/>
<path class="st2" d="M296,494.5v-1.4l3.6-7.4c0.3-0.5,0.5-1,0.7-1.4h-3.9v-1.4h5v1.4l-3.9,8l-0.4,0.8h4.4v1.4L296,494.5L296,494.5z"
	/>
<polygon class="st2" points="302.5,494.5 302.5,482.9 307.6,482.9 307.6,484.3 303.5,484.3 303.5,487.8 307.3,487.8 307.3,489.2 
	303.5,489.2 303.5,493.1 307.7,493.1 307.7,494.5 "/>
<path class="st2" d="M309.1,494.5v-1.6h1v1.6c0,0.6-0.1,1.1-0.2,1.4c-0.1,0.4-0.3,0.6-0.6,0.8l-0.2-0.6c0.2-0.1,0.3-0.3,0.4-0.6
	c0.1-0.3,0.1-0.6,0.1-1.1L309.1,494.5L309.1,494.5z"/>
<path class="st2" d="M203,512.5l-2.7-11.6h1l1.8,8.4c0.1,0.7,0.3,1.3,0.4,1.9c0.1-0.6,0.2-1.3,0.4-1.9l1.9-8.4h0.9l-2.7,11.6H203
	L203,512.5z"/>
<polygon class="st2" points="207.6,512.5 207.6,501 208.5,501 208.5,512.5 "/>
<path class="st2" d="M213.4,508v-1.4h2.9v4.3c-0.5,0.6-0.9,1-1.4,1.4c-0.5,0.3-1,0.5-1.5,0.5c-0.7,0-1.3-0.2-1.9-0.7
	c-0.6-0.5-1-1.2-1.3-2.1c-0.3-0.9-0.4-1.9-0.4-3.1c0-1.1,0.1-2.2,0.4-3.1c0.3-1,0.7-1.7,1.2-2.2s1.1-0.7,1.8-0.7
	c0.5,0,1,0.1,1.4,0.4c0.4,0.3,0.7,0.6,1,1.1c0.2,0.5,0.4,1.1,0.5,1.9l-0.8,0.4c-0.1-0.6-0.2-1.1-0.4-1.4c-0.2-0.3-0.4-0.6-0.7-0.8
	c-0.3-0.2-0.6-0.3-1-0.3s-0.8,0.1-1.1,0.3c-0.3,0.2-0.6,0.5-0.7,0.8c-0.2,0.3-0.3,0.7-0.4,1.1c-0.2,0.7-0.3,1.5-0.3,2.3
	c0,1,0.1,1.9,0.3,2.6c0.2,0.7,0.5,1.2,0.9,1.5s0.8,0.5,1.3,0.5c0.4,0,0.8-0.1,1.2-0.4c0.4-0.3,0.7-0.5,0.9-0.8v-2.2h-1.9V508z"/>
<polygon class="st2" points="217.9,512.5 217.9,501 218.8,501 218.8,512.5 "/>
<polygon class="st2" points="220.4,512.5 220.4,501 221.3,501 221.3,511.2 224.7,511.2 224.7,512.5 "/>
<polygon class="st2" points="226,512.5 226,501 226.9,501 226.9,512.5 "/>
<path class="st2" d="M231.2,512.5v-11.6h2.4c0.5,0,1,0.1,1.2,0.2c0.4,0.2,0.7,0.4,1,0.8c0.4,0.5,0.6,1.2,0.8,2
	c0.2,0.8,0.3,1.7,0.3,2.7c0,0.9-0.1,1.7-0.2,2.3c-0.1,0.7-0.3,1.2-0.5,1.7c-0.2,0.4-0.4,0.8-0.6,1c-0.2,0.3-0.5,0.5-0.8,0.6
	s-0.7,0.2-1.1,0.2L231.2,512.5L231.2,512.5z M232.2,511.2h1.5c0.5,0,0.8-0.1,1.1-0.2c0.3-0.1,0.5-0.3,0.6-0.6
	c0.2-0.4,0.4-0.8,0.5-1.5c0.1-0.6,0.2-1.4,0.2-2.2c0-1.2-0.1-2.1-0.4-2.8c-0.2-0.7-0.5-1.1-0.9-1.3c-0.2-0.2-0.6-0.2-1.2-0.2h-1.5
	L232.2,511.2L232.2,511.2z"/>
<polygon class="st2" points="238.3,512.5 238.3,501 243.3,501 243.3,502.3 239.2,502.3 239.2,505.9 243,505.9 243,507.2 
	239.2,507.2 239.2,511.2 243.5,511.2 243.5,512.5 "/>
<polygon class="st2" points="244.7,512.5 244.7,501 245.6,501 245.6,511.2 249,511.2 249,512.5 "/>
<polygon class="st2" points="252.9,512.5 252.9,501 257.6,501 257.6,502.3 253.8,502.3 253.8,505.9 257.1,505.9 257.1,507.3 
	253.8,507.3 253.8,512.5 "/>
<path class="st2" d="M263.3,501h0.9v6.7c0,1.2-0.1,2.1-0.2,2.8c-0.2,0.7-0.4,1.2-0.9,1.7c-0.4,0.4-1,0.6-1.6,0.6
	c-0.7,0-1.2-0.2-1.6-0.6c-0.4-0.4-0.7-0.9-0.9-1.6c-0.2-0.7-0.3-1.7-0.3-2.9V501h0.9v6.7c0,1,0.1,1.7,0.2,2.2s0.3,0.8,0.6,1.1
	c0.3,0.3,0.6,0.4,1,0.4c0.7,0,1.2-0.3,1.4-0.8c0.3-0.5,0.4-1.5,0.4-2.9V501H263.3z"/>
<path class="st2" d="M265.5,506.9c0-1.9,0.3-3.4,0.9-4.5s1.4-1.6,2.4-1.6c0.6,0,1.2,0.3,1.7,0.8s0.9,1.2,1.2,2.1
	c0.3,0.9,0.4,1.9,0.4,3.1c0,1.2-0.1,2.2-0.4,3.1c-0.3,0.9-0.7,1.6-1.2,2.1c-0.5,0.5-1.1,0.7-1.7,0.7c-0.7,0-1.2-0.3-1.8-0.8
	c-0.5-0.5-0.9-1.2-1.2-2.2C265.7,508.9,265.5,507.9,265.5,506.9L265.5,506.9z M266.5,506.9c0,1.4,0.2,2.5,0.7,3.3s1,1.2,1.7,1.2
	s1.3-0.4,1.7-1.2c0.4-0.8,0.7-2,0.7-3.4c0-0.9-0.1-1.8-0.3-2.5c-0.2-0.7-0.5-1.2-0.8-1.6c-0.4-0.4-0.8-0.6-1.2-0.6
	c-0.7,0-1.2,0.4-1.7,1.1C266.7,503.9,266.5,505.2,266.5,506.9L266.5,506.9z"/>
<path class="st2" d="M278.3,508.5l0.9,0.4c-0.2,1.3-0.5,2.2-1,2.9c-0.5,0.7-1.1,1-1.8,1c-0.8,0-1.4-0.3-1.8-0.8
	c-0.5-0.5-0.8-1.2-1.1-2.2c-0.2-1-0.4-2-0.4-3.1c0-1.2,0.1-2.3,0.4-3.1c0.3-0.9,0.7-1.6,1.2-2c0.5-0.5,1.1-0.7,1.7-0.7
	c0.7,0,1.3,0.3,1.8,0.9c0.5,0.6,0.8,1.4,1,2.5l-0.9,0.4c-0.2-0.8-0.4-1.5-0.7-1.8c-0.3-0.4-0.7-0.6-1.2-0.6s-1,0.2-1.3,0.6
	c-0.4,0.4-0.6,1-0.8,1.7c-0.1,0.7-0.2,1.5-0.2,2.2c0,1,0.1,1.8,0.3,2.6c0.2,0.7,0.4,1.3,0.8,1.6c0.4,0.4,0.8,0.5,1.2,0.5
	c0.5,0,1-0.2,1.3-0.7C278,510.2,278.2,509.4,278.3,508.5L278.3,508.5z"/>
<path class="st2" d="M280.1,506.9c0-1.9,0.3-3.4,0.9-4.5s1.4-1.6,2.4-1.6c0.6,0,1.2,0.3,1.7,0.8s0.9,1.2,1.2,2.1
	c0.3,0.9,0.4,1.9,0.4,3.1c0,1.2-0.1,2.2-0.4,3.1c-0.3,0.9-0.7,1.6-1.2,2.1c-0.5,0.5-1.1,0.7-1.7,0.7c-0.7,0-1.2-0.3-1.8-0.8
	c-0.5-0.5-0.9-1.2-1.2-2.2C280.2,508.9,280.1,507.9,280.1,506.9L280.1,506.9z M281.1,506.9c0,1.4,0.2,2.5,0.7,3.3
	c0.5,0.8,1,1.2,1.7,1.2c0.7,0,1.3-0.4,1.7-1.2s0.7-2,0.7-3.4c0-0.9-0.1-1.8-0.3-2.5s-0.5-1.2-0.8-1.6c-0.4-0.4-0.8-0.6-1.2-0.6
	c-0.7,0-1.2,0.4-1.7,1.1C281.3,503.9,281.1,505.2,281.1,506.9L281.1,506.9z"/>
<path class="st2" d="M202.5,533.9c-0.5-1-0.9-2.1-1.2-3.5c-0.3-1.3-0.5-2.7-0.5-4.1c0-1.2,0.1-2.4,0.4-3.6c0.3-1.3,0.7-2.7,1.3-4
	h0.6c-0.4,1.1-0.6,1.9-0.8,2.3c-0.2,0.7-0.3,1.5-0.5,2.3c-0.1,1-0.2,2-0.2,3c0,2.5,0.5,5.1,1.4,7.6H202.5L202.5,533.9z"/>
<path class="st2" d="M203.8,528l0.8-0.2c0,0.6,0.2,1,0.4,1.3c0.2,0.3,0.5,0.4,0.9,0.4s0.7-0.1,0.9-0.4c0.2-0.3,0.3-0.6,0.3-0.9
	c0-0.3-0.1-0.6-0.3-0.8c-0.1-0.1-0.4-0.3-0.9-0.5c-0.6-0.3-1.1-0.5-1.3-0.7c-0.2-0.2-0.4-0.5-0.6-0.8c-0.1-0.3-0.2-0.7-0.2-1.1
	c0-0.4,0.1-0.7,0.2-1s0.2-0.6,0.4-0.8c0.1-0.2,0.3-0.3,0.5-0.4c0.2-0.1,0.5-0.2,0.7-0.2c0.4,0,0.7,0.1,1,0.3s0.5,0.4,0.7,0.8
	c0.1,0.3,0.2,0.8,0.3,1.3l-0.8,0.2c0-0.4-0.1-0.8-0.3-1c-0.2-0.2-0.4-0.4-0.8-0.4s-0.7,0.1-0.8,0.3c-0.2,0.2-0.3,0.5-0.3,0.8
	c0,0.2,0,0.3,0.1,0.5s0.2,0.3,0.3,0.4c0.1,0.1,0.3,0.2,0.8,0.4c0.6,0.3,1,0.5,1.3,0.7c0.2,0.2,0.4,0.4,0.6,0.7
	c0.1,0.3,0.2,0.7,0.2,1.2s-0.1,0.9-0.2,1.3c-0.2,0.4-0.4,0.7-0.7,1c-0.3,0.2-0.7,0.3-1.1,0.3c-0.7,0-1.2-0.2-1.5-0.7
	C204.1,529.6,203.8,528.9,203.8,528L203.8,528z"/>
<path class="st2" d="M208.6,526.4c0-1.5,0.3-2.7,0.8-3.4c0.4-0.6,1-0.9,1.6-0.9c0.7,0,1.3,0.4,1.7,1.1c0.4,0.8,0.7,1.8,0.7,3.1
	c0,1.1-0.1,1.9-0.3,2.5c-0.2,0.6-0.5,1.1-0.8,1.4c-0.4,0.3-0.8,0.5-1.2,0.5c-0.7,0-1.3-0.4-1.7-1.1
	C208.9,528.9,208.6,527.8,208.6,526.4L208.6,526.4z M209.5,526.4c0,1.1,0.1,1.9,0.4,2.4s0.6,0.8,1.1,0.8c0.4,0,0.8-0.3,1.1-0.8
	c0.3-0.5,0.4-1.4,0.4-2.5c0-1-0.1-1.8-0.4-2.4c-0.3-0.5-0.6-0.8-1.1-0.8c-0.4,0-0.8,0.3-1.1,0.8
	C209.7,524.5,209.5,525.3,209.5,526.4L209.5,526.4z"/>
<polygon class="st2" points="214.3,530.5 214.3,519 215.2,519 215.2,530.5 "/>
<path class="st2" d="M216.2,526.4c0-1.5,0.3-2.7,0.8-3.4c0.4-0.6,1-0.9,1.6-0.9c0.7,0,1.3,0.4,1.7,1.1c0.4,0.8,0.7,1.8,0.7,3.1
	c0,1.1-0.1,1.9-0.3,2.5c-0.2,0.6-0.5,1.1-0.8,1.4c-0.4,0.3-0.8,0.5-1.2,0.5c-0.7,0-1.3-0.4-1.7-1.1
	C216.4,528.9,216.2,527.8,216.2,526.4L216.2,526.4z M217.1,526.4c0,1.1,0.1,1.9,0.4,2.4s0.6,0.8,1.1,0.8c0.4,0,0.8-0.3,1.1-0.8
	c0.3-0.5,0.4-1.4,0.4-2.5c0-1-0.1-1.8-0.4-2.4c-0.3-0.5-0.6-0.8-1.1-0.8c-0.4,0-0.8,0.3-1.1,0.8
	C217.2,524.5,217.1,525.3,217.1,526.4L217.1,526.4z"/>
<path class="st2" d="M224.6,520.6V519h0.9v1.6H224.6L224.6,520.6z M224.6,530.5v-8.4h0.9v8.4H224.6L224.6,530.5z"/>
<path class="st2" d="M226.8,530.5v-8.4h0.8v1.2c0.4-0.9,0.9-1.4,1.6-1.4c0.3,0,0.6,0.1,0.8,0.3c0.3,0.2,0.4,0.4,0.6,0.7
	c0.1,0.3,0.2,0.6,0.3,1c0,0.3,0,0.7,0,1.4v5.1H230v-5.1c0-0.6,0-1-0.1-1.3s-0.2-0.5-0.4-0.7c-0.2-0.2-0.4-0.3-0.6-0.3
	c-0.4,0-0.7,0.2-0.9,0.6c-0.3,0.4-0.4,1.1-0.4,2.2v4.6h-0.8L226.8,530.5L226.8,530.5z"/>
<path class="st2" d="M234.6,528l0.8-0.2c0,0.6,0.2,1,0.4,1.3c0.2,0.3,0.5,0.4,0.9,0.4s0.7-0.1,0.9-0.4c0.2-0.3,0.3-0.6,0.3-0.9
	c0-0.3-0.1-0.6-0.3-0.8c-0.1-0.1-0.4-0.3-0.9-0.5c-0.6-0.3-1.1-0.5-1.3-0.7c-0.2-0.2-0.4-0.5-0.6-0.8c-0.1-0.3-0.2-0.7-0.2-1.1
	c0-0.4,0.1-0.7,0.2-1s0.2-0.6,0.4-0.8c0.1-0.2,0.3-0.3,0.5-0.4c0.2-0.1,0.5-0.2,0.7-0.2c0.4,0,0.7,0.1,1,0.3s0.5,0.4,0.7,0.8
	c0.1,0.3,0.2,0.8,0.3,1.3l-0.8,0.2c0-0.4-0.1-0.8-0.3-1c-0.2-0.2-0.4-0.4-0.8-0.4s-0.7,0.1-0.8,0.3c-0.2,0.2-0.3,0.5-0.3,0.8
	c0,0.2,0,0.3,0.1,0.5s0.2,0.3,0.3,0.4c0.1,0.1,0.3,0.2,0.8,0.4c0.6,0.3,1,0.5,1.3,0.7c0.2,0.2,0.4,0.4,0.6,0.7
	c0.1,0.3,0.2,0.7,0.2,1.2s-0.1,0.9-0.2,1.3c-0.2,0.4-0.4,0.7-0.7,1c-0.3,0.2-0.7,0.3-1.1,0.3c-0.7,0-1.2-0.2-1.5-0.7
	C234.9,529.6,234.6,528.9,234.6,528L234.6,528z"/>
<path class="st2" d="M243.2,527.8l0.9,0.2c-0.1,0.9-0.4,1.5-0.8,2s-0.9,0.7-1.4,0.7c-0.7,0-1.3-0.4-1.8-1.1
	c-0.4-0.8-0.6-1.8-0.6-3.2s0.2-2.5,0.7-3.3c0.4-0.8,1-1.2,1.7-1.2s1.2,0.4,1.7,1.1c0.4,0.8,0.6,1.8,0.6,3.2c0,0.1,0,0.2,0,0.4h-3.8
	c0,0.9,0.2,1.6,0.5,2.1s0.6,0.7,1.1,0.7c0.3,0,0.6-0.1,0.8-0.4C242.9,528.9,243.1,528.4,243.2,527.8L243.2,527.8z M240.4,525.6h2.8
	c0-0.7-0.1-1.2-0.3-1.6c-0.3-0.5-0.6-0.8-1.1-0.8c-0.4,0-0.7,0.2-1,0.7C240.6,524.2,240.4,524.8,240.4,525.6L240.4,525.6z"/>
<path class="st2" d="M245.2,530.5v-8.4h0.8v1.3c0.2-0.6,0.4-1,0.5-1.2c0.2-0.2,0.3-0.3,0.5-0.3c0.3,0,0.6,0.2,0.9,0.5l-0.3,1.3
	c-0.2-0.2-0.4-0.3-0.6-0.3s-0.4,0.1-0.5,0.3s-0.3,0.4-0.3,0.8c-0.1,0.5-0.1,1.1-0.1,1.7v4.4L245.2,530.5L245.2,530.5z"/>
<path class="st2" d="M249.8,530.5l-1.9-8.4h0.9l1.1,5c0.1,0.5,0.2,1.1,0.3,1.7c0.1-0.4,0.2-1,0.3-1.6l1.1-5.1h0.9l-1.9,8.4
	L249.8,530.5L249.8,530.5z"/>
<path class="st2" d="M253.3,520.6V519h0.9v1.6H253.3L253.3,520.6z M253.3,530.5v-8.4h0.9v8.4H253.3L253.3,530.5z"/>
<path class="st2" d="M255,530.5v-1.2l3.2-6.1c-0.4,0-0.7,0-1,0h-2.1v-1.1h4.1v0.9l-2.7,5.3l-0.5,1c0.4,0,0.7-0.1,1.1-0.1h2.3v1.2
	L255,530.5L255,530.5z"/>
<path class="st2" d="M260.3,520.6V519h0.9v1.6H260.3L260.3,520.6z M260.3,530.5v-8.4h0.9v8.4H260.3L260.3,530.5z"/>
<path class="st2" d="M262.1,526.4c0-1.5,0.3-2.7,0.8-3.4c0.4-0.6,1-0.9,1.6-0.9c0.7,0,1.3,0.4,1.7,1.1c0.4,0.8,0.7,1.8,0.7,3.1
	c0,1.1-0.1,1.9-0.3,2.5c-0.2,0.6-0.5,1.1-0.8,1.4c-0.4,0.3-0.8,0.5-1.2,0.5c-0.7,0-1.3-0.4-1.7-1.1
	C262.3,528.9,262.1,527.8,262.1,526.4L262.1,526.4z M263,526.4c0,1.1,0.1,1.9,0.4,2.4s0.6,0.8,1.1,0.8c0.4,0,0.8-0.3,1.1-0.8
	c0.3-0.5,0.4-1.4,0.4-2.5c0-1-0.1-1.8-0.4-2.4c-0.3-0.5-0.6-0.8-1.1-0.8c-0.4,0-0.8,0.3-1.1,0.8C263.1,524.5,263,525.3,263,526.4
	L263,526.4z"/>
<path class="st2" d="M273.8,530.5v-1.2c-0.4,0.9-0.9,1.4-1.6,1.4c-0.3,0-0.6-0.1-0.8-0.3c-0.3-0.2-0.4-0.4-0.6-0.7
	c-0.1-0.3-0.2-0.6-0.3-1.1c0-0.3-0.1-0.7-0.1-1.3v-5.2h0.9v4.6c0,0.7,0,1.2,0.1,1.5c0.1,0.4,0.2,0.7,0.3,0.9
	c0.2,0.2,0.4,0.3,0.6,0.3c0.3,0,0.5-0.1,0.7-0.3s0.4-0.5,0.5-0.9s0.1-0.9,0.1-1.6v-4.5h0.9v8.4L273.8,530.5L273.8,530.5z"/>
<path class="st2" d="M275.9,530.5v-8.4h0.8v1.3c0.2-0.6,0.4-1,0.5-1.2c0.2-0.2,0.3-0.3,0.5-0.3c0.3,0,0.6,0.2,0.9,0.5l-0.3,1.3
	c-0.2-0.2-0.4-0.3-0.6-0.3s-0.4,0.1-0.5,0.3s-0.3,0.4-0.3,0.8c-0.1,0.5-0.1,1.1-0.1,1.7v4.4L275.9,530.5L275.9,530.5z"/>
<path class="st2" d="M279,531.2l0.8,0.2c0,0.4,0.1,0.7,0.3,0.9c0.2,0.3,0.5,0.4,0.9,0.4s0.7-0.1,0.9-0.4c0.2-0.3,0.4-0.6,0.4-1.1
	c0-0.3,0.1-0.9,0.1-1.8c-0.4,0.7-0.8,1.1-1.4,1.1c-0.7,0-1.2-0.4-1.6-1.2s-0.6-1.8-0.6-3c0-0.8,0.1-1.5,0.3-2.2
	c0.2-0.7,0.4-1.2,0.8-1.6c0.3-0.4,0.7-0.5,1.2-0.5c0.6,0,1.1,0.4,1.5,1.2v-1h0.8v7.2c0,1.3-0.1,2.2-0.2,2.8c-0.2,0.5-0.4,1-0.8,1.3
	c-0.3,0.3-0.8,0.5-1.3,0.5c-0.6,0-1.1-0.2-1.5-0.7C279.2,532.8,279,532.1,279,531.2L279,531.2z M279.7,526.2c0,1.1,0.1,1.9,0.4,2.4
	s0.6,0.8,1,0.8s0.7-0.3,1-0.8c0.3-0.5,0.4-1.3,0.4-2.4c0-1-0.1-1.8-0.4-2.3c-0.3-0.5-0.6-0.8-1-0.8s-0.7,0.3-1,0.8
	C279.9,524.4,279.7,525.2,279.7,526.2L279.7,526.2z"/>
<path class="st2" d="M288,527.8l0.9,0.2c-0.1,0.9-0.4,1.5-0.8,2c-0.4,0.5-0.9,0.7-1.4,0.7c-0.7,0-1.3-0.4-1.8-1.1
	c-0.4-0.8-0.6-1.8-0.6-3.2s0.2-2.5,0.7-3.3c0.4-0.8,1-1.2,1.7-1.2s1.2,0.4,1.7,1.1c0.4,0.8,0.6,1.8,0.6,3.2c0,0.1,0,0.2,0,0.4h-3.8
	c0,0.9,0.2,1.6,0.5,2.1s0.6,0.7,1.1,0.7c0.3,0,0.6-0.1,0.8-0.4C287.7,528.9,287.9,528.4,288,527.8L288,527.8z M285.2,525.6h2.8
	c0-0.7-0.1-1.2-0.3-1.6c-0.3-0.5-0.6-0.8-1.1-0.8c-0.4,0-0.7,0.2-1,0.7C285.4,524.2,285.3,524.8,285.2,525.6L285.2,525.6z"/>
<path class="st2" d="M290,530.5v-8.4h0.8v1.2c0.4-0.9,0.9-1.4,1.6-1.4c0.3,0,0.6,0.1,0.8,0.3c0.3,0.2,0.4,0.4,0.6,0.7
	c0.1,0.3,0.2,0.6,0.3,1c0,0.3,0,0.7,0,1.4v5.1h-0.9v-5.1c0-0.6,0-1-0.1-1.3s-0.2-0.5-0.4-0.7s-0.4-0.3-0.6-0.3
	c-0.4,0-0.7,0.2-0.9,0.6c-0.3,0.4-0.4,1.1-0.4,2.2v4.6H290V530.5z"/>
<path class="st2" d="M297.3,529.3l0.1,1.3c-0.2,0.1-0.5,0.1-0.6,0.1c-0.3,0-0.5-0.1-0.7-0.2c-0.2-0.2-0.3-0.4-0.4-0.6
	c-0.1-0.3-0.1-0.8-0.1-1.7v-4.8H295v-1.1h0.6v-2.1l0.9-0.9v2.9h0.9v1.1h-0.9v4.9c0,0.4,0,0.7,0,0.8s0.1,0.2,0.1,0.3
	c0.1,0.1,0.2,0.1,0.3,0.1C297,529.3,297.1,529.3,297.3,529.3L297.3,529.3z"/>
<path class="st2" d="M301.6,527.8l0.9,0.2c-0.1,0.9-0.4,1.5-0.8,2c-0.4,0.5-0.9,0.7-1.4,0.7c-0.7,0-1.3-0.4-1.8-1.1
	c-0.4-0.8-0.6-1.8-0.6-3.2s0.2-2.5,0.7-3.3c0.4-0.8,1-1.2,1.7-1.2s1.2,0.4,1.7,1.1c0.4,0.8,0.6,1.8,0.6,3.2c0,0.1,0,0.2,0,0.4h-3.8
	c0,0.9,0.2,1.6,0.5,2.1s0.6,0.7,1.1,0.7c0.3,0,0.6-0.1,0.8-0.4C301.2,528.9,301.4,528.4,301.6,527.8L301.6,527.8z M298.8,525.6h2.8
	c0-0.7-0.1-1.2-0.3-1.6c-0.3-0.5-0.6-0.8-1.1-0.8c-0.4,0-0.7,0.2-1,0.7C298.9,524.2,298.8,524.8,298.8,525.6L298.8,525.6z"/>
<path class="st2" d="M309.5,530.5v-1.1c-0.3,0.8-0.8,1.2-1.4,1.2c-0.4,0-0.8-0.2-1.1-0.6c-0.3-0.4-0.6-0.9-0.8-1.5
	c-0.2-0.7-0.3-1.4-0.3-2.3c0-0.8,0.1-1.6,0.3-2.3s0.4-1.2,0.8-1.6c0.3-0.4,0.7-0.5,1.1-0.5c0.3,0,0.6,0.1,0.8,0.3s0.4,0.5,0.6,0.8
	v-4.1h0.8v11.6L309.5,530.5L309.5,530.5z M306.8,526.4c0,1.1,0.1,1.9,0.4,2.4c0.3,0.5,0.6,0.8,1,0.8s0.7-0.3,1-0.8s0.4-1.3,0.4-2.3
	c0-1.1-0.1-2-0.4-2.5c-0.3-0.5-0.6-0.8-1-0.8s-0.7,0.3-1,0.8C306.9,524.4,306.8,525.3,306.8,526.4L306.8,526.4z"/>
<path class="st2" d="M311.6,520.6V519h0.9v1.6H311.6L311.6,520.6z M311.6,530.5v-8.4h0.9v8.4H311.6L311.6,530.5z"/>
<path class="st2" d="M319.9,527.8l0.9,0.2c-0.1,0.9-0.4,1.5-0.8,2c-0.4,0.5-0.9,0.7-1.4,0.7c-0.7,0-1.3-0.4-1.8-1.1
	c-0.4-0.8-0.6-1.8-0.6-3.2s0.2-2.5,0.7-3.3c0.4-0.8,1-1.2,1.7-1.2s1.2,0.4,1.7,1.1c0.4,0.8,0.6,1.8,0.6,3.2c0,0.1,0,0.2,0,0.4h-3.8
	c0,0.9,0.2,1.6,0.5,2.1s0.6,0.7,1.1,0.7c0.3,0,0.6-0.1,0.8-0.4C319.6,528.9,319.8,528.4,319.9,527.8L319.9,527.8z M317.1,525.6h2.8
	c0-0.7-0.1-1.2-0.3-1.6c-0.3-0.5-0.6-0.8-1.1-0.8c-0.4,0-0.7,0.2-1,0.7C317.3,524.2,317.2,524.8,317.1,525.6L317.1,525.6z"/>
<path class="st2" d="M321.9,530.5v-8.4h0.8v1.2c0.2-0.4,0.4-0.7,0.6-1c0.3-0.3,0.6-0.4,0.9-0.4c0.4,0,0.7,0.1,0.9,0.4
	c0.2,0.3,0.4,0.6,0.5,1.1c0.4-1,0.9-1.5,1.6-1.5c0.5,0,0.9,0.2,1.2,0.7s0.4,1.2,0.4,2.1v5.7H328v-5.3c0-0.6,0-1-0.1-1.2
	s-0.2-0.5-0.3-0.6c-0.1-0.2-0.3-0.2-0.5-0.2c-0.4,0-0.6,0.2-0.9,0.6c-0.2,0.4-0.4,1-0.4,1.9v4.9h-0.9v-5.4c0-0.6-0.1-1.1-0.2-1.4
	c-0.1-0.3-0.4-0.5-0.7-0.5c-0.2,0-0.5,0.1-0.7,0.3s-0.4,0.5-0.4,0.9c-0.1,0.4-0.1,1-0.1,1.8v4.3L321.9,530.5L321.9,530.5z"/>
<path class="st2" d="M333.4,527.8l0.9,0.2c-0.1,0.9-0.4,1.5-0.8,2c-0.4,0.5-0.9,0.7-1.4,0.7c-0.7,0-1.3-0.4-1.8-1.1
	c-0.4-0.8-0.6-1.8-0.6-3.2s0.2-2.5,0.7-3.3c0.4-0.8,1-1.2,1.7-1.2s1.2,0.4,1.7,1.1c0.4,0.8,0.6,1.8,0.6,3.2c0,0.1,0,0.2,0,0.4h-3.8
	c0,0.9,0.2,1.6,0.5,2.1s0.6,0.7,1.1,0.7c0.3,0,0.6-0.1,0.8-0.4C333.1,528.9,333.3,528.4,333.4,527.8L333.4,527.8z M330.6,525.6h2.8
	c0-0.7-0.1-1.2-0.3-1.6c-0.3-0.5-0.6-0.8-1.1-0.8c-0.4,0-0.7,0.2-1,0.7C330.8,524.2,330.7,524.8,330.6,525.6L330.6,525.6z"/>
<path class="st2" d="M335.4,530.5v-8.4h0.8v1.3c0.2-0.6,0.4-1,0.5-1.2c0.2-0.2,0.3-0.3,0.5-0.3c0.3,0,0.6,0.2,0.9,0.5l-0.3,1.3
	c-0.2-0.2-0.4-0.3-0.6-0.3c-0.2,0-0.4,0.1-0.5,0.3s-0.3,0.4-0.3,0.8c-0.1,0.5-0.1,1.1-0.1,1.7v4.4L335.4,530.5L335.4,530.5z"/>
<path class="st2" d="M338.5,531.2l0.8,0.2c0,0.4,0.1,0.7,0.3,0.9c0.2,0.3,0.5,0.4,0.9,0.4s0.7-0.1,0.9-0.4c0.2-0.3,0.4-0.6,0.4-1.1
	c0-0.3,0.1-0.9,0.1-1.8c-0.4,0.7-0.8,1.1-1.4,1.1c-0.7,0-1.2-0.4-1.6-1.2c-0.4-0.8-0.6-1.8-0.6-3c0-0.8,0.1-1.5,0.3-2.2
	s0.4-1.2,0.8-1.6c0.3-0.4,0.7-0.5,1.2-0.5c0.6,0,1.1,0.4,1.5,1.2v-1h0.8v7.2c0,1.3-0.1,2.2-0.2,2.8c-0.2,0.5-0.4,1-0.8,1.3
	c-0.3,0.3-0.8,0.5-1.3,0.5c-0.6,0-1.1-0.2-1.5-0.7C338.6,532.8,338.5,532.1,338.5,531.2L338.5,531.2z M339.2,526.2
	c0,1.1,0.1,1.9,0.4,2.4c0.3,0.5,0.6,0.8,1,0.8s0.7-0.3,1-0.8s0.4-1.3,0.4-2.4c0-1-0.1-1.8-0.4-2.3c-0.3-0.5-0.6-0.8-1-0.8
	s-0.7,0.3-1,0.8C339.3,524.4,339.2,525.2,339.2,526.2L339.2,526.2z"/>
<path class="st2" d="M347.5,527.8l0.9,0.2c-0.1,0.9-0.4,1.5-0.8,2c-0.4,0.5-0.9,0.7-1.4,0.7c-0.7,0-1.3-0.4-1.8-1.1
	c-0.4-0.8-0.6-1.8-0.6-3.2s0.2-2.5,0.7-3.3c0.4-0.8,1-1.2,1.7-1.2s1.2,0.4,1.7,1.1c0.4,0.8,0.6,1.8,0.6,3.2c0,0.1,0,0.2,0,0.4h-3.8
	c0,0.9,0.2,1.6,0.5,2.1s0.6,0.7,1.1,0.7c0.3,0,0.6-0.1,0.8-0.4C347.2,528.9,347.3,528.4,347.5,527.8L347.5,527.8z M344.7,525.6h2.8
	c0-0.7-0.1-1.2-0.3-1.6c-0.3-0.5-0.6-0.8-1.1-0.8c-0.4,0-0.7,0.2-1,0.7C344.9,524.2,344.7,524.8,344.7,525.6L344.7,525.6z"/>
<path class="st2" d="M349.4,530.5v-8.4h0.8v1.2c0.4-0.9,0.9-1.4,1.6-1.4c0.3,0,0.6,0.1,0.8,0.3c0.3,0.2,0.4,0.4,0.6,0.7
	c0.1,0.3,0.2,0.6,0.3,1c0,0.3,0,0.7,0,1.4v5.1h-0.9v-5.1c0-0.6,0-1-0.1-1.3s-0.2-0.5-0.4-0.7s-0.4-0.3-0.6-0.3
	c-0.4,0-0.7,0.2-0.9,0.6c-0.3,0.4-0.4,1.1-0.4,2.2v4.6h-0.8L349.4,530.5L349.4,530.5z"/>
<path class="st2" d="M354.4,530.5v-1.2l3.2-6.1c-0.4,0-0.7,0-1,0h-2.1v-1.1h4.1v0.9l-2.7,5.3l-0.5,1c0.4,0,0.7-0.1,1.1-0.1h2.3v1.2
	L354.4,530.5L354.4,530.5z"/>
<path class="st2" d="M363,529.5c-0.3,0.4-0.6,0.8-0.9,0.9c-0.3,0.2-0.6,0.3-0.9,0.3c-0.6,0-1-0.2-1.3-0.7c-0.3-0.4-0.4-1-0.4-1.7
	c0-0.4,0.1-0.8,0.2-1.1c0.1-0.3,0.3-0.6,0.4-0.8c0.2-0.2,0.4-0.4,0.6-0.5c0.2-0.1,0.4-0.1,0.8-0.2c0.7-0.1,1.2-0.3,1.5-0.5
	c0-0.2,0-0.3,0-0.4c0-0.6-0.1-1-0.2-1.2c-0.2-0.3-0.5-0.5-1-0.5c-0.4,0-0.7,0.1-0.9,0.3s-0.3,0.6-0.4,1.2l-0.8-0.2
	c0.1-0.6,0.2-1.1,0.4-1.4c0.2-0.4,0.4-0.6,0.8-0.8c0.3-0.2,0.7-0.3,1.1-0.3c0.4,0,0.8,0.1,1,0.3c0.3,0.2,0.5,0.4,0.6,0.6
	c0.1,0.3,0.2,0.6,0.3,1c0,0.2,0,0.7,0,1.3v1.9c0,1.3,0,2.2,0.1,2.5c0,0.3,0.1,0.7,0.2,1h-0.9C363.1,530.3,363,529.9,363,529.5
	L363,529.5z M362.9,526.3c-0.3,0.2-0.8,0.4-1.4,0.5c-0.4,0.1-0.6,0.2-0.7,0.3c-0.1,0.1-0.3,0.3-0.3,0.5c-0.1,0.2-0.1,0.4-0.1,0.7
	c0,0.4,0.1,0.7,0.3,0.9c0.2,0.3,0.4,0.4,0.8,0.4c0.3,0,0.6-0.1,0.9-0.4c0.3-0.2,0.4-0.6,0.6-1c0.1-0.3,0.1-0.8,0.1-1.4v-0.5H362.9z"
	/>
<path class="st2" d="M365.7,533.9h-0.6c0.9-2.5,1.4-5,1.4-7.6c0-1-0.1-2-0.2-2.9c-0.1-0.8-0.3-1.5-0.5-2.3c-0.1-0.5-0.4-1.3-0.8-2.4
	h0.6c0.6,1.3,1,2.6,1.3,4c0.2,1.1,0.4,2.3,0.4,3.6c0,1.4-0.2,2.8-0.5,4.1C366.5,531.8,366.1,533,365.7,533.9L365.7,533.9z"/>
<polygon class="st2" points="200.4,567.2 200.4,565.8 203,565.8 203,567.2 "/>
<path class="st2" d="M208.7,570.7l-2.7-11.6h1l1.8,8.4c0.1,0.7,0.3,1.3,0.4,1.9c0.1-0.6,0.2-1.3,0.4-1.9l1.9-8.4h0.9l-2.7,11.6
	H208.7L208.7,570.7z"/>
<polygon class="st2" points="213.2,570.7 213.2,559.1 218.3,559.1 218.3,560.5 214.2,560.5 214.2,564 218,564 218,565.4 
	214.2,565.4 214.2,569.3 218.4,569.3 218.4,570.7 "/>
<polygon class="st2" points="219.9,570.7 219.9,559.1 220.8,559.1 220.8,570.7 "/>
<path class="st2" d="M227.4,566.6l0.9,0.4c-0.2,1.3-0.5,2.2-1,2.9s-1.1,1-1.8,1c-0.8,0-1.4-0.3-1.8-0.8c-0.5-0.5-0.8-1.2-1.1-2.2
	c-0.2-1-0.4-2-0.4-3.1c0-1.2,0.1-2.3,0.4-3.1c0.3-0.9,0.7-1.6,1.2-2c0.5-0.5,1.1-0.7,1.7-0.7c0.7,0,1.3,0.3,1.8,0.9
	c0.5,0.6,0.8,1.4,1,2.5l-0.9,0.4c-0.2-0.8-0.4-1.5-0.7-1.8c-0.3-0.4-0.7-0.6-1.2-0.6s-1,0.2-1.3,0.6c-0.4,0.4-0.6,1-0.8,1.7
	c-0.1,0.7-0.2,1.5-0.2,2.2c0,1,0.1,1.8,0.3,2.6c0.2,0.7,0.4,1.3,0.8,1.6c0.4,0.4,0.8,0.5,1.2,0.5c0.5,0,1-0.2,1.3-0.7
	C227,568.4,227.3,567.6,227.4,566.6L227.4,566.6z"/>
<path class="st2" d="M229.2,565.1c0-1.9,0.3-3.4,0.9-4.5s1.4-1.6,2.4-1.6c0.6,0,1.2,0.3,1.7,0.8s0.9,1.2,1.2,2.1s0.4,1.9,0.4,3.1
	c0,1.2-0.1,2.2-0.4,3.1c-0.3,0.9-0.7,1.6-1.2,2.1s-1.1,0.7-1.7,0.7c-0.7,0-1.2-0.3-1.8-0.8c-0.5-0.5-0.9-1.2-1.2-2.2
	C229.3,567,229.2,566.1,229.2,565.1L229.2,565.1z M230.1,565.1c0,1.4,0.2,2.5,0.7,3.3s1,1.2,1.7,1.2s1.3-0.4,1.7-1.2
	c0.4-0.8,0.7-2,0.7-3.4c0-0.9-0.1-1.8-0.3-2.5c-0.2-0.7-0.5-1.2-0.8-1.6c-0.4-0.4-0.8-0.6-1.2-0.6c-0.7,0-1.2,0.4-1.7,1.1
	C230.3,562.1,230.1,563.4,230.1,565.1L230.1,565.1z"/>
<polygon class="st2" points="237,570.7 237,559.1 237.9,559.1 237.9,569.3 241.3,569.3 241.3,570.7 "/>
<polygon class="st2" points="242.6,570.7 242.6,559.1 243.5,559.1 243.5,570.7 "/>
<path class="st2" d="M247.8,570.7v-11.6h1.4l1.6,8.2c0.2,0.8,0.3,1.3,0.3,1.7c0.1-0.4,0.2-1,0.4-1.9l1.7-8h1.2v11.6h-0.9V561l-2,9.7
	h-0.8l-2-9.8v9.8H247.8L247.8,570.7z"/>
<polygon class="st2" points="255.9,570.7 255.9,559.1 261,559.1 261,560.5 256.8,560.5 256.8,564 260.7,564 260.7,565.4 
	256.8,565.4 256.8,569.3 261.1,569.3 261.1,570.7 "/>
<path class="st2" d="M262.4,570.7v-11.6h3.1c0.6,0,1.1,0.1,1.4,0.3s0.6,0.6,0.8,1.1c0.2,0.5,0.3,1.1,0.3,1.7c0,0.8-0.2,1.5-0.5,2.1
	s-0.8,0.9-1.5,1.1c0.2,0.2,0.4,0.4,0.6,0.6c0.3,0.4,0.5,0.9,0.8,1.5l1.2,3.1h-1.2l-0.9-2.4c-0.3-0.7-0.5-1.2-0.7-1.6
	c-0.2-0.4-0.3-0.6-0.5-0.8c-0.1-0.1-0.3-0.3-0.4-0.3s-0.3-0.1-0.5-0.1h-1.1v5.1h-0.9L262.4,570.7L262.4,570.7z M263.3,564.2h2
	c0.4,0,0.8-0.1,1-0.2c0.2-0.1,0.4-0.4,0.5-0.7s0.2-0.7,0.2-1c0-0.5-0.1-1-0.4-1.3c-0.2-0.4-0.6-0.5-1.1-0.5h-2.2V564.2L263.3,564.2z
	"/>
<path class="st2" d="M274.4,566.6l0.9,0.4c-0.2,1.3-0.5,2.2-1,2.9s-1.1,1-1.8,1c-0.8,0-1.4-0.3-1.8-0.8c-0.5-0.5-0.8-1.2-1.1-2.2
	c-0.2-1-0.4-2-0.4-3.1c0-1.2,0.1-2.3,0.4-3.1c0.3-0.9,0.7-1.6,1.2-2c0.5-0.5,1.1-0.7,1.7-0.7c0.7,0,1.3,0.3,1.8,0.9
	c0.5,0.6,0.8,1.4,1,2.5l-0.9,0.4c-0.2-0.8-0.4-1.5-0.7-1.8c-0.3-0.4-0.7-0.6-1.2-0.6s-1,0.2-1.3,0.6c-0.4,0.4-0.6,1-0.8,1.7
	c-0.1,0.7-0.2,1.5-0.2,2.2c0,1,0.1,1.8,0.3,2.6c0.2,0.7,0.4,1.3,0.8,1.6c0.4,0.4,0.8,0.5,1.2,0.5c0.5,0,1-0.2,1.3-0.7
	C274,568.4,274.2,567.6,274.4,566.6L274.4,566.6z"/>
<polygon class="st2" points="276.6,570.7 276.6,559.1 277.5,559.1 277.5,570.7 "/>
<path class="st2" d="M281.1,570.7l2.7-11.6h1l2.8,11.6h-1.1l-0.8-3.5h-2.9l-0.8,3.5H281.1L281.1,570.7z M283.1,566h2.4l-0.7-3.2
	c-0.2-1-0.4-1.8-0.5-2.4c-0.1,0.7-0.2,1.5-0.4,2.2L283.1,566L283.1,566z"/>
<path class="st2" d="M292.9,559.1h0.9v6.7c0,1.2-0.1,2.1-0.2,2.8c-0.2,0.7-0.4,1.2-0.9,1.7c-0.4,0.4-1,0.6-1.6,0.6
	c-0.7,0-1.2-0.2-1.6-0.6c-0.4-0.4-0.7-0.9-0.9-1.6c-0.2-0.7-0.3-1.7-0.3-2.9v-6.7h0.9v6.7c0,1,0.1,1.7,0.2,2.2
	c0.1,0.5,0.3,0.8,0.6,1.1s0.6,0.4,1,0.4c0.7,0,1.2-0.3,1.4-0.8c0.3-0.5,0.4-1.5,0.4-2.9L292.9,559.1L292.9,559.1z"/>
<polygon class="st2" points="297.1,570.7 297.1,560.5 294.8,560.5 294.8,559.1 300.3,559.1 300.3,560.5 298,560.5 298,570.7 "/>
<path class="st2" d="M300.8,565.1c0-1.9,0.3-3.4,0.9-4.5c0.6-1.1,1.4-1.6,2.4-1.6c0.6,0,1.2,0.3,1.7,0.8s0.9,1.2,1.2,2.1
	c0.3,0.9,0.4,1.9,0.4,3.1c0,1.2-0.1,2.2-0.4,3.1c-0.3,0.9-0.7,1.6-1.2,2.1s-1.1,0.7-1.7,0.7c-0.7,0-1.2-0.3-1.8-0.8
	c-0.5-0.5-0.9-1.2-1.2-2.2C301,567,300.8,566.1,300.8,565.1L300.8,565.1z M301.8,565.1c0,1.4,0.2,2.5,0.7,3.3s1,1.2,1.7,1.2
	s1.3-0.4,1.7-1.2s0.7-2,0.7-3.4c0-0.9-0.1-1.8-0.3-2.5s-0.5-1.2-0.8-1.6c-0.4-0.4-0.8-0.6-1.2-0.6c-0.7,0-1.2,0.4-1.7,1.1
	C302,562.1,301.8,563.4,301.8,565.1L301.8,565.1z"/>
<path class="st2" d="M308.7,570.7v-11.6h3.1c0.6,0,1.1,0.1,1.4,0.3c0.3,0.2,0.6,0.6,0.8,1.1s0.3,1.1,0.3,1.7c0,0.8-0.2,1.5-0.5,2.1
	s-0.8,0.9-1.5,1.1c0.2,0.2,0.4,0.4,0.6,0.6c0.3,0.4,0.5,0.9,0.8,1.5l1.2,3.1h-1.2l-0.9-2.4c-0.3-0.7-0.5-1.2-0.7-1.6
	c-0.2-0.4-0.3-0.6-0.5-0.8c-0.1-0.1-0.3-0.3-0.4-0.3c-0.1,0-0.3-0.1-0.5-0.1h-1.1v5.1h-0.9L308.7,570.7L308.7,570.7z M309.6,564.2h2
	c0.4,0,0.8-0.1,1-0.2c0.2-0.1,0.4-0.4,0.5-0.7s0.2-0.7,0.2-1c0-0.5-0.1-1-0.4-1.3c-0.2-0.4-0.6-0.5-1.1-0.5h-2.2V564.2L309.6,564.2z
	"/>
<polygon class="st2" points="315.8,570.7 315.8,559.1 316.8,559.1 316.8,570.7 "/>
<path class="st2" d="M317.8,570.7v-1.4l3.6-7.4c0.3-0.5,0.5-1,0.7-1.4h-3.9v-1.4h5v1.4l-3.9,8l-0.4,0.8h4.4v1.4L317.8,570.7
	L317.8,570.7z"/>
<path class="st2" d="M323.8,570.7v-1.4l3.6-7.4c0.3-0.5,0.5-1,0.7-1.4h-3.9v-1.4h5v1.4l-3.9,8l-0.4,0.8h4.4v1.4L323.8,570.7
	L323.8,570.7z"/>
<path class="st2" d="M329.5,570.7l2.7-11.6h1l2.8,11.6h-1l-0.8-3.5h-2.9l-0.8,3.5H329.5L329.5,570.7z M331.5,566h2.4l-0.7-3.2
	c-0.2-1-0.4-1.8-0.5-2.4c-0.1,0.7-0.2,1.5-0.4,2.2L331.5,566L331.5,566z"/>
<polygon class="st2" points="337.8,570.7 337.8,560.5 335.5,560.5 335.5,559.1 341,559.1 341,560.5 338.7,560.5 338.7,570.7 "/>
<polygon class="st2" points="342.1,570.7 342.1,559.1 343,559.1 343,570.7 "/>
<path class="st2" d="M200.4,584.5c0-1.5,0.3-2.7,0.8-3.4c0.4-0.6,1-0.9,1.6-0.9c0.7,0,1.3,0.4,1.7,1.1c0.4,0.8,0.7,1.8,0.7,3.1
	c0,1.1-0.1,1.9-0.3,2.5c-0.2,0.6-0.5,1.1-0.8,1.4c-0.4,0.3-0.8,0.5-1.2,0.5c-0.7,0-1.3-0.4-1.7-1.1C200.6,587,200.4,586,200.4,584.5
	L200.4,584.5z M201.3,584.5c0,1.1,0.1,1.9,0.4,2.4s0.6,0.8,1.1,0.8c0.4,0,0.8-0.3,1.1-0.8c0.3-0.5,0.4-1.4,0.4-2.5
	c0-1-0.1-1.8-0.4-2.4c-0.3-0.5-0.6-0.8-1.1-0.8c-0.4,0-0.8,0.3-1.1,0.8C201.4,582.7,201.3,583.5,201.3,584.5L201.3,584.5z"/>
<path class="st2" d="M206.1,588.7v-8.4h0.8v1.3c0.2-0.6,0.4-1,0.5-1.2c0.2-0.2,0.3-0.3,0.5-0.3c0.3,0,0.6,0.2,0.9,0.5l-0.3,1.3
	c-0.2-0.2-0.4-0.3-0.6-0.3s-0.4,0.1-0.5,0.3s-0.3,0.4-0.3,0.8c-0.1,0.5-0.1,1.1-0.1,1.7v4.4L206.1,588.7L206.1,588.7z"/>
<path class="st2" d="M212.6,587.7c-0.3,0.4-0.6,0.8-0.9,0.9c-0.3,0.2-0.6,0.3-0.9,0.3c-0.6,0-1-0.2-1.3-0.7c-0.3-0.4-0.4-1-0.4-1.7
	c0-0.4,0.1-0.8,0.2-1.1s0.3-0.6,0.4-0.8c0.2-0.2,0.4-0.4,0.6-0.5s0.4-0.1,0.8-0.2c0.7-0.1,1.2-0.3,1.5-0.5c0-0.2,0-0.3,0-0.4
	c0-0.6-0.1-1-0.2-1.2c-0.2-0.3-0.5-0.5-1-0.5c-0.4,0-0.7,0.1-0.9,0.3c-0.2,0.2-0.3,0.6-0.4,1.2l-0.8-0.2c0.1-0.6,0.2-1.1,0.4-1.4
	c0.2-0.4,0.4-0.6,0.8-0.8c0.3-0.2,0.7-0.3,1.1-0.3s0.8,0.1,1,0.3c0.3,0.2,0.5,0.4,0.6,0.6c0.1,0.3,0.2,0.6,0.3,1c0,0.2,0,0.7,0,1.3
	v1.9c0,1.3,0,2.2,0.1,2.5c0,0.3,0.1,0.7,0.2,1h-0.9C212.7,588.4,212.7,588.1,212.6,587.7L212.6,587.7z M212.6,584.5
	c-0.3,0.2-0.8,0.4-1.4,0.5c-0.4,0.1-0.6,0.2-0.7,0.3s-0.3,0.3-0.3,0.5c-0.1,0.2-0.1,0.4-0.1,0.7c0,0.4,0.1,0.7,0.3,0.9
	c0.2,0.3,0.4,0.4,0.8,0.4c0.3,0,0.6-0.1,0.9-0.4c0.3-0.2,0.4-0.6,0.6-1c0.1-0.3,0.1-0.8,0.1-1.4v-0.5H212.6z"/>
<path class="st2" d="M214.7,588.7v-8.4h0.8v1.3c0.2-0.6,0.4-1,0.5-1.2c0.2-0.2,0.3-0.3,0.5-0.3c0.3,0,0.6,0.2,0.9,0.5l-0.3,1.3
	c-0.2-0.2-0.4-0.3-0.6-0.3s-0.4,0.1-0.5,0.3s-0.3,0.4-0.3,0.8c-0.1,0.5-0.1,1.1-0.1,1.7v4.4L214.7,588.7L214.7,588.7z"/>
<path class="st2" d="M218,578.8v-1.6h0.9v1.6H218L218,578.8z M218,588.7v-8.4h0.9v8.4H218L218,588.7z"/>
<path class="st2" d="M219.8,584.5c0-1.5,0.3-2.7,0.8-3.4c0.4-0.6,1-0.9,1.6-0.9c0.7,0,1.3,0.4,1.7,1.1c0.4,0.8,0.7,1.8,0.7,3.1
	c0,1.1-0.1,1.9-0.3,2.5c-0.2,0.6-0.5,1.1-0.8,1.4c-0.4,0.3-0.8,0.5-1.2,0.5c-0.7,0-1.3-0.4-1.7-1.1C220,587,219.8,586,219.8,584.5
	L219.8,584.5z M220.7,584.5c0,1.1,0.1,1.9,0.4,2.4s0.6,0.8,1.1,0.8c0.4,0,0.8-0.3,1.1-0.8c0.3-0.5,0.4-1.4,0.4-2.5
	c0-1-0.1-1.8-0.4-2.4c-0.3-0.5-0.6-0.8-1.1-0.8c-0.4,0-0.8,0.3-1.1,0.8C220.8,582.7,220.7,583.5,220.7,584.5L220.7,584.5z"/>
<path class="st2" d="M239.3,588.7h-0.9v-9c-0.2,0.3-0.5,0.7-0.8,1s-0.6,0.6-0.9,0.7V580c0.5-0.4,0.9-0.8,1.3-1.4
	c0.4-0.5,0.6-1,0.8-1.5h0.5V588.7L239.3,588.7z"/>
<path class="st2" d="M244.3,588.7v-2.8h-3v-1.2l3.2-7.5h0.7v7.5h0.9v1.3h-0.9v2.8L244.3,588.7L244.3,588.7z M244.3,584.7v-5.2
	l-2.2,5.2H244.3L244.3,584.7z"/>
<path class="st2" d="M247.4,588.7v-1.6h1v1.6c0,0.6-0.1,1.1-0.2,1.4c-0.1,0.4-0.3,0.6-0.6,0.8l-0.2-0.6c0.2-0.1,0.3-0.3,0.4-0.6
	s0.1-0.6,0.1-1.1L247.4,588.7L247.4,588.7z"/>
<path class="st2" d="M249.6,583c0-1.4,0.1-2.5,0.3-3.3c0.2-0.8,0.4-1.5,0.8-1.9c0.3-0.5,0.8-0.7,1.3-0.7c0.4,0,0.7,0.1,1,0.4
	c0.3,0.2,0.5,0.6,0.7,1.1s0.3,1,0.4,1.7s0.2,1.6,0.2,2.7c0,1.4-0.1,2.4-0.3,3.3c-0.2,0.8-0.4,1.5-0.8,1.9c-0.3,0.5-0.8,0.7-1.3,0.7
	c-0.7,0-1.2-0.4-1.6-1.2C249.9,586.8,249.6,585.2,249.6,583L249.6,583z M250.5,583c0,1.9,0.1,3.2,0.4,3.8s0.6,0.9,1,0.9
	s0.7-0.3,1-0.9c0.3-0.6,0.4-1.9,0.4-3.8c0-1.9-0.1-3.2-0.4-3.8s-0.6-0.9-1-0.9s-0.7,0.3-0.9,0.8C250.7,579.8,250.5,581.1,250.5,583
	L250.5,583z"/>
<path class="st2" d="M255,583c0-1.4,0.1-2.5,0.3-3.3c0.2-0.8,0.4-1.5,0.8-1.9c0.3-0.5,0.8-0.7,1.3-0.7c0.4,0,0.7,0.1,1,0.4
	c0.3,0.2,0.5,0.6,0.7,1.1s0.3,1,0.4,1.7s0.2,1.6,0.2,2.7c0,1.4-0.1,2.4-0.3,3.3c-0.2,0.8-0.4,1.5-0.8,1.9c-0.3,0.5-0.8,0.7-1.3,0.7
	c-0.7,0-1.2-0.4-1.6-1.2C255.3,586.8,255,585.2,255,583L255,583z M255.9,583c0,1.9,0.1,3.2,0.4,3.8s0.6,0.9,1,0.9s0.7-0.3,1-0.9
	c0.3-0.6,0.4-1.9,0.4-3.8c0-1.9-0.1-3.2-0.4-3.8s-0.6-0.9-1-0.9s-0.7,0.3-0.9,0.8C256.1,579.8,255.9,581.1,255.9,583L255.9,583z"/>
<polygon class="st2" points="263,585.3 263,583.8 265.7,583.8 265.7,585.3 "/>
<path class="st2" d="M272.3,588.7h-0.9v-9c-0.2,0.3-0.5,0.7-0.8,1s-0.6,0.6-0.9,0.7V580c0.5-0.4,0.9-0.8,1.3-1.4
	c0.4-0.5,0.6-1,0.8-1.5h0.5V588.7L272.3,588.7z"/>
<path class="st2" d="M278.9,580l-0.8,0.1c-0.1-0.6-0.2-1-0.3-1.2c-0.2-0.4-0.5-0.6-0.9-0.6c-0.3,0-0.5,0.1-0.7,0.4
	c-0.3,0.3-0.5,0.8-0.6,1.4c-0.2,0.6-0.2,1.5-0.2,2.7c0.2-0.5,0.5-0.9,0.8-1.2s0.6-0.4,0.9-0.4c0.6,0,1.1,0.3,1.5,1s0.6,1.6,0.6,2.7
	c0,0.7-0.1,1.4-0.3,2c-0.2,0.6-0.4,1.1-0.8,1.4c-0.3,0.3-0.7,0.5-1.1,0.5c-0.7,0-1.3-0.4-1.7-1.3c-0.5-0.9-0.7-2.3-0.7-4.3
	c0-2.2,0.2-3.9,0.7-4.9c0.4-0.9,1-1.3,1.8-1.3c0.5,0,1,0.3,1.3,0.8C278.6,578.4,278.9,579.1,278.9,580L278.9,580z M275.4,585
	c0,0.5,0.1,1,0.2,1.4s0.3,0.8,0.5,1s0.5,0.4,0.7,0.4c0.4,0,0.7-0.2,0.9-0.7c0.3-0.5,0.4-1.1,0.4-2c0-0.8-0.1-1.4-0.4-1.9
	s-0.6-0.7-1-0.7s-0.7,0.2-1,0.7C275.6,583.6,275.4,584.2,275.4,585L275.4,585z"/>
<path class="st2" d="M280.4,588.7v-1.6h1v1.6c0,0.6-0.1,1.1-0.2,1.4c-0.1,0.4-0.3,0.6-0.6,0.8l-0.2-0.6c0.2-0.1,0.3-0.3,0.4-0.6
	s0.1-0.6,0.1-1.1L280.4,588.7L280.4,588.7z"/>
<path class="st2" d="M282.6,583c0-1.4,0.1-2.5,0.3-3.3s0.4-1.5,0.8-1.9c0.3-0.5,0.8-0.7,1.3-0.7c0.4,0,0.7,0.1,1,0.4
	c0.3,0.2,0.5,0.6,0.7,1.1s0.3,1,0.4,1.7c0.1,0.7,0.2,1.6,0.2,2.7c0,1.4-0.1,2.4-0.3,3.3c-0.2,0.8-0.4,1.5-0.8,1.9
	c-0.3,0.5-0.8,0.7-1.3,0.7c-0.7,0-1.2-0.4-1.6-1.2C282.8,586.8,282.6,585.2,282.6,583L282.6,583z M283.5,583c0,1.9,0.1,3.2,0.4,3.8
	c0.3,0.6,0.6,0.9,1,0.9s0.7-0.3,1-0.9c0.3-0.6,0.4-1.9,0.4-3.8c0-1.9-0.1-3.2-0.4-3.8c-0.3-0.6-0.6-0.9-1-0.9s-0.7,0.3-0.9,0.8
	C283.6,579.8,283.5,581.1,283.5,583L283.5,583z"/>
<path class="st2" d="M288,583c0-1.4,0.1-2.5,0.3-3.3s0.4-1.5,0.8-1.9c0.3-0.5,0.8-0.7,1.3-0.7c0.4,0,0.7,0.1,1,0.4
	c0.3,0.2,0.5,0.6,0.7,1.1s0.3,1,0.4,1.7c0.1,0.7,0.2,1.6,0.2,2.7c0,1.4-0.1,2.4-0.3,3.3c-0.2,0.8-0.4,1.5-0.8,1.9
	c-0.3,0.5-0.8,0.7-1.3,0.7c-0.7,0-1.2-0.4-1.6-1.2C288.2,586.8,288,585.2,288,583L288,583z M288.9,583c0,1.9,0.1,3.2,0.4,3.8
	c0.3,0.6,0.6,0.9,1,0.9s0.7-0.3,1-0.9c0.3-0.6,0.4-1.9,0.4-3.8c0-1.9-0.1-3.2-0.4-3.8c-0.3-0.6-0.6-0.9-1-0.9s-0.7,0.3-0.9,0.8
	C289,579.8,288.9,581.1,288.9,583L288.9,583z"/>
<path class="st2" d="M242.8,605.4v1.4h-4.6c0-0.3,0-0.7,0.1-1c0.1-0.5,0.3-1,0.6-1.5c0.3-0.5,0.6-1.1,1.1-1.7c0.8-1,1.3-1.8,1.5-2.4
	c0.3-0.6,0.4-1.2,0.4-1.7c0-0.6-0.1-1-0.4-1.4c-0.2-0.4-0.6-0.6-0.9-0.6c-0.4,0-0.7,0.2-1,0.6c-0.2,0.4-0.4,1-0.4,1.7l-0.9-0.1
	c0.1-1.1,0.3-1.9,0.7-2.5c0.4-0.6,0.9-0.9,1.6-0.9s1.2,0.3,1.6,0.9c0.4,0.6,0.6,1.4,0.6,2.3c0,0.5-0.1,0.9-0.2,1.4
	c-0.1,0.4-0.3,0.9-0.6,1.4c-0.3,0.5-0.7,1.2-1.3,2c-0.5,0.7-0.8,1.2-1,1.5c-0.1,0.3-0.3,0.5-0.4,0.8h3.5L242.8,605.4L242.8,605.4z"
	/>
<path class="st2" d="M246.4,606.8V604h-3v-1.3l3.2-7.5h0.7v7.5h0.9v1.3h-0.9v2.8H246.4L246.4,606.8z M246.4,602.7v-5.2l-2.2,5.2
	H246.4L246.4,602.7z"/>
<path class="st2" d="M249.6,606.8v-1.6h1v1.6c0,0.6-0.1,1.1-0.2,1.4c-0.1,0.4-0.3,0.6-0.6,0.8l-0.2-0.6c0.2-0.1,0.3-0.3,0.4-0.6
	s0.1-0.6,0.1-1.1L249.6,606.8L249.6,606.8z"/>
<path class="st2" d="M251.8,601.1c0-1.4,0.1-2.5,0.3-3.3c0.2-0.8,0.4-1.5,0.8-1.9c0.3-0.5,0.8-0.7,1.3-0.7c0.4,0,0.7,0.1,1,0.4
	c0.3,0.2,0.5,0.6,0.7,1.1s0.3,1,0.4,1.7s0.2,1.6,0.2,2.7c0,1.4-0.1,2.4-0.3,3.3c-0.2,0.8-0.4,1.5-0.8,1.9c-0.3,0.5-0.8,0.7-1.3,0.7
	c-0.7,0-1.2-0.4-1.6-1.2C252,604.8,251.8,603.2,251.8,601.1L251.8,601.1z M252.7,601.1c0,1.9,0.1,3.2,0.4,3.8s0.6,0.9,1,0.9
	s0.7-0.3,1-0.9c0.3-0.6,0.4-1.9,0.4-3.8c0-1.9-0.1-3.2-0.4-3.8s-0.6-0.9-1-0.9s-0.7,0.3-0.9,0.8
	C252.8,597.9,252.7,599.2,252.7,601.1L252.7,601.1z"/>
<path class="st2" d="M257.2,601.1c0-1.4,0.1-2.5,0.3-3.3c0.2-0.8,0.4-1.5,0.8-1.9c0.3-0.5,0.8-0.7,1.3-0.7c0.4,0,0.7,0.1,1,0.4
	c0.3,0.2,0.5,0.6,0.7,1.1s0.3,1,0.4,1.7s0.2,1.6,0.2,2.7c0,1.4-0.1,2.4-0.3,3.3c-0.2,0.8-0.4,1.5-0.8,1.9c-0.3,0.5-0.8,0.7-1.3,0.7
	c-0.7,0-1.2-0.4-1.6-1.2C257.4,604.8,257.2,603.2,257.2,601.1L257.2,601.1z M258.1,601.1c0,1.9,0.1,3.2,0.4,3.8s0.6,0.9,1,0.9
	s0.7-0.3,1-0.9c0.3-0.6,0.4-1.9,0.4-3.8c0-1.9-0.1-3.2-0.4-3.8s-0.6-0.9-1-0.9s-0.7,0.3-0.9,0.8
	C258.2,597.9,258.1,599.2,258.1,601.1L258.1,601.1z"/>
<polygon class="st2" points="265.2,603.3 265.2,601.9 267.9,601.9 267.9,603.3 "/>
<path class="st2" d="M271.3,601.1c0-1.4,0.1-2.5,0.3-3.3c0.2-0.8,0.4-1.5,0.8-1.9c0.3-0.5,0.8-0.7,1.3-0.7c0.4,0,0.7,0.1,1,0.4
	c0.3,0.2,0.5,0.6,0.7,1.1s0.3,1,0.4,1.7s0.2,1.6,0.2,2.7c0,1.4-0.1,2.4-0.3,3.3c-0.2,0.8-0.4,1.5-0.8,1.9c-0.3,0.5-0.8,0.7-1.3,0.7
	c-0.7,0-1.2-0.4-1.6-1.2C271.5,604.8,271.3,603.2,271.3,601.1L271.3,601.1z M272.1,601.1c0,1.9,0.1,3.2,0.4,3.8s0.6,0.9,1,0.9
	s0.7-0.3,1-0.9c0.3-0.6,0.4-1.9,0.4-3.8c0-1.9-0.1-3.2-0.4-3.8s-0.6-0.9-1-0.9s-0.7,0.3-0.9,0.8
	C272.3,597.9,272.1,599.2,272.1,601.1L272.1,601.1z"/>
<path class="st2" d="M276.8,604.1l0.8-0.1c0.1,0.6,0.2,1.1,0.4,1.4c0.2,0.3,0.4,0.4,0.8,0.4c0.3,0,0.5-0.1,0.7-0.3s0.4-0.5,0.5-0.8
	s0.2-0.8,0.3-1.4c0.1-0.6,0.1-1.1,0.1-1.7c0-0.1,0-0.2,0-0.3c-0.2,0.4-0.4,0.8-0.7,1.1c-0.3,0.3-0.6,0.4-1,0.4c-0.6,0-1.1-0.3-1.5-1
	s-0.6-1.6-0.6-2.7c0-1.2,0.2-2.1,0.6-2.8s0.9-1.1,1.6-1.1c0.5,0,0.9,0.2,1.2,0.6c0.4,0.4,0.7,1,0.9,1.7c0.2,0.7,0.3,1.8,0.3,3.3
	s-0.1,2.7-0.3,3.5c-0.2,0.9-0.5,1.5-0.9,2s-0.8,0.7-1.3,0.7s-1-0.3-1.3-0.8C277.1,605.7,276.9,605,276.8,604.1L276.8,604.1z
	 M280.3,599c0-0.8-0.1-1.5-0.4-1.9c-0.3-0.5-0.6-0.7-0.9-0.7c-0.4,0-0.7,0.3-1,0.8s-0.4,1.2-0.4,2c0,0.7,0.1,1.3,0.4,1.8
	s0.6,0.7,1,0.7s0.7-0.2,1-0.7C280.2,600.4,280.3,599.8,280.3,599L280.3,599z"/>
<path class="st2" d="M282.5,606.8v-1.6h1v1.6c0,0.6-0.1,1.1-0.2,1.4c-0.1,0.4-0.3,0.6-0.6,0.8l-0.2-0.6c0.2-0.1,0.3-0.3,0.4-0.6
	c0.1-0.3,0.1-0.6,0.1-1.1L282.5,606.8L282.5,606.8z"/>
<path class="st2" d="M284.8,601.1c0-1.4,0.1-2.5,0.3-3.3s0.4-1.5,0.8-1.9c0.3-0.5,0.8-0.7,1.3-0.7c0.4,0,0.7,0.1,1,0.4
	c0.3,0.2,0.5,0.6,0.7,1.1s0.3,1,0.4,1.7c0.1,0.7,0.2,1.6,0.2,2.7c0,1.4-0.1,2.4-0.3,3.3c-0.2,0.8-0.4,1.5-0.8,1.9
	c-0.3,0.5-0.8,0.7-1.3,0.7c-0.7,0-1.2-0.4-1.6-1.2C285,604.8,284.8,603.2,284.8,601.1L284.8,601.1z M285.7,601.1
	c0,1.9,0.1,3.2,0.4,3.8c0.3,0.6,0.6,0.9,1,0.9s0.7-0.3,1-0.9c0.3-0.6,0.4-1.9,0.4-3.8c0-1.9-0.1-3.2-0.4-3.8c-0.3-0.6-0.6-0.9-1-0.9
	s-0.7,0.3-0.9,0.8C285.8,597.9,285.7,599.2,285.7,601.1L285.7,601.1z"/>
<path class="st2" d="M290.2,601.1c0-1.4,0.1-2.5,0.3-3.3s0.4-1.5,0.8-1.9c0.3-0.5,0.8-0.7,1.3-0.7c0.4,0,0.7,0.1,1,0.4
	c0.3,0.2,0.5,0.6,0.7,1.1s0.3,1,0.4,1.7c0.1,0.7,0.2,1.6,0.2,2.7c0,1.4-0.1,2.4-0.3,3.3c-0.2,0.8-0.4,1.5-0.8,1.9
	c-0.3,0.5-0.8,0.7-1.3,0.7c-0.7,0-1.2-0.4-1.6-1.2C290.4,604.8,290.2,603.2,290.2,601.1L290.2,601.1z M291.1,601.1
	c0,1.9,0.1,3.2,0.4,3.8c0.3,0.6,0.6,0.9,1,0.9s0.7-0.3,1-0.9c0.3-0.6,0.4-1.9,0.4-3.8c0-1.9-0.1-3.2-0.4-3.8c-0.3-0.6-0.6-0.9-1-0.9
	s-0.7,0.3-0.9,0.8C291.2,597.9,291.1,599.2,291.1,601.1L291.1,601.1z"/>
<polygon class="st2" points="200.5,636.2 200.5,634.7 203.2,634.7 203.2,636.2 "/>
<path class="st2" d="M206.1,639.6l2.7-11.6h1l2.8,11.6h-1.1l-0.8-3.5h-2.9l-0.8,3.5H206.1L206.1,639.6z M208.1,634.9h2.4l-0.7-3.2
	c-0.2-1-0.4-1.8-0.5-2.4c-0.1,0.7-0.2,1.5-0.4,2.2L208.1,634.9L208.1,634.9z"/>
<path class="st2" d="M218,628.1h0.9v6.7c0,1.2-0.1,2.1-0.2,2.8c-0.2,0.7-0.4,1.2-0.9,1.7c-0.4,0.4-1,0.6-1.6,0.6
	c-0.7,0-1.2-0.2-1.6-0.6c-0.4-0.4-0.7-0.9-0.9-1.6c-0.2-0.7-0.3-1.7-0.3-2.9v-6.7h0.9v6.7c0,1,0.1,1.7,0.2,2.2s0.3,0.8,0.6,1.1
	c0.3,0.3,0.6,0.4,1,0.4c0.7,0,1.2-0.3,1.4-0.8c0.3-0.5,0.4-1.5,0.4-2.9v-6.7H218z"/>
<polygon class="st2" points="222.2,639.6 222.2,629.4 219.9,629.4 219.9,628.1 225.4,628.1 225.4,629.4 223.1,629.4 223.1,639.6 "/>
<path class="st2" d="M225.9,634c0-1.9,0.3-3.4,0.9-4.5s1.4-1.6,2.4-1.6c0.6,0,1.2,0.3,1.7,0.8s0.9,1.2,1.2,2.1
	c0.3,0.9,0.4,1.9,0.4,3.1c0,1.2-0.1,2.2-0.4,3.1c-0.3,0.9-0.7,1.6-1.2,2.1s-1.1,0.7-1.7,0.7c-0.7,0-1.2-0.3-1.8-0.8
	c-0.5-0.5-0.9-1.2-1.2-2.2C226,636,225.9,635,225.9,634L225.9,634z M226.8,634c0,1.4,0.2,2.5,0.7,3.3s1,1.2,1.7,1.2s1.3-0.4,1.7-1.2
	c0.4-0.8,0.7-2,0.7-3.4c0-0.9-0.1-1.8-0.3-2.5c-0.2-0.7-0.5-1.2-0.8-1.6c-0.4-0.4-0.8-0.6-1.2-0.6c-0.7,0-1.2,0.4-1.7,1.1
	C227.1,631,226.8,632.3,226.8,634L226.8,634z"/>
<polygon class="st2" points="236.5,639.6 236.5,628.1 241.5,628.1 241.5,629.4 237.4,629.4 237.4,633 241.2,633 241.2,634.3 
	237.4,634.3 237.4,638.3 241.7,638.3 241.7,639.6 "/>
<path class="st2" d="M245.6,639.6V628h1.4l1.6,8.2c0.2,0.8,0.3,1.3,0.3,1.7c0.1-0.4,0.2-1,0.4-1.9l1.7-8h1.2v11.6h-0.9v-9.7l-2,9.7
	h-0.8l-2-9.8v9.8H245.6L245.6,639.6z"/>
<path class="st2" d="M253.4,634c0-1.9,0.3-3.4,0.9-4.5s1.4-1.6,2.4-1.6c0.6,0,1.2,0.3,1.7,0.8s0.9,1.2,1.2,2.1
	c0.3,0.9,0.4,1.9,0.4,3.1c0,1.2-0.1,2.2-0.4,3.1c-0.3,0.9-0.7,1.6-1.2,2.1s-1.1,0.7-1.7,0.7c-0.7,0-1.2-0.3-1.8-0.8
	c-0.5-0.5-0.9-1.2-1.2-2.2C253.6,636,253.4,635,253.4,634L253.4,634z M254.4,634c0,1.4,0.2,2.5,0.7,3.3s1,1.2,1.7,1.2
	s1.3-0.4,1.7-1.2c0.4-0.8,0.7-2,0.7-3.4c0-0.9-0.1-1.8-0.3-2.5c-0.2-0.7-0.5-1.2-0.8-1.6c-0.4-0.4-0.8-0.6-1.2-0.6
	c-0.7,0-1.2,0.4-1.7,1.1C254.6,631,254.4,632.3,254.4,634L254.4,634z"/>
<polygon class="st2" points="263.1,639.6 263.1,629.4 260.8,629.4 260.8,628.1 266.3,628.1 266.3,629.4 264,629.4 264,639.6 "/>
<path class="st2" d="M266.8,634c0-1.9,0.3-3.4,0.9-4.5s1.4-1.6,2.4-1.6c0.6,0,1.2,0.3,1.7,0.8s0.9,1.2,1.2,2.1
	c0.3,0.9,0.4,1.9,0.4,3.1c0,1.2-0.1,2.2-0.4,3.1c-0.3,0.9-0.7,1.6-1.2,2.1s-1.1,0.7-1.7,0.7c-0.7,0-1.2-0.3-1.8-0.8
	c-0.5-0.5-0.9-1.2-1.2-2.2C266.9,636,266.8,635,266.8,634L266.8,634z M267.7,634c0,1.4,0.2,2.5,0.7,3.3s1,1.2,1.7,1.2
	s1.3-0.4,1.7-1.2c0.4-0.8,0.7-2,0.7-3.4c0-0.9-0.1-1.8-0.3-2.5c-0.2-0.7-0.5-1.2-0.8-1.6c-0.4-0.4-0.8-0.6-1.2-0.6
	c-0.7,0-1.2,0.4-1.7,1.1C268,631,267.7,632.3,267.7,634L267.7,634z"/>
<path class="st2" d="M276.6,639.6l-2.7-11.6h1l1.8,8.4c0.1,0.7,0.3,1.3,0.4,1.9c0.1-0.6,0.2-1.3,0.4-1.9l1.9-8.4h0.9l-2.7,11.6
	H276.6L276.6,639.6z"/>
<polygon class="st2" points="281.1,639.6 281.1,628.1 286.2,628.1 286.2,629.4 282,629.4 282,633 285.9,633 285.9,634.3 282,634.3 
	282,638.3 286.3,638.3 286.3,639.6 "/>
<polygon class="st2" points="287.7,639.6 287.7,628.1 288.7,628.1 288.7,639.6 "/>
<path class="st2" d="M295.3,635.6l0.9,0.4c-0.2,1.3-0.5,2.2-1,2.9s-1.1,1-1.8,1c-0.8,0-1.4-0.3-1.8-0.8c-0.5-0.5-0.8-1.2-1.1-2.2
	c-0.2-1-0.4-2-0.4-3.1c0-1.2,0.1-2.3,0.4-3.1c0.3-0.9,0.7-1.6,1.2-2c0.5-0.5,1.1-0.7,1.7-0.7c0.7,0,1.3,0.3,1.8,0.9
	c0.5,0.6,0.8,1.4,1,2.5l-0.9,0.4c-0.2-0.8-0.4-1.5-0.7-1.8c-0.3-0.4-0.7-0.6-1.2-0.6s-1,0.2-1.3,0.6c-0.4,0.4-0.6,1-0.8,1.7
	c-0.1,0.7-0.2,1.5-0.2,2.2c0,1,0.1,1.8,0.3,2.6c0.2,0.7,0.4,1.3,0.8,1.6c0.4,0.4,0.8,0.5,1.2,0.5c0.5,0,1-0.2,1.3-0.7
	C294.9,637.3,295.1,636.5,295.3,635.6L295.3,635.6z"/>
<path class="st2" d="M297,634c0-1.9,0.3-3.4,0.9-4.5c0.6-1.1,1.4-1.6,2.4-1.6c0.6,0,1.2,0.3,1.7,0.8s0.9,1.2,1.2,2.1
	c0.3,0.9,0.4,1.9,0.4,3.1c0,1.2-0.1,2.2-0.4,3.1c-0.3,0.9-0.7,1.6-1.2,2.1s-1.1,0.7-1.7,0.7c-0.7,0-1.2-0.3-1.8-0.8
	c-0.5-0.5-0.9-1.2-1.2-2.2C297.2,636,297,635,297,634L297,634z M298,634c0,1.4,0.2,2.5,0.7,3.3s1,1.2,1.7,1.2s1.3-0.4,1.7-1.2
	s0.7-2,0.7-3.4c0-0.9-0.1-1.8-0.3-2.5s-0.5-1.2-0.8-1.6c-0.4-0.4-0.8-0.6-1.2-0.6c-0.7,0-1.2,0.4-1.7,1.1
	C298.2,631,298,632.3,298,634L298,634z"/>
<polygon class="st2" points="304.8,639.6 304.8,628.1 305.8,628.1 305.8,638.3 309.2,638.3 309.2,639.6 "/>
<polygon class="st2" points="310.4,639.6 310.4,628.1 311.4,628.1 311.4,639.6 "/>
<path class="st2" d="M315.7,639.6V628h3.1c0.6,0,1.1,0.1,1.4,0.3c0.3,0.2,0.6,0.6,0.8,1.1s0.3,1.1,0.3,1.7c0,0.8-0.2,1.5-0.5,2.1
	s-0.8,0.9-1.5,1.1c0.2,0.2,0.4,0.4,0.6,0.6c0.3,0.4,0.5,0.9,0.8,1.5l1.2,3.1h-1.2l-0.9-2.4c-0.3-0.7-0.5-1.2-0.7-1.6
	c-0.2-0.4-0.3-0.6-0.5-0.8c-0.1-0.1-0.3-0.3-0.4-0.3c-0.1,0-0.3-0.1-0.5-0.1h-1.1v5.1h-0.9L315.7,639.6L315.7,639.6z M316.6,633.2h2
	c0.4,0,0.8-0.1,1-0.2c0.2-0.1,0.4-0.4,0.5-0.7s0.2-0.7,0.2-1c0-0.5-0.1-1-0.4-1.3c-0.2-0.4-0.6-0.5-1.1-0.5h-2.2V633.2L316.6,633.2z
	"/>
<polygon class="st2" points="322.7,639.6 322.7,628.1 327.8,628.1 327.8,629.4 323.6,629.4 323.6,633 327.5,633 327.5,634.3 
	323.6,634.3 323.6,638.3 327.9,638.3 327.9,639.6 "/>
<path class="st2" d="M328.9,635.9l0.9-0.1c0,0.6,0.1,1.1,0.3,1.4c0.1,0.4,0.4,0.7,0.7,0.9s0.7,0.3,1.1,0.3c0.4,0,0.7-0.1,0.9-0.3
	c0.3-0.2,0.5-0.4,0.6-0.7s0.2-0.6,0.2-1s-0.1-0.7-0.2-1c-0.1-0.3-0.3-0.5-0.6-0.7c-0.2-0.1-0.6-0.3-1.2-0.6
	c-0.6-0.3-1.1-0.5-1.3-0.7c-0.3-0.3-0.6-0.6-0.7-1.1c-0.2-0.4-0.2-0.9-0.2-1.4c0-0.6,0.1-1.1,0.3-1.6s0.5-0.9,0.9-1.2
	s0.8-0.4,1.3-0.4s1,0.1,1.4,0.4c0.4,0.3,0.7,0.7,0.9,1.2s0.3,1.1,0.3,1.8l-0.9,0.1c0-0.7-0.2-1.3-0.5-1.7s-0.7-0.6-1.2-0.6
	c-0.6,0-1,0.2-1.2,0.5c-0.3,0.3-0.4,0.7-0.4,1.2c0,0.4,0.1,0.8,0.3,1c0.2,0.3,0.6,0.5,1.4,0.8c0.8,0.3,1.3,0.5,1.5,0.7
	c0.4,0.3,0.7,0.7,0.9,1.2s0.3,1,0.3,1.6s-0.1,1.2-0.3,1.7s-0.5,1-0.9,1.3s-0.8,0.5-1.3,0.5c-0.6,0-1.2-0.1-1.6-0.5
	c-0.4-0.3-0.8-0.8-1-1.4C329,637.4,328.9,636.7,328.9,635.9L328.9,635.9z"/>
<polygon class="st2" points="335.8,639.6 335.8,628.1 336.7,628.1 336.7,639.6 "/>
<path class="st2" d="M338.4,639.6V628h2.4c0.5,0,1,0.1,1.2,0.2c0.4,0.1,0.7,0.4,1,0.8c0.4,0.5,0.6,1.2,0.8,2s0.3,1.7,0.3,2.7
	c0,0.9-0.1,1.7-0.2,2.3c-0.1,0.7-0.3,1.2-0.5,1.7c-0.2,0.4-0.4,0.8-0.6,1c-0.2,0.3-0.5,0.4-0.8,0.6c-0.3,0.1-0.7,0.2-1.1,0.2
	L338.4,639.6L338.4,639.6z M339.3,638.3h1.5c0.5,0,0.8-0.1,1.1-0.2c0.3-0.1,0.5-0.3,0.6-0.6c0.2-0.4,0.4-0.9,0.5-1.5
	s0.2-1.4,0.2-2.2c0-1.2-0.1-2.1-0.4-2.8c-0.2-0.7-0.5-1.1-0.9-1.3c-0.2-0.2-0.6-0.2-1.2-0.2h-1.5v8.8H339.3z"/>
<polygon class="st2" points="345.4,639.6 345.4,628.1 350.4,628.1 350.4,629.4 346.3,629.4 346.3,633 350.2,633 350.2,634.3 
	346.3,634.3 346.3,638.3 350.6,638.3 350.6,639.6 "/>
<polygon class="st2" points="351.9,639.6 351.9,628.1 352.8,628.1 356.5,637.1 356.5,628.1 357.3,628.1 357.3,639.6 356.4,639.6 
	352.7,630.5 352.7,639.6 "/>
<polygon class="st2" points="360.7,639.6 360.7,629.4 358.4,629.4 358.4,628.1 363.9,628.1 363.9,629.4 361.6,629.4 361.6,639.6 "/>
<polygon class="st2" points="365,639.6 365,628.1 365.9,628.1 365.9,639.6 "/>
<path class="st2" d="M200.2,657.6l2.7-11.6h1l2.8,11.6h-1.1l-0.8-3.5h-2.9l-0.8,3.5H200.2L200.2,657.6z M202.2,652.9h2.4l-0.7-3.2
	c-0.2-1-0.4-1.8-0.5-2.4c-0.1,0.7-0.2,1.5-0.4,2.2L202.2,652.9L202.2,652.9z"/>
<path class="st2" d="M212,646.1h0.9v6.7c0,1.2-0.1,2.1-0.2,2.8c-0.2,0.7-0.4,1.2-0.9,1.7c-0.4,0.4-1,0.6-1.6,0.6
	c-0.7,0-1.2-0.2-1.6-0.6c-0.4-0.4-0.7-0.9-0.9-1.6c-0.2-0.7-0.3-1.7-0.3-2.9v-6.7h0.9v6.7c0,1,0.1,1.7,0.2,2.2s0.3,0.8,0.6,1.1
	c0.3,0.3,0.6,0.4,1,0.4c0.7,0,1.2-0.3,1.4-0.8c0.3-0.5,0.4-1.5,0.4-2.9v-6.7H212z"/>
<polygon class="st2" points="216.2,657.6 216.2,647.5 213.9,647.5 213.9,646.1 219.5,646.1 219.5,647.5 217.2,647.5 217.2,657.6 "/>
<path class="st2" d="M220,652c0-1.9,0.3-3.4,0.9-4.5s1.4-1.6,2.4-1.6c0.6,0,1.2,0.3,1.7,0.8s0.9,1.2,1.2,2.1
	c0.3,0.9,0.4,1.9,0.4,3.1c0,1.2-0.1,2.2-0.4,3.1c-0.3,0.9-0.7,1.6-1.2,2.1s-1.1,0.7-1.7,0.7c-0.7,0-1.2-0.3-1.8-0.8
	c-0.5-0.5-0.9-1.2-1.2-2.2C220.1,654,220,653,220,652L220,652z M220.9,652c0,1.4,0.2,2.5,0.7,3.3s1,1.2,1.7,1.2s1.3-0.4,1.7-1.2
	c0.4-0.8,0.7-2,0.7-3.4c0-0.9-0.1-1.8-0.3-2.5c-0.2-0.7-0.5-1.2-0.8-1.6c-0.4-0.4-0.8-0.6-1.2-0.6c-0.7,0-1.2,0.4-1.7,1.1
	C221.1,649.1,220.9,650.3,220.9,652L220.9,652z"/>
<path class="st2" d="M227.8,657.6V646h3.1c0.6,0,1.1,0.1,1.4,0.3s0.6,0.6,0.8,1.1c0.2,0.5,0.3,1.1,0.3,1.7c0,0.8-0.2,1.5-0.5,2.1
	s-0.8,0.9-1.5,1.1c0.2,0.2,0.4,0.4,0.6,0.6c0.3,0.4,0.5,0.9,0.8,1.5l1.2,3.1h-1.2l-0.9-2.4c-0.3-0.7-0.5-1.2-0.7-1.6
	c-0.2-0.4-0.3-0.6-0.5-0.8c-0.1-0.1-0.3-0.2-0.4-0.3c-0.1,0-0.3-0.1-0.5-0.1h-1.1v5.1h-0.9L227.8,657.6L227.8,657.6z M228.7,651.2h2
	c0.4,0,0.8-0.1,1-0.2c0.2-0.1,0.4-0.4,0.5-0.7s0.2-0.7,0.2-1c0-0.5-0.1-1-0.4-1.3c-0.2-0.4-0.6-0.5-1.1-0.5h-2.2V651.2L228.7,651.2z
	"/>
<polygon class="st2" points="235,657.6 235,646.1 235.9,646.1 235.9,657.6 "/>
<path class="st2" d="M237,657.6v-1.4l3.6-7.4c0.3-0.5,0.5-1,0.7-1.4h-3.9V646h5v1.4l-3.9,8l-0.4,0.8h4.4v1.4L237,657.6L237,657.6z"
	/>
<path class="st2" d="M242.9,657.6v-1.4l3.6-7.4c0.3-0.5,0.5-1,0.7-1.4h-3.9V646h5v1.4l-3.9,8l-0.4,0.8h4.4v1.4L242.9,657.6
	L242.9,657.6z"/>
<path class="st2" d="M248.6,657.6l2.7-11.6h1l2.8,11.6h-1l-0.8-3.5h-2.9l-0.8,3.5H248.6L248.6,657.6z M250.6,652.9h2.4l-0.7-3.2
	c-0.2-1-0.4-1.8-0.5-2.4c-0.1,0.7-0.2,1.5-0.4,2.2L250.6,652.9L250.6,652.9z"/>
<polygon class="st2" points="256.9,657.6 256.9,647.5 254.6,647.5 254.6,646.1 260.2,646.1 260.2,647.5 257.9,647.5 257.9,657.6 "/>
<polygon class="st2" points="261.3,657.6 261.3,646.1 262.2,646.1 262.2,657.6 "/>
<path class="st2" d="M263.9,657.6V656h1v1.6c0,0.6-0.1,1.1-0.2,1.4c-0.1,0.4-0.3,0.6-0.6,0.8l-0.2-0.6c0.2-0.1,0.3-0.3,0.4-0.6
	s0.1-0.6,0.1-1.1L263.9,657.6L263.9,657.6z"/>
<path class="st2" d="M268.9,653.9l0.9-0.1c0,0.6,0.1,1.1,0.3,1.4c0.1,0.4,0.4,0.7,0.7,0.9c0.3,0.2,0.7,0.3,1.1,0.3s0.7-0.1,0.9-0.3
	c0.3-0.2,0.5-0.4,0.6-0.7s0.2-0.6,0.2-1s-0.1-0.7-0.2-0.9c-0.1-0.3-0.3-0.5-0.6-0.7c-0.2-0.1-0.6-0.3-1.2-0.6s-1.1-0.5-1.3-0.7
	c-0.3-0.3-0.6-0.6-0.7-1.1c-0.2-0.4-0.2-0.9-0.2-1.4c0-0.6,0.1-1.1,0.3-1.6c0.2-0.5,0.5-0.9,0.9-1.2s0.8-0.4,1.3-0.4s1,0.1,1.4,0.4
	c0.4,0.3,0.7,0.7,0.9,1.2c0.2,0.5,0.3,1.1,0.3,1.8l-0.9,0.1c0-0.7-0.2-1.3-0.5-1.7s-0.7-0.6-1.2-0.6c-0.6,0-1,0.2-1.2,0.5
	c-0.3,0.3-0.4,0.7-0.4,1.2c0,0.4,0.1,0.8,0.3,1c0.2,0.3,0.6,0.5,1.4,0.8s1.3,0.5,1.5,0.7c0.4,0.3,0.7,0.7,0.9,1.2
	c0.2,0.5,0.3,1,0.3,1.6s-0.1,1.2-0.3,1.7c-0.2,0.5-0.5,1-0.9,1.3s-0.8,0.5-1.3,0.5c-0.6,0-1.2-0.2-1.6-0.5s-0.8-0.8-1-1.4
	C269,655.4,268.9,654.7,268.9,653.9L268.9,653.9z"/>
<path class="st2" d="M275.4,652c0-1.9,0.3-3.4,0.9-4.5s1.4-1.6,2.4-1.6c0.6,0,1.2,0.3,1.7,0.8s0.9,1.2,1.2,2.1
	c0.3,0.9,0.4,1.9,0.4,3.1c0,1.2-0.1,2.2-0.4,3.1c-0.3,0.9-0.7,1.6-1.2,2.1s-1.1,0.7-1.7,0.7c-0.7,0-1.2-0.3-1.8-0.8
	c-0.5-0.5-0.9-1.2-1.2-2.2C275.5,654,275.4,653,275.4,652L275.4,652z M276.4,652c0,1.4,0.2,2.5,0.7,3.3s1,1.2,1.7,1.2
	s1.3-0.4,1.7-1.2c0.4-0.8,0.7-2,0.7-3.4c0-0.9-0.1-1.8-0.3-2.5c-0.2-0.7-0.5-1.2-0.8-1.6c-0.4-0.4-0.8-0.6-1.2-0.6
	c-0.7,0-1.2,0.4-1.7,1.1C276.6,649.1,276.4,650.3,276.4,652L276.4,652z"/>
<polygon class="st2" points="283.2,657.6 283.2,646.1 284.1,646.1 284.1,656.3 287.6,656.3 287.6,657.6 "/>
<path class="st2" d="M288.4,652c0-1.9,0.3-3.4,0.9-4.5c0.6-1.1,1.4-1.6,2.4-1.6c0.6,0,1.2,0.3,1.7,0.8s0.9,1.2,1.2,2.1
	c0.3,0.9,0.4,1.9,0.4,3.1c0,1.2-0.1,2.2-0.4,3.1c-0.3,0.9-0.7,1.6-1.2,2.1s-1.1,0.7-1.7,0.7c-0.7,0-1.2-0.3-1.8-0.8
	c-0.5-0.5-0.9-1.2-1.2-2.2C288.5,654,288.4,653,288.4,652L288.4,652z M289.3,652c0,1.4,0.2,2.5,0.7,3.3s1,1.2,1.7,1.2
	s1.3-0.4,1.7-1.2s0.7-2,0.7-3.4c0-0.9-0.1-1.8-0.3-2.5s-0.5-1.2-0.8-1.6c-0.4-0.4-0.8-0.6-1.2-0.6c-0.7,0-1.2,0.4-1.7,1.1
	C289.6,649.1,289.3,650.3,289.3,652L289.3,652z"/>
<path class="st2" d="M298.9,657.6V646h2.6c0.5,0,0.8,0,1.1,0.1s0.6,0.3,0.9,0.5c0.2,0.3,0.4,0.6,0.6,1.1c0.1,0.5,0.2,1,0.2,1.6
	c0,1-0.2,1.8-0.6,2.5c-0.4,0.7-1.1,1-2,1h-1.8v4.7h-1V657.6z M299.9,651.6h1.8c0.6,0,1-0.2,1.3-0.5c0.3-0.4,0.4-0.9,0.4-1.6
	c0-0.5-0.1-0.9-0.2-1.2c-0.1-0.3-0.3-0.6-0.6-0.7c-0.2-0.1-0.4-0.1-0.9-0.1h-1.8V651.6L299.9,651.6z"/>
<polygon class="st2" points="305.4,657.6 305.4,646.1 310.5,646.1 310.5,647.5 306.4,647.5 306.4,651 310.2,651 310.2,652.4 
	306.4,652.4 306.4,656.3 310.6,656.3 310.6,657.6 "/>
<path class="st2" d="M311.9,657.6V646h3.1c0.6,0,1.1,0.1,1.4,0.3c0.3,0.2,0.6,0.6,0.8,1.1s0.3,1.1,0.3,1.7c0,0.8-0.2,1.5-0.5,2.1
	s-0.8,0.9-1.5,1.1c0.2,0.2,0.4,0.4,0.6,0.6c0.3,0.4,0.5,0.9,0.8,1.5l1.2,3.1h-1.2l-0.9-2.4c-0.3-0.7-0.5-1.2-0.7-1.6
	c-0.2-0.4-0.3-0.6-0.5-0.8c-0.1-0.1-0.3-0.2-0.4-0.3c-0.1,0-0.3-0.1-0.5-0.1h-1.1v5.1h-0.9L311.9,657.6L311.9,657.6z M312.8,651.2h2
	c0.4,0,0.8-0.1,1-0.2c0.2-0.1,0.4-0.4,0.5-0.7s0.2-0.7,0.2-1c0-0.5-0.1-1-0.4-1.3c-0.2-0.4-0.6-0.5-1.1-0.5h-2.2V651.2L312.8,651.2z
	"/>
<path class="st2" d="M320.9,657.6l2.7-11.6h1l2.8,11.6h-1.1l-0.8-3.5h-2.9l-0.8,3.5H320.9L320.9,657.6z M322.9,652.9h2.4l-0.7-3.2
	c-0.2-1-0.4-1.8-0.5-2.4c-0.1,0.7-0.2,1.5-0.4,2.2L322.9,652.9L322.9,652.9z"/>
<path class="st2" d="M333.1,653.6l0.9,0.4c-0.2,1.3-0.5,2.2-1,2.9s-1.1,1-1.8,1c-0.8,0-1.4-0.3-1.8-0.8c-0.5-0.5-0.8-1.2-1.1-2.2
	c-0.2-1-0.4-2-0.4-3.1c0-1.2,0.1-2.3,0.4-3.1c0.3-0.9,0.7-1.6,1.2-2c0.5-0.5,1.1-0.7,1.7-0.7c0.7,0,1.3,0.3,1.8,0.9
	c0.5,0.6,0.8,1.4,1,2.5l-0.9,0.4c-0.2-0.8-0.4-1.5-0.7-1.8c-0.3-0.4-0.7-0.6-1.2-0.6s-1,0.2-1.3,0.6c-0.4,0.4-0.6,1-0.8,1.7
	c-0.1,0.7-0.2,1.5-0.2,2.2c0,1,0.1,1.8,0.3,2.6c0.2,0.7,0.4,1.3,0.8,1.6c0.4,0.4,0.8,0.5,1.2,0.5c0.5,0,1-0.2,1.3-0.7
	C332.7,655.3,332.9,654.6,333.1,653.6L333.1,653.6z"/>
<path class="st2" d="M340.1,653.6l0.9,0.4c-0.2,1.3-0.5,2.2-1,2.9s-1.1,1-1.8,1c-0.8,0-1.4-0.3-1.8-0.8c-0.5-0.5-0.8-1.2-1.1-2.2
	c-0.2-1-0.4-2-0.4-3.1c0-1.2,0.1-2.3,0.4-3.1c0.3-0.9,0.7-1.6,1.2-2c0.5-0.5,1.1-0.7,1.7-0.7c0.7,0,1.3,0.3,1.8,0.9
	c0.5,0.6,0.8,1.4,1,2.5l-0.9,0.4c-0.2-0.8-0.4-1.5-0.7-1.8c-0.3-0.4-0.7-0.6-1.2-0.6s-1,0.2-1.3,0.6c-0.4,0.4-0.6,1-0.8,1.7
	c-0.1,0.7-0.2,1.5-0.2,2.2c0,1,0.1,1.8,0.3,2.6c0.2,0.7,0.4,1.3,0.8,1.6c0.4,0.4,0.8,0.5,1.2,0.5c0.5,0,1-0.2,1.3-0.7
	C339.7,655.3,340,654.6,340.1,653.6L340.1,653.6z"/>
<polygon class="st2" points="342.2,657.6 342.2,646.1 347.2,646.1 347.2,647.5 343.1,647.5 343.1,651 346.9,651 346.9,652.4 
	343.1,652.4 343.1,656.3 347.4,656.3 347.4,657.6 "/>
<path class="st2" d="M348.6,657.6V646h2.4c0.5,0,1,0.1,1.2,0.2c0.4,0.1,0.7,0.4,1,0.8c0.4,0.5,0.6,1.2,0.8,2s0.3,1.7,0.3,2.7
	c0,0.9-0.1,1.7-0.2,2.3c-0.1,0.7-0.3,1.2-0.5,1.7c-0.2,0.4-0.4,0.8-0.6,1c-0.2,0.3-0.5,0.4-0.8,0.6c-0.3,0.1-0.7,0.2-1.1,0.2
	L348.6,657.6L348.6,657.6z M349.5,656.3h1.5c0.5,0,0.8-0.1,1.1-0.2c0.3-0.1,0.5-0.3,0.6-0.6c0.2-0.4,0.4-0.8,0.5-1.5
	c0.1-0.6,0.2-1.4,0.2-2.2c0-1.2-0.1-2.1-0.4-2.8c-0.2-0.7-0.5-1.1-0.9-1.3c-0.2-0.2-0.6-0.2-1.2-0.2h-1.5v8.8H349.5z"/>
<polygon class="st2" points="355.7,657.6 355.7,646.1 360.7,646.1 360.7,647.5 356.6,647.5 356.6,651 360.4,651 360.4,652.4 
	356.6,652.4 356.6,656.3 360.9,656.3 360.9,657.6 "/>
<path class="st2" d="M362.1,657.6V646h3.1c0.6,0,1.1,0.1,1.4,0.3c0.3,0.2,0.6,0.6,0.8,1.1s0.3,1.1,0.3,1.7c0,0.8-0.2,1.5-0.5,2.1
	s-0.8,0.9-1.5,1.1c0.2,0.2,0.4,0.4,0.6,0.6c0.3,0.4,0.5,0.9,0.8,1.5l1.2,3.1h-1.2l-0.9-2.4c-0.3-0.7-0.5-1.2-0.7-1.6
	c-0.2-0.4-0.3-0.6-0.5-0.8c-0.1-0.1-0.3-0.2-0.4-0.3c-0.1,0-0.3-0.1-0.5-0.1H363v5.1h-0.9V657.6z M363.1,651.2h2
	c0.4,0,0.8-0.1,1-0.2c0.2-0.1,0.4-0.4,0.5-0.7s0.2-0.7,0.2-1c0-0.5-0.1-1-0.4-1.3c-0.2-0.4-0.6-0.5-1.1-0.5h-2.2V651.2L363.1,651.2z
	"/>
<polygon class="st2" points="369.2,657.6 369.2,646.1 374.2,646.1 374.2,647.5 370.1,647.5 370.1,651 373.9,651 373.9,652.4 
	370.1,652.4 370.1,656.3 374.4,656.3 374.4,657.6 "/>
<path class="st2" d="M200.2,675.7l2.7-11.6h1l2.8,11.6h-1.1l-0.8-3.5h-2.9l-0.8,3.5H200.2L200.2,675.7z M202.2,670.9h2.4l-0.7-3.2
	c-0.2-1-0.4-1.8-0.5-2.4c-0.1,0.7-0.2,1.5-0.4,2.2L202.2,670.9L202.2,670.9z"/>
<path class="st2" d="M215.1,671.6l0.9,0.4c-0.2,1.3-0.5,2.2-1,2.9s-1.1,1-1.8,1c-0.8,0-1.4-0.3-1.8-0.8c-0.5-0.5-0.8-1.2-1.1-2.2
	c-0.2-1-0.4-2-0.4-3.1c0-1.2,0.1-2.3,0.4-3.1c0.3-0.9,0.7-1.6,1.2-2c0.5-0.5,1.1-0.7,1.7-0.7c0.7,0,1.3,0.3,1.8,0.9
	c0.5,0.6,0.8,1.4,1,2.5l-0.9,0.4c-0.2-0.8-0.4-1.5-0.7-1.8c-0.3-0.4-0.7-0.6-1.2-0.6s-1,0.2-1.3,0.6c-0.4,0.4-0.6,1-0.8,1.7
	c-0.1,0.7-0.2,1.5-0.2,2.2c0,1,0.1,1.8,0.3,2.6c0.2,0.7,0.4,1.3,0.8,1.6c0.4,0.4,0.8,0.5,1.2,0.5c0.5,0,1-0.2,1.3-0.7
	C214.7,673.3,215,672.6,215.1,671.6L215.1,671.6z"/>
<path class="st2" d="M216.9,670.1c0-1.9,0.3-3.4,0.9-4.5s1.4-1.6,2.4-1.6c0.6,0,1.2,0.3,1.7,0.8s0.9,1.2,1.2,2.1s0.4,1.9,0.4,3.1
	c0,1.2-0.1,2.2-0.4,3.1c-0.3,0.9-0.7,1.6-1.2,2.1s-1.1,0.7-1.7,0.7c-0.7,0-1.2-0.3-1.8-0.8c-0.5-0.5-0.9-1.2-1.2-2.2
	C217,672,216.9,671.1,216.9,670.1L216.9,670.1z M217.8,670.1c0,1.4,0.2,2.5,0.7,3.3s1,1.2,1.7,1.2s1.3-0.4,1.7-1.2
	c0.4-0.8,0.7-2,0.7-3.4c0-0.9-0.1-1.8-0.3-2.5c-0.2-0.7-0.5-1.2-0.8-1.6c-0.4-0.4-0.8-0.6-1.2-0.6c-0.7,0-1.2,0.4-1.7,1.1
	C218.1,667.1,217.8,668.3,217.8,670.1L217.8,670.1z"/>
<path class="st2" d="M224.8,675.7v-11.6h3.1c0.6,0,1.1,0.1,1.4,0.3s0.6,0.6,0.8,1.1c0.2,0.5,0.3,1.1,0.3,1.7c0,0.8-0.2,1.5-0.5,2.1
	s-0.8,0.9-1.5,1.1c0.2,0.2,0.4,0.4,0.6,0.6c0.3,0.4,0.5,0.9,0.8,1.5l1.2,3.1h-1.2l-0.9-2.4c-0.3-0.7-0.5-1.2-0.7-1.6
	c-0.2-0.4-0.3-0.6-0.5-0.8c-0.1-0.1-0.3-0.3-0.4-0.3s-0.3-0.1-0.5-0.1h-1.1v5.1h-0.9L224.8,675.7L224.8,675.7z M225.7,669.2h2
	c0.4,0,0.8-0.1,1-0.2c0.2-0.1,0.4-0.4,0.5-0.7s0.2-0.7,0.2-1c0-0.5-0.1-1-0.4-1.3c-0.2-0.4-0.6-0.5-1.1-0.5h-2.2V669.2L225.7,669.2z
	"/>
<polygon class="st2" points="233.4,675.7 233.4,665.5 231.1,665.5 231.1,664.1 236.6,664.1 236.6,665.5 234.3,665.5 234.3,675.7 "/>
<polygon class="st2" points="237.7,675.7 237.7,664.1 238.6,664.1 238.6,675.7 "/>
<polygon class="st2" points="240.2,675.7 240.2,664.1 241.1,664.1 241.1,674.3 244.5,674.3 244.5,675.7 "/>
<polygon class="st2" points="245.8,675.7 245.8,664.1 246.7,664.1 246.7,675.7 "/>
<polygon class="st2" points="251.1,675.7 251.1,664.1 256.1,664.1 256.1,665.5 252,665.5 252,669 255.8,669 255.8,670.4 252,670.4 
	252,674.3 256.2,674.3 256.2,675.7 "/>
<path class="st2" d="M257.5,675.7v-11.6h2.4c0.5,0,1,0.1,1.2,0.2c0.4,0.2,0.7,0.4,1,0.8c0.4,0.5,0.6,1.2,0.8,2
	c0.2,0.8,0.3,1.7,0.3,2.7c0,0.9-0.1,1.7-0.2,2.3c-0.1,0.7-0.3,1.2-0.5,1.7c-0.2,0.4-0.4,0.8-0.6,1c-0.2,0.3-0.5,0.4-0.8,0.6
	c-0.3,0.1-0.7,0.2-1.1,0.2L257.5,675.7L257.5,675.7z M258.4,674.3h1.5c0.5,0,0.8-0.1,1.1-0.2c0.3-0.1,0.5-0.3,0.6-0.6
	c0.2-0.4,0.4-0.8,0.5-1.5c0.1-0.6,0.2-1.4,0.2-2.2c0-1.2-0.1-2.1-0.4-2.8c-0.2-0.7-0.5-1.1-0.9-1.3c-0.2-0.2-0.6-0.2-1.2-0.2h-1.5
	L258.4,674.3L258.4,674.3z"/>
<path class="st2" d="M266.5,675.7l2.7-11.6h1l2.8,11.6h-1.1l-0.8-3.5h-2.9l-0.8,3.5H266.5L266.5,675.7z M268.5,670.9h2.4l-0.7-3.2
	c-0.2-1-0.4-1.8-0.5-2.4c-0.1,0.7-0.2,1.5-0.4,2.2L268.5,670.9L268.5,670.9z"/>
<path class="st2" d="M278.3,664.1h0.9v6.7c0,1.2-0.1,2.1-0.2,2.8c-0.2,0.7-0.4,1.2-0.9,1.7c-0.4,0.4-1,0.6-1.6,0.6
	c-0.7,0-1.2-0.2-1.6-0.6c-0.4-0.4-0.7-0.9-0.9-1.6c-0.2-0.7-0.3-1.7-0.3-2.9v-6.7h0.9v6.7c0,1,0.1,1.7,0.2,2.2s0.3,0.8,0.6,1.1
	c0.3,0.3,0.6,0.4,1,0.4c0.7,0,1.2-0.3,1.4-0.8c0.3-0.5,0.4-1.5,0.4-2.9v-6.7H278.3z"/>
<polygon class="st2" points="282.5,675.7 282.5,665.5 280.2,665.5 280.2,664.1 285.7,664.1 285.7,665.5 283.4,665.5 283.4,675.7 "/>
<path class="st2" d="M286.2,670.1c0-1.9,0.3-3.4,0.9-4.5c0.6-1.1,1.4-1.6,2.4-1.6c0.6,0,1.2,0.3,1.7,0.8s0.9,1.2,1.2,2.1
	c0.3,0.9,0.4,1.9,0.4,3.1c0,1.2-0.1,2.2-0.4,3.1c-0.3,0.9-0.7,1.6-1.2,2.1s-1.1,0.7-1.7,0.7c-0.7,0-1.2-0.3-1.8-0.8
	c-0.5-0.5-0.9-1.2-1.2-2.2C286.4,672,286.2,671.1,286.2,670.1L286.2,670.1z M287.2,670.1c0,1.4,0.2,2.5,0.7,3.3s1,1.2,1.7,1.2
	s1.3-0.4,1.7-1.2s0.7-2,0.7-3.4c0-0.9-0.1-1.8-0.3-2.5s-0.5-1.2-0.8-1.6c-0.4-0.4-0.8-0.6-1.2-0.6c-0.7,0-1.2,0.4-1.7,1.1
	C287.4,667.1,287.2,668.3,287.2,670.1L287.2,670.1z"/>
<path class="st2" d="M294.1,675.7v-11.6h3.1c0.6,0,1.1,0.1,1.4,0.3c0.3,0.2,0.6,0.6,0.8,1.1s0.3,1.1,0.3,1.7c0,0.8-0.2,1.5-0.5,2.1
	s-0.8,0.9-1.5,1.1c0.2,0.2,0.4,0.4,0.6,0.6c0.3,0.4,0.5,0.9,0.8,1.5l1.2,3.1h-1.2l-0.9-2.4c-0.3-0.7-0.5-1.2-0.7-1.6
	c-0.2-0.4-0.3-0.6-0.5-0.8c-0.1-0.1-0.3-0.3-0.4-0.3c-0.1,0-0.3-0.1-0.5-0.1H295v5.1h-0.9V675.7z M295,669.2h2c0.4,0,0.8-0.1,1-0.2
	c0.2-0.1,0.4-0.4,0.5-0.7s0.2-0.7,0.2-1c0-0.5-0.1-1-0.4-1.3c-0.2-0.4-0.6-0.5-1.1-0.5H295V669.2L295,669.2z"/>
<polygon class="st2" points="301.2,675.7 301.2,664.1 302.2,664.1 302.2,675.7 "/>
<path class="st2" d="M303.8,675.7v-11.6h1.4l1.6,8.2c0.2,0.8,0.3,1.3,0.3,1.7c0.1-0.4,0.2-1,0.4-1.9l1.7-8h1.2v11.6h-0.9V666l-2,9.7
	h-0.8l-2-9.8v9.8H303.8L303.8,675.7z"/>
<polygon class="st2" points="311.9,675.7 311.9,664.1 316.9,664.1 316.9,665.5 312.8,665.5 312.8,669 316.7,669 316.7,670.4 
	312.8,670.4 312.8,674.3 317.1,674.3 317.1,675.7 "/>
<path class="st2" d="M318.1,672l0.9-0.1c0,0.6,0.1,1.1,0.3,1.4c0.1,0.4,0.4,0.7,0.7,0.9s0.7,0.3,1.1,0.3c0.4,0,0.7-0.1,0.9-0.3
	c0.3-0.2,0.5-0.4,0.6-0.7s0.2-0.6,0.2-1s-0.1-0.7-0.2-1c-0.1-0.3-0.3-0.5-0.6-0.7c-0.2-0.1-0.6-0.3-1.2-0.6
	c-0.6-0.3-1.1-0.5-1.3-0.7c-0.3-0.3-0.6-0.6-0.7-1.1c-0.2-0.4-0.2-0.9-0.2-1.4c0-0.6,0.1-1.1,0.3-1.6s0.5-0.9,0.9-1.2
	s0.8-0.4,1.3-0.4s1,0.1,1.4,0.4c0.4,0.3,0.7,0.7,0.9,1.2s0.3,1.1,0.3,1.8l-0.9,0.1c0-0.7-0.2-1.3-0.5-1.7s-0.7-0.6-1.2-0.6
	c-0.6,0-1,0.2-1.2,0.5c-0.3,0.3-0.4,0.7-0.4,1.2c0,0.4,0.1,0.8,0.3,1c0.2,0.3,0.6,0.5,1.4,0.8c0.8,0.3,1.3,0.5,1.5,0.7
	c0.4,0.3,0.7,0.7,0.9,1.2s0.3,1,0.3,1.6s-0.1,1.2-0.3,1.7s-0.5,1-0.9,1.3s-0.8,0.5-1.3,0.5c-0.6,0-1.2-0.2-1.6-0.5
	c-0.4-0.3-0.8-0.8-1-1.4C318.2,673.4,318.1,672.7,318.1,672L318.1,672z"/>
<path class="st2" d="M324.5,672l0.9-0.1c0,0.6,0.1,1.1,0.3,1.4c0.1,0.4,0.4,0.7,0.7,0.9s0.7,0.3,1.1,0.3c0.4,0,0.7-0.1,0.9-0.3
	c0.3-0.2,0.5-0.4,0.6-0.7s0.2-0.6,0.2-1s-0.1-0.7-0.2-1c-0.1-0.3-0.3-0.5-0.6-0.7c-0.2-0.1-0.6-0.3-1.2-0.6
	c-0.6-0.3-1.1-0.5-1.3-0.7c-0.3-0.3-0.6-0.6-0.7-1.1c-0.2-0.4-0.2-0.9-0.2-1.4c0-0.6,0.1-1.1,0.3-1.6s0.5-0.9,0.9-1.2
	s0.8-0.4,1.3-0.4s1,0.1,1.4,0.4c0.4,0.3,0.7,0.7,0.9,1.2s0.3,1.1,0.3,1.8l-0.9,0.1c0-0.7-0.2-1.3-0.5-1.7s-0.7-0.6-1.2-0.6
	c-0.6,0-1,0.2-1.2,0.5c-0.3,0.3-0.4,0.7-0.4,1.2c0,0.4,0.1,0.8,0.3,1c0.2,0.3,0.6,0.5,1.4,0.8c0.7,0.3,1.3,0.5,1.5,0.7
	c0.4,0.3,0.7,0.7,0.9,1.2s0.3,1,0.3,1.6s-0.1,1.2-0.3,1.7s-0.5,1-0.9,1.3s-0.8,0.5-1.3,0.5c-0.6,0-1.2-0.2-1.6-0.5
	c-0.4-0.3-0.8-0.8-1-1.4C324.7,673.4,324.6,672.7,324.5,672L324.5,672z"/>
<polygon class="st2" points="331.4,675.7 331.4,664.1 336.4,664.1 336.4,665.5 332.3,665.5 332.3,669 336.1,669 336.1,670.4 
	332.3,670.4 332.3,674.3 336.6,674.3 336.6,675.7 "/>
<g>
	<path class="st6" d="M131.5,405.6h45.4c4.6,0,8.3,3.7,8.3,8.3v45.4c0,4.6-3.7,8.3-8.3,8.3h-45.4c-4.6,0-8.3-3.7-8.3-8.3v-45.4
		C123.2,409.3,126.9,405.6,131.5,405.6L131.5,405.6z"/>
	<g>
		<path class="st5" d="M161.7,449.8c-3,6.6-10.8,9.6-17.5,6.6c-6.6-3-9.6-10.8-6.6-17.5c1-2.3,2.7-4.2,4.7-5.5l-0.2-4.9
			c-3.6,1.7-6.7,4.7-8.4,8.6c-4,8.8,0,19.2,8.8,23.2c8.1,3.6,17.5,0.6,22.1-6.7l-2.6-4.4C161.8,449.5,161.7,449.6,161.7,449.8z"/>
		<path class="st5" d="M173.4,448.3l-3.7,2.3l-7.9-14.1h-12.2l-0.5-4h9.2v-3.9h-9.8l-0.7-7.4c2.8-0.2,5-2.5,5-5.3
			c0-3-2.4-5.4-5.4-5.4s-5.4,2.4-5.4,5.4c0,0.8,0.2,1.5,0.5,2.2c0.2,0.6,0.6,1.1,1,1.5c0.1,0.1,0.1,0.1,0.2,0.2l0.6,20.8H159l9,15.6
			h0.2l7.1-4.5L173.4,448.3z"/>
	</g>
</g>
</svg>
