<?xml version="1.0" encoding="utf-8"?>
<!-- Generator: Adobe Illustrator 19.2.0, SVG Export Plug-In . SVG Version: 6.00 Build 0)  -->
<svg version="1.1" id="Livello_1" xmlns="http://www.w3.org/2000/svg" xmlns:xlink="http://www.w3.org/1999/xlink" x="0px" y="0px"
	 viewBox="0 0 418.3 722.2" style="enable-background:new 0 0 418.3 722.2;" xml:space="preserve">
<style type="text/css">
	.st0{fill:#FFFFFF;stroke:#1D1D1B;stroke-width:0.4865;stroke-miterlimit:2.6131;}
	.st1{fill:none;stroke:#1D1D1B;stroke-width:0.4865;stroke-miterlimit:2.6131;}
	.st2{fill:#1D1D1B;}
	.st3{fill:none;stroke:#1D1D1B;stroke-width:4.8649;stroke-miterlimit:2.6131;}
	.st4{fill:#E20613;}
	.st5{fill:#FFFFFF;}
	.st6{fill:#005CA8;stroke:#005CA8;stroke-width:0.4865;stroke-miterlimit:2.6131;}
</style>
<g>
	<g>
		<polygon class="st0" points="81,0.8 417.6,0.8 417.6,345.7 81,345.7 		"/>
		<polygon class="st0" points="81,345.7 417.6,345.7 417.6,720.8 81,720.8 		"/>
		<path class="st1" d="M131.6,545.6h44.5c4.5,0,8.1,3.7,8.1,8.1v44.5c0,4.5-3.7,8.1-8.1,8.1h-44.5c-4.5,0-8.1-3.7-8.1-8.1v-44.5
			C123.5,549.2,127.2,545.6,131.6,545.6L131.6,545.6z"/>
		<path class="st2" d="M122.2,600.2c-0.2-0.3,0.4-0.5,0.4-0.2L122.2,600.2L122.2,600.2z"/>
		<path class="st2" d="M150.5,600.7v-4.8H167v-2.4h-13.3l14.8-22.8c3.3-0.1,3.3,2.3,3.3,4.3v25.7H150.5L150.5,600.7z"/>
		<path class="st2" d="M150.5,593.5l0.2-7.8l-0.3-0.2l-3.6,4.4c-1.2,0.8-2.8,1.2-4,0.4l-9.7-4c-3.6-1.2-1.2-7.6,2.4-6l7.6,3.2
			l7.4-10.2c1.2-1.7,2.7-2.6,5.1-2.6h9.7L150.5,593.5L150.5,593.5z"/>
		<polygon class="st2" points="151.7,562.1 154.5,559.3 167,559.3 167,560.1 		"/>
		<polygon class="st2" points="154.5,558.1 152.5,551.3 167,556.1 167,558.1 		"/>
		<path class="st2" d="M154.5,562.9l12.3-1.7c0.1,0.4,0.2,0.8,0.2,1.3c0,3.4-2.8,6.2-6.2,6.2C157.4,568.7,154.7,566.2,154.5,562.9
			L154.5,562.9z"/>
		<path class="st1" d="M130.3,622.1h45.6c4.6,0,8.3,3.7,8.3,8.3V676c0,4.6-3.7,8.3-8.3,8.3h-45.6c-4.6,0-8.3-3.7-8.3-8.3v-45.6
			C121.9,625.9,125.7,622.1,130.3,622.1L130.3,622.1z"/>
		<path class="st2" d="M127.6,673.1l6.4-20.2l1.1-12.3c0.9-4.1,5.3-4.7,7.9-2.2l8.3,10c1.6,1.9-1.3,4.2-2.9,2.5l-5-5.8l-3.5,8.7
			l5.6,6.9c0.6,0.7,1.3,2,0.7,3.7l-3.1,9.6c-1.2,2.7-5.1,1.5-4.3-1.2l3-9.2l-4.5-5.7l-5.4,16C130.8,677,127.2,675.4,127.6,673.1
			L127.6,673.1z"/>
		<polygon class="st2" points="169,674 151.5,653.2 153.2,651.8 169.4,671 172.8,668.1 174.1,669.8 		"/>
		<polygon class="st2" points="169.6,668.5 157.7,654.3 167.1,646.4 179.1,660.6 		"/>
		<path class="st2" d="M157.5,673.7c-1.4-1.6-1.2-4.1,0.5-5.5c1.6-1.4,4.1-1.1,5.4,0.5c1.4,1.7,1.2,4.1-0.5,5.5
			C161.4,675.5,158.9,675.3,157.5,673.7L157.5,673.7z M158.8,672.6c-0.7-0.9-0.6-2.3,0.3-3c0.9-0.8,2.3-0.6,3,0.3
			c0.8,0.9,0.7,2.3-0.2,3C161,673.6,159.6,673.5,158.8,672.6L158.8,672.6z"/>
		<path class="st2" d="M141.1,629.6c1.7,0,3.2,1.4,3.2,3.2c0,1.7-1.4,3.2-3.2,3.2c-1.8,0-3.2-1.4-3.2-3.2
			C137.9,631,139.3,629.6,141.1,629.6L141.1,629.6z"/>
		<path class="st3" d="M101.1,351.6h296.3c8.1,0,14.4,6.8,14.4,14.3v334.7c0,7.5-6.8,14.3-14.4,14.3H101.1
			c-7.5,0-14.3-6.3-14.3-14.3V365.8C86.8,357.7,93,351.6,101.1,351.6L101.1,351.6z"/>
		<path class="st3" d="M101.1,6.6h296.3c8.1,0,14.4,6.6,14.4,14.3v304.5c0,7.6-6.6,14.3-14.4,14.3H101.1c-7.6,0-14.3-6.3-14.3-14.3
			V20.9C86.8,12.8,93,6.6,101.1,6.6L101.1,6.6z"/>
		<polygon class="st2" points="208.4,74.1 208.4,67.3 219.7,42.9 209.7,42.9 209.7,36.6 225.4,36.6 225.4,42.5 213.6,67.8 
			225.8,67.8 225.8,74.1 		"/>
		<path class="st2" d="M227.3,55.6c0-3.8,0.3-7,1-9.6c0.5-1.9,1.2-3.6,2-5.1s1.8-2.6,2.8-3.4c1.3-1,2.9-1.5,4.6-1.5
			c3.2,0,5.7,1.7,7.6,5.1c1.9,3.4,2.8,8.2,2.8,14.3s-0.9,10.8-2.8,14.2s-4.4,5.1-7.5,5.1c-3.2,0-5.7-1.7-7.6-5.1
			S227.3,61.5,227.3,55.6L227.3,55.6z M231.8,55.3c0,4.2,0.6,7.5,1.7,9.7c1.1,2.2,2.5,3.3,4.3,3.3c1.7,0,3.1-1.1,4.2-3.3
			c1.1-2.2,1.7-5.4,1.7-9.8c0-4.3-0.5-7.5-1.6-9.6s-2.5-3.2-4.3-3.2s-3.2,1.1-4.3,3.2C232.3,47.8,231.8,51,231.8,55.3L231.8,55.3z"
			/>
		<polygon class="st2" points="251.2,74.1 251.2,36.6 255.4,36.6 264.1,61.6 264.1,36.6 268.2,36.6 268.2,74.1 263.8,74.1 
			255.2,49.6 255.2,74.1 		"/>
		<path class="st2" d="M291.7,74.1H287l-1.9-8.5h-8.6l-1.8,8.5h-4.6l8.3-37.5h4.6L291.7,74.1L291.7,74.1z M283.7,59.3l-2.9-13.9
			l-2.9,13.9H283.7L283.7,59.3z"/>
		<polygon class="st2" points="111.7,126.8 111.7,95.6 105.3,95.6 105.3,89.3 122.3,89.3 122.3,95.6 116,95.6 116,126.8 		"/>
		<path class="st2" d="M124.8,126.8V89.3h9.1c2.3,0,3.9,0.3,5,1c1,0.7,1.9,1.9,2.5,3.6c0.6,1.7,0.9,3.7,0.9,5.9c0,2.8-0.5,5.1-1.4,7
			c-0.9,1.8-2.4,3-4.2,3.5c0.9,1,1.7,2,2.3,3.2c0.6,1.1,1.4,3.2,2.5,6.1l2.6,7.3h-5.2l-3.1-8.2c-1.1-2.9-1.9-4.8-2.3-5.5
			c-0.4-0.8-0.8-1.3-1.3-1.6s-1.2-0.4-2.2-0.4h-0.9v15.6H124.8L124.8,126.8z M129.1,105.1h3.2c2.1,0,3.4-0.1,3.9-0.5
			c0.5-0.3,0.9-0.8,1.2-1.6c0.3-0.8,0.4-1.7,0.4-2.8c0-1.3-0.2-2.3-0.6-3.1s-0.9-1.3-1.6-1.5c-0.3-0.1-1.4-0.1-3.2-0.1H129v9.6
			L129.1,105.1L129.1,105.1z"/>
		<path class="st2" d="M165.3,126.8h-4.7l-1.9-8.5h-8.6l-1.8,8.5h-4.6l8.3-37.5h4.6L165.3,126.8L165.3,126.8z M157.4,112l-2.9-13.9
			l-2.9,13.9H157.4L157.4,112z"/>
		<polygon class="st2" points="167.3,126.8 167.3,89.3 182,89.3 182,95.6 171.6,95.6 171.6,104.5 180.6,104.5 180.6,110.9 
			171.6,110.9 171.6,126.8 		"/>
		<polygon class="st2" points="185.2,126.8 185.2,89.3 199.9,89.3 199.9,95.6 189.6,95.6 189.6,104.5 198.5,104.5 198.5,110.9 
			189.6,110.9 189.6,126.8 		"/>
		<polygon class="st2" points="203,126.8 203,89.3 207.3,89.3 207.3,126.8 		"/>
		<path class="st2" d="M224.8,113l4.2,2.3c-0.6,4.1-1.7,7.1-3.2,9.1s-3.4,3-5.7,3c-2.8,0-5.2-1.7-7-5.1c-1.8-3.4-2.7-8.1-2.7-14
			c0-6.2,0.9-11.1,2.8-14.6c1.8-3.4,4.3-5.2,7.3-5.2c2.6,0,4.7,1.4,6.4,4.1c1,1.6,1.7,3.9,2.2,6.9l-4.3,1.8
			c-0.2-1.9-0.8-3.5-1.6-4.6c-0.8-1.1-1.8-1.7-2.9-1.7c-1.6,0-2.9,1-3.9,3s-1.5,5.2-1.5,9.7c0,4.7,0.5,8.1,1.5,10.1s2.2,3,3.8,3
			c1.2,0,2.1-0.6,3-1.9C223.9,117.8,224.5,115.7,224.8,113L224.8,113z"/>
		<path class="st2" d="M231.5,108.3c0-3.8,0.3-7,1-9.6c0.5-1.9,1.2-3.6,2-5.1s1.8-2.6,2.8-3.4c1.3-1,2.9-1.5,4.6-1.5
			c3.2,0,5.7,1.7,7.6,5.1c1.9,3.4,2.8,8.2,2.8,14.3s-0.9,10.8-2.8,14.2s-4.4,5.1-7.5,5.1c-3.2,0-5.7-1.7-7.6-5.1
			C232.4,118.9,231.5,114.2,231.5,108.3L231.5,108.3z M236,108c0,4.2,0.6,7.5,1.7,9.7s2.5,3.3,4.3,3.3c1.7,0,3.1-1.1,4.2-3.3
			s1.7-5.4,1.7-9.8c0-4.3-0.5-7.5-1.6-9.6s-2.5-3.2-4.3-3.2s-3.2,1.1-4.3,3.2C236.5,100.5,236,103.7,236,108L236,108z"/>
		<polygon class="st2" points="263.7,126.8 263.7,89.6 268,89.6 268,120.5 278.7,120.5 278.7,126.8 		"/>
		<polygon class="st2" points="281.3,126.8 281.3,89.3 285.7,89.3 285.7,126.8 		"/>
		<polygon class="st2" points="289.4,126.8 289.4,89.3 295.9,89.3 299.7,114.9 303.6,89.3 310.1,89.3 310.1,126.8 306,126.8 
			306,97.3 301.8,126.8 297.6,126.8 293.4,97.3 293.4,126.8 		"/>
		<polygon class="st2" points="313.9,126.8 313.9,89.3 318.2,89.3 318.2,126.8 		"/>
		<polygon class="st2" points="326.8,126.8 326.8,95.6 320.5,95.6 320.5,89.3 337.5,89.3 337.5,95.6 331.1,95.6 331.1,126.8 		"/>
		<path class="st2" d="M357,126.8h-4.7l-1.9-8.5h-8.6l-1.8,8.5h-4.6l8.3-37.5h4.6L357,126.8L357,126.8z M349,112l-2.9-13.9
			l-2.9,13.9H349L349,112z"/>
		<polygon class="st2" points="361.6,126.8 361.6,95.6 355.2,95.6 355.2,89.3 372.2,89.3 372.2,95.6 365.9,95.6 365.9,126.8 		"/>
		<path class="st2" d="M373.3,108.3c0-3.8,0.3-7,1-9.6c0.5-1.9,1.2-3.6,2-5.1s1.8-2.6,2.8-3.4c1.3-1,2.9-1.5,4.6-1.5
			c3.2,0,5.7,1.7,7.6,5.1c1.9,3.4,2.8,8.2,2.8,14.3s-0.9,10.8-2.8,14.2c-1.9,3.4-4.4,5.1-7.5,5.1c-3.2,0-5.7-1.7-7.6-5.1
			C374.2,118.9,373.3,114.2,373.3,108.3L373.3,108.3z M377.7,108c0,4.2,0.6,7.5,1.7,9.7c1.1,2.2,2.5,3.3,4.3,3.3
			c1.7,0,3.1-1.1,4.2-3.3c1.1-2.2,1.7-5.4,1.7-9.8c0-4.3-0.5-7.5-1.6-9.6s-2.5-3.2-4.3-3.2s-3.2,1.1-4.3,3.2
			C378.3,100.5,377.7,103.7,377.7,108L377.7,108z"/>
		<polygon class="st2" points="122.7,456.8 122.7,444.7 128.2,444.7 128.2,446.7 124.2,446.7 124.2,449.4 127.9,449.4 127.9,451.5 
			124.2,451.5 124.2,454.8 128.3,454.8 128.3,456.8 		"/>
		<path class="st2" d="M134.2,452.3l1.4,0.8c-0.2,1.3-0.6,2.3-1.1,3c-0.5,0.6-1.2,1-1.9,1c-1,0-1.8-0.6-2.4-1.6
			c-0.6-1.1-0.9-2.6-0.9-4.5c0-2,0.3-3.6,0.9-4.7c0.6-1.1,1.5-1.7,2.5-1.7c0.9,0,1.6,0.4,2.2,1.3c0.3,0.5,0.6,1.3,0.7,2.2l-1.5,0.6
			c-0.1-0.6-0.3-1.1-0.5-1.5c-0.3-0.4-0.6-0.5-1-0.5c-0.5,0-1,0.3-1.3,1c-0.3,0.6-0.5,1.7-0.5,3.1c0,1.5,0.2,2.6,0.5,3.3
			s0.8,1,1.3,1c0.4,0,0.7-0.2,1-0.6C133.9,453.9,134.1,453.2,134.2,452.3L134.2,452.3z"/>
		<path class="st2" d="M141.6,452.3l1.4,0.8c-0.2,1.3-0.6,2.3-1.1,3c-0.5,0.6-1.2,1-1.9,1c-1,0-1.8-0.6-2.4-1.6
			c-0.6-1.1-0.9-2.6-0.9-4.5c0-2,0.3-3.6,0.9-4.7c0.6-1.1,1.5-1.7,2.5-1.7c0.9,0,1.6,0.4,2.2,1.3c0.3,0.5,0.6,1.3,0.7,2.2l-1.5,0.6
			c-0.1-0.6-0.3-1.1-0.5-1.5c-0.3-0.4-0.6-0.5-1-0.5c-0.5,0-1,0.3-1.3,1c-0.3,0.6-0.5,1.7-0.5,3.1c0,1.5,0.2,2.6,0.5,3.3
			s0.8,1,1.3,1c0.4,0,0.7-0.2,1-0.6C141.3,453.9,141.5,453.2,141.6,452.3L141.6,452.3z"/>
		<polygon class="st2" points="144.3,456.8 144.3,444.7 149.7,444.7 149.7,446.7 145.8,446.7 145.8,449.4 149.4,449.4 149.4,451.5 
			145.8,451.5 145.8,454.8 149.9,454.8 149.9,456.8 		"/>
		<polygon class="st2" points="152.8,456.8 152.8,446.7 150.6,446.7 150.6,444.7 156.4,444.7 156.4,446.7 154.2,446.7 154.2,456.8 
					"/>
		<polygon class="st2" points="159,456.8 159,446.7 156.8,446.7 156.8,444.7 162.6,444.7 162.6,446.7 160.5,446.7 160.5,456.8 		"/>
		<path class="st2" d="M163.1,450.8c0-1.2,0.1-2.3,0.3-3.1c0.2-0.6,0.4-1.2,0.7-1.7c0.3-0.5,0.6-0.9,0.9-1.1c0.5-0.3,1-0.5,1.6-0.5
			c1.1,0,1.9,0.6,2.6,1.7c0.6,1.1,1,2.6,1,4.6s-0.3,3.5-1,4.6c-0.6,1.1-1.5,1.7-2.6,1.7s-2-0.6-2.6-1.6
			C163.4,454.3,163.1,452.7,163.1,450.8L163.1,450.8z M164.6,450.7c0,1.4,0.2,2.4,0.6,3.1c0.4,0.7,0.9,1.1,1.5,1.1s1.1-0.3,1.4-1.1
			c0.4-0.7,0.6-1.8,0.6-3.2s-0.2-2.4-0.5-3.1c-0.4-0.7-0.9-1-1.5-1s-1.1,0.3-1.5,1C164.8,448.3,164.6,449.3,164.6,450.7L164.6,450.7
			z"/>
		<path class="st2" d="M171.6,450.3V448h1.4v2.3H171.6L171.6,450.3z M171.6,456.8v-2.3h1.4v2.3H171.6L171.6,456.8z"/>
		<path class="st2" d="M122.7,382.4h2.7c0.6,0,1.1,0.1,1.4,0.2c0.4,0.2,0.8,0.6,1.1,1.1c0.3,0.5,0.5,1.2,0.7,2s0.2,1.7,0.2,2.9
			c0,1-0.1,1.9-0.2,2.6c-0.2,0.9-0.4,1.6-0.8,2.1c-0.3,0.4-0.6,0.7-1,1c-0.3,0.2-0.8,0.3-1.3,0.3h-2.8L122.7,382.4L122.7,382.4z
			 M124.2,384.5v8h1.1c0.4,0,0.7,0,0.9-0.1c0.2-0.1,0.4-0.3,0.6-0.5s0.3-0.6,0.4-1.2c0.1-0.5,0.2-1.3,0.2-2.2c0-0.9-0.1-1.7-0.2-2.2
			s-0.2-0.9-0.4-1.2c-0.2-0.3-0.4-0.5-0.7-0.6c-0.2-0.1-0.6-0.1-1.2-0.1h-0.7L124.2,384.5L124.2,384.5z"/>
		<polygon class="st2" points="130.1,394.5 130.1,382.4 131.5,382.4 131.5,394.5 		"/>
		<polygon class="st2" points="134.8,394.5 132.2,382.4 133.8,382.4 135.7,391.4 137.4,382.4 139,382.4 136.4,394.5 		"/>
		<polygon class="st2" points="139.7,394.5 139.7,382.4 141.2,382.4 141.2,394.5 		"/>
		<polygon class="st2" points="142.6,394.5 142.6,382.4 148,382.4 148,384.5 144.1,384.5 144.1,387.1 147.7,387.1 147.7,389.2 
			144.1,389.2 144.1,392.5 148.2,392.5 148.2,394.5 		"/>
		<polygon class="st2" points="151.1,394.5 151.1,384.5 148.9,384.5 148.9,382.4 154.7,382.4 154.7,384.5 152.5,384.5 152.5,394.5 
					"/>
		<path class="st2" d="M155.2,388.5c0-1.2,0.1-2.3,0.3-3.1c0.2-0.6,0.4-1.2,0.7-1.7c0.3-0.5,0.6-0.9,0.9-1.1c0.5-0.3,1-0.5,1.6-0.5
			c1.1,0,1.9,0.6,2.6,1.7c0.6,1.1,1,2.7,1,4.6c0,2-0.3,3.5-1,4.6c-0.6,1.1-1.5,1.7-2.6,1.7s-2-0.5-2.6-1.6
			C155.5,392,155.2,390.5,155.2,388.5L155.2,388.5z M156.7,388.5c0,1.4,0.2,2.4,0.6,3.1s0.9,1.1,1.5,1.1s1.1-0.4,1.4-1.1
			c0.4-0.7,0.6-1.8,0.6-3.2c0-1.4-0.2-2.4-0.5-3.1c-0.4-0.7-0.9-1-1.5-1s-1.1,0.3-1.5,1S156.7,387.1,156.7,388.5L156.7,388.5z"/>
		<path class="st2" d="M166.2,382.4h2.7c0.6,0,1.1,0.1,1.4,0.2c0.4,0.2,0.8,0.6,1.1,1.1c0.3,0.5,0.5,1.2,0.7,2s0.2,1.7,0.2,2.9
			c0,1-0.1,1.9-0.2,2.6c-0.2,0.9-0.4,1.6-0.8,2.1c-0.3,0.4-0.6,0.7-1,1c-0.3,0.2-0.8,0.3-1.3,0.3h-2.8L166.2,382.4L166.2,382.4z
			 M167.7,384.5v8h1.1c0.4,0,0.7,0,0.9-0.1c0.2-0.1,0.4-0.3,0.6-0.5s0.3-0.6,0.4-1.2c0.1-0.5,0.2-1.3,0.2-2.2c0-0.9-0.1-1.7-0.2-2.2
			s-0.2-0.9-0.4-1.2c-0.2-0.3-0.4-0.5-0.7-0.6c-0.2-0.1-0.6-0.1-1.2-0.1h-0.7L167.7,384.5L167.7,384.5z"/>
		<polygon class="st2" points="173.6,394.5 173.6,382.4 175,382.4 175,394.5 		"/>
		<polygon class="st2" points="180.9,394.5 180.9,384.5 178.8,384.5 178.8,382.4 184.6,382.4 184.6,384.5 182.4,384.5 182.4,394.5 
					"/>
		<path class="st2" d="M185.5,394.5v-12.1h3.1c0.8,0,1.3,0.1,1.7,0.3c0.4,0.2,0.6,0.6,0.9,1.2c0.2,0.6,0.3,1.2,0.3,1.9
			c0,0.9-0.2,1.7-0.5,2.3c-0.3,0.6-0.8,1-1.4,1.1c0.3,0.3,0.6,0.7,0.8,1c0.2,0.4,0.5,1,0.8,2l0.9,2.4h-1.8l-1.1-2.6
			c-0.4-0.9-0.6-1.5-0.8-1.8c-0.1-0.2-0.3-0.4-0.4-0.5c-0.2-0.1-0.4-0.1-0.7-0.1H187v5.1h-1.5V394.5z M187,387.5h1.1
			c0.7,0,1.2,0,1.3-0.1c0.2-0.1,0.3-0.3,0.4-0.5s0.2-0.5,0.2-0.9s-0.1-0.7-0.2-1s-0.3-0.4-0.6-0.5c-0.1,0-0.5,0-1.1,0h-1.2v3H187z"
			/>
		<path class="st2" d="M199.5,394.5h-1.6l-0.6-2.8h-3l-0.6,2.8h-1.6l2.8-12.1h1.6L199.5,394.5L199.5,394.5z M196.8,389.7l-1-4.5
			l-1,4.5H196.8L196.8,389.7z"/>
		<polygon class="st2" points="200.3,394.5 200.3,382.4 201.7,382.4 204.7,390.5 204.7,382.4 206.1,382.4 206.1,394.5 204.6,394.5 
			201.7,386.6 201.7,394.5 		"/>
		<path class="st2" d="M207.3,390.6l1.4-0.2c0.1,0.8,0.3,1.4,0.5,1.8c0.3,0.4,0.6,0.6,1.1,0.6s0.8-0.2,1.1-0.5
			c0.2-0.3,0.4-0.7,0.4-1.2c0-0.3-0.1-0.5-0.2-0.7s-0.3-0.4-0.5-0.5s-0.6-0.3-1.2-0.5c-0.8-0.3-1.3-0.7-1.7-1.2
			c-0.5-0.7-0.7-1.5-0.7-2.4c0-0.6,0.1-1.2,0.3-1.7c0.2-0.5,0.5-0.9,0.9-1.2c0.4-0.3,0.9-0.4,1.4-0.4c0.9,0,1.6,0.3,2.1,1
			s0.7,1.6,0.7,2.7l-1.5,0.1c-0.1-0.6-0.2-1.1-0.4-1.3c-0.2-0.3-0.5-0.4-0.9-0.4s-0.8,0.1-1,0.4c-0.2,0.2-0.2,0.4-0.2,0.8
			c0,0.3,0.1,0.5,0.2,0.7c0.2,0.3,0.6,0.5,1.4,0.8c0.7,0.3,1.2,0.6,1.6,0.9c0.3,0.3,0.6,0.7,0.8,1.2c0.2,0.5,0.3,1.2,0.3,1.9
			c0,0.7-0.1,1.3-0.3,2c-0.2,0.6-0.6,1.1-1,1.4s-1,0.4-1.6,0.4c-0.9,0-1.6-0.4-2.1-1.1C207.7,393,207.4,391.9,207.3,390.6
			L207.3,390.6z"/>
		<polygon class="st2" points="214.4,394.5 214.4,382.4 215.9,382.4 215.9,394.5 		"/>
		<polygon class="st2" points="218.9,394.5 218.9,384.5 216.8,384.5 216.8,382.4 222.6,382.4 222.6,384.5 220.4,384.5 220.4,394.5 
					"/>
		<path class="st2" d="M223,388.5c0-1.2,0.1-2.3,0.3-3.1c0.2-0.6,0.4-1.2,0.7-1.7c0.3-0.5,0.6-0.9,0.9-1.1c0.5-0.3,1-0.5,1.6-0.5
			c1.1,0,1.9,0.6,2.6,1.7c0.6,1.1,1,2.7,1,4.6c0,2-0.3,3.5-1,4.6c-0.6,1.1-1.5,1.7-2.6,1.7s-2-0.5-2.6-1.6
			C223.4,392,223,390.5,223,388.5L223,388.5z M224.6,388.5c0,1.4,0.2,2.4,0.6,3.1s0.9,1.1,1.5,1.1s1.1-0.4,1.4-1.1
			c0.4-0.7,0.6-1.8,0.6-3.2c0-1.4-0.2-2.4-0.6-3.1s-0.9-1-1.5-1s-1.1,0.3-1.5,1C224.8,386,224.6,387.1,224.6,388.5L224.6,388.5z"/>
		<path class="st2" d="M240.7,394.5h-1.6l-0.6-2.8h-2.9l-0.6,2.8h-1.6l2.8-12.1h1.6L240.7,394.5L240.7,394.5z M238,389.7l-1-4.5
			l-1,4.5H238L238,389.7z"/>
		<path class="st2" d="M241.8,388.1v-2.3h1.4v2.3H241.8L241.8,388.1z M241.8,394.5v-2.3h1.4v2.3H241.8L241.8,394.5z"/>
		<polygon class="st2" points="199.5,477.5 199.5,476.1 202.2,476.1 202.2,477.5 		"/>
		<path class="st2" d="M208,481l-2.7-11.6h1l1.8,8.4c0.1,0.7,0.3,1.3,0.4,1.9c0.1-0.6,0.2-1.3,0.4-1.9l1.9-8.4h1L209,481H208
			L208,481z"/>
		<polygon class="st2" points="212.6,481 212.6,469.4 217.7,469.4 217.7,470.8 213.5,470.8 213.5,474.3 217.5,474.3 217.5,475.7 
			213.5,475.7 213.5,479.6 217.9,479.6 217.9,481 		"/>
		<polygon class="st2" points="219.3,481 219.3,469.4 220.3,469.4 220.3,481 		"/>
		<path class="st2" d="M227,476.9l0.9,0.4c-0.2,1.3-0.6,2.2-1.1,2.9s-1.1,1-1.9,1s-1.4-0.3-1.9-0.8s-0.8-1.2-1.1-2.2
			c-0.2-1-0.4-2-0.4-3.1c0-1.2,0.1-2.3,0.4-3.1c0.3-0.9,0.7-1.6,1.2-2c0.5-0.5,1.1-0.7,1.7-0.7c0.7,0,1.3,0.3,1.8,0.9
			c0.5,0.6,0.8,1.4,1,2.5l-0.9,0.4c-0.2-0.8-0.4-1.5-0.7-1.8c-0.3-0.4-0.7-0.6-1.2-0.6s-1,0.2-1.4,0.6c-0.4,0.4-0.6,1-0.8,1.7
			c-0.1,0.7-0.2,1.5-0.2,2.2c0,1,0.1,1.8,0.3,2.6c0.2,0.7,0.4,1.3,0.8,1.6c0.4,0.4,0.8,0.5,1.2,0.5c0.5,0,1-0.2,1.3-0.7
			C226.6,478.6,226.8,477.9,227,476.9L227,476.9z"/>
		<path class="st2" d="M228.8,475.3c0-1.9,0.3-3.4,0.9-4.5s1.4-1.6,2.4-1.6c0.7,0,1.2,0.3,1.8,0.8c0.5,0.5,0.9,1.2,1.2,2.1
			c0.3,0.9,0.4,1.9,0.4,3.1c0,1.2-0.1,2.2-0.4,3.1c-0.3,0.9-0.7,1.6-1.2,2.1s-1.1,0.7-1.7,0.7c-0.7,0-1.3-0.3-1.8-0.8
			s-0.9-1.2-1.2-2.2C228.9,477.3,228.8,476.3,228.8,475.3L228.8,475.3z M229.7,475.4c0,1.4,0.2,2.5,0.7,3.3s1,1.2,1.7,1.2
			s1.3-0.4,1.7-1.2c0.5-0.8,0.7-2,0.7-3.4c0-0.9-0.1-1.8-0.3-2.5c-0.2-0.7-0.5-1.2-0.9-1.6c-0.4-0.4-0.8-0.6-1.3-0.6
			c-0.7,0-1.2,0.4-1.7,1.1C230,472.4,229.7,473.6,229.7,475.4L229.7,475.4z"/>
		<polygon class="st2" points="236.7,481 236.7,469.4 237.6,469.4 237.6,479.6 241.1,479.6 241.1,481 		"/>
		<polygon class="st2" points="242.4,481 242.4,469.4 243.3,469.4 243.3,481 		"/>
		<path class="st2" d="M247,481l2.7-11.6h1l2.9,11.6h-1.1l-0.8-3.5h-3l-0.8,3.5H247L247,481z M249,476.2h2.4l-0.7-3.2
			c-0.2-1-0.4-1.8-0.5-2.4c-0.1,0.7-0.2,1.5-0.4,2.2L249,476.2L249,476.2z"/>
		<path class="st2" d="M259,469.4h0.9v6.7c0,1.2-0.1,2.1-0.2,2.8c-0.2,0.7-0.5,1.2-0.9,1.7c-0.4,0.4-1,0.6-1.7,0.6s-1.2-0.2-1.6-0.6
			c-0.4-0.4-0.7-0.9-0.9-1.6c-0.2-0.7-0.3-1.7-0.3-2.9v-6.7h0.9v6.7c0,1,0.1,1.7,0.2,2.2s0.3,0.8,0.6,1.1c0.3,0.3,0.6,0.4,1,0.4
			c0.7,0,1.2-0.3,1.5-0.8s0.4-1.5,0.4-2.9v-6.7H259z"/>
		<polygon class="st2" points="263.3,481 263.3,470.8 260.9,470.8 260.9,469.4 266.5,469.4 266.5,470.8 264.2,470.8 264.2,481 		"/>
		<path class="st2" d="M267,475.3c0-1.9,0.3-3.4,0.9-4.5s1.4-1.6,2.4-1.6c0.7,0,1.2,0.3,1.8,0.8c0.5,0.5,0.9,1.2,1.2,2.1
			c0.3,0.9,0.4,1.9,0.4,3.1c0,1.2-0.1,2.2-0.4,3.1c-0.3,0.9-0.7,1.6-1.2,2.1s-1.1,0.7-1.7,0.7c-0.7,0-1.3-0.3-1.8-0.8
			s-0.9-1.2-1.2-2.2C267.2,477.3,267,476.3,267,475.3L267,475.3z M268,475.4c0,1.4,0.2,2.5,0.7,3.3s1,1.2,1.7,1.2s1.3-0.4,1.7-1.2
			c0.5-0.8,0.7-2,0.7-3.4c0-0.9-0.1-1.8-0.3-2.5c-0.2-0.7-0.5-1.2-0.9-1.6c-0.4-0.4-0.8-0.6-1.3-0.6c-0.7,0-1.2,0.4-1.7,1.1
			C268.2,472.4,268,473.6,268,475.4L268,475.4z"/>
		<path class="st2" d="M275,481v-11.6h3.1c0.6,0,1.1,0.1,1.4,0.3s0.6,0.6,0.8,1.1c0.2,0.5,0.3,1.1,0.3,1.7c0,0.8-0.2,1.5-0.5,2.1
			s-0.8,0.9-1.5,1.1c0.2,0.2,0.4,0.4,0.6,0.6c0.3,0.4,0.5,0.9,0.8,1.5l1.2,3.1H280l-0.9-2.4c-0.3-0.7-0.5-1.2-0.7-1.6
			c-0.2-0.4-0.3-0.6-0.5-0.8c-0.1-0.1-0.3-0.2-0.4-0.3c-0.1,0-0.3-0.1-0.5-0.1h-1.1v5.1H275L275,481L275,481z M276,474.5h2
			c0.4,0,0.8-0.1,1-0.2c0.2-0.1,0.4-0.4,0.5-0.7s0.2-0.7,0.2-1c0-0.5-0.1-1-0.4-1.3c-0.2-0.4-0.6-0.5-1.2-0.5h-2.2v3.7H276z"/>
		<polygon class="st2" points="282.3,481 282.3,469.4 283.2,469.4 283.2,481 		"/>
		<path class="st2" d="M284.3,481v-1.4l3.6-7.4c0.3-0.5,0.5-1,0.7-1.4h-3.9v-1.4h5.1v1.4l-4,8l-0.4,0.8h4.5v1.4L284.3,481L284.3,481
			z"/>
		<path class="st2" d="M290.4,481v-1.4l3.6-7.4c0.3-0.5,0.5-1,0.7-1.4h-3.9v-1.4h5.1v1.4l-4,8l-0.4,0.8h4.5v1.4L290.4,481L290.4,481
			z"/>
		<path class="st2" d="M296.2,481l2.7-11.6h1l2.9,11.6h-1.1l-0.8-3.5h-3l-0.8,3.5H296.2L296.2,481z M298.2,476.2h2.4l-0.7-3.2
			c-0.2-1-0.4-1.8-0.5-2.4c-0.1,0.7-0.2,1.5-0.4,2.2L298.2,476.2L298.2,476.2z"/>
		<polygon class="st2" points="304.6,481 304.6,470.8 302.3,470.8 302.3,469.4 307.9,469.4 307.9,470.8 305.6,470.8 305.6,481 		"/>
		<polygon class="st2" points="309,481 309,469.4 309.9,469.4 309.9,481 		"/>
		<path class="st2" d="M313.6,481l2.7-11.6h1l2.9,11.6h-1.1l-0.8-3.5h-3l-0.8,3.5H313.6L313.6,481z M315.6,476.2h2.4l-0.7-3.2
			c-0.2-1-0.4-1.8-0.5-2.4c-0.1,0.7-0.2,1.5-0.4,2.2L315.6,476.2L315.6,476.2z"/>
		<path class="st2" d="M323.4,477.3l0.9-0.1c0,0.6,0.1,1.1,0.3,1.4c0.2,0.4,0.4,0.7,0.7,0.9s0.7,0.3,1.1,0.3c0.4,0,0.7-0.1,0.9-0.3
			c0.3-0.2,0.5-0.4,0.6-0.7s0.2-0.6,0.2-1s-0.1-0.7-0.2-0.9c-0.1-0.3-0.3-0.5-0.6-0.7c-0.2-0.1-0.6-0.3-1.3-0.6
			c-0.6-0.3-1.1-0.5-1.4-0.7c-0.3-0.3-0.6-0.6-0.8-1.1c-0.2-0.4-0.2-0.9-0.2-1.4c0-0.6,0.1-1.1,0.3-1.6s0.5-0.9,0.9-1.2
			s0.8-0.4,1.3-0.4s1,0.1,1.4,0.4c0.4,0.3,0.7,0.7,0.9,1.2s0.3,1.1,0.3,1.8l-0.9,0.1c-0.1-0.7-0.2-1.3-0.5-1.7s-0.7-0.6-1.2-0.6
			c-0.6,0-1,0.2-1.2,0.5c-0.3,0.3-0.4,0.7-0.4,1.2c0,0.4,0.1,0.8,0.3,1c0.2,0.3,0.7,0.5,1.4,0.8c0.8,0.3,1.3,0.5,1.6,0.7
			c0.4,0.3,0.7,0.7,0.9,1.2s0.3,1,0.3,1.6s-0.1,1.2-0.3,1.7s-0.5,1-0.9,1.3s-0.9,0.5-1.4,0.5c-0.6,0-1.2-0.2-1.6-0.5
			c-0.4-0.3-0.8-0.8-1-1.4C323.5,478.7,323.4,478,323.4,477.3L323.4,477.3z"/>
		<polygon class="st2" points="330.3,481 330.3,469.4 335.4,469.4 335.4,470.8 331.2,470.8 331.2,474.3 335.1,474.3 335.1,475.7 
			331.2,475.7 331.2,479.6 335.6,479.6 335.6,481 		"/>
		<path class="st2" d="M336.9,481v-11.6h3.1c0.6,0,1.1,0.1,1.4,0.3c0.3,0.2,0.6,0.6,0.8,1.1s0.3,1.1,0.3,1.7c0,0.8-0.2,1.5-0.5,2.1
			s-0.8,0.9-1.5,1.1c0.2,0.2,0.4,0.4,0.6,0.6c0.3,0.4,0.5,0.9,0.8,1.5l1.2,3.1h-1.2l-0.9-2.4c-0.3-0.7-0.5-1.2-0.7-1.6
			c-0.2-0.4-0.3-0.6-0.5-0.8c-0.1-0.1-0.3-0.2-0.4-0.3c-0.1,0-0.3-0.1-0.5-0.1h-1.1v5.1h-0.9L336.9,481L336.9,481z M337.8,474.5h2
			c0.4,0,0.8-0.1,1-0.2c0.2-0.1,0.4-0.4,0.5-0.7s0.2-0.7,0.2-1c0-0.5-0.1-1-0.4-1.3c-0.2-0.4-0.6-0.5-1.2-0.5h-2.2v3.7H337.8z"/>
		<path class="st2" d="M345.8,481l-2.7-11.6h1l1.8,8.4c0.1,0.7,0.3,1.3,0.4,1.9c0.1-0.6,0.2-1.3,0.4-1.9l1.9-8.4h1l-2.8,11.6H345.8
			L345.8,481z"/>
		<polygon class="st2" points="350.6,481 350.6,469.4 351.5,469.4 351.5,481 		"/>
		<path class="st2" d="M352.6,481v-1.4l3.6-7.4c0.3-0.5,0.5-1,0.7-1.4H353v-1.4h5.1v1.4l-4,8l-0.4,0.8h4.5v1.4L352.6,481L352.6,481z
			"/>
		<polygon class="st2" points="359.4,481 359.4,469.4 360.3,469.4 360.3,481 		"/>
		<path class="st2" d="M361.7,475.3c0-1.9,0.3-3.4,0.9-4.5c0.6-1.1,1.4-1.6,2.4-1.6c0.7,0,1.2,0.3,1.8,0.8c0.5,0.5,0.9,1.2,1.2,2.1
			c0.3,0.9,0.4,1.9,0.4,3.1c0,1.2-0.1,2.2-0.4,3.1c-0.3,0.9-0.7,1.6-1.2,2.1s-1.1,0.7-1.7,0.7c-0.7,0-1.3-0.3-1.8-0.8
			s-0.9-1.2-1.2-2.2C361.8,477.3,361.7,476.3,361.7,475.3L361.7,475.3z M362.6,475.4c0,1.4,0.2,2.5,0.7,3.3s1,1.2,1.7,1.2
			s1.3-0.4,1.7-1.2c0.5-0.8,0.7-2,0.7-3.4c0-0.9-0.1-1.8-0.3-2.5s-0.5-1.2-0.9-1.6c-0.4-0.4-0.8-0.6-1.3-0.6c-0.7,0-1.2,0.4-1.7,1.1
			C362.9,472.4,362.6,473.6,362.6,475.4L362.6,475.4z"/>
		<path class="st2" d="M200,499v-11.6h2.4c0.5,0,1,0.1,1.3,0.2c0.4,0.2,0.8,0.4,1,0.8c0.4,0.5,0.7,1.2,0.8,2
			c0.2,0.8,0.3,1.7,0.3,2.7c0,0.9-0.1,1.7-0.2,2.3c-0.1,0.7-0.3,1.2-0.5,1.7c-0.2,0.4-0.4,0.8-0.6,1c-0.2,0.3-0.5,0.4-0.8,0.6
			c-0.3,0.1-0.7,0.2-1.1,0.2L200,499L200,499z M200.9,497.6h1.5c0.5,0,0.8-0.1,1.1-0.2c0.3-0.1,0.5-0.3,0.6-0.6
			c0.2-0.4,0.4-0.8,0.5-1.5c0.1-0.6,0.2-1.4,0.2-2.2c0-1.2-0.1-2.1-0.4-2.8c-0.2-0.7-0.5-1.1-0.9-1.3c-0.2-0.2-0.7-0.2-1.2-0.2h-1.5
			L200.9,497.6L200.9,497.6z"/>
		<polygon class="st2" points="207.2,499 207.2,487.4 208.2,487.4 208.2,499 		"/>
		<path class="st2" d="M212.6,499v-11.6h2.7c0.5,0,0.8,0,1.1,0.1c0.3,0.1,0.6,0.3,0.9,0.5c0.2,0.3,0.4,0.6,0.6,1.1
			c0.1,0.5,0.2,1,0.2,1.6c0,1-0.2,1.8-0.6,2.5s-1.1,1-2.1,1h-1.8v4.7h-1L212.6,499L212.6,499z M213.5,492.9h1.8c0.6,0,1-0.2,1.3-0.5
			c0.3-0.4,0.4-0.9,0.4-1.6c0-0.5-0.1-0.9-0.2-1.2c-0.2-0.3-0.3-0.6-0.6-0.7c-0.2-0.1-0.4-0.1-0.9-0.1h-1.8L213.5,492.9L213.5,492.9
			z"/>
		<polygon class="st2" points="219.2,499 219.2,487.4 224.3,487.4 224.3,488.8 220.1,488.8 220.1,492.3 224,492.3 224,493.7 
			220.1,493.7 220.1,497.6 224.5,497.6 224.5,499 		"/>
		<path class="st2" d="M225.8,499v-11.6h3.1c0.6,0,1.1,0.1,1.4,0.3s0.6,0.6,0.8,1.1c0.2,0.5,0.3,1.1,0.3,1.7c0,0.8-0.2,1.5-0.5,2.1
			s-0.8,0.9-1.5,1.1c0.2,0.2,0.4,0.4,0.6,0.6c0.3,0.4,0.5,0.9,0.8,1.5l1.2,3.1h-1.2l-0.9-2.4c-0.3-0.7-0.5-1.2-0.7-1.6
			c-0.2-0.4-0.3-0.6-0.5-0.8c-0.1-0.1-0.3-0.3-0.4-0.3s-0.3-0.1-0.5-0.1h-1.1v5.1h-0.9L225.8,499L225.8,499z M226.7,492.5h2
			c0.4,0,0.8-0.1,1-0.2c0.2-0.1,0.4-0.4,0.5-0.7s0.2-0.7,0.2-1c0-0.5-0.1-1-0.4-1.3c-0.2-0.4-0.6-0.5-1.2-0.5h-2.2v3.7H226.7z"/>
		<path class="st2" d="M232.6,495.3l0.9-0.1c0,0.6,0.1,1.1,0.3,1.4c0.2,0.4,0.4,0.7,0.7,0.9c0.3,0.2,0.7,0.3,1.1,0.3
			s0.7-0.1,0.9-0.3c0.3-0.2,0.5-0.4,0.6-0.7s0.2-0.6,0.2-1s-0.1-0.7-0.2-1s-0.3-0.5-0.6-0.7c-0.2-0.1-0.6-0.3-1.3-0.6
			c-0.6-0.3-1.1-0.5-1.4-0.7c-0.3-0.3-0.6-0.6-0.8-1.1c-0.2-0.4-0.2-0.9-0.2-1.4c0-0.6,0.1-1.1,0.3-1.6c0.2-0.5,0.5-0.9,0.9-1.2
			s0.8-0.4,1.3-0.4s1,0.1,1.4,0.4c0.4,0.3,0.7,0.7,0.9,1.2c0.2,0.5,0.3,1.1,0.3,1.8l-0.9,0.1c0-0.7-0.2-1.3-0.5-1.7
			s-0.7-0.6-1.2-0.6c-0.6,0-1,0.2-1.2,0.5c-0.3,0.3-0.4,0.7-0.4,1.2c0,0.4,0.1,0.8,0.3,1c0.2,0.3,0.6,0.5,1.4,0.8s1.3,0.5,1.6,0.7
			c0.4,0.3,0.7,0.7,0.9,1.2c0.2,0.5,0.3,1,0.3,1.6s-0.1,1.2-0.3,1.7c-0.2,0.5-0.5,1-0.9,1.3s-0.9,0.5-1.4,0.5
			c-0.6,0-1.2-0.2-1.6-0.5s-0.8-0.8-1-1.4C232.7,496.7,232.6,496.1,232.6,495.3L232.6,495.3z"/>
		<path class="st2" d="M239.2,493.4c0-1.9,0.3-3.4,0.9-4.5s1.4-1.6,2.4-1.6c0.7,0,1.2,0.3,1.8,0.8c0.5,0.5,0.9,1.2,1.2,2.1
			c0.3,0.9,0.4,1.9,0.4,3.1c0,1.2-0.1,2.2-0.4,3.1c-0.3,0.9-0.7,1.6-1.2,2.1s-1.1,0.7-1.7,0.7c-0.7,0-1.3-0.3-1.8-0.8
			s-0.9-1.2-1.2-2.2C239.3,495.3,239.2,494.4,239.2,493.4L239.2,493.4z M240.2,493.4c0,1.4,0.2,2.5,0.7,3.3s1,1.2,1.7,1.2
			s1.3-0.4,1.7-1.2c0.5-0.8,0.7-2,0.7-3.4c0-0.9-0.1-1.8-0.3-2.5c-0.2-0.7-0.5-1.2-0.9-1.6c-0.4-0.4-0.8-0.6-1.3-0.6
			c-0.7,0-1.2,0.4-1.7,1.1C240.4,490.4,240.2,491.7,240.2,493.4L240.2,493.4z"/>
		<polygon class="st2" points="247.2,499 247.2,487.4 248.1,487.4 251.8,496.5 251.8,487.4 252.7,487.4 252.7,499 251.8,499 
			248.1,489.9 248.1,499 		"/>
		<polygon class="st2" points="254.3,499 254.3,487.4 259.4,487.4 259.4,488.8 255.3,488.8 255.3,492.3 259.2,492.3 259.2,493.7 
			255.3,493.7 255.3,497.6 259.6,497.6 259.6,499 		"/>
		<polygon class="st2" points="263.8,499 263.8,487.4 264.7,487.4 264.7,499 		"/>
		<polygon class="st2" points="266.4,499 266.4,487.4 267.3,487.4 271.1,496.5 271.1,487.4 272,487.4 272,499 271,499 267.3,489.9 
			267.3,499 		"/>
		<path class="st2" d="M275.6,499l-2.7-11.6h1l1.8,8.4c0.1,0.7,0.3,1.3,0.4,1.9c0.1-0.6,0.2-1.3,0.4-1.9l1.9-8.4h1l-2.8,11.6H275.6
			L275.6,499z"/>
		<path class="st2" d="M278.6,499l2.7-11.6h1l2.9,11.6h-1.1l-0.8-3.5h-3l-0.8,3.5H278.6L278.6,499z M280.7,494.2h2.4l-0.7-3.2
			c-0.2-1-0.4-1.8-0.5-2.4c-0.1,0.7-0.2,1.5-0.4,2.2L280.7,494.2L280.7,494.2z"/>
		<polygon class="st2" points="285.9,499 285.9,487.4 286.9,487.4 286.9,497.6 290.4,497.6 290.4,499 		"/>
		<polygon class="st2" points="291.6,499 291.6,487.4 292.6,487.4 292.6,499 		"/>
		<path class="st2" d="M294.2,499v-11.6h2.4c0.5,0,1,0.1,1.3,0.2c0.4,0.2,0.8,0.4,1,0.8c0.4,0.5,0.7,1.2,0.8,2
			c0.2,0.8,0.3,1.7,0.3,2.7c0,0.9-0.1,1.7-0.2,2.3c-0.1,0.7-0.3,1.2-0.5,1.7c-0.2,0.4-0.4,0.8-0.6,1c-0.2,0.3-0.5,0.4-0.8,0.6
			c-0.3,0.1-0.7,0.2-1.1,0.2L294.2,499L294.2,499z M295.2,497.6h1.5c0.5,0,0.8-0.1,1.1-0.2c0.3-0.1,0.5-0.3,0.6-0.6
			c0.2-0.4,0.4-0.8,0.5-1.5c0.1-0.6,0.2-1.4,0.2-2.2c0-1.2-0.1-2.1-0.4-2.8c-0.2-0.7-0.5-1.1-0.9-1.3c-0.3-0.2-0.7-0.2-1.2-0.2h-1.5
			v8.8H295.2z"/>
		<polygon class="st2" points="301.4,499 301.4,487.4 306.5,487.4 306.5,488.8 302.3,488.8 302.3,492.3 306.2,492.3 306.2,493.7 
			302.3,493.7 302.3,497.6 306.7,497.6 306.7,499 		"/>
		<polygon class="st2" points="199.7,554.2 199.7,552.8 202.3,552.8 202.3,554.2 		"/>
		<path class="st2" d="M206,557.7v-11.6h2.6c0.5,0,0.8,0,1.1,0.1c0.3,0.1,0.6,0.3,0.9,0.5c0.2,0.3,0.4,0.6,0.6,1.1
			c0.1,0.5,0.2,1,0.2,1.6c0,1-0.2,1.8-0.6,2.5s-1.1,1-2,1H207v4.7h-1L206,557.7L206,557.7z M207,551.6h1.8c0.6,0,1-0.2,1.3-0.6
			c0.2-0.4,0.4-0.9,0.4-1.6c0-0.5-0.1-0.9-0.2-1.2s-0.3-0.6-0.6-0.7c-0.2-0.1-0.4-0.1-0.9-0.1H207L207,551.6L207,551.6z"/>
		<path class="st2" d="M212.2,552c0-1.9,0.3-3.4,0.9-4.5s1.4-1.6,2.4-1.6c0.6,0,1.2,0.3,1.7,0.8s0.9,1.2,1.2,2.1
			c0.3,0.9,0.4,1.9,0.4,3.1c0,1.2-0.1,2.2-0.4,3.1c-0.3,0.9-0.7,1.6-1.2,2.1s-1.1,0.7-1.7,0.7c-0.7,0-1.2-0.3-1.8-0.8
			c-0.5-0.5-0.9-1.2-1.2-2.2C212.4,554,212.2,553.1,212.2,552L212.2,552z M213.2,552.1c0,1.4,0.2,2.5,0.7,3.3s1,1.2,1.7,1.2
			s1.3-0.4,1.7-1.2c0.4-0.8,0.7-2,0.7-3.4c0-0.9-0.1-1.8-0.3-2.5c-0.2-0.7-0.5-1.2-0.8-1.6c-0.4-0.4-0.8-0.6-1.2-0.6
			c-0.7,0-1.2,0.4-1.7,1.1C213.4,549.1,213.2,550.3,213.2,552.1L213.2,552.1z"/>
		<polygon class="st2" points="220.1,557.7 220.1,546.1 221,546.1 221,556.3 224.4,556.3 224.4,557.7 		"/>
		<polygon class="st2" points="225.7,557.7 225.7,546.1 226.6,546.1 226.6,557.7 		"/>
		<path class="st2" d="M227.6,557.7v-1.4l3.6-7.4c0.3-0.5,0.5-1,0.7-1.4H228v-1.4h5v1.4l-3.9,8l-0.4,0.8h4.4v1.4L227.6,557.7
			L227.6,557.7z"/>
		<polygon class="st2" points="234.3,557.7 234.3,546.1 235.2,546.1 235.2,557.7 		"/>
		<path class="st2" d="M236.1,557.7l2.7-11.6h1l2.8,11.6h-1.1l-0.8-3.5h-2.9l-0.8,3.5H236.1L236.1,557.7z M238.1,552.9h2.4l-0.7-3.2
			c-0.2-1-0.4-1.8-0.5-2.4c-0.1,0.7-0.2,1.5-0.4,2.2L238.1,552.9L238.1,552.9z"/>
		<path class="st2" d="M243.4,557.7v-1.6h1v1.6c0,0.6-0.1,1.1-0.2,1.4c-0.1,0.4-0.3,0.6-0.6,0.8l-0.2-0.6c0.2-0.1,0.3-0.3,0.4-0.6
			s0.1-0.6,0.1-1.1L243.4,557.7L243.4,557.7z"/>
		<path class="st2" d="M248,557.7l2.7-11.6h1l2.8,11.6h-1.1l-0.8-3.5h-2.9l-0.8,3.5H248L248,557.7z M250,552.9h2.4l-0.7-3.2
			c-0.2-1-0.4-1.8-0.5-2.4c-0.1,0.7-0.2,1.5-0.4,2.2L250,552.9L250,552.9z"/>
		<path class="st2" d="M255.2,557.7v-11.6h1.4l1.6,8.2c0.2,0.8,0.3,1.3,0.3,1.7c0.1-0.4,0.2-1,0.4-1.9l1.7-8h1.2v11.6h-0.9V548
			l-2,9.7h-0.8l-2-9.8v9.8H255.2L255.2,557.7z"/>
		<path class="st2" d="M263.3,557.7v-11.6h2.6c0.5,0,1,0.1,1.3,0.3s0.6,0.6,0.8,1.1c0.2,0.5,0.3,1,0.3,1.5s-0.1,1-0.2,1.4
			c-0.2,0.4-0.4,0.8-0.7,1.1c0.4,0.2,0.7,0.6,1,1c0.2,0.5,0.3,1.1,0.3,1.8c0,0.5-0.1,1-0.2,1.5s-0.3,0.8-0.5,1.1s-0.5,0.4-0.8,0.6
			c-0.3,0.1-0.7,0.2-1.1,0.2L263.3,557.7L263.3,557.7z M264.2,551h1.5c0.4,0,0.7,0,0.9-0.1c0.2-0.1,0.4-0.3,0.5-0.6s0.2-0.6,0.2-1
			s-0.1-0.7-0.2-1s-0.3-0.5-0.5-0.6s-0.6-0.2-1.1-0.2h-1.4v3.5L264.2,551L264.2,551z M264.2,556.3h1.7c0.3,0,0.5,0,0.6-0.1
			c0.2-0.1,0.4-0.2,0.5-0.3s0.3-0.4,0.4-0.6c0.1-0.3,0.1-0.6,0.1-1s-0.1-0.8-0.2-1.1s-0.3-0.5-0.6-0.7c-0.2-0.1-0.6-0.2-1-0.2h-1.6
			v4L264.2,556.3L264.2,556.3z"/>
		<path class="st2" d="M274.4,546.1h0.9v6.7c0,1.2-0.1,2.1-0.2,2.8c-0.2,0.7-0.4,1.2-0.9,1.7c-0.4,0.4-1,0.6-1.6,0.6
			c-0.7,0-1.2-0.2-1.6-0.6c-0.4-0.4-0.7-0.9-0.9-1.6c-0.2-0.7-0.3-1.7-0.3-2.9v-6.7h0.9v6.7c0,1,0.1,1.7,0.2,2.2s0.3,0.8,0.6,1.1
			c0.3,0.3,0.6,0.4,1,0.4c0.7,0,1.2-0.3,1.4-0.8c0.3-0.5,0.4-1.5,0.4-2.9v-6.7H274.4z"/>
		<polygon class="st2" points="276.8,557.7 276.8,546.1 277.7,546.1 277.7,556.3 281.1,556.3 281.1,557.7 		"/>
		<path class="st2" d="M281.5,557.7l2.7-11.6h1l2.8,11.6h-1l-0.8-3.5h-2.9l-0.8,3.5H281.5L281.5,557.7z M283.5,552.9h2.4l-0.7-3.2
			c-0.2-1-0.4-1.8-0.5-2.4c-0.1,0.7-0.2,1.5-0.4,2.2L283.5,552.9L283.5,552.9z"/>
		<polygon class="st2" points="288.7,557.7 288.7,546.1 289.6,546.1 293.3,555.2 293.3,546.1 294.2,546.1 294.2,557.7 293.2,557.7 
			289.6,548.6 289.6,557.7 		"/>
		<path class="st2" d="M295.2,557.7v-1.4l3.6-7.4c0.3-0.5,0.5-1,0.7-1.4h-3.9v-1.4h5v1.4l-3.9,8l-0.4,0.8h4.4v1.4L295.2,557.7
			L295.2,557.7z"/>
		<polygon class="st2" points="301.7,557.7 301.7,546.1 306.7,546.1 306.7,547.5 302.6,547.5 302.6,551 306.5,551 306.5,552.4 
			302.6,552.4 302.6,556.3 306.9,556.3 306.9,557.7 		"/>
		<path class="st2" d="M308.3,557.7v-1.6h1v1.6c0,0.6-0.1,1.1-0.2,1.4c-0.1,0.4-0.3,0.6-0.6,0.8l-0.2-0.6c0.2-0.1,0.3-0.3,0.4-0.6
			c0.1-0.3,0.1-0.6,0.1-1.1L308.3,557.7L308.3,557.7z"/>
		<path class="st2" d="M202.1,575.7l-2.7-11.6h1l1.8,8.4c0.1,0.7,0.3,1.3,0.4,1.9c0.1-0.6,0.2-1.3,0.4-1.9l1.9-8.4h0.9l-2.7,11.6
			H202.1L202.1,575.7z"/>
		<polygon class="st2" points="206.7,575.7 206.7,564.1 207.7,564.1 207.7,575.7 		"/>
		<path class="st2" d="M212.5,571.2v-1.4h2.9v4.3c-0.5,0.6-0.9,1-1.4,1.4c-0.5,0.3-1,0.5-1.5,0.5c-0.7,0-1.3-0.2-1.9-0.7
			s-1-1.2-1.3-2.1c-0.3-0.9-0.4-1.9-0.4-3.1c0-1.1,0.1-2.2,0.4-3.1c0.3-1,0.7-1.7,1.2-2.2s1.1-0.7,1.8-0.7c0.5,0,1,0.1,1.4,0.4
			c0.4,0.3,0.7,0.6,1,1.1c0.2,0.5,0.4,1.1,0.5,1.9l-0.8,0.4c-0.1-0.6-0.2-1.1-0.4-1.4c-0.2-0.3-0.4-0.6-0.7-0.8
			c-0.3-0.2-0.6-0.3-1-0.3s-0.8,0.1-1.1,0.3c-0.3,0.2-0.6,0.5-0.7,0.8c-0.2,0.3-0.3,0.7-0.4,1.1c-0.2,0.7-0.3,1.5-0.3,2.3
			c0,1,0.1,1.9,0.3,2.6c0.2,0.7,0.5,1.2,0.9,1.5s0.8,0.5,1.3,0.5c0.4,0,0.8-0.1,1.2-0.4c0.4-0.3,0.7-0.5,0.9-0.8v-2.2h-1.9V571.2z"
			/>
		<polygon class="st2" points="217,575.7 217,564.1 217.9,564.1 217.9,575.7 		"/>
		<polygon class="st2" points="219.5,575.7 219.5,564.1 220.4,564.1 220.4,574.3 223.9,574.3 223.9,575.7 		"/>
		<polygon class="st2" points="225.1,575.7 225.1,564.1 226,564.1 226,575.7 		"/>
		<path class="st2" d="M230.4,575.7v-11.6h2.4c0.5,0,1,0.1,1.2,0.2c0.4,0.2,0.7,0.4,1,0.8c0.4,0.5,0.6,1.2,0.8,2
			c0.2,0.8,0.3,1.7,0.3,2.7c0,0.9-0.1,1.7-0.2,2.3c-0.1,0.7-0.3,1.2-0.5,1.7c-0.2,0.4-0.4,0.8-0.6,1c-0.2,0.3-0.5,0.4-0.8,0.6
			c-0.3,0.1-0.7,0.2-1.1,0.2L230.4,575.7L230.4,575.7z M231.3,574.3h1.5c0.5,0,0.8-0.1,1.1-0.2c0.3-0.1,0.5-0.3,0.6-0.6
			c0.2-0.4,0.4-0.9,0.5-1.5s0.2-1.4,0.2-2.2c0-1.2-0.1-2.1-0.4-2.8c-0.2-0.7-0.5-1.1-0.9-1.3c-0.2-0.2-0.6-0.2-1.2-0.2h-1.4V574.3
			L231.3,574.3z"/>
		<polygon class="st2" points="237.4,575.7 237.4,564.1 242.4,564.1 242.4,565.5 238.3,565.5 238.3,569 242.2,569 242.2,570.4 
			238.3,570.4 238.3,574.3 242.6,574.3 242.6,575.7 		"/>
		<polygon class="st2" points="243.8,575.7 243.8,564.1 244.8,564.1 244.8,574.3 248.2,574.3 248.2,575.7 		"/>
		<polygon class="st2" points="252,575.7 252,564.1 256.7,564.1 256.7,565.5 252.9,565.5 252.9,569.1 256.2,569.1 256.2,570.4 
			252.9,570.4 252.9,575.7 		"/>
		<path class="st2" d="M262.5,564.1h0.9v6.7c0,1.2-0.1,2.1-0.2,2.8c-0.2,0.7-0.4,1.2-0.9,1.7c-0.4,0.4-1,0.6-1.6,0.6
			c-0.7,0-1.2-0.2-1.6-0.6c-0.4-0.4-0.7-0.9-0.9-1.6c-0.2-0.7-0.3-1.7-0.3-2.9v-6.7h0.9v6.7c0,1,0.1,1.7,0.2,2.2s0.3,0.8,0.6,1.1
			c0.3,0.3,0.6,0.4,1,0.4c0.7,0,1.2-0.3,1.4-0.8c0.3-0.5,0.4-1.5,0.4-2.9v-6.7H262.5z"/>
		<path class="st2" d="M264.7,570.1c0-1.9,0.3-3.4,0.9-4.5s1.4-1.6,2.4-1.6c0.6,0,1.2,0.3,1.7,0.8s0.9,1.2,1.2,2.1
			c0.3,0.9,0.4,1.9,0.4,3.1c0,1.2-0.1,2.2-0.4,3.1c-0.3,0.9-0.7,1.6-1.2,2.1s-1.1,0.7-1.7,0.7c-0.7,0-1.2-0.3-1.8-0.8
			c-0.5-0.5-0.9-1.2-1.2-2.2C264.8,572,264.7,571.1,264.7,570.1L264.7,570.1z M265.6,570.1c0,1.4,0.2,2.5,0.7,3.3s1,1.2,1.7,1.2
			s1.3-0.4,1.7-1.2c0.4-0.8,0.7-2,0.7-3.4c0-0.9-0.1-1.8-0.3-2.5c-0.2-0.7-0.5-1.2-0.8-1.6c-0.4-0.4-0.8-0.6-1.2-0.6
			c-0.7,0-1.2,0.4-1.7,1.1C265.8,567.1,265.6,568.4,265.6,570.1L265.6,570.1z"/>
		<path class="st2" d="M277.5,571.6l0.9,0.4c-0.2,1.3-0.5,2.2-1,2.9s-1.1,1-1.8,1c-0.8,0-1.4-0.3-1.8-0.8c-0.5-0.5-0.8-1.2-1.1-2.2
			c-0.2-1-0.4-2-0.4-3.1c0-1.2,0.1-2.3,0.4-3.1c0.3-0.9,0.7-1.6,1.2-2c0.5-0.5,1.1-0.7,1.7-0.7c0.7,0,1.3,0.3,1.8,0.9
			c0.5,0.6,0.8,1.4,1,2.5l-0.9,0.4c-0.2-0.8-0.4-1.5-0.7-1.8c-0.3-0.4-0.7-0.6-1.2-0.6s-1,0.2-1.3,0.6c-0.4,0.4-0.6,1-0.8,1.7
			c-0.1,0.7-0.2,1.5-0.2,2.2c0,1,0.1,1.8,0.3,2.6c0.2,0.7,0.4,1.3,0.8,1.6c0.4,0.4,0.8,0.5,1.2,0.5c0.5,0,1-0.2,1.3-0.7
			C277.1,573.3,277.3,572.6,277.5,571.6L277.5,571.6z"/>
		<path class="st2" d="M279.2,570.1c0-1.9,0.3-3.4,0.9-4.5s1.4-1.6,2.4-1.6c0.6,0,1.2,0.3,1.7,0.8s0.9,1.2,1.2,2.1
			c0.3,0.9,0.4,1.9,0.4,3.1c0,1.2-0.1,2.2-0.4,3.1c-0.3,0.9-0.7,1.6-1.2,2.1s-1.1,0.7-1.7,0.7c-0.7,0-1.2-0.3-1.8-0.8
			c-0.5-0.5-0.9-1.2-1.2-2.2C279.4,572,279.2,571.1,279.2,570.1L279.2,570.1z M280.2,570.1c0,1.4,0.2,2.5,0.7,3.3
			c0.5,0.8,1,1.2,1.7,1.2s1.3-0.4,1.7-1.2s0.7-2,0.7-3.4c0-0.9-0.1-1.8-0.3-2.5s-0.5-1.2-0.8-1.6c-0.4-0.4-0.8-0.6-1.2-0.6
			c-0.7,0-1.2,0.4-1.7,1.1C280.4,567.1,280.2,568.4,280.2,570.1L280.2,570.1z"/>
		<path class="st2" d="M201.6,597.1c-0.5-1-0.9-2.1-1.2-3.5c-0.3-1.3-0.5-2.7-0.5-4.1c0-1.2,0.1-2.4,0.4-3.6c0.3-1.3,0.7-2.7,1.3-4
			h0.6c-0.4,1.1-0.6,1.9-0.8,2.3c-0.2,0.7-0.3,1.5-0.5,2.3c-0.1,1-0.2,2-0.2,3c0,2.5,0.5,5.1,1.4,7.6H201.6L201.6,597.1z"/>
		<path class="st2" d="M202.9,591.2l0.8-0.2c0,0.6,0.2,1,0.4,1.3c0.2,0.3,0.5,0.4,0.9,0.4s0.7-0.1,0.9-0.4c0.2-0.3,0.3-0.6,0.3-0.9
			c0-0.3-0.1-0.6-0.3-0.8c-0.1-0.1-0.4-0.3-0.9-0.5c-0.6-0.3-1.1-0.5-1.3-0.7c-0.2-0.2-0.4-0.5-0.6-0.8c-0.1-0.3-0.2-0.7-0.2-1.1
			c0-0.4,0.1-0.7,0.2-1s0.2-0.6,0.4-0.8c0.1-0.2,0.3-0.3,0.5-0.4c0.2-0.1,0.5-0.2,0.7-0.2c0.4,0,0.7,0.1,1,0.3s0.5,0.4,0.7,0.8
			c0.1,0.3,0.2,0.8,0.3,1.3l-0.8,0.2c0-0.4-0.1-0.8-0.3-1c-0.2-0.2-0.4-0.4-0.8-0.4s-0.7,0.1-0.8,0.3c-0.2,0.2-0.3,0.5-0.3,0.8
			c0,0.2,0,0.3,0.1,0.5s0.2,0.3,0.3,0.4c0.1,0.1,0.3,0.2,0.8,0.4c0.6,0.3,1,0.5,1.3,0.7c0.2,0.2,0.4,0.4,0.6,0.7
			c0.1,0.3,0.2,0.7,0.2,1.2s-0.1,0.9-0.2,1.3c-0.2,0.4-0.4,0.7-0.7,1c-0.3,0.2-0.7,0.3-1.1,0.3c-0.7,0-1.2-0.2-1.5-0.7
			C203.2,592.8,203,592.1,202.9,591.2L202.9,591.2z"/>
		<path class="st2" d="M207.8,589.5c0-1.5,0.3-2.7,0.8-3.4c0.4-0.6,1-0.9,1.6-0.9c0.7,0,1.3,0.4,1.7,1.1c0.4,0.8,0.7,1.8,0.7,3.1
			c0,1.1-0.1,1.9-0.3,2.5c-0.2,0.6-0.5,1.1-0.8,1.4c-0.4,0.3-0.8,0.5-1.2,0.5c-0.7,0-1.3-0.4-1.7-1.1C208,592,207.8,591,207.8,589.5
			L207.8,589.5z M208.7,589.5c0,1.1,0.1,1.9,0.4,2.4s0.6,0.8,1.1,0.8c0.4,0,0.8-0.3,1.1-0.8c0.3-0.5,0.4-1.4,0.4-2.5
			c0-1-0.1-1.8-0.4-2.4c-0.3-0.5-0.6-0.8-1.1-0.8c-0.4,0-0.8,0.3-1.1,0.8C208.8,587.7,208.7,588.5,208.7,589.5L208.7,589.5z"/>
		<polygon class="st2" points="213.5,593.7 213.5,582.2 214.3,582.2 214.3,593.7 		"/>
		<path class="st2" d="M215.3,589.5c0-1.5,0.3-2.7,0.8-3.4c0.4-0.6,1-0.9,1.6-0.9c0.7,0,1.3,0.4,1.7,1.1c0.4,0.8,0.7,1.8,0.7,3.1
			c0,1.1-0.1,1.9-0.3,2.5c-0.2,0.6-0.5,1.1-0.8,1.4c-0.4,0.3-0.8,0.5-1.2,0.5c-0.7,0-1.3-0.4-1.7-1.1
			C215.6,592,215.3,591,215.3,589.5L215.3,589.5z M216.2,589.5c0,1.1,0.1,1.9,0.4,2.4s0.6,0.8,1.1,0.8c0.4,0,0.8-0.3,1.1-0.8
			c0.3-0.5,0.4-1.4,0.4-2.5c0-1-0.1-1.8-0.4-2.4c-0.3-0.5-0.6-0.8-1.1-0.8c-0.4,0-0.8,0.3-1.1,0.8
			C216.4,587.7,216.2,588.5,216.2,589.5L216.2,589.5z"/>
		<path class="st2" d="M223.8,583.8v-1.6h0.9v1.6H223.8L223.8,583.8z M223.8,593.7v-8.4h0.9v8.4H223.8L223.8,593.7z"/>
		<path class="st2" d="M225.9,593.7v-8.4h0.8v1.2c0.4-0.9,0.9-1.4,1.6-1.4c0.3,0,0.6,0.1,0.8,0.3c0.3,0.2,0.4,0.4,0.6,0.7
			c0.1,0.3,0.2,0.6,0.3,1c0,0.3,0,0.7,0,1.4v5.1h-0.9v-5.1c0-0.6,0-1-0.1-1.3s-0.2-0.5-0.4-0.7c-0.2-0.2-0.4-0.3-0.6-0.3
			c-0.4,0-0.7,0.2-0.9,0.6c-0.3,0.4-0.4,1.1-0.4,2.2v4.6h-0.8V593.7z"/>
		<path class="st2" d="M233.7,591.2l0.8-0.2c0,0.6,0.2,1,0.4,1.3c0.2,0.3,0.5,0.4,0.9,0.4s0.7-0.1,0.9-0.4c0.2-0.3,0.3-0.6,0.3-0.9
			c0-0.3-0.1-0.6-0.3-0.8c-0.1-0.1-0.4-0.3-0.9-0.5c-0.6-0.3-1.1-0.5-1.3-0.7c-0.2-0.2-0.4-0.5-0.6-0.8c-0.1-0.3-0.2-0.7-0.2-1.1
			c0-0.4,0.1-0.7,0.2-1s0.2-0.6,0.4-0.8c0.1-0.2,0.3-0.3,0.5-0.4c0.2-0.1,0.5-0.2,0.7-0.2c0.4,0,0.7,0.1,1,0.3s0.5,0.4,0.7,0.8
			c0.1,0.3,0.2,0.8,0.3,1.3l-0.8,0.2c0-0.4-0.1-0.8-0.3-1c-0.2-0.2-0.4-0.4-0.8-0.4s-0.7,0.1-0.8,0.3c-0.2,0.2-0.3,0.5-0.3,0.8
			c0,0.2,0,0.3,0.1,0.5s0.2,0.3,0.3,0.4c0.1,0.1,0.3,0.2,0.8,0.4c0.6,0.3,1,0.5,1.3,0.7c0.2,0.2,0.4,0.4,0.6,0.7
			c0.1,0.3,0.2,0.7,0.2,1.2s-0.1,0.9-0.2,1.3c-0.2,0.4-0.4,0.7-0.7,1c-0.3,0.2-0.7,0.3-1.1,0.3c-0.7,0-1.2-0.2-1.5-0.7
			C234,592.8,233.8,592.1,233.7,591.2L233.7,591.2z"/>
		<path class="st2" d="M242.3,591l0.9,0.2c-0.1,0.9-0.4,1.5-0.8,2s-0.9,0.7-1.4,0.7c-0.7,0-1.3-0.4-1.8-1.1
			c-0.4-0.8-0.6-1.8-0.6-3.2s0.2-2.5,0.7-3.3c0.4-0.8,1-1.2,1.7-1.2s1.2,0.4,1.7,1.1c0.4,0.8,0.6,1.8,0.6,3.2c0,0.1,0,0.2,0,0.4
			h-3.8c0,0.9,0.2,1.6,0.5,2.1s0.6,0.7,1.1,0.7c0.3,0,0.6-0.1,0.8-0.4C242,592.1,242.2,591.6,242.3,591L242.3,591z M239.5,588.7h2.8
			c0-0.7-0.1-1.2-0.3-1.6c-0.3-0.5-0.6-0.8-1.1-0.8c-0.4,0-0.7,0.2-1,0.7C239.7,587.4,239.6,588,239.5,588.7L239.5,588.7z"/>
		<path class="st2" d="M244.3,593.7v-8.4h0.8v1.3c0.2-0.6,0.4-1,0.5-1.2c0.2-0.2,0.3-0.3,0.5-0.3c0.3,0,0.6,0.2,0.9,0.5l-0.3,1.3
			c-0.2-0.2-0.4-0.3-0.6-0.3s-0.4,0.1-0.5,0.3s-0.3,0.4-0.3,0.8c-0.1,0.5-0.1,1.1-0.1,1.7v4.4L244.3,593.7L244.3,593.7z"/>
		<path class="st2" d="M248.9,593.7l-1.9-8.4h0.9l1.1,5c0.1,0.5,0.2,1.1,0.3,1.7c0.1-0.4,0.2-1,0.3-1.6l1.1-5.1h0.9l-1.9,8.4
			L248.9,593.7L248.9,593.7z"/>
		<path class="st2" d="M252.4,583.8v-1.6h0.9v1.6H252.4L252.4,583.8z M252.4,593.7v-8.4h0.9v8.4H252.4L252.4,593.7z"/>
		<path class="st2" d="M254.1,593.7v-1.2l3.2-6.1c-0.4,0-0.7,0-1,0h-2v-1.1h4.1v0.9l-2.7,5.3l-0.5,1c0.4,0,0.7-0.1,1.1-0.1h2.3v1.2
			L254.1,593.7L254.1,593.7z"/>
		<path class="st2" d="M259.4,583.8v-1.6h0.9v1.6H259.4L259.4,583.8z M259.4,593.7v-8.4h0.9v8.4H259.4L259.4,593.7z"/>
		<path class="st2" d="M261.3,589.5c0-1.5,0.3-2.7,0.8-3.4c0.4-0.6,1-0.9,1.6-0.9c0.7,0,1.3,0.4,1.7,1.1c0.4,0.8,0.7,1.8,0.7,3.1
			c0,1.1-0.1,1.9-0.3,2.5c-0.2,0.6-0.5,1.1-0.8,1.4c-0.4,0.3-0.8,0.5-1.2,0.5c-0.7,0-1.3-0.4-1.7-1.1
			C261.5,592,261.3,591,261.3,589.5L261.3,589.5z M262.1,589.5c0,1.1,0.1,1.9,0.4,2.4s0.6,0.8,1.1,0.8c0.4,0,0.8-0.3,1.1-0.8
			c0.3-0.5,0.4-1.4,0.4-2.5c0-1-0.1-1.8-0.4-2.4c-0.3-0.5-0.6-0.8-1.1-0.8c-0.4,0-0.8,0.3-1.1,0.8
			C262.3,587.7,262.1,588.5,262.1,589.5L262.1,589.5z"/>
		<path class="st2" d="M273,593.7v-1.2c-0.4,0.9-0.9,1.4-1.6,1.4c-0.3,0-0.6-0.1-0.8-0.3c-0.3-0.2-0.4-0.4-0.6-0.7
			c-0.1-0.3-0.2-0.6-0.3-1.1c0-0.3-0.1-0.7-0.1-1.3v-5.2h0.9v4.6c0,0.7,0,1.2,0.1,1.5c0.1,0.4,0.2,0.7,0.3,0.9
			c0.2,0.2,0.4,0.3,0.6,0.3c0.3,0,0.5-0.1,0.7-0.3s0.4-0.5,0.5-0.9s0.1-0.9,0.1-1.6v-4.5h0.9v8.4L273,593.7L273,593.7z"/>
		<path class="st2" d="M275.1,593.7v-8.4h0.8v1.3c0.2-0.6,0.4-1,0.5-1.2c0.2-0.2,0.3-0.3,0.5-0.3c0.3,0,0.6,0.2,0.9,0.5l-0.3,1.3
			c-0.2-0.2-0.4-0.3-0.6-0.3s-0.4,0.1-0.5,0.3s-0.3,0.4-0.3,0.8c-0.1,0.5-0.1,1.1-0.1,1.7v4.4L275.1,593.7L275.1,593.7z"/>
		<path class="st2" d="M278.2,594.4l0.8,0.2c0,0.4,0.1,0.7,0.3,0.9c0.2,0.3,0.5,0.4,0.9,0.4s0.7-0.1,0.9-0.4
			c0.2-0.3,0.4-0.6,0.4-1.1c0-0.3,0.1-0.9,0.1-1.8c-0.4,0.7-0.8,1.1-1.4,1.1c-0.7,0-1.2-0.4-1.6-1.2s-0.6-1.8-0.6-3
			c0-0.8,0.1-1.5,0.3-2.2c0.2-0.7,0.4-1.2,0.8-1.6c0.3-0.4,0.7-0.6,1.2-0.6c0.6,0,1.1,0.4,1.5,1.2v-1h0.8v7.2c0,1.3-0.1,2.2-0.2,2.8
			c-0.2,0.5-0.4,1-0.8,1.3c-0.3,0.3-0.8,0.5-1.3,0.5c-0.6,0-1.1-0.2-1.5-0.7C278.3,596,278.2,595.3,278.2,594.4L278.2,594.4z
			 M278.9,589.4c0,1.1,0.1,1.9,0.4,2.4s0.6,0.8,1,0.8s0.7-0.3,1-0.8s0.4-1.3,0.4-2.4c0-1-0.1-1.8-0.4-2.3c-0.3-0.5-0.6-0.8-1-0.8
			s-0.7,0.3-1,0.8S278.9,588.4,278.9,589.4L278.9,589.4z"/>
		<path class="st2" d="M287.2,591l0.9,0.2c-0.1,0.9-0.4,1.5-0.8,2c-0.4,0.5-0.9,0.7-1.4,0.7c-0.7,0-1.3-0.4-1.8-1.1
			c-0.4-0.8-0.6-1.8-0.6-3.2s0.2-2.5,0.7-3.3c0.4-0.8,1-1.2,1.7-1.2s1.2,0.4,1.7,1.1c0.4,0.8,0.6,1.8,0.6,3.2c0,0.1,0,0.2,0,0.4
			h-3.9c0,0.9,0.2,1.6,0.5,2.1s0.6,0.7,1.1,0.7c0.3,0,0.6-0.1,0.8-0.4C286.9,592.1,287,591.6,287.2,591L287.2,591z M284.4,588.7h2.8
			c0-0.7-0.1-1.2-0.3-1.6c-0.3-0.5-0.6-0.8-1.1-0.8c-0.4,0-0.7,0.2-1,0.7C284.6,587.4,284.4,588,284.4,588.7L284.4,588.7z"/>
		<path class="st2" d="M289.1,593.7v-8.4h0.8v1.2c0.4-0.9,0.9-1.4,1.6-1.4c0.3,0,0.6,0.1,0.8,0.3c0.3,0.2,0.4,0.4,0.6,0.7
			c0.1,0.3,0.2,0.6,0.3,1c0,0.3,0,0.7,0,1.4v5.1h-0.9v-5.1c0-0.6,0-1-0.1-1.3s-0.2-0.5-0.4-0.7s-0.4-0.3-0.6-0.3
			c-0.4,0-0.7,0.2-0.9,0.6c-0.3,0.4-0.4,1.1-0.4,2.2v4.6h-0.8V593.7z"/>
		<path class="st2" d="M296.4,592.5l0.1,1.3c-0.2,0.1-0.5,0.1-0.6,0.1c-0.3,0-0.6-0.1-0.7-0.2c-0.2-0.2-0.3-0.4-0.4-0.6
			c-0.1-0.3-0.1-0.8-0.1-1.7v-4.8h-0.6v-1.1h0.6v-2.1l0.8-0.8v2.9h0.9v1.1h-0.9v4.9c0,0.4,0,0.7,0,0.8s0.1,0.2,0.1,0.3
			c0.1,0.1,0.2,0.1,0.3,0.1C296.1,592.5,296.2,592.5,296.4,592.5L296.4,592.5z"/>
		<path class="st2" d="M300.7,591l0.9,0.2c-0.1,0.9-0.4,1.5-0.8,2c-0.4,0.5-0.9,0.7-1.4,0.7c-0.7,0-1.3-0.4-1.8-1.1
			c-0.4-0.8-0.6-1.8-0.6-3.2s0.2-2.5,0.7-3.3c0.4-0.8,1-1.2,1.7-1.2s1.2,0.4,1.7,1.1c0.4,0.8,0.6,1.8,0.6,3.2c0,0.1,0,0.2,0,0.4
			h-3.8c0,0.9,0.2,1.6,0.5,2.1s0.6,0.7,1.1,0.7c0.3,0,0.6-0.1,0.8-0.4C300.4,592.1,300.6,591.6,300.7,591L300.7,591z M297.9,588.7
			h2.8c0-0.7-0.1-1.2-0.3-1.6c-0.3-0.5-0.6-0.8-1.1-0.8c-0.4,0-0.7,0.2-1,0.7C298.1,587.4,297.9,588,297.9,588.7L297.9,588.7z"/>
		<path class="st2" d="M308.6,593.7v-1.1c-0.3,0.8-0.8,1.2-1.4,1.2c-0.4,0-0.8-0.2-1.1-0.6c-0.3-0.4-0.6-0.9-0.8-1.5
			c-0.2-0.7-0.3-1.4-0.3-2.3c0-0.8,0.1-1.6,0.3-2.3s0.4-1.2,0.8-1.6c0.3-0.4,0.7-0.5,1.1-0.5c0.3,0,0.6,0.1,0.8,0.3s0.4,0.5,0.6,0.8
			V582h0.8v11.6L308.6,593.7L308.6,593.7z M305.9,589.5c0,1.1,0.1,1.9,0.4,2.4c0.3,0.5,0.6,0.8,1,0.8s0.7-0.3,1-0.8s0.4-1.3,0.4-2.3
			c0-1.1-0.1-2-0.4-2.5c-0.3-0.5-0.6-0.8-1-0.8s-0.7,0.3-1,0.8C306,587.6,305.9,588.4,305.9,589.5L305.9,589.5z"/>
		<path class="st2" d="M310.8,583.8v-1.6h0.9v1.6H310.8L310.8,583.8z M310.8,593.7v-8.4h0.9v8.4H310.8L310.8,593.7z"/>
		<path class="st2" d="M319.1,591l0.9,0.2c-0.1,0.9-0.4,1.5-0.8,2c-0.4,0.5-0.9,0.7-1.4,0.7c-0.7,0-1.3-0.4-1.8-1.1
			c-0.4-0.8-0.6-1.8-0.6-3.2s0.2-2.5,0.7-3.3c0.4-0.8,1-1.2,1.7-1.2s1.2,0.4,1.7,1.1c0.4,0.8,0.6,1.8,0.6,3.2c0,0.1,0,0.2,0,0.4
			h-3.8c0,0.9,0.2,1.6,0.5,2.1s0.6,0.7,1.1,0.7c0.3,0,0.6-0.1,0.8-0.4C318.8,592.1,318.9,591.6,319.1,591L319.1,591z M316.3,588.7
			h2.8c0-0.7-0.1-1.2-0.3-1.6c-0.3-0.5-0.6-0.8-1.1-0.8c-0.4,0-0.7,0.2-1,0.7C316.4,587.4,316.3,588,316.3,588.7L316.3,588.7z"/>
		<path class="st2" d="M321,593.7v-8.4h0.8v1.2c0.2-0.4,0.4-0.7,0.6-1c0.3-0.3,0.6-0.4,0.9-0.4c0.4,0,0.7,0.1,0.9,0.4
			c0.2,0.3,0.4,0.6,0.5,1.1c0.4-1,0.9-1.5,1.6-1.5c0.5,0,0.9,0.2,1.2,0.7s0.4,1.2,0.4,2.1v5.7h-0.8v-5.3c0-0.6,0-1-0.1-1.2
			s-0.2-0.5-0.3-0.6c-0.1-0.2-0.3-0.2-0.5-0.2c-0.4,0-0.6,0.2-0.9,0.6c-0.2,0.4-0.4,1-0.4,1.9v4.9H324v-5.4c0-0.6-0.1-1.1-0.2-1.4
			c-0.1-0.3-0.4-0.5-0.7-0.5c-0.2,0-0.5,0.1-0.7,0.3s-0.4,0.5-0.4,0.9c-0.1,0.4-0.1,1-0.1,1.8v4.3L321,593.7L321,593.7z"/>
		<path class="st2" d="M332.6,591l0.9,0.2c-0.1,0.9-0.4,1.5-0.8,2c-0.4,0.5-0.9,0.7-1.4,0.7c-0.7,0-1.3-0.4-1.8-1.1
			c-0.4-0.8-0.6-1.8-0.6-3.2s0.2-2.5,0.7-3.3c0.4-0.8,1-1.2,1.7-1.2s1.2,0.4,1.6,1.1c0.4,0.8,0.6,1.8,0.6,3.2c0,0.1,0,0.2,0,0.4
			h-3.8c0,0.9,0.2,1.6,0.5,2.1s0.6,0.7,1.1,0.7c0.3,0,0.6-0.1,0.8-0.4C332.3,592.1,332.4,591.6,332.6,591L332.6,591z M329.8,588.7
			h2.8c0-0.7-0.1-1.2-0.3-1.6c-0.3-0.5-0.6-0.8-1.1-0.8c-0.4,0-0.7,0.2-1,0.7C329.9,587.4,329.8,588,329.8,588.7L329.8,588.7z"/>
		<path class="st2" d="M334.5,593.7v-8.4h0.8v1.3c0.2-0.6,0.4-1,0.5-1.2c0.2-0.2,0.3-0.3,0.5-0.3c0.3,0,0.6,0.2,0.9,0.5l-0.3,1.3
			c-0.2-0.2-0.4-0.3-0.6-0.3c-0.2,0-0.4,0.1-0.5,0.3s-0.3,0.4-0.3,0.8c-0.1,0.5-0.1,1.1-0.1,1.7v4.4L334.5,593.7L334.5,593.7z"/>
		<path class="st2" d="M337.6,594.4l0.8,0.2c0,0.4,0.1,0.7,0.3,0.9c0.2,0.3,0.5,0.4,0.9,0.4s0.7-0.1,0.9-0.4
			c0.2-0.3,0.4-0.6,0.4-1.1c0-0.3,0.1-0.9,0.1-1.8c-0.4,0.7-0.8,1.1-1.4,1.1c-0.7,0-1.2-0.4-1.6-1.2c-0.4-0.8-0.6-1.8-0.6-3
			c0-0.8,0.1-1.5,0.3-2.2s0.4-1.2,0.8-1.6c0.3-0.4,0.7-0.6,1.2-0.6c0.6,0,1.1,0.4,1.5,1.2v-1h0.8v7.2c0,1.3-0.1,2.2-0.2,2.8
			c-0.2,0.5-0.4,1-0.8,1.3c-0.3,0.3-0.8,0.5-1.3,0.5c-0.6,0-1.1-0.2-1.5-0.7C337.8,596,337.6,595.3,337.6,594.4L337.6,594.4z
			 M338.3,589.4c0,1.1,0.1,1.9,0.4,2.4c0.3,0.5,0.6,0.8,1,0.8s0.7-0.3,1-0.8s0.4-1.3,0.4-2.4c0-1-0.1-1.8-0.4-2.3
			c-0.3-0.5-0.6-0.8-1-0.8s-0.7,0.3-1,0.8C338.4,587.6,338.3,588.4,338.3,589.4L338.3,589.4z"/>
		<path class="st2" d="M346.6,591l0.9,0.2c-0.1,0.9-0.4,1.5-0.8,2c-0.4,0.5-0.9,0.7-1.4,0.7c-0.7,0-1.3-0.4-1.8-1.1
			c-0.4-0.8-0.6-1.8-0.6-3.2s0.2-2.5,0.7-3.3c0.4-0.8,1-1.2,1.7-1.2s1.2,0.4,1.6,1.1c0.4,0.8,0.6,1.8,0.6,3.2c0,0.1,0,0.2,0,0.4
			h-3.8c0,0.9,0.2,1.6,0.5,2.1s0.6,0.7,1.1,0.7c0.3,0,0.6-0.1,0.8-0.4C346.3,592.1,346.5,591.6,346.6,591L346.6,591z M343.8,588.7
			h2.8c0-0.7-0.1-1.2-0.3-1.6c-0.3-0.5-0.6-0.8-1.1-0.8c-0.4,0-0.7,0.2-1,0.7C344,587.4,343.8,588,343.8,588.7L343.8,588.7z"/>
		<path class="st2" d="M348.6,593.7v-8.4h0.8v1.2c0.4-0.9,0.9-1.4,1.6-1.4c0.3,0,0.6,0.1,0.8,0.3c0.3,0.2,0.4,0.4,0.6,0.7
			c0.1,0.3,0.2,0.6,0.3,1c0,0.3,0,0.7,0,1.4v5.1h-0.9v-5.1c0-0.6,0-1-0.1-1.3s-0.2-0.5-0.4-0.7s-0.4-0.3-0.6-0.3
			c-0.4,0-0.7,0.2-0.9,0.6c-0.3,0.4-0.4,1.1-0.4,2.2v4.6h-0.8L348.6,593.7L348.6,593.7z"/>
		<path class="st2" d="M353.5,593.7v-1.2l3.2-6.1c-0.4,0-0.7,0-1,0h-2.1v-1.1h4.1v0.9l-2.7,5.3l-0.5,1c0.4,0,0.7-0.1,1.1-0.1h2.3
			v1.2L353.5,593.7L353.5,593.7z"/>
		<path class="st2" d="M362.1,592.7c-0.3,0.4-0.6,0.8-0.9,0.9c-0.3,0.2-0.6,0.3-0.9,0.3c-0.6,0-1-0.2-1.3-0.7
			c-0.3-0.4-0.4-1-0.4-1.7c0-0.4,0.1-0.8,0.2-1.1c0.1-0.3,0.3-0.6,0.4-0.8c0.2-0.2,0.4-0.4,0.6-0.5c0.2-0.1,0.4-0.1,0.8-0.2
			c0.7-0.1,1.2-0.3,1.5-0.5c0-0.2,0-0.3,0-0.4c0-0.6-0.1-1-0.2-1.2c-0.2-0.3-0.5-0.5-1-0.5c-0.4,0-0.7,0.1-0.9,0.3s-0.3,0.6-0.4,1.2
			l-0.8-0.2c0.1-0.6,0.2-1.1,0.4-1.4c0.2-0.4,0.4-0.6,0.8-0.8c0.3-0.2,0.7-0.3,1.1-0.3c0.4,0,0.8,0.1,1,0.3c0.3,0.2,0.5,0.4,0.6,0.6
			c0.1,0.3,0.2,0.6,0.3,1c0,0.2,0,0.7,0,1.3v1.9c0,1.3,0,2.2,0.1,2.5c0,0.3,0.1,0.7,0.2,1h-1C362.2,593.4,362.2,593.1,362.1,592.7
			L362.1,592.7z M362.1,589.5c-0.3,0.2-0.8,0.4-1.4,0.5c-0.4,0.1-0.6,0.2-0.7,0.3c-0.1,0.1-0.3,0.3-0.3,0.5
			c-0.1,0.2-0.1,0.4-0.1,0.7c0,0.4,0.1,0.7,0.3,0.9s0.4,0.4,0.8,0.4c0.3,0,0.6-0.1,0.9-0.4c0.3-0.2,0.4-0.6,0.6-1
			c0.1-0.3,0.1-0.8,0.1-1.4v-0.5H362.1z"/>
		<path class="st2" d="M364.8,597.1h-0.6c0.9-2.5,1.4-5,1.4-7.6c0-1-0.1-2-0.2-2.9c-0.1-0.8-0.3-1.5-0.5-2.3
			c-0.1-0.5-0.4-1.3-0.8-2.4h0.6c0.6,1.3,1,2.6,1.3,4c0.2,1.1,0.4,2.3,0.4,3.6c0,1.4-0.2,2.8-0.5,4.1
			C365.7,595,365.3,596.1,364.8,597.1L364.8,597.1z"/>
		<polygon class="st2" points="199.5,630.4 199.5,629 202.1,629 202.1,630.4 		"/>
		<path class="st2" d="M207.9,633.9l-2.7-11.6h1l1.8,8.4c0.1,0.7,0.3,1.3,0.4,1.9c0.1-0.6,0.2-1.3,0.4-1.9l1.9-8.4h0.9l-2.7,11.6
			H207.9L207.9,633.9z"/>
		<polygon class="st2" points="212.4,633.9 212.4,622.3 217.4,622.3 217.4,623.7 213.3,623.7 213.3,627.2 217.2,627.2 217.2,628.6 
			213.3,628.6 213.3,632.5 217.6,632.5 217.6,633.9 		"/>
		<polygon class="st2" points="219,633.9 219,622.3 219.9,622.3 219.9,633.9 		"/>
		<path class="st2" d="M226.5,629.8l0.9,0.4c-0.2,1.3-0.5,2.2-1,2.9s-1.1,1-1.8,1c-0.8,0-1.4-0.3-1.8-0.8c-0.5-0.5-0.8-1.2-1.1-2.2
			c-0.2-1-0.4-2-0.4-3.1c0-1.2,0.1-2.3,0.4-3.1c0.3-0.9,0.7-1.6,1.2-2c0.5-0.5,1.1-0.7,1.7-0.7c0.7,0,1.3,0.3,1.8,0.9
			c0.5,0.6,0.8,1.4,1,2.5l-0.9,0.4c-0.2-0.8-0.4-1.5-0.7-1.8c-0.3-0.4-0.7-0.6-1.2-0.6s-1,0.2-1.3,0.6c-0.4,0.4-0.6,1-0.8,1.7
			c-0.1,0.7-0.2,1.5-0.2,2.2c0,1,0.1,1.8,0.3,2.6c0.2,0.7,0.4,1.3,0.8,1.6c0.4,0.4,0.8,0.5,1.2,0.5c0.5,0,1-0.2,1.3-0.7
			C226.2,631.5,226.4,630.8,226.5,629.8L226.5,629.8z"/>
		<path class="st2" d="M228.3,628.3c0-1.9,0.3-3.4,0.9-4.5s1.4-1.6,2.4-1.6c0.6,0,1.2,0.3,1.7,0.8s0.9,1.2,1.2,2.1
			c0.3,0.9,0.4,1.9,0.4,3.1c0,1.2-0.1,2.2-0.4,3.1c-0.3,0.9-0.7,1.6-1.2,2.1s-1.1,0.7-1.7,0.7c-0.7,0-1.2-0.3-1.8-0.8
			c-0.5-0.5-0.9-1.2-1.2-2.2C228.4,630.2,228.3,629.3,228.3,628.3L228.3,628.3z M229.2,628.3c0,1.4,0.2,2.5,0.7,3.3s1,1.2,1.7,1.2
			s1.3-0.4,1.7-1.2c0.4-0.8,0.7-2,0.7-3.4c0-0.9-0.1-1.8-0.3-2.5c-0.2-0.7-0.5-1.2-0.8-1.6c-0.4-0.4-0.8-0.6-1.2-0.6
			c-0.7,0-1.2,0.4-1.7,1.1C229.5,625.3,229.2,626.5,229.2,628.3L229.2,628.3z"/>
		<polygon class="st2" points="236.1,633.9 236.1,622.3 237,622.3 237,632.5 240.4,632.5 240.4,633.9 		"/>
		<polygon class="st2" points="241.7,633.9 241.7,622.3 242.6,622.3 242.6,633.9 		"/>
		<path class="st2" d="M246.9,633.9v-11.6h1.4l1.6,8.2c0.2,0.8,0.3,1.3,0.3,1.7c0.1-0.4,0.2-1,0.4-1.9l1.7-8h1.2v11.6h-0.9v-9.7
			l-2,9.7h-0.8l-2-9.8v9.8H246.9L246.9,633.9z"/>
		<polygon class="st2" points="255.1,633.9 255.1,622.3 260.1,622.3 260.1,623.7 256,623.7 256,627.2 259.8,627.2 259.8,628.6 
			256,628.6 256,632.5 260.3,632.5 260.3,633.9 		"/>
		<path class="st2" d="M261.5,633.9v-11.6h3.1c0.6,0,1.1,0.1,1.4,0.3s0.6,0.6,0.8,1.1c0.2,0.5,0.3,1.1,0.3,1.7
			c0,0.8-0.2,1.5-0.5,2.1s-0.8,0.9-1.5,1.1c0.2,0.2,0.4,0.4,0.6,0.6c0.3,0.4,0.5,0.9,0.8,1.5l1.2,3.1h-1.2l-0.9-2.4
			c-0.3-0.7-0.5-1.2-0.7-1.6c-0.2-0.4-0.3-0.6-0.5-0.8c-0.1-0.1-0.3-0.3-0.4-0.3s-0.3-0.1-0.5-0.1h-1.1v5.1h-0.9L261.5,633.9
			L261.5,633.9z M262.5,627.4h2c0.4,0,0.8-0.1,1-0.2c0.2-0.1,0.4-0.4,0.5-0.7s0.2-0.7,0.2-1c0-0.5-0.1-1-0.4-1.3
			c-0.2-0.4-0.6-0.5-1.1-0.5h-2.2V627.4L262.5,627.4z"/>
		<path class="st2" d="M273.5,629.8l0.9,0.4c-0.2,1.3-0.5,2.2-1,2.9s-1.1,1-1.8,1c-0.8,0-1.4-0.3-1.8-0.8c-0.5-0.5-0.8-1.2-1.1-2.2
			c-0.2-1-0.4-2-0.4-3.1c0-1.2,0.1-2.3,0.4-3.1c0.3-0.9,0.7-1.6,1.2-2c0.5-0.5,1.1-0.7,1.7-0.7c0.7,0,1.3,0.3,1.8,0.9
			c0.5,0.6,0.8,1.4,1,2.5l-0.9,0.4c-0.2-0.8-0.4-1.5-0.7-1.8c-0.3-0.4-0.7-0.6-1.2-0.6s-1,0.2-1.3,0.6c-0.4,0.4-0.6,1-0.8,1.7
			c-0.1,0.7-0.2,1.5-0.2,2.2c0,1,0.1,1.8,0.3,2.6c0.2,0.7,0.4,1.3,0.8,1.6c0.4,0.4,0.8,0.5,1.2,0.5c0.5,0,1-0.2,1.3-0.7
			C273.1,631.5,273.4,630.8,273.5,629.8L273.5,629.8z"/>
		<polygon class="st2" points="275.7,633.9 275.7,622.3 276.6,622.3 276.6,633.9 		"/>
		<path class="st2" d="M280.2,633.9l2.7-11.6h1l2.8,11.6h-1l-0.8-3.5H282l-0.8,3.5H280.2L280.2,633.9z M282.2,629.1h2.4l-0.7-3.2
			c-0.2-1-0.4-1.8-0.5-2.4c-0.1,0.7-0.2,1.5-0.4,2.2L282.2,629.1L282.2,629.1z"/>
		<path class="st2" d="M292,622.3h0.9v6.7c0,1.2-0.1,2.1-0.2,2.8c-0.2,0.7-0.4,1.2-0.9,1.7c-0.4,0.4-1,0.6-1.6,0.6
			c-0.7,0-1.2-0.2-1.6-0.6c-0.4-0.4-0.7-0.9-0.9-1.6c-0.2-0.7-0.3-1.7-0.3-2.9v-6.7h0.9v6.7c0,1,0.1,1.7,0.2,2.2
			c0.1,0.5,0.3,0.8,0.6,1.1s0.6,0.4,1,0.4c0.7,0,1.2-0.3,1.4-0.8c0.3-0.5,0.4-1.5,0.4-2.9L292,622.3L292,622.3z"/>
		<polygon class="st2" points="296.2,633.9 296.2,623.7 294,623.7 294,622.3 299.5,622.3 299.5,623.7 297.2,623.7 297.2,633.9 		"/>
		<path class="st2" d="M300,628.3c0-1.9,0.3-3.4,0.9-4.5c0.6-1.1,1.4-1.6,2.4-1.6c0.6,0,1.2,0.3,1.7,0.8s0.9,1.2,1.2,2.1
			c0.3,0.9,0.4,1.9,0.4,3.1c0,1.2-0.1,2.2-0.4,3.1c-0.3,0.9-0.7,1.6-1.2,2.1s-1.1,0.7-1.7,0.7c-0.7,0-1.2-0.3-1.8-0.8
			c-0.5-0.5-0.9-1.2-1.2-2.2C300.1,630.2,300,629.3,300,628.3L300,628.3z M300.9,628.3c0,1.4,0.2,2.5,0.7,3.3s1,1.2,1.7,1.2
			s1.3-0.4,1.7-1.2s0.7-2,0.7-3.4c0-0.9-0.1-1.8-0.3-2.5s-0.5-1.2-0.8-1.6c-0.4-0.4-0.8-0.6-1.2-0.6c-0.7,0-1.2,0.4-1.7,1.1
			C301.1,625.3,300.9,626.5,300.9,628.3L300.9,628.3z"/>
		<path class="st2" d="M307.8,633.9v-11.6h3.1c0.6,0,1.1,0.1,1.4,0.3c0.3,0.2,0.6,0.6,0.8,1.1s0.3,1.1,0.3,1.7
			c0,0.8-0.2,1.5-0.5,2.1s-0.8,0.9-1.5,1.1c0.2,0.2,0.4,0.4,0.6,0.6c0.3,0.4,0.5,0.9,0.8,1.5l1.2,3.1h-1.2l-0.9-2.4
			c-0.3-0.7-0.5-1.2-0.7-1.6c-0.2-0.4-0.3-0.6-0.5-0.8c-0.1-0.1-0.3-0.3-0.4-0.3c-0.1,0-0.3-0.1-0.5-0.1h-1.1v5.1h-0.9L307.8,633.9
			L307.8,633.9z M308.7,627.4h2c0.4,0,0.8-0.1,1-0.2c0.2-0.1,0.4-0.4,0.5-0.7s0.2-0.7,0.2-1c0-0.5-0.1-1-0.4-1.3
			c-0.2-0.4-0.6-0.5-1.1-0.5h-2.2V627.4L308.7,627.4z"/>
		<polygon class="st2" points="315,633.9 315,622.3 315.9,622.3 315.9,633.9 		"/>
		<path class="st2" d="M317,633.9v-1.4l3.6-7.4c0.3-0.5,0.5-1,0.7-1.4h-3.9v-1.4h5v1.4l-3.9,8l-0.4,0.8h4.4v1.4L317,633.9L317,633.9
			z"/>
		<path class="st2" d="M322.9,633.9v-1.4l3.6-7.4c0.3-0.5,0.5-1,0.7-1.4h-3.9v-1.4h5v1.4l-3.9,8l-0.4,0.8h4.4v1.4L322.9,633.9
			L322.9,633.9z"/>
		<path class="st2" d="M328.6,633.9l2.7-11.6h1l2.9,11.6h-1.1l-0.8-3.5h-2.9l-0.8,3.5H328.6L328.6,633.9z M330.6,629.1h2.4l-0.7-3.2
			c-0.2-1-0.4-1.8-0.5-2.4c-0.1,0.7-0.2,1.5-0.4,2.2L330.6,629.1L330.6,629.1z"/>
		<polygon class="st2" points="336.9,633.9 336.9,623.7 334.6,623.7 334.6,622.3 340.2,622.3 340.2,623.7 337.9,623.7 337.9,633.9 
					"/>
		<polygon class="st2" points="341.3,633.9 341.3,622.3 342.2,622.3 342.2,633.9 		"/>
		<path class="st2" d="M199.5,647.7c0-1.5,0.3-2.7,0.8-3.4c0.4-0.6,1-0.9,1.6-0.9c0.7,0,1.3,0.4,1.7,1.1c0.4,0.8,0.7,1.8,0.7,3.1
			c0,1.1-0.1,1.9-0.3,2.5c-0.2,0.6-0.5,1.1-0.8,1.4c-0.4,0.3-0.8,0.5-1.2,0.5c-0.7,0-1.3-0.4-1.7-1.1
			C199.7,650.2,199.5,649.1,199.5,647.7L199.5,647.7z M200.4,647.7c0,1.1,0.1,1.9,0.4,2.4s0.6,0.8,1.1,0.8c0.4,0,0.8-0.3,1.1-0.8
			c0.3-0.5,0.4-1.4,0.4-2.4s-0.1-1.8-0.4-2.4c-0.3-0.5-0.6-0.8-1.1-0.8c-0.4,0-0.8,0.3-1.1,0.8C200.5,645.9,200.4,646.7,200.4,647.7
			L200.4,647.7z"/>
		<path class="st2" d="M205.2,651.9v-8.4h0.8v1.3c0.2-0.6,0.4-1,0.5-1.2c0.2-0.2,0.3-0.3,0.5-0.3c0.3,0,0.6,0.2,0.9,0.5l-0.3,1.3
			c-0.2-0.2-0.4-0.3-0.6-0.3s-0.4,0.1-0.5,0.3s-0.3,0.4-0.3,0.8c-0.1,0.5-0.1,1.1-0.1,1.7v4.4L205.2,651.9L205.2,651.9z"/>
		<path class="st2" d="M211.8,650.9c-0.3,0.4-0.6,0.8-0.9,0.9c-0.3,0.2-0.6,0.3-0.9,0.3c-0.6,0-1-0.2-1.3-0.7
			c-0.3-0.4-0.4-1-0.4-1.7c0-0.4,0.1-0.8,0.2-1.1s0.3-0.6,0.4-0.8c0.2-0.2,0.4-0.4,0.6-0.5s0.4-0.1,0.8-0.2c0.7-0.1,1.2-0.3,1.5-0.5
			c0-0.2,0-0.3,0-0.4c0-0.6-0.1-1-0.2-1.2c-0.2-0.3-0.5-0.5-1-0.5c-0.4,0-0.7,0.1-0.9,0.3c-0.2,0.2-0.3,0.6-0.4,1.2l-0.8-0.2
			c0.1-0.6,0.2-1.1,0.4-1.4c0.2-0.4,0.4-0.6,0.8-0.8c0.3-0.2,0.7-0.3,1.1-0.3s0.8,0.1,1,0.3c0.3,0.2,0.5,0.4,0.6,0.6
			c0.1,0.3,0.2,0.6,0.3,1c0,0.2,0,0.7,0,1.3v1.9c0,1.3,0,2.2,0.1,2.5c0,0.3,0.1,0.7,0.2,1h-0.9C211.8,651.6,211.8,651.3,211.8,650.9
			L211.8,650.9z M211.7,647.7c-0.3,0.2-0.8,0.4-1.4,0.5c-0.4,0.1-0.6,0.2-0.7,0.3s-0.3,0.3-0.3,0.5c-0.1,0.2-0.1,0.4-0.1,0.7
			c0,0.4,0.1,0.7,0.3,0.9c0.2,0.3,0.4,0.4,0.8,0.4c0.3,0,0.6-0.1,0.9-0.4c0.3-0.2,0.4-0.6,0.6-1c0.1-0.3,0.1-0.8,0.1-1.4v-0.5H211.7
			z"/>
		<path class="st2" d="M213.9,651.9v-8.4h0.8v1.3c0.2-0.6,0.4-1,0.5-1.2c0.2-0.2,0.3-0.3,0.5-0.3c0.3,0,0.6,0.2,0.9,0.5l-0.3,1.3
			c-0.2-0.2-0.4-0.3-0.6-0.3s-0.4,0.1-0.5,0.3s-0.3,0.4-0.3,0.8c-0.1,0.5-0.1,1.1-0.1,1.7v4.4L213.9,651.9L213.9,651.9z"/>
		<path class="st2" d="M217.1,642v-1.6h0.9v1.6H217.1L217.1,642z M217.1,651.9v-8.4h0.9v8.4H217.1L217.1,651.9z"/>
		<path class="st2" d="M219,647.7c0-1.5,0.3-2.7,0.8-3.4c0.4-0.6,1-0.9,1.6-0.9c0.7,0,1.3,0.4,1.7,1.1c0.4,0.8,0.7,1.8,0.7,3.1
			c0,1.1-0.1,1.9-0.3,2.5c-0.2,0.6-0.5,1.1-0.8,1.4c-0.4,0.3-0.8,0.5-1.2,0.5c-0.7,0-1.3-0.4-1.7-1.1
			C219.2,650.2,219,649.1,219,647.7L219,647.7z M219.8,647.7c0,1.1,0.1,1.9,0.4,2.4s0.6,0.8,1.1,0.8c0.4,0,0.8-0.3,1.1-0.8
			c0.3-0.5,0.4-1.4,0.4-2.4s-0.1-1.8-0.4-2.4c-0.3-0.5-0.6-0.8-1.1-0.8c-0.4,0-0.8,0.3-1.1,0.8C220,645.9,219.8,646.7,219.8,647.7
			L219.8,647.7z"/>
		<path class="st2" d="M238.5,651.9h-0.9v-9c-0.2,0.3-0.5,0.7-0.8,1s-0.6,0.6-0.9,0.7v-1.4c0.5-0.4,0.9-0.8,1.3-1.4
			c0.4-0.5,0.6-1,0.8-1.5h0.6v11.6L238.5,651.9L238.5,651.9z"/>
		<path class="st2" d="M243.4,651.9v-2.8h-3v-1.3l3.2-7.5h0.7v7.5h0.9v1.3h-0.9v2.8H243.4L243.4,651.9z M243.4,647.8v-5.2l-2.2,5.2
			H243.4L243.4,647.8z"/>
		<path class="st2" d="M246.5,651.9v-1.6h1v1.6c0,0.6-0.1,1.1-0.2,1.4c-0.1,0.4-0.3,0.6-0.6,0.8l-0.2-0.6c0.2-0.1,0.3-0.3,0.4-0.6
			s0.1-0.6,0.1-1.1L246.5,651.9L246.5,651.9z"/>
		<path class="st2" d="M248.8,646.2c0-1.4,0.1-2.5,0.3-3.3c0.2-0.8,0.4-1.5,0.8-1.9c0.3-0.5,0.8-0.7,1.3-0.7c0.4,0,0.7,0.1,1,0.4
			c0.3,0.2,0.5,0.6,0.7,1.1s0.3,1,0.4,1.7s0.2,1.6,0.2,2.7c0,1.4-0.1,2.4-0.3,3.3s-0.4,1.5-0.8,1.9c-0.3,0.5-0.8,0.7-1.3,0.7
			c-0.7,0-1.2-0.4-1.6-1.2C249,650,248.8,648.4,248.8,646.2L248.8,646.2z M249.6,646.2c0,1.9,0.1,3.2,0.4,3.8s0.6,0.9,1,0.9
			s0.7-0.3,1-0.9c0.3-0.6,0.4-1.9,0.4-3.8c0-1.9-0.1-3.2-0.4-3.8s-0.6-0.9-1-0.9s-0.7,0.3-0.9,0.8
			C249.8,643,249.6,644.3,249.6,646.2L249.6,646.2z"/>
		<path class="st2" d="M254.2,646.2c0-1.4,0.1-2.5,0.3-3.3c0.2-0.8,0.4-1.5,0.8-1.9c0.3-0.5,0.8-0.7,1.3-0.7c0.4,0,0.7,0.1,1,0.4
			c0.3,0.2,0.5,0.6,0.7,1.1s0.3,1,0.4,1.7s0.2,1.6,0.2,2.7c0,1.4-0.1,2.4-0.3,3.3c-0.2,0.8-0.4,1.5-0.8,1.9
			c-0.3,0.5-0.8,0.7-1.3,0.7c-0.7,0-1.2-0.4-1.6-1.2C254.4,650,254.2,648.4,254.2,646.2L254.2,646.2z M255.1,646.2
			c0,1.9,0.1,3.2,0.4,3.8s0.6,0.9,1,0.9s0.7-0.3,1-0.9c0.3-0.6,0.4-1.9,0.4-3.8c0-1.9-0.1-3.2-0.4-3.8s-0.6-0.9-1-0.9
			s-0.7,0.3-0.9,0.8C255.2,643,255.1,644.3,255.1,646.2L255.1,646.2z"/>
		<polygon class="st2" points="262.2,648.4 262.2,647 264.8,647 264.8,648.4 		"/>
		<path class="st2" d="M271.4,651.9h-0.9v-9c-0.2,0.3-0.5,0.7-0.8,1s-0.6,0.6-0.9,0.7v-1.4c0.5-0.4,0.9-0.8,1.3-1.4
			c0.4-0.5,0.6-1,0.8-1.5h0.5V651.9L271.4,651.9z"/>
		<path class="st2" d="M278.1,643.2l-0.8,0.1c-0.1-0.6-0.2-1-0.3-1.2c-0.2-0.4-0.5-0.6-0.9-0.6c-0.3,0-0.5,0.1-0.7,0.4
			c-0.3,0.3-0.5,0.8-0.6,1.4c-0.2,0.6-0.2,1.5-0.2,2.7c0.2-0.5,0.5-0.9,0.8-1.2c0.3-0.2,0.6-0.4,0.9-0.4c0.6,0,1.1,0.3,1.5,1
			s0.6,1.6,0.6,2.7c0,0.7-0.1,1.4-0.3,2c-0.2,0.6-0.4,1.1-0.8,1.4c-0.3,0.3-0.7,0.5-1.1,0.5c-0.7,0-1.3-0.4-1.7-1.3
			c-0.5-0.9-0.7-2.3-0.7-4.3c0-2.2,0.2-3.9,0.7-4.9c0.4-0.9,1-1.3,1.8-1.3c0.5,0,1,0.3,1.3,0.8C277.8,641.6,278,642.3,278.1,643.2
			L278.1,643.2z M274.6,648.2c0,0.5,0.1,1,0.2,1.4s0.3,0.8,0.5,1s0.5,0.4,0.7,0.4c0.4,0,0.7-0.2,0.9-0.7c0.3-0.5,0.4-1.1,0.4-2
			c0-0.8-0.1-1.4-0.4-1.9s-0.6-0.7-1-0.7s-0.7,0.2-1,0.7C274.7,646.8,274.6,647.4,274.6,648.2L274.6,648.2z"/>
		<path class="st2" d="M279.5,651.9v-1.6h1v1.6c0,0.6-0.1,1.1-0.2,1.4c-0.1,0.4-0.3,0.6-0.6,0.8l-0.2-0.6c0.2-0.1,0.3-0.3,0.4-0.6
			s0.1-0.6,0.1-1.1L279.5,651.9L279.5,651.9z"/>
		<path class="st2" d="M281.7,646.2c0-1.4,0.1-2.5,0.3-3.3s0.4-1.5,0.8-1.9c0.3-0.5,0.8-0.7,1.3-0.7c0.4,0,0.7,0.1,1,0.4
			c0.3,0.2,0.5,0.6,0.7,1.1s0.3,1,0.4,1.7c0.1,0.7,0.2,1.6,0.2,2.7c0,1.4-0.1,2.4-0.3,3.3c-0.2,0.8-0.4,1.5-0.8,1.9
			c-0.3,0.5-0.8,0.7-1.3,0.7c-0.7,0-1.2-0.4-1.6-1.2C282,650,281.7,648.4,281.7,646.2L281.7,646.2z M282.6,646.2
			c0,1.9,0.1,3.2,0.4,3.8c0.3,0.6,0.6,0.9,1,0.9s0.7-0.3,1-0.9c0.3-0.6,0.4-1.9,0.4-3.8c0-1.9-0.1-3.2-0.4-3.8
			c-0.3-0.6-0.6-0.9-1-0.9s-0.7,0.3-0.9,0.8C282.8,643,282.6,644.3,282.6,646.2L282.6,646.2z"/>
		<path class="st2" d="M287.1,646.2c0-1.4,0.1-2.5,0.3-3.3s0.4-1.5,0.8-1.9c0.3-0.5,0.8-0.7,1.3-0.7c0.4,0,0.7,0.1,1,0.4
			c0.3,0.2,0.5,0.6,0.7,1.1s0.3,1,0.4,1.7c0.1,0.7,0.2,1.6,0.2,2.7c0,1.4-0.1,2.4-0.3,3.3s-0.4,1.5-0.8,1.9
			c-0.3,0.5-0.8,0.7-1.3,0.7c-0.7,0-1.2-0.4-1.6-1.2C287.4,650,287.1,648.4,287.1,646.2L287.1,646.2z M288,646.2
			c0,1.9,0.1,3.2,0.4,3.8c0.3,0.6,0.6,0.9,1,0.9s0.7-0.3,1-0.9c0.3-0.6,0.4-1.9,0.4-3.8c0-1.9-0.1-3.2-0.4-3.8
			c-0.3-0.6-0.6-0.9-1-0.9s-0.7,0.3-0.9,0.8C288.2,643,288,644.3,288,646.2L288,646.2z"/>
		<path class="st2" d="M241.9,668.6v1.4h-4.6c0-0.3,0-0.7,0.1-1c0.1-0.5,0.3-1,0.6-1.5c0.3-0.5,0.6-1.1,1.1-1.7
			c0.8-1,1.3-1.8,1.5-2.4c0.3-0.6,0.4-1.2,0.4-1.7c0-0.6-0.1-1-0.4-1.4c-0.2-0.4-0.6-0.6-0.9-0.6c-0.4,0-0.7,0.2-1,0.6
			c-0.2,0.4-0.4,1-0.4,1.7l-0.9-0.1c0.1-1.1,0.3-1.9,0.7-2.5c0.4-0.6,0.9-0.9,1.6-0.9s1.2,0.3,1.6,0.9c0.4,0.6,0.6,1.4,0.6,2.3
			c0,0.5-0.1,0.9-0.2,1.4c-0.1,0.4-0.3,0.9-0.6,1.4c-0.3,0.5-0.7,1.2-1.3,2c-0.5,0.7-0.8,1.2-1,1.5c-0.1,0.3-0.3,0.5-0.4,0.8h3.5
			L241.9,668.6L241.9,668.6z"/>
		<path class="st2" d="M245.6,669.9v-2.8h-3v-1.3l3.2-7.5h0.7v7.5h0.9v1.3h-0.9v2.8H245.6L245.6,669.9z M245.6,665.9v-5.2l-2.2,5.2
			H245.6L245.6,665.9z"/>
		<path class="st2" d="M248.7,669.9v-1.6h1v1.6c0,0.6-0.1,1.1-0.2,1.4c-0.1,0.4-0.3,0.6-0.6,0.8l-0.2-0.6c0.2-0.1,0.3-0.3,0.4-0.6
			s0.1-0.6,0.1-1.1L248.7,669.9L248.7,669.9z"/>
		<path class="st2" d="M250.9,664.2c0-1.4,0.1-2.5,0.3-3.3c0.2-0.8,0.4-1.5,0.8-1.9c0.3-0.5,0.8-0.7,1.3-0.7c0.4,0,0.7,0.1,1,0.4
			c0.3,0.2,0.5,0.6,0.7,1.1s0.3,1,0.4,1.7s0.2,1.6,0.2,2.7c0,1.4-0.1,2.4-0.3,3.3c-0.2,0.8-0.4,1.5-0.8,1.9
			c-0.3,0.5-0.8,0.7-1.3,0.7c-0.7,0-1.2-0.4-1.6-1.2C251.2,668,250.9,666.4,250.9,664.2L250.9,664.2z M251.8,664.2
			c0,1.9,0.1,3.2,0.4,3.8s0.6,0.9,1,0.9s0.7-0.3,1-0.9c0.3-0.6,0.4-1.9,0.4-3.8c0-1.9-0.1-3.2-0.4-3.8s-0.6-0.9-1-0.9
			s-0.7,0.3-0.9,0.8C252,661,251.8,662.3,251.8,664.2L251.8,664.2z"/>
		<path class="st2" d="M256.4,664.2c0-1.4,0.1-2.5,0.3-3.3c0.2-0.8,0.4-1.5,0.8-1.9c0.3-0.5,0.8-0.7,1.3-0.7c0.4,0,0.7,0.1,1,0.4
			c0.3,0.2,0.5,0.6,0.7,1.1s0.3,1,0.4,1.7s0.2,1.6,0.2,2.7c0,1.4-0.1,2.4-0.3,3.3s-0.4,1.5-0.8,1.9c-0.3,0.5-0.8,0.7-1.3,0.7
			c-0.7,0-1.2-0.4-1.6-1.2C256.6,668,256.4,666.4,256.4,664.2L256.4,664.2z M257.2,664.2c0,1.9,0.1,3.2,0.4,3.8s0.6,0.9,1,0.9
			s0.7-0.3,1-0.9c0.3-0.6,0.4-1.9,0.4-3.8c0-1.9-0.1-3.2-0.4-3.8s-0.6-0.9-1-0.9s-0.7,0.3-0.9,0.8
			C257.4,661,257.2,662.3,257.2,664.2L257.2,664.2z"/>
		<polygon class="st2" points="264.4,666.5 264.4,665 267,665 267,666.5 		"/>
		<path class="st2" d="M270.4,664.2c0-1.4,0.1-2.5,0.3-3.3c0.2-0.8,0.4-1.5,0.8-1.9c0.3-0.5,0.8-0.7,1.3-0.7c0.4,0,0.7,0.1,1,0.4
			c0.3,0.2,0.5,0.6,0.7,1.1s0.3,1,0.4,1.7s0.2,1.6,0.2,2.7c0,1.4-0.1,2.4-0.3,3.3c-0.2,0.8-0.4,1.5-0.8,1.9
			c-0.3,0.5-0.8,0.7-1.3,0.7c-0.7,0-1.2-0.4-1.6-1.2C270.6,668,270.4,666.4,270.4,664.2L270.4,664.2z M271.3,664.2
			c0,1.9,0.1,3.2,0.4,3.8s0.6,0.9,1,0.9s0.7-0.3,1-0.9c0.3-0.6,0.4-1.9,0.4-3.8c0-1.9-0.1-3.2-0.4-3.8s-0.6-0.9-1-0.9
			s-0.7,0.3-0.9,0.8C271.4,661,271.3,662.3,271.3,664.2L271.3,664.2z"/>
		<path class="st2" d="M275.9,667.3l0.8-0.1c0.1,0.6,0.2,1.1,0.4,1.4c0.2,0.3,0.4,0.4,0.8,0.4c0.3,0,0.5-0.1,0.7-0.3
			s0.4-0.5,0.5-0.8s0.2-0.8,0.3-1.4c0.1-0.6,0.1-1.1,0.1-1.7c0-0.1,0-0.2,0-0.3c-0.2,0.4-0.4,0.8-0.7,1.1c-0.3,0.3-0.6,0.4-1,0.4
			c-0.6,0-1.1-0.3-1.5-1s-0.6-1.6-0.6-2.7c0-1.2,0.2-2.1,0.6-2.8s0.9-1.1,1.6-1.1c0.5,0,0.9,0.2,1.2,0.6c0.4,0.4,0.7,1,0.9,1.7
			c0.2,0.7,0.3,1.8,0.3,3.3s-0.1,2.7-0.3,3.5c-0.2,0.9-0.5,1.5-0.9,2s-0.8,0.7-1.3,0.7s-1-0.3-1.3-0.8
			C276.2,668.9,276,668.2,275.9,667.3L275.9,667.3z M279.4,662.2c0-0.8-0.1-1.5-0.4-1.9c-0.3-0.5-0.6-0.7-0.9-0.7
			c-0.4,0-0.7,0.3-1,0.8s-0.4,1.2-0.4,2c0,0.7,0.1,1.3,0.4,1.8s0.6,0.7,1,0.7s0.7-0.2,1-0.7C279.3,663.6,279.4,663,279.4,662.2
			L279.4,662.2z"/>
		<path class="st2" d="M281.7,669.9v-1.6h1v1.6c0,0.6-0.1,1.1-0.2,1.4c-0.1,0.4-0.3,0.6-0.6,0.8l-0.2-0.6c0.2-0.1,0.3-0.3,0.4-0.6
			c0.1-0.3,0.1-0.6,0.1-1.1L281.7,669.9L281.7,669.9z"/>
		<path class="st2" d="M283.9,664.2c0-1.4,0.1-2.5,0.3-3.3s0.4-1.5,0.8-1.9c0.3-0.5,0.8-0.7,1.3-0.7c0.4,0,0.7,0.1,1,0.4
			c0.3,0.2,0.5,0.6,0.7,1.1s0.3,1,0.4,1.7c0.1,0.7,0.2,1.6,0.2,2.7c0,1.4-0.1,2.4-0.3,3.3c-0.2,0.8-0.4,1.5-0.8,1.9
			c-0.3,0.5-0.8,0.7-1.3,0.7c-0.7,0-1.2-0.4-1.6-1.2C284.1,668,283.9,666.4,283.9,664.2L283.9,664.2z M284.8,664.2
			c0,1.9,0.1,3.2,0.4,3.8c0.3,0.6,0.6,0.9,1,0.9s0.7-0.3,1-0.9c0.3-0.6,0.4-1.9,0.4-3.8c0-1.9-0.1-3.2-0.4-3.8
			c-0.3-0.6-0.6-0.9-1-0.9s-0.7,0.3-0.9,0.8C284.9,661,284.8,662.3,284.8,664.2L284.8,664.2z"/>
		<path class="st2" d="M289.3,664.2c0-1.4,0.1-2.5,0.3-3.3s0.4-1.5,0.8-1.9c0.3-0.5,0.8-0.7,1.3-0.7c0.4,0,0.7,0.1,1,0.4
			c0.3,0.2,0.5,0.6,0.7,1.1s0.3,1,0.4,1.7c0.1,0.7,0.2,1.6,0.2,2.7c0,1.4-0.1,2.4-0.3,3.3c-0.2,0.8-0.4,1.5-0.8,1.9
			c-0.3,0.5-0.8,0.7-1.3,0.7c-0.7,0-1.2-0.4-1.6-1.2C289.5,668,289.3,666.4,289.3,664.2L289.3,664.2z M290.2,664.2
			c0,1.9,0.1,3.2,0.4,3.8c0.3,0.6,0.6,0.9,1,0.9s0.7-0.3,1-0.9c0.3-0.6,0.4-1.9,0.4-3.8c0-1.9-0.1-3.2-0.4-3.8
			c-0.3-0.6-0.6-0.9-1-0.9s-0.7,0.3-0.9,0.8C290.3,661,290.2,662.3,290.2,664.2L290.2,664.2z"/>
		<polygon class="st2" points="199.7,410.7 199.7,409.3 202.3,409.3 202.3,410.7 		"/>
		<path class="st2" d="M205.3,414.2l2.7-11.6h1l2.8,11.6h-1.1l-0.8-3.5H207l-0.8,3.5H205.3L205.3,414.2z M207.3,409.4h2.4l-0.7-3.2
			c-0.2-1-0.4-1.8-0.5-2.4c-0.1,0.7-0.2,1.5-0.4,2.2L207.3,409.4L207.3,409.4z"/>
		<path class="st2" d="M217.1,402.6h0.9v6.7c0,1.2-0.1,2.1-0.2,2.8c-0.2,0.7-0.4,1.2-0.9,1.7c-0.4,0.4-1,0.6-1.6,0.6
			c-0.7,0-1.2-0.2-1.6-0.6s-0.7-0.9-0.9-1.6c-0.2-0.7-0.3-1.7-0.3-2.9v-6.7h0.9v6.7c0,1,0.1,1.7,0.2,2.2s0.3,0.8,0.6,1.1
			c0.3,0.3,0.6,0.4,1,0.4c0.7,0,1.2-0.3,1.4-0.8c0.3-0.5,0.4-1.5,0.4-2.9v-6.7L217.1,402.6L217.1,402.6z"/>
		<polygon class="st2" points="221.3,414.2 221.3,404 219,404 219,402.6 224.5,402.6 224.5,404 222.2,404 222.2,414.2 		"/>
		<path class="st2" d="M225,408.5c0-1.9,0.3-3.4,0.9-4.5s1.4-1.6,2.4-1.6c0.6,0,1.2,0.3,1.7,0.8s0.9,1.2,1.2,2.1
			c0.3,0.9,0.4,1.9,0.4,3.1s-0.1,2.2-0.4,3.1s-0.7,1.6-1.2,2.1s-1.1,0.7-1.7,0.7c-0.7,0-1.2-0.3-1.8-0.8c-0.5-0.5-0.9-1.2-1.2-2.2
			C225.2,410.5,225,409.5,225,408.5L225,408.5z M226,408.5c0,1.4,0.2,2.5,0.7,3.3s1,1.2,1.7,1.2s1.3-0.4,1.7-1.2
			c0.4-0.8,0.7-2,0.7-3.4c0-0.9-0.1-1.8-0.3-2.5c-0.2-0.7-0.5-1.2-0.8-1.6c-0.4-0.4-0.8-0.6-1.2-0.6c-0.7,0-1.2,0.4-1.7,1.1
			C226.2,405.6,226,406.8,226,408.5L226,408.5z"/>
		<path class="st2" d="M234.9,414.2l-2.7-11.6h1l1.8,8.4c0.1,0.7,0.3,1.3,0.4,1.9c0.1-0.6,0.2-1.3,0.4-1.9l1.9-8.4h0.9l-2.7,11.6
			H234.9L234.9,414.2z"/>
		<polygon class="st2" points="239.4,414.2 239.4,402.6 244.4,402.6 244.4,404 240.3,404 240.3,407.5 244.1,407.5 244.1,408.9 
			240.3,408.9 240.3,412.8 244.6,412.8 244.6,414.2 		"/>
		<polygon class="st2" points="246,414.2 246,402.6 246.9,402.6 246.9,414.2 		"/>
		<path class="st2" d="M253.5,410.1l0.9,0.4c-0.2,1.3-0.5,2.2-1,2.9s-1.1,1-1.8,1c-0.8,0-1.4-0.3-1.8-0.8c-0.5-0.5-0.8-1.2-1.1-2.2
			c-0.2-1-0.4-2-0.4-3.1c0-1.2,0.1-2.3,0.4-3.1c0.3-0.9,0.7-1.6,1.2-2c0.5-0.5,1.1-0.7,1.7-0.7c0.7,0,1.3,0.3,1.8,0.9s0.8,1.4,1,2.5
			l-0.9,0.4c-0.2-0.8-0.4-1.5-0.7-1.8c-0.3-0.4-0.7-0.6-1.2-0.6s-1,0.2-1.3,0.6c-0.4,0.4-0.6,1-0.8,1.7c-0.1,0.7-0.2,1.5-0.2,2.2
			c0,1,0.1,1.8,0.3,2.6c0.2,0.7,0.4,1.3,0.8,1.6c0.4,0.4,0.8,0.5,1.2,0.5c0.5,0,1-0.2,1.3-0.7C253.1,411.8,253.4,411.1,253.5,410.1
			L253.5,410.1z"/>
		<path class="st2" d="M255.3,408.5c0-1.9,0.3-3.4,0.9-4.5c0.6-1.1,1.4-1.6,2.4-1.6c0.6,0,1.2,0.3,1.7,0.8s0.9,1.2,1.2,2.1
			c0.3,0.9,0.4,1.9,0.4,3.1s-0.1,2.2-0.4,3.1s-0.7,1.6-1.2,2.1s-1.1,0.7-1.7,0.7c-0.7,0-1.2-0.3-1.8-0.8c-0.5-0.5-0.9-1.2-1.2-2.2
			C255.4,410.5,255.3,409.5,255.3,408.5L255.3,408.5z M256.2,408.5c0,1.4,0.2,2.5,0.7,3.3s1,1.2,1.7,1.2s1.3-0.4,1.7-1.2
			c0.4-0.8,0.7-2,0.7-3.4c0-0.9-0.1-1.8-0.3-2.5c-0.2-0.7-0.5-1.2-0.8-1.6c-0.4-0.4-0.8-0.6-1.2-0.6c-0.7,0-1.2,0.4-1.7,1.1
			C256.5,405.6,256.2,406.8,256.2,408.5L256.2,408.5z"/>
		<polygon class="st2" points="263.1,414.2 263.1,402.6 264,402.6 264,412.8 267.4,412.8 267.4,414.2 		"/>
		<polygon class="st2" points="268.7,414.2 268.7,402.6 269.6,402.6 269.6,414.2 		"/>
		<polygon class="st2" points="273.9,414.2 273.9,402.6 274.9,402.6 278.5,411.7 278.5,402.6 279.4,402.6 279.4,414.2 278.5,414.2 
			274.8,405.1 274.8,414.2 		"/>
		<path class="st2" d="M280.7,408.5c0-1.9,0.3-3.4,0.9-4.5c0.6-1.1,1.4-1.6,2.4-1.6c0.6,0,1.2,0.3,1.7,0.8s0.9,1.2,1.2,2.1
			s0.4,1.9,0.4,3.1s-0.1,2.2-0.4,3.1c-0.3,0.9-0.7,1.6-1.2,2.1s-1.1,0.7-1.7,0.7c-0.7,0-1.2-0.3-1.8-0.8c-0.5-0.5-0.9-1.2-1.2-2.2
			C280.8,410.5,280.7,409.5,280.7,408.5L280.7,408.5z M281.6,408.5c0,1.4,0.2,2.5,0.7,3.3s1,1.2,1.7,1.2s1.3-0.4,1.7-1.2
			s0.7-2,0.7-3.4c0-0.9-0.1-1.8-0.3-2.5s-0.5-1.2-0.8-1.6c-0.4-0.4-0.8-0.6-1.2-0.6c-0.7,0-1.2,0.4-1.7,1.1
			C281.9,405.6,281.6,406.8,281.6,408.5L281.6,408.5z"/>
		<polygon class="st2" points="288.5,414.2 288.5,402.6 289.5,402.6 293.1,411.7 293.1,402.6 294,402.6 294,414.2 293.1,414.2 
			289.4,405.1 289.4,414.2 		"/>
		<path class="st2" d="M297.5,414.2l2.7-11.6h1l2.8,11.6h-1l-0.8-3.5h-2.9l-0.8,3.5H297.5L297.5,414.2z M299.5,409.4h2.4l-0.7-3.2
			c-0.2-1-0.4-1.8-0.5-2.4c-0.1,0.7-0.2,1.5-0.4,2.2L299.5,409.4L299.5,409.4z"/>
		<path class="st2" d="M309.3,402.6h0.9v6.7c0,1.2-0.1,2.1-0.2,2.8c-0.2,0.7-0.4,1.2-0.9,1.7c-0.4,0.4-1,0.6-1.6,0.6
			c-0.7,0-1.2-0.2-1.6-0.6c-0.4-0.4-0.7-0.9-0.9-1.6s-0.3-1.7-0.3-2.9v-6.7h0.9v6.7c0,1,0.1,1.7,0.2,2.2c0.1,0.5,0.3,0.8,0.6,1.1
			s0.6,0.4,1,0.4c0.7,0,1.2-0.3,1.4-0.8c0.3-0.5,0.4-1.5,0.4-2.9L309.3,402.6L309.3,402.6z"/>
		<polygon class="st2" points="313.5,414.2 313.5,404 311.2,404 311.2,402.6 316.7,402.6 316.7,404 314.4,404 314.4,414.2 		"/>
		<path class="st2" d="M317.2,408.5c0-1.9,0.3-3.4,0.9-4.5c0.6-1.1,1.4-1.6,2.4-1.6c0.6,0,1.2,0.3,1.7,0.8s0.9,1.2,1.2,2.1
			s0.4,1.9,0.4,3.1s-0.1,2.2-0.4,3.1c-0.3,0.9-0.7,1.6-1.2,2.1s-1.1,0.7-1.7,0.7c-0.7,0-1.2-0.3-1.8-0.8c-0.5-0.5-0.9-1.2-1.2-2.2
			C317.4,410.5,317.2,409.5,317.2,408.5L317.2,408.5z M318.2,408.5c0,1.4,0.2,2.5,0.7,3.3s1,1.2,1.7,1.2s1.3-0.4,1.7-1.2
			s0.7-2,0.7-3.4c0-0.9-0.1-1.8-0.3-2.5s-0.5-1.2-0.8-1.6c-0.4-0.4-0.8-0.6-1.2-0.6c-0.7,0-1.2,0.4-1.7,1.1
			C318.4,405.6,318.2,406.8,318.2,408.5L318.2,408.5z"/>
		<path class="st2" d="M325.1,414.2v-11.6h3.1c0.6,0,1.1,0.1,1.4,0.3c0.3,0.2,0.6,0.6,0.8,1.1s0.3,1.1,0.3,1.7
			c0,0.8-0.2,1.5-0.5,2.1s-0.8,0.9-1.5,1.1c0.2,0.2,0.4,0.4,0.6,0.6c0.3,0.4,0.5,0.9,0.8,1.5l1.2,3.1h-1.2l-0.9-2.4
			c-0.3-0.7-0.5-1.2-0.7-1.6s-0.3-0.6-0.5-0.8c-0.1-0.1-0.3-0.2-0.4-0.3c-0.1,0-0.3-0.1-0.5-0.1H326v5.1h-0.9L325.1,414.2
			L325.1,414.2z M326,407.7h2c0.4,0,0.8-0.1,1-0.2s0.4-0.4,0.5-0.7s0.2-0.7,0.2-1c0-0.5-0.1-1-0.4-1.3c-0.2-0.4-0.6-0.5-1.1-0.5H326
			V407.7L326,407.7z"/>
		<polygon class="st2" points="332.3,414.2 332.3,402.6 333.2,402.6 333.2,414.2 		"/>
		<path class="st2" d="M334.2,414.2v-1.4l3.6-7.4c0.3-0.5,0.5-1,0.7-1.4h-3.9v-1.4h5v1.4l-3.9,8l-0.4,0.8h4.4v1.4H334.2L334.2,414.2
			z"/>
		<path class="st2" d="M340.2,414.2v-1.4l3.6-7.4c0.3-0.5,0.5-1,0.7-1.4h-3.9v-1.4h5v1.4l-3.9,8l-0.4,0.8h4.4v1.4H340.2L340.2,414.2
			z"/>
		<path class="st2" d="M345.9,414.2l2.7-11.6h1l2.8,11.6h-1l-0.8-3.5h-2.9l-0.8,3.5H345.9L345.9,414.2z M347.9,409.4h2.4l-0.7-3.2
			c-0.2-1-0.4-1.8-0.5-2.4c-0.1,0.7-0.2,1.5-0.4,2.2L347.9,409.4L347.9,409.4z"/>
		<polygon class="st2" points="354.2,414.2 354.2,404 351.9,404 351.9,402.6 357.4,402.6 357.4,404 355.1,404 355.1,414.2 		"/>
		<polygon class="st2" points="358.5,414.2 358.5,402.6 359.5,402.6 359.5,414.2 		"/>
		<polygon class="st2" points="199.7,428.7 199.7,427.3 202.3,427.3 202.3,428.7 		"/>
		<path class="st2" d="M206,432.2v-11.6h1.4l1.6,8.2c0.2,0.8,0.3,1.3,0.3,1.7c0.1-0.4,0.2-1,0.4-1.9l1.7-8h1.2v11.6h-0.9v-9.7
			l-2,9.7h-0.8l-2-9.8v9.8H206L206,432.2z"/>
		<path class="st2" d="M213.9,426.6c0-1.9,0.3-3.4,0.9-4.5s1.4-1.6,2.4-1.6c0.6,0,1.2,0.3,1.7,0.8s0.9,1.2,1.2,2.1
			c0.3,0.9,0.4,1.9,0.4,3.1c0,1.2-0.1,2.2-0.4,3.1c-0.3,0.9-0.7,1.6-1.2,2.1s-1.1,0.7-1.7,0.7c-0.7,0-1.2-0.3-1.8-0.8
			c-0.5-0.5-0.9-1.2-1.2-2.2C214,428.5,213.9,427.6,213.9,426.6L213.9,426.6z M214.8,426.6c0,1.4,0.2,2.5,0.7,3.3s1,1.2,1.7,1.2
			s1.3-0.4,1.7-1.2c0.4-0.8,0.7-2,0.7-3.4c0-0.9-0.1-1.8-0.3-2.5c-0.2-0.7-0.5-1.2-0.8-1.6c-0.4-0.4-0.8-0.6-1.2-0.6
			c-0.7,0-1.2,0.4-1.7,1.1C215,423.6,214.8,424.8,214.8,426.6L214.8,426.6z"/>
		<polygon class="st2" points="223.5,432.2 223.5,422 221.2,422 221.2,420.6 226.7,420.6 226.7,422 224.4,422 224.4,432.2 		"/>
		<path class="st2" d="M227.2,426.6c0-1.9,0.3-3.4,0.9-4.5s1.4-1.6,2.4-1.6c0.6,0,1.2,0.3,1.7,0.8s0.9,1.2,1.2,2.1
			c0.3,0.9,0.4,1.9,0.4,3.1c0,1.2-0.1,2.2-0.4,3.1c-0.3,0.9-0.7,1.6-1.2,2.1s-1.1,0.7-1.7,0.7c-0.7,0-1.2-0.3-1.8-0.8
			c-0.5-0.5-0.9-1.2-1.2-2.2C227.3,428.5,227.2,427.6,227.2,426.6L227.2,426.6z M228.1,426.6c0,1.4,0.2,2.5,0.7,3.3s1,1.2,1.7,1.2
			s1.3-0.4,1.7-1.2c0.4-0.8,0.7-2,0.7-3.4c0-0.9-0.1-1.8-0.3-2.5c-0.2-0.7-0.5-1.2-0.8-1.6c-0.4-0.4-0.8-0.6-1.2-0.6
			c-0.7,0-1.2,0.4-1.7,1.1C228.4,423.6,228.1,424.8,228.1,426.6L228.1,426.6z"/>
		<path class="st2" d="M237,432.2l-2.7-11.6h1l1.8,8.4c0.1,0.7,0.3,1.3,0.4,1.9c0.1-0.6,0.2-1.3,0.4-1.9l1.9-8.4h0.9l-2.7,11.6H237
			L237,432.2z"/>
		<polygon class="st2" points="241.5,432.2 241.5,420.6 246.6,420.6 246.6,422 242.5,422 242.5,425.5 246.3,425.5 246.3,426.9 
			242.5,426.9 242.5,430.8 246.7,430.8 246.7,432.2 		"/>
		<polygon class="st2" points="248.2,432.2 248.2,420.6 249.1,420.6 249.1,432.2 		"/>
		<path class="st2" d="M255.7,428.1l0.9,0.4c-0.2,1.3-0.5,2.2-1,2.9c-0.5,0.7-1.1,1-1.8,1c-0.8,0-1.4-0.3-1.8-0.8
			c-0.5-0.5-0.8-1.2-1.1-2.2c-0.2-1-0.4-2-0.4-3.1c0-1.2,0.1-2.3,0.4-3.1c0.3-0.9,0.7-1.6,1.2-2c0.5-0.5,1.1-0.7,1.7-0.7
			c0.7,0,1.3,0.3,1.8,0.9c0.5,0.6,0.8,1.4,1,2.5l-0.9,0.4c-0.2-0.8-0.4-1.5-0.7-1.8c-0.3-0.4-0.7-0.6-1.2-0.6s-1,0.2-1.3,0.6
			c-0.4,0.4-0.6,1-0.8,1.7c-0.1,0.7-0.2,1.5-0.2,2.2c0,1,0.1,1.8,0.3,2.6c0.2,0.7,0.4,1.3,0.8,1.6c0.4,0.4,0.8,0.5,1.2,0.5
			c0.5,0,1-0.2,1.3-0.7C255.3,429.8,255.5,429.1,255.7,428.1L255.7,428.1z"/>
		<path class="st2" d="M257.4,426.6c0-1.9,0.3-3.4,0.9-4.5s1.4-1.6,2.4-1.6c0.6,0,1.2,0.3,1.7,0.8s0.9,1.2,1.2,2.1
			c0.3,0.9,0.4,1.9,0.4,3.1c0,1.2-0.1,2.2-0.4,3.1c-0.3,0.9-0.7,1.6-1.2,2.1s-1.1,0.7-1.7,0.7c-0.7,0-1.2-0.3-1.8-0.8
			c-0.5-0.5-0.9-1.2-1.2-2.2C257.6,428.5,257.4,427.6,257.4,426.6L257.4,426.6z M258.4,426.6c0,1.4,0.2,2.5,0.7,3.3s1,1.2,1.7,1.2
			s1.3-0.4,1.7-1.2c0.4-0.8,0.7-2,0.7-3.4c0-0.9-0.1-1.8-0.3-2.5c-0.2-0.7-0.5-1.2-0.8-1.6c-0.4-0.4-0.8-0.6-1.2-0.6
			c-0.7,0-1.2,0.4-1.7,1.1C258.6,423.6,258.4,424.8,258.4,426.6L258.4,426.6z"/>
		<polygon class="st2" points="265.2,432.2 265.2,420.6 266.2,420.6 266.2,430.8 269.6,430.8 269.6,432.2 		"/>
		<polygon class="st2" points="270.8,432.2 270.8,420.6 271.8,420.6 271.8,432.2 		"/>
		<polygon class="st2" points="276.1,432.2 276.1,420.6 277,420.6 280.7,429.7 280.7,420.6 281.6,420.6 281.6,432.2 280.6,432.2 
			277,423.1 277,432.2 		"/>
		<path class="st2" d="M282.8,426.6c0-1.9,0.3-3.4,0.9-4.5c0.6-1.1,1.4-1.6,2.4-1.6c0.6,0,1.2,0.3,1.7,0.8s0.9,1.2,1.2,2.1
			c0.3,0.9,0.4,1.9,0.4,3.1c0,1.2-0.1,2.2-0.4,3.1c-0.3,0.9-0.7,1.6-1.2,2.1s-1.1,0.7-1.7,0.7c-0.7,0-1.2-0.3-1.8-0.8
			c-0.5-0.5-0.9-1.2-1.2-2.2C283,428.5,282.8,427.6,282.8,426.6L282.8,426.6z M283.8,426.6c0,1.4,0.2,2.5,0.7,3.3s1,1.2,1.7,1.2
			s1.3-0.4,1.7-1.2s0.7-2,0.7-3.4c0-0.9-0.1-1.8-0.3-2.5s-0.5-1.2-0.8-1.6c-0.4-0.4-0.8-0.6-1.2-0.6c-0.7,0-1.2,0.4-1.7,1.1
			C284,423.6,283.8,424.8,283.8,426.6L283.8,426.6z"/>
		<polygon class="st2" points="290.7,432.2 290.7,420.6 291.6,420.6 295.3,429.7 295.3,420.6 296.2,420.6 296.2,432.2 295.2,432.2 
			291.6,423.1 291.6,432.2 		"/>
		<path class="st2" d="M299.6,432.2l2.7-11.6h1l2.8,11.6h-1l-0.8-3.5h-2.9l-0.8,3.5H299.6L299.6,432.2z M301.6,427.4h2.4l-0.7-3.2
			c-0.2-1-0.4-1.8-0.5-2.4c-0.1,0.7-0.2,1.5-0.4,2.2L301.6,427.4L301.6,427.4z"/>
		<path class="st2" d="M311.5,420.6h0.9v6.7c0,1.2-0.1,2.1-0.2,2.8c-0.2,0.7-0.4,1.2-0.9,1.7c-0.4,0.4-1,0.6-1.6,0.6
			c-0.7,0-1.2-0.2-1.6-0.6c-0.4-0.4-0.7-0.9-0.9-1.6c-0.2-0.7-0.3-1.7-0.3-2.9v-6.7h0.9v6.7c0,1,0.1,1.7,0.2,2.2
			c0.1,0.5,0.3,0.8,0.6,1.1s0.6,0.4,1,0.4c0.7,0,1.2-0.3,1.4-0.8c0.3-0.5,0.4-1.5,0.4-2.9L311.5,420.6L311.5,420.6z"/>
		<polygon class="st2" points="315.7,432.2 315.7,422 313.4,422 313.4,420.6 318.9,420.6 318.9,422 316.6,422 316.6,432.2 		"/>
		<path class="st2" d="M319.4,426.6c0-1.9,0.3-3.4,0.9-4.5c0.6-1.1,1.4-1.6,2.4-1.6c0.6,0,1.2,0.3,1.7,0.8s0.9,1.2,1.2,2.1
			c0.3,0.9,0.4,1.9,0.4,3.1c0,1.2-0.1,2.2-0.4,3.1c-0.3,0.9-0.7,1.6-1.2,2.1s-1.1,0.7-1.7,0.7c-0.7,0-1.2-0.3-1.8-0.8
			c-0.5-0.5-0.9-1.2-1.2-2.2C319.5,428.5,319.4,427.6,319.4,426.6L319.4,426.6z M320.3,426.6c0,1.4,0.2,2.5,0.7,3.3s1,1.2,1.7,1.2
			s1.3-0.4,1.7-1.2s0.7-2,0.7-3.4c0-0.9-0.1-1.8-0.3-2.5s-0.5-1.2-0.8-1.6c-0.4-0.4-0.8-0.6-1.2-0.6c-0.7,0-1.2,0.4-1.7,1.1
			C320.6,423.6,320.3,424.8,320.3,426.6L320.3,426.6z"/>
		<path class="st2" d="M327.2,432.2v-11.6h3.1c0.6,0,1.1,0.1,1.4,0.3c0.3,0.2,0.6,0.6,0.8,1.1s0.3,1.1,0.3,1.7
			c0,0.8-0.2,1.5-0.5,2.1s-0.8,0.9-1.5,1.1c0.2,0.2,0.4,0.4,0.6,0.6c0.3,0.4,0.5,0.9,0.8,1.5l1.2,3.1h-1.2l-0.9-2.3
			c-0.3-0.7-0.5-1.2-0.7-1.6c-0.2-0.4-0.3-0.6-0.5-0.8c-0.1-0.1-0.3-0.3-0.4-0.3c-0.1,0-0.3-0.1-0.5-0.1h-1.1v5.1L327.2,432.2
			L327.2,432.2z M328.2,425.7h2c0.4,0,0.8-0.1,1-0.2c0.2-0.1,0.4-0.4,0.5-0.7s0.2-0.7,0.2-1c0-0.5-0.1-1-0.4-1.3
			c-0.2-0.4-0.6-0.5-1.1-0.5h-2.2V425.7L328.2,425.7z"/>
		<polygon class="st2" points="334.4,432.2 334.4,420.6 335.3,420.6 335.3,432.2 		"/>
		<path class="st2" d="M336.4,432.2v-1.4l3.6-7.4c0.3-0.5,0.5-1,0.7-1.4h-3.9v-1.4h5v1.4l-3.9,8l-0.4,0.8h4.4v1.4L336.4,432.2
			L336.4,432.2z"/>
		<path class="st2" d="M342.3,432.2v-1.4l3.6-7.4c0.3-0.5,0.5-1,0.7-1.4h-3.9v-1.4h5v1.4l-3.9,8l-0.4,0.8h4.4v1.4L342.3,432.2
			L342.3,432.2z"/>
		<path class="st2" d="M348.1,432.2l2.7-11.6h1l2.9,11.6h-1.1l-0.8-3.5h-2.9l-0.8,3.5H348.1L348.1,432.2z M350.1,427.4h2.4l-0.7-3.2
			c-0.2-1-0.4-1.8-0.5-2.4c-0.1,0.7-0.2,1.5-0.4,2.2L350.1,427.4L350.1,427.4z"/>
		<polygon class="st2" points="356.4,432.2 356.4,422 354.1,422 354.1,420.6 359.6,420.6 359.6,422 357.3,422 357.3,432.2 		"/>
		<polygon class="st2" points="360.7,432.2 360.7,420.6 361.6,420.6 361.6,432.2 		"/>
		<path class="st0" d="M257.7,151c25.5,4.6,42.1,13.8,57.6,34.8c8.8,14.3,13,27.5,13.6,44.2c-1.1,33.4-18.4,58.9-48.4,72.9
			c-34,14-68.1,4.3-92.2-22.5c-15.1-19.8-20.8-41.7-16.4-66.5c5.1-19.1,12.6-31.8,27.3-45.1c15.7-11.7,30.5-17.5,50.4-18.1
			L257.7,151L257.7,151z"/>
		<path class="st4" d="M249.8,156.7c40.4,0,73.3,32.9,73.3,73.3s-32.9,73.3-73.3,73.3s-73.3-32.9-73.3-73.3
			C176.6,189.6,209.5,156.7,249.8,156.7L249.8,156.7z"/>
		<path class="st5" d="M249.8,175.5c30,0,54.5,24.5,54.5,54.5s-24.5,54.5-54.5,54.5S195.3,260,195.3,230S219.8,175.5,249.8,175.5
			L249.8,175.5z"/>
		<g>
			<path class="st6" d="M130.2,469h45.4c4.6,0,8.3,3.7,8.3,8.3v45.5c0,4.6-3.7,8.3-8.3,8.3h-45.4c-4.6,0-8.3-3.7-8.3-8.3v-45.4
				C121.9,472.8,125.6,469,130.2,469L130.2,469z"/>
			<g>
				<path class="st5" d="M160.4,513.3c-3,6.6-10.8,9.6-17.5,6.6c-6.6-3-9.6-10.8-6.6-17.5c1-2.3,2.7-4.2,4.7-5.5l-0.2-4.9
					c-3.6,1.7-6.7,4.7-8.4,8.6c-4,8.8,0,19.2,8.8,23.2c8.1,3.6,17.5,0.6,22.1-6.7l-2.6-4.4C160.5,512.9,160.5,513.1,160.4,513.3z"/>
				<path class="st5" d="M172.2,511.8l-3.7,2.3l-7.9-14.1h-12.2l-0.5-4h9.2v-3.9h-9.8l-0.7-7.4c2.8-0.2,5-2.5,5-5.3
					c0-3-2.4-5.4-5.4-5.4s-5.4,2.4-5.4,5.4c0,0.8,0.2,1.5,0.5,2.2c0.2,0.6,0.6,1.1,1,1.5c0.1,0.1,0.1,0.1,0.2,0.2l0.6,20.8h14.6
					l9,15.6h0.2l7.1-4.5L172.2,511.8z"/>
			</g>
		</g>
	</g>
</g>
</svg>
