<?xml version="1.0" encoding="utf-8"?>
<!-- Generator: Adobe Illustrator 19.2.0, SVG Export Plug-In . SVG Version: 6.00 Build 0)  -->
<svg version="1.1" id="Livello_1" xmlns="http://www.w3.org/2000/svg" xmlns:xlink="http://www.w3.org/1999/xlink" x="0px" y="0px"
	 viewBox="0 0 960 960" style="enable-background:new 0 0 960 960;" xml:space="preserve">
<style type="text/css">
	.st0{fill-rule:evenodd;clip-rule:evenodd;fill:#005EA7;stroke:#005EA7;stroke-width:0.6522;stroke-miterlimit:2.6131;}
	.st1{fill-rule:evenodd;clip-rule:evenodd;fill:#005EA7;stroke:#FFFFFF;stroke-width:4.3478;stroke-miterlimit:2.6131;}
	.st2{fill-rule:evenodd;clip-rule:evenodd;fill:#008E43;stroke:#008E43;stroke-width:2.1739;stroke-miterlimit:2.6131;}
	.st3{fill-rule:evenodd;clip-rule:evenodd;fill:#FFFFFF;stroke:#FFFFFF;stroke-width:2.1739;stroke-miterlimit:2.6131;}
	.st4{fill-rule:evenodd;clip-rule:evenodd;fill:#FFFFFF;}
</style>
<g>
	<g>
		<polygon class="st0" points="247.8,120 712.2,120 712.2,840 247.8,840 247.8,120 		"/>
		<path class="st1" d="M282.4,129.3h396.1c14.6,0,26.1,12.4,26.1,26.1v650c0,13.9-12.2,26.1-26.1,26.1H282.4
			c-13.7,0-26.1-11.5-26.1-26.1v-650C256.3,141.1,268,129.3,282.4,129.3L282.4,129.3z"/>
		<polygon class="st2" points="299.8,308 660.7,308 660.7,427.6 299.8,427.6 299.8,308 		"/>
		<polygon class="st3" points="299.8,485 660.7,485 660.7,604.6 299.8,604.6 299.8,485 		"/>
		<polygon class="st3" points="299.8,662.2 660.7,662.2 660.7,781.5 299.8,781.5 299.8,662.2 		"/>
		<path class="st4" d="M311.2,224.8l11.5-1.2c0.7,4.1,2.1,7.1,4.2,9.1c2.1,1.9,5,2.9,8.6,2.9c3.8,0,6.7-0.9,8.6-2.6
			c1.9-1.7,2.9-3.7,2.9-6c0-1.5-0.4-2.7-1.2-3.8c-0.8-1-2.2-1.9-4.3-2.7c-1.4-0.5-4.6-1.4-9.5-2.7c-6.4-1.7-10.8-3.7-13.4-6.2
			c-3.6-3.4-5.4-7.6-5.4-12.5c0-3.2,0.8-6.1,2.5-8.9c1.7-2.8,4.1-4.9,7.3-6.3c3.2-1.4,7-2.2,11.5-2.2c7.4,0,12.9,1.7,16.6,5.1
			c3.7,3.4,5.7,8,5.9,13.7l-11.8,0.6c-0.5-3.2-1.6-5.5-3.3-6.9c-1.7-1.4-4.2-2.1-7.5-2.1c-3.4,0-6.1,0.7-8.1,2.2
			c-1.3,1-1.9,2.2-1.9,3.9c0,1.5,0.6,2.7,1.8,3.8c1.5,1.3,5.1,2.7,10.9,4.2c5.8,1.4,10,2.9,12.8,4.5c2.8,1.6,4.9,3.7,6.5,6.3
			c1.6,2.7,2.3,6,2.3,9.9c0,3.6-0.9,6.9-2.8,10c-1.9,3.1-4.5,5.4-7.9,6.9c-3.4,1.5-7.7,2.3-12.8,2.3c-7.4,0-13.1-1.8-17.1-5.5
			C314.4,237,312,231.7,311.2,224.8L311.2,224.8z"/>
		<polygon class="st4" points="382.1,245 382.1,193.3 364.7,193.3 364.7,182.7 411.3,182.7 411.3,193.3 394,193.3 394,245 
			382.1,245 		"/>
		<polygon class="st4" points="419,245 419,182.7 462.5,182.7 462.5,193.3 430.9,193.3 430.9,207.1 460.3,207.1 460.3,217.6 
			430.9,217.6 430.9,234.5 463.6,234.5 463.6,245 419,245 		"/>
		<polygon class="st4" points="474,245 474,183.3 485.9,183.3 485.9,234.5 515.3,234.5 515.3,245 474,245 		"/>
		<polygon class="st4" points="532.7,245 511.7,182.7 524.6,182.7 539.4,228.8 553.8,182.7 566.3,182.7 545.3,245 532.7,245 		"/>
		<polygon class="st4" points="572,245 572,182.7 583.9,182.7 583.9,245 572,245 		"/>
		<path class="st4" d="M592.8,214.3c0-6.3,0.9-11.7,2.7-16c1.3-3.2,3.2-6,5.5-8.5c2.3-2.5,4.8-4.4,7.6-5.6c3.7-1.7,7.9-2.5,12.7-2.5
			c8.7,0,15.6,2.8,20.8,8.5c5.2,5.7,7.8,13.6,7.8,23.7c0,10.1-2.6,17.9-7.7,23.6c-5.2,5.7-12,8.5-20.6,8.5c-8.7,0-15.7-2.8-20.8-8.5
			C595.4,231.9,592.8,224.2,592.8,214.3L592.8,214.3z M605,213.8c0,7,1.5,12.4,4.6,16c3.1,3.6,7,5.5,11.7,5.5
			c4.7,0,8.6-1.8,11.6-5.4c3-3.6,4.5-9,4.5-16.2c0-7.1-1.5-12.5-4.4-16c-3-3.5-6.9-5.3-11.8-5.3c-4.9,0-8.8,1.8-11.8,5.3
			C606.5,201.3,605,206.7,605,213.8L605,213.8z"/>
		<path class="st4" d="M323,338.1l-4.8-0.9c0.5-1.9,1.5-3.4,2.8-4.3c1.3-0.9,3.3-1.4,5.9-1.4c2.4,0,4.1,0.3,5.3,0.8
			c1.1,0.6,2,1.3,2.4,2.1c0.5,0.9,0.7,2.4,0.7,4.7l-0.1,6.2c0,1.8,0.1,3,0.3,3.9c0.2,0.8,0.5,1.7,0.9,2.7h-5.2
			c-0.1-0.4-0.3-0.9-0.5-1.6c-0.1-0.3-0.1-0.5-0.2-0.6c-0.9,0.9-1.9,1.5-2.9,2c-1,0.4-2.1,0.7-3.3,0.7c-2.1,0-3.7-0.6-4.9-1.7
			c-1.2-1.1-1.8-2.5-1.8-4.2c0-1.1,0.3-2.1,0.8-3c0.5-0.9,1.3-1.6,2.3-2c1-0.5,2.4-0.9,4.2-1.2c2.5-0.5,4.2-0.9,5.1-1.3v-0.5
			c0-1-0.2-1.7-0.7-2.2c-0.5-0.4-1.4-0.6-2.8-0.6c-0.9,0-1.7,0.2-2.2,0.6C323.8,336.5,323.3,337.2,323,338.1L323,338.1z
			 M330.1,342.4c-0.7,0.2-1.7,0.5-3.2,0.8c-1.5,0.3-2.4,0.6-2.9,0.9c-0.7,0.5-1,1.1-1,1.9c0,0.7,0.3,1.4,0.8,1.9
			c0.6,0.5,1.2,0.8,2.1,0.8c1,0,1.9-0.3,2.7-0.9c0.6-0.5,1.1-1.1,1.3-1.8c0.1-0.4,0.2-1.3,0.2-2.6V342.4L330.1,342.4z"/>
		<path class="st4" d="M340.3,332h4.9v2.9c0.6-1,1.5-1.8,2.6-2.4c1.1-0.6,2.3-0.9,3.6-0.9c2.3,0,4.3,0.9,5.9,2.7
			c1.6,1.8,2.4,4.3,2.4,7.6c0,3.3-0.8,5.9-2.4,7.8c-1.6,1.8-3.6,2.8-5.9,2.8c-1.1,0-2.1-0.2-3-0.7c-0.9-0.4-1.8-1.2-2.8-2.3v10.1
			h-5.3V332L340.3,332z M345.5,341.6c0,2.2,0.4,3.9,1.3,5c0.9,1.1,2,1.6,3.2,1.6c1.2,0,2.2-0.5,3.1-1.5c0.8-1,1.2-2.6,1.2-4.8
			c0-2.1-0.4-3.6-1.3-4.7c-0.8-1-1.9-1.5-3.1-1.5c-1.3,0-2.4,0.5-3.2,1.5C345.9,338.2,345.5,339.7,345.5,341.6L345.5,341.6z"/>
		<path class="st4" d="M375.5,345.6l5.3,0.9c-0.7,1.9-1.7,3.4-3.2,4.4c-1.5,1-3.3,1.5-5.5,1.5c-3.5,0-6-1.1-7.7-3.4
			c-1.3-1.8-2-4.1-2-6.9c0-3.3,0.9-5.9,2.6-7.8c1.7-1.9,3.9-2.8,6.6-2.8c3,0,5.3,1,7,2.9c1.7,2,2.5,5,2.5,9h-13.2
			c0,1.6,0.5,2.8,1.3,3.6c0.8,0.9,1.8,1.3,3,1.3c0.8,0,1.5-0.2,2.1-0.7C374.8,347.3,375.2,346.6,375.5,345.6L375.5,345.6z
			 M375.8,340.3c0-1.5-0.4-2.7-1.2-3.5c-0.8-0.8-1.7-1.2-2.7-1.2c-1.2,0-2.1,0.4-2.9,1.3c-0.7,0.8-1.1,2-1.1,3.4H375.8L375.8,340.3z
			"/>
		<path class="st4" d="M390.4,352h-5.3V332h4.9v2.8c0.8-1.3,1.6-2.2,2.3-2.6c0.7-0.4,1.4-0.6,2.3-0.6c1.2,0,2.4,0.3,3.5,1l-1.6,4.6
			c-0.9-0.6-1.7-0.9-2.5-0.9c-0.7,0-1.4,0.2-1.9,0.6c-0.5,0.4-0.9,1.1-1.2,2.2c-0.3,1.1-0.4,3.3-0.4,6.7V352L390.4,352z"/>
		<path class="st4" d="M409.5,332v4.2h-3.6v8c0,1.6,0,2.6,0.1,2.8c0.1,0.3,0.2,0.5,0.5,0.7c0.2,0.2,0.5,0.3,0.9,0.3
			c0.5,0,1.2-0.2,2.1-0.5l0.4,4.1c-1.2,0.5-2.6,0.8-4.2,0.8c-0.9,0-1.8-0.2-2.6-0.5c-0.8-0.3-1.3-0.7-1.7-1.2
			c-0.4-0.5-0.6-1.2-0.7-2.1c-0.1-0.6-0.2-1.9-0.2-3.7v-8.7h-2.4V332h2.4v-4l5.3-3.1v7H409.5L409.5,332z"/>
		<path class="st4" d="M411.9,341.7c0-1.8,0.4-3.4,1.3-5.1c0.9-1.6,2.1-2.9,3.7-3.7c1.6-0.9,3.4-1.3,5.3-1.3c3,0,5.5,1,7.4,2.9
			c1.9,2,2.9,4.4,2.9,7.4c0,3-1,5.5-2.9,7.5c-1.9,2-4.4,3-7.4,3c-1.8,0-3.6-0.4-5.2-1.2c-1.7-0.8-2.9-2-3.8-3.6
			C412.3,345.9,411.9,344,411.9,341.7L411.9,341.7z M417.3,342c0,2,0.5,3.5,1.4,4.5c0.9,1.1,2.1,1.6,3.5,1.6s2.5-0.5,3.5-1.6
			c0.9-1.1,1.4-2.6,1.4-4.6c0-1.9-0.5-3.5-1.4-4.5c-0.9-1.1-2.1-1.6-3.5-1.6s-2.5,0.5-3.5,1.6C417.8,338.5,417.3,340,417.3,342
			L417.3,342z"/>
		<path class="st4" d="M528.5,341.5c0-1.8,0.4-3.4,1.3-5.1c0.9-1.6,2.1-2.9,3.7-3.8c1.6-0.9,3.4-1.3,5.3-1.3c3,0,5.5,1,7.4,2.9
			c1.9,2,2.9,4.4,2.9,7.4c0,3-1,5.5-2.9,7.5c-1.9,2-4.4,3-7.4,3c-1.8,0-3.6-0.4-5.2-1.2c-1.7-0.8-2.9-2-3.8-3.6
			C528.9,345.7,528.5,343.8,528.5,341.5L528.5,341.5z M533.9,341.8c0,2,0.5,3.5,1.4,4.5c0.9,1.1,2.1,1.6,3.5,1.6
			c1.4,0,2.5-0.5,3.5-1.6c0.9-1.1,1.4-2.6,1.4-4.6c0-1.9-0.5-3.5-1.4-4.5c-0.9-1.1-2.1-1.6-3.5-1.6c-1.4,0-2.5,0.5-3.5,1.6
			C534.4,338.3,533.9,339.8,533.9,341.8L533.9,341.8z"/>
		<path class="st4" d="M566.4,351.7v-3c-0.7,1.1-1.7,1.9-2.9,2.5c-1.2,0.6-2.4,0.9-3.8,0.9c-1.3,0-2.5-0.3-3.6-0.9
			c-1.1-0.6-1.8-1.4-2.3-2.5c-0.5-1.1-0.7-2.5-0.7-4.4v-12.6h5.3v9.2c0,2.8,0.1,4.5,0.3,5.2c0.2,0.6,0.5,1.1,1.1,1.5
			c0.5,0.4,1.2,0.6,2,0.6c0.9,0,1.7-0.2,2.4-0.7c0.7-0.5,1.2-1.1,1.5-1.8c0.3-0.7,0.4-2.5,0.4-5.4v-8.4h5.3v19.9H566.4L566.4,351.7z
			"/>
		<path class="st4" d="M582.2,351.7l-8-19.9h5.5l3.8,10.2l1.1,3.4c0.3-0.9,0.5-1.4,0.5-1.7c0.2-0.6,0.4-1.1,0.6-1.7l3.8-10.2h5.4
			l-7.9,19.9H582.2L582.2,351.7z"/>
		<path class="st4" d="M609.7,345.4l5.3,0.9c-0.7,1.9-1.7,3.4-3.2,4.4c-1.5,1-3.3,1.5-5.5,1.5c-3.5,0-6-1.1-7.7-3.4
			c-1.3-1.8-2-4.1-2-6.9c0-3.3,0.9-5.9,2.6-7.8c1.7-1.9,3.9-2.8,6.6-2.8c3,0,5.3,1,7,2.9c1.7,2,2.5,5,2.5,9H602
			c0,1.6,0.5,2.8,1.3,3.6c0.8,0.9,1.8,1.3,3,1.3c0.8,0,1.5-0.2,2.1-0.7C608.9,347.1,609.4,346.4,609.7,345.4L609.7,345.4z
			 M610,340.1c0-1.5-0.4-2.7-1.2-3.5c-0.7-0.8-1.7-1.2-2.7-1.2c-1.2,0-2.1,0.4-2.9,1.3c-0.7,0.8-1.1,2-1.1,3.4H610L610,340.1z"/>
		<path class="st4" d="M624.6,351.7h-5.3v-19.9h4.9v2.8c0.8-1.3,1.6-2.2,2.3-2.6c0.7-0.4,1.4-0.6,2.3-0.6c1.2,0,2.4,0.3,3.5,1
			l-1.6,4.6c-0.9-0.6-1.7-0.9-2.5-0.9c-0.7,0-1.4,0.2-1.9,0.6c-0.5,0.4-0.9,1.1-1.2,2.2c-0.3,1.1-0.4,3.3-0.4,6.7V351.7L624.6,351.7
			z"/>
		<path class="st4" d="M643.6,331.8v4.2H640v8c0,1.6,0,2.6,0.1,2.8c0.1,0.3,0.2,0.5,0.5,0.7c0.2,0.2,0.5,0.3,0.9,0.3
			c0.5,0,1.2-0.2,2.1-0.5l0.5,4.1c-1.2,0.5-2.6,0.8-4.2,0.8c-0.9,0-1.8-0.2-2.6-0.5c-0.8-0.3-1.3-0.7-1.7-1.2
			c-0.4-0.5-0.6-1.2-0.7-2.1c-0.1-0.6-0.2-1.9-0.2-3.7V336h-2.4v-4.2h2.4v-4l5.3-3.1v7H643.6L643.6,331.8z"/>
		<path class="st4" d="M317.8,394.7c0-1.8,0.4-3.4,1.3-5.1c0.9-1.6,2.1-2.9,3.7-3.8c1.6-0.9,3.4-1.3,5.3-1.3c3,0,5.5,1,7.4,2.9
			c1.9,2,2.9,4.4,2.9,7.4c0,3-1,5.5-2.9,7.5c-1.9,2-4.4,3-7.4,3c-1.8,0-3.6-0.4-5.2-1.2c-1.7-0.8-2.9-2-3.8-3.6
			C318.3,399,317.8,397,317.8,394.7L317.8,394.7z M323.3,395c0,2,0.5,3.5,1.4,4.5c0.9,1.1,2.1,1.6,3.5,1.6c1.4,0,2.5-0.5,3.5-1.6
			c0.9-1.1,1.4-2.6,1.4-4.6c0-1.9-0.5-3.5-1.4-4.5c-0.9-1.1-2.1-1.6-3.5-1.6c-1.4,0-2.5,0.5-3.5,1.6
			C323.7,391.5,323.3,393,323.3,395L323.3,395z"/>
		<path class="st4" d="M342.4,385.1h4.9v2.9c0.6-1,1.5-1.8,2.6-2.4c1.1-0.6,2.3-0.9,3.6-0.9c2.3,0,4.3,0.9,5.9,2.7
			c1.6,1.8,2.4,4.3,2.4,7.6c0,3.3-0.8,5.9-2.4,7.8c-1.6,1.8-3.6,2.8-5.9,2.8c-1.1,0-2.1-0.2-3-0.7c-0.9-0.4-1.8-1.2-2.8-2.3v10.1
			h-5.3V385.1L342.4,385.1z M347.6,394.7c0,2.2,0.4,3.9,1.3,5c0.9,1.1,2,1.6,3.2,1.6c1.2,0,2.2-0.5,3.1-1.5c0.8-1,1.2-2.6,1.2-4.8
			c0-2.1-0.4-3.6-1.3-4.7c-0.8-1-1.9-1.5-3.1-1.5c-1.3,0-2.4,0.5-3.2,1.5C348.1,391.3,347.6,392.7,347.6,394.7L347.6,394.7z"/>
		<path class="st4" d="M377.6,398.7l5.3,0.9c-0.7,1.9-1.7,3.4-3.2,4.4c-1.5,1-3.3,1.5-5.5,1.5c-3.5,0-6-1.1-7.7-3.4
			c-1.3-1.8-2-4.1-2-6.9c0-3.3,0.9-5.9,2.6-7.8c1.7-1.9,3.9-2.8,6.6-2.8c3,0,5.3,1,7,2.9c1.7,2,2.5,5,2.5,9h-13.2
			c0,1.6,0.5,2.8,1.3,3.6c0.8,0.9,1.8,1.3,3,1.3c0.8,0,1.5-0.2,2.1-0.7C376.9,400.4,377.3,399.7,377.6,398.7L377.6,398.7z
			 M377.9,393.3c0-1.5-0.4-2.7-1.2-3.5c-0.8-0.8-1.7-1.2-2.7-1.2c-1.2,0-2.1,0.4-2.9,1.3c-0.7,0.8-1.1,2-1.1,3.4H377.9L377.9,393.3z
			"/>
		<path class="st4" d="M405.6,405h-5.3v-10.2c0-2.2-0.1-3.5-0.3-4.2c-0.2-0.6-0.6-1.1-1.1-1.5c-0.5-0.3-1.1-0.5-1.8-0.5
			c-0.9,0-1.7,0.2-2.5,0.8c-0.7,0.5-1.2,1.2-1.5,2c-0.3,0.8-0.4,2.4-0.4,4.6v9h-5.3v-19.9h4.9v2.9c1.7-2.3,3.9-3.4,6.6-3.4
			c1.2,0,2.2,0.2,3.2,0.6c1,0.4,1.7,1,2.2,1.6c0.5,0.7,0.8,1.4,1,2.2c0.2,0.8,0.3,2,0.3,3.5V405L405.6,405z"/>
		<path class="st4" d="M494.7,406.1l6,0.7c0.1,0.7,0.3,1.2,0.7,1.4c0.5,0.4,1.3,0.6,2.4,0.6c1.4,0,2.4-0.2,3.1-0.6
			c0.5-0.3,0.8-0.7,1.1-1.3c0.2-0.4,0.2-1.2,0.2-2.4v-2.9c-1.6,2.2-3.6,3.2-6,3.2c-2.7,0-4.8-1.1-6.4-3.4c-1.2-1.8-1.8-4-1.8-6.7
			c0-3.3,0.8-5.9,2.4-7.7c1.6-1.8,3.6-2.6,6-2.6c2.5,0,4.5,1.1,6.1,3.3v-2.8h4.9v17.9c0,2.4-0.2,4.1-0.6,5.3
			c-0.4,1.2-0.9,2.1-1.6,2.7c-0.7,0.7-1.6,1.2-2.8,1.6c-1.2,0.4-2.7,0.6-4.4,0.6c-3.4,0-5.8-0.6-7.2-1.7c-1.4-1.2-2.1-2.6-2.1-4.4
			C494.6,406.6,494.7,406.3,494.7,406.1L494.7,406.1z M499.4,394.4c0,2.1,0.4,3.7,1.2,4.6c0.8,1,1.8,1.5,3,1.5
			c1.3,0,2.4-0.5,3.3-1.5c0.9-1,1.3-2.5,1.3-4.5c0-2.1-0.4-3.6-1.3-4.6c-0.8-1-1.9-1.5-3.2-1.5c-1.3,0-2.3,0.5-3.1,1.5
			C499.8,390.9,499.4,392.4,499.4,394.4L499.4,394.4z"/>
		<path class="st4" d="M530.2,398.4l5.3,0.9c-0.7,1.9-1.7,3.4-3.2,4.4c-1.5,1-3.3,1.5-5.5,1.5c-3.5,0-6-1.1-7.7-3.4
			c-1.3-1.8-2-4.1-2-6.9c0-3.3,0.9-5.9,2.6-7.8c1.7-1.9,3.9-2.8,6.6-2.8c3,0,5.3,1,7,2.9c1.7,2,2.5,5,2.5,9h-13.2
			c0,1.6,0.5,2.8,1.3,3.6c0.8,0.9,1.8,1.3,3,1.3c0.8,0,1.5-0.2,2.1-0.7C529.5,400.2,529.9,399.4,530.2,398.4L530.2,398.4z
			 M530.5,393.1c0-1.5-0.4-2.7-1.2-3.5c-0.7-0.8-1.7-1.2-2.7-1.2c-1.2,0-2.1,0.4-2.9,1.3c-0.7,0.8-1.1,2-1.1,3.4H530.5L530.5,393.1z
			"/>
		<path class="st4" d="M538.8,394.5c0-1.8,0.4-3.4,1.3-5.1c0.9-1.6,2.1-2.9,3.7-3.8c1.6-0.9,3.4-1.3,5.3-1.3c3,0,5.5,1,7.4,2.9
			c1.9,2,2.9,4.4,2.9,7.4c0,3-1,5.5-2.9,7.5c-1.9,2-4.4,3-7.4,3c-1.8,0-3.6-0.4-5.2-1.2c-1.7-0.8-2.9-2-3.8-3.6
			C539.3,398.8,538.8,396.8,538.8,394.5L538.8,394.5z M544.2,394.8c0,2,0.5,3.5,1.4,4.5c0.9,1.1,2.1,1.6,3.5,1.6
			c1.4,0,2.5-0.5,3.5-1.6c0.9-1.1,1.4-2.6,1.4-4.6c0-1.9-0.5-3.5-1.4-4.5c-0.9-1.1-2.1-1.6-3.5-1.6c-1.4,0-2.5,0.5-3.5,1.6
			C544.7,391.3,544.2,392.8,544.2,394.8L544.2,394.8z"/>
		<path class="st4" d="M561.2,384.8h2.9v-1.5c0-1.7,0.2-2.9,0.5-3.8c0.4-0.8,1-1.5,2-2c1-0.5,2.2-0.8,3.6-0.8c1.5,0,3,0.2,4.4,0.7
			l-0.7,3.7c-0.8-0.2-1.6-0.3-2.4-0.3c-0.8,0-1.3,0.2-1.6,0.5c-0.3,0.4-0.5,1-0.5,2.1v1.4h3.9v4.1h-3.9v15.8h-5.3V389h-2.9V384.8
			L561.2,384.8z"/>
		<path class="st4" d="M574,384.8h2.9v-1.5c0-1.7,0.2-2.9,0.5-3.8c0.4-0.8,1-1.5,2-2c1-0.5,2.2-0.8,3.6-0.8c1.5,0,3,0.2,4.4,0.7
			l-0.7,3.7c-0.8-0.2-1.6-0.3-2.4-0.3c-0.8,0-1.3,0.2-1.6,0.5c-0.3,0.4-0.5,1-0.5,2.1v1.4h3.9v4.1h-3.9v15.8H577V389H574V384.8
			L574,384.8z"/>
		<path class="st4" d="M607.3,404.8H602v-10.2c0-2.2-0.1-3.5-0.3-4.2c-0.2-0.6-0.6-1.1-1.1-1.5c-0.5-0.3-1.1-0.5-1.8-0.5
			c-0.9,0-1.7,0.3-2.5,0.8c-0.7,0.5-1.2,1.2-1.5,2c-0.3,0.8-0.4,2.4-0.4,4.6v9h-5.3v-19.9h4.9v2.9c1.7-2.3,3.9-3.4,6.6-3.4
			c1.2,0,2.2,0.2,3.2,0.6c1,0.4,1.7,1,2.2,1.6c0.5,0.7,0.8,1.4,1,2.2c0.2,0.8,0.3,2,0.3,3.5V404.8L607.3,404.8z"/>
		<path class="st4" d="M624.2,398.4l5.3,0.9c-0.7,1.9-1.7,3.4-3.2,4.4c-1.5,1-3.3,1.5-5.5,1.5c-3.5,0-6-1.1-7.7-3.4
			c-1.3-1.8-2-4.1-2-6.9c0-3.3,0.9-5.9,2.6-7.8c1.7-1.9,3.9-2.8,6.6-2.8c3,0,5.3,1,7,2.9c1.7,2,2.5,5,2.5,9h-13.2
			c0,1.6,0.5,2.8,1.3,3.6c0.8,0.9,1.8,1.3,3,1.3c0.8,0,1.5-0.2,2.1-0.7C623.5,400.2,623.9,399.4,624.2,398.4L624.2,398.4z
			 M624.5,393.1c0-1.5-0.4-2.7-1.2-3.5c-0.7-0.8-1.7-1.2-2.7-1.2c-1.2,0-2.1,0.4-2.9,1.3c-0.7,0.8-1.1,2-1.1,3.4H624.5L624.5,393.1z
			"/>
		<path class="st4" d="M643.2,384.8v4.2h-3.6v8c0,1.6,0,2.6,0.1,2.8c0.1,0.3,0.2,0.5,0.5,0.7c0.2,0.2,0.5,0.3,0.9,0.3
			c0.5,0,1.2-0.2,2.1-0.5l0.4,4.1c-1.2,0.5-2.6,0.8-4.2,0.8c-0.9,0-1.8-0.2-2.6-0.5c-0.8-0.3-1.3-0.7-1.7-1.2
			c-0.4-0.5-0.6-1.2-0.7-2.1c-0.1-0.6-0.2-1.9-0.2-3.7V389h-2.4v-4.2h2.4v-4l5.3-3.1v7H643.2L643.2,384.8z"/>
		<path class="st4" d="M553.5,375.7h5.2v5.2h-5.2V375.7L553.5,375.7z M539.3,375.7h5.2v5.2h-5.2V375.7L539.3,375.7z"/>
	</g>
</g>
</svg>
