<?xml version="1.0" encoding="utf-8"?>
<!-- Generator: Adobe Illustrator 19.2.0, SVG Export Plug-In . SVG Version: 6.00 Build 0)  -->
<svg version="1.1" id="Livello_1" xmlns="http://www.w3.org/2000/svg" xmlns:xlink="http://www.w3.org/1999/xlink" x="0px" y="0px"
	 viewBox="0 0 960 960" style="enable-background:new 0 0 960 960;" xml:space="preserve">
<style type="text/css">
	.st0{fill-rule:evenodd;clip-rule:evenodd;fill:#005EA7;stroke:#005EA7;stroke-width:0.6522;stroke-miterlimit:2.6131;}
	.st1{fill-rule:evenodd;clip-rule:evenodd;fill:#005EA7;stroke:#FFFFFF;stroke-width:4.3478;stroke-miterlimit:2.6131;}
	.st2{fill-rule:evenodd;clip-rule:evenodd;fill:#E1001A;stroke:#E1001A;stroke-width:2.1739;stroke-miterlimit:2.6131;}
	.st3{fill-rule:evenodd;clip-rule:evenodd;fill:#FFFFFF;stroke:#FFFFFF;stroke-width:2.1739;stroke-miterlimit:2.6131;}
	.st4{fill-rule:evenodd;clip-rule:evenodd;fill:#FFFFFF;}
</style>
<g>
	<g>
		<polygon class="st0" points="247.8,120 712.2,120 712.2,840 247.8,840 247.8,120 		"/>
		<path class="st1" d="M282.4,129.3h396.1c14.6,0,26.1,12.4,26.1,26.1v650c0,13.9-12.2,26.1-26.1,26.1H282.4
			c-13.7,0-26.1-11.5-26.1-26.1v-650C256.3,141.1,268,129.3,282.4,129.3L282.4,129.3z"/>
		<polygon class="st2" points="299.8,308 660.7,308 660.7,427.6 299.8,427.6 299.8,308 		"/>
		<polygon class="st3" points="299.8,662 660.7,662 660.7,781.5 299.8,781.5 299.8,662 		"/>
		<polygon class="st3" points="299.8,485 660.7,485 660.7,604.6 299.8,604.6 299.8,485 		"/>
		<path class="st4" d="M311.2,224.8l11.5-1.2c0.7,4.1,2.1,7.1,4.2,9.1c2.1,1.9,5,2.9,8.6,2.9c3.8,0,6.7-0.9,8.6-2.6
			c1.9-1.7,2.9-3.7,2.9-6c0-1.5-0.4-2.7-1.2-3.8c-0.8-1-2.2-1.9-4.3-2.7c-1.4-0.5-4.6-1.4-9.5-2.7c-6.4-1.7-10.8-3.7-13.4-6.2
			c-3.6-3.4-5.4-7.6-5.4-12.5c0-3.2,0.8-6.1,2.5-8.9c1.7-2.8,4.1-4.9,7.3-6.3c3.2-1.4,7-2.2,11.5-2.2c7.4,0,12.9,1.7,16.6,5.1
			c3.7,3.4,5.7,8,5.9,13.7l-11.8,0.6c-0.5-3.2-1.6-5.5-3.3-6.9c-1.7-1.4-4.2-2.1-7.5-2.1c-3.4,0-6.1,0.7-8.1,2.2
			c-1.3,1-1.9,2.2-1.9,3.9c0,1.5,0.6,2.7,1.8,3.8c1.5,1.3,5.1,2.7,10.9,4.2c5.8,1.4,10,2.9,12.8,4.5c2.8,1.6,4.9,3.7,6.5,6.3
			c1.6,2.7,2.3,6,2.3,9.9c0,3.6-0.9,6.9-2.8,10c-1.9,3.1-4.5,5.4-7.9,6.9c-3.4,1.5-7.7,2.3-12.8,2.3c-7.4,0-13.1-1.8-17.1-5.5
			C314.4,237,312,231.7,311.2,224.8L311.2,224.8z"/>
		<polygon class="st4" points="382.1,245 382.1,193.3 364.7,193.3 364.7,182.7 411.3,182.7 411.3,193.3 394,193.3 394,245 
			382.1,245 		"/>
		<polygon class="st4" points="419,245 419,182.7 462.5,182.7 462.5,193.3 430.9,193.3 430.9,207.1 460.3,207.1 460.3,217.6 
			430.9,217.6 430.9,234.5 463.6,234.5 463.6,245 419,245 		"/>
		<polygon class="st4" points="474,245 474,183.3 485.9,183.3 485.9,234.5 515.3,234.5 515.3,245 474,245 		"/>
		<polygon class="st4" points="532.7,245 511.7,182.7 524.6,182.7 539.4,228.8 553.8,182.7 566.3,182.7 545.3,245 532.7,245 		"/>
		<polygon class="st4" points="572,245 572,182.7 583.9,182.7 583.9,245 572,245 		"/>
		<path class="st4" d="M592.8,214.3c0-6.3,0.9-11.7,2.7-16c1.3-3.2,3.2-6,5.5-8.5c2.3-2.5,4.8-4.4,7.6-5.6c3.7-1.7,7.9-2.5,12.7-2.5
			c8.7,0,15.6,2.8,20.8,8.5c5.2,5.7,7.8,13.6,7.8,23.7c0,10.1-2.6,17.9-7.7,23.6c-5.2,5.7-12,8.5-20.6,8.5c-8.7,0-15.7-2.8-20.8-8.5
			C595.4,231.9,592.8,224.2,592.8,214.3L592.8,214.3z M605,213.8c0,7,1.5,12.4,4.6,16c3.1,3.6,7,5.5,11.7,5.5
			c4.7,0,8.6-1.8,11.6-5.4c3-3.6,4.5-9,4.5-16.2c0-7.1-1.5-12.5-4.4-16c-3-3.5-6.9-5.3-11.8-5.3c-4.9,0-8.8,1.8-11.8,5.3
			C606.5,201.3,605,206.7,605,213.8L605,213.8z"/>
		<path class="st4" d="M324.2,337.9l-4.6,0.9c-0.2-1-0.5-1.8-1.1-2.3c-0.6-0.5-1.3-0.8-2.1-0.8c-1.2,0-2.1,0.5-2.8,1.4
			c-0.7,0.9-1,2.4-1,4.6c0,2.4,0.4,4,1.1,5c0.7,1,1.7,1.5,2.8,1.5c0.9,0,1.6-0.3,2.2-0.9c0.6-0.6,1-1.6,1.2-2.9l4.6,0.9
			c-0.5,2.4-1.4,4.2-2.8,5.4c-1.4,1.2-3.2,1.8-5.5,1.8c-2.6,0-4.7-0.9-6.2-2.8c-1.5-1.8-2.3-4.4-2.3-7.6c0-3.3,0.8-5.9,2.3-7.7
			c1.5-1.8,3.6-2.8,6.3-2.8c2.2,0,3.9,0.5,5.1,1.6C322.7,334.2,323.6,335.8,324.2,337.9L324.2,337.9z"/>
		<path class="st4" d="M332.4,324.4v10.1c1.5-2,3.3-3,5.4-3c1.1,0,2,0.2,2.9,0.7c0.9,0.4,1.5,1,2,1.7c0.4,0.7,0.7,1.5,0.9,2.3
			c0.2,0.8,0.2,2.2,0.2,4V352h-4.7v-10.5c0-2.1-0.1-3.4-0.3-4c-0.2-0.6-0.5-1-0.9-1.3c-0.4-0.3-1-0.5-1.7-0.5
			c-0.8,0-1.5,0.2-2.1,0.6c-0.6,0.4-1.1,1.1-1.3,1.9c-0.3,0.9-0.4,2.1-0.4,3.8v10h-4.7v-27.5H332.4L332.4,324.4z"/>
		<path class="st4" d="M348.6,329.3v-4.9h4.7v4.9H348.6L348.6,329.3z M348.6,352V332h4.7V352H348.6L348.6,352z"/>
		<path class="st4" d="M369.8,352v-3c-0.7,1.1-1.5,1.9-2.5,2.5c-1.1,0.6-2.2,0.9-3.3,0.9c-1.2,0-2.3-0.3-3.2-0.9
			c-0.9-0.6-1.6-1.4-2.1-2.5c-0.4-1.1-0.6-2.5-0.6-4.4V332h4.7v9.2c0,2.8,0.1,4.5,0.3,5.2c0.2,0.6,0.5,1.1,0.9,1.5
			c0.5,0.4,1,0.6,1.7,0.6c0.8,0,1.5-0.2,2.2-0.7c0.6-0.5,1.1-1.1,1.3-1.8c0.2-0.7,0.4-2.5,0.4-5.4V332h4.7V352H369.8L369.8,352z"/>
		<path class="st4" d="M377.3,346.3l4.7-0.8c0.2,1,0.6,1.8,1.2,2.3c0.6,0.5,1.5,0.8,2.6,0.8c1.2,0,2.1-0.3,2.7-0.8
			c0.4-0.3,0.6-0.8,0.6-1.4c0-0.4-0.1-0.7-0.3-1c-0.2-0.3-0.8-0.5-1.6-0.7c-3.8-0.9-6.2-1.8-7.2-2.6c-1.4-1.1-2.1-2.6-2.1-4.5
			c0-1.7,0.6-3.2,1.8-4.4c1.2-1.2,3.1-1.8,5.6-1.8c2.4,0,4.2,0.4,5.4,1.3c1.2,0.9,2,2.2,2.4,3.9l-4.4,0.9c-0.2-0.8-0.5-1.4-1.1-1.8
			c-0.5-0.4-1.3-0.6-2.3-0.6c-1.2,0-2.1,0.2-2.7,0.6c-0.4,0.3-0.5,0.6-0.5,1.1c0,0.4,0.2,0.7,0.5,1c0.4,0.4,1.9,0.8,4.4,1.5
			c2.5,0.6,4.2,1.4,5.2,2.3c1,0.9,1.5,2.3,1.5,3.9c0,1.8-0.7,3.4-2,4.7c-1.4,1.3-3.4,2-6,2c-2.4,0-4.3-0.5-5.7-1.7
			C378.7,349.7,377.8,348.2,377.3,346.3L377.3,346.3z"/>
		<path class="st4" d="M396.9,341.7c0-1.8,0.4-3.4,1.1-5.1c0.8-1.6,1.9-2.9,3.3-3.7c1.4-0.9,3-1.3,4.7-1.3c2.7,0,4.9,1,6.6,2.9
			c1.7,2,2.6,4.4,2.6,7.4c0,3-0.9,5.5-2.6,7.5c-1.7,2-3.9,3-6.5,3c-1.6,0-3.2-0.4-4.6-1.2c-1.5-0.8-2.6-2-3.4-3.6
			C397.3,345.9,396.9,344,396.9,341.7L396.9,341.7z M401.7,342c0,2,0.4,3.5,1.3,4.5c0.8,1.1,1.9,1.6,3.1,1.6c1.2,0,2.2-0.5,3.1-1.6
			c0.8-1.1,1.2-2.6,1.2-4.6c0-1.9-0.4-3.5-1.2-4.5c-0.8-1.1-1.9-1.6-3.1-1.6c-1.2,0-2.3,0.5-3.1,1.6
			C402.1,338.5,401.7,340,401.7,342L401.7,342z"/>
		<path class="st4" d="M549.3,331.8h2.8v-1.5c0-1.7,0.2-2.9,0.5-3.8c0.3-0.8,0.9-1.5,1.8-2c0.9-0.5,2-0.8,3.4-0.8
			c1.4,0,2.8,0.2,4.2,0.7l-0.7,3.7c-0.8-0.2-1.6-0.3-2.3-0.3c-0.7,0-1.2,0.2-1.5,0.5c-0.3,0.4-0.5,1-0.5,2.1v1.4h3.7v4.1h-3.7v15.8
			h-5v-15.8h-2.8V331.8L549.3,331.8z"/>
		<path class="st4" d="M574.4,345.4l4.9,0.9c-0.6,1.9-1.6,3.4-3,4.4c-1.4,1-3.1,1.5-5.1,1.5c-3.3,0-5.7-1.1-7.2-3.4
			c-1.2-1.8-1.9-4.1-1.9-6.9c0-3.3,0.8-5.9,2.4-7.8c1.6-1.9,3.7-2.8,6.2-2.8c2.8,0,5,1,6.6,2.9c1.6,2,2.4,5,2.3,9h-12.4
			c0,1.6,0.4,2.8,1.2,3.6c0.8,0.9,1.7,1.3,2.9,1.3c0.8,0,1.4-0.2,2-0.7C573.7,347.1,574.1,346.4,574.4,345.4L574.4,345.4z
			 M574.7,340.1c0-1.5-0.4-2.7-1.1-3.5c-0.7-0.8-1.6-1.2-2.6-1.2c-1.1,0-2,0.4-2.7,1.3c-0.7,0.8-1.1,2-1,3.4H574.7L574.7,340.1z"/>
		<path class="st4" d="M588.4,351.7h-5v-19.9h4.6v2.8c0.8-1.3,1.5-2.2,2.1-2.6c0.6-0.4,1.3-0.6,2.1-0.6c1.1,0,2.2,0.3,3.3,1
			l-1.5,4.6c-0.8-0.6-1.6-0.9-2.3-0.9c-0.7,0-1.3,0.2-1.8,0.6c-0.5,0.4-0.9,1.1-1.1,2.2c-0.3,1.1-0.4,3.3-0.4,6.7V351.7L588.4,351.7
			z"/>
		<path class="st4" d="M597.3,331.8h4.6v2.7c1.6-2.1,3.6-3.2,5.8-3.2c1.2,0,2.2,0.3,3.1,0.8c0.9,0.5,1.6,1.3,2.2,2.4
			c0.8-1.1,1.7-1.9,2.7-2.4c1-0.5,2-0.8,3.1-0.8c1.4,0,2.5,0.3,3.5,0.9c1,0.6,1.7,1.5,2.1,2.6c0.3,0.9,0.5,2.2,0.5,4.1v12.8h-5
			v-11.4c0-2-0.2-3.3-0.5-3.8c-0.5-0.8-1.2-1.1-2.1-1.1c-0.7,0-1.4,0.2-2,0.7c-0.6,0.4-1,1.1-1.3,2c-0.3,0.9-0.4,2.2-0.4,4.1v9.6h-5
			v-10.9c0-1.9-0.1-3.2-0.3-3.8c-0.2-0.6-0.5-1-0.8-1.3c-0.4-0.3-0.9-0.4-1.5-0.4c-0.8,0-1.5,0.2-2.1,0.7c-0.6,0.4-1.1,1.1-1.3,1.9
			c-0.3,0.8-0.4,2.2-0.4,4.1v9.7h-5V331.8L597.3,331.8z"/>
		<path class="st4" d="M640.7,345.4l4.9,0.9c-0.6,1.9-1.6,3.4-3,4.4c-1.4,1-3.1,1.5-5.1,1.5c-3.3,0-5.7-1.1-7.2-3.4
			c-1.2-1.8-1.9-4.1-1.9-6.9c0-3.3,0.8-5.9,2.4-7.8c1.6-1.9,3.7-2.8,6.2-2.8c2.8,0,5,1,6.6,2.9c1.6,2,2.4,5,2.3,9h-12.4
			c0,1.6,0.4,2.8,1.2,3.6c0.8,0.9,1.7,1.3,2.9,1.3c0.8,0,1.4-0.2,2-0.7C640,347.1,640.4,346.4,640.7,345.4L640.7,345.4z M641,340.1
			c0-1.5-0.4-2.7-1.1-3.5c-0.7-0.8-1.6-1.2-2.6-1.2c-1.1,0-2,0.4-2.7,1.3c-0.7,0.8-1.1,2-1,3.4H641L641,340.1z"/>
		<polygon class="st4" points="649.9,334 649,328.9 649,324.2 654.4,324.2 654.4,328.9 653.6,334 649.9,334 		"/>
		<path class="st4" d="M324,391l-4.5,0.9c-0.2-1-0.5-1.8-1-2.3c-0.5-0.5-1.2-0.8-2.1-0.8c-1.1,0-2.1,0.5-2.7,1.4
			c-0.7,0.9-1,2.4-1,4.6c0,2.4,0.3,4,1,5c0.7,1,1.6,1.5,2.8,1.5c0.9,0,1.6-0.3,2.1-0.9c0.6-0.6,0.9-1.6,1.2-2.9l4.5,0.9
			c-0.5,2.4-1.4,4.2-2.7,5.4c-1.3,1.2-3.1,1.8-5.3,1.8c-2.5,0-4.6-0.9-6.1-2.8c-1.5-1.8-2.3-4.4-2.3-7.6c0-3.3,0.8-5.9,2.3-7.7
			c1.5-1.8,3.6-2.8,6.1-2.8c2.1,0,3.8,0.5,5,1.6C322.6,387.2,323.5,388.8,324,391L324,391z"/>
		<polygon class="st4" points="327.5,405 327.5,377.5 332.1,377.5 332.1,405 327.5,405 		"/>
		<path class="st4" d="M335.7,394.7c0-1.8,0.4-3.4,1.1-5.1c0.8-1.6,1.8-2.9,3.2-3.8c1.4-0.9,2.9-1.3,4.6-1.3c2.6,0,4.8,1,6.4,2.9
			c1.7,2,2.5,4.4,2.5,7.4c0,3-0.8,5.5-2.5,7.5c-1.7,2-3.8,3-6.4,3c-1.6,0-3.1-0.4-4.5-1.2c-1.4-0.8-2.5-2-3.3-3.6
			C336.1,399,335.7,397,335.7,394.7L335.7,394.7z M340.4,395c0,2,0.4,3.5,1.2,4.5c0.8,1.1,1.8,1.6,3,1.6c1.2,0,2.2-0.5,3-1.6
			c0.8-1.1,1.2-2.6,1.2-4.6c0-1.9-0.4-3.5-1.2-4.5c-0.8-1.1-1.8-1.6-3-1.6c-1.2,0-2.2,0.5-3,1.6C340.8,391.5,340.4,393,340.4,395
			L340.4,395z"/>
		<path class="st4" d="M355.6,399.3l4.6-0.8c0.2,1,0.6,1.8,1.2,2.3c0.6,0.5,1.4,0.8,2.5,0.8c1.2,0,2.1-0.3,2.7-0.8
			c0.4-0.3,0.6-0.8,0.6-1.4c0-0.4-0.1-0.7-0.3-1c-0.2-0.3-0.7-0.5-1.5-0.7c-3.7-0.9-6-1.8-7-2.6c-1.4-1.1-2.1-2.6-2.1-4.5
			c0-1.7,0.6-3.2,1.8-4.4c1.2-1.2,3-1.8,5.5-1.8c2.4,0,4.1,0.4,5.3,1.3c1.2,0.9,1.9,2.2,2.4,3.9l-4.3,0.9c-0.2-0.8-0.5-1.4-1.1-1.8
			c-0.5-0.4-1.3-0.6-2.2-0.6c-1.2,0-2.1,0.2-2.6,0.6c-0.3,0.3-0.5,0.6-0.5,1.1c0,0.4,0.2,0.7,0.5,1c0.4,0.4,1.8,0.8,4.3,1.5
			c2.4,0.6,4.1,1.4,5.1,2.3c1,0.9,1.4,2.2,1.4,3.9c0,1.8-0.7,3.4-2,4.7c-1.3,1.3-3.3,2-5.9,2c-2.4,0-4.2-0.6-5.6-1.7
			C356.9,402.7,356,401.2,355.6,399.3L355.6,399.3z"/>
		<path class="st4" d="M385.8,398.7l4.6,0.9c-0.6,1.9-1.5,3.4-2.8,4.4c-1.3,1-2.9,1.5-4.8,1.5c-3,0-5.2-1.1-6.7-3.4
			c-1.1-1.8-1.7-4.1-1.7-6.9c0-3.3,0.8-5.9,2.3-7.8c1.5-1.9,3.4-2.8,5.7-2.8c2.6,0,4.6,1,6.1,2.9c1.5,2,2.2,5,2.1,9h-11.5
			c0,1.6,0.4,2.8,1.1,3.6c0.7,0.9,1.6,1.3,2.6,1.3c0.7,0,1.3-0.2,1.8-0.7C385.2,400.4,385.6,399.7,385.8,398.7L385.8,398.7z
			 M386.1,393.3c0-1.5-0.4-2.7-1-3.5c-0.7-0.8-1.4-1.2-2.4-1.2c-1,0-1.8,0.4-2.5,1.3c-0.7,0.8-1,2-1,3.4H386.1L386.1,393.3z"/>
		<path class="st4" d="M410.3,405H406v-2.9c-0.7,1.1-1.5,2-2.5,2.5c-1,0.6-1.9,0.8-2.9,0.8c-2,0-3.7-0.9-5.1-2.8
			c-1.4-1.8-2.1-4.4-2.1-7.7c0-3.4,0.7-6,2.1-7.7c1.4-1.8,3.1-2.6,5.2-2.6c1.9,0,3.6,0.9,5,2.8v-9.9h4.6V405L410.3,405z M398,394.6
			c0,2.1,0.3,3.7,0.8,4.6c0.7,1.4,1.8,2.1,3.1,2.1c1.1,0,2-0.5,2.7-1.6c0.7-1,1.1-2.6,1.1-4.6c0-2.3-0.4-3.9-1.1-4.9
			c-0.7-1-1.6-1.5-2.8-1.5c-1.1,0-2,0.5-2.7,1.5C398.4,391.1,398,392.6,398,394.6L398,394.6z"/>
		<path class="st4" d="M445.1,406.1l5.5,0.7c0.1,0.7,0.3,1.2,0.6,1.4c0.5,0.4,1.2,0.6,2.2,0.6c1.3,0,2.2-0.2,2.8-0.6
			c0.4-0.3,0.7-0.7,1-1.3c0.1-0.4,0.2-1.2,0.2-2.4v-2.9c-1.4,2.2-3.3,3.2-5.5,3.2c-2.5,0-4.4-1.1-5.8-3.4c-1.1-1.8-1.7-4-1.7-6.7
			c0-3.3,0.7-5.9,2.2-7.7c1.5-1.8,3.3-2.6,5.5-2.6c2.3,0,4.1,1.1,5.6,3.3v-2.8h4.5v17.9c0,2.4-0.2,4.1-0.5,5.3
			c-0.4,1.2-0.9,2.1-1.5,2.7c-0.6,0.7-1.5,1.2-2.6,1.6c-1.1,0.4-2.4,0.6-4.1,0.6c-3.1,0-5.3-0.6-6.6-1.7c-1.3-1.2-1.9-2.6-1.9-4.4
			C445.1,406.6,445.1,406.3,445.1,406.1L445.1,406.1z M449.5,394.4c0,2.1,0.4,3.7,1.1,4.6c0.8,1,1.7,1.5,2.8,1.5
			c1.2,0,2.2-0.5,3-1.5c0.8-1,1.2-2.5,1.2-4.5c0-2.1-0.4-3.6-1.2-4.6c-0.8-1-1.8-1.5-3-1.5c-1.2,0-2.1,0.5-2.9,1.5
			C449.8,390.9,449.5,392.4,449.5,394.4L449.5,394.4z"/>
		<path class="st4" d="M477.7,398.4l4.8,0.9c-0.6,1.9-1.6,3.4-2.9,4.4c-1.3,1-3,1.5-5,1.5c-3.2,0-5.5-1.1-7.1-3.4
			c-1.2-1.8-1.8-4.1-1.8-6.9c0-3.3,0.8-5.9,2.4-7.8c1.6-1.9,3.6-2.8,6-2.8c2.7,0,4.9,1,6.4,2.9c1.6,2,2.3,5,2.3,9h-12.1
			c0,1.6,0.4,2.8,1.2,3.6c0.7,0.9,1.7,1.3,2.8,1.3c0.8,0,1.4-0.2,1.9-0.7C477.1,400.2,477.5,399.4,477.7,398.4L477.7,398.4z
			 M478,393.1c0-1.5-0.4-2.7-1.1-3.5c-0.7-0.8-1.5-1.2-2.5-1.2c-1.1,0-1.9,0.4-2.6,1.3c-0.7,0.8-1,2-1,3.4H478L478,393.1z"/>
		<path class="st4" d="M485,399.1l4.9-0.8c0.2,1,0.6,1.8,1.3,2.3c0.6,0.5,1.5,0.8,2.7,0.8c1.3,0,2.2-0.3,2.8-0.8
			c0.4-0.3,0.6-0.8,0.6-1.4c0-0.4-0.1-0.7-0.3-1c-0.2-0.3-0.8-0.5-1.6-0.7c-3.9-0.9-6.4-1.8-7.4-2.6c-1.4-1.1-2.2-2.6-2.2-4.5
			c0-1.7,0.6-3.2,1.9-4.4c1.3-1.2,3.2-1.8,5.8-1.8c2.5,0,4.4,0.4,5.6,1.3c1.2,0.9,2.1,2.2,2.5,3.9l-4.6,0.9
			c-0.2-0.8-0.6-1.4-1.1-1.8c-0.5-0.4-1.3-0.6-2.3-0.6c-1.3,0-2.2,0.2-2.7,0.6c-0.4,0.3-0.5,0.6-0.5,1.1c0,0.4,0.2,0.7,0.5,1
			c0.4,0.4,1.9,0.8,4.5,1.5c2.6,0.6,4.4,1.4,5.4,2.3c1,0.9,1.5,2.3,1.5,3.9c0,1.8-0.7,3.4-2.1,4.7c-1.4,1.3-3.5,2-6.2,2
			c-2.5,0-4.5-0.6-5.9-1.7C486.4,402.5,485.5,401,485,399.1L485,399.1z"/>
		<path class="st4" d="M522.3,390.7l-4.8,0.9c-0.2-1-0.5-1.8-1.1-2.3c-0.6-0.5-1.3-0.8-2.2-0.8c-1.2,0-2.2,0.5-2.9,1.4
			c-0.7,0.9-1.1,2.4-1.1,4.6c0,2.4,0.4,4,1.1,5c0.7,1,1.7,1.5,2.9,1.5c0.9,0,1.7-0.3,2.3-0.9c0.6-0.6,1-1.6,1.2-2.9l4.8,0.9
			c-0.5,2.4-1.4,4.2-2.8,5.4c-1.4,1.2-3.3,1.8-5.6,1.8c-2.7,0-4.8-0.9-6.4-2.8c-1.6-1.8-2.4-4.4-2.4-7.6c0-3.3,0.8-5.9,2.4-7.7
			c1.6-1.8,3.8-2.8,6.5-2.8c2.2,0,4,0.5,5.3,1.6C520.8,387,521.7,388.6,522.3,390.7L522.3,390.7z"/>
		<path class="st4" d="M530.8,377.2v10.1c1.6-2,3.4-3,5.6-3c1.1,0,2.1,0.2,3,0.7c0.9,0.4,1.6,1,2,1.7c0.5,0.7,0.8,1.5,0.9,2.3
			c0.2,0.8,0.3,2.2,0.3,4v11.7h-4.8v-10.5c0-2.1-0.1-3.4-0.3-4c-0.2-0.6-0.5-1-1-1.3c-0.5-0.3-1-0.5-1.7-0.5c-0.8,0-1.5,0.2-2.2,0.6
			c-0.6,0.4-1.1,1.1-1.4,1.9c-0.3,0.9-0.4,2.1-0.4,3.8v10h-4.8v-27.5H530.8L530.8,377.2z"/>
		<polygon class="st4" points="547.5,404.8 547.5,377.2 552.4,377.2 552.4,404.8 547.5,404.8 		"/>
		<path class="st4" d="M556.2,394.5c0-1.8,0.4-3.4,1.2-5.1c0.8-1.6,1.9-2.9,3.4-3.8c1.5-0.9,3.1-1.3,4.9-1.3c2.8,0,5,1,6.8,2.9
			c1.8,2,2.7,4.4,2.7,7.4c0,3-0.9,5.5-2.7,7.5c-1.8,2-4,3-6.7,3c-1.7,0-3.3-0.4-4.8-1.2c-1.5-0.8-2.7-2-3.5-3.6
			C556.6,398.8,556.2,396.8,556.2,394.5L556.2,394.5z M561.2,394.8c0,2,0.4,3.5,1.3,4.5c0.9,1.1,1.9,1.6,3.2,1.6
			c1.3,0,2.3-0.5,3.2-1.6c0.9-1.1,1.3-2.6,1.3-4.6c0-1.9-0.4-3.5-1.3-4.5c-0.9-1.1-1.9-1.6-3.2-1.6c-1.3,0-2.3,0.5-3.2,1.6
			C561.6,391.3,561.2,392.8,561.2,394.8L561.2,394.8z"/>
		<path class="st4" d="M577.2,399.1l4.9-0.8c0.2,1,0.6,1.8,1.3,2.3c0.6,0.5,1.5,0.8,2.7,0.8c1.3,0,2.2-0.3,2.8-0.8
			c0.4-0.3,0.6-0.8,0.6-1.4c0-0.4-0.1-0.7-0.3-1c-0.2-0.3-0.8-0.5-1.6-0.7c-3.9-0.9-6.4-1.8-7.4-2.6c-1.4-1.1-2.2-2.6-2.2-4.5
			c0-1.7,0.6-3.2,1.9-4.4c1.3-1.2,3.2-1.8,5.8-1.8c2.5,0,4.4,0.4,5.6,1.3c1.2,0.9,2.1,2.2,2.5,3.9l-4.6,0.9
			c-0.2-0.8-0.6-1.4-1.1-1.8c-0.5-0.4-1.3-0.6-2.3-0.6c-1.3,0-2.2,0.2-2.7,0.6c-0.4,0.3-0.5,0.6-0.5,1.1c0,0.4,0.2,0.7,0.5,1
			c0.4,0.4,1.9,0.8,4.5,1.5c2.6,0.6,4.4,1.4,5.4,2.3c1,0.9,1.5,2.3,1.5,3.9c0,1.8-0.7,3.4-2.1,4.7c-1.4,1.3-3.5,2-6.2,2
			c-2.5,0-4.5-0.6-5.9-1.7C578.6,402.5,577.6,401,577.2,399.1L577.2,399.1z"/>
		<path class="st4" d="M596.8,399.1l4.9-0.8c0.2,1,0.6,1.8,1.3,2.3c0.6,0.5,1.5,0.8,2.7,0.8c1.3,0,2.2-0.3,2.8-0.8
			c0.4-0.3,0.6-0.8,0.6-1.4c0-0.4-0.1-0.7-0.3-1c-0.2-0.3-0.8-0.5-1.6-0.7c-3.9-0.9-6.4-1.8-7.4-2.6c-1.4-1.1-2.2-2.6-2.2-4.5
			c0-1.7,0.6-3.2,1.9-4.4c1.3-1.2,3.2-1.8,5.8-1.8c2.5,0,4.4,0.4,5.6,1.3c1.2,0.9,2.1,2.2,2.5,3.9l-4.6,0.9
			c-0.2-0.8-0.6-1.4-1.1-1.8c-0.5-0.4-1.3-0.6-2.3-0.6c-1.3,0-2.2,0.2-2.7,0.6c-0.4,0.3-0.5,0.6-0.5,1.1c0,0.4,0.2,0.7,0.5,1
			c0.4,0.4,1.9,0.8,4.5,1.5c2.6,0.6,4.4,1.4,5.4,2.3c1,0.9,1.5,2.3,1.5,3.9c0,1.8-0.7,3.4-2.1,4.7c-1.4,1.3-3.5,2-6.2,2
			c-2.5,0-4.5-0.6-5.9-1.7C598.2,402.5,597.2,401,596.8,399.1L596.8,399.1z"/>
		<path class="st4" d="M628.7,398.4l4.8,0.9c-0.6,1.9-1.6,3.4-2.9,4.4c-1.3,1-3,1.5-5,1.5c-3.2,0-5.5-1.1-7.1-3.4
			c-1.2-1.8-1.8-4.1-1.8-6.9c0-3.3,0.8-5.9,2.4-7.8c1.6-1.9,3.6-2.8,6-2.8c2.7,0,4.9,1,6.4,2.9c1.6,2,2.3,5,2.3,9h-12.1
			c0,1.6,0.4,2.8,1.2,3.6c0.7,0.9,1.7,1.3,2.8,1.3c0.8,0,1.4-0.2,1.9-0.7C628,400.2,628.4,399.4,628.7,398.4L628.7,398.4z
			 M629,393.1c0-1.5-0.4-2.7-1.1-3.5c-0.7-0.8-1.5-1.2-2.5-1.2c-1.1,0-1.9,0.4-2.6,1.3c-0.7,0.8-1,2-1,3.4H629L629,393.1z"/>
		<path class="st4" d="M654.3,404.8h-4.8v-10.2c0-2.2-0.1-3.5-0.3-4.2c-0.2-0.6-0.5-1.1-1-1.5c-0.5-0.3-1-0.5-1.7-0.5
			c-0.8,0-1.6,0.3-2.3,0.8c-0.7,0.5-1.1,1.2-1.4,2c-0.2,0.8-0.4,2.4-0.4,4.6v9h-4.8v-19.9h4.5v2.9c1.6-2.3,3.6-3.4,6-3.4
			c1.1,0,2,0.2,2.9,0.6c0.9,0.4,1.6,1,2,1.6c0.5,0.7,0.8,1.4,0.9,2.2c0.2,0.8,0.3,2,0.3,3.5V404.8L654.3,404.8z"/>
	</g>
</g>
</svg>
