<?xml version="1.0" encoding="utf-8"?>
<!-- Generator: Adobe Illustrator 19.2.0, SVG Export Plug-In . SVG Version: 6.00 Build 0)  -->
<svg version="1.1" id="Livello_1" xmlns="http://www.w3.org/2000/svg" xmlns:xlink="http://www.w3.org/1999/xlink" x="0px" y="0px"
	 viewBox="0 0 568.1 723.3" style="enable-background:new 0 0 568.1 723.3;" xml:space="preserve">
<style type="text/css">
	.st0{fill:#005EA7;stroke:#005EA7;stroke-width:0.6522;stroke-miterlimit:2.6131;}
	.st1{fill:#005EA7;stroke:#FFFFFF;stroke-width:4.3478;stroke-miterlimit:2.6131;}
	.st2{fill:#E1001A;stroke:#E1001A;stroke-width:2.1739;stroke-miterlimit:2.6131;}
	.st3{fill:#FFFFFF;stroke:#FFFFFF;stroke-width:2.1739;stroke-miterlimit:2.6131;}
	.st4{fill:#FFFFFF;}
	.st5{fill:#1A171B;}
	.st6{fill:#1A171B;stroke:#1A171B;stroke-width:0.6522;stroke-miterlimit:2.6131;}
	.st7{fill:#FFFFFF;stroke:#FFFFFF;stroke-width:0.6522;stroke-miterlimit:2.6131;}
</style>
<g>
	<g>
		<polygon class="st0" points="101.2,1.3 565.6,1.3 565.6,721.3 101.2,721.3 		"/>
		<path class="st1" d="M135.8,10.6h396.1c14.6,0,26.1,12.4,26.1,26.1v650c0,13.9-12.2,26.1-26.1,26.1H135.8
			c-13.7,0-26.1-11.5-26.1-26.1v-650C109.7,22.4,121.4,10.6,135.8,10.6L135.8,10.6z"/>
		<polygon class="st2" points="153.2,189.3 514.1,189.3 514.1,308.9 153.2,308.9 		"/>
		<polygon class="st3" points="153.2,543.3 514.1,543.3 514.1,662.8 153.2,662.8 		"/>
		<polygon class="st3" points="153.2,366.3 514.1,366.3 514.1,485.9 153.2,485.9 		"/>
		<path class="st4" d="M164.6,106.1l11.5-1.2c0.7,4.1,2.1,7.1,4.2,9.1c2.1,1.9,5,2.9,8.6,2.9c3.8,0,6.7-0.9,8.6-2.6
			c1.9-1.7,2.9-3.7,2.9-6c0-1.5-0.4-2.7-1.2-3.8c-0.8-1-2.2-1.9-4.3-2.7c-1.4-0.5-4.6-1.4-9.5-2.7c-6.4-1.7-10.8-3.7-13.4-6.2
			c-3.6-3.4-5.4-7.6-5.4-12.5c0-3.2,0.8-6.1,2.5-8.9c1.7-2.8,4.1-4.9,7.3-6.3c3.2-1.4,7-2.2,11.5-2.2c7.4,0,12.9,1.7,16.6,5.1
			c3.7,3.4,5.7,8,5.9,13.7l-11.8,0.6c-0.5-3.2-1.6-5.5-3.3-6.9c-1.7-1.4-4.2-2.1-7.5-2.1c-3.4,0-6.1,0.7-8.1,2.2
			c-1.3,1-1.9,2.2-1.9,3.9c0,1.5,0.6,2.7,1.8,3.8c1.5,1.3,5.1,2.7,10.9,4.2c5.8,1.4,10,2.9,12.8,4.5s4.9,3.7,6.5,6.3
			c1.6,2.7,2.3,6,2.3,9.9c0,3.6-0.9,6.9-2.8,10s-4.5,5.4-7.9,6.9s-7.7,2.3-12.8,2.3c-7.4,0-13.1-1.8-17.1-5.5
			C167.8,118.3,165.4,113,164.6,106.1L164.6,106.1z"/>
		<polygon class="st4" points="235.5,126.3 235.5,74.6 218.1,74.6 218.1,64 264.7,64 264.7,74.6 247.4,74.6 247.4,126.3 		"/>
		<polygon class="st4" points="272.4,126.3 272.4,64 315.9,64 315.9,74.6 284.3,74.6 284.3,88.4 313.7,88.4 313.7,98.9 284.3,98.9 
			284.3,115.8 317,115.8 317,126.3 		"/>
		<polygon class="st4" points="327.4,126.3 327.4,64.6 339.3,64.6 339.3,115.8 368.7,115.8 368.7,126.3 		"/>
		<polygon class="st4" points="386.1,126.3 365.1,64 378,64 392.8,110.1 407.2,64 419.7,64 398.7,126.3 		"/>
		<polygon class="st4" points="425.4,126.3 425.4,64 437.3,64 437.3,126.3 		"/>
		<path class="st4" d="M446.2,95.6c0-6.3,0.9-11.7,2.7-16c1.3-3.2,3.2-6,5.5-8.5s4.8-4.4,7.6-5.6c3.7-1.7,7.9-2.5,12.7-2.5
			c8.7,0,15.6,2.8,20.8,8.5s7.8,13.6,7.8,23.7c0,10.1-2.6,17.9-7.7,23.6c-5.2,5.7-12,8.5-20.6,8.5c-8.7,0-15.7-2.8-20.8-8.5
			C448.8,113.2,446.2,105.5,446.2,95.6L446.2,95.6z M458.4,95.1c0,7,1.5,12.4,4.6,16s7,5.5,11.7,5.5s8.6-1.8,11.6-5.4
			c3-3.6,4.5-9,4.5-16.2c0-7.1-1.5-12.5-4.4-16c-3-3.5-6.9-5.3-11.8-5.3c-4.9,0-8.8,1.8-11.8,5.3C459.9,82.6,458.4,88,458.4,95.1
			L458.4,95.1z"/>
		<path class="st4" d="M177.6,219.2l-4.6,0.9c-0.2-1-0.5-1.8-1.1-2.3s-1.3-0.8-2.1-0.8c-1.2,0-2.1,0.5-2.8,1.4c-0.7,0.9-1,2.4-1,4.6
			c0,2.4,0.4,4,1.1,5s1.7,1.5,2.8,1.5c0.9,0,1.6-0.3,2.2-0.9s1-1.6,1.2-2.9l4.6,0.9c-0.5,2.4-1.4,4.2-2.8,5.4
			c-1.4,1.2-3.2,1.8-5.5,1.8c-2.6,0-4.7-0.9-6.2-2.8c-1.5-1.8-2.3-4.4-2.3-7.6c0-3.3,0.8-5.9,2.3-7.7c1.5-1.8,3.6-2.8,6.3-2.8
			c2.2,0,3.9,0.5,5.1,1.6C176.1,215.5,177,217.1,177.6,219.2L177.6,219.2z"/>
		<path class="st4" d="M185.8,205.7v10.1c1.5-2,3.3-3,5.4-3c1.1,0,2,0.2,2.9,0.7c0.9,0.4,1.5,1,2,1.7c0.4,0.7,0.7,1.5,0.9,2.3
			c0.2,0.8,0.2,2.2,0.2,4v11.8h-4.7v-10.5c0-2.1-0.1-3.4-0.3-4c-0.2-0.6-0.5-1-0.9-1.3s-1-0.5-1.7-0.5c-0.8,0-1.5,0.2-2.1,0.6
			s-1.1,1.1-1.3,1.9c-0.3,0.9-0.4,2.1-0.4,3.8v10h-4.7v-27.5h4.7V205.7z"/>
		<path class="st4" d="M202,210.6v-4.9h4.7v4.9H202L202,210.6z M202,233.3v-20h4.7v20H202L202,233.3z"/>
		<path class="st4" d="M223.2,233.3v-3c-0.7,1.1-1.5,1.9-2.5,2.5c-1.1,0.6-2.2,0.9-3.3,0.9c-1.2,0-2.3-0.3-3.2-0.9
			c-0.9-0.6-1.6-1.4-2.1-2.5c-0.4-1.1-0.6-2.5-0.6-4.4v-12.6h4.7v9.2c0,2.8,0.1,4.5,0.3,5.2c0.2,0.6,0.5,1.1,0.9,1.5
			c0.5,0.4,1,0.6,1.7,0.6c0.8,0,1.5-0.2,2.2-0.7c0.6-0.5,1.1-1.1,1.3-1.8c0.2-0.7,0.4-2.5,0.4-5.4v-8.6h4.7v20H223.2L223.2,233.3z"
			/>
		<path class="st4" d="M230.7,227.6l4.7-0.8c0.2,1,0.6,1.8,1.2,2.3s1.5,0.8,2.6,0.8c1.2,0,2.1-0.3,2.7-0.8c0.4-0.3,0.6-0.8,0.6-1.4
			c0-0.4-0.1-0.7-0.3-1c-0.2-0.3-0.8-0.5-1.6-0.7c-3.8-0.9-6.2-1.8-7.2-2.6c-1.4-1.1-2.1-2.6-2.1-4.5c0-1.7,0.6-3.2,1.8-4.4
			c1.2-1.2,3.1-1.8,5.6-1.8c2.4,0,4.2,0.4,5.4,1.3c1.2,0.9,2,2.2,2.4,3.9l-4.4,0.9c-0.2-0.8-0.5-1.4-1.1-1.8
			c-0.5-0.4-1.3-0.6-2.3-0.6c-1.2,0-2.1,0.2-2.7,0.6c-0.4,0.3-0.5,0.6-0.5,1.1c0,0.4,0.2,0.7,0.5,1c0.4,0.4,1.9,0.8,4.4,1.5
			c2.5,0.6,4.2,1.4,5.2,2.3s1.5,2.3,1.5,3.9c0,1.8-0.7,3.4-2,4.7c-1.4,1.3-3.4,2-6,2c-2.4,0-4.3-0.5-5.7-1.7
			C232.1,231,231.2,229.5,230.7,227.6L230.7,227.6z"/>
		<path class="st4" d="M250.3,223c0-1.8,0.4-3.4,1.1-5.1c0.8-1.6,1.9-2.9,3.3-3.7c1.4-0.9,3-1.3,4.7-1.3c2.7,0,4.9,1,6.6,2.9
			c1.7,2,2.6,4.4,2.6,7.4s-0.9,5.5-2.6,7.5s-3.9,3-6.5,3c-1.6,0-3.2-0.4-4.6-1.2c-1.5-0.8-2.6-2-3.4-3.6
			C250.7,227.2,250.3,225.3,250.3,223L250.3,223z M255.1,223.3c0,2,0.4,3.5,1.3,4.5c0.8,1.1,1.9,1.6,3.1,1.6s2.2-0.5,3.1-1.6
			c0.8-1.1,1.2-2.6,1.2-4.6c0-1.9-0.4-3.5-1.2-4.5c-0.8-1.1-1.9-1.6-3.1-1.6s-2.3,0.5-3.1,1.6C255.5,219.8,255.1,221.3,255.1,223.3
			L255.1,223.3z"/>
		<path class="st5" d="M160.1,555.9h2.6v-1.5c0-1.7,0.2-2.9,0.5-3.8c0.3-0.8,0.9-1.5,1.7-2c0.9-0.5,1.9-0.8,3.2-0.8
			c1.3,0,2.6,0.2,3.9,0.7l-0.6,3.7c-0.7-0.2-1.5-0.3-2.2-0.3s-1.2,0.2-1.5,0.5c-0.3,0.4-0.4,1-0.4,2.1v1.4h3.5v4.1h-3.4v15.8h-4.7
			V560h-2.6L160.1,555.9L160.1,555.9z"/>
		<path class="st5" d="M173.5,553.2v-4.9h4.7v4.9H173.5L173.5,553.2z M173.5,575.9V556h4.7v19.9H173.5L173.5,575.9z"/>
		<path class="st5" d="M199.1,575.9h-4.7v-10.2c0-2.2-0.1-3.5-0.3-4.2c-0.2-0.6-0.5-1.1-1-1.5c-0.4-0.3-1-0.5-1.6-0.5
			c-0.8,0-1.5,0.2-2.2,0.7c-0.6,0.5-1.1,1.2-1.3,2c-0.2,0.8-0.4,2.4-0.4,4.6v9h-4.7v-19.9h4.3v2.9c1.5-2.3,3.5-3.4,5.8-3.4
			c1,0,2,0.2,2.8,0.6c0.9,0.4,1.5,1,1.9,1.6c0.4,0.7,0.7,1.4,0.9,2.2c0.2,0.8,0.3,2,0.3,3.5v12.6H199.1z"/>
		<path class="st5" d="M202.8,565.6c0-1.8,0.4-3.4,1.1-5.1c0.8-1.6,1.9-2.9,3.3-3.8c1.4-0.9,3-1.3,4.7-1.3c2.7,0,4.9,1,6.6,2.9
			c1.7,2,2.6,4.4,2.6,7.4s-0.9,5.5-2.6,7.5s-3.9,3-6.5,3c-1.6,0-3.2-0.4-4.6-1.2c-1.5-0.8-2.6-2-3.4-3.6
			C203.2,569.8,202.8,567.9,202.8,565.6L202.8,565.6z M207.6,565.9c0,2,0.4,3.5,1.3,4.5c0.8,1,1.9,1.6,3.1,1.6s2.2-0.5,3.1-1.6
			c0.8-1.1,1.2-2.6,1.2-4.6c0-1.9-0.4-3.5-1.2-4.5c-0.8-1.1-1.9-1.6-3.1-1.6s-2.3,0.5-3.1,1.6C208,562.4,207.6,563.9,207.6,565.9
			L207.6,565.9z"/>
		<path class="st5" d="M237.8,562l-4.3-0.9c0.5-1.9,1.3-3.4,2.5-4.3c1.2-0.9,2.9-1.4,5.2-1.4c2.1,0,3.6,0.3,4.7,0.8
			c1,0.6,1.7,1.3,2.2,2.1c0.4,0.9,0.6,2.4,0.6,4.7l-0.1,6.2c0,1.8,0.1,3,0.2,3.9c0.1,0.8,0.4,1.7,0.8,2.7H245
			c-0.1-0.4-0.3-0.9-0.4-1.6c-0.1-0.3-0.1-0.5-0.2-0.6c-0.8,0.9-1.7,1.5-2.6,2c-0.9,0.4-1.9,0.7-2.9,0.7c-1.8,0-3.3-0.6-4.3-1.7
			c-1.1-1.1-1.6-2.5-1.6-4.2c0-1.1,0.2-2.1,0.7-3s1.2-1.6,2-2c0.9-0.5,2.1-0.9,3.7-1.2c2.2-0.5,3.7-0.9,4.5-1.3v-0.6
			c0-1-0.2-1.7-0.7-2.2c-0.4-0.4-1.3-0.6-2.5-0.6c-0.8,0-1.5,0.2-2,0.6C238.4,560.4,238.1,561.1,237.8,562L237.8,562z M244,566.3
			c-0.6,0.2-1.5,0.5-2.9,0.8c-1.3,0.3-2.1,0.6-2.6,0.9c-0.6,0.5-0.9,1.1-0.9,1.9c0,0.7,0.2,1.4,0.7,1.9s1.1,0.8,1.9,0.8
			s1.7-0.3,2.4-0.9c0.6-0.5,0.9-1.1,1.1-1.7c0.1-0.5,0.2-1.3,0.2-2.6L244,566.3L244,566.3z"/>
		<path class="st4" d="M402.7,213.1h2.8v-1.5c0-1.7,0.2-2.9,0.5-3.8c0.3-0.8,0.9-1.5,1.8-2c0.9-0.5,2-0.8,3.4-0.8s2.8,0.2,4.2,0.7
			l-0.7,3.7c-0.8-0.2-1.6-0.3-2.3-0.3s-1.2,0.2-1.5,0.5c-0.3,0.4-0.5,1-0.5,2.1v1.4h3.7v4.1h-3.7V233h-5v-15.8h-2.8L402.7,213.1
			L402.7,213.1z"/>
		<path class="st4" d="M427.8,226.7l4.9,0.9c-0.6,1.9-1.6,3.4-3,4.4s-3.1,1.5-5.1,1.5c-3.3,0-5.7-1.1-7.2-3.4
			c-1.2-1.8-1.9-4.1-1.9-6.9c0-3.3,0.8-5.9,2.4-7.8c1.6-1.9,3.7-2.8,6.2-2.8c2.8,0,5,1,6.6,2.9c1.6,2,2.4,5,2.3,9h-12.4
			c0,1.6,0.4,2.8,1.2,3.6c0.8,0.9,1.7,1.3,2.9,1.3c0.8,0,1.4-0.2,2-0.7C427.1,228.4,427.5,227.7,427.8,226.7L427.8,226.7z
			 M428.1,221.4c0-1.5-0.4-2.7-1.1-3.5c-0.7-0.8-1.6-1.2-2.6-1.2c-1.1,0-2,0.4-2.7,1.3c-0.7,0.8-1.1,2-1,3.4L428.1,221.4
			L428.1,221.4z"/>
		<path class="st4" d="M441.8,233h-5v-19.9h4.6v2.8c0.8-1.3,1.5-2.2,2.1-2.6s1.3-0.6,2.1-0.6c1.1,0,2.2,0.3,3.3,1l-1.5,4.6
			c-0.8-0.6-1.6-0.9-2.3-0.9s-1.3,0.2-1.8,0.6s-0.9,1.1-1.1,2.2c-0.3,1.1-0.4,3.3-0.4,6.7L441.8,233L441.8,233z"/>
		<path class="st4" d="M450.7,213.1h4.6v2.7c1.6-2.1,3.6-3.2,5.8-3.2c1.2,0,2.2,0.3,3.1,0.8c0.9,0.5,1.6,1.3,2.2,2.4
			c0.8-1.1,1.7-1.9,2.7-2.4s2-0.8,3.1-0.8c1.4,0,2.5,0.3,3.5,0.9s1.7,1.5,2.1,2.6c0.3,0.9,0.5,2.2,0.5,4.1V233h-5v-11.4
			c0-2-0.2-3.3-0.5-3.8c-0.5-0.8-1.2-1.1-2.1-1.1c-0.7,0-1.4,0.2-2,0.7c-0.6,0.4-1,1.1-1.3,2s-0.4,2.2-0.4,4.1v9.6h-5v-10.9
			c0-1.9-0.1-3.2-0.3-3.8c-0.2-0.6-0.5-1-0.8-1.3c-0.4-0.3-0.9-0.4-1.5-0.4c-0.8,0-1.5,0.2-2.1,0.7c-0.6,0.4-1.1,1.1-1.3,1.9
			c-0.3,0.8-0.4,2.2-0.4,4.1v9.7h-5v-20H450.7z"/>
		<path class="st4" d="M494.1,226.7l4.9,0.9c-0.6,1.9-1.6,3.4-3,4.4s-3.1,1.5-5.1,1.5c-3.3,0-5.7-1.1-7.2-3.4
			c-1.2-1.8-1.9-4.1-1.9-6.9c0-3.3,0.8-5.9,2.4-7.8c1.6-1.9,3.7-2.8,6.2-2.8c2.8,0,5,1,6.6,2.9c1.6,2,2.4,5,2.3,9h-12.4
			c0,1.6,0.4,2.8,1.2,3.6c0.8,0.9,1.7,1.3,2.9,1.3c0.8,0,1.4-0.2,2-0.7C493.4,228.4,493.8,227.7,494.1,226.7L494.1,226.7z
			 M494.4,221.4c0-1.5-0.4-2.7-1.1-3.5c-0.7-0.8-1.6-1.2-2.6-1.2c-1.1,0-2,0.4-2.7,1.3c-0.7,0.8-1.1,2-1,3.4L494.4,221.4
			L494.4,221.4z"/>
		<polygon class="st4" points="503.3,215.3 502.4,210.2 502.4,205.5 507.8,205.5 507.8,210.2 507,215.3 		"/>
		<path class="st5" d="M376.8,553v-4.9h5v4.9H376.8L376.8,553z M381.7,555.7V575c0,2.5-0.2,4.3-0.5,5.4c-0.3,1-0.9,1.9-1.8,2.5
			c-0.9,0.6-2,0.9-3.4,0.9c-0.5,0-1-0.1-1.6-0.1c-0.6-0.1-1.2-0.2-1.8-0.4l0.9-4.5c0.2,0,0.5,0.1,0.7,0.1s0.4,0,0.6,0
			c0.5,0,0.9-0.1,1.2-0.3s0.5-0.5,0.6-0.8s0.2-1.3,0.2-2.9v-19h4.9V555.7z"/>
		<path class="st5" d="M399.3,575.6v-3c-0.7,1.1-1.6,1.9-2.7,2.5c-1.1,0.6-2.3,0.9-3.5,0.9c-1.3,0-2.4-0.3-3.4-0.9
			c-1-0.6-1.7-1.4-2.2-2.5c-0.4-1.1-0.7-2.5-0.7-4.4v-12.6h5v9.2c0,2.8,0.1,4.5,0.3,5.2c0.2,0.6,0.5,1.1,1,1.5s1.1,0.6,1.8,0.6
			c0.8,0,1.6-0.2,2.3-0.7s1.1-1.1,1.4-1.8c0.2-0.7,0.4-2.5,0.4-5.4v-8.4h5v19.9L399.3,575.6L399.3,575.6z"/>
		<path class="st5" d="M407.3,570l5-0.8c0.2,1,0.6,1.8,1.3,2.3c0.6,0.5,1.5,0.8,2.7,0.8c1.3,0,2.2-0.2,2.9-0.8
			c0.4-0.3,0.7-0.8,0.7-1.4c0-0.4-0.1-0.7-0.4-1c-0.2-0.2-0.8-0.5-1.7-0.7c-4-0.9-6.5-1.8-7.6-2.6c-1.5-1.1-2.2-2.6-2.2-4.5
			c0-1.7,0.6-3.2,1.9-4.4c1.3-1.2,3.3-1.8,6-1.8c2.6,0,4.5,0.4,5.7,1.3c1.2,0.9,2.1,2.2,2.6,4l-4.7,0.9c-0.2-0.8-0.6-1.4-1.1-1.8
			c-0.6-0.4-1.4-0.6-2.4-0.6c-1.3,0-2.2,0.2-2.8,0.6c-0.4,0.3-0.6,0.6-0.6,1.1c0,0.4,0.2,0.7,0.5,1c0.4,0.4,2,0.8,4.6,1.5
			c2.6,0.6,4.5,1.4,5.5,2.3c1,0.9,1.6,2.3,1.6,3.9c0,1.8-0.7,3.4-2.2,4.7c-1.4,1.3-3.6,2-6.4,2c-2.6,0-4.6-0.6-6.1-1.7
			C408.7,573.3,407.7,571.8,407.3,570L407.3,570z"/>
		<path class="st5" d="M441.4,583.2v-10c-0.6,0.9-1.5,1.6-2.4,2.1c-1,0.5-2,0.8-3.1,0.8c-2.1,0-3.9-0.9-5.3-2.6
			c-1.6-2-2.4-4.7-2.4-8.1c0-3.2,0.8-5.7,2.3-7.5s3.4-2.7,5.7-2.7c1.2,0,2.3,0.3,3.2,0.8c0.9,0.6,1.7,1.4,2.4,2.6v-3h4.6v27.5h-5
			V583.2z M441.5,565.4c0-2-0.4-3.6-1.2-4.6s-1.8-1.5-2.9-1.5c-1.2,0-2.2,0.5-3,1.5s-1.2,2.6-1.2,4.8s0.4,3.8,1.2,4.7
			c0.8,1,1.7,1.5,2.9,1.5c1.1,0,2.1-0.5,3-1.6C441.1,569.2,441.5,567.6,441.5,565.4L441.5,565.4z"/>
		<path class="st5" d="M463.5,575.6v-3c-0.7,1.1-1.6,1.9-2.7,2.5c-1.1,0.6-2.3,0.9-3.5,0.9c-1.3,0-2.4-0.3-3.4-0.9
			c-1-0.6-1.7-1.4-2.2-2.5c-0.4-1.1-0.7-2.5-0.7-4.4v-12.6h5v9.2c0,2.8,0.1,4.5,0.3,5.2c0.2,0.6,0.5,1.1,1,1.5s1.1,0.6,1.8,0.6
			c0.8,0,1.6-0.2,2.3-0.7s1.1-1.1,1.4-1.8c0.2-0.7,0.4-2.5,0.4-5.4v-8.4h5v19.9L463.5,575.6L463.5,575.6z"/>
		<polygon class="st5" points="473.2,557.9 472.3,552.8 472.3,548.1 477.7,548.1 477.7,552.8 476.9,557.9 		"/>
		<path class="st5" d="M485.6,561.8l-4.5-0.9c0.5-1.9,1.4-3.4,2.6-4.3c1.2-0.9,3.1-1.4,5.5-1.4c2.2,0,3.9,0.3,4.9,0.8
			c1.1,0.6,1.8,1.3,2.3,2.1c0.4,0.9,0.7,2.4,0.7,4.7L497,569c0,1.8,0.1,3,0.2,3.9c0.2,0.8,0.5,1.7,0.9,2.7h-4.9
			c-0.1-0.4-0.3-0.9-0.5-1.6c-0.1-0.3-0.1-0.5-0.2-0.6c-0.8,0.9-1.8,1.5-2.7,2c-1,0.4-2,0.7-3.1,0.7c-1.9,0-3.5-0.6-4.6-1.7
			c-1.1-1.1-1.7-2.5-1.7-4.2c0-1.1,0.3-2.1,0.8-3s1.2-1.6,2.1-2c0.9-0.5,2.2-0.9,3.9-1.2c2.3-0.5,3.9-0.9,4.8-1.3v-0.5
			c0-1-0.2-1.7-0.7-2.2c-0.5-0.4-1.4-0.6-2.7-0.6c-0.9,0-1.6,0.2-2.1,0.6C486.3,560.2,485.9,560.9,485.6,561.8L485.6,561.8z
			 M492.2,566.1c-0.6,0.2-1.6,0.5-3,0.8s-2.3,0.6-2.7,0.9c-0.6,0.5-1,1.1-1,1.9c0,0.7,0.3,1.4,0.8,1.9s1.2,0.8,2,0.8
			c0.9,0,1.7-0.3,2.6-0.9c0.6-0.5,1-1.1,1.2-1.7c0.1-0.5,0.2-1.3,0.2-2.6L492.2,566.1L492.2,566.1z"/>
		<polygon class="st5" points="502,557.9 501,552.8 501,548.1 506.4,548.1 506.4,552.8 505.6,557.9 		"/>
		<path class="st4" d="M177.4,272.3l-4.5,0.9c-0.2-1-0.5-1.8-1-2.3s-1.2-0.8-2.1-0.8c-1.1,0-2.1,0.5-2.7,1.4c-0.7,0.9-1,2.4-1,4.6
			c0,2.4,0.3,4,1,5s1.6,1.5,2.8,1.5c0.9,0,1.6-0.3,2.1-0.9c0.6-0.6,0.9-1.6,1.2-2.9l4.5,0.9c-0.5,2.4-1.4,4.2-2.7,5.4
			c-1.3,1.2-3.1,1.8-5.3,1.8c-2.5,0-4.6-0.9-6.1-2.8c-1.5-1.8-2.3-4.4-2.3-7.6c0-3.3,0.8-5.9,2.3-7.7c1.5-1.8,3.6-2.8,6.1-2.8
			c2.1,0,3.8,0.5,5,1.6C176,268.5,176.9,270.1,177.4,272.3L177.4,272.3z"/>
		<polygon class="st4" points="180.9,286.3 180.9,258.8 185.5,258.8 185.5,286.3 		"/>
		<path class="st4" d="M189.1,276c0-1.8,0.4-3.4,1.1-5.1c0.8-1.6,1.8-2.9,3.2-3.8c1.4-0.9,2.9-1.3,4.6-1.3c2.6,0,4.8,1,6.4,2.9
			c1.7,2,2.5,4.4,2.5,7.4s-0.8,5.5-2.5,7.5s-3.8,3-6.4,3c-1.6,0-3.1-0.4-4.5-1.2c-1.4-0.8-2.5-2-3.3-3.6
			C189.5,280.3,189.1,278.3,189.1,276L189.1,276z M193.8,276.3c0,2,0.4,3.5,1.2,4.5c0.8,1.1,1.8,1.6,3,1.6s2.2-0.5,3-1.6
			s1.2-2.6,1.2-4.6c0-1.9-0.4-3.5-1.2-4.5c-0.8-1.1-1.8-1.6-3-1.6s-2.2,0.5-3,1.6C194.2,272.8,193.8,274.3,193.8,276.3L193.8,276.3z
			"/>
		<path class="st4" d="M209,280.6l4.6-0.8c0.2,1,0.6,1.8,1.2,2.3s1.4,0.8,2.5,0.8c1.2,0,2.1-0.3,2.7-0.8c0.4-0.3,0.6-0.8,0.6-1.4
			c0-0.4-0.1-0.7-0.3-1c-0.2-0.3-0.7-0.5-1.5-0.7c-3.7-0.9-6-1.8-7-2.6c-1.4-1.1-2.1-2.6-2.1-4.5c0-1.7,0.6-3.2,1.8-4.4
			c1.2-1.2,3-1.8,5.5-1.8c2.4,0,4.1,0.4,5.3,1.3c1.2,0.9,1.9,2.2,2.4,3.9l-4.3,0.9c-0.2-0.8-0.5-1.4-1.1-1.8
			c-0.5-0.4-1.3-0.6-2.2-0.6c-1.2,0-2.1,0.2-2.6,0.6c-0.3,0.3-0.5,0.6-0.5,1.1c0,0.4,0.2,0.7,0.5,1c0.4,0.4,1.8,0.8,4.3,1.5
			c2.4,0.6,4.1,1.4,5.1,2.3s1.4,2.2,1.4,3.9c0,1.8-0.7,3.4-2,4.7c-1.3,1.3-3.3,2-5.9,2c-2.4,0-4.2-0.6-5.6-1.7
			C210.3,284,209.4,282.5,209,280.6L209,280.6z"/>
		<path class="st4" d="M239.2,280l4.6,0.9c-0.6,1.9-1.5,3.4-2.8,4.4s-2.9,1.5-4.8,1.5c-3,0-5.2-1.1-6.7-3.4
			c-1.1-1.8-1.7-4.1-1.7-6.9c0-3.3,0.8-5.9,2.3-7.8s3.4-2.8,5.7-2.8c2.6,0,4.6,1,6.1,2.9c1.5,2,2.2,5,2.1,9h-11.5
			c0,1.6,0.4,2.8,1.1,3.6c0.7,0.9,1.6,1.3,2.6,1.3c0.7,0,1.3-0.2,1.8-0.7C238.6,281.7,239,281,239.2,280L239.2,280z M239.5,274.6
			c0-1.5-0.4-2.7-1-3.5c-0.7-0.8-1.4-1.2-2.4-1.2s-1.8,0.4-2.5,1.3c-0.7,0.8-1,2-1,3.4L239.5,274.6L239.5,274.6z"/>
		<path class="st4" d="M263.7,286.3h-4.3v-2.9c-0.7,1.1-1.5,2-2.5,2.5c-1,0.6-1.9,0.8-2.9,0.8c-2,0-3.7-0.9-5.1-2.8
			c-1.4-1.8-2.1-4.4-2.1-7.7c0-3.4,0.7-6,2.1-7.7c1.4-1.8,3.1-2.6,5.2-2.6c1.9,0,3.6,0.9,5,2.8v-9.9h4.6L263.7,286.3L263.7,286.3z
			 M251.4,275.9c0,2.1,0.3,3.7,0.8,4.6c0.7,1.4,1.8,2.1,3.1,2.1c1.1,0,2-0.5,2.7-1.6c0.7-1,1.1-2.6,1.1-4.6c0-2.3-0.4-3.9-1.1-4.9
			s-1.6-1.5-2.8-1.5c-1.1,0-2,0.5-2.7,1.5C251.8,272.4,251.4,273.9,251.4,275.9L251.4,275.9z"/>
		<path class="st5" d="M165.7,601.4l-4.2-0.9c0.5-1.9,1.3-3.4,2.4-4.3c1.1-0.9,2.8-1.4,5.1-1.4c2,0,3.6,0.3,4.6,0.8
			c1,0.6,1.7,1.3,2.1,2.1c0.4,0.9,0.6,2.4,0.6,4.7l-0.1,6.2c0,1.8,0.1,3,0.2,3.9c0.1,0.8,0.4,1.7,0.8,2.7h-4.5
			c-0.1-0.4-0.3-0.9-0.4-1.6c-0.1-0.3-0.1-0.5-0.2-0.6c-0.8,0.9-1.6,1.5-2.5,2c-0.9,0.4-1.8,0.7-2.9,0.7c-1.8,0-3.2-0.6-4.2-1.7
			c-1-1.1-1.5-2.5-1.5-4.2c0-1.1,0.2-2.1,0.7-3s1.1-1.6,2-2c0.8-0.5,2.1-0.9,3.6-1.2c2.1-0.5,3.6-0.9,4.4-1.3v-0.5
			c0-1-0.2-1.7-0.7-2.2c-0.4-0.4-1.3-0.6-2.5-0.6c-0.8,0-1.5,0.2-1.9,0.6C166.4,599.8,166,600.4,165.7,601.4L165.7,601.4z
			 M171.9,605.6c-0.6,0.2-1.5,0.5-2.8,0.8s-2.1,0.6-2.5,0.9c-0.6,0.5-0.9,1.1-0.9,1.9c0,0.7,0.2,1.4,0.7,1.9s1.1,0.8,1.8,0.8
			c0.8,0,1.6-0.3,2.4-0.9c0.6-0.5,0.9-1.1,1.1-1.8c0.1-0.4,0.2-1.3,0.2-2.6L171.9,605.6L171.9,605.6z"/>
		<path class="st5" d="M179.3,609.5l4.6-0.8c0.2,1,0.6,1.8,1.2,2.3s1.4,0.8,2.5,0.8c1.2,0,2.1-0.3,2.7-0.8c0.4-0.3,0.6-0.8,0.6-1.4
			c0-0.4-0.1-0.7-0.3-1c-0.2-0.3-0.7-0.5-1.5-0.7c-3.7-0.9-6-1.8-7-2.6c-1.4-1.1-2.1-2.6-2.1-4.5c0-1.7,0.6-3.2,1.8-4.4
			c1.2-1.2,3-1.8,5.5-1.8c2.4,0,4.1,0.5,5.3,1.3c1.2,0.9,1.9,2.2,2.4,3.9l-4.3,0.9c-0.2-0.8-0.5-1.4-1.1-1.8
			c-0.5-0.4-1.3-0.6-2.2-0.6c-1.2,0-2.1,0.2-2.6,0.6c-0.3,0.3-0.5,0.6-0.5,1.1c0,0.4,0.2,0.7,0.5,1c0.4,0.4,1.8,0.8,4.3,1.5
			c2.4,0.6,4.1,1.4,5.1,2.3c1,0.9,1.4,2.2,1.4,3.9c0,1.8-0.7,3.4-2,4.7s-3.3,2-5.9,2c-2.4,0-4.2-0.6-5.6-1.7
			C180.6,612.9,179.7,611.4,179.3,609.5L179.3,609.5z"/>
		<path class="st5" d="M206.8,595.3h2.5v-1.5c0-1.7,0.2-2.9,0.5-3.8c0.3-0.8,0.9-1.5,1.7-2c0.8-0.5,1.9-0.8,3.2-0.8
			c1.3,0,2.6,0.2,3.8,0.7l-0.6,3.7c-0.7-0.2-1.4-0.3-2.1-0.3s-1.1,0.2-1.4,0.5c-0.3,0.4-0.4,1-0.4,2.1v1.4h3.4v4.1H214v15.8h-4.6
			v-15.8h-2.5v-4.1H206.8z"/>
		<path class="st5" d="M223.3,601.4l-4.2-0.9c0.5-1.9,1.3-3.4,2.4-4.3c1.1-0.9,2.8-1.4,5.1-1.4c2.1,0,3.6,0.3,4.6,0.8
			c1,0.6,1.7,1.3,2.1,2.1c0.4,0.9,0.6,2.4,0.6,4.7l-0.1,6.2c0,1.8,0.1,3,0.2,3.9c0.1,0.8,0.4,1.7,0.8,2.7h-4.4
			c-0.1-0.4-0.3-0.9-0.4-1.6c-0.1-0.3-0.1-0.5-0.2-0.6c-0.8,0.9-1.6,1.5-2.5,2c-0.9,0.4-1.8,0.7-2.9,0.7c-1.8,0-3.2-0.6-4.2-1.7
			c-1-1.1-1.5-2.5-1.5-4.2c0-1.1,0.2-2.1,0.7-3s1.1-1.6,2-2c0.8-0.5,2.1-0.9,3.6-1.2c2.1-0.5,3.6-0.9,4.4-1.3v-0.5
			c0-1-0.2-1.7-0.7-2.2c-0.4-0.4-1.3-0.6-2.5-0.6c-0.8,0-1.5,0.2-1.9,0.6C224,599.8,223.6,600.4,223.3,601.4L223.3,601.4z
			 M229.5,605.6c-0.6,0.2-1.5,0.5-2.8,0.8s-2.1,0.6-2.5,0.9c-0.6,0.5-0.9,1.1-0.9,1.9c0,0.7,0.2,1.4,0.7,1.9s1.1,0.8,1.8,0.8
			c0.8,0,1.6-0.3,2.4-0.9c0.6-0.5,0.9-1.1,1.1-1.8c0.1-0.4,0.2-1.3,0.2-2.6L229.5,605.6L229.5,605.6z"/>
		<path class="st5" d="M242.9,615.2h-4.6v-19.9h4.3v2.8c0.7-1.3,1.4-2.2,2-2.6c0.6-0.4,1.2-0.6,2-0.6c1,0,2.1,0.3,3,1l-1.4,4.6
			c-0.8-0.6-1.5-0.9-2.2-0.9c-0.6,0-1.2,0.2-1.6,0.6c-0.5,0.4-0.8,1.1-1.1,2.2c-0.3,1.1-0.4,3.3-0.4,6.7L242.9,615.2L242.9,615.2z"
			/>
		<path class="st5" d="M264.2,601.4l-4.2-0.9c0.5-1.9,1.3-3.4,2.4-4.3c1.1-0.9,2.8-1.4,5.1-1.4c2,0,3.6,0.3,4.6,0.8
			c1,0.6,1.7,1.3,2.1,2.1c0.4,0.9,0.6,2.4,0.6,4.7l-0.1,6.2c0,1.8,0.1,3,0.2,3.9c0.1,0.8,0.4,1.7,0.8,2.7h-4.5
			c-0.1-0.4-0.3-0.9-0.4-1.6c-0.1-0.3-0.1-0.5-0.2-0.6c-0.8,0.9-1.6,1.5-2.5,2c-0.9,0.4-1.8,0.7-2.9,0.7c-1.8,0-3.2-0.6-4.2-1.7
			c-1-1.1-1.5-2.5-1.5-4.2c0-1.1,0.2-2.1,0.7-3s1.1-1.6,2-2c0.8-0.5,2.1-0.9,3.6-1.2c2.1-0.5,3.6-0.9,4.4-1.3v-0.5
			c0-1-0.2-1.7-0.7-2.2c-0.4-0.4-1.3-0.6-2.5-0.6c-0.8,0-1.5,0.2-1.9,0.6C264.9,599.8,264.5,600.4,264.2,601.4L264.2,601.4z
			 M270.3,605.6c-0.6,0.2-1.5,0.5-2.8,0.8s-2.1,0.6-2.5,0.9c-0.6,0.5-0.9,1.1-0.9,1.9c0,0.7,0.2,1.4,0.7,1.9s1.1,0.8,1.8,0.8
			c0.8,0,1.6-0.3,2.4-0.9c0.6-0.5,0.9-1.1,1.1-1.8c0.1-0.4,0.2-1.3,0.2-2.6L270.3,605.6L270.3,605.6z"/>
		<path class="st5" d="M277.7,609.5l4.6-0.8c0.2,1,0.6,1.8,1.2,2.3s1.4,0.8,2.5,0.8c1.2,0,2.1-0.3,2.7-0.8c0.4-0.3,0.6-0.8,0.6-1.4
			c0-0.4-0.1-0.7-0.3-1c-0.2-0.3-0.7-0.5-1.5-0.7c-3.7-0.9-6-1.8-7-2.6c-1.4-1.1-2.1-2.6-2.1-4.5c0-1.7,0.6-3.2,1.8-4.4
			c1.2-1.2,3-1.8,5.5-1.8c2.4,0,4.1,0.5,5.3,1.3c1.2,0.9,1.9,2.2,2.4,3.9l-4.3,0.9c-0.2-0.8-0.5-1.4-1.1-1.8
			c-0.5-0.4-1.3-0.6-2.2-0.6c-1.2,0-2.1,0.2-2.6,0.6c-0.3,0.3-0.5,0.6-0.5,1.1c0,0.4,0.2,0.7,0.5,1c0.4,0.4,1.8,0.8,4.3,1.5
			c2.4,0.6,4.1,1.4,5.1,2.3c1,0.9,1.4,2.2,1.4,3.9c0,1.8-0.7,3.4-2,4.7s-3.3,2-5.9,2c-2.4,0-4.2-0.6-5.6-1.7
			C279.1,612.9,278.2,611.4,277.7,609.5L277.7,609.5z"/>
		<path class="st4" d="M298.5,287.4l5.5,0.7c0.1,0.7,0.3,1.2,0.6,1.4c0.5,0.4,1.2,0.6,2.2,0.6c1.3,0,2.2-0.2,2.8-0.6
			c0.4-0.3,0.7-0.7,1-1.3c0.1-0.4,0.2-1.2,0.2-2.4v-2.9c-1.4,2.2-3.3,3.2-5.5,3.2c-2.5,0-4.4-1.1-5.8-3.4c-1.1-1.8-1.7-4-1.7-6.7
			c0-3.3,0.7-5.9,2.2-7.7c1.5-1.8,3.3-2.6,5.5-2.6c2.3,0,4.1,1.1,5.6,3.3v-2.8h4.5v17.9c0,2.4-0.2,4.1-0.5,5.3
			c-0.4,1.2-0.9,2.1-1.5,2.7c-0.6,0.7-1.5,1.2-2.6,1.6s-2.4,0.6-4.1,0.6c-3.1,0-5.3-0.6-6.6-1.7c-1.3-1.2-1.9-2.6-1.9-4.4
			C298.5,287.9,298.5,287.6,298.5,287.4L298.5,287.4z M302.9,275.7c0,2.1,0.4,3.7,1.1,4.6c0.8,1,1.7,1.5,2.8,1.5
			c1.2,0,2.2-0.5,3-1.5s1.2-2.5,1.2-4.5c0-2.1-0.4-3.6-1.2-4.6c-0.8-1-1.8-1.5-3-1.5s-2.1,0.5-2.9,1.5
			C303.2,272.2,302.9,273.7,302.9,275.7L302.9,275.7z"/>
		<path class="st4" d="M331.1,279.7l4.8,0.9c-0.6,1.9-1.6,3.4-2.9,4.4s-3,1.5-5,1.5c-3.2,0-5.5-1.1-7.1-3.4
			c-1.2-1.8-1.8-4.1-1.8-6.9c0-3.3,0.8-5.9,2.4-7.8s3.6-2.8,6-2.8c2.7,0,4.9,1,6.4,2.9c1.6,2,2.3,5,2.3,9h-12.1
			c0,1.6,0.4,2.8,1.2,3.6c0.7,0.9,1.7,1.3,2.8,1.3c0.8,0,1.4-0.2,1.9-0.7C330.5,281.5,330.9,280.7,331.1,279.7L331.1,279.7z
			 M331.4,274.4c0-1.5-0.4-2.7-1.1-3.5s-1.5-1.2-2.5-1.2c-1.1,0-1.9,0.4-2.6,1.3c-0.7,0.8-1,2-1,3.4L331.4,274.4L331.4,274.4z"/>
		<path class="st4" d="M338.4,280.4l4.9-0.8c0.2,1,0.6,1.8,1.3,2.3c0.6,0.5,1.5,0.8,2.7,0.8c1.3,0,2.2-0.3,2.8-0.8
			c0.4-0.3,0.6-0.8,0.6-1.4c0-0.4-0.1-0.7-0.3-1c-0.2-0.3-0.8-0.5-1.6-0.7c-3.9-0.9-6.4-1.8-7.4-2.6c-1.4-1.1-2.2-2.6-2.2-4.5
			c0-1.7,0.6-3.2,1.9-4.4c1.3-1.2,3.2-1.8,5.8-1.8c2.5,0,4.4,0.4,5.6,1.3s2.1,2.2,2.5,3.9l-4.6,0.9c-0.2-0.8-0.6-1.4-1.1-1.8
			s-1.3-0.6-2.3-0.6c-1.3,0-2.2,0.2-2.7,0.6c-0.4,0.3-0.5,0.6-0.5,1.1c0,0.4,0.2,0.7,0.5,1c0.4,0.4,1.9,0.8,4.5,1.5
			c2.6,0.6,4.4,1.4,5.4,2.3s1.5,2.3,1.5,3.9c0,1.8-0.7,3.4-2.1,4.7c-1.4,1.3-3.5,2-6.2,2c-2.5,0-4.5-0.6-5.9-1.7
			C339.8,283.8,338.9,282.3,338.4,280.4L338.4,280.4z"/>
		<path class="st4" d="M375.7,272l-4.8,0.9c-0.2-1-0.5-1.8-1.1-2.3s-1.3-0.8-2.2-0.8c-1.2,0-2.2,0.5-2.9,1.4
			c-0.7,0.9-1.1,2.4-1.1,4.6c0,2.4,0.4,4,1.1,5c0.7,1,1.7,1.5,2.9,1.5c0.9,0,1.7-0.3,2.3-0.9s1-1.6,1.2-2.9l4.8,0.9
			c-0.5,2.4-1.4,4.2-2.8,5.4c-1.4,1.2-3.3,1.8-5.6,1.8c-2.7,0-4.8-0.9-6.4-2.8c-1.6-1.8-2.4-4.4-2.4-7.6c0-3.3,0.8-5.9,2.4-7.7
			c1.6-1.8,3.8-2.8,6.5-2.8c2.2,0,4,0.5,5.3,1.6C374.2,268.3,375.1,269.9,375.7,272L375.7,272z"/>
		<path class="st4" d="M384.2,258.5v10.1c1.6-2,3.4-3,5.6-3c1.1,0,2.1,0.2,3,0.7c0.9,0.4,1.6,1,2,1.7c0.5,0.7,0.8,1.5,0.9,2.3
			c0.2,0.8,0.3,2.2,0.3,4V286h-4.8v-10.5c0-2.1-0.1-3.4-0.3-4s-0.5-1-1-1.3s-1-0.5-1.7-0.5c-0.8,0-1.5,0.2-2.2,0.6
			c-0.6,0.4-1.1,1.1-1.4,1.9c-0.3,0.9-0.4,2.1-0.4,3.8v10h-4.8v-27.5L384.2,258.5L384.2,258.5z"/>
		<polygon class="st4" points="400.9,286.1 400.9,258.5 405.8,258.5 405.8,286.1 		"/>
		<path class="st4" d="M409.6,275.8c0-1.8,0.4-3.4,1.2-5.1c0.8-1.6,1.9-2.9,3.4-3.8s3.1-1.3,4.9-1.3c2.8,0,5,1,6.8,2.9
			c1.8,2,2.7,4.4,2.7,7.4s-0.9,5.5-2.7,7.5s-4,3-6.7,3c-1.7,0-3.3-0.4-4.8-1.2c-1.5-0.8-2.7-2-3.5-3.6
			C410,280.1,409.6,278.1,409.6,275.8L409.6,275.8z M414.6,276.1c0,2,0.4,3.5,1.3,4.5c0.9,1.1,1.9,1.6,3.2,1.6s2.3-0.5,3.2-1.6
			s1.3-2.6,1.3-4.6c0-1.9-0.4-3.5-1.3-4.5c-0.9-1.1-1.9-1.6-3.2-1.6s-2.3,0.5-3.2,1.6S414.6,274.1,414.6,276.1L414.6,276.1z"/>
		<path class="st4" d="M430.6,280.4l4.9-0.8c0.2,1,0.6,1.8,1.3,2.3c0.6,0.5,1.5,0.8,2.7,0.8c1.3,0,2.2-0.3,2.8-0.8
			c0.4-0.3,0.6-0.8,0.6-1.4c0-0.4-0.1-0.7-0.3-1s-0.8-0.5-1.6-0.7c-3.9-0.9-6.4-1.8-7.4-2.6c-1.4-1.1-2.2-2.6-2.2-4.5
			c0-1.7,0.6-3.2,1.9-4.4c1.3-1.2,3.2-1.8,5.8-1.8c2.5,0,4.4,0.4,5.6,1.3c1.2,0.9,2.1,2.2,2.5,3.9l-4.6,0.9
			c-0.2-0.8-0.6-1.4-1.1-1.8s-1.3-0.6-2.3-0.6c-1.3,0-2.2,0.2-2.7,0.6c-0.4,0.3-0.5,0.6-0.5,1.1c0,0.4,0.2,0.7,0.5,1
			c0.4,0.4,1.9,0.8,4.5,1.5c2.6,0.6,4.4,1.4,5.4,2.3s1.5,2.3,1.5,3.9c0,1.8-0.7,3.4-2.1,4.7c-1.4,1.3-3.5,2-6.2,2
			c-2.5,0-4.5-0.6-5.9-1.7C432,283.8,431,282.3,430.6,280.4L430.6,280.4z"/>
		<path class="st4" d="M450.2,280.4l4.9-0.8c0.2,1,0.6,1.8,1.3,2.3c0.6,0.5,1.5,0.8,2.7,0.8c1.3,0,2.2-0.3,2.8-0.8
			c0.4-0.3,0.6-0.8,0.6-1.4c0-0.4-0.1-0.7-0.3-1s-0.8-0.5-1.6-0.7c-3.9-0.9-6.4-1.8-7.4-2.6c-1.4-1.1-2.2-2.6-2.2-4.5
			c0-1.7,0.6-3.2,1.9-4.4c1.3-1.2,3.2-1.8,5.8-1.8c2.5,0,4.4,0.4,5.6,1.3c1.2,0.9,2.1,2.2,2.5,3.9l-4.6,0.9
			c-0.2-0.8-0.6-1.4-1.1-1.8s-1.3-0.6-2.3-0.6c-1.3,0-2.2,0.2-2.7,0.6c-0.4,0.3-0.5,0.6-0.5,1.1c0,0.4,0.2,0.7,0.5,1
			c0.4,0.4,1.9,0.8,4.5,1.5c2.6,0.6,4.4,1.4,5.4,2.3s1.5,2.3,1.5,3.9c0,1.8-0.7,3.4-2.1,4.7c-1.4,1.3-3.5,2-6.2,2
			c-2.5,0-4.5-0.6-5.9-1.7C451.6,283.8,450.6,282.3,450.2,280.4L450.2,280.4z"/>
		<path class="st4" d="M482.1,279.7l4.8,0.9c-0.6,1.9-1.6,3.4-2.9,4.4c-1.3,1-3,1.5-5,1.5c-3.2,0-5.5-1.1-7.1-3.4
			c-1.2-1.8-1.8-4.1-1.8-6.9c0-3.3,0.8-5.9,2.4-7.8c1.6-1.9,3.6-2.8,6-2.8c2.7,0,4.9,1,6.4,2.9c1.6,2,2.3,5,2.3,9h-12.1
			c0,1.6,0.4,2.8,1.2,3.6c0.7,0.9,1.7,1.3,2.8,1.3c0.8,0,1.4-0.2,1.9-0.7C481.4,281.5,481.8,280.7,482.1,279.7L482.1,279.7z
			 M482.4,274.4c0-1.5-0.4-2.7-1.1-3.5c-0.7-0.8-1.5-1.2-2.5-1.2c-1.1,0-1.9,0.4-2.6,1.3c-0.7,0.8-1,2-1,3.4L482.4,274.4
			L482.4,274.4z"/>
		<path class="st4" d="M507.7,286.1h-4.8v-10.2c0-2.2-0.1-3.5-0.3-4.2c-0.2-0.6-0.5-1.1-1-1.5c-0.5-0.3-1-0.5-1.7-0.5
			c-0.8,0-1.6,0.3-2.3,0.8s-1.1,1.2-1.4,2c-0.2,0.8-0.4,2.4-0.4,4.6v9H491v-19.9h4.5v2.9c1.6-2.3,3.6-3.4,6-3.4c1.1,0,2,0.2,2.9,0.6
			s1.6,1,2,1.6c0.5,0.7,0.8,1.4,0.9,2.2c0.2,0.8,0.3,2,0.3,3.5L507.7,286.1L507.7,286.1z"/>
		<path class="st5" d="M367.5,615v-27.5h4.8v9.9c1.5-1.9,3.3-2.8,5.3-2.8c2.2,0,4.1,0.9,5.5,2.6c1.5,1.8,2.2,4.3,2.2,7.6
			c0,3.4-0.7,6-2.2,7.9c-1.5,1.8-3.3,2.8-5.4,2.8c-1,0-2.1-0.3-3.1-0.9c-1-0.6-1.9-1.4-2.6-2.5v2.9H367.5L367.5,615z M372.3,604.6
			c0,2.1,0.3,3.6,0.9,4.6c0.8,1.4,2,2.1,3.3,2.1c1.1,0,2-0.5,2.7-1.5c0.8-1,1.1-2.6,1.1-4.7c0-2.3-0.4-3.9-1.1-4.9
			c-0.8-1-1.7-1.5-2.9-1.5s-2.1,0.5-2.9,1.5C372.7,601.1,372.3,602.6,372.3,604.6L372.3,604.6z"/>
		<path class="st5" d="M389.2,592.3v-4.9h4.8v4.9H389.2L389.2,592.3z M389.2,615v-19.9h4.8V615H389.2L389.2,615z"/>
		<path class="st5" d="M397.3,609.3l4.9-0.8c0.2,1,0.6,1.8,1.3,2.3c0.6,0.5,1.5,0.8,2.7,0.8c1.3,0,2.2-0.3,2.8-0.8
			c0.4-0.3,0.6-0.8,0.6-1.4c0-0.4-0.1-0.7-0.3-1s-0.8-0.5-1.6-0.7c-3.9-0.9-6.4-1.8-7.4-2.6c-1.4-1.1-2.2-2.6-2.2-4.5
			c0-1.7,0.6-3.2,1.9-4.4c1.3-1.2,3.2-1.8,5.8-1.8c2.5,0,4.4,0.4,5.6,1.3c1.2,0.9,2.1,2.2,2.5,3.9l-4.6,0.9
			c-0.2-0.8-0.6-1.4-1.1-1.8c-0.5-0.4-1.3-0.6-2.3-0.6c-1.3,0-2.2,0.2-2.7,0.6c-0.4,0.3-0.5,0.6-0.5,1.1c0,0.4,0.2,0.7,0.5,1
			c0.4,0.4,1.9,0.8,4.5,1.5c2.6,0.6,4.4,1.4,5.4,2.3c1,0.9,1.5,2.2,1.5,3.9c0,1.8-0.7,3.4-2.1,4.7c-1.4,1.3-3.5,2-6.2,2
			c-2.5,0-4.5-0.6-5.9-1.7C398.7,612.7,397.8,611.2,397.3,609.3L397.3,609.3z"/>
		<path class="st5" d="M445.1,615h-4.8v-10.2c0-2.2-0.1-3.5-0.3-4.2c-0.2-0.6-0.5-1.1-1-1.5c-0.5-0.3-1-0.5-1.7-0.5
			c-0.8,0-1.6,0.2-2.3,0.7s-1.1,1.2-1.4,2c-0.2,0.8-0.4,2.4-0.4,4.6v9h-4.8V595h4.5v2.9c1.6-2.3,3.6-3.4,6-3.4c1.1,0,2,0.2,2.9,0.6
			c0.9,0.4,1.6,1,2,1.6c0.5,0.7,0.8,1.4,0.9,2.2c0.2,0.8,0.3,2,0.3,3.5L445.1,615L445.1,615z"/>
		<path class="st5" d="M453.6,601.1l-4.4-0.9c0.5-1.9,1.3-3.4,2.5-4.3c1.2-0.9,3-1.4,5.4-1.4c2.2,0,3.8,0.3,4.8,0.8
			c1,0.6,1.8,1.3,2.2,2.1c0.4,0.9,0.6,2.4,0.6,4.7l-0.1,6.2c0,1.8,0.1,3,0.2,3.9c0.2,0.8,0.4,1.7,0.9,2.7h-4.8
			c-0.1-0.4-0.3-0.9-0.5-1.6c-0.1-0.3-0.1-0.5-0.2-0.6c-0.8,0.9-1.7,1.5-2.7,2c-0.9,0.4-1.9,0.7-3,0.7c-1.9,0-3.4-0.6-4.4-1.7
			c-1.1-1.1-1.6-2.5-1.6-4.2c0-1.1,0.2-2.1,0.7-3s1.2-1.6,2.1-2c0.9-0.5,2.2-0.9,3.9-1.2c2.3-0.5,3.8-0.9,4.7-1.3v-0.5
			c0-1-0.2-1.7-0.7-2.2c-0.5-0.4-1.3-0.6-2.6-0.6c-0.9,0-1.5,0.2-2,0.6C454.3,599.6,453.9,600.2,453.6,601.1L453.6,601.1z
			 M460.1,605.4c-0.6,0.2-1.6,0.5-2.9,0.8c-1.3,0.3-2.2,0.6-2.6,0.9c-0.6,0.5-0.9,1.1-0.9,1.9c0,0.7,0.3,1.4,0.8,1.9
			s1.1,0.8,1.9,0.8c0.9,0,1.7-0.3,2.5-0.9c0.6-0.5,1-1.1,1.2-1.7c0.1-0.5,0.2-1.3,0.2-2.6v-1.1H460.1z"/>
		<path class="st5" d="M485.6,600.9l-4.8,0.9c-0.2-1-0.5-1.8-1.1-2.3s-1.3-0.8-2.2-0.8c-1.2,0-2.2,0.5-2.9,1.4s-1.1,2.4-1.1,4.6
			c0,2.4,0.4,4,1.1,5c0.7,1,1.7,1.5,2.9,1.5c0.9,0,1.7-0.3,2.3-0.9c0.6-0.6,1-1.6,1.2-2.9l4.8,0.9c-0.5,2.4-1.4,4.2-2.8,5.4
			c-1.4,1.2-3.3,1.8-5.6,1.8c-2.7,0-4.8-0.9-6.4-2.8c-1.6-1.8-2.4-4.4-2.4-7.6c0-3.3,0.8-5.9,2.4-7.7c1.6-1.8,3.8-2.8,6.5-2.8
			c2.2,0,4,0.5,5.3,1.6C484,597.2,485,598.8,485.6,600.9L485.6,600.9z"/>
		<path class="st5" d="M494,587.5v10.1c1.6-2,3.4-3,5.6-3c1.1,0,2.1,0.2,3,0.7c0.9,0.4,1.6,1,2,1.7c0.5,0.7,0.8,1.5,0.9,2.3
			c0.2,0.8,0.3,2.2,0.3,4V615H501v-10.5c0-2.1-0.1-3.4-0.3-4s-0.5-1-1-1.3s-1-0.5-1.7-0.5c-0.8,0-1.5,0.2-2.2,0.6
			c-0.6,0.4-1.1,1.1-1.4,1.9c-0.3,0.9-0.4,2.1-0.4,3.8v10h-4.8v-27.5H494L494,587.5z"/>
		<path class="st5" d="M268.2,467.6c-5.5-0.6-11.3,1-16.5-1.4c-2.3-1.4-4.5-3.4-5.7-5.6c-0.2-0.2-0.2-0.3-0.4-0.5
			c-1-1.8-2.2-3.6-2.9-5.8c-3.3-8.4-4-17.2-4.2-25.9c0-10,0.6-20.1,3.6-29.7c0.1-0.4,0.4-0.7,0.4-1.2c1.4-3.3,2.8-6.5,5.6-9.1
			c0.8-0.4,1.4-1.2,2.4-1.5l0.2-0.2c4-1.7,7.9-1.2,12.4-1.2c4.5-0.1,11,0.5,13.9,4.3c0.7,0.7,1.3,1.4,2,2.2c0.4,0.7,0.8,1.2,1.2,1.8
			c0.2,0.2,0.2,0.5,0.4,0.7c6,10.9,7.2,24.5,6.8,36.9c-0.3,7.8-0.8,15.4-3.1,23c-1.7,5-4,9.6-8.8,12.2c-2.2,1-4.6,0.9-7,0.9
			L268.2,467.6L268.2,467.6z"/>
		<path class="st4" d="M268.7,469.1c-5.7-0.6-11.6,1-17-1.4c-2.4-1.4-4.6-3.5-5.9-5.9c-0.2-0.2-0.2-0.3-0.4-0.5c-1-1.8-2.2-3.7-3-6
			c-3.4-8.8-4.1-17.9-4.4-26.9c0-10.4,0.6-20.9,3.7-31c0.1-0.4,0.4-0.7,0.4-1.2c1.4-3.5,2.9-6.8,5.8-9.4c0.8-0.5,1.4-1.2,2.5-1.6
			l0.2-0.2c4.1-1.7,8.6-0.9,13.2-1s11,0.3,14,4.3c0.7,0.7,1.3,1.4,2,2.2c0.4,0.7,0.8,1.2,1.2,1.9c0.2,0.2,0.2,0.5,0.5,0.7
			c6.2,11.3,7.4,25.6,7,38.5c-0.3,8.2-0.9,16-3.2,23.9c-1.8,5.2-4.1,10-9,12.7c-2.2,1-4.8,1-7.2,1L268.7,469.1L268.7,469.1z"/>
		<path class="st5" d="M257.1,420.4h-0.3c-0.2-0.3-0.2-0.5-0.4-0.8c0-0.2-0.2-0.3-0.4-0.5c-1.4-0.7-3.1-0.2-4.5-0.3
			c-0.3,0-0.6,0.2-0.8,0.4c-0.2,0.3-0.5,0.6-0.6,1.2c-0.6,0.1-1,0-1.6,0.1l-0.2-0.2c0-0.2-0.1-0.3-0.2-0.6c-0.2-0.2-0.5-0.7-1-0.9
			h-3.3l-0.3-0.2c0.1-2.8,0.2-5.6,0.7-8.5l0.1-0.1h3.8c0.3-0.1,0.7-0.2,0.9-0.4c0.1-0.2,0.3-0.5,0.5-0.7l0.1-0.3
			c0.5-0.1,1-0.1,1.6-0.1l0.3,0.2c0,0.2,0.2,0.2,0.3,0.5l0.3,0.4c1.3,0.8,3.3,0.3,4.9,0.4c0.2-0.2,0.5-0.2,0.7-0.5
			c0.2-0.2,0.2-0.6,0.5-0.9c0.6-0.1,1,0,1.7,0l0.2,0.4c0.1,0.2,0.3,0.5,0.6,0.7c0.1,0.1,0.3,0.2,0.7,0.3l3.3,0.1l0.1,0.1
			c-0.2,2.7-0.6,5.6-0.6,8.3l-0.2,0.3h-2.6c-0.6,0-1.2,0-1.6,0.2c-0.2,0.1-0.2,0.2-0.5,0.5c-0.2,0.3-0.4,0.6-0.6,1
			c-0.3,0-0.8,0-1.2,0h-0.4V420.4z"/>
		<path class="st5" d="M248.8,433l-0.3-0.2c-0.1-0.4-0.3-0.7-0.5-1c-1.3-0.8-3.1-0.3-4.5-0.5c-0.4-2.5,0-5.1-0.2-7.8l0.2-0.3
			l3.7-0.2c0.2-0.1,0.6-0.4,0.9-0.7c0.1-0.1,0.1-0.3,0.2-0.5l0.2-0.2c0.5-0.1,0.9,0,1.5-0.1l0.3,0.5c0.1,0.2,0.3,0.5,0.5,0.7
			c0.2,0.1,0.3,0.2,0.7,0.3l4.3-0.1c0.2-0.2,0.5-0.5,0.6-0.7c0.2-0.1,0.2-0.3,0.3-0.7c0.6,0,1.4-0.2,2,0.2c0,0.2,0.2,0.2,0.2,0.5
			l0.2,0.4c0.2,0.2,0.5,0.2,0.7,0.4c1.2,0.2,2.5,0,3.9,0.2l0.1,0.1l0.3,7.8l-0.3,0.2c-1.4,0.1-2.9-0.2-4.3,0.3
			c-0.3,0.3-0.5,0.9-0.9,1.3c-0.5,0-1,0.2-1.7-0.1c-0.1-0.4-0.3-0.7-0.6-1l-0.2-0.2c-1.3-0.6-2.9-0.2-4.4-0.3l-0.5,0.2
			c-0.2,0.1-0.5,0.2-0.7,0.6c-0.1,0.2-0.2,0.6-0.3,0.9c-0.5,0.2-0.9,0-1.3,0.1h-0.1V433z"/>
		<path class="st5" d="M258.9,446l-0.2-0.1c0-0.2-0.1-0.3-0.1-0.5c-0.2-0.2-0.4-0.6-0.7-0.9c-1.4-0.6-3.1-0.3-4.6-0.3
			c-0.6,0.3-1,0.9-1.2,1.6l-0.2,0.1c-0.5,0-0.9,0-1.3,0l-0.3-0.3c0-0.1-0.1-0.2-0.2-0.5c-0.2-0.4-0.6-0.8-1-1h-4.3
			c-0.6-2.8-1-5.6-1-8.5c1.2-0.2,2.5,0.1,3.7-0.2c0.3-0.1,0.5-0.2,0.7-0.6c0.2-0.1,0.2-0.5,0.4-0.9c0.6,0,1,0,1.6,0l0.2,0.2l0.2,0.4
			c0.1,0.2,0.3,0.5,0.7,0.8c1.4,0.3,2.8,0,4.1,0.2c0.6,0,0.9-0.6,1.4-0.9c0-0.2,0.1-0.6,0.2-0.7c0.5-0.1,1,0,1.5-0.1l0.3,0.2
			c0.2,0.4,0.5,0.8,1,1.2c1.4,0.4,3,0,4.6,0.2c0.1,2.8,0.7,5.5,1.2,8.4c-0.6,0.2-1.2,0-1.9,0.1c-0.8,0-1.3,0-1.8,0l-0.3,0.2
			c-0.3,0.2-0.8,0.6-1,1.2l-0.1,0.3c-0.5,0.2-0.9,0.2-1.5,0.2h-0.1V446z"/>
		<path class="st5" d="M254.5,456.1c-0.2-0.1-0.3,0-0.6-0.1c-0.2-0.2-0.2-0.5-0.4-0.8c-0.1-0.1-0.2-0.2-0.4-0.5
			c-1.4-0.6-3.2-0.2-4.8-0.2c-0.3,0-0.3,0.3-0.7,0.2c-0.6-1.8-1.6-3.9-1.8-5.9h3.3l0.6-0.3c0.2-0.3,0.4-0.6,0.6-1l0.2-0.1
			c0.5-0.2,0.9,0,1.5-0.1c0.5,0.4,0.6,1.1,1.4,1.3c1.3,0.2,2.7,0.2,4.1,0.1c0.4-0.2,0.6-0.5,1-0.8c0-0.2,0.2-0.5,0.3-0.7
			c0.5-0.1,1.3-0.1,1.8,0.2c0.1,0.4,0.2,0.6,0.6,1c0.2,0.1,0.3,0.2,0.6,0.3h4c0.3,0,0.3-0.3,0.7-0.3c0,0.2,0,0.4,0.2,0.5
			c0,0.3,0.2,0.7,0.3,1.1l1.4,4.2l-0.1,0.1h-2.9c-0.4,0.2-0.6,0.3-0.9,0.6c-0.1,0.3-0.3,0.6-0.3,0.9c-0.5,0.3-1.2,0.1-1.8,0.2
			l-0.3-0.2c0.1-0.2-0.2-0.3-0.2-0.6l-0.3-0.4c-1.3-0.7-3.1-0.2-4.6-0.4l-0.6,0.3l-0.2,0.1l-0.1,0.2c-0.2,0.2-0.3,0.6-0.5,1
			c-0.3,0.1-0.6,0-1,0L254.5,456.1L254.5,456.1z"/>
		<path class="st5" d="M260.7,463.3l-0.1-0.1c0-0.2-0.1-0.3-0.1-0.5c-0.2-0.4-0.6-0.6-1-0.9l-3.3-0.1l-0.3,0.1
			c-0.3,0.1-0.5,0.3-0.7,0.6c-0.1,0-0.1,0.2-0.2,0.5l-0.3,0.1c-1.7-0.8-3.7-2.5-4.7-4.3c1-0.2,2,0.1,3-0.2c0.2-0.3,0.5-0.3,0.6-0.6
			s0.2-0.3,0.3-0.7c0.5-0.1,1,0,1.6-0.1l0.4,0.1c0,0.3,0.2,0.3,0.2,0.6c0.2,0.3,0.6,0.6,1,0.8h3.9c0.2,0,0.5-0.3,0.8-0.5
			s0.3-0.7,0.6-1c0.5-0.1,1.1-0.1,1.7,0c0.2,0,0.2,0.2,0.3,0.5c0.1,0.3,0.2,0.5,0.6,0.7c1.4,0.5,3.2,0.4,4.8,0.2
			c0.2-0.1,0.6-0.5,0.9-0.6c0.8,1.2,1.8,2.4,2.9,3.4l-0.1,0.2l-0.2,0.2c-1,0.2-2.2,0-3.3,0.1l-0.6,0.2c-0.4,0.3-0.5,0.8-0.8,1.2
			c-0.3,0-0.8,0.1-1.2,0.1c-0.1-0.1-0.2-0.3-0.2-0.6c-0.2-0.2-0.4-0.5-0.8-0.8c-1-0.3-2.2,0-3.5-0.1c-0.4,0.1-0.6,0.2-1,0.6
			c0,0.1-0.2,0.2-0.2,0.5v0.2l-0.2,0.1C261.3,463.4,261.1,463.3,260.7,463.3L260.7,463.3z"/>
		<path class="st5" d="M250.6,407.3c-0.3-0.1-0.6,0-0.9-0.1c-0.5-0.7-0.7-1.4-1.7-1.6l-2.9-0.1l-0.2-0.2c0.3-1.7,0.7-3.5,1.3-5.4
			l0.2-0.2c1.4,0.4,2.8,0.1,4.2,0.2c0.3,0,0.5-0.2,0.9-0.3c0.2-0.1,0.2-0.2,0.5-0.5c0.2-0.2,0.2-0.4,0.3-0.7c0.5,0,0.9,0,1.5,0
			l0.3,0.1l0.1,0.3c0.1,0.2,0.4,0.5,0.6,0.7s0.4,0.3,0.7,0.3h3.6c0.4,0,0.7-0.3,1-0.6l0.2-0.2c0.2-0.1,0.2-0.3,0.3-0.7l0.1-0.1
			c0.6,0,1.1-0.1,1.7,0c0.2,0.1,0.2,0.3,0.3,0.5c0,0.2,0.3,0.3,0.4,0.6l0.2,0.1c1,0.6,2.3,0.2,3.4,0.3c0.2,0.1,0.3,0,0.6,0.1
			c-0.6,1.8-1.2,3.7-1.7,5.5c-1.4-0.1-2.8,0-4.3,0l-0.3,0.1c-0.2,0.1-0.3,0.3-0.6,0.5c-0.2,0.2-0.3,0.6-0.4,0.9l-0.2,0.2
			c-0.5,0.1-0.9,0-1.5,0l-0.2-0.2c0-0.3-0.2-0.4-0.3-0.7c-0.2-0.2-0.2-0.2-0.5-0.5c-0.1-0.1-0.3-0.1-0.6-0.2l-4.3,0.2
			c-0.2,0-0.2,0.3-0.5,0.4l-0.2,0.2c-0.2,0.1-0.2,0.5-0.4,0.9l-0.2,0.1C250.9,407.3,250.7,407.3,250.6,407.3L250.6,407.3z"/>
		<path class="st5" d="M252.5,397.3l-0.2-0.1l-0.2-0.1c0-0.2-0.1-0.3-0.2-0.6c-0.1-0.2-0.3-0.5-0.5-0.6c-1-0.5-2.1-0.2-3.1-0.3
			c0.1-0.3,0.1-0.4,0.2-0.7c1.2-1.4,2.5-3.5,4.5-3.7c0,0.2,0.2,0.2,0.2,0.5c0.1,0.2,0.2,0.5,0.6,0.7c1.3,0.4,2.5,0.1,3.7,0.2
			l0.4-0.2l0.3-0.2l0.1-0.2c0.2-0.1,0.1-0.5,0.3-0.6l0.3-0.2c0.1,0,0.3,0,0.5,0l0.3,0.2l0.2,0.4l0.2,0.3l0.2,0.2
			c0.1,0.2,0.3,0.2,0.5,0.2h3.6c0.3-0.1,0.6-0.4,0.8-0.7v-0.2l0.2-0.3c0.3-0.1,0.7,0,1-0.1l0.3,0.2c0.1,0.4,0.3,0.6,0.7,1
			c1.2,0.2,2.4,0.1,3.6,0.2l0.1,0.3c-0.1,0.4-0.5,0.7-0.9,1.2c-0.2,0.4-0.6,0.7-0.8,1.2c-0.2,0.4-0.5,0.8-0.8,1.2
			c-0.1,0-0.2-0.2-0.4-0.4c-0.1-0.2-0.5-0.2-0.7-0.4c-1.4,0-3.1-0.3-4.7,0.2l-0.3,0.3c-0.1,0.2-0.2,0.5-0.4,0.9
			c-0.5,0.2-1.2,0.1-1.8,0.1c-0.1-0.5-0.3-0.8-0.7-1.1c-0.1-0.1-0.3-0.3-0.7-0.3l-4.3,0.1c-0.2,0.2-0.2,0.2-0.5,0.4
			c-0.2,0.2-0.3,0.5-0.4,0.7l-0.2,0.3C253.5,397.3,252.9,397.2,252.5,397.3L252.5,397.3z"/>
		<path class="st5" d="M275.8,454.5c0.2-1.2-0.6-2.3-0.9-3.6l-0.1-0.3l-0.2-0.2l-0.2-0.2c-0.3-0.2-0.7-0.3-1.2-0.4l-0.1-0.1
			c-0.1-0.2-0.1-0.3,0-0.6c0.2-0.1,0.2-0.2,0.5-0.4c0.1-0.2,0.2-0.2,0.3-0.5c0-1.2-0.5-2.3-0.6-3.5l-0.2-0.4c0-0.2-0.2-0.2-0.4-0.5
			c-0.2-0.2-0.7-0.2-1-0.3l-0.2-0.1c0-0.3-0.1-0.5-0.1-0.9c0.2-0.1,0.5-0.4,0.8-0.7c0.4-1.3-0.2-2.5-0.2-3.9
			c-0.3-0.2-0.3-0.6-0.6-0.8c-0.2-0.1-0.6-0.2-0.7-0.3c-0.1-0.2-0.1-0.3,0-0.5c0.2-0.1,0.5-0.3,0.7-0.5c0.6-1.2,0.1-2.6,0.2-4
			c-0.2-0.3-0.2-0.6-0.6-0.9c-0.2-0.1-0.5-0.2-0.9-0.4c0-0.1,0-0.2,0-0.5l0.2-0.2l0.4-0.3c0.6-1.2,0.2-2.8,0.4-4.1
			c-0.1-0.3-0.2-0.4-0.4-0.7c-0.2-0.1-0.5-0.3-0.7-0.4c-0.1-0.2-0.1-0.5-0.1-0.7l0.3-0.2l0.3-0.2c0.8-1.1,0.6-2.9,0.6-4.3l-0.1-0.3
			c-0.2-0.3-0.7-0.7-1-0.9c-0.1-0.1,0-0.2-0.1-0.5c0.3-0.4,0.9-0.6,1.1-1.1c0.1-1.4,0.4-2.8,0-4.2c-0.2-0.3-0.6-0.4-0.8-0.7
			c0-0.2,0-0.5,0.1-0.7c0.1-0.1,0.4-0.1,0.7-0.2c0.2-0.2,0.2-0.4,0.5-0.5c0.2-0.2,0.3-0.3,0.3-0.7c0.2-0.9,0.5-1.9,0.6-2.9
			c0-0.3-0.2-0.4-0.3-0.8c-0.1-0.2-0.5-0.4-0.7-0.6v-0.1c0-0.2,0-0.4,0.2-0.5s0.5-0.1,0.9-0.2l0.2-0.2l0.2-0.2
			c0.1-0.1,0.1-0.6,0.4-0.9c0.1-1.2,0.9-2.1,0.7-3.2c0.2-0.2,0.4,0.1,0.6,0l0.4,0.1c0.7,0.6,1.3,1.3,1.8,2.1
			c6,15.7,6.2,33.7,1.7,49.9c-0.2,0.3-0.5,0.8-0.7,1.2c-0.5,0.6-0.7,0.9-1.2,1.3c-0.2,0.1-0.5,0.2-0.6,0.4L275.8,454.5L275.8,454.5z
			"/>
		<path class="st5" d="M259.7,466.6c-1.8-0.2-3.7,0.1-5.5-0.6l-2.1-1c-0.2,0-0.2-0.2-0.6-0.2c-2.5-2.1-4.1-4.7-5.6-7.4v-0.2
			c0.4-0.1,0.6,0,1,0l0.3,0.2l0.1,0.3c1.6,1.4,2.6,3.6,4.7,5.1c0.8,0.6,1.8,1.2,2.9,1.6c0,0.2,0.2,0.2,0.2,0.6l0.4,0.3
			c0.2,0.2,0.3,0.2,0.6,0.4l3.3-0.1l0.4-0.2c0.3-0.4,0.6-0.6,0.7-1c0.3-0.2,0.5,0,0.9-0.1l0.2,0.2l0.1,0.2c0.2,0.1,0.2,0.3,0.4,0.5
			c1.2,0.6,2.6,0.2,4,0.3l0.2-0.1c0.3-0.1,0.7-0.5,0.9-1.1c0.2-0.2,0.8,0,1.2-0.1c0.3,0.2,0.4,0.6,0.7,0.9c0.1,0.1,0.3,0.2,0.7,0.3
			l3.1,0.1c0.4-0.1,0.6-0.2,1-0.6c0.1-0.2,0.2-0.2,0.3-0.6c0.1-0.6,0.2-1.1-0.1-1.9c-0.1-0.2,0.2-0.3,0.3-0.6
			c0.1-0.2,0.2-0.3,0.4-0.6c0.3,0,0.6,0,1,0l0.3-0.2l0.3-0.2c0.6-1.2,1-2.6,1.3-3.9c-0.1-0.4-0.3-0.6-0.5-1l0.1-0.1
			c0-0.2,0.2-0.2,0.5-0.2c6.5-10.6,5.7-24.6,5.1-36.3c-0.7-6.6-1.7-13.9-5-19.7c-0.2-0.5-0.6-1-1.2-1.4c-0.5-0.2-0.5-0.4-0.7-0.4
			l-0.1-0.2c0.5-1-0.3-2.3-0.6-3.5v-0.2c-0.2-0.1-0.2-0.4-0.4-0.7l-0.2-0.2c-0.4-0.3-1.1-0.4-1.7-0.3c0-0.3-0.2-0.4-0.5-0.7
			c0-0.7,0.2-1.3,0.1-2.1c-0.1-0.5-0.2-0.7-0.6-1c-1.3-0.4-2.5-0.1-3.7-0.2c-0.2,0.1-0.6,0.2-0.7,0.3l-0.2,0.3
			c-0.1,0.2-0.2,0.6-0.3,0.7l-0.3,0.1c-0.3,0-0.6,0-1,0c0-0.2-0.1-0.3-0.2-0.6c-0.1-0.1-0.2-0.3-0.4-0.5c-0.1-0.2-0.3-0.2-0.6-0.4
			l-3.3,0.1l-0.3,0.1c-0.1,0.2-0.2,0.2-0.4,0.4c-0.1,0.2-0.2,0.4-0.3,0.7l-0.1,0.2c-0.3,0.1-0.6,0-0.9,0c-0.2-0.3-0.3-0.7-0.6-1
			c-1.1-0.7-2.7-0.2-4-0.4l-0.6,0.2c-0.2,0.1-0.4,0.4-0.6,0.6c-0.1,0.2-0.3,0.2-0.6,0.4c-2,0.6-3.5,2.2-4.9,3.9
			c0,0.2-0.1,0.2-0.2,0.6l-0.2,0.2c-0.2,0.3-0.3,0.7-0.6,1c-0.2,0.1-0.4,0.2-0.6,0.3l-0.2,0.2c-0.2,0.2-0.2,0.8-0.5,1
			c-0.3,0.1-0.6,0.1-0.9,0.1l-0.1-0.1c0.8-2.4,1.7-4.5,3.1-6.2c1-1.8,2.8-3.1,4.5-4c1.4-0.5,2.8-0.5,4.1-0.5
			c6.9,0.6,15.5-2.2,20.1,4.1c7.7,9.7,9.3,24.6,9.6,37.2c-0.2,8.8-0.6,17.5-3.1,26c-0.8,2.8-1.8,5.4-3.3,7.6
			c-0.9,1.6-2.5,3.3-4.1,4.2l-0.2,0.2c-5.1,1.4-10.3,0.4-15.4,0.7L259.7,466.6L259.7,466.6z"/>
		<path class="st5" d="M273.8,397.5l-0.2-0.1l-0.2-0.2l-0.9-2.5l0.1-0.2l0.3,0.3c0.1,0.1,0.2,0.1,0.5,0.2l0.4-0.2l0.2-0.4
			c0-0.2-0.2-0.4-0.2-0.6h0.2c0.5,0.8,0.6,1.8,1,2.9v0.2l-0.2,0.1C274.6,397.2,274.2,397.5,273.8,397.5L273.8,397.5z"/>
		<path class="st5" d="M270.6,399.3c-0.4-0.2-0.8-0.5-1.2-0.9c0.6-1.2,1.2-2.4,2.1-3.4l0.2,0.1c0.5,1.1,0.7,2.7,1.6,3.5
			c-0.6-0.1-1.1-0.3-1.8-0.1C271,398.6,270.9,399,270.6,399.3L270.6,399.3z"/>
		<path class="st5" d="M266.6,407.2l-0.2-0.1c0.4-2.6,1.3-5.3,2.5-7.5c0.4,0.1,0.7,0.6,1.2,0.8c0.1,0.6-0.2,1-0.4,1.6
			c0,0.2,0,0.3,0,0.5c0.2,0.6,0.5,1,0.9,1.4v0.1c-0.1,0.2-0.1,0.3-0.1,0.5c-0.2,0.1-0.4,0.2-0.7,0.2c-0.2,0.2-0.2,0.2-0.5,0.5
			c-0.2,0.6-0.3,1.2-0.6,1.8C268.1,407.5,267.4,407.2,266.6,407.2L266.6,407.2z"/>
		<path class="st5" d="M265.4,420.4l-0.2-0.1c-0.2-3.9,0-8,1.2-11.6l0.3-0.2c0.5,0,1,0,1.5,0c0.1,0.1,0.3,0.4,0.3,0.6l0.1,0.4
			c0.2,0.3,0.7,0.6,1,0.9c0,0.3-0.1,0.6-0.2,0.9c-0.2,0.1-0.4,0.2-0.6,0.3c-0.2,0-0.3,0.3-0.6,0.4c0,0.1-0.2,0.2-0.2,0.5l-0.2,3.6
			l0.2,0.3l0.4,0.4c0.2,0.1,0.5,0.2,0.6,0.4l0.2,0.3l-0.2,0.3h-0.2c-0.2,0-0.2,0.2-0.5,0.3l-0.3,0.3c-0.1,0.2-0.2,0.3-0.2,0.6
			c0,0.4-0.1,0.8-0.2,1.4C266.8,420.5,266.1,420.4,265.4,420.4L265.4,420.4z"/>
		<path class="st5" d="M267,432.9c-0.5-0.1-0.9,0-1.4,0l-0.2-0.2c-0.2-3.7-0.6-7.3-0.2-11.1h2.2c0.2,0.2,0,0.6,0.1,0.9
			c0.2,0.4,0.3,0.6,0.6,0.8c0.1,0.2,0.4,0.2,0.7,0.3c0.1,0.1,0.1,0.4,0.1,0.7c-0.3,0.2-0.6,0.3-1,0.6c-0.1,0.2-0.2,0.3-0.3,0.6
			l-0.2,3.1l0.1,0.4c0.2,0.4,0.3,0.6,0.7,1c0.2,0.1,0.5,0.1,0.7,0.2l0.2,0.1v0.4c-0.2,0.3-0.6,0.3-0.9,0.6c0,0.2-0.2,0.3-0.2,0.6
			c0,0.2,0,0.5,0,0.8l-0.5,0.2C267.4,432.9,267.3,432.9,267,432.9L267,432.9z"/>
		<path class="st5" d="M267.4,446.1l-0.2-0.1c-0.9-3.9-1.4-7.8-1.7-11.7c0.6-0.2,1.4,0,2.1-0.2l0.3,0.3c0,0.3,0,0.8,0.1,1.1
			c0.3,0.5,0.7,0.8,1.4,1c0,0.1,0.1,0.2,0,0.4s-0.3,0.2-0.6,0.2l-0.3,0.3c-0.2,0.1-0.2,0.4-0.3,0.5c0,1.3,0.2,2.7,0.6,4
			c0.2,0.1,0.2,0.3,0.5,0.5c0.2,0.2,0.6,0.2,0.9,0.3c0.1,0.2,0.1,0.5,0.2,0.9l-0.1,0.2c-0.1,0.1-0.2,0.3-0.5,0.4
			c-0.3,0.5-0.2,1.1-0.2,1.7L267.4,446.1L267.4,446.1z"/>
		<path class="st5" d="M270.1,454.7l-0.2-0.2c-0.9-2.2-1.8-4.5-2.3-7v-0.2c0.7,0,1.4-0.1,2.1,0l0.4,0.2c0.1,0.3,0.1,0.8,0.3,1.2
			c0.1,0.2,0.2,0.2,0.5,0.5c0.2,0.1,0.7,0.2,1,0.5c0,0.2,0,0.2,0,0.5c-0.1,0.2-0.3,0.5-0.6,0.7c-0.1,0.3-0.1,0.8-0.1,1.2
			c0.1,0.3,0.5,0.9,0.4,1.6C271.1,453.9,270.6,454.5,270.1,454.7L270.1,454.7L270.1,454.7z"/>
		<path class="st5" d="M275.8,460v-0.3l-0.2-0.4l-0.3-0.1c-0.2,0.1-0.4,0.1-0.6,0.2c-0.1,0.1-0.1,0.3-0.4,0.4l-0.1-0.2
			c0-0.6,0.2-1.2,0.6-1.7c0.1-0.4,0.1-0.8,0.5-1.2l0.2-0.1c0.3-0.1,0.8,0.2,1.2,0.3l0.1,0.3C276.5,458.1,276.3,459.2,275.8,460
			L275.8,460z"/>
		<path class="st5" d="M273,459.3c-0.9-1.1-1.5-2-2.2-3.2v-0.2c0.3-0.4,0.9-0.7,1.4-1.1c0.3,0.3,0.6,0.7,1.2,0.9
			c0.5,0,1.2-0.2,1.7-0.2l-0.3,0.2l-0.1,0.1c-0.3,0.4-0.4,1.1-0.7,1.6c-0.1,0.6-0.4,1.2-0.6,1.8L273,459.3L273,459.3z"/>
		<path class="st5" d="M245.5,455.9h-0.2c-1.2-2.5-2.2-5.8-2.7-8.6c0.2-0.2,0.5,0,0.8-0.1c0.2,0.1,0.2,0.4,0.4,0.6
			c1,1.5,1.3,4.1,2.1,6c0.3,0.6,0.6,1.3,0.9,1.9l-0.1,0.2C246.4,455.9,246,455.9,245.5,455.9L245.5,455.9z"/>
		<path class="st5" d="M242.2,446c-0.9-3.8-1.3-7.7-1.5-11.6l0.2-0.2c0.2,0,0.4,0,0.6,0l0.3,0.3c0.9,3.5,1.1,7.7,1.5,11.5
			C243.1,446,242.6,446,242.2,446L242.2,446z"/>
		<path class="st5" d="M241.2,433c-0.2-0.1-0.3,0-0.6-0.1c-0.2-3.7-0.1-7.4-0.1-11.1c0.2-0.2,0.4-0.1,0.6-0.2l0.3,0.2
			c0.1,0.3,0.5,0.6,0.6,1l0.1,9.1c-0.2,0.3-0.2,0.7-0.6,0.9C241.5,432.9,241.4,433.1,241.2,433L241.2,433z"/>
		<path class="st5" d="M240.8,420.4c-0.1-3.7,0.4-7.8,1-11.7c0.2-0.2,0.5-0.1,0.9-0.2l0.2,0.2c0,3.5-0.6,6.7-0.6,10.2
			c-0.2,0.2-0.2,0.2-0.4,0.5c-0.2,0.2-0.2,0.5-0.5,0.9C241.2,420.4,241,420.4,240.8,420.4L240.8,420.4z"/>
		<path class="st5" d="M242.2,407.2l-0.2-0.1c0.4-2.8,1-5.5,1.9-8.5l0.2-0.1c0.4,0,0.8,0,1.2,0l0.2,0.3c-0.1,0.4-0.3,0.6-0.4,1
			c-0.6,2-1.2,3.9-1.6,6.1c-0.2,0.1-0.2,0.2-0.4,0.5c-0.2,0.2-0.2,0.6-0.4,0.8C242.5,407.2,242.4,407.2,242.2,407.2L242.2,407.2z"/>
		<path class="st5" d="M272.2,402.9c-0.2-0.2,0.1-0.4-0.1-0.6c-0.2-0.2-0.3-0.2-0.5-0.4h-0.2l-0.3,0.3l-0.1,0.3h-0.2
			c0-0.2,0.2-0.3,0.1-0.6c0.2-0.1,0-0.4,0.2-0.5c0.3-0.2,0.6,0.2,0.8,0l0.2-0.2c0.2-0.2,0.1-0.6-0.1-0.9c-0.2-0.1-0.3-0.2-0.4-0.4
			l0.1-0.4l0.2-0.2c0.4-0.2,1,0,1.4,0.3l0.1,0.2c0,0.5-0.2,0.9-0.3,1.3c-0.1,0.5-0.3,0.9-0.5,1.4L272.2,402.9L272.2,402.9z"/>
		<path class="st5" d="M270.8,409.2l-0.1-0.3c-0.2-0.2-0.2-0.2-0.5-0.3h-0.3c-0.2,0.1-0.2,0.4-0.4,0.4l-0.1-0.2
			c0-0.2,0.1-0.2,0.3-0.4c0.2-0.7-0.1-1.5,0.4-2.2c0,0.2,0.1,0.4,0.2,0.6l0.3,0.2c0.2,0,0.4-0.1,0.5-0.1c0.2-0.1,0.2-0.4,0.3-0.7
			h0.2l0.2,0.2l-0.8,2.9h-0.2V409.2z"/>
		<path class="st5" d="M268.9,415.9l-0.2-0.2l0.1-2.8l0.4-0.3v0.3l0.1,0.2c0.2,0.2,0.2,0.2,0.5,0.4c0.2-0.1,0.4-0.1,0.6-0.2l0.2-0.2
			l-0.2,2.8c-0.2-0.2,0-0.3-0.1-0.5L270,415l-0.3-0.1l-0.3,0.1c-0.2,0.1-0.2,0.3-0.2,0.6C269.1,415.5,269.1,415.7,268.9,415.9
			L268.9,415.9z"/>
		<path class="st5" d="M268.7,422.4l-0.2-0.4c0.2-0.9,0-1.9,0.2-2.9l0.2-0.1l0.1,0.3c0.2,0.2,0.3,0.4,0.6,0.6h0.2
			c0.2-0.1,0.3-0.2,0.6-0.3l-0.1,2.6V422c-0.1-0.2-0.1-0.4-0.2-0.6c-0.2-0.2-0.4-0.2-0.7-0.2l-0.3,0.3c0,0.2,0,0.5,0,0.7
			L268.7,422.4L268.7,422.4z"/>
		<path class="st5" d="M268.9,429c-0.2-0.1-0.2-0.2-0.3-0.4v-2.4c0.2-0.2,0-0.4,0.2-0.5h0.2l0.1,0.3l0.3,0.4l0.3,0.1
			c0.3,0,0.4-0.3,0.7-0.3c0,0.6,0.1,1.2-0.1,2L270,428c-0.2,0-0.3,0-0.6,0.1l-0.2,0.2c-0.1,0.2-0.1,0.5-0.1,0.9h-0.2V429z"/>
		<path class="st5" d="M269.3,435.2c-0.4-0.8-0.2-1.9-0.2-2.9v0.3l0.3,0.4l0.3,0.1l0.4-0.2l0.2-0.3c0-0.2,0-0.3,0-0.5l0.2-0.1
			c0.2,1,0.2,2.1,0.2,3.1h-0.2c0-0.1,0-0.4-0.2-0.5l-0.3-0.2c-0.1,0-0.4,0-0.5,0.2C269.3,434.6,269.5,434.9,269.3,435.2L269.3,435.2
			z"/>
		<path class="st5" d="M269.9,441.7l-0.2-0.1c-0.1-1-0.4-2.1-0.3-3.1l0.1-0.2c0.1,0.2,0.1,0.6,0.3,0.8l0.4,0.2l0.3-0.1
			c0.1-0.2,0.3-0.2,0.3-0.6l0.2,0.1l0.2,2.5c-0.1-0.2-0.2-0.2-0.3-0.4c-0.1-0.2-0.3-0.2-0.5-0.2l-0.4,0.1l-0.2,0.4
			C269.9,441.3,270.1,441.4,269.9,441.7L269.9,441.7z"/>
		<path class="st5" d="M271.5,448.4l-0.2-0.1c-0.2-0.5-0.2-0.9,0.1-1.4c0-0.2-0.1-0.4-0.1-0.6l-0.3-0.2c-0.2-0.1-0.2-0.2-0.2-0.5
			v-0.3c0.2,0,0.5,0.2,0.7,0.2l0.3-0.2c0.1-0.1,0.1-0.2,0.2-0.4h0.2c0.4,0.7,0.6,1.9,0.8,2.9l-0.2,0.2c0-0.2-0.2-0.3-0.2-0.5
			l-0.4-0.1l-0.3,0.1c-0.1,0.1-0.1,0.3-0.2,0.5C271.6,448.1,271.7,448.3,271.5,448.4L271.5,448.4z"/>
		<path class="st5" d="M273.4,454.7c-0.2-0.1-0.2-0.2-0.3-0.5c0.1-0.3,0.2-0.3,0.3-0.7l-0.1-0.3l-0.2-0.2c-0.2,0-0.3-0.2-0.6-0.2
			c-0.1-0.3-0.2-0.6-0.2-0.9c0.2,0.1,0.2,0.2,0.5,0.3c0.2,0,0.4-0.1,0.6-0.2c0.2-0.2,0-0.6,0.1-1l0.3,0.1l1,2.8
			c0,0.2-0.1,0.4-0.2,0.5C274.4,454.5,273.8,454.6,273.4,454.7L273.4,454.7z"/>
		<path class="st5" d="M269.9,464.6v-0.3l0.3-0.1l0.2-0.3l-0.1-0.3c-0.1-0.2-0.2-0.2-0.5-0.2l-0.2-0.2V463l0.3-0.2h2.1v0.5
			c0,0.1,0.1,0.4,0.2,0.5l0.3,0.2c0.1-0.1,0.4-0.1,0.5-0.2l0.2,0.1c0.1,0.2-0.1,0.4-0.2,0.6C272.2,464.7,271,464.4,269.9,464.6
			L269.9,464.6z"/>
		<path class="st5" d="M263.6,464.6c-0.2,0-0.5,0-0.7,0v-0.3l0.3-0.1l0.2-0.4l-0.1-0.3c-0.2-0.1-0.5-0.1-0.6-0.3l0.1-0.3l3.2-0.1
			l0.3,0.5c-0.2,0-0.3,0.1-0.6,0.3l-0.1,0.3c0.1,0.2,0.3,0.2,0.5,0.4v0.1C265.4,464.7,264.5,464.5,263.6,464.6L263.6,464.6z"/>
		<path class="st5" d="M257.3,464.6c-0.3-0.1-0.6,0-1,0l-0.2-0.3c-0.2-0.3,0-0.6-0.1-1c0.1-0.1,0.1-0.3,0.3-0.5l3.2,0.1l0.1,0.3
			c-0.2,0.2-0.4,0.1-0.6,0.2l-0.2,0.3c0.1,0.2,0.2,0.2,0.4,0.5h0.3l0.1,0.2l-0.2,0.2C258.6,464.6,258,464.5,257.3,464.6L257.3,464.6
			z"/>
		<path class="st5" d="M265.8,457.6c-0.2,0-0.4-0.2-0.4-0.4l0.4-0.2c0.2,0,0.2-0.2,0.2-0.5v-0.2c-0.2-0.2-0.5-0.2-0.7-0.5
			c0.1-0.2,0.1-0.3,0.3-0.5l3.5,0.1l-0.1,0.3l-0.2,0.2c-0.2,0.2-0.2,0.2-0.4,0.5c0,0.1,0.1,0.4,0.2,0.5c0.2,0.2,0.5,0,0.8,0.1
			c0,0.2-0.2,0.3-0.4,0.4L265.8,457.6L265.8,457.6z"/>
		<path class="st5" d="M258.5,457.6c-0.3-0.1-0.8,0-1.2-0.1l-0.4-0.4c0.1-0.1,0.4-0.1,0.6-0.2l0.2-0.3l-0.2-0.4
			c-0.2,0-0.3-0.1-0.6-0.3l0.2-0.3c1.2-0.3,2.2,0,3.5-0.1c0.1,0.1,0.3,0.1,0.4,0.2v0.3l-0.3,0.2c-0.1,0.1-0.1,0.4-0.1,0.6
			c0.1,0.2,0.2,0.2,0.3,0.4v0.2l-0.2,0.2C260.1,457.6,259.3,457.6,258.5,457.6L258.5,457.6z"/>
		<path class="st5" d="M251.2,457.6c-0.6-0.1-1.3,0-2-0.1l-0.3-0.4l0.2-0.2c0.1-0.2,0-0.3,0.1-0.6c-0.1-0.2-0.2-0.2-0.5-0.4
			c-0.1,0-0.3,0-0.4-0.2l0.2-0.1c1-0.3,2.4-0.1,3.6-0.2l0.5,0.3c0,0.2-0.3,0.2-0.4,0.3s-0.3,0.2-0.3,0.5l0.2,0.3
			c0.1,0.1,0.4,0.1,0.6,0.2l-0.1,0.2C252.2,457.6,251.7,457.4,251.2,457.6L251.2,457.6z"/>
		<path class="st5" d="M262.3,447.5c-0.2,0-0.4,0-0.4-0.3l0.2-0.2c0.2-0.2,0.2-0.2,0.3-0.6l-0.2-0.3c-0.1-0.1-0.2-0.2-0.4-0.3v-0.3
			c1.1-0.3,2.5,0,3.7-0.1c0.2,0,0.4,0.2,0.4,0.6c-0.2,0-0.5,0-0.7,0.2l-0.1,0.2l-0.1,0.1c0,0.2,0.1,0.4,0.2,0.6
			c0.1,0.1,0.3,0.1,0.6,0.2v0.2C264.6,447.7,263.5,447.5,262.3,447.5L262.3,447.5z"/>
		<path class="st5" d="M254.1,447.5c-0.2-0.1-0.6,0.2-0.7-0.2c0-0.2,0.3-0.1,0.4-0.3l0.2-0.3c0-0.2-0.1-0.4-0.2-0.6
			c-0.1-0.1-0.3-0.1-0.5-0.2l0.1-0.2c0.1-0.1,0.3-0.1,0.5-0.2h3.1c0.2,0,0.6,0.2,0.4,0.5c-0.2,0.1-0.2,0.1-0.5,0.3l-0.1,0.2l0.2,0.3
			c0.1,0.1,0.2,0.2,0.4,0.5l-0.2,0.2H254.1L254.1,447.5z"/>
		<path class="st5" d="M246.1,447.5c-0.2,0-0.5,0-0.7,0l-0.1-0.4l0.3-0.2v-0.2c0-0.2,0-0.4-0.2-0.5s-0.2-0.2-0.5-0.3l-0.1-0.2
			l0.2-0.1c1.2-0.1,2.3,0,3.6-0.1l0.3,0.2c0,0.3-0.2,0.3-0.5,0.3c-0.2,0.1-0.2,0.3-0.2,0.6l0.1,0.1c0,0.3,0.4,0.3,0.5,0.6l-0.1,0.2
			L246.1,447.5L246.1,447.5z"/>
		<path class="st5" d="M260.5,434.5l-0.2-0.3l0.1-0.1c0.2,0,0.3-0.2,0.5-0.4v-0.2c-0.1-0.2-0.2-0.3-0.3-0.5l-0.4-0.1l0.1-0.2
			c0.1-0.1,0.3-0.1,0.4-0.2h3.3l0.2,0.2l-0.2,0.2h-0.3l-0.3,0.2l-0.2,0.4c0.1,0.2,0.1,0.4,0.2,0.5c0.1,0.2,0.6,0.1,0.6,0.3l-0.1,0.1
			l-0.3,0.2h-3.1V434.5z"/>
		<path class="st5" d="M252.1,434.5c-0.2,0-0.4,0-0.4-0.3c0.2-0.1,0.3-0.1,0.5-0.2l0.2-0.2c0-0.2-0.1-0.2-0.2-0.5
			c-0.2-0.1-0.2-0.2-0.5-0.3l0.1-0.3c1.2-0.3,2.4-0.1,3.6-0.1l0.3,0.2c0,0.2-0.2,0.2-0.4,0.4l-0.1,0.4c0,0.2,0.1,0.4,0.1,0.5
			l0.3,0.2l-0.1,0.2C254.5,434.5,253.2,434.5,252.1,434.5L252.1,434.5z"/>
		<path class="st5" d="M245.5,434.6c-0.6-0.1-1.2,0-1.8-0.1l-0.2-0.2c0-0.3,0.2-0.2,0.4-0.5c0.1-0.2,0-0.3,0.1-0.6
			c-0.2-0.1-0.2-0.3-0.5-0.4v-0.4h3.7l0.2,0.4c-0.3,0-0.3,0.2-0.6,0.2l-0.2,0.4l0.2,0.3c0.1,0.2,0.2,0.2,0.4,0.3v0.2l-0.2,0.2
			c-0.4,0.1-0.8,0-1.4,0L245.5,434.6L245.5,434.6z"/>
		<path class="st5" d="M260.1,422l-0.2-0.3c0.2-0.1,0.5-0.2,0.6-0.5c0-0.2-0.1-0.4-0.2-0.6c0-0.1-0.3,0-0.4-0.2v-0.2
			c0-0.2,0.2-0.2,0.5-0.2h3.1l0.3,0.2l-0.2,0.3h-0.3c-0.2,0.2-0.2,0.2-0.4,0.6c0,0.2,0.2,0.2,0.2,0.5c0.2,0,0.3,0.2,0.6,0.2l0.1,0.2
			l-0.2,0.1C262.5,422,261.3,422,260.1,422L260.1,422z"/>
		<path class="st5" d="M252.9,422c-0.3-0.2-0.8,0-1.2-0.1l-0.2-0.3l0.2-0.1c0.1,0,0.3-0.2,0.5-0.4v-0.2c-0.1-0.2-0.2-0.3-0.4-0.5
			l-0.3-0.2l0.1-0.2c1-0.3,2.5-0.2,3.7-0.2l0.2,0.2v0.2c-0.1,0.2-0.2,0.2-0.4,0.4l-0.1,0.1c0,0.2,0.1,0.4,0.1,0.6
			c0.1,0,0.3,0.1,0.3,0.4C254.7,422.1,253.7,421.9,252.9,422L252.9,422z"/>
		<path class="st5" d="M243.8,422l-0.4-0.1l-0.1-0.1c-0.1-0.3,0.2-0.4,0.3-0.7c0-0.3-0.4-0.6-0.2-1c0.9-0.3,2.1,0,3.1-0.1l0.3,0.4
			h-0.3c-0.1,0.2-0.2,0.2-0.3,0.6l0.1,0.3c0.2,0.2,0.2,0.3,0.5,0.4l-0.1,0.2C245.7,422.1,244.8,421.9,243.8,422L243.8,422z"/>
		<path class="st5" d="M261.9,408.9c-0.2-0.2-0.6,0.1-0.7-0.2v-0.2c0.2,0,0.2-0.2,0.5-0.3c0.2-0.2,0-0.5,0-0.7
			c-0.1-0.2-0.3-0.2-0.6-0.2l0.2-0.4c1.2,0,2.5-0.2,3.7,0.1l0.1,0.2c-0.2,0.2-0.4,0.2-0.7,0.2l-0.2,0.2c-0.1,0.2-0.1,0.5,0,0.7
			c0.2,0.1,0.3,0.2,0.6,0.3v0.2l-0.1,0.1L261.9,408.9L261.9,408.9z"/>
		<path class="st5" d="M252.9,408.9l-0.2-0.2c0-0.2,0.3-0.1,0.4-0.3l0.2-0.3c-0.1-0.1-0.1-0.3-0.2-0.5s-0.4-0.1-0.5-0.3l0.1-0.2
			l0.1-0.2c1.2-0.1,2.4-0.1,3.6,0l0.3,0.2c0,0.3-0.3,0.2-0.4,0.4l-0.1,0.3c0.1,0.1,0.1,0.4,0.2,0.5l0.2,0.3l-0.2,0.1L252.9,408.9
			L252.9,408.9z"/>
		<path class="st5" d="M246.1,408.9c-0.6-0.2-1,0-1.6-0.1l-0.1-0.2l0.4-0.2l0.1-0.4c-0.1-0.2-0.1-0.4-0.3-0.6l0.1-0.3l0.1-0.1
			l3.3,0.1l0.1,0.3H248c-0.2,0.2-0.4,0.2-0.5,0.4c0,0.2,0.1,0.3,0.1,0.6c0.2,0.1,0.3,0.2,0.6,0.4
			C247.5,408.9,246.8,408.7,246.1,408.9L246.1,408.9z"/>
		<path class="st5" d="M268.3,391.5l-0.1-0.1c0.2-0.1,0.4-0.1,0.6-0.3l0.1-0.1c0-0.2-0.1-0.3-0.1-0.6c-0.1-0.1-0.3-0.1-0.6-0.2
			l-0.1-0.2l0.2-0.1l2.9-0.1l0.3,0.2c0.1,0.1,0.2,0.3,0.2,0.6l-0.1,0.2l-0.4-0.1l-0.3,0.1l-0.2,0.1c-0.1,0.2,0,0.3-0.1,0.6l-0.1,0.1
			h-2.2V391.5z"/>
		<path class="st5" d="M262.1,391.6c-0.2-0.1-0.5,0-0.7-0.1l-0.1-0.1l0.3-0.1l0.2-0.4c-0.1-0.1-0.1-0.4-0.2-0.5
			c-0.2,0-0.2-0.2-0.5-0.2V390c1-0.3,2.1,0,3.1-0.2l0.3,0.4c-0.3,0-0.3,0.1-0.6,0.3c0,0.2,0,0.2,0.1,0.5l0.4,0.3l-0.1,0.1
			L262.1,391.6L262.1,391.6z"/>
		<path class="st5" d="M254.6,391.6l-0.1-0.1l-0.2-0.1c-0.1-0.3-0.2-0.8,0-1.2l0.2-0.2l0.3-0.2l2.9,0.2l0.1,0.2
			c-0.1,0.2-0.3,0.1-0.5,0.1c-0.1,0.1-0.3,0.2-0.4,0.5l0.2,0.3l0.2,0.2c0.1,0,0.2,0,0.5,0.2l-0.2,0.1H254.6L254.6,391.6z"/>
		<path class="st5" d="M264.1,398.8l-0.3-0.2c0.1-0.2,0.4-0.1,0.5-0.2l0.2-0.3c0-0.2,0-0.5-0.2-0.5c-0.1-0.1-0.3-0.1-0.5-0.3
			l0.1-0.2c1.2-0.3,2.8-0.2,4,0v0.4l-0.4,0.1c-0.2,0.1-0.2,0.4-0.2,0.7c0,0.2,0.4,0.2,0.4,0.5C266.6,399,265.3,398.8,264.1,398.8
			L264.1,398.8z"/>
		<path class="st5" d="M256.2,398.8c-0.2-0.1-0.6,0-0.9-0.2c0.1-0.2,0.4-0.1,0.6-0.4l0.1-0.2c0-0.2-0.1-0.5-0.2-0.5
			c-0.1-0.1-0.2-0.2-0.4-0.3V397c1-0.3,2.4,0,3.6-0.2l0.5,0.3c-0.2,0.2-0.6,0.2-0.6,0.5s0,0.6,0.2,0.7c0.1,0.1,0.4,0.2,0.2,0.5
			L256.2,398.8L256.2,398.8z"/>
		<path class="st5" d="M247.1,398.8l-0.2-0.2c0-0.2,0.2-0.2,0.4-0.2c0.1-0.2,0.2-0.2,0.3-0.5c0-0.2,0-0.4-0.2-0.6
			c0-0.2,0.1-0.4,0.2-0.5l2.9-0.1l0.4,0.3c0,0.2-0.2,0.2-0.4,0.2l-0.2,0.4c0,0.2,0,0.4,0.2,0.5c0.1,0.2,0.2,0.1,0.4,0.3l-0.2,0.2
			h-3.6V398.8z"/>
		<path class="st4" d="M273.2,442.8c-1.8-10.5-1.6-21.4-1-32.2l0.2-0.1h0.1c1.2,0.6,1.4,2.3,2,3.7c1.6,6.8,2,13.8,1.4,20.8
			c-0.3,2.6-0.8,5.3-2,7.2c-0.1,0.2-0.2,0.5-0.5,0.6H273.2L273.2,442.8z"/>
		<path class="st6" d="M404.8,466.2c-6.2,0.4-13.3-0.6-16.5-6.2l-1.2-2c1.7,0,4.4-1,5.4,0.9l2.6,2.4l1.4-0.6c-0.1-1.2-1.5-1.7-2-2.7
			l5.6,0.6c0.8,1.1,1.7,2.9,3.8,2.6c0.9-1.2-0.9-2-1.5-3c1.1-0.4,4.4-1,5.4,0.4l2.6,2.4l1.7-0.4c-0.2-1.3-1.5-1.5-1.9-2.6
			c0.2-0.5,1.1-0.5,1.2-1.2l-0.2-0.8c-0.8-0.7-2.7,0.3-3-1.2l-1.1-4l1.5-0.9l-0.2-1.2l-2-0.2l-1.1-5.2l2-0.4l0.2-1.2
			c-0.5-0.6-1.7-0.3-2.4-0.4l-0.8-5.5c0.6-0.7,1.5,0.2,2.1-0.7c0.2-0.5,0.2-1.2-0.2-1.5l-2-0.2l-0.4-6.7c1.1-0.3,3.3-0.1,2.7-2
			c-0.5-0.5-1.6,0-2.4-0.4l0.3-5.8c0.7,0.1,1.8-0.2,2.2-0.9l-0.5-1.1h-1.7c-0.9-1.5,0.2-3.7,0-5.5c0.6-0.8,2.1,0.4,2.6-1
			c0-1.5-1.3-1.1-2-1.5l0.7-5c1-0.7,2.1,0.2,3-0.9l0.1-1.2c-0.4-0.8-2,0.4-2.4-0.8l2-4.4l2.8-0.3l0.3-1.6c-0.4-0.5-1.3,0-2-0.2
			l0.8-2.3c-0.2-0.7-1.1-0.9-1.9-0.5l-2.3,2.9l-4.5-0.4l0.9-1.5l-0.2-0.8c-0.3-0.5-1.6-0.5-1.8,0.1l-2.7,2.7h-3.9l0.6-2.8
			c-0.3-0.5-1.4-0.5-2,0.2l-2,2.6h-4c0.4-2.8,2.8-4.8,5.1-6.4c7-2.4,15.3-1.5,23-0.5c0.3,0.6,1.3,1.3,2.5,1.6l-0.3,0.3
			c7.1,7.7,10.1,20.2,10.8,31.6c0,14.3,0.9,31.8-9.1,42.6c-3.4,2.8-8.8,2.3-13.4,2.3h-0.3V466.2z"/>
		<path class="st6" d="M385.9,455.7l-1.7-4.4c1.2-1,3,0,4.7-0.4l1.6,4.4C389.2,456.2,387.4,455.3,385.9,455.7L385.9,455.7z"/>
		<path class="st6" d="M393.3,455.7l-2.1-4.5c1.8-0.5,3.5,0,5.3-0.3l1.8,4.5c-1.4,0.6-2.9,0-4.5,0.3H393.3L393.3,455.7z"/>
		<path class="st6" d="M400.9,455.7l-1.7-4.4c1.4-1,3.4,0,5.2-0.4c0.9,1.2,1,2.9,1.9,4.5c-1.3,0.6-3.4,0-5.1,0.3L400.9,455.7
			L400.9,455.7z"/>
		<path class="st7" d="M416.1,453.7l-0.8-0.5c1.6-0.3,2.8-1.8,3.6-3.2c4.2-15.2,4.2-32.1-1.8-46.8c-0.5-1.1-1.9-2.3-3.4-1.9l0.1-0.6
			c0.6-0.7,2.3-0.7,3.2-0.2c7,11.7,6.4,27.7,5.1,41.1c-1.1,4-0.9,10.8-5.6,12h-0.4V453.7z"/>
		<polygon class="st6" points="390.8,448.9 389.9,443.7 395.2,443.7 396,448.7 		"/>
		<path class="st6" d="M383.4,448.7l-1.1-4.7c1.6-0.6,3.2,0,4.9-0.3l1.1,4.6c-1.2,0.9-3,0.2-4.5,0.4H383.4L383.4,448.7z"/>
		<path class="st6" d="M398.5,448.7l-1.1-4.7c1.8-0.6,3.5,0,5.3-0.3l1,5H398.5L398.5,448.7z"/>
		<path class="st6" d="M381.9,441.6l-0.5-5.7h4.8c0.8,1.4,0.4,3.5,0.8,5.3C385.7,442,383.7,441.3,381.9,441.6L381.9,441.6z"/>
		<path class="st6" d="M389.2,441.6l-0.5-5.5c1.8-0.5,3.6,0,5.5-0.2l0.6,5.4L389.2,441.6L389.2,441.6z"/>
		<polygon class="st6" points="397.2,441.6 396.5,436.1 401.9,435.9 402.5,441.6 		"/>
		<path class="st7" d="M413.6,441.6l-1.2-23.2l0.4-6.4c4.1,5.6,3.3,14.6,3.3,21.7L413.6,441.6L413.6,441.6z"/>
		<path class="st6" d="M381,433.6l-0.1-6.7l5-0.2l0.4,6.4C384.9,434.1,382.9,433.2,381,433.6L381,433.6z"/>
		<path class="st6" d="M388.5,433.6l-0.2-6.4c1.5-1,3.5,0,5.5-0.4l0.2,6.4c-1.5,0.9-3.5,0-5.2,0.4H388.5L388.5,433.6z"/>
		<path class="st6" d="M396.3,433.6l-0.3-6.4c1.6-0.8,3.8-0.2,5.6-0.4l0.2,6.7L396.3,433.6L396.3,433.6z"/>
		<path class="st6" d="M380.9,424.8l0.1-5.5c1.5-0.5,3.4,0,5.1-0.2v5.5L380.9,424.8L380.9,424.8z"/>
		<path class="st6" d="M388.3,424.7v-5.3c1.5-0.7,3.5-0.4,5.3-0.5c0.9,1.6,0,3.7,0.2,5.6L388.3,424.7L388.3,424.7z"/>
		<path class="st6" d="M396,424.7l0.2-5.3c1.5-0.9,3.6,0,5.5-0.4c0.2,2-0.7,4.1,0.3,5c-1.5,1.3-3.4,0.4-5.4,0.7H396L396,424.7z"/>
		<path class="st6" d="M383,416.9l-1.7-0.2l0.3-5.3c1.5-0.5,3.2,0,4.9-0.2l-0.4,5.5L383,416.9L383,416.9z"/>
		<polygon class="st6" points="388.5,416.9 389.2,411.2 394.5,411.2 394,416.8 		"/>
		<path class="st6" d="M396.3,416.8l0.4-5.2c1.5-0.8,3.8-0.2,5.6-0.4l-0.3,5.2c-1.5,0.9-3.5,0.2-5.3,0.4H396.3L396.3,416.8z"/>
		<polygon class="st6" points="382.2,409.1 383.2,403.8 387.9,403.6 386.8,409.1 		"/>
		<polygon class="st6" points="392.2,409.1 389.4,408.9 390.3,403.8 395.8,403.6 394.8,408.9 		"/>
		<path class="st6" d="M397.5,409.1c-0.6-1.3,0.4-3.4,0.5-5.1c1.5-0.8,3.5-0.1,5.3-0.4l-0.7,5.3L397.5,409.1L397.5,409.1z"/>
		<path class="st6" d="M383.8,401.6l1.7-4.9h4.4l-1.2,4.5c-1.2,0.8-2.9,0.1-4.5,0.4H383.8L383.8,401.6z"/>
		<polygon class="st6" points="398.8,401.6 400.5,396.7 405.6,396.7 404.2,401.5 		"/>
		<path class="st6" d="M391,401.5l1.3-4.4c1.5-1,3.5,0,5.5-0.4l-1.6,4.7H391V401.5z"/>
		<polygon class="st5" points="268.5,657.6 268.5,634.5 259.9,634.5 259.9,629.8 283,629.8 283,634.5 274.4,634.5 274.4,657.6 		"/>
		<path class="st5" d="M286.8,657.6v-27.8h12.3c3.1,0,5.4,0.3,6.8,0.8s2.5,1.4,3.4,2.7c0.8,1.3,1.3,2.7,1.3,4.4
			c0,2.1-0.6,3.8-1.9,5.2s-3.2,2.2-5.7,2.6c1.3,0.7,2.3,1.5,3.1,2.3c0.8,0.8,1.9,2.4,3.3,4.5l3.5,5.4h-7l-4.2-6.1
			c-1.5-2.2-2.5-3.5-3.1-4.1s-1.1-0.9-1.8-1.2c-0.6-0.2-1.6-0.3-3-0.3h-1.2v11.6L286.8,657.6L286.8,657.6z M292.7,641.6h4.3
			c2.8,0,4.6-0.1,5.3-0.3c0.7-0.2,1.2-0.6,1.6-1.2c0.4-0.6,0.6-1.3,0.6-2.1c0-0.9-0.3-1.7-0.8-2.3s-1.3-0.9-2.2-1.1
			c-0.5-0.1-1.9-0.1-4.3-0.1h-4.6v7.1H292.7z"/>
		<path class="st5" d="M342.2,657.6h-6.4l-2.5-6.3h-11.6l-2.4,6.3h-6.2l11.3-27.8h6.2L342.2,657.6L342.2,657.6z M331.4,646.6
			l-4-10.3l-3.9,10.3H331.4L331.4,646.6z"/>
		<polygon class="st5" points="345.3,657.6 345.3,629.8 365.2,629.8 365.2,634.5 351.2,634.5 351.2,641.1 363.3,641.1 363.3,645.8 
			351.2,645.8 351.2,657.6 		"/>
		<path class="st5" d="M368.9,643.9c0-2.8,0.4-5.2,1.3-7.1c0.7-1.4,1.6-2.7,2.7-3.8c1.1-1.1,2.4-2,3.7-2.5c1.8-0.7,3.9-1.1,6.3-1.1
			c4.3,0,7.7,1.3,10.3,3.8s3.9,6.1,3.9,10.6s-1.3,8-3.8,10.5s-6,3.8-10.2,3.8c-4.3,0-7.7-1.3-10.3-3.8
			C370.2,651.8,368.9,648.3,368.9,643.9L368.9,643.9z M374.9,643.7c0,3.1,0.8,5.5,2.3,7.2c1.5,1.6,3.4,2.4,5.8,2.4
			c2.3,0,4.2-0.8,5.7-2.4c1.5-1.6,2.2-4,2.2-7.3c0-3.2-0.7-5.6-2.2-7.1c-1.5-1.6-3.4-2.3-5.8-2.3c-2.4,0-4.4,0.8-5.8,2.4
			C375.7,638.1,374.9,640.5,374.9,643.7L374.9,643.7z"/>
		<polygon class="st5" points="401.4,657.6 401.4,629.8 407.3,629.8 407.3,657.6 		"/>
	</g>
</g>
</svg>
