<?xml version="1.0" encoding="utf-8"?>
<!-- Generator: Adobe Illustrator 19.2.0, SVG Export Plug-In . SVG Version: 6.00 Build 0)  -->
<svg version="1.1" id="Livello_1" xmlns="http://www.w3.org/2000/svg" xmlns:xlink="http://www.w3.org/1999/xlink" x="0px" y="0px"
	 viewBox="0 0 511.5 723.3" style="enable-background:new 0 0 511.5 723.3;" xml:space="preserve">
<style type="text/css">
	.st0{fill:#005EA7;stroke:#005EA7;stroke-width:0.6516;stroke-miterlimit:2.6131;}
	.st1{fill:#005EA7;stroke:#FFFFFF;stroke-width:4.3443;stroke-miterlimit:2.6131;}
	.st2{fill:#FFFFFF;}
</style>
<g>
	<g>
		<polygon class="st0" points="100.2,1.7 509.8,1.7 509.8,721.7 100.2,721.7 		"/>
		<path class="st1" d="M131.7,10.3H479c13.3,0,23.8,11.2,23.8,24v655.5c0,13-10.9,24-23.8,24H131.7c-12.7,0-23.8-10.6-23.8-24V34.3
			C107.9,21.1,118.6,10.3,131.7,10.3L131.7,10.3z"/>
		<polygon class="st2" points="124,236.8 485.9,236.8 485.9,256.7 437.8,256.7 437.8,281.8 419.5,281.8 412.2,256.7 197.5,256.7 
			190.1,281.8 171.8,281.8 171.8,256.7 124,256.7 		"/>
		<path class="st2" d="M348.2,44.4h-35l6.6,181.8h63.6L348.2,44.4L348.2,44.4z M321.9,281.8l14.5,398h134.8l-77.1-398L321.9,281.8
			L321.9,281.8z M261.9,44.4h34.6L290,226.2h-63.3L261.9,44.4L261.9,44.4z M288,281.8l-14.3,398H138.8l77.1-398L288,281.8L288,281.8
			z"/>
	</g>
</g>
</svg>
