<?xml version="1.0" encoding="utf-8"?>
<!-- Generator: Adobe Illustrator 19.2.0, SVG Export Plug-In . SVG Version: 6.00 Build 0)  -->
<svg version="1.1" id="Livello_1" xmlns="http://www.w3.org/2000/svg" xmlns:xlink="http://www.w3.org/1999/xlink" x="0px" y="0px"
	 viewBox="0 0 527.9 722" style="enable-background:new 0 0 527.9 722;" xml:space="preserve">
<style type="text/css">
	.st0{opacity:1.000000e-002;fill:#FFFFFF;enable-background:new    ;}
	.st1{fill:#005EA7;stroke:#005EA7;stroke-width:0.6187;stroke-miterlimit:2.6131;}
	.st2{fill:#005EA7;stroke:#FFFFFF;stroke-width:4.1249;stroke-miterlimit:2.6131;}
	.st3{fill:#FFFFFF;stroke:#FFFFFF;stroke-width:0.6187;stroke-miterlimit:2.6131;}
	.st4{fill:#FFFFFF;stroke:#1A171B;stroke-width:0.6187;stroke-miterlimit:2.6131;}
	.st5{fill:#E1001A;}
	.st6{fill:#FFFFFF;}
	.st7{fill:#008E43;}
	.st8{fill:#FFFFFF;stroke:#1A171B;stroke-width:0.2062;stroke-miterlimit:2.6131;}
	.st9{fill:#1A171B;}
	.st10{fill:#005EA7;}
	.st11{fill:#E1001A;stroke:#E1001A;stroke-width:0.6187;stroke-miterlimit:2.6131;}
</style>
<rect x="-166" y="-118.9" class="st0" width="1" height="1"/>
<rect x="793" y="840.1" class="st0" width="1" height="1"/>
<g>
	<g>
		<polygon class="st1" points="101.3,1.1 526.7,1.1 526.7,721.1 101.3,721.1 		"/>
		<path class="st2" d="M134.1,10h360.7c13.8,0,24.7,11.6,24.7,24.7v653.6c0,13.4-11.3,24.8-24.7,24.8H134.1
			c-13.2,0-24.7-10.9-24.7-24.8V34.7C109.3,21.1,120.4,10,134.1,10L134.1,10z"/>
		<polygon class="st3" points="142.5,563.1 484.9,563.1 484.9,668.3 142.5,668.3 		"/>
		<polygon class="st3" points="142.5,125.7 484.9,125.7 484.9,230.9 142.5,230.9 		"/>
		<polygon class="st3" points="142.5,271.5 484.9,271.5 484.9,376.7 142.5,376.7 		"/>
		<polygon class="st3" points="142.5,417.3 484.9,417.3 484.9,522.5 142.5,522.5 		"/>
		<path class="st4" d="M215.8,136.7c13.5,2.4,22.2,7.3,30.5,18.4c4.7,7.5,6.9,14.5,7.2,23.4c-0.6,17.6-9.7,31.1-25.6,38.5
			c-17.9,7.4-36,2.3-48.7-11.9c-8-10.5-11-22-8.7-35.1c2.7-10.1,6.6-16.8,14.4-23.8c8.3-6.2,16.1-9.3,26.6-9.6L215.8,136.7
			L215.8,136.7z"/>
		<path class="st5" d="M211.8,140c20.9,0,38,17.1,38,38s-17.1,38-38,38s-38-17.1-38-38S190.9,140,211.8,140L211.8,140z"/>
		<path class="st6" d="M211.8,149.7c15.6,0,28.3,12.7,28.3,28.3c0,15.6-12.7,28.3-28.3,28.3c-15.6,0-28.3-12.7-28.3-28.3
			C183.5,162.4,196.2,149.7,211.8,149.7L211.8,149.7z"/>
		<path class="st4" d="M215.8,574.1c13.5,2.4,22.2,7.3,30.5,18.4c4.7,7.5,6.9,14.5,7.2,23.4c-0.6,17.6-9.7,31.1-25.6,38.5
			c-17.9,7.4-36,2.3-48.7-11.9c-8-10.5-11-22-8.7-35.1c2.7-10.1,6.6-16.8,14.4-23.8c8.3-6.2,16.1-9.3,26.6-9.6L215.8,574.1
			L215.8,574.1z"/>
		<path class="st5" d="M211.8,577.5c20.9,0,38,17.1,38,38s-17.1,38-38,38s-38-17.1-38-38C173.8,594.5,190.9,577.5,211.8,577.5
			L211.8,577.5z"/>
		<path class="st6" d="M211.8,587.2c15.6,0,28.3,12.7,28.3,28.3s-12.7,28.3-28.3,28.3c-15.6,0-28.3-12.7-28.3-28.3
			S196.2,587.2,211.8,587.2L211.8,587.2z"/>
		<path class="st4" d="M215.8,428.1c13.5,2.4,22.2,7.3,30.5,18.4c4.7,7.5,6.9,14.5,7.2,23.4c-0.6,17.6-9.7,31.1-25.6,38.5
			c-17.9,7.4-36,2.3-48.7-11.9c-8-10.5-11-22-8.7-35.1c2.7-10.1,6.6-16.8,14.4-23.8c8.3-6.2,16.1-9.3,26.6-9.6L215.8,428.1
			L215.8,428.1z"/>
		<path class="st5" d="M211.8,431.4c20.9,0,38,17.1,38,38s-17.1,38-38,38s-38-17.1-38-38C173.8,448.5,190.9,431.4,211.8,431.4
			L211.8,431.4z"/>
		<path class="st6" d="M211.8,441.2c15.6,0,28.3,12.7,28.3,28.3s-12.7,28.3-28.3,28.3c-15.6,0-28.3-12.7-28.3-28.3
			S196.2,441.2,211.8,441.2L211.8,441.2z"/>
		<path class="st4" d="M215.8,282.5c13.5,2.4,22.2,7.3,30.5,18.4c4.7,7.5,6.9,14.5,7.2,23.4c-0.6,17.6-9.7,31.1-25.6,38.5
			c-17.9,7.4-36,2.3-48.7-11.9c-8-10.5-11-22-8.7-35.1c2.7-10.1,6.6-16.8,14.4-23.8c8.3-6.2,16.1-9.3,26.6-9.6L215.8,282.5
			L215.8,282.5z"/>
		<path class="st5" d="M211.8,285.8c20.9,0,38,17.1,38,38s-17.1,38-38,38s-38-17.1-38-38S190.9,285.8,211.8,285.8L211.8,285.8z"/>
		<path class="st6" d="M211.8,295.6c15.6,0,28.3,12.7,28.3,28.3c0,15.6-12.7,28.3-28.3,28.3c-15.6,0-28.3-12.7-28.3-28.3
			S196.2,295.6,211.8,295.6L211.8,295.6z"/>
		<polygon class="st6" points="459.3,52 435.9,52 435.9,94.5 459.3,94.5 		"/>
		<polygon class="st5" points="482.7,52 459.3,52 459.3,94.5 482.7,94.5 		"/>
		<polygon class="st7" points="435.9,52 412.5,52 412.5,94.5 435.9,94.5 		"/>
		<polygon class="st6" points="231.4,84.8 231.4,43.4 239.8,43.4 239.8,84.8 		"/>
		<polygon class="st6" points="257.1,84.8 257.1,50.4 244.8,50.4 244.8,43.4 277.7,43.4 277.7,50.4 265.5,50.4 265.5,84.8 		"/>
		<path class="st6" d="M316.2,84.8h-9.1l-3.6-9.4h-16.6l-3.4,9.4h-8.9l16.1-41.4h8.8L316.2,84.8L316.2,84.8z M300.8,68.4L295.1,53
			l-5.6,15.4H300.8L300.8,68.4z"/>
		<polygon class="st6" points="320.9,84.8 320.9,43.7 329.2,43.7 329.2,77.9 350,77.9 350,84.8 		"/>
		<polygon class="st6" points="355.8,84.8 355.8,43.4 364.1,43.4 364.1,84.8 		"/>
		<path class="st6" d="M409.5,84.8h-9.1l-3.6-9.4h-16.6l-3.4,9.4h-8.9L384,43.4h8.8L409.5,84.8L409.5,84.8z M394.1,68.4L388.4,53
			l-5.6,15.4H394.1L394.1,68.4z"/>
		<path class="st8" d="M179.8,84.8c19.8,0,35.9-9.7,35.9-21.5c0-11.9-16.1-21.5-35.9-21.5s-35.9,9.7-35.9,21.5
			C143.9,75.2,160,84.8,179.8,84.8L179.8,84.8z"/>
		<path class="st4" d="M183.2,80.3c9.7-0.9,32.9-7,26.9-21.3c-9.3-14.5-34.3-14.7-48.7-9.3c-11.2,4.9-18.8,14.3-6.7,23.6
			C163.5,79,172.8,80.6,183.2,80.3L183.2,80.3z"/>
		<path class="st9" d="M188.5,74.9v0.6h-16.9v-0.6h1.1c0.9,0,1.7-0.1,2.3-0.4c0.4-0.2,0.7-0.4,1-0.8c0.2-0.3,0.3-1,0.3-2.2V55.8
			c0-1.2-0.1-2-0.3-2.3c-0.2-0.3-0.5-0.6-1.1-0.8c-0.5-0.2-1.3-0.3-2.2-0.3h-1.1v-0.7h16.9v0.7h-1.1c-0.9,0-1.7,0.1-2.3,0.4
			c-0.4,0.2-0.7,0.4-1,0.8c-0.2,0.3-0.3,1-0.3,2.2v15.7c0,1.2,0.1,2,0.3,2.3c0.2,0.3,0.5,0.6,1.1,0.8c0.5,0.2,1.3,0.3,2.2,0.3H188.5
			L188.5,74.9z"/>
		<path class="st10" d="M347.9,505.4h48c6.4,0,11.7-5.3,11.7-11.7v-48c0-6.4-5.3-11.7-11.7-11.7h-48c-6.4,0-11.7,5.3-11.7,11.7v48
			C336.2,500.1,341.4,505.4,347.9,505.4L347.9,505.4z"/>
		<path class="st7" d="M349.3,651.6h48c6.4,0,11.7-5.3,11.7-11.7v-48c0-6.4-5.3-11.7-11.7-11.7h-48c-6.4,0-11.7,5.3-11.7,11.7v48
			C337.6,646.3,342.9,651.6,349.3,651.6L349.3,651.6z"/>
		<polygon class="st9" points="415.9,313 415.9,302.5 423.2,302.5 423.2,313 427.6,313 427.6,320.3 438.2,329.9 442.1,329.9 
			442.1,334.7 448.4,334.7 448.4,322.5 454.2,322.5 454.2,334.7 458.6,334.7 458.6,360.3 287.9,360.3 287.9,352.4 287.9,334.7 
			287.9,327.7 292.8,327.7 292.8,334.7 297.1,334.7 297.1,322.9 303.9,322.9 303.9,326 306.8,326 306.8,329.4 309.7,329.4 
			309.7,320.3 312.7,320.3 312.7,313 317.5,313 317.5,304.7 324.3,304.7 324.3,313 324.3,324.2 326.7,324.2 326.7,329.4 
			333.5,329.4 335.4,326 342.2,324.2 344.7,324.2 344.7,316.4 346.6,316.4 346.6,304.3 351,304.3 351,298.6 357.3,298.6 357.3,306 
			362.1,306.9 362.1,293.4 367.9,293.9 367.9,316.9 371.3,316.9 371.3,325.1 376.2,318.6 377.1,318.6 377.1,300.8 383.4,300.8 
			383.4,318.6 383.9,318.6 383.9,329.9 388.3,329.9 388.3,322.9 393.6,322.9 393.6,329.9 398,329.9 398,309.1 407.2,309.1 
			407.2,313 		"/>
		<polygon class="st9" points="415.9,166.3 415.9,155.9 423.2,155.9 423.2,166.3 427.6,166.3 427.6,173.7 438.2,183.2 442.1,183.2 
			442.1,188 448.4,188 448.4,175.9 454.2,175.9 454.2,188 458.6,188 458.6,213.6 287.9,213.6 287.9,205.8 287.9,188 287.9,181.1 
			292.8,181.1 292.8,188 297.1,188 297.1,176.3 303.9,176.3 303.9,179.3 306.8,179.3 306.8,182.8 309.7,182.8 309.7,173.7 
			312.7,173.7 312.7,166.3 317.5,166.3 317.5,158.1 324.3,158.1 324.3,166.3 324.3,177.6 326.7,177.6 326.7,182.8 333.5,182.8 
			335.4,179.3 342.2,177.6 344.7,177.6 344.7,169.8 346.6,169.8 346.6,157.6 351,157.6 351,152 357.3,152 357.3,159.4 362.1,160.2 
			362.1,146.8 367.9,147.2 367.9,170.2 371.3,170.2 371.3,178.5 376.2,172 377.1,172 377.1,154.2 383.4,154.2 383.4,172 383.9,172 
			383.9,183.2 388.3,183.2 388.3,176.3 393.6,176.3 393.6,183.2 398,183.2 398,162.4 407.2,162.4 407.2,166.3 		"/>
		<polygon class="st11" points="418.8,291.7 449.5,291.7 327.7,370.5 297.3,370.5 		"/>
		<path class="st9" d="M199.8,630.4H196v-21c-1.4,1.9-3,3.3-4.9,4.2v-5c1-0.5,2.1-1.4,3.2-2.7c1.2-1.3,2-2.9,2.4-4.6h3.1
			L199.8,630.4L199.8,630.4z"/>
		<path class="st9" d="M205.4,622.6l3.7-0.6c0.1,1.4,0.4,2.4,1,3.1c0.5,0.7,1.1,1.1,1.9,1.1s1.4-0.4,2-1.3c0.5-0.9,0.8-2,0.8-3.5
			c0-1.4-0.3-2.5-0.8-3.3s-1.1-1.2-1.9-1.2c-0.5,0-1.1,0.1-1.7,0.4l0.4-4.5c1,0,1.8-0.3,2.4-1c0.5-0.7,0.8-1.6,0.8-2.8
			c0-1-0.2-1.8-0.6-2.3c-0.4-0.6-0.9-0.9-1.6-0.9s-1.2,0.3-1.7,1s-0.7,1.6-0.8,2.9l-3.5-0.9c0.2-1.8,0.6-3.2,1.1-4.2
			s1.2-1.9,2.1-2.5s1.9-0.9,3-0.9c1.9,0,3.4,0.9,4.5,2.6c0.9,1.4,1.4,3,1.4,4.8c0,2.5-1,4.6-2.9,6.1c1.1,0.4,2,1.2,2.7,2.4
			s1,2.7,1,4.5c0,2.5-0.6,4.7-1.9,6.5s-2.9,2.7-4.7,2.7c-1.8,0-3.3-0.8-4.5-2.3C206.2,627.1,205.5,625.1,205.4,622.6L205.4,622.6z"
			/>
		<path class="st9" d="M227.3,601.2c1.9,0,3.4,1,4.5,3c1.3,2.4,1.9,6.3,1.9,11.8s-0.7,9.4-1.9,11.8c-1.1,2-2.6,3-4.5,3
			s-3.5-1.1-4.7-3.3s-1.8-6-1.8-11.6c0-5.5,0.7-9.4,1.9-11.8C223.9,602.2,225.4,601.2,227.3,601.2L227.3,601.2z M227.3,605.8
			c-0.5,0-0.9,0.2-1.2,0.6c-0.4,0.4-0.6,1.2-0.8,2.3c-0.3,1.4-0.4,3.9-0.4,7.3c0,3.4,0.1,5.7,0.4,7c0.2,1.3,0.5,2.1,0.9,2.5
			s0.8,0.6,1.2,0.6c0.5,0,0.9-0.2,1.2-0.6c0.4-0.4,0.6-1.2,0.8-2.3c0.3-1.4,0.4-3.8,0.4-7.2s-0.1-5.7-0.4-7
			c-0.2-1.3-0.5-2.1-0.9-2.6C228.2,606,227.8,605.8,227.3,605.8L227.3,605.8z"/>
		<path class="st9" d="M200.4,484.3h-3.8v-21c-1.4,1.9-3,3.3-4.9,4.2v-5c1-0.5,2.1-1.4,3.2-2.7c1.2-1.3,2-2.9,2.4-4.6h3.1
			L200.4,484.3L200.4,484.3z"/>
		<path class="st9" d="M214.3,484.3h-3.8v-21c-1.4,1.9-3,3.3-4.9,4.2v-5c1-0.5,2.1-1.4,3.2-2.7c1.2-1.3,2-2.9,2.4-4.6h3.1
			L214.3,484.3L214.3,484.3z"/>
		<path class="st9" d="M226.4,455.2c1.9,0,3.4,1,4.5,3c1.3,2.4,1.9,6.3,1.9,11.8s-0.7,9.4-1.9,11.8c-1.1,2-2.6,3-4.5,3
			s-3.5-1.1-4.7-3.3s-1.8-6-1.8-11.6c0-5.5,0.6-9.4,1.9-11.8C223,456.2,224.5,455.2,226.4,455.2L226.4,455.2z M226.4,459.8
			c-0.5,0-0.9,0.2-1.2,0.6c-0.4,0.4-0.6,1.2-0.8,2.3c-0.3,1.4-0.4,3.9-0.4,7.3c0,3.4,0.1,5.7,0.4,7c0.2,1.3,0.5,2.1,0.9,2.5
			s0.8,0.6,1.2,0.6c0.5,0,0.9-0.2,1.2-0.6c0.4-0.4,0.6-1.2,0.8-2.3c0.3-1.4,0.4-3.8,0.4-7.2s-0.1-5.7-0.4-7
			c-0.2-1.3-0.5-2.1-0.9-2.6C227.3,460,226.9,459.8,226.4,459.8L226.4,459.8z"/>
		<path class="st9" d="M196.3,332.2l4-0.6c0.1,1.1,0.4,1.9,0.8,2.4s1,0.8,1.6,0.8c0.9,0,1.6-0.5,2.2-1.6s1-3.2,1.2-6.6
			c-1,1.6-2.3,2.4-3.9,2.4c-1.7,0-3.2-0.9-4.4-2.6c-1.2-1.8-1.9-4.1-1.9-6.9c0-2.9,0.7-5.3,2-7.1c1.3-1.8,3-2.7,5-2.7
			c2.2,0,4,1.1,5.4,3.4s2.1,6,2.1,11.2c0,5.3-0.7,9.1-2.2,11.5c-1.5,2.3-3.4,3.5-5.7,3.5c-1.7,0-3.1-0.6-4.1-1.8
			C197.2,336.4,196.6,334.6,196.3,332.2L196.3,332.2z M205.6,320.1c0-1.8-0.3-3.2-0.9-4.2s-1.3-1.5-2.1-1.5c-0.8,0-1.4,0.4-1.9,1.2
			c-0.5,0.8-0.8,2.1-0.8,4s0.3,3.3,0.8,4.1c0.5,0.9,1.2,1.3,2.1,1.3c0.8,0,1.5-0.4,2-1.3C205.4,322.9,205.6,321.7,205.6,320.1
			L205.6,320.1z"/>
		<path class="st9" d="M220,309.8c2.1,0,3.7,1,4.9,3c1.4,2.4,2.1,6.3,2.1,11.8s-0.7,9.4-2.1,11.8c-1.2,2-2.8,3-4.9,3
			s-3.8-1.1-5.1-3.3c-1.3-2.2-1.9-6-1.9-11.6c0-5.5,0.7-9.4,2.1-11.8C216.3,310.8,217.9,309.8,220,309.8L220,309.8z M220,314.4
			c-0.5,0-0.9,0.2-1.3,0.6s-0.7,1.2-0.9,2.3c-0.3,1.4-0.4,3.9-0.4,7.3s0.1,5.7,0.4,7s0.6,2.1,1,2.5s0.8,0.6,1.3,0.6s1-0.2,1.3-0.6
			c0.4-0.4,0.7-1.2,0.9-2.3c0.3-1.4,0.4-3.8,0.4-7.2c0-3.4-0.1-5.7-0.4-7s-0.6-2.1-1-2.6C220.9,314.6,220.5,314.4,220,314.4
			L220,314.4z"/>
		<path class="st9" d="M196.9,185.6l4.1-0.6c0.1,1.3,0.5,2.2,1,3c0.6,0.7,1.2,1.1,2,1.1c0.9,0,1.6-0.5,2.2-1.4s0.9-2.4,0.9-4.3
			c0-1.8-0.3-3.1-0.9-4s-1.4-1.3-2.3-1.3c-1.2,0-2.3,0.7-3.2,2.1l-3.4-0.7l2.1-15.1h11v5.2h-7.8l-0.7,4.9c0.9-0.6,1.9-0.9,2.8-0.9
			c1.8,0,3.4,0.9,4.7,2.7c1.3,1.8,1.9,4.1,1.9,7c0,2.4-0.5,4.5-1.5,6.4c-1.4,2.6-3.4,3.8-5.9,3.8c-2,0-3.6-0.7-4.9-2.2
			C197.9,190,197.1,188.1,196.9,185.6L196.9,185.6z"/>
		<path class="st9" d="M220.6,164c2.1,0,3.7,1,4.9,3c1.4,2.4,2.1,6.3,2.1,11.8s-0.7,9.4-2.1,11.8c-1.2,2-2.8,3-4.9,3
			s-3.8-1.1-5.1-3.3c-1.3-2.2-1.9-6-1.9-11.6c0-5.5,0.7-9.4,2.1-11.8C216.9,165,218.5,164,220.6,164L220.6,164z M220.6,168.6
			c-0.5,0-0.9,0.2-1.3,0.6s-0.7,1.2-0.9,2.3c-0.3,1.4-0.4,3.9-0.4,7.3s0.1,5.7,0.4,7s0.6,2.1,1,2.5s0.8,0.6,1.3,0.6s1-0.2,1.3-0.6
			c0.4-0.4,0.7-1.2,0.9-2.3c0.3-1.4,0.4-3.8,0.4-7.2c0-3.4-0.1-5.7-0.4-7s-0.6-2.1-1-2.6C221.5,168.8,221.1,168.6,220.6,168.6
			L220.6,168.6z"/>
		<polygon class="st6" points="349.4,464.5 349.4,461.2 343.1,461.2 343.1,458.7 401.6,458.7 401.5,461.2 394.8,461.2 394.9,464.5 
			392.2,464.5 390.8,461.2 353.4,461.2 352.1,464.5 		"/>
		<path class="st6" d="M369.9,456.7H359l5.8-15.7h6L369.9,456.7L369.9,456.7z M356.2,464.4h13.3l-1.7,33.2h-23.7L356.2,464.4
			L356.2,464.4z"/>
		<path class="st6" d="M385.2,456.7h-10.9l-0.8-15.7h6L385.2,456.7L385.2,456.7z M374.7,464.4H388l12.1,33.2h-23.7L374.7,464.4
			L374.7,464.4z"/>
		<polygon class="st6" points="349.4,610.9 349.4,607.7 343.1,607.7 343.1,605.1 401.6,605.1 401.5,607.7 394.8,607.7 394.9,610.9 
			392.2,610.9 390.8,607.7 353.4,607.7 352.1,610.9 		"/>
		<path class="st6" d="M369.9,603.1H359l5.8-15.7h6L369.9,603.1L369.9,603.1z M356.2,610.8h13.3l-1.7,33.2h-23.7L356.2,610.8
			L356.2,610.8z"/>
		<path class="st6" d="M385.2,603.1h-10.9l-0.8-15.7h6L385.2,603.1L385.2,603.1z M374.7,610.8H388l12.1,33.2h-23.7L374.7,610.8
			L374.7,610.8z"/>
	</g>
</g>
</svg>
