<?xml version="1.0" encoding="utf-8"?>
<!-- Generator: Adobe Illustrator 19.2.0, SVG Export Plug-In . SVG Version: 6.00 Build 0)  -->
<svg version="1.1" id="Livello_1" xmlns="http://www.w3.org/2000/svg" xmlns:xlink="http://www.w3.org/1999/xlink" x="0px" y="0px"
	 viewBox="0 0 604.5 388.3" style="enable-background:new 0 0 604.5 388.3;" xml:space="preserve">
<style type="text/css">
	.st0{fill:#008E43;stroke:#008E43;stroke-width:1.6393;stroke-miterlimit:2.6131;}
	.st1{fill:none;stroke:#FFFFFF;stroke-width:10.9289;stroke-miterlimit:2.6131;}
	.st2{fill:#FFFFFF;}
</style>
<g>
	<g>
		<polygon class="st0" points="1.7,63.3 601.7,63.3 601.7,386.3 1.7,386.3 		"/>
		<path class="st1" d="M55.3,78.1h494c22.4,0,40.4,19.1,40.4,40.4v214.2c0,21.9-18.6,40.4-40.4,40.4h-494c-21.3,0-40.4-18-40.4-40.4
			V118.5C14.8,96.1,33.4,78.1,55.3,78.1L55.3,78.1z"/>
		<polygon class="st2" points="74.4,316.9 74.4,134.9 189.7,134.9 189.7,165.5 105.5,165.5 105.5,205.9 178.7,205.9 178.7,236 
			105.5,236 105.5,286.3 193,286.3 193,316.9 		"/>
		<path class="st2" d="M318.3,268.5l27.5-3.6c0.8,8,3.1,14.4,7,19.1s8.3,7.1,13.4,7.1c5.8,0,10.7-3,14.7-9.1s6-15.2,6-27.4
			c0-11.4-2-20-6-25.7s-9.1-8.6-15.5-8.6c-7.9,0-15,4.5-21.4,13.6l-22.4-4.2l14.2-96.8h73.1v33.4h-52.2l-4.3,31.6
			c6.2-4,12.5-6,18.9-6c12.3,0,22.7,5.8,31.2,17.2c8.5,11.5,12.8,26.5,12.8,44.8c0,15.3-3.4,29-10.3,41
			c-9.4,16.4-22.4,24.6-39.1,24.6c-13.3,0-24.2-4.6-32.6-13.8C325,296.4,319.9,284.1,318.3,268.5L318.3,268.5z"/>
		<path class="st2" d="M430.4,268.5l27.5-3.6c0.8,8,3.1,14.4,7,19.1s8.3,7.1,13.4,7.1c5.8,0,10.7-3,14.7-9.1s6-15.2,6-27.4
			c0-11.4-2-20-6-25.7s-9.1-8.6-15.5-8.6c-7.9,0-15,4.5-21.4,13.6l-22.4-4.2l14.2-96.8H521v33.4h-52.1l-4.3,31.6
			c6.2-4,12.5-6,18.9-6c12.3,0,22.7,5.8,31.2,17.2c8.5,11.5,12.8,26.5,12.8,44.8c0,15.3-3.4,29-10.3,41
			c-9.4,16.4-22.4,24.6-39.1,24.6c-13.3,0-24.2-4.6-32.6-13.8C437,296.4,432,284.1,430.4,268.5L430.4,268.5z"/>
	</g>
</g>
</svg>
