<?xml version="1.0" encoding="utf-8"?>
<!-- Generator: Adobe Illustrator 19.2.0, SVG Export Plug-In . SVG Version: 6.00 Build 0)  -->
<svg version="1.1" id="Livello_1" xmlns="http://www.w3.org/2000/svg" xmlns:xlink="http://www.w3.org/1999/xlink" x="0px" y="0px"
	 viewBox="0 0 604 387.4" style="enable-background:new 0 0 604 387.4;" xml:space="preserve">
<style type="text/css">
	.st0{fill:#005EA7;stroke:#005EA7;stroke-width:1.6393;stroke-miterlimit:2.6131;}
	.st1{fill:none;stroke:#FFFFFF;stroke-width:10.9289;stroke-miterlimit:2.6131;}
	.st2{fill:#FFFFFF;}
</style>
<g>
	<g>
		<polygon class="st0" points="2.1,62.2 602.1,62.2 602.1,385.2 2.1,385.2 		"/>
		<path class="st1" d="M55.7,77h494c22.4,0,40.4,18.6,40.4,40.4v214.2c0,21.9-18.6,40.4-40.4,40.4h-494c-21.3,0-40.4-18-40.4-40.4
			V117.4C15.2,95,33.8,77,55.7,77L55.7,77z"/>
		<path class="st2" d="M78.6,258.7l23.2-3.4c1.4,11.7,4.2,20.3,8.5,25.8c4.3,5.4,10,8.2,17.3,8.2c7.7,0,13.5-2.4,17.4-7.3
			s5.9-10.6,5.9-17.1c0-4.2-0.8-7.7-2.5-10.7c-1.6-3-4.5-5.5-8.6-7.7c-2.8-1.5-9.2-4-19.1-7.7c-12.8-4.7-21.8-10.6-26.9-17.5
			c-7.3-9.7-10.9-21.6-10.9-35.6c0-9,1.7-17.4,5.1-25.3c3.4-7.8,8.3-13.8,14.7-17.9c6.4-4.1,14.2-6.1,23.2-6.1
			c14.9,0,26,4.9,33.5,14.6c7.5,9.8,11.4,22.8,11.8,39l-23.8,1.6c-1-9.1-3.2-15.7-6.6-19.6c-3.4-4-8.4-6-15.1-6
			c-6.9,0-12.4,2.1-16.3,6.4c-2.5,2.7-3.8,6.4-3.8,11c0,4.2,1.2,7.8,3.6,10.8c3,3.8,10.3,7.7,21.9,11.8c11.6,4.1,20.2,8.4,25.7,12.7
			c5.6,4.4,9.9,10.4,13.1,18c3.1,7.6,4.7,17,4.7,28.2c0,10.1-1.9,19.7-5.6,28.5c-3.8,8.9-9.1,15.5-16,19.7
			c-6.9,4.3-15.5,6.5-25.7,6.5c-14.9,0-26.4-5.2-34.4-15.5C84.9,293.6,80.1,278.5,78.6,258.7L78.6,258.7z"/>
		<path class="st2" d="M188.6,258.7l23.2-3.4c1.4,11.7,4.2,20.3,8.5,25.8c4.3,5.4,10,8.2,17.3,8.2c7.7,0,13.5-2.4,17.4-7.3
			c3.9-4.9,5.9-10.6,5.9-17.1c0-4.2-0.8-7.7-2.5-10.7c-1.6-3-4.5-5.5-8.6-7.7c-2.8-1.5-9.2-4-19.1-7.7
			c-12.8-4.7-21.8-10.6-26.9-17.5c-7.3-9.7-10.9-21.6-10.9-35.6c0-9,1.7-17.4,5.1-25.3c3.4-7.8,8.3-13.8,14.7-17.9
			c6.4-4.1,14.2-6.1,23.2-6.1c14.9,0,26,4.9,33.5,14.6c7.5,9.8,11.4,22.8,11.8,39l-23.8,1.6c-1-9.1-3.2-15.7-6.6-19.6
			c-3.4-4-8.4-6-15.1-6c-6.9,0-12.4,2.1-16.3,6.4c-2.5,2.7-3.8,6.4-3.8,11c0,4.2,1.2,7.8,3.5,10.8c3,3.8,10.3,7.7,21.9,11.8
			c11.6,4.1,20.2,8.4,25.7,12.7c5.6,4.4,9.9,10.4,13.1,18c3.1,7.6,4.7,17,4.7,28.2c0,10.1-1.9,19.7-5.6,28.5
			c-3.8,8.9-9.1,15.5-16,19.7c-6.9,4.3-15.5,6.5-25.7,6.5c-14.9,0-26.4-5.2-34.4-15.5C194.9,293.6,190.2,278.5,188.6,258.7
			L188.6,258.7z"/>
		<path class="st2" d="M519.3,283.8v32.5H418.8c1.1-12.3,4.4-23.9,9.8-34.9c5.4-11,16.2-25.6,32.2-43.8
			c12.9-14.7,20.9-24.6,23.8-29.9c3.9-7.2,5.9-14.4,5.9-21.4c0-7.8-1.7-13.8-5.2-18c-3.4-4.2-8.2-6.3-14.2-6.3s-10.7,2.2-14.3,6.6
			c-3.5,4.4-5.6,11.7-6.1,21.9l-28.5-3.5c1.7-19.3,7-33.1,16-41.5s20.2-12.6,33.7-12.6c14.8,0,26.4,4.9,34.8,14.6
			c8.4,9.7,12.6,21.8,12.6,36.3c0,8.2-1.2,16-3.6,23.5c-2.4,7.4-6.2,15.2-11.5,23.3c-3.5,5.4-9.8,13.2-18.8,23.3
			c-9.1,10.1-14.8,16.9-17.2,20.2s-4.4,6.5-5.9,9.7L519.3,283.8L519.3,283.8z"/>
	</g>
</g>
</svg>
