<?xml version="1.0" encoding="utf-8"?>
<!-- Generator: Adobe Illustrator 19.2.0, SVG Export Plug-In . SVG Version: 6.00 Build 0)  -->
<svg version="1.1" id="Livello_1" xmlns="http://www.w3.org/2000/svg" xmlns:xlink="http://www.w3.org/1999/xlink" x="0px" y="0px"
	 viewBox="0 0 960 960" style="enable-background:new 0 0 960 960;" xml:space="preserve">
<style type="text/css">
	.st0{fill:#FFFFFF;stroke:#1A171B;stroke-width:10.0587;stroke-miterlimit:2.6131;}
	.st1{fill-rule:evenodd;clip-rule:evenodd;fill:#1A171B;}
</style>
<g>
	<g>
		<path class="st0" d="M273.3,197.8h413.4c41.5,0,75.5,34,75.5,75.5v413.4c0,41.5-34,75.5-75.5,75.5H273.3
			c-41.5,0-75.5-34-75.5-75.5V273.3C197.8,231.8,231.8,197.8,273.3,197.8L273.3,197.8z"/>
		<polygon class="st1" points="281.6,474.1 678.1,474.1 678.1,485.9 281.6,485.9 281.6,474.1 		"/>
		<path class="st1" d="M342.8,426.4l-51.9-155h31.8l36.7,114.7L395,271.3h31.1l-52,155H342.8L342.8,426.4z M461.6,426.4v-155h29.3
			v155H461.6L461.6,426.4z M539.4,426.4v-155h29.3v155H539.4L539.4,426.4z M617.2,426.4v-155h29.3v155H617.2L617.2,426.4z"/>
		<path class="st1" d="M470.7,663.9V691H348.2c1.4-10.2,5.3-20,12-29.1c6.6-9.2,19.7-21.3,39.2-36.5c15.8-12.2,25.4-20.6,29-24.9
			c4.8-6,7.2-12,7.2-17.9c0-6.5-2.1-11.5-6.3-15c-4.2-3.5-10-5.2-17.4-5.2c-7.3,0-13.1,1.8-17.4,5.5c-4.3,3.7-6.8,9.8-7.5,18.3
			l-34.8-2.9c2.1-16.1,8.6-27.6,19.5-34.6c10.9-7,24.6-10.5,41-10.5c18,0,32.1,4.1,42.4,12.2c10.3,8.1,15.4,18.2,15.4,30.2
			c0,6.8-1.5,13.4-4.4,19.6c-2.9,6.2-7.6,12.7-14,19.5c-4.2,4.5-11.9,11-22.9,19.4c-11,8.4-18,14.1-21,16.8
			c-2.9,2.8-5.3,5.5-7.2,8.1H470.7L470.7,663.9z M562.7,691v-30.6h-74.6v-25.6l79.1-96.7h29.3v96.6h22.6v25.7h-22.6V691H562.7
			L562.7,691z M562.7,634.7v-52.1l-41.9,52.1H562.7L562.7,634.7z"/>
	</g>
</g>
</svg>
