<?xml version="1.0" encoding="utf-8"?>
<!-- Generator: Adobe Illustrator 19.2.0, SVG Export Plug-In . SVG Version: 6.00 Build 0)  -->
<svg version="1.1" xmlns="http://www.w3.org/2000/svg" xmlns:xlink="http://www.w3.org/1999/xlink" x="0px" y="0px"
	 viewBox="0 0 960 480" style="enable-background:new 0 0 960 480;" xml:space="preserve">
<style type="text/css">
	.st0{fill:#FFFFFF;stroke:#1A171B;stroke-width:1.0684;stroke-miterlimit:2.6131;}
	.st1{fill:#1A171B;}
	.st2{fill:none;stroke:#1A171B;stroke-width:7.1224;stroke-miterlimit:2.6131;}
	.st3{display:none;}
	.st4{display:inline;fill:#FFFFFF;stroke:#1A171B;stroke-width:1.0684;stroke-miterlimit:2.6131;}
	.st5{display:inline;fill:#E1001A;stroke:#E1001A;stroke-width:0.3561;stroke-miterlimit:2.6131;}
	.st6{display:inline;fill:#1A171B;}
	.st7{display:inline;fill:none;stroke:#1A171B;stroke-width:7.1224;stroke-miterlimit:2.6131;}
</style>
<g id="Livello_1">
	<polygon class="st0" points="915,98.8 45,98.8 45,375.2 915,375.2 	"/>
	<polygon class="st1" points="183.7,287.3 183.7,204.1 154.4,204.1 154.4,187.2 232.9,187.2 232.9,204.1 203.7,204.1 203.7,287.3 	
		"/>
	<path class="st1" d="M324.8,287.3H303l-8.6-22.7h-39.5l-8.1,22.7h-21.2L264,187.2h21.1L324.8,287.3L324.8,287.3z M288,247.7
		l-13.6-37.2L261,247.7H288L288,247.7z"/>
	<path class="st1" d="M335.4,287.3V187.2h42c10.6,0,18.2,0.9,23,2.7s8.6,5,11.5,9.6s4.3,9.9,4.3,15.8c0,7.5-2.2,13.7-6.5,18.6
		c-4.4,4.9-10.9,8-19.6,9.2c4.3,2.6,7.9,5.4,10.7,8.4c2.8,3.1,6.6,8.5,11.4,16.2l12.1,19.5h-23.9L386,265.5
		c-5.1-7.8-8.6-12.7-10.5-14.7s-3.9-3.4-6-4.2c-2.1-0.7-5.5-1.1-10.1-1.1h-4v41.8H335.4L335.4,287.3z M355.3,229.5h14.8
		c9.6,0,15.6-0.4,18-1.2s4.2-2.2,5.6-4.2c1.3-2,2-4.5,2-7.5c0-3.4-0.9-6.1-2.7-8.2s-4.3-3.4-7.5-3.9c-1.6-0.2-6.5-0.3-14.6-0.3
		h-15.6L355.3,229.5L355.3,229.5z"/>
	<path class="st1" d="M524.2,287.3h-21.7l-8.6-22.7h-39.5l-8.1,22.7H425l38.5-100.1h21.1L524.2,287.3L524.2,287.3z M487.4,247.7
		l-13.6-37.2l-13.4,37.2H487.4L487.4,247.7z"/>
	<polygon class="st1" points="535,287.3 535,187.2 554.4,187.2 594.9,254 594.9,187.2 613.4,187.2 613.4,287.3 593.4,287.3 
		553.5,222 553.5,287.3 	"/>
	<polygon class="st1" points="656.7,287.3 656.7,204.1 627.4,204.1 627.4,187.2 706,187.2 706,204.1 676.7,204.1 676.7,287.3 	"/>
	<path class="st1" d="M712.4,237.8c0-10.2,1.5-18.8,4.5-25.7c2.3-5.1,5.3-9.7,9.2-13.7s8.1-7,12.8-9c6.2-2.7,13.3-4,21.3-4
		c14.6,0,26.2,4.6,35,13.7c8.7,9.1,13.1,21.9,13.1,38.2c0,16.2-4.4,28.8-13,37.9c-8.7,9.1-20.3,13.7-34.8,13.7
		c-14.7,0-26.4-4.5-35.1-13.6C716.7,266.3,712.4,253.8,712.4,237.8L712.4,237.8z M732.9,237.2c0,11.3,2.6,19.9,7.8,25.8
		s11.7,8.8,19.7,8.8c7.9,0,14.5-2.9,19.6-8.7c5.1-5.8,7.6-14.5,7.6-26.1c0-11.5-2.5-20-7.4-25.7c-5-5.6-11.6-8.5-19.8-8.5
		s-14.9,2.9-19.9,8.6C735.5,217,732.9,225.6,732.9,237.2L732.9,237.2z"/>
	<path class="st2" d="M882.8,108.3h-805c-11.8,0-23.5,12-23.5,23v211.2c0,11.5,11.2,23.2,23.5,23.2h805c12.3,0,23.2-10.4,23.2-23.2
		V131.3C906,118.4,894.3,108.3,882.8,108.3L882.8,108.3z"/>
</g>
<g id="Livello_1_copia" class="st3">
	<polygon class="st4" points="915,98.8 45,98.8 45,375.2 915,375.2 	"/>
	<path class="st5" d="M882,111.5c11.2,0,23,10.1,23,23v24.6L123.3,368.7H77.1c-12.3,0-23.5-11.8-23.5-23v-28.8l779-205.4"/>
	<polygon class="st6" points="183.7,287.3 183.7,204.1 154.4,204.1 154.4,187.2 232.9,187.2 232.9,204.1 203.7,204.1 203.7,287.3 	
		"/>
	<path class="st6" d="M324.8,287.3H303l-8.6-22.7h-39.5l-8.1,22.7h-21.2L264,187.2h21.1L324.8,287.3L324.8,287.3z M288,247.7
		l-13.6-37.2L261,247.7H288L288,247.7z"/>
	<path class="st6" d="M335.4,287.3V187.2h42c10.6,0,18.2,0.9,23,2.7s8.6,5,11.5,9.6s4.3,9.9,4.3,15.8c0,7.5-2.2,13.7-6.5,18.6
		c-4.4,4.9-10.9,8-19.6,9.2c4.3,2.6,7.9,5.4,10.7,8.4c2.8,3.1,6.6,8.5,11.4,16.2l12.1,19.5h-23.9L386,265.5
		c-5.1-7.8-8.6-12.7-10.5-14.7s-3.9-3.4-6-4.2c-2.1-0.7-5.5-1.1-10.1-1.1h-4v41.8H335.4L335.4,287.3z M355.3,229.5h14.8
		c9.6,0,15.6-0.4,18-1.2s4.2-2.2,5.6-4.2c1.3-2,2-4.5,2-7.5c0-3.4-0.9-6.1-2.7-8.2s-4.3-3.4-7.5-3.9c-1.6-0.2-6.5-0.3-14.6-0.3
		h-15.6L355.3,229.5L355.3,229.5z"/>
	<path class="st6" d="M524.2,287.3h-21.7l-8.6-22.7h-39.5l-8.1,22.7H425l38.5-100.1h21.1L524.2,287.3L524.2,287.3z M487.4,247.7
		l-13.6-37.2l-13.4,37.2H487.4L487.4,247.7z"/>
	<polygon class="st6" points="535,287.3 535,187.2 554.4,187.2 594.9,254 594.9,187.2 613.4,187.2 613.4,287.3 593.4,287.3 
		553.5,222 553.5,287.3 	"/>
	<polygon class="st6" points="656.7,287.3 656.7,204.1 627.4,204.1 627.4,187.2 706,187.2 706,204.1 676.7,204.1 676.7,287.3 	"/>
	<path class="st6" d="M712.4,237.8c0-10.2,1.5-18.8,4.5-25.7c2.3-5.1,5.3-9.7,9.2-13.7s8.1-7,12.8-9c6.2-2.7,13.3-4,21.3-4
		c14.6,0,26.2,4.6,35,13.7c8.7,9.1,13.1,21.9,13.1,38.2c0,16.2-4.4,28.8-13,37.9c-8.7,9.1-20.3,13.7-34.8,13.7
		c-14.7,0-26.4-4.5-35.1-13.6C716.7,266.3,712.4,253.8,712.4,237.8L712.4,237.8z M732.9,237.2c0,11.3,2.6,19.9,7.8,25.8
		s11.7,8.8,19.7,8.8c7.9,0,14.5-2.9,19.6-8.7c5.1-5.8,7.6-14.5,7.6-26.1c0-11.5-2.5-20-7.4-25.7c-5-5.6-11.6-8.5-19.8-8.5
		s-14.9,2.9-19.9,8.6C735.5,217,732.9,225.6,732.9,237.2L732.9,237.2z"/>
	<path class="st7" d="M882.8,108.3h-805c-11.8,0-23.5,12-23.5,23v211.2c0,11.5,11.2,23.2,23.5,23.2h805c12.3,0,23.2-10.4,23.2-23.2
		V131.3C906,118.4,894.3,108.3,882.8,108.3L882.8,108.3z"/>
</g>
</svg>
