<?xml version="1.0" encoding="utf-8"?>
<!-- Generator: Adobe Illustrator 19.2.0, SVG Export Plug-In . SVG Version: 6.00 Build 0)  -->
<svg version="1.1" id="Livello_1" xmlns="http://www.w3.org/2000/svg" xmlns:xlink="http://www.w3.org/1999/xlink" x="0px" y="0px"
	 viewBox="0 0 872.1 614.2" style="enable-background:new 0 0 872.1 614.2;" xml:space="preserve">
<style type="text/css">
	.st0{fill:#005EA7;stroke:#005EA7;stroke-width:1.0684;stroke-miterlimit:2.6131;}
	.st1{fill:none;stroke:#FFFFFF;stroke-width:7.1224;stroke-miterlimit:2.6131;}
	.st2{fill:#FFFFFF;}
	.st3{fill:#E1001A;stroke:#E1001A;stroke-width:0.3561;stroke-miterlimit:2.6131;}
</style>
<g>
	<g>
		<polygon class="st0" points="871.6,60.7 1.6,60.7 1.6,337.2 871.6,337.2 		"/>
		<path class="st1" d="M839.4,70.3h-805c-11.8,0-23.5,12-23.5,23v211.2c0,11.5,11.2,23.2,23.5,23.2h805c12.3,0,23.2-10.4,23.2-23.2
			V93.2C862.6,80.3,850.9,70.3,839.4,70.3L839.4,70.3z"/>
		<path class="st2" d="M117.1,246.4V153h29.5c11.2,0,18.5,0.5,21.8,1.4c5.2,1.4,9.6,4.4,13.1,9.1s5.3,10.8,5.3,18.2
			c0,5.7-1,10.6-3.1,14.5c-2,3.9-4.6,7-7.7,9.2c-3.1,2.2-6.3,3.7-9.5,4.4c-4.4,0.9-10.7,1.3-19.1,1.3h-12v35.2L117.1,246.4
			L117.1,246.4z M135.5,168.8v26.5h10c7.2,0,12.1-0.5,14.5-1.5s4.3-2.5,5.7-4.6s2.1-4.5,2.1-7.3c0-3.4-1-6.2-2.9-8.4
			s-4.4-3.6-7.4-4.1c-2.2-0.4-6.6-0.6-13.2-0.6L135.5,168.8L135.5,168.8z"/>
		<polygon class="st2" points="201.3,246.4 201.3,153 219.7,153 219.7,246.4 		"/>
		<polygon class="st2" points="237.2,246.4 237.2,153 304.7,153 304.7,168.8 255.6,168.8 255.6,189.5 301.3,189.5 301.3,205.2 
			255.6,205.2 255.6,230.6 306.4,230.6 306.4,246.4 		"/>
		<polygon class="st2" points="321.8,246.4 321.8,153 349.3,153 365.8,216.7 382.1,153 409.7,153 409.7,246.4 392.6,246.4 
			392.6,172.9 374.5,246.4 356.8,246.4 338.8,172.9 338.8,246.4 		"/>
		<path class="st2" d="M424.2,200.2c0-9.5,1.4-17.5,4.2-24c2.1-4.7,4.9-9,8.5-12.8s7.5-6.6,11.8-8.4c5.7-2.5,12.2-3.7,19.6-3.7
			c13.4,0,24.1,4.3,32.2,12.8c8.1,8.5,12.1,20.4,12.1,35.6c0,15.1-4,26.9-12,35.4s-18.7,12.8-32,12.8c-13.5,0-24.3-4.2-32.3-12.7
			C428.2,226.8,424.2,215.1,424.2,200.2L424.2,200.2z M443.1,199.6c0,10.6,2.4,18.6,7.1,24c4.8,5.5,10.8,8.2,18.1,8.2
			c7.3,0,13.3-2.7,18-8.1s7-13.5,7-24.3c0-10.7-2.3-18.7-6.8-24c-4.6-5.3-10.7-7.9-18.2-7.9c-7.6,0-13.7,2.7-18.3,8
			C445.4,180.8,443.1,188.9,443.1,199.6L443.1,199.6z"/>
		<polygon class="st2" points="527,246.4 527,153 544.9,153 582.1,215.3 582.1,153 599.2,153 599.2,246.4 580.8,246.4 544.1,185.5 
			544.1,246.4 		"/>
		<polygon class="st2" points="639.1,246.4 639.1,168.8 612.1,168.8 612.1,153 684.4,153 684.4,168.8 657.5,168.8 657.5,246.4 		"/>
		<polygon class="st2" points="696.3,246.4 696.3,153 763.8,153 763.8,168.8 714.7,168.8 714.7,189.5 760.3,189.5 760.3,205.2 
			714.7,205.2 714.7,230.6 765.5,230.6 765.5,246.4 		"/>
		<polygon class="st0" points="871.6,337.2 1.6,337.2 1.6,613.7 871.6,613.7 		"/>
		<path class="st3" d="M796.2,346.7h43.4c11.2,0,23,10.1,23,23v24.6L80.9,603.9H34.7c-12.3,0-23.5-11.8-23.5-23v-23.8L796.2,346.7
			L796.2,346.7z"/>
		<path class="st1" d="M839.4,346.7h-805c-11.8,0-23.5,12-23.5,23v211.2c0,11.5,11.2,23.3,23.5,23.3h805c12.3,0,23.2-10.4,23.2-23.3
			V369.7C862.6,356.8,850.9,346.7,839.4,346.7L839.4,346.7z"/>
		<polygon class="st2" points="65.5,522.6 65.5,430 83.4,430 83.4,506.9 127.8,506.9 127.8,522.6 		"/>
		<path class="st2" d="M136.9,476.5c0-9.5,1.3-17.5,4-24c2-4.7,4.8-9,8.2-12.8c3.5-3.8,7.3-6.6,11.4-8.4c5.5-2.5,11.9-3.7,19.1-3.7
			c13,0,23.5,4.3,31.3,12.8s11.7,20.4,11.7,35.6c0,15.1-3.9,26.9-11.7,35.4s-18.1,12.8-31.1,12.8c-13.2,0-23.6-4.2-31.4-12.7
			C140.8,503,136.9,491.3,136.9,476.5L136.9,476.5z M155.3,475.9c0,10.6,2.3,18.6,6.9,24c4.6,5.5,10.5,8.2,17.6,8.2s13-2.7,17.5-8.1
			c4.6-5.4,6.8-13.5,6.8-24.3c0-10.7-2.2-18.7-6.7-24s-10.4-7.9-17.7-7.9c-7.4,0-13.3,2.7-17.8,8
			C157.6,457.1,155.3,465.1,155.3,475.9L155.3,475.9z"/>
		<polygon class="st2" points="236.5,522.6 236.5,429.2 263.2,429.2 279.3,492.9 295.1,429.2 321.9,429.2 321.9,522.6 305.3,522.6 
			305.3,449.1 287.8,522.6 270.6,522.6 253,449.1 253,522.6 		"/>
		<path class="st2" d="M339.7,429.2h35.4c7,0,12.2,0.3,15.7,0.9c3.4,0.6,6.5,1.9,9.2,3.8c2.7,2,5,4.5,6.8,7.8
			c1.8,3.2,2.7,6.9,2.7,10.9c0,4.4-1.1,8.4-3.3,12c-2.2,3.7-5.3,6.4-9.1,8.2c5.4,1.7,9.5,4.5,12.4,8.5s4.3,8.7,4.3,14.1
			c0,4.2-0.9,8.4-2.8,12.4s-4.4,7.2-7.7,9.6c-3.2,2.4-7.2,3.9-12,4.4c-3,0.3-10.2,0.5-21.5,0.6h-30.1V429.2L339.7,429.2z
			 M357.6,444.8v21.6h11.7c7,0,11.3-0.1,13-0.3c3-0.4,5.5-1.5,7.2-3.3s2.6-4.3,2.6-7.3c0-2.9-0.7-5.2-2.2-7s-3.8-2.9-6.7-3.3
			c-1.8-0.2-6.9-0.3-15.3-0.3h-10.3V444.8z M357.6,481.9v25h16.5c6.5,0,10.5-0.2,12.3-0.6c2.7-0.5,4.8-1.8,6.5-3.7
			c1.7-2,2.5-4.6,2.5-7.9c0-2.8-0.7-5.2-1.9-7.1c-1.3-2-3.1-3.4-5.6-4.3c-2.4-0.9-7.7-1.3-15.8-1.3h-14.5V481.9z"/>
		<path class="st2" d="M508.7,522.6h-19.4l-7.7-21.2h-35.4l-7.3,21.2h-19l34.5-93.4h18.9L508.7,522.6L508.7,522.6z M475.8,485.7
			L463.6,451l-11.9,34.7H475.8L475.8,485.7z"/>
		<path class="st2" d="M518.2,522.6v-93.4h37.6c9.5,0,16.3,0.9,20.6,2.5c4.3,1.7,7.7,4.7,10.3,8.9c2.6,4.3,3.9,9.2,3.9,14.7
			c0,7-2,12.8-5.9,17.4c-3.9,4.5-9.7,7.4-17.5,8.6c3.9,2.4,7.1,5,9.6,7.8s5.9,7.9,10.2,15.2l10.8,18.2h-21.4l-12.9-20.3
			c-4.6-7.3-7.7-11.8-9.4-13.7s-3.5-3.2-5.4-3.9s-4.9-1-9-1h-3.6v39L518.2,522.6L518.2,522.6z M536.1,468.7h13.2
			c8.6,0,13.9-0.4,16.1-1.1c2.1-0.8,3.8-2.1,5-4s1.8-4.2,1.8-7c0-3.2-0.8-5.7-2.4-7.6c-1.6-1.9-3.8-3.2-6.7-3.7
			c-1.4-0.2-5.8-0.3-13-0.3h-13.9L536.1,468.7L536.1,468.7z"/>
		<path class="st2" d="M607.3,429.2H640c7.4,0,13,0.6,16.8,1.8c5.2,1.6,9.6,4.5,13.3,8.6s6.5,9.1,8.5,15.1c1.9,6,2.9,13.3,2.9,22.1
			c0,7.7-0.9,14.3-2.7,19.9c-2.2,6.8-5.4,12.3-9.5,16.5c-3.1,3.2-7.3,5.7-12.5,7.5c-3.9,1.3-9.2,2-15.8,2h-33.6v-93.5H607.3z
			 M625.2,445v61.8h13.3c5,0,8.6-0.3,10.8-0.9c2.9-0.8,5.3-2,7.2-3.9c1.9-1.8,3.5-4.8,4.7-9s1.8-9.9,1.8-17.1
			c0-7.2-0.6-12.7-1.8-16.6s-2.9-6.9-5.1-9c-2.2-2.2-4.9-3.6-8.3-4.4c-2.5-0.6-7.4-0.9-14.7-0.9L625.2,445L625.2,445z"/>
		<polygon class="st2" points="696.1,522.6 696.1,429.2 713.9,429.2 713.9,522.6 		"/>
		<path class="st2" d="M810.8,522.6h-19.4l-7.7-21.2h-35.4l-7.3,21.2h-18.9l34.5-93.4h18.9L810.8,522.6L810.8,522.6z M777.9,485.7
			L765.7,451l-11.9,34.7H777.9L777.9,485.7z"/>
	</g>
</g>
</svg>
