<?xml version="1.0" encoding="utf-8"?>
<!-- Generator: Adobe Illustrator 19.2.0, SVG Export Plug-In . SVG Version: 6.00 Build 0)  -->
<svg version="1.1" id="Livello_1" xmlns="http://www.w3.org/2000/svg" xmlns:xlink="http://www.w3.org/1999/xlink" x="0px" y="0px"
	 viewBox="0 0 872.1 614.2" style="enable-background:new 0 0 872.1 614.2;" xml:space="preserve">
<style type="text/css">
	.st0{fill:#005EA7;stroke:#005EA7;stroke-width:1.0684;stroke-miterlimit:2.6131;}
	.st1{fill:none;stroke:#FFFFFF;stroke-width:7.1224;stroke-miterlimit:2.6131;}
	.st2{fill:#FFFFFF;}
	.st3{fill:#E1001A;stroke:#E1001A;stroke-width:0.3561;stroke-miterlimit:2.6131;}
</style>
<g>
	<g>
		<polygon class="st0" points="871.1,60.1 1.1,60.1 1.1,336.6 871.1,336.6 		"/>
		<path class="st1" d="M838.9,69.7h-805c-11.8,0-23.5,12-23.5,23v211.2c0,11.5,11.2,23.2,23.5,23.2h805c12.3,0,23.2-10.4,23.2-23.2
			V92.6C862.1,79.7,850.4,69.7,838.9,69.7L838.9,69.7z"/>
		<path class="st2" d="M138.4,245.7v-93.4h29.5c11.2,0,18.5,0.5,21.8,1.4c5.2,1.4,9.6,4.4,13.1,9.1s5.3,10.8,5.3,18.2
			c0,5.7-1,10.6-3.1,14.5c-2,3.9-4.6,7-7.7,9.2c-3.1,2.2-6.3,3.7-9.5,4.4c-4.4,0.9-10.7,1.3-19.1,1.3h-12v35.2L138.4,245.7
			L138.4,245.7z M156.8,168.2v26.5h10c7.2,0,12.1-0.5,14.5-1.5s4.3-2.5,5.7-4.6s2.1-4.5,2.1-7.3c0-3.4-1-6.2-2.9-8.4
			s-4.4-3.6-7.4-4.1c-2.2-0.4-6.6-0.6-13.2-0.6L156.8,168.2L156.8,168.2z"/>
		<path class="st2" d="M219.5,199.6c0-9.5,1.4-17.5,4.2-24c2.1-4.7,4.9-9,8.5-12.8s7.5-6.6,11.8-8.4c5.7-2.5,12.2-3.7,19.6-3.7
			c13.4,0,24.1,4.3,32.2,12.8c8,8.5,12.1,20.4,12.1,35.6c0,15.1-4,26.9-12,35.4s-18.7,12.8-32,12.8c-13.5,0-24.3-4.2-32.3-12.7
			C223.5,226.2,219.5,214.5,219.5,199.6L219.5,199.6z M238.4,199c0,10.6,2.4,18.6,7.1,24c4.8,5.5,10.8,8.2,18.1,8.2
			c7.3,0,13.3-2.7,18-8.1s7-13.5,7-24.3c0-10.7-2.3-18.7-6.8-24c-4.6-5.3-10.7-7.9-18.2-7.9c-7.6,0-13.7,2.7-18.3,8
			C240.8,180.2,238.4,188.3,238.4,199L238.4,199z"/>
		<polygon class="st2" points="342.6,245.7 342.6,168.2 315.6,168.2 315.6,152.4 387.9,152.4 387.9,168.2 361,168.2 361,245.7 		"/>
		<polygon class="st2" points="399.8,245.7 399.8,152.4 467.3,152.4 467.3,168.2 418.2,168.2 418.2,188.9 463.9,188.9 463.9,204.6 
			418.2,204.6 418.2,230 469,230 469,245.7 		"/>
		<polygon class="st2" points="484.8,245.7 484.8,152.4 502.7,152.4 539.9,214.7 539.9,152.4 557,152.4 557,245.7 538.5,245.7 
			501.9,184.9 501.9,245.7 		"/>
		<polygon class="st2" points="568.5,245.7 568.5,228.8 616.3,168.2 573.9,168.2 573.9,152.4 640.5,152.4 640.5,167 590.7,230 
			642.4,230 642.4,245.7 		"/>
		<path class="st2" d="M736.1,245.7h-20l-7.9-21.2h-36.4l-7.5,21.2h-19.5l35.4-93.4h19.4L736.1,245.7L736.1,245.7z M702.3,208.8
			l-12.5-34.7l-12.3,34.7H702.3L702.3,208.8z"/>
		<polygon class="st0" points="871.1,336.6 1.1,336.6 1.1,613.1 871.1,613.1 		"/>
		<path class="st3" d="M795.7,346.1h43.4c11.2,0,23,10.1,23,23v24.6L80.4,603.3H34.2c-12.3,0-23.5-11.8-23.5-23v-23.8L795.7,346.1
			L795.7,346.1z"/>
		<path class="st1" d="M838.9,346.1h-805c-11.8,0-23.5,12-23.5,23v211.2c0,11.5,11.2,23.2,23.5,23.2h805c12.3,0,23.2-10.4,23.2-23.2
			V369.1C862.1,356.2,850.4,346.1,838.9,346.1L838.9,346.1z"/>
		<polygon class="st2" points="176.6,523.9 176.6,430.5 204.1,430.5 220.6,494.2 236.9,430.5 264.4,430.5 264.4,523.9 247.4,523.9 
			247.4,450.4 229.3,523.9 211.6,523.9 193.6,450.4 193.6,523.9 		"/>
		<path class="st2" d="M364.8,523.9h-20l-7.9-21.2h-36.4l-7.5,21.2h-19.5l35.4-93.4h19.4L364.8,523.9L364.8,523.9z M330.9,487
			l-12.5-34.7L306.1,487H330.9L330.9,487z"/>
		<polygon class="st2" points="385.5,523.9 385.5,446.3 358.5,446.3 358.5,430.5 430.9,430.5 430.9,446.3 403.9,446.3 403.9,523.9 
					"/>
		<polygon class="st2" points="442.7,523.9 442.7,430.5 510.2,430.5 510.2,446.3 461.1,446.3 461.1,467 506.8,467 506.8,482.7 
			461.1,482.7 461.1,508.2 511.9,508.2 511.9,523.9 		"/>
		<path class="st2" d="M527.6,523.9v-93.4h38.7c9.7,0,16.8,0.9,21.2,2.5c4.4,1.7,7.9,4.7,10.6,8.9c2.6,4.3,4,9.2,4,14.7
			c0,7-2,12.8-6,17.4c-4,4.5-10,7.4-18,8.6c4,2.4,7.3,5,9.8,7.8c2.6,2.8,6.1,7.9,10.4,15.2l11.1,18.2h-22l-13.2-20.2
			c-4.7-7.3-7.9-11.8-9.7-13.7c-1.7-1.9-3.6-3.2-5.5-3.9s-5-1-9.3-1H546v39L527.6,523.9L527.6,523.9z M546,470h13.6
			c8.8,0,14.3-0.4,16.5-1.1c2.2-0.8,3.9-2.1,5.1-4c1.2-1.9,1.9-4.2,1.9-7c0-3.2-0.8-5.7-2.5-7.6c-1.6-1.9-3.9-3.2-6.9-3.7
			c-1.5-0.2-6-0.3-13.4-0.3H546L546,470L546,470z"/>
		<path class="st2" d="M701.4,523.9h-20l-7.9-21.2h-36.4l-7.5,21.2h-19.5l35.4-93.4h19.4L701.4,523.9L701.4,523.9z M667.6,487
			l-12.5-34.7L642.8,487H667.6L667.6,487z"/>
	</g>
</g>
</svg>
