<?xml version="1.0" encoding="utf-8"?>
<!-- Generator: Adobe Illustrator 19.2.0, SVG Export Plug-In . SVG Version: 6.00 Build 0)  -->
<svg version="1.1" id="Livello_1" xmlns="http://www.w3.org/2000/svg" xmlns:xlink="http://www.w3.org/1999/xlink" x="0px" y="0px"
	 viewBox="0 0 459.4 723" style="enable-background:new 0 0 459.4 723;" xml:space="preserve">
<style type="text/css">
	.st0{fill:#FFFFFF;stroke:#1A171B;stroke-width:0.9137;stroke-miterlimit:2.6131;}
	.st1{fill:none;stroke:#1A171B;stroke-width:9.1371;stroke-miterlimit:2.6131;}
	.st2{fill:#E1001A;stroke:#E1001A;stroke-width:0.9137;stroke-miterlimit:2.6131;}
	.st3{fill:#1A171B;}
</style>
<g>
	<g>
		<polygon class="st0" points="1.8,1.5 457.6,1.5 457.6,721.5 1.8,721.5 		"/>
		<path class="st1" d="M50.6,15.5h358.2c20.3,0,36.4,16.6,36.4,36.7v619.4c0,20.1-16.3,36.7-36.4,36.7H50.6
			c-20.1,0-36.4-16.3-36.4-36.7V52.1C14.1,31.8,30.2,15.5,50.6,15.5L50.6,15.5z"/>
		<path class="st1" d="M102.4,59h254.8c23.8,0,43.3,19.5,43.3,43.3v254.6c0,23.8-19.5,43.3-43.3,43.3H102.4
			c-23.8,0-43.3-19.5-43.3-43.3V102.3C59.1,78.5,78.6,59,102.4,59L102.4,59z"/>
		<polygon class="st2" points="352.2,177.6 352.2,282 280.8,282 280.8,352.9 176.9,352.9 176.9,282 106.1,282 106.1,177.6 
			176.9,177.6 176.9,106.8 280.8,106.8 280.8,177.6 		"/>
		<path class="st3" d="M363.5,550.3L243,617.1c-4.3,0.2-7.9,0-7.9-6.6l7.8-40.1l-146.1,0.1l0.1-40.3l146.1-0.1l-8-39.9
			c0-6.8,3.9-6.8,7.9-6.8L363.5,550.3L363.5,550.3z"/>
	</g>
</g>
</svg>
