<?xml version="1.0" encoding="utf-8"?>
<!-- Generator: Adobe Illustrator 19.2.0, SVG Export Plug-In . SVG Version: 6.00 Build 0)  -->
<svg version="1.1" id="Livello_1" xmlns="http://www.w3.org/2000/svg" xmlns:xlink="http://www.w3.org/1999/xlink" x="0px" y="0px"
	 viewBox="0 0 960 960" style="enable-background:new 0 0 960 960;" xml:space="preserve">
<style type="text/css">
	.st0{fill:#FFFFFF;stroke:#1A171B;stroke-width:0.9137;stroke-miterlimit:2.6131;}
	.st1{fill:none;stroke:#1A171B;stroke-width:9.1371;stroke-miterlimit:2.6131;}
	.st2{fill-rule:evenodd;clip-rule:evenodd;fill:#1A171B;}
	.st3{fill-rule:evenodd;clip-rule:evenodd;fill:#E1001A;}
	.st4{fill-rule:evenodd;clip-rule:evenodd;fill:#005EA7;}
</style>
<g>
	<g>
		<polygon class="st0" points="252.1,120 707.9,120 707.9,840 252.1,840 252.1,120 		"/>
		<path class="st1" d="M300.9,134h358.2c20.3,0,36.4,16.6,36.4,36.7v619.4c0,20.1-16.3,36.7-36.4,36.7H300.9
			c-20.1,0-36.4-16.3-36.4-36.7V170.6C264.5,150.3,280.5,134,300.9,134L300.9,134z"/>
		<path class="st1" d="M355,177.6h250.1c25.1,0,45.7,20.6,45.7,45.7v250.1c0,25.1-20.6,45.7-45.7,45.7H355
			c-25.1,0-45.7-20.6-45.7-45.7V223.3C309.3,198.2,329.9,177.6,355,177.6L355,177.6z"/>
		<path class="st2" d="M346.2,668.8l120.5,66.8c4.3,0.2,7.9,0,7.9-6.6l-7.8-40.1l146.1,0.1l-0.1-40.3l-146.1-0.1l8-39.9
			c0-6.8-3.9-6.8-7.9-6.8L346.2,668.8L346.2,668.8z"/>
		<path class="st2" d="M480.4,342.3c7.5,0,13.7,6.2,13.7,13.7c0,7.5-6.2,13.7-13.7,13.7c-7.5,0-13.7-6.1-13.7-13.7
			C466.8,348.4,472.9,342.3,480.4,342.3L480.4,342.3z"/>
		<path class="st2" d="M549.5,407.6c0,38-31,69.1-69.1,69.1c-38,0-69.1-31-69.1-69.1H549.5L549.5,407.6z"/>
		<path class="st3" d="M451.2,265.1c0-2.3,0-4.6,0-6.9c0-32.9,13.1-47.9,29.2-47.9c16.1,0,29.2,15,29.2,47.9c0,2.3,0,4.6,0,6.9
			H451.2L451.2,265.1z"/>
		<path class="st4" d="M509.7,281.9c0,32.9-13.1,47.9-29.2,47.9c-16.1,0-29.2-15-29.2-47.9c0-2.7,0-5.4,0-8.1h58.5
			C509.7,276.5,509.7,279.2,509.7,281.9L509.7,281.9z"/>
		<path class="st2" d="M479.8,398.9H330.5c-6.4,1.5-6.2-8.4-0.2-9.7c69.3-14.3,70.6-63.2,114.8-80.3c4.4,15.1,12.9,24.3,23.3,28.1
			c-6.2,4-10.3,11-10.3,18.9c0,12.3,10.1,22.4,22.4,22.4c12.3,0,22.4-10.1,22.4-22.4c0-7.9-4.1-14.9-10.4-18.9
			c10.4-3.8,18.8-12.8,23.2-27.7c43.1,17.4,44.9,65.6,113.7,79.8c6,1.2,6.1,11.2-0.2,9.7H479.8L479.8,398.9z"/>
	</g>
</g>
</svg>
