<?xml version="1.0" encoding="utf-8"?>
<!-- Generator: Adobe Illustrator 19.2.0, SVG Export Plug-In . SVG Version: 6.00 Build 0)  -->
<svg version="1.1" id="Livello_1" xmlns="http://www.w3.org/2000/svg" xmlns:xlink="http://www.w3.org/1999/xlink" x="0px" y="0px"
	 viewBox="0 0 459.4 723" style="enable-background:new 0 0 459.4 723;" xml:space="preserve">
<style type="text/css">
	.st0{fill:#FFFFFF;stroke:#1A171B;stroke-width:0.9137;stroke-miterlimit:2.6131;}
	.st1{fill:none;stroke:#1A171B;stroke-width:9.1371;stroke-miterlimit:2.6131;}
	.st2{fill:#005EA7;}
	.st3{fill:#FFFFFF;}
	.st4{fill:#E1001A;}
	.st5{fill:#1A171B;}
</style>
<g>
	<g>
		<polygon class="st0" points="1.8,1.5 457.6,1.5 457.6,721.5 1.8,721.5 		"/>
		<path class="st1" d="M50.6,15.5h358.2c20.3,0,36.4,16.6,36.4,36.7v619.4c0,20.1-16.3,36.7-36.4,36.7H50.6
			c-20.1,0-36.4-16.3-36.4-36.7V52.1C14.2,31.8,30.2,15.5,50.6,15.5L50.6,15.5z"/>
		<path class="st2" d="M104.7,59.1h250.1c25.1,0,45.7,20.6,45.7,45.7v250.1c0,25.1-20.6,45.7-45.7,45.7H104.7
			C79.6,400.6,59,380,59,354.9V104.8C59,79.7,79.6,59.1,104.7,59.1L104.7,59.1z"/>
		<path class="st3" d="M252.5,364.6l-0.2-51.4c0.1-9.4,0-18.3,13.3-20.7l74.2-19.8c6.7-2.2,6.6,2.3,6.6,6.9l-0.1,57.5l-13.5,3.5
			l0.2-23l-67.4,17.8l0.2,24.6L252.5,364.6L252.5,364.6z"/>
		<path class="st3" d="M129.2,272.6l-0.1-33.6l26.7,13.7l78.7-22.5c11.1-2.1,11.1-2.1,17.9,2.3l67.2,36.3l-60.5,15.8
			c-11.3,4.7-12.9,8.8-15.2,20l0.1,29L129.2,272.6L129.2,272.6z"/>
		<path class="st3" d="M106.7,288.5v-53.8c0.2-25.4,6.2-30,13.2-33.9l76.4-20c3.9-1,11.1,2.3,11,15.8l-84.8,24.3l-0.1,60.6
			L106.7,288.5L106.7,288.5z"/>
		<path class="st3" d="M152.6,242.1l-19.9-10.9c-4.4-2.2-1.3-5.5,5.3-7.6l53.9-15.7c5-1.2,8.7-2.2,17.6,2.3l16,8.6
			c4.6,2.3,4.4,4.6,0,6.8L170,240.5C163,242.3,157.7,244,152.6,242.1L152.6,242.1z"/>
		<polygon class="st3" points="265.6,194.2 265.8,165 236.8,165.2 236.9,118.1 265.8,118.1 265.6,88.9 312.8,88.9 312.9,118.1 
			342.1,118.3 342.1,165.2 312.9,165 312.7,194.2 		"/>
		<polygon class="st4" points="272.5,187.6 272.3,158.4 243.5,158.6 243.4,124.9 272.6,124.8 272.4,95.8 306.1,95.7 306.2,124.7 
			335.2,124.9 335,158.5 306,158.3 306.1,187.5 		"/>
		<path class="st5" d="M95.9,550.3l120.5,66.8c4.3,0.2,7.9,0,7.9-6.6l-7.8-40.1l146.1,0.1l-0.1-40.3l-146.1-0.1l8-39.9
			c0-6.8-3.9-6.8-7.9-6.8L95.9,550.3L95.9,550.3z"/>
	</g>
</g>
</svg>
