<?xml version="1.0" encoding="utf-8"?>
<!-- Generator: Adobe Illustrator 19.2.0, SVG Export Plug-In . SVG Version: 6.00 Build 0)  -->
<svg version="1.1" id="Livello_1" xmlns="http://www.w3.org/2000/svg" xmlns:xlink="http://www.w3.org/1999/xlink" x="0px" y="0px"
	 viewBox="0 0 960 960" style="enable-background:new 0 0 960 960;" xml:space="preserve">
<style type="text/css">
	.st0{fill:#FFFFFF;stroke:#1A171B;stroke-width:0.9137;stroke-miterlimit:2.6131;}
	.st1{fill:none;stroke:#1A171B;stroke-width:9.1371;stroke-miterlimit:2.6131;}
	.st2{fill-rule:evenodd;clip-rule:evenodd;fill:#1A171B;stroke:#1A171B;stroke-width:0.9137;stroke-miterlimit:2.6131;}
	.st3{fill-rule:evenodd;clip-rule:evenodd;fill:#1A171B;}
</style>
<g>
	<g>
		<polygon class="st0" points="252.1,120 707.9,120 707.9,840 252.1,840 252.1,120 		"/>
		<path class="st1" d="M300.9,134h358.2c20.3,0,36.4,16.6,36.4,36.7v619.4c0,20.1-16.3,36.7-36.4,36.7H300.9
			c-20.1,0-36.4-16.3-36.4-36.7V170.6C264.5,150.3,280.5,134,300.9,134L300.9,134z"/>
		<path class="st1" d="M352.7,177.5h254.8c23.8,0,43.3,19.5,43.3,43.3v254.6c0,23.8-19.5,43.3-43.3,43.3H352.7
			c-23.8,0-43.3-19.5-43.3-43.3V220.8C309.4,197,328.9,177.5,352.7,177.5L352.7,177.5z"/>
		<path class="st2" d="M499.1,362.3c-2.9,7.8-10.4,13.2-18.9,13.2c-8.7,0-16-5.4-18.7-13.2h-59.4l-17.8,33.5h191.6l-17.8-33.5H499.1
			L499.1,362.3z"/>
		<path class="st2" d="M499.3,348.9c-2.7-7.8-10.4-13.4-19-13.4c-8.8,0-16.1,5.6-18.9,13.4c-16.8,0-34.7,0-57.1,0
			c4.1-46.2,8.2-102.6,62.3-113.6c0,0,0,0,0-4.4c0-4.6,0-4.6,4.6-4.6h17.8c4.4,0,4.4,0,4.4,4.6c0,2.2,0,2.2,0,4.4
			c55.5,10.9,58.3,68.3,62.3,113.6C533.4,348.9,515.6,348.9,499.3,348.9L499.3,348.9z"/>
		<path class="st2" d="M413.2,404.5h133.7l0.2,0.2c0,36.9-30.1,66.9-66.9,66.9c-36.9,0-66.9-30.1-66.9-66.9V404.5L413.2,404.5z"/>
		<path class="st3" d="M613.5,669.1L493,735.8c-4.3,0.2-7.9,0-7.9-6.6l7.8-40.1l-146.1,0.1l0.1-40.3l146.1-0.1l-8-39.9
			c0-6.8,3.9-6.8,7.9-6.8L613.5,669.1L613.5,669.1z"/>
	</g>
</g>
</svg>
