<?xml version="1.0" encoding="utf-8"?>
<!-- Generator: Adobe Illustrator 19.2.0, SVG Export Plug-In . SVG Version: 6.00 Build 0)  -->
<svg version="1.1" id="Livello_1" xmlns="http://www.w3.org/2000/svg" xmlns:xlink="http://www.w3.org/1999/xlink" x="0px" y="0px"
	 viewBox="0 0 602.2 472.3" style="enable-background:new 0 0 602.2 472.3;" xml:space="preserve">
<style type="text/css">
	.st0{fill:#FFFFFF;stroke:#1A171B;stroke-width:0.831;stroke-miterlimit:2.6131;}
	.st1{fill:none;stroke:#1A171B;stroke-width:5.5402;stroke-miterlimit:2.6131;}
	.st2{fill:#916740;stroke:#916740;stroke-width:0.831;stroke-miterlimit:2.6131;}
	.st3{fill:#FFFFFF;stroke:#916740;stroke-width:0.831;stroke-miterlimit:2.6131;}
	.st4{fill:#5288C1;}
	.st5{fill:none;stroke:#FFFFFF;stroke-width:5.5402;stroke-miterlimit:2.6131;}
	.st6{fill:#1A171B;}
</style>
<g>
	<g>
		<polygon class="st0" points="1.1,266.4 601.1,266.4 601.1,471.3 1.1,471.3 		"/>
		<path class="st1" d="M42.4,280.8h516.9c15,0,27.1,11.9,27.1,26.9v121.8c0,14.7-12.5,27.1-27.1,27.1H42.4
			c-14.1,0-26.3-12.2-26.3-27.1V307.6C16.1,292.4,28,280.8,42.4,280.8L42.4,280.8z"/>
		<polygon class="st2" points="1.1,61.7 601.1,61.7 601.1,266.6 1.1,266.6 		"/>
		<path class="st3" d="M300.9,197.8c-38.4,0.2-74.8,25.9-112.7,26.3s-58-26.3-110.7-26.3l-8.9,0.1l0.2-92.4l8.9,0.1
			c58.1,0,72.1,26.5,111.7,26.3c37.5-0.2,73.4-26.3,111.8-26.4c38.4-0.2,72.3,26.7,111,26.5c39.3,0,63.1-26.3,114.1-26.5l8.4,0.1
			L535,198l-9.1-0.1c-51.1-0.1-75,25.9-113.9,26.3C373.7,224.4,339.3,197.4,300.9,197.8L300.9,197.8z"/>
		<path class="st4" d="M300.5,189.1c-38.6,0-72.7,26.1-111.3,26.1s-58.5-26.3-111.7-26.3l0.2-19.2c51.5,0.4,71.4,26.7,111.4,26.5
			c37.7-0.4,73.1-26.4,111.8-26.4c38.6,0,72.3,26.5,111,26.5c39.6,0,63.1-26.2,114.1-26.5l-0.2,19.2c-51.1-0.1-74.8,26.3-113.9,26.3
			C373.3,215.4,339.1,189.1,300.5,189.1L300.5,189.1z"/>
		<path class="st4" d="M300.5,161.3c-38.6,0-72.7,26.1-111.3,26.1S126,161.2,77.5,161.1l0.2-19.2c51.1,0.1,72.8,26.7,111.4,26.5
			c38.6,0,73.1-26.4,111.8-26.4c38.6,0,72.3,26.5,111,26.5c39.6,0,64.9-26.5,114.1-26.5l-0.2,19.2c-44.5-1.8-74.8,26.3-113.9,26.3
			C373.3,187.6,339.1,161.3,300.5,161.3L300.5,161.3z"/>
		<path class="st4" d="M300.5,133.4c-38.6,0-72.7,26.1-111.3,26.1s-58.5-26.3-111.7-26.3l0.2-19.2c58.1,0,71.6,26.5,111.4,26.5
			c37.7,0,73.1-26.4,111.8-26.4c38.6,0,72.3,26.5,111,26.5c39.6,0,63.1-26.3,114.1-26.5l-0.2,19.2c-51.1-0.1-74.8,26.3-113.9,26.3
			C373.3,159.8,339.1,133.4,300.5,133.4L300.5,133.4z"/>
		<path class="st5" d="M42.4,76.6h516.9c15,0,27.1,11.4,27.1,26.3v122.2c0,14.4-12.5,27.1-27.1,27.1H42.4
			c-14.1,0-26.3-12.5-26.3-27.1V102.9C16.1,87.7,28,76.6,42.4,76.6L42.4,76.6z"/>
		<path class="st6" d="M89.1,385.3h3.3v-1.7c0-1.9,0.2-3.3,0.6-4.3c0.4-0.9,1.1-1.7,2.2-2.3s2.5-0.9,4.1-0.9c1.7,0,3.4,0.3,5,0.8
			l-0.8,4.2c-1-0.2-1.9-0.3-2.7-0.3c-0.9,0-1.5,0.2-1.9,0.6s-0.6,1.2-0.6,2.3v1.6h4.5v4.7h-4.5v17.9h-6V390h-3.2V385.3L89.1,385.3z"
			/>
		<path class="st6" d="M106.3,382.3v-5.5h6v5.5H106.3L106.3,382.3z M106.3,407.9v-22.6h6v22.6H106.3L106.3,407.9z"/>
		<path class="st6" d="M133.3,407.9v-3.4c-0.8,1.2-1.9,2.2-3.2,2.9c-1.3,0.7-2.8,1-4.2,1c-1.5,0-2.9-0.3-4.1-1s-2.1-1.6-2.6-2.8
			s-0.8-2.9-0.8-5v-14.3h6v10.4c0,3.2,0.1,5.1,0.3,5.8c0.2,0.7,0.6,1.3,1.2,1.7s1.3,0.6,2.2,0.6c1,0,1.9-0.3,2.7-0.8
			c0.8-0.6,1.4-1.3,1.7-2.1c0.3-0.8,0.5-2.9,0.5-6.1v-9.5h6v22.6L133.3,407.9L133.3,407.9z"/>
		<path class="st6" d="M144.6,385.3h5.5v3.1c2-2.4,4.3-3.6,7-3.6c1.4,0,2.7,0.3,3.8,0.9c1.1,0.6,1.9,1.5,2.6,2.7
			c1-1.2,2.1-2.1,3.2-2.7s2.4-0.9,3.7-0.9c1.7,0,3.1,0.3,4.2,1s2,1.7,2.6,3c0.4,1,0.6,2.5,0.6,4.7v14.4h-6V395
			c0-2.2-0.2-3.7-0.6-4.3c-0.6-0.9-1.4-1.3-2.5-1.3c-0.8,0-1.6,0.3-2.4,0.8c-0.7,0.5-1.3,1.3-1.6,2.2c-0.3,1-0.5,2.5-0.5,4.7V408h-6
			v-12.5c0-2.2-0.1-3.6-0.3-4.3c-0.2-0.6-0.5-1.1-1-1.4c-0.4-0.3-1.1-0.5-1.8-0.5c-0.9,0-1.8,0.2-2.5,0.7s-1.3,1.2-1.6,2.2
			c-0.3,0.9-0.5,2.5-0.5,4.7v11h-6L144.6,385.3L144.6,385.3z"/>
		<path class="st6" d="M196.8,400.7l6,1c-0.8,2.2-2,3.9-3.6,5s-3.7,1.7-6.2,1.7c-3.9,0-6.8-1.3-8.7-3.8c-1.5-2.1-2.2-4.7-2.2-7.8
			c0-3.7,1-6.7,2.9-8.8c2-2.1,4.4-3.2,7.4-3.2c3.4,0,6,1.1,8,3.3c1.9,2.2,2.9,5.6,2.8,10.2h-15c0,1.8,0.5,3.2,1.4,4.1
			c0.9,1,2.1,1.5,3.5,1.5c0.9,0,1.7-0.3,2.4-0.8C196,402.7,196.5,401.9,196.8,400.7L196.8,400.7z M197.2,394.7c0-1.7-0.5-3-1.3-3.9
			s-1.9-1.3-3.1-1.3c-1.3,0-2.4,0.5-3.2,1.4c-0.8,0.9-1.3,2.2-1.3,3.9h8.9V394.7z"/>
		<path class="st6" d="M323.7,407.6h-19.3l-7.7-20h-35.1l-7.2,20h-18.8l34.2-87.9h18.8L323.7,407.6L323.7,407.6z M291,372.9
			l-12.1-32.6L267,372.9H291L291,372.9z"/>
		<path class="st6" d="M349.1,407.6h-16.8v-63.7h15.6v9c2.7-4.3,5.1-7.1,7.2-8.5c2.1-1.3,4.6-2,7.3-2c3.8,0,7.5,1.1,11.1,3.2
			l-5.2,14.7c-2.8-1.8-5.5-2.7-7.9-2.7s-4.4,0.6-6,1.9c-1.7,1.3-2.9,3.6-3.9,7c-0.9,3.4-1.4,10.5-1.4,21.3L349.1,407.6L349.1,407.6z
			"/>
		<path class="st6" d="M438.6,407.6h-16.8v-32.5c0-6.9-0.4-11.3-1.1-13.3c-0.7-2-1.9-3.6-3.5-4.7s-3.6-1.7-5.8-1.7
			c-2.9,0-5.5,0.8-7.9,2.4c-2.3,1.6-3.9,3.7-4.8,6.4c-0.9,2.6-1.3,7.5-1.3,14.6v28.8h-16.8v-63.7h15.6v9.4
			c5.6-7.2,12.6-10.8,21-10.8c3.7,0,7.1,0.7,10.2,2c3.1,1.3,5.4,3,7,5.1s2.7,4.4,3.3,7.1c0.6,2.6,0.9,6.4,0.9,11.3L438.6,407.6
			L438.6,407.6z"/>
		<path class="st6" d="M451.8,374.9c0-5.6,1.4-11,4.1-16.3c2.8-5.2,6.7-9.2,11.7-12c5.1-2.8,10.7-4.2,16.9-4.2
			c9.6,0,17.5,3.1,23.7,9.4s9.2,14.2,9.2,23.7c0,9.6-3.1,17.6-9.3,23.9s-14,9.5-23.5,9.5c-5.8,0-11.4-1.3-16.7-3.9
			s-9.3-6.5-12.1-11.6C453.2,388.4,451.8,382.2,451.8,374.9L451.8,374.9z M469.1,375.8c0,6.3,1.5,11.2,4.5,14.5c3,3.4,6.7,5,11.1,5
			c4.4,0,8.1-1.7,11.1-5c3-3.4,4.5-8.2,4.5-14.6c0-6.2-1.5-11-4.5-14.4s-6.7-5-11.1-5c-4.4,0-8.1,1.7-11.1,5
			S469.1,369.5,469.1,375.8L469.1,375.8z"/>
	</g>
</g>
</svg>
