<?xml version="1.0" encoding="utf-8"?>
<!-- Generator: Adobe Illustrator 19.2.0, SVG Export Plug-In . SVG Version: 6.00 Build 0)  -->
<svg version="1.1" id="Livello_1" xmlns="http://www.w3.org/2000/svg" xmlns:xlink="http://www.w3.org/1999/xlink" x="0px" y="0px"
	 viewBox="0 0 872.5 688.6" style="enable-background:new 0 0 872.5 688.6;" xml:space="preserve">
<style type="text/css">
	.st0{fill:#916740;stroke:#916740;stroke-width:0.961;stroke-miterlimit:2.6131;}
	.st1{fill:#FFFFFF;stroke:#1A171B;stroke-width:0.961;stroke-miterlimit:2.6131;}
	.st2{fill:none;stroke:#FFFFFF;stroke-width:6.4065;stroke-miterlimit:2.6131;}
	.st3{fill:#FFFFFF;stroke:#1A171B;stroke-width:6.4065;stroke-miterlimit:2.6131;}
	.st4{fill:#1A171B;}
	.st5{fill:#FFFFFF;stroke:#FFFFFF;stroke-width:0.961;stroke-miterlimit:2.6131;}
	.st6{fill:#1A171B;stroke:#1A171B;stroke-width:0.961;stroke-miterlimit:2.6131;}
	.st7{fill:#1A171B;stroke:#FFFFFF;stroke-width:0.961;stroke-miterlimit:2.6131;}
</style>
<g>
	<g>
		<polygon class="st0" points="1.4,81.3 871.4,81.3 871.4,526.8 1.4,526.8 		"/>
		<polygon class="st1" points="871,527.2 1.4,527.2 1.4,686.9 871,686.9 		"/>
		<path class="st2" d="M44.5,93.1h784.8c18.2,0,32.8,16,32.8,32.8v357.5c0,17.1-16,32.8-32.8,32.8H44.5c-16.4,0-32.4-14.3-32.4-32.8
			V125.9C12.1,107.7,26.7,93.1,44.5,93.1L44.5,93.1z"/>
		<path class="st3" d="M839,536.5H34.2c-11.8,0-23.5,12.1-23.5,23.2v94.4c0,11.4,11,23.2,23.5,23.2H839c12.1,0,23.2-10.3,23.2-23.2
			v-94.4C862.1,546.8,850.4,536.5,839,536.5L839,536.5z"/>
		<path class="st4" d="M371,630.6h-9.2v-34.9c-3.4,3.2-7.3,5.5-11.9,7v-8.4c2.4-0.8,5-2.3,7.8-4.5s4.7-4.8,5.8-7.7h7.5L371,630.6
			L371,630.6z"/>
		<path class="st4" d="M384.9,618.1l9.2-0.9c0.3,2.1,1,3.7,2.3,4.9s2.8,1.8,4.4,1.8c1.9,0,3.6-0.8,4.9-2.4c1.3-1.6,2-3.9,2-7.1
			c0-3-0.7-5.2-2-6.7s-3-2.2-5.2-2.2c-2.6,0-5,1.2-7.1,3.5l-7.5-1.1l4.7-25.1h24.3v8.7h-17.4l-1.4,8.2c2.1-1,4.1-1.6,6.3-1.6
			c4.1,0,7.5,1.5,10.4,4.5c2.8,3,4.3,6.9,4.3,11.6c0,4-1.1,7.5-3.4,10.6c-3.1,4.3-7.5,6.4-13,6.4c-4.4,0-8-1.2-10.8-3.6
			C387.1,625.4,385.4,622.2,384.9,618.1L384.9,618.1z"/>
		<path class="st4" d="M437.6,582.1c4.7,0,8.3,1.7,10.9,5c3.1,3.9,4.7,10.5,4.7,19.7c0,9.1-1.6,15.7-4.7,19.7
			c-2.6,3.3-6.2,4.9-10.9,4.9c-4.7,0-8.4-1.8-11.3-5.4c-2.9-3.6-4.3-10-4.3-19.3c0-9.1,1.6-15.6,4.7-19.6
			C429.3,583.7,432.9,582.1,437.6,582.1L437.6,582.1z M437.6,589.7c-1.1,0-2.1,0.4-3,1.1c-0.9,0.7-1.6,2-2,3.8
			c-0.6,2.4-0.9,6.4-0.9,12.1c0,5.7,0.3,9.6,0.8,11.7c0.6,2.1,1.3,3.5,2.1,4.2c0.9,0.7,1.9,1.1,3,1.1s2.1-0.4,3-1.1
			c0.9-0.7,1.6-2,2-3.8c0.6-2.4,1-6.4,1-12.1c0-5.7-0.3-9.6-0.9-11.7c-0.6-2.1-1.3-3.5-2.1-4.2C439.7,590.1,438.7,589.7,437.6,589.7
			L437.6,589.7z"/>
		<path class="st4" d="M479.2,595.6h8.5v4.8c3-3.7,6.7-5.6,10.8-5.6c2.2,0,4.2,0.5,5.8,1.4s3,2.3,4,4.2c1.5-1.9,3.2-3.3,4.9-4.2
			c1.8-0.9,3.7-1.4,5.7-1.4c2.5,0,4.7,0.5,6.5,1.6c1.8,1,3.1,2.6,4,4.6c0.6,1.5,0.9,3.9,0.9,7.3v22.4h-9.2v-20c0-3.5-0.3-5.7-1-6.7
			c-0.8-1.3-2.2-2-3.9-2c-1.3,0-2.5,0.4-3.6,1.2s-1.9,1.9-2.4,3.5c-0.5,1.5-0.8,3.9-0.8,7.2v16.8h-9.2v-19.2c0-3.4-0.2-5.6-0.5-6.6
			s-0.8-1.7-1.5-2.2s-1.6-0.7-2.8-0.7c-1.4,0-2.7,0.4-3.8,1.2s-2,1.9-2.4,3.3c-0.5,1.5-0.7,3.8-0.7,7.2v17h-9.2L479.2,595.6
			L479.2,595.6z"/>
		<polygon class="st5" points="78,158 370.3,158 370.3,450.2 78,450.2 		"/>
		<polygon class="st5" points="502.5,158 794.8,158 794.8,450.2 502.5,450.2 		"/>
		<path class="st6" d="M173.8,421.3c-14.4-3.3-24.3-12.9-22.4-27.9l51.6-96.1c-23.6,12.8-36.8,20.3-58.8,25.3l-0.3-8.9l0.3-0.6
			c51.1-12.6,61.6-72.8,108.8-71c5.6,1.9,17,9.5,15.1,20.8l-62.2,118.7c-2,3.9-2,5.7,1.9,5.7c30.7-14.4,61.9-39.8,84.8-62.2v18.8
			l-58.5,52.7C213.6,413.7,196.4,421.3,173.8,421.3L173.8,421.3z"/>
		<path class="st6" d="M277.4,187.8c15.6,0,28.3,8.5,28.3,18.8c0,10.4-12.7,18.8-28.3,18.8c-15.6,0-28.3-8.5-28.3-18.8
			C249.1,196.2,261.8,187.8,277.4,187.8L277.4,187.8z"/>
		<path class="st7" d="M673.8,394.8l-0.2-50.3c0.1-9.2,0-17.9,13-20.3l72.6-19.4c6.5-2.1,6.5,2.2,6.5,6.7l-0.1,56.3l-13.2,3.4
			l0.2-22.6l-65.9,17.5l0.2,24.1L673.8,394.8L673.8,394.8z"/>
		<path class="st7" d="M553.1,304.7l-0.1-32.9l26.1,13.4l77-22c10.9-2.1,10.9-2.1,17.5,2.3l65.7,35.5l-59.2,15.5
			c-11.1,4.6-12.6,8.6-14.8,19.6l0.1,28.4L553.1,304.7L553.1,304.7z"/>
		<path class="st7" d="M531.1,320.3v-52.6c0.2-24.9,6.1-29.4,12.9-33.2l74.8-19.5c3.8-1,10.8,2.2,10.8,15.4l-83,23.8l-0.1,59.3
			L531.1,320.3L531.1,320.3z"/>
		<path class="st7" d="M576,274.8l-19.4-10.7c-4.3-2.2-1.3-5.4,5.2-7.5l52.7-15.3c4.9-1.1,8.5-2.1,17.2,2.3l15.7,8.5
			c4.5,2.2,4.3,4.5,0,6.7l-54.2,14.5C586.2,275,581,276.7,576,274.8L576,274.8z"/>
	</g>
</g>
</svg>
