<?xml version="1.0" encoding="utf-8"?>
<!-- Generator: Adobe Illustrator 19.2.0, SVG Export Plug-In . SVG Version: 6.00 Build 0)  -->
<svg version="1.1" id="Livello_1" xmlns="http://www.w3.org/2000/svg" xmlns:xlink="http://www.w3.org/1999/xlink" x="0px" y="0px"
	 viewBox="0 0 602.7 598.6" style="enable-background:new 0 0 602.7 598.6;" xml:space="preserve">
<style type="text/css">
	.st0{fill:#005EA7;}
	.st1{fill:none;stroke:#FFFFFF;stroke-width:11.816;stroke-miterlimit:2.6131;}
	.st2{fill:#FFFFFF;}
	.st3{fill:#1A171B;}
</style>
<g>
	<g>
		<polygon class="st0" points="2.7,1.8 602.7,1.8 602.7,598.6 2.7,598.6 		"/>
		<path class="st1" d="M53.5,19.5h499.3c18.3,0,33.2,14.9,33.2,33.2v496.1c0,18.3-14.9,33.2-33.2,33.2H53.5
			c-18.3,0-33.2-14.9-33.2-33.2V52.7C20.3,34.4,35.3,19.5,53.5,19.5L53.5,19.5z"/>
		<polygon class="st2" points="546.1,510.3 303,89.7 60.5,510.3 		"/>
		<polygon class="st3" points="456.9,489.9 419.8,399.8 452.6,399.8 502.7,489.9 		"/>
		<polygon class="st3" points="98.3,489.9 148.4,399.8 179.9,399.8 142.8,489.9 		"/>
		<path class="st3" d="M186.1,489.9l30.9-90.1h21.7c-8.5,18.7-11.9,23.9-20.4,41.5c-3.4,12.1,9.6,24.1,20.2,21.7l-4.1,27
			L186.1,489.9L186.1,489.9L186.1,489.9z"/>
		<polygon class="st3" points="278.8,489.9 286.2,399.8 316,399.8 323.3,489.9 		"/>
		<path class="st3" d="M367.8,489.9l-3.6-30.5c11.1-2.6,13.6-8.7,13.6-19.8l-14.9-39.8h23.6l26,90.1H367.8L367.8,489.9z"/>
		<path class="st3" d="M225.7,441.5l61.6-126.7l-5.8-26.6L254,318.6c-9.2,12.9-28.5-1.5-18.1-13.7l51.4-59.5c2.7-2.3,2.7-2.5,7.7-5
			l20.8-6.5c2.5,0.2,6.5,0.6,9,3.1l39.3,42.7c2.5,2.5,2.5,5.4,2.5,7.7c0,12.7,0,19.4,0,32.2c0,11.4-19.8,11.4-19.8,0v-27l-17.3-17.4
			l-5.2,37.5l46.2,128c3.9,11.4-21,17.5-25.2,6.9l-39.9-105.7l-54.3,108.3C242.9,465.4,222.1,452.9,225.7,441.5L225.7,441.5z"/>
		<path class="st3" d="M301,193.5c10.2,0,18.6,8.3,18.6,18.6c0,10.2-8.3,18.6-18.6,18.6c-10.2,0-18.6-8.3-18.6-18.6
			C282.4,201.8,290.8,193.5,301,193.5L301,193.5z"/>
	</g>
</g>
</svg>
