<?xml version="1.0" encoding="utf-8"?>
<!-- Generator: Adobe Illustrator 19.2.0, SVG Export Plug-In . SVG Version: 6.00 Build 0)  -->
<svg version="1.1" id="Livello_1" xmlns="http://www.w3.org/2000/svg" xmlns:xlink="http://www.w3.org/1999/xlink" x="0px" y="0px"
	 viewBox="0 0 600.8 597.7" style="enable-background:new 0 0 600.8 597.7;" xml:space="preserve">
<style type="text/css">
	.st0{fill:#ED7F00;}
	.st1{fill:none;stroke:#FFFFFF;stroke-width:11.816;stroke-miterlimit:2.6131;}
	.st2{fill:#1A171B;}
</style>
<g>
	<g>
		<polygon class="st0" points="0.3,0.3 600.3,0.3 600.3,597.1 0.3,597.1 		"/>
		<path class="st1" d="M51.1,18h499.3c18.3,0,33.2,14.9,33.2,33.2v496.1c0,18.3-14.9,33.2-33.2,33.2H51.1
			c-18.3,0-33.2-14.9-33.2-33.2V51.2C17.9,32.9,32.9,18,51.1,18L51.1,18z"/>
		<path class="st2" d="M210.2,465.1l-8.3-75.1l-2.6-25.3l6.7-20.5l-5.1-2.9l14.1-39.1l-28.5-44l-30.8,47.5
			c-9.6,15.4-36.6-3.5-23.1-18.9l51.6-86.3c17.3-21.2,24.1-10.6,38.5-12.2l91.8,36.3c16.4,7.4,6.7,35.9-11.2,29.5l-48.1-19.6
			l12.5,46.5l32.1,41.4l-4.2,4.5l11.9,12.2l42-28.9c15.7-9.9,33,12.2,18,24.1l-57.4,37.5c-5.8,4.5-11.5,4.2-17.3-1.3l-21.3-22.8
			l-4.2,3.9L252.5,334l-9.6,22.8l-5.8-2.9l-4.8,13.8c-1.9,8-1.6,12.8,1.3,24.4l7.1,69.9C241,479.2,212.8,483.1,210.2,465.1
			L210.2,465.1z"/>
		<path class="st2" d="M422.8,156.6c16.5,0,30,13.5,30,30c0,3.8-0.7,8.3-2.2,12c3,2.3,6,3.8,9,6l2.3-12l18,10.5l-9.8,7.5l19.5,11.3
			c5.3,3.7,1.5,10.5-3.8,9l-21-12l-0.8,13.5l-19.5-10.5l9.8-9c-3.7-1.5-6.8-3-9.8-4.5c-5.3,6-12.8,9.8-21.8,9.8
			c-18,0-31.5-13.5-31.5-31.5C391.3,170.1,404.8,156.6,422.8,156.6L422.8,156.6z"/>
		<path class="st2" d="M398.2,468.6l-14.4-67l1.9-13.2l11.2-40.7l-13.2,0.6l21.2-42.7l-9-33.4c-10.3,3.5-14.8,10.3-28.9,13.5
			l-13.2-3.5l-20.9-22.8c-11.9-10.3,2.2-27.9,12.8-17.6l19.6,19.3c18.3-8.3,30.8-21.5,54.2-32.1c8.3,0.6,16.4-2.2,26.3,2.2
			l41.7,17.6l15.1,35.6c6.1,14.1-14.1,19.2-19.9,5.5l-7.7-18.3l-15.1-7.7l-10.3,37.2l20.9,39.1l-10.3,2.2l8.7,21.2l51.3-16.4
			c14.8-5.8,22.8,13.8,8.3,21.2L463.3,391l-14.8-8L436,345.8l-12.5,0.3l-14.4,50.4l12.5,65.4C423.5,477.3,403.6,481.8,398.2,468.6
			L398.2,468.6z"/>
		<polygon class="st2" points="483.3,347.3 481.7,310.7 521.8,297.2 543.3,324.8 		"/>
		<path class="st2" d="M100,295l71.7,50.7c2,1.4,2.5,4.3,1.1,6.3l-36.5,51.4c-1.4,2-4.3,2.5-6.3,1.1l-71.7-50.7
			c-2-1.4-2.5-4.3-1.1-6.3l36.4-51.4C95.2,294,98,293.5,100,295L100,295z"/>
		<path class="st2" d="M164.6,122.8c19.4,0,35.3,15.8,35.3,35.3s-15.8,35.3-35.3,35.3s-35.3-15.8-35.3-35.3S145.2,122.8,164.6,122.8
			L164.6,122.8z"/>
	</g>
</g>
</svg>
