<?xml version="1.0" encoding="utf-8"?>
<!-- Generator: Adobe Illustrator 19.2.0, SVG Export Plug-In . SVG Version: 6.00 Build 0)  -->
<svg version="1.1" id="Livello_1" xmlns="http://www.w3.org/2000/svg" xmlns:xlink="http://www.w3.org/1999/xlink" x="0px" y="0px"
	 viewBox="0 0 601.1 598" style="enable-background:new 0 0 601.1 598;" xml:space="preserve">
<style type="text/css">
	.st0{fill:#E1001A;}
	.st1{fill:none;stroke:#FFFFFF;stroke-width:11.816;stroke-miterlimit:2.6131;}
	.st2{fill:#FFFFFF;}
</style>
<g>
	<g>
		<polygon class="st0" points="0.8,0.2 600.8,0.2 600.8,597 0.8,597 		"/>
		<path class="st1" d="M51.6,17.9h499.3c18.3,0,33.2,14.9,33.2,33.2v496.1c0,18.3-14.9,33.2-33.2,33.2H51.6
			c-18.3,0-33.2-14.9-33.2-33.2V51.1C18.4,32.8,33.4,17.9,51.6,17.9L51.6,17.9z"/>
		<path class="st2" d="M239.2,298.4c0-20.9,1.7-41.4,5.6-55.9c2.6-10.2,6.9-20.5,12.1-29.1c5.6-8.7,11.7-16.1,16.9-20.5
			c8.2-5.9,18.2-8.7,28.6-8.7c19.9,0,36,10.2,47.3,30.7c11.7,20.5,18.2,48.1,18.2,83.5c0,35.1-6.5,62.6-18.2,81.9
			c-11.3,20.5-27.3,30.7-46,30.7c-19.9,0-36-10.2-46.8-29.5c-11.7-18.9-17.8-46.9-17.8-81.9L239.2,298.4L239.2,298.4z M279.5,296.8
			c0,24.8,2.2,45.3,6.1,57.1c4.8,11.8,11.3,18.9,18.2,18.9c6.5,0,12.1-7.1,16.9-18.9s7.4-32.3,7.4-57.1c0-23.6-2.6-44.1-6.5-55.5
			c-4.8-11.8-11.3-19.3-17.8-19.3c-6.9,0-13.4,7.5-17.3,19.3c-4.8,11.4-6.9,31.9-6.9,57.1v-1.6H279.5z"/>
		<path class="st2" d="M87.5,350.4l28.8-14.2c1.2,12.2,5.1,21.3,9.8,26.4c5.1,5.9,13.4,10.2,22.5,10.2c10.2,0,18.5-2.8,22.5-8.7
			c5.1-5.9,8.3-13.4,8.3-20.5c0-4.3-1.2-9.1-3.1-11.8c-2-2.8-7.1-7.5-11-10.2c-4.3-1.6-12.6-5.9-24.8-8.7
			c-16.1-5.9-28.4-13.4-34.7-22.1c-7.9-11.8-13-26.4-13-44.1c0-11.4,2-23.2,5.9-31.9c4.3-9.1,10.2-17.7,18.5-22.1
			c8.3-5.9,18.1-8.7,29.5-8.7c18.5,0,32.7,7.1,41.7,18.9c6.3,8.7,11,19.7,13.8,32.7l-29.9,14.2c-1.2-8.3-3.9-15-7.1-18.9
			c-4.3-5.9-10.2-9.1-18.5-9.1s-16.5,3.2-20.5,9.1c-2,2.8-3.9,7.1-3.9,13s2,10.2,3.9,13c3.9,4.7,13.4,10.2,27.6,15
			c14.2,5.5,26.4,11.4,32.7,16.1c7.1,5.5,13.4,13,17.3,21.7c3.9,9.1,5.9,22.1,5.9,35.4c0,11.4-2.8,23.2-7.1,33.5
			c-5.1,11.8-13,20.5-21.3,24.8s-20.5,7.5-32.7,7.5c-18.5,0-33.5-7.5-43.7-19.3C96.6,382.7,90.3,368.1,87.5,350.4L87.5,350.4z"/>
		<path class="st2" d="M395.2,349.6l28.8-14.2c1.2,12.2,5.1,21.3,9.8,26.4c5.1,5.9,13.4,10.2,22.5,10.2c10.2,0,18.5-2.8,22.4-8.7
			c5.1-5.9,8.3-13.4,8.3-20.5c0-4.3-1.2-9.1-3.2-11.8c-2-2.8-7.1-7.5-11-10.2c-4.3-1.6-12.6-5.9-24.8-8.7
			c-16.1-5.9-28.4-13.4-34.7-22.1c-7.9-11.8-13-26.4-13-44.1c0-11.4,2-23.2,5.9-31.9c4.3-9.1,10.2-17.7,18.5-22.1
			c8.3-5.9,18.1-8.7,29.5-8.7c18.5,0,32.7,7.1,41.7,18.9c6.3,8.7,11,19.7,13.8,32.7l-29.9,14.4c-1.2-8.3-3.9-15-7.1-18.9
			c-4.3-5.9-10.2-9.1-18.5-9.1s-16.5,3.2-20.5,9.1c-2,2.8-3.9,7.1-3.9,13s2,10.2,3.9,13c3.9,4.7,13.4,10.2,27.6,15
			c14.2,5.5,26.4,11.4,32.7,16.1c7.1,5.5,13.4,13,17.3,21.7c3.9,9.1,5.9,22.1,5.9,35.5c0,11.4-2.8,23.2-7.1,33.5
			c-5.1,11.8-13,20.5-21.3,24.8s-20.5,7.5-32.7,7.5c-18.5,0-33.5-7.5-43.7-19.3C404.2,381.9,397.9,367.3,395.2,349.6L395.2,349.6z"
			/>
	</g>
</g>
</svg>
