<?xml version="1.0" encoding="utf-8"?>
<!-- Generator: Adobe Illustrator 19.2.0, SVG Export Plug-In . SVG Version: 6.00 Build 0)  -->
<svg version="1.1" id="Livello_1" xmlns="http://www.w3.org/2000/svg" xmlns:xlink="http://www.w3.org/1999/xlink" x="0px" y="0px"
	 viewBox="0 0 960 960" style="enable-background:new 0 0 960 960;" xml:space="preserve">
<style type="text/css">
	.st0{fill-rule:evenodd;clip-rule:evenodd;fill:#005EA7;}
	.st1{fill:none;stroke:#FFFFFF;stroke-width:11.816;stroke-miterlimit:2.6131;}
	.st2{fill-rule:evenodd;clip-rule:evenodd;fill:#FFFFFF;}
</style>
<g>
	<g>
		<polygon class="st0" points="180,181.6 780,181.6 780,778.4 180,778.4 180,181.6 		"/>
		<path class="st1" d="M230.8,199.3h499.3c18.3,0,33.2,14.9,33.2,33.2v496.1c0,18.3-14.9,33.2-33.2,33.2H230.8
			c-18.3,0-33.2-14.9-33.2-33.2V232.5C197.6,214.2,212.6,199.3,230.8,199.3L230.8,199.3z"/>
		<path class="st2" d="M412.1,610.1l40.5-177.3l-12.7-37.7L402.1,443c-12.5,19.7-40,0-25.7-18.7c23.5-30.5,47-61.1,70.5-91.6
			c3.8-3.6,3.7-3.9,10.9-8c10.5-4.3,16-7.2,27.7-11.2c5-2,11.4,1,16.2,5.6c21.6,20.6,39,37.5,60.9,58.1c3.9,3.5,4.1,7.1,4.3,10.5
			c1.1,18.7,1.6,28.5,2.7,47.2c1,16.7-28.2,18.3-29.1,1.7l-2.3-39.6l-26.9-24.3l-4.5,54l31.1,74.4l64.4,63.4
			c6.6,16.4-14.9,34.9-32.8,19.7l-62.8-62.7l-23.5-52.8l-34.8,150.5C437.2,642.1,407.7,627.1,412.1,610.1L412.1,610.1z"/>
		<path class="st2" d="M462.4,255.1c15-0.9,28,10.7,28.8,25.7c0.9,15-10.7,27.9-25.7,28.8c-15,0.9-28-10.7-28.8-25.7
			C435.9,268.8,447.4,255.9,462.4,255.1L462.4,255.1z"/>
		<polygon class="st2" points="267.3,667.7 397.4,667.7 397.4,639.6 538.5,639.6 538.5,611.7 693.9,611.7 693.9,639.8 565.9,639.8 
			565.9,667.7 422.8,667.7 422.8,695.9 267.3,695.9 267.3,667.7 		"/>
	</g>
</g>
</svg>
