<?xml version="1.0" encoding="utf-8"?>
<!-- Generator: Adobe Illustrator 19.2.0, SVG Export Plug-In . SVG Version: 6.00 Build 0)  -->
<svg version="1.1" id="Livello_1" xmlns="http://www.w3.org/2000/svg" xmlns:xlink="http://www.w3.org/1999/xlink" x="0px" y="0px"
	 viewBox="0 0 960 960" style="enable-background:new 0 0 960 960;" xml:space="preserve">
<style type="text/css">
	.st0{fill-rule:evenodd;clip-rule:evenodd;fill:#005EA7;}
	.st1{fill:none;stroke:#FFFFFF;stroke-width:11.816;stroke-miterlimit:2.6131;}
	.st2{fill-rule:evenodd;clip-rule:evenodd;fill:#FFFFFF;}
</style>
<g>
	<g>
		<polygon class="st0" points="180,181.6 780,181.6 780,778.4 180,778.4 180,181.6 		"/>
		<path class="st1" d="M230.8,199.3h499.3c18.3,0,33.2,14.9,33.2,33.2v496.1c0,18.3-14.9,33.2-33.2,33.2H230.8
			c-18.3,0-33.2-14.9-33.2-33.2V232.5C197.6,214.2,212.6,199.3,230.8,199.3L230.8,199.3z"/>
		<path class="st2" d="M576,598.5l-7.8-70.7c-1.1-16.5-2.1-25.4-15.1-38.1l-55.4-49.2L511,400l37.8,47.8c12.5,19.7,40,0,25.7-18.7
			c-23.5-30.5-47-61.1-70.5-91.6c-3.8-3.6-3.7-3.9-10.9-8c-10.5-4.3-16-7.2-27.7-11.2c-5-2-11.4,1.1-16.2,5.6
			c-21.6,20.6-39,37.5-60.9,58.1c-3.9,3.5-4.1,7.1-4.3,10.5c-1.1,18.7-1.6,28.5-2.7,47.2c-1,16.7,28.2,18.3,29.1,1.7l2.3-39.6
			l26.9-24.3l4.5,55.5l-38.2,193c-5.9,26,22.7,34.7,36.5,17.1l34.7-165.4l50.7,45.3l10.2,82C548.9,628.1,580.4,615.5,576,598.5
			L576,598.5z"/>
		<path class="st2" d="M493.2,260.7c-15-0.9-27.9,10.7-28.8,25.7c-0.9,15,10.7,27.9,25.7,28.8c15,0.9,28-10.7,28.8-25.7
			C519.8,274.5,508.2,261.6,493.2,260.7L493.2,260.7z"/>
		<polygon class="st2" points="693.6,661.6 563.7,661.6 563.7,689.8 422.7,689.8 422.7,717.7 267.4,717.7 267.4,689.6 395.3,689.6 
			395.3,661.6 538.3,661.6 538.3,633.5 693.6,633.5 693.6,661.6 		"/>
	</g>
</g>
</svg>
