<?xml version="1.0" encoding="utf-8"?>
<!-- Generator: Adobe Illustrator 19.2.0, SVG Export Plug-In . SVG Version: 6.00 Build 0)  -->
<svg version="1.1" id="Livello_1" xmlns="http://www.w3.org/2000/svg" xmlns:xlink="http://www.w3.org/1999/xlink" x="0px" y="0px"
	 viewBox="0 0 960 960" style="enable-background:new 0 0 960 960;" xml:space="preserve">
<style type="text/css">
	.st0{fill-rule:evenodd;clip-rule:evenodd;fill:#005EA7;}
	.st1{fill:none;stroke:#FFFFFF;stroke-width:11.816;stroke-miterlimit:2.6131;}
	.st2{fill-rule:evenodd;clip-rule:evenodd;fill:#FFFFFF;}
</style>
<g>
	<g>
		<polygon class="st0" points="180,181.6 780,181.6 780,778.4 180,778.4 180,181.6 		"/>
		<path class="st1" d="M230.8,199.3h499.3c18.3,0,33.2,14.9,33.2,33.2v496.1c0,18.3-14.9,33.2-33.2,33.2H230.8
			c-18.3,0-33.2-14.9-33.2-33.2V232.5C197.6,214.2,212.6,199.3,230.8,199.3L230.8,199.3z"/>
		<path class="st2" d="M400.3,612l43.2-184.4l-11.1-27.5l-35.3,49.7c-11.4,20.3-39.9,2.1-26.7-17.3c21.9-31.7,43.7-63.5,65.6-95.2
			c3.6-3.8,3.5-4.1,10.5-8.6c10.3-4.8,15.6-8,27.1-12.7c4.9-2.2,11.4,0.5,16.5,4.7c27.7,17.4,43.4,37.5,64.5,58.9
			c3.8,3.6,3.8,7.3,3.9,10.7c0.4,18.7,0.6,28.6,1.1,47.3c0.4,16.7-28.8,17.4-29.2,0.7l-0.9-39.6l-27.1-24.8l-1.6,55.7l30.6,75.1
			l60.2,58.6c7.5,16-19.9,38-33.9,21.4L498,522.8l-25.3-60l-35.2,155.3C428,641.7,396.8,629.2,400.3,612L400.3,612z"/>
		<path class="st2" d="M447.7,259c14.9-1.6,28.5,9.2,30.1,24.2c1.6,14.9-9.2,28.5-24.2,30.1c-14.9,1.6-28.5-9.2-30.1-24.2
			C421.9,274.2,432.8,260.7,447.7,259L447.7,259z"/>
		<polygon class="st2" points="267.9,682.4 693.6,583.3 693.6,614 268,713.1 267.9,682.4 		"/>
	</g>
</g>
</svg>
