<?xml version="1.0" encoding="utf-8"?>
<!-- Generator: Adobe Illustrator 19.2.0, SVG Export Plug-In . SVG Version: 6.00 Build 0)  -->
<svg version="1.1" id="Livello_1" xmlns="http://www.w3.org/2000/svg" xmlns:xlink="http://www.w3.org/1999/xlink" x="0px" y="0px"
	 viewBox="0 0 601.7 598.6" style="enable-background:new 0 0 601.7 598.6;" xml:space="preserve">
<style type="text/css">
	.st0{fill:#005EA7;}
	.st1{fill:none;stroke:#FFFFFF;stroke-width:11.816;stroke-miterlimit:2.6131;}
	.st2{fill:#FFFFFF;stroke:#FFFFFF;stroke-width:1.1816;stroke-miterlimit:2.6131;}
	.st3{fill:#FFFFFF;}
	.st4{fill:#E1001A;stroke:#E1001A;stroke-width:1.1816;stroke-miterlimit:2.6131;}
</style>
<g>
	<g>
		<polygon class="st0" points="0.9,0.9 600.9,0.9 600.9,597.7 0.9,597.7 		"/>
		<path class="st1" d="M51.7,18.6H551c18.3,0,33.2,14.9,33.2,33.2v496.1c0,18.3-14.9,33.2-33.2,33.2H51.7
			c-18.3,0-33.2-14.9-33.2-33.2V51.8C18.5,33.5,33.5,18.6,51.7,18.6L51.7,18.6z"/>
		<polygon class="st2" points="140.4,170.7 140.4,62.3 460.1,62.3 460.1,170.7 		"/>
		<polygon class="st3" points="246.4,62.4 354.8,62.4 354.8,532.9 246.4,532.9 		"/>
		<polygon class="st4" points="150.3,161.7 150.3,71.5 450.5,71.5 450.5,161.7 		"/>
	</g>
</g>
</svg>
