<?xml version="1.0" encoding="utf-8"?>
<!-- Generator: Adobe Illustrator 19.2.0, SVG Export Plug-In . SVG Version: 6.00 Build 0)  -->
<svg version="1.1" id="Livello_1" xmlns="http://www.w3.org/2000/svg" xmlns:xlink="http://www.w3.org/1999/xlink" x="0px" y="0px"
	 viewBox="0 0 601.7 598.6" style="enable-background:new 0 0 601.7 598.6;" xml:space="preserve">
<style type="text/css">
	.st0{fill:#005EA7;}
	.st1{fill:#FFFFFF;}
	.st2{fill:none;stroke:#FFFFFF;stroke-width:11.816;stroke-miterlimit:2.6131;}
</style>
<g>
	<g>
		<polygon class="st0" points="0.9,0.9 600.9,0.9 600.9,597.7 0.9,597.7 		"/>
		<path class="st1" d="M282.6,224.4l-55.6,5.8c-1.3-10.9-4.9-18.9-10.6-24.1s-13.2-7.8-22.3-7.8c-12.1,0-22.3,5.2-30.8,15.6
			c-8.4,10.3-13.6,31.9-15.8,64.6c14.4-16,32.1-24.1,53.3-24.1c24,0,44.5,8.7,61.6,26.1c17.1,17.3,25.7,39.7,25.7,67.2
			c0,29.2-9,52.5-27,70.1c-17.9,17.6-41.1,26.4-69.3,26.4c-30.2,0-55.1-11.1-74.5-33.5c-19.5-22.3-29.2-58.9-29.2-109.8
			c0-52.2,10.1-89.8,30.4-112.8c20.3-23.1,46.7-34.6,79.1-34.6c22.7,0,41.6,6.1,56.5,18.2C269,183.7,278.5,201.3,282.6,224.4
			L282.6,224.4z M152.5,343.4c0,17.7,4.3,31.4,12.8,41c8.6,9.7,18.4,14.5,29.4,14.5c10.7,0,19.5-4,26.6-11.9s10.6-20.9,10.6-38.8
			c0-18.5-3.8-32.1-11.4-40.7s-17.1-12.9-28.6-12.9c-11,0-20.4,4.1-28,12.3C156.2,315.2,152.5,327.4,152.5,343.4L152.5,343.4z"/>
		<path class="st1" d="M417.7,153.4c29.1,0,51.7,9.9,68.1,29.6c19.5,23.3,29.2,61.9,29.2,115.9c0,53.8-9.8,92.5-29.4,116.1
			c-16.2,19.4-38.8,29.1-67.9,29.1s-52.6-10.6-70.4-32c-17.9-21.3-26.8-59.3-26.8-113.9c0-53.6,9.8-92.2,29.4-115.7
			C366.1,163.2,388.7,153.4,417.7,153.4L417.7,153.4z M417.7,198.7c-6.9,0-13.1,2.1-18.5,6.3c-5.4,4.2-9.7,11.8-12.7,22.7
			c-3.9,14.1-5.9,37.9-5.9,71.3s1.8,56.4,5.3,68.8c3.6,12.5,8,20.8,13.4,25c5.4,4.1,11.6,6.2,18.5,6.2c7,0,13.2-2.1,18.6-6.4
			c5.4-4.2,9.7-11.7,12.7-22.6c3.9-14,5.9-37.7,5.9-71.1s-1.8-56.3-5.3-68.9c-3.6-12.5-8-20.8-13.4-25.1
			C430.8,200.8,424.7,198.7,417.7,198.7L417.7,198.7z"/>
		<path class="st2" d="M51.7,18.6H551c18.3,0,33.2,14.9,33.2,33.2v496.1c0,18.3-14.9,33.2-33.2,33.2H51.7
			c-18.3,0-33.2-14.9-33.2-33.2V51.8C18.5,33.5,33.5,18.6,51.7,18.6L51.7,18.6z"/>
	</g>
</g>
</svg>
