<?xml version="1.0" encoding="utf-8"?>
<!-- Generator: Adobe Illustrator 19.2.0, SVG Export Plug-In . SVG Version: 6.00 Build 0)  -->
<svg version="1.1" id="Livello_1" xmlns="http://www.w3.org/2000/svg" xmlns:xlink="http://www.w3.org/1999/xlink" x="0px" y="0px"
	 viewBox="0 0 601.7 598.6" style="enable-background:new 0 0 601.7 598.6;" xml:space="preserve">
<style type="text/css">
	.st0{fill:#008E43;}
	.st1{fill:none;stroke:#FFFFFF;stroke-width:11.816;stroke-miterlimit:2.6131;}
	.st2{fill:#FFFFFF;}
	.st3{fill:#1A171B;}
</style>
<g>
	<g>
		<polygon class="st0" points="0.9,1 600.8,1 600.8,597.6 0.9,597.6 		"/>
		<path class="st1" d="M51.7,18.6h499.3c18.3,0,33.2,14.9,33.2,33.2v496.1c0,18.3-14.9,33.2-33.2,33.2H51.7
			c-18.3,0-33.2-14.9-33.2-33.2V51.8C18.5,33.5,33.5,18.6,51.7,18.6L51.7,18.6z"/>
		<path class="st2" d="M486.9,446.8h-371c-15.8-29.5-24.4-63-24.4-98.9c0-115.8,94.5-210.3,210.3-210.3
			c115.4,0,209.9,94.5,209.9,210.3C511.8,383.8,502.8,417.3,486.9,446.8L486.9,446.8z"/>
		<path class="st3" d="M407.4,366.5c0-23.6-20.1-43.3-44.5-43.3c-23.6,0-43.3,19.7-43.3,43.3v25.2l-182.8,44.5h-14.6
			c-13-26.4-20.1-55.9-20.1-87.4c0-109.5,89.4-198.9,198.9-198.9c109.1,0,198.5,89.4,198.5,198.9c0,31.5-7.5,61-20.5,87.4h-5.1
			l-66.6-44.5l-0.4-24.4L407.4,366.5L407.4,366.5z"/>
	</g>
</g>
</svg>
