<?xml version="1.0" encoding="utf-8"?>
<!-- Generator: Adobe Illustrator 19.2.0, SVG Export Plug-In . SVG Version: 6.00 Build 0)  -->
<svg version="1.1" id="Livello_1" xmlns="http://www.w3.org/2000/svg" xmlns:xlink="http://www.w3.org/1999/xlink" x="0px" y="0px"
	 viewBox="0 0 601.7 598.6" style="enable-background:new 0 0 601.7 598.6;" xml:space="preserve">
<style type="text/css">
	.st0{fill:#008E43;}
	.st1{fill:#FFFFFF;stroke:#FFFFFF;stroke-width:1.1816;stroke-miterlimit:2.6131;}
	.st2{fill:none;stroke:#FFFFFF;stroke-width:11.816;stroke-miterlimit:2.6131;}
</style>
<g>
	<g>
		<polygon class="st0" points="0.9,0.9 600.8,0.9 600.8,597.7 0.9,597.7 		"/>
		<path class="st1" d="M483.9,402.7c-24.8-76.8-97.3-133.1-181.6-133.1s-157.2,56.3-182,133.1H78.1V203h446.6v199.7H483.9
			L483.9,402.7z"/>
		<path class="st2" d="M51.7,18.6h499.3c18.3,0,33.2,14.9,33.2,33.2v496.1c0,18.3-14.9,33.2-33.2,33.2H51.7
			c-18.3,0-33.2-14.9-33.2-33.2V51.8C18.5,33.5,33.5,18.6,51.7,18.6L51.7,18.6z"/>
	</g>
</g>
</svg>
