<?xml version="1.0" encoding="utf-8"?>
<!-- Generator: Adobe Illustrator 19.2.0, SVG Export Plug-In . SVG Version: 6.00 Build 0)  -->
<svg version="1.1" id="Livello_1" xmlns="http://www.w3.org/2000/svg" xmlns:xlink="http://www.w3.org/1999/xlink" x="0px" y="0px"
	 viewBox="0 0 960 807.1" style="enable-background:new 0 0 960 807.1;" xml:space="preserve">
<style type="text/css">
	.st0{fill:#FFFFFF;stroke:#1A171B;stroke-width:0.8671;stroke-miterlimit:2.6131;}
	.st1{fill:none;stroke:#1A171B;stroke-width:8.6705;stroke-miterlimit:2.6131;}
	.st2{fill:#1A171B;}
	.st3{fill:#E1001A;}
	.st4{fill:#FFFFFF;}
	.st5{fill:#E1001A;stroke:#FFFFFF;stroke-width:8.6705;stroke-miterlimit:2.6131;}
</style>
<g>
	<g>
		<polygon class="st0" points="180,96.6 780,96.6 780,711.4 180,711.4 		"/>
		<path class="st1" d="M215.8,107h528c14.4,0,25.7,11.8,25.7,25.4v542.8c0,13.6-11.9,25.4-25.7,25.4h-528
			c-13.6,0-25.4-11.3-25.4-25.4V132.5C190.4,118,201.4,107,215.8,107L215.8,107z"/>
		<polygon class="st2" points="407.1,227 407.1,214.8 427.2,171.4 409.4,171.4 409.4,160.1 437.3,160.1 437.3,170.6 416.4,215.7 
			438.1,215.7 438.1,227 		"/>
		<path class="st2" d="M440.9,194c0-6.8,0.6-12.5,1.7-17.2c0.9-3.4,2.1-6.5,3.6-9.2s3.1-4.7,4.9-6c2.4-1.8,5.1-2.6,8.2-2.6
			c5.6,0,10.1,3.1,13.5,9.2c3.4,6.1,5.1,14.6,5.1,25.5c0,10.8-1.7,19.2-5,25.3c-3.3,6.1-7.8,9.1-13.4,9.1c-5.7,0-10.2-3-13.5-9.1
			C442.5,213,440.9,204.6,440.9,194L440.9,194z M448.8,193.5c0,7.6,1,13.3,3,17.2c2,3.9,4.5,5.9,7.6,5.9s5.6-1.9,7.6-5.8
			s2.9-9.7,2.9-17.4c0-7.7-1-13.4-2.9-17.2s-4.5-5.6-7.6-5.6c-3.2,0-5.7,1.9-7.7,5.7C449.8,180.1,448.8,185.8,448.8,193.5
			L448.8,193.5z"/>
		<polygon class="st2" points="483.3,227 483.3,160.1 490.8,160.1 506.5,204.8 506.5,160.1 513.6,160.1 513.6,227 505.9,227 
			490.5,183.4 490.5,227 		"/>
		<path class="st2" d="M555.5,227h-8.4l-3.3-15.2h-15.2l-3.1,15.2h-8.2l14.9-66.9h8.1L555.5,227L555.5,227z M541.4,200.5l-5.3-24.8
			l-5.2,24.8H541.4L541.4,200.5z"/>
		<polygon class="st2" points="234.7,320.9 234.7,265.3 223.4,265.3 223.4,254 253.7,254 253.7,265.3 242.4,265.3 242.4,320.9 		"/>
		<path class="st2" d="M258.1,320.9V254h16.2c4.1,0,7,0.6,8.9,1.8c1.8,1.2,3.3,3.3,4.4,6.4s1.7,6.6,1.7,10.5c0,5-0.8,9.2-2.5,12.4
			c-1.7,3.3-4.2,5.3-7.5,6.2c1.7,1.7,3,3.6,4.1,5.6s2.5,5.7,4.4,10.9l4.7,13h-9.2l-5.6-14.6c-2-5.2-3.3-8.5-4.1-9.8
			c-0.7-1.4-1.5-2.3-2.3-2.8s-2.1-0.7-3.9-0.7h-1.6v27.9h-7.7V320.9z M265.8,282.3h5.7c3.7,0,6-0.3,6.9-0.8s1.6-1.5,2.2-2.8
			c0.5-1.3,0.8-3,0.8-5c0-2.3-0.3-4.1-1-5.4c-0.7-1.4-1.7-2.3-2.9-2.6c-0.6-0.1-2.5-0.2-5.6-0.2h-6v16.8H265.8z"/>
		<path class="st2" d="M330.4,320.9H322l-3.3-15.2h-15.2l-3.1,15.2h-8.2l14.9-66.9h8.1L330.4,320.9L330.4,320.9z M316.2,294.4
			l-5.3-24.8l-5.1,24.8H316.2L316.2,294.4z"/>
		<polygon class="st2" points="333.9,320.9 333.9,254 360,254 360,265.3 341.6,265.3 341.6,281.2 357.5,281.2 357.5,292.5 
			341.6,292.5 341.6,320.9 		"/>
		<polygon class="st2" points="365.8,320.9 365.8,254 392,254 392,265.3 373.5,265.3 373.5,281.2 389.5,281.2 389.5,292.5 
			373.5,292.5 373.5,320.9 		"/>
		<polygon class="st2" points="397.5,320.9 397.5,254 405.2,254 405.2,320.9 		"/>
		<path class="st2" d="M436.4,296.3l7.5,4.1c-1.1,7.3-3,12.7-5.7,16.3c-2.7,3.5-6,5.3-10.1,5.3c-5.1,0-9.2-3-12.5-9.1
			s-4.9-14.4-4.9-24.9c0-11.1,1.6-19.8,4.9-25.9s7.6-9.2,12.9-9.2c4.7,0,8.5,2.4,11.4,7.3c1.7,2.8,3,7,3.9,12.3l-7.6,3.2
			c-0.4-3.5-1.4-6.2-2.8-8.2s-3.2-3-5.2-3c-2.8,0-5.1,1.8-6.9,5.3s-2.6,9.3-2.6,17.3c0,8.5,0.9,14.5,2.6,18.1s4,5.4,6.8,5.4
			c2.1,0,3.8-1.1,5.3-3.4C434.7,304.8,435.7,301.2,436.4,296.3L436.4,296.3z"/>
		<path class="st2" d="M448.3,287.9c0-6.8,0.6-12.5,1.7-17.2c0.9-3.4,2.1-6.5,3.6-9.2s3.1-4.7,4.9-6c2.4-1.8,5.1-2.6,8.2-2.6
			c5.6,0,10.1,3.1,13.5,9.2s5.1,14.6,5.1,25.5c0,10.8-1.7,19.2-5,25.3c-3.3,6.1-7.8,9.1-13.4,9.1c-5.7,0-10.2-3-13.5-9.1
			C450,306.9,448.3,298.5,448.3,287.9L448.3,287.9z M456.2,287.4c0,7.6,1,13.3,3,17.2c2,3.9,4.5,5.9,7.6,5.9s5.6-1.9,7.6-5.8
			s2.9-9.7,2.9-17.4c0-7.7-1-13.4-2.9-17.2c-1.9-3.8-4.5-5.7-7.6-5.7c-3.2,0-5.7,1.9-7.7,5.7C457.2,274,456.2,279.7,456.2,287.4
			L456.2,287.4z"/>
		<polygon class="st2" points="505.6,320.9 505.6,254.6 513.3,254.6 513.3,309.6 532.4,309.6 532.4,320.9 		"/>
		<polygon class="st2" points="537.1,320.9 537.1,254 544.8,254 544.8,320.9 		"/>
		<polygon class="st2" points="551.4,320.9 551.4,254 563,254 569.9,299.6 576.7,254 588.3,254 588.3,320.9 581.1,320.9 
			581.1,268.3 573.6,320.9 566.1,320.9 558.6,268.3 558.6,320.9 		"/>
		<polygon class="st2" points="595.1,320.9 595.1,254 602.8,254 602.8,320.9 		"/>
		<polygon class="st2" points="618.1,320.9 618.1,265.3 606.8,265.3 606.8,254 637.1,254 637.1,265.3 625.8,265.3 625.8,320.9 		"/>
		<path class="st2" d="M672,320.9h-8.4l-3.3-15.2H645l-3.1,15.2h-8.2l14.9-66.9h8.1L672,320.9L672,320.9z M657.8,294.4l-5.3-24.8
			l-5.2,24.8H657.8L657.8,294.4z"/>
		<polygon class="st2" points="680.1,320.9 680.1,265.3 668.8,265.3 668.8,254 699.1,254 699.1,265.3 687.8,265.3 687.8,320.9 		"/>
		<path class="st2" d="M700.9,287.9c0-6.8,0.6-12.5,1.7-17.2c0.9-3.4,2.1-6.5,3.6-9.2s3.1-4.7,4.9-6c2.4-1.8,5.1-2.6,8.2-2.6
			c5.6,0,10.1,3.1,13.5,9.2s5.1,14.6,5.1,25.5c0,10.8-1.7,19.2-5,25.3c-3.3,6.1-7.8,9.1-13.4,9.1c-5.7,0-10.2-3-13.5-9.1
			C702.6,306.9,700.9,298.5,700.9,287.9L700.9,287.9z M708.9,287.4c0,7.6,1,13.3,3,17.2c2,3.9,4.5,5.9,7.6,5.9s5.6-1.9,7.6-5.8
			s3-9.7,3-17.4c0-7.7-1-13.4-2.9-17.2c-1.9-3.8-4.5-5.7-7.6-5.7c-3.2,0-5.7,1.9-7.7,5.7C709.8,274,708.9,279.7,708.9,287.4
			L708.9,287.4z"/>
		<path class="st0" d="M495,364.4c45.5,8.1,75,24.7,102.7,62c15.8,25.4,23.1,49.1,24.2,78.8c-2,59.5-32.8,105-86.2,129.9
			c-60.5,24.9-121.3,7.6-164.3-40.2c-27-35.3-37.1-74.2-29.2-118.5c9.2-34.1,22.4-56.7,48.6-80.4c28-20.9,54.4-31.3,89.8-32.3
			L495,364.4L495,364.4z"/>
		<path class="st3" d="M480.9,374.5c71.9,0,130.6,58.7,130.6,130.6s-58.7,130.6-130.6,130.6S350.3,577,350.3,505.1
			S409,374.5,480.9,374.5L480.9,374.5z"/>
		<path class="st4" d="M480.9,407.9c53.5,0,97.2,43.7,97.2,97.2s-43.7,97.2-97.2,97.2s-97.2-43.7-97.2-97.2
			C383.7,451.6,427.4,407.9,480.9,407.9L480.9,407.9z"/>
		<polygon class="st5" points="631.2,346.6 719.9,346.6 319.3,663.7 230.9,663.7 		"/>
	</g>
</g>
</svg>
