<?xml version="1.0" encoding="utf-8"?>
<!-- Generator: Adobe Illustrator 19.2.0, SVG Export Plug-In . SVG Version: 6.00 Build 0)  -->
<svg version="1.1" id="Livello_1" xmlns="http://www.w3.org/2000/svg" xmlns:xlink="http://www.w3.org/1999/xlink" x="0px" y="0px"
	 viewBox="0 0 602.7 599.6" style="enable-background:new 0 0 602.7 599.6;" xml:space="preserve">
<style type="text/css">
	.st0{fill:#005EA7;}
	.st1{fill:none;stroke:#FFFFFF;stroke-width:11.816;stroke-miterlimit:2.6131;}
	.st2{fill:#FFFFFF;}
</style>
<g>
	<g>
		<polygon class="st0" points="1.3,1.4 601.3,1.4 601.3,598.2 1.3,598.2 		"/>
		<path class="st1" d="M52.1,19.1h499.3c18.3,0,33.2,14.9,33.2,33.2v496.1c0,18.3-14.9,33.2-33.2,33.2H52.1
			c-18.3,0-33.2-14.9-33.2-33.2V52.3C18.9,34,33.9,19.1,52.1,19.1L52.1,19.1z"/>
		<path class="st2" d="M349.9,86.5c15.9,0,28,12.1,28,27.3s-12.1,26.5-28,26.5c-14.4,0-26.5-11.4-26.5-26.5
			C323.4,98.6,335.5,86.5,349.9,86.5L349.9,86.5z"/>
		<path class="st2" d="M265,251l90.2-100.1c9.1-7.6,15.9-4.5,25.8-4.5c6.8,1.5,8.3,4.5,12.1,11.4l18.2,94c0.8,17.4,0,25.8-19.7,30.3
			l-73.5,31.8l37.9,91c3,11.4-21.2,23.5-30.3,6.8l-39.4-92.5c-5.3-10.6-3.8-21.2,4.5-28l65.2-31.8l-17.4-38.7l-47,46.2
			C280.9,281.3,255.1,264.6,265,251L265,251z"/>
		<path class="st2" d="M445.2,358c-10.6,0-21.2,1.6-30.3,6.1l-21.2-34.9l13.7-25.2c5.3,0,9.9,0,16.7,0c1.5-1.5,3-6.8,3-10.6
			c-1.5-3.7-4.6-6-9.1-4.5c-12.9,1.5-26.5,3.8-39.4,7.6c-2.3,2.3-4.6,6.8-0.8,7.6c3,0,8.3,0,12.1,0l-10.6,21.2H230.6l6.1-12.9
			c-4.5-15.9-6.8-23.5,2.3-28h33.4c7.6-1.5,6.1-12.9,0-14.4h-35.6c-16.7,0-19,17.5-19,24.3l3.8,18.2l-28.8,53.1
			c-11.4-5.3-22-7.6-34.9-7.6c-45.5,0-82.6,37.2-82.6,81.9c0,45.5,37.1,82.6,82.6,82.6s83.4-37.1,83.4-82.6
			c0-28.8-15.2-52.3-36.4-67.5l12.9-22l81.9,76.6c-3,15.9,0.8,32.6,27.3,36.4c12.9-0.8,25-0.8,39.4-2.3
			c9.8,34.9,42.4,61.4,78.8,61.4c47,0,83.4-37.1,83.4-82.6C528.6,395.1,492.2,358,445.2,358z M224.6,440.7
			c0,37.1-28.8,67.5-67.5,67.5c-37.1,0-67.5-30.3-67.5-67.5c0-36.4,30.3-67.5,67.5-67.5c9.9,0,19,2.3,28,6.1l-27.2,46.2
			c-9.1,0.8-14.4,7.6-14.4,15.2c0,8.3,6.8,15.2,14.4,15.2c8.3,0,15.9-9.1,15.9-15.2c-0.8-6.1-3-8.3-3-8.3l27.3-47
			C213.3,397.5,224.6,418.8,224.6,440.7z M432.3,420.9c-16.7-0.7-49.3-3-49.3-3c6.1-16.7,12.9-25,27.3-34.9
			C410.3,383,423.9,407.3,432.3,420.9z M318.6,417.9c-2.3-3.8-6.1-3-10.6-3l-78.8-75.1h142.5L355,367.9l6.8,17.4l22.7-40.2
			l16.7,26.5c-15.9,8.4-26.5,23.6-34.1,47.1C356.5,426.3,333.7,440.7,318.6,417.9z M445.2,507.4c-49.3-3-62.2-48.5-62.2-48.5
			l62.2-5.3c11.4-0.8,15.2-3.8,16.7-9.1c0.7-4.6,3.8-17.5-10.6-22c-9.1-15.9-25.1-40.2-28.1-44.7c8.4-4.6,12.9-4.6,22-4.6
			c37.9,0,68.2,29.6,68.2,66.7C513.4,477.1,483.1,507.4,445.2,507.4z"/>
	</g>
</g>
</svg>
