<?xml version="1.0" encoding="utf-8"?>
<!-- Generator: Adobe Illustrator 19.2.0, SVG Export Plug-In . SVG Version: 6.00 Build 0)  -->
<svg version="1.1" id="Livello_1" xmlns="http://www.w3.org/2000/svg" xmlns:xlink="http://www.w3.org/1999/xlink" x="0px" y="0px"
	 viewBox="0 0 871.9 670.9" style="enable-background:new 0 0 871.9 670.9;" xml:space="preserve">
<style type="text/css">
	.st0{fill:#FFFFFF;stroke:#1A171B;stroke-width:0.8997;stroke-miterlimit:2.6131;}
	.st1{fill:none;stroke:#1A171B;stroke-width:8.9969;stroke-miterlimit:2.6131;}
	.st2{fill:#1A171B;}
	.st3{fill:#C5C6C8;}
</style>
<g>
	<g>
		<polygon class="st0" points="0.8,1 870.8,1 870.8,670 0.8,670 		"/>
		<path class="st1" d="M52.9,15.7h765.3c21,0,37.8,17.7,37.8,37.5v564.4c0,19.2-18.3,37.2-37.8,37.2H52.9
			c-19.2,0-37.5-16.8-37.5-37.2V53.1C15.5,31.9,31.9,15.7,52.9,15.7L52.9,15.7z"/>
		<path class="st2" d="M307.5,456.8V613h-28.2V456.8H279v-0.3H159.4l5.4,28.2c0,4.8-1.8,4.8-5.4,4.8L79,442.7l80.4-47.4
			c3,0,5.4,0,5.4,4.8l-5.4,28.2H279V253.2c0-27.6,22.5-50.1,50.1-50.1h213.2c27.6,0,50.1,22.5,50.1,50.1v153.5
			c0,27.6-22.5,50.1-50.1,50.1H329.1H307.5L307.5,456.8z M307.5,380.3L307.5,380.3v48h233.9c9.6,0,22.5-12.9,22.5-22.5V254.1
			c0-12.6-9.9-22.5-22.5-22.5H330c-12.6,0-22.5,9.9-22.5,22.5V380.3L307.5,380.3z"/>
		<polygon class="st3" points="56.8,279.3 244.9,279.3 244.9,380.6 56.8,380.6 		"/>
		<polygon class="st3" points="342,279.3 530,279.3 530,380.6 342,380.6 		"/>
		<polygon class="st3" points="529.5,613.4 529.5,504.5 341.5,504.5 341.5,613.4 		"/>
		<polygon class="st3" points="244.9,613.4 244.9,504.5 56.8,504.5 56.8,613.4 		"/>
		<polygon class="st3" points="814.7,613.4 814.7,279.3 627.3,279.3 627.3,613.4 		"/>
		<polygon class="st3" points="342,57 529.5,57 529.5,155.1 342,155.1 		"/>
		<polygon class="st3" points="626.7,57 814.7,57 814.7,155.1 626.7,155.1 		"/>
		<polygon class="st3" points="56.8,57.3 244.9,57.3 244.9,155.4 56.8,155.4 		"/>
	</g>
</g>
</svg>
