<?xml version="1.0" encoding="utf-8"?>
<!-- Generator: Adobe Illustrator 19.2.0, SVG Export Plug-In . SVG Version: 6.00 Build 0)  -->
<svg version="1.1" id="Livello_1" xmlns="http://www.w3.org/2000/svg" xmlns:xlink="http://www.w3.org/1999/xlink" x="0px" y="0px"
	 viewBox="0 0 601.7 598.6" style="enable-background:new 0 0 601.7 598.6;" xml:space="preserve">
<style type="text/css">
	.st0{fill:#005EA7;}
	.st1{fill:none;stroke:#FFFFFF;stroke-width:11.816;stroke-miterlimit:2.6131;}
	.st2{fill:#FFFFFF;}
</style>
<g>
	<g>
		<polygon class="st0" points="0.9,0.9 600.8,0.9 600.8,597.7 0.9,597.7 		"/>
		<path class="st1" d="M51.7,18.6h499.3c18.3,0,33.2,14.9,33.2,33.2v496.1c0,18.3-14.9,33.2-33.2,33.2H51.7
			c-18.3,0-33.2-14.9-33.2-33.2V51.8C18.5,33.5,33.5,18.6,51.7,18.6L51.7,18.6z"/>
		<path class="st2" d="M285.6,194.9h-87.2l46-130.2h47.9L285.6,194.9L285.6,194.9z M176,258.8h106.4l-13.8,274.8H79.3L176,258.8
			L176,258.8z"/>
		<path class="st2" d="M407.4,194.9h-87.2l-6.5-130.2h47.9L407.4,194.9L407.4,194.9z M323.5,258.8h106.4l96.9,274.8H337.6
			L323.5,258.8L323.5,258.8z"/>
		<path class="st2" d="M41.8,259.1c-1.8-3.6,1.5-8.6,5.4-7.7l34.9,8c0-22.7,18.8-50.7,42.6-50.7h334.1c24.4,0,32.5,22.4,40.2,40.8
			l25,76.6h-23.8l-22.9-66.5c-5.7-10.7-8.9-29.8-26.5-29.5H135.1c-15.2-0.3-25.6,14.9-26.5,29.2l40.2-8c4.5-0.9,6.9,4.8,4.8,7.7
			l-58.1,96.3L41.8,259.1L41.8,259.1z"/>
	</g>
</g>
</svg>
