<?xml version="1.0" encoding="utf-8"?>
<!-- Generator: Adobe Illustrator 19.2.0, SVG Export Plug-In . SVG Version: 6.00 Build 0)  -->
<svg version="1.1" id="Livello_1" xmlns="http://www.w3.org/2000/svg" xmlns:xlink="http://www.w3.org/1999/xlink" x="0px" y="0px"
	 viewBox="0 0 960 960" style="enable-background:new 0 0 960 960;" xml:space="preserve">
<style type="text/css">
	.st0{fill-rule:evenodd;clip-rule:evenodd;fill:#008E43;stroke:#008E43;stroke-width:0.9137;stroke-miterlimit:2.6131;}
	.st1{fill:none;stroke:#FFFFFF;stroke-width:9.1371;stroke-miterlimit:2.6131;}
	.st2{fill-rule:evenodd;clip-rule:evenodd;fill:#FFFFFF;}
	.st3{fill-rule:evenodd;clip-rule:evenodd;fill:#E1001A;stroke:#FFFFFF;stroke-width:3.0457;stroke-miterlimit:2.6131;}
</style>
<g>
	<g>
		<polygon class="st0" points="252.1,120 707.9,120 707.9,840 252.1,840 252.1,120 		"/>
		<path class="st1" d="M300.9,134h358.2c20.3,0,36.4,16.6,36.4,36.7v619.4c0,20.1-16.3,36.7-36.4,36.7H300.9
			c-20.1,0-36.4-16.3-36.4-36.7V170.6C264.5,150.3,280.5,134,300.9,134L300.9,134z"/>
		<polygon class="st2" points="327.1,681.7 370.4,681.7 370.4,795.3 327.1,795.3 327.1,681.7 		"/>
		<polygon class="st2" points="327.1,164.8 370.4,164.8 370.4,278.4 327.1,278.4 327.1,164.8 		"/>
		<path class="st2" d="M399.6,164.2l43.9-0.6v87.1L631.7,360c0,302.7,0-70.7,0,239.7l-17.1,9.7l-171.5,99v86.8h-43.6V742v-36.2
			v-28.3l188.5-108.7c0-65.8,0-113,0-177.9l-188.5-109v-19.5v-25.6V164.2L399.6,164.2z"/>
		<polygon class="st2" points="370.4,566.8 327.1,566.8 327.1,622.9 370.4,622.9 370.4,566.8 		"/>
		<polygon class="st2" points="327.1,452.6 370.4,452.6 370.4,507.7 327.1,507.7 327.1,452.6 		"/>
		<polygon class="st2" points="327.1,337.5 370.4,337.5 370.4,392.6 327.1,392.6 327.1,337.5 		"/>
		<path class="st3" d="M409.7,401.7h138.8c5.1,0,9.2,4.1,9.2,9.2v137.9c0,5.1-4.2,9.2-9.2,9.2H409.7c-5.1,0-9.2-4.2-9.2-9.2V410.9
			C400.4,405.8,404.6,401.7,409.7,401.7L409.7,401.7z"/>
		<path class="st2" d="M461.8,479.6c0-5.8,0.5-11.5,1.6-15.5c0.7-2.8,1.9-5.7,3.4-8.1c1.6-2.4,3.3-4.5,4.7-5.7
			c2.3-1.6,5.1-2.4,8-2.4c5.5,0,10,2.8,13.1,8.5c3.3,5.7,5.1,13.4,5.1,23.2c0,9.7-1.8,17.4-5.1,22.8c-3.1,5.7-7.6,8.5-12.8,8.5
			c-5.5,0-10-2.8-13-8.2c-3.3-5.3-4.9-13-4.9-22.8V479.6L461.8,479.6z M473,479.2c0,6.9,0.6,12.6,1.7,15.9c1.3,3.3,3.1,5.3,5.1,5.3
			c1.8,0,3.4-2,4.7-5.3c1.3-3.3,2-9,2-15.9c0-6.6-0.7-12.3-1.8-15.4c-1.3-3.3-3.1-5.4-4.9-5.4c-1.9,0-3.7,2.1-4.8,5.4
			c-1.3,3.2-1.9,8.9-1.9,15.9V479.2L473,479.2z"/>
		<path class="st2" d="M419.6,494.1l8-3.9c0.3,3.4,1.4,5.9,2.7,7.3c1.4,1.6,3.7,2.8,6.2,2.8c2.8,0,5.1-0.8,6.2-2.4
			c1.4-1.6,2.3-3.7,2.3-5.7c0-1.2-0.3-2.5-0.9-3.3c-0.5-0.8-2-2.1-3.1-2.8c-1.2-0.4-3.5-1.6-6.9-2.4c-4.5-1.6-7.9-3.7-9.6-6.1
			c-2.2-3.3-3.6-7.3-3.6-12.3c0-3.2,0.5-6.5,1.6-8.9c1.2-2.5,2.8-4.9,5.1-6.1c2.3-1.6,5-2.4,8.2-2.4c5.1,0,9.1,2,11.6,5.3
			c1.7,2.4,3.1,5.5,3.8,9.1l-8.3,3.9c-0.3-2.3-1.1-4.2-2-5.3c-1.2-1.6-2.8-2.5-5.1-2.5c-2.3,0-4.6,0.9-5.7,2.5
			c-0.5,0.8-1.1,2-1.1,3.6c0,1.6,0.5,2.8,1.1,3.6c1.1,1.3,3.7,2.8,7.7,4.2c3.9,1.5,7.3,3.2,9.1,4.5c2,1.5,3.7,3.6,4.8,6
			c1.1,2.5,1.6,6.1,1.6,9.9c0,3.2-0.8,6.5-2,9.3c-1.4,3.3-3.6,5.7-5.9,6.9c-2.3,1.2-5.7,2.1-9.1,2.1c-5.1,0-9.3-2.1-12.2-5.4
			C422.2,503.1,420.4,499,419.6,494.1L419.6,494.1z"/>
		<path class="st2" d="M505.1,493.9l8-3.9c0.3,3.4,1.4,5.9,2.7,7.3c1.4,1.6,3.7,2.8,6.2,2.8c2.8,0,5.1-0.8,6.2-2.4
			c1.4-1.6,2.3-3.7,2.3-5.7c0-1.2-0.3-2.5-0.9-3.3c-0.5-0.8-2-2.1-3.1-2.8c-1.2-0.4-3.5-1.6-6.9-2.4c-4.5-1.6-7.9-3.7-9.6-6.1
			c-2.2-3.3-3.6-7.3-3.6-12.3c0-3.2,0.5-6.5,1.6-8.9c1.2-2.5,2.8-4.9,5.1-6.1c2.3-1.6,5-2.4,8.2-2.4c5.1,0,9.1,2,11.6,5.3
			c1.8,2.4,3.1,5.5,3.8,9.1l-8.3,3.9c-0.3-2.3-1.1-4.2-2-5.3c-1.2-1.6-2.8-2.5-5.1-2.5c-2.3,0-4.6,0.9-5.7,2.5
			c-0.5,0.8-1.1,2-1.1,3.6c0,1.6,0.5,2.8,1.1,3.6c1.1,1.3,3.7,2.8,7.7,4.2c3.9,1.5,7.3,3.2,9.1,4.5c2,1.5,3.7,3.6,4.8,6
			c1.1,2.5,1.6,6.1,1.6,9.9c0,3.2-0.8,6.5-2,9.3c-1.4,3.3-3.6,5.7-5.9,6.9c-2.3,1.2-5.7,2.1-9.1,2.1c-5.1,0-9.3-2.1-12.1-5.4
			C507.6,502.9,505.9,498.8,505.1,493.9L505.1,493.9z"/>
	</g>
</g>
</svg>
