<?xml version="1.0" encoding="utf-8"?>
<!-- Generator: Adobe Illustrator 19.2.0, SVG Export Plug-In . SVG Version: 6.00 Build 0)  -->
<svg version="1.1" id="Livello_1" xmlns="http://www.w3.org/2000/svg" xmlns:xlink="http://www.w3.org/1999/xlink" x="0px" y="0px"
	 viewBox="0 0 870.4 596.1" style="enable-background:new 0 0 870.4 596.1;" xml:space="preserve">
<style type="text/css">
	.st0{fill:#008E43;}
	.st1{fill:none;stroke:#FFFFFF;stroke-width:11.7939;stroke-miterlimit:2.6131;}
	.st2{fill:#FFFFFF;}
	.st3{fill:#005EA7;}
</style>
<g>
	<polygon class="st0" points="0.2,0.7 870.2,0.7 870.2,595.5 0.2,595.5 	"/>
	<path class="st1" d="M50.5,17.6h769.4c18.9,0,33.4,14.9,33.4,33.4v494.2c0,19.3-14.9,33.4-33.4,33.4H50.5
		c-18.5,0-33.4-13.8-33.4-33.4V51C17.1,32.1,31.7,17.6,50.5,17.6L50.5,17.6z"/>
	<path class="st2" d="M715.9,78.8l76.6,131c0.2,4.7,0,8.6-7.6,8.6l-46-8.5v310.8l-46.2-0.1V209.8l-45.8,8.7c-7.8,0-7.8-4.3-7.8-8.6
		L715.9,78.8L715.9,78.8z"/>
	<path class="st2" d="M229.5,306.5c-14.9-20.1-30.6-30.6-52.7-36.5v-60.1l46,8.5c7.6,0,7.8-3.9,7.6-8.6l-76.6-131L77.1,209.9
		c0,4.3,0,8.6,7.8,8.6l45.8-8.7v61c-11.2,3.3-21.4,8.8-31.9,16.6c-16.6,14.9-24.9,29.2-30.7,50.7c-5,27.9,1.4,52.5,18.5,74.8
		c12.7,14,27.8,23.9,44.1,28.9v78.9l46.2,0.1v-78.1c4.5-1.1,9-2.6,13.5-4.5c33.8-15.7,53.2-44.4,54.5-82
		C244.2,337.4,239.5,322.5,229.5,306.5z"/>
	<path class="st2" d="M510.2,306.5c-14.9-20.1-30.6-30.6-52.7-36.5v-60.1l46,8.5c7.6,0,7.8-3.9,7.6-8.6l-76.6-131l-76.7,131.1
		c0,4.3,0,8.6,7.8,8.6l45.8-8.7v61c-11.2,3.3-21.4,8.8-31.9,16.6c-16.6,14.9-24.9,29.2-30.7,50.7c-5,27.9,1.4,52.5,18.5,74.8
		c12.7,14,27.8,23.9,44.1,28.9v78.9l46.2,0.1v-78.1c4.5-1.1,9-2.6,13.5-4.5c33.8-15.7,53.2-44.4,54.5-82
		C524.8,337.4,520.2,322.5,510.2,306.5z"/>
	<g>
		<path class="st3" d="M193.3,331.2c-1.5-1.2-3.1-1.8-5-1.8s-3.5,0.6-5,1.8c-1.5,1.2-2.6,3.3-3.4,6.4c-1.1,4-1.6,10.8-1.6,20.2
			c0,9.5,0.5,16,1.4,19.5c1,3.6,2.2,5.9,3.6,7.1c1.5,1.2,3.1,1.8,5,1.8s3.6-0.6,5-1.8c1.5-1.2,2.6-3.3,3.4-6.4
			c1.1-4,1.6-10.7,1.6-20.2s-0.5-16-1.4-19.6C196,334.8,194.8,332.4,193.3,331.2z"/>
		<path class="st3" d="M155.5,273.5c-45.4,0-82.4,37-82.4,82.4s37,82.5,82.4,82.5s82.4-37,82.4-82.5
			C238,310.5,200.9,273.5,155.5,273.5z M143.9,389.4c-5.5,6.5-12.6,9.8-21.4,9.8c-6.3,0-11.4-1.7-15.3-5c-3.9-3.4-6.4-8.4-7.5-15.1
			l15-1.7c0.4,3.1,1.3,5.3,2.9,6.8c1.5,1.5,3.6,2.2,6.1,2.2c3.2,0,5.9-1.5,8.2-4.4s3.7-9,4.3-18.3c-3.9,4.5-8.8,6.8-14.6,6.8
			c-6.4,0-11.9-2.5-16.5-7.4s-6.9-11.3-6.9-19.2c0-8.2,2.4-14.8,7.3-19.8s11.1-7.5,18.6-7.5c8.2,0,14.9,3.2,20.2,9.5
			s7.9,16.8,7.9,31.3C152.1,372.2,149.4,382.8,143.9,389.4z M206.7,390.9c-4.4,5.5-10.5,8.3-18.3,8.3s-14.2-3-19-9.1
			c-4.8-6-7.2-16.8-7.2-32.3c0-15.2,2.7-26.2,7.9-32.9c4.4-5.5,10.5-8.3,18.3-8.3c7.9,0,14,2.8,18.4,8.4c5.3,6.6,7.9,17.6,7.9,32.9
			C214.6,373.2,211.9,384.2,206.7,390.9z"/>
		<path class="st3" d="M123.3,329.4c-2.9,0-5.3,1.1-7.1,3.4c-1.9,2.3-2.8,6-2.8,11.1c0,5.2,1,9.1,3.1,11.5c2,2.4,4.6,3.7,7.7,3.7
			c3,0,5.5-1.2,7.5-3.5c2.1-2.4,3.1-5.8,3.1-10.4c0-5-1.1-8.9-3.4-11.6C129,330.8,126.3,329.4,123.3,329.4z"/>
	</g>
	<g>
		<path class="st3" d="M472.5,331.3c-1.5-1.2-3.1-1.8-5-1.8s-3.5,0.6-5,1.8s-2.6,3.3-3.4,6.4c-1.1,4-1.6,10.7-1.6,20.2
			s0.5,16,1.4,19.5c1,3.6,2.2,5.9,3.6,7.1c1.5,1.2,3.1,1.8,5,1.8s3.6-0.6,5-1.8c1.5-1.2,2.6-3.3,3.4-6.4c1.1-4,1.6-10.7,1.6-20.2
			s-0.5-16-1.4-19.6C475.1,334.9,473.9,332.5,472.5,331.3z"/>
		<path class="st3" d="M406.5,356.7c-3,0-5.5,1.2-7.5,3.5c-2.1,2.3-3.1,5.8-3.1,10.4c0,5,1.1,8.9,3.5,11.7c2.3,2.8,5,4.1,7.9,4.1
			s5.3-1.1,7.2-3.4c1.9-2.2,2.9-5.9,2.9-11c0-5.3-1-9.1-3.1-11.6C412.2,358,409.6,356.7,406.5,356.7z"/>
		<path class="st3" d="M436.2,273.5c-45.4,0-82.4,37-82.4,82.4s37,82.5,82.4,82.5s82.4-37,82.4-82.5
			C518.6,310.5,481.6,273.5,436.2,273.5z M425.2,391.7c-4.8,5-11.1,7.5-18.7,7.5c-8.1,0-14.9-3.2-20.1-9.5s-7.9-16.7-7.9-31.2
			c0-14.8,2.7-25.5,8.2-32c5.5-6.6,12.6-9.8,21.4-9.8c6.1,0,11.2,1.7,15.2,5.2c4,3.4,6.6,8.4,7.7,15l-15,1.7
			c-0.4-3.1-1.3-5.4-2.9-6.9c-1.5-1.5-3.6-2.2-6-2.2c-3.3,0-6,1.5-8.3,4.4s-3.7,9.1-4.3,18.4c3.9-4.6,8.7-6.8,14.4-6.8
			c6.5,0,12,2.5,16.6,7.4s6.9,11.3,6.9,19.1C432.5,380.1,430,386.7,425.2,391.7z M485.8,390.9c-4.4,5.5-10.5,8.3-18.3,8.3
			c-7.9,0-14.2-3-19-9.1c-4.8-6-7.2-16.8-7.2-32.3c0-15.2,2.7-26.2,7.9-32.9c4.4-5.5,10.5-8.3,18.3-8.3s14,2.8,18.4,8.4
			c5.3,6.6,7.9,17.6,7.9,32.9C493.7,373.2,491.1,384.2,485.8,390.9z"/>
	</g>
</g>
</svg>
