<?xml version="1.0" encoding="utf-8"?>
<!-- Generator: Adobe Illustrator 19.2.0, SVG Export Plug-In . SVG Version: 6.00 Build 0)  -->
<svg version="1.1" id="Livello_1" xmlns="http://www.w3.org/2000/svg" xmlns:xlink="http://www.w3.org/1999/xlink" x="0px" y="0px"
	 viewBox="0 0 870.4 596.2" style="enable-background:new 0 0 870.4 596.2;" xml:space="preserve">
<style type="text/css">
	.st0{fill:#FFFFFF;stroke:#1A171B;stroke-width:1.1794;stroke-miterlimit:2.6131;}
	.st1{fill:none;stroke:#1A171B;stroke-width:11.7939;stroke-miterlimit:2.6131;}
	.st2{fill:#1A171B;}
	.st3{fill:#FFFFFF;stroke:#1A171B;stroke-width:0.3931;stroke-miterlimit:2.6131;}
	.st4{fill:#005EA7;}
	.st5{fill:#FFFFFF;}
	.st6{fill:#FFEC00;stroke:#1A171B;stroke-width:2.3588;stroke-miterlimit:2.6131;}
</style>
<g>
	<g>
		<polygon class="st0" points="0.2,0.7 870.2,0.7 870.2,595.5 0.2,595.5 		"/>
		<path class="st1" d="M50.5,17.6h769.4c18.9,0,33.4,14.9,33.4,33.4v494.2c0,19.3-14.9,33.4-33.4,33.4H50.5
			c-18.5,0-33.4-13.8-33.4-33.4V51C17.1,32.1,31.7,17.6,50.5,17.6L50.5,17.6z"/>
		<path class="st2" d="M153.8,78.8l76.6,131c0.2,4.7,0,8.6-7.6,8.6l-46-8.5v310.8l-46.2-0.1V209.8l-45.8,8.7c-7.8,0-7.8-4.3-7.8-8.6
			L153.8,78.8L153.8,78.8z"/>
		<path class="st2" d="M429.1,78.8l76.6,131c0.2,4.7,0,8.6-7.6,8.6l-46-8.5v310.8l-46.2-0.1V209.8l-45.8,8.7c-7.8,0-7.8-4.3-7.8-8.6
			L429.1,78.8L429.1,78.8z"/>
		<path class="st2" d="M716.3,78.4L793,209.5c0.2,4.7,0,8.6-7.6,8.6l-46-8.5v311.1l-46.2-0.1V209.5l-45.8,8.7
			c-7.8,0-7.8-4.3-7.8-8.6L716.3,78.4L716.3,78.4z"/>
		<path class="st3" d="M727.1,267.1c28.8,5.1,47.5,15.6,65,39.2c10,16.1,14.6,31,15.3,49.8c-1.3,37.6-20.8,66.3-54.5,82
			c-38.3,15.7-76.8,4.8-104-25.4c-17.1-22.3-23.5-46.9-18.5-74.8c5.8-21.5,14.2-35.8,30.7-50.7c17.7-13.2,34.4-19.7,56.8-20.4
			L727.1,267.1L727.1,267.1z"/>
		<path class="st4" d="M718,273.3c45.5,0,82.5,37.1,82.5,82.5c0,45.5-37.1,82.5-82.5,82.5s-82.5-37.1-82.5-82.5
			S672.6,273.3,718,273.3L718,273.3z"/>
		<g>
			<path class="st5" d="M682.6,358.1c-4.9,0-8.6,3.7-8.6,8.2c0,5.3,3.7,9,8.6,9s9-3.8,9-9C691.6,361.8,687.5,358.1,682.6,358.1z
				 M682.6,370.1c-1.9,0-3-1.9-3-3.7c0-1.6,1.1-3.4,3-3.4c2.2,0,3.7,1.9,3.7,3.4C686.3,368.3,684.8,370.1,682.6,370.1z"/>
			<path class="st5" d="M668.7,366.7h3c0-14.6,21.3-14.6,21.7,0h13.8v-14.2h-38.5V366.7z"/>
			<path class="st5" d="M668.7,349.9h38.5v-14.2h-38.5V349.9z M690,338.7h14.2v7.8H690V338.7z M671.7,338.7h14.9v7.8h-14.9V338.7z"
				/>
			<path class="st5" d="M648.2,349.9h4.1v-11.2h3.7V363h-3.7v-10.5h-3.7l1.1,14.2h16.1v-31h-18.7L648.2,349.9z M659,338.7h3.7V363
				H659V338.7z"/>
			<path class="st5" d="M730,349.9h37.7v-14.2H730V349.9z M750.6,338.7h14.2v7.8h-14.2V338.7z M733,338.7h14.2v7.8H733V338.7z"/>
			<path class="st5" d="M789,352.5h-4.1V363h-4.1v-24.3l4.1,0.4v10.8h4.1l-1.5-14.2h-16.4v31h19L789,352.5z M777.5,363h-3.4v-24.3
				h3.4V363z"/>
			<path class="st5" d="M710.6,366.7h16.1v-31h-16.1V366.7z M720.3,338.7h3.4l0.4,24.3h-3.8L720.3,338.7L720.3,338.7z M713.6,338.7
				h3.4V363h-3.4V338.7z"/>
			<path class="st5" d="M730,366.7h13c0-14.6,21.7-14.2,21.7,0h3v-14.2H730V366.7z"/>
			<path class="st5" d="M753.9,358.1c-4.8,0-8.6,3.7-8.6,8.2c0,5.3,3.7,9,8.6,9s9-3.8,9-9C762.9,361.8,758.8,358.1,753.9,358.1z
				 M753.9,370.1c-1.9,0-3-1.9-3-3.7c0-1.6,1.2-3.4,3-3.4c1.9,0,3.4,1.9,3.4,3.4C757.3,368.3,755.8,370.1,753.9,370.1z"/>
		</g>
		<polygon class="st6" points="553.7,77.4 585.2,77.4 585.2,519.2 553.7,519.2 		"/>
	</g>
</g>
</svg>
