<?xml version="1.0" encoding="utf-8"?>
<!-- Generator: Adobe Illustrator 19.2.0, SVG Export Plug-In . SVG Version: 6.00 Build 0)  -->
<svg version="1.1" id="Livello_1" xmlns="http://www.w3.org/2000/svg" xmlns:xlink="http://www.w3.org/1999/xlink" x="0px" y="0px"
	 viewBox="0 0 629 597" style="enable-background:new 0 0 629 597;" xml:space="preserve">
<style type="text/css">
	.st0{fill:#005EA7;}
	.st1{fill:none;stroke:#FFFFFF;stroke-width:11.816;stroke-miterlimit:2.6131;}
	.st2{fill:#FFFFFF;}
</style>
<g>
	<g>
		<polygon class="st0" points="0.2,0.2 600.2,0.2 600.2,596.8 0.2,596.8 		"/>
		<path class="st1" d="M51,17.8h499.3c18.3,0,33.2,14.9,33.2,33.2v496.1c0,18.3-14.9,33.2-33.2,33.2H51c-18.3,0-33.2-14.9-33.2-33.2
			V51C17.8,32.7,32.8,17.8,51,17.8L51,17.8z"/>
		<path class="st2" d="M155.5,74.5l78,131.6c0.2,4.7,0,8.6-7.7,8.6l-46.8-8.5v312.1l-47-0.1V206.1l-46.6,8.7c-7.9,0-7.9-4.3-8-8.6
			L155.5,74.5L155.5,74.5z"/>
		<path class="st2" d="M444,74.2l78,131.6c0,4.8,0,8.5-7.5,8.5l-47.3-8.5v109c1.9,65.2-11.3,91.2-46.8,125.5l-137.2,78.2l-23.4-40.1
			l118.1-67.1c38.2-28.6,43.6-52.3,42.5-97.9V205.8l-46.8,8.5c-7.5,0-7.5-4.2-7.5-8.5L444,74.2L444,74.2z"/>
	</g>
</g>
</svg>
