<?xml version="1.0" encoding="utf-8"?>
<!-- Generator: Adobe Illustrator 19.2.0, SVG Export Plug-In . SVG Version: 6.00 Build 0)  -->
<svg version="1.1" id="Livello_1" xmlns="http://www.w3.org/2000/svg" xmlns:xlink="http://www.w3.org/1999/xlink" x="0px" y="0px"
	 viewBox="0 0 870.8 595.5" style="enable-background:new 0 0 870.8 595.5;" xml:space="preserve">
<style type="text/css">
	.st0{fill:#008E43;}
	.st1{fill:none;stroke:#FFFFFF;stroke-width:11.7939;stroke-miterlimit:2.6131;}
	.st2{fill:#FFFFFF;}
</style>
<g>
	<g>
		<polygon class="st0" points="0.4,0.4 870.4,0.4 870.4,595.2 0.4,595.2 		"/>
		<path class="st1" d="M50.7,17.3h769.4c18.9,0,33.4,14.9,33.4,33.4v494.2c0,19.3-14.9,33.4-33.4,33.4H50.7
			c-18.5,0-33.4-13.8-33.4-33.4V50.7C17.3,31.8,31.9,17.3,50.7,17.3L50.7,17.3z"/>
		<path class="st2" d="M154.8,74.2l76.7,131.2c0.2,4.7,0,8.6-7.6,8.6l-46.1-8.5v311.3l-46.3-0.1V205.4l-45.8,8.7
			c-7.8,0-7.8-4.3-7.8-8.6L154.8,74.2L154.8,74.2z"/>
		<path class="st2" d="M433.4,74.2l76.7,131.2c0.2,4.7,0,8.6-7.6,8.6l-46.1-8.5v311.3l-46.3-0.1V205.4l-45.8,8.7
			c-7.8,0-7.8-4.3-7.8-8.6L433.4,74.2L433.4,74.2z"/>
		<path class="st2" d="M759.1,517.3h-47.3c-6.9-40.5-24.9-56.1-62.2-76.7l-56.1-32l-15.6,44.2c-3.7,6.4-7.4,4.2-11.1,2.1l-75.1-132
			l151.8-0.8c4.2,2.4,7.4,4.2,3.7,10.6l-30.7,36l57.1,32.8c57.4,30.9,73.3,55,85.4,102.4L759.1,517.3L759.1,517.3z"/>
	</g>
</g>
</svg>
