<?xml version="1.0" encoding="utf-8"?>
<!-- Generator: Adobe Illustrator 19.2.0, SVG Export Plug-In . SVG Version: 6.00 Build 0)  -->
<svg version="1.1" id="Livello_1" xmlns="http://www.w3.org/2000/svg" xmlns:xlink="http://www.w3.org/1999/xlink" x="0px" y="0px"
	 viewBox="0 0 585 723.1" style="enable-background:new 0 0 585 723.1;" xml:space="preserve">
<style type="text/css">
	.st0{fill:#FFFFFF;stroke:#1A171B;stroke-width:0.9532;stroke-miterlimit:2.6131;}
	.st1{fill:#FFFFFF;stroke:#1A171B;stroke-width:9.5321;stroke-miterlimit:2.6131;}
	.st2{fill:#1A171B;stroke:#1A171B;stroke-width:0.9532;stroke-miterlimit:2.6131;}
</style>
<g>
	<g>
		<polygon class="st0" points="101,0.5 584.6,0.5 584.6,720.5 101,720.5 		"/>
		<path class="st1" d="M152.9,15.5h379.8c21.4,0,38.9,17.5,38.9,38.9v613.2c0,21.4-17.5,38.9-38.9,38.9H152.9
			c-21.4,0-38.9-17.5-38.9-38.9V54.4C114,33,131.5,15.5,152.9,15.5L152.9,15.5z"/>
		<path class="st2" d="M455.2,126.1L354.5,229.6c-5.3,1.1-9.4-1.5-10.7-6.4l-2.3-42.9c-35.6-0.3-52.5,13.3-54.2,39.8v94.7l-42.9-0.1
			v-94.5c-0.1-50.3,38.5-79,85.1-83.9l-19.3-38.4c-1.5-5.1,1.1-9.2,6-10.7L455.2,126.1L455.2,126.1z"/>
		<g>
			<path class="st2" d="M306.3,643.1c-8.9,0-15.6,6.7-15.6,15.3s6.7,15.6,15.6,15.6c8.6,0,15.6-7,15.6-15.6S314.9,643.1,306.3,643.1
				z M306.3,664.8c-3.5,0-6.7-2.9-6.7-6.4s3.2-6.7,6.7-6.7c4.2,0,6.7,3.2,6.7,6.7S310.4,664.8,306.3,664.8z"/>
			<path class="st2" d="M297.4,641.9h-25.7c6.7,2.5,10.8,10.8,11.4,16.5h4.5C287.6,652.7,290.1,645.1,297.4,641.9z"/>
			<path class="st2" d="M255.5,641.9h-53.1v8.6l21,7.9H245C245.3,652,249.8,644.4,255.5,641.9z"/>
			<path class="st2" d="M264.1,643.1c-8.3,0-15.3,6.7-15.3,15.3s7,15.6,15.3,15.6s15.9-7,15.9-15.6S272.3,643.1,264.1,643.1z
				 M264.1,664.8c-3.5,0-6.4-2.9-6.4-6.4s2.9-6.7,6.4-6.7c3.8,0,7,3.2,7,6.7S267.9,664.8,264.1,664.8z"/>
			<path class="st2" d="M324.7,658.4H387v-16.5h-73.1C322.8,646.3,323.7,652.4,324.7,658.4z"/>
			<path class="st2" d="M472.2,595.5h-34.6v36.2h-46.4v26.7h5.7c1.3-24.2,35.3-25.4,37.8,0c1.3,0,2.9,0,5.4,0
				c1-23.8,36.5-25.4,37.5,0h5.7v-33L472.2,595.5z M442.3,619.6v-17.5h27.3l7,17.5H442.3z"/>
			<path class="st2" d="M458.8,643.1c-8.3,0-15.3,6.7-15.3,15.3s7,15.6,15.3,15.6c8.6,0,15.9-7,15.9-15.6S467.4,643.1,458.8,643.1z
				 M458.8,664.8c-3.5,0-6.7-2.9-6.7-6.4s3.2-6.7,6.7-6.7c3.9,0,6.7,3.2,6.7,6.7S462.6,664.8,458.8,664.8z"/>
			<polygon class="st2" points="433.4,627.5 433.4,574.5 202.4,574.5 202.4,637.4 387,637.4 386.4,627.5 			"/>
			<path class="st2" d="M415.6,643.1c-8.6,0-15.6,6.7-15.6,15.3s7,15.6,15.6,15.6s15.6-7,15.6-15.6
				C431.2,649.8,424.2,643.1,415.6,643.1z M415.6,664.8c-3.2,0-6.4-2.9-6.4-6.4s3.2-6.7,6.4-6.7c4.2,0,6.7,3.2,6.7,6.7
				S419.7,664.8,415.6,664.8z"/>
		</g>
		<g>
			<path class="st2" d="M337.4,485.4h-29.1v15h20.8C329.1,494.4,332.1,487.6,337.4,485.4z"/>
			<path class="st2" d="M246.9,485.3c-8.3,0-15,6.8-15,15s6.8,15.3,15,15.3c8.3,0,15-7,15-15.3S255.1,485.3,246.9,485.3z
				 M246.9,507.9c-4,0-7.3-3.5-7.3-7.5s3.3-7.3,7.3-7.3s7,3.3,7,7.3S250.9,507.9,246.9,507.9z"/>
			<path class="st2" d="M265.5,500.4h21v-15h-29.8C262,488.4,265.5,494.4,265.5,500.4z"/>
			<polygon class="st2" points="436.9,416.7 308.3,416.7 308.3,474.6 286.5,474.6 286.5,416.7 202,416.7 202,481.6 436.9,481.6 			
				"/>
			<path class="st2" d="M236.9,485.3H202v15h26.6C228.6,494.3,233.1,487.3,236.9,485.3z"/>
			<path class="st2" d="M472.2,437.2h-31.6l0.2,48.1l-83-0.3c4.3,3.8,7.8,9.3,7.8,15.3h74.5v0.1c1.3-25.3,36.9-24.8,37.6,0h5.5
				v-34.1L472.2,437.2z M445.7,463v-19.1h22.8l7,19.1H445.7z"/>
			<path class="st2" d="M458.9,485.3c-8,0-14.8,6.8-14.8,15s6.8,15.3,14.8,15.3c8.5,0,15.5-7,15.5-15.3S467.5,485.3,458.9,485.3z
				 M458.9,507.9c-4,0-7-3.2-7-7.5c0-3.8,3-7.3,7-7.3c4.1,0,7.8,3.5,7.8,7.3C466.7,504.6,462.9,507.9,458.9,507.9z"/>
			<path class="st2" d="M347.4,485.3c-7.8,0-15.3,6.8-15.3,15s7.5,15.3,15.3,15.3c8.3,0,14.8-7,14.8-15.3S355.7,485.3,347.4,485.3z
				 M347.4,507.9c-4,0-7.3-3.2-7.3-7.5c0-3.8,3.3-7.3,7.3-7.3c3.7,0,7.3,3.5,7.3,7.3C354.7,504.6,351.2,507.9,347.4,507.9z"/>
		</g>
	</g>
</g>
</svg>
