<?xml version="1.0" encoding="utf-8"?>
<!-- Generator: Adobe Illustrator 19.2.0, SVG Export Plug-In . SVG Version: 6.00 Build 0)  -->
<svg version="1.1" id="Livello_1" xmlns="http://www.w3.org/2000/svg" xmlns:xlink="http://www.w3.org/1999/xlink" x="0px" y="0px"
	 viewBox="0 0 587.1 722.5" style="enable-background:new 0 0 587.1 722.5;" xml:space="preserve">
<style type="text/css">
	.st0{fill:#FFEC00;stroke:#1A171B;stroke-width:0.9532;stroke-miterlimit:2.6131;}
	.st1{fill:none;stroke:#1A171B;stroke-width:9.5321;stroke-miterlimit:2.6131;}
	.st2{fill:#1A171B;stroke:#1A171B;stroke-width:0.9532;stroke-miterlimit:2.6131;}
	.st3{fill:#1A171B;stroke:#1A171B;stroke-width:2.5419;stroke-miterlimit:2.6131;}
</style>
<g>
	<g>
		<polygon class="st0" points="102.2,1.1 585.8,1.1 585.8,721.1 102.2,721.1 		"/>
		<path class="st1" d="M154.1,16.1h379.8c21.4,0,38.9,17.5,38.9,38.9v613.2c0,21.4-17.5,38.9-38.9,38.9H154.1
			c-21.4,0-38.9-17.5-38.9-38.9V55C115.2,33.6,132.7,16.1,154.1,16.1L154.1,16.1z"/>
		<path class="st2" d="M485.7,198.9l-127.9,70.9c-4.6,0.2-8.4,0-8.4-7l8.3-42.6l-155,0.1l0.1-42.7l155-0.1l-8.4-42.3
			c0-7.2,4.2-7.2,8.4-7.2L485.7,198.9L485.7,198.9z"/>
		<g>
			<polygon class="st3" points="412.3,476.3 204.5,476.3 204.2,579.9 412.3,579.5 			"/>
			<path class="st3" d="M250.2,586.2h-45.8v11.1l31.8,12.1C235.6,599.5,243.2,588.7,250.2,586.2z"/>
			<path class="st3" d="M265.1,586.5c-13.3,0-24.1,10.8-24.1,24.1s10.8,24.1,24.1,24.1c13,0,24.1-10.8,24.1-24.1
				C289.3,597.3,278.2,586.5,265.1,586.5z M265.1,622.5c-6.4,0-11.8-5.4-11.8-11.8c0-6.4,5.4-11.8,11.8-11.8s11.5,5.4,11.4,11.8
				C276.5,617.1,271.5,622.5,265.1,622.5z"/>
			<path class="st3" d="M468.5,509.7h-49.9v76.6H280.7c7.3,2.5,13,13,13.7,24.5h124.2c1.9-40,57.8-40,59.1,0h9.2v-0.1v-54.6
				L468.5,509.7z M426.2,550v-29.9h37.2l11.4,29.9H426.2z"/>
			<path class="st3" d="M447.8,586.5c-13,0-24.2,10.8-24.2,24.1s11.1,24.1,24.2,24.1c13.3,0,24.5-10.8,24.5-24.1
				S461.2,586.5,447.8,586.5z M447.8,622.5c-6.4,0-11.8-5.4-11.8-11.8c0-6.4,5.4-11.8,11.8-11.8c6.7,0,11.8,5.4,11.8,11.8
				S454.5,622.5,447.8,622.5z"/>
		</g>
	</g>
</g>
</svg>
