<?xml version="1.0" encoding="utf-8"?>
<!-- Generator: Adobe Illustrator 19.2.0, SVG Export Plug-In . SVG Version: 6.00 Build 0)  -->
<svg version="1.1" id="Livello_1" xmlns="http://www.w3.org/2000/svg" xmlns:xlink="http://www.w3.org/1999/xlink" x="0px" y="0px"
	 viewBox="0 0 556.3 721.2" style="enable-background:new 0 0 556.3 721.2;" xml:space="preserve">
<style type="text/css">
	.st0{fill:#005EA7;}
	.st1{fill:none;stroke:#FFFFFF;stroke-width:9.1371;stroke-miterlimit:2.6131;}
	.st2{fill:#FFFFFF;stroke:#FFFFFF;stroke-width:0.9137;stroke-miterlimit:2.6131;}
	.st3{fill:#1A171B;stroke:#1A171B;stroke-width:0.6091;stroke-miterlimit:2.6131;}
</style>
<g>
	<g>
		<polygon class="st0" points="100.5,0 556.3,0 556.3,720 100.5,720 		"/>
		<path class="st1" d="M149.3,14h358.2c20.3,0,36.4,16.6,36.4,36.7v619.4c0,20.1-16.3,36.7-36.4,36.7H149.3
			c-20.1,0-36.4-16.3-36.4-36.7V50.6C112.8,30.3,128.9,14,149.3,14L149.3,14z"/>
		<polygon class="st2" points="161.2,60.3 495.3,60.3 495.3,394.4 161.2,394.4 		"/>
		<polygon class="st3" points="334.1,207.1 328.1,214.9 328.1,360.6 334.1,360.6 363.3,360.6 369.7,360.6 369.7,214.9 363.3,207.1 
			363.3,175.6 367.9,170.5 388,170.5 388,147.2 363.3,147.2 363.3,131.2 387.8,131.2 387.8,94.4 322,94.4 268.3,108.2 268.3,131.2 
			334.1,131.2 334.1,147.2 268.3,147.2 268.3,170.5 329.5,170.5 334.1,175.6 		"/>
	</g>
</g>
</svg>
