<?xml version="1.0" encoding="utf-8"?>
<!-- Generator: Adobe Illustrator 19.2.0, SVG Export Plug-In . SVG Version: 6.00 Build 0)  -->
<svg version="1.1" id="Livello_1" xmlns="http://www.w3.org/2000/svg" xmlns:xlink="http://www.w3.org/1999/xlink" x="0px" y="0px"
	 viewBox="0 0 556.3 721.2" style="enable-background:new 0 0 556.3 721.2;" xml:space="preserve">
<style type="text/css">
	.st0{fill:#005EA7;}
	.st1{fill:none;stroke:#FFFFFF;stroke-width:9.1371;stroke-miterlimit:2.6131;}
	.st2{fill:#FFFFFF;stroke:#FFFFFF;stroke-width:0.9137;stroke-miterlimit:2.6131;}
	.st3{fill:#1A171B;stroke:#1A171B;stroke-width:0.9137;stroke-miterlimit:2.6131;}
</style>
<g>
	<g>
		<polygon class="st0" points="100,0.4 555.8,0.4 555.8,720.4 100,720.4 		"/>
		<path class="st1" d="M148.8,14.4H507c20.3,0,36.4,16.6,36.4,36.7v619.4c0,20.1-16.3,36.7-36.4,36.7H148.8
			c-20.1,0-36.4-16.3-36.4-36.7V51C112.3,30.7,128.4,14.4,148.8,14.4L148.8,14.4z"/>
		<polygon class="st2" points="160.7,60.7 494.8,60.7 494.8,394.8 160.7,394.8 		"/>
		<path class="st3" d="M316.1,301.2l47.1,56.4l45.3,3.2l-72.8-91.4c-12.4-19.6-29.2-45.8-42.3-64.9L241,103.9l-15.5,42.7l31,63.1
			L316.1,301.2L316.1,301.2z M361,284.2l57.5,73.6l11-21.4l-41.6-53.1L361,284.2L361,284.2z"/>
		<polygon class="st3" points="291.8,178.3 247.8,95.7 271.7,94.5 303.5,153.8 		"/>
	</g>
</g>
</svg>
