<?xml version="1.0" encoding="utf-8"?>
<!-- Generator: Adobe Illustrator 19.2.0, SVG Export Plug-In . SVG Version: 6.00 Build 0)  -->
<svg version="1.1" id="Livello_1" xmlns="http://www.w3.org/2000/svg" xmlns:xlink="http://www.w3.org/1999/xlink" x="0px" y="0px"
	 viewBox="0 0 960 960" style="enable-background:new 0 0 960 960;" xml:space="preserve">
<style type="text/css">
	.st0{fill-rule:evenodd;clip-rule:evenodd;fill:#005EA7;}
	.st1{fill-rule:evenodd;clip-rule:evenodd;fill:#005EA7;stroke:#FFFFFF;stroke-width:9.1371;stroke-miterlimit:2.6131;}
	.st2{fill-rule:evenodd;clip-rule:evenodd;fill:#FFFFFF;stroke:#FFFFFF;stroke-width:0.9137;stroke-miterlimit:2.6131;}
	.st3{fill-rule:evenodd;clip-rule:evenodd;fill:#1A171B;stroke:#1A171B;stroke-width:0.9137;stroke-miterlimit:2.6131;}
	.st4{fill-rule:evenodd;clip-rule:evenodd;fill:#008E43;stroke:#008E43;stroke-width:0.9137;stroke-miterlimit:2.6131;}
</style>
<g>
	<g>
		<polygon class="st0" points="252.1,120 707.9,120 707.9,840 252.1,840 252.1,120 		"/>
		<path class="st1" d="M300.9,134h358.2c20.3,0,36.4,16.6,36.4,36.7v619.4c0,20.1-16.3,36.7-36.4,36.7H300.9
			c-20.1,0-36.4-16.3-36.4-36.7V170.6C264.4,150.3,280.5,134,300.9,134L300.9,134z"/>
		<polygon class="st2" points="312.8,180.3 646.9,180.3 646.9,514.4 312.8,514.4 312.8,180.3 		"/>
		<path class="st3" d="M421.2,445.9v-76.4h-16.8v-70.1h-9.6c-4.8,0-8.5-3.8-8.5-8.5v-58.2c0-4.8,3.8-8.5,8.5-8.5h108
			c4.8,0,8.5,3.8,8.5,8.5v8.3h17.3l0.1-34H369.4l-0.1,110.9h17v128.1H421.2z"/>
		<path class="st4" d="M430.8,488.2V360.2h-17l0.1-110.9h159.4l-0.4,110.9h-17v4.5c2.3,0,6.8,0,7.1,0c11.4,1.4,22.7,2.7,22.7,29.7
			v70.9c0,13,21.4,14.3,21.5,0.1l-21.5-170.5h-6.9v-17H590c4.2-0.1,8.4,4.2,9.8,9.8l22.5,177.8c0.3,32.8-52.4,32.8-52.4-0.1v-69.5
			c0-7.1,0-14.6-7.1-15.6h-7.1v108H430.8L430.8,488.2z M439.3,266.4h108c4.8,0,8.5,3.8,8.5,8.5v58.2c0,4.8-3.8,8.5-8.5,8.5h-108
			c-4.8,0-8.5-3.8-8.5-8.5V275C430.8,270.2,434.5,266.4,439.3,266.4L439.3,266.4z"/>
	</g>
</g>
</svg>
