<?xml version="1.0" encoding="utf-8"?>
<!-- Generator: Adobe Illustrator 19.2.0, SVG Export Plug-In . SVG Version: 6.00 Build 0)  -->
<svg version="1.1" id="Livello_1" xmlns="http://www.w3.org/2000/svg" xmlns:xlink="http://www.w3.org/1999/xlink" x="0px" y="0px"
	 viewBox="0 0 556.3 721.2" style="enable-background:new 0 0 556.3 721.2;" xml:space="preserve">
<style type="text/css">
	.st0{fill:#005EA7;}
	.st1{fill:none;stroke:#FFFFFF;stroke-width:9.1371;stroke-miterlimit:2.6131;}
	.st2{fill:#FFFFFF;stroke:#FFFFFF;stroke-width:0.9137;stroke-miterlimit:2.6131;}
	.st3{fill:#1A171B;}
	.st4{fill:#FFFFFF;}
</style>
<g>
	<g>
		<polygon class="st0" points="100.5,1.2 556.3,1.2 556.3,721.2 100.5,721.2 		"/>
		<path class="st1" d="M149.3,15.2h358.2c20.3,0,36.4,16.6,36.4,36.7v619.4c0,20.1-16.3,36.7-36.4,36.7H149.3
			c-20.1,0-36.4-16.3-36.4-36.7V51.8C112.8,31.5,128.9,15.2,149.3,15.2L149.3,15.2z"/>
		<polygon class="st2" points="161.2,61.5 495.3,61.5 495.3,395.6 161.2,395.6 		"/>
		<path class="st3" d="M182.2,259.2l2.2-32h282.5V250l-46.3,7.4c1.8-30.2-46.8-33.3-44.2,2.5H250.1c3.1-35.8-46.8-34.6-43.5-0.7
			L182.2,259.2L182.2,259.2z"/>
		<polygon class="st3" points="218.8,222.8 218.8,182.7 458.9,182.7 466.7,216.7 466.9,222.8 		"/>
		<polygon class="st4" points="227.2,216 227.2,189.6 266,189.4 266,216 		"/>
		<polygon class="st4" points="274.2,216 274.2,189.6 312.9,189.4 312.9,216 		"/>
		<polygon class="st4" points="321.1,216 321.1,189.6 359.9,189.4 359.9,216 		"/>
		<polygon class="st4" points="368.1,216 368.1,189.6 406.8,189.4 406.8,216 		"/>
		<polygon class="st4" points="414.9,216 414.9,189.6 452.6,189.4 458.7,216 		"/>
		<path class="st3" d="M228.2,237.7c9.8,0,17.9,8,17.9,17.9s-8,17.9-17.9,17.9c-9.8,0-17.9-8-17.9-17.9S218.3,237.7,228.2,237.7
			L228.2,237.7z"/>
		<path class="st3" d="M398.3,237.7c9.9,0,17.9,8,17.9,17.9s-8,17.9-17.9,17.9c-9.8,0-17.9-8-17.9-17.9
			C380.5,245.7,388.5,237.7,398.3,237.7L398.3,237.7z"/>
		<path class="st4" d="M228.2,247.5c4.4,0,8,3.6,8,8s-3.6,8-8,8s-8-3.6-8-8C220.1,251.1,223.7,247.5,228.2,247.5L228.2,247.5z"/>
		<path class="st4" d="M398.3,247.5c4.4,0,8,3.6,8,8s-3.6,8-8,8s-8-3.6-8-8C390.2,251.1,393.9,247.5,398.3,247.5L398.3,247.5z"/>
		<polygon class="st3" points="184.4,222.8 185.5,182.6 212.2,182.6 212.2,222.9 184.4,222.8 		"/>
		<polygon class="st4" points="190.7,216 191.6,189.5 206,189.5 206,216 190.7,216 		"/>
	</g>
</g>
</svg>
