<?xml version="1.0" encoding="utf-8"?>
<!-- Generator: Adobe Illustrator 19.2.0, SVG Export Plug-In . SVG Version: 6.00 Build 0)  -->
<svg version="1.1" id="Livello_1" xmlns="http://www.w3.org/2000/svg" xmlns:xlink="http://www.w3.org/1999/xlink" x="0px" y="0px"
	 viewBox="0 0 960 960" style="enable-background:new 0 0 960 960;" xml:space="preserve">
<style type="text/css">
	.st0{fill-rule:evenodd;clip-rule:evenodd;fill:#005EA7;}
	.st1{fill:none;stroke:#FFFFFF;stroke-width:9.1371;stroke-miterlimit:2.6131;}
	.st2{fill-rule:evenodd;clip-rule:evenodd;fill:#FFFFFF;stroke:#FFFFFF;stroke-width:0.9137;stroke-miterlimit:2.6131;}
	.st3{fill-rule:evenodd;clip-rule:evenodd;fill:#1A171B;stroke:#1A171B;stroke-width:2.4366;stroke-miterlimit:2.6131;}
	.st4{fill-rule:evenodd;clip-rule:evenodd;fill:#1A171B;}
	.st5{fill-rule:evenodd;clip-rule:evenodd;fill:#FFFFFF;}
	.st6{fill-rule:evenodd;clip-rule:evenodd;fill:#1A171B;stroke:#1A171B;stroke-width:0.9137;stroke-miterlimit:2.6131;}
</style>
<g>
	<g>
		<polygon class="st0" points="252.1,120 707.9,120 707.9,840 252.1,840 252.1,120 		"/>
		<path class="st1" d="M300.9,134h358.2c20.3,0,36.4,16.6,36.4,36.7v619.4c0,20.1-16.3,36.7-36.4,36.7H300.9
			c-20.1,0-36.4-16.3-36.4-36.7V170.6C264.4,150.3,280.5,134,300.9,134L300.9,134z"/>
		<polygon class="st2" points="312.8,180.3 646.9,180.3 646.9,514.4 312.8,514.4 312.8,180.3 		"/>
		<polygon class="st3" points="329.4,354 337,328.5 362.2,328.5 362.2,354 329.4,354 		"/>
		<path class="st4" d="M367,355.9v-32.4h-29.1c0.2-5,5-10.2,10.2-10.2h72l33.9-23.7l22.8,0.2v6.1h-20.4L431.5,313h178.4
			c4.7,0,10.2,2.9,12.8,10.6L631,355l0.2,0.5L367,355.9L367,355.9z"/>
		<polygon class="st5" points="372.5,349.5 372.7,323.5 417.5,323.5 417.5,348.9 372.5,349.5 		"/>
		<polygon class="st5" points="422.5,349.6 422.4,322.8 467.4,322.8 467.4,348.9 422.5,349.6 		"/>
		<polygon class="st5" points="472.2,349.6 472.1,322.8 518.8,322.8 518.8,348.9 472.2,349.6 		"/>
		<polygon class="st5" points="524.2,349.6 523.6,322.8 569.5,322.8 569.5,348.9 524.2,349.6 		"/>
		<polygon class="st5" points="573.9,349.6 574,322.8 615.2,322.8 623.5,349.6 573.9,349.6 		"/>
		<polygon class="st5" points="335.6,348.9 340.9,333.7 358.1,333 358.1,348.9 335.6,348.9 		"/>
		<path class="st6" d="M328.9,379.5c0-4.1,0-9.7,0-15.2l301.5-0.1c0,5,0.1,7.5,0.1,12.5c0.1,5-5,7.6-10,7.6l-43.5,0.1
			c0,0.1,0.1,0.1,0.1,0.1c0,5.5-4.5,10-10,10c-5.7,0-10.2-4.5-10.2-10c0,0,0,0,0-0.1l-12.6,0.1c0,5.4-4.6,10-10,10
			c-5.7,0-10.3-4.6-10.2-10.2H420c0,0.1,0.1,0.1,0.1,0.1c0,5.5-4.5,10-10,10c-5.7,0-10.2-4.5-10.2-10c0,0,0,0,0-0.1h-12.9
			c0,0.1,0.1,0.1,0.1,0.1c0,5.5-4.5,10-10,10c-5.7,0-10.2-4.5-10.2-10c0,0,0,0,0-0.1L328.9,379.5L328.9,379.5z"/>
	</g>
</g>
</svg>
