<?xml version="1.0" encoding="utf-8"?>
<!-- Generator: Adobe Illustrator 19.2.0, SVG Export Plug-In . SVG Version: 6.00 Build 0)  -->
<svg version="1.1" id="Livello_1" xmlns="http://www.w3.org/2000/svg" xmlns:xlink="http://www.w3.org/1999/xlink" x="0px" y="0px"
	 viewBox="0 0 556.3 721.2" style="enable-background:new 0 0 556.3 721.2;" xml:space="preserve">
<style type="text/css">
	.st0{fill:#916740;}
	.st1{fill:none;stroke:#FFFFFF;stroke-width:9.1371;stroke-miterlimit:2.6131;}
	.st2{fill:#FFFFFF;stroke:#FFFFFF;stroke-width:0.9137;stroke-miterlimit:2.6131;}
	.st3{fill:#1A171B;}
	.st4{fill:#1A171B;stroke:#1A171B;stroke-width:1.5228;stroke-miterlimit:2.6131;}
	.st5{fill:#FFFFFF;stroke:#FFFFFF;stroke-width:1.5228;stroke-miterlimit:2.6131;}
	.st6{fill:#1A171B;stroke:#1A171B;stroke-width:0.9137;stroke-miterlimit:2.6131;}
</style>
<g>
	<g>
		<polygon class="st0" points="100.5,1.2 556.3,1.2 556.3,721.2 100.5,721.2 		"/>
		<path class="st1" d="M149.3,15.2h358.2c20.3,0,36.4,16.6,36.4,36.7v619.4c0,20.1-16.3,36.7-36.4,36.7H149.3
			c-20.1,0-36.4-16.3-36.4-36.7V51.8C112.8,31.5,128.9,15.2,149.3,15.2L149.3,15.2z"/>
		<polygon class="st2" points="161.2,61.5 495.3,61.5 495.3,395.6 161.2,395.6 		"/>
		<polygon class="st3" points="286.7,216.6 245.1,216.6 328.5,119.5 411.7,216.6 370.8,216.6 328.8,167.4 		"/>
		<polygon class="st3" points="319,92.9 309.8,92.9 328.1,114.2 346.4,92.9 337.4,92.9 328.2,103.7 		"/>
		<path class="st4" d="M206.7,343.7l0.3-7.6h28.2l-1.8-36.4l32.5,0.1v36.4l32.5,0.1v-36.4h118.5l-5.9,43.9l-40,0.1
			c-2.1-26.8-44-26.9-45.8-0.1L206.7,343.7L206.7,343.7z"/>
		<polygon class="st4" points="233.4,293.3 244.8,246.2 412.9,246.2 416.8,293.3 298.3,293.3 298.2,252.2 265.8,252.1 265.9,293.3 
					"/>
		<polygon class="st5" points="347.9,286.7 348,252.1 406.5,252.1 409.8,286.8 		"/>
		<path class="st6" d="M348,337.9c4.8,0,8.7,3.9,8.7,8.7c0,4.8-3.9,8.7-8.7,8.7c-4.8,0-8.7-3.9-8.7-8.7
			C339.2,341.8,343.2,337.9,348,337.9L348,337.9z M348,329.5c9.5,0,17.2,7.7,17.2,17.2s-7.7,17.2-17.2,17.2s-17.2-7.7-17.2-17.2
			S338.5,329.5,348,329.5L348,329.5z"/>
	</g>
</g>
</svg>
