<?xml version="1.0" encoding="utf-8"?>
<!-- Generator: Adobe Illustrator 19.2.0, SVG Export Plug-In . SVG Version: 6.00 Build 0)  -->
<svg version="1.1" id="Livello_1" xmlns="http://www.w3.org/2000/svg" xmlns:xlink="http://www.w3.org/1999/xlink" x="0px" y="0px"
	 viewBox="0 0 960 960" style="enable-background:new 0 0 960 960;" xml:space="preserve">
<style type="text/css">
	.st0{fill-rule:evenodd;clip-rule:evenodd;fill:#005EA7;}
	.st1{fill:none;stroke:#FFFFFF;stroke-width:9.1371;stroke-miterlimit:2.6131;}
	.st2{fill-rule:evenodd;clip-rule:evenodd;fill:#FFFFFF;stroke:#FFFFFF;stroke-width:0.9137;stroke-miterlimit:2.6131;}
	.st3{fill-rule:evenodd;clip-rule:evenodd;fill:#1A171B;}
</style>
<g>
	<g>
		<polygon class="st0" points="252.1,120 707.9,120 707.9,840 252.1,840 252.1,120 		"/>
		<path class="st1" d="M300.9,134h358.2c20.3,0,36.4,16.6,36.4,36.7v619.4c0,20.1-16.3,36.7-36.4,36.7H300.9
			c-20.1,0-36.4-16.3-36.4-36.7V170.6C264.4,150.3,280.5,134,300.9,134L300.9,134z"/>
		<polygon class="st2" points="312.8,180.3 646.9,180.3 646.9,514.4 312.8,514.4 312.8,180.3 		"/>
		<path class="st3" d="M455.6,309.8c0.1,0.2,0.2,0.5,0.3,0.9c0.2,2.9,1.1,4.9,2.9,6.4l143.6,125.1c11.1,9.7,1.2,23-0.6,24.7
			c-1.8,1.8-14.7,12-24.7,1.2c-42.8-46.7-85.6-93.4-128.3-140.1c-2.2-1.6-3.8-2.6-6.9-3.2l0-0.3c-17.8,2.6-47.2,2.7-69-18.5
			c-25.2-24.6-31.8-59-14.7-76.5c17.1-17.6,51.7-11.8,76.9,12.7C456.5,263.1,455.5,289.7,455.6,309.8L455.6,309.8z"/>
		<path class="st3" d="M591.6,224l2.6,2.5l-55.8,51.1l3.5,3.7l55.9-51.3l3.1,3.1l-52.9,54l3.7,3.6l52.9-54l3.1,3l-50,57l3.8,3.4
			l49.9-56.9l2.5,2.5l-47.6,67.5c-8.8,12.2-27,8.7-39.1,10.6c-0.4,0.1-1.1,0.5-2.3,1.3L400.7,468c-9.7,11.1-23,1.2-24.7-0.6
			c-1.8-1.8-12-14.7-1.2-24.7L514,315.3c1-1.4,1.6-2.3,1.7-2.7c2.1-10.5-1.7-30.8,9.6-39.3L591.6,224L591.6,224z"/>
	</g>
</g>
</svg>
