<?xml version="1.0" encoding="utf-8"?>
<!-- Generator: Adobe Illustrator 19.2.0, SVG Export Plug-In . SVG Version: 6.00 Build 0)  -->
<svg version="1.1" id="Livello_1" xmlns="http://www.w3.org/2000/svg" xmlns:xlink="http://www.w3.org/1999/xlink" x="0px" y="0px"
	 viewBox="0 0 582.5 721.6" style="enable-background:new 0 0 582.5 721.6;" xml:space="preserve">
<style type="text/css">
	.st0{fill:#FFFFFF;stroke:#1A171B;stroke-width:0.9137;stroke-miterlimit:2.6131;}
	.st1{fill:none;stroke:#1A171B;stroke-width:9.1371;stroke-miterlimit:2.6131;}
	.st2{fill:#1A171B;}
	.st3{fill:#FFFFFF;}
	.st4{fill:#005EA7;stroke:#005EA7;stroke-width:0.9137;stroke-miterlimit:2.6131;}
	.st5{fill:#FFFFFF;stroke:#005EA7;stroke-width:0.9137;stroke-miterlimit:2.6131;}
	.st6{fill:none;stroke:#1A171B;stroke-width:3.0457;stroke-miterlimit:2.6131;}
	.st7{fill:#E1001A;stroke:#E1001A;stroke-width:3.0457;stroke-miterlimit:2.6131;}
</style>
<g>
	<g>
		<polygon class="st0" points="98.7,0.7 581.7,0.7 581.7,720.7 98.7,720.7 		"/>
		<path class="st1" d="M147.5,14.7h385.4c20.3,0,36.4,16.6,36.4,36.7v619.4c0,20.1-16.3,36.7-36.4,36.7H147.5
			c-20.1,0-36.4-16.3-36.4-36.7V51.3C111.1,31,127.1,14.7,147.5,14.7L147.5,14.7z"/>
		<polygon class="st2" points="255.3,565.8 255.3,523.5 277.7,523.5 277.7,565.8 		"/>
		<path class="st2" d="M282,565.8v-19.1h52.1v19.1h-4.3c0-19.1-29.5-19.6-29.5,0H282L282,565.8z"/>
		<polygon class="st2" points="338.3,565.8 338.3,523.4 361.1,523.5 362.7,542.5 357.3,542.5 357.3,527.8 351.6,527.7 351.6,560.8 
			357.3,560.8 357.3,546.7 363.1,546.7 364.7,565.8 		"/>
		<polygon class="st2" points="171.8,565.8 170.3,546.7 175.7,546.7 175.7,560.8 180.6,560.8 180.6,527.7 175.7,527.7 175.7,542.5 
			169.8,542.5 168.3,523.6 194,523.5 194,565.8 		"/>
		<path class="st2" d="M198.2,565.8v-19.1H251v19.1h-19.1c-0.1-19.8-29.6-19.8-29.5,0H198.2L198.2,565.8z"/>
		<polygon class="st3" points="184.9,560.8 184.9,527.7 189.8,527.7 189.8,560.8 		"/>
		<polygon class="st3" points="259.4,560.9 259.4,527.7 264.3,527.7 264.3,560.8 		"/>
		<polygon class="st3" points="268.6,560.8 268.6,527.7 273.6,527.7 273.7,560.7 		"/>
		<polygon class="st3" points="342.5,560.8 342.5,527.6 347.5,527.6 347.5,560.8 		"/>
		<polygon class="st2" points="198.2,542.5 198.2,523.4 251,523.4 251,542.5 		"/>
		<polygon class="st2" points="282,542.5 282,523.4 334,523.4 334.1,542.5 		"/>
		<polygon class="st3" points="202.4,538.3 202.4,527.7 222.8,527.7 222.8,538.3 		"/>
		<polygon class="st3" points="227,538.3 227,527.7 246.8,527.7 246.8,538.3 		"/>
		<polygon class="st3" points="286.2,527.7 305.8,527.7 305.8,538.3 286.2,538.3 		"/>
		<polygon class="st3" points="310.1,538.3 310.1,527.7 329.9,527.7 329.9,538.3 		"/>
		<path class="st2" d="M217.3,553.8c6.6,0,12,5.4,12,12s-5.4,12-12,12s-12-5.4-12-12C205.3,559.1,210.7,553.8,217.3,553.8
			L217.3,553.8z M217.3,561c2.6,0,4.7,2.1,4.7,4.7s-2.1,4.7-4.7,4.7s-4.7-2.1-4.7-4.7S214.7,561,217.3,561L217.3,561z"/>
		<path class="st2" d="M315.1,561c2.6,0,4.7,2.1,4.7,4.7s-2.1,4.7-4.7,4.7s-4.7-2.1-4.7-4.7S312.6,561,315.1,561L315.1,561z
			 M315.1,553.8c6.6,0,12,5.4,12,12s-5.4,12-12,12s-12-5.4-12-12C303.2,559.1,308.5,553.8,315.1,553.8L315.1,553.8z"/>
		<path class="st4" d="M179.6,49.1h177.1c17.8,0,32.3,14.6,32.3,32.3v177.1c0,17.8-14.6,32.3-32.3,32.3H179.6
			c-17.8,0-32.3-14.6-32.3-32.3V81.4C147.2,63.6,161.8,49.1,179.6,49.1L179.6,49.1z"/>
		<path class="st5" d="M321.6,91.9c-23.2-16.2-49.9-16.8-82.8-16.6l-41.3,0.2v189.3h41.3v-72.2c25.2-0.4,53.7,2.2,74.7-10.4
			c15-9.5,25.5-24.1,27.4-41.5C343.4,122,334.7,103.9,321.6,91.9z M278.8,158.3c-13,2.4-26.3,1.5-40,1.7v-51.7
			c13,0,28.1-0.6,41.9,1.8c9.5,4.4,16,10,15.9,22.3S291.5,153.6,278.8,158.3z"/>
		<path class="st6" d="M179.3,427.5h177.1c17.8,0,32.3,14.6,32.3,32.3v177.1c0,17.8-14.6,32.3-32.3,32.3H179.3
			c-17.8,0-32.3-14.6-32.3-32.3V459.8C146.9,442.1,161.5,427.5,179.3,427.5L179.3,427.5z"/>
		<polygon class="st2" points="449.2,143.5 417.8,143.5 417.8,197.8 449.2,197.8 449.2,229.6 504,229.6 504,197.8 535.8,197.8 
			535.8,143.5 504,143.5 504,111.7 449.2,111.7 		"/>
		<path class="st7" d="M478.7,432.4c20.3,0,36.8,16.5,36.8,36.8S499,506,478.7,506s-36.8-16.5-36.8-36.8S458.4,432.4,478.7,432.4
			L478.7,432.4z"/>
		<path class="st3" d="M472.5,467c-2.1-1.1-3.6-2.6-4.5-4.5c-1-1.9-1.4-4-1.4-6.3c0-3.9,1.1-7.1,3.3-9.7c2.2-2.5,5.3-3.8,9.3-3.8
			s7.1,1.3,9.3,3.8s3.3,5.8,3.3,9.7c0,2.4-0.5,4.6-1.5,6.5s-2.4,3.3-4.3,4.3c2.3,1.2,4.1,2.9,5.3,5.1c1.2,2.2,1.8,4.8,1.8,7.7
			c0,4.8-1.2,8.7-3.7,11.8s-5.8,4.5-9.9,4.5c-3.8,0-7-1.2-9.5-3.7c-3-3-4.5-7-4.5-12.1c0-2.8,0.6-5.4,1.7-7.8
			C468.3,470.1,470,468.3,472.5,467L472.5,467z M474.1,456.9c0,2,0.5,3.6,1.4,4.7c0.9,1.1,2.1,1.7,3.6,1.7s2.7-0.6,3.7-1.7
			c0.9-1.1,1.4-2.7,1.4-4.7c0-1.9-0.5-3.4-1.4-4.5s-2.1-1.7-3.6-1.7s-2.8,0.6-3.7,1.7C474.6,453.5,474.1,455,474.1,456.9
			L474.1,456.9z M473.4,479.3c0,2.8,0.6,4.9,1.7,6.5c1.1,1.5,2.6,2.3,4.3,2.3s3-0.7,4.1-2.2s1.6-3.6,1.6-6.4c0-2.4-0.6-4.4-1.7-5.9
			c-1.1-1.5-2.5-2.2-4.2-2.2c-2,0-3.4,0.9-4.4,2.5C473.9,475.5,473.4,477.3,473.4,479.3L473.4,479.3z"/>
		<path class="st7" d="M478.7,591.3c20.3,0,36.8,16.5,36.8,36.8s-16.5,36.8-36.8,36.8s-36.8-16.5-36.8-36.8
			C441.9,607.9,458.4,591.3,478.7,591.3L478.7,591.3z"/>
		<path class="st3" d="M464.9,651.9v-9.7h-14.7v-8.1l15.6-30.7h5.8v30.7h4.5v8.2h-4.5v9.7h-6.7L464.9,651.9L464.9,651.9z
			 M464.9,634.1v-16.5l-8.2,16.5H464.9L464.9,634.1z"/>
		<path class="st3" d="M479.4,639.5l6.9-0.9c0.2,2.1,0.8,3.7,1.7,5c1,1.2,2.1,1.8,3.3,1.8c1.4,0,2.7-0.8,3.7-2.4
			c1-1.6,1.5-3.9,1.5-7.1c0-3-0.5-5.2-1.5-6.7s-2.3-2.2-3.9-2.2c-2,0-3.7,1.2-5.3,3.5l-5.6-1.1l3.5-25.2h18.2v8.7h-13l-1.1,8.2
			c1.5-1,3.1-1.6,4.7-1.6c3.1,0,5.6,1.5,7.8,4.5c2.1,3,3.2,6.9,3.2,11.7c0,4-0.9,7.5-2.6,10.6c-2.3,4.3-5.6,6.4-9.7,6.4
			c-3.3,0-6-1.2-8.1-3.6C481,646.8,479.8,643.6,479.4,639.5L479.4,639.5z"/>
	</g>
</g>
</svg>
