<?xml version="1.0" encoding="utf-8"?>
<!-- Generator: Adobe Illustrator 19.2.0, SVG Export Plug-In . SVG Version: 6.00 Build 0)  -->
<svg version="1.1" id="Livello_1" xmlns="http://www.w3.org/2000/svg" xmlns:xlink="http://www.w3.org/1999/xlink" x="0px" y="0px"
	 viewBox="0 0 960 960" style="enable-background:new 0 0 960 960;" xml:space="preserve">
<style type="text/css">
	.st0{fill:#FFFFFF;stroke:#1A171B;stroke-width:0.9137;stroke-miterlimit:2.6131;}
	.st1{fill:none;stroke:#1A171B;stroke-width:9.1371;stroke-miterlimit:2.6131;}
	.st2{fill-rule:evenodd;clip-rule:evenodd;fill:#005EA7;stroke:#005EA7;stroke-width:0.9137;stroke-miterlimit:2.6131;}
	.st3{fill-rule:evenodd;clip-rule:evenodd;fill:#FFFFFF;stroke:#005EA7;stroke-width:0.9137;stroke-miterlimit:2.6131;}
	.st4{fill:none;stroke:#1A171B;stroke-width:3.0457;stroke-miterlimit:2.6131;}
	.st5{fill-rule:evenodd;clip-rule:evenodd;fill:#1A171B;}
	.st6{fill-rule:evenodd;clip-rule:evenodd;fill:#1A171B;stroke:#1A171B;stroke-width:2.4366;stroke-miterlimit:2.6131;}
	.st7{fill-rule:evenodd;clip-rule:evenodd;fill:#FFFFFF;}
	.st8{fill-rule:evenodd;clip-rule:evenodd;fill:#1A171B;stroke:#1A171B;stroke-width:0.9137;stroke-miterlimit:2.6131;}
	.st9{fill-rule:evenodd;clip-rule:evenodd;fill:#ED7F00;}
</style>
<g>
	<g>
		<polygon class="st0" points="238.5,120 721.5,120 721.5,840 238.5,840 238.5,120 		"/>
		<path class="st1" d="M287.3,134h385.4c20.3,0,36.4,16.6,36.4,36.7v619.4c0,20.1-16.3,36.7-36.4,36.7H287.3
			c-20.1,0-36.4-16.3-36.4-36.7V170.6C250.9,150.3,266.9,134,287.3,134L287.3,134z"/>
		<path class="st2" d="M319.4,168.4h177.1c17.8,0,32.3,14.6,32.3,32.3v177.1c0,17.8-14.6,32.3-32.3,32.3H319.4
			c-17.8,0-32.3-14.6-32.3-32.3V200.7C287,182.9,301.6,168.4,319.4,168.4L319.4,168.4z"/>
		<path class="st3" d="M337.3,384.1V194.8l41.3-0.2c32.9-0.2,59.6,0.4,82.8,16.6c13.1,12,21.8,30.1,19.3,48.8
			c-1.9,17.4-12.4,32-27.4,41.5c-21,12.6-49.5,10-74.7,10.4v72.2H337.3L337.3,384.1z M378.6,279.3v-51.7c13,0,28.1-0.6,41.9,1.8
			c9.5,4.4,16,10,15.9,22.3c-0.1,12.3-5.1,21.2-17.8,25.9C405.6,280,392.3,279.1,378.6,279.3L378.6,279.3z"/>
		<path class="st4" d="M319.1,546.8h177.1c17.8,0,32.3,14.6,32.3,32.3v177.1c0,17.8-14.6,32.3-32.3,32.3H319.1
			c-17.8,0-32.3-14.6-32.3-32.3V579.1C286.7,561.4,301.3,546.8,319.1,546.8L319.1,546.8z"/>
		<polygon class="st5" points="589,262.8 557.6,262.8 557.6,317.1 589,317.1 589,348.9 643.8,348.9 643.8,317.1 675.6,317.1 
			675.6,262.8 643.8,262.8 643.8,231 589,231 589,262.8 		"/>
		<path class="st5" d="M357.4,678v-22.6h-20.3c0.1-3.5,3.5-7.1,7.1-7.1c104.2,0,56.2-0.2,173.6-0.2v29.7L357.4,678L357.4,678z"/>
		<polygon class="st6" points="331.1,676.7 336.5,659 354.1,659 354.1,676.7 331.1,676.7 		"/>
		<polygon class="st7" points="361.2,673.6 361.3,655.5 392.6,655.5 392.6,673.2 361.2,673.6 		"/>
		<polygon class="st7" points="396.1,673.7 395.9,655 427.3,655 427.3,673.2 396.1,673.7 		"/>
		<polygon class="st7" points="430.7,673.7 430.6,655 463.2,655 463.2,673.2 430.7,673.7 		"/>
		<polygon class="st7" points="470.2,673.7 469.9,655 501.8,655 501.8,673.2 470.2,673.7 		"/>
		<polygon class="st7" points="335.4,673.6 338.1,662.6 349.6,662.5 349.6,673.6 335.4,673.6 		"/>
		<path class="st8" d="M330.8,694.1c0-2.9,0-6.7,0-10.6l132.3,0.2v-8.6h7v8.6l47.7,0.1V694L330.8,694.1L330.8,694.1z"/>
		<polygon class="st7" points="504.9,673.7 505,655 517.9,655 517.9,673.7 504.9,673.7 		"/>
		<polygon class="st5" points="298,698.1 517.9,698.1 517.9,715.5 298,715.5 298,698.1 		"/>
		<path class="st5" d="M364.5,632.3l34.2-15.9l34.2,15.9l-34.2,15.9L364.5,632.3L364.5,632.3z M377.8,632.3l20.9-9.7l20.9,9.7
			l-20.9,9.7L377.8,632.3L377.8,632.3z"/>
		<path class="st9" d="M593.6,709.5h45.2c8.7,0,15.8,7.1,15.8,15.8v45.2c0,8.7-7.1,15.8-15.8,15.8h-45.2c-8.7,0-15.8-7.1-15.8-15.8
			v-45.2C577.8,716.6,584.9,709.5,593.6,709.5L593.6,709.5z"/>
		<path class="st7" d="M631.4,761.8v7.8h-33c0.4-3,1.4-5.8,3.2-8.4c1.8-2.6,5.3-6.2,10.6-10.5c4.2-3.5,6.8-5.9,7.8-7.2
			c1.3-1.7,1.9-3.5,1.9-5.2c0-1.9-0.6-3.3-1.7-4.3c-1.1-1-2.7-1.5-4.7-1.5c-2,0-3.5,0.5-4.7,1.6c-1.2,1.1-1.8,2.8-2,5.3l-9.4-0.8
			c0.6-4.6,2.3-8,5.3-10c2.9-2,6.6-3,11-3c4.8,0,8.7,1.2,11.4,3.5c2.8,2.3,4.1,5.2,4.1,8.7c0,2-0.4,3.9-1.2,5.6
			c-0.8,1.8-2,3.7-3.8,5.6c-1.1,1.3-3.2,3.2-6.2,5.6c-3,2.4-4.9,4.1-5.6,4.9c-0.8,0.8-1.4,1.6-1.9,2.3H631.4L631.4,761.8z"/>
	</g>
</g>
</svg>
