<?xml version="1.0" encoding="utf-8"?>
<!-- Generator: Adobe Illustrator 19.2.0, SVG Export Plug-In . SVG Version: 6.00 Build 0)  -->
<svg version="1.1" id="Livello_1" xmlns="http://www.w3.org/2000/svg" xmlns:xlink="http://www.w3.org/1999/xlink" x="0px" y="0px"
	 viewBox="0 0 960 960" style="enable-background:new 0 0 960 960;" xml:space="preserve">
<style type="text/css">
	.st0{fill-rule:evenodd;clip-rule:evenodd;fill:#005EA7;}
	.st1{fill:none;stroke:#FFFFFF;stroke-width:9.1371;stroke-miterlimit:2.6131;}
	.st2{fill-rule:evenodd;clip-rule:evenodd;fill:#FFFFFF;stroke:#FFFFFF;stroke-width:0.9137;stroke-miterlimit:2.6131;}
	.st3{fill-rule:evenodd;clip-rule:evenodd;fill:#1A171B;stroke:#1A171B;stroke-width:0.9137;stroke-miterlimit:2.6131;}
	.st4{fill-rule:evenodd;clip-rule:evenodd;fill:#FFFFFF;stroke:#1A171B;stroke-width:0.9137;stroke-miterlimit:2.6131;}
</style>
<g>
	<g>
		<polygon class="st0" points="252.1,120 707.9,120 707.9,840 252.1,840 252.1,120 		"/>
		<path class="st1" d="M300.9,134h358.2c20.3,0,36.4,16.6,36.4,36.7v619.4c0,20.1-16.3,36.7-36.4,36.7H300.9
			c-20.1,0-36.4-16.3-36.4-36.7V170.6C264.4,150.3,280.5,134,300.9,134L300.9,134z"/>
		<polygon class="st2" points="312.9,180.3 647,180.3 647,514.4 312.9,514.4 312.9,180.3 		"/>
		<path class="st3" d="M389.4,371.4c1.7,1.8,2.7,4.1,2.7,6.7c0,5.4-4.4,9.7-9.7,9.7s-9.7-4.4-9.7-9.7c0-2.6,1-4.9,2.6-6.7
			c-11.7,0-22.9,0-33.6,0V361h277.3v10.3c-10.7,0-21.9,0-33.5,0c1.6,1.8,2.5,4.1,2.5,6.6c0,5.4-4.4,9.7-9.7,9.7
			c-5.4,0-9.7-4.4-9.7-9.7c0-2.5,1-4.9,2.6-6.6c-5,0-10,0-15,0c1.7,1.8,2.7,4.1,2.7,6.7c0,5.4-4.4,9.7-9.7,9.7
			c-5.4,0-9.7-4.4-9.7-9.7c0-2.6,1-4.9,2.6-6.7c-40.4,0-83.2,0-123.3,0c1.7,1.8,2.7,4.1,2.7,6.7c0,5.4-4.4,9.7-9.7,9.7
			s-9.7-4.4-9.7-9.7c0-2.6,1-4.9,2.6-6.7C399.4,371.4,394.4,371.4,389.4,371.4L389.4,371.4z"/>
		<path class="st3" d="M367.9,333.4c-5,0-9,4-9,9c0,5,4,9,9,9c5,0,9-4,9-9C376.9,337.5,372.9,333.4,367.9,333.4L367.9,333.4z"/>
		<path class="st3" d="M509,333.4c-5,0-9,4-9,9c0,5,4,9,9,9c5,0,9-4,9-9C518,337.5,514,333.4,509,333.4L509,333.4z"/>
		<path class="st3" d="M445.6,333.4c-5,0-9,4-9,9c0,5,4.1,9,9,9c5,0,9-4,9-9C454.6,337.5,450.6,333.4,445.6,333.4L445.6,333.4z"/>
		<path class="st3" d="M586.7,333.4c-5,0-9,4-9,9c0,5,4,9,9,9c5,0,9-4,9-9C595.7,337.5,591.7,333.4,586.7,333.4L586.7,333.4z"/>
		<path class="st3" d="M356.2,344.8c-0.6-5.4,0.8-8.5,4.1-11.4l-17.5,0.1l3.2,9.8L356.2,344.8L356.2,344.8z"/>
		<path class="st3" d="M497.3,344.8c-0.6-5.4,0.8-8.5,4.1-11.4l-17.5,0.1l3.2,9.8L497.3,344.8L497.3,344.8z"/>
		<path class="st3" d="M434.2,344.9c-0.8-4.6-0.1-8.1,3.7-11.5l-62.6,0c4,2.6,4.8,7.4,4.3,11.4L434.2,344.9L434.2,344.9z"/>
		<path class="st3" d="M575.3,344.9c-0.8-4.6-0.1-8.1,3.7-11.5l-62.6,0c4,2.6,4.8,7.4,4.3,11.4L575.3,344.9L575.3,344.9z"/>
		<polygon class="st3" points="477.5,330.5 474.2,320.1 376.7,320.2 345.9,323.6 342.8,330.5 477.5,330.5 		"/>
		<polygon class="st3" points="618.5,330.5 615.3,320.1 517.8,320.2 487,323.6 483.9,330.5 618.5,330.5 		"/>
		<polygon class="st3" points="380.9,317.2 393,305 410.5,305 410.6,317.2 413.5,317.2 413.5,305 431.2,305 437.9,317.2 
			448.8,317.2 435.9,301.9 392,302.1 376.9,317.3 380.9,317.2 		"/>
		<polygon class="st3" points="522,317.2 534.1,305 551.6,305 551.7,317.2 554.6,317.2 554.6,305 572.3,305 579,317.2 589.9,317.2 
			577,301.9 533.1,302.1 518,317.3 522,317.2 		"/>
		<path class="st3" d="M473.9,342.9l3.5-9.6l-24.5,0.1c3.5,3.2,4.6,5.5,4.1,11.3L473.9,342.9L473.9,342.9z"/>
		<path class="st3" d="M615,342.9l3.5-9.6l-24.5,0.1c3.5,3.2,4.6,5.5,4.1,11.3L615,342.9L615,342.9z"/>
		<path class="st4" d="M445.6,337.7c-2.6,0-4.8,2.1-4.8,4.8c0,2.6,2.1,4.8,4.8,4.8s4.8-2.1,4.8-4.8
			C450.4,339.8,448.2,337.7,445.6,337.7L445.6,337.7z"/>
		<path class="st4" d="M586.7,337.7c-2.6,0-4.8,2.1-4.8,4.8c0,2.6,2.1,4.8,4.8,4.8s4.8-2.1,4.8-4.8
			C591.5,339.8,589.3,337.7,586.7,337.7L586.7,337.7z"/>
		<path class="st4" d="M367.9,337.7c-2.6,0-4.8,2.1-4.8,4.8c0,2.6,2.1,4.8,4.8,4.8c2.6,0,4.8-2.1,4.8-4.8
			C372.7,339.8,370.5,337.7,367.9,337.7L367.9,337.7z"/>
		<path class="st4" d="M509,337.7c-2.6,0-4.8,2.1-4.8,4.8c0,2.6,2.1,4.8,4.8,4.8c2.6,0,4.8-2.1,4.8-4.8
			C513.8,339.8,511.6,337.7,509,337.7L509,337.7z"/>
		<path class="st3" d="M335,379.8v-27.1c-3.7,3.4-6.1,8.2-6.1,13.5C328.9,371.7,331.3,376.5,335,379.8L335,379.8z"/>
		<path class="st3" d="M625.7,379.3v-26c3.6,3.3,5.8,7.9,5.8,13C631.5,371.5,629.3,376.1,625.7,379.3L625.7,379.3z"/>
	</g>
</g>
</svg>
