<?xml version="1.0" encoding="utf-8"?>
<!-- Generator: Adobe Illustrator 19.2.0, SVG Export Plug-In . SVG Version: 6.00 Build 0)  -->
<svg version="1.1" id="Livello_1" xmlns="http://www.w3.org/2000/svg" xmlns:xlink="http://www.w3.org/1999/xlink" x="0px" y="0px"
	 viewBox="0 0 556.3 721.2" style="enable-background:new 0 0 556.3 721.2;" xml:space="preserve">
<style type="text/css">
	.st0{fill:#005EA7;}
	.st1{fill:none;stroke:#FFFFFF;stroke-width:9.1371;stroke-miterlimit:2.6131;}
	.st2{fill:#FFFFFF;stroke:#FFFFFF;stroke-width:0.9137;stroke-miterlimit:2.6131;}
	.st3{fill:#1A171B;}
	.st4{fill:#FFFFFF;}
</style>
<g>
	<g>
		<polygon class="st0" points="100.5,1.2 556.3,1.2 556.3,721.2 100.5,721.2 		"/>
		<path class="st1" d="M149.3,15.2h358.2c20.3,0,36.4,16.6,36.4,36.7v619.4c0,20.1-16.3,36.7-36.4,36.7H149.3
			c-20.1,0-36.4-16.3-36.4-36.7V51.8C112.8,31.5,128.9,15.2,149.3,15.2L149.3,15.2z"/>
		<polygon class="st2" points="161.2,61.5 495.3,61.5 495.3,395.6 161.2,395.6 		"/>
		<path class="st3" d="M237.7,267.3c1.7,1.8,2.7,4.1,2.7,6.7c0,5.4-4.4,9.7-9.7,9.7c-5.4,0-9.7-4.4-9.7-9.7c0-2.5,1-4.9,2.6-6.7
			c-11.7,0-22.9,0-33.7,0V257h277.3v10.3c-10.7,0-21.9,0-33.5,0c1.6,1.8,2.5,4.1,2.5,6.6c0,5.4-4.4,9.7-9.7,9.7
			c-5.4,0-9.7-4.4-9.7-9.7c0-2.5,1-4.9,2.6-6.6c-5,0-10,0-15,0c1.7,1.8,2.7,4.1,2.7,6.7c0,5.4-4.4,9.7-9.7,9.7
			c-5.4,0-9.7-4.4-9.7-9.7c0-2.5,1-4.9,2.6-6.7c-40.4,0-83.2,0-123.3,0c1.7,1.8,2.7,4.1,2.7,6.7c0,5.4-4.4,9.7-9.7,9.7
			c-5.4,0-9.7-4.4-9.7-9.7c0-2.5,1-4.9,2.6-6.7C247.7,267.3,242.7,267.3,237.7,267.3L237.7,267.3z"/>
		<path class="st3" d="M189.9,252.1v-69.7c0-6,0.2-10,8.5-10H458c9.2,0,9.2,5.2,9.2,10v69.7L189.9,252.1L189.9,252.1z"/>
		<path class="st4" d="M411.6,247.2l-0.1-19.4c0-3.6,0-6.9,5-7.8l28.1-7.5c2.5-0.8,2.5,0.9,2.5,2.6v21.8l-5.1,1.3l0.1-8.7l-25.5,6.7
			l0.1,9.3L411.6,247.2L411.6,247.2z"/>
		<path class="st4" d="M365,212.4v-12.7l10.1,5.2l29.8-8.5c4.2-0.8,4.2-0.8,6.8,0.9l25.4,13.7l-22.9,6c-4.3,1.8-4.9,3.3-5.7,7.6
			l0.1,11L365,212.4L365,212.4z"/>
		<path class="st4" d="M356.5,218.4v-20.3c0.1-9.6,2.3-11.3,5-12.8l28.9-7.5c1.5-0.4,4.2,0.9,4.2,6l-32.1,9.2v22.9L356.5,218.4
			L356.5,218.4z"/>
		<path class="st4" d="M373.9,200.8l-7.5-4.1c-1.7-0.9-0.5-2.1,2-2.9l20.4-5.9c1.9-0.4,3.3-0.8,6.6,0.9l6,3.3c1.7,0.9,1.7,1.8,0,2.6
			l-21,5.6C377.8,200.9,375.8,201.6,373.9,200.8L373.9,200.8z"/>
		<path class="st4" d="M225.4,226.7c-5,0-9,4.1-9,9c0,5,4.1,9,9,9c5,0,9-4.1,9-9C234.5,230.7,230.4,226.7,225.4,226.7L225.4,226.7z"
			/>
		<path class="st4" d="M303.4,226.7c-5,0-9,4.1-9,9c0,5,4.1,9,9,9c5,0,9-4.1,9-9C312.5,230.7,308.4,226.7,303.4,226.7L303.4,226.7z"
			/>
		<path class="st4" d="M213.7,238.1c-0.6-5.4,0.8-8.5,4.1-11.5l-17.6,0.1l3.2,9.8L213.7,238.1L213.7,238.1z"/>
		<path class="st4" d="M292,238.1c-0.9-4.6-0.1-8.1,3.7-11.5h-62.9c4,2.6,4.8,7.4,4.3,11.4L292,238.1L292,238.1z"/>
		<polygon class="st4" points="335.4,223.7 332.1,213.3 234.2,213.4 203.4,216.8 200.2,223.7 		"/>
		<polygon class="st4" points="238.5,210.4 250.7,198.1 268.2,198.1 268.3,210.4 271.2,210.4 271.2,198.2 289,198.2 295.7,210.4 
			306.6,210.4 293.7,195 249.7,195.2 234.4,210.4 		"/>
		<path class="st4" d="M331.9,236.2l3.5-9.6l-24.6,0.1c3.5,3.2,4.6,5.5,4.1,11.4L331.9,236.2L331.9,236.2z"/>
		<path class="st3" d="M303.4,230.9c-2.6,0-4.8,2.2-4.8,4.8c0,2.6,2.2,4.8,4.8,4.8c2.6,0,4.8-2.2,4.8-4.8
			C308.2,233.1,306,230.9,303.4,230.9L303.4,230.9z"/>
		<path class="st3" d="M225.4,230.9c-2.6,0-4.8,2.2-4.8,4.8c0,2.6,2.2,4.8,4.8,4.8c2.6,0,4.8-2.2,4.8-4.8
			C230.2,233.1,228.1,230.9,225.4,230.9L225.4,230.9z"/>
		<path class="st3" d="M183.3,275.8v-27.1c-3.7,3.4-6.1,8.2-6.1,13.5C177.2,267.6,179.6,272.4,183.3,275.8L183.3,275.8z"/>
		<path class="st3" d="M474,275.3v-26c3.6,3.3,5.8,7.9,5.8,13C479.8,267.4,477.5,272,474,275.3L474,275.3z"/>
	</g>
</g>
</svg>
