<?xml version="1.0" encoding="utf-8"?>
<!-- Generator: Adobe Illustrator 19.2.0, SVG Export Plug-In . SVG Version: 6.00 Build 0)  -->
<svg version="1.1" id="Livello_1" xmlns="http://www.w3.org/2000/svg" xmlns:xlink="http://www.w3.org/1999/xlink" x="0px" y="0px"
	 viewBox="0 0 960 960" style="enable-background:new 0 0 960 960;" xml:space="preserve">
<style type="text/css">
	.st0{fill-rule:evenodd;clip-rule:evenodd;fill:#005EA7;}
	.st1{fill:none;stroke:#FFFFFF;stroke-width:9.1371;stroke-miterlimit:2.6131;}
	.st2{fill-rule:evenodd;clip-rule:evenodd;fill:#FFFFFF;stroke:#FFFFFF;stroke-width:0.9137;stroke-miterlimit:2.6131;}
	.st3{fill-rule:evenodd;clip-rule:evenodd;fill:#1A171B;}
	.st4{fill-rule:evenodd;clip-rule:evenodd;fill:#FFFFFF;}
	.st5{fill-rule:evenodd;clip-rule:evenodd;fill:#3D3D3F;}
	.st6{fill-rule:evenodd;clip-rule:evenodd;fill:#5288C1;stroke:#738FC3;stroke-width:0.9137;stroke-miterlimit:2.6131;}
</style>
<g>
	<g>
		<polygon class="st0" points="252.1,120 707.9,120 707.9,840 252.1,840 252.1,120 		"/>
		<path class="st1" d="M300.9,134h358.2c20.3,0,36.4,16.6,36.4,36.7v619.4c0,20.1-16.3,36.7-36.4,36.7H300.9
			c-20.1,0-36.4-16.3-36.4-36.7V170.6C264.4,150.3,280.5,134,300.9,134L300.9,134z"/>
		<polygon class="st2" points="312.9,180.3 647,180.3 647,514.4 312.9,514.4 312.9,180.3 		"/>
		<polygon class="st3" points="423.8,284.1 514.6,284.1 523.1,306.5 415.4,306.5 423.8,284.1 		"/>
		<polygon class="st3" points="429.5,267.9 461.9,267.9 465.8,278.9 425.6,278.9 429.5,267.9 		"/>
		<path class="st3" d="M343.5,311.7h276.3v59.4c-1.3-0.4-2.7-0.6-4.1-0.6c-9.5-0.1-17.9,9.4-27.3,9.4c-9.5,0-17.8-9.4-27.3-9.4
			c-9.4,0-14.3,9.4-27.3,9.5v0c-12.5,0-18.3-9.5-27.9-9.5c-9.5-0.1-17.9,9.5-27.3,9.5c-9.5,0-17.8-9.4-27.3-9.4
			c-9.5,0-14.3,9.5-27.4,9.5v0c-10.9,0.6-18.3-9.5-27.8-9.5c-6.7,0-12.8,4.6-19.1,7.4L343.5,311.7L343.5,311.7z"/>
		<path class="st4" d="M556.1,355.2c-2.7,0-4.9,2.2-4.9,4.9c0,2.7,2.2,4.9,4.9,4.9c2.7,0,4.9-2.2,4.9-4.9
			C561,357.4,558.8,355.2,556.1,355.2L556.1,355.2z"/>
		<path class="st4" d="M598.3,355.2c-2.7,0-4.9,2.2-4.9,4.9c0,2.7,2.2,4.9,4.9,4.9s4.9-2.2,4.9-4.9
			C603.2,357.4,601,355.2,598.3,355.2L598.3,355.2z"/>
		<path class="st4" d="M549.8,361.4c-0.3-2.9,0.5-4.6,2.2-6.2l-9.5,0l1.7,5.3L549.8,361.4L549.8,361.4z"/>
		<path class="st4" d="M592.1,361.4c-0.5-2.5,0-4.4,2-6.2l-34,0c2.2,1.4,2.6,4,2.3,6.2L592.1,361.4L592.1,361.4z"/>
		<polygon class="st4" points="615.6,353.6 613.8,348 560.9,348 544.2,349.8 542.5,353.6 615.6,353.6 		"/>
		<polygon class="st4" points="563.2,346.4 569.8,339.7 579.3,339.8 579.3,346.4 580.9,346.4 580.9,339.8 590.5,339.8 594.2,346.4 
			600,346.4 593.1,338.1 569.2,338.2 561,346.4 563.2,346.4 		"/>
		<path class="st4" d="M613.7,360.4l1.9-5.2l-13.3,0c1.9,1.7,2.5,3,2.2,6.1L613.7,360.4L613.7,360.4z"/>
		<path class="st3" d="M598.3,357.5c-1.4,0-2.6,1.2-2.6,2.6c0,1.4,1.2,2.6,2.6,2.6c1.4,0,2.6-1.2,2.6-2.6
			C600.9,358.7,599.7,357.5,598.3,357.5L598.3,357.5z"/>
		<path class="st4" d="M389.6,355.2c-2.7,0-4.9,2.2-4.9,4.9c0,2.7,2.2,4.9,4.9,4.9c2.7,0,4.9-2.2,4.9-4.9
			C394.5,357.4,392.3,355.2,389.6,355.2L389.6,355.2z"/>
		<path class="st4" d="M431.8,355.2c-2.7,0-4.9,2.2-4.9,4.9c0,2.7,2.2,4.9,4.9,4.9c2.7,0,4.9-2.2,4.9-4.9
			C436.7,357.4,434.5,355.2,431.8,355.2L431.8,355.2z"/>
		<path class="st4" d="M383.3,361.4c-0.3-2.9,0.5-4.6,2.2-6.2l-9.5,0l1.7,5.3L383.3,361.4L383.3,361.4z"/>
		<path class="st4" d="M425.6,361.4c-0.5-2.5,0-4.4,2-6.2l-34,0c2.2,1.4,2.6,4,2.3,6.2L425.6,361.4L425.6,361.4z"/>
		<polygon class="st4" points="449.1,353.6 447.3,348 394.4,348 377.7,349.8 376,353.6 449.1,353.6 		"/>
		<polygon class="st4" points="396.7,346.4 403.3,339.7 412.8,339.8 412.8,346.4 414.4,346.4 414.4,339.8 424,339.8 427.7,346.4 
			433.5,346.4 426.6,338.1 402.7,338.2 394.5,346.4 396.7,346.4 		"/>
		<path class="st4" d="M447.2,360.4l1.9-5.2l-13.3,0c1.9,1.7,2.5,3,2.2,6.1L447.2,360.4L447.2,360.4z"/>
		<path class="st3" d="M431.8,357.5c-1.4,0-2.6,1.2-2.6,2.6c0,1.4,1.2,2.6,2.6,2.6c1.4,0,2.6-1.2,2.6-2.6
			C434.4,358.7,433.2,357.5,431.8,357.5L431.8,357.5z"/>
		<path class="st5" d="M389.6,357.5c-1.4,0-2.6,1.2-2.6,2.6c0,1.4,1.2,2.6,2.6,2.6c1.4,0,2.6-1.2,2.6-2.6
			C392.2,358.7,391.1,357.5,389.6,357.5L389.6,357.5z"/>
		<path class="st3" d="M556.1,357.5c-1.4,0-2.6,1.2-2.6,2.6c0,1.4,1.2,2.6,2.6,2.6s2.6-1.2,2.6-2.6
			C558.7,358.7,557.6,357.5,556.1,357.5L556.1,357.5z"/>
		<path class="st4" d="M456.1,358.1v-15.3l5.1-13.1h14.1v21.6h38.9c-2.1,0.8-3.7,3.7-3.9,6.9h-35c-0.5-11.2-16.2-11.2-16.6,0H456.1
			L456.1,358.1z"/>
		<path class="st4" d="M522.7,351.2h12.9v3.1l-9,3.4C526.8,355,524.7,352,522.7,351.2L522.7,351.2z"/>
		<polygon class="st4" points="477.1,349.4 477.1,320.8 535.6,320.8 535.7,349.5 477.1,349.4 		"/>
		<polygon class="st3" points="459.4,341.1 462.7,332.6 473.2,332.6 473.2,341.1 459.4,341.1 		"/>
		<path class="st4" d="M467,351.3c3.8,0,6.8,3.1,6.8,6.8c0,3.8-3.1,6.8-6.8,6.8c-3.8,0-6.8-3.1-6.8-6.8
			C460.2,354.4,463.3,351.3,467,351.3L467,351.3z"/>
		<path class="st4" d="M518.5,351.3c3.8,0,6.8,3.1,6.8,6.8c0,3.8-3.1,6.8-6.8,6.8s-6.8-3.1-6.8-6.8
			C511.7,354.4,514.7,351.3,518.5,351.3L518.5,351.3z"/>
		<path class="st3" d="M467,354.9c1.8,0,3.3,1.5,3.3,3.3c0,1.8-1.5,3.3-3.3,3.3c-1.8,0-3.3-1.5-3.3-3.3
			C463.8,356.3,465.2,354.9,467,354.9L467,354.9z"/>
		<path class="st3" d="M518.5,354.9c1.8,0,3.3,1.5,3.3,3.3c0,1.8-1.5,3.3-3.3,3.3c-1.8,0-3.3-1.5-3.3-3.3
			C515.2,356.3,516.7,354.9,518.5,354.9L518.5,354.9z"/>
		<path class="st6" d="M478.5,402.4c-9.5,0-17.8-9.4-27.3-9.4c-9.5,0-14.4,9.5-27.4,9.5v0c-10.9,0.6-18.3-9.5-27.8-9.5
			c-9.5-0.1-17.9,9.5-27.3,9.5c-9.1,0-17.1-8.6-26.1-9.4v6.9c9,0.8,17.1,9.5,26.2,9.5c9.5,0,17.7-9.6,27.2-9.6
			c9.7,0,15.9,9.6,28,9.6v0c12.6-0.2,17.4-9.7,27.2-9.6c9.2,0.1,17.9,9.6,27.4,9.6c9.5,0,17.7-9.6,27.2-9.6c9.7,0,15.4,9.4,27.9,9.6
			v0c14.3,0,17.6-9.6,27.3-9.6c9.2,0,17.9,9.6,27.4,9.6c9.5,0,17.7-9.6,27.2-9.6c1.5,0,2.8,0.2,4.2,0.6v-6.9
			c-1.3-0.4-2.7-0.6-4.1-0.6c-9.5-0.1-17.9,9.5-27.3,9.5c-9.5,0-17.8-9.4-27.3-9.4c-9.4,0-14.3,9.5-27.3,9.5v0
			c-12.5,0-18.3-9.5-27.9-9.5C496.4,392.9,488,402.4,478.5,402.4L478.5,402.4z M478.5,388.4c-9.5,0-17.8-9.4-27.3-9.4
			c-9.5,0-14.4,9.5-27.4,9.5v0c-10.9,0.6-18.3-9.5-27.8-9.5c-9.5-0.1-17.9,9.5-27.3,9.5c-9.1,0-17.1-8.6-26.1-9.4v6.9
			c9,0.8,17.1,9.5,26.2,9.5c9.5,0,17.7-9.6,27.2-9.6c9.7,0,15.9,9.6,28,9.6v0c12.6-0.2,17.4-9.7,27.2-9.6c9.2,0.1,17.9,9.6,27.4,9.6
			c9.5,0,17.7-9.6,27.2-9.6c9.7,0,15.4,9.4,27.9,9.6v0c14.3,0,17.6-9.6,27.3-9.6c9.2,0,17.9,9.6,27.4,9.6c9.5,0,17.7-9.6,27.2-9.6
			c1.5,0,2.8,0.2,4.2,0.6v-6.9c-1.3-0.4-2.7-0.6-4.1-0.6c-9.5-0.1-17.9,9.5-27.3,9.5c-9.5,0-17.8-9.4-27.3-9.4
			c-9.4,0-14.3,9.4-27.3,9.5v0c-12.5,0-18.3-9.5-27.9-9.5C496.4,378.9,488,388.4,478.5,388.4L478.5,388.4z"/>
	</g>
</g>
</svg>
