<?xml version="1.0" encoding="utf-8"?>
<!-- Generator: Adobe Illustrator 19.2.0, SVG Export Plug-In . SVG Version: 6.00 Build 0)  -->
<svg version="1.1" id="Livello_1" xmlns="http://www.w3.org/2000/svg" xmlns:xlink="http://www.w3.org/1999/xlink" x="0px" y="0px"
	 viewBox="0 0 717.9 425.2" style="enable-background:new 0 0 717.9 425.2;" xml:space="preserve">
<style type="text/css">
	.st0{fill:#ED7F00;}
	.st1{fill:none;stroke:#1A171B;stroke-width:8.2184;stroke-miterlimit:2.6131;}
	.st2{fill:#1A171B;}
</style>
<g>
	<g>
		<polygon class="st0" points="117.4,0.2 717.4,0.2 717.4,424.6 117.4,424.6 		"/>
		<path class="st1" d="M152,11.9h530.8c12.9,0,22.9,10.5,22.9,22.9v354.9c0,13.1-10.5,23.1-22.9,23.1H152
			c-12.5,0-22.9-9.5-22.9-23.1V34.8C129.1,22,139.1,11.9,152,11.9L152,11.9z"/>
		<polygon class="st2" points="236,296.8 236,157.4 190.4,157.4 190.4,129 312.5,129 312.5,157.4 267,157.4 267,296.8 		"/>
		<path class="st2" d="M455.1,296.8h-33.7L408,258.7h-61.4l-12.7,38.1H301L360.8,129h32.8L455.1,296.8L455.1,296.8z M398,230.4
			l-21.2-62.3l-20.7,62.3H398L398,230.4z"/>
		<polygon class="st2" points="455.9,296.8 508.4,209.3 460.9,129 497.1,129 527.9,182.9 558.1,129 594,129 546.2,210.5 
			598.7,296.8 561.3,296.8 527.3,238.8 493.1,296.8 		"/>
		<polygon class="st2" points="613.7,296.8 613.7,129 644.7,129 644.7,296.8 		"/>
	</g>
</g>
</svg>
