<?xml version="1.0" encoding="utf-8"?>
<!-- Generator: Adobe Illustrator 19.2.0, SVG Export Plug-In . SVG Version: 6.00 Build 0)  -->
<svg version="1.1" id="Livello_1" xmlns="http://www.w3.org/2000/svg" xmlns:xlink="http://www.w3.org/1999/xlink" x="0px" y="0px"
	 viewBox="0 0 556.3 721.2" style="enable-background:new 0 0 556.3 721.2;" xml:space="preserve">
<style type="text/css">
	.st0{fill:#005EA7;}
	.st1{fill:none;stroke:#FFFFFF;stroke-width:9.1371;stroke-miterlimit:2.6131;}
	.st2{fill:#FFFFFF;stroke:#FFFFFF;stroke-width:0.9137;stroke-miterlimit:2.6131;}
	.st3{fill:#1A171B;stroke:#1A171B;stroke-width:0.9137;stroke-miterlimit:2.6131;}
	.st4{fill:#1A171B;stroke:#1A171B;stroke-width:1.5228;stroke-miterlimit:2.6131;}
</style>
<g>
	<g>
		<polygon class="st0" points="100.5,1.2 556.3,1.2 556.3,721.2 100.5,721.2 		"/>
		<path class="st1" d="M149.3,15.2h358.2c20.3,0,36.4,16.6,36.4,36.7v619.4c0,20.1-16.3,36.7-36.4,36.7H149.3
			c-20.1,0-36.4-16.3-36.4-36.7V51.8C112.8,31.5,128.9,15.2,149.3,15.2L149.3,15.2z"/>
		<polygon class="st2" points="161.2,61.5 495.3,61.5 495.3,395.6 161.2,395.6 		"/>
		<polygon class="st3" points="327,329.1 299.7,285.8 316.8,285.8 316.8,246.8 337.8,246.8 337.8,285.8 354.5,285.8 		"/>
		<path class="st3" d="M361.5,313.1c-0.2,19.1-15.3,34.2-34.4,34.2c-18.6,0-33.7-15.1-33.9-34.2h-93.9v45.5h257.8v-45.5H361.5
			L361.5,313.1z"/>
		<path class="st4" d="M229.8,127.1l-34.9,48.5v54.3l8.1,0.1c0.8-33.2,48.1-32.6,48.7,0l32.1-0.1l0.1-102.8L229.8,127.1L229.8,127.1
			z M277.6,175.6h-75.3l31.7-41.7l43.6-0.1L277.6,175.6L277.6,175.6z"/>
		<path class="st4" d="M345.1,172.1h116.8l-7.1-57.3h-95.5l-39-17h-90.6l-11.6,21.6h73.8v111h67.3c0-31.8,48-33.6,49-0.1H452l9-50.4
			H345.2L345.1,172.1z M381.1,127.4h64.7l4.3,35.9l-69-0.3V127.4z M336,221.3h-35v-93.9h35V221.3z"/>
		<path class="st3" d="M383.6,211.1c-10.5,0-19,8.5-19,19s8.5,19,19,19s19-8.5,19-19S394.1,211.1,383.6,211.1z M383.6,238.7
			c-4.8,0-8.7-3.9-8.7-8.6s3.9-8.6,8.7-8.6s8.6,3.9,8.6,8.6C392.2,234.9,388.3,238.7,383.6,238.7z"/>
		<path class="st3" d="M227.6,211.1c-10.5,0-19,8.5-19,19s8.5,19,19,19s19-8.5,19-19S238.1,211.1,227.6,211.1z M227.6,238.7
			c-4.8,0-8.6-3.9-8.6-8.6c-0.1-4.7,3.8-8.6,8.6-8.6s8.6,3.9,8.6,8.6C236.2,234.9,232.3,238.7,227.6,238.7z"/>
	</g>
</g>
</svg>
