<?xml version="1.0" encoding="utf-8"?>
<!-- Generator: Adobe Illustrator 19.2.0, SVG Export Plug-In . SVG Version: 6.00 Build 0)  -->
<svg version="1.1" id="Livello_1" xmlns="http://www.w3.org/2000/svg" xmlns:xlink="http://www.w3.org/1999/xlink" x="0px" y="0px"
	 viewBox="0 0 872.2 617.9" style="enable-background:new 0 0 872.2 617.9;" xml:space="preserve">
<style type="text/css">
	.st0{fill:#FFFFFF;stroke:#1A171B;stroke-width:1.1917;stroke-miterlimit:2.6131;}
	.st1{fill:none;stroke:#1A171B;stroke-width:11.9167;stroke-miterlimit:2.6131;}
	.st2{fill:#C5C6C8;}
	.st3{fill:#1A171B;}
</style>
<g>
	<g>
		<polygon class="st0" points="1,1.7 871,1.7 871,616.9 1,616.9 		"/>
		<path class="st1" d="M51.2,18.6h769.6c18.7,0,33.3,15.2,33.3,33.3v514.6c0,19-15.2,33.6-33.3,33.6H51.2
			c-18.1,0-33.3-13.7-33.3-33.6V51.8C17.9,33.2,32.5,18.6,51.2,18.6L51.2,18.6z"/>
		<polygon class="st2" points="331,450.7 549.2,450.7 549.2,530.9 331,530.9 		"/>
		<polygon class="st2" points="584.5,450.7 803,450.7 803,530.9 584.5,530.9 		"/>
		<polygon class="st2" points="331,336 803,336 803,416.5 331,416.5 		"/>
		<polygon class="st2" points="331,221.6 803,221.6 803,302.2 331,302.2 		"/>
		<path class="st3" d="M117.2,162.7V89.3h15.2c5.8,0,9.5,0.4,11.3,1.1c2.7,1.1,4.9,3.5,6.8,7.2c1.8,3.7,2.7,8.5,2.7,14.3
			c0,4.5-0.5,8.3-1.6,11.4c-1,3.1-2.4,5.5-4,7.2s-3.2,2.9-4.9,3.5c-2.3,0.7-5.5,1.1-9.8,1.1h-6.2v27.7h-9.5V162.7z M126.7,101.7
			v20.8h5.2c3.7,0,6.2-0.4,7.5-1.1c1.3-0.8,2.2-2,3-3.6c0.7-1.6,1.1-3.5,1.1-5.7c0-2.7-0.5-4.9-1.5-6.6s-2.3-2.8-3.8-3.2
			c-1.1-0.3-3.4-0.5-6.8-0.5L126.7,101.7L126.7,101.7z"/>
		<path class="st3" d="M159,126.4c0-7.5,0.7-13.8,2.1-18.8c1.1-3.7,2.5-7.1,4.4-10.1c1.8-3,3.9-5.2,6.1-6.6c2.9-2,6.3-2.9,10.1-2.9
			c6.9,0,12.4,3.4,16.6,10.1c4.1,6.7,6.2,16,6.2,28c0,11.9-2.1,21.1-6.2,27.8c-4.1,6.7-9.6,10-16.5,10c-7,0-12.5-3.3-16.6-10
			C161,147.3,159,138.1,159,126.4L159,126.4z M168.7,126c0,8.3,1.2,14.6,3.7,18.9c2.5,4.3,5.6,6.4,9.3,6.4c3.8,0,6.9-2.1,9.3-6.4
			c2.4-4.3,3.6-10.6,3.6-19.1c0-8.4-1.2-14.7-3.5-18.8c-2.4-4.1-5.5-6.2-9.4-6.2s-7,2.1-9.4,6.3C169.9,111.2,168.7,117.5,168.7,126
			L168.7,126z"/>
		<polygon class="st3" points="212.1,162.7 212.1,89.9 221.6,89.9 221.6,150.3 245.1,150.3 245.1,162.7 		"/>
		<polygon class="st3" points="251.6,162.7 251.6,89.3 261,89.3 261,162.7 		"/>
		<polygon class="st3" points="266,162.7 266,149.3 290.6,101.7 268.8,101.7 268.8,89.3 303.1,89.3 303.1,100.8 277.4,150.3 
			304.1,150.3 304.1,162.7 		"/>
		<polygon class="st3" points="309.8,162.7 309.8,89.3 319.3,89.3 319.3,162.7 		"/>
		<path class="st3" d="M370.6,162.7h-10.3l-4.1-16.7h-18.7l-3.9,16.7h-10l18.3-73.4h10L370.6,162.7L370.6,162.7z M353.1,133.7
			l-6.5-27.2l-6.3,27.2H353.1L353.1,133.7z"/>
		<path class="st3" d="M409.6,138.8l9.2-1.4c0.5,4.9,1.7,8.4,3.4,10.7c1.7,2.3,4,3.4,6.9,3.4c3,0,5.3-1,6.9-3c1.5-2,2.3-4.4,2.3-7.1
			c0-1.7-0.3-3.2-1-4.4c-0.6-1.2-1.8-2.3-3.4-3.2c-1.1-0.6-3.6-1.7-7.6-3.2c-5.1-2-8.6-4.4-10.7-7.3c-2.9-4-4.3-9-4.3-14.8
			c0-3.7,0.7-7.2,2-10.5c1.4-3.2,3.3-5.7,5.9-7.4s5.6-2.5,9.2-2.5c5.9,0,10.3,2,13.3,6.1c3,4,4.5,9.4,4.7,16.2l-9.5,0.6
			c-0.4-3.8-1.3-6.5-2.6-8.1c-1.3-1.7-3.3-2.5-6-2.5s-4.9,0.9-6.5,2.6c-1,1.1-1.5,2.6-1.5,4.5c0,1.7,0.5,3.2,1.4,4.5
			c1.2,1.6,4.1,3.2,8.7,4.9s8,3.5,10.2,5.3s3.9,4.3,5.2,7.5c1.2,3.2,1.9,7.1,1.9,11.7c0,4.2-0.7,8.2-2.2,11.8
			c-1.5,3.7-3.6,6.4-6.3,8.2c-2.7,1.8-6.1,2.7-10.2,2.7c-5.9,0-10.5-2.1-13.7-6.4C412.1,153.3,410.2,147,409.6,138.8L409.6,138.8z"
			/>
		<polygon class="st3" points="466.2,162.7 466.2,101.7 452.3,101.7 452.3,89.3 489.6,89.3 489.6,101.7 475.7,101.7 475.7,162.7 		
			"/>
		<path class="st3" d="M495.7,162.7V89.3h19.9c5,0,8.6,0.7,10.9,2c2.3,1.3,4.1,3.7,5.5,7c1.4,3.4,2,7.2,2,11.6
			c0,5.5-1,10.1-3.1,13.7s-5.2,5.8-9.3,6.8c2.1,1.9,3.7,3.9,5.1,6.2c1.3,2.2,3.1,6.2,5.4,11.9l5.7,14.3h-11.3l-6.8-16
			c-2.4-5.7-4.1-9.3-5-10.8s-1.8-2.5-2.9-3.1c-1-0.5-2.6-0.8-4.8-0.8h-1.9v30.6H495.7L495.7,162.7z M505.2,120.3h7
			c4.5,0,7.4-0.3,8.5-0.9s2-1.6,2.7-3.1c0.6-1.5,1-3.3,1-5.5c0-2.5-0.4-4.5-1.3-6c-0.8-1.5-2-2.5-3.6-2.9c-0.8-0.2-3.1-0.2-6.9-0.2
			h-7.4V120.3L505.2,120.3z"/>
		<path class="st3" d="M585.3,162.7H575l-4.1-16.7h-18.7l-3.9,16.7h-10l18.3-73.4h10L585.3,162.7L585.3,162.7z M567.8,133.7
			l-6.5-27.2l-6.3,27.2H567.8L567.8,133.7z"/>
		<path class="st3" d="M590.2,89.3h17.3c3.9,0,6.9,0.5,8.9,1.4c2.8,1.3,5.1,3.5,7.1,6.8c2,3.2,3.5,7.2,4.5,11.9s1.5,10.5,1.5,17.4
			c0,6-0.5,11.2-1.4,15.6c-1.2,5.3-2.8,9.7-5,13c-1.6,2.5-3.9,4.5-6.6,5.9c-2.1,1-4.9,1.6-8.4,1.6h-17.8L590.2,89.3L590.2,89.3z
			 M599.7,101.7v48.6h7.1c2.6,0,4.6-0.2,5.7-0.7c1.5-0.6,2.8-1.6,3.8-3s1.8-3.8,2.5-7.1c0.6-3.3,1-7.8,1-13.5c0-5.7-0.3-10-1-13.1
			c-0.6-3-1.5-5.4-2.7-7.1s-2.6-2.9-4.4-3.5c-1.3-0.5-3.9-0.7-7.8-0.7h-4.2L599.7,101.7L599.7,101.7z"/>
		<path class="st3" d="M679.8,162.7h-10.3l-4.1-16.7h-18.7l-3.9,16.7h-10L651,89.3h10L679.8,162.7L679.8,162.7z M662.4,133.7
			l-6.5-27.2l-6.3,27.2H662.4L662.4,133.7z"/>
		<polygon class="st3" points="685.1,162.7 685.1,89.9 694.5,89.9 694.5,150.3 718.1,150.3 718.1,162.7 		"/>
		<polygon class="st3" points="724.8,162.7 724.8,89.3 759.6,89.3 759.6,101.7 734.3,101.7 734.3,118 757.8,118 757.8,130.3 
			734.3,130.3 734.3,150.3 760.5,150.3 760.5,162.7 		"/>
		<polygon class="st3" points="73,301 73,236.5 80.6,236.5 80.6,301 		"/>
		<path class="st3" d="M86.7,277c0-4.1,0.6-8.1,1.9-11.9c1.3-3.8,3-6.8,5.3-8.8c2.3-2,4.9-3,7.7-3c4.4,0,8,2.3,10.8,6.9
			c2.8,4.6,4.2,10.4,4.2,17.4c0,7.1-1.4,12.9-4.2,17.6s-6.4,7-10.7,7c-2.7,0-5.2-1-7.6-2.9c-2.4-1.9-4.2-4.8-5.5-8.5
			C87.3,286.9,86.7,282.3,86.7,277L86.7,277z M94.6,277.6c0,4.6,0.7,8.2,2,10.6c1.4,2.5,3,3.7,5,3.7s3.7-1.2,5-3.7
			c1.4-2.5,2-6,2-10.7c0-4.6-0.7-8.1-2-10.5c-1.3-2.5-3-3.7-5-3.7s-3.7,1.2-5,3.7C95.2,269.5,94.6,273,94.6,277.6L94.6,277.6z"/>
		<path class="st3" d="M147.8,268.1l-7.5,2.2c-0.3-2.4-0.8-4.3-1.7-5.5s-2.1-1.8-3.5-1.8c-1.9,0-3.4,1.1-4.6,3.2
			c-1.1,2.1-1.7,5.7-1.7,10.7c0,5.5,0.6,9.5,1.7,11.7c1.2,2.3,2.7,3.4,4.6,3.4c1.5,0,2.6-0.7,3.6-2c0.9-1.3,1.6-3.6,2-6.9l7.5,2.1
			c-0.8,5.6-2.3,9.8-4.5,12.6c-2.2,2.9-5.2,4.3-8.9,4.3c-4.2,0-7.6-2.1-10.1-6.5c-2.5-4.3-3.8-10.3-3.8-17.9c0-7.7,1.3-13.7,3.8-18
			c2.5-4.3,5.9-6.5,10.2-6.5c3.5,0,6.3,1.2,8.4,3.7C145.4,259.4,146.9,263.1,147.8,268.1L147.8,268.1z"/>
		<path class="st3" d="M159.3,268.5l-6.9-2c0.8-4.5,2.1-7.9,4-10c1.9-2.2,4.7-3.3,8.5-3.3c3.4,0,6,0.7,7.6,2c1.7,1.3,2.8,3,3.5,5
			s1,5.7,1,11.1l-0.1,14.4c0,4.1,0.1,7.1,0.4,9.1c0.2,1.9,0.7,4,1.4,6.3h-7.6c-0.2-0.8-0.4-2-0.7-3.6c-0.1-0.7-0.2-1.2-0.3-1.5
			c-1.3,2.1-2.7,3.6-4.2,4.6s-3.1,1.5-4.8,1.5c-3,0-5.3-1.3-7-3.9s-2.6-5.9-2.6-9.9c0-2.6,0.4-5,1.2-7.1s1.9-3.6,3.3-4.7
			c1.4-1.1,3.4-2.1,6.1-2.9c3.6-1.1,6-2.1,7.4-3v-1.3c0-2.4-0.4-4.1-1.1-5.1c-0.7-1-2.1-1.5-4.1-1.5c-1.4,0-2.4,0.4-3.2,1.3
			C160.4,264.9,159.8,266.4,159.3,268.5L159.3,268.5z M169.5,278.6c-1,0.5-2.5,1.2-4.7,1.9c-2.1,0.7-3.5,1.5-4.2,2.1
			c-1,1.2-1.5,2.6-1.5,4.4c0,1.7,0.4,3.2,1.2,4.5s1.8,1.9,3,1.9c1.4,0,2.7-0.7,3.9-2.2c0.9-1.1,1.5-2.5,1.8-4.1
			c0.2-1.1,0.3-3.1,0.3-6v-2.5L169.5,278.6L169.5,278.6z"/>
		<polygon class="st3" points="184.6,301 184.6,236.5 192.2,236.5 192.2,301 		"/>
		<path class="st3" d="M200.1,248v-11.4h7.6V248H200.1L200.1,248z M200.1,301v-46.7h7.6V301H200.1L200.1,301z"/>
		<path class="st3" d="M228.8,254.3v9.8h-5.2v18.8c0,3.8,0,6,0.2,6.7c0.1,0.6,0.3,1.1,0.7,1.6c0.4,0.4,0.8,0.6,1.3,0.6
			c0.7,0,1.7-0.4,3.1-1.2l0.6,9.6c-1.8,1.2-3.8,1.8-6.1,1.8c-1.4,0-2.6-0.4-3.7-1.1s-1.9-1.7-2.4-2.9c-0.5-1.2-0.9-2.8-1.1-4.8
			c-0.2-1.4-0.2-4.3-0.2-8.7v-20.3h-3.5v-9.9h3.5V245l7.7-7.2v16.5H228.8L228.8,254.3z"/>
		<path class="st3" d="M239.9,268.5l-6.9-2c0.8-4.5,2.1-7.9,4-10c1.9-2.2,4.7-3.3,8.5-3.3c3.4,0,6,0.7,7.6,2c1.7,1.3,2.8,3,3.5,5
			c0.7,2,1,5.7,1,11.1l-0.1,14.4c0,4.1,0.1,7.1,0.4,9.1c0.2,1.9,0.7,4,1.4,6.3h-7.6c-0.2-0.8-0.4-2-0.7-3.6
			c-0.1-0.7-0.2-1.2-0.3-1.5c-1.3,2.1-2.7,3.6-4.2,4.6s-3.1,1.5-4.8,1.5c-3,0-5.3-1.3-7-3.9s-2.6-5.9-2.6-9.9c0-2.6,0.4-5,1.2-7.1
			c0.8-2.1,1.9-3.6,3.3-4.7s3.4-2.1,6.1-2.9c3.6-1.1,6-2.1,7.4-3v-1.3c0-2.4-0.4-4.1-1.1-5.1s-2.1-1.5-4.1-1.5
			c-1.4,0-2.4,0.4-3.2,1.3C240.9,264.9,240.3,266.4,239.9,268.5L239.9,268.5z M250.1,278.6c-1,0.5-2.5,1.2-4.7,1.9
			c-2.1,0.7-3.5,1.5-4.2,2.1c-1,1.2-1.5,2.6-1.5,4.4c0,1.7,0.4,3.2,1.2,4.5c0.8,1.3,1.8,1.9,3,1.9c1.4,0,2.7-0.7,4-2.2
			c0.9-1.1,1.5-2.5,1.8-4.1c0.2-1.1,0.3-3.1,0.3-6v-2.5L250.1,278.6L250.1,278.6z M249.6,248.6h-4.8l-7.5-13.1h8.6L249.6,248.6
			L249.6,248.6z"/>
		<path class="st3" d="M73,361.3v-11.8h7.7v11.8H73L73,361.3z M73,415.9v-48.1h7.7v48.1H73L73,415.9z"/>
		<path class="st3" d="M114.8,415.9h-7.7v-24.6c0-5.2-0.2-8.6-0.5-10.1s-0.9-2.7-1.6-3.6c-0.7-0.8-1.6-1.3-2.6-1.3
			c-1.3,0-2.5,0.6-3.6,1.8s-1.8,2.8-2.2,4.8S96,388.6,96,394v21.8h-7.7v-48.1h7.1v7.1c2.5-5.4,5.7-8.2,9.5-8.2
			c1.7,0,3.2,0.5,4.6,1.5c1.4,1,2.5,2.3,3.2,3.9s1.2,3.4,1.5,5.4s0.4,4.8,0.4,8.6v29.9H114.8z"/>
		<path class="st3" d="M149.1,415.9H142v-7.1c-1.2,2.8-2.6,4.8-4.2,6.1c-1.6,1.3-3.2,2-4.9,2c-3.3,0-6.2-2.2-8.5-6.7
			c-2.4-4.5-3.6-10.7-3.6-18.6c0-8.2,1.2-14.4,3.5-18.6s5.2-6.4,8.7-6.4c3.2,0,6,2.2,8.4,6.7v-23.9h7.6v66.5H149.1z M128.7,390.8
			c0,5.1,0.4,8.9,1.3,11.2c1.2,3.3,3,5,5.2,5c1.8,0,3.3-1.3,4.5-3.7c1.2-2.5,1.9-6.2,1.9-11.2c0-5.5-0.6-9.5-1.8-11.9
			s-2.7-3.7-4.6-3.7c-1.8,0-3.3,1.2-4.6,3.6C129.3,382.5,128.7,386,128.7,390.8L128.7,390.8z"/>
		<path class="st3" d="M156.6,361.3v-11.8h7.6v11.8H156.6L156.6,361.3z M156.6,415.9v-48.1h7.6v48.1H156.6L156.6,415.9z"/>
		<path class="st3" d="M179.5,415.9h-7.6v-48.1h7.1v6.8c1.2-3.2,2.3-5.4,3.3-6.4s2.1-1.5,3.3-1.5c1.7,0,3.4,0.8,5,2.4l-2.4,11.1
			c-1.3-1.4-2.5-2.1-3.6-2.1s-2,0.5-2.7,1.5c-0.8,1-1.3,2.8-1.8,5.3c-0.4,2.6-0.6,7.9-0.6,16.1V415.9L179.5,415.9z"/>
		<path class="st3" d="M193.8,361.3v-11.8h7.7v11.8H193.8L193.8,361.3z M193.8,415.9v-48.1h7.7v48.1H193.8L193.8,415.9z"/>
		<path class="st3" d="M206.2,415.9V406l10.8-20.7c1.8-3.4,3.1-5.8,3.9-7.2c-0.9,0.1-2.1,0.1-3.5,0.2l-10.2,0.1v-10.5h23.9v9
			l-11,21.2l-3.9,7c2.1-0.2,3.4-0.3,4-0.3H232V416L206.2,415.9L206.2,415.9z"/>
		<path class="st3" d="M234.1,415.9V406l10.9-20.7c1.8-3.4,3.1-5.8,3.9-7.2c-0.9,0.1-2.1,0.1-3.5,0.2l-10.2,0.1v-10.5h23.9v9
			L248,398l-3.9,7c2.1-0.2,3.4-0.3,3.9-0.3h11.8v11.2L234.1,415.9L234.1,415.9z"/>
		<path class="st3" d="M263.3,391.2c0-4.2,0.6-8.3,1.9-12.3c1.3-3.9,3-7,5.3-9.1s4.9-3.1,7.7-3.1c4.4,0,8,2.4,10.8,7.1
			s4.2,10.7,4.2,17.9c0,7.3-1.4,13.3-4.2,18.1c-2.8,4.8-6.4,7.2-10.7,7.2c-2.7,0-5.2-1-7.6-3s-4.2-4.9-5.5-8.8
			C263.9,401.4,263.3,396.7,263.3,391.2L263.3,391.2z M271.2,391.9c0,4.8,0.7,8.4,2,11c1.4,2.5,3,3.8,5,3.8s3.7-1.3,5-3.8
			c1.4-2.5,2-6.2,2-11.1c0-4.7-0.7-8.3-2-10.9c-1.3-2.5-3-3.8-5-3.8s-3.7,1.3-5,3.8C271.8,383.4,271.2,387.1,271.2,391.9
			L271.2,391.9z"/>
		<path class="st3" d="M86.2,482.7v9.8H81v18.8c0,3.8,0,6,0.1,6.7c0.1,0.6,0.3,1.1,0.7,1.6c0.4,0.4,0.8,0.6,1.3,0.6
			c0.7,0,1.7-0.4,3.1-1.2l0.7,9.6c-1.8,1.2-3.8,1.8-6.1,1.8c-1.4,0-2.6-0.4-3.7-1.1c-1.1-0.7-1.9-1.7-2.4-2.9s-0.9-2.8-1.1-4.8
			c-0.2-1.4-0.2-4.3-0.2-8.7v-20.3h-3.5v-9.8h3.5v-9.3l7.7-7.2v16.5L86.2,482.7L86.2,482.7z"/>
		<path class="st3" d="M108.3,514.6l7.6,2.1c-1,4.5-2.5,8-4.6,10.3c-2.1,2.4-4.8,3.5-7.9,3.5c-5,0-8.7-2.6-11.2-8
			c-1.9-4.3-2.9-9.6-2.9-16.1c0-7.7,1.3-13.8,3.8-18.2s5.7-6.6,9.5-6.6c4.3,0,7.7,2.3,10.2,6.9c2.5,4.6,3.7,11.6,3.6,21.1H97.2
			c0.1,3.7,0.7,6.5,1.8,8.5c1.2,2,2.7,3.1,4.4,3.1c1.2,0,2.2-0.5,3-1.6C107.3,518.6,107.9,516.9,108.3,514.6L108.3,514.6z
			 M108.7,502.1c-0.1-3.6-0.6-6.3-1.7-8.2c-1.1-1.9-2.4-2.8-4-2.8c-1.7,0-3,1-4.1,3s-1.6,4.6-1.6,8H108.7L108.7,502.1z"/>
		<polygon class="st3" points="122.6,529.4 122.6,465 130.2,465 130.2,529.4 		"/>
		<path class="st3" d="M154.8,514.6l7.6,2.1c-1,4.5-2.5,8-4.6,10.3c-2.1,2.4-4.8,3.5-7.9,3.5c-5,0-8.7-2.6-11.2-8
			c-1.9-4.3-2.9-9.6-2.9-16.1c0-7.7,1.3-13.8,3.8-18.2s5.7-6.6,9.5-6.6c4.3,0,7.7,2.3,10.2,6.9c2.5,4.6,3.7,11.6,3.6,21.1h-19.2
			c0.1,3.7,0.7,6.5,1.9,8.5s2.7,3.1,4.4,3.1c1.2,0,2.2-0.5,3-1.6C153.8,518.6,154.4,516.9,154.8,514.6L154.8,514.6z M155.2,502.1
			c-0.1-3.6-0.6-6.3-1.7-8.2c-1.1-1.9-2.4-2.8-4-2.8c-1.7,0-3,1-4.1,3s-1.6,4.6-1.6,8H155.2L155.2,502.1z"/>
		<path class="st3" d="M165.7,482.7h4.2v-3.5c0-3.9,0.3-6.9,0.8-8.8c0.5-1.9,1.5-3.5,2.9-4.7s3.2-1.8,5.3-1.8c2.2,0,4.3,0.5,6.4,1.6
			l-1,8.6c-1.2-0.5-2.4-0.7-3.5-0.7s-1.9,0.4-2.4,1.2s-0.7,2.4-0.7,4.8v3.3h5.7v9.7h-5.7v37H170v-37h-4.2v-9.7L165.7,482.7
			L165.7,482.7z"/>
		<path class="st3" d="M185.9,505.4c0-4.1,0.6-8.1,1.9-11.9c1.3-3.8,3-6.8,5.3-8.8s4.9-3,7.7-3c4.4,0,8,2.3,10.8,6.9
			c2.8,4.6,4.2,10.4,4.2,17.4c0,7.1-1.4,12.9-4.2,17.6c-2.8,4.6-6.4,7-10.7,7c-2.7,0-5.2-1-7.6-2.9c-2.4-1.9-4.2-4.8-5.5-8.5
			C186.5,515.3,185.9,510.8,185.9,505.4L185.9,505.4z M193.7,506.1c0,4.6,0.7,8.2,2,10.6c1.4,2.5,3,3.7,5,3.7s3.7-1.2,5-3.7
			c1.4-2.5,2-6,2-10.7c0-4.6-0.7-8.1-2-10.5c-1.3-2.5-3-3.7-5-3.7s-3.7,1.2-5,3.7C194.4,497.9,193.7,501.5,193.7,506.1L193.7,506.1z
			"/>
		<path class="st3" d="M248,529.4h-7.6v-23.8c0-5-0.2-8.3-0.5-9.8s-0.9-2.6-1.6-3.5c-0.7-0.8-1.6-1.2-2.7-1.2
			c-1.3,0-2.5,0.6-3.6,1.8c-1,1.2-1.8,2.7-2.2,4.7c-0.4,1.9-0.6,5.5-0.6,10.7v21.1h-7.7v-46.7h7.1v6.9c2.5-5.3,5.7-7.9,9.5-7.9
			c1.7,0,3.2,0.5,4.6,1.5s2.5,2.2,3.2,3.8c0.7,1.5,1.2,3.3,1.5,5.2s0.4,4.7,0.4,8.3v28.9H248z"/>
		<path class="st3" d="M255.8,476.4V465h7.7v11.4H255.8L255.8,476.4z M255.8,529.4v-46.7h7.7v46.7H255.8L255.8,529.4z"/>
	</g>
</g>
</svg>
