<?xml version="1.0" encoding="utf-8"?>
<!-- Generator: Adobe Illustrator 19.2.0, SVG Export Plug-In . SVG Version: 6.00 Build 0)  -->
<svg version="1.1" id="Livello_1" xmlns="http://www.w3.org/2000/svg" xmlns:xlink="http://www.w3.org/1999/xlink" x="0px" y="0px"
	 viewBox="0 0 679.5 943.1" style="enable-background:new 0 0 679.5 943.1;" xml:space="preserve">
<style type="text/css">
	.st0{fill:#FFFFFF;stroke:#1A171B;stroke-width:1.3397;stroke-miterlimit:2.6131;}
	.st1{fill:#E1001A;}
	.st2{fill:#FFEC00;stroke:#E1001A;stroke-width:4.4658;stroke-miterlimit:2.6131;}
	.st3{fill:#1A171B;}
	.st4{fill:#FFFFFF;stroke:#1A171B;stroke-width:1.1837;stroke-miterlimit:2.6131;}
	.st5{fill:none;stroke:#1A171B;stroke-width:7.8916;stroke-miterlimit:2.6131;}
</style>
<g>
	<g>
		<path class="st0" d="M627.7,675.4c31.1-1.3,49.8-24.6,44.9-55.5l-1.1-4.7l-1.8-5.1l-2.2-4.9L381.8,109.6
			c-14.4-22-34.6-34.6-60.9-23.5c-10,5.5-17.3,13.3-23.1,22.7l-285.2,494c-10.4,19.5-14.4,40,1.5,58c12.6,13.3,28.2,14.7,45.8,14.7
			l561-0.2L627.7,675.4L627.7,675.4z"/>
		<path class="st1" d="M620.8,661.1c8.7-0.2,17.3,0.9,26.4-5.8c9.1-6.7,17.5-23.8,7.6-43.5L369.4,117c-16-28-44.2-27.3-59.5-0.7
			L25.1,610c-6,10.5-11.1,25.5-4.2,36.6c9.1,14.5,23.5,14.5,38.9,14.7L620.8,661.1L620.8,661.1z"/>
		<polygon class="st2" points="582.8,603 339.2,181.6 96.2,603 		"/>
		<path class="st3" d="M339.3,582.6c3.4-8.9,11.6-18.2,27.9-16.3c-0.6-10.4,7.6-19.3,17.1-17.6c3.6-7.8,6.1-10,14.2-12.5l-61.1-52.3
			l-3.4,1.3c5.3,5.5,12.5,13.8,8.7,23.9l-37.3,65.8c-12.7,19.7-34.9,1.7-26.7-12.9l31.1-56.5L277,457.4v50l-19.1,65.8
			c-6.8,18.6-33,9.3-27.9-6.6l16.3-59.5V444l2.5-11c3.4-4,6.8-6.3,11.2-11.6c0-2.1-2.1-3-3.8-4.2c-1.5-2.1-2.1-5.3-4-7.8
			c-3.8-2.8-7.2-5.9-11.9-10.2c-4.9-5.5,0.6-12.7,6.6-8.5c2.5,1.5,7.6,6.3,10.8,9.1l8.5-38.9c2.3-6.6,4.4-10.4,12.1-11.4l59.9,0.2
			c5.3,1.5,10.4,3.2,12.7,7.2l20.1,33c1.9,7,2.7,6.8,0.8,14.2l-32.2,66.5c20.3,18.8,46.1,40.9,69,59.7c16.5-23.3,44.9-11.6,53.6,5.3
			c17.4,0,24.8,11,22.6,21.2c8,4,4,0.2,8.5,7.6c11,0,19.9,9.9,23.1,18.2H339.3L339.3,582.6z M305.1,440.9l31.3-13.1l-14,27.5
			L305.1,440.9L305.1,440.9z M282,397.5l5.3-22h18.4L282,397.5L282,397.5z M389.3,342.1c12.1,0,21.8,9.7,21.8,21.8
			c0,12.1-9.7,21.8-21.8,21.8s-21.8-9.7-21.8-21.8S377.2,342.1,389.3,342.1L389.3,342.1z"/>
	</g>
</g>
<g>
	<polygon class="st4" points="30.1,713.5 630.1,713.5 630.1,940.5 30.1,940.5 	"/>
	<path class="st5" d="M76.1,729.8h508.1c16.3,0,29.7,13.3,29.7,29.7v135.3c0,16.3-13.3,29.7-29.7,29.7H76.1
		c-16.3,0-29.7-13.3-29.7-29.7V759.4C46.4,743.1,59.8,729.8,76.1,729.8L76.1,729.8z"/>
	<path class="st3" d="M433.5,829.4c4.8-8.4,24.2-8.1,26.9,1.5c6.8-12,29-9.3,29,5.4v39H473v-30.9c0-3,0-9-5.1-9
		c-4.1,0-6.5,5.1-6.5,7.5v32.4H445v-30.9c0-3,0-9-5.1-9c-4.1,0-6.5,5.1-6.5,7.5v32.4H417c0-14.7,0-32.1,0-46.9
		c0-1.2-0.7-2.4-0.7-3.6h16.5L433.5,829.4L433.5,829.4z"/>
	<polygon class="st3" points="539.5,872.9 539.5,813.2 519.5,813.2 549.4,764.6 581.7,813.2 559.3,813.2 559.3,872.9 	"/>
	<polygon class="st3" points="101.6,875.6 101.6,815.9 81.6,815.9 111.5,767.3 143.8,815.9 121.4,815.9 121.4,875.6 	"/>
	<path class="st3" d="M188.2,846.2l16.8-2.1c0.3,4.5,1.8,8.2,3.9,10.4c2.1,2.1,5.2,3.5,8.4,3.5c3.1,0,6.3-1.3,8.7-4
		s3.7-6.6,3.7-11.4c0-4.5-1-8.2-3.1-10.9s-5-4-8.1-4c-1.8,0-4.5,0.5-7.1,1.3l1.6-14.1c4.2,0,7.9-0.8,10-2.9c2.4-2.1,3.7-5.1,3.7-8.8
		c0-2.9-1.1-5.6-2.6-7.2c-1.6-1.9-4.2-2.9-6.8-2.9s-5.2,1.1-7.1,3.2c-1.8,2.1-3.1,5.3-3.4,9l-16.3-2.7c1-5.6,2.6-10.4,4.7-13.6
		s5.5-6.1,9.2-8c3.9-1.9,8.4-2.9,13.1-2.9c8.4,0,15.2,2.9,20.2,8.5c4.2,4.3,6.3,9.6,6.3,15.2c0,8-4.5,14.6-13.1,19.4
		c5.2,1.1,9.4,3.7,12.6,7.4c3.1,4,4.7,9,4.7,14.6c0,8-2.9,15.2-8.7,20.7c-5.8,5.8-13.1,8.8-21.8,8.8c-7.9,0-15-2.4-20.2-7.2
		s-8.7-11.4-9.2-19.1L188.2,846.2L188.2,846.2L188.2,846.2z"/>
	<path class="st3" d="M380.4,788c-4.7-6.4-11.8-9.8-20.7-9.8c-8.9,0-16,3.2-21,9.6c-5.8,7.4-8.9,20.2-8.9,37.8s2.9,30.1,8.1,37
		s12.9,10.4,21.8,10.4s16-3.2,20.7-9.3c6-7.4,9.2-20.2,9.2-37.8C389.6,808.2,386.5,795.5,380.4,788z M369.4,848.7
		c-1,3.5-2.6,6.1-4.2,7.4c-1.6,1.1-3.4,1.9-5.5,1.9s-4.5-0.8-6-2.1c-1.6-1.1-2.9-4-3.9-8c-1-3.7-1.6-11.4-1.6-22.1
		c0-10.6,0.8-18.6,1.8-23.1c0.8-3.5,2.4-6.1,3.9-7.4c1.6-1.3,3.7-2.1,5.8-2.1c2.1,0,4.2,0.8,5.8,2.1c1.6,1.3,3.1,4.3,4.2,8.2
		c1,4,1.6,11.7,1.6,22.3C371.3,836.4,370.5,844.4,369.4,848.7z"/>
	<path class="st3" d="M314.6,830.3c-2.6-3.7-6.6-6.9-11.5-8.8c3.9-1.6,7.3-4.5,9.4-7.7s3.1-7.2,3.1-11.4c0-6.9-2.6-13-7.3-17.6
		c-4.7-4.3-11.5-6.6-19.9-6.6c-8.7,0-15.5,2.4-20.2,6.9c-4.7,4.3-7.1,10.4-7.1,17.3c0,3.7,1,7.7,3.1,11.2c1.8,3.2,5.2,6.1,10,7.7
		v0.3c-5.2,2.1-9.2,5.6-11.5,9.8c-2.4,4-3.7,8.8-3.7,13.6c0,9,3.4,16.2,9.7,21.5c5.2,4.3,12.3,6.4,20.5,6.4c8.9,0,16.3-2.7,21.5-8
		s8.1-12.2,8.1-20.7C318.8,839.1,317.2,834.3,314.6,830.3z M280.7,795.2c1.8-2.1,4.7-3.2,7.9-3.2s5.8,1.1,7.9,3.2
		c1.8,2.1,2.9,5.1,2.9,8.2c0,3.5-1,6.4-3.1,8.5c-1.8,1.9-4.7,2.9-7.9,2.9s-5.8-1.1-7.6-2.9c-1.8-1.9-2.9-4.8-2.9-8.5
		C277.9,800.3,278.9,797.3,280.7,795.2z M297.8,855c-2.1,2.7-5.2,4-8.9,4s-6.8-1.6-9.2-4.3c-2.1-2.6-3.4-6.6-3.4-11.6v0.1v-0.3v0.1
		c0-3.4,1.1-6.8,3.1-10c1.8-2.9,5-4.5,9.2-4.5c3.7,0,6.8,1.6,9.2,4.3c2.4,2.7,3.7,6.4,3.7,10.6C301.5,848.4,300.2,852.4,297.8,855z"
		/>
</g>
</svg>
