<?xml version="1.0" encoding="utf-8"?>
<!-- Generator: Adobe Illustrator 19.2.0, SVG Export Plug-In . SVG Version: 6.00 Build 0)  -->
<svg version="1.1" id="Livello_1" xmlns="http://www.w3.org/2000/svg" xmlns:xlink="http://www.w3.org/1999/xlink" x="0px" y="0px"
	 viewBox="0 0 870 451.4" style="enable-background:new 0 0 870 451.4;" xml:space="preserve">
<style type="text/css">
	.st0{fill:none;stroke:#1A171B;stroke-width:3.9748;stroke-miterlimit:2.6131;}
	.st1{fill:#9B9C9E;}
	.st2{fill:#C5C6C8;}
	.st3{fill:#FFFFFF;stroke:#1A171B;stroke-width:1.9874;stroke-miterlimit:2.6131;}
	.st4{fill:#E1001A;stroke:#E1001A;stroke-width:1.1924;stroke-miterlimit:2.6131;}
</style>
<g>
	<g>
		<polygon class="st0" points="180.1,57.1 206.5,57.1 206.5,423 180.1,423 		"/>
		<polygon class="st1" points="0,423 870,423 870,451.4 0,451.4 		"/>
		<polygon class="st0" points="663.7,57.1 690.1,57.1 690.1,423 663.7,423 		"/>
		<polygon class="st2" points="690.1,88.4 696.6,88.4 696.6,419.7 690.1,419.7 		"/>
		<polygon class="st2" points="206.5,88.4 213,88.4 213,419.7 206.5,419.7 		"/>
		<polygon class="st3" points="123.4,1.4 749.3,1.4 749.3,88.4 123.4,88.4 		"/>
		<polygon class="st4" points="209.5,1.4 123.8,1.4 123.8,86.8 		"/>
		<polygon class="st4" points="366.9,1.4 276.8,1.4 189.6,88.2 279.8,88.2 		"/>
		<polygon class="st4" points="524.4,1.4 434.3,1.4 347.1,88.2 437.3,88.2 		"/>
		<polygon class="st4" points="682.1,1.4 591.9,1.4 504.8,88.2 595,88.2 		"/>
		<polygon class="st4" points="749.2,1.8 749.2,88.2 662.5,88.2 		"/>
	</g>
</g>
</svg>
