<?xml version="1.0" encoding="utf-8"?>
<!-- Generator: Adobe Illustrator 19.2.0, SVG Export Plug-In . SVG Version: 6.00 Build 0)  -->
<svg version="1.1" id="Livello_1" xmlns="http://www.w3.org/2000/svg" xmlns:xlink="http://www.w3.org/1999/xlink" x="0px" y="0px"
	 viewBox="0 0 960 960" style="enable-background:new 0 0 960 960;" xml:space="preserve">
<style type="text/css">
	.st0{fill-rule:evenodd;clip-rule:evenodd;fill:#C5C6C8;}
	.st1{fill-rule:evenodd;clip-rule:evenodd;fill:#FFFFFF;stroke:#1A171B;stroke-width:1.6694;stroke-miterlimit:2.6131;}
	.st2{fill-rule:evenodd;clip-rule:evenodd;fill:#9B9C9E;}
	.st3{fill-rule:evenodd;clip-rule:evenodd;fill:#E1001A;}
	.st4{fill-rule:evenodd;clip-rule:evenodd;fill:#FFFFFF;}
	.st5{fill:none;stroke:#1A171B;stroke-width:1.0016;stroke-miterlimit:2.6131;}
</style>
<g>
	<g>
		<polygon class="st0" points="474.3,615.7 499.2,615.7 499.2,788.9 474.3,788.9 474.3,615.7 		"/>
		<polygon class="st1" points="468,615.7 493,615.7 493,788.9 468,788.9 468,615.7 		"/>
		<polygon class="st2" points="330,788.6 630,788.6 630,805 330,805 330,788.6 		"/>
		<polygon class="st3" points="537.6,615.9 423,615.9 423,155 537.6,155 537.6,615.9 		"/>
		<polygon class="st4" points="422.8,282.9 537.6,155.3 537.6,394.3 422.8,394.3 422.8,282.9 		"/>
		<polygon class="st3" points="422.8,384.8 537.6,257.2 537.6,532.1 422.8,404.5 422.8,384.8 		"/>
		<polygon class="st4" points="422.8,512.4 537.6,384.8 537.6,615.7 422.8,615.7 422.8,512.4 		"/>
		<polygon class="st3" points="422.8,614.3 537.6,486.7 537.6,615.7 422.8,615.7 422.8,614.3 		"/>
		<polygon class="st4" points="536.6,615.7 537.6,614.6 537.6,615.7 536.6,615.7 		"/>
		<polygon class="st5" points="537.6,615.9 423,615.9 423,155 537.6,155 537.6,615.9 		"/>
	</g>
</g>
</svg>
