<?xml version="1.0" encoding="utf-8"?>
<!-- Generator: Adobe Illustrator 19.2.0, SVG Export Plug-In . SVG Version: 6.00 Build 0)  -->
<svg version="1.1" id="Livello_1" xmlns="http://www.w3.org/2000/svg" xmlns:xlink="http://www.w3.org/1999/xlink" x="0px" y="0px"
	 viewBox="0 0 473 660" style="enable-background:new 0 0 473 660;" xml:space="preserve">
<style type="text/css">
	.st0{fill:#9B9C9E;}
	.st1{fill:#1A171B;}
	.st2{fill:#FFFFFF;}
	.st3{fill:#E1001A;}
	.st4{fill:none;stroke:#1A171B;stroke-width:2.871;stroke-miterlimit:2.6131;}
</style>
<g>
	<g>
		<polygon class="st0" points="252.3,642.5 224.7,642.5 6.9,642.5 6.9,655.7 224.7,655.7 252.3,655.7 466.1,655.7 466.1,642.5 		"/>
		<path class="st1" d="M391.9,588.1c-4-7.4-12-17.2-22.4-17.2h-19.1h-98h-27.7h-98h-19.1c-10.4,0-18.4,9.8-22.4,17.2l-36.3,54.4
			h175.8h27.7h175.8L391.9,588.1z"/>
		<polygon class="st2" points="350.7,570.6 265.8,48.7 265.8,5.7 224.7,5.7 211.1,5.7 211.1,49 126.6,570.9 252.3,570.9 
			252.3,570.6 		"/>
		<g>
			<polygon class="st3" points="320.3,383.1 157,383.1 140.3,486.4 337.3,486.4 			"/>
			<polygon class="st3" points="276.3,110.8 266.4,48.9 266.3,5.7 211.1,5.7 211.1,49 201.1,110.8 			"/>
			<polygon class="st3" points="170.7,298.6 306.3,298.6 289.3,195 187.5,195 			"/>
		</g>
		<polygon class="st4" points="350.7,570.6 265.8,48.7 265.8,5.7 224.7,5.7 211.1,5.7 211.1,49 126.6,570.9 252.3,570.9 
			252.3,570.6 		"/>
	</g>
</g>
</svg>
