<?xml version="1.0" encoding="utf-8"?>
<!-- Generator: Adobe Illustrator 19.2.0, SVG Export Plug-In . SVG Version: 6.00 Build 0)  -->
<svg version="1.1" id="Livello_1" xmlns="http://www.w3.org/2000/svg" xmlns:xlink="http://www.w3.org/1999/xlink" x="0px" y="0px"
	 viewBox="0 0 724.1 724.1" style="enable-background:new 0 0 724.1 724.1;" xml:space="preserve">
<style type="text/css">
	.st0{fill:#FFFFFF;stroke:#1A171B;stroke-width:1.9713;stroke-miterlimit:2.6131;}
	.st1{fill:#E1001A;}
	.st2{fill:#FFFFFF;stroke:#1A171B;stroke-width:1.1828;stroke-miterlimit:2.6131;}
	.st3{fill:#005EA7;}
	.st4{fill:#FFFFFF;}
</style>
<g>
	<g>
		<polygon class="st0" points="2.1,1.9 721.8,1.9 721.8,721.6 2.1,721.6 		"/>
		<polygon class="st1" points="421.1,721.3 519.7,721.3 362.8,564.1 205.6,721.3 304.2,721.3 362.8,662.7 		"/>
		<polygon class="st1" points="618.3,721.3 716.4,721.3 362.8,367.5 9,721.3 107,721.3 362.8,465.5 		"/>
		<polygon class="st1" points="722.1,628.4 722.1,530.1 362.8,170.5 2.4,530.7 2.4,629.3 362.8,268.8 		"/>
		<polygon class="st1" points="587.8,1.6 489.2,1.6 722.1,234.5 722.1,135.9 		"/>
		<polygon class="st1" points="390.8,1.6 334.5,1.6 2.4,333.7 2.4,432.1 362.8,71.9 722.1,431.5 722.1,332.9 		"/>
		<polygon class="st1" points="236.2,1.6 137.6,1.6 2.4,136.8 2.4,235.1 		"/>
		<path class="st2" d="M383.3,152.7c67.1,12,110.6,36.4,151.5,91.5c23.3,37.5,34.1,72.4,35.6,116.2c-3,87.7-48.4,154.9-127.1,191.6
			c-89.2,36.7-178.9,11.2-242.2-59.3C161.3,440.6,146.4,383.2,158,318c13.5-50.2,33-83.6,71.6-118.5c41.3-30.7,80.2-46.1,132.4-47.6
			L383.3,152.7L383.3,152.7z"/>
		<path class="st3" d="M362.8,163.5c108.2,0,196.5,88.2,196.5,196.5c0,108.2-88.3,196.4-196.5,196.4S166.3,468.1,166.3,360
			C166.4,251.8,254.6,163.5,362.8,163.5L362.8,163.5z"/>
		<path class="st4" d="M482.1,481.5l-169.4-44.4c-4-3.7-7-7-0.8-13.2l45.3-28.2l-131-131.4l37.8-37.6l129.5,129.7l30.9-45
			c6.3-6.4,9.9-2.9,13.4,0.6L482.1,481.5L482.1,481.5z"/>
	</g>
</g>
</svg>
