<?xml version="1.0" encoding="utf-8"?>
<!-- Generator: Adobe Illustrator 19.2.0, SVG Export Plug-In . SVG Version: 6.00 Build 0)  -->
<svg version="1.1" id="Livello_1" xmlns="http://www.w3.org/2000/svg" xmlns:xlink="http://www.w3.org/1999/xlink" x="0px" y="0px"
	 viewBox="0 0 660.6 722.2" style="enable-background:new 0 0 660.6 722.2;" xml:space="preserve">
<style type="text/css">
	.st0{fill:#FFEC00;stroke:#1A171B;stroke-width:0.8359;stroke-miterlimit:2.6131;}
	.st1{fill:#FFFFFF;stroke:#1A171B;stroke-width:0.8359;stroke-miterlimit:2.6131;}
	.st2{fill:none;stroke:#1A171B;stroke-width:5.5728;stroke-miterlimit:2.6131;}
	.st3{fill:none;stroke:#1A171B;stroke-width:8.3592;stroke-miterlimit:2.6131;}
	.st4{fill:#1A171B;}
	.st5{fill:#FFFFFF;}
	.st6{fill:#E1001A;}
	.st7{fill:#FFEC00;stroke:#E1001A;stroke-width:2.7864;stroke-miterlimit:2.6131;}
</style>
<g>
	<g>
		<polygon class="st0" points="0.8,1.2 659.2,1.2 659.2,580.5 0.8,580.5 		"/>
		<polygon class="st1" points="0.8,580.5 659.2,580.5 659.2,721.2 0.8,721.2 		"/>
		<path class="st2" d="M36.7,592.5h588.2c13.1,0,23.7,13.1,23.7,23.7v69.4c0,10.3-12.8,24-23.7,24H36.7c-10.9,0-23.7-10.6-23.7-24
			v-69.4C13,602.8,23.6,592.5,36.7,592.5L36.7,592.5z"/>
		<path class="st3" d="M36.7,13.2h588.2c13.1,0,23.7,12.8,23.7,23.7v508c0,10.6-12.5,24-23.7,24H36.7c-11.1,0-23.7-10.6-23.7-24
			v-508C13,23.5,23.6,13.2,36.7,13.2L36.7,13.2z"/>
		<path class="st4" d="M152.6,226.3h-28.4c0-29.5,0-63.8,0-105l-28.7,5.6c-3.3,0-5.3-2.2-5.3-5.6L139,38.8l47.9,82.5
			c0,2.2-0.8,6.1-5,5.6l-29-5.6c0,21.5,0,39.8,0,56l102.3,59.1V359l-102.3,59.1v124.6h-28.7c0-80.5,0-124.3,0-172.5h28.4v17
			l75.8-43.7v-91.4l-75.8-43.9V226.3L152.6,226.3z"/>
		<polygon class="st4" points="253.1,120.5 253.1,60.6 263.9,60.6 286.3,100.6 286.3,60.6 296.6,60.6 296.6,120.5 285.5,120.5 
			263.4,81.4 263.4,120.5 		"/>
		<path class="st4" d="M306.1,90.9c0-6.1,0.8-11.2,2.5-15.3c1.3-3,3-5.8,5.1-8.2c2.2-2.4,4.5-4.2,7.1-5.4c3.4-1.6,7.4-2.4,11.8-2.4
			c8.1,0,14.6,2.7,19.4,8.2c4.9,5.5,7.3,13.1,7.3,22.8s-2.4,17.2-7.2,22.7c-4.8,5.4-11.3,8.2-19.3,8.2c-8.2,0-14.7-2.7-19.5-8.1
			C308.5,107.9,306.1,100.4,306.1,90.9L306.1,90.9z M317.5,90.5c0,6.8,1.4,11.9,4.3,15.4s6.5,5.2,10.9,5.2s8-1.7,10.9-5.2
			c2.8-3.5,4.2-8.7,4.2-15.6c0-6.9-1.4-12-4.1-15.4c-2.8-3.4-6.4-5.1-11-5.1s-8.3,1.7-11.1,5.1C318.9,78.5,317.5,83.6,317.5,90.5
			L317.5,90.5z"/>
		<polygon class="st4" points="382,120.5 362.4,60.6 374.4,60.6 388.3,104.9 401.7,60.6 413.5,60.6 393.8,120.5 		"/>
		<path class="st4" d="M462.9,120.5h-12.1l-4.8-13.6h-21.9l-4.5,13.6h-11.8l21.4-59.8H441L462.9,120.5L462.9,120.5z M442.5,96.8
			l-7.6-22.2l-7.4,22.2H442.5L442.5,96.8z"/>
		<path class="st4" d="M468.8,120.5V60.7h23.3c5.9,0,10.1,0.5,12.8,1.6s4.8,3,6.4,5.7c1.6,2.8,2.4,5.9,2.4,9.4
			c0,4.5-1.2,8.2-3.6,11.1c-2.4,2.9-6,4.8-10.9,5.5c2.4,1.5,4.4,3.2,5.9,5c1.6,1.8,3.7,5.1,6.3,9.7l6.7,11.7h-13.3l-8-13
			c-2.9-4.7-4.8-7.6-5.8-8.8s-2.2-2-3.3-2.5c-1.2-0.4-3-0.7-5.6-0.7h-2.2v25h-11.1L468.8,120.5L468.8,120.5z M479.9,85.9h8.2
			c5.3,0,8.6-0.2,10-0.7c1.3-0.5,2.4-1.3,3.1-2.5c0.7-1.2,1.1-2.7,1.1-4.5c0-2-0.5-3.6-1.5-4.9c-1-1.2-2.4-2-4.2-2.4
			c-0.9-0.1-3.6-0.2-8.1-0.2h-8.6V85.9L479.9,85.9z"/>
		<path class="st4" d="M573.7,120.5h-12.1l-4.8-13.6h-21.9l-4.5,13.6h-11.8L540,60.7h11.7L573.7,120.5L573.7,120.5z M553.3,96.8
			l-7.6-22.2l-7.4,22.2H553.3L553.3,96.8z"/>
		<path class="st4" d="M292.3,669.6v9h-29c0.3-3.4,1.3-6.6,2.8-9.6c1.6-3,4.7-7.1,9.3-12.1c3.7-4,6-6.8,6.9-8.2c1.1-2,1.7-4,1.7-5.9
			c0-2.1-0.5-3.8-1.5-5s-2.4-1.7-4.1-1.7s-3.1,0.6-4.1,1.8s-1.6,3.2-1.8,6.1l-8.2-1c0.5-5.3,2-9.1,4.6-11.5c2.6-2.3,5.8-3.5,9.7-3.5
			c4.3,0,7.6,1.3,10,4s3.6,6,3.6,10c0,2.3-0.4,4.4-1,6.5c-0.7,2.1-1.8,4.2-3.3,6.4c-1,1.5-2.8,3.6-5.4,6.4c-2.6,2.8-4.3,4.7-5,5.6
			c-0.7,0.9-1.3,1.8-1.7,2.7H292.3L292.3,669.6z"/>
		<polygon class="st4" points="316.1,678.6 316.1,628.2 324.4,628.2 324.4,654.9 334,642.1 344.2,642.1 333.5,655.4 345,678.6 
			336.1,678.6 328.2,662.2 324.4,666.9 324.4,678.6 		"/>
		<path class="st4" d="M349.2,642.1h7.6v5c2.7-3.9,6-5.8,9.7-5.8c2,0,3.7,0.5,5.2,1.4c1.5,1,2.7,2.4,3.6,4.4c1.4-2,2.8-3.4,4.4-4.4
			c1.6-1,3.3-1.4,5.1-1.4c2.3,0,4.2,0.6,5.8,1.6c1.6,1.1,2.8,2.7,3.5,4.8c0.6,1.6,0.9,4.1,0.9,7.6v23.3h-8.3v-20.9
			c0-3.6-0.3-6-0.9-7c-0.8-1.4-1.9-2.1-3.5-2.1c-1.2,0-2.2,0.4-3.3,1.2c-1,0.8-1.7,2-2.2,3.6c-0.4,1.6-0.7,4.1-0.7,7.6v17.5h-8.3
			v-20c0-3.6-0.1-5.8-0.4-6.9c-0.3-1-0.8-1.8-1.4-2.3c-0.6-0.5-1.5-0.8-2.5-0.8c-1.3,0-2.4,0.4-3.4,1.2s-1.8,2-2.2,3.5
			c-0.4,1.5-0.7,4-0.7,7.5v17.7h-8.3v-36.3L349.2,642.1L349.2,642.1z"/>
		<path class="st5" d="M189.7,349.2c5.4-0.2,8.7-4.3,7.8-9.6l-0.2-0.8l-0.3-0.9l-0.4-0.9L147,250.8c-2.5-3.8-6-6-10.6-4.1
			c-1.7,0.9-3,2.3-4,3.9l-49.6,85.8c-1.8,3.4-2.5,7,0.3,10.1c2.2,2.3,4.9,2.6,8,2.6h97.5L189.7,349.2L189.7,349.2z"/>
		<path class="st6" d="M188.5,346.7c1.5,0,3,0.2,4.6-1s3-4.1,1.3-7.6l-49.6-86c-2.8-4.9-7.7-4.7-10.3-0.1L85,337.8
			c-1,1.8-1.9,4.4-0.7,6.4c1.6,2.5,4.1,2.5,6.8,2.6L188.5,346.7L188.5,346.7z"/>
		<polygon class="st7" points="181.9,336.6 139.6,263.4 97.4,336.6 		"/>
		<path class="st4" d="M139.6,333c0.6-1.5,2-3.2,4.9-2.8c-0.1-1.8,1.3-3.3,3-3.1c0.6-1.4,1.1-1.7,2.5-2.2l-10.6-9.1l-0.6,0.2
			c0.9,1,2.2,2.4,1.5,4.2l-6.5,11.4c-2.2,3.4-6.1,0.3-4.6-2.2l5.4-9.8l-5.7-8.3v8.7l-3.3,11.4c-1.2,3.2-5.7,1.6-4.9-1.1l2.8-10.3
			v-11l0.4-1.9c0.6-0.7,1.2-1.1,2-2c0-0.4-0.4-0.5-0.7-0.7c-0.3-0.4-0.4-0.9-0.7-1.4c-0.7-0.5-1.3-1-2.1-1.8c-0.8-1,0.1-2.2,1.1-1.5
			c0.4,0.3,1.3,1.1,1.9,1.6l1.5-6.8c0.4-1.1,0.8-1.8,2.1-2h10.4c0.9,0.3,1.8,0.6,2.2,1.3l3.5,5.7c0.3,1.2,0.5,1.2,0.1,2.5l-5.6,11.5
			c3.5,3.3,8,7.1,12,10.4c2.9-4,7.8-2,9.3,0.9c3,0,4.3,1.9,3.9,3.7c1.4,0.7,0.7,0,1.5,1.3c1.9,0,3.5,1.7,4,3.2L139.6,333L139.6,333z
			 M133.7,308.4l5.4-2.3l-2.4,4.8L133.7,308.4L133.7,308.4z M129.7,300.9l0.9-3.8h3.2L129.7,300.9L129.7,300.9z M148.3,291.3
			c2.1,0,3.8,1.7,3.8,3.8c0,2.1-1.7,3.8-3.8,3.8c-2.1,0-3.8-1.7-3.8-3.8C144.5,292.9,146.2,291.3,148.3,291.3L148.3,291.3z"/>
		<path class="st4" d="M60.3,609.2l21.9,37.5c0.1,1.3,0,2.5-2.2,2.5l-13.2-2.4v45.5H53.6v-45.5l-13.1,2.5c-2.2,0-2.2-1.2-2.2-2.4
			L60.3,609.2L60.3,609.2z"/>
		<path class="st4" d="M599.5,609.2l21.9,37.5c0.1,1.3,0,2.5-2.2,2.5l-13.2-2.4v45.5h-13.2v-45.5l-13.1,2.5c-2.2,0-2.2-1.2-2.2-2.4
			L599.5,609.2L599.5,609.2z"/>
	</g>
</g>
</svg>
