<?xml version="1.0" encoding="utf-8"?>
<!-- Generator: Adobe Illustrator 19.2.0, SVG Export Plug-In . SVG Version: 6.00 Build 0)  -->
<svg version="1.1" id="Livello_1" xmlns="http://www.w3.org/2000/svg" xmlns:xlink="http://www.w3.org/1999/xlink" x="0px" y="0px"
	 viewBox="0 0 872.6 672" style="enable-background:new 0 0 872.6 672;" xml:space="preserve">
<style type="text/css">
	.st0{fill:#FFEC00;stroke:#1A171B;stroke-width:0.9667;stroke-miterlimit:2.6131;}
	.st1{fill:#1A171B;}
	.st2{fill:#FFFFFF;}
	.st3{fill:#E1001A;}
	.st4{fill:#1A171B;stroke:#1A171B;stroke-width:0.9667;stroke-miterlimit:2.6131;}
	.st5{fill:#FFFFFF;stroke:#1A171B;stroke-width:0.9667;stroke-miterlimit:2.6131;}
	.st6{fill:none;stroke:#1A171B;stroke-width:9.6667;stroke-miterlimit:2.6131;}
</style>
<g>
	<g>
		<polygon class="st0" points="1.5,1.2 871.5,1.2 871.5,671.2 1.5,671.2 		"/>
		<path class="st1" d="M453.3,263.2c0-18.7,0,0.6,0-24.2l33.5,6.4c4.8,0.6,5.8-3.9,5.8-6.4l-55.5-95.3l-56.4,95.4
			c0,3.9,2.3,6.4,6.1,6.4l33.2-6.4c0,284.8,0,183.3,0,383.4h33.2v-80.9l118.3-68.3V331.5L453.3,263.2z M540.5,455.3l-87.6,50.6V299
			l87.6,50.6V455.3z"/>
		<path class="st2" d="M443.3,338.7c20.5,3.7,33.8,11.1,46.3,28c7.1,11.5,10.4,22.1,10.9,35.6c-0.9,26.8-14.8,47.4-38.9,58.6
			c-27.3,11.2-54.7,3.4-74.1-18.1c-12.2-15.9-16.7-33.5-13.2-53.4c4.1-15.4,10.1-25.6,21.9-36.2c12.6-9.4,24.5-14.1,40.5-14.6
			L443.3,338.7L443.3,338.7z"/>
		<path class="st3" d="M437.3,342.7c32.6,0,59.2,26.6,59.2,59.2s-26.6,59.3-59.2,59.3s-59.2-26.6-59.2-59.2S404.7,342.7,437.3,342.7
			L437.3,342.7z"/>
		<path class="st2" d="M437.3,357.9c24.3,0,44.1,19.8,44.1,44.1s-19.8,44.1-44.1,44.1c-24.3,0-44.1-19.8-44.1-44.1
			C393.2,377.7,413,357.9,437.3,357.9L437.3,357.9z"/>
		<path class="st4" d="M431.1,429.2c-0.5,0-1.1-0.5-0.3-1c0.8-0.1,1.4-0.7,1.3-1.3c-2.2-1-1.5-3.2-0.3-4
			C436.7,421.4,436.5,429.2,431.1,429.2L431.1,429.2z"/>
		<polygon class="st4" points="410.2,426.3 423.8,385.3 410.2,385.3 410.2,376.6 432.6,376.6 432.6,388 420,426.3 		"/>
		<path class="st4" d="M463,426.3c-2.1,0-3.7-1-4.7-2.8s-1.6-4.5-1.6-8.2c0-3.5,0.6-6.2,1.6-8.1c1-1.8,2.6-2.8,4.6-2.8
			c2.1,0,3.7,0.9,4.7,2.7c1,1.8,1.6,4.5,1.6,8.1s-0.6,6.4-1.6,8.2C466.7,425.4,465.1,426.3,463,426.3L463,426.3L463,426.3z"/>
		<path class="st5" d="M463.1,422.3c0.7,0,1.4-0.5,1.7-1.4c0.3-1,0.5-2.7,0.5-5.1c0-2.5-0.2-4.4-0.5-5.5c-0.4-1.1-1-1.7-1.7-1.7
			c-0.8,0-1.4,0.5-1.7,1.6c-0.3,1.1-0.6,2.9-0.6,5.3c0,2.5,0.2,4.4,0.5,5.3C461.6,421.7,462.2,422.3,463.1,422.3L463.1,422.3
			L463.1,422.3z"/>
		<path class="st4" d="M447,426.3c-2.1,0-3.6-1-4.6-2.8s-1.6-4.5-1.6-8.2c0-3.5,0.6-6.2,1.6-8.1c1-1.8,2.6-2.8,4.6-2.8
			s3.6,0.9,4.6,2.7c1.1,1.8,1.6,4.5,1.6,8.1s-0.6,6.4-1.6,8.2C450.6,425.4,449.1,426.3,447,426.3L447,426.3L447,426.3z"/>
		<path class="st5" d="M447.1,422.3c0.7,0,1.3-0.5,1.6-1.4c0.3-1,0.5-2.7,0.5-5.1c0-2.5-0.2-4.4-0.5-5.5s-1-1.7-1.7-1.7
			s-1.3,0.5-1.6,1.6c-0.4,1.1-0.6,2.9-0.6,5.3c0,2.5,0.2,4.4,0.5,5.3C445.6,421.7,446.2,422.3,447.1,422.3L447.1,422.3L447.1,422.3z
			"/>
		<path class="st4" d="M447.1,398.4c-2.7,0-4.1-1.9-4.1-3.9v-10h-2.2v-3.6h2.2v-2.7l3.3-1.7v4.4h2.3v3.6h-2.3v10
			c0.7,1.3,1.8,0.7,3.1-0.3l0.9,2.1C449.8,397.1,449.1,398.4,447.1,398.4L447.1,398.4z"/>
		<path class="st6" d="M43.1,15.1h788.8c15.1,0,27.4,15.5,27.4,27.4v587.4c0,11.6-15.1,27.7-27.4,27.7H43.1
			c-12.2,0-27.4-12.2-27.4-27.7V42.5C15.7,27,27.9,15.1,43.1,15.1L43.1,15.1z"/>
		<polygon class="st1" points="279.9,116 279.9,51.7 293.1,51.7 293.1,105 326.2,105 326.2,116 		"/>
		<path class="st1" d="M335.6,51.2h13.3v35.1c0,5.6,0.2,9.2,0.5,10.8c0.6,2.7,1.9,4.8,4.1,6.4c2.1,1.6,5.1,2.4,8.8,2.4
			c3.8,0,6.6-0.8,8.5-2.3s3.1-3.4,3.4-5.6c0.4-2.2,0.6-5.9,0.6-11V51.2h13.3v34c0,7.8-0.4,13.3-1.1,16.5s-2,5.9-4,8.1
			c-1.9,2.2-4.5,4-7.7,5.3s-7.5,2-12.7,2c-6.3,0-11-0.7-14.3-2.1c-3.2-1.4-5.8-3.3-7.7-5.6c-1.9-2.3-3.1-4.7-3.7-7.2
			c-0.9-3.7-1.3-9.2-1.3-16.4L335.6,51.2L335.6,51.2z"/>
		<path class="st1" d="M444.1,92.1l12.9,4c-2,7.1-5.3,12.3-9.8,15.8c-4.6,3.4-10.4,5.1-17.5,5.1c-8.7,0-15.9-2.9-21.5-8.8
			c-5.6-5.9-8.4-13.9-8.4-24.1c0-10.8,2.8-19.2,8.5-25.1c5.7-6,13.1-8.9,22.3-8.9c8,0,14.6,2.3,19.6,7c3,2.8,5.2,6.7,6.7,11.9
			l-13.2,3.1c-0.8-3.4-2.4-6-4.9-8c-2.5-1.9-5.5-2.9-9-2.9c-4.9,0-8.8,1.7-11.9,5.2c-3,3.4-4.6,9-4.6,16.7c0,8.2,1.5,14,4.5,17.5
			s6.9,5.2,11.7,5.2c3.5,0,6.6-1.1,9.1-3.3C441.2,100.4,443,96.9,444.1,92.1L444.1,92.1z"/>
		<path class="st1" d="M510.5,92.1l12.9,4c-2,7.1-5.3,12.3-9.8,15.8c-4.6,3.4-10.4,5.1-17.5,5.1c-8.7,0-15.9-2.9-21.5-8.8
			c-5.6-5.9-8.4-13.9-8.4-24.1c0-10.8,2.8-19.2,8.5-25.1c5.7-6,13.1-8.9,22.3-8.9c8,0,14.6,2.3,19.6,7c3,2.8,5.2,6.7,6.7,11.9
			l-13.2,3.1c-0.8-3.4-2.4-6-4.9-8c-2.5-1.9-5.5-2.9-9-2.9c-4.9,0-8.8,1.7-11.9,5.2c-3,3.4-4.5,9-4.5,16.7c0,8.2,1.5,14,4.5,17.5
			s6.9,5.2,11.7,5.2c3.5,0,6.6-1.1,9.1-3.3C507.5,100.4,509.3,96.9,510.5,92.1L510.5,92.1z"/>
		<path class="st1" d="M594,116h-14.5l-5.7-14.7h-26.3l-5.4,14.7H528l25.6-64.8h14L594,116L594,116z M569.6,90.3l-9.1-24l-8.9,24
			H569.6L569.6,90.3z"/>
		<polygon class="st1" points="163.2,309.6 163.2,270.1 168.5,270.1 168.5,302.9 181.8,302.9 181.8,309.6 		"/>
		<path class="st1" d="M209.4,309.6h-5.8l-2.3-9.1h-10.6l-2.2,9.1h-5.7l10.3-39.8h5.6L209.4,309.6L209.4,309.6z M199.6,293.9
			l-3.6-14.8l-3.6,14.8H199.6L199.6,293.9z"/>
		<polygon class="st1" points="222.6,309.6 222.6,270.1 227.9,270.1 227.9,302.9 241.2,302.9 241.2,309.6 		"/>
		<polygon class="st1" points="244.8,309.6 244.8,269.8 250.2,269.8 250.2,309.6 		"/>
		<polygon class="st1" points="255.2,309.6 255.2,269.8 263.1,269.8 267.9,297 272.7,269.8 280.7,269.8 280.7,309.6 275.7,309.6 
			275.7,278.3 270.5,309.6 265.3,309.6 260.1,278.3 260.1,309.6 		"/>
		<path class="st1" d="M309.8,309.6H304l-2.3-9.1h-10.6l-2.2,9.1h-5.7l10.3-39.8h5.6L309.8,309.6L309.8,309.6z M300,293.9l-3.6-14.8
			l-3.6,14.8H300L300,293.9z"/>
		<polygon class="st1" points="163.2,541 163.2,501.5 168.5,501.5 168.5,534.3 181.8,534.3 181.8,541 		"/>
		<polygon class="st1" points="185.6,541 185.6,501.1 205.1,501.1 205.1,507.9 190.9,507.9 190.9,516.7 204.2,516.7 204.2,523.4 
			190.9,523.4 190.9,534.3 205.6,534.3 205.6,541 		"/>
		<path class="st1" d="M220.4,541v-39.8h8.5c3.2,0,5.4,0.2,6.3,0.6c1.5,0.6,2.8,1.9,3.8,3.9s1.5,4.6,1.5,7.8c0,2.4-0.3,4.5-0.9,6.2
			s-1.3,3-2.2,3.9c-0.9,0.9-1.8,1.6-2.8,1.9c-1.3,0.4-3.1,0.6-5.5,0.6h-3.5v15h-5.2L220.4,541L220.4,541z M225.8,507.9v11.3h2.9
			c2.1,0,3.5-0.2,4.2-0.6c0.7-0.4,1.3-1.1,1.7-2c0.4-0.9,0.6-1.9,0.6-3.1c0-1.5-0.3-2.6-0.8-3.6c-0.6-0.9-1.3-1.5-2.1-1.8
			c-0.6-0.2-1.9-0.3-3.8-0.3L225.8,507.9L225.8,507.9z"/>
		<polygon class="st1" points="244.9,541 244.9,501.1 250.2,501.1 250.2,541 		"/>
		<path class="st1" d="M279.1,541h-5.8l-2.3-9.1h-10.6l-2.2,9.1h-5.7l10.3-39.8h5.6L279.1,541L279.1,541z M269.3,525.2l-3.6-14.8
			l-3.6,14.8H269.3L269.3,525.2z"/>
		<path class="st1" d="M280.6,528l5.2-0.8c0.3,2.6,0.9,4.6,1.9,5.8s2.2,1.8,3.9,1.8c1.7,0,3-0.6,3.9-1.7c0.9-1.1,1.3-2.4,1.3-3.8
			c0-0.9-0.2-1.7-0.6-2.4s-1-1.2-1.9-1.7c-0.6-0.3-2-0.9-4.3-1.7c-2.9-1.1-4.9-2.4-6-3.9c-1.6-2.2-2.4-4.9-2.4-8
			c0-2,0.4-3.9,1.1-5.7c0.8-1.8,1.9-3.1,3.3-4s3.2-1.4,5.2-1.4c3.3,0,5.8,1.1,7.5,3.3s2.6,5.1,2.6,8.8l-5.3,0.3
			c-0.2-2-0.7-3.5-1.5-4.4c-0.7-0.9-1.9-1.3-3.4-1.3s-2.8,0.5-3.6,1.4c-0.6,0.6-0.8,1.4-0.8,2.5c0,0.9,0.3,1.8,0.8,2.4
			c0.7,0.9,2.3,1.7,4.9,2.7c2.6,0.9,4.5,1.9,5.8,2.9c1.2,1,2.2,2.3,2.9,4.1c0.7,1.7,1.1,3.8,1.1,6.3c0,2.3-0.4,4.4-1.3,6.4
			c-0.8,2-2,3.5-3.6,4.4c-1.5,1-3.5,1.5-5.7,1.5c-3.3,0-5.9-1.2-7.7-3.5C282,535.9,280.9,532.5,280.6,528L280.6,528z"/>
		<polygon class="st1" points="312.4,541 312.4,507.9 304.6,507.9 304.6,501.1 325.6,501.1 325.6,507.9 317.8,507.9 317.8,541 		"/>
		<path class="st1" d="M329,541v-39.8h11.2c2.8,0,4.9,0.4,6.1,1.1c1.3,0.7,2.3,2,3.1,3.8c0.8,1.8,1.1,3.9,1.1,6.3
			c0,3-0.6,5.5-1.7,7.4c-1.2,1.9-2.9,3.2-5.2,3.7c1.2,1,2.1,2.1,2.9,3.3c0.7,1.2,1.8,3.4,3,6.5l3.2,7.8h-6.4l-3.9-8.7
			c-1.4-3.1-2.3-5-2.8-5.9c-0.5-0.8-1-1.4-1.6-1.7s-1.5-0.4-2.7-0.4h-1.1V541L329,541L329,541z M334.4,518h3.9
			c2.6,0,4.2-0.2,4.8-0.5c0.6-0.3,1.1-0.9,1.5-1.7s0.5-1.8,0.5-3c0-1.3-0.2-2.4-0.7-3.2s-1.1-1.3-2-1.6c-0.4-0.1-1.7-0.1-3.9-0.1
			h-4.2V518H334.4z"/>
		<polygon class="st1" points="355.7,541 355.7,501.1 375.2,501.1 375.2,507.9 361,507.9 361,516.7 374.2,516.7 374.2,523.4 
			361,523.4 361,534.3 375.7,534.3 375.7,541 		"/>
		<path class="st1" d="M641.5,296.7l5.2-0.8c0.3,2.6,0.9,4.6,1.9,5.8c1,1.2,2.2,1.8,3.9,1.8s3-0.5,3.9-1.6s1.3-2.4,1.3-3.8
			c0-0.9-0.2-1.7-0.6-2.4c-0.4-0.7-1-1.2-1.9-1.7c-0.6-0.3-2-0.9-4.3-1.7c-2.9-1.1-4.9-2.4-6-3.9c-1.6-2.2-2.4-4.9-2.4-8
			c0-2,0.4-3.9,1.1-5.7c0.8-1.8,1.9-3.1,3.3-4c1.4-0.9,3.2-1.4,5.2-1.4c3.3,0,5.8,1.1,7.5,3.3c1.7,2.2,2.6,5.1,2.6,8.8l-5.3,0.4
			c-0.2-2-0.7-3.5-1.5-4.4c-0.7-0.9-1.9-1.3-3.4-1.3s-2.8,0.5-3.6,1.4c-0.6,0.6-0.8,1.4-0.8,2.5c0,0.9,0.3,1.8,0.8,2.4
			c0.7,0.9,2.3,1.7,4.9,2.7c2.6,0.9,4.5,1.9,5.8,2.9c1.2,1,2.2,2.3,2.9,4.1c0.7,1.7,1.1,3.8,1.1,6.3c0,2.3-0.4,4.4-1.3,6.4
			c-0.8,2-2,3.5-3.6,4.4c-1.5,1-3.5,1.5-5.7,1.5c-3.3,0-5.9-1.2-7.7-3.5C642.9,304.5,641.8,301.1,641.5,296.7L641.5,296.7z"/>
		<polygon class="st1" points="667.4,309.6 667.4,302 672.5,302 672.5,309.6 		"/>
		<polygon class="st1" points="687.9,309.6 687.9,269.8 695.8,269.8 700.6,297 705.4,269.8 713.4,269.8 713.4,309.6 708.4,309.6 
			708.4,278.3 703.2,309.6 698,309.6 692.8,278.3 692.8,309.6 		"/>
		<path class="st1" d="M742.5,309.6h-5.8l-2.3-9.1h-10.6l-2.2,9.1h-5.7l10.3-39.8h5.6L742.5,309.6L742.5,309.6z M732.6,293.9
			l-3.6-14.8l-3.6,14.8H732.6L732.6,293.9z"/>
		<path class="st1" d="M745.3,309.6v-39.8h11.2c2.8,0,4.9,0.4,6.1,1.1c1.3,0.7,2.3,2,3.1,3.8s1.1,3.9,1.1,6.3c0,3-0.6,5.5-1.7,7.4
			c-1.2,1.9-2.9,3.2-5.2,3.7c1.2,1,2.1,2.1,2.9,3.4c0.7,1.2,1.8,3.4,3,6.5l3.2,7.8h-6.4l-3.9-8.7c-1.4-3.1-2.3-5-2.8-5.9
			c-0.5-0.8-1-1.4-1.6-1.7c-0.6-0.3-1.5-0.4-2.7-0.4h-1.1v16.6L745.3,309.6L745.3,309.6z M750.6,286.6h3.9c2.6,0,4.2-0.2,4.8-0.5
			s1.1-0.9,1.5-1.7c0.4-0.8,0.5-1.8,0.5-3c0-1.3-0.2-2.4-0.7-3.2c-0.5-0.8-1.1-1.3-2-1.6c-0.4-0.1-1.7-0.1-3.9-0.1h-4.2L750.6,286.6
			L750.6,286.6L750.6,286.6z"/>
		<path class="st1" d="M788.8,295l5.2,2.5c-0.8,4.4-2.1,7.6-4,9.7c-1.8,2.1-4.2,3.2-7,3.2c-3.5,0-6.4-1.8-8.6-5.4
			c-2.3-3.6-3.4-8.6-3.4-14.8c0-6.6,1.1-11.8,3.4-15.5c2.3-3.7,5.2-5.5,9-5.5c3.2,0,5.8,1.4,7.9,4.3c1.2,1.7,2.1,4.1,2.7,7.3
			l-5.3,1.9c-0.3-2.1-1-3.7-2-4.9c-1-1.2-2.2-1.8-3.6-1.8c-2,0-3.5,1.1-4.8,3.2c-1.2,2.1-1.8,5.5-1.8,10.3c0,5,0.6,8.6,1.8,10.8
			c1.2,2.1,2.8,3.2,4.7,3.2c1.4,0,2.6-0.7,3.7-2C787.6,300,788.4,297.9,788.8,295L788.8,295z"/>
		<path class="st1" d="M797.5,289.9c0-4.1,0.4-7.5,1.2-10.2c0.6-2,1.4-3.9,2.5-5.5c1-1.6,2.2-2.8,3.4-3.6c1.6-1.1,3.5-1.6,5.7-1.6
			c3.9,0,7,1.8,9.3,5.5c2.3,3.6,3.5,8.7,3.5,15.2c0,6.4-1.2,11.5-3.5,15.1s-5.4,5.4-9.3,5.4c-3.9,0-7-1.8-9.4-5.4
			C798.6,301.3,797.5,296.3,797.5,289.9L797.5,289.9z M802.9,289.7c0,4.5,0.7,7.9,2.1,10.3c1.4,2.3,3.1,3.5,5.3,3.5
			c2.1,0,3.9-1.1,5.2-3.5c1.4-2.3,2-5.8,2-10.4s-0.7-8-2-10.2s-3.1-3.4-5.3-3.4s-4,1.1-5.3,3.4C803.6,281.7,802.9,285.1,802.9,289.7
			L802.9,289.7z"/>
		<path class="st1" d="M629.3,380.2v-38.8h8.7c3.3,0,5.5,0.2,6.5,0.6c1.5,0.6,2.8,1.8,3.9,3.8c1,1.9,1.6,4.5,1.6,7.5
			c0,2.4-0.3,4.4-0.9,6c-0.6,1.6-1.4,2.9-2.3,3.8c-0.9,0.9-1.9,1.5-2.8,1.8c-1.3,0.4-3.2,0.6-5.6,0.6h-3.5v14.7H629.3L629.3,380.2z
			 M634.8,348v11h3c2.1,0,3.6-0.2,4.3-0.6s1.3-1,1.7-1.9s0.6-1.9,0.6-3c0-1.4-0.3-2.6-0.9-3.5c-0.6-0.9-1.3-1.5-2.2-1.7
			c-0.7-0.2-2-0.3-3.9-0.3H634.8L634.8,348z"/>
		<polygon class="st1" points="654.2,380.2 654.2,341.4 659.7,341.4 659.7,380.2 		"/>
		<path class="st1" d="M663.5,367.6l5.3-0.8c0.3,2.6,1,4.4,1.9,5.6c1,1.2,2.3,1.8,3.9,1.8c1.7,0,3.1-0.5,4-1.6s1.3-2.3,1.3-3.7
			c0-0.9-0.2-1.7-0.6-2.3c-0.4-0.7-1-1.2-2-1.7c-0.6-0.3-2.1-0.9-4.3-1.7c-2.9-1-5-2.3-6.1-3.8c-1.7-2.1-2.5-4.7-2.5-7.8
			c0-2,0.4-3.8,1.2-5.5s1.9-3,3.4-3.9s3.2-1.3,5.3-1.3c3.4,0,5.9,1.1,7.6,3.2c1.7,2.1,2.6,5,2.7,8.5l-5.4,0.3
			c-0.2-2-0.7-3.4-1.5-4.3s-1.9-1.3-3.4-1.3c-1.6,0-2.8,0.5-3.7,1.4c-0.6,0.6-0.9,1.4-0.9,2.4c0,0.9,0.3,1.7,0.8,2.4
			c0.7,0.8,2.3,1.7,5,2.6c2.6,0.9,4.6,1.8,5.9,2.8c1.3,1,2.3,2.3,3,3.9c0.7,1.7,1.1,3.7,1.1,6.2c0,2.2-0.4,4.3-1.3,6.2
			c-0.9,1.9-2.1,3.4-3.6,4.3c-1.6,0.9-3.5,1.4-5.9,1.4c-3.4,0-6-1.1-7.8-3.4C664.9,375.2,663.8,371.9,663.5,367.6L663.5,367.6z"/>
		<polygon class="st1" points="696,380.2 696,348 688,348 688,341.4 709.4,341.4 709.4,348 701.4,348 701.4,380.2 		"/>
		<path class="st1" d="M711.1,361c0-4,0.4-7.3,1.2-9.9c0.6-2,1.4-3.7,2.5-5.3c1.1-1.6,2.2-2.7,3.5-3.5c1.7-1,3.6-1.5,5.8-1.5
			c4,0,7.1,1.8,9.5,5.3s3.6,8.5,3.6,14.8s-1.2,11.1-3.5,14.7c-2.4,3.5-5.5,5.3-9.5,5.3s-7.2-1.8-9.5-5.3
			C712.3,372.1,711.1,367.2,711.1,361L711.1,361z M716.7,360.8c0,4.4,0.7,7.7,2.1,10c1.4,2.3,3.2,3.4,5.4,3.4s3.9-1.1,5.3-3.4
			c1.4-2.3,2.1-5.6,2.1-10.1c0-4.4-0.7-7.7-2-9.9c-1.4-2.2-3.2-3.3-5.4-3.3s-4,1.1-5.4,3.3C717.4,353,716.7,356.3,716.7,360.8
			L716.7,360.8z"/>
		<polygon class="st1" points="741.3,380.2 741.3,341.4 746.7,341.4 746.7,380.2 		"/>
		<polygon class="st1" points="751.9,380.2 751.9,341.4 771.8,341.4 771.8,348 757.3,348 757.3,356.6 770.8,356.6 770.8,363.1 
			757.3,363.1 757.3,373.7 772.3,373.7 772.3,380.2 		"/>
		<path class="st1" d="M775.6,367.6l5.3-0.8c0.3,2.6,1,4.4,1.9,5.6c1,1.2,2.3,1.8,3.9,1.8c1.7,0,3.1-0.5,4-1.6s1.3-2.3,1.3-3.7
			c0-0.9-0.2-1.7-0.6-2.3c-0.4-0.7-1-1.2-2-1.7c-0.6-0.3-2.1-0.9-4.3-1.7c-2.9-1-5-2.3-6.1-3.8c-1.7-2.1-2.5-4.7-2.5-7.8
			c0-2,0.4-3.8,1.2-5.5s1.9-3,3.4-3.9s3.2-1.3,5.3-1.3c3.4,0,5.9,1.1,7.6,3.2c1.7,2.1,2.6,5,2.7,8.5l-5.4,0.3
			c-0.2-2-0.7-3.4-1.5-4.3s-1.9-1.3-3.4-1.3c-1.6,0-2.8,0.5-3.7,1.4c-0.6,0.6-0.9,1.4-0.9,2.4c0,0.9,0.3,1.7,0.8,2.4
			c0.7,0.8,2.3,1.7,5,2.6c2.6,0.9,4.6,1.8,5.9,2.8c1.3,1,2.3,2.3,3,3.9c0.7,1.7,1.1,3.7,1.1,6.2c0,2.2-0.4,4.3-1.3,6.2
			c-0.9,1.9-2.1,3.4-3.6,4.3c-1.6,0.9-3.5,1.4-5.9,1.4c-3.4,0-6-1.1-7.8-3.4C777,375.2,775.9,371.9,775.6,367.6L775.6,367.6z"/>
		<polygon class="st1" points="802,380.2 802,341.4 821.9,341.4 821.9,348 807.4,348 807.4,356.6 820.9,356.6 820.9,363.1 
			807.4,363.1 807.4,373.7 822.5,373.7 822.5,380.2 		"/>
		<path class="st1" d="M592.2,541v-39.8h8.5c3.2,0,5.4,0.2,6.3,0.6c1.5,0.6,2.8,1.9,3.8,3.9s1.5,4.6,1.5,7.8c0,2.4-0.3,4.5-0.9,6.2
			c-0.6,1.7-1.3,3-2.2,3.9s-1.8,1.6-2.8,1.9c-1.3,0.4-3.1,0.6-5.5,0.6h-3.5v15h-5.2L592.2,541L592.2,541z M597.6,507.9v11.3h2.9
			c2.1,0,3.5-0.2,4.2-0.6c0.7-0.4,1.3-1.1,1.7-2s0.6-1.9,0.6-3.1c0-1.5-0.3-2.6-0.8-3.6c-0.6-0.9-1.3-1.5-2.1-1.8
			c-0.6-0.2-1.9-0.3-3.8-0.3L597.6,507.9L597.6,507.9z"/>
		<path class="st1" d="M615.8,521.3c0-4.1,0.4-7.5,1.2-10.2c0.6-2,1.4-3.9,2.5-5.5c1-1.6,2.2-2.8,3.4-3.6c1.6-1.1,3.5-1.6,5.7-1.6
			c3.9,0,7,1.8,9.3,5.5c2.3,3.6,3.5,8.7,3.5,15.2c0,6.4-1.2,11.5-3.5,15.1s-5.4,5.4-9.3,5.4c-3.9,0-7.1-1.8-9.4-5.4
			C616.9,532.6,615.8,527.6,615.8,521.3L615.8,521.3z M621.2,521c0,4.5,0.7,7.9,2.1,10.3c1.4,2.3,3.1,3.5,5.3,3.5
			c2.1,0,3.9-1.1,5.2-3.5c1.4-2.3,2-5.8,2-10.4c0-4.6-0.7-8-2-10.2s-3.1-3.4-5.3-3.4s-4,1.1-5.3,3.4S621.2,516.4,621.2,521
			L621.2,521z"/>
		<polygon class="st1" points="645.6,541 645.6,501.1 650.8,501.1 661.6,527.7 661.6,501.1 666.5,501.1 666.5,541 661.2,541 
			650.5,515 650.5,541 		"/>
		<polygon class="st1" points="678.1,541 678.1,507.9 670.3,507.9 670.3,501.1 691.2,501.1 691.2,507.9 683.4,507.9 683.4,541 		"/>
		<polygon class="st1" points="694.7,541 694.7,501.1 714.3,501.1 714.3,507.9 700,507.9 700,516.7 713.3,516.7 713.3,523.4 
			700,523.4 700,534.3 714.8,534.3 714.8,541 		"/>
		<path class="st1" d="M719.3,541v-39.8h8.6c3.2,0,5.4,0.2,6.3,0.6c1.5,0.6,2.8,1.9,3.8,3.9s1.5,4.6,1.5,7.8c0,2.4-0.3,4.5-0.9,6.2
			c-0.6,1.7-1.3,3-2.2,3.9s-1.8,1.6-2.8,1.9c-1.3,0.4-3.1,0.6-5.5,0.6h-3.5v15h-5.3L719.3,541L719.3,541z M724.6,507.9v11.3h2.9
			c2.1,0,3.5-0.2,4.2-0.6c0.7-0.4,1.3-1.1,1.7-2s0.6-1.9,0.6-3.1c0-1.5-0.3-2.6-0.8-3.6c-0.6-0.9-1.3-1.5-2.1-1.8
			c-0.6-0.2-1.9-0.3-3.8-0.3L724.6,507.9L724.6,507.9z"/>
		<polygon class="st1" points="743.9,541 743.9,501.1 763.5,501.1 763.5,507.9 749.2,507.9 749.2,516.7 762.5,516.7 762.5,523.4 
			749.2,523.4 749.2,534.3 764,534.3 764,541 		"/>
		<polygon class="st1" points="774.4,541 774.4,507.9 766.6,507.9 766.6,501.1 787.6,501.1 787.6,507.9 779.8,507.9 779.8,541 		"/>
		<path class="st1" d="M791,541v-39.8h11.2c2.8,0,4.9,0.4,6.1,1.1c1.3,0.7,2.3,2,3.1,3.8s1.1,3.9,1.1,6.3c0,3-0.6,5.5-1.7,7.4
			c-1.2,1.9-2.9,3.2-5.2,3.7c1.2,1,2.1,2.1,2.9,3.3c0.8,1.2,1.8,3.4,3,6.5l3.2,7.8h-6.4l-3.9-8.7c-1.4-3.1-2.3-5-2.8-5.9
			c-0.5-0.8-1-1.4-1.6-1.7s-1.5-0.4-2.7-0.4h-1.1V541L791,541L791,541z M796.4,518h3.9c2.6,0,4.2-0.2,4.8-0.5s1.1-0.9,1.5-1.7
			s0.5-1.8,0.5-3c0-1.3-0.2-2.4-0.7-3.2s-1.1-1.3-2-1.6c-0.4-0.1-1.7-0.1-3.9-0.1h-4.2V518H796.4z"/>
		<polygon class="st1" points="817.5,541 817.5,501.1 822.8,501.1 822.8,541 		"/>
	</g>
</g>
</svg>
