<?xml version="1.0" encoding="utf-8"?>
<!-- Generator: Adobe Illustrator 19.2.0, SVG Export Plug-In . SVG Version: 6.00 Build 0)  -->
<svg version="1.1" id="Livello_1" xmlns="http://www.w3.org/2000/svg" xmlns:xlink="http://www.w3.org/1999/xlink" x="0px" y="0px"
	 viewBox="0 0 586.3 721.9" style="enable-background:new 0 0 586.3 721.9;" xml:space="preserve">
<style type="text/css">
	.st0{fill:#FFEC00;stroke:#1A171B;stroke-width:0.9239;stroke-miterlimit:2.6131;}
	.st1{fill:#FFEC00;stroke:#1A171B;stroke-width:9.2387;stroke-miterlimit:2.6131;}
	.st2{fill:#1A171B;}
	.st3{fill:#E1001A;stroke:#1A171B;stroke-width:0.9239;stroke-miterlimit:2.6131;}
</style>
<g>
	<g>
		<polygon class="st0" points="100.8,0.7 585.6,0.7 585.6,720.7 100.8,720.7 		"/>
		<path class="st1" d="M151,15.2h384.3c20.9,0,37.6,17.9,37.6,37.6v616.5c0,19.7-17.9,37.6-37.6,37.6H151
			c-19.7,0-37.6-16.6-37.6-37.6V52.7C113.5,31.8,130.1,15.2,151,15.2L151,15.2z"/>
		<path class="st2" d="M304.4,369l73.3,41.3c0.6,1.8,1.8,3.7-1.9,6.2l-24,8.6l44.7,87.5c3.7,6.5,6.2,12.6,6.2,20.3v32.6v108.1h-25.3
			V541.2c0.6-9.2-2.8-15.7-6.5-22.5L329.6,438l-19.7,16c-3.7,2.5-4.9,0-5.5-1.2V369L304.4,369z"/>
		<path class="st2" d="M218.2,84.8l42.5,72.4c0,2.2,0,4.3-4.3,4.3l-25.3-4.3v516.4h-25.3V157.1l-25.3,4.3c-4.3,0-4.3-2.5-4.3-4.3
			L218.2,84.8L218.2,84.8z"/>
		<polygon class="st3" points="352.4,47.2 317.3,47.2 317.3,192.6 478.4,527 478.4,673.6 513.5,673.6 513.5,521.5 352.4,186.7 		"/>
	</g>
</g>
</svg>
