<?xml version="1.0" encoding="utf-8"?>
<!-- Generator: Adobe Illustrator 19.2.0, SVG Export Plug-In . SVG Version: 6.00 Build 0)  -->
<svg version="1.1" id="Livello_1" xmlns="http://www.w3.org/2000/svg" xmlns:xlink="http://www.w3.org/1999/xlink" x="0px" y="0px"
	 viewBox="0 0 960 960" style="enable-background:new 0 0 960 960;" xml:space="preserve">
<style type="text/css">
	.st0{fill-rule:evenodd;clip-rule:evenodd;fill:#9B9C9E;}
	.st1{fill-rule:evenodd;clip-rule:evenodd;fill:#C5C6C8;}
	.st2{fill-rule:evenodd;clip-rule:evenodd;fill:#FFEC00;stroke:#1A171B;stroke-width:0.9489;stroke-miterlimit:2.6131;}
	.st3{fill-rule:evenodd;clip-rule:evenodd;fill:#FFFFFF;stroke:#1A171B;stroke-width:1.5815;stroke-miterlimit:2.6131;}
</style>
<g>
	<g>
		<polygon class="st0" points="377.8,755.5 377.8,763.8 377.8,796.7 300.3,796.7 300.3,805 377.8,805 386.1,805 386.1,763.8 
			659.7,763.8 659.7,755.5 386.1,755.5 377.8,755.5 		"/>
		<polygon class="st1" points="539.8,591.5 563.5,591.5 563.5,755.5 539.8,755.5 539.8,591.5 		"/>
		<polygon class="st1" points="563.5,597.4 456.4,597.4 456.4,160.9 563.5,160.9 563.5,597.4 		"/>
		<polygon class="st2" points="557.6,591.5 450.5,591.5 450.5,155 557.6,155 557.6,591.5 		"/>
		<polygon class="st3" points="533.9,591.5 557.6,591.5 557.6,755.5 533.9,755.5 533.9,591.5 		"/>
	</g>
</g>
</svg>
