<?xml version="1.0" encoding="utf-8"?>
<!-- Generator: Adobe Illustrator 19.2.0, SVG Export Plug-In . SVG Version: 6.00 Build 0)  -->
<svg version="1.1" id="Livello_1" xmlns="http://www.w3.org/2000/svg" xmlns:xlink="http://www.w3.org/1999/xlink" x="0px" y="0px"
	 viewBox="0 0 270 723.2" style="enable-background:new 0 0 270 723.2;" xml:space="preserve">
<style type="text/css">
	.st0{fill:#3D3D3F;}
	.st1{fill:#FFEC00;}
	.st2{fill:#9B9C9E;}
	.st3{fill:none;stroke:#1A171B;stroke-width:0.5166;stroke-miterlimit:2.6131;}
</style>
<g>
	<g>
		<polygon class="st0" points="124.8,714.7 149.4,714.7 149.4,589 124.8,589 		"/>
		<polygon class="st1" points="124.8,589 149.4,589 149.4,471.7 124.8,471.7 		"/>
		<polygon class="st0" points="124.8,471.7 149.4,471.7 149.4,354.4 124.8,354.4 		"/>
		<polygon class="st0" points="124.8,236.8 149.4,236.8 149.4,119.5 124.8,119.5 		"/>
		<polygon class="st1" points="124.8,354.3 149.4,354.3 149.4,237 124.8,237 		"/>
		<polygon class="st1" points="124.8,119.5 149.4,119.5 149.4,2.3 124.8,2.3 		"/>
		<polygon class="st2" points="38.9,714.7 236.5,714.7 236.5,722.1 38.9,722.1 		"/>
		<polygon class="st3" points="124.8,2.1 149.4,2.1 149.4,714.7 124.8,714.7 		"/>
	</g>
</g>
</svg>
