<?xml version="1.0" encoding="utf-8"?>
<!-- Generator: Adobe Illustrator 19.2.0, SVG Export Plug-In . SVG Version: 6.00 Build 0)  -->
<svg version="1.1" id="Livello_1" xmlns="http://www.w3.org/2000/svg" xmlns:xlink="http://www.w3.org/1999/xlink" x="0px" y="0px"
	 viewBox="0 0 875 457" style="enable-background:new 0 0 875 457;" xml:space="preserve">
<style type="text/css">
	.st0{fill:#C5C6C8;}
	.st1{fill:#FFFFFF;stroke:#1A171B;stroke-width:2.5;stroke-miterlimit:2.6131;}
	.st2{fill:#1A171B;stroke:#1A171B;stroke-width:1.25;stroke-miterlimit:2.6131;}
	.st3{fill:#FFFFFF;}
	.st4{fill:#1A171B;}
	.st5{fill:#9B9C9E;}
</style>
<g>
	<g>
		<polygon class="st0" points="167.1,181.6 175.3,181.6 175.3,438.6 167.1,438.6 		"/>
		<polygon class="st0" points="734.4,181.6 742.6,181.6 742.6,438.6 734.4,438.6 		"/>
		<polygon class="st1" points="133.7,157.3 167.1,157.3 167.1,441.1 133.7,441.1 		"/>
		<polygon class="st1" points="700.9,157.3 734.4,157.3 734.4,441.1 700.9,441.1 		"/>
	</g>
	<g>
		<polygon class="st2" points="52.5,2.8 822.5,2.8 822.5,203.3 52.5,203.3 		"/>
		<polygon class="st3" points="152.8,2.8 227.8,2.8 227.8,203.3 152.8,203.3 52.5,103.1 		"/>
		<polygon class="st4" points="227.5,2.6 327.8,102.9 227.5,203.1 127.2,102.9 		"/>
		<polygon class="st3" points="352.2,2.8 425.5,2.8 425.5,203.3 352.2,203.3 252,103.1 		"/>
		<polygon class="st4" points="425.7,2.6 526,102.9 425.7,203.1 325.5,102.9 		"/>
		<polygon class="st3" points="549.2,2.8 622.5,2.8 622.5,203.3 549.2,203.3 449,103.1 		"/>
		<polygon class="st4" points="622.7,2.6 723,102.9 622.7,203.1 522.5,102.9 		"/>
		<polygon class="st3" points="748.2,2.8 821.5,2.8 821.5,203.3 748.2,203.3 648,103.1 		"/>
		<polygon class="st4" points="821.7,2.6 821.7,203.1 721.5,102.9 		"/>
	</g>
	<polygon class="st5" points="2.5,440.3 872.5,440.3 872.5,454.8 2.5,454.8 	"/>
</g>
</svg>
