<?xml version="1.0" encoding="utf-8"?>
<!-- Generator: Adobe Illustrator 19.2.0, SVG Export Plug-In . SVG Version: 6.00 Build 0)  -->
<svg version="1.1" id="Livello_1" xmlns="http://www.w3.org/2000/svg" xmlns:xlink="http://www.w3.org/1999/xlink" x="0px" y="0px"
	 viewBox="0 0 942 427.3" style="enable-background:new 0 0 942 427.3;" xml:space="preserve">
<style type="text/css">
	.st0{fill:#C5C6C8;}
	.st1{fill:#FFFFFF;stroke:#1A171B;stroke-width:2.597;stroke-miterlimit:2.6131;}
	.st2{fill:#1A171B;stroke:#1A171B;stroke-width:1.2985;stroke-miterlimit:2.6131;}
	.st3{fill:#FFFFFF;}
	.st4{fill:#1A171B;}
	.st5{fill:#9B9C9E;}
</style>
<g>
	<g>
		<polygon class="st0" points="720.4,154.2 727.9,154.2 727.9,410.8 720.4,410.8 		"/>
		<polygon class="st1" points="689.7,152.7 720.4,152.7 720.4,413 689.7,413 		"/>
		<polygon class="st2" points="137.5,3.2 805,3.2 805,159.3 137.5,159.3 		"/>
		<polygon class="st0" points="243.8,154.2 251.3,154.2 251.3,410.8 243.8,410.8 		"/>
		<polygon class="st1" points="213.1,152.7 243.8,152.7 243.8,413 213.1,413 		"/>
		<polygon class="st3" points="317,159.3 317,3.2 216.5,3.2 137.8,82.4 214.9,159.3 		"/>
		<polygon class="st4" points="340.4,3.2 418.8,82.4 341.9,159.3 291.3,159.3 214.2,82.4 292.8,3.2 		"/>
		<polygon class="st3" points="486.8,159.3 486.8,3.2 388.9,3.2 310.2,82.4 387.4,159.3 		"/>
		<polygon class="st4" points="511.3,3.2 589.7,82.4 512.8,159.3 462.2,159.3 385,82.4 463.7,3.2 		"/>
		<polygon class="st3" points="657.7,159.3 657.7,3.2 557.2,3.2 478.5,82.4 555.7,159.3 		"/>
		<polygon class="st4" points="681.1,3.2 759.5,82.4 682.7,159.3 632.3,159.3 555.4,82.4 633.6,3.2 		"/>
		<polygon class="st3" points="727.6,159.3 650.5,82.4 729.1,3.2 805,3.2 805,159.3 		"/>
		<polygon class="st4" points="805.2,4.7 805.2,3.2 805,3.2 805,159.3 805.2,159.3 805.2,157.7 730.2,82.4 		"/>
		<polygon class="st5" points="0,411.9 942,411.9 942,426.2 0,426.2 		"/>
	</g>
</g>
</svg>
