<?xml version="1.0" encoding="utf-8"?>
<!-- Generator: Adobe Illustrator 19.2.0, SVG Export Plug-In . SVG Version: 6.00 Build 0)  -->
<svg version="1.1" id="Livello_1" xmlns="http://www.w3.org/2000/svg" xmlns:xlink="http://www.w3.org/1999/xlink" x="0px" y="0px"
	 viewBox="0 0 883 455.2" style="enable-background:new 0 0 883 455.2;" xml:space="preserve">
<style type="text/css">
	.st0{fill:#C5C6C8;}
	.st1{fill:#FFFFFF;stroke:#1A171B;stroke-width:2.5;stroke-miterlimit:2.6131;}
	.st2{fill:#1A171B;stroke:#1A171B;stroke-width:1.25;stroke-miterlimit:2.6131;}
	.st3{fill:#FFFFFF;}
	.st4{fill:#1A171B;}
	.st5{fill:#9B9C9E;}
</style>
<g>
	<g>
		<polygon class="st0" points="143.8,180.6 152,180.6 152,437.6 143.8,437.6 		"/>
		<polygon class="st0" points="763.1,180.6 771.3,180.6 771.3,437.6 763.1,437.6 		"/>
		<polygon class="st1" points="110.4,156.3 143.8,156.3 143.8,440.1 110.4,440.1 		"/>
		<polygon class="st1" points="729.6,156.3 763.1,156.3 763.1,440.1 729.6,440.1 		"/>
		<polygon class="st2" points="6.4,1.8 876.4,1.8 876.4,202.3 6.4,202.3 		"/>
		<polygon class="st3" points="776.1,1.8 876.4,102.1 776.1,202.3 701.9,202.3 701.9,1.8 		"/>
		<polygon class="st4" points="701.6,1.6 801.9,101.9 701.6,202.1 601.4,101.9 		"/>
		<polygon class="st3" points="608.9,1.8 709.2,102.1 608.9,202.3 534.4,202.3 534.4,1.8 		"/>
		<polygon class="st4" points="534.4,1.6 634.7,101.9 534.4,202.1 434.1,101.9 		"/>
		<polygon class="st3" points="106.7,1.8 181.7,1.8 181.7,202.3 106.7,202.3 6.4,102.1 		"/>
		<polygon class="st4" points="181.4,1.6 281.7,101.9 181.4,202.1 81.1,101.9 		"/>
		<polygon class="st3" points="275.1,1.8 348.4,1.8 348.4,202.3 275.1,202.3 174.9,102.1 		"/>
		<polygon class="st4" points="348.6,1.6 448.9,101.9 348.6,202.1 248.4,101.9 		"/>
		<polygon class="st3" points="441.1,1.6 541.4,101.9 441.1,202.1 340.9,101.9 		"/>
		<polygon class="st5" points="6.4,439.3 876.4,439.3 876.4,453.8 6.4,453.8 		"/>
	</g>
</g>
<g>
</g>
</svg>
