<?xml version="1.0" encoding="utf-8"?>
<!-- Generator: Adobe Illustrator 19.2.0, SVG Export Plug-In . SVG Version: 6.00 Build 0)  -->
<svg version="1.1" id="Livello_1" xmlns="http://www.w3.org/2000/svg" xmlns:xlink="http://www.w3.org/1999/xlink" x="0px" y="0px"
	 viewBox="0 0 672.8 596.2" style="enable-background:new 0 0 672.8 596.2;" xml:space="preserve">
<style type="text/css">
	.st0{fill:#FFFFFF;stroke:#1A171B;stroke-width:1.3397;stroke-miterlimit:2.6131;}
	.st1{fill:#E1001A;}
	.st2{fill:#FFEC00;stroke:#E1001A;stroke-width:4.4658;stroke-miterlimit:2.6131;}
	.st3{fill:#E1001A;stroke:#1A171B;stroke-width:1.3397;stroke-miterlimit:2.6131;}
	.st4{fill:#FFEC00;stroke:#1A171B;stroke-width:1.3397;stroke-miterlimit:2.6131;}
	.st5{fill:#008E43;stroke:#1A171B;stroke-width:1.3397;stroke-miterlimit:2.6131;}
</style>
<g>
	<g>
		<path class="st0" d="M625.3,594.7c31.1-1.3,49.8-24.6,44.9-55.5l-1.1-4.7l-1.8-5.1l-2.2-4.9L379.4,28.9
			C365,6.9,344.8-5.7,318.5,5.4c-10,5.5-17.3,13.3-23.1,22.7l-285.2,494c-10.4,19.5-14.4,40,1.5,58c12.6,13.3,28.2,14.7,45.8,14.7
			l561-0.2L625.3,594.7L625.3,594.7z"/>
		<path class="st1" d="M618.4,580.4c8.7-0.2,17.3,0.9,26.4-5.8c9.1-6.7,17.5-23.8,7.6-43.5L367,36.3c-16-28-44.2-27.3-59.5-0.7
			L22.7,529.3c-6,10.5-11.1,25.5-4.2,36.6c9.1,14.5,23.5,14.5,38.9,14.7L618.4,580.4L618.4,580.4z"/>
		<polygon class="st2" points="580.4,522.3 336.8,100.9 93.8,522.3 		"/>
		<path class="st3" d="M335.4,183.7c27.6,0,50.2,22.5,50.2,50.2c0,27.6-22.5,50.2-50.2,50.2c-27.6,0-50.2-22.5-50.2-50.2
			C285.3,206.2,307.8,183.7,335.4,183.7L335.4,183.7z"/>
		<path class="st4" d="M335.2,291.9c27.6,0,50.2,22.5,50.2,50.2c0,27.6-22.5,50.2-50.2,50.2c-27.6,0-50.2-22.5-50.2-50.2
			C285.1,314.4,307.6,291.9,335.2,291.9L335.2,291.9z"/>
		<path class="st5" d="M335.2,399.9c27.6,0,50.2,22.5,50.2,50.2c0,27.6-22.5,50.2-50.2,50.2c-27.6,0-50.2-22.5-50.2-50.2
			C285.1,422.4,307.6,399.9,335.2,399.9L335.2,399.9z"/>
	</g>
</g>
</svg>
