<?xml version="1.0" encoding="utf-8"?>
<!-- Generator: Adobe Illustrator 19.2.0, SVG Export Plug-In . SVG Version: 6.00 Build 0)  -->
<svg version="1.1" id="Livello_1" xmlns="http://www.w3.org/2000/svg" xmlns:xlink="http://www.w3.org/1999/xlink" x="0px" y="0px"
	 viewBox="0 0 337.5 724.7" style="enable-background:new 0 0 337.5 724.7;" xml:space="preserve">
<style type="text/css">
	.st0{fill:#C5C6C8;stroke:#1A171B;stroke-width:2.2023;stroke-miterlimit:2.6131;}
	.st1{fill:#FFFFFF;stroke:#1A171B;stroke-width:2.2023;stroke-miterlimit:2.6131;}
	.st2{fill:#FFEC00;stroke:#1A171B;stroke-width:2.2023;stroke-miterlimit:2.6131;}
	.st3{fill:#FFFFFF;stroke:#1A171B;stroke-width:0.6607;stroke-miterlimit:2.6131;}
	.st4{fill:#005EA7;}
	.st5{fill:#FFFFFF;}
</style>
<g>
	<g>
		<path class="st0" d="M200.1,721.6c49.2,0,125.2-29.3,133.3-81.3v-60.2l-94.1-112.4h-77.1L67.3,568.9v71.5
			C75,691.9,150.9,721.6,200.1,721.6L200.1,721.6z"/>
		<path class="st0" d="M200.9,663.6c49.2,0,124.4-32.3,132.5-84.3c-0.6-13.8-3.6-28.1-8-41.6l-86.1-253.3h-77.1L75.1,537.7
			c-7,22.3-8,21.9-7,41.6C71,636.3,151.7,663.6,200.9,663.6L200.9,663.6z"/>
		<path class="st1" d="M200.7,537.7L200.7,537.7c8.3,0,15.1-6.8,15.1-15.1V118.2c0-8.3-6.8-15.1-15.1-15.1s-15.1,6.8-15.1,15.1
			v404.5C185.6,531,192.4,537.7,200.7,537.7L200.7,537.7z"/>
		<path class="st2" d="M136.1,220c12.2,11.6,24.9,22.7,65,22.7s52.8-10.4,64.4-22.7v199.5c-11.6,12.6-26.3,26.3-64.2,26.3
			s-55.8-14.1-65.2-26.3V220L136.1,220z"/>
		<path class="st3" d="M211.6,2c33.7,6,55.5,18.2,76,45.9c11.7,18.8,17.1,36.3,17.9,58.3c-1.5,44-24.3,77.6-63.7,96.1
			c-44.7,18.4-89.7,5.6-121.4-29.7C100.5,146.5,93,117.7,98.8,85c6.8-25.2,16.5-41.9,35.9-59.4c20.7-15.4,40.2-23.1,66.4-23.9
			L211.6,2L211.6,2z"/>
		<path class="st4" d="M201.3,7.4c54.2,0,98.5,44.2,98.5,98.5s-44.2,98.5-98.5,98.5s-98.5-44.2-98.5-98.5S147.1,7.4,201.3,7.4
			L201.3,7.4z"/>
		<path class="st5" d="M261.1,166.8l-84.9-22.2c-2-1.8-3.5-3.5-0.4-6.6l22.7-14.1L132.9,58l18.9-18.8l64.9,65l15.5-22.6
			c3.2-3.2,4.9-1.4,6.7,0.3L261.1,166.8L261.1,166.8z"/>
	</g>
</g>
</svg>
