<?xml version="1.0" encoding="utf-8"?>
<!-- Generator: Adobe Illustrator 19.2.0, SVG Export Plug-In . SVG Version: 6.00 Build 0)  -->
<svg version="1.1" id="Livello_1" xmlns="http://www.w3.org/2000/svg" xmlns:xlink="http://www.w3.org/1999/xlink" x="0px" y="0px"
	 viewBox="0 0 697.5 726" style="enable-background:new 0 0 697.5 726;" xml:space="preserve">
<style type="text/css">
	.st0{fill:#FFFFFF;stroke:#1A171B;stroke-width:0.7618;stroke-miterlimit:2.6131;}
	.st1{fill:#E1001A;}
	.st2{fill:#FFFFFF;}
	.st3{fill:#1A171B;}
</style>
<g>
	<g>
		<path class="st0" d="M555.4,3.2c49.3,8.8,81.3,26.7,111.3,67.2c17.1,27.6,25.1,53.2,26.2,85.4c-2.2,64.5-35.5,113.8-93.4,140.8
			c-65.6,27-131.4,8.3-178-43.5c-29.2-38.3-40.2-80.5-31.7-128.4c9.9-36.9,24.2-61.5,52.6-87.1c30.3-22.6,59-33.9,97.3-35L555.4,3.2
			L555.4,3.2z"/>
		<path class="st1" d="M540.3,15.1c77.4,0,140.5,63.1,140.5,140.5s-63.1,140.5-140.5,140.5S399.8,233,399.8,155.6
			C399.7,78.2,462.9,15.1,540.3,15.1L540.3,15.1z"/>
		<path class="st2" d="M540.3,51.1c57.6,0,104.6,47,104.6,104.6s-47,104.6-104.6,104.6s-104.6-47-104.6-104.6
			C435.7,98,482.7,51.1,540.3,51.1L540.3,51.1z"/>
		<path class="st3" d="M534,122.6l-17.9,2.5c-0.4-4.7-1.6-8.2-3.4-10.5c-1.8-2.3-4.2-3.4-7.2-3.4c-3.9,0-7.2,2.3-9.9,6.8
			s-4.4,13.9-5.1,28.1c4.6-7,10.3-10.5,17.2-10.5c7.7,0,14.4,3.8,19.9,11.3s8.3,17.3,8.3,29.2c0,12.7-2.9,22.8-8.7,30.5
			s-13.3,11.5-22.4,11.5c-9.8,0-17.8-4.9-24.1-14.6s-9.4-25.6-9.4-47.8c0-22.7,3.3-39,9.8-49.1c6.5-10,15.1-15,25.5-15
			c7.3,0,13.4,2.6,18.2,7.9C529.6,105,532.7,112.6,534,122.6L534,122.6z M492,174.4c0,7.7,1.4,13.7,4.2,17.9
			c2.8,4.2,5.9,6.3,9.5,6.3c3.4,0,6.3-1.7,8.6-5.1c2.3-3.4,3.4-9.1,3.4-16.9c0-8-1.2-13.9-3.7-17.7c-2.5-3.8-5.5-5.6-9.2-5.6
			c-3.6,0-6.6,1.8-9,5.4C493.2,162.1,492,167.4,492,174.4L492,174.4z M577.6,91.8c9.4,0,16.7,4.3,22,12.8
			c6.3,10.1,9.4,26.9,9.4,50.4c0,23.4-3.2,40.3-9.5,50.5c-5.2,8.4-12.5,12.7-21.9,12.7s-17-4.6-22.7-13.9
			c-5.8-9.3-8.6-25.8-8.6-49.5c0-23.3,3.2-40.1,9.5-50.3C561,96,568.3,91.8,577.6,91.8L577.6,91.8z M577.6,111.5
			c-2.2,0-4.2,0.9-6,2.7s-3.1,5.1-4.1,9.8c-1.3,6.1-1.9,16.5-1.9,31s0.6,24.5,1.7,29.9c1.1,5.4,2.6,9,4.3,10.8s3.7,2.7,6,2.7
			c2.2,0,4.3-0.9,6-2.7c1.8-1.8,3.1-5.1,4.1-9.9c1.3-6.1,1.9-16.4,1.9-30.9s-0.6-24.5-1.7-29.9c-1.1-5.4-2.6-9.1-4.3-10.9
			C581.9,112.4,579.9,111.5,577.6,111.5L577.6,111.5z"/>
	</g>
	<g>
		<path class="st0" d="M170.3,416.8c49.3,8.8,81.3,26.7,111.3,67.2c17.1,27.6,25.1,53.2,26.2,85.4c-2.2,64.5-35.5,113.8-93.4,140.8
			c-65.6,27-131.4,8.3-178-43.5C7.2,628.4-3.8,586.2,4.7,538.3c9.9-36.9,24.2-61.5,52.6-87.1c30.3-22.6,59-33.9,97.3-35L170.3,416.8
			L170.3,416.8z"/>
		<path class="st1" d="M155.2,428.8c77.4,0,140.5,63.1,140.5,140.5s-63.1,140.5-140.5,140.5S14.7,646.7,14.7,569.3
			C14.7,491.9,77.8,428.8,155.2,428.8L155.2,428.8z"/>
		<path class="st2" d="M155.2,464.7c57.6,0,104.6,47,104.6,104.6s-47,104.6-104.6,104.6s-104.6-47-104.6-104.6
			C50.6,511.7,97.6,464.7,155.2,464.7L155.2,464.7z"/>
		<path class="st3" d="M103.1,564.7c-4.8-2.6-8.3-6.1-10.5-10.7c-2.2-4.5-3.3-9.5-3.3-14.9c0-9.3,2.5-16.9,7.5-22.9s12.2-9,21.5-9
			c9.2,0,16.3,3,21.4,9s7.6,13.6,7.6,22.9c0,5.7-1.2,10.9-3.5,15.3c-2.3,4.5-5.6,7.9-9.8,10.2c5.4,2.8,9.4,6.8,12.2,12.1
			c2.8,5.3,4.2,11.4,4.2,18.3c0,11.4-2.9,20.7-8.5,27.9c-5.7,7.2-13.3,10.7-22.7,10.7c-8.8,0-16.1-3-21.9-8.9
			c-6.9-7-10.4-16.5-10.4-28.7c0-6.7,1.3-12.8,3.9-18.4C93.4,572.1,97.5,567.7,103.1,564.7L103.1,564.7z M106.9,540.8
			c0,4.7,1,8.4,3.1,11c2.1,2.7,4.9,4,8.4,4s6.3-1.3,8.4-4s3.2-6.4,3.2-11.1c0-4.5-1-8-3.1-10.7s-4.8-4-8.3-4c-3.6,0-6.4,1.4-8.5,4.1
			C108,532.8,106.9,536.3,106.9,540.8L106.9,540.8z M105.2,593.8c0,6.5,1.3,11.6,3.9,15.3c2.6,3.7,5.9,5.5,9.8,5.5
			c3.8,0,7-1.8,9.5-5.3s3.8-8.6,3.8-15.2c0-5.8-1.3-10.5-3.8-14s-5.8-5.3-9.7-5.3c-4.5,0-7.9,2-10.1,6
			C106.3,584.8,105.2,589.2,105.2,593.8L105.2,593.8z M193.6,507.2c9.4,0,16.7,4.3,22,12.8c6.3,10.1,9.4,26.9,9.4,50.4
			c0,23.4-3.2,40.3-9.5,50.5c-5.2,8.4-12.5,12.7-21.9,12.7s-17-4.6-22.7-13.9c-5.8-9.3-8.6-25.8-8.6-49.5c0-23.3,3.2-40.1,9.5-50.3
			C177,511.4,184.3,507.2,193.6,507.2L193.6,507.2z M193.6,526.9c-2.2,0-4.2,0.9-6,2.7s-3.1,5.1-4.1,9.8c-1.3,6.1-1.9,16.5-1.9,31
			s0.6,24.5,1.7,29.9s2.6,9,4.3,10.8c1.7,1.8,3.7,2.7,6,2.7c2.2,0,4.3-0.9,6-2.7c1.8-1.8,3.1-5.1,4.1-9.9c1.3-6.1,1.9-16.4,1.9-30.9
			s-0.6-24.5-1.7-29.9s-2.6-9.1-4.3-10.9C197.9,527.8,195.9,526.9,193.6,526.9L193.6,526.9z"/>
	</g>
	<g>
		<path class="st0" d="M555.4,416.8c49.3,8.8,81.3,26.7,111.3,67.2c17.1,27.6,25.1,53.2,26.2,85.4c-2.2,64.5-35.5,113.8-93.4,140.8
			c-65.6,27-131.4,8.3-178-43.5c-29.2-38.3-40.2-80.5-31.7-128.4c9.9-36.9,24.2-61.5,52.6-87.1c30.3-22.6,59-33.9,97.3-35
			L555.4,416.8L555.4,416.8z"/>
		<path class="st1" d="M540.3,428.8c77.4,0,140.5,63.1,140.5,140.5s-63.1,140.5-140.5,140.5s-140.5-63.1-140.5-140.5
			C399.7,491.9,462.9,428.8,540.3,428.8L540.3,428.8z"/>
		<path class="st2" d="M540.3,464.7c57.6,0,104.6,47,104.6,104.6s-47,104.6-104.6,104.6s-104.6-47-104.6-104.6
			C435.7,511.7,482.7,464.7,540.3,464.7L540.3,464.7z"/>
		<path class="st3" d="M491.9,631.3h-15.8v-89.4c-5.8,8.1-12.6,14.1-20.5,18v-21.5c4.1-2,8.6-5.9,13.5-11.5
			c4.9-5.7,8.2-12.3,10-19.8H492v124.2H491.9z M532.1,507c8,0,14.3,4.3,18.8,12.8c5.4,10.1,8.1,26.9,8.1,50.4
			c0,23.4-2.7,40.3-8.1,50.5c-4.5,8.4-10.7,12.7-18.7,12.7s-14.5-4.6-19.5-13.9c-4.9-9.3-7.4-25.8-7.4-49.5
			c0-23.3,2.7-40.1,8.1-50.3C517.8,511.2,524.1,507,532.1,507L532.1,507z M532.1,526.6c-1.9,0-3.6,0.9-5.1,2.7s-2.7,5.1-3.5,9.8
			c-1.1,6.1-1.6,16.5-1.6,31s0.5,24.5,1.5,29.9s2.2,9,3.7,10.8s3.2,2.7,5.1,2.7c1.9,0,3.6-0.9,5.1-2.7s2.7-5.1,3.5-9.9
			c1.1-6.1,1.6-16.4,1.6-30.9s-0.5-24.5-1.5-29.9s-2.2-9.1-3.7-10.9C535.7,527.5,534,526.6,532.1,526.6L532.1,526.6z M596.3,507
			c8,0,14.3,4.3,18.8,12.8c5.4,10.1,8.1,26.9,8.1,50.4c0,23.4-2.7,40.3-8.1,50.5c-4.5,8.4-10.7,12.7-18.7,12.7s-14.5-4.6-19.5-13.9
			c-4.9-9.3-7.4-25.8-7.4-49.5c0-23.3,2.7-40.1,8.1-50.3C582.1,511.2,588.3,507,596.3,507L596.3,507z M596.3,526.6
			c-1.9,0-3.6,0.9-5.1,2.7s-2.7,5.1-3.5,9.8c-1.1,6.1-1.6,16.5-1.6,31s0.5,24.5,1.5,29.9s2.2,9,3.7,10.8s3.2,2.7,5.1,2.7
			c1.9,0,3.6-0.9,5.1-2.7s2.7-5.1,3.5-9.9c1.1-6.1,1.6-16.4,1.6-30.9s-0.5-24.5-1.5-29.9s-2.2-9.1-3.7-10.9
			C600,527.5,598.3,526.6,596.3,526.6L596.3,526.6z"/>
	</g>
</g>
</svg>
