<?xml version="1.0" encoding="utf-8"?>
<!-- Generator: Adobe Illustrator 19.2.0, SVG Export Plug-In . SVG Version: 6.00 Build 0)  -->
<svg version="1.1" id="Livello_1" xmlns="http://www.w3.org/2000/svg" xmlns:xlink="http://www.w3.org/1999/xlink" x="0px" y="0px"
	 viewBox="0 0 604.2 603.8" style="enable-background:new 0 0 604.2 603.8;" xml:space="preserve">
<style type="text/css">
	.st0{fill:#FFFFFF;stroke:#1A171B;stroke-width:1.9392;stroke-miterlimit:2.6131;}
	.st1{fill:#E1001A;stroke:#E1001A;stroke-width:0.3878;stroke-miterlimit:2.6131;}
	.st2{fill:#FFFFFF;stroke:#FFFFFF;stroke-width:1.9392;stroke-miterlimit:2.6131;}
</style>
<g>
	<g>
		<polygon class="st0" points="2.1,1.9 602.1,1.9 602.1,601.9 2.1,601.9 		"/>
		<path class="st1" d="M120.3,2.3H2.1v118.2L120.3,2.3L120.3,2.3z M395.2,2.3H257.8L2.1,258v137.4L395.2,2.3L395.2,2.3z M532.6,2.3
			h69.5V71L70.8,602.3H2.1v-69.1L532.6,2.3L532.6,2.3z M602.1,345.8V208.4L208.2,602.3h137.4L602.1,345.8L602.1,345.8z M602.1,483.7
			v118.6h-119L602.1,483.7L602.1,483.7z"/>
		<path class="st2" d="M28.5,17.1c5.9,0,10.8,4.8,10.8,10.8c0,5.9-4.8,10.8-10.8,10.8c-5.9,0-10.8-4.8-10.8-10.8
			C17.7,21.9,22.5,17.1,28.5,17.1L28.5,17.1z"/>
		<path class="st2" d="M28.5,565.9c5.9,0,10.8,4.8,10.8,10.8c0,5.9-4.8,10.8-10.8,10.8c-5.9,0-10.8-4.8-10.8-10.8
			C17.7,570.8,22.5,565.9,28.5,565.9L28.5,565.9z"/>
		<path class="st2" d="M576.5,17.1c5.9,0,10.8,4.8,10.8,10.8c0,5.9-4.8,10.8-10.8,10.8c-5.9,0-10.8-4.8-10.8-10.8
			C565.7,21.9,570.6,17.1,576.5,17.1L576.5,17.1z"/>
		<path class="st2" d="M576.5,565.9c5.9,0,10.8,4.8,10.8,10.8c0,5.9-4.8,10.8-10.8,10.8c-5.9,0-10.8-4.8-10.8-10.8
			C565.7,570.8,570.6,565.9,576.5,565.9L576.5,565.9z"/>
	</g>
</g>
</svg>
