<?xml version="1.0" encoding="utf-8"?>
<!-- Generator: Adobe Illustrator 19.2.0, SVG Export Plug-In . SVG Version: 6.00 Build 0)  -->
<svg version="1.1" id="Livello_1" xmlns="http://www.w3.org/2000/svg" xmlns:xlink="http://www.w3.org/1999/xlink" x="0px" y="0px"
	 viewBox="0 0 575.7 576.5" style="enable-background:new 0 0 575.7 576.5;" xml:space="preserve">
<style type="text/css">
	.st0{fill:#FFFFFF;stroke:#1A171B;stroke-width:10.0587;stroke-miterlimit:2.6131;}
	.st1{fill:#1A171B;}
	.st2{fill:#E1001A;}
</style>
<g>
	<g>
		<path class="st0" d="M81.2,6.1h413.4c41.5,0,75.5,34,75.5,75.5V495c0,41.5-34,75.5-75.5,75.5H81.2c-41.5,0-75.5-34-75.5-75.5V81.6
			C5.7,40.1,39.7,6.1,81.2,6.1L81.2,6.1z"/>
		<path class="st1" d="M100.6,109.8c15.5,0,28.1,12.6,28.1,28.1S116.1,166,100.6,166s-28.1-12.6-28.1-28.1S85.1,109.8,100.6,109.8
			L100.6,109.8z"/>
		<path class="st1" d="M311.4,347.6l-55.9-25.8l-53-65.9l-7.5-43.7l32.1,15.2l10.7,26.6c3.7,9.3,13.7,14.5,23.4,9.5
			c8.7-4.5,10.9-15.9,7.4-24.2l-14.7-35.6L155.5,157c-4.5-2.2-11.1-4.4-16.6,0.5l-14.7,13.1c-5.2,4.6-9,14-11.3,21.4L73.2,307.9
			c-3,8.6,1.6,18,10.1,21c8.6,3,18-1.5,21-10.1l22.9-65.3l20.9,28.8L110.8,343c-1.7,2.8-2.6,5.9-2.8,9c-0.2,1.4-0.1,3,0.3,4.8
			c0.2,0.8,0.3,1.6,0.6,2.4l23.7,92.2c2.7,10.4,13.3,16.7,23.7,14c10.4-2.7,16.7-13.3,14-23.7l-21.5-84.8l38.7-52.1l39.9,44.6
			c2,2.2,4.3,3.8,6.9,5c0.5,0.4,1.1,0.7,1.6,1l59.4,27.6c9.7,4.5,21.4,0.2,25.8-9.5C325.4,363.8,321.1,352.1,311.4,347.6z"/>
		<path class="st2" d="M510.3,292.3c-43.1-29.9-76.3-24.4-124.5-26.3c-24.2-1-45.3-15.8-64.2-34.3c13.5,51.8,55.8,72,71.4,81.3
			c36.4,11.8,71.1-6.9,117.3,29.4C510.3,325.8,510.3,309.1,510.3,292.3L510.3,292.3z"/>
		<path class="st2" d="M510.3,394.5c-31.8-21.9-63.1-15.2-94.7-28.2c-31.6-12.9-30.2-41.9-72.2-50.5c9.4,11.6,15.8,19.4,22.8,33.3
			c17,33.5,35.8,44.8,55.2,57.6c19.4,12.7,60.3,9.6,88.9,29.1C510.3,422,510.3,408.3,510.3,394.5L510.3,394.5z"/>
		<path class="st2" d="M510.3,211.6c-34.5-18.6-58.7-24.7-83.3-27.2s-60.3-21.3-76-39.8c14,43.6,54.3,67,76.8,74.4s44.9-1,82.4,23.7
			C510.3,232.3,510.3,221.9,510.3,211.6L510.3,211.6z"/>
		<path class="st2" d="M510.3,447.7c-15.4-18-52.2-14.9-82.7-27.8c-30.6-12.9-48.8-35.4-66.1-48c38.2,94.9,87,90.7,148.9,106.9
			C510.3,468.5,510.3,458.1,510.3,447.7L510.3,447.7z"/>
		<path class="st2" d="M510.3,253.5c-28.1-17.9-47.9-20.6-68-22.8c-20.1-2.2-46-11-60.4-25.7c19.6,33.4,42.1,46.3,60.5,52.8
			c18.4,6.5,37.2,1.3,67.8,23C510.3,271.8,510.3,262.7,510.3,253.5L510.3,253.5z"/>
		<path class="st2" d="M510.3,353.3c-28.1-20.1-38.1-21.5-58.2-24c-20.1-2.5-54.7,4-69.1-12.4c19.6,37.5,40,42.2,58.9,47.8
			c18.9,5.6,37.8-0.2,68.4,19.3C510.3,373.7,510.3,363.5,510.3,353.3L510.3,353.3z"/>
		<path class="st2" d="M510.3,165.1c-38-24.9-68.6-34.3-106.6-42.5c-19.9-4.2-39.5-20.4-62.4-41.9c15.5,60.8,38.7,72.5,66.5,88.5
			c31.6,12,62.9,4.4,102.6,33.2C510.3,185.4,510.3,182,510.3,165.1L510.3,165.1z"/>
	</g>
</g>
</svg>
