<?xml version="1.0" encoding="utf-8"?>
<!-- Generator: Adobe Illustrator 19.2.0, SVG Export Plug-In . SVG Version: 6.00 Build 0)  -->
<svg version="1.1" id="Livello_1" xmlns="http://www.w3.org/2000/svg" xmlns:xlink="http://www.w3.org/1999/xlink" x="0px" y="0px"
	 viewBox="0 0 583.5 582" style="enable-background:new 0 0 583.5 582;" xml:space="preserve">
<style type="text/css">
	.st0{fill:#FFFFFF;stroke:#1A171B;stroke-width:10.0587;stroke-miterlimit:2.6131;}
	.st1{fill:none;stroke:#1A171B;stroke-width:3.322;stroke-miterlimit:2.6131;}
	.st2{fill:#FFFFFF;stroke:#1A171B;stroke-width:0.9966;stroke-miterlimit:2.6131;}
	.st3{fill:#3D3D3F;stroke:#1A171B;stroke-width:0.9966;stroke-miterlimit:2.6131;}
	.st4{fill:none;stroke:#1A171B;stroke-width:0.9966;stroke-miterlimit:2.6131;}
</style>
<g>
	<g>
		<path class="st0" d="M85,8.8h413.4c41.5,0,75.5,34,75.5,75.5v413.4c0,41.5-34,75.5-75.5,75.5H85c-41.5,0-75.5-34-75.5-75.5V84.3
			C9.5,42.8,43.5,8.8,85,8.8L85,8.8z"/>
		<path class="st1" d="M542.3,355.9L459,329.1l92.8-91.4 M385.2,184.2l-111.9,84.9l-65-21.1 M45.1,352l80.9,29.4l-97.9,74.7
			 M254.6,531l76-75.2L448,498.4"/>
		<path class="st2" d="M274,54.8c-1.4,0.1-2.4,0.9-2.3,1.6c0.1,0.7,1.2,1.2,2.6,1c1.4-0.1,2.4-0.9,2.3-1.6
			C276.5,55.1,275.4,54.6,274,54.8L274,54.8z"/>
		<path class="st3" d="M302.4,341.3l-34.7,1.7l1.5,14.1l-1.2,1.2l0.7,7.8l7.6,3.9l2.1-1c5.3,3.9,10.9,9.2,21,8.6
			c8.3-0.6,7-6.5-0.6-10.4c-2.8-1.9-4.9-3.9-6.7-7.1l-0.7-4.1l4.7-0.5l1.4-1.9l12.9,1.1l8.7-1.7c4.3-3.1,3.9-6.1,0.6-7.6
			C313.7,344.1,307.5,344.6,302.4,341.3L302.4,341.3z"/>
		<path class="st3" d="M311.1,216.6l-53.6,5.6c4.8,44.8,7.3,89.3,11.6,134c9.7-9.5,24-5.5,33.6-14.8
			C302.7,307.7,310.4,259,311.1,216.6L311.1,216.6z"/>
		<path class="st3" d="M314.4,78.5c-1.2,0.9-1.3,2.2-1.3,2.2c-2.2,2.7-5.4,4.3-8.9,6.6c-3.3,1.9-6.8,3.8-10,5.6l-27.6,7.1
			c-4.2,3.5-8.4,7-12.8,10.6c-4.7,3.8-7.2,6.4-10,13.2c-9.1,9.5-17.4,19-27.3,28.7c6.5,4.3,8.5,9.3,10.5,16.5
			c3.3-2.2,6.5-4.3,9.7-6.3c3.9-2.9,10.3-8.7,11.6-8.8c1.2,0.4,4.6,7.6,6.6,12.2c1.3,3.9,1.9,8.1,2.9,12c0.2,0.8,1.4,1.9,1.3,2.6
			L259,186c-4.2,3.2-9.5,24.5-10.8,37.7c0.2,1.6,0.8,2.7,2.1,3.7c4,1.5,6.6,3.1,10.4,3.1l44.4-6.2c4.5-3,9.9-5.2,13.3-8.9
			c0.3-0.6,0.7-1.1,0.9-1.5c-3.8-10.9-7.8-22.1-13.8-33.6l-1.2-8.5c-0.1-1.7,0.3-0.4,1.7-5.2c1.3-4.7,2-28.3,0.1-44.8
			c0-4.5-0.8-6.1,1.7-8.8c7-6,10.4-9.2,16.4-14.9c0.4-0.3,2-0.1,3.2-1.9C329.4,89.2,326.1,78.6,314.4,78.5L314.4,78.5z"/>
		<path class="st2" d="M301.2,176l0.6,6c1.2-0.9,2.1-1.5,2.4-2.2l-0.7-5.4C302.9,174.9,302,175.6,301.2,176L301.2,176z"/>
		<path class="st2" d="M292.4,179.1l1.1,8.5c2.8-1.5,5.1-2.5,6.9-4.2l-0.9-8.1C297.6,177,295.1,177.9,292.4,179.1L292.4,179.1z"/>
		<path class="st2" d="M291.7,186.5l-0.7-6.1c-8.9,2.8-20.2,4.2-30,0.8l0.2,5.4C272.2,190.4,283.3,189,291.7,186.5L291.7,186.5z"/>
		<path class="st2" d="M190.8,178c-2,0.1-4.6,2-7.1,2.6c-3.7,0.7-7.4,0.9-10.6,2.5c-3.2,1.5-6.5,4.1-8.8,7c-0.9,1.5,1.3,2.6,2.4,2.5
			c-1.8,1.9-4.7,3.5-5.3,5.6c1.2,1.1-1.3,3.7,10.1-4.1c-8.2,5.5-11.4,6.5-9.9,8.3s4-0.7,12.3-5.3c0.1,0-10.7,5.6-10,6.9
			c0,0-0.1,1.2,1.7,1c0,0,1-0.1,10-5.6c-7.5,4.5-9.3,5-8,6.5c0.9,0.7,2.5-0.1,4.3-0.7c2.3-1.4,4.5-2.1,6.5-3.1
			c4.4-1.8,9.5-3.7,12.1-7.4c3.5-3.3,4.4-5.3,7-8.9L190.8,178L190.8,178z"/>
		<path class="st4" d="M183.1,189c-1.1,0.8-2.2,1.9-3.6,2.4c-1.8-0.1-3.1-1.5-4.7-2.1c-1.3-0.2-2.5,0.1-3.7,0.7l-4.2,2.6"/>
		<path class="st2" d="M358.1,56.2c8.1-6.5,8.8-7,8-8.1s-3.1,0.2-6.5,2c-0.1-0.6-1.6-2.3-2.5-2.1c-4.3,2.8-6.1,1.8-9.5,4.7
			c-2,1.7-3.3,5-3.9,7.5c-0.8,1.5-2.7,3.2-2.1,5c1.2,3.4,2.6,6.1,5.9,7.5c2.1,0.8,5.2-0.7,6.9-1.8c4-3.9,7.7-6.4,12-10.2
			c1.5-1.5,1.6-1.9,1.5-3.2s-1.4-0.5-8.8,4.9c9-6.8,10.2-7.4,10-9.5s-2.7,0.7-10.5,6.4c8.7-6.6,11.9-7.6,10.2-9.7
			C367.4,47.6,358.2,56.2,358.1,56.2L358.1,56.2z"/>
		<path class="st4" d="M359.6,50.1c-1.2,2.2-2.5,3.7-5.2,4c-0.4,1-1.6,1.9-1.6,3.2c1,2.1,0.5,5.3-2.6,6.7"/>
		<path class="st2" d="M314.2,78.5l25.7-16.9c6.4-0.4,9.3,3.7,9.9,12.3l-22.5,22.4C328.9,87.1,326.5,79.4,314.2,78.5L314.2,78.5z"/>
		<path class="st2" d="M215.6,152.4c-0.1,0.1-1.4,0.2-1.6,0.2c-9.4,8-17.9,16.3-26.8,24.9c0.3,0.1-0.5,1.5-0.4,1.5
			c6.4,1,9,5.2,7.1,12.1c1.1,0.4,2.1,0,3.5-0.8c10.3-6.5,19.7-12.9,29.4-19.8c-0.1-0.5,0.2-1.5,0.2-2
			C225.5,162.4,222.5,155.2,215.6,152.4L215.6,152.4z"/>
		<path class="st2" d="M276.2,80.9c-5.1,0.3-8.9,1.9-13.7,3.3c-1.7-10.7-0.5-24,8.5-26.7c2.2-0.4,4.4-0.7,6.6-1.1
			c9.5-0.8,16.7,11.4,20,21.8C292.2,80.8,287.3,81.4,276.2,80.9L276.2,80.9z"/>
		<path class="st2" d="M297.5,78.4c-7,3.4-14.7,2.8-21,2.6c-5.1,0.2-9.6,2.4-14,3.2c-0.6,2.7-1.4,5.4-2.1,8.1
			c12-5.8,31-0.4,41.9-8.4C302,81.3,299.4,80.1,297.5,78.4L297.5,78.4z"/>
		<path class="st2" d="M293,67.8l-5.1,1.9l0.9,2.4c-0.8,1-1,2.7-0.5,4.3c0.7,1.9,2.2,3,3.6,3.1l0.9,2l5-2.1
			C296.4,75.1,295,71.5,293,67.8L293,67.8z"/>
		<path class="st2" d="M293.9,87.5c-10.6,1.7-14.5,0.5-26.3,2.3c-2.1,0.9,1.3,4.6,2.8,6.4c0.3,0.2,4.9,0,3.7,0.5
			c-2.1-0.3-3.6-0.5-5.3-0.1c-0.8,0.2-0.2,1.7-0.4,2.7c-0.4,1.5-2.7,2.7-1.9,4c4.1,6.5,10.2,12.5,15.5,18.1
			c3.5,4.2,5.2,5.9,12.1,11.2c0.4-8.6,0-13.3-1.3-19.4c-0.9-2.4-2.2-4.5-4.1-5.9c-3.1-1.8-8.4-0.8-11.5-5.8
			c5.9,3.7,8.9,3.2,13.6,3.2c1.8-0.6,1.9-0.2,2.2-1.6c0.2-0.8-0.2-1.7-0.1-2.4c0.1-0.5,0.8-0.9,0.9-1.3c0.1-0.3,0.1-1.2-0.1-1.2
			c-1.2,0-2.2,0.4-4,0.8c-2.1,0.9,1.7-1.4,2.5-1.6c0.8-0.3,2,0.2,2.6-0.5c0.3-0.7-1.8-1.6-1.3-2.1c0.7-0.7,1.6,0,2.9-0.2
			c1.2-0.1,1.4-1.3,0.8-2.3C296.1,91,295.1,89.5,293.9,87.5L293.9,87.5z"/>
		<path class="st3" d="M294,87.7c-11.5,2-24.7,0.2-33.6,4.7c-0.5,0.1,0.4,1.7,0.8,1.7c1.9,0.2,4,0.4,5.8,0.2c0,0,3.5,2.9-1,6.5
			c0.1,0.1,0.2,1,1.4,0.4c2.3-1.6,3.1-3.9,3.1-4.9c0,0-3.4-3.7-2.8-4.9c0.2-0.3,1.6-0.6,2.2-0.4c1,0.3,2.1,2,2.4,2
			c0.4,0-0.8-1.2-0.7-1.5c0-0.3,1.5-0.6,1.5-0.6c1.7,0.7,2.6,2.2,4.6,3.7l2.3-0.3c-0.5-1.3-1.3-1.8-1.7-3.6c2.6-0.7,6.2-1.1,8.5-0.7
			c1.6,0.5,1.9,0.7,3.2,0.4C291.4,90.2,292,88.9,294,87.7L294,87.7z"/>
		<path class="st4" d="M287.2,106.8c-2.1,2.9-2.3,10.2-4.1,15.7"/>
		<path class="st4" d="M293,114.8c-8.2-5.3-16.6-5.5-25.3-13.9"/>
		<path class="st3" d="M289.7,113l-4.2-2l-0.9,4.6c0.8,1,1.6,1.5,2.3,3.2c0.5,2.2,0.3,5.5,0.4,8.4l7.1,6.2l-0.1-7.1
			c-1.8-3-4.3-5.8-5.3-8.6C288.7,116,289.5,114.4,289.7,113L289.7,113z"/>
	</g>
</g>
</svg>
