<?xml version="1.0" encoding="utf-8"?>
<!-- Generator: Adobe Illustrator 19.2.0, SVG Export Plug-In . SVG Version: 6.00 Build 0)  -->
<svg version="1.1" id="Livello_1" xmlns="http://www.w3.org/2000/svg" xmlns:xlink="http://www.w3.org/1999/xlink" x="0px" y="0px"
	 viewBox="0 0 583.5 582" style="enable-background:new 0 0 583.5 582;" xml:space="preserve">
<style type="text/css">
	.st0{fill:#FFFFFF;stroke:#1A171B;stroke-width:10.0587;stroke-miterlimit:2.6131;}
	.st1{fill:#FFFFFF;stroke:#1A171B;stroke-width:0.9966;stroke-linecap:square;stroke-miterlimit:2.6131;}
	.st2{fill:#3D3D3F;stroke:#1A171B;stroke-width:0.9966;stroke-linecap:square;stroke-miterlimit:2.6131;}
	.st3{fill:none;stroke:#1A171B;stroke-width:0.9966;stroke-linecap:square;stroke-miterlimit:2.6131;}
	.st4{fill:none;stroke:#1A171B;stroke-width:3.322;stroke-miterlimit:2.6131;}
</style>
<g>
	<g>
		<path class="st0" d="M85,8.8h413.4c41.5,0,75.5,34,75.5,75.5v413.4c0,41.5-34,75.5-75.5,75.5H85c-41.5,0-75.5-34-75.5-75.5V84.3
			C9.5,42.8,43.5,8.8,85,8.8L85,8.8z"/>
		<path class="st1" d="M292.4,91.9c1,0,1.8,0.5,1.8,1.1s-0.8,1.1-1.8,1.1s-1.8-0.5-1.8-1.1C290.5,92.4,291.4,91.9,292.4,91.9
			L292.4,91.9z"/>
		<path class="st2" d="M251.7,263.8c2.2,2.7,6.6,4.6,12,6.2l56.2,0.7l0.7-6.2c-0.9-11.4-0.7-22.2-1.8-33.5c-0.1-1.2-2.4-3.9-2.4-5.1
			c-0.2-2.6,0-5.3-0.1-7.8c0.9-3.7,1.3-7.5,2.7-10.8c0.2-0.6,1,1.5,1,2.3c0,2.9-0.5,5.9-0.5,8.9c0,1.6-0.2,2.9,0.6,5
			c6.2-1.7,10.8-1.3,19.6,3.1c0.7-8.6,1.5-17.1,0.7-25.9c-1.8-11.2-3.8-22.4-5.6-33.5c-0.5-6.6-1.6-12.6-6.8-14.8
			c-3.8-1.2-7-1.7-11.2-3.9c-4.3-2.2-12-8.6-15.3-9.2l-0.4-1.8l-18.3,1.1c-2.4,1.3-4,3.9-7.3,4s-6.2-1-9.5-2.9l-15.6-18.6l-17.2,2.8
			c8.3,16.4,17,33.2,24.8,48.5c2.4,14.2,4.8,28.5,7.3,42.7c0.1,0.7,1.3,2,1.3,2.9c0,2.6,0,4.4-0.4,6.8c-1.8,0.9-2.9,4.3-3.4,5.3
			c-4.6,9.9-8.1,21.3-11.1,32.3C251.2,263.5,251.3,263.2,251.7,263.8L251.7,263.8z"/>
		<polygon class="st1" points="277.6,116.2 306.6,116.2 310.3,122.3 273.8,122.3 		"/>
		<path class="st1" d="M277.6,116.2h29c0.1-12.3-4.6-22.9-14.2-22.6C282.8,93.8,277.6,104,277.6,116.2L277.6,116.2z"/>
		<path class="st1" d="M295.7,107.2c0.9,0.9,1.5,2.2,1.5,3.7s-0.6,2.8-1.5,3.8v1.8c0,0.5-0.4,0.9-0.9,0.9h-4.9
			c-0.5,0-0.9-0.4-0.9-0.9v-2.3c-0.7-0.9-1.2-2.1-1.2-3.3c0-1.3,0.5-2.4,1.2-3.3v-1.8c0-0.5,0.4-0.9,0.9-0.9h4.9
			c0.5,0,0.9,0.4,0.9,0.9V107.2L295.7,107.2z"/>
		<path class="st2" d="M273.8,122.3h36.5c1.5,2-1.8,2-4.6,2.9c-8.2,1-19.4,0.9-27.3,0C275.9,124.6,272.5,124.4,273.8,122.3
			L273.8,122.3z"/>
		<path class="st2" d="M278.2,122.3c-0.2,4.6,1.6,6.6,2.3,8.4c1.5,3.3,1.2,5.1,2.3,7.7c1.5,3.1,6.1,5.4,9.7,5.4
			c3.5-0.6,7.5-4.5,10-8.6c1.7-5,2.6-5.4,2.3-12.8L278.2,122.3L278.2,122.3z"/>
		<path class="st1" d="M304.7,123.7c0.4,4.9-1.2,7.2-2,9.8c-0.6,2-1.6,3.4-2.8,5.3c-3.1,4.3-5.7,4.3-6.2,4.4c-3.9,0.9-6.4-1-8.4-2.4
			c-2.1-1.5-2.8-4.6-2.8-4.6c-0.7-3.7-2.1-6.2-3.1-8.4c-0.5-1.1-0.7-3.9-0.7-4.5c0,0,3.3,0,3.4,0c1,0,0.9,1.8,3.2,1.8
			c2.3,0,2.4-1.8,5.4-1.8c2.9,0,3.2,2.1,5.6,2.1s2.6-1.6,3.5-1.6C301.1,123.5,304.7,123.5,304.7,123.7L304.7,123.7z"/>
		<path class="st3" d="M291,122.4c0.1,2.4-0.4,3.5-0.7,5.4c-0.9,1.2-2,1.5-1.8,2.6c0.1,1.1,0.4,1.5,2.1,1.5s2,0.4,2.8-0.7"/>
		<path class="st3" d="M295.9,135.5c-3.3-1.1-5.7-1-9.3,0"/>
		<path class="st3" d="M293.5,137.5c-1,0-3.5,0.6-4.3,0.2v-0.2h-0.4"/>
		<path class="st1" d="M282.7,138.2c0,3.3-1.6,7.7-1.1,11.1c1.3,9.3,5,17,9.5,24.4c3.4-4.9,6.2-10,8.9-17.2c2.1-6,2-13.6,1-19.1
			c-2.2,3.7-5.6,6.1-9.7,6.2C287.2,143.2,285.3,141.6,282.7,138.2L282.7,138.2z"/>
		<path class="st3" d="M282.2,142.8c2,3.4,3.7,6.7,8.3,7.8l1-0.2l8.2,6.8"/>
		<path class="st3" d="M283.2,156.3l8.2-5.7c4.4-2,9.3-5.4,10-9.8"/>
		<path class="st2" d="M287.5,153.1c0.9,1.7,2.9,3.8,2.7,5.4c-0.6,2.9-2.1,5.5-2.6,9l3.7,6.5l4.5-7.3c-1.2-3.1-2-5.6-2.6-8.3
			c-0.4-1.7,1-3.7,1.5-5.4l-3.4-2.6L287.5,153.1L287.5,153.1z"/>
		<polygon class="st1" points="268.4,218.4 283,219.5 282.6,225.9 267.9,224.8 		"/>
		<polygon class="st1" points="284.7,218.3 293.7,218.3 293.7,226.9 284.7,226.9 		"/>
		<polygon class="st1" points="295.3,219.8 314.7,219.7 314.8,226.1 295.4,226.3 		"/>
		<path class="st2" d="M320.4,267.4c-19.9,1.8-38.9,0.5-60.3-1.6c3.5,48.2,9.7,96.3,14.3,144.5c10.5,0,21-0.1,31.5-0.1
			c0.6-1.1,1.1-2.6,1.2-3.8C313.3,360.3,316,313.6,320.4,267.4L320.4,267.4z"/>
		<path class="st2" d="M321.5,425.7c-1.5,0.9-4,0.6-6.1,0.7c-1.6,0-3.5,0.2-5.3,0c-2.6-0.2-5.3-1.8-7.9-2.1
			c-6.4-0.5-13-0.4-19.6-0.4c-1.8,0-4-0.4-5.9-0.2c-2,0.1-4,1.1-5.9,1.2c-2.9,0.1-6.4,1-9.4,1c-2.1,0-4.4-0.1-6.7-0.9
			c-0.1-1.1,0.1-3.8,0.6-5.1c0.6-2.1,3.4-2.9,7.1-3.3c7.7-1.3,9.7-6.8,15-7.3c8.4-0.9,17.6-2.7,26.3-0.6c4.6,1,6.5,6.7,10.8,7.8
			c3.7,1,5.9,1,6.8,4.4C321.6,422.1,321.5,424,321.5,425.7L321.5,425.7z"/>
		<path class="st1" d="M231.4,123.2c4.6,3.3,13.6,0.7,19.3-2.4l-3.2-40.6l-1.7-2.2c-3.9,1.6-7.2,1.5-10.4,0c-0.4-0.2-2,1.2-1.8,3.1
			L231.4,123.2L231.4,123.2z"/>
		<path class="st1" d="M235.5,80.4c3.4,0.9,6,0.9,9.9,0c-0.4-2.1,0.1-3.3,1.1-5.3c2.9-4.6,5.7-7.5,3.9-20.9c0.1-3.5-3.7-3.5-3.4-1.2
			c0.2,2.6,0,4,0,6.5c0,0.7-0.7,2.4-0.7,4c0-1.5,0.7-3.1,0.7-4c0.2-7.2-1.7-13.6-2.4-18.5c-0.1-1.5-1.6-1.7-1.6-1.5
			c0,0.4,1.2,8.8,2,15.2c-1-6.7-1.5-11-1.8-13.9c-0.1-2.8-2.9-4.4-2.8-2.4c0.5,3.2,2,8.8,2,15.5c0,0-1.1-12.1-1.7-14.7
			c-0.2-1.6-0.5-1.8-1.7-1.8s-1.8,2.4-1.3,2.4c0,0,1.3,0.2,1.3,1.1c0.2,3.7,1,10.4,1.3,15.8c3.4,9.9,2.1,16.3,2.1,16.3
			c0.9-5,0-9.7-2.1-16.3c-0.6-1.8-1-12.5-1.2-15.8c-2-3.1-2.6,0.7-2.6,0.7l-0.9,13.7C234.8,63.9,232.2,71.1,235.5,80.4L235.5,80.4z"
			/>
		<path class="st1" d="M332.1,265.1c0.2-3.3-6.1-3.5-8.1-1.6c-1.2,1.2-3.5,2.4-4,5.7l-1.2,14.7c4.5-6.1,3.8-4.4,5.5-9.9
			c1.1-3.7-1.8,6.6-5.5,9.9l-1,11C324.8,286,331,275.9,332.1,265.1L332.1,265.1z"/>
		<path class="st1" d="M318.9,228.1c0.6-2,0.5-3.9,1.7-4.9c5.7-1.6,13.9,0,19.3,3.9c-1.5,12.3-4.3,26.8-6.7,39
			c-4.5,0.5-8.7-1.6-12.6-1.2L318.9,228.1L318.9,228.1z"/>
		<path class="st4" d="M63.9,338.5h134.2l35.2-98.7 M350.4,239.8l35.7,98.7h133.5 M519.5,490h-78.9l21.2,59.1 M122.1,549.1
			l21.4-59.1H63.9"/>
	</g>
</g>
</svg>
