<?xml version="1.0" encoding="utf-8"?>
<!-- Generator: Adobe Illustrator 19.2.0, SVG Export Plug-In . SVG Version: 6.00 Build 0)  -->
<svg version="1.1" id="Livello_1" xmlns="http://www.w3.org/2000/svg" xmlns:xlink="http://www.w3.org/1999/xlink" x="0px" y="0px"
	 viewBox="0 0 759.1 723.5" style="enable-background:new 0 0 759.1 723.5;" xml:space="preserve">
<style type="text/css">
	.st0{fill:#B9B9B9;}
	.st1{fill:none;stroke:#FFFFFF;stroke-width:12.3091;stroke-miterlimit:2.6131;}
	.st2{fill:#FBE918;}
	.st3{fill:#DCDCDC;}
	.st4{fill:none;stroke:#1A171B;stroke-width:6.1545;}
	.st5{fill:#1A171B;stroke:#1A171B;stroke-width:1.3294;stroke-miterlimit:2.6131;}
	.st6{fill:#FFFFFF;stroke:#58585A;stroke-width:6.1545;stroke-miterlimit:2.6131;}
	.st7{fill:#FFFFFF;}
	.st8{fill:#58585A;}
</style>
<g>
	<rect x="4.1" y="175.7" class="st0" width="754" height="546.2"/>
	<line class="st1" x1="742.9" y1="175.9" x2="742.9" y2="709.1"/>
	<line class="st1" x1="748.8" y1="708.9" x2="433.4" y2="708.9"/>
	<line class="st1" x1="17.9" y1="722" x2="17.9" y2="178.8"/>
	<path class="st2" d="M172.6,614.9v-71 M172.6,683.9v-65 M172.7,329.6v-96.5h-12.3v13.7l-20.8-23.8l-21.6,8.2l37.9,43.3l5,4.8
		l-0.6,37.1l-89.1-96.1l-15.8,14.6l103.2,111.3l2.4,2.5l-0.6,36.8l-113.2-122l-2,1.7v-35.6H32.9v47v3.2l0.1,67.4l-1.9,1.7l1.9-1.7
		l0.1,69.9l0,0v3l0.1,72.1l0,0v3.9v66l0,0v3.3l0.1,72.9l0,0v3.1l0.1,74.5h7l1.2,1.1l1-1.1h3.2v-0.7H105h5.1l0,0h50.4v0.7h12.3v-0.7
		h254.6v0.7h12.3V172.7h-12.3v530.1H172.6V689 M172.7,398.7v-65.6 M172.7,469.8v-66.7 M172.6,538.9v-65.1 M45.6,691v5.9V654
		l47.3,48.7H54.4H62L45.6,691z M47,334.2l-1.6,1.5V293l113.8,122.7l2,1l-0.6,39.8L47,334.2z M158.9,486.6l1.4,2.1v37l-113-121.8
		l-2,1.9v-41.5L158.9,486.6z M159.2,556.2l1-0.9v46.4L47,479.4l-1.5,1.4v-47.4L159.2,556.2z M158.9,631.7l1.4-1.3v40.3L47.4,549
		l-1.9,1.7v-41.2L158.9,631.7z M47.2,624.7l-1.6,1.6v-47.7l113.8,122.6l1-0.9v2.4h-37.6l0.1-0.1L47.2,624.7z"/>
	<rect x="4.1" y="4.1" class="st3" width="754" height="171.6"/>
	<rect x="42.6" y="160.3" class="st3" width="121.6" height="69.3"/>
	<line class="st4" x1="4.1" y1="175.7" x2="42.6" y2="175.7"/>
	<line class="st4" x1="42.6" y1="172.7" x2="42.6" y2="229.6"/>
	<line class="st4" x1="39.1" y1="229.6" x2="166.8" y2="229.6"/>
	<line class="st4" x1="164.1" y1="229.6" x2="164.1" y2="175.7"/>
	<line class="st4" x1="161" y1="175.7" x2="758" y2="175.7"/>
	<line class="st4" x1="40.2" y1="230.5" x2="33.6" y2="177.3"/>
	<line class="st4" x1="166.8" y1="231.1" x2="173.5" y2="175.7"/>
	<path class="st5" d="M241,164h54.2c1.4,0,2.6-1.1,2.6-2.4v-1.9c0-1.3-1.1-2.4-2.6-2.4H241c-1.4,0-2.6,1.1-2.6,2.4v1.9
		C238.5,162.9,239.6,164,241,164L241,164z"/>
	<path class="st5" d="M268.3,146.9c-2,0-3.6,1.6-3.6,3.6s1.6,3.6,3.6,3.6c2,0,3.6-1.6,3.6-3.6C271.9,148.4,270.2,146.9,268.3,146.9
		L268.3,146.9z"/>
	<path class="st6" d="M394.1,258.5c-20.1-36.6-48.3-38.1-48.3-38.1h-42.6h-42.6c0,0-28.1,1.5-48.3,38.1
		c-24.7,44.6-24.7,71.1-24.7,71.1v294v13.8v11.3c0,0,15.7,11,37.9,15.4c21.6,4.2,77.4,4.1,77.4,4.1s55.8,0.1,77.4-4.1
		c22.2-4.3,37.9-15.4,37.9-15.4v-11.3v-13.8v-294C418.8,329.6,418.8,303.1,394.1,258.5z"/>
	<path class="st6" d="M686.4,258.5c-20.1-36.6-48.3-38.1-48.3-38.1h-42.6H553c0,0-28.1,1.5-48.3,38.1C480,303.1,480,329.6,480,329.6
		v294v13.8v11.3c0,0,15.7,11,37.9,15.4c21.6,4.2,77.4,4.1,77.4,4.1s55.8,0.1,77.4-4.1c22.2-4.3,37.9-15.4,37.9-15.4v-11.3v-13.8
		v-294C711.1,329.6,711.1,303.1,686.4,258.5z"/>
	<line class="st4" x1="102.9" y1="227.5" x2="102.9" y2="206"/>
	<polyline class="st7" points="74.5,206 131.9,206 103.2,172.7 	"/>
	<g>
		<rect x="300.3" y="237.3" class="st8" width="6.2" height="83.9"/>
		<rect x="300.3" y="598.8" class="st8" width="6.2" height="43.9"/>
		<path class="st8" d="M207.5,570.2c0.6,0.6,15.2,15,31.8,18.8c12.6,2.9,43.9,3.2,57.6,3.2c3.7,0,6.1,0,6.5,0c0.4,0,2.9,0,6.5,0
			c13.7,0,44.9-0.3,57.6-3.2c16.5-3.7,31.1-18.2,31.8-18.8l-4.3-4.3c-0.1,0.1-13.9,13.8-28.8,17.2c-15.3,3.5-62.2,3-62.6,3v3.1v-3.1
			c-0.5,0-47.3,0.5-62.6-3c-14.8-3.4-28.7-17-28.8-17.2L207.5,570.2z"/>
		<path class="st8" d="M274.7,561.2c13.4,0,27.7-0.2,28.8-0.2c1,0,15.3,0.2,28.8,0.2c7,0,13.7-0.1,18.2-0.2
			c13.7-0.5,25.7-6.2,26.2-6.5L374,549c-0.1,0.1-11.4,5.3-23.7,5.9c-13,0.5-46.4,0-46.7,0v3.1v-3.1c-0.3,0-33.7,0.5-46.7,0
			c-12.4-0.5-23.6-5.8-23.7-5.9l-2.7,5.6c0.5,0.2,12.5,6,26.2,6.5C260.9,561.1,267.7,561.2,274.7,561.2z"/>
		<path class="st8" d="M203.1,626.8l-5,3.5c0.5,0.7,12.1,17.6,30.7,19.8c15,1.9,59.1,2.2,72.6,2.2l0,0c0.2,0,1,0,2,0c1,0,1.7,0,2,0
			l0,0c13.5,0,57.6-0.3,72.6-2.2c18.6-2.3,30.2-19.1,30.7-19.8l-5-3.5c-0.1,0.1-10.6,15.2-26.4,17.2c-15.3,1.9-63.7,2.1-73.8,2.2
			c-10.1,0-58.5-0.2-73.8-2.2C213.7,642,203.2,626.9,203.1,626.8z"/>
		<path class="st8" d="M418.8,458.8h-5.7c0-11,0-24.1,0-40l-0.1-54c0-0.2,0.1-6.1,0.3-14l5-3.8l-1.9-2.5l0.8-3
			c-0.1,0-1.4-0.4-3.7-0.9c0.3-12.3,0.8-26,1.3-32l-6.2-0.6c-0.5,6-1,18.9-1.3,30.9c-10.6-2.7-28.2-6.9-43.9-9.9
			c-18.8-3.6-58.5-3.5-60.2-3.5l0,0c-1.7,0-41.4,0-60.2,3.5c-15.7,3-33.3,7.2-43.9,9.9c-0.3-12-0.8-25.1-1.3-30.9l-6.2,0.6
			c0.5,6,1,19.6,1.3,32c-2.3,0.6-3.6,0.9-3.7,0.9l0.8,3l-1.9,2.5l5,3.8c0.2,7.9,0.3,13.8,0.3,14l-0.1,54.1c0,15.9,0,29,0,39.9h-5.7
			v6.2h5.6c0,43.7,0,49.4,0.1,71.1c0,8.4-0.3,21.5-0.7,35.7l-4.5,3.6l3.8,4.8l0.5-0.4c-1.1,30.4-2.7,62.6-2.7,63.1l6.2,0.3
			c0-0.5,1.7-36.5,2.9-68.4l30.1-23.6l-1.9-2.5l3.1,0.2c0-0.6,4.3-66.3,4.4-90.2c0.1-42.3-1.1-73.1-1.5-81.6
			c6.1-1.7,22.8-6.3,32.9-7.3c12.6-1.2,36.8-1.5,37.4-1.5c0.5,0,24.8,0.3,37.4,1.5c10.1,1,26.8,5.6,32.9,7.3
			c-0.4,8.5-1.6,39.3-1.5,81.6c0,23.9,4.3,89.5,4.4,90.2l3.1-0.2l-1.9,2.5l30.1,23.6c1.1,31.9,2.9,67.8,2.9,68.4l6.2-0.3
			c0-0.5-1.6-32.7-2.7-63.1l0.5,0.4l3.8-4.8l-4.5-3.6c-0.5-14.2-0.8-27.2-0.7-35.7c0.1-21.8,0.2-27.5,0.1-71.1h5.6v-6.2L418.8,458.8
			L418.8,458.8z M407,418.8c0,15.9,0,29.1,0,40h-28.8l0,0c-0.1-44,1.2-75.6,1.6-82.2l27.2-20.9c-0.1,5.1-0.2,8.6-0.2,9.1L407,418.8z
			 M199.6,355.7l27.2,20.9c0.3,6.8,1.6,38.2,1.6,82.2l0,0h-28.8c0-10.9,0-23.9,0-39.9l0.1-54.2C199.8,364.4,199.7,360.8,199.6,355.7
			z M199.8,536.1c-0.1-21.8-0.2-27.5-0.1-71.1h28.7c-0.5,24.9-3.6,73.6-4.2,82.2l-25,19.6C199.6,554.7,199.8,543.6,199.8,536.1z
			 M303.3,362.3v3.1V362.3c-1,0-25,0.3-38,1.5c-11.2,1.1-29.5,6.2-34.8,7.7l-30.9-23.7c0-0.8,0-1.5-0.1-2.4
			c10.4-2.6,28.6-7.1,44.9-10.2c18.2-3.5,58.6-3.4,59-3.4v-3.1v3.1c0.3-0.1,40.8,0,59,3.4c16.2,3.1,34.5,7.5,44.8,10.2
			c0,0.8,0,1.5-0.1,2.4l-31,23.7c-5.3-1.5-23.6-6.7-34.8-7.7C328.3,362.6,304.4,362.3,303.3,362.3z M406.8,536.1
			c0,7.5,0.2,18.5,0.6,30.7l-25-19.6c-0.5-8.6-3.6-57.4-4.2-82.2H407C407.1,508.7,407.1,514.4,406.8,536.1z"/>
		<path class="st8" d="M381.3,653.6l-1.2,0.2c-14.2,2.2-14.2,2.2-49.2,2.7l-27.3,0.4l-27.4-0.4c-35.1-0.5-35.1-0.5-49.2-2.7
			l-1.2-0.2c-13.6-2.1-23.4-12.7-23.5-12.8l-4.5,4.1c0.4,0.5,11.4,12.4,27.1,14.9l1.2,0.2c14.6,2.3,14.6,2.3,50.1,2.7l24.6,0.3v0.1
			h2.9h2.9V663l24.6-0.3c35.5-0.5,35.5-0.5,50.1-2.7l1.2-0.2c15.7-2.5,26.7-14.4,27.1-14.9l-4.5-4.1
			C404.7,640.8,394.9,651.5,381.3,653.6z"/>
		<path class="st8" d="M253.7,228.2c14-1.6,49.3-1.6,49.6-1.6h42c0.2,0,19.5,1.6,30.6,17.3l10-7.2c-14.6-20.4-38.8-22.3-40.2-22.4
			h-42.6c-1.4,0-36.5,0-51.1,1.7c-16.5,2-36.2,26.1-38.3,28.9l9.7,7.6C230.6,243.7,245,229.2,253.7,228.2z"/>
	</g>
	<g>
		<rect x="592.6" y="237.3" class="st8" width="6.2" height="83.9"/>
		<rect x="592.6" y="598.8" class="st8" width="6.2" height="43.9"/>
		<path class="st8" d="M499.9,570.2c0.6,0.6,15.2,15,31.8,18.8c12.6,2.9,43.7,3.2,57.5,3.2c3.7,0,6.2,0,6.6,0c0.5,0,2.9,0,6.6,0
			c13.7,0,44.8-0.3,57.5-3.2c16.5-3.7,31.1-18.2,31.8-18.8l-4.3-4.3c-0.1,0.1-13.9,13.8-28.8,17.2c-15.4,3.5-62.2,3-62.6,3v3.1v-3.1
			c-0.4,0-47.3,0.5-62.6-3c-14.8-3.4-28.7-17-28.8-17.2L499.9,570.2z"/>
		<path class="st8" d="M567,561.1c13.4,0,27.7-0.2,28.8-0.2c1,0,15.3,0.2,28.7,0.2c7,0,13.7-0.1,18.2-0.2
			c13.7-0.5,25.7-6.2,26.2-6.5l-2.7-5.6c-0.1,0.1-11.4,5.3-23.7,5.9c-13,0.5-46.3,0-46.7,0v3.1v-3.1c-0.3,0-33.7,0.5-46.7,0
			c-12.4-0.5-23.6-5.8-23.7-5.9l-2.7,5.6c0.5,0.2,12.5,6,26.2,6.5C553.2,561.1,560,561.1,567,561.1z"/>
		<path class="st8" d="M495.5,626.8l-5,3.5c0.5,0.7,12.1,17.6,30.7,19.8c15,1.9,59.1,2.2,72.6,2.2l0,0c0.2,0,1,0,2,0c1,0,1.7,0,2,0
			l0,0c13.5,0,57.6-0.3,72.6-2.2c18.6-2.3,30.2-19.1,30.7-19.8l-5-3.5c-0.1,0.1-10.6,15.2-26.4,17.2c-15.3,1.9-63.7,2.1-73.8,2.2
			c-10.1,0-58.5-0.2-73.8-2.2C506,642,495.6,626.9,495.5,626.8z"/>
		<path class="st8" d="M711.1,458.8h-5.7c0-11,0-24.1,0-40l-0.1-54c0-0.2,0.1-6.1,0.3-14l5-3.8l-1.9-2.5l0.8-3
			c-0.1,0-1.4-0.4-3.7-0.9c0.3-12.3,0.8-26,1.3-32l-6.2-0.6c-0.5,5.9-1,18.9-1.3,30.9c-10.6-2.7-28.2-6.9-43.9-9.9
			c-18.8-3.6-58.6-3.5-60.2-3.5l0,0c-1.6,0.1-41.4,0-60.2,3.5c-15.7,3-33.3,7.2-43.9,9.9c-0.3-12-0.8-25.1-1.3-30.9l-6.2,0.6
			c0.5,6,1,19.6,1.3,32c-2.3,0.6-3.6,0.9-3.7,0.9l0.8,3l-1.9,2.5l5,3.8c0.2,7.9,0.3,13.8,0.3,14l-0.1,54.2c0,15.9,0,28.9,0,39.8
			h-5.6v6.2h5.6c0,43.7,0,49.4,0.1,71.1c0,8.4-0.3,21.5-0.7,35.7l-4.5,3.6l3.8,4.8l0.5-0.4c-1.1,30.4-2.7,62.6-2.7,63.1l6.2,0.3
			c0-0.5,1.9-36.5,2.9-68.4l30.1-23.6l-1.9-2.5l3.1,0.2c0-0.6,4.3-66.3,4.4-90.2c0.1-42.3-1.1-73.1-1.5-81.6
			c6.1-1.7,22.8-6.3,32.9-7.3c12.6-1.2,36.9-1.5,37.4-1.5c0.5,0,24.7,0.3,37.4,1.5c10.1,1,26.8,5.6,32.9,7.3
			c-0.4,8.5-1.6,39.3-1.5,81.6c0,23.9,4.3,89.5,4.4,90.2l3.1-0.2l-1.9,2.5l30.1,23.6c1.1,31.9,2.9,67.8,2.9,68.4l6.2-0.3
			c0-0.5-1.6-32.7-2.7-63.1l0.5,0.4l3.8-4.8l-4.5-3.6c-0.5-14.2-0.8-27.2-0.7-35.7c0.1-21.8,0.2-27.5,0.1-71.1h5.6v-6.2H711.1z
			 M699.3,418.8c0,15.9,0,29.1,0,40h-28.8l0,0c-0.1-44,1.2-75.6,1.6-82.2l27.2-20.9c-0.1,5.1-0.2,8.6-0.2,9.1L699.3,418.8z
			 M492,355.7l27.2,20.9c0.3,6.8,1.6,38.2,1.6,82.2l0,0h-28.8c0-10.9,0-23.9,0-39.8l0.1-54.2C492.2,364.4,492.1,360.8,492,355.7z
			 M492.2,536.1c-0.1-21.8-0.2-27.5-0.1-71.1h28.7c-0.5,24.9-3.6,73.6-4.2,82.2l-25,19.6C492,554.7,492.2,543.6,492.2,536.1z
			 M595.7,362.3v3.1V362.3c-1,0-25,0.3-38,1.5c-11.2,1.1-29.5,6.2-34.8,7.7l-30.9-23.7c0-0.8,0-1.5-0.1-2.4
			c10.4-2.6,28.6-7.1,44.9-10.2c18.2-3.4,58.6-3.4,59-3.4v-3.1v3.1c0.5,0,40.8,0,59,3.4c16.2,3.1,34.5,7.5,44.8,10.2
			c0,0.8,0,1.6-0.1,2.4l-31,23.7c-5.3-1.5-23.6-6.7-34.8-7.7C620.6,362.6,596.7,362.3,595.7,362.3z M699.2,536.1
			c0,7.5,0.2,18.5,0.6,30.7l-25-19.6c-0.5-8.6-3.6-57.4-4.2-82.2h28.7C699.4,508.7,699.4,514.4,699.2,536.1z"/>
		<path class="st8" d="M673.6,653.5l-1.2,0.2c-14.2,2.2-14.2,2.2-49.2,2.7l-27.3,0.4l-27.4-0.4c-35.1-0.5-35.1-0.5-49.2-2.7
			l-1.2-0.2c-13.6-2.1-23.4-12.7-23.5-12.8l-4.5,4.1c0.4,0.5,11.4,12.4,27.1,14.8l1.2,0.2c14.6,2.3,14.6,2.3,50.2,2.7l24.7,0.3v0.1
			h2.9h2.9v-0.1l24.6-0.3c35.5-0.5,35.5-0.5,50.1-2.7l1.2-0.2c15.7-2.4,26.7-14.4,27.1-14.8l-4.5-4.1
			C697,640.8,687.2,651.5,673.6,653.5z"/>
		<path class="st8" d="M547.5,228.2c14-1.6,49.3-1.6,49.6-1.6h42c0.2,0,19.5,1.6,30.6,17.3l10-7.2c-14.5-20.4-38.6-22.3-40.1-22.4
			h-42.6c-1.4,0-36.5,0-51.1,1.7c-16.5,2-36.2,26.1-38.3,28.9l9.7,7.6C524.4,243.7,538.8,229.2,547.5,228.2z"/>
	</g>
</g>
</svg>
