<?xml version="1.0" encoding="utf-8"?>
<!-- Generator: Adobe Illustrator 19.2.0, SVG Export Plug-In . SVG Version: 6.00 Build 0)  -->
<svg version="1.1" id="Livello_1" xmlns="http://www.w3.org/2000/svg" xmlns:xlink="http://www.w3.org/1999/xlink" x="0px" y="0px"
	 viewBox="0 0 875 344.1" style="enable-background:new 0 0 875 344.1;" xml:space="preserve">
<style type="text/css">
	.st0{fill:#B9B9B9;}
	.st1{fill:#FFFFFF;}
</style>
<g>
	<g>
		<polygon class="st0" points="1,2.1 871,2.1 871,333.1 1,333.1 		"/>
		<polygon class="st1" points="1,302.8 871,302.8 871,317.3 1,317.3 		"/>
		<polygon class="st1" points="1,17.7 871,17.7 871,32.2 1,32.2 		"/>
		<polygon class="st1" points="401.4,159.8 474,159.8 474,174.2 401.4,174.2 		"/>
		<polygon class="st1" points="257.9,159.8 330.5,159.8 330.5,174.2 257.9,174.2 		"/>
		<polygon class="st1" points="114.2,159.8 186.9,159.8 186.9,174.2 114.2,174.2 		"/>
		<polygon class="st1" points="1,174.2 1,159.8 43.3,159.8 43.3,174.2 		"/>
		<polygon class="st1" points="545,159.8 617.7,159.8 617.7,174.2 545,174.2 		"/>
		<polygon class="st1" points="688.9,159.8 761.5,159.8 761.5,174.2 688.9,174.2 		"/>
		<polygon class="st1" points="832.7,159.8 871,159.8 871,174.2 832.7,174.2 		"/>
	</g>
</g>
</svg>
