<?xml version="1.0" encoding="utf-8"?>
<!-- Generator: Adobe Illustrator 19.2.0, SVG Export Plug-In . SVG Version: 6.00 Build 0)  -->
<svg version="1.1" id="Livello_1" xmlns="http://www.w3.org/2000/svg" xmlns:xlink="http://www.w3.org/1999/xlink" x="0px" y="0px"
	 viewBox="0 0 960 960" style="enable-background:new 0 0 960 960;" xml:space="preserve">
<style type="text/css">
	.st0{fill-rule:evenodd;clip-rule:evenodd;fill:#CECFD1;}
	.st1{fill-rule:evenodd;clip-rule:evenodd;fill:#FFFFFF;}
</style>
<g>
	<g>
		<polygon class="st0" points="45,314.5 915,314.5 915,645.5 45,645.5 45,314.5 		"/>
		<polygon class="st1" points="45,615.2 915,615.2 915,629.7 45,629.7 45,615.2 		"/>
		<polygon class="st1" points="45,330.1 915,330.1 915,344.6 45,344.6 45,330.1 		"/>
		<polygon class="st1" points="430.9,472.2 533.5,472.2 533.5,486.6 430.9,486.6 430.9,472.2 		"/>
		<polygon class="st1" points="575.2,472.2 677.8,472.2 677.8,486.6 575.2,486.6 575.2,472.2 		"/>
		<polygon class="st1" points="286.6,472.2 389.2,472.2 389.2,486.6 286.6,486.6 286.6,472.2 		"/>
		<polygon class="st1" points="142.3,472.2 244.9,472.2 244.9,486.6 142.3,486.6 142.3,472.2 		"/>
		<polygon class="st1" points="45,486.6 45,472.2 100.5,472.2 100.5,486.6 45,486.6 		"/>
		<polygon class="st1" points="719.6,472.2 822.2,472.2 822.2,486.6 719.6,486.6 719.6,472.2 		"/>
		<polygon class="st1" points="863.9,472.2 915,472.2 915,486.6 863.9,486.6 863.9,472.2 		"/>
	</g>
</g>
</svg>
