<?xml version="1.0" encoding="utf-8"?>
<!-- Generator: Adobe Illustrator 19.2.0, SVG Export Plug-In . SVG Version: 6.00 Build 0)  -->
<svg version="1.1" id="Livello_1" xmlns="http://www.w3.org/2000/svg" xmlns:xlink="http://www.w3.org/1999/xlink" x="0px" y="0px"
	 viewBox="0 0 876 540.8" style="enable-background:new 0 0 876 540.8;" xml:space="preserve">
<style type="text/css">
	.st0{fill:#B9B9B9;}
	.st1{fill:#FFFFFF;}
</style>
<g>
	<g>
		<path class="st0" d="M2,208.1h238.8c28.7,0,43-16.6,43-43.4V2.1h307.8v162.5c0,27.9,12.9,43.5,43.7,43.5H872v331.1H2V208.1
			L2,208.1z"/>
		<polygon class="st1" points="561.5,207.6 561.6,2.1 576,2.1 576,207.6 		"/>
		<polygon class="st1" points="299.4,207.6 299.4,2.1 313.9,2.1 313.9,207.6 		"/>
		<polygon class="st1" points="315.2,223.7 346.7,223.7 346.7,238.1 315.2,238.1 		"/>
		<polygon class="st1" points="475.3,223.7 506.8,223.7 506.8,238.1 475.3,238.1 		"/>
		<polygon class="st1" points="368.4,223.7 399.8,223.7 399.8,238.1 368.4,238.1 		"/>
		<polygon class="st1" points="528.5,223.7 560,223.7 560,238.1 528.5,238.1 		"/>
		<polygon class="st1" points="261.9,223.7 293.4,223.7 293.4,238.1 261.9,238.1 		"/>
		<polygon class="st1" points="421.8,223.7 453.2,223.7 453.2,238.1 421.7,238.1 		"/>
		<polygon class="st1" points="581.9,223.7 613.3,223.7 613.3,238.1 581.9,238.1 		"/>
		<polygon class="st1" points="2,508.8 872,508.8 872,523.3 2,523.3 		"/>
		<polygon class="st1" points="387.9,365.8 490.5,365.8 490.5,380.2 387.9,380.2 		"/>
		<polygon class="st1" points="532.2,365.8 634.8,365.8 634.8,380.2 532.2,380.2 		"/>
		<polygon class="st1" points="243.6,365.8 346.2,365.8 346.2,380.2 243.6,380.2 		"/>
		<polygon class="st1" points="99.3,365.8 201.9,365.8 201.9,380.2 99.3,380.2 		"/>
		<polygon class="st1" points="2,380.2 2,365.8 57.5,365.8 57.5,380.2 		"/>
		<polygon class="st1" points="676.6,365.8 779.2,365.8 779.2,380.2 676.6,380.2 		"/>
		<polygon class="st1" points="820.9,365.8 872,365.8 872,380.2 820.9,380.2 		"/>
		<path class="st1" d="M2,223.7h238.6v14.4H2V223.7L2,223.7z M635.2,223.7H872v14.4H635.2V223.7L635.2,223.7z"/>
	</g>
</g>
</svg>
