<?xml version="1.0" encoding="utf-8"?>
<!-- Generator: Adobe Illustrator 19.2.0, SVG Export Plug-In . SVG Version: 6.00 Build 0)  -->
<svg version="1.1" id="Livello_1" xmlns="http://www.w3.org/2000/svg" xmlns:xlink="http://www.w3.org/1999/xlink" x="0px" y="0px"
	 viewBox="0 0 725 725" style="enable-background:new 0 0 725 725;" xml:space="preserve">
<style type="text/css">
	.st0{fill:#DCDCDC;}
	.st1{fill:#B9B9B9;}
	.st2{fill:#FFFFFF;}
</style>
<g>
	<g>
		<polygon class="st0" points="445.7,210.4 445.7,210.5 721.3,210.5 721.3,494.9 445.7,494.9 445.7,721.7 278.5,721.7 278.5,513 
			278.3,513 278.3,512.9 2.7,512.9 2.7,228.5 278.3,228.5 278.3,1.7 445.5,1.7 445.5,210.4 		"/>
		<path class="st1" d="M273.3,251.8H3v237.7h270.5c16.2-0.1,28.5,12.5,28.5,27.7v204.5h120.4l0.1-221.3c0-17.7,12.6-28.8,29.2-28.8
			h269.7V233.9h-271c-13.9,0-27.8-10.9-27.8-29.2V1.8H302.1v222C302,238.8,288.6,251.8,273.3,251.8L273.3,251.8z"/>
		<polygon class="st2" points="433.4,353.3 721.3,353.3 721.3,356.8 433.4,356.8 		"/>
		<polygon class="st2" points="290.9,371.2 3,371.2 3,374.7 290.9,374.7 		"/>
		<polygon class="st2" points="433.4,348 721.2,348 721.2,351.5 433.4,351.5 		"/>
		<polygon class="st2" points="290.9,366 3.1,366 3.1,369.5 290.9,369.5 		"/>
		<polygon class="st2" points="433.4,292.9 454.1,292.9 454.1,296.5 433.4,296.5 		"/>
		<polygon class="st2" points="290.8,310.9 270.1,310.9 270.1,314.4 290.8,314.4 		"/>
		<polygon class="st2" points="433.4,408.5 454.1,408.5 454.1,412 433.4,412 		"/>
		<polygon class="st2" points="290.8,426.5 270.1,426.5 270.1,430 290.8,430 		"/>
		<polygon class="st2" points="471.5,292.9 492.3,292.9 492.3,296.5 471.5,296.5 		"/>
		<polygon class="st2" points="252.7,310.9 232,310.9 232,314.4 252.7,314.4 		"/>
		<polygon class="st2" points="471.5,408.5 492.3,408.5 492.3,412 471.5,412 		"/>
		<polygon class="st2" points="252.7,426.5 232,426.5 232,430 252.7,430 		"/>
		<polygon class="st2" points="509.7,292.9 530.4,292.9 530.4,296.5 509.7,296.5 		"/>
		<polygon class="st2" points="214.6,310.9 193.8,310.9 193.8,314.4 214.6,314.4 		"/>
		<polygon class="st2" points="509.7,408.5 530.4,408.5 530.4,412 509.7,412 		"/>
		<polygon class="st2" points="214.6,426.5 193.8,426.5 193.8,430 214.6,430 		"/>
		<polygon class="st2" points="547.8,292.9 568.5,292.9 568.5,296.5 547.8,296.5 		"/>
		<polygon class="st2" points="176.4,310.9 155.7,310.9 155.7,314.4 176.4,314.4 		"/>
		<polygon class="st2" points="547.8,408.5 568.5,408.5 568.5,412 547.8,412 		"/>
		<polygon class="st2" points="176.4,426.5 155.7,426.5 155.7,430 176.4,430 		"/>
		<polygon class="st2" points="585.9,292.9 606.7,292.9 606.7,296.5 585.9,296.5 		"/>
		<polygon class="st2" points="138.3,310.9 117.6,310.9 117.6,314.4 138.3,314.4 		"/>
		<polygon class="st2" points="585.9,408.5 606.7,408.5 606.7,412 585.9,412 		"/>
		<polygon class="st2" points="138.3,426.5 117.6,426.5 117.6,430 138.3,430 		"/>
		<polygon class="st2" points="662.2,292.9 682.9,292.9 682.9,296.5 662.2,296.5 		"/>
		<polygon class="st2" points="62,310.9 41.3,310.9 41.3,314.4 62,314.4 		"/>
		<polygon class="st2" points="662.2,408.5 682.9,408.5 682.9,412 662.2,412 		"/>
		<polygon class="st2" points="62,426.5 41.3,426.5 41.3,430 62,430 		"/>
		<polygon class="st2" points="624.1,292.9 644.8,292.9 644.8,296.5 624.1,296.5 		"/>
		<polygon class="st2" points="100.2,310.9 79.4,310.9 79.4,314.4 100.2,314.4 		"/>
		<polygon class="st2" points="624.1,408.5 644.8,408.5 644.8,412 624.1,412 		"/>
		<polygon class="st2" points="100.2,426.5 79.4,426.5 79.4,430 100.2,430 		"/>
		<polygon class="st2" points="700.3,292.9 721.1,292.9 721.1,296.5 700.3,296.5 		"/>
		<polygon class="st2" points="23.9,310.9 3.2,310.9 3.2,314.4 23.9,314.4 		"/>
		<polygon class="st2" points="700.3,408.5 721.1,408.5 721.1,412 700.3,412 		"/>
		<polygon class="st2" points="23.9,426.5 3.2,426.5 3.2,430 23.9,430 		"/>
		<polygon class="st2" points="300.4,311 310.6,310.4 310.8,313.8 300.6,314.3 		"/>
		<polygon class="st2" points="319.9,309.4 330,307.6 330.5,311 320.4,312.7 		"/>
		<polygon class="st2" points="338.4,306.1 348.5,304.4 349.1,307.7 339,309.5 		"/>
		<polygon class="st2" points="357,302.9 367.1,301.1 367.6,304.5 357.6,306.2 		"/>
		<polygon class="st2" points="394.1,296.4 404.2,294.7 404.7,298 394.7,299.8 		"/>
		<polygon class="st2" points="375.5,299.7 385.6,297.9 386.2,301.3 376.1,303 		"/>
		<polygon class="st2" points="413.3,293.8 423.5,293.1 423.8,296.4 413.6,297.1 		"/>
		<polygon class="st2" points="300.4,368.5 310.6,368 310.8,371.3 300.6,371.9 		"/>
		<polygon class="st2" points="319.9,366.9 330,365.2 330.5,368.5 320.4,370.3 		"/>
		<polygon class="st2" points="338.4,363.7 348.5,361.9 349.1,365.3 339,367 		"/>
		<polygon class="st2" points="357,360.5 367.1,358.7 367.6,362 357.6,363.8 		"/>
		<polygon class="st2" points="394.1,354 404.2,352.2 404.7,355.6 394.7,357.3 		"/>
		<polygon class="st2" points="375.5,357.2 385.6,355.5 386.2,358.8 376.1,360.6 		"/>
		<polygon class="st2" points="413.3,351.3 423.5,350.6 423.8,353.9 413.6,354.7 		"/>
		<polygon class="st2" points="300.4,426.6 310.6,426 310.8,429.4 300.6,429.9 		"/>
		<polygon class="st2" points="319.9,425 330,423.2 330.5,426.6 320.4,428.3 		"/>
		<polygon class="st2" points="338.4,421.7 348.5,420 349.1,423.3 339,425.1 		"/>
		<polygon class="st2" points="357,418.5 367.1,416.7 367.6,420.1 357.6,421.8 		"/>
		<polygon class="st2" points="394.1,412 404.2,410.3 404.7,413.6 394.7,415.4 		"/>
		<polygon class="st2" points="375.5,415.3 385.6,413.5 386.2,416.8 376.1,418.6 		"/>
		<polygon class="st2" points="413.3,409.4 423.5,408.6 423.8,412 413.6,412.7 		"/>
		<polygon class="st2" points="363,233.9 363,1.8 366.4,1.8 366.4,233.2 		"/>
		<polygon class="st2" points="357.9,233.9 357.9,1.8 361.3,1.8 361.3,233.9 		"/>
		<path class="st2" d="M300.1,234.1l66.3-13.5v12.7l-91,18.5v-0.4C286.5,251,296,243.9,300.1,234.1L300.1,234.1z"/>
		<polygon class="st2" points="361.4,489.5 361.4,721.7 358,721.7 358,490.1 		"/>
		<polygon class="st2" points="366.4,489.5 366.4,721.7 363.1,721.7 363.1,489.5 		"/>
		<path class="st2" d="M424.2,489.2L358,502.7V490l83.2-16.9C433.4,475.8,427.2,481.7,424.2,489.2L424.2,489.2z M448.4,471.6
			l0.6-0.1v0.1C448.8,471.6,448.6,471.6,448.4,471.6L448.4,471.6z"/>
	</g>
</g>
</svg>
