<?xml version="1.0" encoding="utf-8"?>
<!-- Generator: Adobe Illustrator 19.2.0, SVG Export Plug-In . SVG Version: 6.00 Build 0)  -->
<svg version="1.1" id="Livello_1" xmlns="http://www.w3.org/2000/svg" xmlns:xlink="http://www.w3.org/1999/xlink" x="0px" y="0px"
	 viewBox="0 0 960 960" style="enable-background:new 0 0 960 960;" xml:space="preserve">
<style type="text/css">
	.st0{fill-rule:evenodd;clip-rule:evenodd;fill:#CECFD1;}
	.st1{fill-rule:evenodd;clip-rule:evenodd;fill:#FFFFFF;}
</style>
<g>
	<g>
		<polygon class="st0" points="45,314.5 915,314.5 915,645.5 45,645.5 45,314.5 		"/>
		<polygon class="st1" points="45,327.6 915,327.6 915,341.7 45,341.7 45,327.6 		"/>
		<polygon class="st1" points="45,618.1 915,618.1 915,632.2 45,632.2 45,618.1 		"/>
		<polygon class="st1" points="430.9,400.2 533.5,400.2 533.5,414.4 430.9,414.4 430.9,400.2 		"/>
		<polygon class="st1" points="575.2,400.2 677.8,400.2 677.8,414.4 575.2,414.4 575.2,400.2 		"/>
		<polygon class="st1" points="286.6,400.2 389.2,400.2 389.2,414.4 286.6,414.4 286.6,400.2 		"/>
		<polygon class="st1" points="142.3,400.2 244.9,400.2 244.9,414.4 142.3,414.4 142.3,400.2 		"/>
		<polygon class="st1" points="45,414.4 45,400.2 100.5,400.2 100.5,414.4 45,414.4 		"/>
		<polygon class="st1" points="719.6,400.2 822.2,400.2 822.2,414.4 719.6,414.4 719.6,400.2 		"/>
		<polygon class="st1" points="863.9,400.2 915,400.2 915,414.4 863.9,414.4 863.9,400.2 		"/>
		<polygon class="st1" points="430.9,472.9 533.5,472.9 533.5,487 430.9,487 430.9,472.9 		"/>
		<polygon class="st1" points="575.2,472.9 677.8,472.9 677.8,487 575.2,487 575.2,472.9 		"/>
		<polygon class="st1" points="286.6,472.9 389.2,472.9 389.2,487 286.6,487 286.6,472.9 		"/>
		<polygon class="st1" points="142.3,472.9 244.9,472.9 244.9,487 142.3,487 142.3,472.9 		"/>
		<polygon class="st1" points="45,487 45,472.9 100.5,472.9 100.5,487 45,487 		"/>
		<polygon class="st1" points="719.6,472.9 822.2,472.9 822.2,487 719.6,487 719.6,472.9 		"/>
		<polygon class="st1" points="863.9,472.9 915,472.9 915,487 863.9,487 863.9,472.9 		"/>
		<polygon class="st1" points="430.9,545.5 533.5,545.5 533.5,559.6 430.9,559.6 430.9,545.5 		"/>
		<polygon class="st1" points="575.2,545.5 677.8,545.5 677.8,559.6 575.2,559.6 575.2,545.5 		"/>
		<polygon class="st1" points="286.6,545.5 389.2,545.5 389.2,559.6 286.6,559.6 286.6,545.5 		"/>
		<polygon class="st1" points="142.3,545.5 244.9,545.5 244.9,559.6 142.3,559.6 142.3,545.5 		"/>
		<polygon class="st1" points="45,559.6 45,545.5 100.5,545.5 100.5,559.6 45,559.6 		"/>
		<polygon class="st1" points="719.6,545.5 822.2,545.5 822.2,559.6 719.6,559.6 719.6,545.5 		"/>
		<polygon class="st1" points="863.9,545.5 915,545.5 915,559.6 863.9,559.6 863.9,545.5 		"/>
	</g>
</g>
</svg>
