<?xml version="1.0" encoding="utf-8"?>
<!-- Generator: Adobe Illustrator 19.2.0, SVG Export Plug-In . SVG Version: 6.00 Build 0)  -->
<svg version="1.1" id="Livello_1" xmlns="http://www.w3.org/2000/svg" xmlns:xlink="http://www.w3.org/1999/xlink" x="0px" y="0px"
	 viewBox="0 0 960 960" style="enable-background:new 0 0 960 960;" xml:space="preserve">
<style type="text/css">
	.st0{fill-rule:evenodd;clip-rule:evenodd;fill:#CECFD1;}
	.st1{fill-rule:evenodd;clip-rule:evenodd;fill:#FFFFFF;}
</style>
<g>
	<g>
		<polygon class="st0" points="45.1,314.5 915,314.5 915,645.5 45.1,645.5 45.1,314.5 		"/>
		<polygon class="st1" points="45.1,615.2 915,615.2 915,629.7 45.1,629.7 45.1,615.2 		"/>
		<polygon class="st1" points="45.1,330.1 915,330.1 915,344.6 45.1,344.6 45.1,330.1 		"/>
		<polygon class="st1" points="45.1,460.5 915,460.5 915,475 45.1,475 45.1,460.5 		"/>
		<polygon class="st1" points="527.4,483.6 600,483.6 600,498.1 527.4,498.1 527.4,483.6 		"/>
		<polygon class="st1" points="359.9,483.6 432.5,483.6 432.5,498.1 359.9,498.1 359.9,483.6 		"/>
		<polygon class="st1" points="192.2,483.6 264.8,483.6 264.8,498.1 192.2,498.1 192.2,483.6 		"/>
		<polygon class="st1" points="45,498.1 45,483.6 97.2,483.6 97.2,498.1 45,498.1 		"/>
		<polygon class="st1" points="695.1,483.6 767.7,483.6 767.7,498.1 695.1,498.1 695.1,483.6 		"/>
		<polygon class="st1" points="915,483.6 915,498.1 862.6,498.1 862.6,483.6 915,483.6 		"/>
	</g>
</g>
</svg>
