<?xml version="1.0" encoding="utf-8"?>
<!-- Generator: Adobe Illustrator 19.2.0, SVG Export Plug-In . SVG Version: 6.00 Build 0)  -->
<svg version="1.1" id="Livello_1" xmlns="http://www.w3.org/2000/svg" xmlns:xlink="http://www.w3.org/1999/xlink" x="0px" y="0px"
	 viewBox="0 0 960 960" style="enable-background:new 0 0 960 960;" xml:space="preserve">
<style type="text/css">
	.st0{fill-rule:evenodd;clip-rule:evenodd;fill:#CECFD1;}
	.st1{fill-rule:evenodd;clip-rule:evenodd;fill:#FFFFFF;}
	.st2{fill-rule:evenodd;clip-rule:evenodd;fill:#FFEC00;}
</style>
<g>
	<g>
		<polygon class="st0" points="790.8,120 790.8,839.7 169.2,839.7 169.2,120 790.8,120 		"/>
		<polygon class="st1" points="478.8,482.5 478.8,839.7 474,839.7 474,482.5 478.8,482.5 		"/>
		<polygon class="st1" points="478.8,120 478.8,519.5 474,519.5 474,120 478.8,120 		"/>
		<polygon class="st1" points="486.1,482.5 486.1,839.6 481.3,839.6 481.3,482.5 486.1,482.5 		"/>
		<polygon class="st1" points="486.1,120 486.1,519.4 481.3,519.4 481.3,120 486.1,120 		"/>
		<polygon class="st1" points="715.7,120 715.7,839.7 710.9,839.7 710.9,120 715.7,120 		"/>
		<polygon class="st1" points="244.5,120 244.5,839.7 249.3,839.7 249.3,120 244.5,120 		"/>
		<polygon class="st2" points="727.8,120 727.8,839.7 720.5,839.7 720.5,120 727.8,120 		"/>
		<polygon class="st2" points="232.4,120 232.4,839.7 239.7,839.7 239.7,120 232.4,120 		"/>
		<polygon class="st1" points="601,495 601,519.9 596.2,519.9 596.2,495 601,495 		"/>
		<polygon class="st1" points="601,540.7 601,565.6 596.2,565.6 596.2,540.7 601,540.7 		"/>
		<polygon class="st1" points="601,586.5 601,611.3 596.2,611.3 596.2,586.5 601,586.5 		"/>
		<polygon class="st1" points="601,632.2 601,657.1 596.2,657.1 596.2,632.2 601,632.2 		"/>
		<polygon class="st1" points="601,678 601,702.8 596.2,702.8 596.2,678 601,678 		"/>
		<polygon class="st1" points="601,769.4 601,794.3 596.2,794.3 596.2,769.4 601,769.4 		"/>
		<polygon class="st1" points="601,723.7 601,748.5 596.2,748.5 596.2,723.7 601,723.7 		"/>
		<polygon class="st1" points="601,815.1 601,840 596.2,840 596.2,815.1 601,815.1 		"/>
		<polygon class="st1" points="601,174.9 601,199.7 596.2,199.7 596.2,174.9 601,174.9 		"/>
		<polygon class="st1" points="601,129.1 601,154 596.2,154 596.2,129.1 601,129.1 		"/>
		<polygon class="st1" points="601,220.6 601,245.4 596.2,245.4 596.2,220.6 601,220.6 		"/>
		<polygon class="st1" points="601,266.3 601,291.2 596.2,291.2 596.2,266.3 601,266.3 		"/>
		<polygon class="st1" points="601,312.1 601,336.9 596.2,336.9 596.2,312.1 601,312.1 		"/>
		<polygon class="st1" points="601,357.8 601,382.7 596.2,382.7 596.2,357.8 601,357.8 		"/>
		<polygon class="st1" points="601,449.3 601,474.1 596.2,474.1 596.2,449.3 601,449.3 		"/>
		<polygon class="st1" points="601,403.5 601,428.4 596.2,428.4 596.2,403.5 601,403.5 		"/>
		<polygon class="st1" points="359,495 359,519.9 363.8,519.9 363.8,495 359,495 		"/>
		<polygon class="st1" points="359,540.7 359,565.6 363.8,565.6 363.8,540.7 359,540.7 		"/>
		<polygon class="st1" points="359,586.5 359,611.3 363.8,611.3 363.8,586.5 359,586.5 		"/>
		<polygon class="st1" points="359,632.2 359,657.1 363.8,657.1 363.8,632.2 359,632.2 		"/>
		<polygon class="st1" points="359,678 359,702.8 363.8,702.8 363.8,678 359,678 		"/>
		<polygon class="st1" points="359,769.4 359,794.3 363.8,794.3 363.8,769.4 359,769.4 		"/>
		<polygon class="st1" points="359,723.7 359,748.5 363.8,748.5 363.8,723.7 359,723.7 		"/>
		<polygon class="st1" points="359,815.1 359,840 363.8,840 363.8,815.1 359,815.1 		"/>
		<polygon class="st1" points="359,174.9 359,199.7 363.8,199.7 363.8,174.9 359,174.9 		"/>
		<polygon class="st1" points="359,129.1 359,154 363.8,154 363.8,129.1 359,129.1 		"/>
		<polygon class="st1" points="359,220.6 359,245.4 363.8,245.4 363.8,220.6 359,220.6 		"/>
		<polygon class="st1" points="359,266.3 359,291.2 363.8,291.2 363.8,266.3 359,266.3 		"/>
		<polygon class="st1" points="359,312.1 359,336.9 363.8,336.9 363.8,312.1 359,312.1 		"/>
		<polygon class="st1" points="359,357.8 359,382.7 363.8,382.7 363.8,357.8 359,357.8 		"/>
		<polygon class="st1" points="359,449.3 359,474.1 363.8,474.1 363.8,449.3 359,449.3 		"/>
		<polygon class="st1" points="359,403.5 359,428.4 363.8,428.4 363.8,403.5 359,403.5 		"/>
		<path class="st2" d="M768.3,656.3c0.6-4.1,0.8-5.5,2.3-7.9c0,0,0.9,5.5,1.7,8.7C770.6,656.8,768.3,656.4,768.3,656.3L768.3,656.3z
			 M775.5,662c-0.1,1-0.7,2.1-1.6,2.2l-5.6,0.8c0,0,0.6,10.5,5.7,11.4c3.8,0,6.9-6.7,6.9-16c0-9.2-3.1-15.7-6.6-15.7
			c-1,0-1.6,0.3-2.4,1.2c0.3,1.2,1.7,7.4,2.6,11.3C776.1,658.4,775.6,661,775.5,662L775.5,662z M744.5,656.4c-1,0.2-1.5,1.9-1.5,4
			c0,2,0.7,3.6,1.5,3.6c0.8,0,1.6-2,1.6-3.6c-0.1-1.6-0.2-1.8-0.2-1.9l2.5-9.8c1.7,3.1,2.1,6.4,2.1,12c0,9.1-2.5,15.6-6.3,15.6
			s-6.4-6.4-6.4-15.5c0-8.8,2.5-16.1,6.4-16.1c1,0,2,0.6,2.8,1.5L744.5,656.4L744.5,656.4z M762.1,654.9c-0.8-0.1-1-0.2-1.7,0.1
			l-8.3-18.4l14.3,0L762.1,654.9L762.1,654.9z M769.1,634.1l1.8,7.8c1-1,1.9-1.8,3.1-1.8c4.7,0,8.5,9.1,8.5,20.3
			c0,11.2-3.8,20.4-8.5,20.4c-3.9,0-6.7-6.6-7.7-15.5c-1.5,0.2-4,0.4-5.3,0.4c-2.3-0.5-2.9-5-2.2-8.4l-8.1-17.9l-1.4,5.3
			c2,3.8,3,8.8,3,15.7c0,11.2-3.3,20.3-7.9,20.3c-4.7,0-8.5-9.2-8.5-20.4c0-11.1,3.8-20.3,8.5-20.3c1.3,0,2.3,0.9,3.4,2l3.2-12.5
			c0.2-0.8,0.2-0.8,0.1-1.7l-0.6-3.5c0-1.8,0.5-5.5,1.9-5.5h4.5c0.7,0.4,0.9,3.2,0,3.6h-4.5c-0.5,0.7-0.4,1.8,0.3,4.9
			c0.1,0.4,0.3,1.5,0.2,1.9l-0.6,2.8l15,0l1.4-5.6l-1.4-1.3c-0.8-0.7-1.1-2-0.5-2.5c1.2,0,3.8,0,5,0c1,0,0.9,6.8,0.2,6.5
			c-0.7,0-1-1.1-1.7-1.1L769.1,634.1L769.1,634.1z M763.8,655.4l4.2-16.8l1.4,5.9c-1.5,2.4-2.3,5.8-3.1,11.4L763.8,655.4
			L763.8,655.4z"/>
		<path class="st2" d="M191.8,349.1c-0.6,4.1-0.8,5.5-2.3,7.9c0,0-0.9-5.5-1.7-8.7C189.5,348.6,191.8,349.1,191.8,349.1L191.8,349.1
			z M184.5,343.5c0.1-1,0.7-2.1,1.6-2.2l5.6-0.8c0,0-0.6-10.5-5.7-11.4c-3.8,0-6.9,6.7-6.9,16c0,9.2,3.1,15.7,6.6,15.7
			c1,0,1.6-0.3,2.4-1.2c-0.3-1.2-1.7-7.4-2.6-11.3C184,347.1,184.5,344.5,184.5,343.5L184.5,343.5z M215.5,349c1-0.2,1.5-1.9,1.5-4
			c0-2-0.7-3.6-1.5-3.6s-1.6,2-1.6,3.6c0.1,1.6,0.1,1.8,0.1,1.9l-2.5,9.8c-1.7-3.1-2.1-6.4-2.1-12c0-9.1,2.5-15.6,6.3-15.6
			c3.8,0,6.4,6.4,6.4,15.5c0,8.8-2.5,16.1-6.4,16.1c-1,0-2-0.6-2.8-1.5L215.5,349L215.5,349z M198,350.5c0.8,0.1,1,0.2,1.7-0.1
			l8.3,18.4l-14.3,0L198,350.5L198,350.5z M190.9,371.3l-1.8-7.8c-1,1-1.9,1.8-3.1,1.8c-4.7,0-8.5-9.1-8.5-20.3
			c0-11.2,3.8-20.4,8.5-20.4c3.9,0,6.7,6.6,7.7,15.5c1.5-0.2,4-0.4,5.3-0.4c2.3,0.5,2.9,5,2.2,8.4l8.1,17.9l1.4-5.3
			c-2-3.8-3-8.8-3-15.7c0-11.2,3.3-20.3,7.9-20.3c4.7,0,8.5,9.2,8.5,20.4c0,11.1-3.8,20.3-8.5,20.3c-1.3,0-2.4-0.9-3.4-2l-3.2,12.5
			c-0.2,0.8-0.2,0.8-0.1,1.7l0.6,3.5c0,1.8-0.5,5.5-1.9,5.5h-4.5c-0.7-0.4-0.9-3.2,0-3.6h4.5c0.5-0.7,0.4-1.8-0.3-4.9
			c-0.1-0.4-0.3-1.5-0.2-1.9l0.6-2.8l-15,0l-1.4,5.6l1.4,1.3c0.8,0.7,1.1,2,0.5,2.5c-1.2,0-3.8,0-5,0c-1,0-0.9-6.8-0.2-6.5
			c0.7,0,1,1.1,1.7,1.1L190.9,371.3L190.9,371.3z M196.3,350.1l-4.2,16.8l-1.4-5.9c1.5-2.4,2.3-5.8,3.1-11.4L196.3,350.1
			L196.3,350.1z"/>
	</g>
</g>
</svg>
