<?xml version="1.0" encoding="utf-8"?>
<!-- Generator: Adobe Illustrator 19.2.0, SVG Export Plug-In . SVG Version: 6.00 Build 0)  -->
<svg version="1.1" id="Livello_1" xmlns="http://www.w3.org/2000/svg" xmlns:xlink="http://www.w3.org/1999/xlink" x="0px" y="0px"
	 viewBox="0 0 873.6 293.3" style="enable-background:new 0 0 873.6 293.3;" xml:space="preserve">
<style type="text/css">
	.st0{fill:#B9B9B9;}
	.st1{fill:#FFFFFF;}
</style>
<g>
	<g>
		<polygon class="st0" points="284.5,1.1 576.9,1.1 650.7,129.7 210.8,129.7 		"/>
		<polygon class="st0" points="0.6,292.9 870.6,292.9 870.6,125 0.6,125 		"/>
		<polygon class="st1" points="0.6,139.2 213.1,139.2 213.1,134.4 0.6,134.4 		"/>
		<polygon class="st1" points="650.1,139.2 870.4,139.2 870.4,134.4 650.1,134.4 		"/>
		<polygon class="st1" points="0.6,283.7 870.6,283.7 870.6,278.9 0.6,278.9 		"/>
		<polygon class="st1" points="32.1,210.3 52.4,210.3 52.4,205.5 32.1,205.5 		"/>
		<polygon class="st1" points="255.2,210.3 275.4,210.3 275.4,205.5 255.2,205.5 		"/>
		<polygon class="st1" points="664.3,210.3 684.5,210.3 684.5,205.5 664.3,205.5 		"/>
		<polygon class="st1" points="69.4,210.3 89.6,210.3 89.6,205.5 69.4,205.5 		"/>
		<polygon class="st1" points="478.5,210.3 498.7,210.3 498.7,205.5 478.5,205.5 		"/>
		<polygon class="st1" points="292.4,210.3 312.6,210.3 312.6,205.5 292.4,205.5 		"/>
		<polygon class="st1" points="701.5,210.3 721.7,210.3 721.7,205.5 701.5,205.5 		"/>
		<polygon class="st1" points="106.6,210.3 126.8,210.3 126.8,205.5 106.6,205.5 		"/>
		<polygon class="st1" points="515.7,210.3 535.9,210.3 535.9,205.5 515.7,205.5 		"/>
		<polygon class="st1" points="329.6,210.3 349.8,210.3 349.8,205.5 329.6,205.5 		"/>
		<polygon class="st1" points="738.7,210.3 759,210.3 759,205.5 738.7,205.5 		"/>
		<polygon class="st1" points="143.8,210.3 164,210.3 164,205.5 143.8,205.5 		"/>
		<polygon class="st1" points="552.9,210.3 573.1,210.3 573.1,205.5 552.9,205.5 		"/>
		<polygon class="st1" points="366.8,210.3 387.1,210.3 387.1,205.5 366.8,205.5 		"/>
		<polygon class="st1" points="775.9,210.3 796.2,210.3 796.2,205.5 775.9,205.5 		"/>
		<polygon class="st1" points="181,210.3 201.2,210.3 201.2,205.5 181,205.5 		"/>
		<polygon class="st1" points="590.1,210.3 610.3,210.3 610.3,205.5 590.1,205.5 		"/>
		<polygon class="st1" points="404,210.3 424.3,210.3 424.3,205.5 404,205.5 		"/>
		<polygon class="st1" points="813.2,210.3 833.4,210.3 833.4,205.5 813.2,205.5 		"/>
		<polygon class="st1" points="218.2,210.3 238.4,210.3 238.4,205.5 218.2,205.5 		"/>
		<polygon class="st1" points="627.3,210.3 647.6,210.3 647.6,205.5 627.3,205.5 		"/>
		<polygon class="st1" points="441.3,210.3 461.5,210.3 461.5,205.5 441.3,205.5 		"/>
		<polygon class="st1" points="309.8,139.6 321.3,139.6 321.3,134.8 309.8,134.8 		"/>
		<polygon class="st1" points="542.4,139.6 553.9,139.6 553.9,134.8 542.4,134.8 		"/>
		<polygon class="st1" points="436.8,139.6 448.3,139.6 448.3,134.8 436.8,134.8 		"/>
		<polygon class="st1" points="331,139.6 342.5,139.6 342.5,134.8 331,134.8 		"/>
		<polygon class="st1" points="563.5,139.6 575,139.6 575,134.8 563.5,134.8 		"/>
		<polygon class="st1" points="225.4,139.6 236.9,139.6 236.9,134.8 225.4,134.8 		"/>
		<polygon class="st1" points="457.9,139.6 469.4,139.6 469.4,134.8 457.9,134.8 		"/>
		<polygon class="st1" points="352.2,139.6 363.6,139.6 363.6,134.8 352.2,134.8 		"/>
		<polygon class="st1" points="584.7,139.6 596.2,139.6 596.2,134.8 584.7,134.8 		"/>
		<polygon class="st1" points="246.5,139.6 258,139.6 258,134.8 246.5,134.8 		"/>
		<polygon class="st1" points="479.1,139.6 490.6,139.6 490.6,134.8 479.1,134.8 		"/>
		<polygon class="st1" points="373.3,139.6 384.8,139.6 384.8,134.8 373.3,134.8 		"/>
		<polygon class="st1" points="605.8,139.6 617.3,139.6 617.3,134.8 605.8,134.8 		"/>
		<polygon class="st1" points="267.7,139.6 279.2,139.6 279.2,134.8 267.7,134.8 		"/>
		<polygon class="st1" points="500.2,139.6 511.7,139.6 511.7,134.8 500.2,134.8 		"/>
		<polygon class="st1" points="394.5,139.6 406,139.6 406,134.8 394.5,134.8 		"/>
		<polygon class="st1" points="627,139.6 638.5,139.6 638.5,134.8 627,134.8 		"/>
		<polygon class="st1" points="288.8,139.6 300.3,139.6 300.3,134.8 288.8,134.8 		"/>
		<polygon class="st1" points="521.4,139.6 532.9,139.6 532.9,134.8 521.4,134.8 		"/>
		<polygon class="st1" points="415.6,139.6 427.1,139.6 427.1,134.8 415.6,134.8 		"/>
		<polygon class="st1" points="850.4,210.3 870.6,210.3 870.6,205.5 850.4,205.5 		"/>
		<polygon class="st1" points="0.6,205.5 0.6,210.3 15.1,210.3 15.1,205.5 		"/>
	</g>
</g>
</svg>
