<?xml version="1.0" encoding="utf-8"?>
<!-- Generator: Adobe Illustrator 19.2.0, SVG Export Plug-In . SVG Version: 6.00 Build 0)  -->
<svg version="1.1" id="Livello_1" xmlns="http://www.w3.org/2000/svg" xmlns:xlink="http://www.w3.org/1999/xlink" x="0px" y="0px"
	 viewBox="0 0 960 960" style="enable-background:new 0 0 960 960;" xml:space="preserve">
<style type="text/css">
	.st0{fill-rule:evenodd;clip-rule:evenodd;fill:#E2E3E4;stroke:#E2E3E4;stroke-width:1.065;stroke-miterlimit:2.6131;}
	.st1{fill-rule:evenodd;clip-rule:evenodd;fill:#CECFD1;}
	.st2{fill-rule:evenodd;clip-rule:evenodd;fill:#FFFFFF;}
	.st3{fill-rule:evenodd;clip-rule:evenodd;fill:#1A171B;stroke:#1A171B;stroke-width:1.065;stroke-miterlimit:2.6131;}
</style>
<g>
	<g>
		<path class="st0" d="M192.5,356.6l0.2-0.2l58.1,0.2v483.2h458.8V356.4h57.8V120H192.5V356.6L192.5,356.6z M192.8,356.6h58.1H192.8
			L192.8,356.6z"/>
		<path class="st1" d="M192.5,120v154.6h93.3c28.4,0,46.5,20.5,46.5,47.5V840h4.9h290.7V322.4c0-27.2,17.9-47.7,46.5-47.7h93.1
			l0-154.6L192.5,120L192.5,120z"/>
		<path class="st2" d="M506.2,365l4.5-1.3c0.3,4.5,0.8,7.8,1.7,9.9c0.8,2.1,2,3.2,3.4,3.2c1.5,0,2.6-0.9,3.4-2.8
			c0.8-1.9,1.1-4.1,1.1-6.6c0-1.6-0.2-3-0.5-4.1c-0.3-1.1-0.9-2.1-1.7-3c-0.5-0.6-1.8-1.6-3.7-3c-2.5-1.8-4.2-4.1-5.2-6.8
			c-1.4-3.8-2.1-8.3-2.1-13.7c0-3.5,0.3-6.7,1-9.8c0.7-3,1.6-5.3,2.9-6.9c1.3-1.6,2.8-2.4,4.5-2.4c2.9,0,5.1,1.9,6.5,5.6
			c1.5,3.8,2.2,8.8,2.3,15.1l-4.6,0.6c-0.2-3.5-0.6-6-1.3-7.6c-0.7-1.5-1.6-2.3-2.9-2.3c-1.3,0-2.4,0.8-3.2,2.5
			c-0.5,1.1-0.7,2.5-0.7,4.2c0,1.6,0.2,3,0.7,4.2c0.6,1.5,2,3,4.3,4.6c2.3,1.6,3.9,3.2,5,4.9c1.1,1.7,1.9,4,2.5,7
			c0.6,2.9,0.9,6.6,0.9,10.9c0,3.9-0.4,7.6-1.1,11c-0.7,3.4-1.8,6-3.1,7.6c-1.3,1.7-3,2.5-5,2.5c-2.9,0-5.1-2-6.7-6
			C507.4,378.5,506.5,372.7,506.2,365L506.2,365z"/>
		<polygon class="st2" points="533.9,387.3 533.9,330.5 527.1,330.5 527.1,318.9 545.4,318.9 545.4,330.5 538.6,330.5 538.6,387.3 
			533.9,387.3 		"/>
		<path class="st2" d="M546.9,353.5c0-7,0.3-12.8,1-17.5c0.5-3.5,1.2-6.6,2.1-9.4c0.9-2.8,1.9-4.8,3-6.1c1.4-1.8,3.1-2.7,5-2.7
			c3.4,0,6.1,3.1,8.1,9.4c2,6.2,3.1,14.9,3.1,26c0,11-1,19.7-3,25.9c-2,6.2-4.7,9.3-8.1,9.3c-3.4,0-6.1-3.1-8.2-9.3
			C547.9,372.9,546.9,364.4,546.9,353.5L546.9,353.5z M551.7,353.1c0,7.7,0.6,13.6,1.8,17.6c1.2,4,2.7,6,4.6,6c1.8,0,3.4-2,4.6-5.9
			c1.2-4,1.8-9.9,1.8-17.8c0-7.8-0.6-13.7-1.7-17.5c-1.2-3.8-2.7-5.8-4.6-5.8c-1.9,0-3.5,2-4.6,5.9
			C552.3,339.3,551.7,345.2,551.7,353.1L551.7,353.1z"/>
		<path class="st2" d="M572.8,387.3v-68.3h7.4c2.8,0,4.7,0.3,5.5,1c1.3,1,2.4,3.2,3.3,6.7c0.9,3.4,1.3,7.9,1.3,13.3
			c0,4.2-0.3,7.7-0.8,10.6c-0.5,2.9-1.2,5.1-2,6.7c-0.8,1.6-1.6,2.7-2.4,3.2c-1.1,0.7-2.7,1-4.8,1h-3v25.8H572.8L572.8,387.3z
			 M577.5,330.5v19.4h2.5c1.8,0,3.1-0.4,3.7-1.1c0.6-0.7,1.1-1.8,1.4-3.4c0.3-1.5,0.5-3.3,0.5-5.3c0-2.5-0.2-4.5-0.7-6.2
			c-0.5-1.6-1.1-2.6-1.9-3c-0.6-0.3-1.7-0.5-3.3-0.5H577.5L577.5,330.5z"/>
		<polygon class="st2" points="337.3,839.8 344.9,839.8 344.9,317.2 337.3,317.2 337.3,839.8 		"/>
		<polygon class="st2" points="623.4,839.8 615.8,839.8 615.8,317.2 623.4,317.2 623.4,839.8 		"/>
		<polygon class="st2" points="670.2,269.3 671.4,261.6 767.4,261.6 767.4,269.3 670.2,269.3 		"/>
		<polygon class="st2" points="480,261.8 681.4,261.8 652.3,269 628.8,287.9 480,287.9 480,261.8 		"/>
		<path class="st3" d="M644.9,314.7h43.4c1.1,0,2-0.9,2-1.9v-1.4c0-1.1-0.9-1.9-2-1.9h-43.4c-1.1,0-2,0.9-2,1.9v1.4
			C642.9,313.8,643.8,314.7,644.9,314.7L644.9,314.7z"/>
		<path class="st3" d="M666.7,300.9c-1.6,0-2.9,1.3-2.9,2.9c0,1.6,1.3,2.9,2.9,2.9c1.6,0,2.9-1.3,2.9-2.9
			C669.6,302.2,668.3,300.9,666.7,300.9L666.7,300.9z"/>
		<polygon class="st2" points="290.5,269.3 289.3,261.6 192.5,261.6 192.5,269.3 290.5,269.3 		"/>
		<path class="st2" d="M285.8,269l2.1-7.5c30.5,0,56.8,25.1,56.8,55.9H337C337,290.9,315.4,269.3,285.8,269L285.8,269z"/>
		<path class="st2" d="M672.1,269l-0.5-7.5c-30.5,0-55.7,24.7-55.7,55.4l7.7,0.5C623.7,290.9,644.6,270.2,672.1,269L672.1,269z"/>
		<polygon class="st2" points="470.2,262 480.5,262 480.5,840 470.2,840 470.2,262 		"/>
		<path class="st2" d="M365.6,365l4.5-1.3c0.3,4.5,0.8,7.8,1.7,9.9c0.8,2.1,2,3.2,3.4,3.2c1.5,0,2.6-0.9,3.4-2.8
			c0.8-1.9,1.1-4.1,1.1-6.6c0-1.6-0.2-3-0.5-4.1c-0.3-1.1-0.9-2.1-1.7-3c-0.5-0.6-1.8-1.6-3.7-3c-2.5-1.8-4.2-4.1-5.2-6.8
			c-1.4-3.8-2.1-8.3-2.1-13.7c0-3.5,0.3-6.7,1-9.8c0.7-3,1.6-5.3,2.9-6.9c1.3-1.6,2.8-2.4,4.5-2.4c2.9,0,5.1,1.9,6.5,5.6
			c1.5,3.8,2.2,8.8,2.3,15.1l-4.6,0.6c-0.2-3.5-0.6-6-1.3-7.6c-0.7-1.5-1.6-2.3-2.9-2.3c-1.4,0-2.4,0.8-3.2,2.5
			c-0.5,1.1-0.7,2.5-0.7,4.2c0,1.6,0.2,3,0.7,4.2c0.6,1.5,2,3,4.3,4.6c2.3,1.6,3.9,3.2,5,4.9c1.1,1.7,1.9,4,2.5,7
			c0.6,2.9,0.9,6.6,0.9,10.9c0,3.9-0.4,7.6-1.1,11c-0.7,3.4-1.8,6-3.1,7.6c-1.3,1.7-3,2.5-5,2.5c-2.9,0-5.1-2-6.7-6
			C366.8,378.5,365.9,372.7,365.6,365L365.6,365z"/>
		<polygon class="st2" points="393.3,387.3 393.3,330.5 386.5,330.5 386.5,318.9 404.8,318.9 404.8,330.5 398,330.5 398,387.3 
			393.3,387.3 		"/>
		<path class="st2" d="M406.3,353.5c0-7,0.3-12.8,1-17.5c0.5-3.5,1.2-6.6,2.1-9.4c0.9-2.8,1.9-4.8,3-6.1c1.4-1.8,3.1-2.7,5-2.7
			c3.4,0,6.1,3.1,8.1,9.4c2,6.2,3.1,14.9,3.1,26c0,11-1,19.7-3,25.9c-2,6.2-4.7,9.3-8.1,9.3c-3.4,0-6.1-3.1-8.2-9.3
			C407.3,372.9,406.3,364.4,406.3,353.5L406.3,353.5z M411.1,353.1c0,7.7,0.6,13.6,1.8,17.6c1.2,4,2.7,6,4.6,6c1.8,0,3.4-2,4.6-5.9
			c1.2-4,1.8-9.9,1.8-17.8c0-7.8-0.6-13.7-1.7-17.5c-1.2-3.8-2.7-5.8-4.6-5.8c-1.9,0-3.5,2-4.6,5.9
			C411.7,339.3,411.1,345.2,411.1,353.1L411.1,353.1z"/>
		<path class="st2" d="M432.2,387.3v-68.3h7.4c2.8,0,4.7,0.3,5.5,1c1.3,1,2.4,3.2,3.3,6.7c0.9,3.4,1.3,7.9,1.3,13.3
			c0,4.2-0.3,7.7-0.8,10.6c-0.5,2.9-1.2,5.1-2,6.7c-0.8,1.6-1.6,2.7-2.4,3.2c-1.1,0.7-2.7,1-4.8,1h-3v25.8H432.2L432.2,387.3z
			 M436.9,330.5v19.4h2.5c1.8,0,3.1-0.4,3.7-1.1c0.6-0.7,1.1-1.8,1.5-3.4c0.3-1.5,0.5-3.3,0.5-5.3c0-2.5-0.2-4.5-0.7-6.2
			c-0.5-1.6-1.1-2.6-1.9-3c-0.6-0.3-1.7-0.5-3.3-0.5H436.9L436.9,330.5z"/>
		<polygon class="st2" points="470.7,261.8 268.9,261.5 308.6,269 331.3,287.9 470.7,287.9 470.7,261.8 		"/>
		<path class="st3" d="M305.8,314.7h-43.4c-1.1,0-2-0.9-2-1.9v-1.4c0-1.1,0.9-1.9,2-1.9h43.4c1.1,0,2,0.9,2,1.9v1.4
			C307.8,313.8,306.9,314.7,305.8,314.7L305.8,314.7z"/>
		<path class="st3" d="M284,300.9c1.6,0,2.9,1.3,2.9,2.9c0,1.6-1.3,2.9-2.9,2.9c-1.6,0-2.9-1.3-2.9-2.9
			C281.1,302.2,282.4,300.9,284,300.9L284,300.9z"/>
	</g>
</g>
</svg>
