<?xml version="1.0" encoding="utf-8"?>
<!-- Generator: Adobe Illustrator 19.2.0, SVG Export Plug-In . SVG Version: 6.00 Build 0)  -->
<svg version="1.1" id="Livello_1" xmlns="http://www.w3.org/2000/svg" xmlns:xlink="http://www.w3.org/1999/xlink" x="0px" y="0px"
	 viewBox="0 0 701.5 724.4" style="enable-background:new 0 0 701.5 724.4;" xml:space="preserve">
<style type="text/css">
	.st0{fill:#DCDCDC;stroke:#E2E3E4;stroke-width:1.0654;stroke-miterlimit:2.6131;}
	.st1{fill:#B9B9B9;}
	.st2{fill:#FFFFFF;}
	.st3{fill:#1A171B;stroke:#1A171B;stroke-width:1.0654;stroke-miterlimit:2.6131;}
</style>
<g>
	<g>
		<path class="st0" d="M123.7,238.1l0.2-0.2l58.2,0.2v483.3H642V237.8h58V1.4H123.7V238.1L123.7,238.1z M124,238.1h58.2H124
			L124,238.1z"/>
		<path class="st1" d="M123.7,1.4v154.4h93.6c28.4,0,46.6,20.5,46.6,47.5v518h4.9h291.4V203.6c0-27.3,17.9-47.8,46.6-47.8h93.4V1.4
			H123.7L123.7,1.4z"/>
		<path class="st2" d="M222,150.2l-1.2-7.2c30.5,0,55.4,24.9,55.4,55.7l-7.5-0.2c0-26.6-21.9-47.7-48.2-47.7L222,150.2L222,150.2z
			 M222,150.7l-1.2-7.7h-97.1v7.7H222L222,150.7z M268.9,721.4h7.7V198.7h-7.7V721.4L268.9,721.4z"/>
		<polygon class="st2" points="555.1,721.4 547.5,721.4 547.5,198.7 555.1,198.7 		"/>
		<polygon class="st2" points="602.4,150.7 603.1,143 700.3,143 700.3,150.7 		"/>
		<path class="st2" d="M604.8,150.2l-1.4-7.2c-30.5,0-55.7,24.7-55.7,55.4l7.2,0.5C555.6,172.1,578,151.6,604.8,150.2L604.8,150.2z"
			/>
		<polygon class="st2" points="407,180.3 417.2,180.3 417.2,499.9 407,499.9 		"/>
		<polygon class="st2" points="407,522.2 417.2,522.2 417.2,553.2 407,553.2 		"/>
		<polygon class="st2" points="407,629.2 417.2,629.2 417.2,660.1 407,660.1 		"/>
		<polygon class="st2" points="407,575.8 417.2,575.8 417.2,606.8 407,606.8 		"/>
		<polygon class="st2" points="407,682.7 417.2,682.7 417.2,713.7 407,713.7 		"/>
		<polygon class="st2" points="443,143.3 463.3,143.3 453.1,176.6 		"/>
		<polygon class="st2" points="505.9,143.3 526.2,143.3 516,176.6 		"/>
		<polygon class="st2" points="537.4,143.3 557.6,143.3 547.5,176.6 		"/>
		<polygon class="st2" points="411.6,143.3 431.8,143.3 421.7,176.6 		"/>
		<polygon class="st2" points="474.5,143.3 494.7,143.3 484.6,176.6 		"/>
		<polygon class="st2" points="451,285.6 513.2,285.6 482.2,423 		"/>
		<polygon class="st1" points="499,313.8 482.2,387.9 465.4,313.8 		"/>
		<path class="st3" d="M576.4,203.8h43.5c1.1,0,2-0.9,2-1.9v-1.5c0-1.1-0.9-1.9-2-1.9h-43.5c-1.1,0-2,0.9-2,1.9v1.4
			C574.3,203,575.2,203.8,576.4,203.8L576.4,203.8z"/>
		<path class="st3" d="M598.2,190.1c-1.6,0-2.9,1.3-2.9,2.9s1.3,2.9,2.9,2.9c1.6,0,2.9-1.3,2.9-2.9
			C601.1,191.4,599.8,190.1,598.2,190.1L598.2,190.1z"/>
	</g>
</g>
</svg>
