<?xml version="1.0" encoding="utf-8"?>
<!-- Generator: Adobe Illustrator 19.2.0, SVG Export Plug-In . SVG Version: 6.00 Build 0)  -->
<svg version="1.1" id="Livello_1" xmlns="http://www.w3.org/2000/svg" xmlns:xlink="http://www.w3.org/1999/xlink" x="0px" y="0px"
	 viewBox="0 0 960 960" style="enable-background:new 0 0 960 960;" xml:space="preserve">
<style type="text/css">
	.st0{fill-rule:evenodd;clip-rule:evenodd;fill:#E2E3E4;stroke:#E2E3E4;stroke-width:1.065;stroke-miterlimit:2.6131;}
	.st1{fill-rule:evenodd;clip-rule:evenodd;fill:#CECFD1;}
	.st2{fill-rule:evenodd;clip-rule:evenodd;fill:#FFFFFF;}
	.st3{fill-rule:evenodd;clip-rule:evenodd;fill:#1A171B;stroke:#1A171B;stroke-width:1.065;stroke-miterlimit:2.6131;}
	.st4{fill-rule:evenodd;clip-rule:evenodd;fill:#1A171B;}
</style>
<g>
	<g>
		<path class="st0" d="M192.5,356.6l0.2-0.2l58.1,0.2v483.2h458.8V356.4h57.8V120H192.5V356.6L192.5,356.6z M192.7,356.6h58.1H192.7
			L192.7,356.6z"/>
		<path class="st1" d="M622.8,120.2V120H192.5v154.6h93.3c28.4,0,46.5,20.5,46.5,47.5V840h4.9h290.7V322.4
			c0-27.2,17.9-47.7,46.5-47.7h93.2V120.2H622.8L622.8,120.2z"/>
		<path class="st2" d="M498.8,367.7l5.5-1.6c0.3,5.5,1,9.6,2,12.2c1,2.6,2.4,3.9,4.1,3.9c1.8,0,3.2-1.2,4.1-3.5
			c0.9-2.3,1.4-5,1.4-8.1c0-2-0.2-3.7-0.6-5.1c-0.4-1.4-1.1-2.6-2-3.6c-0.7-0.7-2.2-1.9-4.6-3.7c-3.1-2.2-5.2-5-6.4-8.3
			c-1.7-4.6-2.6-10.2-2.6-16.9c0-4.3,0.4-8.2,1.2-12c0.8-3.7,2-6.5,3.5-8.5c1.5-1.9,3.4-2.9,5.5-2.9c3.5,0,6.2,2.3,8,6.9
			c1.8,4.6,2.7,10.8,2.8,18.5l-5.7,0.7c-0.2-4.3-0.8-7.4-1.6-9.3c-0.8-1.9-2-2.8-3.6-2.8c-1.7,0-3,1-3.9,3c-0.6,1.3-0.9,3-0.9,5.2
			c0,2,0.3,3.7,0.8,5.1c0.7,1.8,2.5,3.7,5.2,5.6c2.8,2,4.8,4,6.1,6c1.3,2.1,2.4,4.9,3.1,8.5c0.7,3.6,1.1,8.1,1.1,13.3
			c0,4.8-0.4,9.3-1.3,13.5c-0.9,4.2-2.2,7.3-3.8,9.3c-1.6,2-3.7,3.1-6.1,3.1c-3.6,0-6.3-2.4-8.2-7.3
			C500.3,384.2,499.2,377.1,498.8,367.7L498.8,367.7z"/>
		<polygon class="st2" points="532.9,395 532.9,325.4 524.5,325.4 524.5,311.2 546.9,311.2 546.9,325.4 538.6,325.4 538.6,395 
			532.9,395 		"/>
		<path class="st2" d="M548.7,353.6c0-8.5,0.4-15.7,1.3-21.5c0.6-4.2,1.5-8.1,2.6-11.5c1.1-3.4,2.3-5.9,3.6-7.5
			c1.8-2.2,3.8-3.3,6.1-3.3c4.2,0,7.5,3.8,10,11.5c2.5,7.6,3.7,18.3,3.7,31.9c0,13.5-1.2,24.1-3.7,31.8c-2.5,7.6-5.8,11.4-9.9,11.4
			c-4.2,0-7.5-3.8-10-11.4C550,377.4,548.7,366.9,548.7,353.6L548.7,353.6z M554.6,353c0,9.5,0.7,16.7,2.2,21.6
			c1.5,4.9,3.3,7.3,5.6,7.3c2.3,0,4.1-2.4,5.6-7.3c1.4-4.9,2.2-12.1,2.2-21.8c0-9.6-0.7-16.8-2.1-21.5c-1.4-4.7-3.3-7.1-5.6-7.1
			c-2.3,0-4.2,2.4-5.7,7.2C555.3,336.2,554.6,343.4,554.6,353L554.6,353z"/>
		<path class="st2" d="M580.5,395v-83.8h9.1c3.5,0,5.7,0.4,6.8,1.3c1.6,1.2,3,4,4.1,8.2c1.1,4.2,1.6,9.7,1.6,16.3
			c0,5.1-0.3,9.5-0.9,13c-0.6,3.5-1.4,6.3-2.4,8.3c-1,2-2,3.3-2.9,4c-1.4,0.8-3.3,1.2-5.9,1.2h-3.7V395H580.5L580.5,395z
			 M586.2,325.4v23.8h3.1c2.2,0,3.7-0.4,4.5-1.3c0.8-0.9,1.3-2.2,1.8-4.1c0.4-1.9,0.6-4,0.6-6.5c0-3-0.3-5.6-0.9-7.5
			c-0.6-2-1.4-3.2-2.3-3.7c-0.7-0.4-2.1-0.6-4.1-0.6H586.2L586.2,325.4z"/>
		<polygon class="st2" points="337.2,839.8 344.9,839.8 344.9,317.2 337.2,317.2 337.2,839.8 		"/>
		<polygon class="st2" points="623.4,839.8 615.7,839.8 615.7,317.2 623.4,317.2 623.4,839.8 		"/>
		<polygon class="st2" points="670.2,269.3 671.3,261.6 767.4,261.6 767.4,269.3 670.2,269.3 		"/>
		<polygon class="st2" points="479.9,261.8 681.4,261.8 652.3,269 628.7,287.9 479.9,287.9 479.9,261.8 		"/>
		<path class="st3" d="M644.8,314.7h43.4c1.1,0,2-0.9,2-1.9v-1.4c0-1.1-0.9-1.9-2-1.9h-43.4c-1.1,0-2,0.9-2,1.9v1.4
			C642.8,313.8,643.7,314.7,644.8,314.7L644.8,314.7z"/>
		<path class="st3" d="M666.7,300.9c-1.6,0-2.9,1.3-2.9,2.9c0,1.6,1.3,2.9,2.9,2.9c1.6,0,2.9-1.3,2.9-2.9
			C669.6,302.2,668.3,300.9,666.7,300.9L666.7,300.9z"/>
		<polygon class="st2" points="290.4,269.3 289.2,261.6 192.5,261.6 192.5,269.3 290.4,269.3 		"/>
		<path class="st2" d="M285.7,269l2.1-7.4c30.5,0,56.8,25.1,56.8,55.9H337C337,290.9,315.3,269.3,285.7,269L285.7,269z"/>
		<path class="st2" d="M672,269l-0.5-7.4c-30.5,0-55.7,24.7-55.7,55.4l7.7,0.5C623.6,290.9,644.6,270.2,672,269L672,269z"/>
		<path class="st4" d="M625.6,409c2.2,0,4,1.8,4,4c0,2.2-1.8,4-4,4c-2.2,0-4-1.8-4-4C621.6,410.8,623.4,409,625.6,409L625.6,409z"/>
		<path class="st4" d="M625.6,410.8c1.2,0,2.2,1,2.2,2.2c0,1.2-1,2.2-2.2,2.2c-1.2,0-2.2-1-2.2-2.2
			C623.4,411.8,624.4,410.8,625.6,410.8L625.6,410.8z"/>
		<path class="st4" d="M625.6,374.3c2.2,0,4,1.8,4,4c0,2.2-1.8,4-4,4c-2.2,0-4-1.8-4-4C621.6,376.1,623.4,374.3,625.6,374.3
			L625.6,374.3z"/>
		<path class="st4" d="M625.6,376.1c1.2,0,2.2,1,2.2,2.2c0,1.2-1,2.2-2.2,2.2c-1.2,0-2.2-1-2.2-2.2
			C623.4,377.1,624.4,376.1,625.6,376.1L625.6,376.1z"/>
		<path class="st4" d="M625.6,339.2c2.2,0,4,1.8,4,4c0,2.2-1.8,4-4,4c-2.2,0-4-1.8-4-4C621.6,341,623.4,339.2,625.6,339.2
			L625.6,339.2z"/>
		<path class="st4" d="M625.6,341c1.2,0,2.2,1,2.2,2.2c0,1.2-1,2.2-2.2,2.2c-1.2,0-2.2-1-2.2-2.2C623.4,342,624.4,341,625.6,341
			L625.6,341z"/>
		<path class="st4" d="M625.6,443.7c2.2,0,4,1.8,4,4c0,2.2-1.8,4-4,4c-2.2,0-4-1.8-4-4C621.6,445.5,623.4,443.7,625.6,443.7
			L625.6,443.7z"/>
		<path class="st4" d="M625.6,445.4c1.2,0,2.2,1,2.2,2.2c0,1.2-1,2.2-2.2,2.2c-1.2,0-2.2-1-2.2-2.2
			C623.4,446.4,624.4,445.4,625.6,445.4L625.6,445.4z"/>
		<path class="st4" d="M625.6,468.6c2.2,0,4,1.8,4,4c0,2.2-1.8,4-4,4c-2.2,0-4-1.8-4-4C621.6,470.4,623.4,468.6,625.6,468.6
			L625.6,468.6z"/>
		<path class="st4" d="M625.6,470.3c1.2,0,2.2,1,2.2,2.2c0,1.2-1,2.2-2.2,2.2c-1.2,0-2.2-1-2.2-2.2
			C623.4,471.3,624.4,470.3,625.6,470.3L625.6,470.3z"/>
		<path class="st4" d="M626.8,304.6c2.2,0,4,1.8,4,4c0,2.2-1.8,4-4,4c-2.2,0-4-1.8-4-4C622.8,306.4,624.6,304.6,626.8,304.6
			L626.8,304.6z"/>
		<path class="st4" d="M626.8,306.4c1.2,0,2.2,1,2.2,2.2c0,1.2-1,2.2-2.2,2.2c-1.2,0-2.2-1-2.2-2.2
			C624.6,307.4,625.6,306.4,626.8,306.4L626.8,306.4z"/>
		<path class="st4" d="M682,268c2.2,0,4,1.8,4,4c0,2.2-1.8,4-4,4c-2.2,0-4-1.8-4-4C678.1,269.8,679.8,268,682,268L682,268z"/>
		<path class="st4" d="M682,269.8c1.2,0,2.2,1,2.2,2.2c0,1.2-1,2.2-2.2,2.2c-1.2,0-2.2-1-2.2-2.2C679.8,270.7,680.8,269.8,682,269.8
			L682,269.8z"/>
		<path class="st4" d="M720.9,268c2.2,0,4,1.8,4,4c0,2.2-1.8,4-4,4c-2.2,0-4-1.8-4-4C716.9,269.8,718.7,268,720.9,268L720.9,268z"/>
		<path class="st4" d="M720.9,269.8c1.2,0,2.2,1,2.2,2.2c0,1.2-1,2.2-2.2,2.2c-1.2,0-2.2-1-2.2-2.2
			C718.7,270.7,719.7,269.8,720.9,269.8L720.9,269.8z"/>
		<path class="st4" d="M645.6,276.5c2.2,0,4,1.8,4,4c0,2.2-1.8,4-4,4c-2.2,0-4-1.8-4-4C641.6,278.3,643.4,276.5,645.6,276.5
			L645.6,276.5z"/>
		<path class="st4" d="M645.6,278.3c1.2,0,2.2,1,2.2,2.2c0,1.2-1,2.2-2.2,2.2c-1.2,0-2.2-1-2.2-2.2
			C643.3,279.3,644.3,278.3,645.6,278.3L645.6,278.3z"/>
		<path class="st4" d="M671.5,273.1l-0.5-2.3c-24.6,0.3-46.2,21.3-46.5,47l2.3,0.4C627.4,295.1,645,273.9,671.5,273.1L671.5,273.1z"
			/>
		<polygon class="st4" points="624.5,472.8 626.8,472.8 626.8,317 624.5,317 624.5,472.8 		"/>
		<polygon class="st4" points="767.4,273.2 767.4,270.8 669.6,270.8 669.6,273.2 767.4,273.2 		"/>
		<path class="st4" d="M334.7,409c-2.2,0-4,1.8-4,4c0,2.2,1.8,4,4,4c2.2,0,4-1.8,4-4C338.7,410.8,336.9,409,334.7,409L334.7,409z"/>
		<path class="st4" d="M334.7,410.8c-1.2,0-2.2,1-2.2,2.2c0,1.2,1,2.2,2.2,2.2c1.2,0,2.2-1,2.2-2.2C337,411.8,336,410.8,334.7,410.8
			L334.7,410.8z"/>
		<path class="st4" d="M334.7,374.3c-2.2,0-4,1.8-4,4c0,2.2,1.8,4,4,4c2.2,0,4-1.8,4-4C338.7,376.1,336.9,374.3,334.7,374.3
			L334.7,374.3z"/>
		<path class="st4" d="M334.7,376.1c-1.2,0-2.2,1-2.2,2.2c0,1.2,1,2.2,2.2,2.2c1.2,0,2.2-1,2.2-2.2C337,377.1,336,376.1,334.7,376.1
			L334.7,376.1z"/>
		<path class="st4" d="M334.7,339.2c-2.2,0-4,1.8-4,4c0,2.2,1.8,4,4,4c2.2,0,4-1.8,4-4C338.7,341,336.9,339.2,334.7,339.2
			L334.7,339.2z"/>
		<path class="st4" d="M334.7,341c-1.2,0-2.2,1-2.2,2.2c0,1.2,1,2.2,2.2,2.2c1.2,0,2.2-1,2.2-2.2C337,342,336,341,334.7,341
			L334.7,341z"/>
		<path class="st4" d="M334.7,443.7c-2.2,0-4,1.8-4,4c0,2.2,1.8,4,4,4c2.2,0,4-1.8,4-4C338.7,445.5,336.9,443.7,334.7,443.7
			L334.7,443.7z"/>
		<path class="st4" d="M334.7,445.4c-1.2,0-2.2,1-2.2,2.2c0,1.2,1,2.2,2.2,2.2c1.2,0,2.2-1,2.2-2.2C337,446.4,336,445.4,334.7,445.4
			L334.7,445.4z"/>
		<path class="st4" d="M334.7,468.6c-2.2,0-4,1.8-4,4c0,2.2,1.8,4,4,4c2.2,0,4-1.8,4-4C338.7,470.4,336.9,468.6,334.7,468.6
			L334.7,468.6z"/>
		<path class="st4" d="M334.7,470.3c-1.2,0-2.2,1-2.2,2.2c0,1.2,1,2.2,2.2,2.2c1.2,0,2.2-1,2.2-2.2C337,471.3,336,470.3,334.7,470.3
			L334.7,470.3z"/>
		<path class="st4" d="M333.6,304.6c-2.2,0-4,1.8-4,4c0,2.2,1.8,4,4,4c2.2,0,4-1.8,4-4C337.5,306.4,335.8,304.6,333.6,304.6
			L333.6,304.6z"/>
		<path class="st4" d="M333.6,306.4c-1.2,0-2.2,1-2.2,2.2c0,1.2,1,2.2,2.2,2.2c1.2,0,2.2-1,2.2-2.2
			C335.8,307.4,334.8,306.4,333.6,306.4L333.6,306.4z"/>
		<path class="st4" d="M278.3,268c-2.2,0-4,1.8-4,4c0,2.2,1.8,4,4,4c2.2,0,4-1.8,4-4C282.3,269.8,280.5,268,278.3,268L278.3,268z"/>
		<path class="st4" d="M278.3,269.8c-1.2,0-2.2,1-2.2,2.2c0,1.2,1,2.2,2.2,2.2c1.2,0,2.2-1,2.2-2.2
			C280.5,270.7,279.5,269.8,278.3,269.8L278.3,269.8z"/>
		<path class="st4" d="M239.5,268c-2.2,0-4,1.8-4,4c0,2.2,1.8,4,4,4c2.2,0,4-1.8,4-4C243.4,269.8,241.7,268,239.5,268L239.5,268z"/>
		<path class="st4" d="M239.5,269.8c-1.2,0-2.2,1-2.2,2.2c0,1.2,1,2.2,2.2,2.2c1.2,0,2.2-1,2.2-2.2
			C241.7,270.7,240.7,269.8,239.5,269.8L239.5,269.8z"/>
		<path class="st4" d="M314.8,276.5c-2.2,0-4,1.8-4,4c0,2.2,1.8,4,4,4c2.2,0,4-1.8,4-4C318.8,278.3,317,276.5,314.8,276.5
			L314.8,276.5z"/>
		<path class="st4" d="M314.8,278.3c-1.2,0-2.2,1-2.2,2.2c0,1.2,1,2.2,2.2,2.2c1.2,0,2.2-1,2.2-2.2C317,279.3,316,278.3,314.8,278.3
			L314.8,278.3z"/>
		<path class="st4" d="M288.9,273.1l0.5-2.3c24.6,0.3,46.2,21.3,46.5,47l-2.3,0.4C333,295.1,315.4,273.9,288.9,273.1L288.9,273.1z"
			/>
		<polygon class="st4" points="335.9,472.8 333.5,472.8 333.5,317 335.9,317 335.9,472.8 		"/>
		<polygon class="st4" points="192.5,273.2 192.5,270.8 290.8,270.8 290.8,273.2 192.5,273.2 		"/>
		<path class="st2" d="M475.3,261.8h10.2v192.4h-10.2V261.8L475.3,261.8z M485.5,604.8v235h-10.2v-235H485.5L485.5,604.8z"/>
		<polygon class="st2" points="355.2,586 355.2,473.2 379.1,473.2 379.1,586 355.2,586 		"/>
		<polygon class="st2" points="490.9,586 490.9,473.2 514.9,473.2 514.9,586 490.9,586 		"/>
		<polygon class="st2" points="400.3,586 400.3,473.2 424.3,473.2 424.3,586 400.3,586 		"/>
		<polygon class="st2" points="445.6,586 445.6,473.2 469.6,473.2 469.6,586 445.6,586 		"/>
		<polygon class="st2" points="536.2,586 536.2,473.2 560.1,473.2 560.1,586 536.2,586 		"/>
		<polygon class="st2" points="581.4,586 581.4,473.2 605.3,473.2 605.3,586 581.4,586 		"/>
	</g>
</g>
</svg>
