<?xml version="1.0" encoding="utf-8"?>
<!-- Generator: Adobe Illustrator 19.2.0, SVG Export Plug-In . SVG Version: 6.00 Build 0)  -->
<svg version="1.1" id="Livello_1" xmlns="http://www.w3.org/2000/svg" xmlns:xlink="http://www.w3.org/1999/xlink" x="0px" y="0px"
	 viewBox="0 0 562.1 729" style="enable-background:new 0 0 562.1 729;" xml:space="preserve">
<style type="text/css">
	.st0{fill:#B9B9B9;}
	.st1{fill:#FFFFFF;}
</style>
<g>
	<g>
		<path class="st0" d="M366.8,4.1H194.6v109.7c1.6,23.2-15.3,40.1-40.3,40.1H2.4v420.9h152.1c23,0,40.3,16.5,40.1,37.3v112h172.2
			V613.6c1.8-22.6,17.1-38.1,38.3-38.7h154.7v-421H405.1c-24,0.2-37.9-17.7-38.3-37.3V4.1L366.8,4.1z"/>
		<polygon class="st1" points="326.5,221.5 359.8,221.5 359.8,188.2 326.5,188.2 		"/>
		<polygon class="st1" points="201,221.5 234.3,221.5 234.3,188.2 201,188.2 		"/>
		<polygon class="st1" points="326.5,476.4 359.8,476.4 359.8,443.2 326.5,443.2 		"/>
		<polygon class="st1" points="201,476.4 234.3,476.4 234.3,443.2 201,443.2 		"/>
		<polygon class="st1" points="326.5,349 359.8,349 359.8,315.7 326.5,315.7 		"/>
		<polygon class="st1" points="201,349 234.3,349 234.3,315.7 201,315.7 		"/>
		<polygon class="st1" points="326.5,285.2 359.8,285.2 359.8,252 326.5,252 		"/>
		<polygon class="st1" points="201,285.2 234.3,285.2 234.3,252 201,252 		"/>
		<polygon class="st1" points="326.5,540.2 359.8,540.2 359.8,506.9 326.5,506.9 		"/>
		<polygon class="st1" points="201,540.2 234.3,540.2 234.3,506.9 201,506.9 		"/>
		<polygon class="st1" points="326.7,412.7 360,412.7 360,379.4 326.7,379.4 		"/>
		<polygon class="st1" points="201.2,412.7 234.5,412.7 234.5,379.4 201.2,379.4 		"/>
	</g>
</g>
</svg>
