<?xml version="1.0" encoding="utf-8"?>
<!-- Generator: Adobe Illustrator 19.2.0, SVG Export Plug-In . SVG Version: 6.00 Build 0)  -->
<svg version="1.1" id="Livello_1" xmlns="http://www.w3.org/2000/svg" xmlns:xlink="http://www.w3.org/1999/xlink" x="0px" y="0px"
	 viewBox="0 0 759.1 723.5" style="enable-background:new 0 0 759.1 723.5;" xml:space="preserve">
<style type="text/css">
	.st0{fill:#B9B9B9;}
	.st1{fill:#FFFFFF;}
</style>
<g>
	<g>
		<polygon class="st0" points="2.1,1.1 757.7,1.1 757.7,721.1 2.1,721.1 		"/>
		<path class="st1" d="M178.6,480.9l53.2-10.4c1.5,22.9,6,41.1,13.5,54.4c7.5,13.5,16.1,20.2,25.8,20.2c11.2,0,20.6-8.7,28.3-25.9
			c7.7-17.3,11.6-43.4,11.6-78.2c0-32.5-3.8-57-11.5-73.4c-7.7-16.3-17.6-24.5-29.9-24.5c-15.3,0-29.1,13-41.2,38.8l-43.3-12
			l27.4-276.5h141.2v95.2H252.9l-8.4,90.3c11.9-11.4,24.1-17.1,36.5-17.1c23.7,0,43.8,16.5,60.2,49.2c16.5,32.9,24.7,75.6,24.7,128
			c0,43.7-6.6,82.8-19.9,117c-18.2,46.9-43.3,70.3-75.4,70.3c-25.7,0-46.7-13.1-62.9-39.5C191.4,560.8,181.7,525.4,178.6,480.9
			L178.6,480.9z"/>
		<path class="st1" d="M484.4,84.1c27,0,48.1,18.4,63.3,55.2c18.1,43.4,27.2,115.5,27.2,216.3c0,100.4-9.1,172.7-27.4,216.7
			c-15,36.2-36.1,54.3-63.1,54.3s-48.9-19.8-65.5-59.6C402.3,527.3,394,456.4,394,354.5c0-100.1,9.1-172.1,27.4-216
			C436.4,102.2,457.4,84.1,484.4,84.1L484.4,84.1z M484.4,168.5c-6.4,0-12.2,4-17.3,11.8c-5.1,7.9-9,22-11.8,42.3
			c-3.6,26.3-5.5,70.6-5.5,133s1.7,105.1,4.9,128.4c3.3,23.4,7.5,38.8,12.5,46.6c5.1,7.7,10.8,11.6,17.2,11.6
			c6.5,0,12.3-4,17.3-11.9c5.1-7.8,9-21.9,11.8-42.2c3.6-26.1,5.5-70.3,5.5-132.6s-1.7-105.1-4.9-128.5
			c-3.3-23.3-7.5-38.8-12.5-46.8C496.6,172.5,490.9,168.5,484.4,168.5L484.4,168.5z"/>
	</g>
</g>
</svg>
