<?xml version="1.0" encoding="utf-8"?>
<!-- Generator: Adobe Illustrator 19.2.0, SVG Export Plug-In . SVG Version: 6.00 Build 0)  -->
<svg version="1.1" id="Livello_1" xmlns="http://www.w3.org/2000/svg" xmlns:xlink="http://www.w3.org/1999/xlink" x="0px" y="0px"
	 viewBox="0 0 377.5 722.4" style="enable-background:new 0 0 377.5 722.4;" xml:space="preserve">
<style type="text/css">
	.st0{fill:#B9B9B9;}
	.st1{fill:#FFFFFF;}
</style>
<g>
	<g>
		<polygon class="st0" points="375.3,1.3 375.3,721.3 101.3,721.3 101.3,1.3 		"/>
		<polygon class="st1" points="362.3,1.3 362.3,721.3 351.7,721.3 351.7,1.3 		"/>
		<polygon class="st1" points="125.1,1.3 125.1,721.3 114.5,721.3 114.5,1.3 		"/>
		<polygon class="st1" points="252.7,81.9 252.7,721.3 242.1,721.3 242.1,81.9 		"/>
		<polygon class="st1" points="235.7,528.4 235.7,604 225.1,604 225.1,528.4 		"/>
		<polygon class="st1" points="235.7,389.6 235.7,465.2 225.1,465.2 225.1,389.6 		"/>
		<polygon class="st1" points="235.7,250.9 235.7,326.6 225.1,326.6 225.1,250.9 		"/>
		<polygon class="st1" points="235.7,112.1 235.7,187.8 225.1,187.8 225.1,112.1 		"/>
		<polygon class="st1" points="235.7,1.3 235.7,48.9 225.1,48.9 225.1,1.3 		"/>
		<polygon class="st1" points="235.7,721.3 225.1,721.3 225.1,667 235.7,667 		"/>
		<polygon class="st1" points="261.8,421.5 275.1,421.5 301.9,492.9 328.7,421.5 342,421.5 308.5,510.5 342,599.4 328.8,599.4 
			301.9,528.1 275.1,599.4 261.8,599.4 295.3,510.5 		"/>
		<path class="st1" d="M265.7,513.1h3.1c0.8,0,1.5-1.1,1.9-3.4c0.4-2.3,0.6-5.8,0.6-10.5c0-4.6-0.2-8-0.6-10.3
			c-0.4-2.3-1-3.4-1.9-3.4h-3v27.6L265.7,513.1L265.7,513.1z M261.4,563.3v-94.4h7.9c2.1,0,3.7,2.5,4.8,7.6s1.6,12.4,1.6,21.9
			c0,10-0.5,17.7-1.6,23.1c-1.1,5.4-2.6,8.1-4.7,8.1h-3.8v33.7H261.4L261.4,563.3z M333.5,563.3v-94.4h3.8v78.8h7.1v15.6H333.5
			L333.5,563.3z"/>
		<polygon class="st1" points="243.2,81.9 362.4,81.9 362.4,100.9 243.2,100.9 		"/>
	</g>
</g>
</svg>
