<?xml version="1.0" encoding="utf-8"?>
<!-- Generator: Adobe Illustrator 19.2.0, SVG Export Plug-In . SVG Version: 6.00 Build 0)  -->
<svg version="1.1" id="Livello_1" xmlns="http://www.w3.org/2000/svg" xmlns:xlink="http://www.w3.org/1999/xlink" x="0px" y="0px"
	 viewBox="0 0 960 960" style="enable-background:new 0 0 960 960;" xml:space="preserve">
<style type="text/css">
	.st0{fill-rule:evenodd;clip-rule:evenodd;fill:#CECFD1;}
	.st1{fill:none;stroke:#FFFFFF;stroke-width:3.0847;stroke-miterlimit:2.6131;}
	.st2{fill-rule:evenodd;clip-rule:evenodd;fill:#FFFFFF;}
</style>
<g>
	<g>
		<polygon class="st0" points="107.9,120 852.1,120 852.1,840 107.9,840 107.9,120 		"/>
		<path class="st1" d="M246.2,227.4h509.9c-371.3,70.9-476.5,341.1-551.8,505.4V269.6C204.3,246.4,223.2,227.4,246.2,227.4
			L246.2,227.4z"/>
		<path class="st2" d="M298.7,231.4l-29.2,31.3c-10.5,0.6-19.6,6.4-24.4,14.8l-6.4-6l37.5-40.1H298.7L298.7,231.4z"/>
		<path class="st2" d="M245.1,277.5l-30-28c3-4.7,6.9-8.7,11.5-11.8l30.4,28.4C252,268.7,247.9,272.7,245.1,277.5L245.1,277.5z"/>
		<polygon class="st2" points="241.5,333.7 208.7,303.1 208.7,280.5 241.5,311.2 241.5,333.7 		"/>
		<path class="st2" d="M241.5,451.8l-32.8-30.7v-22.5l32.8,30.7V451.8L241.5,451.8z M241.5,511.2v-22.5L208.7,458v22.5L241.5,511.2
			L241.5,511.2z M241.5,392.3v-22.5l-32.8-30.7v22.5L241.5,392.3L241.5,392.3z"/>
		<path class="st2" d="M548.9,231.4l-29.2,31.2h-22.5l29.2-31.2H548.9L548.9,231.4z M298.6,262.6h22.5l29.2-31.2h-22.5L298.6,262.6
			L298.6,262.6z M346.8,262.6h22.5l29.2-31.2H376L346.8,262.6L346.8,262.6z M396.9,262.6h22.5l29.2-31.2h-22.5L396.9,262.6
			L396.9,262.6z M447.1,262.6h22.5l29.2-31.2h-22.5L447.1,262.6L447.1,262.6z"/>
		<path class="st2" d="M544.1,296.4l-19.5-17c-5.3,2.3-10.7,4.9-16.2,7.8l20.4,17.7C533.9,302,539,299.2,544.1,296.4L544.1,296.4z
			 M477.8,305.1c-4.8,3.1-9.6,6.3-14.4,9.6l22.1,17.7c4.7-3.3,9.5-6.5,14.3-9.6L477.8,305.1L477.8,305.1z M438.7,332.9
			c-4.4,3.4-8.8,7-13.3,10.6l22.6,17.1c4.4-3.6,8.8-7.1,13.3-10.6L438.7,332.9L438.7,332.9z M397.9,367.4c-4.4,4-8.8,8.2-13.1,12.3
			l28.2,11.8c4.3-4.1,8.8-8.2,13.3-12.3L397.9,367.4L397.9,367.4z M356.7,408.6c-4.4,4.8-8.7,9.7-13,14.5l33.4,5.5
			c4.3-4.9,8.8-9.7,13.4-14.5L356.7,408.6L356.7,408.6z M322.7,448.8c-4.1,5.3-8,10.6-11.8,15.9l34.9,1.7
			c4.1-5.3,8.3-10.6,12.6-15.9L322.7,448.8L322.7,448.8z M291.2,494.9c-3.2,5.5-6.3,10.9-9.1,16.3l31.3,0.5
			c3.6-5.4,7.3-10.9,11.1-16.3L291.2,494.9L291.2,494.9z"/>
		<path class="st2" d="M240.4,570.5l0.1,0.4l45.8-15.5c4.2-7.2,8.5-14.5,13-21.7l-54.1,18.5l-36.6-34.5v23.1l31.4,30L240.4,570.5
			L240.4,570.5z"/>
		<path class="st2" d="M265.7,592.7l-33.2,11.4l-23.7-22.2v130.4C224.9,676.6,243.1,635.5,265.7,592.7L265.7,592.7z"/>
		<path class="st2" d="M586.9,275.4L571.2,261l27.8-29.6h-22.5L547.9,262l0.2,0.2l-0.1,0.1l22.5,20.7
			C576,280.3,581.4,277.8,586.9,275.4L586.9,275.4z"/>
		<path class="st2" d="M623.7,231.4l-22,23.5l9.4,10.2c33.1-13.3,69.1-24.7,108.1-33.7H623.7L623.7,231.4z"/>
	</g>
</g>
</svg>
