<?xml version="1.0" encoding="utf-8"?>
<!-- Generator: Adobe Illustrator 19.2.0, SVG Export Plug-In . SVG Version: 6.00 Build 0)  -->
<svg version="1.1" id="Livello_1" xmlns="http://www.w3.org/2000/svg" xmlns:xlink="http://www.w3.org/1999/xlink" x="0px" y="0px"
	 viewBox="0 0 572.3 722.5" style="enable-background:new 0 0 572.3 722.5;" xml:space="preserve">
<style type="text/css">
	.st0{fill:#B9B9B9;}
	.st1{fill:#FFFFFF;}
	.st2{fill:#1A171B;}
</style>
<g>
	<g>
		<polygon class="st0" points="102.1,720.7 102.1,0.7 571.5,0.7 571.5,720.7 		"/>
		<polygon class="st1" points="114.3,720.7 114.3,0.7 124.4,0.7 124.4,720.7 		"/>
		<polygon class="st1" points="549.1,720.7 549.1,0.7 559.3,0.7 559.3,720.7 		"/>
		<polygon class="st2" points="338.3,58.5 338.3,115.9 335.6,115.9 335.6,58.5 		"/>
		<polygon class="st2" points="327,69.9 337,42.4 347,69.9 349.6,68.9 337,34.4 324.4,68.9 		"/>
		<polygon class="st2" points="335.5,628.2 335.5,685.5 338.3,685.5 338.3,628.2 		"/>
		<polygon class="st2" points="346.9,639.5 336.8,612 326.8,639.5 324.3,638.6 336.9,604 349.5,638.5 		"/>
		<polygon class="st1" points="151,543.8 523.1,543.8 523.1,569.4 151,569.4 		"/>
		<polygon class="st1" points="151,151.1 523.1,151.1 523.1,246 151,246 		"/>
		<polygon class="st1" points="151,260.8 523.1,260.8 523.1,334.6 151,334.6 		"/>
		<polygon class="st1" points="151,365.4 523.1,365.4 523.1,428.9 151,428.9 		"/>
		<polygon class="st1" points="151,458.4 523.1,458.4 523.1,508.5 151,508.5 		"/>
	</g>
</g>
</svg>
