<?xml version="1.0" encoding="utf-8"?>
<!-- Generator: Adobe Illustrator 19.2.0, SVG Export Plug-In . SVG Version: 6.00 Build 0)  -->
<svg version="1.1" id="Livello_1" xmlns="http://www.w3.org/2000/svg" xmlns:xlink="http://www.w3.org/1999/xlink" x="0px" y="0px"
	 viewBox="0 0 871.6 372.6" style="enable-background:new 0 0 871.6 372.6;" xml:space="preserve">
<style type="text/css">
	.st0{fill:#B9B9B9;}
	.st1{fill:#CECFD1;}
	.st2{fill:#FFFFFF;}
	.st3{fill:#1A171B;}
	.st4{fill:#FFEC00;}
</style>
<g>
	<g>
		<polygon class="st0" points="1,61.4 871,61.4 871,371.9 1,371.9 		"/>
		<polygon class="st1" points="363,61.4 508.9,61.4 508.9,371.9 363,371.9 		"/>
		<polygon class="st2" points="1,72.3 871,72.3 871,81.3 1,81.3 		"/>
		<polygon class="st2" points="1,351.6 871,351.6 871,360.7 1,360.7 		"/>
		<polygon class="st3" points="247.1,327.5 363.2,312.4 363.2,356.8 247.1,371.9 		"/>
		<polygon class="st4" points="247.1,283.2 363.2,268 363.2,312.4 247.1,327.5 		"/>
		<polygon class="st3" points="247.1,238.8 363.2,223.7 363.2,268 247.1,283.1 		"/>
		<polygon class="st4" points="247.1,194.4 363.2,179.3 363.2,223.6 247.1,238.8 		"/>
		<polygon class="st3" points="247.1,150 363.2,134.9 363.2,179.2 247.1,194.4 		"/>
		<polygon class="st4" points="247.1,105.8 363.2,90.6 363.2,135 247.1,150.1 		"/>
		<polygon class="st3" points="247.1,61.4 363.2,46.3 363.2,90.6 247.1,105.7 		"/>
		<polygon class="st3" points="363.3,46.3 508.9,46.3 508.9,90.6 363.3,90.6 		"/>
		<polygon class="st4" points="363.3,90.6 508.9,90.6 508.9,135 363.3,135 		"/>
		<polygon class="st3" points="363.3,134.9 508.9,134.9 508.9,179.2 363.3,179.2 		"/>
		<polygon class="st4" points="363.3,179.3 508.9,179.3 508.9,223.6 363.3,223.6 		"/>
		<polygon class="st3" points="363.3,223.7 508.9,223.7 508.9,268 363.3,268 		"/>
		<polygon class="st4" points="363.3,268 508.9,268 508.9,312.4 363.3,312.4 		"/>
		<polygon class="st3" points="363.3,312.4 508.9,312.4 508.9,356.8 363.3,356.8 		"/>
		<polygon class="st3" points="508.8,312.4 625,327.5 625,371.9 508.8,356.8 		"/>
		<polygon class="st4" points="508.8,268 625,283.2 625,327.5 508.8,312.4 		"/>
		<polygon class="st3" points="508.8,223.7 625,238.8 625,283.1 508.8,268 		"/>
		<polygon class="st4" points="508.8,179.3 625,194.4 625,238.8 508.8,223.6 		"/>
		<polygon class="st3" points="508.8,134.9 625,150 625,194.4 508.8,179.2 		"/>
		<polygon class="st4" points="508.8,90.6 625,105.8 625,150.1 508.8,135 		"/>
		<polygon class="st3" points="508.8,46.3 625,61.4 625,105.7 508.8,90.6 		"/>
	</g>
</g>
</svg>
