<?xml version="1.0" encoding="utf-8"?>
<!-- Generator: Adobe Illustrator 19.2.0, SVG Export Plug-In . SVG Version: 6.00 Build 0)  -->
<svg version="1.1" id="Livello_1" xmlns="http://www.w3.org/2000/svg" xmlns:xlink="http://www.w3.org/1999/xlink" x="0px" y="0px"
	 viewBox="0 0 960 960" style="enable-background:new 0 0 960 960;" xml:space="preserve">
<style type="text/css">
	.st0{fill-rule:evenodd;clip-rule:evenodd;fill:#CECFD1;}
	.st1{fill-rule:evenodd;clip-rule:evenodd;fill:#FFFFFF;}
</style>
<g>
	<g>
		<polygon class="st0" points="45,436.3 915,436.3 915,523.7 45,523.7 45,436.3 		"/>
		<polygon class="st1" points="45,440.5 915,440.5 915,444.3 45,444.3 45,440.5 		"/>
		<polygon class="st1" points="178.2,477.9 200.1,477.9 200.1,481.7 178.2,481.7 178.2,477.9 		"/>
		<polygon class="st1" points="814.9,477.9 836.8,477.9 836.8,481.7 814.9,481.7 814.9,477.9 		"/>
		<polygon class="st1" points="127.7,477.9 149.6,477.9 149.6,481.7 127.7,481.7 127.7,477.9 		"/>
		<polygon class="st1" points="764.4,477.9 786.3,477.9 786.3,481.7 764.4,481.7 764.4,477.9 		"/>
		<polygon class="st1" points="77.1,477.9 99,477.9 99,481.7 77.1,481.7 77.1,477.9 		"/>
		<polygon class="st1" points="713.8,477.9 735.7,477.9 735.7,481.7 713.8,481.7 713.8,477.9 		"/>
		<polygon class="st1" points="228.8,477.9 250.7,477.9 250.7,481.7 228.8,481.7 228.8,477.9 		"/>
		<polygon class="st1" points="865.5,477.9 887.4,477.9 887.4,481.7 865.5,481.7 865.5,477.9 		"/>
		<polygon class="st1" points="45,477.9 48.5,477.9 48.5,481.7 45,481.7 45,477.9 		"/>
		<polygon class="st1" points="45,515.4 915,515.4 915,519.2 45,519.2 45,517.1 45,515.4 		"/>
		<polygon class="st1" points="350.2,477.9 367.6,477.9 367.6,481.7 350.2,481.7 350.2,477.9 		"/>
		<polygon class="st1" points="373,477.9 390.4,477.9 390.4,481.7 373,481.7 373,477.9 		"/>
		<polygon class="st1" points="395.7,477.9 413.1,477.9 413.1,481.7 395.7,481.7 395.7,477.9 		"/>
		<polygon class="st1" points="418.5,477.9 435.9,477.9 435.9,481.7 418.5,481.7 418.5,477.9 		"/>
		<polygon class="st1" points="350.2,487.2 435.9,487.2 435.9,491.1 350.2,491.1 350.2,487.2 		"/>
		<polygon class="st1" points="326.7,477.9 344.1,477.9 344.1,481.7 326.7,481.7 326.7,477.9 		"/>
		<polygon class="st1" points="303.2,477.9 320.6,477.9 320.6,481.7 303.2,481.7 303.2,477.9 		"/>
		<polygon class="st1" points="279.7,477.9 297.1,477.9 297.1,481.7 279.7,481.7 279.7,477.9 		"/>
		<polygon class="st1" points="614.2,481.8 596.8,481.8 596.8,478 614.2,478 614.2,481.8 		"/>
		<polygon class="st1" points="591.4,481.8 574,481.8 574,478 591.4,478 591.4,481.8 		"/>
		<polygon class="st1" points="568.7,481.8 551.3,481.8 551.3,478 568.7,478 568.7,481.8 		"/>
		<polygon class="st1" points="546,481.8 528.5,481.8 528.5,478 546,478 546,481.8 		"/>
		<polygon class="st1" points="614.2,472.4 528.5,472.4 528.5,468.6 614.2,468.6 614.2,472.4 		"/>
		<polygon class="st1" points="637.7,481.8 620.3,481.8 620.3,478 637.7,478 637.7,481.8 		"/>
		<polygon class="st1" points="661.2,481.8 643.8,481.8 643.8,478 661.2,478 661.2,481.8 		"/>
		<polygon class="st1" points="684.7,481.8 667.3,481.8 667.3,478 684.7,478 684.7,481.8 		"/>
		<polygon class="st1" points="445.6,477.9 466.6,477.9 466.6,481.7 445.6,481.7 445.6,477.9 		"/>
		<polygon class="st1" points="518.9,477.9 497.9,477.9 497.9,481.7 518.9,481.7 518.9,477.9 		"/>
	</g>
</g>
</svg>
