<?xml version="1.0" encoding="utf-8"?>
<!-- Generator: Adobe Illustrator 19.2.0, SVG Export Plug-In . SVG Version: 6.00 Build 0)  -->
<svg version="1.1" id="Livello_1" xmlns="http://www.w3.org/2000/svg" xmlns:xlink="http://www.w3.org/1999/xlink" x="0px" y="0px"
	 viewBox="0 0 960 960" style="enable-background:new 0 0 960 960;" xml:space="preserve">
<style type="text/css">
	.st0{fill-rule:evenodd;clip-rule:evenodd;fill:#CECFD1;}
	.st1{fill-rule:evenodd;clip-rule:evenodd;fill:#FFFFFF;}
</style>
<g>
	<g>
		<polygon class="st0" points="45,455.1 914.9,455.1 914.9,542.4 45,542.4 45,455.1 		"/>
		<polygon class="st0" points="45,417.6 914.9,417.6 914.9,504.9 45,504.9 45,417.6 		"/>
		<polygon class="st1" points="45,421.7 915,421.7 915,425.5 45,425.5 45,421.7 		"/>
		<polygon class="st1" points="92.1,458.9 113.4,458.9 113.4,462.7 92.1,462.7 92.1,458.9 		"/>
		<polygon class="st1" points="868.2,501.2 846.9,501.2 846.9,497.3 868.2,497.3 868.2,501.2 		"/>
		<polygon class="st1" points="45.1,458.9 64.2,458.9 64.2,462.7 45.1,462.7 45.1,458.9 		"/>
		<polygon class="st1" points="348.1,468.6 365.5,468.6 365.5,472.5 348.1,472.5 348.1,468.6 		"/>
		<polygon class="st1" points="612.3,491.4 594.8,491.4 594.8,487.6 612.3,487.6 612.3,491.4 		"/>
		<polygon class="st1" points="370.8,468.6 388.2,468.6 388.2,472.5 370.8,472.5 370.8,468.6 		"/>
		<polygon class="st1" points="589.5,491.4 572.1,491.4 572.1,487.6 589.5,487.6 589.5,491.4 		"/>
		<polygon class="st1" points="393.6,468.6 411,468.6 411,472.5 393.6,472.5 393.6,468.6 		"/>
		<polygon class="st1" points="566.8,491.4 549.4,491.4 549.4,487.6 566.8,487.6 566.8,491.4 		"/>
		<polygon class="st1" points="416.3,468.6 433.7,468.6 433.7,472.5 416.3,472.5 416.3,468.6 		"/>
		<polygon class="st1" points="544,491.4 526.6,491.4 526.6,487.6 544,487.6 544,491.4 		"/>
		<polygon class="st1" points="443.4,478.1 464.5,478.1 464.5,481.9 443.4,481.9 443.4,478.1 		"/>
		<polygon class="st1" points="516.5,481.9 495.4,481.9 495.4,478.1 516.5,478.1 516.5,481.9 		"/>
		<polygon class="st1" points="141.3,496.4 162.6,496.4 162.6,500.2 141.3,500.2 141.3,496.4 		"/>
		<polygon class="st1" points="819.1,463.7 797.8,463.7 797.8,459.9 819.1,459.9 819.1,463.7 		"/>
		<polygon class="st1" points="92.1,496.4 113.4,496.4 113.4,500.2 92.1,500.2 92.1,496.4 		"/>
		<polygon class="st1" points="868.2,463.7 846.9,463.7 846.9,459.9 868.2,459.9 868.2,463.7 		"/>
		<polygon class="st1" points="45.1,496.4 64.2,496.4 64.2,500.2 45.1,500.2 45.1,496.4 		"/>
		<polygon class="st1" points="190.5,496.4 211.8,496.4 211.8,500.2 190.5,500.2 190.5,496.4 		"/>
		<polygon class="st1" points="769.9,463.7 748.6,463.7 748.6,459.9 769.9,459.9 769.9,463.7 		"/>
		<polygon class="st1" points="45,534.2 915,534.2 915,538 45,538 45,535.9 45,534.2 		"/>
		<polygon class="st1" points="212.6,449.7 230,449.7 230,453.5 212.6,453.5 212.6,449.7 		"/>
		<polygon class="st1" points="747.8,510.3 730.3,510.3 730.3,506.5 747.8,506.5 747.8,510.3 		"/>
		<polygon class="st1" points="235.3,449.7 252.8,449.7 252.8,453.5 235.3,453.5 235.3,449.7 		"/>
		<polygon class="st1" points="725,510.3 707.6,510.3 707.6,506.5 725,506.5 725,510.3 		"/>
		<polygon class="st1" points="259.9,450 276.9,453.6 276.1,457.3 259.1,453.7 259.9,450 		"/>
		<polygon class="st1" points="700.5,510.1 683.5,506.5 684.3,502.7 701.3,506.4 700.5,510.1 		"/>
		<polygon class="st1" points="282.1,454.7 299.1,458.3 298.3,462 281.3,458.4 282.1,454.7 		"/>
		<polygon class="st1" points="678.2,505.4 661.2,501.7 662,498 679,501.6 678.2,505.4 		"/>
		<polygon class="st1" points="304.3,459.4 321.4,463 320.6,466.7 303.6,463.1 304.3,459.4 		"/>
		<polygon class="st1" points="656,500.6 639,497 639.8,493.3 656.8,496.9 656,500.6 		"/>
		<polygon class="st1" points="326.6,464.1 343.6,467.7 342.8,471.5 325.8,467.8 326.6,464.1 		"/>
		<polygon class="st1" points="633.8,495.9 616.7,492.3 617.5,488.6 634.6,492.2 633.8,495.9 		"/>
		<polygon class="st1" points="130.4,459.2 147.8,459.2 147.8,463 130.4,463 130.4,459.2 		"/>
		<polygon class="st1" points="830,500.8 812.6,500.8 812.6,497 830,497 830,500.8 		"/>
		<polygon class="st1" points="153.1,459.2 170.5,459.2 170.5,463 153.1,463 153.1,459.2 		"/>
		<polygon class="st1" points="807.2,500.8 789.8,500.8 789.8,497 807.2,497 807.2,500.8 		"/>
		<polygon class="st1" points="175.8,459.2 193.3,459.2 193.3,463 175.8,463 175.8,459.2 		"/>
		<polygon class="st1" points="784.5,500.8 767.1,500.8 767.1,497 784.5,497 784.5,500.8 		"/>
		<polygon class="st1" points="258.1,459.1 350,477.9 433.7,477.9 433.7,481.8 349.4,481.8 257,462.8 254.7,462.8 202.3,462.8 
			202.3,459 257.2,459 257.2,459.1 258.1,459.1 		"/>
		<polygon class="st1" points="612.3,482.1 526.6,482.1 526.6,478.3 613,478.3 703.6,497.2 758,497.2 758,501 705.9,501 703.2,501 
			612.3,482.1 		"/>
		<polygon class="st1" points="915,463.7 896.2,463.7 896.2,459.9 915,459.9 915,463.7 		"/>
		<polygon class="st1" points="915,501.2 896.2,501.2 896.2,497.3 915,497.3 915,501.2 		"/>
	</g>
</g>
</svg>
