<?xml version="1.0" encoding="utf-8"?>
<!-- Generator: Adobe Illustrator 19.2.0, SVG Export Plug-In . SVG Version: 6.00 Build 0)  -->
<svg version="1.1" id="Livello_1" xmlns="http://www.w3.org/2000/svg" xmlns:xlink="http://www.w3.org/1999/xlink" x="0px" y="0px"
	 viewBox="0 0 960 960" style="enable-background:new 0 0 960 960;" xml:space="preserve">
<style type="text/css">
	.st0{fill-rule:evenodd;clip-rule:evenodd;fill:#CECFD1;}
	.st1{fill-rule:evenodd;clip-rule:evenodd;fill:#FFFFFF;}
	.st2{fill-rule:evenodd;clip-rule:evenodd;fill:#1A171B;}
</style>
<g>
	<g>
		<polygon class="st0" points="581.7,120 581.7,840 494.7,840 494.7,120 581.7,120 		"/>
		<polygon class="st1" points="524.1,322.9 540.2,298 540.2,310.5 559.7,263.8 540.2,272.2 540.2,285.3 524.1,302.4 524.1,322.9 		
			"/>
		<polygon class="st1" points="524.1,487.9 540.2,463 540.2,475.5 559.7,428.7 540.2,437.2 540.2,450.3 524.1,467.4 524.1,487.9 		
			"/>
		<polygon class="st1" points="524.1,377.9 540.2,353 540.2,365.6 559.7,318.8 540.2,327.2 540.2,340.3 524.1,357.5 524.1,377.9 		
			"/>
		<polygon class="st1" points="524.1,598 540.2,573.2 540.2,585.7 559.7,538.9 540.2,547.4 540.2,560.4 524.1,577.6 524.1,598 		"/>
		<polygon class="st1" points="524.1,707.9 540.2,683 540.2,695.5 559.7,648.8 540.2,657.2 540.2,670.3 524.1,687.4 524.1,707.9 		
			"/>
		<polygon class="st1" points="540.2,244 536.4,244 536.4,120 540.2,120 540.2,244 		"/>
		<polygon class="st1" points="540.2,381.6 536.4,381.6 536.4,366 540.2,366 540.2,381.6 		"/>
		<polygon class="st1" points="540.2,656.7 536.4,656.7 536.4,641.1 540.2,641.1 540.2,656.7 		"/>
		<polygon class="st1" points="540.2,519.2 536.4,519.2 536.4,503.6 540.2,503.6 540.2,519.2 		"/>
		<polygon class="st1" points="540.2,354 536.4,354 536.4,338.5 540.2,338.5 540.2,354 		"/>
		<polygon class="st1" points="540.2,629.2 536.4,629.2 536.4,613.6 540.2,613.6 540.2,629.2 		"/>
		<polygon class="st1" points="540.2,491.6 536.4,491.6 536.4,476 540.2,476 540.2,491.6 		"/>
		<polygon class="st1" points="540.2,326.5 536.4,326.5 536.4,310.9 540.2,310.9 540.2,326.5 		"/>
		<polygon class="st1" points="540.2,601.6 536.4,601.6 536.4,586 540.2,586 540.2,601.6 		"/>
		<polygon class="st1" points="540.2,464.1 536.4,464.1 536.4,448.5 540.2,448.5 540.2,464.1 		"/>
		<polygon class="st1" points="540.2,271.5 536.4,271.5 536.4,256 540.2,256 540.2,271.5 		"/>
		<polygon class="st1" points="540.2,546.7 536.4,546.7 536.4,531.1 540.2,531.1 540.2,546.7 		"/>
		<polygon class="st1" points="540.2,706.2 536.4,706.2 536.4,696.1 540.2,696.1 540.2,706.2 		"/>
		<polygon class="st1" points="540.2,778.8 536.4,778.8 536.4,768.7 540.2,768.7 540.2,778.8 		"/>
		<polygon class="st1" points="540.2,742.5 536.4,742.5 536.4,732.4 540.2,732.4 540.2,742.5 		"/>
		<polygon class="st1" points="540.2,815.2 536.4,815.2 536.4,805.1 540.2,805.1 540.2,815.2 		"/>
		<polygon class="st1" points="540.2,724.4 536.4,724.4 536.4,714.3 540.2,714.3 540.2,724.4 		"/>
		<polygon class="st1" points="540.2,796.9 536.4,796.9 536.4,786.9 540.2,786.9 540.2,796.9 		"/>
		<polygon class="st1" points="540.2,760.6 536.4,760.6 536.4,750.5 540.2,750.5 540.2,760.6 		"/>
		<polygon class="st1" points="540.2,833.4 536.4,833.4 536.4,823.3 540.2,823.3 540.2,833.4 		"/>
		<polygon class="st1" points="540.2,409.1 536.4,409.1 536.4,393.5 540.2,393.5 540.2,409.1 		"/>
		<polygon class="st1" points="540.2,684.2 536.4,684.2 536.4,668.7 540.2,668.7 540.2,684.2 		"/>
		<polygon class="st1" points="540.2,298.9 536.4,298.9 536.4,283.4 540.2,283.4 540.2,298.9 		"/>
		<polygon class="st1" points="540.2,574.1 536.4,574.1 536.4,558.5 540.2,558.5 540.2,574.1 		"/>
		<polygon class="st1" points="540.2,436.5 536.4,436.5 536.4,421 540.2,421 540.2,436.5 		"/>
		<polygon class="st1" points="502.6,120 502.6,840 498.8,840 498.8,120 502.6,120 		"/>
		<polygon class="st1" points="577.5,120 577.5,840 573.8,840 573.8,120 577.5,120 		"/>
		<polygon class="st2" points="557.3,791.1 563.9,798.5 563.9,801.3 558.1,794.9 558.1,826 556.4,826 556.4,794.9 550.6,801.3 
			550.6,798.5 557.3,791.1 		"/>
		<polygon class="st2" points="519.4,826 512.7,818.6 512.7,815.8 518.5,822.2 518.5,791.1 520.2,791.1 520.2,822.2 526,815.8 
			526,818.6 519.4,826 		"/>
		<polygon class="st0" points="465.3,120 465.3,840 378.3,840 378.3,120 465.3,120 		"/>
		<polygon class="st1" points="407.7,322.9 423.8,298 423.8,310.5 443.4,263.8 423.8,272.2 423.8,285.3 407.7,302.4 407.7,322.9 		
			"/>
		<polygon class="st1" points="407.7,487.9 423.8,463 423.8,475.5 443.4,428.7 423.8,437.2 423.8,450.3 407.7,467.4 407.7,487.9 		
			"/>
		<polygon class="st1" points="407.7,377.9 423.8,353 423.8,365.6 443.4,318.8 423.8,327.2 423.8,340.3 407.7,357.5 407.7,377.9 		
			"/>
		<polygon class="st1" points="407.7,598 423.8,573.2 423.8,585.7 443.4,538.9 423.8,547.4 423.8,560.4 407.7,577.6 407.7,598 		"/>
		<polygon class="st1" points="407.7,707.9 423.8,683 423.8,695.5 443.4,648.8 423.8,657.2 423.8,670.3 407.7,687.4 407.7,707.9 		
			"/>
		<polygon class="st1" points="423.9,244 420.1,244 420.1,120 423.9,120 423.9,244 		"/>
		<polygon class="st1" points="424,534.4 420.1,534.4 420.1,524.3 424,524.3 424,534.4 		"/>
		<polygon class="st1" points="424,262.1 420.1,262.1 420.1,252 424,252 424,262.1 		"/>
		<polygon class="st1" points="424,806.7 420.1,806.7 420.1,796.6 424,796.6 424,806.7 		"/>
		<polygon class="st1" points="424,715.9 420.1,715.9 420.1,705.8 424,705.8 424,715.9 		"/>
		<polygon class="st1" points="424,606.9 420.1,606.9 420.1,596.8 424,596.8 424,606.9 		"/>
		<polygon class="st1" points="424,461.8 420.1,461.8 420.1,451.7 424,451.7 424,461.8 		"/>
		<polygon class="st1" points="424,334.7 420.1,334.7 420.1,324.6 424,324.6 424,334.7 		"/>
		<polygon class="st1" points="424,679.6 420.1,679.6 420.1,669.5 424,669.5 424,679.6 		"/>
		<polygon class="st1" points="424,570.6 420.1,570.6 420.1,560.5 424,560.5 424,570.6 		"/>
		<polygon class="st1" points="424,425.5 420.1,425.5 420.1,415.4 424,415.4 424,425.5 		"/>
		<polygon class="st1" points="424,298.4 420.1,298.4 420.1,288.3 424,288.3 424,298.4 		"/>
		<polygon class="st1" points="424,840 420.1,840 420.1,832.9 424,832.9 424,840 		"/>
		<polygon class="st1" points="424,752.2 420.1,752.2 420.1,742.1 424,742.1 424,752.2 		"/>
		<polygon class="st1" points="424,643.3 420.1,643.3 420.1,633.2 424,633.2 424,643.3 		"/>
		<polygon class="st1" points="424,498.1 420.1,498.1 420.1,488 424,488 424,498.1 		"/>
		<polygon class="st1" points="424,371 420.1,371 420.1,361 424,361 424,371 		"/>
		<polygon class="st1" points="424,552.5 420.1,552.5 420.1,542.4 424,542.4 424,552.5 		"/>
		<polygon class="st1" points="424,407.3 420.1,407.3 420.1,397.2 424,397.2 424,407.3 		"/>
		<polygon class="st1" points="424,280.2 420.1,280.2 420.1,270.1 424,270.1 424,280.2 		"/>
		<polygon class="st1" points="424,824.8 420.1,824.8 420.1,814.7 424,814.7 424,824.8 		"/>
		<polygon class="st1" points="424,734 420.1,734 420.1,723.9 424,723.9 424,734 		"/>
		<polygon class="st1" points="424,625.1 420.1,625.1 420.1,615 424,615 424,625.1 		"/>
		<polygon class="st1" points="424,479.9 420.1,479.9 420.1,469.8 424,469.8 424,479.9 		"/>
		<polygon class="st1" points="424,352.8 420.1,352.8 420.1,342.7 424,342.7 424,352.8 		"/>
		<polygon class="st1" points="424,788.5 420.1,788.5 420.1,778.4 424,778.4 424,788.5 		"/>
		<polygon class="st1" points="424,697.7 420.1,697.7 420.1,687.6 424,687.6 424,697.7 		"/>
		<polygon class="st1" points="424,588.8 420.1,588.8 420.1,578.7 424,578.7 424,588.8 		"/>
		<polygon class="st1" points="424,443.6 420.1,443.6 420.1,433.5 424,433.5 424,443.6 		"/>
		<polygon class="st1" points="424,316.5 420.1,316.5 420.1,306.4 424,306.4 424,316.5 		"/>
		<polygon class="st1" points="424,770.4 420.1,770.4 420.1,760.4 424,760.4 424,770.4 		"/>
		<polygon class="st1" points="424,661.5 420.1,661.5 420.1,651.4 424,651.4 424,661.5 		"/>
		<polygon class="st1" points="424,516.3 420.1,516.3 420.1,506.3 424,506.3 424,516.3 		"/>
		<polygon class="st1" points="424,389.3 420.1,389.3 420.1,379.2 424,379.2 424,389.3 		"/>
		<polygon class="st1" points="386.3,120 386.3,840 382.5,840 382.5,120 386.3,120 		"/>
		<polygon class="st1" points="461.2,120 461.2,840 457.4,840 457.4,120 461.2,120 		"/>
		<polygon class="st2" points="440.9,791.1 447.6,798.5 447.6,801.3 441.8,794.9 441.8,826 440,826 440,794.9 434.3,801.3 
			434.3,798.5 440.9,791.1 		"/>
		<polygon class="st2" points="403,826 396.4,818.6 396.4,815.8 402.1,822.2 402.1,791.1 403.9,791.1 403.9,822.2 409.7,815.8 
			409.7,818.6 403,826 		"/>
	</g>
</g>
</svg>
