<?xml version="1.0" encoding="utf-8"?>
<!-- Generator: Adobe Illustrator 19.2.0, SVG Export Plug-In . SVG Version: 6.00 Build 0)  -->
<svg version="1.1" id="Livello_1" xmlns="http://www.w3.org/2000/svg" xmlns:xlink="http://www.w3.org/1999/xlink" x="0px" y="0px"
	 viewBox="0 0 723.6 726" style="enable-background:new 0 0 723.6 726;" xml:space="preserve">
<style type="text/css">
	.st0{fill:#DCDCDC;stroke:#E2E3E4;stroke-width:0.3789;stroke-miterlimit:2.6131;}
	.st1{fill:#B9B9B9;}
	.st2{fill:#FFFFFF;}
	.st3{fill:#3D3D3F;}
	.st4{fill:none;stroke:#B0B2B3;stroke-width:0.1263;stroke-miterlimit:2.6131;}
</style>
<g>
	<g>
		<polygon class="st0" points="221.8,222.2 1.9,222.2 1.9,501 221.8,501 221.8,721.7 500.1,721.7 500.1,501 720.2,501 720.2,222.2 
			500.1,222.2 500.1,1.8 221.8,1.8 		"/>
		<path class="st1" d="M245.2,1.8v220.5c0,16.2-7.5,23.4-23.4,23.4H1.8v231.5h220c14.9,0,23.4,8.9,23.4,23.8v220.7h231.4V501
			c0-15,8.1-23.8,23.5-23.8h220V245.7h-220c-15.8,0-23.5-7.2-23.5-23.4V1.8H245.2L245.2,1.8z"/>
		<polygon class="st2" points="355.4,556.1 359.1,556.1 359.1,721.7 355.4,721.7 		"/>
		<polygon class="st2" points="554.7,367 554.7,363.3 720.1,363.3 720.1,367 		"/>
		<polygon class="st2" points="167.4,355.9 167.4,359.6 1.8,359.6 1.8,355.9 		"/>
		<polygon class="st2" points="366.5,167.3 362.8,167.3 362.8,1.7 366.5,1.7 		"/>
		<polygon class="st2" points="298.7,568.7 302.3,568.7 302.3,585.5 298.7,585.5 		"/>
		<polygon class="st2" points="567.4,423.9 567.4,420.2 584.2,420.2 584.2,423.9 		"/>
		<polygon class="st2" points="154.8,299.1 154.8,302.8 138,302.8 138,299.1 		"/>
		<polygon class="st2" points="423.4,154.7 419.7,154.7 419.7,137.9 423.4,137.9 		"/>
		<polygon class="st2" points="298.7,638.7 302.3,638.7 302.3,655.5 298.7,655.5 		"/>
		<polygon class="st2" points="637.3,423.9 637.3,420.2 654.1,420.2 654.1,423.9 		"/>
		<polygon class="st2" points="84.8,299.1 84.8,302.8 67.9,302.8 67.9,299.1 		"/>
		<polygon class="st2" points="423.3,84.8 419.6,84.8 419.6,68 423.3,68 		"/>
		<polygon class="st2" points="298.7,709.2 302.3,709.2 302.3,721.6 298.7,721.6 		"/>
		<polygon class="st2" points="707.8,423.9 707.8,420.2 720.2,420.2 720.2,423.9 		"/>
		<polygon class="st2" points="14.3,299.1 14.3,302.8 1.9,302.8 1.9,299.1 		"/>
		<polygon class="st2" points="423.3,14.3 419.6,14.3 419.6,1.9 423.3,1.9 		"/>
		<polygon class="st2" points="298.7,603.7 302.3,603.7 302.3,620.6 298.7,620.6 		"/>
		<polygon class="st2" points="602.3,423.9 602.3,420.2 619.1,420.2 619.1,423.9 		"/>
		<polygon class="st2" points="119.8,299.1 119.8,302.8 102.9,302.8 102.9,299.1 		"/>
		<polygon class="st2" points="423.3,119.8 419.6,119.8 419.6,102.9 423.3,102.9 		"/>
		<polygon class="st2" points="298.7,674 302.3,674 302.3,690.9 298.7,690.9 		"/>
		<polygon class="st2" points="672.6,423.9 672.6,420.2 689.4,420.2 689.4,423.9 		"/>
		<polygon class="st2" points="49.5,299.1 49.5,302.8 32.6,302.8 32.6,299.1 		"/>
		<polygon class="st2" points="423.3,49.5 419.6,49.5 419.6,32.6 423.3,32.6 		"/>
		<polygon class="st2" points="362.6,556.1 366.3,556.1 366.3,721.7 362.6,721.7 		"/>
		<polygon class="st2" points="554.7,359.7 554.7,356 720.1,356 720.1,359.7 		"/>
		<polygon class="st2" points="167.4,363.2 167.4,366.9 1.8,366.9 1.8,363.2 		"/>
		<polygon class="st2" points="359.4,167.3 355.7,167.3 355.7,1.7 359.4,1.7 		"/>
		<polygon class="st2" points="419.5,556.1 423.2,556.1 423.2,721.7 419.5,721.7 		"/>
		<polygon class="st2" points="554.7,302.8 554.7,299.1 720.1,299.1 720.1,302.8 		"/>
		<polygon class="st2" points="167.4,420.1 167.4,423.8 1.8,423.8 1.8,420.1 		"/>
		<polygon class="st2" points="302.5,167.3 298.8,167.3 298.8,1.7 302.5,1.7 		"/>
		<polygon class="st2" points="476.6,556.1 355.3,556.1 355.3,568.8 476.6,568.8 		"/>
		<polygon class="st2" points="554.7,245.6 554.7,367.1 567.3,367.1 567.3,245.6 		"/>
		<polygon class="st2" points="167.5,477.1 167.5,355.9 154.8,355.9 154.8,477.1 		"/>
		<polygon class="st2" points="245.3,167.4 366.5,167.4 366.5,154.7 245.3,154.7 		"/>
		<polygon class="st2" points="251.6,489.4 261.5,489.4 261.5,538.9 251.6,538.9 		"/>
		<polygon class="st2" points="270.6,489.4 280.6,489.4 280.6,538.9 270.6,538.9 		"/>
		<polygon class="st2" points="289.7,489.4 299.6,489.4 299.6,538.9 289.7,538.9 		"/>
		<polygon class="st2" points="308.6,489.4 318.5,489.4 318.5,538.9 308.6,538.9 		"/>
		<polygon class="st2" points="327.6,489.4 337.6,489.4 337.6,538.9 327.6,538.9 		"/>
		<polygon class="st2" points="346.7,489.4 356.6,489.4 356.6,538.9 346.7,538.9 		"/>
		<polygon class="st2" points="365.6,489.4 375.6,489.4 375.6,538.9 365.6,538.9 		"/>
		<polygon class="st2" points="422.6,489.4 432.6,489.4 432.6,538.9 422.6,538.9 		"/>
		<polygon class="st2" points="384.5,489.4 394.5,489.4 394.5,538.9 384.5,538.9 		"/>
		<polygon class="st2" points="441.5,489.4 451.5,489.4 451.5,538.9 441.5,538.9 		"/>
		<polygon class="st2" points="403.6,489.4 413.5,489.4 413.5,538.9 403.6,538.9 		"/>
		<polygon class="st2" points="460.6,489.4 470.6,489.4 470.6,538.9 460.6,538.9 		"/>
		<polygon class="st2" points="184.3,470.7 184.3,460.7 233.8,460.7 233.8,470.7 		"/>
		<polygon class="st2" points="184.3,451.6 184.3,441.6 233.8,441.6 233.8,451.6 		"/>
		<polygon class="st2" points="184.3,432.6 184.3,422.6 233.8,422.6 233.8,432.6 		"/>
		<polygon class="st2" points="184.3,413.6 184.3,403.7 233.8,403.7 233.8,413.6 		"/>
		<polygon class="st2" points="184.3,394.6 184.3,384.6 233.8,384.6 233.8,394.6 		"/>
		<polygon class="st2" points="184.3,375.6 184.3,365.6 233.8,365.6 233.8,375.6 		"/>
		<polygon class="st2" points="184.3,356.6 184.3,346.7 233.8,346.7 233.8,356.6 		"/>
		<polygon class="st2" points="184.3,299.6 184.3,289.6 233.8,289.6 233.8,299.6 		"/>
		<polygon class="st2" points="184.3,337.7 184.3,327.7 233.8,327.7 233.8,337.7 		"/>
		<polygon class="st2" points="184.3,280.7 184.3,270.7 233.8,270.7 233.8,280.7 		"/>
		<polygon class="st2" points="184.3,318.6 184.3,308.7 233.8,308.7 233.8,318.6 		"/>
		<polygon class="st2" points="184.3,261.6 184.3,251.7 233.8,251.7 233.8,261.6 		"/>
		<polygon class="st2" points="488.4,470.7 488.4,460.7 537.9,460.7 537.9,470.7 		"/>
		<polygon class="st2" points="488.4,451.6 488.4,441.6 537.9,441.6 537.9,451.6 		"/>
		<polygon class="st2" points="488.4,432.6 488.4,422.6 537.9,422.6 537.9,432.6 		"/>
		<polygon class="st2" points="488.4,413.6 488.4,403.7 537.9,403.7 537.9,413.6 		"/>
		<polygon class="st2" points="488.4,394.6 488.4,384.6 537.9,384.6 537.9,394.6 		"/>
		<polygon class="st2" points="488.4,375.6 488.4,365.6 537.9,365.6 537.9,375.6 		"/>
		<polygon class="st2" points="488.4,356.6 488.4,346.7 537.9,346.7 537.9,356.6 		"/>
		<polygon class="st2" points="488.4,299.6 488.4,289.6 537.9,289.6 537.9,299.6 		"/>
		<polygon class="st2" points="488.4,337.7 488.4,327.7 537.9,327.7 537.9,337.7 		"/>
		<polygon class="st2" points="488.4,280.7 488.4,270.7 537.9,270.7 537.9,280.7 		"/>
		<polygon class="st2" points="488.4,318.6 488.4,308.7 537.9,308.7 537.9,318.6 		"/>
		<polygon class="st2" points="488.4,261.6 488.4,251.7 537.9,251.7 537.9,261.6 		"/>
		<polygon class="st2" points="251.6,184.6 261.5,184.6 261.5,234.2 251.6,234.2 		"/>
		<polygon class="st2" points="270.6,184.6 280.6,184.6 280.6,234.2 270.6,234.2 		"/>
		<polygon class="st2" points="289.7,184.6 299.6,184.6 299.6,234.2 289.7,234.2 		"/>
		<polygon class="st2" points="308.6,184.6 318.5,184.6 318.5,234.2 308.6,234.2 		"/>
		<polygon class="st2" points="327.6,184.6 337.6,184.6 337.6,234.2 327.6,234.2 		"/>
		<polygon class="st2" points="346.7,184.6 356.6,184.6 356.6,234.2 346.7,234.2 		"/>
		<polygon class="st2" points="365.6,184.6 375.6,184.6 375.6,234.2 365.6,234.2 		"/>
		<polygon class="st2" points="422.6,184.6 432.6,184.6 432.6,234.2 422.6,234.2 		"/>
		<polygon class="st2" points="384.5,184.6 394.5,184.6 394.5,234.2 384.5,234.2 		"/>
		<polygon class="st2" points="441.5,184.6 451.5,184.6 451.5,234.2 441.5,234.2 		"/>
		<polygon class="st2" points="403.6,184.6 413.5,184.6 413.5,234.2 403.6,234.2 		"/>
		<polygon class="st2" points="460.6,184.6 470.6,184.6 470.6,234.2 460.6,234.2 		"/>
		<path class="st3" d="M233.4,230.4c2.1,0,3.8,1.7,3.8,3.8s-1.7,3.8-3.8,3.8s-3.8-1.7-3.8-3.8C229.6,232.1,231.3,230.4,233.4,230.4
			L233.4,230.4z"/>
		<path class="st3" d="M488.3,230.5c2.1,0,3.8,1.7,3.8,3.8s-1.7,3.8-3.8,3.8s-3.8-1.7-3.8-3.8S486.2,230.5,488.3,230.5L488.3,230.5z
			"/>
		<path class="st3" d="M488.3,485.5c2.1,0,3.8,1.7,3.8,3.8s-1.7,3.8-3.8,3.8s-3.8-1.7-3.8-3.8C484.5,487.3,486.2,485.5,488.3,485.5
			L488.3,485.5z"/>
		<path class="st3" d="M233.4,485.5c2.1,0,3.8,1.7,3.8,3.8s-1.7,3.8-3.8,3.8s-3.8-1.7-3.8-3.8C229.6,487.3,231.3,485.5,233.4,485.5
			L233.4,485.5z"/>
		<path class="st2" d="M463.9,364.5l-0.7-3.8c0.8-0.1,1.6-0.2,2.5-0.5c4.4-0.5,7-0.7,10.8-0.8v3.8
			C472.8,363.4,468.3,363.9,463.9,364.5L463.9,364.5z M454.9,362.5l0.7,3.5c-3.7,1-7.3,2.3-10.7,3.6l-1.3-3.6
			C447.3,364.7,451.1,363.5,454.9,362.5L454.9,362.5z M435.9,369.2l1.3,3.6c-3.3,1.5-6.7,3.2-9.9,5l-2-3.3
			C428.6,372.6,432.2,370.7,435.9,369.2L435.9,369.2z M418,378.8l2,3.3c-3,2.1-6,4.2-8.9,6.3l-2.4-3
			C411.7,383.2,414.8,380.9,418,378.8L418,378.8z M402.1,391l2.4,2.8c-2.8,2.5-5.4,5.1-8,7.6l-2.8-2.3
			C396.4,396.3,399.2,393.6,402.1,391L402.1,391z M388.2,405.3l2.7,2.3c-2.4,2.9-4.7,5.9-6.9,8.9l-3-1.7
			C383.1,411.6,385.6,408.4,388.2,405.3L388.2,405.3z M376.4,421.7l2.9,1.7c-2.1,3.3-3.9,6.7-5.5,10l-3.2-1.2
			C372.3,428.8,374.3,425.2,376.4,421.7L376.4,421.7z M367,440l3.3,1.2c-1.5,3.7-2.8,7.4-3.8,11.1l-3.7-0.7
			C364,447.6,365.4,443.8,367,440L367,440z M360.9,459.7l3.7,0.7c-1,5.8-1.6,11.7-1.6,16.9h-4l0.3-6.5
			C359.7,466.8,360.2,463.4,360.9,459.7L360.9,459.7z"/>
		<path class="st2" d="M464.2,358.2l-0.7,3.8c0.8,0.1,1.6,0.2,2.5,0.5c4.4,0.5,7,0.7,10.9,0.8v-3.8
			C473.1,359.3,468.6,358.8,464.2,358.2L464.2,358.2z M455.2,360.2l0.7-3.5c-3.7-1-7.3-2.3-10.7-3.6l-1.3,3.6
			C447.5,358,451.4,359.2,455.2,360.2L455.2,360.2z M436.1,353.5l1.3-3.6c-3.3-1.5-6.7-3.2-9.9-5l-2,3.3
			C428.8,350.2,432.4,352,436.1,353.5L436.1,353.5z M418.2,343.9l2-3.3c-3-2.1-6-4.2-8.9-6.3l-2.4,3
			C411.9,339.5,415,341.8,418.2,343.9L418.2,343.9z M402.3,331.7l2.4-2.8c-2.8-2.5-5.4-5.1-8-7.6l-2.8,2.3
			C396.6,326.4,399.4,329.2,402.3,331.7L402.3,331.7z M388.5,317.4l2.7-2.3c-2.4-2.9-4.7-5.9-6.9-8.9l-3,1.7
			C383.4,311.1,385.8,314.3,388.5,317.4L388.5,317.4z M376.7,301l2.9-1.7c-2.1-3.3-3.9-6.7-5.5-10l-3.2,1.2
			C372.5,293.9,374.5,297.5,376.7,301L376.7,301z M367.2,282.8l3.3-1.2c-1.5-3.7-2.8-7.4-3.8-11.1l-3.7,0.7
			C364.2,275.1,365.6,278.9,367.2,282.8L367.2,282.8z M361.1,263l3.7-0.7c-1-5.8-1.6-11.7-1.6-16.9h-3.9l0.3,6.5
			C359.9,255.9,360.4,259.3,361.1,263L361.1,263z"/>
		<path class="st2" d="M257.9,358.2l0.7,3.8c-0.8,0.1-1.6,0.2-2.5,0.5c-4.4,0.5-7,0.7-10.9,0.8v-3.8
			C249,359.3,253.5,358.8,257.9,358.2L257.9,358.2z M266.9,360.2l-0.7-3.5c3.7-1,7.3-2.3,10.7-3.6l1.3,3.6
			C274.5,358,270.7,359.2,266.9,360.2L266.9,360.2z M286,353.5l-1.3-3.6c3.3-1.5,6.7-3.2,9.9-5l2,3.3
			C293.2,350.2,289.7,352,286,353.5L286,353.5z M303.8,343.9l-2-3.3c3-2.1,6-4.2,8.9-6.3l2.4,3C310.2,339.5,307.1,341.8,303.8,343.9
			L303.8,343.9z M319.8,331.7l-2.4-2.8c2.8-2.5,5.4-5.1,8-7.6l2.8,2.3C325.4,326.4,322.7,329.2,319.8,331.7L319.8,331.7z
			 M333.6,317.4l-2.7-2.3c2.4-2.9,4.7-5.9,6.9-8.9l3,1.7C338.7,311.1,336.3,314.3,333.6,317.4L333.6,317.4z M345.4,301l-2.9-1.7
			c2.1-3.3,3.9-6.7,5.5-10l3.2,1.2C349.6,293.9,347.6,297.5,345.4,301L345.4,301z M354.9,282.8l-3.3-1.2c1.5-3.7,2.8-7.4,3.8-11.1
			l3.7,0.7C357.9,275.1,356.5,278.9,354.9,282.8L354.9,282.8z M361,263l-3.7-0.7c1-5.8,1.6-11.7,1.6-16.9h3.9l-0.3,6.5
			C362.1,255.9,361.7,259.3,361,263L361,263z"/>
		<path class="st2" d="M257.9,364.5l0.7-3.8c-0.8-0.1-1.6-0.2-2.5-0.5c-4.4-0.5-7-0.7-10.9-0.8v3.8
			C249,363.4,253.5,363.9,257.9,364.5L257.9,364.5z M266.9,362.5l-0.7,3.5c3.7,1,7.3,2.3,10.7,3.6l1.3-3.6
			C274.5,364.7,270.7,363.5,266.9,362.5L266.9,362.5z M286,369.2l-1.3,3.6c3.3,1.5,6.7,3.2,9.9,5l2-3.3
			C293.2,372.6,289.7,370.7,286,369.2L286,369.2z M303.8,378.8l-2,3.3c3,2.1,6,4.2,8.9,6.3l2.4-3
			C310.2,383.2,307.1,380.9,303.8,378.8L303.8,378.8z M319.8,391l-2.4,2.8c2.8,2.5,5.4,5.1,8,7.6l2.8-2.3
			C325.4,396.3,322.7,393.6,319.8,391L319.8,391z M333.6,405.3l-2.7,2.3c2.4,2.9,4.7,5.9,6.9,8.9l3-1.7
			C338.7,411.6,336.3,408.4,333.6,405.3L333.6,405.3z M345.4,421.7l-2.9,1.7c2.1,3.3,3.9,6.7,5.5,10l3.2-1.2
			C349.6,428.8,347.6,425.2,345.4,421.7L345.4,421.7z M354.9,440l-3.3,1.2c1.5,3.7,2.8,7.4,3.8,11.1l3.7-0.7
			C357.9,447.6,356.5,443.8,354.9,440L354.9,440z M361,459.7l-3.7,0.7c1,5.8,1.6,11.7,1.6,16.9h3.9l-0.3-6.5
			C362.1,466.8,361.7,463.4,361,459.7L361,459.7z"/>
		<path class="st4" d="M245.2,1.8v220.5c0,16.2-7.5,23.3-23.4,23.3H1.8 M1.8,477.2h220c14.9,0,23.4,8.9,23.4,23.8v220.7
			 M476.6,721.7V501c0-15,8.1-23.8,23.5-23.8h220 M720.2,245.7h-220c-15.8,0-23.5-7.2-23.5-23.4V1.8"/>
		<path class="st4" d="M221.8,1.8l-0.1,220.3H1.8 M1.8,501h220v220.7 M500.2,721.7V501h220 M720.2,222.2H500.1V1.8"/>
	</g>
</g>
</svg>
