<?xml version="1.0" encoding="utf-8"?>
<!-- Generator: Adobe Illustrator 19.2.0, SVG Export Plug-In . SVG Version: 6.00 Build 0)  -->
<svg version="1.1" id="Livello_1" xmlns="http://www.w3.org/2000/svg" xmlns:xlink="http://www.w3.org/1999/xlink" x="0px" y="0px"
	 viewBox="0 0 875 464.6" style="enable-background:new 0 0 875 464.6;" xml:space="preserve">
<style type="text/css">
	.st0{fill:#B9B9B9;}
	.st1{fill:#FFFFFF;stroke:#FFFFFF;stroke-width:0.1481;stroke-miterlimit:2.6131;}
	.st2{fill:#FFEC00;stroke:#FFEC00;stroke-width:0.1481;stroke-miterlimit:2.6131;}
</style>
<g>
	<g>
		<polygon class="st0" points="1,61.6 870.9,61.6 870.9,463.2 1,463.2 		"/>
		<polygon class="st1" points="357.4,254.3 871,254.3 871,259.6 357.4,259.6 		"/>
		<polygon class="st1" points="1,132.6 214.1,132.6 214.1,137.9 1,137.9 		"/>
		<polygon class="st1" points="619.3,132.6 870.9,132.6 870.9,137.9 619.3,137.9 		"/>
		<polygon class="st1" points="357.4,386.5 871,386.5 871,391.8 357.4,391.8 		"/>
		<polygon class="st1" points="357.4,264.8 389,264.8 389,270.1 357.4,270.1 		"/>
		<polygon class="st1" points="413,264.8 444.5,264.8 444.5,270.1 413,270.1 		"/>
		<polygon class="st1" points="16.7,254.3 48.2,254.3 48.2,259.6 16.7,259.6 		"/>
		<polygon class="st1" points="579,264.8 610.5,264.8 610.5,270.1 579,270.1 		"/>
		<polygon class="st1" points="182.7,254.3 214.2,254.3 214.2,259.6 182.7,259.6 		"/>
		<polygon class="st1" points="745,264.8 776.5,264.8 776.5,270.1 745,270.1 		"/>
		<polygon class="st1" points="468.3,264.8 499.8,264.8 499.8,270.1 468.3,270.1 		"/>
		<polygon class="st1" points="72,254.3 103.5,254.3 103.5,259.6 72,259.6 		"/>
		<polygon class="st1" points="634.3,264.8 665.8,264.8 665.8,270.1 634.3,270.1 		"/>
		<polygon class="st1" points="800.3,264.8 831.8,264.8 831.8,270.1 800.3,270.1 		"/>
		<polygon class="st1" points="523.7,264.8 555.3,264.8 555.3,270.1 523.7,270.1 		"/>
		<polygon class="st1" points="127.4,254.3 158.9,254.3 158.9,259.6 127.4,259.6 		"/>
		<polygon class="st1" points="689.7,264.8 721.3,264.8 721.3,270.1 689.7,270.1 		"/>
		<polygon class="st1" points="855.7,264.8 871,264.8 871,270.1 855.7,270.1 		"/>
		<polygon class="st1" points="357.3,455.4 357.3,391.8 362.6,391.8 362.6,455.4 		"/>
		<polygon class="st1" points="548.2,455.4 548.2,391.8 553.5,391.8 553.5,455.4 		"/>
		<polygon class="st1" points="619.3,132.6 619.3,69 624.6,69 624.6,132.6 		"/>
		<polygon class="st1" points="208.8,132.6 208.8,69 214.1,69 214.1,132.6 		"/>
		<polygon class="st1" points="17.9,132.6 17.9,69 23.2,69 23.2,132.6 		"/>
		<polygon class="st1" points="810.3,132.6 810.3,69 815.6,69 815.6,132.6 		"/>
		<polygon class="st1" points="739.2,455.4 739.2,391.8 744.5,391.8 744.5,455.4 		"/>
		<polygon class="st1" points="1,264.8 214.1,264.8 214.1,270.1 1,270.1 		"/>
		<polygon class="st2" points="361.9,126.6 419.4,69 485.2,129.3 551.1,69 608.7,126.6 608.7,69.4 613.2,69.4 613.2,138 550.8,75.4 
			485.2,135.4 419.6,75.4 357.3,138 357.3,69.4 361.9,69.4 		"/>
		<polygon class="st2" points="1.1,436.7 1.1,430 20.4,449.2 86,389.2 151.7,449.2 214.1,386.5 214.1,455.1 209.6,455.1 
			209.6,397.9 152,455.6 86,395.3 20.2,455.6 		"/>
		<polygon class="st1" points="244.8,430.7 326.6,430.7 326.6,446.2 244.8,446.2 		"/>
		<polygon class="st1" points="244.8,174.5 326.6,174.5 326.6,190 244.8,190 		"/>
		<polygon class="st1" points="244.8,302.9 326.6,302.9 326.6,318.4 244.8,318.4 		"/>
		<polygon class="st1" points="244.8,367.1 326.6,367.1 326.6,382.5 244.8,382.5 		"/>
		<polygon class="st1" points="244.8,110.4 326.6,110.4 326.6,125.8 244.8,125.8 		"/>
		<polygon class="st1" points="244.8,238.7 326.6,238.7 326.6,254.2 244.8,254.2 		"/>
		<polygon class="st1" points="244.8,399 326.6,399 326.6,414.5 244.8,414.5 		"/>
		<polygon class="st1" points="244.8,142.3 326.6,142.3 326.6,157.8 244.8,157.8 		"/>
		<polygon class="st1" points="244.8,270.7 326.6,270.7 326.6,286.1 244.8,286.1 		"/>
		<polygon class="st1" points="244.8,334.8 326.6,334.8 326.6,350.3 244.8,350.3 		"/>
		<polygon class="st1" points="244.8,78.1 326.6,78.1 326.6,93.6 244.8,93.6 		"/>
		<polygon class="st1" points="244.8,206.5 326.6,206.5 326.6,222 244.8,222 		"/>
	</g>
</g>
</svg>
