<?xml version="1.0" encoding="utf-8"?>
<!-- Generator: Adobe Illustrator 19.2.0, SVG Export Plug-In . SVG Version: 6.00 Build 0)  -->
<svg version="1.1" id="Livello_1" xmlns="http://www.w3.org/2000/svg" xmlns:xlink="http://www.w3.org/1999/xlink" x="0px" y="0px"
	 viewBox="0 0 875.6 293.6" style="enable-background:new 0 0 875.6 293.6;" xml:space="preserve">
<style type="text/css">
	.st0{fill:#DCDCDC;}
	.st1{fill:#B9B9B9;}
	.st2{fill:#FFEC00;stroke:#FFEC00;stroke-width:0.1178;stroke-miterlimit:2.6131;}
	.st3{fill:#FFEC00;}
	.st4{fill:none;stroke:#B0B2B3;stroke-width:0.1178;stroke-miterlimit:2.6131;}
	.st5{fill:#FFFFFF;stroke:#FFFFFF;stroke-width:0.1178;stroke-miterlimit:2.6131;}
</style>
<g>
	<g>
		<polygon class="st0" points="871.6,63.4 1.6,63.4 1.6,292.8 871.6,292.8 		"/>
		<polygon class="st1" points="1.6,275 871.2,275 871.2,81.2 1.6,81.2 		"/>
		<polygon class="st2" points="58,228.7 101.1,267.4 142.3,230.2 183.7,267.4 224.8,230.2 266,267.4 309,228.7 309,271.6 
			305.7,271.6 305.7,236 266,271.8 224.8,234.6 183.7,271.8 142.3,234.6 101.1,271.8 61.3,236 61.3,271.6 58,271.6 		"/>
		<polygon class="st2" points="338.7,232 338.7,228.7 356.3,228.7 356.3,232 		"/>
		<polygon class="st2" points="397.9,232 397.9,228.7 415.5,228.7 415.5,232 		"/>
		<polygon class="st2" points="457.2,232 457.2,228.7 474.8,228.7 474.8,232 		"/>
		<polygon class="st2" points="427.7,232 427.7,228.7 445.3,228.7 445.3,232 		"/>
		<polygon class="st2" points="487,232 487,228.7 504.6,228.7 504.6,232 		"/>
		<polygon class="st2" points="516.5,232 516.5,228.7 534.1,228.7 534.1,232 		"/>
		<polygon class="st2" points="546.3,232 546.3,228.7 563.9,228.7 563.9,232 		"/>
		<polygon class="st2" points="368.3,232 368.3,228.7 385.9,228.7 385.9,232 		"/>
		<polygon class="st2" points="308.9,232 308.9,228.7 326.5,228.7 326.5,232 		"/>
		<polygon class="st2" points="564.1,228.5 607.2,267.1 648.4,229.9 689.8,267.1 730.9,229.9 772.1,267.1 815.1,228.5 815.1,271.4 
			811.8,271.4 811.8,235.8 772.1,271.6 730.9,234.4 689.8,271.6 648.4,234.4 607.2,271.6 567.3,235.8 567.3,271.4 564.1,271.4 		"/>
		<path class="st3" d="M423.2,240.3v3.8c0,0.8-0.1,1.3-0.3,1.7c-0.2,0.4-0.6,0.7-1.2,1s-1.4,0.5-2.4,0.7s-2.1,0.3-3.3,0.3
			c-1.3,0-2.6-0.1-3.7-0.4c-1.1-0.2-1.9-0.6-2.5-1c-0.5,0.6-1.4,1-2.6,1.3s-2.6,0.5-4.3,0.5c-1.3,0-2.5-0.1-3.8-0.3
			c-1.2-0.2-2.2-0.5-2.9-0.8c-0.7-0.3-1.2-0.8-1.4-1.3c-0.1-0.3-0.2-1.1-0.2-2.3v-3.2H423.2L423.2,240.3z M418.4,242.2h-6.6v1.3
			c0,0.7,0,1.2,0.1,1.4c0.1,0.3,0.5,0.6,1,0.8c0.6,0.2,1.3,0.3,2.2,0.3c0.9,0,1.6-0.1,2.1-0.2c0.5-0.2,0.9-0.4,1-0.7
			c0.1-0.2,0.1-0.7,0.1-1.6L418.4,242.2L418.4,242.2z M407.1,242.2h-7.6v1.8c0,0.7,0.1,1.1,0.2,1.3c0.2,0.3,0.5,0.5,1.1,0.7
			s1.4,0.3,2.4,0.3c0.9,0,1.6-0.1,2.2-0.2s1-0.3,1.3-0.6s0.4-0.8,0.4-1.7V242.2L407.1,242.2z"/>
		<path class="st3" d="M423.2,249.9v1.9h-15.4c-2.4,0-4,0-4.8,0.1c-1.2,0.1-2.1,0.3-2.8,0.6c-0.7,0.3-1.1,0.7-1.1,1.3
			c0,0.5,0.3,1,1,1.2c0.7,0.3,1.5,0.4,2.5,0.5s2.6,0.1,4.8,0.1h15.7v1.9h-14.9c-3.4,0-5.8-0.1-7.2-0.2c-1.4-0.1-2.6-0.3-3.6-0.6
			c-1-0.3-1.7-0.7-2.3-1.1c-0.6-0.5-0.9-1.1-0.9-1.8c0-0.9,0.3-1.6,0.9-2.1s1.4-0.8,2.4-1.1s2.1-0.5,3.2-0.5c1.6-0.1,4-0.2,7.2-0.2
			L423.2,249.9L423.2,249.9z"/>
		<path class="st3" d="M404,259l0.5,1.9c-1.9,0.1-3.3,0.3-4.1,0.7c-0.9,0.3-1.3,0.8-1.3,1.4s0.4,1.1,1.2,1.4
			c0.8,0.3,1.7,0.5,2.7,0.5c0.7,0,1.2-0.1,1.7-0.2s0.9-0.4,1.2-0.7c0.2-0.2,0.6-0.7,1.2-1.5c0.8-1,1.7-1.8,2.8-2.2
			c1.6-0.6,3.5-0.9,5.7-0.9c1.4,0,2.8,0.1,4.1,0.4c1.3,0.3,2.2,0.7,2.9,1.2c0.7,0.5,1,1.1,1,1.9c0,1.2-0.8,2.1-2.3,2.7
			c-1.6,0.6-3.7,0.9-6.3,1l-0.3-1.9c1.5-0.1,2.5-0.3,3.2-0.5c0.6-0.3,1-0.7,1-1.2c0-0.6-0.3-1-1-1.3c-0.4-0.2-1-0.3-1.8-0.3
			c-0.7,0-1.3,0.1-1.7,0.3c-0.6,0.2-1.2,0.8-1.9,1.8c-0.7,0.9-1.3,1.6-2,2.1c-0.7,0.4-1.7,0.8-2.9,1.1c-1.2,0.3-2.7,0.4-4.5,0.4
			c-1.6,0-3.2-0.2-4.6-0.5s-2.5-0.7-3.2-1.3s-1-1.2-1-2.1c0-1.2,0.8-2.1,2.5-2.8C398.4,259.5,400.8,259.2,404,259L404,259z"/>
		<line class="st4" x1="1.6" y1="292.8" x2="871.6" y2="292.8"/>
		<line class="st4" x1="1.6" y1="63.4" x2="871.6" y2="63.4"/>
		<polygon class="st5" points="1.6,180 871.2,180 871.2,176.2 1.6,176.2 		"/>
	</g>
</g>
</svg>
