<?xml version="1.0" encoding="utf-8"?>
<!-- Generator: Adobe Illustrator 19.2.0, SVG Export Plug-In . SVG Version: 6.00 Build 0)  -->
<svg version="1.1" id="Livello_1" xmlns="http://www.w3.org/2000/svg" xmlns:xlink="http://www.w3.org/1999/xlink" x="0px" y="0px"
	 viewBox="0 0 722.2 397" style="enable-background:new 0 0 722.2 397;" xml:space="preserve">
<style type="text/css">
	.st0{fill:#DCDCDC;}
	.st1{fill:#B9B9B9;}
	.st2{fill:#FFFFFF;}
</style>
<g>
	<g>
		<polygon class="st0" points="341,75.6 340.9,61.3 1.3,61.3 1.3,335.1 341,335.1 341,327.1 433.1,327.1 433.1,75.6 		"/>
		<path class="st1" d="M433,301.3L433,301.3l0.1-225.7h-60.2v-0.5c0,11-8,18.1-18.5,18.1H1.4v1.9v208.2h352.8
			c10.6,0,18.6,7,18.6,18.1v5.7h60.1L433,301.3L433,301.3z"/>
		<polygon class="st2" points="1.3,95 1.3,98 356.2,98 356.2,95 		"/>
		<polygon class="st2" points="1.3,301.6 1.3,298.6 356.2,298.6 356.2,301.6 		"/>
		<polygon class="st2" points="377.8,199.1 377.8,202 1.3,202 1.3,199.1 		"/>
		<polygon class="st2" points="377.8,194.5 377.8,197.4 1.3,197.4 1.3,194.5 		"/>
		<polygon class="st2" points="205.1,218.5 239.6,218.5 245.5,212.1 252.5,212.1 240.6,207.9 228.6,212.1 235.6,212.1 231.8,216 
			205.1,216 		"/>
		<polygon class="st2" points="205.1,251.5 233.8,251.5 233.8,254.6 252.5,250.2 233.8,245.9 233.8,249 205.1,248.9 		"/>
		<polygon class="st2" points="205.1,282.1 217.5,282.1 233.8,282 233.8,278.9 252.5,283.3 233.8,287.6 233.8,284.5 219.7,284.5 
			223.4,288.5 230.4,288.5 218.5,292.7 206.5,288.5 213.4,288.5 209.5,284.6 205.1,284.6 		"/>
		<polygon class="st2" points="41.2,218.5 75.7,218.5 81.6,212.1 88.6,212.1 76.7,207.9 64.7,212.1 71.7,212.1 67.9,216 41.2,216 		
			"/>
		<polygon class="st2" points="41.2,251.5 69.9,251.5 69.9,254.6 88.6,250.2 69.9,245.9 69.9,249 41.2,248.9 		"/>
		<polygon class="st2" points="41.2,282.1 53.6,282.1 69.9,282 69.9,278.9 88.6,283.3 69.9,287.6 69.9,284.5 55.8,284.5 59.5,288.5 
			66.4,288.5 54.6,292.7 42.6,288.5 49.5,288.5 45.6,284.6 41.2,284.6 		"/>
		<polygon class="st2" points="34.7,128.3 44.2,128.3 44.2,131.2 34.7,131.2 		"/>
		<polygon class="st2" points="17.5,128.3 26.9,128.3 26.9,131.2 17.5,131.2 		"/>
		<polygon class="st2" points="52.1,128.3 61.5,128.3 61.5,131.2 52.1,131.2 		"/>
		<polygon class="st2" points="69.4,128.3 78.8,128.3 78.8,131.2 69.4,131.2 		"/>
		<polygon class="st2" points="86.7,128.3 96.1,128.3 96.1,131.2 86.7,131.2 		"/>
		<polygon class="st2" points="104,128.3 113.5,128.3 113.5,131.2 104,131.2 		"/>
		<polygon class="st2" points="138.7,128.3 148.1,128.3 148.1,131.2 138.7,131.2 		"/>
		<polygon class="st2" points="121.4,128.3 130.8,128.3 130.8,131.2 121.4,131.2 		"/>
		<polygon class="st2" points="1.2,128.3 9.6,128.3 9.6,131.2 1.2,131.2 		"/>
		<polygon class="st2" points="34.8,161.4 44.2,161.4 44.2,164.2 34.8,164.2 		"/>
		<polygon class="st2" points="17.5,161.4 26.9,161.4 26.9,164.2 17.5,164.2 		"/>
		<polygon class="st2" points="52.1,161.4 61.5,161.4 61.5,164.2 52.1,164.2 		"/>
		<polygon class="st2" points="69.4,161.4 78.8,161.4 78.8,164.2 69.4,164.2 		"/>
		<polygon class="st2" points="86.7,161.4 96.1,161.4 96.1,164.2 86.7,164.2 		"/>
		<polygon class="st2" points="104,161.4 113.5,161.4 113.5,164.2 104,164.2 		"/>
		<polygon class="st2" points="138.7,161.4 148.1,161.4 148.1,164.2 138.7,164.2 		"/>
		<polygon class="st2" points="121.4,161.4 130.8,161.4 130.8,164.2 121.4,164.2 		"/>
		<polygon class="st2" points="1.2,161.4 9.6,161.4 9.6,164.2 1.2,164.2 		"/>
		<polygon class="st2" points="156,161.4 165.4,161.4 165.4,164.2 156,164.2 		"/>
		<polygon class="st2" points="173.3,161.4 182.7,161.4 182.7,164.2 173.3,164.2 		"/>
		<polygon class="st2" points="190.7,161.4 200.1,161.4 200.1,164.2 190.7,164.2 		"/>
		<polygon class="st2" points="208,161.4 217.4,161.4 217.4,164.2 208,164.2 		"/>
		<polygon class="st2" points="242.6,161.4 252,161.4 252,164.2 242.6,164.2 		"/>
		<polygon class="st2" points="225.3,161.4 234.7,161.4 234.7,164.2 225.3,164.2 		"/>
		<polygon class="st2" points="156,128.3 165.4,128.3 165.4,131.2 156,131.2 		"/>
		<polygon class="st2" points="173.3,128.3 182.7,128.3 182.7,131.2 173.3,131.2 		"/>
		<polygon class="st2" points="190.7,128.3 200.1,128.3 200.1,131.2 190.7,131.2 		"/>
		<polygon class="st2" points="208,128.3 217.4,128.3 217.4,131.2 208,131.2 		"/>
		<polygon class="st2" points="242.6,128.3 252,128.3 252,131.2 242.6,131.2 		"/>
		<polygon class="st2" points="225.3,128.3 234.7,128.3 234.7,131.2 225.3,131.2 		"/>
		<polygon class="st2" points="53.3,265.5 62.7,265.5 62.7,268.3 53.3,268.3 		"/>
		<polygon class="st2" points="70.7,265.5 80.1,265.5 80.1,268.3 70.7,268.3 		"/>
		<polygon class="st2" points="88,265.5 97.4,265.5 97.4,268.3 88,268.3 		"/>
		<polygon class="st2" points="105.3,265.5 114.7,265.5 114.7,268.3 105.3,268.3 		"/>
		<polygon class="st2" points="122.6,265.5 132,265.5 132,268.3 122.6,268.3 		"/>
		<polygon class="st2" points="157.3,265.5 166.7,265.5 166.7,268.3 157.3,268.3 		"/>
		<polygon class="st2" points="139.9,265.5 149.4,265.5 149.4,268.3 139.9,268.3 		"/>
		<polygon class="st2" points="1.3,265.5 10.7,265.5 10.7,268.4 1.3,268.4 		"/>
		<polygon class="st2" points="18.6,265.5 28.1,265.5 28.1,268.4 18.6,268.4 		"/>
		<polygon class="st2" points="36,265.5 45.4,265.5 45.4,268.4 36,268.4 		"/>
		<polygon class="st2" points="53.3,232.3 62.7,232.3 62.7,235.2 53.3,235.2 		"/>
		<polygon class="st2" points="70.7,232.3 80.1,232.3 80.1,235.2 70.7,235.2 		"/>
		<polygon class="st2" points="88,232.3 97.4,232.3 97.4,235.2 88,235.2 		"/>
		<polygon class="st2" points="105.3,232.3 114.7,232.3 114.7,235.2 105.3,235.2 		"/>
		<polygon class="st2" points="122.6,232.3 132,232.3 132,235.2 122.6,235.2 		"/>
		<polygon class="st2" points="157.3,232.3 166.7,232.3 166.7,235.2 157.3,235.2 		"/>
		<polygon class="st2" points="139.9,232.3 149.4,232.3 149.4,235.2 139.9,235.2 		"/>
		<polygon class="st2" points="1.4,232.3 10.8,232.3 10.8,235.2 1.4,235.2 		"/>
		<polygon class="st2" points="36,232.3 45.4,232.3 45.4,235.2 36,235.2 		"/>
		<polygon class="st2" points="18.7,232.3 28.1,232.3 28.1,235.2 18.7,235.2 		"/>
		<polygon class="st0" points="593.4,0.5 593.3,61.3 253.7,61.3 253.7,335.1 593.4,335.1 593.4,396.1 685.5,396.1 685.5,0.5 		"/>
		<path class="st1" d="M721.2,0.5h-96v74.6c0,11-8,18.1-18.5,18.1h-353v1.9v208.2h353c10.6,0,18.6,7,18.6,18.1v74.7h95.9V0.5
			L721.2,0.5z"/>
		<polygon class="st2" points="253.7,95 253.7,98 608.6,98 608.6,95 		"/>
		<polygon class="st2" points="253.7,301.6 253.7,298.6 608.6,298.6 608.6,301.6 		"/>
		<polygon class="st2" points="627.3,319.8 630.3,320.2 630.3,396.1 627.3,396.1 		"/>
		<polygon class="st2" points="630.2,199.1 630.2,202 253.7,202 253.7,199.1 		"/>
		<polygon class="st2" points="630.2,194.5 630.2,197.4 253.7,197.4 253.7,194.5 		"/>
		<polygon class="st2" points="630.2,194.7 630.2,324.1 627.4,312.8 621.8,303.6 621.8,194.7 		"/>
		<polygon class="st2" points="627.3,76.8 630.3,76.3 630.3,0.5 627.3,0.5 		"/>
		<path class="st2" d="M627.4,75l2.9,0.8c0,11.9-9.8,22.1-21.8,22.1v-3C618.9,95,627.3,86.6,627.4,75L627.4,75z"/>
		<path class="st2" d="M627.4,320.5l2.9-0.2c0-11.9-9.6-21.7-21.6-21.7l-0.2,3C618.9,301.6,627,309.8,627.4,320.5L627.4,320.5z"/>
		<polygon class="st2" points="532.9,218.5 567.4,218.5 573.3,212.1 580.3,212.1 568.4,207.9 556.4,212.1 563.4,212.1 559.6,216 
			532.9,216 		"/>
		<polygon class="st2" points="532.9,251.5 561.6,251.5 561.6,254.6 580.3,250.2 561.6,245.9 561.6,249 532.9,248.9 		"/>
		<polygon class="st2" points="532.9,282.1 545.3,282.1 561.6,282 561.6,278.9 580.3,283.3 561.6,287.6 561.6,284.5 547.5,284.5 
			551.2,288.5 558.1,288.5 546.3,292.7 534.3,288.5 541.2,288.5 537.3,284.6 532.9,284.6 		"/>
		<polygon class="st2" points="369,218.5 403.5,218.5 409.4,212.1 416.4,212.1 404.5,207.9 392.5,212.1 399.5,212.1 395.7,216 
			369,216 		"/>
		<polygon class="st2" points="369,251.5 397.7,251.5 397.7,254.6 416.4,250.2 397.7,245.9 397.7,249 369,248.9 		"/>
		<polygon class="st2" points="369,282.1 381.4,282.1 397.7,282 397.7,278.9 416.4,283.3 397.7,287.6 397.7,284.5 383.6,284.5 
			387.3,288.5 394.2,288.5 382.4,292.7 370.4,288.5 377.3,288.5 373.4,284.6 369,284.6 		"/>
		<polygon class="st2" points="277.1,128.3 286.5,128.3 286.5,131.2 277.1,131.2 		"/>
		<polygon class="st2" points="294.4,128.3 303.8,128.3 303.8,131.2 294.4,131.2 		"/>
		<polygon class="st2" points="311.7,128.3 321.2,128.3 321.2,131.2 311.7,131.2 		"/>
		<polygon class="st2" points="329.1,128.3 338.5,128.3 338.5,131.2 329.1,131.2 		"/>
		<polygon class="st2" points="346.4,128.3 355.8,128.3 355.8,131.2 346.4,131.2 		"/>
		<polygon class="st2" points="381,128.3 390.4,128.3 390.4,131.2 381,131.2 		"/>
		<polygon class="st2" points="363.7,128.3 373.1,128.3 373.1,131.2 363.7,131.2 		"/>
		<polygon class="st2" points="277.1,161.4 286.5,161.4 286.5,164.2 277.1,164.2 		"/>
		<polygon class="st2" points="294.4,161.4 303.8,161.4 303.8,164.2 294.4,164.2 		"/>
		<polygon class="st2" points="311.7,161.4 321.2,161.4 321.2,164.2 311.7,164.2 		"/>
		<polygon class="st2" points="329.1,161.4 338.5,161.4 338.5,164.2 329.1,164.2 		"/>
		<polygon class="st2" points="346.4,161.4 355.8,161.4 355.8,164.2 346.4,164.2 		"/>
		<polygon class="st2" points="381,161.4 390.4,161.4 390.4,164.2 381,164.2 		"/>
		<polygon class="st2" points="363.7,161.4 373.1,161.4 373.1,164.2 363.7,164.2 		"/>
		<polygon class="st2" points="502.3,161.4 511.7,161.4 511.7,164.2 502.3,164.2 		"/>
		<polygon class="st2" points="519.6,161.4 529,161.4 529,164.2 519.6,164.2 		"/>
		<polygon class="st2" points="536.9,161.4 546.3,161.4 546.3,164.2 536.9,164.2 		"/>
		<polygon class="st2" points="554.2,161.4 563.7,161.4 563.7,164.2 554.2,164.2 		"/>
		<polygon class="st2" points="571.6,161.4 581,161.4 581,164.2 571.6,164.2 		"/>
		<polygon class="st2" points="606.2,161.4 615.6,161.4 615.6,164.2 606.2,164.2 		"/>
		<polygon class="st2" points="588.9,161.4 598.3,161.4 598.3,164.2 588.9,164.2 		"/>
		<polygon class="st2" points="398.4,161.4 407.8,161.4 407.8,164.2 398.4,164.2 		"/>
		<polygon class="st2" points="415.7,161.4 425.1,161.4 425.1,164.2 415.7,164.2 		"/>
		<polygon class="st2" points="433,161.4 442.4,161.4 442.4,164.2 433,164.2 		"/>
		<polygon class="st2" points="450.3,161.4 459.7,161.4 459.7,164.2 450.3,164.2 		"/>
		<polygon class="st2" points="485,161.4 494.4,161.4 494.4,164.2 485,164.2 		"/>
		<polygon class="st2" points="467.7,161.4 477.1,161.4 477.1,164.2 467.7,164.2 		"/>
		<polygon class="st2" points="502.3,128.3 511.7,128.3 511.7,131.2 502.3,131.2 		"/>
		<polygon class="st2" points="519.6,128.3 529,128.3 529,131.2 519.6,131.2 		"/>
		<polygon class="st2" points="536.9,128.3 546.3,128.3 546.3,131.2 536.9,131.2 		"/>
		<polygon class="st2" points="554.2,128.3 563.7,128.3 563.7,131.2 554.2,131.2 		"/>
		<polygon class="st2" points="571.6,128.3 581,128.3 581,131.2 571.6,131.2 		"/>
		<polygon class="st2" points="606.2,128.3 615.6,128.3 615.6,131.2 606.2,131.2 		"/>
		<polygon class="st2" points="588.9,128.3 598.3,128.3 598.3,131.2 588.9,131.2 		"/>
		<polygon class="st2" points="398.4,128.3 407.8,128.3 407.8,131.2 398.4,131.2 		"/>
		<polygon class="st2" points="415.7,128.3 425.1,128.3 425.1,131.2 415.7,131.2 		"/>
		<polygon class="st2" points="433,128.3 442.4,128.3 442.4,131.2 433,131.2 		"/>
		<polygon class="st2" points="450.3,128.3 459.7,128.3 459.7,131.2 450.3,131.2 		"/>
		<polygon class="st2" points="485,128.3 494.4,128.3 494.4,131.2 485,131.2 		"/>
		<polygon class="st2" points="467.7,128.3 477.1,128.3 477.1,131.2 467.7,131.2 		"/>
		<polygon class="st2" points="209.3,265.5 218.7,265.5 218.7,268.3 209.3,268.3 		"/>
		<polygon class="st2" points="226.6,265.5 236,265.5 236,268.3 226.6,268.3 		"/>
		<polygon class="st2" points="243.9,265.5 253.3,265.5 253.3,268.3 243.9,268.3 		"/>
		<polygon class="st2" points="261.2,265.5 270.6,265.5 270.6,268.3 261.2,268.3 		"/>
		<polygon class="st2" points="278.6,265.5 288,265.5 288,268.3 278.6,268.3 		"/>
		<polygon class="st2" points="313.2,265.5 322.6,265.5 322.6,268.3 313.2,268.3 		"/>
		<polygon class="st2" points="295.9,265.5 305.3,265.5 305.3,268.3 295.9,268.3 		"/>
		<polygon class="st2" points="174.6,265.5 184,265.5 184,268.4 174.6,268.4 		"/>
		<polygon class="st2" points="191.9,265.5 201.3,265.5 201.3,268.4 191.9,268.4 		"/>
		<polygon class="st2" points="627.4,265.4 627.4,268.3 330.7,268.3 330.7,265.4 		"/>
		<polygon class="st2" points="209.3,232.3 218.7,232.3 218.7,235.2 209.3,235.2 		"/>
		<polygon class="st2" points="226.6,232.3 236,232.3 236,235.2 226.6,235.2 		"/>
		<polygon class="st2" points="243.9,232.3 253.3,232.3 253.3,235.2 243.9,235.2 		"/>
		<polygon class="st2" points="261.2,232.3 270.6,232.3 270.6,235.2 261.2,235.2 		"/>
		<polygon class="st2" points="278.6,232.3 288,232.3 288,235.2 278.6,235.2 		"/>
		<polygon class="st2" points="313.2,232.3 322.6,232.3 322.6,235.2 313.2,235.2 		"/>
		<polygon class="st2" points="295.9,232.3 305.3,232.3 305.3,235.2 295.9,235.2 		"/>
		<polygon class="st2" points="192,232.3 201.4,232.3 201.4,235.2 192,235.2 		"/>
		<polygon class="st2" points="174.6,232.3 184.1,232.3 184.1,235.2 174.6,235.2 		"/>
		<polygon class="st2" points="626.3,232.3 626.3,235.2 330.7,235.2 330.7,232.3 		"/>
		<polygon class="st2" points="259.9,161.4 269.3,161.4 269.3,164.2 259.9,164.2 		"/>
		<polygon class="st2" points="259.9,128.3 269.3,128.3 269.3,131.2 259.9,131.2 		"/>
	</g>
</g>
</svg>
