<?xml version="1.0" encoding="utf-8"?>
<!-- Generator: Adobe Illustrator 19.2.0, SVG Export Plug-In . SVG Version: 6.00 Build 0)  -->
<svg version="1.1" id="Livello_1" xmlns="http://www.w3.org/2000/svg" xmlns:xlink="http://www.w3.org/1999/xlink" x="0px" y="0px"
	 viewBox="0 0 960 960" style="enable-background:new 0 0 960 960;" xml:space="preserve">
<style type="text/css">
	.st0{fill-rule:evenodd;clip-rule:evenodd;fill:#E2E3E4;}
	.st1{fill-rule:evenodd;clip-rule:evenodd;fill:#CECFD1;}
	.st2{fill-rule:evenodd;clip-rule:evenodd;fill:#FFFFFF;}
</style>
<g>
	<g>
		<polygon class="st0" points="45,247.5 914.9,247.5 914.9,712.5 45,712.5 45,247.5 		"/>
		<polygon class="st1" points="45,278.6 914.9,278.6 914.9,681.4 45,681.4 45,278.6 		"/>
		<polygon class="st2" points="45,477.3 915,477.3 915,482.7 45,482.7 45,477.3 		"/>
		<polygon class="st2" points="525.5,605.4 915,605.4 915,610.7 525.5,610.7 525.5,605.4 		"/>
		<polygon class="st2" points="476.7,605.4 45.1,605.4 45.1,610.7 476.7,610.7 476.7,605.4 		"/>
		<polygon class="st2" points="914.9,354.8 55.1,354.8 55.1,349.4 914.9,349.4 914.9,354.8 		"/>
		<polygon class="st2" points="525.3,675 525.3,610.7 530.7,610.7 530.7,675 525.3,675 		"/>
		<polygon class="st2" points="476.7,675 476.7,605.4 471.4,605.4 471.4,675 476.7,675 		"/>
		<polygon class="st2" points="454.9,285.2 454.9,354.8 449.5,354.8 449.5,285.2 454.9,285.2 		"/>
		<polygon class="st2" points="849.3,285.2 849.3,354.8 843.9,354.8 843.9,285.2 849.3,285.2 		"/>
		<polygon class="st2" points="722.5,675 722.5,610.7 727.8,610.7 727.8,675 722.5,675 		"/>
		<polygon class="st2" points="279.6,675 279.6,610.7 274.2,610.7 274.2,675 279.6,675 		"/>
		<polygon class="st2" points="257.7,285.2 257.7,349.5 252.4,349.5 252.4,285.2 257.7,285.2 		"/>
		<polygon class="st2" points="652.1,285.2 652.1,349.5 646.8,349.5 646.8,285.2 652.1,285.2 		"/>
		<polygon class="st2" points="82.3,675 82.3,610.7 77,610.7 77,675 82.3,675 		"/>
		<polygon class="st2" points="60.5,285.2 60.5,349.5 55.2,349.5 55.2,285.2 60.5,285.2 		"/>
	</g>
</g>
</svg>
