<?xml version="1.0" encoding="utf-8"?>
<!-- Generator: Adobe Illustrator 19.2.0, SVG Export Plug-In . SVG Version: 6.00 Build 0)  -->
<svg version="1.1" id="Livello_1" xmlns="http://www.w3.org/2000/svg" xmlns:xlink="http://www.w3.org/1999/xlink" x="0px" y="0px"
	 viewBox="0 0 869.3 640.5" style="enable-background:new 0 0 869.3 640.5;" xml:space="preserve">
<style type="text/css">
	.st0{fill:#B9B9B9;}
	.st1{fill:#FFFFFF;}
</style>
<g>
	<g>
		<polygon class="st0" points="0,4.5 868.6,4.5 868.6,635.9 0,635.9 		"/>
		<polygon class="st1" points="868.8,423.9 868.8,434.2 816.5,434.2 816.5,423.9 		"/>
		<polygon class="st1" points="649.3,423.9 721.8,423.9 721.8,434.2 649.3,434.2 		"/>
		<polygon class="st1" points="0,434.2 0,423.9 52.1,423.9 52.1,434.2 		"/>
		<polygon class="st1" points="146.9,423.9 219.4,423.9 219.4,434.2 146.9,434.2 		"/>
		<polygon class="st1" points="314.4,423.9 386.9,423.9 386.9,434.2 314.4,434.2 		"/>
		<polygon class="st1" points="481.9,423.9 554.3,423.9 554.3,434.2 481.9,434.2 		"/>
		<polygon class="st1" points="869,515.7 869,526 816.6,526 816.6,515.7 		"/>
		<polygon class="st1" points="649.3,515.7 721.8,515.7 721.8,526 649.3,526 		"/>
		<polygon class="st1" points="0.1,526 0.1,515.7 52.2,515.7 52.2,526 		"/>
		<polygon class="st1" points="146.9,515.7 219.4,515.7 219.4,526 146.9,526 		"/>
		<polygon class="st1" points="314.4,515.7 387,515.7 387,526 314.4,526 		"/>
		<polygon class="st1" points="481.9,515.7 554.3,515.7 554.3,526 481.9,526 		"/>
		<polygon class="st1" points="1,610.6 869.6,610.6 869.6,623.6 1,623.6 		"/>
		<polygon class="st1" points="0.2,17.3 868.8,17.3 868.8,30.3 0.2,30.3 		"/>
		<polygon class="st1" points="481.5,205.1 554,205.1 554,215 481.5,215 		"/>
		<polygon class="st1" points="314.2,205.1 386.7,205.1 386.7,215 314.2,215 		"/>
		<polygon class="st1" points="146.7,205.1 219.2,205.1 219.2,215 146.7,215 		"/>
		<polygon class="st1" points="-0.3,215 -0.3,205.1 51.8,205.1 51.8,215 		"/>
		<polygon class="st1" points="648.8,205.1 721.5,205.1 721.5,215 648.8,215 		"/>
		<polygon class="st1" points="868.5,205.1 868.5,215 816.1,215 816.1,205.1 		"/>
		<polygon class="st1" points="481.5,114.1 554,114.1 554,124 481.5,124 		"/>
		<polygon class="st1" points="314.2,114.1 386.8,114.1 386.8,124 314.2,124 		"/>
		<polygon class="st1" points="146.7,114.1 219.3,114.1 219.3,124 146.7,124 		"/>
		<polygon class="st1" points="-0.2,124 -0.2,114.1 51.9,114.1 51.9,124 		"/>
		<polygon class="st1" points="649,114.1 721.5,114.1 721.5,124 649,124 		"/>
		<polygon class="st1" points="868.5,114.1 868.5,124 816.3,124 816.3,114.1 		"/>
		<polygon class="st1" points="0.4,300.8 869,300.8 869,313.4 0.4,313.4 		"/>
		<polygon class="st1" points="0.4,324.6 869,324.6 869,337.2 0.4,337.2 		"/>
	</g>
</g>
</svg>
