<?xml version="1.0" encoding="utf-8"?>
<!-- Generator: Adobe Illustrator 19.2.0, SVG Export Plug-In . SVG Version: 6.00 Build 0)  -->
<svg version="1.1" id="Livello_1" xmlns="http://www.w3.org/2000/svg" xmlns:xlink="http://www.w3.org/1999/xlink" x="0px" y="0px"
	 viewBox="0 0 873 422" style="enable-background:new 0 0 873 422;" xml:space="preserve">
<style type="text/css">
	.st0{fill:#B9B9B9;}
	.st1{fill:#FFFFFF;}
	.st2{fill:#1A171B;}
</style>
<g>
	<g>
		<polygon class="st0" points="1.9,2.1 870.2,2.1 870.2,411.7 1.9,411.7 		"/>
		<polygon class="st1" points="1.9,277.9 1.9,261.7 871,261.7 871,277.9 		"/>
		<polygon class="st1" points="869.5,137.5 869.5,153.7 817.2,153.7 817.2,137.5 		"/>
		<polygon class="st1" points="650,137.5 722.5,137.5 722.5,153.7 650,153.7 		"/>
		<polygon class="st1" points="1,153.7 1,137.5 53.1,137.5 53.1,153.7 		"/>
		<polygon class="st1" points="147.8,137.5 220.3,137.5 220.3,153.7 147.8,153.7 		"/>
		<polygon class="st1" points="315.2,137.5 387.7,137.5 387.7,153.7 315.2,153.7 		"/>
		<polygon class="st1" points="482.6,137.5 555.1,137.5 555.1,153.7 482.6,153.7 		"/>
		<polygon class="st1" points="1.9,385.9 870.2,385.9 870.2,398.9 1.9,398.9 		"/>
		<polygon class="st1" points="2.1,16.5 870.4,16.5 870.4,31.5 2.1,31.5 		"/>
		<path class="st2" d="M85,360.1H72.7l-4.9-12.8H45.3l-4.6,12.8h-12L50.6,304h12L85,360.1L85,360.1z M64.1,337.9l-7.7-20.8
			l-7.6,20.8H64.1L64.1,337.9z"/>
		<path class="st2" d="M34.9,179.7h22.4c4.4,0,7.8,0.2,9.9,0.6c2.2,0.4,4.1,1.1,5.9,2.3c1.7,1.2,3.2,2.7,4.3,4.7
			c1.1,1.9,1.7,4.1,1.7,6.6c0,2.6-0.7,5-2.1,7.2s-3.3,3.8-5.8,4.9c3.4,1,6.1,2.7,7.9,5.1s2.8,5.2,2.8,8.5c0,2.6-0.6,5-1.8,7.5
			c-1.2,2.4-2.8,4.3-4.9,5.8c-2.1,1.4-4.6,2.3-7.6,2.7c-1.9,0.2-6.4,0.3-13.7,0.4h-19L34.9,179.7L34.9,179.7z M46.3,189v13h7.4
			c4.4,0,7.2-0.1,8.2-0.2c1.9-0.2,3.5-0.9,4.6-2s1.7-2.6,1.7-4.4c0-1.7-0.5-3.1-1.4-4.2c-1-1.1-2.4-1.7-4.3-2
			c-1.1-0.1-4.4-0.2-9.7-0.2L46.3,189L46.3,189z M46.3,211.3v15h10.5c4.1,0,6.7-0.1,7.8-0.3c1.7-0.3,3.1-1.1,4.1-2.2
			c1.1-1.2,1.6-2.8,1.6-4.8c0-1.7-0.4-3.1-1.2-4.3c-0.8-1.2-2-2-3.5-2.6c-1.5-0.5-4.9-0.8-10.1-0.8L46.3,211.3L46.3,211.3z"/>
		<path class="st2" d="M69.3,90.5l11,3.5c-1.7,6.1-4.5,10.7-8.4,13.7s-8.9,4.5-14.9,4.5c-7.4,0-13.6-2.6-18.4-7.6
			c-4.8-5.1-7.2-12.1-7.2-20.9c0-9.3,2.4-16.6,7.2-21.8c4.8-5.2,11.2-7.8,19-7.8c6.9,0,12.4,2,16.7,6.1c2.6,2.4,4.5,5.8,5.8,10.3
			l-11.2,2.7c-0.7-2.9-2-5.2-4.2-6.9c-2.1-1.7-4.7-2.5-7.7-2.5c-4.2,0-7.5,1.5-10.1,4.5S43,76.1,43,82.8c0,7.1,1.3,12.2,3.8,15.2
			s5.9,4.5,9.9,4.5c3,0,5.6-1,7.8-2.9C66.8,97.7,68.3,94.6,69.3,90.5L69.3,90.5z"/>
	</g>
</g>
</svg>
