<?xml version="1.0" encoding="utf-8"?>
<!-- Generator: Adobe Illustrator 19.2.0, SVG Export Plug-In . SVG Version: 6.00 Build 0)  -->
<svg version="1.1" id="Livello_1" xmlns="http://www.w3.org/2000/svg" xmlns:xlink="http://www.w3.org/1999/xlink" x="0px" y="0px"
	 viewBox="0 0 870.4 411.4" style="enable-background:new 0 0 870.4 411.4;" xml:space="preserve">
<style type="text/css">
	.st0{fill:#B9B9B9;}
	.st1{fill:#FFFFFF;}
	.st2{fill:#1A171B;}
</style>
<g>
	<g>
		<polygon class="st0" points="0.4,1.1 869.3,1.1 869.3,410.9 0.4,410.9 		"/>
		<polygon class="st1" points="869.5,260.8 869.5,277.1 817.2,277.1 817.2,260.8 		"/>
		<polygon class="st1" points="649.9,260.8 722.4,260.8 722.4,277.1 649.9,277.1 		"/>
		<polygon class="st1" points="0.4,277.1 0.4,260.8 52.5,260.8 52.5,277.1 		"/>
		<polygon class="st1" points="147.3,260.8 219.8,260.8 219.8,277.1 147.3,277.1 		"/>
		<polygon class="st1" points="314.8,260.8 387.4,260.8 387.4,277.1 314.8,277.1 		"/>
		<polygon class="st1" points="482.3,260.8 554.9,260.8 554.9,277.1 482.3,277.1 		"/>
		<polygon class="st1" points="868.6,136.5 868.6,152.8 816.3,152.8 816.3,136.5 		"/>
		<polygon class="st1" points="649,136.5 721.5,136.5 721.5,152.8 649,152.8 		"/>
		<polygon class="st1" points="-0.5,152.8 -0.5,136.5 51.6,136.5 51.6,152.8 		"/>
		<polygon class="st1" points="146.4,136.5 218.9,136.5 218.9,152.8 146.4,152.8 		"/>
		<polygon class="st1" points="313.9,136.5 386.5,136.5 386.5,152.8 313.9,152.8 		"/>
		<polygon class="st1" points="481.4,136.5 554,136.5 554,152.8 481.4,152.8 		"/>
		<polygon class="st1" points="0.4,385.1 869.3,385.1 869.3,398.1 0.4,398.1 		"/>
		<polygon class="st1" points="0.6,15.5 869.5,15.5 869.5,30.5 0.6,30.5 		"/>
		<path class="st2" d="M87.8,359.3H75.5l-4.9-12.8H48.1l-4.6,12.8h-12l21.9-56.2h12L87.8,359.3L87.8,359.3z M66.9,337.1l-7.7-20.9
			l-7.6,20.9H66.9L66.9,337.1z"/>
		<path class="st2" d="M33.5,178.7H56c4.4,0,7.8,0.2,10,0.6s4.1,1.1,5.9,2.3c1.7,1.2,3.2,2.7,4.3,4.7c1.2,1.9,1.7,4.1,1.7,6.6
			c0,2.6-0.7,5-2.1,7.2s-3.3,3.8-5.8,4.9c3.4,1,6.1,2.7,7.9,5.1s2.8,5.2,2.8,8.5c0,2.6-0.6,5-1.8,7.5c-1.2,2.4-2.8,4.3-4.9,5.8
			c-2.1,1.4-4.6,2.3-7.6,2.7c-1.9,0.2-6.4,0.3-13.7,0.4H33.5V178.7L33.5,178.7z M44.8,188.1v13h7.4c4.4,0,7.2-0.1,8.2-0.2
			c1.9-0.2,3.5-0.9,4.6-2s1.7-2.6,1.7-4.4c0-1.7-0.5-3.2-1.4-4.2c-1-1.1-2.4-1.7-4.3-2c-1.1-0.1-4.4-0.2-9.7-0.2L44.8,188.1
			L44.8,188.1z M44.8,210.4v15h10.5c4.1,0,6.7-0.1,7.8-0.3c1.7-0.3,3.1-1.1,4.1-2.2c1.1-1.2,1.6-2.8,1.6-4.8c0-1.7-0.4-3.1-1.2-4.3
			c-0.8-1.2-2-2-3.5-2.6c-1.5-0.5-4.9-0.8-10.1-0.8L44.8,210.4L44.8,210.4z"/>
		<path class="st2" d="M67.8,89.6l11,3.5c-1.7,6.1-4.5,10.7-8.4,13.7s-8.9,4.5-14.9,4.5c-7.5,0-13.6-2.6-18.4-7.6
			c-4.8-5.1-7.2-12.1-7.2-20.9c0-9.4,2.4-16.6,7.2-21.8c4.8-5.2,11.2-7.8,19-7.8c6.9,0,12.5,2,16.7,6.1c2.6,2.4,4.5,5.8,5.8,10.3
			l-11.2,2.7c-0.7-2.9-2-5.2-4.2-6.9c-2.1-1.7-4.7-2.5-7.7-2.5c-4.2,0-7.6,1.5-10.1,4.5c-2.6,3-3.9,7.8-3.9,14.5
			c0,7.1,1.3,12.2,3.8,15.2c2.6,3,5.9,4.5,10,4.5c3,0,5.6-1,7.8-2.9C65.3,96.7,66.9,93.7,67.8,89.6L67.8,89.6z"/>
	</g>
</g>
</svg>
