<?xml version="1.0" encoding="utf-8"?>
<!-- Generator: Adobe Illustrator 19.2.0, SVG Export Plug-In . SVG Version: 6.00 Build 0)  -->
<svg version="1.1" id="Livello_1" xmlns="http://www.w3.org/2000/svg" xmlns:xlink="http://www.w3.org/1999/xlink" x="0px" y="0px"
	 viewBox="0 0 960 960" style="enable-background:new 0 0 960 960;" xml:space="preserve">
<style type="text/css">
	.st0{fill-rule:evenodd;clip-rule:evenodd;fill:#CECFD1;}
	.st1{fill-rule:evenodd;clip-rule:evenodd;fill:#FFFFFF;}
	.st2{fill-rule:evenodd;clip-rule:evenodd;fill:#1A171B;}
</style>
<g>
	<g>
		<polygon class="st0" points="45,275 914.2,275 914.2,685 45,685 45,275 		"/>
		<polygon class="st1" points="914.4,541.8 914.4,558.1 862,558.1 862,541.8 914.4,541.8 		"/>
		<polygon class="st1" points="694.7,541.8 767.2,541.8 767.2,558.1 694.7,558.1 694.7,541.8 		"/>
		<polygon class="st1" points="45,558.1 45,541.8 97.1,541.8 97.1,558.1 45,558.1 		"/>
		<polygon class="st1" points="191.9,541.8 264.5,541.8 264.5,558.1 191.9,558.1 191.9,541.8 		"/>
		<polygon class="st1" points="359.5,541.8 432.1,541.8 432.1,558.1 359.5,558.1 359.5,541.8 		"/>
		<polygon class="st1" points="527.1,541.8 599.7,541.8 599.7,558.1 527.1,558.1 527.1,541.8 		"/>
		<polygon class="st1" points="45,427.5 914.2,427.5 914.2,440.5 45,440.5 45,427.5 		"/>
		<polygon class="st0" points="45.8,414.3 915,414.3 915,427.3 45.8,427.3 45.8,414.3 		"/>
		<polygon class="st1" points="45.6,401.2 914.8,401.2 914.8,414.2 45.6,414.2 45.6,401.2 		"/>
		<polygon class="st1" points="45,659.2 914.2,659.2 914.2,672.2 45,672.2 45,659.2 		"/>
		<polygon class="st1" points="45.2,288.3 914.4,288.3 914.4,301.3 45.2,301.3 45.2,288.3 		"/>
		<path class="st2" d="M125.3,380.5H113l-4.9-12.8H85.6L81,380.5h-12l21.9-56.2h12L125.3,380.5L125.3,380.5z M104.4,358.2l-7.7-20.9
			l-7.6,20.9H104.4L104.4,358.2z"/>
		<path class="st2" d="M78.9,462.8h22.5c4.4,0,7.8,0.2,10,0.6c2.2,0.4,4.1,1.1,5.9,2.3c1.7,1.2,3.2,2.7,4.3,4.7
			c1.2,2,1.7,4.1,1.7,6.6c0,2.6-0.7,5.1-2.1,7.2c-1.4,2.2-3.3,3.8-5.8,4.9c3.4,1,6.1,2.7,7.9,5.1c1.8,2.4,2.8,5.2,2.8,8.5
			c0,2.5-0.6,5-1.8,7.5c-1.2,2.4-2.8,4.3-4.9,5.8c-2.1,1.4-4.6,2.3-7.6,2.7c-1.9,0.2-6.5,0.3-13.7,0.4H78.9V462.8L78.9,462.8z
			 M90.2,472.2v13h7.4c4.4,0,7.2-0.1,8.2-0.2c1.9-0.2,3.5-0.9,4.6-2c1.1-1.1,1.7-2.6,1.7-4.4c0-1.7-0.5-3.2-1.4-4.2
			c-1-1.1-2.4-1.7-4.3-2c-1.1-0.1-4.4-0.2-9.7-0.2H90.2L90.2,472.2z M90.2,494.5v15h10.5c4.1,0,6.7-0.1,7.8-0.3
			c1.7-0.3,3.1-1.1,4.1-2.2c1.1-1.2,1.6-2.8,1.6-4.8c0-1.7-0.4-3.1-1.2-4.3c-0.8-1.2-2-2-3.5-2.6c-1.5-0.5-4.9-0.8-10.1-0.8H90.2
			L90.2,494.5z"/>
		<path class="st2" d="M113.1,617.5l11,3.5c-1.7,6.1-4.5,10.7-8.4,13.7c-3.9,3-8.9,4.5-14.9,4.5c-7.5,0-13.6-2.5-18.4-7.6
			c-4.8-5.1-7.2-12.1-7.2-20.9c0-9.4,2.4-16.6,7.3-21.8c4.8-5.2,11.2-7.8,19.1-7.8c6.9,0,12.5,2,16.8,6.1c2.6,2.4,4.5,5.9,5.8,10.4
			l-11.2,2.7c-0.7-2.9-2-5.2-4.2-6.9c-2.1-1.7-4.7-2.5-7.7-2.5c-4.2,0-7.6,1.5-10.1,4.5c-2.6,3-3.9,7.8-3.9,14.5
			c0,7.1,1.3,12.2,3.8,15.2c2.6,3,5.9,4.5,10,4.5c3,0,5.6-1,7.8-2.9C110.6,624.6,112.2,621.6,113.1,617.5L113.1,617.5z"/>
	</g>
</g>
</svg>
