<?xml version="1.0" encoding="utf-8"?>
<!-- Generator: Adobe Illustrator 19.2.0, SVG Export Plug-In . SVG Version: 6.00 Build 0)  -->
<svg version="1.1" id="Livello_1" xmlns="http://www.w3.org/2000/svg" xmlns:xlink="http://www.w3.org/1999/xlink" x="0px" y="0px"
	 viewBox="0 0 960 960" style="enable-background:new 0 0 960 960;" xml:space="preserve">
<style type="text/css">
	.st0{fill-rule:evenodd;clip-rule:evenodd;fill:#CECFD1;}
	.st1{fill-rule:evenodd;clip-rule:evenodd;fill:#FFFFFF;}
	.st2{fill-rule:evenodd;clip-rule:evenodd;fill:#FFFFFF;stroke:#FFFFFF;stroke-width:1.0599;stroke-miterlimit:2.6131;}
	.st3{fill-rule:evenodd;clip-rule:evenodd;fill:#049853;stroke:#1A171B;stroke-width:1.0599;stroke-miterlimit:2.6131;}
</style>
<g>
	<g>
		<polygon class="st0" points="45.5,216.2 914.6,216.2 914.6,743.8 45.5,743.8 45.5,216.2 		"/>
		<polygon class="st1" points="914.8,600.7 914.8,617 862.5,617 862.5,600.7 914.8,600.7 		"/>
		<polygon class="st1" points="695.1,600.7 767.7,600.7 767.7,617 695.1,617 695.1,600.7 		"/>
		<polygon class="st1" points="45.5,617 45.5,600.7 97.6,600.7 97.6,617 45.5,617 		"/>
		<polygon class="st1" points="192.4,600.7 265,600.7 265,617 192.4,617 192.4,600.7 		"/>
		<polygon class="st1" points="360,600.7 432.5,600.7 432.5,617 360,617 360,600.7 		"/>
		<polygon class="st1" points="527.5,600.7 600.1,600.7 600.1,617 527.5,617 527.5,600.7 		"/>
		<polygon class="st1" points="914.3,342.8 914.3,359.1 862,359.1 862,342.8 914.3,342.8 		"/>
		<polygon class="st1" points="694.6,342.8 767.2,342.8 767.2,359.1 694.6,359.1 694.6,342.8 		"/>
		<polygon class="st1" points="527.7,341.3 600.2,341.3 600.2,357.6 527.7,357.6 527.7,341.3 		"/>
		<polygon class="st1" points="45,359.1 45,342.8 97.1,342.8 97.1,359.1 45,359.1 		"/>
		<polygon class="st1" points="191.9,342.8 264.5,342.8 264.5,359.1 191.9,359.1 191.9,342.8 		"/>
		<polygon class="st1" points="45.5,718 914.6,718 914.6,731 45.5,731 45.5,718 		"/>
		<polygon class="st1" points="45.4,228.6 913.7,228.6 913.7,241.6 45.4,241.6 45.4,228.6 		"/>
		<polygon class="st1" points="222.6,473.7 45.3,473.7 45.3,489.9 223.3,489.9 222.6,473.7 		"/>
		<polygon class="st1" points="214.9,473.6 234.6,473.4 232.7,468.7 243.4,467.9 246,474.6 256.9,475.7 253.3,465.7 263.9,464.7 
			268.3,477 279.7,478.2 274.5,462.6 285,461.5 291,479.4 302.1,480.5 295.7,460.4 306.3,459.1 313.5,481.8 324.6,482.9 
			316.7,457.3 327.2,455.9 335.9,484.1 346.9,485.3 337.8,455 348.3,453.5 358.2,486.5 370.2,487.8 359.6,452.6 370.1,451.1 
			381.5,489 393.4,490.2 381.3,449.5 391.8,447.9 404.7,491.4 441.3,495.3 423.5,511.2 213.1,488.5 214.9,473.6 		"/>
		<polygon class="st1" points="359.5,342.8 432,342.8 432,359.1 359.5,359.1 359.5,342.8 		"/>
		<polygon class="st2" points="745.2,470.6 915,470.7 915,487 742.8,487.1 745.2,470.6 		"/>
		<polygon class="st1" points="743.1,487.9 731.4,485.7 733.2,490.4 722.6,491.2 720,484.5 709.1,483.4 712.6,493.4 702,494.4 
			697.7,482.2 686.2,480.9 691.5,496.5 681,497.6 674.9,479.7 663.8,478.6 670.2,498.7 659.7,500 652.5,477.4 641.4,476.2 
			649.3,501.8 638.8,503.2 630,475 619.1,473.8 628.2,504.1 617.7,505.6 607.8,472.6 595.8,471.3 606.4,506.5 595.9,508 
			584.4,470.1 572.6,468.9 584.6,509.6 574.2,511.2 561.3,467.7 524.7,463.8 542.5,447.9 751.5,470.8 743.1,487.9 		"/>
		<path class="st3" d="M418.6,442.7h127.9c6.9,0,11.6,6,12.5,13.2c1.9,15,1.9,29.4,0,45c-0.9,7.2-5.6,13.2-12.5,13.2H418.6
			c-6.9,0-11.6-6-12.5-13.2c-1.9-15.6-1.9-31.3,0-45C407.1,448.7,411.7,442.7,418.6,442.7L418.6,442.7z"/>
	</g>
</g>
</svg>
