<?xml version="1.0" encoding="utf-8"?>
<!-- Generator: Adobe Illustrator 19.2.0, SVG Export Plug-In . SVG Version: 6.00 Build 0)  -->
<svg version="1.1" id="Livello_1" xmlns="http://www.w3.org/2000/svg" xmlns:xlink="http://www.w3.org/1999/xlink" x="0px" y="0px"
	 viewBox="0 0 960 960" style="enable-background:new 0 0 960 960;" xml:space="preserve">
<style type="text/css">
	.st0{fill-rule:evenodd;clip-rule:evenodd;fill:#CECFD1;}
	.st1{fill-rule:evenodd;clip-rule:evenodd;fill:#FFFFFF;}
	.st2{fill-rule:evenodd;clip-rule:evenodd;fill:#609F6F;stroke:#1A171B;stroke-width:1.0603;stroke-miterlimit:2.6131;}
	.st3{fill-rule:evenodd;clip-rule:evenodd;fill:#006A32;}
	.st4{fill-rule:evenodd;clip-rule:evenodd;fill:#00552F;}
	.st5{fill-rule:evenodd;clip-rule:evenodd;fill:#1A171B;}
</style>
<g>
	<g>
		<polygon class="st0" points="45.1,176.6 914.5,176.6 914.5,783.4 45.1,783.4 45.1,176.6 		"/>
		<polygon class="st1" points="914.5,575.7 914.5,590.7 862.3,590.7 862.3,575.7 914.5,575.7 		"/>
		<polygon class="st1" points="695,575.7 767.5,575.7 767.5,590.7 695,590.7 695,575.7 		"/>
		<polygon class="st1" points="45,590.7 45,575.7 97.9,575.7 97.9,590.7 45,590.7 		"/>
		<polygon class="st1" points="192.6,575.7 265.1,575.7 265.1,590.7 192.6,590.7 192.6,575.7 		"/>
		<polygon class="st1" points="360.1,575.7 432.6,575.7 432.6,590.7 360.1,590.7 360.1,575.7 		"/>
		<polygon class="st1" points="527.5,575.7 600,575.7 600,590.7 527.5,590.7 527.5,575.7 		"/>
		<polygon class="st1" points="45,683.9 45,668.9 914.8,668.9 914.8,683.9 45,683.9 		"/>
		<polygon class="st1" points="45,754 914.6,754 914.6,767 45,767 45,754 		"/>
		<polygon class="st1" points="45.4,189 914.2,189 914.2,202 45.4,202 45.4,189 		"/>
		<polygon class="st1" points="527.6,365.1 600.2,365.1 600.2,378.6 527.6,378.6 527.6,365.1 		"/>
		<polygon class="st1" points="360.2,365.1 432.8,365.1 432.8,378.6 360.2,378.6 360.2,365.1 		"/>
		<polygon class="st1" points="192.5,365.1 265.1,365.1 265.1,378.6 192.5,378.6 192.5,365.1 		"/>
		<polygon class="st1" points="45.5,378.6 45.5,365.1 97.6,365.1 97.6,378.6 45.5,378.6 		"/>
		<polygon class="st1" points="695.2,365.1 767.8,365.1 767.8,378.6 695.2,378.6 695.2,365.1 		"/>
		<polygon class="st1" points="915,365.1 915,378.6 862.7,378.6 862.7,365.1 915,365.1 		"/>
		<polygon class="st1" points="45.5,286.7 45.5,273.1 914.8,273.1 914.8,286.7 45.5,286.7 		"/>
		<polygon class="st2" points="45.8,457.5 914.5,457.5 914.5,496.7 45.8,496.7 45.8,457.5 		"/>
		<path class="st3" d="M63.6,478c4.8,1,10,2.2,15,3.4c8.9-0.4,14-2.1,22.9-3.9c1.5,1.3,3,2.7,4.6,4c-1.3,1.5-2.6,3-4,4.6
			c-6.1,0.9-12,1.9-18,3c-9.5-0.9-16.6-1.5-25.7-4.6c0.5-1.2,0.3-2.5,0.7-3.6C59.5,480.1,63.1,479.1,63.6,478L63.6,478z"/>
		<path class="st3" d="M307.8,478c4.8,1,10,2.2,15,3.4c8.9-0.4,14-2.1,22.9-3.9c1.5,1.3,3,2.7,4.6,4c-1.3,1.5-2.6,3-4,4.6
			c-6.1,0.9-12,1.9-18,3c-9.6-0.9-16.6-1.5-25.7-4.6c0.5-1.2,0.3-2.5,0.7-3.6C303.7,480.1,307.3,479.1,307.8,478L307.8,478z"/>
		<path class="st3" d="M549.5,478c4.8,1,10,2.2,15,3.4c8.9-0.4,14-2.1,22.9-3.9c1.5,1.3,3,2.7,4.6,4c-1.3,1.5-2.6,3-4,4.6
			c-6.1,0.9-12,1.9-18,3c-9.5-0.9-16.6-1.5-25.7-4.6c0.5-1.2,0.3-2.5,0.7-3.6C545.3,480.1,549,479.1,549.5,478L549.5,478z"/>
		<path class="st3" d="M796.3,477.1c4.8,1,10,2.2,15,3.4c8.9-0.4,14-2.1,22.9-3.9c1.5,1.3,3,2.7,4.6,4c-1.3,1.5-2.6,3-4,4.6
			c-6.1,0.9-12,1.9-18,3c-9.5-0.9-16.6-1.5-25.7-4.6c0.5-1.2,0.3-2.5,0.7-3.6C792.2,479.2,795.8,478.2,796.3,477.1L796.3,477.1z"/>
		<path class="st3" d="M132.3,474.3c2.5-0.9,5-1.8,7.5-2.8c4.6,0.4,8.5,1.3,13.2,2.8c0.8-1.1,1.5-2.2,2.4-3.3
			c-0.7-1.2-1.4-2.4-2.1-3.8c-3.2-0.7-6.2-1.6-9.3-2.4c-5,0.7-8.6,1.2-13.3,3.8C131.3,470.6,131.8,472.5,132.3,474.3L132.3,474.3z"
			/>
		<path class="st3" d="M376.6,474.3c2.5-0.9,5-1.8,7.5-2.8c4.6,0.4,8.5,1.3,13.2,2.8c0.8-1.1,1.5-2.2,2.4-3.3
			c-0.7-1.2-1.4-2.4-2.1-3.8c-3.2-0.7-6.2-1.6-9.3-2.4c-5,0.7-8.6,1.2-13.3,3.8C375.5,470.6,376.1,472.5,376.6,474.3L376.6,474.3z"
			/>
		<path class="st3" d="M618.2,474.3c2.5-0.9,5-1.8,7.5-2.8c4.6,0.4,8.6,1.3,13.2,2.8c0.8-1.1,1.5-2.2,2.4-3.3
			c-0.7-1.2-1.4-2.4-2.1-3.8c-3.2-0.7-6.2-1.6-9.3-2.4c-5,0.7-8.6,1.2-13.3,3.8C617.2,470.6,617.7,472.5,618.2,474.3L618.2,474.3z"
			/>
		<path class="st3" d="M865,473.3c2.5-0.9,5-1.8,7.5-2.8c4.6,0.4,8.5,1.3,13.2,2.8c0.8-1.1,1.5-2.2,2.4-3.3
			c-0.7-1.2-1.4-2.4-2.1-3.8c-3.2-0.7-6.2-1.6-9.3-2.4c-5,0.7-8.6,1.2-13.3,3.8C864,469.5,864.5,471.4,865,473.3L865,473.3z"/>
		<path class="st4" d="M131.3,484.2c-2-2.6-2.3-5.3-5.3-8.4c-1.2,0.3-2.4,0.7-3.6,1c-0.3,1.1-0.6,2.3-1,3.5c1.6,2.1,3.1,4.2,4.6,6.3
			C136.1,492,131.8,487.3,131.3,484.2L131.3,484.2z"/>
		<path class="st4" d="M375.5,484.2c-2-2.6-2.3-5.3-5.3-8.4c-1.2,0.3-2.4,0.7-3.6,1c-0.3,1.1-0.6,2.3-1,3.5c1.6,2.1,3.1,4.2,4.6,6.3
			C380.4,492,376,487.3,375.5,484.2L375.5,484.2z"/>
		<path class="st4" d="M617.1,484.2c-2-2.6-2.3-5.3-5.3-8.4c-1.2,0.3-2.4,0.7-3.6,1c-0.3,1.1-0.6,2.3-1,3.5c1.6,2.1,3.1,4.2,4.6,6.3
			C622,492,617.7,487.3,617.1,484.2L617.1,484.2z"/>
		<path class="st4" d="M864,483.1c-2-2.6-2.3-5.3-5.3-8.4c-1.2,0.3-2.3,0.7-3.6,1c-0.3,1.1-0.6,2.3-1,3.5c1.6,2.1,3.1,4.2,4.6,6.3
			C868.9,490.9,864.5,486.2,864,483.1L864,483.1z"/>
		<path class="st3" d="M191.7,476.2c-7.7-1.3-8.2-0.1-9,5c1.3,2.8,5,6.7,9.1,8.5C204.5,488.3,196.8,479,191.7,476.2L191.7,476.2z"/>
		<path class="st3" d="M435.9,476.2c-7.7-1.3-8.2-0.1-9,5c1.3,2.8,5,6.7,9.1,8.5C448.7,488.3,441,479,435.9,476.2L435.9,476.2z"/>
		<path class="st3" d="M677.6,476.2c-7.7-1.3-8.2-0.1-9,5c1.3,2.8,5,6.7,9.1,8.5C690.4,488.3,682.7,479,677.6,476.2L677.6,476.2z"/>
		<path class="st3" d="M277.1,475.1c7.7-1.3,8.2-0.1,9,5c-1.3,2.8-5,6.7-9.1,8.5C264.3,487.2,272,478,277.1,475.1L277.1,475.1z"/>
		<path class="st3" d="M521,475.1c7.7-1.3,8.2-0.1,9,5c-1.3,2.8-5,6.7-9.1,8.5C508.2,487.2,515.9,478,521,475.1L521,475.1z"/>
		<path class="st3" d="M762.8,475.1c7.7-1.3,8.2-0.1,9,5c-1.3,2.8-5,6.7-9.1,8.5C750,487.2,757.7,478,762.8,475.1L762.8,475.1z"/>
		<path class="st3" d="M205.5,464.9c-8.2-0.1-11.3,1-12.1,6c1.3,2.8,11.3,4.2,15.3,6C221.4,475.6,210.6,467.8,205.5,464.9
			L205.5,464.9z"/>
		<path class="st3" d="M449.7,464.9c-8.2-0.1-11.3,1-12.1,6c1.3,2.8,11.3,4.2,15.3,6C465.7,475.6,454.9,467.8,449.7,464.9
			L449.7,464.9z"/>
		<path class="st3" d="M691.2,464.9c-8.3-0.1-11.3,1-12.1,6c1.3,2.8,11.3,4.2,15.3,6C707.1,475.6,696.3,467.8,691.2,464.9
			L691.2,464.9z"/>
		<path class="st3" d="M263.3,463.9c8.3-0.1,11.3,1,12.1,6c-1.3,2.8-11.3,4.2-15.3,6C247.4,474.5,258.2,466.7,263.3,463.9
			L263.3,463.9z"/>
		<path class="st3" d="M507.4,463.9c8.2-0.1,11.3,1,12.1,6c-1.3,2.8-11.3,4.2-15.3,6C491.4,474.5,502.3,466.7,507.4,463.9
			L507.4,463.9z"/>
		<path class="st3" d="M749,463.9c8.2-0.1,11.3,1,12.1,6c-1.3,2.8-11.3,4.2-15.3,6C733.1,474.5,743.9,466.7,749,463.9L749,463.9z"/>
		<path class="st4" d="M224.2,480.3c-3.5,0.3-9.3,0.4-13.2,0.7c-4.1,0.2-6.4,1.8-6.8,4.3c1.3,2.8,9.9,4.1,14,5.9
			C225.1,489.9,229.3,483.2,224.2,480.3L224.2,480.3z"/>
		<path class="st4" d="M468.3,480.3c-3.5,0.3-9.3,0.4-13.2,0.7c-4.1,0.2-6.4,1.8-6.8,4.3c1.3,2.8,9.9,4.1,14,5.9
			C469.2,489.9,473.4,483.2,468.3,480.3L468.3,480.3z"/>
		<path class="st4" d="M709.9,480.3c-3.5,0.3-9.3,0.4-13.2,0.7c-4.1,0.2-6.4,1.8-6.8,4.3c1.3,2.8,9.9,4.1,14,5.9
			C710.8,489.9,715,483.2,709.9,480.3L709.9,480.3z"/>
		<path class="st3" d="M244.6,479.4c3.5,0.3,9.3,0.4,13.2,0.7c4.1,0.2,6.4,1.8,6.8,4.3c-1.3,2.8-9.9,4.1-14,5.9
			C243.7,489,239.5,482.3,244.6,479.4L244.6,479.4z"/>
		<path class="st3" d="M488.6,479.4c3.5,0.3,9.3,0.4,13.2,0.7c4.1,0.2,6.4,1.8,6.8,4.3c-1.3,2.8-9.9,4.1-14,5.9
			C487.7,489,483.5,482.3,488.6,479.4L488.6,479.4z"/>
		<path class="st3" d="M730.5,479.4c3.5,0.3,9.3,0.4,13.2,0.7c4.1,0.2,6.4,1.8,6.8,4.3c-1.3,2.8-9.9,4.1-14,5.9
			C729.6,489,725.3,482.3,730.5,479.4L730.5,479.4z"/>
		<path class="st3" d="M162.6,472.5c-2,2-4.7,4.1-6.8,6.3c-4.9,1.7-8.6,2.5-14.1,3.1c-0.2,1.5-0.3,2.9-0.6,4.4
			c1.4,0.9,2.7,1.9,4.2,2.9c3.6-0.7,8.7-3.7,12.3-4.2c1.1-0.7,2.3-1.6,3.2-2.2c2.6-1.8,5.8-3.8,8.3-7.2
			C167.3,473.8,164.1,474.2,162.6,472.5L162.6,472.5z"/>
		<path class="st3" d="M406.6,472.5c-2,2-4.7,4.1-6.8,6.3c-4.9,1.7-8.6,2.5-14.1,3.1c-0.2,1.5-0.3,2.9-0.6,4.4
			c1.4,0.9,2.7,1.9,4.2,2.9c3.6-0.7,8.7-3.7,12.3-4.2c1.1-0.7,2.3-1.6,3.2-2.2c2.6-1.8,5.8-3.8,8.3-7.2
			C411.4,473.8,408.1,474.2,406.6,472.5L406.6,472.5z"/>
		<path class="st3" d="M648.3,472.5c-2,2-4.7,4.1-6.8,6.3c-4.9,1.7-8.6,2.5-14.1,3.1c-0.2,1.5-0.3,2.9-0.6,4.4
			c1.4,0.9,2.7,1.9,4.2,2.9c3.6-0.7,8.7-3.7,12.3-4.2c1.1-0.7,2.3-1.6,3.2-2.2c2.6-1.8,5.8-3.8,8.3-7.2
			C653,473.8,649.8,474.2,648.3,472.5L648.3,472.5z"/>
		<path class="st3" d="M895.3,471.5c-2,2-4.7,4.1-6.8,6.2c-4.9,1.7-8.6,2.5-14.1,3.1c-0.2,1.5-0.3,2.9-0.6,4.4
			c1.4,0.9,2.7,1.9,4.2,2.9c3.6-0.7,8.7-3.7,12.3-4.2c1.1-0.7,2.3-1.6,3.2-2.2c2.6-1.8,5.8-3.8,8.3-7.2
			C900.1,472.7,896.8,473.1,895.3,471.5L895.3,471.5z"/>
		<path class="st3" d="M65.6,466.2c7.2,2.5,10.9,2.4,18.5,0c2.4,3.5,2.3,2.4,0.3,6.3c-2.8,0.7-5.6,1.4-8.3,2.2
			c-4.4-0.7-5.7,0.4-9.9-1.9C64,471.8,65.1,467.9,65.6,466.2L65.6,466.2z"/>
		<path class="st3" d="M309.8,466.2c7.2,2.5,10.9,2.4,18.5,0c2.4,3.5,2.3,2.4,0.3,6.3c-2.8,0.7-5.6,1.4-8.3,2.2
			c-4.4-0.7-5.7,0.4-9.9-1.9C308.2,471.8,309.4,467.9,309.8,466.2L309.8,466.2z"/>
		<path class="st3" d="M551.5,466.2c7.2,2.5,10.9,2.4,18.5,0c2.4,3.5,2.3,2.4,0.3,6.3c-2.8,0.7-5.6,1.4-8.3,2.2
			c-4.4-0.7-5.7,0.4-9.9-1.9C549.9,471.8,551,467.9,551.5,466.2L551.5,466.2z"/>
		<path class="st3" d="M798.3,465.1c7.2,2.5,10.9,2.4,18.5,0c2.4,3.5,2.3,2.4,0.3,6.3c-2.8,0.7-5.6,1.4-8.3,2.2
			c-4.4-0.7-5.7,0.4-9.9-1.9C796.7,470.7,797.9,466.8,798.3,465.1L798.3,465.1z"/>
		<path class="st5" d="M122.3,261.4h-10.8l-4.3-11.2H87.5l-4.1,11.2H72.9l19.2-49.2h10.5L122.3,261.4L122.3,261.4z M104,241.9
			l-6.8-18.3l-6.6,18.3H104L104,241.9z"/>
		<path class="st5" d="M76.9,301.7h19.7c3.9,0,6.8,0.2,8.7,0.5c1.9,0.3,3.6,1,5.1,2c1.5,1,2.8,2.4,3.8,4.1c1,1.7,1.5,3.6,1.5,5.7
			c0,2.3-0.6,4.4-1.9,6.3c-1.2,1.9-2.9,3.4-5.1,4.3c3,0.9,5.3,2.4,6.9,4.5c1.6,2.1,2.4,4.6,2.4,7.4c0,2.2-0.5,4.4-1.6,6.5
			c-1,2.1-2.5,3.8-4.3,5.1c-1.8,1.3-4,2-6.7,2.3c-1.6,0.2-5.6,0.3-12,0.3H76.9V301.7L76.9,301.7z M86.9,309.9v11.4h6.5
			c3.9,0,6.3-0.1,7.2-0.2c1.7-0.2,3-0.8,4-1.8c1-1,1.5-2.3,1.5-3.8c0-1.5-0.4-2.8-1.2-3.7c-0.8-1-2.1-1.5-3.7-1.7
			c-1-0.1-3.8-0.2-8.5-0.2H86.9L86.9,309.9z M86.9,329.5v13.1h9.2c3.6,0,5.9-0.1,6.8-0.3c1.5-0.3,2.7-0.9,3.6-2
			c0.9-1,1.4-2.4,1.4-4.2c0-1.5-0.4-2.7-1.1-3.8c-0.7-1-1.8-1.8-3.1-2.3c-1.4-0.5-4.3-0.7-8.8-0.7H86.9L86.9,329.5z"/>
		<path class="st5" d="M111,424.8l9.6,3c-1.5,5.4-3.9,9.4-7.4,12c-3.4,2.6-7.8,3.9-13.1,3.9c-6.5,0-11.9-2.2-16.1-6.7
			c-4.2-4.5-6.3-10.6-6.3-18.3c0-8.2,2.1-14.5,6.3-19.1c4.2-4.5,9.8-6.8,16.7-6.8c6,0,10.9,1.8,14.7,5.3c2.2,2.1,3.9,5.1,5,9.1
			l-9.8,2.3c-0.6-2.6-1.8-4.6-3.6-6c-1.8-1.5-4.1-2.2-6.7-2.2c-3.6,0-6.6,1.3-8.9,3.9c-2.3,2.6-3.4,6.8-3.4,12.7
			c0,6.2,1.1,10.7,3.4,13.3c2.2,2.6,5.1,4,8.7,4c2.6,0,4.9-0.8,6.8-2.5C108.8,431,110.1,428.4,111,424.8L111,424.8z"/>
		<path class="st5" d="M111.8,542l9.6,3c-1.5,5.4-3.9,9.4-7.4,12c-3.4,2.6-7.8,3.9-13.1,3.9c-6.5,0-11.9-2.2-16.1-6.7
			c-4.2-4.5-6.3-10.6-6.3-18.3c0-8.2,2.1-14.5,6.3-19.1c4.2-4.5,9.8-6.8,16.7-6.8c6,0,10.9,1.8,14.7,5.3c2.2,2.1,3.9,5.1,5,9.1
			l-9.8,2.3c-0.6-2.6-1.8-4.6-3.6-6c-1.8-1.5-4.1-2.2-6.7-2.2c-3.6,0-6.6,1.3-8.9,3.9c-2.3,2.6-3.4,6.9-3.4,12.7
			c0,6.2,1.1,10.7,3.4,13.3c2.2,2.6,5.1,4,8.7,4c2.6,0,4.9-0.8,6.8-2.5C109.6,548.2,111,545.6,111.8,542L111.8,542z"/>
		<path class="st5" d="M80.9,606.4h19.7c3.9,0,6.8,0.2,8.7,0.5c1.9,0.3,3.6,1,5.1,2c1.5,1,2.8,2.4,3.8,4.1c1,1.7,1.5,3.6,1.5,5.7
			c0,2.3-0.6,4.4-1.9,6.3c-1.2,1.9-2.9,3.4-5.1,4.3c3,0.9,5.3,2.4,6.9,4.5c1.6,2.1,2.4,4.6,2.4,7.4c0,2.2-0.5,4.4-1.6,6.5
			c-1,2.1-2.5,3.8-4.3,5.1c-1.8,1.3-4,2-6.7,2.3c-1.6,0.2-5.6,0.3-12,0.3H80.9V606.4L80.9,606.4z M90.8,614.6V626h6.5
			c3.9,0,6.3-0.1,7.2-0.2c1.7-0.2,3-0.8,4-1.8c1-1,1.5-2.3,1.5-3.8c0-1.5-0.4-2.8-1.2-3.7c-0.8-0.9-2.1-1.5-3.7-1.7
			c-1-0.1-3.8-0.2-8.5-0.2H90.8L90.8,614.6z M90.8,634.2v13.1h9.2c3.6,0,5.9-0.1,6.8-0.3c1.5-0.3,2.7-0.9,3.6-2
			c0.9-1,1.4-2.4,1.4-4.2c0-1.5-0.4-2.7-1.1-3.8c-0.7-1-1.8-1.8-3.1-2.3c-1.4-0.5-4.3-0.7-8.8-0.7H90.8L90.8,634.2z"/>
		<path class="st5" d="M125.7,745.6h-10.8l-4.3-11.2H91l-4.1,11.2H76.4l19.2-49.2H106L125.7,745.6L125.7,745.6z M107.4,726.1
			l-6.8-18.3L94,726.1H107.4L107.4,726.1z"/>
	</g>
</g>
</svg>
