<?xml version="1.0" encoding="utf-8"?>
<!-- Generator: Adobe Illustrator 19.2.0, SVG Export Plug-In . SVG Version: 6.00 Build 0)  -->
<svg version="1.1" id="Livello_1" xmlns="http://www.w3.org/2000/svg" xmlns:xlink="http://www.w3.org/1999/xlink" x="0px" y="0px"
	 viewBox="0 0 870.9 607.5" style="enable-background:new 0 0 870.9 607.5;" xml:space="preserve">
<style type="text/css">
	.st0{fill:#B9B9B9;}
	.st1{fill:#FFFFFF;}
	.st2{fill:#609F6F;stroke:#1A171B;stroke-width:1.0594;stroke-miterlimit:2.6131;}
	.st3{fill:#006A32;}
	.st4{fill:#00552F;}
	.st5{fill:#1A171B;}
</style>
<g>
	<g>
		<polygon class="st0" points="0.8,3.7 869.5,3.7 869.5,602.8 0.8,602.8 		"/>
		<polygon class="st1" points="869.7,450.3 869.7,464.4 817.4,464.4 817.4,450.3 		"/>
		<polygon class="st1" points="650.1,450.3 722.7,450.3 722.7,464.4 650.1,464.4 		"/>
		<polygon class="st1" points="0.8,464.4 0.8,450.3 52.9,450.3 52.9,464.4 		"/>
		<polygon class="st1" points="147.7,450.3 220.2,450.3 220.2,464.4 147.7,464.4 		"/>
		<polygon class="st1" points="315.2,450.3 387.7,450.3 387.7,464.4 315.2,464.4 		"/>
		<polygon class="st1" points="482.7,450.3 555.2,450.3 555.2,464.4 482.7,464.4 		"/>
		<polygon class="st1" points="1.8,576.6 870.5,576.6 870.5,589.6 1.8,589.6 		"/>
		<polygon class="st1" points="1,16.8 869.7,16.8 869.7,29.7 1,29.7 		"/>
		<polygon class="st1" points="482.3,142.8 554.8,142.8 554.8,157.2 482.3,157.2 		"/>
		<polygon class="st1" points="315,142.8 387.5,142.8 387.5,157.2 315,157.2 		"/>
		<polygon class="st1" points="147.5,142.8 220,142.8 220,157.2 147.5,157.2 		"/>
		<polygon class="st1" points="0.5,157.2 0.5,142.8 52.6,142.8 52.6,157.2 		"/>
		<polygon class="st1" points="649.7,142.8 722.3,142.8 722.3,157.2 649.7,157.2 		"/>
		<polygon class="st1" points="869.3,142.8 869.3,157.2 817,157.2 817,142.8 		"/>
		<polygon class="st2" points="0.8,285.6 869.5,285.6 869.5,324.8 0.8,324.8 		"/>
		<path class="st3" d="M18.6,306.2c4.8,1,10,2.2,15,3.4c8.9-0.4,14-2.1,22.9-3.9c1.5,1.3,3,2.7,4.6,4c-1.3,1.5-2.6,3-4,4.6
			c-6.1,0.9-12,1.9-17.9,3c-9.6-0.9-16.6-1.5-25.7-4.6c0.5-1.2,0.3-2.5,0.7-3.6C14.5,308.3,18.1,307.2,18.6,306.2L18.6,306.2z"/>
		<path class="st3" d="M262.8,306.2c4.8,1,10,2.2,15,3.4c8.9-0.4,14-2.1,22.9-3.9c1.5,1.3,3,2.7,4.6,4c-1.3,1.5-2.6,3-4,4.6
			c-6.1,0.9-12,1.9-17.9,3c-9.6-0.9-16.6-1.5-25.7-4.6c0.5-1.2,0.3-2.5,0.7-3.6C258.7,308.3,262.4,307.2,262.8,306.2L262.8,306.2z"
			/>
		<path class="st3" d="M504.5,306.2c4.8,1,10,2.2,15,3.4c8.9-0.4,14-2.1,22.9-3.9c1.5,1.3,3,2.7,4.6,4c-1.3,1.5-2.6,3-4,4.6
			c-6.1,0.9-12,1.9-17.9,3c-9.6-0.9-16.6-1.5-25.7-4.6c0.5-1.2,0.3-2.5,0.7-3.6C500.3,308.3,504,307.2,504.5,306.2L504.5,306.2z"/>
		<path class="st3" d="M751.3,305.3c4.8,1,10,2.2,15,3.4c8.9-0.4,14-2.1,22.9-3.9c1.5,1.3,3,2.7,4.6,4c-1.3,1.5-2.6,3-4,4.6
			c-6.1,0.9-12,1.9-17.9,3c-9.6-0.9-16.6-1.5-25.7-4.6c0.5-1.2,0.3-2.5,0.7-3.6C747.2,307.4,750.8,306.3,751.3,305.3L751.3,305.3z"
			/>
		<path class="st3" d="M87.4,302.5c2.5-0.9,5-1.8,7.5-2.8c4.6,0.4,8.5,1.3,13.2,2.8c0.8-1.1,1.5-2.2,2.4-3.3
			c-0.7-1.2-1.4-2.4-2.1-3.8c-3.2-0.7-6.2-1.6-9.3-2.4c-5,0.7-8.6,1.2-13.3,3.8C86.3,298.7,86.9,300.6,87.4,302.5L87.4,302.5z"/>
		<path class="st3" d="M331.6,302.5c2.5-0.9,5-1.8,7.5-2.8c4.6,0.4,8.5,1.3,13.2,2.8c0.8-1.1,1.5-2.2,2.4-3.3
			c-0.7-1.2-1.4-2.4-2.1-3.8c-3.2-0.7-6.2-1.6-9.3-2.4c-5,0.7-8.6,1.2-13.3,3.8C330.6,298.7,331.1,300.6,331.6,302.5L331.6,302.5z"
			/>
		<path class="st3" d="M573.2,302.5c2.5-0.9,5-1.8,7.5-2.8c4.6,0.4,8.5,1.3,13.2,2.8c0.8-1.1,1.5-2.2,2.4-3.3
			c-0.7-1.2-1.4-2.4-2.1-3.8c-3.2-0.7-6.2-1.6-9.3-2.4c-5,0.7-8.6,1.2-13.3,3.8C572.2,298.7,572.7,300.6,573.2,302.5L573.2,302.5z"
			/>
		<path class="st3" d="M820,301.4c2.5-0.9,5-1.8,7.5-2.8c4.6,0.4,8.5,1.3,13.2,2.8c0.8-1.1,1.5-2.2,2.4-3.3
			c-0.7-1.2-1.4-2.4-2.1-3.8c-3.2-0.7-6.2-1.6-9.3-2.4c-5,0.7-8.6,1.2-13.3,3.8C819,297.6,819.5,299.6,820,301.4L820,301.4z"/>
		<path class="st4" d="M86.3,312.3c-2-2.6-2.3-5.3-5.3-8.4c-1.2,0.3-2.3,0.7-3.6,1c-0.3,1.1-0.6,2.3-1,3.5c1.6,2.1,3.1,4.2,4.6,6.3
			C91.2,320.1,86.8,315.4,86.3,312.3L86.3,312.3z"/>
		<path class="st4" d="M330.5,312.3c-2-2.6-2.3-5.3-5.3-8.4c-1.2,0.3-2.4,0.7-3.6,1c-0.3,1.1-0.6,2.3-1,3.5c1.6,2.1,3.1,4.2,4.6,6.3
			C335.4,320.1,331.1,315.4,330.5,312.3L330.5,312.3z"/>
		<path class="st4" d="M572.1,312.3c-2-2.6-2.3-5.3-5.3-8.4c-1.2,0.3-2.4,0.7-3.6,1c-0.3,1.1-0.6,2.3-1,3.5c1.6,2.1,3.1,4.2,4.6,6.3
			C577,320.1,572.7,315.4,572.1,312.3L572.1,312.3z"/>
		<path class="st4" d="M819,311.2c-2-2.6-2.3-5.3-5.3-8.4c-1.2,0.3-2.4,0.7-3.6,1c-0.3,1.1-0.6,2.3-1,3.5c1.6,2.1,3.1,4.2,4.6,6.3
			C823.9,319,819.5,314.3,819,311.2L819,311.2z"/>
		<path class="st3" d="M146.7,304.4c-7.7-1.3-8.2-0.1-9,5c1.3,2.8,5,6.7,9.1,8.5C159.5,316.5,151.8,307.2,146.7,304.4L146.7,304.4z"
			/>
		<path class="st3" d="M390.9,304.4c-7.7-1.3-8.2-0.1-9,5c1.3,2.8,5,6.7,9.1,8.5C403.7,316.5,396,307.2,390.9,304.4L390.9,304.4z"/>
		<path class="st3" d="M632.6,304.4c-7.7-1.3-8.2-0.1-9,5c1.3,2.8,5,6.7,9.1,8.5C645.4,316.5,637.7,307.2,632.6,304.4L632.6,304.4z"
			/>
		<path class="st3" d="M232.2,303.3c7.7-1.3,8.2-0.1,9,5c-1.3,2.8-5,6.7-9.1,8.5C219.4,315.4,227.1,306.1,232.2,303.3L232.2,303.3z"
			/>
		<path class="st3" d="M476,303.3c7.7-1.3,8.2-0.1,9,5c-1.3,2.8-5,6.7-9.1,8.5C463.2,315.4,470.9,306.1,476,303.3L476,303.3z"/>
		<path class="st3" d="M717.8,303.3c7.7-1.3,8.2-0.1,9,5c-1.3,2.8-5,6.7-9.1,8.5C705,315.4,712.7,306.1,717.8,303.3L717.8,303.3z"/>
		<path class="st3" d="M160.5,293.1c-8.2-0.1-11.3,1-12.1,6c1.3,2.8,11.3,4.2,15.3,6C176.5,303.7,165.6,295.9,160.5,293.1
			L160.5,293.1z"/>
		<path class="st3" d="M404.8,293.1c-8.2-0.1-11.3,1-12.1,6c1.3,2.8,11.3,4.2,15.3,6C420.7,303.7,409.9,295.9,404.8,293.1
			L404.8,293.1z"/>
		<path class="st3" d="M646.2,293.1c-8.2-0.1-11.3,1-12.1,6c1.3,2.8,11.3,4.2,15.3,6C662.1,303.7,651.3,295.9,646.2,293.1
			L646.2,293.1z"/>
		<path class="st3" d="M218.3,292c8.2-0.1,11.3,1,12.1,6c-1.3,2.8-11.3,4.2-15.3,6C202.4,302.6,213.2,294.8,218.3,292L218.3,292z"/>
		<path class="st3" d="M462.4,292c8.2-0.1,11.3,1,12.1,6c-1.3,2.8-11.3,4.2-15.3,6C446.4,302.6,457.3,294.8,462.4,292L462.4,292z"/>
		<path class="st3" d="M704,292c8.2-0.1,11.3,1,12.1,6c-1.3,2.8-11.3,4.2-15.3,6C688.1,302.6,698.9,294.8,704,292L704,292z"/>
		<path class="st4" d="M179.3,308.5c-3.5,0.3-9.3,0.4-13.2,0.7c-4.1,0.2-6.4,1.8-6.8,4.3c1.3,2.8,9.9,4.1,14,5.9
			C180.2,318,184.4,311.3,179.3,308.5L179.3,308.5z"/>
		<path class="st4" d="M423.3,308.5c-3.5,0.3-9.3,0.4-13.2,0.7c-4.1,0.2-6.4,1.8-6.8,4.3c1.3,2.8,9.9,4.1,14,5.9
			C424.2,318,428.4,311.3,423.3,308.5L423.3,308.5z"/>
		<path class="st4" d="M664.9,308.5c-3.5,0.3-9.3,0.4-13.2,0.7c-4.1,0.2-6.4,1.8-6.8,4.3c1.3,2.8,9.9,4.1,14,5.9
			C665.8,318,670,311.3,664.9,308.5L664.9,308.5z"/>
		<path class="st3" d="M199.6,307.6c3.5,0.3,9.3,0.4,13.2,0.7c4.1,0.2,6.4,1.8,6.8,4.3c-1.3,2.8-9.9,4.1-14,5.9
			C198.7,317.1,194.5,310.4,199.6,307.6L199.6,307.6z"/>
		<path class="st3" d="M443.6,307.6c3.5,0.3,9.3,0.4,13.2,0.7c4.1,0.2,6.4,1.8,6.8,4.3c-1.3,2.8-9.9,4.1-14,5.9
			C442.7,317.1,438.5,310.4,443.6,307.6L443.6,307.6z"/>
		<path class="st3" d="M685.4,307.6c3.5,0.3,9.3,0.4,13.2,0.7c4.1,0.2,6.4,1.8,6.8,4.3c-1.3,2.8-9.9,4.1-14,5.9
			C684.6,317.1,680.3,310.4,685.4,307.6L685.4,307.6z"/>
		<path class="st3" d="M117.6,300.7c-2,2-4.7,4.1-6.8,6.2c-4.9,1.7-8.6,2.5-14.1,3.1c-0.2,1.5-0.3,2.9-0.6,4.4
			c1.4,0.9,2.7,1.9,4.2,2.9c3.6-0.7,8.7-3.7,12.3-4.2c1.1-0.7,2.3-1.6,3.2-2.2c2.6-1.8,5.8-3.8,8.3-7.2
			C122.4,301.9,119.1,302.3,117.6,300.7L117.6,300.7z"/>
		<path class="st3" d="M361.6,300.7c-2,2-4.7,4.1-6.8,6.2c-4.9,1.7-8.6,2.5-14.1,3.1c-0.2,1.5-0.3,2.9-0.6,4.4
			c1.4,0.9,2.7,1.9,4.2,2.9c3.6-0.7,8.7-3.7,12.3-4.2c1.1-0.7,2.3-1.6,3.2-2.2c2.6-1.8,5.8-3.8,8.3-7.2
			C366.4,301.9,363.2,302.3,361.6,300.7L361.6,300.7z"/>
		<path class="st3" d="M603.3,300.7c-2,2-4.7,4.1-6.8,6.2c-4.9,1.7-8.6,2.5-14.1,3.1c-0.2,1.5-0.3,2.9-0.6,4.4
			c1.4,0.9,2.7,1.9,4.2,2.9c3.6-0.7,8.7-3.7,12.3-4.2c1.1-0.7,2.3-1.6,3.2-2.2c2.6-1.8,5.8-3.8,8.3-7.2
			C608,301.9,604.8,302.3,603.3,300.7L603.3,300.7z"/>
		<path class="st3" d="M850.3,299.6c-2,2-4.7,4.1-6.8,6.2c-4.9,1.7-8.6,2.5-14.1,3.1c-0.2,1.5-0.3,2.9-0.6,4.4
			c1.4,0.9,2.7,1.9,4.2,2.9c3.6-0.7,8.7-3.7,12.3-4.2c1.1-0.7,2.3-1.6,3.2-2.2c2.6-1.8,5.8-3.8,8.3-7.2
			C855,300.8,851.8,301.2,850.3,299.6L850.3,299.6z"/>
		<path class="st3" d="M20.7,294.4c7.2,2.5,10.9,2.4,18.5,0c2.4,3.5,2.3,2.4,0.3,6.3c-2.8,0.7-5.6,1.4-8.3,2.2
			c-4.4-0.7-5.7,0.4-9.9-1.9C19.1,299.9,20.2,296,20.7,294.4L20.7,294.4z"/>
		<path class="st3" d="M264.9,294.4c7.2,2.5,10.9,2.4,18.5,0c2.4,3.5,2.3,2.4,0.3,6.3c-2.8,0.7-5.6,1.4-8.3,2.2
			c-4.4-0.7-5.7,0.4-9.9-1.9C263.3,299.9,264.4,296,264.9,294.4L264.9,294.4z"/>
		<path class="st3" d="M506.5,294.4c7.2,2.5,10.9,2.4,18.5,0c2.4,3.5,2.3,2.4,0.3,6.3c-2.8,0.7-5.6,1.4-8.3,2.2
			c-4.4-0.7-5.7,0.4-9.9-1.9C504.9,299.9,506,296,506.5,294.4L506.5,294.4z"/>
		<path class="st3" d="M753.3,293.3c7.2,2.5,10.9,2.4,18.5,0c2.4,3.5,2.3,2.4,0.3,6.3c-2.8,0.7-5.6,1.4-8.3,2.2
			c-4.4-0.7-5.7,0.4-9.9-1.9C751.7,298.8,752.9,294.9,753.3,293.3L753.3,293.3z"/>
		<path class="st5" d="M37.9,193.5h19.6c3.9,0,6.8,0.2,8.7,0.5c1.9,0.3,3.6,1,5.1,2s2.8,2.4,3.8,4.1s1.5,3.6,1.5,5.7
			c0,2.3-0.6,4.4-1.9,6.3c-1.2,1.9-2.9,3.4-5,4.3c3,0.9,5.3,2.4,6.9,4.5s2.4,4.6,2.4,7.4c0,2.2-0.5,4.4-1.6,6.5
			c-1,2.1-2.5,3.8-4.3,5.1c-1.8,1.3-4,2-6.7,2.3c-1.6,0.2-5.6,0.3-12,0.3H37.9V193.5L37.9,193.5z M47.9,201.6V213h6.5
			c3.9,0,6.3-0.1,7.2-0.2c1.7-0.2,3-0.8,4-1.8s1.5-2.3,1.5-3.8s-0.4-2.8-1.2-3.7c-0.8-1-2.1-1.5-3.7-1.7c-1-0.1-3.8-0.2-8.5-0.2
			L47.9,201.6L47.9,201.6z M47.9,221.2v13.1h9.2c3.6,0,5.8-0.1,6.8-0.3c1.5-0.3,2.7-0.9,3.6-2c0.9-1,1.4-2.4,1.4-4.2
			c0-1.5-0.4-2.7-1.1-3.8c-0.7-1-1.8-1.8-3.1-2.3c-1.4-0.5-4.3-0.7-8.8-0.7h-8V221.2z"/>
		<path class="st5" d="M37.6,361.5h19.6c3.9,0,6.8,0.2,8.7,0.5c1.9,0.3,3.6,1,5.1,2s2.8,2.4,3.8,4.1s1.5,3.6,1.5,5.7
			c0,2.3-0.6,4.4-1.9,6.3c-1.2,1.9-2.9,3.4-5,4.3c3,0.9,5.3,2.4,6.9,4.5s2.4,4.6,2.4,7.4c0,2.2-0.5,4.4-1.6,6.5
			c-1,2.1-2.5,3.8-4.3,5.1s-4,2-6.7,2.3c-1.6,0.2-5.6,0.3-12,0.3H37.6V361.5L37.6,361.5z M47.5,369.7v11.4H54c3.9,0,6.3-0.1,7.2-0.2
			c1.7-0.2,3-0.8,4-1.8s1.5-2.3,1.5-3.8s-0.4-2.8-1.2-3.7c-0.8-0.9-2.1-1.5-3.7-1.7c-1-0.1-3.8-0.2-8.5-0.2L47.5,369.7L47.5,369.7z
			 M47.5,389.2v13.1h9.2c3.6,0,5.9-0.1,6.8-0.3c1.5-0.3,2.7-0.9,3.6-2c0.9-1,1.4-2.4,1.4-4.2c0-1.5-0.4-2.7-1.1-3.8
			c-0.7-1-1.8-1.8-3.1-2.3c-1.4-0.5-4.3-0.7-8.8-0.7h-8V389.2z"/>
		<path class="st5" d="M83.1,109.2H72.3L68,98H48.4l-4,11.2H33.8L52.9,60h10.5L83.1,109.2L83.1,109.2z M64.8,89.8L58,71.6l-6.6,18.2
			H64.8L64.8,89.8z"/>
		<path class="st5" d="M84.6,540.8H73.9l-4.2-11.2H50.2l-4,11.2H35.8l18.9-49.2h10.4L84.6,540.8L84.6,540.8z M66.5,521.4l-6.7-18.2
			l-6.6,18.2H66.5L66.5,521.4z"/>
	</g>
</g>
</svg>
