<?xml version="1.0" encoding="utf-8"?>
<!-- Generator: Adobe Illustrator 19.2.0, SVG Export Plug-In . SVG Version: 6.00 Build 0)  -->
<svg version="1.1" id="Livello_1" xmlns="http://www.w3.org/2000/svg" xmlns:xlink="http://www.w3.org/1999/xlink" x="0px" y="0px"
	 viewBox="0 0 960 960" style="enable-background:new 0 0 960 960;" xml:space="preserve">
<style type="text/css">
	.st0{fill-rule:evenodd;clip-rule:evenodd;fill:#CECFD1;}
	.st1{fill-rule:evenodd;clip-rule:evenodd;fill:#FFFFFF;}
	.st2{fill-rule:evenodd;clip-rule:evenodd;fill:#609F6F;stroke:#1A171B;stroke-width:1.0594;stroke-miterlimit:2.6131;}
	.st3{fill-rule:evenodd;clip-rule:evenodd;fill:#006A32;}
	.st4{fill-rule:evenodd;clip-rule:evenodd;fill:#00552F;}
</style>
<g>
	<g>
		<polygon class="st0" points="45.3,170.3 914,170.3 914,789.7 45.3,789.7 45.3,170.3 		"/>
		<polygon class="st1" points="914.2,580.7 914.2,591 861.9,591 861.9,580.7 914.2,580.7 		"/>
		<polygon class="st1" points="694.6,580.7 767.2,580.7 767.2,591 694.6,591 694.6,580.7 		"/>
		<polygon class="st1" points="45.3,591 45.3,580.7 97.4,580.7 97.4,591 45.3,591 		"/>
		<polygon class="st1" points="192.2,580.7 264.7,580.7 264.7,591 192.2,591 192.2,580.7 		"/>
		<polygon class="st1" points="359.7,580.7 432.2,580.7 432.2,591 359.7,591 359.7,580.7 		"/>
		<polygon class="st1" points="527.2,580.7 599.7,580.7 599.7,591 527.2,591 527.2,580.7 		"/>
		<polygon class="st1" points="914.3,672.5 914.3,682.8 862,682.8 862,672.5 914.3,672.5 		"/>
		<polygon class="st1" points="694.7,672.5 767.2,672.5 767.2,682.8 694.7,682.8 694.7,672.5 		"/>
		<polygon class="st1" points="45.4,682.8 45.4,672.5 97.5,672.5 97.5,682.8 45.4,682.8 		"/>
		<polygon class="st1" points="192.2,672.5 264.8,672.5 264.8,682.8 192.2,682.8 192.2,672.5 		"/>
		<polygon class="st1" points="359.7,672.5 432.3,672.5 432.3,682.8 359.7,682.8 359.7,672.5 		"/>
		<polygon class="st1" points="527.2,672.5 599.7,672.5 599.7,682.8 527.2,682.8 527.2,672.5 		"/>
		<polygon class="st1" points="46.3,764.4 915,764.4 915,777.4 46.3,777.4 46.3,764.4 		"/>
		<polygon class="st1" points="45.5,183.1 914.2,183.1 914.2,196.1 45.5,196.1 45.5,183.1 		"/>
		<polygon class="st1" points="526.8,367.9 599.3,367.9 599.3,377.8 526.8,377.8 526.8,367.9 		"/>
		<polygon class="st1" points="359.5,367.9 432,367.9 432,377.8 359.5,377.8 359.5,367.9 		"/>
		<polygon class="st1" points="192,367.9 264.5,367.9 264.5,377.8 192,377.8 192,367.9 		"/>
		<polygon class="st1" points="45,377.8 45,367.9 97.1,367.9 97.1,377.8 45,377.8 		"/>
		<polygon class="st1" points="694.2,367.9 766.8,367.9 766.8,377.8 694.2,377.8 694.2,367.9 		"/>
		<polygon class="st1" points="913.8,367.9 913.8,377.8 861.5,377.8 861.5,367.9 913.8,367.9 		"/>
		<polygon class="st1" points="526.8,276.9 599.3,276.9 599.3,286.8 526.8,286.8 526.8,276.9 		"/>
		<polygon class="st1" points="359.5,276.9 432.1,276.9 432.1,286.8 359.5,286.8 359.5,276.9 		"/>
		<polygon class="st1" points="192,276.9 264.6,276.9 264.6,286.8 192,286.8 192,276.9 		"/>
		<polygon class="st1" points="45.1,286.8 45.1,276.9 97.2,276.9 97.2,286.8 45.1,286.8 		"/>
		<polygon class="st1" points="694.3,276.9 766.8,276.9 766.8,286.8 694.3,286.8 694.3,276.9 		"/>
		<polygon class="st1" points="913.9,276.9 913.9,286.8 861.6,286.8 861.6,276.9 913.9,276.9 		"/>
		<polygon class="st2" points="45.3,459.7 914,459.7 914,498.9 45.3,498.9 45.3,459.7 		"/>
		<path class="st3" d="M63.1,480.3c4.8,1,10,2.2,15,3.4c8.9-0.4,14-2.1,22.9-3.9c1.5,1.3,3,2.7,4.6,4c-1.3,1.5-2.6,3-4,4.6
			c-6.1,0.9-12,1.9-17.9,3c-9.6-0.9-16.6-1.5-25.7-4.6c0.5-1.2,0.3-2.5,0.7-3.6C59,482.4,62.6,481.3,63.1,480.3L63.1,480.3z"/>
		<path class="st3" d="M307.3,480.3c4.8,1,10,2.2,15,3.4c8.9-0.4,14-2.1,22.9-3.9c1.5,1.3,3,2.7,4.6,4c-1.3,1.5-2.6,3-4,4.6
			c-6.1,0.9-12,1.9-17.9,3c-9.6-0.9-16.6-1.5-25.7-4.6c0.5-1.2,0.3-2.5,0.7-3.6C303.2,482.4,306.9,481.3,307.3,480.3L307.3,480.3z"
			/>
		<path class="st3" d="M549,480.3c4.8,1,10,2.2,15,3.4c8.9-0.4,14-2.1,22.9-3.9c1.5,1.3,3,2.7,4.6,4c-1.3,1.5-2.6,3-4,4.6
			c-6.1,0.9-12,1.9-17.9,3c-9.6-0.9-16.6-1.5-25.7-4.6c0.5-1.2,0.3-2.5,0.7-3.6C544.8,482.4,548.5,481.3,549,480.3L549,480.3z"/>
		<path class="st3" d="M795.8,479.4c4.8,1,10,2.2,15,3.4c8.9-0.4,14-2.1,22.9-3.9c1.5,1.3,3,2.7,4.6,4c-1.3,1.5-2.6,3-4,4.6
			c-6.1,0.9-12,1.9-17.9,3c-9.6-0.9-16.6-1.5-25.7-4.6c0.5-1.2,0.3-2.5,0.7-3.6C791.7,481.5,795.3,480.4,795.8,479.4L795.8,479.4z"
			/>
		<path class="st3" d="M131.9,476.6c2.5-0.9,5-1.8,7.5-2.8c4.6,0.4,8.5,1.3,13.2,2.8c0.8-1.1,1.5-2.2,2.4-3.3
			c-0.7-1.2-1.4-2.4-2.1-3.8c-3.2-0.7-6.2-1.6-9.3-2.4c-5,0.7-8.6,1.2-13.3,3.8C130.8,472.8,131.4,474.8,131.9,476.6L131.9,476.6z"
			/>
		<path class="st3" d="M376.1,476.6c2.5-0.9,5-1.8,7.5-2.8c4.6,0.4,8.5,1.3,13.2,2.8c0.8-1.1,1.5-2.2,2.4-3.3
			c-0.7-1.2-1.4-2.4-2.1-3.8c-3.2-0.7-6.2-1.6-9.3-2.4c-5,0.7-8.6,1.2-13.3,3.8C375.1,472.8,375.6,474.8,376.1,476.6L376.1,476.6z"
			/>
		<path class="st3" d="M617.7,476.6c2.5-0.9,5-1.8,7.5-2.8c4.6,0.4,8.5,1.3,13.2,2.8c0.8-1.1,1.5-2.2,2.4-3.3
			c-0.7-1.2-1.4-2.4-2.1-3.8c-3.2-0.7-6.2-1.6-9.3-2.4c-5,0.7-8.6,1.2-13.3,3.8C616.7,472.8,617.2,474.8,617.7,476.6L617.7,476.6z"
			/>
		<path class="st3" d="M864.5,475.5c2.5-0.9,5-1.8,7.5-2.8c4.6,0.4,8.5,1.3,13.2,2.8c0.8-1.1,1.5-2.2,2.4-3.3
			c-0.7-1.2-1.4-2.4-2.1-3.8c-3.2-0.7-6.2-1.6-9.3-2.4c-5,0.7-8.6,1.2-13.3,3.8C863.5,471.7,864,473.7,864.5,475.5L864.5,475.5z"/>
		<path class="st4" d="M130.8,486.4c-2-2.6-2.3-5.3-5.3-8.4c-1.2,0.3-2.3,0.7-3.6,1c-0.3,1.1-0.6,2.3-1,3.5c1.6,2.1,3.1,4.2,4.6,6.3
			C135.7,494.2,131.3,489.6,130.8,486.4L130.8,486.4z"/>
		<path class="st4" d="M375,486.4c-2-2.6-2.3-5.3-5.3-8.4c-1.2,0.3-2.4,0.7-3.6,1c-0.3,1.1-0.6,2.3-1,3.5c1.6,2.1,3.1,4.2,4.6,6.3
			C379.9,494.2,375.6,489.6,375,486.4L375,486.4z"/>
		<path class="st4" d="M616.6,486.4c-2-2.6-2.3-5.3-5.3-8.4c-1.2,0.3-2.4,0.7-3.6,1c-0.3,1.1-0.6,2.3-1,3.5c1.6,2.1,3.1,4.2,4.6,6.3
			C621.5,494.2,617.2,489.6,616.6,486.4L616.6,486.4z"/>
		<path class="st4" d="M863.5,485.3c-2-2.6-2.3-5.3-5.3-8.4c-1.2,0.3-2.4,0.7-3.6,1c-0.3,1.1-0.6,2.3-1,3.5c1.6,2.1,3.1,4.2,4.6,6.3
			C868.4,493.2,864,488.5,863.5,485.3L863.5,485.3z"/>
		<path class="st3" d="M191.2,478.5c-7.7-1.3-8.2-0.1-9,5c1.3,2.8,5,6.7,9.1,8.5C204,490.6,196.3,481.3,191.2,478.5L191.2,478.5z"/>
		<path class="st3" d="M435.4,478.5c-7.7-1.3-8.2-0.1-9,5c1.3,2.8,5,6.7,9.1,8.5C448.2,490.6,440.5,481.3,435.4,478.5L435.4,478.5z"
			/>
		<path class="st3" d="M677.1,478.5c-7.7-1.3-8.2-0.1-9,5c1.3,2.8,5,6.7,9.1,8.5C689.9,490.6,682.2,481.3,677.1,478.5L677.1,478.5z"
			/>
		<path class="st3" d="M276.7,477.4c7.7-1.3,8.2-0.1,9,5c-1.3,2.8-5,6.7-9.1,8.5C263.9,489.5,271.6,480.2,276.7,477.4L276.7,477.4z"
			/>
		<path class="st3" d="M520.5,477.4c7.7-1.3,8.2-0.1,9,5c-1.3,2.8-5,6.7-9.1,8.5C507.7,489.5,515.4,480.2,520.5,477.4L520.5,477.4z"
			/>
		<path class="st3" d="M762.3,477.4c7.7-1.3,8.2-0.1,9,5c-1.3,2.8-5,6.7-9.1,8.5C749.5,489.5,757.2,480.2,762.3,477.4L762.3,477.4z"
			/>
		<path class="st3" d="M205,467.2c-8.2-0.1-11.3,1-12.1,6c1.3,2.8,11.3,4.2,15.3,6C221,477.8,210.1,470,205,467.2L205,467.2z"/>
		<path class="st3" d="M449.3,467.2c-8.2-0.1-11.3,1-12.1,6c1.3,2.8,11.3,4.2,15.3,6C465.2,477.8,454.4,470,449.3,467.2L449.3,467.2
			z"/>
		<path class="st3" d="M690.7,467.2c-8.2-0.1-11.3,1-12.1,6c1.3,2.8,11.3,4.2,15.3,6C706.6,477.8,695.8,470,690.7,467.2L690.7,467.2
			z"/>
		<path class="st3" d="M262.8,466.1c8.2-0.1,11.3,1,12.1,6c-1.3,2.8-11.3,4.2-15.3,6C246.9,476.7,257.7,468.9,262.8,466.1
			L262.8,466.1z"/>
		<path class="st3" d="M506.9,466.1c8.2-0.1,11.3,1,12.1,6c-1.3,2.8-11.3,4.2-15.3,6C490.9,476.7,501.8,468.9,506.9,466.1
			L506.9,466.1z"/>
		<path class="st3" d="M748.5,466.1c8.2-0.1,11.3,1,12.1,6c-1.3,2.8-11.3,4.2-15.3,6C732.6,476.7,743.4,468.9,748.5,466.1
			L748.5,466.1z"/>
		<path class="st4" d="M223.8,482.6c-3.5,0.3-9.3,0.4-13.2,0.7c-4.1,0.2-6.4,1.8-6.8,4.3c1.3,2.8,9.9,4.1,14,5.9
			C224.7,492.1,228.9,485.4,223.8,482.6L223.8,482.6z"/>
		<path class="st4" d="M467.8,482.6c-3.5,0.3-9.3,0.4-13.2,0.7c-4.1,0.2-6.4,1.8-6.8,4.3c1.3,2.8,9.9,4.1,14,5.9
			C468.7,492.1,472.9,485.4,467.8,482.6L467.8,482.6z"/>
		<path class="st4" d="M709.4,482.6c-3.5,0.3-9.3,0.4-13.2,0.7c-4.1,0.2-6.4,1.8-6.8,4.3c1.3,2.8,9.9,4.1,14,5.9
			C710.3,492.1,714.5,485.4,709.4,482.6L709.4,482.6z"/>
		<path class="st3" d="M244.1,481.7c3.5,0.3,9.3,0.4,13.2,0.7c4.1,0.2,6.4,1.8,6.8,4.3c-1.3,2.8-9.9,4.1-14,5.9
			C243.2,491.2,239,484.5,244.1,481.7L244.1,481.7z"/>
		<path class="st3" d="M488.1,481.7c3.5,0.3,9.3,0.4,13.2,0.7c4.1,0.2,6.4,1.8,6.8,4.3c-1.3,2.8-9.9,4.1-14,5.9
			C487.2,491.2,483,484.5,488.1,481.7L488.1,481.7z"/>
		<path class="st3" d="M729.9,481.7c3.5,0.3,9.3,0.4,13.2,0.7c4.1,0.2,6.4,1.8,6.8,4.3c-1.3,2.8-9.9,4.1-14,5.9
			C729.1,491.2,724.8,484.5,729.9,481.7L729.9,481.7z"/>
		<path class="st3" d="M162.1,474.8c-2,2-4.7,4.1-6.8,6.2c-4.9,1.7-8.6,2.5-14.1,3.1c-0.2,1.5-0.3,2.9-0.6,4.4
			c1.4,0.9,2.7,1.9,4.2,2.9c3.6-0.7,8.7-3.7,12.3-4.2c1.1-0.7,2.3-1.6,3.2-2.2c2.6-1.8,5.8-3.8,8.3-7.2
			C166.9,476.1,163.6,476.4,162.1,474.8L162.1,474.8z"/>
		<path class="st3" d="M406.1,474.8c-2,2-4.7,4.1-6.8,6.2c-4.9,1.7-8.6,2.5-14.1,3.1c-0.2,1.5-0.3,2.9-0.6,4.4
			c1.4,0.9,2.7,1.9,4.2,2.9c3.6-0.7,8.7-3.7,12.3-4.2c1.1-0.7,2.3-1.6,3.2-2.2c2.6-1.8,5.8-3.8,8.3-7.2
			C410.9,476.1,407.7,476.4,406.1,474.8L406.1,474.8z"/>
		<path class="st3" d="M647.8,474.8c-2,2-4.7,4.1-6.8,6.2c-4.9,1.7-8.6,2.5-14.1,3.1c-0.2,1.5-0.3,2.9-0.6,4.4
			c1.4,0.9,2.7,1.9,4.2,2.9c3.6-0.7,8.7-3.7,12.3-4.2c1.1-0.7,2.3-1.6,3.2-2.2c2.6-1.8,5.8-3.8,8.3-7.2
			C652.5,476.1,649.3,476.4,647.8,474.8L647.8,474.8z"/>
		<path class="st3" d="M894.8,473.7c-2,2-4.7,4.1-6.8,6.2c-4.9,1.7-8.6,2.5-14.1,3.1c-0.2,1.5-0.3,2.9-0.6,4.4
			c1.4,0.9,2.7,1.9,4.2,2.9c3.6-0.7,8.7-3.7,12.3-4.2c1.1-0.7,2.3-1.6,3.2-2.2c2.6-1.8,5.8-3.8,8.3-7.2
			C899.5,475,896.3,475.3,894.8,473.7L894.8,473.7z"/>
		<path class="st3" d="M65.2,468.5c7.2,2.5,10.9,2.4,18.5,0c2.4,3.5,2.3,2.4,0.3,6.3c-2.8,0.7-5.6,1.4-8.3,2.2
			c-4.4-0.7-5.7,0.4-9.9-1.9C63.6,474,64.7,470.1,65.2,468.5L65.2,468.5z"/>
		<path class="st3" d="M309.4,468.5c7.2,2.5,10.9,2.4,18.5,0c2.4,3.5,2.3,2.4,0.3,6.3c-2.8,0.7-5.6,1.4-8.3,2.2
			c-4.4-0.7-5.7,0.4-9.9-1.9C307.8,474,308.9,470.1,309.4,468.5L309.4,468.5z"/>
		<path class="st3" d="M551,468.5c7.2,2.5,10.9,2.4,18.5,0c2.4,3.5,2.3,2.4,0.3,6.3c-2.8,0.7-5.6,1.4-8.3,2.2
			c-4.4-0.7-5.7,0.4-9.9-1.9C549.4,474,550.5,470.1,551,468.5L551,468.5z"/>
		<path class="st3" d="M797.8,467.4c7.2,2.5,10.9,2.4,18.5,0c2.4,3.5,2.3,2.4,0.3,6.3c-2.8,0.7-5.6,1.4-8.3,2.2
			c-4.4-0.7-5.7,0.4-9.9-1.9C796.2,473,797.4,469,797.8,467.4L797.8,467.4z"/>
	</g>
</g>
</svg>
