<?xml version="1.0" encoding="utf-8"?>
<!-- Generator: Adobe Illustrator 19.2.0, SVG Export Plug-In . SVG Version: 6.00 Build 0)  -->
<svg version="1.1" id="Livello_1" xmlns="http://www.w3.org/2000/svg" xmlns:xlink="http://www.w3.org/1999/xlink" x="0px" y="0px"
	 viewBox="0 0 960 960" style="enable-background:new 0 0 960 960;" xml:space="preserve">
<style type="text/css">
	.st0{fill-rule:evenodd;clip-rule:evenodd;fill:#CECFD1;}
	.st1{fill-rule:evenodd;clip-rule:evenodd;fill:#FFFFFF;}
	.st2{fill-rule:evenodd;clip-rule:evenodd;fill:#609F6F;stroke:#1A171B;stroke-width:1.061;stroke-miterlimit:2.6131;}
	.st3{fill-rule:evenodd;clip-rule:evenodd;fill:#006A32;}
	.st4{fill-rule:evenodd;clip-rule:evenodd;fill:#00552F;}
</style>
<g>
	<g>
		<polygon class="st0" points="45,182.6 915,182.6 915,777.4 45,777.4 45,182.6 		"/>
		<polygon class="st1" points="45,750.4 915,750.4 915,763 45,763 45,750.4 		"/>
		<polygon class="st1" points="45,195.9 915,195.9 915,208.6 45,208.6 45,195.9 		"/>
		<path class="st1" d="M889.3,509.1v12.6h-67v-12.6H889.3L889.3,509.1z M763.2,509.1v12.6h-66.1v-12.6H763.2L763.2,509.1z
			 M638,509.1v12.6h-66.2v-12.6H638L638,509.1z M512.8,509.1v12.6h-66.6v-12.6H512.8L512.8,509.1z M387.6,509.1v12.6H321v-12.6
			H387.6L387.6,509.1z M262.4,509.1v12.6h-66.5v-12.6H262.4L262.4,509.1z M137.2,509.1v12.6H70.6v-12.6H137.2L137.2,509.1z"/>
		<path class="st1" d="M889.5,267.5v12.6h-67v-12.6H889.5L889.5,267.5z M763.4,267.5v12.6h-66.1v-12.6H763.4L763.4,267.5z
			 M638.2,267.5v12.6h-66.1v-12.6H638.2L638.2,267.5z M513,267.5v12.6h-66.6v-12.6H513L513,267.5z M387.8,267.5v12.6h-66.6v-12.6
			H387.8L387.8,267.5z M262.6,267.5v12.6H196v-12.6H262.6L262.6,267.5z M137.4,267.5v12.6H70.8v-12.6H137.4L137.4,267.5z"/>
		<path class="st1" d="M889.5,437v12.6h-67V437H889.5L889.5,437z M763.4,437v12.6h-66.1V437H763.4L763.4,437z M638.2,437v12.6h-66.1
			V437H638.2L638.2,437z M513,437v12.6h-66.6V437H513L513,437z M387.8,437v12.6h-66.6V437H387.8L387.8,437z M262.6,437v12.6H196V437
			H262.6L262.6,437z M137.4,437v12.6H70.8V437H137.4L137.4,437z"/>
		<path class="st1" d="M889.5,679.1v12.6h-67v-12.6H889.5L889.5,679.1z M763.4,679.1v12.6h-66.1v-12.6H763.4L763.4,679.1z
			 M638.2,679.1v12.6h-66.1v-12.6H638.2L638.2,679.1z M513,679.1v12.6h-66.6v-12.6H513L513,679.1z M387.8,679.1v12.6h-66.6v-12.6
			H387.8L387.8,679.1z M262.6,679.1v12.6H196v-12.6H262.6L262.6,679.1z M137.4,679.1v12.6H70.8v-12.6H137.4L137.4,679.1z"/>
		<polygon class="st2" points="45,339 915,339 915,378.1 45,378.1 45,339 		"/>
		<path class="st3" d="M62.8,359.5c4.8,1,10.1,2.2,15,3.4c8.9-0.4,14-2.1,22.9-3.9c1.5,1.3,3,2.7,4.6,4c-1.3,1.5-2.6,3-4,4.6
			c-6.1,0.9-12,1.9-18,3c-9.6-0.9-16.7-1.5-25.7-4.6c0.5-1.2,0.3-2.5,0.7-3.6C58.7,361.6,62.3,360.6,62.8,359.5L62.8,359.5z"/>
		<path class="st3" d="M307.4,359.5c4.8,1,10.1,2.2,15,3.4c8.9-0.4,14-2.1,22.9-3.9c1.5,1.3,3,2.7,4.6,4c-1.3,1.5-2.6,3-4,4.6
			c-6.1,0.9-12,1.9-18,3c-9.6-0.9-16.7-1.5-25.7-4.6c0.5-1.2,0.3-2.5,0.7-3.6C303.3,361.6,306.9,360.6,307.4,359.5L307.4,359.5z"/>
		<path class="st3" d="M549.4,359.5c4.8,1,10.1,2.2,15,3.4c8.9-0.4,14-2.1,22.9-3.9c1.5,1.3,3,2.7,4.6,4c-1.3,1.5-2.6,3-4,4.6
			c-6.1,0.9-12,1.9-18,3c-9.6-0.9-16.7-1.5-25.7-4.6c0.5-1.2,0.3-2.5,0.7-3.6C545.3,361.6,548.9,360.6,549.4,359.5L549.4,359.5z"/>
		<path class="st3" d="M796.6,358.6c4.8,1,10.1,2.2,15,3.4c8.9-0.4,14-2.1,22.9-3.9c1.5,1.3,3,2.7,4.6,4c-1.3,1.5-2.6,3-4,4.6
			c-6.1,0.9-12,1.9-18,3c-9.6-0.9-16.7-1.5-25.7-4.6c0.5-1.2,0.3-2.5,0.7-3.6C792.5,360.7,796.1,359.7,796.6,358.6L796.6,358.6z"/>
		<path class="st3" d="M131.7,355.8c2.5-0.9,5-1.8,7.5-2.8c4.6,0.4,8.6,1.3,13.2,2.8c0.8-1.1,1.5-2.2,2.4-3.3
			c-0.7-1.2-1.4-2.4-2.1-3.8c-3.2-0.7-6.2-1.6-9.3-2.4c-5,0.7-8.6,1.2-13.4,3.8C130.6,352,131.2,354,131.7,355.8L131.7,355.8z"/>
		<path class="st3" d="M376.3,355.8c2.5-0.9,5-1.8,7.5-2.8c4.6,0.4,8.6,1.3,13.2,2.8c0.8-1.1,1.5-2.2,2.4-3.3
			c-0.7-1.2-1.4-2.4-2.1-3.8c-3.2-0.7-6.2-1.6-9.3-2.4c-5,0.7-8.6,1.2-13.4,3.8C375.2,352,375.7,354,376.3,355.8L376.3,355.8z"/>
		<path class="st3" d="M618.2,355.8c2.5-0.9,5-1.8,7.5-2.8c4.6,0.4,8.6,1.3,13.2,2.8c0.8-1.1,1.5-2.2,2.4-3.3
			c-0.7-1.2-1.4-2.4-2.1-3.8c-3.2-0.7-6.2-1.6-9.3-2.4c-5,0.7-8.6,1.2-13.4,3.8C617.2,352,617.7,354,618.2,355.8L618.2,355.8z"/>
		<path class="st3" d="M865.4,354.7c2.5-0.9,5-1.8,7.5-2.8c4.6,0.4,8.6,1.3,13.2,2.8c0.8-1.1,1.5-2.2,2.4-3.3
			c-0.7-1.2-1.4-2.4-2.1-3.8c-3.2-0.7-6.3-1.6-9.3-2.4c-5,0.7-8.6,1.2-13.4,3.8C864.4,351,864.9,352.9,865.4,354.7L865.4,354.7z"/>
		<path class="st4" d="M130.6,365.6c-2-2.6-2.3-5.3-5.3-8.4c-1.2,0.3-2.4,0.7-3.6,1c-0.3,1.1-0.6,2.3-1,3.5c1.6,2.1,3.1,4.2,4.6,6.2
			C135.5,373.4,131.1,368.8,130.6,365.6L130.6,365.6z"/>
		<path class="st4" d="M375.2,365.6c-2-2.6-2.3-5.3-5.3-8.4c-1.2,0.3-2.4,0.7-3.6,1c-0.3,1.1-0.6,2.3-1,3.5c1.6,2.1,3.1,4.2,4.6,6.2
			C380.1,373.4,375.7,368.8,375.2,365.6L375.2,365.6z"/>
		<path class="st4" d="M617.2,365.6c-2-2.6-2.3-5.3-5.3-8.4c-1.2,0.3-2.4,0.7-3.6,1c-0.3,1.1-0.6,2.3-1,3.5c1.6,2.1,3.1,4.2,4.6,6.2
			C622.1,373.4,617.7,368.8,617.2,365.6L617.2,365.6z"/>
		<path class="st4" d="M864.4,364.5c-2-2.6-2.3-5.3-5.3-8.4c-1.2,0.3-2.4,0.7-3.6,1c-0.3,1.1-0.6,2.3-1,3.5c1.6,2.1,3.1,4.2,4.6,6.2
			C869.3,372.4,864.9,367.7,864.4,364.5L864.4,364.5z"/>
		<path class="st3" d="M191.1,357.7c-7.7-1.3-8.2-0.1-9,5c1.3,2.8,5,6.7,9.1,8.5C203.9,369.8,196.2,360.5,191.1,357.7L191.1,357.7z"
			/>
		<path class="st3" d="M435.7,357.7c-7.7-1.3-8.2-0.1-9,5c1.3,2.8,5,6.7,9.1,8.5C448.5,369.8,440.8,360.5,435.7,357.7L435.7,357.7z"
			/>
		<path class="st3" d="M677.7,357.7c-7.7-1.3-8.2-0.1-9,5c1.3,2.8,5,6.7,9.1,8.5C690.5,369.8,682.8,360.5,677.7,357.7L677.7,357.7z"
			/>
		<path class="st3" d="M276.7,356.6c7.7-1.3,8.2-0.1,9,5c-1.3,2.8-5,6.7-9.1,8.5C263.9,368.7,271.6,359.4,276.7,356.6L276.7,356.6z"
			/>
		<path class="st3" d="M520.9,356.6c7.7-1.3,8.2-0.1,9,5c-1.3,2.8-5,6.7-9.1,8.5C508.1,368.7,515.8,359.4,520.9,356.6L520.9,356.6z"
			/>
		<path class="st3" d="M763.1,356.6c7.7-1.3,8.2-0.1,9,5c-1.3,2.8-5,6.7-9.1,8.5C750.2,368.7,757.9,359.4,763.1,356.6L763.1,356.6z"
			/>
		<path class="st3" d="M205,346.4c-8.3-0.1-11.3,1-12.2,6c1.3,2.8,11.3,4.2,15.4,6C220.9,357,210.1,349.2,205,346.4L205,346.4z"/>
		<path class="st3" d="M449.5,346.4c-8.3-0.1-11.3,1-12.2,6c1.3,2.8,11.3,4.2,15.4,6C465.5,357,454.7,349.2,449.5,346.4L449.5,346.4
			z"/>
		<path class="st3" d="M691.3,346.4c-8.3-0.1-11.3,1-12.2,6c1.3,2.8,11.3,4.2,15.4,6C707.3,357,696.4,349.2,691.3,346.4L691.3,346.4
			z"/>
		<path class="st3" d="M262.9,345.3c8.3-0.1,11.3,1,12.2,6c-1.3,2.8-11.3,4.2-15.4,6C246.9,356,257.7,348.2,262.9,345.3L262.9,345.3
			z"/>
		<path class="st3" d="M507.2,345.3c8.3-0.1,11.3,1,12.2,6c-1.3,2.8-11.3,4.2-15.4,6C491.3,356,502.1,348.2,507.2,345.3L507.2,345.3
			z"/>
		<path class="st3" d="M749.2,345.3c8.3-0.1,11.3,1,12.2,6c-1.3,2.8-11.3,4.2-15.4,6C733.3,356,744.1,348.2,749.2,345.3L749.2,345.3
			z"/>
		<path class="st4" d="M223.7,361.8c-3.5,0.3-9.3,0.4-13.2,0.7c-4.1,0.2-6.4,1.8-6.8,4.3c1.3,2.8,9.9,4.1,14,5.9
			C224.6,371.3,228.8,364.6,223.7,361.8L223.7,361.8z"/>
		<path class="st4" d="M468.1,361.8c-3.5,0.3-9.3,0.4-13.2,0.7c-4.1,0.2-6.4,1.8-6.8,4.3c1.3,2.8,9.9,4.1,14,5.9
			C469,371.3,473.2,364.6,468.1,361.8L468.1,361.8z"/>
		<path class="st4" d="M710.1,361.8c-3.5,0.3-9.3,0.4-13.2,0.7c-4.1,0.2-6.4,1.8-6.9,4.3c1.3,2.8,9.9,4.1,14,5.9
			C711,371.3,715.2,364.6,710.1,361.8L710.1,361.8z"/>
		<path class="st3" d="M244.1,360.9c3.5,0.3,9.3,0.4,13.2,0.7c4.1,0.2,6.4,1.8,6.9,4.3c-1.3,2.8-9.9,4.1-14,5.9
			C243.2,370.4,239,363.7,244.1,360.9L244.1,360.9z"/>
		<path class="st3" d="M488.5,360.9c3.5,0.3,9.3,0.4,13.2,0.7c4.1,0.2,6.4,1.8,6.8,4.3c-1.3,2.8-9.9,4.1-14,5.9
			C487.6,370.4,483.4,363.7,488.5,360.9L488.5,360.9z"/>
		<path class="st3" d="M730.7,360.9c3.5,0.3,9.3,0.4,13.2,0.7c4.1,0.2,6.4,1.8,6.9,4.3c-1.3,2.8-9.9,4.1-14,5.9
			C729.8,370.4,725.5,363.7,730.7,360.9L730.7,360.9z"/>
		<path class="st3" d="M162,354c-2,2-4.7,4.1-6.8,6.2c-4.9,1.7-8.7,2.5-14.1,3.1c-0.2,1.5-0.3,2.9-0.6,4.4c1.4,0.9,2.7,1.9,4.2,2.9
			c3.6-0.7,8.7-3.7,12.3-4.2c1.1-0.7,2.3-1.6,3.2-2.2c2.6-1.8,5.8-3.8,8.3-7.2C166.7,355.3,163.5,355.6,162,354L162,354z"/>
		<path class="st3" d="M406.4,354c-2,2-4.7,4.1-6.8,6.2c-4.9,1.7-8.7,2.5-14.1,3.1c-0.2,1.5-0.3,2.9-0.6,4.4
			c1.4,0.9,2.7,1.9,4.2,2.9c3.6-0.7,8.7-3.7,12.3-4.2c1.1-0.7,2.3-1.6,3.2-2.2c2.6-1.8,5.8-3.8,8.3-7.2
			C411.1,355.3,407.9,355.6,406.4,354L406.4,354z"/>
		<path class="st3" d="M648.3,354c-2,2-4.7,4.1-6.8,6.2c-4.9,1.7-8.6,2.5-14.1,3.1c-0.2,1.5-0.3,2.9-0.6,4.4
			c1.4,0.9,2.7,1.9,4.2,2.9c3.6-0.7,8.7-3.7,12.3-4.2c1.1-0.7,2.3-1.6,3.2-2.2c2.6-1.8,5.8-3.8,8.3-7.2
			C653.1,355.3,649.9,355.6,648.3,354L648.3,354z"/>
		<path class="st3" d="M895.7,352.9c-2,2-4.7,4.1-6.8,6.2c-4.9,1.7-8.7,2.5-14.1,3.1c-0.2,1.5-0.4,2.9-0.6,4.4
			c1.4,0.9,2.7,1.9,4.2,2.9c3.6-0.7,8.7-3.7,12.3-4.2c1.1-0.7,2.3-1.6,3.2-2.2c2.6-1.8,5.8-3.8,8.3-7.2
			C900.5,354.2,897.3,354.6,895.7,352.9L895.7,352.9z"/>
		<path class="st3" d="M64.9,347.7c7.3,2.5,10.9,2.4,18.5,0c2.4,3.5,2.3,2.4,0.3,6.3c-2.8,0.7-5.6,1.4-8.3,2.2
			c-4.4-0.7-5.7,0.4-9.9-1.9C63.3,353.3,64.4,349.3,64.9,347.7L64.9,347.7z"/>
		<path class="st3" d="M309.4,347.7c7.3,2.5,10.9,2.4,18.5,0c2.4,3.5,2.3,2.4,0.3,6.3c-2.8,0.7-5.6,1.4-8.3,2.2
			c-4.4-0.7-5.7,0.4-9.9-1.9C307.8,353.3,309,349.3,309.4,347.7L309.4,347.7z"/>
		<path class="st3" d="M551.4,347.7c7.3,2.5,10.9,2.4,18.5,0c2.4,3.5,2.3,2.4,0.3,6.3c-2.8,0.7-5.6,1.4-8.3,2.2
			c-4.4-0.7-5.7,0.4-9.9-1.9C549.8,353.3,551,349.3,551.4,347.7L551.4,347.7z"/>
		<path class="st3" d="M798.6,346.6c7.3,2.5,10.9,2.4,18.5,0c2.4,3.5,2.3,2.4,0.3,6.3c-2.8,0.7-5.6,1.4-8.3,2.2
			c-4.4-0.7-5.7,0.4-9.9-1.9C797,352.2,798.2,348.3,798.6,346.6L798.6,346.6z"/>
		<polygon class="st2" points="45,581 915,581 915,620.2 45,620.2 45,581 		"/>
		<path class="st3" d="M62.8,601.6c4.8,1,10.1,2.2,15,3.4c8.9-0.4,14-2.1,22.9-3.9c1.5,1.3,3,2.7,4.6,4c-1.3,1.5-2.6,3-4,4.6
			c-6.1,0.9-12,1.9-18,3c-9.6-0.9-16.7-1.5-25.7-4.6c0.5-1.2,0.3-2.5,0.7-3.6C58.7,603.7,62.3,602.6,62.8,601.6L62.8,601.6z"/>
		<path class="st3" d="M307.4,601.6c4.8,1,10.1,2.2,15,3.4c8.9-0.4,14-2.1,22.9-3.9c1.5,1.3,3,2.7,4.6,4c-1.3,1.5-2.6,3-4,4.6
			c-6.1,0.9-12,1.9-18,3c-9.6-0.9-16.7-1.5-25.7-4.6c0.5-1.2,0.3-2.5,0.7-3.6C303.3,603.7,306.9,602.6,307.4,601.6L307.4,601.6z"/>
		<path class="st3" d="M549.4,601.6c4.8,1,10.1,2.2,15,3.4c8.9-0.4,14-2.1,22.9-3.9c1.5,1.3,3,2.7,4.6,4c-1.3,1.5-2.6,3-4,4.6
			c-6.1,0.9-12,1.9-18,3c-9.6-0.9-16.7-1.5-25.7-4.6c0.5-1.2,0.3-2.5,0.7-3.6C545.3,603.7,548.9,602.6,549.4,601.6L549.4,601.6z"/>
		<path class="st3" d="M796.6,600.7c4.8,1,10.1,2.2,15,3.4c8.9-0.4,14-2.1,22.9-3.9c1.5,1.3,3,2.7,4.6,4c-1.3,1.5-2.6,3-4,4.6
			c-6.1,0.9-12,1.9-18,3c-9.6-0.9-16.7-1.5-25.7-4.6c0.5-1.2,0.3-2.5,0.7-3.6C792.5,602.8,796.1,601.7,796.6,600.7L796.6,600.7z"/>
		<path class="st3" d="M131.7,597.9c2.5-0.9,5-1.8,7.5-2.8c4.6,0.4,8.6,1.3,13.2,2.8c0.8-1.1,1.5-2.2,2.4-3.3
			c-0.7-1.2-1.4-2.4-2.1-3.8c-3.2-0.7-6.2-1.6-9.3-2.4c-5,0.7-8.6,1.2-13.4,3.8C130.6,594.1,131.2,596.1,131.7,597.9L131.7,597.9z"
			/>
		<path class="st3" d="M376.3,597.9c2.5-0.9,5-1.8,7.5-2.8c4.6,0.4,8.6,1.3,13.2,2.8c0.8-1.1,1.5-2.2,2.4-3.3
			c-0.7-1.2-1.4-2.4-2.1-3.8c-3.2-0.7-6.2-1.6-9.3-2.4c-5,0.7-8.6,1.2-13.4,3.8C375.2,594.1,375.7,596.1,376.3,597.9L376.3,597.9z"
			/>
		<path class="st3" d="M618.2,597.9c2.5-0.9,5-1.8,7.5-2.8c4.6,0.4,8.6,1.3,13.2,2.8c0.8-1.1,1.5-2.2,2.4-3.3
			c-0.7-1.2-1.4-2.4-2.1-3.8c-3.2-0.7-6.2-1.6-9.3-2.4c-5,0.7-8.6,1.2-13.4,3.8C617.2,594.1,617.7,596.1,618.2,597.9L618.2,597.9z"
			/>
		<path class="st3" d="M865.4,596.8c2.5-0.9,5-1.8,7.5-2.8c4.6,0.4,8.6,1.3,13.2,2.8c0.8-1.1,1.5-2.2,2.4-3.3
			c-0.7-1.2-1.4-2.4-2.1-3.8c-3.2-0.7-6.3-1.6-9.3-2.4c-5,0.7-8.6,1.2-13.4,3.8C864.4,593,864.9,595,865.4,596.8L865.4,596.8z"/>
		<path class="st4" d="M130.6,607.7c-2-2.6-2.3-5.3-5.3-8.4c-1.2,0.3-2.4,0.7-3.6,1c-0.3,1.1-0.6,2.3-1,3.5c1.6,2.1,3.1,4.2,4.6,6.3
			C135.5,615.5,131.1,610.8,130.6,607.7L130.6,607.7z"/>
		<path class="st4" d="M375.2,607.7c-2-2.6-2.3-5.3-5.3-8.4c-1.2,0.3-2.4,0.7-3.6,1c-0.3,1.1-0.6,2.3-1,3.5c1.6,2.1,3.1,4.2,4.6,6.3
			C380.1,615.5,375.7,610.8,375.2,607.7L375.2,607.7z"/>
		<path class="st4" d="M617.2,607.7c-2-2.6-2.3-5.3-5.3-8.4c-1.2,0.3-2.4,0.7-3.6,1c-0.3,1.1-0.6,2.3-1,3.5c1.6,2.1,3.1,4.2,4.6,6.3
			C622.1,615.5,617.7,610.8,617.2,607.7L617.2,607.7z"/>
		<path class="st4" d="M864.4,606.6c-2-2.6-2.3-5.3-5.3-8.4c-1.2,0.3-2.4,0.7-3.6,1c-0.3,1.1-0.6,2.3-1,3.5c1.6,2.1,3.1,4.2,4.6,6.3
			C869.3,614.4,864.9,609.7,864.4,606.6L864.4,606.6z"/>
		<path class="st3" d="M191.1,599.8c-7.7-1.3-8.2-0.1-9,5c1.3,2.8,5,6.7,9.1,8.5C203.9,611.8,196.2,602.6,191.1,599.8L191.1,599.8z"
			/>
		<path class="st3" d="M435.7,599.8c-7.7-1.3-8.2-0.1-9,5c1.3,2.8,5,6.7,9.1,8.5C448.5,611.8,440.8,602.6,435.7,599.8L435.7,599.8z"
			/>
		<path class="st3" d="M677.7,599.8c-7.7-1.3-8.2-0.1-9,5c1.3,2.8,5,6.7,9.1,8.5C690.5,611.8,682.8,602.6,677.7,599.8L677.7,599.8z"
			/>
		<path class="st3" d="M276.7,598.7c7.7-1.3,8.2-0.1,9,5c-1.3,2.8-5,6.7-9.1,8.5C263.9,610.8,271.6,601.5,276.7,598.7L276.7,598.7z"
			/>
		<path class="st3" d="M520.9,598.7c7.7-1.3,8.2-0.1,9,5c-1.3,2.8-5,6.7-9.1,8.5C508.1,610.8,515.8,601.5,520.9,598.7L520.9,598.7z"
			/>
		<path class="st3" d="M763.1,598.7c7.7-1.3,8.2-0.1,9,5c-1.3,2.8-5,6.7-9.1,8.5C750.2,610.8,757.9,601.5,763.1,598.7L763.1,598.7z"
			/>
		<path class="st3" d="M205,588.5c-8.3-0.1-11.3,1-12.2,6c1.3,2.8,11.3,4.2,15.4,6C220.9,599.1,210.1,591.3,205,588.5L205,588.5z"/>
		<path class="st3" d="M449.5,588.5c-8.3-0.1-11.3,1-12.2,6c1.3,2.8,11.3,4.2,15.4,6C465.5,599.1,454.7,591.3,449.5,588.5
			L449.5,588.5z"/>
		<path class="st3" d="M691.3,588.5c-8.3-0.1-11.3,1-12.2,6c1.3,2.8,11.3,4.2,15.4,6C707.3,599.1,696.4,591.3,691.3,588.5
			L691.3,588.5z"/>
		<path class="st3" d="M262.9,587.4c8.3-0.1,11.3,0.9,12.2,6c-1.3,2.8-11.3,4.2-15.4,6C246.9,598,257.7,590.2,262.9,587.4
			L262.9,587.4z"/>
		<path class="st3" d="M507.2,587.4c8.3-0.1,11.3,0.9,12.2,6c-1.3,2.8-11.3,4.2-15.4,6C491.3,598,502.1,590.2,507.2,587.4
			L507.2,587.4z"/>
		<path class="st3" d="M749.2,587.4c8.3-0.1,11.3,0.9,12.2,6c-1.3,2.8-11.3,4.2-15.4,6C733.3,598,744.1,590.2,749.2,587.4
			L749.2,587.4z"/>
		<path class="st4" d="M223.7,603.9c-3.5,0.3-9.3,0.4-13.2,0.7c-4.1,0.2-6.4,1.8-6.8,4.3c1.3,2.8,9.9,4.1,14,5.9
			C224.6,613.4,228.8,606.7,223.7,603.9L223.7,603.9z"/>
		<path class="st4" d="M468.1,603.9c-3.5,0.3-9.3,0.4-13.2,0.7c-4.1,0.2-6.4,1.8-6.8,4.3c1.3,2.8,9.9,4.1,14,5.9
			C469,613.4,473.2,606.7,468.1,603.9L468.1,603.9z"/>
		<path class="st4" d="M710.1,603.9c-3.5,0.3-9.3,0.4-13.2,0.7c-4.1,0.2-6.4,1.8-6.9,4.3c1.3,2.8,9.9,4.1,14,5.9
			C711,613.4,715.2,606.7,710.1,603.9L710.1,603.9z"/>
		<path class="st3" d="M244.1,603c3.5,0.3,9.3,0.4,13.2,0.7c4.1,0.2,6.4,1.8,6.9,4.3c-1.3,2.8-9.9,4.1-14,5.9
			C243.2,612.5,239,605.8,244.1,603L244.1,603z"/>
		<path class="st3" d="M488.5,603c3.5,0.3,9.3,0.4,13.2,0.7c4.1,0.2,6.4,1.8,6.8,4.3c-1.3,2.8-9.9,4.1-14,5.9
			C487.6,612.5,483.4,605.8,488.5,603L488.5,603z"/>
		<path class="st3" d="M730.7,603c3.5,0.3,9.3,0.4,13.2,0.7c4.1,0.2,6.4,1.8,6.9,4.3c-1.3,2.8-9.9,4.1-14,5.9
			C729.8,612.5,725.5,605.8,730.7,603L730.7,603z"/>
		<path class="st3" d="M162,596.1c-2,2-4.7,4.1-6.8,6.2c-4.9,1.7-8.7,2.5-14.1,3.1c-0.2,1.5-0.3,2.9-0.6,4.4
			c1.4,0.9,2.7,1.9,4.2,2.9c3.6-0.7,8.7-3.7,12.3-4.2c1.1-0.7,2.3-1.6,3.2-2.2c2.6-1.8,5.8-3.8,8.3-7.2
			C166.7,597.3,163.5,597.7,162,596.1L162,596.1z"/>
		<path class="st3" d="M406.4,596.1c-2,2-4.7,4.1-6.8,6.2c-4.9,1.7-8.7,2.5-14.1,3.1c-0.2,1.5-0.3,2.9-0.6,4.4
			c1.4,0.9,2.7,1.9,4.2,2.9c3.6-0.7,8.7-3.7,12.3-4.2c1.1-0.7,2.3-1.6,3.2-2.2c2.6-1.8,5.8-3.8,8.3-7.2
			C411.1,597.3,407.9,597.7,406.4,596.1L406.4,596.1z"/>
		<path class="st3" d="M648.3,596.1c-2,2-4.7,4.1-6.8,6.2c-4.9,1.7-8.6,2.5-14.1,3.1c-0.2,1.5-0.3,2.9-0.6,4.4
			c1.4,0.9,2.7,1.9,4.2,2.9c3.6-0.7,8.7-3.7,12.3-4.2c1.1-0.7,2.3-1.6,3.2-2.2c2.6-1.8,5.8-3.8,8.3-7.2
			C653.1,597.3,649.9,597.7,648.3,596.1L648.3,596.1z"/>
		<path class="st3" d="M895.7,595c-2,2-4.7,4.1-6.8,6.2c-4.9,1.7-8.7,2.5-14.1,3.1c-0.2,1.5-0.4,2.9-0.6,4.4
			c1.4,0.9,2.7,1.9,4.2,2.9c3.6-0.7,8.7-3.7,12.3-4.2c1.1-0.7,2.3-1.6,3.2-2.2c2.6-1.8,5.8-3.8,8.3-7.2
			C900.5,596.3,897.3,596.6,895.7,595L895.7,595z"/>
		<path class="st3" d="M64.9,589.8c7.3,2.5,10.9,2.4,18.5,0c2.4,3.5,2.3,2.4,0.3,6.3c-2.8,0.7-5.6,1.4-8.3,2.2
			c-4.4-0.7-5.7,0.4-9.9-1.9C63.3,595.3,64.4,591.4,64.9,589.8L64.9,589.8z"/>
		<path class="st3" d="M309.4,589.8c7.3,2.5,10.9,2.4,18.5,0c2.4,3.5,2.3,2.4,0.3,6.3c-2.8,0.7-5.6,1.4-8.3,2.2
			c-4.4-0.7-5.7,0.4-9.9-1.9C307.8,595.3,309,591.4,309.4,589.8L309.4,589.8z"/>
		<path class="st3" d="M551.4,589.8c7.3,2.5,10.9,2.4,18.5,0c2.4,3.5,2.3,2.4,0.3,6.3c-2.8,0.7-5.6,1.4-8.3,2.2
			c-4.4-0.7-5.7,0.4-9.9-1.9C549.8,595.3,551,591.4,551.4,589.8L551.4,589.8z"/>
		<path class="st3" d="M798.6,588.7c7.3,2.5,10.9,2.4,18.5,0c2.4,3.5,2.3,2.4,0.3,6.3c-2.8,0.7-5.6,1.4-8.3,2.2
			c-4.4-0.7-5.7,0.4-9.9-1.9C797,594.2,798.2,590.3,798.6,588.7L798.6,588.7z"/>
	</g>
</g>
</svg>
