<?xml version="1.0" encoding="utf-8"?>
<!-- Generator: Adobe Illustrator 19.2.0, SVG Export Plug-In . SVG Version: 6.00 Build 0)  -->
<svg version="1.1" id="Livello_1" xmlns="http://www.w3.org/2000/svg" xmlns:xlink="http://www.w3.org/1999/xlink" x="0px" y="0px"
	 viewBox="0 0 960 960" style="enable-background:new 0 0 960 960;" xml:space="preserve">
<style type="text/css">
	.st0{fill-rule:evenodd;clip-rule:evenodd;fill:#CECFD1;}
	.st1{fill-rule:evenodd;clip-rule:evenodd;fill:#FFFFFF;}
	.st2{fill-rule:evenodd;clip-rule:evenodd;fill:#1A171B;}
</style>
<g>
	<g>
		<polygon class="st0" points="45.5,164.7 914.7,164.7 914.7,795.3 45.5,795.3 45.5,164.7 		"/>
		<polygon class="st1" points="914.9,626.3 914.9,640.6 862.6,640.6 862.6,626.3 914.9,626.3 		"/>
		<polygon class="st1" points="695.2,626.3 767.8,626.3 767.8,640.6 695.2,640.6 695.2,626.3 		"/>
		<polygon class="st1" points="45.5,640.6 45.5,626.3 97.7,626.3 97.7,640.6 45.5,640.6 		"/>
		<polygon class="st1" points="192.5,626.3 265,626.3 265,640.6 192.5,640.6 192.5,626.3 		"/>
		<polygon class="st1" points="360.1,626.3 432.6,626.3 432.6,640.6 360.1,640.6 360.1,626.3 		"/>
		<polygon class="st1" points="527.6,626.3 600.2,626.3 600.2,640.6 527.6,640.6 527.6,626.3 		"/>
		<polygon class="st1" points="915,555.5 915,569.8 862.7,569.8 862.7,555.5 915,555.5 		"/>
		<polygon class="st1" points="695.3,555.5 767.9,555.5 767.9,569.8 695.3,569.8 695.3,555.5 		"/>
		<polygon class="st1" points="45.6,569.8 45.6,555.5 97.7,555.5 97.7,569.8 45.6,569.8 		"/>
		<polygon class="st1" points="192.5,555.5 265.1,555.5 265.1,569.8 192.5,569.8 192.5,555.5 		"/>
		<polygon class="st1" points="360.1,555.5 432.7,555.5 432.7,569.8 360.1,569.8 360.1,555.5 		"/>
		<polygon class="st1" points="527.7,555.5 600.3,555.5 600.3,569.8 527.7,569.8 527.7,555.5 		"/>
		<polygon class="st1" points="914.6,697.1 914.6,711.4 862.3,711.4 862.3,697.1 914.6,697.1 		"/>
		<polygon class="st1" points="694.9,697.1 767.4,697.1 767.4,711.4 694.9,711.4 694.9,697.1 		"/>
		<polygon class="st1" points="45.2,711.4 45.2,697.1 97.3,697.1 97.3,711.4 45.2,711.4 		"/>
		<polygon class="st1" points="192.1,697.1 264.7,697.1 264.7,711.4 192.1,711.4 192.1,697.1 		"/>
		<polygon class="st1" points="359.7,697.1 432.3,697.1 432.3,711.4 359.7,711.4 359.7,697.1 		"/>
		<polygon class="st1" points="527.3,697.1 599.9,697.1 599.9,711.4 527.3,711.4 527.3,697.1 		"/>
		<polygon class="st1" points="45.5,486.9 914.7,486.9 914.7,501 45.5,501 45.5,486.9 		"/>
		<polygon class="st0" points="46.4,472.5 914.7,472.5 914.7,486.7 46.4,486.7 46.4,472.5 		"/>
		<polygon class="st1" points="45.2,459.3 914.3,459.3 914.3,473.5 45.2,473.5 45.2,459.3 		"/>
		<polygon class="st1" points="45.5,765.9 914.7,765.9 914.7,780 45.5,780 45.5,765.9 		"/>
		<polygon class="st1" points="45.7,180.2 914.9,180.2 914.9,194.3 45.7,194.3 45.7,180.2 		"/>
		<polygon class="st1" points="527.2,319.4 599.8,319.4 599.8,333.5 527.2,333.5 527.2,319.4 		"/>
		<polygon class="st1" points="359.9,319.4 432.4,319.4 432.4,333.5 359.9,333.5 359.9,319.4 		"/>
		<polygon class="st1" points="192.3,319.4 264.8,319.4 264.8,333.5 192.3,333.5 192.3,319.4 		"/>
		<polygon class="st1" points="45.2,333.5 45.2,319.4 97.3,319.4 97.3,333.5 45.2,333.5 		"/>
		<polygon class="st1" points="694.8,319.4 767.4,319.4 767.4,333.5 694.8,333.5 694.8,319.4 		"/>
		<polygon class="st1" points="914.5,319.4 914.5,333.5 862.2,333.5 862.2,319.4 914.5,319.4 		"/>
		<polygon class="st1" points="527.3,249.2 599.9,249.2 599.9,263.3 527.3,263.3 527.3,249.2 		"/>
		<polygon class="st1" points="359.9,249.2 432.5,249.2 432.5,263.3 359.9,263.3 359.9,249.2 		"/>
		<polygon class="st1" points="192.3,249.2 264.9,249.2 264.9,263.3 192.3,263.3 192.3,249.2 		"/>
		<polygon class="st1" points="45.3,263.3 45.3,249.2 97.4,249.2 97.4,263.3 45.3,263.3 		"/>
		<polygon class="st1" points="694.9,249.2 767.5,249.2 767.5,263.3 694.9,263.3 694.9,249.2 		"/>
		<polygon class="st1" points="914.6,249.2 914.6,263.3 862.3,263.3 862.3,249.2 914.6,249.2 		"/>
		<polygon class="st1" points="527,388.5 599.6,388.5 599.6,402.7 527,402.7 527,388.5 		"/>
		<polygon class="st1" points="359.6,388.5 432.2,388.5 432.2,402.7 359.6,402.7 359.6,388.5 		"/>
		<polygon class="st1" points="192.1,388.5 264.6,388.5 264.6,402.7 192.1,402.7 192.1,388.5 		"/>
		<polygon class="st1" points="45,402.7 45,388.5 97.1,388.5 97.1,402.7 45,402.7 		"/>
		<polygon class="st1" points="694.6,388.5 767.2,388.5 767.2,402.7 694.6,402.7 694.6,388.5 		"/>
		<polygon class="st1" points="914.3,388.5 914.3,402.7 862,402.7 862,388.5 914.3,388.5 		"/>
		<path class="st2" d="M118.8,245.9h-9.3l-3.7-10.4H89l-3.5,10.4h-9l16.4-45.8h9L118.8,245.9L118.8,245.9z M103.1,227.8l-5.8-17
			l-5.7,17H103.1L103.1,227.8z"/>
		<path class="st2" d="M76.8,269.3h16.9c3.3,0,5.8,0.1,7.5,0.5c1.6,0.3,3.1,0.9,4.4,1.9c1.3,1,2.4,2.2,3.2,3.8
			c0.9,1.6,1.3,3.4,1.3,5.3c0,2.1-0.5,4.1-1.6,5.9c-1.1,1.8-2.5,3.1-4.3,4c2.6,0.8,4.5,2.2,5.9,4.1c1.4,2,2.1,4.3,2.1,6.9
			c0,2.1-0.4,4.1-1.3,6.1c-0.9,2-2.1,3.5-3.7,4.7c-1.5,1.2-3.4,1.9-5.7,2.2c-1.4,0.2-4.8,0.3-10.3,0.3H76.8V269.3L76.8,269.3z
			 M85.3,276.9v10.6h5.6c3.3,0,5.4-0.1,6.2-0.2c1.5-0.2,2.6-0.7,3.4-1.6c0.8-0.9,1.2-2.1,1.2-3.6c0-1.4-0.4-2.6-1.1-3.5
			c-0.7-0.9-1.8-1.4-3.2-1.6c-0.8-0.1-3.3-0.2-7.3-0.2H85.3L85.3,276.9z M85.3,295.1v12.2h7.9c3.1,0,5-0.1,5.8-0.3
			c1.3-0.2,2.3-0.9,3.1-1.8c0.8-1,1.2-2.3,1.2-3.9c0-1.4-0.3-2.5-0.9-3.5c-0.6-1-1.5-1.7-2.7-2.1c-1.2-0.4-3.7-0.6-7.5-0.6H85.3
			L85.3,295.1z"/>
		<path class="st2" d="M104.1,367.6l8.2,2.8c-1.3,5-3.4,8.7-6.3,11.1c-2.9,2.4-6.7,3.6-11.2,3.6c-5.6,0-10.2-2.1-13.8-6.2
			c-3.6-4.2-5.4-9.8-5.4-17c0-7.6,1.8-13.5,5.4-17.8c3.6-4.2,8.4-6.3,14.3-6.3c5.2,0,9.3,1.6,12.6,5c1.9,2,3.4,4.8,4.3,8.4l-8.4,2.2
			c-0.5-2.4-1.5-4.3-3.1-5.6c-1.6-1.4-3.5-2.1-5.8-2.1c-3.1,0-5.7,1.2-7.6,3.7c-1.9,2.4-2.9,6.4-2.9,11.8c0,5.8,1,9.9,2.9,12.4
			c1.9,2.5,4.4,3.7,7.5,3.7c2.3,0,4.2-0.8,5.8-2.3C102.2,373.4,103.4,370.9,104.1,367.6L104.1,367.6z"/>
		<path class="st2" d="M76,408h15.6c3.5,0,6.2,0.3,8,0.9c2.5,0.8,4.6,2.2,6.4,4.2c1.8,2,3.1,4.5,4,7.4c0.9,2.9,1.4,6.5,1.4,10.8
			c0,3.8-0.4,7-1.3,9.7c-1.1,3.3-2.6,6-4.5,8.1c-1.5,1.6-3.5,2.8-6,3.7c-1.9,0.6-4.4,1-7.5,1H76V408L76,408z M84.5,415.7V446h6.3
			c2.4,0,4.1-0.1,5.2-0.4c1.4-0.4,2.5-1,3.4-1.9c0.9-0.9,1.6-2.4,2.2-4.4c0.6-2,0.9-4.9,0.9-8.4s-0.3-6.2-0.9-8.1
			c-0.6-1.9-1.4-3.4-2.4-4.4c-1-1.1-2.4-1.8-3.9-2.2c-1.2-0.3-3.5-0.4-7-0.4H84.5L84.5,415.7z"/>
		<path class="st2" d="M118.2,762.5H109l-3.7-10.4H88.4l-3.5,10.4h-9l16.4-45.8h9L118.2,762.5L118.2,762.5z M102.5,744.4l-5.8-17
			l-5.7,17H102.5L102.5,744.4z"/>
		<path class="st2" d="M76.3,646.4h16.9c3.3,0,5.8,0.1,7.5,0.5c1.6,0.3,3.1,0.9,4.4,1.9c1.3,1,2.4,2.2,3.2,3.8
			c0.9,1.6,1.3,3.4,1.3,5.3c0,2.1-0.5,4.1-1.6,5.9c-1.1,1.8-2.5,3.1-4.3,4c2.6,0.8,4.5,2.2,5.9,4.1c1.4,2,2.1,4.3,2.1,6.9
			c0,2.1-0.4,4.1-1.3,6.1c-0.9,2-2.1,3.5-3.7,4.7c-1.5,1.2-3.4,1.9-5.7,2.2c-1.4,0.2-4.8,0.3-10.3,0.3H76.3V646.4L76.3,646.4z
			 M84.8,654v10.6h5.6c3.3,0,5.4-0.1,6.2-0.2c1.5-0.2,2.6-0.7,3.4-1.6c0.8-0.9,1.2-2.1,1.2-3.6c0-1.4-0.4-2.6-1.1-3.5
			c-0.7-0.9-1.8-1.4-3.2-1.6c-0.8-0.1-3.3-0.2-7.3-0.2H84.8L84.8,654z M84.8,672.2v12.2h7.9c3.1,0,5-0.1,5.8-0.3
			c1.3-0.2,2.3-0.9,3.1-1.8c0.8-1,1.2-2.3,1.2-3.9c0-1.4-0.3-2.5-0.9-3.5c-0.6-1-1.5-1.7-2.7-2.1c-1.2-0.4-3.7-0.6-7.5-0.6H84.8
			L84.8,672.2z"/>
		<path class="st2" d="M105.5,603.5l8.2,2.8c-1.3,5-3.4,8.7-6.3,11.1c-2.9,2.4-6.7,3.6-11.2,3.6c-5.6,0-10.2-2.1-13.8-6.2
			c-3.6-4.2-5.4-9.8-5.4-17c0-7.6,1.8-13.5,5.4-17.8c3.6-4.2,8.4-6.3,14.3-6.3c5.2,0,9.3,1.7,12.6,5c1.9,2,3.4,4.8,4.3,8.4l-8.4,2.2
			c-0.5-2.4-1.5-4.3-3.1-5.6c-1.6-1.4-3.5-2.1-5.8-2.1c-3.1,0-5.7,1.2-7.6,3.7c-1.9,2.4-2.9,6.4-2.9,11.8c0,5.8,1,9.9,2.9,12.4
			c1.9,2.5,4.4,3.7,7.5,3.7c2.3,0,4.2-0.8,5.8-2.3C103.6,609.3,104.8,606.8,105.5,603.5L105.5,603.5z"/>
		<path class="st2" d="M76.2,505.8h15.6c3.5,0,6.2,0.3,8,0.9c2.5,0.8,4.6,2.2,6.4,4.2c1.8,2,3.1,4.5,4,7.4c0.9,2.9,1.4,6.5,1.4,10.8
			c0,3.8-0.4,7-1.3,9.7c-1.1,3.3-2.6,6-4.5,8.1c-1.5,1.6-3.5,2.8-6,3.7c-1.9,0.7-4.4,1-7.5,1h-16V505.8L76.2,505.8z M84.7,513.5
			v30.3h6.3c2.4,0,4.1-0.1,5.2-0.4c1.4-0.4,2.5-1,3.4-1.9c0.9-0.9,1.6-2.4,2.2-4.4c0.6-2,0.9-4.9,0.9-8.4c0-3.5-0.3-6.2-0.9-8.1
			c-0.6-1.9-1.4-3.4-2.4-4.4c-1-1.1-2.4-1.8-3.9-2.2c-1.2-0.3-3.5-0.4-7-0.4H84.7L84.7,513.5z"/>
	</g>
</g>
</svg>
