<?xml version="1.0" encoding="utf-8"?>
<!-- Generator: Adobe Illustrator 19.2.0, SVG Export Plug-In . SVG Version: 6.00 Build 0)  -->
<svg version="1.1" id="Livello_1" xmlns="http://www.w3.org/2000/svg" xmlns:xlink="http://www.w3.org/1999/xlink" x="0px" y="0px"
	 viewBox="0 0 872.4 692.7" style="enable-background:new 0 0 872.4 692.7;" xml:space="preserve">
<style type="text/css">
	.st0{fill:#B9B9B9;}
	.st1{fill:#FFFFFF;}
	.st2{fill:#609F6F;stroke:#1A171B;stroke-width:1.061;stroke-miterlimit:2.6131;}
	.st3{fill:#006A32;}
	.st4{fill:#00552F;}
</style>
<g>
	<g>
		<polygon class="st0" points="1.2,1.2 871.2,1.2 871.2,691.6 1.2,691.6 		"/>
		<polygon class="st1" points="1.2,664.6 871.2,664.6 871.2,677.2 1.2,677.2 		"/>
		<polygon class="st1" points="1.2,15.9 871.2,15.9 871.2,28.6 1.2,28.6 		"/>
		<path class="st1" d="M845.5,423.3v12.6h-67v-12.6H845.5L845.5,423.3z M719.4,423.3v12.6h-66.1v-12.6H719.4L719.4,423.3z
			 M594.2,423.3v12.6H528v-12.6H594.2L594.2,423.3z M469,423.3v12.6h-66.6v-12.6H469L469,423.3z M343.8,423.3v12.6h-66.6v-12.6
			H343.8L343.8,423.3z M218.6,423.3v12.6h-66.5v-12.6H218.6L218.6,423.3z M93.4,423.3v12.6H26.8v-12.6H93.4L93.4,423.3z"/>
		<path class="st1" d="M845.7,87.5v12.6h-67V87.5H845.7L845.7,87.5z M719.6,87.5v12.6h-66.1V87.5H719.6L719.6,87.5z M594.4,87.5
			v12.6h-66.1V87.5H594.4L594.4,87.5z M469.2,87.5v12.6h-66.6V87.5H469.2L469.2,87.5z M344,87.5v12.6h-66.6V87.5H344L344,87.5z
			 M218.8,87.5v12.6h-66.6V87.5H218.8L218.8,87.5z M93.6,87.5v12.6H27V87.5H93.6L93.6,87.5z"/>
		<path class="st1" d="M845.7,257v12.6h-67V257H845.7L845.7,257z M719.6,257v12.6h-66.1V257H719.6L719.6,257z M594.4,257v12.6h-66.1
			V257H594.4L594.4,257z M469.2,257v12.6h-66.6V257H469.2L469.2,257z M344,257v12.6h-66.6V257H344L344,257z M218.8,257v12.6h-66.6
			V257H218.8L218.8,257z M93.6,257v12.6H27V257H93.6L93.6,257z"/>
		<path class="st1" d="M845.7,593.3v12.6h-67v-12.6H845.7L845.7,593.3z M719.6,593.3v12.6h-66.1v-12.6H719.6L719.6,593.3z
			 M594.4,593.3v12.6h-66.1v-12.6H594.4L594.4,593.3z M469.2,593.3v12.6h-66.6v-12.6H469.2L469.2,593.3z M344,593.3v12.6h-66.6
			v-12.6H344L344,593.3z M218.8,593.3v12.6h-66.6v-12.6H218.8L218.8,593.3z M93.6,593.3v12.6H27v-12.6H93.6L93.6,593.3z"/>
		<polygon class="st1" points="1.2,328.3 871.2,328.3 871.2,341 1.2,341 		"/>
		<polygon class="st1" points="1.2,352.2 871.2,352.2 871.2,364.8 1.2,364.8 		"/>
		<polygon class="st2" points="1.2,159 871.2,159 871.2,198.1 1.2,198.1 		"/>
		<path class="st3" d="M19,179.5c4.8,1,10.1,2.2,15,3.4c8.9-0.4,14-2.1,22.9-3.9c1.5,1.3,3,2.7,4.6,4c-1.3,1.5-2.6,3-4,4.6
			c-6.1,0.9-12,1.9-18,3c-9.6-0.9-16.7-1.5-25.7-4.6c0.5-1.2,0.3-2.5,0.7-3.6C14.9,181.6,18.5,180.5,19,179.5L19,179.5z"/>
		<path class="st3" d="M263.6,179.5c4.8,1,10.1,2.2,15,3.4c8.9-0.4,14-2.1,22.9-3.9c1.5,1.3,3,2.7,4.6,4c-1.3,1.5-2.6,3-4,4.6
			c-6.1,0.9-12,1.9-18,3c-9.6-0.9-16.7-1.5-25.7-4.6c0.5-1.2,0.3-2.5,0.7-3.6C259.5,181.6,263.1,180.5,263.6,179.5L263.6,179.5z"/>
		<path class="st3" d="M505.6,179.5c4.8,1,10.1,2.2,15,3.4c8.9-0.4,14-2.1,22.9-3.9c1.5,1.3,3,2.7,4.6,4c-1.3,1.5-2.6,3-4,4.6
			c-6.1,0.9-12,1.9-18,3c-9.6-0.9-16.7-1.5-25.7-4.6c0.5-1.2,0.3-2.5,0.7-3.6C501.5,181.6,505.1,180.5,505.6,179.5L505.6,179.5z"/>
		<path class="st3" d="M752.8,178.6c4.8,1,10.1,2.2,15,3.4c8.9-0.4,14-2.1,22.9-3.9c1.5,1.3,3,2.7,4.6,4c-1.3,1.5-2.6,3-4,4.6
			c-6.1,0.9-12,1.9-18,3c-9.6-0.9-16.7-1.5-25.7-4.6c0.5-1.2,0.3-2.5,0.7-3.6C748.7,180.7,752.3,179.6,752.8,178.6L752.8,178.6z"/>
		<path class="st3" d="M87.9,175.8c2.5-0.9,5-1.8,7.5-2.8c4.6,0.4,8.6,1.3,13.2,2.8c0.8-1.1,1.5-2.2,2.4-3.3
			c-0.7-1.2-1.4-2.4-2.1-3.8c-3.2-0.7-6.2-1.6-9.3-2.4c-5,0.7-8.6,1.2-13.4,3.8C86.8,172,87.4,174,87.9,175.8L87.9,175.8z"/>
		<path class="st3" d="M332.5,175.8c2.5-0.9,5-1.8,7.5-2.8c4.6,0.4,8.6,1.3,13.2,2.8c0.8-1.1,1.5-2.2,2.4-3.3
			c-0.7-1.2-1.4-2.4-2.1-3.8c-3.2-0.7-6.2-1.6-9.3-2.4c-5,0.7-8.6,1.2-13.4,3.8C331.4,172,331.9,174,332.5,175.8L332.5,175.8z"/>
		<path class="st3" d="M574.4,175.8c2.5-0.9,5-1.8,7.5-2.8c4.6,0.4,8.6,1.3,13.2,2.8c0.8-1.1,1.5-2.2,2.4-3.3
			c-0.7-1.2-1.4-2.4-2.1-3.8c-3.2-0.7-6.2-1.6-9.3-2.4c-5,0.7-8.6,1.2-13.4,3.8C573.4,172,573.9,174,574.4,175.8L574.4,175.8z"/>
		<path class="st3" d="M821.6,174.7c2.5-0.9,5-1.8,7.5-2.8c4.6,0.4,8.6,1.3,13.2,2.8c0.8-1.1,1.5-2.2,2.4-3.3
			c-0.7-1.2-1.4-2.4-2.1-3.8c-3.2-0.7-6.3-1.6-9.3-2.4c-5,0.7-8.6,1.2-13.4,3.8C820.6,170.9,821.1,172.9,821.6,174.7L821.6,174.7z"
			/>
		<path class="st4" d="M86.8,185.6c-2-2.6-2.3-5.3-5.3-8.4c-1.2,0.3-2.4,0.7-3.6,1c-0.3,1.1-0.6,2.3-1,3.5c1.6,2.1,3.1,4.2,4.6,6.2
			C91.7,193.4,87.3,188.7,86.8,185.6L86.8,185.6z"/>
		<path class="st4" d="M331.4,185.6c-2-2.6-2.3-5.3-5.3-8.4c-1.2,0.3-2.4,0.7-3.6,1c-0.3,1.1-0.6,2.3-1,3.5c1.6,2.1,3.1,4.2,4.6,6.2
			C336.3,193.4,331.9,188.7,331.4,185.6L331.4,185.6z"/>
		<path class="st4" d="M573.4,185.6c-2-2.6-2.3-5.3-5.3-8.4c-1.2,0.3-2.4,0.7-3.6,1c-0.3,1.1-0.6,2.3-1,3.5c1.6,2.1,3.1,4.2,4.6,6.2
			C578.3,193.4,573.9,188.7,573.4,185.6L573.4,185.6z"/>
		<path class="st4" d="M820.6,184.5c-2-2.6-2.3-5.3-5.3-8.4c-1.2,0.3-2.4,0.7-3.6,1c-0.3,1.1-0.6,2.3-1,3.5c1.6,2.1,3.1,4.2,4.6,6.2
			C825.5,192.3,821.1,187.7,820.6,184.5L820.6,184.5z"/>
		<path class="st3" d="M147.3,177.7c-7.7-1.3-8.2-0.1-9,5c1.3,2.8,5,6.7,9.1,8.5C160.1,189.8,152.4,180.5,147.3,177.7L147.3,177.7z"
			/>
		<path class="st3" d="M391.9,177.7c-7.7-1.3-8.2-0.1-9,5c1.3,2.8,5,6.7,9.1,8.5C404.7,189.8,397,180.5,391.9,177.7L391.9,177.7z"/>
		<path class="st3" d="M633.9,177.7c-7.7-1.3-8.2-0.1-9,5c1.3,2.8,5,6.7,9.1,8.5C646.7,189.8,639,180.5,633.9,177.7L633.9,177.7z"/>
		<path class="st3" d="M232.9,176.6c7.7-1.3,8.2-0.1,9,5c-1.3,2.8-5,6.7-9.1,8.5C220.1,188.7,227.8,179.4,232.9,176.6L232.9,176.6z"
			/>
		<path class="st3" d="M477.1,176.6c7.7-1.3,8.2-0.1,9,5c-1.3,2.8-5,6.7-9.1,8.5C464.3,188.7,472,179.4,477.1,176.6L477.1,176.6z"/>
		<path class="st3" d="M719.3,176.6c7.7-1.3,8.2-0.1,9,5c-1.3,2.8-5,6.7-9.1,8.5C706.4,188.7,714.1,179.4,719.3,176.6L719.3,176.6z"
			/>
		<path class="st3" d="M161.2,166.4c-8.3-0.1-11.3,1-12.2,6c1.3,2.8,11.3,4.2,15.4,6C177.1,177,166.3,169.2,161.2,166.4L161.2,166.4
			z"/>
		<path class="st3" d="M405.7,166.4c-8.3-0.1-11.3,1-12.2,6c1.3,2.8,11.3,4.2,15.4,6C421.7,177,410.9,169.2,405.7,166.4L405.7,166.4
			z"/>
		<path class="st3" d="M647.5,166.4c-8.3-0.1-11.3,1-12.2,6c1.3,2.8,11.3,4.2,15.4,6C663.5,177,652.6,169.2,647.5,166.4L647.5,166.4
			z"/>
		<path class="st3" d="M219.1,165.3c8.3-0.1,11.3,1,12.2,6c-1.3,2.8-11.3,4.2-15.4,6C203.1,175.9,213.9,168.1,219.1,165.3
			L219.1,165.3z"/>
		<path class="st3" d="M463.4,165.3c8.3-0.1,11.3,1,12.2,6c-1.3,2.8-11.3,4.2-15.4,6C447.5,175.9,458.3,168.1,463.4,165.3
			L463.4,165.3z"/>
		<path class="st3" d="M705.4,165.3c8.3-0.1,11.3,1,12.2,6c-1.3,2.8-11.3,4.2-15.4,6C689.5,175.9,700.3,168.1,705.4,165.3
			L705.4,165.3z"/>
		<path class="st4" d="M179.9,181.8c-3.5,0.4-9.3,0.4-13.2,0.7c-4.1,0.2-6.4,1.8-6.8,4.3c1.3,2.8,9.9,4.1,14,5.9
			C180.8,191.3,185,184.6,179.9,181.8L179.9,181.8z"/>
		<path class="st4" d="M424.3,181.8c-3.5,0.4-9.3,0.4-13.2,0.7c-4.1,0.2-6.4,1.8-6.8,4.3c1.3,2.8,9.9,4.1,14,5.9
			C425.2,191.3,429.4,184.6,424.3,181.8L424.3,181.8z"/>
		<path class="st4" d="M666.3,181.8c-3.5,0.4-9.3,0.4-13.2,0.7c-4.1,0.2-6.4,1.8-6.9,4.3c1.3,2.8,9.9,4.1,14,5.9
			C667.2,191.3,671.4,184.6,666.3,181.8L666.3,181.8z"/>
		<path class="st3" d="M200.3,180.9c3.5,0.3,9.3,0.4,13.2,0.7c4.1,0.2,6.4,1.8,6.9,4.3c-1.3,2.8-9.9,4.1-14,5.9
			C199.4,190.4,195.2,183.7,200.3,180.9L200.3,180.9z"/>
		<path class="st3" d="M444.7,180.9c3.5,0.3,9.3,0.4,13.2,0.7c4.1,0.2,6.4,1.8,6.8,4.3c-1.3,2.8-9.9,4.1-14,5.9
			C443.8,190.4,439.6,183.7,444.7,180.9L444.7,180.9z"/>
		<path class="st3" d="M686.9,180.9c3.5,0.3,9.3,0.4,13.2,0.7c4.1,0.2,6.4,1.8,6.9,4.3c-1.3,2.8-9.9,4.1-14,5.9
			C686,190.4,681.7,183.7,686.9,180.9L686.9,180.9z"/>
		<path class="st3" d="M118.2,174c-2,2-4.7,4.1-6.8,6.2c-4.9,1.7-8.7,2.5-14.1,3.1c-0.2,1.5-0.3,2.9-0.6,4.4
			c1.4,0.9,2.7,1.9,4.2,2.9c3.6-0.7,8.7-3.7,12.3-4.2c1.1-0.7,2.3-1.6,3.2-2.2c2.6-1.8,5.8-3.8,8.3-7.2
			C122.9,175.3,119.7,175.6,118.2,174L118.2,174z"/>
		<path class="st3" d="M362.6,174c-2,2-4.7,4.1-6.8,6.2c-4.9,1.7-8.7,2.5-14.1,3.1c-0.2,1.5-0.3,2.9-0.6,4.4
			c1.4,0.9,2.7,1.9,4.2,2.9c3.6-0.7,8.7-3.7,12.3-4.2c1.1-0.7,2.3-1.6,3.2-2.2c2.6-1.8,5.8-3.8,8.3-7.2
			C367.3,175.3,364.1,175.6,362.6,174L362.6,174z"/>
		<path class="st3" d="M604.5,174c-2,2-4.7,4.1-6.8,6.2c-4.9,1.7-8.6,2.5-14.1,3.1c-0.2,1.5-0.3,2.9-0.6,4.4
			c1.4,0.9,2.7,1.9,4.2,2.9c3.6-0.7,8.7-3.7,12.3-4.2c1.1-0.7,2.3-1.6,3.2-2.2c2.6-1.8,5.8-3.8,8.3-7.2
			C609.3,175.3,606.1,175.6,604.5,174L604.5,174z"/>
		<path class="st3" d="M851.9,172.9c-2,2-4.7,4.1-6.8,6.2c-4.9,1.7-8.7,2.5-14.1,3.1c-0.2,1.5-0.4,2.9-0.6,4.4
			c1.4,0.9,2.7,1.9,4.2,2.9c3.6-0.7,8.7-3.7,12.3-4.2c1.1-0.7,2.3-1.6,3.2-2.2c2.6-1.8,5.8-3.8,8.3-7.2
			C856.7,174.2,853.5,174.5,851.9,172.9L851.9,172.9z"/>
		<path class="st3" d="M21.1,167.7c7.3,2.5,10.9,2.4,18.5,0c2.4,3.5,2.3,2.4,0.3,6.3c-2.8,0.7-5.6,1.4-8.3,2.2
			c-4.4-0.7-5.7,0.4-9.9-1.9C19.5,173.2,20.6,169.3,21.1,167.7L21.1,167.7z"/>
		<path class="st3" d="M265.6,167.7c7.3,2.5,10.9,2.4,18.5,0c2.4,3.5,2.3,2.4,0.3,6.3c-2.8,0.7-5.6,1.4-8.3,2.2
			c-4.4-0.7-5.7,0.4-9.9-1.9C264,173.2,265.2,169.3,265.6,167.7L265.6,167.7z"/>
		<path class="st3" d="M507.6,167.7c7.3,2.5,10.9,2.4,18.5,0c2.4,3.5,2.3,2.4,0.3,6.3c-2.8,0.7-5.6,1.4-8.3,2.2
			c-4.4-0.7-5.7,0.4-9.9-1.9C506,173.2,507.2,169.3,507.6,167.7L507.6,167.7z"/>
		<path class="st3" d="M754.8,166.6c7.3,2.5,10.9,2.4,18.5,0c2.4,3.5,2.3,2.4,0.3,6.3c-2.8,0.7-5.6,1.4-8.3,2.2
			c-4.4-0.7-5.7,0.4-9.9-1.9C753.2,172.2,754.4,168.2,754.8,166.6L754.8,166.6z"/>
		<polygon class="st2" points="1.2,495.2 871.2,495.2 871.2,534.4 1.2,534.4 		"/>
		<path class="st3" d="M19,515.8c4.8,1,10.1,2.2,15,3.4c8.9-0.5,14-2.1,22.9-3.9c1.5,1.3,3,2.7,4.6,4c-1.3,1.5-2.6,3-4,4.6
			c-6.1,0.9-12,1.9-18,3c-9.6-0.9-16.7-1.5-25.7-4.6c0.5-1.2,0.3-2.5,0.7-3.6C14.9,517.9,18.5,516.8,19,515.8L19,515.8z"/>
		<path class="st3" d="M263.6,515.8c4.8,1,10.1,2.2,15,3.4c8.9-0.5,14-2.1,22.9-3.9c1.5,1.3,3,2.7,4.6,4c-1.3,1.5-2.6,3-4,4.6
			c-6.1,0.9-12,1.9-18,3c-9.6-0.9-16.7-1.5-25.7-4.6c0.5-1.2,0.3-2.5,0.7-3.6C259.5,517.9,263.1,516.8,263.6,515.8L263.6,515.8z"/>
		<path class="st3" d="M505.6,515.8c4.8,1,10.1,2.2,15,3.4c8.9-0.5,14-2.1,22.9-3.9c1.5,1.3,3,2.7,4.6,4c-1.3,1.5-2.6,3-4,4.6
			c-6.1,0.9-12,1.9-18,3c-9.6-0.9-16.7-1.5-25.7-4.6c0.5-1.2,0.3-2.5,0.7-3.6C501.5,517.9,505.1,516.8,505.6,515.8L505.6,515.8z"/>
		<path class="st3" d="M752.8,514.9c4.8,1,10.1,2.2,15,3.4c8.9-0.4,14-2.1,22.9-3.9c1.5,1.3,3,2.7,4.6,4c-1.3,1.5-2.6,3-4,4.6
			c-6.1,0.9-12,1.9-18,3c-9.6-0.9-16.7-1.5-25.7-4.6c0.5-1.2,0.3-2.5,0.7-3.6C748.7,517,752.3,515.9,752.8,514.9L752.8,514.9z"/>
		<path class="st3" d="M87.9,512.1c2.5-0.9,5-1.8,7.5-2.8c4.6,0.4,8.6,1.3,13.2,2.8c0.8-1.1,1.5-2.2,2.4-3.3
			c-0.7-1.2-1.4-2.4-2.1-3.8c-3.2-0.7-6.2-1.6-9.3-2.4c-5,0.7-8.6,1.2-13.4,3.8C86.8,508.3,87.4,510.3,87.9,512.1L87.9,512.1z"/>
		<path class="st3" d="M332.5,512.1c2.5-0.9,5-1.8,7.5-2.8c4.6,0.4,8.6,1.3,13.2,2.8c0.8-1.1,1.5-2.2,2.4-3.3
			c-0.7-1.2-1.4-2.4-2.1-3.8c-3.2-0.7-6.2-1.6-9.3-2.4c-5,0.7-8.6,1.2-13.4,3.8C331.4,508.3,331.9,510.3,332.5,512.1L332.5,512.1z"
			/>
		<path class="st3" d="M574.4,512.1c2.5-0.9,5-1.8,7.5-2.8c4.6,0.4,8.6,1.3,13.2,2.8c0.8-1.1,1.5-2.2,2.4-3.3
			c-0.7-1.2-1.4-2.4-2.1-3.8c-3.2-0.7-6.2-1.6-9.3-2.4c-5,0.7-8.6,1.2-13.4,3.8C573.4,508.3,573.9,510.3,574.4,512.1L574.4,512.1z"
			/>
		<path class="st3" d="M821.6,511c2.5-0.9,5-1.8,7.5-2.8c4.6,0.4,8.6,1.3,13.2,2.8c0.8-1.1,1.5-2.2,2.4-3.3
			c-0.7-1.2-1.4-2.4-2.1-3.8c-3.2-0.7-6.3-1.6-9.3-2.4c-5,0.7-8.6,1.2-13.4,3.8C820.6,507.2,821.1,509.2,821.6,511L821.6,511z"/>
		<path class="st4" d="M86.8,521.9c-2-2.6-2.3-5.3-5.3-8.4c-1.2,0.3-2.4,0.7-3.6,1c-0.3,1.1-0.6,2.3-1,3.5c1.6,2.1,3.1,4.1,4.6,6.2
			C91.7,529.7,87.3,525,86.8,521.9L86.8,521.9z"/>
		<path class="st4" d="M331.4,521.9c-2-2.6-2.3-5.3-5.3-8.4c-1.2,0.3-2.4,0.7-3.6,1c-0.3,1.1-0.6,2.3-1,3.5c1.6,2.1,3.1,4.1,4.6,6.2
			C336.3,529.7,331.9,525,331.4,521.9L331.4,521.9z"/>
		<path class="st4" d="M573.4,521.9c-2-2.6-2.3-5.3-5.3-8.4c-1.2,0.3-2.4,0.7-3.6,1c-0.3,1.1-0.6,2.3-1,3.5c1.6,2.1,3.1,4.1,4.6,6.2
			C578.3,529.7,573.9,525,573.4,521.9L573.4,521.9z"/>
		<path class="st4" d="M820.6,520.8c-2-2.6-2.3-5.3-5.3-8.4c-1.2,0.3-2.4,0.7-3.6,1c-0.3,1.1-0.6,2.3-1,3.5c1.6,2.1,3.1,4.2,4.6,6.3
			C825.5,528.6,821.1,523.9,820.6,520.8L820.6,520.8z"/>
		<path class="st3" d="M147.3,513.9c-7.7-1.3-8.2-0.1-9,5c1.3,2.8,5,6.7,9.1,8.5C160.1,526,152.4,516.8,147.3,513.9L147.3,513.9z"/>
		<path class="st3" d="M391.9,513.9c-7.7-1.3-8.2-0.1-9,5c1.3,2.8,5,6.7,9.1,8.5C404.7,526,397,516.8,391.9,513.9L391.9,513.9z"/>
		<path class="st3" d="M633.9,513.9c-7.7-1.3-8.2-0.1-9,5c1.3,2.8,5,6.7,9.1,8.5C646.7,526,639,516.8,633.9,513.9L633.9,513.9z"/>
		<path class="st3" d="M232.9,512.9c7.7-1.3,8.2-0.1,9,5c-1.3,2.8-5,6.7-9.1,8.5C220.1,525,227.8,515.7,232.9,512.9L232.9,512.9z"/>
		<path class="st3" d="M477.1,512.9c7.7-1.3,8.2-0.1,9,5c-1.3,2.8-5,6.7-9.1,8.5C464.3,525,472,515.7,477.1,512.9L477.1,512.9z"/>
		<path class="st3" d="M719.3,512.9c7.7-1.3,8.2-0.1,9,5c-1.3,2.8-5,6.7-9.1,8.5C706.4,525,714.1,515.7,719.3,512.9L719.3,512.9z"/>
		<path class="st3" d="M161.2,502.7c-8.3-0.1-11.3,1-12.2,6c1.3,2.8,11.3,4.2,15.4,6C177.1,513.3,166.3,505.5,161.2,502.7
			L161.2,502.7z"/>
		<path class="st3" d="M405.7,502.7c-8.3-0.1-11.3,1-12.2,6c1.3,2.8,11.3,4.2,15.4,6C421.7,513.3,410.9,505.5,405.7,502.7
			L405.7,502.7z"/>
		<path class="st3" d="M647.5,502.7c-8.3-0.1-11.3,1-12.2,6c1.3,2.8,11.3,4.2,15.4,6C663.5,513.3,652.6,505.5,647.5,502.7
			L647.5,502.7z"/>
		<path class="st3" d="M219.1,501.6c8.3-0.1,11.3,1,12.2,6c-1.3,2.8-11.3,4.2-15.4,6C203.1,512.2,213.9,504.4,219.1,501.6
			L219.1,501.6z"/>
		<path class="st3" d="M463.4,501.6c8.3-0.1,11.3,1,12.2,6c-1.3,2.8-11.3,4.2-15.4,6C447.5,512.2,458.3,504.4,463.4,501.6
			L463.4,501.6z"/>
		<path class="st3" d="M705.4,501.6c8.3-0.1,11.3,1,12.2,6c-1.3,2.8-11.3,4.2-15.4,6C689.5,512.2,700.3,504.4,705.4,501.6
			L705.4,501.6z"/>
		<path class="st4" d="M179.9,518.1c-3.5,0.4-9.3,0.4-13.2,0.7c-4.1,0.2-6.4,1.8-6.8,4.3c1.3,2.8,9.9,4.1,14,5.9
			C180.8,527.6,185,520.9,179.9,518.1L179.9,518.1z"/>
		<path class="st4" d="M424.3,518.1c-3.5,0.4-9.3,0.4-13.2,0.7c-4.1,0.2-6.4,1.8-6.8,4.3c1.3,2.8,9.9,4.1,14,5.9
			C425.2,527.6,429.4,520.9,424.3,518.1L424.3,518.1z"/>
		<path class="st4" d="M666.3,518.1c-3.5,0.4-9.3,0.4-13.2,0.7c-4.1,0.2-6.4,1.8-6.9,4.3c1.3,2.8,9.9,4.1,14,5.9
			C667.2,527.6,671.4,520.9,666.3,518.1L666.3,518.1z"/>
		<path class="st3" d="M200.3,517.2c3.5,0.4,9.3,0.4,13.2,0.7c4.1,0.2,6.4,1.8,6.9,4.3c-1.3,2.8-9.9,4.1-14,5.9
			C199.4,526.7,195.2,520,200.3,517.2L200.3,517.2z"/>
		<path class="st3" d="M444.7,517.2c3.5,0.4,9.3,0.4,13.2,0.7c4.1,0.2,6.4,1.8,6.8,4.3c-1.3,2.8-9.9,4.1-14,5.9
			C443.8,526.7,439.6,520,444.7,517.2L444.7,517.2z"/>
		<path class="st3" d="M686.9,517.2c3.5,0.4,9.3,0.4,13.2,0.7c4.1,0.2,6.4,1.8,6.9,4.3c-1.3,2.8-9.9,4.1-14,5.9
			C686,526.7,681.7,520,686.9,517.2L686.9,517.2z"/>
		<path class="st3" d="M118.2,510.3c-2,2-4.7,4.1-6.8,6.2c-4.9,1.7-8.7,2.5-14.1,3.1c-0.2,1.5-0.3,2.9-0.6,4.4
			c1.4,0.9,2.7,1.9,4.2,2.9c3.6-0.7,8.7-3.7,12.3-4.2c1.1-0.7,2.3-1.6,3.2-2.2c2.6-1.8,5.8-3.8,8.3-7.2
			C122.9,511.5,119.7,511.9,118.2,510.3L118.2,510.3z"/>
		<path class="st3" d="M362.6,510.3c-2,2-4.7,4.1-6.8,6.2c-4.9,1.7-8.7,2.5-14.1,3.1c-0.2,1.5-0.3,2.9-0.6,4.4
			c1.4,0.9,2.7,1.9,4.2,2.9c3.6-0.7,8.7-3.7,12.3-4.2c1.1-0.7,2.3-1.6,3.2-2.2c2.6-1.8,5.8-3.8,8.3-7.2
			C367.3,511.5,364.1,511.9,362.6,510.3L362.6,510.3z"/>
		<path class="st3" d="M604.5,510.3c-2,2-4.7,4.1-6.8,6.2c-4.9,1.7-8.6,2.5-14.1,3.1c-0.2,1.5-0.3,2.9-0.6,4.4
			c1.4,0.9,2.7,1.9,4.2,2.9c3.6-0.7,8.7-3.7,12.3-4.2c1.1-0.7,2.3-1.6,3.2-2.2c2.6-1.8,5.8-3.8,8.3-7.2
			C609.3,511.5,606.1,511.9,604.5,510.3L604.5,510.3z"/>
		<path class="st3" d="M851.9,509.2c-2,2-4.7,4.1-6.8,6.2c-4.9,1.7-8.7,2.5-14.1,3.1c-0.2,1.5-0.4,2.9-0.6,4.4
			c1.4,0.9,2.7,1.9,4.2,2.9c3.6-0.7,8.7-3.7,12.3-4.2c1.1-0.7,2.3-1.6,3.2-2.2c2.6-1.8,5.8-3.8,8.3-7.2
			C856.7,510.5,853.5,510.8,851.9,509.2L851.9,509.2z"/>
		<path class="st3" d="M21.1,504c7.3,2.5,10.9,2.4,18.5,0c2.4,3.5,2.3,2.4,0.3,6.3c-2.8,0.7-5.6,1.4-8.3,2.2
			c-4.4-0.7-5.7,0.4-9.9-1.9C19.5,509.5,20.6,505.6,21.1,504L21.1,504z"/>
		<path class="st3" d="M265.6,504c7.3,2.5,10.9,2.4,18.5,0c2.4,3.5,2.3,2.4,0.3,6.3c-2.8,0.7-5.6,1.4-8.3,2.2
			c-4.4-0.7-5.7,0.4-9.9-1.9C264,509.5,265.2,505.6,265.6,504L265.6,504z"/>
		<path class="st3" d="M507.6,504c7.3,2.5,10.9,2.4,18.5,0c2.4,3.5,2.3,2.4,0.3,6.3c-2.8,0.7-5.6,1.4-8.3,2.2
			c-4.4-0.7-5.7,0.4-9.9-1.9C506,509.5,507.2,505.6,507.6,504L507.6,504z"/>
		<path class="st3" d="M754.8,502.9c7.3,2.5,10.9,2.4,18.5,0c2.4,3.5,2.3,2.4,0.3,6.3c-2.8,0.7-5.6,1.4-8.3,2.2
			c-4.4-0.7-5.7,0.4-9.9-1.9C753.2,508.4,754.4,504.5,754.8,502.9L754.8,502.9z"/>
	</g>
</g>
</svg>
