<?xml version="1.0" encoding="utf-8"?>
<!-- Generator: Adobe Illustrator 19.2.0, SVG Export Plug-In . SVG Version: 6.00 Build 0)  -->
<svg version="1.1" id="Livello_1" xmlns="http://www.w3.org/2000/svg" xmlns:xlink="http://www.w3.org/1999/xlink" x="0px" y="0px"
	 viewBox="0 0 876 508.5" style="enable-background:new 0 0 876 508.5;" xml:space="preserve">
<style type="text/css">
	.st0{fill:#FFFFFF;}
	.st1{fill:none;stroke:#1A171B;stroke-width:1.061;stroke-miterlimit:2.6131;}
	.st2{fill:#B9B9B9;}
	.st3{fill:none;stroke:#1A171B;stroke-width:3.5366;stroke-miterlimit:2.6131;}
	.st4{fill:#1A171B;}
</style>
<polygon class="st0" points="871.6,102.6 2.4,102.6 2.4,66.5 581.3,66.5 581.1,3.5 837.4,3.5 837.6,66.5 871.6,66.5 "/>
<polygon class="st0" points="871.6,405.1 2.4,405.1 2.4,441.2 581.3,441.2 581.1,504.2 837.4,504.2 837.6,441.2 871.6,441.2 "/>
<g>
	<g>
		<path class="st1" d="M872.4,98h-33.6c-21.4,0-31.5-10.3-31.5-31.5v-63"/>
		<path class="st1" d="M872.4,409.4h-33.6c-21.4,0-31.5,10.3-31.5,31.5v63"/>
		<path class="st2" d="M871.6,409.4V98h-32.7c-21.4,0-31.5-10.3-31.5-31.5V3.3H611.9v63.2c0,21.2-10.1,31.5-31.5,31.5H2.4v311.4
			h577.9c21.4,0,31.5,10.3,31.5,31.5l0.2,63h195.3v-63c0-21.2,10.1-31.5,31.5-31.5H871.6L871.6,409.4z"/>
		<path class="st3" d="M2.4,440.9h577.9v63 M2.4,66.5h577.9V3.3 M838.6,504v-63h33.8 M838.6,3.2v63.2h33.8"/>
		<polygon class="st0" points="413.7,345.4 519.4,345.4 537.4,364.5 558.6,364.5 522.2,377.3 485.7,364.5 506.9,364.5 494.7,352.6 
			413.7,352.8 		"/>
		<polygon class="st0" points="247.1,345.4 352.8,345.4 370.7,364.5 392,364.5 355.6,377.3 319,364.5 340.3,364.5 328,352.6 
			247.1,352.8 		"/>
		<polygon class="st0" points="80.1,345.4 185.7,345.4 203.7,364.5 225,364.5 188.6,377.3 152,364.5 173.3,364.5 161,352.6 
			80.1,352.8 		"/>
		<polygon class="st0" points="413.7,162.9 519.4,162.9 537.4,143.7 558.6,143.7 522.2,130.9 485.7,143.7 506.9,143.7 494.7,155.7 
			413.7,155.5 		"/>
		<polygon class="st0" points="247.1,162.9 352.8,162.9 370.7,143.7 392,143.7 355.6,130.9 319,143.7 340.3,143.7 328,155.7 
			247.1,155.5 		"/>
		<polygon class="st0" points="80.1,162.9 185.7,162.9 203.7,143.7 225,143.7 188.6,130.9 152,143.7 173.3,143.7 161,155.7 
			80.1,155.5 		"/>
		<polygon class="st0" points="611.9,195.4 260.7,195.4 260.7,208.2 611.9,208.2 		"/>
		<polygon class="st0" points="202.6,195.4 143.3,195.4 143.3,208.2 202.6,208.2 		"/>
		<polygon class="st0" points="85.2,195.6 25.9,195.6 25.9,208.4 85.2,208.4 		"/>
		<polygon class="st0" points="611.9,299.6 260.7,299.6 260.7,312.4 611.9,312.4 		"/>
		<polygon class="st0" points="202.6,299.6 143.3,299.6 143.3,312.4 202.6,312.4 		"/>
		<polygon class="st0" points="85.2,299.8 25.9,299.8 25.9,312.6 85.2,312.6 		"/>
		<polygon class="st0" points="522.6,254.1 537.4,269.6 558.6,269.6 522.2,282.3 485.7,269.6 506.9,269.6 494.7,257.8 413.7,257.8 
			413.7,250.4 414,250.4 414,250.2 494.9,250.2 507.1,238.7 485.9,238.7 522.2,225.9 558.6,238.7 537.4,238.7 		"/>
		<polygon class="st0" points="356,254.1 370.7,269.6 392,269.6 355.6,282.3 319,269.6 340.3,269.6 328,257.8 247.1,257.8 
			247.1,250.4 247.3,250.4 247.3,250.2 328.2,250.2 340.5,238.7 319.2,238.7 355.6,225.9 392,238.7 370.7,238.7 		"/>
		<polygon class="st0" points="189,254.1 203.7,269.6 225,269.6 188.6,282.3 152,269.6 173.3,269.6 161,257.8 80.1,257.8 
			80.1,250.4 80.3,250.4 80.3,250.2 161.2,250.2 173.5,238.7 152.2,238.7 188.6,225.9 225,238.7 203.7,238.7 		"/>
		<polygon class="st0" points="580.3,70.6 611.9,70.6 611.9,437.6 580.3,437.6 		"/>
		<path class="st1" d="M2.4,409.4h577.9c21.4,0,31.5,10.3,31.5,31.5v63"/>
		<path class="st1" d="M2.4,98h577.9c21.4,0,31.5-10.3,31.5-31.5v-63"/>
		<path class="st4" d="M65.2,167.4h-9.3l-3.7-9.6H35.4l-3.5,9.6h-9l16.4-42.2h9L65.2,167.4L65.2,167.4z M49.5,150.7L43.7,135
			L38,150.7H49.5L49.5,150.7z"/>
		<path class="st4" d="M27.6,233.4h16.9c3.3,0,5.8,0.1,7.5,0.4c1.6,0.3,3.1,0.9,4.4,1.7c1.3,0.9,2.4,2.1,3.2,3.5
			c0.9,1.5,1.3,3.1,1.3,4.9c0,2-0.5,3.8-1.6,5.4c-1.1,1.7-2.5,2.9-4.3,3.7c2.6,0.7,4.5,2,5.9,3.8s2.1,3.9,2.1,6.4
			c0,1.9-0.4,3.8-1.3,5.6c-0.9,1.8-2.1,3.3-3.7,4.3c-1.5,1.1-3.4,1.8-5.7,2c-1.4,0.1-4.8,0.2-10.3,0.3H27.6V233.4L27.6,233.4z
			 M36.1,240.5v9.8h5.6c3.3,0,5.4-0.1,6.2-0.1c1.5-0.2,2.6-0.7,3.4-1.5s1.2-1.9,1.2-3.3c0-1.3-0.4-2.4-1.1-3.2
			c-0.7-0.8-1.8-1.3-3.2-1.5c-0.8-0.1-3.3-0.1-7.3-0.1L36.1,240.5L36.1,240.5z M36.1,257.2v11.3H44c3.1,0,5-0.1,5.8-0.3
			c1.3-0.2,2.3-0.8,3.1-1.7c0.8-0.9,1.2-2.1,1.2-3.6c0-1.3-0.3-2.3-0.9-3.2c-0.6-0.9-1.5-1.5-2.7-1.9s-3.7-0.6-7.6-0.6L36.1,257.2
			L36.1,257.2z"/>
		<path class="st4" d="M56.3,368.1l8.3,2.6c-1.3,4.6-3.4,8-6.3,10.3c-2.9,2.2-6.7,3.3-11.2,3.3c-5.6,0-10.2-1.9-13.8-5.7
			c-3.6-3.8-5.4-9.1-5.4-15.7c0-7,1.8-12.5,5.4-16.4s8.4-5.8,14.3-5.8c5.2,0,9.4,1.5,12.6,4.6c1.9,1.8,3.4,4.4,4.3,7.8l-8.4,2
			c-0.5-2.2-1.5-3.9-3.1-5.2s-3.5-1.9-5.8-1.9c-3.1,0-5.7,1.1-7.6,3.4c-1.9,2.2-2.9,5.9-2.9,10.9c0,5.3,1,9.1,2.9,11.4
			s4.4,3.4,7.5,3.4c2.3,0,4.2-0.7,5.8-2.2C54.4,373.5,55.6,371.2,56.3,368.1L56.3,368.1z"/>
	</g>
</g>
</svg>
