<?xml version="1.0" encoding="utf-8"?>
<!-- Generator: Adobe Illustrator 19.2.0, SVG Export Plug-In . SVG Version: 6.00 Build 0)  -->
<svg version="1.1" id="Livello_1" xmlns="http://www.w3.org/2000/svg" xmlns:xlink="http://www.w3.org/1999/xlink" x="0px" y="0px"
	 viewBox="0 0 875 504" style="enable-background:new 0 0 875 504;" xml:space="preserve">
<style type="text/css">
	.st0{fill:#FFFFFF;}
	.st1{fill:none;stroke:#1A171B;stroke-width:1.061;stroke-miterlimit:2.6131;}
	.st2{fill:#B9B9B9;}
	.st3{fill:none;stroke:#1A171B;stroke-width:3.5366;stroke-miterlimit:2.6131;}
	.st4{fill:#1A171B;}
</style>
<polygon class="st0" points="872.2,100.7 3,100.7 3,64.6 581.9,64.6 581.7,1.6 838,1.6 838.2,64.6 872.2,64.6 "/>
<polygon class="st0" points="872.2,403.2 3,403.2 3,439.3 581.9,439.3 581.7,502.3 838,502.3 838.2,439.3 872.2,439.3 "/>
<g>
	<g>
		<path class="st1" d="M873,96.1h-33.6c-21.4,0-31.5-10.3-31.5-31.5v-63"/>
		<path class="st1" d="M873,407.5h-33.6c-21.4,0-31.5,10.3-31.5,31.5v63"/>
		<path class="st2" d="M872.2,407.5V96.1h-32.7c-21.4,0-31.5-10.3-31.5-31.5V1.4H612.5v63.2c0,21.2-10.1,31.5-31.5,31.5H3v311.4
			h577.9c21.4,0,31.5,10.3,31.5,31.5l0.2,63h195.3v-63c0-21.2,10.1-31.5,31.5-31.5H872.2L872.2,407.5z"/>
		<path class="st3" d="M3,439h577.9v63 M3,64.6h577.9V1.4 M839.2,502.1v-63H873 M839.2,1.3v63.2H873"/>
		<path class="st1" d="M3,96.1h577.9c21.4,0,31.5-10.3,31.5-31.5v-63"/>
		<polygon class="st0" points="612.5,359.1 305.8,359.1 305.8,367.8 612.5,367.8 		"/>
		<polygon class="st0" points="262.5,359.1 204.9,359.1 204.9,367.8 262.5,367.8 		"/>
		<polygon class="st0" points="161.6,359.1 104,359.1 104,367.8 161.6,367.8 		"/>
		<polygon class="st0" points="60.7,359.1 3.1,359.1 3.1,367.8 60.7,367.8 		"/>
		<polygon class="st0" points="612.5,310.1 305.8,310.1 305.8,318.7 612.5,318.7 		"/>
		<polygon class="st0" points="262.5,310.1 204.9,310.1 204.9,318.7 262.5,318.7 		"/>
		<polygon class="st0" points="161.6,310.1 104,310.1 104,318.7 161.6,318.7 		"/>
		<polygon class="st0" points="60.7,310.1 3.1,310.1 3.1,318.7 60.7,318.7 		"/>
		<polygon class="st0" points="612.5,261.5 305.8,261.5 305.8,270.1 612.5,270.1 		"/>
		<polygon class="st0" points="612.5,246.7 3,246.7 3,255.3 612.5,255.3 		"/>
		<polygon class="st0" points="580.9,246.9 612.5,246.9 612.5,437.1 580.9,437.1 		"/>
		<path class="st1" d="M3,407.5h577.9c21.4,0,31.5,10.3,31.5,31.5v63"/>
		<polygon class="st0" points="460.4,302.1 541.5,302.1 555.3,287.5 571.6,287.5 543.7,277.8 515.6,287.5 531.9,287.5 523,296.6 
			460.4,296.4 		"/>
		<polygon class="st0" points="195.2,302.1 276.2,302.1 290,287.5 306.3,287.5 278.4,277.8 250.4,287.5 266.7,287.5 257.7,296.6 
			195.2,296.4 		"/>
		<polygon class="st0" points="328.2,302.1 409.3,302.1 423.1,287.5 439.4,287.5 411.5,277.8 383.4,287.5 399.7,287.5 390.8,296.6 
			328.2,296.4 		"/>
		<polygon class="st0" points="62.9,302.1 144,302.1 157.8,287.5 174.1,287.5 146.2,277.8 118.1,287.5 134.4,287.5 125.5,296.6 
			62.9,296.4 		"/>
		<polygon class="st0" points="460.4,347.4 489.6,347.4 527.7,347.5 527.7,354.7 571.6,344.5 527.9,334.7 527.9,341.9 494.8,341.9 
			503.4,332.8 519.7,332.8 491.8,323.1 463.7,332.8 480,332.8 470.6,341.9 460.4,341.7 		"/>
		<polygon class="st0" points="195.2,347.4 224.3,347.4 262.4,347.5 262.4,354.7 306.3,344.5 262.6,334.7 262.6,341.9 229.5,341.9 
			238.1,332.8 254.4,332.8 226.5,323.1 198.5,332.8 214.8,332.8 205.4,341.9 195.2,341.7 		"/>
		<polygon class="st0" points="328.2,347.4 357.4,347.4 395.5,347.5 395.5,354.7 439.4,344.5 395.6,334.7 395.6,341.9 362.6,341.9 
			371.2,332.8 387.5,332.8 359.6,323.1 331.5,332.8 347.8,332.8 338.4,341.9 328.2,341.7 		"/>
		<polygon class="st0" points="62.9,347.4 92.1,347.4 130.2,347.5 130.2,354.7 174.1,344.5 130.4,334.7 130.4,341.9 97.3,341.9 
			105.9,332.8 122.2,332.8 94.3,323.1 66.2,332.8 82.5,332.8 73.1,341.9 62.9,341.7 		"/>
		<polygon class="st0" points="460.4,378.9 489.6,378.9 527.7,378.7 527.7,371.5 571.6,381.7 527.9,391.6 527.9,384.4 494.8,384.4 
			503.4,393.5 519.7,393.5 491.8,403.2 463.7,393.5 480,393.5 470.6,384.4 460.4,384.5 		"/>
		<polygon class="st0" points="195.2,378.9 224.3,378.9 262.4,378.7 262.4,371.5 306.3,381.7 262.6,391.6 262.6,384.4 229.5,384.4 
			238.1,393.5 254.4,393.5 226.5,403.2 198.5,393.5 214.8,393.5 205.4,384.4 195.2,384.5 		"/>
		<polygon class="st0" points="328.2,378.9 357.4,378.9 395.5,378.7 395.5,371.5 439.4,381.7 395.6,391.6 395.6,384.4 362.6,384.4 
			371.2,393.5 387.5,393.5 359.6,403.2 331.5,393.5 347.8,393.5 338.4,384.4 328.2,384.5 		"/>
		<polygon class="st0" points="62.9,378.9 92.1,378.9 130.2,378.7 130.2,371.5 174.1,381.7 130.4,391.6 130.4,384.4 97.3,384.4 
			105.9,393.5 122.2,393.5 94.3,403.2 66.2,393.5 82.5,393.5 73.1,384.4 62.9,384.5 		"/>
		<path class="st4" d="M41.9,304.1h-6.8l-2.7-7H20.1l-2.5,7H11l12-30.8h6.6L41.9,304.1L41.9,304.1z M30.4,291.9l-4.3-11.5L22,291.9
			H30.4L30.4,291.9z"/>
		<path class="st4" d="M13.9,323.7h12.3c2.4,0,4.3,0.1,5.5,0.3s2.3,0.6,3.2,1.3c0.9,0.6,1.7,1.5,2.4,2.6c0.6,1.1,0.9,2.3,0.9,3.6
			c0,1.4-0.4,2.8-1.2,4c-0.8,1.2-1.8,2.1-3.2,2.7c1.9,0.5,3.3,1.5,4.3,2.8s1.5,2.9,1.5,4.7c0,1.4-0.3,2.8-1,4.1s-1.5,2.4-2.7,3.2
			c-1.1,0.8-2.5,1.3-4.2,1.5c-1,0.1-3.5,0.2-7.5,0.2H13.9V323.7L13.9,323.7z M20.1,328.8v7.1h4.1c2.4,0,3.9,0,4.5-0.1
			c1.1-0.1,1.9-0.5,2.5-1.1s0.9-1.4,0.9-2.4s-0.3-1.7-0.8-2.3s-1.3-1-2.3-1.1c-0.6-0.1-2.4-0.1-5.3-0.1H20.1L20.1,328.8z
			 M20.1,341.1v8.2h5.8c2.2,0,3.7-0.1,4.3-0.2c0.9-0.2,1.7-0.6,2.3-1.2c0.6-0.7,0.9-1.5,0.9-2.6c0-0.9-0.2-1.7-0.7-2.4
			c-0.5-0.6-1.1-1.1-1.9-1.4s-2.7-0.4-5.5-0.4H20.1L20.1,341.1z"/>
		<path class="st4" d="M32.7,392.3l6,1.9c-0.9,3.4-2.5,5.9-4.6,7.5s-4.9,2.5-8.2,2.5c-4.1,0-7.5-1.4-10.1-4.2s-4-6.6-4-11.5
			c0-5.1,1.3-9.1,4-12c2.6-2.8,6.1-4.3,10.5-4.3c3.8,0,6.8,1.1,9.2,3.3c1.4,1.3,2.5,3.2,3.2,5.7l-6.2,1.5c-0.4-1.6-1.1-2.9-2.3-3.8
			c-1.2-0.9-2.6-1.4-4.2-1.4c-2.3,0-4.1,0.8-5.6,2.5c-1.4,1.6-2.1,4.3-2.1,8c0,3.9,0.7,6.7,2.1,8.3c1.4,1.7,3.2,2.5,5.5,2.5
			c1.7,0,3.1-0.5,4.3-1.6C31.3,396.2,32.1,394.5,32.7,392.3L32.7,392.3z"/>
	</g>
</g>
</svg>
