<?xml version="1.0" encoding="utf-8"?>
<!-- Generator: Adobe Illustrator 19.2.0, SVG Export Plug-In . SVG Version: 6.00 Build 0)  -->
<svg version="1.1" id="Livello_1" xmlns="http://www.w3.org/2000/svg" xmlns:xlink="http://www.w3.org/1999/xlink" x="0px" y="0px"
	 viewBox="0 0 875 341" style="enable-background:new 0 0 875 341;" xml:space="preserve">
<style type="text/css">
	.st0{fill:#B9B9B9;}
	.st1{fill:#FFFFFF;}
	.st2{fill:#1A171B;}
	.st3{fill:none;stroke:#FFFFFF;stroke-width:0.9292;stroke-miterlimit:2.6131;}
	.st4{fill:none;stroke:#FFFFFF;stroke-width:0.9494;stroke-miterlimit:2.6131;}
	.st5{fill:none;stroke:#FFFFFF;stroke-width:0.6773;stroke-miterlimit:2.6131;}
</style>
<g>
	<g>
		<polygon class="st0" points="2.1,2.1 872,2.1 872,333.1 2.1,333.1 		"/>
		<polygon class="st1" points="2.1,302.8 872,302.8 872,317.3 2.1,317.3 		"/>
		<polygon class="st1" points="2.1,17.7 872,17.7 872,32.2 2.1,32.2 		"/>
		<polygon class="st1" points="2.1,148.1 872,148.1 872,162.6 2.1,162.6 		"/>
		<polygon class="st1" points="484.4,171.2 557,171.2 557,185.7 484.4,185.7 		"/>
		<polygon class="st1" points="316.9,171.2 389.5,171.2 389.5,185.7 316.9,185.7 		"/>
		<polygon class="st1" points="149.2,171.2 221.8,171.2 221.8,185.7 149.2,185.7 		"/>
		<polygon class="st1" points="2,185.7 2,171.2 54.2,171.2 54.2,185.7 		"/>
		<polygon class="st1" points="652.1,171.2 724.7,171.2 724.7,185.7 652.1,185.7 		"/>
		<polygon class="st1" points="872,171.2 872,185.7 819.6,185.7 819.6,171.2 		"/>
		<path class="st2" d="M167.3,218.3l43.3-4.8h56.5l46,6.3c4.2,0.4,7.5,4.2,7.5,7.3c0,13.8,0,27.6,0,41.6c0,3.1-4.2,7.1-7.5,7.3
			l-45.8,5.2h-56.9l-43.1-4.4c-3.4-0.4-7.5-3.3-7.5-7.3v-43.9C159.9,221.6,163.1,218.7,167.3,218.3L167.3,218.3z"/>
		<path class="st1" d="M258.3,218.1l16.1,2.4c6.3,18.3,5.7,34.6,0,54l-16.1,2.2C262.3,257.3,262.7,238.4,258.3,218.1L258.3,218.1z"
			/>
		<polygon class="st1" points="190.3,224.3 200.1,227.5 200.1,267.9 190.3,271.4 		"/>
		<path class="st1" d="M165.6,236.3h-2.5c-0.7,0-1.3,0.3-1.3,0.7v20.9c0,0.4,0.6,0.7,1.3,0.7h2.5c0.7,0,1.3-0.3,1.3-0.7V237
			C166.9,236.6,166.3,236.3,165.6,236.3L165.6,236.3z"/>
		<line class="st3" x1="205.8" y1="220.1" x2="252.2" y2="220.2"/>
		<line class="st4" x1="218.5" y1="247.1" x2="252.2" y2="247.3"/>
		<line class="st3" x1="205.8" y1="274.6" x2="252.2" y2="274.8"/>
		<line class="st5" x1="283" y1="222.7" x2="311.4" y2="226.9"/>
		<line class="st5" x1="283" y1="272.1" x2="311.4" y2="268.5"/>
		<polygon class="st2" points="342.2,242.6 366.2,242.6 366.2,253.1 342.2,253.1 		"/>
		<polygon class="st2" points="436.5,242.6 460.5,242.6 460.5,253.1 436.5,253.1 		"/>
		<polygon class="st2" points="389.3,242.6 413.4,242.6 413.4,253.1 389.3,253.1 		"/>
		<polygon class="st2" points="483.6,242.6 507.7,242.6 507.7,253.1 483.6,253.1 		"/>
		<polygon class="st2" points="548.8,230.8 586.1,247.6 548.8,264.5 548.8,253.1 530.9,253.1 530.9,242.6 548.8,242.6 		"/>
	</g>
</g>
</svg>
