<?xml version="1.0" encoding="utf-8"?>
<!-- Generator: Adobe Illustrator 19.2.0, SVG Export Plug-In . SVG Version: 6.00 Build 0)  -->
<svg version="1.1" id="Livello_1" xmlns="http://www.w3.org/2000/svg" xmlns:xlink="http://www.w3.org/1999/xlink" x="0px" y="0px"
	 viewBox="0 0 876 343" style="enable-background:new 0 0 876 343;" xml:space="preserve">
<style type="text/css">
	.st0{fill:#B9B9B9;}
	.st1{fill:#FFFFFF;}
	.st2{fill:#1A171B;}
	.st3{fill:none;stroke:#FFFFFF;stroke-width:0.9292;stroke-miterlimit:2.6131;}
	.st4{fill:none;stroke:#FFFFFF;stroke-width:0.9494;stroke-miterlimit:2.6131;}
	.st5{fill:none;stroke:#FFFFFF;stroke-width:0.6773;stroke-miterlimit:2.6131;}
</style>
<g>
	<g>
		<polygon class="st0" points="3.1,3.1 873,3.1 873,334.1 3.1,334.1 		"/>
		<polygon class="st1" points="3.1,303.8 873,303.8 873,318.3 3.1,318.3 		"/>
		<polygon class="st1" points="3.1,18.7 873,18.7 873,33.2 3.1,33.2 		"/>
		<polygon class="st1" points="3.1,186.3 873,186.3 873,171.8 3.1,171.8 		"/>
		<polygon class="st1" points="485.4,163.2 558,163.2 558,148.7 485.4,148.7 		"/>
		<polygon class="st1" points="317.9,163.2 390.5,163.2 390.5,148.7 317.9,148.7 		"/>
		<polygon class="st1" points="150.2,163.2 222.8,163.2 222.8,148.7 150.2,148.7 		"/>
		<polygon class="st1" points="3,148.9 3,163.4 55.2,163.4 55.2,148.9 		"/>
		<polygon class="st1" points="653.1,163.2 725.7,163.2 725.7,148.7 653.1,148.7 		"/>
		<polygon class="st1" points="873,163.4 873,148.9 820.6,148.9 820.6,163.4 		"/>
		<path class="st2" d="M168.3,219.3l43.3-4.8h56.5l46,6.3c4.2,0.4,7.5,4.2,7.5,7.3c0,13.8,0,27.6,0,41.6c0,3.1-4.2,7.1-7.5,7.3
			l-45.8,5.2h-56.9l-43.1-4.4c-3.4-0.4-7.5-3.3-7.5-7.3v-43.9C160.9,222.6,164.1,219.7,168.3,219.3L168.3,219.3z"/>
		<path class="st1" d="M259.3,219.1l16.1,2.4c6.3,18.3,5.7,34.6,0,54l-16.1,2.2C263.3,258.3,263.7,239.4,259.3,219.1L259.3,219.1z"
			/>
		<polygon class="st1" points="191.3,225.3 201.1,228.5 201.1,268.9 191.3,272.4 		"/>
		<path class="st1" d="M166.6,237.3h-2.5c-0.7,0-1.3,0.3-1.3,0.7v20.9c0,0.4,0.6,0.7,1.3,0.7h2.5c0.7,0,1.3-0.3,1.3-0.7V238
			C167.9,237.6,167.3,237.3,166.6,237.3L166.6,237.3z"/>
		<line class="st3" x1="206.8" y1="221.1" x2="253.2" y2="221.2"/>
		<line class="st4" x1="219.5" y1="248.1" x2="253.2" y2="248.3"/>
		<line class="st3" x1="206.8" y1="275.6" x2="253.2" y2="275.8"/>
		<line class="st5" x1="284" y1="223.7" x2="312.4" y2="228"/>
		<line class="st5" x1="284" y1="273.1" x2="312.4" y2="269.5"/>
		<polygon class="st2" points="343.2,243.6 367.2,243.6 367.2,254.1 343.2,254.1 		"/>
		<polygon class="st2" points="437.5,243.6 461.5,243.6 461.5,254.1 437.5,254.1 		"/>
		<polygon class="st2" points="390.3,243.6 414.4,243.6 414.4,254.1 390.3,254.1 		"/>
		<polygon class="st2" points="484.6,243.6 508.7,243.6 508.7,254.1 484.6,254.1 		"/>
		<polygon class="st2" points="549.8,231.8 587.1,248.6 549.8,265.5 549.8,254.1 531.9,254.1 531.9,243.6 549.8,243.6 		"/>
	</g>
</g>
</svg>
