<?xml version="1.0" encoding="utf-8"?>
<!-- Generator: Adobe Illustrator 19.2.0, SVG Export Plug-In . SVG Version: 6.00 Build 0)  -->
<svg version="1.1" id="Livello_1" xmlns="http://www.w3.org/2000/svg" xmlns:xlink="http://www.w3.org/1999/xlink" x="0px" y="0px"
	 viewBox="0 0 874 504" style="enable-background:new 0 0 874 504;" xml:space="preserve">
<style type="text/css">
	.st0{fill:#FFFFFF;}
	.st1{fill:none;stroke:#1A171B;stroke-width:1.061;stroke-miterlimit:2.6131;}
	.st2{fill:#B9B9B9;}
	.st3{fill:none;stroke:#1A171B;stroke-width:3.5366;stroke-miterlimit:2.6131;}
	.st4{fill:#00B1E5;stroke:#1A171B;stroke-width:0.3537;stroke-miterlimit:2.6131;}
	.st5{fill:#FFFFFF;stroke:#1A171B;stroke-width:0.3537;stroke-miterlimit:2.6131;}
	.st6{fill:none;stroke:#1A171B;stroke-width:0.3537;stroke-miterlimit:2.6131;}
</style>
<polygon class="st0" points="871.2,100.7 2,100.7 2,64.6 580.9,64.6 580.7,1.6 837,1.6 837.2,64.6 871.2,64.6 "/>
<polygon class="st0" points="871.2,403.2 2,403.2 2,439.3 580.9,439.3 580.7,502.3 837,502.3 837.2,439.3 871.2,439.3 "/>
<g>
	<g>
		<path class="st1" d="M872,96.1h-33.6c-21.4,0-31.5-10.3-31.5-31.5v-63"/>
		<path class="st1" d="M872,407.5h-33.6c-21.4,0-31.5,10.3-31.5,31.5v63"/>
		<path class="st2" d="M871.2,407.5V96.1h-32.7c-21.4,0-31.5-10.3-31.5-31.5V1.4H611.5v63.2c0,21.2-10.1,31.5-31.5,31.5H2v311.4
			h577.9c21.4,0,31.5,10.3,31.5,31.5l0.2,63h195.3v-63c0-21.2,10.1-31.5,31.5-31.5H871.2L871.2,407.5z"/>
		<path class="st3" d="M2,439h577.9v63 M2,64.6h577.9V1.4 M838.2,502.1v-63H872 M838.2,1.3v63.2H872"/>
		<path class="st1" d="M2,96.1h577.9c21.4,0,31.5-10.3,31.5-31.5v-63"/>
		<polygon class="st0" points="611.5,359.1 304.8,359.1 304.8,367.8 611.5,367.8 		"/>
		<polygon class="st0" points="261.5,359.1 203.9,359.1 203.9,367.8 261.5,367.8 		"/>
		<polygon class="st0" points="160.6,359.1 103,359.1 103,367.8 160.6,367.8 		"/>
		<polygon class="st0" points="59.7,359.1 2.1,359.1 2.1,367.8 59.7,367.8 		"/>
		<polygon class="st0" points="611.5,310.1 304.8,310.1 304.8,318.7 611.5,318.7 		"/>
		<polygon class="st0" points="261.5,310.1 203.9,310.1 203.9,318.7 261.5,318.7 		"/>
		<polygon class="st0" points="160.6,310.1 103,310.1 103,318.7 160.6,318.7 		"/>
		<polygon class="st0" points="59.7,310.1 2.1,310.1 2.1,318.7 59.7,318.7 		"/>
		<polygon class="st0" points="611.5,261.5 304.8,261.5 304.8,270.1 611.5,270.1 		"/>
		<polygon class="st0" points="611.5,246.7 2,246.7 2,255.3 611.5,255.3 		"/>
		<polygon class="st0" points="579.9,246.9 611.5,246.9 611.5,439 579.9,439 		"/>
		<path class="st4" d="M43.7,271l24-2.5h31.4l25.5,3.3c2.3,0.2,4.1,2.2,4.1,3.8c0,7.2,0,14.4,0,21.7c0,1.6-2.3,3.7-4.1,3.8
			l-25.4,2.7H67.6l-23.9-2.3c-1.9-0.2-4.1-1.7-4.1-3.8v-22.9C39.6,272.7,41.4,271.2,43.7,271L43.7,271z"/>
		<path class="st5" d="M94.2,270.9l8.9,1.2c3.5,9.5,3.2,18,0,28.2l-8.9,1.1C96.5,291.3,96.7,281.5,94.2,270.9L94.2,270.9z"/>
		<polygon class="st5" points="56.5,274.1 61.9,275.8 61.9,296.9 56.5,298.7 		"/>
		<path class="st5" d="M42.8,280.4h-1.4c-0.4,0-0.7,0.2-0.7,0.4v10.9c0,0.2,0.3,0.4,0.7,0.4h1.4c0.4,0,0.7-0.2,0.7-0.4v-10.9
			C43.5,280.6,43.2,280.4,42.8,280.4L42.8,280.4z"/>
		<line class="st6" x1="65.1" y1="271.9" x2="90.8" y2="272"/>
		<line class="st6" x1="72.1" y1="286" x2="90.8" y2="286.1"/>
		<line class="st6" x1="65.1" y1="300.4" x2="90.8" y2="300.5"/>
		<line class="st6" x1="107.9" y1="273.3" x2="123.7" y2="275.5"/>
		<line class="st6" x1="107.9" y1="299.1" x2="123.7" y2="297.2"/>
		<path class="st1" d="M2,407.5h577.9c21.4,0,31.5,10.3,31.5,31.5v63"/>
	</g>
</g>
</svg>
