<?xml version="1.0" encoding="utf-8"?>
<!-- Generator: Adobe Illustrator 19.2.0, SVG Export Plug-In . SVG Version: 6.00 Build 0)  -->
<svg version="1.1" id="Livello_1" xmlns="http://www.w3.org/2000/svg" xmlns:xlink="http://www.w3.org/1999/xlink" x="0px" y="0px"
	 viewBox="0 0 960 960" style="enable-background:new 0 0 960 960;" xml:space="preserve">
<style type="text/css">
	.st0{fill:#FFFFFF;}
	.st1{fill-rule:evenodd;clip-rule:evenodd;fill:#CECFD1;}
	.st2{fill-rule:evenodd;clip-rule:evenodd;fill:#FFFFFF;}
	.st3{fill:none;stroke:#1A171B;stroke-width:1.061;stroke-miterlimit:2.6131;}
	.st4{fill:none;stroke:#1A171B;stroke-width:3.5366;stroke-miterlimit:2.6131;}
	.st5{fill-rule:evenodd;clip-rule:evenodd;fill:#00A6E2;stroke:#070E0C;stroke-width:0.3537;stroke-miterlimit:2.6131;}
	.st6{fill-rule:evenodd;clip-rule:evenodd;fill:#FFFFFF;stroke:#070E0C;stroke-width:0.3537;stroke-miterlimit:2.6131;}
	.st7{fill:none;stroke:#070E0C;stroke-width:0.3537;stroke-miterlimit:2.6131;}
</style>
<polygon class="st0" points="914.2,329 45,329 45,292.9 623.9,292.9 623.7,229.9 880,229.9 880.2,292.9 914.2,292.9 "/>
<polygon class="st0" points="914.2,631.5 45,631.5 45,667.6 623.9,667.6 623.7,730.6 880,730.6 880.2,667.6 914.2,667.6 "/>
<g>
	<g>
		<path class="st1" d="M914.2,635.8V324.4h-32.7c-21.4,0-31.5-10.3-31.5-31.5v-63.2H654.5v63.2c0,21.2-10.1,31.5-31.5,31.5H45v311.4
			h577.9c21.4,0,32.7,10.3,32.7,31.5l0.2,63h194.1v-63c0-21.2,10.1-31.5,31.5-31.5H914.2L914.2,635.8z"/>
		<polygon class="st2" points="654.6,563.2 347.9,563.2 347.9,571.8 654.6,571.8 654.6,563.2 		"/>
		<polygon class="st2" points="304.7,563.2 247.1,563.2 247.1,571.8 304.7,571.8 304.7,563.2 		"/>
		<polygon class="st2" points="203.8,563.2 146.2,563.2 146.2,571.8 203.8,571.8 203.8,563.2 		"/>
		<polygon class="st2" points="102.8,563.2 45.3,563.2 45.3,571.8 102.8,571.8 102.8,563.2 		"/>
		<polygon class="st2" points="654.6,490 347.9,490 347.9,498.6 654.6,498.6 654.6,490 		"/>
		<polygon class="st2" points="654.6,475.1 45.2,475.1 45.2,483.8 654.6,483.8 654.6,475.1 		"/>
		<polygon class="st2" points="623.1,475.3 654.6,475.3 654.6,667.5 623.1,667.5 623.1,475.3 		"/>
		<path class="st3" d="M915,324.4h-33.6c-21.4,0-31.5-10.3-31.5-31.5v-63"/>
		<path class="st3" d="M915,635.8h-33.6c-21.4,0-31.5,10.3-31.5,31.5v63"/>
		<path class="st4" d="M45,667.3h577.9v63 M45,292.9h577.9v-63.2 M881.2,730.4v-63H915 M881.2,229.6v63.2H915"/>
		<path class="st3" d="M45,324.4h577.9c21.4,0,31.5-10.3,31.5-31.5v-63"/>
		<path class="st3" d="M46.4,635.8h577.9c21.4,0,31.5,10.3,31.5,31.5v63"/>
		<polygon class="st2" points="91.2,588.2 193.7,588.2 211.2,607.3 231.8,607.3 196.5,620.1 161,607.3 181.6,607.3 169.7,595.4 
			91.2,595.6 91.2,588.2 		"/>
		<polygon class="st2" points="476.5,588.2 579,588.2 596.5,607.4 617.1,607.4 581.8,620.1 546.3,607.4 566.9,607.4 555,595.4 
			476.5,595.6 476.5,588.2 		"/>
		<polygon class="st2" points="284,588.9 386.6,588.9 404,608 424.6,608 389.3,620.8 353.8,608 374.5,608 362.6,596.1 284,596.3 
			284,588.9 		"/>
		<polygon class="st2" points="91.1,514.1 193.7,514.1 211.1,533.3 231.7,533.3 196.4,546.1 160.9,533.3 181.6,533.3 169.6,521.3 
			91.1,521.6 91.1,514.1 		"/>
		<polygon class="st2" points="476.4,514.2 578.9,514.2 596.4,533.3 617,533.3 581.7,546.1 546.2,533.3 566.8,533.3 554.9,521.4 
			476.4,521.6 476.4,514.2 		"/>
		<polygon class="st2" points="283.9,514.8 386.5,514.8 403.9,534 424.6,534 389.2,546.8 353.7,534 374.4,534 362.5,522 
			283.9,522.3 283.9,514.8 		"/>
		<path class="st5" d="M306.4,585.6l29.4-3.1h38.3l31.2,4c2.9,0.2,5.1,2.7,5.1,4.6c0,8.8,0,17.6,0,26.5c0,2-2.9,4.5-5.1,4.6l-31,3.3
			h-38.6l-29.2-2.8c-2.3-0.2-5.1-2.1-5.1-4.6v-28C301.3,587.7,303.5,585.8,306.4,585.6L306.4,585.6z"/>
		<path class="st6" d="M368.1,585.5L379,587c4.3,11.6,3.9,22,0,34.4l-10.9,1.4C370.8,610.4,371.1,598.4,368.1,585.5L368.1,585.5z"/>
		<polygon class="st6" points="322,589.4 328.6,591.4 328.6,617.2 322,619.4 322,589.4 		"/>
		<path class="st6" d="M305.2,597.1h-1.7c-0.5,0-0.9,0.2-0.9,0.4v13.3c0,0.2,0.4,0.4,0.9,0.4h1.7c0.5,0,0.9-0.2,0.9-0.4v-13.3
			C306.1,597.3,305.7,597.1,305.2,597.1L305.2,597.1z"/>
		<line class="st7" x1="332.5" y1="586.7" x2="363.9" y2="586.8"/>
		<line class="st7" x1="341.1" y1="603.9" x2="363.9" y2="604"/>
		<line class="st7" x1="332.5" y1="621.5" x2="363.9" y2="621.6"/>
		<line class="st7" x1="384.9" y1="588.4" x2="404.1" y2="591.1"/>
		<line class="st7" x1="384.9" y1="619.9" x2="404.1" y2="617.6"/>
	</g>
</g>
</svg>
