<?xml version="1.0" encoding="utf-8"?>
<!-- Generator: Adobe Illustrator 19.2.0, SVG Export Plug-In . SVG Version: 6.00 Build 0)  -->
<svg version="1.1" id="Livello_1" xmlns="http://www.w3.org/2000/svg" xmlns:xlink="http://www.w3.org/1999/xlink" x="0px" y="0px"
	 viewBox="0 0 960 960" style="enable-background:new 0 0 960 960;" xml:space="preserve">
<style type="text/css">
	.st0{fill:#FFFFFF;}
	.st1{fill-rule:evenodd;clip-rule:evenodd;fill:#CECFD1;}
	.st2{fill-rule:evenodd;clip-rule:evenodd;fill:#FFFFFF;}
	.st3{fill:none;stroke:#1A171B;stroke-width:1.061;stroke-miterlimit:2.6131;}
	.st4{fill:none;stroke:#1A171B;stroke-width:3.5366;stroke-miterlimit:2.6131;}
	.st5{fill-rule:evenodd;clip-rule:evenodd;fill:#1A171B;}
	.st6{fill-rule:evenodd;clip-rule:evenodd;fill:#009DDF;stroke:#1A171B;stroke-width:0.3537;stroke-miterlimit:2.6131;}
	.st7{fill-rule:evenodd;clip-rule:evenodd;fill:#FFFFFF;stroke:#1A171B;stroke-width:0.3537;stroke-miterlimit:2.6131;}
	.st8{fill:none;stroke:#1A171B;stroke-width:0.3537;stroke-miterlimit:2.6131;}
	.st9{fill-rule:evenodd;clip-rule:evenodd;fill:#E1001A;stroke:#070E0C;stroke-width:0.3537;stroke-miterlimit:2.6131;}
	.st10{fill-rule:evenodd;clip-rule:evenodd;fill:#FFFFFF;stroke:#070E0C;stroke-width:0.3537;stroke-miterlimit:2.6131;}
	.st11{fill:none;stroke:#070E0C;stroke-width:0.3537;stroke-miterlimit:2.6131;}
</style>
<polygon class="st0" points="914.2,329 45,329 45,292.9 623.9,292.9 623.7,229.9 880,229.9 880.2,292.9 914.2,292.9 "/>
<polygon class="st0" points="914.2,631.5 45,631.5 45,667.6 623.9,667.6 623.7,730.6 880,730.6 880.2,667.6 914.2,667.6 "/>
<g>
	<g>
		<path class="st1" d="M914.2,635.8V324.4h-32.7c-21.4,0-31.5-10.3-31.5-31.5v-63.2H654.5v63.2c0,21.2-10.1,31.5-31.5,31.5H45v311.4
			h577.9c21.4,0,32.8,10.3,32.8,31.5l0,63h194.2v-63c0-21.2,10.1-31.5,31.5-31.5H914.2L914.2,635.8z"/>
		<polygon class="st2" points="304.7,563.2 247.1,563.2 247.1,571.8 304.7,571.8 304.7,563.2 		"/>
		<polygon class="st2" points="203.8,563.2 146.2,563.2 146.2,571.8 203.8,571.8 203.8,563.2 		"/>
		<polygon class="st2" points="102.8,563.2 45.3,563.2 45.3,571.8 102.8,571.8 102.8,563.2 		"/>
		<polygon class="st2" points="654.6,490 347.9,490 347.9,498.6 654.6,498.6 654.6,490 		"/>
		<polygon class="st2" points="654.4,562.6 347.7,562.6 347.7,571.3 654.4,571.3 654.4,562.6 		"/>
		<polygon class="st2" points="654.6,475.1 45.2,475.1 45.2,483.8 654.6,483.8 654.6,475.1 		"/>
		<polygon class="st2" points="623.1,475.3 654.6,475.3 654.6,667.5 623.1,667.5 623.1,475.3 		"/>
		<path class="st3" d="M915,324.4h-33.6c-21.4,0-31.5-10.3-31.5-31.5v-63"/>
		<path class="st3" d="M915,635.8h-33.6c-21.4,0-31.5,10.3-31.5,31.5v63"/>
		<path class="st4" d="M45,667.3h577.9v63 M45,292.9h577.9v-63.2 M881.2,730.4v-63H915 M881.2,229.6v63.2H915"/>
		<path class="st3" d="M45,324.4h577.9c21.4,0,31.5-10.3,31.5-31.5v-63"/>
		<path class="st3" d="M46.4,635.8h577.9c21.4,0,31.5,10.3,31.5,31.5v63"/>
		<polygon class="st5" points="109.7,462 109.7,419.8 118,419.8 135.3,448 135.3,419.8 143.2,419.8 143.2,462 134.6,462 
			117.6,434.5 117.6,462 109.7,462 		"/>
		<path class="st5" d="M110.9,681.6h16.9c3.3,0,5.8,0.1,7.5,0.4c1.6,0.3,3.1,0.9,4.4,1.7c1.3,0.9,2.4,2.1,3.2,3.5
			c0.9,1.5,1.3,3.1,1.3,4.9c0,2-0.5,3.8-1.6,5.4c-1.1,1.6-2.5,2.9-4.3,3.7c2.6,0.7,4.5,2,5.9,3.8c1.4,1.8,2.1,3.9,2.1,6.4
			c0,1.9-0.4,3.8-1.3,5.6c-0.9,1.8-2.1,3.3-3.7,4.3c-1.5,1.1-3.4,1.8-5.7,2c-1.4,0.1-4.8,0.2-10.3,0.3h-14.4V681.6L110.9,681.6z
			 M119.4,688.6v9.8h5.6c3.3,0,5.4,0,6.2-0.1c1.5-0.2,2.6-0.7,3.4-1.5c0.8-0.8,1.2-1.9,1.2-3.3c0-1.3-0.4-2.4-1.1-3.2
			c-0.7-0.8-1.8-1.3-3.2-1.5c-0.8-0.1-3.3-0.1-7.3-0.1H119.4L119.4,688.6z M119.4,705.4v11.3h7.9c3.1,0,5-0.1,5.8-0.3
			c1.3-0.2,2.3-0.8,3.1-1.7c0.8-0.9,1.2-2.1,1.2-3.6c0-1.3-0.3-2.3-0.9-3.2c-0.6-0.9-1.5-1.5-2.7-1.9c-1.2-0.4-3.7-0.6-7.6-0.6
			H119.4L119.4,705.4z"/>
		<path class="st6" d="M77.7,511.4l29.4-3.2h38.3l31.2,4.2c2.9,0.3,5.1,2.8,5.1,4.8c0,9.2,0,18.3,0,27.6c0,2-2.9,4.7-5.1,4.8
			l-31,3.4H107l-29.2-2.9c-2.3-0.3-5.1-2.2-5.1-4.8v-29.1C72.7,513.6,74.9,511.7,77.7,511.4L77.7,511.4z"/>
		<path class="st7" d="M139.4,511.3l10.9,1.6c4.3,12.1,3.9,23,0,35.9l-10.9,1.5C142.2,537.3,142.4,524.8,139.4,511.3L139.4,511.3z"
			/>
		<polygon class="st7" points="93.3,515.4 99.9,517.5 99.9,544.4 93.3,546.7 93.3,515.4 		"/>
		<path class="st7" d="M76.6,523.4h-1.7c-0.5,0-0.9,0.2-0.9,0.5v13.9c0,0.2,0.4,0.5,0.9,0.5h1.7c0.5,0,0.9-0.2,0.9-0.5v-13.9
			C77.5,523.6,77.1,523.4,76.6,523.4L76.6,523.4z"/>
		<line class="st8" x1="103.8" y1="512.6" x2="135.3" y2="512.7"/>
		<line class="st8" x1="112.4" y1="530.5" x2="135.3" y2="530.6"/>
		<line class="st8" x1="103.8" y1="548.8" x2="135.3" y2="549"/>
		<line class="st8" x1="156.2" y1="514.4" x2="175.4" y2="517.1"/>
		<line class="st8" x1="156.2" y1="547.2" x2="175.4" y2="544.7"/>
		<path class="st9" d="M77.9,585.6l29.4-3.1h38.3l31.2,4c2.9,0.2,5.1,2.7,5.1,4.6c0,8.8,0,17.6,0,26.5c0,2-2.9,4.5-5.1,4.6l-31,3.3
			h-38.6l-29.2-2.8c-2.3-0.2-5.1-2.1-5.1-4.6v-28C72.9,587.7,75.1,585.8,77.9,585.6L77.9,585.6z"/>
		<path class="st10" d="M139.6,585.5l10.9,1.5c4.3,11.6,3.9,22,0,34.4l-10.9,1.4C142.3,610.4,142.6,598.4,139.6,585.5L139.6,585.5z"
			/>
		<polygon class="st10" points="93.5,589.4 100.1,591.4 100.1,617.2 93.5,619.4 93.5,589.4 		"/>
		<path class="st10" d="M76.7,597.1H75c-0.5,0-0.9,0.2-0.9,0.4v13.3c0,0.2,0.4,0.4,0.9,0.4h1.7c0.5,0,0.9-0.2,0.9-0.4v-13.3
			C77.7,597.3,77.2,597.1,76.7,597.1L76.7,597.1z"/>
		<line class="st11" x1="104" y1="586.7" x2="135.5" y2="586.8"/>
		<line class="st11" x1="112.6" y1="603.9" x2="135.5" y2="604"/>
		<line class="st11" x1="104" y1="621.5" x2="135.5" y2="621.6"/>
		<line class="st11" x1="156.4" y1="588.4" x2="175.6" y2="591.1"/>
		<line class="st11" x1="156.4" y1="619.9" x2="175.6" y2="617.6"/>
	</g>
</g>
</svg>
