<?xml version="1.0" encoding="utf-8"?>
<!-- Generator: Adobe Illustrator 19.2.0, SVG Export Plug-In . SVG Version: 6.00 Build 0)  -->
<svg version="1.1" id="Livello_1" xmlns="http://www.w3.org/2000/svg" xmlns:xlink="http://www.w3.org/1999/xlink" x="0px" y="0px"
	 viewBox="0 0 960 960" style="enable-background:new 0 0 960 960;" xml:space="preserve">
<style type="text/css">
	.st0{fill:#FFFFFF;}
	.st1{fill:none;stroke:#1A171B;stroke-width:1.061;stroke-miterlimit:2.6131;}
	.st2{fill-rule:evenodd;clip-rule:evenodd;fill:#CECFD1;}
	.st3{fill:none;stroke:#1A171B;stroke-width:3.5366;stroke-miterlimit:2.6131;}
	.st4{fill-rule:evenodd;clip-rule:evenodd;fill:#FFFFFF;}
	.st5{fill-rule:evenodd;clip-rule:evenodd;fill:#00A6E2;stroke:#1A171B;stroke-width:0.3537;stroke-miterlimit:2.6131;}
	.st6{fill-rule:evenodd;clip-rule:evenodd;fill:#FFFFFF;stroke:#1A171B;stroke-width:0.3537;stroke-miterlimit:2.6131;}
	.st7{fill:none;stroke:#1A171B;stroke-width:0.3537;stroke-miterlimit:2.6131;}
	.st8{fill-rule:evenodd;clip-rule:evenodd;fill:#E1001A;stroke:#070E0C;stroke-width:0.3537;stroke-miterlimit:2.6131;}
	.st9{fill-rule:evenodd;clip-rule:evenodd;fill:#FFFFFF;stroke:#070E0C;stroke-width:0.3537;stroke-miterlimit:2.6131;}
	.st10{fill:none;stroke:#070E0C;stroke-width:0.3537;stroke-miterlimit:2.6131;}
	.st11{fill-rule:evenodd;clip-rule:evenodd;fill:#1A171B;}
</style>
<polygon class="st0" points="914.2,329 45,329 45,292.9 623.9,292.9 623.7,229.9 880,229.9 880.2,292.9 914.2,292.9 "/>
<polygon class="st0" points="914.2,631.5 45,631.5 45,667.6 623.9,667.6 623.7,730.6 880,730.6 880.2,667.6 914.2,667.6 "/>
<g>
	<g>
		<path class="st1" d="M915,324.4h-33.6c-21.4,0-31.5-10.3-31.5-31.5v-63"/>
		<path class="st1" d="M915,635.8h-33.6c-21.4,0-31.5,10.3-31.5,31.5v63"/>
		<path class="st2" d="M914.2,635.8V324.4h-32.7c-21.4,0-31.5-10.3-31.5-31.5v-63.2H654.5v63.2c0,21.2-10.1,31.5-31.5,31.5H45v311.4
			h577.9c21.4,0,31.5,10.3,31.5,31.5l0.2,63h195.3v-63c0-21.2,10.1-31.5,31.5-31.5H914.2L914.2,635.8z"/>
		<path class="st3" d="M45,667.3h577.9v63 M45,292.9h577.9v-63.2 M881.2,730.4v-63H915 M881.2,229.6v63.2H915"/>
		<path class="st1" d="M45,324.4h577.9c21.4,0,31.5-10.3,31.5-31.5v-63"/>
		<polygon class="st4" points="654.5,587.4 347.8,587.4 347.8,596.1 654.5,596.1 654.5,587.4 		"/>
		<polygon class="st4" points="304.5,587.4 246.9,587.4 246.9,596.1 304.5,596.1 304.5,587.4 		"/>
		<polygon class="st4" points="203.6,587.4 146,587.4 146,596.1 203.6,596.1 203.6,587.4 		"/>
		<polygon class="st4" points="102.7,587.4 45.1,587.4 45.1,596.1 102.7,596.1 102.7,587.4 		"/>
		<polygon class="st4" points="654.5,538.4 347.8,538.4 347.8,547 654.5,547 654.5,538.4 		"/>
		<polygon class="st4" points="304.5,538.4 246.9,538.4 246.9,547 304.5,547 304.5,538.4 		"/>
		<polygon class="st4" points="203.6,538.4 146,538.4 146,547 203.6,547 203.6,538.4 		"/>
		<polygon class="st4" points="102.7,538.4 45.1,538.4 45.1,547 102.7,547 102.7,538.4 		"/>
		<polygon class="st4" points="654.5,489.8 347.8,489.8 347.8,498.4 654.5,498.4 654.5,489.8 		"/>
		<polygon class="st4" points="654.5,475 45,475 45,483.6 654.5,483.6 654.5,475 		"/>
		<polygon class="st4" points="622.9,475.2 654.5,475.2 654.5,661 622.9,661 622.9,475.2 		"/>
		<path class="st5" d="M508.4,503.2l24-2.5h31.4l25.5,3.3c2.3,0.2,4.1,2.2,4.1,3.8c0,7.2,0,14.4,0,21.7c0,1.6-2.3,3.7-4.1,3.8
			l-25.4,2.7h-31.6l-23.9-2.3c-1.9-0.2-4.1-1.7-4.1-3.8V507C504.3,504.9,506.1,503.4,508.4,503.2L508.4,503.2z"/>
		<path class="st6" d="M558.9,503.1l8.9,1.2c3.5,9.5,3.2,18,0,28.2l-8.9,1.1C561.2,523.5,561.4,513.7,558.9,503.1L558.9,503.1z"/>
		<polygon class="st6" points="521.2,506.3 526.6,508 526.6,529.1 521.2,530.9 521.2,506.3 		"/>
		<path class="st6" d="M507.5,512.6h-1.4c-0.4,0-0.7,0.2-0.7,0.4v10.9c0,0.2,0.3,0.4,0.7,0.4h1.4c0.4,0,0.7-0.2,0.7-0.4V513
			C508.2,512.8,507.9,512.6,507.5,512.6L507.5,512.6z"/>
		<line class="st7" x1="529.8" y1="504.1" x2="555.5" y2="504.2"/>
		<line class="st7" x1="536.8" y1="518.2" x2="555.5" y2="518.3"/>
		<line class="st7" x1="529.8" y1="532.6" x2="555.5" y2="532.7"/>
		<line class="st7" x1="572.7" y1="505.5" x2="588.4" y2="507.7"/>
		<line class="st7" x1="572.7" y1="531.3" x2="588.4" y2="529.4"/>
		<path class="st1" d="M45,635.8h577.9c21.4,0,31.5,10.3,31.5,31.5v63"/>
		<path class="st8" d="M508.3,552.1l24-2.5h31.4l25.5,3.3c2.3,0.2,4.1,2.2,4.1,3.8c0,7.2,0,14.4,0,21.7c0,1.6-2.3,3.7-4.1,3.8
			l-25.4,2.7h-31.6l-23.9-2.3c-1.9-0.2-4.1-1.7-4.1-3.8v-22.9C504.2,553.8,506,552.3,508.3,552.1L508.3,552.1z"/>
		<path class="st9" d="M558.8,552l8.9,1.2c3.5,9.5,3.2,18,0,28.2l-8.9,1.1C561.1,572.4,561.3,562.5,558.8,552L558.8,552z"/>
		<polygon class="st9" points="521.1,555.2 526.5,556.9 526.5,578 521.1,579.8 521.1,555.2 		"/>
		<path class="st9" d="M507.4,561.5H506c-0.4,0-0.7,0.2-0.7,0.4v10.9c0,0.2,0.3,0.4,0.7,0.4h1.4c0.4,0,0.7-0.2,0.7-0.4v-10.9
			C508.1,561.6,507.8,561.5,507.4,561.5L507.4,561.5z"/>
		<line class="st10" x1="529.7" y1="553" x2="555.4" y2="553.1"/>
		<line class="st10" x1="536.7" y1="567.1" x2="555.4" y2="567.2"/>
		<line class="st10" x1="529.7" y1="581.4" x2="555.4" y2="581.5"/>
		<line class="st10" x1="572.6" y1="554.4" x2="588.3" y2="556.6"/>
		<line class="st10" x1="572.6" y1="580.2" x2="588.3" y2="578.3"/>
		<path class="st11" d="M529.9,440.4c0-4.3,0.6-7.9,1.9-10.8c1-2.1,2.3-4.1,3.9-5.8c1.7-1.7,3.5-3,5.5-3.8c2.6-1.1,5.7-1.7,9.1-1.7
			c6.2,0,11.2,1.9,14.9,5.8c3.7,3.9,5.6,9.2,5.6,16.1c0,6.8-1.9,12.1-5.6,16c-3.7,3.8-8.7,5.8-14.8,5.8c-6.3,0-11.3-1.9-15-5.7
			C531.7,452.4,529.9,447.1,529.9,440.4L529.9,440.4z M538.6,440.1c0,4.8,1.1,8.4,3.3,10.9c2.2,2.5,5,3.7,8.4,3.7
			c3.4,0,6.2-1.2,8.4-3.7c2.2-2.4,3.3-6.1,3.3-11c0-4.8-1.1-8.4-3.2-10.8c-2.1-2.4-4.9-3.6-8.4-3.6c-3.5,0-6.3,1.2-8.5,3.6
			C539.7,431.6,538.6,435.2,538.6,440.1L538.6,440.1z"/>
		<path class="st11" d="M533.4,709.6l8.3-0.8c0.5,2.8,1.5,4.8,3,6.1c1.5,1.3,3.6,2,6.2,2c2.7,0,4.8-0.6,6.2-1.7
			c1.4-1.2,2.1-2.5,2.1-4.1c0-1-0.3-1.8-0.9-2.5c-0.6-0.7-1.6-1.3-3.1-1.8c-1-0.4-3.3-1-6.8-1.8c-4.6-1.1-7.8-2.5-9.6-4.2
			c-2.6-2.3-3.9-5.1-3.9-8.5c0-2.2,0.6-4.2,1.8-6c1.2-1.9,3-3.3,5.3-4.3c2.3-1,5.1-1.5,8.3-1.5c5.3,0,9.3,1.2,12,3.5
			c2.7,2.3,4.1,5.4,4.2,9.3l-8.5,0.4c-0.4-2.2-1.2-3.7-2.3-4.7c-1.2-0.9-3-1.4-5.4-1.4c-2.5,0-4.4,0.5-5.8,1.5
			c-0.9,0.6-1.4,1.5-1.4,2.6c0,1,0.4,1.9,1.3,2.6c1.1,0.9,3.7,1.8,7.8,2.8c4.1,1,7.2,2,9.2,3c2,1.1,3.5,2.5,4.7,4.3
			c1.1,1.8,1.7,4.1,1.7,6.7c0,2.4-0.7,4.7-2,6.8c-1.3,2.1-3.2,3.7-5.7,4.7c-2.5,1-5.5,1.5-9.2,1.5c-5.3,0-9.4-1.2-12.3-3.7
			C535.7,717.9,534,714.3,533.4,709.6L533.4,709.6z"/>
	</g>
</g>
</svg>
