<?xml version="1.0" encoding="utf-8"?>
<!-- Generator: Adobe Illustrator 19.2.0, SVG Export Plug-In . SVG Version: 6.00 Build 0)  -->
<svg version="1.1" id="Livello_1" xmlns="http://www.w3.org/2000/svg" xmlns:xlink="http://www.w3.org/1999/xlink" x="0px" y="0px"
	 viewBox="0 0 960 960" style="enable-background:new 0 0 960 960;" xml:space="preserve">
<style type="text/css">
	.st0{fill-rule:evenodd;clip-rule:evenodd;fill:#FFFFFF;}
	.st1{fill-rule:evenodd;clip-rule:evenodd;fill:#CECFD1;}
	.st2{fill:none;stroke:#1A171B;stroke-width:4.6586;stroke-miterlimit:2.6131;}
	.st3{fill-rule:evenodd;clip-rule:evenodd;fill:#1A171B;}
	.st4{fill-rule:evenodd;clip-rule:evenodd;fill:#00A6E2;stroke:#1A171B;stroke-width:1.3976;stroke-miterlimit:2.6131;}
	.st5{fill-rule:evenodd;clip-rule:evenodd;fill:#FFFFFF;stroke:#1A171B;stroke-width:1.3976;stroke-miterlimit:2.6131;}
	.st6{fill:none;stroke:#1A171B;stroke-width:1.8635;stroke-miterlimit:2.6131;}
	.st7{fill-rule:evenodd;clip-rule:evenodd;fill:#E43417;stroke:#1A171B;stroke-width:1.3976;stroke-miterlimit:2.6131;}
	.st8{fill-rule:evenodd;clip-rule:evenodd;fill:#1A171B;stroke:#1A171B;stroke-width:1.3976;stroke-miterlimit:2.6131;}
	.st9{fill-rule:evenodd;clip-rule:evenodd;fill:#E1001A;}
	.st10{fill:none;stroke:#1A171B;stroke-width:1.3976;stroke-miterlimit:2.6131;}
</style>
<g>
	<g>
		<polygon class="st0" points="684.7,807.6 273,807.6 273,433.5 45.2,433.5 45.2,152.4 914,152.4 914,433.5 684.7,433.5 
			684.7,807.6 		"/>
		<path class="st1" d="M662.2,807.6H296.8V443.6c-1.7-21-13-31.5-42.2-32H46.2V174.2H915v237.4H705.3c-29,0-43.5,9.8-43.7,32
			L662.2,807.6L662.2,807.6z"/>
		<path class="st2" d="M273.2,807.6V433.5h-228 M45,152.4h869 M914,433.5h-230v374.1"/>
		<path class="st3" d="M461.5,553.2h-11.8l-4.7-12.2h-21.4l-4.4,12.2h-11.5l20.8-53.5h11.4L461.5,553.2L461.5,553.2z M441.6,532
			l-7.4-19.9L427,532H441.6L441.6,532z"/>
		<path class="st3" d="M413.2,681.7H433c4.4,0,7.8,0.3,10.2,1c3.1,0.9,5.8,2.6,8.1,4.9c2.2,2.4,3.9,5.2,5.1,8.7
			c1.2,3.4,1.7,7.6,1.7,12.6c0,4.4-0.5,8.2-1.6,11.4c-1.3,3.9-3.2,7-5.7,9.4c-1.9,1.8-4.4,3.2-7.6,4.3c-2.4,0.8-5.6,1.1-9.6,1.1
			h-20.3V681.7L413.2,681.7z M424,690.8v35.4h8.1c3,0,5.2-0.2,6.5-0.5c1.7-0.4,3.2-1.2,4.4-2.2c1.2-1,2.1-2.8,2.8-5.2
			c0.7-2.4,1.1-5.7,1.1-9.8c0-4.1-0.4-7.3-1.1-9.5c-0.7-2.2-1.8-3.9-3.1-5.2c-1.3-1.3-3-2.1-5-2.5c-1.5-0.3-4.5-0.5-8.9-0.5H424
			L424,690.8z"/>
		<path class="st4" d="M543.3,582.5c-1.8-12.2-4.4-28.8-4.5-46.6c0-14.2,0-28.4,0-42.8c1.3-18.7,0.7-33.7,5.3-48.1
			c0.7-2.8,4.7-9.5,9.6-9.5h36.2c5.8,0,7.4,7.5,8,9.5c3.4,14.4,4.9,29.4,4.9,47.9v43.2c0,16.8-1.8,33.7-4.2,46.4
			c-0.7,3.6-1.4,9.7-9.1,9.7h-36.6C543,592.3,544,587.6,543.3,582.5L543.3,582.5z"/>
		<path class="st5" d="M547.8,496.2l-2.4-15.7c17.3-6.2,32.7-5.6,51.1,0l-2.3,15.7C575.8,492.2,567,491.8,547.8,496.2L547.8,496.2z"
			/>
		<path class="st5" d="M548.8,562.7l3.3-9.7c13,2.4,25.7,2.4,38,0.2l3.4,9.5C579,565.3,563.6,565,548.8,562.7L548.8,562.7z"/>
		<line class="st6" x1="545" y1="547.4" x2="545.1" y2="502.1"/>
		<line class="st6" x1="596.6" y1="547.4" x2="596.8" y2="502.1"/>
		<path class="st7" d="M542.9,767c-1.8-12.2-4.3-28.8-4.5-46.6c0-14.2,0-28.4,0-42.8c1.3-18.7,0.7-33.7,5.3-48.1
			c0.7-2.8,4.7-9.5,9.6-9.5h36.2c5.8,0,7.4,7.5,8,9.5c3.4,14.4,4.9,29.4,4.9,47.9v43.2c0,16.8-1.8,33.7-4.2,46.4
			c-0.7,3.6-1.4,9.7-9.1,9.7h-36.6C542.5,776.8,543.6,772.1,542.9,767L542.9,767z"/>
		<path class="st5" d="M547.4,680.6l-2.4-15.7c17.3-6.2,32.7-5.6,51.1,0l-2.3,15.7C575.4,676.7,566.6,676.3,547.4,680.6L547.4,680.6
			z"/>
		<path class="st5" d="M548.3,747.2l3.3-9.7c13,2.4,25.7,2.4,38.1,0.2l3.4,9.5C578.6,749.8,563.2,749.5,548.3,747.2L548.3,747.2z"/>
		<line class="st6" x1="544.5" y1="731.9" x2="544.7" y2="686.6"/>
		<line class="st6" x1="596.2" y1="731.9" x2="596.3" y2="686.6"/>
		<polygon class="st8" points="771.8,564.5 780.2,564.5 780.2,667.7 771.8,667.7 771.8,564.5 		"/>
		<polygon class="st5" points="754.3,577.3 723.2,546.9 723.2,501.2 753.7,470.8 799.3,470.8 829.5,501.2 829.5,546.9 799.3,577.3 
			754.3,577.3 		"/>
		<polygon class="st9" points="798.1,574.4 755.6,574.4 726.2,545.6 726.2,502.5 755,473.7 798.1,473.7 826.6,502.5 826.6,545.6 
			798.1,574.4 		"/>
		<path class="st0" d="M735.9,532.6c1.3,1.8,2.2,2.8,2.3,2.9c0.1,0.3,1.5,1.2,2.8,1.2c0.9,0,2.3-0.8,2.4-1c0.1-0.2,0.9-1.6,0.9-2.7
			c0-1.6-1.5-3.5-4.4-5.5c-0.1,0-0.4-0.3-0.4-0.3c-1.5-1-2.8-2-3.6-2.6c-0.8-0.6-2-1.7-2-1.7c-0.6-0.8-2.3-2.7-2.3-3.3
			c0-0.7-0.7-2.4-0.7-3.9c0-2.9,1.3-5.6,2.7-6.9c1.4-1.4,4.4-2.6,7.3-2.6c3.2,0,5,1.2,6.5,2.6c1,1.1,2.2,2.5,3,4.5
			c-1.6,0.9-2.7,1.5-4.8,2.7c-0.9-1.5-2.2-3.1-2.4-3.2c-0.3-0.3-1.5-1.3-2.5-1.3c-0.8,0-2,0.8-2.1,1c-0.1,0.2-0.9,1.6-0.9,2.7
			c0,1.9,2.1,4.5,5.5,6.5c0.6,0.3,2.2,1.4,2.2,1.4c1.7,0.9,3.9,3.3,4.3,4.2c0.3,0.9,1.3,3.1,1.3,4.8c0,3.5-2.2,6.4-3,7.5
			c-1.3,1.7-4.3,2.8-7.9,2.8c-3.2,0-5.6-1.8-6.6-2.7c-1.6-1.5-0.9-0.8-2.7-3.6C732.8,534.4,734.2,533.7,735.9,532.6L735.9,532.6z
			 M760.9,541.6v-28.9h-5.3v-5.8l17.2-0.1v5.8l-5.1,0.1v28.9H760.9L760.9,541.6z M777.5,523.7c0-8.8,3.2-17.7,10.1-17.6
			c6.9,0.1,9.9,8.5,9.9,17.2c0,8.7-3.3,18.9-10.3,18.9C780.2,542.2,777.5,532.4,777.5,523.7L777.5,523.7z M783.2,523.6
			c0,2.4,1.1,13,4.2,13.1c3.1,0.1,4-10.4,4-13.1s-0.6-12-4-12C784.2,511.6,783.2,521.2,783.2,523.6L783.2,523.6z M811.9,506.9
			c6.2,0,9.8,5.4,9.7,10.5c0,5.1-3.3,10.3-9.7,10.3h-1.5v13.9h-6.9v-34.6H811.9L811.9,506.9z M810.3,512.4v9.4
			c2.5,0,4.9-1.5,4.9-4.5C815.2,514.4,813.4,512.4,810.3,512.4L810.3,512.4z"/>
		<path class="st0" d="M473.4,411.3l220.9,0.1c-14.5,0-27.5,9.5-31.9,22.5H484.1v373.4h-10.6V411.3L473.4,411.3z"/>
		<path class="st10" d="M295.3,807.6l0.8-364.1c0-22-14.9-32-44.4-32H45.4 M45.2,174.2H914 M914,411.6H704.3
			c-29.1,0-42.5,9.7-42.6,32l-0.1,364.1"/>
	</g>
</g>
</svg>
