<?xml version="1.0" encoding="utf-8"?>
<!-- Generator: Adobe Illustrator 19.2.0, SVG Export Plug-In . SVG Version: 6.00 Build 0)  -->
<svg version="1.1" id="Livello_1" xmlns="http://www.w3.org/2000/svg" xmlns:xlink="http://www.w3.org/1999/xlink" x="0px" y="0px"
	 viewBox="0 0 960 960" style="enable-background:new 0 0 960 960;" xml:space="preserve">
<style type="text/css">
	.st0{fill-rule:evenodd;clip-rule:evenodd;fill:#FFFFFF;}
	.st1{fill-rule:evenodd;clip-rule:evenodd;fill:#CECFD1;}
	.st2{fill:none;stroke:#1A171B;stroke-width:1.404;stroke-miterlimit:2.6131;}
	.st3{fill:none;stroke:#1A171B;stroke-width:4.68;stroke-miterlimit:2.6131;}
	.st4{fill-rule:evenodd;clip-rule:evenodd;fill:#FFEC00;stroke:#1A171B;stroke-width:1.404;stroke-miterlimit:2.6131;}
	.st5{fill-rule:evenodd;clip-rule:evenodd;fill:#FFFFFF;stroke:#1A171B;stroke-width:1.404;stroke-miterlimit:2.6131;}
	.st6{fill:none;stroke:#1A171B;stroke-width:1.872;stroke-miterlimit:2.6131;}
	.st7{fill-rule:evenodd;clip-rule:evenodd;fill:#00A6E2;stroke:#1A171B;stroke-width:1.404;stroke-miterlimit:2.6131;}
	.st8{fill-rule:evenodd;clip-rule:evenodd;fill:#1A171B;}
</style>
<rect x="45.2" y="183.4" class="st0" width="869.8" height="24.4"/>
<path class="st0" d="M809.4,776.4H488.9L342.1,523c-16.7-26-16.9-36.6-51.3-38.3l-245.5,0.2v-25.4H915v25.4l-230.2-0.2
	c-5.8,3.3-10.3,12.9,2.4,34.5l149.2,257.3H809.4z"/>
<g>
	<g>
		<path class="st1" d="M809.4,776.4H514.9L356.1,500c-16.7-26-30.9-36.6-65.3-38.3l-245.5,0.2V206.4H915v255.4l-230.2-0.2
			c-25.4,2.4-40.3,30.9-27.6,52.5L809.4,776.4L809.4,776.4z"/>
		<path class="st2" d="M914.8,461.6l-230.2-0.2c-25.4,2.4-40.3,30.9-27.6,52.4l152.2,262.2 M514.7,776.1L355.8,499.7
			c-16.7-25.9-30.9-36.6-65.3-38.3H45 M45,206.2h869.8"/>
		<line class="st3" x1="45.1" y1="183.6" x2="915" y2="183.6"/>
		<path class="st3" d="M915,484.7H690.1c-8.8,0-15.1,10.1-11.4,19.5l157.2,272.2"/>
		<path class="st3" d="M488.4,776.4L342.5,522.8c-17.7-27.2-24.1-38.3-64-38.1H45.1"/>
		<path class="st0" d="M855.4,339.1v-11.8H915v11.8H855.4L855.4,339.1z M824.5,327.3v11.8h-59.1v-11.8H824.5L824.5,327.3z
			 M734.5,327.3v11.8h-59.1v-11.8H734.5L734.5,327.3z M644.5,327.3v11.8h-59.1v-11.8H644.5L644.5,327.3z M554.1,327.3v11.8h-58.7
			v-11.8H554.1L554.1,327.3z M464.1,327.3v11.8h-58.7v-11.8H464.1L464.1,327.3z M374.1,327.3v11.8H315v-11.8H374.1L374.1,327.3z
			 M284.1,327.3v11.8h-35H225v-11.8H284.1L284.1,327.3z M194.1,327.3v11.8h-59.1v-11.8H194.1L194.1,327.3z M104.1,327.3v11.8H45.1
			v-11.8H104.1L104.1,327.3z"/>
		<polygon class="st0" points="586.1,657.1 596.3,651.2 625.9,702.2 615.6,708.1 586.1,657.1 		"/>
		<polygon class="st0" points="541,579.1 551.2,573.2 580.8,624.2 570.5,630.1 541,579.1 		"/>
		<polygon class="st0" points="496.1,501.3 506.3,495.4 535.7,546.2 525.4,552.1 496.1,501.3 		"/>
		<path class="st0" d="M450.7,423.4l9.4-7.2c1.5,2.2,3.1,4.2,4.6,6.4l26.1,45.5l-10.3,5.9l-25.2-44.2
			C453.6,427.8,452.2,425.6,450.7,423.4L450.7,423.4z"/>
		<path class="st0" d="M372.8,346.1l-5.7,11c-16.7-6.8-34.2-11.2-52.1-14.2v-12C334.7,333.6,354.2,338.4,372.8,346.1L372.8,346.1z"
			/>
		<path class="st0" d="M394.7,371.1l5.7-11c14,8.6,27.4,19.3,39.9,32.2l-9.8,7.4C419.2,388.3,407.2,378.9,394.7,371.1L394.7,371.1z"
			/>
		<polygon class="st0" points="631,735 641.3,729.1 668.6,776.2 655,776.2 631,735 		"/>
		<path class="st0" d="M539.4,404.5l-9.2-5.9c3.1-4.6,6.6-9.2,10.3-13.8c7.9-10.1,17.7-18.6,28.5-25.4l5.7,9.9
			c-9,6.1-17.1,13.4-24.5,21.7C546.2,395.4,542.7,399.9,539.4,404.5L539.4,404.5z"/>
		<path class="st0" d="M521.2,485.8l-11.4,2.2c-3.9-24.7-1.3-44.5,5.7-62.2l9.6,6.3C519.9,447.1,518.2,464.6,521.2,485.8
			L521.2,485.8z"/>
		<path class="st0" d="M516.9,518.2l10.9-2c2.8,9,6.1,18.6,10.3,28.9l-9.2,5.3C523.9,539,520.1,528.3,516.9,518.2L516.9,518.2z"/>
		<path class="st0" d="M644.8,333l1.7,10.3c-16.7,2.6-31.5,6.3-44.5,11.4l-5.2-9.4C611.9,339.7,628.1,335.8,644.8,333L644.8,333z"/>
		<path class="st4" d="M823.2,298.4c-13.4,2-31.7,4.8-51.2,5c-15.6,0-31.3,0-47.1,0c-20.6-1.4-37-0.8-52.9-5.8
			c-3.1-0.8-10.5-5.2-10.5-10.6v-39.9c0-6.4,8.2-8.2,10.5-8.8c15.8-3.8,32.3-5.4,52.7-5.4h47.5c18.5,0,37,2,51,4.6
			c3.9,0.8,10.7,1.6,10.7,10v40.3C833.9,298.8,828.8,297.6,823.2,298.4L823.2,298.4z"/>
		<path class="st5" d="M732.1,293.5l-17.3,2.7c-6.8-19-6.2-36,0-56.2l17.3,2.5C727.7,262.7,727.3,272.4,732.1,293.5L732.1,293.5z"/>
		<path class="st5" d="M805.3,292.5l-10.7-3.6c2.7-14.3,2.7-28.3,0.2-41.9l10.5-3.8C808.2,259.2,807.8,276.1,805.3,292.5
			L805.3,292.5z"/>
		<line class="st6" x1="788.4" y1="296.6" x2="738.6" y2="296.4"/>
		<line class="st6" x1="788.4" y1="239.8" x2="738.6" y2="239.6"/>
		<path class="st7" d="M126,379.7c13.4-2,31.7-4.8,51.2-5c15.6,0,31.3,0,47.1,0c20.6,1.4,37,0.8,52.9,5.8
			c3.1,0.8,10.5,5.2,10.5,10.6v39.9c0,6.4-8.2,8.2-10.5,8.8c-15.8,3.8-32.3,5.4-52.7,5.4H177c-18.5,0-37-2-51-4.6
			c-3.9-0.8-10.7-1.6-10.7-10v-40.3C115.3,379.3,120.4,380.5,126,379.7L126,379.7z"/>
		<path class="st5" d="M221,384.7l17.3-2.7c6.8,19,6.2,36,0,56.2l-17.3-2.5C225.3,415.5,225.7,405.7,221,384.7L221,384.7z"/>
		<path class="st5" d="M147.8,385.7l10.7,3.6c-2.7,14.4-2.7,28.3-0.2,41.9l-10.5,3.8C144.9,419,145.3,402,147.8,385.7L147.8,385.7z"
			/>
		<line class="st6" x1="164.6" y1="381.5" x2="214.4" y2="381.7"/>
		<line class="st6" x1="164.6" y1="438.3" x2="214.4" y2="438.5"/>
		<path class="st8" d="M165.2,251.6h20.5c4.6,0,8.2,0.3,10.6,1.1c3.3,1,6.1,2.7,8.4,5.1c2.3,2.4,4.1,5.5,5.3,9
			c1.2,3.6,1.8,7.9,1.8,13.2c0,4.6-0.6,8.5-1.7,11.8c-1.4,4-3.4,7.3-6,9.8c-1.9,1.9-4.6,3.4-7.9,4.4c-2.5,0.8-5.8,1.2-10,1.2h-21.1
			V251.6L165.2,251.6z M176.5,261v36.8h8.4c3.1,0,5.4-0.2,6.8-0.5c1.8-0.5,3.3-1.2,4.5-2.3c1.2-1.1,2.2-2.9,2.9-5.4
			c0.7-2.5,1.1-5.9,1.1-10.2c0-4.3-0.4-7.6-1.1-9.9c-0.8-2.3-1.8-4.1-3.2-5.4c-1.4-1.3-3.1-2.2-5.2-2.6c-1.6-0.4-4.6-0.5-9.2-0.5
			H176.5L176.5,261z"/>
		<path class="st8" d="M761.3,399.9v-9.4h24.2v22.2c-2.4,2.3-5.8,4.3-10.2,6c-4.5,1.7-9,2.6-13.6,2.6c-5.8,0-10.9-1.2-15.2-3.7
			c-4.3-2.4-7.6-5.9-9.8-10.5c-2.2-4.5-3.3-9.5-3.3-14.8c0-5.8,1.2-10.9,3.6-15.5c2.4-4.5,6-8,10.7-10.3c3.6-1.9,8-2.8,13.3-2.8
			c6.9,0,12.3,1.5,16.2,4.3c3.9,2.9,6.4,6.9,7.5,12l-11.2,2.1c-0.8-2.7-2.3-4.9-4.4-6.5c-2.2-1.6-4.9-2.4-8.1-2.4
			c-4.9,0-8.8,1.6-11.7,4.7c-2.9,3.1-4.3,7.7-4.3,13.9c0,6.6,1.5,11.6,4.4,14.9c2.9,3.3,6.8,4.9,11.5,4.9c2.4,0,4.7-0.5,7.1-1.4
			c2.4-0.9,4.4-2,6.1-3.4v-7.1H761.3L761.3,399.9z"/>
	</g>
</g>
</svg>
