<?xml version="1.0" encoding="utf-8"?>
<!-- Generator: Adobe Illustrator 19.2.0, SVG Export Plug-In . SVG Version: 6.00 Build 0)  -->
<svg version="1.1" id="Livello_1" xmlns="http://www.w3.org/2000/svg" xmlns:xlink="http://www.w3.org/1999/xlink" x="0px" y="0px"
	 viewBox="0 0 960 960" style="enable-background:new 0 0 960 960;" xml:space="preserve">
<style type="text/css">
	.st0{fill-rule:evenodd;clip-rule:evenodd;fill:#FFFFFF;}
	.st1{fill-rule:evenodd;clip-rule:evenodd;fill:#CECFD1;}
	.st2{fill:none;stroke:#1A171B;stroke-width:1.404;stroke-miterlimit:2.6131;}
	.st3{fill:none;stroke:#1A171B;stroke-width:4.68;stroke-miterlimit:2.6131;}
	.st4{fill-rule:evenodd;clip-rule:evenodd;fill:#00A6E2;stroke:#1A171B;stroke-width:1.404;stroke-miterlimit:2.6131;}
	.st5{fill-rule:evenodd;clip-rule:evenodd;fill:#FFFFFF;stroke:#1A171B;stroke-width:1.404;stroke-miterlimit:2.6131;}
	.st6{fill:none;stroke:#1A171B;stroke-width:1.872;stroke-miterlimit:2.6131;}
	.st7{fill-rule:evenodd;clip-rule:evenodd;fill:#FFEC00;stroke:#1A171B;stroke-width:1.404;stroke-miterlimit:2.6131;}
	.st8{fill-rule:evenodd;clip-rule:evenodd;fill:#1A171B;}
</style>
<rect x="45.2" y="183.4" class="st0" width="869.8" height="24.4"/>
<path class="st0" d="M809.4,776.4H488.9L342.1,523c-16.7-26-16.9-36.6-51.3-38.3l-245.5,0.2v-25.4H915v25.4l-230.2-0.2
	c-5.8,3.3-10.3,12.9,2.4,34.5l149.2,257.3H809.4z"/>
<g>
	<g>
		<path class="st1" d="M809.4,776.4H514.9L356.1,500c-16.7-26-30.9-36.6-65.3-38.3l-245.5,0.2V206.4H915v255.4l-230.2-0.2
			c-25.4,2.4-40.3,30.9-27.6,52.5L809.4,776.4L809.4,776.4z"/>
		<path class="st2" d="M914.8,461.6l-230.2-0.2c-25.4,2.4-40.3,30.9-27.6,52.4l152.2,262.2 M514.7,776.1L355.8,499.7
			c-16.7-25.9-30.9-36.6-65.3-38.3H45 M45,206.2h869.8"/>
		<line class="st3" x1="45.1" y1="183.6" x2="915" y2="183.6"/>
		<path class="st3" d="M915,484.7H690.1c-8.8,0-15.1,10.1-11.4,19.5l157.2,272.2"/>
		<path class="st3" d="M488.4,776.4L342.5,522.8c-17.7-27.2-24.1-38.3-64-38.1H45.1"/>
		<path class="st0" d="M855.4,339.1v-11.8H915v11.8H855.4L855.4,339.1z M824.5,327.3v11.8h-59.1v-11.8H824.5L824.5,327.3z
			 M734.5,327.3v11.8h-59.1v-11.8H734.5L734.5,327.3z M644.5,327.3v11.8h-59.1v-11.8H644.5L644.5,327.3z M554.1,327.3v11.8h-58.7
			v-11.8H554.1L554.1,327.3z M464.1,327.3v11.8h-58.7v-11.8H464.1L464.1,327.3z M374.1,327.3v11.8H315v-11.8H374.1L374.1,327.3z
			 M284.1,327.3v11.8h-35H225v-11.8H284.1L284.1,327.3z M194.1,327.3v11.8h-59.1v-11.8H194.1L194.1,327.3z M104.1,327.3v11.8H45.1
			v-11.8H104.1L104.1,327.3z"/>
		<polygon class="st0" points="586.1,657.1 596.3,651.2 625.9,702.2 615.6,708.1 586.1,657.1 		"/>
		<polygon class="st0" points="541,579.1 551.2,573.2 580.8,624.2 570.5,630.1 541,579.1 		"/>
		<polygon class="st0" points="496.1,501.3 506.3,495.4 535.7,546.2 525.4,552.1 496.1,501.3 		"/>
		<path class="st0" d="M450.7,423.4l9.4-7.2c1.5,2.2,3.1,4.2,4.6,6.4l26.1,45.5l-10.3,5.9l-25.2-44.2
			C453.6,427.8,452.2,425.6,450.7,423.4L450.7,423.4z"/>
		<path class="st0" d="M372.8,346.1l-5.7,11c-16.7-6.8-34.2-11.2-52.1-14.2v-12C334.7,333.6,354.2,338.4,372.8,346.1L372.8,346.1z"
			/>
		<path class="st0" d="M394.7,371.1l5.7-11c14,8.6,27.4,19.3,39.9,32.2l-9.8,7.4C419.2,388.3,407.2,378.9,394.7,371.1L394.7,371.1z"
			/>
		<polygon class="st0" points="631,735 641.3,729.1 668.6,776.2 655,776.2 631,735 		"/>
		<path class="st0" d="M539.4,404.5l-9.2-5.9c3.1-4.6,6.6-9.2,10.3-13.8c7.9-10.1,17.7-18.6,28.5-25.4l5.7,9.9
			c-9,6.1-17.1,13.4-24.5,21.7C546.2,395.4,542.7,399.9,539.4,404.5L539.4,404.5z"/>
		<path class="st0" d="M521.2,485.8l-11.4,2.2c-3.9-24.7-1.3-44.5,5.7-62.2l9.6,6.3C519.9,447.1,518.2,464.6,521.2,485.8
			L521.2,485.8z"/>
		<path class="st0" d="M516.9,518.2l10.9-2c2.8,9,6.1,18.6,10.3,28.9l-9.2,5.3C523.9,539,520.1,528.3,516.9,518.2L516.9,518.2z"/>
		<path class="st0" d="M644.8,333l1.7,10.3c-16.7,2.6-31.5,6.3-44.5,11.4l-5.2-9.4C611.9,339.7,628.1,335.8,644.8,333L644.8,333z"/>
		<path class="st4" d="M675.3,734.1c-8.4-10.6-20-25-29.9-41.9c-7.8-13.5-15.6-27.1-23.6-40.8c-9.1-18.5-17.8-32.5-21.4-48.7
			c-0.9-3.1-0.8-11.7,3.9-14.4l34.5-19.9c5.5-3.2,11.2,3,12.8,4.7c11.2,11.8,20.8,25.3,31,42.9l23.8,41.2
			c9.3,16,16.8,33.1,21.5,46.5c1.3,3.8,4,10.1-3.3,14.2l-34.9,20.1C680.3,743.6,678.8,738.5,675.3,734.1L675.3,734.1z"/>
		<path class="st5" d="M632.1,649.3l-11-13.6c13.1-15.4,28.1-23.3,48.7-28.1l6.5,16.2C656.6,630.1,648,634.6,632.1,649.3
			L632.1,649.3z"/>
		<path class="st5" d="M669.6,712.2l-2.2-11.1c13.8-4.9,25.8-11.8,36.4-20.8l8.5,7.2C699.8,698.1,685,706.2,669.6,712.2L669.6,712.2
			z"/>
		<line class="st6" x1="657.5" y1="699.7" x2="632.8" y2="656.5"/>
		<line class="st6" x1="706.7" y1="671.3" x2="682" y2="628.1"/>
		<path class="st7" d="M812.2,297.2c-13.4,2-31.7,4.8-51.2,5c-15.6,0-31.3,0-47.1,0c-20.6-1.4-37-0.8-52.9-5.8
			c-3.1-0.8-10.5-5.2-10.5-10.6V246c0-6.4,8.2-8.2,10.5-8.8c15.8-3.8,32.3-5.4,52.7-5.4h47.5c18.5,0,37,2,51,4.6
			c3.9,0.8,10.7,1.6,10.7,10v40.3C822.9,297.6,817.7,296.4,812.2,297.2L812.2,297.2z"/>
		<path class="st5" d="M721,292.2l-17.3,2.7c-6.8-19-6.2-36,0-56.2l17.3,2.5C716.7,261.4,716.3,271.1,721,292.2L721,292.2z"/>
		<path class="st5" d="M794.2,291.2l-10.7-3.6c2.7-14.4,2.7-28.3,0.2-41.9l10.5-3.8C797.1,257.9,796.7,274.9,794.2,291.2
			L794.2,291.2z"/>
		<line class="st6" x1="777.4" y1="295.4" x2="727.6" y2="295.2"/>
		<line class="st6" x1="777.4" y1="238.6" x2="727.6" y2="238.4"/>
		<path class="st8" d="M898.3,295.9h-12.2l-4.9-12.6H859l-4.6,12.6h-11.9l21.7-55.6h11.9L898.3,295.9L898.3,295.9z M877.7,273.9
			l-7.7-20.6l-7.5,20.6H877.7L877.7,273.9z"/>
		<polygon class="st8" points="531.4,714.5 531.4,658.9 572.6,658.9 572.6,668.3 542.6,668.3 542.6,680.6 570.5,680.6 570.5,690 
			542.6,690 542.6,705.1 573.7,705.1 573.7,714.5 531.4,714.5 		"/>
	</g>
</g>
</svg>
