<?xml version="1.0" encoding="utf-8"?>
<!-- Generator: Adobe Illustrator 19.2.0, SVG Export Plug-In . SVG Version: 6.00 Build 0)  -->
<svg version="1.1" id="Livello_1" xmlns="http://www.w3.org/2000/svg" xmlns:xlink="http://www.w3.org/1999/xlink" x="0px" y="0px"
	 viewBox="0 0 878.6 601.5" style="enable-background:new 0 0 878.6 601.5;" xml:space="preserve">
<style type="text/css">
	.st0{fill:#FFFFFF;}
	.st1{fill:#B9B9B9;}
	.st2{fill:none;stroke:#1A171B;stroke-width:1.4036;stroke-miterlimit:2.6131;}
	.st3{fill:none;stroke:#1A171B;stroke-width:4.6787;stroke-miterlimit:2.6131;}
	.st4{fill:#E43417;stroke:#1A171B;stroke-width:1.4036;stroke-miterlimit:2.6131;}
	.st5{fill:#FFFFFF;stroke:#1A171B;stroke-width:1.4036;stroke-miterlimit:2.6131;}
	.st6{fill:none;stroke:#1A171B;stroke-width:1.8715;stroke-miterlimit:2.6131;}
	.st7{fill:#FFEC00;stroke:#1A171B;stroke-width:1.4036;stroke-miterlimit:2.6131;}
	.st8{fill:#3D3D3F;stroke:#1A171B;stroke-width:1.4036;stroke-miterlimit:2.6131;}
	.st9{fill:#FFFFFF;stroke:#FFFFFF;stroke-width:1.4036;stroke-miterlimit:2.6131;}
	.st10{fill:none;stroke:#FFFFFF;stroke-width:1.4036;stroke-miterlimit:2.6131;}
	.st11{fill:#1A171B;}
</style>
<rect x="2.2" y="5" class="st0" width="869.8" height="24.4"/>
<path class="st0" d="M766.4,598H445.9L299.1,344.6c-16.7-26-16.9-36.6-51.3-38.3L2.3,306.5v-25.4H872v25.4l-230.2-0.2
	c-5.8,3.3-10.3,12.9,2.4,34.5l149.2,257.3L766.4,598L766.4,598z"/>
<g>
	<g>
		<path class="st1" d="M766.4,597.9H472L313.2,321.6c-16.7-25.9-30.9-36.6-65.3-38.3L2.5,283.5V28.1H872v255.4l-230.2-0.2
			c-25.4,2.4-40.3,30.9-27.6,52.4L766.4,597.9L766.4,597.9z"/>
		<path class="st2" d="M471.5,597.7L312.8,321.3c-16.7-25.9-30.9-36.6-65.3-38.3L2,283.2 M2,27.9h869.5 M871.5,283.2L641.3,283
			c-25.4,2.4-40.3,30.9-27.6,52.4l152.2,262.2"/>
		<line class="st3" x1="2.3" y1="5.3" x2="872" y2="5.3"/>
		<path class="st3" d="M872,306.3H647.2c-8.8,0-15.1,10.1-11.4,19.5l157.1,272.1"/>
		<path class="st3" d="M445.5,597.9L299.6,344.4c-17.7-27.2-24.1-38.3-64-38.1H2.3"/>
		<polygon class="st0" points="2.3,149 872,149 872,160.8 206.3,160.8 2.3,160.8 		"/>
		<path class="st0" d="M625.6,597.7H612L412.4,251.5c-49.9-73.6-120.3-90.7-194.7-90.7l18.8-10.3c69.5,0,138.2,22.8,185.3,93.8
			L625.6,597.7L625.6,597.7z"/>
		<path class="st0" d="M661.5,150.5l7.5,10.3c-82.4,0-128.1,14-161.7,51.9c-33.7,37.9-46.5,82.2-0.4,180.9l-6.4,9.4
			c-53.5-107.1-38.1-150.9-1.8-196.5C534.9,160.8,602.5,150.5,661.5,150.5L661.5,150.5z"/>
		<polygon class="st0" points="402.8,227.5 465,153.4 500.5,154.3 420.1,250.2 		"/>
		<polygon class="st0" points="435.2,275 537.5,153.2 603.8,150.5 560.3,169.2 531.6,183.2 501.6,211.5 482,242.3 471.8,274.8 
			478.5,357.1 		"/>
		<polygon class="st0" points="373,199.8 361.6,190.7 393.8,152.5 428.4,154.3 384.1,207.3 		"/>
		<polygon class="st0" points="318.4,171.2 282.5,160.8 318.8,154.1 354.5,155.1 337,175.8 		"/>
		<path class="st4" d="M630.3,554.6c-8.4-10.6-20-25-29.9-41.9c-7.8-13.5-15.6-27.1-23.5-40.8c-9.1-18.5-17.8-32.5-21.4-48.7
			c-0.9-3.1-0.8-11.7,3.9-14.4l34.5-19.9c5.5-3.2,11.2,3,12.8,4.7c11.2,11.8,20.8,25.3,31,42.9l23.8,41.1
			c9.3,16,16.8,33.1,21.5,46.5c1.3,3.8,4,10.1-3.3,14.2l-34.9,20.3C635.3,564.1,633.7,559.1,630.3,554.6L630.3,554.6z"/>
		<path class="st5" d="M587.1,469.9l-11-13.6c13.1-15.4,28.1-23.3,48.7-28.1l6.5,16.2C611.6,450.7,603,455.2,587.1,469.9
			L587.1,469.9z"/>
		<path class="st5" d="M624.6,532.8l-2.2-11.1c13.8-4.9,25.8-11.8,36.3-20.7l8.5,7.2C654.8,518.6,639.9,526.7,624.6,532.8
			L624.6,532.8z"/>
		<line class="st6" x1="612.5" y1="520.3" x2="587.8" y2="477.1"/>
		<line class="st6" x1="661.7" y1="491.9" x2="637" y2="448.7"/>
		<path class="st7" d="M769,120.2c-13.4,2-31.7,4.8-51.2,5c-15.6,0-31.3,0-47.1,0c-20.6-1.4-37-0.8-52.9-5.8
			c-3.1-0.8-10.5-5.2-10.5-10.6V68.9c0-6.4,8.2-8.2,10.5-8.8c15.8-3.8,32.3-5.4,52.7-5.4H718c18.5,0,37,2,51,4.6
			c3.9,0.8,10.7,1.6,10.7,10v40.3C779.7,120.6,774.5,119.4,769,120.2L769,120.2z"/>
		<path class="st5" d="M677.8,115.2l-17.3,2.7c-6.8-19-6.2-36,0-56.2l17.3,2.5C673.5,84.4,673.1,94.1,677.8,115.2L677.8,115.2z"/>
		<path class="st5" d="M751,114.2l-10.7-3.6c2.7-14.3,2.7-28.3,0.2-41.8L751,65C753.9,80.9,753.5,97.8,751,114.2L751,114.2z"/>
		<line class="st6" x1="734.2" y1="118.4" x2="684.4" y2="118.2"/>
		<line class="st6" x1="734.2" y1="61.6" x2="684.4" y2="61.4"/>
		<path class="st8" d="M66.4,193.2c13.4-2,31.7-4.8,51.2-5c15.6,0,31.3,0,47.1,0c20.6,1.4,37,0.8,52.9,5.8
			c3.1,0.8,10.5,5.2,10.5,10.6v39.9c0,6.4-8.2,8.2-10.5,8.8c-15.8,3.8-32.3,5.4-52.7,5.4h-47.5c-18.5,0-37-2-51-4.6
			c-3.9-0.8-10.7-1.6-10.7-10v-40.3C55.7,192.8,60.8,193.9,66.4,193.2L66.4,193.2z"/>
		<path class="st9" d="M161.4,198.1l17.3-2.7c6.8,19,6.2,36,0,56.2l-17.3-2.5C165.7,228.9,166.1,219.2,161.4,198.1L161.4,198.1z"/>
		<path class="st9" d="M88.2,199.1l10.7,3.6c-2.7,14.3-2.7,28.3-0.2,41.8l-10.5,3.8C85.3,232.4,85.7,215.5,88.2,199.1L88.2,199.1z"
			/>
		<line class="st10" x1="105" y1="194.9" x2="154.8" y2="195.1"/>
		<line class="st10" x1="105" y1="251.7" x2="154.8" y2="251.9"/>
		<path class="st11" d="M855.1,118.9h-12.2l-4.9-12.6h-22.2l-4.6,12.6h-11.9L821,63.3h11.9L855.1,118.9L855.1,118.9z M834.4,96.9
			l-7.7-20.6l-7.5,20.6H834.4L834.4,96.9z"/>
		<path class="st11" d="M486.5,481.1h22.2c4.4,0,7.7,0.2,9.8,0.6c2.2,0.4,4.1,1.1,5.8,2.3s3.1,2.7,4.3,4.7c1.1,1.9,1.7,4.1,1.7,6.5
			c0,2.6-0.7,5-2.1,7.2c-1.4,2.2-3.3,3.8-5.7,4.9c3.4,1,6,2.7,7.8,5c1.8,2.4,2.7,5.2,2.7,8.4c0,2.5-0.6,5-1.8,7.4s-2.8,4.3-4.8,5.7
			s-4.5,2.3-7.5,2.6c-1.9,0.2-6.4,0.3-13.5,0.4h-18.9V481.1L486.5,481.1z M497.8,490.4v12.9h7.4c4.4,0,7.1-0.1,8.2-0.2
			c1.9-0.2,3.4-0.9,4.5-2s1.6-2.6,1.6-4.4c0-1.7-0.5-3.1-1.4-4.2c-1-1.1-2.4-1.7-4.2-1.9c-1.1-0.1-4.3-0.2-9.6-0.2L497.8,490.4
			L497.8,490.4z M497.8,512.5v14.9h10.4c4,0,6.6-0.1,7.7-0.3c1.7-0.3,3-1,4.1-2.2s1.6-2.8,1.6-4.7c0-1.7-0.4-3.1-1.2-4.2
			c-0.8-1.2-2-2-3.5-2.6c-1.5-0.5-4.9-0.8-10-0.8h-9.1V512.5z"/>
		<path class="st11" d="M144.9,110.5l10.9,3.4c-1.7,6.1-4.4,10.6-8.3,13.5c-3.9,2.9-8.8,4.4-14.8,4.4c-7.4,0-13.5-2.5-18.2-7.6
			c-4.8-5.1-7.1-12-7.1-20.7c0-9.3,2.4-16.4,7.2-21.6c4.8-5.1,11.1-7.7,18.9-7.7c6.8,0,12.3,2,16.6,6c2.5,2.4,4.4,5.8,5.7,10.2
			l-11.1,2.7c-0.6-2.9-2-5.2-4.1-6.8c-2.1-1.7-4.6-2.5-7.6-2.5c-4.1,0-7.5,1.5-10,4.4c-2.6,3-3.8,7.7-3.8,14.4c0,7,1.3,12,3.8,15
			s5.8,4.5,9.9,4.5c3,0,5.6-0.9,7.7-2.8C142.4,117.6,144,114.6,144.9,110.5L144.9,110.5z"/>
	</g>
</g>
</svg>
