<?xml version="1.0" encoding="utf-8"?>
<!-- Generator: Adobe Illustrator 19.2.0, SVG Export Plug-In . SVG Version: 6.00 Build 0)  -->
<svg version="1.1" id="Livello_1" xmlns="http://www.w3.org/2000/svg" xmlns:xlink="http://www.w3.org/1999/xlink" x="0px" y="0px"
	 viewBox="0 0 876 601" style="enable-background:new 0 0 876 601;" xml:space="preserve">
<style type="text/css">
	.st0{fill:#FFFFFF;}
	.st1{fill:#B9B9B9;}
	.st2{fill:none;stroke:#1A171B;stroke-width:1.404;stroke-miterlimit:2.6131;}
	.st3{fill:none;stroke:#1A171B;stroke-width:4.68;stroke-miterlimit:2.6131;}
	.st4{fill:#E43417;stroke:#1A171B;stroke-width:1.404;stroke-miterlimit:2.6131;}
	.st5{fill:#FFFFFF;stroke:#1A171B;stroke-width:1.404;stroke-miterlimit:2.6131;}
	.st6{fill:none;stroke:#1A171B;stroke-width:1.872;stroke-miterlimit:2.6131;}
	.st7{fill:#FFEC00;stroke:#1A171B;stroke-width:1.404;stroke-miterlimit:2.6131;}
	.st8{fill:#3D3D3F;stroke:#1A171B;stroke-width:1.404;stroke-miterlimit:2.6131;}
	.st9{fill:#FFFFFF;stroke:#FFFFFF;stroke-width:1.404;stroke-miterlimit:2.6131;}
	.st10{fill:none;stroke:#FFFFFF;stroke-width:1.404;stroke-miterlimit:2.6131;}
	.st11{fill:#1A171B;}
</style>
<rect x="2.2" y="5.1" class="st0" width="869.8" height="24.4"/>
<path class="st0" d="M766.4,598.1H445.9L299.1,344.7c-16.7-26-16.9-36.6-51.3-38.3L2.3,306.6v-25.4H872v25.4l-230.2-0.2
	c-5.8,3.3-10.3,12.9,2.4,34.5l149.2,257.3L766.4,598.1L766.4,598.1z"/>
<g>
	<g>
		<path class="st1" d="M766.4,598.1H471.9L313.1,321.7c-16.7-26-30.9-36.6-65.3-38.3L2.3,283.6V28.1H872v255.4l-230.2-0.2
			c-25.4,2.4-40.3,30.9-27.6,52.5L766.4,598.1L766.4,598.1z"/>
		<path class="st2" d="M871.8,283.3l-230.2-0.2c-25.4,2.4-40.3,30.9-27.6,52.4l152.2,262.2 M471.7,597.8L312.8,321.4
			c-16.7-25.9-30.9-36.6-65.3-38.3H2 M2,27.9h869.8"/>
		<line class="st3" x1="2.1" y1="5.3" x2="872" y2="5.3"/>
		<path class="st3" d="M872,306.4H647.1c-8.8,0-15.1,10.1-11.4,19.5l157.2,272.2"/>
		<path class="st3" d="M445.4,598.1L299.5,344.5c-17.7-27.2-24.1-38.3-64-38.1H2.1"/>
		<path class="st0" d="M812.4,160.8V149H872v11.8H812.4L812.4,160.8z M781.5,149v11.8h-59.1V149H781.5L781.5,149z M691.5,149v11.8
			h-59.1V149H691.5L691.5,149z M601.5,149v11.8h-59.1V149H601.5L601.5,149z M511.1,149v11.8h-58.7V149H511.1L511.1,149z M421.1,149
			v11.8h-58.7V149H421.1L421.1,149z M331.1,149v11.8H272V149H331.1L331.1,149z M241.1,149v11.8h-35H182V149H241.1L241.1,149z
			 M151.1,149v11.8H92V149H151.1L151.1,149z M61.1,149v11.8h-59V149H61.1L61.1,149z"/>
		<polygon class="st0" points="543.1,478.8 553.3,472.9 582.9,523.9 572.6,529.8 		"/>
		<polygon class="st0" points="498,400.8 508.2,394.9 537.8,445.9 527.5,451.8 		"/>
		<polygon class="st0" points="453.1,323 463.3,317.1 492.7,367.9 482.4,373.8 		"/>
		<path class="st0" d="M407.7,245.1l9.4-7.2c1.5,2.2,3.1,4.2,4.6,6.4l26.1,45.5l-10.3,5.9l-25.2-44.2
			C410.6,249.5,409.2,247.3,407.7,245.1L407.7,245.1z"/>
		<path class="st0" d="M329.8,167.8l-5.7,11c-16.7-6.8-34.2-11.2-52.1-14.2v-12C291.7,155.3,311.2,160.1,329.8,167.8L329.8,167.8z"
			/>
		<path class="st0" d="M351.7,192.8l5.7-11c14,8.6,27.4,19.3,39.9,32.2l-9.8,7.4C376.2,210,364.2,200.6,351.7,192.8L351.7,192.8z"/>
		<polygon class="st0" points="588,556.7 598.3,550.8 625.6,597.9 612,597.9 		"/>
		<path class="st0" d="M496.4,226.2l-9.2-5.9c3.1-4.6,6.6-9.2,10.3-13.8c7.9-10.1,17.7-18.6,28.5-25.4l5.7,9.9
			c-9,6.1-17.1,13.4-24.5,21.7C503.2,217.1,499.7,221.6,496.4,226.2L496.4,226.2z"/>
		<path class="st0" d="M478.2,307.5l-11.4,2.2c-3.9-24.7-1.3-44.5,5.7-62.2l9.6,6.3C476.9,268.8,475.2,286.3,478.2,307.5
			L478.2,307.5z"/>
		<path class="st0" d="M473.9,339.9l10.9-2c2.8,9,6.1,18.6,10.3,28.9l-9.2,5.3C480.9,360.7,477.1,350,473.9,339.9L473.9,339.9z"/>
		<path class="st0" d="M601.8,154.7l1.7,10.3c-16.7,2.6-31.5,6.3-44.5,11.4l-5.2-9.4C568.9,161.4,585.1,157.5,601.8,154.7
			L601.8,154.7z"/>
		<path class="st4" d="M630.5,555.5c-8.4-10.6-20-25-29.9-41.9c-7.8-13.5-15.6-27.1-23.6-40.8c-9.1-18.5-17.8-32.5-21.4-48.7
			c-0.9-3.1-0.8-11.7,3.9-14.4l34.5-19.9c5.5-3.2,11.2,3,12.8,4.7c11.2,11.8,20.8,25.3,31,42.9l23.8,41.2
			c9.3,16,16.8,33.1,21.5,46.5c1.3,3.8,4,10.1-3.3,14.3L645,559.5C635.5,565,633.9,559.9,630.5,555.5L630.5,555.5z"/>
		<path class="st5" d="M587.2,470.7l-11-13.6c13.1-15.4,28.1-23.3,48.7-28.1l6.5,16.2C611.8,451.6,603.1,456.1,587.2,470.7
			L587.2,470.7z"/>
		<path class="st5" d="M624.7,533.6l-2.2-11.1c13.8-4.9,25.8-11.8,36.4-20.8l8.5,7.2C655,519.5,640.1,527.6,624.7,533.6L624.7,533.6
			z"/>
		<line class="st6" x1="612.7" y1="521.1" x2="587.9" y2="477.9"/>
		<line class="st6" x1="661.9" y1="492.7" x2="637.1" y2="449.5"/>
		<path class="st7" d="M769.2,118.6c-13.4,2-31.7,4.8-51.2,5c-15.6,0-31.3,0-47.1,0c-20.6-1.4-37-0.8-52.9-5.8
			c-3.1-0.8-10.5-5.2-10.5-10.6V67.3c0-6.4,8.2-8.2,10.5-8.8c15.8-3.8,32.3-5.4,52.7-5.4h47.5c18.5,0,37,2,51,4.6
			c3.9,0.8,10.7,1.6,10.7,10V108C779.9,119,774.8,117.8,769.2,118.6L769.2,118.6z"/>
		<path class="st5" d="M678,113.6l-17.3,2.7c-6.8-19-6.2-36,0-56.2l17.3,2.5C673.7,82.8,673.3,92.6,678,113.6L678,113.6z"/>
		<path class="st5" d="M751.2,112.6l-10.7-3.6c2.7-14.4,2.7-28.3,0.2-41.9l10.5-3.8C754.1,79.3,753.7,96.3,751.2,112.6L751.2,112.6z
			"/>
		<line class="st6" x1="734.4" y1="116.8" x2="684.6" y2="116.6"/>
		<line class="st6" x1="734.4" y1="60" x2="684.6" y2="59.8"/>
		<path class="st8" d="M65.8,193c13.4-2,31.7-4.8,51.2-5c15.6,0,31.3,0,47.1,0c20.6,1.4,37,0.8,52.9,5.8c3.1,0.8,10.5,5.2,10.5,10.6
			v39.9c0,6.4-8.2,8.2-10.5,8.8c-15.8,3.8-32.3,5.4-52.7,5.4h-47.5c-18.5,0-37-2-51-4.6c-3.9-0.8-10.7-1.6-10.7-10v-40.3
			C55.1,192.6,60.2,193.8,65.8,193L65.8,193z"/>
		<path class="st9" d="M160.8,198l17.3-2.7c6.8,19,6.2,36,0,56.2l-17.3-2.5C165.1,228.8,165.5,219,160.8,198L160.8,198z"/>
		<path class="st9" d="M87.6,199l10.7,3.6c-2.7,14.4-2.7,28.3-0.2,41.9l-10.5,3.8C84.7,232.3,85.1,215.3,87.6,199L87.6,199z"/>
		<line class="st10" x1="104.4" y1="194.8" x2="154.2" y2="195"/>
		<line class="st10" x1="104.4" y1="251.6" x2="154.2" y2="251.8"/>
		<path class="st11" d="M855.3,117.3h-12.2l-4.9-12.6H816l-4.6,12.6h-11.9l21.7-55.6h11.9L855.3,117.3L855.3,117.3z M834.7,95.3
			L827,74.7l-7.5,20.6H834.7L834.7,95.3z"/>
		<path class="st11" d="M489.2,482.7h22.2c4.4,0,7.7,0.2,9.9,0.6c2.2,0.4,4.1,1.1,5.8,2.3s3.1,2.7,4.3,4.7c1.1,1.9,1.7,4.1,1.7,6.5
			c0,2.6-0.7,5-2.1,7.2c-1.4,2.2-3.3,3.8-5.7,4.9c3.4,1,6,2.7,7.8,5c1.8,2.4,2.7,5.2,2.7,8.4c0,2.5-0.6,5-1.8,7.4s-2.8,4.3-4.8,5.7
			s-4.5,2.3-7.5,2.6c-1.9,0.2-6.4,0.3-13.5,0.4h-18.9v-55.7H489.2z M500.5,492v12.9h7.4c4.4,0,7.1-0.1,8.2-0.2
			c1.9-0.2,3.4-0.9,4.5-2s1.7-2.6,1.7-4.4c0-1.7-0.5-3.1-1.4-4.2c-1-1.1-2.4-1.7-4.2-1.9c-1.1-0.1-4.3-0.2-9.6-0.2L500.5,492
			L500.5,492z M500.5,514.1V529h10.4c4.1,0,6.6-0.1,7.7-0.3c1.7-0.3,3-1,4.1-2.2c1-1.2,1.6-2.8,1.6-4.7c0-1.7-0.4-3.1-1.2-4.2
			c-0.8-1.2-2-2-3.5-2.6c-1.5-0.5-4.9-0.8-10-0.8h-9.1V514.1z"/>
		<path class="st11" d="M144.3,110.3l10.9,3.4c-1.7,6.1-4.4,10.6-8.3,13.5c-3.9,2.9-8.8,4.4-14.8,4.4c-7.4,0-13.5-2.5-18.2-7.6
			c-4.8-5.1-7.1-12-7.1-20.7c0-9.3,2.4-16.4,7.2-21.6c4.8-5.1,11.1-7.7,18.9-7.7c6.8,0,12.3,2,16.6,6c2.5,2.4,4.4,5.8,5.7,10.2
			l-11.1,2.7c-0.6-2.9-2-5.2-4.1-6.8c-2.1-1.7-4.6-2.5-7.6-2.5c-4.1,0-7.5,1.5-10,4.4c-2.6,3-3.8,7.7-3.8,14.4c0,7,1.3,12,3.8,15
			s5.8,4.5,9.9,4.5c3,0,5.6-0.9,7.7-2.9C141.8,117.4,143.4,114.4,144.3,110.3L144.3,110.3z"/>
	</g>
</g>
</svg>
