<?xml version="1.0" encoding="utf-8"?>
<!-- Generator: Adobe Illustrator 19.2.0, SVG Export Plug-In . SVG Version: 6.00 Build 0)  -->
<svg version="1.1" id="Livello_1" xmlns="http://www.w3.org/2000/svg" xmlns:xlink="http://www.w3.org/1999/xlink" x="0px" y="0px"
	 viewBox="0 0 960 960" style="enable-background:new 0 0 960 960;" xml:space="preserve">
<style type="text/css">
	.st0{fill-rule:evenodd;clip-rule:evenodd;fill:#FFFFFF;}
	.st1{fill-rule:evenodd;clip-rule:evenodd;fill:#CECFD1;}
	.st2{fill:none;stroke:#1A171B;stroke-width:1.3197;stroke-miterlimit:2.6131;}
	.st3{fill:none;stroke:#1A171B;stroke-width:4.399;stroke-miterlimit:2.6131;}
	.st4{fill-rule:evenodd;clip-rule:evenodd;fill:#E43417;stroke:#1A171B;stroke-width:1.3197;stroke-miterlimit:2.6131;}
	.st5{fill-rule:evenodd;clip-rule:evenodd;fill:#FFFFFF;stroke:#1A171B;stroke-width:1.3197;stroke-miterlimit:2.6131;}
	.st6{fill:none;stroke:#1A171B;stroke-width:1.7596;stroke-miterlimit:2.6131;}
	.st7{fill-rule:evenodd;clip-rule:evenodd;fill:#00A7DC;stroke:#1A171B;stroke-width:1.3197;stroke-miterlimit:2.6131;}
	.st8{fill-rule:evenodd;clip-rule:evenodd;fill:#3D3D3F;stroke:#1A171B;stroke-width:1.3197;stroke-miterlimit:2.6131;}
	.st9{fill:none;stroke:#FFFFFF;stroke-width:1.7596;stroke-miterlimit:2.6131;}
	.st10{fill-rule:evenodd;clip-rule:evenodd;fill:#1A171B;}
</style>
<polygon class="st0" points="165.4,194.5 506.3,194.5 506.3,422 915,422 915,464.7 45,464.7 45,422 165.4,422 165.4,194.5 "/>
<rect x="45" y="721.6" class="st0" width="870" height="43"/>
<g>
	<g>
		<path class="st1" d="M205.7,194.5h259.7v238.1c0,20.8,9.1,30.2,29.9,30.2H915v258.9H45V462.8h130.5c20.6,0,30-9.2,30.1-30.2
			L205.7,194.5L205.7,194.5z"/>
		<path class="st2" d="M465.3,194.5l0.2,238.1c0,20.8,9.1,30.2,30,30.2h419.4 M915,721.6H45 M45,462.8h130.4
			c20.6,0,30-9.2,30.1-30.2l0.1-238.2"/>
		<path class="st3" d="M506.2,194.5v227.6h408.5 M915,765.6H45 M45,422.1h120.4V194.5"/>
		<path class="st4" d="M285.8,306.4c1.6,11,3.9,26.1,4.1,42.2c0,12.9,0,25.7,0,38.8c-1.1,16.9-0.7,30.5-4.8,43.5
			c-0.7,2.5-4.3,8.6-8.7,8.6h-32.8c-5.3,0-6.7-6.8-7.2-8.6c-3.1-13-4.4-26.6-4.4-43.4v-39.1c0-15.2,1.6-30.5,3.8-42
			c0.7-3.2,1.3-8.8,8.2-8.8h33.1C286.1,297.6,285.1,301.8,285.8,306.4L285.8,306.4z"/>
		<path class="st5" d="M281.7,384.6l2.2,14.2c-15.7,5.6-29.6,5.1-46.3,0l2-14.2C256.3,388.2,264.3,388.5,281.7,384.6L281.7,384.6z"
			/>
		<path class="st5" d="M280.8,324.3l-3,8.8c-11.8-2.2-23.3-2.2-34.5-0.2l-3.1-8.6C253.4,321.9,267.4,322.3,280.8,324.3L280.8,324.3z
			"/>
		<line class="st6" x1="284.3" y1="338.2" x2="284.1" y2="379.2"/>
		<line class="st6" x1="237.5" y1="338.2" x2="237.3" y2="379.2"/>
		<path class="st7" d="M875.5,522.6c-11,1.6-26.1,3.9-42.2,4.1c-12.9,0-25.7,0-38.8,0c-16.9-1.1-30.5-0.7-43.5-4.8
			c-2.5-0.7-8.6-4.3-8.6-8.7v-32.8c0-5.3,6.8-6.7,8.6-7.2c13-3.1,26.6-4.4,43.3-4.4h39.1c15.2,0,30.5,1.6,42,3.8
			c3.2,0.7,8.8,1.3,8.8,8.2v33.1C884.3,522.9,880.1,521.9,875.5,522.6L875.5,522.6z"/>
		<path class="st5" d="M797.3,518.5l-14.2,2.2c-5.6-15.7-5.1-29.6,0-46.3l14.2,2C793.7,493.2,793.4,501.2,797.3,518.5L797.3,518.5z"
			/>
		<path class="st5" d="M857.6,517.7l-8.8-3c2.2-11.8,2.2-23.3,0.2-34.5l8.6-3.1C859.9,490.3,859.6,504.2,857.6,517.7L857.6,517.7z"
			/>
		<line class="st6" x1="843.7" y1="521.1" x2="802.7" y2="521"/>
		<line class="st6" x1="843.7" y1="474.4" x2="802.7" y2="474.2"/>
		<polygon class="st0" points="211.5,214.5 226.9,214.5 226.9,288.2 211.5,288.2 211.5,214.5 		"/>
		<polygon class="st0" points="240.9,214.5 256.3,214.5 256.3,288.2 240.9,288.2 240.9,214.5 		"/>
		<polygon class="st0" points="270.3,214.5 285.7,214.5 285.7,288.2 270.3,288.2 270.3,214.5 		"/>
		<polygon class="st0" points="299.5,214.5 314.9,214.5 314.9,288.2 299.5,288.2 299.5,214.5 		"/>
		<polygon class="st0" points="328.9,214.5 344.3,214.5 344.3,288.2 328.9,288.2 328.9,214.5 		"/>
		<polygon class="st0" points="358.3,214.5 373.6,214.5 373.6,288.2 358.3,288.2 358.3,214.5 		"/>
		<polygon class="st0" points="387.5,214.5 402.8,214.5 402.8,288.2 387.5,288.2 387.5,214.5 		"/>
		<polygon class="st0" points="416.7,214.5 432,214.5 432,288.2 416.7,288.2 416.7,214.5 		"/>
		<polygon class="st0" points="446,214.5 461.4,214.5 461.4,288.2 446,288.2 446,214.5 		"/>
		<polygon class="st0" points="161.8,466.8 161.8,482.1 88.1,482.1 88.1,466.8 161.8,466.8 		"/>
		<polygon class="st0" points="161.8,496.1 161.8,511.4 88.1,511.4 88.1,496.1 161.8,496.1 		"/>
		<polygon class="st0" points="161.8,525.4 161.8,540.7 88.1,540.7 88.1,525.4 161.8,525.4 		"/>
		<polygon class="st0" points="161.8,554.5 161.8,569.9 88.1,569.9 88.1,554.5 161.8,554.5 		"/>
		<polygon class="st0" points="161.8,583.8 161.8,599.2 88.1,599.2 88.1,583.8 161.8,583.8 		"/>
		<polygon class="st0" points="161.8,613.1 161.8,628.5 88.1,628.5 88.1,613.1 161.8,613.1 		"/>
		<polygon class="st0" points="161.8,642.3 161.8,657.6 88.1,657.6 88.1,642.3 161.8,642.3 		"/>
		<polygon class="st0" points="161.8,671.4 161.8,686.7 88.1,686.7 88.1,671.4 161.8,671.4 		"/>
		<polygon class="st0" points="161.8,700.7 161.8,716.1 88.1,716.1 88.1,700.7 161.8,700.7 		"/>
		<path class="st8" d="M129.3,654.4c11-1.6,26.1-3.9,42.2-4.1c12.9,0,25.7,0,38.8,0c16.9,1.1,30.5,0.7,43.5,4.8
			c2.5,0.7,8.6,4.3,8.6,8.7v32.8c0,5.3-6.8,6.7-8.6,7.2c-13,3.1-26.6,4.4-43.4,4.4h-39.1c-15.2,0-30.5-1.6-42-3.8
			c-3.2-0.7-8.8-1.3-8.8-8.2v-33.1C120.5,654,124.8,655,129.3,654.4L129.3,654.4z"/>
		<path class="st5" d="M207.6,658.5l14.2-2.2c5.6,15.7,5.1,29.6,0,46.3l-14.2-2C211.1,683.8,211.5,675.8,207.6,658.5L207.6,658.5z"
			/>
		<path class="st5" d="M147.3,659.3l8.8,2.9c-2.2,11.8-2.2,23.3-0.2,34.5l-8.6,3.1C144.9,686.7,145.3,672.8,147.3,659.3L147.3,659.3
			z"/>
		<line class="st9" x1="161.2" y1="655.9" x2="202.2" y2="656"/>
		<line class="st9" x1="161.2" y1="702.6" x2="202.2" y2="702.8"/>
		<path class="st10" d="M333.7,367.2v-8.8h22.8v20.8c-2.2,2.1-5.4,4-9.6,5.7c-4.2,1.6-8.4,2.4-12.7,2.4c-5.5,0-10.2-1.1-14.3-3.4
			c-4.1-2.3-7.1-5.6-9.2-9.8c-2-4.3-3.1-8.9-3.1-13.9c0-5.4,1.1-10.3,3.4-14.5c2.3-4.2,5.6-7.5,10-9.7c3.3-1.7,7.5-2.6,12.5-2.6
			c6.5,0,11.6,1.4,15.2,4.1c3.7,2.7,6,6.5,7,11.3l-10.5,2c-0.7-2.6-2.1-4.6-4.2-6.1c-2-1.5-4.6-2.2-7.6-2.2c-4.6,0-8.3,1.5-11,4.4
			c-2.7,2.9-4.1,7.3-4.1,13c0,6.2,1.4,10.9,4.1,14c2.8,3.1,6.4,4.7,10.8,4.7c2.2,0,4.4-0.4,6.7-1.3c2.2-0.9,4.1-1.9,5.7-3.2v-6.6
			H333.7L333.7,367.2z"/>
		<path class="st10" d="M847.9,595.1h-11.5l-4.6-11.9h-20.9l-4.3,11.9h-11.2l20.4-52.3H827L847.9,595.1L847.9,595.1z M828.4,574.4
			l-7.2-19.4l-7.1,19.4H828.4L828.4,574.4z"/>
		<polygon class="st10" points="185.2,637.3 185.2,585 195.8,585 195.8,605.5 216.5,605.5 216.5,585 227,585 227,637.3 216.5,637.3 
			216.5,614.4 195.8,614.4 195.8,637.3 185.2,637.3 		"/>
	</g>
</g>
</svg>
