<?xml version="1.0" encoding="utf-8"?>
<!-- Generator: Adobe Illustrator 19.2.0, SVG Export Plug-In . SVG Version: 6.00 Build 0)  -->
<svg version="1.1" id="Livello_1" xmlns="http://www.w3.org/2000/svg" xmlns:xlink="http://www.w3.org/1999/xlink" x="0px" y="0px"
	 viewBox="0 0 960 960" style="enable-background:new 0 0 960 960;" xml:space="preserve">
<style type="text/css">
	.st0{fill-rule:evenodd;clip-rule:evenodd;fill:#1A171B;}
	.st1{fill-rule:evenodd;clip-rule:evenodd;fill:#FFFFFF;}
	.st2{fill-rule:evenodd;clip-rule:evenodd;fill:#CECFD1;}
	.st3{fill:none;stroke:#1A171B;stroke-width:3.99;stroke-linecap:square;stroke-miterlimit:2.6131;}
	.st4{fill:none;stroke:#1A171B;stroke-width:1.197;stroke-linecap:square;stroke-miterlimit:2.6131;}
	.st5{fill-rule:evenodd;clip-rule:evenodd;fill:#00A6E2;stroke:#1A171B;stroke-width:1.197;stroke-miterlimit:2.6131;}
	.st6{fill-rule:evenodd;clip-rule:evenodd;fill:#FFFFFF;stroke:#1A171B;stroke-width:1.197;stroke-miterlimit:2.6131;}
	.st7{fill:none;stroke:#1A171B;stroke-width:1.596;stroke-miterlimit:2.6131;}
	.st8{fill-rule:evenodd;clip-rule:evenodd;fill:#E43417;stroke:#1A171B;stroke-width:1.197;stroke-miterlimit:2.6131;}
	.st9{fill-rule:evenodd;clip-rule:evenodd;fill:#049853;stroke:#1A171B;stroke-width:1.197;stroke-miterlimit:2.6131;}
	.st10{fill-rule:evenodd;clip-rule:evenodd;fill:#1A171B;stroke:#1A171B;stroke-width:1.197;stroke-miterlimit:2.6131;}
	
		.st11{fill:none;stroke:#1A171B;stroke-width:3.99;stroke-linecap:square;stroke-miterlimit:2.6131;stroke-dasharray:19.9501,19.9501;}
</style>
<g>
	<g>
		<polygon class="st0" points="591.3,840 591.3,795.9 600.2,795.9 600.2,840 591.3,840 		"/>
		<polygon class="st1" points="730.9,787.6 464,787.6 389.1,505.1 51.2,505.2 51.2,216.7 328.8,216.7 328.8,120.7 588.4,120.7 
			588.3,216.7 908.6,216.7 908.8,505.1 656.1,505.1 730.9,787.6 		"/>
		<path class="st2" d="M712.3,787.6H482.2l-73.8-278.1c-5.4-15.9-10.3-20.7-28.9-21.7l-328.2-0.1V233.6h271.8
			c17.4,0,23.1-5.7,23.1-23.2v-89.6h224.7v89.6c0,17.5,5,23.2,22.4,23.2h315.4v254.1H655.1c-15.1,0.3-19.5,8.7-16.9,20.5
			L712.3,787.6L712.3,787.6z"/>
		<path class="st3" d="M588.3,120.7v96l320.3-0.1 M908.8,505.2H656.1l74.9,282.4 M464,787.6l-74.9-282.4H51.2 M51.2,216.7h277.5
			l-0.1-96"/>
		<polygon class="st1" points="647.9,523.9 642.7,505.3 404.6,505.4 409.5,523.7 647.9,523.9 		"/>
		<polygon class="st1" points="567.9,506.6 641.3,787.6 634.1,787.6 560.5,506.6 567.9,506.6 		"/>
		<polygon class="st1" points="487.2,506.6 560.6,787.6 553.4,787.6 479.8,506.6 487.2,506.6 		"/>
		<polygon class="st1" points="398.3,216.7 398.3,120.8 391.4,120.8 391.4,216.7 398.3,216.7 		"/>
		<polygon class="st1" points="450.3,216.7 450.3,120.8 443.3,120.8 443.3,216.7 450.3,216.7 		"/>
		<polygon class="st1" points="462.3,216.7 462.3,120.8 455.3,120.8 455.3,216.7 462.3,216.7 		"/>
		<polygon class="st1" points="462.1,197.7 462.1,216.7 341,216.7 341,197.7 462.1,197.7 		"/>
		<polygon class="st1" points="587.7,273 816.4,273 816.4,266 587.7,266 587.7,273 		"/>
		<polygon class="st1" points="848.7,273 891.6,273 891.6,266 848.7,266 848.7,273 		"/>
		<polygon class="st1" points="587.7,312.5 816.4,312.5 816.4,305.6 587.7,305.6 587.7,312.5 		"/>
		<polygon class="st1" points="848.7,312.5 891.6,312.5 891.6,305.6 848.7,305.6 848.7,312.5 		"/>
		<polygon class="st1" points="587.7,351.7 816.4,351.7 816.4,344.8 587.7,344.8 587.7,351.7 		"/>
		<polygon class="st1" points="587.7,363.7 908.8,363.7 908.8,356.7 587.7,356.7 587.7,363.7 		"/>
		<polygon class="st1" points="606.7,363.5 587.7,363.5 587.7,233.6 606.7,233.6 606.7,363.5 		"/>
		<polygon class="st1" points="116.8,447.9 73.8,447.9 73.9,454.9 116.8,454.9 116.8,447.9 		"/>
		<polygon class="st1" points="116.6,408.4 73.7,408.4 73.7,415.4 116.6,415.4 116.6,408.4 		"/>
		<polygon class="st1" points="332.1,357.4 351.1,357.4 385.9,488.8 366.9,488.8 332.1,357.4 		"/>
		<polygon class="st1" points="374.8,447.9 149.1,447.9 149.1,454.9 376.6,454.9 374.8,447.9 		"/>
		<polygon class="st1" points="364.4,408.4 149.1,408.4 149.1,415.4 366.3,415.4 364.4,408.4 		"/>
		<polygon class="st1" points="354.2,369.2 149.1,369.2 149.1,376.2 356,376.2 354.2,369.2 		"/>
		<polygon class="st1" points="351,357.2 51.2,357.2 51.2,364.2 352.9,364.2 351,357.2 		"/>
		<path class="st4" d="M570.9,120.7v89.6c0,17.5,5,23.2,22.4,23.2l315.4-0.1 M908.8,487.7H655.1c-15.1,0.3-19.5,8.7-16.9,20.5
			L713,787.6 M482.2,787.6l-73.8-278.1c-5.4-15.9-10.3-20.7-28.9-21.7l-328.2-0.1 M51.2,233.6h271.8c17.4,0,23.1-5.7,23.1-23.2V120"
			/>
		<path class="st5" d="M491.1,758.9c-3.4-7.9-8.1-18.6-11.5-30.6c-2.6-9.6-5.1-19.2-7.7-28.9c-2.5-12.9-5.6-22.8-5.1-33.4
			c0-2,1.5-7.3,4.8-8.2l24.5-6.6c3.9-1,6.4,3.7,7.1,5c4.9,9.1,8.6,18.9,12,31.4l7.8,29.2c3,11.4,4.9,23,5.6,32.1
			c0.2,2.5,0.8,6.8-4.4,8.2l-24.7,6.6C492.6,765.5,492.5,762.2,491.1,758.9L491.1,758.9z"/>
		<path class="st6" d="M478.5,699.8l-4.5-10.2c10.6-7.3,21.1-9.7,34.5-9.2l1.3,11C496.7,692.1,490.7,693.4,478.5,699.8L478.5,699.8z
			"/>
		<path class="st6" d="M491.2,744.5l0.4-7.2c9.2-0.7,17.8-3,25.7-6.8l4,5.8C512.1,740.8,501.6,743.4,491.2,744.5L491.2,744.5z"/>
		<line class="st7" x1="485.9" y1="734.9" x2="477.8" y2="704.3"/>
		<line class="st7" x1="520.7" y1="725.5" x2="512.6" y2="695"/>
		<path class="st8" d="M650,758.9c-3.4-7.9-8.1-18.6-11.5-30.6c-2.6-9.6-5.1-19.2-7.7-28.9c-2.5-12.9-5.6-22.8-5.1-33.4
			c0-2,1.5-7.3,4.8-8.2l24.5-6.6c3.9-1,6.4,3.7,7.1,5c4.9,9.1,8.6,18.9,12,31.4l7.8,29.2c3,11.4,4.9,23,5.6,32.1
			c0.2,2.5,0.8,6.8-4.4,8.2l-24.7,6.6C651.5,765.5,651.4,762.2,650,758.9L650,758.9z"/>
		<path class="st6" d="M637.4,699.8l-4.5-10.2c10.6-7.3,21.1-9.7,34.5-9.2l1.3,11C655.6,692.1,649.6,693.4,637.4,699.8L637.4,699.8z
			"/>
		<path class="st6" d="M650.1,744.5l0.4-7.2c9.2-0.7,17.8-3,25.7-6.8l4,5.8C671,740.8,660.5,743.4,650.1,744.5L650.1,744.5z"/>
		<line class="st7" x1="644.7" y1="734.9" x2="636.7" y2="704.3"/>
		<line class="st7" x1="679.6" y1="725.5" x2="671.5" y2="695"/>
		<path class="st9" d="M570.7,758.9c-3.4-7.9-8.1-18.6-11.5-30.6c-2.6-9.6-5.1-19.2-7.7-28.9c-2.5-12.9-5.6-22.8-5.1-33.4
			c0-2,1.5-7.3,4.8-8.2l24.5-6.6c3.9-1,6.4,3.7,7.1,5c4.9,9.1,8.6,18.9,12,31.4l7.8,29.2c3,11.4,4.9,23,5.6,32.1
			c0.2,2.5,0.8,6.8-4.4,8.2l-24.7,6.6C572.2,765.5,572.1,762.2,570.7,758.9L570.7,758.9z"/>
		<path class="st6" d="M558.1,699.8l-4.5-10.2c10.6-7.3,21.1-9.7,34.5-9.2l1.3,11C576.3,692.1,570.3,693.4,558.1,699.8L558.1,699.8z
			"/>
		<path class="st6" d="M570.8,744.5l0.4-7.2c9.2-0.7,17.8-3,25.7-6.8l4.1,5.8C591.7,740.8,581.2,743.4,570.8,744.5L570.8,744.5z"/>
		<line class="st7" x1="565.4" y1="734.9" x2="557.4" y2="704.3"/>
		<line class="st7" x1="600.3" y1="725.5" x2="592.2" y2="695"/>
		<polygon class="st10" points="651.7,445.2 623,451.7 623,438.7 651.7,445.2 		"/>
		<polygon class="st10" points="306.7,273 334.5,282.6 335.9,269.7 306.7,273 		"/>
		<path class="st11" d="M479.9,640.3c-15.6-93.1-68.7-201.1,141.9-194.6"/>
		<path class="st11" d="M639.9,642.1C615.8,553.3,538.5,285,336.4,276.8"/>
		<polygon class="st10" points="518.4,155.4 522.6,183.5 510.1,182.6 518.4,155.4 		"/>
		<path class="st11" d="M558.7,638c-35.2-112.5-53.7-236.8-41.7-461.6"/>
		<polygon class="st0" points="725.8,723.5 725.8,679.5 734.7,679.5 734.7,696.8 752.1,696.8 752.1,679.5 761,679.5 761,723.5 
			752.1,723.5 752.1,704.3 734.7,704.3 734.7,723.5 725.8,723.5 		"/>
		<path class="st0" d="M385.3,679.5H403c3.5,0,6.1,0.1,7.8,0.4c1.7,0.3,3.2,0.9,4.6,1.8c1.4,0.9,2.5,2.1,3.4,3.7
			c0.9,1.5,1.4,3.3,1.4,5.1c0,2.1-0.6,4-1.7,5.7c-1.1,1.7-2.6,3-4.5,3.9c2.7,0.8,4.7,2.1,6.2,4c1.4,1.9,2.2,4.1,2.2,6.6
			c0,2-0.5,4-1.4,5.9c-0.9,1.9-2.2,3.4-3.8,4.5c-1.6,1.1-3.6,1.8-6,2.1c-1.5,0.2-5.1,0.3-10.7,0.3h-15V679.5L385.3,679.5z
			 M394.2,686.8V697h5.8c3.5,0,5.6,0,6.5-0.2c1.5-0.2,2.7-0.7,3.6-1.6c0.9-0.9,1.3-2,1.3-3.5c0-1.4-0.4-2.5-1.1-3.3
			c-0.8-0.9-1.9-1.4-3.4-1.5c-0.9-0.1-3.4-0.2-7.6-0.2H394.2L394.2,686.8z M394.2,704.3v11.8h8.2c3.2,0,5.2-0.1,6.1-0.3
			c1.3-0.2,2.4-0.8,3.2-1.8c0.8-0.9,1.3-2.2,1.3-3.7c0-1.3-0.3-2.4-1-3.4c-0.6-0.9-1.6-1.6-2.8-2c-1.2-0.4-3.8-0.6-7.9-0.6H394.2
			L394.2,704.3z"/>
	</g>
</g>
</svg>
