<?xml version="1.0" encoding="utf-8"?>
<!-- Generator: Adobe Illustrator 19.2.0, SVG Export Plug-In . SVG Version: 6.00 Build 0)  -->
<svg version="1.1" id="Livello_1" xmlns="http://www.w3.org/2000/svg" xmlns:xlink="http://www.w3.org/1999/xlink" x="0px" y="0px"
	 viewBox="0 0 960 960" style="enable-background:new 0 0 960 960;" xml:space="preserve">
<style type="text/css">
	.st0{fill-rule:evenodd;clip-rule:evenodd;fill:#FFFFFF;}
	.st1{fill-rule:evenodd;clip-rule:evenodd;fill:#CECFD1;}
	.st2{fill:none;stroke:#1A171B;stroke-width:4.9465;stroke-linecap:square;stroke-miterlimit:2.6131;}
	.st3{fill:none;stroke:#1A171B;stroke-width:1.484;stroke-linecap:square;stroke-miterlimit:2.6131;}
	.st4{fill-rule:evenodd;clip-rule:evenodd;fill:#1A171B;stroke:#1A171B;stroke-width:1.484;stroke-miterlimit:2.6131;}
	
		.st5{fill:none;stroke:#1A171B;stroke-width:4.9465;stroke-linecap:square;stroke-miterlimit:2.6131;stroke-dasharray:24.7325,24.7325;}
	.st6{fill-rule:evenodd;clip-rule:evenodd;fill:#3D3D3F;stroke:#1A171B;stroke-width:1.484;stroke-miterlimit:2.6131;}
	.st7{fill-rule:evenodd;clip-rule:evenodd;fill:#FFFFFF;stroke:#1A171B;stroke-width:1.484;stroke-miterlimit:2.6131;}
	.st8{fill:none;stroke:#FFFFFF;stroke-width:1.9786;stroke-miterlimit:2.6131;}
	.st9{fill-rule:evenodd;clip-rule:evenodd;fill:#E43417;stroke:#1A171B;stroke-width:1.484;stroke-miterlimit:2.6131;}
	.st10{fill:none;stroke:#1A171B;stroke-width:1.9786;stroke-miterlimit:2.6131;}
	.st11{fill-rule:evenodd;clip-rule:evenodd;fill:#1A171B;}
</style>
<g>
	<g>
		<polygon class="st0" points="287.1,284 45,284 45,675.5 287.1,675.5 287.1,789.5 672.4,789.5 672.4,675.5 914.9,675.5 914.9,284 
			672.4,284 672.4,170.5 287.1,170.5 287.1,284 		"/>
		<path class="st1" d="M314,274.8c0,27.6-8.3,37-35.7,36.9L45,311.6v336.3h233.3c26.8,0,35.7,9.2,35.7,36.8v104.9h330.9V684.7
			c0-27.6,9.8-36.8,36.4-36.8H915V311.6l-233.7,0.1c-27.5,0-36.4-9.6-36.4-36.9V170.5H314V274.8L314,274.8z"/>
		<path class="st2" d="M45,675.5h242.1v114.1 M672.3,789.5V675.5h242.5 M914.8,284H672.3V170.5 M287.1,170.5V284H45"/>
		<path class="st3" d="M314,170.5v104.3c0,27.6-7.6,36.8-35,36.7L45,311.6 M45,647.9h233.3c26.8,0,35.7,9.2,35.7,36.8v104.9
			 M644.9,789.5V684.7c0-27.6,9.8-36.8,36.4-36.8h233.6 M915,312.9l-233.7-1.2c-27.5,0-36.4-9.6-36.4-36.9V170.5"/>
		<path class="st0" d="M479.8,460.8c10.4,0,19,8.5,19,19c0,10.4-8.5,19-19,19c-10.4,0-19-8.5-19-19
			C460.9,469.3,469.4,460.8,479.8,460.8L479.8,460.8z"/>
		<polygon class="st4" points="675.9,589.2 631.6,599.2 631.6,579.1 675.9,589.2 		"/>
		<polygon class="st4" points="281.8,370.7 326.4,360.6 326.4,380.8 281.8,370.7 		"/>
		<path class="st5" d="M369.4,177l-0.7,195.9c-0.6,158.8,56.9,215.9,264.8,215.9"/>
		<path class="st5" d="M588.4,782.9l-0.6-194.6c-0.4-144.4-46.5-218.5-262.2-217.2"/>
		<path class="st6" d="M254.4,403.2c-13.9,2.1-32.9,5-53.2,5.2c-16.2,0-32.5,0-48.9,0c-21.4-1.4-38.4-0.8-54.9-6
			c-3.2-0.8-10.9-5.4-10.9-11v-41.4c0-6.6,8.5-8.5,10.9-9.1c16.4-3.9,33.5-5.6,54.7-5.6h49.3c19.2,0,38.4,2.1,53,4.8
			c4.1,0.8,11.1,1.7,11.1,10.3v41.8C265.5,403.6,260.2,402.4,254.4,403.2L254.4,403.2z"/>
		<path class="st7" d="M155.8,398.1l-17.9,2.8c-7-19.7-6.4-37.3,0-58.4l17.9,2.6C151.3,366.1,150.9,376.2,155.8,398.1L155.8,398.1z"
			/>
		<path class="st7" d="M231.8,397l-11.1-3.7c2.8-14.9,2.8-29.4,0.2-43.4l10.9-3.9C234.8,362.5,234.4,380.1,231.8,397L231.8,397z"/>
		<line class="st8" x1="214.3" y1="401.4" x2="162.6" y2="401.2"/>
		<line class="st8" x1="214.3" y1="342.4" x2="162.6" y2="342.2"/>
		<path class="st9" d="M711.2,557.4c13.9-2.1,32.9-5,53.2-5.2c16.2,0,32.5,0,48.9,0c21.4,1.4,38.4,0.8,54.9,6
			c3.2,0.8,10.9,5.4,10.9,11v41.4c0,6.6-8.5,8.5-10.9,9.1c-16.4,3.9-33.5,5.6-54.7,5.6h-49.3c-19.2,0-38.4-2.1-53-4.8
			c-4.1-0.8-11.1-1.7-11.1-10.3v-41.8C700.1,556.9,705.4,558.2,711.2,557.4L711.2,557.4z"/>
		<path class="st7" d="M809.8,562.5l17.9-2.8c7,19.7,6.4,37.3,0,58.4l-17.9-2.6C814.3,594.5,814.8,584.4,809.8,562.5L809.8,562.5z"
			/>
		<path class="st7" d="M733.8,563.6l11.1,3.7c-2.8,14.9-2.8,29.4-0.2,43.4l-10.9,3.9C730.8,598.1,731.3,580.5,733.8,563.6
			L733.8,563.6z"/>
		<line class="st10" x1="751.3" y1="559.2" x2="803" y2="559.4"/>
		<line class="st10" x1="751.3" y1="618.2" x2="803" y2="618.4"/>
		<path class="st11" d="M217.4,493.9h-12.9l-5.1-13.4h-23.5l-4.8,13.4h-12.6l22.9-58.8h12.6L217.4,493.9L217.4,493.9z M195.5,470.7
			l-8.1-21.8l-7.9,21.8H195.5L195.5,470.7z"/>
		<path class="st11" d="M774.7,507.6v-9.9h25.6v23.4c-2.5,2.4-6.1,4.5-10.8,6.4c-4.7,1.8-9.5,2.7-14.3,2.7c-6.1,0-11.5-1.3-16.1-3.9
			c-4.6-2.6-8-6.3-10.3-11.1c-2.3-4.8-3.4-10-3.4-15.7c0-6.1,1.3-11.6,3.8-16.3c2.6-4.8,6.3-8.4,11.3-10.9c3.8-2,8.5-2.9,14.1-2.9
			c7.3,0,13,1.5,17.1,4.6c4.1,3.1,6.7,7.3,7.9,12.7l-11.8,2.2c-0.8-2.9-2.4-5.2-4.7-6.8c-2.3-1.7-5.1-2.5-8.6-2.5
			c-5.2,0-9.3,1.6-12.4,4.9c-3.1,3.3-4.6,8.2-4.6,14.6c0,7,1.5,12.2,4.7,15.7c3.1,3.5,7.2,5.2,12.2,5.2c2.5,0,5-0.5,7.5-1.5
			c2.5-1,4.6-2.2,6.4-3.5v-7.5H774.7L774.7,507.6z"/>
	</g>
</g>
</svg>
