<?xml version="1.0" encoding="utf-8"?>
<!-- Generator: Adobe Illustrator 19.2.0, SVG Export Plug-In . SVG Version: 6.00 Build 0)  -->
<svg version="1.1" id="Livello_1" xmlns="http://www.w3.org/2000/svg" xmlns:xlink="http://www.w3.org/1999/xlink" x="0px" y="0px"
	 viewBox="0 0 882.3 629.8" style="enable-background:new 0 0 882.3 629.8;" xml:space="preserve">
<style type="text/css">
	.st0{fill:#FFFFFF;}
	.st1{fill:#B9B9B9;}
	.st2{fill:none;stroke:#1A171B;stroke-width:4.9465;stroke-linecap:square;stroke-miterlimit:2.6131;}
	.st3{fill:none;stroke:#1A171B;stroke-width:1.484;stroke-linecap:square;stroke-miterlimit:2.6131;}
	.st4{fill:#1A171B;stroke:#1A171B;stroke-width:1.484;stroke-miterlimit:2.6131;}
	
		.st5{fill:none;stroke:#1A171B;stroke-width:4.9465;stroke-linecap:square;stroke-miterlimit:2.6131;stroke-dasharray:24.7325,24.7325;}
	.st6{fill:#3D3D3F;stroke:#1A171B;stroke-width:1.484;stroke-miterlimit:2.6131;}
	.st7{fill:#FFFFFF;stroke:#1A171B;stroke-width:1.484;stroke-miterlimit:2.6131;}
	.st8{fill:none;stroke:#FFFFFF;stroke-width:1.9786;stroke-miterlimit:2.6131;}
	.st9{fill:#E43417;stroke:#1A171B;stroke-width:1.484;stroke-miterlimit:2.6131;}
	.st10{fill:none;stroke:#1A171B;stroke-width:1.9786;stroke-miterlimit:2.6131;}
	.st11{fill:#1A171B;}
</style>
<g>
	<g>
		<polygon class="st0" points="248.4,118.9 6.3,118.9 6.3,510.4 248.4,510.4 248.4,624.4 633.7,624.4 633.7,510.4 876.2,510.4 
			876.2,118.9 633.7,118.9 633.7,5.4 248.4,5.4 		"/>
		<path class="st1" d="M275.3,109.7c0,27.6-8.3,37-35.7,36.9L6.3,146.5v336.2h233.3c26.8,0,35.7,9.2,35.7,36.8v104.9h330.9V519.6
			c0-27.6,9.8-36.8,36.4-36.8h233.7V146.5l-233.7,0.1c-27.5,0-36.4-9.6-36.4-36.9V5.4H275.3V109.7L275.3,109.7z"/>
		<path class="st2" d="M6.3,510.4h242.1v114.1 M633.6,624.4v-114h242.5 M876.1,118.9H633.6V5.4 M248.4,5.4v113.5H6.3"/>
		<path class="st3" d="M275.3,5.4v104.3c0,27.6-8.3,37-35.7,36.9L6.3,146.5 M6.3,482.8h233.3c26.8,0,35.7,9.2,35.7,36.8v104.9
			 M606.2,624.4V519.6c0-27.6,9.8-36.8,36.4-36.8h233.6 M876.3,146.5l-233.7,0.1c-27.5,0-36.4-9.6-36.4-36.9V5.4"/>
		<path class="st0" d="M441.1,295.7c10.4,0,19,8.5,19,19c0,10.4-8.5,19-19,19c-10.4,0-19-8.5-19-19
			C422.2,304.2,430.7,295.7,441.1,295.7L441.1,295.7z"/>
		<polygon class="st4" points="240.3,222 285.7,227.1 279,246.2 		"/>
		<polygon class="st4" points="642.7,406 597.3,400.9 604,381.8 		"/>
		<path class="st5" d="M487,617.9c-7.1-199.7-93.2-323.5-199.9-381.1"/>
		<path class="st5" d="M396,10.1c1,199.7,93.2,323.5,199.9,381.1"/>
		<path class="st6" d="M205.9,249.9c-13.9,2.1-32.9,5-53.2,5.2c-16.2,0-32.5,0-48.9,0c-21.4-1.4-38.4-0.8-54.9-6
			c-3.2-0.8-10.9-5.4-10.9-11v-41.4c0-6.6,8.5-8.5,10.9-9.1c16.4-3.9,33.5-5.6,54.7-5.6h49.3c19.2,0,38.4,2.1,53,4.8
			c4.1,0.8,11.1,1.7,11.1,10.3v41.8C217,250.4,211.7,249.1,205.9,249.9L205.9,249.9z"/>
		<path class="st7" d="M107.2,244.8l-17.9,2.8c-7-19.7-6.4-37.3,0-58.4l17.9,2.6C102.8,212.8,102.3,222.9,107.2,244.8L107.2,244.8z"
			/>
		<path class="st7" d="M183.3,243.7l-11.1-3.7c2.8-14.9,2.8-29.4,0.2-43.5l10.9-3.9C186.2,209.2,185.8,226.8,183.3,243.7
			L183.3,243.7z"/>
		<line class="st8" x1="165.7" y1="248.1" x2="114.1" y2="247.9"/>
		<line class="st8" x1="165.7" y1="189.1" x2="114.1" y2="188.9"/>
		<path class="st9" d="M676.4,378.5c13.9-2.1,32.9-5,53.2-5.2c16.2,0,32.5,0,48.9,0c21.3,1.4,38.4,0.8,54.9,6
			c3.2,0.8,10.9,5.4,10.9,11v41.4c0,6.6-8.5,8.5-10.9,9.1c-16.4,3.9-33.5,5.6-54.7,5.6h-49.3c-19.2,0-38.4-2.1-53-4.8
			c-4.1-0.8-11.1-1.7-11.1-10.3v-41.8C665.3,378.1,670.7,379.3,676.4,378.5L676.4,378.5z"/>
		<path class="st7" d="M775.1,383.7l17.9-2.8c7,19.7,6.4,37.3,0,58.4l-17.9-2.6C779.6,415.6,780,405.5,775.1,383.7L775.1,383.7z"/>
		<path class="st7" d="M699.1,384.7l11.1,3.7c-2.8,14.9-2.8,29.4-0.2,43.4l-10.9,3.9C696.1,419.3,696.5,401.7,699.1,384.7
			L699.1,384.7z"/>
		<line class="st10" x1="716.6" y1="380.4" x2="768.2" y2="380.6"/>
		<line class="st10" x1="716.6" y1="439.3" x2="768.2" y2="439.5"/>
		<polygon class="st11" points="117.5,337.2 117.5,278.4 129.1,278.4 153.2,317.7 153.2,278.4 164.2,278.4 164.2,337.2 152.3,337.2 
			128.6,298.9 128.6,337.2 		"/>
		<path class="st11" d="M773.9,347.6H761l-5.1-13.4h-23.6l-4.9,13.4h-12.6l22.9-58.8h12.6L773.9,347.6L773.9,347.6z M752,324.4
			l-8.1-21.8l-7.9,21.8H752L752,324.4z"/>
	</g>
</g>
</svg>
