<?xml version="1.0" encoding="utf-8"?>
<!-- Generator: Adobe Illustrator 19.2.0, SVG Export Plug-In . SVG Version: 6.00 Build 0)  -->
<svg version="1.1" id="Livello_1" xmlns="http://www.w3.org/2000/svg" xmlns:xlink="http://www.w3.org/1999/xlink" x="0px" y="0px"
	 viewBox="0 0 960 960" style="enable-background:new 0 0 960 960;" xml:space="preserve">
<style type="text/css">
	.st0{fill-rule:evenodd;clip-rule:evenodd;fill:#FFFFFF;}
	.st1{fill-rule:evenodd;clip-rule:evenodd;fill:#CECFD1;}
	.st2{fill:none;stroke:#1A171B;stroke-width:1.3559;stroke-miterlimit:2.6131;}
	.st3{fill-rule:evenodd;clip-rule:evenodd;fill:#3D3D3F;stroke:#1A171B;stroke-width:1.3559;stroke-miterlimit:2.6131;}
	.st4{fill-rule:evenodd;clip-rule:evenodd;fill:#E43417;stroke:#1A171B;stroke-width:1.3559;stroke-miterlimit:2.6131;}
	.st5{fill-rule:evenodd;clip-rule:evenodd;fill:#FFFFFF;stroke:#1A171B;stroke-width:1.3559;stroke-miterlimit:2.6131;}
	.st6{fill:none;stroke:#1A171B;stroke-width:1.8079;stroke-miterlimit:2.6131;}
	.st7{fill-rule:evenodd;clip-rule:evenodd;fill:#FFEC00;stroke:#1A171B;stroke-width:1.3559;stroke-miterlimit:2.6131;}
	
		.st8{fill:none;stroke:#1A171B;stroke-width:4.5197;stroke-linecap:square;stroke-miterlimit:2.6131;stroke-dasharray:22.5984,22.5984;}
	.st9{fill-rule:evenodd;clip-rule:evenodd;fill:#00A6E2;stroke:#1A171B;stroke-width:1.3559;stroke-miterlimit:2.6131;}
	.st10{fill-rule:evenodd;clip-rule:evenodd;fill:#1A171B;}
	.st11{fill:none;stroke:#1A171B;stroke-width:4.5197;stroke-miterlimit:2.6131;}
</style>
<g>
	<g>
		<path class="st0" d="M485.3,134.7l149.2,271.5c15,25.7,40.3,27.1,42.1,27.8L915,464.5V771l-332-47.2
			c-89.7-4.9-170.8-1.3-253.7,22.8L45,828.1V501.6l218.5-58.5c30.5-11.1,38.7-30.4,16.7-74.6L157.8,134.7H485.3z"/>
		<path class="st1" d="M183.8,134.7h275.4l156.2,282.5c15,25.7,28.3,34.8,61.1,39.8c83.4,12.8,158.9,21.7,238.4,33.6V746l-332-47.2
			c-89.7-4.9-170.8-2.3-253.7,21.8L45,801.1V529.6l218.5-62.5c54.4-17.8,63.7-54.4,41.7-98.6L183.8,134.7L183.8,134.7z"/>
		<path class="st2" d="M459.9,134.7l155.9,282.7c15,27.7,33.9,36,65,40.5L915,490.5"/>
		<path class="st2" d="M45,529.6l211.8-60.5c70.7-19.9,66.7-65.3,46.6-103.7L183.9,134.7"/>
		<polygon class="st3" points="794.4,679.1 760.7,677.8 764.6,663.3 794.4,679.1 		"/>
		<polygon class="st3" points="661.3,659.2 631.2,644.1 627.6,658.6 661.3,659.2 		"/>
		<path class="st4" d="M812.3,526.2c-9.9-2.7-23.5-6.4-38.2-8.3c-11.8-1.4-23.6-2.8-35.5-4.3c-15.6-0.8-28-2.8-40.4-0.5
			c-2.4,0.3-8.4,2.9-8.9,6.9l-3.6,29.6c-0.6,4.7,5.5,6.8,7.1,7.5c11.6,4.2,23.9,6.9,39.2,8.8l35.8,4.3c14,1.7,28.1,1.9,38.9,1.2
			c3-0.2,8.2-0.2,9-6.4l3.6-29.9C820.4,526.9,816.4,527.3,812.3,526.2L812.3,526.2z"/>
		<path class="st5" d="M740.2,521.2l-12.8-3.6c-6.8,13.5-7.9,26.1-5,41.7l13.2-0.3C734.2,543.7,734.7,536.5,740.2,521.2L740.2,521.2
			z"/>
		<path class="st5" d="M795.3,528.6l-8.4,1.7c0.7,10.9-0.5,21.2-3.6,31.1l7.6,3.8C794.5,553.6,795.7,541,795.3,528.6L795.3,528.6z"
			/>
		<line class="st6" x1="783" y1="524" x2="745.4" y2="519.6"/>
		<line class="st6" x1="777.9" y1="566.1" x2="740.3" y2="561.8"/>
		<path class="st7" d="M313.6,239.3c3.3,9.7,7.9,23,14.5,36.3c5.4,10.5,10.9,21.1,16.4,31.8c8.1,13.4,13.4,24.7,22.3,33.7
			c1.6,1.8,7.1,5.3,10.7,3.5l26.5-13.7c4.2-2.2,2.6-8.4,2.2-10.1c-3-12-7.7-23.6-14.8-37.4l-16.6-32.1
			c-6.5-12.5-14.2-24.3-20.8-32.8c-1.9-2.4-4.8-6.7-10.3-3.8l-26.7,13.8C309.6,232.3,312.1,235.3,313.6,239.3L313.6,239.3z"/>
		<path class="st5" d="M350,301.7l4.2,12.6c15-1.9,26-8.2,37.3-19.3l-7.7-10.8C371.9,294.1,365.6,297.7,350,301.7L350,301.7z"/>
		<path class="st5" d="M325.1,252l6.1,6c8.6-6.7,17.9-11.5,27.7-14.5l-1.1-8.4C346.2,238.6,335.1,244.7,325.1,252L325.1,252z"/>
		<line class="st6" x1="328.2" y1="264.8" x2="345.7" y2="298.3"/>
		<line class="st6" x1="365.9" y1="245.3" x2="383.4" y2="278.8"/>
		<path class="st8" d="M674.8,527.7c-188.8-29.8-262.9-18-401.8,25.4"/>
		<path class="st8" d="M398.1,351.7c42,102.9,219.2,281.8,357.2,316.2"/>
		<path class="st8" d="M287.4,678c128.5-37.1,229.2-43.9,351.3-25.6"/>
		<path class="st9" d="M150.9,693.4c9.4-4.1,22.3-9.7,36.6-13.7c11.5-3.1,22.9-6.2,34.5-9.3c15.4-3.1,27.3-6.7,39.9-6.3
			c2.4,0,8.7,1.7,9.7,5.6l7.7,28.8c1.2,4.6-4.4,7.5-6,8.4c-10.9,5.9-22.6,10.2-37.6,14.3l-34.8,9.4c-13.6,3.7-27.5,5.9-38.3,6.8
			c-3,0.2-8.2,1-9.8-5.1l-7.8-29.1C142.9,695.2,146.9,695.1,150.9,693.4L150.9,693.4z"/>
		<path class="st5" d="M221.5,678.2l12.1-5.3c8.7,12.4,11.5,24.7,10.9,40.6l-13.2,1.6C230.7,699.6,229.1,692.5,221.5,678.2
			L221.5,678.2z"/>
		<path class="st5" d="M168,693.4l8.5,0.5c0.8,10.9,3.5,20.9,8,30.2l-7,4.8C172.4,718,169.4,705.7,168,693.4L168,693.4z"/>
		<line class="st6" x1="179.6" y1="687.1" x2="216.1" y2="677.4"/>
		<line class="st6" x1="190.6" y1="728" x2="227.1" y2="718.4"/>
		<polygon class="st3" points="237.1,566.2 271.9,561.9 266.6,547.3 237.1,566.2 		"/>
		<polygon class="st10" points="175.8,653.8 178.1,605.1 187.7,605.5 206.1,639 207.7,606.5 216.8,606.9 214.5,655.7 204.6,655.2 
			186.5,622.5 185,654.3 175.8,653.8 		"/>
		<path class="st10" d="M405.4,222.5l18,0.7c4.1,0.2,7.1,0.6,9.3,1.3c2.8,0.9,5.2,2.5,7.2,4.8c2,2.2,3.4,4.9,4.3,8.1
			c1,3.2,1.3,7,1.1,11.6c-0.2,4-0.8,7.5-1.9,10.3c-1.4,3.5-3.2,6.3-5.6,8.4c-1.8,1.6-4.1,2.8-7.1,3.6c-2.2,0.6-5.1,0.8-8.8,0.7
			l-18.5-0.7L405.4,222.5L405.4,222.5z M414.9,231.1l-1.3,32.3l7.4,0.3c2.8,0.1,4.7,0,6-0.2c1.6-0.3,3-1,4.1-1.9
			c1.1-0.9,2-2.5,2.8-4.6c0.7-2.2,1.2-5.1,1.3-8.9c0.1-3.8-0.1-6.7-0.7-8.7c-0.6-2-1.5-3.7-2.6-4.8c-1.2-1.2-2.6-2-4.5-2.5
			c-1.4-0.4-4.1-0.6-8.1-0.8L414.9,231.1L414.9,231.1z"/>
		<path class="st10" d="M880.9,579.3l-10.7-0.4l-3.8-11.3l-19.5-0.8l-4.5,10.9l-10.5-0.4l20.9-48l10.4,0.4L880.9,579.3L880.9,579.3z
			 M863.5,559.3l-6-18.4l-7.3,17.8L863.5,559.3L863.5,559.3z"/>
		<path class="st11" d="M915,768.1l-335.3-45.4c-84.2-5.3-169.5-0.3-236,19L45,828.9"/>
		<path class="st11" d="M482.9,131.1l146.8,264.6c15.8,27,22,33,59.9,39.5c75.1,13,150.3,16.1,225.4,29.1"/>
		<path class="st11" d="M45,502.8l207.2-56.5c42.3-12.9,48.1-32.8,30.4-70.9L158.3,134.7"/>
		<path class="st2" d="M915,745c-103.3-12.8-227.7-31.5-332-46.2c-90.6-4.4-173.1-1.3-252.4,21.2L45,801"/>
	</g>
</g>
</svg>
