<?xml version="1.0" encoding="utf-8"?>
<!-- Generator: Adobe Illustrator 19.2.0, SVG Export Plug-In . SVG Version: 6.00 Build 0)  -->
<svg version="1.1" id="Livello_1" xmlns="http://www.w3.org/2000/svg" xmlns:xlink="http://www.w3.org/1999/xlink" x="0px" y="0px"
	 viewBox="0 0 960 960" style="enable-background:new 0 0 960 960;" xml:space="preserve">
<style type="text/css">
	.st0{fill-rule:evenodd;clip-rule:evenodd;fill:#FFFFFF;}
	.st1{fill:none;stroke:#1A171B;stroke-width:4.844;stroke-miterlimit:2.6131;}
	.st2{fill:none;stroke:#1A171B;stroke-width:1.4532;stroke-miterlimit:2.6131;}
	.st3{fill-rule:evenodd;clip-rule:evenodd;fill:#CECFD1;}
	.st4{fill-rule:evenodd;clip-rule:evenodd;fill:#1A171B;stroke:#1A171B;stroke-width:1.4532;stroke-miterlimit:2.6131;}
	
		.st5{fill:none;stroke:#1A171B;stroke-width:4.844;stroke-linecap:square;stroke-miterlimit:2.6131;stroke-dasharray:24.2201,24.2201;}
	.st6{fill-rule:evenodd;clip-rule:evenodd;fill:#9B9C9E;stroke:#1A171B;stroke-width:4.844;stroke-miterlimit:2.6131;}
	.st7{fill-rule:evenodd;clip-rule:evenodd;fill:#9B9C9E;stroke:#1A171B;stroke-width:1.4532;stroke-miterlimit:2.6131;}
	.st8{fill-rule:evenodd;clip-rule:evenodd;fill:#00A6E2;stroke:#1A171B;stroke-width:1.4532;stroke-miterlimit:2.6131;}
	.st9{fill-rule:evenodd;clip-rule:evenodd;fill:#FFFFFF;stroke:#1A171B;stroke-width:1.4532;stroke-miterlimit:2.6131;}
	.st10{fill:none;stroke:#FFFFFF;stroke-width:4.844;stroke-linecap:square;stroke-miterlimit:2.6131;}
	.st11{fill-rule:evenodd;clip-rule:evenodd;fill:#E1001A;stroke:#1A171B;stroke-width:1.4532;stroke-miterlimit:2.6131;}
	.st12{fill:none;stroke:#1A171B;stroke-width:1.9376;stroke-miterlimit:2.6131;}
	.st13{fill-rule:evenodd;clip-rule:evenodd;fill:#049853;stroke:#1A171B;stroke-width:1.4532;stroke-miterlimit:2.6131;}
	.st14{fill-rule:evenodd;clip-rule:evenodd;fill:#1A171B;}
</style>
<g>
	<g>
		<path class="st0" d="M45.2,163.8h337.1l137.9,143.8c27.3,28.7,40.7,31.9,89.1,32.2h305.4V796l-869.5,1V428.3l181.4,0
			c24.5-2.3,17.9-10.8,5.6-31.6L45.2,202.8V163.8z"/>
		<path class="st1" d="M381.7,163.8l138.4,145c32.2,34.1,61.1,30.3,94.8,31.2h300"/>
		<line class="st1" x1="914.9" y1="796.2" x2="45.2" y2="796.2"/>
		<line class="st2" x1="915" y1="774" x2="45.2" y2="774"/>
		<path class="st3" d="M45.2,163.8h303.1l157.9,165.8c27.3,28.7,44.7,34.9,93.1,35.2h315.4V774H45.2V454.3l199.4,0
			c24.5-2.3,38.9-29.8,26.6-50.6L45.2,163.8L45.2,163.8z"/>
		<path class="st2" d="M348.3,163.8l165.3,173.5c27,28.3,58.6,26.5,85.7,27.4h315.4"/>
		<polygon class="st4" points="378.1,561.7 414.1,564.1 411.7,548.3 378.1,561.7 		"/>
		<path class="st5" d="M561.3,535.7c-55.7,1.9-105.4,12-149.5,20.5"/>
		<polygon class="st4" points="392.5,301.3 417.5,325.2 404.7,333.7 392.5,301.3 		"/>
		<path class="st5" d="M211.9,625.6C331,603.5,456.7,488.4,410,328.3"/>
		<path class="st6" d="M45.2,427.8h183.5c14.2-0.6,22-7.8,9.1-24L45.2,200.8l193.2,203.6c13.6,16.7,1,25.1-9.7,23.4H45.2L45.2,427.8
			z"/>
		<path class="st7" d="M45.2,454.3h198.6c24.5-2.3,38.9-29.6,26.6-50.4L45.2,163.8l225.3,240.1c12.3,20.8-2.1,48.1-26.6,50.4H45.2
			L45.2,454.3z"/>
		<path class="st5" d="M321.8,374.4c105.6,114.2,218.7,291.8,371.6,315.9"/>
		<polygon class="st4" points="727.2,690.1 692.8,698 692.8,682.3 727.2,690.1 		"/>
		<path class="st8" d="M285.2,387L132.5,223.7l54.1-50.6l152.7,163.3c4.1,4.3,4,11.5-0.5,15.7l-37.9,35.4
			C296.4,391.8,289.4,391.5,285.2,387L285.2,387z"/>
		<path class="st8" d="M277.7,369.8L143.5,226.3l45-42l134.2,143.5c3.6,3.9,3.8,10.1,0.1,13.6l-31.5,29.4
			C287.5,374.3,281.5,373.9,277.7,369.8L277.7,369.8z"/>
		<path class="st9" d="M290.7,383.8l0.8-7.2c12.9-10.5,24.7-21.6,36.4-34l7.8-0.8c0.3,0-1.7,7.5-3.7,9.6
			c-9.9,10.4-20.7,20.5-31.5,29.4C297.3,383.5,290.7,384.1,290.7,383.8L290.7,383.8z"/>
		<path class="st0" d="M184.3,239.6l-6.6-7l-7.6,3.2l-3.5-3.7l34.9-14l3.8,4L182.5,249l-3.2-3.4L184.3,239.6L184.3,239.6z
			 M188.2,235.2l9.3-10.7l-14.3,5.4L188.2,235.2L188.2,235.2z"/>
		<path class="st0" d="M213.6,230.9l3.4,3.6l-15.7,11l-3.9,2.7c-0.3,0.2-0.6,0.5-0.9,0.7c-1,0.9-1.6,2-1.8,3.1
			c-0.2,1.1,0.2,2.2,1.1,3.1c0.8,0.9,1.7,1.4,2.7,1.5c1,0.1,2.1-0.1,3.4-0.7c1.2-0.6,3.1-1.7,5.7-3.5l15.9-11.1l3.4,3.6L211,256.1
			c-3.3,2.3-6,4-8.1,4.9c-2.1,0.9-4.1,1.3-6.2,1.1c-2-0.2-3.9-1.2-5.5-2.9c-1.9-2.1-2.7-4.3-2.2-6.8c0.4-2.5,1.8-4.8,4.1-6.9
			c0.5-0.4,1-0.9,1.6-1.4c0.4-0.3,1.6-1.2,3.6-2.6L213.6,230.9L213.6,230.9z"/>
		<polygon class="st0" points="208.4,276.6 205,273 229.2,256.1 224.4,250.9 229.2,247.5 242.2,261.4 237.4,264.8 232.6,259.7 
			208.4,276.6 		"/>
		<path class="st0" d="M226.1,275.3c1.5-1.4,3.2-2.8,5.2-4c2.6-1.7,5.2-2.9,7.6-3.6c2.4-0.7,4.7-0.9,6.9-0.5c2.2,0.4,4,1.4,5.5,3
			c2,2.2,2.7,4.9,2,8c-0.7,3.2-2.7,6.3-5.9,9.3c-2.7,2.5-5.7,4.6-9.1,6c-3.3,1.5-6.4,2.1-9.2,1.9c-2.8-0.2-5-1.3-6.8-3.2
			c-1.5-1.6-2.3-3.5-2.3-5.7c0-2.1,0.6-4.2,1.8-6.1C223,278.6,224.4,276.8,226.1,275.3L226.1,275.3z M229.5,278.8
			c-1.8,1.6-2.9,3.4-3.4,5.2c-0.5,1.8-0.2,3.4,1,4.6c0.9,1,2.3,1.5,4.1,1.5c1.8,0,3.9-0.6,6.4-1.8c2.5-1.2,4.6-2.6,6.4-4.3
			c2-1.9,3.2-3.7,3.7-5.6c0.4-1.8,0.1-3.3-1-4.5c-1.7-1.8-4.2-2.1-7.7-0.9C235.5,274.2,232.4,276.1,229.5,278.8L229.5,278.8z"/>
		<path class="st0" d="M232.9,302.7l29-20.3l5.7,6c1.2,1.3,2,2.3,2.4,2.9c0.6,1,1,2.1,1,3.2c0,1.1-0.2,2.2-0.8,3.3
			c-0.6,1.1-1.4,2.2-2.5,3.2c-1.4,1.3-2.9,2.2-4.5,2.6c-1.5,0.4-3.1,0.3-4.7-0.3c0.5,1.2,0.5,2.5,0.1,3.9c-0.5,1.4-1.3,2.6-2.4,3.7
			c-1.5,1.4-3.3,2.5-5.2,3.2c-1.9,0.7-3.7,0.8-5.3,0.3c-1.6-0.5-3.3-1.7-5-3.5L232.9,302.7L232.9,302.7z M253.6,294.2l2.6,2.8
			c1.2,1.2,2.1,2,2.9,2.3c0.8,0.3,1.6,0.3,2.4,0c0.8-0.3,1.6-0.7,2.3-1.3c0.7-0.6,1.1-1.2,1.2-1.9c0.2-0.6,0.1-1.3-0.2-1.9
			c-0.2-0.3-0.7-1-1.7-2l-2.6-2.8L253.6,294.2L253.6,294.2z M241,303l3.3,3.5c1.4,1.5,2.4,2.3,3.2,2.6c0.7,0.2,1.6,0.2,2.5-0.1
			c0.9-0.3,1.7-0.8,2.4-1.4c0.9-0.8,1.3-1.7,1.5-2.6c0.1-0.9-0.3-1.9-1.2-2.9l-4.1-4.3L241,303L241,303z"/>
		<path class="st0" d="M278.7,300.2l3.4,3.6l-15.7,11l-3.9,2.7c-0.3,0.2-0.6,0.5-0.9,0.7c-1,0.9-1.6,2-1.8,3.1
			c-0.2,1.1,0.2,2.2,1.1,3.1c0.8,0.9,1.7,1.4,2.7,1.5c1,0.1,2.1-0.1,3.4-0.7c1.2-0.6,3.1-1.8,5.7-3.5l15.9-11.1l3.4,3.6l-15.9,11.1
			c-3.3,2.3-6,4-8.1,4.9c-2.1,0.9-4.1,1.3-6.2,1.1c-2-0.2-3.9-1.2-5.5-2.9c-1.9-2-2.7-4.3-2.2-6.8c0.4-2.5,1.8-4.8,4.1-6.9
			c0.5-0.4,1-0.9,1.6-1.4c0.4-0.3,1.6-1.2,3.6-2.6L278.7,300.2L278.7,300.2z"/>
		<path class="st0" d="M275.1,331l3.5,3.2c-1.6,1.5-2.5,2.7-2.7,3.6c-0.4,1.4,0.1,2.8,1.4,4.2c1.1,1.2,2.2,1.8,3.3,1.7
			c1.1-0.1,2.1-0.5,3-1.3c0.8-0.7,1.2-1.5,1.3-2.5c0.1-0.7-0.1-2.1-0.5-4.3c-0.4-2.2-0.6-3.8-0.7-5c0-1.2,0.3-2.4,0.8-3.6
			c0.6-1.2,1.5-2.4,2.7-3.6c2.2-2,4.4-3.2,6.9-3.4c2.4-0.3,4.6,0.6,6.5,2.7c1.9,2.1,2.7,4.3,2.4,6.8c-0.3,2.5-1.6,4.8-3.9,7.1
			l-3.5-3.3c1.1-1.2,1.8-2.4,2-3.6c0.2-1.1-0.2-2.2-1.2-3.2c-0.9-1-1.9-1.5-2.8-1.4c-0.9,0-1.8,0.4-2.5,1.2
			c-0.7,0.7-1.2,1.5-1.3,2.3c-0.1,0.8,0,2.3,0.4,4.5c0.6,3.2,0.8,5.5,0.6,6.8c-0.4,1.9-1.5,3.7-3.3,5.4c-2.3,2.1-4.8,3.3-7.5,3.6
			c-2.8,0.3-5.2-0.7-7.2-2.9c-1.4-1.5-2.3-3.2-2.6-5c-0.3-1.8,0-3.6,0.9-5.2C272.1,334.2,273.4,332.6,275.1,331L275.1,331z"/>
		<line class="st10" x1="182.4" y1="183.5" x2="143" y2="220.4"/>
		<path class="st1" d="M914.9,612.2c-134.1,0-207.4,0-341.5,0c-86.9,0-234.6,44.3-332.7,44.3H45 M45,624.9c73,0,122.8,0,195.8,0
			c91.6,0,233.1-44.3,323-44.3h351.1 M914.9,552.3c-134.5,0-216.7,0-351.1,0c-93.7,0-236.1,44.5-323,44.5H45.2 M45.2,565.2
			c74,0,114.4,0,188.4,0c84.1,0,231.8-44.5,330.2-44.5h351.1"/>
		<path class="st11" d="M93.9,603.1c9.8-1.5,23.3-3.5,37.7-3.7c11.5,0,23,0,34.6,0c15.1,1,27.2,0.6,38.9,4.3
			c2.3,0.6,7.7,3.8,7.7,7.8v29.3c0,4.7-6,6-7.7,6.4c-11.6,2.8-23.7,4-38.7,4h-34.9c-13.6,0-27.2-1.5-37.5-3.4
			c-2.9-0.6-7.9-1.2-7.9-7.3v-29.6C86,602.8,89.8,603.7,93.9,603.1L93.9,603.1z"/>
		<path class="st9" d="M164.9,605.3l13.7-2.1c5.4,15.1,4.9,28.5,0,44.6l-13.7-2C168.3,629.7,168.6,622,164.9,605.3L164.9,605.3z"/>
		<path class="st9" d="M106.8,606.1l8.5,2.9c-2.1,11.4-2.1,22.4-0.2,33.2l-8.3,3C104.5,632.5,104.8,619.1,106.8,606.1L106.8,606.1z"
			/>
		<line class="st12" x1="120.2" y1="602.8" x2="159.7" y2="602.9"/>
		<line class="st12" x1="120.2" y1="647.8" x2="159.7" y2="648"/>
		<polygon class="st13" points="576.1,520.7 620.7,505.1 849.8,505.1 894.5,520.7 894.5,551.6 849,567.2 620.6,567.2 576.1,551.6 
			576.1,520.7 		"/>
		<polygon class="st13" points="621.2,551.7 849.5,551.7 849.5,567.3 621.2,567.3 621.2,551.7 		"/>
		<polygon class="st13" points="621.2,505.2 849.5,505.2 849.5,520.7 621.2,520.7 621.2,505.2 		"/>
		<line class="st2" x1="583.2" y1="520.7" x2="887.4" y2="520.7"/>
		<line class="st2" x1="583.2" y1="536.2" x2="887.4" y2="536.2"/>
		<line class="st2" x1="583.2" y1="551.6" x2="887.4" y2="551.6"/>
		<polygon class="st0" points="681.4,552.9 674.6,552.9 680.4,525.3 670.6,525.3 671.8,519.7 698,519.7 696.8,525.3 687.2,525.3 
			681.4,552.9 		"/>
		<path class="st0" d="M702.3,552.9h-6.8l7-33.2h14.7c2.5,0,4.5,0.3,5.9,0.8c1.4,0.5,2.6,1.5,3.4,2.9c0.9,1.4,1.3,3.1,1.3,5.1
			c0,2.8-0.8,5.2-2.5,7c-1.7,1.8-4.3,3-7.7,3.4c0.9,0.8,1.7,1.8,2.5,3.1c1.5,2.6,3.2,6.3,5.1,11h-7.4c-0.6-1.9-1.7-4.8-3.5-8.8
			c-0.9-2.1-1.9-3.6-3-4.3c-0.6-0.4-1.8-0.7-3.4-0.7h-2.8L702.3,552.9L702.3,552.9z M706.2,534.2h3.6c3.7,0,6.1-0.2,7.3-0.7
			c1.2-0.4,2.1-1.1,2.8-2.1c0.7-0.9,1-1.9,1-2.9c0-1.2-0.5-2.1-1.5-2.7c-0.6-0.4-1.9-0.5-3.9-0.5h-7.5L706.2,534.2L706.2,534.2z"/>
		<path class="st0" d="M750.6,545.6h-13.2l-4,7.3h-7l18.8-33.2h7.6l5.4,33.2h-6.5L750.6,545.6L750.6,545.6z M749.7,540.1l-1.9-13.4
			l-8,13.4H749.7L749.7,540.1z"/>
		<polygon class="st0" points="781.4,552.9 775,552.9 773.8,525.2 768.5,552.9 762.3,552.9 769.3,519.7 779,519.7 780,543 
			791.3,519.7 801.2,519.7 794.2,552.9 788,552.9 794.6,525.4 781.4,552.9 		"/>
		<polygon class="st14" points="727.6,483.1 727.6,438.4 711.6,438.4 711.6,429.3 754.4,429.3 754.4,438.4 738.5,438.4 738.5,483.1 
			727.6,483.1 		"/>
		<polygon class="st14" points="293.5,255.1 293.5,201.3 333.4,201.3 333.4,210.4 304.4,210.4 304.4,222.4 331.4,222.4 331.4,231.4 
			304.4,231.4 304.4,246.1 334.4,246.1 334.4,255.1 293.5,255.1 		"/>
		<path class="st14" d="M122.5,735.8V682h22.9c5.8,0,9.9,0.5,12.5,1.5c2.6,1,4.7,2.7,6.3,5.2c1.6,2.5,2.3,5.3,2.3,8.5
			c0,4-1.2,7.4-3.6,10c-2.4,2.6-5.9,4.3-10.7,5c2.4,1.4,4.3,2.9,5.8,4.5c1.5,1.6,3.6,4.5,6.2,8.7l6.6,10.5h-13l-7.9-11.7
			c-2.8-4.2-4.7-6.8-5.7-7.9c-1-1.1-2.1-1.8-3.3-2.2c-1.2-0.4-3-0.6-5.5-0.6h-2.2v22.5H122.5L122.5,735.8z M133.4,704.7h8
			c5.2,0,8.5-0.2,9.8-0.7c1.3-0.4,2.3-1.2,3-2.3c0.7-1.1,1.1-2.4,1.1-4c0-1.8-0.5-3.3-1.5-4.4c-1-1.1-2.3-1.8-4.1-2.1
			c-0.9-0.1-3.5-0.2-7.9-0.2h-8.5V704.7L133.4,704.7z"/>
	</g>
</g>
</svg>
