<?xml version="1.0" encoding="utf-8"?>
<!-- Generator: Adobe Illustrator 19.2.0, SVG Export Plug-In . SVG Version: 6.00 Build 0)  -->
<svg version="1.1" id="Livello_1" xmlns="http://www.w3.org/2000/svg" xmlns:xlink="http://www.w3.org/1999/xlink" x="0px" y="0px"
	 viewBox="0 0 875 900" style="enable-background:new 0 0 875 900;" xml:space="preserve">
<style type="text/css">
	.st0{fill:#FFFFFF;}
	.st1{fill:none;stroke:#1A171B;stroke-width:4.6914;stroke-miterlimit:2.6131;}
	.st2{fill:none;stroke:#1A171B;stroke-width:1.4074;stroke-miterlimit:2.6131;}
	.st3{fill:#B9B9B9;}
	.st4{fill:#FFEC00;stroke:#1A171B;stroke-width:1.4074;stroke-miterlimit:2.6131;}
	.st5{fill:#FFFFFF;stroke:#1A171B;stroke-width:1.4074;stroke-miterlimit:2.6131;}
	.st6{fill:none;stroke:#1A171B;stroke-width:1.8766;stroke-miterlimit:2.6131;}
	.st7{fill:#E43417;stroke:#1A171B;stroke-width:1.4074;stroke-miterlimit:2.6131;}
	.st8{fill:#00A6E2;stroke:#1A171B;stroke-width:1.4074;stroke-miterlimit:2.6131;}
	.st9{fill:#3D3D3F;stroke:#1A171B;stroke-width:1.4074;stroke-miterlimit:2.6131;}
	
		.st10{fill:none;stroke:#1A171B;stroke-width:4.6914;stroke-linecap:square;stroke-miterlimit:2.6131;stroke-dasharray:23.4569,23.4569;}
	.st11{fill:#1A171B;}
</style>
<g>
	<g>
		<path class="st0" d="M411.4,769.9l177.9-309.3c8.5-7.3,15.9-12.7,37.3-15.3l245.5,0.2v-31.8H2.5v32.8l230.2-0.2
			c7.2,4.2,13.3,6.9,0.6,28.5L62.1,769.9H411.4z"/>
		<rect x="2.5" y="129.8" class="st0" width="869.7" height="30"/>
		<path class="st1" d="M410,769.9l165-286.4c17.7-27.2,24.1-38.3,64-38.1h233.4"/>
		<path class="st1" d="M2.5,445.4h224.9c8.8,0,15.1,10.1,11.4,19.5l-176.3,305"/>
		<line class="st1" x1="872.4" y1="130.1" x2="2.5" y2="130.1"/>
		<line class="st2" x1="872.5" y1="152.8" x2="2.7" y2="152.8"/>
		<path class="st3" d="M89.1,769.9h294.4l177.9-309.3c16.7-25.9,30.9-36.6,65.3-38.3l245.5,0.2V152.8H2.5v269.8l230.2-0.2
			c25.4,2.4,40.3,30.9,27.6,52.5L89.1,769.9L89.1,769.9z"/>
		<path class="st2" d="M383.7,769.7l177.9-309.3c16.7-25.9,30.9-36.6,65.3-38.3h245.6"/>
		<path class="st2" d="M2.5,422.3l230.5-0.2c25.4,2.4,40.3,30.9,27.6,52.4L89.1,769.9"/>
		<path class="st4" d="M40.8,337.1c12.8-1.9,30.4-4.6,49.1-4.8c15,0,30,0,45.2,0c19.7,1.3,35.5,0.8,50.7,5.5c3,0.8,10.1,5,10.1,10.1
			v38.2c0,6.1-7.9,7.8-10.1,8.4c-15.2,3.6-31,5.2-50.5,5.2H89.7c-17.8,0-35.5-1.9-48.9-4.4c-3.8-0.8-10.3-1.5-10.3-9.6v-38.6
			C30.6,336.7,35.5,337.8,40.8,337.1L40.8,337.1z"/>
		<path class="st5" d="M132,341.8l16.6-2.6c6.5,18.2,5.9,34.5,0,53.9l-16.6-2.4C136.1,371.4,136.5,362.1,132,341.8L132,341.8z"/>
		<path class="st5" d="M61.8,342.8l10.3,3.4c-2.6,13.8-2.6,27.1-0.2,40.1l-10.1,3.6C59,374.7,59.4,358.5,61.8,342.8L61.8,342.8z"/>
		<line class="st6" x1="77.9" y1="338.8" x2="125.7" y2="339"/>
		<line class="st6" x1="77.9" y1="393.3" x2="125.7" y2="393.5"/>
		<path class="st7" d="M769.5,210c-12.8-1.9-30.4-4.6-49.1-4.8c-15,0-30,0-45.2,0c-19.7,1.3-35.5,0.8-50.7,5.5
			c-3,0.8-10.1,5-10.1,10.1V259c0,6.1,7.9,7.8,10.1,8.4c15.2,3.6,31,5.2,50.5,5.2h45.5c17.8,0,35.5-1.9,48.9-4.4
			c3.7-0.8,10.3-1.5,10.3-9.6V220C779.7,209.6,774.8,210.7,769.5,210L769.5,210z"/>
		<path class="st5" d="M678.3,214.7l-16.6-2.6c-6.5,18.2-5.9,34.5,0,53.9l16.6-2.4C674.2,244.3,673.8,234.9,678.3,214.7L678.3,214.7
			z"/>
		<path class="st5" d="M748.5,215.7l-10.3,3.4c2.6,13.8,2.6,27.1,0.2,40.1l10.1,3.6C751.3,247.6,750.9,231.4,748.5,215.7
			L748.5,215.7z"/>
		<line class="st6" x1="732.4" y1="211.7" x2="684.6" y2="211.9"/>
		<line class="st6" x1="732.4" y1="266.2" x2="684.6" y2="266.4"/>
		<path class="st8" d="M307.6,655.7c4.8-12,11.3-28.6,20.6-44.8c7.6-13,15.1-25.9,22.8-39c11.1-16.4,18.6-30.3,30.3-41
			c2.2-2.2,9.4-6.2,13.8-3.6l33,19.3c5.3,3.1,2.8,10.8,2.2,12.9c-4.5,15-11.1,29.4-21,46.2l-23,39.4c-8.9,15.3-19.5,29.7-28.5,40
			c-2.5,2.9-6.5,8.1-13.4,4L311,669.6C302.1,664.4,305.5,660.7,307.6,655.7L307.6,655.7z"/>
		<path class="st5" d="M357.6,579.4l6.1-15.6c19,3.6,32.8,12.3,46.6,27.2l-10.4,13.1C385.2,590.7,377.4,585.7,357.6,579.4
			L357.6,579.4z"/>
		<path class="st5" d="M323.1,640.5l8.1-7.1c10.6,9.2,22.2,15.9,34.6,20.4l-1.9,10.5C349.2,659,335.4,650.5,323.1,640.5L323.1,640.5
			z"/>
		<line class="st6" x1="327.7" y1="624.5" x2="352" y2="583.4"/>
		<line class="st6" x1="374.8" y1="652" x2="399" y2="610.9"/>
		<polygon class="st9" points="333.3,445.4 356.7,417.6 342.4,410.2 		"/>
		<path class="st10" d="M604.2,239.2c-112.9,0.3-176.9,41.9-251.3,169.9"/>
		<polygon class="st9" points="192,207.2 227.1,216.4 227.7,200.3 		"/>
		<path class="st10" d="M418.7,527.6c74.9-130.2-1.3-318.7-185.5-318.2"/>
		<polygon class="st9" points="272.8,549.4 295.7,526.8 283.7,519.2 		"/>
		<path class="st10" d="M209.7,364.8c16.3,0.1,19.6,1.2,36.6,2.2c47.8,2.7,97.4,70.8,63,126.5l-18,29.2"/>
		<polygon class="st11" points="96.1,312.9 96.1,260.5 134.9,260.5 134.9,269.4 106.7,269.4 106.7,281 133,281 133,289.8 
			106.7,289.8 106.7,304.1 135.9,304.1 135.9,312.9 		"/>
		<polygon class="st11" points="257.2,742.5 257.2,690.1 273.1,690.1 282.6,725.9 292,690.1 307.8,690.1 307.8,742.5 298,742.5 
			298,701.3 287.6,742.5 277.4,742.5 267.1,701.3 267.1,742.5 		"/>
		<path class="st11" d="M715.5,326.4l10.2,3.1c-1.6,5.5-4.2,9.6-7.8,12.3c-3.6,2.7-8.3,4-13.9,4c-6.9,0-12.6-2.3-17.1-6.9
			s-6.7-10.9-6.7-18.9c0-8.4,2.2-15,6.7-19.7s10.4-7,17.7-7c6.4,0,11.6,1.8,15.6,5.5c2.4,2.2,4.2,5.3,5.3,9.3l-10.4,2.4
			c-0.6-2.6-1.9-4.7-3.9-6.2s-4.3-2.3-7.1-2.3c-3.9,0-7,1.3-9.4,4.1c-2.4,2.7-3.6,7.1-3.6,13.1c0,6.4,1.2,11,3.6,13.7
			c2.4,2.7,5.5,4.1,9.2,4.1c2.8,0,5.2-0.9,7.2-2.6C713.2,332.8,714.6,330.1,715.5,326.4L715.5,326.4z"/>
	</g>
</g>
</svg>
