<?xml version="1.0" encoding="utf-8"?>
<!-- Generator: Adobe Illustrator 19.2.0, SVG Export Plug-In . SVG Version: 6.00 Build 0)  -->
<svg version="1.1" id="Livello_1" xmlns="http://www.w3.org/2000/svg" xmlns:xlink="http://www.w3.org/1999/xlink" x="0px" y="0px"
	 viewBox="0 0 875 900" style="enable-background:new 0 0 875 900;" xml:space="preserve">
<style type="text/css">
	.st0{fill:#FFFFFF;}
	.st1{fill:#B9B9B9;}
	.st2{fill:none;stroke:#1A171B;stroke-width:1.3991;stroke-miterlimit:2.6131;}
	.st3{fill:none;stroke:#1A171B;stroke-width:4.6638;stroke-miterlimit:2.6131;}
	
		.st4{fill:none;stroke:#1A171B;stroke-width:4.6638;stroke-linecap:square;stroke-miterlimit:2.6131;stroke-dasharray:23.3188,23.3188;}
	.st5{fill:#3D3D3F;stroke:#1A171B;stroke-width:1.3991;stroke-miterlimit:2.6131;}
	.st6{fill:#049853;stroke:#1A171B;stroke-width:1.3991;stroke-miterlimit:2.6131;}
	.st7{fill:#E43417;stroke:#1A171B;stroke-width:1.3991;stroke-miterlimit:2.6131;}
	.st8{fill:#FFFFFF;stroke:#1A171B;stroke-width:1.3991;stroke-miterlimit:2.6131;}
	.st9{fill:none;stroke:#1A171B;stroke-width:1.8655;stroke-miterlimit:2.6131;}
	.st10{fill:#1A171B;}
	.st11{fill:#00A6E2;stroke:#1A171B;stroke-width:1.3991;stroke-miterlimit:2.6131;}
	.st12{fill:none;stroke:#FFFFFF;stroke-width:4.6638;stroke-linecap:square;stroke-miterlimit:2.6131;}
</style>
<g>
	<g>
		<polygon class="st0" points="683.4,767.4 364.3,767.4 364.3,470.7 2.7,470.7 2.7,132.6 872.5,132.6 872.5,470.7 683.4,470.7 		"/>
		<path class="st1" d="M661.2,767.4H386.9V480.7c0-22-9.6-32-31.7-32H2.7V154.4h869.8v294.3H694.3c-21.8,0-32.8,9.8-32.9,32.1
			L661.2,767.4L661.2,767.4z"/>
		<path class="st2" d="M386.8,767.4l-0.1-286.7c0-22-10.5-32-32.6-32H2.9 M2.7,154.4h869.8 M872.5,448.7H693.3
			c-21.8,0-31.8,9.7-31.9,32l-0.1,286.7"/>
		<path class="st3" d="M364.1,767.4V470.7H2.7 M2.5,132.6h870 M872.5,470.7H683.2v296.7"/>
		<line class="st3" x1="872.5" y1="399.7" x2="2.7" y2="399.7"/>
		<line class="st3" x1="2.7" y1="355" x2="872.5" y2="355"/>
		<path class="st4" d="M588.4,453.3c-9.9-126.9-99.2-221-234.3-228.8"/>
		<line class="st4" x1="354" y1="377.2" x2="436.7" y2="377.2"/>
		<path class="st4" d="M683.3,262.9c-120.7,18.8-202.5,92.2-216.7,238.6"/>
		<polygon class="st5" points="317.4,225.2 350.4,217.7 350.4,232.6 		"/>
		<polygon class="st5" points="464.2,377.2 431.3,369.7 431.3,384.7 		"/>
		<polygon class="st6" points="345.2,393.9 303.9,410.8 91.5,410.8 50,393.9 50,360.6 92.2,343.8 304,343.8 345.2,360.6 		"/>
		<polygon class="st6" points="303.5,360.5 91.8,360.5 91.8,343.7 303.5,343.7 		"/>
		<polygon class="st6" points="303.5,410.7 91.8,410.7 91.8,393.8 303.5,393.8 		"/>
		<line class="st2" x1="338.6" y1="393.9" x2="56.6" y2="393.9"/>
		<line class="st2" x1="338.6" y1="377.2" x2="56.6" y2="377.2"/>
		<line class="st2" x1="338.6" y1="360.6" x2="56.6" y2="360.6"/>
		<polygon class="st0" points="142.4,395 135,395 141.2,365.2 130.7,365.2 132,359.2 160.2,359.2 158.9,365.2 148.6,365.2 		"/>
		<path class="st0" d="M164.9,395h-7.4l7.5-35.8h15.9c2.7,0,4.9,0.3,6.4,0.8c1.5,0.6,2.8,1.6,3.7,3.1s1.4,3.3,1.4,5.4
			c0,3-0.9,5.6-2.7,7.5c-1.8,2-4.6,3.2-8.3,3.7c0.9,0.8,1.8,2,2.7,3.3c1.7,2.8,3.5,6.8,5.5,11.9h-7.9c-0.6-2-1.9-5.2-3.7-9.5
			c-1-2.3-2.1-3.9-3.2-4.7c-0.7-0.5-1.9-0.7-3.7-0.7h-3L164.9,395L164.9,395z M169.1,374.8h3.9c4,0,6.6-0.2,7.9-0.7
			c1.3-0.5,2.3-1.2,3-2.2s1.1-2.1,1.1-3.2c0-1.3-0.5-2.3-1.6-2.9c-0.6-0.4-2.1-0.6-4.2-0.6h-8.1L169.1,374.8L169.1,374.8z"/>
		<path class="st0" d="M216.9,387.1h-14.2l-4.3,7.9h-7.6l20.2-35.8h8.2L225,395h-7L216.9,387.1L216.9,387.1z M216,381.1l-2.1-14.4
			l-8.6,14.4H216L216,381.1z"/>
		<polygon class="st0" points="250.2,395 243.2,395 241.9,365.1 236.2,395 229.5,395 237,359.2 247.5,359.2 248.6,384.3 
			260.8,359.2 271.5,359.2 264,395 257.2,395 264.3,365.3 		"/>
		<path class="st7" d="M831.7,290c-11.1,1.6-26.2,4-42.3,4.1c-12.9,0-25.8,0-38.9,0c-17-1.2-30.6-0.7-43.7-4.8
			c-2.5-0.7-8.7-4.3-8.7-8.7v-33c0-5.3,6.8-6.8,8.7-7.2c13.1-3.1,26.7-4.4,43.5-4.4h39.2c15.3,0,30.6,1.6,42.2,3.8
			c3.2,0.7,8.8,1.3,8.8,8.2v33.3C840.5,290.3,836.3,289.4,831.7,290L831.7,290z"/>
		<path class="st8" d="M751.8,287.6l-15.4,2.4c-6.1-17-5.5-32.1,0-50.2l15.4,2.2C748,260.1,747.6,268.7,751.8,287.6L751.8,287.6z"/>
		<path class="st8" d="M817.2,286.7l-9.5-3.2c2.4-12.8,2.4-25.3,0.2-37.3l9.4-3.4C819.8,257,819.4,272.1,817.2,286.7L817.2,286.7z"
			/>
		<line class="st9" x1="802.1" y1="290.4" x2="757.7" y2="290.2"/>
		<line class="st9" x1="802.1" y1="239.7" x2="757.7" y2="239.5"/>
		<polygon class="st10" points="199.5,331.6 199.5,288.2 184,288.2 184,279.3 225.6,279.3 225.6,288.2 210.1,288.2 210.1,331.6 		
			"/>
		<polygon class="st5" points="463.4,522.2 459.9,488.6 474.8,490.4 		"/>
		<path class="st10" d="M753.4,222.4v-51.9h22.1c5.5,0,9.6,0.5,12.1,1.4s4.5,2.6,6,5s2.3,5.1,2.3,8.2c0,3.9-1.2,7.1-3.4,9.6
			c-2.3,2.5-6.2,5.5-9.9,6.2s-5.8,0.7-10.7,0.8H766h-2.1v20.7H753.4L753.4,222.4z M763.9,192.4h7.8c5,0,8.2-0.2,9.4-0.6
			c1.3-0.4,2.2-1.2,2.9-2.2s1.1-2.3,1.1-3.9c0-1.7-0.5-3.2-1.4-4.2c-0.9-1.1-2.3-1.7-4-2c-0.8-0.1-3.4-0.2-7.6-0.2h-8.2V192.4
			L763.9,192.4z"/>
		<path class="st11" d="M631.2,483.5v246.1h-81.5V483.5c0-6.5,5.4-12.2,12.2-12.2H619C625.8,471.3,631.2,476.7,631.2,483.5
			L631.2,483.5z"/>
		<path class="st2" d="M624.4,503v216.2h-67.7V503c0-5.9,4.5-11,10.2-11h47.4C619.8,492.1,624.4,496.9,624.4,503L624.4,503z"/>
		<path class="st8" d="M624.4,482l-6,5.1c-18.3-1.2-36.1-1.2-54.8,0l-6.9-5.1c-0.2-0.2,7-4.8,10.2-4.9c15.8-0.9,32-0.9,47.4,0
			C618.8,477.3,624.6,481.8,624.4,482L624.4,482z"/>
		<path class="st0" d="M601.5,677.8v10.5l8.5,3.2v5.6l-38.6-15V676l38.6-4.4v5.2L601.5,677.8L601.5,677.8z M595.1,678.5l-15.5,1.6
			l15.5,6.4V678.5L595.1,678.5z"/>
		<path class="st0" d="M571.4,662.9v-5.5l21,3l5.2,0.7c0.4,0,0.9,0.1,1.2,0.1c1.5,0,2.8-0.4,3.8-1.2s1.5-1.9,1.5-3.4
			c0-1.3-0.4-2.4-1.1-3.3c-0.7-0.9-1.8-1.5-3.2-2s-3.8-0.9-7.2-1.4l-21.1-3v-5.5l21.1,3c4.4,0.6,7.8,1.4,10.2,2.2s4.3,2.1,5.8,3.8
			s2.2,3.8,2.2,6.4c0,3.1-1.1,5.5-3.3,7.1s-5,2.5-8.5,2.5c-0.7,0-1.5,0-2.3-0.1c-0.6-0.1-2.2-0.3-4.8-0.6L571.4,662.9L571.4,662.9z"
			/>
		<polygon class="st0" points="609.9,630 610,635.5 577.8,630.9 577.8,638.7 571.4,637.8 571.3,616.8 577.8,617.7 577.8,625.4 		"/>
		<path class="st0" d="M594.8,617.8c-2.3,0-4.7-0.2-7.2-0.7c-3.4-0.6-6.3-1.5-8.8-2.8s-4.5-2.9-5.9-4.8c-1.5-1.9-2.2-4.1-2.2-6.6
			c0-3.3,1.5-6,4.4-8c3-2,6.9-3.1,11.8-3.1c4.1,0,8,0.6,11.8,1.9c3.8,1.3,6.7,3.1,8.8,5.4c2.1,2.3,3.1,4.8,3.1,7.7
			c0,2.5-0.8,4.6-2.4,6.2c-1.6,1.7-3.7,2.9-6.1,3.6C599.7,617.5,597.2,617.8,594.8,617.8L594.8,617.8z M594.6,612.4
			c2.7,0,4.9-0.6,6.7-1.7c1.8-1.1,2.7-2.6,2.7-4.4c0-1.5-0.7-2.9-2.1-4.3c-1.4-1.4-3.5-2.5-6.4-3.4s-5.7-1.3-8.4-1.3
			c-3,0-5.4,0.6-7.1,1.7c-1.7,1.1-2.6,2.6-2.6,4.3c0,2.7,1.8,4.8,5.4,6.5C586.3,611.6,590.3,612.4,594.6,612.4L594.6,612.4z"/>
		<path class="st0" d="M609.9,590.6l-38.6-5.5V576c0-2,0.1-3.4,0.3-4.1c0.3-1.3,0.8-2.4,1.6-3.3c0.8-0.9,1.8-1.6,3.2-2.1
			c1.3-0.5,2.8-0.7,4.4-0.7c2.1,0,4,0.4,5.6,1.2s2.8,2.1,3.6,3.8c0.5-1.4,1.5-2.4,2.9-3.2s3-1.2,4.7-1.2c2.3,0,4.5,0.4,6.6,1.3
			c2.1,0.9,3.6,2.2,4.5,3.8s1.4,3.8,1.4,6.5L609.9,590.6L609.9,590.6z M586.8,581.9v-4.2c0-1.9-0.2-3.2-0.6-4
			c-0.4-0.8-1-1.4-1.9-1.8c-0.9-0.4-1.8-0.6-2.8-0.6s-1.8,0.2-2.4,0.6c-0.6,0.4-1,0.9-1.3,1.7c-0.1,0.4-0.2,1.4-0.1,2.9v4.3
			L586.8,581.9L586.8,581.9z M603.6,584.3V579c0-2.2-0.2-3.7-0.6-4.5c-0.4-0.8-1.1-1.4-2-1.8c-1-0.5-1.9-0.7-3-0.7
			c-1.3,0-2.3,0.3-3.2,1c-0.8,0.7-1.2,1.7-1.2,3.3v6.5L603.6,584.3L603.6,584.3z"/>
		<path class="st0" d="M571.2,558.3v-5.5l21,3l5.2,0.7c0.4,0,0.9,0.1,1.2,0.1c1.5,0,2.8-0.4,3.8-1.2s1.5-1.9,1.5-3.4
			c0-1.3-0.4-2.4-1.1-3.3c-0.7-0.9-1.8-1.5-3.2-2s-3.8-0.9-7.2-1.4l-21.1-3v-5.5l21.1,3c4.4,0.6,7.8,1.4,10.2,2.2s4.3,2.1,5.8,3.8
			s2.2,3.8,2.2,6.4c0,3.1-1.1,5.5-3.3,7.1s-5,2.5-8.5,2.5c-0.7,0-1.5,0-2.3-0.1c-0.6,0-2.2-0.3-4.8-0.6L571.2,558.3L571.2,558.3z"/>
		<path class="st0" d="M597.2,536.1l-0.4-5.2c2.4-0.1,4-0.4,4.9-0.9c1.4-0.8,2-2.3,2-4.4c0-1.8-0.5-3.1-1.4-3.9
			c-0.9-0.8-2.1-1.2-3.4-1.2c-1.1,0-2.1,0.3-2.9,1c-0.6,0.5-1.5,1.7-2.8,3.8s-2.4,3.6-3.2,4.5c-0.9,0.9-2,1.7-3.4,2.3
			c-1.4,0.5-3,0.8-4.9,0.8c-3.3,0-5.9-0.8-8.1-2.4c-2.1-1.6-3.2-4-3.2-7c0-3.1,1.1-5.5,3.2-7.2c2.1-1.7,4.9-2.7,8.5-2.8l0.3,5.3
			c-1.8,0.1-3.3,0.6-4.2,1.4c-1,0.8-1.5,1.9-1.5,3.5c0,1.5,0.4,2.6,1.2,3.2c0.8,0.6,1.7,1,2.9,1c1.1,0,2-0.3,2.7-0.9
			c0.7-0.6,1.7-1.9,3-3.9c1.9-3.1,3.4-5,4.6-5.9c1.8-1.2,4-1.9,6.8-1.9c3.4,0,6.3,0.9,8.7,2.8c2.4,1.8,3.6,4.4,3.6,7.7
			c0,2.3-0.5,4.3-1.7,5.9c-1.1,1.7-2.7,2.9-4.6,3.6C602.1,535.8,599.8,536.2,597.2,536.1L597.2,536.1z"/>
		<line class="st12" x1="560.9" y1="724.4" x2="620.3" y2="724.4"/>
		<polygon class="st10" points="472.5,628.4 472.5,576.3 488.2,576.3 497.7,611.8 507,576.3 522.8,576.3 522.8,628.4 513,628.4 
			513,587.4 502.7,628.4 492.6,628.4 482.2,587.4 482.2,628.4 		"/>
	</g>
</g>
</svg>
