<?xml version="1.0" encoding="utf-8"?>
<!-- Generator: Adobe Illustrator 19.2.0, SVG Export Plug-In . SVG Version: 6.00 Build 0)  -->
<svg version="1.1" id="Livello_1" xmlns="http://www.w3.org/2000/svg" xmlns:xlink="http://www.w3.org/1999/xlink" x="0px" y="0px"
	 viewBox="0 0 875 900" style="enable-background:new 0 0 875 900;" xml:space="preserve">
<style type="text/css">
	.st0{fill:#FFFFFF;}
	.st1{fill:#B9B9B9;}
	.st2{fill:none;stroke:#1A171B;stroke-width:1.3195;stroke-miterlimit:2.6131;}
	.st3{fill:none;stroke:#1A171B;stroke-width:4.3982;stroke-miterlimit:2.6131;}
	
		.st4{fill:none;stroke:#1A171B;stroke-width:4.3982;stroke-linecap:square;stroke-miterlimit:2.6131;stroke-dasharray:21.9911,21.9911;}
	.st5{fill:#3D3D3F;stroke:#1A171B;stroke-width:1.3195;stroke-miterlimit:2.6131;}
	.st6{fill:#00A6E2;stroke:#1A171B;stroke-width:1.3195;stroke-miterlimit:2.6131;}
	.st7{fill:#E43417;stroke:#1A171B;stroke-width:1.3195;stroke-miterlimit:2.6131;}
	.st8{fill:#FFFFFF;stroke:#1A171B;stroke-width:1.3195;stroke-miterlimit:2.6131;}
	.st9{fill:none;stroke:#FFFFFF;stroke-width:4.3982;stroke-linecap:square;stroke-miterlimit:2.6131;}
	.st10{fill:#FFEC00;stroke:#1A171B;stroke-width:1.3195;stroke-miterlimit:2.6131;}
	.st11{fill:none;stroke:#1A171B;stroke-width:1.7593;stroke-miterlimit:2.6131;}
	.st12{fill:#1A171B;}
</style>
<g>
	<g>
		<polygon class="st0" points="504.4,749.4 216.2,749.4 216.2,469.5 2.7,469.5 2.7,150.6 872.5,150.6 872.5,469.5 504.4,469.5 		"/>
		<path class="st1" d="M483.8,749.4H236.7V479c0-20.8-9.1-30.2-29.9-30.2H3.4V171.2h869.1v277.6H514.8c-20.6,0-30.9,9.2-31,30.3
			V749.4L483.8,749.4z"/>
		<path class="st2" d="M236.8,749.4L236.7,479c0-20.8-9.9-30.2-30.7-30.2H2.7 M2.5,171.2h870 M872.5,448.8H514
			c-20.6,0-30,9.2-30.1,30.2l-0.1,270.4"/>
		<path class="st3" d="M216.2,749.4V469.5H2.7 M2.5,150.6h870 M872.5,469.5H504.4v279.8"/>
		<path class="st4" d="M392.6,456.1c-6.4-116.7-95-226.2-222.4-233.6"/>
		<polygon class="st5" points="135.6,223.1 166.7,216 166.7,230.2 		"/>
		<path class="st6" d="M431.5,481.6v232.1h-76.9V481.6c0-6.2,5.1-11.5,11.5-11.5h53.8C426.4,470.1,431.5,475.2,431.5,481.6
			L431.5,481.6z"/>
		<path class="st7" d="M593.1,277.9h232.1V201H593.1c-6.2,0-11.5,5.1-11.5,11.5v53.8C581.6,272.8,586.7,277.9,593.1,277.9
			L593.1,277.9z"/>
		<path class="st2" d="M425,500v203.9h-63.9V500c0-5.5,4.3-10.3,9.6-10.3h44.8C420.8,489.7,425,494.3,425,500L425,500z"/>
		<path class="st2" d="M611.5,271.4h203.9v-63.9H611.5c-5.5,0-10.3,4.2-10.3,9.6v44.7C601.2,267.1,605.8,271.4,611.5,271.4
			L611.5,271.4z"/>
		<path class="st8" d="M425,480.2l-5.7,4.9c-17.2-1.1-34.1-1.1-51.7,0l-6.5-4.9c-0.2-0.2,6.6-4.5,9.6-4.7c14.9-0.9,30.2-0.9,44.7,0
			C419.9,475.8,425.3,480,425,480.2L425,480.2z"/>
		<path class="st8" d="M591.7,271.4l4.9-5.7c-1.2-17.2-1.2-34.1,0-51.7l-4.9-6.5c-0.2-0.2-4.5,6.6-4.7,9.6
			c-0.9,14.9-0.9,30.2,0,44.7C587.3,266.2,591.5,271.6,591.7,271.4L591.7,271.4z"/>
		<path class="st0" d="M403.5,664.8v9.9l8,3v5.3l-36.3-14v-5.7l36.4-4.1v4.9L403.5,664.8L403.5,664.8z M397.5,665.5l-14.6,1.5
			l14.7,6L397.5,665.5L397.5,665.5z"/>
		<path class="st0" d="M375.1,650.8v-5.1l19.8,2.8l4.9,0.7c0.4,0,0.8,0.1,1.2,0.1c1.4,0,2.6-0.4,3.6-1.1c0.9-0.7,1.4-1.8,1.4-3.2
			c0-1.2-0.3-2.3-1-3.1s-1.7-1.4-3-1.9c-1.3-0.4-3.6-0.9-6.8-1.3l-19.9-2.8v-5.1l19.9,2.8c4.2,0.6,7.4,1.3,9.6,2.1s4,2,5.4,3.6
			s2.1,3.6,2.1,6c0,2.9-1,5.2-3.1,6.7c-2.1,1.6-4.7,2.3-8,2.3c-0.7,0-1.4,0-2.2-0.1c-0.5,0-2-0.2-4.5-0.6L375.1,650.8L375.1,650.8z"
			/>
		<polygon class="st0" points="411.5,619.7 411.5,624.9 381.2,620.6 381.2,627.9 375.1,627.1 375.1,607.3 381.1,608.2 381.2,615.4 
					"/>
		<path class="st0" d="M397.2,608.3c-2.1,0-4.4-0.2-6.8-0.7c-3.2-0.6-6-1.4-8.3-2.6c-2.4-1.2-4.2-2.7-5.6-4.5s-2.1-3.9-2.1-6.2
			c0-3.1,1.4-5.6,4.2-7.5c2.8-1.9,6.5-2.9,11.1-2.9c3.8,0,7.6,0.6,11.1,1.8c3.6,1.2,6.4,2.9,8.3,5s2.9,4.5,2.9,7.2
			c0,2.3-0.8,4.3-2.3,5.9c-1.5,1.6-3.4,2.7-5.7,3.4C401.8,607.9,399.5,608.3,397.2,608.3L397.2,608.3z M397,603.2
			c2.5,0,4.6-0.5,6.3-1.6c1.7-1.1,2.5-2.4,2.5-4.1c0-1.4-0.7-2.7-2-4s-3.3-2.3-6.1-3.2c-2.7-0.8-5.3-1.2-7.9-1.2
			c-2.9,0-5.1,0.5-6.7,1.6s-2.4,2.4-2.4,4.1c0,2.5,1.7,4.6,5.1,6.1C389.2,602.4,392.9,603.2,397,603.2L397,603.2z"/>
		<path class="st0" d="M411.4,582.6l-36.4-5.2v-8.6c0-1.9,0.1-3.2,0.2-3.9c0.3-1.2,0.7-2.3,1.5-3.1c0.7-0.9,1.7-1.5,3-2
			c1.2-0.4,2.6-0.7,4.1-0.7c2,0,3.8,0.4,5.3,1.2s2.6,2,3.4,3.6c0.5-1.3,1.4-2.3,2.7-3c1.3-0.7,2.8-1.1,4.5-1.1
			c2.2,0,4.3,0.4,6.2,1.3c2,0.9,3.4,2,4.2,3.5c0.9,1.5,1.3,3.6,1.3,6.2L411.4,582.6L411.4,582.6z M389.7,574.4v-3.9
			c0-1.8-0.2-3-0.6-3.8s-1-1.4-1.8-1.7c-0.8-0.4-1.7-0.6-2.7-0.6c-0.9,0-1.7,0.2-2.3,0.6c-0.6,0.4-1,0.9-1.2,1.6
			c-0.1,0.4-0.1,1.3-0.1,2.7v4L389.7,574.4L389.7,574.4z M405.5,576.6v-5c0-2.1-0.2-3.5-0.6-4.2s-1-1.3-1.9-1.7s-1.8-0.6-2.8-0.6
			c-1.2,0-2.2,0.3-3,0.9c-0.8,0.6-1.2,1.6-1.2,3.1v6.2L405.5,576.6L405.5,576.6z"/>
		<path class="st0" d="M374.9,552.1V547l19.8,2.8l4.9,0.7c0.4,0,0.8,0.1,1.2,0.1c1.4,0,2.6-0.4,3.6-1.1c0.9-0.7,1.4-1.8,1.4-3.2
			c0-1.2-0.3-2.3-1-3.1s-1.7-1.4-3-1.9c-1.3-0.4-3.6-0.9-6.8-1.3l-19.9-2.8v-5.1l19.9,2.8c4.2,0.6,7.4,1.3,9.6,2.1s4,2,5.4,3.6
			s2.1,3.6,2.1,6c0,2.9-1,5.2-3.1,6.7c-2.1,1.6-4.7,2.3-8,2.3c-0.7,0-1.4,0-2.2-0.1c-0.5,0-2-0.2-4.5-0.6L374.9,552.1L374.9,552.1z"
			/>
		<path class="st0" d="M399.5,531.2l-0.4-4.9c2.3-0.1,3.8-0.3,4.6-0.8c1.3-0.8,1.9-2.2,1.9-4.2c0-1.7-0.4-2.9-1.3-3.7
			s-1.9-1.1-3.2-1.1c-1.1,0-2,0.3-2.7,0.9c-0.5,0.4-1.4,1.6-2.6,3.6s-2.2,3.4-3.1,4.3c-0.8,0.9-1.9,1.6-3.2,2.1
			c-1.3,0.5-2.8,0.8-4.6,0.8c-3.1,0-5.6-0.8-7.6-2.3s-3-3.7-3-6.6c0-2.9,1-5.2,3-6.8c2-1.6,4.7-2.5,8-2.7l0.3,5
			c-1.7,0.1-3.1,0.6-4,1.3s-1.4,1.8-1.4,3.3c0,1.4,0.4,2.4,1.1,3.1c0.7,0.6,1.6,0.9,2.8,0.9c1,0,1.9-0.3,2.6-0.8
			c0.7-0.6,1.6-1.8,2.8-3.7c1.8-2.9,3.3-4.7,4.4-5.5c1.7-1.2,3.8-1.8,6.4-1.8c3.2,0,6,0.9,8.2,2.6c2.3,1.7,3.4,4.2,3.4,7.3
			c0,2.2-0.5,4-1.6,5.6c-1,1.6-2.5,2.7-4.4,3.4C404.1,531,401.9,531.3,399.5,531.2L399.5,531.2z"/>
		<path class="st0" d="M639.5,249.9h-9.9l-3,8h-5.3l14.1-36.4h5.7l4.2,36.4h-4.9L639.5,249.9L639.5,249.9z M638.9,243.8l-1.5-14.6
			l-6,14.7L638.9,243.8L638.9,243.8z"/>
		<path class="st0" d="M653.6,221.5h5.1l-2.8,19.8l-0.7,4.9c0,0.4-0.1,0.8-0.1,1.2c0,1.4,0.4,2.6,1.1,3.6c0.7,0.9,1.8,1.4,3.2,1.4
			c1.2,0,2.3-0.3,3.1-1s1.4-1.7,1.9-3c0.4-1.3,0.9-3.6,1.3-6.8l2.8-19.9h5.2l-2.8,19.9c-0.6,4.2-1.3,7.4-2.1,9.6s-2,4-3.6,5.4
			s-3.6,2.1-6.1,2.1c-2.9,0-5.2-1-6.7-3.1c-1.6-2.1-2.3-4.7-2.3-8c0-0.7,0-1.4,0.1-2.2c0-0.5,0.2-2,0.6-4.5L653.6,221.5L653.6,221.5
			z"/>
		<polygon class="st0" points="684.6,257.8 679.5,257.8 683.8,227.5 676.4,227.5 677.3,221.4 697,221.4 696.2,227.5 688.9,227.5 		
			"/>
		<path class="st0" d="M696.1,243.5c0-2.1,0.2-4.4,0.7-6.8c0.6-3.2,1.5-6,2.6-8.3c1.2-2.3,2.7-4.2,4.5-5.6c1.8-1.4,3.9-2.1,6.2-2.1
			c3.1,0,5.6,1.4,7.5,4.2s2.9,6.5,2.9,11.1c0,3.8-0.6,7.6-1.8,11.1c-1.2,3.6-2.9,6.4-5,8.3s-4.5,2.9-7.2,2.9c-2.3,0-4.3-0.8-5.9-2.3
			c-1.6-1.5-2.7-3.4-3.4-5.7C696.4,248.1,696.1,245.8,696.1,243.5L696.1,243.5z M701.2,243.4c0,2.5,0.5,4.6,1.6,6.3
			c1.1,1.7,2.4,2.5,4.1,2.5c1.4,0,2.7-0.7,4-2s2.3-3.3,3.2-6.1c0.8-2.7,1.2-5.3,1.2-7.9c0-2.9-0.5-5.1-1.6-6.7s-2.4-2.4-4.1-2.4
			c-2.5,0-4.6,1.7-6.1,5.1C702,235.5,701.2,239.3,701.2,243.4L701.2,243.4z"/>
		<path class="st0" d="M721.7,257.7l5.2-36.4h8.6c1.9,0,3.2,0.1,3.9,0.2c1.2,0.3,2.3,0.7,3.1,1.5c0.9,0.7,1.5,1.7,2,3
			c0.4,1.2,0.7,2.6,0.7,4.1c0,2-0.4,3.8-1.2,5.3s-2,2.6-3.6,3.4c1.3,0.5,2.3,1.4,3,2.7c0.7,1.3,1.1,2.8,1.1,4.5
			c0,2.2-0.4,4.3-1.3,6.2c-0.9,2-2,3.4-3.5,4.2c-1.5,0.9-3.6,1.3-6.2,1.3H721.7L721.7,257.7z M730,236h3.9c1.8,0,3-0.2,3.8-0.6
			s1.4-1,1.7-1.8c0.4-0.8,0.6-1.7,0.6-2.7c0-0.9-0.2-1.7-0.5-2.3c-0.4-0.6-0.9-1-1.6-1.2c-0.4-0.1-1.3-0.1-2.7-0.1h-4L730,236
			L730,236z M727.7,251.9h5c2.1,0,3.5-0.2,4.2-0.6s1.3-1,1.7-1.9s0.6-1.8,0.6-2.8c0-1.2-0.3-2.2-0.9-3c-0.6-0.8-1.6-1.2-3.1-1.2H729
			L727.7,251.9L727.7,251.9z"/>
		<path class="st0" d="M752.2,221.3h5.1l-2.8,19.8l-0.7,4.9c0,0.4-0.1,0.8-0.1,1.2c0,1.4,0.4,2.6,1.1,3.6c0.7,0.9,1.8,1.4,3.2,1.4
			c1.2,0,2.3-0.3,3.1-1s1.4-1.7,1.9-3c0.4-1.3,0.9-3.6,1.3-6.8l2.8-19.9h5.1l-2.8,19.9c-0.6,4.2-1.3,7.4-2.1,9.6s-2,4-3.6,5.4
			s-3.6,2.1-6,2.1c-2.9,0-5.2-1-6.7-3.1c-1.6-2.1-2.3-4.7-2.3-8c0-0.7,0-1.4,0.1-2.2c0-0.5,0.2-2,0.6-4.5L752.2,221.3L752.2,221.3z"
			/>
		<path class="st0" d="M773.1,245.8l4.9-0.4c0.1,2.3,0.3,3.8,0.8,4.6c0.8,1.3,2.2,1.9,4.2,1.9c1.7,0,2.9-0.4,3.7-1.3
			s1.1-1.9,1.1-3.2c0-1.1-0.3-2-0.9-2.7c-0.4-0.5-1.6-1.4-3.6-2.6s-3.4-2.2-4.3-3.1c-0.9-0.8-1.6-1.9-2.1-3.2
			c-0.5-1.3-0.8-2.8-0.8-4.6c0-3.1,0.8-5.6,2.3-7.6s3.7-3,6.6-3c2.9,0,5.2,1,6.8,3s2.5,4.7,2.7,8l-4.9,0.3c-0.1-1.7-0.6-3.1-1.3-4
			s-1.8-1.4-3.3-1.4c-1.4,0-2.4,0.4-3.1,1.1c-0.6,0.7-0.9,1.6-0.9,2.8c0,1,0.3,1.9,0.8,2.6c0.6,0.7,1.8,1.6,3.7,2.8
			c2.9,1.8,4.7,3.3,5.5,4.4c1.2,1.7,1.8,3.8,1.8,6.4c0,3.2-0.9,6-2.6,8.2c-1.7,2.3-4.2,3.4-7.3,3.4c-2.2,0-4-0.5-5.6-1.6
			s-2.7-2.5-3.4-4.4C773.4,250.4,773.1,248.3,773.1,245.8L773.1,245.8z"/>
		<line class="st9" x1="365.2" y1="708.8" x2="421.2" y2="708.8"/>
		<line class="st9" x1="820.3" y1="211.5" x2="820.3" y2="267.6"/>
		<polygon class="st5" points="333.6,239.5 365.2,246.7 365.2,232.3 		"/>
		<line class="st4" x1="573.1" y1="239.7" x2="369" y2="239.7"/>
		<path class="st10" d="M51.4,361.1c10.7-1.6,25.4-3.8,41.1-4c12.5,0,25.1,0,37.8,0c16.5,1.1,29.7,0.6,42.4,4.6
			c2.5,0.6,8.4,4.2,8.4,8.5v32c0,5.1-6.6,6.5-8.4,7c-12.7,3-25.9,4.3-42.2,4.3H92.4c-14.8,0-29.7-1.6-40.9-3.7
			c-3.1-0.6-8.6-1.3-8.6-8v-32.3C42.8,360.8,46.9,361.7,51.4,361.1L51.4,361.1z"/>
		<path class="st8" d="M127.6,365.1l13.9-2.2c5.4,15.2,4.9,28.8,0,45.1l-13.9-2C131,389.8,131.3,382,127.6,365.1L127.6,365.1z"/>
		<path class="st8" d="M68.9,365.9l8.6,2.9c-2.1,11.5-2.1,22.7-0.2,33.5l-8.4,3C66.5,392.6,66.9,379,68.9,365.9L68.9,365.9z"/>
		<line class="st11" x1="82.4" y1="362.5" x2="122.3" y2="362.7"/>
		<line class="st11" x1="82.4" y1="408.1" x2="122.3" y2="408.2"/>
		<polygon class="st5" points="331.1,385.1 299.6,377.9 299.6,392.3 		"/>
		<path class="st12" d="M684.6,303.7h19.7c3.9,0,6.8,0.2,8.7,0.5s3.6,1,5.1,2s2.8,2.4,3.8,4.1s1.5,3.6,1.5,5.7
			c0,2.3-0.6,4.4-1.9,6.3c-1.2,1.9-2.9,3.4-5,4.3c3,0.9,5.3,2.4,6.9,4.5c1.6,2.1,2.4,4.6,2.4,7.4c0,2.2-0.5,4.4-1.6,6.5
			c-1,2.1-2.5,3.8-4.3,5.1c-1.8,1.3-4,2-6.7,2.3c-1.6,0.2-5.6,0.3-12,0.3h-16.7L684.6,303.7L684.6,303.7z M694.6,311.9v11.4h6.5
			c3.9,0,6.3-0.1,7.2-0.2c1.7-0.2,3-0.8,4-1.8s1.5-2.3,1.5-3.8s-0.4-2.8-1.2-3.7c-0.8-0.9-2.1-1.5-3.7-1.7c-1-0.1-3.8-0.2-8.5-0.2
			L694.6,311.9L694.6,311.9z M694.6,331.5v13.1h9.2c3.6,0,5.8-0.1,6.8-0.3c1.5-0.3,2.7-0.9,3.6-2c0.9-1,1.4-2.4,1.4-4.2
			c0-1.5-0.4-2.7-1.1-3.8c-0.7-1-1.8-1.8-3.1-2.3c-1.4-0.5-4.3-0.7-8.8-0.7h-8V331.5z"/>
		<path class="st12" d="M125.8,312.7l9.6,2.9c-1.5,5.2-3.9,9-7.3,11.6c-3.4,2.5-7.7,3.8-13,3.8c-6.5,0-11.8-2.2-16-6.5
			s-6.3-10.2-6.3-17.7c0-7.9,2.1-14.1,6.3-18.4c4.2-4.4,9.7-6.6,16.6-6.6c6,0,10.8,1.7,14.6,5.2c2.2,2,3.9,4.9,5,8.8l-9.8,2.2
			c-0.6-2.5-1.8-4.4-3.6-5.8s-4.1-2.1-6.7-2.1c-3.6,0-6.6,1.3-8.8,3.8c-2.3,2.5-3.4,6.6-3.4,12.3c0,6,1.1,10.3,3.3,12.8
			c2.2,2.6,5.1,3.8,8.7,3.8c2.6,0,4.9-0.8,6.8-2.4C123.6,318.7,125,316.2,125.8,312.7L125.8,312.7z"/>
		<line class="st4" x1="190.6" y1="385.4" x2="304.7" y2="385.4"/>
		<polygon class="st12" points="284.5,618.2 284.5,569 294.3,569 294.3,588.3 313.5,588.3 313.5,569 323.3,569 323.3,618.2 
			313.5,618.2 313.5,596.7 294.3,596.7 294.3,618.2 		"/>
	</g>
</g>
</svg>
