<?xml version="1.0" encoding="utf-8"?>
<!-- Generator: Adobe Illustrator 19.2.0, SVG Export Plug-In . SVG Version: 6.00 Build 0)  -->
<svg version="1.1" id="Livello_1" xmlns="http://www.w3.org/2000/svg" xmlns:xlink="http://www.w3.org/1999/xlink" x="0px" y="0px"
	 viewBox="0 0 875 900" style="enable-background:new 0 0 875 900;" xml:space="preserve">
<style type="text/css">
	.st0{fill:#FFFFFF;}
	.st1{fill:#B9B9B9;}
	.st2{fill:#FFEC00;stroke:#1A171B;stroke-width:1.4589;stroke-miterlimit:2.6131;}
	.st3{fill:#FFFFFF;stroke:#1A171B;stroke-width:1.4589;stroke-miterlimit:2.6131;}
	.st4{fill:none;stroke:#1A171B;stroke-width:1.9452;stroke-miterlimit:2.6131;}
	.st5{fill:#E43417;stroke:#1A171B;stroke-width:1.4589;stroke-miterlimit:2.6131;}
	.st6{fill:none;stroke:#1A171B;stroke-width:1.4589;stroke-miterlimit:2.6131;}
	.st7{fill:none;stroke:#1A171B;stroke-width:4.8629;stroke-miterlimit:2.6131;}
	
		.st8{fill:none;stroke:#1A171B;stroke-width:4.8629;stroke-linecap:square;stroke-miterlimit:2.6131;stroke-dasharray:24.3147,24.3147;}
	.st9{fill:#3D3D3F;stroke:#1A171B;stroke-width:1.4589;stroke-miterlimit:2.6131;}
	.st10{fill:#409951;stroke:#1A171B;stroke-width:1.4589;stroke-miterlimit:2.6131;}
	.st11{fill:#00A6E2;stroke:#1A171B;stroke-width:1.4589;stroke-miterlimit:2.6131;}
	.st12{fill:#1A171B;}
</style>
<g>
	<g>
		<polygon class="st0" points="204.9,182.1 537.6,182.1 537.6,365.4 872.3,365.4 872.3,718 3.3,718 3.3,365.4 204.9,365.4 		"/>
		<path class="st1" d="M227,182h287.1v173c0,22.9,10.1,33.4,33.1,33.4h324.3v306.9H2.5V388.4h191.1c22.7,0,33.2-10.2,33.3-33.4
			L227,182L227,182z"/>
		<path class="st2" d="M303.6,227.6c1.9,12.4,4.4,29.5,4.6,47.6c0,14.5,0,29.1,0,43.8c-1.3,19.1-0.7,34.4-5.4,49.2
			c-0.7,2.9-4.8,9.8-9.8,9.8h-37.1c-5.9,0-7.6-7.7-8.2-9.8c-3.5-14.7-5-30-5-49V275c0-17.2,1.9-34.4,4.3-47.5c0.7-3.6,1.5-10,9.3-10
			h37.5C304,217.6,302.9,222.4,303.6,227.6L303.6,227.6z"/>
		<path class="st3" d="M299,316l2.5,16.1c-17.7,6.3-33.5,5.7-52.3,0l2.3-16.1C270.3,320,279.4,320.4,299,316L299,316z"/>
		<path class="st3" d="M298,247.9l-3.3,10c-13.4-2.5-26.3-2.5-38.9-0.2l-3.5-9.8C267.1,245.2,282.8,245.6,298,247.9L298,247.9z"/>
		<line class="st4" x1="301.9" y1="263.6" x2="301.8" y2="309.9"/>
		<line class="st4" x1="249.1" y1="263.6" x2="248.9" y2="309.9"/>
		<path class="st5" d="M383.5,227.6c1.9,12.4,4.5,29.5,4.6,47.6c0,14.5,0,29.1,0,43.8c-1.3,19.1-0.7,34.4-5.4,49.2
			c-0.7,2.9-4.8,9.8-9.8,9.8h-37.1c-5.9,0-7.6-7.7-8.2-9.8c-3.5-14.7-5-30-5-49V275c0-17.2,1.9-34.4,4.3-47.5c0.7-3.6,1.5-10,9.3-10
			h37.5C383.9,217.6,382.8,222.4,383.5,227.6L383.5,227.6z"/>
		<path class="st3" d="M378.9,316l2.5,16.1c-17.7,6.3-33.5,5.7-52.3,0l2.3-16.1C350.2,320,359.3,320.4,378.9,316L378.9,316z"/>
		<path class="st3" d="M377.9,247.9l-3.3,10c-13.4-2.5-26.3-2.5-38.9-0.2l-3.5-9.8C347,245.2,362.7,245.6,377.9,247.9L377.9,247.9z"
			/>
		<line class="st4" x1="381.8" y1="263.6" x2="381.6" y2="309.9"/>
		<line class="st4" x1="329" y1="263.6" x2="328.8" y2="309.9"/>
		<path class="st6" d="M514.9,182.1l0.2,172.9c0,22.9,10.1,33.4,33.1,33.4h324.2 M872.5,695.3H3.5 M3.5,388.4h191.1
			c22.7,0,33.2-10.2,33.3-33.4l0.1-173"/>
		<path class="st7" d="M537.8,182.1v183.3h334.5 M872.5,718H3.5 M3.5,365.4h201.6V182.1"/>
		<line class="st7" x1="2.6" y1="439.4" x2="872.3" y2="439.4"/>
		<line class="st7" x1="2.6" y1="528" x2="872.3" y2="528"/>
		<line class="st7" x1="872.3" y1="486" x2="3.3" y2="486"/>
		<line class="st7" x1="872.3" y1="574.6" x2="3.3" y2="574.6"/>
		<path class="st8" d="M358,383.6c10.4,132.3,103.5,230.5,244.3,238.6"/>
		<line class="st8" x1="528.1" y1="462.9" x2="204.9" y2="462.9"/>
		<path class="st8" d="M277.1,383.5c-21.8,47.3-41.6,39.9-111.3,40.2"/>
		<path class="st8" d="M201,583c127.5,0.5,223.7-61.6,262.5-210"/>
		<polygon class="st9" points="640.5,621.5 606.1,629.3 606.1,613.6 		"/>
		<polygon class="st9" points="142.2,423.8 176.6,431.6 176.6,416 		"/>
		<polygon class="st9" points="170,462.9 204.4,470.7 204.4,455.1 		"/>
		<polygon class="st10" points="537.3,445.5 580.5,427.9 801.9,427.9 845.2,445.5 845.2,480.2 801.2,497.8 580.4,497.8 537.3,480.2 
					"/>
		<polygon class="st10" points="580.9,480.3 801.6,480.3 801.6,497.9 580.9,497.9 		"/>
		<polygon class="st10" points="580.9,428 801.6,428 801.6,445.6 580.9,445.6 		"/>
		<line class="st6" x1="544.2" y1="445.5" x2="838.3" y2="445.5"/>
		<line class="st6" x1="544.2" y1="462.9" x2="838.3" y2="462.9"/>
		<line class="st6" x1="544.2" y1="480.2" x2="838.3" y2="480.2"/>
		<polygon class="st0" points="630.8,481.7 623.1,481.7 629.6,450.6 618.7,450.6 620,444.4 649.4,444.4 648.1,450.6 637.3,450.6 		
			"/>
		<path class="st0" d="M654.3,481.7h-7.7l7.8-37.3H671c2.8,0,5.1,0.3,6.7,0.9c1.6,0.6,2.9,1.7,3.9,3.2c1,1.6,1.5,3.4,1.5,5.7
			c0,3.2-0.9,5.8-2.9,7.9c-1.9,2.1-4.8,3.3-8.6,3.8c1,0.9,1.9,2,2.8,3.5c1.7,2.9,3.6,7.1,5.7,12.4h-8.3c-0.7-2.1-2-5.4-3.9-9.9
			c-1-2.4-2.2-4-3.4-4.9c-0.7-0.5-2-0.7-3.8-0.7h-3.2L654.3,481.7L654.3,481.7z M658.7,460.6h4.1c4.1,0,6.9-0.2,8.2-0.7
			c1.4-0.5,2.4-1.3,3.2-2.3c0.8-1.1,1.1-2.2,1.1-3.3c0-1.4-0.5-2.4-1.6-3.1c-0.7-0.4-2.2-0.6-4.4-0.6h-8.4L658.7,460.6L658.7,460.6z
			"/>
		<path class="st0" d="M708.5,473.4h-14.8l-4.5,8.3h-7.9l21.1-37.3h8.5l6.1,37.3h-7.3L708.5,473.4L708.5,473.4z M707.6,467.2
			l-2.2-15l-9,15H707.6L707.6,467.2z"/>
		<polygon class="st0" points="743.2,481.7 735.9,481.7 734.6,450.5 728.7,481.7 721.7,481.7 729.5,444.4 740.5,444.4 741.6,470.5 
			754.4,444.4 765.4,444.4 757.6,481.7 750.6,481.7 758,450.7 		"/>
		<path class="st11" d="M45.1,551.8c12.4-1.9,29.5-4.5,47.7-4.6c14.5,0,29.1,0,43.8,0c19.1,1.3,34.4,0.7,49.2,5.4
			c2.9,0.7,9.8,4.8,9.8,9.8v37.1c0,5.9-7.7,7.6-9.8,8.2c-14.7,3.5-30,5-49,5H92.6c-17.2,0-34.4-1.9-47.5-4.3c-3.6-0.7-10-1.5-10-9.3
			v-37.5C35.1,551.4,39.9,552.5,45.1,551.8L45.1,551.8z"/>
		<path class="st3" d="M133.5,556.4l16.1-2.5c6.3,17.7,5.7,33.5,0,52.3l-16.1-2.3C137.5,585,137.9,576,133.5,556.4L133.5,556.4z"/>
		<path class="st3" d="M65.4,557.3l9.9,3.3c-2.5,13.4-2.5,26.3-0.2,38.9l-9.8,3.5C62.7,588.3,63.1,572.5,65.4,557.3L65.4,557.3z"/>
		<line class="st4" x1="81.1" y1="553.4" x2="127.4" y2="553.6"/>
		<line class="st4" x1="81.1" y1="606.3" x2="127.4" y2="606.5"/>
		<path class="st12" d="M192.5,316.6h-12l-4.8-12.4h-21.8l-4.5,12.4h-11.7l21.2-54.5h11.6L192.5,316.6L192.5,316.6z M172.2,295
			l-7.5-20.2l-7.4,20.2H172.2L172.2,295z"/>
		<polygon class="st12" points="93.6,678.6 93.6,624.5 104.6,624.5 104.6,669.4 131.9,669.4 131.9,678.6 		"/>
		<polygon class="st12" points="666.2,563.6 666.2,518.3 650,518.3 650,509.1 693.3,509.1 693.3,518.3 677.2,518.3 677.2,563.6 		
			"/>
		<path class="st12" d="M442.6,296.5l10.7,3.4c-1.6,6-4.4,10.4-8.2,13.3c-3.8,2.9-8.6,4.3-14.5,4.3c-7.2,0-13.2-2.5-17.9-7.4
			c-4.7-5-7-11.7-7-20.3c0-9.1,2.3-16.1,7-21.2c4.7-5,10.8-7.5,18.5-7.5c6.7,0,12.1,2,16.3,5.9c2.5,2.3,4.3,5.7,5.6,10l-10.9,2.6
			c-0.6-2.8-2-5.1-4-6.7s-4.5-2.4-7.5-2.4c-4,0-7.3,1.4-9.8,4.4c-2.5,2.9-3.8,7.6-3.8,14.1c0,6.9,1.2,11.8,3.7,14.7
			c2.5,2.9,5.7,4.4,9.7,4.4c2.9,0,5.4-0.9,7.6-2.8C440.1,303.4,441.6,300.5,442.6,296.5L442.6,296.5z"/>
		<polygon class="st9" points="470.2,352.2 468.3,387.5 453.2,383.2 		"/>
	</g>
</g>
</svg>
