<?xml version="1.0" encoding="utf-8"?>
<!-- Generator: Adobe Illustrator 19.2.0, SVG Export Plug-In . SVG Version: 6.00 Build 0)  -->
<svg version="1.1" id="Livello_1" xmlns="http://www.w3.org/2000/svg" xmlns:xlink="http://www.w3.org/1999/xlink" x="0px" y="0px"
	 viewBox="0 0 960 960" style="enable-background:new 0 0 960 960;" xml:space="preserve">
<style type="text/css">
	.st0{fill-rule:evenodd;clip-rule:evenodd;fill:#FFFFFF;}
	.st1{fill-rule:evenodd;clip-rule:evenodd;fill:#CECFD1;}
	.st2{fill:none;stroke:#1A171B;stroke-width:1.2644;stroke-linecap:square;stroke-miterlimit:2.6131;}
	.st3{fill:none;stroke:#1A171B;stroke-width:4.2146;stroke-linecap:square;stroke-miterlimit:2.6131;}
	.st4{fill-rule:evenodd;clip-rule:evenodd;fill:#1A171B;}
	.st5{fill-rule:evenodd;clip-rule:evenodd;fill:#1A171B;stroke:#1A171B;stroke-width:1.2644;stroke-miterlimit:2.6131;}
	
		.st6{fill:none;stroke:#1A171B;stroke-width:4.2146;stroke-linecap:square;stroke-miterlimit:2.6131;stroke-dasharray:21.0731,21.0731;}
	.st7{fill-rule:evenodd;clip-rule:evenodd;fill:#FFEC00;stroke:#1A171B;stroke-width:1.2644;stroke-miterlimit:2.6131;}
	.st8{fill-rule:evenodd;clip-rule:evenodd;fill:#FFFFFF;stroke:#1A171B;stroke-width:1.2644;stroke-miterlimit:2.6131;}
	.st9{fill:none;stroke:#1A171B;stroke-width:1.6858;stroke-miterlimit:2.6131;}
	.st10{fill-rule:evenodd;clip-rule:evenodd;fill:#E43417;stroke:#1A171B;stroke-width:1.2644;stroke-miterlimit:2.6131;}
	.st11{fill-rule:evenodd;clip-rule:evenodd;fill:#00A6E2;stroke:#1A171B;stroke-width:1.2644;stroke-miterlimit:2.6131;}
</style>
<g>
	<g>
		<polygon class="st0" points="305.5,120 625.2,120 625.2,317.8 857.3,317.8 857.3,647.5 625.2,647.5 625.2,840 305.5,840 
			305.5,647.5 102.7,647.5 102.7,317.8 305.5,317.8 305.5,120 		"/>
		<path class="st1" d="M329.2,120h272.6l-0.1,187.3c-0.1,23.7,11.8,34.2,35.4,34.2h220.3v282.4H635.8c-22.3,0-34.1,10.6-34.1,34.2
			l0.1,181.9H329.2l-0.1-181.9c0-23.7-10.6-34.2-35.4-34.2h-191V341.5h192.3c23.6,0,34-10.6,34.1-34.2L329.2,120L329.2,120z"/>
		<path class="st2" d="M329.2,840l-0.1-181.9c0-23.7-10.6-34.2-35.4-34.2h-191"/>
		<polyline class="st3" points="305.5,840 305.5,647.5 102.7,647.5 		"/>
		<path class="st2" d="M857.3,623.9H635.8c-22.3,0-34.1,10.6-34.1,34.2l0.1,181.9"/>
		<polyline class="st3" points="857.3,647.5 625.2,647.5 625.2,840 		"/>
		<path class="st2" d="M601.7,120.1v187.2c-0.1,23.7,11.8,34.2,35.4,34.2h220.3"/>
		<polyline class="st3" points="625.2,120 625.2,317.8 857.3,317.8 		"/>
		<path class="st2" d="M102.7,341.5h192.3c23.6,0,34-10.6,34.1-34.2l0.1-187.3"/>
		<polyline class="st3" points="102.7,317.8 305.5,317.8 305.5,120.1 		"/>
		<path class="st4" d="M248.5,206.3h19.3c3.8,0,6.7,0.2,8.5,0.5c1.9,0.3,3.5,1,5,2c1.5,1,2.7,2.3,3.7,4c1,1.7,1.5,3.6,1.5,5.6
			c0,2.3-0.6,4.3-1.8,6.2c-1.2,1.9-2.9,3.3-4.9,4.2c2.9,0.9,5.2,2.3,6.8,4.4c1.6,2.1,2.4,4.5,2.4,7.3c0,2.2-0.5,4.3-1.5,6.4
			c-1,2.1-2.4,3.7-4.2,5c-1.8,1.2-3.9,2-6.5,2.3c-1.6,0.2-5.5,0.3-11.7,0.3h-16.4V206.3L248.5,206.3z M258.2,214.3v11.1h6.4
			c3.8,0,6.1-0.1,7.1-0.2c1.7-0.2,3-0.8,3.9-1.7c1-1,1.4-2.2,1.4-3.8c0-1.5-0.4-2.7-1.2-3.6c-0.8-0.9-2.1-1.5-3.7-1.7
			c-1-0.1-3.7-0.2-8.3-0.2H258.2L258.2,214.3z M258.2,233.4v12.9h9c3.5,0,5.7-0.1,6.7-0.3c1.4-0.3,2.6-0.9,3.5-1.9
			c0.9-1,1.4-2.4,1.4-4.1c0-1.4-0.4-2.7-1.1-3.7c-0.7-1-1.7-1.7-3-2.2c-1.3-0.5-4.2-0.7-8.6-0.7H258.2L258.2,233.4z"/>
		<polygon class="st4" points="196.6,605.7 196.6,557.5 206.1,557.5 225.8,589.7 225.8,557.5 234.8,557.5 234.8,605.7 225.1,605.7 
			205.7,574.3 205.7,605.7 196.6,605.7 		"/>
		<path class="st4" d="M516.9,237l9.4,3c-1.4,5.3-3.8,9.2-7.2,11.7c-3.4,2.5-7.6,3.8-12.8,3.8c-6.4,0-11.7-2.2-15.8-6.5
			c-4.1-4.4-6.2-10.3-6.2-17.9c0-8,2.1-14.2,6.2-18.7c4.1-4.4,9.6-6.6,16.3-6.6c5.9,0,10.7,1.7,14.4,5.2c2.2,2.1,3.8,5,4.9,8.9
			l-9.6,2.3c-0.6-2.5-1.7-4.5-3.6-5.9c-1.8-1.4-4-2.2-6.6-2.2c-3.6,0-6.5,1.3-8.7,3.8c-2.2,2.6-3.3,6.7-3.3,12.4
			c0,6.1,1.1,10.4,3.3,13c2.2,2.6,5,3.9,8.5,3.9c2.6,0,4.8-0.8,6.7-2.5C514.8,243.1,516.1,240.5,516.9,237L516.9,237z"/>
		<polygon class="st5" points="369.4,693.9 376.8,661.3 362,661.3 369.4,693.9 		"/>
		<line class="st6" x1="369.2" y1="314.5" x2="369.2" y2="659.2"/>
		<polygon class="st5" points="720.6,582.3 689,571.6 687.4,586.3 720.6,582.3 		"/>
		<path class="st6" d="M439.4,312c9.9,149.5,78.9,233.4,247.6,266.9"/>
		<path class="st7" d="M394.3,177.4c1.6,10.8,3.9,25.5,4,41.3c0,12.6,0,25.2,0,38c-1.1,16.6-0.6,29.9-4.7,42.6
			c-0.6,2.5-4.2,8.5-8.5,8.5H353c-5.1,0-6.6-6.6-7.1-8.5c-3.1-12.8-4.3-26-4.3-42.5v-38.3c0-14.9,1.6-29.9,3.7-41.1
			c0.6-3.2,1.3-8.6,8-8.6h32.5C394.6,168.8,393.6,172.9,394.3,177.4L394.3,177.4z"/>
		<path class="st8" d="M390.2,254l2.2,13.9c-15.3,5.5-29,5-45.3,0l2-13.9C365.4,257.5,373.2,257.8,390.2,254L390.2,254z"/>
		<path class="st8" d="M389.4,195l-2.9,8.6c-11.6-2.2-22.8-2.2-33.7-0.2l-3.1-8.5C362.6,192.7,376.3,193,389.4,195L389.4,195z"/>
		<line class="st9" x1="392.8" y1="208.6" x2="392.6" y2="248.7"/>
		<line class="st9" x1="347" y1="208.6" x2="346.8" y2="248.7"/>
		<path class="st10" d="M463.5,177.4c1.6,10.8,3.9,25.5,4,41.3c0,12.6,0,25.2,0,38c-1.1,16.6-0.6,29.9-4.7,42.6
			c-0.6,2.5-4.2,8.5-8.5,8.5h-32.1c-5.1,0-6.6-6.6-7.1-8.5c-3.1-12.8-4.3-26-4.3-42.5v-38.3c0-14.9,1.6-29.9,3.7-41.1
			c0.6-3.2,1.3-8.6,8-8.6H455C463.8,168.8,462.9,172.9,463.5,177.4L463.5,177.4z"/>
		<path class="st8" d="M459.5,254l2.2,13.9c-15.3,5.5-29,5-45.3,0l2-13.9C434.7,257.5,442.5,257.8,459.5,254L459.5,254z"/>
		<path class="st8" d="M458.7,195l-2.9,8.6c-11.6-2.2-22.8-2.2-33.7-0.2L419,195C431.8,192.7,445.5,193,458.7,195L458.7,195z"/>
		<line class="st9" x1="462.1" y1="208.6" x2="461.9" y2="248.7"/>
		<line class="st9" x1="416.3" y1="208.6" x2="416.1" y2="248.7"/>
		<path class="st11" d="M158.6,487.8c10.8-1.6,25.5-3.9,41.3-4c12.6,0,25.2,0,38,0c16.6,1.1,29.9,0.6,42.6,4.7
			c2.5,0.6,8.5,4.2,8.5,8.5v32.1c0,5.1-6.6,6.6-8.5,7.1c-12.8,3.1-26,4.3-42.5,4.3h-38.3c-14.9,0-29.9-1.6-41.1-3.7
			c-3.2-0.6-8.6-1.3-8.6-8v-32.5C150,487.5,154.1,488.4,158.6,487.8L158.6,487.8z"/>
		<path class="st8" d="M235.2,491.8l13.9-2.2c5.5,15.3,5,29,0,45.3l-13.9-2C238.7,516.6,239.1,508.8,235.2,491.8L235.2,491.8z"/>
		<path class="st8" d="M176.2,492.6l8.6,2.9c-2.2,11.6-2.2,22.8-0.2,33.8l-8.5,3.1C173.9,519.4,174.2,505.8,176.2,492.6L176.2,492.6
			z"/>
		<line class="st9" x1="189.8" y1="489.2" x2="229.9" y2="489.4"/>
		<line class="st9" x1="189.8" y1="535" x2="229.9" y2="535.2"/>
		<path class="st6" d="M294.1,513.3c121.5,1.4,232.8-91.3,253.4-220.9"/>
		<polygon class="st5" points="553.1,258.8 555.9,292.9 540.9,290.8 553.1,258.8 		"/>
	</g>
</g>
</svg>
