<?xml version="1.0" encoding="utf-8"?>
<!-- Generator: Adobe Illustrator 19.2.0, SVG Export Plug-In . SVG Version: 6.00 Build 0)  -->
<svg version="1.1" id="Livello_1" xmlns="http://www.w3.org/2000/svg" xmlns:xlink="http://www.w3.org/1999/xlink" x="0px" y="0px"
	 viewBox="0 0 875 900" style="enable-background:new 0 0 875 900;" xml:space="preserve">
<style type="text/css">
	.st0{fill:#FFFFFF;}
	.st1{fill:#B9B9B9;}
	.st2{fill:#3D3D3F;stroke:#1A171B;stroke-width:1.4492;stroke-miterlimit:2.6131;}
	.st3{fill:#FFFFFF;stroke:#1A171B;stroke-width:1.4492;stroke-miterlimit:2.6131;}
	.st4{fill:none;stroke:#FFFFFF;stroke-width:1.9322;stroke-miterlimit:2.6131;}
	.st5{fill:none;stroke:#1A171B;stroke-width:4.8306;stroke-miterlimit:2.6131;}
	.st6{fill:#049853;stroke:#1A171B;stroke-width:1.4492;stroke-miterlimit:2.6131;}
	.st7{fill:none;stroke:#1A171B;stroke-width:1.4492;stroke-miterlimit:2.6131;}
	.st8{fill:#1A171B;}
	.st9{fill:#E43417;stroke:#1A171B;stroke-width:1.4492;stroke-linecap:square;stroke-miterlimit:2.6131;}
	.st10{fill:#FFFFFF;stroke:#1A171B;stroke-width:1.4492;stroke-linecap:square;stroke-miterlimit:2.6131;}
	.st11{fill:none;stroke:#1A171B;stroke-width:4.8306;stroke-linecap:square;stroke-miterlimit:2.6131;}
	.st12{fill:none;stroke:#1A171B;stroke-width:1.4492;stroke-linecap:square;stroke-miterlimit:2.6131;}
	
		.st13{fill:none;stroke:#1A171B;stroke-width:4.8306;stroke-linecap:square;stroke-miterlimit:2.6131;stroke-dasharray:24.1531,24.1531;}
</style>
<g>
	<g>
		<polygon class="st0" points="189.5,267.5 2.3,267.5 2.3,726.8 189.5,726.8 189.5,786.9 469.3,786.9 469.3,726.8 871.9,726.8 
			871.9,267.5 871.7,267.5 871.7,254.7 469.3,254.7 469.3,113.1 189.5,113.1 		"/>
		<path class="st1" d="M213,254.8c0,23.6-11.9,36.7-35.2,36.5L2.3,291.1v412l175.5,0.2c23.5,0,35.2,11.5,35.2,35v48.6h232.8v-48.6
			c0-23.5,11.8-34.8,35.2-35l390.9-0.2v-412h-0.2v-12.7H481c-23.5,0-35.2-12.9-35.2-35.6V113.1H213V254.8L213,254.8z"/>
		<path class="st2" d="M291.5,150.7c1.8,11.8,4.2,27.9,4.4,45.1c0,13.8,0,27.5,0,41.5c-1.2,18.1-0.7,32.6-5.1,46.5
			c-0.7,2.7-4.6,9.2-9.3,9.2h-35.1c-5.6,0-7.2-7.2-7.7-9.2c-3.3-13.9-4.7-28.4-4.7-46.4v-41.8c0-16.3,1.8-32.6,4-44.9
			c0.7-3.4,1.4-9.4,8.8-9.4h35.4C291.8,141.3,290.8,145.9,291.5,150.7L291.5,150.7z"/>
		<path class="st3" d="M287.1,234.4l2.4,15.2c-16.7,6-31.7,5.4-49.5,0l2.2-15.2C260,238.2,268.5,238.6,287.1,234.4L287.1,234.4z"/>
		<path class="st3" d="M286.2,169.9l-3.2,9.4c-12.6-2.4-24.9-2.4-36.9-0.2l-3.3-9.2C256.9,167.4,271.8,167.8,286.2,169.9
			L286.2,169.9z"/>
		<line class="st4" x1="239.9" y1="184.8" x2="239.7" y2="228.6"/>
		<polygon class="st2" points="114.7,343.2 149.3,351.1 149.3,335.3 		"/>
		<polygon class="st2" points="114.5,467.6 149.1,475.5 149.1,459.7 		"/>
		<polygon class="st2" points="264.7,715.6 272.6,681 256.8,681 		"/>
		<line class="st5" x1="2.8" y1="450.3" x2="871.8" y2="450.3"/>
		<line class="st5" x1="2.8" y1="517.6" x2="871.8" y2="517.6"/>
		<line class="st5" x1="871.8" y1="485.7" x2="3.5" y2="485.7"/>
		<line class="st5" x1="871.8" y1="553" x2="3.5" y2="553"/>
		<polygon class="st6" points="441.9,450.1 492.4,432.5 751.9,432.5 802.6,450.1 802.6,485.2 751.1,502.9 492.3,502.9 441.9,485.2 
					"/>
		<polygon class="st6" points="492.9,485.3 751.5,485.3 751.5,503 492.9,503 		"/>
		<polygon class="st6" points="492.9,432.6 751.5,432.6 751.5,450.2 492.9,450.2 		"/>
		<line class="st7" x1="449.9" y1="450.1" x2="794.5" y2="450.1"/>
		<line class="st7" x1="449.9" y1="467.7" x2="794.5" y2="467.7"/>
		<line class="st7" x1="449.9" y1="485.2" x2="794.5" y2="485.2"/>
		<polygon class="st0" points="561.2,486.7 553.4,486.7 560,455.3 549,455.3 550.3,449 579.9,449 578.6,455.3 567.7,455.3 		"/>
		<path class="st0" d="M584.8,486.7h-7.7l7.9-37.6h16.7c2.9,0,5.1,0.3,6.7,0.9c1.6,0.6,2.9,1.7,3.9,3.2c1,1.6,1.5,3.5,1.5,5.7
			c0,3.2-1,5.8-2.9,7.9s-4.8,3.4-8.7,3.9c1,0.9,1.9,2.1,2.8,3.5c1.7,2.9,3.7,7.1,5.8,12.5h-8.3c-0.7-2.1-2-5.4-3.9-9.9
			c-1.1-2.4-2.2-4.1-3.4-4.9c-0.7-0.5-2-0.7-3.8-0.7h-3.2L584.8,486.7L584.8,486.7z M589.3,465.4h4.1c4.2,0,6.9-0.2,8.3-0.7
			c1.4-0.5,2.4-1.3,3.2-2.3c0.8-1.1,1.1-2.2,1.1-3.3c0-1.4-0.6-2.4-1.7-3.1c-0.7-0.4-2.2-0.6-4.4-0.6h-8.5L589.3,465.4L589.3,465.4z
			"/>
		<path class="st0" d="M639.5,478.3h-14.9l-4.5,8.3h-8l21.3-37.6h8.6l6.1,37.6h-7.3L639.5,478.3L639.5,478.3z M638.6,472.1
			l-2.2-15.2l-9.1,15.2H638.6L638.6,472.1z"/>
		<polygon class="st0" points="674.5,486.7 667.1,486.7 665.8,455.2 659.8,486.7 652.8,486.7 660.7,449 671.7,449 672.9,475.4 
			685.7,449 696.9,449 689,486.7 681.9,486.7 689.3,455.4 		"/>
		<path class="st8" d="M692.3,236.6h-11.9l-4.7-12.3h-21.6l-4.4,12.3h-11.6l21-53.9h11.5L692.3,236.6L692.3,236.6z M672.2,215.3
			l-7.4-20l-7.3,20H672.2L672.2,215.3z"/>
		<polygon class="st8" points="656.3,587.8 656.3,541.7 639.8,541.7 639.8,532.3 683.9,532.3 683.9,541.7 667.5,541.7 667.5,587.8 
					"/>
		<path class="st9" d="M799.8,297.8h30.4c1.2,0,2.2,1.2,2.2,2.8c0,1.5-2.2,2.8-2.2,2.8h-32.3C797.9,303.4,797.6,297.8,799.8,297.8
			L799.8,297.8z"/>
		<path class="st9" d="M709.4,297.8h30.4c1.2,0,2.3,1.2,2.3,2.8c0,1.5-2.3,2.8-2.3,2.8h-32.3C707.3,303.4,707.1,297.8,709.4,297.8
			L709.4,297.8z"/>
		<path class="st9" d="M799.8,387.5h30.4c1.2,0,2.2-1.2,2.2-2.8c0-1.5-2.2-2.8-2.2-2.8h-32.3C797.9,382,797.6,387.5,799.8,387.5
			L799.8,387.5z"/>
		<path class="st9" d="M709.4,387.5h30.4c1.2,0,2.3-1.2,2.3-2.8c0-1.5-2.3-2.8-2.3-2.8h-32.3C707.3,382,707.1,387.5,709.4,387.5
			L709.4,387.5z"/>
		<polygon class="st9" points="696.4,323.6 679.1,342.8 696.4,361.9 696.4,356.7 684.2,342.8 696.4,328.9 		"/>
		<polygon class="st9" points="695.3,300.6 843.9,300.6 843.9,384.6 695.3,384.6 		"/>
		<polygon class="st9" points="701.5,306.1 837.7,306.1 837.7,379.1 701.5,379.1 		"/>
		<path class="st9" d="M638.6,297.8H669c1.2,0,2.3,1.2,2.3,2.8c0,1.5-1.4,2.8-2.3,2.8h-32.3C636.5,303.4,636.3,297.8,638.6,297.8
			L638.6,297.8z"/>
		<polygon class="st9" points="701.5,320.6 837.7,320.6 837.7,364.8 701.5,364.8 		"/>
		<path class="st9" d="M638.6,387.5H669c1.2,0,2.3-1.2,2.3-2.8c0-1.5-1.4-2.8-2.3-2.8h-32.3C636.5,382,636.3,387.5,638.6,387.5
			L638.6,387.5z"/>
		<path class="st9" d="M538.8,387.5h30.4c1.2,0,2.3-1.2,2.3-2.8c0-1.5-1.4-2.8-2.3-2.8h-32.3C536.8,382,536.6,387.5,538.8,387.5
			L538.8,387.5z"/>
		<polygon class="st9" points="560.5,300.7 682.7,300.7 682.7,384.7 560.5,384.7 		"/>
		<path class="st9" d="M512.2,300.6v84h-2.8c-4.6,0-8.3-3.7-8.3-8.3v-67.4c0-4.6,3.7-8.3,8.3-8.3L512.2,300.6L512.2,300.6z"/>
		<path class="st9" d="M512,303.4h48.6v78.5H512c-3.7,0-7-3.1-7-7v-64.6C505,306.4,508.1,303.4,512,303.4L512,303.4z"/>
		<path class="st9" d="M526.9,308.5h24.7c1.8,0,3.4,2.3,3.4,5.2v57.8c0,3-1.5,5.3-3.4,5.3h-24.7c-1.8,0-3.2-2.5-3.4-5.3
			c-1.6-19.3-1.5-38.6,0-57.8C523.8,310.7,525.1,308.5,526.9,308.5L526.9,308.5z"/>
		<path class="st10" d="M513.1,306.6c1,0.9,6.6,4.1,6.5,5c-2.7,19.1-2.8,43,0,62.7c0.1,0.3-5.6,3.3-6.5,4.2c-1.1,1-3.3-1.8-3.5-3.8
			c-1.7-21.4-1.7-43,0-64.3C509.8,308.3,511.8,305.4,513.1,306.6L513.1,306.6z"/>
		<polygon class="st9" points="566.7,306.2 676.4,306.2 676.4,379.2 566.7,379.2 		"/>
		<polygon class="st9" points="566.7,320.7 676.4,320.7 676.4,364.9 566.7,364.9 		"/>
		<polygon class="st9" points="566.7,335.3 676.4,335.3 676.4,350.1 566.7,350.1 		"/>
		<path class="st9" d="M538.8,297.8h30.4c1.2,0,2.3,1.2,2.3,2.8c0,1.5-1.4,2.8-2.3,2.8h-32.3C536.8,303.4,536.6,297.8,538.8,297.8
			L538.8,297.8z"/>
		<polygon class="st9" points="701.5,335.4 837.7,335.4 837.7,350.1 701.5,350.1 		"/>
		<path class="st11" d="M189.5,113.1v154.5H2.7 M2.7,726.8h186.7v60.1 M469.7,786.9v-60.1h402.6 M872.1,254.7H469.7V113.1"/>
		<path class="st12" d="M213.4,113.1v141.6c0,23.6-11.9,36.7-35.2,36.5L2.7,291 M2.7,703.1l175.5,0.2c23.5,0,35.2,11.5,35.2,35v48.6
			 M446.2,786.9v-48.6c0-23.5,11.8-34.8,35.2-35l390.9-0.2 M872.1,278.4H481.4c-23.5,0-35.2-12.9-35.2-35.6V113.1"/>
		<line class="st13" x1="433" y1="467.2" x2="151" y2="467.2"/>
		<line class="st13" x1="495" y1="343.4" x2="151" y2="343.4"/>
		<line class="st13" x1="264.3" y1="297.7" x2="264.3" y2="677.5"/>
		<path class="st8" d="M317.6,209.7c0-5.6,0.8-10.2,2.5-14c1.2-2.8,2.9-5.3,5.1-7.5c2.1-2.2,4.5-3.8,7-4.9c3.4-1.5,7.3-2.2,11.8-2.2
			c8,0,14.5,2.5,19.3,7.5s7.2,11.9,7.2,20.8c0,8.8-2.4,15.7-7.2,20.7c-4.8,5-11.2,7.5-19.2,7.5c-8.1,0-14.6-2.5-19.4-7.4
			C319.9,225.2,317.6,218.3,317.6,209.7L317.6,209.7z M328.9,209.3c0,6.2,1.4,10.9,4.3,14c2.9,3.2,6.5,4.8,10.9,4.8s8-1.6,10.8-4.7
			c2.8-3.2,4.2-7.9,4.2-14.2c0-6.2-1.4-10.9-4.1-14s-6.4-4.6-10.9-4.6s-8.2,1.6-11,4.7C330.3,198.3,328.9,203,328.9,209.3
			L328.9,209.3z"/>
		<line class="st4" x1="289.9" y1="184.8" x2="289.7" y2="228.6"/>
	</g>
</g>
</svg>
