<?xml version="1.0" encoding="utf-8"?>
<!-- Generator: Adobe Illustrator 19.2.0, SVG Export Plug-In . SVG Version: 6.00 Build 0)  -->
<svg version="1.1" id="Livello_1" xmlns="http://www.w3.org/2000/svg" xmlns:xlink="http://www.w3.org/1999/xlink" x="0px" y="0px"
	 viewBox="0 0 875 900" style="enable-background:new 0 0 875 900;" xml:space="preserve">
<style type="text/css">
	.st0{fill:#FFFFFF;}
	.st1{fill:#B9B9B9;}
	.st2{fill:#00A6E2;stroke:#1A171B;stroke-width:1.4589;stroke-miterlimit:2.6131;}
	.st3{fill:#FFFFFF;stroke:#1A171B;stroke-width:1.4589;stroke-miterlimit:2.6131;}
	.st4{fill:none;stroke:#1A171B;stroke-width:1.9452;stroke-miterlimit:2.6131;}
	.st5{fill:#FFEC00;stroke:#1A171B;stroke-width:1.4589;stroke-miterlimit:2.6131;}
	.st6{fill:#E43417;stroke:#1A171B;stroke-width:1.4589;stroke-miterlimit:2.6131;}
	.st7{fill:#3D3D3F;stroke:#1A171B;stroke-width:1.4589;stroke-miterlimit:2.6131;}
	.st8{fill:none;stroke:#1A171B;stroke-width:4.863;stroke-miterlimit:2.6131;}
	.st9{fill:none;stroke:#1A171B;stroke-width:1.4589;stroke-miterlimit:2.6131;}
	
		.st10{fill:none;stroke:#1A171B;stroke-width:4.863;stroke-linecap:square;stroke-miterlimit:2.6131;stroke-dasharray:24.3151,24.3151;}
	.st11{fill:#1A171B;}
</style>
<g>
	<g>
		<polygon class="st0" points="292,138.5 2.5,138.5 2.5,273.6 87.2,358.3 2.5,358.3 2.5,658.5 385.4,658.5 487.1,761 872.4,761 
			872.4,722.8 809,658.5 872.4,658.5 872.4,358.3 510.3,358.3 		"/>
		<path class="st1" d="M257.1,138.5H2.5v100.6L112.2,349c13.6,17.2,1.8,34.3-18,34H2.5v251.5h358.3c26.9,0.1,42.6,7,58.8,24
			l101.6,102.9h351.1V758l-91.4-92c-13-14.4-7.8-30.1,13-31.4h78.5V383H536.9c-30.8,0-42.4-7.8-61.1-24.3L257.1,138.5L257.1,138.5z"
			/>
		<path class="st2" d="M159.4,558.9c12.8-1.9,30.4-4.6,49.2-4.8c15,0,30,0,45.2,0c19.8,1.3,35.6,0.8,50.8,5.6
			c3,0.8,10.1,5,10.1,10.1v38.3c0,6.1-7.9,7.8-10.1,8.4c-15.2,3.6-31,5.2-50.6,5.2h-45.6c-17.8,0-35.6-1.9-49-4.4
			c-3.8-0.8-10.3-1.5-10.3-9.6V569C149.1,558.5,154.1,559.7,159.4,558.9L159.4,558.9z"/>
		<path class="st3" d="M250.7,563.7l16.6-2.6c6.5,18.3,5.9,34.5,0,54l-16.6-2.4C254.8,593.3,255.2,583.9,250.7,563.7L250.7,563.7z"
			/>
		<path class="st3" d="M180.3,564.6l10.3,3.4c-2.6,13.8-2.6,27.2-0.2,40.2l-10.1,3.6C177.6,596.6,178,580.3,180.3,564.6L180.3,564.6
			z"/>
		<line class="st4" x1="196.5" y1="560.6" x2="244.3" y2="560.8"/>
		<line class="st4" x1="196.5" y1="615.2" x2="244.3" y2="615.4"/>
		<path class="st5" d="M67.8,164.9c10.4,7.8,24.6,18.5,37.9,31.7c10.5,10.7,21,21.4,31.7,32.3c12.9,15,24.4,25.9,31.6,40.1
			c1.5,2.7,3.5,10.7-0.2,14.3l-27.3,26.8c-4.4,4.3-11.1-0.1-13.1-1.3c-13.3-8.3-25.4-18.5-39.1-32.4l-32-32.5
			c-12.5-12.7-23.6-26.7-31.2-38c-2.1-3.2-6.1-8.4-0.4-14l27.7-27.2C60.9,157.3,63.5,161.7,67.8,164.9L67.8,164.9z"/>
		<path class="st3" d="M128.4,233.4l13.5,10c-8.5,17.4-20.5,28.4-38.5,37.8l-9.9-13.5C110.2,257.1,117.1,250.8,128.4,233.4
			L128.4,233.4z"/>
		<path class="st3" d="M78.4,183.9l4.7,9.7c-11.6,7.8-21.2,17.2-28.8,28l-9.7-4.6C53.7,204.3,65.5,193.2,78.4,183.9L78.4,183.9z"/>
		<line class="st4" x1="92.6" y1="192.6" x2="126" y2="226.9"/>
		<line class="st4" x1="53.7" y1="230.9" x2="87.1" y2="265.1"/>
		<path class="st6" d="M831.5,449c-12.8-1.9-30.4-4.6-49.2-4.8c-15,0-30,0-45.2,0c-19.7,1.3-35.6,0.8-50.8,5.6
			c-3,0.8-10.1,5-10.1,10.1v38.3c0,6.1,7.9,7.8,10.1,8.4c15.2,3.6,31,5.2,50.6,5.2h45.6c17.8,0,35.6-1.9,49-4.4
			c3.8-0.8,10.3-1.5,10.3-9.6v-38.7C841.7,448.6,836.8,449.7,831.5,449L831.5,449z"/>
		<path class="st3" d="M740.2,453.7l-16.6-2.6c-6.5,18.3-5.9,34.5,0,54l16.6-2.4C736,483.3,735.6,474,740.2,453.7L740.2,453.7z"/>
		<path class="st3" d="M810.5,454.7l-10.3,3.4c2.6,13.8,2.6,27.2,0.2,40.2l10.1,3.6C813.3,486.7,812.9,470.4,810.5,454.7
			L810.5,454.7z"/>
		<line class="st4" x1="794.3" y1="450.7" x2="746.5" y2="450.9"/>
		<line class="st4" x1="794.3" y1="505.2" x2="746.5" y2="505.4"/>
		<polygon class="st7" points="476.1,588.2 440.6,596.3 440.6,580.1 		"/>
		<polygon class="st7" points="581.6,721 552.8,698.7 565.2,688.5 		"/>
		<polygon class="st7" points="341.2,478.3 309.6,460.3 320.5,448.4 		"/>
		<polyline class="st8" points="872.4,358.3 510.3,358.3 292,138.5 		"/>
		<polyline class="st8" points="872.4,723.1 809,658.9 872.4,658.9 		"/>
		<polyline class="st8" points="2.5,658.9 385.4,658.9 487.1,761 		"/>
		<polyline class="st8" points="2.5,273.6 87.2,358.3 2.5,358.3 		"/>
		<path class="st9" d="M2.4,634.4l358.3,0.2c26.9,0.1,42.6,7,58.8,24l101.6,102.9 M872.1,758.1l-91.4-92c-13-14.4-7.8-30.1,13-31.4
			l78.5-0.2 M872.2,383.1H536.8c-30.8,0-42.4-7.8-61.1-24.3L257,138.6 M2.4,239.2l109.7,109.9c13.6,17.2,1.8,34.3-18,34H2.4"/>
		<line class="st10" x1="159" y1="302.3" x2="312.2" y2="451.8"/>
		<path class="st10" d="M664.4,480.3c-81.7-0.7-163.5,95.3-107.2,208.8"/>
		<line class="st10" x1="325.3" y1="588" x2="434.7" y2="588"/>
		<path class="st11" d="M218,224.7h-12.9l-5.1-13.4h-23.6l-4.9,13.4h-12.6l22.9-58.9h12.6L218,224.7L218,224.7z M196.2,201.4
			l-8.1-21.8l-7.9,21.8H196.2L196.2,201.4z"/>
		<path class="st11" d="M203.4,538.9V480h25c6.3,0,10.9,0.5,13.7,1.6c2.9,1.1,5.1,2.9,6.9,5.6c1.7,2.7,2.6,5.8,2.6,9.3
			c0,4.4-1.3,8.1-3.9,10.9c-2.6,2.9-6.5,4.7-11.7,5.4c2.6,1.5,4.7,3.2,6.4,4.9c1.7,1.8,3.9,5,6.8,9.6l7.2,11.5h-14.2l-8.6-12.8
			c-3.1-4.6-5.1-7.5-6.3-8.6c-1.1-1.2-2.3-2-3.6-2.5c-1.3-0.4-3.2-0.7-6-0.7h-2.4v24.6L203.4,538.9L203.4,538.9z M215.3,505h8.8
			c5.7,0,9.3-0.2,10.7-0.7c1.4-0.5,2.5-1.3,3.3-2.5s1.2-2.6,1.2-4.4c0-2-0.5-3.6-1.6-4.8s-2.5-2-4.5-2.3c-1-0.1-3.9-0.2-8.7-0.2
			h-9.3V505H215.3z"/>
		<polygon class="st11" points="761.7,585.7 761.7,536.8 744.3,536.8 744.3,526.8 791,526.8 791,536.8 773.6,536.8 773.6,585.7 		
			"/>
	</g>
</g>
</svg>
