<?xml version="1.0" encoding="utf-8"?>
<!-- Generator: Adobe Illustrator 19.2.0, SVG Export Plug-In . SVG Version: 6.00 Build 0)  -->
<svg version="1.1" id="Livello_1" xmlns="http://www.w3.org/2000/svg" xmlns:xlink="http://www.w3.org/1999/xlink" x="0px" y="0px"
	 viewBox="0 0 875 900" style="enable-background:new 0 0 875 900;" xml:space="preserve">
<style type="text/css">
	.st0{fill:#FFFFFF;}
	.st1{fill:#B9B9B9;}
	.st2{fill:#00A6E2;stroke:#1A171B;stroke-width:1.4579;stroke-miterlimit:2.6131;}
	.st3{fill:#FFFFFF;stroke:#1A171B;stroke-width:1.4579;stroke-miterlimit:2.6131;}
	.st4{fill:none;stroke:#1A171B;stroke-width:1.9439;stroke-miterlimit:2.6131;}
	.st5{fill:#FFEC00;stroke:#1A171B;stroke-width:1.4579;stroke-miterlimit:2.6131;}
	.st6{fill:#E43417;stroke:#1A171B;stroke-width:1.4579;stroke-miterlimit:2.6131;}
	.st7{fill:#3D3D3F;stroke:#1A171B;stroke-width:1.4579;stroke-miterlimit:2.6131;}
	.st8{fill:none;stroke:#1A171B;stroke-width:4.8598;stroke-linecap:square;stroke-miterlimit:2.6131;}
	.st9{fill:none;stroke:#1A171B;stroke-width:1.4579;stroke-linecap:square;stroke-miterlimit:2.6131;}
	
		.st10{fill:none;stroke:#1A171B;stroke-width:4.8598;stroke-linecap:square;stroke-miterlimit:2.6131;stroke-dasharray:24.2988,24.2988;}
	.st11{fill:#1A171B;}
</style>
<g>
	<g>
		<path class="st0" d="M335.3,802.2H57.5l205.1-206.1l17.7-18.1c12.7-14.6,12.4-40.5-12.8-40.5H2.6L2.5,290.6h284.3L286.2,98H522
			v216.5l124.1,133.4h226.4v251.3H437.8L335.3,802.2L335.3,802.2z"/>
		<path class="st1" d="M301.3,802.1H91.4l195.2-196c47.6-46,18.6-92.6-19.5-92.6H2.6v-199h275.6c23.8,0,32.5-8,32.5-32.4V98
			l187.4-0.2l-0.2,207.9c0.1,13.9,3.9,22.1,11.8,30.8l116,124.1c8.5,7.7,14.5,11.5,28.8,11.4h218v203.4H450.1
			c-20.7,0.2-25,2.6-38.9,16.3L301.3,802.1L301.3,802.1z"/>
		<path class="st2" d="M261.7,730.7c7.7-10.4,18.2-24.6,31.2-38c10.6-10.6,21.1-21.1,31.8-31.8c14.8-13,25.6-24.5,39.6-31.8
			c2.6-1.5,10.6-3.6,14.2,0l26.9,26.9c4.3,4.3,0,11.1-1.2,13c-8.1,13.3-18.2,25.5-32,39.2l-32.1,32.1
			c-12.5,12.5-26.4,23.7-37.6,31.4c-3.2,2.1-8.3,6.2-14,0.5L261.3,745C254.2,737.6,258.5,735,261.7,730.7L261.7,730.7z"/>
		<path class="st3" d="M329.3,669.8l9.9-13.5c17.4,8.3,28.5,20.1,38,38l-13.4,10C353,687.7,346.7,680.9,329.3,669.8L329.3,669.8z"/>
		<path class="st3" d="M280.5,720l9.7-4.8c7.9,11.5,17.3,20.9,28.1,28.4l-4.5,9.6C301,744.4,289.9,732.7,280.5,720L280.5,720z"/>
		<line class="st4" x1="289" y1="705.8" x2="322.8" y2="672.3"/>
		<line class="st4" x1="327.4" y1="744.2" x2="361.2" y2="710.6"/>
		<path class="st5" d="M827.7,499.9c-12.8-1.9-30.3-4.6-48.9-4.8c-14.9,0-29.9,0-45,0c-19.7,1.3-35.4,0.8-50.5,5.5
			c-3,0.8-10,5-10,10.1v38.1c0,6.1,7.9,7.8,10,8.4c15.1,3.6,30.9,5.1,50.3,5.1H779c17.7,0,35.4-1.9,48.8-4.4
			c3.7-0.8,10.2-1.5,10.2-9.5V510C838,499.5,833.1,500.7,827.7,499.9L827.7,499.9z"/>
		<path class="st3" d="M736.9,504.6l-16.5-2.6c-6.5,18.2-5.9,34.4,0,53.7l16.5-2.4C732.8,534.1,732.4,524.8,736.9,504.6L736.9,504.6
			z"/>
		<path class="st3" d="M806.9,505.6l-10.2,3.4c2.6,13.7,2.6,27.1,0.2,40l10,3.6C809.7,537.4,809.3,521.2,806.9,505.6L806.9,505.6z"
			/>
		<line class="st4" x1="790.8" y1="501.6" x2="743.2" y2="501.8"/>
		<line class="st4" x1="790.8" y1="555.9" x2="743.2" y2="556.1"/>
		<path class="st6" d="M389.1,140.5c1.9,12.8,4.6,30.3,4.8,49c0,14.9,0,29.9,0,45c-1.3,19.7-0.8,35.4-5.5,50.5
			c-0.8,2.9-5,10-10.1,10h-38.1c-6.1,0-7.8-7.9-8.4-10c-3.6-15.1-5.1-30.9-5.1-50.3v-45.4c0-17.7,1.9-35.4,4.4-48.8
			c0.8-3.7,1.5-10.2,9.5-10.2h38.5C389.4,130.3,388.3,135.2,389.1,140.5L389.1,140.5z"/>
		<path class="st3" d="M384.3,231.3l2.6,16.5c-18.2,6.5-34.4,5.9-53.7,0l2.4-16.5C354.9,235.4,364.2,235.8,384.3,231.3L384.3,231.3z
			"/>
		<path class="st3" d="M383.3,161.3l-3.4,10.2c-13.7-2.6-27-2.6-40-0.2l-3.6-10C351.5,158.6,367.7,159,383.3,161.3L383.3,161.3z"/>
		<line class="st4" x1="387.3" y1="177.4" x2="387.2" y2="225"/>
		<line class="st4" x1="333.1" y1="177.4" x2="332.9" y2="225"/>
		<polygon class="st7" points="280.9,657.6 299.1,626.3 310.9,637.2 		"/>
		<polygon class="st7" points="177.3,371.4 212.6,379.4 212.6,363.3 		"/>
		<polygon class="st7" points="444.2,217 436.1,252.3 452.2,252.3 		"/>
		<path class="st8" d="M522,98v216.5l124.1,133.4h226.4 M872.5,699.3H437.8L335.3,802.2 M57.5,802.2l205.1-206.1l17.7-18.1
			c12.7-14.6,12.4-40.5-12.8-40.5H2.5 M2.5,290.6h284.3L286.2,98"/>
		<path class="st9" d="M2.5,314.5l275.6,0.1c23.8,0,32.5-8,32.5-32.4L310.7,98 M498.1,97.9l-0.2,207.9c0.1,13.9,3.9,22.1,11.8,30.8
			l116,124.1c8.4,7.7,14.5,11.5,28.8,11.4h218 M872.5,675.3L450,675.4c-20.7,0.2-25,2.6-38.9,16.3L301.2,802.2 M91.3,802.2
			l195.2-196c47.6-46,18.6-92.6-19.5-92.6L2.5,513.5"/>
		<path class="st10" d="M359.8,304.7c8.4,92.9,34.1,238.2-53.4,324.7"/>
		<path class="st10" d="M217.1,371.4c213.4,0.5,239.6,154.1,451,159"/>
		<path class="st10" d="M396.2,637c70.2-74.7,55.5-228.1,47.3-381.5"/>
		<path class="st11" d="M797.9,630.8h-12.3l-4.9-12.7h-22.3l-4.6,12.7h-12l21.8-55.8h11.9L797.9,630.8L797.9,630.8z M777.1,608.7
			l-7.7-20.7l-7.5,20.7H777.1L777.1,608.7z"/>
		<path class="st11" d="M407.4,185.5v-55.8h23.7c6,0,10.3,0.5,13,1.5s4.9,2.8,6.5,5.3c1.6,2.6,2.4,5.5,2.4,8.8
			c0,4.2-1.2,7.7-3.7,10.4s-6.1,4.4-11.1,5.1c2.4,1.4,4.5,3,6,4.7c1.6,1.7,3.7,4.7,6.4,9.1l6.8,10.9h-13.5l-8.2-12.2
			c-2.9-4.3-4.9-7.1-5.9-8.2c-1.1-1.1-2.2-1.9-3.4-2.3c-1.2-0.4-3.1-0.6-5.7-0.6h-2.3v23.3H407.4L407.4,185.5z M418.7,153.3h8.3
			c5.4,0,8.8-0.2,10.1-0.7c1.3-0.5,2.4-1.2,3.2-2.4c0.8-1.1,1.1-2.5,1.1-4.2c0-1.9-0.5-3.4-1.5-4.6c-1-1.2-2.4-1.9-4.3-2.2
			c-0.9-0.1-3.7-0.2-8.2-0.2h-8.8L418.7,153.3L418.7,153.3z"/>
		<path class="st11" d="M234.8,755.5l10.9,3.5c-1.7,6.1-4.5,10.6-8.4,13.6c-3.9,2.9-8.8,4.4-14.8,4.4c-7.4,0-13.5-2.5-18.3-7.6
			s-7.2-12-7.2-20.8c0-9.3,2.4-16.5,7.2-21.7c4.8-5.1,11.1-7.7,18.9-7.7c6.8,0,12.4,2,16.6,6.1c2.5,2.4,4.4,5.8,5.7,10.3l-11.2,2.7
			c-0.6-2.9-2-5.2-4.1-6.9s-4.6-2.5-7.6-2.5c-4.1,0-7.5,1.5-10.1,4.5s-3.9,7.8-3.9,14.4c0,7.1,1.3,12.1,3.8,15.1
			c2.5,3,5.8,4.5,9.9,4.5c3,0,5.6-0.9,7.7-2.9C232.3,762.6,233.8,759.6,234.8,755.5L234.8,755.5z"/>
	</g>
</g>
</svg>
