<?xml version="1.0" encoding="utf-8"?>
<!-- Generator: Adobe Illustrator 19.2.0, SVG Export Plug-In . SVG Version: 6.00 Build 0)  -->
<svg version="1.1" id="Livello_1" xmlns="http://www.w3.org/2000/svg" xmlns:xlink="http://www.w3.org/1999/xlink" x="0px" y="0px"
	 viewBox="0 0 875 900" style="enable-background:new 0 0 875 900;" xml:space="preserve">
<style type="text/css">
	.st0{fill:#FFFFFF;}
	.st1{fill:#B9B9B9;}
	.st2{fill:#00A6E2;stroke:#1A171B;stroke-width:1.43;stroke-miterlimit:2.6131;}
	.st3{fill:#FFFFFF;stroke:#1A171B;stroke-width:1.43;stroke-miterlimit:2.6131;}
	.st4{fill:none;stroke:#1A171B;stroke-width:1.9067;stroke-miterlimit:2.6131;}
	.st5{fill:#FFEC00;stroke:#1A171B;stroke-width:1.43;stroke-miterlimit:2.6131;}
	.st6{fill:#E43417;stroke:#1A171B;stroke-width:1.43;stroke-miterlimit:2.6131;}
	.st7{fill:#3D3D3F;stroke:#1A171B;stroke-width:1.43;stroke-miterlimit:2.6131;}
	.st8{fill:#1A171B;}
	.st9{fill:none;stroke:#1A171B;stroke-width:4.7668;stroke-miterlimit:2.6131;}
	.st10{fill:none;stroke:#1A171B;stroke-width:1.43;stroke-miterlimit:2.6131;}
	
		.st11{fill:none;stroke:#1A171B;stroke-width:4.7668;stroke-linecap:square;stroke-miterlimit:2.6131;stroke-dasharray:23.8341,23.8341;}
</style>
<g>
	<g>
		<polygon class="st0" points="405.8,90 25.2,90 218.8,284 2.9,284 2.9,616.1 223.6,616.1 30.5,809.9 433.5,809.9 593.2,649.5 
			872.1,649.5 872.1,533.6 872,533.6 872,284 599.3,284 		"/>
		<path class="st1" d="M367.9,90H63.1l181.2,181.8c17.3,18.4,9.2,38.7-18,39H2.9v278.6h222.5c28.3,0.2,41.5,18.7,23.7,39.1
			L68.5,809.9h327.1l165.7-166.3c17.6-18.7,22.2-20.9,53.2-20.8h257.6V511.3V310.8H627.3c-36.5-0.2-40.9-3.6-65.3-26L367.9,90
			L367.9,90z"/>
		<path class="st2" d="M55,506.4c13-1.9,30.9-4.7,49.9-4.8c15.2,0,30.5,0,45.9,0c20,1.4,36.1,0.8,51.5,5.6c3,0.8,10.2,5,10.2,10.3
			v38.8c0,6.2-8,8-10.2,8.5c-15.4,3.7-31.5,5.2-51.3,5.2h-46.3c-18,0-36.1-1.9-49.7-4.5c-3.8-0.8-10.4-1.6-10.4-9.7v-39.2
			C44.6,506,49.6,507.2,55,506.4L55,506.4z"/>
		<path class="st3" d="M147.6,511.2l16.8-2.6c6.6,18.5,6,35,0,54.8l-16.8-2.4C151.8,541.2,152.2,531.8,147.6,511.2L147.6,511.2z"/>
		<path class="st3" d="M76.2,512.2l10.4,3.5c-2.6,14-2.6,27.6-0.2,40.8l-10.2,3.7C73.4,544.6,73.8,528.1,76.2,512.2L76.2,512.2z"/>
		<line class="st4" x1="92.7" y1="508.1" x2="141.1" y2="508.3"/>
		<line class="st4" x1="92.7" y1="563.5" x2="141.1" y2="563.7"/>
		<path class="st5" d="M223.2,129.4c10.6,7.9,25.1,18.6,38.7,31.9c10.7,10.8,21.5,21.6,32.4,32.5c13.2,15.2,24.9,26.1,32.4,40.4
			c1.6,2.7,3.6,10.8-0.1,14.5l-27.5,27.4c-4.4,4.4-11.3-0.1-13.3-1.2c-13.5-8.3-25.9-18.6-39.9-32.6l-32.7-32.8
			c-12.7-12.8-24.1-26.9-31.9-38.3c-2.1-3.2-6.3-8.5-0.5-14.2l27.8-27.7C216.1,121.7,218.8,126.1,223.2,129.4L223.2,129.4z"/>
		<path class="st3" d="M285.1,198.4l13.7,10.1c-8.5,17.8-20.6,29-38.8,38.7l-10.2-13.6C266.8,222.5,273.8,216.1,285.1,198.4
			L285.1,198.4z"/>
		<path class="st3" d="M234,148.5l4.9,9.8c-11.7,8-21.4,17.6-29,28.6l-9.8-4.6C209.1,169.4,221.1,158.1,234,148.5L234,148.5z"/>
		<line class="st4" x1="248.5" y1="157.3" x2="282.6" y2="191.8"/>
		<line class="st4" x1="209.3" y1="196.4" x2="243.4" y2="230.8"/>
		<path class="st6" d="M814.3,337c-13-1.9-30.9-4.7-49.9-4.9c-15.2,0-30.5,0-45.9,0c-20,1.4-36.1,0.8-51.5,5.6
			c-3,0.8-10.2,5-10.2,10.3v38.8c0,6.2,8,8,10.2,8.5c15.4,3.7,31.5,5.2,51.3,5.2h46.3c18,0,36.1-1.9,49.7-4.5
			c3.8-0.8,10.4-1.6,10.4-9.7v-39.2C824.7,336.6,819.7,337.7,814.3,337L814.3,337z"/>
		<path class="st3" d="M721.7,341.8l-16.8-2.6c-6.6,18.5-6,35,0,54.8l16.8-2.4C717.5,371.8,717.1,362.3,721.7,341.8L721.7,341.8z"/>
		<path class="st3" d="M793.1,342.8l-10.4,3.5c2.6,14,2.6,27.6,0.2,40.8l10.2,3.7C795.9,375.2,795.5,358.7,793.1,342.8L793.1,342.8z
			"/>
		<line class="st4" x1="776.6" y1="338.7" x2="728.1" y2="338.9"/>
		<line class="st4" x1="776.6" y1="394" x2="728.1" y2="394.2"/>
		<polygon class="st7" points="689.2,589.1 653.2,597.3 653.2,581 		"/>
		<polygon class="st7" points="402.1,368.8 438.1,377 438.1,360.6 		"/>
		<polygon class="st7" points="248.4,699.4 279.6,679.8 268.1,668.2 		"/>
		<path class="st8" d="M94,420.6h23c4.6,0,8,0.2,10.2,0.6c2.2,0.4,4.2,1.2,6,2.4c1.8,1.2,3.2,2.8,4.4,4.8s1.8,4.3,1.8,6.7
			c0,2.7-0.7,5.2-2.2,7.4c-1.5,2.3-3.4,3.9-5.9,5.1c3.5,1,6.2,2.8,8.1,5.2c1.9,2.5,2.8,5.4,2.8,8.7c0,2.6-0.6,5.2-1.8,7.6
			c-1.2,2.5-2.9,4.5-5,5.9c-2.1,1.5-4.7,2.4-7.8,2.7c-1.9,0.2-6.6,0.3-14,0.4H94V420.6L94,420.6z M105.7,430.2v13.3h7.6
			c4.5,0,7.4-0.1,8.5-0.2c2-0.2,3.6-0.9,4.7-2.1c1.1-1.1,1.7-2.6,1.7-4.5c0-1.8-0.5-3.2-1.5-4.3c-1-1.1-2.5-1.8-4.4-2
			c-1.2-0.1-4.5-0.2-9.9-0.2L105.7,430.2L105.7,430.2z M105.7,453.1v15.4h10.8c4.2,0,6.9-0.1,8-0.3c1.7-0.3,3.1-1.1,4.2-2.3
			c1.1-1.2,1.6-2.9,1.6-4.9c0-1.7-0.4-3.2-1.3-4.4c-0.8-1.2-2.1-2.1-3.6-2.6c-1.6-0.5-5-0.8-10.3-0.8h-9.4V453.1z"/>
		<path class="st9" d="M25.2,90.1l193.5,194H2.9 M2.9,616.2h220.7L30.5,810 M433.5,810l159.8-160.4l278.8-0.1 M872,284.1H599.2
			l-193.4-194"/>
		<path class="st10" d="M63.1,90.1l181.2,181.8c17.3,18.4,9.2,38.7-18,39H2.9 M2.9,589.5h222.5c28.3,0.2,41.5,18.7,23.7,39.1
			L68.5,810 M395.5,810l165.7-166.3c17.6-18.7,22.2-20.9,53.2-20.8H872 M872,310.9H627.3c-36.5-0.2-40.9-3.6-65.3-26L367.9,90.1"/>
		<path class="st11" d="M218.7,538.1c165.6-0.7,189.3,52,430.6,51.2"/>
		<line class="st11" x1="651.4" y1="368.7" x2="442.8" y2="368.7"/>
		<path class="st11" d="M318.6,266.2c106,136.9,41.2,304.9-41.4,404"/>
		<polygon class="st8" points="320.3,188.7 320.3,140.8 303.3,140.8 303.3,131.1 349,131.1 349,140.8 332,140.8 332,188.7 		"/>
		<path class="st8" d="M729.7,464.6l11.1-1.1c0.7,3.7,2,6.5,4.1,8.2c2,1.7,4.8,2.6,8.3,2.6c3.7,0,6.5-0.8,8.3-2.3
			c1.9-1.6,2.8-3.4,2.8-5.5c0-1.3-0.4-2.5-1.2-3.4c-0.8-1-2.1-1.8-4.1-2.5c-1.3-0.5-4.4-1.3-9.1-2.5c-6.1-1.5-10.4-3.4-12.9-5.6
			c-3.5-3.1-5.2-6.9-5.2-11.4c0-2.9,0.8-5.6,2.5-8.1c1.6-2.5,4-4.4,7.1-5.7c3.1-1.3,6.8-2,11.1-2c7.1,0,12.4,1.6,16,4.7
			s5.5,7.3,5.7,12.5l-11.4,0.5c-0.5-2.9-1.5-5-3.1-6.3s-4-1.9-7.2-1.9c-3.3,0-5.9,0.7-7.8,2c-1.2,0.9-1.8,2-1.8,3.5
			c0,1.3,0.6,2.5,1.7,3.4c1.4,1.2,4.9,2.5,10.5,3.8s9.7,2.7,12.3,4.1c2.7,1.4,4.7,3.3,6.3,5.8c1.5,2.4,2.3,5.4,2.3,9
			c0,3.2-0.9,6.3-2.7,9.1c-1.8,2.8-4.3,4.9-7.6,6.3s-7.4,2.1-12.3,2.1c-7.2,0-12.6-1.6-16.5-5C732.8,475.8,730.5,470.9,729.7,464.6
			L729.7,464.6z"/>
	</g>
</g>
</svg>
