<?xml version="1.0" encoding="utf-8"?>
<!-- Generator: Adobe Illustrator 19.2.0, SVG Export Plug-In . SVG Version: 6.00 Build 0)  -->
<svg version="1.1" id="Livello_1" xmlns="http://www.w3.org/2000/svg" xmlns:xlink="http://www.w3.org/1999/xlink" x="0px" y="0px"
	 viewBox="0 0 875 900" style="enable-background:new 0 0 875 900;" xml:space="preserve">
<style type="text/css">
	.st0{fill:#FFFFFF;}
	.st1{fill:#B9B9B9;}
	.st2{fill:#3D3D3F;stroke:#1A171B;stroke-width:1.3004;stroke-miterlimit:2.6131;}
	.st3{fill:none;stroke:#1A171B;stroke-width:4.3346;stroke-linecap:square;stroke-miterlimit:2.6131;}
	.st4{fill:none;stroke:#1A171B;stroke-width:1.3004;stroke-linecap:square;stroke-miterlimit:2.6131;}
	
		.st5{fill:none;stroke:#1A171B;stroke-width:4.3346;stroke-linecap:square;stroke-miterlimit:2.6131;stroke-dasharray:21.673,21.673;}
	.st6{fill:#00A6E2;stroke:#1A171B;stroke-width:1.3004;stroke-miterlimit:2.6131;}
	.st7{fill:#FFFFFF;stroke:#1A171B;stroke-width:1.3004;stroke-miterlimit:2.6131;}
	.st8{fill:none;stroke:#1A171B;stroke-width:1.7338;stroke-miterlimit:2.6131;}
	.st9{fill:none;stroke:#FFFFFF;stroke-width:1.7338;stroke-miterlimit:2.6131;}
	.st10{fill:#E43417;stroke:#1A171B;stroke-width:1.3004;stroke-miterlimit:2.6131;}
	.st11{fill:#1A171B;}
</style>
<g>
	<g>
		<polygon class="st0" points="277.9,308.9 49.5,308.9 49.5,610.5 277.9,610.5 277.9,810 596.9,810 596.9,610.5 825.7,610.5 
			825.7,308.9 596.9,308.9 596.9,90 277.9,90 		"/>
		<path class="st1" d="M303.3,300.2c0,26.1-7.9,35-33.7,34.9L49.4,335v249.4h220.2c25.3,0,33.7,8.7,33.7,34.7V810h267.6V619.2
			c0-26.1,9.2-34.7,34.3-34.7h220.6V335l-220.6,0.1c-26,0-34.3-9.1-34.3-34.9V90H303.3V300.2L303.3,300.2z"/>
		<polygon class="st2" points="674.8,535 639.8,543 639.8,527 		"/>
		<polygon class="st2" points="511,300.1 503.1,335.2 519,335.2 		"/>
		<polygon class="st2" points="211.1,393.7 246.1,401.7 246.1,385.8 		"/>
		<path class="st3" d="M49.4,610.5h228.5V810 M596.8,810V610.5h228.8 M825.6,308.9H596.8V90 M277.8,90v218.9H49.4"/>
		<path class="st4" d="M303.3,90v210.2c0,26.1-7.9,35-33.7,34.9L49.4,335 M49.4,584.4h220.2c25.3,0,33.7,8.7,33.7,34.7V810
			 M570.9,810V619.2c0-26.1,9.2-34.7,34.3-34.7h220.5 M825.8,335l-220.6,0.1c-26,0-34.3-9.1-34.3-34.9V90"/>
		<path class="st5" d="M385.3,280.2c0.2,138,95.1,254.4,250.5,254.4"/>
		<line class="st5" x1="599" y1="393.6" x2="249.9" y2="393.6"/>
		<line class="st5" x1="510.5" y1="617" x2="510.5" y2="340.2"/>
		<path class="st6" d="M484.6,766.5c-1.8-11.8-4.2-27.9-4.4-45.2c0-13.8,0-27.6,0-41.5c1.2-18.1,0.7-32.6,5.1-46.6
			c0.7-2.7,4.6-9.3,9.3-9.3h35.1c5.6,0,7.2,7.3,7.7,9.3c3.3,14,4.7,28.5,4.7,46.4v41.9c0,16.3-1.8,32.6-4,45
			c-0.7,3.4-1.4,9.4-8.8,9.4h-35.5C484.3,775.9,485.3,771.4,484.6,766.5L484.6,766.5z"/>
		<path class="st7" d="M489,682.7l-2.4-15.2c16.8-6,31.7-5.4,49.6,0l-2.2,15.2C516.1,678.9,507.6,678.5,489,682.7L489,682.7z"/>
		<path class="st7" d="M489.9,747.3l3.2-9.4c12.7,2.4,25,2.4,36.9,0.2l3.3,9.3C519.2,749.8,504.3,749.5,489.9,747.3L489.9,747.3z"/>
		<line class="st8" x1="486.2" y1="732.4" x2="486.4" y2="688.5"/>
		<line class="st8" x1="536.3" y1="732.4" x2="536.4" y2="688.5"/>
		<path class="st2" d="M411.1,132.5c1.8,11.8,4.2,27.9,4.4,45.2c0,13.8,0,27.6,0,41.5c-1.2,18.1-0.7,32.6-5.1,46.6
			c-0.7,2.7-4.6,9.3-9.3,9.3H366c-5.6,0-7.2-7.3-7.7-9.3c-3.3-14-4.7-28.5-4.7-46.4v-41.9c0-16.3,1.8-32.6,4-45
			c0.7-3.4,1.4-9.4,8.8-9.4h35.5C411.4,123,410.4,127.6,411.1,132.5L411.1,132.5z"/>
		<path class="st7" d="M406.7,216.2l2.4,15.2c-16.8,6-31.7,5.4-49.6,0l2.2-15.2C379.6,220.1,388.1,220.4,406.7,216.2L406.7,216.2z"
			/>
		<path class="st7" d="M405.8,151.7l-3.2,9.4c-12.7-2.4-25-2.4-36.9-0.2l-3.3-9.2C376.5,149.1,391.4,149.5,405.8,151.7L405.8,151.7z
			"/>
		<line class="st9" x1="409.5" y1="166.6" x2="409.3" y2="210.4"/>
		<line class="st9" x1="359.4" y1="166.6" x2="359.3" y2="210.4"/>
		<path class="st10" d="M747.6,365.7c-11.8-1.8-27.9-4.2-45.2-4.4c-13.8,0-27.6,0-41.5,0c-18.1,1.2-32.6,0.7-46.6,5.1
			c-2.7,0.7-9.2,4.6-9.2,9.3v35.1c0,5.6,7.3,7.2,9.2,7.7c14,3.3,28.5,4.7,46.4,4.7h41.9c16.3,0,32.6-1.8,45-4
			c3.4-0.7,9.4-1.4,9.4-8.8V375C757,365.3,752.5,366.4,747.6,365.7L747.6,365.7z"/>
		<path class="st7" d="M663.8,370l-15.2-2.4c-6,16.8-5.4,31.7,0,49.6l15.2-2.2C660,397.2,659.6,388.6,663.8,370L663.8,370z"/>
		<path class="st7" d="M728.4,370.9l-9.4,3.2c2.4,12.6,2.4,25,0.2,36.9l9.2,3.3C730.9,400.3,730.6,385.3,728.4,370.9L728.4,370.9z"
			/>
		<line class="st8" x1="713.5" y1="367.2" x2="669.6" y2="367.4"/>
		<line class="st8" x1="713.5" y1="417.3" x2="669.6" y2="417.5"/>
		<path class="st11" d="M466,735h-11.3l-4.5-11.7h-20.6l-4.2,11.7h-11l20.1-51.5h11L466,735L466,735z M446.9,714.6l-7.1-19.1
			l-7,19.1H446.9L446.9,714.6z"/>
		<path class="st11" d="M667.8,493.7v-51.5h21.9c5.5,0,9.5,0.5,12,1.4s4.5,2.6,6,4.9c1.5,2.4,2.2,5.1,2.2,8.1c0,3.9-1.1,7.1-3.4,9.6
			c-2.3,2.5-5.7,4.1-10.2,4.8c2.3,1.3,4.1,2.8,5.6,4.3c1.5,1.6,3.4,4.4,5.9,8.4l6.3,10.1h-12.4l-7.5-11.2c-2.7-4-4.5-6.5-5.5-7.6
			c-1-1-2-1.8-3.1-2.1c-1.1-0.4-2.8-0.6-5.2-0.6h-2.1v21.5L667.8,493.7L667.8,493.7z M678.2,464h7.7c5,0,8.1-0.2,9.4-0.6
			c1.2-0.4,2.2-1.1,2.9-2.2c0.7-1,1.1-2.3,1.1-3.9c0-1.7-0.5-3.1-1.4-4.2s-2.2-1.7-3.9-2c-0.8-0.1-3.4-0.2-7.6-0.2h-8.1V464H678.2z"
			/>
		<polygon class="st11" points="436.3,220.7 436.3,169.2 446.4,169.2 467.5,203.6 467.5,169.2 477.2,169.2 477.2,220.7 466.7,220.7 
			446,187.1 446,220.7 		"/>
	</g>
</g>
</svg>
