<?xml version="1.0" encoding="utf-8"?>
<!-- Generator: Adobe Illustrator 19.2.0, SVG Export Plug-In . SVG Version: 6.00 Build 0)  -->
<svg version="1.1" id="Livello_1" xmlns="http://www.w3.org/2000/svg" xmlns:xlink="http://www.w3.org/1999/xlink" x="0px" y="0px"
	 viewBox="0 0 875 900" style="enable-background:new 0 0 875 900;" xml:space="preserve">
<style type="text/css">
	.st0{fill:#FFFFFF;}
	.st1{fill:#B9B9B9;}
	.st2{fill:#00A6E2;stroke:#1A171B;stroke-width:1.457;stroke-miterlimit:2.6131;}
	.st3{fill:#FFFFFF;stroke:#1A171B;stroke-width:1.457;stroke-miterlimit:2.6131;}
	.st4{fill:none;stroke:#1A171B;stroke-width:1.9427;stroke-miterlimit:2.6131;}
	.st5{fill:#FFEC00;stroke:#1A171B;stroke-width:1.457;stroke-miterlimit:2.6131;}
	.st6{fill:#E43417;stroke:#1A171B;stroke-width:1.457;stroke-miterlimit:2.6131;}
	.st7{fill:#3D3D3F;stroke:#1A171B;stroke-width:1.457;stroke-miterlimit:2.6131;}
	.st8{fill:#1A171B;}
	.st9{fill:none;stroke:#1A171B;stroke-width:4.8568;stroke-linecap:square;stroke-miterlimit:2.6131;}
	.st10{fill:none;stroke:#1A171B;stroke-width:1.457;stroke-linecap:square;stroke-miterlimit:2.6131;}
	
		.st11{fill:none;stroke:#1A171B;stroke-width:4.8568;stroke-linecap:square;stroke-miterlimit:2.6131;stroke-dasharray:24.2839,24.2839;}
</style>
<g>
	<g>
		<polygon class="st0" points="611.3,806.6 331.8,806.6 293.9,677.2 2.4,677.2 2.4,320.5 188.9,320.5 121.9,93.2 401.5,93.2 
			468.4,320.5 872.4,320.5 872.4,677.2 573.3,677.2 		"/>
		<path class="st1" d="M582.9,806.7H360.3L325.6,688c-9.2-29.7-14.5-38.1-46-38.1H2.4V347.7h179.9c28.4,0,37.1-15.2,32.5-36.5
			l-4.1-13.7L150.4,93.1h222.5l63.9,216.8c9.1,26.9,10.2,37.7,41.8,37.7h393.8v302.3h-292c-31.1,0-40.3,12.7-32.1,39L582.9,806.7
			L582.9,806.7z"/>
		<path class="st2" d="M78.8,560.8c13.3-2,31.5-4.7,50.9-5c15.5,0,31,0,46.8,0c20.4,1.4,36.8,0.8,52.5,5.7
			c3.1,0.8,10.4,5.1,10.4,10.5v39.6c0,6.3-8.2,8.1-10.4,8.7c-15.7,3.8-32.1,5.3-52.3,5.3h-47.2c-18.4,0-36.8-2-50.7-4.6
			c-3.9-0.8-10.6-1.6-10.6-9.9v-40C68.2,560.4,73.3,561.5,78.8,560.8L78.8,560.8z"/>
		<path class="st3" d="M173.2,565.7l17.2-2.7c6.7,18.9,6.1,35.7,0,55.8l-17.2-2.5C177.5,596.3,177.9,586.6,173.2,565.7L173.2,565.7z
			"/>
		<path class="st3" d="M100.5,566.7l10.6,3.6c-2.7,14.2-2.7,28.1-0.2,41.6l-10.4,3.8C97.6,599.7,98,582.9,100.5,566.7L100.5,566.7z"
			/>
		<line class="st4" x1="117.2" y1="562.5" x2="166.6" y2="562.7"/>
		<line class="st4" x1="117.2" y1="618.9" x2="166.6" y2="619.1"/>
		<path class="st5" d="M244.7,127.1c6.2,11.9,14.8,28.2,21.3,46.4c5.1,14.7,10.2,29.3,15.3,44.2c5.4,19.8,11.3,35,11.8,51.5
			c0.3,3.2-1.5,11.5-6.5,13.3l-37.4,13c-6,2.1-10.3-5.1-11.6-7c-8.7-13.6-15.5-28.6-22.2-47.7L200,196.2
			c-6-17.4-10.2-35.4-12.3-49.4c-0.5-3.9-2-10.6,5.9-13.3l37.8-13.1C241.6,116.9,242.2,122.1,244.7,127.1L244.7,127.1z"/>
		<path class="st3" d="M270.9,217.8l8.1,15.3c-15.6,12.5-31.7,17.5-52.8,18.3l-3.3-17C243.4,231.9,252.7,229.1,270.9,217.8
			L270.9,217.8z"/>
		<path class="st3" d="M246.2,149.5l0.1,11.2c-14.3,2.2-27.4,6.7-39.3,13.4l-7-8.6C214,157.6,230.1,152.5,246.2,149.5L246.2,149.5z"
			/>
		<line class="st4" x1="255.6" y1="163.9" x2="271.6" y2="210.7"/>
		<line class="st4" x1="202.3" y1="182.4" x2="218.3" y2="229.2"/>
		<path class="st6" d="M780.6,430.2c-13.3-2-31.5-4.7-50.9-5c-15.5,0-31,0-46.8,0c-20.4,1.4-36.8,0.8-52.5,5.7
			c-3.1,0.8-10.4,5.1-10.4,10.5V481c0,6.3,8.2,8.1,10.4,8.7c15.7,3.8,32.1,5.3,52.3,5.3h47.2c18.4,0,36.8-2,50.7-4.5
			c3.9-0.8,10.6-1.6,10.6-9.9v-40C791.2,429.8,786.1,431,780.6,430.2L780.6,430.2z"/>
		<path class="st3" d="M686.2,435.1l-17.2-2.7c-6.7,18.9-6.1,35.7,0,55.8l17.2-2.5C682,465.7,681.5,456,686.2,435.1L686.2,435.1z"/>
		<path class="st3" d="M759,436.1l-10.6,3.6c2.7,14.2,2.7,28.1,0.2,41.6l10.4,3.8C761.8,469.2,761.4,452.3,759,436.1L759,436.1z"/>
		<line class="st4" x1="742.2" y1="432" x2="692.8" y2="432.2"/>
		<line class="st4" x1="742.2" y1="488.4" x2="692.8" y2="488.6"/>
		<polygon class="st7" points="641.3,573.1 603.8,576.7 606,560.1 		"/>
		<polygon class="st7" points="487.2,590.5 450.5,598.8 450.5,582.1 		"/>
		<polygon class="st7" points="414.4,768 414.7,730.4 398.4,734 		"/>
		<polygon class="st8" points="132.1,545.1 132.1,487.5 143.9,487.5 143.9,535.3 173,535.3 173,545.1 		"/>
		<polygon class="st8" points="694.2,415.9 694.2,357.9 706,357.9 706,380.7 728.9,380.7 728.9,357.9 740.6,357.9 740.6,415.9 
			728.9,415.9 728.9,390.6 706,390.6 706,415.9 		"/>
		<path class="st8" d="M327.3,190.1l11.3,3.6c-1.7,6.3-4.6,11-8.7,14.1c-4,3.1-9.2,4.6-15.4,4.6c-7.7,0-14-2.6-19-7.9
			c-5-5.3-7.4-12.5-7.4-21.6c0-9.7,2.5-17.2,7.5-22.5s11.5-8,19.7-8c7.1,0,12.9,2.1,17.3,6.3c2.6,2.5,4.6,6,5.9,10.7l-11.6,2.8
			c-0.7-3-2.1-5.4-4.3-7.1c-2.2-1.7-4.8-2.6-7.9-2.6c-4.3,0-7.8,1.5-10.5,4.6s-4,8.1-4,15c0,7.3,1.3,12.6,4,15.7
			c2.6,3.1,6.1,4.7,10.3,4.7c3.1,0,5.8-1,8-3S326.3,194.4,327.3,190.1L327.3,190.1z"/>
		<path class="st9" d="M401.5,93.4l67,227.2l404-0.1 M872.4,677.3H573.3l37.9,129.4 M331.8,806.7l-37.9-129.4H2.4 M2.4,320.6h186.5
			l-67-227.2"/>
		<path class="st10" d="M2.4,347.7h179.9c28.4,0,37.1-15.2,32.5-36.5l-4.1-13.7L150.4,93.1 M372.9,93.2l63.9,216.7
			c9.1,26.9,10.2,37.7,41.8,37.7h393.8 M872.4,649.9h-292c-31.1,0-40.3,12.7-32.1,39l34.6,117.8 M360.3,806.7L325.6,688
			c-9.2-29.7-14.5-38.1-46-38.1H2.4"/>
		<path class="st11" d="M272.9,294.6C320,424.7,406.2,510.8,599.2,566.9"/>
		<path class="st11" d="M614.5,461.3C483.4,465,379.4,567.5,406.1,726.2"/>
		<line class="st11" x1="245.8" y1="590.8" x2="444.8" y2="590.8"/>
	</g>
</g>
</svg>
