<?xml version="1.0" encoding="utf-8"?>
<!-- Generator: Adobe Illustrator 19.2.0, SVG Export Plug-In . SVG Version: 6.00 Build 0)  -->
<svg version="1.1" id="Livello_1" xmlns="http://www.w3.org/2000/svg" xmlns:xlink="http://www.w3.org/1999/xlink" x="0px" y="0px"
	 viewBox="0 0 960 960" style="enable-background:new 0 0 960 960;" xml:space="preserve">
<style type="text/css">
	.st0{fill-rule:evenodd;clip-rule:evenodd;fill:#FFFFFF;}
	.st1{fill-rule:evenodd;clip-rule:evenodd;fill:#CECFD1;}
	
		.st2{fill:none;stroke:#1A171B;stroke-width:4.8307;stroke-linecap:square;stroke-miterlimit:2.6131;stroke-dasharray:24.1533,24.1533;}
	.st3{fill-rule:evenodd;clip-rule:evenodd;fill:#1A171B;stroke:#1A171B;stroke-width:1.4492;stroke-miterlimit:2.6131;}
	.st4{fill:none;stroke:#1A171B;stroke-width:4.8307;stroke-miterlimit:2.6131;}
	.st5{fill:none;stroke:#1A171B;stroke-width:1.4492;stroke-miterlimit:2.6131;}
	
		.st6{fill-rule:evenodd;clip-rule:evenodd;fill:#FFFFFF;stroke:#1A171B;stroke-width:1.4492;stroke-linecap:square;stroke-miterlimit:2.6131;}
	.st7{fill-rule:evenodd;clip-rule:evenodd;fill:#E43417;stroke:#1A171B;stroke-width:1.4492;stroke-miterlimit:2.6131;}
	.st8{fill-rule:evenodd;clip-rule:evenodd;fill:#FFFFFF;stroke:#1A171B;stroke-width:1.4492;stroke-miterlimit:2.6131;}
	.st9{fill:none;stroke:#1A171B;stroke-width:1.9323;stroke-miterlimit:2.6131;}
	.st10{fill-rule:evenodd;clip-rule:evenodd;fill:#FFEC00;stroke:#1A171B;stroke-width:1.4492;stroke-miterlimit:2.6131;}
	.st11{fill-rule:evenodd;clip-rule:evenodd;fill:#1A171B;}
	.st12{fill-rule:evenodd;clip-rule:evenodd;fill:#00A7DC;stroke:#1A171B;stroke-width:1.4492;stroke-miterlimit:2.6131;}
</style>
<g>
	<g>
		<polygon class="st0" points="296.5,150.3 623.8,150.3 623.8,260.5 915,260.5 915,617.3 623.8,617.3 623.8,809.6 296.5,809.6 
			296.5,617.3 45,617.3 45,260.5 296.5,260.5 296.5,150.3 		"/>
		<path class="st1" d="M320.3,150.3h279.5l-0.1,98.3c-0.1,24.3,12,36,35.9,36H915v308.6H635.6c-24,0-36,12.3-35.9,36l0.1,180.3
			H320.3V629.2c0-24.1-12.9-36-35.8-36H45V284.6h239.5c23.9,0,35.8-11.8,35.8-36V150.3L320.3,150.3z"/>
		<path class="st2" d="M284.8,487.6C406,472.9,515.7,378.2,523.4,244.9"/>
		<polygon class="st3" points="522.7,206.9 530.5,241.1 514.9,241.1 522.7,206.9 		"/>
		<path class="st4" d="M45,260.5l251.5,0.1l-0.1-110.3 M623.8,150.4v110.2l291.2-0.1 M915,617.4H623.8l-0.1,192.3 M296.5,809.7
			l0.1-192.3L45,617.3"/>
		<path class="st5" d="M45,284.6l239.5,0.1c23.9,0,35.8-11.8,35.8-36v-98.3 M599.7,150.3v98.3c-0.1,24.3,12,36,35.9,36H915
			 M915,593.2l-278.2-1.1c-24,0-37.2,13.5-37.1,37.2l0.1,180.3 M320.3,809.7V629.3c0-24.1-15.2-37.2-38.2-37.2L45,593.2"/>
		<path class="st6" d="M273.5,452.6l-36.4-2.8v75.5l36.4-2.8c2.7-0.2,5.2-2.7,5.2-6.2v-57.6C278.7,455.3,276.4,452.8,273.5,452.6
			L273.5,452.6z"/>
		<path class="st6" d="M266.9,459.9c-1.2,0.7-7.7,3.2-7.6,3.9c3.1,14.7,3.3,33.1,0,48.3c-0.1,0.2,6.5,2.5,7.6,3.2
			c1.3,0.8,3.9-1.4,4.1-2.9c2-16.5,2-33.1,0-49.5C270.8,461.2,268.4,459,266.9,459.9L266.9,459.9z"/>
		<polygon class="st6" points="237.2,447.2 102,447.2 102,528 237.2,528 237.2,447.2 		"/>
		<polygon class="st6" points="231,452.5 108.3,452.5 108.3,522.7 231,522.7 231,452.5 		"/>
		<path class="st7" d="M815.7,434.3c-11.6,1.7-27.4,4.1-44.3,4.3c-13.5,0-27,0-40.7,0c-17.8-1.2-32-0.7-45.7-5
			c-2.7-0.7-9.1-4.5-9.1-9.1V390c0-5.5,7.1-7.1,9.1-7.6c13.7-3.3,27.9-4.7,45.5-4.7h41.1c16,0,32,1.7,44.1,4
			c3.4,0.7,9.3,1.4,9.3,8.6v34.8C824.9,434.7,820.5,433.6,815.7,434.3L815.7,434.3z"/>
		<path class="st8" d="M733.5,430l-14.9,2.3c-5.9-16.4-5.3-31.1,0-48.6l14.9,2.1C729.8,403.4,729.4,411.8,733.5,430L733.5,430z"/>
		<path class="st8" d="M796.8,429.2l-9.3-3.1c2.3-12.4,2.3-24.5,0.2-36.2l9.1-3.3C799.3,400.4,799,415,796.8,429.2L796.8,429.2z"/>
		<line class="st9" x1="782.3" y1="432.8" x2="739.2" y2="432.6"/>
		<line class="st9" x1="782.3" y1="383.7" x2="739.2" y2="383.5"/>
		<path class="st10" d="M506.4,718c-1.7-11.6-4.2-27.5-4.3-44.5c0-13.6,0-27.2,0-41c1.2-17.9,0.7-32.2,5-46c0.7-2.7,4.5-9.1,9.2-9.1
			H551c5.5,0,7.1,7.1,7.6,9.1c3.3,13.8,4.7,28.1,4.7,45.8v41.3c0,16.1-1.7,32.2-4,44.4c-0.7,3.4-1.4,9.3-8.7,9.3h-35
			C506.1,727.3,507.1,722.9,506.4,718L506.4,718z"/>
		<path class="st8" d="M510.8,635.4l-2.3-15c16.5-5.9,31.3-5.4,48.9,0l-2.2,15C537.5,631.7,529.1,631.3,510.8,635.4L510.8,635.4z"/>
		<path class="st8" d="M511.6,699.1l3.1-9.3c12.5,2.3,24.6,2.3,36.4,0.2l3.3,9.1C540.6,701.6,525.9,701.2,511.6,699.1L511.6,699.1z"
			/>
		<line class="st9" x1="508" y1="684.4" x2="508.2" y2="641.1"/>
		<line class="st9" x1="557.4" y1="684.4" x2="557.6" y2="641.1"/>
		<path class="st11" d="M217.6,429.2H205l-5-13h-23l-4.7,13H160l22.4-57.4h12.3L217.6,429.2L217.6,429.2z M196.2,406.5l-7.9-21.3
			l-7.8,21.3H196.2L196.2,406.5z"/>
		<polygon class="st11" points="426.8,684 426.8,626.6 444.2,626.6 454.6,665.8 464.9,626.6 482.3,626.6 482.3,684 471.5,684 
			471.5,638.8 460.1,684 449,684 437.6,638.8 437.6,684 426.8,684 		"/>
		<path class="st11" d="M737.3,501.3l11.3-1.1c0.7,3.8,2,6.6,4.1,8.4c2.1,1.8,4.9,2.7,8.4,2.7c3.7,0,6.6-0.8,8.4-2.4
			c1.9-1.6,2.8-3.4,2.8-5.5c0-1.4-0.4-2.5-1.2-3.5c-0.8-1-2.2-1.8-4.2-2.5c-1.3-0.5-4.5-1.3-9.3-2.5c-6.2-1.5-10.6-3.4-13.1-5.7
			c-3.5-3.2-5.3-7-5.3-11.6c0-2.9,0.8-5.7,2.5-8.2c1.7-2.5,4-4.5,7.2-5.8c3.1-1.3,6.9-2,11.3-2c7.2,0,12.6,1.6,16.3,4.7
			c3.6,3.2,5.5,7.4,5.7,12.7l-11.6,0.5c-0.5-3-1.6-5.1-3.2-6.4c-1.6-1.3-4.1-1.9-7.3-1.9c-3.4,0-6,0.7-7.9,2.1
			c-1.2,0.9-1.8,2.1-1.8,3.6c0,1.4,0.6,2.5,1.7,3.5c1.5,1.2,5,2.5,10.7,3.8c5.6,1.3,9.8,2.7,12.5,4.1c2.7,1.4,4.8,3.4,6.3,5.8
			c1.5,2.5,2.3,5.5,2.3,9.1c0,3.3-0.9,6.4-2.7,9.2c-1.8,2.9-4.4,5-7.8,6.4c-3.3,1.4-7.5,2.1-12.5,2.1c-7.3,0-12.8-1.7-16.7-5
			C740.4,512.7,738,507.8,737.3,501.3L737.3,501.3z"/>
		<path class="st12" d="M169.4,473.7c7.7,0,14,6.3,14,14c0,7.7-6.3,14-14,14c-7.7,0-14-6.3-14-14C155.4,480,161.7,473.7,169.4,473.7
			L169.4,473.7z"/>
		<path class="st2" d="M668.4,409.6c-142,7-277.4,105.5-285.4,257"/>
		<polygon class="st3" points="383.7,704.6 375.9,670.5 391.5,670.5 383.7,704.6 		"/>
		<polygon class="st3" points="533,378.6 525.1,413.3 540.9,413.3 533,378.6 		"/>
		<line class="st2" x1="533.3" y1="573.8" x2="533.3" y2="407.6"/>
		<path class="st11" d="M110.7,566.1l-8.3,0l-2.5,6.7l-4.4,0l11.7-30.3l4.8,0l3.5,30.2l-4.1,0L110.7,566.1L110.7,566.1z
			 M110.1,561.1l-1.2-12.2l-5,12.2L110.1,561.1L110.1,561.1z"/>
		<polygon class="st11" points="130.1,572.8 126,572.8 125.2,547.5 121.9,572.8 118.1,572.8 122.3,542.5 128.5,542.5 129.1,563.7 
			136.2,542.5 142.4,542.5 138.1,572.8 134.2,572.8 138.2,547.7 130.1,572.8 		"/>
		<path class="st11" d="M142.3,572.8l4.3-30.3l7.1,0c1.5,0,2.6,0.1,3.2,0.2c1,0.2,1.9,0.6,2.6,1.2c0.7,0.6,1.3,1.4,1.6,2.5
			c0.4,1,0.6,2.2,0.6,3.4c0,1.7-0.3,3.1-1,4.4c-0.6,1.2-1.6,2.2-3,2.8c1.1,0.4,1.9,1.2,2.5,2.3c0.6,1.1,0.9,2.3,0.9,3.7
			c0,1.8-0.3,3.5-1.1,5.2c-0.7,1.6-1.7,2.8-2.9,3.5c-1.3,0.7-3,1.1-5.1,1.1L142.3,572.8L142.3,572.8z M149.2,554.7l3.3,0
			c1.5,0,2.5-0.2,3.2-0.5c0.6-0.3,1.1-0.8,1.4-1.5c0.3-0.7,0.5-1.4,0.5-2.2c0-0.8-0.2-1.4-0.5-1.9c-0.3-0.5-0.7-0.8-1.3-1
			c-0.3-0.1-1.1-0.1-2.3-0.1l-3.3,0L149.2,554.7L149.2,554.7z M147.3,567.9l4.1,0c1.7,0,2.9-0.2,3.5-0.5c0.6-0.3,1.1-0.9,1.4-1.6
			c0.4-0.7,0.5-1.5,0.5-2.4c0-1-0.3-1.8-0.8-2.5c-0.5-0.7-1.4-1-2.6-1l-5.1,0L147.3,567.9L147.3,567.9z"/>
		<path class="st11" d="M167.7,542.4l4.3,0l-2.3,16.4l-0.6,4c0,0.3-0.1,0.7-0.1,1c0,1.2,0.3,2.2,0.9,3c0.6,0.8,1.5,1.2,2.6,1.2
			c1,0,1.9-0.3,2.6-0.8c0.7-0.6,1.2-1.4,1.6-2.5c0.4-1.1,0.7-3,1.1-5.7l2.4-16.5l4.3,0l-2.3,16.6c-0.5,3.5-1.1,6.1-1.7,8
			c-0.7,1.8-1.6,3.3-3,4.5c-1.3,1.2-3,1.7-5,1.7c-2.4,0-4.3-0.9-5.6-2.6c-1.3-1.7-1.9-3.9-1.9-6.7c0-0.6,0-1.2,0.1-1.8
			c0-0.4,0.2-1.7,0.5-3.8L167.7,542.4L167.7,542.4z"/>
		<polygon class="st11" points="184.5,572.7 188.8,542.4 193.1,542.4 189.5,567.6 200.2,567.6 199.4,572.6 184.5,572.7 		"/>
		<path class="st11" d="M215.9,565.9l-8.3,0l-2.5,6.7l-4.4,0l11.7-30.3l4.8,0l3.4,30.2l-4.1,0L215.9,565.9L215.9,565.9z
			 M215.3,560.9l-1.2-12.2l-5,12.2L215.3,560.9L215.3,560.9z"/>
		<polygon class="st11" points="239.9,572.5 235.9,572.6 230.3,552.2 227.4,572.6 223.4,572.6 227.7,542.3 231.7,542.3 237.4,562.5 
			240.2,542.3 244.2,542.3 239.9,572.5 		"/>
		<path class="st11" d="M243.8,572.5l0.7-4.8l12-20.4l-9.7,0l0.7-5.1l15,0l-0.6,4.8l-12.1,20.6c1.3,0,2-0.1,2.2-0.1
			c0.9,0,2.2,0,3.8,0l4.9,0l-0.7,5.1L243.8,572.5L243.8,572.5z"/>
		<path class="st11" d="M275.8,565.8l-8.3,0l-2.5,6.7l-4.4,0l11.7-30.3l4.8,0l3.4,30.2l-4.1,0L275.8,565.8L275.8,565.8z
			 M275.2,560.7l-1.2-12.2l-5,12.2L275.2,560.7L275.2,560.7z"/>
	</g>
</g>
</svg>
