<?xml version="1.0" encoding="utf-8"?>
<!-- Generator: Adobe Illustrator 19.2.0, SVG Export Plug-In . SVG Version: 6.00 Build 0)  -->
<svg version="1.1" id="Livello_1" xmlns="http://www.w3.org/2000/svg" xmlns:xlink="http://www.w3.org/1999/xlink" x="0px" y="0px"
	 viewBox="0 0 875 900" style="enable-background:new 0 0 875 900;" xml:space="preserve">
<style type="text/css">
	.st0{fill:#FFFFFF;}
	.st1{fill:#B9B9B9;}
	.st2{fill:#E43417;stroke:#1A171B;stroke-width:1.4518;stroke-miterlimit:2.6131;}
	.st3{fill:#FFFFFF;stroke:#1A171B;stroke-width:1.4518;stroke-miterlimit:2.6131;}
	.st4{fill:none;stroke:#1A171B;stroke-width:1.9357;stroke-miterlimit:2.6131;}
	.st5{fill:#3D3D3F;stroke:#1A171B;stroke-width:1.4518;stroke-miterlimit:2.6131;}
	.st6{fill:#FFEC00;stroke:#1A171B;stroke-width:1.4518;stroke-miterlimit:2.6131;}
	.st7{fill:#00A6E2;stroke:#1A171B;stroke-width:1.4518;stroke-miterlimit:2.6131;}
	.st8{fill:#049853;}
	.st9{fill:none;stroke:#1A171B;stroke-width:2.4197;stroke-linecap:square;stroke-miterlimit:2.6131;}
	.st10{fill:none;stroke:#1A171B;stroke-width:1.4518;stroke-miterlimit:2.6131;}
	.st11{fill:none;stroke:#1A171B;stroke-width:4.8393;stroke-linecap:square;stroke-miterlimit:2.6131;}
	.st12{fill:none;stroke:#1A171B;stroke-width:1.4518;stroke-linecap:square;stroke-miterlimit:2.6131;}
	
		.st13{fill:none;stroke:#1A171B;stroke-width:4.8393;stroke-linecap:square;stroke-miterlimit:2.6131;stroke-dasharray:24.1967,24.1967;}
	.st14{fill:#1A171B;}
</style>
<g>
	<g>
		<polygon class="st0" points="201.9,317.6 2.5,317.5 2.5,594.5 201.9,594.5 201.9,794.9 650.9,794.9 650.9,594.5 872.5,594.5 
			872.5,317.5 650.9,317.5 650.9,105.2 201.9,105.2 		"/>
		<path class="st1" d="M226.2,105.2h400.7l-0.1,205c0,24.2,7.5,31.6,31.7,31.6h213.9v228.6H658.5c-24.2,0-31.7,7.3-31.7,31.5
			l0.1,192.9H226.2L226.1,602c0-24.2-7.8-31.5-32-31.5H2.5V341.8h191.6c24.2,0,32-7.8,32-31.6L226.2,105.2L226.2,105.2z"/>
		<path class="st2" d="M299.3,157.9c1.7,11.5,4.1,27.2,4.3,44c0,13.4,0,26.9,0,40.5c-1.2,17.7-0.7,31.8-5,45.4c-0.7,2.7-4.5,9-9.1,9
			h-34.3c-5.5,0-7-7.1-7.5-9c-3.3-13.6-4.6-27.8-4.6-45.3v-40.8c0-15.9,1.7-31.8,3.9-43.9c0.7-3.4,1.4-9.2,8.6-9.2h34.6
			C299.6,148.7,298.6,153.1,299.3,157.9L299.3,157.9z"/>
		<path class="st3" d="M295,239.6l2.3,14.9c-16.3,5.8-30.9,5.3-48.3,0l2.1-14.9C268.5,243.3,276.9,243.7,295,239.6L295,239.6z"/>
		<path class="st3" d="M294.1,176.6l-3.1,9.2c-12.3-2.3-24.3-2.3-36-0.2l-3.3-9C265.5,174.2,280.1,174.5,294.1,176.6L294.1,176.6z"
			/>
		<line class="st4" x1="297.7" y1="191.1" x2="297.6" y2="233.9"/>
		<line class="st4" x1="248.9" y1="191.1" x2="248.7" y2="233.9"/>
		<polygon class="st5" points="273.5,476.6 281,443.9 266.1,443.9 		"/>
		<polygon class="st5" points="580.2,210.4 565,240.2 579.4,243.9 		"/>
		<polygon class="st5" points="308.5,679.6 314,646.5 327.7,652.2 		"/>
		<path class="st6" d="M820.2,367.5c-11.5-1.7-27.2-4.1-44-4.3c-13.4,0-26.9,0-40.5,0c-17.7,1.2-31.8,0.7-45.4,5
			c-2.7,0.7-9,4.5-9,9.1v34.3c0,5.5,7.1,7,9,7.5c13.6,3.3,27.8,4.6,45.3,4.6h40.8c15.9,0,31.8-1.7,43.9-3.9c3.4-0.7,9.2-1.4,9.2-8.6
			v-34.6C829.4,367.1,825,368.1,820.2,367.5L820.2,367.5z"/>
		<path class="st3" d="M738.5,371.7l-14.9-2.3c-5.8,16.3-5.3,30.9,0,48.3l14.9-2.1C734.8,398.2,734.4,389.9,738.5,371.7L738.5,371.7
			z"/>
		<path class="st3" d="M801.5,372.6l-9.2,3.1c2.3,12.3,2.3,24.3,0.2,36l9,3.3C803.9,401.2,803.6,386.6,801.5,372.6L801.5,372.6z"/>
		<line class="st4" x1="787" y1="369" x2="744.2" y2="369.2"/>
		<line class="st4" x1="787" y1="417.8" x2="744.2" y2="418"/>
		<path class="st7" d="M55.1,494.2c11.5-1.7,27.2-4.1,44-4.3c13.4,0,26.9,0,40.5,0c17.7,1.2,31.8,0.7,45.4,5c2.7,0.7,9,4.5,9,9.1
			v34.3c0,5.5-7.1,7-9,7.5c-13.6,3.3-27.8,4.6-45.3,4.6H98.8c-15.9,0-31.8-1.7-43.9-3.9c-3.4-0.7-9.2-1.4-9.2-8.6v-34.6
			C45.9,493.8,50.3,494.8,55.1,494.2L55.1,494.2z"/>
		<path class="st3" d="M136.8,498.4l14.9-2.3c5.8,16.4,5.3,30.9,0,48.3l-14.9-2.1C140.5,524.9,140.8,516.6,136.8,498.4L136.8,498.4z
			"/>
		<path class="st3" d="M73.8,499.3l9.2,3.1c-2.3,12.3-2.3,24.3-0.2,36l-9,3.3C71.3,527.9,71.7,513.3,73.8,499.3L73.8,499.3z"/>
		<line class="st4" x1="88.3" y1="495.7" x2="131.1" y2="495.9"/>
		<line class="st4" x1="88.3" y1="544.5" x2="131.1" y2="544.7"/>
		<path class="st8" d="M445.5,794.8h-38.2V614.2c0-10.7,8.6-19.6,19-19.6c10.5,0,19.2,8.9,19.2,19.6V794.8L445.5,794.8z"/>
		<path class="st9" d="M445.5,794.8V614.2c0-10.7-8.7-19.6-19.2-19.6c-10.4,0-19,8.9-19,19.6v180.6V614.2c0-10.7,8.6-19.6,19-19.6
			c10.5,0,19.2,8.9,19.2,19.6V794.8L445.5,794.8z"/>
		<path class="st10" d="M439.6,794.8v-174c-0.6-12.2-6.2-18.3-13.2-18.3c-7.3,0-13,6.2-13,18.3v174v-174c0-12.2,5.8-18.3,13-18.3
			c7,0,12.7,6.2,13.2,18.3V794.8L439.6,794.8z"/>
		<path class="st11" d="M201.9,105.2v212.4L2.5,317.5 M2.5,594.5h199.4v200.3 M650.9,794.9V594.5h221.6 M872.5,317.5H650.9V105.2"/>
		<path class="st12" d="M626.7,105.2v205c0,24.2,7.5,31.6,31.7,31.6h213.9 M872.4,570.4H658.5c-24.2,0-31.7,7.3-31.7,31.5l0.1,192.9
			 M226.2,794.9L226.1,602c0-24.2-7.8-31.5-32-31.5H2.5 M2.5,341.8h191.6c24.2,0,32-7.8,32-31.6l0.1-205"/>
		<line class="st13" x1="273" y1="299.6" x2="273" y2="442.1"/>
		<path class="st13" d="M676.2,394.4c-154,28.1-278.1,115.2-355,254.3"/>
		<path class="st13" d="M197.8,521.8C395.2,509,537.3,397.3,571.6,244.9"/>
		<path class="st8" d="M445.5,105.1h-38.2V298c0,10.7,8.6,19.6,19,19.6c10.5,0,19.2-8.9,19.2-19.6V105.1L445.5,105.1z"/>
		<path class="st9" d="M445.5,105.1V298c0,10.7-8.7,19.6-19.2,19.6c-10.4,0-19-8.9-19-19.6V105.1V298c0,10.7,8.6,19.6,19,19.6
			c10.5,0,19.2-8.9,19.2-19.6V105.1L445.5,105.1z"/>
		<path class="st10" d="M439.6,105.1v186.2c-0.6,12.2-6.2,18.3-13.2,18.3c-7.3,0-13-6.2-13-18.3V105.1v186.2
			c0,12.2,5.8,18.3,13,18.3c7,0,12.7-6.2,13.2-18.3V105.1L439.6,105.1z"/>
		<path class="st14" d="M90.5,469.4v-53.5h22.7c5.7,0,9.9,0.5,12.5,1.4c2.6,1,4.7,2.7,6.2,5.1c1.5,2.5,2.3,5.3,2.3,8.4
			c0,4-1.2,7.3-3.5,9.9c-2.4,2.6-6.3,5.6-10.2,6.4c-3.8,0.7-6,0.7-11,0.9h-6h-2.2v21.3H90.5V469.4z M101.3,438.6h8
			c5.2,0,8.4-0.2,9.7-0.7c1.3-0.4,2.3-1.2,3-2.3c0.7-1.1,1.1-2.4,1.1-4c0-1.8-0.5-3.2-1.4-4.4c-1-1.1-2.3-1.8-4.1-2.1
			c-0.9-0.1-3.5-0.2-7.9-0.2h-8.4L101.3,438.6L101.3,438.6z"/>
		<path class="st14" d="M324.9,183.8h21.4c4.2,0,7.4,0.2,9.5,0.5c2.1,0.4,3.9,1.1,5.6,2.2c1.6,1.1,3,2.6,4.1,4.5s1.6,3.9,1.6,6.2
			c0,2.5-0.7,4.8-2,6.9c-1.4,2.1-3.2,3.7-5.5,4.7c3.2,0.9,5.8,2.6,7.5,4.8c1.8,2.3,2.6,5,2.6,8.1c0,2.4-0.6,4.8-1.7,7.1
			s-2.7,4.1-4.6,5.5c-2,1.4-4.4,2.2-7.2,2.5c-1.8,0.2-6.1,0.3-13,0.4H325L324.9,183.8L324.9,183.8z M335.7,192.7v12.4h7.1
			c4.2,0,6.8-0.1,7.8-0.2c1.8-0.2,3.3-0.8,4.4-1.9c1.1-1.1,1.6-2.5,1.6-4.2s-0.4-3-1.4-4c-0.9-1-2.3-1.7-4.1-1.9
			c-1.1-0.1-4.1-0.2-9.2-0.2L335.7,192.7L335.7,192.7z M335.7,214v14.3h10c3.9,0,6.4-0.1,7.4-0.3c1.6-0.3,2.9-1,3.9-2.1
			s1.5-2.7,1.5-4.5c0-1.6-0.4-3-1.2-4.1c-0.8-1.1-1.9-1.9-3.4-2.5c-1.5-0.5-4.7-0.8-9.6-0.8L335.7,214L335.7,214z"/>
		<path class="st14" d="M778.2,478.5l10.1,3.2c-1.5,5.6-4.1,9.8-7.7,12.6c-3.6,2.7-8.2,4.1-13.7,4.1c-6.9,0-12.5-2.3-16.9-7
			s-6.6-11.1-6.6-19.2c0-8.6,2.2-15.3,6.7-20.1c4.4-4.8,10.3-7.1,17.5-7.1c6.3,0,11.5,1.9,15.4,5.6c2.4,2.2,4.1,5.4,5.3,9.5
			l-10.3,2.5c-0.6-2.7-1.9-4.8-3.8-6.4c-1.9-1.6-4.3-2.3-7.1-2.3c-3.8,0-6.9,1.4-9.3,4.1c-2.4,2.7-3.6,7.2-3.6,13.4
			c0,6.5,1.2,11.2,3.5,14s5.4,4.2,9.2,4.2c2.8,0,5.2-0.9,7.2-2.7C775.9,485.1,777.3,482.3,778.2,478.5L778.2,478.5z"/>
	</g>
</g>
</svg>
