<?xml version="1.0" encoding="utf-8"?>
<!-- Generator: Adobe Illustrator 19.2.0, SVG Export Plug-In . SVG Version: 6.00 Build 0)  -->
<svg version="1.1" id="Livello_1" xmlns="http://www.w3.org/2000/svg" xmlns:xlink="http://www.w3.org/1999/xlink" x="0px" y="0px"
	 viewBox="0 0 960 960" style="enable-background:new 0 0 960 960;" xml:space="preserve">
<style type="text/css">
	.st0{fill-rule:evenodd;clip-rule:evenodd;fill:#FFFFFF;}
	.st1{fill-rule:evenodd;clip-rule:evenodd;fill:#CECFD1;}
	.st2{fill:none;stroke:#1A171B;stroke-width:1.3097;stroke-linecap:square;stroke-miterlimit:2.6131;}
	.st3{fill:none;stroke:#1A171B;stroke-width:4.3658;stroke-linecap:square;stroke-miterlimit:2.6131;}
	.st4{fill-rule:evenodd;clip-rule:evenodd;fill:#409951;stroke:#1A171B;stroke-width:1.3097;stroke-miterlimit:2.6131;}
	.st5{fill-rule:evenodd;clip-rule:evenodd;fill:#FFFFFF;stroke:#1A171B;stroke-width:1.3097;stroke-miterlimit:2.6131;}
	.st6{fill:none;stroke:#1A171B;stroke-width:1.7463;stroke-miterlimit:2.6131;}
	.st7{fill-rule:evenodd;clip-rule:evenodd;fill:#FFEC00;stroke:#1A171B;stroke-width:1.3097;stroke-miterlimit:2.6131;}
	
		.st8{fill:none;stroke:#1A171B;stroke-width:4.3658;stroke-linecap:square;stroke-miterlimit:2.6131;stroke-dasharray:21.8291,21.8291;}
	.st9{fill-rule:evenodd;clip-rule:evenodd;fill:#1A171B;stroke:#1A171B;stroke-width:1.3097;stroke-miterlimit:2.6131;}
	.st10{fill-rule:evenodd;clip-rule:evenodd;fill:#1A171B;}
	.st11{fill-rule:evenodd;clip-rule:evenodd;fill:#E43417;stroke:#1A171B;stroke-width:1.3097;stroke-miterlimit:2.6131;}
</style>
<g>
	<g>
		<polygon class="st0" points="594.6,833.3 373.2,833.3 373.2,571.3 45,571.4 45,255.8 279.2,255.8 279.2,126.6 594.7,126.6 
			594.6,255.8 915,255.8 915,571.3 594.6,571.3 594.6,833.3 		"/>
		<path class="st1" d="M575.6,833.3H392.4V571.2c-5.9-17.4-9.3-17.7-29.7-18.9L45,552.3V274.2h228.1c19,0,25.3-6.2,25.3-25.4V126.6
			h277.3v122.2c0,19.2,5.5,25.4,24.6,25.4H915v278H599.1c-15.1,0-23.5,7.8-23.5,24.1V833.3L575.6,833.3z"/>
		<polygon class="st0" points="594.6,319.1 844.9,319.1 844.9,311.4 594.6,311.4 594.6,319.1 		"/>
		<polygon class="st0" points="343.2,255.5 343.2,126.8 335.6,126.8 335.6,255.5 343.2,255.5 		"/>
		<polygon class="st0" points="594.6,364.1 844.9,364.1 844.9,356.4 594.6,356.4 594.6,364.1 		"/>
		<polygon class="st0" points="388.2,255.6 388.2,126.8 380.6,126.8 380.6,255.6 388.2,255.6 		"/>
		<polygon class="st0" points="530.3,571.2 530.3,833.4 537.9,833.4 537.9,571.2 530.3,571.2 		"/>
		<polygon class="st0" points="594.6,408.7 844.9,408.7 844.9,401 594.6,401 594.6,408.7 		"/>
		<polygon class="st0" points="432.8,255.6 432.8,126.8 425.2,126.8 425.2,255.6 432.8,255.6 		"/>
		<polygon class="st0" points="485.7,571.2 485.7,833.4 493.3,833.4 493.3,571.2 485.7,571.2 		"/>
		<polygon class="st0" points="444.2,255.6 444.2,126.8 436.6,126.8 436.6,255.6 444.2,255.6 		"/>
		<polygon class="st0" points="474.3,571.2 474.3,833.4 481.9,833.4 481.9,571.2 474.3,571.2 		"/>
		<polygon class="st0" points="615.4,416.4 594.6,416.4 594.6,269.5 615.4,269.5 615.4,416.4 		"/>
		<polygon class="st0" points="440.6,234.8 440.6,255.6 293.3,255.6 293.3,234.8 440.6,234.8 		"/>
		<polygon class="st0" points="477.9,592 477.9,571.2 581.4,571.2 581.4,592 477.9,592 		"/>
		<polygon class="st0" points="314.3,409.7 335.1,409.7 373.2,553.5 352.4,553.5 314.3,409.7 		"/>
		<polygon class="st0" points="359,507.1 114.1,507.1 114.1,514.7 360.9,514.7 359,507.1 		"/>
		<polygon class="st0" points="347.9,462.1 114.1,462.1 114.1,469.7 349.9,469.7 347.9,462.1 		"/>
		<polygon class="st0" points="335.9,417.4 114.1,417.4 114.1,425.1 337.8,425.1 335.9,417.4 		"/>
		<path class="st2" d="M575.6,127.4v121.4c0,19.2,5.5,25.4,24.6,25.4l314.8-0.1l-314.8,0.1c-19.1,0-24.6-6.2-24.6-25.4V127.4
			L575.6,127.4z M915,552.3H599.5c-15.5,0-23.9,7.6-23.9,24v257v-257c0-16.4,8.4-24,23.9-24H915L915,552.3z M392.4,833.3V571.2
			c-5.9-17.4-9.3-17.6-29.7-18.8L45,552.4l317.7,0.1c20.3,1.2,23.8,1.4,29.7,18.8V833.3L392.4,833.3z M45,274.2h228.1
			c19,0,25.3-6.2,25.3-25.4V126.6v122.2c0,19.2-6.2,25.4-25.3,25.4H45L45,274.2z"/>
		<path class="st3" d="M594.6,126.6v129.1l320.4-0.1l-320.4,0.1V126.6L594.6,126.6z M915,571.4H594.6l-0.2,261.9l0.2-261.9H915
			L915,571.4z M373.2,833.3l0-261.9H45h328.2L373.2,833.3L373.2,833.3z M45,255.8h234.3l-0.1-129.1l0.1,129.1H45L45,255.8z"/>
		<polygon class="st0" points="333.5,404.4 45,404.4 45,412 335.7,412 333.5,404.4 		"/>
		<polygon class="st0" points="78.6,462.1 45,462.1 45,469.7 78.6,469.7 78.6,462.1 		"/>
		<polygon class="st0" points="78.7,507.1 45,507.1 45,514.7 78.7,514.7 78.7,507.1 		"/>
		<polygon class="st0" points="594.6,420.1 915,420.1 915,412.4 594.6,412.4 594.6,420.1 		"/>
		<polygon class="st0" points="880.2,364.1 915,364.1 915,356.4 880.2,356.4 880.2,364.1 		"/>
		<polygon class="st0" points="880.2,319.1 915,319.1 915,311.4 880.2,311.4 880.2,319.1 		"/>
		<path class="st4" d="M241,430.2c6-0.9,14.2-2.1,23-2.2c7,0,14,0,21.1,0c9.2,0.6,16.6,0.4,23.7,2.6c1.4,0.4,4.7,2.3,4.7,4.7v17.9
			c0,2.9-3.7,3.7-4.7,3.9c-7.1,1.7-14.5,2.4-23.6,2.4h-21.3c-8.3,0-16.6-0.9-22.9-2.1c-1.8-0.4-4.8-0.7-4.8-4.5v-18.1
			C236.2,430,238.5,430.5,241,430.2L241,430.2z"/>
		<path class="st5" d="M283.7,432.4l7.8-1.2c3,8.5,2.8,16.1,0,25.2l-7.8-1.1C285.6,446.2,285.8,441.9,283.7,432.4L283.7,432.4z"/>
		<path class="st5" d="M250.8,432.9l4.8,1.6c-1.2,6.4-1.2,12.7-0.1,18.8l-4.7,1.7C249.5,447.8,249.7,440.2,250.8,432.9L250.8,432.9z
			"/>
		<line class="st6" x1="258.4" y1="431" x2="280.7" y2="431.1"/>
		<line class="st6" x1="258.4" y1="456.5" x2="280.7" y2="456.6"/>
		<path class="st7" d="M694.4,306.4c-6,0.9-14.2,2.1-23,2.2c-7,0-14,0-21.1,0c-9.2-0.6-16.6-0.4-23.7-2.6c-1.4-0.4-4.7-2.3-4.7-4.7
			v-17.9c0-2.9,3.7-3.7,4.7-3.9c7.1-1.7,14.5-2.4,23.6-2.4h21.3c8.3,0,16.6,0.9,22.9,2.1c1.8,0.4,4.8,0.7,4.8,4.5v18.1
			C699.2,306.6,696.9,306,694.4,306.4L694.4,306.4z"/>
		<path class="st5" d="M651.8,304.2l-7.8,1.2c-3-8.5-2.8-16.1,0-25.2l7.8,1.1C649.8,290.3,649.6,294.7,651.8,304.2L651.8,304.2z"/>
		<path class="st5" d="M684.6,303.7l-4.8-1.6c1.2-6.4,1.2-12.7,0.1-18.8l4.7-1.7C685.9,288.8,685.7,296.4,684.6,303.7L684.6,303.7z"
			/>
		<line class="st6" x1="677" y1="305.6" x2="654.7" y2="305.5"/>
		<line class="st6" x1="677" y1="280.1" x2="654.7" y2="280"/>
		<path class="st8" d="M318.4,443.9c122.3,0,238.5-78.7,238.5-201.5"/>
		<polygon class="st9" points="556.5,145.6 564.2,175.7 550.4,176 556.5,145.6 		"/>
		<line class="st8" x1="556.9" y1="600.5" x2="556.9" y2="175.5"/>
		<path class="st8" d="M620.7,293.2c-3.6,0.1-14.3,0-17.5,0c-43.5-0.5-46.4-17.7-46.2-60"/>
		<path class="st10" d="M258.9,480.1h16.2c3.2,0,5.6,0.1,7.2,0.4c1.6,0.3,3,0.8,4.2,1.7c1.2,0.8,2.3,2,3.1,3.4
			c0.8,1.4,1.2,3,1.2,4.7c0,1.9-0.5,3.6-1.5,5.2c-1,1.6-2.4,2.8-4.2,3.6c2.5,0.7,4.4,1.9,5.7,3.7c1.3,1.7,2,3.8,2,6.1
			c0,1.8-0.4,3.6-1.3,5.4c-0.9,1.7-2,3.1-3.5,4.2c-1.5,1-3.3,1.7-5.5,1.9c-1.4,0.1-4.6,0.2-9.9,0.3h-13.8V480.1L258.9,480.1z
			 M267.1,486.9v9.4h5.4c3.2,0,5.2,0,5.9-0.1c1.4-0.2,2.5-0.6,3.3-1.4c0.8-0.8,1.2-1.9,1.2-3.2c0-1.3-0.3-2.3-1-3.1
			c-0.7-0.8-1.7-1.3-3.1-1.4c-0.8-0.1-3.1-0.1-7-0.1H267.1L267.1,486.9z M267.1,503v10.8h7.6c2.9,0,4.8-0.1,5.6-0.2
			c1.2-0.2,2.2-0.8,3-1.6c0.8-0.9,1.1-2,1.1-3.4c0-1.2-0.3-2.2-0.9-3.1c-0.6-0.8-1.4-1.5-2.6-1.9c-1.1-0.4-3.5-0.6-7.3-0.6H267.1
			L267.1,503z"/>
		<polygon class="st10" points="648.7,367.6 648.7,327.1 678.7,327.1 678.7,334 656.9,334 656.9,343 677.2,343 677.2,349.8 
			656.9,349.8 656.9,360.8 679.5,360.8 679.5,367.6 648.7,367.6 		"/>
		<polygon class="st10" points="542.8,734.6 542.8,694.4 551,694.4 551,727.8 571.3,727.8 571.3,734.6 542.8,734.6 		"/>
		<path class="st11" d="M543,676.9c-0.9-6-2.1-14.2-2.2-23c0-7,0-14,0-21.1c0.6-9.2,0.4-16.6,2.6-23.7c0.4-1.4,2.3-4.7,4.7-4.7H566
			c2.9,0,3.7,3.7,3.9,4.7c1.7,7.1,2.4,14.5,2.4,23.6v21.3c0,8.3-0.9,16.6-2.1,22.9c-0.4,1.8-0.7,4.8-4.5,4.8h-18.1
			C542.8,681.7,543.3,679.4,543,676.9L543,676.9z"/>
		<path class="st5" d="M545.2,634.3l-1.2-7.8c8.5-3,16.1-2.8,25.2,0l-1.1,7.8C559,632.4,554.7,632.2,545.2,634.3L545.2,634.3z"/>
		<path class="st5" d="M545.7,667.2l1.6-4.8c6.4,1.2,12.7,1.2,18.8,0.1l1.7,4.7C560.6,668.5,553,668.3,545.7,667.2L545.7,667.2z"/>
		<line class="st6" x1="543.8" y1="659.6" x2="543.9" y2="637.3"/>
		<line class="st6" x1="569.3" y1="659.6" x2="569.4" y2="637.3"/>
	</g>
</g>
</svg>
