<?xml version="1.0" encoding="utf-8"?>
<!-- Generator: Adobe Illustrator 19.2.0, SVG Export Plug-In . SVG Version: 6.00 Build 0)  -->
<svg version="1.1" id="Livello_1" xmlns="http://www.w3.org/2000/svg" xmlns:xlink="http://www.w3.org/1999/xlink" x="0px" y="0px"
	 viewBox="0 0 960 960" style="enable-background:new 0 0 960 960;" xml:space="preserve">
<style type="text/css">
	.st0{fill-rule:evenodd;clip-rule:evenodd;fill:#FFFFFF;}
	.st1{fill-rule:evenodd;clip-rule:evenodd;fill:#CECFD1;}
	.st2{fill:none;stroke:#1A171B;stroke-width:1.2918;stroke-linecap:square;stroke-miterlimit:2.6131;}
	.st3{fill:none;stroke:#1A171B;stroke-width:4.306;stroke-linecap:square;stroke-miterlimit:2.6131;}
	.st4{fill-rule:evenodd;clip-rule:evenodd;fill:#1A171B;}
	.st5{fill-rule:evenodd;clip-rule:evenodd;fill:#E43417;stroke:#1A171B;stroke-width:1.2918;stroke-miterlimit:2.6131;}
	.st6{fill-rule:evenodd;clip-rule:evenodd;fill:#FFFFFF;stroke:#1A171B;stroke-width:1.2918;stroke-miterlimit:2.6131;}
	.st7{fill:none;stroke:#1A171B;stroke-width:1.7224;stroke-miterlimit:2.6131;}
	.st8{fill-rule:evenodd;clip-rule:evenodd;fill:#049853;stroke:#1A171B;stroke-width:1.2918;stroke-miterlimit:2.6131;}
	.st9{fill-rule:evenodd;clip-rule:evenodd;fill:#1A171B;stroke:#1A171B;stroke-width:1.2918;stroke-miterlimit:2.6131;}
	
		.st10{fill:none;stroke:#1A171B;stroke-width:4.306;stroke-linecap:square;stroke-miterlimit:2.6131;stroke-dasharray:21.5301,21.5301;}
	.st11{fill-rule:evenodd;clip-rule:evenodd;fill:#00A6E2;stroke:#1A171B;stroke-width:1.2918;stroke-miterlimit:2.6131;}
</style>
<g>
	<g>
		<polygon class="st0" points="707.8,839.9 489.4,839.9 489.4,581.6 54.1,581.6 54.1,270.3 251.8,270.3 251.8,120 489.1,120 
			489.1,270.3 905.8,270.3 905.9,581.6 707.8,581.6 707.8,839.9 		"/>
		<path class="st1" d="M689.1,839.9H508.4V581.4c-5.8-17.2-9.2-17.4-29.3-18.6l-425-0.1V288.5h191.5c18.8,0,24.9-6.2,24.9-25.1V120
			h200v143.4c0,18.9,5.4,25.1,24.2,25.1h411.3v274.2H712.3c-14.9,0-23.1,7.7-23.1,23.7V839.9L689.1,839.9z"/>
		<polygon class="st0" points="707.8,334.4 905.6,334.4 905.6,326.9 707.8,326.9 707.8,334.4 		"/>
		<polygon class="st0" points="707.8,380.5 905.6,380.5 905.6,373 707.8,373 707.8,380.5 		"/>
		<polygon class="st0" points="644.3,581.4 644.3,642.5 651.9,642.5 651.9,581.4 644.3,581.4 		"/>
		<polygon class="st0" points="315.3,270.2 315.3,209.1 307.8,209.1 307.8,270.2 315.3,270.2 		"/>
		<polygon class="st0" points="644.3,669.4 644.3,719 651.9,719 651.9,669.4 644.3,669.4 		"/>
		<polygon class="st0" points="315.3,182.2 315.3,132.7 307.8,132.7 307.8,182.2 315.3,182.2 		"/>
		<polygon class="st0" points="644.3,745.7 644.3,795.3 651.9,795.3 651.9,745.7 644.3,745.7 		"/>
		<polygon class="st0" points="644.3,822.1 644.3,839.9 651.9,839.9 651.9,822.1 644.3,822.1 		"/>
		<polygon class="st0" points="707.8,426.2 905.6,426.2 905.6,418.7 707.8,418.7 707.8,426.2 		"/>
		<polygon class="st0" points="600.3,581.4 600.3,840 607.8,840 607.8,581.4 600.3,581.4 		"/>
		<polygon class="st0" points="707.8,437.4 905.6,437.4 905.6,429.9 707.8,429.9 707.8,437.4 		"/>
		<polygon class="st0" points="589.1,581.4 589.1,840 596.6,840 596.6,581.4 589.1,581.4 		"/>
		<polygon class="st0" points="728.3,434.8 707.8,434.8 707.8,283.9 728.3,283.9 728.3,434.8 		"/>
		<polygon class="st0" points="231.3,417.2 251.8,417.2 251.8,562.1 231.3,562.1 231.3,417.2 		"/>
		<polygon class="st0" points="592.7,601.9 592.7,581.4 692.1,581.4 692.1,601.9 592.7,601.9 		"/>
		<polygon class="st0" points="366.9,249.7 366.9,270.2 266.9,270.2 266.9,249.7 366.9,249.7 		"/>
		<path class="st2" d="M470.5,121.9v141.6c0,18.9,5.4,25.1,24.2,25.1l411.3-0.1l-411.3,0.1c-18.8,0-24.2-6.2-24.2-25.1V121.9
			L470.5,121.9z M905.9,562.8H712.7c-15.3,0-23.6,7.5-23.6,23.7v253.4V586.5c0-16.1,8.3-23.7,23.6-23.7H905.9L905.9,562.8z
			 M508.4,839.9V581.4c-5.8-17.2-9.2-17.4-29.3-18.5l-425-0.1l425,0.1c20.1,1.2,23.5,1.4,29.3,18.5V839.9L508.4,839.9z M54.1,288.5
			l192,0.1c18.8,0,24.4-7.4,24.4-26.3V120v142.3c0,18.9-5.9,26.3-24.7,26.3L54.1,288.5L54.1,288.5z"/>
		<polygon class="st0" points="251.8,413.6 54.1,413.6 54.1,421.2 251.8,421.2 251.8,413.6 		"/>
		<polygon class="st0" points="251.8,424.9 54.1,424.9 54.1,432.4 251.8,432.4 251.8,424.9 		"/>
		<polygon class="st0" points="251.8,470.6 54.1,470.6 54.1,478.1 251.8,478.1 251.8,470.6 		"/>
		<polygon class="st0" points="251.8,516.6 54.1,516.6 54.1,524.2 251.8,524.2 251.8,516.6 		"/>
		<path class="st3" d="M489.1,120v150.3l416.7-0.1l-416.7,0.1V120L489.1,120z M905.9,581.6H708l-0.2,258.3l0.2-258.3H905.9
			L905.9,581.6z M489.6,839.9l0-258.3H54.1h435.6L489.6,839.9L489.6,839.9z M54.1,270.3h197.8L251.8,120l0.1,150.3H54.1L54.1,270.3z
			"/>
		<polygon class="st0" points="370.5,270.2 370.5,120 363,120 363,270.2 370.5,270.2 		"/>
		<polygon class="st0" points="359.3,270.2 359.3,120 351.8,120 351.8,270.2 359.3,270.2 		"/>
		<path class="st4" d="M198.1,507.1h-8.8l-3.5-9.1h-16l-3.3,9.1H158l15.6-39.9h8.5L198.1,507.1L198.1,507.1z M183.3,491.3l-5.5-14.8
			l-5.4,14.8H183.3L183.3,491.3z"/>
		<polygon class="st4" points="766.9,487.1 766.9,447.2 796.5,447.2 796.5,453.9 774.9,453.9 774.9,462.8 795,462.8 795,469.5 
			774.9,469.5 774.9,480.4 797.2,480.4 797.2,487.1 766.9,487.1 		"/>
		<polygon class="st4" points="548.1,692 548.1,652.1 556.1,652.1 556.1,667.8 571.9,667.8 571.9,652.1 580,652.1 580,692 
			571.9,692 571.9,674.6 556.1,674.6 556.1,692 548.1,692 		"/>
		<path class="st5" d="M814.2,412.8c-5.9,0.9-14,2.1-22.7,2.2c-6.9,0-13.8,0-20.8,0c-9.1-0.6-16.4-0.4-23.4-2.6
			c-1.4-0.4-4.6-2.3-4.6-4.7v-17.6c0-2.8,3.6-3.6,4.6-3.9c7-1.7,14.3-2.4,23.3-2.4h21c8.2,0,16.4,0.9,22.6,2
			c1.7,0.4,4.7,0.7,4.7,4.4v17.8C818.9,413,816.6,412.5,814.2,412.8L814.2,412.8z"/>
		<path class="st6" d="M772.1,410.6l-7.7,1.2c-3-8.4-2.7-15.9,0-24.9l7.7,1.1C770.2,397,770,401.3,772.1,410.6L772.1,410.6z"/>
		<path class="st6" d="M804.5,410.2l-4.7-1.6c1.2-6.3,1.2-12.5,0.1-18.5l4.6-1.7C805.8,395.5,805.6,403,804.5,410.2L804.5,410.2z"/>
		<line class="st7" x1="797.1" y1="412" x2="775.1" y2="412"/>
		<line class="st7" x1="797.1" y1="386.9" x2="775.1" y2="386.8"/>
		<path class="st8" d="M145.6,530.3c5.9-0.9,14-2.1,22.7-2.2c6.9,0,13.8,0,20.8,0c9.1,0.6,16.4,0.4,23.4,2.6
			c1.4,0.4,4.6,2.3,4.6,4.7V553c0,2.8-3.6,3.6-4.6,3.9c-7,1.7-14.3,2.4-23.3,2.4h-21c-8.2,0-16.4-0.9-22.6-2
			c-1.7-0.4-4.7-0.7-4.7-4.4V535C140.8,530.1,143.1,530.7,145.6,530.3L145.6,530.3z"/>
		<path class="st6" d="M187.6,532.5l7.6-1.2c3,8.4,2.7,15.9,0,24.9l-7.6-1.1C189.5,546.2,189.7,541.9,187.6,532.5L187.6,532.5z"/>
		<path class="st6" d="M155.2,533l4.7,1.6c-1.2,6.3-1.2,12.5-0.1,18.5l-4.6,1.7C153.9,547.7,154.1,540.2,155.2,533L155.2,533z"/>
		<line class="st7" x1="162.7" y1="531.1" x2="184.7" y2="531.2"/>
		<line class="st7" x1="162.7" y1="556.2" x2="184.7" y2="556.3"/>
		<polygon class="st9" points="540.2,635 547.2,604 533.2,604 540.2,635 		"/>
		<path class="st10" d="M741,399.3c-136.6,0.4-201.2,79-201.3,203.3"/>
		<polygon class="st9" points="163,336.3 192.9,346.7 194.5,332.8 163,336.3 		"/>
		<path class="st10" d="M626.6,611.6C617.5,457.3,456,372.8,195,340.5"/>
		<polygon class="st9" points="778,544.4 748.3,551.9 748,538.3 778,544.4 		"/>
		<line class="st10" x1="222.1" y1="544.7" x2="748.5" y2="544.7"/>
		<path class="st11" d="M612.9,686.8c-0.9-5.9-2.1-14-2.2-22.7c0-6.9,0-13.8,0-20.8c0.6-9.1,0.4-16.4,2.6-23.4
			c0.4-1.4,2.3-4.6,4.7-4.6h17.6c2.8,0,3.6,3.6,3.9,4.6c1.7,7,2.4,14.3,2.4,23.3v21c0,8.2-0.9,16.4-2,22.6c-0.4,1.7-0.7,4.7-4.4,4.7
			h-17.8C612.8,691.6,613.3,689.3,612.9,686.8L612.9,686.8z"/>
		<path class="st6" d="M615.1,644.8l-1.2-7.6c8.4-3,15.9-2.7,24.9,0l-1.1,7.6C628.7,642.9,624.4,642.7,615.1,644.8L615.1,644.8z"/>
		<path class="st6" d="M615.6,677.2l1.6-4.7c6.4,1.2,12.5,1.2,18.5,0.1l1.7,4.6C630.3,678.5,622.8,678.3,615.6,677.2L615.6,677.2z"
			/>
		<line class="st7" x1="613.7" y1="669.7" x2="613.8" y2="647.7"/>
		<line class="st7" x1="638.9" y1="669.7" x2="638.9" y2="647.7"/>
	</g>
</g>
</svg>
