<?xml version="1.0" encoding="utf-8"?>
<!-- Generator: Adobe Illustrator 19.2.0, SVG Export Plug-In . SVG Version: 6.00 Build 0)  -->
<svg version="1.1" id="Livello_1" xmlns="http://www.w3.org/2000/svg" xmlns:xlink="http://www.w3.org/1999/xlink" x="0px" y="0px"
	 viewBox="0 0 875 900" style="enable-background:new 0 0 875 900;" xml:space="preserve">
<style type="text/css">
	.st0{fill:#FFFFFF;}
	.st1{fill:#B9B9B9;}
	.st2{fill:#FFEC00;stroke:#1A171B;stroke-width:1.3611;stroke-miterlimit:2.6131;}
	.st3{fill:#FFFFFF;stroke:#1A171B;stroke-width:1.3611;stroke-miterlimit:2.6131;}
	.st4{fill:none;stroke:#1A171B;stroke-width:1.8148;stroke-miterlimit:2.6131;}
	.st5{fill:#3D3D3F;stroke:#1A171B;stroke-width:1.3611;stroke-miterlimit:2.6131;}
	.st6{fill:#E43417;stroke:#1A171B;stroke-width:1.3611;stroke-linecap:square;stroke-miterlimit:2.6131;}
	.st7{fill:#FFFFFF;stroke:#1A171B;stroke-width:1.3611;stroke-linecap:square;stroke-miterlimit:2.6131;}
	.st8{fill:none;stroke:#1A171B;stroke-width:4.537;stroke-linecap:square;stroke-miterlimit:2.6131;}
	.st9{fill:none;stroke:#1A171B;stroke-width:1.3611;stroke-linecap:square;stroke-miterlimit:2.6131;}
	.st10{fill:#1A171B;}
	.st11{fill:#00A6E2;stroke:#1A171B;stroke-width:1.3611;stroke-miterlimit:2.6131;}
	.st12{fill:none;stroke:#1A171B;stroke-width:1.3611;stroke-miterlimit:2.6131;}
	
		.st13{fill:none;stroke:#1A171B;stroke-width:4.537;stroke-linecap:square;stroke-miterlimit:2.6131;stroke-dasharray:22.6848,22.6848;}
</style>
<g>
	<g>
		<polygon class="st0" points="248.4,666.5 2.5,666.5 2.5,342.4 248.4,342.4 248.4,102.3 545.2,102.3 545.2,342.4 872.5,342.4 
			872.5,666.5 545.2,666.5 545.2,797.7 248.4,797.7 		"/>
		<path class="st1" d="M272.7,102.3h248.2v231.4c0,23.8,7.7,32.9,32,32.9h319.6v275.5H552.9c-24,0-32,8.1-32,32.4v123H272.7v-123
			c0-24.3-8.2-32.4-32.5-32.4H2.5V366.7h237.7c24.2,0,32.5-8.6,32.5-32.9V102.3L272.7,102.3z"/>
		<path class="st2" d="M76.6,577.9c10.1-1.5,24-3.6,38.8-3.8c11.8,0,23.7,0,35.7,0c15.6,1.1,28.1,0.6,40.1,4.4c2.3,0.6,8,3.9,8,8
			v30.2c0,4.8-6.2,6.2-8,6.6c-12,2.9-24.5,4.1-39.9,4.1h-36c-14,0-28.1-1.5-38.7-3.5c-3-0.6-8.1-1.2-8.1-7.6v-30.5
			C68.5,577.6,72.4,578.5,76.6,577.9L76.6,577.9z"/>
		<path class="st3" d="M148.7,581.7l13.1-2c5.1,14.4,4.7,27.3,0,42.6l-13.1-1.9C151.9,605,152.2,597.6,148.7,581.7L148.7,581.7z"/>
		<path class="st3" d="M93.2,582.4l8.1,2.7c-2,10.9-2,21.5-0.2,31.7l-8,2.9C91,607.7,91.3,594.8,93.2,582.4L93.2,582.4z"/>
		<line class="st4" x1="105.9" y1="579.3" x2="143.7" y2="579.4"/>
		<line class="st4" x1="105.9" y1="622.3" x2="143.7" y2="622.4"/>
		<polygon class="st5" points="353.6,601.1 323.3,594.2 323.3,607.9 		"/>
		<polygon class="st5" points="340.9,753.2 353.4,724.8 339.9,722.2 		"/>
		<polygon class="st5" points="333.1,564 340,533.7 326.2,533.7 		"/>
		<polygon class="st6" points="294,139.5 294,148.7 367.9,148.7 367.9,139.5 		"/>
		<path class="st6" d="M374.7,294.4v-29.5c0-1.2-1.2-2.2-2.7-2.2s-2.7,1.4-2.7,2.2v31.4C369.4,296.4,374.7,296.6,374.7,294.4
			L374.7,294.4z"/>
		<path class="st6" d="M287.6,294.4v-29.5c0-1.2,1.2-2.2,2.7-2.2s2.7,1.4,2.7,2.2v31.4C293,296.4,287.6,296.6,287.6,294.4
			L287.6,294.4z"/>
		<path class="st6" d="M290.3,320.3H372v2.7c0,4.5-3.6,8.1-8.1,8.1h-65.6c-4.5,0-8.1-3.6-8.1-8.1v-2.7H290.3z"/>
		<path class="st6" d="M293,320.5v-47.3h76.3v47.3c0,3.6-3,6.8-6.8,6.8h-62.8C295.9,327.2,293,324.2,293,320.5L293,320.5z"/>
		<path class="st6" d="M297.9,305.9v-24c0-1.8,2.2-3.3,5.1-3.3h56.2c2.9,0,5.2,1.5,5.2,3.3v24c0,1.8-2.4,3.1-5.2,3.3
			c-18.8,1.6-37.5,1.5-56.2,0C300.1,309,297.9,307.7,297.9,305.9L297.9,305.9z"/>
		<path class="st7" d="M296.1,319.4c0.9-1,4-6.4,4.9-6.3c18.6,2.6,41.8,2.7,61,0c0.3-0.1,3.2,5.4,4.1,6.3c1,1.1-1.8,3.2-3.7,3.4
			c-20.8,1.6-41.8,1.6-62.5,0C297.7,322.6,294.9,320.6,296.1,319.4L296.1,319.4z"/>
		<path class="st6" d="M374.7,185.1v-29.5c0-1.2-1.2-2.2-2.7-2.2s-2.7,2.2-2.7,2.2V187C369.4,187,374.7,187.3,374.7,185.1
			L374.7,185.1z"/>
		<path class="st6" d="M287.6,185.1v-29.5c0-1.2,1.2-2.2,2.7-2.2s2.7,2.2,2.7,2.2V187C293,187,287.6,187.3,287.6,185.1L287.6,185.1z
			"/>
		<polygon class="st6" points="290.3,273.3 290.3,142.2 371.9,142.2 371.9,273.3 		"/>
		<polygon class="st6" points="295.6,267.2 295.6,148.3 366.6,148.3 366.6,267.2 		"/>
		<polygon class="st6" points="309.7,267.2 309.7,148.3 352.6,148.3 352.6,267.2 		"/>
		<polygon class="st6" points="324,267.2 324,148.3 338.3,148.3 338.3,267.2 		"/>
		<path class="st8" d="M2.5,342.4h245.9v-240 M545.2,102.3v240h327.2 M872.5,666.5H545.2v131.2 M248.4,797.7V666.5H2.5"/>
		<path class="st9" d="M2.5,366.7l237.7,0.1c24.2,0,32.5-8.6,32.5-32.9V102.3 M520.9,102.3v231.5c0,23.8,7.7,32.9,32,32.9l319.6-0.1
			 M872.5,642.3H552.9c-24,0-32,8.1-32,32.4v123 M272.7,797.7v-123c0-24.3-8.2-32.4-32.5-32.4L2.5,642.2"/>
		<path class="st10" d="M420.3,319.3v5.1l-6.7,2v9.2l6.7,1.9v4.9l-29.3-9v-4.9L420.3,319.3L420.3,319.3z M408.7,327.9l-10.9,3.2
			l10.9,3.1V327.9L408.7,327.9z"/>
		<path class="st10" d="M391,316.8v-4.7h15.9c2.5,0,4.2-0.1,4.9-0.2c1.2-0.2,2.2-0.7,2.9-1.4c0.7-0.8,1.1-1.8,1.1-3.1
			c0-1.3-0.3-2.3-1-3s-1.5-1.1-2.5-1.2s-2.7-0.2-5-0.2h-16.2v-4.7h15.4c3.5,0,6,0.1,7.5,0.4s2.7,0.7,3.7,1.4c1,0.7,1.8,1.6,2.4,2.7
			s0.9,2.6,0.9,4.4c0,2.2-0.3,3.9-1,5c-0.6,1.1-1.5,2-2.5,2.7s-2.1,1.1-3.2,1.3c-1.7,0.3-4.2,0.5-7.4,0.5L391,316.8L391,316.8z"/>
		<polygon class="st10" points="420.3,288.3 396,288.3 396,295.2 391,295.2 391,276.8 396,276.8 396,283.7 420.3,283.7 		"/>
		<path class="st10" d="M405.8,275.4c-3,0-5.5-0.4-7.5-1.1c-1.5-0.5-2.8-1.2-4-2.1s-2.1-1.9-2.6-3c-0.8-1.4-1.2-3.1-1.2-5
			c0-3.4,1.3-6.1,4-8.2c2.7-2,6.4-3.1,11.2-3.1c4.7,0,8.4,1,11.1,3s4,4.7,4,8.1s-1.3,6.2-4,8.2C414.2,274.3,410.5,275.4,405.8,275.4
			L405.8,275.4z M405.7,270.6c3.3,0,5.8-0.6,7.6-1.8c1.7-1.2,2.6-2.7,2.6-4.6s-0.8-3.4-2.6-4.6c-1.7-1.2-4.2-1.8-7.6-1.8
			s-5.9,0.6-7.5,1.7c-1.7,1.2-2.5,2.7-2.5,4.6s0.8,3.5,2.5,4.6C399.8,270,402.3,270.6,405.7,270.6L405.7,270.6z"/>
		<path class="st10" d="M409.6,234.6l1.8-4.5c3.2,0.7,5.6,1.8,7.1,3.5c1.6,1.6,2.3,3.7,2.3,6.1c0,3.1-1.3,5.6-4,7.6s-6.3,3-10.9,3
			c-4.9,0-8.7-1-11.4-3c-2.7-2-4-4.6-4-7.8c0-2.8,1.1-5.1,3.2-6.9c1.3-1.1,3.1-1.8,5.4-2.4l1.4,4.6c-1.5,0.3-2.7,0.8-3.6,1.7
			c-0.9,0.9-1.3,1.9-1.3,3.2c0,1.7,0.8,3.1,2.3,4.2c1.6,1.1,4.1,1.6,7.6,1.6c3.7,0,6.4-0.5,7.9-1.6c1.6-1,2.4-2.4,2.4-4.1
			c0-1.2-0.5-2.3-1.5-3.2C413.3,235.6,411.7,234.9,409.6,234.6L409.6,234.6z"/>
		<path class="st10" d="M420.3,205.2v5.1l-6.7,2v9.2l6.7,1.9v4.9l-29.3-9v-4.9L420.3,205.2L420.3,205.2z M408.7,213.8l-10.9,3.2
			l10.9,3.1V213.8L408.7,213.8z"/>
		<path class="st10" d="M420.3,202.8H391V193c0-2.5,0.3-4.3,0.8-5.4c0.5-1.1,1.5-2,2.8-2.7c1.4-0.7,2.9-1,4.6-1c2.2,0,4,0.5,5.5,1.5
			c1.4,1,2.3,2.5,2.7,4.6c0.8-1,1.6-1.8,2.5-2.5s2.5-1.5,4.8-2.6l5.7-2.8v5.6l-6.4,3.4c-2.3,1.2-3.7,2-4.3,2.5
			c-0.6,0.4-1,0.9-1.2,1.4s-0.3,1.3-0.3,2.3v0.9h12.2v4.6H420.3z M403.4,198.1v-3.4c0-2.2-0.1-3.6-0.4-4.2c-0.2-0.6-0.7-1-1.2-1.3
			c-0.6-0.3-1.3-0.5-2.2-0.5c-1,0-1.8,0.2-2.4,0.6c-0.6,0.4-1,1-1.2,1.8c-0.1,0.4-0.1,1.5-0.1,3.4v3.6L403.4,198.1L403.4,198.1z"/>
		<path class="st10" d="M420.3,179.5H391v-9.8c0-2.5,0.3-4.3,0.8-5.4c0.5-1.1,1.5-2,2.8-2.7c1.4-0.7,2.9-1,4.6-1
			c2.2,0,4,0.5,5.5,1.5c1.4,1,2.3,2.5,2.7,4.6c0.8-1,1.6-1.8,2.5-2.5s2.5-1.5,4.8-2.6l5.7-2.8v5.6l-6.4,3.4c-2.3,1.2-3.7,2-4.3,2.5
			c-0.6,0.4-1,0.9-1.2,1.4s-0.3,1.3-0.3,2.4v0.9h12.2L420.3,179.5L420.3,179.5z M403.4,174.8v-3.4c0-2.2-0.1-3.6-0.4-4.2
			c-0.2-0.6-0.7-1-1.2-1.3c-0.6-0.3-1.3-0.5-2.2-0.5c-1,0-1.8,0.2-2.4,0.6c-0.6,0.4-1,1-1.2,1.8c-0.1,0.4-0.1,1.5-0.1,3.4v3.6
			L403.4,174.8L403.4,174.8z"/>
		<path class="st10" d="M405.9,157.2c-3,0-5.5-0.4-7.5-1.1c-1.5-0.5-2.8-1.2-4-2.2c-1.2-0.9-2.1-1.9-2.6-3c-0.8-1.4-1.2-3.1-1.2-5
			c0-3.4,1.3-6.1,4-8.2c2.7-2,6.4-3.1,11.2-3.1c4.7,0,8.4,1,11.1,3s4,4.7,4,8.1c0,3.4-1.3,6.2-4,8.2
			C414.2,156.1,410.5,157.2,405.9,157.2L405.9,157.2z M405.7,152.4c3.3,0,5.8-0.6,7.6-1.8c1.7-1.2,2.6-2.7,2.6-4.6
			c0-1.9-0.8-3.4-2.6-4.6c-1.7-1.2-4.2-1.8-7.6-1.8s-5.9,0.6-7.5,1.7c-1.7,1.2-2.5,2.7-2.5,4.6c0,1.9,0.8,3.5,2.5,4.6
			C399.8,151.8,402.3,152.4,405.7,152.4L405.7,152.4z"/>
		<path class="st11" d="M573.9,401.3h254.8v79.3H573.9c-6.4,0-11.9-5.3-11.9-11.9v-55.5C562,406.6,567.3,401.3,573.9,401.3
			L573.9,401.3z"/>
		<path class="st12" d="M592.8,408h228.4v65.9H592.8c-5.7,0-10.7-4.4-10.7-9.9v-46.1C582.2,412.4,586.9,408,592.8,408L592.8,408z"/>
		<path class="st3" d="M572.4,408l5,5.9c-1.2,17.8-1.2,35.1,0,53.3l-5,6.7c-0.2,0.2-4.6-6.8-4.8-9.9c-0.9-15.4-0.9-31.1,0-46.1
			C567.8,413.3,572.1,407.8,572.4,408L572.4,408z"/>
		<path class="st9" d="M838.9,475.9l-189.1-22.2v-24.3l189.1,22.2 M649.9,429.4l23.5,2.7v24.3l-23.5-2.7V429.4L649.9,429.4z"/>
		<polygon class="st10" points="626.8,525 626.8,495.7 642.6,495.7 642.6,500.6 631.4,500.6 631.4,507.6 641,507.6 641,512.5 
			631.4,512.5 631.4,525 		"/>
		<polygon class="st10" points="646.3,525 646.3,495.7 650.9,495.7 650.9,525 		"/>
		<polygon class="st10" points="655.5,525 655.5,495.9 660.2,495.9 660.2,520.1 671.8,520.1 671.8,525 		"/>
		<path class="st10" d="M674.1,510.5c0-3,0.4-5.5,1.1-7.5c0.5-1.5,1.2-2.8,2.2-4c0.9-1.2,1.9-2.1,3-2.6c1.4-0.8,3.1-1.2,5-1.2
			c3.4,0,6.1,1.3,8.2,4c2,2.7,3.1,6.4,3.1,11.2c0,4.7-1,8.4-3,11.1c-2,2.7-4.7,4-8.1,4c-3.4,0-6.2-1.3-8.2-4
			C675.2,518.8,674.1,515.2,674.1,510.5L674.1,510.5z M678.9,510.3c0,3.3,0.6,5.8,1.8,7.6c1.2,1.7,2.7,2.6,4.6,2.6
			c1.9,0,3.4-0.8,4.6-2.6c1.2-1.7,1.8-4.2,1.8-7.6c0-3.4-0.6-5.9-1.7-7.5c-1.2-1.7-2.7-2.5-4.6-2.5c-1.9,0-3.5,0.8-4.6,2.5
			C679.5,504.4,678.9,506.9,678.9,510.3L678.9,510.3z"/>
		<path class="st10" d="M700.2,495.7h9.2c1.8,0,3.2,0.1,4.1,0.3c0.9,0.2,1.7,0.6,2.4,1.2c0.7,0.6,1.3,1.4,1.8,2.4s0.7,2.2,0.7,3.4
			c0,1.4-0.3,2.6-0.9,3.8c-0.6,1.1-1.4,2-2.4,2.6c1.4,0.5,2.5,1.4,3.2,2.7c0.8,1.3,1.1,2.7,1.1,4.4c0,1.3-0.2,2.6-0.7,3.9
			c-0.5,1.3-1.2,2.3-2,3c-0.8,0.8-1.9,1.2-3.1,1.4c-0.8,0.1-2.7,0.2-5.6,0.2h-7.9v-29.3H700.2z M704.8,500.6v6.8h3.1
			c1.8,0,2.9,0,3.4-0.1c0.8-0.1,1.4-0.5,1.9-1c0.5-0.6,0.7-1.3,0.7-2.3c0-0.9-0.2-1.6-0.6-2.2c-0.4-0.6-1-0.9-1.8-1
			c-0.5-0.1-1.8-0.1-4-0.1h-2.7V500.6z M704.8,512.2v7.8h4.3c1.7,0,2.7-0.1,3.2-0.2c0.7-0.2,1.3-0.6,1.7-1.2
			c0.4-0.6,0.7-1.5,0.7-2.5c0-0.9-0.2-1.6-0.5-2.2c-0.3-0.6-0.8-1.1-1.5-1.3c-0.6-0.3-2-0.4-4.1-0.4L704.8,512.2L704.8,512.2z"/>
		<path class="st10" d="M723.4,495.7h4.7v15.9c0,2.5,0.1,4.2,0.2,4.9c0.2,1.2,0.7,2.2,1.4,2.9c0.8,0.7,1.8,1.1,3.1,1.1s2.3-0.3,3-1
			s1.1-1.5,1.2-2.5c0.1-1,0.2-2.7,0.2-5v-16.2h4.7v15.4c0,3.5-0.1,6-0.4,7.5c-0.3,1.5-0.7,2.7-1.4,3.7s-1.6,1.8-2.7,2.4
			c-1.1,0.6-2.6,0.9-4.4,0.9c-2.2,0-3.9-0.3-5-1c-1.1-0.6-2-1.5-2.7-2.5s-1.1-2.1-1.3-3.2c-0.3-1.7-0.5-4.2-0.5-7.4L723.4,495.7
			L723.4,495.7z"/>
		<path class="st10" d="M745.6,515.5l4.5-0.6c0.3,1.9,0.8,3.4,1.7,4.3c0.8,0.9,2,1.4,3.4,1.4c1.5,0,2.6-0.4,3.4-1.2
			c0.8-0.8,1.1-1.7,1.1-2.8c0-0.7-0.2-1.3-0.5-1.8s-0.9-0.9-1.7-1.3c-0.5-0.2-1.8-0.7-3.7-1.3c-2.5-0.8-4.3-1.8-5.3-2.9
			c-1.4-1.6-2.1-3.6-2.1-5.9c0-1.5,0.3-2.9,1-4.2s1.6-2.3,2.9-3c1.3-0.7,2.8-1,4.5-1c2.9,0,5.1,0.8,6.5,2.4c1.5,1.6,2.2,3.8,2.3,6.5
			l-4.7,0.3c-0.2-1.5-0.6-2.6-1.3-3.2c-0.7-0.7-1.6-1-3-1s-2.4,0.4-3.2,1.1c-0.5,0.5-0.7,1.1-0.7,1.8s0.2,1.3,0.7,1.8
			c0.6,0.6,2,1.3,4.3,2s3.9,1.4,5,2.1c1.1,0.7,1.9,1.7,2.6,3c0.6,1.3,0.9,2.8,0.9,4.7c0,1.7-0.4,3.3-1.1,4.7
			c-0.7,1.5-1.8,2.6-3.1,3.3s-3,1.1-5,1.1c-2.9,0-5.2-0.8-6.7-2.6C746.8,521.2,745.9,518.7,745.6,515.5L745.6,515.5z"/>
		<line class="st13" x1="331.3" y1="335" x2="331.3" y2="531.6"/>
		<line class="st13" x1="211.9" y1="600.9" x2="323.6" y2="600.9"/>
		<path class="st13" d="M550.6,441.2c-109.4,8-188.8,141-204,280.7"/>
		<polygon class="st10" points="674.8,594.7 674.8,545 711.7,545 711.7,553.4 684.9,553.4 684.9,564.4 709.8,564.4 709.8,572.8 
			684.9,572.8 684.8,594.7 		"/>
		<path class="st10" d="M444.2,210.2h18.3c4.1,0,7.3,0.3,9.4,0.9c2.9,0.9,5.4,2.4,7.5,4.6c2.1,2.2,3.7,4.9,4.8,8
			c1.1,3.2,1.6,7.1,1.6,11.7c0,4.1-0.5,7.6-1.5,10.6c-1.2,3.6-3,6.5-5.3,8.8c-1.7,1.7-4.1,3-7,4c-2.2,0.7-5.2,1.1-8.9,1.1h-18.9
			V210.2L444.2,210.2z M454.2,218.6v32.9h7.5c2.8,0,4.8-0.2,6.1-0.5c1.6-0.4,3-1.1,4-2.1c1.1-1,1.9-2.6,2.6-4.8c0.7-2.2,1-5.3,1-9.1
			c0-3.8-0.3-6.8-1-8.8c-0.7-2.1-1.6-3.7-2.8-4.8c-1.2-1.2-2.8-1.9-4.7-2.3c-1.4-0.3-4.1-0.5-8.2-0.5H454.2L454.2,218.6z"/>
		<path class="st10" d="M105.3,554.9v-49.6h21.1c5.3,0,9.2,0.4,11.6,1.3c2.4,0.9,4.3,2.5,5.8,4.8c1.4,2.3,2.2,4.9,2.2,7.8
			c0,3.7-1.1,6.8-3.3,9.2s-5.5,4-9.8,4.6c2.2,1.3,4,2.7,5.4,4.2s3.3,4.2,5.7,8.1l6.1,9.7h-12l-7.2-10.8c-2.6-3.9-4.3-6.3-5.3-7.3
			c-0.9-1-2-1.7-3-2.1c-1.1-0.4-2.7-0.6-5.1-0.6h-2v20.7L105.3,554.9L105.3,554.9z M115.4,526.2h7.4c4.8,0,7.8-0.2,9-0.6
			c1.2-0.4,2.1-1.1,2.8-2.1s1-2.2,1-3.7c0-1.7-0.5-3-1.3-4c-0.9-1-2.2-1.7-3.8-2c-0.8-0.1-3.2-0.2-7.3-0.2h-7.8L115.4,526.2
			L115.4,526.2z"/>
	</g>
</g>
</svg>
