<?xml version="1.0" encoding="utf-8"?>
<!-- Generator: Adobe Illustrator 19.2.0, SVG Export Plug-In . SVG Version: 6.00 Build 0)  -->
<svg version="1.1" id="Livello_1" xmlns="http://www.w3.org/2000/svg" xmlns:xlink="http://www.w3.org/1999/xlink" x="0px" y="0px"
	 viewBox="0 0 875 900" style="enable-background:new 0 0 875 900;" xml:space="preserve">
<style type="text/css">
	.st0{fill:#FFFFFF;}
	.st1{fill:#B9B9B9;}
	.st2{fill:#00A6E2;stroke:#1A171B;stroke-width:1.43;stroke-miterlimit:2.6131;}
	.st3{fill:#FFFFFF;stroke:#1A171B;stroke-width:1.43;stroke-miterlimit:2.6131;}
	.st4{fill:none;stroke:#1A171B;stroke-width:1.9067;stroke-miterlimit:2.6131;}
	.st5{fill:#FFEC00;stroke:#1A171B;stroke-width:1.43;stroke-miterlimit:2.6131;}
	.st6{fill:#3D3D3F;stroke:#1A171B;stroke-width:1.43;stroke-miterlimit:2.6131;}
	.st7{fill:none;stroke:#FFFFFF;stroke-width:1.9067;stroke-miterlimit:2.6131;}
	.st8{fill:#E43417;stroke:#1A171B;stroke-width:1.43;stroke-miterlimit:2.6131;}
	.st9{fill:#1A171B;}
	.st10{fill:none;stroke:#1A171B;stroke-width:4.7668;stroke-miterlimit:2.6131;}
	.st11{fill:none;stroke:#1A171B;stroke-width:1.43;stroke-miterlimit:2.6131;}
	
		.st12{fill:none;stroke:#1A171B;stroke-width:4.7668;stroke-linecap:square;stroke-miterlimit:2.6131;stroke-dasharray:23.8341,23.8341;}
</style>
<g>
	<g>
		<polygon class="st0" points="407.7,90 27.1,90 220.7,284 5.8,284 5.8,616.1 225.5,616.1 32.4,809.9 435.4,809.9 595.1,649.5 
			871.2,649.5 871.2,533.6 871.1,533.6 871.1,284 601.2,284 		"/>
		<path class="st1" d="M369.8,90H65l181.2,181.8c17.3,18.4,9.2,38.7-18,39H5.8v278.6h221.5c28.3,0.2,41.5,18.7,23.7,39.1L70.4,809.9
			h327.1l165.7-166.3c17.6-18.7,22.2-20.9,53.2-20.8h254.8V511.3V310.8h-242c-36.5-0.2-40.9-3.6-65.3-26L369.8,90L369.8,90z"/>
		<path class="st2" d="M348.1,728.6c7.8-10.6,18.5-25.1,31.8-38.7c10.8-10.8,21.5-21.5,32.4-32.4c15.1-13.2,26.1-25,40.4-32.4
			c2.7-1.6,10.8-3.7,14.5,0.1l27.5,27.5c4.4,4.4,0,11.3-1.2,13.3c-8.3,13.5-18.5,25.9-32.6,40l-32.7,32.7
			c-12.7,12.7-26.9,24.1-38.3,32c-3.2,2.1-8.5,6.3-14.2,0.5L348,743.5C340.5,735.7,344.8,733,348.1,728.6L348.1,728.6z"/>
		<path class="st3" d="M417,666.6l10.1-13.7c17.8,8.4,29,20.5,38.7,38.7l-13.6,10.2C441.2,684.8,434.8,677.9,417,666.6L417,666.6z"
			/>
		<path class="st3" d="M367.2,717.7l9.8-4.9c8,11.7,17.7,21.3,28.7,29l-4.6,9.8C388.2,742.6,376.8,730.7,367.2,717.7L367.2,717.7z"
			/>
		<line class="st4" x1="376" y1="703.2" x2="410.4" y2="669.1"/>
		<line class="st4" x1="415.1" y1="742.4" x2="449.5" y2="708.2"/>
		<path class="st5" d="M56.9,506.4c13-1.9,30.9-4.7,49.9-4.8c15.2,0,30.5,0,45.9,0c20,1.4,36.1,0.8,51.5,5.6c3,0.8,10.2,5,10.2,10.3
			v38.8c0,6.2-8,8-10.2,8.5c-15.4,3.7-31.5,5.2-51.3,5.2h-46.3c-18,0-36.1-1.9-49.7-4.5c-3.8-0.8-10.4-1.6-10.4-9.7v-39.2
			C46.5,506,51.5,507.2,56.9,506.4L56.9,506.4z"/>
		<path class="st3" d="M149.5,511.2l16.8-2.6c6.6,18.5,6,35,0,54.8l-16.8-2.4C153.7,541.2,154.1,531.8,149.5,511.2L149.5,511.2z"/>
		<path class="st3" d="M78.1,512.2l10.4,3.5c-2.6,14-2.6,27.6-0.2,40.8l-10.2,3.7C75.3,544.6,75.7,528.1,78.1,512.2L78.1,512.2z"/>
		<line class="st4" x1="94.6" y1="508.1" x2="143" y2="508.3"/>
		<line class="st4" x1="94.6" y1="563.5" x2="143" y2="563.7"/>
		<path class="st6" d="M225.1,129.4c10.6,7.9,25.1,18.6,38.7,31.9c10.7,10.8,21.5,21.6,32.4,32.5c13.2,15.2,24.9,26.1,32.4,40.4
			c1.6,2.7,3.6,10.8-0.1,14.5L301,276.1c-4.4,4.4-11.3-0.1-13.3-1.2c-13.5-8.3-25.9-18.6-39.9-32.6l-32.7-32.8
			c-12.7-12.8-24.1-26.9-31.9-38.3c-2.1-3.2-6.3-8.5-0.5-14.2l27.8-27.7C218,121.7,220.7,126.1,225.1,129.4L225.1,129.4z"/>
		<path class="st3" d="M287,198.4l13.7,10.1c-8.5,17.8-20.6,29-38.8,38.7l-10.2-13.6C268.7,222.5,275.7,216.1,287,198.4L287,198.4z"
			/>
		<path class="st3" d="M235.9,148.5l4.9,9.8c-11.7,8-21.4,17.6-29,28.6l-9.8-4.6C211,169.4,223,158.1,235.9,148.5L235.9,148.5z"/>
		<line class="st7" x1="250.4" y1="157.3" x2="284.5" y2="191.8"/>
		<line class="st7" x1="211.2" y1="196.4" x2="245.3" y2="230.8"/>
		<path class="st8" d="M816.2,337c-13-1.9-30.9-4.7-49.9-4.9c-15.2,0-30.5,0-45.9,0c-20,1.4-36.1,0.8-51.5,5.6
			c-3,0.8-10.2,5-10.2,10.3v38.8c0,6.2,8,8,10.2,8.5c15.4,3.7,31.5,5.2,51.3,5.2h46.3c18,0,36.1-1.9,49.7-4.5
			c3.8-0.8,10.4-1.6,10.4-9.7v-39.2C826.6,336.6,821.6,337.7,816.2,337L816.2,337z"/>
		<path class="st3" d="M723.6,341.8l-16.8-2.6c-6.6,18.5-6,35,0,54.8l16.8-2.4C719.4,371.8,719,362.3,723.6,341.8L723.6,341.8z"/>
		<path class="st3" d="M795,342.8l-10.4,3.5c2.6,14,2.6,27.6,0.2,40.8l10.2,3.7C797.8,375.2,797.4,358.7,795,342.8L795,342.8z"/>
		<line class="st4" x1="778.5" y1="338.7" x2="730" y2="338.9"/>
		<line class="st4" x1="778.5" y1="394" x2="730" y2="394.2"/>
		<polygon class="st6" points="691.1,589.1 655.1,597.3 655.1,581 		"/>
		<polygon class="st6" points="404,368.8 440,377 440,360.6 		"/>
		<polygon class="st6" points="250.3,699.4 281.5,679.8 270,668.2 		"/>
		<path class="st9" d="M302.9,124.6h22.8c4.5,0,7.9,0.2,10.1,0.6c2.2,0.4,4.2,1.2,5.9,2.3c1.7,1.2,3.2,2.8,4.4,4.8
			c1.2,2,1.7,4.2,1.7,6.7c0,2.7-0.7,5.1-2.1,7.3s-3.4,3.9-5.8,5c3.5,1,6.1,2.7,8,5.2c1.9,2.4,2.8,5.3,2.8,8.6c0,2.6-0.6,5.1-1.8,7.6
			c-1.2,2.4-2.8,4.4-4.9,5.9s-4.6,2.4-7.7,2.7c-1.9,0.2-6.5,0.3-13.9,0.4H303v-57.1H302.9z M314.4,134.1v13.2h7.5
			c4.5,0,7.3-0.1,8.3-0.2c2-0.2,3.5-0.9,4.6-2s1.7-2.6,1.7-4.5c0-1.8-0.5-3.2-1.4-4.3c-1-1.1-2.4-1.8-4.3-2
			c-1.1-0.1-4.4-0.2-9.8-0.2H314.4L314.4,134.1z M314.4,156.7v15.2H325c4.1,0,6.8-0.1,7.9-0.3c1.7-0.3,3.1-1.1,4.2-2.3
			s1.6-2.8,1.6-4.8c0-1.7-0.4-3.2-1.2-4.3c-0.8-1.2-2-2.1-3.6-2.6s-5-0.8-10.2-0.8L314.4,156.7L314.4,156.7z"/>
		<path class="st9" d="M109,489.1v-56.9h18.4c7,0,11.5,0.3,13.7,0.9c3.3,0.9,6,2.7,8.2,5.6s3.3,6.6,3.3,11.1c0,3.5-0.6,6.4-1.9,8.8
			c-1.3,2.4-2.9,4.2-4.8,5.6c-1.9,1.4-3.9,2.2-5.9,2.7c-2.7,0.5-6.7,0.8-11.9,0.8h-7.6v21.5L109,489.1L109,489.1z M120.5,441.8V458
			h6.3c4.5,0,7.6-0.3,9.1-0.9s2.7-1.5,3.6-2.8c0.9-1.3,1.3-2.7,1.3-4.4c0-2.1-0.6-3.8-1.8-5.1c-1.2-1.3-2.8-2.2-4.6-2.5
			c-1.4-0.3-4.1-0.4-8.3-0.4h-5.6V441.8z"/>
		<polygon class="st9" points="725.9,471.3 725.9,414.3 737.1,414.3 760.4,452.3 760.4,414.3 771.1,414.3 771.1,471.3 759.5,471.3 
			736.6,434.1 736.6,471.3 		"/>
		<path class="st9" d="M339.9,623.7h21c4.7,0,8.3,0.4,10.8,1.1c3.3,1,6.2,2.7,8.6,5.2s4.2,5.6,5.4,9.2c1.2,3.6,1.9,8.1,1.9,13.5
			c0,4.7-0.6,8.7-1.7,12.1c-1.4,4.1-3.4,7.5-6.1,10c-2,2-4.7,3.5-8.1,4.5c-2.5,0.8-5.9,1.2-10.2,1.2h-21.6L339.9,623.7L339.9,623.7z
			 M351.4,633.4v37.7h8.6c3.2,0,5.5-0.2,7-0.5c1.9-0.5,3.4-1.2,4.6-2.4c1.2-1.1,2.2-3,3-5.5s1.2-6,1.2-10.4s-0.4-7.8-1.2-10.1
			c-0.8-2.4-1.9-4.2-3.3-5.5s-3.2-2.2-5.3-2.7c-1.6-0.4-4.7-0.5-9.4-0.5L351.4,633.4L351.4,633.4z"/>
		<path class="st10" d="M27.1,90.1l193.5,194H5.8 M5.8,616.2h219.7L32.4,810 M435.4,810l159.8-160.4l276-0.1 M871.1,284.1h-270
			l-193.4-194"/>
		<path class="st11" d="M65,90.1l181.2,181.8c17.3,18.4,9.2,38.7-18,39H5.8 M5.8,589.5h221.5c28.3,0.2,41.5,18.7,23.7,39.1L70.4,810
			 M397.4,810l165.7-166.3c17.6-18.7,22.2-20.9,53.2-20.8h254.8 M871.1,310.9H629.2c-36.5-0.2-40.9-3.6-65.3-26L369.8,90.1"/>
		<path class="st12" d="M220.6,538.1c165.6-0.7,189.3,52,430.6,51.2c-88.5-2.3-112.8-2.4-165.7,46.6"/>
		<line class="st12" x1="653.3" y1="368.7" x2="444.7" y2="368.7"/>
		<path class="st12" d="M320.5,266.2c106,136.9,41.2,304.9-41.4,404"/>
	</g>
</g>
</svg>
