<?xml version="1.0" encoding="utf-8"?>
<!-- Generator: Adobe Illustrator 19.2.0, SVG Export Plug-In . SVG Version: 6.00 Build 0)  -->
<svg version="1.1" id="Livello_1" xmlns="http://www.w3.org/2000/svg" xmlns:xlink="http://www.w3.org/1999/xlink" x="0px" y="0px"
	 viewBox="0 0 875 900" style="enable-background:new 0 0 875 900;" xml:space="preserve">
<style type="text/css">
	.st0{fill:#FFFFFF;}
	.st1{fill:#B9B9B9;}
	.st2{fill:#FFEC00;stroke:#1A171B;stroke-width:1.4518;stroke-miterlimit:2.6131;}
	.st3{fill:#FFFFFF;stroke:#1A171B;stroke-width:1.4518;stroke-miterlimit:2.6131;}
	.st4{fill:none;stroke:#1A171B;stroke-width:1.9357;stroke-miterlimit:2.6131;}
	.st5{fill:#3D3D3F;stroke:#1A171B;stroke-width:1.4518;stroke-miterlimit:2.6131;}
	.st6{fill:#1A171B;}
	.st7{fill:#00A6E2;stroke:#1A171B;stroke-width:1.4518;stroke-miterlimit:2.6131;}
	.st8{fill:#E43417;stroke:#1A171B;stroke-width:1.4518;stroke-linecap:square;stroke-miterlimit:2.6131;}
	.st9{fill:#FFFFFF;stroke:#1A171B;stroke-width:1.4518;stroke-linecap:square;stroke-miterlimit:2.6131;}
	.st10{fill:none;stroke:#1A171B;stroke-width:4.8393;stroke-linecap:square;stroke-miterlimit:2.6131;}
	.st11{fill:none;stroke:#1A171B;stroke-width:1.4518;stroke-linecap:square;stroke-miterlimit:2.6131;}
	
		.st12{fill:none;stroke:#1A171B;stroke-width:4.8393;stroke-linecap:square;stroke-miterlimit:2.6131;stroke-dasharray:24.1965,24.1965;}
</style>
<g>
	<g>
		<path class="st0" d="M872.5,622.3l-155.1,155L581.6,641.9H447.5L328.9,760.5H2.5l245.2-245.2c6.7-8.7,6.1-17.9-0.6-26.2
			L46.7,288.7l166-166l212,212c15.8,13.8,32.8,8.5,38.9-11.2l61-198.5H766l-74.3,244.2l28.8,101.4L872.5,622.3L872.5,622.3z"/>
		<path class="st1" d="M855.9,638.9l-122,122l-123-122.8c-16.7-16.9-22.9-19.6-46.4-19.6h-97.4c-25.6,0.2-29.7,1-49.2,19.9
			l-122,122.1h-261l226.8-226.8c19.1-20.4,20.2-42,0.1-63L63.1,272.3L196,139.2l213,212.7c25.1,24.7,66.3,15.1,77.6-22.1l62.3-204.6
			h192.6l-66.3,218.6c-6.5,21.5-6.9,27.3-1.7,47.2c6.1,21.6,12.2,43.1,18.4,64.8c6.9,23.7,9.7,29.6,26.3,45.9L855.9,638.9
			L855.9,638.9z"/>
		<path class="st2" d="M267.4,689.6c6.8-9.2,16.2-21.8,27.8-33.6c9.4-9.4,18.8-18.7,28.3-28.2c13.2-11.5,22.7-21.7,35.2-28.2
			c2.3-1.4,9.4-3.2,12.6,0.1l23.9,23.9c3.8,3.8,0,9.8-1.1,11.5c-7.2,11.7-16.2,22.6-28.4,34.7l-28.5,28.4
			c-11.1,11.1-23.4,21-33.4,27.8c-2.8,1.9-7.4,5.4-12.4,0.4l-24.1-24.2C260.7,695.8,264.5,693.4,267.4,689.6L267.4,689.6z"/>
		<path class="st3" d="M327.4,635.7l8.8-12c15.5,7.4,25.2,17.9,33.6,33.8l-11.9,8.9C348.4,651.7,342.9,645.6,327.4,635.7
			L327.4,635.7z"/>
		<path class="st3" d="M284,680.2l8.6-4.2c7,10.2,15.3,18.6,24.9,25.3l-4,8.6C302.2,701.9,292.3,691.5,284,680.2L284,680.2z"/>
		<line class="st4" x1="291.7" y1="667.6" x2="321.7" y2="637.9"/>
		<line class="st4" x1="325.6" y1="701.7" x2="355.7" y2="672"/>
		<polygon class="st5" points="659.7,620 644.6,591.6 633.8,600.9 		"/>
		<polygon class="st5" points="671.5,664.9 656.5,636.5 645.7,645.8 		"/>
		<polygon class="st5" points="208.8,640.4 236.1,623.5 226.2,613.3 		"/>
		<path class="st6" d="M253.6,728.3h-10.9l-4.3-11.3h-19.8l-4.1,11.3h-10.6l19.3-49.5h10.6L253.6,728.3L253.6,728.3z M235.2,708.7
			l-6.8-18.4l-6.7,18.4H235.2L235.2,708.7z"/>
		<polygon class="st6" points="721.8,691.4 721.8,642.2 731.8,642.2 731.8,683 756.7,683 756.7,691.4 		"/>
		<path class="st7" d="M768.1,651.7c-9.2-6.8-21.9-16-33.8-27.5c-9.4-9.3-18.8-18.6-28.4-28.1c-11.6-13.1-21.8-22.6-28.4-35
			c-1.4-2.3-3.2-9.4,0-12.6l23.8-24c3.8-3.8,9.8,0,11.6,1c11.8,7.2,22.7,16,34.9,28.2l28.6,28.3c11.2,11,21.1,23.3,28,33.2
			c1.9,2.8,5.5,7.3,0.5,12.4l-24,24.3C774.3,658.3,771.9,654.5,768.1,651.7L768.1,651.7z"/>
		<path class="st3" d="M713.8,592l-12-8.7c7.2-15.5,17.7-25.4,33.5-33.9l8.9,11.8C729.6,570.9,723.5,576.5,713.8,592L713.8,592z"/>
		<path class="st3" d="M758.5,635.1l-4.3-8.5c10.2-7,18.5-15.5,25.1-25.1l8.6,4C780.1,616.7,769.8,626.7,758.5,635.1L758.5,635.1z"
			/>
		<line class="st4" x1="745.9" y1="627.5" x2="716" y2="597.7"/>
		<line class="st4" x1="779.7" y1="593.3" x2="749.9" y2="563.5"/>
		<polygon class="st8" points="117.6,296.3 124.7,303.4 181.1,247 174,239.9 		"/>
		<path class="st8" d="M297.5,353l-22.6-22.6c-0.9-0.9-2.6-0.8-3.7,0.4c-1.1,1.1-1,3.1-0.4,3.7l24,24
			C294.9,358.6,299.1,354.7,297.5,353L297.5,353z"/>
		<path class="st8" d="M230.9,419.5L208.4,397c-0.9-0.9-0.8-2.6,0.4-3.7c1.1-1.1,3.1-1,3.7-0.4l24,24
			C236.6,416.9,232.6,421.2,230.9,419.5L230.9,419.5z"/>
		<path class="st8" d="M252.7,437.2l62.4-62.3l2,2c3.4,3.4,3.4,8.9,0,12.3l-50,50c-3.4,3.4-8.9,3.4-12.3,0L252.7,437.2L252.7,437.2z
			"/>
		<path class="st8" d="M254.9,435.3l-36.1-36.1l58.2-58.3l36.1,36.1c2.7,2.7,2.9,7.4,0,10.3l-47.9,47.9
			C262.4,438.2,257.8,438.2,254.9,435.3L254.9,435.3z"/>
		<path class="st8" d="M247.6,420.4l-18.3-18.3c-1.4-1.4-0.8-4.2,1.4-6.4l42.9-42.9c2.2-2.2,5.1-2.8,6.5-1.4l18.3,18.3
			c1.4,1.4,0.5,4.2-1.4,6.5c-13.1,15.6-27.5,29.8-42.9,42.9C251.7,421.1,249,421.8,247.6,420.4L247.6,420.4z"/>
		<path class="st9" d="M256.5,432c-0.1-1.4-1.8-7.9-1.1-8.5c16.2-12.2,34-29.8,46.6-46.6c0.2-0.3,6.6,1.7,7.9,1.7
			c1.6,0.1,1.1,3.8-0.2,5.4c-14.6,17.1-30.7,33.1-47.7,47.7C260.2,433.3,256.6,433.9,256.5,432L256.5,432z"/>
		<path class="st8" d="M214,269.5L191.4,247c-0.9-0.9-2.6-0.8-3.7,0.4c-1.1,1.1-0.4,3.7-0.4,3.7l24,24
			C211.3,275.1,215.7,271.2,214,269.5L214,269.5z"/>
		<path class="st8" d="M147.5,336.1l-22.6-22.6c-0.9-0.9-0.8-2.6,0.4-3.7c1.1-1.1,3.7-0.4,3.7-0.4l24,24
			C153,333.4,149.1,337.7,147.5,336.1L147.5,336.1z"/>
		<polygon class="st8" points="216.9,401.4 116.8,301.3 179.1,238.9 279.2,339 		"/>
		<polygon class="st8" points="216.3,392.6 125.5,301.8 179.7,247.7 270.5,338.5 		"/>
		<polygon class="st8" points="227.1,381.9 136.2,291.1 169,258.3 259.9,349.1 		"/>
		<polygon class="st8" points="238,371 147.2,280.2 158.1,269.2 248.9,360.1 		"/>
		<path class="st10" d="M212.7,122.7l212,212c15.8,13.8,32.8,8.5,38.9-11.2l61-198.5 M765.9,125l-74.3,244.2l28.9,101.4l152,151.6
			 M717.4,777.3L581.6,641.9H447.5L328.9,760.5 M2.5,760.5l245.2-245.2c6.7-8.7,6.1-17.9-0.6-26.2L46.7,288.7"/>
		<path class="st11" d="M196,139.2l213,212.7c25.1,24.7,66.3,15.1,77.6-22.1l62.3-204.6 M741.5,125.1l-66.3,218.6
			c-6.5,21.5-6.9,27.3-1.7,47.2c6.1,21.6,12.2,43.1,18.4,64.8c6.9,23.7,9.7,29.6,26.3,45.9L855.9,639 M733.9,760.9l-123-122.8
			c-16.7-16.9-22.9-19.6-46.4-19.6h-97.4c-25.6,0.2-29.7,1-49.2,19.9l-122,122.1 M34.9,760.6l226.8-226.8c19.1-20.4,20.2-42,0.1-63
			L63.1,272.3"/>
		<path class="st12" d="M385.5,608.7c52.8-36.2,184.5-52.9,264.3,31.2"/>
		<path class="st12" d="M297.4,419.9c108.8,106.8,204.2,30.9,339.9,174.6"/>
		<path class="st12" d="M686.5,535c-123.4-53.6-319-56.4-453.3,81.6"/>
		<path d="M287.6,283.7l9.4,3c-1.4,5.2-3.8,9.1-7.2,11.7c-3.3,2.5-7.6,3.8-12.7,3.8c-6.4,0-11.6-2.2-15.7-6.5
			c-4.1-4.4-6.2-10.3-6.2-17.8c0-8,2.1-14.2,6.2-18.6s9.5-6.6,16.3-6.6c5.9,0,10.6,1.7,14.3,5.2c2.2,2,3.8,5,4.9,8.8l-9.6,2.3
			c-0.6-2.5-1.7-4.5-3.6-5.9c-1.8-1.4-4-2.2-6.6-2.2c-3.6,0-6.4,1.3-8.7,3.8c-2.2,2.5-3.3,6.7-3.3,12.4c0,6.1,1.1,10.4,3.3,13
			c2.2,2.6,5,3.9,8.5,3.9c2.6,0,4.8-0.8,6.6-2.5C285.4,289.8,286.8,287.2,287.6,283.7L287.6,283.7z"/>
	</g>
</g>
</svg>
