<?xml version="1.0" encoding="utf-8"?>
<!-- Generator: Adobe Illustrator 19.2.0, SVG Export Plug-In . SVG Version: 6.00 Build 0)  -->
<svg version="1.1" id="Livello_1" xmlns="http://www.w3.org/2000/svg" xmlns:xlink="http://www.w3.org/1999/xlink" x="0px" y="0px"
	 viewBox="0 0 875 900" style="enable-background:new 0 0 875 900;" xml:space="preserve">
<style type="text/css">
	.st0{fill:#FFFFFF;}
	.st1{fill:#B9B9B9;}
	.st2{fill:none;stroke:#1A171B;stroke-width:4.2354;stroke-miterlimit:2.6131;}
	.st3{fill:#049853;stroke:#1A171B;stroke-width:1.2706;stroke-miterlimit:2.6131;}
	.st4{fill:none;stroke:#1A171B;stroke-width:1.2706;stroke-miterlimit:2.6131;}
	.st5{fill:none;stroke:#1A171B;stroke-width:4.2354;stroke-linecap:square;stroke-miterlimit:2.6131;}
	.st6{fill:none;stroke:#1A171B;stroke-width:1.2706;stroke-linecap:square;stroke-miterlimit:2.6131;}
	.st7{fill:#E43417;stroke:#1A171B;stroke-width:1.2706;stroke-linecap:square;stroke-miterlimit:2.6131;}
	.st8{fill:#FFFFFF;stroke:#1A171B;stroke-width:1.2706;stroke-linecap:square;stroke-miterlimit:2.6131;}
	.st9{fill:#FFEC00;stroke:#1A171B;stroke-width:1.2706;stroke-miterlimit:2.6131;}
	.st10{fill:#FFFFFF;stroke:#1A171B;stroke-width:1.2706;stroke-miterlimit:2.6131;}
	.st11{fill:none;stroke:#1A171B;stroke-width:1.6942;stroke-miterlimit:2.6131;}
	.st12{fill:#3D3D3F;stroke:#1A171B;stroke-width:1.2706;stroke-miterlimit:2.6131;}
	
		.st13{fill:none;stroke:#1A171B;stroke-width:4.2354;stroke-linecap:square;stroke-miterlimit:2.6131;stroke-dasharray:21.177,21.177;}
	.st14{fill:#1A171B;}
</style>
<g>
	<g>
		<polygon class="st0" points="233.7,688.7 233.7,810 528.6,810 528.6,688.7 870.5,688.7 870.5,443.3 528.6,443.3 528.6,90.4 
			245,90.4 245,90.5 233.7,90.5 233.7,443.3 7.5,443.3 7.5,688.7 		"/>
		<path class="st1" d="M222.5,668.1c20.7,0,32.2,10.4,32,30.9l-0.1,111h253.5l0.2-111.1c0-20.6,10-30.9,30.7-30.9h331.7V463.9H538.8
			c-20.6,0-30.5-10.3-30.7-30.9l-0.2-342.7H265.5v0.2h-11.1V433c0,20.6-11.3,30.9-31.2,30.9H7.5V668L222.5,668.1L222.5,668.1z"/>
		<line class="st2" x1="335.9" y1="810" x2="335.9" y2="90.5"/>
		<line class="st2" x1="394.9" y1="810" x2="394.9" y2="90.5"/>
		<line class="st2" x1="367" y1="90.5" x2="367" y2="810"/>
		<line class="st2" x1="425.9" y1="90.5" x2="425.9" y2="810"/>
		<polygon class="st3" points="335.8,467.4 320.3,423.1 320.3,195.5 335.8,151.1 366.5,151.1 382,196.3 382,423.2 366.5,467.4 		"/>
		<polygon class="st3" points="366.6,422.7 366.6,195.9 382.1,195.9 382.1,422.7 		"/>
		<polygon class="st3" points="320.4,422.7 320.4,195.9 335.9,195.9 335.9,422.7 		"/>
		<line class="st4" x1="335.8" y1="460.3" x2="335.8" y2="158.2"/>
		<line class="st4" x1="351.2" y1="460.3" x2="351.2" y2="158.2"/>
		<line class="st4" x1="366.5" y1="460.3" x2="366.5" y2="158.2"/>
		<polygon class="st0" points="367.8,362.8 367.8,369.6 340.3,363.8 340.3,373.5 334.8,372.4 334.8,346.4 340.3,347.5 340.3,357 		
			"/>
		<path class="st0" d="M367.8,342.1v6.8l-33-6.9v-14.7c0-2.5,0.3-4.5,0.8-5.9s1.5-2.5,2.9-3.4s3.1-1.3,5-1.3c2.8,0,5.1,0.8,6.9,2.5
			s3,4.2,3.4,7.6c0.8-0.9,1.8-1.7,3.1-2.5c2.6-1.5,6.2-3.2,10.9-5.1v7.3c-1.9,0.6-4.8,1.7-8.7,3.4c-2.1,0.9-3.6,1.9-4.3,3
			c-0.4,0.6-0.7,1.8-0.7,3.4v2.8L367.8,342.1L367.8,342.1z M349.2,338.2v-3.6c0-3.7-0.2-6.1-0.7-7.3c-0.4-1.2-1.1-2.1-2-2.8
			c-0.9-0.7-1.9-1-2.9-1c-1.2,0-2.1,0.5-2.7,1.5c-0.4,0.6-0.5,1.9-0.5,3.9v7.5L349.2,338.2L349.2,338.2z"/>
		<path class="st0" d="M360.5,294.1v13.1l7.3,4v7l-33-18.7V292l33-5.4v6.4L360.5,294.1L360.5,294.1z M355,294.9l-13.3,1.9l13.3,8
			V294.9L355,294.9z"/>
		<polygon class="st0" points="367.8,263.4 367.8,269.9 340.2,271.1 367.8,276.3 367.8,282.4 334.8,275.5 334.8,265.9 357.9,264.9 
			334.8,253.6 334.8,243.8 367.8,250.7 367.8,256.9 340.4,250.4 		"/>
		<path class="st5" d="M7.5,688.7h226.2V810 M528.6,810V688.7h341.9 M870.5,443H528.6V90 M233.7,90.2V443H7.5"/>
		<path class="st6" d="M7.5,667.7h214.8c20.7,0,32.2,10.4,32,30.9L254.2,810 M507.9,810l0.2-111.4c0-20.6,10-30.9,30.7-30.9h331.7
			 M870.5,463.6H538.8c-20.6,0-30.5-10.3-30.7-30.9L507.9,90 M254.4,90.2v342.5c0,20.6-11.3,30.9-31.2,30.9H7.5"/>
		<path class="st7" d="M793.6,484.3h26.6c1.1,0,2,1.1,2,2.4c0,1.3-2,2.4-2,2.4h-28.3C791.9,489.1,791.7,484.3,793.6,484.3
			L793.6,484.3z"/>
		<path class="st7" d="M714.3,484.3h26.6c1.1,0,2,1.1,2,2.4c0,1.3-2,2.4-2,2.4h-28.3C712.5,489.1,712.4,484.3,714.3,484.3
			L714.3,484.3z"/>
		<path class="st7" d="M793.6,562.9h26.6c1.1,0,2-1.1,2-2.4c0-1.3-2-2.4-2-2.4h-28.3C791.9,558,791.7,562.9,793.6,562.9L793.6,562.9
			z"/>
		<path class="st7" d="M714.3,562.9h26.6c1.1,0,2-1.1,2-2.4c0-1.3-2-2.4-2-2.4h-28.3C712.5,558,712.4,562.9,714.3,562.9L714.3,562.9
			z"/>
		<polygon class="st7" points="702.9,506.9 687.8,523.7 702.9,540.5 702.9,535.9 692.3,523.7 702.9,511.5 		"/>
		<polygon class="st7" points="702,486.7 832.3,486.7 832.3,560.3 702,560.3 		"/>
		<polygon class="st7" points="707.4,491.5 826.8,491.5 826.8,555.5 707.4,555.5 		"/>
		<path class="st7" d="M652.3,484.3h26.6c1.1,0,2,1.1,2,2.4c0,1.3-1.3,2.4-2,2.4h-28.4C650.5,489.1,650.3,484.3,652.3,484.3
			L652.3,484.3z"/>
		<polygon class="st7" points="707.4,504.2 826.8,504.2 826.8,543 707.4,543 		"/>
		<path class="st7" d="M652.3,562.9h26.6c1.1,0,2-1.1,2-2.4c0-1.3-1.3-2.4-2-2.4h-28.4C650.5,558,650.3,562.9,652.3,562.9
			L652.3,562.9z"/>
		<path class="st7" d="M564.8,562.9h26.6c1.1,0,2-1.1,2-2.4c0-1.3-1.3-2.4-2-2.4H563C563,558,562.8,562.9,564.8,562.9L564.8,562.9z"
			/>
		<polygon class="st7" points="583.8,486.8 690.9,486.8 690.9,560.4 583.8,560.4 		"/>
		<path class="st7" d="M541.4,486.7v73.7H539c-4,0-7.3-3.2-7.3-7.3V494c0-4,3.2-7.3,7.3-7.3L541.4,486.7L541.4,486.7z"/>
		<path class="st7" d="M541.3,489.1h42.6v68.8h-42.6c-3.2,0-6.1-2.7-6.1-6.1v-56.6C535.2,491.8,537.9,489.1,541.3,489.1L541.3,489.1
			z"/>
		<path class="st7" d="M554.4,493.6H576c1.6,0,3,2,3,4.6v50.7c0,2.6-1.4,4.7-3,4.7h-21.6c-1.6,0-2.8-2.1-3-4.7
			c-1.4-17-1.3-33.8,0-50.7C551.6,495.6,552.7,493.6,554.4,493.6L554.4,493.6z"/>
		<path class="st8" d="M542.3,492c0.9,0.8,5.8,3.6,5.7,4.4c-2.4,16.8-2.4,37.7,0,55c0.1,0.3-4.9,2.9-5.7,3.7c-1,0.9-2.9-1.6-3.1-3.3
			c-1.5-18.8-1.5-37.7,0-56.3C539.3,493.4,541.1,490.9,542.3,492L542.3,492z"/>
		<polygon class="st7" points="589.2,491.6 685.4,491.6 685.4,555.6 589.2,555.6 		"/>
		<polygon class="st7" points="589.2,504.3 685.4,504.3 685.4,543 589.2,543 		"/>
		<polygon class="st7" points="589.2,517.1 685.4,517.1 685.4,530.1 589.2,530.1 		"/>
		<path class="st7" d="M564.8,484.3h26.6c1.1,0,2,1.1,2,2.4c0,1.3-1.3,2.4-2,2.4H563C563,489.1,562.8,484.3,564.8,484.3L564.8,484.3
			z"/>
		<polygon class="st7" points="707.4,517.2 826.8,517.2 826.8,530.1 707.4,530.1 		"/>
		<path class="st9" d="M63.3,600.1c10.3-1.5,24.5-3.7,39.5-3.8c12.1,0,24.1,0,36.4,0c15.9,1.1,28.6,0.6,40.8,4.5
			c2.4,0.6,8.1,4,8.1,8.2v30.8c0,4.9-6.4,6.3-8.1,6.8c-12.2,2.9-24.9,4.2-40.6,4.2h-36.7c-14.3,0-28.6-1.5-39.4-3.5
			c-3-0.6-8.3-1.2-8.3-7.7v-31.1C55.1,599.8,59,600.7,63.3,600.1L63.3,600.1z"/>
		<path class="st10" d="M136.7,603.9l13.3-2.1c5.2,14.7,4.8,27.8,0,43.4l-13.3-1.9C140,627.7,140.3,620.2,136.7,603.9L136.7,603.9z"
			/>
		<path class="st10" d="M80.1,604.7l8.3,2.8c-2.1,11.1-2.1,21.8-0.2,32.3l-8.1,2.9C77.9,630.4,78.2,617.3,80.1,604.7L80.1,604.7z"/>
		<line class="st11" x1="93.2" y1="601.5" x2="131.6" y2="601.6"/>
		<line class="st11" x1="93.2" y1="645.3" x2="131.6" y2="645.5"/>
		<polygon class="st12" points="295.8,776.2 307.5,749.7 294.9,747.3 		"/>
		<path class="st13" d="M520.2,524.3c-130.6,6.6-204.9,126-219,222.7"/>
		<polygon class="st12" points="351.1,587.2 358,556.8 344.2,556.8 		"/>
		<line class="st13" x1="350.7" y1="475.2" x2="350.7" y2="563.1"/>
		<polygon class="st12" points="321.5,623.2 291.1,616.3 291.1,630.1 		"/>
		<line class="st13" x1="193.1" y1="623.5" x2="297.3" y2="623.5"/>
		<polygon class="st14" points="461.9,333.2 461.9,292.8 447.5,292.8 447.5,284.6 486.1,284.6 486.1,292.8 471.7,292.8 471.7,333.2 
					"/>
		<path class="st14" d="M663.1,614.9l9.2-0.9c0.5,3.1,1.7,5.4,3.4,6.8c1.7,1.4,4,2.2,6.9,2.2c3.1,0,5.4-0.6,6.9-1.9
			c1.6-1.3,2.3-2.8,2.3-4.5c0-1.1-0.3-2.1-1-2.8c-0.6-0.8-1.8-1.5-3.4-2c-1.1-0.4-3.6-1.1-7.6-2.1c-5.1-1.3-8.6-2.8-10.7-4.6
			c-2.9-2.6-4.3-5.7-4.3-9.4c0-2.4,0.7-4.6,2-6.7c1.4-2.1,3.3-3.7,5.9-4.8c2.6-1.1,5.6-1.6,9.2-1.6c5.9,0,10.3,1.3,13.3,3.9
			c3,2.6,4.5,6,4.7,10.4l-9.4,0.1c-0.4-2.4-1.3-4.2-2.6-5.2c-1.3-1.1-3.3-1.6-6-1.6c-2.8,0-4.9,0.6-6.5,1.7c-1,0.7-1.5,1.7-1.5,2.9
			c0,1.1,0.5,2.1,1.4,2.9c1.2,1,4.1,2.1,8.7,3.1c4.6,1.1,8,2.2,10.2,3.4s3.9,2.8,5.2,4.8c1.2,2,1.9,4.5,1.9,7.5
			c0,2.7-0.7,5.2-2.2,7.6c-1.5,2.3-3.6,4.1-6.3,5.2c-2.7,1.1-6.1,1.7-10.2,1.7c-5.9,0-10.5-1.4-13.7-4.1
			C665.7,624.1,663.8,620.1,663.1,614.9L663.1,614.9z"/>
		<path class="st14" d="M137.7,579.8H127l-4.2-11h-19.4l-4,11H89l18.9-48.6h10.4L137.7,579.8L137.7,579.8z M119.6,560.6l-6.7-18
			l-6.6,18H119.6L119.6,560.6z"/>
	</g>
</g>
</svg>
