<?xml version="1.0" encoding="utf-8"?>
<!-- Generator: Adobe Illustrator 19.2.0, SVG Export Plug-In . SVG Version: 6.00 Build 0)  -->
<svg version="1.1" id="Livello_1" xmlns="http://www.w3.org/2000/svg" xmlns:xlink="http://www.w3.org/1999/xlink" x="0px" y="0px"
	 viewBox="0 0 875 900" style="enable-background:new 0 0 875 900;" xml:space="preserve">
<style type="text/css">
	.st0{fill:#FFFFFF;}
	.st1{fill:#B9B9B9;}
	.st2{fill:#00A6E2;stroke:#1A171B;stroke-width:1.4444;stroke-miterlimit:2.6131;}
	.st3{fill:#FFFFFF;stroke:#1A171B;stroke-width:1.4444;stroke-miterlimit:2.6131;}
	.st4{fill:none;stroke:#1A171B;stroke-width:1.9259;stroke-miterlimit:2.6131;}
	.st5{fill:#3D3D3F;stroke:#1A171B;stroke-width:1.4444;stroke-miterlimit:2.6131;}
	.st6{fill:none;stroke:#FFFFFF;stroke-width:1.9259;stroke-miterlimit:2.6131;}
	.st7{fill:#E43417;stroke:#1A171B;stroke-width:1.4444;stroke-miterlimit:2.6131;}
	.st8{fill:#049853;stroke:#1A171B;stroke-width:1.4444;stroke-miterlimit:2.6131;}
	.st9{fill:#1A171B;}
	.st10{fill:none;stroke:#1A171B;stroke-width:4.8146;stroke-linecap:square;stroke-miterlimit:2.6131;}
	.st11{fill:none;stroke:#1A171B;stroke-width:1.4444;stroke-linecap:square;stroke-miterlimit:2.6131;}
	
		.st12{fill:none;stroke:#1A171B;stroke-width:4.8146;stroke-linecap:square;stroke-miterlimit:2.6131;stroke-dasharray:24.0731,24.0731;}
</style>
<g>
	<g>
		<polygon class="st0" points="238,90 581.1,90 581.1,225.1 868.9,225.1 868.9,602.1 581.1,602.1 581.1,810 238,810 238,602.1 
			6.1,602.1 6.1,225.1 238,225.1 		"/>
		<path class="st1" d="M265.1,90h289.2l-0.1,123c-0.1,27,13.5,39.1,40.5,39.1h274.2V575H593.2c-25.5,0-39,12.1-39,39.1l0.1,195.8
			H265.1L265,614.1c0-27-12.1-39.1-40.5-39.1H6.1V252.2h219.8c26.9,0,38.9-12.1,39-39.1L265.1,90L265.1,90z"/>
		<path class="st2" d="M56.1,487.2c13.5-2,31.9-4.8,51.6-5c15.8,0,31.5,0,47.5,0c20.7,1.4,37.3,0.8,53.3,5.8
			c3.1,0.8,10.6,5.2,10.6,10.6v40.2c0,6.4-8.3,8.2-10.6,8.8c-16,3.8-32.5,5.4-53.1,5.4h-47.9c-18.7,0-37.3-2-51.4-4.6
			c-3.9-0.8-10.8-1.6-10.8-10v-40.6C45.3,486.8,50.5,488,56.1,487.2L56.1,487.2z"/>
		<path class="st3" d="M151.8,492.2l17.4-2.7c6.8,19.2,6.2,36.2,0,56.7l-17.4-2.5C156.2,523.3,156.6,513.5,151.8,492.2L151.8,492.2z
			"/>
		<path class="st3" d="M78,493.2l10.8,3.6c-2.7,14.5-2.7,28.5-0.2,42.2L78,542.8C75.1,526.8,75.6,509.7,78,493.2L78,493.2z"/>
		<line class="st4" x1="95" y1="489" x2="145.2" y2="489.2"/>
		<line class="st4" x1="95" y1="546.3" x2="145.2" y2="546.5"/>
		<path class="st5" d="M772.8,289c-13.5-2-31.9-4.8-51.6-5c-15.8,0-31.5,0-47.5,0c-20.7,1.4-37.3,0.8-53.3,5.8
			c-3.1,0.8-10.6,5.2-10.6,10.6v40.2c0,6.4,8.3,8.2,10.6,8.8c16,3.8,32.5,5.4,53.1,5.4h47.9c18.7,0,37.3-2,51.4-4.6
			c3.9-0.8,10.8-1.6,10.8-10v-40.6C783.5,288.6,778.3,289.8,772.8,289L772.8,289z"/>
		<path class="st3" d="M677,294l-17.4-2.7c-6.8,19.2-6.2,36.2,0,56.7l17.4-2.5C672.6,325,672.2,315.2,677,294L677,294z"/>
		<path class="st3" d="M750.8,295l-10.8,3.6c2.7,14.5,2.7,28.5,0.2,42.2l10.6,3.8C753.7,328.5,753.3,311.5,750.8,295L750.8,295z"/>
		<line class="st6" x1="733.8" y1="290.8" x2="683.6" y2="291"/>
		<line class="st6" x1="733.8" y1="348" x2="683.6" y2="348.2"/>
		<path class="st7" d="M459.1,759.3c-2-13.5-4.8-31.9-5-51.6c0-15.8,0-31.5,0-47.5c1.4-20.7,0.8-37.3,5.8-53.3
			c0.8-3.1,5.2-10.6,10.6-10.6h40.2c6.4,0,8.2,8.3,8.8,10.6c3.8,16,5.4,32.5,5.4,53.1v47.9c0,18.7-2,37.3-4.6,51.4
			c-0.8,3.9-1.6,10.8-10,10.8h-40.6C458.7,770.1,459.9,764.9,459.1,759.3L459.1,759.3z"/>
		<path class="st3" d="M464.1,663.5l-2.7-17.4c19.2-6.8,36.2-6.2,56.7,0l-2.5,17.4C495.1,659.2,485.4,658.8,464.1,663.5L464.1,663.5
			z"/>
		<path class="st3" d="M465.1,737.3l3.6-10.8c14.5,2.7,28.5,2.7,42.2,0.2l3.8,10.6C498.7,740.2,481.6,739.8,465.1,737.3L465.1,737.3
			z"/>
		<line class="st4" x1="460.9" y1="720.3" x2="461.1" y2="670.2"/>
		<line class="st4" x1="518.1" y1="720.3" x2="518.4" y2="670.2"/>
		<path class="st8" d="M307.5,759.3c-2-13.5-4.8-31.9-5-51.6c0-15.8,0-31.5,0-47.5c1.4-20.7,0.8-37.3,5.8-53.3
			c0.8-3.1,5.2-10.6,10.6-10.6h40.2c6.4,0,8.2,8.3,8.8,10.6c3.8,16,5.4,32.5,5.4,53.1v47.9c0,18.7-2,37.3-4.6,51.4
			c-0.8,3.9-1.6,10.8-10,10.8h-40.6C307.1,770.1,308.3,764.9,307.5,759.3L307.5,759.3z"/>
		<path class="st3" d="M312.5,663.5l-2.7-17.4c19.2-6.8,36.2-6.2,56.7,0l-2.5,17.4C343.5,659.2,333.7,658.8,312.5,663.5L312.5,663.5
			z"/>
		<path class="st3" d="M313.5,737.3l3.6-10.8c14.5,2.7,28.5,2.7,42.2,0.2l3.8,10.6C347,740.2,330,739.8,313.5,737.3L313.5,737.3z"/>
		<line class="st4" x1="309.3" y1="720.3" x2="309.5" y2="670.2"/>
		<line class="st4" x1="366.5" y1="720.3" x2="366.7" y2="670.2"/>
		<polygon class="st5" points="563.5,517.3 526.3,525.8 526.3,508.8 		"/>
		<polygon class="st5" points="130.2,318.9 167.4,327.4 167.4,310.5 		"/>
		<polygon class="st5" points="166.7,351 203.9,359.5 203.9,342.6 		"/>
		<polygon class="st5" points="489.3,165.9 480.8,203.1 497.8,203.1 		"/>
		<path class="st9" d="M229.4,720.5h-12.9l-5.1-13.4h-23.5l-4.9,13.4h-12.6l22.9-58.9h12.6L229.4,720.5L229.4,720.5z M207.5,697.2
			l-8.1-21.9l-8,21.9H207.5L207.5,697.2z"/>
		<polygon class="st9" points="688.6,429.3 688.6,370.9 700.5,370.9 700.5,419.4 730,419.4 730,429.3 		"/>
		<path class="st9" d="M637.5,696.6l11.5,3.7c-1.8,6.4-4.7,11.2-8.8,14.3s-9.3,4.7-15.6,4.7c-7.8,0-14.2-2.7-19.3-8
			c-5-5.3-7.6-12.6-7.6-21.9c0-9.8,2.5-17.4,7.6-22.8c5.1-5.4,11.7-8.1,20-8.1c7.2,0,13.1,2.1,17.5,6.4c2.7,2.5,4.7,6.1,6,10.8
			l-11.8,2.8c-0.7-3.1-2.1-5.5-4.4-7.2c-2.2-1.8-4.9-2.6-8-2.6c-4.4,0-7.9,1.6-10.6,4.7c-2.7,3.1-4.1,8.2-4.1,15.2
			c0,7.4,1.3,12.8,4,15.9c2.7,3.2,6.2,4.7,10.4,4.7c3.2,0,5.9-1,8.2-3C634.9,704.1,636.5,701,637.5,696.6L637.5,696.6z"/>
		<path class="st9" d="M105.6,410.9h21.7c4.9,0,8.6,0.4,11.2,1.1c3.5,1,6.4,2.8,8.9,5.4s4.3,5.8,5.6,9.5c1.3,3.8,1.9,8.4,1.9,13.9
			c0,4.8-0.6,9-1.8,12.5c-1.5,4.3-3.6,7.7-6.3,10.4c-2.1,2-4.8,3.6-8.3,4.7c-2.6,0.8-6.1,1.2-10.5,1.2h-22.4L105.6,410.9
			L105.6,410.9z M117.4,420.9v39h8.9c3.3,0,5.7-0.2,7.2-0.6c1.9-0.5,3.5-1.3,4.8-2.4s2.3-3.1,3.1-5.7s1.2-6.2,1.2-10.8
			c0-4.6-0.4-8-1.2-10.5c-0.8-2.4-1.9-4.3-3.4-5.7c-1.5-1.4-3.3-2.3-5.5-2.8c-1.7-0.4-4.9-0.6-9.8-0.6h-5.3
			C117.4,420.8,117.4,420.9,117.4,420.9z"/>
		<path class="st10" d="M6.1,225.1H238v-135 M581.1,90v135.1h287.8 M868.9,602.1H581.1V810 M238,810V602.1H6.1"/>
		<path class="st11" d="M554.2,90.1V213c-0.1,27,13.5,39.1,40.5,39.1h274.2 M868.9,575H593.2c-25.5,0-39,12.1-39,39.1l0.1,195.8
			 M265.1,810L265,614.2c0-27-12.1-39.1-40.5-39.1H6.1 M6.1,252.2h219.8c26.9,0,38.9-12.1,39-39.1l0.1-123"/>
		<path class="st12" d="M338,589.2c1.1-155.5-40.8-223.5-132.4-237.5"/>
		<line class="st12" x1="489.5" y1="590.7" x2="489.5" y2="205.9"/>
		<line class="st12" x1="604.3" y1="319.5" x2="170.4" y2="319.5"/>
		<line class="st12" x1="224.8" y1="517.7" x2="523.9" y2="517.7"/>
	</g>
</g>
</svg>
