<?xml version="1.0" encoding="utf-8"?>
<!-- Generator: Adobe Illustrator 19.2.0, SVG Export Plug-In . SVG Version: 6.00 Build 0)  -->
<svg version="1.1" id="Livello_1" xmlns="http://www.w3.org/2000/svg" xmlns:xlink="http://www.w3.org/1999/xlink" x="0px" y="0px"
	 viewBox="0 0 875 900" style="enable-background:new 0 0 875 900;" xml:space="preserve">
<style type="text/css">
	.st0{fill:#FFFFFF;}
	.st1{fill:#B9B9B9;}
	.st2{fill:none;stroke:#1A171B;stroke-width:1.2644;stroke-linecap:square;stroke-miterlimit:2.6131;}
	.st3{fill:none;stroke:#1A171B;stroke-width:4.2146;stroke-linecap:square;stroke-miterlimit:2.6131;}
	.st4{fill:#00A6E2;stroke:#1A171B;stroke-width:1.2644;stroke-miterlimit:2.6131;}
	.st5{fill:#FFFFFF;stroke:#1A171B;stroke-width:1.2644;stroke-miterlimit:2.6131;}
	.st6{fill:none;stroke:#1A171B;stroke-width:1.6858;stroke-miterlimit:2.6131;}
	.st7{fill:#FFEC00;stroke:#1A171B;stroke-width:1.2644;stroke-miterlimit:2.6131;}
	.st8{fill:#3D3D3F;stroke:#1A171B;stroke-width:1.2644;stroke-miterlimit:2.6131;}
	.st9{fill:none;stroke:#FFFFFF;stroke-width:1.6858;stroke-miterlimit:2.6131;}
	.st10{fill:#E43417;stroke:#1A171B;stroke-width:1.2644;stroke-miterlimit:2.6131;}
	.st11{fill:#1A171B;}
	
		.st12{fill:none;stroke:#1A171B;stroke-width:4.2146;stroke-linecap:square;stroke-miterlimit:2.6131;stroke-dasharray:21.0731,21.0731;}
</style>
<g>
	<g>
		<polygon class="st0" points="263,90 582.7,90 582.7,287.8 814.8,287.8 814.8,617.5 582.7,617.5 582.7,810 263,810 263,617.5 
			60.2,617.5 60.2,287.8 263,287.8 		"/>
		<path class="st1" d="M286.7,90h272.6l-0.1,187.3c-0.1,23.7,11.8,34.2,35.4,34.2h220.3v282.4H593.3c-22.3,0-34.1,10.6-34.1,34.2
			l0.1,181.9H286.7l-0.1-181.9c0-23.7-10.6-34.2-35.4-34.2h-191V311.5h192.3c23.6,0,34-10.6,34.1-34.2L286.7,90L286.7,90z"/>
		<path class="st2" d="M286.7,810l-0.1-181.9c0-23.7-10.6-34.2-35.4-34.2h-191"/>
		<polyline class="st3" points="263,810 263,617.5 60.2,617.5 		"/>
		<path class="st2" d="M814.8,593.9H593.3c-22.3,0-34.1,10.6-34.1,34.2l0.1,181.9"/>
		<polyline class="st3" points="814.8,617.5 582.7,617.5 582.7,810 		"/>
		<path class="st2" d="M559.2,90.1v187.2c-0.1,23.7,11.8,34.2,35.4,34.2h220.3"/>
		<polyline class="st3" points="582.7,90 582.7,287.8 814.8,287.8 		"/>
		<path class="st2" d="M60.2,311.5h192.3c23.6,0,34-10.6,34.1-34.2L286.7,90"/>
		<polyline class="st3" points="60.2,287.8 263,287.8 263,90.1 		"/>
		<path class="st4" d="M414,763.8c-1.6-11-3.9-26.1-4.1-42.2c0-12.9,0-25.8,0-38.8c1.2-16.9,0.7-30.5,4.8-43.6
			c0.7-2.5,4.3-8.6,8.7-8.6h32.9c5.3,0,6.7,6.8,7.2,8.6c3.1,13.1,4.4,26.6,4.4,43.4v39.2c0,15.3-1.6,30.5-3.8,42
			c-0.7,3.2-1.3,8.8-8.2,8.8h-33.2C413.7,772.6,414.6,768.4,414,763.8L414,763.8z"/>
		<path class="st5" d="M418.1,685.5l-2.2-14.2c15.7-5.6,29.6-5.1,46.3,0l-2,14.2C443.5,681.9,435.5,681.6,418.1,685.5L418.1,685.5z"
			/>
		<path class="st5" d="M418.9,745.8l3-8.8c11.8,2.2,23.3,2.2,34.5,0.2l3.1,8.6C446.3,748.2,432.4,747.9,418.9,745.8L418.9,745.8z"/>
		<line class="st6" x1="415.5" y1="731.9" x2="415.6" y2="690.9"/>
		<line class="st6" x1="462.3" y1="731.9" x2="462.4" y2="690.9"/>
		<path class="st7" d="M768.3,334.2c-11-1.6-26.1-3.9-42.2-4.1c-12.9,0-25.8,0-38.8,0c-17,1.2-30.5,0.7-43.6,4.8
			c-2.5,0.7-8.6,4.3-8.6,8.7v32.9c0,5.3,6.8,6.7,8.6,7.2c13.1,3.1,26.6,4.4,43.4,4.4h39.2c15.3,0,30.5-1.6,42-3.8
			c3.2-0.7,8.8-1.3,8.8-8.2v-33.2C777.1,333.9,772.9,334.9,768.3,334.2L768.3,334.2z"/>
		<path class="st5" d="M690,338.3l-14.2-2.2c-5.6,15.7-5.1,29.6,0,46.3l14.2-2C686.4,363.7,686.1,355.7,690,338.3L690,338.3z"/>
		<path class="st5" d="M750.4,339.2l-8.8,3c2.2,11.8,2.2,23.3,0.2,34.5l8.6,3.1C752.7,366.6,752.4,352.6,750.4,339.2L750.4,339.2z"
			/>
		<line class="st6" x1="736.5" y1="335.7" x2="695.4" y2="335.9"/>
		<line class="st6" x1="736.5" y1="382.5" x2="695.4" y2="382.7"/>
		<path class="st8" d="M432.4,136c1.6,11,3.9,26.1,4.1,42.2c0,12.9,0,25.8,0,38.8c-1.2,17-0.7,30.5-4.8,43.6
			c-0.7,2.5-4.3,8.6-8.7,8.6h-32.9c-5.3,0-6.7-6.8-7.2-8.6c-3.1-13.1-4.4-26.6-4.4-43.4V178c0-15.3,1.6-30.5,3.8-42
			c0.7-3.2,1.3-8.8,8.2-8.8h33.2C432.8,127.2,431.8,131.4,432.4,136L432.4,136z"/>
		<path class="st5" d="M428.3,214.4l2.2,14.2c-15.7,5.6-29.6,5.1-46.3,0l2-14.2C403,217.9,411,218.3,428.3,214.4L428.3,214.4z"/>
		<path class="st5" d="M427.5,154l-3,8.8c-11.8-2.2-23.3-2.2-34.5-0.2l-3.1-8.6C400.1,151.6,414,152,427.5,154L427.5,154z"/>
		<line class="st9" x1="431" y1="167.9" x2="430.8" y2="208.9"/>
		<line class="st9" x1="384.1" y1="167.9" x2="384" y2="208.9"/>
		<path class="st10" d="M489.5,763.9c-1.6-11-3.9-26.1-4.1-42.2c0-12.9,0-25.8,0-38.8c1.1-17,0.7-30.5,4.8-43.6
			c0.7-2.5,4.3-8.6,8.7-8.6h32.9c5.3,0,6.7,6.8,7.2,8.6c3.1,13.1,4.4,26.6,4.4,43.4v39.2c0,15.3-1.6,30.5-3.8,42
			c-0.7,3.2-1.3,8.8-8.2,8.8h-33.2C489.2,772.7,490.2,768.5,489.5,763.9L489.5,763.9z"/>
		<path class="st5" d="M493.6,685.6l-2.2-14.2c15.7-5.6,29.6-5.1,46.3,0l-2,14.2C519,682,511,681.7,493.6,685.6L493.6,685.6z"/>
		<path class="st5" d="M494.5,745.9l3-8.8c11.8,2.2,23.3,2.2,34.5,0.2l3.1,8.6C521.9,748.3,507.9,748,494.5,745.9L494.5,745.9z"/>
		<line class="st6" x1="491" y1="732" x2="491.2" y2="691"/>
		<line class="st6" x1="537.8" y1="732" x2="538" y2="691"/>
		<polygon class="st8" points="690.2,559.9 658.5,549.1 657,563.8 		"/>
		<polygon class="st8" points="186.2,359.7 218.8,367.1 218.8,352.3 		"/>
		<polygon class="st8" points="513.4,243.1 506,275.7 520.8,275.7 		"/>
		<path class="st11" d="M690.9,450.2V402h20.5c5.1,0,8.9,0.4,11.2,1.3s4.2,2.4,5.6,4.6c1.4,2.2,2.1,4.7,2.1,7.6c0,3.6-1.1,6.6-3.2,9
			c-2.1,2.3-5.3,3.8-9.5,4.4c2.1,1.2,3.8,2.6,5.2,4c1.4,1.5,3.2,4.1,5.5,7.8l5.9,9.4h-11.7l-7-10.5c-2.5-3.7-4.2-6.1-5.1-7.1
			c-0.9-1-1.9-1.6-2.9-2s-2.7-0.5-4.9-0.5h-2v20.1h-9.7V450.2z M700.6,422.4h7.2c4.7,0,7.6-0.2,8.7-0.6c1.2-0.4,2.1-1.1,2.7-2
			c0.7-1,1-2.2,1-3.6c0-1.6-0.4-2.9-1.3-3.9c-0.9-1-2.1-1.6-3.7-1.9c-0.8-0.1-3.1-0.2-7.1-0.2h-7.6L700.6,422.4L700.6,422.4z"/>
		<path class="st11" d="M326.3,168.5h19.2c3.8,0,6.7,0.2,8.5,0.5c1.9,0.3,3.5,1,5,2s2.7,2.3,3.7,4s1.5,3.6,1.5,5.6
			c0,2.3-0.6,4.3-1.8,6.2c-1.2,1.9-2.9,3.3-4.9,4.2c2.9,0.9,5.2,2.3,6.8,4.4c1.6,2.1,2.4,4.5,2.4,7.3c0,2.2-0.5,4.3-1.5,6.4
			c-1,2.1-2.4,3.7-4.2,5c-1.8,1.2-3.9,2-6.5,2.3c-1.6,0.2-5.5,0.3-11.7,0.3h-16.4v-48.2H326.3z M336.1,176.5v11.1h6.4
			c3.8,0,6.1-0.1,7.1-0.2c1.7-0.2,3-0.8,3.9-1.7c1-1,1.4-2.2,1.4-3.8c0-1.5-0.4-2.7-1.2-3.6c-0.8-0.9-2.1-1.5-3.7-1.7
			c-1-0.1-3.7-0.2-8.3-0.2L336.1,176.5L336.1,176.5z M336.1,195.7v12.9h9c3.5,0,5.7-0.1,6.7-0.3c1.4-0.3,2.6-0.9,3.5-1.9
			s1.4-2.4,1.4-4.1c0-1.4-0.4-2.7-1.1-3.7s-1.7-1.7-3-2.2s-4.2-0.7-8.6-0.7H336.1L336.1,195.7z"/>
		<polygon class="st11" points="615.1,733.2 615.1,685 624.6,685 644.3,717.2 644.3,685 653.3,685 653.3,733.2 643.6,733.2 
			624.2,701.8 624.2,733.2 		"/>
		<path class="st11" d="M358.4,687.6h17.8c4,0,7.1,0.3,9.2,0.9c2.8,0.8,5.2,2.3,7.3,4.4c2,2.1,3.6,4.7,4.6,7.8s1.6,6.9,1.6,11.4
			c0,4-0.5,7.4-1.5,10.2c-1.2,3.5-2.9,6.3-5.2,8.5c-1.7,1.7-4,2.9-6.8,3.8c-2.1,0.7-5,1-8.6,1h-18.3v-48H358.4z M368.1,695.8v31.9
			h7.3c2.7,0,4.7-0.1,5.9-0.5c1.6-0.4,2.9-1.1,3.9-2s1.9-2.5,2.5-4.7s1-5.1,1-8.8s-0.3-6.6-1-8.6s-1.6-3.6-2.8-4.7
			c-1.2-1.1-2.7-1.9-4.5-2.3c-1.4-0.3-4-0.5-8-0.5h-4.3V695.8z"/>
		<path class="st12" d="M631.4,359.7H220.9c157.2,38.2,213.7,120,218.2,264.1"/>
		<line class="st12" x1="513.6" y1="622.5" x2="513.6" y2="277.8"/>
		<path class="st12" d="M408.2,273.7c10.3,129.1,77.7,229.5,246.8,282.7"/>
	</g>
</g>
</svg>
