<?xml version="1.0" encoding="utf-8"?>
<!-- Generator: Adobe Illustrator 19.2.0, SVG Export Plug-In . SVG Version: 6.00 Build 0)  -->
<svg version="1.1" id="Livello_1" xmlns="http://www.w3.org/2000/svg" xmlns:xlink="http://www.w3.org/1999/xlink" x="0px" y="0px"
	 viewBox="0 0 875 900" style="enable-background:new 0 0 875 900;" xml:space="preserve">
<style type="text/css">
	.st0{fill:#FFFFFF;}
	.st1{fill:#B9B9B9;}
	.st2{fill:#3D3D3F;stroke:#1A171B;stroke-width:1.4492;stroke-miterlimit:2.6131;}
	.st3{fill:#FFFFFF;stroke:#1A171B;stroke-width:1.4492;stroke-miterlimit:2.6131;}
	.st4{fill:none;stroke:#FFFFFF;stroke-width:1.9323;stroke-miterlimit:2.6131;}
	.st5{fill:#049853;stroke:#1A171B;stroke-width:1.4492;stroke-miterlimit:2.6131;}
	.st6{fill:none;stroke:#1A171B;stroke-width:1.9323;stroke-miterlimit:2.6131;}
	.st7{fill:#1A171B;}
	.st8{fill:none;stroke:#1A171B;stroke-width:4.8307;stroke-miterlimit:2.6131;}
	.st9{fill:none;stroke:#1A171B;stroke-width:1.4492;stroke-miterlimit:2.6131;}
	.st10{fill:#00A6E2;stroke:#1A171B;stroke-width:1.4492;stroke-miterlimit:2.6131;}
	.st11{fill:#E43417;stroke:#1A171B;stroke-width:1.4492;stroke-linecap:square;stroke-miterlimit:2.6131;}
	.st12{fill:#FFFFFF;stroke:#1A171B;stroke-width:1.4492;stroke-linecap:square;stroke-miterlimit:2.6131;}
	
		.st13{fill:none;stroke:#1A171B;stroke-width:4.8307;stroke-linecap:square;stroke-miterlimit:2.6131;stroke-dasharray:24.1533,24.1533;}
</style>
<g>
	<g>
		<polygon class="st0" points="254,120.3 581.3,120.3 581.3,230.5 872.5,230.5 872.5,587.3 581.3,587.3 581.3,779.6 254,779.6 
			254,587.3 2.5,587.3 2.5,230.5 254,230.5 		"/>
		<path class="st1" d="M277.8,120.3h279.5l-0.1,98.3c-0.1,24.3,12,36,35.9,36h279.4v308.6H593.1c-24,0-36,12.3-35.9,36l0.1,180.3
			H277.8V599.2c0-24.1-12.9-36-35.8-36H2.5V254.6H242c23.9,0,35.8-11.8,35.8-36V120.3L277.8,120.3z"/>
		<path class="st2" d="M595.6,473c12-1.8,28.5-4.3,46.1-4.5c14.1,0,28.2,0,42.4,0c18.5,1.3,33.4,0.7,47.6,5.2
			c2.8,0.7,9.4,4.7,9.4,9.5v35.9c0,5.7-7.4,7.4-9.4,7.9c-14.3,3.4-29.1,4.8-47.4,4.8h-42.8c-16.7,0-33.4-1.8-46-4.1
			c-3.5-0.7-9.6-1.4-9.6-9v-36.3C585.9,472.7,590.6,473.7,595.6,473L595.6,473z"/>
		<path class="st3" d="M681.2,477.5l15.6-2.4c6.1,17.1,5.6,32.4,0,50.7l-15.6-2.2C685.1,505.2,685.4,496.5,681.2,477.5L681.2,477.5z
			"/>
		<path class="st3" d="M615.2,478.4l9.6,3.2c-2.4,12.9-2.4,25.5-0.2,37.7l-9.4,3.4C612.6,508.4,613,493.1,615.2,478.4L615.2,478.4z"
			/>
		<line class="st4" x1="630.4" y1="474.6" x2="675.3" y2="474.8"/>
		<line class="st4" x1="630.4" y1="525.8" x2="675.3" y2="526"/>
		<path class="st5" d="M755.1,290.8c-12-1.8-28.5-4.3-46.1-4.5c-14.1,0-28.2,0-42.4,0c-18.5,1.3-33.3,0.7-47.6,5.2
			c-2.8,0.7-9.4,4.7-9.4,9.5v35.9c0,5.7,7.4,7.4,9.4,7.9c14.3,3.4,29.1,4.8,47.4,4.8h42.8c16.7,0,33.3-1.8,46-4.1
			c3.5-0.7,9.6-1.4,9.6-9v-36.3C764.8,290.4,760.1,291.5,755.1,290.8L755.1,290.8z"/>
		<path class="st3" d="M669.5,295.3l-15.6-2.4c-6.1,17.1-5.6,32.4,0,50.6l15.6-2.2C665.6,323,665.3,314.3,669.5,295.3L669.5,295.3z"
			/>
		<path class="st3" d="M735.5,296.2l-9.6,3.2c2.4,12.9,2.4,25.5,0.2,37.7l9.5,3.4C738.1,326.1,737.7,310.9,735.5,296.2L735.5,296.2z
			"/>
		<line class="st6" x1="720.3" y1="292.4" x2="675.5" y2="292.6"/>
		<line class="st6" x1="720.3" y1="343.6" x2="675.5" y2="343.7"/>
		<polygon class="st2" points="162.1,317.8 194.5,325.1 194.5,310.4 		"/>
		<polygon class="st2" points="504.6,150.9 512,183.3 497.3,183.3 		"/>
		<polygon class="st2" points="579.2,499.6 546.8,506.9 546.8,492.2 		"/>
		<polygon class="st2" points="850.7,499.6 818.3,506.9 818.3,492.2 		"/>
		<polygon class="st7" points="646.2,454.9 646.2,402.7 656.8,402.7 656.8,446.1 683.2,446.1 683.2,454.9 		"/>
		<path class="st7" d="M785.6,344.7v-52.6H808c5.6,0,9.7,0.5,12.3,1.4c2.5,0.9,4.6,2.6,6.1,5s2.3,5.2,2.3,8.3c0,3.9-1.2,7.2-3.5,9.8
			c-2.3,2.6-5.8,4.2-10.4,4.9c2.3,1.3,4.2,2.8,5.7,4.4s3.5,4.4,6,8.5l6.4,10.3h-12.7l-7.7-11.5c-2.7-4.1-4.6-6.7-5.6-7.7
			c-1-1.1-2.1-1.8-3.2-2.2c-1.1-0.4-2.9-0.6-5.4-0.6h-2.1v22L785.6,344.7L785.6,344.7z M796.2,314.3h7.9c5.1,0,8.3-0.2,9.6-0.6
			s2.3-1.2,3-2.2c0.7-1.1,1.1-2.4,1.1-3.9c0-1.8-0.5-3.2-1.4-4.3c-0.9-1.1-2.3-1.8-4-2.1c-0.9-0.1-3.4-0.2-7.8-0.2h-8.3L796.2,314.3
			L796.2,314.3z"/>
		<path class="st7" d="M108.6,391.3h21c4.2,0,7.3,0.2,9.3,0.5s3.9,1.1,5.5,2.2s3,2.6,4,4.4c1.1,1.8,1.6,3.9,1.6,6.2
			c0,2.5-0.7,4.7-2,6.8c-1.3,2.1-3.1,3.6-5.4,4.6c3.2,0.9,5.7,2.5,7.4,4.8s2.6,4.9,2.6,7.9c0,2.4-0.6,4.7-1.7,7
			c-1.1,2.3-2.6,4.1-4.6,5.4c-1.9,1.3-4.3,2.2-7.1,2.5c-1.8,0.2-6,0.3-12.8,0.4h-17.9L108.6,391.3L108.6,391.3z M119.2,400.1v12.2h7
			c4.1,0,6.7-0.1,7.7-0.2c1.8-0.2,3.2-0.8,4.3-1.9c1-1,1.6-2.4,1.6-4.1c0-1.6-0.4-3-1.3-4c-0.9-1-2.2-1.6-4-1.8
			c-1.1-0.1-4.1-0.2-9.1-0.2H119.2L119.2,400.1z M119.2,421v14.1h9.8c3.8,0,6.3-0.1,7.3-0.3c1.6-0.3,2.9-1,3.9-2.1s1.5-2.6,1.5-4.5
			c0-1.6-0.4-2.9-1.2-4s-1.9-1.9-3.3-2.4c-1.4-0.5-4.6-0.7-9.4-0.7h-8.6V421z"/>
		<path class="st7" d="M415.3,646.2h19.4c4.4,0,7.7,0.3,10,1c3.1,0.9,5.7,2.5,7.9,4.9c2.2,2.3,3.9,5.2,5,8.5
			c1.1,3.4,1.7,7.5,1.7,12.4c0,4.3-0.5,8.1-1.6,11.2c-1.3,3.8-3.2,6.9-5.6,9.3c-1.8,1.8-4.3,3.2-7.5,4.2c-2.3,0.7-5.5,1.1-9.4,1.1
			h-20v-52.6H415.3z M426,655.1V690h7.9c3,0,5.1-0.2,6.4-0.5c1.7-0.4,3.2-1.2,4.3-2.2c1.1-1,2.1-2.7,2.8-5.1
			c0.7-2.4,1.1-5.6,1.1-9.6s-0.4-7.2-1.1-9.4s-1.7-3.9-3-5.1c-1.3-1.2-2.9-2-4.9-2.5c-1.5-0.3-4.4-0.5-8.7-0.5L426,655.1L426,655.1z
			"/>
		<path class="st8" d="M2.5,230.5l251.5,0.1l-0.1-110.3 M581.3,120.4v110.2l291.2-0.1 M872.5,587.4H581.3l-0.1,192.3 M254,779.7
			l0.1-192.3L2.5,587.3"/>
		<path class="st9" d="M2.5,254.6l239.5,0.1c23.9,0,35.8-11.8,35.8-36v-98.3 M557.2,120.3v98.3c-0.1,24.3,12,36,35.9,36h279.4
			 M872.5,563.2l-279.4,0.1c-24,0-36,12.3-35.9,36l0.1,180.3 M277.8,779.7V599.3c0-24.1-12.9-36-35.8-36L2.5,563.2"/>
		<path class="st10" d="M478.8,734.5c-1.8-12-4.3-28.5-4.5-46.1c0-14.1,0-28.2,0-42.4c1.3-18.5,0.7-33.4,5.2-47.6
			c0.7-2.8,4.7-9.4,9.5-9.4h35.9c5.7,0,7.4,7.4,7.9,9.4c3.4,14.3,4.8,29.1,4.8,47.4v42.8c0,16.7-1.8,33.4-4.1,46
			c-0.7,3.5-1.4,9.6-9,9.6h-36.3C478.4,744.1,479.5,739.5,478.8,734.5L478.8,734.5z"/>
		<path class="st3" d="M483.2,648.9l-2.4-15.6c17.1-6.1,32.4-5.6,50.6,0l-2.2,15.6C511,645,502.2,644.6,483.2,648.9L483.2,648.9z"/>
		<path class="st3" d="M484.1,714.8l3.2-9.6c12.9,2.4,25.5,2.4,37.7,0.2l3.4,9.4C514.1,717.4,498.9,717.1,484.1,714.8L484.1,714.8z"
			/>
		<line class="st6" x1="480.4" y1="699.6" x2="480.5" y2="654.8"/>
		<line class="st6" x1="531.5" y1="699.6" x2="531.7" y2="654.8"/>
		<polygon class="st11" points="36.5,462.1 46,462.1 46,538.3 36.5,538.3 		"/>
		<path class="st11" d="M196.2,545.2h-30.5c-1.2,0-2.3-1.2-2.3-2.8c0-1.5,1.4-2.8,2.3-2.8h32.4C198.2,539.7,198.4,545.2,196.2,545.2
			L196.2,545.2z"/>
		<path class="st11" d="M196.2,455.4h-30.5c-1.2,0-2.3,1.2-2.3,2.8c0,1.5,1.4,2.8,2.3,2.8h32.4C198.2,460.9,198.4,455.4,196.2,455.4
			L196.2,455.4z"/>
		<path class="st11" d="M222.9,458.2v84.2h2.8c4.6,0,8.3-3.7,8.3-8.3v-67.6c0-4.6-3.7-8.3-8.3-8.3L222.9,458.2L222.9,458.2z"/>
		<path class="st11" d="M223.1,460.9h-48.7v78.7h48.7c3.7,0,7-3.1,7-7v-64.7C230,464,227,460.9,223.1,460.9L223.1,460.9z"/>
		<path class="st11" d="M208.1,466.1h-24.7c-1.8,0-3.4,2.3-3.4,5.2v58c0,3,1.5,5.3,3.4,5.3h24.7c1.8,0,3.2-2.5,3.4-5.3
			c1.6-19.4,1.5-38.7,0-58C211.3,468.3,209.9,466.1,208.1,466.1L208.1,466.1z"/>
		<path class="st12" d="M221.9,464.2c-1,0.9-6.6,4.1-6.5,5c2.7,19.2,2.8,43.1,0,62.9c-0.1,0.3,5.6,3.3,6.5,4.2
			c1.1,1,3.3-1.8,3.5-3.8c1.7-21.4,1.7-43.1,0-64.4C225.3,465.9,223.2,463,221.9,464.2L221.9,464.2z"/>
		<path class="st11" d="M83.5,545.2H53c-1.2,0-2.3-1.2-2.3-2.8c0-1.5,2.3-2.8,2.3-2.8h32.4C85.4,539.7,85.7,545.2,83.5,545.2
			L83.5,545.2z"/>
		<path class="st11" d="M83.5,455.4H53c-1.2,0-2.3,1.2-2.3,2.8c0,1.5,2.3,2.8,2.3,2.8h32.4C85.4,460.9,85.7,455.4,83.5,455.4
			L83.5,455.4z"/>
		<polygon class="st11" points="174.4,458.2 39.2,458.2 39.2,542.4 174.4,542.4 		"/>
		<polygon class="st11" points="168.2,463.7 45.5,463.7 45.5,536.8 168.2,536.8 		"/>
		<polygon class="st11" points="168.2,478.2 45.5,478.2 45.5,522.5 168.2,522.5 		"/>
		<polygon class="st11" points="168.2,492.9 45.5,492.9 45.5,507.7 168.2,507.7 		"/>
		<line class="st13" x1="605.7" y1="318.2" x2="196.7" y2="318.2"/>
		<line class="st13" x1="240.2" y1="499.9" x2="541.5" y2="499.9"/>
		<line class="st13" x1="746.5" y1="499.9" x2="814.1" y2="499.9"/>
		<line class="st13" x1="504.8" y1="583.9" x2="504.8" y2="183.5"/>
	</g>
</g>
</svg>
