<?xml version="1.0" encoding="utf-8"?>
<!-- Generator: Adobe Illustrator 19.2.0, SVG Export Plug-In . SVG Version: 6.00 Build 0)  -->
<svg version="1.1" id="Livello_1" xmlns="http://www.w3.org/2000/svg" xmlns:xlink="http://www.w3.org/1999/xlink" x="0px" y="0px"
	 viewBox="0 0 960 960" style="enable-background:new 0 0 960 960;" xml:space="preserve">
<style type="text/css">
	.st0{fill-rule:evenodd;clip-rule:evenodd;fill:#FFFFFF;}
	.st1{fill-rule:evenodd;clip-rule:evenodd;fill:#CECFD1;}
	.st2{fill:none;stroke:#1A171B;stroke-width:1.2644;stroke-linecap:square;stroke-miterlimit:2.6131;}
	.st3{fill:none;stroke:#1A171B;stroke-width:4.2146;stroke-linecap:square;stroke-miterlimit:2.6131;}
	.st4{fill-rule:evenodd;clip-rule:evenodd;fill:#00A6E2;stroke:#1A171B;stroke-width:1.2644;stroke-miterlimit:2.6131;}
	.st5{fill-rule:evenodd;clip-rule:evenodd;fill:#FFFFFF;stroke:#1A171B;stroke-width:1.2644;stroke-miterlimit:2.6131;}
	.st6{fill:none;stroke:#1A171B;stroke-width:1.6858;stroke-miterlimit:2.6131;}
	.st7{fill-rule:evenodd;clip-rule:evenodd;fill:#049853;stroke:#1A171B;stroke-width:1.2644;stroke-miterlimit:2.6131;}
	.st8{fill-rule:evenodd;clip-rule:evenodd;fill:#3D3D3F;stroke:#1A171B;stroke-width:1.2644;stroke-miterlimit:2.6131;}
	.st9{fill:none;stroke:#FFFFFF;stroke-width:1.6858;stroke-miterlimit:2.6131;}
	.st10{fill-rule:evenodd;clip-rule:evenodd;fill:#E43417;stroke:#1A171B;stroke-width:1.2644;stroke-miterlimit:2.6131;}
	.st11{fill-rule:evenodd;clip-rule:evenodd;fill:#1A171B;stroke:#1A171B;stroke-width:1.2644;stroke-miterlimit:2.6131;}
	
		.st12{fill:none;stroke:#1A171B;stroke-width:4.2146;stroke-linecap:square;stroke-miterlimit:2.6131;stroke-dasharray:21.0731,21.0731;}
	.st13{fill-rule:evenodd;clip-rule:evenodd;fill:#1A171B;}
</style>
<g>
	<g>
		<polygon class="st0" points="320.3,120 640,120 640,317.8 872.1,317.8 872.1,647.5 640,647.5 640,840 320.3,840 320.3,647.5 
			87.9,647.5 87.9,317.8 320.3,317.8 320.3,120 		"/>
		<path class="st1" d="M344,120h272.6l-0.1,187.3c-0.1,23.7,11.8,34.2,35.4,34.2h220.2v282.4H650.6c-22.3,0-34.1,10.6-34.1,34.2
			l0.1,181.9H344l-0.1-181.9c0-23.7-10.6-34.2-35.4-34.2H87.9V341.5h221.8c23.6,0,34-10.6,34.1-34.2L344,120L344,120z"/>
		<path class="st2" d="M344,840l-0.1-181.9c0-23.7-10.6-34.2-35.4-34.2H87.9"/>
		<polyline class="st3" points="320.3,840 320.3,647.5 87.9,647.5 		"/>
		<path class="st2" d="M872.1,623.9H650.6c-22.3,0-34.1,10.6-34.1,34.2l0.1,181.9"/>
		<polyline class="st3" points="872.1,647.5 640,647.5 640,840 		"/>
		<path class="st2" d="M616.4,120.1v187.2c-0.1,23.7,11.8,34.2,35.4,34.2h220.2"/>
		<polyline class="st3" points="640,120 640,317.8 872.1,317.8 		"/>
		<path class="st2" d="M87.9,341.5h221.8c23.6,0,34-10.6,34.1-34.2L344,120"/>
		<polyline class="st3" points="87.9,317.8 320.3,317.8 320.3,120.1 		"/>
		<path class="st4" d="M773.3,431.9c-11,1.6-26.1,3.9-42.2,4.1c-12.9,0-25.8,0-38.8,0c-17-1.2-30.5-0.7-43.6-4.8
			c-2.5-0.7-8.6-4.3-8.6-8.7v-32.9c0-5.3,6.8-6.7,8.6-7.2c13.1-3.1,26.6-4.4,43.4-4.4h39.2c15.3,0,30.5,1.6,42,3.8
			c3.2,0.7,8.8,1.3,8.8,8.2v33.2C782.1,432.2,777.9,431.3,773.3,431.9L773.3,431.9z"/>
		<path class="st5" d="M695,427.8l-14.2,2.2c-5.6-15.7-5.1-29.6,0-46.3l14.2,2C691.4,402.4,691.1,410.4,695,427.8L695,427.8z"/>
		<path class="st5" d="M755.3,427l-8.8-3c2.2-11.8,2.2-23.3,0.2-34.5l8.6-3.1C757.7,399.6,757.4,413.5,755.3,427L755.3,427z"/>
		<line class="st6" x1="741.4" y1="430.4" x2="700.4" y2="430.3"/>
		<line class="st6" x1="741.4" y1="383.6" x2="700.4" y2="383.5"/>
		<path class="st7" d="M384.3,184.5c-1.6,11-3.9,26.1-4.1,42.2c0,12.9,0,25.8,0,38.8c1.2,17,0.7,30.5,4.8,43.6
			c0.7,2.5,4.3,8.6,8.7,8.6h32.9c5.3,0,6.7-6.8,7.2-8.6c3.1-13.1,4.4-26.6,4.4-43.4v-39.2c0-15.3-1.6-30.5-3.8-42
			c-0.7-3.2-1.3-8.8-8.2-8.8H393C383.9,175.7,384.9,180,384.3,184.5L384.3,184.5z"/>
		<path class="st5" d="M388.3,262.9l-2.2,14.2c15.7,5.6,29.6,5.1,46.3,0l-2-14.2C413.7,266.4,405.7,266.8,388.3,262.9L388.3,262.9z"
			/>
		<path class="st5" d="M389.2,202.5l3,8.8c11.8-2.2,23.3-2.2,34.5-0.2l3.1-8.6C416.6,200.1,402.7,200.5,389.2,202.5L389.2,202.5z"/>
		<line class="st6" x1="385.7" y1="216.4" x2="385.9" y2="257.4"/>
		<line class="st6" x1="432.5" y1="216.4" x2="432.7" y2="257.4"/>
		<path class="st8" d="M186.6,533.3c11-1.6,26.1-3.9,42.2-4.1c12.9,0,25.8,0,38.8,0c17,1.1,30.5,0.7,43.6,4.8
			c2.5,0.7,8.6,4.3,8.6,8.7v32.9c0,5.3-6.8,6.7-8.6,7.2c-13.1,3.1-26.6,4.4-43.4,4.4h-39.2c-15.3,0-30.5-1.6-42-3.8
			c-3.2-0.7-8.8-1.3-8.8-8.2V542C177.8,532.9,182.1,533.9,186.6,533.3L186.6,533.3z"/>
		<path class="st5" d="M265,537.4l14.2-2.2c5.6,15.7,5.1,29.6,0,46.3l-14.2-2C268.5,562.7,268.9,554.7,265,537.4L265,537.4z"/>
		<path class="st5" d="M204.6,538.2l8.8,3c-2.2,11.8-2.2,23.3-0.2,34.5l-8.6,3.1C202.2,565.6,202.6,551.7,204.6,538.2L204.6,538.2z"
			/>
		<line class="st9" x1="218.5" y1="534.7" x2="259.5" y2="534.9"/>
		<line class="st9" x1="218.5" y1="581.6" x2="259.5" y2="581.7"/>
		<path class="st10" d="M525.9,780.7c-1.6-11-3.9-26.1-4.1-42.2c0-12.9,0-25.8,0-38.8c1.1-17,0.7-30.5,4.8-43.6
			c0.7-2.5,4.3-8.6,8.7-8.6h32.9c5.3,0,6.7,6.8,7.2,8.6c3.1,13.1,4.4,26.6,4.4,43.4v39.2c0,15.3-1.6,30.5-3.8,42
			c-0.7,3.2-1.3,8.8-8.2,8.8h-33.2C525.6,789.5,526.6,785.2,525.9,780.7L525.9,780.7z"/>
		<path class="st5" d="M530,702.3l-2.2-14.2c15.7-5.6,29.6-5.1,46.3,0l-2,14.2C555.4,698.8,547.4,698.4,530,702.3L530,702.3z"/>
		<path class="st5" d="M530.9,762.7l3-8.8c11.8,2.2,23.3,2.2,34.5,0.2l3.1,8.6C558.3,765.1,544.3,764.7,530.9,762.7L530.9,762.7z"/>
		<line class="st6" x1="527.4" y1="748.8" x2="527.6" y2="707.8"/>
		<line class="st6" x1="574.2" y1="748.8" x2="574.4" y2="707.8"/>
		<polygon class="st11" points="551.7,187.9 544.3,220.4 559.2,220.4 551.7,187.9 		"/>
		<line class="st12" x1="551.9" y1="644.1" x2="551.9" y2="222.6"/>
		<polygon class="st11" points="782.8,558.8 750.3,551.4 750.3,566.2 782.8,558.8 		"/>
		<line class="st12" x1="326.6" y1="559" x2="748.1" y2="559"/>
		<polygon class="st11" points="410,779 417.4,746.4 402.6,746.4 410,779 		"/>
		<line class="st12" x1="409.8" y1="322.8" x2="409.8" y2="744.3"/>
		<polygon class="st11" points="178.4,407.1 211,414.5 211,399.7 178.4,407.1 		"/>
		<line class="st12" x1="634.7" y1="406.9" x2="213.2" y2="406.9"/>
		<polygon class="st13" points="457.5,265.8 457.5,215.7 467.4,215.7 487.9,249.2 487.9,215.7 497.3,215.7 497.3,265.8 487.1,265.8 
			466.9,233.1 466.9,265.8 457.5,265.8 		"/>
		<path class="st13" d="M699.6,455h20c4,0,6.9,0.2,8.9,0.5c1.9,0.3,3.7,1,5.2,2.1c1.5,1,2.8,2.4,3.8,4.2c1,1.7,1.5,3.7,1.5,5.9
			c0,2.3-0.6,4.5-1.9,6.5c-1.3,2-3,3.4-5.1,4.4c3,0.9,5.4,2.4,7,4.5c1.6,2.1,2.5,4.7,2.5,7.6c0,2.3-0.5,4.5-1.6,6.6
			c-1.1,2.1-2.5,3.9-4.3,5.2c-1.8,1.3-4.1,2.1-6.8,2.4c-1.7,0.2-5.8,0.3-12.2,0.3h-17.1V455L699.6,455z M709.7,463.3v11.6h6.6
			c3.9,0,6.4-0.1,7.3-0.2c1.7-0.2,3.1-0.8,4.1-1.8c1-1,1.5-2.3,1.5-3.9c0-1.6-0.4-2.8-1.3-3.8c-0.9-1-2.1-1.6-3.8-1.7
			c-1-0.1-3.9-0.2-8.6-0.2H709.7L709.7,463.3z M709.7,483.2v13.4h9.4c3.7,0,6-0.1,6.9-0.3c1.5-0.3,2.7-0.9,3.7-2
			c0.9-1.1,1.4-2.5,1.4-4.3c0-1.5-0.4-2.8-1.1-3.8c-0.7-1.1-1.8-1.8-3.2-2.3c-1.4-0.5-4.4-0.7-9-0.7H709.7L709.7,483.2z"/>
		<path class="st13" d="M464.1,700.7h18.5c4.2,0,7.3,0.3,9.5,1c2.9,0.9,5.5,2.4,7.5,4.6c2.1,2.2,3.7,4.9,4.8,8.1
			c1.1,3.2,1.6,7.2,1.6,11.9c0,4.1-0.5,7.7-1.5,10.7c-1.2,3.6-3,6.6-5.4,8.8c-1.7,1.7-4.1,3-7.1,4c-2.2,0.7-5.2,1.1-9,1.1h-19V700.7
			L464.1,700.7z M474.2,709.1v33.2h7.5c2.8,0,4.9-0.1,6.1-0.5c1.6-0.4,3-1.1,4.1-2.1c1.1-1,2-2.6,2.7-4.8c0.7-2.2,1-5.3,1-9.2
			c0-3.9-0.3-6.8-1-8.9c-0.7-2.1-1.6-3.7-2.9-4.9c-1.2-1.2-2.8-1.9-4.7-2.4c-1.4-0.3-4.2-0.5-8.3-0.5H474.2L474.2,709.1z"/>
		<path class="st13" d="M220.7,510.3v-50.1H242c5.4,0,9.2,0.5,11.7,1.4c2.4,0.9,4.4,2.5,5.8,4.8c1.5,2.3,2.2,4.9,2.2,7.9
			c0,3.8-1.1,6.9-3.3,9.3c-2.2,2.4-5.5,4-9.9,4.6c2.2,1.3,4,2.7,5.4,4.2c1.4,1.5,3.3,4.2,5.7,8.1l6.1,9.8h-12.1l-7.3-10.9
			c-2.6-3.9-4.4-6.3-5.3-7.4c-1-1-2-1.7-3-2.1c-1.1-0.4-2.8-0.6-5.1-0.6h-2v20.9H220.7L220.7,510.3z M230.8,481.4h7.5
			c4.9,0,7.9-0.2,9.1-0.6c1.2-0.4,2.1-1.1,2.8-2.1c0.7-1,1-2.3,1-3.8c0-1.7-0.5-3-1.4-4.1c-0.9-1-2.2-1.7-3.8-2
			c-0.8-0.1-3.3-0.2-7.4-0.2h-7.9V481.4L230.8,481.4z"/>
	</g>
</g>
</svg>
