<?xml version="1.0" encoding="utf-8"?>
<!-- Generator: Adobe Illustrator 19.2.0, SVG Export Plug-In . SVG Version: 6.00 Build 0)  -->
<svg version="1.1" id="Livello_1" xmlns="http://www.w3.org/2000/svg" xmlns:xlink="http://www.w3.org/1999/xlink" x="0px" y="0px"
	 viewBox="0 0 875 900" style="enable-background:new 0 0 875 900;" xml:space="preserve">
<style type="text/css">
	.st0{fill:#FFFFFF;}
	.st1{fill:#B9B9B9;}
	.st2{fill:#FFEC00;stroke:#1A171B;stroke-width:1.4492;stroke-miterlimit:2.6131;}
	.st3{fill:#FFFFFF;stroke:#1A171B;stroke-width:1.4492;stroke-miterlimit:2.6131;}
	.st4{fill:none;stroke:#1A171B;stroke-width:1.9322;stroke-miterlimit:2.6131;}
	.st5{fill:#3D3D3F;stroke:#1A171B;stroke-width:1.4492;stroke-miterlimit:2.6131;}
	.st6{fill:none;stroke:#FFFFFF;stroke-width:1.9322;stroke-miterlimit:2.6131;}
	.st7{fill:none;stroke:#1A171B;stroke-width:4.8306;stroke-miterlimit:2.6131;}
	.st8{fill:#049853;stroke:#1A171B;stroke-width:1.4492;stroke-miterlimit:2.6131;}
	.st9{fill:none;stroke:#1A171B;stroke-width:1.4492;stroke-miterlimit:2.6131;}
	.st10{fill:#1A171B;}
	.st11{fill:none;stroke:#1A171B;stroke-width:4.8306;stroke-linecap:square;stroke-miterlimit:2.6131;}
	.st12{fill:none;stroke:#1A171B;stroke-width:1.4492;stroke-linecap:square;stroke-miterlimit:2.6131;}
	
		.st13{fill:none;stroke:#1A171B;stroke-width:4.8306;stroke-linecap:square;stroke-miterlimit:2.6131;stroke-dasharray:24.1531,24.1531;}
	.st14{fill:#FFFFFF;stroke:#1A171B;stroke-width:4.8306;stroke-linecap:square;stroke-miterlimit:2.6131;}
	.st15{fill:#E43417;stroke:#1A171B;stroke-width:1.4492;stroke-miterlimit:2.6131;}
	.st16{fill:#E1001A;stroke:#1A171B;stroke-width:1.4492;stroke-miterlimit:2.6131;}
	.st17{fill:#A4027D;stroke:#1A171B;stroke-width:1.4492;stroke-miterlimit:2.6131;}
	.st18{fill:none;stroke:#1A171B;stroke-width:2.4153;stroke-linecap:square;stroke-miterlimit:2.6131;}
</style>
<g>
	<g>
		<polygon class="st0" points="189.5,267.5 2.3,267.5 2.3,726.8 189.5,726.8 189.5,786.9 469.3,786.9 469.3,726.8 871.9,726.8 
			871.9,267.5 871.7,267.5 871.7,254.7 469.3,254.7 469.3,113.1 189.5,113.1 		"/>
		<path class="st1" d="M213,254.8c0,23.6-11.9,36.7-35.2,36.5L2.3,291.1v412l175.5,0.2c23.5,0,35.2,11.5,35.2,35v48.6h232.8v-48.6
			c0-23.5,11.8-34.8,35.2-35l390.9-0.2v-412h-0.2v-12.7H481c-23.5,0-35.2-12.9-35.2-35.6V113.1H213V254.8L213,254.8z"/>
		<path class="st2" d="M39.8,574c11.8-1.7,27.9-4.2,45.1-4.4c13.8,0,27.5,0,41.5,0c18.1,1.2,32.6,0.7,46.5,5.1
			c2.7,0.7,9.2,4.6,9.2,9.3v35.1c0,5.6-7.2,7.2-9.2,7.7c-13.9,3.3-28.4,4.7-46.4,4.7H84.7c-16.3,0-32.6-1.8-44.9-4
			c-3.4-0.7-9.4-1.4-9.4-8.8v-35.4C30.4,573.7,34.9,574.7,39.8,574L39.8,574z"/>
		<path class="st3" d="M123.4,578.4l15.2-2.4c6,16.7,5.4,31.7,0,49.5l-15.2-2.2C127.2,605.5,127.6,597,123.4,578.4L123.4,578.4z"/>
		<path class="st3" d="M59,579.3l9.4,3.2c-2.4,12.6-2.4,24.9-0.2,36.8l-9.2,3.3C56.4,608.6,56.8,593.7,59,579.3L59,579.3z"/>
		<line class="st4" x1="73.8" y1="575.6" x2="117.6" y2="575.8"/>
		<line class="st4" x1="73.8" y1="625.6" x2="117.6" y2="625.8"/>
		<path class="st5" d="M291.5,150.7c1.8,11.8,4.2,27.9,4.4,45.1c0,13.8,0,27.5,0,41.5c-1.2,18.1-0.7,32.6-5.1,46.5
			c-0.7,2.7-4.6,9.2-9.3,9.2h-35.1c-5.6,0-7.2-7.2-7.7-9.2c-3.3-13.9-4.7-28.4-4.7-46.4v-41.8c0-16.3,1.8-32.6,4-44.9
			c0.7-3.4,1.4-9.4,8.8-9.4h35.4C291.8,141.3,290.8,145.9,291.5,150.7L291.5,150.7z"/>
		<path class="st3" d="M287.1,234.4l2.4,15.2c-16.7,6-31.7,5.4-49.5,0l2.2-15.2C260,238.2,268.5,238.6,287.1,234.4L287.1,234.4z"/>
		<path class="st3" d="M286.2,169.9l-3.2,9.4c-12.6-2.4-24.9-2.4-36.9-0.2l-3.3-9.2C256.9,167.4,271.8,167.8,286.2,169.9
			L286.2,169.9z"/>
		<line class="st6" x1="289.9" y1="184.8" x2="289.7" y2="228.6"/>
		<line class="st6" x1="239.9" y1="184.8" x2="239.7" y2="228.6"/>
		<polygon class="st5" points="96.7,343.2 131.3,351 131.3,335.3 		"/>
		<polygon class="st5" points="96.5,467.6 131.1,475.5 131.1,459.7 		"/>
		<polygon class="st5" points="399.4,190.4 391.5,225 407.3,225 		"/>
		<polygon class="st5" points="264.7,768.6 272.6,733.9 256.8,733.9 		"/>
		<line class="st7" x1="2.8" y1="450.3" x2="871.8" y2="450.3"/>
		<line class="st7" x1="2.8" y1="517.6" x2="871.8" y2="517.6"/>
		<line class="st7" x1="871.8" y1="485.7" x2="3.5" y2="485.7"/>
		<line class="st7" x1="871.8" y1="553" x2="3.5" y2="553"/>
		<polygon class="st8" points="441.9,450.1 492.4,432.5 751.9,432.5 802.6,450.1 802.6,485.2 751.1,502.9 492.3,502.9 441.9,485.2 
					"/>
		<polygon class="st8" points="492.9,485.3 751.5,485.3 751.5,503 492.9,503 		"/>
		<polygon class="st8" points="492.9,432.6 751.5,432.6 751.5,450.2 492.9,450.2 		"/>
		<line class="st9" x1="449.9" y1="450.1" x2="794.5" y2="450.1"/>
		<line class="st9" x1="449.9" y1="467.7" x2="794.5" y2="467.7"/>
		<line class="st9" x1="449.9" y1="485.2" x2="794.5" y2="485.2"/>
		<polygon class="st0" points="561.2,486.7 553.4,486.7 560,455.3 549,455.3 550.3,449 579.9,449 578.6,455.3 567.7,455.3 		"/>
		<path class="st0" d="M584.8,486.7h-7.7l7.9-37.6h16.7c2.9,0,5.1,0.3,6.7,0.9c1.6,0.6,2.9,1.7,3.9,3.2c1,1.6,1.5,3.5,1.5,5.7
			c0,3.2-1,5.8-2.9,7.9s-4.8,3.4-8.7,3.9c1,0.9,1.9,2.1,2.8,3.5c1.7,2.9,3.7,7.1,5.8,12.5h-8.3c-0.7-2.1-2-5.4-3.9-9.9
			c-1.1-2.4-2.2-4.1-3.4-4.9c-0.7-0.5-2-0.7-3.8-0.7h-3.2L584.8,486.7L584.8,486.7z M589.3,465.4h4.1c4.2,0,6.9-0.2,8.3-0.7
			c1.4-0.5,2.4-1.3,3.2-2.3c0.8-1.1,1.1-2.2,1.1-3.3c0-1.4-0.6-2.4-1.7-3.1c-0.7-0.4-2.2-0.6-4.4-0.6h-8.5L589.3,465.4L589.3,465.4z
			"/>
		<path class="st0" d="M639.5,478.3h-14.9l-4.5,8.3h-8l21.3-37.6h8.6l6.1,37.6h-7.3L639.5,478.3L639.5,478.3z M638.6,472.1
			l-2.2-15.2l-9.1,15.2H638.6L638.6,472.1z"/>
		<polygon class="st0" points="674.5,486.7 667.1,486.7 665.8,455.2 659.8,486.7 652.8,486.7 660.7,449 671.7,449 672.9,475.4 
			685.7,449 696.9,449 689,486.7 681.9,486.7 689.3,455.4 		"/>
		<path class="st10" d="M313.9,209.6c0-5.2,0.8-9.6,2.3-13.2c1.2-2.6,2.8-5,4.8-7.1s4.2-3.6,6.6-4.6c3.2-1.4,6.9-2,11.1-2
			c7.6,0,13.6,2.3,18.2,7.1c4.6,4.7,6.8,11.2,6.8,19.6c0,8.3-2.3,14.8-6.8,19.5s-10.5,7-18.1,7c-7.7,0-13.7-2.3-18.3-7
			C316.2,224.2,313.9,217.8,313.9,209.6L313.9,209.6z M324.6,209.3c0,5.8,1.4,10.2,4,13.2c2.7,3,6.1,4.5,10.3,4.5
			c4.1,0,7.5-1.5,10.2-4.5c2.6-3,4-7.4,4-13.4c0-5.9-1.3-10.3-3.9-13.2s-6-4.4-10.3-4.4s-7.7,1.5-10.4,4.4
			C326,198.9,324.6,203.3,324.6,209.3L324.6,209.3z"/>
		<polygon class="st10" points="611.7,582.2 611.7,539.5 596.4,539.5 596.4,530.8 637.3,530.8 637.3,539.5 622.1,539.5 622.1,582.2 
					"/>
		<path class="st10" d="M126.7,693.9h-11.3l-4.5-11.7H90.3l-4.2,11.7h-11l20-51.4h11L126.7,693.9L126.7,693.9z M107.6,673.5
			l-7.1-19.1l-6.9,19.1H107.6L107.6,673.5z"/>
		<polygon class="st10" points="663,365.3 663,313.9 678.5,313.9 687.8,349 697.1,313.9 712.6,313.9 712.6,365.3 703,365.3 
			703,324.9 692.8,365.3 682.8,365.3 672.6,324.9 672.6,365.3 		"/>
		<path class="st11" d="M189.5,113.1v154.5H2.7 M2.7,726.8h186.7v60.1 M469.7,786.9v-60.1h402.6 M872.1,254.7H469.7V113.1"/>
		<path class="st12" d="M213.4,113.1v141.6c0,23.6-11.9,36.7-35.2,36.5L2.7,291 M2.7,703.1l175.5,0.2c23.5,0,35.2,11.5,35.2,35v48.6
			 M446.2,786.9v-48.6c0-23.5,11.8-34.8,35.2-35l390.9-0.2 M872.1,278.4H481.4c-23.5,0-35.2-12.9-35.2-35.6V113.1"/>
		<line class="st13" x1="433" y1="467.2" x2="134.3" y2="467.2"/>
		<line class="st13" x1="552.4" y1="343.4" x2="135.5" y2="343.4"/>
		<line class="st13" x1="264.3" y1="297.7" x2="264.3" y2="730.5"/>
		<path class="st13" d="M184.6,601.4c152.9-71.3,212.3-210.8,212.9-372.1"/>
		<polygon class="st14" points="533,124 661.2,124 661.2,221.6 533,221.6 		"/>
		<path class="st10" d="M562.3,176c10.4,0,18.9,8.5,18.9,18.9s-8.5,18.9-18.9,18.9s-18.9-8.5-18.9-18.9S551.9,176,562.3,176
			L562.3,176z"/>
		<path class="st10" d="M630.9,176c10.4,0,18.9,8.5,18.9,18.9s-8.5,18.9-18.9,18.9s-18.9-8.5-18.9-18.9
			C612,184.5,620.5,176,630.9,176L630.9,176z"/>
		<path class="st0" d="M562.3,182.1c7,0,12.7,5.7,12.7,12.7s-5.7,12.8-12.7,12.8s-12.7-5.7-12.7-12.8
			C549.6,187.9,555.3,182.1,562.3,182.1L562.3,182.1z"/>
		<path class="st0" d="M630.9,182.1c7,0,12.7,5.7,12.7,12.7s-5.7,12.8-12.7,12.8s-12.8-5.7-12.8-12.8
			C618.1,187.9,623.8,182.1,630.9,182.1L630.9,182.1z"/>
		<path class="st10" d="M598.4,206.4l-11.2-21.1c-1.5-2.8-1.5-5,1.7-7.1l13.7-6.2l-11-8.3l-6,4.7c-0.6,0.7-2.2,1.3-4,1.4l-15.8,0.1
			c-4.8,0.1-4.6-7.3,0-7.4l14-0.1l17.8-14.2c1.5,0,3.5,0.4,4.4,1.4l12.8,19.6c2,2.3,2.1,5.8-0.6,7l-18.3,7.7l9.8,18.4
			C608,207.3,600.9,211.2,598.4,206.4L598.4,206.4z"/>
		<path class="st10" d="M582.3,156.7l-0.6-3.9l7.7-6.4l-1.1-5.9l-6.8,1.2c-1.9,0.7-1.6-0.9-1.5-2.3c0.5-5.7,5.9-9.3,10.7-8.4
			c4.8,0.9,6.9,5.4,7.4,7.9c0.4,2.4,0.6,5-1,5.8L582.3,156.7L582.3,156.7z"/>
		<path class="st15" d="M615,337.8h22.4c2.6,0,4.7,2.1,4.7,4.7s-2.1,4.7-4.7,4.7H615c-2.6,0-4.7-2.1-4.7-4.7S612.4,337.8,615,337.8
			L615,337.8z"/>
		<path class="st15" d="M562.4,337.8h22.4c2.6,0,4.7,2.1,4.7,4.7s-2.1,4.7-4.7,4.7h-22.4c-2.6,0-4.7-2.1-4.7-4.7
			C557.7,339.9,559.8,337.8,562.4,337.8L562.4,337.8z"/>
		<path class="st15" d="M585.5,335.2h22.8c3.5,0,6.3,2.4,6.3,5.4v3.6c0,3-2.8,5.4-6.3,5.4h-22.8c-3.5,0-6.3-2.4-6.3-5.4v-3.6
			C579.3,337.7,582.1,335.2,585.5,335.2L585.5,335.2z"/>
		<path class="st16" d="M603.1,336.8h18c2.7,0,5,1.9,5,4.3v2.9c0,2.3-2.2,4.3-5,4.3h-18c-2.7,0-5-1.9-5-4.3v-3
			C598.2,338.7,600.4,336.8,603.1,336.8L603.1,336.8z"/>
		<path class="st17" d="M578.7,336.9h9c1,0,1.9,2.5,1.9,5.6s-0.8,5.6-1.9,5.6h-9c-1,0-1.9-2.5-1.9-5.6S577.7,336.9,578.7,336.9
			L578.7,336.9z"/>
		<path class="st16" d="M591.8,319.4l0.3,0.1c0.6,0.2,1,0.9,0.8,1.5l-7.3,21.9c-0.2,0.6-0.9,1-1.6,0.8l-0.3-0.1
			c-0.6-0.2-1-0.9-0.8-1.5l7.3-21.9C590.4,319.5,591.1,319.2,591.8,319.4L591.8,319.4z"/>
		<path class="st16" d="M591.8,365.1l0.3-0.1c0.6-0.2,1-0.9,0.8-1.5l-7.3-21.9c-0.2-0.6-0.9-1-1.6-0.8l-0.3,0.1
			c-0.6,0.2-1,0.9-0.8,1.5l7.3,21.9C590.4,365,591.1,365.3,591.8,365.1L591.8,365.1z"/>
		<path class="st15" d="M579.7,338.2h7c0.8,0,1.5,2,1.5,4.4s-0.7,4.4-1.5,4.4h-7c-0.8,0-1.5-2-1.5-4.4S578.9,338.2,579.7,338.2
			L579.7,338.2z"/>
		<path class="st3" d="M615.7,333c1.2,2.5,1.8,5.6,1.8,9l0,0c0,0.1,0.1,0.1,0.1,0.1c0,13.2-10.9,24.1-24.1,24.1
			c-1.4,0-2.8,0-4.1-0.1v-6.7c5.1,0,9.7-2.3,12.9-6c-2-2.8-3.4-6.8-3.4-11.3s1.3-8.5,3.3-11.2c-3.1-3.7-7.7-5.9-12.8-6v-6.4
			c1.3-0.2,2.7-0.3,4.1-0.3C603.5,318,612.1,324.3,615.7,333L615.7,333z"/>
		<path class="st3" d="M606.2,333.1c5.6,0,10.1,4.2,10.1,9.3c0,5.1-4.5,9.3-10.1,9.3s-10.1-4.2-10.1-9.3
			C596.1,337.3,600.7,333.1,606.2,333.1L606.2,333.1z"/>
		<line class="st18" x1="596.6" y1="227.7" x2="596.6" y2="306.2"/>
	</g>
</g>
</svg>
