<?xml version="1.0" encoding="utf-8"?>
<!-- Generator: Adobe Illustrator 19.2.0, SVG Export Plug-In . SVG Version: 6.00 Build 0)  -->
<svg version="1.1" id="Livello_1" xmlns="http://www.w3.org/2000/svg" xmlns:xlink="http://www.w3.org/1999/xlink" x="0px" y="0px"
	 viewBox="0 0 875 900" style="enable-background:new 0 0 875 900;" xml:space="preserve">
<style type="text/css">
	.st0{fill:#FFFFFF;}
	.st1{fill:#B9B9B9;}
	.st2{fill:#00A6E2;stroke:#1A171B;stroke-width:1.2572;stroke-miterlimit:2.6131;}
	.st3{fill:#FFFFFF;stroke:#1A171B;stroke-width:1.2572;stroke-miterlimit:2.6131;}
	.st4{fill:none;stroke:#1A171B;stroke-width:1.6763;stroke-miterlimit:2.6131;}
	.st5{fill:#049853;stroke:#1A171B;stroke-width:1.2572;stroke-miterlimit:2.6131;}
	.st6{fill:#3D3D3F;stroke:#1A171B;stroke-width:1.2572;stroke-miterlimit:2.6131;}
	.st7{fill:#FFEC00;stroke:#1A171B;stroke-width:1.2572;stroke-miterlimit:2.6131;}
	.st8{fill:#E43417;stroke:#1A171B;stroke-width:1.2572;stroke-miterlimit:2.6131;}
	.st9{fill:none;stroke:#1A171B;stroke-width:4.1907;stroke-linecap:square;stroke-miterlimit:2.6131;}
	.st10{fill:none;stroke:#1A171B;stroke-width:1.2572;stroke-linecap:square;stroke-miterlimit:2.6131;}
	
		.st11{fill:none;stroke:#1A171B;stroke-width:4.1907;stroke-linecap:square;stroke-miterlimit:2.6131;stroke-dasharray:20.9536,20.9536;}
	.st12{fill:#1A171B;}
</style>
<g>
	<g>
		<polygon class="st0" points="582.4,810 274.5,810 274.5,619.8 73.1,619.8 73.1,280.3 274.5,280.3 274.5,90.1 582.4,90.1 
			582.4,280.3 801.9,280.3 801.9,619.8 582.4,619.8 		"/>
		<path class="st1" d="M557.3,810H298.9V629.4c0-24.7-9.6-35-33.9-35H73.1V305.1h191.8c24.3,0,33.9-9.5,33.9-34.4V90.1h258.4
			l0.1,180.5c0,24.7,9.4,34.4,34.4,34.4h210.1v289.3h-210c-25.1,0-34.3,8.1-34.4,35L557.3,810L557.3,810z"/>
		<path class="st2" d="M716.3,383.5c-10.6,1.6-25.1,3.8-40.6,4c-12.4,0-24.8,0-37.4,0c-16.3-1.1-29.4-0.6-41.9-4.6
			c-2.4-0.6-8.3-4.1-8.3-8.4v-31.6c0-5.1,6.5-6.5,8.3-7c12.6-3,25.6-4.3,41.8-4.3h37.7c14.7,0,29.4,1.6,40.5,3.6
			c3.1,0.6,8.5,1.3,8.5,7.9V375C724.7,383.8,720.7,382.9,716.3,383.5L716.3,383.5z"/>
		<path class="st3" d="M640.8,379.6l-13.7,2.1c-5.4-15.1-4.9-28.5,0-44.6l13.7,2C637.4,355.1,637.1,362.8,640.8,379.6L640.8,379.6z"
			/>
		<path class="st3" d="M699,378.8l-8.5-2.8c2.1-11.4,2.1-22.5,0.2-33.2l8.3-3C701.2,352.4,700.9,365.8,699,378.8L699,378.8z"/>
		<line class="st4" x1="685.6" y1="382.1" x2="646.1" y2="381.9"/>
		<line class="st4" x1="685.6" y1="337" x2="646.1" y2="336.9"/>
		<path class="st5" d="M422.9,131c1.6,10.6,3.8,25.1,4,40.6c0,12.4,0,24.8,0,37.4c-1.1,16.3-0.6,29.4-4.6,41.9
			c-0.6,2.4-4.1,8.3-8.4,8.3h-31.6c-5.1,0-6.5-6.5-7-8.3c-3-12.6-4.3-25.6-4.3-41.8v-37.7c0-14.7,1.6-29.4,3.6-40.5
			c0.6-3.1,1.3-8.5,7.9-8.5h32C423.2,122.5,422.2,126.6,422.9,131L422.9,131z"/>
		<path class="st3" d="M418.9,206.4l2.1,13.7c-15.1,5.4-28.5,4.9-44.6,0l2-13.7C394.5,209.9,402.2,210.2,418.9,206.4L418.9,206.4z"
			/>
		<path class="st3" d="M418.1,148.3l-2.8,8.5c-11.4-2.1-22.5-2.1-33.2-0.2l-3-8.3C391.7,146.1,405.2,146.4,418.1,148.3L418.1,148.3z
			"/>
		<line class="st4" x1="421.5" y1="161.7" x2="421.3" y2="201.2"/>
		<line class="st4" x1="376.4" y1="161.7" x2="376.2" y2="201.2"/>
		<polygon class="st6" points="476.3,540.3 441.4,532.4 441.4,548.3 		"/>
		<polygon class="st6" points="696.3,540.9 661.4,533 661.4,548.9 		"/>
		<polygon class="st6" points="257.7,359.7 292.7,367.6 292.7,351.8 		"/>
		<path class="st7" d="M143.4,564c10.6,1.6,25.1,3.8,40.6,4c12.4,0,24.8,0,37.4,0c16.3-1.1,29.4-0.6,41.9-4.6
			c2.4-0.6,8.3-4.1,8.3-8.4v-31.6c0-5.1-6.5-6.5-8.3-7c-12.6-3-25.6-4.3-41.8-4.3h-37.7c-14.7,0-29.4,1.6-40.5,3.6
			c-3.1,0.6-8.5,1.3-8.5,7.9v31.9C134.9,564.3,139,563.4,143.4,564L143.4,564z"/>
		<path class="st3" d="M218.8,560.1l13.7,2.1c5.4-15.1,4.9-28.5,0-44.6l-13.7,2C222.2,535.6,222.6,543.4,218.8,560.1L218.8,560.1z"
			/>
		<path class="st3" d="M160.7,559.3l8.5-2.8c-2.1-11.4-2.1-22.5-0.2-33.2l-8.3-3C158.4,532.9,158.7,546.3,160.7,559.3L160.7,559.3z"
			/>
		<line class="st4" x1="174.1" y1="562.6" x2="213.6" y2="562.4"/>
		<line class="st4" x1="174.1" y1="517.5" x2="213.6" y2="517.4"/>
		<path class="st8" d="M482.1,764.6c-1.6-10.6-3.8-25.1-4-40.6c0-12.4,0-24.8,0-37.4c1.1-16.3,0.6-29.4,4.6-41.9
			c0.6-2.4,4.1-8.3,8.4-8.3h31.6c5.1,0,6.5,6.5,7,8.3c3,12.6,4.3,25.6,4.3,41.8v37.7c0,14.7-1.6,29.4-3.6,40.5
			c-0.6,3.1-1.3,8.5-7.9,8.5h-32C481.8,773.1,482.7,769,482.1,764.6L482.1,764.6z"/>
		<path class="st3" d="M486,689.2l-2.1-13.7c15.1-5.4,28.5-4.9,44.6,0l-2,13.7C510.5,685.8,502.7,685.5,486,689.2L486,689.2z"/>
		<path class="st3" d="M486.8,747.3l2.8-8.5c11.4,2.1,22.5,2.1,33.2,0.2l3,8.3C513.2,749.6,499.8,749.3,486.8,747.3L486.8,747.3z"/>
		<line class="st4" x1="483.5" y1="733.9" x2="483.7" y2="694.4"/>
		<line class="st4" x1="528.6" y1="733.9" x2="528.7" y2="694.4"/>
		<path class="st9" d="M274.5,810V619.7l-201.4,0.1 M73.1,280.2h201.4V90 M582.4,90v190.2l219.4,0.1 M801.9,619.7H582.4V810"/>
		<path class="st10" d="M801.9,594.3H591.8c-25.1,0-34.3,8.1-34.4,35V810 M298.9,809.9V629.3c0-24.7-9.6-35-33.9-35H73.1 M73.1,305
			h191.8c24.3,0,33.9-9.5,33.9-34.4V90 M557.3,90l0.1,180.5c0,24.7,9.4,34.4,34.4,34.4h210.1"/>
		<path class="st11" d="M507.7,626.5c-0.5-75.1,49.4-87.2,149.6-85.5c-154.3-10.2-247-132-258.6-274.5"/>
		<line class="st11" x1="582.4" y1="359.7" x2="295.3" y2="360.3"/>
		<line class="st11" x1="276.3" y1="540" x2="443.9" y2="540.3"/>
		<path class="st12" d="M421,739.2v-46.4h19.7c5,0,8.6,0.4,10.8,1.3c2.2,0.8,4,2.3,5.4,4.5c1.3,2.1,2,4.6,2,7.3c0,3.5-1,6.4-3.1,8.6
			c-2,2.3-5.5,4.9-8.8,5.5s-5.2,0.6-9.5,0.8h-5.2h-1.9v18.5L421,739.2L421,739.2z M430.3,712.4h6.9c4.5,0,7.3-0.2,8.4-0.6
			c1.1-0.4,2-1,2.6-2c0.6-0.9,0.9-2.1,0.9-3.5c0-1.6-0.4-2.8-1.3-3.8c-0.8-1-2-1.6-3.5-1.8c-0.8-0.1-3-0.2-6.8-0.2h-7.3L430.3,712.4
			L430.3,712.4z"/>
		<polygon class="st12" points="650.2,456.2 650.2,409.8 659.6,409.8 659.6,448.3 683.1,448.3 683.1,456.2 		"/>
		<path class="st12" d="M316.7,158.2h18.6c3.7,0,6.4,0.2,8.2,0.5c1.8,0.3,3.4,0.9,4.8,1.9s2.6,2.3,3.6,3.9c1,1.6,1.4,3.4,1.4,5.4
			c0,2.2-0.6,4.2-1.8,6c-1.2,1.8-2.8,3.2-4.8,4.1c2.8,0.8,5,2.2,6.5,4.2s2.3,4.3,2.3,7c0,2.1-0.5,4.2-1.5,6.2s-2.3,3.6-4,4.8
			s-3.8,1.9-6.3,2.2c-1.6,0.2-5.3,0.3-11.3,0.3h-15.8L316.7,158.2L316.7,158.2z M326.1,166v10.7h6.1c3.7,0,5.9-0.1,6.8-0.2
			c1.6-0.2,2.9-0.7,3.8-1.7c0.9-0.9,1.4-2.1,1.4-3.6c0-1.4-0.4-2.6-1.2-3.5c-0.8-0.9-2-1.4-3.5-1.6c-0.9-0.1-3.6-0.2-8-0.2h-5.4V166
			z M326.1,184.4v12.4h8.7c3.4,0,5.5-0.1,6.4-0.3c1.4-0.2,2.5-0.9,3.4-1.8c0.9-1,1.3-2.3,1.3-3.9c0-1.4-0.3-2.6-1-3.5
			c-0.7-1-1.7-1.7-2.9-2.1c-1.3-0.4-4.1-0.7-8.3-0.7L326.1,184.4L326.1,184.4z"/>
		<path class="st12" d="M177.1,444.9h17.1c3.9,0,6.8,0.3,8.8,0.9c2.7,0.8,5.1,2.2,7,4.3c1.9,2,3.4,4.6,4.4,7.5c1,3,1.5,6.6,1.5,11
			c0,3.8-0.5,7.1-1.4,9.9c-1.2,3.4-2.8,6.1-5,8.2c-1.6,1.6-3.8,2.8-6.6,3.7c-2.1,0.7-4.8,1-8.3,1H177L177.1,444.9L177.1,444.9z
			 M186.5,452.8v30.7h7c2.6,0,4.5-0.1,5.7-0.4c1.5-0.4,2.8-1,3.8-1.9s1.8-2.4,2.5-4.5c0.6-2.1,0.9-4.9,0.9-8.5s-0.3-6.3-0.9-8.3
			c-0.6-1.9-1.5-3.4-2.7-4.5c-1.1-1.1-2.6-1.8-4.3-2.2c-1.3-0.3-3.9-0.4-7.7-0.4H186.5L186.5,452.8z"/>
	</g>
</g>
</svg>
