<?xml version="1.0" encoding="utf-8"?>
<!-- Generator: Adobe Illustrator 19.2.0, SVG Export Plug-In . SVG Version: 6.00 Build 0)  -->
<svg version="1.1" id="Livello_1" xmlns="http://www.w3.org/2000/svg" xmlns:xlink="http://www.w3.org/1999/xlink" x="0px" y="0px"
	 viewBox="0 0 875 900" style="enable-background:new 0 0 875 900;" xml:space="preserve">
<style type="text/css">
	.st0{fill:#FFFFFF;}
	.st1{fill:#B9B9B9;}
	.st2{fill:#FFEC00;stroke:#1A171B;stroke-width:1.2686;stroke-miterlimit:2.6131;}
	.st3{fill:#FFFFFF;stroke:#1A171B;stroke-width:1.2686;stroke-miterlimit:2.6131;}
	.st4{fill:none;stroke:#1A171B;stroke-width:1.6914;stroke-miterlimit:2.6131;}
	.st5{fill:#3D3D3F;stroke:#1A171B;stroke-width:1.2686;stroke-miterlimit:2.6131;}
	.st6{fill:#1A171B;}
	.st7{fill:#00A6E2;stroke:#1A171B;stroke-width:1.2686;stroke-miterlimit:2.6131;}
	.st8{fill:#E43417;stroke:#1A171B;stroke-width:1.2686;stroke-linecap:square;stroke-miterlimit:2.6131;}
	.st9{fill:#FFFFFF;stroke:#1A171B;stroke-width:1.2686;stroke-linecap:square;stroke-miterlimit:2.6131;}
	.st10{fill:none;stroke:#1A171B;stroke-width:4.2286;stroke-linecap:square;stroke-miterlimit:2.6131;}
	.st11{fill:none;stroke:#1A171B;stroke-width:1.2686;stroke-linecap:square;stroke-miterlimit:2.6131;}
	.st12{fill:#049853;}
	.st13{fill:none;stroke:#1A171B;stroke-width:2.1143;stroke-linecap:square;stroke-miterlimit:2.6131;}
	.st14{fill:none;stroke:#1A171B;stroke-width:1.2686;stroke-miterlimit:2.6131;}
	
		.st15{fill:none;stroke:#1A171B;stroke-width:4.2286;stroke-linecap:square;stroke-miterlimit:2.6131;stroke-dasharray:21.143,21.143;}
</style>
<g>
	<g>
		<polygon class="st0" points="231,325 57.4,325 57.4,575 231,575.1 231,810 644,810 644,575 817.6,575 817.6,325 644,325 644,90.1 
			231,90.1 		"/>
		<path class="st1" d="M251.7,90.1h369.8v227.7c0,20.7,7.4,28.1,30,28.1h166.2v208.3H651.5c-22.5,0-30,7-30,27.8v228H251.7V582
			c0-20.9-7.2-27.8-28-27.8H57.4V345.9h166.3c20.8,0,28-7.2,28-28.1V90.1L251.7,90.1z"/>
		<path class="st2" d="M771.5,371.7c-10.7-1.6-25.4-3.8-41.1-4c-12.5,0-25.1,0-37.8,0c-16.5,1.1-29.7,0.6-42.4,4.6
			c-2.5,0.6-8.4,4.2-8.4,8.5v32c0,5.1,6.6,6.6,8.4,7c12.7,3,25.9,4.3,42.3,4.3h38c14.9,0,29.7-1.6,41-3.7c3.1-0.6,8.6-1.3,8.6-8
			v-32.3C780.1,371.3,776,372.3,771.5,371.7L771.5,371.7z"/>
		<path class="st3" d="M695.2,375.6l-13.9-2.2c-5.4,15.3-5,28.9,0,45.1l13.9-2C691.7,400.4,691.4,392.6,695.2,375.6L695.2,375.6z"/>
		<path class="st3" d="M754,376.5l-8.6,2.9c2.1,11.5,2.1,22.7,0.2,33.6l8.4,3C756.3,403.2,756,389.6,754,376.5L754,376.5z"/>
		<line class="st4" x1="740.4" y1="373.1" x2="700.5" y2="373.3"/>
		<line class="st4" x1="740.4" y1="418.7" x2="700.5" y2="418.9"/>
		<path class="st3" d="M549.8,769.1c-1.6-10.7-3.8-25.4-4-41.1c0-12.5,0-25.1,0-37.8c1.1-16.5,0.6-29.7,4.6-42.4
			c0.6-2.5,4.2-8.4,8.5-8.4h32c5.1,0,6.6,6.6,7,8.4c3,12.7,4.3,25.9,4.3,42.3v38.1c0,14.9-1.6,29.7-3.7,41c-0.6,3.1-1.3,8.6-8,8.6
			h-32.3C549.5,777.7,550.5,773.6,549.8,769.1L549.8,769.1z"/>
		<path class="st3" d="M553.8,692.8l-2.2-13.9c15.3-5.4,28.9-4.9,45.1,0l-2,13.9C578.5,689.3,570.7,689,553.8,692.8L553.8,692.8z"/>
		<path class="st3" d="M554.6,751.6l2.9-8.6c11.5,2.1,22.7,2.1,33.6,0.2l3,8.4C581.4,753.9,567.8,753.6,554.6,751.6L554.6,751.6z"/>
		<line class="st4" x1="551.3" y1="738" x2="551.4" y2="698.1"/>
		<line class="st4" x1="596.9" y1="738" x2="597" y2="698.1"/>
		<polygon class="st5" points="511.7,395.1 542.3,402.1 542.3,388.2 		"/>
		<polygon class="st5" points="574.3,431.7 567.3,462.3 581.2,462.3 		"/>
		<polygon class="st5" points="302.6,466.1 309.6,435.5 295.6,435.5 		"/>
		<polygon class="st5" points="302.6,629.8 309.6,599.2 295.6,599.2 		"/>
		<path class="st6" d="M742.6,486.1h-10.3l-4.1-10.7h-18.7l-3.9,10.7h-10l18.3-46.9h10L742.6,486.1L742.6,486.1z M725.2,467.5
			l-6.5-17.4l-6.3,17.4H725.2L725.2,467.5z"/>
		<polygon class="st6" points="492.5,732.3 492.5,685.4 502,685.4 502,703.8 520.6,703.8 520.6,685.4 530,685.4 530,732.3 
			520.6,732.3 520.6,711.8 502,711.8 502,732.3 		"/>
		<path class="st6" d="M389.5,205.9l9.2,2.9c-1.4,5.1-3.7,8.9-7,11.4s-7.4,3.7-12.5,3.7c-6.2,0-11.3-2.1-15.4-6.4
			c-4-4.3-6-10.1-6-17.5c0-7.8,2-13.9,6.1-18.2c4-4.3,9.3-6.5,15.9-6.5c5.7,0,10.4,1.7,14,5.1c2.1,2,3.7,4.9,4.8,8.6l-9.4,2.2
			c-0.5-2.4-1.7-4.4-3.5-5.8c-1.8-1.4-3.9-2.1-6.4-2.1c-3.5,0-6.3,1.2-8.5,3.7s-3.2,6.5-3.2,12.1c0,5.9,1.1,10.2,3.2,12.7
			s4.9,3.8,8.3,3.8c2.5,0,4.7-0.8,6.5-2.4C387.4,211.9,388.7,209.4,389.5,205.9L389.5,205.9z"/>
		<path class="st6" d="M147.7,415.5H165c3.9,0,6.9,0.3,8.9,0.9c2.8,0.8,5.1,2.3,7.1,4.3c2,2.1,3.5,4.6,4.5,7.6s1.5,6.7,1.5,11.1
			c0,3.9-0.5,7.2-1.4,10c-1.2,3.4-2.8,6.2-5,8.3c-1.6,1.6-3.9,2.9-6.7,3.7c-2.1,0.7-4.9,1-8.4,1h-17.8L147.7,415.5L147.7,415.5z
			 M157.2,423.5v31.1h7.1c2.6,0,4.6-0.1,5.7-0.4c1.5-0.4,2.8-1,3.8-1.9s1.8-2.4,2.5-4.5c0.6-2.1,1-5,1-8.6s-0.3-6.4-1-8.3
			c-0.6-1.9-1.5-3.5-2.7-4.5c-1.2-1.1-2.6-1.8-4.4-2.2c-1.3-0.3-3.9-0.4-7.8-0.4h-4.2V423.5z"/>
		<path class="st7" d="M104.7,480.2c10.7-1.6,25.4-3.8,41.1-4c12.5,0,25.1,0,37.8,0c16.5,1.1,29.7,0.6,42.4,4.6
			c2.5,0.6,8.4,4.2,8.4,8.5v32c0,5.1-6.6,6.6-8.4,7c-12.7,3-25.9,4.3-42.3,4.3h-38.1c-14.9,0-29.7-1.6-41-3.7
			c-3.1-0.6-8.6-1.3-8.6-8v-32.3C96.1,479.9,100.2,480.9,104.7,480.2L104.7,480.2z"/>
		<path class="st3" d="M181,484.2l13.9-2.2c5.4,15.3,5,28.9,0,45.1l-13.9-2C184.4,509,184.8,501.2,181,484.2L181,484.2z"/>
		<path class="st3" d="M122.2,485l8.6,2.9c-2.1,11.5-2.1,22.7-0.2,33.6l-8.4,3C119.9,511.8,120.2,498.2,122.2,485L122.2,485z"/>
		<line class="st4" x1="135.7" y1="481.7" x2="175.7" y2="481.8"/>
		<line class="st4" x1="135.7" y1="527.3" x2="175.7" y2="527.5"/>
		<polygon class="st8" points="270.5,116.5 270.5,124.6 335.5,124.6 335.5,116.5 		"/>
		<path class="st8" d="M341.5,252.9v-26c0-1.1-1.1-1.9-2.4-1.9s-2.4,1.2-2.4,1.9v27.7C336.8,254.6,341.5,254.8,341.5,252.9
			L341.5,252.9z"/>
		<path class="st8" d="M264.8,252.9v-26c0-1.1,1.1-1.9,2.4-1.9s2.4,1.2,2.4,1.9v27.7C269.5,254.6,264.8,254.8,264.8,252.9
			L264.8,252.9z"/>
		<path class="st8" d="M267.1,275.7H339v2.4c0,3.9-3.2,7.1-7.1,7.1h-57.7c-3.9,0-7.1-3.2-7.1-7.1L267.1,275.7L267.1,275.7z"/>
		<path class="st8" d="M269.5,275.8v-41.6h67.2v41.6c0,3.2-2.6,6-6,6h-55.2C272.1,281.8,269.5,279.2,269.5,275.8L269.5,275.8z"/>
		<path class="st8" d="M273.9,263.1V242c0-1.6,1.9-2.9,4.5-2.9h49.5c2.5,0,4.6,1.3,4.6,2.9v21.1c0,1.6-2.1,2.7-4.6,2.9
			c-16.6,1.4-33,1.3-49.5,0C275.8,265.8,273.9,264.6,273.9,263.1L273.9,263.1z"/>
		<path class="st9" d="M272.3,274.9c0.8-0.9,3.5-5.6,4.3-5.5c16.4,2.3,36.8,2.4,53.7,0c0.3-0.1,2.8,4.8,3.6,5.5
			c0.9,0.9-1.6,2.9-3.2,3c-18.3,1.4-36.8,1.4-55,0C273.7,277.7,271.3,276,272.3,274.9L272.3,274.9z"/>
		<path class="st8" d="M341.5,156.6v-26c0-1.1-1.1-1.9-2.4-1.9s-2.4,1.9-2.4,1.9v27.7C336.8,158.3,341.5,158.5,341.5,156.6
			L341.5,156.6z"/>
		<path class="st8" d="M264.8,156.6v-26c0-1.1,1.1-1.9,2.4-1.9s2.4,1.9,2.4,1.9v27.7C269.5,158.3,264.8,158.5,264.8,156.6
			L264.8,156.6z"/>
		<polygon class="st8" points="267.1,234.3 267.1,118.9 339.1,118.9 339.1,234.3 		"/>
		<polygon class="st8" points="271.9,229 271.9,124.2 334.3,124.2 334.3,229 		"/>
		<polygon class="st8" points="284.2,229 284.2,124.2 322.1,124.2 322.1,229 		"/>
		<polygon class="st8" points="296.8,229 296.8,124.2 309.4,124.2 309.4,229 		"/>
		<path class="st10" d="M57.4,575l173.6,0.1V810 M644,810V575h173.6 M817.6,325H644V90.1 M231,90.1V325H57.4"/>
		<path class="st11" d="M621.5,90.1v227.7c0,20.7,7.4,28.1,30,28.1h166.2 M817.6,554.2H651.5c-22.5,0-30,7-30,27.8v228 M251.7,810
			V582c0-20.9-7.2-27.8-28-27.8H57.4 M57.4,345.9h166.3c20.8,0,28-7.2,28-28.1V90.1"/>
		<path class="st12" d="M421.5,90h30.2v219.9c0,8.3-6.8,15.1-15.1,15.1c-8.3,0-15.1-6.8-15.1-15.1V90L421.5,90z"/>
		<path class="st13" d="M451.7,90.1v219.8c0,8.3-6.8,15.1-15.1,15.1c-8.3,0-15.1-6.8-15.1-15.1V90"/>
		<path class="st14" d="M446.8,90v214.9c-0.4,9-4.6,14.1-10.2,14.1s-10.2-5.1-10.2-14.1V90"/>
		<path class="st12" d="M421.5,810h30.2V590.1c0-8.3-6.8-15.1-15.1-15.1c-8.3,0-15.1,6.8-15.1,15.1V810L421.5,810z"/>
		<path class="st13" d="M451.7,809.9V590.1c0-8.3-6.8-15.1-15.1-15.1c-8.3,0-15.1,6.8-15.1,15.1V810"/>
		<path class="st14" d="M446.8,810V595.1c-0.4-9-4.6-14.1-10.2-14.1s-10.2,5.1-10.2,14.1V810"/>
		<line class="st15" x1="302.6" y1="292.7" x2="302.6" y2="430.4"/>
		<path class="st15" d="M238.5,505c37.7,0.1,64,23,64.1,89.6"/>
		<line class="st15" x1="637.8" y1="395.1" x2="544.8" y2="395.1"/>
		<line class="st15" x1="574.3" y1="636.3" x2="574.9" y2="465.9"/>
	</g>
</g>
</svg>
