<?xml version="1.0" encoding="utf-8"?>
<!-- Generator: Adobe Illustrator 19.2.0, SVG Export Plug-In . SVG Version: 6.00 Build 0)  -->
<svg version="1.1" id="Livello_1" xmlns="http://www.w3.org/2000/svg" xmlns:xlink="http://www.w3.org/1999/xlink" x="0px" y="0px"
	 viewBox="0 0 875 900" style="enable-background:new 0 0 875 900;" xml:space="preserve">
<style type="text/css">
	.st0{fill:#FFFFFF;}
	.st1{fill:#B9B9B9;}
	.st2{fill:#FFEC00;stroke:#1A171B;stroke-width:1.2988;stroke-miterlimit:2.6131;}
	.st3{fill:#FFFFFF;stroke:#1A171B;stroke-width:1.2988;stroke-miterlimit:2.6131;}
	.st4{fill:none;stroke:#1A171B;stroke-width:1.7317;stroke-miterlimit:2.6131;}
	.st5{fill:#049853;stroke:#1A171B;stroke-width:1.2988;stroke-miterlimit:2.6131;}
	.st6{fill:#3D3D3F;stroke:#1A171B;stroke-width:1.2988;stroke-miterlimit:2.6131;}
	.st7{fill:#1A171B;}
	.st8{fill:#00A6E2;stroke:#1A171B;stroke-width:1.2988;stroke-miterlimit:2.6131;}
	.st9{fill:#E43417;stroke:#1A171B;stroke-width:1.2988;stroke-miterlimit:2.6131;}
	.st10{fill:#E1001A;}
	.st11{fill:#FFFFFF;stroke:#E1001A;stroke-width:4.3292;stroke-miterlimit:2.6131;}
	.st12{fill:none;stroke:#1A171B;stroke-width:1.2988;stroke-linecap:square;stroke-miterlimit:2.6131;}
	.st13{fill:none;stroke:#1A171B;stroke-width:4.3292;stroke-linecap:square;stroke-miterlimit:2.6131;}
	
		.st14{fill:none;stroke:#1A171B;stroke-width:4.3292;stroke-linecap:square;stroke-miterlimit:2.6131;stroke-dasharray:21.6459,21.6459;}
</style>
<g>
	<g>
		<polygon class="st0" points="720.2,809.9 398.2,809.9 337,583.4 48.4,583.5 48.4,283.5 245.5,283.5 245.5,90.4 556.4,90.4 
			556.3,283.5 826.4,283.5 826.6,583.4 659.1,583.4 		"/>
		<path class="st1" d="M692.8,809.9H425.6L366.3,590c-8.2-24.1-15.7-31.3-43.9-33l-274-0.1V310.1h188.5c26.4,0,35-8.7,35-35.2V90.4
			h258v184.5c0,26.6,7.6,35.2,34.1,35.2h262.5v246.8H657.6c-23,0.5-29.6,13.2-25.7,31L692.8,809.9L692.8,809.9z"/>
		<path class="st2" d="M162.5,478.9c11.9-1.8,28.2-4.3,45.7-4.4c13.9,0,27.9,0,42,0c18.3,1.2,33,0.7,47.1,5.1
			c2.8,0.7,9.4,4.6,9.4,9.4v35.5c0,5.7-7.3,7.3-9.4,7.8c-14.1,3.4-28.8,4.8-47,4.8h-42.4c-16.5,0-33-1.8-45.5-4.1
			c-3.5-0.7-9.5-1.4-9.5-8.9v-35.9C153,478.5,157.6,479.6,162.5,478.9L162.5,478.9z"/>
		<path class="st3" d="M247.3,483.3l15.4-2.4c6.1,17,5.5,32.1,0,50.1l-15.4-2.2C251.1,510.8,251.5,502.1,247.3,483.3L247.3,483.3z"
			/>
		<path class="st3" d="M182,484.2l9.5,3.2c-2.4,12.8-2.4,25.2-0.2,37.3l-9.4,3.4C179.4,513.9,179.8,498.8,182,484.2L182,484.2z"/>
		<line class="st4" x1="197" y1="480.5" x2="241.4" y2="480.7"/>
		<line class="st4" x1="197" y1="531.2" x2="241.4" y2="531.3"/>
		<path class="st5" d="M586.3,764.2c-4.9-11-11.7-26.1-16.6-42.8c-3.7-13.4-7.5-26.9-11.3-40.5c-3.7-18-8.2-32-7.7-46.8
			c-0.1-2.8,1.9-10.3,6.6-11.5l34.2-9.6c5.5-1.5,9,5.1,10,6.9c7.1,12.7,12.4,26.4,17.3,43.9l11.4,40.8c4.4,15.9,7.2,32.3,8.3,44.9
			c0.3,3.5,1.2,9.6-6,11.6l-34.6,9.7C588.6,773.4,588.4,768.7,586.3,764.2L586.3,764.2z"/>
		<path class="st3" d="M567.8,681.3l-6.5-14.2c14.7-10.4,29.4-13.9,48.3-13.5l2,15.4C593.2,670.3,584.8,672.2,567.8,681.3
			L567.8,681.3z"/>
		<path class="st3" d="M586.2,744l0.5-10c13-1.1,24.9-4.5,36-9.9l5.8,8.1C615.5,738.5,600.9,742.2,586.2,744L586.2,744z"/>
		<line class="st4" x1="578.6" y1="730.5" x2="566.8" y2="687.7"/>
		<line class="st4" x1="627.4" y1="716.9" x2="615.6" y2="674.1"/>
		<polygon class="st6" points="120.7,357.2 153.6,364.7 153.6,349.7 		"/>
		<polygon class="st6" points="391.2,357.2 424.1,364.7 424.1,349.7 		"/>
		<polygon class="st6" points="661.2,505.9 628.3,513.4 628.3,498.4 		"/>
		<polygon class="st7" points="639.2,455 639.2,403.3 649.7,403.3 649.7,446.2 675.8,446.2 675.8,455 		"/>
		<path class="st7" d="M461.7,708.8c0-5.3,0.8-9.8,2.4-13.4c1.2-2.6,2.8-5,4.8-7.1c2.1-2.1,4.3-3.7,6.7-4.7c3.3-1.4,7-2.1,11.2-2.1
			c7.7,0,13.8,2.4,18.4,7.1c4.6,4.8,6.9,11.4,6.9,19.9c0,8.4-2.3,15-6.9,19.8c-4.6,4.7-10.7,7.1-18.3,7.1c-7.8,0-13.9-2.4-18.5-7.1
			C464,723.6,461.7,717,461.7,708.8L461.7,708.8z M472.5,708.4c0,5.9,1.4,10.4,4.1,13.4c2.7,3,6.2,4.6,10.4,4.6s7.6-1.5,10.3-4.5
			s4-7.5,4-13.6c0-6-1.3-10.4-3.9-13.4c-2.6-2.9-6.1-4.4-10.4-4.4c-4.3,0-7.8,1.5-10.5,4.5C473.8,697.9,472.5,702.4,472.5,708.4
			L472.5,708.4z"/>
		<path class="st7" d="M421.3,172.3h20.8c4.1,0,7.2,0.2,9.2,0.5s3.8,1.1,5.4,2.1c1.6,1.1,2.9,2.5,4,4.4c1.1,1.8,1.6,3.8,1.6,6.1
			c0,2.4-0.7,4.7-2,6.7s-3.1,3.6-5.3,4.6c3.2,0.9,5.6,2.5,7.3,4.7c1.7,2.2,2.6,4.9,2.6,7.9c0,2.4-0.5,4.7-1.7,6.9
			c-1.1,2.2-2.6,4-4.5,5.4c-1.9,1.3-4.3,2.2-7.1,2.5c-1.7,0.2-6,0.3-12.7,0.4h-17.7v-52.2H421.3z M431.8,181v12h6.9
			c4.1,0,6.7-0.1,7.6-0.2c1.8-0.2,3.2-0.8,4.2-1.9c1-1,1.5-2.4,1.5-4.1c0-1.6-0.4-2.9-1.3-3.9s-2.2-1.6-4-1.8c-1-0.1-4-0.2-9-0.2
			L431.8,181L431.8,181z M431.8,201.7v13.9h9.7c3.8,0,6.2-0.1,7.2-0.3c1.6-0.3,2.8-1,3.8-2.1s1.5-2.6,1.5-4.4c0-1.6-0.4-2.9-1.1-4
			c-0.8-1.1-1.9-1.9-3.3-2.4s-4.6-0.7-9.3-0.7H431.8L431.8,201.7z"/>
		<polygon class="st7" points="97.4,532.7 97.4,480.6 107.9,480.6 107.9,501.1 128.5,501.1 128.5,480.6 139,480.6 139,532.7 
			128.5,532.7 128.5,509.9 107.9,509.9 107.9,532.7 		"/>
		<path class="st8" d="M717.5,330c-11.9-1.8-28.2-4.3-45.7-4.4c-13.9,0-27.9,0-42,0c-18.3,1.2-33,0.7-47.1,5.2
			c-2.8,0.7-9.4,4.6-9.4,9.4v35.5c0,5.7,7.3,7.3,9.4,7.8c14.1,3.4,28.8,4.8,47,4.8h42.4c16.5,0,33-1.8,45.5-4.1
			c3.5-0.7,9.5-1.4,9.5-8.9v-35.9C727.1,329.7,722.5,330.7,717.5,330L717.5,330z"/>
		<path class="st3" d="M632.8,334.4l-15.4-2.4c-6.1,17-5.5,32.1,0,50.1l15.4-2.2C628.9,361.9,628.6,353.2,632.8,334.4L632.8,334.4z"
			/>
		<path class="st3" d="M698.1,335.3l-9.5,3.2c2.4,12.8,2.4,25.2,0.2,37.3l9.4,3.4C700.7,365,700.3,349.9,698.1,335.3L698.1,335.3z"
			/>
		<line class="st4" x1="683.1" y1="331.6" x2="638.7" y2="331.8"/>
		<line class="st4" x1="683.1" y1="382.3" x2="638.7" y2="382.4"/>
		<path class="st9" d="M355.2,135.4c1.8,11.9,4.3,28.2,4.4,45.7c0,13.9,0,27.9,0,42c-1.2,18.3-0.7,33-5.2,47.1
			c-0.7,2.8-4.6,9.4-9.4,9.4h-35.5c-5.7,0-7.3-7.3-7.8-9.4c-3.4-14.1-4.8-28.8-4.8-47v-42.4c0-16.5,1.8-33,4.1-45.5
			c0.7-3.5,1.4-9.5,8.9-9.5h35.9C355.6,125.8,354.5,130.4,355.2,135.4L355.2,135.4z"/>
		<path class="st3" d="M350.8,220.1l2.4,15.4c-17,6.1-32.1,5.5-50.1,0l2.2-15.4C323.3,224,332,224.3,350.8,220.1L350.8,220.1z"/>
		<path class="st3" d="M349.9,154.8l-3.2,9.5c-12.8-2.4-25.2-2.4-37.3-0.2l-3.4-9.4C320.2,152.2,335.3,152.6,349.9,154.8
			L349.9,154.8z"/>
		<line class="st4" x1="353.6" y1="169.8" x2="353.4" y2="214.2"/>
		<line class="st4" x1="303" y1="169.8" x2="302.8" y2="214.2"/>
		<polygon class="st0" points="375,309.3 356.1,309.3 365.5,285 		"/>
		<polygon class="st0" points="316.3,309.3 297.4,309.3 306.8,285 		"/>
		<polygon class="st0" points="286.9,309.3 268,309.3 277.5,285 		"/>
		<polygon class="st0" points="404.3,309.3 385.5,309.3 394.9,285 		"/>
		<polygon class="st0" points="345.6,309.3 326.7,309.3 336.2,285 		"/>
		<polygon class="st0" points="524.9,557.5 543.8,557.5 534.4,581.8 		"/>
		<polygon class="st0" points="583.6,557.5 602.5,557.5 593.1,581.8 		"/>
		<polygon class="st0" points="613,557.5 631.9,557.5 622.4,581.8 		"/>
		<polygon class="st0" points="495.6,557.5 514.5,557.5 505,581.8 		"/>
		<polygon class="st0" points="554.3,557.5 573.2,557.5 563.7,581.8 		"/>
		<path class="st3" d="M162,270.6c-3.5-0.1-5.6-2.8-5-6.2l0.1-0.5l0.2-0.6l0.2-0.6l32.1-55.6c1.6-2.5,3.9-3.9,6.8-2.6
			c1.1,0.6,1.9,1.5,2.6,2.6l32,55.4c1.2,2.2,1.6,4.5-0.2,6.5c-1.4,1.5-3.2,1.7-5.1,1.7h-63L162,270.6L162,270.6z"/>
		<path class="st10" d="M162.8,268.9c-1,0-1.9,0.1-3-0.7c-1-0.8-2-2.7-0.9-4.9l32-55.5c1.8-3.1,5-3.1,6.7-0.1l32,55.4
			c0.7,1.2,1.2,2.9,0.5,4.1c-1,1.6-2.6,1.6-4.4,1.7H162.8L162.8,268.9z"/>
		<polygon class="st11" points="167,262.4 194.4,215.1 221.7,262.4 		"/>
		<path class="st3" d="M749.7,598c3.4-0.8,6.1,1.2,6.5,4.7v0.5v0.6l-0.1,0.6l-16.7,62c-0.9,2.8-2.8,4.7-5.9,4.3
			c-1.2-0.3-2.3-0.9-3.2-1.8l-45.2-45.3c-1.7-1.8-2.7-3.9-1.5-6.3c1-1.8,2.6-2.4,4.5-2.9l60.8-16.2L749.7,598L749.7,598z"/>
		<path class="st10" d="M749.4,599.8c1-0.2,1.8-0.6,3-0.1s2.6,2.1,2.1,4.5l-16.7,61.9c-0.9,3.5-4,4.2-6.4,1.8l-45.1-45.3
			c-1-1-1.9-2.4-1.5-3.8c0.6-1.8,2.1-2.3,3.8-2.7L749.4,599.8L749.4,599.8z"/>
		<polygon class="st11" points="746.9,607.2 732.7,659.9 694.1,621.2 		"/>
		<polygon class="st0" points="405.6,281.8 396.2,281.8 396.2,90.4 405.6,90.4 		"/>
		<polygon class="st0" points="504.7,585.7 562.8,810 552.8,810 494.8,585.7 		"/>
		<path class="st12" d="M529.8,91.1V275c0,26.6,7.6,35.2,34.1,35.2l262.5-0.1 M826.4,557H657.6c-23,0.5-29.6,13.2-25.7,31l60.9,222
			 M425.6,810l-59.4-219.9c-8.2-24.1-15.7-31.3-43.9-33l-274-0.1 M48.4,310.2h188.5c26.4,0,35-8.7,35-35.2V90"/>
		<path class="st13" d="M556.3,90.4v193.3l270.1-0.1 M826.6,583.5H659.1L720.2,810 M398.2,810L337,583.5H48.4 M48.4,283.6h197.1
			l-0.1-193.3"/>
		<line class="st13" x1="194.3" y1="203.8" x2="194.3" y2="148.9"/>
		<line class="st13" x1="735.7" y1="670.8" x2="749.8" y2="723.9"/>
		<path class="st14" d="M569.7,613.3c-52.8-158.7-186-239.6-414.2-256.1c147-0.2,162.6-6.9,173.7-73.7"/>
		<line class="st14" x1="567.7" y1="357" x2="428.4" y2="357"/>
		<line class="st14" x1="312.5" y1="505.9" x2="625.4" y2="505.9"/>
	</g>
</g>
</svg>
