<?xml version="1.0" encoding="utf-8"?>
<!-- Generator: Adobe Illustrator 19.2.0, SVG Export Plug-In . SVG Version: 6.00 Build 0)  -->
<svg version="1.1" id="Livello_1" xmlns="http://www.w3.org/2000/svg" xmlns:xlink="http://www.w3.org/1999/xlink" x="0px" y="0px"
	 viewBox="0 0 875 900" style="enable-background:new 0 0 875 900;" xml:space="preserve">
<style type="text/css">
	.st0{fill:#FFFFFF;}
	.st1{fill:#B9B9B9;}
	.st2{fill:#3D3D3F;stroke:#1A171B;stroke-width:1.2923;stroke-miterlimit:2.6131;}
	.st3{fill:#FFFFFF;stroke:#1A171B;stroke-width:1.2923;stroke-miterlimit:2.6131;}
	.st4{fill:none;stroke:#FFFFFF;stroke-width:1.7231;stroke-miterlimit:2.6131;}
	.st5{fill:#1A171B;}
	.st6{fill:#00A6E2;stroke:#1A171B;stroke-width:1.2923;stroke-miterlimit:2.6131;}
	.st7{fill:none;stroke:#1A171B;stroke-width:1.7231;stroke-miterlimit:2.6131;}
	.st8{fill:#E43417;stroke:#1A171B;stroke-width:1.2923;stroke-miterlimit:2.6131;}
	.st9{fill:none;stroke:#1A171B;stroke-width:4.3078;stroke-miterlimit:2.6131;}
	.st10{fill:none;stroke:#1A171B;stroke-width:1.2923;stroke-miterlimit:2.6131;}
	.st11{fill:#E1001A;}
	.st12{fill:#FFFFFF;stroke:#E1001A;stroke-width:4.3078;stroke-miterlimit:2.6131;}
	.st13{fill:none;stroke:#1A171B;stroke-width:4.3078;stroke-linecap:square;stroke-miterlimit:2.6131;}
	
		.st14{fill:none;stroke:#1A171B;stroke-width:4.3078;stroke-linecap:square;stroke-miterlimit:2.6131;stroke-dasharray:21.5389,21.5389;}
	.st15{fill:#049853;stroke:#1A171B;stroke-width:1.2923;stroke-miterlimit:2.6131;}
</style>
<g>
	<g>
		<polygon class="st0" points="254.6,90 546.2,90 546.2,272.8 824.7,272.8 824.7,589.8 546.2,589.8 546.2,810 254.6,810 
			254.6,589.8 50.3,589.8 50.3,272.8 254.6,272.8 		"/>
		<path class="st1" d="M278.7,90H522v173.1c0,24.3,9.6,34,33.8,34h268.9v268.6H555.8c-23.7,0-33.8,9.6-33.8,33.8V810H278.8
			l-0.1-210.5c0-24.2-9.4-33.8-33.4-33.8h-195V297.1h195c24.1,0,33.4-10.1,33.4-34L278.7,90L278.7,90z"/>
		<path class="st2" d="M455.9,762.7c-1.6-10.4-3.7-24.7-3.9-40c0-12.2,0-24.4,0-36.8c1.1-16.1,0.6-28.9,4.5-41.3
			c0.6-2.4,4-8.2,8.2-8.2h31.1c5,0,6.4,6.4,6.8,8.2c3,12.4,4.2,25.2,4.2,41.1v37.1c0,14.4-1.6,28.9-3.6,39.8c-0.6,3-1.2,8.3-7.8,8.3
			H464C455.6,771.1,456.6,767.1,455.9,762.7L455.9,762.7z"/>
		<path class="st3" d="M459.8,688.6l-2.1-13.5c14.8-5.3,28.1-4.8,43.9,0l-1.9,13.5C483.9,685.2,476.3,684.9,459.8,688.6L459.8,688.6
			z"/>
		<path class="st3" d="M460.6,745.7l2.8-8.3c11.2,2.1,22.1,2.1,32.7,0.2l3,8.2C486.6,748,473.4,747.6,460.6,745.7L460.6,745.7z"/>
		<line class="st4" x1="457.3" y1="732.6" x2="457.5" y2="693.7"/>
		<line class="st4" x1="501.7" y1="732.6" x2="501.8" y2="693.7"/>
		<polygon class="st2" points="618.6,528.3 588.5,521.4 588.5,535.1 		"/>
		<polygon class="st2" points="479.2,156.9 472.4,187 486.1,187 		"/>
		<polygon class="st2" points="387,495.7 405.3,470.8 392.8,465.3 		"/>
		<path class="st5" d="M287.4,168.9h16.1c3.2,0,5.6,0.1,7.1,0.5c1.6,0.3,3,0.9,4.2,1.9s2.3,2.2,3.1,3.8c0.8,1.6,1.2,3.4,1.2,5.3
			c0,2.1-0.5,4.1-1.5,5.9c-1,1.8-2.4,3.1-4.1,4c2.4,0.8,4.3,2.2,5.7,4.1c1.3,2,2,4.2,2,6.9c0,2.1-0.4,4.1-1.3,6.1s-2,3.5-3.5,4.7
			s-3.3,1.9-5.5,2.2c-1.4,0.2-4.6,0.3-9.8,0.3h-13.7L287.4,168.9L287.4,168.9z M295.5,176.4V187h5.3c3.2,0,5.1-0.1,5.9-0.2
			c1.4-0.2,2.5-0.7,3.3-1.6c0.8-0.9,1.2-2.1,1.2-3.6c0-1.4-0.3-2.6-1-3.4c-0.7-0.9-1.7-1.4-3.1-1.6c-0.8-0.1-3.1-0.2-7-0.2H295.5
			L295.5,176.4z M295.5,194.6v12.2h7.5c2.9,0,4.8-0.1,5.6-0.3c1.2-0.2,2.2-0.9,3-1.8c0.8-1,1.1-2.3,1.1-3.9c0-1.4-0.3-2.5-0.9-3.5
			s-1.4-1.7-2.5-2.1c-1.1-0.4-3.5-0.6-7.2-0.6L295.5,194.6L295.5,194.6z"/>
		<path class="st5" d="M154.3,475.3v-7.7H172v18.2c-1.7,1.9-4.2,3.5-7.5,4.9s-6.6,2.1-9.9,2.1c-4.3,0-8-1-11.1-3
			c-3.2-2-5.6-4.9-7.1-8.6c-1.6-3.7-2.4-7.8-2.4-12.1c0-4.7,0.9-9,2.7-12.7s4.4-6.5,7.8-8.5c2.6-1.5,5.9-2.3,9.8-2.3
			c5.1,0,9,1.2,11.8,3.6s4.7,5.7,5.5,9.9l-8.2,1.7c-0.6-2.2-1.7-4-3.2-5.3c-1.6-1.3-3.6-1.9-5.9-1.9c-3.6,0-6.5,1.3-8.6,3.8
			c-2.1,2.6-3.2,6.3-3.2,11.4c0,5.4,1.1,9.5,3.2,12.2c2.1,2.7,5,4.1,8.4,4.1c1.7,0,3.5-0.4,5.2-1.1c1.7-0.8,3.2-1.7,4.5-2.7v-5.8
			h-9.5V475.3z"/>
		<polygon class="st5" points="668.6,354.6 668.6,316.7 656.7,316.7 656.7,309 688.5,309 688.5,316.7 676.7,316.7 676.7,354.6 		"/>
		<path class="st5" d="M558.6,788v-45.6h13.6c5.2,0,8.5,0.2,10.1,0.7c2.4,0.7,4.4,2.2,6.1,4.5c1.6,2.3,2.4,5.3,2.4,8.9
			c0,2.8-0.5,5.2-1.4,7.1c-0.9,1.9-2.1,3.4-3.6,4.5c-1.4,1.1-2.9,1.8-4.4,2.2c-2,0.4-5,0.7-8.8,0.7h-5.5v17H558.6L558.6,788z
			 M567.1,750.2v12.9h4.6c3.4,0,5.6-0.2,6.7-0.7c1.1-0.5,2-1.2,2.7-2.2c0.6-1,1-2.2,1-3.5c0-1.7-0.4-3-1.4-4.1c-0.9-1.1-2-1.8-3.4-2
			c-1-0.2-3.1-0.3-6.1-0.3h-4.1V750.2z"/>
		<path class="st6" d="M380.2,136.3c1.6,10.4,3.7,24.7,3.9,40c0,12.2,0,24.4,0,36.8c-1.1,16.1-0.6,28.9-4.5,41.3
			c-0.6,2.4-4,8.2-8.2,8.2h-31.1c-5,0-6.4-6.4-6.8-8.2c-3-12.4-4.2-25.2-4.2-41.1v-37.1c0-14.4,1.6-28.9,3.6-39.8
			c0.6-3.1,1.2-8.3,7.8-8.3h31.4C380.6,128,379.6,132,380.2,136.3L380.2,136.3z"/>
		<path class="st3" d="M376.4,210.5l2.1,13.5c-14.8,5.3-28.1,4.8-43.9,0l1.9-13.5C352.3,213.8,359.9,214.2,376.4,210.5L376.4,210.5z
			"/>
		<path class="st3" d="M375.6,153.3l-2.8,8.3c-11.2-2.1-22.1-2.1-32.7-0.2l-3-8.2C349.6,151.1,362.8,151.4,375.6,153.3L375.6,153.3z
			"/>
		<line class="st7" x1="378.8" y1="166.5" x2="378.7" y2="205.3"/>
		<line class="st7" x1="334.5" y1="166.5" x2="334.4" y2="205.3"/>
		<path class="st8" d="M97.2,504.9c10.4-1.6,24.7-3.7,40-3.9c12.2,0,24.4,0,36.8,0c16.1,1.1,28.9,0.6,41.3,4.5
			c2.4,0.6,8.2,4,8.2,8.2v31.1c0,5-6.4,6.4-8.2,6.8c-12.4,3-25.2,4.2-41.1,4.2h-37.1c-14.4,0-28.9-1.6-39.8-3.6
			c-3-0.6-8.3-1.2-8.3-7.8V513C88.8,504.6,92.8,505.5,97.2,504.9L97.2,504.9z"/>
		<path class="st3" d="M171.3,508.8l13.5-2.1c5.3,14.8,4.8,28.1,0,43.9l-13.5-1.9C174.7,532.8,175,525.3,171.3,508.8L171.3,508.8z"
			/>
		<path class="st3" d="M114.2,509.6l8.3,2.8c-2.1,11.2-2.1,22.1-0.2,32.7l-8.2,3C111.9,535.6,112.3,522.3,114.2,509.6L114.2,509.6z"
			/>
		<line class="st7" x1="127.4" y1="506.3" x2="166.2" y2="506.5"/>
		<line class="st7" x1="127.4" y1="550.6" x2="166.2" y2="550.8"/>
		<polygon class="st0" points="424.5,566.3 442.3,566.3 433.4,590.4 		"/>
		<polygon class="st0" points="479.8,566.3 497.6,566.3 488.7,590.4 		"/>
		<polygon class="st0" points="507.5,566.3 525.3,566.3 516.4,590.4 		"/>
		<polygon class="st0" points="396.9,566.3 414.6,566.3 405.8,590.4 		"/>
		<polygon class="st0" points="452.2,566.3 470,566.3 461.1,590.4 		"/>
		<polygon class="st0" points="303.9,296.8 321.7,296.8 312.8,272.7 		"/>
		<polygon class="st0" points="359.2,296.8 377,296.8 368.1,272.7 		"/>
		<polygon class="st0" points="386.9,296.8 404.7,296.8 395.8,272.7 		"/>
		<polygon class="st0" points="276.2,296.8 294,296.8 285.1,272.7 		"/>
		<polygon class="st0" points="331.5,296.8 349.3,296.8 340.4,272.7 		"/>
		<path class="st9" d="M50.3,272.8h204.3V90 M546.2,90v182.8h278.5 M824.7,589.8H546.2V810 M254.6,810V589.8H50.3"/>
		<path class="st10" d="M50.3,297.2h195c24.1,0,33.4-10.1,33.4-34V90 M522,90v173.2c0,24.3,9.6,34,33.8,34l268.9-0.1 M824.7,565.7
			H555.8c-23.7,0-33.8,9.6-33.8,33.8V810 M278.8,810l-0.1-210.5c0-24.2-9.4-33.8-33.4-33.8h-195"/>
		<path class="st9" d="M824.7,377.2H543.6c-107.7,0-178.4,70.9-178.4,188.4V810 M824.7,399.7H543.6c-97,0-156,66.9-156,166V810
			 M824.7,425.7H543.6c-81.4,0.3-130,52.1-130,139.9V810 M824.7,448.1H543.3c-64.1,0-107.4,40.8-107.4,117.5V810"/>
		<polygon class="st0" points="396.5,90 404.3,90 404.3,267.7 396.5,267.7 		"/>
		<polygon class="st0" points="396.5,594.8 404.3,594.8 404.3,810 396.5,810 		"/>
		<path class="st3" d="M171.3,260.4c-3.5-0.1-5.6-2.8-5-6.2l0.1-0.5l0.2-0.6l0.2-0.5l32.1-55.7c1.6-2.5,3.9-3.9,6.8-2.6
			c1.1,0.6,1.9,1.5,2.6,2.6l32,55.5c1.2,2.2,1.6,4.5-0.2,6.5c-1.4,1.5-3.2,1.7-5.1,1.7h-63h-0.7V260.4z"/>
		<path class="st11" d="M172.1,258.8c-1,0-1.9,0.1-3-0.7c-1-0.8-2-2.7-0.9-4.9l32-55.6c1.8-3.1,5-3.1,6.7-0.1l32,55.4
			c0.7,1.2,1.2,2.9,0.5,4.1c-1,1.6-2.6,1.6-4.4,1.7L172.1,258.8L172.1,258.8z"/>
		<polygon class="st12" points="176.4,252.2 203.7,204.9 231,252.2 		"/>
		<path class="st3" d="M629.5,602.3c3.5,0.1,5.6,2.8,5,6.2l-0.1,0.5l-0.2,0.6l-0.2,0.5l-32.1,55.7c-1.6,2.5-3.9,3.9-6.8,2.6
			c-1.1-0.6-1.9-1.5-2.6-2.6l-32-55.5c-1.2-2.2-1.6-4.5,0.2-6.5c1.4-1.5,3.2-1.7,5.1-1.7h63h0.7V602.3z"/>
		<path class="st11" d="M628.7,604c1,0,1.9-0.1,3,0.6c1,0.8,2,2.7,0.9,4.9l-32.1,55.6c-1.8,3.1-5,3.1-6.7,0.1l-32-55.4
			c-0.7-1.2-1.3-2.9-0.5-4.1c1-1.6,2.6-1.6,4.4-1.7L628.7,604L628.7,604z"/>
		<polygon class="st12" points="624.4,610.5 597.1,657.8 569.8,610.5 		"/>
		<line class="st13" x1="203.7" y1="193.5" x2="203.7" y2="138.6"/>
		<line class="st13" x1="597.1" y1="669.2" x2="597.1" y2="724.1"/>
		<path class="st14" d="M555.6,388.4c-86.2-2.6-127.9,33.2-156.1,78"/>
		<line class="st14" x1="227.2" y1="528.4" x2="586" y2="528.4"/>
		<polygon class="st15" points="559.3,375.4 591.4,362.3 756.1,362.3 788.3,375.4 788.3,401.3 755.6,414.3 591.3,414.3 559.3,401.3 
					"/>
		<polygon class="st15" points="591.7,401.3 755.9,401.3 755.9,414.4 591.7,414.4 		"/>
		<polygon class="st15" points="591.7,362.4 755.9,362.4 755.9,375.5 591.7,375.5 		"/>
		<line class="st10" x1="564.4" y1="375.4" x2="783.2" y2="375.4"/>
		<line class="st10" x1="564.4" y1="388.4" x2="783.2" y2="388.4"/>
		<line class="st10" x1="564.4" y1="401.3" x2="783.2" y2="401.3"/>
		<polygon class="st0" points="628.8,402.3 623.1,402.3 627.9,379.2 619.8,379.2 620.8,374.6 642.7,374.6 641.7,379.2 633.7,379.2 
					"/>
		<path class="st0" d="M646.3,402.3h-5.7l5.8-27.8h12.3c2.1,0,3.8,0.2,5,0.7c1.2,0.4,2.1,1.2,2.9,2.4c0.7,1.2,1.1,2.6,1.1,4.2
			c0,2.4-0.7,4.3-2.1,5.8c-1.4,1.5-3.6,2.5-6.4,2.9c0.7,0.7,1.4,1.5,2.1,2.6c1.3,2.2,2.7,5.2,4.3,9.2h-6.1c-0.5-1.6-1.5-4-2.9-7.3
			c-0.8-1.8-1.6-3-2.5-3.6c-0.5-0.4-1.5-0.5-2.8-0.5H649L646.3,402.3L646.3,402.3z M649.6,386.7h3c3.1,0,5.1-0.2,6.1-0.5
			c1-0.4,1.8-0.9,2.4-1.7c0.6-0.8,0.8-1.6,0.8-2.5c0-1-0.4-1.8-1.2-2.3c-0.5-0.3-1.6-0.5-3.3-0.5h-6.3L649.6,386.7L649.6,386.7z"/>
		<path class="st0" d="M686.7,396.2h-11l-3.3,6.1h-5.9l15.7-27.8h6.4l4.5,27.8h-5.4L686.7,396.2L686.7,396.2z M686,391.6l-1.6-11.2
			l-6.7,11.2H686L686,391.6z"/>
		<polygon class="st0" points="712.5,402.3 707,402.3 706,379.1 701.6,402.3 696.5,402.3 702.3,374.6 710.4,374.6 711.3,394 
			720.7,374.6 729,374.6 723.2,402.3 717.9,402.3 723.4,379.3 		"/>
		<line class="st14" x1="479.3" y1="629.1" x2="479.3" y2="188.8"/>
		<path class="st14" d="M358,266c6.2,128.3,69.9,219.4,227.3,262.4"/>
	</g>
</g>
</svg>
