<?xml version="1.0" encoding="utf-8"?>
<!-- Generator: Adobe Illustrator 19.2.0, SVG Export Plug-In . SVG Version: 6.00 Build 0)  -->
<svg version="1.1" id="Livello_1" xmlns="http://www.w3.org/2000/svg" xmlns:xlink="http://www.w3.org/1999/xlink" x="0px" y="0px"
	 viewBox="0 0 960 960" style="enable-background:new 0 0 960 960;" xml:space="preserve">
<style type="text/css">
	.st0{fill-rule:evenodd;clip-rule:evenodd;fill:#FFFFFF;}
	.st1{fill-rule:evenodd;clip-rule:evenodd;fill:#CECFD1;}
	.st2{fill:none;stroke:#1A171B;stroke-width:4.9465;stroke-linecap:square;stroke-miterlimit:2.6131;}
	.st3{fill:none;stroke:#1A171B;stroke-width:1.484;stroke-linecap:square;stroke-miterlimit:2.6131;}
	.st4{fill-rule:evenodd;clip-rule:evenodd;fill:#1A171B;stroke:#1A171B;stroke-width:1.484;stroke-miterlimit:2.6131;}
	
		.st5{fill:none;stroke:#1A171B;stroke-width:4.9465;stroke-linecap:square;stroke-miterlimit:2.6131;stroke-dasharray:24.7325,24.7325;}
	.st6{fill-rule:evenodd;clip-rule:evenodd;fill:#3D3D3F;stroke:#1A171B;stroke-width:1.484;stroke-miterlimit:2.6131;}
	.st7{fill-rule:evenodd;clip-rule:evenodd;fill:#FFFFFF;stroke:#1A171B;stroke-width:1.484;stroke-miterlimit:2.6131;}
	.st8{fill:none;stroke:#FFFFFF;stroke-width:1.9786;stroke-miterlimit:2.6131;}
	.st9{fill-rule:evenodd;clip-rule:evenodd;fill:#E43417;stroke:#1A171B;stroke-width:1.484;stroke-miterlimit:2.6131;}
	.st10{fill:none;stroke:#1A171B;stroke-width:1.9786;stroke-miterlimit:2.6131;}
	.st11{fill-rule:evenodd;clip-rule:evenodd;fill:#1A171B;}
</style>
<g>
	<g>
		<polygon class="st0" points="287.1,284 45,284 45,675.5 287.1,675.5 287.1,789.5 672.4,789.5 672.4,675.5 914.9,675.5 914.9,284 
			672.4,284 672.4,170.5 287.1,170.5 287.1,284 		"/>
		<path class="st1" d="M314,274.8c0,27.6-8.3,37-35.7,36.9L45,311.6v336.3h233.3c26.8,0,35.7,9.2,35.7,36.8v104.9h330.9V684.7
			c0-27.6,9.8-36.8,36.4-36.8H915V311.6l-233.7,0.1c-27.5,0-36.4-9.6-36.4-36.9V170.5H314V274.8L314,274.8z"/>
		<path class="st2" d="M45,675.5h242.1v114.1 M672.3,789.5V675.5h242.5 M914.8,284H672.3V170.5 M287.1,170.5V284H45"/>
		<path class="st3" d="M314,170.5v104.3c0,27.6-8.3,37-35.7,36.9L45,311.6 M45,647.9h233.3c26.8,0,35.7,9.2,35.7,36.8v104.9
			 M644.9,789.5V684.7c0-27.6,9.8-36.8,36.4-36.8h233.6 M915,311.6l-233.7,0.1c-27.5,0-36.4-9.6-36.4-36.9V170.5"/>
		<path class="st0" d="M479.8,460.8c10.4,0,19,8.5,19,19s-8.5,19-19,19c-10.4,0-19-8.5-19-19S469.4,460.8,479.8,460.8L479.8,460.8z"
			/>
		<polygon class="st4" points="692.1,587.9 647.8,598 647.8,577.8 692.1,587.9 		"/>
		<polygon class="st4" points="279,388.9 324.4,394 317.7,413.1 279,388.9 		"/>
		<path class="st5" d="M385.6,175.7l-0.7,149.4c-0.8,158.8,97.3,254.3,264.8,262.4"/>
		<path class="st5" d="M525.7,784.8c-7.1-181.5-101.3-323.5-199.9-381.1"/>
		<path class="st6" d="M250.4,417.4c-13.9,2.1-32.9,5-53.2,5.2c-16.2,0-32.5,0-48.9,0c-21.4-1.4-38.4-0.8-54.9-6
			c-3.2-0.8-10.9-5.4-10.9-11v-41.4c0-6.6,8.5-8.5,10.9-9.1c16.4-3.9,33.5-5.6,54.7-5.6h49.3c19.2,0,38.4,2.1,53,4.8
			c4.1,0.8,11.1,1.7,11.1,10.3v41.8C261.5,417.8,256.2,416.6,250.4,417.4L250.4,417.4z"/>
		<path class="st7" d="M151.7,412.2l-17.9,2.8c-7-19.7-6.4-37.3,0-58.4l17.9,2.6C147.3,380.3,146.8,390.3,151.7,412.2L151.7,412.2z"
			/>
		<path class="st7" d="M227.8,411.2l-11.1-3.7c2.8-14.9,2.8-29.4,0.2-43.4l10.9-3.9C230.7,376.6,230.3,394.2,227.8,411.2
			L227.8,411.2z"/>
		<line class="st8" x1="210.2" y1="415.5" x2="158.6" y2="415.3"/>
		<line class="st8" x1="210.2" y1="356.6" x2="158.6" y2="356.4"/>
		<path class="st9" d="M713.2,557.4c13.9-2.1,32.9-5,53.2-5.2c16.2,0,32.5,0,48.9,0c21.3,1.4,38.4,0.8,54.9,6
			c3.2,0.8,10.9,5.4,10.9,11v41.4c0,6.6-8.5,8.5-10.9,9.1c-16.4,3.9-33.5,5.6-54.7,5.6h-49.3c-19.2,0-38.4-2.1-53-4.8
			c-4.1-0.8-11.1-1.7-11.1-10.3v-41.8C702.1,557,707.4,558.2,713.2,557.4L713.2,557.4z"/>
		<path class="st7" d="M811.8,562.5l17.9-2.8c7,19.7,6.4,37.3,0,58.4l-17.9-2.6C816.3,594.5,816.7,584.4,811.8,562.5L811.8,562.5z"
			/>
		<path class="st7" d="M735.8,563.6l11.1,3.7c-2.8,14.9-2.8,29.4-0.2,43.4l-10.9,3.9C732.8,598.1,733.2,580.5,735.8,563.6
			L735.8,563.6z"/>
		<line class="st10" x1="753.3" y1="559.2" x2="805" y2="559.4"/>
		<line class="st10" x1="753.3" y1="618.2" x2="805" y2="618.4"/>
		<path class="st11" d="M154.7,477.8c0-6,0.9-11,2.7-15.1c1.3-3,3.2-5.7,5.5-8.1c2.3-2.4,4.8-4.1,7.6-5.3c3.7-1.6,7.9-2.3,12.7-2.3
			c8.7,0,15.6,2.7,20.8,8.1c5.2,5.4,7.8,12.8,7.8,22.4c0,9.5-2.6,16.9-7.7,22.3c-5.2,5.4-12.1,8-20.7,8c-8.7,0-15.7-2.7-20.9-8
			C157.2,494.5,154.7,487.2,154.7,477.8L154.7,477.8z M166.9,477.4c0,6.7,1.5,11.7,4.6,15.1c3.1,3.4,7,5.1,11.7,5.1
			c4.7,0,8.6-1.7,11.7-5.1c3-3.4,4.5-8.5,4.5-15.3c0-6.7-1.5-11.8-4.4-15.1c-3-3.3-6.9-5-11.8-5c-4.9,0-8.8,1.7-11.8,5
			C168.4,465.6,166.9,470.6,166.9,477.4L166.9,477.4z"/>
		<path class="st11" d="M761.8,526.8V468h19c7.2,0,11.9,0.3,14.1,0.9c3.4,0.9,6.2,2.8,8.5,5.8c2.3,3,3.4,6.8,3.4,11.4
			c0,3.6-0.7,6.7-2,9.1c-1.3,2.5-3,4.4-5,5.8c-2,1.4-4.1,2.3-6.1,2.8c-2.8,0.6-6.9,0.9-12.3,0.9h-7.7v22.2H761.8L761.8,526.8z
			 M773.7,478v16.7h6.5c4.7,0,7.8-0.3,9.4-0.9c1.6-0.6,2.8-1.6,3.7-2.9c0.9-1.3,1.3-2.8,1.3-4.6c0-2.1-0.6-3.9-1.9-5.3
			c-1.2-1.4-2.9-2.3-4.8-2.6c-1.4-0.3-4.3-0.4-8.5-0.4H773.7L773.7,478z"/>
	</g>
</g>
</svg>
