<?xml version="1.0" encoding="utf-8"?>
<!-- Generator: Adobe Illustrator 19.2.0, SVG Export Plug-In . SVG Version: 6.00 Build 0)  -->
<svg version="1.1" id="Livello_1" xmlns="http://www.w3.org/2000/svg" xmlns:xlink="http://www.w3.org/1999/xlink" x="0px" y="0px"
	 viewBox="0 0 875 900" style="enable-background:new 0 0 875 900;" xml:space="preserve">
<style type="text/css">
	.st0{fill:#FFFFFF;}
	.st1{fill:#B9B9B9;}
	.st2{fill:#FFEC00;stroke:#1A171B;stroke-width:1.2877;stroke-miterlimit:2.6131;}
	.st3{fill:#FFFFFF;stroke:#1A171B;stroke-width:1.2877;stroke-miterlimit:2.6131;}
	.st4{fill:none;stroke:#1A171B;stroke-width:1.717;stroke-miterlimit:2.6131;}
	.st5{fill:#3D3D3F;stroke:#1A171B;stroke-width:1.2877;stroke-miterlimit:2.6131;}
	.st6{fill:#1A171B;}
	.st7{fill:#E43417;stroke:#1A171B;stroke-width:1.2877;stroke-linecap:square;stroke-miterlimit:2.6131;}
	.st8{fill:#FFFFFF;stroke:#1A171B;stroke-width:1.2877;stroke-linecap:square;stroke-miterlimit:2.6131;}
	.st9{fill:none;stroke:#1A171B;stroke-width:4.2924;stroke-linecap:square;stroke-miterlimit:2.6131;}
	.st10{fill:none;stroke:#1A171B;stroke-width:1.2877;stroke-linecap:square;stroke-miterlimit:2.6131;}
	.st11{fill:#00A6E2;stroke:#1A171B;stroke-width:1.2877;stroke-miterlimit:2.6131;}
	.st12{fill:none;stroke:#1A171B;stroke-width:1.2877;stroke-miterlimit:2.6131;}
	
		.st13{fill:none;stroke:#1A171B;stroke-width:4.2924;stroke-linecap:square;stroke-miterlimit:2.6131;stroke-dasharray:21.462,21.462;}
</style>
<g>
	<g>
		<polygon class="st0" points="247.6,623.8 51.7,623.8 51.7,317.1 247.6,317.1 247.6,90 528.4,90 528.4,317.1 823.3,317.1 
			823.3,623.8 528.4,623.8 528.4,810 247.6,810 		"/>
		<path class="st1" d="M270.6,90h234.8v219c0,22.5,7.3,31.1,30.3,31.1h287.6v260.7H535.7c-22.8,0-30.3,7.7-30.3,30.7V810H270.6
			V631.5c0-23-7.8-30.7-30.8-30.7H51.7V340.1h188.2c22.9,0,30.8-8.1,30.8-31.1L270.6,90L270.6,90z"/>
		<path class="st2" d="M441.3,766.4c-1.4-9.6-3.4-22.7-3.6-36.7c0-11.2,0-22.4,0-33.8c1-14.7,0.6-26.5,4.1-37.9
			c0.6-2.2,3.7-7.5,7.6-7.5H478c4.6,0,5.9,5.9,6.3,7.5c2.7,11.4,3.9,23.2,3.9,37.8v34.1c0,13.3-1.4,26.5-3.3,36.6
			c-0.6,2.8-1.1,7.7-7.1,7.7h-28.9C441,774.1,441.9,770.4,441.3,766.4L441.3,766.4z"/>
		<path class="st3" d="M444.9,698.3l-1.9-12.4c13.6-4.9,25.8-4.4,40.3,0l-1.8,12.4C467,695.2,460,694.9,444.9,698.3L444.9,698.3z"/>
		<path class="st3" d="M445.6,750.8l2.6-7.7c10.3,1.9,20.3,1.9,30,0.2l2.7,7.5C469.5,752.9,457.3,752.6,445.6,750.8L445.6,750.8z"/>
		<line class="st4" x1="442.6" y1="738.7" x2="442.8" y2="703"/>
		<line class="st4" x1="483.3" y1="738.7" x2="483.5" y2="703"/>
		<path class="st3" d="M95.2,539.9c9.6-1.4,22.7-3.4,36.7-3.6c11.2,0,22.4,0,33.8,0c14.7,1,26.6,0.6,37.9,4.1
			c2.2,0.6,7.5,3.7,7.5,7.6v28.6c0,4.6-5.9,5.9-7.5,6.3c-11.4,2.7-23.2,3.9-37.8,3.9h-34.1c-13.3,0-26.6-1.4-36.6-3.3
			c-2.8-0.6-7.7-1.1-7.7-7.1v-28.9C87.6,539.6,91.2,540.5,95.2,539.9L95.2,539.9z"/>
		<path class="st3" d="M163.4,543.5l12.4-1.9c4.9,13.6,4.4,25.8,0,40.3l-12.4-1.8C166.5,565.6,166.8,558.6,163.4,543.5L163.4,543.5z
			"/>
		<path class="st3" d="M110.9,544.2l7.7,2.6c-1.9,10.3-1.9,20.3-0.1,30l-7.5,2.7C108.8,568.1,109.1,555.9,110.9,544.2L110.9,544.2z"
			/>
		<line class="st4" x1="123" y1="541.2" x2="158.7" y2="541.4"/>
		<line class="st4" x1="123" y1="581.9" x2="158.7" y2="582.1"/>
		<polygon class="st5" points="626.3,557.9 597.6,551.4 597.6,564.4 		"/>
		<polygon class="st5" points="335.6,561.9 306.9,555.3 306.9,568.4 		"/>
		<polygon class="st5" points="327.9,717.4 339.7,690.5 326.9,688 		"/>
		<polygon class="st5" points="327.7,526.8 334.2,498.1 321.2,498.1 		"/>
		<polygon class="st6" points="391,730.1 391,685.2 400.2,685.2 400.2,722.4 422.9,722.4 422.9,730.1 		"/>
		<path class="st6" d="M644.3,560v-45.3h19.2c4.8,0,8.3,0.4,10.5,1.2s4,2.3,5.3,4.3c1.3,2.1,2,4.5,2,7.1c0,3.4-1,6.2-3,8.4
			s-5,3.6-9,4.2c2,1.2,3.6,2.4,4.9,3.8c1.3,1.4,3,3.8,5.2,7.3l5.5,8.8H674l-6.6-9.9c-2.4-3.5-4-5.7-4.8-6.6
			c-0.9-0.9-1.8-1.5-2.8-1.9c-1-0.3-2.5-0.5-4.6-0.5h-1.8V560H644.3L644.3,560z M653.4,533.9h6.8c4.4,0,7.1-0.2,8.2-0.5
			c1.1-0.4,1.9-1,2.6-1.9c0.6-0.9,0.9-2,0.9-3.4c0-1.5-0.4-2.7-1.2-3.7c-0.8-0.9-2-1.5-3.4-1.8c-0.7-0.1-3-0.1-6.7-0.1h-7.1
			L653.4,533.9L653.4,533.9z"/>
		<polygon class="st6" points="134.2,525.1 134.2,479.9 167.7,479.9 167.7,487.5 143.3,487.5 143.3,497.6 166,497.6 166,505.2 
			143.3,505.2 143.3,517.5 168.6,517.5 168.6,525.1 		"/>
		<polygon class="st6" points="427.8,240.6 427.8,195.3 436.7,195.3 455.3,225.6 455.3,195.3 463.7,195.3 463.7,240.6 454.6,240.6 
			436.3,211.1 436.3,240.6 		"/>
		<polygon class="st7" points="290.8,125.2 290.8,133.9 360.7,133.9 360.7,125.2 		"/>
		<path class="st7" d="M367.1,271.7v-28c0-1.1-1.1-2.1-2.5-2.1s-2.5,1.3-2.5,2.1v29.7C362,273.6,367.1,273.8,367.1,271.7
			L367.1,271.7z"/>
		<path class="st7" d="M284.7,271.7v-28c0-1.1,1.1-2.1,2.5-2.1s2.5,1.3,2.5,2.1v29.7C289.8,273.6,284.7,273.8,284.7,271.7
			L284.7,271.7z"/>
		<path class="st7" d="M364.5,296.2v2.5c0,4.2-3.4,7.6-7.6,7.6h-62c-4.2,0-7.6-3.4-7.6-7.6v-2.5H364.5z"/>
		<path class="st7" d="M289.8,296.4v-44.7H362v44.7c0,3.4-2.8,6.4-6.4,6.4h-59.4C292.6,302.8,289.8,300,289.8,296.4L289.8,296.4z"/>
		<path class="st7" d="M294.5,282.6V260c0-1.7,2.1-3.1,4.8-3.1h53.2c2.7,0,4.9,1.4,4.9,3.1v22.7c0,1.7-2.3,2.9-4.9,3.1
			c-17.8,1.5-35.5,1.4-53.2,0C296.5,285.6,294.5,284.3,294.5,282.6L294.5,282.6z"/>
		<path class="st8" d="M292.8,295.3c0.8-0.9,3.8-6,4.6-6c17.6,2.5,39.5,2.6,57.7,0c0.3-0.1,3,5.1,3.9,6c0.9,1-1.7,3.1-3.5,3.2
			c-19.7,1.5-39.5,1.5-59.1,0C294.3,298.4,291.6,296.5,292.8,295.3L292.8,295.3z"/>
		<path class="st7" d="M367.1,168.3v-28c0-1.1-1.1-2.1-2.5-2.1s-2.5,2.1-2.5,2.1V170C362,170.1,367.1,170.4,367.1,168.3L367.1,168.3
			z"/>
		<path class="st7" d="M284.7,168.3v-28c0-1.1,1.1-2.1,2.5-2.1s2.5,2.1,2.5,2.1V170C289.8,170.1,284.7,170.4,284.7,168.3
			L284.7,168.3z"/>
		<polygon class="st7" points="287.2,251.8 287.2,127.7 364.5,127.7 364.5,251.8 		"/>
		<polygon class="st7" points="292.3,246 292.3,133.5 359.4,133.5 359.4,246 		"/>
		<polygon class="st7" points="305.6,246 305.6,133.5 346.2,133.5 346.2,246 		"/>
		<polygon class="st7" points="319.1,246 319.1,133.5 332.7,133.5 332.7,246 		"/>
		<path class="st9" d="M51.7,317.1h196V90 M528.4,90v227.1h294.8 M823.3,623.8H528.4V810 M247.6,810V623.8h-196"/>
		<path class="st10" d="M51.7,340.1l188.2,0.1c22.9,0,30.8-8.1,30.8-31.1V90 M505.4,90v219.1c0,22.5,7.3,31.1,30.3,31.1l287.6-0.1
			 M823.3,600.8H535.7c-22.8,0-30.3,7.7-30.3,30.7V810 M270.6,810V631.5c0-23-7.8-30.7-30.8-30.7l-188.2-0.1"/>
		<path class="st6" d="M410.3,295.3v4.8L404,302v8.7l6.3,1.8v4.7l-27.7-8.5V304L410.3,295.3L410.3,295.3z M399.3,303.4l-10.3,3
			l10.3,2.9V303.4L399.3,303.4z"/>
		<path class="st6" d="M382.5,293v-4.4h15c2.4,0,3.9-0.1,4.6-0.2c1.1-0.2,2-0.6,2.7-1.3c0.7-0.7,1-1.7,1-2.9c0-1.3-0.3-2.2-1-2.8
			c-0.6-0.6-1.4-1-2.4-1.1s-2.5-0.2-4.7-0.2h-15.3v-4.4H397c3.3,0,5.7,0.1,7.1,0.4c1.4,0.2,2.5,0.7,3.5,1.3c0.9,0.6,1.7,1.5,2.3,2.6
			c0.6,1.1,0.8,2.5,0.8,4.2c0,2.1-0.3,3.7-0.9,4.7c-0.6,1.1-1.4,1.9-2.4,2.6c-1,0.6-2,1-3.1,1.2c-1.6,0.3-3.9,0.4-7,0.4L382.5,293
			L382.5,293z"/>
		<polygon class="st6" points="410.3,266 387.2,266 387.2,272.5 382.5,272.5 382.5,255.1 387.2,255.1 387.2,261.6 410.3,261.6 		"/>
		<path class="st6" d="M396.6,253.7c-2.8,0-5.2-0.3-7.1-1c-1.4-0.5-2.7-1.2-3.8-2c-1.1-0.9-2-1.8-2.5-2.8c-0.7-1.4-1.1-2.9-1.1-4.7
			c0-3.2,1.3-5.8,3.8-7.7c2.5-1.9,6.1-2.9,10.6-2.9s8,1,10.5,2.9s3.8,4.5,3.8,7.7s-1.3,5.8-3.8,7.7
			C404.5,252.7,401,253.7,396.6,253.7L396.6,253.7z M396.4,249.2c3.1,0,5.5-0.6,7.1-1.7s2.4-2.6,2.4-4.4s-0.8-3.2-2.4-4.3
			c-1.6-1.1-4-1.7-7.2-1.7s-5.5,0.6-7.1,1.6c-1.6,1.1-2.3,2.6-2.3,4.4s0.8,3.3,2.4,4.4C390.8,248.6,393.2,249.2,396.4,249.2
			L396.4,249.2z"/>
		<path class="st6" d="M400.1,215.1l1.7-4.3c3,0.7,5.3,1.7,6.8,3.3c1.5,1.5,2.2,3.5,2.2,5.8c0,2.9-1.3,5.3-3.8,7.1
			c-2.5,1.9-6,2.8-10.3,2.8c-4.6,0-8.2-0.9-10.8-2.8c-2.6-1.9-3.8-4.3-3.8-7.4c0-2.7,1-4.8,3-6.5c1.2-1,2.9-1.7,5.1-2.2l1.3,4.4
			c-1.4,0.3-2.6,0.8-3.4,1.6s-1.2,1.8-1.2,3c0,1.6,0.7,2.9,2.2,3.9s3.9,1.5,7.2,1.5c3.5,0,6-0.5,7.5-1.5s2.2-2.3,2.2-3.9
			c0-1.2-0.5-2.2-1.4-3C403.6,216.1,402.1,215.5,400.1,215.1L400.1,215.1z"/>
		<path class="st6" d="M410.3,187.4v4.8l-6.3,1.9v8.7l6.3,1.8v4.7l-27.7-8.5v-4.7L410.3,187.4L410.3,187.4z M399.3,195.5l-10.3,3
			l10.3,2.9V195.5L399.3,195.5z"/>
		<path class="st6" d="M410.3,185h-27.7v-9.3c0-2.3,0.3-4,0.8-5.1s1.4-1.9,2.7-2.5c1.3-0.6,2.7-1,4.4-1c2.1,0,3.8,0.5,5.2,1.4
			c1.4,1,2.2,2.4,2.6,4.3c0.7-1,1.5-1.7,2.3-2.4c0.8-0.6,2.3-1.5,4.5-2.5l5.4-2.7v5.3l-6,3.2c-2.2,1.1-3.5,1.9-4.1,2.3
			c-0.6,0.4-0.9,0.9-1.2,1.3c-0.2,0.5-0.3,1.2-0.3,2.2v0.9h11.6L410.3,185L410.3,185z M394.3,180.6v-3.3c0-2.1-0.1-3.4-0.3-4
			c-0.2-0.5-0.6-0.9-1.2-1.2s-1.2-0.4-2.1-0.4s-1.7,0.2-2.3,0.6c-0.6,0.4-0.9,0.9-1.1,1.7c-0.1,0.4-0.1,1.4-0.1,3.2v3.4H394.3
			L394.3,180.6z"/>
		<path class="st6" d="M410.3,163h-27.7v-9.3c0-2.3,0.3-4,0.8-5.1s1.4-1.9,2.7-2.5c1.3-0.6,2.7-1,4.4-1c2.1,0,3.8,0.5,5.2,1.4
			c1.4,1,2.2,2.4,2.6,4.3c0.7-1,1.5-1.7,2.3-2.4c0.8-0.6,2.3-1.5,4.5-2.5l5.4-2.7v5.3l-6,3.2c-2.2,1.1-3.5,1.9-4.1,2.3
			c-0.6,0.4-0.9,0.9-1.2,1.3c-0.2,0.5-0.3,1.2-0.3,2.2v0.9h11.6v4.6H410.3z M394.3,158.6v-3.3c0-2.1-0.1-3.4-0.3-4
			c-0.2-0.5-0.6-0.9-1.2-1.2s-1.2-0.4-2.1-0.4s-1.7,0.2-2.3,0.6c-0.6,0.4-0.9,0.9-1.1,1.7c-0.1,0.4-0.1,1.4-0.1,3.2v3.4H394.3
			L394.3,158.6z"/>
		<path class="st6" d="M396.6,141.9c-2.8,0-5.2-0.3-7.1-1c-1.4-0.5-2.7-1.2-3.8-2c-1.1-0.9-2-1.8-2.5-2.8c-0.7-1.4-1.1-2.9-1.1-4.7
			c0-3.2,1.3-5.8,3.8-7.7s6.1-2.9,10.6-2.9s8,1,10.5,2.9s3.8,4.5,3.8,7.7s-1.3,5.8-3.8,7.7C404.5,140.9,401,141.9,396.6,141.9
			L396.6,141.9z M396.4,137.3c3.1,0,5.5-0.6,7.1-1.7c1.6-1.1,2.4-2.6,2.4-4.4c0-1.8-0.8-3.2-2.4-4.3s-4-1.7-7.2-1.7
			s-5.5,0.6-7.1,1.6c-1.6,1.1-2.3,2.6-2.3,4.4c0,1.8,0.8,3.3,2.4,4.4C390.8,136.8,393.2,137.3,396.4,137.3L396.4,137.3z"/>
		<path class="st11" d="M546.9,384.4H788v75H546.9c-6,0-11.3-5-11.3-11.2v-52.5C535.6,389.4,540.6,384.4,546.9,384.4L546.9,384.4z"
			/>
		<path class="st12" d="M564.8,390.8h216.1v62.3H564.8c-5.4,0-10.1-4.1-10.1-9.3v-43.7C554.7,394.9,559.2,390.8,564.8,390.8
			L564.8,390.8z"/>
		<path class="st3" d="M545.4,390.8l4.7,5.6c-1.1,16.8-1.1,33.2,0,50.5l-4.7,6.3c-0.2,0.2-4.4-6.4-4.6-9.3
			c-0.9-14.5-0.9-29.5,0-43.7C541.1,395.8,545.2,390.5,545.4,390.8L545.4,390.8z"/>
		<path class="st10" d="M797.6,455l-178.9-21v-23l178.9,21 M618.7,411.1l22.2,2.6v23l-22.2-2.6V411.1L618.7,411.1z"/>
		<polygon class="st6" points="596.9,501.5 596.9,473.7 611.9,473.7 611.9,478.4 601.3,478.4 601.3,485 610.4,485 610.4,489.7 
			601.3,489.7 601.3,501.5 		"/>
		<polygon class="st6" points="615.4,501.5 615.4,473.7 619.8,473.7 619.8,501.5 		"/>
		<polygon class="st6" points="624.1,501.5 624.1,474 628.5,474 628.5,496.8 639.5,496.8 639.5,501.5 		"/>
		<path class="st6" d="M641.7,487.8c0-2.8,0.3-5.2,1-7.1c0.5-1.4,1.2-2.7,2-3.8c0.9-1.1,1.8-2,2.8-2.5c1.4-0.7,2.9-1.1,4.7-1.1
			c3.2,0,5.8,1.3,7.7,3.8s2.9,6.1,2.9,10.6s-1,8-2.9,10.5s-4.5,3.8-7.7,3.8s-5.8-1.3-7.7-3.8C642.7,495.6,641.7,492.2,641.7,487.8
			L641.7,487.8z M646.3,487.6c0,3.1,0.6,5.5,1.7,7.1c1.1,1.6,2.6,2.4,4.3,2.4c1.8,0,3.2-0.8,4.3-2.4c1.1-1.6,1.7-4,1.7-7.2
			s-0.5-5.5-1.6-7.1s-2.6-2.3-4.4-2.3c-1.8,0-3.3,0.8-4.4,2.4C646.8,482,646.3,484.4,646.3,487.6L646.3,487.6z"/>
		<path class="st6" d="M666.4,473.7h8.7c1.7,0,3,0.1,3.9,0.3c0.9,0.2,1.6,0.6,2.3,1.1c0.7,0.6,1.2,1.4,1.7,2.3c0.4,1,0.7,2,0.7,3.2
			c0,1.3-0.3,2.5-0.8,3.6c-0.6,1.1-1.3,1.9-2.2,2.4c1.3,0.5,2.4,1.3,3.1,2.5c0.7,1.2,1.1,2.6,1.1,4.2c0,1.3-0.2,2.5-0.7,3.7
			s-1.1,2.1-1.9,2.9c-0.8,0.7-1.8,1.2-3,1.3c-0.7,0.1-2.5,0.2-5.3,0.2h-7.4v-27.7H666.4z M670.8,478.3v6.4h2.9c1.7,0,2.8,0,3.2-0.1
			c0.8-0.1,1.3-0.4,1.8-1c0.4-0.5,0.6-1.3,0.6-2.2c0-0.9-0.2-1.6-0.6-2.1c-0.4-0.5-0.9-0.9-1.7-1c-0.4-0.1-1.7-0.1-3.8-0.1
			L670.8,478.3L670.8,478.3z M670.8,489.4v7.4h4.1c1.6,0,2.6-0.1,3-0.2c0.7-0.2,1.2-0.5,1.6-1.1c0.4-0.6,0.6-1.4,0.6-2.4
			c0-0.8-0.2-1.5-0.5-2.1s-0.8-1-1.4-1.3c-0.6-0.3-1.9-0.4-3.9-0.4L670.8,489.4L670.8,489.4z"/>
		<path class="st6" d="M688.3,473.7h4.4v15c0,2.4,0.1,3.9,0.2,4.6c0.2,1.1,0.6,2,1.3,2.7s1.7,1,2.9,1c1.3,0,2.2-0.3,2.8-1
			c0.6-0.6,1-1.4,1.1-2.4c0.1-0.9,0.2-2.5,0.2-4.7v-15.3h4.4v14.6c0,3.3-0.1,5.7-0.4,7.1c-0.2,1.4-0.7,2.5-1.3,3.5
			c-0.6,0.9-1.5,1.7-2.6,2.3s-2.5,0.8-4.2,0.8c-2.1,0-3.7-0.3-4.7-0.9c-1.1-0.6-1.9-1.4-2.5-2.4s-1-2-1.2-3.1
			c-0.3-1.6-0.4-3.9-0.4-7V473.7L688.3,473.7z"/>
		<path class="st6" d="M709.3,492.4l4.3-0.5c0.3,1.8,0.8,3.2,1.6,4c0.8,0.9,1.8,1.3,3.2,1.3s2.5-0.4,3.2-1.2s1.1-1.7,1.1-2.7
			c0-0.7-0.2-1.2-0.5-1.7s-0.8-0.9-1.6-1.2c-0.5-0.2-1.7-0.6-3.5-1.2c-2.4-0.7-4-1.7-5-2.7c-1.3-1.5-2-3.4-2-5.6
			c0-1.4,0.3-2.7,0.9-4c0.6-1.2,1.5-2.2,2.7-2.8c1.2-0.6,2.6-1,4.3-1c2.7,0,4.8,0.8,6.2,2.3s2.1,3.6,2.2,6.1l-4.4,0.2
			c-0.2-1.4-0.6-2.5-1.2-3.1c-0.6-0.6-1.5-0.9-2.8-0.9s-2.3,0.3-3,1c-0.5,0.4-0.7,1-0.7,1.7s0.2,1.2,0.7,1.7
			c0.6,0.6,1.9,1.2,4.1,1.9c2.1,0.6,3.7,1.3,4.8,2c1,0.7,1.8,1.6,2.4,2.8c0.6,1.2,0.9,2.7,0.9,4.4c0,1.6-0.3,3.1-1,4.5
			s-1.7,2.4-2.9,3.1c-1.3,0.7-2.9,1-4.8,1c-2.8,0-4.9-0.8-6.4-2.4C710.5,497.9,709.6,495.5,709.3,492.4L709.3,492.4z"/>
		<line class="st13" x1="326" y1="310.2" x2="326" y2="496.1"/>
		<line class="st13" x1="216" y1="561.7" x2="304.3" y2="561.7"/>
		<path class="st13" d="M532.1,422.2c-112.2,35.1-184.4,133.4-198.8,265.6"/>
		<path class="st13" d="M462.7,646c1-65.4,40.3-88,74.3-88.5l59.5-0.8"/>
	</g>
</g>
</svg>
