<?xml version="1.0" encoding="utf-8"?>
<!-- Generator: Adobe Illustrator 19.2.0, SVG Export Plug-In . SVG Version: 6.00 Build 0)  -->
<svg version="1.1" id="Livello_1" xmlns="http://www.w3.org/2000/svg" xmlns:xlink="http://www.w3.org/1999/xlink" x="0px" y="0px"
	 viewBox="0 0 875 900" style="enable-background:new 0 0 875 900;" xml:space="preserve">
<style type="text/css">
	.st0{fill:#FFFFFF;}
	.st1{fill:#B9B9B9;}
	.st2{fill:#FFEC00;stroke:#1A171B;stroke-width:1.4518;stroke-miterlimit:2.6131;}
	.st3{fill:#FFFFFF;stroke:#1A171B;stroke-width:1.4518;stroke-miterlimit:2.6131;}
	.st4{fill:none;stroke:#1A171B;stroke-width:1.9357;stroke-miterlimit:2.6131;}
	.st5{fill:#049853;stroke:#1A171B;stroke-width:1.4518;stroke-miterlimit:2.6131;}
	.st6{fill:#3D3D3F;stroke:#1A171B;stroke-width:1.4518;stroke-miterlimit:2.6131;}
	.st7{fill:#1A171B;}
	.st8{fill:#00A6E2;stroke:#1A171B;stroke-width:1.4518;stroke-miterlimit:2.6131;}
	.st9{fill:#E43417;stroke:#1A171B;stroke-width:1.4518;stroke-miterlimit:2.6131;}
	.st10{fill:#049853;}
	.st11{fill:none;stroke:#1A171B;stroke-width:2.4197;stroke-linecap:square;stroke-miterlimit:2.6131;}
	.st12{fill:none;stroke:#1A171B;stroke-width:1.4518;stroke-miterlimit:2.6131;}
	.st13{fill:none;stroke:#1A171B;stroke-width:4.8393;stroke-linecap:square;stroke-miterlimit:2.6131;}
	.st14{fill:none;stroke:#1A171B;stroke-width:1.4518;stroke-linecap:square;stroke-miterlimit:2.6131;}
	
		.st15{fill:none;stroke:#1A171B;stroke-width:4.8393;stroke-linecap:square;stroke-miterlimit:2.6131;stroke-dasharray:24.1967,24.1967;}
</style>
<g>
	<g>
		<polygon class="st0" points="201.9,317.6 2.5,317.5 2.5,594.5 201.9,594.5 201.9,794.9 650.9,794.9 650.9,594.5 872.5,594.5 
			872.5,317.5 650.9,317.5 650.9,105.2 201.9,105.2 		"/>
		<path class="st1" d="M226.2,105.2h400.7l-0.1,205c0,24.2,7.5,31.6,31.7,31.6h213.9v228.6H658.5c-24.2,0-31.7,7.3-31.7,31.5
			l0.1,192.9H226.2L226.1,602c0-24.2-7.8-31.5-32-31.5H2.5V341.8h191.6c24.2,0,32-7.8,32-31.6L226.2,105.2L226.2,105.2z"/>
		<path class="st2" d="M386.2,157.7c1.7,11.5,4.1,27.2,4.3,44c0,13.4,0,26.9,0,40.5c-1.2,17.7-0.7,31.8-5,45.4c-0.7,2.7-4.5,9-9.1,9
			h-34.3c-5.5,0-7-7.1-7.5-9c-3.3-13.6-4.6-27.8-4.6-45.3v-40.8c0-15.9,1.7-31.8,3.9-43.9c0.7-3.4,1.4-9.2,8.6-9.2h34.6
			C386.5,148.5,385.5,152.9,386.2,157.7L386.2,157.7z"/>
		<path class="st3" d="M381.9,239.4l2.3,14.9c-16.3,5.8-30.9,5.3-48.3,0l2.1-14.9C355.4,243.1,363.8,243.5,381.9,239.4L381.9,239.4z
			"/>
		<path class="st3" d="M381,176.5l-3.1,9.2c-12.3-2.3-24.3-2.3-36-0.2l-3.3-9C352.4,174,367,174.3,381,176.5L381,176.5z"/>
		<line class="st4" x1="384.6" y1="191" x2="384.4" y2="233.8"/>
		<line class="st4" x1="335.8" y1="191" x2="335.6" y2="233.8"/>
		<path class="st5" d="M299.3,157.9c1.7,11.5,4.1,27.2,4.3,44c0,13.4,0,26.9,0,40.5c-1.2,17.7-0.7,31.8-5,45.4c-0.7,2.7-4.5,9-9.1,9
			h-34.3c-5.5,0-7-7.1-7.5-9c-3.3-13.6-4.6-27.8-4.6-45.3v-40.8c0-15.9,1.7-31.8,3.9-43.9c0.7-3.4,1.4-9.2,8.6-9.2h34.6
			C299.6,148.7,298.6,153.1,299.3,157.9L299.3,157.9z"/>
		<path class="st3" d="M295,239.6l2.3,14.9c-16.3,5.8-30.9,5.3-48.3,0l2.1-14.9C268.5,243.3,276.9,243.7,295,239.6L295,239.6z"/>
		<path class="st3" d="M294.1,176.6l-3.1,9.2c-12.3-2.3-24.3-2.3-36-0.2l-3.3-9C265.5,174.2,280.1,174.5,294.1,176.6L294.1,176.6z"
			/>
		<line class="st4" x1="297.7" y1="191.1" x2="297.6" y2="233.9"/>
		<line class="st4" x1="248.9" y1="191.1" x2="248.7" y2="233.9"/>
		<polygon class="st6" points="273.5,476.6 281,443.9 266.1,443.9 		"/>
		<polygon class="st6" points="580.2,210.4 565,240.2 579.4,243.9 		"/>
		<polygon class="st6" points="721.3,513 688.6,520.5 688.6,505.6 		"/>
		<polygon class="st6" points="308.5,679.6 314,646.5 327.7,652.2 		"/>
		<path class="st7" d="M786.7,488.7h-11l-4.4-11.4h-20.1l-4.1,11.4h-10.8l19.6-50.2h10.7L786.7,488.7L786.7,488.7z M768,468.9
			l-6.9-18.6l-6.8,18.6H768L768,468.9z"/>
		<polygon class="st7" points="153.3,243.9 153.3,193.7 190.5,193.7 190.5,202.2 163.4,202.2 163.4,213.3 188.6,213.3 188.6,221.8 
			163.4,221.8 163.4,235.5 191.5,235.5 191.5,243.9 		"/>
		<path class="st7" d="M101.1,425.7h18.5c4.2,0,7.4,0.3,9.6,1c2.9,0.9,5.5,2.4,7.6,4.6s3.7,4.9,4.8,8.1s1.6,7.2,1.6,11.9
			c0,4.1-0.5,7.7-1.5,10.7c-1.3,3.6-3,6.6-5.4,8.9c-1.8,1.7-4.1,3.1-7.1,4c-2.2,0.7-5.2,1.1-9,1.1h-19.1L101.1,425.7L101.1,425.7z
			 M111.3,434.2v33.3h7.6c2.8,0,4.9-0.2,6.1-0.5c1.6-0.4,3-1.1,4.1-2.1s2-2.6,2.7-4.9c0.7-2.2,1-5.3,1-9.2c0-3.9-0.4-6.9-1-8.9
			c-0.7-2.1-1.6-3.7-2.9-4.9c-1.2-1.2-2.8-2-4.7-2.4c-1.4-0.3-4.2-0.5-8.3-0.5h-4.6V434.2z"/>
		<path class="st8" d="M820.2,367.5c-11.5-1.7-27.2-4.1-44-4.3c-13.4,0-26.9,0-40.5,0c-17.7,1.2-31.8,0.7-45.4,5
			c-2.7,0.7-9,4.5-9,9.1v34.3c0,5.5,7.1,7,9,7.5c13.6,3.3,27.8,4.6,45.3,4.6h40.8c15.9,0,31.8-1.7,43.9-3.9c3.4-0.7,9.2-1.4,9.2-8.6
			v-34.6C829.4,367.1,825,368.1,820.2,367.5L820.2,367.5z"/>
		<path class="st3" d="M738.5,371.7l-14.9-2.3c-5.8,16.3-5.3,30.9,0,48.3l14.9-2.1C734.8,398.2,734.4,389.9,738.5,371.7L738.5,371.7
			z"/>
		<path class="st3" d="M801.5,372.6l-9.2,3.1c2.3,12.3,2.3,24.3,0.2,36l9,3.3C803.9,401.2,803.6,386.6,801.5,372.6L801.5,372.6z"/>
		<line class="st4" x1="787" y1="369" x2="744.2" y2="369.2"/>
		<line class="st4" x1="787" y1="417.8" x2="744.2" y2="418"/>
		<path class="st9" d="M55.1,494.2c11.5-1.7,27.2-4.1,44-4.3c13.4,0,26.9,0,40.5,0c17.7,1.2,31.8,0.7,45.4,5c2.7,0.7,9,4.5,9,9.1
			v34.3c0,5.5-7.1,7-9,7.5c-13.6,3.3-27.8,4.6-45.3,4.6H98.8c-15.9,0-31.8-1.7-43.9-3.9c-3.4-0.7-9.2-1.4-9.2-8.6v-34.6
			C45.9,493.8,50.3,494.8,55.1,494.2L55.1,494.2z"/>
		<path class="st3" d="M136.8,498.4l14.9-2.3c5.8,16.4,5.3,30.9,0,48.3l-14.9-2.1C140.5,524.9,140.8,516.6,136.8,498.4L136.8,498.4z
			"/>
		<path class="st3" d="M73.8,499.3l9.2,3.1c-2.3,12.3-2.3,24.3-0.2,36l-9,3.3C71.3,527.9,71.7,513.3,73.8,499.3L73.8,499.3z"/>
		<line class="st4" x1="88.3" y1="495.7" x2="131.1" y2="495.9"/>
		<line class="st4" x1="88.3" y1="544.5" x2="131.1" y2="544.7"/>
		<path class="st10" d="M445.5,794.8h-38.2V614.2c0-10.7,8.6-19.6,19-19.6c10.5,0,19.2,8.9,19.2,19.6V794.8L445.5,794.8z"/>
		<path class="st11" d="M445.5,794.8V614.2c0-10.7-8.7-19.6-19.2-19.6c-10.4,0-19,8.9-19,19.6v180.6V614.2c0-10.7,8.6-19.6,19-19.6
			c10.5,0,19.2,8.9,19.2,19.6V794.8L445.5,794.8z"/>
		<path class="st12" d="M439.6,794.8v-174c-0.6-12.2-6.2-18.3-13.2-18.3c-7.3,0-13,6.2-13,18.3v174v-174c0-12.2,5.8-18.3,13-18.3
			c7,0,12.7,6.2,13.2,18.3V794.8L439.6,794.8z"/>
		<path class="st13" d="M201.9,105.2v212.4L2.5,317.5 M2.5,594.5h199.4v200.3 M650.9,794.9V594.5h221.6 M872.5,317.5H650.9V105.2"/>
		<path class="st14" d="M626.7,105.2v205c0,24.2,7.5,31.6,31.7,31.6h213.9 M872.4,570.4H658.5c-24.2,0-31.7,7.3-31.7,31.5l0.1,192.9
			 M226.2,794.9L226.1,602c0-24.2-7.8-31.5-32-31.5H2.5 M2.5,341.8h191.6c24.2,0,32-7.8,32-31.6l0.1-205"/>
		<line class="st15" x1="273" y1="299.6" x2="273" y2="442.1"/>
		<path class="st15" d="M360.9,300.8c15.4,139.8,148,210.8,324.3,212.4"/>
		<path class="st15" d="M676.2,394.4c-154,28.1-278.1,115.2-355,254.3"/>
		<path class="st15" d="M197.8,521.8C395.2,509,537.3,397.3,571.6,244.9"/>
		<path class="st7" d="M460.4,228.7l9.9-1c0.6,3.3,1.8,5.8,3.6,7.3s4.3,2.3,7.3,2.3c3.3,0,5.7-0.7,7.4-2.1s2.5-3,2.5-4.8
			c0-1.2-0.3-2.2-1-3s-1.9-1.6-3.6-2.2c-1.2-0.4-3.9-1.1-8.1-2.2c-5.4-1.3-9.3-3-11.4-5c-3.1-2.8-4.6-6.1-4.6-10.1
			c0-2.6,0.7-4.9,2.2-7.2c1.5-2.2,3.5-3.9,6.3-5.1c2.7-1.2,6-1.7,9.9-1.7c6.3,0,11,1.4,14.2,4.1c3.2,2.8,4.9,6.5,5,11.1l-10.1,0.4
			c-0.4-2.6-1.4-4.4-2.8-5.6c-1.4-1.1-3.6-1.7-6.4-1.7c-2.9,0-5.3,0.6-6.9,1.8c-1.1,0.8-1.6,1.8-1.6,3.1c0,1.2,0.5,2.2,1.5,3.1
			c1.3,1.1,4.4,2.2,9.3,3.4c4.9,1.2,8.6,2.4,10.9,3.6c2.4,1.2,4.2,2.9,5.6,5.1c1.3,2.2,2,4.8,2,8c0,2.9-0.8,5.6-2.4,8.1
			c-1.6,2.5-3.9,4.4-6.8,5.6c-2.9,1.2-6.6,1.8-10.9,1.8c-6.4,0-11.2-1.5-14.6-4.4C463.1,238.6,461,234.4,460.4,228.7L460.4,228.7z"
			/>
		<path class="st10" d="M445.5,105.1h-38.2V298c0,10.7,8.6,19.6,19,19.6c10.5,0,19.2-8.9,19.2-19.6V105.1L445.5,105.1z"/>
		<path class="st11" d="M445.5,105.1V298c0,10.7-8.7,19.6-19.2,19.6c-10.4,0-19-8.9-19-19.6V105.1V298c0,10.7,8.6,19.6,19,19.6
			c10.5,0,19.2-8.9,19.2-19.6V105.1L445.5,105.1z"/>
		<path class="st12" d="M439.6,105.1v186.2c-0.6,12.2-6.2,18.3-13.2,18.3c-7.3,0-13-6.2-13-18.3V105.1v186.2
			c0,12.2,5.8,18.3,13,18.3c7,0,12.7-6.2,13.2-18.3V105.1L439.6,105.1z"/>
	</g>
</g>
</svg>
