<?xml version="1.0" encoding="utf-8"?>
<!-- Generator: Adobe Illustrator 19.2.0, SVG Export Plug-In . SVG Version: 6.00 Build 0)  -->
<svg version="1.1" id="Livello_1" xmlns="http://www.w3.org/2000/svg" xmlns:xlink="http://www.w3.org/1999/xlink" x="0px" y="0px"
	 viewBox="0 0 875 900" style="enable-background:new 0 0 875 900;" xml:space="preserve">
<style type="text/css">
	.st0{fill:#FFFFFF;}
	.st1{fill:#B9B9B9;}
	.st2{fill:#FFEC00;stroke:#1A171B;stroke-width:1.4518;stroke-miterlimit:2.6131;}
	.st3{fill:#FFFFFF;stroke:#1A171B;stroke-width:1.4518;stroke-miterlimit:2.6131;}
	.st4{fill:none;stroke:#1A171B;stroke-width:1.9357;stroke-miterlimit:2.6131;}
	.st5{fill:#3D3D3F;stroke:#1A171B;stroke-width:1.4518;stroke-miterlimit:2.6131;}
	.st6{fill:#1A171B;}
	.st7{fill:#00A6E2;stroke:#1A171B;stroke-width:1.4518;stroke-miterlimit:2.6131;}
	.st8{fill:#E43417;stroke:#1A171B;stroke-width:1.4518;stroke-linecap:square;stroke-miterlimit:2.6131;}
	.st9{fill:#FFFFFF;stroke:#1A171B;stroke-width:1.4518;stroke-linecap:square;stroke-miterlimit:2.6131;}
	.st10{fill:none;stroke:#1A171B;stroke-width:4.8393;stroke-linecap:square;stroke-miterlimit:2.6131;}
	.st11{fill:none;stroke:#1A171B;stroke-width:1.4518;stroke-linecap:square;stroke-miterlimit:2.6131;}
	.st12{fill:none;stroke:#1A171B;stroke-width:1.4518;stroke-miterlimit:2.6131;}
	.st13{fill:none;stroke:#FFFFFF;stroke-width:4.8393;stroke-linecap:square;stroke-miterlimit:2.6131;}
	
		.st14{fill:none;stroke:#1A171B;stroke-width:4.8393;stroke-linecap:square;stroke-miterlimit:2.6131;stroke-dasharray:24.1967,24.1967;}
</style>
<g>
	<g>
		<path class="st0" d="M872.5,622.3l-155.1,155L581.6,641.9H447.5L328.9,760.5H2.5l245.2-245.3c6.7-8.7,6.1-17.9-0.6-26.2
			L46.7,288.7l166-166l212,212c15.8,13.8,32.8,8.5,38.9-11.2l61-198.5H766l-74.3,244.2l28.8,101.4L872.5,622.3L872.5,622.3z"/>
		<path class="st1" d="M855.9,638.9l-122,122l-123-122.8c-16.7-16.9-22.9-19.6-46.4-19.6h-97.4c-25.6,0.2-29.7,1-49.2,19.9
			l-122,122.1h-261l226.8-226.8c19.1-20.4,20.2-42,0.1-63L63.1,272.3L196,139.2l213,212.7c25.1,24.7,66.3,15.1,77.6-22.1l62.3-204.6
			h192.6l-66.3,218.6c-6.5,21.5-6.9,27.3-1.7,47.2c6.1,21.6,12.2,43.1,18.4,64.8c6.9,23.7,9.7,29.6,26.3,45.9L855.9,638.9
			L855.9,638.9z"/>
		<path class="st2" d="M267.4,689.6c6.8-9.2,16.2-21.8,27.8-33.6c9.4-9.4,18.8-18.7,28.3-28.2c13.2-11.5,22.7-21.7,35.2-28.2
			c2.3-1.4,9.4-3.2,12.6,0.1l23.9,23.9c3.8,3.8,0,9.8-1.1,11.5c-7.2,11.8-16.2,22.6-28.4,34.7l-28.5,28.4
			c-11.1,11.1-23.4,21-33.4,27.8c-2.8,1.9-7.4,5.4-12.4,0.4l-24.1-24.2C260.7,695.8,264.5,693.4,267.4,689.6L267.4,689.6z"/>
		<path class="st3" d="M327.4,635.7l8.8-12c15.5,7.4,25.2,17.9,33.6,33.8l-11.9,8.8C348.4,651.7,342.9,645.6,327.4,635.7
			L327.4,635.7z"/>
		<path class="st3" d="M284,680.2l8.6-4.2c7,10.2,15.3,18.6,24.9,25.3l-4,8.6C302.2,701.9,292.3,691.5,284,680.2L284,680.2z"/>
		<line class="st4" x1="291.7" y1="667.6" x2="321.7" y2="637.9"/>
		<line class="st4" x1="325.7" y1="701.7" x2="355.7" y2="672"/>
		<polygon class="st5" points="659.7,620 644.6,591.6 633.8,600.9 		"/>
		<polygon class="st5" points="671.5,664.9 656.5,636.5 645.7,645.8 		"/>
		<polygon class="st5" points="208.8,640.4 236.1,623.5 226.2,613.3 		"/>
		<path class="st6" d="M308.5,301.6h-10.9l-4.3-11.3h-19.8l-4.1,11.3h-10.6l19.3-49.5h10.6L308.5,301.6L308.5,301.6z M290.1,282
			l-6.8-18.4l-6.8,18.4H290.1L290.1,282z"/>
		<polygon class="st6" points="721.8,691.4 721.8,642.2 731.8,642.2 731.8,683 756.7,683 756.7,691.4 		"/>
		<polygon class="st6" points="208.8,728.4 208.8,678.8 218.8,678.8 218.8,698.3 238.4,698.3 238.4,678.8 248.4,678.8 248.4,728.4 
			238.4,728.4 238.4,706.7 218.8,706.7 218.8,728.4 		"/>
		<polygon class="st6" points="624.8,330.7 624.8,281.1 658.8,281.1 658.8,289.5 634.9,289.5 634.9,301.2 655.5,301.2 655.5,309.6 
			634.9,309.6 634.9,330.7 		"/>
		<path class="st7" d="M768.1,651.7c-9.2-6.8-21.9-16-33.8-27.5c-9.4-9.3-18.8-18.6-28.4-28.1c-11.6-13.1-21.8-22.6-28.4-35
			c-1.4-2.3-3.2-9.4,0-12.6l23.8-24c3.8-3.8,9.8,0,11.6,1c11.8,7.2,22.7,16,34.9,28.2l28.6,28.3c11.2,11,21.1,23.3,28,33.2
			c1.9,2.8,5.5,7.3,0.5,12.4l-24,24.3C774.3,658.3,771.9,654.5,768.1,651.7L768.1,651.7z"/>
		<path class="st3" d="M713.8,592l-12-8.7c7.3-15.5,17.7-25.3,33.5-33.9l8.9,11.8C729.6,570.9,723.5,576.5,713.8,592L713.8,592z"/>
		<path class="st3" d="M758.5,635.1l-4.3-8.5c10.2-7,18.5-15.5,25.1-25.1l8.6,4C780.1,616.7,769.8,626.7,758.5,635.1L758.5,635.1z"
			/>
		<line class="st4" x1="745.9" y1="627.5" x2="716" y2="597.8"/>
		<line class="st4" x1="779.7" y1="593.3" x2="749.9" y2="563.5"/>
		<polygon class="st8" points="117.6,296.3 124.7,303.4 181.1,247 174,239.9 		"/>
		<path class="st8" d="M297.5,353l-22.6-22.6c-0.9-0.9-2.6-0.8-3.7,0.4c-1.1,1.1-1,3.1-0.4,3.7l24,24
			C294.9,358.6,299.1,354.7,297.5,353L297.5,353z"/>
		<path class="st8" d="M230.9,419.5L208.4,397c-0.9-0.9-0.8-2.6,0.4-3.7c1.1-1.1,3.1-1,3.7-0.4l24,24
			C236.6,416.9,232.6,421.2,230.9,419.5L230.9,419.5z"/>
		<path class="st8" d="M252.7,437.2l62.4-62.4l2.1,2.1c3.4,3.4,3.4,8.9,0,12.3l-50,50c-3.4,3.4-8.9,3.4-12.3,0L252.7,437.2
			L252.7,437.2z"/>
		<path class="st8" d="M254.9,435.3l-36.1-36.1l58.3-58.3l36.1,36.1c2.7,2.7,2.9,7.4,0,10.3l-47.9,47.9
			C262.4,438.2,257.8,438.2,254.9,435.3L254.9,435.3z"/>
		<path class="st8" d="M247.6,420.4l-18.3-18.3c-1.4-1.4-0.8-4.2,1.4-6.4l42.9-42.9c2.2-2.2,5.1-2.8,6.5-1.4l18.3,18.3
			c1.4,1.4,0.5,4.2-1.4,6.5c-13.1,15.6-27.5,29.8-42.9,42.9C251.7,421.1,249,421.8,247.6,420.4L247.6,420.4z"/>
		<path class="st9" d="M256.5,432c-0.1-1.4-1.8-7.9-1.1-8.5c16.2-12.2,34-29.8,46.6-46.6c0.2-0.3,6.6,1.7,7.9,1.7
			c1.6,0.1,1.1,3.8-0.2,5.4c-14.6,17.1-30.7,33.1-47.7,47.7C260.2,433.3,256.6,433.9,256.5,432L256.5,432z"/>
		<path class="st8" d="M214,269.5L191.4,247c-0.9-0.9-2.6-0.8-3.7,0.4c-1.1,1.1-0.4,3.7-0.4,3.7l24,24
			C211.3,275.1,215.7,271.2,214,269.5L214,269.5z"/>
		<path class="st8" d="M147.5,336.1l-22.6-22.6c-0.9-0.9-0.8-2.6,0.4-3.7c1.1-1.1,3.7-0.4,3.7-0.4l24,24
			C153,333.4,149.1,337.7,147.5,336.1L147.5,336.1z"/>
		<polygon class="st8" points="216.9,401.4 116.8,301.3 179.1,238.9 279.2,339 		"/>
		<polygon class="st8" points="216.4,392.6 125.5,301.8 179.7,247.7 270.5,338.5 		"/>
		<polygon class="st8" points="227.1,381.9 136.2,291.1 169,258.3 259.9,349.1 		"/>
		<polygon class="st8" points="238,371 147.2,280.2 158.1,269.2 248.9,360.1 		"/>
		<path class="st10" d="M212.7,122.7l212,212c15.8,13.8,32.8,8.5,38.9-11.2l61-198.5 M765.9,125l-74.3,244.2l28.9,101.4l152,151.6
			 M717.4,777.3L581.6,641.9H447.5L328.9,760.5 M2.5,760.5l245.2-245.3c6.7-8.7,6.1-17.9-0.6-26.2L46.7,288.7"/>
		<path class="st11" d="M196,139.2l213,212.7c25.1,24.7,66.3,15.1,77.6-22.1l62.3-204.6 M741.5,125.1l-66.3,218.6
			c-6.5,21.5-6.9,27.3-1.7,47.2c6.1,21.6,12.2,43.1,18.4,64.8c6.9,23.7,9.7,29.6,26.3,45.9L856,639 M733.9,760.9l-123-122.8
			c-16.7-16.9-22.9-19.6-46.4-19.6h-97.4c-25.6,0.2-29.7,1-49.2,19.9l-122,122.1 M34.9,760.6l226.8-226.8c19.1-20.4,20.2-42,0.1-63
			L63.1,272.3"/>
		<path class="st7" d="M488.1,377.3l72-232.5l83.1,25.7l-72,232.5c-1.8,5.8-8.9,9.1-15.8,7l-58.2-18
			C490.3,389.8,486.2,383.3,488.1,377.3L488.1,377.3z"/>
		<path class="st12" d="M500.5,362.2l64.3-207.6l69.1,21.4l-64.3,207.6c-1.6,5.2-7.6,8.3-13.4,6.5l-48.4-15
			C502.1,373.3,498.8,367.5,500.5,362.2L500.5,362.2z"/>
		<path class="st3" d="M494.7,380.8l7.6-2.7c18.3,6.8,36.5,12.5,55.9,17.3l5.6,6.7c0.2,0.3-8.4,2-11.7,1.2
			c-16.4-4.2-32.9-9.3-48.4-15C499,386.7,494.4,381,494.7,380.8L494.7,380.8z"/>
		<path class="st0" d="M554.2,348.6l-3.2,10.5l7.5,5.8l-1.7,5.6l-33.6-26.7l1.9-6l39.6,7.6l-1.6,5.1L554.2,348.6L554.2,348.6z
			 M547.6,347.3l-15.9-3.2l13.4,11.1L547.6,347.3L547.6,347.3z"/>
		<path class="st0" d="M529,324.5l1.7-5.4l19.8,9.4l4.9,2.3c0.4,0.2,0.8,0.3,1.2,0.5c1.5,0.5,2.9,0.5,4.1,0c1.2-0.5,2.1-1.4,2.5-2.9
			c0.4-1.3,0.4-2.5-0.1-3.6c-0.4-1.1-1.3-2.1-2.6-3s-3.5-2.1-6.7-3.6l-20-9.5l1.7-5.4l20,9.5c4.2,2,7.3,3.8,9.4,5.3
			c2.1,1.5,3.6,3.4,4.5,5.5s1,4.5,0.2,7c-0.9,3.1-2.8,5.1-5.4,6c-2.7,0.9-5.7,0.9-9.2-0.2c-0.7-0.2-1.5-0.5-2.3-0.8
			c-0.6-0.2-2.1-0.9-4.5-2.1L529,324.5L529,324.5z"/>
		<polygon class="st0" points="577.3,303.8 575.6,309.2 545.2,294.7 542.8,302.5 536.7,299.6 543.1,278.8 549.2,281.7 546.9,289.3 
					"/>
		<path class="st0" d="M566,287.1c-2.3-0.7-4.6-1.7-6.9-2.9c-3.2-1.6-5.8-3.5-7.9-5.5c-2.1-2-3.5-4.2-4.4-6.6s-0.9-4.7-0.1-7.2
			c1-3.3,3.3-5.4,6.9-6.5c3.6-1.1,7.8-0.9,12.6,0.6c4,1.3,7.7,3.1,11.1,5.6c3.4,2.5,5.7,5.1,7.1,8c1.3,2.9,1.6,5.7,0.7,8.6
			c-0.8,2.5-2.2,4.3-4.3,5.4c-2.1,1.2-4.5,1.7-7.1,1.7C571,288.2,568.5,287.8,566,287.1L566,287.1z M567.5,281.6
			c2.6,0.8,5,0.9,7.1,0.4c2.1-0.6,3.5-1.7,4-3.5c0.5-1.5,0.2-3.1-0.8-4.9s-2.8-3.5-5.3-5.3c-2.6-1.8-5.2-3.1-7.9-3.9
			c-3-0.9-5.5-1.1-7.6-0.5s-3.4,1.7-3.9,3.5c-0.8,2.6,0.3,5.4,3.4,8.1C559.6,278.3,563.2,280.3,567.5,281.6L567.5,281.6z"/>
		<path class="st0" d="M589.4,264.8l-36.5-17.4l2.8-9c0.6-2,1.1-3.3,1.5-4c0.7-1.2,1.5-2.1,2.6-2.8c1.1-0.7,2.3-1,3.8-1.1
			c1.4-0.1,3,0.2,4.5,0.6c2.1,0.7,3.8,1.6,5.1,2.9s2.1,2.9,2.4,4.9c1-1.2,2.2-1.9,3.9-2.3c1.6-0.3,3.3-0.2,5,0.3
			c2.3,0.7,4.3,1.8,6.1,3.4c1.8,1.5,2.9,3.2,3.3,5.1c0.4,1.9,0.2,4.2-0.6,6.9L589.4,264.8L589.4,264.8z M569.2,249l1.3-4.1
			c0.6-1.9,0.8-3.3,0.7-4.2c-0.1-0.9-0.6-1.7-1.3-2.4c-0.7-0.7-1.6-1.2-2.6-1.5s-1.8-0.4-2.6-0.2c-0.7,0.2-1.3,0.6-1.8,1.3
			c-0.2,0.4-0.6,1.3-1,2.8l-1.3,4.2L569.2,249L569.2,249z M585.2,256.6l1.6-5.2c0.7-2.2,0.9-3.7,0.7-4.6s-0.7-1.7-1.5-2.4
			c-0.8-0.7-1.7-1.3-2.8-1.6c-1.3-0.4-2.4-0.4-3.4,0s-1.8,1.3-2.2,2.9l-2,6.5L585.2,256.6L585.2,256.6z"/>
		<path class="st0" d="M561.1,220.8l1.7-5.4l19.8,9.4l4.9,2.3c0.4,0.2,0.8,0.3,1.2,0.5c1.5,0.5,2.9,0.5,4.1,0
			c1.2-0.5,2.1-1.4,2.5-2.9c0.4-1.3,0.4-2.5-0.1-3.6c-0.4-1.1-1.3-2.1-2.6-3s-3.5-2.1-6.7-3.6l-20-9.5l1.7-5.4l20,9.5
			c4.2,2,7.3,3.8,9.4,5.3c2.1,1.5,3.6,3.4,4.5,5.5s1,4.5,0.2,7c-1,3.1-2.8,5.1-5.5,6s-5.7,0.9-9.2-0.2c-0.7-0.2-1.5-0.5-2.3-0.8
			c-0.5-0.2-2.1-0.9-4.5-2.1L561.1,220.8L561.1,220.8z"/>
		<path class="st0" d="M593.7,206.9l1.2-5.3c2.4,0.7,4.1,0.9,5.1,0.7c1.6-0.4,2.7-1.6,3.4-3.8c0.5-1.8,0.5-3.2-0.2-4.3
			s-1.7-1.8-3-2.2c-1.1-0.4-2.2-0.3-3.2,0.1c-0.7,0.3-2,1.2-3.9,2.9c-1.9,1.6-3.5,2.8-4.6,3.5c-1.2,0.7-2.5,1.1-4,1.2
			c-1.5,0.1-3.2-0.1-5.1-0.7c-3.2-1-5.6-2.6-7.3-4.9c-1.6-2.3-2-4.9-1-8s2.8-5.2,5.4-6.2c2.6-1,5.7-1.1,9.3-0.2l-1.3,5.3
			c-1.9-0.4-3.4-0.4-4.6,0.1c-1.2,0.5-2.1,1.5-2.5,3c-0.5,1.5-0.4,2.7,0.2,3.6c0.6,0.9,1.4,1.5,2.6,1.9c1.1,0.3,2.1,0.3,3,0
			c0.9-0.4,2.3-1.3,4.2-3c2.8-2.5,5-3.9,6.4-4.4c2.1-0.7,4.5-0.6,7.3,0.2c3.4,1,6,2.9,7.8,5.4c1.8,2.6,2.2,5.5,1.2,8.8
			c-0.7,2.3-1.9,4.1-3.5,5.4c-1.6,1.3-3.5,2-5.7,2.1C598.6,208.1,596.2,207.7,593.7,206.9L593.7,206.9z"/>
		<line class="st13" x1="571.5" y1="152.3" x2="629.9" y2="170.4"/>
		<path class="st14" d="M385.5,608.7c52.8-36.2,184.5-52.9,264.3,31.2"/>
		<path class="st14" d="M297.4,419.9c108.8,106.8,204.2,30.9,339.9,174.6"/>
		<path class="st14" d="M686.5,535c-123.4-53.6-319-56.4-453.3,81.6c124.5-124.7,227.9-105.5,290.1-208.3"/>
	</g>
</g>
</svg>
