<?xml version="1.0" encoding="utf-8"?>
<!-- Generator: Adobe Illustrator 19.2.0, SVG Export Plug-In . SVG Version: 6.00 Build 0)  -->
<svg version="1.1" id="Livello_1" xmlns="http://www.w3.org/2000/svg" xmlns:xlink="http://www.w3.org/1999/xlink" x="0px" y="0px"
	 viewBox="0 0 875 900" style="enable-background:new 0 0 875 900;" xml:space="preserve">
<style type="text/css">
	.st0{fill:#FFFFFF;}
	.st1{fill:#B9B9B9;}
	.st2{fill:#049853;stroke:#1A171B;stroke-width:1.3916;stroke-miterlimit:2.6131;}
	.st3{fill:#FFFFFF;stroke:#1A171B;stroke-width:1.3916;stroke-miterlimit:2.6131;}
	.st4{fill:none;stroke:#1A171B;stroke-width:1.8554;stroke-miterlimit:2.6131;}
	.st5{fill:#3D3D3F;stroke:#1A171B;stroke-width:1.3916;stroke-miterlimit:2.6131;}
	.st6{fill:#1A171B;}
	.st7{fill:#00A6E2;stroke:#1A171B;stroke-width:1.3916;stroke-miterlimit:2.6131;}
	.st8{fill:#E43417;stroke:#1A171B;stroke-width:1.3916;stroke-miterlimit:2.6131;}
	.st9{fill:#FFFFFF;stroke:#1A171B;stroke-width:1.3916;stroke-linecap:square;stroke-miterlimit:2.6131;}
	.st10{fill:#3D3D3F;stroke:#1A171B;stroke-width:1.3916;stroke-linecap:square;stroke-miterlimit:2.6131;}
	.st11{fill:none;stroke:#1A171B;stroke-width:1.3916;stroke-linecap:square;stroke-miterlimit:2.6131;}
	.st12{fill:none;stroke:#1A171B;stroke-width:4.6386;stroke-linecap:square;stroke-miterlimit:2.6131;}
	.st13{fill:#E1001A;}
	.st14{fill:#FFFFFF;stroke:#E1001A;stroke-width:4.6386;stroke-miterlimit:2.6131;}
	
		.st15{fill:none;stroke:#1A171B;stroke-width:4.6386;stroke-linecap:square;stroke-miterlimit:2.6131;stroke-dasharray:23.1931,23.1931;}
</style>
<g>
	<g>
		<polygon class="st0" points="317.4,90 631.9,90 631.9,284.2 869.5,284.2 869.5,602 631.8,602 631.8,809.9 381.9,809.9 381.9,602 
			6.5,602 6.5,284.2 317.4,284.2 		"/>
		<path class="st1" d="M608.3,611.1l0.1,198.8H405.2V611.1c0-23.6-9.4-32.6-32.7-32.6H6.6V307.7l301.9,0.1
			c23.4,0,33.1-9.4,33.1-32.9V90.1h266.7v184.8c0,23.6,9,32.9,32.5,32.9h228.6v270.6H640.7C617.3,578.4,608.3,587.5,608.3,611.1
			L608.3,611.1z"/>
		<path class="st2" d="M475,133.6c1.7,11.5,4.1,27.2,4.3,43.9c0,13.4,0,26.8,0,40.4c-1.2,17.6-0.7,31.7-5,45.3c-0.7,2.6-4.4,9-9.1,9
			H431c-5.5,0-7-7.1-7.5-9c-3.2-13.6-4.6-27.7-4.6-45.1v-40.7c0-15.9,1.7-31.7,3.9-43.7c0.7-3.4,1.4-9.2,8.5-9.2h34.5
			C475.3,124.4,474.3,128.8,475,133.6L475,133.6z"/>
		<path class="st3" d="M470.7,215l2.3,14.8c-16.3,5.8-30.8,5.3-48.2,0l2.1-14.8C444.3,218.8,452.6,219.1,470.7,215L470.7,215z"/>
		<path class="st3" d="M469.8,152.3l-3.1,9.2c-12.3-2.3-24.3-2.3-35.9-0.2l-3.2-9C441.3,149.8,455.8,150.2,469.8,152.3L469.8,152.3z
			"/>
		<line class="st4" x1="473.4" y1="166.7" x2="473.2" y2="209.4"/>
		<line class="st4" x1="424.7" y1="166.7" x2="424.6" y2="209.4"/>
		<polygon class="st5" points="173.3,350.8 205,358 205,343.6 		"/>
		<polygon class="st5" points="750.8,521.8 719.1,514.6 719.1,529 		"/>
		<polygon class="st5" points="552.9,221.6 545.7,253.3 560.1,253.3 		"/>
		<polygon class="st5" points="308.8,376 339.8,385.4 340.9,371.1 		"/>
		<path class="st6" d="M359,219.6v-50.1h21.3c5.4,0,9.2,0.5,11.7,1.4c2.4,0.9,4.4,2.5,5.8,4.8c1.5,2.3,2.2,4.9,2.2,7.9
			c0,3.8-1.1,6.9-3.3,9.3c-2.2,2.4-5.5,4-9.9,4.6c2.2,1.3,4,2.7,5.4,4.2s3.3,4.2,5.8,8.1l6.1,9.8H392l-7.3-10.9
			c-2.6-3.9-4.4-6.3-5.3-7.4c-1-1-2-1.7-3-2.1c-1.1-0.4-2.8-0.6-5.1-0.6h-2v20.9H359V219.6z M369.1,190.7h7.5c4.9,0,7.9-0.2,9.1-0.6
			c1.2-0.4,2.1-1.1,2.8-2.1c0.7-1,1-2.3,1-3.8c0-1.7-0.5-3-1.4-4.1c-0.9-1-2.2-1.7-3.8-2c-0.8-0.1-3.3-0.2-7.4-0.2H369L369.1,190.7
			L369.1,190.7z"/>
		<polygon class="st6" points="451,727.7 451,677.6 461.2,677.6 461.2,697.3 481,697.3 481,677.6 491.1,677.6 491.1,727.7 
			481,727.7 481,705.8 461.2,705.8 461.2,727.7 		"/>
		<path class="st6" d="M225.2,436.5l9.8,3.1c-1.5,5.5-4,9.5-7.5,12.2c-3.5,2.6-7.9,4-13.3,4c-6.6,0-12.1-2.3-16.4-6.8
			c-4.3-4.5-6.4-10.8-6.4-18.6c0-8.3,2.2-14.8,6.5-19.4s10-6.9,17-6.9c6.1,0,11.1,1.8,14.9,5.4c2.3,2.1,4,5.2,5.1,9.2l-10,2.4
			c-0.6-2.6-1.8-4.7-3.7-6.2c-1.9-1.5-4.2-2.2-6.8-2.2c-3.7,0-6.7,1.3-9,4s-3.5,7-3.5,12.9c0,6.3,1.1,10.8,3.4,13.5
			c2.3,2.7,5.2,4,8.9,4c2.7,0,5-0.9,6.9-2.6C223,442.9,224.3,440.2,225.2,436.5L225.2,436.5z"/>
		<path class="st7" d="M527.6,764.4c-1.7-11.5-4.1-27.2-4.3-43.9c0-13.4,0-26.8,0-40.4c1.2-17.6,0.7-31.7,5-45.3
			c0.7-2.6,4.4-9,9.1-9h34.1c5.5,0,7,7.1,7.5,9c3.2,13.6,4.6,27.7,4.6,45.1v40.7c0,15.9-1.7,31.7-3.9,43.7c-0.7,3.4-1.4,9.2-8.5,9.2
			h-34.5C527.3,773.6,528.3,769.2,527.6,764.4L527.6,764.4z"/>
		<path class="st3" d="M531.9,683l-2.3-14.8c16.3-5.8,30.8-5.3,48.2,0l-2.1,14.8C558.3,679.3,549.9,678.9,531.9,683L531.9,683z"/>
		<path class="st3" d="M532.7,745.8l3.1-9.2c12.3,2.3,24.3,2.3,35.9,0.2l3.2,9C561.3,748.2,546.8,747.9,532.7,745.8L532.7,745.8z"/>
		<line class="st4" x1="529.2" y1="731.3" x2="529.3" y2="688.6"/>
		<line class="st4" x1="577.8" y1="731.3" x2="578" y2="688.6"/>
		<path class="st8" d="M812.2,326.1c-11.5-1.7-27.1-4.1-43.9-4.3c-13.4,0-26.8,0-40.4,0c-17.6,1.2-31.7,0.7-45.3,5
			c-2.6,0.7-9,4.4-9,9.1V370c0,5.5,7.1,7,9,7.5c13.6,3.2,27.7,4.6,45.1,4.6h40.7c15.9,0,31.7-1.7,43.7-3.9c3.3-0.7,9.2-1.4,9.2-8.5
			v-34.5C821.3,325.8,816.9,326.8,812.2,326.1L812.2,326.1z"/>
		<path class="st3" d="M730.7,330.4l-14.8-2.3c-5.8,16.3-5.3,30.8,0,48.2l14.8-2.1C727,356.8,726.7,348.4,730.7,330.4L730.7,330.4z"
			/>
		<path class="st3" d="M793.5,331.2l-9.2,3.1c2.3,12.3,2.3,24.3,0.2,35.9l9,3.2C796,359.8,795.6,345.3,793.5,331.2L793.5,331.2z"/>
		<line class="st4" x1="779" y1="327.7" x2="736.4" y2="327.8"/>
		<line class="st4" x1="779" y1="376.3" x2="736.4" y2="376.5"/>
		<path class="st9" d="M345.6,470.5h-29.3c-1.2,0-2.2,1.2-2.2,2.7s1.4,2.7,2.2,2.7h31.2C347.6,475.9,347.8,470.5,345.6,470.5
			L345.6,470.5z"/>
		<path class="st9" d="M345.6,556.8h-29.3c-1.2,0-2.2-1.2-2.2-2.7s1.4-2.7,2.2-2.7h31.2C347.6,551.5,347.8,556.8,345.6,556.8
			L345.6,556.8z"/>
		<path class="st9" d="M371.2,473.2v80.9h2.7c4.4,0,8-3.5,8-8v-64.9c0-4.4-3.5-8-8-8L371.2,473.2L371.2,473.2z"/>
		<path class="st10" d="M371.4,475.9h-46.8v75.6h46.8c3.5,0,6.7-3,6.7-6.7v-62.2C378.1,478.8,375.1,475.9,371.4,475.9L371.4,475.9z"
			/>
		<path class="st9" d="M357,480.8h-23.7c-1.8,0-3.3,2.2-3.3,5v55.7c0,2.9,1.5,5.1,3.3,5.1H357c1.8,0,3.1-2.4,3.3-5.1
			c1.6-18.6,1.5-37.1,0-55.7C360.1,483,358.8,480.8,357,480.8L357,480.8z"/>
		<path class="st9" d="M370.3,479c-1,0.9-6.3,3.9-6.2,4.8c2.6,18.4,2.7,41.4,0,60.4c-0.1,0.3,5.3,3.2,6.2,4c1.1,1,3.2-1.8,3.4-3.6
			c1.6-20.6,1.6-41.4,0-61.9C373.5,480.6,371.5,477.8,370.3,479L370.3,479z"/>
		<path class="st9" d="M94.2,470.5H64.9c-1.2,0-2.2,1.2-2.2,2.7s2.2,2.7,2.2,2.7H96C96.1,475.9,96.4,470.5,94.2,470.5L94.2,470.5z"
			/>
		<path class="st9" d="M181.3,470.5H152c-1.2,0-2.2,1.2-2.2,2.7s2.2,2.7,2.2,2.7h31.1C183.3,475.9,183.5,470.5,181.3,470.5
			L181.3,470.5z"/>
		<path class="st9" d="M94.2,556.8H64.9c-1.2,0-2.2-1.2-2.2-2.7s2.2-2.7,2.2-2.7H96C96.1,551.5,96.4,556.8,94.2,556.8L94.2,556.8z"
			/>
		<path class="st9" d="M181.3,556.8H152c-1.2,0-2.2-1.2-2.2-2.7s2.2-2.7,2.2-2.7h31.1C183.3,551.5,183.5,556.8,181.3,556.8
			L181.3,556.8z"/>
		<polygon class="st9" points="193.8,495.4 210.5,513.8 193.8,532.3 193.8,527.2 205.6,513.8 193.8,500.4 		"/>
		<polygon class="st9" points="194.9,473.2 51.8,473.2 51.8,554.1 194.9,554.1 		"/>
		<polygon class="st9" points="188.9,478.5 57.8,478.5 57.8,548.8 188.9,548.8 		"/>
		<path class="st9" d="M249.5,470.5h-29.3c-1.2,0-2.2,1.2-2.2,2.7s1.4,2.7,2.2,2.7h31.1C251.5,475.9,251.7,470.5,249.5,470.5
			L249.5,470.5z"/>
		<polygon class="st9" points="188.9,492.5 57.8,492.5 57.8,535 188.9,535 		"/>
		<path class="st9" d="M249.5,556.8h-29.3c-1.2,0-2.2-1.2-2.2-2.7s1.4-2.7,2.2-2.7h31.1C251.5,551.5,251.7,556.8,249.5,556.8
			L249.5,556.8z"/>
		<polygon class="st9" points="324.7,473.3 207.1,473.3 207.1,554.2 324.7,554.2 		"/>
		<polygon class="st9" points="318.7,478.6 213.1,478.6 213.1,548.9 318.7,548.9 		"/>
		<polygon class="st9" points="318.7,492.5 213.1,492.5 213.1,535.1 318.7,535.1 		"/>
		<polygon class="st9" points="318.7,506.6 213.1,506.6 213.1,520.8 318.7,520.8 		"/>
		<polygon class="st9" points="188.9,506.7 57.8,506.7 57.8,520.9 188.9,520.9 		"/>
		<polygon class="st0" points="614,418.4 614,399.1 644,408.7 		"/>
		<polygon class="st0" points="614,358.6 614,339.3 644,348.9 		"/>
		<polygon class="st0" points="614,328.7 614,309.4 644,319 		"/>
		<polygon class="st0" points="614,448.3 614,429 644,438.7 		"/>
		<polygon class="st0" points="614,388.5 614,369.2 644,378.8 		"/>
		<polygon class="st0" points="530.9,585.3 549.4,585.3 540.2,615.4 		"/>
		<polygon class="st0" points="588.5,585.3 607.1,585.3 597.8,615.4 		"/>
		<polygon class="st0" points="502.1,585.3 520.6,585.3 511.4,615.4 		"/>
		<polygon class="st0" points="559.7,585.3 578.2,585.3 569,615.4 		"/>
		<path class="st11" d="M6.5,307.8h301.9c23.4,0,33.2-9.4,33.2-32.9V90.1 M608.3,90.1l-0.1,184.8c0,23.6,9,32.9,32.5,32.9h228.7
			 M869.4,578.4H640.6c-23.5,0-32.5,9.1-32.5,32.6l0.1,198.8 M405.2,809.9V611.1c0-23.6-9.4-32.6-32.8-32.6H6.5"/>
		<path class="st12" d="M631.9,90v194.2l237.5,0.1 M869.5,602H631.8v207.9 M381.9,809.9V602H6.5 M6.5,284.2h310.9V90"/>
		<polygon class="st0" points="501.8,620.3 511.6,620.3 511.6,810 501.8,810 		"/>
		<polygon class="st0" points="869.3,439.1 869.3,448.8 649.1,448.8 649.1,439.1 		"/>
		<path class="st0" d="M606.5,304.3l-8-0.8c0.3-6.3,0.6-12.4,0.7-18.8l8,0.1C607.1,291.3,606.8,297.7,606.5,304.3L606.5,304.3z
			 M597.2,322l8,0.8c-0.7,7.4-1.4,14.7-2.4,21.9l-8-2C595.7,335.9,596.5,329,597.2,322L597.2,322z M591.7,361l7.9,2
			c-1.6,7.4-3.3,14.8-5.2,22l-7.4-3c0.5-1.8,0.9-3.6,1.5-5.4C589.6,371.4,590.7,366.3,591.7,361L591.7,361z M581.4,399.8l7.7,3.1
			c-1.3,3.9-2.7,7.9-4.1,11.8c-1.3,3.4-2.7,6.6-4.1,9.8l-6.9-3.9C576.7,413.7,579.2,406.8,581.4,399.8L581.4,399.8z M566,437.3l7,4
			c-3.6,7-7.4,13.9-11.5,20.6l-6.5-5.1C558.9,450.6,562.6,444,566,437.3L566,437.3z M544.7,472.4l6.4,5c-0.2,0.3-0.4,0.6-0.6,0.8
			c-4.8,6.1-9.6,11.9-14.7,17.4l-5.4-5.6c2.2-2.5,4.4-5,6.6-7.6C539.7,479.2,542.3,475.8,544.7,472.4L544.7,472.4z M517.5,503.5
			l5.6,5.8c-1.4,1.4-2.8,2.8-4.2,4.1l-9.1,7.8c-1.7,1.3-3.4,2.6-5,3.8l-4.9-6.5c4.6-3.6,9.1-7.2,13.5-11
			C514.8,506.2,516.2,504.8,517.5,503.5L517.5,503.5z M485,529.4l4.6,6.4c-6.5,4.3-13.2,8.4-20.2,12.3l-0.2,0.1l-3.9-7.3
			C471.8,537.3,478.4,533.5,485,529.4L485,529.4z M448.4,549l3.9,7.3c-7.4,3.2-14.9,6-22.3,8.5l-2.7-7.4c1.5-0.5,3-0.9,4.5-1.5
			C437.6,553.7,443.1,551.4,448.4,549L448.4,549z M409.4,562.7l2.9,7.8c-1,0.3-2,0.6-2.9,0.8c-6.6,1.6-14.9,4.1-19.9,5.2l-1.8-8.5
			l6.5-1.4C399.2,565.4,404.4,564.1,409.4,562.7L409.4,562.7z"/>
		<path class="st3" d="M644.4,202c0.1-3.5,2.7-5.6,6.2-5l0.5,0.1l0.6,0.2l0.5,0.2l55.4,31.9c2.5,1.6,3.9,3.9,2.6,6.8
			c-0.6,1.1-1.5,1.9-2.5,2.6l-55.2,31.9c-2.2,1.2-4.5,1.6-6.5-0.2c-1.5-1.4-1.6-3.1-1.6-5.1v-62.6V202L644.4,202z"/>
		<path class="st13" d="M646,202.8c0-1-0.1-1.9,0.6-2.9c0.8-1,2.7-2,4.9-0.9l55.3,31.9c3.1,1.8,3,4.9,0.1,6.6l-55.1,31.8
			c-1.2,0.7-2.8,1.2-4.1,0.5c-1.6-1-1.6-2.6-1.6-4.3L646,202.8L646,202.8z"/>
		<polygon class="st14" points="652.5,207 699.5,234.2 652.5,261.4 		"/>
		<line class="st12" x1="710.9" y1="234.2" x2="765.5" y2="234.2"/>
		<path class="st3" d="M713.9,614.6c3.5,0.1,5.6,2.7,5,6.2l-0.1,0.5l-0.2,0.6l-0.2,0.5l-31.9,55.4c-1.6,2.5-3.9,3.9-6.8,2.6
			c-1.1-0.6-1.9-1.5-2.6-2.5l-31.9-55.2c-1.2-2.2-1.6-4.5,0.2-6.5c1.4-1.5,3.2-1.6,5.1-1.6h62.6H713.9L713.9,614.6z"/>
		<path class="st13" d="M713.1,616.2c1,0,1.9-0.1,2.9,0.6c1,0.8,2,2.7,0.9,4.9L685.1,677c-1.8,3.1-4.9,3-6.6,0.1L646.7,622
			c-0.7-1.2-1.2-2.8-0.5-4.1c1-1.6,2.6-1.6,4.3-1.6L713.1,616.2L713.1,616.2z"/>
		<polygon class="st14" points="708.9,622.7 681.7,669.7 654.6,622.7 		"/>
		<line class="st12" x1="681.7" y1="681.1" x2="681.7" y2="735.7"/>
		<line class="st15" x1="668.8" y1="350.9" x2="206.1" y2="350.9"/>
		<path class="st15" d="M386.7,515.6c97.4-29.1,166-115.4,165.5-260.7"/>
		<path class="st15" d="M553.7,621.6c-12.3-98.7-71.6-228.8-212.9-243.2"/>
		<path class="st15" d="M450.1,276.4C464.4,403.1,551,506.5,715.7,521.5"/>
		<path class="st6" d="M783.5,447.4h-11l-4.4-11.4h-20l-4.1,11.4h-10.7l19.5-50.1h10.7L783.5,447.4L783.5,447.4z M764.9,427.6
			L758,409l-6.8,18.6H764.9L764.9,427.6z"/>
	</g>
</g>
</svg>
