<?xml version="1.0" encoding="utf-8"?>
<!-- Generator: Adobe Illustrator 19.2.0, SVG Export Plug-In . SVG Version: 6.00 Build 0)  -->
<svg version="1.1" id="Livello_1" xmlns="http://www.w3.org/2000/svg" xmlns:xlink="http://www.w3.org/1999/xlink" x="0px" y="0px"
	 viewBox="0 0 875 900" style="enable-background:new 0 0 875 900;" xml:space="preserve">
<style type="text/css">
	.st0{fill:#FFFFFF;}
	.st1{fill:#B9B9B9;}
	.st2{fill:#049853;stroke:#1A171B;stroke-width:1.2487;stroke-miterlimit:2.6131;}
	.st3{fill:#FFFFFF;stroke:#1A171B;stroke-width:1.2487;stroke-miterlimit:2.6131;}
	.st4{fill:none;stroke:#1A171B;stroke-width:1.6649;stroke-miterlimit:2.6131;}
	.st5{fill:#3D3D3F;stroke:#1A171B;stroke-width:1.2487;stroke-miterlimit:2.6131;}
	.st6{fill:#1A171B;}
	.st7{fill:#00A6E2;stroke:#1A171B;stroke-width:1.2487;stroke-miterlimit:2.6131;}
	.st8{fill:#FFFFFF;stroke:#1A171B;stroke-width:1.2487;stroke-linecap:square;stroke-miterlimit:2.6131;}
	.st9{fill:#3D3D3F;stroke:#1A171B;stroke-width:1.2487;stroke-linecap:square;stroke-miterlimit:2.6131;}
	.st10{fill:#E43417;stroke:#1A171B;stroke-width:1.2487;stroke-linecap:square;stroke-miterlimit:2.6131;}
	.st11{fill:none;stroke:#1A171B;stroke-width:4.1623;stroke-linecap:square;stroke-miterlimit:2.6131;}
	.st12{fill:none;stroke:#1A171B;stroke-width:1.2487;stroke-linecap:square;stroke-miterlimit:2.6131;}
	
		.st13{fill:none;stroke:#1A171B;stroke-width:4.1623;stroke-linecap:square;stroke-miterlimit:2.6131;stroke-dasharray:20.8115,20.8115;}
	.st14{fill:#E1001A;}
	.st15{fill:#FFFFFF;stroke:#E1001A;stroke-width:4.1623;stroke-miterlimit:2.6131;}
</style>
<g>
	<g>
		<polygon class="st0" points="503.2,297.7 811.6,297.8 811.6,526.6 503.2,526.5 503.2,810 277.2,810 277.2,526.5 63.4,526.5 
			63.4,297.7 277.2,297.7 277.2,90.1 503.2,90.1 		"/>
		<path class="st1" d="M298.2,90h182.3l-0.1,201.1c-0.1,20.4,6.6,27.8,29.5,27.8h301.8v186.5H509.9c-22.7,0-29.5,6.6-29.5,27.8
			l0.1,276.7H298.2V533.2c0-21.2-6.7-27.8-27.5-27.8H63.4V318.9h207.3c21,0,27.5-6.6,27.5-27.8V90L298.2,90z"/>
		<path class="st2" d="M152.2,444c9-1.3,21.3-3.2,34.4-3.3c10.5,0,21,0,31.6,0c13.8,0.9,24.9,0.5,35.5,3.9c2.1,0.5,7,3.5,7,7.1v26.8
			c0,4.3-5.5,5.5-7,5.9c-10.6,2.5-21.7,3.6-35.4,3.6h-31.9c-12.4,0-24.9-1.3-34.3-3.1c-2.6-0.5-7.2-1.1-7.2-6.7v-27
			C145,443.7,148.4,444.5,152.2,444L152.2,444z"/>
		<path class="st3" d="M216,447.3l11.6-1.8c4.6,12.8,4.1,24.2,0,37.8l-11.6-1.7C218.9,468,219.2,461.5,216,447.3L216,447.3z"/>
		<path class="st3" d="M166.8,448l7.2,2.4c-1.8,9.6-1.8,19-0.1,28.1l-7,2.5C164.9,470.4,165.2,459,166.8,448L166.8,448z"/>
		<line class="st4" x1="178.1" y1="445.2" x2="211.6" y2="445.3"/>
		<line class="st4" x1="178.1" y1="483.4" x2="211.6" y2="483.5"/>
		<polygon class="st5" points="434.5,183.3 428,211.8 440.9,211.8 		"/>
		<polygon class="st5" points="347,586.7 340.5,558.3 353.5,558.3 		"/>
		<polygon class="st5" points="696.7,465.1 668.3,471.5 668.3,458.6 		"/>
		<path class="st6" d="M374.7,155.1h-9.9l-3.9-10.2h-18l-3.7,10.2h-9.6l17.5-44.9h9.6L374.7,155.1L374.7,155.1z M358,137.4
			l-6.2-16.7l-6.1,16.7H358L358,137.4z"/>
		<path class="st6" d="M741.7,473.8v-44.9h19.1c4.8,0,8.3,0.4,10.5,1.2c2.2,0.8,3.9,2.2,5.2,4.3c1.3,2.1,2,4.4,2,7.1
			c0,3.4-1,6.2-3,8.4c-2,2.2-4.9,3.6-8.9,4.1c2,1.2,3.6,2.4,4.9,3.8s3,3.8,5.2,7.3l5.5,8.8h-10.9l-6.6-9.8c-2.3-3.5-3.9-5.7-4.8-6.6
			c-0.9-0.9-1.8-1.5-2.7-1.9c-1-0.3-2.5-0.5-4.6-0.5h-1.8v18.8L741.7,473.8L741.7,473.8z M750.8,447.9h6.7c4.4,0,7.1-0.2,8.2-0.5
			c1.1-0.4,1.9-1,2.5-1.9s0.9-2,0.9-3.4c0-1.5-0.4-2.7-1.2-3.7c-0.8-0.9-1.9-1.5-3.4-1.8c-0.7-0.1-2.9-0.1-6.6-0.1h-7.1L750.8,447.9
			L750.8,447.9z"/>
		<polygon class="st6" points="185.5,399.9 185.5,355 218.9,355 218.9,362.6 194.6,362.6 194.6,372.6 217.2,372.6 217.2,380.1 
			194.6,380.1 194.6,392.3 219.7,392.3 219.7,399.9 		"/>
		<path class="st6" d="M346,767.1l8.8-0.9c0.5,3,1.6,5.1,3.2,6.5s3.8,2.1,6.6,2.1c2.9,0,5.1-0.6,6.6-1.9c1.5-1.2,2.2-2.7,2.2-4.3
			c0-1.1-0.3-2-0.9-2.7c-0.6-0.8-1.7-1.4-3.3-1.9c-1.1-0.4-3.5-1-7.3-2c-4.9-1.2-8.3-2.7-10.2-4.4c-2.8-2.5-4.1-5.5-4.1-9
			c0-2.3,0.6-4.4,1.9-6.4s3.2-3.5,5.6-4.6c2.4-1,5.4-1.6,8.8-1.6c5.7,0,9.9,1.2,12.7,3.7c2.8,2.5,4.3,5.8,4.5,9.9L372,750
			c-0.4-2.3-1.2-4-2.5-5s-3.2-1.5-5.7-1.5c-2.6,0-4.7,0.5-6.2,1.6c-1,0.7-1.4,1.6-1.4,2.8c0,1.1,0.4,2,1.3,2.7c1.1,1,3.9,2,8.3,3
			s7.7,2.1,9.8,3.2c2.1,1.1,3.8,2.6,5,4.6c1.2,1.9,1.8,4.3,1.8,7.2c0,2.6-0.7,5-2.1,7.2s-3.5,3.9-6.1,5s-5.9,1.6-9.8,1.6
			c-5.7,0-10-1.3-13.1-3.9C348.4,775.9,346.6,772.1,346,767.1L346,767.1z"/>
		<path class="st7" d="M371,179.2c1.3,9,3.2,21.3,3.3,34.4c0,10.5,0,21,0,31.6c-0.9,13.8-0.5,24.9-3.9,35.5c-0.5,2.1-3.5,7-7.1,7
			h-26.8c-4.3,0-5.5-5.5-5.9-7c-2.5-10.6-3.6-21.7-3.6-35.4v-31.9c0-12.4,1.3-24.9,3.1-34.3c0.5-2.6,1.1-7.2,6.7-7.2h27.1
			C371.3,172,370.5,175.4,371,179.2L371,179.2z"/>
		<path class="st3" d="M367.7,243l1.8,11.6c-12.8,4.6-24.2,4.1-37.8,0l1.7-11.6C347,245.9,353.5,246.2,367.7,243L367.7,243z"/>
		<path class="st3" d="M367,193.8l-2.4,7.2c-9.6-1.8-19-1.8-28.1-0.1l-2.5-7C344.7,191.9,356,192.2,367,193.8L367,193.8z"/>
		<line class="st4" x1="369.8" y1="205.1" x2="369.7" y2="238.6"/>
		<line class="st4" x1="331.7" y1="205.1" x2="331.5" y2="238.6"/>
		<path class="st8" d="M400.3,554.9v22.9c0,0.9,0.9,1.7,2.1,1.7s2.1-1.1,2.1-1.7v-24.4C404.5,553.3,400.3,553.2,400.3,554.9
			L400.3,554.9z"/>
		<path class="st8" d="M468,554.9v22.9c0,0.9-0.9,1.7-2.1,1.7s-2.1-1.1-2.1-1.7v-24.4C463.9,553.3,468,553.2,468,554.9L468,554.9z"
			/>
		<path class="st8" d="M402.4,534.8h63.4v-2.1c0-3.5-2.8-6.3-6.3-6.3h-50.9c-3.5,0-6.3,2.8-6.3,6.3L402.4,534.8L402.4,534.8z"/>
		<path class="st9" d="M404.5,534.6v36.7h59.3v-36.7c0-2.8-2.3-5.3-5.3-5.3h-48.7C406.8,529.4,404.5,531.7,404.5,534.6L404.5,534.6z
			"/>
		<path class="st8" d="M408.4,545.9v18.6c0,1.4,1.7,2.6,3.9,2.6H456c2.2,0,4-1.2,4-2.6v-18.6c0-1.4-1.9-2.4-4-2.5
			c-14.6-1.2-29.1-1.2-43.7,0C410.1,543.5,408.4,544.5,408.4,545.9L408.4,545.9z"/>
		<path class="st8" d="M407,535.5c0.7,0.8,3.1,5,3.8,4.9c14.4-2,32.4-2.1,47.4,0c0.2,0.1,2.5-4.2,3.2-4.9c0.8-0.8-1.4-2.5-2.9-2.7
			c-16.1-1.3-32.4-1.3-48.5,0C408.2,533,406.1,534.5,407,535.5L407,535.5z"/>
		<path class="st8" d="M400.3,751.9v22.9c0,0.9,0.9,1.7,2.1,1.7s2.1-1.7,2.1-1.7v-24.4C404.5,750.5,400.3,750.2,400.3,751.9
			L400.3,751.9z"/>
		<path class="st8" d="M400.3,683.7v22.9c0,0.9,0.9,1.7,2.1,1.7s2.1-1.7,2.1-1.7v-24.4C404.5,682.1,400.3,682,400.3,683.7
			L400.3,683.7z"/>
		<path class="st8" d="M468,751.9v22.9c0,0.9-0.9,1.7-2.1,1.7s-2.1-1.7-2.1-1.7v-24.4C463.9,750.5,468,750.2,468,751.9L468,751.9z"
			/>
		<path class="st8" d="M468,683.7v22.9c0,0.9-0.9,1.7-2.1,1.7s-2.1-1.7-2.1-1.7v-24.4C463.9,682.1,468,682,468,683.7L468,683.7z"/>
		<polygon class="st8" points="419.8,673.8 434.3,660.8 448.8,673.8 444.8,673.8 434.3,664.7 423.8,673.8 		"/>
		<polygon class="st8" points="402.4,673 402.4,785.2 465.9,785.2 465.9,673 		"/>
		<polygon class="st8" points="406.6,677.7 406.6,780.5 461.7,780.5 461.7,677.7 		"/>
		<path class="st8" d="M400.3,630.2v22.9c0,0.9,0.9,1.7,2.1,1.7s2.1-1.1,2.1-1.7v-24.4C404.5,628.7,400.3,628.5,400.3,630.2
			L400.3,630.2z"/>
		<polygon class="st8" points="417.6,677.7 417.6,780.5 450.9,780.5 450.9,677.7 		"/>
		<path class="st8" d="M468,630.2v22.9c0,0.9-0.9,1.7-2.1,1.7s-2.1-1.1-2.1-1.7v-24.4C463.9,628.7,468,628.5,468,630.2L468,630.2z"
			/>
		<polygon class="st8" points="402.5,571.3 402.5,663.5 465.9,663.5 465.9,571.3 		"/>
		<polygon class="st8" points="406.7,575.9 406.7,658.7 461.8,658.7 461.8,575.9 		"/>
		<polygon class="st8" points="417.6,575.9 417.6,658.7 451,658.7 451,575.9 		"/>
		<polygon class="st8" points="428.7,575.9 428.7,658.7 439.8,658.7 439.8,575.9 		"/>
		<polygon class="st8" points="428.7,677.7 428.7,780.5 439.8,780.5 439.8,677.7 		"/>
		<path class="st10" d="M557.9,399.1h22.9c0.9,0,1.7-0.9,1.7-2.1s-1.1-2.1-1.7-2.1h-24.4C556.3,394.9,556.2,399.1,557.9,399.1
			L557.9,399.1z"/>
		<path class="st10" d="M557.9,331.4h22.9c0.9,0,1.7,0.9,1.7,2.1s-1.1,2.1-1.7,2.1h-24.4C556.3,335.6,556.2,331.4,557.9,331.4
			L557.9,331.4z"/>
		<path class="st10" d="M537.8,397v-63.4h-2.1c-3.5,0-6.3,2.8-6.3,6.3v50.9c0,3.5,2.8,6.3,6.3,6.3L537.8,397L537.8,397z"/>
		<path class="st10" d="M537.6,394.9h36.7v-59.3h-36.7c-2.8,0-5.3,2.3-5.3,5.3v48.7C532.4,392.6,534.7,394.9,537.6,394.9
			L537.6,394.9z"/>
		<path class="st10" d="M548.9,391h18.6c1.4,0,2.5-1.7,2.5-3.9v-43.6c0-2.2-1.2-4-2.5-4h-18.6c-1.4,0-2.4,1.9-2.6,4
			c-1.2,14.6-1.2,29.1,0,43.6C546.5,389.3,547.5,391,548.9,391L548.9,391z"/>
		<path class="st8" d="M538.5,392.4c0.8-0.7,5-3.1,4.9-3.8c-2-14.4-2.1-32.4,0-47.4c0.1-0.2-4.2-2.5-4.9-3.2
			c-0.8-0.8-2.5,1.4-2.7,2.9c-1.3,16.1-1.3,32.4,0,48.5C536,391.2,537.5,393.4,538.5,392.4L538.5,392.4z"/>
		<path class="st10" d="M754.9,399.1h22.9c0.9,0,1.7-0.9,1.7-2.1s-1.7-2.1-1.7-2.1h-24.3C753.5,394.9,753.2,399.1,754.9,399.1
			L754.9,399.1z"/>
		<path class="st10" d="M686.6,399.1h22.9c0.9,0,1.7-0.9,1.7-2.1s-1.7-2.1-1.7-2.1h-24.4C685.1,394.9,684.9,399.1,686.6,399.1
			L686.6,399.1z"/>
		<path class="st10" d="M754.9,331.4h22.9c0.9,0,1.7,0.9,1.7,2.1s-1.7,2.1-1.7,2.1h-24.3C753.5,335.6,753.2,331.4,754.9,331.4
			L754.9,331.4z"/>
		<path class="st10" d="M686.6,331.4h22.9c0.9,0,1.7,0.9,1.7,2.1s-1.7,2.1-1.7,2.1h-24.4C685.1,335.6,684.9,331.4,686.6,331.4
			L686.6,331.4z"/>
		<polygon class="st10" points="676.8,379.6 663.8,365.1 676.8,350.7 676.8,354.6 667.6,365.1 676.8,375.7 		"/>
		<polygon class="st10" points="676,397 788.2,397 788.2,333.6 676,333.6 		"/>
		<polygon class="st10" points="680.7,392.8 783.5,392.8 783.5,337.7 680.7,337.7 		"/>
		<path class="st10" d="M633.2,399.1h22.9c0.9,0,1.7-0.9,1.7-2.1s-1.1-2.1-1.7-2.1h-24.4C631.6,394.9,631.5,399.1,633.2,399.1
			L633.2,399.1z"/>
		<polygon class="st10" points="680.7,381.9 783.5,381.9 783.5,348.5 680.7,348.5 		"/>
		<path class="st10" d="M633.2,331.4h22.9c0.9,0,1.7,0.9,1.7,2.1s-1.1,2.1-1.7,2.1h-24.4C631.6,335.6,631.5,331.4,633.2,331.4
			L633.2,331.4z"/>
		<polygon class="st10" points="574.2,396.9 666.5,396.9 666.5,333.5 574.2,333.5 		"/>
		<polygon class="st10" points="578.9,392.7 661.7,392.7 661.7,337.6 578.9,337.6 		"/>
		<polygon class="st10" points="578.9,381.8 661.7,381.8 661.7,348.5 578.9,348.5 		"/>
		<polygon class="st10" points="578.9,370.8 661.7,370.8 661.7,359.6 578.9,359.6 		"/>
		<polygon class="st10" points="680.7,370.7 783.5,370.7 783.5,359.6 680.7,359.6 		"/>
		<path class="st11" d="M503.2,90.1v207.6l308.4,0.1 M811.6,526.6l-308.4-0.1V810 M277.2,810V526.5l-213.8,0.1 M63.4,297.7h213.8
			V90.1"/>
		<path class="st12" d="M480.4,90.1v201.1c-0.1,20.4,6.6,27.8,29.5,27.8l301.8-0.1 M811.6,505.4l-301.8,0.1
			c-22.7,0-29.5,6.6-29.5,27.8V810 M298.2,810V533.3c0-21.2-6.7-27.8-27.5-27.8H63.4 M63.4,319h207.3c21,0,27.5-6.6,27.5-27.8V90.1"
			/>
		<polygon class="st0" points="480.6,394.1 480.6,380.4 501.6,387.2 		"/>
		<polygon class="st0" points="480.6,351.5 480.6,337.9 501.6,344.7 		"/>
		<polygon class="st0" points="480.6,330.3 480.6,316.6 501.6,323.4 		"/>
		<polygon class="st0" points="480.6,415.4 480.6,401.7 501.6,408.5 		"/>
		<polygon class="st0" points="480.6,372.8 480.6,359.1 501.6,366 		"/>
		<polygon class="st0" points="507.2,408.7 811.6,408.7 811.6,415.8 507.2,415.8 		"/>
		<polygon class="st0" points="298,430.3 298,444 277,437.1 		"/>
		<polygon class="st0" points="298,472.8 298,486.5 277,479.7 		"/>
		<polygon class="st0" points="298,494.1 298,507.8 277,500.9 		"/>
		<polygon class="st0" points="298,409 298,422.7 277,415.9 		"/>
		<polygon class="st0" points="298,451.6 298,465.2 277,458.4 		"/>
		<polygon class="st0" points="271.4,415.6 63.5,415.6 63.5,408.6 271.4,408.6 		"/>
		<line class="st13" x1="434.4" y1="524.3" x2="434.4" y2="212.2"/>
		<path class="st13" d="M262.6,464.7h404.2 M582.2,464.7c-141.9,0.5-224.5-54.4-231.2-174.6"/>
		<path class="st13" d="M525.4,364.4c-150.3,0.9-178,89.4-178.1,192.9"/>
		<path class="st3" d="M265.8,598c-0.1,3-2.4,4.8-5.4,4.3l-0.5-0.1l-0.4-0.2l-0.5-0.2l-48-27.7c-2.1-1.4-3.3-3.3-2.3-5.9
			c0.5-1,1.3-1.7,2.2-2.2l47.8-27.6c1.9-1,3.9-1.4,5.6,0.1c1.3,1.2,1.4,2.7,1.4,4.4v54.3v0.8H265.8z"/>
		<path class="st14" d="M264.4,597.3c0,0.8,0.1,1.7-0.6,2.6c-0.7,0.9-2.3,1.7-4.2,0.7L211.7,573c-2.7-1.6-2.6-4.3-0.1-5.8l47.8-27.6
			c1-0.6,2.5-1.1,3.5-0.4c1.4,0.9,1.4,2.3,1.4,3.8L264.4,597.3L264.4,597.3z"/>
		<polygon class="st15" points="258.8,593.6 218,570 258.8,546.5 		"/>
		<path class="st3" d="M514.6,226.4c0.1-3,2.4-4.8,5.4-4.3l0.5,0.1l0.5,0.2l0.5,0.2l48,27.7c2.1,1.4,3.3,3.3,2.3,5.9
			c-0.5,1-1.3,1.7-2.2,2.2l-48,27.6c-1.9,1-3.9,1.4-5.6-0.1c-1.3-1.2-1.4-2.7-1.4-4.4v-54.3V226.4L514.6,226.4z"/>
		<path class="st14" d="M516,227.1c0-0.8-0.1-1.7,0.6-2.6c0.6-0.9,2.3-1.7,4.2-0.7l47.9,27.6c2.7,1.5,2.6,4.3,0.1,5.8L521,284.8
			c-1,0.6-2.5,1.1-3.5,0.4c-1.4-0.9-1.4-2.3-1.4-3.8L516,227.1L516,227.1z"/>
		<polygon class="st15" points="521.6,230.8 562.4,254.3 521.6,277.9 		"/>
		<line class="st11" x1="208.3" y1="570.2" x2="160.9" y2="570.2"/>
		<line class="st11" x1="572.1" y1="254.2" x2="619.5" y2="254.2"/>
	</g>
</g>
</svg>
