<?xml version="1.0" encoding="utf-8"?>
<!-- Generator: Adobe Illustrator 19.2.0, SVG Export Plug-In . SVG Version: 6.00 Build 0)  -->
<svg version="1.1" id="Livello_1" xmlns="http://www.w3.org/2000/svg" xmlns:xlink="http://www.w3.org/1999/xlink" x="0px" y="0px"
	 viewBox="0 0 960 960" style="enable-background:new 0 0 960 960;" xml:space="preserve">
<style type="text/css">
	.st0{fill:#FFFFFF;stroke:#1A171B;stroke-width:1.6467;stroke-miterlimit:2.6131;}
	.st1{fill-rule:evenodd;clip-rule:evenodd;fill:#008E43;stroke:#1A171B;stroke-width:1.6467;stroke-miterlimit:2.6131;}
	.st2{fill-rule:evenodd;clip-rule:evenodd;fill:#ECECED;stroke:#1A171B;stroke-width:1.6467;stroke-miterlimit:2.6131;}
	.st3{fill-rule:evenodd;clip-rule:evenodd;fill:#9B9C9E;stroke:#1A171B;stroke-width:1.6467;stroke-miterlimit:2.6131;}
	.st4{fill-rule:evenodd;clip-rule:evenodd;fill:#CECFD1;stroke:#1A171B;stroke-width:1.6467;stroke-miterlimit:2.6131;}
	.st5{fill-rule:evenodd;clip-rule:evenodd;fill:#FFFFFF;}
	.st6{fill-rule:evenodd;clip-rule:evenodd;fill:#1A171B;stroke:#1A171B;stroke-width:1.6467;stroke-miterlimit:2.6131;}
	.st7{fill-rule:evenodd;clip-rule:evenodd;fill:#FFFFFF;stroke:#1A171B;stroke-width:1.6467;stroke-miterlimit:2.6131;}
	.st8{fill-rule:evenodd;clip-rule:evenodd;fill:#E1001A;}
	.st9{fill-rule:evenodd;clip-rule:evenodd;fill:#FFFFFF;stroke:#E1001A;stroke-width:5.4889;stroke-miterlimit:2.6131;}
	.st10{fill-rule:evenodd;clip-rule:evenodd;fill:#3D3D3F;stroke:#1A171B;stroke-width:1.6467;stroke-miterlimit:2.6131;}
	.st11{fill-rule:evenodd;clip-rule:evenodd;fill:#6F7072;stroke:#1A171B;stroke-width:1.6467;stroke-miterlimit:2.6131;}
	.st12{fill-rule:evenodd;clip-rule:evenodd;fill:#E1001A;stroke:#1A171B;stroke-width:1.6467;stroke-miterlimit:2.6131;}
	.st13{fill:none;stroke:#1A171B;stroke-width:1.6467;stroke-miterlimit:2.6131;}
	.st14{fill-rule:evenodd;clip-rule:evenodd;fill:#F6E5E5;stroke:#1A171B;stroke-width:1.6467;stroke-miterlimit:2.6131;}
	.st15{fill-rule:evenodd;clip-rule:evenodd;fill:#FFFADA;stroke:#1A171B;stroke-width:1.6467;stroke-miterlimit:2.6131;}
	.st16{fill-rule:evenodd;clip-rule:evenodd;fill:#B4CAD5;stroke:#1A171B;stroke-width:1.6467;stroke-miterlimit:2.6131;}
	.st17{fill-rule:evenodd;clip-rule:evenodd;fill:#868789;stroke:#1A171B;stroke-width:1.6467;stroke-miterlimit:2.6131;}
	.st18{fill-rule:evenodd;clip-rule:evenodd;fill:#1A171B;}
</style>
<g>
	<g>
		<polygon class="st0" points="45,170.8 915,170.8 915,789.8 45,789.8 45,170.8 		"/>
		<polygon class="st1" points="454.5,612.8 642.9,789.8 87.1,789.8 454.5,612.8 		"/>
		<polygon class="st2" points="149.7,314.2 45,223.5 45,329.3 149.7,314.2 		"/>
		<polygon class="st2" points="915,170.2 300.4,170.8 487.1,271.2 915,213.3 915,170.2 		"/>
		<polygon class="st2" points="915,491.6 810.8,437.2 915,389.2 915,491.6 		"/>
		<path class="st3" d="M45,696.9l380.2-151.2c40-16.3,47.5-14.7,76.6,8l281.7,236H915V546.5L726.3,444.7
			c-17.4-11.2-13.5-17.7,3.1-25.3L915,342.9V242.8l-404.8,68.5c-35,6.2-56-7.3-89.6-27.8L230.6,170.8H45v3.8l167.4,133.1
			c28.3,18.2,27.5,34.7,5.4,39.7L45,380.8V696.9L45,696.9z"/>
		<path class="st4" d="M45,697l377.6-150c41.1-17.6,50.6-16.2,79.9,7.1l280.4,235.7H915V551.9L726.4,449.3
			c-17.4-11.2-18.2-20.1-1.6-27.6L915,343v-97.3l-406.4,70.7c-35,6.2-56-7.3-89.6-27.8L223.7,170.8H45v5l170.8,133.9
			c28.3,18.2,22.7,37.9,0.5,42.9L45,386.7V697L45,697z"/>
		<polygon class="st5" points="252.4,333.8 237.2,336.2 235.3,333.1 234.1,328.4 232.1,324.4 252.4,333.8 		"/>
		<path class="st6" d="M772.7,455.2L772.7,455.2c1.3,0,2.4-1.3,2.4-2.8v-98.8c0-1.5-1.1-2.8-2.4-2.8c-1.3,0-2.4,1.3-2.4,2.8v98.8
			C770.3,453.9,771.4,455.2,772.7,455.2L772.7,455.2z"/>
		<path class="st7" d="M796.2,293.8c2.4-0.3,3.9,2.1,3.4,5.7c0,0.2-0.1,0.4-0.1,0.6c0,0.2-0.1,0.4-0.1,0.6c-0.1,0.2-0.1,0.4-0.2,0.6
			c-3.8,10-7.5,19.8-11.2,29.5c-3.6,9.6-7.3,19.2-10.8,28.6c-1.1,2.5-2.6,4.2-4.7,3.8c-0.8-0.3-1.4-0.9-1.9-1.7
			c-4.1-7.3-8.4-15-12.8-22.9c-4.6-8.3-9.4-16.9-14.4-25.9c-1.1-2.2-1.7-4.7-0.3-7.2c1.1-1.9,2.6-2.3,4.2-2.6
			c8.7-1.6,17.1-3.1,25.2-4.6c7.9-1.4,15.6-2.8,23.1-4.2C795.8,293.9,796,293.8,796.2,293.8L796.2,293.8z"/>
		<path class="st8" d="M795.9,295.5c0.7-0.1,1.4-0.4,2.1,0.3c0.7,0.6,1.3,2.5,0.5,4.9c-3.8,10.1-7.6,20.1-11.4,29.9
			c-3.7,9.7-7.4,19.4-11,28.9c-1.2,3.2-3.5,3.8-4.7,1.5c-4.1-7.4-8.4-15.2-12.9-23.2c-4.7-8.4-9.5-17.1-14.5-26.2
			c-0.7-1.2-1.3-3-0.7-4.5c0.8-2,2.1-2.2,3.6-2.5c8.8-1.6,17.3-3.2,25.5-4.7C780.5,298.4,788.3,296.9,795.9,295.5L795.9,295.5z"/>
		<path class="st9" d="M792.8,302.8c-3.3,8.7-6.5,17.3-9.7,25.8c-3.2,8.4-6.3,16.8-9.4,25c-3.5-6.5-7.1-13.2-10.8-20.1
			c-3.9-7.2-7.9-14.6-12-22.3c7.5-1.5,14.7-2.9,21.8-4.3C779.5,305.4,786.2,304.1,792.8,302.8L792.8,302.8z"/>
		<path class="st6" d="M419.1,573.4L419.1,573.4c1.9,0,3.4-1.6,3.4-3.6v-128c0-2-1.5-3.6-3.4-3.6c-1.9,0-3.4,1.6-3.4,3.6v128
			C415.7,571.7,417.3,573.4,419.1,573.4L419.1,573.4z"/>
		<path class="st7" d="M448.5,467.2c3.4,1.7,5.4-0.6,4.9-5.3c0-0.2-0.1-0.5-0.1-0.7c-0.1-0.3-0.1-0.5-0.2-0.8
			c-0.1-0.3-0.2-0.6-0.2-0.8c-2.6-7.2-5.2-14.3-7.7-21.3c-2.5-7-5-13.9-7.5-20.7c-2.4-6.7-4.8-13.4-7.2-19.9c-2.4-6.5-4.7-13-7-19.4
			c-1.4-3.4-3.3-5.9-5.9-5.6c-1,0.3-1.7,0.9-2.3,1.9c-2.3,4.2-4.7,8.4-7.1,12.6c-2.3,4.2-4.7,8.3-7,12.5c-2.3,4.2-4.7,8.3-7,12.5
			c-2.3,4.1-4.6,8.3-7,12.4c-1,2-1.4,4.5-0.1,7.6c1.1,2.3,2.6,3.3,4.2,4.2c4.4,2.4,8.8,4.8,13.3,7.3c4.5,2.5,9.1,5,13.8,7.5
			c4.7,2.6,9.5,5.2,14.3,7.8c4.9,2.7,9.9,5.3,14.9,8.1C448,466.9,448.2,467.1,448.5,467.2L448.5,467.2z"/>
		<path class="st8" d="M448.6,465.5c1,0.5,1.9,1.2,3,0.7c1-0.4,2-2.4,0.8-5.9c-2.7-7.4-5.3-14.7-7.9-21.8
			c-2.6-7.1-5.1-14.2-7.7-21.2c-2.5-6.9-5-13.6-7.4-20.4c-2.4-6.7-4.8-13.2-7.2-19.8c-1.6-4.4-4.4-5.5-5.9-2.7
			c-2.4,4.3-4.9,8.6-7.3,12.9c-2.4,4.3-4.8,8.5-7.2,12.8c-2.4,4.3-4.8,8.5-7.2,12.8c-2.4,4.2-4.8,8.5-7.2,12.7
			c-0.6,1.1-1.1,2.8-0.5,4.6c0.8,2.4,2.2,3.1,3.7,4c4.5,2.4,9.1,4.9,13.7,7.4c4.7,2.5,9.4,5.1,14.2,7.7c4.9,2.6,9.8,5.3,14.8,8
			C438.3,459.9,443.4,462.7,448.6,465.5L448.6,465.5z"/>
		<path class="st9" d="M444.3,454.8c-2.2-6.2-4.4-12.4-6.6-18.4c-2.2-6-4.3-12-6.4-17.9c-2.1-5.8-4.2-11.6-6.2-17.3
			c-2-5.7-4.1-11.3-6-16.9c-2.1,3.7-4.2,7.4-6.3,11.1c-2.1,3.7-4.1,7.4-6.2,11c-2.1,3.7-4.1,7.4-6.2,11c-2.1,3.6-4.1,7.3-6.2,10.9
			c3.9,2.1,7.9,4.2,11.9,6.3c4.1,2.2,8.2,4.3,12.3,6.5c4.2,2.2,8.4,4.5,12.7,6.7C435.5,450.2,439.9,452.5,444.3,454.8L444.3,454.8z"
			/>
		<path class="st6" d="M418.9,400.6c1.5,2.6,2.9,5.3,4.4,7.9c0,3.1-0.1,6.2-0.1,9.3c2.1,1,4.3,2.1,6.4,3.2c0,2,0,3.9,0,5.9
			c-2.2-1.1-4.3-2.2-6.4-3.3c0,5.1-0.1,10.2-0.1,15.4c-1.5-2.8-3-5.5-4.5-8.3c-1.5,1.2-3.1,2.4-4.6,3.5c0.1-5.1,0.1-10.1,0.2-15.2
			c-2.1-1-4.1-2.1-6.2-3.1c0-1.9,0.1-3.8,0.1-5.7c2,1,4.1,2,6.1,3.1c0-3.1,0.1-6.1,0.1-9.2C415.9,403,417.4,401.8,418.9,400.6
			L418.9,400.6z"/>
		<path class="st10" d="M61.6,544.7c-0.3-11.4,5.4-25.5,15.7-36c11.1-11.6,30.6-30.1,39.9-32.7c36.3-10,66.2-15.9,105.2-22.6
			c3.3-0.6,6.6,0.4,10-0.2l22.1,3.9c14.7-0.4,37-4.4,53.7-3.6c9.2,1,72.3,45.5,70.3,56.5l-53.9,12.2L141,587.2
			c-3.9-0.4-15.4,34.9-18,33.6C102.9,610.6,71,574.1,61.6,544.7L61.6,544.7z"/>
		<path class="st7" d="M112.2,483c11.5,19.4,22.8,40.7,40.1,51.3L132,572.8c-24.4-26.6-33.5-39.6-45.6-67L112.2,483L112.2,483z"/>
		<polygon class="st7" points="161.8,533.8 212.8,519 216.5,549.2 143.7,573.5 161.8,533.8 		"/>
		<polygon class="st7" points="227.1,514.1 261.1,504.8 299.9,520.8 234,543.1 227.1,514.1 		"/>
		<path class="st7" d="M230.2,456.7l27.2,4.7c23.4,19.2,30.1,27.7,43.2,50.9c-12.3-4.2-23-7.5-35.4-11.7
			C253.4,478.7,249.6,475.1,230.2,456.7L230.2,456.7z"/>
		<path class="st10" d="M378.4,509.8c3,5.3,1,11.5-0.6,16.6l-236.1,92.1c-23.6,5-14.9,2.7-16.9,0l14.6-30.9l183.2-65.1L378.4,509.8
			L378.4,509.8z"/>
		<path class="st11" d="M377,526.6c-1.3,6.3-6.8,11.4-15.5,18.6L144,630.6c-13.5,3.1-22.6,2.1-28.8-3.2c-25-7.4-50.7-58.6-55.4-74.1
			c-2.4-6.6-0.1-17.1,4.7-23.2c14.8,34.1,19.3,41.7,40.9,71.4c4,3.2,7.7,6.3,11.7,9.5c20.4,11.4,22.7,4.6,41.7-0.4l96.2-37.1
			l77.2-29.5L377,526.6L377,526.6z"/>
		<path class="st12" d="M127.6,582.2l11.6,5.9c-3.3,7.2-8.4,19.4-13,27.5c-5.3-2.2-9.8-4.8-15.5-9.3L127.6,582.2L127.6,582.2z"/>
		<path class="st12" d="M76.6,509.3l4.7,9.6l-11,23.6L64,530C67.3,522,70.7,516,76.6,509.3L76.6,509.3z"/>
		<polygon class="st7" points="87.9,536.5 111.4,573.3 105,587 81.4,549.9 87.9,536.5 		"/>
		<path class="st6" d="M348.2,528.5c8.3,5.4,8.2,18.6-0.3,29.2c-8.5,10.7-22.2,14.9-30.6,9.5c-8.3-5.4-8.2-18.5,0.3-29.2
			C326.1,527.4,339.8,523.1,348.2,528.5L348.2,528.5z"/>
		<path class="st7" d="M340.8,538.9c3.8,2.9,3.3,9.2-1.1,14.2c-4.5,4.9-11.2,6.6-15.1,3.8c-3.8-2.9-3.3-9.2,1.1-14.2
			C330.2,537.7,336.9,536,340.8,538.9L340.8,538.9z"/>
		<path class="st6" d="M192.8,587.5c8.7,7.2,6.6,22.3-4.5,33.5c-11.1,11.2-27.3,14.5-36,7.2c-8.7-7.2-6.6-22.3,4.5-33.5
			C168,583.5,184.1,580.3,192.8,587.5L192.8,587.5z"/>
		<path class="st7" d="M182.6,597.8c4.3,3.6,3.3,11.1-2.2,16.6c-5.5,5.6-13.5,7.2-17.8,3.6c-4.3-3.6-3.3-11.1,2.2-16.6
			C170.3,595.8,178.3,594.2,182.6,597.8L182.6,597.8z"/>
		<polyline class="st13" points="219.9,516.9 226.2,556.6 232.7,582.1 		"/>
		<line class="st13" x1="215.9" y1="518.1" x2="224.5" y2="515.3"/>
		<path class="st14" d="M818,407.8c3.5,2.3,10.7,0.9,14.1,3.2c5.2,2.5,5,18.3,4.6,24.5c-2,0.3-7.2,4.5-11.6,3.4
			c-0.6-0.2-0.7-7.4-1.3-7.3c-4,0.9-6.5-1.3-6.1-2.2c-0.2-3.2-0.9-4.9-1.1-8.1c-0.7-1.5-0.3-1.2-1.1-2.6c0.5-1.5,1.4-3.1,1.9-4.6
			C817.8,411.5,817.6,410.5,818,407.8L818,407.8z"/>
		<path class="st15" d="M818,438.7l5.2-1.5c3.9,0.8,10.3-2.1,13.3-7l4.3-0.4c4.7-0.4,8.7,2.8,9.5,6.4l2,8.6l1.7,34.1
			c0.2,3.2-29.1,4.5-30,1.4l-1.4-4.9c-0.9-3-3.8-17.4-6.4-16.2l-29,14l-20.5-3.8l34-20C803.4,447.8,814.9,439.6,818,438.7L818,438.7
			z"/>
		<path class="st7" d="M864.9,508.6c6.7,2.2,20.7,20.6,20.2,44.6l-12.1,7c-1.4-16.2-7-33.9-20.4-44.9
			C857,512.3,862.4,510,864.9,508.6L864.9,508.6z"/>
		<path class="st6" d="M845.3,519.3c8.7-0.8,22.6,11.2,22.6,24.9c0,15.2-1.3,20.7-7.3,23.7c-2.4,1.4-8.1,1.4-10.3,1.2
			c-8.3-0.5-17.5-10.1-18.7-23.7C830.4,531.8,836.6,520.1,845.3,519.3L845.3,519.3z"/>
		<path class="st6" d="M765.3,468.5c8.7-0.8,16.8,9.7,18,23.4c1.2,13.6-5,25.3-13.7,26.1c-8.7,0.8-16.8-9.7-18-23.4
			C750.5,481,756.6,469.3,765.3,468.5L765.3,468.5z"/>
		<path class="st7" d="M779.9,438.7c2.1-4,5.4-7.2,12.4-5.8l6.1,6.1l3.4,1.5l15.3-3.2l6.1,0l-7.2,2.1l-10.1,8.5l-13.8,9l-8.5,5.1
			l-9.3,5.5l-3.8-1.5l12.7-12.4l-0.6-1.9l-2.5-0.8L779.9,438.7L779.9,438.7z"/>
		<polygon class="st7" points="824.9,492.7 823.6,480.8 819.2,457.5 795.1,467.6 778.5,469.4 772,465.7 777.4,492.9 780.2,514.1 
			811.9,535 824.1,533.7 824.9,492.7 		"/>
		<path class="st6" d="M814,406.4c5.1-2.8,16.5-3.9,20.8-3.2c8.6,2.1,6.4,15.2,3.2,23.1l-4.7,5c-2.1-5.9-0.4-15.8-6.3-17.7l-10.7-3
			L814,406.4L814,406.4z"/>
		<path class="st16" d="M824.1,481.1c11.2,0.8,20.3,1.3,30.6-2.9c0.5,3.7,1,8.8-0.1,11.4c-5.4,11.9-20.7,17.2-36.2,7.3l-9.2-9.5
			l-1.9,25c-4.3-0.6-7.4-2.1-11.2-5.3c1.3-5.8-0.2-21.5,0.1-31.6c0.2-7.2,6-8.5,12.3-5.6c0.9,0.4,1.3-2.6,2.4-3
			c3.4-1.1,5.7,0.5,7.6,1.4l3.8,1.8C822.4,470.9,822.6,479.9,824.1,481.1L824.1,481.1z"/>
		<line class="st13" x1="805.3" y1="468.1" x2="823.2" y2="481.4"/>
		<path class="st10" d="M788.3,505.7l7,1l12,5.1c1.3,3.4,0.7,5.9-0.9,9.2l-8.4-3.5l-1.5-2.5l-9.8-4.4
			C784.4,509.6,782.8,504.5,788.3,505.7L788.3,505.7z"/>
		<path class="st7" d="M766.7,479.7c4.6-0.4,8.9,5.3,9.5,12.8c0.6,7.5-2.6,13.9-7.2,14.3c-4.6,0.4-8.9-5.3-9.5-12.8
			C758.8,486.5,762.1,480.1,766.7,479.7L766.7,479.7z"/>
		<path class="st7" d="M827,500.8c28,10,47.7,34.6,45.1,59.7l-10.5-4.9c-5.6,0.9-26.2-2.3-30.7-14.3l-11.1-5.2
			C818,524.3,819.9,505.8,827,500.8L827,500.8z"/>
		<path class="st17" d="M841.6,500.6l13-6.1c2.6-1.2,7.8,3,8.7,5.8l2.1,6.8c0.7,2.2-8.4,7.3-13,8.1c-1,0.2-2.3-0.8-2.4-0.8
			c-1.1-0.5-8.8-4.8-16.1-7.5c-5-1.8-10.5-2.2-10.6-2.5c-0.6-2,1.1-0.6,3.1-3.2C828.9,497.9,837.8,502.2,841.6,500.6L841.6,500.6z"
			/>
		<path class="st7" d="M775.8,469.3l2,24c-9.3-4-20.4-8.4-29.7-12.4C752.8,470.1,761.4,459.9,775.8,469.3L775.8,469.3z"/>
		<polygon class="st5" points="129.5,170.8 348.5,318.7 341.5,319.7 121.9,170.8 129.5,170.8 		"/>
		<polygon class="st5" points="322.7,322.5 308.4,324.9 295.8,310.2 322.7,322.5 		"/>
		<polygon class="st5" points="287.2,328.2 272.9,330.6 259.3,315.2 287.2,328.2 		"/>
		<polygon class="st5" points="269.8,330.9 255.5,333.3 241.9,318 269.8,330.9 		"/>
		<polygon class="st5" points="340.3,319.8 326,322.2 313.3,307.6 340.3,319.8 		"/>
		<polygon class="st5" points="304.1,325.3 289.8,327.7 276.7,312.7 304.1,325.3 		"/>
		<polygon class="st5" points="606.4,485.1 915,695.2 915,706.9 599.4,487.8 606.4,485.1 		"/>
		<polygon class="st5" points="698.3,449.4 682,455.6 718.4,469.8 698.3,449.4 		"/>
		<polygon class="st5" points="661.8,463.4 645.5,469.6 682,483.8 661.8,463.4 		"/>
		<polygon class="st5" points="643.7,470.4 627.4,476.7 663.8,490.8 643.7,470.4 		"/>
		<polygon class="st5" points="716.5,442.1 700.5,448.3 736.9,462.5 716.5,442.1 		"/>
		<polygon class="st5" points="679.8,456.3 663.5,462.6 699.9,476.7 679.8,456.3 		"/>
		<polygon class="st5" points="625.7,477.7 609.4,483.9 645.8,498.1 625.7,477.7 		"/>
		<path class="st6" d="M198.7,307.3L198.7,307.3c1,0,1.8-0.8,1.8-1.8v-65.2c0-1-0.8-1.8-1.8-1.8c-1,0-1.8,0.8-1.8,1.8v65.2
			C196.8,306.5,197.6,307.3,198.7,307.3L198.7,307.3z"/>
		<path class="st2" d="M214.4,212.7c1.2,0.1,1.8,1.6,1.4,3.7c0,0.1-0.1,0.2-0.1,0.3c0,0.1-0.1,0.2-0.1,0.3c0,0.1-0.1,0.2-0.1,0.3
			c-2.3,5.6-4.7,11.3-7,16.9c-2.3,5.6-4.7,11.2-7,16.8c-0.7,1.5-1.6,2.6-2.8,2.5c-0.5-0.1-0.8-0.4-1-0.9c-2.2-4.1-4.6-8.6-7.3-13.6
			c-3-5.6-6.4-11.9-10.2-18.9c-0.9-1.8-1.3-3.8-0.1-5.6c0.9-1.3,2.2-1.5,3.5-1.5c6.6-0.1,12.5-0.2,17.8-0.2c4.7-0.1,9-0.1,13-0.2
			C214.2,212.7,214.3,212.7,214.4,212.7L214.4,212.7z"/>
		<path class="st18" d="M171.4,421.1l12,3.8c-1.9,6.7-4.9,11.7-9.2,15c-4.3,3.3-9.7,4.9-16.4,4.9c-8.2,0-14.9-2.8-20.1-8.4
			c-5.3-5.6-7.9-13.2-7.9-22.9c0-10.2,2.6-18.2,7.9-23.9c5.3-5.7,12.2-8.5,20.9-8.5c7.5,0,13.6,2.2,18.3,6.7
			c2.8,2.6,4.9,6.4,6.3,11.3l-12.3,2.9c-0.7-3.2-2.2-5.7-4.6-7.6c-2.3-1.9-5.1-2.8-8.4-2.8c-4.6,0-8.3,1.6-11.1,4.9
			c-2.8,3.3-4.3,8.6-4.3,15.9c0,7.8,1.4,13.3,4.2,16.6c2.8,3.3,6.4,5,10.9,5c3.3,0,6.1-1,8.5-3.2
			C168.7,428.9,170.4,425.6,171.4,421.1L171.4,421.1z"/>
		<polygon class="st18" points="724.9,611.6 724.9,550.1 743.5,550.1 754.7,592 765.7,550.1 784.4,550.1 784.4,611.6 772.8,611.6 
			772.8,563.1 760.6,611.6 748.7,611.6 736.5,563.1 736.5,611.6 724.9,611.6 		"/>
	</g>
</g>
</svg>
