<?xml version="1.0" encoding="utf-8"?>
<!-- Generator: Adobe Illustrator 19.2.0, SVG Export Plug-In . SVG Version: 6.00 Build 0)  -->
<svg version="1.1" id="Livello_1" xmlns="http://www.w3.org/2000/svg" xmlns:xlink="http://www.w3.org/1999/xlink" x="0px" y="0px"
	 viewBox="0 0 875 900" style="enable-background:new 0 0 875 900;" xml:space="preserve">
<style type="text/css">
	.st0{fill:#FFFFFF;}
	.st1{fill:#B9B9B9;}
	.st2{fill:#FFEC00;stroke:#1A171B;stroke-width:1.39;stroke-miterlimit:2.6131;}
	.st3{fill:#FFFFFF;stroke:#1A171B;stroke-width:1.39;stroke-miterlimit:2.6131;}
	.st4{fill:none;stroke:#1A171B;stroke-width:1.8533;stroke-miterlimit:2.6131;}
	.st5{fill:#00A6E2;stroke:#1A171B;stroke-width:1.39;stroke-miterlimit:2.6131;}
	.st6{fill:#E43417;stroke:#1A171B;stroke-width:1.39;stroke-miterlimit:2.6131;}
	.st7{fill:none;stroke:#1A171B;stroke-width:1.39;stroke-linecap:square;stroke-miterlimit:2.6131;}
	.st8{fill:none;stroke:#1A171B;stroke-width:4.6333;stroke-linecap:square;stroke-miterlimit:2.6131;}
	
		.st9{fill:none;stroke:#1A171B;stroke-width:4.6333;stroke-linecap:square;stroke-miterlimit:2.6131;stroke-dasharray:23.1665,23.1665;}
	.st10{fill:#1A171B;}
	.st11{fill:#3D3D3F;stroke:#1A171B;stroke-width:1.39;stroke-miterlimit:2.6131;}
</style>
<g>
	<g>
		<polygon class="st0" points="2.6,743.9 2.6,803.9 248.2,803.9 439.7,612.3 550.2,803.9 822.4,803.9 663.3,528.5 872.5,528.5 
			872.5,294.1 591.6,294.1 591.6,96.1 283.5,96.1 283.5,294.1 2.6,294.1 2.6,528.5 217.8,528.5 		"/>
		<path class="st1" d="M2.5,782.7V804h207.1l212.6-212.7c10.6-11.8,27.3-14.3,37.2,0.5l122.4,212.1h209L636.1,536.3
			c-7.2-18.6-1.3-34.5,25.5-35.2h211V321.4H601c-27.1,0-36.9-10.2-36.7-36.5V96.1H310.6V285c-0.1,26.9-9.6,36.5-36.7,36.5H2.6v179.7
			h227.8c24.4,4.9,28.5,24.9,15,38.8L2.5,782.7L2.5,782.7z"/>
		<path class="st2" d="M822.8,346.8c-13.3-2-31.5-4.8-50.9-5c-15.5,0-31.1,0-46.8,0c-20.5,1.4-36.8,0.8-52.6,5.7
			c-3.1,0.8-10.4,5.2-10.4,10.5v39.6c0,6.3,8.2,8.1,10.4,8.7c15.7,3.8,32.1,5.4,52.4,5.4h47.3c18.4,0,36.8-2,50.7-4.6
			c3.9-0.8,10.6-1.6,10.6-9.9v-40C833.4,346.4,828.3,347.6,822.8,346.8L822.8,346.8z"/>
		<path class="st3" d="M728.3,351.8l-17.2-2.7c-6.7,18.9-6.1,35.8,0,55.9l17.2-2.5C724,382.4,723.5,372.7,728.3,351.8L728.3,351.8z"
			/>
		<path class="st3" d="M801.1,352.8l-10.6,3.6c2.7,14.3,2.7,28.1,0.2,41.6l10.4,3.8C803.9,385.9,803.5,369,801.1,352.8L801.1,352.8z
			"/>
		<line class="st4" x1="784.3" y1="348.6" x2="734.8" y2="348.8"/>
		<line class="st4" x1="784.3" y1="405.1" x2="734.8" y2="405.3"/>
		<path class="st5" d="M41.1,415.5c13.3-2,31.5-4.8,50.9-5c15.5,0,31.1,0,46.8,0c20.5,1.4,36.8,0.8,52.6,5.7
			c3.1,0.8,10.4,5.2,10.4,10.5v39.6c0,6.3-8.2,8.1-10.4,8.7c-15.8,3.8-32.1,5.4-52.4,5.4H91.7c-18.4,0-36.8-2-50.7-4.6
			c-3.9-0.8-10.6-1.6-10.6-9.9v-40C30.5,415.1,35.6,416.3,41.1,415.5L41.1,415.5z"/>
		<path class="st3" d="M135.6,420.5l17.2-2.7c6.7,18.9,6.1,35.8,0,55.9l-17.2-2.5C139.9,451.1,140.3,441.4,135.6,420.5L135.6,420.5z
			"/>
		<path class="st3" d="M62.8,421.5l10.6,3.6c-2.7,14.3-2.7,28.1-0.2,41.6l-10.4,3.8C60,454.6,60.4,437.7,62.8,421.5L62.8,421.5z"/>
		<line class="st4" x1="79.6" y1="417.3" x2="129.1" y2="417.5"/>
		<line class="st4" x1="79.6" y1="473.8" x2="129.1" y2="474"/>
		<path class="st6" d="M400.7,134.9c2,13.3,4.8,31.5,5,50.9c0,15.5,0,31.1,0,46.8c-1.4,20.5-0.8,36.8-5.7,52.6
			c-0.8,3.1-5.2,10.4-10.5,10.4h-39.6c-6.3,0-8.1-8.2-8.7-10.4c-3.8-15.8-5.4-32.1-5.4-52.4v-47.3c0-18.4,2-36.8,4.6-50.7
			c0.8-3.9,1.6-10.6,9.9-10.6h40C401.1,124.2,399.9,129.3,400.7,134.9L400.7,134.9z"/>
		<path class="st3" d="M395.8,229.4l2.7,17.2c-18.9,6.7-35.8,6.1-55.9,0l2.5-17.2C365.1,233.7,374.8,234.1,395.8,229.4L395.8,229.4z
			"/>
		<path class="st3" d="M394.8,156.5l-3.6,10.6c-14.3-2.7-28.1-2.7-41.6-0.2l-3.8-10.4C361.7,153.7,378.5,154.1,394.8,156.5
			L394.8,156.5z"/>
		<line class="st4" x1="398.9" y1="173.3" x2="398.7" y2="222.8"/>
		<line class="st4" x1="342.4" y1="173.3" x2="342.2" y2="222.8"/>
		<path class="st7" d="M2.6,501.1h227.8c24.4,4.9,28.5,24.9,15,38.8L2.5,782.7 M209.6,803.9l212.6-212.7
			c10.6-11.8,27.3-14.3,37.2,0.5l122.4,212.1 M790.8,803.9L636.1,536.3c-7.2-18.6-1.3-34.5,25.5-35.2h211 M872.5,321.4H600.9
			c-27.1,0-36.9-10.2-36.7-36.5V96.1 M310.6,96.1V285c-0.1,26.9-9.6,36.5-36.7,36.5H2.6"/>
		<path class="st8" d="M283.5,96.1v198.1H2.6 M2.6,528.5h215.2L2.5,743.9 M248,803.9l191.5-191.6l110.6,191.6 M822.3,803.9
			l-159-275.4h209.2 M872.5,294.1H591.6V96"/>
		<path class="st9" d="M210.1,446.8c217.3-1.4,275.1-102.4,303.6-233.3"/>
		<path class="st9" d="M370.4,304.7c-19.2,71-73.6,67.5-166.7,66"/>
		<path class="st10" d="M82.1,338.9h22.6c4.5,0,7.8,0.2,10,0.6s4.2,1.1,5.9,2.3c1.7,1.2,3.2,2.8,4.3,4.7c1.2,2,1.7,4.2,1.7,6.6
			c0,2.6-0.7,5.1-2.1,7.3c-1.4,2.2-3.4,3.9-5.8,5c3.4,1,6.1,2.7,7.9,5.1c1.9,2.4,2.8,5.3,2.8,8.5c0,2.6-0.6,5.1-1.8,7.5
			s-2.8,4.4-4.9,5.8c-2.1,1.5-4.6,2.3-7.7,2.7c-1.9,0.2-6.5,0.3-13.8,0.4H81.9v-56.5H82.1z M93.6,348.4v13.1h7.5
			c4.5,0,7.2-0.1,8.3-0.2c2-0.2,3.5-0.9,4.6-2s1.7-2.6,1.7-4.4s-0.5-3.2-1.4-4.3c-1-1.1-2.4-1.8-4.3-2c-1.1-0.1-4.4-0.2-9.8-0.2
			H93.6L93.6,348.4z M93.6,370.9V386h10.6c4.1,0,6.7-0.1,7.8-0.3c1.7-0.3,3.1-1.1,4.2-2.3c1.1-1.2,1.6-2.8,1.6-4.8
			c0-1.7-0.4-3.1-1.2-4.3c-0.8-1.2-2-2.1-3.6-2.6s-4.9-0.8-10.1-0.8L93.6,370.9L93.6,370.9z"/>
		<polygon class="st10" points="428.1,225.5 428.1,168.9 439.5,168.9 439.5,191.2 461.9,191.2 461.9,168.9 473.3,168.9 473.3,225.5 
			461.9,225.5 461.9,200.8 439.5,200.8 439.5,225.5 		"/>
		<path class="st10" d="M736.8,428.7h20.9c4.7,0,8.3,0.4,10.8,1.1c3.3,1,6.2,2.7,8.5,5.2c2.4,2.5,4.2,5.5,5.4,9.2
			c1.2,3.6,1.8,8.1,1.8,13.4c0,4.7-0.6,8.7-1.7,12c-1.4,4.1-3.4,7.4-6.1,10c-2,1.9-4.7,3.4-8,4.5c-2.5,0.8-5.9,1.2-10.1,1.2h-21.5
			L736.8,428.7L736.8,428.7z M748.3,438.3v37.5h8.5c3.2,0,5.5-0.2,6.9-0.5c1.8-0.5,3.4-1.2,4.6-2.3c1.2-1.1,2.2-2.9,3-5.5
			c0.8-2.5,1.2-6,1.2-10.4s-0.4-7.7-1.2-10.1c-0.8-2.3-1.9-4.2-3.2-5.5c-1.4-1.3-3.2-2.2-5.3-2.7c-1.6-0.4-4.7-0.5-9.4-0.5H748.3
			L748.3,438.3z"/>
		<polygon class="st11" points="466.8,377.7 502,385.7 502,369.7 		"/>
		<polygon class="st11" points="517.8,177.6 505.7,213.3 522.3,215.1 		"/>
		<polygon class="st11" points="167.8,370.8 202.9,378.8 202.9,362.8 		"/>
		<line class="st9" x1="654.8" y1="377.7" x2="500.7" y2="377.7"/>
	</g>
</g>
</svg>
