<?xml version="1.0" encoding="utf-8"?>
<!-- Generator: Adobe Illustrator 19.2.0, SVG Export Plug-In . SVG Version: 6.00 Build 0)  -->
<svg version="1.1" id="Livello_1" xmlns="http://www.w3.org/2000/svg" xmlns:xlink="http://www.w3.org/1999/xlink" x="0px" y="0px"
	 viewBox="0 0 875 900" style="enable-background:new 0 0 875 900;" xml:space="preserve">
<style type="text/css">
	.st0{fill:#FFFFFF;}
	.st1{fill:#B9B9B9;}
	.st2{fill:#FFEC00;stroke:#1A171B;stroke-width:1.39;stroke-miterlimit:2.6131;}
	.st3{fill:#FFFFFF;stroke:#1A171B;stroke-width:1.39;stroke-miterlimit:2.6131;}
	.st4{fill:none;stroke:#1A171B;stroke-width:1.8533;stroke-miterlimit:2.6131;}
	.st5{fill:#E43417;stroke:#1A171B;stroke-width:1.39;stroke-miterlimit:2.6131;}
	.st6{fill:none;stroke:#1A171B;stroke-width:1.39;stroke-linecap:square;stroke-miterlimit:2.6131;}
	.st7{fill:none;stroke:#1A171B;stroke-width:4.6333;stroke-linecap:square;stroke-miterlimit:2.6131;}
	.st8{fill:#00A6E2;stroke:#1A171B;stroke-width:1.39;stroke-miterlimit:2.6131;}
	
		.st9{fill:none;stroke:#1A171B;stroke-width:4.6333;stroke-linecap:square;stroke-miterlimit:2.6131;stroke-dasharray:23.1665,23.1665;}
	.st10{fill:#3D3D3F;stroke:#1A171B;stroke-width:1.39;stroke-miterlimit:2.6131;}
	.st11{fill:#1A171B;}
</style>
<g>
	<g>
		<polygon class="st0" points="2.6,744.1 2.6,804.1 248.2,804.1 439.7,612.5 550.2,804.1 822.4,804.1 663.3,528.7 872.5,528.7 
			872.5,294.3 591.6,294.3 591.6,95.9 283.5,95.9 283.5,294.3 2.5,294.3 2.5,528.7 217.8,528.7 		"/>
		<path class="st1" d="M2.5,782.9v21.3h207.1l212.6-212.7c10.6-11.8,27.3-14.3,37.2,0.5l122.4,212.1h209L636.1,536.4
			c-7.2-18.6-1.3-34.5,25.5-35.2h210.9V321.6L601,321.7c-27.1,0-37-10.7-36.8-37V95.9H310.6v188.9c-0.1,26.9-9.5,36.8-36.6,36.8H2.5
			v179.7h228c24.4,4.9,28.4,24.9,14.9,38.8L2.5,782.9L2.5,782.9z"/>
		<path class="st2" d="M796.4,350.2c-13.3-2-31.5-4.8-50.9-5c-15.5,0-31.1,0-46.8,0c-20.5,1.4-36.8,0.8-52.6,5.7
			c-3.1,0.8-10.4,5.2-10.4,10.5V401c0,6.3,8.2,8.1,10.4,8.7c15.7,3.8,32.1,5.4,52.4,5.4h47.3c18.4,0,36.8-2,50.7-4.6
			c3.9-0.8,10.6-1.6,10.6-9.9v-40C807.1,349.8,802,351,796.4,350.2L796.4,350.2z"/>
		<path class="st3" d="M701.9,355.2l-17.2-2.7c-6.7,18.9-6.1,35.8,0,55.9l17.2-2.5C697.6,385.8,697.2,376.1,701.9,355.2L701.9,355.2
			z"/>
		<path class="st3" d="M774.8,356.2l-10.6,3.6c2.7,14.3,2.7,28.1,0.2,41.6l10.4,3.8C777.6,389.3,777.2,372.4,774.8,356.2
			L774.8,356.2z"/>
		<line class="st4" x1="758" y1="352" x2="708.5" y2="352.2"/>
		<line class="st4" x1="758" y1="408.5" x2="708.5" y2="408.7"/>
		<path class="st5" d="M400.7,135.1c2,13.3,4.8,31.5,5,50.9c0,15.5,0,31.1,0,46.8c-1.4,20.5-0.8,36.8-5.7,52.6
			c-0.8,3.1-5.2,10.4-10.5,10.4h-39.6c-6.3,0-8.1-8.2-8.7-10.4c-3.8-15.8-5.4-32.1-5.4-52.4v-47.3c0-18.4,2-36.8,4.6-50.7
			c0.8-3.9,1.6-10.6,9.9-10.6h40C401.1,124.4,399.9,129.5,400.7,135.1L400.7,135.1z"/>
		<path class="st3" d="M395.8,229.6l2.7,17.2c-18.9,6.8-35.8,6.1-55.9,0l2.5-17.2C365.1,233.9,374.8,234.3,395.8,229.6L395.8,229.6z
			"/>
		<path class="st3" d="M394.8,156.7l-3.6,10.6c-14.3-2.7-28.1-2.7-41.6-0.2l-3.8-10.4C361.7,153.9,378.5,154.3,394.8,156.7
			L394.8,156.7z"/>
		<line class="st4" x1="398.9" y1="173.5" x2="398.7" y2="223"/>
		<line class="st4" x1="342.4" y1="173.5" x2="342.2" y2="223"/>
		<path class="st6" d="M2.5,501.3h228c24.4,4.9,28.4,24.9,14.9,38.8L2.5,782.9 M209.6,804.1l212.6-212.7
			c10.6-11.8,27.3-14.3,37.2,0.5L581.8,804 M790.8,804.1L636.1,536.4c-7.2-18.6-1.3-34.5,25.5-35.2h210.9 M872.5,321.6H601
			c-27.1,0-37-10.6-36.8-36.8V95.9 M310.6,95.9v188.9c-0.1,26.9-9.5,36.8-36.6,36.8H2.5"/>
		<path class="st7" d="M283.5,95.9v198.4H2.5 M2.5,528.7h215.3L2.5,744.1 M248,804.1l191.5-191.6l110.6,191.6 M822.3,804.1
			l-159-275.4h209.2 M872.5,294.3H591.6V95.9"/>
		<path class="st8" d="M652.8,726.7c-8.6-10.4-20.3-24.5-30.6-41.1c-8-13.3-16.1-26.6-24.2-40.1c-9.4-18.2-18.3-31.9-22.2-48
			c-0.9-3-1-11.6,3.6-14.4l33.9-20.5c5.4-3.3,11.2,2.8,12.9,4.4c11.4,11.5,21.2,24.7,31.6,42.1l24.4,40.5
			c9.5,15.8,17.3,32.5,22.3,45.8c1.3,3.7,4.1,9.9-3,14.2l-34.3,20.7C658,736,656.3,731,652.8,726.7L652.8,726.7z"/>
		<path class="st3" d="M608.2,643.2L597,629.9c12.7-15.5,27.5-23.7,47.9-28.9l6.8,16C632.2,623.7,623.8,628.4,608.2,643.2
			L608.2,643.2z"/>
		<path class="st3" d="M646.7,705.1l-2.4-11c13.6-5.1,25.5-12.3,35.7-21.3l8.6,7C676.5,690.4,661.9,698.8,646.7,705.1L646.7,705.1z"
			/>
		<line class="st4" x1="634.5" y1="692.8" x2="609.1" y2="650.4"/>
		<line class="st4" x1="682.8" y1="663.7" x2="657.4" y2="621.2"/>
		<path class="st9" d="M626.7,380.3c-150.3,4.4-251.9,87-385.8,225"/>
		<polygon class="st10" points="507.3,243.1 498.7,279.8 515.4,279.9 		"/>
		<path class="st9" d="M592.4,568.9c-63.8-99.4-84.5-186-84.6-287.6"/>
		<polygon class="st10" points="216.1,630.4 248,610.2 236.1,598.4 		"/>
		<path class="st9" d="M371.1,303.9c-0.4,127.2-31.8,189.1-129.5,300.6"/>
		<polygon class="st11" points="560.9,713.2 560.9,656.5 572.4,656.5 572.4,703.5 601.1,703.5 601.1,713.2 		"/>
		<path class="st11" d="M747.7,468.2l10.7,3.4c-1.6,6-4.4,10.4-8.2,13.3s-8.7,4.3-14.5,4.3c-7.3,0-13.2-2.5-17.9-7.4
			c-4.7-5-7-11.8-7-20.4c0-9.1,2.4-16.2,7.1-21.2c4.7-5,10.9-7.6,18.6-7.6c6.7,0,12.1,2,16.3,5.9c2.5,2.3,4.4,5.7,5.6,10.1
			l-10.9,2.6c-0.6-2.8-2-5.1-4.1-6.7s-4.6-2.5-7.5-2.5c-4.1,0-7.4,1.5-9.9,4.4s-3.8,7.6-3.8,14.1c0,6.9,1.2,11.9,3.7,14.8
			s5.7,4.4,9.7,4.4c2.9,0,5.5-0.9,7.6-2.8C745.2,475.2,746.7,472.2,747.7,468.2L747.7,468.2z"/>
		<polygon class="st11" points="429.4,225.5 429.4,168.9 471.4,168.9 471.4,178.5 440.9,178.5 440.9,191.1 469.3,191.1 469.3,200.6 
			440.9,200.6 440.9,216 472.5,216 472.5,225.5 		"/>
	</g>
</g>
</svg>
