<?xml version="1.0" encoding="utf-8"?>
<!-- Generator: Adobe Illustrator 19.2.0, SVG Export Plug-In . SVG Version: 6.00 Build 0)  -->
<svg version="1.1" id="Livello_1" xmlns="http://www.w3.org/2000/svg" xmlns:xlink="http://www.w3.org/1999/xlink" x="0px" y="0px"
	 viewBox="0 0 875 900" style="enable-background:new 0 0 875 900;" xml:space="preserve">
<style type="text/css">
	.st0{fill:#FFFFFF;}
	.st1{fill:#B9B9B9;}
	.st2{fill:#FFEC00;stroke:#1A171B;stroke-width:1.39;stroke-miterlimit:2.6131;}
	.st3{fill:#FFFFFF;stroke:#1A171B;stroke-width:1.39;stroke-miterlimit:2.6131;}
	.st4{fill:none;stroke:#1A171B;stroke-width:1.8533;stroke-miterlimit:2.6131;}
	.st5{fill:#3D3D3F;stroke:#1A171B;stroke-width:1.39;stroke-miterlimit:2.6131;}
	.st6{fill:#1A171B;}
	.st7{fill:#00A6E2;stroke:#1A171B;stroke-width:1.39;stroke-miterlimit:2.6131;}
	.st8{fill:#E43417;stroke:#1A171B;stroke-width:1.39;stroke-miterlimit:2.6131;}
	.st9{fill:none;stroke:#1A171B;stroke-width:1.39;stroke-linecap:square;stroke-miterlimit:2.6131;}
	.st10{fill:none;stroke:#1A171B;stroke-width:4.6334;stroke-linecap:square;stroke-miterlimit:2.6131;}
	
		.st11{fill:none;stroke:#1A171B;stroke-width:4.6334;stroke-linecap:square;stroke-miterlimit:2.6131;stroke-dasharray:23.1668,23.1668;}
</style>
<g>
	<g>
		<polygon class="st0" points="2.6,744.1 2.6,804.1 248.2,804.1 439.7,612.5 550.2,804.1 822.4,804.1 663.4,528.6 872.5,528.6 
			872.5,294.2 591.7,294.2 591.7,96.3 283.5,96.3 283.5,294.2 2.6,294.2 2.6,528.6 218,528.6 		"/>
		<path class="st1" d="M2.5,782.8v21.3h207.1l212.6-212.7c10.6-11.8,27.3-14.3,37.2,0.5L581.8,804h209L636.1,536.4
			c-7.2-18.6-1.3-34.5,25.5-35.2h210.9V321.6L601,321.7c-27.1,0-36.9-10.3-36.7-36.6l-0.1-189.2H310.5v189.2
			c-0.1,26.9-9.4,36.6-36.6,36.6L2.5,321.6v179.7h228c24.4,4.9,28.4,24.8,14.9,38.7L2.5,782.8L2.5,782.8z"/>
		<path class="st2" d="M816.5,356.4c-13.3-2-31.5-4.8-50.9-5c-15.5,0-31.1,0-46.8,0c-20.5,1.4-36.8,0.8-52.6,5.7
			c-3.1,0.8-10.4,5.2-10.4,10.5v39.6c0,6.3,8.2,8.1,10.4,8.7c15.7,3.8,32.1,5.4,52.4,5.4h47.3c18.4,0,36.8-2,50.7-4.6
			c3.9-0.8,10.6-1.6,10.6-9.9v-40C827.1,356,822,357.2,816.5,356.4L816.5,356.4z"/>
		<path class="st3" d="M722,361.4l-17.2-2.7c-6.7,18.9-6.1,35.8,0,55.9l17.2-2.5C717.7,392,717.3,382.4,722,361.4L722,361.4z"/>
		<path class="st3" d="M794.8,362.4l-10.6,3.6c2.7,14.3,2.7,28.1,0.2,41.6l10.4,3.8C797.7,395.5,797.3,378.6,794.8,362.4
			L794.8,362.4z"/>
		<line class="st4" x1="778" y1="358.2" x2="728.5" y2="358.4"/>
		<line class="st4" x1="778" y1="414.7" x2="728.5" y2="414.9"/>
		<polygon class="st5" points="522,213.9 506.6,248.3 523,251.6 		"/>
		<polygon class="st5" points="208.4,628.6 240.3,608.5 228.4,596.7 		"/>
		<polygon class="st5" points="293.6,564.7 325.5,544.5 313.6,532.7 		"/>
		<path class="st6" d="M145.3,395.8h-12.7l-5-13.1h-23.1l-4.8,13.1H87.3l22.5-57.8h12.3L145.3,395.8L145.3,395.8z M123.8,372.9
			l-8-21.5l-7.8,21.5H123.8L123.8,372.9z"/>
		<path class="st6" d="M722,433.4h23.1c4.6,0,8,0.2,10.2,0.6s4.3,1.2,6,2.4c1.8,1.2,3.2,2.8,4.4,4.8s1.8,4.3,1.8,6.8
			c0,2.7-0.7,5.2-2.2,7.5s-3.4,4-5.9,5.1c3.5,1,6.2,2.8,8.1,5.2c1.9,2.5,2.8,5.4,2.8,8.7c0,2.6-0.6,5.2-1.8,7.7s-2.9,4.5-5,6
			s-4.7,2.4-7.8,2.7c-1.9,0.2-6.6,0.3-14.1,0.4h-19.7v-57.9H722z M733.7,443v13.4h7.6c4.5,0,7.4-0.1,8.5-0.2c2-0.2,3.6-0.9,4.7-2.1
			c1.1-1.1,1.7-2.7,1.7-4.5s-0.5-3.2-1.5-4.4c-1-1.1-2.5-1.8-4.4-2c-1.2-0.1-4.5-0.2-10-0.2L733.7,443L733.7,443z M733.7,466v15.5
			h10.8c4.2,0,6.9-0.1,8-0.4c1.7-0.3,3.1-1.1,4.2-2.3c1.1-1.2,1.6-2.9,1.6-4.9c0-1.7-0.4-3.2-1.3-4.4c-0.8-1.2-2.1-2.1-3.7-2.7
			c-1.6-0.6-5-0.8-10.4-0.8L733.7,466L733.7,466z"/>
		<polygon class="st6" points="420.6,239.6 420.6,181.8 463.5,181.8 463.5,191.6 432.3,191.6 432.3,204.4 461.3,204.4 461.3,214.1 
			432.3,214.1 432.3,229.9 464.6,229.9 464.6,239.6 		"/>
		<path class="st7" d="M41.1,415.7c13.3-2,31.5-4.8,50.9-5c15.5,0,31.1,0,46.8,0c20.5,1.4,36.8,0.8,52.6,5.7
			c3.1,0.8,10.4,5.2,10.4,10.5v39.6c0,6.3-8.2,8.1-10.4,8.7c-15.8,3.8-32.1,5.4-52.4,5.4H91.7c-18.4,0-36.8-2-50.7-4.6
			c-3.9-0.8-10.6-1.6-10.6-9.9v-40C30.5,415.3,35.6,416.5,41.1,415.7L41.1,415.7z"/>
		<path class="st3" d="M135.6,420.6l17.2-2.7c6.7,18.9,6.1,35.8,0,55.9l-17.2-2.5C139.9,451.3,140.3,441.6,135.6,420.6L135.6,420.6z
			"/>
		<path class="st3" d="M62.8,421.6l10.6,3.6c-2.7,14.3-2.7,28.1-0.2,41.6l-10.4,3.8C60,454.7,60.4,437.9,62.8,421.6L62.8,421.6z"/>
		<line class="st4" x1="79.6" y1="417.5" x2="129.1" y2="417.7"/>
		<line class="st4" x1="79.6" y1="474" x2="129.1" y2="474.2"/>
		<path class="st8" d="M400.7,135c2,13.3,4.8,31.5,5,50.9c0,15.5,0,31.1,0,46.8c-1.4,20.5-0.8,36.8-5.7,52.6
			c-0.8,3.1-5.2,10.4-10.5,10.4h-39.6c-6.3,0-8.1-8.2-8.7-10.4c-3.8-15.8-5.4-32.1-5.4-52.4v-47.3c0-18.4,2-36.8,4.6-50.7
			c0.8-3.9,1.6-10.6,9.9-10.6h40C401.1,124.4,399.9,129.5,400.7,135L400.7,135z"/>
		<path class="st3" d="M395.8,229.5l2.7,17.2c-18.9,6.8-35.8,6.1-55.9,0l2.5-17.2C365.1,233.8,374.8,234.2,395.8,229.5L395.8,229.5z
			"/>
		<path class="st3" d="M394.8,156.7l-3.6,10.6c-14.3-2.7-28.1-2.7-41.6-0.2l-3.8-10.4C361.7,153.8,378.5,154.3,394.8,156.7
			L394.8,156.7z"/>
		<line class="st4" x1="398.9" y1="173.5" x2="398.7" y2="223"/>
		<line class="st4" x1="342.4" y1="173.5" x2="342.2" y2="223"/>
		<path class="st9" d="M2.5,501.3h228c24.4,4.9,28.4,24.8,14.9,38.7L2.5,782.8 M209.6,804.1l212.6-212.7
			c10.6-11.8,27.3-14.3,37.2,0.5L581.8,804 M790.8,804.1L636.1,536.4c-7.2-18.6-1.3-34.5,25.5-35.2h210.9 M872.5,321.6L601,321.7
			c-27.1,0-36.9-10.3-36.7-36.6l-0.1-189.2 M310.7,96.3l-0.2,188.8c-0.1,26.9-9.4,36.6-36.6,36.6L2.5,321.6"/>
		<path class="st10" d="M283.4,95.9v198.3H2.5 M2.5,528.6h215.4L2.5,744.1 M248.1,804.1l191.5-191.6l110.6,191.6 M822.3,804.1
			l-159-275.5l209.1,0.2 M872.4,294.2H591.6V96.3"/>
		<path class="st11" d="M204.8,447c159.4,0.9,280.8-74.6,309.3-194.8"/>
		<path class="st11" d="M371.1,298.9C370.7,426.1,306,528.5,234.9,601"/>
		<path class="st11" d="M654.3,386.5c-150.3,4.4-237.7,56.1-334.2,151.4"/>
	</g>
</g>
</svg>
