<?xml version="1.0" encoding="utf-8"?>
<!-- Generator: Adobe Illustrator 19.2.0, SVG Export Plug-In . SVG Version: 6.00 Build 0)  -->
<svg version="1.1" id="Livello_1" xmlns="http://www.w3.org/2000/svg" xmlns:xlink="http://www.w3.org/1999/xlink" x="0px" y="0px"
	 viewBox="0 0 875 900" style="enable-background:new 0 0 875 900;" xml:space="preserve">
<style type="text/css">
	.st0{fill:#FFFFFF;}
	.st1{fill:#B9B9B9;}
	.st2{fill:#FFEC00;stroke:#1A171B;stroke-width:1.39;stroke-miterlimit:2.6131;}
	.st3{fill:#FFFFFF;stroke:#1A171B;stroke-width:1.39;stroke-miterlimit:2.6131;}
	.st4{fill:none;stroke:#1A171B;stroke-width:1.8534;stroke-miterlimit:2.6131;}
	.st5{fill:#3D3D3F;stroke:#1A171B;stroke-width:1.39;stroke-miterlimit:2.6131;}
	.st6{fill:#E43417;stroke:#1A171B;stroke-width:1.39;stroke-miterlimit:2.6131;}
	.st7{fill:none;stroke:#1A171B;stroke-width:1.39;stroke-linecap:square;stroke-miterlimit:2.6131;}
	.st8{fill:none;stroke:#1A171B;stroke-width:4.6334;stroke-linecap:square;stroke-miterlimit:2.6131;}
	.st9{fill:none;stroke:#FFFFFF;stroke-width:1.8534;stroke-miterlimit:2.6131;}
	.st10{fill:#00A6E2;stroke:#1A171B;stroke-width:1.39;stroke-miterlimit:2.6131;}
	
		.st11{fill:none;stroke:#1A171B;stroke-width:4.6334;stroke-linecap:square;stroke-miterlimit:2.6131;stroke-dasharray:23.1669,23.1669;}
	.st12{fill:#1A171B;}
</style>
<g>
	<g>
		<polygon class="st0" points="2.6,744.1 2.6,804.1 248.2,804.1 439.7,612.5 550.2,804.1 822.4,804.1 663.3,528.6 872.5,528.6 
			872.5,294.2 591.6,294.2 591.7,96.3 283.5,96.3 283.4,294.2 2.6,294.2 2.6,528.6 217.8,528.6 		"/>
		<path class="st1" d="M2.5,782.8v21.3h207.1l212.6-212.7c10.6-11.8,27.3-14.3,37.2,0.5L581.8,804h209L636.1,536.4
			c-7.2-18.6-1.4-34.6,25.4-35.3h211V321.5H601c-27.1,0-36.7-10.3-36.5-36.5V96.3H310.6V285c-0.1,26.9-9.6,36.5-36.7,36.5H2.6v179.7
			h227.7c24.4,4.9,28.6,25,15,38.9L2.5,782.8L2.5,782.8z"/>
		<path class="st2" d="M799.5,348.5c-13.3-2-31.5-4.8-50.9-5c-15.5,0-31.1,0-46.9,0c-20.5,1.4-36.8,0.8-52.6,5.8
			c-3.1,0.8-10.4,5.2-10.4,10.5v39.6c0,6.3,8.2,8.1,10.4,8.7c15.7,3.8,32.1,5.4,52.4,5.4h47.3c18.4,0,36.8-2,50.7-4.6
			c3.9-0.8,10.6-1.6,10.6-9.9v-40C810.1,348.1,805,349.3,799.5,348.5L799.5,348.5z"/>
		<path class="st3" d="M705,353.5l-17.2-2.7c-6.7,18.9-6.1,35.8,0,55.9l17.2-2.5C700.7,384.1,700.3,374.4,705,353.5L705,353.5z"/>
		<path class="st3" d="M777.8,354.5l-10.6,3.6c2.7,14.3,2.7,28.1,0.2,41.6l10.4,3.8C780.7,387.6,780.3,370.7,777.8,354.5
			L777.8,354.5z"/>
		<line class="st4" x1="761" y1="350.3" x2="711.5" y2="350.5"/>
		<line class="st4" x1="761" y1="406.8" x2="711.5" y2="407"/>
		<polygon class="st5" points="238.9,598.8 270.7,578.6 258.9,566.8 		"/>
		<path class="st6" d="M390.8,130.8c2,13.3,4.8,31.5,5,50.9c0,15.5,0,31.1,0,46.8c-1.4,20.5-0.8,36.8-5.7,52.6
			c-0.8,3.1-5.2,10.4-10.5,10.4H340c-6.3,0-8.1-8.2-8.7-10.4c-3.8-15.7-5.4-32.1-5.4-52.4v-47.3c0-18.4,2-36.8,4.6-50.7
			c0.8-3.9,1.6-10.6,9.9-10.6h40C391.2,120.1,390,125.2,390.8,130.8L390.8,130.8z"/>
		<path class="st3" d="M385.8,225.3l2.7,17.2c-18.9,6.8-35.8,6.1-55.9,0l2.5-17.2C355.2,229.6,364.9,230,385.8,225.3L385.8,225.3z"
			/>
		<path class="st3" d="M384.8,152.5l-3.6,10.6c-14.3-2.7-28.1-2.7-41.6-0.2l-3.8-10.4C351.7,149.6,368.6,150,384.8,152.5
			L384.8,152.5z"/>
		<line class="st4" x1="389" y1="169.2" x2="388.8" y2="218.7"/>
		<line class="st4" x1="332.5" y1="169.2" x2="332.3" y2="218.7"/>
		<path class="st7" d="M2.6,501.1h227.7c24.4,4.9,28.6,25,15,38.9L2.5,782.8 M209.6,804.1l212.6-212.7c10.6-11.8,27.3-14.3,37.2,0.5
			L581.8,804 M790.8,804.1L636.1,536.4c-7.2-18.6-1.4-34.6,25.4-35.3h211 M872.5,321.5H601c-27.1,0-36.7-10.3-36.5-36.5V96.3
			 M310.6,96.3V285c-0.1,26.9-9.6,36.5-36.7,36.5H2.6"/>
		<path class="st8" d="M283.4,95.9v198.3H2.6 M2.6,528.6h215.2L2.5,744.1 M248.1,804.1l191.5-191.6l110.6,191.6 M822.3,804.1
			l-159-275.5h209.2 M872.5,294.2H591.6l-0.1-197.9"/>
		<polygon class="st5" points="740.5,458.2 703.7,449.8 703.7,466.5 		"/>
		<path class="st5" d="M636.1,694.9c-8.6-10.4-20.3-24.5-30.5-41c-8-13.3-16.1-26.6-24.2-40.1c-9.4-18.2-18.3-31.9-22.2-48
			c-0.9-3-1-11.6,3.6-14.4l33.9-20.5c5.4-3.3,11.2,2.8,12.9,4.4c11.4,11.5,21.2,24.7,31.6,42.1l24.4,40.5
			c9.5,15.8,17.3,32.5,22.3,45.8c1.3,3.7,4.1,9.9-3,14.2l-34.3,20.7C641.3,704.3,639.7,699.3,636.1,694.9L636.1,694.9z"/>
		<path class="st3" d="M591.6,611.5l-11.2-13.3c12.7-15.5,27.5-23.7,47.9-28.9l6.8,16C615.6,592,607.1,596.6,591.6,611.5
			L591.6,611.5z"/>
		<path class="st3" d="M630,673.3l-2.4-10.9c13.6-5.1,25.5-12.3,35.7-21.3l8.6,7C659.8,658.7,645.2,667,630,673.3L630,673.3z"/>
		<line class="st9" x1="617.8" y1="661.1" x2="592.4" y2="618.6"/>
		<line class="st9" x1="666.2" y1="631.9" x2="640.8" y2="589.4"/>
		<path class="st10" d="M227.7,672.8c8-10.8,18.9-25.7,32.4-39.6c11-11,21.9-22,33.1-33.2c15.4-13.5,26.6-25.5,41.2-33.2
			c2.7-1.6,11-3.8,14.8,0l28.1,28c4.5,4.5,0,11.5-1.2,13.5c-8.4,13.8-18.9,26.5-33.2,40.9l-33.4,33.5c-13,13-27.4,24.7-39,32.7
			c-3.3,2.2-8.6,6.4-14.5,0.5l-28.4-28.3C219.9,680,224.3,677.2,227.7,672.8L227.7,672.8z"/>
		<path class="st3" d="M297.9,609.3l10.2-14.1c18.2,8.6,29.7,20.9,39.6,39.5l-13.9,10.4C322.6,627.9,316.1,620.8,297.9,609.3
			L297.9,609.3z"/>
		<path class="st3" d="M247.2,661.6l10-5c8.2,12,18.1,21.7,29.3,29.5l-4.7,10C268.6,687,257,674.8,247.2,661.6L247.2,661.6z"/>
		<line class="st4" x1="256.1" y1="646.8" x2="291.2" y2="611.9"/>
		<line class="st4" x1="296.1" y1="686.7" x2="331.2" y2="651.7"/>
		<path class="st11" d="M368.9,573.8c99.7-100.8,183.4-118,332-116"/>
		<path class="st11" d="M573.4,533.9c-72.2-101.5-184.7-86.8-309.4,39.2"/>
		<path class="st11" d="M359.8,300.3c-0.4,127.2,1.2,158.6-95.1,273"/>
		<path class="st11" d="M629,378.4c-161.6,13-218,31.4-364.7,195"/>
		<path class="st12" d="M797.1,427.7h22.6c4.5,0,7.8,0.2,10,0.6s4.2,1.1,5.9,2.3c1.7,1.2,3.2,2.8,4.3,4.7c1.2,2,1.7,4.2,1.7,6.6
			c0,2.6-0.7,5.1-2.1,7.3c-1.4,2.2-3.4,3.9-5.8,5c3.4,1,6.1,2.7,7.9,5.1c1.9,2.4,2.8,5.3,2.8,8.5c0,2.6-0.6,5.1-1.8,7.5
			s-2.8,4.4-4.9,5.8c-2.1,1.5-4.6,2.4-7.7,2.7c-1.9,0.2-6.5,0.3-13.8,0.4h-19.3v-56.5H797.1z M808.6,437.2v13.1h7.5
			c4.5,0,7.2-0.1,8.3-0.2c2-0.2,3.5-0.9,4.6-2s1.7-2.6,1.7-4.4s-0.5-3.2-1.4-4.3c-1-1.1-2.4-1.8-4.3-2c-1.1-0.1-4.4-0.2-9.8-0.2
			H808.6L808.6,437.2z M808.6,459.7v15.1h10.6c4.1,0,6.7-0.1,7.8-0.3c1.7-0.3,3.1-1.1,4.2-2.3c1.1-1.2,1.6-2.8,1.6-4.8
			c0-1.7-0.4-3.1-1.2-4.3c-0.8-1.2-2-2.1-3.6-2.6s-4.9-0.8-10.1-0.8L808.6,459.7L808.6,459.7z"/>
		<path class="st12" d="M534.7,632.7h20.9c4.7,0,8.3,0.4,10.8,1.1c3.3,1,6.2,2.7,8.5,5.2c2.4,2.5,4.2,5.5,5.4,9.2
			c1.2,3.6,1.8,8.1,1.8,13.4c0,4.7-0.6,8.7-1.7,12.1c-1.4,4.1-3.4,7.4-6.1,10c-2,1.9-4.7,3.4-8,4.5c-2.5,0.8-5.9,1.2-10.1,1.2h-21.5
			L534.7,632.7L534.7,632.7z M546.1,642.3v37.5h8.5c3.2,0,5.5-0.2,6.9-0.5c1.8-0.5,3.4-1.2,4.6-2.4c1.2-1.1,2.2-2.9,3-5.5
			c0.8-2.5,1.2-6,1.2-10.4s-0.4-7.7-1.2-10.1c-0.8-2.3-1.9-4.2-3.2-5.5c-1.4-1.3-3.2-2.2-5.3-2.7c-1.6-0.4-4.7-0.5-9.4-0.5h-5.1
			V642.3z"/>
		<path class="st12" d="M415,220.6V164h24.1c6.1,0,10.4,0.5,13.2,1.5c2.7,1,4.9,2.8,6.6,5.4c1.6,2.6,2.5,5.6,2.5,8.9
			c0,4.2-1.3,7.8-3.7,10.5c-2.5,2.8-6.2,4.5-11.2,5.2c2.5,1.4,4.5,3,6.1,4.8c1.6,1.7,3.8,4.8,6.5,9.2l6.9,11h-13.7l-8.3-12.3
			c-2.9-4.4-4.9-7.2-6-8.3s-2.2-1.9-3.4-2.4c-1.2-0.4-3.1-0.6-5.8-0.6h-2.3v23.6H415V220.6z M426.4,187.9h8.4
			c5.5,0,8.9-0.2,10.3-0.7s2.4-1.3,3.2-2.4c0.8-1.1,1.2-2.5,1.2-4.2c0-1.9-0.5-3.4-1.5-4.6c-1-1.2-2.5-1.9-4.3-2.2
			c-0.9-0.1-3.7-0.2-8.3-0.2h-8.9v14.3H426.4z"/>
		<polygon class="st12" points="201.4,771.7 201.4,724.6 184.6,724.6 184.6,715 229.6,715 229.6,724.6 212.9,724.6 212.9,771.7 		
			"/>
	</g>
</g>
</svg>
