<?xml version="1.0" encoding="utf-8"?>
<!-- Generator: Adobe Illustrator 19.2.0, SVG Export Plug-In . SVG Version: 6.00 Build 0)  -->
<svg version="1.1" id="Livello_1" xmlns="http://www.w3.org/2000/svg" xmlns:xlink="http://www.w3.org/1999/xlink" x="0px" y="0px"
	 viewBox="0 0 875 900" style="enable-background:new 0 0 875 900;" xml:space="preserve">
<style type="text/css">
	.st0{fill:#FFFFFF;}
	.st1{fill:#B9B9B9;}
	.st2{fill:#FFEC00;stroke:#1A171B;stroke-width:1.39;stroke-miterlimit:2.6131;}
	.st3{fill:#FFFFFF;stroke:#1A171B;stroke-width:1.39;stroke-miterlimit:2.6131;}
	.st4{fill:none;stroke:#1A171B;stroke-width:1.8533;stroke-miterlimit:2.6131;}
	.st5{fill:#E43417;stroke:#1A171B;stroke-width:1.39;stroke-miterlimit:2.6131;}
	.st6{fill:none;stroke:#1A171B;stroke-width:1.39;stroke-linecap:square;stroke-miterlimit:2.6131;}
	.st7{fill:none;stroke:#1A171B;stroke-width:4.6334;stroke-linecap:square;stroke-miterlimit:2.6131;}
	.st8{fill:#00A6E2;stroke:#1A171B;stroke-width:1.39;stroke-miterlimit:2.6131;}
	.st9{fill:#049853;stroke:#1A171B;stroke-width:1.39;stroke-miterlimit:2.6131;}
	.st10{fill:#1A171B;}
	.st11{fill:#3D3D3F;stroke:#1A171B;stroke-width:1.39;stroke-miterlimit:2.6131;}
	
		.st12{fill:none;stroke:#1A171B;stroke-width:4.6334;stroke-linecap:square;stroke-miterlimit:2.6131;stroke-dasharray:23.1668,23.1668;}
</style>
<g>
	<g>
		<polygon class="st0" points="2.6,743.9 2.6,803.9 248.2,803.9 439.7,612.3 550.2,803.9 822.4,803.9 663.4,528.4 872.5,528.4 
			872.5,294.1 591.6,294.1 591.7,96.1 283.5,96.1 283.5,294.1 2.6,294.1 2.6,528.5 217.8,528.5 		"/>
		<path class="st1" d="M2.5,782.7V804h207.1l212.6-212.7c10.6-11.8,27.3-14.3,37.2,0.5l122.4,212.1h209L636.1,536.3
			c-7.2-18.6-1.3-34.5,25.5-35.2h210.9v-180H601c-27.1,0-37-9.8-36.8-36.1V96H310.6v189c-0.1,26.9-9.6,36.1-36.7,36.1H2.6V501h227.8
			c24.4,4.9,28.5,25,14.9,38.8L2.5,782.7L2.5,782.7z"/>
		<path class="st2" d="M813.8,349.1c-13.3-2-31.5-4.8-50.9-5c-15.5,0-31.1,0-46.8,0c-20.5,1.4-36.8,0.8-52.6,5.7
			c-3.1,0.8-10.4,5.2-10.4,10.5V400c0,6.3,8.2,8.1,10.4,8.7c15.8,3.8,32.1,5.4,52.4,5.4h47.3c18.4,0,36.8-2,50.7-4.6
			c3.9-0.8,10.6-1.6,10.6-9.9v-40C824.4,348.7,819.3,349.9,813.8,349.1L813.8,349.1z"/>
		<path class="st3" d="M719.3,354l-17.2-2.7c-6.8,18.9-6.1,35.8,0,55.9l17.2-2.5C715,384.7,714.6,375,719.3,354L719.3,354z"/>
		<path class="st3" d="M792.1,355l-10.6,3.6c2.7,14.3,2.7,28.1,0.2,41.6l10.4,3.8C795,388.1,794.6,371.3,792.1,355L792.1,355z"/>
		<line class="st4" x1="775.3" y1="350.9" x2="725.8" y2="351.1"/>
		<line class="st4" x1="775.3" y1="407.4" x2="725.8" y2="407.6"/>
		<path class="st5" d="M400.7,134.9c2,13.3,4.8,31.5,5,50.9c0,15.5,0,31.1,0,46.8c-1.4,20.5-0.8,36.8-5.7,52.6
			c-0.8,3.1-5.2,10.4-10.5,10.4h-39.6c-6.3,0-8.1-8.2-8.7-10.4c-3.8-15.8-5.4-32.1-5.4-52.4v-47.3c0-18.4,2-36.8,4.6-50.7
			c0.8-3.9,1.6-10.6,9.9-10.6h40C401.1,124.2,399.9,129.3,400.7,134.9L400.7,134.9z"/>
		<path class="st3" d="M395.8,229.4l2.7,17.2c-18.9,6.8-35.8,6.1-55.9,0l2.5-17.2C365.1,233.7,374.8,234.1,395.8,229.4L395.8,229.4z
			"/>
		<path class="st3" d="M394.8,156.5l-3.6,10.6c-14.3-2.7-28.1-2.7-41.6-0.2l-3.8-10.4C361.7,153.7,378.5,154.1,394.8,156.5
			L394.8,156.5z"/>
		<line class="st4" x1="398.9" y1="173.3" x2="398.7" y2="222.8"/>
		<line class="st4" x1="342.4" y1="173.3" x2="342.2" y2="222.8"/>
		<path class="st6" d="M2.6,501h227.8c24.4,4.9,28.5,25,14.9,38.8L2.5,782.7 M209.6,803.9l212.6-212.7c10.6-11.8,27.3-14.3,37.2,0.5
			l122.4,212.1 M790.8,803.9L636.1,536.3c-7.2-18.6-1.4-34.6,25.4-35.3h211 M872.5,321.1H601c-27.1,0-37-9.8-36.8-36.1V96
			 M310.6,96.1v189c-0.1,26.9-9.6,36.1-36.7,36.1H2.6"/>
		<path class="st7" d="M283.5,96.1v198H2.6 M2.6,528.5h215.2L2.5,743.9 M248.1,803.9l191.5-191.6l110.6,191.6 M822.3,803.9
			l-159-275.5h209.2 M872.5,294.1H591.6v-198"/>
		<path class="st8" d="M630.8,692.1c-8.6-10.4-20.3-24.5-30.6-41.1c-8-13.3-16.1-26.6-24.2-40.1c-9.4-18.2-18.3-31.9-22.2-48
			c-0.9-3-1-11.6,3.6-14.4l33.9-20.5c5.4-3.3,11.2,2.8,12.9,4.4c11.4,11.5,21.2,24.7,31.6,42.1l24.4,40.5
			c9.5,15.8,17.3,32.5,22.3,45.8c1.3,3.7,4.1,9.9-3,14.2l-34.3,20.7C635.9,701.4,634.3,696.4,630.8,692.1L630.8,692.1z"/>
		<path class="st3" d="M586.2,608.6L575,595.3c12.7-15.5,27.5-23.7,47.9-28.9l6.8,16C610.2,589.1,601.7,593.8,586.2,608.6
			L586.2,608.6z"/>
		<path class="st3" d="M624.7,670.5l-2.4-11c13.6-5.1,25.5-12.3,35.7-21.3l8.6,7C654.5,655.8,639.8,664.2,624.7,670.5L624.7,670.5z"
			/>
		<line class="st4" x1="612.4" y1="658.3" x2="587" y2="615.8"/>
		<line class="st4" x1="660.8" y1="629.1" x2="635.4" y2="586.6"/>
		<path class="st9" d="M215.7,680.5c8-10.8,18.9-25.7,32.4-39.6c11-11,21.9-22,33.1-33.2c15.4-13.5,26.6-25.5,41.2-33.2
			c2.7-1.6,11-3.8,14.8,0l28.1,28c4.5,4.5,0,11.5-1.2,13.5c-8.4,13.8-18.9,26.5-33.2,40.9l-33.4,33.6c-13,13-27.4,24.7-39,32.7
			c-3.3,2.2-8.6,6.4-14.5,0.5l-28.4-28.3C207.9,687.8,212.3,685,215.7,680.5L215.7,680.5z"/>
		<path class="st3" d="M285.9,617.1l10.2-14.1c18.2,8.6,29.7,20.9,39.6,39.5l-13.9,10.4C310.6,635.6,304.1,628.5,285.9,617.1
			L285.9,617.1z"/>
		<path class="st3" d="M235.2,669.4l10-5c8.2,12,18.1,21.7,29.3,29.5l-4.7,10C256.6,694.8,245,682.6,235.2,669.4L235.2,669.4z"/>
		<line class="st4" x1="244.1" y1="654.5" x2="279.2" y2="619.6"/>
		<line class="st4" x1="284.1" y1="694.4" x2="319.2" y2="659.5"/>
		<polygon class="st10" points="538.3,687.8 538.3,632.1 549.6,632.1 549.6,678.3 577.8,678.3 577.8,687.8 		"/>
		<path class="st10" d="M727.8,429.2h22.6c4.5,0,7.8,0.2,10,0.6s4.2,1.1,5.9,2.3c1.7,1.2,3.2,2.8,4.3,4.7c1.2,2,1.7,4.2,1.7,6.6
			c0,2.7-0.7,5.1-2.1,7.3c-1.4,2.2-3.4,3.9-5.8,5c3.4,1,6.1,2.7,8,5.1s2.8,5.3,2.8,8.5c0,2.6-0.6,5.1-1.8,7.5s-2.8,4.4-4.9,5.8
			c-2.1,1.5-4.6,2.3-7.7,2.7c-1.9,0.2-6.5,0.3-13.8,0.4h-19.3L727.8,429.2L727.8,429.2z M739.2,438.6v13.1h7.5
			c4.5,0,7.2-0.1,8.3-0.2c1.9-0.2,3.5-0.9,4.6-2s1.7-2.6,1.7-4.4s-0.5-3.2-1.4-4.3c-1-1.1-2.4-1.8-4.3-2c-1.1-0.1-4.4-0.2-9.8-0.2
			H739.2L739.2,438.6z M739.2,461.2v15.1h10.6c4.1,0,6.7-0.1,7.8-0.3c1.7-0.3,3.1-1.1,4.2-2.2c1.1-1.2,1.6-2.8,1.6-4.8
			c0-1.7-0.4-3.1-1.2-4.3c-0.8-1.2-2-2.1-3.6-2.6s-4.9-0.8-10.1-0.8h-9.3V461.2z"/>
		<path class="st10" d="M177.9,717.7h20.5c4.6,0,8.1,0.4,10.6,1.1c3.3,1,6.1,2.7,8.4,5.1c2.3,2.5,4.1,5.5,5.3,9
			c1.2,3.6,1.8,7.9,1.8,13.2c0,4.6-0.6,8.5-1.7,11.8c-1.4,4-3.4,7.3-6,9.8c-1.9,1.9-4.6,3.4-7.9,4.4c-2.5,0.8-5.8,1.2-9.9,1.2h-21.1
			L177.9,717.7L177.9,717.7z M189.1,727.1V764h8.4c3.1,0,5.4-0.2,6.8-0.5c1.8-0.5,3.3-1.2,4.5-2.3s2.2-2.9,2.9-5.4
			c0.8-2.5,1.1-5.9,1.1-10.2s-0.4-7.6-1.1-9.9c-0.8-2.3-1.8-4.1-3.2-5.4c-1.4-1.3-3.1-2.2-5.2-2.6c-1.6-0.4-4.6-0.5-9.2-0.5
			L189.1,727.1L189.1,727.1z"/>
		<path class="st10" d="M425.7,161.1l10.8-1.1c0.6,3.6,1.9,6.3,3.9,8s4.6,2.5,8,2.5c3.6,0,6.2-0.8,8-2.3s2.7-3.3,2.7-5.3
			c0-1.3-0.4-2.4-1.1-3.3c-0.7-0.9-2.1-1.7-4-2.4c-1.3-0.5-4.2-1.2-8.8-2.4c-5.9-1.5-10.1-3.3-12.5-5.4c-3.4-3-5-6.7-5-11
			c0-2.8,0.8-5.4,2.4-7.8c1.6-2.4,3.9-4.3,6.8-5.5c3-1.3,6.6-1.9,10.8-1.9c6.9,0,12,1.5,15.5,4.5s5.3,7,5.5,12.1l-11,0.5
			c-0.5-2.8-1.5-4.8-3-6.1c-1.6-1.2-3.9-1.8-7-1.8c-3.2,0-5.7,0.7-7.5,2c-1.2,0.8-1.8,2-1.8,3.4c0,1.3,0.5,2.4,1.6,3.3
			c1.4,1.2,4.8,2.4,10.1,3.7c5.4,1.3,9.4,2.6,11.9,3.9c2.6,1.4,4.6,3.2,6.1,5.6c1.5,2.4,2.2,5.3,2.2,8.7c0,3.1-0.9,6.1-2.6,8.8
			s-4.2,4.8-7.4,6.1c-3.2,1.3-7.2,2-11.9,2c-6.9,0-12.2-1.6-15.9-4.8C428.7,171.9,426.4,167.2,425.7,161.1L425.7,161.1z"/>
		<polygon class="st11" points="208.4,628.4 240.3,608.3 228.4,596.5 		"/>
		<path class="st12" d="M371.1,302.7C372,429.9,334,489.2,234.9,600.8"/>
		<path class="st12" d="M643.2,379.6c-153,1.8-277.4,78.5-407.3,220.6"/>
		<polygon class="st11" points="494,216.2 485.4,252.9 502.1,253.1 		"/>
		<path class="st12" d="M570.1,532.5c-63.8-99.4-75.6-187.2-75.7-288.8"/>
		<path class="st12" d="M357,582.2c112.1-114.1,137.4-236.9,137.5-338.4"/>
	</g>
</g>
</svg>
