<?xml version="1.0" encoding="utf-8"?>
<!-- Generator: Adobe Illustrator 19.2.0, SVG Export Plug-In . SVG Version: 6.00 Build 0)  -->
<svg version="1.1" id="Livello_1" xmlns="http://www.w3.org/2000/svg" xmlns:xlink="http://www.w3.org/1999/xlink" x="0px" y="0px"
	 viewBox="0 0 875 900" style="enable-background:new 0 0 875 900;" xml:space="preserve">
<style type="text/css">
	.st0{fill:#FFFFFF;}
	.st1{fill:#B9B9B9;}
	.st2{fill:#00A6E2;stroke:#1A171B;stroke-width:1.39;stroke-miterlimit:2.6131;}
	.st3{fill:#FFFFFF;stroke:#1A171B;stroke-width:1.39;stroke-miterlimit:2.6131;}
	.st4{fill:none;stroke:#1A171B;stroke-width:1.8533;stroke-miterlimit:2.6131;}
	.st5{fill:#3D3D3F;stroke:#1A171B;stroke-width:1.39;stroke-miterlimit:2.6131;}
	.st6{fill:#1A171B;}
	.st7{fill:#FFEC00;stroke:#1A171B;stroke-width:1.39;stroke-miterlimit:2.6131;}
	.st8{fill:#E43417;stroke:#1A171B;stroke-width:1.39;stroke-miterlimit:2.6131;}
	.st9{fill:none;stroke:#1A171B;stroke-width:1.39;stroke-linecap:square;stroke-miterlimit:2.6131;}
	.st10{fill:none;stroke:#1A171B;stroke-width:4.6334;stroke-linecap:square;stroke-miterlimit:2.6131;}
	.st11{fill:#049853;stroke:#1A171B;stroke-width:1.39;stroke-miterlimit:2.6131;}
	.st12{fill:none;stroke:#FFFFFF;stroke-width:1.8533;stroke-miterlimit:2.6131;}
	
		.st13{fill:none;stroke:#1A171B;stroke-width:4.6334;stroke-linecap:square;stroke-miterlimit:2.6131;stroke-dasharray:23.1668,23.1668;}
</style>
<polygon class="st0" points="2.6,744.1 2.6,804.1 248.2,804.1 439.7,612.5 550.2,804.1 822.4,804.1 663.4,528.6 872.5,528.6 
	872.5,294.2 591.7,294.2 591.7,96.3 283.5,96.3 283.5,294.2 2.6,294.2 2.6,528.6 218,528.6 "/>
<path class="st1" d="M2.5,782.8v21.3h207.1l212.6-212.7c10.6-11.8,27.3-14.3,37.2,0.5L581.8,804h209L636.1,536.4
	c-7.2-18.6-1.3-34.5,25.5-35.2h210.9V321.6L601,321.7c-27.1,0-36.9-10.3-36.7-36.6l-0.1-189.2H310.5v189.2
	c-0.1,26.9-9.4,36.6-36.6,36.6L2.5,321.6v179.7h228c25.3,0,28.4,24.8,14.9,38.7L2.5,782.8L2.5,782.8z"/>
<path class="st2" d="M816.5,348.5c-13.3-2-31.5-4.8-50.9-5c-15.5,0-31.1,0-46.8,0c-20.5,1.4-36.8,0.8-52.6,5.8
	c-3.1,0.8-10.4,5.2-10.4,10.5v39.6c0,6.3,8.2,8.1,10.4,8.7c15.7,3.8,32.1,5.4,52.4,5.4h47.3c18.4,0,36.8-2,50.7-4.6
	c3.9-0.8,10.6-1.6,10.6-9.9v-40C827.1,348.1,822,349.3,816.5,348.5L816.5,348.5z"/>
<path class="st3" d="M722,353.5l-17.2-2.7c-6.7,18.9-6.1,35.8,0,55.9l17.2-2.5C717.7,384.1,717.3,374.4,722,353.5L722,353.5z"/>
<path class="st3" d="M794.8,354.5l-10.6,3.6c2.7,14.3,2.7,28.1,0.2,41.6l10.4,3.8C797.7,387.6,797.3,370.7,794.8,354.5L794.8,354.5z
	"/>
<line class="st4" x1="778" y1="350.3" x2="728.5" y2="350.5"/>
<line class="st4" x1="778" y1="406.8" x2="728.5" y2="407"/>
<polygon class="st5" points="521.9,213.9 506.5,248.3 522.9,251.6 "/>
<polygon class="st5" points="208.4,628.6 240.3,608.5 228.4,596.7 "/>
<path class="st6" d="M145.3,395.8h-12.7l-5-13.1h-23.1l-4.8,13.1H87.3l22.5-57.8h12.3L145.3,395.8L145.3,395.8z M123.8,372.9
	l-8-21.5l-7.8,21.5H123.8L123.8,372.9z"/>
<polygon class="st6" points="792.4,483.2 771.7,425.4 784.4,425.4 799,468.2 813.2,425.4 825.6,425.4 804.9,483.2 "/>
<polygon class="st6" points="421.9,239.6 421.9,181.8 464.8,181.8 464.8,191.6 433.6,191.6 433.6,204.4 462.6,204.4 462.6,214.1 
	433.6,214.1 433.6,229.9 465.9,229.9 465.9,239.6 "/>
<path class="st7" d="M41.1,415.7c13.3-2,31.5-4.8,50.9-5c15.5,0,31.1,0,46.8,0c20.5,1.4,36.8,0.8,52.6,5.7
	c3.1,0.8,10.4,5.2,10.4,10.5v39.6c0,6.3-8.2,8.1-10.4,8.7c-15.8,3.8-32.1,5.4-52.4,5.4H91.7c-18.4,0-36.8-2-50.7-4.6
	c-3.9-0.8-10.6-1.6-10.6-9.9v-40C30.5,415.3,35.6,416.5,41.1,415.7L41.1,415.7z"/>
<path class="st3" d="M135.6,420.6l17.2-2.7c6.7,18.9,6.1,35.8,0,55.9l-17.2-2.5C139.9,451.3,140.3,441.6,135.6,420.6L135.6,420.6z"
	/>
<path class="st3" d="M62.8,421.6l10.6,3.6c-2.7,14.3-2.7,28.1-0.2,41.6l-10.4,3.8C60,454.7,60.4,437.9,62.8,421.6L62.8,421.6z"/>
<line class="st4" x1="79.6" y1="417.5" x2="129.1" y2="417.7"/>
<line class="st4" x1="79.6" y1="474" x2="129.1" y2="474.2"/>
<path class="st8" d="M400.7,135c2,13.3,4.8,31.5,5,50.9c0,15.5,0,31.1,0,46.8c-1.4,20.5-0.8,36.8-5.7,52.6
	c-0.8,3.1-5.2,10.4-10.5,10.4h-39.6c-6.3,0-8.1-8.2-8.7-10.4c-3.8-15.8-5.4-32.1-5.4-52.4v-47.3c0-18.4,2-36.8,4.6-50.7
	c0.8-3.9,1.6-10.6,9.9-10.6h40C401.1,124.4,399.9,129.5,400.7,135L400.7,135z"/>
<path class="st3" d="M395.8,229.5l2.7,17.2c-18.9,6.8-35.8,6.1-55.9,0l2.5-17.2C365.1,233.8,374.8,234.2,395.8,229.5L395.8,229.5z"
	/>
<path class="st3" d="M394.8,156.7l-3.6,10.6c-14.3-2.7-28.1-2.7-41.6-0.2l-3.8-10.4C361.7,153.8,378.5,154.3,394.8,156.7
	L394.8,156.7z"/>
<line class="st4" x1="398.9" y1="173.5" x2="398.7" y2="223"/>
<line class="st4" x1="342.4" y1="173.5" x2="342.2" y2="223"/>
<path class="st9" d="M2.5,501.3h228c25.3,0,28.4,24.8,14.9,38.7L2.5,782.8 M209.6,804.1l212.6-212.7c10.6-11.8,27.3-14.3,37.2,0.5
	L581.8,804 M790.8,804.1L636.1,536.4c-7.2-18.6-1.3-34.5,25.5-35.2h210.9 M872.5,321.6L601,321.7c-27.1,0-36.9-10.3-36.7-36.6
	l-0.1-189.2 M310.7,96.3l-0.2,188.8c-0.1,26.9-9.4,36.6-36.6,36.6L2.5,321.6"/>
<path class="st10" d="M283.4,95.9v198.3H2.5 M4.9,528.6h213L2.5,744.1 M248.1,804.1l191.5-191.6l110.6,191.6 M822.3,804.1
	l-159-275.5l209.1,0.2 M872.4,294.2H591.6V96.3"/>
<polygon class="st5" points="740.4,458.2 703.7,449.8 703.7,466.5 "/>
<polygon class="st6" points="672.2,765.9 672.2,707.8 683.9,707.8 683.9,730.7 706.9,730.7 706.9,707.8 718.6,707.8 718.6,765.9 
	706.9,765.9 706.9,740.5 683.9,740.5 683.9,765.9 "/>
<path class="st6" d="M196.8,767.9l11.4,3.6c-1.7,6.3-4.6,11.1-8.7,14.1c-4,3.1-9.2,4.6-15.4,4.6c-7.7,0-14.1-2.6-19-7.9
	c-5-5.3-7.5-12.5-7.5-21.6c0-9.7,2.5-17.2,7.5-22.5s11.6-8,19.7-8c7.1,0,12.9,2.1,17.3,6.3c2.7,2.5,4.6,6,6,10.7l-11.6,2.8
	c-0.7-3-2.1-5.4-4.3-7.1c-2.2-1.7-4.8-2.6-7.9-2.6c-4.3,0-7.8,1.5-10.5,4.6s-4,8.1-4,15c0,7.3,1.3,12.6,4,15.7
	c2.6,3.1,6.1,4.7,10.3,4.7c3.1,0,5.8-1,8-3C194.2,775.3,195.8,772.1,196.8,767.9L196.8,767.9z"/>
<path class="st11" d="M636.1,694.9c-8.6-10.4-20.3-24.5-30.5-41c-8-13.3-16.1-26.6-24.2-40.1c-9.4-18.2-18.3-31.9-22.2-48
	c-0.9-3-1-11.6,3.6-14.4l33.9-20.5c5.4-3.3,11.2,2.8,12.9,4.4c11.4,11.5,21.2,24.7,31.6,42.1l24.4,40.5
	c9.5,15.8,17.3,32.5,22.3,45.8c1.3,3.7,4.1,9.9-3,14.2l-34.3,20.7C641.3,704.3,639.7,699.3,636.1,694.9L636.1,694.9z"/>
<path class="st3" d="M591.5,611.5l-11.2-13.3c12.7-15.5,27.5-23.7,47.9-28.9l6.8,16C615.6,592,607.1,596.6,591.5,611.5L591.5,611.5z
	"/>
<path class="st3" d="M630,673.3l-2.4-10.9c13.6-5.1,25.5-12.3,35.7-21.3l8.6,7C659.8,658.7,645.2,667,630,673.3L630,673.3z"/>
<line class="st4" x1="617.8" y1="661.1" x2="592.4" y2="618.6"/>
<line class="st4" x1="666.2" y1="631.9" x2="640.8" y2="589.4"/>
<path class="st5" d="M203.6,695.5c8-10.8,18.9-25.7,32.4-39.6c11-11,21.9-22,33.1-33.2c15.4-13.5,26.6-25.5,41.2-33.2
	c2.7-1.6,11-3.8,14.8,0l28.1,28c4.5,4.5,0,11.5-1.2,13.5c-8.4,13.8-18.9,26.5-33.2,40.9l-33.4,33.5c-13,13-27.4,24.7-39,32.7
	c-3.3,2.2-8.6,6.4-14.5,0.5l-28.4-28.2C195.8,702.7,200.3,699.9,203.6,695.5L203.6,695.5z"/>
<path class="st3" d="M273.8,632l10.2-14.1c18.2,8.6,29.7,20.9,39.6,39.5l-13.9,10.4C298.5,650.6,292,643.5,273.8,632L273.8,632z"/>
<path class="st3" d="M223.1,684.3l10-5c8.2,12,18.1,21.8,29.3,29.5l-4.7,10C244.5,709.7,232.9,697.5,223.1,684.3L223.1,684.3z"/>
<line class="st12" x1="232" y1="669.5" x2="267.1" y2="634.5"/>
<line class="st12" x1="272" y1="709.3" x2="307.1" y2="674.4"/>
<path class="st13" d="M342,600.8c98.3-106.4,197.6-146.4,359-142.9"/>
<path class="st13" d="M576.3,538.1c-50.9-78.8-191.4-69-340.2,62.9"/>
<path class="st13" d="M204.8,447c159.4,0.9,280.8-74.6,309.3-194.8"/>
<path class="st13" d="M371.1,298.9c-0.4,127.2-38.4,190.6-136.2,302.1"/>
<path class="st13" d="M651.7,378.4c-150.3,4.5-281.8,83.9-415.7,221.9"/>
</svg>
