<?xml version="1.0" encoding="utf-8"?>
<!-- Generator: Adobe Illustrator 19.2.0, SVG Export Plug-In . SVG Version: 6.00 Build 0)  -->
<svg version="1.1" id="Livello_1" xmlns="http://www.w3.org/2000/svg" xmlns:xlink="http://www.w3.org/1999/xlink" x="0px" y="0px"
	 viewBox="0 0 960 960" style="enable-background:new 0 0 960 960;" xml:space="preserve">
<style type="text/css">
	.st0{fill-rule:evenodd;clip-rule:evenodd;fill:#FFFFFF;}
	.st1{fill-rule:evenodd;clip-rule:evenodd;fill:#CECFD1;}
	.st2{fill:none;stroke:#1A171B;stroke-width:1.389;stroke-miterlimit:2.6131;}
	.st3{fill:none;stroke:#1A171B;stroke-width:4.6301;stroke-miterlimit:2.6131;}
	.st4{fill-rule:evenodd;clip-rule:evenodd;fill:#E43417;stroke:#1A171B;stroke-width:1.389;stroke-miterlimit:2.6131;}
	.st5{fill-rule:evenodd;clip-rule:evenodd;fill:#FFFFFF;stroke:#1A171B;stroke-width:1.389;stroke-miterlimit:2.6131;}
	.st6{fill:none;stroke:#1A171B;stroke-width:1.852;stroke-miterlimit:2.6131;}
	.st7{fill-rule:evenodd;clip-rule:evenodd;fill:#00A6E2;stroke:#1A171B;stroke-width:1.389;stroke-miterlimit:2.6131;}
	.st8{fill-rule:evenodd;clip-rule:evenodd;fill:#FFEC00;stroke:#1A171B;stroke-width:1.389;stroke-miterlimit:2.6131;}
	.st9{fill-rule:evenodd;clip-rule:evenodd;fill:#1A171B;stroke:#1A171B;stroke-width:1.389;stroke-miterlimit:2.6131;}
	
		.st10{fill:none;stroke:#1A171B;stroke-width:4.6301;stroke-linecap:square;stroke-miterlimit:2.6131;stroke-dasharray:23.1505,23.1505;}
	.st11{fill-rule:evenodd;clip-rule:evenodd;fill:#1A171B;}
</style>
<g>
	<g>
		<polygon class="st0" points="341.8,291 157.7,184.5 45,184.5 45,381.4 248.5,500.8 45,707.5 45,775.5 308.9,775.5 397.3,686.1 
			397.3,775.5 594.1,775.5 594.2,660.2 914.9,658.7 915,455 679.5,455 914.7,220.4 914.9,184.5 624.3,184.5 535.4,272 535.7,184.5 
			341.7,184.5 342,267.8 		"/>
		<path class="st1" d="M321.4,310.4L107.8,184.5H45v165.4l214.8,126c14.1,9.4,16.6,33.6,3.7,48.5L45,743.4v32.2h227.9l112.5-111.9
			c11.1-16,35.6-16.9,37.2,2.8l0,109.1h146l0.2-115.6c-0.3-16.1,8.4-26.5,24.9-26.7h321.2l0.1-153H661.6c-18-1-21.6-22.2-9.9-33.5
			l263.2-262.3H660.4L543,300.1c-21.5,12.8-33,0.8-32.9-19.7l0.2-96l-143.2,0l0.3,107.3C364.6,315.4,346.6,323.2,321.4,310.4
			L321.4,310.4z"/>
		<path class="st2" d="M367.1,184.5l0.3,107.3c-2.7,23.7-20.8,31.5-46,18.6L107.8,184.5 M45,349.9l214.8,126
			c14.1,9.4,16.6,33.6,3.7,48.5L45,743.4 M272.9,775.5l112.5-111.9c11.1-16,35.6-16.9,37.2,2.8l0,109.1 M568.7,775.5l0.2-115.6
			c-0.3-16.1,8.4-26.5,24.9-26.7h321.2 M915,480.3H661.6c-18-1-21.6-22.2-9.9-33.5l263-262.3 M660.4,184.5L543,300.1
			c-21.5,12.8-33,0.8-32.9-19.7l0.2-96"/>
		<path class="st3" d="M45,379.3l200.6,117.6l0,0l0.2,0.3l0.2,0.5l0.2,0.7l0.2,0.8l0.1,1l0,1.1l-0.1,1.1l-0.2,1.1l-0.3,1l-0.3,0.9
			l-0.4,0.8l-0.5,0.7l-0.4,0.5L45,707.5 M308.9,775.5l88.4-87.9l0,87.9 M594.1,775.5l0.2-115.3l0-1.6l0.2,0h320.3 M914.7,455H679.5
			l235.3-234.5 M624.3,184.5L535.4,272l0.2-87.5 M341.7,184.5l0.3,105.3l-0.2,0.9l-0.1,0.3l-1.2-0.2l-2.1-0.6l-2.6-1l-2.7-1.3
			L157.7,184.5"/>
		<path class="st4" d="M699.7,259.4c-7,9.4-16.5,22.4-28.4,34.5c-9.6,9.6-19.2,19.2-28.9,28.9c-13.5,11.8-23.2,22.2-36,28.9
			c-2.4,1.4-9.6,3.3-12.9,0L569,327.3c-3.9-3.9,0-10.1,1.1-11.8c7.4-12.1,16.5-23.1,29-35.6l29.2-29.2c11.4-11.4,24-21.5,34.1-28.5
			c2.9-1.9,7.5-5.6,12.7-0.4l24.7,24.7C706.5,253.1,702.6,255.5,699.7,259.4L699.7,259.4z"/>
		<path class="st5" d="M638.3,314.8l-9,12.3c-15.9-7.5-25.9-18.3-34.5-34.5l12.1-9.1C616.7,298.5,622.5,304.7,638.3,314.8
			L638.3,314.8z"/>
		<path class="st5" d="M682.7,269.2l-8.8,4.4c-7.2-10.5-15.7-19-25.6-25.8l4.1-8.8C664,247,674.1,257.6,682.7,269.2L682.7,269.2z"/>
		<line class="st6" x1="674.9" y1="282.1" x2="644.2" y2="312.5"/>
		<line class="st6" x1="640" y1="247.2" x2="609.3" y2="277.7"/>
		<path class="st7" d="M149.8,331.2c10.9,4.3,25.9,10.2,40.7,18.5c11.8,6.8,23.5,13.6,35.4,20.5c14.9,10,27.5,16.7,37.2,27.3
			c2,1.9,5.6,8.5,3.3,12.5l-17.3,30c-2.8,4.8-9.7,2.6-11.7,2c-13.6-4-26.6-10-41.9-18.8l-35.7-20.6c-13.9-8-27-17.6-36.4-25.6
			c-2.6-2.3-7.4-5.8-3.7-12.1l17.5-30.3C141.9,326.2,145.2,329.3,149.8,331.2L149.8,331.2z"/>
		<path class="st5" d="M219.1,376.2l14.2,5.5c-3.2,17.2-11,29.7-24.4,42.3l-11.9-9.4C208.9,401.2,213.5,394.1,219.1,376.2
			L219.1,376.2z"/>
		<path class="st5" d="M163.6,345.1l6.5,7.3c-8.2,9.6-14.3,20.1-18.3,31.4l-9.5-1.7C146.9,368.9,154.6,356.3,163.6,345.1
			L163.6,345.1z"/>
		<line class="st6" x1="178.1" y1="349.3" x2="215.4" y2="371.1"/>
		<line class="st6" x1="153.4" y1="392" x2="190.7" y2="413.8"/>
		<path class="st8" d="M841,551.5c-11.6,1.7-27.5,4.2-44.5,4.3c-13.6,0-27.2,0-40.9,0c-17.9-1.2-32.2-0.7-45.9-5
			c-2.7-0.7-9.1-4.5-9.1-9.2v-34.6c0-5.5,7.1-7.1,9.1-7.6c13.8-3.3,28-4.7,45.7-4.7h41.3c16.1,0,32.2,1.7,44.3,4
			c3.4,0.7,9.3,1.4,9.3,8.7v35C850.3,551.9,845.8,550.9,841,551.5L841,551.5z"/>
		<path class="st5" d="M758.5,547.2l-15,2.3c-5.9-16.5-5.4-31.2,0-48.8l15,2.2C754.7,520.5,754.4,528.9,758.5,547.2L758.5,547.2z"/>
		<path class="st5" d="M822.1,546.4l-9.3-3.1c2.3-12.5,2.3-24.6,0.2-36.3l9.1-3.3C824.5,517.4,824.2,532.2,822.1,546.4L822.1,546.4z
			"/>
		<line class="st6" x1="807.4" y1="550" x2="764.2" y2="549.8"/>
		<line class="st6" x1="807.4" y1="500.7" x2="764.2" y2="500.5"/>
		<polygon class="st9" points="668.7,596 631.3,604.6 631.3,587.5 668.7,596 		"/>
		<path class="st10" d="M579.9,342.6c-87.1,101.6-112.6,244.7,47.1,253"/>
		<polygon class="st9" points="462.4,693 467.2,657.7 451.4,659.1 462.4,693 		"/>
		<path class="st10" d="M262.5,424.7c68.2,54.4,186.3,102.6,198.3,229.6"/>
		<polygon class="st9" points="234.6,621.1 254.1,591.3 265.1,602.6 234.6,621.1 		"/>
		<path class="st10" d="M693.5,527.7L559,528.1c-108.5,0.3-222.9,5-296.3,66.3"/>
		<polygon class="st11" points="197.5,335.3 197.5,280.3 208.3,280.3 230.8,317.1 230.8,280.3 241.1,280.3 241.1,335.3 230,335.3 
			207.8,299.5 207.8,335.3 197.5,335.3 		"/>
		<path class="st11" d="M723.6,354.5h-12.1l-4.8-12.5h-22l-4.5,12.5h-11.8l21.4-55h11.7L723.6,354.5L723.6,354.5z M703.2,332.7
			l-7.6-20.4l-7.4,20.4H703.2L703.2,332.7z"/>
		<path class="st11" d="M794.5,606l10.8,3.4c-1.7,6-4.4,10.5-8.2,13.4c-3.8,2.9-8.7,4.4-14.6,4.4c-7.3,0-13.3-2.5-18-7.5
			c-4.7-5-7.1-11.8-7.1-20.5c0-9.2,2.4-16.3,7.1-21.3c4.7-5.1,10.9-7.6,18.7-7.6c6.7,0,12.2,2,16.4,6c2.5,2.3,4.4,5.7,5.6,10.1
			l-11,2.6c-0.6-2.9-2-5.1-4.1-6.8c-2.1-1.7-4.6-2.5-7.5-2.5c-4.1,0-7.4,1.5-9.9,4.4c-2.5,2.9-3.8,7.7-3.8,14.2
			c0,7,1.2,11.9,3.8,14.9c2.5,3,5.8,4.4,9.8,4.4c3,0,5.5-0.9,7.6-2.8C792.1,613,793.6,610,794.5,606L794.5,606z"/>
	</g>
</g>
</svg>
