<?xml version="1.0" encoding="utf-8"?>
<!-- Generator: Adobe Illustrator 19.2.0, SVG Export Plug-In . SVG Version: 6.00 Build 0)  -->
<svg version="1.1" id="Livello_1" xmlns="http://www.w3.org/2000/svg" xmlns:xlink="http://www.w3.org/1999/xlink" x="0px" y="0px"
	 viewBox="0 0 875 900" style="enable-background:new 0 0 875 900;" xml:space="preserve">
<style type="text/css">
	.st0{fill:#FFFFFF;}
	.st1{fill:#B9B9B9;}
	.st2{fill:none;stroke:#1A171B;stroke-width:1.389;stroke-miterlimit:2.6131;}
	.st3{fill:none;stroke:#1A171B;stroke-width:4.6301;stroke-miterlimit:2.6131;}
	.st4{fill:#E43417;stroke:#1A171B;stroke-width:1.389;stroke-miterlimit:2.6131;}
	.st5{fill:#FFFFFF;stroke:#1A171B;stroke-width:1.389;stroke-miterlimit:2.6131;}
	.st6{fill:none;stroke:#1A171B;stroke-width:1.852;stroke-miterlimit:2.6131;}
	.st7{fill:#00A6E2;stroke:#1A171B;stroke-width:1.389;stroke-miterlimit:2.6131;}
	.st8{fill:#FFEC00;stroke:#1A171B;stroke-width:1.389;stroke-miterlimit:2.6131;}
	.st9{fill:#1A171B;stroke:#1A171B;stroke-width:1.389;stroke-miterlimit:2.6131;}
	
		.st10{fill:none;stroke:#1A171B;stroke-width:4.6301;stroke-linecap:square;stroke-miterlimit:2.6131;stroke-dasharray:23.1505,23.1505;}
	.st11{fill:#1A171B;}
</style>
<g>
	<g>
		<polygon class="st0" points="299.3,261 115.2,154.5 2.5,154.5 2.5,351.4 206,470.8 2.5,677.5 2.5,745.5 266.4,745.5 354.8,656.1 
			354.8,745.5 551.6,745.5 551.7,630.2 872.4,628.7 872.5,425 637,425 872.2,190.4 872.4,154.5 581.8,154.5 492.9,242 493.2,154.5 
			299.2,154.5 299.5,237.8 		"/>
		<path class="st1" d="M278.9,280.4L65.3,154.5H2.5v165.4l214.8,126c14.1,9.4,16.6,33.6,3.7,48.5L2.5,713.4v32.2h227.9l112.5-111.9
			c11.1-16,35.6-16.9,37.2,2.8v109.1h146l0.2-115.6c-0.3-16.1,8.4-26.5,24.9-26.7h321.2l0.1-153H619.1c-18-1-21.6-22.2-9.9-33.5
			l263.2-262.3H617.9L500.5,270.1c-21.5,12.8-33,0.8-32.9-19.7l0.2-96H324.6l0.3,107.3C322.1,285.4,304.1,293.2,278.9,280.4
			L278.9,280.4z"/>
		<path class="st2" d="M324.6,154.5l0.3,107.3c-2.7,23.7-20.8,31.5-46,18.6L65.3,154.5 M2.5,319.9l214.8,126
			c14.1,9.4,16.6,33.6,3.7,48.5L2.5,713.4 M230.4,745.5l112.5-111.9c11.1-16,35.6-16.9,37.2,2.8v109.1 M526.2,745.5l0.2-115.6
			c-0.3-16.1,8.4-26.5,24.9-26.7h321.2 M872.5,450.3H619.1c-18-1-21.6-22.2-9.9-33.5l263-262.3 M617.9,154.5L500.5,270.1
			c-21.5,12.8-33,0.8-32.9-19.7l0.2-96"/>
		<path class="st3" d="M2.5,349.3l200.6,117.6l0,0l0.2,0.3l0.2,0.5l0.2,0.7l0.2,0.8l0.1,1v1.1l-0.1,1.1l-0.2,1.1l-0.3,1l-0.3,0.9
			l-0.4,0.8l-0.5,0.7l-0.4,0.5L2.5,677.5 M266.4,745.5l88.4-87.9v87.9 M551.6,745.5l0.2-115.3v-1.6h0.2h320.3 M872.2,425H637
			l235.3-234.5 M581.8,154.5L492.9,242l0.2-87.5 M299.2,154.5l0.3,105.3l-0.2,0.9l-0.1,0.3l-1.2-0.2l-2.1-0.6l-2.6-1l-2.7-1.3
			L115.2,154.5"/>
		<path class="st4" d="M665.5,223.7c-7,9.4-16.5,22.4-28.4,34.5c-9.6,9.6-19.2,19.2-28.9,28.9c-13.5,11.8-23.2,22.2-36,28.9
			c-2.4,1.4-9.6,3.3-12.9,0l-24.5-24.5c-3.9-3.9,0-10.1,1.1-11.8c7.4-12.1,16.5-23.1,29-35.6l29.2-29.2c11.4-11.4,24-21.5,34.1-28.5
			c2.9-1.9,7.5-5.6,12.7-0.5l24.7,24.7C672.3,217.4,668.4,219.8,665.5,223.7L665.5,223.7z"/>
		<path class="st5" d="M604.1,279l-9,12.3c-15.8-7.5-25.9-18.3-34.5-34.5l12.1-9.1C582.5,262.8,588.2,269,604.1,279L604.1,279z"/>
		<path class="st5" d="M648.4,233.4l-8.8,4.4c-7.2-10.5-15.7-19-25.6-25.8l4.1-8.8C629.8,211.2,639.9,221.9,648.4,233.4L648.4,233.4
			z"/>
		<line class="st6" x1="640.7" y1="246.4" x2="610" y2="276.8"/>
		<line class="st6" x1="605.8" y1="211.5" x2="575.1" y2="241.9"/>
		<path class="st7" d="M196.5,670.2c7-9.4,16.5-22.4,28.4-34.5c9.6-9.6,19.2-19.2,28.9-28.9c13.5-11.8,23.2-22.3,36-28.9
			c2.4-1.4,9.6-3.3,12.9,0l24.5,24.5c3.9,3.9,0,10.1-1.1,11.8c-7.4,12.1-16.5,23.1-29,35.6L268,679c-11.4,11.4-24,21.5-34.1,28.5
			c-2.9,1.9-7.5,5.6-12.7,0.4l-24.7-24.6C189.7,676.5,193.6,674.1,196.5,670.2L196.5,670.2z"/>
		<path class="st5" d="M257.9,614.9l9-12.3c15.8,7.5,25.9,18.3,34.5,34.5l-12.1,9.1C279.5,631.2,273.8,624.9,257.9,614.9
			L257.9,614.9z"/>
		<path class="st5" d="M213.6,660.5l8.8-4.4c7.2,10.4,15.7,19,25.6,25.8l-4.1,8.8C232.3,682.7,222.1,672,213.6,660.5L213.6,660.5z"
			/>
		<line class="st6" x1="221.4" y1="647.6" x2="252.1" y2="617.1"/>
		<line class="st6" x1="256.3" y1="682.4" x2="287" y2="652"/>
		<path class="st8" d="M808.9,520.3c-11.6,1.7-27.5,4.2-44.5,4.3c-13.6,0-27.1,0-40.9,0c-17.9-1.2-32.2-0.7-45.9-5
			c-2.7-0.7-9.1-4.5-9.1-9.2v-34.6c0-5.5,7.1-7.1,9.1-7.6c13.8-3.3,28-4.7,45.7-4.7h41.3c16.1,0,32.2,1.7,44.3,4
			c3.4,0.7,9.3,1.4,9.3,8.7v35C818.2,520.6,813.7,519.6,808.9,520.3L808.9,520.3z"/>
		<path class="st5" d="M726.3,516l-15,2.3c-5.9-16.5-5.4-31.2,0-48.8l15,2.2C722.6,489.2,722.2,497.7,726.3,516L726.3,516z"/>
		<path class="st5" d="M789.9,515.1l-9.3-3.1c2.3-12.5,2.3-24.6,0.2-36.3l9.1-3.3C792.4,486.2,792.1,500.9,789.9,515.1L789.9,515.1z
			"/>
		<line class="st6" x1="775.3" y1="518.7" x2="732.1" y2="518.6"/>
		<line class="st6" x1="775.3" y1="469.4" x2="732.1" y2="469.2"/>
		<polygon class="st9" points="632.8,558.6 595.4,567.1 595.4,550.1 		"/>
		<path class="st10" d="M541.2,305.1c-87.1,101.6-109.8,244.7,49.8,253"/>
		<polygon class="st9" points="420.6,304.2 425.4,339.5 409.6,338.1 		"/>
		<path class="st10" d="M320.2,584.7c57.3-75.5,78.8-109.2,96.5-241.9"/>
		<polygon class="st9" points="425.9,169 416.9,203.5 432.7,204 		"/>
		<path class="st10" d="M664.7,495C517.6,477.8,419.9,361.8,425,207.8"/>
		<path class="st11" d="M676.3,306l10.8,3.4c-1.7,6-4.4,10.5-8.2,13.4s-8.7,4.4-14.6,4.4c-7.3,0-13.3-2.5-18-7.5s-7.1-11.8-7.1-20.5
			c0-9.2,2.4-16.3,7.1-21.3c4.7-5.1,10.9-7.6,18.7-7.6c6.7,0,12.2,2,16.4,6c2.5,2.3,4.4,5.7,5.6,10.1l-11,2.6
			c-0.6-2.9-2-5.1-4.1-6.8c-2.1-1.7-4.6-2.5-7.5-2.5c-4.1,0-7.4,1.5-9.9,4.4s-3.8,7.7-3.8,14.2c0,7,1.2,11.9,3.7,14.9
			s5.8,4.4,9.8,4.4c3,0,5.5-0.9,7.6-2.8C673.9,313,675.4,310.1,676.3,306L676.3,306z"/>
		<path class="st11" d="M776.3,595.1h-12.1l-4.8-12.5h-22l-4.5,12.5h-11.8l21.4-55h11.7L776.3,595.1L776.3,595.1z M755.8,573.4
			l-7.6-20.4l-7.4,20.4H755.8L755.8,573.4z"/>
		<path class="st11" d="M192.6,623.3v-55h17.9c6.8,0,11.2,0.3,13.2,0.8c3.2,0.8,5.8,2.6,7.9,5.4c2.1,2.8,3.2,6.3,3.2,10.7
			c0,3.4-0.6,6.2-1.8,8.5c-1.2,2.3-2.8,4.1-4.7,5.4c-1.9,1.3-3.8,2.2-5.8,2.6c-2.7,0.5-6.5,0.8-11.5,0.8h-7.2v20.8H192.6
			L192.6,623.3z M203.7,577.6v15.6h6.1c4.4,0,7.3-0.3,8.8-0.9c1.5-0.6,2.6-1.5,3.5-2.7c0.8-1.2,1.3-2.7,1.3-4.3c0-2-0.6-3.6-1.8-5
			c-1.2-1.3-2.7-2.1-4.5-2.4c-1.3-0.3-4-0.4-8-0.4h-5.4V577.6z"/>
	</g>
</g>
</svg>
