<?xml version="1.0" encoding="utf-8"?>
<!-- Generator: Adobe Illustrator 19.2.0, SVG Export Plug-In . SVG Version: 6.00 Build 0)  -->
<svg version="1.1" id="Livello_1" xmlns="http://www.w3.org/2000/svg" xmlns:xlink="http://www.w3.org/1999/xlink" x="0px" y="0px"
	 viewBox="0 0 875 900" style="enable-background:new 0 0 875 900;" xml:space="preserve">
<style type="text/css">
	.st0{fill:#FFFFFF;}
	.st1{fill:#B9B9B9;}
	.st2{fill:none;stroke:#1A171B;stroke-width:1.389;stroke-miterlimit:2.6131;}
	.st3{fill:none;stroke:#1A171B;stroke-width:4.6301;stroke-miterlimit:2.6131;}
	.st4{fill:#E43417;stroke:#1A171B;stroke-width:1.389;stroke-miterlimit:2.6131;}
	.st5{fill:#FFFFFF;stroke:#1A171B;stroke-width:1.389;stroke-miterlimit:2.6131;}
	.st6{fill:none;stroke:#1A171B;stroke-width:1.852;stroke-miterlimit:2.6131;}
	.st7{fill:#00A6E2;stroke:#1A171B;stroke-width:1.389;stroke-miterlimit:2.6131;}
	.st8{fill:#1A171B;stroke:#1A171B;stroke-width:1.389;stroke-miterlimit:2.6131;}
	
		.st9{fill:none;stroke:#1A171B;stroke-width:4.6301;stroke-linecap:square;stroke-miterlimit:2.6131;stroke-dasharray:23.1505,23.1505;}
	.st10{fill:#1A171B;}
</style>
<g>
	<g>
		<polygon class="st0" points="758.7,759.7 872.5,759.7 872.5,564.3 669.9,442.9 872.5,237.8 872.5,141.2 638.1,141.2 518.9,258.7 
			519.8,141.2 323.8,141.2 322.6,284.2 2.6,285.9 2.5,490.9 236.9,488.9 4.4,723.9 2.6,759.7 295.1,759.7 382.1,672.2 381.2,759.7 
			576.4,759.7 575.1,653.5 		"/>
		<path class="st1" d="M596.1,633.8l213.6,125.9h62.8V594.3l-214.9-126c-14.1-9.4-16.6-33.6-3.7-48.5l218.6-219v-59.7H672.1
			l-140,139.4c-11.1,16-35.6,16.9-37.3-2.8V141.1h-146l-0.2,143.1c0.3,16.1-8.4,26.5-24.9,26.7H2.6l-0.1,153h253.4
			c18,1,21.6,22.2,9.9,33.5L2.6,759.7h254.5l117.4-115.6c21.5-12.8,33-0.8,32.9,19.7l-0.2,96h143.2l-0.3-107.3
			C552.9,628.8,570.9,621,596.1,633.8L596.1,633.8z"/>
		<path class="st2" d="M550.4,759.7l-0.3-107.3c2.7-23.7,20.8-31.5,46-18.6l213.6,125.9 M872.5,594.3l-214.9-126
			c-14.1-9.4-16.6-33.6-3.7-48.5l218.6-219 M672.5,140.3L532.1,280.5c-11.1,16-35.6,16.9-37.3-2.8V141.1 M348.8,140.9l-0.2,143.3
			c0.3,16.1-8.4,26.5-24.9,26.7H2.6 M2.5,463.9h253.4c18,1,21.6,22.2,9.9,33.5L2.8,759.7 M257.1,759.7l117.4-115.6
			c21.5-12.8,33-0.8,32.9,19.7l-0.2,96"/>
		<path class="st3" d="M872.5,564.9L671.9,447.3l0,0l-0.2-0.3l-0.2-0.5l-0.2-0.7l-0.2-0.9l-0.1-1v-1.1l0.1-1.1l0.2-1.1l0.3-1
			l0.3-0.9l0.4-0.8l0.5-0.7l0.4-0.5l199.3-199.9 M637.1,141.3L520.2,256.6V141.3 M323.4,141.3L323.3,284v1.6h-0.2H2.8 M2.8,489.3
			h235.3L2.8,723.8 M293.2,759.7l88.9-87.5l-0.2,87.5 M575.8,759.7l-0.3-105.2l0.2-0.9l0.1-0.3l1.2,0.2l2.1,0.6l2.6,1l2.7,1.3
			l175.5,103.4"/>
		<path class="st4" d="M79,394c11.6-1.7,27.5-4.2,44.5-4.3c13.6,0,27.2,0,40.9,0c17.9,1.2,32.2,0.7,45.9,5c2.7,0.7,9.1,4.5,9.1,9.2
			v34.6c0,5.5-7.1,7.1-9.1,7.6c-13.8,3.3-28,4.7-45.7,4.7h-41.3c-16.1,0-32.2-1.7-44.3-4c-3.4-0.7-9.3-1.4-9.3-8.7v-35
			C69.7,393.6,74.2,394.7,79,394L79,394z"/>
		<path class="st5" d="M161.5,398.3l15-2.3c5.9,16.5,5.4,31.2,0,48.8l-15-2.2C165.3,425,165.7,416.6,161.5,398.3L161.5,398.3z"/>
		<path class="st5" d="M98,399.2l9.3,3.1c-2.3,12.5-2.3,24.6-0.2,36.3l-9.1,3.3C95.5,428.1,95.8,413.4,98,399.2L98,399.2z"/>
		<line class="st6" x1="112.6" y1="395.5" x2="155.8" y2="395.7"/>
		<line class="st6" x1="112.6" y1="444.9" x2="155.8" y2="445"/>
		<path class="st7" d="M210.7,695.6c7-9.4,16.5-22.4,28.4-34.5c9.6-9.6,19.2-19.2,28.9-28.9c13.5-11.8,23.2-22.3,36-28.9
			c2.4-1.4,9.6-3.3,12.9,0l24.5,24.5c3.9,3.9,0,10.1-1.1,11.8c-7.4,12.1-16.5,23.1-29,35.6l-29.2,29.2c-11.4,11.4-24,21.5-34.1,28.5
			c-2.9,1.9-7.5,5.6-12.7,0.4l-24.7-24.7C203.9,702,207.8,699.5,210.7,695.6L210.7,695.6z"/>
		<path class="st5" d="M272.1,640.3l9-12.3c15.8,7.5,25.9,18.3,34.5,34.5l-12.1,9.1C293.7,656.6,288,650.4,272.1,640.3L272.1,640.3z
			"/>
		<path class="st5" d="M227.8,685.9l8.8-4.4c7.2,10.4,15.7,19,25.6,25.8l-4.1,8.8C246.5,708.1,236.3,697.5,227.8,685.9L227.8,685.9z
			"/>
		<line class="st6" x1="235.6" y1="673" x2="266.3" y2="642.5"/>
		<line class="st6" x1="270.5" y1="707.9" x2="301.1" y2="677.4"/>
		<path class="st5" d="M418.9,167.7c1.7,11.6,4.2,27.5,4.3,44.5c0,13.6,0,27.2,0,40.9c-1.2,17.9-0.7,32.2-5,45.9
			c-0.7,2.7-4.5,9.1-9.2,9.1h-34.6c-5.5,0-7.1-7.1-7.6-9.1c-3.3-13.8-4.7-28-4.7-45.7V212c0-16.1,1.7-32.2,4-44.3
			c0.7-3.4,1.4-9.3,8.7-9.3h35C419.2,158.4,418.2,162.9,418.9,167.7L418.9,167.7z"/>
		<path class="st5" d="M414.5,250.2l2.3,15c-16.5,5.9-31.2,5.4-48.8,0l2.2-15C387.8,254,396.2,254.3,414.5,250.2L414.5,250.2z"/>
		<path class="st5" d="M413.7,186.6l-3.1,9.3c-12.5-2.3-24.6-2.3-36.3-0.2l-3.3-9.1C384.8,184.1,399.5,184.5,413.7,186.6
			L413.7,186.6z"/>
		<line class="st6" x1="417.3" y1="201.3" x2="417.1" y2="244.5"/>
		<line class="st6" x1="368" y1="201.3" x2="367.8" y2="244.5"/>
		<polygon class="st8" points="452.5,318.3 457.3,353.6 441.6,352.2 		"/>
		<path class="st9" d="M333.6,610.1c57.3-75.5,98.8-127.4,116.5-260.1"/>
		<polygon class="st8" points="452.1,610.8 459.6,576 443.8,576.1 		"/>
		<path class="st9" d="M394.6,312.3c0.4,101.8,57.2,139.9,56.9,260.8"/>
		<polygon class="st8" points="449.3,722.1 458.3,687.6 442.5,687.1 		"/>
		<path class="st9" d="M228.4,422.5c151.3,17.2,213.7,112.4,221.8,260.9"/>
		<polygon class="st10" points="121.2,375 121.2,320 132,320 154.5,356.7 154.5,320 164.8,320 164.8,375 153.7,375 131.5,339.1 
			131.5,375 		"/>
		<path class="st10" d="M197.2,622.3l10.8-1.1c0.6,3.6,2,6.3,4,8s4.7,2.5,8,2.5c3.6,0,6.3-0.8,8.1-2.3c1.8-1.5,2.7-3.3,2.7-5.3
			c0-1.3-0.4-2.4-1.2-3.3c-0.8-0.9-2.1-1.7-4-2.4c-1.3-0.5-4.3-1.3-8.9-2.4c-6-1.5-10.1-3.3-12.5-5.4c-3.4-3-5.1-6.7-5.1-11.1
			c0-2.8,0.8-5.4,2.4-7.9c1.6-2.4,3.9-4.3,6.9-5.6s6.6-1.9,10.8-1.9c6.9,0,12.1,1.5,15.6,4.5s5.3,7.1,5.5,12.1l-11.1,0.5
			c-0.5-2.8-1.5-4.9-3.1-6.1c-1.6-1.2-3.9-1.9-7-1.9c-3.2,0-5.8,0.7-7.6,2c-1.2,0.8-1.8,2-1.8,3.4c0,1.3,0.6,2.4,1.7,3.3
			c1.4,1.2,4.8,2.4,10.2,3.7c5.4,1.3,9.4,2.6,12,4s4.6,3.2,6.1,5.6c1.5,2.4,2.2,5.3,2.2,8.8c0,3.2-0.9,6.1-2.6,8.9
			c-1.8,2.8-4.2,4.8-7.4,6.1c-3.2,1.3-7.2,2-12,2c-7,0-12.3-1.6-16-4.8C200.2,633.2,197.9,628.5,197.2,622.3L197.2,622.3z"/>
		<path class="st10" d="M476.2,235.3l10.8,3.4c-1.7,6-4.4,10.5-8.2,13.4s-8.7,4.4-14.6,4.4c-7.3,0-13.3-2.5-18-7.5
			s-7.1-11.8-7.1-20.5c0-9.2,2.4-16.3,7.1-21.3c4.7-5.1,10.9-7.6,18.7-7.6c6.7,0,12.2,2,16.4,6c2.5,2.3,4.4,5.7,5.6,10.1l-11,2.6
			c-0.6-2.9-2-5.1-4.1-6.8s-4.6-2.5-7.5-2.5c-4.1,0-7.4,1.5-9.9,4.4s-3.8,7.7-3.8,14.2c0,7,1.2,11.9,3.8,14.9c2.5,3,5.8,4.4,9.8,4.4
			c3,0,5.5-0.9,7.6-2.8C473.7,242.3,475.2,239.3,476.2,235.3L476.2,235.3z"/>
	</g>
</g>
</svg>
