<?xml version="1.0" encoding="utf-8"?>
<!-- Generator: Adobe Illustrator 19.2.0, SVG Export Plug-In . SVG Version: 6.00 Build 0)  -->
<svg version="1.1" id="Livello_1" xmlns="http://www.w3.org/2000/svg" xmlns:xlink="http://www.w3.org/1999/xlink" x="0px" y="0px"
	 viewBox="0 0 875 900" style="enable-background:new 0 0 875 900;" xml:space="preserve">
<style type="text/css">
	.st0{fill:#FFFFFF;}
	.st1{fill:#B9B9B9;}
	.st2{fill:#3D3D3F;stroke:#1A171B;stroke-width:1.39;stroke-miterlimit:2.6131;}
	.st3{fill:#FFFFFF;stroke:#1A171B;stroke-width:1.39;stroke-miterlimit:2.6131;}
	.st4{fill:none;stroke:#FFFFFF;stroke-width:1.8533;stroke-miterlimit:2.6131;}
	.st5{fill:#049853;stroke:#1A171B;stroke-width:1.39;stroke-miterlimit:2.6131;}
	.st6{fill:none;stroke:#1A171B;stroke-width:1.8533;stroke-miterlimit:2.6131;}
	.st7{fill:#1A171B;}
	.st8{fill:#00A6E2;stroke:#1A171B;stroke-width:1.39;stroke-miterlimit:2.6131;}
	.st9{fill:#E43417;stroke:#1A171B;stroke-width:1.39;stroke-miterlimit:2.6131;}
	.st10{fill:#FFEC00;stroke:#1A171B;stroke-width:1.39;stroke-linecap:square;stroke-miterlimit:2.6131;}
	.st11{fill:#FFFFFF;stroke:#1A171B;stroke-width:1.39;stroke-linecap:square;stroke-miterlimit:2.6131;}
	.st12{fill:none;stroke:#1A171B;stroke-width:1.39;stroke-miterlimit:2.6131;}
	.st13{fill:none;stroke:#1A171B;stroke-width:4.6334;stroke-miterlimit:2.6131;}
	
		.st14{fill:none;stroke:#1A171B;stroke-width:4.6334;stroke-linecap:square;stroke-miterlimit:2.6131;stroke-dasharray:23.1668,23.1668;}
</style>
<g>
	<g>
		<polygon class="st0" points="117,331.8 2.8,331.8 2.8,599.6 100,599.6 4.5,769 264.7,769 338.5,638 464,769 872.4,769 
			872.4,767.6 711.3,599.6 872.4,599.6 872.4,331.8 699.3,331.8 872.4,226.1 872.4,131 513.5,131 340.8,236.2 264.8,131 2.5,131 
			2.5,173.2 		"/>
		<path class="st1" d="M117.8,357.8H2.6v216.1h101.2c19.2,0.9,29.3,20.2,20.3,35.2L34,769h201.2l78-138.7c15-21.6,33-21.2,50.6-3
			L499.4,769h339L684.3,608.4c-15.6-15-7.3-34.2,15.1-34.5h173l0.1-216.1H684.6c-24.4-1.3-29.3-23.3-13.4-38.7l201.2-122.8V131
			H562.7L360.9,254c-19,11.3-30.6,9.4-44.7-8.4L233.4,131H3.4l134.4,186.3C149.4,334.1,141.8,358.3,117.8,357.8L117.8,357.8z"/>
		<path class="st2" d="M119.8,167.3c7.9,8.4,18.6,19.8,28.2,33.3c7.6,10.9,15.1,21.8,22.8,32.9c9,15,17.3,26.2,21.5,39.7
			c0.9,2.5,1.5,9.8-2.3,12.4l-27.8,19.3c-4.5,3.1-9.7-1.8-11.2-3.1c-10.3-9.2-19.4-19.9-29.2-34.1l-23-33.2
			c-8.9-12.9-16.5-26.8-21.5-37.8c-1.3-3.1-4.1-8.2,1.8-12.3l28.1-19.5C114.9,159.7,116.6,163.8,119.8,167.3L119.8,167.3z"/>
		<path class="st3" d="M162.3,236l10.2,10.8c-10,13.9-22.1,21.7-39.2,27.2l-6.6-13.3C142.9,253.9,149.9,249.5,162.3,236L162.3,236z"
			/>
		<path class="st3" d="M126.2,185.4l2.7,9.2c-11.3,5.1-21,11.8-29.3,20.1l-7.7-5.5C101.6,199.5,113.6,191.6,126.2,185.4L126.2,185.4
			z"/>
		<line class="st4" x1="137.3" y1="195.2" x2="161.2" y2="230"/>
		<line class="st4" x1="97.6" y1="222.6" x2="121.6" y2="257.5"/>
		<path class="st5" d="M772.5,381.5c-11.3-1.7-26.9-4.1-43.5-4.2c-13.3,0-26.5,0-40,0c-17.5,1.2-31.4,0.7-44.9,4.9
			c-2.6,0.7-8.9,4.4-8.9,9V425c0,5.4,7,6.9,8.9,7.4c13.4,3.2,27.4,4.6,44.7,4.6h40.3c15.7,0,31.4-1.7,43.3-3.9
			c3.3-0.7,9.1-1.4,9.1-8.5v-34.2C781.6,381.2,777.3,382.2,772.5,381.5L772.5,381.5z"/>
		<path class="st3" d="M691.9,385.7l-14.7-2.3c-5.8,16.1-5.2,30.5,0,47.7l14.7-2.1C688.2,411.9,687.9,403.6,691.9,385.7L691.9,385.7
			z"/>
		<path class="st3" d="M754,386.6l-9.1,3c2.3,12.2,2.3,24,0.2,35.5l8.9,3.2C756.5,414.8,756.1,400.5,754,386.6L754,386.6z"/>
		<line class="st6" x1="739.7" y1="383" x2="697.5" y2="383.2"/>
		<line class="st6" x1="739.7" y1="431.2" x2="697.5" y2="431.4"/>
		<polygon class="st2" points="751.6,537.9 717,530.1 717,545.8 		"/>
		<polygon class="st2" points="165.4,619.8 190.3,594.4 176.9,586.2 		"/>
		<polygon class="st2" points="49.3,407.2 83.9,415.1 83.9,399.3 		"/>
		<path class="st7" d="M169.2,740h-11.7l-4.6-12.1h-21.3l-4.4,12.1h-11.4l20.7-53.2h11.4L169.2,740L169.2,740z M149.5,719l-7.3-19.7
			L135,719H149.5L149.5,719z"/>
		<polygon class="st7" points="186,220.9 186,168.2 196.7,168.2 196.7,212 223.4,212 223.4,220.9 		"/>
		<path class="st7" d="M666,232.3v-53.2h22.6c5.7,0,9.8,0.5,12.4,1.4c2.6,1,4.6,2.6,6.2,5.1c1.5,2.5,2.3,5.2,2.3,8.4
			c0,4-1.2,7.3-3.5,9.9c-2.3,2.6-5.9,4.2-10.5,4.9c2.3,1.4,4.2,2.8,5.8,4.5c1.5,1.6,3.5,4.5,6.1,8.6l6.5,10.4h-12.8l-7.8-11.6
			c-2.8-4.1-4.7-6.7-5.7-7.8s-2.1-1.8-3.2-2.2c-1.1-0.4-2.9-0.6-5.4-0.6h-2.2v22.2H666L666,232.3z M676.8,201.6h7.9
			c5.2,0,8.4-0.2,9.7-0.6c1.3-0.4,2.3-1.2,3-2.3s1.1-2.4,1.1-4c0-1.8-0.5-3.2-1.4-4.3c-1-1.1-2.3-1.8-4.1-2.1
			c-0.9-0.1-3.5-0.2-7.8-0.2h-8.4V201.6L676.8,201.6z"/>
		<path class="st7" d="M615.2,703.5l10.4,3.3c-1.6,5.8-4.2,10.1-8,12.9c-3.7,2.8-8.4,4.2-14.1,4.2c-7.1,0-12.9-2.4-17.4-7.2
			s-6.8-11.4-6.8-19.8c0-8.9,2.3-15.7,6.9-20.6c4.6-4.9,10.6-7.3,18-7.3c6.5,0,11.8,1.9,15.9,5.8c2.4,2.3,4.2,5.5,5.4,9.8l-10.6,2.5
			c-0.6-2.8-1.9-4.9-3.9-6.5s-4.4-2.4-7.3-2.4c-3.9,0-7.1,1.4-9.6,4.2s-3.7,7.4-3.7,13.8c0,6.7,1.2,11.5,3.6,14.4
			c2.4,2.9,5.6,4.3,9.4,4.3c2.9,0,5.3-0.9,7.4-2.7C612.8,710.3,614.3,707.4,615.2,703.5L615.2,703.5z"/>
		<polygon class="st7" points="690.6,503.2 690.6,450 730.1,450 730.1,459 701.4,459 701.4,470.8 728.1,470.8 728.1,479.8 
			701.4,479.8 701.4,494.2 731.1,494.2 731.1,503.2 		"/>
		<path class="st8" d="M715.1,673.5c-6.7-9.3-15.8-22.1-27.3-34.1c-9.3-9.5-18.5-19-27.9-28.7c-13-11.7-22.4-22.1-34.8-28.8
			c-2.3-1.4-9.4-3.3-12.6-0.1l-24.3,23.6c-3.9,3.8-0.1,9.8,0.9,11.6c7.1,11.9,15.8,22.8,27.9,35.2l28.1,28.9
			c11,11.3,23.1,21.3,33,28.3c2.8,1.9,7.3,5.6,12.4,0.6l24.5-23.8C721.6,679.8,717.9,677.4,715.1,673.5L715.1,673.5z"/>
		<path class="st3" d="M655.8,618.6l-8.6-12.1c-15.6,7.1-25.5,17.5-34.2,33.3l11.7,9C634.5,634.2,640.2,628.2,655.8,618.6
			L655.8,618.6z"/>
		<path class="st3" d="M698.5,663.8l-8.5-4.4c-7.2,10.1-15.6,18.4-25.4,24.9l3.9,8.6C680,685.2,690,675,698.5,663.8L698.5,663.8z"/>
		<line class="st6" x1="691.1" y1="651" x2="661.5" y2="620.9"/>
		<line class="st6" x1="656.5" y1="684.7" x2="626.9" y2="654.5"/>
		<path class="st9" d="M179.2,709c4-10.7,9.5-25.5,17.4-40c6.5-11.6,12.9-23.2,19.4-34.9c9.5-14.7,15.9-27.1,26.1-36.8
			c1.9-2,8.2-5.6,12.2-3.4l29.6,16.5c4.7,2.6,2.7,9.5,2.2,11.4c-3.7,13.3-9.3,26.2-17.8,41.3l-19.6,35.2
			c-7.6,13.7-16.8,26.6-24.5,35.9c-2.2,2.6-5.6,7.3-11.8,3.8l-29.9-16.6C174.5,716.8,177.5,713.5,179.2,709L179.2,709z"/>
		<path class="st3" d="M222.1,640.6l5.1-13.9c16.9,2.8,29.2,10.3,41.7,23.2l-9,11.8C246.8,650.1,239.7,645.8,222.1,640.6
			L222.1,640.6z"/>
		<path class="st3" d="M192.7,695.3l7.1-6.5c9.5,7.9,19.9,13.7,31,17.4l-1.5,9.3C216.2,711.2,203.8,703.9,192.7,695.3L192.7,695.3z"
			/>
		<line class="st6" x1="196.5" y1="681.1" x2="217.2" y2="644.3"/>
		<line class="st6" x1="238.6" y1="704.6" x2="259.3" y2="667.7"/>
		<polygon class="st10" points="593,146.7 583.4,152.7 629.5,226.7 639.1,220.8 		"/>
		<path class="st10" d="M482.8,327.5l30.6-19.1c1.2-0.8,1.5-2.6,0.6-4.1s-3.1-1.8-3.9-1.3l-32.6,20.4
			C477.4,323.4,480.5,328.9,482.8,327.5L482.8,327.5z"/>
		<path class="st10" d="M428.4,240.2l30.6-19.1c1.2-0.8,3-0.2,3.9,1.3s0.2,3.6-0.6,4.1l-32.6,20.3
			C429.7,246.8,426.1,241.6,428.4,240.2L428.4,240.2z"/>
		<path class="st10" d="M403.3,259.5l51,81.9l-2.8,1.7c-4.6,2.9-10.6,1.6-13.4-2.9l-40.9-65.7c-2.8-4.5-1.3-10.4,3.3-13.3
			L403.3,259.5L403.3,259.5z"/>
		<path class="st10" d="M404.7,262.4l49-30.5l47.6,76.5l-49,30.5c-3.7,2.3-8.9,1.4-11.2-2.4l-39.2-62.9
			C399.6,269.7,400.8,264.8,404.7,262.4L404.7,262.4z"/>
		<path class="st10" d="M422.9,258l24.9-15.5c1.9-1.2,4.8,0.1,6.6,3l35.1,56.3c1.8,2.9,1.7,6.1-0.2,7.3l-24.9,15.5
			c-1.9,1.2-4.7-0.4-6.6-3.1c-13.4-17.8-24.9-36.6-35.1-56.3C421.1,262.2,421,259.1,422.9,258L422.9,258z"/>
		<path class="st11" d="M407.9,264.8c1.6,0.3,9.1-0.1,9.6,0.8c8.9,20.3,23.3,43.6,38,61.1c0.3,0.2-3.6,6.7-4,8.2
			c-0.5,1.7-4.5,0.3-5.8-1.5c-14.6-19.8-27.7-40.8-39-62.6C405.5,268.5,405.8,264.5,407.9,264.8L407.9,264.8z"/>
		<path class="st10" d="M596.1,257l30.6-19.1c1.2-0.8,1.5-2.6,0.6-4.1s-3.9-1.3-3.9-1.3l-32.6,20.3
			C590.8,252.8,593.8,258.4,596.1,257L596.1,257z"/>
		<path class="st10" d="M541.7,169.6l30.6-19.1c1.2-0.8,3-0.2,3.9,1.3s-0.6,4.1-0.6,4.1L543,176.2
			C543.1,176.2,539.5,171,541.7,169.6L541.7,169.6z"/>
		<polygon class="st10" points="451.9,229.3 587.8,144.7 638.8,226.5 502.9,311.1 		"/>
		<polygon class="st10" points="461.6,230.7 584.9,154 629.2,225 505.8,301.8 		"/>
		<polygon class="st10" points="470.3,244.8 593.7,168 620.5,211.1 497.1,287.9 		"/>
		<polygon class="st10" points="479.3,259.1 602.6,182.4 611.5,196.7 488.2,273.5 		"/>
		<path class="st12" d="M3.3,131l134.4,186.3c11.5,16.9,4,41.1-20,40.5H2.5 M2.5,573.9h101.2c19.2,0.9,29.3,20.2,20.3,35.2L33.9,769
			 M235,769l78-138.7c15-21.6,33-21.2,50.6-3L499.3,769 M838.3,769L684.2,608.4c-15.6-15-7.2-34.2,15.1-34.5h173 M872.4,357.8H684.5
			c-24.4-1.3-29.3-23.3-13.4-38.7l201.2-122.8 M562.6,131L360.8,254c-19,11.3-30.6,9.4-44.7-8.4L233.3,131"/>
		<path class="st13" d="M2.5,173.2L117,331.8H2.8 M2.8,599.6H100L4.5,769 M264.7,769l73.8-131L464,769 M872.4,769v-1.4l-161-168
			l161,0.3 M872.4,331.8H699.3l173.1-105.7 M513.5,131L340.8,236.2l-76-105.2"/>
		<path class="st14" d="M632.6,407.3h-546c136-12.4,249.2-45.2,327.8-94.8"/>
		<path class="st14" d="M177.1,297.1C296.2,426,472.7,507.6,714.3,537.9c-61.7,0.2-123.4-0.2-185.1,0.6
			c-119.1,1.6-203.4-8.1-255.1,62.2"/>
		<path class="st14" d="M599.5,591.7c-109.2-90.5-316.9-114.4-416-2.6"/>
	</g>
</g>
</svg>
