<?xml version="1.0" encoding="utf-8"?>
<!-- Generator: Adobe Illustrator 19.2.0, SVG Export Plug-In . SVG Version: 6.00 Build 0)  -->
<svg version="1.1" id="Livello_1" xmlns="http://www.w3.org/2000/svg" xmlns:xlink="http://www.w3.org/1999/xlink" x="0px" y="0px"
	 viewBox="0 0 960 960" style="enable-background:new 0 0 960 960;" xml:space="preserve">
<style type="text/css">
	.st0{fill-rule:evenodd;clip-rule:evenodd;fill:#CECFD1;stroke:#1A171B;stroke-width:1.6467;stroke-miterlimit:2.6131;}
	.st1{fill-rule:evenodd;clip-rule:evenodd;fill:#9B9C9E;stroke:#1A171B;stroke-width:1.6467;stroke-miterlimit:2.6131;}
	.st2{fill-rule:evenodd;clip-rule:evenodd;fill:#FFFFFF;stroke:#1A171B;stroke-width:1.6467;stroke-miterlimit:2.6131;}
	.st3{fill-rule:evenodd;clip-rule:evenodd;fill:#008E43;stroke:#1A171B;stroke-width:1.6467;stroke-miterlimit:2.6131;}
	.st4{fill-rule:evenodd;clip-rule:evenodd;fill:#ECECED;stroke:#1A171B;stroke-width:1.6467;stroke-miterlimit:2.6131;}
	.st5{fill-rule:evenodd;clip-rule:evenodd;fill:#1A171B;stroke:#1A171B;stroke-width:1.6467;stroke-miterlimit:2.6131;}
	.st6{fill:none;stroke:#1A171B;stroke-width:1.6467;stroke-miterlimit:2.6131;}
	.st7{fill-rule:evenodd;clip-rule:evenodd;fill:#E1001A;stroke:#1A171B;stroke-width:1.6467;stroke-miterlimit:2.6131;}
	.st8{fill-rule:evenodd;clip-rule:evenodd;fill:#B41E26;stroke:#1A171B;stroke-width:1.6467;stroke-miterlimit:2.6131;}
	.st9{fill-rule:evenodd;clip-rule:evenodd;fill:#D8D9DA;stroke:#1A171B;stroke-width:1.6467;stroke-miterlimit:2.6131;}
	.st10{fill-rule:evenodd;clip-rule:evenodd;fill:#00A6E2;stroke:#1A171B;stroke-width:1.6467;stroke-miterlimit:2.6131;}
	.st11{fill-rule:evenodd;clip-rule:evenodd;fill:#E1001A;}
	.st12{fill-rule:evenodd;clip-rule:evenodd;fill:#FFFFFF;}
	.st13{fill-rule:evenodd;clip-rule:evenodd;fill:#005DA2;}
	.st14{fill-rule:evenodd;clip-rule:evenodd;fill:#1A171B;}
</style>
<g>
	<g>
		<polygon class="st0" points="648.3,170.5 45,269.8 45,789.5 915,789.5 915,170.5 648.3,170.5 		"/>
		<polygon class="st1" points="45,294 915,180.3 915,211.4 45,401.3 45,294 		"/>
		<polygon class="st2" points="45,289.3 915,175.6 915,206.4 45,390 45,289.3 		"/>
		<polygon class="st3" points="489.9,789.5 915,522.6 915,789.5 489.9,789.5 		"/>
		<polygon class="st2" points="285.1,789.5 915,453.5 915,548.3 525.2,789.5 285.1,789.5 		"/>
		<polygon class="st4" points="915,175.7 45,289.3 45,170.5 915,170.5 915,175.7 		"/>
		<path class="st5" d="M543.1,674.3L543.1,674.3c1.7,0,3.1-0.9,3.1-3.7V486.9c0-2.8-1.4-5.2-3.1-5.2c-1.7,0-3,2.3-3,5.2v183.6
			C540.1,673.3,541.5,674.3,543.1,674.3L543.1,674.3z"/>
		<polygon class="st6" points="45,170.5 915,170.5 915,789.5 45,789.5 45,170.5 		"/>
		<polygon class="st7" points="136.6,621.5 231.7,726.9 214.8,760.9 116.9,662.7 136.6,621.5 		"/>
		<path class="st7" d="M132.8,621.3l47.8-18.7l36.3-24.5c48.5-25.5,85.7-34.2,126.2-41.1l42.9,9.4c15.8-6.5,46.8-12.2,66.1-11.6
			c11.1,0,70.1,47.8,69.8,60.4l-61.6,20.5l-189.6,90.6l-47,17.9C187.4,696.7,157.4,656.8,132.8,621.3L132.8,621.3z"/>
		<path class="st2" d="M216.9,578.9c18.9,23.9,44.7,52.8,75.3,73.1l-22,47.7c-37-30.2-67.1-63-89.6-97.1L216.9,578.9L216.9,578.9z"
			/>
		<polygon class="st2" points="304.7,652.7 359.8,629.8 364.2,661.6 292.9,695.8 304.7,652.7 		"/>
		<polygon class="st2" points="369,625.5 407.2,609 458.9,616.4 376,655.7 369,625.5 		"/>
		<path class="st2" d="M341.5,537.7L383,546c31.4,18.6,54.3,41.7,74.2,66.1c-15.4-3.1-28.7-5.5-44.2-8.6
			C394.9,580.4,368,556,341.5,537.7L341.5,537.7z"/>
		<path class="st7" d="M522.3,594.7c4.6,5.5,3.7,13.1,2.8,19l-279.7,140c-7.1,1.8-26.2,2.2-29.1-0.6l9-29l44.9-17.9l103.3-49.3
			l85.9-41L522.3,594.7L522.3,594.7z"/>
		<path class="st7" d="M524.2,614c-0.3,7.2-5.9,13.7-14.8,22.8L254.1,767.2c-10.9,4.5-28.1,6.4-36.7,4.8
			c-31.1-5.2-94.5-83.5-103-100.2c-4.1-7.1-3.4-19.2,1.2-26.6c24,36.4,54,68.5,85.3,99.1c5.4,3.1,10.3,6.1,15.6,9.2
			c28.6,8.2,43.8-9.6,64.8-17.1l107.1-53.9l85.9-43.1L524.2,614L524.2,614z"/>
		<path class="st8" d="M214.1,717.2l9.7,7.1c-0.4,8.3-3.8,19.4-7.6,28.8c-6.5-1.8-11.2-5.7-17.3-11.1L214.1,717.2L214.1,717.2z"/>
		<path class="st8" d="M131.9,621.2l4.9,6.4l-12.3,31.3l-9.2-13.1C118.1,637.6,124.2,625,131.9,621.2L131.9,621.2z"/>
		<polygon class="st2" points="151.7,662.5 182.4,699.9 177.3,714.1 147.4,679.3 151.7,662.5 		"/>
		<path class="st5" d="M482.1,630.4c10.9,5,13.2,19.8,5.1,32.9c-8.1,13.1-23.6,19.6-34.5,14.6c-10.9-5-13.2-19.8-5.1-32.8
			C455.7,631.9,471.2,625.3,482.1,630.4L482.1,630.4z"/>
		<path class="st9" d="M475.3,643c5.1,2.7,5.7,10,1.4,16.1c-4.3,6.1-12,8.9-17.1,6.2c-5.1-2.7-5.7-10-1.4-16.1
			C462.5,643,470.2,640.2,475.3,643L475.3,643z"/>
		<path class="st5" d="M312.6,717.6c11.9,7.2,12.4,24.9,1,39.3c-11.4,14.4-30.4,20.3-42.4,13c-11.9-7.2-12.4-24.8-1-39.2
			C281.6,716.2,300.6,710.4,312.6,717.6L312.6,717.6z"/>
		<path class="st9" d="M302.7,730.1c6.2,3.8,6.5,13,0.5,20.5c-5.9,7.5-15.9,10.6-22.1,6.8c-6.2-3.8-6.5-13-0.5-20.5
			C286.5,729.4,296.4,726.3,302.7,730.1L302.7,730.1z"/>
		<path class="st10" d="M593.6,473.2c-3.3-10.8-1.3-24.6,5.9-35.4c7.8-11.9,22-31.1,30.4-34.4c32.8-12.6,60.3-20.7,96.6-30.4
			c3-0.8,6.5-0.2,9.7-1.1l22.6,1.8c14.2-1.7,34.9-7.3,51.3-8c9.2,0.2,82.3,36.9,83.2,47.5l-49.3,16.1l-162,77.3
			c-3.9,0-5.9,34.4-8.8,33.3C650.9,532,610.4,500.2,593.6,473.2L593.6,473.2z"/>
		<path class="st2" d="M626.8,410.4c16.2,17.4,32.8,36.6,52.4,45.1l-9.7,38.2c-30.7-23.1-42.9-34.6-61.8-59.5L626.8,410.4
			L626.8,410.4z"/>
		<polygon class="st2" points="688.3,454.3 734.2,435.9 745.6,464.1 681,493.4 688.3,454.3 		"/>
		<polygon class="st2" points="746.9,430.1 777.5,418.3 819.4,430.2 761.1,456.9 746.9,430.1 		"/>
		<path class="st2" d="M734.9,375.5l27.7,2.1c27.8,16.2,36.5,23.6,55.3,44.5c-13.1-2.9-24.4-5.2-37.5-8.1
			C763.2,394.3,758.6,391.3,734.9,375.5L734.9,375.5z"/>
		<path class="st10" d="M893.1,413.1c4.3,4.7,3.9,10.8,3.7,15.8l-206,107.3c-21.7,6.7-13.8,3.8-16.5,1.4l6.2-30.5l161.5-77.3
			L893.1,413.1L893.1,413.1z"/>
		<path class="st10" d="M896.1,429.1c0.4,6.1-3.7,11.4-10.2,18.9l-189.7,99.4c-12.3,4.1-21.5,3.9-28.8-0.6
			c-26.3-4.9-64.6-51.1-73.2-65.3c-4-6.1-4.6-16.2-1.4-22.3c23.3,31,29.6,37.8,58.4,64c4.7,2.7,9.1,5.3,13.8,8
			c22.9,9,23.3,2.4,40.5-3.9l84.1-43.3l67.5-34.5L896.1,429.1L896.1,429.1z"/>
		<path class="st7" d="M667.6,503l12.8,4.6c-1.4,7.1-3.1,19-5.6,27.1c-5.8-1.7-10.8-3.7-17.5-7.5L667.6,503L667.6,503z"/>
		<path class="st7" d="M599,438.4l7.1,8.7l-4.6,23.3l-9.4-11.3C593.2,451.2,595,445.3,599,438.4L599,438.4z"/>
		<polygon class="st2" points="617.1,463.2 649.5,496 646.8,509.4 614.2,476.4 617.1,463.2 		"/>
		<path class="st5" d="M868.5,433.4c9.5,4.4,12.8,16.8,7.2,27.7c-5.5,10.8-17.8,16-27.3,11.6c-9.5-4.4-12.8-16.8-7.3-27.7
			C846.7,434.2,859,428.9,868.5,433.4L868.5,433.4z"/>
		<path class="st9" d="M864,443.8c4.5,2.4,5.7,8.5,2.6,13.5c-3.1,5.1-9.2,7.2-13.7,4.8c-4.5-2.4-5.7-8.5-2.6-13.5
			C853.4,443.6,859.5,441.4,864,443.8L864,443.8z"/>
		<path class="st5" d="M732.5,502.5c10.3,6.1,12.2,20.5,4.3,32.1c-7.9,11.6-22.8,16-33.1,9.9c-10.3-6.1-12.2-20.5-4.3-32.1
			C707.3,500.8,722.2,496.4,732.5,502.5L732.5,502.5z"/>
		<path class="st9" d="M725.2,513.1c5.1,3,6.1,10.2,2.1,15.9c-3.9,5.7-11.3,7.9-16.4,4.9c-5.1-3-6.1-10.2-2.1-15.9
			C712.7,512.2,720.1,510,725.2,513.1L725.2,513.1z"/>
		<polyline class="st6" points="740.6,433.3 757,470.4 770,494 		"/>
		<line class="st6" x1="736.9" y1="434.8" x2="744.6" y2="431.4"/>
		<path class="st2" d="M545.7,405.9c6.4,2.8,11.6,6,16.1,10.3c4.6,4.3,8.4,9.7,12,16.7c2,4.7,3.4,9.1,4.2,13.5
			c0.8,4.4,1,8.8,0.8,13.5c-1.2,9.2-4.3,16.6-9.2,21.9c-4.7,5.3-11.1,8.6-18.7,9.8c-8.4,0.9-16.5-1.3-23.7-5.7
			c-7.1-4.4-13.3-11.2-18.3-19.7c-3.1-6.1-5.1-12-6.1-18c-0.9-6-0.8-12.1,0.5-18.3c1.4-4.7,3-8.5,5.1-11.9c2.2-3.4,4.9-6.2,8.5-9
			c3.8-2.3,7.6-3.9,11.6-4.6c4-0.8,8.3-0.7,13.2,0.3C543,405.2,544.4,405.6,545.7,405.9L545.7,405.9z"/>
		<path class="st11" d="M540.9,407.3c10.4,2.4,19.9,9.8,26.4,19.7c6.6,10,10.1,22.3,9,34.4c-1.1,11.9-6.5,21.3-14.1,26.6
			c-7.5,5.2-17,6.7-26.9,3.4c-9.7-3.3-18-10.6-23.8-19.7c-5.7-9.1-9-20.2-8.5-31.3c0.5-11.2,4.8-20.6,11.5-26.6
			C521.3,407.7,530.5,404.9,540.9,407.3L540.9,407.3z"/>
		<path class="st12" d="M540.2,418.6c7.7,1.9,14.6,7.4,19.4,14.7c4.8,7.3,7.4,16.4,6.6,25.3c-0.7,8.8-4.6,15.8-10.2,19.8
			c-5.5,4-12.6,5.2-20,2.8c-7.3-2.4-13.6-7.8-17.9-14.7c-4.3-6.8-6.8-15.2-6.4-23.6c0.4-8.4,3.7-15.4,8.8-19.8
			C525.5,418.6,532.5,416.7,540.2,418.6L540.2,418.6z"/>
		<path class="st13" d="M540,420.8c7.1,1.8,13.4,6.8,17.8,13.5c4.4,6.7,6.8,15,6.1,23.2c-0.7,8.1-4.3,14.5-9.4,18.3
			c-5,3.7-11.6,4.8-18.4,2.6c-6.7-2.2-12.5-7.2-16.5-13.5c-4-6.3-6.3-14-5.9-21.7c0.4-7.8,3.5-14.2,8.1-18.2
			C526.6,420.8,533,419,540,420.8L540,420.8z"/>
		<path class="st12" d="M525.5,420.4c5.6,8.7,11.2,17.4,16.9,26.1c5.7,8.8,11.4,17.7,17.2,26.6c-3.2,2.3-6.3,4.6-9.4,6.8
			c-5.7-8.8-11.3-17.6-16.8-26.3c-5.5-8.6-11-17.2-16.5-25.8C519.7,425.5,522.6,423,525.5,420.4L525.5,420.4z"/>
		<path class="st11" d="M520.3,416.4c6.7,10.5,13.5,21,20.4,31.6c6.9,10.7,13.8,21.5,20.9,32.3c-1.9,1.4-3.8,2.7-5.7,4.1
			c-6.9-10.8-13.8-21.5-20.6-32.1c-6.8-10.5-13.5-21-20.1-31.4C516.8,419.5,518.5,417.9,520.3,416.4L520.3,416.4z"/>
		<path class="st14" d="M271.5,501.6l12,3.8c-1.9,6.7-4.9,11.7-9.2,15c-4.3,3.3-9.7,4.9-16.4,4.9c-8.2,0-14.9-2.8-20.1-8.4
			c-5.3-5.6-7.9-13.2-7.9-22.9c0-10.2,2.7-18.2,7.9-23.9c5.3-5.7,12.2-8.5,20.9-8.5c7.5,0,13.6,2.2,18.3,6.7
			c2.8,2.6,4.9,6.4,6.3,11.3l-12.3,2.9c-0.7-3.2-2.2-5.7-4.6-7.6c-2.3-1.8-5.1-2.8-8.4-2.8c-4.6,0-8.3,1.6-11.1,4.9
			c-2.8,3.3-4.3,8.6-4.3,15.9c0,7.8,1.4,13.3,4.2,16.6c2.8,3.3,6.4,5,10.9,5c3.3,0,6.1-1,8.5-3.2
			C268.7,509.4,270.4,506.1,271.5,501.6L271.5,501.6z"/>
		<polygon class="st14" points="655.2,359 655.2,297.5 667.6,297.5 667.6,321.7 692,321.7 692,297.5 704.4,297.5 704.4,359 692,359 
			692,332.1 667.6,332.1 667.6,359 655.2,359 		"/>
	</g>
</g>
</svg>
