<?xml version="1.0" encoding="utf-8"?>
<!-- Generator: Adobe Illustrator 19.2.0, SVG Export Plug-In . SVG Version: 6.00 Build 0)  -->
<svg version="1.1" id="Livello_1" xmlns="http://www.w3.org/2000/svg" xmlns:xlink="http://www.w3.org/1999/xlink" x="0px" y="0px"
	 viewBox="0 0 960 960" style="enable-background:new 0 0 960 960;" xml:space="preserve">
<style type="text/css">
	.st0{fill-rule:evenodd;clip-rule:evenodd;fill:#FFFFFF;}
	.st1{fill-rule:evenodd;clip-rule:evenodd;fill:#CECFD1;}
	.st2{fill:none;stroke:#1A171B;stroke-width:1.4875;stroke-miterlimit:2.6131;}
	.st3{fill:none;stroke:#1A171B;stroke-width:4.9583;stroke-miterlimit:2.6131;}
	.st4{fill-rule:evenodd;clip-rule:evenodd;fill:#FFEC00;}
	.st5{fill-rule:evenodd;clip-rule:evenodd;fill:#009DDF;stroke:#1A171B;stroke-width:0.4958;stroke-miterlimit:2.6131;}
	.st6{fill-rule:evenodd;clip-rule:evenodd;fill:#FFFFFF;stroke:#1A171B;stroke-width:0.4958;stroke-miterlimit:2.6131;}
	.st7{fill:none;stroke:#1A171B;stroke-width:0.4958;stroke-miterlimit:2.6131;}
	.st8{fill-rule:evenodd;clip-rule:evenodd;fill:#E1001A;stroke:#1A171B;stroke-width:0.4958;stroke-miterlimit:2.6131;}
	.st9{fill-rule:evenodd;clip-rule:evenodd;fill:#008F36;stroke:#1A171B;stroke-width:0.4958;stroke-miterlimit:2.6131;}
	.st10{fill-rule:evenodd;clip-rule:evenodd;fill:#1A171B;}
</style>
<g>
	<g>
		<path class="st0" d="M45.2,726.1v-492H915v492C625,725.7,335.2,725.7,45.2,726.1L45.2,726.1z"/>
		<path class="st1" d="M45.2,542.2V255.9H915v286.2C625,541.9,335.2,541.9,45.2,542.2L45.2,542.2z"/>
		<path class="st1" d="M45.3,543.6v161.5h869.5V543.6C624.9,543.8,335.2,543.8,45.3,543.6L45.3,543.6z"/>
		<line class="st2" x1="45" y1="255.7" x2="914.8" y2="255.7"/>
		<line class="st2" x1="45" y1="705.1" x2="914.8" y2="705.1"/>
		<line class="st3" x1="45.1" y1="234.1" x2="915" y2="234.1"/>
		<line class="st3" x1="45.1" y1="725.9" x2="915" y2="725.9"/>
		<path class="st0" d="M855.3,400.8v-10.6h59.6v10.6H855.3L855.3,400.8z M824.4,390.2v10.6h-59.1v-10.6H824.4L824.4,390.2z
			 M734.4,390.2v10.6h-59.1v-10.6H734.4L734.4,390.2z M644.4,390.2v10.6h-59.1v-10.6H644.4L644.4,390.2z M554,390.2v10.6h-58.7
			v-10.6H554L554,390.2z M464.1,390.2v10.6h-58.7v-10.6H464.1L464.1,390.2z M374.1,390.2v10.6H315v-10.6H374.1L374.1,390.2z
			 M284.1,390.2v10.6h-35H225v-10.6H284.1L284.1,390.2z M194.1,390.2v10.6H135v-10.6H194.1L194.1,390.2z M104.1,390.2v10.6H45v-10.6
			H104.1L104.1,390.2z"/>
		<polygon class="st4" points="76.3,700.7 65.5,700.7 65.5,535.2 76.3,535.2 76.3,700.7 		"/>
		<polygon class="st4" points="337.2,700.7 326.4,700.7 326.4,535.2 337.2,535.2 337.2,700.7 		"/>
		<polygon class="st4" points="685.2,700.7 674.4,700.7 674.4,535.2 685.2,535.2 685.2,700.7 		"/>
		<polygon class="st4" points="163.3,700.7 152.5,700.7 152.5,535.2 163.3,535.2 163.3,700.7 		"/>
		<polygon class="st4" points="424.2,700.7 413.4,700.7 413.4,535.2 424.2,535.2 424.2,700.7 		"/>
		<polygon class="st4" points="772.1,700.7 761.3,700.7 761.3,535.2 772.1,535.2 772.1,700.7 		"/>
		<polygon class="st4" points="250.2,700.7 239.4,700.7 239.4,535.2 250.2,535.2 250.2,700.7 		"/>
		<polygon class="st4" points="598.2,700.7 587.4,700.7 587.4,535.2 598.2,535.2 598.2,700.7 		"/>
		<polygon class="st4" points="511.2,700.7 500.4,700.7 500.4,535.2 511.2,535.2 511.2,700.7 		"/>
		<polygon class="st4" points="859.1,700.7 848.3,700.7 848.3,535.2 859.1,535.2 859.1,700.7 		"/>
		<polygon class="st4" points="915,544 915,533.4 45.3,533.4 45.3,544 915,544 		"/>
		<path class="st5" d="M740.7,591.8l-36.3-3.8h-47.3l-38.5,5c-3.5,0.3-6.3,3.3-6.3,5.7c0,10.9,0,21.7,0,32.7c0,2.4,3.5,5.6,6.3,5.7
			l38.4,4.1h47.7l36.1-3.5c2.9-0.3,6.3-2.6,6.3-5.7v-34.5C747,594.4,744.2,592.1,740.7,591.8L740.7,591.8z"/>
		<path class="st6" d="M664.5,591.7l-13.5,1.9c-5.3,14.4-4.8,27.2,0,42.5l13.5,1.7C661.1,622.5,660.8,607.6,664.5,591.7L664.5,591.7
			z"/>
		<polygon class="st6" points="721.4,596.5 713.3,599 713.3,630.9 721.4,633.6 721.4,596.5 		"/>
		<path class="st6" d="M742.2,606h2.1c0.6,0,1.1,0.2,1.1,0.5V623c0,0.3-0.5,0.5-1.1,0.5h-2.1c-0.6,0-1.1-0.2-1.1-0.5v-16.5
			C741,606.2,741.5,606,742.2,606L742.2,606z"/>
		<line class="st7" x1="708.4" y1="593.2" x2="669.6" y2="593.3"/>
		<line class="st7" x1="708.4" y1="636.1" x2="669.6" y2="636.3"/>
		<line class="st7" x1="643.8" y1="595.3" x2="620" y2="598.6"/>
		<line class="st7" x1="643.8" y1="634.2" x2="620" y2="631.3"/>
		<path class="st8" d="M267.5,558.9l3.8,36.3l0,47.3l-4.9,38.5c-0.3,3.5-3.3,6.3-5.7,6.3c-10.9,0-21.7,0-32.7,0
			c-2.4,0-5.6-3.5-5.7-6.3l-4.1-38.4l0-47.7l3.4-36.1c0.3-2.9,2.6-6.3,5.7-6.3l34.5,0C264.9,552.6,267.2,555.4,267.5,558.9
			L267.5,558.9z"/>
		<path class="st6" d="M267.7,635.1l-1.9,13.5c-14.4,5.3-27.2,4.8-42.5,0l-1.7-13.5C236.9,638.5,251.8,638.8,267.7,635.1
			L267.7,635.1z"/>
		<polygon class="st6" points="262.8,578.2 260.3,586.3 228.5,586.4 225.7,578.2 262.8,578.2 		"/>
		<path class="st6" d="M253.3,557.5v-2.1c0-0.6-0.2-1.1-0.5-1.1l-16.5,0c-0.3,0-0.5,0.5-0.5,1.1v2.1c0,0.6,0.2,1.1,0.5,1.1l16.5,0
			C253.1,558.6,253.3,558.1,253.3,557.5L253.3,557.5z"/>
		<line class="st7" x1="266.2" y1="591.2" x2="266.1" y2="630"/>
		<line class="st7" x1="223.2" y1="591.2" x2="223.1" y2="630"/>
		<line class="st7" x1="264.1" y1="655.8" x2="260.8" y2="679.6"/>
		<line class="st7" x1="225.2" y1="655.9" x2="228.1" y2="679.6"/>
		<path class="st9" d="M485.4,559l3.8,36.3l0,47.3l-4.9,38.5c-0.3,3.5-3.3,6.3-5.7,6.3c-10.9,0-21.7,0-32.7,0
			c-2.4,0-5.6-3.5-5.7-6.3l-4.1-38.4l0-47.7l3.4-36.1c0.3-2.9,2.6-6.3,5.7-6.3l34.5,0C482.8,552.8,485.1,555.5,485.4,559L485.4,559z
			"/>
		<path class="st6" d="M485.6,635.3l-1.9,13.5c-14.4,5.3-27.2,4.8-42.6,0l-1.7-13.5C454.8,638.6,469.6,639,485.6,635.3L485.6,635.3z
			"/>
		<polygon class="st6" points="480.7,578.3 478.2,586.5 446.3,586.5 443.6,578.3 480.7,578.3 		"/>
		<path class="st6" d="M471.2,557.6l0-2.1c0-0.6-0.2-1.1-0.5-1.1l-16.5,0c-0.3,0-0.5,0.5-0.5,1.1l0,2.1c0,0.6,0.2,1.1,0.5,1.1
			l16.5,0C470.9,558.7,471.2,558.2,471.2,557.6L471.2,557.6z"/>
		<line class="st7" x1="484" y1="591.3" x2="483.9" y2="630.1"/>
		<line class="st7" x1="441.1" y1="591.3" x2="440.9" y2="630.2"/>
		<line class="st7" x1="482" y1="656" x2="478.7" y2="679.7"/>
		<line class="st7" x1="443.1" y1="656" x2="446" y2="679.7"/>
		<path class="st10" d="M256.4,500.6l8.5,2.7c-1.3,4.7-3.5,8.3-6.5,10.6c-3,2.3-6.9,3.4-11.5,3.4c-5.8,0-10.5-2-14.2-5.9
			c-3.7-3.9-5.6-9.3-5.6-16.2c0-7.2,1.9-12.8,5.6-16.8c3.7-4,8.6-6,14.7-6c5.3,0,9.6,1.6,12.9,4.7c2,1.8,3.5,4.5,4.5,8l-8.7,2.1
			c-0.5-2.3-1.6-4-3.2-5.3c-1.6-1.3-3.6-2-5.9-2c-3.2,0-5.8,1.2-7.8,3.5c-2,2.3-3,6-3,11.2c0,5.5,1,9.4,3,11.7
			c2,2.3,4.5,3.5,7.7,3.5c2.3,0,4.3-0.7,6-2.2C254.4,506.1,255.6,503.8,256.4,500.6L256.4,500.6z"/>
		<polygon class="st10" points="444.9,516.6 444.9,473.1 477.1,473.1 477.1,480.5 453.6,480.5 453.6,490.1 475.4,490.1 475.4,497.4 
			453.6,497.4 453.6,509.2 477.9,509.2 477.9,516.6 444.9,516.6 		"/>
		<polygon class="st10" points="669.9,516.6 669.9,473.1 678.4,473.1 696.2,502.1 696.2,473.1 704.3,473.1 704.3,516.6 695.5,516.6 
			678,488.2 678,516.6 669.9,516.6 		"/>
	</g>
</g>
</svg>
