<?xml version="1.0" encoding="utf-8"?>
<!-- Generator: Adobe Illustrator 19.2.0, SVG Export Plug-In . SVG Version: 6.00 Build 0)  -->
<svg version="1.1" id="Livello_1" xmlns="http://www.w3.org/2000/svg" xmlns:xlink="http://www.w3.org/1999/xlink" x="0px" y="0px"
	 viewBox="0 0 876 495" style="enable-background:new 0 0 876 495;" xml:space="preserve">
<style type="text/css">
	.st0{fill:#FFFFFF;}
	.st1{fill:#B9B9B9;}
	.st2{fill:none;stroke:#1A171B;stroke-width:0.7413;stroke-miterlimit:2.6131;}
	.st3{display:none;fill:none;stroke:#1A171B;stroke-width:2.4709;stroke-miterlimit:2.6131;}
	.st4{fill:none;stroke:#1A171B;stroke-width:4.9578;stroke-miterlimit:2.6131;}
	.st5{fill:#00A6E2;stroke:#1A171B;stroke-width:0.2471;stroke-miterlimit:2.6131;}
	.st6{fill:#FFFFFF;stroke:#1A171B;stroke-width:0.2471;stroke-miterlimit:2.6131;}
	.st7{fill:none;stroke:#1A171B;stroke-width:0.2471;stroke-miterlimit:2.6131;}
	.st8{fill:#E43417;stroke:#1A171B;stroke-width:0.2471;stroke-miterlimit:2.6131;}
	.st9{fill:#049853;stroke:#1A171B;stroke-width:0.2471;stroke-miterlimit:2.6131;}
	.st10{fill:#1A171B;}
</style>
<g>
	<path class="st0" d="M3.2,491.7V8.9H873v482.8c-290-1.4-579.8-1.4-869.8-1V491.7z"/>
	<path class="st1" d="M3.2,337V31.7H873v305.2c-290-1.2-579.8-1.2-869.8-0.9V337z"/>
	<path class="st1" d="M3,337.4v132.9h869.8V337.4C582.7,337.5,293,337.5,3,337.4L3,337.4z"/>
	<path class="st2" d="M3,30.5h869.8 M3,469.1h869.8"/>
	<path class="st3" d="M3.1,10.9H873 M3.1,475.7H873"/>
	<path class="st0" d="M813.3,176.6V166h59.6v10.6H813.3L813.3,176.6z M782.4,166v10.6h-59.1V166H782.4L782.4,166z M692.4,166v10.6
		h-59.1V166H692.4L692.4,166z M602.4,166v10.6h-59.1V166H602.4L602.4,166z M512,166v10.6h-58.7V166H512L512,166z M422,166v10.6
		h-58.7V166H422L422,166z M332.1,166v10.6H273V166H332.1L332.1,166z M242.1,166v10.6h-35H183V166H242.1L242.1,166z M152.1,166v10.6
		H93V166H152.1L152.1,166z M62.1,166v10.6H3V166H62.1L62.1,166z"/>
	<polygon class="st0" points="872.9,337.8 872.9,327.2 3,327.2 3,337.8 	"/>
	<polygon class="st0" points="151.4,469.1 10.5,327.2 3,334.6 136.4,469.1 	"/>
	<polygon class="st0" points="32.9,469.1 3,439 3,454 17.9,469.1 	"/>
	<polygon class="st0" points="270.3,469.1 129.5,327.2 122,334.6 255.4,469.1 	"/>
	<polygon class="st0" points="389.8,469.1 249,327.2 241.4,334.6 374.8,469.1 	"/>
	<polygon class="st0" points="509.2,469.1 368.4,327.2 360.9,334.6 494.3,469.1 	"/>
	<polygon class="st0" points="628.7,469.1 487.9,327.2 480.3,334.6 613.7,469.1 	"/>
	<polygon class="st0" points="748.2,469.1 607.3,327.2 599.8,334.6 733.2,469.1 	"/>
	<polygon class="st0" points="867.6,469.1 726.8,327.2 719.3,334.6 852.7,469.1 	"/>
	<polygon class="st0" points="872,353.1 846.2,327.2 838.7,334.6 872,368.1 	"/>
	<line class="st4" x1="873" y1="487.7" x2="3.2" y2="487.7"/>
	<line class="st4" x1="873" y1="5.8" x2="3.2" y2="5.8"/>
	<path class="st5" d="M209.3,379.8L173,376h-47.3l-38.5,5c-3.5,0.3-6.3,3.3-6.3,5.7c0,10.9,0,21.7,0,32.7c0,2.4,3.5,5.6,6.3,5.7
		l38.4,4.1h47.7l36.1-3.5c2.9-0.3,6.3-2.6,6.3-5.7v-34.5C215.5,382.3,212.8,380.1,209.3,379.8L209.3,379.8z"/>
	<path class="st6" d="M133.1,379.6l-13.5,1.9c-5.3,14.4-4.8,27.2,0,42.5l13.5,1.7C129.7,410.4,129.4,395.6,133.1,379.6L133.1,379.6z
		"/>
	<polygon class="st6" points="190,384.4 181.8,387 181.8,418.8 190,421.5 	"/>
	<path class="st6" d="M210.7,393.9h2.1c0.6,0,1.1,0.2,1.1,0.5v16.5c0,0.3-0.5,0.5-1.1,0.5h-2.1c-0.6,0-1.1-0.2-1.1-0.5v-16.5
		C209.6,394.2,210.1,393.9,210.7,393.9L210.7,393.9z"/>
	<path class="st7" d="M177,381.1l-38.8,0.1 M166.4,402.4l-28.2,0.2 M177,424.1l-38.8,0.2 M112.4,383.2l-23.8,3.3 M112.4,422.1
		l-23.8-2.9"/>
	<path class="st8" d="M349.4,345.9l28.3,23l33.5,33.5l23.7,30.7c2.3,2.7,2.1,6.8,0.4,8.5c-7.7,7.7-15.3,15.4-23.1,23.2
		c-1.7,1.7-6.4,1.5-8.5-0.4l-30-24.2L340,406.4l-23.1-28c-1.8-2.3-2.6-6.2-0.4-8.5l24.4-24.4C343.2,343.3,346.7,343.6,349.4,345.9
		L349.4,345.9z"/>
	<path class="st6" d="M403.5,399.6l8.2,10.9c-6.4,13.9-15.8,22.7-30.1,30.1l-10.8-8.3C384.1,423.8,394.8,413.5,403.5,399.6
		L403.5,399.6z"/>
	<polygon class="st6" points="359.7,362.8 363.7,370.4 341.2,392.9 333.5,389.1 	"/>
	<path class="st6" d="M338.4,354.9l-1.5-1.5c-0.4-0.4-1-0.6-1.2-0.4L324,364.7c-0.2,0.2,0,0.7,0.4,1.2l1.5,1.5
		c0.4,0.4,1,0.6,1.2,0.4l11.6-11.7C339,355.9,338.8,355.3,338.4,354.9L338.4,354.9z"/>
	<path class="st7" d="M371.3,369.6l27.4,27.5 M363.8,392.2l19.9,20.1 M340.9,400.1l27.4,27.5 M415.6,416.8l14.5,19.1 M388.1,444.4
		l18.8,14.8"/>
	<path class="st9" d="M588.3,345.9l28.3,23l33.5,33.5l23.7,30.7c2.3,2.7,2.1,6.8,0.4,8.5c-7.7,7.7-15.3,15.4-23.1,23.2
		c-1.7,1.7-6.4,1.5-8.5-0.4l-30-24.2l-33.7-33.7l-23.1-28c-1.8-2.3-2.6-6.2-0.4-8.5l24.4-24.4C582.1,343.3,585.6,343.6,588.3,345.9
		L588.3,345.9z"/>
	<path class="st6" d="M642.4,399.6l8.2,10.9c-6.4,13.9-15.8,22.7-30.1,30.1l-10.8-8.3C623,423.8,633.7,413.5,642.4,399.6
		L642.4,399.6z"/>
	<polygon class="st6" points="598.7,362.8 602.6,370.4 580.1,392.9 572.4,389.1 	"/>
	<path class="st6" d="M577.3,354.9l-1.5-1.5c-0.4-0.4-1-0.6-1.2-0.4L563,364.7c-0.2,0.2,0,0.7,0.4,1.2l1.5,1.5
		c0.4,0.4,1,0.6,1.2,0.4l11.6-11.7C577.9,355.9,577.7,355.3,577.3,354.9L577.3,354.9z"/>
	<path class="st7" d="M610.2,369.6l27.4,27.5 M602.7,392.2l19.9,20.1 M579.8,400.1l27.4,27.5 M654.5,416.8l14.5,19.1 M627,444.4
		l18.8,14.8"/>
	<polygon class="st10" points="349.3,300.7 349.3,251.6 385.7,251.6 385.7,259.9 359.2,259.9 359.2,270.8 383.9,270.8 383.9,279.1 
		359.2,279.1 359.2,292.5 386.7,292.5 386.7,300.7 	"/>
	<path class="st10" d="M135,251.6h19.6c3.9,0,6.8,0.2,8.7,0.5s3.6,1,5.1,2s2.8,2.4,3.8,4.1s1.5,3.6,1.5,5.8c0,2.3-0.6,4.4-1.9,6.3
		c-1.2,1.9-2.9,3.4-5,4.3c3,0.9,5.3,2.4,6.9,4.5c1.6,2.1,2.4,4.6,2.4,7.4c0,2.2-0.5,4.4-1.6,6.5c-1,2.1-2.5,3.8-4.3,5.1
		s-4,2-6.6,2.3c-1.7,0.2-5.6,0.3-12,0.3H135V251.6L135,251.6z M144.9,259.8v11.4h6.5c3.9,0,6.3-0.1,7.2-0.2c1.7-0.2,3-0.8,4-1.8
		s1.5-2.3,1.5-3.8s-0.4-2.7-1.3-3.7c-0.8-0.9-2.1-1.5-3.7-1.7c-1-0.1-3.8-0.2-8.5-0.2L144.9,259.8L144.9,259.8z M144.9,279.3v13.1
		h9.2c3.6,0,5.8-0.1,6.8-0.3c1.5-0.3,2.7-0.9,3.6-2c0.9-1,1.4-2.4,1.4-4.2c0-1.5-0.4-2.7-1.1-3.7c-0.7-1-1.8-1.8-3.1-2.3
		s-4.3-0.7-8.8-0.7h-8L144.9,279.3L144.9,279.3z"/>
	<path class="st10" d="M584.6,284.8l9.7-0.9c0.6,3.2,1.8,5.6,3.5,7.1c1.8,1.5,4.2,2.3,7.2,2.3c3.2,0,5.6-0.7,7.2-2
		c1.6-1.4,2.4-2.9,2.4-4.7c0-1.2-0.3-2.2-1-3s-1.9-1.5-3.6-2.1c-1.2-0.4-3.8-1.1-7.9-2.1c-5.3-1.3-9.1-2.9-11.2-4.9
		c-3-2.7-4.5-6-4.5-9.9c0-2.5,0.7-4.8,2.1-7c1.4-2.2,3.5-3.8,6.1-5c2.7-1.1,5.9-1.7,9.7-1.7c6.2,0,10.8,1.3,13.9,4
		c3.1,2.7,4.8,6.3,4.9,10.8l-9.9,0.4c-0.4-2.5-1.3-4.3-2.7-5.4s-3.5-1.7-6.3-1.7c-2.9,0-5.1,0.6-6.8,1.8c-1,0.8-1.6,1.8-1.6,3
		s0.5,2.2,1.5,3c1.3,1.1,4.3,2.1,9.1,3.3c4.8,1.1,8.4,2.3,10.7,3.5s4.1,2.9,5.4,5c1.3,2.1,2,4.7,2,7.8c0,2.8-0.8,5.4-2.3,7.9
		c-1.6,2.5-3.8,4.3-6.6,5.5c-2.9,1.2-6.4,1.8-10.7,1.8c-6.2,0-11-1.4-14.3-4.3C587.2,294.4,585.3,290.2,584.6,284.8L584.6,284.8z"/>
</g>
</svg>
