<?xml version="1.0" encoding="utf-8"?>
<!-- Generator: Adobe Illustrator 19.2.0, SVG Export Plug-In . SVG Version: 6.00 Build 0)  -->
<svg version="1.1" id="Livello_1" xmlns="http://www.w3.org/2000/svg" xmlns:xlink="http://www.w3.org/1999/xlink" x="0px" y="0px"
	 viewBox="0 0 960 960" style="enable-background:new 0 0 960 960;" xml:space="preserve">
<style type="text/css">
	.st0{fill-rule:evenodd;clip-rule:evenodd;fill:#FFFFFF;}
	.st1{fill-rule:evenodd;clip-rule:evenodd;fill:#CECFD1;}
	.st2{fill:none;stroke:#1A171B;stroke-width:1.4875;stroke-miterlimit:2.6131;}
	.st3{fill:none;stroke:#1A171B;stroke-width:4.9583;stroke-miterlimit:2.6131;}
	.st4{fill-rule:evenodd;clip-rule:evenodd;fill:#009DDF;}
	.st5{fill-rule:evenodd;clip-rule:evenodd;fill:#009DDF;stroke:#1A171B;stroke-width:0.4958;stroke-miterlimit:2.6131;}
	.st6{fill-rule:evenodd;clip-rule:evenodd;fill:#FFFFFF;stroke:#1A171B;stroke-width:0.4958;stroke-miterlimit:2.6131;}
	.st7{fill:none;stroke:#1A171B;stroke-width:0.4958;stroke-miterlimit:2.6131;}
	.st8{fill-rule:evenodd;clip-rule:evenodd;fill:#E1001A;stroke:#1A171B;stroke-width:0.4958;stroke-miterlimit:2.6131;}
	.st9{fill-rule:evenodd;clip-rule:evenodd;fill:#008F36;stroke:#1A171B;stroke-width:0.4958;stroke-miterlimit:2.6131;}
	.st10{fill-rule:evenodd;clip-rule:evenodd;fill:#1A171B;}
</style>
<g>
	<g>
		<path class="st0" d="M915.7,247.4v460.7H45.9V247.4C336,247.8,625.7,247.8,915.7,247.4L915.7,247.4z"/>
		<path class="st1" d="M915.7,400.3v286.2H45.9V400.3C336,400.6,625.7,400.5,915.7,400.3L915.7,400.3z"/>
		<path class="st1" d="M915.9,398.8V266.4H46.2v132.4C336.2,398.7,626,398.7,915.9,398.8L915.9,398.8z"/>
		<line class="st2" x1="915.9" y1="686.8" x2="46.2" y2="686.8"/>
		<line class="st3" x1="915.9" y1="708.4" x2="45.9" y2="708.4"/>
		<line class="st3" x1="915.9" y1="245.5" x2="45.9" y2="245.5"/>
		<path class="st0" d="M105.6,541.6v10.6H46v-10.6H105.6L105.6,541.6z M136.6,552.3v-10.6h59.1v10.6H136.6L136.6,552.3z
			 M226.5,552.3v-10.6h59.1v10.6H226.5L226.5,552.3z M316.5,552.3v-10.6h59.1v10.6H316.5L316.5,552.3z M406.9,552.3v-10.6h58.7v10.6
			H406.9L406.9,552.3z M496.9,552.3v-10.6h58.7v10.6H496.9L496.9,552.3z M586.9,552.3v-10.6H646v10.6H586.9L586.9,552.3z
			 M676.9,552.3v-10.6h35H736v10.6H676.9L676.9,552.3z M766.9,552.3v-10.6h59.1v10.6H766.9L766.9,552.3z M856.9,552.3v-10.6h59.1
			v10.6H856.9L856.9,552.3z"/>
		<path class="st4" d="M888.9,270.1l27,27.2v-15.1l-12.1-12.1H888.9L888.9,270.1z M770.5,270.1l127.4,128.4h-104L666.5,270.1h-15
			l127.4,128.4H674.4L547,270.1h-15l127.4,128.4H555L427.5,270.1h-15L540,398.5H435.5L308.1,270.1h-15l127.4,128.4H316L188.6,270.1
			h-15l127.4,128.4H196.6L69.2,270.1h-15l127.4,128.4H77.1L47,368.1v15.1l15.2,15.3H46v10.6h26.7h119.5h119.5h119.5h119.5H670h119.5
			h119h7.5v-7.5v-3.1h-3.1L785.4,270.1H770.5L770.5,270.1z"/>
		<line class="st2" x1="915.9" y1="266.8" x2="46.2" y2="266.8"/>
		<path class="st5" d="M709.7,356.5l36.3,3.8h47.4l38.5-5c3.5-0.3,6.3-3.3,6.3-5.7c0-10.9,0-21.7,0-32.7c0-2.4-3.5-5.6-6.3-5.7
			l-38.4-4.1h-47.7l-36.1,3.5c-2.9,0.3-6.3,2.6-6.3,5.7v34.5C703.4,353.9,706.1,356.2,709.7,356.5L709.7,356.5z"/>
		<path class="st6" d="M785.9,356.6l13.5-1.9c5.3-14.4,4.8-27.2,0-42.5l-13.5-1.7C789.3,325.8,789.6,340.7,785.9,356.6L785.9,356.6z
			"/>
		<polygon class="st6" points="728.9,351.8 737.1,349.3 737.1,317.4 728.9,314.7 728.9,351.8 		"/>
		<path class="st6" d="M708.2,342.3h-2.1c-0.6,0-1.1-0.2-1.1-0.5v-16.5c0-0.3,0.5-0.5,1.1-0.5h2.1c0.6,0,1.1,0.2,1.1,0.5v16.5
			C709.3,342.1,708.8,342.3,708.2,342.3L708.2,342.3z"/>
		<line class="st7" x1="741.9" y1="355.1" x2="780.7" y2="355"/>
		<line class="st7" x1="741.9" y1="312.2" x2="780.7" y2="312"/>
		<line class="st7" x1="806.6" y1="353" x2="830.3" y2="349.7"/>
		<line class="st7" x1="806.6" y1="314.1" x2="830.3" y2="317"/>
		<path class="st8" d="M567.6,390.4l-28.3-23L505.7,334L482,303.2c-2.3-2.7-2.1-6.8-0.4-8.5c7.7-7.7,15.3-15.4,23.1-23.2
			c1.7-1.7,6.4-1.5,8.5,0.4l30,24.2l33.7,33.7l23.1,28c1.8,2.3,2.6,6.2,0.4,8.5l-24.4,24.4C573.8,393,570.3,392.6,567.6,390.4
			L567.6,390.4z"/>
		<path class="st6" d="M513.5,336.6l-8.2-10.9c6.4-13.9,15.8-22.7,30.1-30.1l10.8,8.3C532.9,312.4,522.2,322.7,513.5,336.6
			L513.5,336.6z"/>
		<polygon class="st6" points="557.3,373.4 553.3,365.8 575.8,343.3 583.5,347.2 557.3,373.4 		"/>
		<path class="st6" d="M578.6,381.3l1.5,1.5c0.4,0.4,1,0.6,1.2,0.4l11.6-11.7c0.2-0.2,0-0.7-0.4-1.2l-1.5-1.5
			c-0.4-0.4-1-0.6-1.2-0.4l-11.6,11.7C578,380.4,578.2,380.9,578.6,381.3L578.6,381.3z"/>
		<line class="st7" x1="545.7" y1="366.6" x2="518.3" y2="339.1"/>
		<line class="st7" x1="576.1" y1="336.2" x2="548.7" y2="308.6"/>
		<line class="st7" x1="501.4" y1="319.4" x2="487" y2="300.3"/>
		<line class="st7" x1="528.9" y1="291.9" x2="510.1" y2="277.1"/>
		<path class="st9" d="M266.4,390.4l-28.3-23L204.6,334l-23.7-30.7c-2.3-2.7-2.1-6.8-0.4-8.5c7.7-7.7,15.3-15.4,23.1-23.2
			c1.7-1.7,6.4-1.5,8.5,0.4l30,24.2l33.7,33.7l23.1,28c1.8,2.3,2.6,6.2,0.4,8.5l-24.4,24.4C272.6,393,269.1,392.6,266.4,390.4
			L266.4,390.4z"/>
		<path class="st6" d="M212.4,336.6l-8.2-10.9c6.4-13.9,15.8-22.7,30.1-30.1l10.8,8.3C231.7,312.4,221,322.7,212.4,336.6
			L212.4,336.6z"/>
		<polygon class="st6" points="256.1,373.4 252.1,365.8 274.6,343.3 282.3,347.2 256.1,373.4 		"/>
		<path class="st6" d="M277.4,381.3l1.5,1.5c0.4,0.4,1,0.6,1.2,0.4l11.6-11.7c0.2-0.2,0-0.7-0.4-1.2l-1.5-1.5
			c-0.4-0.4-1-0.6-1.2-0.4L277,380.2C276.8,380.4,277,380.9,277.4,381.3L277.4,381.3z"/>
		<line class="st7" x1="244.5" y1="366.6" x2="217.2" y2="339.1"/>
		<line class="st7" x1="274.9" y1="336.2" x2="247.5" y2="308.6"/>
		<line class="st7" x1="200.3" y1="319.4" x2="185.8" y2="300.3"/>
		<line class="st7" x1="227.7" y1="291.9" x2="208.9" y2="277.1"/>
		<path class="st10" d="M752.3,469.4v-43.4h18.5c4.6,0,8,0.4,10.1,1.2c2.1,0.8,3.8,2.2,5.1,4.2c1.3,2,1.9,4.3,1.9,6.8
			c0,3.3-1,6-2.9,8.1c-1.9,2.1-4.8,3.5-8.6,4c1.9,1.1,3.5,2.3,4.7,3.6c1.2,1.3,2.9,3.7,5,7.1l5.3,8.5h-10.5l-6.3-9.5
			c-2.3-3.4-3.8-5.5-4.6-6.4c-0.8-0.9-1.7-1.5-2.6-1.8c-0.9-0.3-2.4-0.5-4.4-0.5h-1.8v18.1H752.3L752.3,469.4z M761.1,444.3h6.5
			c4.2,0,6.8-0.2,7.9-0.5c1-0.4,1.9-1,2.5-1.8c0.6-0.9,0.9-2,0.9-3.3c0-1.5-0.4-2.6-1.2-3.5c-0.8-0.9-1.9-1.5-3.3-1.7
			c-0.7-0.1-2.8-0.1-6.4-0.1h-6.8V444.3L761.1,444.3z"/>
		<polygon class="st10" points="557.1,469.4 557.1,425.9 565.6,425.9 583.4,454.9 583.4,425.9 591.6,425.9 591.6,469.4 582.8,469.4 
			565.3,441 565.3,469.4 557.1,469.4 		"/>
		<path class="st10" d="M294.6,469.4h-9.5l-3.8-9.9h-17.4l-3.6,9.9H251l16.9-43.4h9.3L294.6,469.4L294.6,469.4z M278.5,452.2
			l-6-16.1l-5.9,16.1H278.5L278.5,452.2z"/>
	</g>
</g>
</svg>
