<?xml version="1.0" encoding="utf-8"?>
<!-- Generator: Adobe Illustrator 19.2.0, SVG Export Plug-In . SVG Version: 6.00 Build 0)  -->
<svg version="1.1" id="Livello_1" xmlns="http://www.w3.org/2000/svg" xmlns:xlink="http://www.w3.org/1999/xlink" x="0px" y="0px"
	 viewBox="0 0 960 960" style="enable-background:new 0 0 960 960;" xml:space="preserve">
<style type="text/css">
	.st0{fill:none;stroke:#1A171B;stroke-width:1.6466;stroke-miterlimit:2.6131;}
	.st1{fill-rule:evenodd;clip-rule:evenodd;fill:#CECFD1;stroke:#1A171B;stroke-width:1.6466;stroke-miterlimit:2.6131;}
	.st2{fill-rule:evenodd;clip-rule:evenodd;fill:#9B9C9E;stroke:#1A171B;stroke-width:1.6466;stroke-miterlimit:2.6131;}
	.st3{fill-rule:evenodd;clip-rule:evenodd;fill:#FFFFFF;stroke:#1A171B;stroke-width:1.6466;stroke-miterlimit:2.6131;}
	.st4{fill-rule:evenodd;clip-rule:evenodd;fill:#008E43;stroke:#1A171B;stroke-width:1.6466;stroke-miterlimit:2.6131;}
	.st5{fill-rule:evenodd;clip-rule:evenodd;fill:#ECECED;stroke:#1A171B;stroke-width:1.6466;stroke-miterlimit:2.6131;}
	.st6{fill-rule:evenodd;clip-rule:evenodd;fill:#E1001A;stroke:#1A171B;stroke-width:1.6466;stroke-miterlimit:2.6131;}
	.st7{fill-rule:evenodd;clip-rule:evenodd;fill:#E7526B;stroke:#1A171B;stroke-width:1.6466;stroke-miterlimit:2.6131;}
	.st8{fill-rule:evenodd;clip-rule:evenodd;fill:#1A171B;stroke:#1A171B;stroke-width:1.6466;stroke-miterlimit:2.6131;}
	.st9{fill-rule:evenodd;clip-rule:evenodd;fill:#009DDF;stroke:#1A171B;stroke-width:1.6466;stroke-miterlimit:2.6131;}
	.st10{fill-rule:evenodd;clip-rule:evenodd;fill:#009DDF;}
	.st11{fill-rule:evenodd;clip-rule:evenodd;fill:#FFEC00;stroke:#1A171B;stroke-width:2.7444;stroke-miterlimit:2.6131;}
	.st12{fill-rule:evenodd;clip-rule:evenodd;fill:#1A171B;}
</style>
<g>
	<g>
		<polygon class="st0" points="45,170.5 915,170.5 915,789.4 45,789.4 45,170.5 		"/>
		<polygon class="st1" points="648.3,170.4 45,269.7 45,789.5 531.6,789.5 532.4,789.4 915,789.6 915,170.4 648.3,170.4 		"/>
		<polygon class="st2" points="45,293.9 915,180.2 915,194.3 45,364.7 45,293.9 		"/>
		<polygon class="st3" points="45,289.2 915,175.5 915,193 45,357.1 45,289.2 		"/>
		<polygon class="st4" points="45.1,622.8 100.1,605.2 244.3,789.5 45.1,789.5 45.1,622.8 		"/>
		<path class="st3" d="M555.2,430.6L915,332v407.6L538,499.4C503.3,473.6,506.3,444.2,555.2,430.6L555.2,430.6z"/>
		<path class="st3" d="M45.1,570.9v58c22.2-8,30,7.3,45.1,25.8l118.5,134.9h152.6L141,597.7C97.7,560.6,89,558.9,45.1,570.9
			L45.1,570.9z"/>
		<polygon class="st5" points="915,175.6 45,289.2 45,170.4 915,170.4 915,175.6 		"/>
		<path class="st4" d="M636.3,455.6l278.7-86l0,272.6L633.1,486.6C610.3,472.4,607.5,466.8,636.3,455.6L636.3,455.6z"/>
		<polygon class="st6" points="771.6,655.8 667.8,730.7 674.2,765.1 778.7,697.3 771.6,655.8 		"/>
		<path class="st6" d="M774.9,656.4l-35.8-27.1l-24.8-29.8c-34.8-33.4-63.9-49.2-96.3-64l-38.1-0.7c-11.7-9.2-28.3-19-44.6-22.5
			c-9.3-2.4-77.8,26.2-80.5,37.6l46.9,31.7l138,122.3l35.3,26.2C711.9,712.9,746.1,683.2,774.9,656.4L774.9,656.4z"/>
		<path class="st3" d="M714.2,600.2c-21.3,17.5-49.6,38.1-79.9,50l7.5,47.7c37.9-19.4,70.7-42.6,97.4-68.6L714.2,600.2L714.2,600.2z
			"/>
		<polygon class="st3" points="623.7,648.1 582.8,615.7 571.8,643.5 623.7,689.6 623.7,648.1 		"/>
		<polygon class="st3" points="576.1,609.9 547.9,586.8 502.9,582.4 563.3,635.6 576.1,609.9 		"/>
		<path class="st3" d="M619.3,536.4l-36.7-1.4c-30.6,10.1-55.1,26-77.3,43.9c13.6,0.5,25.3,1.2,39,1.6
			C564.8,563.5,592.9,547.2,619.3,536.4L619.3,536.4z"/>
		<path class="st6" d="M454.7,549.3c-5.1,4-6.1,11-6.7,16.6l202.2,186.2c5.6,3.2,21.4,7.6,24.5,5.7l-0.8-28.1l-33.5-25.7l-75.2-66.6
			l-62.6-55.4L454.7,549.3L454.7,549.3z"/>
		<path class="st6" d="M448.7,566.3c-1.4,6.6,1.8,13.6,7.2,23.8l184,172.3c8.1,6.4,22,11.8,29.6,12.1c27.2,2,98.3-55.2,109.3-68.6
			c5-5.6,7.2-16.6,5.1-24.3c-28.5,27.8-61,50.3-94.2,71.3c-5.2,1.6-10,3.3-15.2,5c-25.9,1.3-34.5-18-50.4-29.3L546.7,657l-62.1-57.2
			L448.7,566.3L448.7,566.3z"/>
		<path class="st7" d="M684.8,725.7l-9.7,4.4c-1.5,7.6-1.3,18.3-0.2,27.6c5.9-0.2,10.7-2.8,17.1-6.3L684.8,725.7L684.8,725.7z"/>
		<path class="st7" d="M775.7,656.5l-5.5,4.7l3.1,30.9l10.7-9.9C783.5,674.3,781.2,661.6,775.7,656.5L775.7,656.5z"/>
		<polygon class="st3" points="749.6,689.7 715.3,716.8 716.4,730.8 749.4,705.7 749.6,689.7 		"/>
		<path class="st8" d="M480.2,590.1c-10.3,2.2-15.6,15.1-11.8,28.6c3.8,13.5,15.2,22.7,25.5,20.5c10.3-2.2,15.6-15.1,11.8-28.6
			C502,597,490.5,587.8,480.2,590.1L480.2,590.1z"/>
		<path class="st3" d="M483,602.9c-4.9,1.4-7.1,7.8-4.8,14.2c2.2,6.5,8.1,10.6,12.9,9.2c4.9-1.4,7.1-7.8,4.8-14.2
			C493.8,605.6,487.9,601.5,483,602.9L483,602.9z"/>
		<path class="st8" d="M602.2,705.1c-11.7,4-16.1,19.8-9.8,35.2c6.2,15.4,20.8,24.8,32.5,20.8c11.7-4,16.1-19.8,9.8-35.2
			C628.5,710.4,613.9,701.1,602.2,705.1L602.2,705.1z"/>
		<path class="st3" d="M607.7,718.5c-6.1,2.1-8.4,10.3-5.1,18.4c3.3,8.1,10.9,12.9,17,10.9c6.1-2.1,8.4-10.3,5.1-18.4
			C621.4,721.3,613.7,716.4,607.7,718.5L607.7,718.5z"/>
		<path class="st9" d="M831,190.7l-24.6,0.8l62,40.9l-62.1-40.8l-5.8-2.1l-8.8-0.2l-51.8,12.3l-13,4.9l-30,23
			c-17.5,4.1-33.8,10.9-45.5,17.5c9.1,26.5,38.6,43.6,64.2,52.5l6.8,0.7l12.4-3.5l163.6-49.8c1.2-4.9,1.9-22.5-6.5-20.5l-17.1,4.2
			c2.2-0.8,13.2-2.9,17-4.4c1-0.4,2.1-0.2,1.3-1C880.9,214.5,850.7,197.3,831,190.7L831,190.7z"/>
		<path class="st9" d="M898.4,246.6l-175.2,53.5l-8,0.1L709,295l45.4-23.9L708.7,295c-2.3,1.2-14-3.7-14.3-3.9
			c-16.8-9.7-36.6-26.4-43.7-44c-5.6,4.1-3.6,13.6-1.2,20.5c6,14.8,27.8,31,51.8,42.2c15.9,3.5,19.9,0.4,37.6-1.6l149.1-44.6
			C895.1,261.5,897.4,252.8,898.4,246.6L898.4,246.6z"/>
		<polygon class="st10" points="720.5,285.9 698,276.2 694,291 721.6,297.3 720.5,285.9 		"/>
		<path class="st3" d="M770.5,237.5c-19.7-8-31.9-15.9-46-28.3l-26.1,20.1c15.1,16.4,33.2,26.5,58.5,37.7L770.5,237.5L770.5,237.5z"
			/>
		<polygon class="st3" points="812.5,229.4 775.7,239.9 766.2,263.7 817.4,247.5 812.5,229.4 		"/>
		<polygon class="st3" points="841.8,220.5 819.4,226.8 825.3,245.6 862.7,234.7 841.8,220.5 		"/>
		<path class="st3" d="M718.4,293.4c-0.3-2-3.1-3-4.2-3.2c-7.5-1.5-14.1-2.7-21.4-4.1c-2.4,1.5-2.6,3.6-2.3,5.4
			c7.8,4.9,16.2,8.1,24.7,11.2C718,301.2,718.4,297.6,718.4,293.4L718.4,293.4z"/>
		<path class="st3" d="M649.1,248.9c0.6,3.3,8,14.2,12,16.5c2.4,0.3,4.8-2.3,4.6-3.8c-2.6-6.7-4.9-11.6-7.3-18.3
			C655.2,244.2,651,246.2,649.1,248.9L649.1,248.9z"/>
		<polygon class="st3" points="678.5,286.1 663.7,273.8 662.6,279.2 677.6,292.4 678.5,286.1 		"/>
		<path class="st8" d="M875.3,247.2c-6.5-1.8-14.6,4.9-18,14.8c-3.4,9.9-0.8,19.4,5.7,21.2c6.5,1.7,14.6-4.9,18-14.8
			C884.4,258.5,881.9,249,875.3,247.2L875.3,247.2z"/>
		<path class="st3" d="M872.3,256.1c-3.3-0.9-7.4,2.5-9.1,7.5c-1.7,5-0.4,9.9,2.9,10.7c3.3,0.9,7.4-2.5,9.1-7.5
			C876.9,261.8,875.6,256.9,872.3,256.1L872.3,256.1z"/>
		<path class="st8" d="M765,281.4c-7.2-1.4-15.1,5.4-17.6,15.1c-2.5,9.7,1.2,18.8,8.4,20.2c7.2,1.4,15.1-5.4,17.6-15.1
			C776,291.9,772.2,282.8,765,281.4L765,281.4z"/>
		<path class="st3" d="M762.7,290.3c-3.5-0.7-7.4,2.6-8.7,7.4c-1.3,4.8,0.6,9.3,4.1,10c3.5,0.7,7.4-2.6,8.7-7.4
			C768.1,295.5,766.2,291,762.7,290.3L762.7,290.3z"/>
		<path class="st8" d="M571.3,500.6L571.3,500.6c1.7,0,3-0.9,3-3.7V313.2c0-2.8-1.4-5.2-3-5.2c-1.7,0-3,2.3-3,5.2v183.6
			C568.3,499.7,569.6,500.6,571.3,500.6L571.3,500.6z"/>
		<path class="st3" d="M570.3,290.4c7.3,6.3,14.6,12.7,21.9,18.9c7.2,6.2,14.5,12.5,21.7,18.7c-6.8,8.6-13.7,17.1-20.5,25.7
			c-6.9,8.6-13.8,17.3-20.8,26c-7.4-6.2-14.8-12.4-22.2-18.6c-7.4-6.3-14.9-12.5-22.4-18.9c7.1-8.7,14.2-17.5,21.2-26.1
			C556.3,307.6,563.3,299,570.3,290.4L570.3,290.4z"/>
		<path class="st11" d="M570.7,307.7c4.5,3.9,9,7.8,13.5,11.6c4.5,3.8,9,7.7,13.4,11.5c-4.2,5.3-8.5,10.6-12.7,15.9
			c-4.2,5.3-8.5,10.6-12.8,16c-4.5-3.8-9.1-7.6-13.6-11.5c-4.5-3.8-9.1-7.7-13.7-11.6c4.3-5.3,8.7-10.7,13-16
			C562.1,318.3,566.4,313,570.7,307.7L570.7,307.7z"/>
		<path class="st0" d="M572.5,295.4c6.1,5.3,12.2,10.5,18.2,15.7c6,5.2,12.1,10.4,18.1,15.6c1.2,1,1.2,3,0.1,4.5
			c-5.7,7.1-11.4,14.3-17.1,21.4c-5.7,7.2-11.5,14.4-17.2,21.6c-1.2,1.4-3.1,1.8-4.3,0.8c-6.1-5.2-12.3-10.3-18.5-15.5
			c-6.2-5.2-12.4-10.4-18.6-15.7c-1.2-1-1.3-3.1-0.1-4.6c5.9-7.3,11.8-14.5,17.6-21.7c5.8-7.2,11.7-14.4,17.5-21.5
			C569.4,294.7,571.3,294.3,572.5,295.4L572.5,295.4z"/>
		<path class="st8" d="M546.5,357.9c6.7-8.4,13.5-16.7,20.2-25c6.7-8.3,13.3-16.5,20-24.8c2.5,2.2,5,4.4,7.6,6.5
			c-6.6,8.2-13.2,16.5-19.9,24.7c-6.7,8.3-13.4,16.6-20.1,25C551.6,362.3,549.1,360.1,546.5,357.9L546.5,357.9z"/>
		<path class="st12" d="M467.1,684.9h24.6c4.9,0,8.5,0.2,10.9,0.6c2.4,0.4,4.5,1.3,6.4,2.5c1.9,1.3,3.5,3,4.7,5.1
			c1.3,2.1,1.9,4.5,1.9,7.2c0,2.9-0.8,5.5-2.3,7.9c-1.6,2.4-3.7,4.2-6.3,5.4c3.7,1.1,6.6,3,8.6,5.6c2,2.6,3,5.7,3,9.3
			c0,2.8-0.6,5.5-2,8.2c-1.3,2.6-3.1,4.8-5.3,6.3c-2.2,1.6-5,2.6-8.3,2.9c-2.1,0.2-7.1,0.4-15,0.4h-21V684.9L467.1,684.9z
			 M479.5,695.2v14.2h8.1c4.8,0,7.9-0.1,9-0.2c2.1-0.2,3.8-1,5-2.2c1.2-1.2,1.8-2.8,1.8-4.8c0-1.9-0.5-3.5-1.6-4.6
			c-1.1-1.2-2.6-1.9-4.7-2.1c-1.2-0.1-4.8-0.2-10.6-0.2H479.5L479.5,695.2z M479.5,719.7v16.5H491c4.5,0,7.3-0.1,8.5-0.4
			c1.9-0.3,3.4-1.2,4.5-2.5c1.2-1.3,1.7-3.1,1.7-5.2c0-1.8-0.5-3.4-1.3-4.7c-0.9-1.3-2.2-2.2-3.9-2.8c-1.7-0.6-5.4-0.9-11-0.9H479.5
			L479.5,719.7z"/>
		<polygon class="st12" points="804.8,378.5 804.8,317 817.2,317 817.2,341.2 841.6,341.2 841.6,317 854,317 854,378.5 841.6,378.5 
			841.6,351.6 817.2,351.6 817.2,378.5 804.8,378.5 		"/>
	</g>
</g>
</svg>
