<?xml version="1.0" encoding="utf-8"?>
<!-- Generator: Adobe Illustrator 19.2.0, SVG Export Plug-In . SVG Version: 6.00 Build 0)  -->
<svg version="1.1" id="Livello_1" xmlns="http://www.w3.org/2000/svg" xmlns:xlink="http://www.w3.org/1999/xlink" x="0px" y="0px"
	 viewBox="0 0 960 960" style="enable-background:new 0 0 960 960;" xml:space="preserve">
<style type="text/css">
	.st0{fill:#FFFFFF;stroke:#1A171B;stroke-width:1.6467;stroke-miterlimit:2.6131;}
	.st1{fill-rule:evenodd;clip-rule:evenodd;fill:#008E43;stroke:#1A171B;stroke-width:1.6467;stroke-miterlimit:2.6131;}
	.st2{fill-rule:evenodd;clip-rule:evenodd;fill:#ECECED;stroke:#1A171B;stroke-width:1.6467;stroke-miterlimit:2.6131;}
	.st3{fill-rule:evenodd;clip-rule:evenodd;fill:#9B9C9E;stroke:#1A171B;stroke-width:1.6467;stroke-miterlimit:2.6131;}
	.st4{fill-rule:evenodd;clip-rule:evenodd;fill:#CECFD1;stroke:#1A171B;stroke-width:1.6467;stroke-miterlimit:2.6131;}
	.st5{fill-rule:evenodd;clip-rule:evenodd;fill:#FFFFFF;}
	.st6{fill-rule:evenodd;clip-rule:evenodd;fill:#1A171B;stroke:#1A171B;stroke-width:1.6467;stroke-miterlimit:2.6131;}
	.st7{fill-rule:evenodd;clip-rule:evenodd;fill:#C5C6C8;stroke:#1A171B;stroke-width:1.6467;stroke-miterlimit:2.6131;}
	.st8{fill-rule:evenodd;clip-rule:evenodd;fill:#3D3D3F;stroke:#1A171B;stroke-width:1.6467;stroke-miterlimit:2.6131;}
	.st9{fill-rule:evenodd;clip-rule:evenodd;fill:#FFFFFF;stroke:#1A171B;stroke-width:1.6467;stroke-miterlimit:2.6131;}
	.st10{fill-rule:evenodd;clip-rule:evenodd;fill:#6F7072;stroke:#1A171B;stroke-width:1.6467;stroke-miterlimit:2.6131;}
	.st11{fill-rule:evenodd;clip-rule:evenodd;fill:#E1001A;stroke:#1A171B;stroke-width:1.6467;stroke-miterlimit:2.6131;}
	.st12{fill:none;stroke:#1A171B;stroke-width:1.6467;stroke-miterlimit:2.6131;}
	.st13{fill-rule:evenodd;clip-rule:evenodd;fill:#F6E5E5;stroke:#1A171B;stroke-width:1.6467;stroke-miterlimit:2.6131;}
	.st14{fill-rule:evenodd;clip-rule:evenodd;fill:#FFFADA;stroke:#1A171B;stroke-width:1.6467;stroke-miterlimit:2.6131;}
	.st15{fill-rule:evenodd;clip-rule:evenodd;fill:#B4CAD5;stroke:#1A171B;stroke-width:1.6467;stroke-miterlimit:2.6131;}
	.st16{fill-rule:evenodd;clip-rule:evenodd;fill:#868789;stroke:#1A171B;stroke-width:1.6467;stroke-miterlimit:2.6131;}
	.st17{fill-rule:evenodd;clip-rule:evenodd;fill:#E1001A;}
	.st18{fill-rule:evenodd;clip-rule:evenodd;fill:#FFFFFF;stroke:#E1001A;stroke-width:1.6467;stroke-miterlimit:2.6131;}
	.st19{fill-rule:evenodd;clip-rule:evenodd;fill:#1A171B;}
	.st20{fill-rule:evenodd;clip-rule:evenodd;fill:#FFFFFF;stroke:#E1001A;stroke-width:5.4889;stroke-miterlimit:2.6131;}
</style>
<g>
	<g>
		<polygon class="st0" points="45,170.8 915,170.8 915,789.8 45,789.8 45,659.4 45.4,659.4 45.4,315.2 45,315.2 45,170.8 		"/>
		<polygon class="st1" points="454.5,612.8 642.9,789.8 87.1,789.8 454.5,612.8 		"/>
		<polygon class="st2" points="149.7,314.2 45,223.5 45,315.2 45.4,315.2 45.4,329.3 149.7,314.2 		"/>
		<polygon class="st2" points="915,170.2 300.4,170.8 487.1,271.2 915,213.3 915,170.2 		"/>
		<polygon class="st2" points="915,491.6 810.8,437.2 915,389.2 915,491.6 		"/>
		<path class="st3" d="M45,696.9l380.2-151.2c40-16.3,47.5-14.7,76.6,8l281.7,236H915V546.5L726.3,444.7
			c-17.4-11.2-13.5-17.7,3.1-25.3L915,342.9V242.8l-404.8,68.5c-35,6.2-56-7.3-89.6-27.8L230.6,170.8H45v3.8l167.4,133.1
			c28.3,18.2,27.5,34.7,5.4,39.7L45.4,380.7v278.7H45V696.9L45,696.9z"/>
		<path class="st4" d="M45,697l377.6-150c41.1-17.6,50.6-16.2,79.9,7.1l280.4,235.7H915V551.9L726.4,449.3
			c-17.4-11.2-18.2-20.1-1.6-27.6L915,343v-97.2l-406.4,70.7c-35,6.2-56-7.3-89.6-27.8L223.7,170.8H45v5l170.8,133.9
			c28.3,18.2,22.7,37.9,0.5,42.9l-170.9,34v272.8H45V697L45,697z"/>
		<polygon class="st5" points="45.4,514.2 320.4,431.3 312.7,425.3 45.4,504.7 45.4,514.2 		"/>
		<polygon class="st5" points="345.7,451 366,466.4 321.1,468.4 345.7,451 		"/>
		<polygon class="st5" points="391.1,485.5 411.4,500.9 366.5,503 391.1,485.5 		"/>
		<polygon class="st5" points="322.5,433.1 342.8,448.5 298,450.5 322.5,433.1 		"/>
		<polygon class="st5" points="368.7,468.3 389,483.7 344.1,485.7 368.7,468.3 		"/>
		<polygon class="st5" points="413.7,502.9 434,518.3 389.2,520.3 413.7,502.9 		"/>
		<polygon class="st5" points="436.2,520.3 455.7,535.3 454,535.6 411.6,537.8 436.2,520.3 		"/>
		<path class="st6" d="M772.7,455.2L772.7,455.2c1.3,0,2.4-1.3,2.4-2.8v-98.8c0-1.5-1.1-2.8-2.4-2.8c-1.3,0-2.4,1.3-2.4,2.8v98.8
			C770.3,453.9,771.4,455.2,772.7,455.2L772.7,455.2z"/>
		<path class="st6" d="M419.1,573.4L419.1,573.4c1.9,0,3.4-1.6,3.4-3.6v-128c0-2-1.5-3.6-3.4-3.6c-1.9,0-3.4,1.6-3.4,3.6v128
			C415.7,571.7,417.3,573.4,419.1,573.4L419.1,573.4z"/>
		<path class="st6" d="M545,295.7L545,295.7c1,0,1.8-0.8,1.8-1.9v-65.2c0-1-0.8-1.8-1.8-1.8c-1,0-1.8,0.8-1.8,1.8v65.2
			C543.1,294.9,544,295.7,545,295.7L545,295.7z"/>
		<path class="st7" d="M557.7,205.2c1,0.6,1.4,2.4,1,4.4c0,0.1,0,0.2-0.1,0.3c0,0.1-0.1,0.2-0.1,0.3c0,0.1-0.1,0.2-0.1,0.3
			c-1.9,4.7-3.8,9.3-5.7,14c-1.9,4.6-3.8,9.2-5.7,13.8c-0.6,1.2-1.3,1.9-2.2,1.3c-0.4-0.3-0.6-0.8-0.8-1.3
			c-1.7-5.1-3.6-10.7-5.6-16.9c-2.3-6.9-4.9-14.8-7.8-23.6c-0.7-2.2-1-4.4,0-5.7c0.8-0.9,1.7-0.6,2.8,0c5.2,2.8,9.9,5.3,14,7.6
			c3.7,2,7.1,3.8,10.2,5.5C557.6,205.1,557.6,205.2,557.7,205.2L557.7,205.2z"/>
		<path class="st8" d="M61.6,544.7c-0.3-11.4,5.4-25.5,15.7-36c11.1-11.6,30.6-30.2,39.9-32.7c36.3-10,66.2-15.9,105.2-22.6
			c3.3-0.6,6.6,0.4,10-0.2l22.1,3.9c14.7-0.4,37-4.4,53.7-3.6c9.2,1,72.3,45.5,70.3,56.5l-53.9,12.2L141,587.2
			c-3.9-0.4-15.4,34.9-18,33.6C102.9,610.6,71,574.1,61.6,544.7L61.6,544.7z"/>
		<path class="st9" d="M112.2,483c11.5,19.4,22.8,40.7,40.1,51.3L132,572.8c-24.4-26.6-33.5-39.6-45.6-67L112.2,483L112.2,483z"/>
		<polygon class="st9" points="161.8,533.8 212.8,519 216.5,549.2 143.7,573.5 161.8,533.8 		"/>
		<polygon class="st9" points="227.1,514.1 261.1,504.8 299.9,520.8 234,543.1 227.1,514.1 		"/>
		<path class="st9" d="M230.2,456.7l27.2,4.7c23.4,19.2,30.1,27.7,43.2,50.9c-12.3-4.2-23-7.5-35.4-11.7
			C253.4,478.7,249.6,475.1,230.2,456.7L230.2,456.7z"/>
		<path class="st8" d="M378.4,509.8c3,5.3,1,11.5-0.6,16.6l-236.1,92.1c-23.6,5-14.9,2.7-16.9,0l14.6-30.9l183.2-65.1L378.4,509.8
			L378.4,509.8z"/>
		<path class="st10" d="M377,526.6c-1.3,6.3-6.8,11.4-15.5,18.6L144,630.6c-13.5,3.1-22.6,2.1-28.8-3.2c-25-7.4-50.7-58.6-55.4-74
			c-2.4-6.6-0.1-17.1,4.7-23.2c14.8,34.1,19.3,41.7,40.9,71.4c4,3.2,7.7,6.3,11.7,9.5c20.4,11.4,22.7,4.6,41.7-0.4l96.2-37.1
			l77.2-29.5L377,526.6L377,526.6z"/>
		<path class="st11" d="M127.6,582.2l11.6,5.9c-3.3,7.2-8.4,19.4-13,27.5c-5.3-2.2-9.8-4.8-15.5-9.3L127.6,582.2L127.6,582.2z"/>
		<path class="st11" d="M76.6,509.3l4.7,9.6l-11,23.6L64,530C67.3,522,70.7,516,76.6,509.3L76.6,509.3z"/>
		<polygon class="st9" points="87.9,536.5 111.4,573.3 105,587 81.4,549.9 87.9,536.5 		"/>
		<path class="st6" d="M348.2,528.5c8.3,5.4,8.2,18.5-0.3,29.2c-8.5,10.7-22.2,14.9-30.6,9.5c-8.3-5.4-8.2-18.5,0.3-29.2
			C326.1,527.4,339.8,523.1,348.2,528.5L348.2,528.5z"/>
		<path class="st9" d="M340.8,538.9c3.8,2.9,3.3,9.2-1.1,14.2c-4.5,4.9-11.2,6.6-15.1,3.8c-3.8-2.9-3.3-9.2,1.1-14.2
			C330.2,537.7,337,536,340.8,538.9L340.8,538.9z"/>
		<path class="st6" d="M192.8,587.5c8.7,7.2,6.6,22.3-4.5,33.5c-11.1,11.2-27.3,14.5-36,7.2c-8.7-7.2-6.6-22.3,4.5-33.5
			C168,583.5,184.1,580.3,192.8,587.5L192.8,587.5z"/>
		<path class="st9" d="M182.6,597.8c4.3,3.6,3.3,11.1-2.2,16.6c-5.5,5.6-13.5,7.2-17.8,3.6c-4.3-3.6-3.3-11.1,2.2-16.6
			C170.3,595.8,178.3,594.2,182.6,597.8L182.6,597.8z"/>
		<polygon class="st12" points="219.9,516.9 226.2,556.6 232.7,582.1 226.2,556.6 219.9,516.9 		"/>
		<polygon class="st12" points="215.9,518.1 224.5,515.3 215.9,518.1 		"/>
		<path class="st13" d="M818,407.8c3.5,2.3,10.7,0.9,14.1,3.2c5.2,2.5,5,18.3,4.6,24.5c-2,0.3-7.2,4.5-11.6,3.4
			c-0.6-0.2-0.7-7.4-1.3-7.3c-4,0.9-6.5-1.3-6.1-2.2c-0.2-3.2-0.9-4.9-1.1-8c-0.7-1.5-0.3-1.2-1.1-2.6c0.5-1.5,1.4-3.1,1.9-4.6
			C817.8,411.5,817.6,410.5,818,407.8L818,407.8z"/>
		<path class="st14" d="M818,438.7l5.2-1.5c3.9,0.8,10.3-2.1,13.3-7l4.3-0.4c4.7-0.4,8.7,2.8,9.5,6.4l2,8.6l1.7,34.1
			c0.2,3.2-29.1,4.5-30,1.4l-1.4-4.9c-0.9-3-3.8-17.4-6.4-16.2l-29,14l-20.5-3.8l33.9-20C803.4,447.8,814.9,439.6,818,438.7
			L818,438.7z"/>
		<path class="st9" d="M864.9,508.6c6.7,2.2,20.7,20.6,20.2,44.6l-12.1,7c-1.4-16.2-7-33.9-20.4-44.9
			C857,512.3,862.4,510,864.9,508.6L864.9,508.6z"/>
		<path class="st6" d="M845.3,519.3c8.7-0.8,22.6,11.2,22.6,24.9c0,15.2-1.3,20.7-7.3,23.7c-2.4,1.4-8.1,1.4-10.3,1.2
			c-8.3-0.5-17.5-10.1-18.7-23.7C830.4,531.8,836.6,520.1,845.3,519.3L845.3,519.3z"/>
		<path class="st6" d="M765.3,468.5c8.7-0.8,16.8,9.7,18,23.4c1.2,13.6-5,25.3-13.7,26.1c-8.7,0.8-16.8-9.7-18-23.4
			C750.5,481,756.6,469.3,765.3,468.5L765.3,468.5z"/>
		<path class="st9" d="M779.9,438.7c2.1-4,5.4-7.2,12.4-5.8l6.1,6.1l3.4,1.5l15.3-3.2l6.1,0l-7.2,2.1l-10.1,8.5l-13.8,9l-8.5,5.1
			l-9.4,5.5l-3.8-1.5l12.7-12.4l-0.6-1.9l-2.5-0.8L779.9,438.7L779.9,438.7z"/>
		<polygon class="st9" points="824.9,492.7 823.6,480.8 819.2,457.5 795.1,467.6 778.5,469.4 772,465.7 777.4,492.9 780.2,514.1 
			811.8,535 824.1,533.7 824.9,492.7 		"/>
		<path class="st6" d="M814,406.4c5.1-2.8,16.5-3.8,20.8-3.2c8.6,2.1,6.4,15.2,3.2,23.1l-4.7,5c-2.1-5.9-0.4-15.8-6.3-17.7l-10.7-3
			L814,406.4L814,406.4z"/>
		<path class="st15" d="M824.1,481.1c11.2,0.8,20.3,1.3,30.6-2.9c0.5,3.7,1,8.8-0.1,11.4c-5.4,11.9-20.7,17.2-36.2,7.3l-9.2-9.6
			l-1.9,25c-4.3-0.6-7.4-2.1-11.1-5.3c1.3-5.8-0.2-21.5,0.1-31.6c0.2-7.2,6-8.5,12.3-5.6c0.9,0.4,1.3-2.6,2.4-3
			c3.4-1.1,5.7,0.5,7.6,1.4l3.8,1.8C822.4,470.9,822.6,479.9,824.1,481.1L824.1,481.1z"/>
		<polygon class="st12" points="805.3,468.1 823.2,481.4 805.3,468.1 		"/>
		<path class="st8" d="M788.3,505.7l7,1l12,5.1c1.3,3.4,0.7,5.9-0.9,9.2l-8.4-3.5l-1.5-2.5l-9.8-4.4
			C784.4,509.6,782.8,504.5,788.3,505.7L788.3,505.7z"/>
		<path class="st9" d="M766.7,479.7c4.6-0.4,8.9,5.3,9.5,12.8c0.6,7.5-2.6,13.9-7.2,14.3c-4.6,0.4-8.9-5.3-9.5-12.8
			C758.8,486.5,762.1,480.1,766.7,479.7L766.7,479.7z"/>
		<path class="st9" d="M827,500.8c28,10,47.7,34.6,45.1,59.7l-10.5-4.9c-5.6,0.9-26.2-2.3-30.7-14.3l-11.1-5.2
			C818,524.3,819.9,505.8,827,500.8L827,500.8z"/>
		<path class="st16" d="M841.6,500.6l13-6.1c2.6-1.2,7.8,3,8.7,5.8l2.1,6.8c0.7,2.2-8.4,7.3-13,8.1c-1,0.2-2.3-0.8-2.4-0.8
			c-1.1-0.5-8.8-4.8-16.1-7.5c-5-1.8-10.5-2.2-10.6-2.5c-0.6-2,1.1-0.6,3.1-3.2C828.9,497.9,837.8,502.2,841.6,500.6L841.6,500.6z"
			/>
		<path class="st9" d="M775.8,469.3l2,24c-9.3-4-20.4-8.4-29.7-12.4C752.7,470.1,761.4,459.9,775.8,469.3L775.8,469.3z"/>
		<polygon class="st5" points="521,326 536.9,333.2 559.6,321.9 521,326 		"/>
		<polygon class="st5" points="560.4,343.8 576.2,351 599,339.7 560.4,343.8 		"/>
		<polygon class="st5" points="579.7,352.4 595.6,359.6 618.3,348.3 579.7,352.4 		"/>
		<polygon class="st5" points="501.5,317.3 517.4,324.5 540.1,313.2 501.5,317.3 		"/>
		<polygon class="st5" points="541.7,335.1 557.6,342.4 580.3,331 541.7,335.1 		"/>
		<polygon class="st5" points="599.3,361.1 615.1,368.4 637.8,357.1 599.3,361.1 		"/>
		<polygon class="st5" points="624.4,372.5 914.9,289 914.9,284.6 617.9,369.6 624.4,372.5 		"/>
		<path class="st9" d="M797.3,357c2.7-0.6,4.2-3.3,3.6-6.4c0-0.1-0.1-0.3-0.1-0.5c-0.1-0.2-0.1-0.3-0.2-0.5
			c-0.1-0.1-0.1-0.3-0.2-0.5c-4.4-7.5-8.8-15-13.1-22.4c-4.3-7.3-8.5-14.6-12.7-21.7c-1.2-1.9-2.9-2.7-5.1-1.2
			c-0.8,0.7-1.4,1.6-1.8,2.6c-3.7,8.7-7.4,17.5-11.1,26.4c-3.8,8.9-7.5,17.9-11.4,26.9c-0.8,2.1-1.1,4.3,0.2,5.8
			c1.1,1.1,2.4,1,3.9,0.7c7.8-1.5,15.7-3.1,23.6-4.6c7.9-1.5,15.9-3.1,23.8-4.6C796.9,357,797.1,357,797.3,357L797.3,357z"/>
		<path class="st17" d="M796.9,355.6c0.8-0.2,1.5-0.2,2.3-1c0.8-0.9,1.4-2.8,0.5-4.6c-4.5-7.6-8.9-15.2-13.2-22.6
			c-4.3-7.4-8.6-14.7-12.8-21.9c-1.4-2.4-3.8-1.9-5,0.9c-3.7,8.8-7.5,17.7-11.3,26.7c-3.8,9-7.6,18.1-11.5,27.3
			c-0.5,1.2-0.9,2.8-0.3,3.8c0.8,1.3,2,1.1,3.3,0.9c7.9-1.5,15.9-3.1,23.9-4.7C780.8,358.7,788.9,357.1,796.9,355.6L796.9,355.6z"/>
		<path class="st18" d="M793.4,350.2c-3.8-6.5-7.5-12.9-11.2-19.3c-3.7-6.3-7.3-12.6-10.9-18.8c-3.2,7.6-6.4,15.2-9.6,22.9
			c-3.2,7.7-6.5,15.5-9.8,23.3c6.9-1.3,13.8-2.7,20.7-4.1C779.5,353,786.4,351.6,793.4,350.2L793.4,350.2z"/>
		<path class="st19" d="M771.6,324.3c1.3,1.2,2.6,2.3,3.8,3.5c0.1,2.3,0.1,4.6,0.2,6.9c1.7-0.3,3.5-0.7,5.2-1
			c0.1,1.4,0.1,2.9,0.1,4.3c-1.8,0.3-3.5,0.7-5.2,1c0.1,3.7,0.2,7.5,0.4,11.3c-1.3-1.2-2.6-2.4-3.9-3.6c-1.2,1.7-2.4,3.4-3.6,5.1
			c-0.1-3.8-0.2-7.5-0.3-11.3c-1.7,0.4-3.5,0.7-5.2,1c0-1.4-0.1-2.9-0.1-4.3c1.7-0.3,3.5-0.7,5.2-1c-0.1-2.3-0.1-4.6-0.2-6.8
			C769.3,327.7,770.4,326,771.6,324.3L771.6,324.3z"/>
		<path class="st9" d="M448.6,393.3c3.4,1.6,5.3,5.9,4.6,10.3c0,0.2-0.1,0.4-0.1,0.6c-0.1,0.2-0.2,0.4-0.2,0.7
			c-0.1,0.2-0.2,0.4-0.3,0.6c-5.5,9.8-10.7,19.2-15.8,28.4c-5,8.9-9.8,17.5-14.4,25.9c-1.4,2.1-3.3,2.8-5.8,0.2
			c-1-1.1-1.6-2.4-2.2-3.9c-4.6-12.6-9.3-25.5-14.1-38.5c-4.9-13.3-9.8-26.8-14.8-40.6c-1.1-3.3-1.6-6.4-0.2-8.4
			c1.2-1.4,2.7-1,4.5-0.3c9.4,4,18.9,8,28.5,12.1c9.8,4.1,19.6,8.3,29.7,12.5C448.1,393.1,448.4,393.2,448.6,393.3L448.6,393.3z"/>
		<path class="st17" d="M448.2,395.3c0.9,0.4,1.9,0.7,2.9,2.1c1,1.4,1.8,4.4,0.6,6.9c-5.5,9.9-10.8,19.5-16,28.7
			c-5,9-9.9,17.7-14.6,26.2c-1.6,2.8-4.3,1.4-5.8-2.6c-4.7-12.8-9.4-25.8-14.2-39c-4.9-13.5-9.9-27.2-15-41.2
			c-0.7-1.8-1.2-4.2-0.6-5.6c0.8-1.8,2.3-1.2,3.8-0.5c9.5,4,19.1,8.1,28.9,12.3C428,386.7,438,391,448.2,395.3L448.2,395.3z"/>
		<path class="st20" d="M443.8,402.2c-4.6,8.4-9,16.6-13.4,24.6c-4.2,7.8-8.3,15.3-12.3,22.7c-4-11.1-8.1-22.3-12.2-33.7
			c-4.2-11.6-8.4-23.3-12.7-35.3c8.2,3.5,16.5,7.1,24.9,10.7C426.5,394.8,435.1,398.5,443.8,402.2L443.8,402.2z"/>
		<path class="st19" d="M184.2,418.2l12,3.8c-1.9,6.7-4.9,11.7-9.2,15c-4.3,3.3-9.7,4.9-16.4,4.9c-8.2,0-14.9-2.8-20.1-8.4
			c-5.3-5.6-7.9-13.2-7.9-22.9c0-10.2,2.6-18.2,7.9-23.9c5.3-5.7,12.2-8.5,20.9-8.5c7.5,0,13.6,2.2,18.3,6.7
			c2.8,2.6,4.9,6.4,6.3,11.3l-12.3,2.9c-0.7-3.2-2.2-5.7-4.6-7.6c-2.3-1.8-5.1-2.8-8.4-2.8c-4.6,0-8.3,1.6-11.1,4.9
			c-2.8,3.3-4.3,8.6-4.3,15.9c0,7.8,1.4,13.3,4.2,16.6c2.8,3.3,6.4,5,10.9,5c3.3,0,6.1-1,8.5-3.2C181.5,426,183.2,422.7,184.2,418.2
			L184.2,418.2z"/>
		<polygon class="st19" points="731.4,620.1 731.4,558.6 750,558.6 761.1,600.6 772.2,558.6 790.8,558.6 790.8,620.1 779.3,620.1 
			779.3,571.7 767,620.1 755.1,620.1 742.9,571.7 742.9,620.1 731.4,620.1 		"/>
	</g>
</g>
</svg>
