<?xml version="1.0" encoding="utf-8"?>
<!-- Generator: Adobe Illustrator 19.2.0, SVG Export Plug-In . SVG Version: 6.00 Build 0)  -->
<svg version="1.1" id="Livello_1" xmlns="http://www.w3.org/2000/svg" xmlns:xlink="http://www.w3.org/1999/xlink" x="0px" y="0px"
	 viewBox="0 0 960 960" style="enable-background:new 0 0 960 960;" xml:space="preserve">
<style type="text/css">
	.st0{fill:#FFFFFF;stroke:#1A171B;stroke-width:1.649;stroke-miterlimit:2.6131;}
	.st1{fill-rule:evenodd;clip-rule:evenodd;fill:#9B9C9E;stroke:#1A171B;stroke-width:1.649;stroke-miterlimit:2.6131;}
	.st2{fill-rule:evenodd;clip-rule:evenodd;fill:#CECFD1;stroke:#1A171B;stroke-width:1.649;stroke-miterlimit:2.6131;}
	.st3{fill-rule:evenodd;clip-rule:evenodd;fill:#008E43;stroke:#1A171B;stroke-width:1.649;stroke-miterlimit:2.6131;}
	.st4{fill-rule:evenodd;clip-rule:evenodd;fill:#ECECED;stroke:#1A171B;stroke-width:1.649;stroke-miterlimit:2.6131;}
	.st5{fill-rule:evenodd;clip-rule:evenodd;fill:#6F7072;stroke:#1A171B;stroke-width:1.649;stroke-miterlimit:2.6131;}
	.st6{fill-rule:evenodd;clip-rule:evenodd;fill:#1A171B;stroke:#1A171B;stroke-width:1.649;stroke-miterlimit:2.6131;}
	.st7{fill-rule:evenodd;clip-rule:evenodd;fill:#00A6E2;stroke:#1A171B;stroke-width:1.649;stroke-miterlimit:2.6131;}
	.st8{fill-rule:evenodd;clip-rule:evenodd;fill:#FFFFFF;stroke:#1A171B;stroke-width:1.649;stroke-miterlimit:2.6131;}
	.st9{fill-rule:evenodd;clip-rule:evenodd;fill:#E1001A;stroke:#1A171B;stroke-width:1.649;stroke-miterlimit:2.6131;}
	.st10{fill-rule:evenodd;clip-rule:evenodd;fill:#E1001A;}
	.st11{fill-rule:evenodd;clip-rule:evenodd;fill:#FFFFFF;}
	.st12{fill-rule:evenodd;clip-rule:evenodd;fill:#1A171B;}
</style>
<g>
	<g>
		<polygon class="st0" points="45.2,170.2 914.8,170.2 914.8,790.1 45.2,790.1 45.2,170.2 		"/>
		<path class="st1" d="M511.7,790l190.9-261.8c31.6-44.1,42.4-46.5,100.7-36.8l111.7,17V314.6l-19.2-1.9
			c-24.6-3.6-24.5-14.1-11.9-33.3l31.2-42.8v-66.7H668.4l-81,73.2c-32.5,28.4-40.7,30.3-87.7,24.7L45,216.8v153.4l251.7,40.3
			c45.1,7.8,65.4,31.5,45.6,50.9L45,727.2V790H511.7L511.7,790z"/>
		<path class="st2" d="M518.7,790L706,533.2c31.6-44.1,42.4-46.5,100.7-36.8L915,512.9V319.2l-15.8-1.6
			c-24.6-3.6-32.1-14.1-19.5-33.3L915,235v-65H674.2L589,248.1c-33,28-39.1,29.9-85.8,24.7L45,221.4v148.4l255.2,40.8
			c45.1,7.8,65.4,36.3,45.6,55.7L45,735.3V790H518.7L518.7,790z"/>
		<polygon class="st3" points="775.2,538.2 914.8,562.5 914.8,790.1 612.8,790.1 775.2,538.2 		"/>
		<polygon class="st3" points="274.1,450.4 45.2,409.5 45.2,639.8 274.1,450.4 		"/>
		<polygon class="st4" points="45.2,189.7 538.6,233.4 615.2,170.2 45.2,170.2 45.2,189.7 		"/>
		<path class="st1" d="M45.8,369.9l252.9,40.7c45.1,7.8,66.5,36.3,46.6,55.7l-300,268.3v-8l296.6-265.2
			c19.9-19.4-0.4-43.1-45.6-50.9l-251-40.1L45.8,369.9L45.8,369.9z"/>
		<path class="st1" d="M674.1,170.2l-85.5,77.9c-32.5,28.4-38.8,30.3-85.8,24.7L45.2,221.4v-4.6l454.1,51c47,6,55.8,4.2,88.3-24.7
			l81-72.9H674.1L674.1,170.2z"/>
		<path class="st1" d="M914.9,319.8l-16.2-1c-24.6-3.6-31-15.2-18.4-34.4l26.9-38.4l7.5-9.7l-31.4,43.1
			c-12.6,19.2-12.7,29.7,11.9,33.3l19.7,1.4L914.9,319.8L914.9,319.8z"/>
		<path class="st5" d="M518.2,790.1l187.3-256.8c31.6-44.1,42.4-46.5,100.7-36.8L914.8,513v0.4l-112-18.1
			c-56.8-5.9-60.8-7.6-93.7,33L517.7,790.1H518.2L518.2,790.1z"/>
		<path class="st6" d="M689.2,591.8L689.2,591.8c1.9,0,3.4-1.5,3.4-3.4v-120c0-1.9-1.5-3.4-3.4-3.4c-1.9,0-3.4,1.5-3.4,3.4v120
			C685.8,590.3,687.3,591.8,689.2,591.8L689.2,591.8z"/>
		<polygon class="st7" points="358,684.3 466.4,730.9 466.6,761.8 358.8,721.5 358,684.3 		"/>
		<path class="st7" d="M355.1,685.4l27.9-29.7l17.4-30.2c25.9-35,49.8-53.8,76.9-72.4l34.8-7.3c9.1-10,22.6-21.4,36.9-27.4
			c8.1-3.7,75.9,9,80.4,18.4L592,572.6L487.3,702.7l-27.7,28.9C422.8,723.3,386.2,703.6,355.1,685.4L355.1,685.4z"/>
		<path class="st8" d="M400.8,626.1c22.6,11.4,52.2,24.3,82,29.2l1.6,42.6c-38.2-10.1-72.3-24.5-101.4-42.3L400.8,626.1L400.8,626.1
			z"/>
		<polygon class="st8" points="492.2,651.6 523.9,616.4 538.8,638.5 499.5,687.6 492.2,651.6 		"/>
		<polygon class="st8" points="529,610.2 550.7,585.2 591.2,573.5 545.2,630.2 529,610.2 		"/>
		<path class="st8" d="M476.4,554.2l33.3-7.7c29.8,3.3,55.1,12.9,78.6,24.4c-12.4,2.8-23,5.5-35.4,8.3
			C531.1,568.1,502.5,558.9,476.4,554.2L476.4,554.2z"/>
		<path class="st7" d="M629.4,536.4c5.4,2.6,7.6,8.5,9.1,13.2L486.3,746.3c-4.5,3.7-18.3,10.4-21.4,9.2l-4.2-24.5l26.1-28.2L544,632
			l47.5-59L629.4,536.4L629.4,536.4z"/>
		<path class="st7" d="M637.9,550.1c2.4,5.5,0.8,12.1-2.3,21.9L497.6,753.4c-6.3,6.9-18.1,14.1-25,15.7
			c-24.6,6.5-99.9-30.5-112.2-40.1c-5.6-3.9-9.6-13.1-9-20.2c31,19,64.8,32.8,98.9,45.2c5,0.5,9.8,1.1,14.8,1.6
			c23.9-3.5,28.4-21.6,40.9-34.2l58.2-75.6l46.7-60.5L637.9,550.1L637.9,550.1z"/>
		<path class="st9" d="M449.9,729.5l9.7,2.1c2.8,6.3,4.4,15.6,5.1,23.9c-5.4,0.8-10.3-0.5-16.8-2.5L449.9,729.5L449.9,729.5z"/>
		<path class="st9" d="M354.4,685.6l5.9,3.1l2.7,27.3l-11.5-6.7C350.5,702.4,350.2,691,354.4,685.6L354.4,685.6z"/>
		<polygon class="st8" points="384.2,709.8 420.4,727.3 421.9,739.5 387.2,723.6 384.2,709.8 		"/>
		<path class="st6" d="M612,575.7c9.7,0.1,16.7,10.1,15.7,22.3c-1,12.2-9.8,22-19.5,21.9c-9.7-0.1-16.7-10.2-15.7-22.3
			C593.6,585.4,602.3,575.6,612,575.7L612,575.7z"/>
		<path class="st8" d="M611.8,586.6c4.9,0.3,8.1,5.7,7.2,11.8c-0.9,6.2-5.7,10.9-10.5,10.6c-4.9-0.3-8.1-5.7-7.2-11.8
			C602.1,591,606.9,586.2,611.8,586.6L611.8,586.6z"/>
		<path class="st6" d="M519.4,699.7c10.5-0.1,17.4,11.2,15.3,25.1c-2.1,13.9-12.4,25.3-23,25.4c-10.5,0.1-17.4-11.2-15.3-25.1
			C498.5,711.2,508.9,699.8,519.4,699.7L519.4,699.7z"/>
		<path class="st8" d="M517.6,711.8c5.5,0,9.1,5.8,8,13.1c-1.1,7.3-6.5,13.2-12,13.2c-5.5,0-9.1-5.8-8-13.1
			C506.7,717.8,512.1,711.8,517.6,711.8L517.6,711.8z"/>
		<path class="st9" d="M165,281l24.4-2.3l-57,47.8l57.1-47.7l5.5-2.7l8.7-1.3l52.7,5.4l13.4,3.1l32.3,18.6
			c17.8,1.7,34.7,6.4,47,11.3c-6.1,27-33.5,47.5-57.8,59.4l-6.6,1.6l-12.6-1.8l-167.5-27.7c-1.7-4.6-4.3-21.7,4.2-20.8l17.4,1.9
			c-2.2-0.5-13.4-1.2-17.3-2.1c-1.1-0.3-2.1,0-1.4-0.8C118.1,310.5,146.2,289.9,165,281L165,281z"/>
		<path class="st9" d="M104.3,344.1l179.4,29.8l7.9-0.9l5.5-5.9l-47.6-17.5l47.8,17.5c2.4,0.9,13.5-5.4,13.7-5.6
			c15.6-11.6,33.4-30.4,38.5-48.5c6,3.3,5.1,12.8,3.4,19.8c-4.3,15.2-24.2,33.8-46.7,47.8c-15.4,5.5-19.7,3-37.4,3.3l-152.6-24.5
			C109.2,358.2,106,350,104.3,344.1L104.3,344.1z"/>
		<polygon class="st10" points="284.8,359.7 306.1,347.4 311.7,361.3 285,371 284.8,359.7 		"/>
		<path class="st8" d="M230.1,318.9c18.6-10.3,29.9-19.6,42.5-33.5l28.1,16.3c-13.1,17.9-30,30-53.9,44.2L230.1,318.9L230.1,318.9z"
			/>
		<polygon class="st8" points="187.5,316.3 225.1,321.9 237.2,343.8 184.6,334.7 187.5,316.3 		"/>
		<polygon class="st8" points="157.6,311.4 180.4,314.7 176.6,333.8 138.4,327.9 157.6,311.4 		"/>
		<path class="st8" d="M287.8,366.8c0.1-2,2.7-3.3,3.8-3.7c7.2-2.4,13.7-4.4,20.7-6.7c2.6,1.2,3,3.2,2.8,5
			c-7.2,5.8-15.1,10-23.3,14.1C289,374.3,288.2,370.9,287.8,366.8L287.8,366.8z"/>
		<path class="st8" d="M351.5,314.6c-0.2,3.3-6.4,14.9-10,17.6c-2.4,0.6-5-1.6-5-3.1c1.9-6.9,3.6-12,5.2-18.8
			C345,310.7,349.4,312.1,351.5,314.6L351.5,314.6z"/>
		<polygon class="st8" points="326.4,354.5 339.8,340.7 341.5,345.8 328.1,360.6 326.4,354.5 		"/>
		<path class="st6" d="M127.2,341.7c6.3-2.5,15,2.9,19.4,12.1c4.4,9.2,2.9,18.8-3.4,21.4c-6.3,2.5-15-2.9-19.4-12.1
			C119.4,353.9,120.9,344.3,127.2,341.7L127.2,341.7z"/>
		<path class="st8" d="M131.2,350c3.2-1.3,7.6,1.5,9.9,6.2c2.2,4.7,1.5,9.6-1.7,10.9c-3.2,1.3-7.6-1.5-9.9-6.2
			C127.2,356.1,128,351.3,131.2,350L131.2,350z"/>
		<path class="st6" d="M240.2,361c6.9-2.3,15.5,3.3,19.1,12.5c3.6,9.2,0.8,18.5-6.1,20.8c-6.9,2.3-15.5-3.3-19.1-12.5
			C230.5,372.6,233.3,363.3,240.2,361L240.2,361z"/>
		<path class="st8" d="M243.5,369.4c3.4-1.1,7.7,1.6,9.4,6.2c1.8,4.5,0.4,9.1-3,10.3c-3.4,1.1-7.7-1.6-9.4-6.2
			C238.7,375.2,240.1,370.6,243.5,369.4L243.5,369.4z"/>
		<path class="st8" d="M720,488.7c3.3,0.1,5.2-2.5,4.5-6.3c-0.1-0.2-0.1-0.4-0.1-0.6c-0.1-0.2-0.1-0.4-0.2-0.6
			c-0.1-0.2-0.2-0.4-0.3-0.6c-5.6-10.5-11.1-21-16.7-31.4c-5.5-10.4-11-20.8-16.5-31.2c-1.6-2.8-3.8-4.5-6.6-3.4
			c-1,0.6-1.8,1.4-2.3,2.5c-4.6,9.5-9.3,18.9-13.9,28.4c-4.7,9.5-9.3,19.1-14,28.7c-1,2.3-1.3,4.7,0.4,7.1c1.4,1.7,3.1,2.1,5,2.2
			c10,0.9,20,1.7,30,2.6c10,0.9,20,1.7,30,2.6C719.5,488.6,719.7,488.6,720,488.7L720,488.7z"/>
		<path class="st10" d="M719.5,486.9c1,0.1,1.9,0.3,2.8-0.5c0.9-0.7,1.8-2.8,0.6-5.3c-5.6-10.6-11.3-21.2-16.9-31.8
			c-5.6-10.5-11.2-21-16.7-31.5c-1.9-3.6-4.9-3.7-6.4-0.7c-4.7,9.6-9.4,19.1-14.1,28.8c-4.7,9.6-9.4,19.3-14.2,29
			c-0.6,1.2-1.1,3-0.3,4.5c1.1,1.9,2.6,2,4.3,2.2c10.1,0.9,20.3,1.8,30.4,2.7C699.2,485.1,709.3,486,719.5,486.9L719.5,486.9z"/>
		<path class="st11" d="M715,479.3c-4.8-9.1-9.6-18.1-14.4-27.1c-4.8-9-9.5-18-14.3-26.9c-4,8.2-8,16.4-12,24.6
			c-4,8.2-8.1,16.5-12.1,24.8c8.8,0.8,17.6,1.5,26.4,2.3C697.5,477.8,706.2,478.6,715,479.3L715,479.3z"/>
		<path class="st12" d="M687.7,457.2c-2.6-3-5.2-6-7.7-9c-1.2,1.3-2.4,2.6-3.6,4c2.6,3,5.2,6,7.7,9c-2.3,2.6-4.7,5.2-7,7.8
			c1.3,1.6,2.6,3.1,4,4.7c2.4-2.6,4.7-5.2,7.1-7.8c2.6,3,5.2,6,7.8,9.1c1.2-1.3,2.4-2.7,3.6-4c-2.6-3-5.2-6-7.8-9.1
			c2.3-2.6,4.6-5.1,7-7.7c-1.3-1.5-2.7-3.1-4-4.6C692.4,452,690.1,454.6,687.7,457.2L687.7,457.2z"/>
		<polygon class="st12" points="375.7,338.5 375.7,276.9 421.4,276.9 421.4,287.3 388.1,287.3 388.1,301 419.1,301 419.1,311.4 
			388.1,311.4 388.1,328.1 422.6,328.1 422.6,338.5 375.7,338.5 		"/>
		<polygon class="st12" points="340.6,602.7 340.6,541.1 359.2,541.1 370.4,583.2 381.5,541.1 400.1,541.1 400.1,602.7 388.6,602.7 
			388.6,554.2 376.3,602.7 364.3,602.7 352.1,554.2 352.1,602.7 340.6,602.7 		"/>
	</g>
</g>
</svg>
