<?xml version="1.0" encoding="utf-8"?>
<!-- Generator: Adobe Illustrator 19.2.0, SVG Export Plug-In . SVG Version: 6.00 Build 0)  -->
<svg version="1.1" id="Livello_1" xmlns="http://www.w3.org/2000/svg" xmlns:xlink="http://www.w3.org/1999/xlink" x="0px" y="0px"
	 viewBox="0 0 960 960" style="enable-background:new 0 0 960 960;" xml:space="preserve">
<style type="text/css">
	.st0{fill:#FFFFFF;stroke:#1A171B;stroke-width:1.649;stroke-miterlimit:2.6131;}
	.st1{fill-rule:evenodd;clip-rule:evenodd;fill:#9B9C9E;stroke:#1A171B;stroke-width:1.649;stroke-miterlimit:2.6131;}
	.st2{fill-rule:evenodd;clip-rule:evenodd;fill:#CECFD1;stroke:#1A171B;stroke-width:1.649;stroke-miterlimit:2.6131;}
	.st3{fill-rule:evenodd;clip-rule:evenodd;fill:#FFFFFF;}
	.st4{fill-rule:evenodd;clip-rule:evenodd;fill:#008E43;stroke:#1A171B;stroke-width:1.649;stroke-miterlimit:2.6131;}
	.st5{fill-rule:evenodd;clip-rule:evenodd;fill:#ECECED;stroke:#1A171B;stroke-width:1.649;stroke-miterlimit:2.6131;}
	.st6{fill-rule:evenodd;clip-rule:evenodd;fill:#6F7072;stroke:#1A171B;stroke-width:1.649;stroke-miterlimit:2.6131;}
	.st7{fill-rule:evenodd;clip-rule:evenodd;fill:#1A171B;stroke:#1A171B;stroke-width:1.649;stroke-miterlimit:2.6131;}
	.st8{fill-rule:evenodd;clip-rule:evenodd;fill:#00A6E2;stroke:#1A171B;stroke-width:1.649;stroke-miterlimit:2.6131;}
	.st9{fill-rule:evenodd;clip-rule:evenodd;fill:#FFFFFF;stroke:#1A171B;stroke-width:1.649;stroke-miterlimit:2.6131;}
	.st10{fill-rule:evenodd;clip-rule:evenodd;fill:#E1001A;stroke:#1A171B;stroke-width:1.649;stroke-miterlimit:2.6131;}
	.st11{fill-rule:evenodd;clip-rule:evenodd;fill:#E1001A;}
	.st12{fill-rule:evenodd;clip-rule:evenodd;fill:#1A171B;}
</style>
<g>
	<g>
		<polygon class="st0" points="45,170 915,170 915,790.1 45,790.1 45,170 		"/>
		<path class="st1" d="M511.7,790.1l190.9-261.8c31.6-44.1,42.4-46.5,100.7-36.8l111.7,17V314.7l-19.2-1.9
			c-24.6-3.6-24.5-14.1-11.9-33.3l31.2-42.8V170H668.4l-81,73.2c-32.5,28.4-40.7,30.3-87.7,24.7L45,216.9v153.4l251.7,40.3
			c45.1,7.8,65.4,31.5,45.6,50.9L45,727.3v62.8H511.7L511.7,790.1z"/>
		<path class="st2" d="M518.7,790.1L706,533.3c31.6-44.1,42.4-46.5,100.7-36.8L915,513V319.3l-15.8-1.6
			c-24.6-3.6-32.1-14.1-19.5-33.3L915,235v-65H674.2L589,248.2c-33,28-39.1,29.9-85.8,24.7L45,221.4v148.4l255.2,40.8
			c45.1,7.8,65.4,36.3,45.6,55.7L45,735.3v54.8H518.7L518.7,790.1z"/>
		<path class="st3" d="M536.4,467.1l202.2,30.9c-9.4,5.9-17.2,14.4-26,25.5l-199.9-33.3L536.4,467.1L536.4,467.1z"/>
		<path class="st3" d="M717.8,272.4L576.9,258c-10.2,9-15.3,11.1-22.4,13.8l149.3,15.7L717.8,272.4L717.8,272.4z"/>
		<polygon class="st4" points="775.2,538.3 914.8,562.6 914.8,790.1 612.8,790.1 775.2,538.3 		"/>
		<polygon class="st4" points="274.1,450.5 45.2,409.6 45.2,639.8 274.1,450.5 		"/>
		<polygon class="st5" points="45.2,189.8 538.6,233.4 615.2,170.3 45.2,170.3 45.2,189.8 		"/>
		<path class="st1" d="M45.8,370l252.9,40.7c45.1,7.8,66.5,36.3,46.6,55.7l-300,268.3v-8l296.6-265.2c19.9-19.4-0.4-43.1-45.6-50.9
			l-251-40.1L45.8,370L45.8,370z"/>
		<path class="st1" d="M674.1,170.3l-85.5,77.9c-32.5,28.4-38.8,30.3-85.8,24.7L45.2,221.5v-4.6l454.1,51c47,6,55.8,4.2,88.3-24.7
			l81-72.9H674.1L674.1,170.3z"/>
		<path class="st1" d="M914.9,319.9l-16.2-1c-24.6-3.6-31-15.2-18.4-34.4l26.9-38.4l7.5-9.7l-31.4,43.1
			c-12.6,19.2-12.7,29.7,11.9,33.3l19.6,1.4L914.9,319.9L914.9,319.9z"/>
		<path class="st6" d="M518.2,790.1l187.3-256.8c31.6-44.1,42.4-46.5,100.7-36.8L914.8,513v0.4l-112-18.1
			c-56.8-5.9-60.8-7.6-93.7,33L517.7,790.1H518.2L518.2,790.1z"/>
		<path class="st7" d="M689.2,591.9L689.2,591.9c1.9,0,3.4-1.5,3.4-3.4v-120c0-1.9-1.5-3.4-3.4-3.4c-1.9,0-3.4,1.5-3.4,3.4v120
			C685.8,590.4,687.3,591.9,689.2,591.9L689.2,591.9z"/>
		<polygon class="st8" points="364,688.5 472.9,735.3 473.2,766.4 364.9,725.9 364,688.5 		"/>
		<path class="st8" d="M361.1,689.7l28.1-29.9l17.5-30.3c26.1-35.2,50.1-54.1,77.2-72.7l35-7.4c9.1-10.1,22.7-21.5,37-27.5
			c8.1-3.7,76.3,9,80.8,18.5l-37.5,35.9L494,707l-27.8,29C429.2,727.7,392.4,707.9,361.1,689.7L361.1,689.7z"/>
		<path class="st9" d="M407,630c22.7,11.5,52.4,24.4,82.4,29.4l1.6,42.8c-38.4-10.2-72.6-24.6-101.8-42.5L407,630L407,630z"/>
		<polygon class="st9" points="498.8,655.7 530.7,620.3 545.7,642.5 506.2,691.8 498.8,655.7 		"/>
		<polygon class="st9" points="535.8,614 557.7,589 598.3,577.2 552.2,634.2 535.8,614 		"/>
		<path class="st9" d="M482.9,557.8l33.5-7.7c29.9,3.4,55.3,12.9,79,24.5c-12.5,2.8-23.1,5.5-35.6,8.3
			C538,571.7,509.2,562.5,482.9,557.8L482.9,557.8z"/>
		<path class="st8" d="M636.7,539.9c5.4,2.6,7.6,8.5,9.1,13.2L493,750.8c-4.6,3.7-18.4,10.4-21.5,9.3l-4.2-24.6l26.3-28.3l57.4-71.2
			l47.7-59.3L636.7,539.9L636.7,539.9z"/>
		<path class="st8" d="M645.3,553.6c2.5,5.5,0.8,12.2-2.4,22L504.3,757.9c-6.3,7-18.2,14.1-25.1,15.8
			c-24.7,6.5-100.3-30.7-112.8-40.3c-5.6-3.9-9.6-13.2-9-20.3c31.2,19.1,65.1,33,99.4,45.4c5.1,0.5,9.8,1.1,14.9,1.6
			c24-3.5,28.6-21.7,41.1-34.4l58.4-75.9l47-60.8L645.3,553.6L645.3,553.6z"/>
		<path class="st10" d="M456.4,734l9.7,2.1c2.8,6.3,4.5,15.7,5.1,24c-5.4,0.8-10.3-0.5-16.8-2.5L456.4,734L456.4,734z"/>
		<path class="st10" d="M360.4,689.9l5.9,3.1l2.7,27.4l-11.6-6.7C356.4,706.7,356.2,695.3,360.4,689.9L360.4,689.9z"/>
		<polygon class="st9" points="390.3,714.1 426.7,731.7 428.2,744 393.4,728 390.3,714.1 		"/>
		<path class="st7" d="M619.2,579.4c9.7,0.1,16.8,10.2,15.7,22.5c-1,12.2-9.8,22.1-19.5,22c-9.7-0.1-16.8-10.2-15.7-22.4
			C600.7,589.1,609.5,579.3,619.2,579.4L619.2,579.4z"/>
		<path class="st9" d="M619,590.3c4.9,0.3,8.1,5.7,7.2,11.9c-0.9,6.2-5.7,11-10.6,10.6c-4.9-0.4-8.1-5.7-7.2-11.9
			C609.3,594.8,614.1,590,619,590.3L619,590.3z"/>
		<path class="st7" d="M526.2,704c10.6-0.1,17.5,11.2,15.4,25.2c-2.1,14-12.5,25.4-23.1,25.5c-10.6,0.1-17.5-11.3-15.4-25.2
			C505.2,715.5,515.6,704.1,526.2,704L526.2,704z"/>
		<path class="st9" d="M524.3,716.1c5.5,0,9.1,5.9,8,13.2c-1.1,7.3-6.5,13.3-12.1,13.3c-5.5,0-9.1-5.9-8-13.2
			C513.4,722.2,518.8,716.2,524.3,716.1L524.3,716.1z"/>
		<path class="st10" d="M165,281l24.4-2.3l-57,47.8l57.1-47.7l5.5-2.7l8.7-1.3l52.7,5.4l13.4,3.1l32.3,18.6
			c17.8,1.7,34.7,6.4,47,11.3c-6.1,27-33.5,47.5-57.8,59.4l-6.6,1.6l-12.6-1.8l-167.5-27.7c-1.7-4.6-4.3-21.7,4.2-20.8l17.4,1.9
			c-2.2-0.5-13.4-1.2-17.3-2.1c-1.1-0.3-2.1,0-1.4-0.8C118.1,310.5,146.2,289.9,165,281L165,281z"/>
		<path class="st10" d="M104.3,344.2L283.8,374l7.9-0.9l5.5-5.9l-47.6-17.5l47.8,17.5c2.4,0.9,13.5-5.4,13.7-5.6
			c15.6-11.6,33.4-30.4,38.5-48.5c6,3.3,5.1,12.8,3.4,19.8c-4.3,15.2-24.2,33.8-46.7,47.8c-15.4,5.5-19.7,3-37.4,3.3l-152.6-24.5
			C109.2,358.3,106,350,104.3,344.2L104.3,344.2z"/>
		<polygon class="st11" points="284.8,359.8 306.1,347.5 311.7,361.4 285,371 284.8,359.8 		"/>
		<path class="st9" d="M230.1,318.9c18.6-10.3,29.9-19.6,42.5-33.5l28.1,16.3c-13.1,17.9-30,30-53.9,44.2L230.1,318.9L230.1,318.9z"
			/>
		<polygon class="st9" points="187.5,316.4 225.1,322 237.2,343.9 184.6,334.7 187.5,316.4 		"/>
		<polygon class="st9" points="157.6,311.4 180.4,314.8 176.6,333.9 138.4,328 157.6,311.4 		"/>
		<path class="st9" d="M287.8,366.8c0.1-2,2.7-3.3,3.8-3.7c7.2-2.4,13.7-4.4,20.7-6.7c2.6,1.2,3,3.2,2.8,5
			c-7.2,5.8-15.1,10-23.3,14.1C289,374.4,288.2,370.9,287.8,366.8L287.8,366.8z"/>
		<path class="st9" d="M351.5,314.6c-0.2,3.3-6.4,14.9-10,17.7c-2.4,0.6-5-1.6-5-3.1c1.9-6.9,3.6-12,5.2-18.8
			C345,310.8,349.4,312.2,351.5,314.6L351.5,314.6z"/>
		<polygon class="st9" points="326.4,354.6 339.8,340.7 341.5,345.9 328.1,360.6 326.4,354.6 		"/>
		<path class="st7" d="M127.2,341.8c6.3-2.5,15,2.9,19.4,12.1c4.4,9.2,2.9,18.8-3.4,21.4c-6.3,2.5-15-2.9-19.4-12.1
			C119.4,353.9,120.9,344.3,127.2,341.8L127.2,341.8z"/>
		<path class="st9" d="M131.2,350c3.2-1.3,7.6,1.5,9.9,6.2c2.2,4.7,1.5,9.6-1.7,10.9c-3.2,1.3-7.6-1.5-9.9-6.2
			C127.2,356.2,128,351.3,131.2,350L131.2,350z"/>
		<path class="st7" d="M240.2,361.1c6.9-2.3,15.5,3.3,19.1,12.5c3.6,9.2,0.8,18.5-6.1,20.8c-6.9,2.3-15.5-3.3-19.1-12.5
			C230.5,372.7,233.3,363.4,240.2,361.1L240.2,361.1z"/>
		<path class="st9" d="M243.5,369.5c3.4-1.1,7.7,1.6,9.4,6.2c1.8,4.5,0.4,9.1-3,10.3c-3.4,1.1-7.7-1.6-9.4-6.2
			C238.7,375.3,240.1,370.6,243.5,369.5L243.5,369.5z"/>
		<path class="st3" d="M733.6,226.1l-3.6,0.2c2.2-2,3.8-3.6,4.8-4.9c1-1.3,1.4-2.4,1.2-3.2c-0.2-0.8-1-1.3-2.4-1.4
			c-1.2-0.1-2.7,0.2-4.3,0.7c-1.7,0.5-3.3,1.3-5,2.3c-1.7,1-3.3,2.1-4.7,3.3c-1.5,1.2-2.5,2.3-3.2,3.3c-0.7,1-0.8,1.8-0.6,2.5
			c0.2,0.5,0.9,1.2,2.1,2.2c1.2,1,1.8,1.9,1.8,2.8c0,1.1-0.6,2.3-1.8,3.8c-1.2,1.5-2.8,3.2-5,5c-2.4,2-5,3.8-7.7,5.5
			c-2.8,1.7-5.4,3-7.8,3.8c-2.4,0.8-4.5,1.2-6.1,1.1c-1.8-0.1-2.9-0.7-3.1-1.7c-0.3-1,0.3-2.5,1.8-4.4c1.4-1.9,3.5-4,6.2-6.3
			l3.6-0.2c-2.8,2.5-4.5,4.4-5.1,5.8c-0.6,1.3,0.1,2.1,2,2.2c2,0.1,4.1-0.4,6.4-1.5c2.3-1.1,4.4-2.5,6.3-4.1
			c1.7-1.4,2.8-2.6,3.2-3.6c0.5-1,0-2-1.5-3.1c-1.5-1.1-2.3-2.1-2.4-2.9c-0.1-1.2,0.4-2.6,1.7-4.2c1.3-1.7,3.2-3.6,5.7-5.7
			c2.5-2.1,5.2-4.1,8.2-5.9c3-1.8,5.8-3.2,8.4-4.1c2.6-0.9,4.8-1.4,6.6-1.3c2.2,0.1,3.5,0.8,3.7,1.9c0.3,1.1-0.4,2.8-2.1,4.9
			C739.1,221,736.7,223.4,733.6,226.1L733.6,226.1z"/>
		<polygon class="st3" points="718.6,211.5 677,246.4 685.1,246.9 679.5,251.6 660.1,250.4 665.7,245.7 673.8,246.2 715.4,211.3 
			718.6,211.5 		"/>
		<path class="st3" d="M682.6,230c-7.8,6.6-15.1,11.6-21.7,15.2c-6.6,3.6-11.6,5.3-15.1,5.1c-2.3-0.1-3.3-1.1-3-3
			c0.3-1.9,1.8-4.4,4.6-7.6c2.8-3.2,6.5-6.7,11.2-10.7c4.8-4,9.6-7.6,14.3-10.7c4.8-3.1,9.1-5.4,12.8-6.9c3.8-1.5,6.7-2.2,8.9-2.1
			c2.3,0.1,3.3,1.2,3,3.1c-0.3,1.9-1.9,4.4-4.7,7.6C690.2,223.2,686.7,226.5,682.6,230L682.6,230z M679.3,229.7
			c5.7-4.8,9.4-8.6,11-11.4c1.7-2.8,1.3-4.3-1.1-4.5c-2.4-0.1-6.1,1.1-11,3.8c-4.9,2.7-10.4,6.6-16.4,11.6c-3.8,3.2-6.8,6-9,8.5
			c-2.2,2.4-3.4,4.4-3.7,5.8c-0.3,1.4,0.4,2.1,2,2.2c2.3,0.1,5.8-1,10.5-3.5C666.3,239.9,672.2,235.7,679.3,229.7L679.3,229.7z"/>
		<path class="st3" d="M678,209.1l-47.2,39.6l-9.2-0.6c-1.6-0.1-2.7-0.3-3.3-0.6c-0.8-0.4-1.1-1.1-0.8-2c0.3-1,1.1-2.3,2.6-3.9
			c1.5-1.7,3.4-3.5,5.7-5.4c4-3.4,8.1-6.2,12.2-8.4c4.1-2.2,7.9-3.3,11.3-3.1l6.3,0.4l19.2-16.1L678,209.1L678,209.1z M650,229.6
			l-6.3-0.4c-2.1-0.1-4.3,0.4-6.7,1.6s-4.9,3-7.7,5.2c-2,1.7-3.4,3.1-4.3,4.3c-0.9,1.2-1.1,2-0.7,2.5c0.3,0.3,1.1,0.4,2.6,0.5
			l6.3,0.4L650,229.6L650,229.6z"/>
		<path class="st9" d="M673.8,477.9c-3.3-3.9-6.7-7.8-10-11.6c-3.3-3.8-6.6-7.7-9.8-11.5c0-4.9,0-9.8,0-14.7c0-4.9,0-9.8,0-14.6
			c3.2-2.8,6.3-5.6,9.5-8.4c3.2-2.8,6.4-5.7,9.6-8.5c4.8,0.6,9.7,1.3,14.6,1.9c4.9,0.6,9.9,1.3,14.9,2c3.3,3.8,6.7,7.6,10.1,11.4
			c3.4,3.8,6.8,7.7,10.2,11.5c0.1,5.1,0.1,10.2,0.2,15.2c0.1,5.1,0.1,10.2,0.2,15.3c-3.4,2.9-6.7,5.7-10,8.6
			c-3.3,2.8-6.7,5.7-10,8.5c-5-0.8-9.9-1.7-14.8-2.5C683.5,479.6,678.6,478.7,673.8,477.9L673.8,477.9z"/>
		<path class="st11" d="M702.4,480.8c-4.7-0.8-9.4-1.6-14-2.4c-4.6-0.8-9.2-1.6-13.8-2.3c-3.2-3.7-6.3-7.3-9.4-11
			c-3.1-3.6-6.2-7.2-9.3-10.8c0-4.6,0-9.3,0-13.9c0-4.6,0-9.2,0-13.8c3-2.6,6-5.3,9-7.9c3-2.7,6-5.3,9.1-8c4.6,0.6,9.2,1.2,13.8,1.8
			c4.7,0.6,9.4,1.2,14.1,1.9c3.2,3.6,6.3,7.1,9.5,10.7c3.2,3.6,6.4,7.2,9.6,10.9c0.1,4.8,0.1,9.6,0.2,14.4c0.1,4.8,0.1,9.6,0.2,14.4
			c-3.2,2.7-6.3,5.4-9.5,8.1C708.6,475.5,705.5,478.2,702.4,480.8L702.4,480.8z"/>
		<path class="st3" d="M661.9,446.8c0.8,1.3,1.4,2,1.4,2.1c0.1,0.2,0.9,0.9,1.8,1c0.6,0.1,1.4-0.3,1.5-0.4c0.1-0.1,0.6-0.9,0.6-1.7
			c0-1-0.9-2.4-2.8-4c-0.1,0-0.3-0.2-0.3-0.2c-0.9-0.8-1.8-1.6-2.3-2c-0.5-0.4-1.3-1.3-1.3-1.3c-0.4-0.6-1.4-1.9-1.4-2.4
			c0-0.4-0.4-1.6-0.4-2.6c0-1.9,0.8-3.5,1.7-4.2c0.9-0.7,2.8-1.3,4.6-1c2,0.3,3.2,1.3,4.1,2.2c0.6,0.8,1.4,1.8,1.9,3.2
			c-1,0.4-1.7,0.7-3,1.3c-0.6-1.1-1.4-2.2-1.5-2.3c-0.2-0.2-0.9-1-1.6-1.1c-0.5-0.1-1.3,0.4-1.3,0.5c-0.1,0.1-0.6,0.9-0.6,1.7
			c0,1.2,1.3,3.1,3.5,4.7c0.4,0.3,1.4,1.1,1.4,1.1c1.1,0.7,2.5,2.5,2.7,3.1c0.2,0.6,0.8,2.1,0.9,3.2c0,2.3-1.4,4-1.9,4.6
			c-0.8,1-2.7,1.4-5,1c-2-0.3-3.5-1.7-4.1-2.4c-1-1.1-0.6-0.6-1.7-2.6C660,447.7,660.9,447.4,661.9,446.8L661.9,446.8z M677.9,455.2
			c0-3.1,0-6.3-0.1-9.4c0-3.1,0-6.3-0.1-9.4c-1.1-0.2-2.2-0.3-3.4-0.5c0-1.2,0-2.5,0-3.7c3.7,0.5,7.4,1,11.1,1.5c0,1.3,0,2.5,0,3.8
			c-1.1-0.1-2.2-0.3-3.3-0.4c0,3.1,0,6.3,0.1,9.4c0,3.1,0,6.3,0.1,9.4C680.9,455.6,679.4,455.4,677.9,455.2L677.9,455.2z
			 M688.6,445.1c0-5.7,2-11.3,6.5-10.6c4.5,0.7,6.6,6.6,6.6,12.3c0.1,5.7-2.1,12.2-6.7,11.4C690.4,457.5,688.6,450.9,688.6,445.1
			L688.6,445.1z M692.3,445.6c0,1.6,0.8,8.7,2.8,9c2,0.4,2.6-6.4,2.6-8.2c0-1.8-0.5-8-2.7-8.3C692.9,437.8,692.3,444,692.3,445.6
			L692.3,445.6z M711.1,437.4c4.1,0.6,6.6,4.5,6.6,7.9c0,3.4-2.1,6.6-6.4,5.9c-0.3-0.1-0.7-0.1-1-0.1c0,3.1,0.1,6.2,0.1,9.2
			c-1.5-0.2-3.1-0.5-4.6-0.7c0-3.8-0.1-7.7-0.1-11.5c0-3.8-0.1-7.6-0.1-11.5C707.4,436.9,709.2,437.2,711.1,437.4L711.1,437.4z
			 M710.1,440.9c0,2.1,0,4.1,0.1,6.2c1.7,0.3,3.3-0.5,3.2-2.5C713.3,442.7,712.1,441.2,710.1,440.9L710.1,440.9z"/>
		<path class="st3" d="M241.6,790l300.3-322l-10.5-1.6L226.9,790H241.6L241.6,790z M709.6,288.2l109.9-117.9h-9.4L700.3,287.1
			L709.6,288.2L709.6,288.2z"/>
		<path class="st7" d="M578.8,232.8L578.8,232.8c0.9,0,1.7-0.8,1.7-1.9v-61.1h-3.4v61.1C577.1,232,577.8,232.8,578.8,232.8
			L578.8,232.8z"/>
		<path class="st12" d="M432.1,339.5h-13.6l-5.4-14h-24.6l-5.1,14h-13.2l24-61.6h13.2L432.1,339.5L432.1,339.5z M409.2,315.1
			l-8.5-22.9l-8.3,22.9H409.2L409.2,315.1z"/>
		<polygon class="st12" points="330.8,608.1 330.8,546.4 342.9,546.4 368.1,587.6 368.1,546.4 379.7,546.4 379.7,608.1 367.2,608.1 
			342.3,567.9 342.3,608.1 330.8,608.1 		"/>
	</g>
</g>
</svg>
