<?xml version="1.0" encoding="utf-8"?>
<!-- Generator: Adobe Illustrator 19.2.0, SVG Export Plug-In . SVG Version: 6.00 Build 0)  -->
<svg version="1.1" id="Livello_1" xmlns="http://www.w3.org/2000/svg" xmlns:xlink="http://www.w3.org/1999/xlink" x="0px" y="0px"
	 viewBox="0 0 960 960" style="enable-background:new 0 0 960 960;" xml:space="preserve">
<style type="text/css">
	.st0{fill:#FFFFFF;stroke:#1A171B;stroke-width:1.649;stroke-miterlimit:2.6131;}
	.st1{fill-rule:evenodd;clip-rule:evenodd;fill:#9B9C9E;stroke:#1A171B;stroke-width:1.649;stroke-miterlimit:2.6131;}
	.st2{fill-rule:evenodd;clip-rule:evenodd;fill:#CECFD1;stroke:#1A171B;stroke-width:1.649;stroke-miterlimit:2.6131;}
	.st3{fill-rule:evenodd;clip-rule:evenodd;fill:#FFFFFF;}
	.st4{fill-rule:evenodd;clip-rule:evenodd;fill:#008E43;stroke:#1A171B;stroke-width:1.649;stroke-miterlimit:2.6131;}
	.st5{fill-rule:evenodd;clip-rule:evenodd;fill:#ECECED;stroke:#1A171B;stroke-width:1.649;stroke-miterlimit:2.6131;}
	.st6{fill-rule:evenodd;clip-rule:evenodd;fill:#B0B2B3;stroke:#1A171B;stroke-width:1.649;stroke-miterlimit:2.6131;}
	.st7{fill-rule:evenodd;clip-rule:evenodd;fill:#6F7072;stroke:#1A171B;stroke-width:1.649;stroke-miterlimit:2.6131;}
	.st8{fill-rule:evenodd;clip-rule:evenodd;fill:#1A171B;stroke:#1A171B;stroke-width:1.649;stroke-miterlimit:2.6131;}
	.st9{fill-rule:evenodd;clip-rule:evenodd;fill:#00A6E2;stroke:#1A171B;stroke-width:1.649;stroke-miterlimit:2.6131;}
	.st10{fill-rule:evenodd;clip-rule:evenodd;fill:#FFFFFF;stroke:#1A171B;stroke-width:1.649;stroke-miterlimit:2.6131;}
	.st11{fill-rule:evenodd;clip-rule:evenodd;fill:#E1001A;stroke:#1A171B;stroke-width:1.649;stroke-miterlimit:2.6131;}
	.st12{fill-rule:evenodd;clip-rule:evenodd;fill:#E1001A;}
	.st13{fill-rule:evenodd;clip-rule:evenodd;fill:#FFFFFF;stroke:#E1001A;stroke-width:5.4967;stroke-miterlimit:2.6131;}
	.st14{fill-rule:evenodd;clip-rule:evenodd;fill:#1A171B;}
</style>
<g>
	<g>
		<polygon class="st0" points="45,169.9 915,169.9 915,790 45,790 45,169.9 		"/>
		<path class="st1" d="M511.7,790l190.9-261.8c31.6-44.1,42.4-46.5,100.7-36.8l111.7,17V314.6l-19.2-1.9
			c-24.6-3.6-24.5-14.1-11.9-33.3l31.2-42.8v-66.7H668.4l-81,73.2c-32.5,28.4-40.7,30.3-87.7,24.7L45,216.8v153.4l251.7,40.3
			c45.1,7.8,65.4,31.5,45.6,50.9L45,727.2V790H511.7L511.7,790z"/>
		<path class="st2" d="M518.7,790L706,533.2c31.6-44.1,42.4-46.5,100.7-36.8L915,512.9V319.2l-15.8-1.6
			c-24.6-3.6-32.1-14.1-19.5-33.3L915,235v-65H674.2L589,248.1c-33,28-39.1,29.9-85.8,24.7L45,221.4v148.4l255.2,40.8
			c45.1,7.8,65.4,36.3,45.6,55.7L45,735.2V790H518.7L518.7,790z"/>
		<polygon class="st3" points="576.5,473.4 604,477.5 564.7,501.8 576.5,473.4 		"/>
		<polygon class="st3" points="638,482.5 665.5,486.6 626.1,510.9 638,482.5 		"/>
		<polygon class="st3" points="668.7,487.2 696.2,491.2 656.9,515.5 668.7,487.2 		"/>
		<polygon class="st3" points="544.9,468.5 572.4,472.6 533.1,496.9 544.9,468.5 		"/>
		<polygon class="st3" points="607.5,477.9 635,481.9 595.7,506.2 607.5,477.9 		"/>
		<polygon class="st3" points="699.4,492.1 726.9,496.1 687.5,520.4 699.4,492.1 		"/>
		<polygon class="st4" points="775.2,538.2 914.8,562.5 914.8,790.1 612.8,790.1 775.2,538.2 		"/>
		<polygon class="st4" points="274.1,450.4 45.2,409.5 45.2,639.8 274.1,450.4 		"/>
		<polygon class="st5" points="45.2,189.7 538.6,233.4 615.2,170.2 45.2,170.2 45.2,189.7 		"/>
		<path class="st6" d="M45.8,369.9l252.9,40.7c45.1,7.8,66.5,36.3,46.6,55.7l-300,268.3v-8l296.6-265.2
			c19.9-19.4-0.4-43.1-45.6-50.9l-251-40.1L45.8,369.9L45.8,369.9z"/>
		<path class="st6" d="M674.1,170.2l-85.5,77.9c-32.5,28.4-38.8,30.3-85.8,24.7L45.2,221.4v-4.6l454.1,51c47,6,55.8,4.2,88.3-24.7
			l81-72.9H674.1L674.1,170.2z"/>
		<path class="st6" d="M914.8,319.8l-16.1-1c-24.7-3.6-31-15.2-18.4-34.4l26.9-38.4l7.5-9.7l-31.4,43.1
			c-12.6,19.2-12.7,29.7,11.9,33.3l19.5,1.4L914.8,319.8L914.8,319.8z"/>
		<path class="st7" d="M518.2,790.1l187.3-256.8c31.6-44.1,42.4-46.5,100.7-36.8l108.6,16.5v0.4l-112-18.1
			c-56.8-5.9-60.8-7.6-93.7,33L517.7,790.1H518.2L518.2,790.1z"/>
		<path class="st8" d="M689.2,591.8L689.2,591.8c1.9,0,3.4-1.5,3.4-3.4v-120c0-1.9-1.5-3.4-3.4-3.4c-1.9,0-3.4,1.5-3.4,3.4v120
			C685.8,590.3,687.3,591.8,689.2,591.8L689.2,591.8z"/>
		<polygon class="st9" points="364,688.5 472.9,735.3 473.2,766.3 364.9,725.8 364,688.5 		"/>
		<path class="st9" d="M361.1,689.6l28.1-29.9l17.5-30.3c26.1-35.2,50.1-54.1,77.2-72.7l35-7.4c9.1-10.1,22.7-21.5,37-27.5
			c8.1-3.7,76.3,9,80.8,18.5l-37.5,35.9L494,707l-27.8,29C429.2,727.6,392.4,707.8,361.1,689.6L361.1,689.6z"/>
		<path class="st10" d="M407,630c22.7,11.5,52.4,24.4,82.4,29.4l1.6,42.8c-38.4-10.2-72.6-24.6-101.8-42.5L407,630L407,630z"/>
		<polygon class="st10" points="498.8,655.6 530.7,620.2 545.7,642.4 506.2,691.7 498.8,655.6 		"/>
		<polygon class="st10" points="535.8,614 557.7,588.9 598.3,577.1 552.2,634.1 535.8,614 		"/>
		<path class="st10" d="M482.9,557.7l33.5-7.7c29.9,3.4,55.3,12.9,79,24.5c-12.5,2.8-23.1,5.5-35.6,8.3
			C538,571.6,509.2,562.5,482.9,557.7L482.9,557.7z"/>
		<path class="st9" d="M636.7,539.8c5.4,2.6,7.6,8.5,9.1,13.2L493,750.8c-4.6,3.7-18.4,10.4-21.5,9.3l-4.2-24.6l26.3-28.3l57.4-71.2
			l47.7-59.3L636.7,539.8L636.7,539.8z"/>
		<path class="st9" d="M645.3,553.6c2.5,5.5,0.8,12.2-2.4,22L504.3,757.9c-6.3,7-18.2,14.1-25.1,15.8
			c-24.7,6.5-100.3-30.7-112.8-40.3c-5.6-3.9-9.6-13.2-9-20.2c31.2,19.1,65.1,33,99.4,45.4c5.1,0.5,9.8,1.1,14.9,1.6
			c24-3.5,28.6-21.7,41.1-34.4l58.4-75.9l47-60.8L645.3,553.6L645.3,553.6z"/>
		<path class="st11" d="M456.4,733.9l9.7,2.1c2.8,6.3,4.5,15.7,5.1,24c-5.4,0.9-10.3-0.5-16.8-2.5L456.4,733.9L456.4,733.9z"/>
		<path class="st11" d="M360.4,689.8l5.9,3.1l2.7,27.4l-11.6-6.7C356.4,706.6,356.2,695.2,360.4,689.8L360.4,689.8z"/>
		<polygon class="st10" points="390.3,714 426.7,731.6 428.2,743.9 393.4,728 390.3,714 		"/>
		<path class="st8" d="M619.2,579.3c9.7,0.1,16.8,10.2,15.7,22.5c-1,12.2-9.8,22.2-19.5,22c-9.7-0.1-16.8-10.2-15.7-22.4
			C600.7,589.1,609.5,579.2,619.2,579.3L619.2,579.3z"/>
		<path class="st10" d="M619,590.3c4.9,0.4,8.1,5.7,7.2,11.9c-0.9,6.2-5.7,11-10.6,10.6c-4.9-0.4-8.1-5.7-7.2-11.9
			C609.3,594.7,614.1,589.9,619,590.3L619,590.3z"/>
		<path class="st8" d="M526.2,703.9c10.6-0.1,17.5,11.3,15.4,25.2c-2.1,14-12.5,25.4-23.1,25.5c-10.6,0.1-17.5-11.3-15.4-25.2
			C505.2,715.5,515.6,704,526.2,703.9L526.2,703.9z"/>
		<path class="st10" d="M524.3,716.1c5.5,0,9.1,5.9,8,13.2c-1.1,7.3-6.5,13.3-12.1,13.3c-5.5,0-9.1-5.9-8-13.2
			S518.8,716.1,524.3,716.1L524.3,716.1z"/>
		<path class="st11" d="M165,281l24.4-2.3l-57,47.8l57.1-47.7l5.5-2.7l8.7-1.3l52.6,5.4l13.4,3.1l32.3,18.6
			c17.8,1.7,34.7,6.4,47,11.3c-6.1,27-33.5,47.5-57.8,59.4l-6.6,1.6l-12.6-1.8l-167.5-27.7c-1.7-4.6-4.3-21.7,4.2-20.8l17.4,1.9
			c-2.2-0.5-13.4-1.2-17.3-2.1c-1.1-0.3-2.1,0-1.4-0.8C118.1,310.5,146.2,289.9,165,281L165,281z"/>
		<path class="st11" d="M104.3,344.1l179.4,29.8l7.9-0.9l5.5-5.9l-47.6-17.5l47.8,17.5c2.4,0.9,13.5-5.4,13.7-5.6
			c15.6-11.6,33.4-30.4,38.5-48.5c6,3.3,5.1,12.8,3.4,19.8c-4.3,15.2-24.2,33.8-46.7,47.8c-15.4,5.5-19.7,3-37.4,3.3l-152.6-24.5
			C109.2,358.2,106,350,104.3,344.1L104.3,344.1z"/>
		<polygon class="st12" points="284.8,359.7 306.1,347.4 311.7,361.3 285,371 284.8,359.7 		"/>
		<path class="st10" d="M230.1,318.9c18.6-10.3,29.9-19.6,42.5-33.5l28.1,16.3c-13.1,17.9-30,30-53.9,44.2L230.1,318.9L230.1,318.9z
			"/>
		<polygon class="st10" points="187.5,316.3 225.1,321.9 237.2,343.8 184.6,334.7 187.5,316.3 		"/>
		<polygon class="st10" points="157.6,311.4 180.4,314.7 176.6,333.8 138.4,327.9 157.6,311.4 		"/>
		<path class="st10" d="M287.8,366.8c0.1-2,2.7-3.3,3.8-3.7c7.2-2.4,13.7-4.4,20.8-6.7c2.6,1.2,3,3.2,2.8,5
			c-7.2,5.8-15.1,10-23.3,14.1C289,374.3,288.2,370.9,287.8,366.8L287.8,366.8z"/>
		<path class="st10" d="M351.5,314.6c-0.2,3.3-6.4,14.9-10,17.6c-2.4,0.6-5-1.6-5-3.1c1.9-6.9,3.6-12,5.2-18.8
			C345,310.7,349.4,312.1,351.5,314.6L351.5,314.6z"/>
		<polygon class="st10" points="326.4,354.5 339.8,340.7 341.5,345.8 328.1,360.6 326.4,354.5 		"/>
		<path class="st8" d="M127.2,341.7c6.3-2.5,15,2.9,19.4,12.1c4.4,9.2,2.9,18.8-3.4,21.4c-6.3,2.5-15-2.9-19.4-12.1
			C119.4,353.9,120.9,344.3,127.2,341.7L127.2,341.7z"/>
		<path class="st10" d="M131.2,350c3.2-1.3,7.6,1.5,9.9,6.2c2.2,4.7,1.5,9.6-1.7,10.9c-3.2,1.3-7.6-1.5-9.9-6.2
			C127.2,356.1,128,351.3,131.2,350L131.2,350z"/>
		<path class="st8" d="M240.2,361c6.9-2.3,15.5,3.3,19.1,12.5c3.6,9.2,0.8,18.5-6.1,20.8c-6.9,2.3-15.5-3.3-19.1-12.5
			C230.5,372.6,233.3,363.3,240.2,361L240.2,361z"/>
		<path class="st10" d="M243.5,369.4c3.4-1.1,7.7,1.6,9.4,6.2c1.8,4.5,0.4,9.1-3,10.3c-3.4,1.1-7.7-1.6-9.4-6.2
			C238.7,375.2,240.1,370.6,243.5,369.4L243.5,369.4z"/>
		<polygon class="st3" points="586.5,275.6 605.2,277.6 615.8,258.3 586.5,275.6 		"/>
		<polygon class="st3" points="632.8,280.3 651.5,282.3 662.2,263 632.8,280.3 		"/>
		<polygon class="st3" points="655.5,282.5 674.2,284.5 684.8,265.3 655.5,282.5 		"/>
		<polygon class="st3" points="563.6,273.4 582.3,275.4 593,256.1 563.6,273.4 		"/>
		<polygon class="st3" points="610.7,277.9 629.4,279.8 640,260.6 610.7,277.9 		"/>
		<polygon class="st3" points="678.4,284.8 697.1,286.7 707.7,267.5 678.4,284.8 		"/>
		<path class="st3" d="M241.6,789.9l300.3-322l-10.5-1.6L226.9,789.9H241.6L241.6,789.9z M709.9,287.9l109.7-117.6h-9.4L700.3,287
			L709.9,287.9L709.9,287.9z"/>
		<path class="st8" d="M581.5,232.9L581.5,232.9c0.9,0,1.7-0.8,1.7-1.9v-61.1h-3.4V231C579.8,232,580.6,232.9,581.5,232.9
			L581.5,232.9z"/>
		<path class="st10" d="M723.5,419.5c3.8,0.6,6,3.6,5.3,7.4c-0.1,0.2-0.1,0.4-0.1,0.6c-0.1,0.2-0.1,0.4-0.2,0.6
			c-0.1,0.2-0.2,0.4-0.3,0.6c-5.9,9.4-11.7,18.7-17.4,28c-5.7,9.2-11.4,18.3-17,27.3c-1.7,2.4-4,3.5-7.1,1.8c-1.1-0.8-2-1.8-2.7-3
			c-5.4-10.4-10.8-20.8-16.2-31.2c-5.4-10.4-10.7-20.7-16.1-31c-1.2-2.4-1.6-4.9,0.2-6.8c1.4-1.4,3.2-1.4,5.2-1.2
			c10.7,1.2,21.4,2.3,32.3,3.5c11,1.2,22,2.4,33.2,3.6C722.9,419.4,723.2,419.5,723.5,419.5L723.5,419.5z"/>
		<path class="st12" d="M723,421.2c1.1,0.1,2.1,0.1,3.2,1.1c1.1,1,2.1,3.2,0.9,5.5c-5.9,9.5-11.8,18.9-17.6,28.2
			c-5.8,9.2-11.5,18.4-17.2,27.5c-1.9,3.1-5.2,2.5-7-0.9c-5.5-10.5-11-21.1-16.4-31.6c-5.4-10.5-10.9-20.9-16.3-31.4
			c-0.7-1.3-1.3-3.2-0.5-4.4c1-1.6,2.7-1.5,4.5-1.3c10.8,1.2,21.7,2.4,32.7,3.6C700.4,418.8,711.7,420,723,421.2L723,421.2z"/>
		<path class="st13" d="M718.3,427.9c-5,8.1-10,16.1-14.9,24c-4.9,7.9-9.8,15.7-14.6,23.5c-4.7-9-9.4-18-14.1-27
			c-4.7-9-9.3-17.9-14-26.9c9.4,1,18.9,2.1,28.4,3.2C698.8,425.7,708.5,426.8,718.3,427.9L718.3,427.9z"/>
		<path class="st14" d="M377.3,280.9H400c5.1,0,9,0.4,11.7,1.2c3.6,1.1,6.7,3,9.3,5.7c2.6,2.7,4.5,6,5.9,10c1.3,3.9,2,8.8,2,14.6
			c0,5.1-0.6,9.4-1.9,13.1c-1.5,4.5-3.7,8.1-6.6,10.9c-2.2,2.1-5.1,3.7-8.7,4.9c-2.7,0.9-6.4,1.3-11,1.3h-23.4V280.9L377.3,280.9z
			 M389.7,291.3v40.8h9.3c3.5,0,6-0.2,7.5-0.6c2-0.5,3.7-1.3,5-2.6c1.3-1.2,2.4-3.2,3.3-6c0.8-2.8,1.3-6.5,1.3-11.3s-0.4-8.4-1.3-11
			c-0.8-2.6-2-4.5-3.5-6c-1.5-1.4-3.4-2.4-5.8-2.9c-1.7-0.4-5.1-0.6-10.2-0.6H389.7L389.7,291.3z"/>
		<path class="st14" d="M336.4,597.7v-61.6h26.2c6.6,0,11.4,0.6,14.4,1.7c3,1.1,5.4,3.1,7.2,5.9c1.8,2.8,2.7,6.1,2.7,9.7
			c0,4.6-1.4,8.5-4.1,11.5c-2.7,3-6.8,4.9-12.2,5.7c2.7,1.6,4.9,3.3,6.7,5.2c1.8,1.9,4.1,5.2,7.1,10l7.5,12h-14.9l-9-13.4
			c-3.2-4.8-5.4-7.8-6.6-9.1c-1.2-1.2-2.4-2.1-3.7-2.6c-1.3-0.5-3.4-0.7-6.3-0.7h-2.5v25.7H336.4L336.4,597.7z M348.9,562.1h9.2
			c6,0,9.7-0.2,11.2-0.7c1.5-0.5,2.6-1.4,3.5-2.6c0.8-1.2,1.3-2.8,1.3-4.6c0-2.1-0.6-3.7-1.7-5c-1.1-1.3-2.7-2.1-4.7-2.4
			c-1-0.1-4-0.2-9.1-0.2h-9.7V562.1L348.9,562.1z"/>
	</g>
</g>
</svg>
