<?xml version="1.0" encoding="utf-8"?>
<!-- Generator: Adobe Illustrator 19.2.0, SVG Export Plug-In . SVG Version: 6.00 Build 0)  -->
<svg version="1.1" id="Livello_1" xmlns="http://www.w3.org/2000/svg" xmlns:xlink="http://www.w3.org/1999/xlink" x="0px" y="0px"
	 viewBox="0 0 960 960" style="enable-background:new 0 0 960 960;" xml:space="preserve">
<style type="text/css">
	.st0{fill:#FFFFFF;stroke:#1A171B;stroke-width:1.6478;stroke-miterlimit:2.6131;}
	.st1{fill-rule:evenodd;clip-rule:evenodd;fill:#B0B2B3;stroke:#1A171B;stroke-width:1.6478;stroke-miterlimit:2.6131;}
	.st2{fill-rule:evenodd;clip-rule:evenodd;fill:#CECFD1;stroke:#1A171B;stroke-width:1.6478;stroke-miterlimit:2.6131;}
	.st3{fill-rule:evenodd;clip-rule:evenodd;fill:#FFFFFF;}
	.st4{fill-rule:evenodd;clip-rule:evenodd;fill:#008E43;stroke:#1A171B;stroke-width:1.6478;stroke-miterlimit:2.6131;}
	.st5{fill-rule:evenodd;clip-rule:evenodd;fill:#ECECED;stroke:#1A171B;stroke-width:1.6478;stroke-miterlimit:2.6131;}
	.st6{fill-rule:evenodd;clip-rule:evenodd;fill:#1A171B;stroke:#1A171B;stroke-width:1.6478;stroke-miterlimit:2.6131;}
	.st7{fill-rule:evenodd;clip-rule:evenodd;fill:#00A6E2;stroke:#1A171B;stroke-width:1.6478;stroke-miterlimit:2.6131;}
	.st8{fill-rule:evenodd;clip-rule:evenodd;fill:#FFFFFF;stroke:#1A171B;stroke-width:1.6478;stroke-miterlimit:2.6131;}
	.st9{fill-rule:evenodd;clip-rule:evenodd;fill:#E1001A;stroke:#1A171B;stroke-width:1.6478;stroke-miterlimit:2.6131;}
	.st10{fill-rule:evenodd;clip-rule:evenodd;fill:#E1001A;}
	.st11{fill-rule:evenodd;clip-rule:evenodd;fill:#FFFFFF;stroke:#E1001A;stroke-width:5.4928;stroke-miterlimit:2.6131;}
	.st12{fill-rule:evenodd;clip-rule:evenodd;fill:#1A171B;}
</style>
<g>
	<g>
		<polygon class="st0" points="45,790 915,790 915,170 45,170 45,790 		"/>
		<path class="st1" d="M496.4,790l165.9-227.5c31.6-44.1,42.4-46.4,100.6-36.8l152,23.1V342.5l-52.6-5.2
			c-24.6-3.6-24.5-14.1-11.9-33.3l64.5-86.1V170H650.3l-96.9,97.9c-32.5,28.4-39.7,30.3-86.7,24.7L45,245.2v165.8l211.8,33.9
			c45.1,7.8,65.4,31.5,45.5,50.9L45,725.8V790H496.4L496.4,790z"/>
		<path class="st2" d="M503.5,790l162.3-222.6c31.6-44.1,42.4-46.4,100.6-36.8L915,553.3V347.1l-49.2-4.9
			c-24.6-3.6-24.5-14.1-11.9-33.3l61.1-81.5V170l-259.6,0.3L553.6,272.8c-32.9,27-36.8,28.8-83.5,24.7L45,249.7v165.6l215.2,34.4
			c45.1,7.8,65.4,31.5,45.5,50.9L45,733.8V790H503.5L503.5,790z"/>
		<path class="st3" d="M45.1,321l368.3,54.1l-6.6,5.8L45.1,326.6V321L45.1,321z M788.1,427.3L915,444v7.3l-131.4-17.7L788.1,427.3
			L788.1,427.3z"/>
		<polygon class="st4" points="735.3,572.4 915,603.7 915,790 595.1,790 735.3,572.4 		"/>
		<polygon class="st4" points="234.6,484.7 45,450.8 45,641.6 234.6,484.7 		"/>
		<polygon class="st5" points="45,218.9 496.7,258.8 604.5,170 45,170 45,218.9 		"/>
		<path class="st6" d="M658.6,602L658.6,602c1.9,0,3.4-1.5,3.4-3.4V478.7c0-1.9-1.5-3.4-3.4-3.4c-1.9,0-3.4,1.5-3.4,3.4v119.9
			C655.2,600.5,656.7,602,658.6,602L658.6,602z"/>
		<path class="st6" d="M877.6,326.9L877.6,326.9c1.4,0,2.5-1.1,2.5-2.5v-88.8c0-1.4-1.1-2.5-2.5-2.5c-1.4,0-2.5,1.1-2.5,2.5v88.8
			C875.1,325.8,876.2,326.9,877.6,326.9L877.6,326.9z"/>
		<polygon class="st7" points="328.9,690.4 439.8,737.8 440.6,769.2 330.3,728.2 328.9,690.4 		"/>
		<path class="st7" d="M326,691.5l27.9-30.3l17.2-30.7c25.8-35.6,49.8-54.7,77-73.6l35.3-7.4c9.1-10.2,22.6-21.8,37.1-27.8
			c8.1-3.8,77.3,9.1,82,18.7l-37.4,36.3L460.7,709.1L433,738.5C395.5,730,357.9,710,326,691.5L326,691.5z"/>
		<path class="st8" d="M371.4,631.2c23.2,11.6,53.5,24.7,83.9,29.7l2.4,43.4c-39-10.3-73.9-24.9-103.8-43L371.4,631.2L371.4,631.2z"
			/>
		<polygon class="st8" points="464.8,657.2 496.5,621.3 512,643.8 472.8,693.7 464.8,657.2 		"/>
		<polygon class="st8" points="501.5,615 523.3,589.6 564.2,577.7 518.4,635.4 501.5,615 		"/>
		<path class="st8" d="M447.1,558l33.8-7.8c30.4,3.4,56.2,13.1,80.4,24.8c-12.6,2.9-23.3,5.5-35.9,8.4
			C503.1,572.2,473.8,562.8,447.1,558L447.1,558z"/>
		<path class="st7" d="M602.5,539.9c5.5,2.6,7.8,8.6,9.5,13.4L460.4,753.4c-4.6,3.8-18.4,10.5-21.6,9.4l-4.7-24.9l26.1-28.6
			l56.9-72.1l47.3-60L602.5,539.9L602.5,539.9z"/>
		<path class="st7" d="M611.4,553.9c2.6,5.6,1,12.3-2,22.2L472,760.7c-6.3,7.1-18.2,14.3-25.2,16c-24.9,6.6-102-31.1-114.8-40.8
			c-5.8-4-10-13.3-9.5-20.5c31.8,19.4,66.4,33.4,101.3,46c5.1,0.5,9.9,1.1,15.1,1.6c24.3-3.5,28.6-22,41.1-34.8l57.9-76.9l46.6-61.5
			L611.4,553.9L611.4,553.9z"/>
		<path class="st9" d="M423.1,736.4l9.9,2.1c2.9,6.4,4.8,15.9,5.6,24.3c-5.5,0.9-10.5-0.5-17.1-2.5L423.1,736.4L423.1,736.4z"/>
		<path class="st9" d="M325.3,691.7l6.1,3.2l3.1,27.8l-11.8-6.8C321.5,708.8,321.1,697.2,325.3,691.7L325.3,691.7z"/>
		<polygon class="st8" points="355.9,716.3 393,734.1 394.8,746.5 359.2,730.4 355.9,716.3 		"/>
		<path class="st6" d="M585.4,579.9c9.8,0.1,17.2,10.3,16.3,22.7c-0.9,12.4-9.6,22.4-19.4,22.3c-9.8-0.1-17.2-10.3-16.3-22.7
			C566.8,589.8,575.6,579.8,585.4,579.9L585.4,579.9z"/>
		<path class="st8" d="M585.4,591c5,0.4,8.3,5.8,7.5,12c-0.8,6.3-5.6,11.1-10.6,10.8c-5-0.4-8.3-5.8-7.5-12
			C575.7,595.5,580.4,590.7,585.4,591L585.4,591z"/>
		<path class="st6" d="M493.3,706c10.7-0.1,17.9,11.4,16,25.5c-1.9,14.1-12.2,25.7-23,25.8c-10.7,0.1-17.9-11.4-16-25.5
			C472.2,717.7,482.5,706.1,493.3,706L493.3,706z"/>
		<path class="st8" d="M491.6,718.3c5.6,0,9.3,5.9,8.3,13.3c-1,7.4-6.4,13.4-12,13.5c-5.6,0-9.3-5.9-8.3-13.3
			C480.6,724.4,486,718.4,491.6,718.3L491.6,718.3z"/>
		<path class="st9" d="M125.6,317.2l24.4-2.6L93.1,363l57.1-48.2l5.5-2.8l8.7-1.4l52.6,4.9l13.4,3l32.2,18.3
			c17.8,1.6,34.7,6,46.9,10.8c-6.1,27.1-33.5,47.7-57.8,60l-6.6,1.7l-12.6-1.7L65.2,381.3c-1.7-4.6-4.3-21.7,4.2-20.8l17.3,1.7
			c-2.2-0.5-13.4-1-17.3-1.9c-1.1-0.3-2.1,0.1-1.4-0.8C78.8,347.1,106.9,326.3,125.6,317.2L125.6,317.2z"/>
		<path class="st9" d="M65,380.9L244.3,409l7.9-1l5.5-6l-47.5-17l47.8,17c2.4,0.9,13.5-5.5,13.7-5.7c15.6-11.7,33.4-30.7,38.4-48.9
			c6,3.2,5.1,12.7,3.4,19.8c-4.3,15.2-24.2,34-46.7,48.2c-15.4,5.6-19.7,3.1-37.4,3.6L77,396C69.8,394.9,66.6,386.7,65,380.9
			L65,380.9z"/>
		<polygon class="st10" points="245.4,394.7 266.6,382.2 272.2,396.1 245.5,406 245.4,394.7 		"/>
		<path class="st8" d="M190.6,354.4c18.6-10.5,29.8-19.9,42.5-33.9l28,16c-13.1,18-29.9,30.3-53.8,44.7L190.6,354.4L190.6,354.4z"/>
		<polygon class="st8" points="148.1,352.3 185.7,357.5 197.7,379.3 145.2,370.7 148.1,352.3 		"/>
		<polygon class="st8" points="118.2,347.6 141,350.7 137.2,369.9 99,364.3 118.2,347.6 		"/>
		<path class="st8" d="M248.3,401.8c0.1-2,2.7-3.4,3.8-3.7c7.2-2.5,13.7-4.5,20.7-6.9c2.6,1.2,3,3.1,2.8,4.9
			c-7.2,5.8-15.1,10.1-23.3,14.3C249.5,409.3,248.7,405.8,248.3,401.8L248.3,401.8z"/>
		<path class="st8" d="M312,349c-0.2,3.3-6.4,15-10,17.7c-2.4,0.6-5-1.6-5-3.1c1.9-6.9,3.6-12,5.2-18.9
			C305.5,345.2,309.8,346.5,312,349L312,349z"/>
		<polygon class="st8" points="286.9,389.2 300.3,375.2 302,380.3 288.6,395.2 286.9,389.2 		"/>
		<path class="st6" d="M87.9,378.3c6.3-2.6,15,2.8,19.4,12c4.4,9.2,2.9,18.8-3.4,21.4c-6.3,2.6-15-2.8-19.4-12
			C80.1,390.5,81.6,380.9,87.9,378.3L87.9,378.3z"/>
		<path class="st8" d="M91.8,386.5c3.2-1.3,7.6,1.4,9.9,6.1c2.2,4.7,1.5,9.5-1.7,10.9c-3.2,1.3-7.6-1.4-9.9-6.1
			C87.9,392.7,88.6,387.8,91.8,386.5L91.8,386.5z"/>
		<path class="st6" d="M200.8,396.4c6.9-2.4,15.5,3.2,19.1,12.3c3.6,9.1,0.8,18.5-6.1,20.9c-6.9,2.4-15.5-3.2-19.1-12.3
			C191.1,408.2,193.8,398.8,200.8,396.4L200.8,396.4z"/>
		<path class="st8" d="M204.1,404.9c3.4-1.2,7.6,1.6,9.4,6.1c1.8,4.5,0.4,9.1-3,10.3c-3.4,1.2-7.6-1.6-9.4-6.1
			C199.3,410.6,200.7,406,204.1,404.9L204.1,404.9z"/>
		<path class="st8" d="M889,180.5c1.6-1.3,2.7,0.3,2.7,3.9c0,0.2,0,0.4,0,0.6c0,0.2,0,0.4-0.1,0.6c0,0.2-0.1,0.4-0.1,0.6
			c-1.8,11.1-3.5,22-5.2,32.7c-1.7,10.5-3.3,20.9-4.9,31.1c-0.5,2.8-1.4,5-2.8,5.4c-0.5,0-1-0.3-1.4-0.9
			c-3.2-5.2-6.6-10.5-10.1-16.1c-3.6-5.8-7.4-11.9-11.4-18.2c-0.9-1.6-1.5-3.7-0.8-6.6c0.6-2.2,1.5-3.2,2.5-4.2
			c5.5-5.1,10.9-10,16.1-14.8c5.1-4.7,10.1-9.3,15-13.8C888.7,180.7,888.8,180.6,889,180.5L889,180.5z"/>
		<path class="st10" d="M888.9,182.3c0.5-0.4,0.9-0.9,1.4-0.6c0.5,0.3,1.1,1.8,0.7,4.4c-1.8,11.2-3.5,22.2-5.2,33.1
			c-1.7,10.7-3.4,21.2-5,31.5c-0.5,3.5-2,4.9-3,3.3c-3.3-5.2-6.7-10.6-10.2-16.3c-3.7-5.9-7.5-12-11.5-18.5
			c-0.5-0.8-1.1-2.2-0.8-3.9c0.3-2.2,1.2-3,2.1-3.9c5.6-5.1,11-10.2,16.3-15.1C878.9,191.5,884,186.8,888.9,182.3L888.9,182.3z"/>
		<path class="st11" d="M887.4,190.5c-1.5,9.6-3,19.1-4.4,28.4c-1.4,9.2-2.9,18.3-4.3,27.2c-2.8-4.6-5.7-9.4-8.6-14.3
			c-3.1-5.1-6.3-10.4-9.6-15.9c4.7-4.5,9.4-8.8,13.9-13.1C878.8,198.7,883.1,194.5,887.4,190.5L887.4,190.5z"/>
		<path class="st8" d="M694.7,488.8c4.1,0.4,6.5-2.6,5.6-7.2c-0.1-0.2-0.1-0.5-0.2-0.7c-0.1-0.2-0.2-0.5-0.3-0.8
			c-0.1-0.2-0.2-0.5-0.3-0.7c-6.9-12.8-13.7-25.5-20.4-38c-6.7-12.4-13.2-24.7-19.8-36.9c-1.9-3.2-4.6-5.3-7.9-4.2
			c-1.3,0.6-2.1,1.5-2.8,2.7c-5.7,10.5-11.5,21.1-17.3,31.7c-5.8,10.7-11.7,21.5-17.7,32.4c-1.3,2.6-1.8,5.5,0.3,8.3
			c1.7,2.1,3.7,2.6,6,3c12.2,1.7,24.4,3.4,36.7,5.2c12.3,1.7,24.7,3.5,37.1,5.2C694.1,488.7,694.4,488.8,694.7,488.8L694.7,488.8z"
			/>
		<path class="st10" d="M694.1,486.6c1.2,0.1,2.3,0.5,3.5-0.4c1.2-0.8,2.2-3.2,0.7-6.3c-6.9-13-13.8-25.8-20.6-38.4
			c-6.7-12.5-13.4-25-20-37.2c-2.2-4.1-5.8-4.5-7.7-1.1c-5.8,10.6-11.7,21.3-17.5,32.1c-5.9,10.8-11.9,21.8-17.9,32.8
			c-0.8,1.4-1.4,3.5-0.4,5.2c1.2,2.3,3.1,2.5,5.2,2.9c12.4,1.7,24.8,3.5,37.2,5.2C669,483.1,681.6,484.9,694.1,486.6L694.1,486.6z"
			/>
		<path class="st11" d="M688.6,477.4c-5.9-11-11.7-21.9-17.5-32.7c-5.7-10.7-11.4-21.3-17-31.9c-5,9.1-10,18.3-15,27.6
			c-5,9.3-10.1,18.6-15.2,28c10.7,1.5,21.4,3,32.2,4.5C666.9,474.4,677.8,475.9,688.6,477.4L688.6,477.4z"/>
		<path class="st6" d="M654.7,430.1c2,2.3,4,4.6,6,6.9c0.1,3.3,0.2,6.5,0.3,9.8c2.7,0.4,5.4,0.7,8.2,1.1c0.1,2.1,0.2,4.1,0.2,6.2
			c-2.7-0.4-5.5-0.7-8.2-1.1c0.2,5.3,0.4,10.7,0.6,16.1c-2-2.3-4.1-4.7-6-7c-1.9,1.8-3.8,3.6-5.6,5.4c-0.2-5.4-0.3-10.7-0.5-16.1
			c-2.7-0.4-5.4-0.7-8.1-1.1c-0.1-2-0.1-4.1-0.2-6.1c2.7,0.4,5.4,0.7,8.1,1.1c-0.1-3.3-0.2-6.5-0.3-9.8
			C651,433.7,652.9,431.9,654.7,430.1L654.7,430.1z"/>
		<path class="st6" d="M250.6,462.6L250.6,462.6c1.4,0,2.5-1.1,2.5-2.5v-88.8c0-1.4-1.1-2.5-2.5-2.5c-1.4,0-2.5,1.1-2.5,2.5v88.8
			C248,461.5,249.2,462.6,250.6,462.6L250.6,462.6z"/>
		<path class="st5" d="M268.4,315.1c1.4-0.4,2,1.7,1.6,4.9c0,0.2-0.1,0.3-0.1,0.5c0,0.2-0.1,0.4-0.1,0.5c0,0.2-0.1,0.4-0.1,0.5
			c-2.7,9.2-5.4,18.4-8.1,27.5c-2.7,9.1-5.4,18.3-8,27.3c-0.8,2.5-1.9,4.5-3.2,4.8c-0.5,0-0.9-0.3-1.2-0.8c-2.5-5-5.3-10.5-8.4-16.6
			c-3.4-6.8-7.3-14.5-11.7-23.2c-1-2.2-1.5-5-0.2-8.1c1.1-2.3,2.5-3.1,4-3.7c7.6-2.9,14.3-5.5,20.4-7.9c5.4-2.1,10.4-4,14.8-5.7
			C268.2,315.2,268.3,315.1,268.4,315.1L268.4,315.1z"/>
		<polygon class="st3" points="840.4,355.6 831.1,368.3 862.2,364.7 840.4,355.6 		"/>
		<polygon class="st3" points="819.6,383.9 810.3,396.5 841.4,392.9 819.6,383.9 		"/>
		<polygon class="st3" points="809.3,398.1 799.9,410.7 831,407.1 809.3,398.1 		"/>
		<polygon class="st3" points="851,341 841.6,353.6 872.7,350 851,341 		"/>
		<polygon class="st3" points="829.8,369.8 820.5,382.4 851.6,378.8 829.8,369.8 		"/>
		<polygon class="st3" points="799.1,412.3 789.8,425 820.9,421.4 799.1,412.3 		"/>
		<polygon class="st3" points="389.4,396.7 376,409 361.1,399.6 389.4,396.7 		"/>
		<polygon class="st3" points="356.2,427 342.8,439.2 327.9,429.8 356.2,427 		"/>
		<polygon class="st3" points="339.9,441.7 326.6,454 311.6,444.5 339.9,441.7 		"/>
		<polygon class="st3" points="405.8,381.9 392.4,394.1 377.5,384.7 405.8,381.9 		"/>
		<polygon class="st3" points="372,412.4 358.6,424.6 343.7,415.2 372,412.4 		"/>
		<polygon class="st3" points="323.5,456.6 310.2,468.9 295.2,459.4 323.5,456.6 		"/>
		<path class="st12" d="M331,323c0-6.3,0.9-11.5,2.8-15.8c1.4-3.1,3.3-6,5.7-8.4c2.4-2.5,5.1-4.3,8-5.5c3.8-1.6,8.3-2.4,13.3-2.4
			c9.1,0,16.3,2.8,21.8,8.4c5.5,5.6,8.2,13.5,8.2,23.5c0,10-2.7,17.7-8.1,23.3c-5.4,5.6-12.6,8.4-21.7,8.4c-9.2,0-16.5-2.8-21.9-8.4
			C333.7,340.5,331,332.8,331,323L331,323z M343.8,322.6c0,7,1.6,12.3,4.8,15.9c3.2,3.6,7.3,5.4,12.3,5.4c5,0,9-1.8,12.2-5.4
			c3.2-3.6,4.8-8.9,4.8-16.1c0-7.1-1.6-12.3-4.6-15.8c-3.1-3.5-7.2-5.2-12.3-5.2c-5.1,0-9.3,1.8-12.4,5.3
			C345.4,310.2,343.8,315.5,343.8,322.6L343.8,322.6z"/>
		<path class="st12" d="M328.2,583l12.1-1.2c0.7,4.1,2.2,7.1,4.4,9c2.2,1.9,5.2,2.9,9,2.9c4,0,7-0.8,9-2.6c2-1.7,3.1-3.7,3.1-5.9
			c0-1.5-0.4-2.7-1.3-3.7c-0.8-1-2.3-1.9-4.5-2.7c-1.4-0.5-4.8-1.4-10-2.7c-6.7-1.7-11.3-3.7-14-6.1c-3.8-3.4-5.7-7.5-5.7-12.4
			c0-3.1,0.9-6.1,2.7-8.8c1.8-2.7,4.3-4.8,7.7-6.2c3.4-1.4,7.4-2.1,12.1-2.1c7.7,0,13.6,1.7,17.5,5.1c3.9,3.4,6,7.9,6.2,13.6
			l-12.4,0.5c-0.5-3.2-1.7-5.5-3.4-6.8c-1.8-1.4-4.4-2.1-7.9-2.1c-3.6,0-6.5,0.7-8.5,2.2c-1.3,0.9-2,2.2-2,3.8
			c0,1.5,0.6,2.7,1.9,3.7c1.6,1.3,5.4,2.7,11.4,4.1c6,1.4,10.5,2.9,13.4,4.4c2.9,1.5,5.2,3.6,6.8,6.3c1.6,2.7,2.5,5.9,2.5,9.8
			c0,3.5-1,6.8-2.9,9.9c-2,3.1-4.7,5.4-8.3,6.9c-3.6,1.5-8.1,2.2-13.4,2.2c-7.8,0-13.8-1.8-17.9-5.4
			C331.5,595.2,329,589.9,328.2,583L328.2,583z"/>
	</g>
</g>
</svg>
