<?xml version="1.0" encoding="utf-8"?>
<!-- Generator: Adobe Illustrator 19.2.0, SVG Export Plug-In . SVG Version: 6.00 Build 0)  -->
<svg version="1.1" id="Livello_1" xmlns="http://www.w3.org/2000/svg" xmlns:xlink="http://www.w3.org/1999/xlink" x="0px" y="0px"
	 viewBox="0 0 960 960" style="enable-background:new 0 0 960 960;" xml:space="preserve">
<style type="text/css">
	.st0{fill-rule:evenodd;clip-rule:evenodd;fill:#FFFFFF;stroke:#1A171B;stroke-width:1.6467;stroke-miterlimit:2.6131;}
	.st1{fill-rule:evenodd;clip-rule:evenodd;fill:#008E43;stroke:#1A171B;stroke-width:1.6467;stroke-miterlimit:2.6131;}
	.st2{fill-rule:evenodd;clip-rule:evenodd;fill:#ECECED;stroke:#1A171B;stroke-width:1.6467;stroke-miterlimit:2.6131;}
	.st3{fill-rule:evenodd;clip-rule:evenodd;fill:#B0B2B3;stroke:#1A171B;stroke-width:1.6467;stroke-miterlimit:2.6131;}
	.st4{fill-rule:evenodd;clip-rule:evenodd;fill:#CECFD1;stroke:#1A171B;stroke-width:1.6467;stroke-miterlimit:2.6131;}
	.st5{fill-rule:evenodd;clip-rule:evenodd;fill:#1A171B;stroke:#1A171B;stroke-width:1.6467;stroke-miterlimit:2.6131;}
	.st6{fill-rule:evenodd;clip-rule:evenodd;fill:#FFEC00;stroke:#1A171B;stroke-width:2.7445;stroke-miterlimit:2.6131;}
	.st7{fill:none;stroke:#1A171B;stroke-width:1.6467;stroke-miterlimit:2.6131;}
	.st8{fill-rule:evenodd;clip-rule:evenodd;fill:#E1001A;stroke:#1A171B;stroke-width:1.6467;stroke-miterlimit:2.6131;}
	.st9{fill-rule:evenodd;clip-rule:evenodd;fill:#E1001A;}
	.st10{fill-rule:evenodd;clip-rule:evenodd;fill:#FFFFFF;stroke:#E1001A;stroke-width:5.4889;stroke-miterlimit:2.6131;}
	.st11{fill-rule:evenodd;clip-rule:evenodd;fill:#FFFFFF;}
	.st12{fill-rule:evenodd;clip-rule:evenodd;fill:#E7526B;stroke:#1A171B;stroke-width:1.6467;stroke-miterlimit:2.6131;}
	.st13{fill-rule:evenodd;clip-rule:evenodd;fill:#3D3D3F;stroke:#1A171B;stroke-width:1.6467;stroke-miterlimit:2.6131;}
	.st14{fill-rule:evenodd;clip-rule:evenodd;fill:#6F7072;stroke:#1A171B;stroke-width:1.6467;stroke-miterlimit:2.6131;}
	.st15{fill-rule:evenodd;clip-rule:evenodd;fill:#FFFFFF;stroke:#FFFFFF;stroke-width:1.6467;stroke-miterlimit:2.6131;}
	.st16{fill-rule:evenodd;clip-rule:evenodd;fill:#868789;stroke:#1A171B;stroke-width:1.6467;stroke-miterlimit:2.6131;}
	.st17{fill-rule:evenodd;clip-rule:evenodd;fill:#1A171B;}
</style>
<g>
	<g>
		<polygon class="st0" points="45,170.5 915,170.5 915,789.5 45,789.5 45,170.5 		"/>
		<polygon class="st1" points="524.3,667.4 716.6,789.5 410.7,789.5 524.3,667.4 		"/>
		<polygon class="st2" points="138.8,397.4 45,344.6 45,444.6 138.8,397.4 		"/>
		<polygon class="st1" points="158.5,170.5 454.5,263.1 648,170.5 158.5,170.5 		"/>
		<polygon class="st2" points="915,371.7 815.4,352 915,261.7 915,371.7 		"/>
		<path class="st3" d="M253,789.5l223.2-193.9c36.3-32.2,41.2-30.8,90.1-10.8L915,781.7V425.2l-159.6-45.2
			c-20.8-8-18.6-17.2-3.8-31.4L915,202.9v-32.4H736L492.7,289.4c-34,18.3-59.1,8.7-99-5.5L69.2,170.5H45v126.6l149.3,78.1
			c33.8,13.1,37.5,33.2,16.3,46.2L45,514.6v274.9H253L253,789.5z"/>
		<path class="st4" d="M252.7,789.5L473.8,598c37.1-34,43.2-34,93.2-12.9L915,780.9v-349l-158.2-46.4c-20.8-8-24-18.5-9.2-32.8
			L915,203.1v-32.6H747.2L491.3,296.2c-34,18.3-59.1,8.7-98.9-5.5L54.9,170.5H45v127.3l153.4,78.7c33.8,13.1,33.5,38.6,12.3,51.6
			L45,522.7v266.8H252.7L252.7,789.5z"/>
		<path class="st5" d="M472.8,642.8L472.8,642.8c1.8,0,3.3-2,3.3-4.4l0.1-157c0-2.4-1.5-4.4-3.3-4.4c-1.8,0-3.3,2-3.3,4.4
			l-0.1,156.9C469.5,640.8,471,642.8,472.8,642.8L472.8,642.8z"/>
		<path class="st0" d="M473.9,432.6c6.5,9.7,13.1,19.4,19.8,29.3c6.7,10,13.6,20,20.5,30.2c-7.7,5-15.2,9.7-22.5,14.4
			c-7,4.5-13.9,8.9-20.5,13.2c-6.1-9.4-12.1-18.8-18.1-28.1c-5.9-9.2-11.8-18.3-17.5-27.3c6-4.9,12.1-10,18.4-15.2
			C460.3,443.8,467,438.3,473.9,432.6L473.9,432.6z"/>
		<path class="st6" d="M473.3,450.2c3.9,5.9,7.9,11.9,11.9,17.8c4,6,8.1,12.1,12.2,18.2c-4.5,3-8.9,6-13.3,9
			c-4.3,2.9-8.4,5.7-12.6,8.5c-3.8-5.8-7.6-11.7-11.3-17.4c-3.7-5.7-7.4-11.4-11.1-17.1c3.8-3,7.8-6.1,11.7-9.2
			C465,456.8,469.1,453.6,473.3,450.2L473.3,450.2z"/>
		<path class="st7" d="M475.7,438.7c5.4,8,10.9,16.2,16.4,24.4c5.6,8.3,11.2,16.6,16.9,25c1.1,1.7,1,3.7-0.3,4.6
			c-6.3,4.1-12.4,8.1-18.4,12c-5.9,3.8-11.6,7.5-17.1,11.1c-1.1,0.7-2.8,0-3.8-1.6c-5.1-7.9-10.1-15.7-15.1-23.4
			c-4.9-7.7-9.9-15.3-14.7-22.8c-1-1.5-0.9-3.4,0.1-4.2c5-4.1,10.2-8.3,15.5-12.6c5.4-4.4,10.9-8.9,16.6-13.6
			C472.8,436.6,474.6,437.1,475.7,438.7L475.7,438.7z"/>
		<polygon class="st1" points="139.8,645.6 229,712.1 222,741.1 131.9,680.5 139.8,645.6 		"/>
		<path class="st1" d="M136.9,646.1l32.7-21.9l23.1-24.5c32.1-27.2,58.6-39.7,87.8-51.3l33.8,0.5c10.7-7.4,25.8-15.2,40.4-17.7
			c8.3-1.7,68,24.5,69.9,34.3l-42.8,25.4l-127.1,99.4l-32.3,21.1C190.6,695.8,161.4,669.6,136.9,646.1L136.9,646.1z"/>
		<path class="st0" d="M192.9,600.3c18.2,15.5,42.5,33.8,68.9,44.7l-8.4,40.2c-32.9-17.6-61-38.2-83.7-61L192.9,600.3L192.9,600.3z"
			/>
		<polygon class="st0" points="271.3,643.6 308.8,617.3 317.4,641.2 269.6,678.7 271.3,643.6 		"/>
		<polygon class="st0" points="314.9,612.6 340.9,593.9 380.9,591.5 325.3,634.8 314.9,612.6 		"/>
		<path class="st0" d="M279.5,549.1L312,549c26.7,9.5,47.8,23.7,66.9,39.5c-12.1,0-22.5,0.2-34.6,0.2
			C326.8,573.7,302.4,559.1,279.5,549.1L279.5,549.1z"/>
		<path class="st1" d="M424.9,565c4.4,3.6,5,9.5,5.3,14.2L243.8,730.8c-5.1,2.5-19.3,5.8-21.9,4.1l1.8-23.8l30.7-20.8l69.3-54.1
			l57.6-45L424.9,565L424.9,565z"/>
		<path class="st1" d="M429.5,579.6c1,5.6-2.1,11.5-7.3,19.9L252.6,739.8c-7.5,5.2-20,9.3-26.7,9.4c-24.2,0.8-85-49.7-94.2-61.3
			c-4.3-4.9-5.8-14.3-3.6-20.7c24.2,24.4,52.1,44.5,80.7,63.2c4.5,1.5,8.7,3.1,13.3,4.7c22.9,1.8,31.3-14.2,45.8-23.3l71.3-58.3
			l57.3-46.6L429.5,579.6L429.5,579.6z"/>
		<path class="st8" d="M214.1,707.4l8.4,4c1.1,6.5,0.5,15.5-0.9,23.4c-5.2-0.4-9.4-2.7-14.9-5.9L214.1,707.4L214.1,707.4z"/>
		<path class="st8" d="M136.2,646.1l4.7,4.2l-3.9,26.1l-9.1-8.7C128.6,660.9,131.1,650.2,136.2,646.1L136.2,646.1z"/>
		<polygon class="st0" points="158,674.9 187.4,699 185.9,710.7 157.6,688.5 158,674.9 		"/>
		<path class="st5" d="M399.6,598c8.9,2.2,13.1,13,9.2,24.2c-3.8,11.2-14.2,18.5-23.1,16.4c-8.9-2.2-13-13-9.2-24.2
			C380.3,603.2,390.7,595.8,399.6,598L399.6,598z"/>
		<path class="st0" d="M396.9,608.2c4.4,1.4,6.2,7,3.8,12.6c-2.3,5.6-7.8,9-12.2,7.6c-4.4-1.4-6.2-7-3.8-12.6
			C387,610.2,392.4,606.8,396.9,608.2L396.9,608.2z"/>
		<path class="st5" d="M285.2,694.2c9.8,2.2,13.5,14.2,8.3,26.7c-5.2,12.6-17.4,21-27.2,18.9c-9.7-2.2-13.5-14.2-8.3-26.7
			C263.2,700.5,275.5,692.1,285.2,694.2L285.2,694.2z"/>
		<path class="st0" d="M280.7,705.1c5.1,1.1,7,7.4,4.3,13.9c-2.7,6.5-9.1,11-14.2,9.8c-5.1-1.1-7-7.4-4.3-13.9
			C269.2,708.4,275.6,704,280.7,705.1L280.7,705.1z"/>
		<path class="st5" d="M788.3,374.3L788.3,374.3c1.4,0,2.5-1.1,2.6-2.5l2.1-88.7c0-1.4-1.1-2.5-2.4-2.6c-1.4,0-2.5,1.1-2.6,2.5
			l-2.1,88.7C785.8,373.2,786.9,374.3,788.3,374.3L788.3,374.3z"/>
		<path class="st0" d="M803.1,228.3c1.6-1.3,2.7,0.4,2.6,4c0,0.2,0,0.4,0,0.6c0,0.2,0,0.4-0.1,0.6c0,0.2-0.1,0.4-0.1,0.6
			c-2,11-4,21.9-5.9,32.5c-1.9,10.5-3.8,20.8-5.6,31c-0.6,2.8-1.5,5-2.9,5.3c-0.6,0-1-0.3-1.3-0.9c-3.1-5.2-6.4-10.7-9.7-16.3
			c-3.5-5.9-7.2-12-11-18.5c-0.9-1.6-1.4-3.7-0.6-6.6c0.6-2.2,1.5-3.2,2.6-4.2c5.6-4.9,11.1-9.7,16.4-14.4
			c5.2-4.6,10.3-9.1,15.3-13.5C802.9,228.5,803,228.4,803.1,228.3L803.1,228.3z"/>
		<path class="st9" d="M803,230.1c0.5-0.4,0.9-0.9,1.4-0.6c0.5,0.3,1,1.8,0.6,4.4c-2,11.2-4,22.1-6,32.9
			c-1.9,10.6-3.8,21.1-5.7,31.3c-0.6,3.4-2.1,4.9-3.1,3.2c-3.1-5.3-6.4-10.8-9.8-16.5c-3.5-6-7.2-12.2-11.1-18.7
			c-0.5-0.9-1-2.3-0.7-3.9c0.4-2.2,1.3-3,2.2-3.8c5.7-5,11.2-9.9,16.6-14.7C792.8,239.1,798,234.5,803,230.1L803,230.1z"/>
		<path class="st10" d="M801.3,238.3c-1.7,9.6-3.4,19-5.1,28.3c-1.7,9.1-3.3,18.2-4.9,27.1c-2.7-4.7-5.4-9.5-8.3-14.5
			c-3-5.2-6-10.5-9.2-16.1c4.8-4.3,9.6-8.6,14.2-12.8C792.5,246.2,797,242.2,801.3,238.3L801.3,238.3z"/>
		<polygon class="st11" points="642.5,458.5 915,576.1 915,586.8 635.6,463.8 642.5,458.5 		"/>
		<polygon class="st11" points="721.4,397.1 707.4,407.9 742.2,413.6 721.4,397.1 		"/>
		<polygon class="st11" points="690.1,421.2 676.1,432 710.9,437.8 690.1,421.2 		"/>
		<polygon class="st11" points="674.5,433.4 660.5,444.2 695.3,449.9 674.5,433.4 		"/>
		<polygon class="st11" points="737.4,384.5 723.3,395.3 758.1,401.1 737.4,384.5 		"/>
		<polygon class="st11" points="705.5,409.2 691.5,419.9 726.3,425.7 705.5,409.2 		"/>
		<polygon class="st11" points="659.1,445.7 645,456.5 679.8,462.2 659.1,445.7 		"/>
		<polygon class="st11" points="45,215.3 329.3,341.3 321.3,345.1 45,221.7 45,215.3 		"/>
		<polygon class="st11" points="299.9,355.4 283.5,363.6 271.7,350.3 299.9,355.4 		"/>
		<polygon class="st11" points="259.3,375.4 242.9,383.6 231.1,370.2 259.3,375.4 		"/>
		<polygon class="st11" points="239.4,385.1 223,393.3 211.2,379.9 239.4,385.1 		"/>
		<polygon class="st11" points="319.9,345.7 303.5,353.8 291.7,340.5 319.9,345.7 		"/>
		<polygon class="st11" points="278.6,365.7 262.3,373.8 250.5,360.5 278.6,365.7 		"/>
		<polygon class="st8" points="888.1,428 834.5,478 840.2,505.9 892.8,454.5 888.1,428 		"/>
		<path class="st8" d="M890.9,427.6l-21.4-11l-22.9-18.4c-29.2-13.6-65.1-20.1-87.1-21.6l-17.8,9.7c-12.1-1.4-24.7-2.6-36.2-2.3
			c-6.5,0.3-51.7,25.9-51.4,33.5l36.5,10.5l112.5,49.1l27.9,9.4C852.4,468.7,876.5,449.9,890.9,427.6L890.9,427.6z"/>
		<path class="st0" d="M846.5,398.4c-11,15.1-28.5,22.5-46.5,35.8l18.7,29.3c21.7-11.2,38.3-26.4,51.1-46.5L846.5,398.4L846.5,398.4
			z"/>
		<polygon class="st0" points="793,436 757.9,423.1 758.2,446.2 804.6,463.8 793,436 		"/>
		<path class="st0" d="M749.5,420l-22.2-6.3c-5.9-0.2-18.9,2.3-27,10.3l49.4,19.6L749.5,420L749.5,420z"/>
		<path class="st0" d="M754,379.3l-12.3,7.3c-18.5,12.3-28.5,20-41.8,34.2c9.4-6.7,7.1-5.3,14.1-9.3
			C724.7,396.9,736.4,390.2,754,379.3L754,379.3z"/>
		<path class="st8" d="M653.8,417.3c-2.7,3.5-2.1,8.1-1.6,11.6l166.1,76.2c4.2,0.9,15.5,0.5,17.2-1.3l-4.8-17.3l-27.3-9.4
			l-61.3-26.7l-51-22.2L653.8,417.3L653.8,417.3z"/>
		<path class="st8" d="M652.8,429.1c0.2,4.4,2.9,10.1,8.2,15.4L813,514.6c7.8,2.4,17,2,22,0.7c18.3-4.1,56.1-45.4,61-55.8
			c2.4-4.5,1.9-11.8-0.8-16.1c-14,22.9-32.2,35-50.6,54.6c-3.1,2-6,4-9.2,6.1c-16.9,5.9-26-4.4-38.4-8.3l-63.6-29.4l-51-23.4
			L652.8,429.1L652.8,429.1z"/>
		<path class="st12" d="M838.5,480.3l-7.1,6c-0.6,3.5-1.6,13.3,0.2,18.9c3.8-1.3,7.6-3.2,11.2-6.6L838.5,480.3L838.5,480.3z"/>
		<path class="st12" d="M891.2,428l-5.2,6.7l3,17.6l5.9-8.8C894.9,439.2,893.2,430.9,891.2,428L891.2,428z"/>
		<polygon class="st0" points="875.8,451.9 853.5,472.4 855.7,482.5 876.9,461.1 875.8,451.9 		"/>
		<path class="st5" d="M678.5,436.9c-6.3,3.4-7.6,12.3-2.8,19.8c4.8,7.6,13.8,11,20.2,7.7c6.3-3.4,7.6-12.3,2.8-19.8
			C693.9,437,684.8,433.5,678.5,436.9L678.5,436.9z"/>
		<path class="st0" d="M682.3,443.9c-3.1,1.9-3.4,6.4-0.7,10.1c2.7,3.7,7.4,5.2,10.5,3.3c3.1-1.9,3.4-6.4,0.7-10.1
			C690.1,443.5,685.4,442,682.3,443.9L682.3,443.9z"/>
		<path class="st5" d="M781,486.1c-7,3.5-7.7,13.2-1.6,21.5c6.1,8.3,16.7,12.2,23.6,8.7c7-3.5,7.7-13.2,1.6-21.5
			C798.5,486.5,787.9,482.6,781,486.1L781,486.1z"/>
		<path class="st0" d="M786.2,493.3c-3.6,1.8-4,6.9-0.8,11.2c3.2,4.3,8.7,6.4,12.3,4.5c3.6-1.8,4-6.9,0.9-11.2
			C795.4,493.5,789.9,491.5,786.2,493.3L786.2,493.3z"/>
		<polygon class="st7" points="749.7,419.9 758.8,423.8 753.7,421.6 753.7,475.9 753.7,421.6 758.8,423.8 749.7,419.9 		"/>
		<path class="st13" d="M142.4,222.4l65.5,19.6l22.7-6.8l31.4,7.8l21.1,28.9c4.6,7.2,10.6,16.3,14.7,35.2
			c-17.3,21.1-51.5,38.3-76.7,39.7L63.9,269l-0.2-27.2L142.4,222.4L142.4,222.4z"/>
		<path class="st14" d="M63.8,268.4l145.7,73.1c4.3,2.8,10.3,4.5,16.9,3.7c24.5-3.1,64.5-26.5,71.3-38.6c3.9,6.9,1.1,11.5-4.9,17.6
			c-13.1,11.2-39.4,26.5-63,30.4c-11.7,2-23.2-2.6-38.9-6.9L73.2,288.1C65.7,285.1,64.2,275.3,63.8,268.4L63.8,268.4z"/>
		<path class="st0" d="M197,274c23-6.9,45.6-14.9,63-27.1l18.7,25.1c-18.9,16.5-40.4,25.7-70.1,35.5L197,274L197,274z"/>
		<polygon class="st0" points="168.8,268.4 188.4,276.7 199.2,307.3 169,294.5 168.8,268.4 		"/>
		<polygon class="st0" points="143.3,226.9 143.6,250.7 108.2,260.5 72.7,244.1 143.3,226.9 		"/>
		<polygon class="st0" points="163.7,260.6 145.4,254.2 113.4,263.1 163.6,286.3 163.7,260.6 		"/>
		<polygon class="st0" points="146.3,228.1 146,250.7 167.6,257.4 201.9,244.7 146.3,228.1 		"/>
		<path class="st15" d="M218.1,329.1c0.3-2.2,2.1-3,2.8-3.1c4.7-0.9,7.7,0.3,12.3-0.6c1.4,1.9,2.6,6.6,2.3,8.6
			c-7,3.4-9.4,4.2-16.1,4.3C217.8,336.4,217.8,333.7,218.1,329.1L218.1,329.1z"/>
		<path class="st15" d="M294.1,301.6c-3.5,1.7-4.7,4.4-9.8,7.2c-2-2.9-2.4-4.8-2.7-7.4c0.2-1.4,2.9-5.1,8.6-10.5
			C291.9,294.5,293.6,298,294.1,301.6L294.1,301.6z"/>
		<path class="st16" d="M244.7,320.2l27.3-14.6l5.5,9.4c-7.9,7.5-19.1,13.8-30.7,17L244.7,320.2L244.7,320.2z"/>
		<path class="st5" d="M83.6,273.1c7.7-1.2,16,6.5,18.6,17.2c2.6,10.7-1.5,20.4-9.2,21.6c-7.7,1.2-16-6.5-18.6-17.2
			C71.7,284,75.9,274.3,83.6,273.1L83.6,273.1z"/>
		<path class="st0" d="M85.7,283.8c3.4-0.6,7.2,3.1,8.3,8.2c1.2,5.1-0.7,9.7-4.1,10.3c-3.4,0.6-7.2-3.1-8.3-8.2
			C80.4,289,82.2,284.4,85.7,283.8L85.7,283.8z"/>
		<path class="st5" d="M175,316.1c9.1-0.9,18,7.5,19.9,18.6c1.8,11.1-4.1,20.9-13.2,21.8c-9.1,0.9-18.1-7.5-19.9-18.6
			C159.9,326.8,165.9,317,175,316.1L175,316.1z"/>
		<path class="st0" d="M175.4,326.4c4.1-0.4,8.1,3.7,9,9.2c0.8,5.5-1.9,10.3-6,10.7c-4.1,0.4-8.2-3.7-9-9.2
			C168.6,331.6,171.3,326.8,175.4,326.4L175.4,326.4z"/>
		<polygon class="st7" points="67.8,246.8 163.9,292.2 163.7,317.1 163.9,292.2 67.8,246.8 		"/>
		<path class="st5" d="M163.7,376.6L163.7,376.6c1.4-0.1,2.5-1.2,2.4-2.6l-3.9-88.7c-0.1-1.4-1.2-2.5-2.6-2.4
			c-1.4,0.1-2.5,1.2-2.4,2.6l3.9,88.7C161.1,375.6,162.3,376.7,163.7,376.6L163.7,376.6z"/>
		<path class="st2" d="M175,228.6c1.4-0.5,2.1,1.6,1.8,4.8c0,0.2,0,0.3-0.1,0.5c0,0.2-0.1,0.4-0.1,0.6c0,0.2-0.1,0.4-0.1,0.5
			c-2.3,9.3-4.6,18.6-6.8,27.8c-2.3,9.2-4.6,18.5-6.8,27.7c-0.7,2.5-1.7,4.6-3,5c-0.5,0-0.9-0.2-1.2-0.8c-2.7-4.9-5.8-10.3-9.1-16.2
			c-3.7-6.7-7.9-14.2-12.7-22.7c-1.1-2.2-1.7-4.9-0.5-8.1c1-2.4,2.3-3.2,3.8-3.9c7.4-3.2,14.1-6.1,20-8.7c5.3-2.3,10.2-4.5,14.6-6.4
			C174.8,228.6,174.9,228.6,175,228.6L175,228.6z"/>
		<path class="st17" d="M772,590h-13.5l-5.4-14h-24.6l-5.1,14h-13.2l24-61.6h13.1L772,590L772,590z M749.1,565.6l-8.5-22.8
			l-8.3,22.8H749.1L749.1,565.6z"/>
		<polygon class="st17" points="167,559.4 167,497.9 212.7,497.9 212.7,508.3 179.5,508.3 179.5,521.9 210.4,521.9 210.4,532.3 
			179.5,532.3 179.5,549.1 213.9,549.1 213.9,559.4 167,559.4 		"/>
		<polygon class="st17" points="341.5,363.2 341.5,301.6 354,301.6 354,325.9 378.3,325.9 378.3,301.6 390.7,301.6 390.7,363.2 
			378.3,363.2 378.3,336.3 354,336.3 354,363.2 341.5,363.2 		"/>
	</g>
</g>
</svg>
