<?xml version="1.0" encoding="utf-8"?>
<!-- Generator: Adobe Illustrator 19.2.0, SVG Export Plug-In . SVG Version: 6.00 Build 0)  -->
<svg version="1.1" id="Livello_1" xmlns="http://www.w3.org/2000/svg" xmlns:xlink="http://www.w3.org/1999/xlink" x="0px" y="0px"
	 viewBox="0 0 960 960" style="enable-background:new 0 0 960 960;" xml:space="preserve">
<style type="text/css">
	.st0{fill-rule:evenodd;clip-rule:evenodd;fill:#FFFFFF;stroke:#1A171B;stroke-width:1.6466;stroke-miterlimit:2.6131;}
	.st1{fill-rule:evenodd;clip-rule:evenodd;fill:#008E43;stroke:#1A171B;stroke-width:1.6466;stroke-miterlimit:2.6131;}
	.st2{fill-rule:evenodd;clip-rule:evenodd;fill:#F5F5F6;stroke:#1A171B;stroke-width:1.6466;stroke-miterlimit:2.6131;}
	.st3{fill-rule:evenodd;clip-rule:evenodd;fill:#B0B2B3;stroke:#1A171B;stroke-width:1.6466;stroke-miterlimit:2.6131;}
	.st4{fill-rule:evenodd;clip-rule:evenodd;fill:#CECFD1;stroke:#1A171B;stroke-width:1.6466;stroke-miterlimit:2.6131;}
	.st5{fill-rule:evenodd;clip-rule:evenodd;fill:#1A171B;stroke:#1A171B;stroke-width:1.6466;stroke-miterlimit:2.6131;}
	
		.st6{fill:none;stroke:#1A171B;stroke-width:5.4886;stroke-linecap:square;stroke-miterlimit:2.6131;stroke-dasharray:27.4431,27.4431;}
	.st7{fill-rule:evenodd;clip-rule:evenodd;fill:#3D3D3F;stroke:#1A171B;stroke-width:1.6466;stroke-miterlimit:2.6131;}
	.st8{fill-rule:evenodd;clip-rule:evenodd;fill:#58585A;stroke:#1A171B;stroke-width:1.6466;stroke-miterlimit:2.6131;}
	.st9{fill-rule:evenodd;clip-rule:evenodd;fill:#3D3D3F;}
	.st10{fill-rule:evenodd;clip-rule:evenodd;fill:#E1001A;stroke:#1A171B;stroke-width:1.6466;stroke-miterlimit:2.6131;}
	.st11{fill-rule:evenodd;clip-rule:evenodd;fill:#E7526B;stroke:#1A171B;stroke-width:1.6466;stroke-miterlimit:2.6131;}
	.st12{fill:none;stroke:#1A171B;stroke-width:1.6466;stroke-miterlimit:2.6131;}
	.st13{fill-rule:evenodd;clip-rule:evenodd;fill:#00A7DC;stroke:#1A171B;stroke-width:1.6466;stroke-miterlimit:2.6131;}
	.st14{fill-rule:evenodd;clip-rule:evenodd;fill:#00A7D8;stroke:#1A171B;stroke-width:1.6466;stroke-miterlimit:2.6131;}
	.st15{fill-rule:evenodd;clip-rule:evenodd;fill:#B4CAD5;stroke:#1A171B;stroke-width:1.6466;stroke-miterlimit:2.6131;}
	.st16{fill-rule:evenodd;clip-rule:evenodd;fill:#4F648A;stroke:#1A171B;stroke-width:1.6466;stroke-miterlimit:2.6131;}
	.st17{fill-rule:evenodd;clip-rule:evenodd;fill:#1A171B;}
</style>
<g>
	<g>
		<polygon class="st0" points="45,170.5 914.9,170.5 914.9,789.5 45,789.5 45,170.5 		"/>
		<polygon class="st1" points="509.9,662.3 710.1,789.5 391.5,789.5 509.9,662.3 		"/>
		<polygon class="st1" points="136.8,401.1 45,349.4 45,447.2 136.8,401.1 		"/>
		<polygon class="st2" points="120.9,170.5 442.4,271 652.3,170.5 120.9,170.5 		"/>
		<path class="st3" d="M236.9,789.5l226.4-196.6c35.2-31.1,39.9-29.8,87.2-10.5L915,788.2l-0.1-91.3V435.6l-181.4-51.4
			c-20.1-7.8-18-16.6-3.7-30.4l185.1-165.1v-18.2H737.1l-257.8,126c-32.9,17.8-57.2,8.4-95.8-5.4L45,172.9v130.5l145.5,76.1
			c32.7,12.7,36.3,32.1,15.8,44.7L45,515.1v274.4H236.9L236.9,789.5z"/>
		<path class="st4" d="M236.6,789.5L461,595.1c35.9-32.9,41.8-32.9,90.2-12.5l363.7,205.6l0-79.1V442.3l-180.1-52.8
			c-20.1-7.8-23.2-17.9-8.9-31.7l189-168.8v-18.4H747.8L478,303.1c-32.9,17.8-57.2,8.4-95.8-5.4L45,177.7v126.4l149.4,76.7
			c32.7,12.7,32.4,37.4,11.9,49.9L45,522.9v266.6H236.6L236.6,789.5z"/>
		<polygon class="st5" points="577.4,396.7 602.7,412 606.8,399.6 577.4,396.7 		"/>
		<line class="st6" x1="733" y1="448.4" x2="606.9" y2="406.3"/>
		<polygon class="st5" points="432,373.1 460.2,364.3 453.6,352.9 432,373.1 		"/>
		<line class="st6" x1="573.7" y1="290.7" x2="458.7" y2="357.4"/>
		<path class="st7" d="M645.4,204.4l-18.8,5.2l55.5,23.9l-55.6-23.8l-4.9-0.7l-6.8,1.4l-37.5,20.2l-9.1,6.6l-18.8,25.4
			c-12.7,6.7-24,15.7-31.7,23.5c12,21.2,38,30.6,59.3,33.6l5.4-0.6l8.9-5.3l116.6-73.2c0-4.4-2.8-19.8-8.8-16.5l-12.4,6.8
			c1.5-1.1,9.6-5,12.3-6.9c0.7-0.5,1.6-0.6,0.8-1.1C688.4,215.6,661.9,206.4,645.4,204.4L645.4,204.4z"/>
		<path class="st8" d="M707.9,240.2l-124.9,78.5l-6.1,1.6l-5.7-3.4l30.4-29L571,317.1c-1.6,1.5-11.5-0.6-11.7-0.7
			c-14.8-5.2-33.2-16.1-41.9-30c-3.5,4.6-0.2,12.4,3,17.9c7.4,11.7,27.3,21.6,47.9,27c12.9,0.1,15.4-3.3,28.6-8.3l106.4-66.1
			C708.2,253.7,708.3,245.7,707.9,240.2L707.9,240.2z"/>
		<polygon class="st9" points="578.3,307 559.2,302.8 558.9,316.3 581.3,316.6 578.3,307 		"/>
		<path class="st0" d="M607.7,255.9c-16.7-3.3-27.6-7.9-40.8-16l-16.3,22.2c14.7,11.4,30.5,16.8,52.2,21.7L607.7,255.9L607.7,255.9z
			"/>
		<polygon class="st0" points="638.6,241.2 612.2,257 609.3,279.3 645.7,256 638.6,241.2 		"/>
		<polygon class="st0" points="659.4,228.1 643.4,237.7 651.5,252.8 678.2,236.5 659.4,228.1 		"/>
		<path class="st0" d="M578.1,313.9c-0.6-1.7-3-2-3.8-2c-6,0.1-11.3,0.3-17.3,0.4c-1.6,1.8-1.4,3.6-0.7,5.1c6.9,2.8,14,4,21.2,5.1
			C579.3,320.6,578.9,317.5,578.1,313.9L578.1,313.9z"/>
		<path class="st0" d="M516.4,288.2c1.1,2.7,8.9,10.8,12.3,12.1c1.9-0.2,3.3-2.9,2.8-4.2c-3.3-5.3-6-9.1-9.1-14.5
			C520.2,283,517.3,285.5,516.4,288.2L516.4,288.2z"/>
		<polygon class="st0" points="546.1,314.9 532.3,307 532.5,311.9 546.5,320.5 546.1,314.9 		"/>
		<path class="st5" d="M690.3,245c-5.4-0.3-10.3,6.9-11.1,16.1c-0.7,9.2,3.1,16.9,8.4,17.2c5.4,0.3,10.3-6.9,11.1-16.1
			C699.4,253,695.6,245.3,690.3,245L690.3,245z"/>
		<path class="st0" d="M689.6,253.2c-2.7-0.2-5.2,3.5-5.6,8.2c-0.4,4.7,1.5,8.6,4.3,8.8c2.7,0.2,5.2-3.5,5.6-8.2
			C694.3,257.3,692.4,253.3,689.6,253.2L689.6,253.2z"/>
		<path class="st5" d="M611.8,294.9c-5.8,0.1-10.6,7.4-10.7,16.3c-0.1,8.9,4.5,16.1,10.3,16c5.8-0.1,10.6-7.4,10.7-16.3
			C622.2,301.9,617.6,294.8,611.8,294.9L611.8,294.9z"/>
		<path class="st0" d="M611.7,303c-2.8,0-5.2,3.7-5.3,8c-0.1,4.4,2.2,7.9,5.1,7.9c2.9-0.1,5.2-3.7,5.3-8
			C616.8,306.5,614.5,303,611.7,303L611.7,303z"/>
		<polygon class="st10" points="898.3,451.1 845,500.9 850.8,528.6 903.1,477.4 898.3,451.1 		"/>
		<path class="st10" d="M901.2,450.7l-21.3-10.9L857,421.5c-29-13.6-64.8-20-86.6-21.5l-17.8,9.7c-12-1.4-24.6-2.6-36-2.3
			c-6.5,0.3-51.4,25.8-51.2,33.4l36.3,10.5l112,48.8l27.8,9.3C862.8,491.5,886.9,472.9,901.2,450.7L901.2,450.7z"/>
		<path class="st0" d="M857,421.6c-11,15-28.4,22.4-46.3,35.6l18.6,29.1c21.6-11.1,38.1-26.2,50.8-46.2L857,421.6L857,421.6z"/>
		<polygon class="st0" points="803.7,459 768.8,446.2 769.1,469.3 815.3,486.7 803.7,459 		"/>
		<path class="st0" d="M760.5,443.2l-22.1-6.2c-5.8-0.2-18.8,2.3-26.9,10.3l49.2,19.5L760.5,443.2L760.5,443.2z"/>
		<path class="st0" d="M764.9,402.6l-12.2,7.3c-18.4,12.2-28.3,19.9-41.6,34c9.4-6.7,7-5.2,14.1-9.3
			C735.8,420.1,747.4,413.5,764.9,402.6L764.9,402.6z"/>
		<path class="st10" d="M665.3,440.4c-2.7,3.5-2.1,8-1.6,11.6L829,527.9c4.2,0.9,15.4,0.5,17.1-1.3l-4.7-17.3l-27.2-9.4l-61-26.5
			l-50.8-22.1L665.3,440.4L665.3,440.4z"/>
		<path class="st10" d="M664.3,452.1c0.2,4.4,2.9,10.1,8.2,15.3l151.2,69.8c7.8,2.4,16.9,2,21.9,0.7c18.3-4.1,55.8-45.1,60.7-55.5
			c2.4-4.4,1.9-11.7-0.8-16.1c-13.9,22.8-32.1,34.8-50.3,54.3c-3.1,2-6,4-9.1,6c-16.8,5.8-25.8-4.4-38.2-8.3l-63.3-29.3l-50.8-23.3
			L664.3,452.1L664.3,452.1z"/>
		<path class="st11" d="M849,503.1l-7.1,5.9c-0.6,3.4-1.6,13.3,0.2,18.8c3.8-1.3,7.6-3.1,11.2-6.6L849,503.1L849,503.1z"/>
		<path class="st11" d="M901.5,451.1l-5.2,6.7l3,17.5l5.9-8.8C905.1,462.3,903.5,454,901.5,451.1L901.5,451.1z"/>
		<polygon class="st0" points="886.1,474.9 864,495.3 866.1,505.3 887.3,484.1 886.1,474.9 		"/>
		<path class="st5" d="M689.8,459.9c-6.3,3.3-7.5,12.2-2.8,19.7c4.8,7.5,13.8,11,20.1,7.6c6.3-3.3,7.5-12.2,2.8-19.7
			C705.1,460,696.1,456.6,689.8,459.9L689.8,459.9z"/>
		<path class="st0" d="M693.6,466.9c-3.1,1.9-3.4,6.4-0.7,10.1s7.4,5.2,10.4,3.3c3.1-1.9,3.4-6.4,0.7-10.1
			C701.4,466.5,696.7,465.1,693.6,466.9L693.6,466.9z"/>
		<path class="st5" d="M791.8,508.9c-6.9,3.5-7.7,13.1-1.6,21.4c6,8.3,16.6,12.2,23.5,8.7c6.9-3.5,7.7-13.1,1.6-21.4
			C809.3,509.3,798.7,505.4,791.8,508.9L791.8,508.9z"/>
		<path class="st0" d="M797,516.1c-3.6,1.8-4,6.8-0.8,11.2c3.1,4.3,8.6,6.4,12.3,4.5c3.6-1.8,4-6.8,0.9-11.2
			C806.1,516.3,800.6,514.3,797,516.1L797,516.1z"/>
		<polygon class="st12" points="760.7,443.1 769.8,446.9 764.6,444.8 764.6,498.7 764.6,444.8 769.8,446.9 760.7,443.1 		"/>
		<polygon class="st5" points="528,448.7 501.3,461.3 509.4,471.6 528,448.7 		"/>
		<line class="st6" x1="399.1" y1="549.9" x2="503.7" y2="467.9"/>
		<path class="st7" d="M388,574.6l12.7-0.1c7.5-0.1,15.5,26.9,9.4,36.2L395,633.3l-10-0.4c-11.5-0.5-16.7-15.8-16.3-32.2
			C369.1,585.5,378.9,574.6,388,574.6L388,574.6z"/>
		<path class="st7" d="M399.4,576.3c10.2,0,17,11.6,15.8,27.6c-1.1,16-8.9,29.1-19,29.1c-10.2,0-17.5-13.4-16.4-29.4
			C380.9,587.7,389.3,576.3,399.4,576.3L399.4,576.3z"/>
		<path class="st0" d="M399.4,588c4.9,0,8.5,7,7.8,15.7c-0.6,8.6-5.1,15.7-10,15.7c-4.9,0-8.5-7-7.9-15.7
			C389.9,595,394.4,588,399.4,588L399.4,588z"/>
		<path class="st7" d="M252.6,677.5l14.2-0.1c8.4-0.1,18.5,30.6,11.3,40.6l-17.7,24.5l-15-0.6c-12.4-0.5-16-20.5-16.3-37.3
			C228.9,687.8,242.3,677.5,252.6,677.5L252.6,677.5z"/>
		<path class="st7" d="M268.1,679.2c11.4,0,18.3,12.9,17.3,30.9c-0.9,18-12.8,32.4-24.2,32.4c-11.4,0-20-13.8-19.1-31.8
			C243.1,692.7,256.7,679.2,268.1,679.2L268.1,679.2z"/>
		<path class="st0" d="M265.6,692.6c5.5,0,9.6,7.9,9.1,17.6c-0.5,9.7-5.4,17.6-11,17.6c-5.5,0-9.6-7.9-9.1-17.6
			C255.2,700.5,260.1,692.6,265.6,692.6L265.6,692.6z"/>
		<path class="st13" d="M294.2,426.8c0.9,0,6.8-1.5,8.9-1.1c19.9,3.4,86.6,24.4,90.6,27.9c5.7,1.9,10.3,5.5,13.7,9.1l25,33.6
			c3.4,4.9,7.4,12.1,7.4,19.3l0,38.7L408.9,580l-10.2-5.5l-16.9,1.5l-16.2,23.9l0-43.3l-121.5-55.9v-44c0.4-2.7,1.2-4.6,4-5.6
			L294.2,426.8L294.2,426.8z"/>
		<polygon class="st14" points="244,500.9 365.5,556.8 365.6,601.1 273,676.6 248.2,680 236,706.6 190.7,740.6 63.6,659.9 
			61.6,617.8 244,500.9 		"/>
		<polygon class="st0" points="244.4,506.2 355.3,558 189.2,688 71,617.7 244.4,506.2 		"/>
		<polygon class="st15" points="245.5,536.6 330.3,577.9 189.2,688 100.2,635 245.5,536.6 		"/>
		<polygon class="st12" points="245.2,536.7 244.3,507 245.2,536.7 		"/>
		<polygon class="st12" points="365.5,556.8 190.3,695.7 62.3,618.5 190.3,695.4 365.5,556.8 		"/>
		<path class="st0" d="M254.8,463l94.8,37.5c2.1,0.8,4,1.8,4.1,4.1l0.6,27.4c0,2.2-2,5-4.1,4.1l-95.4-42.8c-2-0.9-4.1-1.8-4.1-4.1
			v-22.1C250.7,464.9,252.7,462.2,254.8,463L254.8,463z"/>
		<path class="st0" d="M366.1,495.9l34.6-27.1l20.3,28c2.6,2,2.9,4.6,0.9,7l-54.1,41.6L366.1,495.9L366.1,495.9z"/>
		<path class="st12" d="M247.8,452l104.1,40.5c4.9,1.4,8.3-0.3,10.2-2.7l39.8-31.7l-39.8,31.7c-1.9,2.4-5.3,4.1-10.2,2.7L247.8,452
			L247.8,452z"/>
		<path class="st16" d="M350.3,610.4l15-12.2c9.9-29.1,24.5-35.5,42.5-24.1l25.5-21c3.5-3.5,3.6-11.1,6.3-11.1
			c2.9-1,5.5,10.6,1.8,15.7l-28.3,31.1c-4.4-18.1-36.8-22.6-36,21.3c-1.9,3.5-9.4,2.9-11.9-0.1l-0.7-4.1L277.7,677
			c1.7,1.8,4.6,6.6,6.1,10.2l-1.2,2.3l-5.1-6.1c-16.4-10.2-35.4,1.5-37.2,34.7c-3.1,4.6-11.4,5.4-14.8,0.9l-22.7,18.7l-11.8,2.7
			l36.7-28.2c3.3-26.5,21-44.8,44.8-37.3l38.5-32.2L350.3,610.4L350.3,610.4z"/>
		<polygon class="st12" points="469.6,170.5 468.4,258.4 442.3,271.2 416.4,262.8 414.2,170.5 469.6,170.5 		"/>
		<polygon class="st12" points="442.1,271 442.1,170.5 442.1,271 		"/>
		<polygon class="st2" points="914.9,384.9 791.5,357.1 791.5,170.5 914.9,170.5 914.9,384.9 		"/>
		<polygon class="st12" points="842,367.8 842,170.5 842,367.8 		"/>
		<polygon class="st10" points="161.9,703.9 168.2,701.8 184.3,711.4 184.4,727.1 162.2,713.5 161.9,703.9 		"/>
		<polygon class="st10" points="86.2,655.1 82.1,647.7 67.4,638.8 67.9,652.7 86.5,664.7 86.2,655.1 		"/>
		<polygon class="st0" points="101.9,658.6 146,687.5 145.9,703.7 102,675.2 101.9,658.6 		"/>
		<line class="st12" x1="190.3" y1="695.3" x2="190.6" y2="739.7"/>
		<path class="st17" d="M772.4,585.2h-13.5l-5.4-14h-24.6l-5.1,14h-13.2l24-61.6h13.1L772.4,585.2L772.4,585.2z M749.5,560.9
			L741,538l-8.3,22.8H749.5L749.5,560.9z"/>
		<path class="st17" d="M147.6,529.7l12,3.8c-1.8,6.7-4.9,11.7-9.2,15c-4.3,3.3-9.7,4.9-16.4,4.9c-8.2,0-14.9-2.8-20.2-8.4
			c-5.3-5.6-7.9-13.2-7.9-22.9c0-10.3,2.7-18.2,7.9-23.9c5.3-5.7,12.2-8.5,20.9-8.5c7.5,0,13.6,2.2,18.3,6.7
			c2.8,2.6,4.9,6.4,6.3,11.3l-12.3,2.9c-0.7-3.2-2.2-5.7-4.6-7.6c-2.3-1.8-5.1-2.8-8.4-2.8c-4.6,0-8.3,1.6-11.1,4.9
			c-2.8,3.3-4.3,8.6-4.3,15.9c0,7.8,1.4,13.3,4.2,16.6c2.8,3.3,6.4,5,10.9,5c3.3,0,6.1-1,8.5-3.2
			C144.9,537.5,146.6,534.2,147.6,529.7L147.6,529.7z"/>
		<polygon class="st17" points="729.6,291.6 729.6,230.1 742,230.1 742,254.3 766.4,254.3 766.4,230.1 778.8,230.1 778.8,291.6 
			766.4,291.6 766.4,264.7 742,264.7 742,291.6 729.6,291.6 		"/>
	</g>
</g>
</svg>
