<?xml version="1.0" encoding="utf-8"?>
<!-- Generator: Adobe Illustrator 19.2.0, SVG Export Plug-In . SVG Version: 6.00 Build 0)  -->
<svg version="1.1" id="Livello_1" xmlns="http://www.w3.org/2000/svg" xmlns:xlink="http://www.w3.org/1999/xlink" x="0px" y="0px"
	 viewBox="0 0 960 960" style="enable-background:new 0 0 960 960;" xml:space="preserve">
<style type="text/css">
	.st0{fill-rule:evenodd;clip-rule:evenodd;fill:#1A171B;stroke:#1A171B;stroke-width:3.0464;stroke-miterlimit:2.6131;}
	.st1{fill-rule:evenodd;clip-rule:evenodd;fill:#1A171B;stroke:#1A171B;stroke-width:1.8278;stroke-miterlimit:2.6131;}
</style>
<g>
	<g>
		<path class="st0" d="M343,586.4v-51.5h226c-27.5,13.5-30.5,31.5-34,51.5H343L343,586.4z"/>
		<path class="st0" d="M651,586.4c0-17.5-9-41-30.5-51.5H700c-19.5,7-34.5,34-35,51.5H651L651,586.4z"/>
		<path class="st0" d="M782,586.4c-0.5-20.5-13.5-44-31-51.5h163.5v27l-65,24.5H782L782,586.4z"/>
		<polygon class="st0" points="343,520.9 343.5,490.4 199.5,490.4 200,325.9 915,325.9 915,520.9 343,520.9 		"/>
		<path class="st0" d="M185.5,503.9V391.4h-106l-34.5,92v103h17.5c3.5-79,113.5-74.5,116.5,0c7,0,12.5,0,17,0c7-78.5,113-75.5,116,0
			h17.5v-82.5H185.5z M172,466.4H66l21-55h85V466.4z"/>
		<path class="st1" d="M253.9,538.1c-26.4,0-48,21.6-48,48c0,26.4,21.6,48,48,48c26.4,0,48-21.6,48-48
			C301.9,559.7,280.4,538.1,253.9,538.1z M253.9,606.7c-11.4,0-20.6-9.3-20.6-20.6s9.3-20.6,20.6-20.6c11.4,0,20.6,9.3,20.6,20.6
			S265.3,606.7,253.9,606.7z"/>
		<path class="st1" d="M592.8,538.1c-26.4,0-48,21.6-48,48c0,26.4,21.6,48,48,48c26.4,0,48-21.6,48-48
			C640.8,559.7,619.3,538.1,592.8,538.1z M592.8,606.7c-11.4,0-20.6-9.3-20.6-20.6s9.3-20.6,20.6-20.6s20.6,9.3,20.6,20.6
			S604.2,606.7,592.8,606.7z"/>
		<path class="st1" d="M723,538.1c-26.4,0-48,21.6-48,48c0,26.4,21.6,48,48,48c26.4,0,48-21.6,48-48
			C771,559.7,749.4,538.1,723,538.1z M723,606.7c-11.4,0-20.6-9.3-20.6-20.6s9.3-20.6,20.6-20.6c11.3,0,20.6,9.3,20.6,20.6
			S734.4,606.7,723,606.7z"/>
		<path class="st1" d="M120.4,538.1c-26.4,0-48,21.6-48,48c0,26.4,21.6,48,48,48c26.4,0,48-21.6,48-48
			C168.4,559.7,146.8,538.1,120.4,538.1z M120.4,606.7c-11.4,0-20.6-9.3-20.6-20.6s9.3-20.6,20.6-20.6c11.4,0,20.6,9.3,20.6,20.6
			S131.7,606.7,120.4,606.7z"/>
	</g>
</g>
</svg>
