<?xml version="1.0" encoding="utf-8"?>
<!-- Generator: Adobe Illustrator 19.2.0, SVG Export Plug-In . SVG Version: 6.00 Build 0)  -->
<svg version="1.1" id="Livello_1" xmlns="http://www.w3.org/2000/svg" xmlns:xlink="http://www.w3.org/1999/xlink" x="0px" y="0px"
	 viewBox="0 0 960 960" style="enable-background:new 0 0 960 960;" xml:space="preserve">
<style type="text/css">
	.st0{fill-rule:evenodd;clip-rule:evenodd;fill:#1A171B;stroke:#1A171B;stroke-width:2.0992;stroke-miterlimit:2.6131;}
	.st1{fill-rule:evenodd;clip-rule:evenodd;fill:#1A171B;}
	.st2{fill-rule:evenodd;clip-rule:evenodd;fill:#1A171B;stroke:#1A171B;stroke-width:1.2595;stroke-miterlimit:2.6131;}
</style>
<g>
	<g>
		<path class="st0" d="M636.4,531.3V467h175.6v64.3h-14.5c0-64.3-99.5-66.2-99.5,0H636.4L636.4,531.3z"/>
		<path class="st0" d="M145.6,531.3V467h177.9v64.3h-64.3c-0.4-66.6-99.9-66.6-99.5,0H145.6L145.6,531.3z"/>
		<path class="st0" d="M354.1,531.3V467H532v64.3h-64.3c-0.4-66.6-99.9-66.6-99.5,0H354.1L354.1,531.3z"/>
		<path class="st0" d="M45,389.3l5,63.5h19.9v-49.7h16.5v111.3H69.9V467H51.5l5.4,64.3h74.6V388.9L45,389.3z M117.3,514.5h-16.5
			V403.1h16.5V514.5z"/>
		<polygon class="st1" points="345.3,531.7 345.3,388.7 349.6,388.7 349.6,531.2 345.3,531.7 		"/>
		<polygon class="st1" points="336.8,531.7 336.8,388.7 341.1,388.7 341.1,531.2 336.8,531.7 		"/>
		<polygon class="st1" points="328.1,531.7 328.1,388.7 332.4,388.7 332.4,531.2 328.1,531.7 		"/>
		<path class="st0" d="M546.5,388.9v142.3h75.4V388.9H546.5z M576.8,514.5l-16.5,0.4V403.1h16.5V514.5z M591.3,514.5V403.1h16.8
			l0.4,111L591.3,514.5z"/>
		<path class="st0" d="M909.6,467h-19.5v47.4H871V403.1l19.1,0.4v49.4h18.4l-5.4-63.9l-76.9-0.4v142.7H915L909.6,467z M857.2,514.5
			h-16.8V402.7h16.8V514.5z"/>
		<path class="st0" d="M145.6,388.6v64.3h177.9v-64.3H145.6z M228.7,438.7h-68.9v-35.6h68.9V438.7z M309.4,438.7h-66.6v-35.6h66.6
			V438.7z"/>
		<path class="st0" d="M354.1,388.6v64.3H532v-64.3H354.1z M437.1,438.7h-68.9v-35.6h68.9V438.7z M517.8,438.7h-66.6v-35.6h66.6
			V438.7z"/>
		<path class="st0" d="M811.7,388.6H636.4v64.3h175.6L811.7,388.6z M716.8,438.7h-66.2v-35.6h66.2V438.7z M797.9,438.7h-66.6v-35.6
			h66.6V438.7z"/>
		<path class="st2" d="M210,490.8c22.2,0,40.3,18.1,40.3,40.3c0,22.2-18.1,40.3-40.3,40.3s-40.3-18.1-40.3-40.3
			C169.7,508.9,187.7,490.8,210,490.8L210,490.8z M210,515.4c8.7,0,15.7,7,15.7,15.7c0,8.7-7,15.7-15.7,15.7s-15.7-7-15.7-15.7
			C194.2,522.4,201.3,515.4,210,515.4L210,515.4z"/>
		<path class="st2" d="M418.4,490.8c22.2,0,40.3,18.1,40.3,40.3c0,22.2-18.1,40.3-40.3,40.3s-40.3-18.1-40.3-40.3
			C378.1,508.9,396.2,490.8,418.4,490.8L418.4,490.8z M418.4,515.4c8.7,0,15.7,7,15.7,15.7c0,8.7-7,15.7-15.7,15.7
			c-8.7,0-15.7-7-15.7-15.7C402.7,522.4,409.7,515.4,418.4,515.4L418.4,515.4z"/>
		<path class="st2" d="M748.1,515.4c8.7,0,15.7,7,15.7,15.7c0,8.7-7,15.7-15.7,15.7c-8.7,0-15.7-7-15.7-15.7
			C732.4,522.4,739.5,515.4,748.1,515.4L748.1,515.4z M748.1,490.8c22.2,0,40.3,18.1,40.3,40.3c0,22.2-18.1,40.3-40.3,40.3
			c-22.2,0-40.3-18.1-40.3-40.3C707.8,508.9,725.9,490.8,748.1,490.8L748.1,490.8z"/>
	</g>
</g>
</svg>
