<?xml version="1.0" encoding="utf-8"?>
<!-- Generator: Adobe Illustrator 19.2.0, SVG Export Plug-In . SVG Version: 6.00 Build 0)  -->
<svg version="1.1" id="Livello_1" xmlns="http://www.w3.org/2000/svg" xmlns:xlink="http://www.w3.org/1999/xlink" x="0px" y="0px"
	 viewBox="0 0 960 960" style="enable-background:new 0 0 960 960;" xml:space="preserve">
<style type="text/css">
	.st0{fill-rule:evenodd;clip-rule:evenodd;fill:#FFEC00;}
	.st1{fill-rule:evenodd;clip-rule:evenodd;fill:#CECFD1;}
	.st2{fill:none;stroke:#1A171B;stroke-width:1.8036;stroke-miterlimit:2.6131;}
	.st3{fill-rule:evenodd;clip-rule:evenodd;fill:#FFFFFF;stroke:#1A171B;stroke-width:1.8036;stroke-miterlimit:2.6131;}
</style>
<g>
	<g>
		<path class="st0" d="M480.6,210.7c148.7,0,269.9,121.3,269.9,269.9c0,148.7-121.3,269.9-269.9,269.9
			c-148.7,0-269.9-121.3-269.9-269.9C210.7,331.9,331.9,210.7,480.6,210.7L480.6,210.7z"/>
		<path class="st1" d="M668.2,672.4L278,300.8c49.3-55.9,121.4-91.4,202-91.4c148.5,0,269.9,121.4,269.9,269.9
			C749.9,555.2,718.7,623.1,668.2,672.4L668.2,672.4z"/>
		<path class="st2" d="M235.3,627.3V332.1c-6,10.2-11.4,21-16.8,32.5v230.3C223.9,606.3,229.3,617.1,235.3,627.3L235.3,627.3z"/>
		<path class="st2" d="M275,679V280.4c-6,6.6-12,13.2-18,20.4v357.7C263,665.8,269,672.4,275,679L275,679z"/>
		<path class="st2" d="M313.5,712.7V246.7c-5.4,4.2-10.8,8.4-16.8,13.2v439.5C302.6,704.2,308.1,708.5,313.5,712.7L313.5,712.7z"/>
		<path class="st2" d="M351.9,736.1V223.3c-6,3-12,6.6-18,10.2v492.4C339.9,729.5,345.9,733.1,351.9,736.1L351.9,736.1z"/>
		<path class="st2" d="M390.4,752.4V207.1c-5.4,1.8-10.8,4.2-16.8,6.6v532.1C379.6,748.1,385,750.5,390.4,752.4L390.4,752.4z"/>
		<path class="st2" d="M430.1,762.6V196.8c-6,1.2-12,2.4-18,4.2v557.3C418.1,760.2,424.1,761.4,430.1,762.6L430.1,762.6z"/>
		<path class="st2" d="M467.4,766.8V192.6c-5.4,0.6-10.8,0.6-16.8,1.2v571.7C456.6,766.2,462,766.2,467.4,766.8L467.4,766.8z"/>
		<path class="st2" d="M507.1,766.2V193.2c-5.4-0.6-11.4-0.6-18-0.6v574.2C495.6,766.8,501.6,766.8,507.1,766.2L507.1,766.2z"/>
		<path class="st2" d="M544.3,760.2V199.2c-5.4-1.2-10.8-2.4-16.8-3v566.9C533.5,762.6,538.9,761.4,544.3,760.2L544.3,760.2z"/>
		<path class="st2" d="M584,748.1V211.3c-5.4-2.4-11.4-4.8-18-6.6v550.1C572.6,752.9,578.6,750.5,584,748.1L584,748.1z"/>
		<path class="st2" d="M622.5,730.1V229.3c-5.4-3.6-10.8-6-16.8-9v518.8C611.7,736.1,617.1,733.7,622.5,730.1L622.5,730.1z"/>
		<path class="st2" d="M661,704.2V255.1c-5.4-4.8-11.4-9-18-13.2v475.6C649.5,713.3,655.6,709.1,661,704.2L661,704.2z"/>
		<path class="st2" d="M699.4,667.6V291.8c-4.8-6-10.8-12-16.8-17.4V685C688.6,679.6,694.6,673.6,699.4,667.6L699.4,667.6z"/>
		<path class="st2" d="M737.9,610.5V348.9c-4.8-10.2-11.4-20.4-18-30.1v321.6C726.5,630.9,733.1,620.7,737.9,610.5L737.9,610.5z"/>
		<path class="st3" d="M480,180c165.3,0,300,134.7,300,300c0,165.3-134.7,300-300,300S180,645.3,180,480
			C180,314.7,314.7,180,480,180L480,180z M480.6,209.5c149.1,0,269.3,121.4,269.3,270.5c0,149.1-120.2,269.3-269.3,269.3
			c-149.1,0-270.5-120.2-270.5-269.3C210.1,330.9,331.5,209.5,480.6,209.5L480.6,209.5z"/>
	</g>
</g>
</svg>
