<?xml version="1.0" encoding="utf-8"?>
<!-- Generator: Adobe Illustrator 19.2.0, SVG Export Plug-In . SVG Version: 6.00 Build 0)  -->
<svg version="1.1" id="Livello_1" xmlns="http://www.w3.org/2000/svg" xmlns:xlink="http://www.w3.org/1999/xlink" x="0px" y="0px"
	 viewBox="0 0 960 960" style="enable-background:new 0 0 960 960;" xml:space="preserve">
<style type="text/css">
	.st0{fill-rule:evenodd;clip-rule:evenodd;fill:#FFEC00;}
	.st1{fill-rule:evenodd;clip-rule:evenodd;fill:#CECFD1;stroke:#CECFD1;stroke-width:6.0121;stroke-miterlimit:2.6131;}
	.st2{fill:none;stroke:#1A171B;stroke-width:1.8036;stroke-miterlimit:2.6131;}
	.st3{fill-rule:evenodd;clip-rule:evenodd;fill:#FFFFFF;stroke:#1A171B;stroke-width:1.8036;stroke-miterlimit:2.6131;}
</style>
<g>
	<g>
		<path class="st0" d="M478.8,749.3c-148.7,0-269.9-121.3-269.9-269.9c0-148.7,121.3-269.9,269.9-269.9
			c148.7,0,269.9,121.3,269.9,269.9C748.7,628.1,627.5,749.3,478.8,749.3L478.8,749.3z"/>
		<path class="st1" d="M730.7,580.4L479.4,483H210.7c1.2,147.3,122,267.5,269.3,267.5C593.6,750.5,691,679.6,730.7,580.4
			L730.7,580.4z"/>
		<path class="st2" d="M236.5,626.7V331.5c-6,10.2-11.4,21-16.8,32.5v230.3C225.1,605.7,230.5,616.5,236.5,626.7L236.5,626.7z"/>
		<path class="st2" d="M276.2,678.4V279.8c-6,6.6-12,13.2-18,20.4V658C264.2,665.2,270.2,671.8,276.2,678.4L276.2,678.4z"/>
		<path class="st2" d="M314.7,712.1V246.1c-5.4,4.2-10.8,8.4-16.8,13.2v439.5C303.8,703.7,309.3,707.9,314.7,712.1L314.7,712.1z"/>
		<path class="st2" d="M353.1,735.5V222.7c-6,3-12,6.6-18,10.2v492.4C341.1,728.9,347.1,732.5,353.1,735.5L353.1,735.5z"/>
		<path class="st2" d="M391.6,751.7V206.5c-5.4,1.8-10.8,4.2-16.8,6.6v532.1C380.8,747.5,386.2,749.9,391.6,751.7L391.6,751.7z"/>
		<path class="st2" d="M431.3,762V196.2c-6,1.2-12,2.4-18,4.2v557.3C419.3,759.6,425.3,760.8,431.3,762L431.3,762z"/>
		<path class="st2" d="M468.6,766.2V192c-5.4,0.6-10.8,0.6-16.8,1.2V765C457.8,765.6,463.2,765.6,468.6,766.2L468.6,766.2z"/>
		<path class="st2" d="M508.3,765.6v-573c-5.4-0.6-11.4-0.6-18-0.6v574.2C496.8,766.2,502.8,766.2,508.3,765.6L508.3,765.6z"/>
		<path class="st2" d="M545.5,759.6V198.6c-5.4-1.2-10.8-2.4-16.8-3v566.9C534.7,762,540.1,760.8,545.5,759.6L545.5,759.6z"/>
		<path class="st2" d="M585.2,747.5V210.7c-5.4-2.4-11.4-4.8-18-6.6v550.1C573.8,752.4,579.8,749.9,585.2,747.5L585.2,747.5z"/>
		<path class="st2" d="M623.7,729.5V228.7c-5.4-3.6-10.8-6-16.8-9v518.8C612.9,735.5,618.3,733.1,623.7,729.5L623.7,729.5z"/>
		<path class="st2" d="M662.2,703.7V254.5c-5.4-4.8-11.4-9-18-13.2v475.6C650.7,712.7,656.8,708.5,662.2,703.7L662.2,703.7z"/>
		<path class="st2" d="M700.6,667V291.2c-4.8-6-10.8-12-16.8-17.4v410.6C689.8,679,695.8,673,700.6,667L700.6,667z"/>
		<path class="st2" d="M739.1,609.9V348.3c-4.8-10.2-11.4-20.4-18-30.1v321.7C727.7,630.3,734.3,620.1,739.1,609.9L739.1,609.9z"/>
		<path class="st3" d="M480,780c-165.3,0-300-134.7-300-300c0-165.3,134.7-300,300-300s300,134.7,300,300
			C780,645.3,645.3,780,480,780L480,780z M480.6,749.3c-149.1,0-270.5-120.2-270.5-269.3c0-149.1,121.4-270.5,270.5-270.5
			c149.1,0,269.3,121.4,269.3,270.5C749.9,629.1,629.7,749.3,480.6,749.3L480.6,749.3z"/>
	</g>
</g>
</svg>
