<?xml version="1.0" encoding="utf-8"?>
<!-- Generator: Adobe Illustrator 19.2.0, SVG Export Plug-In . SVG Version: 6.00 Build 0)  -->
<svg version="1.1" id="Livello_1" xmlns="http://www.w3.org/2000/svg" xmlns:xlink="http://www.w3.org/1999/xlink" x="0px" y="0px"
	 viewBox="0 0 960 960" style="enable-background:new 0 0 960 960;" xml:space="preserve">
<style type="text/css">
	.st0{fill-rule:evenodd;clip-rule:evenodd;fill:#1A171B;stroke:#1A171B;stroke-width:0.5291;stroke-miterlimit:2.6131;}
</style>
<g>
	<g>
		<path class="st0" d="M227.1,370.5c125.9-99.5,380.4-99.5,505.8,0L607.5,576.8c-84.7-40.2-160.8-40.2-255,0L227.1,370.5
			L227.1,370.5z M218.6,332.4c137.6-88.4,329.6-93.1,477.2-26.5c30.2,14.8,57.1,34.9,84.1,55L621.8,621.8
			c-57.1-24.9-101.1-45-165.1-37.6c-42.9,4.2-78.3,20.6-119,36.5L180,361L218.6,332.4L218.6,332.4z"/>
		<path class="st0" d="M483.7,638.8L324.1,303.6c-4-8.6-14.5-13.1-23.1-9c-8.5,3-12,13.5-8,23.1l160.1,335.2
			c-2.8,4.7-3.9,10-4.1,15.2c-0.4,16.9,13,31,29.9,31.4c16.9,0.4,31-13,31.4-29.9C510.8,654.3,499,640.8,483.7,638.8L483.7,638.8z"
			/>
	</g>
</g>
</svg>
