<?xml version="1.0" encoding="utf-8"?>
<!-- Generator: Adobe Illustrator 19.2.0, SVG Export Plug-In . SVG Version: 6.00 Build 0)  -->
<svg version="1.1" id="Livello_1" xmlns="http://www.w3.org/2000/svg" xmlns:xlink="http://www.w3.org/1999/xlink" x="0px" y="0px"
	 viewBox="0 0 960 960" style="enable-background:new 0 0 960 960;" xml:space="preserve">
<style type="text/css">
	.st0{fill-rule:evenodd;clip-rule:evenodd;fill:#1A171B;stroke:#1A171B;stroke-width:0.5291;stroke-miterlimit:2.6131;}
</style>
<g>
	<g>
		<path class="st0" d="M227.1,484.8c125.9-99.5,380.4-99.5,505.8,0L607.5,691.1c-84.7-40.2-160.8-40.2-255,0L227.1,484.8
			L227.1,484.8z M218.6,446.7c137.6-88.4,329.6-93.1,477.2-26.5c30.2,14.8,57.1,34.9,84.1,55L621.8,736.1
			c-57.1-24.9-101.1-45-165.1-37.6c-42.9,4.2-78.3,20.6-119,36.5L180,475.2L218.6,446.7L218.6,446.7z"/>
		<path class="st0" d="M650.4,303.8l29.6-20.1c9,15.9,14.8,36,14.8,57.1h-34.4C660.4,327.1,656.2,314.4,650.4,303.8L650.4,303.8z
			 M497.5,347.7h-34.9v-7.4c0-13.8-4.2-26.5-9.5-37l27.5-18c0,0,24.3,15.9,26.5,16.9c-5.3,9-7.9,18.5-9.5,29.1V347.7L497.5,347.7z
			 M497.5,564.7h-34.9v-60.3h34.9V564.7L497.5,564.7z M462.5,577.4h34.9v61.4h-34.9V577.4L462.5,577.4z M497.5,491.6h-34.9v-59.3
			h34.9V491.6L497.5,491.6z M497.5,419.7h-34.9v-59.3h34.9V419.7L497.5,419.7z M475.2,272.6l-28.6,20.1c-8.5-10.6-18-20.1-29.6-25.4
			l12.7-32.8C447.7,243,463.6,255.7,475.2,272.6L475.2,272.6z M417,230.3l-11.6,32.8c-7.4-3.2-14.8-5.3-23.3-5.3
			c-7.4,0-16.9,2.1-25.4,4.2l-10.6-31.7c10.6-4.2,22.2-6.4,36-6.4C394.8,223.9,405.4,226,417,230.3L417,230.3z M334.5,234.5
			l11.6,32.8c-11.6,4.2-23.3,13.8-30.7,25.4l-27.5-21.2C298.5,255.7,315.5,241.9,334.5,234.5L334.5,234.5z M280.5,282.1l29.6,20.1
			c-6.3,10.6-10.6,24.3-10.6,38.1h-33.9C265.7,319.2,271,299,280.5,282.1L280.5,282.1z M672.6,272.6L644,293.2
			c-7.4-11.1-18.5-20.1-29.1-25.9L626,235C645.1,243,661.5,256.2,672.6,272.6L672.6,272.6z M614.9,230.3l-11.1,32.8
			c-7.9-3.2-18-4.8-24.9-4.8c-9,0-16.4,1.6-23.3,4.2l-12.2-32.3c11.6-4.2,22.7-6.4,35.4-6.4C592.2,223.9,604.3,226,614.9,230.3
			L614.9,230.3z M531.9,234.5l12.7,32.8c-13.2,4.8-23.3,14.3-31.7,25.4l-27.5-20.6C496.4,255.7,512.8,242.4,531.9,234.5L531.9,234.5
			z"/>
	</g>
</g>
</svg>
