<?xml version="1.0" encoding="utf-8"?>
<!-- Generator: Adobe Illustrator 19.2.0, SVG Export Plug-In . SVG Version: 6.00 Build 0)  -->
<svg version="1.1" id="Livello_1" xmlns="http://www.w3.org/2000/svg" xmlns:xlink="http://www.w3.org/1999/xlink" x="0px" y="0px"
	 viewBox="0 0 960 960" style="enable-background:new 0 0 960 960;" xml:space="preserve">
<style type="text/css">
	.st0{fill-rule:evenodd;clip-rule:evenodd;fill:#1A171B;stroke:#1A171B;stroke-width:0.5291;stroke-miterlimit:2.6131;}
</style>
<g>
	<g>
		<path class="st0" d="M227.1,445.9c125.9-99.5,380.4-99.5,505.8,0L607.5,652.2c-84.7-40.2-160.8-40.2-255,0L227.1,445.9
			L227.1,445.9z M218.6,407.8c137.6-88.4,329.6-93.1,477.2-26.5c30.2,14.8,57.1,34.9,84.1,55L621.8,697.2
			c-57.1-24.9-101.1-45-165.1-37.6c-42.9,4.2-78.3,20.6-119,36.5L180,436.4L218.6,407.8L218.6,407.8z"/>
		<path class="st0" d="M484.2,714.2L324.6,379c-4-8.6-14.5-13.1-23.1-9c-8.5,3-12,13.5-8,23.1l160.1,335.2c-2.8,4.7-3.9,10-4.1,15.2
			c-0.4,16.9,13,31,29.9,31.4c16.9,0.4,31-13,31.4-29.9C511.4,729.7,499.5,716.2,484.2,714.2L484.2,714.2z"/>
		<path class="st0" d="M650.4,264.9l29.6-20.1c9,15.9,14.8,36,14.8,57.1h-34.4C660.4,288.2,656.2,275.5,650.4,264.9L650.4,264.9z
			 M497.5,308.8h-34.9v-7.4c0-13.8-4.2-26.5-9.5-37l27.5-18c0,0,24.3,15.9,26.5,16.9c-5.3,9-7.9,18.5-9.5,29.1V308.8L497.5,308.8z
			 M497.5,525.8h-34.9v-60.3h34.9V525.8L497.5,525.8z M462.5,538.5h34.9v61.4h-34.9V538.5L462.5,538.5z M497.5,452.8h-34.9v-59.3
			h34.9V452.8L497.5,452.8z M497.5,380.8h-34.9v-59.3h34.9V380.8L497.5,380.8z M475.2,233.7l-28.6,20.1c-8.5-10.6-18-20.1-29.6-25.4
			l12.7-32.8C447.7,204.1,463.6,216.8,475.2,233.7L475.2,233.7z M417,191.4l-11.6,32.8c-7.4-3.2-14.8-5.3-23.3-5.3
			c-7.4,0-16.9,2.1-25.4,4.2l-10.6-31.7c10.6-4.2,22.2-6.4,36-6.4C394.8,185,405.4,187.1,417,191.4L417,191.4z M334.5,195.6
			l11.6,32.8c-11.6,4.2-23.3,13.8-30.7,25.4l-27.5-21.2C298.5,216.8,315.5,203,334.5,195.6L334.5,195.6z M280.5,243.2l29.6,20.1
			c-6.3,10.6-10.6,24.3-10.6,38.1h-33.9C265.7,280.3,271,260.2,280.5,243.2L280.5,243.2z M672.6,233.7L644,254.3
			c-7.4-11.1-18.5-20.1-29.1-25.9l11.1-32.3C645.1,204.1,661.5,217.3,672.6,233.7L672.6,233.7z M614.9,191.4l-11.1,32.8
			c-7.9-3.2-18-4.8-24.9-4.8c-9,0-16.4,1.6-23.3,4.2l-12.2-32.3c11.6-4.2,22.7-6.4,35.4-6.4C592.2,185,604.3,187.1,614.9,191.4
			L614.9,191.4z M531.9,195.6l12.7,32.8c-13.2,4.8-23.3,14.3-31.7,25.4l-27.5-20.6C496.4,216.8,512.8,203.5,531.9,195.6L531.9,195.6
			z"/>
	</g>
</g>
</svg>
