<?xml version="1.0" encoding="utf-8"?>
<!-- Generator: Adobe Illustrator 19.2.0, SVG Export Plug-In . SVG Version: 6.00 Build 0)  -->
<svg version="1.1" id="Livello_1" xmlns="http://www.w3.org/2000/svg" xmlns:xlink="http://www.w3.org/1999/xlink" x="0px" y="0px"
	 viewBox="0 0 785.4 433.3" style="enable-background:new 0 0 785.4 433.3;" xml:space="preserve">
<style type="text/css">
	.st0{fill:#CB0100;stroke:#000000;stroke-width:2;stroke-miterlimit:2.6131;}
	.st1{fill:#1A171B;stroke:#1A171B;stroke-width:0.5004;stroke-miterlimit:2.6131;}
</style>
<g>
	<rect x="1.7" y="1.7" class="st0" width="782" height="430"/>
	<g>
		<path class="st1" d="M122,53.3v347.3h541.5V53.3H122z M630.4,367.5H155V86.3h475.4V367.5z"/>
		<polygon class="st1" points="210,32.8 295.1,32.8 295.1,53.3 210,53.3 		"/>
		<polygon class="st1" points="490.3,32.8 575.4,32.8 575.4,53.3 490.3,53.3 		"/>
		<polygon class="st1" points="201.6,151.4 303.6,151.4 303.6,189.4 201.6,189.4 		"/>
		<polygon class="st1" points="552.4,151.4 552.4,118.9 514.4,118.9 514.4,151.4 481.8,151.4 481.8,189.4 514.4,189.4 514.4,220.9 
			552.4,220.9 552.4,189.4 583.8,189.4 583.8,151.4 		"/>
	</g>
</g>
</svg>
