<?xml version="1.0" encoding="utf-8"?>
<!-- Generator: Adobe Illustrator 19.2.0, SVG Export Plug-In . SVG Version: 6.00 Build 0)  -->
<svg version="1.1" id="Livello_1" xmlns="http://www.w3.org/2000/svg" xmlns:xlink="http://www.w3.org/1999/xlink" x="0px" y="0px"
	 viewBox="0 0 960 960" style="enable-background:new 0 0 960 960;" xml:space="preserve">
<style type="text/css">
	.st0{fill-rule:evenodd;clip-rule:evenodd;fill:#1A171B;stroke:#1A171B;stroke-width:0.6239;stroke-miterlimit:2.6131;}
</style>
<g>
	<g>
		<path class="st0" d="M217.4,280.3h525.8v290.9H217.4V280.3L217.4,280.3z M203.5,242.9h552.9c13.3,0,23.5,11.5,23.5,26v313.9
			c0,14.5-10.3,26-23.5,26H203.5c-13.3,0-23.5-11.5-23.5-26V268.9C180,254.4,190.3,242.9,203.5,242.9L203.5,242.9z"/>
		<path class="st0" d="M479.5,499.2c0,36.2,27.8,56.1,39.8,87.5c16.9,51.9-8.4,88.1-29,130.4l-31.4-20.5
			c21.7-36.2,31.4-53.1,25.4-97.8c-14.5-29-41-56.7-42.3-89.3c0-27.8,6.6-44.1,19.9-62.8H439c-3,0-7.8-2.4-6-6l47.1-91.1l47.1,91.1
			l-6,6h-16.9C488.5,460,480.7,479.9,479.5,499.2L479.5,499.2z"/>
		<path class="st0" d="M612.9,499.2c0,36.2,27.8,56.1,39.8,87.5c16.9,51.9-8.4,88.1-29,130.4l-31.4-20.5
			c21.7-36.2,31.4-53.1,25.4-97.8c-14.5-29-41.1-56.7-42.3-89.3c0-27.8,6.6-44.1,19.9-62.8h-22.9c-3,0-7.8-2.4-6-6l47.1-91.1
			l47.1,91.1l-6,6h-16.9C621.9,460,614.1,479.9,612.9,499.2L612.9,499.2z"/>
		<path class="st0" d="M347.9,498.6c0,36.2,27.8,56.1,39.8,87.5c16.9,51.9-8.5,88.1-29,130.4L327.4,696
			c21.7-36.2,31.4-53.1,25.4-97.8c-14.5-29-41-56.7-42.3-89.3c0-27.8,6.6-44.1,19.9-62.8h-22.9c-3,0-7.8-2.4-6-6l47.1-91.1
			l47.1,91.1l-6,6h-16.9C356.9,459.3,349.1,479.3,347.9,498.6L347.9,498.6z"/>
	</g>
</g>
</svg>
