<?xml version="1.0" encoding="utf-8"?>
<!-- Generator: Adobe Illustrator 19.2.0, SVG Export Plug-In . SVG Version: 6.00 Build 0)  -->
<svg version="1.1" id="Livello_1" xmlns="http://www.w3.org/2000/svg" xmlns:xlink="http://www.w3.org/1999/xlink" x="0px" y="0px"
	 viewBox="0 0 960 960" style="enable-background:new 0 0 960 960;" xml:space="preserve">
<style type="text/css">
	.st0{fill-rule:evenodd;clip-rule:evenodd;fill:#1A171B;stroke:#1A171B;stroke-width:0.553;stroke-miterlimit:2.6131;}
</style>
<g>
	<g>
		<polygon class="st0" points="481,468.6 202.9,308.6 180.4,347.1 436.5,494.3 180,641.8 202.4,680.6 481.1,519.6 758.4,680.1 
			779.3,641.2 525.2,494.2 780,347.1 757.9,308.8 481,468.6 		"/>
		<path class="st0" d="M282.3,416.1l-40.9-23.2c-12.2,29.9-18.8,63-18.8,97.3c0,37.6,7.7,72.4,21.6,104.5l40.4-23.2
			c-10-24.9-15.5-52.5-15.5-81.3C269,464.2,273.5,439.4,282.3,416.1L282.3,416.1z M316.6,624.6l-40.9,23.8
			c24.3,31.5,56.4,57,92.9,74.1l18.8-42C359.7,667.2,336,647.8,316.6,624.6L316.6,624.6z M682.7,646.7l-39.8-23.2
			c-14.9,18.3-33.2,34.3-53.1,46.5l-6.1-13.3l-53.6,68l86.3,1.7l-7.2-14.4C637.4,695.4,662.8,672.7,682.7,646.7L682.7,646.7z
			 M674.4,570.4l39.8,23.2c13.8-31.5,21.6-66.4,21.6-103.4c0-33.7-7.2-66.4-19.4-96.2l-39.8,23.2c8.9,22.7,13.8,47.6,13.8,73
			C690.4,519,684.4,545.5,674.4,570.4L674.4,570.4z M646.8,363l39.8-23.2c-47-64.2-122.2-106.2-207.4-106.2
			c-84.6,0-159.8,41.5-206.8,104.5l40.4,23.2c38.7-49.2,98.4-81.3,166.5-81.3C547.2,280.1,608,312.7,646.8,363L646.8,363z"/>
	</g>
</g>
</svg>
