<?xml version="1.0" encoding="utf-8"?>
<!-- Generator: Adobe Illustrator 19.2.0, SVG Export Plug-In . SVG Version: 6.00 Build 0)  -->
<svg version="1.1" id="Livello_1" xmlns="http://www.w3.org/2000/svg" xmlns:xlink="http://www.w3.org/1999/xlink" x="0px" y="0px"
	 viewBox="0 0 960 960" style="enable-background:new 0 0 960 960;" xml:space="preserve">
<style type="text/css">
	.st0{fill-rule:evenodd;clip-rule:evenodd;fill:#1A171B;stroke:#1A171B;stroke-width:0.6682;stroke-miterlimit:2.6131;}
	.st1{fill-rule:evenodd;clip-rule:evenodd;fill:#1A171B;stroke:#1A171B;stroke-width:0.6296;stroke-miterlimit:2.6131;}
</style>
<g>
	<g>
		<polygon class="st0" points="182.6,202.4 234.8,202.4 234.8,757.6 182.6,757.6 182.6,202.4 		"/>
		<polygon class="st0" points="725.2,202.4 777.4,202.4 777.4,757.6 725.2,757.6 725.2,202.4 		"/>
	</g>
	<path class="st1" d="M648.2,613.4L539.9,505c3.2-7.7,5-16.2,5-25c0-35.8-29-64.9-64.9-64.9c-8.9,0-17.3,1.8-25,5L346.6,311.8
		l-34.8,34.8L420.1,455c-3.2,7.7-5,16.2-5,25c0,35.8,29,64.9,64.9,64.9c8.9,0,17.3-1.8,25-5l108.4,108.4L648.2,613.4z"/>
</g>
</svg>
