<?xml version="1.0" encoding="utf-8"?>
<!-- Generator: Adobe Illustrator 19.2.0, SVG Export Plug-In . SVG Version: 6.00 Build 0)  -->
<svg version="1.1" id="Livello_1" xmlns="http://www.w3.org/2000/svg" xmlns:xlink="http://www.w3.org/1999/xlink" x="0px" y="0px"
	 viewBox="0 0 960 960" style="enable-background:new 0 0 960 960;" xml:space="preserve">
<style type="text/css">
	.st0{fill-rule:evenodd;clip-rule:evenodd;fill:#1A171B;stroke:#1A171B;stroke-width:0.6296;stroke-miterlimit:2.6131;}
</style>
<g>
	<g>
		<path class="st0" d="M737.8,757.6l40.3-23.3c-29-78.1-44.7-163.1-44.7-251.2c0-89.4,16.4-175.7,46.6-255l-41.6-23.9
			c-33.4,86.3-51.6,180.1-51.6,277.6C686.8,578.8,704.4,672,737.8,757.6L737.8,757.6z"/>
		<path class="st0" d="M222.2,755.8l-40.3-23.3c29-78.1,44.7-163.1,44.7-251.2c0-89.4-16.4-175.7-46.6-255l41.6-23.9
			c33.4,86.3,51.6,180.1,51.6,277.6C273.2,577,255.5,670.1,222.2,755.8L222.2,755.8z"/>
	</g>
</g>
<path class="st0" d="M628.2,593.4L539.9,505c3.2-7.7,5-16.2,5-25c0-35.8-29-64.9-64.9-64.9c-8.9,0-17.3,1.8-25,5l-88.4-88.4
	l-34.8,34.8l88.4,88.4c-3.2,7.7-5,16.2-5,25c0,35.8,29,64.9,64.9,64.9c8.9,0,17.3-1.8,25-5l88.4,88.4L628.2,593.4z"/>
</svg>
