<?xml version="1.0" encoding="utf-8"?>
<!-- Generator: Adobe Illustrator 19.2.0, SVG Export Plug-In . SVG Version: 6.00 Build 0)  -->
<svg version="1.1" id="Livello_1" xmlns="http://www.w3.org/2000/svg" xmlns:xlink="http://www.w3.org/1999/xlink" x="0px" y="0px"
	 viewBox="0 0 789 436" style="enable-background:new 0 0 789 436;" xml:space="preserve">
<style type="text/css">
	.st0{fill:#1A863A;stroke:#000000;stroke-width:2;stroke-miterlimit:2.6131;}
	.st1{fill:#1A171B;stroke:#1A171B;stroke-width:0.4978;stroke-miterlimit:2.6131;}
</style>
<g id="Livello_2">
	<rect x="3" y="2.1" class="st0" width="782" height="430"/>
</g>
<g id="Livello_1_1_">
	<g>
		<path class="st1" d="M299.2,126.3c-8.5-0.6-32.9-9.5-39.3,3.4c-19.4,41.8-22.4,80.2-14.9,130c2.5,16,8,35.3,14.9,46.8
			c6.5,9.5,37.3,4,39.3,4c18.9-4.5,38.9-12.9,57.3-36.9C390.8,211.4,366.4,146.7,299.2,126.3z M289.8,281.1
			c-8.5,1.5-10.4,0.9-12.9-8c-9.5-29.8-10-81.1,0-111.1c2.9-8.9,3.9-8.5,12.4-7.5c28.4,2.9,53.3,28.4,53.3,63.3
			S319.1,277.6,289.8,281.1z"/>
		<path class="st1" d="M528.1,129.7c-6.5-12.9-30.9-4-39.3-3.4c-67.2,20.4-91.6,85.1-57.3,147.3c18.4,23.9,38.3,32.4,57.3,36.9
			c2,0,32.9,5.5,39.3-4c6.9-11.5,12.4-30.9,14.9-46.8C550.6,209.9,547.5,171.5,528.1,129.7z M511.1,273.1c-2.5,8.9-4.5,9.5-12.9,8
			c-29.4-3.5-52.7-28.4-52.7-63.3s24.9-60.3,53.3-63.3c8.5-0.9,9.5-1.4,12.4,7.5C521.1,192,520.6,243.3,511.1,273.1z"/>
		<polygon class="st1" points="109,198.4 214.5,198.4 214.5,236.3 109,236.3 		"/>
		<polygon class="st1" points="679,198.4 573.5,198.4 573.5,236.3 679,236.3 		"/>
		<polygon class="st1" points="139.9,69.5 237.1,110.6 222.3,145.4 125.1,104.3 		"/>
		<polygon class="st1" points="647.7,69.5 550.5,110.6 565.2,145.4 662.4,104.3 		"/>
		<polygon class="st1" points="139.9,364.7 237,323.5 222.2,288.6 125.1,329.9 		"/>
		<polygon class="st1" points="647.7,364.7 550.5,323.5 565.3,288.6 662.5,329.9 		"/>
	</g>
</g>
</svg>
