<?xml version="1.0" encoding="utf-8"?>
<!-- Generator: Adobe Illustrator 19.2.0, SVG Export Plug-In . SVG Version: 6.00 Build 0)  -->
<svg version="1.1" id="Livello_1" xmlns="http://www.w3.org/2000/svg" xmlns:xlink="http://www.w3.org/1999/xlink" x="0px" y="0px"
	 viewBox="0 0 960 960" style="enable-background:new 0 0 960 960;" xml:space="preserve">
<style type="text/css">
	.st0{fill-rule:evenodd;clip-rule:evenodd;fill:#1A171B;stroke:#1A171B;stroke-width:0.4934;stroke-miterlimit:2.6131;}
</style>
<g>
	<g>
		<polygon class="st0" points="284.6,427.9 180,427.9 180,465.4 284.6,465.4 284.6,427.9 		"/>
		<polygon class="st0" points="328.5,571.5 254.6,645.5 281.1,672 355,598 328.5,571.5 		"/>
		<polygon class="st0" points="354.7,295.2 280.7,221.2 254.2,247.8 328.2,321.7 354.7,295.2 		"/>
		<polygon class="st0" points="780,427.9 675.4,427.9 675.4,465.4 780,465.4 780,427.9 		"/>
		<polygon class="st0" points="498.3,746.2 498.3,641.6 460.8,641.6 460.8,746.2 498.3,746.2 		"/>
		<polygon class="st0" points="678.9,221.2 604.9,295.2 631.4,321.7 705.4,247.7 678.9,221.2 		"/>
		<polygon class="st0" points="705,645.5 631,571.6 604.5,598.1 678.5,672.1 705,645.5 		"/>
		<path class="st0" d="M525.4,248.3h-90.3v34h90.3V248.3L525.4,248.3z M401.5,213.8h156.9V311H401.5V213.8L401.5,213.8z"/>
		<path class="st0" d="M480,575c70.6,0,127.8-57.2,127.8-127.8S550.6,319.4,480,319.4s-127.8,57.2-127.8,127.8S409.4,575,480,575
			L480,575z M480,611.5c90.8,0,164.3-73.5,164.3-164.3c0-90.8-73.5-164.3-164.3-164.3c-90.8,0-164.3,73.5-164.3,164.3
			C315.7,538,389.2,611.5,480,611.5L480,611.5z"/>
	</g>
</g>
</svg>
