<?xml version="1.0" encoding="utf-8"?>
<!-- Generator: Adobe Illustrator 19.2.0, SVG Export Plug-In . SVG Version: 6.00 Build 0)  -->
<svg version="1.1" id="Livello_1" xmlns="http://www.w3.org/2000/svg" xmlns:xlink="http://www.w3.org/1999/xlink" x="0px" y="0px"
	 viewBox="0 0 960 960" style="enable-background:new 0 0 960 960;" xml:space="preserve">
<style type="text/css">
	.st0{fill-rule:evenodd;clip-rule:evenodd;fill:#1A171B;stroke:#1A171B;stroke-width:0.6383;stroke-miterlimit:2.6131;}
</style>
<g>
	<g>
		<polygon class="st0" points="780,408.5 510.6,408.5 510.6,457 780,457 780,408.5 		"/>
		<polygon class="st0" points="742.3,627.4 509.1,492.8 484.8,534.8 718.1,669.5 742.3,627.4 		"/>
		<polygon class="st0" points="718.1,195.3 484.8,330 509.1,372 742.3,237.3 718.1,195.3 		"/>
		<path class="st0" d="M235.5,354.9v156.4h105.3c35.1,0,73.4-20.4,73.4-79.2c0-58.1-46-77.2-77.2-77.2H235.5L235.5,354.9z
			 M180,764.7V303.2h162.8c95.7,0,123.2,79.2,123.2,127c0,48.5-19.8,133.4-121.9,133.4H235.5v201.1H180L180,764.7z"/>
	</g>
</g>
</svg>
