<?xml version="1.0" encoding="utf-8"?>
<!-- Generator: Adobe Illustrator 19.2.0, SVG Export Plug-In . SVG Version: 6.00 Build 0)  -->
<svg version="1.1" id="Livello_1" xmlns="http://www.w3.org/2000/svg" xmlns:xlink="http://www.w3.org/1999/xlink" x="0px" y="0px"
	 viewBox="0 0 960 960" style="enable-background:new 0 0 960 960;" xml:space="preserve">
<style type="text/css">
	.st0{fill-rule:evenodd;clip-rule:evenodd;fill:#1A171B;stroke:#1A171B;stroke-width:0.6609;stroke-miterlimit:2.6131;}
</style>
<g>
	<g>
		<polygon class="st0" points="780,456.9 599.6,456.9 599.6,507.1 780,507.1 780,456.9 		"/>
		<polygon class="st0" points="757.5,641.3 601.3,551 576.2,594.5 732.4,684.8 757.5,641.3 		"/>
		<path class="st0" d="M405.3,699.4c-57.5-4-104.4-34.4-136.8-75.3c-44.3-58.8-48.2-147.4-33-222l15.9-39.7
			c29.1-49.6,69.4-85.3,132.8-100.5c11.9-1.3,23.1-0.7,35.7-1.3l4,0.7c11.2,5.3,18.5,16.5,27.8,29.1c1.3,6.6,5.3,13.9,9.9,20.5
			c54.2,113,43.6,254.4-15.9,366.1c-2,4-5.3,8.6-9.3,13.2l-2.6,2.6C427.1,697.4,414.5,699.4,405.3,699.4L405.3,699.4z M389.4,747.7
			c-74.7-11.9-132.2-56.2-171.2-114.3c-2.6-3.3-4.6-7.9-7.3-13.2c-4-0.7-2.6-7.3-6.6-9.9v-2.6c-33-74.7-29.7-159.3-6.6-238.6
			c4-7.9,4.6-15.2,10.6-23.1v-2.6c1.3-4,4-8.6,5.9-13.9l4-2.6c23.8-48.2,64.1-76.7,111.7-96.5c33-15.9,70.7-18.5,105.7-17.8
			c28.4,11.9,43,39,61.5,64.8l20.5,39c29.1,78,36.3,171.8,16.5,258.4c-21.1,62.8-35,127.6-78,165.9c-16.5,11.9-42.3,5.3-63.4,7.3
			H389.4L389.4,747.7z"/>
		<path class="st0" d="M320.7,473.4h37c14.7,0,26.5-5.3,30.7-9.3c5.6-4,14-15.9,14-29.1c0-4.6-1.4-10.6-2.1-14.5
			c-2.8-7.9-13.3-17.8-20.9-20.5c-3.5-0.7-16.7-4-25.1-4h-33.5V473.4L320.7,473.4z M297,589.7V373.6h63.5c19.5,0,35.6,6.6,46.1,15.2
			c10.5,8.6,18.8,27.8,18.8,43c0,15.2-4.9,27.8-5.6,32.4c-0.7,4.6-12.6,17.8-20.9,20.5c10.5,4.6,20.9,23.8,20.9,37
			c0,4.6,1.4,15.9,1.4,27.8c0,19.8,5.6,34.4,8.4,40.3h-23c-2.8-3.3-8.4-18.5-8.4-39c0-2.6,0-5.3,0-7.3v-5.3
			c0-20.5-11.2-29.1-12.6-32.4c-0.7-1.3-11.2-9.9-21.6-9.9c-17.4,0-25.1,0-43.3,0v93.8H297L297,589.7z"/>
	</g>
</g>
</svg>
