<?xml version="1.0" encoding="utf-8"?>
<!-- Generator: Adobe Illustrator 19.2.0, SVG Export Plug-In . SVG Version: 6.00 Build 0)  -->
<svg version="1.1" id="Livello_1" xmlns="http://www.w3.org/2000/svg" xmlns:xlink="http://www.w3.org/1999/xlink" x="0px" y="0px"
	 viewBox="0 0 789 436" style="enable-background:new 0 0 789 436;" xml:space="preserve">
<style type="text/css">
	.st0{fill:#F6BF32;stroke:#000000;stroke-width:2;stroke-miterlimit:2.6131;}
	.st1{fill:#1A171B;stroke:#1A171B;stroke-width:0.3902;stroke-miterlimit:2.6131;}
</style>
<g>
	<rect x="3.5" y="3" class="st0" width="782" height="430"/>
	<g>
		<polygon class="st1" points="593.5,203.9 427.3,203.9 427.3,233.6 593.5,233.6 		"/>
		<polygon class="st1" points="593.5,115.4 427.3,115.4 427.3,145 593.5,145 		"/>
		<polygon class="st1" points="593.5,292.9 427.3,292.9 427.3,322.6 593.5,322.6 		"/>
		<path class="st1" d="M402.7,213.6c0-32.8-2.4-161.1-50.4-182.2c-16.8-0.3-35.1,4.7-49.2,11.3c-43.7,17.9-73.4,53.1-92.5,94.4
			c0,3.2-2.3,4.7-2.3,8.2c-19.9,51.5-16.8,115.5,8.6,163.5v2.3l1.6,1.6c2.7,5.5,5.5,9,7.4,14.1c21.1,32.8,76.5,78.4,117.8,78.3
			c6.3,0.7,14.5-1.6,18-4.7C403.9,362.3,402.7,246.4,402.7,213.6z M353.6,359.6c-1.9,4.3-6.6,12.1-9.8,15.2
			c-38.6-3.5-80.4-42.1-97.5-75.3c-9.4-9.4-18-48.8-19.1-63.2c-2.3-32.4,2.3-58.1,12.5-88.6c-0.1-9,23-38.2,30.4-46
			c19.9-19.9,45.6-35.1,73.8-39.4c11.7,11.7,18.7,43.7,21.8,60.5C375.5,195.4,379.8,290.2,353.6,359.6z"/>
		<path class="st1" d="M506.6,419.3l-28.1-16c11.3-14.9,22.6-29.3,22.6-51.5c0-35.9-30.5-52.7-30.5-88.6s30.5-53.1,30.5-88.6
			s-30.5-53.1-30.5-89c0-28.1,12.5-49.2,24.9-69.1l26.9,15.6c-10.5,15.2-21.4,32-21.4,53.5c0,35.9,30.8,53.5,30.8,89
			S501,227.3,501,263.2s30.8,52.7,30.8,88.6C531.9,379.5,520.2,399.4,506.6,419.3L506.6,419.3z"/>
	</g>
</g>
</svg>
