<?xml version="1.0" encoding="utf-8"?>
<!-- Generator: Adobe Illustrator 19.2.0, SVG Export Plug-In . SVG Version: 6.00 Build 0)  -->
<svg version="1.1" id="Livello_1" xmlns="http://www.w3.org/2000/svg" xmlns:xlink="http://www.w3.org/1999/xlink" x="0px" y="0px"
	 viewBox="0 0 789 436" style="enable-background:new 0 0 789 436;" xml:space="preserve">
<style type="text/css">
	.st0{fill:#1A863A;stroke:#000000;stroke-width:2;stroke-miterlimit:2.6131;}
	.st1{fill:#1A171B;stroke:#1A171B;stroke-width:0.4197;stroke-miterlimit:2.6131;}
</style>
<g>
	<rect x="3.5" y="3" class="st0" width="782" height="430"/>
	<g>
		<path class="st1" d="M279.7,413.1l-31-15.5c12.5-14.3,25-28.3,25-49.8c0-34.7-33.6-50.9-33.6-85.7c0-34.7,33.6-51.3,33.6-85.7
			s-33.6-51.3-33.6-86c0-27.2,13.8-47.5,27.5-66.8l29.7,15.1c-11.6,14.7-23.7,31-23.7,51.7c0,34.7,34,51.7,34,86
			c0,34.4-34,50.9-34,85.7s34,50.9,34,85.7C307.8,374.6,294.8,393.9,279.7,413.1L279.7,413.1z"/>
		<path class="st1" d="M570.8,49c-23.1-18.9-59.6-31.5-92.8-23.9c-36.9,13.5-55.4,106.6-55.4,144.4c0,42.9,12.6,86.9,32.7,121.3
			c8,10.9,21.4,25.5,36.5,25.5c45,0,82.7-20.6,108.7-57.1c12.2-18,20.6-38.6,24.4-61.3C632.4,140.9,616.1,80.5,570.8,49z
			 M593.4,184.7c-5,53.3-44.5,98.7-100.7,98.7c-15.6-10.9-26.5-46.6-31-63.8c-11.4-46.7-5.5-125.2,26-162.1
			c8.4-8.4,47.8,6.3,55,11.8C583.8,97.8,595.5,135.5,593.4,184.7z"/>
		<polygon class="st1" points="396.6,151.5 396.6,185.4 162.8,270.6 162.8,236.6 		"/>
		<polygon class="st1" points="414.6,53.3 414.6,87.6 162.4,179.5 162.4,145.1 		"/>
		<polygon class="st1" points="414.6,246.7 414.6,281.1 162.4,373.1 162.4,338.6 		"/>
	</g>
</g>
</svg>
