<?xml version="1.0" encoding="utf-8"?>
<!-- Generator: Adobe Illustrator 19.2.0, SVG Export Plug-In . SVG Version: 6.00 Build 0)  -->
<svg version="1.1" id="Livello_1" xmlns="http://www.w3.org/2000/svg" xmlns:xlink="http://www.w3.org/1999/xlink" x="0px" y="0px"
	 viewBox="0 0 960 960" style="enable-background:new 0 0 960 960;" xml:space="preserve">
<style type="text/css">
	.st0{fill-rule:evenodd;clip-rule:evenodd;fill:#1A171B;stroke:#1A171B;stroke-width:0.5281;stroke-miterlimit:2.6131;}
</style>
<g>
	<g>
		<path class="st0" d="M366.9,614.4c-47-80.3-39.6-190.1-28-284.1c3.2-10.6,13.2-41.2,18.5-49.6c7.9-17.4,21.7-31.7,39.1-39.6
			c80.3-10.6,235.5,13.7,303.6,53.3c20.1,13.2,39.1,31.7,53.3,52.3l4.2,6.3c3.2,6.3,6.9,14.3,11.6,21.1
			c16.9,47.5,14.3,107.2-11.6,148.9c-0.5,2.6-2.1,5.3-5.8,9c-14.8,20.1-30.1,33.8-45.9,46.5c-63.9,42.3-217.6,61.8-296.2,59.7
			C392.3,638.2,375.9,629.2,366.9,614.4L366.9,614.4z M180.5,613.9v-41.2h114.1c3.7,16.9,8.4,29,15.3,41.2H180.5L180.5,613.9z
			 M418.2,596.4l-6.9-4.7c-10.6-5.3-15.3-19-22.2-31.2c-20.1-85-22.2-178.5,10-262.4c2.1-4.2,6.3-9.5,12.1-13.7
			c33.8-13.2,143.1-0.5,184.8,11.6c5.3,0.5,7.9,2.6,13.7,5.3c45.9,15.3,85.5,41.2,111.4,80.8c13.7,25.3,18.5,59.7,9,89.2
			c-10,31.7-33.3,57-60.7,75.5C611.4,590.1,487.3,596.4,418.2,596.4L418.2,596.4z M180.5,536.2v-41.2h101.9l5.3,41.2H180.5
			L180.5,536.2z M180.5,458.6L180,418l102.4-0.5v41.2H180.5L180.5,458.6z M180.5,381v-41.2h107.2l-5.3,41.2H180.5L180.5,381z
			 M180.5,303.9v-42.2h129.4c-7.9,13.7-14.3,25.3-18,41.7L180.5,303.9L180.5,303.9z"/>
		<path class="st0" d="M544.6,650.8L427.1,455l-25.4,17.6l116.4,194c-3.8,5.4-7.6,12.6-7.8,18.7c-0.5,19.5,15,35.7,34.4,36.1
			c19.5,0.5,35.7-15,36.1-34.4C581.4,666.9,562.3,650.6,544.6,650.8L544.6,650.8z"/>
		<path class="st0" d="M659,376.8l17.5-11.6c5.3,9.2,8.8,20.8,8.8,33.1h-20.3C664.9,390.2,662.4,382.9,659,376.8L659,376.8z
			 M568.5,402.2h-20.6v-4.3c0-8-2.5-15.3-5.6-21.4l16.3-10.4c0,0,14.4,9.2,15.6,9.8c-3.1,5.2-4.7,10.7-5.6,16.8V402.2L568.5,402.2z
			 M568.5,527.6h-20.6v-34.9h20.6V527.6L568.5,527.6z M547.9,535h20.6v35.5h-20.6V535L547.9,535z M568.5,485.4h-20.6v-34.3h20.6
			V485.4L568.5,485.4z M568.5,443.8h-20.6v-34.3h20.6V443.8L568.5,443.8z M555.4,358.7l-16.9,11.6c-5-6.1-10.6-11.6-17.5-14.7
			l7.5-19C539.1,341.6,548.5,348.9,555.4,358.7L555.4,358.7z M520.9,334.2l-6.9,19c-4.4-1.8-8.8-3.1-13.8-3.1c-4.4,0-10,1.2-15,2.4
			l-6.3-18.4c6.3-2.4,13.1-3.7,21.3-3.7C507.8,330.6,514.1,331.8,520.9,334.2L520.9,334.2z M472.1,336.7l6.9,19
			c-6.9,2.4-13.8,8-18.2,14.7l-16.3-12.2C450.8,348.9,460.9,341,472.1,336.7L472.1,336.7z M440.2,364.2l17.5,11.6
			c-3.8,6.1-6.3,14.1-6.3,22h-20C431.4,385.6,434.6,374,440.2,364.2L440.2,364.2z M672.1,358.7l-16.9,11.9c-4.4-6.4-11-11.6-17.2-15
			l6.6-18.7C655.8,341.6,665.5,349.2,672.1,358.7L672.1,358.7z M638,334.2l-6.6,19c-4.7-1.8-10.6-2.8-14.7-2.8
			c-5.3,0-9.7,0.9-13.8,2.4l-7.2-18.7c6.9-2.4,13.5-3.7,21-3.7C624.5,330.6,631.7,331.8,638,334.2L638,334.2z M588.8,336.7l7.5,19
			c-7.8,2.8-13.8,8.3-18.8,14.7l-16.3-11.9C567.9,348.9,577.6,341.3,588.8,336.7L588.8,336.7z"/>
	</g>
</g>
</svg>
