<?xml version="1.0" encoding="utf-8"?>
<!-- Generator: Adobe Illustrator 19.2.0, SVG Export Plug-In . SVG Version: 6.00 Build 0)  -->
<svg version="1.1" id="Livello_1" xmlns="http://www.w3.org/2000/svg" xmlns:xlink="http://www.w3.org/1999/xlink" x="0px" y="0px"
	 viewBox="0 0 789 434.6" style="enable-background:new 0 0 789 434.6;" xml:space="preserve">
<style type="text/css">
	.st0{fill:#CB0100;stroke:#000000;stroke-width:2;stroke-miterlimit:2.6131;}
	.st1{fill:#1A171B;stroke:#1A171B;stroke-width:0.4673;stroke-miterlimit:2.6131;}
</style>
<g>
	<rect x="3.5" y="2.3" class="st0" width="782" height="430"/>
	<path class="st1" d="M362.9,136.7v72.2h48.6c16.2,0,33.9-9.4,33.9-36.5c0-26.8-21.2-35.7-35.7-35.7H362.9L362.9,136.7z
		 M337.3,325.8V112.9h75.1c44.2,0,56.8,36.5,56.8,58.6c0,22.4-9.1,61.6-56.2,61.6h-50.1v92.8L337.3,325.8L337.3,325.8z"/>
	<path class="st1" d="M394.8,27.3c-104.7,0-190.2,86-190.2,189.7c0,104.7,85.5,190.2,190.2,190.2c103.7,0,189.7-85.5,189.7-190.2
		C584.5,113.3,498.5,27.3,394.8,27.3z M394.8,373.6c-86.4,0-156.6-70.1-156.6-156.6c0-85.5,70.1-156,156.6-156
		c85.5,0,156,70.6,156,156C550.8,303.6,480.2,373.6,394.8,373.6z"/>
	<path class="st1" d="M196.2,54.5l26.7,26.7c-29.9,37.4-47.7,85.1-47.7,136c0,56.1,20.6,107,54.7,145.3l-26.7,26.7
		c-41.2-45.8-65.8-106.1-65.8-171.9C137.3,155.8,159.2,98.9,196.2,54.5L196.2,54.5z"/>
	<path class="st1" d="M586.3,387.6l-26.7-26.7c33.6-38.3,54.2-88.7,54.2-143.9c0-50.5-18.3-97.7-47.7-135l26.7-26.7
		c36.4,44.4,58.9,100.9,58.9,161.7C651.7,282.5,626.9,342.3,586.3,387.6L586.3,387.6z"/>
</g>
</svg>
