<?xml version="1.0" encoding="utf-8"?>
<!-- Generator: Adobe Illustrator 19.2.0, SVG Export Plug-In . SVG Version: 6.00 Build 0)  -->
<svg version="1.1" id="Livello_1" xmlns="http://www.w3.org/2000/svg" xmlns:xlink="http://www.w3.org/1999/xlink" x="0px" y="0px"
	 viewBox="0 0 788 434.8" style="enable-background:new 0 0 788 434.8;" xml:space="preserve">
<style type="text/css">
	.st0{fill:#CB0100;stroke:#000000;stroke-width:2;stroke-miterlimit:2.6131;}
	.st1{fill:#1A171B;stroke:#1A171B;stroke-width:0.4673;stroke-miterlimit:2.6131;}
	.st2{fill:#1A171B;stroke:#1A171B;stroke-width:0.4919;stroke-miterlimit:2.6131;}
</style>
<g>
	<rect x="3" y="2.4" class="st0" width="782" height="430"/>
	<path class="st1" d="M394.3,27.4c-104.7,0-190.2,86-190.2,189.7c0,104.7,85.5,190.2,190.2,190.2C498,407.3,584,321.8,584,217.1
		C584,113.4,498,27.4,394.3,27.4z M394.3,373.7c-86.4,0-156.6-70.1-156.6-156.6c0-85.5,70.1-156,156.6-156c85.5,0,156,70.6,156,156
		C550.3,303.7,479.7,373.7,394.3,373.7z"/>
	<path class="st1" d="M195.7,54.6l26.7,26.7c-29.9,37.4-47.7,85.1-47.7,136c0,56.1,20.6,107,54.7,145.3l-26.7,26.7
		c-41.2-45.8-65.8-106.1-65.8-171.9C136.8,155.9,158.7,99,195.7,54.6L195.7,54.6z"/>
	<path class="st1" d="M585.8,387.7L559.1,361c33.6-38.3,54.2-88.7,54.2-143.9c0-50.5-18.3-97.7-47.7-135l26.7-26.7
		c36.4,44.4,58.9,100.9,58.9,161.7C651.2,282.6,626.4,342.4,585.8,387.7L585.8,387.7z"/>
	<path class="st2" d="M390.3,102.6h7.4c11.6,0,21.1,9.5,21.1,21.1v110.7c0,11.6-9.5,21.1-21.1,21.1h-7.4c-11.6,0-21.1-9.5-21.1-21.1
		V123.7C369.2,112.1,378.7,102.6,390.3,102.6L390.3,102.6z"/>
	<path class="st2" d="M394,332.7c14,0,25.4-11.4,25.4-25.4S408,281.9,394,281.9s-25.4,11.5-25.4,25.5S380,332.7,394,332.7L394,332.7
		z"/>
</g>
</svg>
