<?xml version="1.0" encoding="utf-8"?>
<!-- Generator: Adobe Illustrator 19.2.0, SVG Export Plug-In . SVG Version: 6.00 Build 0)  -->
<svg version="1.1" id="Livello_1" xmlns="http://www.w3.org/2000/svg" xmlns:xlink="http://www.w3.org/1999/xlink" x="0px" y="0px"
	 viewBox="0 0 960 960" style="enable-background:new 0 0 960 960;" xml:space="preserve">
<style type="text/css">
	.st0{fill-rule:evenodd;clip-rule:evenodd;fill:#1A171B;stroke:#1A171B;stroke-width:0.5828;stroke-miterlimit:2.6131;}
</style>
<g>
	<g>
		<path class="st0" d="M480.9,409.5c7.6-31.5,3.5-40.8,26.2-92.7c22.1-53.6,61.8-74.6,97.9-83.9c36.1-9.3,85.1,15.2,110.7,35
			c40.8,31.5,69.9,92.1,62.9,141c-4.7,31.5-18.7,55.9-61.8,68.8c-43.1,14-93.2-26.8-145.7-18.7c-12.2,2.9-15.2,12.2-21,16.9
			c0,1.7,0.6,3.5,0.6,4.7l0,0c31.5,8.2,39.6,3.5,93.2,26.8c52.4,22.1,73.4,61.8,82.8,97.9c9.3,36.1-15.2,85.1-35,110.7
			c-30.3,40.8-92.1,69.9-141,62.9c-31.5-4.7-54.8-18.6-68.8-61.8c-12.8-43.1,28-93.2,18.7-145.7c-2.3-11.1-9.3-15.2-14.6-19.2
			c-2.3,0-4.1,0-6.4,0c-0.6,0-0.6,0-0.6,0c-7,28-4.1,39-26.2,89.2C430.8,695,391.1,716,355,725.3c-36.1,9.3-85.1-15.2-110.7-35
			c-40.8-31.5-69.9-92.1-62.9-141c4.7-31.5,18.7-55.9,61.8-68.8c43.1-14,93.2,26.8,145.7,18.7c11.1-2.9,14.6-9.9,19.2-15.2
			c0-1.2,0-2.3,0-3.5V480c-30.3-7.6-39-4.7-92.1-26.2c-52.5-23.3-73.4-61.8-82.8-99.1c-9.3-36.1,15.2-85.1,35-110.7
			c30.3-40.8,92.1-69.9,141-62.9c31.5,4.7,54.8,19.8,68.8,62.9c12.8,43.1-28,92.1-18.6,144.5c3.5,12.2,11.7,15.2,16.9,21
			c1.2,0,2.3-0.6,3.5-0.6C479.7,408.9,480.3,409.5,480.9,409.5L480.9,409.5z M480.3,448.5c17.5,0,31.5,14,31.5,31.5
			c0,17.5-14,32.6-31.5,32.6c-17.5,0-32.6-15.2-32.6-32.6C447.7,462.5,462.8,448.5,480.3,448.5L480.3,448.5z"/>
	</g>
</g>
</svg>
