<?xml version="1.0" encoding="utf-8"?>
<!-- Generator: Adobe Illustrator 19.2.0, SVG Export Plug-In . SVG Version: 6.00 Build 0)  -->
<svg version="1.1" id="Livello_1" xmlns="http://www.w3.org/2000/svg" xmlns:xlink="http://www.w3.org/1999/xlink" x="0px" y="0px"
	 viewBox="0 0 960 960" style="enable-background:new 0 0 960 960;" xml:space="preserve">
<style type="text/css">
	.st0{fill:#1A171B;}
</style>
<g>
	<path class="st0" d="M285.7,575.3h-56.4c-2,0-3.6,1.6-3.6,3.6v56.3c0,2,1.6,3.6,3.6,3.6c-2,0-3.6,1.6-3.6,3.6v56.4
		c0,2,1.6,3.6,3.6,3.6h56.4c2,0,3.6-1.6,3.6-3.6v-56.4c0-2-1.6-3.6-3.6-3.6c2,0,3.6-1.6,3.6-3.6V579
		C289.3,577,287.7,575.3,285.7,575.3z"/>
	<path class="st0" d="M229.4,511.8h56.4c2,0,3.6-1.6,3.6-3.6v-56.4c0-2-1.6-3.6-3.6-3.6c2,0,3.6-1.6,3.6-3.6v-56.4
		c0-2-1.6-3.6-3.6-3.6c2,0,3.6-1.6,3.6-3.6v-56.4c0-2-1.6-3.6-3.6-3.6c2,0,3.6-1.6,3.6-3.6v-56.4c0-2-1.6-3.6-3.6-3.6h-56.4
		c-2,0-3.6,1.6-3.6,3.6v56.4c0,2,1.6,3.6,3.6,3.6c-2,0-3.6,1.6-3.6,3.6v56.4c0,2,1.6,3.6,3.6,3.6c-2,0-3.6,1.6-3.6,3.6v56.4
		c0,2,1.6,3.6,3.6,3.6c-2,0-3.6,1.6-3.6,3.6v56.4C225.8,510.2,227.4,511.8,229.4,511.8z"/>
	<path class="st0" d="M730.6,638.9L730.6,638.9c2,0,3.6-1.6,3.6-3.6V579c0-2-1.6-3.6-3.6-3.6c2,0,3.6-1.6,3.6-3.6v-56.4
		c0-2-1.6-3.6-3.6-3.6h-56.4c-2,0-3.6,1.6-3.6,3.6c0-2-1.6-3.6-3.6-3.6h-56.3c-2,0-3.6,1.6-3.6,3.6c0-2-1.6-3.6-3.6-3.6h-56.4
		c-2,0-3.6,1.6-3.6,3.6c0-2-1.6-3.6-3.6-3.6h-56.4c-2,0-3.6,1.6-3.6,3.6l0,0c0-2-1.6-3.6-3.6-3.6H420c-2,0-3.6,1.6-3.6,3.6l0,0
		c0-2-1.6-3.6-3.6-3.6h-56.4c-2,0-3.6,1.6-3.6,3.6c0-2-1.6-3.6-3.6-3.6h-56.4c-2,0-3.6,1.6-3.6,3.6c0-2-1.6-3.6-3.6-3.6h-56.4
		c-2,0-3.6,1.6-3.6,3.6v56.4c0,2,1.6,3.6,3.6,3.6h56.4c2,0,3.6-1.6,3.6-3.6c0,2,1.6,3.6,3.6,3.6h56.4c2,0,3.6-1.6,3.6-3.6
		c0,2,1.6,3.6,3.6,3.6h56.4c2,0,3.6-1.6,3.6-3.6l0,0c0,2,1.6,3.6,3.6,3.6h56.4c2,0,3.6-1.6,3.6-3.6c0,2,1.6,3.6,3.6,3.6H540
		c2,0,3.6-1.6,3.6-3.6c0,2,1.6,3.6,3.6,3.6h56.4c2,0,3.6-1.6,3.6-3.6c0,2,1.6,3.6,3.6,3.6h56.3c2,0,3.6-1.6,3.6-3.6
		c0,2,1.6,3.6,3.6,3.6c-2,0-3.6,1.6-3.6,3.6v56.3c0,2,1.6,3.6,3.6,3.6h0c-2,0-3.6,1.6-3.6,3.6v56.4c0,2,1.6,3.6,3.6,3.6h56.4
		c2,0,3.6-1.6,3.6-3.6v-56.4C734.2,640.5,732.6,638.9,730.6,638.9z"/>
</g>
</svg>
