<?xml version="1.0" encoding="utf-8"?>
<!-- Generator: Adobe Illustrator 19.2.0, SVG Export Plug-In . SVG Version: 6.00 Build 0)  -->
<svg version="1.1" id="Livello_1" xmlns="http://www.w3.org/2000/svg" xmlns:xlink="http://www.w3.org/1999/xlink" x="0px" y="0px"
	 viewBox="0 0 960 960" style="enable-background:new 0 0 960 960;" xml:space="preserve">
<style type="text/css">
	.st0{fill:#1A171B;}
</style>
<g>
	<path class="st0" d="M451.9,511.8h56.3c2,0,3.6-1.6,3.6-3.6v-56.3c0-2-1.6-3.6-3.6-3.6h-56.3c-2,0-3.6,1.6-3.6,3.6v56.3
		C448.3,510.2,449.9,511.8,451.9,511.8z"/>
	<path class="st0" d="M444.8,511.8h-56.4c-2,0-3.6,1.6-3.6,3.6v56.4c0,2,1.6,3.6,3.6,3.6h56.4c2,0,3.6-1.6,3.6-3.6v-56.4
		C448.4,513.4,446.8,511.8,444.8,511.8z"/>
	<path class="st0" d="M571.8,384.7h-56.4c-2,0-3.6,1.6-3.6,3.6v56.4c0,2,1.6,3.6,3.6,3.6h56.4c2,0,3.6-1.6,3.6-3.6v-56.4
		C575.4,386.3,573.8,384.7,571.8,384.7z"/>
	<path class="st0" d="M579,384.7h56.3c2,0,3.6-1.6,3.6-3.6v-56.4c0-2-1.6-3.6-3.6-3.6c2,0,3.6-1.6,3.6-3.6v-56.4
		c0-2-1.6-3.6-3.6-3.6H579c-2,0-3.6,1.6-3.6,3.6v56.4c0,2,1.6,3.6,3.6,3.6c-2,0-3.6,1.6-3.6,3.6v56.4C575.4,383,577,384.7,579,384.7
		z"/>
	<path class="st0" d="M702.5,508.2v-56.3c0-2-1.6-3.6-3.6-3.6l0,0c2,0,3.6-1.6,3.6-3.6v-56.4c0-2-1.6-3.6-3.6-3.6
		c2,0,3.6-1.6,3.6-3.6v-56.4c0-2-1.6-3.6-3.6-3.6c2,0,3.6-1.6,3.6-3.6v-56.4c0-2-1.6-3.6-3.6-3.6h-56.4c-2,0-3.6,1.6-3.6,3.6v56.4
		c0,2,1.6,3.6,3.6,3.6c-2,0-3.6,1.6-3.6,3.6v56.4c0,2,1.6,3.6,3.6,3.6c-2,0-3.6,1.6-3.6,3.6v56.4c0,2,1.6,3.6,3.6,3.6l0,0
		c-2,0-3.6,1.6-3.6,3.6v56.3c0,2,1.6,3.6,3.6,3.6c-2,0-3.6,1.6-3.6,3.6v56.4c0,2,1.6,3.6,3.6,3.6c-2,0-3.6,1.6-3.6,3.6v56.3
		c0,2,1.6,3.6,3.6,3.6h56.4c2,0,3.6-1.6,3.6-3.6V579c0-2-1.6-3.6-3.6-3.6c2,0,3.6-1.6,3.6-3.6v-56.4c0-2-1.6-3.6-3.6-3.6
		C700.9,511.8,702.5,510.2,702.5,508.2z"/>
	<g>
		<path class="st0" d="M698.9,638.9h-56.4c-2,0-3.6,1.6-3.6,3.6v56.4c0,2,1.6,3.6,3.6,3.6h56.4c2,0,3.6-1.6,3.6-3.6v-56.4
			C702.5,640.5,700.9,638.9,698.9,638.9z"/>
		<path class="st0" d="M635.3,638.9H579c-2,0-3.6,1.6-3.6,3.6v56.4c0,2,1.6,3.6,3.6,3.6h56.3c2,0,3.6-1.6,3.6-3.6v-56.4
			C639,640.5,637.3,638.9,635.3,638.9z"/>
		<path class="st0" d="M571.8,257.5h-56.4c-2,0-3.6,1.6-3.6,3.6c0-2-1.6-3.6-3.6-3.6h-56.3c-1.7,0-3.2,1.2-3.5,2.9
			c-0.3-1.6-1.8-2.9-3.5-2.9h-56.4c-2,0-3.6,1.6-3.6,3.6c0-2-1.6-3.6-3.6-3.6h-56.4c-2,0-3.6,1.6-3.6,3.6c0-2-1.6-3.6-3.6-3.6h-56.4
			c-2,0-3.6,1.6-3.6,3.6v56.4c0,2,1.6,3.6,3.6,3.6h-0.2c-2,0-3.6,1.6-3.6,3.6v56.4c0,2,1.6,3.6,3.6,3.6c-2,0-3.6,1.6-3.6,3.6v56.4
			c0,2,1.6,3.6,3.6,3.6h0.5c-2,0-3.6,1.6-3.6,3.6v56.3c0,2,1.6,3.6,3.6,3.6c-2,0-3.6,1.6-3.6,3.6v56.4c0,2,1.6,3.6,3.6,3.6
			c-2,0-3.6,1.6-3.6,3.6v56.3c0,2,1.6,3.6,3.6,3.6c-2,0-3.6,1.6-3.6,3.6v56.4c0,2,1.6,3.6,3.6,3.6h56.4c2,0,3.6-1.6,3.6-3.6
			c0,2,1.6,3.6,3.6,3.6h56.4c2,0,3.6-1.6,3.6-3.6c0,2,1.6,3.6,3.6,3.6h56.4c1.6,0,2.9-1,3.4-2.5c0.5,1.4,1.8,2.5,3.4,2.5h56.3
			c2,0,3.6-1.6,3.6-3.6c0,2,1.6,3.6,3.6,3.6h56.4c2,0,3.6-1.6,3.6-3.6v-56.4c0-2-1.6-3.6-3.6-3.6h-56.4c-2,0-3.6,1.6-3.6,3.6
			c0-2-1.6-3.6-3.6-3.6h-56.3c-1.6,0-2.9,1-3.4,2.5c-0.5-1.4-1.8-2.5-3.4-2.5h-56.4c-2,0-3.6,1.6-3.6,3.6c0-2-1.6-3.6-3.6-3.6
			c2,0,3.6-1.6,3.6-3.6V579c0-2-1.6-3.6-3.6-3.6h-56.4c-2,0-3.6,1.6-3.6,3.6c0-2-1.6-3.6-3.6-3.6c2,0,3.6-1.6,3.6-3.6v-56.4
			c0-2-1.6-3.6-3.6-3.6c2,0,3.6-1.6,3.6-3.6v-56.3c0-2-1.6-3.6-3.6-3.6h-0.5c2,0,3.6-1.6,3.6-3.6v-56.4c0-2-1.6-3.6-3.6-3.6
			c2,0,3.6-1.6,3.6-3.6v-56.4c0-2-1.6-3.6-3.6-3.6h0.2c2,0,3.6-1.6,3.6-3.6c0,2,1.6,3.6,3.6,3.6h56.4c2,0,3.6-1.6,3.6-3.6
			c0,2,1.6,3.6,3.6,3.6h56.4c1.7,0,3.2-1.2,3.5-2.9c0.3,1.6,1.8,2.9,3.5,2.9h56.3c2,0,3.6-1.6,3.6-3.6c0,2,1.6,3.6,3.6,3.6h56.4
			c2,0,3.6-1.6,3.6-3.6v-56.4C575.4,259.1,573.8,257.5,571.8,257.5z M321.5,635.3c0,2,1.6,3.6,3.6,3.6c-2,0-3.6,1.6-3.6,3.6
			c0-2-1.6-3.6-3.6-3.6C319.9,638.9,321.5,637.3,321.5,635.3z"/>
	</g>
</g>
</svg>
