<?xml version="1.0" encoding="utf-8"?>
<!-- Generator: Adobe Illustrator 19.2.0, SVG Export Plug-In . SVG Version: 6.00 Build 0)  -->
<svg version="1.1" id="Livello_1" xmlns="http://www.w3.org/2000/svg" xmlns:xlink="http://www.w3.org/1999/xlink" x="0px" y="0px"
	 viewBox="0 0 960 960" style="enable-background:new 0 0 960 960;" xml:space="preserve">
<style type="text/css">
	.st0{fill:#1A171B;}
</style>
<g>
	<path class="st0" d="M444.7,257.5h-56.4c-2,0-3.6,1.6-3.6,3.6c0-2-1.6-3.6-3.6-3.6h-56.4c-2,0-3.6,1.6-3.6,3.6l0,0
		c0-2-1.6-3.6-3.6-3.6h-56.4c-2,0-3.6,1.6-3.6,3.6v56.4c0,2,1.6,3.6,3.6,3.6h56.4c2,0,3.6-1.6,3.6-3.6l0,0c0,2,1.6,3.6,3.6,3.6h56.4
		c2,0,3.6-1.6,3.6-3.6c0,2,1.6,3.6,3.6,3.6h56.4c2,0,3.6-1.6,3.6-3.6v-56.4C448.3,259.1,446.7,257.5,444.7,257.5z"/>
	<path class="st0" d="M444.7,321.1h-56.4c-2,0-3.6,1.6-3.6,3.6c0-2-1.6-3.6-3.6-3.6h-56.4c-2,0-3.6,1.6-3.6,3.6v0
		c0-2-1.6-3.6-3.6-3.6h-56.4c-2,0-3.6,1.6-3.6,3.6v56.4c0,2,1.6,3.6,3.6,3.6c-2,0-3.6,1.6-3.6,3.6v56.4c0,2,1.6,3.6,3.6,3.6
		c-2,0-3.6,1.6-3.6,3.6v56.4c0,2,1.6,3.6,3.6,3.6c-2,0-3.6,1.6-3.6,3.6v56.4c0,2,1.6,3.6,3.6,3.6c-2,0-3.6,1.6-3.6,3.6v56.4
		c0,2,1.6,3.6,3.6,3.6c-2,0-3.6,1.6-3.6,3.6v56.4c0,2,1.6,3.6,3.6,3.6h56.4c2,0,3.6-1.6,3.6-3.6l0,0c0,2,1.6,3.6,3.6,3.6h56.4
		c2,0,3.6-1.6,3.6-3.6c0,2,1.6,3.6,3.6,3.6h56.4c2,0,3.6-1.6,3.6-3.6v-56.4c0-2-1.6-3.6-3.6-3.6c2,0,3.6-1.6,3.6-3.6V579
		c0-2-1.6-3.6-3.6-3.6c2,0,3.6-1.6,3.6-3.6v-56.4c0-2-1.6-3.6-3.6-3.6c2,0,3.6-1.6,3.6-3.6v-56.4c0-2-1.6-3.6-3.6-3.6
		c2,0,3.6-1.6,3.6-3.6v-56.4c0-2-1.6-3.6-3.6-3.6c2,0,3.6-1.6,3.6-3.6v-56.4C448.3,322.7,446.7,321.1,444.7,321.1z M321.2,381.1
		L321.2,381.1c0,2,1.6,3.6,3.6,3.6c-2,0-3.6,1.6-3.6,3.6l0,0c0-2-1.6-3.6-3.6-3.6C319.6,384.7,321.2,383,321.2,381.1z M321.2,444.6
		L321.2,444.6c0,2,1.6,3.6,3.6,3.6c-2,0-3.6,1.6-3.6,3.6l0,0c0-2-1.6-3.6-3.6-3.6C319.6,448.2,321.2,446.6,321.2,444.6z
		 M321.2,508.2L321.2,508.2c0,2,1.6,3.6,3.6,3.6c-2,0-3.6,1.6-3.6,3.6v0c0-2-1.6-3.6-3.6-3.6C319.6,511.8,321.2,510.2,321.2,508.2z
		 M321.2,571.7L321.2,571.7c0,2,1.6,3.6,3.6,3.6c-2,0-3.6,1.6-3.6,3.6l0,0c0-2-1.6-3.6-3.6-3.6C319.6,575.3,321.2,573.7,321.2,571.7
		z M321.2,642.5L321.2,642.5c0-2-1.6-3.6-3.6-3.6c2,0,3.6-1.6,3.6-3.6l0,0c0,2,1.6,3.6,3.6,3.6C322.8,638.9,321.2,640.5,321.2,642.5
		z M384.7,642.5c0-2-1.6-3.6-3.6-3.6c2,0,3.6-1.6,3.6-3.6c0,2,1.6,3.6,3.6,3.6C386.3,638.9,384.7,640.5,384.7,642.5z M384.7,579
		c0-2-1.6-3.6-3.6-3.6c2,0,3.6-1.6,3.6-3.6c0,2,1.6,3.6,3.6,3.6C386.3,575.3,384.7,577,384.7,579z M384.7,515.4c0-2-1.6-3.6-3.6-3.6
		c2,0,3.6-1.6,3.6-3.6c0,2,1.6,3.6,3.6,3.6C386.3,511.8,384.7,513.4,384.7,515.4z M384.7,451.8c0-2-1.6-3.6-3.6-3.6
		c2,0,3.6-1.6,3.6-3.6c0,2,1.6,3.6,3.6,3.6C386.3,448.2,384.7,449.8,384.7,451.8z M384.7,388.3c0-2-1.6-3.6-3.6-3.6
		c2,0,3.6-1.6,3.6-3.6c0,2,1.6,3.6,3.6,3.6C386.3,384.7,384.7,386.3,384.7,388.3z"/>
	<path class="st0" d="M702.4,508.2v-56.3c0-2-1.6-3.6-3.6-3.6h0c2,0,3.6-1.6,3.6-3.6v-56.4c0-2-1.6-3.6-3.6-3.6c2,0,3.6-1.6,3.6-3.6
		v-56.4c0-2-1.6-3.6-3.6-3.6c2,0,3.6-1.6,3.6-3.6v-56.4c0-2-1.6-3.6-3.6-3.6h-56.4c-2,0-3.6,1.6-3.6,3.6v56.4c0,2,1.6,3.6,3.6,3.6
		c-2,0-3.6,1.6-3.6,3.6V381c0,2,1.6,3.6,3.6,3.6c-2,0-3.6,1.6-3.6,3.6v56.4c0,2,1.6,3.6,3.6,3.6l0,0c-2,0-3.6,1.6-3.6,3.6
		c0-2-1.6-3.6-3.6-3.6l0,0c2,0,3.6-1.6,3.6-3.6v-56.4c0-2-1.6-3.6-3.6-3.6c2,0,3.6-1.6,3.6-3.6v-56.4c0-2-1.6-3.6-3.6-3.6
		c2,0,3.6-1.6,3.6-3.6v-56.4c0-2-1.6-3.6-3.6-3.6h-56.4c-2,0-3.6,1.6-3.6,3.6v56.4c0,2,1.6,3.6,3.6,3.6c-2,0-3.6,1.6-3.6,3.6V381
		c0,2,1.6,3.6,3.6,3.6c-2,0-3.6,1.6-3.6,3.6v56.4c0,2,1.6,3.6,3.6,3.6l0,0c-2,0-3.6,1.6-3.6,3.6c0-2-1.6-3.6-3.6-3.6l0,0
		c2,0,3.6-1.6,3.6-3.6v-56.4c0-2-1.6-3.6-3.6-3.6c2,0,3.6-1.6,3.6-3.6v-56.4c0-2-1.6-3.6-3.6-3.6c2,0,3.6-1.6,3.6-3.6v-56.4
		c0-2-1.6-3.6-3.6-3.6h-56.4c-2,0-3.6,1.6-3.6,3.6v56.4c0,2,1.6,3.6,3.6,3.6c-2,0-3.6,1.6-3.6,3.6V381c0,2,1.6,3.6,3.6,3.6
		c-2,0-3.6,1.6-3.6,3.6v56.4c0,2,1.6,3.6,3.6,3.6l0,0c-2,0-3.6,1.6-3.6,3.6v56.4c0,2,1.6,3.6,3.6,3.6l0,0c-2,0-3.6,1.6-3.6,3.6v56.4
		c0,2,1.6,3.6,3.6,3.6c-2,0-3.6,1.6-3.6,3.6v56.4c0,2,1.6,3.6,3.6,3.6h56.4c2,0,3.6-1.6,3.6-3.6v-56.4c0-2-1.6-3.6-3.6-3.6
		c2,0,3.6-1.6,3.6-3.6v-56.4c0-2-1.6-3.6-3.6-3.6l0,0c2,0,3.6-1.6,3.6-3.6c0,2,1.6,3.6,3.6,3.6l0,0c-2,0-3.6,1.6-3.6,3.6v56.4
		c0,2,1.6,3.6,3.6,3.6c-2,0-3.6,1.6-3.6,3.6v56.4c0,2,1.6,3.6,3.6,3.6h56.4c2,0,3.6-1.6,3.6-3.6v-56.4c0-2-1.6-3.6-3.6-3.6
		c2,0,3.6-1.6,3.6-3.6v-56.4c0-2-1.6-3.6-3.6-3.6l0,0c2,0,3.6-1.6,3.6-3.6c0,2,1.6,3.6,3.6,3.6l0,0c-2,0-3.6,1.6-3.6,3.6v56.4
		c0,2,1.6,3.6,3.6,3.6c-2,0-3.6,1.6-3.6,3.6v56.4c0,2,1.6,3.6,3.6,3.6h56.4c2,0,3.6-1.6,3.6-3.6v-56.4c0-2-1.6-3.6-3.6-3.6
		c2,0,3.6-1.6,3.6-3.6v-56.4c0-2-1.6-3.6-3.6-3.6h0C700.8,511.8,702.4,510.2,702.4,508.2z"/>
	<path class="st0" d="M698.8,638.9h-56.4c-2,0-3.6,1.6-3.6,3.6v56.4c0,2,1.6,3.6,3.6,3.6h56.4c2,0,3.6-1.6,3.6-3.6v-56.4
		C702.4,640.5,700.8,638.9,698.8,638.9z"/>
	<path class="st0" d="M635.2,638.9h-56.4c-2,0-3.6,1.6-3.6,3.6v56.4c0,2,1.6,3.6,3.6,3.6h56.4c2,0,3.6-1.6,3.6-3.6v-56.4
		C638.8,640.5,637.2,638.9,635.2,638.9z"/>
	<path class="st0" d="M571.7,638.9h-56.4c-2,0-3.6,1.6-3.6,3.6v56.4c0,2,1.6,3.6,3.6,3.6h56.4c2,0,3.6-1.6,3.6-3.6v-56.4
		C575.3,640.5,573.7,638.9,571.7,638.9z"/>
</g>
</svg>
