<?xml version="1.0" encoding="utf-8"?>
<!-- Generator: Adobe Illustrator 19.2.0, SVG Export Plug-In . SVG Version: 6.00 Build 0)  -->
<svg version="1.1" id="Livello_1" xmlns="http://www.w3.org/2000/svg" xmlns:xlink="http://www.w3.org/1999/xlink" x="0px" y="0px"
	 viewBox="0 0 960 960" style="enable-background:new 0 0 960 960;" xml:space="preserve">
<style type="text/css">
	.st0{fill:#1A171B;}
</style>
<g>
	<path class="st0" d="M317.7,480h-0.5c2,0,3.6-1.6,3.6-3.6V420c0-2-1.6-3.6-3.6-3.6c2,0,3.6-1.6,3.6-3.6v-56.4c0-2-1.6-3.6-3.6-3.6
		h-56.4c-2,0-3.6,1.6-3.6,3.6v-31.8c0-2-1.6-3.6-3.6-3.6h-56.4c-2,0-3.6,1.6-3.6,3.6v31.8c0-2-1.6-3.6-3.6-3.6h-56.4
		c-2,0-3.6,1.6-3.6,3.6v56.4c0,2,1.6,3.6,3.6,3.6c-2,0-3.6,1.6-3.6,3.6v56.4c0,2,1.6,3.6,3.6,3.6h0.5c-2,0-3.6,1.6-3.6,3.6V540
		c0,2,1.6,3.6,3.6,3.6c-2,0-3.6,1.6-3.6,3.6v56.4c0,2,1.6,3.6,3.6,3.6h56.4c1.4,0,2.5-0.7,3.1-1.8v30c0,2,1.6,3.6,3.6,3.6h56.4
		c2,0,3.6-1.6,3.6-3.6v-31.8c0,2,1.6,3.6,3.6,3.6h56.4c2,0,3.6-1.6,3.6-3.6v-56.4c0-2-1.6-3.6-3.6-3.6h0.5c2,0,3.6-1.6,3.6-3.6
		v-56.4C321.3,481.6,319.7,480,317.7,480z M257.2,547.2V579c0-2-1.6-3.6-3.6-3.6h-56.4c-1.4,0-2.5,0.7-3.1,1.8v-30
		c0-2-1.6-3.6-3.6-3.6c2,0,3.6-1.6,3.6-3.6v-56.4c0-2-1.6-3.6-3.6-3.6H190c2,0,3.6-1.6,3.6-3.6V420c0-2-1.6-3.6-3.6-3.6
		c2,0,3.6-1.6,3.6-3.6V381c0,2,1.6,3.6,3.6,3.6h56.4c2,0,3.6-1.6,3.6-3.6v31.8c0,2,1.6,3.6,3.6,3.6c-2,0-3.6,1.6-3.6,3.6v56.4
		c0,2,1.6,3.6,3.6,3.6h0.5c-2,0-3.6,1.6-3.6,3.6V540c0,2,1.6,3.6,3.6,3.6h-0.5C258.8,543.6,257.2,545.2,257.2,547.2z"/>
	<path class="st0" d="M826.4,352.8H770c-2,0-3.6,1.6-3.6,3.6c0-2-1.6-3.6-3.6-3.6h-56.4c-2,0-3.6,1.6-3.6,3.6l0,0
		c0-2-1.6-3.6-3.6-3.6h-56.4c-2,0-3.6,1.6-3.6,3.6v56.4c0,2,1.6,3.6,3.6,3.6h56.4c2,0,3.6-1.6,3.6-3.6v0c0,2,1.6,3.6,3.6,3.6
		c-2,0-3.6,1.6-3.6,3.6v56.4c0,2,1.6,3.6,3.6,3.6h0.5c-2,0-3.6,1.6-3.6,3.6V540c0,2,1.6,3.6,3.6,3.6h-0.5c-2,0-3.6,1.6-3.6,3.6V579
		v24.6v31.8c0,2,1.6,3.6,3.6,3.6h56.4c2,0,3.6-1.6,3.6-3.6v-31.8V579v-31.8c0-2-1.6-3.6-3.6-3.6h0.5c2,0,3.6-1.6,3.6-3.6v-56.4
		c0-2-1.6-3.6-3.6-3.6h-0.5c2,0,3.6-1.6,3.6-3.6V420c0-2-1.6-3.6-3.6-3.6c2,0,3.6-1.6,3.6-3.6c0,2,1.6,3.6,3.6,3.6h56.4
		c2,0,3.6-1.6,3.6-3.6v-56.4C830,354.4,828.4,352.8,826.4,352.8z"/>
	<path class="st0" d="M572,480h-0.5c2,0,3.6-1.6,3.6-3.6V420c0-2-1.6-3.6-3.6-3.6c2,0,3.6-1.6,3.6-3.6v-56.4c0-2-1.6-3.6-3.6-3.6
		h-56.4c-2,0-3.6,1.6-3.6,3.6v56.4c0,2,1.6,3.6,3.6,3.6c-2,0-3.6,1.6-3.6,3.6v56.4c0,2,1.6,3.6,3.6,3.6h0.5c-2,0-3.6,1.6-3.6,3.6
		V540c0,2,1.6,3.6,3.6,3.6h-0.5c-2,0-3.6,1.6-3.6,3.6V579c0-2-1.6-3.6-3.6-3.6h-56.4c-1.4,0-2.5,0.7-3.1,1.8v-30
		c0-2-1.6-3.6-3.6-3.6c2,0,3.6-1.6,3.6-3.6v-56.4c0-2-1.6-3.6-3.6-3.6h-0.5c2,0,3.6-1.6,3.6-3.6V420c0-2-1.6-3.6-3.6-3.6
		c2,0,3.6-1.6,3.6-3.6v-56.4c0-2-1.6-3.6-3.6-3.6h-56.4c-2,0-3.6,1.6-3.6,3.6v56.4c0,2,1.6,3.6,3.6,3.6c-2,0-3.6,1.6-3.6,3.6v56.4
		c0,2,1.6,3.6,3.6,3.6h0.5c-2,0-3.6,1.6-3.6,3.6V540c0,2,1.6,3.6,3.6,3.6c-2,0-3.6,1.6-3.6,3.6v56.4c0,2,1.6,3.6,3.6,3.6h56.4
		c1.3,0,2.5-0.7,3.1-1.8v30c0,2,1.6,3.6,3.6,3.6h56.4c2,0,3.6-1.6,3.6-3.6v-31.8c0,2,1.6,3.6,3.6,3.6h56.4c2,0,3.6-1.6,3.6-3.6
		v-56.4c0-2-1.6-3.6-3.6-3.6h0.5c2,0,3.6-1.6,3.6-3.6v-56.4C575.6,481.6,574,480,572,480z"/>
</g>
</svg>
