<?xml version="1.0" encoding="utf-8"?>
<!-- Generator: Adobe Illustrator 19.2.0, SVG Export Plug-In . SVG Version: 6.00 Build 0)  -->
<svg version="1.1" id="Livello_1" xmlns="http://www.w3.org/2000/svg" xmlns:xlink="http://www.w3.org/1999/xlink" x="0px" y="0px"
	 viewBox="0 0 960 960" style="enable-background:new 0 0 960 960;" xml:space="preserve">
<style type="text/css">
	.st0{fill:#1A171B;}
</style>
<path class="st0" d="M638.9,508.2v-56.4c0-2-1.6-3.6-3.6-3.6h-0.1c2,0,3.6-1.6,3.6-3.6v-56.4c0-2-1.6-3.6-3.6-3.6h-56.4
	c-2,0-3.6,1.6-3.6,3.6v56.4c0,2,1.6,3.6,3.6,3.6h0.1c-2,0-3.6,1.6-3.6,3.6v56.4c0,2,1.6,3.6,3.6,3.6c-2,0-3.6,1.6-3.6,3.6v56.4
	c0,2,1.6,3.6,3.6,3.6c-2,0-3.6,1.6-3.6,3.6v56.3c0,2,1.6,3.6,3.6,3.6c-2,0-3.6,1.6-3.6,3.6c0-2-1.6-3.6-3.6-3.6h-56.4
	c-2,0-3.6,1.6-3.6,3.6c0-2-1.6-3.6-3.6-3.6h-56.4c-2,0-3.6,1.6-3.6,3.6c0-2-1.6-3.6-3.6-3.6h-56.4c-1.7,0-3.2,1.2-3.5,2.9
	c-0.3-1.6-1.8-2.9-3.5-2.9c2,0,3.6-1.6,3.6-3.6v-56.3c0-2-1.6-3.6-3.6-3.6c2,0,3.6-1.6,3.6-3.6v-56.4c0-2-1.6-3.6-3.6-3.6
	c2,0,3.6-1.6,3.6-3.6v-56.4c0-2-1.6-3.6-3.6-3.6h-0.1c1.7,0,3.2-1.2,3.5-2.9c0.3,1.6,1.8,2.9,3.5,2.9h56.4c2,0,3.6-1.6,3.6-3.6
	c0,2,1.6,3.6,3.6,3.6h56.4c2,0,3.6-1.6,3.6-3.6c0,2,1.6,3.6,3.6,3.6h56.3c2,0,3.6-1.6,3.6-3.6v-56.4c0-2-1.6-3.6-3.6-3.6h0.1
	c2,0,3.6-1.6,3.6-3.6v-56.4c0-2-1.6-3.6-3.6-3.6h-56.4c-2,0-3.6,1.6-3.6,3.6v56.4c0,2,1.6,3.6,3.6,3.6h-0.1c-2,0-3.6,1.6-3.6,3.6
	c0-2-1.6-3.6-3.6-3.6h0.1c2,0,3.6-1.6,3.6-3.6v-56.4c0-2-1.6-3.6-3.6-3.6h-0.1c2,0,3.6-1.6,3.6-3.6v-56.4c0-2-1.6-3.6-3.6-3.6h-56.4
	c-2,0-3.6,1.6-3.6,3.6v56.4c0,2,1.6,3.6,3.6,3.6h0.1c-2,0-3.6,1.6-3.6,3.6c0-2-1.6-3.6-3.6-3.6h-56.4c-2,0-3.6,1.6-3.6,3.6v56.4
	c0,2,1.6,3.6,3.6,3.6h-0.1c-1.7,0-3.2,1.2-3.5,2.9c-0.3-1.6-1.8-2.9-3.5-2.9h-56.4c-2,0-3.6,1.6-3.6,3.6v56.4c0,2,1.6,3.6,3.6,3.6
	h0.1c-2,0-3.6,1.6-3.6,3.6v56.4c0,2,1.6,3.6,3.6,3.6c-2,0-3.6,1.6-3.6,3.6v56.4c0,2,1.6,3.6,3.6,3.6c-2,0-3.6,1.6-3.6,3.6v56.3
	c0,2,1.6,3.6,3.6,3.6c-2,0-3.6,1.6-3.6,3.6v56.4c0,2,1.6,3.6,3.6,3.6h56.4c1.7,0,3.2-1.2,3.5-2.9c0.3,1.6,1.8,2.9,3.5,2.9h56.4
	c2,0,3.6-1.6,3.6-3.6c0,2,1.6,3.6,3.6,3.6h56.4c2,0,3.6-1.6,3.6-3.6c0,2,1.6,3.6,3.6,3.6h56.4c2,0,3.6-1.6,3.6-3.6
	c0,2,1.6,3.6,3.6,3.6h56.4c2,0,3.6-1.6,3.6-3.6v-56.4c0-2-1.6-3.6-3.6-3.6c2,0,3.6-1.6,3.6-3.6v-56.3c0-2-1.6-3.6-3.6-3.6
	c2,0,3.6-1.6,3.6-3.6v-56.4c0-2-1.6-3.6-3.6-3.6C637.3,511.8,638.9,510.2,638.9,508.2z M444.6,384.7c2,0,3.6-1.6,3.6-3.6
	c0,2,1.6,3.6,3.6,3.6h-0.1c-2,0-3.6,1.6-3.6,3.6C448.1,386.3,446.5,384.7,444.6,384.7L444.6,384.7z"/>
</svg>
