<?xml version="1.0" encoding="utf-8"?>
<!-- Generator: Adobe Illustrator 19.2.0, SVG Export Plug-In . SVG Version: 6.00 Build 0)  -->
<svg version="1.1" id="Livello_1" xmlns="http://www.w3.org/2000/svg" xmlns:xlink="http://www.w3.org/1999/xlink" x="0px" y="0px"
	 viewBox="0 0 960 960" style="enable-background:new 0 0 960 960;" xml:space="preserve">
<style type="text/css">
	.st0{fill-rule:evenodd;clip-rule:evenodd;fill:#FFFFFF;stroke:#1A171B;stroke-width:1.15;stroke-miterlimit:2.6131;}
	.st1{fill-rule:evenodd;clip-rule:evenodd;fill:#E1001A;}
	.st2{fill-rule:evenodd;clip-rule:evenodd;fill:#FFFFFF;stroke:#E1001A;stroke-width:3.8332;stroke-miterlimit:2.6131;}
	.st3{fill-rule:evenodd;clip-rule:evenodd;fill:#1A171B;stroke:#1A171B;stroke-width:3.0665;stroke-miterlimit:2.6131;}
	.st4{fill:#FFFFFF;stroke:#1A171B;stroke-width:1.0161;stroke-miterlimit:2.6131;}
	.st5{fill:none;stroke:#1A171B;stroke-width:6.7738;stroke-miterlimit:2.6131;}
	.st6{fill-rule:evenodd;clip-rule:evenodd;fill:#1A171B;}
</style>
<g>
	<g>
		<g>
			<path class="st0" d="M728.3,629.4c26.7-1.1,42.8-21.1,38.6-47.6l-0.9-4.1l-1.6-4.4l-1.9-4.2L517.2,143.7
				c-12.3-18.9-29.7-29.7-52.3-20.1c-8.6,4.7-14.8,11.4-19.8,19.5L200.3,567.1c-8.9,16.7-12.3,34.3,1.3,49.8
				c10.8,11.4,24.2,12.6,39.3,12.6l481.5-0.2H728.3L728.3,629.4z"/>
			<path class="st1" d="M722.4,617.1c7.5-0.2,14.8,0.8,22.6-5c7.8-5.8,15-20.5,6.6-37.3l-245-424.7c-13.7-24-37.9-23.4-51.1-0.6
				L211.1,573.2c-5.2,9.1-9.5,21.9-3.6,31.4c7.8,12.5,20.1,12.5,33.4,12.6L722.4,617.1L722.4,617.1z"/>
			<polygon class="st2" points="689.8,567.3 480.7,205.5 272.1,567.3 689.8,567.3 			"/>
			<path class="st3" d="M346.1,535.8c0,0,0-22.4,0-32c17.8-9.6,14.2-15.9,31.9-32c14.2-12.7,42.4-12.8,56.5,0
				c14.2,12.8,10.9,13.2,24.6,25.7c10.6,9.9,32.1,9.4,42.5,0c11.1-10.1,10.4-12.8,24.6-25.7c14-12.7,42.4-12.7,56.5,0
				c21.2,19.2,14.2,22.4,31.9,32v32H346.1L346.1,535.8z"/>
		</g>
	</g>
</g>
<g>
	<polygon class="st4" points="222.5,645.2 737.5,645.2 737.5,840 222.5,840 222.5,645.2 	"/>
	<path class="st5" d="M261.9,659.1h436.2c14,0,25.5,11.5,25.5,25.5v116.2c0,14-11.5,25.5-25.5,25.5H261.9c-14,0-25.5-11.5-25.5-25.5
		V684.6C236.5,670.6,247.9,659.1,261.9,659.1L261.9,659.1z"/>
	<path class="st6" d="M562.1,741.4c4.9-7.8,24.6-7.5,27.4,1.4c6.9-11.2,29.5-8.7,29.5,5v36.3h-16.7v-28.8c0-2.8,0-8.4-5.2-8.4
		c-4.2,0-6.6,4.7-6.6,7v30.2h-16.7v-28.8c0-2.8,0-8.4-5.2-8.4c-4.2,0-6.6,4.7-6.6,7v30.2h-16.7c0-13.7,0-29.9,0-43.6
		c0-1.1-0.7-2.2-0.7-3.4h16.7L562.1,741.4L562.1,741.4z"/>
	<path class="st6" d="M328.7,761.3l15.8-2.1c0.4,4.1,1.9,7.2,3.6,9.1c2.1,2.1,5.1,3.1,7.9,3.1c2.8,0,5.8-1.4,7.9-3.4
		c2.1-2.2,3.6-5.7,3.6-9.8c0-3.6-1.1-7.1-3.2-9c-2.1-2.1-5.1-3.4-7.9-3.4c-1.9,0-4.3,0.7-6.8,1.4l1.5-13.6c3.8,0,7-0.7,9.2-2.2
		c2.1-2.1,3.6-4.8,3.6-7.9c0-2.2-1.1-4.7-2.6-6c-1.5-1.7-3.8-2.6-6.4-2.6c-2.6,0-5.1,0.9-6.4,2.6c-1.9,1.7-3.2,4.5-3.2,7.4
		l-15.1-1.9c0.9-4.8,2.6-8.8,4.3-11.5c2.1-2.8,5.3-5.3,9-6.7c3.6-1.7,8.3-2.8,12.6-2.8c7.9,0,14.3,2.8,19,7.4c3.8,4.1,6,8.8,6,13.6
		c0,6.7-4.3,12.8-12.8,16.9c4.7,0.9,9,3.3,11.7,6.7c3,3.3,4.7,7.8,4.7,12.4c0,6.9-2.8,13.3-8.1,17.9c-5.5,4.8-12.2,7.4-20,7.4
		c-7.7,0-14.1-1.9-19-6C332.3,774.2,329.5,768,328.7,761.3L328.7,761.3z M450.9,768.7V783h-58c0.2-5.5,2.6-10.5,5.3-15.3
		c2.8-4.7,9.4-11.4,18.3-19.5c7-6.2,12.2-10.9,13.4-13.3c2.1-2.9,3.6-6.4,3.6-9.5c0-3.3-1.1-6-2.8-7.8c-2.1-2.1-5.1-2.9-8.7-2.9
		c-3.2,0-6,0.9-7.9,2.6c-2.1,2.1-3.4,5.5-3.4,9.5l-16.4-1.4c0.6-8.1,3.8-14.5,8.7-17.9c5.1-3.6,11.9-5.7,19.8-5.7
		c8.5,0,15.4,2.4,20.3,6.4c5.1,4.5,7.7,10.2,7.7,16.2c0,3.4-0.9,7.2-2.1,10.5c-1.5,3.4-4.1,7.1-6.8,10.5c-1.9,2.1-5.8,5.7-10.9,10.2
		c-5.3,4.3-9,7.4-10.2,8.8c-1.5,1.4-3,2.9-3.6,4.3H450.9L450.9,768.7z M489.1,701.8c7.9,0,14.7,3.1,19.4,8.4
		c5.8,6.7,8.5,17.9,8.5,33.1c0,14.8-2.8,26-8.5,32.7c-4.7,5.5-11.5,8.1-19.4,8.1c-8.5,0-15.4-2.9-20.5-8.8c-4.9-6-7.5-16.9-7.5-32.4
		c0-14.8,3-26,8.3-32.7C474.1,704.9,481,701.8,489.1,701.8L489.1,701.8z M489.1,714.8c-2.1,0-3.8,0.5-5.3,1.6
		c-1.5,1.4-3.2,3.8-3.8,6.9c-0.9,4-1.5,10.7-1.5,20.2c0,9.5,0.6,15.9,1.5,19.3c0.6,3.4,2.1,6,3.4,7.1c1.5,1,3.6,1.7,5.8,1.7
		c1.9,0,3.6-0.7,5.1-1.7c1.3-1,3.2-3.3,3.8-6.4c1.1-3.8,1.7-10.5,1.7-20c0-9.5-0.6-16.2-1.3-19.6c-1.1-3.3-2.6-6-4.1-7.1
		C493.1,715.3,491,714.8,489.1,714.8L489.1,714.8z"/>
</g>
</svg>
