<?xml version="1.0" encoding="utf-8"?>
<!-- Generator: Adobe Illustrator 19.2.0, SVG Export Plug-In . SVG Version: 6.00 Build 0)  -->
<svg version="1.1" id="Livello_1" xmlns="http://www.w3.org/2000/svg" xmlns:xlink="http://www.w3.org/1999/xlink" x="0px" y="0px"
	 viewBox="0 0 960 960" style="enable-background:new 0 0 960 960;" xml:space="preserve">
<style type="text/css">
	.st0{fill:#FFFFFF;stroke:#1A171B;stroke-width:0.7331;stroke-miterlimit:2.6131;}
	.st1{fill:none;stroke:#1A171B;stroke-width:2.4438;stroke-miterlimit:2.6131;}
	.st2{fill-rule:evenodd;clip-rule:evenodd;fill:#1A171B;stroke:#1A171B;stroke-width:0.7331;stroke-miterlimit:2.6131;}
	.st3{fill-rule:evenodd;clip-rule:evenodd;fill:#FFFFFF;stroke:#1A171B;stroke-width:0.9239;stroke-miterlimit:2.6131;}
	.st4{fill-rule:evenodd;clip-rule:evenodd;fill:#E1001A;}
	.st5{fill-rule:evenodd;clip-rule:evenodd;fill:#FFFFFF;stroke:#E1001A;stroke-width:3.0797;stroke-miterlimit:2.6131;}
	.st6{fill-rule:evenodd;clip-rule:evenodd;fill:#1A171B;stroke:#1A171B;stroke-width:2.4638;stroke-miterlimit:2.6131;}
</style>
<g>
	<g>
		<polygon class="st0" points="545.1,840 545.1,541.9 414.9,541.9 414.9,840 545.1,840 		"/>
		<path class="st1" d="M535.6,815.1V567.3c0-9.2-7.6-16.8-16.8-16.8H441c-9.2,0-16.8,7.6-16.8,16.8v247.8c0,9.2,7.6,16.8,16.8,16.8
			h77.9C528.1,831.9,535.6,824.4,535.6,815.1L535.6,815.1z"/>
		<polygon class="st2" points="437.8,755.4 479.5,795 521.2,754.8 521.2,737.9 487.5,769.3 487.5,713.7 471.7,713.7 471.7,769.3 
			437.8,736.5 437.8,755.4 		"/>
	</g>
	<g>
		<g>
			<g>
				<path class="st3" d="M679.5,529.3c21.5-0.9,34.4-16.9,31-38.3l-0.8-3.3l-1.3-3.5l-1.5-3.4L509.9,139
					c-9.9-15.2-23.8-23.8-42-16.2c-6.9,3.8-11.9,9.2-15.9,15.7L255.3,479.2c-7.1,13.4-9.9,27.6,1,40c8.7,9.2,19.4,10.2,31.6,10.2
					l386.9-0.1H679.5L679.5,529.3z"/>
				<path class="st4" d="M674.7,519.4c6-0.1,11.9,0.6,18.2-4c6.3-4.6,12-16.4,5.3-30L501.4,144.2c-11-19.3-30.5-18.8-41-0.5
					L263.9,484.1c-4.1,7.3-7.7,17.6-2.9,25.2c6.3,10,16.2,10,26.8,10.2L674.7,519.4L674.7,519.4z"/>
				<polygon class="st5" points="648.5,479.3 480.6,188.7 313,479.3 648.5,479.3 				"/>
				<path class="st6" d="M372.4,454.1c0,0,0-18,0-25.7c14.3-7.7,11.4-12.8,25.7-25.7c11.4-10.2,34-10.3,45.4,0
					c11.4,10.3,8.8,10.6,19.8,20.6c8.5,8,25.8,7.6,34.2,0c8.9-8.1,8.4-10.3,19.8-20.6c11.2-10.2,34-10.2,45.4,0
					c17,15.4,11.4,18,25.7,25.7v25.7H372.4L372.4,454.1z"/>
			</g>
		</g>
	</g>
</g>
</svg>
