<?xml version="1.0" encoding="utf-8"?>
<!-- Generator: Adobe Illustrator 19.2.0, SVG Export Plug-In . SVG Version: 6.00 Build 0)  -->
<svg version="1.1" id="Livello_1" xmlns="http://www.w3.org/2000/svg" xmlns:xlink="http://www.w3.org/1999/xlink" x="0px" y="0px"
	 viewBox="0 0 960 960" style="enable-background:new 0 0 960 960;" xml:space="preserve">
<style type="text/css">
	.st0{fill:#FFFFFF;stroke:#1A171B;stroke-width:1.0161;stroke-miterlimit:2.6131;}
	.st1{fill:none;stroke:#1A171B;stroke-width:6.7738;stroke-miterlimit:2.6131;}
	.st2{fill-rule:evenodd;clip-rule:evenodd;fill:#5288C1;stroke:#5288C1;stroke-width:1.0161;stroke-miterlimit:2.6131;}
	.st3{fill-rule:evenodd;clip-rule:evenodd;fill:#FFFFFF;stroke:#1A171B;stroke-width:1.15;stroke-miterlimit:2.6131;}
	.st4{fill-rule:evenodd;clip-rule:evenodd;fill:#E1001A;}
	.st5{fill-rule:evenodd;clip-rule:evenodd;fill:#FFFFFF;stroke:#E1001A;stroke-width:3.8332;stroke-miterlimit:2.6131;}
	.st6{fill-rule:evenodd;clip-rule:evenodd;fill:#1A171B;stroke:#1A171B;stroke-width:3.0665;stroke-miterlimit:2.6131;}
</style>
<g>
	<g>
		<polygon class="st0" points="222.5,645.2 737.5,645.2 737.5,840 222.5,840 222.5,645.2 		"/>
		<path class="st1" d="M261.9,659.1h436.2c14,0,25.5,11.5,25.5,25.5v116.2c0,14-11.5,25.5-25.5,25.5H261.9
			c-14,0-25.5-11.5-25.5-25.5V684.6C236.5,670.6,247.9,659.1,261.9,659.1L261.9,659.1z"/>
		<path class="st2" d="M272.5,714.4l0.2-13.9c22.9,0,68.7,13.7,103.1,13.7c34.4,0,68.3-13.9,102.8-13.9c34.4,0,68.7,13.9,103.1,13.9
			c34.4,0,75.4-13.7,102.8-13.7v13.7c-18.4,0-68.5,13.7-103,13.7c-34.4,0-68.5-13.7-103-13.7c-34.4,0-68.5,13.7-103,13.7
			C341.2,727.9,291.2,714.2,272.5,714.4L272.5,714.4z"/>
		<path class="st2" d="M272.8,741.9L273,728c22.9,0,68.7,13.7,103.1,13.7c34.4,0,68.3-13.9,102.8-13.9c34.4,0,68.7,13.9,103.1,13.9
			c34.4,0,75.4-13.7,102.8-13.7v13.7c-18.4,0-68.5,13.7-103,13.7c-34.4,0-68.5-13.7-103-13.7c-34.4,0-68.5,13.7-103,13.7
			C341.5,755.4,291.6,741.7,272.8,741.9L272.8,741.9z"/>
		<path class="st2" d="M272.8,769.3l0.2-13.9c22.9,0,68.7,13.7,103.1,13.7c34.4,0,68.3-13.9,102.8-13.9c34.4,0,68.7,13.9,103.1,13.9
			c34.4,0,75.4-13.7,102.8-13.7v13.7c-18.4,0-68.5,13.7-103,13.7c-34.4,0-68.5-13.7-103-13.7c-34.4,0-68.5,13.7-103,13.7
			C341.5,782.8,291.6,769.1,272.8,769.3L272.8,769.3z"/>
	</g>
</g>
<g>
	<g>
		<path class="st3" d="M728.3,629.4c26.7-1.1,42.8-21.1,38.6-47.6l-0.9-4.1l-1.6-4.4l-1.9-4.2L517.2,143.7
			c-12.3-18.9-29.7-29.7-52.3-20.1c-8.6,4.7-14.8,11.4-19.8,19.5L200.3,567.1c-8.9,16.7-12.3,34.4,1.3,49.8
			c10.8,11.4,24.2,12.6,39.3,12.6l481.5-0.2H728.3L728.3,629.4z"/>
		<path class="st4" d="M722.4,617.1c7.5-0.2,14.8,0.8,22.6-5c7.8-5.8,15-20.5,6.6-37.3l-245-424.7c-13.7-24-37.9-23.4-51.1-0.6
			L211.1,573.2c-5.2,9.1-9.5,21.9-3.6,31.4c7.8,12.5,20.1,12.5,33.4,12.6L722.4,617.1L722.4,617.1z"/>
		<polygon class="st5" points="689.8,567.3 480.7,205.5 272.1,567.3 689.8,567.3 		"/>
		<path class="st6" d="M346.1,536c0-14,0-50.2,0-65.7c14,0,56.3-0.2,84.9,19.3c28.6,19.5,70.7,19.3,99.1,0
			c28.4-19.3,70.8-19.3,85-19.3c0,12.4,0,51.8,0,65.7H346.1L346.1,536z"/>
	</g>
</g>
</svg>
