<?xml version="1.0" encoding="utf-8"?>
<!-- Generator: Adobe Illustrator 19.2.0, SVG Export Plug-In . SVG Version: 6.00 Build 0)  -->
<svg version="1.1" id="Livello_1" xmlns="http://www.w3.org/2000/svg" xmlns:xlink="http://www.w3.org/1999/xlink" x="0px" y="0px"
	 viewBox="0 0 741.5 709.1" style="enable-background:new 0 0 741.5 709.1;" xml:space="preserve">
<style type="text/css">
	.st0{fill:#FFFFFF;stroke:#1A171B;stroke-width:0.7819;stroke-miterlimit:2.6131;}
	.st1{fill:#E1001A;}
	.st2{fill:#FFFFFF;}
	.st3{fill:#FFFFFF;stroke:#1A171B;stroke-width:0.7392;stroke-miterlimit:2.6131;}
	.st4{fill:#E1001A;stroke:#E1001A;stroke-width:2.4642;stroke-miterlimit:2.6131;}
</style>
<g>
	<g>
		<polygon class="st0" points="237.8,708.2 135.3,607.9 135.3,457.6 235.7,357.3 385.9,357.3 485.3,457.6 485.3,607.8 385.9,708.2 
					"/>
		<polygon class="st1" points="382,698.3 241.9,698.3 145.2,603.6 145.2,461.5 239.9,366.9 382,366.9 475.7,461.5 475.7,603.6 		"/>
		<path class="st2" d="M177.1,560.8c4.1,5.9,7.3,9.1,7.5,9.6c0.4,0.9,4.8,3.8,9.2,3.8c3,0,7.5-2.8,7.8-3.4c0.4-0.5,3-5.2,3-9
			c0-5.2-4.8-11.4-14.4-18c-0.5,0-1.3-1-1.3-1c-4.8-3.3-9.2-6.7-11.8-8.6c-2.6-1.9-6.6-5.6-6.6-5.6c-2.1-2.6-7.5-8.8-7.5-11
			c0-2.3-2.2-8-2.2-12.9c0-9.5,4.4-18.5,8.8-22.8c4.6-4.4,14.5-8.6,24.1-8.6c10.5,0,16.6,4.1,21.3,8.4c3.4,3.5,7.2,8.2,9.8,14.7
			c-5.3,3-8.8,5-15.8,8.9c-3-5-7.3-10.1-7.9-10.7c-1.1-1-4.8-4.3-8.3-4.3c-2.6,0-6.6,2.8-6.9,3.3c-0.4,0.5-3.1,5.2-3.1,9
			c0,6.2,6.9,14.9,18,21.4c1.9,1.1,7.3,4.7,7.4,4.7c5.5,3,12.8,10.8,14,13.8c1.1,2.9,4.3,10.2,4.3,15.7c0,11.4-7.2,21.1-9.7,24.6
			c-4.3,5.6-14.2,9.2-26,9.2c-10.5,0-18.4-5.8-21.6-8.8c-5.1-5-3-2.8-9-11.9C167,566.6,171.4,564.4,177.1,560.8L177.1,560.8z
			 M259.4,590.4v-95.1h-17.3v-19l56.7-0.4v19l-16.7,0.4v95.1H259.4L259.4,590.4z M314.1,531.4c0-28.9,10.4-58.3,33.2-58
			c22.8,0.3,32.7,28.1,32.7,56.8c0,28.6-11,62.2-34,62.2C323.1,592.3,314.1,560.3,314.1,531.4L314.1,531.4z M333,531.1
			c0,7.9,3.7,42.8,13.8,43.1c10.1,0.2,13.2-34.2,13.2-43.1c0-8.9-2.1-39.5-13-39.5C336.1,491.7,333,523.3,333,531.1L333,531.1z
			 M427.2,476.3c20.4,0,32.1,17.7,32,34.6c-0.2,16.8-10.9,34.1-32,33.9h-4.8v45.6h-22.7V476.3H427.2L427.2,476.3z M422,494.3v30.9
			c8.3,0,16.1-5.1,16.1-14.7C438.1,500.9,432.3,494.3,422,494.3L422,494.3z"/>
	</g>
</g>
<g>
	<path class="st3" d="M379.3,186.8l102.9-48.2l14.5-39.5l-39.3-14.2l-33.2,15.4l-44.8-21.2l54-25.1l14.3-39.7L408.2,0.6l-99,45.6
		L211.6,0.9l-39.4,14l14.5,39.4l52.7,24.9l-44.8,21.2l-33.3-15.5l-39.5,14.2l14.5,39.5l102.8,48.3l-102.8,48.3l-14.5,39.5l39.6,14
		l147.7-68.9l147.9,69l39.6-14.2l-14.4-39.5L379.3,186.8z M264.5,133.1l44.9-20.9L354,133l-44.8,20.9L264.5,133.1z"/>
	<path class="st4" d="M352,186.9l121.2-56.8L482,106l-24.1-8.8l-34.1,16l-0.3-0.8l-71.2-33.3l72-33.8l8.9-23.9L409,12.8l-99.6,46.3
		L211.1,13L187,21.6l8.6,24.1L266.3,79l-69.7,33l-0.6,1.6l-35-16.4l-24.1,8.7l8.8,24.1l121,56.7l-121,56.7l-8.8,24.2l24.2,8.6
		l148.3-69.5L458,276.3l24.1-8.7l-8.8-24.1L352,186.9z M210.6,115.6L288,79.1l-78.1-36.7l7.9-16.5L309.7,69l92.7-43.1l7.9,16
		l-79.1,37.2l78.4,36.7l-2.6,5.3l-14.7,6.9l-82.7-38.8L226.8,128l-13.2-6.2L210.6,115.6z M381.5,133l-72.2,33.8l-72-33.8l71.9-34
		L381.5,133z M451.5,263.5l-141.9-66.6l-142.1,66.6l-7.7-16.4l128.4-60.2l-128.3-60.1l7.7-16.4l142.1,66.4l141.9-66.5l7.7,16.5
		l-128.2,60L459.2,247L451.5,263.5z"/>
</g>
<g>
	<path d="M691.5,202.4h-17l-6.8-17.6h-30.9l-6.4,17.6h-16.6l30.1-77.3h16.5L691.5,202.4z M662.7,171.8L652,143.1l-10.4,28.7H662.7z"
		/>
</g>
<g>
	<path d="M622,493.6h30.9c6.1,0,10.7,0.3,13.7,0.8s5.7,1.6,8.1,3.2s4.4,3.8,5.9,6.5s2.4,5.7,2.4,9c0,3.6-1,6.9-2.9,10
		s-4.6,5.3-7.9,6.8c4.7,1.4,8.3,3.7,10.9,7s3.8,7.2,3.8,11.7c0,3.5-0.8,6.9-2.5,10.3s-3.9,6-6.7,8s-6.3,3.2-10.5,3.7
		c-2.6,0.3-8.9,0.5-18.8,0.5h-26.3v-77.5L622,493.6L622,493.6z M637.6,506.5v17.9h10.2c6.1,0,9.9-0.1,11.3-0.3
		c2.7-0.3,4.8-1.2,6.3-2.8s2.3-3.5,2.3-6c0-2.4-0.7-4.3-2-5.8s-3.3-2.4-5.9-2.7c-1.5-0.2-6-0.3-13.3-0.3L637.6,506.5L637.6,506.5z
		 M637.6,537.2v20.7H652c5.6,0,9.2-0.2,10.7-0.5c2.3-0.4,4.2-1.5,5.7-3.1s2.2-3.8,2.2-6.6c0-2.3-0.6-4.3-1.7-5.9
		c-1.1-1.6-2.8-2.8-4.9-3.5c-2.1-0.7-6.7-1.1-13.8-1.1L637.6,537.2L637.6,537.2z"/>
</g>
</svg>
