<?xml version="1.0" encoding="utf-8"?>
<!-- Generator: Adobe Illustrator 19.2.0, SVG Export Plug-In . SVG Version: 6.00 Build 0)  -->
<svg version="1.1" id="Livello_1" xmlns="http://www.w3.org/2000/svg" xmlns:xlink="http://www.w3.org/1999/xlink" x="0px" y="0px"
	 viewBox="0 0 960 960" style="enable-background:new 0 0 960 960;" xml:space="preserve">
<style type="text/css">
	.st0{fill-rule:evenodd;clip-rule:evenodd;fill:#FFFFFF;stroke:#1A171B;stroke-width:0.7392;stroke-miterlimit:2.6131;}
	.st1{fill-rule:evenodd;clip-rule:evenodd;fill:#E1001A;stroke:#E1001A;stroke-width:2.4642;stroke-miterlimit:2.6131;}
	.st2{fill-rule:evenodd;clip-rule:evenodd;fill:#FFFFFF;stroke:#1A171B;stroke-width:0.7495;stroke-miterlimit:2.6131;}
	.st3{fill-rule:evenodd;clip-rule:evenodd;fill:#E1001A;}
	.st4{fill-rule:evenodd;clip-rule:evenodd;fill:#FFFFFF;stroke:#E1001A;stroke-width:2.4984;stroke-miterlimit:2.6131;}
	.st5{fill-rule:evenodd;clip-rule:evenodd;fill:#1A171B;}
</style>
<g>
	<path class="st0" d="M452.1,328.1L555,279.9l14.5-39.5l-39.3-14.2L497,241.6l-44.8-21.2l54-25.1l14.3-39.7L481,141.9L382,187.5
		l-97.6-45.3l-39.4,14l14.5,39.4l52.7,24.9l-44.8,21.2l-33.3-15.5l-39.5,14.2l14.5,39.5l102.8,48.3l-102.8,48.3L194.6,416l39.6,14
		l147.7-68.9l147.9,69l39.6-14.2L555,376.4L452.1,328.1z M337.3,274.4l44.9-20.9l44.6,20.8l-44.8,20.9L337.3,274.4z"/>
	<path class="st1" d="M424.8,328.2L546,271.4l8.8-24.1l-24.1-8.8l-34.1,16l-0.3-0.8l-71.2-33.3l72-33.8l8.9-23.9l-24.2-8.6
		l-99.6,46.3l-98.3-46.1l-24.1,8.6l8.6,24.1l70.7,33.3l-69.7,33l-0.6,1.6l-35-16.4l-24.1,8.7l8.8,24.1l121,56.7l-121,56.7l-8.8,24.2
		l24.2,8.6l148.3-69.5l148.6,69.6l24.1-8.7l-8.8-24.1L424.8,328.2z M283.4,256.9l77.4-36.5l-78.1-36.7l7.9-16.5l91.9,43.1l92.7-43.1
		l7.9,16l-79.1,37.2l78.4,36.7l-2.6,5.3l-14.7,6.9l-82.7-38.8l-82.8,38.8l-13.2-6.2L283.4,256.9z M454.3,274.3l-72.2,33.8l-72-33.8
		l71.9-34L454.3,274.3z M524.3,404.8l-141.9-66.6l-142.1,66.6l-7.7-16.4l128.4-60.2l-128.3-60.1l7.7-16.4l142.1,66.4l141.9-66.5
		l7.7,16.5l-128.2,60L532,388.3L524.3,404.8z"/>
</g>
<g>
	<g>
		<path class="st2" d="M545,840c17.4-0.7,27.9-13.7,25.1-31l-0.6-2.6l-1-2.8l-1.2-2.7L407.4,523.4c-8-12.3-19.3-19.3-34.1-13.1
			c-5.6,3.1-9.7,7.4-12.9,12.7L200.8,799.4c-5.8,10.9-8,22.4,0.8,32.5c7,7.4,15.8,8.2,25.6,8.2l313.8-0.1H545L545,840z"/>
		<path class="st3" d="M541.1,831.9c4.9-0.1,9.7,0.5,14.8-3.3c5.1-3.8,9.8-13.3,4.3-24.3L400.5,527.6c-9-15.7-24.7-15.3-33.3-0.4
			L207.8,803.3c-3.4,5.9-6.2,14.2-2.3,20.5c5.1,8.1,13.1,8.1,21.8,8.2L541.1,831.9L541.1,831.9z"/>
		<polygon class="st4" points="519.8,799.5 383.6,563.7 247.6,799.5 519.8,799.5 		"/>
		<path class="st5" d="M331,782.5v-10.6h-10.5v-19.5H331v-38.8h-10.5v-19.3H331v-12.9l10.5-10.8l10.5,10.8v12.9h20.9v-12.9
			l10.5-10.8l10.5,10.8v12.9h21v-12.9l10.3-8.7l10.5,8.7v12.9h10.5v19.3h-10.5v38.8h10.5v19.5h-10.5v10.6h-20.9v-10.6h-21v10.6h-21
			v-10.6H352v10.6H331L331,782.5z M352,752.4v-38.8h20.9v38.8H352L352,752.4z M393.9,752.4v-38.8h21v38.8H393.9L393.9,752.4z"/>
	</g>
</g>
<g>
	<path d="M764.3,343.7h-17l-6.8-17.6h-30.9l-6.4,17.6h-16.6l30.1-77.3h16.5L764.3,343.7z M735.5,313.1l-10.7-28.7l-10.4,28.7H735.5z
		"/>
</g>
<g>
	<path d="M694.8,634.9h30.9c6.1,0,10.7,0.3,13.7,0.8s5.7,1.6,8.1,3.2s4.4,3.8,5.9,6.5s2.4,5.7,2.4,9c0,3.6-1,6.9-2.9,10
		s-4.6,5.3-7.9,6.8c4.7,1.4,8.3,3.7,10.9,7s3.8,7.2,3.8,11.7c0,3.5-0.8,6.9-2.5,10.3s-3.9,6-6.7,8c-2.8,2-6.3,3.2-10.5,3.7
		c-2.6,0.3-8.9,0.5-18.8,0.5h-26.3V634.9z M710.4,647.8v17.9h10.2c6.1,0,9.9-0.1,11.3-0.3c2.7-0.3,4.8-1.2,6.3-2.8s2.3-3.5,2.3-6
		c0-2.4-0.7-4.3-2-5.8s-3.3-2.4-5.9-2.7c-1.5-0.2-6-0.3-13.3-0.3H710.4z M710.4,678.5v20.7h14.4c5.6,0,9.2-0.2,10.7-0.5
		c2.3-0.4,4.2-1.5,5.7-3.1c1.5-1.6,2.2-3.8,2.2-6.6c0-2.3-0.6-4.3-1.7-5.9c-1.1-1.6-2.8-2.8-4.9-3.5c-2.1-0.7-6.7-1.1-13.8-1.1
		H710.4z"/>
</g>
</svg>
