<?xml version="1.0" encoding="utf-8"?>
<!-- Generator: Adobe Illustrator 19.2.0, SVG Export Plug-In . SVG Version: 6.00 Build 0)  -->
<svg version="1.1" id="Livello_1" xmlns="http://www.w3.org/2000/svg" xmlns:xlink="http://www.w3.org/1999/xlink" x="0px" y="0px"
	 viewBox="0 0 960 960" style="enable-background:new 0 0 960 960;" xml:space="preserve">
<style type="text/css">
	.st0{fill-rule:evenodd;clip-rule:evenodd;fill:#FFFFFF;stroke:#1A171B;stroke-width:0.7117;stroke-miterlimit:2.6131;}
	.st1{fill-rule:evenodd;clip-rule:evenodd;fill:#E1001A;stroke:#E1001A;stroke-width:2.4665;stroke-miterlimit:2.6131;}
	.st2{fill-rule:evenodd;clip-rule:evenodd;fill:#FFFFFF;stroke:#1A171B;stroke-width:0.7392;stroke-miterlimit:2.6131;}
	.st3{fill-rule:evenodd;clip-rule:evenodd;fill:#E1001A;stroke:#E1001A;stroke-width:2.4642;stroke-miterlimit:2.6131;}
	.st4{fill-rule:evenodd;clip-rule:evenodd;fill:#FFFFFF;stroke:#E1001A;stroke-width:0.7392;stroke-miterlimit:2.6131;}
</style>
<g>
	<g>
		<path class="st0" d="M424,119.8h-85c-0.1,0-0.1,0-0.1,0.1v331.9c0,0.1,0,0.1,0.1,0.1h85c0.1,0,0.1,0,0.1-0.1V119.9
			C424.1,119.9,424,119.8,424,119.8L424,119.8z"/>
		<polygon class="st1" points="343.1,298.8 343.1,266.1 419.8,188.2 419.8,220.9 343.1,298.8 		"/>
		<polygon class="st1" points="343.1,383.9 343.1,351.2 419.8,273.3 419.8,306 343.1,383.9 		"/>
		<path class="st0" d="M301.1,120h-85c-0.1,0-0.1,0.1-0.1,0.1V452c0,0.1,0,0.1,0.1,0.1h85c0.1,0,0.1-0.1,0.1-0.1V120.1
			C301.2,120,301.2,120,301.1,120L301.1,120z"/>
		<polygon class="st1" points="220.3,260.7 220.3,228 297.1,150 297.1,182.7 220.3,260.7 		"/>
		<polygon class="st1" points="220.3,341.6 220.3,308.9 297.1,230.9 297.1,263.6 220.3,341.6 		"/>
		<polygon class="st1" points="220.3,422.5 220.3,389.8 297.1,311.8 297.1,344.5 220.3,422.5 		"/>
		<path class="st0" d="M548,120h-85c-0.1,0-0.1,0.1-0.1,0.1V452c0,0.1,0.1,0.1,0.1,0.1h85c0.1,0,0.1-0.1,0.1-0.1V120.1
			C548.1,120,548.1,120,548,120L548,120z"/>
		<polygon class="st1" points="467.2,341.6 467.2,308.9 544,230.9 544,263.6 467.2,341.6 		"/>
	</g>
</g>
<g>
	<path d="M764.3,343.7h-17l-6.8-17.6h-30.9l-6.4,17.6h-16.6l30.1-77.3h16.5L764.3,343.7z M735.5,313.1l-10.7-28.7l-10.4,28.7H735.5z
		"/>
</g>
<g>
	<path d="M694.8,634.9h30.9c6.1,0,10.7,0.3,13.7,0.8s5.7,1.6,8.1,3.2s4.4,3.8,5.9,6.5s2.4,5.7,2.4,9c0,3.6-1,6.9-2.9,10
		s-4.6,5.3-7.9,6.8c4.7,1.4,8.3,3.7,10.9,7s3.8,7.2,3.8,11.7c0,3.5-0.8,6.9-2.5,10.3s-3.9,6-6.7,8c-2.8,2-6.3,3.2-10.5,3.7
		c-2.6,0.3-8.9,0.5-18.8,0.5h-26.3V634.9z M710.4,647.8v17.9h10.2c6.1,0,9.9-0.1,11.3-0.3c2.7-0.3,4.8-1.2,6.3-2.8s2.3-3.5,2.3-6
		c0-2.4-0.7-4.3-2-5.8s-3.3-2.4-5.9-2.7c-1.5-0.2-6-0.3-13.3-0.3H710.4z M710.4,678.5v20.7h14.4c5.6,0,9.2-0.2,10.7-0.5
		c2.3-0.4,4.2-1.5,5.7-3.1c1.5-1.6,2.2-3.8,2.2-6.6c0-2.3-0.6-4.3-1.7-5.9c-1.1-1.6-2.8-2.8-4.9-3.5c-2.1-0.7-6.7-1.1-13.8-1.1
		H710.4z"/>
</g>
<g>
	<g>
		<polygon class="st2" points="210.2,722.3 195.7,761.9 235.3,775.8 383,707 531,776 570.6,761.8 556.1,722.3 453.2,674 
			556.1,625.8 570.6,586.3 531.2,572.1 383,641.1 235.2,572.1 195.7,586.3 210.2,625.8 313,674 210.2,722.3 		"/>
		<polygon class="st3" points="340.4,674.1 219.4,730.7 210.7,754.9 234.9,763.6 383.2,694.1 531.7,763.6 555.9,754.9 547.1,730.8 
			425.9,674.1 547.1,617.3 555.9,593.2 531.8,584.5 383.2,654 234.8,584.5 210.7,593.2 219.4,617.4 340.4,674.1 		"/>
		<polygon class="st4" points="383.4,664 241.3,597.6 233.6,614 362,674.1 233.6,734.2 241.3,750.7 383.4,684.1 525.3,750.7 
			533.1,734.2 404.8,674.1 533,614 525.3,597.5 383.4,664 		"/>
	</g>
</g>
</svg>
