<?xml version="1.0" encoding="utf-8"?>
<!-- Generator: Adobe Illustrator 19.2.0, SVG Export Plug-In . SVG Version: 6.00 Build 0)  -->
<svg version="1.1" id="Livello_1" xmlns="http://www.w3.org/2000/svg" xmlns:xlink="http://www.w3.org/1999/xlink" x="0px" y="0px"
	 viewBox="0 0 731 712.3" style="enable-background:new 0 0 731 712.3;" xml:space="preserve">
<style type="text/css">
	.st0{fill:#FFFFFF;stroke:#1A171B;stroke-width:0.7345;stroke-miterlimit:2.6131;}
	.st1{fill:#E1001A;}
	.st2{fill:#FFFFFF;stroke:#E1001A;stroke-width:2.4484;stroke-miterlimit:2.6131;}
	.st3{fill:#1A171B;stroke:#1A171B;stroke-width:0.7345;stroke-miterlimit:2.6131;}
	.st4{fill:#FFFFFF;stroke:#1A171B;stroke-width:1.1629;stroke-miterlimit:2.6131;}
	.st5{fill:#FFFFFF;}
	.st6{fill:#E1001A;stroke:#E1001A;stroke-width:0.7455;stroke-miterlimit:2.6131;}
	.st7{fill:#1A171B;stroke:#1A171B;stroke-width:0.7455;stroke-miterlimit:2.6131;}
</style>
<g>
	<g>
		<g>
			<path class="st0" d="M458.7,329.3c17.1-0.7,27.3-13.4,24.6-30.4l-0.6-2.5l-1-2.7l-1.2-2.6L323.9,19c-7.9-12.1-19-18.9-33.5-12.8
				c-5.5,3-9.5,7.3-12.6,12.4L121.4,289.5c-5.7,10.7-7.8,22,0.8,31.9c6.9,7.3,15.5,8,25.1,8l307.5-0.1H458.7L458.7,329.3z"/>
			<path class="st1" d="M454.9,321.4c4.8-0.1,9.5,0.5,14.5-3.2s9.6-13,4.2-23.8L317.1,23.1c-8.8-15.4-24.2-15-32.6-0.4L128.2,293.4
				c-3.3,5.8-6.1,13.9-2.3,20.1c5,7.9,12.8,7.9,21.4,8L454.9,321.4L454.9,321.4z"/>
			<polygon class="st2" points="434,289.6 300.5,58.5 167.2,289.6 			"/>
			<polygon class="st3" points="247.2,271.5 247.2,219.6 264.5,181.8 264.5,146.1 287.8,146.1 287.8,181.7 270.4,220.5 270.5,271.5 
							"/>
			<polygon class="st3" points="351.4,271.5 351.4,219.6 334.1,181.8 334.1,146.1 310.8,146.1 310.8,181.7 328.2,220.5 328.1,271.5 
							"/>
		</g>
	</g>
	<g>
		<g>
			<path class="st4" d="M300,380.2c90.7,0,164.6,74,164.6,164.6s-74,164.6-164.6,164.6s-164.6-74-164.6-164.6
				C135.5,454.2,209.4,380.2,300,380.2L300,380.2z"/>
			<path class="st1" d="M300,389.6c85.5,0,155.2,69.8,155.2,155.2S385.5,700.1,300,700.1s-155.2-69.8-155.2-155.2
				S214.6,389.6,300,389.6L300,389.6z"/>
			<path class="st5" d="M300.5,429c63.6,0,115.5,51.9,115.5,115.5S364.1,660,300.5,660S185,608.2,185,544.6S236.9,429,300.5,429
				L300.5,429z"/>
			<path class="st6" d="M353.3,618.9v-88.8l15.4,3.9c5.1,1.5,7.3-2.3,5.2-5.2L343,472.3l-30.9,56.5c-1.1,3,0.1,6.5,5.1,5.2l15.5-3.9
				V619L353.3,618.9L353.3,618.9z"/>
			<path class="st7" d="M268.8,472.2v88.9l15.4-3.9c5.1-1.5,7.3,2.3,5.2,5.2l-30.9,56.5l-30.9-56.5c-1.1-3,0.1-6.5,5.1-5.2l15.5,3.9
				v-88.9L268.8,472.2L268.8,472.2z"/>
		</g>
	</g>
	<g>
		<path d="M673.6,223.1H657l-6.7-17.2H620l-6.3,17.2h-16.3l29.5-75.8h16.2L673.6,223.1z M645.4,193.1L634.9,165l-10.2,28.1H645.4z"
			/>
	</g>
	<g>
		<path d="M605.5,508.5h30.3c6,0,10.5,0.3,13.4,0.8s5.6,1.6,7.9,3.1c2.4,1.6,4.3,3.7,5.8,6.4c1.5,2.6,2.4,5.6,2.4,8.8
			c0,3.5-1,6.8-2.8,9.8c-1.9,3-4.5,5.2-7.7,6.7c4.6,1.4,8.1,3.6,10.7,6.9c2.5,3.2,3.7,7.1,3.7,11.5c0,3.4-0.8,6.8-2.5,10.1
			s-3.8,5.9-6.6,7.8c-2.7,2-6.2,3.1-10.3,3.6c-2.5,0.3-8.7,0.5-18.4,0.5h-25.8L605.5,508.5L605.5,508.5z M620.8,521.1v17.5h10
			c6,0,9.7-0.1,11.1-0.3c2.6-0.3,4.7-1.2,6.2-2.7c1.5-1.6,2.3-3.4,2.3-5.9c0-2.4-0.7-4.2-2-5.7s-3.2-2.4-5.8-2.6
			c-1.5-0.2-5.9-0.3-13-0.3H620.8L620.8,521.1z M620.8,551.2v20.3h14.1c5.5,0,9-0.2,10.5-0.5c2.3-0.4,4.1-1.5,5.6-3s2.2-3.7,2.2-6.5
			c0-2.3-0.6-4.2-1.7-5.8c-1.1-1.6-2.7-2.7-4.8-3.4s-6.6-1.1-13.5-1.1H620.8L620.8,551.2z"/>
	</g>
</g>
</svg>
