<?xml version="1.0" encoding="utf-8"?>
<!-- Generator: Adobe Illustrator 19.2.0, SVG Export Plug-In . SVG Version: 6.00 Build 0)  -->
<svg version="1.1" id="Livello_1" xmlns="http://www.w3.org/2000/svg" xmlns:xlink="http://www.w3.org/1999/xlink" x="0px" y="0px"
	 viewBox="0 0 731 712.3" style="enable-background:new 0 0 731 712.3;" xml:space="preserve">
<style type="text/css">
	.st0{fill:#FFFFFF;stroke:#1A171B;stroke-width:0.7345;stroke-miterlimit:2.6131;}
	.st1{fill:#E1001A;}
	.st2{fill:#FFFFFF;stroke:#E1001A;stroke-width:2.4484;stroke-miterlimit:2.6131;}
	.st3{fill:#1A171B;stroke:#1A171B;stroke-width:0.7345;stroke-miterlimit:2.6131;}
	.st4{fill:#005EA7;}
	.st5{fill:none;stroke:#FFFFFF;stroke-width:6.4838;stroke-miterlimit:2.6131;}
	.st6{fill:#FFFFFF;stroke:#172982;stroke-width:0.6484;stroke-miterlimit:2.6131;}
	.st7{fill:#E1001A;stroke:#172982;stroke-width:0.6484;stroke-miterlimit:2.6131;}
</style>
<g>
	<g>
		<g>
			<path class="st0" d="M458.7,329.3c17.1-0.7,27.3-13.4,24.6-30.4l-0.6-2.5l-1-2.7l-1.2-2.6L323.9,19C316,6.9,304.9,0.1,290.4,6.2
				c-5.5,3-9.5,7.3-12.6,12.4L121.4,289.5c-5.7,10.7-7.8,22,0.8,31.9c6.9,7.3,15.5,8,25.1,8l307.5-0.1H458.7L458.7,329.3z"/>
			<path class="st1" d="M454.9,321.4c4.8-0.1,9.5,0.5,14.5-3.2c5-3.7,9.6-13,4.2-23.8L317.1,23.1c-8.8-15.4-24.2-15-32.6-0.4
				L128.2,293.4c-3.3,5.8-6.1,13.9-2.3,20.1c5,7.9,12.8,7.9,21.4,8L454.9,321.4L454.9,321.4z"/>
			<polygon class="st2" points="434,289.6 300.5,58.5 167.2,289.6 			"/>
			<polygon class="st3" points="247.2,271.5 247.2,219.6 264.5,181.8 264.5,146.1 287.8,146.1 287.8,181.7 270.4,220.5 270.5,271.5 
							"/>
			<polygon class="st3" points="351.4,271.5 351.4,219.6 334.1,181.8 334.1,146.1 310.8,146.1 310.8,181.7 328.2,220.5 328.1,271.5 
							"/>
		</g>
	</g>
	<g>
		<path d="M673.6,223.1H657l-6.7-17.2H620l-6.3,17.2h-16.3l29.5-75.8h16.2L673.6,223.1z M645.4,193.1L634.9,165l-10.2,28.1H645.4z"
			/>
	</g>
	<g>
		<path d="M605.5,508.5h30.3c6,0,10.5,0.3,13.4,0.8s5.6,1.6,7.9,3.1c2.4,1.6,4.3,3.7,5.8,6.4c1.5,2.6,2.4,5.6,2.4,8.8
			c0,3.5-1,6.8-2.8,9.8c-1.9,3-4.5,5.2-7.7,6.7c4.6,1.4,8.1,3.6,10.7,6.9c2.5,3.2,3.7,7.1,3.7,11.5c0,3.4-0.8,6.8-2.5,10.1
			c-1.7,3.3-3.8,5.9-6.6,7.8c-2.7,2-6.2,3.1-10.3,3.6c-2.5,0.3-8.7,0.5-18.4,0.5h-25.8L605.5,508.5L605.5,508.5z M620.8,521.1v17.5
			h10c6,0,9.7-0.1,11.1-0.3c2.6-0.3,4.7-1.2,6.2-2.7c1.5-1.6,2.3-3.4,2.3-5.9c0-2.4-0.7-4.2-2-5.7c-1.3-1.5-3.2-2.4-5.8-2.6
			c-1.5-0.2-5.9-0.3-13-0.3L620.8,521.1L620.8,521.1z M620.8,551.2v20.3h14.1c5.5,0,9-0.2,10.5-0.5c2.3-0.4,4.1-1.5,5.6-3
			s2.2-3.7,2.2-6.5c0-2.3-0.6-4.2-1.7-5.8c-1.1-1.6-2.7-2.7-4.8-3.4c-2.1-0.7-6.6-1.1-13.5-1.1L620.8,551.2L620.8,551.2z"/>
	</g>
</g>
<g>
	<polygon class="st4" points="135.7,380.9 464.9,380.9 464.9,708.3 135.7,708.3 	"/>
	<path class="st5" d="M163.5,390.5h274c10,0,18.2,8.2,18.2,18.2V681c0,10-8.2,18.2-18.2,18.2h-274c-10,0-18.2-8.2-18.2-18.2V408.8
		C145.3,398.8,153.5,390.5,163.5,390.5L163.5,390.5z"/>
	<path class="st6" d="M385.7,649.5V522.7l25.1,5.6c8.3,2.1,11.9-3.2,8.4-7.4l-50.3-80.8l-50.4,80.8c-1.8,4.3,0.2,9.2,8.3,7.4
		l25.3-5.6v126.8H385.7z"/>
	<path class="st7" d="M248.2,440.1v126.8l25.1-5.6c8.3-2.1,11.9,3.2,8.4,7.4l-50.4,80.8L181,568.8c-1.8-4.3,0.2-9.2,8.3-7.4
		l25.3,5.6V440.1H248.2z"/>
</g>
</svg>
