<?xml version="1.0" encoding="utf-8"?>
<!-- Generator: Adobe Illustrator 19.2.0, SVG Export Plug-In . SVG Version: 6.00 Build 0)  -->
<svg version="1.1" id="Livello_1" xmlns="http://www.w3.org/2000/svg" xmlns:xlink="http://www.w3.org/1999/xlink" x="0px" y="0px"
	 viewBox="0 0 960 960" style="enable-background:new 0 0 960 960;" xml:space="preserve">
<style type="text/css">
	.st0{fill:#FFFFFF;stroke:#1A171B;stroke-width:1.0966;stroke-miterlimit:2.6131;}
	.st1{fill:none;stroke:#1A171B;stroke-width:3.6554;stroke-miterlimit:2.6131;}
	.st2{fill-rule:evenodd;clip-rule:evenodd;fill:#1A171B;stroke:#1A171B;stroke-width:1.0966;stroke-miterlimit:2.6131;}
	.st3{fill-rule:evenodd;clip-rule:evenodd;fill:#FFFFFF;stroke:#1A171B;stroke-width:1.15;stroke-miterlimit:2.6131;}
	.st4{fill-rule:evenodd;clip-rule:evenodd;fill:#E1001A;}
	.st5{fill-rule:evenodd;clip-rule:evenodd;fill:#FFFFFF;stroke:#E1001A;stroke-width:3.8332;stroke-miterlimit:2.6131;}
	.st6{fill-rule:evenodd;clip-rule:evenodd;fill:#1A171B;stroke:#1A171B;stroke-width:1.15;stroke-miterlimit:2.6131;}
</style>
<g>
	<polygon class="st0" points="257.1,645.2 702.9,645.2 702.9,840 257.1,840 257.1,645.2 	"/>
	<path class="st1" d="M294.3,659.4H665c13.8,0,25.1,11.3,25.1,25.1V801c0,13.8-11.3,25.1-25.1,25.1H294.3
		c-13.8,0-25.1-11.3-25.1-25.1V684.5C269.2,670.7,280.5,659.4,294.3,659.4L294.3,659.4z"/>
	<polygon class="st2" points="383.6,805.7 324.3,743.3 384.5,680.9 409.7,680.9 362.8,731.3 446,731.3 446,755 362.8,755 412,805.7 
		383.6,805.7 	"/>
	<polygon class="st2" points="576.4,805.7 635.7,743.3 575.5,680.9 550.3,680.9 597.2,731.3 514,731.3 514,755 597.2,755 548,805.7 
		576.4,805.7 	"/>
</g>
<g>
	<g>
		<path class="st3" d="M728.3,629.4c26.7-1.1,42.8-21.1,38.6-47.6l-0.9-4.1l-1.6-4.4l-1.9-4.2L517.2,143.7
			c-12.3-18.9-29.7-29.7-52.3-20.1c-8.6,4.7-14.8,11.4-19.8,19.5L200.3,567.1c-8.9,16.7-12.3,34.3,1.3,49.8
			c10.8,11.4,24.2,12.6,39.3,12.6l481.5-0.2H728.3L728.3,629.4z"/>
		<path class="st4" d="M722.4,617.1c7.5-0.2,14.8,0.8,22.6-5c7.8-5.8,15-20.5,6.6-37.3l-245-424.7c-13.7-24-37.9-23.4-51.1-0.6
			L211.1,573.2c-5.2,9.1-9.5,21.9-3.6,31.4c7.8,12.5,20.1,12.5,33.4,12.6L722.4,617.1L722.4,617.1z"/>
		<polygon class="st5" points="689.8,567.3 480.7,205.5 272.1,567.3 689.8,567.3 		"/>
		<path class="st6" d="M397.7,421.3l3-16.1l22.9,4.3l-3.1,16.6c-0.5,2.7-3.4,3-6.3,2.5l-12-2.4C398,425.5,397.2,424.2,397.7,421.3
			L397.7,421.3z"/>
		<path class="st6" d="M513,443.1l3-16.1l23.1,4.4l-3.3,16.6c-0.5,2.7-3.4,3.1-6.3,2.5l-12.5-2.5C513.4,447.4,512.1,445.9,513,443.1
			L513,443.1z"/>
		<path class="st6" d="M395.9,400.2c-4.9-0.9-3.3-9.2,1.4-8.3l150.8,28.5c4.6,0.9,3.2,9.2-1.7,8.3L395.9,400.2L395.9,400.2z"/>
		<path class="st6" d="M402.1,388c-0.7-2.1-1.2-4.1-1-6l28,5.3c2.4-2.5,2.7-4.2,3.3-7.1l-29.7-5.6l0.5-3.8l29.9,5.6
			c0.5-2.7,0.2-5.6-1.3-8l-27.1-5.1c0.4-1.9,0.8-3.5,3.1-5c1.9-0.7,4.7-1.6,6.8-1.5c44.8-0.8,87.5,6.7,130.3,23.6
			c1.9,1.1,3.9,1.8,6.3,4c1.5,2.2,1.8,5.1,1.5,7l-26.8-5.1c-3.3,1.5-4.8,4-5.3,6.7l31,5.9l-1,3.7l-30.7-5.8
			c-0.5,2.9-1.1,5.6,2.3,8.2l27,5.1c-0.3,1.9-1.6,3.6-3.8,5.1L402.1,388L402.1,388z"/>
		<path class="st6" d="M414.4,352.8l17-33.3c3.4-3.2,6.7-4.7,10.4-4.9c31.6,1.2,62.3,7,92.9,17.7c3.8,1.4,5.9,4.8,8,9.1l3.2,34.3
			l-8-3.4l-2.6-27.4c-0.3-3-2-4.2-4.5-6.7c-28.1-9.2-57-14.6-86.5-16.3c-3.9,0-4.9,0.7-7.3,3.4l-12.9,26.4L414.4,352.8L414.4,352.8z
			"/>
		<path class="st3" d="M457.7,373.5l40.9,7.7c1.5,0.3,2.5,1.8,2.2,3.3l-2.5,13.1c-0.3,1.5-1.8,2.5-3.3,2.2l-40.9-7.7
			c-1.5-0.3-2.5-1.8-2.2-3.3l2.5-13.1C454.7,374.3,456.2,373.2,457.7,373.5L457.7,373.5z"/>
		<path class="st6" d="M522.6,550.3c5.4-3.3,17.6-10,26-15.9c7.6-9.4,4.4-14.1,3.6-18.7c-11.1-14-33.6-22.5-38.6-45.2l2.2-12.9
			l13.5,2.5l-0.6,9.2c1.3,7.6,7.6,11.9,15.6,18.6c10.6,8.4,18.7,10.2,29.4,17.6c3.2,4.1,6.2,7.8,6.2,14.3
			c-1.6,11.9-1.6,15.2-14.9,30.6C551.9,550.4,536.5,550.4,522.6,550.3L522.6,550.3z"/>
		<path class="st6" d="M362.4,550.1c22.5-12.9,49-18.2,64.9-40.8c2.5-5.1,2.7-10.3,2.5-16.5c-3.2-18.4-23.5-24-31.1-42.2
			c-0.5-4.9-0.2-8.6,0.8-13.8l13.5,2.2v6.7c6.3,14.9,21,18.6,31.9,31.9c7.6,9.2,10.2,22.2,8.6,35.4c0,10.6-19.4,33.6-30.5,37.1
			H362.4L362.4,550.1z"/>
	</g>
</g>
</svg>
