<?xml version="1.0" encoding="utf-8"?>
<!-- Generator: Adobe Illustrator 19.2.0, SVG Export Plug-In . SVG Version: 6.00 Build 0)  -->
<svg version="1.1" id="Livello_1" xmlns="http://www.w3.org/2000/svg" xmlns:xlink="http://www.w3.org/1999/xlink" x="0px" y="0px"
	 viewBox="0 0 740 534" style="enable-background:new 0 0 740 534;" xml:space="preserve">
<style type="text/css">
	.st0{fill:#FFFFFF;stroke:#1A171B;stroke-width:0.7495;stroke-miterlimit:2.6131;}
	.st1{fill:#E1001A;}
	.st2{fill:#FFFFFF;stroke:#E1001A;stroke-width:2.4984;stroke-miterlimit:2.6131;}
	.st3{fill:#1A171B;stroke:#1A171B;stroke-width:0.7495;stroke-miterlimit:2.6131;}
	.st4{fill:#005EA7;}
	.st5{fill:#005EA7;stroke:#FFFFFF;stroke-width:4.4187;stroke-miterlimit:2.6131;}
	.st6{fill:#FFFFFF;}
</style>
<g>
	<g>
		<path class="st0" d="M471,333.7c17.4-0.7,27.9-13.7,25.1-31l-0.6-2.6l-1-2.8l-1.2-2.7L333.4,17.1c-8-12.3-19.3-19.3-34.1-13.1
			c-5.6,3.1-9.7,7.4-12.9,12.7L126.8,293.1c-5.8,10.9-8,22.4,0.8,32.5c7,7.4,15.8,8.2,25.6,8.2l313.8-0.1H471L471,333.7z"/>
		<path class="st1" d="M467.1,325.7c4.9-0.1,9.7,0.5,14.8-3.3s9.8-13.3,4.3-24.3L326.5,21.3c-9-15.7-24.7-15.3-33.3-0.4L133.8,297.1
			c-3.4,5.9-6.2,14.2-2.3,20.5c5.1,8.1,13.1,8.1,21.8,8.2L467.1,325.7L467.1,325.7z"/>
		<polygon class="st2" points="445.8,293.2 309.6,57.4 173.6,293.2 		"/>
		<path class="st3" d="M255.5,198.1l2-10.5l14.9,2.8l-2,10.8c-0.3,1.8-2.2,2-4.1,1.6l-7.8-1.6C255.7,200.8,255.2,199.9,255.5,198.1
			L255.5,198.1z"/>
		<path class="st3" d="M330.6,212.3l2-10.5l15,2.8l-2.2,10.8c-0.3,1.8-2.2,2-4.1,1.6l-8.2-1.7C330.9,215.1,330.1,214.1,330.6,212.3
			L330.6,212.3z"/>
		<path class="st3" d="M254.3,184.3c-3.2-0.6-2.2-6,0.9-5.4l98.3,18.6c3,0.6,2.1,6-1.1,5.4L254.3,184.3L254.3,184.3z"/>
		<path class="st3" d="M258.4,176.4c-0.4-1.3-0.8-2.7-0.6-3.9l18.2,3.4c1.6-1.6,1.8-2.8,2.1-4.6l-19.3-3.7l0.3-2.5l19.5,3.7
			c0.3-1.8,0.1-3.6-0.9-5.2l-17.7-3.3c0.2-1.2,0.6-2.3,2-3.3c1.2-0.5,3.1-1,4.4-1c29.2-0.6,57,4.4,84.9,15.4
			c1.2,0.7,2.5,1.2,4.1,2.6c1,1.4,1.2,3.3,1,4.5l-17.5-3.3c-2.1,1-3.1,2.6-3.5,4.4l20.2,3.8l-0.7,2.4l-20-3.8
			c-0.4,1.9-0.7,3.6,1.5,5.3l17.6,3.3c-0.2,1.2-1,2.3-2.5,3.3L258.4,176.4L258.4,176.4z"/>
		<path class="st3" d="M266.4,153.4l11.1-21.7c2.2-2.1,4.4-3.1,6.8-3.2c20.6,0.8,40.6,4.6,60.6,11.6c2.5,0.9,3.9,3.1,5.2,5.9
			l2.1,22.4l-5.2-2.2l-1.7-17.8c-0.2-2-1.3-2.8-3-4.3c-18.3-6-37.1-9.5-56.4-10.7c-2.5,0-3.2,0.4-4.8,2.2l-8.4,17.2L266.4,153.4
			L266.4,153.4z"/>
		<path class="st0" d="M294.6,166.9l26.7,5c1,0.2,1.6,1.2,1.5,2.1l-1.6,8.5c-0.2,1-1.2,1.6-2.1,1.5l-26.7-5c-1-0.2-1.6-1.1-1.5-2.1
			l1.6-8.5C292.7,167.4,293.6,166.8,294.6,166.9L294.6,166.9z"/>
		<path class="st3" d="M336.9,282.1c3.5-2.2,11.5-6.5,17-10.3c5-6.1,2.9-9.2,2.4-12.2c-7.2-9.1-21.9-14.7-25.1-29.5l1.5-8.4l8.8,1.7
			l-0.4,6c0.8,5,5,7.8,10.1,12.1c6.9,5.5,12.2,6.6,19.1,11.5c2.1,2.7,4,5.1,4,9.3c-1,7.8-1,9.9-9.7,20
			C356,282.2,346,282.2,336.9,282.1L336.9,282.1z"/>
		<path class="st3" d="M232.5,282c14.7-8.4,32-11.9,42.3-26.6c1.7-3.3,1.8-6.7,1.7-10.8c-2.1-12-15.3-15.6-20.3-27.5
			c-0.3-3.2-0.1-5.6,0.5-9l8.8,1.4v4.3c4.1,9.7,13.7,12.1,20.8,20.8c5,6,6.6,14.5,5.6,23.1c0,6.9-12.6,21.9-19.9,24.2h-39.5V282z"/>
	</g>
</g>
<g>
	<path d="M690.3,225.4h-17l-6.8-17.6h-30.9l-6.4,17.6h-16.6l30.1-77.3h16.5L690.3,225.4z M661.5,194.8l-10.7-28.7l-10.4,28.7H661.5z
		"/>
</g>
<g>
	<path d="M620.8,430.6h30.9c6.1,0,10.7,0.3,13.7,0.8s5.7,1.6,8.1,3.2s4.4,3.8,5.9,6.5s2.4,5.7,2.4,9c0,3.6-1,6.9-2.9,10
		s-4.6,5.3-7.9,6.8c4.7,1.4,8.3,3.7,10.9,7s3.8,7.2,3.8,11.7c0,3.5-0.8,6.9-2.5,10.3s-3.9,6-6.7,8s-6.3,3.2-10.5,3.7
		c-2.6,0.3-8.9,0.5-18.8,0.5h-26.3v-77.5H620.8z M636.4,443.5v17.9h10.2c6.1,0,9.9-0.1,11.3-0.3c2.7-0.3,4.8-1.2,6.3-2.8
		s2.3-3.5,2.3-6c0-2.4-0.7-4.3-2-5.8s-3.3-2.4-5.9-2.7c-1.5-0.2-6-0.3-13.3-0.3L636.4,443.5L636.4,443.5z M636.4,474.2v20.7h14.4
		c5.6,0,9.2-0.2,10.7-0.5c2.3-0.4,4.2-1.5,5.7-3.1s2.2-3.8,2.2-6.6c0-2.3-0.6-4.3-1.7-5.9c-1.1-1.6-2.8-2.8-4.9-3.5
		c-2.1-0.7-6.7-1.1-13.8-1.1L636.4,474.2L636.4,474.2z"/>
</g>
<g>
	<g>
		<polygon class="st4" points="141.4,403.1 477.3,403.1 477.3,530.2 141.4,530.2 		"/>
		<path class="st5" d="M167.1,412.2h284.5c9.1,0,16.6,7.5,16.6,16.6v75.8c0,9.1-7.5,16.6-16.6,16.6H167.1c-9.1,0-16.6-7.5-16.6-16.6
			v-75.8C150.5,419.7,157.9,412.2,167.1,412.2L167.1,412.2z"/>
		<polygon class="st6" points="380.6,439.9 377.3,427.6 382.4,426.2 384.3,433.3 388.9,425.5 397.8,430.7 392.7,439.7 401.7,437.4 
			403.1,442.4 388.9,446.2 380.6,460.6 399.4,460.6 408.3,451.7 412,455.4 406.7,460.4 415.9,460.6 415.9,470.9 405.4,470.9 
			412,477.7 408.3,481.4 398.1,470.9 379.8,470.9 389.1,486.8 403.2,490.5 402,495.7 392.8,493.2 398.2,502.3 389.1,507.5 
			384.4,499.4 382.4,506.9 377.4,505.3 380.6,492.9 371.2,476.7 362.8,491.3 366.6,505.5 361.5,506.9 359.1,497.7 353.9,506.9 
			344.8,501.7 349.5,493.5 342,495.6 340.9,490.5 353.4,486.9 362.7,470.9 346,470.9 335.5,481.4 331.8,477.7 338.4,470.9 
			327.8,470.9 327.8,460.6 337.3,460.6 331.8,455.1 335.7,451.4 344.9,460.6 361.9,460.6 353.5,445.8 341.3,442.5 342.6,437.2 
			349.5,439.2 345.2,431.3 354.1,426.1 359.4,435.1 361.9,426.1 366.9,427.5 363.1,441.7 371.2,456 		"/>
		<polygon class="st6" points="254,439.9 250.7,427.6 255.9,426.2 257.7,433.3 262.3,425.5 271.2,430.7 266.1,439.7 275.2,437.4 
			276.5,442.4 262.3,446.2 254,460.6 272.8,460.6 281.8,451.7 285.4,455.4 280.2,460.4 289.4,460.6 289.4,470.9 278.9,470.9 
			285.4,477.7 281.8,481.4 271.5,470.9 253.2,470.9 262.6,486.8 276.6,490.5 275.4,495.7 266.2,493.2 271.6,502.3 262.6,507.5 
			257.8,499.4 255.9,506.9 250.9,505.3 254,492.9 244.7,476.7 236.3,491.3 240.1,505.5 234.9,506.9 232.6,497.7 227.3,506.9 
			218.2,501.7 223,493.5 215.5,495.6 214.3,490.5 226.8,486.9 236.1,470.9 219.4,470.9 208.9,481.4 205.2,477.7 211.8,470.9 
			201.3,470.9 201.3,460.6 210.8,460.6 205.2,455.1 209.2,451.4 218.4,460.6 235.3,460.6 226.9,445.8 214.7,442.5 216,437.2 
			223,439.2 218.6,431.3 227.6,426.1 232.8,435.1 235.3,426.1 240.3,427.5 236.5,441.7 244.7,456 		"/>
	</g>
</g>
</svg>
