<?xml version="1.0" encoding="utf-8"?>
<!-- Generator: Adobe Illustrator 19.2.0, SVG Export Plug-In . SVG Version: 6.00 Build 0)  -->
<svg version="1.1" id="Livello_1" xmlns="http://www.w3.org/2000/svg" xmlns:xlink="http://www.w3.org/1999/xlink" x="0px" y="0px"
	 viewBox="0 0 960 960" style="enable-background:new 0 0 960 960;" xml:space="preserve">
<style type="text/css">
	.st0{fill:#FFFFFF;stroke:#1A171B;stroke-width:1.0161;stroke-miterlimit:2.6131;}
	.st1{fill:none;stroke:#1A171B;stroke-width:6.7738;stroke-miterlimit:2.6131;}
	.st2{fill-rule:evenodd;clip-rule:evenodd;fill:#1A171B;stroke:#1A171B;stroke-width:2.7095;stroke-miterlimit:2.6131;}
	.st3{fill-rule:evenodd;clip-rule:evenodd;fill:#1A171B;stroke:#1A171B;stroke-width:1.0161;stroke-miterlimit:2.6131;}
	.st4{fill-rule:evenodd;clip-rule:evenodd;fill:#FFFFFF;stroke:#1A171B;stroke-width:1.15;stroke-miterlimit:2.6131;}
	.st5{fill-rule:evenodd;clip-rule:evenodd;fill:#E1001A;}
	.st6{fill-rule:evenodd;clip-rule:evenodd;fill:#FFFFFF;stroke:#E1001A;stroke-width:3.8332;stroke-miterlimit:2.6131;}
	.st7{fill-rule:evenodd;clip-rule:evenodd;fill:#1A171B;stroke:#1A171B;stroke-width:1.15;stroke-miterlimit:2.6131;}
</style>
<polygon class="st0" points="222.5,645.2 737.5,645.2 737.5,840 222.5,840 222.5,645.2 "/>
<path class="st1" d="M261.9,659.1h436.2c14,0,25.5,11.5,25.5,25.5v116.2c0,14-11.5,25.5-25.5,25.5H261.9c-14,0-25.5-11.5-25.5-25.5
	V684.6C236.5,670.6,247.9,659.1,261.9,659.1L261.9,659.1z"/>
<path class="st2" d="M299.8,770.5l-8.4-12.7l8.2-14.8c2.5,0,7.5,0,10.9,0c6.4-4.3,0-8.5,0-12.8l2.1-4.3c4.1,0,3.5,0,8.5,0l2.1,4.3
	c0,5-6.3,8.5-2.1,12.8c8.1,0,14.5,0,23.5,0c2.3,0,2.1,0.1,4.2-2.2c12.7,0,25.6,0,38.4,0c2.1,2.2,2.1,2.2,4.2,2.2v27.6H299.8
	L299.8,770.5z"/>
<path class="st2" d="M313.6,721.9c-0.3,0,1.4-7.2,3-11.4c1-2.8,6.8-8.4,7.8-12.5c2.6-10.3,7.8-17.8,19.5-15.6
	c5.3,0.9,6.8,6.5,12.7,8c4.3,1.2,9.5-3.5,14.6-3.5c6.2-0.1,6.1,7.2,12.1,7.2c3.8,0,7.5-3.8,9.5-3.8c12.1,0,13.1,13.4,9.6,19
	c-1.5,2.3-5.9,4.2-9,4.2c-4.4,0-7.5-6.9-11.4-3.8c-4.2,3.5-7.4,6.2-13.8,4.5c-3.8-1-6.6-6.7-10.6-6.1l-4.5,0.8
	c-3.6,3.6-10.9,7.5-15.9,5.3c-6.2-2.7-11.8-6.3-15.1,3l-1.6,4.5H313.6L313.6,721.9z"/>
<path class="st3" d="M283,792.1v-6.6h8.4c0-2.6,0-8,0-11.2h103.7v-33.5h39v6.3h-21.4v15.1c2.4,0,7.6,0,10.6,0v19.5h-21.2v3.7h38.1
	v6.6h-17.6c2.2,1.1,3.8,3.5,3.8,6.1c0,3.7-3.1,6.8-6.8,6.8c-3.8,0-6.9-3.1-6.9-6.8c0-2.6,1.5-5,3.8-6.2l-14.7,0.1h0.2
	c0,7.1-5.8,12.8-12.8,12.8c-7.1,0-12.8-5.6-12.8-12.8l0,0h-6.5l0,0c0,7.1-5.6,12.8-12.8,12.8c-6.9,0-12.8-5.6-12.8-12.8l0,0h-6.3
	c0,7.1-5.8,12.8-12.8,12.8c-7.1,0-12.8-5.6-12.8-12.5h-12.1c2.2,1.1,3.7,3.5,3.7,5.8c0,3.7-3.2,6.9-6.9,6.9c-3.7,0-6.9-3.2-6.9-6.9
	c0-2.4,1.5-4.8,3.7-5.8H283L283,792.1z"/>
<path class="st2" d="M534.8,770.5l-8.4-12.7l8.2-14.8c2.5,0,7.5,0,10.9,0c6.4-4.3,0-8.5,0-12.8l2.1-4.3c4.1,0,3.6,0,8.5,0l2.1,4.3
	c0,5-6.3,8.5-2.1,12.8c8.1,0,14.5,0,23.5,0c2.3,0,2.1,0.1,4.2-2.2c12.7,0,25.6,0,38.4,0c2.1,2.2,2.1,2.2,4.2,2.2v27.6H534.8
	L534.8,770.5z"/>
<path class="st2" d="M548.7,721.9c-0.3,0,1.5-7.2,3-11.4c1-2.8,6.8-8.4,7.8-12.5c2.6-10.3,7.8-17.8,19.5-15.6
	c5.3,0.9,6.8,6.5,12.7,8c4.3,1.2,9.5-3.5,14.6-3.5c6.2-0.1,6.1,7.2,12.1,7.2c3.8,0,7.5-3.8,9.5-3.8c12.1,0,13.1,13.4,9.6,19
	c-1.5,2.3-5.9,4.2-9,4.2c-4.4,0-7.5-6.9-11.4-3.8c-4.2,3.5-7.4,6.2-13.8,4.5c-3.8-1-6.6-6.7-10.6-6.1l-4.5,0.8
	c-3.6,3.6-10.9,7.5-15.9,5.3c-6.2-2.7-11.8-6.3-15.1,3l-1.6,4.5H548.7L548.7,721.9z"/>
<path class="st3" d="M518,792.1v-6.6h8.4c0-2.6,0-8,0-11.2h103.7v-33.5h39v6.3h-21.4v15.1c2.4,0,7.6,0,10.6,0v19.5h-21.2v3.7h38.1
	v6.6h-17.6c2.2,1.1,3.8,3.5,3.8,6.1c0,3.7-3.1,6.8-6.8,6.8c-3.8,0-6.9-3.1-6.9-6.8c0-2.6,1.5-5,3.8-6.2l-14.7,0.1h0.2
	c0,7.1-5.8,12.8-12.8,12.8c-7.1,0-12.8-5.6-12.8-12.8l0,0h-6.5l0,0c0,7.1-5.6,12.8-12.8,12.8c-6.9,0-12.8-5.6-12.8-12.8l0,0h-6.3
	c0,7.1-5.8,12.8-12.8,12.8c-7.1,0-12.8-5.6-12.8-12.5h-12.1c2.2,1.1,3.7,3.5,3.7,5.8c0,3.7-3.2,6.9-6.9,6.9c-3.7,0-6.9-3.2-6.9-6.9
	c0-2.4,1.5-4.8,3.7-5.8H518L518,792.1z"/>
<g>
	<g>
		<path class="st4" d="M728.3,629.4c26.7-1.1,42.8-21.1,38.6-47.6l-0.9-4.1l-1.6-4.4l-1.9-4.2L517.2,143.7
			c-12.3-18.9-29.7-29.7-52.3-20.1c-8.6,4.7-14.8,11.4-19.8,19.5L200.3,567.1c-8.9,16.7-12.3,34.4,1.3,49.8
			c10.8,11.4,24.2,12.6,39.3,12.6l481.5-0.2H728.3L728.3,629.4z"/>
		<path class="st5" d="M722.4,617.1c7.5-0.2,14.8,0.8,22.6-5c7.8-5.8,15-20.5,6.6-37.3l-245-424.7c-13.7-24-37.9-23.4-51.1-0.6
			L211.1,573.2c-5.2,9.1-9.5,21.9-3.6,31.4c7.8,12.5,20.1,12.5,33.4,12.6L722.4,617.1L722.4,617.1z"/>
		<polygon class="st6" points="689.8,567.3 480.7,205.5 272.1,567.3 689.8,567.3 		"/>
		<path class="st7" d="M481.2,499.2c12.6,0,22.8,10.2,22.8,22.8c0,12.6-10.2,22.8-22.8,22.8c-12.6,0-22.8-10.2-22.8-22.8
			C458.4,509.4,468.7,499.2,481.2,499.2L481.2,499.2z"/>
		<path class="st7" d="M496.9,463.6l7.2-159c0.3-6.9-10.2-22.8-22.8-22.8c-12.6,0-23.3,11-22.8,22.8l6.4,159
			c0.4,10.2,6.7,17.8,15.5,17.8C489.1,481.5,496.5,474,496.9,463.6L496.9,463.6z"/>
	</g>
</g>
</svg>
