<?xml version="1.0" encoding="utf-8"?>
<!-- Generator: Adobe Illustrator 19.2.0, SVG Export Plug-In . SVG Version: 6.00 Build 0)  -->
<svg version="1.1" id="Livello_1" xmlns="http://www.w3.org/2000/svg" xmlns:xlink="http://www.w3.org/1999/xlink" x="0px" y="0px"
	 viewBox="0 0 960 960" style="enable-background:new 0 0 960 960;" xml:space="preserve">
<style type="text/css">
	.st0{fill-rule:evenodd;clip-rule:evenodd;fill:#FFFFFF;stroke:#1A171B;stroke-width:0.7495;stroke-miterlimit:2.6131;}
	.st1{fill-rule:evenodd;clip-rule:evenodd;fill:#E1001A;}
	.st2{fill-rule:evenodd;clip-rule:evenodd;fill:#FFFFFF;stroke:#E1001A;stroke-width:2.4984;stroke-miterlimit:2.6131;}
	.st3{fill-rule:evenodd;clip-rule:evenodd;fill:#1A171B;stroke:#1A171B;stroke-width:0.7495;stroke-miterlimit:2.6131;}
	.st4{fill:#FFFFFF;stroke:#1A171B;stroke-width:0.6628;stroke-miterlimit:2.6131;}
	.st5{fill:none;stroke:#1A171B;stroke-width:4.4187;stroke-miterlimit:2.6131;}
	.st6{fill-rule:evenodd;clip-rule:evenodd;fill:#1A171B;stroke:#1A171B;stroke-width:0.6628;stroke-miterlimit:2.6131;}
</style>
<g>
	<g>
		<path class="st0" d="M545,452c17.4-0.7,27.9-13.7,25.1-31l-0.6-2.6l-1-2.8l-1.2-2.7L407.4,135.4c-8-12.3-19.3-19.3-34.1-13.1
			c-5.6,3.1-9.7,7.4-12.9,12.7L200.8,411.4c-5.8,10.9-8,22.4,0.8,32.5c7,7.4,15.8,8.2,25.6,8.2l313.8-0.1H545L545,452z"/>
		<path class="st1" d="M541.1,444c4.9-0.1,9.7,0.5,14.8-3.3c5.1-3.8,9.8-13.3,4.3-24.3L400.5,139.6c-9-15.7-24.7-15.3-33.3-0.4
			L207.8,415.4c-3.4,5.9-6.2,14.2-2.3,20.5c5.1,8.1,13.1,8.1,21.8,8.2L541.1,444L541.1,444z"/>
		<polygon class="st2" points="519.8,411.5 383.6,175.7 247.6,411.5 519.8,411.5 		"/>
		<path class="st3" d="M384,367.1c8.2,0,14.9,6.7,14.9,14.9c0,8.2-6.7,14.9-14.9,14.9c-8.2,0-14.9-6.7-14.9-14.9
			C369.1,373.8,375.8,367.1,384,367.1L384,367.1z"/>
		<path class="st3" d="M394.2,344l4.7-103.6c0.2-4.5-6.7-14.9-14.9-14.9c-8.2,0-15.2,7.2-14.9,14.9l4.2,103.6
			c0.3,6.7,4.4,11.6,10.1,11.6C389.1,355.6,393.9,350.7,394.2,344L394.2,344z"/>
	</g>
</g>
<g>
	<g>
		<polygon class="st4" points="215.2,608.5 551.1,608.5 551.1,735.6 215.2,735.6 215.2,608.5 		"/>
		<path class="st5" d="M240.9,617.6h284.5c9.1,0,16.6,7.5,16.6,16.6V710c0,9.1-7.5,16.6-16.6,16.6H240.9c-9.1,0-16.6-7.5-16.6-16.6
			v-75.8C224.3,625.1,231.7,617.6,240.9,617.6L240.9,617.6z"/>
		<path class="st6" d="M325.9,668.9c-4.4,1.7-7.2,1.8-11.6,1.8h-37.6l42.4-43.6l10.2,9.9c6.2,6,8.3,11.2,6.9,16.7l-4.4-4.5
			c-8.2-4.3-17.3,5.9-11.7,13.9L325.9,668.9L325.9,668.9z"/>
		<path class="st6" d="M405.3,674.9l-37.9-0.1l13.1-8.7l24.8,0.1V674.9L405.3,674.9z M438.9,674.8l-26.1,0.1c-6.5,0-6.5-8.8-0.1-8.8
			h14.4l-1.1-10.2c0-9.1,15.3-8.5,15.4,0L438.9,674.8L438.9,674.8z M442.7,666.1h16.8l12,8.7l-30.1,0.1L442.7,666.1L442.7,666.1z"/>
		<path class="st6" d="M331.4,653.7l40.9,40.9c2.1,2.1,2.1,5.5,0,7.6c-2.1,2.1-5.5,2.1-7.6,0l-40.9-40.9c-2.1-2.1-2.1-5.5,0-7.6
			C325.8,651.6,329.3,651.6,331.4,653.7L331.4,653.7z"/>
		<path class="st6" d="M471.6,693.6c2.5,0,4.5,2,4.5,4.5c0,2.5-2,4.5-4.5,4.5c-2.5,0-4.5-2-4.5-4.5
			C467.1,695.6,469.1,693.6,471.6,693.6L471.6,693.6z"/>
		<path class="st6" d="M370.3,686.8l-6.3-6.3c1.4-0.3,2.3-0.3,3.8-0.3c34.5,0,69.3,0,103.8,0c9.9,0,17.9,8,17.9,17.9
			c0,9.9-8,17.9-17.9,17.9c-34.5,0-69.3,0-103.8,0c-9.9,0-17.9-8-17.9-17.9c0-1.4,0.2-2.9,0.5-4.2l6.6,6.6c1.1,5,5.5,8.7,10.8,8.7
			c6.1,0,11-5,11-11C378.8,692.9,374.6,688.1,370.3,686.8L370.3,686.8z M471.6,687.1c6.1,0,11,5,11,11c0,6.1-5,11-11,11
			c-6.1,0-11-5-11-11C460.6,692.1,465.5,687.1,471.6,687.1L471.6,687.1z"/>
		<path class="st6" d="M433.5,635.5c3.3,0,5.9,2.7,5.9,5.9c0,3.3-2.7,5.9-5.9,5.9c-3.3,0-5.9-2.7-5.9-5.9
			C427.5,638.2,430.2,635.5,433.5,635.5L433.5,635.5z"/>
	</g>
</g>
<g>
	<path d="M764.3,343.7h-17l-6.8-17.6h-30.9l-6.4,17.6h-16.6l30.1-77.3h16.5L764.3,343.7z M735.5,313.1l-10.7-28.7l-10.4,28.7H735.5z
		"/>
</g>
<g>
	<path d="M694.8,634.9h30.9c6.1,0,10.7,0.3,13.7,0.8s5.7,1.6,8.1,3.2s4.4,3.8,5.9,6.5s2.4,5.7,2.4,9c0,3.6-1,6.9-2.9,10
		s-4.6,5.3-7.9,6.8c4.7,1.4,8.3,3.7,10.9,7s3.8,7.2,3.8,11.7c0,3.5-0.8,6.9-2.5,10.3s-3.9,6-6.7,8c-2.8,2-6.3,3.2-10.5,3.7
		c-2.6,0.3-8.9,0.5-18.8,0.5h-26.3V634.9z M710.4,647.8v17.9h10.2c6.1,0,9.9-0.1,11.3-0.3c2.7-0.3,4.8-1.2,6.3-2.8s2.3-3.5,2.3-6
		c0-2.4-0.7-4.3-2-5.8s-3.3-2.4-5.9-2.7c-1.5-0.2-6-0.3-13.3-0.3H710.4z M710.4,678.5v20.7h14.4c5.6,0,9.2-0.2,10.7-0.5
		c2.3-0.4,4.2-1.5,5.7-3.1c1.5-1.6,2.2-3.8,2.2-6.6c0-2.3-0.6-4.3-1.7-5.9c-1.1-1.6-2.8-2.8-4.9-3.5c-2.1-0.7-6.7-1.1-13.8-1.1
		H710.4z"/>
</g>
</svg>
