<?xml version="1.0" encoding="utf-8"?>
<!-- Generator: Adobe Illustrator 19.2.0, SVG Export Plug-In . SVG Version: 6.00 Build 0)  -->
<svg version="1.1" id="Livello_1" xmlns="http://www.w3.org/2000/svg" xmlns:xlink="http://www.w3.org/1999/xlink" x="0px" y="0px"
	 viewBox="0 0 558.2 726.7" style="enable-background:new 0 0 558.2 726.7;" xml:space="preserve">
<style type="text/css">
	.st0{fill:#FFFFFF;stroke:#1A171B;stroke-width:0.9483;stroke-miterlimit:2.6131;}
	.st1{fill:none;stroke:#1A171B;stroke-width:6.3218;stroke-miterlimit:2.6131;}
	.st2{fill:#1A171B;stroke:#1A171B;stroke-width:1.5805;stroke-miterlimit:2.6131;}
	.st3{fill:#1A171B;stroke:#1A171B;stroke-width:0.9483;stroke-miterlimit:2.6131;}
	.st4{fill:#1A171B;}
	.st5{fill:#FFFFFF;stroke:#1A171B;stroke-width:1.5326;stroke-miterlimit:2.6131;}
	.st6{fill:#E1001A;}
	.st7{fill:#FFFFFF;stroke:#FFFFFF;stroke-width:1.1397;stroke-miterlimit:2.6131;}
</style>
<polygon class="st0" points="527.1,512 80.7,512 80.7,722 527.1,722 "/>
<path class="st1" d="M124.3,527.3h359.4c16.7,0,30.4,13.7,30.4,30.4V677c0,16.7-13.7,30.4-30.4,30.4H124.3
	c-16.7,0-30.4-13.7-30.4-30.4V557.7C93.9,541,107.6,527.3,124.3,527.3L124.3,527.3z"/>
<path class="st2" d="M326.9,670.9v-29.4h80.4v29.4h-6.7c0-29.4-45.5-30.3-45.5,0H326.9L326.9,670.9z"/>
<path class="st2" d="M197.7,670.9v-29.4h81.4v29.4h-29.4c-0.2-30.5-45.7-30.5-45.5,0H197.7L197.7,670.9z"/>
<path class="st2" d="M151.7,605.9l2.2,29.1h9.1v-22.8h7.5v50.9H163v-21.7h-8.4l2.5,29.4h34.1v-65.1L151.7,605.9z M184.7,663.2h-7.5
	v-50.9h7.5V663.2z"/>
<path class="st2" d="M285.8,605.7v65.1h34.5v-65.1H285.8z M299.6,663.2l-7.5,0.2v-51.1h7.5V663.2z M306.2,663.2v-50.9h7.7l0.2,50.8
	L306.2,663.2z"/>
<path class="st2" d="M451.9,641.4H443v21.7h-8.8v-50.9l8.8,0.2V635h8.4l-2.5-29.2l-35.2-0.2v65.3h40.6L451.9,641.4z M427.9,663.2
	h-7.7V612h7.7V663.2z"/>
<path class="st2" d="M197.7,605.6V635h81.4v-29.4H197.7z M235.7,628.5h-31.5v-16.3h31.5V628.5z M272.6,628.5h-30.5v-16.3h30.5V628.5
	z"/>
<path class="st2" d="M407.1,605.6h-80.2V635h80.4L407.1,605.6z M363.7,628.5h-30.3v-16.3h30.3V628.5z M400.8,628.5h-30.5v-16.3h30.5
	V628.5z"/>
<path class="st3" d="M227.1,652.3c10.2,0,18.4,8.3,18.4,18.4c0,10.2-8.3,18.4-18.4,18.4c-10.2,0-18.4-8.3-18.4-18.4
	C208.7,660.6,217,652.3,227.1,652.3L227.1,652.3z M227.1,663.6c4,0,7.2,3.2,7.2,7.2s-3.2,7.2-7.2,7.2s-7.2-3.2-7.2-7.2
	S223.2,663.6,227.1,663.6L227.1,663.6z"/>
<path class="st3" d="M378,663.6c4,0,7.2,3.2,7.2,7.2S382,678,378,678s-7.2-3.2-7.2-7.2S374,663.6,378,663.6L378,663.6z M378,652.3
	c10.2,0,18.4,8.3,18.4,18.4c0,10.2-8.3,18.4-18.4,18.4c-10.2,0-18.4-8.3-18.4-18.4C359.5,660.6,367.8,652.3,378,652.3L378,652.3z"/>
<path class="st4" d="M225.7,572.8l7.7,1.3c-1,2.8-2.5,4.9-4.7,6.3c-2.1,1.5-4.8,2.2-8,2.2c-5.1,0-8.8-1.6-11.2-4.9
	c-1.9-2.6-2.9-5.9-2.9-9.9c0-4.7,1.3-8.5,3.8-11.2s5.7-4,9.6-4c4.3,0,7.7,1.4,10.3,4.2c2.5,2.8,3.7,7.1,3.6,12.9h-19.3
	c0.1,2.2,0.7,4,1.9,5.2c1.2,1.3,2.7,1.9,4.4,1.9c1.2,0,2.2-0.3,3-1C224.7,575.3,225.3,574.2,225.7,572.8L225.7,572.8z M226.2,565.1
	c-0.1-2.2-0.6-3.9-1.7-5s-2.4-1.7-4-1.7c-1.7,0-3.1,0.6-4.2,1.8s-1.6,2.8-1.6,4.9H226.2L226.2,565.1z"/>
<path class="st4" d="M265.5,561.7l-7.6,1.3c-0.3-1.5-0.8-2.6-1.7-3.4c-0.9-0.8-2.1-1.1-3.5-1.1c-1.9,0-3.5,0.7-4.6,2
	s-1.7,3.5-1.7,6.5c0,3.4,0.6,5.8,1.7,7.2c1.2,1.4,2.7,2.1,4.7,2.1c1.5,0,2.7-0.4,3.6-1.2s1.6-2.2,2-4.2l7.6,1.3
	c-0.8,3.4-2.3,6-4.5,7.7s-5.2,2.6-9,2.6c-4.3,0-7.7-1.3-10.2-4c-2.5-2.6-3.8-6.3-3.8-11s1.3-8.4,3.8-11s6-4,10.3-4
	c3.5,0,6.4,0.8,8.5,2.3C263,556.4,264.6,558.7,265.5,561.7L265.5,561.7z"/>
<path class="st4" d="M296.7,561.7l-7.6,1.3c-0.3-1.5-0.8-2.6-1.7-3.4c-0.9-0.8-2.1-1.1-3.5-1.1c-1.9,0-3.5,0.7-4.6,2
	s-1.7,3.5-1.7,6.5c0,3.4,0.6,5.8,1.7,7.2c1.2,1.4,2.7,2.1,4.7,2.1c1.5,0,2.7-0.4,3.6-1.2s1.6-2.2,2-4.2l7.6,1.3
	c-0.8,3.4-2.3,6-4.5,7.7s-5.2,2.6-9,2.6c-4.3,0-7.7-1.3-10.2-4c-2.5-2.6-3.8-6.3-3.8-11s1.3-8.4,3.8-11s6-4,10.3-4
	c3.5,0,6.4,0.8,8.5,2.3C294.3,556.4,295.8,558.7,296.7,561.7L296.7,561.7z"/>
<path class="st4" d="M319.4,572.8l7.7,1.3c-1,2.8-2.5,4.9-4.7,6.3c-2.1,1.5-4.8,2.2-8,2.2c-5.1,0-8.8-1.6-11.2-4.9
	c-1.9-2.6-2.9-5.9-2.9-9.9c0-4.7,1.3-8.5,3.8-11.2s5.7-4,9.6-4c4.3,0,7.7,1.4,10.3,4.2c2.5,2.8,3.7,7.1,3.6,12.9h-19.3
	c0.1,2.2,0.7,4,1.9,5.2c1.2,1.3,2.7,1.9,4.4,1.9c1.2,0,2.2-0.3,3-1C318.3,575.3,318.9,574.2,319.4,572.8L319.4,572.8z M319.8,565.1
	c-0.1-2.2-0.6-3.9-1.7-5s-2.4-1.7-4-1.7c-1.7,0-3.1,0.6-4.2,1.8s-1.6,2.8-1.6,4.9H319.8L319.8,565.1z"/>
<path class="st4" d="M347,553.3v6h-5.3v11.5c0,2.3,0,3.7,0.1,4.1c0.1,0.4,0.3,0.7,0.7,1c0.4,0.2,0.8,0.4,1.3,0.4
	c0.7,0,1.8-0.2,3.1-0.7l0.7,5.9c-1.8,0.8-3.8,1.1-6.1,1.1c-1.4,0-2.6-0.2-3.8-0.7c-1.1-0.5-1.9-1.1-2.4-1.8s-0.9-1.7-1.1-3
	c-0.2-0.9-0.2-2.7-0.2-5.3v-12.5h-3.5v-6h3.5v-5.7l7.7-4.4v10.1L347,553.3L347,553.3z"/>
<path class="st4" d="M365.7,553.3v6h-5.3v11.5c0,2.3,0,3.7,0.2,4.1c0.1,0.4,0.3,0.7,0.7,1c0.4,0.2,0.8,0.4,1.3,0.4
	c0.7,0,1.7-0.2,3.1-0.7l0.7,5.9c-1.8,0.8-3.8,1.1-6.1,1.1c-1.4,0-2.6-0.2-3.8-0.7c-1.1-0.5-1.9-1.1-2.5-1.8c-0.5-0.7-0.9-1.7-1.1-3
	c-0.2-0.9-0.2-2.7-0.2-5.3v-12.5h-3.5v-6h3.5v-5.7l7.7-4.4v10.1L365.7,553.3L365.7,553.3z"/>
<path class="st4" d="M369.3,567.2c0-2.5,0.6-4.9,1.9-7.3c1.3-2.3,3-4.2,5.4-5.4c2.3-1.2,4.9-1.9,7.7-1.9c4.4,0,8,1.4,10.8,4.2
	s4.2,6.4,4.2,10.7s-1.4,7.9-4.3,10.8c-2.8,2.9-6.4,4.3-10.7,4.3c-2.7,0-5.2-0.6-7.6-1.8c-2.4-1.2-4.3-2.9-5.5-5.2
	C369.9,573.3,369.3,570.5,369.3,567.2L369.3,567.2z M377.2,567.6c0,2.8,0.7,5,2.1,6.5c1.4,1.5,3.1,2.3,5.1,2.3s3.7-0.8,5.1-2.3
	c1.4-1.5,2-3.7,2-6.6c0-2.8-0.7-5-2-6.5c-1.4-1.5-3-2.3-5.1-2.3c-2,0-3.7,0.8-5.1,2.3C377.9,562.6,377.2,564.7,377.2,567.6
	L377.2,567.6z"/>
<g>
	<g>
		<path class="st5" d="M303.9,2c138.4,0,251.3,112.9,251.3,251.3S442.3,504.6,303.9,504.6S52.6,391.7,52.6,253.3S165.5,2,303.9,2
			L303.9,2z"/>
		<path class="st6" d="M304.6,15.6c130.6,0,237.2,106.5,237.2,237.2S435.3,490,304.6,490S67.4,383.4,67.4,252.8S174,15.6,304.6,15.6
			L304.6,15.6z"/>
		<path class="st6" d="M304.6,76.3c97.2,0,176.5,79.3,176.5,176.5s-79.3,176.5-176.5,176.5S128.1,350,128.1,252.8
			S207.4,76.3,304.6,76.3L304.6,76.3z"/>
		<path class="st7" d="M92.3,193.3h421.5c1.3,0,2.3,1.1,2.3,2.5v107c0,1.4-1,2.5-2.3,2.5H92.3c-1.3,0-2.3-1.1-2.3-2.5v-107
			C90,194.4,91,193.3,92.3,193.3L92.3,193.3z"/>
	</g>
</g>
</svg>
