<?xml version="1.0" encoding="utf-8"?>
<!-- Generator: Adobe Illustrator 19.2.0, SVG Export Plug-In . SVG Version: 6.00 Build 0)  -->
<svg version="1.1" id="Livello_1" xmlns="http://www.w3.org/2000/svg" xmlns:xlink="http://www.w3.org/1999/xlink" x="0px" y="0px"
	 viewBox="0 0 492 723" style="enable-background:new 0 0 492 723;" xml:space="preserve">
<style type="text/css">
	.st0{fill:#FFFFFF;stroke:#1A171B;stroke-width:1.2483;stroke-miterlimit:2.6131;}
	.st1{fill:#E1001A;}
	.st2{fill:#FFFFFF;}
	.st3{fill:#E1001A;stroke:#E1001A;stroke-width:0.9278;stroke-miterlimit:2.6131;}
	.st4{fill:#1A171B;stroke:#1A171B;stroke-width:0.9278;stroke-miterlimit:2.6131;}
	.st5{fill:#FFFFFF;stroke:#1A171B;stroke-width:0.7331;stroke-miterlimit:2.6131;}
	.st6{fill:none;stroke:#1A171B;stroke-width:2.4438;stroke-miterlimit:2.6131;}
	.st7{fill:#1A171B;stroke:#1A171B;stroke-width:0.7331;stroke-miterlimit:2.6131;}
</style>
<g>
	<g>
		<path class="st0" d="M246,2.3c112.7,0,204.7,92,204.7,204.7s-92,204.7-204.7,204.7S41.3,319.7,41.3,207S133.3,2.3,246,2.3L246,2.3
			z"/>
		<path class="st1" d="M246.6,13.4c106.4,0,193.2,86.8,193.2,193.2S353,399.8,246.6,399.8S53.4,313,53.4,206.6
			C53.4,100.2,140.2,13.4,246.6,13.4L246.6,13.4z"/>
		<path class="st2" d="M246.6,62.8c79.2,0,143.8,64.6,143.8,143.8s-64.6,143.8-143.8,143.8s-143.8-64.6-143.8-143.8
			S167.4,62.8,246.6,62.8L246.6,62.8z"/>
		<path class="st3" d="M122.2,245.4v-11.7h17.3v12.1c0,2.5-2.2,2.8-4.3,2.8h-9C123.1,248.5,122.2,247.9,122.2,245.4L122.2,245.4z
			 M207.8,245.4v-11.7h17.6l-0.3,12.1c0,2.5-2.2,2.8-4.3,2.8h-9.3C208.8,248.5,207.8,247.9,207.8,245.4L207.8,245.4z M118.1,230.6
			c-3.7,0-3.7-6.2,0-6.2h112.3c3.4,0,3.4,6.2-0.3,6.2H118.1L118.1,230.6z M120.9,221c-0.9-1.5-1.5-2.8-1.5-4h21
			c0.9-2.5,0.9-3.4,0.9-5.6h-22v-2.8h22c0-2.2-0.3-4.3-1.5-5.6h-20.4c0-1.5,0-2.5,1.5-4c1.2-0.9,3.1-2.2,4.3-2.2
			c32.5-6.8,64-6.8,96.8-0.9c1.5,0.9,3.4,0.9,5.3,2.2c1.5,1.5,2.2,3.4,2.2,4.9h-20.1c-1.9,1.2-2.8,3.4-2.8,5.6h23.2l-0.3,2.8h-22.9
			c0,2.2,0,4.3,2.8,5.6h20.1c0,1.2-0.6,2.5-2.2,4H120.9L120.9,221z M124.6,194.4l8-26.6c2.2-2.8,4-4.3,7.1-4.9
			c22.6-3.4,45.5-3.4,68.7,0c3.1,0.6,5.3,2.8,7.1,5.6l6.8,24.1l-5.9-1.2l-5.6-19.2c-0.9-2.5-2.2-2.8-4.3-4.3
			c-21.3-2.8-43-2.8-64.3,0c-2.5,0.6-3.7,0.9-4.6,3.4l-5.9,20.7L124.6,194.4L124.6,194.4z M159,203.3h30.3c1.2,0,2.2,0.6,2.2,1.5
			v9.6c0,1.5-0.9,2.8-2.2,2.8H159c-0.9,0-2.5-1.2-2.5-2.8v-9.6C156.5,204,158,203.3,159,203.3L159,203.3z"/>
		<path class="st4" d="M265.7,245.4v-11.7H283v12.1c0,2.5-1.9,2.8-4.3,2.8h-9C266.6,248.5,265.7,247.9,265.7,245.4L265.7,245.4z
			 M351.3,245.4v-11.7h17.6l-0.3,12.1c0,2.5-1.9,2.8-4.3,2.8H355C352.6,248.5,351.3,247.9,351.3,245.4L351.3,245.4z M261.6,230.6
			c-3.7,0-3.7-6.2,0-6.2h112.3c3.4,0,3.4,6.2-0.3,6.2H261.6L261.6,230.6z M264.7,221c-0.9-1.5-1.5-2.8-1.5-4h20.7
			c0.9-2.5,0.9-3.4,0.9-5.6h-21.6v-2.8h21.6c0-2.2-0.3-4.3-1.5-5.6h-20.1c0-1.5,0-2.5,1.5-4c0.9-0.9,3.1-2.2,4.3-2.2
			c32.2-6.8,63.7-6.8,96.5-0.9c1.9,0.9,3.4,0.9,5.6,2.2c1.2,1.5,1.9,3.4,1.9,4.9h-19.8c-2.2,1.2-3.1,3.4-3.1,5.6h23.2l-0.3,2.8
			h-22.9c0,2.2,0,4.3,3.1,5.6H373c0,1.2-0.6,2.5-1.9,4H264.7L264.7,221z M268.4,194.4l7.7-26.6c2.2-2.8,4-4.3,7.1-4.9
			c22.6-3.4,45.5-3.4,68.7,0c3.1,0.6,5.6,2.8,7.1,5.6l7.1,24.1l-6.2-1.2l-5.6-19.2c-0.6-2.5-1.9-2.8-4.3-4.3c-21.3-2.8-43-2.8-64,0
			c-2.8,0.6-3.7,0.9-4.6,3.4l-6.2,20.7L268.4,194.4L268.4,194.4z M302.5,203.3h30.3c1.2,0,2.5,0.6,2.5,1.5v9.6
			c0,1.5-1.2,2.8-2.5,2.8h-30.3c-0.9,0-2.2-1.2-2.2-2.8v-9.6C300.3,204,301.5,203.3,302.5,203.3L302.5,203.3z"/>
	</g>
</g>
<g>
	<polygon class="st5" points="311.1,422.9 311.1,721 180.9,721 180.9,422.9 	"/>
	<path class="st6" d="M301.6,447.8v247.8c0,9.2-7.6,16.8-16.8,16.8H207c-9.2,0-16.8-7.6-16.8-16.8V447.8c0-9.2,7.6-16.8,16.8-16.8
		h77.9C294.1,431,301.6,438.6,301.6,447.8L301.6,447.8z"/>
	<polygon class="st7" points="203.8,507.5 245.5,467.9 287.2,508.1 287.2,525 253.5,493.6 253.5,549.2 237.7,549.2 237.7,493.6 
		203.8,526.5 	"/>
	<polygon class="st7" points="203.8,636.4 245.5,676 287.2,635.8 287.2,618.9 253.5,650.3 253.5,594.7 237.7,594.7 237.7,650.3 
		203.8,617.5 	"/>
</g>
</svg>
