<?xml version="1.0" encoding="utf-8"?>
<!-- Generator: Adobe Illustrator 19.2.0, SVG Export Plug-In . SVG Version: 6.00 Build 0)  -->
<svg version="1.1" id="Livello_1" xmlns="http://www.w3.org/2000/svg" xmlns:xlink="http://www.w3.org/1999/xlink" x="0px" y="0px"
	 viewBox="0 0 960 960" style="enable-background:new 0 0 960 960;" xml:space="preserve">
<style type="text/css">
	.st0{fill-rule:evenodd;clip-rule:evenodd;fill:#FFFFFF;stroke:#1A171B;stroke-width:1.0244;stroke-miterlimit:2.6131;}
	.st1{fill-rule:evenodd;clip-rule:evenodd;fill:#E1001A;}
	.st2{fill-rule:evenodd;clip-rule:evenodd;fill:#FFFFFF;}
	.st3{fill-rule:evenodd;clip-rule:evenodd;fill:#E1001A;stroke:#E1001A;stroke-width:0.7613;stroke-miterlimit:2.6131;}
	.st4{fill-rule:evenodd;clip-rule:evenodd;fill:#1A171B;stroke:#1A171B;stroke-width:0.7613;stroke-miterlimit:2.6131;}
	.st5{fill:#FFFFFF;stroke:#1A171B;stroke-width:0.6473;stroke-miterlimit:2.6131;}
	.st6{fill:none;stroke:#1A171B;stroke-width:2.1576;stroke-miterlimit:2.6131;}
	.st7{fill-rule:evenodd;clip-rule:evenodd;fill:#1A171B;stroke:#1A171B;stroke-width:0.6473;stroke-miterlimit:2.6131;}
</style>
<g>
	<g>
		<g>
			<path class="st0" d="M383.1,118.1c92.5,0,168,75.5,168,168c0,92.5-75.5,168-168,168s-168-75.5-168-168
				C215.2,193.5,290.6,118.1,383.1,118.1L383.1,118.1z"/>
			<path class="st1" d="M383.6,127.2c87.3,0,158.5,71.2,158.5,158.5c0,87.3-71.2,158.5-158.5,158.5c-87.3,0-158.5-71.2-158.5-158.5
				C225.1,198.4,296.3,127.2,383.6,127.2L383.6,127.2z"/>
			<path class="st2" d="M383.6,167.7c65,0,118,53,118,118s-53,118-118,118c-65,0-118-53-118-118S318.6,167.7,383.6,167.7
				L383.6,167.7z"/>
			<path class="st3" d="M281.5,317.6v-9.6h14.2v9.9c0,2-1.8,2.3-3.6,2.3h-7.4C282.3,320.1,281.5,319.6,281.5,317.6L281.5,317.6z
				 M351.8,317.6v-9.6h14.5l-0.3,9.9c0,2-1.8,2.3-3.6,2.3h-7.6C352.6,320.1,351.8,319.6,351.8,317.6L351.8,317.6z M278.2,305.4
				c-3,0-3-5.1,0-5.1h92.1c2.8,0,2.8,5.1-0.3,5.1H278.2L278.2,305.4z M280.5,297.5c-0.8-1.3-1.3-2.3-1.3-3.3h17.3
				c0.8-2,0.8-2.8,0.8-4.6h-18v-2.3h18c0-1.8-0.3-3.6-1.3-4.6h-16.7c0-1.3,0-2,1.3-3.3c1-0.8,2.5-1.8,3.6-1.8
				c26.6-5.6,52.5-5.6,79.4-0.8c1.3,0.8,2.8,0.8,4.3,1.8c1.3,1.3,1.8,2.8,1.8,4.1h-16.5c-1.5,1-2.3,2.8-2.3,4.6h19l-0.3,2.3h-18.8
				c0,1.8,0,3.6,2.3,4.6h16.5c0,1-0.5,2-1.8,3.3H280.5L280.5,297.5z M283.5,275.7l6.6-21.8c1.8-2.3,3.3-3.6,5.8-4.1
				c18.5-2.8,37.3-2.8,56.3,0c2.5,0.5,4.3,2.3,5.8,4.6l5.6,19.8l-4.8-1l-4.6-15.7c-0.8-2-1.8-2.3-3.6-3.6c-17.5-2.3-35.3-2.3-52.8,0
				c-2,0.5-3,0.8-3.8,2.8l-4.8,17L283.5,275.7L283.5,275.7z M311.7,283.1h24.9c1,0,1.8,0.5,1.8,1.3v7.9c0,1.3-0.8,2.3-1.8,2.3h-24.9
				c-0.8,0-2-1-2-2.3v-7.9C309.7,283.6,311,283.1,311.7,283.1L311.7,283.1z"/>
			<path class="st4" d="M399.3,317.6v-9.6h14.2v9.9c0,2-1.5,2.3-3.6,2.3h-7.4C400,320.1,399.3,319.6,399.3,317.6L399.3,317.6z
				 M469.6,317.6v-9.6H484l-0.3,9.9c0,2-1.5,2.3-3.6,2.3h-7.6C470.6,320.1,469.6,319.6,469.6,317.6L469.6,317.6z M396,305.4
				c-3,0-3-5.1,0-5.1h92.1c2.8,0,2.8,5.1-0.3,5.1H396L396,305.4z M398.5,297.5c-0.8-1.3-1.3-2.3-1.3-3.3h17c0.8-2,0.8-2.8,0.8-4.6
				h-17.8v-2.3H415c0-1.8-0.3-3.6-1.3-4.6h-16.5c0-1.3,0-2,1.3-3.3c0.8-0.8,2.5-1.8,3.6-1.8c26.4-5.6,52.3-5.6,79.2-0.8
				c1.5,0.8,2.8,0.8,4.6,1.8c1,1.3,1.5,2.8,1.5,4.1h-16.2c-1.8,1-2.5,2.8-2.5,4.6h19l-0.3,2.3h-18.8c0,1.8,0,3.6,2.5,4.6h16.2
				c0,1-0.5,2-1.5,3.3H398.5L398.5,297.5z M401.6,275.7l6.3-21.8c1.8-2.3,3.3-3.6,5.8-4.1c18.5-2.8,37.3-2.8,56.3,0
				c2.5,0.5,4.6,2.3,5.8,4.6l5.8,19.8l-5.1-1l-4.6-15.7c-0.5-2-1.5-2.3-3.6-3.6c-17.5-2.3-35.3-2.3-52.5,0c-2.3,0.5-3,0.8-3.8,2.8
				l-5.1,17L401.6,275.7L401.6,275.7z M429.5,283.1h24.9c1,0,2,0.5,2,1.3v7.9c0,1.3-1,2.3-2,2.3h-24.9c-0.8,0-1.8-1-1.8-2.3v-7.9
				C427.7,283.6,428.7,283.1,429.5,283.1L429.5,283.1z"/>
		</g>
	</g>
	<g>
		<path d="M764.3,343.7h-17l-6.8-17.6h-30.9l-6.4,17.6h-16.6l30.1-77.3h16.5L764.3,343.7z M735.5,313.1l-10.7-28.7l-10.4,28.7H735.5
			z"/>
	</g>
	<g>
		<path d="M694.8,634.9h30.9c6.1,0,10.7,0.3,13.7,0.8s5.7,1.6,8.1,3.2s4.4,3.8,5.9,6.5s2.4,5.7,2.4,9c0,3.6-1,6.9-2.9,10
			s-4.6,5.3-7.9,6.8c4.7,1.4,8.3,3.7,10.9,7s3.8,7.2,3.8,11.7c0,3.5-0.8,6.9-2.5,10.3s-3.9,6-6.7,8c-2.8,2-6.3,3.2-10.5,3.7
			c-2.6,0.3-8.9,0.5-18.8,0.5h-26.3V634.9z M710.4,647.8v17.9h10.2c6.1,0,9.9-0.1,11.3-0.3c2.7-0.3,4.8-1.2,6.3-2.8s2.3-3.5,2.3-6
			c0-2.4-0.7-4.3-2-5.8s-3.3-2.4-5.9-2.7c-1.5-0.2-6-0.3-13.3-0.3H710.4z M710.4,678.5v20.7h14.4c5.6,0,9.2-0.2,10.7-0.5
			c2.3-0.4,4.2-1.5,5.7-3.1c1.5-1.6,2.2-3.8,2.2-6.6c0-2.3-0.6-4.3-1.7-5.9c-1.1-1.6-2.8-2.8-4.9-3.5c-2.1-0.7-6.7-1.1-13.8-1.1
			H710.4z"/>
	</g>
</g>
<g>
	<polygon class="st5" points="440.6,540.4 440.6,803.6 325.6,803.6 325.6,540.4 440.6,540.4 	"/>
	<path class="st6" d="M432.2,562.4v218.8c0,8.2-6.7,14.8-14.8,14.8h-68.8c-8.1,0-14.8-6.7-14.8-14.8V562.4c0-8.1,6.7-14.8,14.8-14.8
		h68.8C425.6,547.6,432.2,554.2,432.2,562.4L432.2,562.4z"/>
	<polygon class="st7" points="345.9,615.1 382.7,580.1 419.5,615.7 419.5,630.6 389.8,602.8 389.8,651.9 375.8,651.9 375.8,602.8 
		345.9,631.9 345.9,615.1 	"/>
	<polygon class="st7" points="345.9,728.9 382.7,763.9 419.5,728.4 419.5,713.5 389.8,741.2 389.8,692.1 375.8,692.1 375.8,741.2 
		345.9,712.2 345.9,728.9 	"/>
</g>
</svg>
