<?xml version="1.0" encoding="utf-8"?>
<!-- Generator: Adobe Illustrator 19.2.0, SVG Export Plug-In . SVG Version: 6.00 Build 0)  -->
<svg version="1.1" id="Livello_1" xmlns="http://www.w3.org/2000/svg" xmlns:xlink="http://www.w3.org/1999/xlink" x="0px" y="0px"
	 viewBox="0 0 960 960" style="enable-background:new 0 0 960 960;" xml:space="preserve">
<style type="text/css">
	.st0{fill:#FFFFFF;stroke:#1A171B;stroke-width:0.7331;stroke-miterlimit:2.6131;}
	.st1{fill:none;stroke:#1A171B;stroke-width:2.4438;stroke-miterlimit:2.6131;}
	.st2{fill-rule:evenodd;clip-rule:evenodd;fill:#1A171B;stroke:#1A171B;stroke-width:0.7331;stroke-miterlimit:2.6131;}
	.st3{fill-rule:evenodd;clip-rule:evenodd;fill:#FFFFFF;stroke:#1A171B;stroke-width:1.2483;stroke-miterlimit:2.6131;}
	.st4{fill-rule:evenodd;clip-rule:evenodd;fill:#E1001A;}
	.st5{fill-rule:evenodd;clip-rule:evenodd;fill:#FFFFFF;}
	.st6{fill-rule:evenodd;clip-rule:evenodd;fill:#1A171B;stroke:#1A171B;stroke-width:0.9278;stroke-miterlimit:2.6131;}
</style>
<g>
	<polygon class="st0" points="545.1,541.9 545.1,840 414.9,840 414.9,541.9 545.1,541.9 	"/>
	<path class="st1" d="M535.6,566.8v247.8c0,9.2-7.6,16.8-16.8,16.8H441c-9.2,0-16.8-7.6-16.8-16.8V566.8c0-9.2,7.6-16.8,16.8-16.8
		h77.9C528.1,550,535.6,557.6,535.6,566.8L535.6,566.8z"/>
	<polygon class="st2" points="437.8,626.5 479.5,586.9 521.2,627.1 521.2,644 487.5,612.6 487.5,668.2 471.7,668.2 471.7,612.6 
		437.8,645.5 437.8,626.5 	"/>
	<polygon class="st2" points="437.8,755.4 479.5,795 521.2,754.8 521.2,737.9 487.5,769.3 487.5,713.7 471.7,713.7 471.7,769.3 
		437.8,736.5 437.8,755.4 	"/>
</g>
<g>
	<g>
		<path class="st3" d="M480,121.3c112.7,0,204.7,92,204.7,204.7c0,112.7-92,204.7-204.7,204.7s-204.7-92-204.7-204.7
			C275.3,213.3,367.3,121.3,480,121.3L480,121.3z"/>
		<path class="st4" d="M480.6,132.4c106.4,0,193.2,86.8,193.2,193.2c0,106.4-86.8,193.2-193.2,193.2
			c-106.4,0-193.2-86.8-193.2-193.2C287.4,219.2,374.2,132.4,480.6,132.4L480.6,132.4z"/>
		<path class="st5" d="M480.6,181.8c79.2,0,143.8,64.6,143.8,143.8s-64.6,143.8-143.8,143.8c-79.2,0-143.8-64.6-143.8-143.8
			S401.4,181.8,480.6,181.8L480.6,181.8z"/>
		<path class="st6" d="M407.4,323.2c-7.2-2.3-12.7-7-16.3-13.5c-3.8-6.8-5.5-15.5-5.5-26.1c0-15.2,3.5-27.1,10.4-35.3
			c7-8.3,17.1-12.5,30.1-12.5c13.8,0,24.5,4.2,31.7,12.1c7.2,8.2,10.8,20.4,10.8,36.4c0,10.4-1.8,18.7-5.1,24.9
			c-3.4,6.1-8.7,11-16,13.9c9,1.8,15.8,6.4,20.3,13.2c4.4,6.9,6.7,16.4,6.7,28.4c0,17-4,29.9-11.9,38.5
			c-7.8,8.6-19.7,12.9-35.4,12.9c-14.2,0-25.2-4.3-32.9-12.9c-7.8-8.7-11.7-21.1-11.7-36.7c0-12,2.1-22,6.4-29.3
			C393.2,329.7,399.5,325,407.4,323.2L407.4,323.2z M415,281.4c0,7.2,1.5,13.4,3.4,17.5c2,4.1,5,7.5,8.5,7.5c3.9,0,7.2-3.3,8.9-7.4
			c1.5-3.8,2.9-10.6,2.9-18.5c0-6.8-1.5-12.8-3.5-16.5c-2-3.7-5.3-7-9.2-7c-3.3,0-6.4,3.5-8,7.3C416.4,268.4,415,274.7,415,281.4
			L415,281.4z M415.4,366.2c-0.4,7.8,1,14.6,2.9,19.2c2,4.7,5.7,9.1,9.7,9.1c4.3,0,8-3.6,9.9-7.7c2-4.2,2.8-10.5,2.8-18
			c0-8.1-0.6-15-2.8-19.7c-2.1-4.7-5.8-9.2-10.1-9.2c-4,0-7.7,4-9.5,8.2c-2,4.3-3.3,10.6-2.9,18.3V366.2L415.4,366.2z M530.5,381.2
			c5.8,0,9.9-4,12.3-12c2.4-8.1,3.8-21.5,3.8-40.4c0-20.8-1.4-35.9-3.8-44.7c-2.5-8.8-6.7-13.4-12.4-13.4c-5.7,0-9.9,4.3-12.6,13.2
			c-2.6,8.7-3.9,22.9-3.9,42.4c0,20.4,1.3,34.8,3.8,42.8c2.5,7.9,6.8,12.1,12.7,12.1H530.5L530.5,381.2z M530.3,416.4
			c-16,0-27.9-7.9-35.7-22.7c-7.8-15-11.8-37.8-11.8-68.2c0-29.4,4-52,11.9-66.8c7.8-15.1,19.7-22.7,35.3-22.7
			c16,0,27.9,7.4,35.7,22.4c8,15,12.1,37.4,12.1,67.2c0,30.4-4,53.3-11.9,68.2c-7.8,14.8-19.8,22.5-35.7,22.5L530.3,416.4
			L530.3,416.4z"/>
	</g>
</g>
</svg>
