<?xml version="1.0" encoding="utf-8"?>
<!-- Generator: Adobe Illustrator 19.2.0, SVG Export Plug-In . SVG Version: 6.00 Build 0)  -->
<svg version="1.1" id="Livello_1" xmlns="http://www.w3.org/2000/svg" xmlns:xlink="http://www.w3.org/1999/xlink" x="0px" y="0px"
	 viewBox="0 0 960 960" style="enable-background:new 0 0 960 960;" xml:space="preserve">
<style type="text/css">
	.st0{fill-rule:evenodd;clip-rule:evenodd;fill:#FFFFFF;stroke:#1A171B;stroke-width:1.0244;stroke-miterlimit:2.6131;}
	.st1{fill-rule:evenodd;clip-rule:evenodd;fill:#E1001A;}
	.st2{fill-rule:evenodd;clip-rule:evenodd;fill:#FFFFFF;}
	.st3{fill-rule:evenodd;clip-rule:evenodd;fill:#005DA2;}
	.st4{fill:#FFFFFF;stroke:#1A171B;stroke-width:0.7138;stroke-miterlimit:2.6131;}
	.st5{fill:none;stroke:#1A171B;stroke-width:4.7586;stroke-miterlimit:2.6131;}
	.st6{fill-rule:evenodd;clip-rule:evenodd;fill:#1A171B;stroke:#1A171B;stroke-width:1.1897;stroke-miterlimit:2.6131;}
	.st7{fill-rule:evenodd;clip-rule:evenodd;fill:#1A171B;stroke:#1A171B;stroke-width:0.7138;stroke-miterlimit:2.6131;}
	.st8{fill-rule:evenodd;clip-rule:evenodd;fill:#1A171B;}
</style>
<g>
	<g>
		<path d="M764.3,343.7h-17l-6.8-17.6h-30.9l-6.4,17.6h-16.6l30.1-77.3h16.5L764.3,343.7z M735.5,313.1l-10.7-28.7l-10.4,28.7H735.5
			z"/>
	</g>
	<g>
		<path d="M694.8,634.9h30.9c6.1,0,10.7,0.3,13.7,0.8s5.7,1.6,8.1,3.2s4.4,3.8,5.9,6.5s2.4,5.7,2.4,9c0,3.6-1,6.9-2.9,10
			s-4.6,5.3-7.9,6.8c4.7,1.4,8.3,3.7,10.9,7s3.8,7.2,3.8,11.7c0,3.5-0.8,6.9-2.5,10.3s-3.9,6-6.7,8c-2.8,2-6.3,3.2-10.5,3.7
			c-2.6,0.3-8.9,0.5-18.8,0.5h-26.3V634.9z M710.4,647.8v17.9h10.2c6.1,0,9.9-0.1,11.3-0.3c2.7-0.3,4.8-1.2,6.3-2.8s2.3-3.5,2.3-6
			c0-2.4-0.7-4.3-2-5.8s-3.3-2.4-5.9-2.7c-1.5-0.2-6-0.3-13.3-0.3H710.4z M710.4,678.5v20.7h14.4c5.6,0,9.2-0.2,10.7-0.5
			c2.3-0.4,4.2-1.5,5.7-3.1c1.5-1.6,2.2-3.8,2.2-6.6c0-2.3-0.6-4.3-1.7-5.9c-1.1-1.6-2.8-2.8-4.9-3.5c-2.1-0.7-6.7-1.1-13.8-1.1
			H710.4z"/>
	</g>
</g>
<g>
	<g>
		<path class="st0" d="M383.1,118.1c92.5,0,168,75.5,168,168c0,92.5-75.5,168-168,168s-168-75.5-168-168
			C215.2,193.5,290.6,118.1,383.1,118.1L383.1,118.1z"/>
		<path class="st1" d="M383.6,127.2c87.3,0,158.5,71.2,158.5,158.5c0,87.3-71.2,158.5-158.5,158.5c-87.3,0-158.5-71.2-158.5-158.5
			C225.1,198.4,296.3,127.2,383.6,127.2L383.6,127.2z"/>
		<path class="st2" d="M383.6,167.7c65,0,118,53,118,118c0,65-53,118-118,118c-65,0-118-53-118-118
			C265.6,220.7,318.6,167.7,383.6,167.7L383.6,167.7z"/>
		<path class="st3" d="M383.7,175.7c59.8,0,108.6,48.8,108.6,108.6c0,59.8-48.8,108.6-108.6,108.6c-59.8,0-108.6-48.8-108.6-108.6
			C275.1,224.5,323.9,175.7,383.7,175.7L383.7,175.7z"/>
		<polygon class="st2" points="322,187.7 480.3,346 444.1,382.2 285.8,224 322,187.7 		"/>
		<polygon class="st1" points="298,177.6 490.3,370 468.3,391.9 276,199.6 298,177.6 		"/>
	</g>
</g>
<polygon class="st4" points="551.1,593 215.2,593 215.2,751.1 551.1,751.1 551.1,593 "/>
<path class="st5" d="M247.9,604.5h270.5c12.6,0,22.9,10.3,22.9,22.9v89.8c0,12.6-10.3,22.9-22.9,22.9H247.9
	c-12.6,0-22.9-10.3-22.9-22.9v-89.8C225.1,614.8,235.4,604.5,247.9,604.5L247.9,604.5z"/>
<path class="st6" d="M400.4,712.6v-22.1h60.5v22.1h-5c0-22.1-34.3-22.8-34.3,0H400.4L400.4,712.6z"/>
<path class="st6" d="M303.2,712.6v-22.1h61.3v22.1h-22.1c-0.1-22.9-34.4-22.9-34.3,0H303.2L303.2,712.6z"/>
<path class="st6" d="M268.5,663.7l1.7,21.9h6.9v-17.1h5.7v38.3h-5.7v-16.3h-6.3l1.8,22.1h25.7v-49L268.5,663.7z M293.4,706.8h-5.7
	v-38.3h5.7V706.8z"/>
<path class="st6" d="M369.5,663.6v49h26v-49H369.5z M379.9,706.8l-5.7,0.1v-38.5h5.7V706.8z M384.9,706.8v-38.3h5.8l0.1,38.2
	L384.9,706.8z"/>
<path class="st6" d="M494.5,690.4h-6.7v16.3h-6.6v-38.3l6.6,0.1v17h6.3l-1.8-22l-26.5-0.1v49.1h30.6L494.5,690.4z M476.5,706.8h-5.8
	v-38.5h5.8V706.8z"/>
<path class="st6" d="M303.2,663.4v22.1h61.3v-22.1H303.2z M331.8,680.7h-23.7v-12.3h23.7V680.7z M359.6,680.7h-22.9v-12.3h22.9
	V680.7z"/>
<path class="st6" d="M460.8,663.4h-60.4v22.1h60.5L460.8,663.4z M428.1,680.7h-22.8v-12.3h22.8V680.7z M456.1,680.7h-22.9v-12.3
	h22.9V680.7z"/>
<path class="st7" d="M325.4,698.6c7.7,0,13.9,6.2,13.9,13.9c0,7.7-6.2,13.9-13.9,13.9c-7.7,0-13.9-6.2-13.9-13.9
	C311.5,704.9,317.7,698.6,325.4,698.6L325.4,698.6z M325.4,707.1c3,0,5.4,2.4,5.4,5.4c0,3-2.4,5.4-5.4,5.4c-3,0-5.4-2.4-5.4-5.4
	C319.9,709.5,322.4,707.1,325.4,707.1L325.4,707.1z"/>
<path class="st7" d="M438.9,707.1c3,0,5.4,2.4,5.4,5.4c0,3-2.4,5.4-5.4,5.4c-3,0-5.4-2.4-5.4-5.4
	C433.5,709.5,435.9,707.1,438.9,707.1L438.9,707.1z M438.9,698.6c7.7,0,13.9,6.2,13.9,13.9c0,7.7-6.2,13.9-13.9,13.9
	c-7.7,0-13.9-6.2-13.9-13.9C425,704.9,431.3,698.6,438.9,698.6L438.9,698.6z"/>
<path class="st8" d="M324.3,638.8l5.8,0.9c-0.7,2.1-1.9,3.7-3.5,4.8c-1.6,1.1-3.6,1.6-6,1.6c-3.8,0-6.6-1.2-8.5-3.7
	c-1.4-2-2.2-4.4-2.2-7.4c0-3.6,1-6.4,2.9-8.4c1.9-2,4.3-3,7.2-3c3.3,0,5.8,1.1,7.7,3.2c1.9,2.1,2.8,5.4,2.7,9.7h-14.5
	c0,1.7,0.5,3,1.4,3.9c0.9,0.9,2,1.4,3.3,1.4c0.9,0,1.7-0.2,2.3-0.7C323.5,640.6,324,639.8,324.3,638.8L324.3,638.8z M324.6,633
	c0-1.7-0.5-2.9-1.3-3.8c-0.8-0.9-1.8-1.3-3-1.3c-1.3,0-2.3,0.5-3.1,1.4c-0.8,0.9-1.2,2.1-1.2,3.7H324.6L324.6,633z"/>
<path class="st8" d="M354.2,630.4l-5.7,1c-0.2-1.1-0.6-2-1.3-2.5c-0.7-0.6-1.6-0.9-2.6-0.9c-1.5,0-2.6,0.5-3.5,1.5
	c-0.9,1-1.3,2.6-1.3,4.9c0,2.6,0.4,4.4,1.3,5.4c0.9,1.1,2,1.6,3.5,1.6c1.1,0,2-0.3,2.7-0.9c0.7-0.6,1.2-1.7,1.5-3.2l5.7,0.9
	c-0.6,2.6-1.7,4.5-3.4,5.8c-1.7,1.3-3.9,2-6.7,2c-3.2,0-5.8-1-7.7-3c-1.9-2-2.9-4.7-2.9-8.3c0-3.6,1-6.3,2.9-8.3c1.9-2,4.5-3,7.8-3
	c2.7,0,4.8,0.6,6.4,1.7C352.4,626.4,353.5,628.1,354.2,630.4L354.2,630.4z"/>
<path class="st8" d="M377.7,630.4l-5.7,1c-0.2-1.1-0.6-2-1.3-2.5c-0.7-0.6-1.6-0.9-2.6-0.9c-1.5,0-2.6,0.5-3.5,1.5
	c-0.9,1-1.3,2.6-1.3,4.9c0,2.6,0.4,4.4,1.3,5.4c0.9,1.1,2,1.6,3.5,1.6c1.1,0,2-0.3,2.7-0.9c0.7-0.6,1.2-1.7,1.5-3.2l5.7,0.9
	c-0.6,2.6-1.7,4.5-3.4,5.8c-1.7,1.3-3.9,2-6.7,2c-3.2,0-5.8-1-7.7-3c-1.9-2-2.9-4.7-2.9-8.3c0-3.6,1-6.3,2.9-8.3c1.9-2,4.5-3,7.8-3
	c2.7,0,4.8,0.6,6.4,1.7C375.9,626.4,377,628.1,377.7,630.4L377.7,630.4z"/>
<path class="st8" d="M394.8,638.8l5.8,0.9c-0.7,2.1-1.9,3.7-3.5,4.8c-1.6,1.1-3.6,1.6-6,1.6c-3.8,0-6.6-1.2-8.5-3.7
	c-1.4-2-2.2-4.4-2.2-7.4c0-3.6,1-6.4,2.9-8.4c1.9-2,4.3-3,7.2-3c3.3,0,5.8,1.1,7.7,3.2c1.9,2.1,2.8,5.4,2.7,9.7h-14.5
	c0,1.7,0.5,3,1.4,3.9c0.9,0.9,2,1.4,3.3,1.4c0.9,0,1.7-0.2,2.3-0.7C394,640.6,394.5,639.8,394.8,638.8L394.8,638.8z M395.1,633
	c0-1.7-0.5-2.9-1.3-3.8c-0.8-0.9-1.8-1.3-3-1.3c-1.3,0-2.3,0.5-3.1,1.4c-0.8,0.9-1.2,2.1-1.2,3.7H395.1L395.1,633z"/>
<path class="st8" d="M415.6,624.1v4.5h-4v8.7c0,1.8,0,2.8,0.1,3.1c0.1,0.3,0.2,0.5,0.5,0.7c0.3,0.2,0.6,0.3,1,0.3
	c0.5,0,1.3-0.2,2.3-0.5l0.5,4.4c-1.4,0.6-2.9,0.9-4.6,0.9c-1,0-2-0.2-2.8-0.5c-0.8-0.3-1.4-0.8-1.8-1.3c-0.4-0.5-0.7-1.3-0.8-2.2
	c-0.1-0.7-0.2-2-0.2-4v-9.4h-2.7v-4.5h2.7v-4.3l5.8-3.3v7.6H415.6L415.6,624.1z"/>
<path class="st8" d="M429.7,624.1v4.5h-4v8.7c0,1.8,0,2.8,0.1,3.1c0.1,0.3,0.2,0.5,0.5,0.7c0.3,0.2,0.6,0.3,1,0.3
	c0.5,0,1.3-0.2,2.3-0.5l0.5,4.4c-1.4,0.6-2.9,0.9-4.6,0.9c-1,0-2-0.2-2.8-0.5c-0.8-0.3-1.5-0.8-1.8-1.3c-0.4-0.5-0.7-1.3-0.8-2.2
	c-0.1-0.7-0.2-2-0.2-4v-9.4h-2.7v-4.5h2.7v-4.3l5.8-3.3v7.6H429.7L429.7,624.1z"/>
<path class="st8" d="M432.4,634.5c0-1.9,0.5-3.7,1.4-5.5c0.9-1.8,2.3-3.1,4-4.1c1.7-0.9,3.7-1.4,5.8-1.4c3.3,0,6,1.1,8.1,3.2
	c2.1,2.1,3.2,4.8,3.2,8c0,3.3-1.1,6-3.2,8.1c-2.1,2.1-4.8,3.2-8.1,3.2c-2,0-3.9-0.4-5.7-1.3c-1.8-0.9-3.2-2.2-4.2-3.9
	C432.8,639.1,432.4,637,432.4,634.5L432.4,634.5z M438.3,634.8c0,2.1,0.5,3.8,1.5,4.9c1,1.1,2.3,1.7,3.8,1.7c1.5,0,2.8-0.6,3.8-1.7
	c1-1.1,1.5-2.8,1.5-5c0-2.1-0.5-3.7-1.5-4.9c-1-1.1-2.3-1.7-3.8-1.7c-1.5,0-2.8,0.6-3.8,1.7C438.8,631.1,438.3,632.7,438.3,634.8
	L438.3,634.8z"/>
</svg>
