<?xml version="1.0" encoding="utf-8"?>
<!-- Generator: Adobe Illustrator 19.2.0, SVG Export Plug-In . SVG Version: 6.00 Build 0)  -->
<svg version="1.1" id="Livello_1" xmlns="http://www.w3.org/2000/svg" xmlns:xlink="http://www.w3.org/1999/xlink" x="0px" y="0px"
	 viewBox="0 0 960 960" style="enable-background:new 0 0 960 960;" xml:space="preserve">
<style type="text/css">
	.st0{fill-rule:evenodd;clip-rule:evenodd;fill:#FFFFFF;stroke:#1A171B;stroke-width:1.0244;stroke-miterlimit:2.6131;}
	.st1{fill-rule:evenodd;clip-rule:evenodd;fill:#E1001A;}
	.st2{fill-rule:evenodd;clip-rule:evenodd;fill:#FFFFFF;}
	.st3{fill-rule:evenodd;clip-rule:evenodd;fill:#005DA2;}
	.st4{fill:#FFFFFF;stroke:#1A171B;stroke-width:0.6473;stroke-miterlimit:2.6131;}
	.st5{fill:none;stroke:#1A171B;stroke-width:2.1576;stroke-miterlimit:2.6131;}
	.st6{fill-rule:evenodd;clip-rule:evenodd;fill:#1A171B;stroke:#1A171B;stroke-width:0.6473;stroke-miterlimit:2.6131;}
</style>
<g>
	<g>
		<path d="M764.3,343.7h-17l-6.8-17.6h-30.9l-6.4,17.6h-16.6l30.1-77.3h16.5L764.3,343.7z M735.5,313.1l-10.7-28.7l-10.4,28.7H735.5
			z"/>
	</g>
	<g>
		<path d="M694.8,634.9h30.9c6.1,0,10.7,0.3,13.7,0.8s5.7,1.6,8.1,3.2s4.4,3.8,5.9,6.5s2.4,5.7,2.4,9c0,3.6-1,6.9-2.9,10
			s-4.6,5.3-7.9,6.8c4.7,1.4,8.3,3.7,10.9,7s3.8,7.2,3.8,11.7c0,3.5-0.8,6.9-2.5,10.3s-3.9,6-6.7,8c-2.8,2-6.3,3.2-10.5,3.7
			c-2.6,0.3-8.9,0.5-18.8,0.5h-26.3V634.9z M710.4,647.8v17.9h10.2c6.1,0,9.9-0.1,11.3-0.3c2.7-0.3,4.8-1.2,6.3-2.8s2.3-3.5,2.3-6
			c0-2.4-0.7-4.3-2-5.8s-3.3-2.4-5.9-2.7c-1.5-0.2-6-0.3-13.3-0.3H710.4z M710.4,678.5v20.7h14.4c5.6,0,9.2-0.2,10.7-0.5
			c2.3-0.4,4.2-1.5,5.7-3.1c1.5-1.6,2.2-3.8,2.2-6.6c0-2.3-0.6-4.3-1.7-5.9c-1.1-1.6-2.8-2.8-4.9-3.5c-2.1-0.7-6.7-1.1-13.8-1.1
			H710.4z"/>
	</g>
</g>
<g>
	<g>
		<path class="st0" d="M383.1,118.1c92.5,0,168,75.5,168,168c0,92.5-75.5,168-168,168s-168-75.5-168-168
			C215.2,193.5,290.6,118.1,383.1,118.1L383.1,118.1z"/>
		<path class="st1" d="M383.6,127.2c87.3,0,158.5,71.2,158.5,158.5c0,87.3-71.2,158.5-158.5,158.5c-87.3,0-158.5-71.2-158.5-158.5
			C225.1,198.4,296.3,127.2,383.6,127.2L383.6,127.2z"/>
		<path class="st2" d="M383.6,167.7c65,0,118,53,118,118c0,65-53,118-118,118c-65,0-118-53-118-118
			C265.6,220.7,318.6,167.7,383.6,167.7L383.6,167.7z"/>
		<path class="st3" d="M383.7,175.7c59.8,0,108.6,48.8,108.6,108.6c0,59.8-48.8,108.6-108.6,108.6c-59.8,0-108.6-48.8-108.6-108.6
			C275.1,224.5,323.9,175.7,383.7,175.7L383.7,175.7z"/>
		<polygon class="st2" points="322,187.7 480.3,346 444.1,382.2 285.8,224 322,187.7 		"/>
		<polygon class="st1" points="298,177.6 490.3,370 468.3,391.9 276,199.6 298,177.6 		"/>
	</g>
</g>
<g>
	<polygon class="st4" points="514.7,729.5 251.6,729.5 251.6,614.5 514.7,614.5 514.7,729.5 	"/>
	<path class="st5" d="M492.8,721.1H274c-8.2,0-14.8-6.7-14.8-14.8v-68.8c0-8.1,6.7-14.8,14.8-14.8h218.8c8.1,0,14.8,6.7,14.8,14.8
		v68.8C507.6,714.5,500.9,721.1,492.8,721.1L492.8,721.1z"/>
	<polygon class="st6" points="440,634.8 475,671.6 439.5,708.4 424.6,708.4 452.3,678.7 403.2,678.7 403.2,664.7 452.3,664.7 
		423.3,634.8 440,634.8 	"/>
	<polygon class="st6" points="326.2,634.8 291.3,671.6 326.8,708.4 341.7,708.4 314,678.7 363.1,678.7 363.1,664.7 314,664.7 
		343,634.8 326.2,634.8 	"/>
</g>
</svg>
