<?xml version="1.0" encoding="utf-8"?>
<!-- Generator: Adobe Illustrator 19.2.0, SVG Export Plug-In . SVG Version: 6.00 Build 0)  -->
<svg version="1.1" id="Livello_1" xmlns="http://www.w3.org/2000/svg" xmlns:xlink="http://www.w3.org/1999/xlink" x="0px" y="0px"
	 viewBox="0 0 960 960" style="enable-background:new 0 0 960 960;" xml:space="preserve">
<style type="text/css">
	.st0{fill-rule:evenodd;clip-rule:evenodd;fill:#FFFFFF;stroke:#1A171B;stroke-width:1.0244;stroke-miterlimit:2.6131;}
	.st1{fill-rule:evenodd;clip-rule:evenodd;fill:#E1001A;}
	.st2{fill-rule:evenodd;clip-rule:evenodd;fill:#FFFFFF;}
	.st3{fill-rule:evenodd;clip-rule:evenodd;fill:#005DA2;}
	.st4{fill:#FFFFFF;stroke:#1A171B;stroke-width:0.7138;stroke-miterlimit:2.6131;}
	.st5{fill:none;stroke:#1A171B;stroke-width:4.7586;stroke-miterlimit:2.6131;}
	.st6{fill-rule:evenodd;clip-rule:evenodd;fill:#1A171B;stroke:#1A171B;stroke-width:0.7138;stroke-miterlimit:2.6131;}
	.st7{fill-rule:evenodd;clip-rule:evenodd;fill:#FFFFFF;stroke:#FFFFFF;stroke-width:0.7138;stroke-miterlimit:2.6131;}
	.st8{fill-rule:evenodd;clip-rule:evenodd;fill:#FFFFFF;stroke:#1A171B;stroke-width:0.7138;stroke-miterlimit:2.6131;}
</style>
<g>
	<g>
		<path d="M764.3,343.7h-17l-6.8-17.6h-30.9l-6.4,17.6h-16.6l30.1-77.3h16.5L764.3,343.7z M735.5,313.1l-10.7-28.7l-10.4,28.7H735.5
			z"/>
	</g>
	<g>
		<path d="M694.8,634.9h30.9c6.1,0,10.7,0.3,13.7,0.8s5.7,1.6,8.1,3.2s4.4,3.8,5.9,6.5s2.4,5.7,2.4,9c0,3.6-1,6.9-2.9,10
			s-4.6,5.3-7.9,6.8c4.7,1.4,8.3,3.7,10.9,7s3.8,7.2,3.8,11.7c0,3.5-0.8,6.9-2.5,10.3s-3.9,6-6.7,8c-2.8,2-6.3,3.2-10.5,3.7
			c-2.6,0.3-8.9,0.5-18.8,0.5h-26.3V634.9z M710.4,647.8v17.9h10.2c6.1,0,9.9-0.1,11.3-0.3c2.7-0.3,4.8-1.2,6.3-2.8s2.3-3.5,2.3-6
			c0-2.4-0.7-4.3-2-5.8s-3.3-2.4-5.9-2.7c-1.5-0.2-6-0.3-13.3-0.3H710.4z M710.4,678.5v20.7h14.4c5.6,0,9.2-0.2,10.7-0.5
			c2.3-0.4,4.2-1.5,5.7-3.1c1.5-1.6,2.2-3.8,2.2-6.6c0-2.3-0.6-4.3-1.7-5.9c-1.1-1.6-2.8-2.8-4.9-3.5c-2.1-0.7-6.7-1.1-13.8-1.1
			H710.4z"/>
	</g>
</g>
<g>
	<g>
		<path class="st0" d="M383.1,118.1c92.5,0,168,75.5,168,168c0,92.5-75.5,168-168,168s-168-75.5-168-168
			C215.2,193.5,290.6,118.1,383.1,118.1L383.1,118.1z"/>
		<path class="st1" d="M383.6,127.2c87.3,0,158.5,71.2,158.5,158.5c0,87.3-71.2,158.5-158.5,158.5c-87.3,0-158.5-71.2-158.5-158.5
			C225.1,198.4,296.3,127.2,383.6,127.2L383.6,127.2z"/>
		<path class="st2" d="M383.6,167.7c65,0,118,53,118,118c0,65-53,118-118,118c-65,0-118-53-118-118
			C265.6,220.7,318.6,167.7,383.6,167.7L383.6,167.7z"/>
		<path class="st3" d="M383.7,175.7c59.8,0,108.6,48.8,108.6,108.6c0,59.8-48.8,108.6-108.6,108.6c-59.8,0-108.6-48.8-108.6-108.6
			C275.1,224.5,323.9,175.7,383.7,175.7L383.7,175.7z"/>
		<polygon class="st2" points="322,187.7 480.3,346 444.1,382.2 285.8,224 322,187.7 		"/>
		<polygon class="st1" points="298,177.6 490.3,370 468.3,391.9 276,199.6 298,177.6 		"/>
	</g>
</g>
<g>
	<g>
		<polygon class="st4" points="551.1,593 215.2,593 215.2,751.1 551.1,751.1 551.1,593 		"/>
		<path class="st5" d="M247.9,604.5h270.5c12.6,0,22.9,10.3,22.9,22.9v89.8c0,12.6-10.3,22.9-22.9,22.9H247.9
			c-12.6,0-22.9-10.3-22.9-22.9v-89.8C225.1,614.8,235.4,604.5,247.9,604.5L247.9,604.5z"/>
		<path class="st6" d="M391.1,675.6c-5.9-1.1-11.6,2.8-12.7,8.7c-1.1,5.9,2.8,11.6,8.7,12.7c5.9,1.1,11.6-2.8,12.7-8.7
			C400.9,682.4,397,676.7,391.1,675.6L391.1,675.6z"/>
		<path class="st6" d="M483.3,692.7c-5.9-1.1-11.6,2.8-12.7,8.7c-1.1,5.9,2.8,11.6,8.7,12.7c5.9,1.1,11.6-2.8,12.7-8.7
			C493.1,699.4,489.2,693.7,483.3,692.7L483.3,692.7z"/>
		<path class="st6" d="M374.7,686.5c0.5-6.5,2.9-9.9,7.3-12.7l-20.8-3.8l1.6,12.3L374.7,686.5L374.7,686.5z"/>
		<path class="st6" d="M467.3,703.7c0-5.7,1.7-9.6,6.9-12.8l-74.3-13.7c4.2,4,4.1,9.8,2.6,14.5L467.3,703.7L467.3,703.7z"/>
		<polygon class="st6" points="521.7,696.1 520.2,683.1 404.4,661.7 367.2,659 361.9,666.5 521.7,696.1 		"/>
		<polygon class="st6" points="410.1,659.2 427.2,647.3 447.9,651.2 445.3,665.7 448.8,666.3 451.5,651.9 472.5,655.8 477.7,671.7 
			490.6,674.1 478.7,653.1 426.6,643.7 405.3,658.3 410.1,659.2 		"/>
		<path class="st6" d="M514.8,710.2l6.3-10.6l-29-5.3c3.5,4.5,4.2,7.5,2.4,14.3L514.8,710.2L514.8,710.2z"/>
		<path class="st7" d="M482.3,697.7c-3.1-0.6-6.1,1.5-6.7,4.6c-0.6,3.1,1.5,6.1,4.6,6.7c3.1,0.6,6.1-1.5,6.7-4.6
			C487.5,701.3,485.5,698.3,482.3,697.7L482.3,697.7z"/>
		<path class="st7" d="M390.2,680.6c-3.1-0.6-6.1,1.5-6.7,4.6c-0.6,3.1,1.5,6.1,4.6,6.7c3.1,0.6,6.1-1.5,6.7-4.6
			C395.4,684.2,393.3,681.2,390.2,680.6L390.2,680.6z"/>
		<path class="st6" d="M244.4,703.3v-13h38.5c-4,2.2-6.8,8.1-6.4,13H244.4L244.4,703.3z"/>
		<path class="st6" d="M309,703.3c0-5.1-2.3-10.3-6.1-13c6.2,0,19.1,0,26.1,0v6.6L309,703.3L309,703.3z"/>
		<polygon class="st6" points="244.4,686.1 244.4,673.8 329,673.8 329,686.1 244.4,686.1 		"/>
		<path class="st6" d="M355.4,680.2L344,637.8l-23.1,32.5h-8.1l17.4-23.4l-26.9,23.4h-10.7l47.4-39.4c2.5-1.6,4.8-0.9,5.8,2.3
			l12.5,47.7L355.4,680.2L355.4,680.2z"/>
		<path class="st6" d="M292.6,690.1c6.8,0,12.3,5.5,12.3,12.3c0,6.8-5.5,12.3-12.3,12.3c-6.8,0-12.3-5.5-12.3-12.3
			C280.3,695.6,285.8,690.1,292.6,690.1L292.6,690.1z"/>
		<path class="st8" d="M292.6,697.2c2.9,0,5.2,2.3,5.2,5.2c0,2.9-2.3,5.2-5.2,5.2c-2.9,0-5.2-2.3-5.2-5.2
			C287.4,699.6,289.8,697.2,292.6,697.2L292.6,697.2z"/>
	</g>
</g>
</svg>
