<?xml version="1.0" encoding="utf-8"?>
<!-- Generator: Adobe Illustrator 19.2.0, SVG Export Plug-In . SVG Version: 6.00 Build 0)  -->
<svg version="1.1" id="Livello_1" xmlns="http://www.w3.org/2000/svg" xmlns:xlink="http://www.w3.org/1999/xlink" x="0px" y="0px"
	 viewBox="0 0 960 960" style="enable-background:new 0 0 960 960;" xml:space="preserve">
<style type="text/css">
	.st0{fill:#FFFFFF;stroke:#1A171B;stroke-width:0.7331;stroke-miterlimit:2.6131;}
	.st1{fill:none;stroke:#1A171B;stroke-width:2.4438;stroke-miterlimit:2.6131;}
	.st2{fill-rule:evenodd;clip-rule:evenodd;fill:#1A171B;stroke:#1A171B;stroke-width:0.7331;stroke-miterlimit:2.6131;}
	.st3{fill-rule:evenodd;clip-rule:evenodd;fill:#005EA7;}
	.st4{fill:none;stroke:#FFFFFF;stroke-width:8.1137;stroke-miterlimit:2.6131;}
	.st5{fill-rule:evenodd;clip-rule:evenodd;fill:#FFFFFF;stroke:#005EA7;stroke-width:0.8114;stroke-miterlimit:2.6131;}
</style>
<g>
	<g>
		<polygon class="st0" points="545.1,541.9 545.1,840 414.9,840 414.9,541.9 545.1,541.9 		"/>
		<path class="st1" d="M535.6,566.8v247.8c0,9.2-7.6,16.8-16.8,16.8H441c-9.2,0-16.8-7.6-16.8-16.8V566.8c0-9.2,7.6-16.8,16.8-16.8
			h77.9C528.1,550,535.6,557.6,535.6,566.8L535.6,566.8z"/>
		<polygon class="st2" points="437.8,626.5 479.5,586.9 521.2,627.1 521.2,644 487.5,612.6 487.5,668.2 471.7,668.2 471.7,612.6 
			437.8,645.5 437.8,626.5 		"/>
	</g>
</g>
<g>
	<g>
		<polygon class="st3" points="274,120.9 686,120.9 686,530.6 274,530.6 274,120.9 		"/>
		<path class="st4" d="M308.9,133h342.9c12.5,0,22.8,10.3,22.8,22.8v340.7c0,12.5-10.3,22.8-22.8,22.8H308.9
			c-12.5,0-22.8-10.3-22.8-22.8V155.8C286.1,143.2,296.4,133,308.9,133L308.9,133z"/>
		<path class="st5" d="M366.2,465.4V185.8h70.6c56.4,0,119.3,1,150.4,44.5c14.5,24.6,15.9,56.5,7.7,87.4
			c-7.9,28.7-44.6,57.2-79.6,56.7l-78.5-0.5v91.5H366.2L366.2,465.4z M437.1,315.7v-74.2h51.2c27.6,0,25.7,5.4,35.6,12.7
			c14,14.1,10.4,42.8-1.6,49.9c-7.4,4.6-7.4,11.7-33.9,11.7H437.1L437.1,315.7z"/>
	</g>
</g>
</svg>
