<?xml version="1.0" encoding="utf-8"?>
<!-- Generator: Adobe Illustrator 19.2.0, SVG Export Plug-In . SVG Version: 6.00 Build 0)  -->
<svg version="1.1" id="Livello_1" xmlns="http://www.w3.org/2000/svg" xmlns:xlink="http://www.w3.org/1999/xlink" x="0px" y="0px"
	 viewBox="0 0 960 960" style="enable-background:new 0 0 960 960;" xml:space="preserve">
<style type="text/css">
	.st0{fill:#FFFFFF;stroke:#1A171B;stroke-width:0.7331;stroke-miterlimit:2.6131;}
	.st1{fill:none;stroke:#1A171B;stroke-width:2.4438;stroke-miterlimit:2.6131;}
	.st2{fill-rule:evenodd;clip-rule:evenodd;fill:#1A171B;stroke:#1A171B;stroke-width:0.7331;stroke-miterlimit:2.6131;}
	.st3{fill-rule:evenodd;clip-rule:evenodd;fill:#FFFFFF;stroke:#1A171B;stroke-width:1.23;stroke-miterlimit:2.6131;}
	.st4{fill-rule:evenodd;clip-rule:evenodd;fill:#005EA7;}
	.st5{fill-rule:evenodd;clip-rule:evenodd;fill:#FFFFFF;}
</style>
<g>
	<polygon class="st0" points="545.1,541.9 545.1,840 414.9,840 414.9,541.9 545.1,541.9 	"/>
	<path class="st1" d="M535.6,566.8v247.8c0,9.2-7.6,16.8-16.8,16.8H441c-9.2,0-16.8-7.6-16.8-16.8V566.8c0-9.2,7.6-16.8,16.8-16.8
		h77.9C528.1,550,535.6,557.6,535.6,566.8L535.6,566.8z"/>
	<polygon class="st2" points="437.8,626.5 479.5,586.9 521.2,627.1 521.2,644 487.5,612.6 487.5,668.2 471.7,668.2 471.7,612.6 
		437.8,645.5 437.8,626.5 	"/>
</g>
<g>
	<g>
		<path class="st3" d="M480,121.3c112.7,0,204.7,92,204.7,204.7c0,112.7-92,204.7-204.7,204.7S275.3,438.7,275.3,326
			C275.3,213.3,367.3,121.3,480,121.3L480,121.3z"/>
		<path class="st4" d="M480.6,132.4c106.4,0,193.2,86.8,193.2,193.2c0,106.4-86.8,193.2-193.2,193.2S287.4,432,287.4,325.6
			C287.4,219.2,374.2,132.4,480.6,132.4L480.6,132.4z"/>
		<path class="st5" d="M395.9,448.4l69.2-143.1l-8.2-31.2l-31.6,35.6c-10.6,14.8-31.2-1.8-19.2-15.7c19.7-22.8,39.4-45.6,59-68.3
			c3.1-2.7,3.1-2.9,8.8-5.8c8.4-2.9,12.8-4.9,22.1-7.5c4-1.3,8.8,1.3,12.4,5.1c15.9,17,28.8,31,44.9,48c2.9,2.9,2.9,5.7,2.9,8.4
			c0,14.6,0,22.3,0,36.9c0,13-22.8,13-22.8,0v-31l-19.9-20.1l-6,43.1L560.6,450c4.4,13-21.7,21.7-27,9.5l-46.9-129.2l-63.3,126.7
			C414,474.5,391.7,461.5,395.9,448.4L395.9,448.4z"/>
		<path class="st5" d="M480.8,165.9c11.7,0,21.3,9.6,21.3,21.3c0,11.7-9.6,21.3-21.3,21.3c-11.7,0-21.3-9.6-21.3-21.3
			C459.4,175.5,469,165.9,480.8,165.9L480.8,165.9z"/>
	</g>
</g>
</svg>
