<?xml version="1.0" encoding="utf-8"?>
<!-- Generator: Adobe Illustrator 19.2.0, SVG Export Plug-In . SVG Version: 6.00 Build 0)  -->
<svg version="1.1" id="Livello_1" xmlns="http://www.w3.org/2000/svg" xmlns:xlink="http://www.w3.org/1999/xlink" x="0px" y="0px"
	 viewBox="0 0 960 960" style="enable-background:new 0 0 960 960;" xml:space="preserve">
<style type="text/css">
	.st0{fill:#FFFFFF;stroke:#1A171B;stroke-width:0.8805;stroke-miterlimit:2.6131;}
	.st1{fill-rule:evenodd;clip-rule:evenodd;fill:#1A171B;}
	.st2{fill:none;stroke:#1A171B;stroke-width:5.8703;stroke-miterlimit:2.6131;}
	.st3{fill-rule:evenodd;clip-rule:evenodd;fill:#FFFFFF;stroke:#1A171B;stroke-width:1.5102;stroke-miterlimit:2.6131;}
	.st4{fill-rule:evenodd;clip-rule:evenodd;fill:#005EA7;}
	.st5{fill-rule:evenodd;clip-rule:evenodd;fill:#FFFFFF;}
</style>
<polygon class="st0" points="256.8,635.5 703.2,635.5 703.2,830.5 256.8,830.5 256.8,635.5 "/>
<path class="st1" d="M593.6,765.3c-0.8-0.2-1.4-0.7-1.8-1.5c-0.4-0.7-0.7-1.6-0.7-2.6c0-1.3,0.4-2.4,1.3-3.4c0.9-0.9,2-1.4,3.2-1.4
	c1.5,0,2.7,0.5,3.5,1.6c0.9,1,1.3,2.4,1.3,4.2c0,2.8-0.9,5.3-2.7,7.4c-1.8,2.1-4.1,3.4-6.9,3.9V772c0.9-1.1,1.6-2.1,2.1-3.2
	c0.5-1,0.7-2.1,0.7-3.1V765.3L593.6,765.3z"/>
<path class="st1" d="M402.9,765.2c-0.8-0.2-1.4-0.7-1.8-1.5c-0.5-0.7-0.7-1.6-0.7-2.6c0-1.3,0.4-2.5,1.3-3.4c0.9-0.9,2-1.4,3.2-1.4
	c1.5,0,2.7,0.5,3.5,1.6c0.9,1,1.3,2.5,1.3,4.2c0,2.8-0.9,5.3-2.7,7.4c-1.8,2.1-4.1,3.4-6.9,3.9v-1.6c0.9-1.1,1.6-2.1,2.1-3.2
	c0.5-1,0.7-2.1,0.7-3.1V765.2L402.9,765.2z"/>
<polygon class="st1" points="311,773.1 311,726.1 296.7,726.1 296.6,714.1 311,714 311,695.7 321.1,695.7 321.1,714 335.3,714 
	335.3,725.9 321.4,725.9 321.4,773.1 311,773.1 "/>
<path class="st2" d="M294.1,649.7h371.1c13.8,0,25.1,11.3,25.1,25.1v116.6c0,13.8-11.3,25.1-25.1,25.1H294.1
	c-13.8,0-25.1-11.3-25.1-25.1V674.8C268.9,661,280.3,649.7,294.1,649.7L294.1,649.7z"/>
<path class="st1" d="M554,754.2v10.4h-30.5c0.3-3.9,1.3-7.7,2.8-11.1c1.7-3.5,5-8.2,9.9-13.9c3.9-4.7,6.5-7.9,7.2-9.6
	c1.3-2.4,1.9-4.7,1.9-6.9c0-2.5-0.5-4.5-1.6-5.9c-1-1.3-2.7-2-4.5-2c-1.8,0-3.5,0.7-4.5,2c-1,1.3-1.8,3.7-1.8,6.7l-8.5-1
	c0.5-6,2.2-10.4,4.8-13.1c2.7-2.7,6.2-4,10.2-4c4.4,0,8,1.7,10.6,4.7c2.6,3,3.9,7,3.9,11.7c0,2.5-0.4,5-1.2,7.4
	c-0.8,2.3-1.9,5-3.5,7.6c-1,1.7-3.1,4.2-5.8,7.4c-2.8,3.2-4.6,5.4-5.3,6.4c-0.8,1-1.4,2.2-1.8,3.2H554L554,754.2z"/>
<polygon class="st1" points="487.7,748.2 487.7,738.1 504.7,738.1 504.7,748.2 487.7,748.2 "/>
<path class="st1" d="M658.7,725c-1.9-3.1-4.8-4.7-8.5-4.7c-3.7,0-6.6,1.5-8.6,4.6c-2.4,3.6-3.7,9.7-3.7,18.2
	c0,8.4,1.2,14.4,3.3,17.8c2.2,3.3,5.3,5,8.9,5c3.7,0,6.6-1.5,8.5-4.5c2.5-3.6,3.8-9.7,3.8-18.1S661.2,728.6,658.7,725z M654.2,754.2
	c-0.4,1.7-1.1,2.9-1.7,3.6c-0.6,0.5-1.4,0.9-2.3,0.9c-0.9,0-1.8-0.4-2.5-1c-0.6-0.5-1.2-1.9-1.6-3.8c-0.4-1.8-0.6-5.5-0.6-10.6
	c0-5.1,0.3-8.9,0.8-11.1c0.3-1.7,1-2.9,1.6-3.6c0.6-0.6,1.5-1,2.4-1c0.9,0,1.7,0.4,2.4,1c0.6,0.6,1.3,2,1.7,4
	c0.4,1.9,0.6,5.6,0.6,10.7C655,748.3,654.7,752.1,654.2,754.2z"/>
<path class="st1" d="M629.7,725c-1.9-3.1-4.8-4.7-8.5-4.7c-3.7,0-6.6,1.5-8.6,4.6c-2.4,3.6-3.7,9.7-3.7,18.2
	c0,8.4,1.2,14.4,3.3,17.8c2.2,3.3,5.3,5,8.9,5c3.7,0,6.6-1.5,8.5-4.5c2.5-3.6,3.8-9.7,3.8-18.1S632.1,728.6,629.7,725z M625.1,754.2
	c-0.4,1.7-1.1,2.9-1.7,3.6c-0.6,0.5-1.4,0.9-2.3,0.9c-0.9,0-1.8-0.4-2.5-1c-0.6-0.5-1.2-1.9-1.6-3.8c-0.4-1.8-0.6-5.5-0.6-10.6
	c0-5.1,0.3-8.9,0.8-11.1c0.3-1.7,1-2.9,1.6-3.6c0.6-0.6,1.5-1,2.4-1c0.9,0,1.7,0.4,2.4,1c0.6,0.6,1.3,2,1.7,4
	c0.4,1.9,0.6,5.6,0.6,10.7C625.9,748.3,625.6,752.1,625.1,754.2z"/>
<path class="st1" d="M584.4,712.1c-2.3-4-5.8-6.2-10.2-6.2c-4.4,0-7.9,2-10.3,6c-2.8,4.7-4.4,12.8-4.4,23.8c0,11.1,1.4,19,4,23.3
	c2.6,4.4,6.3,6.5,10.7,6.5c4.4,0,7.9-2,10.2-5.9c3-4.7,4.5-12.8,4.5-23.8C588.9,724.9,587.3,716.8,584.4,712.1z M579,750.4
	c-0.5,2.2-1.3,3.9-2.1,4.7c-0.8,0.7-1.7,1.2-2.7,1.2c-1,0-2.2-0.5-3-1.3c-0.8-0.7-1.4-2.5-1.9-5c-0.5-2.3-0.8-7.2-0.8-13.9
	c0-6.7,0.4-11.7,0.9-14.6c0.4-2.2,1.2-3.9,1.9-4.7c0.8-0.8,1.8-1.3,2.8-1.3c1,0,2.1,0.5,2.8,1.3c0.8,0.8,1.6,2.7,2.1,5.2
	c0.5,2.5,0.8,7.4,0.8,14.1C579.9,742.7,579.5,747.7,579,750.4z"/>
<path class="st1" d="M466.6,724.7c-1.9-3.1-4.8-4.7-8.5-4.7c-3.7,0-6.6,1.5-8.6,4.6c-2.4,3.6-3.7,9.7-3.7,18.2
	c0,8.4,1.2,14.4,3.3,17.8c2.2,3.3,5.3,5,8.9,5c3.7,0,6.6-1.5,8.5-4.5c2.5-3.6,3.8-9.7,3.8-18.1C470.4,734.4,469.1,728.3,466.6,724.7
	z M462.1,753.8c-0.4,1.7-1.1,2.9-1.7,3.6c-0.6,0.5-1.4,0.9-2.3,0.9s-1.8-0.4-2.5-1c-0.6-0.5-1.2-1.9-1.6-3.8
	c-0.4-1.8-0.6-5.5-0.6-10.6c0-5.1,0.3-8.9,0.8-11.1c0.3-1.7,1-2.9,1.6-3.6c0.6-0.6,1.5-1,2.4-1s1.7,0.4,2.4,1c0.6,0.6,1.3,2,1.7,4
	c0.4,1.9,0.6,5.6,0.6,10.7C462.9,748,462.5,751.8,462.1,753.8z"/>
<path class="st1" d="M437.6,724.7c-1.9-3.1-4.8-4.7-8.5-4.7c-3.7,0-6.6,1.5-8.6,4.6c-2.4,3.6-3.7,9.7-3.7,18.2
	c0,8.4,1.2,14.4,3.3,17.8c2.2,3.3,5.3,5,8.9,5c3.7,0,6.6-1.5,8.5-4.5c2.5-3.6,3.8-9.7,3.8-18.1C441.3,734.4,440,728.3,437.6,724.7z
	 M433,753.8c-0.4,1.7-1.1,2.9-1.7,3.6c-0.6,0.5-1.4,0.9-2.3,0.9c-0.9,0-1.8-0.4-2.5-1c-0.6-0.5-1.2-1.9-1.6-3.8
	c-0.4-1.8-0.6-5.5-0.6-10.6c0-5.1,0.3-8.9,0.8-11.1c0.3-1.7,1-2.9,1.6-3.6c0.6-0.6,1.5-1,2.4-1c0.9,0,1.7,0.4,2.4,1
	c0.6,0.6,1.3,2,1.7,4c0.4,1.9,0.6,5.6,0.6,10.7C433.8,748,433.5,751.8,433,753.8z"/>
<path class="st1" d="M396.8,738.8c-1.3-2.3-3.2-4.4-5.7-5.5c1.9-1,3.6-2.9,4.6-4.9c1-2,1.5-4.5,1.5-7.2c0-4.4-1.3-8.2-3.6-11.1
	c-2.3-2.7-5.7-4.2-9.8-4.2c-4.3,0-7.6,1.5-9.9,4.4c-2.3,2.7-3.5,6.5-3.5,10.9c0,2.3,0.5,4.9,1.6,7c0.9,2,2.6,3.9,4.9,4.9v0.2
	c-2.6,1.3-4.5,3.5-5.7,6.2c-1.2,2.5-1.8,5.5-1.8,8.6c0,5.7,1.7,10.2,4.8,13.6c2.6,2.7,6.1,4,10.1,4c4.4,0,8-1.7,10.6-5
	c2.6-3.4,4-7.7,4-13.1C398.9,744.3,398.1,741.3,396.8,738.8z M380.2,716.6c0.9-1.3,2.3-2,3.9-2c1.5,0,2.8,0.7,3.9,2
	c0.9,1.3,1.4,3.2,1.4,5.2c0,2.2-0.5,4-1.5,5.4c-0.9,1.2-2.3,1.8-3.9,1.8c-1.5,0-2.8-0.7-3.7-1.8c-0.9-1.2-1.4-3-1.4-5.4
	C378.7,719.8,379.3,718,380.2,716.6z M388.6,754.4c-1,1.7-2.6,2.5-4.4,2.5c-1.8,0-3.4-1-4.5-2.7c-1-1.7-1.7-4.1-1.7-7.3
	c0,0,0,0.1,0,0.1v-0.2c0,0,0,0.1,0,0.1c0-2.2,0.5-4.3,1.5-6.3c0.9-1.8,2.5-2.9,4.5-2.9c1.8,0,3.4,1,4.5,2.7c1.2,1.7,1.8,4,1.8,6.7
	C390.4,750.2,389.7,752.7,388.6,754.4z"/>
<g>
	<g>
		<path class="st3" d="M480,118c138.4,0,251.3,112.9,251.3,251.3c0,138.4-112.9,251.3-251.3,251.3S228.7,507.7,228.7,369.3
			C228.7,230.9,341.6,118,480,118L480,118z"/>
		<path class="st4" d="M480.7,131.6c130.6,0,237.2,106.5,237.2,237.2c0,130.6-106.5,237.2-237.2,237.2
			c-130.6,0-237.2-106.5-237.2-237.2C243.5,238.2,350.1,131.6,480.7,131.6L480.7,131.6z"/>
		<path class="st5" d="M548.1,383.1c5-13.9,10.2-20.5,21.8-28.7c0,0,12,20.9,18.7,31.6C574.5,385.5,548.1,383.3,548.1,383.1
			L548.1,383.1z M612.9,406c-0.7,2.8-5.9,6.7-12.9,7.4l-51.9,4.3c0,0,10.2,37.9,51.9,40.8c31.2,0,56.4-25.1,56.4-56.6
			c0-31.2-25.1-56.2-56.4-56.2c-8.1,0-12,0.9-18.5,4.1c2.2,4.1,15.5,24.6,22.7,37.7C616.4,391.3,613.1,402,612.9,406L612.9,406z
			 M360.1,389.4c-7.9,0.6-12.6,6.3-12.6,13.5c0,6.7,5.9,12.2,12.6,12.2c6.8,0,13.1-6.8,12.8-12.2c-0.6-5.7-2.6-7.4-2.6-7.6l22.6-39
			c13.9,10.5,22.9,27.7,22.9,46.6c0,30.9-25.3,56-56.4,56c-31.1,0-56.2-25.1-56.2-56c0-31.1,25.1-56.7,56.2-56.7
			c8.5,0,16.1,2,22.7,5.2L360.1,389.4L360.1,389.4z M505.5,378.5c-5.7-1.8-15-0.7-19.2,3.9L419,318.1h119.2L505.5,378.5L505.5,378.5
			z M556.2,309.6l17.7,29.2c7.9-3.3,17.2-5.4,26.2-5.4c38.3,0,69.1,30.9,69.1,68.6c0,37.9-30.9,69.1-69.1,69.1
			c-31.8,0-58.8-21.8-66.5-51.9c-11.5,1.1-22.5,1.7-32.9,1.9c-22.7-2.8-25.3-15.7-22.9-29.9l-68-63.6l-10.9,18.1
			c17.7,12,29.9,32.9,29.9,56.4c0,37.9-31.2,69.1-68.8,69.1c-38.3,0-68.9-31.2-68.9-69.1c0-37.7,30.7-68.6,68.9-68.6
			c10.2,0,19.8,2.4,28.5,6.1l24.4-43.4l-3.1-15.7c0-6.1,3.9-18.7,15.3-18.7h31.4c5.9,1.3,7.2,9.2,0,10.4h-29.9
			c-7.4,4.3-5.7,9.8-1.3,24l-5.4,10.4l125,0.4l11.3-20.7c-3.5,0-6.3-1.7-10.4-1.7c-6.7-2.2-6.8-7.4-2-9.1c9.8,0,29.2,0.7,39.4,0.7
			c6.3,0,6.1,16.6,1.3,17.4c-5.7,0-11.5-4.1-17.2-4.1L556.2,309.6L556.2,309.6z M518.3,379.8l30.3-56.7l14.2,21.3
			c-13.1,7.4-21.4,18.1-27.9,37.2L518.3,379.8L518.3,379.8z"/>
	</g>
</g>
</svg>
