<?xml version="1.0" encoding="utf-8"?>
<!-- Generator: Adobe Illustrator 19.2.0, SVG Export Plug-In . SVG Version: 6.00 Build 0)  -->
<svg version="1.1" id="Livello_3" xmlns="http://www.w3.org/2000/svg" xmlns:xlink="http://www.w3.org/1999/xlink" x="0px" y="0px"
	 viewBox="0 0 445.6 805.6" style="enable-background:new 0 0 445.6 805.6;" xml:space="preserve">
<style type="text/css">
	.st0{display:none;enable-background:new    ;}
	.st1{font-family:'ArialMT';}
	.st2{font-size:53.7146px;}
	.st3{fill:#FFFFFF;stroke:#1A171B;stroke-width:0.7684;stroke-miterlimit:2.6131;}
	.st4{fill:none;stroke:#1A171B;stroke-width:7.6843;stroke-miterlimit:2.6131;}
	.st5{fill:#1A171B;stroke:#1A171B;stroke-width:0.7684;stroke-miterlimit:2.6131;}
	.st6{fill:#FFFFFF;stroke:#1A171B;stroke-width:0.8772;stroke-miterlimit:2.6131;}
	.st7{fill:#E1001A;}
	.st8{fill:#FFFFFF;stroke:#E1001A;stroke-width:2.9242;stroke-miterlimit:2.6131;}
	.st9{fill:#1A171B;}
	.st10{fill:#1A171B;stroke:#1A171B;stroke-width:0.8772;stroke-miterlimit:2.6131;}
</style>
<text transform="matrix(0.9757 0 0 1 8.9429 848.6501)" class="st0 st1 st2">Preavviso di STOP</text>
<g>
	<g>
		<g>
			<polygon class="st3" points="28.4,408.8 418.7,408.8 418.7,796.9 28.4,796.9 			"/>
			<path class="st4" d="M61.5,420.3h324.7c11.9,0,21.6,9.7,21.6,21.6v322.7c0,11.9-9.7,21.6-21.6,21.6H61.5
				c-11.9,0-21.6-9.7-21.6-21.6V441.9C40,430.1,49.6,420.3,61.5,420.3L61.5,420.3z"/>
			<path class="st5" d="M253.6,597.6l-0.5-0.8l20.8-14.4l2.4,3.9L253.6,597.6L253.6,597.6z M267.6,623c-4.8-1.1-9.8,2-10.5,6.4
				c-0.8,4.6,2.4,9,7,10c4.1,1.1,8.5-2,9.4-7C274.4,628.7,271.6,623.5,267.6,623L267.6,623z M337.9,637.5c-4.8-0.8-9,2.6-10,7
				c-1.1,4.6,1.8,9,6.4,10c4.8,0.8,9.4-1.8,10.3-6.6C345.3,643.8,342.6,638.8,337.9,637.5L337.9,637.5z M254.2,631.1
				c0.8-5.1,2.6-7.7,6.4-10l-16.4-3.1l1.1,9.7L254.2,631.1L254.2,631.1z M325.4,646.2c0-4.6,1.5-7.4,5.7-9.8l-56.9-12.5
				c2.8,3.9,2.8,7.7,1.3,11.8L325.4,646.2L325.4,646.2z M367.6,641.6l-1.1-10.3l-89.1-19l-28.7-2.4l-3.9,5.1L367.6,641.6
				L367.6,641.6z M282.3,611l13.1-9.4l15.9,4.1l-2,11l2.6,0.5l2.4-11l16.4,3.3l3.5,12.5l10.3,1.8l-8.5-16.2l-40.7-8.1l-16.6,10.7
				L282.3,611L282.3,611z M362,652.4l4.8-8.7l-22.3-4.6c2.8,4.1,3.3,6.4,1.8,11.6L362,652.4L362,652.4z M336.9,641.9
				c-2-0.5-4.6,1.1-5.1,3.3c-0.2,2.4,1.3,4.8,3.3,5.1c2.8,0.8,5.1-0.8,5.4-3.3C341,644.9,339.8,642.5,336.9,641.9L336.9,641.9z
				 M266.5,627c-2.6-0.5-5.1,1.1-5.4,3.1c-0.5,2.4,0.8,4.8,3.5,5.4c2,0.5,4.6-1.1,5.1-3.5C270,629.8,268.5,627.6,266.5,627
				L266.5,627z"/>
			<polygon class="st5" points="242.2,591.3 248,562.9 252.8,563.6 243.5,591.4 			"/>
			<polygon class="st5" points="248.7,591.3 264.3,567.4 267.9,570.4 249.4,592.1 			"/>
			<path class="st5" d="M82.1,587.6l5.7-27.1l13.8-21.5l24.9,5.4l-7.9,38.1l68.4,14.6c-4.1,0.5-7.7,4.8-9.4,10.5l-61.7-12.9
				c3.3-20.2-24.1-26.4-28.9-6.4L82.1,587.6L82.1,587.6z"/>
			<path class="st5" d="M202.2,600.2l22.5,4.8l-1.3,5.4l-16.9,3.1C208.1,608.4,205.3,602.5,202.2,600.2L202.2,600.2z"/>
			<polygon class="st5" points="122.5,579.7 133.3,529 236.3,550.8 225.8,601.8 122.5,579.7 			"/>
			<polygon class="st3" points="94.1,558.5 103.3,544.7 121.7,549 118.4,563.4 94.1,558.5 			"/>
			<path class="st5" d="M103.6,579.7c7,1.3,11.6,8.1,10,14.4c-1.3,6.6-7.9,11-15.1,9.4c-6.4-1.5-10.5-7.7-9-14.6
				C90.8,582.5,97.2,578.2,103.6,579.7L103.6,579.7z"/>
			<path class="st5" d="M194.5,598.9c7,1.5,11,7.9,9.2,14.6c-1.1,6.4-7.4,10.7-14,9.4c-6.6-1.5-11.3-8.1-10-14.9
				C181.4,601.4,187.8,597.4,194.5,598.9L194.5,598.9z"/>
			<path class="st3" d="M102.3,585.8c3.5,0.8,5.7,3.5,4.8,7c-0.5,3.5-4.1,5.4-7.4,4.6c-2.8-0.5-5.1-3.9-4.4-7
				C96.1,587.1,99.2,585,102.3,585.8L102.3,585.8z"/>
			<path class="st3" d="M193.2,605.3c3.1,0.8,5.7,3.3,4.8,7c-0.8,3.1-4.1,5.1-7.4,4.4c-2.8-0.5-4.8-3.3-4.4-7
				C187.1,606,190.4,604.8,193.2,605.3L193.2,605.3z"/>
			<polygon class="st5" points="69.6,598.3 377.8,664.2 377.4,675.7 69.6,610.4 			"/>
		</g>
	</g>
	<g>
		<g>
			<path class="st6" d="M411.9,390.5c20.4-0.8,32.6-16,29.4-36.3l-0.7-3.1l-1.2-3.3l-1.4-3.2l-187-324.6
				C241.5,5.7,228.3-2.6,211,4.7c-6.6,3.6-11.3,8.7-15.1,14.9L9.1,343c-6.8,12.8-9.4,26.2,0.9,38c8.2,8.7,18.4,9.7,30,9.7l367.4-0.1
				H411.9L411.9,390.5z"/>
			<path class="st7" d="M407.4,381.1c5.8-0.1,11.3,0.6,17.3-3.8c6-4.4,11.4-15.6,5-28.5l-186.9-324c-10.5-18.3-28.9-17.9-39-0.5
				L17.4,347.7c-3.9,6.9-7.3,16.7-2.8,24c6,9.6,15.3,9.6,25.5,9.7L407.4,381.1L407.4,381.1z"/>
			<polygon class="st8" points="382.5,343.2 223,67.2 63.9,343.2 			"/>
			<path class="st9" d="M260.3,200.7c1.7,2.9,3.2,4.7,4.3,5.2c0.6,0.4,1.7,0.1,2.7-0.4c0.6-0.3,1.3-1.2,1.3-2
				c0.1-1.2-0.5-3.6-2.2-6.5c-1.5-2.6-3.3-4.2-4.4-4.7c-0.6-0.4-1.9-0.4-2.5-0.1c-0.9,0.5-1.4,1.6-1.4,2.4
				C257.9,195.9,258.8,198.1,260.3,200.7L260.3,200.7z M253.7,204.6c-2.1-3.5-3-7.2-2.6-9.8c0.8-2.8,2.5-5.3,5.2-7
				c3-1.7,6.1-2.1,9-1.4s5.7,3.3,7.7,6.7c2.3,3.7,3,7.2,2.3,10c-0.8,2.8-2.6,5.3-5.2,7c-3,1.7-6,2.4-8.5,1.5
				C258.7,211,255.9,208.4,253.7,204.6L253.7,204.6z"/>
			<polygon class="st9" points="247.4,224.4 240.3,228.2 236.6,168.9 243.5,164.8 			"/>
			<path class="st9" d="M217,195.1c1.7,2.9,3.2,4.7,4.3,5.2c0.6,0.4,1.7,0.1,2.7-0.4c0.6-0.3,1.3-1.2,1.3-2c0.1-1.2-0.5-3.6-2.2-6.5
				c-1.5-2.6-3.3-4.2-4.4-4.7c-0.6-0.4-1.9-0.4-2.5-0.1c-0.9,0.5-1.4,1.6-1.4,2.4C214.6,190.3,215.5,192.6,217,195.1L217,195.1z
				 M210.4,199.1c-2.1-3.5-3-7.2-2.6-9.8c0.8-2.8,2.6-5.3,5.2-7c3-1.7,6.2-2.1,9-1.4c2.9,0.6,5.7,3.3,7.7,6.7c2.3,3.7,3,7.2,2.3,10
				c-0.8,2.8-2.6,5.3-5.2,7c-3,1.7-6,2.4-8.4,1.5C215.4,205.4,212.6,202.9,210.4,199.1L210.4,199.1z"/>
			<path class="st9" d="M182.2,210.1c-1.3,0.8-2.5,1.9-2.8,2.9c-0.3,1-0.4,3.1,0.3,5.1c0.6,2.5,2.6,6.6,5.7,11.7
				c3.1,5.1,5.7,8.8,7.1,10.5c1.7,1.4,3.6,2.4,4.6,2.6c1,0.2,2.5-0.3,3.8-1c1-0.6,2.2-1.6,2.5-2.7c0.3-1,0.6-2.8-0.2-4.8
				c-0.6-2.5-2.3-6.8-5.3-11.9c-3.1-5.1-5.7-8.8-7.4-10.3s-3.6-2.4-4.6-2.6C184.7,209.2,183.1,209.4,182.2,210.1L182.2,210.1z
				 M177.8,202.8c4.6-2.8,9.7-3.3,14.1-1.9c5.5,1.6,10.9,7,15.8,15.5c5,8.4,7.1,15.7,6,21.4c-0.8,4.6-3.9,8.4-8.5,11.2
				c-4.9,2.9-10.3,3.7-14.7,2.2c-4.6-1.7-10-7.1-15-15.5c-5-8.4-7.1-15.7-6.4-21.2C170,209.9,173.2,205.5,177.8,202.8L177.8,202.8z"
				/>
			<path class="st9" d="M181.6,263l-9.6,5.7l-19.2-32.3l-8.5,5l-3.9-6.7c5.2-4.7,7-6.2,6.5-12.4l7.9-4.7L181.6,263L181.6,263z"/>
			<polygon class="st10" points="362.5,331.7 290.2,205.1 84.5,331.7 			"/>
		</g>
	</g>
</g>
</svg>
