<?xml version="1.0" encoding="utf-8"?>
<!-- Generator: Adobe Illustrator 19.2.0, SVG Export Plug-In . SVG Version: 6.00 Build 0)  -->
<svg version="1.1" id="Livello_1" xmlns="http://www.w3.org/2000/svg" xmlns:xlink="http://www.w3.org/1999/xlink" x="0px" y="0px"
	 viewBox="0 0 960 960" style="enable-background:new 0 0 960 960;" xml:space="preserve">
<style type="text/css">
	.st0{fill-rule:evenodd;clip-rule:evenodd;fill:#FFFFFF;stroke:#1A171B;stroke-width:0.7179;stroke-miterlimit:2.6131;}
	.st1{fill-rule:evenodd;clip-rule:evenodd;fill:#E1001A;}
	.st2{fill-rule:evenodd;clip-rule:evenodd;fill:#FFFFFF;stroke:#E1001A;stroke-width:2.3928;stroke-miterlimit:2.6131;}
	.st3{fill-rule:evenodd;clip-rule:evenodd;fill:#1A171B;stroke:#1A171B;stroke-width:0.7179;stroke-miterlimit:2.6131;}
	.st4{fill-rule:evenodd;clip-rule:evenodd;fill:#FFFFFF;stroke:#1A171B;stroke-width:1.0094;stroke-miterlimit:2.6131;}
	.st5{fill-rule:evenodd;clip-rule:evenodd;fill:#005EA7;}
	.st6{fill-rule:evenodd;clip-rule:evenodd;fill:#FFFFFF;}
</style>
<g>
	<g>
		<path d="M764.3,343.7h-17l-6.8-17.6h-30.9l-6.4,17.6h-16.6l30.1-77.3h16.5L764.3,343.7z M735.5,313.1l-10.7-28.7l-10.4,28.7H735.5
			z"/>
	</g>
	<g>
		<path d="M694.8,634.9h30.9c6.1,0,10.7,0.3,13.7,0.8s5.7,1.6,8.1,3.2s4.4,3.8,5.9,6.5s2.4,5.7,2.4,9c0,3.6-1,6.9-2.9,10
			s-4.6,5.3-7.9,6.8c4.7,1.4,8.3,3.7,10.9,7s3.8,7.2,3.8,11.7c0,3.5-0.8,6.9-2.5,10.3s-3.9,6-6.7,8c-2.8,2-6.3,3.2-10.5,3.7
			c-2.6,0.3-8.9,0.5-18.8,0.5h-26.3V634.9z M710.4,647.8v17.9h10.2c6.1,0,9.9-0.1,11.3-0.3c2.7-0.3,4.8-1.2,6.3-2.8s2.3-3.5,2.3-6
			c0-2.4-0.7-4.3-2-5.8s-3.3-2.4-5.9-2.7c-1.5-0.2-6-0.3-13.3-0.3H710.4z M710.4,678.5v20.7h14.4c5.6,0,9.2-0.2,10.7-0.5
			c2.3-0.4,4.2-1.5,5.7-3.1c1.5-1.6,2.2-3.8,2.2-6.6c0-2.3-0.6-4.3-1.7-5.9c-1.1-1.6-2.8-2.8-4.9-3.5c-2.1-0.7-6.7-1.1-13.8-1.1
			H710.4z"/>
	</g>
</g>
<g>
	<g>
		<path class="st0" d="M538.1,831c16.7-0.7,26.7-13.2,24.1-29.7l-0.6-2.5l-1-2.7l-1.2-2.6L406.4,527.8
			c-7.7-11.8-18.5-18.5-32.6-12.6c-5.4,2.9-9.3,7.1-12.4,12.2L208.5,792.1c-5.6,10.4-7.7,21.4,0.8,31.1c6.7,7.1,15.1,7.9,24.6,7.9
			l300.6-0.1H538.1L538.1,831z"/>
		<path class="st1" d="M534.4,823.3c4.7-0.1,9.3,0.5,14.1-3.1c4.9-3.6,9.4-12.8,4.1-23.3L399.7,531.7c-8.6-15-23.7-14.6-31.9-0.4
			L215.2,795.9c-3.2,5.7-5.9,13.6-2.2,19.6c4.9,7.8,12.6,7.8,20.9,7.9L534.4,823.3L534.4,823.3z"/>
		<polygon class="st2" points="514.1,792.2 383.6,566.4 253.4,792.2 514.1,792.2 		"/>
		<polygon class="st3" points="331.4,774.6 331.4,723.8 348.3,686.8 348.3,652 371.1,652 371.1,686.7 354.1,724.7 354.2,774.6 
			331.4,774.6 		"/>
		<polygon class="st3" points="433.3,774.6 433.3,723.8 416.4,686.8 416.4,652 393.6,652 393.6,686.7 410.6,724.7 410.5,774.6 
			433.3,774.6 		"/>
	</g>
</g>
<g>
	<g>
		<path class="st4" d="M383.1,118.1c92.5,0,168,75.5,168,168c0,92.5-75.5,168-168,168s-168-75.5-168-168
			C215.2,193.5,290.6,118.1,383.1,118.1L383.1,118.1z"/>
		<path class="st5" d="M383.6,127.2c87.3,0,158.5,71.2,158.5,158.5c0,87.3-71.2,158.5-158.5,158.5S225.1,373,225.1,285.7
			C225.1,198.4,296.3,127.2,383.6,127.2L383.6,127.2z"/>
		<path class="st6" d="M446.5,241.8c-15.3-21.8-37.3-34.8-66.8-34.8l10.2,23.3c1.1,7.4-3.2,8.7-9.5,7.6l-86.9-18.4l66.6-70.4
			c4.4-4.9,9.3-4.7,12.5,0.8l-0.6,26.3c25.7-3.8,72.8,6.1,100.3,48.3L446.5,241.8L446.5,241.8z"/>
		<path class="st6" d="M310.6,252.1c-11.2,24.2-11.5,49.7,3.2,75.3l14.1-24.3c5.8-4.7,9.1-1.6,11.3,4.4l28.4,88.2l-94.3-22.5
			c-6.4-1.3-8.7-5.7-5.6-11.2l23.1-12.7c-16.1-20.4-31.2-66.1-8.4-111L310.6,252.1L310.6,252.1z"/>
		<path class="st6" d="M388.3,365c26.5-2.4,48.8-14.9,63.6-40.4l-26.2-1.2c-7-2.7-5.9-7.1-1.8-12l60.3-67.7l27.7,92.9
			c2.1,6.2-0.5,10.4-6.9,10.4l-22.5-13.6c-9.6,24.2-41.7,60.1-91.9,62.7L388.3,365L388.3,365z"/>
	</g>
</g>
</svg>
