<?xml version="1.0" encoding="utf-8"?>
<!-- Generator: Adobe Illustrator 19.2.0, SVG Export Plug-In . SVG Version: 6.00 Build 0)  -->
<svg version="1.1" id="Livello_1" xmlns="http://www.w3.org/2000/svg" xmlns:xlink="http://www.w3.org/1999/xlink" x="0px" y="0px"
	 viewBox="0 0 960 960" style="enable-background:new 0 0 960 960;" xml:space="preserve">
<style type="text/css">
	.st0{fill-rule:evenodd;clip-rule:evenodd;fill:#FFFFFF;stroke:#1A171B;stroke-width:0.5986;stroke-miterlimit:2.6131;}
	.st1{fill:none;stroke:#1A171B;stroke-width:5.9861;stroke-miterlimit:2.6131;}
	.st2{fill-rule:evenodd;clip-rule:evenodd;fill:#1A171B;stroke:#1A171B;stroke-width:0.5986;stroke-miterlimit:2.6131;}
	.st3{fill-rule:evenodd;clip-rule:evenodd;fill:#FFFFFF;stroke:#1A171B;stroke-width:0.8532;stroke-miterlimit:2.6131;}
	.st4{fill-rule:evenodd;clip-rule:evenodd;fill:#FFEC00;stroke:#1A171B;stroke-width:4.2659;stroke-miterlimit:2.6131;}
	.st5{fill:none;stroke:#1A171B;stroke-width:4.2659;stroke-miterlimit:2.6131;}
	.st6{fill-rule:evenodd;clip-rule:evenodd;fill:#1A171B;stroke:#1A171B;stroke-width:0.8532;stroke-miterlimit:2.6131;}
</style>
<g>
	<g>
		<path d="M764.3,343.7h-17l-6.8-17.6h-30.9l-6.4,17.6h-16.6l30.1-77.3h16.5L764.3,343.7z M735.5,313.1l-10.7-28.7l-10.4,28.7H735.5
			z"/>
	</g>
	<g>
		<path d="M694.8,634.9h30.9c6.1,0,10.7,0.3,13.7,0.8s5.7,1.6,8.1,3.2s4.4,3.8,5.9,6.5s2.4,5.7,2.4,9c0,3.6-1,6.9-2.9,10
			s-4.6,5.3-7.9,6.8c4.7,1.4,8.3,3.7,10.9,7s3.8,7.2,3.8,11.7c0,3.5-0.8,6.9-2.5,10.3s-3.9,6-6.7,8c-2.8,2-6.3,3.2-10.5,3.7
			c-2.6,0.3-8.9,0.5-18.8,0.5h-26.3V634.9z M710.4,647.8v17.9h10.2c6.1,0,9.9-0.1,11.3-0.3c2.7-0.3,4.8-1.2,6.3-2.8s2.3-3.5,2.3-6
			c0-2.4-0.7-4.3-2-5.8s-3.3-2.4-5.9-2.7c-1.5-0.2-6-0.3-13.3-0.3H710.4z M710.4,678.5v20.7h14.4c5.6,0,9.2-0.2,10.7-0.5
			c2.3-0.4,4.2-1.5,5.7-3.1c1.5-1.6,2.2-3.8,2.2-6.6c0-2.3-0.6-4.3-1.7-5.9c-1.1-1.6-2.8-2.8-4.9-3.5c-2.1-0.7-6.7-1.1-13.8-1.1
			H710.4z"/>
	</g>
</g>
<g>
	<polygon class="st0" points="231.6,520.9 535.6,520.9 535.6,823.2 231.6,823.2 231.6,520.9 	"/>
	<path class="st1" d="M257.3,529.8h253c9.2,0,16.8,7.6,16.8,16.8V798c0,9.3-7.6,16.8-16.8,16.8h-253c-9.3,0-16.8-7.6-16.8-16.8
		V546.6C240.5,537.4,248.1,529.8,257.3,529.8L257.3,529.8z"/>
	<polygon class="st2" points="257.8,653.2 257.8,630 349.3,630 349.3,653.2 257.8,653.2 	"/>
	<polygon class="st2" points="418.7,717.6 418.7,694.5 509.4,694.5 509.4,717.6 418.7,717.6 	"/>
	<polygon class="st2" points="364.2,797 403.8,797 403.8,546.8 364.2,546.8 364.2,797 	"/>
</g>
<g>
	<g>
		<polygon class="st3" points="382.6,113.6 574.6,305.6 383.7,496.6 191.6,304.5 382.6,113.6 		"/>
		<polygon class="st4" points="382.9,187.6 500.9,305.7 383.5,423.1 265.5,305 382.9,187.6 		"/>
		<path class="st5" d="M392.1,136.4L552,296.3c5.3,5.3,5.3,14,0,19.3L393.2,474.3c-5.3,5.3-14,5.3-19.3,0L214.1,314.5
			c-5.3-5.3-5.3-14,0-19.3l158.8-158.8C378.2,131.1,386.8,131.1,392.1,136.4L392.1,136.4z"/>
		<polygon class="st6" points="270.7,383.7 453.8,200.6 487.2,233.9 304,417.1 270.7,383.7 		"/>
	</g>
</g>
</svg>
