<?xml version="1.0" encoding="utf-8"?>
<!-- Generator: Adobe Illustrator 19.2.0, SVG Export Plug-In . SVG Version: 6.00 Build 0)  -->
<svg version="1.1" id="Livello_1" xmlns="http://www.w3.org/2000/svg" xmlns:xlink="http://www.w3.org/1999/xlink" x="0px" y="0px"
	 viewBox="0 0 1711.4 783" style="enable-background:new 0 0 1711.4 783;" xml:space="preserve">
<style type="text/css">
	.st0{fill:#1A171B;stroke:#1A171B;stroke-width:2.3465;stroke-miterlimit:2.6131;}
	.st1{fill:#1A171B;}
	.st2{fill:#070E0C;}
	.st3{fill:none;stroke:#070E0C;stroke-width:1.3995;stroke-linejoin:bevel;stroke-miterlimit:2.6131;}
</style>
<g>
	<path class="st0" d="M1215.4,373.6c-53.5,0-97.1,43.6-97.1,97.1s43.6,97.1,97.1,97.1s97.1-43.6,97.1-97.1
		C1312.5,417.2,1268.9,373.6,1215.4,373.6z M1215.4,536.3c-36.1,0-65.6-29.5-65.6-65.6s29.5-65.6,65.6-65.6s65.6,29.5,65.6,65.6
		C1281,506.9,1251.5,536.3,1215.4,536.3z"/>
	<path class="st1" d="M1568.3,373.6c-53.5,0-97.1,43.6-97.1,97.1s43.6,97.1,97.1,97.1s97.1-43.6,97.1-97.1
		C1665.4,417.2,1621.8,373.6,1568.3,373.6z M1568.3,536.3c-36.1,0-65.6-29.5-65.6-65.6s29.5-65.6,65.6-65.6s65.6,29.5,65.6,65.6
		C1633.9,506.9,1604.4,536.3,1568.3,536.3z"/>
	<path class="st0" d="M1401.4,530l-57.6-108.6c-7.6-14.6-8-25.5,8.6-36.6l70.7-31.8l-56.7-42.7l-30.9,24.2
		c-3.2,3.8-11.2,6.7-20.4,7.3l-81.5,0.3c-24.8,0.6-23.6-37.6,0-37.9l72-0.3l91.4-73.3c7.6,0,17.8,2.2,22.6,7.3l65.9,101
		c10.2,11.8,10.8,29.9-2.9,36l-94.3,39.8l50.6,94.9C1450.7,534.7,1413.8,554.5,1401.4,530L1401.4,530L1401.4,530z"/>
	<path class="st0" d="M1318.3,274.2l-2.9-20.1l39.8-32.8l-5.4-30.3l-35,6.1c-9.9,3.5-8.3-4.5-8-11.8c2.5-29.3,30.6-47.8,55.1-43
		s35.7,28,37.9,40.4c2.2,12.4,2.9,25.8-5.1,29.9L1318.3,274.2L1318.3,274.2z"/>
</g>
<g>
	<polygon class="st2" points="773.1,436.4 767.7,436.4 773.1,442.2 782.5,451.9 791.4,467.9 795.7,487.7 795.3,512.6 909.2,500.5 
		932.4,436.4 	"/>
	<polygon class="st2" points="717.9,302.3 662,236.2 652.6,224.9 357.6,225.7 256.1,327.9 282.5,327.5 364.2,245.1 482.3,245.5 
		482.7,327.1 501.8,327.9 501.8,245.9 620.7,245.9 662,320.1 665.8,327.5 717.9,327.5 739.3,327.5 	"/>
	<path class="st2" d="M773.9,474.1l-0.8-0.4l-5-10.5l-7.4-8.9l-9-7.4l-10.1-5.5l-23.7-4.2v-0.4l-11.6,0.7l-11.7,3.9l-10.5,5.5
		l-9.3,7.4l-7,8.9l-5.8,10.9l-3.5,11.3l-1.2,12.4l1.2,11.7l3.5,11.6v0.4l5.8,9.7l7,9l9.3,7l10.5,6.2l11.7,3.1l11.6,1.6l12.1-1.6
		l11.6-3.1l10.1-6.2l9-7l12.4-18.3l0.8-0.8l3.5-11.6l1.2-11.7L773.9,474.1z M747.1,509.9l-7,10.4l-9.7,6.3l-12.5,3.1l-12.8-3.1
		l-10.1-6.3l-6.6-10.4l-2-5.9l-0.7-6.2l2.7-12.4l6.6-10.5l10.1-7l12.8-2.4v0.4l12.5,2l9.7,7l7,10.5l2.3,12.4L747.1,509.9z"/>
	<polygon class="st2" points="662,437.2 250.6,437.2 245.2,437.2 250.6,442.2 261.9,451.9 271.2,471.4 275.1,492.4 273.6,513.4 
		641.7,513.7 639.4,491.6 642.1,472.1 650.7,453.9 662,441.8 665.8,436.8 	"/>
	<polygon class="st2" points="139.4,437.2 139.4,441.8 144.1,436.8 	"/>
	<polygon class="st2" points="910,347.7 773.1,348.1 717.9,348.1 662,348.1 254.1,348.1 250.6,348.5 195.4,354.7 139.4,361 
		47.3,371.1 26.7,416.9 139.4,416.9 195.4,416.9 250.6,416.9 662,416.9 717.9,416.9 773.1,416.9 932.5,416.9 	"/>
	<polygon class="st2" points="139.4,441.8 139.4,437.2 25.9,437.2 47.3,502.9 116.9,513.4 116.5,488.5 121.2,468.3 130.5,451.5 	"/>
	<path class="st2" d="M251.8,474.1l-1.2-1.2l-12.4-18.6l-8.9-7.4l-10.1-5.5l-23.4-4.6l-0.4,0.4l-11.6,0.3l-11.7,3.9l-10.5,5.5
		l-9.3,7.4l-7.4,8.9l-5.5,10.9l-3.8,11.3l-1.6,12.4l1.6,11.7l3.8,11.6v0.4l5.5,9.7l7.4,9l9.3,7l10.5,6.2l11.7,3.1l11.6,1.6h0.4
		l12.1-1.6l11.3-3.1l10.1-6.2l8.9-7l12.4-17.5l1.2-1.6l3.1-11.6l1.6-11.7L251.8,474.1z M225,509.9l-7,10.4l-9.7,6.3l-12.5,3.1h-0.4
		l-6.2-1.2l-6.2-1.9l-10.5-6.3l-6.6-10.4l-2-5.9l-0.7-6.2l2.7-12.4l6.6-10.5l10.5-7l12.4-2l0.4-0.4l12.5,2.4l9.7,7l7,10.5l2.3,12.4
		L225,509.9z"/>
	<path class="st3" d="M195.8,436.8l-12,0.8l-11.7,3.9l-10.5,5.4l-9.3,7.4l-7.4,8.9l-5.4,10.9l-3.9,11.3l-1.6,12.4l1.6,11.7l3.9,11.7
		l5.4,10.1l7.4,8.9l9.3,7l10.5,6.2l11.7,3.1l12,1.6l12.1-1.6l11.3-3.1l10.1-6.2l8.9-7l13.6-19.1l3.1-11.7l1.6-11.7l-4.7-23.7
		l-13.6-19.8l-8.9-7.4l-10.1-5.4L195.8,436.8L195.8,436.8z M717.9,436.8l-11.7,0.8l-11.7,3.9l-10.5,5.4l-9.3,7.4l-7,8.9l-5.8,10.9
		l-3.5,11.3l-1.2,12.4l1.2,11.7l3.5,11.7l5.8,10.1l7,8.9l9.3,7l10.5,6.2l11.7,3.1l11.7,1.6l12.1-1.6l11.7-3.1l10.1-6.2l8.9-7
		l13.2-19.1l3.5-11.7l1.2-11.7l-4.7-23.7l-5.8-10.9l-7.4-8.9l-8.9-7.4l-10.1-5.4L717.9,436.8L717.9,436.8z M116.9,513.4l-0.4-24.9
		l4.7-20.2l9.3-16.7l13.6-14.8l-118.2,0.4l21.4,65.7L116.9,513.4L116.9,513.4z M641.7,513.7l-2.3-22.2l2.7-19.4l8.5-18.3l15.2-17.1
		l-420.6,0.4l16.7,14.8l9.3,19.4l3.9,21l-1.6,21L641.7,513.7L641.7,513.7z M932.5,416.9L910,347.7l-655.8,0.4l-206.9,23L26.7,417
		h905.8V416.9z M282.5,327.5l81.6-82.4l118.2,0.4l0.4,81.6l19,0.8v-82h119l45.1,81.6h73.5l-86.7-102.6l-295.1,0.8L256.1,327.9
		L282.5,327.5L282.5,327.5z M717.9,465.5l-12.8,2.3l-10.1,7l-6.6,10.5l-2.7,12.4l0.8,6.2l1.9,5.8l6.6,10.5l10.1,6.2l12.8,3.1
		l12.4-3.1l9.7-6.2l7-10.5l2.3-12.1l-2.3-12.4l-7-10.5l-9.7-7L717.9,465.5L717.9,465.5z M195.8,465.5l-12.8,2.3l-10.5,7l-6.6,10.5
		l-2.7,12.4l0.8,6.2l1.9,5.8l6.6,10.5l10.5,6.2l6.2,1.9l6.6,1.2l12.4-3.1l9.7-6.2l7-10.5l2.3-12.1l-2.3-12.4l-7-10.5l-9.7-7
		L195.8,465.5L195.8,465.5z"/>
</g>
</svg>
