<?xml version="1.0" encoding="utf-8"?>
<!-- Generator: Adobe Illustrator 19.2.0, SVG Export Plug-In . SVG Version: 6.00 Build 0)  -->
<svg version="1.1" id="Livello_1" xmlns="http://www.w3.org/2000/svg" xmlns:xlink="http://www.w3.org/1999/xlink" x="0px" y="0px"
	 viewBox="0 0 2429.4 783" style="enable-background:new 0 0 2429.4 783;" xml:space="preserve">
<style type="text/css">
	.st0{display:none;}
	.st1{display:inline;}
	.st2{fill:#1A171B;stroke:#1A171B;stroke-width:2.5033;stroke-miterlimit:2.6131;}
	.st3{fill:#1A171B;}
	.st4{fill:#070E0C;}
	.st5{fill:none;stroke:#070E0C;stroke-width:1.3995;stroke-linejoin:bevel;stroke-miterlimit:2.6131;}
	.st6{display:inline;fill:#070E0C;}
	.st7{fill:none;stroke:#070E0C;stroke-width:1.749905e-003;stroke-linejoin:bevel;stroke-miterlimit:2.6131;}
	.st8{display:inline;fill:#070E0C;stroke:#070E0C;stroke-width:1.724532e-003;stroke-linejoin:bevel;stroke-miterlimit:2.6131;}
	.st9{display:inline;fill:none;stroke:#070E0C;stroke-width:1.724532e-003;stroke-linejoin:bevel;stroke-miterlimit:2.6131;}
	.st10{display:inline;fill:#070E0C;stroke:#070E0C;stroke-width:2.030860e-003;stroke-linejoin:bevel;stroke-miterlimit:2.6131;}
	.st11{display:inline;fill:none;stroke:#070E0C;stroke-width:1.866909e-003;stroke-linejoin:bevel;stroke-miterlimit:2.6131;}
	.st12{fill:none;stroke:#070E0C;stroke-width:1.066506e-003;stroke-linejoin:bevel;stroke-miterlimit:2.6131;}
	.st13{fill:#070E0C;stroke:#070E0C;stroke-width:1.066506e-003;stroke-linejoin:bevel;stroke-miterlimit:2.6131;}
	.st14{fill:none;stroke:#070E0C;stroke-width:1.083614e-003;stroke-linejoin:bevel;stroke-miterlimit:2.6131;}
</style>
<g id="Livello_1_1_" class="st0">
	<g class="st1">
		<path class="st2" d="M1385.5,411.6c-57.1,0-103.6,46.5-103.6,103.6s46.6,103.6,103.6,103.6c57.1,0,103.6-46.6,103.6-103.6
			C1489.1,458.1,1442.6,411.6,1385.5,411.6z M1385.5,585.2c-38.5,0-70-31.4-70-70c0-38.5,31.4-70,70-70c38.5,0,70,31.4,70,70
			S1424,585.2,1385.5,585.2z"/>
		<path class="st3" d="M1761.9,411.6c-57.1,0-103.6,46.5-103.6,103.6s46.5,103.6,103.6,103.6s103.6-46.6,103.6-103.6
			C1865.6,458.1,1819,411.6,1761.9,411.6z M1761.9,585.2c-38.5,0-70-31.4-70-70c0-38.5,31.4-70,70-70s70,31.4,70,70
			S1800.5,585.2,1761.9,585.2z"/>
		<path class="st2" d="M1583.9,578.4l-61.5-115.9c-8.2-15.6-8.5-27.2,9.2-39.1l75.4-34l-60.5-45.4l-33,25.8
			c-3.4,4.1-11.9,7.1-21.7,7.8l-87,0.3c-26.5,0.7-25.1-40.1,0-40.4l76.8-0.3l97.5-78.1c8.2,0,19,2.4,24.1,7.8l70.3,107.7
			c10.9,12.6,11.5,31.9-3.1,38.4L1570,455.4l54,101.2C1636.6,583.5,1597.2,604.6,1583.9,578.4L1583.9,578.4L1583.9,578.4z"/>
		<path class="st2" d="M1495.2,305.6l-3.1-21.4l42.5-35l-5.8-32.3l-37.4,6.5c-10.5,3.7-8.8-4.8-8.5-12.6c2.7-31.3,32.6-51,58.8-45.9
			c26.2,5.1,38.1,29.9,40.4,43.2c2.4,13.2,3.1,27.5-5.4,31.9L1495.2,305.6L1495.2,305.6z"/>
	</g>
	<g class="st1">
		<polygon class="st4" points="2026.9,436.4 1867.6,436.4 1867.6,442.2 1876.9,451.9 1885.9,467.9 1890.2,487.7 1889.8,512.6 
			2003.7,500.5 		"/>
		<polygon class="st4" points="1867.6,473.7 1867.6,521.9 1868.4,521.1 1871.9,509.5 1873.1,497.8 1868.4,474.1 		"/>
		<polygon class="st4" points="1867.6,348.1 1867.6,416.9 2027,416.9 2004.5,347.7 		"/>
		<polygon class="st4" points="1867.6,416.9 1867.6,348.1 1812.4,348.1 1812.4,416.9 		"/>
		<polygon class="st4" points="1867.6,442.2 1867.6,436.4 1862.2,436.4 		"/>
		<polygon class="st4" points="1867.6,521.9 1867.6,473.7 1862.6,463.2 1855.2,454.3 1846.2,446.9 1836.1,441.4 1812.4,437.2 
			1812.4,465.9 1824.8,467.9 1834.6,474.9 1841.6,485.4 1843.9,497.8 1841.6,509.9 1834.6,520.3 1824.8,526.6 1812.4,529.7 
			1812.4,558.1 1824.5,556.5 1836.1,553.4 1846.2,547.2 1855.2,540.2 		"/>
		<polygon class="st4" points="1812.4,302.3 1812.4,327.5 1833.8,327.5 		"/>
		<polygon class="st4" points="1812.4,327.5 1812.4,302.3 1756.4,236.2 1756.4,320.1 1760.3,327.5 		"/>
		<polygon class="st4" points="1812.4,416.9 1812.4,348.1 1756.4,348.1 1756.4,416.9 		"/>
		<polygon class="st4" points="1812.4,465.9 1812.4,437.2 1812.4,436.8 1800.7,437.5 1789.1,441.4 1778.6,446.9 1769.3,454.3 
			1762.3,463.2 1756.4,474.1 1756.4,521.5 1762.3,531.2 1769.3,540.2 1778.6,547.2 1789.1,553.4 1800.7,556.5 1812.4,558.1 
			1812.4,529.7 1799.6,526.6 1789.5,520.3 1782.9,509.9 1780.9,504 1780.1,497.8 1782.9,485.4 1789.5,474.9 1799.6,467.9 
			1812.4,465.5 		"/>
		<polygon class="st4" points="1756.4,437.2 1756.4,441.8 1760.3,436.8 		"/>
		<polygon class="st4" points="1756.4,320.1 1756.4,236.2 1747.1,224.9 1452,225.7 1350.6,327.9 1377,327.5 1458.6,245.1 
			1576.8,245.5 1577.2,327.1 1596.3,327.9 1596.3,245.9 1715.2,245.9 		"/>
		<polygon class="st4" points="1756.4,416.9 1756.4,348.1 1348.6,348.1 1345.1,348.5 1345.1,416.9 		"/>
		<polygon class="st4" points="1756.4,441.8 1756.4,437.2 1345.1,437.2 1345.1,442.2 1356.4,451.9 1365.7,471.4 1369.6,492.4 
			1368.1,513.4 1736.2,513.7 1733.9,491.6 1736.6,472.1 1745.2,453.9 		"/>
		<polygon class="st4" points="1756.4,521.5 1756.4,474.1 1752.9,485.4 1751.8,497.8 1752.9,509.5 1756.4,521.1 		"/>
		<polygon class="st4" points="1345.1,472.9 1345.1,522.7 1346.3,521.1 1349.4,509.5 1351,497.8 1346.3,474.1 		"/>
		<polygon class="st4" points="1345.1,416.9 1345.1,348.5 1289.9,354.7 1289.9,416.9 		"/>
		<polygon class="st4" points="1345.1,442.2 1345.1,437.2 1339.7,437.2 		"/>
		<polygon class="st4" points="1345.1,522.7 1345.1,472.9 1332.7,454.3 1323.7,446.9 1313.6,441.4 1290.3,436.8 1289.9,437.2 
			1289.9,465.9 1290.3,465.5 1302.7,467.9 1312.5,474.9 1319.5,485.4 1321.8,497.8 1319.5,509.9 1312.5,520.3 1302.7,526.6 
			1290.3,529.7 1289.9,529.7 1289.9,558.1 1290.3,558.1 1302.4,556.5 1313.6,553.4 1323.7,547.2 1332.7,540.2 		"/>
		<polygon class="st4" points="1289.9,416.9 1289.9,354.7 1233.9,361 1233.9,416.9 		"/>
		<polygon class="st4" points="1289.9,465.9 1289.9,437.2 1278.3,437.5 1266.6,441.4 1256.1,446.9 1246.8,454.3 1239.4,463.2 
			1233.9,474.1 1233.9,521.5 1239.4,531.2 1246.8,540.2 1256.1,547.2 1266.6,553.4 1278.3,556.5 1289.9,558.1 1289.9,529.7 
			1283.7,528.5 1277.5,526.6 1267,520.3 1260.4,509.9 1258.4,504 1257.6,497.8 1260.4,485.4 1267,474.9 1277.5,467.9 		"/>
		<polygon class="st4" points="1233.9,437.2 1233.9,441.8 1238.6,436.8 		"/>
		<polygon class="st4" points="1233.9,416.9 1233.9,361 1141.8,371.1 1121.2,416.9 		"/>
		<polygon class="st4" points="1233.9,441.8 1233.9,437.2 1120.4,437.2 1141.8,502.9 1211.4,513.4 1211,488.5 1215.7,468.3 
			1225,451.5 		"/>
		<polygon class="st4" points="1233.9,521.5 1233.9,474.1 1230.1,485.4 1228.5,497.8 1230.1,509.5 1233.9,521.1 		"/>
		<path class="st5" d="M1290.3,436.8l-12,0.8l-11.7,3.9l-10.5,5.4l-9.3,7.4l-7.4,8.9l-5.4,10.9l-3.9,11.3l-1.6,12.4l1.6,11.7
			l3.9,11.7l5.4,10.1l7.4,8.9l9.3,7l10.5,6.2l11.7,3.1l12,1.6l12.1-1.6l11.3-3.1l10.1-6.2l8.9-7l13.6-19.1l3.1-11.7l1.6-11.7
			l-4.7-23.7l-13.6-19.8l-8.9-7.4l-10.1-5.4L1290.3,436.8L1290.3,436.8z M1812.4,436.8l-11.7,0.8l-11.7,3.9l-10.5,5.4l-9.3,7.4
			l-7,8.9l-5.8,10.9l-3.5,11.3l-1.2,12.4l1.2,11.7l3.5,11.7l5.8,10.1l7,8.9l9.3,7l10.5,6.2l11.7,3.1l11.7,1.6l12.1-1.6l11.7-3.1
			l10.1-6.2l8.9-7l13.2-19.1l3.5-11.7l1.2-11.7l-4.7-23.7l-5.8-10.9l-7.4-8.9l-8.9-7.4l-10.1-5.4L1812.4,436.8L1812.4,436.8z
			 M1211.4,513.4l-0.4-24.9l4.7-20.2l9.3-16.7l13.6-14.8l-118.2,0.4l21.4,65.7L1211.4,513.4L1211.4,513.4z M1736.2,513.7l-2.3-22.2
			l2.7-19.4l8.5-18.3l15.2-17.1l-420.6,0.4l16.7,14.8l9.3,19.4l3.9,21l-1.6,21L1736.2,513.7L1736.2,513.7z M2027,416.9l-22.5-69.2
			l-655.8,0.4L1141.9,371l-20.6,45.9H2027L2027,416.9z M1377,327.5l81.6-82.4l118.2,0.4l0.4,81.6l19,0.8v-82h119l45.1,81.6h73.5
			l-86.7-102.6l-295.1,0.8l-101.4,102.2L1377,327.5L1377,327.5z M1812.4,465.5l-12.8,2.3l-10.1,7l-6.6,10.5l-2.7,12.4l0.8,6.2
			l1.9,5.8l6.6,10.5l10.1,6.2l12.8,3.1l12.4-3.1l9.7-6.2l7-10.5l2.3-12.1l-2.3-12.4l-7-10.5l-9.7-7L1812.4,465.5L1812.4,465.5z
			 M1290.3,465.5l-12.8,2.3l-10.5,7l-6.6,10.5l-2.7,12.4l0.8,6.2l1.9,5.8l6.6,10.5l10.5,6.2l6.2,1.9l6.6,1.2l12.4-3.1l9.7-6.2
			l7-10.5l2.3-12.1l-2.3-12.4l-7-10.5l-9.7-7L1290.3,465.5L1290.3,465.5z"/>
	</g>
</g>
<g id="Livello_2">
	<g class="st0">
		<polygon class="st6" points="1741,552 1741,660.8 1745.9,662 1777.4,665.3 1808.9,662 1838.6,652.6 1865.2,638.4 1888.8,618.8 
			1908,595.5 1922.6,568.9 1931.6,539.6 1934.6,508.1 1931.6,476.6 1922.6,447 1908,420.3 1888.8,396.7 1865.2,377.6 1838.6,362.9 
			1808.9,353.9 1777.4,350.9 1761.6,351.6 1745.9,353.9 1741,355.5 1741,464.3 1745.5,460.5 1755.3,455.2 1766.1,451.9 
			1777.4,450.7 1789.1,451.9 1799.9,455.2 1810,460.5 1817.9,467.6 1825.1,475.5 1830.3,485.6 1833.6,496.5 1834.8,508.1 
			1830.3,530.3 1825.1,540 1817.9,548.6 1799.9,560.7 1777.4,565.2 1766.1,564 1755.3,560.7 1745.5,555.4 		"/>
		<polygon class="st6" points="1741,167 1741,331.4 1745.9,330.2 1753.8,326.5 1759,319.3 1761.6,307.8 1761.3,191.1 1759.4,182.9 
			1756,176 1750.4,171.2 1743.6,167.8 		"/>
		<polygon class="st6" points="1741,91.6 1741,141.2 1748.1,130.3 1750.7,116.4 1748.1,101.7 		"/>
		<polygon class="st6" points="1741,141.2 1741,91.6 1740.7,90.5 1735,85.6 1729,82.6 1714.7,80 1707.6,80.4 1700.9,82.6 
			1691.1,89.8 1691.1,143 1700.9,149.1 1714.7,152.1 1729,149.1 1740.7,141.5 		"/>
		<polygon class="st6" points="1741,331.4 1741,167 1736.5,166 1729,166 1721.5,167.8 1713.9,171.2 1691.1,184.7 1691.1,281.8 
			1697.5,296.5 1691.1,298.4 1691.1,343.8 1734.7,332.9 		"/>
		<polygon class="st6" points="1741,464.3 1741,355.5 1731.2,357.7 1716.6,362.9 1691.1,377.2 1691.1,639.1 1716.6,652.6 
			1741,660.8 1741,552 1736.9,548.6 1730.1,540 1724.8,530.3 1721.5,519.4 1720.3,508.1 1721.5,496.5 1724.8,485.6 1730.1,475.5 
			1736.9,467.6 		"/>
		<polygon class="st6" points="1691.1,143 1691.1,89.8 1689.6,90.5 1681.8,101.7 1679.8,108.5 1678.7,116.4 1681.8,130.3 
			1689.6,141.5 		"/>
		<polygon class="st6" points="1691.1,281.8 1691.1,184.7 1580.8,249.2 1576.3,254.1 1574,260.9 1576.7,274.8 1587.2,283.8 
			1593.9,285.2 1601.1,283 1674.2,242.8 		"/>
		<polygon class="st6" points="1691.1,343.8 1691.1,298.4 1610.8,319.8 1603.6,324.7 1599.1,329.9 1593.2,343.4 1569.5,446.2 
			1569.5,489.7 1572.1,491.9 1579.3,495 1587.2,495 1594.7,492.7 1600.6,486.7 1604.1,478.5 1633.3,357.7 		"/>
		<polygon class="st6" points="1691.1,639.1 1691.1,377.2 1689.6,377.6 1666.4,396.7 1656.2,407.9 1647.2,420.3 1639.3,433.5 
			1632.6,447 1626.9,461.3 1623.2,476.6 1621,491.9 1619.8,508.1 1623.2,539.6 1632.6,568.9 1639.3,582.8 1647.2,595.5 
			1656.2,607.6 1666.4,618.8 1689.6,638.4 		"/>
		<polygon class="st6" points="1569.5,294.7 1569.5,312.6 1573.6,308.5 1575.1,303.6 1573.6,298.4 		"/>
		<polygon class="st6" points="1569.5,312.6 1569.5,294.7 1516.6,242.1 1511.4,239.1 1505.3,242.1 1502.3,245.5 1499.8,251 
			1502.3,256.4 1523.4,278.1 1492.6,308.5 1486.6,286.3 1354.5,286.3 1354.5,455.2 1536.1,455.2 1498.6,329.2 1537.6,292 
			1558.6,312.6 1563.9,314.5 		"/>
		<polygon class="st6" points="1569.5,489.7 1569.5,446.2 1563.9,469.8 1563.6,478.9 1566.1,486.4 		"/>
		<polygon class="st6" points="1354.5,515.2 1354.5,625.5 1356.8,623 1365.4,606.8 1371.4,589.2 1373.3,570.1 1371.4,550.9 
			1365.4,533.3 1356.8,517.5 		"/>
		<polygon class="st6" points="1354.5,474.3 1354.5,488.2 1356,489 1371.8,508.1 1551.2,507.8 1541.3,474.3 		"/>
		<polygon class="st6" points="1354.5,455.2 1354.5,286.3 1278.7,286.3 1278.7,455.2 		"/>
		<polygon class="st6" points="1354.5,488.2 1354.5,474.3 1335.8,474.3 1346.6,481.2 		"/>
		<polygon class="st6" points="1354.5,625.5 1354.5,515.2 1345.1,503.6 1331.2,491.9 1315.5,483.4 1297.9,477.7 1278.7,476.6 
			1278.7,529.5 1294.9,532.6 1302,535.9 1308,541.5 1317,554.3 1320,570.1 1317,585.8 1308,599.3 1294.9,608.3 1278.7,611.6 
			1278.7,664.6 1297.9,663.1 1315.5,657.1 1331.2,648.1 1345.1,636.9 		"/>
		<polygon class="st6" points="1278.7,455.2 1278.7,286.3 1184.9,286.3 1234.8,455.2 		"/>
		<polygon class="st6" points="1278.7,529.5 1278.7,476.6 1278.7,476.2 1259.6,477.7 1242,483.4 1225.8,491.9 1211.9,503.6 
			1200.7,517.5 1191.6,533.3 1185.6,550.9 1184.1,570.1 1185.6,589.2 1191.6,606.8 1200.7,623 1211.9,636.9 1225.8,648.1 
			1242,657.1 1259.6,663.1 1278.7,664.6 1278.7,611.6 1263,608.3 1249.4,599.3 1244.2,593.3 1240.8,585.8 1237.1,570.1 
			1238.2,561.7 1240.8,554.3 1244.2,547.1 1249.4,541.5 1255.4,535.9 1263,532.6 1270.5,530.3 1278.7,529.1 		"/>
		<g class="st1">
			<path class="st7" d="M1371.8,508.1L1356,489l-9.4-7.9l-10.9-6.7h205.6l9.7,33.3L1371.8,508.1L1371.8,508.1z M1593.2,343.4l6-13.5
				l4.5-5.2l7.2-4.9l86.7-23.3l-23.3-53.7L1601,283l-7.2,2.2l-6.7-1.5l-10.5-9l-2.7-13.9l2.2-6.7l4.5-4.9l133.2-78l7.5-3.4l7.5-1.9
				h7.5l7.2,1.9l6.7,3.4l5.7,4.9l3.4,6.7l1.8,8.2l0.4,116.7l-2.7,11.6l-5.2,7.2l-7.9,3.7l-11.2,2.7l-101.3,24.8l-29.3,120.8
				l-3.4,8.2l-6,6l-7.5,2.2h-7.9l-7.2-3l-6-5.7l-2.7-7.5l0.4-9L1593.2,343.4L1593.2,343.4z M1492.6,308.5l30.8-30.5l-21.1-21.8
				l-2.7-5.2l2.7-5.7l3-3.4l6-3l5.2,3l57.1,56.4l1.5,5.2l-1.5,4.9l-4.2,4.2l-5.7,1.9l-5.2-1.9l-21.1-20.6l-39,37.2l37.5,126.1
				h-301.2l-49.9-168.9h301.7L1492.6,308.5L1492.6,308.5z M1777.4,350.9l31.5,3l29.6,9l26.6,14.6l23.6,19.1l19.1,23.6l14.6,26.6
				l9,29.6l3,31.5l-3,31.5l-9,29.3l-14.6,26.6l-19.1,23.3l-23.6,19.6l-26.6,14.2l-29.6,9.4l-31.5,3.4l-31.5-3.4l-29.3-9.4l-27-14.2
				l-23.3-19.6l-10.2-11.2l-9-12l-7.9-12.7l-6.7-13.9l-9.4-29.3l-3.4-31.5l1.2-16.1l2.2-15.4l3.7-15.4l5.7-14.2l6.7-13.5l7.9-13.1
				l9-12.4l10.2-11.2l23.3-19.1l27-14.6l14.6-5.2l14.6-3.7l15.7-2.2L1777.4,350.9L1777.4,350.9z M1777.4,450.7l11.6,1.2l10.9,3.4
				l10.2,5.2l7.9,7.2l7.2,7.9l5.2,10.2l3.4,10.9l1.2,11.6l-4.5,22.1l-5.2,9.7l-7.2,8.7l-18.1,12l-22.6,4.5l-11.2-1.2l-10.9-3.4
				l-9.7-5.2l-8.7-6.7l-6.7-8.7l-5.2-9.7l-3.4-10.9l-1.2-11.2l1.2-11.6l3.4-10.9l5.2-10.2l6.7-7.9l8.7-7.2l9.7-5.2l10.9-3.4
				L1777.4,450.7L1777.4,450.7z M1278.7,476.2l19.1,1.5l17.6,5.7l15.7,8.7l13.9,11.6l11.6,13.9l8.7,15.7l6,17.6l1.9,19.1l-1.9,19.1
				l-6,17.6l-8.7,16.1l-11.6,13.9l-13.9,11.2l-15.7,9l-17.6,6l-19.1,1.5l-19.1-1.5l-17.6-6l-16.1-9l-13.9-11.2l-11.2-13.9l-9-16.1
				l-6-17.6l-1.5-19.1l1.5-19.1l6-17.6l9-15.7l11.2-13.9l13.9-11.6l16.1-8.7l17.6-5.7L1278.7,476.2L1278.7,476.2z M1278.7,529.1
				l16.1,3.4l7.2,3.4l6,5.7l9,12.7l3,15.7l-3,15.7l-9,13.5l-13.1,9l-16.1,3.4l-15.7-3.4l-13.5-9l-5.2-6l-3.4-7.5l-3.7-15.7l1.2-8.2
				l2.7-7.5l3.4-7.2l5.2-5.7l6-5.7l7.5-3.4l7.5-2.2L1278.7,529.1L1278.7,529.1z M1714.7,80l14.2,2.7l6,3l5.7,4.9l7.5,11.2l2.7,14.6
				l-2.7,13.9l-7.5,11.2L1729,149l-14.2,3l-13.9-3l-11.2-7.5l-7.9-11.2l-3-13.9l1.2-7.9l1.9-6.7l7.9-11.2l11.2-7.9l6.7-2.2
				L1714.7,80L1714.7,80z"/>
		</g>
	</g>
	<g class="st0">
		<polygon class="st8" points="1154.6,357.7 1123.2,366.2 1092.1,367.6 889.6,367.6 1118.4,133.3 1172.8,186.3 1194.3,209.9 
			1207.2,232.1 1212.5,254.4 1210.2,276.9 1186.2,252.5 1169.8,247 1153.9,248.5 1146.5,250.6 1139.2,254.7 1127.3,264.7 
			1118.7,278.1 1114.4,294.3 1115.4,310.7 1123.2,326.9 		"/>
		<polygon class="st6" points="1581.6,390.3 1378.3,389.9 1447.9,343.3 1581.6,343.3 		"/>
		<polygon class="st6" points="1762.7,389.9 1621.3,390.3 1610.2,388.1 1601.6,382.5 1597.2,375.1 1595.3,366.6 1597.2,357.7 
			1601.6,350.2 1610.2,344.7 1621.3,343.3 1698.7,343.3 1692.7,287.7 1696.4,271.4 1705.7,260.2 1719,253.6 1734.1,252.1 
			1749.4,254.4 1761.9,261.4 1767.5,266.2 1771.5,272.5 1774.2,279.2 1775,287.7 		"/>
		<polygon class="st6" points="1783.4,343.3 1873.8,343.3 1937.5,389.9 1776.4,390.3 		"/>
		<path class="st9" d="M1581.6,390.3l-203.3-0.3l69.6-46.7h133.7L1581.6,390.3L1581.6,390.3z M1762.7,389.9l-141.5,0.3l-11.1-2.2
			l-8.6-5.6l-4.5-7.4l-1.8-8.6l1.8-8.9l4.5-7.4l8.6-5.6l11.1-1.5h77.4l-5.9-55.6l3.7-16.2l9.3-11.1l13.4-6.6l15.2-1.5l15.2,2.2
			l12.6,7.1l5.6,4.8l4.1,6.3l2.6,6.6l0.7,8.6L1762.7,389.9L1762.7,389.9z M1783.4,343.3h90.3l63.7,46.7l-161.1,0.3L1783.4,343.3
			L1783.4,343.3z"/>
		<polygon class="st8" points="1183.2,275.8 1403.6,495.8 1410.2,505.4 1412.4,516.5 1410.2,527.6 1403.6,537.3 1394.3,543.6 
			1383.2,545.8 1372,543.6 1362,537.3 1142,317.3 1136.2,307.7 1133.9,296.6 1136.2,285.5 1142,275.8 1152.1,269.2 1162.8,267 
			1173.9,269.2 		"/>
		<polygon class="st8" points="1938.6,491 1947.9,492.8 1955.3,498 1960.8,505.8 1962.6,515 1960.8,524.3 1955.3,532.5 
			1947.9,537.6 1938.6,539.5 1929.3,537.6 1921.2,532.5 1916,524.3 1914.1,515 1916,505.8 1921.2,498 1929.3,492.8 		"/>
		<polygon class="st6" points="1938.3,575 1938.3,612.1 1938.6,612.1 1958.3,610.3 1976,604.3 1992.2,595.1 2006.3,583.5 
			2018.2,568.8 2027.1,552.4 2032.6,534.3 2034.5,515 2032.6,495.5 2027.1,477.6 2018.2,461.7 2006.3,447.7 1992.2,435.4 
			1976,426.5 1958.3,421 1938.6,419.2 1938.3,419.2 1938.3,456.9 1938.6,456.6 1950.5,457.6 1961.6,461 1971.9,466.5 1980.5,473.6 
			1987.4,482.1 1993,492.1 1996.3,503.2 1997.5,515 1996.3,526.9 1993,538 1987.4,548.4 1980.5,557.7 1971.9,564.6 1961.6,570.2 
			1950.5,573.6 1938.6,575 		"/>
		<polygon class="st6" points="1938.3,456.9 1938.3,419.2 1379.4,419.2 1369.5,419.2 1359.4,420.2 1392.4,454.6 1401.6,457.6 
			1410.2,462.4 1418.3,468.8 1424.9,476.9 1435,494.7 1437.6,504.3 1438.7,515 1437.2,526.9 1434.2,538 1421.3,557.7 1412.4,564.6 
			1402.1,570.2 1379.4,575 1359.4,571.4 1342,561.3 1329.5,546.1 1321.3,527.6 1285.4,492.1 1283.2,514.7 1285,534.3 1290.6,552.4 
			1299.5,568.8 1310.9,583.2 1325.3,595.1 1341.7,604 1359.9,609.8 1379.4,611.3 1938.3,612.1 1938.3,575 1915.3,570.2 
			1905.2,564.6 1896.4,557.7 1889.3,548.4 1883.8,538 1879,515 1880.4,503.2 1883.8,492.1 1889.3,482.1 1896.4,473.6 1905.2,466.5 
			1915.3,461 1926.4,457.6 		"/>
		<path class="st9" d="M1392.4,454.6l-32.9-34.4l10-1.1h10h559.2l19.7,1.8l17.7,5.6l16.2,8.9l14.1,12.2l11.9,14.1l8.9,15.9l5.6,17.7
			l1.8,19.7l-1.8,19.2l-5.6,18.2l-9.1,16.4l-11.9,14.9l-14.1,11.4l-16.2,9.3l-17.7,5.9l-19.7,1.8l-559.2-0.7l-19.7-1.5l-18.2-5.9
			l-16.2-8.9l-14.4-11.9l-11.4-14.4l-8.9-16.2l-5.6-18.2l-1.8-19.7l2.2-22.6l35.9,35.6l8.1,18.5l12.6,15.2l17.4,10l20,3.7l22.6-4.8
			l10.4-5.6l8.9-7.1l12.9-19.7l3-11.1l1.5-11.9l-1.1-10.7l-2.6-9.6l-10-17.7l-6.6-8.1l-8.1-6.3l-8.6-4.8L1392.4,454.6L1392.4,454.6z
			 M1938.6,456.6l11.9,1.1l11.1,3.3l10.4,5.6l8.6,7.1l7.1,8.6l5.6,9.9l3.3,11.1l1.1,11.9l-1.1,11.9l-3.3,11.1l-5.6,10.4l-7.1,9.3
			l-8.6,7.1l-10.4,5.6l-11.1,3.3l-11.9,1.5l-23.3-4.8l-10-5.6l-8.9-7.1l-7.1-9.3l-5.6-10.4l-4.8-23l1.5-11.9l3.3-11.1l5.6-9.9
			l7.1-8.6l8.9-7.1l10-5.6l11.1-3.3L1938.6,456.6L1938.6,456.6z"/>
		<polygon class="st8" points="1732.7,178 1739.4,178.8 1745.7,181 1750.8,183.6 1755.3,187.7 1759.4,192.2 1761.9,197.7 
			1764.2,203.6 1764.9,210.3 1761.9,222.2 1759.4,227.7 1755.3,232.6 1745.7,239.2 1732.7,241.7 1720.5,239.2 1710.5,232.6 
			1703.8,222.2 1701.2,210.3 1703.8,197.7 1710.5,187.7 1720.5,181 		"/>
	</g>
	<g class="st0">
		<polygon class="st10" points="1584.2,499.9 1590.3,486.3 1593,471.5 1590.7,457.5 1585.5,444.9 1795.8,444.9 1806.7,447.2 
			1814.6,453.3 1818.9,462.3 1820.2,472 1818.9,482.4 1814.6,491.5 1806.7,497.2 1795.8,499.9 		"/>
		<polygon class="st10" points="1485.8,426.2 1422.2,322.1 1448.8,266.4 1514.5,377.5 1635.2,377.9 1634.7,296.5 1636.4,289.9 
			1640,284.7 1645.2,282.1 1652.6,280.8 1862.5,280.3 1862.1,322.5 1819.7,322.5 1783.2,325.2 1752.7,330.5 1726.5,339.5 
			1715.3,345.2 1704.8,353.1 1685.7,371.4 1668.3,395.3 1650.9,426.2 1572,426.2 1564.6,419.3 1555.9,415.3 1545.9,412.8 
			1535.5,411.5 1515.8,415.3 1507.1,419.3 1500.6,426.2 		"/>
		<polygon class="st10" points="1351.6,291.7 1341.7,228.9 1405.3,228.1 1373.9,291.7 		"/>
		<polygon class="st10" points="1714.4,425.8 1681.8,425.8 1700,394.9 1712.2,381.9 1726.1,371 1741.8,361.8 1758.8,355.3 
			1777.1,350.9 1795.8,349.2 1820.7,351.3 1843.8,358.8 1864.6,370.1 1882.5,385.3 1897.8,403.6 1909.1,424.5 1916.5,447.6 
			1919,472.8 1916.5,497.2 1909.1,520.3 1897.8,541.2 1882.5,559.5 1864.6,573.8 1843.8,585.6 1820.7,593.1 1795.8,595.6 
			1758.8,589.5 1741.4,583 1725.7,573.8 1699.6,549.4 1680.9,518.6 1712.7,518.6 1727.9,538.1 1747.1,553.8 1770.2,563.4 
			1795.8,567.3 1815,565.2 1832.5,559.5 1848.5,551.2 1862.1,539.5 1874.2,525.5 1882.5,509.4 1887.7,491.5 1889.9,472.8 
			1887.7,453.3 1882.5,436.3 1874.2,419.7 1862.1,405.8 1848.5,393.6 1832.5,385.3 1815,380 1795.8,377.9 1770.6,381.9 
			1759.3,385.7 1748.3,391.8 1728.8,406.2 		"/>
		<polygon class="st10" points="1385.6,403.1 1398.2,375.2 1417.9,394.5 1433.1,418 1443.1,444.1 1445.8,458.1 1446.2,472.8 
			1443.5,497.2 1436.2,520.3 1424.8,541.2 1409.5,559.5 1391.7,573.8 1370.9,585.6 1347.8,593.1 1323,595.6 1298.1,593.1 
			1274.6,585.6 1253.7,573.8 1235.4,559.5 1221,541.2 1209.3,520.3 1202.3,497.2 1199.8,472.8 1202.3,447.6 1209.3,424.5 
			1221,403.6 1235.4,385.3 1253.7,370.1 1274.6,358.8 1298.1,351.3 1323,349.2 1346.5,351.7 1333.8,379.2 1323,377.9 1304.2,380 
			1286.3,385.3 1270.2,393.6 1255.9,405.8 1244.5,419.7 1235.4,436.3 1230.2,453.3 1228.4,472.8 1230.2,491.5 1235.4,509.4 
			1244.5,525.5 1255.9,539.5 1270.2,551.2 1286.3,559.5 1304.2,565.2 1323,567.3 1341.7,565.2 1359.5,559.5 1375.1,551.2 
			1389.1,539.5 1401.3,525.5 1409.5,509.4 1414.8,491.5 1417,472.8 1414.8,452.4 1408.7,434 1398.6,417.1 		"/>
		<polygon class="st10" points="1320.7,449.7 1444.4,180.2 1451.9,168.4 1461,160.2 1472.3,153.3 1484.9,149.7 1542.4,149.7 
			1542.4,171.5 1485.8,171.5 1478,174.1 1471.9,178.5 1463.6,191.5 1340.8,458.9 1343.8,465 1344.7,471.1 1343.4,479.3 
			1338.6,486.7 1331.6,491.5 1323,492.8 1313.8,491.5 1307.3,486.7 1302.5,479.3 1300.3,471.1 1302,462.8 1306,456.2 1312.9,451 		
			"/>
		<polygon class="st10" points="1535,429.7 1543.3,430.2 1551.2,432.7 1564.2,441.9 1573.3,455 1576,462.8 1576.4,471.1 
			1573.3,487.2 1564.2,500.3 1551.2,509.4 1535,512.5 1518.9,509.4 1505.8,500.3 1496.2,487.2 1493.2,471.1 1496.2,455 
			1505.8,441.9 1518.9,432.7 		"/>
		<polygon class="st10" points="1650.9,269.4 1778.8,269.4 1785.9,267.7 1791.1,264.7 1794.5,259.5 1795.8,253.4 1795.8,230.3 
			1794.5,223.3 1791.1,218.1 1785.9,214.6 1778.8,213.3 1650.9,213.3 1644.8,214.6 1639.5,218.1 1636.4,223.3 1634.7,230.3 
			1634.7,253.4 1639.5,264.7 		"/>
	</g>
	<g class="st0">
		<polygon class="st6" points="1830.4,463 1830.4,553.8 1831.2,552.2 1838.8,539 1843.6,523.8 1845.2,508.2 1843.6,492.2 
			1838.8,477.3 1831.2,463.7 		"/>
		<polygon class="st6" points="1830.4,427.7 1830.4,437.3 1832.4,438.9 1847.2,457.7 1857.3,480.2 1860,504.6 1964.9,463.7 
			1964.9,427.7 		"/>
		<polygon class="st6" points="1830.4,326.4 1830.4,408 1965.3,408 1964.9,326.4 		"/>
		<polygon class="st6" points="1830.4,408 1830.4,326.4 1766.7,326.4 1766.7,408 		"/>
		<polygon class="st6" points="1830.4,437.3 1830.4,427.7 1814.8,427.7 1823.6,432.1 		"/>
		<polygon class="st6" points="1830.4,553.8 1830.4,463 1821.6,452.5 1810,442.9 1796.8,434.9 1782,430.1 1766.7,429.3 
			1766.7,470.6 1780.7,472.9 1793.1,481.4 1801.6,493.3 1804.4,508.2 1801.6,522.9 1793.1,535 1780.7,543 1766.7,546.2 
			1766.7,587.4 1782,585.5 1796.8,581.1 1821.6,564.2 		"/>
		<polygon class="st6" points="1766.7,408 1766.7,326.4 1701.9,326.4 1701.9,408 		"/>
		<polygon class="st6" points="1766.7,470.6 1766.7,429.3 1766,428.9 1750,430.1 1735.5,434.9 1722.3,442.9 1710.7,452.5 
			1701.9,463 1701.9,553.8 1710.7,564.2 1722.3,573.4 1735.5,581.1 1750,585.5 1766,587.4 1766.7,587.4 1766.7,546.2 1766,546.2 
			1751.6,543 1739.6,535 1731.9,522.9 1729.1,508.2 1730,500.6 1731.9,493.3 1739.6,481.4 1751.6,472.9 1758.7,470.6 1766,470.1 		
			"/>
		<polygon class="st6" points="1701.9,427.7 1701.9,436.9 1707.5,432.5 1715.9,427.7 		"/>
		<polygon class="st6" points="1701.9,408 1701.9,326.4 1394.5,326.4 1394.5,408 		"/>
		<polygon class="st6" points="1701.9,436.9 1701.9,427.7 1375.2,427.7 1375.2,158 1280.8,158 1280.8,191.9 1352.1,191.9 
			1352.1,290.4 1280.8,290.4 1280.8,410.9 1297.2,411.7 1314,416.5 1329.6,424.1 1344,434.6 1356.9,448.6 1366.5,465.3 1372.5,485 
			1375.2,508.2 1671.5,508.2 1672.7,494.2 1675.5,481.4 1679.8,468.5 1685.1,457.7 1691.5,447.7 1699.1,438.9 		"/>
		<polygon class="st6" points="1701.9,553.8 1701.9,463 1701.1,463.7 1693.8,477.3 1689.5,492.2 1687.5,508.2 1689.5,523.8 
			1693.8,539 1701.1,552.2 		"/>
		<polygon class="st6" points="1280.8,546.2 1280.8,587.4 1296.8,585.5 1311.7,581.1 1336.4,564.2 1346.1,552.2 1353.2,539 
			1358,523.8 1359.6,508.2 1358,492.2 1353.2,477.3 1346.1,463.7 1336.4,452.5 1324.8,442.9 1311.7,434.9 1296.8,430.1 
			1280.8,429.3 1280.8,470.6 1295.2,472.9 1307.2,481.4 1316,493.3 1318.8,508.2 1316,522.9 1307.2,535 1295.2,543 		"/>
		<polygon class="st6" points="1280.8,191.9 1280.8,158 1213.1,158 1153.5,310 1153.5,508.2 1183.9,508.2 1187.1,485 1193.6,465.3 
			1203.2,448.6 1215.1,434.9 1229.6,424.5 1245.2,416.9 1262,412.1 1279.2,410.5 1280.8,410.9 1280.8,290.4 1192.7,290.4 
			1229.9,191.9 		"/>
		<polygon class="st6" points="1280.8,470.6 1280.8,429.3 1280.8,428.9 1264.7,430.1 1250,434.9 1236.7,442.9 1224.8,452.5 
			1215.1,463.7 1207.1,477.3 1203.2,492.2 1201.1,508.2 1203.2,523.8 1207.1,539 1215.1,552.2 1224.8,564.2 1250,581.1 
			1264.7,585.5 1280.8,587.4 1280.8,546.2 1266,543 1253.9,535 1245.6,522.9 1242.7,508.2 1244,500.6 1245.6,493.3 1253.9,481.4 
			1266,472.9 1273.2,470.6 1280.8,470.1 		"/>
		<path class="st11" d="M1766,470.1l14.9,2.8l12.4,8.4l8.4,12l2.8,14.9l-2.8,14.9l-8.4,12l-12.4,8l-14.9,3.2l-14.4-3.2l-12-8
			l-7.6-12l-2.8-14.9l0.9-7.6l2-7.2l7.6-12l12-8.4l7.2-2.5L1766,470.1L1766,470.1z M1280.8,470.1l14.4,2.8l12,8.4l8.8,12l2.8,14.9
			l-2.8,14.9l-8.8,12l-12,8l-14.4,3.2l-14.9-3.2l-12-8l-8.4-12l-2.8-14.9l1.2-7.6l1.6-7.2l8.4-12l12-8.4l7.2-2.5L1280.8,470.1
			L1280.8,470.1z M1766,428.9l16,1.2l14.9,4.8l13.3,8l11.6,9.6l9.6,11.2l7.6,13.6l4.8,14.9l1.6,16l-1.6,15.6L1839,539l-7.6,13.3
			l-9.6,12L1797,581l-14.9,4.4l-16,2l-16-2l-14.4-4.4l-13.3-7.6l-11.6-9.2l-9.6-12l-7.2-13.3l-4.4-15.2l-2-15.6l2-16l4.4-14.9
			l7.2-13.6l9.6-11.2l11.6-9.6l13.3-8l14.4-4.8L1766,428.9L1766,428.9z M1280.8,428.9l16,1.2l14.9,4.8l13.3,8l11.6,9.6l9.6,11.2
			l7.2,13.6l4.8,14.9l1.6,16l-1.6,15.6l-4.8,15.2l-7.2,13.3l-9.6,12l-24.8,16.8l-14.9,4.4l-16,2l-16-2L1250,581l-25.2-16.8l-9.6-12
			l-8-13.3l-4-15.2l-2-15.6l2-16l4-14.9l8-13.6l9.6-11.2l12-9.6l13.3-8l14.9-4.8L1280.8,428.9L1280.8,428.9z M1192.7,290.4
			l37.2-98.4H1352v98.4H1192.7L1192.7,290.4z M1394.5,408v-81.7h570.4l0.4,81.7H1394.5L1394.5,408z M1814.8,427.7H1965v36
			l-104.8,40.8l-2.8-24.5l-10-22.4l-14.9-18.8l-8.8-6.8L1814.8,427.7L1814.8,427.7z M1153.5,508.2V310l59.6-152.1h162.1v269.8h340.6
			l-8.4,4.8l-8.4,6.4l-7.6,8.8l-6.4,10l-5.2,10.8l-4.4,12.8l-2.8,12.8l-1.2,14h-296.3l-2.8-23.2l-6-19.7l-9.6-16.8l-12.8-14
			l-14.4-10.4l-15.6-7.6l-16.8-4.8l-18.1-1.2l-17.2,1.6l-16.8,4.8l-15.6,7.6L1215,435l-12,13.6l-9.6,16.8L1187,485l-3.2,23.2H1153.5
			L1153.5,508.2z"/>
	</g>
	<g>
		<polygon class="st4" points="89.8,354.1 89.8,427.4 91.8,427.2 103,428 113.7,430.7 123.8,435.4 133.2,441.8 141.2,450.1 
			147,460.4 151.9,472.4 153.7,486.4 305.5,486.4 306.3,476.8 308.6,468.3 316.7,452.6 321.9,446 327.8,440.4 334.4,435.9 
			341.5,432.7 159,432.7 159,265.7 89.8,265.7 89.8,288.3 142.9,288.3 142.9,354.1 		"/>
		<polygon class="st4" points="89.8,288.3 89.8,265.7 49.7,265.7 10,367.4 10,486.4 30.3,486.4 32.1,472.4 36.7,460.4 42.9,450.1 
			50.9,441.8 60,435.4 70.1,430.7 80.9,428 89.8,427.4 89.8,354.1 36.7,354.1 61.4,288.3 		"/>
		<path class="st12" d="M36.7,354.1l24.6-65.8h81.6v65.8L36.7,354.1L36.7,354.1z M10,486.4v-119l39.7-101.7h109.2v167h182.5
			l-7.1,3.1l-6.6,4.6l-6,5.4l-5.2,6.6l-8,15.7l-2.3,8.5l-0.9,9.5H153.7l-1.8-14l-4.8-12.2l-6-10.3l-8-8.2l-9.3-6.4l-10.1-4.8
			l-10.7-2.7L91.7,427l-11,0.7L70,430.3l-10.1,4.8l-9.1,6.4l-8,8.2L36.6,460L32,472.2l-1.8,14H10V486.4z"/>
		<polygon class="st13" points="430.6,487.7 429.1,472.4 426.6,464.4 423.3,456.7 418.8,449.7 413.2,443 406.2,437.1 397.7,432.7 
			483.7,432.7 475.8,436.3 468.8,441.8 462.4,448.5 457,456 449.4,472 445.5,487.7 		"/>
		<polygon class="st13" points="978.8,487.7 977.2,472.4 974.7,464.4 971.2,456.7 966.8,449.7 961.4,443 954.3,437.1 945.9,432.7 
			1031.5,432.7 1024,436.3 1016.9,441.8 1010.5,448.5 1005,456 997.2,472 993.7,487.7 		"/>
		<polygon class="st13" points="572.7,488 571.7,479.7 569.4,471.6 566.3,463.1 562,455.3 557,448.2 551,441.8 544.6,436.9 
			537.6,432.9 686.6,432.9 686.6,461.5 616.6,488 		"/>
		<polygon class="st13" points="1120.6,487.7 1119.7,479.5 1117.5,471.4 1114.5,462.9 1110.1,455.1 1105.1,448 1099.1,441.6 
			1092.7,436.3 1085.7,432.7 1234.4,432.7 1234.4,461.1 1164.6,487.7 		"/>
		<polygon class="st13" points="853.3,488 856.1,471.6 858.8,463.1 862.7,455.3 873.6,441.8 880.7,436.9 888.5,432.9 739.5,432.9 
			739.5,461.5 809.5,488 		"/>
		<polygon class="st4" points="91.8,508.8 91.8,539.6 102.6,538.5 112.1,535.5 120.8,530.5 128.6,524.1 134.8,516.6 139.6,507.6 
			142.5,498.1 143.7,487.7 142.5,477.2 139.6,467.7 134.8,459 128.6,451.4 120.8,445.3 112.1,440.4 102.6,437.7 91.8,437.1 
			91.8,465.6 100.5,467.2 104.4,469.1 107.6,472 112.3,479.3 114,487.7 112.3,496 107.6,502.6 100.5,507.2 		"/>
		<polygon class="st4" points="91.8,465.6 91.8,437.1 91.8,436.9 81.3,437.7 71.4,440.4 62.7,445.3 55,451.4 48.6,459 44.1,467.7 
			41,477.2 39.9,487.7 41,498.1 44.1,507.6 48.6,516.6 55,524.1 62.7,530.5 71.4,535.5 81.3,538.5 91.8,539.6 91.8,508.8 
			82.9,507.2 75.8,502.6 71.2,496 69.7,487.7 70.1,483.4 71.2,479.3 75.8,472 82.9,467.2 87.5,465.8 91.8,465.2 		"/>
		<path class="st12" d="M91.8,436.9l10.7,0.9l9.5,2.7l8.7,4.8l7.8,6.2l6.2,7.5l4.8,8.7l2.9,9.5l1.2,10.5l-1.2,10.3l-2.9,9.5
			l-4.8,8.9l-6.2,7.5l-7.8,6.4l-8.7,5l-9.5,2.9l-10.7,1.2l-10.5-1.2l-9.9-2.9l-8.7-5l-7.8-6.4l-6.4-7.5l-4.6-8.9L41,498l-1.2-10.3
			l1.2-10.5l2.9-9.5l4.6-8.7l6.4-7.5l7.8-6.2l8.7-4.8l9.9-2.7L91.8,436.9L91.8,436.9z M91.8,465.2l8.7,2.1l3.9,1.8l3.1,2.9l4.8,7.3
			l1.6,8.5l-1.6,8.2l-4.8,6.6l-7.1,4.6l-8.7,1.6l-8.9-1.6l-7.1-4.6l-4.6-6.6l-1.6-8.2l0.4-4.3l1.2-4.1l4.6-7.3l7.1-4.8l4.6-1.4
			L91.8,465.2L91.8,465.2z"/>
		<polygon class="st4" points="368,508.8 368,539.6 378.7,538.5 388.4,535.5 397.3,530.5 404.8,524.1 411.2,516.6 415.8,507.6 
			418.8,498.1 419.8,487.7 418.8,477.2 415.8,467.7 411.2,459 404.8,451.4 397.3,445.3 388.4,440.4 378.7,437.7 368,437.1 
			368,465.6 372.9,465.8 377,467.2 380.8,469.1 384,472 388.6,479.3 390,483.4 390.4,487.7 388.6,496 384,502.6 377,507.2 		"/>
		<polygon class="st4" points="368,465.6 368,437.1 368,436.9 357.8,437.7 347.9,440.4 339,445.3 331.5,451.4 325.1,459 
			320.6,467.7 317.3,477.2 316.4,487.7 317.3,498.1 320.6,507.6 325.1,516.6 331.5,524.1 339,530.5 347.9,535.5 357.8,538.5 
			368,539.6 368,508.8 359.3,507.2 352.2,502.6 347.5,496 345.8,487.7 347.5,479.3 352.2,472 359.3,467.2 368,465.2 		"/>
		<path class="st12" d="M368,436.9l10.7,0.9l9.5,2.7l8.9,4.8l7.5,6.2l6.4,7.5l4.6,8.7l2.9,9.5l1.2,10.5l-1.2,10.3l-2.9,9.5l-4.6,8.9
			l-6.4,7.5l-7.5,6.4l-8.9,5l-9.5,2.9l-10.7,1.2l-10.3-1.2l-9.9-2.9l-8.9-5l-7.5-6.4l-6.4-7.5l-4.6-8.9l-3.1-9.5l-0.9-10.3l0.9-10.5
			l3.1-9.5l4.6-8.7l6.4-7.5l7.5-6.2l8.9-4.8l9.9-2.7L368,436.9L368,436.9z M368,465.2l4.8,0.7l4.1,1.4l3.9,1.8l3.1,2.9l4.6,7.3
			l1.4,4.1l0.4,4.3l-1.8,8.2l-4.6,6.6l-7.1,4.6l-8.9,1.6l-8.7-1.6l-7.1-4.6l-4.8-6.6l-1.6-8.2l1.6-8.5l4.8-7.3l7.1-4.8L368,465.2
			L368,465.2z"/>
		<polygon class="st4" points="916.2,508.8 916.2,539.6 926.9,538.5 936.5,535.5 945.1,530.5 953,524.1 959.4,516.6 963.9,507.6 
			966.8,498.1 968,487.7 966.8,477.2 963.9,467.7 959.4,459 953,451.4 945.1,445.3 936.5,440.4 926.9,437.7 916.2,437.1 
			916.2,465.6 920.9,465.8 925.1,467.2 928.8,469.1 932.1,472 936.7,479.3 938.1,483.4 938.3,487.7 936.7,496 932.1,502.6 
			925.1,507.2 		"/>
		<polygon class="st4" points="916.2,465.6 916.2,437.1 916.2,436.9 905.9,437.7 895.8,440.4 887.1,445.3 879.4,451.4 873.2,459 
			868.4,467.7 865.4,477.2 864.3,487.7 865.4,498.1 868.4,507.6 873.2,516.6 879.4,524.1 887.1,530.5 895.8,535.5 905.9,538.5 
			916.2,539.6 916.2,508.8 907.5,507.2 900.4,502.6 895.6,496 894,487.7 895.6,479.3 900.4,472 907.5,467.2 916.2,465.2 		"/>
		<path class="st12" d="M916.2,436.9l10.7,0.9l9.5,2.7l8.7,4.8l7.8,6.2l6.4,7.5l4.6,8.7l2.9,9.5l1.1,10.5l-1.1,10.3l-2.9,9.5
			l-4.6,8.9l-6.4,7.5l-7.8,6.4l-8.7,5l-9.5,2.9l-10.7,1.2l-10.3-1.2l-10.1-2.9l-8.7-5l-7.8-6.4l-6.2-7.5l-4.8-8.9l-2.9-9.5
			l-1.2-10.3l1.2-10.5l2.9-9.5l4.8-8.7l6.2-7.5l7.8-6.2l8.7-4.8l10.1-2.7L916.2,436.9L916.2,436.9z M916.2,465.2l4.8,0.7l4.1,1.4
			l3.7,1.8l3.5,2.9l4.6,7.3l1.4,4.1l0.2,4.3l-1.6,8.2l-4.6,6.6l-7.1,4.6l-8.9,1.6l-8.7-1.6l-7.1-4.6l-4.8-6.6l-1.6-8.2l1.6-8.5
			l4.8-7.3l7.1-4.8L916.2,465.2L916.2,465.2z"/>
		<polygon class="st4" points="507.8,508.8 507.8,539.6 509,539.6 519.2,538.5 528.9,535.5 537.4,530.5 544.9,524.1 551.3,516.6 
			555.8,507.6 559.1,498.1 559.9,487.7 559.1,477.2 555.8,467.7 551.3,459 544.9,451.4 537.4,445.3 528.9,440.4 519.2,437.7 
			509,436.9 507.8,437.1 507.8,465.6 509,465.2 513.4,465.8 517.5,467.2 524.1,472 526.8,475.4 528.5,479.3 529.8,483.4 
			530.2,487.7 528.5,496 526.8,499.5 524.1,502.6 517.5,507.2 509,508.8 		"/>
		<polygon class="st4" points="507.8,465.6 507.8,437.1 499,437.7 489.4,440.4 480.2,445.3 472.3,451.4 465.9,459 460.5,467.7 
			457.2,477.2 456.2,487.7 457.2,498.1 460.5,507.6 465.9,516.6 472.3,524.1 480.2,530.5 489.4,535.5 499,538.5 507.8,539.6 
			507.8,508.8 500.4,507.2 492.8,502.6 487.8,496 485.7,487.7 487.8,479.3 492.8,472 500.4,467.2 		"/>
		<path class="st12" d="M509,436.9l10.3,0.9l9.5,2.7l8.5,4.8l7.5,6.2l6.4,7.5l4.6,8.7l3.1,9.5l0.9,10.5l-0.9,10.3l-3.1,9.5l-4.6,8.9
			l-6.4,7.5l-7.5,6.4l-8.5,5l-9.5,2.9l-10.3,1.2l-10.1-1.2l-9.5-2.9l-9.1-5l-8-6.4l-6.4-7.5l-5.3-8.9l-3.5-9.5l-0.9-10.3l0.9-10.5
			l3.5-9.5l5.3-8.7l6.4-7.5l8-6.2l9.1-4.8l9.5-2.7L509,436.9L509,436.9z M509,465.2l4.3,0.7l4.1,1.4l6.6,4.8l2.7,3.5l1.6,3.9
			l1.4,4.1l0.4,4.3l-1.8,8.2l-1.6,3.5l-2.7,3.1l-6.6,4.6l-8.5,1.6l-8.7-1.6l-7.6-4.6l-5-6.6l-2.1-8.2l2.1-8.5l5-7.3l7.6-4.8
			L509,465.2L509,465.2z"/>
		<polygon class="st4" points="1055.9,508.8 1055.9,539.6 1057.1,539.6 1067.2,538.5 1076.8,535.5 1085.5,530.5 1093,524.1 
			1099.4,516.6 1104,507.6 1106.9,498.1 1108.1,487.7 1106.9,477.2 1104,467.7 1099.4,459 1093,451.4 1085.5,445.3 1076.8,440.4 
			1067.2,437.7 1057.1,436.9 1055.9,437.1 1055.9,465.6 1057.1,465.2 1061.5,465.8 1065.6,467.2 1072.2,472 1074.9,475.4 
			1076.6,479.3 1078,483.4 1078.2,487.7 1076.6,496 1074.9,499.5 1072.2,502.6 1065.6,507.2 1057.1,508.8 		"/>
		<polygon class="st4" points="1055.9,465.6 1055.9,437.1 1047,437.7 1037.5,440.4 1028.4,445.3 1020.3,451.4 1013.7,459 
			1008.7,467.7 1005.3,477.2 1004.1,487.7 1005.3,498.1 1008.7,507.6 1013.7,516.6 1020.3,524.1 1028.4,530.5 1037.5,535.5 
			1047,538.5 1055.9,539.6 1055.9,508.8 1048.4,507.2 1040.9,502.6 1035.6,496 1033.8,487.7 1035.6,479.3 1040.9,472 1048.4,467.2 
					"/>
		<path class="st12" d="M1057.1,436.9l10.1,0.9l9.5,2.7l8.7,4.8l7.5,6.2l6.4,7.5l4.6,8.7l2.9,9.5l1.2,10.5l-1.2,10.3l-2.9,9.5
			l-4.6,8.9l-6.4,7.5l-7.5,6.4l-8.7,5l-9.5,2.9l-10.1,1.2l-10.1-1.2l-9.5-2.9l-9.1-5l-8-6.4l-6.6-7.5l-5-8.9l-3.5-9.5l-1.2-10.3
			l1.2-10.5l3.5-9.5l5-8.7l6.6-7.5l8-6.2l9.1-4.8l9.5-2.7L1057.1,436.9L1057.1,436.9z M1057.1,465.2l4.3,0.7l4.1,1.4l6.6,4.8
			l2.7,3.5l1.6,3.9l1.4,4.1l0.2,4.3l-1.6,8.2l-1.6,3.5l-2.7,3.1l-6.6,4.6l-8.5,1.6l-8.7-1.6l-7.5-4.6l-5.2-6.6l-1.8-8.2l1.8-8.5
			l5.2-7.3l7.5-4.8L1057.1,465.2L1057.1,465.2z"/>
		<polygon class="st13" points="740,400.1 740,207.5 1234.4,207.5 1234.4,416.9 174.7,417.2 174.7,207.9 686.6,207.9 686.6,400.1 		
			"/>
	</g>
	<g>
		<polygon class="st4" points="2326,365.1 2326,481 2410.7,481 2426.7,365.1 		"/>
		<polygon class="st4" points="2326,330.9 2326,347.8 2426.3,347.8 2416.1,223.5 2326,223.5 2326,238.4 2399.3,238.4 2408.2,330.9 
					"/>
		<polygon class="st4" points="2326,238.4 2326,223.5 2244.4,223.5 2244.4,238.4 		"/>
		<polygon class="st4" points="2326,347.8 2326,330.9 2244.4,330.9 2244.4,347.8 		"/>
		<polygon class="st4" points="2326,481 2326,365.1 2244.4,365.1 2244.4,428.2 2254.8,428.9 2265.6,431.4 2275.6,435.2 
			2284.5,441.2 2292.3,448.7 2298.3,457.5 2303,468.4 2305.1,481 		"/>
		<polygon class="st4" points="2244.4,511.7 2244.4,533.5 2253,532.5 2261.7,529.8 2269.5,525.6 2276,520.1 2281.6,513.4 
			2285.9,505.9 2288.6,497.3 2289.6,488.2 2288.6,479.2 2285.9,470.8 2281.6,463.1 2276,456.6 2269.5,451 2261.7,447.1 2253,444.2 
			2244.4,443.6 2244.4,465.7 2253.3,467 2260.7,472.1 2263.9,475.4 2265.8,479.4 2267.6,488.2 2267.2,492.8 2265.8,497.3 
			2260.7,504.7 2253.3,509.9 2248.9,511.2 		"/>
		<polygon class="st4" points="2244.4,238.4 2244.4,223.5 1972.3,223.5 1941.9,347.8 2027.2,347.8 2027.2,238.4 2113.2,238.4 
			2113.2,347.8 2244.4,347.8 2244.4,330.9 2244,330.9 		"/>
		<polygon class="st4" points="2244.4,428.2 2244.4,365.1 2113.2,365.1 2113.2,460.7 2027.2,460.7 2027.2,365.1 1941.9,364.5 
			1945.8,460.7 1804.4,460.7 1804.4,464.2 1809.9,470.1 1815.4,479.6 1817.9,491.4 1817.6,506.3 1885.8,499.1 1892.1,479.8 
			2184,480.8 2186,468.2 2190.5,457.5 2196.6,448.7 2204.2,441.2 2213.1,435.2 2222.8,431.4 2233.2,428.9 2244,428 		"/>
		<polygon class="st4" points="2244.4,465.7 2244.4,443.6 2244,443.4 2235.3,444.2 2226.7,447.1 2219.3,451 2212.3,456.6 
			2202.5,470.8 2200,479.2 2198.8,488.2 2200,497.3 2202.5,505.9 2212.3,520.1 2219.3,525.6 2226.7,529.8 2235.3,532.5 2244,533.5 
			2244.4,533.5 2244.4,511.7 2244,511.7 2235.1,509.9 2227.7,504.7 2222.6,497.3 2221,488.2 2222.6,479.4 2227.7,472.1 2235.1,467 
			2244,465.4 		"/>
		<polygon class="st4" points="1804.4,483.1 1804.4,511.9 1804.8,511.5 1807,504.5 1807.7,497.5 1804.8,483.3 		"/>
		<polygon class="st4" points="1804.4,408 1804.4,449.1 1899.8,449.1 1886.2,407.8 		"/>
		<polygon class="st4" points="1804.4,449.1 1804.4,408 1771.4,408 1771.4,449.1 		"/>
		<polygon class="st4" points="1804.4,464.2 1804.4,460.7 1801.1,460.7 		"/>
		<polygon class="st4" points="1804.4,511.9 1804.4,483.1 1801.4,476.8 1796.9,471.5 1791.6,467 1785.5,463.8 1771.4,461.3 
			1771.4,478.4 1778.8,479.6 1784.7,483.8 1788.8,490 1790.2,497.5 1788.8,504.7 1784.7,511 1778.8,514.8 1771.4,516.6 
			1771.4,533.5 1778.6,532.7 1785.5,530.8 1791.6,527 1796.9,522.9 		"/>
		<polygon class="st4" points="1771.4,380.5 1771.4,395.6 1784.2,395.6 		"/>
		<polygon class="st4" points="1771.4,395.6 1771.4,380.5 1737.9,341 1737.9,391.3 1740.2,395.6 		"/>
		<polygon class="st4" points="1771.4,449.1 1771.4,408 1737.9,408 1737.9,449.1 		"/>
		<polygon class="st4" points="1771.4,478.4 1771.4,461.3 1771.4,461.1 1764.4,461.5 1757.4,463.8 1751.1,467 1745.6,471.5 
			1741.4,476.8 1737.9,483.3 1737.9,511.7 1741.4,517.5 1745.6,522.9 1751.1,527 1757.4,530.8 1764.4,532.7 1771.4,533.5 
			1771.4,516.6 1763.7,514.8 1757.6,511 1753.7,504.7 1752.5,501.2 1752.1,497.5 1753.7,490 1757.6,483.8 1763.7,479.6 
			1771.4,478.2 		"/>
		<polygon class="st4" points="1737.9,461.3 1737.9,464 1740.2,461.1 		"/>
		<polygon class="st4" points="1737.9,391.3 1737.9,341 1732.3,334.2 1555.8,334.7 1495.1,395.8 1510.9,395.6 1559.7,346.4 
			1630.5,346.6 1630.7,395.4 1642.1,395.8 1642.1,346.8 1713.3,346.8 		"/>
		<polygon class="st4" points="1737.9,449.1 1737.9,408 1494,408 1491.9,408.2 1491.9,449.1 		"/>
		<polygon class="st4" points="1737.9,464 1737.9,461.3 1491.9,461.3 1491.9,464.2 1498.6,470.1 1504.2,481.7 1506.5,494.3 
			1505.6,506.8 1725.8,507.1 1724.4,493.8 1726.1,482.1 1731.2,471.3 		"/>
		<polygon class="st4" points="1737.9,511.7 1737.9,483.3 1735.8,490 1735.1,497.5 1735.8,504.5 1737.9,511.5 		"/>
		<polygon class="st4" points="1491.9,482.6 1491.9,512.4 1492.5,511.5 1494.4,504.5 1495.4,497.5 1492.5,483.3 		"/>
		<polygon class="st4" points="1491.9,449.1 1491.9,408.2 1458.8,411.9 1458.8,449.1 		"/>
		<polygon class="st4" points="1491.9,464.2 1491.9,461.3 1488.6,461.3 		"/>
		<polygon class="st4" points="1491.9,512.4 1491.9,482.6 1484.4,471.5 1479.1,467 1473,463.8 1459,461.1 1458.8,461.3 
			1458.8,478.4 1459,478.2 1466.5,479.6 1472.4,483.8 1476.5,490 1477.9,497.5 1476.5,504.7 1472.4,511 1466.5,514.8 1459,516.6 
			1458.8,516.6 1458.8,533.5 1459,533.5 1466.3,532.7 1473,530.8 1479.1,527 1484.4,522.9 		"/>
		<polygon class="st4" points="1458.8,449.1 1458.8,411.9 1425.4,415.7 1425.4,449.1 		"/>
		<polygon class="st4" points="1458.8,478.4 1458.8,461.3 1451.8,461.5 1444.9,463.8 1438.6,467 1433,471.5 1428.6,476.8 
			1425.4,483.3 1425.4,511.7 1428.6,517.5 1433,522.9 1438.6,527 1444.9,530.8 1451.8,532.7 1458.8,533.5 1458.8,516.6 
			1455.1,515.8 1451.4,514.8 1445.1,511 1441.1,504.7 1440,501.2 1439.5,497.5 1441.1,490 1445.1,483.8 1451.4,479.6 		"/>
		<polygon class="st4" points="1425.4,461.3 1425.4,464 1428.1,461.1 		"/>
		<polygon class="st4" points="1425.4,449.1 1425.4,415.7 1370.2,421.7 1357.9,449.1 		"/>
		<polygon class="st4" points="1425.4,464 1425.4,461.3 1357.4,461.3 1370.2,500.5 1411.8,506.8 1411.6,492 1414.4,479.8 
			1419.9,469.8 		"/>
		<polygon class="st4" points="1425.4,511.7 1425.4,483.3 1423,490 1422,497.5 1423,504.5 1425.4,511.5 		"/>
		<path class="st14" d="M1459,461.1l-7.2,0.4l-6.9,2.3l-6.3,3.3l-5.5,4.4l-4.4,5.3l-3.3,6.5l-2.3,6.7l-1,7.5l1,6.9l2.3,6.9l3.3,6.1
			l4.4,5.3l5.5,4.2l6.3,3.7l6.9,1.8l7.2,0.9l7.2-0.9l6.7-1.8l6.1-3.7l5.3-4.2l8.1-11.4l1.8-6.9l1-6.9l-2.8-14.2l-8.1-11.8l-5.3-4.4
			l-6.1-3.3L1459,461.1L1459,461.1z M1771.4,461.1l-6.9,0.4l-6.9,2.3l-6.3,3.3l-5.6,4.4l-4.2,5.3l-3.5,6.5l-2.1,6.7l-0.7,7.5
			l0.7,6.9l2.1,6.9l3.5,6.1l4.2,5.3l5.6,4.2l6.3,3.7l6.9,1.8l6.9,0.9l7.2-0.9l6.9-1.8l6.1-3.7l5.3-4.2l7.9-11.4l2.1-6.9l0.7-6.9
			l-2.8-14.2l-3.5-6.5l-4.4-5.3l-5.3-4.4l-6.1-3.3L1771.4,461.1L1771.4,461.1z M1411.8,506.8l-0.2-14.9l2.8-12l5.5-10l8.1-8.8
			l-70.7,0.2l12.8,39.3L1411.8,506.8L1411.8,506.8z M1725.8,507.1l-1.4-13.2l1.6-11.6l5.1-11l9.1-10.2l-251.6,0.2l10,8.8l5.6,11.6
			l2.3,12.6l-1,12.6L1725.8,507.1L1725.8,507.1z M1899.8,449.1l-13.5-41.3L1494,408l-123.7,13.8l-12.4,27.5h541.9V449.1z
			 M1510.9,395.6l48.8-49.3l70.7,0.2l0.2,48.8l11.4,0.4v-49h71.2l27,48.8h43.9l-51.9-61.4l-176.5,0.4l-60.7,61.2L1510.9,395.6
			L1510.9,395.6z M1771.4,478.2l-7.7,1.4l-6.1,4.2l-4,6.3l-1.6,7.5l0.4,3.7l1.2,3.5l4,6.3l6.1,3.7l7.7,1.8l7.4-1.8l5.9-3.7l4.2-6.3
			l1.4-7.2l-1.4-7.5l-4.2-6.3l-5.9-4.2L1771.4,478.2L1771.4,478.2z M1459,478.2l-7.7,1.4l-6.3,4.2l-3.9,6.3l-1.6,7.5l0.4,3.7
			l1.2,3.5l3.9,6.3l6.3,3.7l3.7,1.2l3.9,0.7l7.5-1.8l5.9-3.7l4.2-6.3l1.4-7.2l-1.4-7.5l-4.2-6.3l-5.9-4.2L1459,478.2L1459,478.2z
			 M1892.1,479.8l-6.3,19.3l-68.1,7.2l0.2-14.9l-2.6-11.8l-5.3-9.5l-8.8-9.3h144.6l-3.9-96.2l85.4,0.7v95.6h86v-95.6h313.5
			l-16.1,115.8H2305l-2.1-12.6l-4.7-11l-6.1-8.8l-7.9-7.5l-8.9-6.1l-10-3.7l-10.7-2.6l-11-1l-10.7,1l-10.5,2.6l-9.8,3.7l-8.8,6.1
			l-7.7,7.5l-6.1,8.8l-4.4,10.7l-2.1,12.6L1892.1,479.8L1892.1,479.8z M1941.9,347.8l30.5-124.1h443.7l10.2,124.1h-313.1V238.4h-86
			v109.3L1941.9,347.8L1941.9,347.8L1941.9,347.8z M2244,330.9l0.4-92.6h154.8l8.8,92.6H2244L2244,330.9z M2244,465.4l9.3,1.6
			l7.4,5.1l3.3,3.3l1.8,3.9l1.8,8.8l-0.4,4.7l-1.4,4.4l-5.1,7.5l-7.4,5.1l-4.4,1.4l-4.9,0.4l-8.8-1.8l-7.5-5.1l-5.1-7.5l-1.6-9.1
			l1.6-8.8l5.1-7.2l7.5-5.1L2244,465.4L2244,465.4z M2244,443.4l9.1,0.9l8.6,2.8l7.9,3.9l6.5,5.6l5.5,6.5l4.2,7.7l2.8,8.4l1,9.1
			l-1,9.1l-2.8,8.6l-4.2,7.5l-5.5,6.7l-6.5,5.6l-7.9,4.2l-8.6,2.6l-9.1,1.2l-8.6-1.2l-8.6-2.6l-7.5-4.2l-6.9-5.6l-9.8-14.2l-2.6-8.6
			l-1.2-9.1l1.2-9.1l2.6-8.4l9.8-14.2l6.9-5.6l7.5-3.9l8.6-2.8L2244,443.4L2244,443.4z"/>
	</g>
</g>
</svg>
