<?xml version="1.0" encoding="utf-8"?>
<!-- Generator: Adobe Illustrator 19.2.0, SVG Export Plug-In . SVG Version: 6.00 Build 0)  -->
<svg version="1.1" id="Livello_1" xmlns="http://www.w3.org/2000/svg" xmlns:xlink="http://www.w3.org/1999/xlink" x="0px" y="0px"
	 viewBox="0 0 1711.4 708.7" style="enable-background:new 0 0 1711.4 708.7;" xml:space="preserve">
<style type="text/css">
	.st0{display:none;}
	.st1{display:inline;}
	.st2{fill:#1A171B;stroke:#1A171B;stroke-width:2.5033;stroke-miterlimit:2.6131;}
	.st3{fill:#1A171B;}
	.st4{fill:#070E0C;}
	.st5{fill:none;stroke:#070E0C;stroke-width:1.3995;stroke-linejoin:bevel;stroke-miterlimit:2.6131;}
	.st6{fill:#070E0C;stroke:#070E0C;stroke-width:1.362919e-003;stroke-linejoin:bevel;stroke-miterlimit:2.6131;}
</style>
<g id="Livello_1_1_" class="st0">
	<g class="st1">
		<path class="st2" d="M667.5,374.4c-57.1,0-103.6,46.5-103.6,103.6s46.6,103.6,103.6,103.6c57.1,0,103.6-46.6,103.6-103.6
			C771.1,420.9,724.6,374.4,667.5,374.4z M667.5,548c-38.5,0-70-31.4-70-70c0-38.5,31.4-70,70-70c38.5,0,70,31.4,70,70
			S706,548,667.5,548z"/>
		<path class="st3" d="M1043.9,374.4c-57.1,0-103.6,46.5-103.6,103.6s46.5,103.6,103.6,103.6S1147.5,535,1147.5,478
			C1147.6,420.9,1101,374.4,1043.9,374.4z M1043.9,548c-38.5,0-70-31.4-70-70c0-38.5,31.4-70,70-70s70,31.4,70,70
			S1082.5,548,1043.9,548z"/>
		<path class="st2" d="M865.9,541.2l-61.5-115.9c-8.2-15.6-8.5-27.2,9.2-39.1l75.4-34l-60.5-45.4l-33,25.8
			c-3.4,4.1-11.9,7.1-21.7,7.8l-87,0.3c-26.5,0.7-25.1-40.1,0-40.4l76.8-0.3l97.5-78.1c8.2,0,19,2.4,24.1,7.8l70.3,107.7
			c10.9,12.6,11.5,31.9-3.1,38.4L852,418.2l54,101.2C918.6,546.3,879.2,567.4,865.9,541.2L865.9,541.2L865.9,541.2z"/>
		<path class="st2" d="M777.2,268.4l-3.1-21.4l42.5-35l-5.8-32.3l-37.4,6.5c-10.5,3.7-8.8-4.8-8.5-12.6c2.7-31.3,32.6-51,58.8-45.9
			c26.2,5.1,38.1,29.9,40.4,43.2c2.4,13.2,3.1,27.5-5.4,31.9L777.2,268.4L777.2,268.4z"/>
	</g>
	<g class="st1">
		<polygon class="st4" points="1308.9,399.2 1149.6,399.2 1149.6,405 1158.9,414.7 1167.9,430.7 1172.2,450.5 1171.8,475.4 
			1285.7,463.3 		"/>
		<polygon class="st4" points="1149.6,436.5 1149.6,484.7 1150.4,483.9 1153.9,472.3 1155.1,460.6 1150.4,436.9 		"/>
		<polygon class="st4" points="1149.6,310.9 1149.6,379.7 1309,379.7 1286.5,310.5 		"/>
		<polygon class="st4" points="1149.6,379.7 1149.6,310.9 1094.4,310.9 1094.4,379.7 		"/>
		<polygon class="st4" points="1149.6,405 1149.6,399.2 1144.2,399.2 		"/>
		<polygon class="st4" points="1149.6,484.7 1149.6,436.5 1144.6,426 1137.2,417.1 1128.2,409.7 1118.1,404.2 1094.4,400 
			1094.4,428.7 1106.8,430.7 1116.6,437.7 1123.6,448.2 1125.9,460.6 1123.6,472.7 1116.6,483.1 1106.8,489.4 1094.4,492.5 
			1094.4,520.9 1106.5,519.3 1118.1,516.2 1128.2,510 1137.2,503 		"/>
		<polygon class="st4" points="1094.4,265.1 1094.4,290.3 1115.8,290.3 		"/>
		<polygon class="st4" points="1094.4,290.3 1094.4,265.1 1038.4,199 1038.4,282.9 1042.3,290.3 		"/>
		<polygon class="st4" points="1094.4,379.7 1094.4,310.9 1038.4,310.9 1038.4,379.7 		"/>
		<polygon class="st4" points="1094.4,428.7 1094.4,400 1094.4,399.6 1082.7,400.3 1071.1,404.2 1060.6,409.7 1051.3,417.1 
			1044.3,426 1038.4,436.9 1038.4,484.3 1044.3,494 1051.3,503 1060.6,510 1071.1,516.2 1082.7,519.3 1094.4,520.9 1094.4,492.5 
			1081.6,489.4 1071.5,483.1 1064.9,472.7 1062.9,466.8 1062.1,460.6 1064.9,448.2 1071.5,437.7 1081.6,430.7 1094.4,428.3 		"/>
		<polygon class="st4" points="1038.4,400 1038.4,404.6 1042.3,399.6 		"/>
		<polygon class="st4" points="1038.4,282.9 1038.4,199 1029.1,187.7 734,188.5 632.6,290.7 659,290.3 740.6,207.9 858.8,208.3 
			859.2,289.9 878.3,290.7 878.3,208.7 997.2,208.7 		"/>
		<polygon class="st4" points="1038.4,379.7 1038.4,310.9 630.6,310.9 627.1,311.3 627.1,379.7 		"/>
		<polygon class="st4" points="1038.4,404.6 1038.4,400 627.1,400 627.1,405 638.4,414.7 647.7,434.2 651.6,455.2 650.1,476.2 
			1018.2,476.5 1015.9,454.4 1018.6,434.9 1027.2,416.7 		"/>
		<polygon class="st4" points="1038.4,484.3 1038.4,436.9 1034.9,448.2 1033.8,460.6 1034.9,472.3 1038.4,483.9 		"/>
		<polygon class="st4" points="627.1,435.7 627.1,485.5 628.3,483.9 631.4,472.3 633,460.6 628.3,436.9 		"/>
		<polygon class="st4" points="627.1,379.7 627.1,311.3 571.9,317.5 571.9,379.7 		"/>
		<polygon class="st4" points="627.1,405 627.1,400 621.7,400 		"/>
		<polygon class="st4" points="627.1,485.5 627.1,435.7 614.7,417.1 605.7,409.7 595.6,404.2 572.3,399.6 571.9,400 571.9,428.7 
			572.3,428.3 584.7,430.7 594.5,437.7 601.5,448.2 603.8,460.6 601.5,472.7 594.5,483.1 584.7,489.4 572.3,492.5 571.9,492.5 
			571.9,520.9 572.3,520.9 584.4,519.3 595.6,516.2 605.7,510 614.7,503 		"/>
		<polygon class="st4" points="571.9,379.7 571.9,317.5 515.9,323.8 515.9,379.7 		"/>
		<polygon class="st4" points="571.9,428.7 571.9,400 560.3,400.3 548.6,404.2 538.1,409.7 528.8,417.1 521.4,426 515.9,436.9 
			515.9,484.3 521.4,494 528.8,503 538.1,510 548.6,516.2 560.3,519.3 571.9,520.9 571.9,492.5 565.7,491.3 559.5,489.4 549,483.1 
			542.4,472.7 540.4,466.8 539.6,460.6 542.4,448.2 549,437.7 559.5,430.7 		"/>
		<polygon class="st4" points="515.9,400 515.9,404.6 520.6,399.6 		"/>
		<polygon class="st4" points="515.9,379.7 515.9,323.8 423.8,333.9 403.2,379.7 		"/>
		<polygon class="st4" points="515.9,404.6 515.9,400 402.4,400 423.8,465.7 493.4,476.2 493,451.3 497.7,431.1 507,414.3 		"/>
		<polygon class="st4" points="515.9,484.3 515.9,436.9 512.1,448.2 510.5,460.6 512.1,472.3 515.9,483.9 		"/>
		<path class="st5" d="M572.3,399.6l-12,0.8l-11.7,3.9l-10.5,5.4l-9.3,7.4l-7.4,8.9l-5.4,10.9l-3.9,11.3l-1.6,12.4l1.6,11.7L516,484
			l5.4,10.1l7.4,8.9l9.3,7l10.5,6.2l11.7,3.1l12,1.6l12.1-1.6l11.3-3.1l10.1-6.2l8.9-7l13.6-19.1l3.1-11.7l1.6-11.7l-4.7-23.7
			L614.7,417l-8.9-7.4l-10.1-5.4L572.3,399.6L572.3,399.6z M1094.4,399.6l-11.7,0.8l-11.7,3.9l-10.5,5.4l-9.3,7.4l-7,8.9l-5.8,10.9
			l-3.5,11.3l-1.2,12.4l1.2,11.7l3.5,11.7l5.8,10.1l7,8.9l9.3,7l10.5,6.2l11.7,3.1l11.7,1.6l12.1-1.6l11.7-3.1l10.1-6.2l8.9-7
			l13.2-19.1l3.5-11.7l1.2-11.7l-4.7-23.7l-5.8-10.9l-7.4-8.9l-8.9-7.4l-10.1-5.4L1094.4,399.6L1094.4,399.6z M493.4,476.2
			l-0.4-24.9l4.7-20.2l9.3-16.7l13.6-14.8L402.4,400l21.4,65.7L493.4,476.2L493.4,476.2z M1018.2,476.5l-2.3-22.2l2.7-19.4l8.5-18.3
			l15.2-17.1l-420.6,0.4l16.7,14.8l9.3,19.4l3.9,21l-1.6,21L1018.2,476.5L1018.2,476.5z M1309,379.7l-22.5-69.2l-655.8,0.4
			l-206.8,22.9l-20.6,45.9H1309L1309,379.7z M659,290.3l81.6-82.4l118.2,0.4l0.4,81.6l19,0.8v-82h119l45.1,81.6h73.5l-86.7-102.6
			L734,188.5L632.6,290.7L659,290.3L659,290.3z M1094.4,428.3l-12.8,2.3l-10.1,7l-6.6,10.5l-2.7,12.4l0.8,6.2l1.9,5.8l6.6,10.5
			l10.1,6.2l12.8,3.1l12.4-3.1l9.7-6.2l7-10.5l2.3-12.1l-2.3-12.4l-7-10.5l-9.7-7L1094.4,428.3L1094.4,428.3z M572.3,428.3
			l-12.8,2.3l-10.5,7l-6.6,10.5l-2.7,12.4l0.8,6.2l1.9,5.8L549,483l10.5,6.2l6.2,1.9l6.6,1.2l12.4-3.1l9.7-6.2l7-10.5l2.3-12.1
			l-2.3-12.4l-7-10.5l-9.7-7L572.3,428.3L572.3,428.3z"/>
	</g>
</g>
<g>
	<polygon class="st6" points="872.3,439.7 876.4,430.5 878.2,420.6 876.7,411.2 873.2,402.8 1014.4,402.8 1021.7,404.3 1027,408.4 
		1029.8,414.5 1030.7,420.9 1029.8,428 1027,434.1 1021.7,437.9 1014.4,439.7 	"/>
	<polygon class="st6" points="806.3,390.2 763.6,320.4 781.5,283 825.6,357.5 906.6,357.8 906.3,303.2 907.4,298.8 909.8,295.3 
		913.3,293.5 918.2,292.6 1059.1,292.3 1058.8,320.7 1030.4,320.7 1005.9,322.5 985.5,326 967.9,332.1 960.3,335.9 953.3,341.2 
		940.5,353.4 928.8,369.5 917.1,390.2 864.2,390.2 859.2,385.6 853.3,382.9 846.7,381.2 839.6,380.3 826.4,382.9 820.6,385.6 
		816.3,390.2 	"/>
	<polygon class="st6" points="716.3,299.9 709.6,257.8 752.3,257.3 731.2,299.9 	"/>
	<polygon class="st6" points="959.7,389.9 937.8,389.9 950.1,369.2 958.3,360.5 967.6,353.2 978.1,347 989.5,342.6 1001.8,339.7 
		1014.4,338.5 1031.1,340 1046.6,345 1060.5,352.6 1072.5,362.8 1082.8,375 1090.4,389.1 1095.3,404.6 1097.1,421.5 1095.3,437.9 
		1090.4,453.4 1082.8,467.4 1072.5,479.7 1060.5,489.3 1046.6,497.2 1031.1,502.2 1014.4,503.9 989.5,499.8 977.8,495.5 
		967.3,489.3 949.8,472.9 937.3,452.2 958.6,452.2 968.8,465.3 981.6,475.9 997.1,482.3 1014.4,484.9 1027.3,483.5 1039,479.7 
		1049.7,474.1 1058.8,466.3 1067,456.9 1072.5,446 1076,434.1 1077.5,421.5 1076,408.4 1072.5,397 1067,385.9 1058.8,376.5 
		1049.7,368.4 1039,362.8 1027.3,359.2 1014.4,357.8 997.4,360.5 989.8,363.1 982.5,367.1 969.4,376.8 	"/>
	<polygon class="st6" points="739.1,374.7 747.5,356 760.7,368.9 770.9,384.7 777.7,402.2 779.5,411.6 779.7,421.5 777.9,437.9 
		773,453.4 765.4,467.4 755.1,479.7 743.2,489.3 729.2,497.2 713.7,502.2 697,503.9 680.3,502.2 664.6,497.2 650.6,489.3 
		638.3,479.7 628.6,467.4 620.7,453.4 616.1,437.9 614.3,421.5 616.1,404.6 620.7,389.1 628.6,375 638.3,362.8 650.6,352.6 
		664.6,345 680.3,340 697,338.5 712.8,340.2 704.3,358.7 697,357.8 684.4,359.2 672.4,362.8 661.6,368.4 652,376.5 644.4,385.9 
		638.3,397 634.8,408.4 633.6,421.5 634.8,434.1 638.3,446 644.4,456.9 652,466.3 661.6,474.1 672.4,479.7 684.4,483.5 697,484.9 
		709.6,483.5 721.6,479.7 732,474.1 741.4,466.3 749.6,456.9 755.1,446 758.7,434.1 760.2,421.5 758.7,407.8 754.6,395.5 
		747.8,384.1 	"/>
	<polygon class="st6" points="695.5,406 778.5,225.1 783.5,217.2 789.6,211.7 797.2,207 805.7,204.7 844.3,204.7 844.3,219.3 
		806.3,219.3 801,221 797,224 791.4,232.7 709,412.2 711,416.3 711.6,420.4 710.7,425.9 707.5,430.8 702.9,434.1 697,434.9 
		690.9,434.1 686.5,430.8 683.3,425.9 681.8,420.4 683,414.8 685.6,410.4 690.3,406.9 	"/>
	<polygon class="st6" points="839.3,392.6 844.9,392.9 850.2,394.6 858.9,400.8 865,409.5 866.8,414.8 867.1,420.4 865,431.2 
		858.9,439.9 850.2,446 839.3,448.1 828.5,446 819.8,439.9 813.3,431.2 811.3,420.4 813.3,409.5 819.8,400.8 828.5,394.6 	"/>
	<polygon class="st6" points="917.1,285 1003,285 1007.7,283.9 1011.2,281.9 1013.5,278.3 1014.4,274.3 1014.4,258.8 1013.5,254 
		1011.2,250.6 1007.7,248.2 1003,247.4 917.1,247.4 913,248.2 909.5,250.6 907.4,254 906.3,258.8 906.3,274.3 909.5,281.9 	"/>
</g>
</svg>
