<?xml version="1.0" encoding="utf-8"?>
<!-- Generator: Adobe Illustrator 19.2.0, SVG Export Plug-In . SVG Version: 6.00 Build 0)  -->
<svg version="1.1" id="Livello_1" xmlns="http://www.w3.org/2000/svg" xmlns:xlink="http://www.w3.org/1999/xlink" x="0px" y="0px"
	 viewBox="0 0 1711.4 708.7" style="enable-background:new 0 0 1711.4 708.7;" xml:space="preserve">
<style type="text/css">
	.st0{display:none;}
	.st1{display:inline;}
	.st2{fill:#1A171B;stroke:#1A171B;stroke-width:2.5033;stroke-miterlimit:2.6131;}
	.st3{fill:#1A171B;}
	.st4{fill:#070E0C;}
	.st5{fill:none;stroke:#070E0C;stroke-width:1.3995;stroke-linejoin:bevel;stroke-miterlimit:2.6131;}
	.st6{display:inline;fill:#070E0C;}
	.st7{fill:none;stroke:#070E0C;stroke-width:1.329325e-003;stroke-linejoin:bevel;stroke-miterlimit:2.6131;}
	.st8{fill:#070E0C;stroke:#070E0C;stroke-width:1.310050e-003;stroke-linejoin:bevel;stroke-miterlimit:2.6131;}
	.st9{fill:none;stroke:#070E0C;stroke-width:1.310050e-003;stroke-linejoin:bevel;stroke-miterlimit:2.6131;}
</style>
<g id="Livello_1_1_" class="st0">
	<g class="st1">
		<path class="st2" d="M667.5,374.4c-57.1,0-103.6,46.5-103.6,103.6s46.6,103.6,103.6,103.6c57.1,0,103.6-46.6,103.6-103.6
			C771.1,420.9,724.6,374.4,667.5,374.4z M667.5,548c-38.5,0-70-31.4-70-70c0-38.5,31.4-70,70-70c38.5,0,70,31.4,70,70
			S706,548,667.5,548z"/>
		<path class="st3" d="M1043.9,374.4c-57.1,0-103.6,46.5-103.6,103.6s46.5,103.6,103.6,103.6S1147.5,535,1147.5,478
			C1147.6,420.9,1101,374.4,1043.9,374.4z M1043.9,548c-38.5,0-70-31.4-70-70c0-38.5,31.4-70,70-70s70,31.4,70,70
			S1082.5,548,1043.9,548z"/>
		<path class="st2" d="M865.9,541.2l-61.5-115.9c-8.2-15.6-8.5-27.2,9.2-39.1l75.4-34l-60.5-45.4l-33,25.8
			c-3.4,4.1-11.9,7.1-21.7,7.8l-87,0.3c-26.5,0.7-25.1-40.1,0-40.4l76.8-0.3l97.5-78.1c8.2,0,19,2.4,24.1,7.8l70.3,107.7
			c10.9,12.6,11.5,31.9-3.1,38.4L852,418.2l54,101.2C918.6,546.3,879.2,567.4,865.9,541.2L865.9,541.2L865.9,541.2z"/>
		<path class="st2" d="M777.2,268.4l-3.1-21.4l42.5-35l-5.8-32.3l-37.4,6.5c-10.5,3.7-8.8-4.8-8.5-12.6c2.7-31.3,32.6-51,58.8-45.9
			c26.2,5.1,38.1,29.9,40.4,43.2c2.4,13.2,3.1,27.5-5.4,31.9L777.2,268.4L777.2,268.4z"/>
	</g>
	<g class="st1">
		<polygon class="st4" points="1308.9,399.2 1149.6,399.2 1149.6,405 1158.9,414.7 1167.9,430.7 1172.2,450.5 1171.8,475.4 
			1285.7,463.3 		"/>
		<polygon class="st4" points="1149.6,436.5 1149.6,484.7 1150.4,483.9 1153.9,472.3 1155.1,460.6 1150.4,436.9 		"/>
		<polygon class="st4" points="1149.6,310.9 1149.6,379.7 1309,379.7 1286.5,310.5 		"/>
		<polygon class="st4" points="1149.6,379.7 1149.6,310.9 1094.4,310.9 1094.4,379.7 		"/>
		<polygon class="st4" points="1149.6,405 1149.6,399.2 1144.2,399.2 		"/>
		<polygon class="st4" points="1149.6,484.7 1149.6,436.5 1144.6,426 1137.2,417.1 1128.2,409.7 1118.1,404.2 1094.4,400 
			1094.4,428.7 1106.8,430.7 1116.6,437.7 1123.6,448.2 1125.9,460.6 1123.6,472.7 1116.6,483.1 1106.8,489.4 1094.4,492.5 
			1094.4,520.9 1106.5,519.3 1118.1,516.2 1128.2,510 1137.2,503 		"/>
		<polygon class="st4" points="1094.4,265.1 1094.4,290.3 1115.8,290.3 		"/>
		<polygon class="st4" points="1094.4,290.3 1094.4,265.1 1038.4,199 1038.4,282.9 1042.3,290.3 		"/>
		<polygon class="st4" points="1094.4,379.7 1094.4,310.9 1038.4,310.9 1038.4,379.7 		"/>
		<polygon class="st4" points="1094.4,428.7 1094.4,400 1094.4,399.6 1082.7,400.3 1071.1,404.2 1060.6,409.7 1051.3,417.1 
			1044.3,426 1038.4,436.9 1038.4,484.3 1044.3,494 1051.3,503 1060.6,510 1071.1,516.2 1082.7,519.3 1094.4,520.9 1094.4,492.5 
			1081.6,489.4 1071.5,483.1 1064.9,472.7 1062.9,466.8 1062.1,460.6 1064.9,448.2 1071.5,437.7 1081.6,430.7 1094.4,428.3 		"/>
		<polygon class="st4" points="1038.4,400 1038.4,404.6 1042.3,399.6 		"/>
		<polygon class="st4" points="1038.4,282.9 1038.4,199 1029.1,187.7 734,188.5 632.6,290.7 659,290.3 740.6,207.9 858.8,208.3 
			859.2,289.9 878.3,290.7 878.3,208.7 997.2,208.7 		"/>
		<polygon class="st4" points="1038.4,379.7 1038.4,310.9 630.6,310.9 627.1,311.3 627.1,379.7 		"/>
		<polygon class="st4" points="1038.4,404.6 1038.4,400 627.1,400 627.1,405 638.4,414.7 647.7,434.2 651.6,455.2 650.1,476.2 
			1018.2,476.5 1015.9,454.4 1018.6,434.9 1027.2,416.7 		"/>
		<polygon class="st4" points="1038.4,484.3 1038.4,436.9 1034.9,448.2 1033.8,460.6 1034.9,472.3 1038.4,483.9 		"/>
		<polygon class="st4" points="627.1,435.7 627.1,485.5 628.3,483.9 631.4,472.3 633,460.6 628.3,436.9 		"/>
		<polygon class="st4" points="627.1,379.7 627.1,311.3 571.9,317.5 571.9,379.7 		"/>
		<polygon class="st4" points="627.1,405 627.1,400 621.7,400 		"/>
		<polygon class="st4" points="627.1,485.5 627.1,435.7 614.7,417.1 605.7,409.7 595.6,404.2 572.3,399.6 571.9,400 571.9,428.7 
			572.3,428.3 584.7,430.7 594.5,437.7 601.5,448.2 603.8,460.6 601.5,472.7 594.5,483.1 584.7,489.4 572.3,492.5 571.9,492.5 
			571.9,520.9 572.3,520.9 584.4,519.3 595.6,516.2 605.7,510 614.7,503 		"/>
		<polygon class="st4" points="571.9,379.7 571.9,317.5 515.9,323.8 515.9,379.7 		"/>
		<polygon class="st4" points="571.9,428.7 571.9,400 560.3,400.3 548.6,404.2 538.1,409.7 528.8,417.1 521.4,426 515.9,436.9 
			515.9,484.3 521.4,494 528.8,503 538.1,510 548.6,516.2 560.3,519.3 571.9,520.9 571.9,492.5 565.7,491.3 559.5,489.4 549,483.1 
			542.4,472.7 540.4,466.8 539.6,460.6 542.4,448.2 549,437.7 559.5,430.7 		"/>
		<polygon class="st4" points="515.9,400 515.9,404.6 520.6,399.6 		"/>
		<polygon class="st4" points="515.9,379.7 515.9,323.8 423.8,333.9 403.2,379.7 		"/>
		<polygon class="st4" points="515.9,404.6 515.9,400 402.4,400 423.8,465.7 493.4,476.2 493,451.3 497.7,431.1 507,414.3 		"/>
		<polygon class="st4" points="515.9,484.3 515.9,436.9 512.1,448.2 510.5,460.6 512.1,472.3 515.9,483.9 		"/>
		<path class="st5" d="M572.3,399.6l-12,0.8l-11.7,3.9l-10.5,5.4l-9.3,7.4l-7.4,8.9l-5.4,10.9l-3.9,11.3l-1.6,12.4l1.6,11.7L516,484
			l5.4,10.1l7.4,8.9l9.3,7l10.5,6.2l11.7,3.1l12,1.6l12.1-1.6l11.3-3.1l10.1-6.2l8.9-7l13.6-19.1l3.1-11.7l1.6-11.7l-4.7-23.7
			L614.7,417l-8.9-7.4l-10.1-5.4L572.3,399.6L572.3,399.6z M1094.4,399.6l-11.7,0.8l-11.7,3.9l-10.5,5.4l-9.3,7.4l-7,8.9l-5.8,10.9
			l-3.5,11.3l-1.2,12.4l1.2,11.7l3.5,11.7l5.8,10.1l7,8.9l9.3,7l10.5,6.2l11.7,3.1l11.7,1.6l12.1-1.6l11.7-3.1l10.1-6.2l8.9-7
			l13.2-19.1l3.5-11.7l1.2-11.7l-4.7-23.7l-5.8-10.9l-7.4-8.9l-8.9-7.4l-10.1-5.4L1094.4,399.6L1094.4,399.6z M493.4,476.2
			l-0.4-24.9l4.7-20.2l9.3-16.7l13.6-14.8L402.4,400l21.4,65.7L493.4,476.2L493.4,476.2z M1018.2,476.5l-2.3-22.2l2.7-19.4l8.5-18.3
			l15.2-17.1l-420.6,0.4l16.7,14.8l9.3,19.4l3.9,21l-1.6,21L1018.2,476.5L1018.2,476.5z M1309,379.7l-22.5-69.2l-655.8,0.4
			l-206.8,22.9l-20.6,45.9H1309L1309,379.7z M659,290.3l81.6-82.4l118.2,0.4l0.4,81.6l19,0.8v-82h119l45.1,81.6h73.5l-86.7-102.6
			L734,188.5L632.6,290.7L659,290.3L659,290.3z M1094.4,428.3l-12.8,2.3l-10.1,7l-6.6,10.5l-2.7,12.4l0.8,6.2l1.9,5.8l6.6,10.5
			l10.1,6.2l12.8,3.1l12.4-3.1l9.7-6.2l7-10.5l2.3-12.1l-2.3-12.4l-7-10.5l-9.7-7L1094.4,428.3L1094.4,428.3z M572.3,428.3
			l-12.8,2.3l-10.5,7l-6.6,10.5l-2.7,12.4l0.8,6.2l1.9,5.8L549,483l10.5,6.2l6.2,1.9l6.6,1.2l12.4-3.1l9.7-6.2l7-10.5l2.3-12.1
			l-2.3-12.4l-7-10.5l-9.7-7L572.3,428.3L572.3,428.3z"/>
	</g>
</g>
<g id="Livello_2_1_">
	<g class="st0">
		<polygon class="st6" points="1067.6,490.5 1067.6,573.2 1071.3,574.1 1095.2,576.6 1119.2,574.1 1141.7,567 1161.9,556.2 
			1179.9,541.3 1194.5,523.5 1205.5,503.4 1212.4,481.1 1214.7,457.1 1212.4,433.2 1205.5,410.7 1194.5,390.5 1179.9,372.6 
			1161.9,358 1141.7,346.9 1119.2,340 1095.2,337.7 1083.3,338.3 1071.3,340 1067.6,341.3 1067.6,423.9 1071,421 1078.5,417 
			1086.7,414.5 1095.2,413.6 1104.1,414.5 1112.3,417 1120,421 1126,426.4 1131.5,432.4 1135.4,440.1 1138,448.4 1138.9,457.1 
			1135.4,474.1 1131.5,481.5 1126,487.9 1112.3,497.1 1095.2,500.6 1086.7,499.7 1078.5,497.1 1071,493.2 		"/>
		<polygon class="st6" points="1067.6,198.1 1067.6,322.9 1071.3,322.1 1077.3,319.2 1081.3,313.8 1083.3,305 1083,216.3 
			1081.5,210.1 1079,204.9 1074.7,201.2 1069.6,198.7 		"/>
		<polygon class="st6" points="1067.6,140.8 1067.6,178.4 1073,170.2 1075,159.7 1073,148.5 		"/>
		<polygon class="st6" points="1067.6,178.4 1067.6,140.8 1067.3,140 1063,136.2 1058.4,133.9 1047.6,132 1042.3,132.3 
			1037.1,133.9 1029.6,139.4 1029.6,179.8 1037.1,184.5 1047.6,186.7 1058.4,184.5 1067.3,178.6 		"/>
		<polygon class="st6" points="1067.6,322.9 1067.6,198.1 1064.2,197.2 1058.4,197.2 1052.8,198.7 1047,201.2 1029.6,211.5 
			1029.6,285.3 1034.5,296.4 1029.6,297.9 1029.6,332.4 1062.8,324.1 		"/>
		<polygon class="st6" points="1067.6,423.9 1067.6,341.3 1060.2,342.9 1049.1,346.9 1029.6,357.7 1029.6,556.7 1049.1,567 
			1067.6,573.2 1067.6,490.5 1064.5,487.9 1059.3,481.5 1055.3,474.1 1052.8,465.8 1051.9,457.1 1052.8,448.4 1055.3,440.1 
			1059.3,432.4 1064.5,426.4 		"/>
		<polygon class="st6" points="1029.6,179.8 1029.6,139.4 1028.5,140 1022.6,148.5 1021.1,153.6 1020.3,159.7 1022.6,170.2 
			1028.5,178.6 		"/>
		<polygon class="st6" points="1029.6,285.3 1029.6,211.5 945.9,260.5 942.5,264.2 940.7,269.4 942.8,279.9 950.7,286.7 
			955.9,287.9 961.3,286.1 1016.9,255.7 		"/>
		<polygon class="st6" points="1029.6,332.4 1029.6,297.9 968.7,314.1 963.2,317.9 959.8,321.8 955.3,332.1 937.3,410.2 
			937.3,443.2 939.2,445 944.7,447.3 950.7,447.3 956.4,445.4 961,441 963.6,434.6 985.8,342.9 		"/>
		<polygon class="st6" points="1029.6,556.7 1029.6,357.7 1028.5,358 1010.9,372.6 1003.2,381.1 996.4,390.5 990.4,400.5 
			985.2,410.7 980.9,421.6 978.1,433.2 976.3,445 975.5,457.1 978.1,481.1 985.2,503.4 990.4,513.9 996.4,523.5 1003.2,532.8 
			1010.9,541.3 1028.5,556.2 		"/>
		<polygon class="st6" points="937.3,295 937.3,308.6 940.4,305.6 941.6,301.8 940.4,297.9 		"/>
		<polygon class="st6" points="937.3,308.6 937.3,295 897.2,255.1 893.2,252.8 888.5,255.1 886.3,257.7 884.3,261.9 886.3,266 
			902.2,282.4 878.9,305.6 874.3,288.7 774,288.7 774,417 911.9,417 883.5,321.3 913.1,293 929,308.6 933,310.1 		"/>
		<polygon class="st6" points="937.3,443.2 937.3,410.2 933,428.1 932.8,435 934.8,440.7 		"/>
		<polygon class="st6" points="774,462.6 774,546.4 775.7,544.5 782.3,532.2 786.9,518.8 788.3,504.3 786.9,489.7 782.3,476.3 
			775.7,464.3 		"/>
		<polygon class="st6" points="774,431.5 774,442 775.1,442.6 787.2,457.1 923.4,456.9 915.9,431.5 		"/>
		<polygon class="st6" points="774,417 774,288.7 716.5,288.7 716.5,417 		"/>
		<polygon class="st6" points="774,442 774,431.5 759.8,431.5 768,436.7 		"/>
		<polygon class="st6" points="774,546.4 774,462.6 766.8,453.7 756.3,445 744.3,438.4 731,434.1 716.5,433.2 716.5,473.4 
			728.7,475.7 734.1,478.3 738.7,482.5 745.5,492.3 747.7,504.3 745.5,516.2 738.7,526.5 728.7,533.4 716.5,535.8 716.5,576 
			731,574.8 744.3,570.4 756.3,563.6 766.8,555 		"/>
		<polygon class="st6" points="716.5,417 716.5,288.7 645.2,288.7 683.1,417 		"/>
		<polygon class="st6" points="716.5,473.4 716.5,433.2 716.5,433 701.9,434.1 688.5,438.4 676.2,445 665.6,453.7 657.2,464.3 
			650.2,476.3 645.7,489.7 644.6,504.3 645.7,518.8 650.2,532.2 657.2,544.5 665.6,555 676.2,563.6 688.5,570.4 701.9,574.8 
			716.5,576 716.5,535.8 704.5,533.4 694.2,526.5 690.2,521.9 687.6,516.2 684.7,504.3 685.7,497.9 687.6,492.3 690.2,486.8 
			694.2,482.5 698.7,478.3 704.5,475.7 710.1,474.1 716.5,473.2 		"/>
		<g class="st1">
			<path class="st7" d="M787.2,457.1l-12-14.5l-7.1-6l-8.3-5.2H916l7.4,25.3L787.2,457.1L787.2,457.1z M955.3,332.1l4.6-10.2l3.4-4
				l5.5-3.7l65.8-17.7l-17.7-40.8l-55.6,30.6l-5.5,1.8l-5.2-1.2l-8-6.8l-2-10.5l1.8-5.2l3.4-3.7l101.2-59.3l5.6-2.6l5.6-1.5h5.6
				l5.5,1.5l5.2,2.6l4.3,3.7l2.6,5.2l1.4,6.2l0.3,88.7l-2,8.9l-4,5.5l-6,2.8l-8.6,2l-76.9,18.8l-22.3,91.6l-2.6,6.2l-4.6,4.6
				l-5.6,1.8h-5.8l-5.5-2.2l-4.6-4.3l-2-5.6l0.3-6.8L955.3,332.1L955.3,332.1z M878.9,305.6l23.4-23.2l-16-16.6l-2-4l2-4.3l2.2-2.6
				l4.6-2.2l4,2.2l43.3,42.8l1.2,4l-1.2,3.7l-3.2,3.2l-4.3,1.5l-4-1.5L913,292.8L883.4,321l28.5,95.8H683.1l-37.9-128h229.2
				L878.9,305.6L878.9,305.6z M1095.2,337.7l24,2.2l22.5,6.8l20.3,11.1l17.9,14.5l14.5,17.9l11.1,20.3l6.8,22.5l2.2,24l-2.2,24
				l-6.8,22.2l-11.1,20.3l-14.5,17.7l-17.9,14.9l-20.3,10.8l-22.5,7.1l-24,2.6l-24-2.6l-22.2-7.1l-20.5-10.8l-17.7-14.9l-7.7-8.6
				l-6.8-9.1l-6-9.6l-5.2-10.5l-7.1-22.2l-2.6-24l0.9-12.3l1.8-11.7l2.8-11.7l4.3-10.8l5.2-10.2l6-10l6.8-9.4l7.7-8.6l17.7-14.5
				l20.5-11.1l11.1-4l11.1-2.8l12-1.8L1095.2,337.7L1095.2,337.7z M1095.2,413.6l8.9,0.9l8.3,2.6l7.7,4l6,5.5l5.5,6l4,7.7l2.6,8.3
				l0.9,8.9l-3.4,16.8l-4,7.4l-5.5,6.6l-13.7,9.1l-17.1,3.4l-8.6-0.9l-8.3-2.6l-7.4-4l-6.6-5.2l-5.2-6.6l-4-7.4l-2.6-8.3l-0.9-8.6
				l0.9-8.9l2.6-8.3l4-7.7l5.2-6l6.6-5.5l7.4-4l8.3-2.6L1095.2,413.6L1095.2,413.6z M716.5,433l14.5,1.2l13.4,4.3l12,6.6l10.5,8.9
				l8.9,10.5l6.6,12l4.6,13.3l1.5,14.5l-1.5,14.5l-4.6,13.4l-6.6,12.3l-8.9,10.5l-10.5,8.6l-12,6.8L731,575l-14.5,1.2L702,575
				l-13.4-4.6l-12.3-6.8l-10.5-8.6l-8.6-10.5l-6.8-12.3l-4.6-13.4l-1.2-14.5l1.2-14.5l4.6-13.4l6.8-12l8.6-10.5l10.5-8.9l12.3-6.6
				l13.4-4.3L716.5,433L716.5,433z M716.5,473.2l12.3,2.6l5.5,2.6l4.6,4.3l6.8,9.6l2.2,12l-2.2,12l-6.8,10.2l-10,6.8l-12.3,2.6
				l-12-2.6l-10.2-6.8l-4-4.6l-2.6-5.6l-2.8-12l0.9-6.2l2-5.6l2.6-5.5l4-4.3l4.6-4.3l5.6-2.6l5.6-1.8L716.5,473.2L716.5,473.2z
				 M1047.6,132l10.8,2l4.6,2.2l4.3,3.7l5.6,8.6l2,11.1l-2,10.5l-5.6,8.6l-8.9,5.6l-10.8,2.2l-10.5-2.2l-8.6-5.6l-6-8.6l-2.2-10.5
				l0.9-6l1.5-5.2l6-8.6l8.6-6l5.2-1.8H1047.6L1047.6,132z"/>
		</g>
	</g>
	<g>
		<polygon class="st8" points="622.2,342.9 598.2,349.3 574.7,350.5 420.8,350.5 594.6,172.4 635.9,212.7 652.3,230.6 662.1,247.6 
			666.1,264.4 664.4,281.6 646.2,263.1 633.7,258.8 621.6,259.9 616,261.6 610.4,264.6 601.4,272.3 594.8,282.4 591.5,294.8 
			592.4,307.2 598.2,319.5 		"/>
		<polygon class="st4" points="946.5,367.7 792.1,367.3 845,332 946.5,332 		"/>
		<polygon class="st4" points="1084,367.3 976.6,367.7 968.2,366 961.7,361.8 958.3,356.2 956.9,349.6 958.3,342.9 961.7,337.3 
			968.2,333.1 976.6,332 1035.4,332 1030.9,289.7 1033.7,277.4 1040.8,268.9 1050.8,263.8 1062.3,262.7 1074,264.4 1083.5,269.8 
			1087.7,273.5 1090.8,278.3 1092.8,283.2 1093.4,289.7 		"/>
		<polygon class="st4" points="1099.8,332 1168.5,332 1216.9,367.3 1094.5,367.7 		"/>
		<path class="st9" d="M946.5,367.7l-154.4-0.3L845,332h101.6L946.5,367.7L946.5,367.7z M1084,367.3l-107.4,0.3l-8.5-1.8l-6.5-4.2
			l-3.4-5.6l-1.4-6.5l1.4-6.7l3.4-5.6l6.5-4.2l8.5-1.2h58.8l-4.5-42.3l2.8-12.4l7.1-8.5l10.1-5.1l11.5-1.2l11.5,1.8l9.5,5.4l4.2,3.7
			l3.1,4.8l1.9,5.1l0.6,6.5L1084,367.3L1084,367.3z M1099.8,332h68.6l48.4,35.4l-122.4,0.3L1099.8,332L1099.8,332z"/>
		<polygon class="st8" points="643.8,280.8 811.2,447.9 816.3,455.2 818,463.6 816.3,472 811.2,479.3 804.2,484.1 795.7,485.8 
			787.3,484.1 779.7,479.3 612.6,312.2 608.1,304.9 606.4,296.5 608.1,288.1 612.6,280.8 620.3,275.7 628.3,274 636.8,275.7 		"/>
		<polygon class="st8" points="1217.7,444.2 1224.7,445.5 1230.4,449.5 1234.6,455.5 1235.9,462.5 1234.6,469.5 1230.4,475.7 
			1224.7,479.6 1217.7,481.1 1210.6,479.6 1204.5,475.7 1200.6,469.5 1199.1,462.5 1200.6,455.5 1204.5,449.5 1210.6,445.5 		"/>
		<path class="st4" d="M1289.1,447.6l-4.2-13.5l-6.7-12.1l-9.1-10.6l-10.7-9.3l-12.4-6.7l-13.4-4.2l-14.9-1.4h-0.3H792.9h-7.6
			l-7.6,0.8l25.1,26.1l7,2.2l6.5,3.7l6.1,4.8l5.1,6.1l7.6,13.5l1.9,7.3l0.9,8.1l-1.2,9.1l-2.2,8.5l-9.8,14.9l-6.7,5.3l-7.9,4.2
			l-17.2,3.7l-15.2-2.7l-13.2-7.6l-9.5-11.5l-6.2-14l-27.3-27.1l-1.7,17.2l1.4,14.9l4.2,13.8l6.7,12.5l8.7,11l11.1,8.8l12.5,6.7
			l13.8,4.5l14.9,1.2l424.5,0.6h0.3l14.9-1.4l13.4-4.6l12.4-7l10.7-8.8l9.1-11.2l6.7-12.5l4.2-13.8l1.4-14.6L1289.1,447.6z
			 M1261.5,471.4l-2.5,8.5l-4.2,7.9l-5.3,7.1l-6.5,5.3l-7.9,4.2l-8.5,2.6l-9.1,1.1h-0.3l-17.4-3.7l-7.6-4.2l-6.7-5.3l-5.4-7.1
			l-4.2-7.9l-3.7-17.4l1.2-9.1l2.5-8.5l4.2-7.6l5.4-6.5l6.7-5.4l7.6-4.2l8.5-2.5l9.1-0.6l0.3-0.3l9.1,0.8l8.5,2.5l7.9,4.2l6.5,5.4
			l5.3,6.5l4.2,7.6l2.5,8.5l0.9,9.1L1261.5,471.4z"/>
		<path class="st9" d="M802.8,416.6l-25.1-26.1l7.6-0.8h7.6h424.7l14.9,1.4l13.4,4.2l12.4,6.7l10.7,9.3l9.1,10.7l6.7,12.1l4.2,13.4
			l1.4,14.9L1289,477l-4.2,13.8l-6.8,12.5l-9.1,11.3l-10.7,8.7l-12.4,7.1l-13.4,4.5l-14.9,1.4l-424.7-0.6l-14.9-1.2l-13.8-4.5
			l-12.3-6.7l-11-9.1l-8.7-11l-6.7-12.4l-4.2-13.8l-1.4-14.9l1.8-17.1l27.3,27.1l6.1,14l9.5,11.5l13.2,7.6l15.2,2.8l17.1-3.7
			l7.9-4.2l6.7-5.4l9.8-14.9l2.2-8.5l1.2-9.1l-0.8-8.1l-1.9-7.3l-7.6-13.4l-5.1-6.1l-6.1-4.8l-6.5-3.7L802.8,416.6L802.8,416.6z
			 M1217.7,418.1l9.1,0.8l8.5,2.5l7.9,4.2l6.5,5.4l5.4,6.5l4.2,7.6l2.5,8.5l0.8,9.1l-0.8,9.1l-2.5,8.5l-4.2,7.9l-5.4,7.1l-6.5,5.4
			l-7.9,4.2l-8.5,2.5l-9.1,1.2l-17.7-3.7l-7.6-4.2l-6.7-5.4l-5.4-7.1l-4.2-7.9l-3.7-17.4l1.2-9.1l2.5-8.5l4.2-7.6l5.4-6.5l6.7-5.4
			l7.6-4.2l8.5-2.5L1217.7,418.1L1217.7,418.1z"/>
		<polygon class="st8" points="1061.3,206.5 1066.3,207 1071.2,208.7 1075.1,210.7 1078.5,213.8 1081.5,217.2 1083.5,221.4 
			1085.2,225.9 1085.8,230.9 1083.5,240 1081.5,244.2 1078.5,247.9 1071.2,252.9 1061.3,254.9 1052,252.9 1044.4,247.9 1039.3,240 
			1037.4,230.9 1039.3,221.4 1044.4,213.8 1052,208.7 		"/>
	</g>
</g>
</svg>
