<?xml version="1.0" encoding="utf-8"?>
<!-- Generator: Adobe Illustrator 19.2.0, SVG Export Plug-In . SVG Version: 6.00 Build 0)  -->
<svg version="1.1" id="Livello_1" xmlns="http://www.w3.org/2000/svg" xmlns:xlink="http://www.w3.org/1999/xlink" x="0px" y="0px"
	 viewBox="0 0 1711.4 708.7" style="enable-background:new 0 0 1711.4 708.7;" xml:space="preserve">
<style type="text/css">
	.st0{display:none;}
	.st1{display:inline;}
	.st2{fill:#1A171B;stroke:#1A171B;stroke-width:2.5033;stroke-miterlimit:2.6131;}
	.st3{fill:#1A171B;}
	.st4{fill:#070E0C;}
	.st5{fill:none;stroke:#070E0C;stroke-width:1.3995;stroke-linejoin:bevel;stroke-miterlimit:2.6131;}
	.st6{fill:none;stroke:#070E0C;stroke-width:1.455299e-003;stroke-linejoin:bevel;stroke-miterlimit:2.6131;}
</style>
<g id="Livello_1_1_" class="st0">
	<g class="st1">
		<path class="st2" d="M667.5,374.4c-57.1,0-103.6,46.5-103.6,103.6s46.6,103.6,103.6,103.6c57.1,0,103.6-46.6,103.6-103.6
			C771.1,420.9,724.6,374.4,667.5,374.4z M667.5,548c-38.5,0-70-31.4-70-70c0-38.5,31.4-70,70-70c38.5,0,70,31.4,70,70
			S706,548,667.5,548z"/>
		<path class="st3" d="M1043.9,374.4c-57.1,0-103.6,46.5-103.6,103.6s46.5,103.6,103.6,103.6S1147.5,535,1147.5,478
			C1147.6,420.9,1101,374.4,1043.9,374.4z M1043.9,548c-38.5,0-70-31.4-70-70c0-38.5,31.4-70,70-70s70,31.4,70,70
			S1082.5,548,1043.9,548z"/>
		<path class="st2" d="M865.9,541.2l-61.5-115.9c-8.2-15.6-8.5-27.2,9.2-39.1l75.4-34l-60.5-45.4l-33,25.8
			c-3.4,4.1-11.9,7.1-21.7,7.8l-87,0.3c-26.5,0.7-25.1-40.1,0-40.4l76.8-0.3l97.5-78.1c8.2,0,19,2.4,24.1,7.8l70.3,107.7
			c10.9,12.6,11.5,31.9-3.1,38.4L852,418.2l54,101.2C918.6,546.3,879.2,567.4,865.9,541.2L865.9,541.2L865.9,541.2z"/>
		<path class="st2" d="M777.2,268.4l-3.1-21.4l42.5-35l-5.8-32.3l-37.4,6.5c-10.5,3.7-8.8-4.8-8.5-12.6c2.7-31.3,32.6-51,58.8-45.9
			c26.2,5.1,38.1,29.9,40.4,43.2c2.4,13.2,3.1,27.5-5.4,31.9L777.2,268.4L777.2,268.4z"/>
	</g>
	<g class="st1">
		<polygon class="st4" points="1308.9,399.2 1149.6,399.2 1149.6,405 1158.9,414.7 1167.9,430.7 1172.2,450.5 1171.8,475.4 
			1285.7,463.3 		"/>
		<polygon class="st4" points="1149.6,436.5 1149.6,484.7 1150.4,483.9 1153.9,472.3 1155.1,460.6 1150.4,436.9 		"/>
		<polygon class="st4" points="1149.6,310.9 1149.6,379.7 1309,379.7 1286.5,310.5 		"/>
		<polygon class="st4" points="1149.6,379.7 1149.6,310.9 1094.4,310.9 1094.4,379.7 		"/>
		<polygon class="st4" points="1149.6,405 1149.6,399.2 1144.2,399.2 		"/>
		<polygon class="st4" points="1149.6,484.7 1149.6,436.5 1144.6,426 1137.2,417.1 1128.2,409.7 1118.1,404.2 1094.4,400 
			1094.4,428.7 1106.8,430.7 1116.6,437.7 1123.6,448.2 1125.9,460.6 1123.6,472.7 1116.6,483.1 1106.8,489.4 1094.4,492.5 
			1094.4,520.9 1106.5,519.3 1118.1,516.2 1128.2,510 1137.2,503 		"/>
		<polygon class="st4" points="1094.4,265.1 1094.4,290.3 1115.8,290.3 		"/>
		<polygon class="st4" points="1094.4,290.3 1094.4,265.1 1038.4,199 1038.4,282.9 1042.3,290.3 		"/>
		<polygon class="st4" points="1094.4,379.7 1094.4,310.9 1038.4,310.9 1038.4,379.7 		"/>
		<polygon class="st4" points="1094.4,428.7 1094.4,400 1094.4,399.6 1082.7,400.3 1071.1,404.2 1060.6,409.7 1051.3,417.1 
			1044.3,426 1038.4,436.9 1038.4,484.3 1044.3,494 1051.3,503 1060.6,510 1071.1,516.2 1082.7,519.3 1094.4,520.9 1094.4,492.5 
			1081.6,489.4 1071.5,483.1 1064.9,472.7 1062.9,466.8 1062.1,460.6 1064.9,448.2 1071.5,437.7 1081.6,430.7 1094.4,428.3 		"/>
		<polygon class="st4" points="1038.4,400 1038.4,404.6 1042.3,399.6 		"/>
		<polygon class="st4" points="1038.4,282.9 1038.4,199 1029.1,187.7 734,188.5 632.6,290.7 659,290.3 740.6,207.9 858.8,208.3 
			859.2,289.9 878.3,290.7 878.3,208.7 997.2,208.7 		"/>
		<polygon class="st4" points="1038.4,379.7 1038.4,310.9 630.6,310.9 627.1,311.3 627.1,379.7 		"/>
		<polygon class="st4" points="1038.4,404.6 1038.4,400 627.1,400 627.1,405 638.4,414.7 647.7,434.2 651.6,455.2 650.1,476.2 
			1018.2,476.5 1015.9,454.4 1018.6,434.9 1027.2,416.7 		"/>
		<polygon class="st4" points="1038.4,484.3 1038.4,436.9 1034.9,448.2 1033.8,460.6 1034.9,472.3 1038.4,483.9 		"/>
		<polygon class="st4" points="627.1,435.7 627.1,485.5 628.3,483.9 631.4,472.3 633,460.6 628.3,436.9 		"/>
		<polygon class="st4" points="627.1,379.7 627.1,311.3 571.9,317.5 571.9,379.7 		"/>
		<polygon class="st4" points="627.1,405 627.1,400 621.7,400 		"/>
		<polygon class="st4" points="627.1,485.5 627.1,435.7 614.7,417.1 605.7,409.7 595.6,404.2 572.3,399.6 571.9,400 571.9,428.7 
			572.3,428.3 584.7,430.7 594.5,437.7 601.5,448.2 603.8,460.6 601.5,472.7 594.5,483.1 584.7,489.4 572.3,492.5 571.9,492.5 
			571.9,520.9 572.3,520.9 584.4,519.3 595.6,516.2 605.7,510 614.7,503 		"/>
		<polygon class="st4" points="571.9,379.7 571.9,317.5 515.9,323.8 515.9,379.7 		"/>
		<polygon class="st4" points="571.9,428.7 571.9,400 560.3,400.3 548.6,404.2 538.1,409.7 528.8,417.1 521.4,426 515.9,436.9 
			515.9,484.3 521.4,494 528.8,503 538.1,510 548.6,516.2 560.3,519.3 571.9,520.9 571.9,492.5 565.7,491.3 559.5,489.4 549,483.1 
			542.4,472.7 540.4,466.8 539.6,460.6 542.4,448.2 549,437.7 559.5,430.7 		"/>
		<polygon class="st4" points="515.9,400 515.9,404.6 520.6,399.6 		"/>
		<polygon class="st4" points="515.9,379.7 515.9,323.8 423.8,333.9 403.2,379.7 		"/>
		<polygon class="st4" points="515.9,404.6 515.9,400 402.4,400 423.8,465.7 493.4,476.2 493,451.3 497.7,431.1 507,414.3 		"/>
		<polygon class="st4" points="515.9,484.3 515.9,436.9 512.1,448.2 510.5,460.6 512.1,472.3 515.9,483.9 		"/>
		<path class="st5" d="M572.3,399.6l-12,0.8l-11.7,3.9l-10.5,5.4l-9.3,7.4l-7.4,8.9l-5.4,10.9l-3.9,11.3l-1.6,12.4l1.6,11.7L516,484
			l5.4,10.1l7.4,8.9l9.3,7l10.5,6.2l11.7,3.1l12,1.6l12.1-1.6l11.3-3.1l10.1-6.2l8.9-7l13.6-19.1l3.1-11.7l1.6-11.7l-4.7-23.7
			L614.7,417l-8.9-7.4l-10.1-5.4L572.3,399.6L572.3,399.6z M1094.4,399.6l-11.7,0.8l-11.7,3.9l-10.5,5.4l-9.3,7.4l-7,8.9l-5.8,10.9
			l-3.5,11.3l-1.2,12.4l1.2,11.7l3.5,11.7l5.8,10.1l7,8.9l9.3,7l10.5,6.2l11.7,3.1l11.7,1.6l12.1-1.6l11.7-3.1l10.1-6.2l8.9-7
			l13.2-19.1l3.5-11.7l1.2-11.7l-4.7-23.7l-5.8-10.9l-7.4-8.9l-8.9-7.4l-10.1-5.4L1094.4,399.6L1094.4,399.6z M493.4,476.2
			l-0.4-24.9l4.7-20.2l9.3-16.7l13.6-14.8L402.4,400l21.4,65.7L493.4,476.2L493.4,476.2z M1018.2,476.5l-2.3-22.2l2.7-19.4l8.5-18.3
			l15.2-17.1l-420.6,0.4l16.7,14.8l9.3,19.4l3.9,21l-1.6,21L1018.2,476.5L1018.2,476.5z M1309,379.7l-22.5-69.2l-655.8,0.4
			l-206.8,22.9l-20.6,45.9H1309L1309,379.7z M659,290.3l81.6-82.4l118.2,0.4l0.4,81.6l19,0.8v-82h119l45.1,81.6h73.5l-86.7-102.6
			L734,188.5L632.6,290.7L659,290.3L659,290.3z M1094.4,428.3l-12.8,2.3l-10.1,7l-6.6,10.5l-2.7,12.4l0.8,6.2l1.9,5.8l6.6,10.5
			l10.1,6.2l12.8,3.1l12.4-3.1l9.7-6.2l7-10.5l2.3-12.1l-2.3-12.4l-7-10.5l-9.7-7L1094.4,428.3L1094.4,428.3z M572.3,428.3
			l-12.8,2.3l-10.5,7l-6.6,10.5l-2.7,12.4l0.8,6.2l1.9,5.8L549,483l10.5,6.2l6.2,1.9l6.6,1.2l12.4-3.1l9.7-6.2l7-10.5l2.3-12.1
			l-2.3-12.4l-7-10.5l-9.7-7L572.3,428.3L572.3,428.3z"/>
	</g>
</g>
<g>
	<polygon class="st4" points="1067,397.2 1067,404.7 1068.5,406 1080.1,420.6 1087.9,438.1 1090.1,457.1 1171.8,425.3 1171.8,397.2 
			"/>
	<polygon class="st4" points="1067,404.7 1067,397.2 1054.8,397.2 1061.6,400.6 	"/>
	<polygon class="st4" points="966.8,397.2 966.8,404.4 971.2,401 977.7,397.2 	"/>
	<polygon class="st4" points="1171.8,318.2 1067,318.2 1017.3,318.2 966.8,318.2 727.1,318.2 727.1,381.9 966.8,381.9 1017.3,381.9 
		1067,381.9 1172.1,381.9 	"/>
	<path class="st4" d="M1077.2,447.4l-3.7-11.6l-5.9-10.6l-0.6-0.6l-6.9-8.2l-9-7.5l-10.3-6.2l-11.5-3.7l-11.9-0.6l-0.6-0.3
		l-12.5,0.9l-11.3,3.8l-10.3,6.2l-9,7.5l-6.9,8.2l-0.6,0.6l-5.7,10.6l-3.4,11.6l-1.5,12.5l1.5,12.2l3.4,11.8l5.7,10.3l0.6,1.2
		l6.9,8.1l9,7.2l10.3,6l11.2,3.4l12.5,1.5h0.6l11.9-1.5l11.5-3.4l19.3-13.2l6.9-8.1l0.6-1.2l5.9-10.3l3.7-11.8l1.2-12.2
		L1077.2,447.4z M1044.5,471.4l-6.6,9.4l-9.7,6.2l-10.9,2.5h-0.6l-11.2-2.5l-9.3-6.2l-6-9.4l-2.2-11.5l0.7-5.9l1.5-5.7l6-9.3
		l9.3-6.6l5.6-1.8l5.7-0.3l0.6,0.3l10.9,1.8l9.7,6.6l6.6,9.3l2.2,11.6L1044.5,471.4z"/>
	<path class="st4" d="M712.2,397.2V186.9h-73.6h-52.7l-46.5,118.6V460H563l2.5-18.1l5-15.3l7.5-13.1l9.3-10.7l11.2-8.1l12.2-5.9
		l13.1-3.7l13.4-1.2l1.2,0.3l12.8,0.6l13.1,3.7l12.2,5.9l11.2,8.2l10,10.9l7.5,13.1l4.7,15.3l2.2,18.1H943l0.9-10.9l2.2-10l3.4-10
		l4.1-8.4l5-7.8l5.9-6.8l2.2-1.6v-7.2H712.2V397.2z M694.1,290.1h-55.6h-68.6l29-76.7h39.7h55.6v76.7H694.1z"/>
	<path class="st4" d="M698.7,447.4l-3.7-11.6l-5.6-10.6l-7.5-8.7l-9.1-7.5l-10.2-6.2l-11.6-3.7l-12.5-0.6v-0.3l-12.5,0.9l-11.5,3.7
		l-10.3,6.2l-9.3,7.5l-7.5,8.7l-6.2,10.6l-3.1,11.6l-1.6,12.5l1.6,12.2l3.1,11.8l6.2,10.3l7.5,9.3l19.7,13.2l11.5,3.4l12.5,1.5
		l12.5-1.5l11.6-3.4l19.3-13.2l7.5-9.3l5.6-10.3l3.7-11.8l1.2-12.2L698.7,447.4z M666,471.4l-6.9,9.4l-9.3,6.2l-11.2,2.5l-11.5-2.5
		l-9.4-6.2l-6.5-9.4l-2.2-11.5l1-5.9l1.2-5.7l6.5-9.3l9.4-6.6l5.6-1.8l5.9-0.3v0.3l11.2,1.8l9.3,6.6l6.9,9.3l2.2,11.6L666,471.4z"/>
	<path class="st6" d="M1016.7,430.3l11.6,2.2l9.7,6.6l6.6,9.3l2.2,11.6l-2.2,11.6l-6.6,9.3l-9.7,6.2l-11.6,2.5l-11.2-2.5l-9.3-6.2
		l-5.9-9.3l-2.2-11.6l0.7-5.9l1.6-5.6l5.9-9.3l9.3-6.6l5.6-1.9L1016.7,430.3L1016.7,430.3z M638.5,430.3l11.2,2.2l9.3,6.6l6.8,9.3
		L668,460l-2.2,11.6l-6.8,9.3l-9.3,6.2l-11.2,2.5l-11.6-2.5l-9.3-6.2l-6.6-9.3l-2.2-11.6l0.9-5.9l1.2-5.6l6.6-9.3l9.3-6.6l5.6-1.9
		L638.5,430.3L638.5,430.3z M1016.7,398.1l12.5,0.9l11.6,3.7l10.3,6.2l9.1,7.5l7.5,8.7l5.9,10.6l3.7,11.6l1.2,12.5l-1.2,12.2
		l-3.7,11.8l-5.9,10.3l-7.5,9.3l-19.3,13.1l-11.6,3.4l-12.5,1.6l-12.5-1.6l-11.2-3.4l-10.3-5.9l-9.1-7.2l-7.5-9.3l-5.6-10.3
		l-3.4-11.8l-1.6-12.2l1.6-12.5l3.4-11.6l5.6-10.6l7.5-8.7l9.1-7.5l10.3-6.2l11.2-3.7L1016.7,398.1L1016.7,398.1z M638.5,398.1
		L651,399l11.6,3.7l10.3,6.2l9.1,7.5l7.5,8.7l5.6,10.6l3.7,11.6l1.2,12.5l-1.2,12.2l-3.7,11.8l-5.6,10.3l-7.5,9.3l-19.3,13.1
		l-11.6,3.4l-12.5,1.6l-12.5-1.6l-11.6-3.4l-19.7-13.1l-7.5-9.3l-6.2-10.3L578,472l-1.6-12.2l1.6-12.5l3.1-11.6l6.2-10.6l7.5-8.7
		l9.3-7.5l10.3-6.2L626,399L638.5,398.1L638.5,398.1z M569.9,290.1l29-76.7H694v76.7H569.9L569.9,290.1z M727.1,381.9v-63.7h444.6
		l0.3,63.7H727.1L727.1,381.9z M1054.8,397.2h117.1v28.1l-81.7,31.8L1088,438l-7.8-17.5l-11.6-14.7l-6.8-5.3L1054.8,397.2
		L1054.8,397.2z M539.3,459.9V305.5l46.5-118.6h126.4v210.3h265.5l-6.6,3.7l-6.6,5l-5.9,6.8l-5,7.8l-4.1,8.4l-3.4,10l-2.2,10
		l-0.9,10.9H712.2l-2.2-18.1l-4.7-15.3l-7.5-13.1l-10-10.9l-11.2-8.1l-12.2-5.9l-13.1-3.7l-14.1-0.9l-13.4,1.2l-13.1,3.7l-12.2,5.9
		l-11.2,8.1l-9.3,10.6l-7.5,13.1l-5,15.3l-2.5,18.1L539.3,459.9L539.3,459.9z"/>
</g>
</svg>
